<?xml version="1.0" encoding="UTF-8"?>
<svg xmlns:xlink="http://www.w3.org/1999/xlink" viewBox="0 0 35.1 394.5822190397537" version="1.1" style="font-synthesis: none;" width="35.1mm" height="394.58221903975374mm" xmlns="http://www.w3.org/2000/svg">
  <defs />
  <style>	</style>
  <path d="M 0 0 L 35.1 0 L 35.1 394.5822190397537 L 0 394.5822190397537 Z " stroke="none" fill-rule="nonzero" fill="#FFFFFF" fill-opacity="1" transform="matrix(1,0,0,1,0,0)" />
  <path d="M 0 373.7322190397537 L 10 373.7322190397537 L 10 375.2322190397537 L 0 375.2322190397537 Z " stroke="none" fill-rule="evenodd" fill="#000000" fill-opacity="1" transform="matrix(1,0,0,1,5.05,13.314)" id="mark1 l" />
  <path d="M 0 362.7180361268198 L 10 362.7180361268198 L 10 364.2180361268198 L 0 364.2180361268198 Z " stroke="none" fill-rule="evenodd" fill="#000000" fill-opacity="1" transform="matrix(1,0,0,1,5.05,13.314)" id="mark2 l" />
  <path d="M 0 351.70385321388585 L 10 351.70385321388585 L 10 353.20385321388585 L 0 353.20385321388585 Z " stroke="none" fill-rule="evenodd" fill="#000000" fill-opacity="1" transform="matrix(1,0,0,1,5.05,13.314)" id="mark3 l" />
  <path d="M 0 340.68967030095195 L 10 340.68967030095195 L 10 342.18967030095195 L 0 342.18967030095195 Z " stroke="none" fill-rule="evenodd" fill="#000000" fill-opacity="1" transform="matrix(1,0,0,1,5.05,13.314)" id="mark4 l" />
  <path d="M 0 329.675487388018 L 25 329.675487388018 L 25 331.175487388018 L 0 331.175487388018 Z " stroke="none" fill-rule="evenodd" fill="#000000" fill-opacity="1" transform="matrix(1,0,0,1,5.05,13.314)" id="mark5 l" />
  <path d="M 16.18 327.177487388018 C 16.174666666666667 327.00415405468465, 16.173333333333332 326.86482072135135, 16.176 326.759487388018 C 16.178666666666665 326.6541540546846, 16.181333333333335 326.55215405468465, 16.183999999999997 326.453487388018 L 17.264 326.453487388018 C 17.256 326.53082072135135, 17.25 326.62682072135135, 17.246 326.741487388018 C 17.241999999999997 326.8561540546847, 17.240666666666666 326.9668207213513, 17.241999999999997 327.073487388018 C 17.243333333333332 327.18015405468464, 17.246666666666666 327.2601540546847, 17.252 327.313487388018 C 17.262666666666668 327.43348738801797, 17.297333333333334 327.531487388018, 17.355999999999998 327.607487388018 C 17.414666666666665 327.68348738801797, 17.497333333333334 327.73748738801794, 17.604 327.769487388018 L 17.604 328.661487388018 C 17.110666666666663 328.62415405468465, 16.75333333333333 328.489487388018, 16.532 328.257487388018 C 16.310666666666666 328.02548738801795, 16.19333333333333 327.665487388018, 16.18 327.177487388018 Z M 16.279999999999998 325.841487388018 L 16.279999999999998 322.193487388018 L 17.348 322.193487388018 L 17.348 325.841487388018 Z M 17.852 325.417487388018 L 17.852 324.661487388018 C 17.929333333333332 324.62148738801795, 18.014666666666667 324.589487388018, 18.107999999999997 324.56548738801797 C 18.20133333333333 324.54148738801797, 18.301333333333332 324.52948738801797, 18.407999999999998 324.52948738801797 C 18.773333333333333 324.52948738801797, 19.047333333333334 324.6448207213513, 19.23 324.875487388018 C 19.412666666666667 325.1061540546846, 19.514666666666663 325.42015405468464, 19.535999999999998 325.817487388018 C 19.546666666666667 325.97748738801795, 19.55333333333333 326.13615405468465, 19.555999999999997 326.293487388018 C 19.558666666666664 326.4508207213513, 19.557333333333332 326.6041540546846, 19.552 326.753487388018 C 19.546666666666667 326.9028207213513, 19.538666666666668 327.0428207213513, 19.528 327.173487388018 C 19.482666666666667 327.6721540546846, 19.353333333333335 328.03748738801795, 19.14 328.269487388018 C 18.926666666666666 328.501487388018, 18.581333333333333 328.63215405468463, 18.104 328.661487388018 L 18.104 327.769487388018 C 18.21333333333333 327.7401540546847, 18.296 327.687487388018, 18.352 327.61148738801796 C 18.408 327.535487388018, 18.44 327.43615405468466, 18.448 327.313487388018 C 18.471999999999998 327.0228207213513, 18.485999999999997 326.761487388018, 18.49 326.52948738801797 C 18.494 326.297487388018, 18.485333333333333 326.07615405468465, 18.464 325.865487388018 C 18.447999999999997 325.71082072135135, 18.396666666666665 325.595487388018, 18.31 325.519487388018 C 18.223333333333333 325.44348738801796, 18.090666666666664 325.405487388018, 17.912 325.405487388018 C 17.901333333333334 325.405487388018, 17.890666666666668 325.4068207213513, 17.88 325.40948738801796 C 17.86933333333333 325.41215405468466, 17.86 325.41482072135136, 17.852 325.417487388018 Z M 17.852 323.125487388018 L 17.852 322.193487388018 L 19.439999999999998 322.193487388018 L 19.439999999999998 323.125487388018 Z M 21.944 328.593487388018 L 21.944 322.193487388018 L 23.003999999999998 322.193487388018 L 23.003999999999998 328.593487388018 Z " stroke="none" fill-rule="nonzero" fill="#000000" fill-opacity="1" transform="matrix(1,0,0,1,5.05,13.314)" id="text5 l" />
  <path d="M 0 318.6613044750841 L 10 318.6613044750841 L 10 320.1613044750841 L 0 320.1613044750841 Z " stroke="none" fill-rule="evenodd" fill="#000000" fill-opacity="1" transform="matrix(1,0,0,1,5.05,13.314)" id="mark6 l" />
  <path d="M 0 307.6471215621501 L 10 307.6471215621501 L 10 309.1471215621501 L 0 309.1471215621501 Z " stroke="none" fill-rule="evenodd" fill="#000000" fill-opacity="1" transform="matrix(1,0,0,1,5.05,13.314)" id="mark7 l" />
  <path d="M 0 296.6329386492162 L 10 296.6329386492162 L 10 298.1329386492162 L 0 298.1329386492162 Z " stroke="none" fill-rule="evenodd" fill="#000000" fill-opacity="1" transform="matrix(1,0,0,1,5.05,13.314)" id="mark8 l" />
  <path d="M 0 285.61875573628225 L 10 285.61875573628225 L 10 287.11875573628225 L 0 287.11875573628225 Z " stroke="none" fill-rule="evenodd" fill="#000000" fill-opacity="1" transform="matrix(1,0,0,1,5.05,13.314)" id="mark9 l" />
  <path d="M 0 274.60457282334835 L 25 274.60457282334835 L 25 276.10457282334835 L 0 276.10457282334835 Z " stroke="none" fill-rule="evenodd" fill="#000000" fill-opacity="1" transform="matrix(1,0,0,1,5.05,13.314)" id="mark10 l" />
  <path d="M 14.323999999999998 273.55457282334834 L 14.323999999999998 268.1105728233483 L 13.871999999999998 268.1105728233483 L 13.839999999999998 267.7305728233483 L 14.543999999999999 267.15457282334836 L 15.424 267.15457282334836 L 15.424 273.55457282334834 Z M 16.196 272.14257282334836 C 16.188000000000002 271.71323949001504, 16.182666666666666 271.29657282334836, 16.18 270.89257282334836 C 16.177333333333333 270.48857282334836, 16.177999999999997 270.09323949001504, 16.182 269.7065728233483 C 16.186 269.31990615668167, 16.190666666666665 268.9385728233483, 16.196 268.5625728233483 C 16.209333333333333 268.1225728233484, 16.334000000000003 267.777239490015, 16.57 267.5265728233483 C 16.805999999999997 267.2759061566817, 17.142666666666663 267.13057282334836, 17.58 267.09057282334834 L 17.58 267.9785728233483 C 17.382666666666665 268.0345728233483, 17.281333333333333 268.16390615668166, 17.276 268.36657282334835 C 17.262666666666668 268.737239490015, 17.253333333333334 269.085239490015, 17.248 269.41057282334833 C 17.242666666666665 269.73590615668166, 17.24 270.0525728233483, 17.24 270.3605728233483 C 17.24 270.6685728233483, 17.242666666666665 270.98323949001497, 17.248 271.30457282334834 C 17.253333333333334 271.6259061566817, 17.262666666666668 271.969239490015, 17.276 272.3345728233483 C 17.281333333333333 272.54257282334834, 17.382666666666665 272.67457282334834, 17.58 272.7305728233483 L 17.58 273.61857282334836 C 17.142666666666663 273.5785728233484, 16.805999999999997 273.4325728233483, 16.57 273.1805728233483 C 16.334000000000003 272.9285728233483, 16.209333333333333 272.58257282334836, 16.196 272.14257282334836 Z M 18.084 273.61857282334836 L 18.084 272.72657282334836 C 18.268 272.673239490015, 18.366666666666667 272.549239490015, 18.38 272.35457282334835 C 18.398666666666667 271.88790615668165, 18.410666666666668 271.439239490015, 18.416 271.00857282334835 C 18.421333333333333 270.5779061566817, 18.421333333333333 270.147239490015, 18.416 269.7165728233483 C 18.410666666666668 269.2859061566817, 18.398666666666667 268.833239490015, 18.38 268.3585728233483 C 18.374666666666666 268.16390615668166, 18.276 268.037239490015, 18.084 267.9785728233483 L 18.084 267.09057282334834 C 18.513333333333335 267.13057282334836, 18.846666666666668 267.2759061566817, 19.084 267.5265728233483 C 19.321333333333335 267.777239490015, 19.445333333333334 268.1225728233484, 19.456 268.5625728233483 C 19.46666666666667 268.877239490015, 19.474666666666668 269.18723949001503, 19.48 269.4925728233483 C 19.485333333333333 269.7979061566817, 19.488 270.0985728233483, 19.488 270.3945728233483 C 19.488 270.6905728233483, 19.485333333333333 270.98390615668166, 19.48 271.27457282334836 C 19.474666666666668 271.565239490015, 19.46666666666667 271.85457282334835, 19.456 272.14257282334836 C 19.439999999999998 272.59323949001504, 19.311999999999998 272.9419061566817, 19.072 273.18857282334835 C 18.832 273.435239490015, 18.502666666666666 273.5785728233484, 18.084 273.61857282334836 Z M 21.944 273.55457282334834 L 21.944 267.15457282334836 L 23.003999999999998 267.15457282334836 L 23.003999999999998 273.55457282334834 Z " stroke="none" fill-rule="nonzero" fill="#000000" fill-opacity="1" transform="matrix(1,0,0,1,5.05,13.314)" id="text10 l" />
  <path d="M 0 263.5903899104144 L 10 263.5903899104144 L 10 265.0903899104144 L 0 265.0903899104144 Z " stroke="none" fill-rule="evenodd" fill="#000000" fill-opacity="1" transform="matrix(1,0,0,1,5.05,13.314)" id="mark11 l" />
  <path d="M 0 252.57620699748045 L 10 252.57620699748045 L 10 254.07620699748045 L 0 254.07620699748045 Z " stroke="none" fill-rule="evenodd" fill="#000000" fill-opacity="1" transform="matrix(1,0,0,1,5.05,13.314)" id="mark12 l" />
  <path d="M 0 241.56202408454652 L 10 241.56202408454652 L 10 243.06202408454652 L 0 243.06202408454652 Z " stroke="none" fill-rule="evenodd" fill="#000000" fill-opacity="1" transform="matrix(1,0,0,1,5.05,13.314)" id="mark13 l" />
  <path d="M 0 230.5478411716126 L 10 230.5478411716126 L 10 232.0478411716126 L 0 232.0478411716126 Z " stroke="none" fill-rule="evenodd" fill="#000000" fill-opacity="1" transform="matrix(1,0,0,1,5.05,13.314)" id="mark14 l" />
  <path d="M 0 219.53365825867866 L 25 219.53365825867866 L 25 221.03365825867866 L 0 221.03365825867866 Z " stroke="none" fill-rule="evenodd" fill="#000000" fill-opacity="1" transform="matrix(1,0,0,1,5.05,13.314)" id="mark15 l" />
  <path d="M 14.331999999999999 218.45165825867866 L 14.331999999999999 213.00765825867867 L 13.879999999999999 213.00765825867867 L 13.847999999999999 212.62765825867865 L 14.552 212.05165825867866 L 15.432 212.05165825867866 L 15.432 218.45165825867866 Z M 16.18 217.03565825867867 C 16.174666666666667 216.86232492534535, 16.173333333333332 216.72299159201202, 16.176 216.61765825867866 C 16.178666666666665 216.51232492534535, 16.181333333333335 216.41032492534535, 16.183999999999997 216.31165825867868 L 17.264 216.31165825867868 C 17.256 216.388991592012, 17.25 216.48499159201197, 17.246 216.59965825867866 C 17.241999999999997 216.7143249253453, 17.240666666666666 216.824991592012, 17.241999999999997 216.93165825867865 C 17.243333333333332 217.0383249253453, 17.246666666666666 217.11832492534532, 17.252 217.17165825867866 C 17.262666666666668 217.29165825867867, 17.297333333333334 217.38965825867865, 17.355999999999998 217.46565825867867 C 17.414666666666665 217.54165825867864, 17.497333333333334 217.59565825867867, 17.604 217.62765825867865 L 17.604 218.51965825867867 C 17.110666666666663 218.48232492534532, 16.75333333333333 218.34765825867868, 16.532 218.11565825867865 C 16.310666666666666 217.88365825867868, 16.19333333333333 217.52365825867867, 16.18 217.03565825867867 Z M 16.279999999999998 215.69965825867865 L 16.279999999999998 212.05165825867866 L 17.348 212.05165825867866 L 17.348 215.69965825867865 Z M 17.852 215.27565825867867 L 17.852 214.51965825867867 C 17.929333333333332 214.47965825867868, 18.014666666666667 214.44765825867867, 18.107999999999997 214.42365825867867 C 18.20133333333333 214.39965825867867, 18.301333333333332 214.38765825867867, 18.407999999999998 214.38765825867867 C 18.773333333333333 214.38765825867867, 19.047333333333334 214.502991592012, 19.23 214.73365825867867 C 19.412666666666667 214.96432492534535, 19.514666666666663 215.27832492534532, 19.535999999999998 215.67565825867865 C 19.546666666666667 215.83565825867868, 19.55333333333333 215.99432492534532, 19.555999999999997 216.15165825867865 C 19.558666666666664 216.308991592012, 19.557333333333332 216.46232492534534, 19.552 216.61165825867866 C 19.546666666666667 216.76099159201198, 19.538666666666668 216.90099159201196, 19.528 217.03165825867868 C 19.482666666666667 217.53032492534533, 19.353333333333335 217.89565825867868, 19.14 218.12765825867865 C 18.926666666666666 218.35965825867868, 18.581333333333333 218.49032492534536, 18.104 218.51965825867867 L 18.104 217.62765825867865 C 18.21333333333333 217.5983249253453, 18.296 217.54565825867866, 18.352 217.46965825867866 C 18.408 217.39365825867867, 18.44 217.29432492534534, 18.448 217.17165825867866 C 18.471999999999998 216.88099159201198, 18.485999999999997 216.61965825867867, 18.49 216.38765825867867 C 18.494 216.15565825867867, 18.485333333333333 215.93432492534532, 18.464 215.72365825867865 C 18.447999999999997 215.56899159201197, 18.396666666666665 215.45365825867867, 18.31 215.37765825867865 C 18.223333333333333 215.30165825867869, 18.090666666666664 215.26365825867867, 17.912 215.26365825867867 C 17.901333333333334 215.26365825867867, 17.890666666666668 215.264991592012, 17.88 215.26765825867867 C 17.86933333333333 215.27032492534534, 17.86 215.27299159201198, 17.852 215.27565825867867 Z M 17.852 212.98365825867867 L 17.852 212.05165825867866 L 19.439999999999998 212.05165825867866 L 19.439999999999998 212.98365825867867 Z M 21.944 218.45165825867866 L 21.944 212.05165825867866 L 23.003999999999998 212.05165825867866 L 23.003999999999998 218.45165825867866 Z " stroke="none" fill-rule="nonzero" fill="#000000" fill-opacity="1" transform="matrix(1,0,0,1,5.05,13.314)" id="text15 l" />
  <path d="M 0 208.51947534574472 L 10 208.51947534574472 L 10 210.01947534574472 L 0 210.01947534574472 Z " stroke="none" fill-rule="evenodd" fill="#000000" fill-opacity="1" transform="matrix(1,0,0,1,5.05,13.314)" id="mark16 l" />
  <path d="M 0 197.5052924328108 L 10 197.5052924328108 L 10 199.0052924328108 L 0 199.0052924328108 Z " stroke="none" fill-rule="evenodd" fill="#000000" fill-opacity="1" transform="matrix(1,0,0,1,5.05,13.314)" id="mark17 l" />
  <path d="M 0 186.49110951987686 L 10 186.49110951987686 L 10 187.99110951987686 L 0 187.99110951987686 Z " stroke="none" fill-rule="evenodd" fill="#000000" fill-opacity="1" transform="matrix(1,0,0,1,5.05,13.314)" id="mark18 l" />
  <path d="M 0 175.47692660694292 L 10 175.47692660694292 L 10 176.97692660694292 L 0 176.97692660694292 Z " stroke="none" fill-rule="evenodd" fill="#000000" fill-opacity="1" transform="matrix(1,0,0,1,5.05,13.314)" id="mark19 l" />
  <path d="M 0 164.462743694009 L 25 164.462743694009 L 25 165.962743694009 L 0 165.962743694009 Z " stroke="none" fill-rule="evenodd" fill="#000000" fill-opacity="1" transform="matrix(1,0,0,1,5.05,13.314)" id="mark20 l" />
  <path d="M 12.319999999999999 163.412743694009 C 12.317333333333334 163.31407702734236, 12.315333333333331 163.22541036067568, 12.313999999999998 163.14674369400902 C 12.312666666666665 163.06807702734235, 12.311333333333334 162.99407702734237, 12.309999999999999 162.924743694009 C 12.308666666666667 162.85541036067565, 12.308 162.78341036067565, 12.308 162.708743694009 C 12.308 162.63407702734236, 12.308 162.54941036067567, 12.308 162.454743694009 C 12.308 162.36007702734236, 12.309333333333335 162.24874369400902, 12.312 162.120743694009 C 12.32 161.82741036067569, 12.37 161.56541036067568, 12.462 161.334743694009 C 12.554 161.10407702734233, 12.687999999999999 160.89807702734234, 12.863999999999999 160.716743694009 C 13.04 160.53541036067568, 13.257333333333333 160.37407702734237, 13.515999999999998 160.232743694009 L 14.047999999999998 159.94474369400902 C 14.234666666666666 159.84341036067568, 14.354 159.72141036067566, 14.405999999999999 159.578743694009 C 14.457999999999998 159.43607702734235, 14.488 159.30207702734234, 14.495999999999999 159.17674369400902 C 14.506666666666664 159.03007702734234, 14.512666666666664 158.87341036067568, 14.514 158.70674369400902 C 14.51533333333333 158.54007702734236, 14.511999999999997 158.3834103606757, 14.504 158.23674369400902 C 14.498666666666665 158.132743694009, 14.468666666666666 158.04674369400902, 14.413999999999998 157.978743694009 C 14.359333333333332 157.910743694009, 14.279999999999998 157.86207702734234, 14.175999999999998 157.832743694009 L 14.175999999999998 156.94474369400902 C 14.663999999999998 156.97674369400903, 15.014 157.10807702734235, 15.225999999999999 157.338743694009 C 15.437999999999999 157.56941036067568, 15.554666666666666 157.93007702734235, 15.575999999999999 158.42074369400902 C 15.578666666666663 158.484743694009, 15.580666666666666 158.55007702734235, 15.581999999999999 158.61674369400902 C 15.583333333333332 158.68341036067568, 15.584 158.74807702734233, 15.584 158.810743694009 C 15.584 158.87341036067568, 15.583333333333332 158.93541036067566, 15.581999999999999 158.996743694009 C 15.580666666666666 159.05807702734234, 15.578666666666663 159.11807702734234, 15.575999999999999 159.17674369400902 C 15.565333333333331 159.46207702734236, 15.512 159.708743694009, 15.415999999999999 159.916743694009 C 15.32 160.124743694009, 15.19 160.304743694009, 15.026 160.45674369400902 C 14.862 160.608743694009, 14.672 160.744743694009, 14.456 160.864743694009 L 13.851999999999999 161.192743694009 C 13.737333333333332 161.25407702734236, 13.647333333333332 161.33807702734236, 13.581999999999999 161.44474369400902 C 13.516666666666666 161.55141036067567, 13.469999999999999 161.66474369400902, 13.441999999999998 161.78474369400902 C 13.413999999999998 161.90474369400903, 13.399999999999999 162.016743694009, 13.399999999999999 162.120743694009 L 13.399999999999999 163.412743694009 Z M 12.328 159.37274369400902 C 12.322666666666667 159.25541036067568, 12.318666666666665 159.140743694009, 12.315999999999999 159.028743694009 C 12.313333333333333 158.916743694009, 12.311333333333334 158.810743694009, 12.309999999999999 158.710743694009 C 12.308666666666667 158.61074369400902, 12.309333333333335 158.51407702734235, 12.312 158.42074369400902 C 12.330666666666666 157.93274369400902, 12.447333333333333 157.5734103606757, 12.661999999999999 157.34274369400902 C 12.876666666666665 157.11207702734234, 13.213333333333331 156.97941036067567, 13.671999999999999 156.94474369400902 L 13.671999999999999 157.83674369400902 C 13.576 157.86607702734233, 13.505333333333333 157.912743694009, 13.459999999999999 157.976743694009 C 13.414666666666665 158.040743694009, 13.390666666666664 158.11807702734234, 13.387999999999998 158.208743694009 C 13.382666666666665 158.41674369400903, 13.379333333333333 158.61007702734236, 13.378 158.788743694009 C 13.376666666666667 158.96741036067567, 13.381333333333334 159.16207702734235, 13.392 159.37274369400902 Z M 13.904 163.412743694009 L 13.904 162.48074369400902 L 15.5 162.48074369400902 L 15.5 163.412743694009 Z M 16.196 162.000743694009 C 16.188000000000002 161.57141036067566, 16.182666666666666 161.154743694009, 16.18 160.750743694009 C 16.177333333333333 160.346743694009, 16.177999999999997 159.95141036067565, 16.182 159.564743694009 C 16.186 159.17807702734234, 16.190666666666665 158.79674369400902, 16.196 158.42074369400902 C 16.209333333333333 157.98074369400902, 16.334000000000003 157.63541036067568, 16.57 157.38474369400902 C 16.805999999999997 157.13407702734236, 17.142666666666663 156.988743694009, 17.58 156.948743694009 L 17.58 157.83674369400902 C 17.382666666666665 157.89274369400903, 17.281333333333333 158.02207702734233, 17.276 158.22474369400902 C 17.262666666666668 158.59541036067566, 17.253333333333334 158.94341036067567, 17.248 159.268743694009 C 17.242666666666665 159.59407702734234, 17.24 159.910743694009, 17.24 160.21874369400902 C 17.24 160.526743694009, 17.242666666666665 160.8414103606757, 17.248 161.162743694009 C 17.253333333333334 161.48407702734232, 17.262666666666668 161.82741036067569, 17.276 162.192743694009 C 17.281333333333333 162.400743694009, 17.382666666666665 162.532743694009, 17.58 162.588743694009 L 17.58 163.476743694009 C 17.142666666666663 163.436743694009, 16.805999999999997 163.290743694009, 16.57 163.038743694009 C 16.334000000000003 162.786743694009, 16.209333333333333 162.440743694009, 16.196 162.000743694009 Z M 18.084 163.476743694009 L 18.084 162.584743694009 C 18.268 162.5314103606757, 18.366666666666667 162.4074103606757, 18.38 162.21274369400902 C 18.398666666666667 161.74607702734235, 18.410666666666668 161.29741036067568, 18.416 160.86674369400902 C 18.421333333333333 160.43607702734235, 18.421333333333333 160.00541036067568, 18.416 159.57474369400902 C 18.410666666666668 159.14407702734235, 18.398666666666667 158.69141036067566, 18.38 158.216743694009 C 18.374666666666666 158.02207702734233, 18.276 157.89541036067567, 18.084 157.83674369400902 L 18.084 156.948743694009 C 18.513333333333335 156.988743694009, 18.846666666666668 157.13407702734236, 19.084 157.38474369400902 C 19.321333333333335 157.63541036067568, 19.445333333333334 157.98074369400902, 19.456 158.42074369400902 C 19.46666666666667 158.73541036067567, 19.474666666666668 159.04541036067567, 19.48 159.350743694009 C 19.485333333333333 159.65607702734232, 19.488 159.956743694009, 19.488 160.252743694009 C 19.488 160.548743694009, 19.485333333333333 160.84207702734233, 19.48 161.132743694009 C 19.474666666666668 161.4234103606757, 19.46666666666667 161.71274369400902, 19.456 162.000743694009 C 19.439999999999998 162.45141036067568, 19.311999999999998 162.80007702734235, 19.072 163.046743694009 C 18.832 163.29341036067567, 18.502666666666666 163.436743694009, 18.084 163.476743694009 Z M 21.944 163.412743694009 L 21.944 157.012743694009 L 23.003999999999998 157.012743694009 L 23.003999999999998 163.412743694009 Z " stroke="none" fill-rule="nonzero" fill="#000000" fill-opacity="1" transform="matrix(1,0,0,1,5.05,13.314)" id="text20 l" />
  <path d="M 0 153.44856078107506 L 10 153.44856078107506 L 10 154.94856078107506 L 0 154.94856078107506 Z " stroke="none" fill-rule="evenodd" fill="#000000" fill-opacity="1" transform="matrix(1,0,0,1,5.05,13.314)" id="mark21 l" />
  <path d="M 0 142.43437786814113 L 10 142.43437786814113 L 10 143.93437786814113 L 0 143.93437786814113 Z " stroke="none" fill-rule="evenodd" fill="#000000" fill-opacity="1" transform="matrix(1,0,0,1,5.05,13.314)" id="mark22 l" />
  <path d="M 0 131.4201949552072 L 10 131.4201949552072 L 10 132.9201949552072 L 0 132.9201949552072 Z " stroke="none" fill-rule="evenodd" fill="#000000" fill-opacity="1" transform="matrix(1,0,0,1,5.05,13.314)" id="mark23 l" />
  <path d="M 0 120.40601204227323 L 10 120.40601204227323 L 10 121.90601204227323 L 0 121.90601204227323 Z " stroke="none" fill-rule="evenodd" fill="#000000" fill-opacity="1" transform="matrix(1,0,0,1,5.05,13.314)" id="mark24 l" />
  <path d="M 0 109.39182912933933 L 25 109.39182912933933 L 25 110.89182912933933 L 0 110.89182912933933 Z " stroke="none" fill-rule="evenodd" fill="#000000" fill-opacity="1" transform="matrix(1,0,0,1,5.05,13.314)" id="mark25 l" />
  <path d="M 12.328 108.34182912933933 C 12.325333333333333 108.24316246267267, 12.323333333333332 108.154495796006, 12.322 108.07582912933933 C 12.320666666666666 107.99716246267266, 12.319333333333333 107.92316246267266, 12.318 107.85382912933933 C 12.316666666666666 107.784495796006, 12.315999999999999 107.71249579600601, 12.316 107.63782912933934 C 12.315999999999999 107.56316246267266, 12.315999999999999 107.478495796006, 12.316 107.38382912933933 C 12.315999999999999 107.28916246267266, 12.317333333333334 107.17782912933933, 12.32 107.04982912933933 C 12.328 106.75649579600599, 12.378 106.49449579600599, 12.47 106.26382912933933 C 12.562000000000001 106.03316246267266, 12.696 105.82716246267267, 12.872 105.64582912933933 C 13.048 105.46449579600599, 13.265333333333334 105.30316246267266, 13.524000000000001 105.16182912933932 L 14.056000000000001 104.87382912933933 C 14.242666666666668 104.77249579600598, 14.362000000000002 104.650495796006, 14.414 104.50782912933933 C 14.466000000000001 104.36516246267266, 14.495999999999999 104.23116246267267, 14.504 104.10582912933933 C 14.514666666666667 103.95916246267265, 14.520666666666667 103.80249579600599, 14.522 103.63582912933933 C 14.523333333333333 103.46916246267267, 14.520000000000001 103.312495796006, 14.512 103.16582912933933 C 14.506666666666666 103.06182912933934, 14.476666666666667 102.97582912933933, 14.422 102.90782912933933 C 14.367333333333335 102.83982912933934, 14.288 102.79116246267266, 14.184000000000001 102.76182912933933 L 14.184000000000001 101.87382912933933 C 14.672 101.90582912933934, 15.022000000000002 102.03716246267265, 15.234 102.26782912933933 C 15.446000000000002 102.49849579600601, 15.562666666666667 102.85916246267267, 15.584 103.34982912933933 C 15.586666666666668 103.41382912933933, 15.588666666666668 103.47916246267266, 15.59 103.54582912933932 C 15.591333333333335 103.61249579600599, 15.592000000000002 103.67716246267267, 15.592 103.73982912933933 C 15.592000000000002 103.80249579600601, 15.591333333333335 103.864495796006, 15.59 103.92582912933933 C 15.588666666666668 103.98716246267267, 15.586666666666668 104.04716246267267, 15.584 104.10582912933933 C 15.573333333333332 104.39116246267267, 15.52 104.63782912933934, 15.424 104.84582912933934 C 15.328 105.05382912933933, 15.197999999999999 105.23382912933934, 15.033999999999999 105.38582912933933 C 14.87 105.53782912933934, 14.68 105.67382912933934, 14.464 105.79382912933933 L 13.86 106.12182912933933 C 13.745333333333335 106.18316246267267, 13.655333333333335 106.26716246267267, 13.59 106.37382912933933 C 13.524666666666668 106.48049579600598, 13.478000000000002 106.59382912933933, 13.45 106.71382912933933 C 13.422 106.83382912933934, 13.408 106.94582912933933, 13.408 107.04982912933933 L 13.408 108.34182912933933 Z M 12.336 104.30182912933932 C 12.330666666666666 104.18449579600599, 12.326666666666664 104.06982912933933, 12.324 103.95782912933933 C 12.321333333333332 103.84582912933934, 12.319333333333333 103.73982912933934, 12.318 103.63982912933933 C 12.316666666666666 103.53982912933932, 12.317333333333334 103.44316246267266, 12.32 103.34982912933933 C 12.338666666666668 102.86182912933933, 12.455333333333336 102.502495796006, 12.67 102.27182912933932 C 12.884666666666668 102.04116246267267, 13.221333333333334 101.90849579600601, 13.68 101.87382912933933 L 13.68 102.76582912933934 C 13.584 102.79516246267266, 13.513333333333332 102.84182912933933, 13.468 102.90582912933934 C 13.422666666666668 102.96982912933933, 13.398666666666667 103.04716246267267, 13.396 103.13782912933934 C 13.390666666666666 103.34582912933934, 13.387333333333332 103.53916246267266, 13.386 103.71782912933934 C 13.384666666666666 103.89649579600601, 13.389333333333333 104.09116246267266, 13.4 104.30182912933932 Z M 13.911999999999999 108.34182912933933 L 13.911999999999999 107.40982912933933 L 15.508 107.40982912933933 L 15.508 108.34182912933933 Z M 16.18 106.92582912933933 C 16.174666666666667 106.752495796006, 16.173333333333332 106.61316246267266, 16.176 106.50782912933933 C 16.178666666666665 106.402495796006, 16.181333333333335 106.300495796006, 16.183999999999997 106.20182912933933 L 17.264 106.20182912933933 C 17.256 106.27916246267267, 17.25 106.37516246267266, 17.246 106.48982912933933 C 17.241999999999997 106.60449579600599, 17.240666666666666 106.71516246267265, 17.241999999999997 106.82182912933933 C 17.243333333333332 106.92849579600599, 17.246666666666666 107.008495796006, 17.252 107.06182912933933 C 17.262666666666668 107.18182912933932, 17.297333333333334 107.27982912933933, 17.355999999999998 107.35582912933933 C 17.414666666666665 107.43182912933932, 17.497333333333334 107.48582912933932, 17.604 107.51782912933933 L 17.604 108.40982912933933 C 17.110666666666663 108.37249579600599, 16.75333333333333 108.23782912933933, 16.532 108.00582912933933 C 16.310666666666666 107.77382912933933, 16.19333333333333 107.41382912933932, 16.18 106.92582912933933 Z M 16.279999999999998 105.58982912933934 L 16.279999999999998 101.94182912933933 L 17.348 101.94182912933933 L 17.348 105.58982912933934 Z M 17.852 105.16582912933933 L 17.852 104.40982912933933 C 17.929333333333332 104.36982912933934, 18.014666666666667 104.33782912933933, 18.107999999999997 104.31382912933933 C 18.20133333333333 104.28982912933932, 18.301333333333332 104.27782912933932, 18.407999999999998 104.27782912933932 C 18.773333333333333 104.27782912933932, 19.047333333333334 104.39316246267266, 19.23 104.62382912933933 C 19.412666666666667 104.85449579600599, 19.514666666666663 105.168495796006, 19.535999999999998 105.56582912933933 C 19.546666666666667 105.72582912933933, 19.55333333333333 105.884495796006, 19.555999999999997 106.04182912933933 C 19.558666666666664 106.19916246267266, 19.557333333333332 106.352495796006, 19.552 106.50182912933933 C 19.546666666666667 106.65116246267266, 19.538666666666668 106.79116246267267, 19.528 106.92182912933933 C 19.482666666666667 107.42049579600601, 19.353333333333335 107.78582912933933, 19.14 108.01782912933933 C 18.926666666666666 108.24982912933933, 18.581333333333333 108.380495796006, 18.104 108.40982912933933 L 18.104 107.51782912933933 C 18.21333333333333 107.48849579600599, 18.296 107.43582912933934, 18.352 107.35982912933933 C 18.408 107.28382912933932, 18.44 107.18449579600599, 18.448 107.06182912933933 C 18.471999999999998 106.77116246267266, 18.485999999999997 106.50982912933934, 18.49 106.27782912933932 C 18.494 106.04582912933932, 18.485333333333333 105.824495796006, 18.464 105.61382912933934 C 18.447999999999997 105.45916246267268, 18.396666666666665 105.34382912933933, 18.31 105.26782912933933 C 18.223333333333333 105.19182912933934, 18.090666666666664 105.15382912933933, 17.912 105.15382912933933 C 17.901333333333334 105.15382912933933, 17.890666666666668 105.15516246267268, 17.88 105.15782912933933 C 17.86933333333333 105.16049579600599, 17.86 105.16316246267266, 17.852 105.16582912933933 Z M 17.852 102.87382912933933 L 17.852 101.94182912933933 L 19.439999999999998 101.94182912933933 L 19.439999999999998 102.87382912933933 Z M 21.944 108.34182912933933 L 21.944 101.94182912933933 L 23.003999999999998 101.94182912933933 L 23.003999999999998 108.34182912933933 Z " stroke="none" fill-rule="nonzero" fill="#000000" fill-opacity="1" transform="matrix(1,0,0,1,5.05,13.314)" id="text25 l" />
  <path d="M 0 98.37764621640537 L 10 98.37764621640537 L 10 99.87764621640537 L 0 99.87764621640537 Z " stroke="none" fill-rule="evenodd" fill="#000000" fill-opacity="1" transform="matrix(1,0,0,1,5.05,13.314)" id="mark26 l" />
  <path d="M 0 87.36346330347146 L 10 87.36346330347146 L 10 88.86346330347146 L 0 88.86346330347146 Z " stroke="none" fill-rule="evenodd" fill="#000000" fill-opacity="1" transform="matrix(1,0,0,1,5.05,13.314)" id="mark27 l" />
  <path d="M 0 76.3492803905375 L 10 76.3492803905375 L 10 77.8492803905375 L 0 77.8492803905375 Z " stroke="none" fill-rule="evenodd" fill="#000000" fill-opacity="1" transform="matrix(1,0,0,1,5.05,13.314)" id="mark28 l" />
  <path d="M 0 65.3350974776036 L 10 65.3350974776036 L 10 66.8350974776036 L 0 66.8350974776036 Z " stroke="none" fill-rule="evenodd" fill="#000000" fill-opacity="1" transform="matrix(1,0,0,1,5.05,13.314)" id="mark29 l" />
  <path d="M 0 54.320914564669636 L 25 54.320914564669636 L 25 55.820914564669636 L 0 55.820914564669636 Z " stroke="none" fill-rule="evenodd" fill="#000000" fill-opacity="1" transform="matrix(1,0,0,1,5.05,13.314)" id="mark30 l" />
  <path d="M 12.223999999999998 51.85491456466964 C 12.221333333333334 51.75358123133631, 12.219333333333333 51.66958123133631, 12.218 51.60291456466964 C 12.216666666666667 51.53624789800297, 12.216666666666667 51.46824789800297, 12.218 51.39891456466964 C 12.219333333333333 51.329581231336306, 12.221333333333334 51.24024789800297, 12.223999999999998 51.13091456466964 L 13.303999999999998 51.13091456466964 L 13.303999999999998 51.994914564669635 C 13.303999999999998 52.23224789800297, 13.417333333333332 52.38291456466963, 13.643999999999998 52.44691456466964 L 13.643999999999998 53.338914564669636 C 13.155999999999999 53.3015812313363, 12.800666666666665 53.16691456466964, 12.578 52.93491456466964 C 12.355333333333334 52.70291456466964, 12.237333333333332 52.34291456466964, 12.223999999999998 51.85491456466964 Z M 12.292 47.802914564669635 L 12.292 46.87091456466964 L 15.536 46.87091456466964 L 15.536 47.802914564669635 Z M 14.143999999999998 52.45091456466964 C 14.367999999999999 52.394914564669634, 14.483999999999998 52.24424789800297, 14.491999999999999 51.99891456466964 C 14.497333333333334 51.796247898002974, 14.500666666666666 51.6135812313363, 14.501999999999999 51.45091456466964 C 14.503333333333332 51.288247898002965, 14.498666666666665 51.13091456466964, 14.488 50.97891456466964 C 14.48 50.82158123133631, 14.431999999999999 50.68824789800297, 14.344 50.57891456466964 C 14.256 50.469581231336306, 14.089333333333332 50.4175812313363, 13.844 50.42291456466964 L 13.096 50.430914564669635 L 13.068 49.53891456466964 L 14.027999999999999 48.15491456466964 L 15.216 48.15491456466964 L 14.248 49.506914564669636 L 14.28 49.506914564669636 C 14.712 49.506914564669636, 15.028666666666666 49.6295812313363, 15.229999999999999 49.87491456466964 C 15.431333333333333 50.12024789800297, 15.544 50.497581231336305, 15.568 51.006914564669636 C 15.57333333333333 51.07891456466964, 15.576666666666664 51.150914564669634, 15.578 51.22291456466964 C 15.57933333333333 51.29491456466964, 15.579999999999998 51.36558123133631, 15.579999999999998 51.43491456466964 C 15.579999999999998 51.50424789800297, 15.57933333333333 51.573581231336306, 15.578 51.64291456466964 C 15.576666666666664 51.71224789800297, 15.57333333333333 51.78291456466964, 15.568 51.85491456466964 C 15.549333333333333 52.35091456466964, 15.428666666666665 52.7155812313363, 15.206 52.948914564669636 C 14.983333333333334 53.18224789800297, 14.630666666666666 53.312247898002965, 14.148 53.338914564669636 Z M 16.196 51.85891456466964 C 16.188000000000002 51.429581231336314, 16.182666666666666 51.01291456466964, 16.18 50.60891456466964 C 16.177333333333333 50.204914564669636, 16.177999999999997 49.8095812313363, 16.182 49.42291456466964 C 16.186 49.036247898002976, 16.190666666666665 48.65491456466964, 16.196 48.27891456466964 C 16.209333333333333 47.838914564669636, 16.334000000000003 47.49358123133631, 16.57 47.24291456466964 C 16.805999999999997 46.99224789800297, 17.142666666666663 46.846914564669646, 17.58 46.80691456466964 L 17.58 47.69491456466964 C 17.382666666666665 47.75091456466964, 17.281333333333333 47.88024789800297, 17.276 48.082914564669636 C 17.262666666666668 48.4535812313363, 17.253333333333334 48.80158123133631, 17.248 49.12691456466964 C 17.242666666666665 49.45224789800297, 17.24 49.76891456466964, 17.24 50.076914564669636 C 17.24 50.38491456466964, 17.242666666666665 50.69958123133631, 17.248 51.02091456466964 C 17.253333333333334 51.34224789800297, 17.262666666666668 51.6855812313363, 17.276 52.05091456466964 C 17.281333333333333 52.25891456466964, 17.382666666666665 52.39091456466964, 17.58 52.44691456466964 L 17.58 53.33491456466964 C 17.142666666666663 53.29491456466964, 16.805999999999997 53.14891456466964, 16.57 52.896914564669636 C 16.334000000000003 52.644914564669634, 16.209333333333333 52.298914564669644, 16.196 51.85891456466964 Z M 18.084 53.33491456466964 L 18.084 52.442914564669636 C 18.268 52.38958123133631, 18.366666666666667 52.265581231336306, 18.38 52.070914564669636 C 18.398666666666667 51.604247898002974, 18.410666666666668 51.15558123133631, 18.416 50.72491456466964 C 18.421333333333333 50.29424789800298, 18.421333333333333 49.86358123133631, 18.416 49.43291456466964 C 18.410666666666668 49.00224789800298, 18.398666666666667 48.549581231336305, 18.38 48.07491456466964 C 18.374666666666666 47.88024789800298, 18.276 47.753581231336305, 18.084 47.69491456466964 L 18.084 46.80691456466964 C 18.513333333333335 46.846914564669646, 18.846666666666668 46.99224789800297, 19.084 47.24291456466964 C 19.321333333333335 47.49358123133631, 19.445333333333334 47.838914564669636, 19.456 48.27891456466964 C 19.46666666666667 48.5935812313363, 19.474666666666668 48.903581231336304, 19.48 49.20891456466964 C 19.485333333333333 49.51424789800298, 19.488 49.814914564669635, 19.488 50.11091456466964 C 19.488 50.406914564669634, 19.485333333333333 50.70024789800297, 19.48 50.99091456466964 C 19.474666666666668 51.281581231336304, 19.46666666666667 51.570914564669636, 19.456 51.85891456466964 C 19.439999999999998 52.30958123133631, 19.311999999999998 52.65824789800297, 19.072 52.90491456466964 C 18.832 53.15158123133631, 18.502666666666666 53.29491456466964, 18.084 53.33491456466964 Z M 21.944 53.27091456466964 L 21.944 46.87091456466964 L 23.003999999999998 46.87091456466964 L 23.003999999999998 53.27091456466964 Z " stroke="none" fill-rule="nonzero" fill="#000000" fill-opacity="1" transform="matrix(1,0,0,1,5.05,13.314)" id="text30 l" />
  <path d="M 0 43.30673165173573 L 10 43.30673165173573 L 10 44.80673165173573 L 0 44.80673165173573 Z " stroke="none" fill-rule="evenodd" fill="#000000" fill-opacity="1" transform="matrix(1,0,0,1,5.05,13.314)" id="mark31 l" />
  <path d="M 0 32.29254873880177 L 10 32.29254873880177 L 10 33.79254873880177 L 0 33.79254873880177 Z " stroke="none" fill-rule="evenodd" fill="#000000" fill-opacity="1" transform="matrix(1,0,0,1,5.05,13.314)" id="mark32 l" />
  <path d="M 0 21.278365825867866 L 10 21.278365825867866 L 10 22.778365825867866 L 0 22.778365825867866 Z " stroke="none" fill-rule="evenodd" fill="#000000" fill-opacity="1" transform="matrix(1,0,0,1,5.05,13.314)" id="mark33 l" />
  <path d="M 0 10.264182912933904 L 10 10.264182912933904 L 10 11.764182912933904 L 0 11.764182912933904 Z " stroke="none" fill-rule="evenodd" fill="#000000" fill-opacity="1" transform="matrix(1,0,0,1,5.05,13.314)" id="mark34 l" />
  <path d="M 0 -0.75 L 25 -0.75 L 25 0.75 L 0 0.75 Z " stroke="none" fill-rule="evenodd" fill="#000000" fill-opacity="1" transform="matrix(1,0,0,1,5.05,13.314)" id="mark35 l" />
  <path d="M 12.232 -3.2479999999999998 C 12.229333333333333 -3.349333333333333, 12.227333333333334 -3.4333333333333336, 12.226 -3.5 C 12.224666666666668 -3.5666666666666664, 12.224666666666668 -3.6346666666666665, 12.226 -3.7039999999999997 C 12.227333333333334 -3.773333333333333, 12.229333333333333 -3.8626666666666667, 12.232 -3.972 L 13.312 -3.972 L 13.312 -3.1079999999999997 C 13.312 -2.8706666666666663, 13.425333333333333 -2.7199999999999998, 13.652 -2.6559999999999997 L 13.652 -1.7639999999999998 C 13.164 -1.801333333333333, 12.808666666666667 -1.9359999999999997, 12.586 -2.1679999999999997 C 12.363333333333333 -2.4, 12.245333333333335 -2.76, 12.232 -3.2479999999999998 Z M 12.3 -7.3 L 12.3 -8.232 L 15.544 -8.232 L 15.544 -7.3 Z M 14.152000000000001 -2.6519999999999997 C 14.376000000000001 -2.7079999999999997, 14.492 -2.8586666666666662, 14.5 -3.104 C 14.505333333333333 -3.3066666666666666, 14.508666666666667 -3.489333333333333, 14.51 -3.652 C 14.511333333333333 -3.8146666666666667, 14.506666666666668 -3.9719999999999995, 14.496 -4.124 C 14.488 -4.2813333333333325, 14.440000000000001 -4.414666666666666, 14.352 -4.524 C 14.264 -4.633333333333333, 14.097333333333335 -4.685333333333333, 13.852 -4.68 L 13.104 -4.672 L 13.076 -5.564 L 14.036 -6.9479999999999995 L 15.224 -6.9479999999999995 L 14.256 -5.596 L 14.288 -5.596 C 14.719999999999999 -5.596, 15.036666666666665 -5.473333333333333, 15.238 -5.228 C 15.439333333333334 -4.982666666666667, 15.552 -4.605333333333333, 15.576 -4.096 C 15.581333333333333 -4.024, 15.584666666666667 -3.952, 15.586 -3.88 C 15.587333333333333 -3.808, 15.588000000000001 -3.737333333333333, 15.588000000000001 -3.6679999999999997 C 15.588000000000001 -3.5986666666666665, 15.587333333333333 -3.529333333333333, 15.586 -3.46 C 15.584666666666667 -3.3906666666666667, 15.581333333333333 -3.3200000000000003, 15.576 -3.2479999999999998 C 15.557333333333334 -2.752, 15.436666666666667 -2.3873333333333333, 15.214 -2.154 C 14.991333333333333 -1.9206666666666665, 14.638666666666666 -1.7906666666666666, 14.156 -1.7639999999999998 Z M 16.18 -3.2479999999999998 C 16.174666666666667 -3.421333333333333, 16.173333333333332 -3.5606666666666666, 16.176 -3.666 C 16.178666666666665 -3.771333333333333, 16.181333333333335 -3.873333333333333, 16.183999999999997 -3.972 L 17.264 -3.972 C 17.256 -3.8946666666666667, 17.25 -3.7986666666666666, 17.246 -3.6839999999999997 C 17.241999999999997 -3.569333333333333, 17.240666666666666 -3.4586666666666663, 17.241999999999997 -3.352 C 17.243333333333332 -3.2453333333333334, 17.246666666666666 -3.1653333333333338, 17.252 -3.112 C 17.262666666666668 -2.992, 17.297333333333334 -2.8939999999999997, 17.355999999999998 -2.8179999999999996 C 17.414666666666665 -2.7419999999999995, 17.497333333333334 -2.6879999999999997, 17.604 -2.6559999999999997 L 17.604 -1.7639999999999998 C 17.110666666666663 -1.801333333333333, 16.75333333333333 -1.9359999999999997, 16.532 -2.1679999999999997 C 16.310666666666666 -2.4, 16.19333333333333 -2.76, 16.18 -3.2479999999999998 Z M 16.279999999999998 -4.584 L 16.279999999999998 -8.232 L 17.348 -8.232 L 17.348 -4.584 Z M 17.852 -5.008 L 17.852 -5.763999999999999 C 17.929333333333332 -5.804, 18.014666666666667 -5.836, 18.107999999999997 -5.86 C 18.20133333333333 -5.884, 18.301333333333332 -5.896, 18.407999999999998 -5.896 C 18.773333333333333 -5.896, 19.047333333333334 -5.780666666666667, 19.23 -5.55 C 19.412666666666667 -5.319333333333333, 19.514666666666663 -5.005333333333333, 19.535999999999998 -4.608 C 19.546666666666667 -4.448, 19.55333333333333 -4.289333333333333, 19.555999999999997 -4.132 C 19.558666666666664 -3.974666666666667, 19.557333333333332 -3.8213333333333335, 19.552 -3.6719999999999997 C 19.546666666666667 -3.522666666666667, 19.538666666666668 -3.3826666666666663, 19.528 -3.252 C 19.482666666666667 -2.753333333333333, 19.353333333333335 -2.388, 19.14 -2.1559999999999997 C 18.926666666666666 -1.9239999999999997, 18.581333333333333 -1.793333333333333, 18.104 -1.7639999999999998 L 18.104 -2.6559999999999997 C 18.21333333333333 -2.685333333333333, 18.296 -2.738, 18.352 -2.814 C 18.408 -2.89, 18.44 -2.9893333333333336, 18.448 -3.112 C 18.471999999999998 -3.4026666666666667, 18.485999999999997 -3.664, 18.49 -3.896 C 18.494 -4.128, 18.485333333333333 -4.349333333333333, 18.464 -4.5600000000000005 C 18.447999999999997 -4.714666666666667, 18.396666666666665 -4.83, 18.31 -4.906 C 18.223333333333333 -4.981999999999999, 18.090666666666664 -5.02, 17.912 -5.02 C 17.901333333333334 -5.02, 17.890666666666668 -5.018666666666666, 17.88 -5.016 C 17.86933333333333 -5.013333333333334, 17.86 -5.010666666666667, 17.852 -5.008 Z M 17.852 -7.3 L 17.852 -8.232 L 19.439999999999998 -8.232 L 19.439999999999998 -7.3 Z M 21.944 -1.8319999999999999 L 21.944 -8.232 L 23.003999999999998 -8.232 L 23.003999999999998 -1.8319999999999999 Z " stroke="none" fill-rule="nonzero" fill="#000000" fill-opacity="1" transform="matrix(1,0,0,1,5.05,13.314)" id="text35 l" />
  <path d="M -5 -13.264 L 30 -13.264 L 30 381.2182190397537 L -5 381.2182190397537 Z " stroke="#FF0000" stroke-opacity="1" stroke-width="0.1" stroke-linecap="butt" stroke-linejoin="miter" fill="none" transform="matrix(1,0,0,1,5.05,13.314)" />
</svg>