<?xml version="1.0" encoding="UTF-8"?>
<svg xmlns:xlink="http://www.w3.org/1999/xlink" viewBox="0 0 35.1 485.38259906371377" version="1.1" style="font-synthesis: none;" width="35.1mm" height="485.3825990637138mm" xmlns="http://www.w3.org/2000/svg">
  <defs />
  <style>	</style>
  <path d="M 0 0 L 35.1 0 L 35.1 485.38259906371377 L 0 485.38259906371377 Z " stroke="none" fill-rule="nonzero" fill="#FFFFFF" fill-opacity="1" transform="matrix(1,0,0,1,0,0)" />
  <path d="M 0 464.53259906371386 L 10 464.53259906371386 L 10 466.03259906371386 L 0 466.03259906371386 Z " stroke="none" fill-rule="evenodd" fill="#000000" fill-opacity="1" transform="matrix(1,0,0,1,5.05,13.314)" id="mark1 l" />
  <path d="M 0 458.24499637366364 L 10 458.24499637366364 L 10 459.74499637366364 L 0 459.74499637366364 Z " stroke="none" fill-rule="evenodd" fill="#000000" fill-opacity="1" transform="matrix(1,0,0,1,5.05,13.314)" id="mark2 l" />
  <path d="M 0 451.9573936836135 L 10 451.9573936836135 L 10 453.4573936836135 L 0 453.4573936836135 Z " stroke="none" fill-rule="evenodd" fill="#000000" fill-opacity="1" transform="matrix(1,0,0,1,5.05,13.314)" id="mark3 l" />
  <path d="M 0 445.66979099356325 L 10 445.66979099356325 L 10 447.16979099356325 L 0 447.16979099356325 Z " stroke="none" fill-rule="evenodd" fill="#000000" fill-opacity="1" transform="matrix(1,0,0,1,5.05,13.314)" id="mark4 l" />
  <path d="M 0 439.3821883035131 L 25 439.3821883035131 L 25 440.8821883035131 L 0 440.8821883035131 Z " stroke="none" fill-rule="evenodd" fill="#000000" fill-opacity="1" transform="matrix(1,0,0,1,5.05,13.314)" id="mark5 l" />
  <path d="M 16.18 436.8841883035131 C 16.174666666666667 436.71085497017975, 16.173333333333332 436.57152163684646, 16.176 436.4661883035131 C 16.178666666666665 436.36085497017973, 16.181333333333335 436.25885497017975, 16.183999999999997 436.1601883035131 L 17.264 436.1601883035131 C 17.256 436.2375216368464, 17.25 436.3335216368464, 17.246 436.4481883035131 C 17.241999999999997 436.5628549701797, 17.240666666666666 436.67352163684643, 17.241999999999997 436.7801883035131 C 17.243333333333332 436.88685497017974, 17.246666666666666 436.9668549701797, 17.252 437.0201883035131 C 17.262666666666668 437.1401883035131, 17.297333333333334 437.2381883035131, 17.355999999999998 437.3141883035131 C 17.414666666666665 437.39018830351307, 17.497333333333334 437.4441883035131, 17.604 437.4761883035131 L 17.604 438.3681883035131 C 17.110666666666663 438.33085497017976, 16.75333333333333 438.19618830351305, 16.532 437.9641883035131 C 16.310666666666666 437.7321883035131, 16.19333333333333 437.3721883035131, 16.18 436.8841883035131 Z M 16.279999999999998 435.5481883035131 L 16.279999999999998 431.9001883035131 L 17.348 431.9001883035131 L 17.348 435.5481883035131 Z M 17.852 435.1241883035131 L 17.852 434.3681883035131 C 17.929333333333332 434.3281883035131, 18.014666666666667 434.2961883035131, 18.107999999999997 434.2721883035131 C 18.20133333333333 434.2481883035131, 18.301333333333332 434.2361883035131, 18.407999999999998 434.2361883035131 C 18.773333333333333 434.2361883035131, 19.047333333333334 434.3515216368464, 19.23 434.5821883035131 C 19.412666666666667 434.8128549701797, 19.514666666666663 435.1268549701798, 19.535999999999998 435.5241883035131 C 19.546666666666667 435.6841883035131, 19.55333333333333 435.8428549701797, 19.555999999999997 436.0001883035131 C 19.558666666666664 436.15752163684635, 19.557333333333332 436.3108549701798, 19.552 436.4601883035131 C 19.546666666666667 436.60952163684647, 19.538666666666668 436.74952163684645, 19.528 436.8801883035131 C 19.482666666666667 437.37885497017976, 19.353333333333335 437.74418830351306, 19.14 437.9761883035131 C 18.926666666666666 438.2081883035131, 18.581333333333333 438.3388549701798, 18.104 438.3681883035131 L 18.104 437.4761883035131 C 18.21333333333333 437.44685497017974, 18.296 437.3941883035131, 18.352 437.31818830351307 C 18.408 437.2421883035131, 18.44 437.14285497017977, 18.448 437.0201883035131 C 18.471999999999998 436.72952163684647, 18.485999999999997 436.4681883035131, 18.49 436.2361883035131 C 18.494 436.00418830351305, 18.485333333333333 435.78285497017976, 18.464 435.5721883035131 C 18.447999999999997 435.41752163684646, 18.396666666666665 435.30218830351316, 18.31 435.2261883035131 C 18.223333333333333 435.1501883035131, 18.090666666666664 435.1121883035131, 17.912 435.1121883035131 C 17.901333333333334 435.1121883035131, 17.890666666666668 435.1135216368464, 17.88 435.11618830351307 C 17.86933333333333 435.11885497017977, 17.86 435.1215216368464, 17.852 435.1241883035131 Z M 17.852 432.8321883035131 L 17.852 431.9001883035131 L 19.439999999999998 431.9001883035131 L 19.439999999999998 432.8321883035131 Z M 21.944 438.3001883035131 L 21.944 431.9001883035131 L 23.003999999999998 431.9001883035131 L 23.003999999999998 438.3001883035131 Z " stroke="none" fill-rule="nonzero" fill="#000000" fill-opacity="1" transform="matrix(1,0,0,1,5.05,13.314)" id="text5 l" />
  <path d="M 0 433.0945856134629 L 10 433.0945856134629 L 10 434.5945856134629 L 0 434.5945856134629 Z " stroke="none" fill-rule="evenodd" fill="#000000" fill-opacity="1" transform="matrix(1,0,0,1,5.05,13.314)" id="mark6 l" />
  <path d="M 0 426.8069829234127 L 10 426.8069829234127 L 10 428.3069829234127 L 0 428.3069829234127 Z " stroke="none" fill-rule="evenodd" fill="#000000" fill-opacity="1" transform="matrix(1,0,0,1,5.05,13.314)" id="mark7 l" />
  <path d="M 0 420.51938023336254 L 10 420.51938023336254 L 10 422.01938023336254 L 0 422.01938023336254 Z " stroke="none" fill-rule="evenodd" fill="#000000" fill-opacity="1" transform="matrix(1,0,0,1,5.05,13.314)" id="mark8 l" />
  <path d="M 0 414.2317775433123 L 10 414.2317775433123 L 10 415.7317775433123 L 0 415.7317775433123 Z " stroke="none" fill-rule="evenodd" fill="#000000" fill-opacity="1" transform="matrix(1,0,0,1,5.05,13.314)" id="mark9 l" />
  <path d="M 0 407.94417485326215 L 25 407.94417485326215 L 25 409.44417485326215 L 0 409.44417485326215 Z " stroke="none" fill-rule="evenodd" fill="#000000" fill-opacity="1" transform="matrix(1,0,0,1,5.05,13.314)" id="mark10 l" />
  <path d="M 14.323999999999998 406.89417485326214 L 14.323999999999998 401.4501748532621 L 13.871999999999998 401.4501748532621 L 13.839999999999998 401.07017485326213 L 14.543999999999999 400.49417485326217 L 15.424 400.49417485326217 L 15.424 406.89417485326214 Z M 16.196 405.48217485326217 C 16.188000000000002 405.05284151992885, 16.182666666666666 404.6361748532622, 16.18 404.23217485326217 C 16.177333333333333 403.8281748532622, 16.177999999999997 403.43284151992884, 16.182 403.04617485326213 C 16.186 402.6595081865955, 16.190666666666665 402.27817485326216, 16.196 401.9021748532621 C 16.209333333333333 401.4621748532621, 16.334000000000003 401.1168415199288, 16.57 400.8661748532621 C 16.805999999999997 400.61550818659543, 17.142666666666663 400.47017485326217, 17.58 400.43017485326214 L 17.58 401.3181748532621 C 17.382666666666665 401.37417485326216, 17.281333333333333 401.50350818659547, 17.276 401.70617485326216 C 17.262666666666668 402.0768415199288, 17.253333333333334 402.4248415199288, 17.248 402.75017485326214 C 17.242666666666665 403.07550818659547, 17.24 403.3921748532621, 17.24 403.7001748532621 C 17.24 404.00817485326206, 17.242666666666665 404.3228415199288, 17.248 404.64417485326214 C 17.253333333333334 404.9655081865955, 17.262666666666668 405.3088415199288, 17.276 405.6741748532621 C 17.281333333333333 405.8821748532621, 17.382666666666665 406.01417485326215, 17.58 406.07017485326213 L 17.58 406.95817485326216 C 17.142666666666663 406.91817485326214, 16.805999999999997 406.7721748532622, 16.57 406.5201748532621 C 16.334000000000003 406.26817485326217, 16.209333333333333 405.92217485326216, 16.196 405.48217485326217 Z M 18.084 406.95817485326216 L 18.084 406.06617485326217 C 18.268 406.01284151992877, 18.366666666666667 405.88884151992875, 18.38 405.69417485326215 C 18.398666666666667 405.2275081865955, 18.410666666666668 404.77884151992885, 18.416 404.34817485326215 C 18.421333333333333 403.91750818659546, 18.421333333333333 403.4868415199288, 18.416 403.0561748532621 C 18.410666666666668 402.6255081865955, 18.398666666666667 402.17284151992885, 18.38 401.6981748532621 C 18.374666666666666 401.50350818659547, 18.276 401.3768415199288, 18.084 401.3181748532621 L 18.084 400.43017485326214 C 18.513333333333335 400.47017485326217, 18.846666666666668 400.61550818659543, 19.084 400.8661748532621 C 19.321333333333335 401.1168415199288, 19.445333333333334 401.4621748532621, 19.456 401.9021748532621 C 19.46666666666667 402.21684151992883, 19.474666666666668 402.5268415199288, 19.48 402.83217485326213 C 19.485333333333333 403.1375081865955, 19.488 403.4381748532621, 19.488 403.7341748532621 C 19.488 404.0301748532621, 19.485333333333333 404.32350818659546, 19.48 404.61417485326217 C 19.474666666666668 404.9048415199288, 19.46666666666667 405.19417485326215, 19.456 405.48217485326217 C 19.439999999999998 405.93284151992884, 19.311999999999998 406.2815081865955, 19.072 406.52817485326216 C 18.832 406.7748415199288, 18.502666666666666 406.91817485326214, 18.084 406.95817485326216 Z M 21.944 406.89417485326214 L 21.944 400.49417485326217 L 23.003999999999998 400.49417485326217 L 23.003999999999998 406.89417485326214 Z " stroke="none" fill-rule="nonzero" fill="#000000" fill-opacity="1" transform="matrix(1,0,0,1,5.05,13.314)" id="text10 l" />
  <path d="M 0 401.656572163212 L 10 401.656572163212 L 10 403.156572163212 L 0 403.156572163212 Z " stroke="none" fill-rule="evenodd" fill="#000000" fill-opacity="1" transform="matrix(1,0,0,1,5.05,13.314)" id="mark11 l" />
  <path d="M 0 395.36896947316177 L 10 395.36896947316177 L 10 396.86896947316177 L 0 396.86896947316177 Z " stroke="none" fill-rule="evenodd" fill="#000000" fill-opacity="1" transform="matrix(1,0,0,1,5.05,13.314)" id="mark12 l" />
  <path d="M 0 389.0813667831116 L 10 389.0813667831116 L 10 390.5813667831116 L 0 390.5813667831116 Z " stroke="none" fill-rule="evenodd" fill="#000000" fill-opacity="1" transform="matrix(1,0,0,1,5.05,13.314)" id="mark13 l" />
  <path d="M 0 382.79376409306144 L 10 382.79376409306144 L 10 384.29376409306144 L 0 384.29376409306144 Z " stroke="none" fill-rule="evenodd" fill="#000000" fill-opacity="1" transform="matrix(1,0,0,1,5.05,13.314)" id="mark14 l" />
  <path d="M 0 376.5061614030112 L 25 376.5061614030112 L 25 378.0061614030112 L 0 378.0061614030112 Z " stroke="none" fill-rule="evenodd" fill="#000000" fill-opacity="1" transform="matrix(1,0,0,1,5.05,13.314)" id="mark15 l" />
  <path d="M 14.331999999999999 375.4241614030112 L 14.331999999999999 369.9801614030112 L 13.879999999999999 369.9801614030112 L 13.847999999999999 369.6001614030112 L 14.552 369.02416140301125 L 15.432 369.02416140301125 L 15.432 375.4241614030112 Z M 16.18 374.00816140301123 C 16.174666666666667 373.8348280696779, 16.173333333333332 373.6954947363446, 16.176 373.5901614030112 C 16.178666666666665 373.48482806967786, 16.181333333333335 373.3828280696779, 16.183999999999997 373.28416140301124 L 17.264 373.28416140301124 C 17.256 373.3614947363446, 17.25 373.4574947363446, 17.246 373.57216140301125 C 17.241999999999997 373.6868280696779, 17.240666666666666 373.79749473634456, 17.241999999999997 373.90416140301124 C 17.243333333333332 374.01082806967787, 17.246666666666666 374.09082806967785, 17.252 374.14416140301125 C 17.262666666666668 374.26416140301126, 17.297333333333334 374.3621614030112, 17.355999999999998 374.43816140301124 C 17.414666666666665 374.5141614030112, 17.497333333333334 374.56816140301123, 17.604 374.6001614030112 L 17.604 375.4921614030112 C 17.110666666666663 375.4548280696779, 16.75333333333333 375.3201614030112, 16.532 375.0881614030112 C 16.310666666666666 374.85616140301124, 16.19333333333333 374.49616140301123, 16.18 374.00816140301123 Z M 16.279999999999998 372.6721614030112 L 16.279999999999998 369.02416140301125 L 17.348 369.02416140301125 L 17.348 372.6721614030112 Z M 17.852 372.24816140301124 L 17.852 371.4921614030112 C 17.929333333333332 371.45216140301125, 18.014666666666667 371.4201614030112, 18.107999999999997 371.3961614030112 C 18.20133333333333 371.3721614030112, 18.301333333333332 371.3601614030112, 18.407999999999998 371.3601614030112 C 18.773333333333333 371.3601614030112, 19.047333333333334 371.47549473634456, 19.23 371.7061614030112 C 19.412666666666667 371.93682806967786, 19.514666666666663 372.2508280696779, 19.535999999999998 372.6481614030112 C 19.546666666666667 372.80816140301124, 19.55333333333333 372.9668280696779, 19.555999999999997 373.1241614030112 C 19.558666666666664 373.28149473634454, 19.557333333333332 373.4348280696779, 19.552 373.58416140301125 C 19.546666666666667 373.7334947363446, 19.538666666666668 373.8734947363446, 19.528 374.0041614030112 C 19.482666666666667 374.5028280696779, 19.353333333333335 374.8681614030112, 19.14 375.1001614030112 C 18.926666666666666 375.33216140301124, 18.581333333333333 375.46282806967787, 18.104 375.4921614030112 L 18.104 374.6001614030112 C 18.21333333333333 374.5708280696779, 18.296 374.5181614030112, 18.352 374.4421614030112 C 18.408 374.36616140301123, 18.44 374.2668280696779, 18.448 374.14416140301125 C 18.471999999999998 373.8534947363446, 18.485999999999997 373.59216140301123, 18.49 373.3601614030112 C 18.494 373.12816140301123, 18.485333333333333 372.9068280696779, 18.464 372.6961614030112 C 18.447999999999997 372.5414947363446, 18.396666666666665 372.42616140301124, 18.31 372.3501614030112 C 18.223333333333333 372.27416140301125, 18.090666666666664 372.23616140301124, 17.912 372.23616140301124 C 17.901333333333334 372.23616140301124, 17.890666666666668 372.23749473634456, 17.88 372.2401614030112 C 17.86933333333333 372.2428280696779, 17.86 372.24549473634454, 17.852 372.24816140301124 Z M 17.852 369.9561614030112 L 17.852 369.02416140301125 L 19.439999999999998 369.02416140301125 L 19.439999999999998 369.9561614030112 Z M 21.944 375.4241614030112 L 21.944 369.02416140301125 L 23.003999999999998 369.02416140301125 L 23.003999999999998 375.4241614030112 Z " stroke="none" fill-rule="nonzero" fill="#000000" fill-opacity="1" transform="matrix(1,0,0,1,5.05,13.314)" id="text15 l" />
  <path d="M 0 370.21855871296106 L 10 370.21855871296106 L 10 371.71855871296106 L 0 371.71855871296106 Z " stroke="none" fill-rule="evenodd" fill="#000000" fill-opacity="1" transform="matrix(1,0,0,1,5.05,13.314)" id="mark16 l" />
  <path d="M 0 363.93095602291083 L 10 363.93095602291083 L 10 365.43095602291083 L 0 365.43095602291083 Z " stroke="none" fill-rule="evenodd" fill="#000000" fill-opacity="1" transform="matrix(1,0,0,1,5.05,13.314)" id="mark17 l" />
  <path d="M 0 357.64335333286067 L 10 357.64335333286067 L 10 359.14335333286067 L 0 359.14335333286067 Z " stroke="none" fill-rule="evenodd" fill="#000000" fill-opacity="1" transform="matrix(1,0,0,1,5.05,13.314)" id="mark18 l" />
  <path d="M 0 351.35575064281045 L 10 351.35575064281045 L 10 352.85575064281045 L 0 352.85575064281045 Z " stroke="none" fill-rule="evenodd" fill="#000000" fill-opacity="1" transform="matrix(1,0,0,1,5.05,13.314)" id="mark19 l" />
  <path d="M 0 345.0681479527603 L 25 345.0681479527603 L 25 346.5681479527603 L 0 346.5681479527603 Z " stroke="none" fill-rule="evenodd" fill="#000000" fill-opacity="1" transform="matrix(1,0,0,1,5.05,13.314)" id="mark20 l" />
  <path d="M 12.319999999999999 344.0181479527603 C 12.317333333333334 343.91948128609357, 12.315333333333331 343.8308146194269, 12.313999999999998 343.75214795276025 C 12.312666666666665 343.6734812860936, 12.311333333333334 343.5994812860936, 12.309999999999999 343.5301479527603 C 12.308666666666667 343.46081461942697, 12.308 343.38881461942697, 12.308 343.31414795276027 C 12.308 343.2394812860936, 12.308 343.15481461942693, 12.308 343.06014795276025 C 12.308 342.96548128609356, 12.309333333333335 342.8541479527603, 12.312 342.7261479527603 C 12.32 342.43281461942695, 12.37 342.17081461942695, 12.462 341.9401479527603 C 12.554 341.70948128609365, 12.687999999999999 341.50348128609363, 12.863999999999999 341.32214795276025 C 13.04 341.1408146194269, 13.257333333333333 340.9794812860936, 13.515999999999998 340.83814795276027 L 14.047999999999998 340.55014795276026 C 14.234666666666666 340.4488146194269, 14.354 340.32681461942695, 14.405999999999999 340.18414795276027 C 14.457999999999998 340.0414812860936, 14.488 339.9074812860936, 14.495999999999999 339.7821479527603 C 14.506666666666664 339.6354812860936, 14.512666666666664 339.47881461942694, 14.514 339.31214795276026 C 14.51533333333333 339.14548128609357, 14.511999999999997 338.98881461942693, 14.504 338.8421479527603 C 14.498666666666665 338.7381479527603, 14.468666666666666 338.6521479527603, 14.413999999999998 338.58414795276025 C 14.359333333333332 338.51614795276026, 14.279999999999998 338.46748128609363, 14.175999999999998 338.4381479527603 L 14.175999999999998 337.55014795276026 C 14.663999999999998 337.58214795276024, 15.014 337.7134812860936, 15.225999999999999 337.94414795276026 C 15.437999999999999 338.1748146194269, 15.554666666666666 338.5354812860936, 15.575999999999999 339.02614795276025 C 15.578666666666663 339.0901479527603, 15.580666666666666 339.1554812860936, 15.581999999999999 339.2221479527603 C 15.583333333333332 339.28881461942694, 15.584 339.3534812860936, 15.584 339.4161479527603 C 15.584 339.47881461942694, 15.583333333333332 339.54081461942695, 15.581999999999999 339.6021479527603 C 15.580666666666666 339.6634812860936, 15.578666666666663 339.7234812860936, 15.575999999999999 339.7821479527603 C 15.565333333333331 340.0674812860936, 15.512 340.31414795276027, 15.415999999999999 340.5221479527603 C 15.32 340.73014795276026, 15.19 340.9101479527602, 15.026 341.06214795276026 C 14.862 341.2141479527603, 14.672 341.35014795276027, 14.456 341.47014795276027 L 13.851999999999999 341.79814795276025 C 13.737333333333332 341.8594812860936, 13.647333333333332 341.94348128609363, 13.581999999999999 342.05014795276026 C 13.516666666666666 342.15681461942694, 13.469999999999999 342.2701479527603, 13.441999999999998 342.3901479527603 C 13.413999999999998 342.5101479527603, 13.399999999999999 342.6221479527603, 13.399999999999999 342.7261479527603 L 13.399999999999999 344.0181479527603 Z M 12.328 339.97814795276025 C 12.322666666666667 339.86081461942695, 12.318666666666665 339.7461479527602, 12.315999999999999 339.63414795276026 C 12.313333333333333 339.5221479527603, 12.311333333333334 339.4161479527603, 12.309999999999999 339.3161479527603 C 12.308666666666667 339.21614795276025, 12.309333333333335 339.1194812860936, 12.312 339.02614795276025 C 12.330666666666666 338.53814795276026, 12.447333333333333 338.17881461942693, 12.661999999999999 337.9481479527603 C 12.876666666666665 337.71748128609363, 13.213333333333331 337.58481461942694, 13.671999999999999 337.55014795276026 L 13.671999999999999 338.44214795276025 C 13.576 338.47148128609365, 13.505333333333333 338.5181479527603, 13.459999999999999 338.5821479527603 C 13.414666666666665 338.6461479527603, 13.390666666666664 338.7234812860936, 13.387999999999998 338.81414795276027 C 13.382666666666665 339.0221479527603, 13.379333333333333 339.2154812860936, 13.378 339.39414795276025 C 13.376666666666667 339.57281461942694, 13.381333333333334 339.7674812860936, 13.392 339.97814795276025 Z M 13.904 344.0181479527603 L 13.904 343.08614795276026 L 15.5 343.08614795276026 L 15.5 344.0181479527603 Z M 16.196 342.6061479527603 C 16.188000000000002 342.176814619427, 16.182666666666666 341.7601479527603, 16.18 341.3561479527603 C 16.177333333333333 340.9521479527603, 16.177999999999997 340.556814619427, 16.182 340.17014795276026 C 16.186 339.7834812860936, 16.190666666666665 339.4021479527603, 16.196 339.02614795276025 C 16.209333333333333 338.58614795276026, 16.334000000000003 338.24081461942694, 16.57 337.99014795276025 C 16.805999999999997 337.73948128609356, 17.142666666666663 337.5941479527603, 17.58 337.5541479527603 L 17.58 338.44214795276025 C 17.382666666666665 338.4981479527603, 17.281333333333333 338.6274812860936, 17.276 338.8301479527603 C 17.262666666666668 339.2008146194269, 17.253333333333334 339.54881461942693, 17.248 339.87414795276027 C 17.242666666666665 340.1994812860936, 17.24 340.51614795276026, 17.24 340.82414795276026 C 17.24 341.13214795276025, 17.242666666666665 341.4468146194269, 17.248 341.7681479527603 C 17.253333333333334 342.08948128609364, 17.262666666666668 342.43281461942695, 17.276 342.79814795276025 C 17.281333333333333 343.0061479527602, 17.382666666666665 343.1381479527603, 17.58 343.19414795276026 L 17.58 344.0821479527603 C 17.142666666666663 344.0421479527603, 16.805999999999997 343.89614795276026, 16.57 343.64414795276025 C 16.334000000000003 343.39214795276024, 16.209333333333333 343.0461479527603, 16.196 342.6061479527603 Z M 18.084 344.0821479527603 L 18.084 343.1901479527603 C 18.268 343.1368146194269, 18.366666666666667 343.01281461942693, 18.38 342.8181479527603 C 18.398666666666667 342.35148128609364, 18.410666666666668 341.902814619427, 18.416 341.4721479527603 C 18.421333333333333 341.0414812860936, 18.421333333333333 340.61081461942695, 18.416 340.18014795276025 C 18.410666666666668 339.7494812860936, 18.398666666666667 339.296814619427, 18.38 338.82214795276025 C 18.374666666666666 338.6274812860936, 18.276 338.50081461942693, 18.084 338.44214795276025 L 18.084 337.5541479527603 C 18.513333333333335 337.5941479527603, 18.846666666666668 337.73948128609356, 19.084 337.99014795276025 C 19.321333333333335 338.24081461942694, 19.445333333333334 338.58614795276026, 19.456 339.02614795276025 C 19.46666666666667 339.34081461942696, 19.474666666666668 339.65081461942697, 19.48 339.95614795276026 C 19.485333333333333 340.2614812860936, 19.488 340.56214795276026, 19.488 340.85814795276025 C 19.488 341.15414795276024, 19.485333333333333 341.4474812860936, 19.48 341.7381479527603 C 19.474666666666668 342.02881461942695, 19.46666666666667 342.3181479527603, 19.456 342.6061479527603 C 19.439999999999998 343.056814619427, 19.311999999999998 343.4054812860936, 19.072 343.6521479527603 C 18.832 343.89881461942696, 18.502666666666666 344.0421479527603, 18.084 344.0821479527603 Z M 21.944 344.0181479527603 L 21.944 337.6181479527603 L 23.003999999999998 337.6181479527603 L 23.003999999999998 344.0181479527603 Z " stroke="none" fill-rule="nonzero" fill="#000000" fill-opacity="1" transform="matrix(1,0,0,1,5.05,13.314)" id="text20 l" />
  <path d="M 0 338.7805452627101 L 10 338.7805452627101 L 10 340.2805452627101 L 0 340.2805452627101 Z " stroke="none" fill-rule="evenodd" fill="#000000" fill-opacity="1" transform="matrix(1,0,0,1,5.05,13.314)" id="mark21 l" />
  <path d="M 0 332.4929425726599 L 10 332.4929425726599 L 10 333.9929425726599 L 0 333.9929425726599 Z " stroke="none" fill-rule="evenodd" fill="#000000" fill-opacity="1" transform="matrix(1,0,0,1,5.05,13.314)" id="mark22 l" />
  <path d="M 0 326.20533988260974 L 10 326.20533988260974 L 10 327.70533988260974 L 0 327.70533988260974 Z " stroke="none" fill-rule="evenodd" fill="#000000" fill-opacity="1" transform="matrix(1,0,0,1,5.05,13.314)" id="mark23 l" />
  <path d="M 0 319.91773719255957 L 10 319.91773719255957 L 10 321.41773719255957 L 0 321.41773719255957 Z " stroke="none" fill-rule="evenodd" fill="#000000" fill-opacity="1" transform="matrix(1,0,0,1,5.05,13.314)" id="mark24 l" />
  <path d="M 0 313.63013450250935 L 25 313.63013450250935 L 25 315.13013450250935 L 0 315.13013450250935 Z " stroke="none" fill-rule="evenodd" fill="#000000" fill-opacity="1" transform="matrix(1,0,0,1,5.05,13.314)" id="mark25 l" />
  <path d="M 12.328 312.58013450250934 C 12.325333333333333 312.48146783584264, 12.323333333333332 312.392801169176, 12.322 312.3141345025093 C 12.320666666666666 312.23546783584266, 12.319333333333333 312.1614678358427, 12.318 312.09213450250934 C 12.316666666666666 312.022801169176, 12.315999999999999 311.950801169176, 12.316 311.87613450250933 C 12.315999999999999 311.8014678358427, 12.315999999999999 311.716801169176, 12.316 311.6221345025093 C 12.315999999999999 311.52746783584263, 12.317333333333334 311.41613450250935, 12.32 311.28813450250937 C 12.328 310.994801169176, 12.378 310.732801169176, 12.47 310.50213450250936 C 12.562000000000001 310.2714678358427, 12.696 310.0654678358427, 12.872 309.8841345025093 C 13.048 309.702801169176, 13.265333333333334 309.5414678358427, 13.524000000000001 309.40013450250933 L 14.056000000000001 309.1121345025093 C 14.242666666666668 309.01080116917603, 14.362000000000002 308.888801169176, 14.414 308.74613450250934 C 14.466000000000001 308.60346783584265, 14.495999999999999 308.4694678358427, 14.504 308.34413450250935 C 14.514666666666667 308.19746783584264, 14.520666666666667 308.040801169176, 14.522 307.8741345025093 C 14.523333333333333 307.70746783584264, 14.520000000000001 307.550801169176, 14.512 307.40413450250935 C 14.506666666666666 307.30013450250937, 14.476666666666667 307.21413450250935, 14.422 307.1461345025093 C 14.367333333333335 307.07813450250933, 14.288 307.0294678358427, 14.184000000000001 307.00013450250935 L 14.184000000000001 306.1121345025093 C 14.672 306.14413450250936, 15.022000000000002 306.2754678358427, 15.234 306.5061345025093 C 15.446000000000002 306.736801169176, 15.562666666666667 307.0974678358427, 15.584 307.5881345025093 C 15.586666666666668 307.65213450250934, 15.588666666666668 307.7174678358427, 15.59 307.78413450250935 C 15.591333333333335 307.850801169176, 15.592000000000002 307.91546783584266, 15.592 307.97813450250936 C 15.592000000000002 308.040801169176, 15.591333333333335 308.102801169176, 15.59 308.16413450250934 C 15.588666666666668 308.22546783584266, 15.586666666666668 308.28546783584267, 15.584 308.34413450250935 C 15.573333333333332 308.62946783584266, 15.52 308.87613450250933, 15.424 309.08413450250936 C 15.328 309.2921345025093, 15.197999999999999 309.47213450250933, 15.033999999999999 309.6241345025093 C 14.87 309.7761345025093, 14.68 309.91213450250933, 14.464 310.03213450250934 L 13.86 310.3601345025093 C 13.745333333333335 310.4214678358427, 13.655333333333335 310.50546783584264, 13.59 310.6121345025093 C 13.524666666666668 310.718801169176, 13.478000000000002 310.83213450250935, 13.45 310.95213450250935 C 13.422 311.07213450250936, 13.408 311.1841345025094, 13.408 311.28813450250937 L 13.408 312.58013450250934 Z M 12.336 308.5401345025093 C 12.330666666666666 308.422801169176, 12.326666666666664 308.30813450250935, 12.324 308.1961345025093 C 12.321333333333332 308.0841345025093, 12.319333333333333 307.9781345025093, 12.318 307.87813450250934 C 12.316666666666666 307.7781345025094, 12.317333333333334 307.6814678358427, 12.32 307.5881345025093 C 12.338666666666668 307.1001345025093, 12.455333333333336 306.740801169176, 12.67 306.51013450250935 C 12.884666666666668 306.2794678358427, 13.221333333333334 306.146801169176, 13.68 306.1121345025093 L 13.68 307.0041345025093 C 13.584 307.03346783584266, 13.513333333333332 307.08013450250934, 13.468 307.14413450250936 C 13.422666666666668 307.2081345025094, 13.398666666666667 307.2854678358427, 13.396 307.37613450250933 C 13.390666666666666 307.5841345025093, 13.387333333333332 307.7774678358427, 13.386 307.9561345025093 C 13.384666666666666 308.134801169176, 13.389333333333333 308.32946783584265, 13.4 308.5401345025093 Z M 13.911999999999999 312.58013450250934 L 13.911999999999999 311.6481345025093 L 15.508 311.6481345025093 L 15.508 312.58013450250934 Z M 16.18 311.16413450250934 C 16.174666666666667 310.990801169176, 16.173333333333332 310.85146783584264, 16.176 310.74613450250934 C 16.178666666666665 310.64080116917603, 16.181333333333335 310.538801169176, 16.183999999999997 310.44013450250935 L 17.264 310.44013450250935 C 17.256 310.5174678358427, 17.25 310.6134678358427, 17.246 310.72813450250936 C 17.241999999999997 310.842801169176, 17.240666666666666 310.9534678358427, 17.241999999999997 311.06013450250936 C 17.243333333333332 311.166801169176, 17.246666666666666 311.246801169176, 17.252 311.30013450250937 C 17.262666666666668 311.4201345025093, 17.297333333333334 311.5181345025093, 17.355999999999998 311.59413450250935 C 17.414666666666665 311.6701345025093, 17.497333333333334 311.72413450250934, 17.604 311.7561345025093 L 17.604 312.6481345025093 C 17.110666666666663 312.610801169176, 16.75333333333333 312.47613450250935, 16.532 312.2441345025093 C 16.310666666666666 312.0121345025093, 16.19333333333333 311.65213450250934, 16.18 311.16413450250934 Z M 16.279999999999998 309.82813450250933 L 16.279999999999998 306.18013450250936 L 17.348 306.18013450250936 L 17.348 309.82813450250933 Z M 17.852 309.40413450250935 L 17.852 308.6481345025093 C 17.929333333333332 308.6081345025093, 18.014666666666667 308.5761345025093, 18.107999999999997 308.5521345025093 C 18.20133333333333 308.5281345025093, 18.301333333333332 308.5161345025093, 18.407999999999998 308.5161345025093 C 18.773333333333333 308.5161345025093, 19.047333333333334 308.63146783584267, 19.23 308.8621345025093 C 19.412666666666667 309.09280116917597, 19.514666666666663 309.406801169176, 19.535999999999998 309.8041345025093 C 19.546666666666667 309.96413450250935, 19.55333333333333 310.122801169176, 19.555999999999997 310.2801345025093 C 19.558666666666664 310.43746783584265, 19.557333333333332 310.590801169176, 19.552 310.74013450250936 C 19.546666666666667 310.8894678358427, 19.538666666666668 311.0294678358427, 19.528 311.1601345025093 C 19.482666666666667 311.658801169176, 19.353333333333335 312.02413450250936, 19.14 312.2561345025093 C 18.926666666666666 312.4881345025093, 18.581333333333333 312.618801169176, 18.104 312.6481345025093 L 18.104 311.7561345025093 C 18.21333333333333 311.726801169176, 18.296 311.67413450250933, 18.352 311.5981345025093 C 18.408 311.5221345025093, 18.44 311.422801169176, 18.448 311.30013450250937 C 18.471999999999998 311.00946783584266, 18.485999999999997 310.74813450250934, 18.49 310.5161345025093 C 18.494 310.28413450250935, 18.485333333333333 310.06280116917605, 18.464 309.85213450250933 C 18.447999999999997 309.69746783584264, 18.396666666666665 309.58213450250935, 18.31 309.5061345025093 C 18.223333333333333 309.43013450250936, 18.090666666666664 309.39213450250935, 17.912 309.39213450250935 C 17.901333333333334 309.39213450250935, 17.890666666666668 309.39346783584267, 17.88 309.3961345025093 C 17.86933333333333 309.398801169176, 17.86 309.40146783584265, 17.852 309.40413450250935 Z M 17.852 307.1121345025093 L 17.852 306.18013450250936 L 19.439999999999998 306.18013450250936 L 19.439999999999998 307.1121345025093 Z M 21.944 312.58013450250934 L 21.944 306.18013450250936 L 23.003999999999998 306.18013450250936 L 23.003999999999998 312.58013450250934 Z " stroke="none" fill-rule="nonzero" fill="#000000" fill-opacity="1" transform="matrix(1,0,0,1,5.05,13.314)" id="text25 l" />
  <path d="M 0 307.34253181245913 L 10 307.34253181245913 L 10 308.84253181245913 L 0 308.84253181245913 Z " stroke="none" fill-rule="evenodd" fill="#000000" fill-opacity="1" transform="matrix(1,0,0,1,5.05,13.314)" id="mark26 l" />
  <path d="M 0 301.054929122409 L 10 301.054929122409 L 10 302.554929122409 L 0 302.554929122409 Z " stroke="none" fill-rule="evenodd" fill="#000000" fill-opacity="1" transform="matrix(1,0,0,1,5.05,13.314)" id="mark27 l" />
  <path d="M 0 294.7673264323588 L 10 294.7673264323588 L 10 296.2673264323588 L 0 296.2673264323588 Z " stroke="none" fill-rule="evenodd" fill="#000000" fill-opacity="1" transform="matrix(1,0,0,1,5.05,13.314)" id="mark28 l" />
  <path d="M 0 288.4797237423086 L 10 288.4797237423086 L 10 289.9797237423086 L 0 289.9797237423086 Z " stroke="none" fill-rule="evenodd" fill="#000000" fill-opacity="1" transform="matrix(1,0,0,1,5.05,13.314)" id="mark29 l" />
  <path d="M 0 282.1921210522584 L 25 282.1921210522584 L 25 283.6921210522584 L 0 283.6921210522584 Z " stroke="none" fill-rule="evenodd" fill="#000000" fill-opacity="1" transform="matrix(1,0,0,1,5.05,13.314)" id="mark30 l" />
  <path d="M 12.223999999999998 279.7261210522584 C 12.221333333333334 279.62478771892506, 12.219333333333333 279.5407877189251, 12.218 279.4741210522584 C 12.216666666666667 279.4074543855918, 12.216666666666667 279.33945438559175, 12.218 279.2701210522584 C 12.219333333333333 279.2007877189251, 12.221333333333334 279.11145438559174, 12.223999999999998 279.0021210522584 L 13.303999999999998 279.0021210522584 L 13.303999999999998 279.8661210522584 C 13.303999999999998 280.1034543855917, 13.417333333333332 280.25412105225837, 13.643999999999998 280.3181210522584 L 13.643999999999998 281.2101210522584 C 13.155999999999999 281.17278771892506, 12.800666666666665 281.0381210522584, 12.578 280.8061210522584 C 12.355333333333334 280.57412105225836, 12.237333333333332 280.2141210522584, 12.223999999999998 279.7261210522584 Z M 12.292 275.6741210522584 L 12.292 274.7421210522584 L 15.536 274.7421210522584 L 15.536 275.6741210522584 Z M 14.143999999999998 280.3221210522584 C 14.367999999999999 280.2661210522584, 14.483999999999998 280.11545438559176, 14.491999999999999 279.8701210522584 C 14.497333333333334 279.6674543855917, 14.500666666666666 279.4847877189251, 14.501999999999999 279.3221210522584 C 14.503333333333332 279.15945438559174, 14.498666666666665 279.0021210522584, 14.488 278.85012105225843 C 14.48 278.69278771892505, 14.431999999999999 278.5594543855917, 14.344 278.4501210522584 C 14.256 278.34078771892507, 14.089333333333332 278.28878771892505, 13.844 278.2941210522584 L 13.096 278.3021210522584 L 13.068 277.4101210522584 L 14.027999999999999 276.0261210522584 L 15.216 276.0261210522584 L 14.248 277.3781210522584 L 14.28 277.3781210522584 C 14.712 277.3781210522584, 15.028666666666666 277.50078771892504, 15.229999999999999 277.7461210522584 C 15.431333333333333 277.99145438559174, 15.544 278.3687877189251, 15.568 278.8781210522584 C 15.57333333333333 278.9501210522584, 15.576666666666664 279.0221210522584, 15.578 279.0941210522584 C 15.57933333333333 279.1661210522584, 15.579999999999998 279.2367877189251, 15.579999999999998 279.3061210522584 C 15.579999999999998 279.3754543855917, 15.57933333333333 279.44478771892506, 15.578 279.5141210522584 C 15.576666666666664 279.5834543855917, 15.57333333333333 279.6541210522584, 15.568 279.7261210522584 C 15.549333333333333 280.2221210522584, 15.428666666666665 280.58678771892505, 15.206 280.8201210522584 C 14.983333333333334 281.05345438559175, 14.630666666666666 281.18345438559174, 14.148 281.2101210522584 Z M 16.196 279.7301210522584 C 16.188000000000002 279.3007877189251, 16.182666666666666 278.8841210522584, 16.18 278.4801210522584 C 16.177333333333333 278.07612105225843, 16.177999999999997 277.6807877189251, 16.182 277.2941210522584 C 16.186 276.90745438559173, 16.190666666666665 276.5261210522584, 16.196 276.1501210522584 C 16.209333333333333 275.7101210522584, 16.334000000000003 275.3647877189251, 16.57 275.1141210522584 C 16.805999999999997 274.86345438559175, 17.142666666666663 274.7181210522584, 17.58 274.6781210522584 L 17.58 275.5661210522584 C 17.382666666666665 275.62212105225836, 17.281333333333333 275.7514543855917, 17.276 275.9541210522584 C 17.262666666666668 276.32478771892505, 17.253333333333334 276.67278771892506, 17.248 276.9981210522584 C 17.242666666666665 277.32345438559173, 17.24 277.6401210522584, 17.24 277.9481210522584 C 17.24 278.2561210522584, 17.242666666666665 278.57078771892503, 17.248 278.8921210522584 C 17.253333333333334 279.2134543855918, 17.262666666666668 279.5567877189251, 17.276 279.9221210522584 C 17.281333333333333 280.1301210522584, 17.382666666666665 280.2621210522584, 17.58 280.3181210522584 L 17.58 281.2061210522584 C 17.142666666666663 281.1661210522584, 16.805999999999997 281.02012105225845, 16.57 280.7681210522584 C 16.334000000000003 280.5161210522584, 16.209333333333333 280.1701210522584, 16.196 279.7301210522584 Z M 18.084 281.2061210522584 L 18.084 280.31412105225843 C 18.268 280.2607877189251, 18.366666666666667 280.13678771892506, 18.38 279.9421210522584 C 18.398666666666667 279.4754543855918, 18.410666666666668 279.0267877189251, 18.416 278.5961210522584 C 18.421333333333333 278.1654543855917, 18.421333333333333 277.7347877189251, 18.416 277.3041210522584 C 18.410666666666668 276.87345438559174, 18.398666666666667 276.42078771892506, 18.38 275.9461210522584 C 18.374666666666666 275.7514543855917, 18.276 275.62478771892506, 18.084 275.5661210522584 L 18.084 274.6781210522584 C 18.513333333333335 274.7181210522584, 18.846666666666668 274.86345438559175, 19.084 275.1141210522584 C 19.321333333333335 275.3647877189251, 19.445333333333334 275.7101210522584, 19.456 276.1501210522584 C 19.46666666666667 276.4647877189251, 19.474666666666668 276.77478771892504, 19.48 277.0801210522584 C 19.485333333333333 277.38545438559174, 19.488 277.6861210522584, 19.488 277.9821210522584 C 19.488 278.27812105225837, 19.485333333333333 278.5714543855917, 19.48 278.86212105225843 C 19.474666666666668 279.1527877189251, 19.46666666666667 279.4421210522584, 19.456 279.7301210522584 C 19.439999999999998 280.1807877189251, 19.311999999999998 280.52945438559175, 19.072 280.7761210522584 C 18.832 281.0227877189251, 18.502666666666666 281.1661210522584, 18.084 281.2061210522584 Z M 21.944 281.1421210522584 L 21.944 274.7421210522584 L 23.003999999999998 274.7421210522584 L 23.003999999999998 281.1421210522584 Z " stroke="none" fill-rule="nonzero" fill="#000000" fill-opacity="1" transform="matrix(1,0,0,1,5.05,13.314)" id="text30 l" />
  <path d="M 0 275.90451836220825 L 10 275.90451836220825 L 10 277.40451836220825 L 0 277.40451836220825 Z " stroke="none" fill-rule="evenodd" fill="#000000" fill-opacity="1" transform="matrix(1,0,0,1,5.05,13.314)" id="mark31 l" />
  <path d="M 0 269.61691567215803 L 10 269.61691567215803 L 10 271.11691567215803 L 0 271.11691567215803 Z " stroke="none" fill-rule="evenodd" fill="#000000" fill-opacity="1" transform="matrix(1,0,0,1,5.05,13.314)" id="mark32 l" />
  <path d="M 0 263.32931298210787 L 10 263.32931298210787 L 10 264.82931298210787 L 0 264.82931298210787 Z " stroke="none" fill-rule="evenodd" fill="#000000" fill-opacity="1" transform="matrix(1,0,0,1,5.05,13.314)" id="mark33 l" />
  <path d="M 0 257.0417102920577 L 10 257.0417102920577 L 10 258.5417102920577 L 0 258.5417102920577 Z " stroke="none" fill-rule="evenodd" fill="#000000" fill-opacity="1" transform="matrix(1,0,0,1,5.05,13.314)" id="mark34 l" />
  <path d="M 0 250.75410760200748 L 25 250.75410760200748 L 25 252.25410760200748 L 0 252.25410760200748 Z " stroke="none" fill-rule="evenodd" fill="#000000" fill-opacity="1" transform="matrix(1,0,0,1,5.05,13.314)" id="mark35 l" />
  <path d="M 12.232 248.2561076020075 C 12.229333333333333 248.15477426867415, 12.227333333333334 248.07077426867414, 12.226 248.00410760200748 C 12.224666666666668 247.93744093534082, 12.224666666666668 247.86944093534083, 12.226 247.80010760200747 C 12.227333333333334 247.73077426867417, 12.229333333333333 247.64144093534082, 12.232 247.5321076020075 L 13.312 247.5321076020075 L 13.312 248.39610760200748 C 13.312 248.63344093534084, 13.425333333333333 248.7841076020075, 13.652 248.84810760200747 L 13.652 249.7401076020075 C 13.164 249.70277426867415, 12.808666666666667 249.5681076020075, 12.586 249.33610760200747 C 12.363333333333333 249.1041076020075, 12.245333333333335 248.7441076020075, 12.232 248.2561076020075 Z M 12.3 244.2041076020075 L 12.3 243.27210760200748 L 15.544 243.27210760200748 L 15.544 244.2041076020075 Z M 14.152000000000001 248.8521076020075 C 14.376000000000001 248.7961076020075, 14.492 248.64544093534084, 14.5 248.4001076020075 C 14.505333333333333 248.1974409353408, 14.508666666666667 248.01477426867416, 14.51 247.8521076020075 C 14.511333333333333 247.68944093534083, 14.506666666666668 247.5321076020075, 14.496 247.38010760200748 C 14.488 247.2227742686742, 14.440000000000001 247.08944093534083, 14.352 246.98010760200748 C 14.264 246.87077426867415, 14.097333333333335 246.81877426867413, 13.852 246.82410760200747 L 13.104 246.83210760200748 L 13.076 245.9401076020075 L 14.036 244.5561076020075 L 15.224 244.5561076020075 L 14.256 245.90810760200748 L 14.288 245.90810760200748 C 14.719999999999999 245.90810760200748, 15.036666666666665 246.03077426867418, 15.238 246.2761076020075 C 15.439333333333334 246.52144093534082, 15.552 246.89877426867417, 15.576 247.40810760200748 C 15.581333333333333 247.48010760200748, 15.584666666666667 247.55210760200748, 15.586 247.62410760200748 C 15.587333333333333 247.6961076020075, 15.588000000000001 247.76677426867417, 15.588000000000001 247.83610760200747 C 15.588000000000001 247.90544093534083, 15.587333333333333 247.97477426867417, 15.586 248.0441076020075 C 15.584666666666667 248.11344093534083, 15.581333333333333 248.1841076020075, 15.576 248.2561076020075 C 15.557333333333334 248.75210760200747, 15.436666666666667 249.11677426867413, 15.214 249.35010760200748 C 14.991333333333333 249.58344093534083, 14.638666666666666 249.71344093534083, 14.156 249.7401076020075 Z M 16.18 248.2561076020075 C 16.174666666666667 248.08277426867414, 16.173333333333332 247.94344093534082, 16.176 247.83810760200748 C 16.178666666666665 247.73277426867415, 16.181333333333335 247.63077426867414, 16.183999999999997 247.5321076020075 L 17.264 247.5321076020075 C 17.256 247.60944093534084, 17.25 247.70544093534082, 17.246 247.82010760200748 C 17.241999999999997 247.93477426867415, 17.240666666666666 248.04544093534082, 17.241999999999997 248.15210760200748 C 17.243333333333332 248.25877426867413, 17.246666666666666 248.33877426867417, 17.252 248.39210760200748 C 17.262666666666668 248.51210760200752, 17.297333333333334 248.6101076020075, 17.355999999999998 248.6861076020075 C 17.414666666666665 248.7621076020075, 17.497333333333334 248.8161076020075, 17.604 248.84810760200747 L 17.604 249.7401076020075 C 17.110666666666663 249.70277426867415, 16.75333333333333 249.5681076020075, 16.532 249.33610760200747 C 16.310666666666666 249.1041076020075, 16.19333333333333 248.7441076020075, 16.18 248.2561076020075 Z M 16.279999999999998 246.92010760200748 L 16.279999999999998 243.27210760200748 L 17.348 243.27210760200748 L 17.348 246.92010760200748 Z M 17.852 246.4961076020075 L 17.852 245.7401076020075 C 17.929333333333332 245.7001076020075, 18.014666666666667 245.66810760200752, 18.107999999999997 245.6441076020075 C 18.20133333333333 245.62010760200752, 18.301333333333332 245.60810760200752, 18.407999999999998 245.6081076020075 C 18.773333333333333 245.60810760200752, 19.047333333333334 245.72344093534082, 19.23 245.9541076020075 C 19.412666666666667 246.18477426867412, 19.514666666666663 246.49877426867414, 19.535999999999998 246.89610760200748 C 19.546666666666667 247.0561076020075, 19.55333333333333 247.21477426867415, 19.555999999999997 247.37210760200747 C 19.558666666666664 247.5294409353408, 19.557333333333332 247.68277426867417, 19.552 247.83210760200748 C 19.546666666666667 247.9814409353408, 19.538666666666668 248.12144093534081, 19.528 248.2521076020075 C 19.482666666666667 248.75077426867415, 19.353333333333335 249.11610760200747, 19.14 249.34810760200747 C 18.926666666666666 249.58010760200747, 18.581333333333333 249.71077426867413, 18.104 249.7401076020075 L 18.104 248.84810760200747 C 18.21333333333333 248.81877426867413, 18.296 248.76610760200748, 18.352 248.6901076020075 C 18.408 248.6141076020075, 18.44 248.51477426867416, 18.448 248.39210760200748 C 18.471999999999998 248.1014409353408, 18.485999999999997 247.8401076020075, 18.49 247.6081076020075 C 18.494 247.3761076020075, 18.485333333333333 247.15477426867415, 18.464 246.94410760200748 C 18.447999999999997 246.78944093534082, 18.396666666666665 246.6741076020075, 18.31 246.59810760200747 C 18.223333333333333 246.5221076020075, 18.090666666666664 246.4841076020075, 17.912 246.4841076020075 C 17.901333333333334 246.4841076020075, 17.890666666666668 246.48544093534082, 17.88 246.4881076020075 C 17.86933333333333 246.49077426867416, 17.86 246.4934409353408, 17.852 246.4961076020075 Z M 17.852 244.2041076020075 L 17.852 243.27210760200748 L 19.439999999999998 243.27210760200748 L 19.439999999999998 244.2041076020075 Z M 21.944 249.6721076020075 L 21.944 243.27210760200748 L 23.003999999999998 243.27210760200748 L 23.003999999999998 249.6721076020075 Z " stroke="none" fill-rule="nonzero" fill="#000000" fill-opacity="1" transform="matrix(1,0,0,1,5.05,13.314)" id="text35 l" />
  <path d="M 0 244.4665049119573 L 10 244.4665049119573 L 10 245.9665049119573 L 0 245.9665049119573 Z " stroke="none" fill-rule="evenodd" fill="#000000" fill-opacity="1" transform="matrix(1,0,0,1,5.05,13.314)" id="mark36 l" />
  <path d="M 0 238.17890222190712 L 10 238.17890222190712 L 10 239.67890222190712 L 0 239.67890222190712 Z " stroke="none" fill-rule="evenodd" fill="#000000" fill-opacity="1" transform="matrix(1,0,0,1,5.05,13.314)" id="mark37 l" />
  <path d="M 0 231.89129953185693 L 10 231.89129953185693 L 10 233.39129953185693 L 0 233.39129953185693 Z " stroke="none" fill-rule="evenodd" fill="#000000" fill-opacity="1" transform="matrix(1,0,0,1,5.05,13.314)" id="mark38 l" />
  <path d="M 0 225.60369684180674 L 10 225.60369684180674 L 10 227.10369684180674 L 0 227.10369684180674 Z " stroke="none" fill-rule="evenodd" fill="#000000" fill-opacity="1" transform="matrix(1,0,0,1,5.05,13.314)" id="mark39 l" />
  <path d="M 0 219.31609415175654 L 25 219.31609415175654 L 25 220.81609415175654 L 0 220.81609415175654 Z " stroke="none" fill-rule="evenodd" fill="#000000" fill-opacity="1" transform="matrix(1,0,0,1,5.05,13.314)" id="mark40 l" />
  <path d="M 11.739999999999998 216.58209415175656 L 11.739999999999998 215.70609415175656 L 12.455999999999998 213.82609415175656 L 13.495999999999999 213.82609415175656 L 12.771999999999998 215.65809415175656 L 13.171999999999997 215.65809415175656 L 13.171999999999997 216.58209415175656 Z M 13.675999999999998 218.26609415175656 L 13.675999999999998 211.86609415175656 L 14.683999999999997 211.86609415175656 L 14.683999999999997 218.26609415175656 Z M 15.187999999999999 216.58209415175656 L 15.187999999999999 215.65809415175656 L 15.655999999999999 215.65809415175656 L 15.655999999999999 216.58209415175656 Z M 16.195999999999998 216.85409415175656 C 16.188 216.4247608184232, 16.182666666666666 216.00809415175655, 16.18 215.60409415175656 C 16.177333333333333 215.20009415175656, 16.177999999999997 214.80476081842323, 16.182 214.41809415175655 C 16.186 214.03142748508992, 16.190666666666665 213.65009415175658, 16.195999999999998 213.27409415175657 C 16.20933333333333 212.83409415175657, 16.333999999999996 212.48876081842326, 16.569999999999997 212.23809415175657 C 16.805999999999997 211.98742748508988, 17.142666666666663 211.84209415175656, 17.58 211.80209415175656 L 17.58 212.69009415175657 C 17.382666666666665 212.74609415175655, 17.281333333333333 212.87542748508992, 17.275999999999996 213.07809415175657 C 17.262666666666664 213.44876081842324, 17.25333333333333 213.7967608184232, 17.247999999999998 214.12209415175656 C 17.242666666666665 214.44742748508986, 17.24 214.76409415175655, 17.24 215.07209415175657 C 17.24 215.38009415175657, 17.242666666666665 215.69476081842322, 17.247999999999998 216.01609415175656 C 17.25333333333333 216.3374274850899, 17.262666666666664 216.6807608184232, 17.275999999999996 217.04609415175656 C 17.281333333333333 217.2540941517566, 17.382666666666665 217.38609415175657, 17.58 217.44209415175655 L 17.58 218.33009415175655 C 17.142666666666663 218.29009415175653, 16.805999999999997 218.14409415175655, 16.569999999999997 217.89209415175657 C 16.333999999999996 217.64009415175656, 16.20933333333333 217.29409415175655, 16.195999999999998 216.85409415175656 Z M 18.084 218.33009415175655 L 18.084 217.43809415175656 C 18.268 217.38476081842322, 18.366666666666667 217.26076081842325, 18.38 217.06609415175657 C 18.398666666666664 216.5994274850899, 18.410666666666664 216.15076081842324, 18.415999999999997 215.72009415175657 C 18.42133333333333 215.2894274850899, 18.42133333333333 214.8587608184232, 18.415999999999997 214.42809415175657 C 18.410666666666664 213.99742748508987, 18.398666666666664 213.54476081842324, 18.38 213.07009415175656 C 18.374666666666666 212.87542748508992, 18.276 212.74876081842325, 18.084 212.69009415175657 L 18.084 211.80209415175656 C 18.513333333333332 211.84209415175656, 18.846666666666664 211.98742748508988, 19.083999999999996 212.23809415175657 C 19.32133333333333 212.48876081842326, 19.44533333333333 212.83409415175657, 19.456 213.27409415175657 C 19.466666666666665 213.58876081842322, 19.474666666666664 213.89876081842323, 19.479999999999997 214.20409415175655 C 19.48533333333333 214.50942748508987, 19.488 214.81009415175657, 19.488 215.10609415175657 C 19.488 215.40209415175656, 19.48533333333333 215.69542748508988, 19.479999999999997 215.98609415175656 C 19.474666666666664 216.27676081842324, 19.466666666666665 216.56609415175657, 19.456 216.85409415175656 C 19.439999999999998 217.30476081842323, 19.311999999999998 217.65342748508988, 19.072 217.90009415175655 C 18.831999999999997 218.14676081842322, 18.502666666666663 218.29009415175653, 18.084 218.33009415175655 Z M 21.944 218.26609415175656 L 21.944 211.86609415175656 L 23.003999999999998 211.86609415175656 L 23.003999999999998 218.26609415175656 Z " stroke="none" fill-rule="nonzero" fill="#000000" fill-opacity="1" transform="matrix(1,0,0,1,5.05,13.314)" id="text40 l" />
  <path d="M 0 213.02849146170638 L 10 213.02849146170638 L 10 214.52849146170638 L 0 214.52849146170638 Z " stroke="none" fill-rule="evenodd" fill="#000000" fill-opacity="1" transform="matrix(1,0,0,1,5.05,13.314)" id="mark41 l" />
  <path d="M 0 206.74088877165616 L 10 206.74088877165616 L 10 208.24088877165616 L 0 208.24088877165616 Z " stroke="none" fill-rule="evenodd" fill="#000000" fill-opacity="1" transform="matrix(1,0,0,1,5.05,13.314)" id="mark42 l" />
  <path d="M 0 200.453286081606 L 10 200.453286081606 L 10 201.953286081606 L 0 201.953286081606 Z " stroke="none" fill-rule="evenodd" fill="#000000" fill-opacity="1" transform="matrix(1,0,0,1,5.05,13.314)" id="mark43 l" />
  <path d="M 0 194.16568339155577 L 10 194.16568339155577 L 10 195.66568339155577 L 0 195.66568339155577 Z " stroke="none" fill-rule="evenodd" fill="#000000" fill-opacity="1" transform="matrix(1,0,0,1,5.05,13.314)" id="mark44 l" />
  <path d="M 0 187.8780807015056 L 25 187.8780807015056 L 25 189.3780807015056 L 0 189.3780807015056 Z " stroke="none" fill-rule="evenodd" fill="#000000" fill-opacity="1" transform="matrix(1,0,0,1,5.05,13.314)" id="mark45 l" />
  <path d="M 11.748 185.11208070150562 L 11.748 184.2360807015056 L 12.463999999999999 182.35608070150562 L 13.503999999999998 182.35608070150562 L 12.78 184.1880807015056 L 13.18 184.1880807015056 L 13.18 185.11208070150562 Z M 13.684 186.79608070150562 L 13.684 180.3960807015056 L 14.691999999999998 180.3960807015056 L 14.691999999999998 186.79608070150562 Z M 15.195999999999998 185.11208070150562 L 15.195999999999998 184.1880807015056 L 15.663999999999998 184.1880807015056 L 15.663999999999998 185.11208070150562 Z M 16.18 185.38008070150562 C 16.174666666666667 185.2067473681723, 16.173333333333332 185.06741403483895, 16.176 184.9620807015056 C 16.178666666666665 184.85674736817228, 16.181333333333335 184.7547473681723, 16.183999999999997 184.65608070150563 L 17.264 184.65608070150563 C 17.256 184.73341403483894, 17.25 184.82941403483895, 17.246 184.9440807015056 C 17.241999999999997 185.05874736817228, 17.240666666666666 185.16941403483895, 17.241999999999997 185.2760807015056 C 17.243333333333332 185.38274736817226, 17.246666666666666 185.46274736817227, 17.252 185.51608070150562 C 17.262666666666668 185.63608070150562, 17.297333333333334 185.73408070150563, 17.355999999999998 185.81008070150563 C 17.414666666666665 185.88608070150562, 17.497333333333334 185.94008070150562, 17.604 185.9720807015056 L 17.604 186.86408070150563 C 17.110666666666663 186.82674736817228, 16.75333333333333 186.69208070150563, 16.532 186.4600807015056 C 16.310666666666666 186.22808070150563, 16.19333333333333 185.86808070150562, 16.18 185.38008070150562 Z M 16.279999999999998 184.0440807015056 L 16.279999999999998 180.3960807015056 L 17.348 180.3960807015056 L 17.348 184.0440807015056 Z M 17.852 183.62008070150563 L 17.852 182.86408070150563 C 17.929333333333332 182.82408070150564, 18.014666666666667 182.79208070150563, 18.107999999999997 182.76808070150562 C 18.20133333333333 182.74408070150562, 18.301333333333332 182.73208070150562, 18.407999999999998 182.73208070150562 C 18.773333333333333 182.73208070150562, 19.047333333333334 182.84741403483895, 19.23 183.07808070150563 C 19.412666666666667 183.30874736817228, 19.514666666666663 183.62274736817227, 19.535999999999998 184.0200807015056 C 19.546666666666667 184.18008070150563, 19.55333333333333 184.33874736817228, 19.555999999999997 184.4960807015056 C 19.558666666666664 184.65341403483896, 19.557333333333332 184.8067473681723, 19.552 184.9560807015056 C 19.546666666666667 185.10541403483893, 19.538666666666668 185.24541403483894, 19.528 185.37608070150563 C 19.482666666666667 185.87474736817228, 19.353333333333335 186.2400807015056, 19.14 186.4720807015056 C 18.926666666666666 186.7040807015056, 18.581333333333333 186.8347473681723, 18.104 186.86408070150563 L 18.104 185.9720807015056 C 18.21333333333333 185.94274736817226, 18.296 185.8900807015056, 18.352 185.81408070150562 C 18.408 185.73808070150562, 18.44 185.6387473681723, 18.448 185.51608070150562 C 18.471999999999998 185.22541403483893, 18.485999999999997 184.96408070150562, 18.49 184.73208070150562 C 18.494 184.50008070150562, 18.485333333333333 184.27874736817228, 18.464 184.0680807015056 C 18.447999999999997 183.91341403483895, 18.396666666666665 183.79808070150563, 18.31 183.7220807015056 C 18.223333333333333 183.64608070150564, 18.090666666666664 183.60808070150563, 17.912 183.60808070150563 C 17.901333333333334 183.60808070150563, 17.890666666666668 183.60941403483895, 17.88 183.61208070150562 C 17.86933333333333 183.6147473681723, 17.86 183.61741403483893, 17.852 183.62008070150563 Z M 17.852 181.32808070150563 L 17.852 180.3960807015056 L 19.439999999999998 180.3960807015056 L 19.439999999999998 181.32808070150563 Z M 21.944 186.79608070150562 L 21.944 180.3960807015056 L 23.003999999999998 180.3960807015056 L 23.003999999999998 186.79608070150562 Z " stroke="none" fill-rule="nonzero" fill="#000000" fill-opacity="1" transform="matrix(1,0,0,1,5.05,13.314)" id="text45 l" />
  <path d="M 0 181.59047801145545 L 10 181.59047801145545 L 10 183.09047801145545 L 0 183.09047801145545 Z " stroke="none" fill-rule="evenodd" fill="#000000" fill-opacity="1" transform="matrix(1,0,0,1,5.05,13.314)" id="mark46 l" />
  <path d="M 0 175.30287532140522 L 10 175.30287532140522 L 10 176.80287532140522 L 0 176.80287532140522 Z " stroke="none" fill-rule="evenodd" fill="#000000" fill-opacity="1" transform="matrix(1,0,0,1,5.05,13.314)" id="mark47 l" />
  <path d="M 0 169.01527263135506 L 10 169.01527263135506 L 10 170.51527263135506 L 0 170.51527263135506 Z " stroke="none" fill-rule="evenodd" fill="#000000" fill-opacity="1" transform="matrix(1,0,0,1,5.05,13.314)" id="mark48 l" />
  <path d="M 0 162.72766994130484 L 10 162.72766994130484 L 10 164.22766994130484 L 0 164.22766994130484 Z " stroke="none" fill-rule="evenodd" fill="#000000" fill-opacity="1" transform="matrix(1,0,0,1,5.05,13.314)" id="mark49 l" />
  <path d="M 0 156.44006725125467 L 25 156.44006725125467 L 25 157.94006725125467 L 0 157.94006725125467 Z " stroke="none" fill-rule="evenodd" fill="#000000" fill-opacity="1" transform="matrix(1,0,0,1,5.05,13.314)" id="mark50 l" />
  <path d="M 12.204 153.9740672512547 C 12.198666666666668 153.80073391792138, 12.197333333333333 153.66140058458802, 12.2 153.5560672512547 C 12.202666666666667 153.45073391792135, 12.205333333333336 153.34873391792138, 12.208 153.2500672512547 L 13.288 153.2500672512547 C 13.280000000000001 153.32740058458802, 13.274000000000001 153.42340058458802, 13.27 153.5380672512547 C 13.265999999999998 153.65273391792135, 13.264666666666667 153.76340058458803, 13.266 153.87006725125468 C 13.267333333333333 153.97673391792134, 13.270666666666667 154.05673391792135, 13.276 154.1100672512547 C 13.286666666666665 154.2300672512547, 13.321333333333332 154.3280672512547, 13.379999999999999 154.4040672512547 C 13.438666666666666 154.4800672512547, 13.521333333333335 154.53406725125467, 13.628 154.56606725125468 L 13.628 155.4580672512547 C 13.134666666666668 155.42073391792135, 12.777333333333335 155.28606725125468, 12.556 155.05406725125468 C 12.334666666666667 154.82206725125468, 12.217333333333332 154.4620672512547, 12.204 153.9740672512547 Z M 12.304 152.63806725125468 L 12.304 148.9900672512547 L 13.372 148.9900672512547 L 13.372 152.63806725125468 Z M 13.876 152.2140672512547 L 13.876 151.4580672512547 C 13.953333333333333 151.4180672512547, 14.038666666666668 151.3860672512547, 14.132 151.3620672512547 C 14.225333333333333 151.3380672512547, 14.325333333333333 151.3260672512547, 14.432 151.3260672512547 C 14.797333333333334 151.3260672512547, 15.071333333333332 151.44140058458802, 15.254 151.6720672512547 C 15.436666666666667 151.90273391792138, 15.538666666666668 152.21673391792137, 15.56 152.61406725125468 C 15.570666666666668 152.77406725125468, 15.577333333333334 152.93273391792135, 15.58 153.09006725125468 C 15.582666666666666 153.24740058458804, 15.581333333333333 153.40073391792134, 15.576 153.5500672512547 C 15.570666666666666 153.69940058458803, 15.562666666666665 153.83940058458802, 15.552 153.9700672512547 C 15.506666666666668 154.46873391792136, 15.377333333333333 154.83406725125468, 15.164 155.06606725125468 C 14.950666666666667 155.29806725125468, 14.605333333333332 155.42873391792136, 14.128 155.4580672512547 L 14.128 154.56606725125468 C 14.237333333333334 154.53673391792137, 14.32 154.48406725125471, 14.376 154.4080672512547 C 14.432 154.33206725125467, 14.464 154.23273391792134, 14.472 154.1100672512547 C 14.495999999999999 153.81940058458804, 14.509999999999998 153.5580672512547, 14.514 153.3260672512547 C 14.518 153.0940672512547, 14.509333333333334 152.87273391792135, 14.488 152.66206725125468 C 14.472000000000001 152.50740058458803, 14.420666666666666 152.39206725125467, 14.334 152.31606725125468 C 14.247333333333334 152.2400672512547, 14.114666666666666 152.2020672512547, 13.936 152.2020672512547 C 13.925333333333333 152.2020672512547, 13.914666666666665 152.20340058458802, 13.904 152.2060672512547 C 13.893333333333334 152.20873391792136, 13.884 152.21140058458803, 13.876 152.2140672512547 Z M 13.876 149.9220672512547 L 13.876 148.9900672512547 L 15.464 148.9900672512547 L 15.464 149.9220672512547 Z M 16.196 153.97806725125469 C 16.188000000000002 153.54873391792134, 16.182666666666666 153.13206725125468, 16.18 152.72806725125469 C 16.177333333333333 152.3240672512547, 16.177999999999997 151.92873391792136, 16.182 151.54206725125468 C 16.186 151.15540058458802, 16.190666666666665 150.7740672512547, 16.196 150.3980672512547 C 16.209333333333333 149.9580672512547, 16.334000000000003 149.61273391792136, 16.57 149.3620672512547 C 16.805999999999997 149.11140058458804, 17.142666666666663 148.96606725125469, 17.58 148.9260672512547 L 17.58 149.8140672512547 C 17.382666666666665 149.8700672512547, 17.281333333333333 149.99940058458805, 17.276 150.2020672512547 C 17.262666666666668 150.57273391792137, 17.253333333333334 150.92073391792135, 17.248 151.2460672512547 C 17.242666666666665 151.57140058458802, 17.24 151.88806725125468, 17.24 152.1960672512547 C 17.24 152.5040672512547, 17.242666666666665 152.81873391792135, 17.248 153.1400672512547 C 17.253333333333334 153.46140058458803, 17.262666666666668 153.80473391792137, 17.276 154.1700672512547 C 17.281333333333333 154.3780672512547, 17.382666666666665 154.5100672512547, 17.58 154.56606725125468 L 17.58 155.45406725125468 C 17.142666666666663 155.4140672512547, 16.805999999999997 155.26806725125468, 16.57 155.0160672512547 C 16.334000000000003 154.7640672512547, 16.209333333333333 154.41806725125468, 16.196 153.97806725125469 Z M 18.084 155.45406725125468 L 18.084 154.5620672512547 C 18.268 154.50873391792135, 18.366666666666667 154.38473391792138, 18.38 154.1900672512547 C 18.398666666666667 153.72340058458803, 18.410666666666668 153.27473391792137, 18.416 152.8440672512547 C 18.421333333333333 152.41340058458803, 18.421333333333333 151.98273391792134, 18.416 151.5520672512547 C 18.410666666666668 151.121400584588, 18.398666666666667 150.66873391792134, 18.38 150.1940672512547 C 18.374666666666666 149.99940058458802, 18.276 149.87273391792135, 18.084 149.8140672512547 L 18.084 148.9260672512547 C 18.513333333333335 148.96606725125469, 18.846666666666668 149.11140058458804, 19.084 149.3620672512547 C 19.321333333333335 149.61273391792136, 19.445333333333334 149.9580672512547, 19.456 150.3980672512547 C 19.46666666666667 150.71273391792135, 19.474666666666668 151.02273391792136, 19.48 151.32806725125468 C 19.485333333333333 151.633400584588, 19.488 151.9340672512547, 19.488 152.2300672512547 C 19.488 152.5260672512547, 19.485333333333333 152.819400584588, 19.48 153.1100672512547 C 19.474666666666668 153.40073391792137, 19.46666666666667 153.6900672512547, 19.456 153.97806725125469 C 19.439999999999998 154.42873391792136, 19.311999999999998 154.777400584588, 19.072 155.02406725125468 C 18.832 155.27073391792135, 18.502666666666666 155.4140672512547, 18.084 155.45406725125468 Z M 21.944 155.3900672512547 L 21.944 148.9900672512547 L 23.003999999999998 148.9900672512547 L 23.003999999999998 155.3900672512547 Z " stroke="none" fill-rule="nonzero" fill="#000000" fill-opacity="1" transform="matrix(1,0,0,1,5.05,13.314)" id="text50 l" />
  <path d="M 0 150.1524645612045 L 10 150.1524645612045 L 10 151.6524645612045 L 0 151.6524645612045 Z " stroke="none" fill-rule="evenodd" fill="#000000" fill-opacity="1" transform="matrix(1,0,0,1,5.05,13.314)" id="mark51 l" />
  <path d="M 0 143.8648618711543 L 10 143.8648618711543 L 10 145.3648618711543 L 0 145.3648618711543 Z " stroke="none" fill-rule="evenodd" fill="#000000" fill-opacity="1" transform="matrix(1,0,0,1,5.05,13.314)" id="mark52 l" />
  <path d="M 0 137.57725918110413 L 10 137.57725918110413 L 10 139.07725918110413 L 0 139.07725918110413 Z " stroke="none" fill-rule="evenodd" fill="#000000" fill-opacity="1" transform="matrix(1,0,0,1,5.05,13.314)" id="mark53 l" />
  <path d="M 0 131.28965649105396 L 10 131.28965649105396 L 10 132.78965649105396 L 0 132.78965649105396 Z " stroke="none" fill-rule="evenodd" fill="#000000" fill-opacity="1" transform="matrix(1,0,0,1,5.05,13.314)" id="mark54 l" />
  <path d="M 0 125.00205380100374 L 25 125.00205380100374 L 25 126.50205380100374 L 0 126.50205380100374 Z " stroke="none" fill-rule="evenodd" fill="#000000" fill-opacity="1" transform="matrix(1,0,0,1,5.05,13.314)" id="mark55 l" />
  <path d="M 12.212 122.50405380100375 C 12.206666666666667 122.33072046767042, 12.205333333333332 122.19138713433708, 12.207999999999998 122.08605380100374 C 12.210666666666667 121.98072046767041, 12.213333333333335 121.8787204676704, 12.216 121.78005380100375 L 13.296 121.78005380100375 C 13.288 121.85738713433707, 13.282 121.95338713433708, 13.277999999999999 122.06805380100374 C 13.273999999999997 122.1827204676704, 13.272666666666666 122.29338713433708, 13.274 122.40005380100375 C 13.275333333333332 122.50672046767042, 13.278666666666666 122.58672046767042, 13.283999999999999 122.64005380100375 C 13.294666666666664 122.76005380100375, 13.32933333333333 122.85805380100375, 13.387999999999998 122.93405380100374 C 13.446666666666665 123.01005380100375, 13.529333333333334 123.06405380100375, 13.636 123.09605380100375 L 13.636 123.98805380100374 C 13.142666666666667 123.95072046767041, 12.785333333333334 123.81605380100375, 12.563999999999998 123.58405380100375 C 12.342666666666666 123.35205380100375, 12.225333333333332 122.99205380100375, 12.212 122.50405380100375 Z M 12.312 121.16805380100375 L 12.312 117.52005380100374 L 13.379999999999999 117.52005380100374 L 13.379999999999999 121.16805380100375 Z M 13.883999999999999 120.74405380100374 L 13.883999999999999 119.98805380100374 C 13.961333333333332 119.94805380100374, 14.046666666666667 119.91605380100373, 14.139999999999999 119.89205380100374 C 14.233333333333333 119.86805380100375, 14.333333333333332 119.85605380100375, 14.44 119.85605380100375 C 14.805333333333333 119.85605380100375, 15.07933333333333 119.97138713433708, 15.261999999999999 120.20205380100374 C 15.444666666666667 120.4327204676704, 15.546666666666667 120.74672046767041, 15.568 121.14405380100375 C 15.578666666666667 121.30405380100375, 15.585333333333333 121.46272046767041, 15.588 121.62005380100375 C 15.590666666666666 121.77738713433709, 15.589333333333332 121.93072046767041, 15.584 122.08005380100374 C 15.578666666666665 122.22938713433707, 15.570666666666664 122.36938713433707, 15.559999999999999 122.50005380100374 C 15.514666666666667 122.99872046767041, 15.385333333333332 123.36405380100373, 15.171999999999999 123.59605380100375 C 14.958666666666666 123.82805380100373, 14.613333333333332 123.95872046767042, 14.136 123.98805380100374 L 14.136 123.09605380100375 C 14.245333333333333 123.06672046767042, 14.328 123.01405380100375, 14.383999999999999 122.93805380100375 C 14.44 122.86205380100374, 14.472 122.7627204676704, 14.479999999999999 122.64005380100375 C 14.503999999999998 122.34938713433708, 14.517999999999997 122.08805380100375, 14.521999999999998 121.85605380100375 C 14.526 121.62405380100375, 14.517333333333333 121.4027204676704, 14.495999999999999 121.19205380100375 C 14.48 121.03738713433708, 14.428666666666665 120.92205380100376, 14.341999999999999 120.84605380100375 C 14.255333333333333 120.77005380100374, 14.122666666666666 120.73205380100373, 13.943999999999999 120.73205380100374 C 13.933333333333332 120.73205380100373, 13.922666666666665 120.73338713433708, 13.911999999999999 120.73605380100375 C 13.901333333333334 120.73872046767042, 13.892 120.74138713433709, 13.883999999999999 120.74405380100374 Z M 13.883999999999999 118.45205380100374 L 13.883999999999999 117.52005380100374 L 15.472 117.52005380100374 L 15.472 118.45205380100374 Z M 16.18 122.50405380100375 C 16.174666666666667 122.33072046767042, 16.173333333333332 122.19138713433708, 16.176 122.08605380100374 C 16.178666666666665 121.98072046767041, 16.181333333333335 121.8787204676704, 16.183999999999997 121.78005380100375 L 17.264 121.78005380100375 C 17.256 121.85738713433707, 17.25 121.95338713433708, 17.246 122.06805380100374 C 17.241999999999997 122.1827204676704, 17.240666666666666 122.29338713433708, 17.241999999999997 122.40005380100375 C 17.243333333333332 122.50672046767042, 17.246666666666666 122.58672046767042, 17.252 122.64005380100375 C 17.262666666666668 122.76005380100375, 17.297333333333334 122.85805380100375, 17.355999999999998 122.93405380100374 C 17.414666666666665 123.01005380100375, 17.497333333333334 123.06405380100375, 17.604 123.09605380100375 L 17.604 123.98805380100374 C 17.110666666666663 123.95072046767041, 16.75333333333333 123.81605380100375, 16.532 123.58405380100375 C 16.310666666666666 123.35205380100375, 16.19333333333333 122.99205380100375, 16.18 122.50405380100375 Z M 16.279999999999998 121.16805380100375 L 16.279999999999998 117.52005380100374 L 17.348 117.52005380100374 L 17.348 121.16805380100375 Z M 17.852 120.74405380100374 L 17.852 119.98805380100374 C 17.929333333333332 119.94805380100374, 18.014666666666667 119.91605380100373, 18.107999999999997 119.89205380100374 C 18.20133333333333 119.86805380100375, 18.301333333333332 119.85605380100375, 18.407999999999998 119.85605380100375 C 18.773333333333333 119.85605380100375, 19.047333333333334 119.97138713433708, 19.23 120.20205380100374 C 19.412666666666667 120.4327204676704, 19.514666666666663 120.74672046767041, 19.535999999999998 121.14405380100375 C 19.546666666666667 121.30405380100375, 19.55333333333333 121.46272046767041, 19.555999999999997 121.62005380100375 C 19.558666666666664 121.77738713433709, 19.557333333333332 121.93072046767041, 19.552 122.08005380100374 C 19.546666666666667 122.22938713433707, 19.538666666666668 122.36938713433707, 19.528 122.50005380100374 C 19.482666666666667 122.99872046767041, 19.353333333333335 123.36405380100373, 19.14 123.59605380100375 C 18.926666666666666 123.82805380100373, 18.581333333333333 123.95872046767042, 18.104 123.98805380100374 L 18.104 123.09605380100375 C 18.21333333333333 123.06672046767042, 18.296 123.01405380100375, 18.352 122.93805380100375 C 18.408 122.86205380100374, 18.44 122.7627204676704, 18.448 122.64005380100375 C 18.471999999999998 122.34938713433708, 18.485999999999997 122.08805380100375, 18.49 121.85605380100375 C 18.494 121.62405380100375, 18.485333333333333 121.4027204676704, 18.464 121.19205380100375 C 18.447999999999997 121.03738713433708, 18.396666666666665 120.92205380100376, 18.31 120.84605380100375 C 18.223333333333333 120.77005380100374, 18.090666666666664 120.73205380100373, 17.912 120.73205380100374 C 17.901333333333334 120.73205380100373, 17.890666666666668 120.73338713433708, 17.88 120.73605380100375 C 17.86933333333333 120.73872046767042, 17.86 120.74138713433709, 17.852 120.74405380100374 Z M 17.852 118.45205380100374 L 17.852 117.52005380100374 L 19.439999999999998 117.52005380100374 L 19.439999999999998 118.45205380100374 Z M 21.944 123.92005380100375 L 21.944 117.52005380100374 L 23.003999999999998 117.52005380100374 L 23.003999999999998 123.92005380100375 Z " stroke="none" fill-rule="nonzero" fill="#000000" fill-opacity="1" transform="matrix(1,0,0,1,5.05,13.314)" id="text55 l" />
  <path d="M 0 118.71445111095358 L 10 118.71445111095358 L 10 120.21445111095358 L 0 120.21445111095358 Z " stroke="none" fill-rule="evenodd" fill="#000000" fill-opacity="1" transform="matrix(1,0,0,1,5.05,13.314)" id="mark56 l" />
  <path d="M 0 112.42684842090335 L 10 112.42684842090335 L 10 113.92684842090335 L 0 113.92684842090335 Z " stroke="none" fill-rule="evenodd" fill="#000000" fill-opacity="1" transform="matrix(1,0,0,1,5.05,13.314)" id="mark57 l" />
  <path d="M 0 106.13924573085319 L 10 106.13924573085319 L 10 107.63924573085319 L 0 107.63924573085319 Z " stroke="none" fill-rule="evenodd" fill="#000000" fill-opacity="1" transform="matrix(1,0,0,1,5.05,13.314)" id="mark58 l" />
  <path d="M 0 99.85164304080303 L 10 99.85164304080303 L 10 101.35164304080303 L 0 101.35164304080303 Z " stroke="none" fill-rule="evenodd" fill="#000000" fill-opacity="1" transform="matrix(1,0,0,1,5.05,13.314)" id="mark59 l" />
  <path d="M 0 93.5640403507528 L 25 93.5640403507528 L 25 95.0640403507528 L 0 95.0640403507528 Z " stroke="none" fill-rule="evenodd" fill="#000000" fill-opacity="1" transform="matrix(1,0,0,1,5.05,13.314)" id="mark60 l" />
  <path d="M 12.264 91.09804035075281 C 12.261333333333333 90.83404035075282, 12.258 90.55670701741948, 12.254 90.2660403507528 C 12.25 89.97537368408615, 12.248 89.67670701741947, 12.248 89.3700403507528 C 12.248 89.06337368408614, 12.249333333333333 88.75537368408614, 12.251999999999999 88.44604035075281 C 12.254666666666665 88.13670701741948, 12.258666666666667 87.82870701741948, 12.264 87.5220403507528 C 12.271999999999998 87.0580403507528, 12.397333333333332 86.7060403507528, 12.639999999999999 86.4660403507528 C 12.882666666666665 86.22604035075281, 13.215999999999998 86.08737368408615, 13.639999999999999 86.05004035075281 L 13.639999999999999 86.9420403507528 C 13.543999999999997 86.9660403507528, 13.470666666666665 87.0100403507528, 13.419999999999998 87.07404035075281 C 13.369333333333332 87.13804035075282, 13.343999999999998 87.22337368408614, 13.344 87.33004035075281 C 13.335999999999999 87.81804035075281, 13.330666666666666 88.28470701741946, 13.328 88.7300403507528 C 13.325333333333333 89.17537368408614, 13.323999999999998 89.60870701741948, 13.323999999999998 90.03004035075281 C 13.323999999999998 90.45137368408615, 13.328 90.86604035075281, 13.335999999999999 91.27404035075281 C 13.335999999999999 91.38337368408615, 13.363333333333333 91.47270701741948, 13.418 91.54204035075281 C 13.472666666666665 91.61137368408615, 13.549333333333333 91.66070701741948, 13.648 91.69004035075281 L 13.648 92.5820403507528 C 13.159999999999998 92.55004035075281, 12.809333333333331 92.4180403507528, 12.595999999999998 92.1860403507528 C 12.382666666666665 91.9540403507528, 12.271999999999998 91.59137368408614, 12.264 91.09804035075281 Z M 13.812 89.4180403507528 L 13.812 88.6740403507528 C 13.894666666666666 88.6260403507528, 13.987333333333332 88.58870701741947, 14.09 88.56204035075281 C 14.192666666666668 88.53537368408614, 14.301333333333332 88.5220403507528, 14.415999999999999 88.5220403507528 C 14.84 88.5220403507528, 15.134 88.62137368408614, 15.297999999999998 88.8200403507528 C 15.462 89.01870701741947, 15.547999999999998 89.3500403507528, 15.556 89.8140403507528 C 15.561333333333334 89.9980403507528, 15.564666666666666 90.15337368408613, 15.565999999999999 90.28004035075281 C 15.567333333333332 90.40670701741948, 15.567333333333332 90.53137368408613, 15.565999999999999 90.65404035075281 C 15.564666666666666 90.77670701741948, 15.559999999999999 90.92470701741948, 15.552 91.09804035075281 C 15.527999999999999 91.58870701741947, 15.408 91.95137368408614, 15.192 92.1860403507528 C 14.975999999999999 92.42070701741947, 14.628 92.55270701741948, 14.148 92.5820403507528 L 14.148 91.6980403507528 C 14.251999999999999 91.66870701741948, 14.331333333333333 91.62070701741948, 14.386 91.55404035075281 C 14.440666666666665 91.48737368408614, 14.469333333333333 91.40070701741948, 14.472 91.29404035075281 C 14.477333333333332 91.13937368408614, 14.481333333333332 91.00070701741947, 14.483999999999998 90.87804035075281 C 14.486666666666666 90.75537368408615, 14.489333333333335 90.63804035075282, 14.491999999999999 90.52604035075281 C 14.494666666666667 90.4140403507528, 14.495333333333333 90.30270701741946, 14.494 90.1920403507528 C 14.492666666666667 90.08137368408615, 14.489333333333333 89.96470701741947, 14.483999999999998 89.84204035075281 C 14.481333333333332 89.69270701741948, 14.429333333333332 89.5820403507528, 14.328 89.5100403507528 C 14.226666666666665 89.43804035075281, 14.094666666666665 89.40204035075281, 13.931999999999999 89.40204035075281 C 13.913333333333334 89.40204035075281, 13.894 89.40270701741947, 13.873999999999999 89.40404035075281 C 13.854 89.40537368408614, 13.833333333333332 89.41004035075281, 13.812 89.4180403507528 Z M 14.44 88.09804035075281 C 14.448 88.00470701741948, 14.452666666666666 87.92270701741947, 14.453999999999999 87.8520403507528 C 14.455333333333332 87.78137368408613, 14.454666666666665 87.7060403507528, 14.451999999999998 87.6260403507528 C 14.449333333333332 87.5460403507528, 14.445333333333334 87.44737368408614, 14.44 87.33004035075281 C 14.434666666666665 87.23137368408615, 14.407999999999998 87.14804035075281, 14.36 87.08004035075281 C 14.311999999999998 87.01204035075281, 14.238666666666665 86.9660403507528, 14.139999999999999 86.9420403507528 L 14.139999999999999 86.05404035075281 C 14.577333333333332 86.0940403507528, 14.911333333333332 86.23870701741947, 15.142 86.48804035075281 C 15.372666666666667 86.73737368408615, 15.495999999999999 87.06470701741948, 15.511999999999999 87.47004035075281 C 15.514666666666667 87.53670701741947, 15.516666666666666 87.6000403507528, 15.517999999999999 87.66004035075281 C 15.519333333333332 87.72004035075281, 15.519333333333332 87.7840403507528, 15.517999999999999 87.8520403507528 C 15.516666666666666 87.9200403507528, 15.514666666666667 88.00204035075281, 15.511999999999999 88.09804035075281 Z M 16.196 91.1020403507528 C 16.188000000000002 90.67270701741947, 16.182666666666666 90.25604035075281, 16.18 89.8520403507528 C 16.177333333333333 89.4480403507528, 16.177999999999997 89.05270701741946, 16.182 88.66604035075281 C 16.186 88.27937368408615, 16.190666666666665 87.89804035075281, 16.196 87.5220403507528 C 16.209333333333333 87.0820403507528, 16.334000000000003 86.73670701741948, 16.57 86.4860403507528 C 16.805999999999997 86.23537368408614, 17.142666666666663 86.09004035075282, 17.58 86.05004035075281 L 17.58 86.93804035075281 C 17.382666666666665 86.99404035075281, 17.281333333333333 87.12337368408613, 17.276 87.3260403507528 C 17.262666666666668 87.69670701741947, 17.253333333333334 88.04470701741947, 17.248 88.3700403507528 C 17.242666666666665 88.69537368408614, 17.24 89.0120403507528, 17.24 89.3200403507528 C 17.24 89.62804035075281, 17.242666666666665 89.94270701741948, 17.248 90.26404035075281 C 17.253333333333334 90.58537368408614, 17.262666666666668 90.92870701741947, 17.276 91.29404035075281 C 17.281333333333333 91.50204035075281, 17.382666666666665 91.63404035075281, 17.58 91.69004035075281 L 17.58 92.5780403507528 C 17.142666666666663 92.53804035075281, 16.805999999999997 92.39204035075281, 16.57 92.14004035075281 C 16.334000000000003 91.88804035075282, 16.209333333333333 91.54204035075281, 16.196 91.1020403507528 Z M 18.084 92.5780403507528 L 18.084 91.6860403507528 C 18.268 91.63270701741948, 18.366666666666667 91.50870701741948, 18.38 91.3140403507528 C 18.398666666666667 90.84737368408614, 18.410666666666668 90.39870701741947, 18.416 89.9680403507528 C 18.421333333333333 89.53737368408613, 18.421333333333333 89.10670701741948, 18.416 88.67604035075281 C 18.410666666666668 88.24537368408615, 18.398666666666667 87.79270701741947, 18.38 87.31804035075281 C 18.374666666666666 87.12337368408615, 18.276 86.99670701741948, 18.084 86.93804035075281 L 18.084 86.05004035075281 C 18.513333333333335 86.09004035075282, 18.846666666666668 86.23537368408614, 19.084 86.4860403507528 C 19.321333333333335 86.73670701741948, 19.445333333333334 87.0820403507528, 19.456 87.5220403507528 C 19.46666666666667 87.83670701741947, 19.474666666666668 88.14670701741947, 19.48 88.45204035075281 C 19.485333333333333 88.75737368408615, 19.488 89.0580403507528, 19.488 89.35404035075281 C 19.488 89.65004035075282, 19.485333333333333 89.94337368408614, 19.48 90.2340403507528 C 19.474666666666668 90.52470701741947, 19.46666666666667 90.8140403507528, 19.456 91.1020403507528 C 19.439999999999998 91.55270701741946, 19.311999999999998 91.90137368408614, 19.072 92.14804035075281 C 18.832 92.39470701741948, 18.502666666666666 92.53804035075281, 18.084 92.5780403507528 Z M 21.944 92.51404035075281 L 21.944 86.1140403507528 L 23.003999999999998 86.1140403507528 L 23.003999999999998 92.51404035075281 Z " stroke="none" fill-rule="nonzero" fill="#000000" fill-opacity="1" transform="matrix(1,0,0,1,5.05,13.314)" id="text60 l" />
  <path d="M 0 87.27643766070264 L 10 87.27643766070264 L 10 88.77643766070264 L 0 88.77643766070264 Z " stroke="none" fill-rule="evenodd" fill="#000000" fill-opacity="1" transform="matrix(1,0,0,1,5.05,13.314)" id="mark61 l" />
  <path d="M 0 80.98883497065242 L 10 80.98883497065242 L 10 82.48883497065242 L 0 82.48883497065242 Z " stroke="none" fill-rule="evenodd" fill="#000000" fill-opacity="1" transform="matrix(1,0,0,1,5.05,13.314)" id="mark62 l" />
  <path d="M 0 74.70123228060226 L 10 74.70123228060226 L 10 76.20123228060226 L 0 76.20123228060226 Z " stroke="none" fill-rule="evenodd" fill="#000000" fill-opacity="1" transform="matrix(1,0,0,1,5.05,13.314)" id="mark63 l" />
  <path d="M 0 68.41362959055209 L 10 68.41362959055209 L 10 69.91362959055209 L 0 69.91362959055209 Z " stroke="none" fill-rule="evenodd" fill="#000000" fill-opacity="1" transform="matrix(1,0,0,1,5.05,13.314)" id="mark64 l" />
  <path d="M 0 62.12602690050187 L 25 62.12602690050187 L 25 63.62602690050187 L 0 63.62602690050187 Z " stroke="none" fill-rule="evenodd" fill="#000000" fill-opacity="1" transform="matrix(1,0,0,1,5.05,13.314)" id="mark65 l" />
  <path d="M 12.272 59.660026900501876 C 12.269333333333332 59.39602690050188, 12.266 59.11869356716854, 12.262 58.828026900501875 C 12.258000000000001 58.53736023383521, 12.256 58.23869356716854, 12.256 57.932026900501874 C 12.256 57.62536023383521, 12.257333333333335 57.3173602338352, 12.26 57.008026900501875 C 12.262666666666668 56.69869356716855, 12.266666666666666 56.39069356716854, 12.272 56.084026900501875 C 12.280000000000001 55.62002690050187, 12.405333333333335 55.268026900501866, 12.648 55.02802690050187 C 12.890666666666668 54.788026900501876, 13.224 54.64936023383521, 13.648 54.612026900501874 L 13.648 55.50402690050187 C 13.552 55.52802690050187, 13.478666666666665 55.572026900501875, 13.428 55.636026900501875 C 13.377333333333333 55.700026900501875, 13.352 55.785360233835206, 13.352 55.892026900501875 C 13.344 56.380026900501875, 13.338666666666665 56.84669356716854, 13.336 57.292026900501874 C 13.333333333333332 57.737360233835204, 13.332 58.17069356716854, 13.332 58.59202690050187 C 13.332 59.013360233835215, 13.335999999999999 59.42802690050188, 13.344 59.83602690050187 C 13.343999999999998 59.9453602338352, 13.371333333333332 60.03469356716853, 13.426 60.10402690050187 C 13.480666666666666 60.1733602338352, 13.557333333333332 60.222693567168534, 13.656 60.252026900501875 L 13.656 61.14402690050187 C 13.168 61.112026900501874, 12.817333333333334 60.98002690050187, 12.604 60.74802690050187 C 12.390666666666668 60.51602690050187, 12.280000000000001 60.1533602338352, 12.272 59.660026900501876 Z M 13.82 57.98002690050187 L 13.82 57.23602690050187 C 13.902666666666665 57.188026900501875, 13.995333333333331 57.150693567168545, 14.097999999999999 57.124026900501875 C 14.200666666666667 57.097360233835204, 14.309333333333333 57.084026900501875, 14.424 57.084026900501875 C 14.848 57.084026900501875, 15.142000000000001 57.1833602338352, 15.306000000000001 57.38202690050187 C 15.47 57.58069356716854, 15.556000000000001 57.91202690050187, 15.564 58.37602690050187 C 15.569333333333333 58.56002690050187, 15.572666666666667 58.715360233835206, 15.574 58.84202690050187 C 15.575333333333333 58.96869356716854, 15.575333333333333 59.09336023383521, 15.574 59.21602690050187 C 15.572666666666667 59.338693567168534, 15.567999999999998 59.486693567168544, 15.56 59.660026900501876 C 15.536000000000001 60.150693567168545, 15.416 60.5133602338352, 15.2 60.74802690050187 C 14.984 60.98269356716854, 14.636 61.11469356716854, 14.156 61.14402690050187 L 14.156 60.26002690050187 C 14.259999999999998 60.230693567168544, 14.339333333333332 60.18269356716854, 14.394 60.11602690050187 C 14.448666666666666 60.0493602338352, 14.477333333333334 59.962693567168536, 14.48 59.856026900501874 C 14.485333333333333 59.70136023383521, 14.489333333333335 59.56269356716854, 14.492 59.44002690050187 C 14.494666666666667 59.3173602338352, 14.497333333333334 59.200026900501875, 14.5 59.08802690050187 C 14.502666666666666 58.97602690050187, 14.503333333333332 58.86469356716854, 14.501999999999999 58.75402690050187 C 14.500666666666666 58.6433602338352, 14.497333333333334 58.526693567168536, 14.492 58.404026900501876 C 14.489333333333335 58.254693567168545, 14.437333333333335 58.14402690050187, 14.336 58.072026900501875 C 14.234666666666666 58.00002690050188, 14.102666666666666 57.96402690050188, 13.94 57.96402690050187 C 13.921333333333333 57.96402690050188, 13.902000000000001 57.96469356716854, 13.882 57.96602690050187 C 13.862000000000002 57.96736023383521, 13.841333333333335 57.972026900501874, 13.82 57.98002690050187 Z M 14.448 56.660026900501876 C 14.456 56.56669356716854, 14.460666666666668 56.48469356716855, 14.462 56.414026900501874 C 14.463333333333335 56.34336023383521, 14.462666666666667 56.26802690050188, 14.46 56.188026900501875 C 14.457333333333333 56.10802690050187, 14.453333333333333 56.00936023383521, 14.448 55.892026900501875 C 14.442666666666668 55.7933602338352, 14.416 55.71002690050187, 14.368 55.642026900501875 C 14.32 55.57402690050188, 14.246666666666666 55.52802690050187, 14.148 55.50402690050187 L 14.148 54.61602690050187 C 14.585333333333335 54.65602690050187, 14.919333333333334 54.80069356716854, 15.15 55.05002690050188 C 15.380666666666666 55.2993602338352, 15.504000000000001 55.626693567168545, 15.52 56.032026900501876 C 15.522666666666666 56.09869356716854, 15.524666666666668 56.16202690050187, 15.526 56.222026900501874 C 15.527333333333335 56.282026900501876, 15.527333333333335 56.34602690050187, 15.526 56.414026900501874 C 15.524666666666668 56.48202690050188, 15.522666666666666 56.56402690050187, 15.52 56.660026900501876 Z M 16.18 59.660026900501876 C 16.174666666666667 59.486693567168544, 16.173333333333332 59.347360233835204, 16.176 59.24202690050187 C 16.178666666666665 59.13669356716854, 16.181333333333335 59.034693567168546, 16.183999999999997 58.93602690050187 L 17.264 58.93602690050187 C 17.256 59.0133602338352, 17.25 59.109360233835204, 17.246 59.224026900501876 C 17.241999999999997 59.33869356716855, 17.240666666666666 59.44936023383521, 17.241999999999997 59.55602690050187 C 17.243333333333332 59.66269356716854, 17.246666666666666 59.742693567168544, 17.252 59.79602690050187 C 17.262666666666668 59.916026900501876, 17.297333333333334 60.014026900501875, 17.355999999999998 60.090026900501876 C 17.414666666666665 60.166026900501876, 17.497333333333334 60.22002690050188, 17.604 60.252026900501875 L 17.604 61.14402690050187 C 17.110666666666663 61.10669356716854, 16.75333333333333 60.972026900501874, 16.532 60.740026900501874 C 16.310666666666666 60.508026900501875, 16.19333333333333 60.148026900501876, 16.18 59.660026900501876 Z M 16.279999999999998 58.32402690050187 L 16.279999999999998 54.676026900501874 L 17.348 54.676026900501874 L 17.348 58.32402690050187 Z M 17.852 57.90002690050187 L 17.852 57.14402690050187 C 17.929333333333332 57.10402690050188, 18.014666666666667 57.072026900501875, 18.107999999999997 57.048026900501874 C 18.20133333333333 57.02402690050187, 18.301333333333332 57.01202690050187, 18.407999999999998 57.01202690050187 C 18.773333333333333 57.01202690050187, 19.047333333333334 57.127360233835205, 19.23 57.35802690050187 C 19.412666666666667 57.58869356716854, 19.514666666666663 57.90269356716854, 19.535999999999998 58.30002690050188 C 19.546666666666667 58.46002690050187, 19.55333333333333 58.61869356716854, 19.555999999999997 58.776026900501876 C 19.558666666666664 58.93336023383521, 19.557333333333332 59.08669356716854, 19.552 59.23602690050187 C 19.546666666666667 59.3853602338352, 19.538666666666668 59.5253602338352, 19.528 59.65602690050187 C 19.482666666666667 60.154693567168536, 19.353333333333335 60.520026900501875, 19.14 60.752026900501875 C 18.926666666666666 60.984026900501874, 18.581333333333333 61.11469356716854, 18.104 61.14402690050187 L 18.104 60.252026900501875 C 18.21333333333333 60.222693567168534, 18.296 60.17002690050187, 18.352 60.09402690050187 C 18.408 60.018026900501866, 18.44 59.91869356716853, 18.448 59.79602690050187 C 18.471999999999998 59.505360233835205, 18.485999999999997 59.24402690050188, 18.49 59.01202690050187 C 18.494 58.78002690050188, 18.485333333333333 58.55869356716855, 18.464 58.34802690050187 C 18.447999999999997 58.19336023383521, 18.396666666666665 58.07802690050187, 18.31 58.002026900501875 C 18.223333333333333 57.92602690050187, 18.090666666666664 57.88802690050187, 17.912 57.88802690050187 C 17.901333333333334 57.88802690050187, 17.890666666666668 57.889360233835205, 17.88 57.892026900501875 C 17.86933333333333 57.894693567168545, 17.86 57.89736023383521, 17.852 57.90002690050187 Z M 17.852 55.60802690050187 L 17.852 54.676026900501874 L 19.439999999999998 54.676026900501874 L 19.439999999999998 55.60802690050187 Z M 21.944 61.07602690050187 L 21.944 54.676026900501874 L 23.003999999999998 54.676026900501874 L 23.003999999999998 61.07602690050187 Z " stroke="none" fill-rule="nonzero" fill="#000000" fill-opacity="1" transform="matrix(1,0,0,1,5.05,13.314)" id="text65 l" />
  <path d="M 0 55.838424210451706 L 10 55.838424210451706 L 10 57.338424210451706 L 0 57.338424210451706 Z " stroke="none" fill-rule="evenodd" fill="#000000" fill-opacity="1" transform="matrix(1,0,0,1,5.05,13.314)" id="mark66 l" />
  <path d="M 0 49.550821520401485 L 10 49.550821520401485 L 10 51.050821520401485 L 0 51.050821520401485 Z " stroke="none" fill-rule="evenodd" fill="#000000" fill-opacity="1" transform="matrix(1,0,0,1,5.05,13.314)" id="mark67 l" />
  <path d="M 0 43.26321883035132 L 10 43.26321883035132 L 10 44.76321883035132 L 0 44.76321883035132 Z " stroke="none" fill-rule="evenodd" fill="#000000" fill-opacity="1" transform="matrix(1,0,0,1,5.05,13.314)" id="mark68 l" />
  <path d="M 0 36.975616140301156 L 10 36.975616140301156 L 10 38.475616140301156 L 0 38.475616140301156 Z " stroke="none" fill-rule="evenodd" fill="#000000" fill-opacity="1" transform="matrix(1,0,0,1,5.05,13.314)" id="mark69 l" />
  <path d="M 0 30.688013450250935 L 25 30.688013450250935 L 25 32.188013450250935 L 0 32.188013450250935 Z " stroke="none" fill-rule="evenodd" fill="#000000" fill-opacity="1" transform="matrix(1,0,0,1,5.05,13.314)" id="mark70 l" />
  <path d="M 12.331999999999999 24.170013450250934 L 12.331999999999999 23.238013450250932 L 15.691999999999998 23.238013450250932 L 15.691999999999998 24.170013450250934 Z M 12.783999999999999 29.638013450250934 L 14.471999999999998 24.562013450250934 L 15.559999999999999 24.562013450250934 L 13.899999999999999 29.638013450250934 Z M 16.195999999999998 28.226013450250935 C 16.188 27.7966801169176, 16.182666666666666 27.380013450250935, 16.18 26.976013450250935 C 16.177333333333333 26.572013450250935, 16.177999999999997 26.176680116917602, 16.182 25.790013450250935 C 16.186 25.40334678358427, 16.190666666666665 25.02201345025093, 16.195999999999998 24.646013450250933 C 16.20933333333333 24.206013450250936, 16.333999999999996 23.8606801169176, 16.569999999999997 23.610013450250932 C 16.805999999999997 23.359346783584265, 17.142666666666663 23.21401345025093, 17.58 23.174013450250932 L 17.58 24.062013450250934 C 17.382666666666665 24.118013450250935, 17.281333333333333 24.247346783584266, 17.275999999999996 24.450013450250935 C 17.262666666666664 24.8206801169176, 17.25333333333333 25.1686801169176, 17.247999999999998 25.494013450250932 C 17.242666666666665 25.81934678358427, 17.24 26.136013450250935, 17.24 26.444013450250935 C 17.24 26.752013450250935, 17.242666666666665 27.066680116917603, 17.247999999999998 27.388013450250934 C 17.25333333333333 27.709346783584266, 17.262666666666664 28.0526801169176, 17.275999999999996 28.418013450250935 C 17.281333333333333 28.626013450250934, 17.382666666666665 28.758013450250935, 17.58 28.814013450250933 L 17.58 29.702013450250934 C 17.142666666666663 29.66201345025093, 16.805999999999997 29.516013450250934, 16.569999999999997 29.264013450250935 C 16.333999999999996 29.012013450250937, 16.20933333333333 28.666013450250937, 16.195999999999998 28.226013450250935 Z M 18.084 29.702013450250934 L 18.084 28.810013450250935 C 18.268 28.7566801169176, 18.366666666666667 28.632680116917598, 18.38 28.438013450250935 C 18.398666666666664 27.971346783584266, 18.410666666666664 27.522680116917602, 18.415999999999997 27.092013450250935 C 18.42133333333333 26.661346783584268, 18.42133333333333 26.2306801169176, 18.415999999999997 25.800013450250933 C 18.410666666666664 25.36934678358427, 18.398666666666664 24.916680116917604, 18.38 24.442013450250933 C 18.374666666666666 24.24734678358427, 18.276 24.120680116917605, 18.084 24.062013450250934 L 18.084 23.174013450250932 C 18.513333333333332 23.21401345025093, 18.846666666666664 23.359346783584265, 19.083999999999996 23.610013450250932 C 19.32133333333333 23.8606801169176, 19.44533333333333 24.206013450250936, 19.456 24.646013450250933 C 19.466666666666665 24.9606801169176, 19.474666666666664 25.270680116917603, 19.479999999999997 25.576013450250933 C 19.48533333333333 25.88134678358427, 19.488 26.182013450250935, 19.488 26.478013450250934 C 19.488 26.774013450250933, 19.48533333333333 27.06734678358427, 19.479999999999997 27.358013450250933 C 19.474666666666664 27.648680116917603, 19.466666666666665 27.938013450250935, 19.456 28.226013450250935 C 19.439999999999998 28.676680116917602, 19.311999999999998 29.02534678358427, 19.072 29.272013450250935 C 18.831999999999997 29.5186801169176, 18.502666666666663 29.66201345025093, 18.084 29.702013450250934 Z M 21.944 29.638013450250934 L 21.944 23.238013450250932 L 23.003999999999998 23.238013450250932 L 23.003999999999998 29.638013450250934 Z " stroke="none" fill-rule="nonzero" fill="#000000" fill-opacity="1" transform="matrix(1,0,0,1,5.05,13.314)" id="text70 l" />
  <path d="M 0 24.40041076020077 L 10 24.40041076020077 L 10 25.90041076020077 L 0 25.90041076020077 Z " stroke="none" fill-rule="evenodd" fill="#000000" fill-opacity="1" transform="matrix(1,0,0,1,5.05,13.314)" id="mark71 l" />
  <path d="M 0 18.11280807015055 L 10 18.11280807015055 L 10 19.61280807015055 L 0 19.61280807015055 Z " stroke="none" fill-rule="evenodd" fill="#000000" fill-opacity="1" transform="matrix(1,0,0,1,5.05,13.314)" id="mark72 l" />
  <path d="M 0 11.825205380100385 L 10 11.825205380100385 L 10 13.325205380100385 L 0 13.325205380100385 Z " stroke="none" fill-rule="evenodd" fill="#000000" fill-opacity="1" transform="matrix(1,0,0,1,5.05,13.314)" id="mark73 l" />
  <path d="M 0 5.537602690050221 L 10 5.537602690050221 L 10 7.037602690050221 L 0 7.037602690050221 Z " stroke="none" fill-rule="evenodd" fill="#000000" fill-opacity="1" transform="matrix(1,0,0,1,5.05,13.314)" id="mark74 l" />
  <path d="M 0 -0.75 L 25 -0.75 L 25 0.75 L 0 0.75 Z " stroke="none" fill-rule="evenodd" fill="#000000" fill-opacity="1" transform="matrix(1,0,0,1,5.05,13.314)" id="mark75 l" />
  <path d="M 12.34 -7.3 L 12.34 -8.232 L 15.7 -8.232 L 15.7 -7.3 Z M 12.792 -1.8319999999999999 L 14.48 -6.9079999999999995 L 15.568 -6.9079999999999995 L 13.908 -1.8319999999999999 Z M 16.18 -3.2479999999999998 C 16.174666666666667 -3.421333333333333, 16.173333333333332 -3.5606666666666666, 16.176 -3.666 C 16.178666666666665 -3.771333333333333, 16.181333333333335 -3.873333333333333, 16.183999999999997 -3.972 L 17.264 -3.972 C 17.256 -3.8946666666666667, 17.25 -3.7986666666666666, 17.246 -3.6839999999999997 C 17.241999999999997 -3.569333333333333, 17.240666666666666 -3.4586666666666663, 17.241999999999997 -3.352 C 17.243333333333332 -3.2453333333333334, 17.246666666666666 -3.1653333333333338, 17.252 -3.112 C 17.262666666666668 -2.992, 17.297333333333334 -2.8939999999999997, 17.355999999999998 -2.8179999999999996 C 17.414666666666665 -2.7419999999999995, 17.497333333333334 -2.6879999999999997, 17.604 -2.6559999999999997 L 17.604 -1.7639999999999998 C 17.110666666666663 -1.801333333333333, 16.75333333333333 -1.9359999999999997, 16.532 -2.1679999999999997 C 16.310666666666666 -2.4, 16.19333333333333 -2.76, 16.18 -3.2479999999999998 Z M 16.279999999999998 -4.584 L 16.279999999999998 -8.232 L 17.348 -8.232 L 17.348 -4.584 Z M 17.852 -5.008 L 17.852 -5.763999999999999 C 17.929333333333332 -5.804, 18.014666666666667 -5.836, 18.107999999999997 -5.86 C 18.20133333333333 -5.884, 18.301333333333332 -5.896, 18.407999999999998 -5.896 C 18.773333333333333 -5.896, 19.047333333333334 -5.780666666666667, 19.23 -5.55 C 19.412666666666667 -5.319333333333333, 19.514666666666663 -5.005333333333333, 19.535999999999998 -4.608 C 19.546666666666667 -4.448, 19.55333333333333 -4.289333333333333, 19.555999999999997 -4.132 C 19.558666666666664 -3.974666666666667, 19.557333333333332 -3.8213333333333335, 19.552 -3.6719999999999997 C 19.546666666666667 -3.522666666666667, 19.538666666666668 -3.3826666666666663, 19.528 -3.252 C 19.482666666666667 -2.753333333333333, 19.353333333333335 -2.388, 19.14 -2.1559999999999997 C 18.926666666666666 -1.9239999999999997, 18.581333333333333 -1.793333333333333, 18.104 -1.7639999999999998 L 18.104 -2.6559999999999997 C 18.21333333333333 -2.685333333333333, 18.296 -2.738, 18.352 -2.814 C 18.408 -2.89, 18.44 -2.9893333333333336, 18.448 -3.112 C 18.471999999999998 -3.4026666666666667, 18.485999999999997 -3.664, 18.49 -3.896 C 18.494 -4.128, 18.485333333333333 -4.349333333333333, 18.464 -4.5600000000000005 C 18.447999999999997 -4.714666666666667, 18.396666666666665 -4.83, 18.31 -4.906 C 18.223333333333333 -4.981999999999999, 18.090666666666664 -5.02, 17.912 -5.02 C 17.901333333333334 -5.02, 17.890666666666668 -5.018666666666666, 17.88 -5.016 C 17.86933333333333 -5.013333333333334, 17.86 -5.010666666666667, 17.852 -5.008 Z M 17.852 -7.3 L 17.852 -8.232 L 19.439999999999998 -8.232 L 19.439999999999998 -7.3 Z M 21.944 -1.8319999999999999 L 21.944 -8.232 L 23.003999999999998 -8.232 L 23.003999999999998 -1.8319999999999999 Z " stroke="none" fill-rule="nonzero" fill="#000000" fill-opacity="1" transform="matrix(1,0,0,1,5.05,13.314)" id="text75 l" />
  <path d="M -5 -13.264 L 30 -13.264 L 30 472.0185990637138 L -5 472.0185990637138 Z " stroke="#FF0000" stroke-opacity="1" stroke-width="0.1" stroke-linecap="butt" stroke-linejoin="miter" fill="none" transform="matrix(1,0,0,1,5.05,13.314)" />
</svg>