<?xml version="1.0" encoding="UTF-8"?>
<svg xmlns:xlink="http://www.w3.org/1999/xlink" viewBox="0 0 35.1 517.544924113709" version="1.1" style="font-synthesis: none;" width="35.1mm" height="517.544924113709mm" xmlns="http://www.w3.org/2000/svg">
  <defs />
  <style>	</style>
  <path d="M 0 0 L 35.1 0 L 35.1 517.544924113709 L 0 517.544924113709 Z " stroke="none" fill-rule="nonzero" fill="#FFFFFF" fill-opacity="1" transform="matrix(1,0,0,1,0,0)" />
  <path d="M 0 496.694924113709 L 10 496.694924113709 L 10 498.194924113709 L 0 498.194924113709 Z " stroke="none" fill-rule="evenodd" fill="#000000" fill-opacity="1" transform="matrix(1,0,0,1,5.05,13.314)" id="mark1 l" />
  <path d="M 0 482.0641910515411 L 10 482.0641910515411 L 10 483.5641910515411 L 0 483.5641910515411 Z " stroke="none" fill-rule="evenodd" fill="#000000" fill-opacity="1" transform="matrix(1,0,0,1,5.05,13.314)" id="mark2 l" />
  <path d="M 0 467.4334579893732 L 10 467.4334579893732 L 10 468.9334579893732 L 0 468.9334579893732 Z " stroke="none" fill-rule="evenodd" fill="#000000" fill-opacity="1" transform="matrix(1,0,0,1,5.05,13.314)" id="mark3 l" />
  <path d="M 0 452.8027249272053 L 10 452.8027249272053 L 10 454.3027249272053 L 0 454.3027249272053 Z " stroke="none" fill-rule="evenodd" fill="#000000" fill-opacity="1" transform="matrix(1,0,0,1,5.05,13.314)" id="mark4 l" />
  <path d="M 0 438.17199186503734 L 25 438.17199186503734 L 25 439.67199186503734 L 0 439.67199186503734 Z " stroke="none" fill-rule="evenodd" fill="#000000" fill-opacity="1" transform="matrix(1,0,0,1,5.05,13.314)" id="mark5 l" />
  <path d="M 16.18 435.67399186503735 C 16.174666666666667 435.50065853170406, 16.173333333333332 435.36132519837065, 16.176 435.25599186503734 C 16.178666666666665 435.15065853170404, 16.181333333333335 435.04865853170406, 16.183999999999997 434.94999186503736 L 17.264 434.94999186503736 C 17.256 435.0273251983707, 17.25 435.1233251983707, 17.246 435.2379918650374 C 17.241999999999997 435.35265853170404, 17.240666666666666 435.4633251983706, 17.241999999999997 435.56999186503737 C 17.243333333333332 435.676658531704, 17.246666666666666 435.75665853170403, 17.252 435.8099918650374 C 17.262666666666668 435.9299918650373, 17.297333333333334 436.0279918650373, 17.355999999999998 436.10399186503736 C 17.414666666666665 436.1799918650373, 17.497333333333334 436.23399186503735, 17.604 436.26599186503734 L 17.604 437.15799186503733 C 17.110666666666663 437.12065853170407, 16.75333333333333 436.98599186503736, 16.532 436.75399186503734 C 16.310666666666666 436.5219918650373, 16.19333333333333 436.1619918650373, 16.18 435.67399186503735 Z M 16.279999999999998 434.33799186503734 L 16.279999999999998 430.68999186503737 L 17.348 430.68999186503737 L 17.348 434.33799186503734 Z M 17.852 433.91399186503736 L 17.852 433.15799186503733 C 17.929333333333332 433.1179918650373, 18.014666666666667 433.0859918650373, 18.107999999999997 433.0619918650373 C 18.20133333333333 433.03799186503727, 18.301333333333332 433.0259918650373, 18.407999999999998 433.0259918650373 C 18.773333333333333 433.0259918650373, 19.047333333333334 433.1413251983706, 19.23 433.37199186503733 C 19.412666666666667 433.60265853170404, 19.514666666666663 433.916658531704, 19.535999999999998 434.31399186503734 C 19.546666666666667 434.47399186503736, 19.55333333333333 434.632658531704, 19.555999999999997 434.78999186503734 C 19.558666666666664 434.94732519837066, 19.557333333333332 435.100658531704, 19.552 435.2499918650374 C 19.546666666666667 435.3993251983707, 19.538666666666668 435.5393251983707, 19.528 435.66999186503733 C 19.482666666666667 436.168658531704, 19.353333333333335 436.53399186503736, 19.14 436.76599186503734 C 18.926666666666666 436.9979918650373, 18.581333333333333 437.128658531704, 18.104 437.15799186503733 L 18.104 436.26599186503734 C 18.21333333333333 436.236658531704, 18.296 436.18399186503734, 18.352 436.1079918650373 C 18.408 436.0319918650373, 18.44 435.932658531704, 18.448 435.8099918650374 C 18.471999999999998 435.51932519837067, 18.485999999999997 435.2579918650373, 18.49 435.0259918650373 C 18.494 434.79399186503736, 18.485333333333333 434.57265853170406, 18.464 434.36199186503734 C 18.447999999999997 434.20732519837065, 18.396666666666665 434.09199186503736, 18.31 434.01599186503734 C 18.223333333333333 433.93999186503737, 18.090666666666664 433.9019918650374, 17.912 433.90199186503736 C 17.901333333333334 433.9019918650374, 17.890666666666668 433.9033251983707, 17.88 433.9059918650373 C 17.86933333333333 433.90865853170396, 17.86 433.91132519837066, 17.852 433.91399186503736 Z M 17.852 431.62199186503733 L 17.852 430.68999186503737 L 19.439999999999998 430.68999186503737 L 19.439999999999998 431.62199186503733 Z M 21.944 437.08999186503735 L 21.944 430.68999186503737 L 23.003999999999998 430.68999186503737 L 23.003999999999998 437.08999186503735 Z " stroke="none" fill-rule="nonzero" fill="#000000" fill-opacity="1" transform="matrix(1,0,0,1,5.05,13.314)" id="text5 l" />
  <path d="M 0 423.54125880286944 L 10 423.54125880286944 L 10 425.04125880286944 L 0 425.04125880286944 Z " stroke="none" fill-rule="evenodd" fill="#000000" fill-opacity="1" transform="matrix(1,0,0,1,5.05,13.314)" id="mark6 l" />
  <path d="M 0 408.91052574070153 L 10 408.91052574070153 L 10 410.41052574070153 L 0 410.41052574070153 Z " stroke="none" fill-rule="evenodd" fill="#000000" fill-opacity="1" transform="matrix(1,0,0,1,5.05,13.314)" id="mark7 l" />
  <path d="M 0 394.2797926785336 L 10 394.2797926785336 L 10 395.7797926785336 L 0 395.7797926785336 Z " stroke="none" fill-rule="evenodd" fill="#000000" fill-opacity="1" transform="matrix(1,0,0,1,5.05,13.314)" id="mark8 l" />
  <path d="M 0 379.6490596163657 L 10 379.6490596163657 L 10 381.1490596163657 L 0 381.1490596163657 Z " stroke="none" fill-rule="evenodd" fill="#000000" fill-opacity="1" transform="matrix(1,0,0,1,5.05,13.314)" id="mark9 l" />
  <path d="M 0 365.01832655419776 L 25 365.01832655419776 L 25 366.51832655419776 L 0 366.51832655419776 Z " stroke="none" fill-rule="evenodd" fill="#000000" fill-opacity="1" transform="matrix(1,0,0,1,5.05,13.314)" id="mark10 l" />
  <path d="M 14.323999999999998 363.96832655419774 L 14.323999999999998 358.5243265541977 L 13.871999999999998 358.5243265541977 L 13.839999999999998 358.14432655419773 L 14.543999999999999 357.56832655419777 L 15.424 357.56832655419777 L 15.424 363.96832655419774 Z M 16.196 362.55632655419777 C 16.188000000000002 362.12699322086445, 16.182666666666666 361.71032655419776, 16.18 361.30632655419777 C 16.177333333333333 360.90232655419777, 16.177999999999997 360.50699322086444, 16.182 360.12032655419773 C 16.186 359.7336598875311, 16.190666666666665 359.3523265541977, 16.196 358.9763265541977 C 16.209333333333333 358.5363265541978, 16.334000000000003 358.1909932208644, 16.57 357.9403265541977 C 16.805999999999997 357.6896598875311, 17.142666666666663 357.54432655419777, 17.58 357.50432655419775 L 17.58 358.3923265541977 C 17.382666666666665 358.4483265541977, 17.281333333333333 358.57765988753107, 17.276 358.78032655419776 C 17.262666666666668 359.1509932208644, 17.253333333333334 359.4989932208644, 17.248 359.82432655419774 C 17.242666666666665 360.1496598875311, 17.24 360.46632655419774, 17.24 360.7743265541977 C 17.24 361.0823265541977, 17.242666666666665 361.3969932208644, 17.248 361.71832655419774 C 17.253333333333334 362.0396598875311, 17.262666666666668 362.3829932208644, 17.276 362.7483265541977 C 17.281333333333333 362.95632655419774, 17.382666666666665 363.08832655419775, 17.58 363.14432655419773 L 17.58 364.03232655419777 C 17.142666666666663 363.9923265541978, 16.805999999999997 363.84632655419773, 16.57 363.5943265541977 C 16.334000000000003 363.3423265541977, 16.209333333333333 362.99632655419776, 16.196 362.55632655419777 Z M 18.084 364.03232655419777 L 18.084 363.14032655419777 C 18.268 363.08699322086443, 18.366666666666667 362.9629932208644, 18.38 362.76832655419776 C 18.398666666666667 362.30165988753106, 18.410666666666668 361.8529932208644, 18.416 361.42232655419775 C 18.421333333333333 360.9916598875311, 18.421333333333333 360.5609932208644, 18.416 360.1303265541977 C 18.410666666666668 359.6996598875311, 18.398666666666667 359.2469932208644, 18.38 358.7723265541977 C 18.374666666666666 358.57765988753107, 18.276 358.4509932208644, 18.084 358.3923265541977 L 18.084 357.50432655419775 C 18.513333333333335 357.54432655419777, 18.846666666666668 357.6896598875311, 19.084 357.9403265541977 C 19.321333333333335 358.1909932208644, 19.445333333333334 358.5363265541978, 19.456 358.9763265541977 C 19.46666666666667 359.2909932208644, 19.474666666666668 359.60099322086444, 19.48 359.90632655419773 C 19.485333333333333 360.2116598875311, 19.488 360.5123265541977, 19.488 360.8083265541977 C 19.488 361.1043265541977, 19.485333333333333 361.39765988753106, 19.48 361.6883265541978 C 19.474666666666668 361.9789932208644, 19.46666666666667 362.26832655419776, 19.456 362.55632655419777 C 19.439999999999998 363.00699322086444, 19.311999999999998 363.3556598875311, 19.072 363.60232655419776 C 18.832 363.84899322086443, 18.502666666666666 363.9923265541978, 18.084 364.03232655419777 Z M 21.944 363.96832655419774 L 21.944 357.56832655419777 L 23.003999999999998 357.56832655419777 L 23.003999999999998 363.96832655419774 Z " stroke="none" fill-rule="nonzero" fill="#000000" fill-opacity="1" transform="matrix(1,0,0,1,5.05,13.314)" id="text10 l" />
  <path d="M 0 350.38759349202985 L 10 350.38759349202985 L 10 351.88759349202985 L 0 351.88759349202985 Z " stroke="none" fill-rule="evenodd" fill="#000000" fill-opacity="1" transform="matrix(1,0,0,1,5.05,13.314)" id="mark11 l" />
  <path d="M 0 335.75686042986194 L 10 335.75686042986194 L 10 337.25686042986194 L 0 337.25686042986194 Z " stroke="none" fill-rule="evenodd" fill="#000000" fill-opacity="1" transform="matrix(1,0,0,1,5.05,13.314)" id="mark12 l" />
  <path d="M 0 321.12612736769404 L 10 321.12612736769404 L 10 322.62612736769404 L 0 322.62612736769404 Z " stroke="none" fill-rule="evenodd" fill="#000000" fill-opacity="1" transform="matrix(1,0,0,1,5.05,13.314)" id="mark13 l" />
  <path d="M 0 306.49539430552613 L 10 306.49539430552613 L 10 307.99539430552613 L 0 307.99539430552613 Z " stroke="none" fill-rule="evenodd" fill="#000000" fill-opacity="1" transform="matrix(1,0,0,1,5.05,13.314)" id="mark14 l" />
  <path d="M 0 291.8646612433582 L 25 291.8646612433582 L 25 293.3646612433582 L 0 293.3646612433582 Z " stroke="none" fill-rule="evenodd" fill="#000000" fill-opacity="1" transform="matrix(1,0,0,1,5.05,13.314)" id="mark15 l" />
  <path d="M 14.331999999999999 290.78266124335823 L 14.331999999999999 285.3386612433582 L 13.879999999999999 285.3386612433582 L 13.847999999999999 284.9586612433582 L 14.552 284.38266124335826 L 15.432 284.38266124335826 L 15.432 290.78266124335823 Z M 16.18 289.36666124335824 C 16.174666666666667 289.1933279100249, 16.173333333333332 289.0539945766916, 16.176 288.94866124335823 C 16.178666666666665 288.84332791002487, 16.181333333333335 288.7413279100249, 16.183999999999997 288.64266124335825 L 17.264 288.64266124335825 C 17.256 288.7199945766916, 17.25 288.8159945766916, 17.246 288.93066124335826 C 17.241999999999997 289.0453279100249, 17.240666666666666 289.15599457669157, 17.241999999999997 289.26266124335825 C 17.243333333333332 289.36932791002494, 17.246666666666666 289.4493279100249, 17.252 289.50266124335826 C 17.262666666666668 289.6226612433582, 17.297333333333334 289.7206612433582, 17.355999999999998 289.79666124335824 C 17.414666666666665 289.87266124335827, 17.497333333333334 289.92666124335824, 17.604 289.9586612433582 L 17.604 290.8506612433582 C 17.110666666666663 290.8133279100249, 16.75333333333333 290.67866124335825, 16.532 290.4466612433582 C 16.310666666666666 290.2146612433582, 16.19333333333333 289.85466124335824, 16.18 289.36666124335824 Z M 16.279999999999998 288.0306612433582 L 16.279999999999998 284.38266124335826 L 17.348 284.38266124335826 L 17.348 288.0306612433582 Z M 17.852 287.60666124335825 L 17.852 286.8506612433582 C 17.929333333333332 286.8106612433582, 18.014666666666667 286.7786612433582, 18.107999999999997 286.7546612433582 C 18.20133333333333 286.7306612433582, 18.301333333333332 286.7186612433582, 18.407999999999998 286.7186612433582 C 18.773333333333333 286.7186612433582, 19.047333333333334 286.83399457669157, 19.23 287.0646612433582 C 19.412666666666667 287.29532791002487, 19.514666666666663 287.6093279100249, 19.535999999999998 288.0066612433582 C 19.546666666666667 288.16666124335825, 19.55333333333333 288.3253279100249, 19.555999999999997 288.4826612433582 C 19.558666666666664 288.63999457669155, 19.557333333333332 288.7933279100249, 19.552 288.94266124335826 C 19.546666666666667 289.0919945766916, 19.538666666666668 289.2319945766916, 19.528 289.3626612433582 C 19.482666666666667 289.8613279100249, 19.353333333333335 290.2266612433582, 19.14 290.4586612433582 C 18.926666666666666 290.69066124335825, 18.581333333333333 290.8213279100249, 18.104 290.8506612433582 L 18.104 289.9586612433582 C 18.21333333333333 289.9293279100249, 18.296 289.8766612433582, 18.352 289.8006612433582 C 18.408 289.72466124335824, 18.44 289.6253279100249, 18.448 289.50266124335826 C 18.471999999999998 289.21199457669155, 18.485999999999997 288.95066124335824, 18.49 288.7186612433582 C 18.494 288.48666124335824, 18.485333333333333 288.2653279100249, 18.464 288.0546612433582 C 18.447999999999997 287.8999945766916, 18.396666666666665 287.78466124335824, 18.31 287.7086612433582 C 18.223333333333333 287.63266124335826, 18.090666666666664 287.59466124335825, 17.912 287.59466124335825 C 17.901333333333334 287.59466124335825, 17.890666666666668 287.59599457669157, 17.88 287.5986612433582 C 17.86933333333333 287.6013279100249, 17.86 287.60399457669155, 17.852 287.60666124335825 Z M 17.852 285.3146612433582 L 17.852 284.38266124335826 L 19.439999999999998 284.38266124335826 L 19.439999999999998 285.3146612433582 Z M 21.944 290.78266124335823 L 21.944 284.38266124335826 L 23.003999999999998 284.38266124335826 L 23.003999999999998 290.78266124335823 Z " stroke="none" fill-rule="nonzero" fill="#000000" fill-opacity="1" transform="matrix(1,0,0,1,5.05,13.314)" id="text15 l" />
  <path d="M 0 277.2339281811903 L 10 277.2339281811903 L 10 278.7339281811903 L 0 278.7339281811903 Z " stroke="none" fill-rule="evenodd" fill="#000000" fill-opacity="1" transform="matrix(1,0,0,1,5.05,13.314)" id="mark16 l" />
  <path d="M 0 262.6031951190224 L 10 262.6031951190224 L 10 264.1031951190224 L 0 264.1031951190224 Z " stroke="none" fill-rule="evenodd" fill="#000000" fill-opacity="1" transform="matrix(1,0,0,1,5.05,13.314)" id="mark17 l" />
  <path d="M 0 247.9724620568545 L 10 247.9724620568545 L 10 249.4724620568545 L 0 249.4724620568545 Z " stroke="none" fill-rule="evenodd" fill="#000000" fill-opacity="1" transform="matrix(1,0,0,1,5.05,13.314)" id="mark18 l" />
  <path d="M 0 233.3417289946866 L 10 233.3417289946866 L 10 234.8417289946866 L 0 234.8417289946866 Z " stroke="none" fill-rule="evenodd" fill="#000000" fill-opacity="1" transform="matrix(1,0,0,1,5.05,13.314)" id="mark19 l" />
  <path d="M 0 218.71099593251864 L 25 218.71099593251864 L 25 220.21099593251864 L 0 220.21099593251864 Z " stroke="none" fill-rule="evenodd" fill="#000000" fill-opacity="1" transform="matrix(1,0,0,1,5.05,13.314)" id="mark20 l" />
  <path d="M 12.319999999999999 217.66099593251866 C 12.317333333333334 217.562329265852, 12.315333333333331 217.47366259918533, 12.313999999999998 217.39499593251867 C 12.312666666666665 217.316329265852, 12.311333333333334 217.242329265852, 12.309999999999999 217.17299593251866 C 12.308666666666667 217.10366259918533, 12.308 217.03166259918532, 12.308 216.95699593251865 C 12.308 216.88232926585198, 12.308 216.79766259918534, 12.308 216.70299593251866 C 12.308 216.60832926585198, 12.309333333333335 216.49699593251864, 12.312 216.36899593251866 C 12.32 216.0756625991853, 12.37 215.8136625991853, 12.462 215.58299593251866 C 12.554 215.352329265852, 12.687999999999999 215.146329265852, 12.863999999999999 214.96499593251866 C 13.04 214.78366259918533, 13.257333333333333 214.622329265852, 13.515999999999998 214.48099593251865 L 14.047999999999998 214.19299593251867 C 14.234666666666666 214.09166259918533, 14.354 213.9696625991853, 14.405999999999999 213.82699593251866 C 14.457999999999998 213.684329265852, 14.488 213.55032926585199, 14.495999999999999 213.42499593251867 C 14.506666666666664 213.278329265852, 14.512666666666664 213.12166259918533, 14.514 212.95499593251867 C 14.51533333333333 212.788329265852, 14.511999999999997 212.63166259918535, 14.504 212.48499593251867 C 14.498666666666665 212.38099593251866, 14.468666666666666 212.29499593251865, 14.413999999999998 212.22699593251866 C 14.359333333333332 212.15899593251868, 14.279999999999998 212.110329265852, 14.175999999999998 212.08099593251865 L 14.175999999999998 211.19299593251867 C 14.663999999999998 211.22499593251868, 15.014 211.35632926585203, 15.225999999999999 211.58699593251865 C 15.437999999999999 211.81766259918533, 15.554666666666666 212.17832926585197, 15.575999999999999 212.66899593251867 C 15.578666666666663 212.7329959325187, 15.580666666666666 212.798329265852, 15.581999999999999 212.86499593251867 C 15.583333333333332 212.93166259918533, 15.584 212.996329265852, 15.584 213.05899593251866 C 15.584 213.1216625991853, 15.583333333333332 213.1836625991853, 15.581999999999999 213.24499593251866 C 15.580666666666666 213.30632926585199, 15.578666666666663 213.366329265852, 15.575999999999999 213.42499593251867 C 15.565333333333331 213.710329265852, 15.512 213.95699593251868, 15.415999999999999 214.16499593251865 C 15.32 214.37299593251868, 15.19 214.55299593251868, 15.026 214.70499593251867 C 14.862 214.85699593251866, 14.672 214.99299593251862, 14.456 215.11299593251866 L 13.851999999999999 215.44099593251866 C 13.737333333333332 215.50232926585198, 13.647333333333332 215.586329265852, 13.581999999999999 215.69299593251867 C 13.516666666666666 215.79966259918533, 13.469999999999999 215.91299593251864, 13.441999999999998 216.03299593251865 C 13.413999999999998 216.15299593251865, 13.399999999999999 216.26499593251867, 13.399999999999999 216.36899593251866 L 13.399999999999999 217.66099593251866 Z M 12.328 213.62099593251867 C 12.322666666666667 213.5036625991853, 12.318666666666665 213.38899593251864, 12.315999999999999 213.27699593251867 C 12.313333333333333 213.16499593251865, 12.311333333333334 213.05899593251866, 12.309999999999999 212.95899593251866 C 12.308666666666667 212.85899593251867, 12.309333333333335 212.76232926585197, 12.312 212.66899593251867 C 12.330666666666666 212.18099593251867, 12.447333333333333 211.82166259918534, 12.661999999999999 211.59099593251867 C 12.876666666666665 211.360329265852, 13.213333333333331 211.22766259918532, 13.671999999999999 211.19299593251867 L 13.671999999999999 212.08499593251867 C 13.576 212.114329265852, 13.505333333333333 212.16099593251866, 13.459999999999999 212.22499593251865 C 13.414666666666665 212.28899593251865, 13.390666666666664 212.36632926585196, 13.387999999999998 212.45699593251865 C 13.382666666666665 212.66499593251865, 13.379333333333333 212.858329265852, 13.378 213.03699593251866 C 13.376666666666667 213.21566259918532, 13.381333333333334 213.410329265852, 13.392 213.62099593251867 Z M 13.904 217.66099593251866 L 13.904 216.72899593251867 L 15.5 216.72899593251867 L 15.5 217.66099593251866 Z M 16.196 216.24899593251865 C 16.188000000000002 215.81966259918534, 16.182666666666666 215.40299593251865, 16.18 214.99899593251865 C 16.177333333333333 214.59499593251866, 16.177999999999997 214.19966259918533, 16.182 213.81299593251865 C 16.186 213.42632926585196, 16.190666666666665 213.04499593251865, 16.196 212.66899593251867 C 16.209333333333333 212.22899593251867, 16.334000000000003 211.88366259918536, 16.57 211.63299593251867 C 16.805999999999997 211.38232926585198, 17.142666666666663 211.23699593251865, 17.58 211.19699593251866 L 17.58 212.08499593251867 C 17.382666666666665 212.14099593251865, 17.281333333333333 212.270329265852, 17.276 212.47299593251867 C 17.262666666666668 212.84366259918534, 17.253333333333334 213.19166259918532, 17.248 213.51699593251865 C 17.242666666666665 213.842329265852, 17.24 214.15899593251868, 17.24 214.46699593251867 C 17.24 214.77499593251866, 17.242666666666665 215.08966259918532, 17.248 215.41099593251866 C 17.253333333333334 215.732329265852, 17.262666666666668 216.0756625991853, 17.276 216.44099593251866 C 17.281333333333333 216.6489959325187, 17.382666666666665 216.7809959325187, 17.58 216.83699593251865 L 17.58 217.72499593251865 C 17.142666666666663 217.68499593251863, 16.805999999999997 217.53899593251867, 16.57 217.28699593251866 C 16.334000000000003 217.03499593251865, 16.209333333333333 216.68899593251865, 16.196 216.24899593251865 Z M 18.084 217.72499593251865 L 18.084 216.83299593251866 C 18.268 216.77966259918534, 18.366666666666667 216.65566259918535, 18.38 216.46099593251867 C 18.398666666666667 215.994329265852, 18.410666666666668 215.54566259918533, 18.416 215.11499593251867 C 18.421333333333333 214.684329265852, 18.421333333333333 214.25366259918533, 18.416 213.82299593251867 C 18.410666666666668 213.392329265852, 18.398666666666667 212.93966259918534, 18.38 212.46499593251866 C 18.374666666666666 212.270329265852, 18.276 212.14366259918535, 18.084 212.08499593251867 L 18.084 211.19699593251866 C 18.513333333333335 211.23699593251865, 18.846666666666668 211.38232926585198, 19.084 211.63299593251867 C 19.321333333333335 211.88366259918536, 19.445333333333334 212.22899593251867, 19.456 212.66899593251867 C 19.46666666666667 212.98366259918532, 19.474666666666668 213.29366259918532, 19.48 213.59899593251865 C 19.485333333333333 213.90432926585197, 19.488 214.20499593251864, 19.488 214.50099593251866 C 19.488 214.79699593251866, 19.485333333333333 215.090329265852, 19.48 215.38099593251866 C 19.474666666666668 215.6716625991853, 19.46666666666667 215.96099593251864, 19.456 216.24899593251865 C 19.439999999999998 216.69966259918533, 19.311999999999998 217.048329265852, 19.072 217.29499593251865 C 18.832 217.54166259918532, 18.502666666666666 217.68499593251863, 18.084 217.72499593251865 Z M 21.944 217.66099593251866 L 21.944 211.26099593251865 L 23.003999999999998 211.26099593251865 L 23.003999999999998 217.66099593251866 Z " stroke="none" fill-rule="nonzero" fill="#000000" fill-opacity="1" transform="matrix(1,0,0,1,5.05,13.314)" id="text20 l" />
  <path d="M 0 204.08026287035074 L 10 204.08026287035074 L 10 205.58026287035074 L 0 205.58026287035074 Z " stroke="none" fill-rule="evenodd" fill="#000000" fill-opacity="1" transform="matrix(1,0,0,1,5.05,13.314)" id="mark21 l" />
  <path d="M 0 189.44952980818283 L 10 189.44952980818283 L 10 190.94952980818283 L 0 190.94952980818283 Z " stroke="none" fill-rule="evenodd" fill="#000000" fill-opacity="1" transform="matrix(1,0,0,1,5.05,13.314)" id="mark22 l" />
  <path d="M 0 174.81879674601493 L 10 174.81879674601493 L 10 176.31879674601493 L 0 176.31879674601493 Z " stroke="none" fill-rule="evenodd" fill="#000000" fill-opacity="1" transform="matrix(1,0,0,1,5.05,13.314)" id="mark23 l" />
  <path d="M 0 160.18806368384702 L 10 160.18806368384702 L 10 161.68806368384702 L 0 161.68806368384702 Z " stroke="none" fill-rule="evenodd" fill="#000000" fill-opacity="1" transform="matrix(1,0,0,1,5.05,13.314)" id="mark24 l" />
  <path d="M 0 145.5573306216791 L 25 145.5573306216791 L 25 147.0573306216791 L 0 147.0573306216791 Z " stroke="none" fill-rule="evenodd" fill="#000000" fill-opacity="1" transform="matrix(1,0,0,1,5.05,13.314)" id="mark25 l" />
  <path d="M 12.328 144.50733062167913 C 12.325333333333333 144.40866395501246, 12.323333333333332 144.3199972883458, 12.322 144.24133062167914 C 12.320666666666666 144.16266395501248, 12.319333333333333 144.08866395501246, 12.318 144.01933062167913 C 12.316666666666666 143.9499972883458, 12.315999999999999 143.8779972883458, 12.316 143.80333062167912 C 12.315999999999999 143.72866395501245, 12.315999999999999 143.6439972883458, 12.316 143.54933062167913 C 12.315999999999999 143.45466395501248, 12.317333333333334 143.34333062167914, 12.32 143.21533062167913 C 12.328 142.9219972883458, 12.378 142.6599972883458, 12.47 142.42933062167913 C 12.562000000000001 142.19866395501245, 12.696 141.99266395501246, 12.872 141.81133062167913 C 13.048 141.6299972883458, 13.265333333333334 141.46866395501246, 13.524000000000001 141.32733062167912 L 14.056000000000001 141.03933062167914 C 14.242666666666668 140.9379972883458, 14.362000000000002 140.81599728834578, 14.414 140.67333062167913 C 14.466000000000001 140.53066395501247, 14.495999999999999 140.39666395501246, 14.504 140.27133062167914 C 14.514666666666667 140.12466395501247, 14.520666666666667 139.9679972883458, 14.522 139.80133062167914 C 14.523333333333333 139.63466395501248, 14.520000000000001 139.47799728834582, 14.512 139.33133062167914 C 14.506666666666666 139.22733062167913, 14.476666666666667 139.14133062167912, 14.422 139.07333062167913 C 14.367333333333335 139.00533062167915, 14.288 138.95666395501246, 14.184000000000001 138.92733062167912 L 14.184000000000001 138.03933062167914 C 14.672 138.07133062167915, 15.022000000000002 138.20266395501247, 15.234 138.43333062167912 C 15.446000000000002 138.6639972883458, 15.562666666666667 139.02466395501244, 15.584 139.51533062167914 C 15.586666666666668 139.57933062167916, 15.588666666666668 139.64466395501248, 15.59 139.71133062167914 C 15.591333333333335 139.7779972883458, 15.592000000000002 139.84266395501248, 15.592 139.90533062167913 C 15.592000000000002 139.96799728834577, 15.591333333333335 140.02999728834578, 15.59 140.09133062167913 C 15.588666666666668 140.15266395501246, 15.586666666666668 140.21266395501246, 15.584 140.27133062167914 C 15.573333333333332 140.55666395501248, 15.52 140.80333062167912, 15.424 141.01133062167912 C 15.328 141.21933062167912, 15.197999999999999 141.39933062167913, 15.033999999999999 141.55133062167914 C 14.87 141.70333062167913, 14.68 141.83933062167912, 14.464 141.95933062167913 L 13.86 142.28733062167913 C 13.745333333333335 142.34866395501246, 13.655333333333335 142.43266395501246, 13.59 142.53933062167914 C 13.524666666666668 142.6459972883458, 13.478000000000002 142.7593306216791, 13.45 142.87933062167912 C 13.422 142.99933062167912, 13.408 143.11133062167912, 13.408 143.21533062167913 L 13.408 144.50733062167913 Z M 12.336 140.46733062167914 C 12.330666666666666 140.3499972883458, 12.326666666666664 140.23533062167914, 12.324 140.12333062167914 C 12.321333333333332 140.01133062167915, 12.319333333333333 139.90533062167913, 12.318 139.80533062167913 C 12.316666666666666 139.70533062167914, 12.317333333333334 139.60866395501245, 12.32 139.51533062167914 C 12.338666666666668 139.02733062167914, 12.455333333333336 138.66799728834582, 12.67 138.43733062167914 C 12.884666666666668 138.20666395501246, 13.221333333333334 138.0739972883458, 13.68 138.03933062167914 L 13.68 138.93133062167914 C 13.584 138.96066395501245, 13.513333333333332 139.00733062167913, 13.468 139.07133062167912 C 13.422666666666668 139.13533062167912, 13.398666666666667 139.21266395501246, 13.396 139.30333062167912 C 13.390666666666666 139.51133062167912, 13.387333333333332 139.70466395501248, 13.386 139.88333062167914 C 13.384666666666666 140.0619972883458, 13.389333333333333 140.25666395501247, 13.4 140.46733062167914 Z M 13.911999999999999 144.50733062167913 L 13.911999999999999 143.57533062167914 L 15.508 143.57533062167914 L 15.508 144.50733062167913 Z M 16.18 143.09133062167913 C 16.174666666666667 142.91799728834582, 16.173333333333332 142.77866395501246, 16.176 142.67333062167913 C 16.178666666666665 142.5679972883458, 16.181333333333335 142.46599728834582, 16.183999999999997 142.36733062167914 L 17.264 142.36733062167914 C 17.256 142.44466395501246, 17.25 142.54066395501246, 17.246 142.65533062167913 C 17.241999999999997 142.7699972883458, 17.240666666666666 142.88066395501244, 17.241999999999997 142.98733062167912 C 17.243333333333332 143.0939972883458, 17.246666666666666 143.1739972883458, 17.252 143.22733062167913 C 17.262666666666668 143.34733062167913, 17.297333333333334 143.44533062167915, 17.355999999999998 143.52133062167914 C 17.414666666666665 143.59733062167913, 17.497333333333334 143.6513306216791, 17.604 143.68333062167912 L 17.604 144.57533062167914 C 17.110666666666663 144.53799728834582, 16.75333333333333 144.40333062167912, 16.532 144.17133062167912 C 16.310666666666666 143.93933062167912, 16.19333333333333 143.57933062167913, 16.18 143.09133062167913 Z M 16.279999999999998 141.75533062167912 L 16.279999999999998 138.10733062167913 L 17.348 138.10733062167913 L 17.348 141.75533062167912 Z M 17.852 141.33133062167914 L 17.852 140.57533062167914 C 17.929333333333332 140.53533062167915, 18.014666666666667 140.50333062167914, 18.107999999999997 140.47933062167914 C 18.20133333333333 140.45533062167914, 18.301333333333332 140.44333062167914, 18.407999999999998 140.44333062167914 C 18.773333333333333 140.44333062167914, 19.047333333333334 140.5586639550125, 19.23 140.78933062167914 C 19.412666666666667 141.0199972883458, 19.514666666666663 141.3339972883458, 19.535999999999998 141.73133062167912 C 19.546666666666667 141.89133062167912, 19.55333333333333 142.0499972883458, 19.555999999999997 142.20733062167912 C 19.558666666666664 142.36466395501247, 19.557333333333332 142.5179972883458, 19.552 142.66733062167913 C 19.546666666666667 142.81666395501244, 19.538666666666668 142.95666395501246, 19.528 143.08733062167914 C 19.482666666666667 143.5859972883458, 19.353333333333335 143.95133062167912, 19.14 144.18333062167912 C 18.926666666666666 144.41533062167912, 18.581333333333333 144.5459972883458, 18.104 144.57533062167914 L 18.104 143.68333062167912 C 18.21333333333333 143.6539972883458, 18.296 143.60133062167912, 18.352 143.52533062167913 C 18.408 143.44933062167914, 18.44 143.3499972883458, 18.448 143.22733062167913 C 18.471999999999998 142.93666395501245, 18.485999999999997 142.6753306216791, 18.49 142.44333062167914 C 18.494 142.2113306216791, 18.485333333333333 141.9899972883458, 18.464 141.77933062167912 C 18.447999999999997 141.62466395501247, 18.396666666666665 141.5093306216791, 18.31 141.43333062167912 C 18.223333333333333 141.35733062167913, 18.090666666666664 141.31933062167914, 17.912 141.31933062167914 C 17.901333333333334 141.31933062167914, 17.890666666666668 141.3206639550125, 17.88 141.32333062167913 C 17.86933333333333 141.32599728834577, 17.86 141.32866395501247, 17.852 141.33133062167914 Z M 17.852 139.03933062167914 L 17.852 138.10733062167913 L 19.439999999999998 138.10733062167913 L 19.439999999999998 139.03933062167914 Z M 21.944 144.50733062167913 L 21.944 138.10733062167913 L 23.003999999999998 138.10733062167913 L 23.003999999999998 144.50733062167913 Z " stroke="none" fill-rule="nonzero" fill="#000000" fill-opacity="1" transform="matrix(1,0,0,1,5.05,13.314)" id="text25 l" />
  <path d="M 0 130.9265975595112 L 10 130.9265975595112 L 10 132.4265975595112 L 0 132.4265975595112 Z " stroke="none" fill-rule="evenodd" fill="#000000" fill-opacity="1" transform="matrix(1,0,0,1,5.05,13.314)" id="mark26 l" />
  <path d="M 0 116.2958644973433 L 10 116.2958644973433 L 10 117.7958644973433 L 0 117.7958644973433 Z " stroke="none" fill-rule="evenodd" fill="#000000" fill-opacity="1" transform="matrix(1,0,0,1,5.05,13.314)" id="mark27 l" />
  <path d="M 0 101.66513143517534 L 10 101.66513143517534 L 10 103.16513143517534 L 0 103.16513143517534 Z " stroke="none" fill-rule="evenodd" fill="#000000" fill-opacity="1" transform="matrix(1,0,0,1,5.05,13.314)" id="mark28 l" />
  <path d="M 0 87.03439837300743 L 10 87.03439837300743 L 10 88.53439837300743 L 0 88.53439837300743 Z " stroke="none" fill-rule="evenodd" fill="#000000" fill-opacity="1" transform="matrix(1,0,0,1,5.05,13.314)" id="mark29 l" />
  <path d="M 0 72.40366531083953 L 25 72.40366531083953 L 25 73.90366531083953 L 0 73.90366531083953 Z " stroke="none" fill-rule="evenodd" fill="#000000" fill-opacity="1" transform="matrix(1,0,0,1,5.05,13.314)" id="mark30 l" />
  <path d="M 12.223999999999998 69.93766531083953 C 12.221333333333334 69.8363319775062, 12.219333333333333 69.7523319775062, 12.218 69.68566531083952 C 12.216666666666667 69.61899864417286, 12.216666666666667 69.55099864417286, 12.218 69.48166531083953 C 12.219333333333333 69.4123319775062, 12.221333333333334 69.32299864417287, 12.223999999999998 69.21366531083953 L 13.303999999999998 69.21366531083953 L 13.303999999999998 70.07766531083954 C 13.303999999999998 70.31499864417287, 13.417333333333332 70.46566531083954, 13.643999999999998 70.52966531083953 L 13.643999999999998 71.42166531083953 C 13.155999999999999 71.38433197750619, 12.800666666666665 71.24966531083953, 12.578 71.01766531083953 C 12.355333333333334 70.78566531083953, 12.237333333333332 70.42566531083953, 12.223999999999998 69.93766531083953 Z M 12.292 65.88566531083953 L 12.292 64.95366531083953 L 15.536 64.95366531083953 L 15.536 65.88566531083953 Z M 14.143999999999998 70.53366531083954 C 14.367999999999999 70.47766531083954, 14.483999999999998 70.32699864417286, 14.491999999999999 70.08166531083953 C 14.497333333333334 69.87899864417287, 14.500666666666666 69.6963319775062, 14.501999999999999 69.53366531083954 C 14.503333333333332 69.37099864417286, 14.498666666666665 69.21366531083953, 14.488 69.06166531083953 C 14.48 68.90433197750619, 14.431999999999999 68.77099864417286, 14.344 68.66166531083954 C 14.256 68.5523319775062, 14.089333333333332 68.50033197750619, 13.844 68.50566531083953 L 13.096 68.51366531083953 L 13.068 67.62166531083953 L 14.027999999999999 66.23766531083953 L 15.216 66.23766531083953 L 14.248 67.58966531083954 L 14.28 67.58966531083954 C 14.712 67.58966531083954, 15.028666666666666 67.7123319775062, 15.229999999999999 67.95766531083953 C 15.431333333333333 68.20299864417287, 15.544 68.58033197750619, 15.568 69.08966531083954 C 15.57333333333333 69.16166531083952, 15.576666666666664 69.23366531083953, 15.578 69.30566531083953 C 15.57933333333333 69.37766531083953, 15.579999999999998 69.4483319775062, 15.579999999999998 69.51766531083953 C 15.579999999999998 69.58699864417287, 15.57933333333333 69.6563319775062, 15.578 69.72566531083953 C 15.576666666666664 69.79499864417286, 15.57333333333333 69.86566531083953, 15.568 69.93766531083953 C 15.549333333333333 70.43366531083953, 15.428666666666665 70.7983319775062, 15.206 71.03166531083953 C 14.983333333333334 71.26499864417286, 14.630666666666666 71.39499864417287, 14.148 71.42166531083953 Z M 16.196 69.94166531083953 C 16.188000000000002 69.5123319775062, 16.182666666666666 69.09566531083954, 16.18 68.69166531083953 C 16.177333333333333 68.28766531083953, 16.177999999999997 67.8923319775062, 16.182 67.50566531083953 C 16.186 67.11899864417286, 16.190666666666665 66.73766531083953, 16.196 66.36166531083953 C 16.209333333333333 65.92166531083953, 16.334000000000003 65.57633197750619, 16.57 65.32566531083953 C 16.805999999999997 65.07499864417287, 17.142666666666663 64.92966531083954, 17.58 64.88966531083953 L 17.58 65.77766531083954 C 17.382666666666665 65.83366531083954, 17.281333333333333 65.96299864417287, 17.276 66.16566531083953 C 17.262666666666668 66.5363319775062, 17.253333333333334 66.88433197750619, 17.248 67.20966531083953 C 17.242666666666665 67.53499864417286, 17.24 67.85166531083952, 17.24 68.15966531083953 C 17.24 68.46766531083954, 17.242666666666665 68.7823319775062, 17.248 69.10366531083953 C 17.253333333333334 69.42499864417286, 17.262666666666668 69.7683319775062, 17.276 70.13366531083953 C 17.281333333333333 70.34166531083953, 17.382666666666665 70.47366531083952, 17.58 70.52966531083953 L 17.58 71.41766531083952 C 17.142666666666663 71.37766531083953, 16.805999999999997 71.23166531083953, 16.57 70.97966531083954 C 16.334000000000003 70.72766531083954, 16.209333333333333 70.38166531083954, 16.196 69.94166531083953 Z M 18.084 71.41766531083952 L 18.084 70.52566531083953 C 18.268 70.4723319775062, 18.366666666666667 70.34833197750619, 18.38 70.15366531083953 C 18.398666666666667 69.68699864417286, 18.410666666666668 69.23833197750619, 18.416 68.80766531083952 C 18.421333333333333 68.37699864417287, 18.421333333333333 67.9463319775062, 18.416 67.51566531083954 C 18.410666666666668 67.08499864417287, 18.398666666666667 66.6323319775062, 18.38 66.15766531083953 C 18.374666666666666 65.96299864417287, 18.276 65.8363319775062, 18.084 65.77766531083954 L 18.084 64.88966531083953 C 18.513333333333335 64.92966531083954, 18.846666666666668 65.07499864417287, 19.084 65.32566531083953 C 19.321333333333335 65.57633197750619, 19.445333333333334 65.92166531083953, 19.456 66.36166531083953 C 19.46666666666667 66.6763319775062, 19.474666666666668 66.9863319775062, 19.48 67.29166531083953 C 19.485333333333333 67.59699864417287, 19.488 67.89766531083953, 19.488 68.19366531083953 C 19.488 68.48966531083954, 19.485333333333333 68.78299864417286, 19.48 69.07366531083953 C 19.474666666666668 69.3643319775062, 19.46666666666667 69.65366531083953, 19.456 69.94166531083953 C 19.439999999999998 70.39233197750619, 19.311999999999998 70.74099864417286, 19.072 70.98766531083953 C 18.832 71.2343319775062, 18.502666666666666 71.37766531083953, 18.084 71.41766531083952 Z M 21.944 71.35366531083953 L 21.944 64.95366531083953 L 23.003999999999998 64.95366531083953 L 23.003999999999998 71.35366531083953 Z " stroke="none" fill-rule="nonzero" fill="#000000" fill-opacity="1" transform="matrix(1,0,0,1,5.05,13.314)" id="text30 l" />
  <path d="M 0 57.77293224867162 L 10 57.77293224867162 L 10 59.27293224867162 L 0 59.27293224867162 Z " stroke="none" fill-rule="evenodd" fill="#000000" fill-opacity="1" transform="matrix(1,0,0,1,5.05,13.314)" id="mark31 l" />
  <path d="M 0 43.14219918650372 L 10 43.14219918650372 L 10 44.64219918650372 L 0 44.64219918650372 Z " stroke="none" fill-rule="evenodd" fill="#000000" fill-opacity="1" transform="matrix(1,0,0,1,5.05,13.314)" id="mark32 l" />
  <path d="M 0 28.51146612433581 L 10 28.51146612433581 L 10 30.01146612433581 L 0 30.01146612433581 Z " stroke="none" fill-rule="evenodd" fill="#000000" fill-opacity="1" transform="matrix(1,0,0,1,5.05,13.314)" id="mark33 l" />
  <path d="M 0 13.880733062167906 L 10 13.880733062167906 L 10 15.380733062167906 L 0 15.380733062167906 Z " stroke="none" fill-rule="evenodd" fill="#000000" fill-opacity="1" transform="matrix(1,0,0,1,5.05,13.314)" id="mark34 l" />
  <path d="M 0 -0.75 L 25 -0.75 L 25 0.75 L 0 0.75 Z " stroke="none" fill-rule="evenodd" fill="#000000" fill-opacity="1" transform="matrix(1,0,0,1,5.05,13.314)" id="mark35 l" />
  <path d="M 12.232 -3.2479999999999998 C 12.229333333333333 -3.349333333333333, 12.227333333333334 -3.4333333333333336, 12.226 -3.5 C 12.224666666666668 -3.5666666666666664, 12.224666666666668 -3.6346666666666665, 12.226 -3.7039999999999997 C 12.227333333333334 -3.773333333333333, 12.229333333333333 -3.8626666666666667, 12.232 -3.972 L 13.312 -3.972 L 13.312 -3.1079999999999997 C 13.312 -2.8706666666666663, 13.425333333333333 -2.7199999999999998, 13.652 -2.6559999999999997 L 13.652 -1.7639999999999998 C 13.164 -1.801333333333333, 12.808666666666667 -1.9359999999999997, 12.586 -2.1679999999999997 C 12.363333333333333 -2.4, 12.245333333333335 -2.76, 12.232 -3.2479999999999998 Z M 12.3 -7.3 L 12.3 -8.232 L 15.544 -8.232 L 15.544 -7.3 Z M 14.152000000000001 -2.6519999999999997 C 14.376000000000001 -2.7079999999999997, 14.492 -2.8586666666666662, 14.5 -3.104 C 14.505333333333333 -3.3066666666666666, 14.508666666666667 -3.489333333333333, 14.51 -3.652 C 14.511333333333333 -3.8146666666666667, 14.506666666666668 -3.9719999999999995, 14.496 -4.124 C 14.488 -4.2813333333333325, 14.440000000000001 -4.414666666666666, 14.352 -4.524 C 14.264 -4.633333333333333, 14.097333333333335 -4.685333333333333, 13.852 -4.68 L 13.104 -4.672 L 13.076 -5.564 L 14.036 -6.9479999999999995 L 15.224 -6.9479999999999995 L 14.256 -5.596 L 14.288 -5.596 C 14.719999999999999 -5.596, 15.036666666666665 -5.473333333333333, 15.238 -5.228 C 15.439333333333334 -4.982666666666667, 15.552 -4.605333333333333, 15.576 -4.096 C 15.581333333333333 -4.024, 15.584666666666667 -3.952, 15.586 -3.88 C 15.587333333333333 -3.808, 15.588000000000001 -3.737333333333333, 15.588000000000001 -3.6679999999999997 C 15.588000000000001 -3.5986666666666665, 15.587333333333333 -3.529333333333333, 15.586 -3.46 C 15.584666666666667 -3.3906666666666667, 15.581333333333333 -3.3200000000000003, 15.576 -3.2479999999999998 C 15.557333333333334 -2.752, 15.436666666666667 -2.3873333333333333, 15.214 -2.154 C 14.991333333333333 -1.9206666666666665, 14.638666666666666 -1.7906666666666666, 14.156 -1.7639999999999998 Z M 16.18 -3.2479999999999998 C 16.174666666666667 -3.421333333333333, 16.173333333333332 -3.5606666666666666, 16.176 -3.666 C 16.178666666666665 -3.771333333333333, 16.181333333333335 -3.873333333333333, 16.183999999999997 -3.972 L 17.264 -3.972 C 17.256 -3.8946666666666667, 17.25 -3.7986666666666666, 17.246 -3.6839999999999997 C 17.241999999999997 -3.569333333333333, 17.240666666666666 -3.4586666666666663, 17.241999999999997 -3.352 C 17.243333333333332 -3.2453333333333334, 17.246666666666666 -3.1653333333333338, 17.252 -3.112 C 17.262666666666668 -2.992, 17.297333333333334 -2.8939999999999997, 17.355999999999998 -2.8179999999999996 C 17.414666666666665 -2.7419999999999995, 17.497333333333334 -2.6879999999999997, 17.604 -2.6559999999999997 L 17.604 -1.7639999999999998 C 17.110666666666663 -1.801333333333333, 16.75333333333333 -1.9359999999999997, 16.532 -2.1679999999999997 C 16.310666666666666 -2.4, 16.19333333333333 -2.76, 16.18 -3.2479999999999998 Z M 16.279999999999998 -4.584 L 16.279999999999998 -8.232 L 17.348 -8.232 L 17.348 -4.584 Z M 17.852 -5.008 L 17.852 -5.763999999999999 C 17.929333333333332 -5.804, 18.014666666666667 -5.836, 18.107999999999997 -5.86 C 18.20133333333333 -5.884, 18.301333333333332 -5.896, 18.407999999999998 -5.896 C 18.773333333333333 -5.896, 19.047333333333334 -5.780666666666667, 19.23 -5.55 C 19.412666666666667 -5.319333333333333, 19.514666666666663 -5.005333333333333, 19.535999999999998 -4.608 C 19.546666666666667 -4.448, 19.55333333333333 -4.289333333333333, 19.555999999999997 -4.132 C 19.558666666666664 -3.974666666666667, 19.557333333333332 -3.8213333333333335, 19.552 -3.6719999999999997 C 19.546666666666667 -3.522666666666667, 19.538666666666668 -3.3826666666666663, 19.528 -3.252 C 19.482666666666667 -2.753333333333333, 19.353333333333335 -2.388, 19.14 -2.1559999999999997 C 18.926666666666666 -1.9239999999999997, 18.581333333333333 -1.793333333333333, 18.104 -1.7639999999999998 L 18.104 -2.6559999999999997 C 18.21333333333333 -2.685333333333333, 18.296 -2.738, 18.352 -2.814 C 18.408 -2.89, 18.44 -2.9893333333333336, 18.448 -3.112 C 18.471999999999998 -3.4026666666666667, 18.485999999999997 -3.664, 18.49 -3.896 C 18.494 -4.128, 18.485333333333333 -4.349333333333333, 18.464 -4.5600000000000005 C 18.447999999999997 -4.714666666666667, 18.396666666666665 -4.83, 18.31 -4.906 C 18.223333333333333 -4.981999999999999, 18.090666666666664 -5.02, 17.912 -5.02 C 17.901333333333334 -5.02, 17.890666666666668 -5.018666666666666, 17.88 -5.016 C 17.86933333333333 -5.013333333333334, 17.86 -5.010666666666667, 17.852 -5.008 Z M 17.852 -7.3 L 17.852 -8.232 L 19.439999999999998 -8.232 L 19.439999999999998 -7.3 Z M 21.944 -1.8319999999999999 L 21.944 -8.232 L 23.003999999999998 -8.232 L 23.003999999999998 -1.8319999999999999 Z " stroke="none" fill-rule="nonzero" fill="#000000" fill-opacity="1" transform="matrix(1,0,0,1,5.05,13.314)" id="text35 l" />
  <path d="M -5 -13.264 L 30 -13.264 L 30 504.180924113709 L -5 504.180924113709 Z " stroke="#FF0000" stroke-opacity="1" stroke-width="0.1" stroke-linecap="butt" stroke-linejoin="miter" fill="none" transform="matrix(1,0,0,1,5.05,13.314)" />
</svg>