<?xml version="1.0" encoding="UTF-8"?>
<svg xmlns:xlink="http://www.w3.org/1999/xlink" viewBox="0 0 35.1 430.39807552577463" version="1.1" style="font-synthesis: none;" width="35.1mm" height="430.39807552577463mm" xmlns="http://www.w3.org/2000/svg">
  <defs />
  <style>	</style>
  <path d="M 0 0 L 35.1 0 L 35.1 430.39807552577463 L 0 430.39807552577463 Z " stroke="none" fill-rule="nonzero" fill="#FFFFFF" fill-opacity="1" transform="matrix(1,0,0,1,0,0)" />
  <path d="M 0 409.5160755257746 L 10 409.5160755257746 L 10 411.0160755257746 L 0 411.0160755257746 Z " stroke="none" fill-rule="evenodd" fill="#000000" fill-opacity="1" transform="matrix(1,0,0,1,5.05,13.314)" id="mark1 l" />
  <path d="M 0 395.3689694731617 L 10 395.3689694731617 L 10 396.8689694731617 L 0 396.8689694731617 Z " stroke="none" fill-rule="evenodd" fill="#000000" fill-opacity="1" transform="matrix(1,0,0,1,5.05,13.314)" id="mark2 l" />
  <path d="M 0 381.2218634205488 L 10 381.2218634205488 L 10 382.7218634205488 L 0 382.7218634205488 Z " stroke="none" fill-rule="evenodd" fill="#000000" fill-opacity="1" transform="matrix(1,0,0,1,5.05,13.314)" id="mark3 l" />
  <path d="M 0 367.0747573679359 L 10 367.0747573679359 L 10 368.5747573679359 L 0 368.5747573679359 Z " stroke="none" fill-rule="evenodd" fill="#000000" fill-opacity="1" transform="matrix(1,0,0,1,5.05,13.314)" id="mark4 l" />
  <path d="M 0 352.9276513153229 L 25 352.9276513153229 L 25 354.4276513153229 L 0 354.4276513153229 Z " stroke="none" fill-rule="evenodd" fill="#000000" fill-opacity="1" transform="matrix(1,0,0,1,5.05,13.314)" id="mark5 l" />
  <path d="M 16.18 350.42965131532293 C 16.174666666666667 350.2563179819896, 16.173333333333332 350.1169846486563, 16.176 350.0116513153229 C 16.178666666666665 349.90631798198956, 16.181333333333335 349.8043179819896, 16.183999999999997 349.70565131532294 L 17.264 349.70565131532294 C 17.256 349.7829846486562, 17.25 349.8789846486562, 17.246 349.99365131532295 C 17.241999999999997 350.10831798198956, 17.240666666666666 350.21898464865626, 17.241999999999997 350.32565131532294 C 17.243333333333332 350.43231798198957, 17.246666666666666 350.5123179819896, 17.252 350.56565131532295 C 17.262666666666668 350.6856513153229, 17.297333333333334 350.7836513153229, 17.355999999999998 350.85965131532294 C 17.414666666666665 350.9356513153229, 17.497333333333334 350.98965131532293, 17.604 351.0216513153229 L 17.604 351.9136513153229 C 17.110666666666663 351.8763179819896, 16.75333333333333 351.74165131532294, 16.532 351.5096513153229 C 16.310666666666666 351.2776513153229, 16.19333333333333 350.9176513153229, 16.18 350.42965131532293 Z M 16.279999999999998 349.0936513153229 L 16.279999999999998 345.44565131532295 L 17.348 345.44565131532295 L 17.348 349.0936513153229 Z M 17.852 348.66965131532294 L 17.852 347.9136513153229 C 17.929333333333332 347.8736513153229, 18.014666666666667 347.8416513153229, 18.107999999999997 347.8176513153229 C 18.20133333333333 347.7936513153229, 18.301333333333332 347.7816513153229, 18.407999999999998 347.7816513153229 C 18.773333333333333 347.7816513153229, 19.047333333333334 347.89698464865626, 19.23 348.1276513153229 C 19.412666666666667 348.35831798198956, 19.514666666666663 348.6723179819896, 19.535999999999998 349.0696513153229 C 19.546666666666667 349.22965131532294, 19.55333333333333 349.3883179819896, 19.555999999999997 349.5456513153229 C 19.558666666666664 349.70298464865624, 19.557333333333332 349.8563179819896, 19.552 350.00565131532295 C 19.546666666666667 350.1549846486563, 19.538666666666668 350.2949846486563, 19.528 350.4256513153229 C 19.482666666666667 350.9243179819896, 19.353333333333335 351.2896513153229, 19.14 351.5216513153229 C 18.926666666666666 351.75365131532294, 18.581333333333333 351.8843179819896, 18.104 351.9136513153229 L 18.104 351.0216513153229 C 18.21333333333333 350.9923179819896, 18.296 350.9396513153229, 18.352 350.8636513153229 C 18.408 350.78765131532293, 18.44 350.6883179819896, 18.448 350.56565131532295 C 18.471999999999998 350.27498464865624, 18.485999999999997 350.01365131532293, 18.49 349.7816513153229 C 18.494 349.54965131532293, 18.485333333333333 349.3283179819896, 18.464 349.1176513153229 C 18.447999999999997 348.9629846486563, 18.396666666666665 348.84765131532293, 18.31 348.7716513153229 C 18.223333333333333 348.69565131532295, 18.090666666666664 348.65765131532294, 17.912 348.65765131532294 C 17.901333333333334 348.65765131532294, 17.890666666666668 348.65898464865626, 17.88 348.6616513153229 C 17.86933333333333 348.6643179819896, 17.86 348.66698464865624, 17.852 348.66965131532294 Z M 17.852 346.3776513153229 L 17.852 345.44565131532295 L 19.439999999999998 345.44565131532295 L 19.439999999999998 346.3776513153229 Z M 21.944 351.8456513153229 L 21.944 345.44565131532295 L 23.003999999999998 345.44565131532295 L 23.003999999999998 351.8456513153229 Z " stroke="none" fill-rule="nonzero" fill="#000000" fill-opacity="1" transform="matrix(1,0,0,1,5.05,13.314)" id="text5 l" />
  <path d="M 0 338.78054526271 L 10 338.78054526271 L 10 340.28054526271 L 0 340.28054526271 Z " stroke="none" fill-rule="evenodd" fill="#000000" fill-opacity="1" transform="matrix(1,0,0,1,5.05,13.314)" id="mark6 l" />
  <path d="M 0 324.6334392100971 L 10 324.6334392100971 L 10 326.1334392100971 L 0 326.1334392100971 Z " stroke="none" fill-rule="evenodd" fill="#000000" fill-opacity="1" transform="matrix(1,0,0,1,5.05,13.314)" id="mark7 l" />
  <path d="M 0 310.4863331574842 L 10 310.4863331574842 L 10 311.9863331574842 L 0 311.9863331574842 Z " stroke="none" fill-rule="evenodd" fill="#000000" fill-opacity="1" transform="matrix(1,0,0,1,5.05,13.314)" id="mark8 l" />
  <path d="M 0 296.33922710487127 L 10 296.33922710487127 L 10 297.83922710487127 L 0 297.83922710487127 Z " stroke="none" fill-rule="evenodd" fill="#000000" fill-opacity="1" transform="matrix(1,0,0,1,5.05,13.314)" id="mark9 l" />
  <path d="M 0 282.19212105225836 L 25 282.19212105225836 L 25 283.69212105225836 L 0 283.69212105225836 Z " stroke="none" fill-rule="evenodd" fill="#000000" fill-opacity="1" transform="matrix(1,0,0,1,5.05,13.314)" id="mark10 l" />
  <path d="M 14.323999999999998 281.14212105225835 L 14.323999999999998 275.69812105225833 L 13.871999999999998 275.69812105225833 L 13.839999999999998 275.31812105225833 L 14.543999999999999 274.74212105225837 L 15.424 274.74212105225837 L 15.424 281.14212105225835 Z M 16.196 279.73012105225837 C 16.188000000000002 279.300787718925, 16.182666666666666 278.88412105225837, 16.18 278.48012105225837 C 16.177333333333333 278.0761210522584, 16.177999999999997 277.680787718925, 16.182 277.29412105225833 C 16.186 276.9074543855917, 16.190666666666665 276.52612105225836, 16.196 276.1501210522583 C 16.209333333333333 275.71012105225833, 16.334000000000003 275.364787718925, 16.57 275.1141210522583 C 16.805999999999997 274.8634543855917, 17.142666666666663 274.71812105225837, 17.58 274.67812105225835 L 17.58 275.5661210522583 C 17.382666666666665 275.6221210522583, 17.281333333333333 275.75145438559167, 17.276 275.95412105225836 C 17.262666666666668 276.324787718925, 17.253333333333334 276.672787718925, 17.248 276.99812105225834 C 17.242666666666665 277.3234543855917, 17.24 277.64012105225834, 17.24 277.94812105225833 C 17.24 278.2561210522583, 17.242666666666665 278.570787718925, 17.248 278.89212105225835 C 17.253333333333334 279.2134543855917, 17.262666666666668 279.556787718925, 17.276 279.9221210522583 C 17.281333333333333 280.13012105225835, 17.382666666666665 280.26212105225835, 17.58 280.31812105225833 L 17.58 281.20612105225837 C 17.142666666666663 281.16612105225835, 16.805999999999997 281.02012105225833, 16.57 280.7681210522583 C 16.334000000000003 280.5161210522583, 16.209333333333333 280.1701210522583, 16.196 279.73012105225837 Z M 18.084 281.20612105225837 L 18.084 280.3141210522584 C 18.268 280.26078771892503, 18.366666666666667 280.136787718925, 18.38 279.94212105225836 C 18.398666666666667 279.4754543855917, 18.410666666666668 279.02678771892505, 18.416 278.59612105225835 C 18.421333333333333 278.16545438559166, 18.421333333333333 277.73478771892496, 18.416 277.3041210522583 C 18.410666666666668 276.8734543855917, 18.398666666666667 276.420787718925, 18.38 275.9461210522583 C 18.374666666666666 275.75145438559167, 18.276 275.624787718925, 18.084 275.5661210522583 L 18.084 274.67812105225835 C 18.513333333333335 274.71812105225837, 18.846666666666668 274.8634543855917, 19.084 275.1141210522583 C 19.321333333333335 275.364787718925, 19.445333333333334 275.71012105225833, 19.456 276.1501210522583 C 19.46666666666667 276.46478771892504, 19.474666666666668 276.77478771892504, 19.48 277.08012105225833 C 19.485333333333333 277.3854543855917, 19.488 277.6861210522584, 19.488 277.9821210522583 C 19.488 278.27812105225837, 19.485333333333333 278.57145438559166, 19.48 278.8621210522584 C 19.474666666666668 279.152787718925, 19.46666666666667 279.44212105225836, 19.456 279.73012105225837 C 19.439999999999998 280.180787718925, 19.311999999999998 280.5294543855917, 19.072 280.77612105225836 C 18.832 281.02278771892503, 18.502666666666666 281.16612105225835, 18.084 281.20612105225837 Z M 21.944 281.14212105225835 L 21.944 274.74212105225837 L 23.003999999999998 274.74212105225837 L 23.003999999999998 281.14212105225835 Z " stroke="none" fill-rule="nonzero" fill="#000000" fill-opacity="1" transform="matrix(1,0,0,1,5.05,13.314)" id="text10 l" />
  <path d="M 0 268.04501499964545 L 10 268.04501499964545 L 10 269.54501499964545 L 0 269.54501499964545 Z " stroke="none" fill-rule="evenodd" fill="#000000" fill-opacity="1" transform="matrix(1,0,0,1,5.05,13.314)" id="mark11 l" />
  <path d="M 0 253.8979089470325 L 10 253.8979089470325 L 10 255.3979089470325 L 0 255.3979089470325 Z " stroke="none" fill-rule="evenodd" fill="#000000" fill-opacity="1" transform="matrix(1,0,0,1,5.05,13.314)" id="mark12 l" />
  <path d="M 0 239.7508028944196 L 10 239.7508028944196 L 10 241.2508028944196 L 0 241.2508028944196 Z " stroke="none" fill-rule="evenodd" fill="#000000" fill-opacity="1" transform="matrix(1,0,0,1,5.05,13.314)" id="mark13 l" />
  <path d="M 0 225.60369684180668 L 10 225.60369684180668 L 10 227.10369684180668 L 0 227.10369684180668 Z " stroke="none" fill-rule="evenodd" fill="#000000" fill-opacity="1" transform="matrix(1,0,0,1,5.05,13.314)" id="mark14 l" />
  <path d="M 0 211.45659078919377 L 25 211.45659078919377 L 25 212.95659078919377 L 0 212.95659078919377 Z " stroke="none" fill-rule="evenodd" fill="#000000" fill-opacity="1" transform="matrix(1,0,0,1,5.05,13.314)" id="mark15 l" />
  <path d="M 14.331999999999999 210.37459078919377 L 14.331999999999999 204.9305907891938 L 13.879999999999999 204.9305907891938 L 13.847999999999999 204.55059078919376 L 14.552 203.97459078919377 L 15.432 203.97459078919377 L 15.432 210.37459078919377 Z M 16.18 208.95859078919378 C 16.174666666666667 208.78525745586046, 16.173333333333332 208.6459241225271, 16.176 208.54059078919377 C 16.178666666666665 208.43525745586044, 16.181333333333335 208.33325745586046, 16.183999999999997 208.2345907891938 L 17.264 208.2345907891938 C 17.256 208.3119241225271, 17.25 208.4079241225271, 17.246 208.52259078919377 C 17.241999999999997 208.63725745586044, 17.240666666666666 208.7479241225271, 17.241999999999997 208.85459078919376 C 17.243333333333332 208.96125745586042, 17.246666666666666 209.04125745586043, 17.252 209.09459078919377 C 17.262666666666668 209.21459078919378, 17.297333333333334 209.3125907891938, 17.355999999999998 209.38859078919378 C 17.414666666666665 209.46459078919378, 17.497333333333334 209.51859078919375, 17.604 209.55059078919376 L 17.604 210.4425907891938 C 17.110666666666663 210.40525745586044, 16.75333333333333 210.27059078919376, 16.532 210.03859078919376 C 16.310666666666666 209.80659078919376, 16.19333333333333 209.44659078919375, 16.18 208.95859078919378 Z M 16.279999999999998 207.62259078919377 L 16.279999999999998 203.97459078919377 L 17.348 203.97459078919377 L 17.348 207.62259078919377 Z M 17.852 207.1985907891938 L 17.852 206.4425907891938 C 17.929333333333332 206.40259078919377, 18.014666666666667 206.37059078919378, 18.107999999999997 206.34659078919378 C 18.20133333333333 206.32259078919378, 18.301333333333332 206.31059078919378, 18.407999999999998 206.31059078919378 C 18.773333333333333 206.31059078919378, 19.047333333333334 206.4259241225271, 19.23 206.65659078919379 C 19.412666666666667 206.88725745586046, 19.514666666666663 207.20125745586046, 19.535999999999998 207.59859078919376 C 19.546666666666667 207.75859078919376, 19.55333333333333 207.9172574558604, 19.555999999999997 208.07459078919376 C 19.558666666666664 208.23192412252712, 19.557333333333332 208.38525745586043, 19.552 208.53459078919377 C 19.546666666666667 208.68392412252712, 19.538666666666668 208.8239241225271, 19.528 208.9545907891938 C 19.482666666666667 209.45325745586047, 19.353333333333335 209.81859078919376, 19.14 210.05059078919376 C 18.926666666666666 210.28259078919376, 18.581333333333333 210.41325745586045, 18.104 210.4425907891938 L 18.104 209.55059078919376 C 18.21333333333333 209.52125745586045, 18.296 209.4685907891938, 18.352 209.39259078919378 C 18.408 209.31659078919375, 18.44 209.21725745586042, 18.448 209.09459078919377 C 18.471999999999998 208.80392412252712, 18.485999999999997 208.54259078919378, 18.49 208.31059078919378 C 18.494 208.07859078919378, 18.485333333333333 207.85725745586046, 18.464 207.64659078919377 C 18.447999999999997 207.4919241225271, 18.396666666666665 207.37659078919376, 18.31 207.30059078919376 C 18.223333333333333 207.22459078919377, 18.090666666666664 207.18659078919376, 17.912 207.1865907891938 C 17.901333333333334 207.18659078919376, 17.890666666666668 207.1879241225271, 17.88 207.19059078919378 C 17.86933333333333 207.19325745586045, 17.86 207.19592412252712, 17.852 207.1985907891938 Z M 17.852 204.90659078919379 L 17.852 203.97459078919377 L 19.439999999999998 203.97459078919377 L 19.439999999999998 204.90659078919379 Z M 21.944 210.37459078919377 L 21.944 203.97459078919377 L 23.003999999999998 203.97459078919377 L 23.003999999999998 210.37459078919377 Z " stroke="none" fill-rule="nonzero" fill="#000000" fill-opacity="1" transform="matrix(1,0,0,1,5.05,13.314)" id="text15 l" />
  <path d="M 0 197.30948473658086 L 10 197.30948473658086 L 10 198.80948473658086 L 0 198.80948473658086 Z " stroke="none" fill-rule="evenodd" fill="#000000" fill-opacity="1" transform="matrix(1,0,0,1,5.05,13.314)" id="mark16 l" />
  <path d="M 0 183.16237868396792 L 10 183.16237868396792 L 10 184.66237868396792 L 0 184.66237868396792 Z " stroke="none" fill-rule="evenodd" fill="#000000" fill-opacity="1" transform="matrix(1,0,0,1,5.05,13.314)" id="mark17 l" />
  <path d="M 0 169.015272631355 L 10 169.015272631355 L 10 170.515272631355 L 0 170.515272631355 Z " stroke="none" fill-rule="evenodd" fill="#000000" fill-opacity="1" transform="matrix(1,0,0,1,5.05,13.314)" id="mark18 l" />
  <path d="M 0 154.8681665787421 L 10 154.8681665787421 L 10 156.3681665787421 L 0 156.3681665787421 Z " stroke="none" fill-rule="evenodd" fill="#000000" fill-opacity="1" transform="matrix(1,0,0,1,5.05,13.314)" id="mark19 l" />
  <path d="M 0 140.72106052612918 L 25 140.72106052612918 L 25 142.22106052612918 L 0 142.22106052612918 Z " stroke="none" fill-rule="evenodd" fill="#000000" fill-opacity="1" transform="matrix(1,0,0,1,5.05,13.314)" id="mark20 l" />
  <path d="M 12.319999999999999 139.6710605261292 C 12.317333333333334 139.57239385946252, 12.315333333333331 139.48372719279587, 12.313999999999998 139.4050605261292 C 12.312666666666665 139.32639385946254, 12.311333333333334 139.25239385946253, 12.309999999999999 139.1830605261292 C 12.308666666666667 139.11372719279586, 12.308 139.04172719279586, 12.308 138.9670605261292 C 12.308 138.89239385946252, 12.308 138.80772719279585, 12.308 138.7130605261292 C 12.308 138.61839385946254, 12.309333333333335 138.5070605261292, 12.312 138.3790605261292 C 12.32 138.08572719279587, 12.37 137.82372719279587, 12.462 137.5930605261292 C 12.554 137.36239385946251, 12.687999999999999 137.15639385946253, 12.863999999999999 136.9750605261292 C 13.04 136.79372719279587, 13.257333333333333 136.63239385946252, 13.515999999999998 136.4910605261292 L 14.047999999999998 136.2030605261292 C 14.234666666666666 136.10172719279586, 14.354 135.97972719279585, 14.405999999999999 135.8370605261292 C 14.457999999999998 135.69439385946254, 14.488 135.56039385946252, 14.495999999999999 135.4350605261292 C 14.506666666666664 135.28839385946253, 14.512666666666664 135.1317271927959, 14.514 134.9650605261292 C 14.51533333333333 134.79839385946252, 14.511999999999997 134.64172719279588, 14.504 134.4950605261292 C 14.498666666666665 134.3910605261292, 14.468666666666666 134.3050605261292, 14.413999999999998 134.2370605261292 C 14.359333333333332 134.1690605261292, 14.279999999999998 134.12039385946252, 14.175999999999998 134.09106052612918 L 14.175999999999998 133.2030605261292 C 14.663999999999998 133.2350605261292, 15.014 133.36639385946253, 15.225999999999999 133.59706052612918 C 15.437999999999999 133.82772719279586, 15.554666666666666 134.18839385946254, 15.575999999999999 134.6790605261292 C 15.578666666666663 134.7430605261292, 15.580666666666666 134.80839385946254, 15.581999999999999 134.8750605261292 C 15.583333333333332 134.94172719279587, 15.584 135.00639385946252, 15.584 135.0690605261292 C 15.584 135.13172719279586, 15.583333333333332 135.19372719279585, 15.581999999999999 135.2550605261292 C 15.580666666666666 135.31639385946252, 15.578666666666663 135.37639385946252, 15.575999999999999 135.4350605261292 C 15.565333333333331 135.72039385946255, 15.512 135.9670605261292, 15.415999999999999 136.1750605261292 C 15.32 136.38306052612919, 15.19 136.5630605261292, 15.026 136.7150605261292 C 14.862 136.8670605261292, 14.672 137.0030605261292, 14.456 137.1230605261292 L 13.851999999999999 137.4510605261292 C 13.737333333333332 137.51239385946252, 13.647333333333332 137.59639385946252, 13.581999999999999 137.7030605261292 C 13.516666666666666 137.8097271927959, 13.469999999999999 137.9230605261292, 13.441999999999998 138.04306052612918 C 13.413999999999998 138.1630605261292, 13.399999999999999 138.27506052612918, 13.399999999999999 138.3790605261292 L 13.399999999999999 139.6710605261292 Z M 12.328 135.6310605261292 C 12.322666666666667 135.51372719279587, 12.318666666666665 135.3990605261292, 12.315999999999999 135.2870605261292 C 12.313333333333333 135.17506052612922, 12.311333333333334 135.0690605261292, 12.309999999999999 134.9690605261292 C 12.308666666666667 134.8690605261292, 12.309333333333335 134.77239385946254, 12.312 134.6790605261292 C 12.330666666666666 134.1910605261292, 12.447333333333333 133.83172719279588, 12.661999999999999 133.6010605261292 C 12.876666666666665 133.37039385946252, 13.213333333333331 133.2377271927959, 13.671999999999999 133.2030605261292 L 13.671999999999999 134.0950605261292 C 13.576 134.12439385946251, 13.505333333333333 134.17106052612917, 13.459999999999999 134.2350605261292 C 13.414666666666665 134.2990605261292, 13.390666666666664 134.37639385946252, 13.387999999999998 134.4670605261292 C 13.382666666666665 134.6750605261292, 13.379333333333333 134.86839385946251, 13.378 135.0470605261292 C 13.376666666666667 135.2257271927959, 13.381333333333334 135.42039385946254, 13.392 135.6310605261292 Z M 13.904 139.6710605261292 L 13.904 138.7390605261292 L 15.5 138.7390605261292 L 15.5 139.6710605261292 Z M 16.196 138.2590605261292 C 16.188000000000002 137.82972719279584, 16.182666666666666 137.4130605261292, 16.18 137.0090605261292 C 16.177333333333333 136.6050605261292, 16.177999999999997 136.20972719279587, 16.182 135.82306052612918 C 16.186 135.43639385946253, 16.190666666666665 135.0550605261292, 16.196 134.6790605261292 C 16.209333333333333 134.2390605261292, 16.334000000000003 133.89372719279586, 16.57 133.6430605261292 C 16.805999999999997 133.39239385946254, 17.142666666666663 133.2470605261292, 17.58 133.2070605261292 L 17.58 134.0950605261292 C 17.382666666666665 134.1510605261292, 17.281333333333333 134.28039385946255, 17.276 134.4830605261292 C 17.262666666666668 134.85372719279587, 17.253333333333334 135.20172719279586, 17.248 135.5270605261292 C 17.242666666666665 135.85239385946252, 17.24 136.1690605261292, 17.24 136.4770605261292 C 17.24 136.7850605261292, 17.242666666666665 137.09972719279585, 17.248 137.4210605261292 C 17.253333333333334 137.74239385946254, 17.262666666666668 138.08572719279587, 17.276 138.4510605261292 C 17.281333333333333 138.6590605261292, 17.382666666666665 138.7910605261292, 17.58 138.84706052612918 L 17.58 139.7350605261292 C 17.142666666666663 139.6950605261292, 16.805999999999997 139.54906052612918, 16.57 139.2970605261292 C 16.334000000000003 139.0450605261292, 16.209333333333333 138.6990605261292, 16.196 138.2590605261292 Z M 18.084 139.7350605261292 L 18.084 138.8430605261292 C 18.268 138.78972719279585, 18.366666666666667 138.66572719279588, 18.38 138.4710605261292 C 18.398666666666667 138.00439385946254, 18.410666666666668 137.55572719279587, 18.416 137.1250605261292 C 18.421333333333333 136.69439385946254, 18.421333333333333 136.26372719279584, 18.416 135.8330605261292 C 18.410666666666668 135.4023938594625, 18.398666666666667 134.94972719279585, 18.38 134.4750605261292 C 18.374666666666666 134.28039385946252, 18.276 134.15372719279586, 18.084 134.0950605261292 L 18.084 133.2070605261292 C 18.513333333333335 133.2470605261292, 18.846666666666668 133.39239385946254, 19.084 133.6430605261292 C 19.321333333333335 133.89372719279586, 19.445333333333334 134.2390605261292, 19.456 134.6790605261292 C 19.46666666666667 134.99372719279586, 19.474666666666668 135.30372719279586, 19.48 135.60906052612918 C 19.485333333333333 135.9143938594625, 19.488 136.2150605261292, 19.488 136.5110605261292 C 19.488 136.8070605261292, 19.485333333333333 137.1003938594625, 19.48 137.3910605261292 C 19.474666666666668 137.68172719279588, 19.46666666666667 137.9710605261292, 19.456 138.2590605261292 C 19.439999999999998 138.70972719279587, 19.311999999999998 139.0583938594625, 19.072 139.30506052612918 C 18.832 139.55172719279585, 18.502666666666666 139.6950605261292, 18.084 139.7350605261292 Z M 21.944 139.6710605261292 L 21.944 133.2710605261292 L 23.003999999999998 133.2710605261292 L 23.003999999999998 139.6710605261292 Z " stroke="none" fill-rule="nonzero" fill="#000000" fill-opacity="1" transform="matrix(1,0,0,1,5.05,13.314)" id="text20 l" />
  <path d="M 0 126.57395447351627 L 10 126.57395447351627 L 10 128.07395447351627 L 0 128.07395447351627 Z " stroke="none" fill-rule="evenodd" fill="#000000" fill-opacity="1" transform="matrix(1,0,0,1,5.05,13.314)" id="mark21 l" />
  <path d="M 0 112.42684842090335 L 10 112.42684842090335 L 10 113.92684842090335 L 0 113.92684842090335 Z " stroke="none" fill-rule="evenodd" fill="#000000" fill-opacity="1" transform="matrix(1,0,0,1,5.05,13.314)" id="mark22 l" />
  <path d="M 0 98.27974236829044 L 10 98.27974236829044 L 10 99.77974236829044 L 0 99.77974236829044 Z " stroke="none" fill-rule="evenodd" fill="#000000" fill-opacity="1" transform="matrix(1,0,0,1,5.05,13.314)" id="mark23 l" />
  <path d="M 0 84.13263631567747 L 10 84.13263631567747 L 10 85.63263631567747 L 0 85.63263631567747 Z " stroke="none" fill-rule="evenodd" fill="#000000" fill-opacity="1" transform="matrix(1,0,0,1,5.05,13.314)" id="mark24 l" />
  <path d="M 0 69.98553026306456 L 25 69.98553026306456 L 25 71.48553026306456 L 0 71.48553026306456 Z " stroke="none" fill-rule="evenodd" fill="#000000" fill-opacity="1" transform="matrix(1,0,0,1,5.05,13.314)" id="mark25 l" />
  <path d="M 12.328 68.93553026306456 C 12.325333333333333 68.8368635963979, 12.323333333333332 68.74819692973124, 12.322 68.66953026306456 C 12.320666666666666 68.5908635963979, 12.319333333333333 68.5168635963979, 12.318 68.44753026306456 C 12.316666666666666 68.37819692973123, 12.315999999999999 68.30619692973124, 12.316 68.23153026306457 C 12.315999999999999 68.1568635963979, 12.315999999999999 68.07219692973123, 12.316 67.97753026306457 C 12.315999999999999 67.8828635963979, 12.317333333333334 67.77153026306456, 12.32 67.64353026306456 C 12.328 67.35019692973123, 12.378 67.08819692973123, 12.47 66.85753026306456 C 12.562000000000001 66.6268635963979, 12.696 66.4208635963979, 12.872 66.23953026306457 C 13.048 66.05819692973122, 13.265333333333334 65.89686359639789, 13.524000000000001 65.75553026306456 L 14.056000000000001 65.46753026306456 C 14.242666666666668 65.36619692973122, 14.362000000000002 65.24419692973123, 14.414 65.10153026306456 C 14.466000000000001 64.95886359639789, 14.495999999999999 64.8248635963979, 14.504 64.69953026306456 C 14.514666666666667 64.55286359639788, 14.520666666666667 64.39619692973122, 14.522 64.22953026306456 C 14.523333333333333 64.0628635963979, 14.520000000000001 63.90619692973123, 14.512 63.75953026306456 C 14.506666666666666 63.65553026306456, 14.476666666666667 63.569530263064564, 14.422 63.501530263064566 C 14.367333333333335 63.43353026306456, 14.288 63.38486359639789, 14.184000000000001 63.355530263064566 L 14.184000000000001 62.46753026306456 C 14.672 62.499530263064564, 15.022000000000002 62.6308635963979, 15.234 62.861530263064566 C 15.446000000000002 63.09219692973123, 15.562666666666667 63.45286359639789, 15.584 63.94353026306457 C 15.586666666666668 64.00753026306457, 15.588666666666668 64.0728635963979, 15.59 64.13953026306456 C 15.591333333333335 64.20619692973122, 15.592000000000002 64.2708635963979, 15.592 64.33353026306456 C 15.592000000000002 64.39619692973123, 15.591333333333335 64.45819692973123, 15.59 64.51953026306457 C 15.588666666666668 64.5808635963979, 15.586666666666668 64.6408635963979, 15.584 64.69953026306456 C 15.573333333333332 64.9848635963979, 15.52 65.23153026306457, 15.424 65.43953026306457 C 15.328 65.64753026306457, 15.197999999999999 65.82753026306456, 15.033999999999999 65.97953026306456 C 14.87 66.13153026306456, 14.68 66.26753026306457, 14.464 66.38753026306456 L 13.86 66.71553026306457 C 13.745333333333335 66.7768635963979, 13.655333333333335 66.8608635963979, 13.59 66.96753026306456 C 13.524666666666668 67.07419692973122, 13.478000000000002 67.18753026306456, 13.45 67.30753026306456 C 13.422 67.42753026306457, 13.408 67.53953026306456, 13.408 67.64353026306456 L 13.408 68.93553026306456 Z M 12.336 64.89553026306456 C 12.330666666666666 64.77819692973124, 12.326666666666664 64.66353026306457, 12.324 64.55153026306456 C 12.321333333333332 64.43953026306455, 12.319333333333333 64.33353026306456, 12.318 64.23353026306457 C 12.316666666666666 64.13353026306456, 12.317333333333334 64.0368635963979, 12.32 63.94353026306457 C 12.338666666666668 63.45553026306456, 12.455333333333336 63.096196929731235, 12.67 62.865530263064564 C 12.884666666666668 62.634863596397906, 13.221333333333334 62.502196929731234, 13.68 62.46753026306456 L 13.68 63.35953026306456 C 13.584 63.3888635963979, 13.513333333333332 63.435530263064564, 13.468 63.499530263064564 C 13.422666666666668 63.563530263064564, 13.398666666666667 63.64086359639789, 13.396 63.73153026306456 C 13.390666666666666 63.93953026306457, 13.387333333333332 64.1328635963979, 13.386 64.31153026306457 C 13.384666666666666 64.49019692973124, 13.389333333333333 64.6848635963979, 13.4 64.89553026306456 Z M 13.911999999999999 68.93553026306456 L 13.911999999999999 68.00353026306456 L 15.508 68.00353026306456 L 15.508 68.93553026306456 Z M 16.18 67.51953026306457 C 16.174666666666667 67.34619692973124, 16.173333333333332 67.2068635963979, 16.176 67.10153026306456 C 16.178666666666665 66.99619692973123, 16.181333333333335 66.89419692973124, 16.183999999999997 66.79553026306456 L 17.264 66.79553026306456 C 17.256 66.8728635963979, 17.25 66.9688635963979, 17.246 67.08353026306456 C 17.241999999999997 67.19819692973122, 17.240666666666666 67.3088635963979, 17.241999999999997 67.41553026306457 C 17.243333333333332 67.52219692973124, 17.246666666666666 67.60219692973124, 17.252 67.65553026306456 C 17.262666666666668 67.77553026306457, 17.297333333333334 67.87353026306457, 17.355999999999998 67.94953026306456 C 17.414666666666665 68.02553026306457, 17.497333333333334 68.07953026306457, 17.604 68.11153026306457 L 17.604 69.00353026306456 C 17.110666666666663 68.96619692973123, 16.75333333333333 68.83153026306456, 16.532 68.59953026306457 C 16.310666666666666 68.36753026306457, 16.19333333333333 68.00753026306457, 16.18 67.51953026306457 Z M 16.279999999999998 66.18353026306457 L 16.279999999999998 62.535530263064565 L 17.348 62.535530263064565 L 17.348 66.18353026306457 Z M 17.852 65.75953026306456 L 17.852 65.00353026306456 C 17.929333333333332 64.96353026306456, 18.014666666666667 64.93153026306456, 18.107999999999997 64.90753026306456 C 18.20133333333333 64.88353026306456, 18.301333333333332 64.87153026306456, 18.407999999999998 64.87153026306456 C 18.773333333333333 64.87153026306456, 19.047333333333334 64.9868635963979, 19.23 65.21753026306456 C 19.412666666666667 65.44819692973122, 19.514666666666663 65.76219692973123, 19.535999999999998 66.15953026306457 C 19.546666666666667 66.31953026306456, 19.55333333333333 66.47819692973123, 19.555999999999997 66.63553026306457 C 19.558666666666664 66.7928635963979, 19.557333333333332 66.94619692973123, 19.552 67.09553026306456 C 19.546666666666667 67.24486359639789, 19.538666666666668 67.38486359639789, 19.528 67.51553026306456 C 19.482666666666667 68.01419692973123, 19.353333333333335 68.37953026306457, 19.14 68.61153026306457 C 18.926666666666666 68.84353026306457, 18.581333333333333 68.97419692973124, 18.104 69.00353026306456 L 18.104 68.11153026306457 C 18.21333333333333 68.08219692973124, 18.296 68.02953026306457, 18.352 67.95353026306456 C 18.408 67.87753026306456, 18.44 67.77819692973122, 18.448 67.65553026306456 C 18.471999999999998 67.3648635963979, 18.485999999999997 67.10353026306457, 18.49 66.87153026306456 C 18.494 66.63953026306456, 18.485333333333333 66.41819692973124, 18.464 66.20753026306457 C 18.447999999999997 66.05286359639791, 18.396666666666665 65.93753026306457, 18.31 65.86153026306457 C 18.223333333333333 65.78553026306456, 18.090666666666664 65.74753026306456, 17.912 65.74753026306456 C 17.901333333333334 65.74753026306456, 17.890666666666668 65.7488635963979, 17.88 65.75153026306457 C 17.86933333333333 65.75419692973122, 17.86 65.75686359639789, 17.852 65.75953026306456 Z M 17.852 63.46753026306456 L 17.852 62.535530263064565 L 19.439999999999998 62.535530263064565 L 19.439999999999998 63.46753026306456 Z M 21.944 68.93553026306456 L 21.944 62.535530263064565 L 23.003999999999998 62.535530263064565 L 23.003999999999998 68.93553026306456 Z " stroke="none" fill-rule="nonzero" fill="#000000" fill-opacity="1" transform="matrix(1,0,0,1,5.05,13.314)" id="text25 l" />
  <path d="M 0 55.83842421045165 L 10 55.83842421045165 L 10 57.33842421045165 L 0 57.33842421045165 Z " stroke="none" fill-rule="evenodd" fill="#000000" fill-opacity="1" transform="matrix(1,0,0,1,5.05,13.314)" id="mark26 l" />
  <path d="M 0 41.69131815783874 L 10 41.69131815783874 L 10 43.19131815783874 L 0 43.19131815783874 Z " stroke="none" fill-rule="evenodd" fill="#000000" fill-opacity="1" transform="matrix(1,0,0,1,5.05,13.314)" id="mark27 l" />
  <path d="M 0 27.544212105225824 L 10 27.544212105225824 L 10 29.044212105225824 L 0 29.044212105225824 Z " stroke="none" fill-rule="evenodd" fill="#000000" fill-opacity="1" transform="matrix(1,0,0,1,5.05,13.314)" id="mark28 l" />
  <path d="M 0 13.397106052612912 L 10 13.397106052612912 L 10 14.897106052612912 L 0 14.897106052612912 Z " stroke="none" fill-rule="evenodd" fill="#000000" fill-opacity="1" transform="matrix(1,0,0,1,5.05,13.314)" id="mark29 l" />
  <path d="M 0 -0.75 L 25 -0.75 L 25 0.75 L 0 0.75 Z " stroke="none" fill-rule="evenodd" fill="#000000" fill-opacity="1" transform="matrix(1,0,0,1,5.05,13.314)" id="mark30 l" />
  <path d="M 12.223999999999998 -3.2159999999999997 C 12.221333333333334 -3.317333333333333, 12.219333333333333 -3.4013333333333335, 12.218 -3.468 C 12.216666666666667 -3.5346666666666664, 12.216666666666667 -3.602666666666666, 12.218 -3.6719999999999997 C 12.219333333333333 -3.7413333333333334, 12.221333333333334 -3.8306666666666667, 12.223999999999998 -3.94 L 13.303999999999998 -3.94 L 13.303999999999998 -3.0759999999999996 C 13.303999999999998 -2.8386666666666667, 13.417333333333332 -2.6879999999999997, 13.643999999999998 -2.6239999999999997 L 13.643999999999998 -1.7319999999999998 C 13.155999999999999 -1.7693333333333332, 12.800666666666665 -1.904, 12.578 -2.1359999999999997 C 12.355333333333334 -2.368, 12.237333333333332 -2.7279999999999998, 12.223999999999998 -3.2159999999999997 Z M 12.292 -7.268 L 12.292 -8.2 L 15.536 -8.2 L 15.536 -7.268 Z M 14.143999999999998 -2.6199999999999997 C 14.367999999999999 -2.6759999999999997, 14.483999999999998 -2.826666666666666, 14.491999999999999 -3.072 C 14.497333333333334 -3.2746666666666666, 14.500666666666666 -3.4573333333333336, 14.501999999999999 -3.62 C 14.503333333333332 -3.7826666666666666, 14.498666666666665 -3.94, 14.488 -4.092 C 14.48 -4.2493333333333325, 14.431999999999999 -4.382666666666666, 14.344 -4.492 C 14.256 -4.601333333333333, 14.089333333333332 -4.653333333333332, 13.844 -4.648 L 13.096 -4.64 L 13.068 -5.532 L 14.027999999999999 -6.9159999999999995 L 15.216 -6.9159999999999995 L 14.248 -5.564 L 14.28 -5.564 C 14.712 -5.564, 15.028666666666666 -5.441333333333334, 15.229999999999999 -5.196 C 15.431333333333333 -4.950666666666666, 15.544 -4.573333333333332, 15.568 -4.064 C 15.57333333333333 -3.992, 15.576666666666664 -3.92, 15.578 -3.848 C 15.57933333333333 -3.776, 15.579999999999998 -3.705333333333333, 15.579999999999998 -3.6359999999999997 C 15.579999999999998 -3.5666666666666664, 15.57933333333333 -3.4973333333333336, 15.578 -3.428 C 15.576666666666664 -3.3586666666666662, 15.57333333333333 -3.2879999999999994, 15.568 -3.2159999999999997 C 15.549333333333333 -2.7199999999999998, 15.428666666666665 -2.3553333333333333, 15.206 -2.122 C 14.983333333333334 -1.8886666666666665, 14.630666666666666 -1.7586666666666664, 14.148 -1.7319999999999998 Z M 16.196 -3.2119999999999997 C 16.188000000000002 -3.641333333333333, 16.182666666666666 -4.058, 16.18 -4.462 C 16.177333333333333 -4.866, 16.177999999999997 -5.261333333333333, 16.182 -5.648 C 16.186 -6.034666666666666, 16.190666666666665 -6.416, 16.196 -6.792 C 16.209333333333333 -7.231999999999999, 16.334000000000003 -7.577333333333334, 16.57 -7.828 C 16.805999999999997 -8.078666666666667, 17.142666666666663 -8.224, 17.58 -8.264 L 17.58 -7.3759999999999994 C 17.382666666666665 -7.32, 17.281333333333333 -7.190666666666667, 17.276 -6.9879999999999995 C 17.262666666666668 -6.617333333333333, 17.253333333333334 -6.269333333333333, 17.248 -5.944 C 17.242666666666665 -5.618666666666666, 17.24 -5.302, 17.24 -4.994 C 17.24 -4.686, 17.242666666666665 -4.371333333333333, 17.248 -4.05 C 17.253333333333334 -3.7286666666666664, 17.262666666666668 -3.3853333333333326, 17.276 -3.0199999999999996 C 17.281333333333333 -2.812, 17.382666666666665 -2.6799999999999997, 17.58 -2.6239999999999997 L 17.58 -1.7359999999999998 C 17.142666666666663 -1.7759999999999998, 16.805999999999997 -1.9219999999999997, 16.57 -2.174 C 16.334000000000003 -2.4259999999999997, 16.209333333333333 -2.772, 16.196 -3.2119999999999997 Z M 18.084 -1.7359999999999998 L 18.084 -2.6279999999999997 C 18.268 -2.681333333333333, 18.366666666666667 -2.8053333333333335, 18.38 -3 C 18.398666666666667 -3.4666666666666663, 18.410666666666668 -3.915333333333333, 18.416 -4.346 C 18.421333333333333 -4.776666666666666, 18.421333333333333 -5.207333333333333, 18.416 -5.638 C 18.410666666666668 -6.068666666666666, 18.398666666666667 -6.521333333333333, 18.38 -6.9959999999999996 C 18.374666666666666 -7.190666666666667, 18.276 -7.317333333333334, 18.084 -7.3759999999999994 L 18.084 -8.264 C 18.513333333333335 -8.224, 18.846666666666668 -8.078666666666667, 19.084 -7.828 C 19.321333333333335 -7.577333333333334, 19.445333333333334 -7.231999999999999, 19.456 -6.792 C 19.46666666666667 -6.477333333333332, 19.474666666666668 -6.167333333333333, 19.48 -5.861999999999999 C 19.485333333333333 -5.556666666666667, 19.488 -5.256, 19.488 -4.96 C 19.488 -4.664, 19.485333333333333 -4.370666666666667, 19.48 -4.08 C 19.474666666666668 -3.7893333333333334, 19.46666666666667 -3.5, 19.456 -3.2119999999999997 C 19.439999999999998 -2.761333333333333, 19.311999999999998 -2.4126666666666665, 19.072 -2.166 C 18.832 -1.9193333333333331, 18.502666666666666 -1.7759999999999998, 18.084 -1.7359999999999998 Z M 21.944 -1.7999999999999998 L 21.944 -8.2 L 23.003999999999998 -8.2 L 23.003999999999998 -1.7999999999999998 Z " stroke="none" fill-rule="nonzero" fill="#000000" fill-opacity="1" transform="matrix(1,0,0,1,5.05,13.314)" id="text30 l" />
  <path d="M -5 -13.264 L 30 -13.264 L 30 417.0340755257746 L -5 417.0340755257746 Z " stroke="#FF0000" stroke-opacity="1" stroke-width="0.1" stroke-linecap="butt" stroke-linejoin="miter" fill="none" transform="matrix(1,0,0,1,5.05,13.314)" />
</svg>