<?xml version="1.0" encoding="UTF-8"?>
<svg xmlns:xlink="http://www.w3.org/1999/xlink" viewBox="0 0 35.1 395.18108800379343" version="1.1" style="font-synthesis: none;" width="35.1mm" height="395.1810880037935mm" xmlns="http://www.w3.org/2000/svg">
  <defs />
  <style>	</style>
  <path d="M 0 0 L 35.1 0 L 35.1 395.18108800379343 L 0 395.18108800379343 Z " stroke="none" fill-rule="nonzero" fill="#FFFFFF" fill-opacity="1" transform="matrix(1,0,0,1,0,0)" />
  <path d="M 0 374.33108800379347 L 10 374.33108800379347 L 10 375.83108800379347 L 0 375.83108800379347 Z " stroke="none" fill-rule="evenodd" fill="#000000" fill-opacity="1" transform="matrix(1,0,0,1,5.05,13.314)" id="mark1 l" />
  <path d="M 0 347.53958171780823 L 10 347.53958171780823 L 10 349.03958171780823 L 0 349.03958171780823 Z " stroke="none" fill-rule="evenodd" fill="#000000" fill-opacity="1" transform="matrix(1,0,0,1,5.05,13.314)" id="mark2 l" />
  <path d="M 0 320.74807543182294 L 10 320.74807543182294 L 10 322.24807543182294 L 0 322.24807543182294 Z " stroke="none" fill-rule="evenodd" fill="#000000" fill-opacity="1" transform="matrix(1,0,0,1,5.05,13.314)" id="mark3 l" />
  <path d="M 0 293.9565691458377 L 10 293.9565691458377 L 10 295.4565691458377 L 0 295.4565691458377 Z " stroke="none" fill-rule="evenodd" fill="#000000" fill-opacity="1" transform="matrix(1,0,0,1,5.05,13.314)" id="mark4 l" />
  <path d="M 0 267.16506285985247 L 25 267.16506285985247 L 25 268.66506285985247 L 0 268.66506285985247 Z " stroke="none" fill-rule="evenodd" fill="#000000" fill-opacity="1" transform="matrix(1,0,0,1,5.05,13.314)" id="mark5 l" />
  <path d="M 16.18 264.6670628598525 C 16.174666666666667 264.49372952651913, 16.173333333333332 264.35439619318583, 16.176 264.2490628598525 C 16.178666666666665 264.1437295265191, 16.181333333333335 264.04172952651913, 16.183999999999997 263.9430628598525 L 17.264 263.9430628598525 C 17.256 264.02039619318583, 17.25 264.11639619318584, 17.246 264.2310628598525 C 17.241999999999997 264.34572952651916, 17.240666666666666 264.4563961931858, 17.241999999999997 264.5630628598525 C 17.243333333333332 264.6697295265191, 17.246666666666666 264.7497295265191, 17.252 264.8030628598525 C 17.262666666666668 264.9230628598525, 17.297333333333334 265.02106285985246, 17.355999999999998 265.0970628598525 C 17.414666666666665 265.17306285985245, 17.497333333333334 265.2270628598525, 17.604 265.25906285985246 L 17.604 266.15106285985246 C 17.110666666666663 266.11372952651914, 16.75333333333333 265.97906285985243, 16.532 265.74706285985246 C 16.310666666666666 265.5150628598525, 16.19333333333333 265.1550628598525, 16.18 264.6670628598525 Z M 16.279999999999998 263.33106285985247 L 16.279999999999998 259.6830628598525 L 17.348 259.6830628598525 L 17.348 263.33106285985247 Z M 17.852 262.9070628598525 L 17.852 262.15106285985246 C 17.929333333333332 262.1110628598525, 18.014666666666667 262.07906285985246, 18.107999999999997 262.05506285985246 C 18.20133333333333 262.03106285985245, 18.301333333333332 262.01906285985245, 18.407999999999998 262.01906285985245 C 18.773333333333333 262.01906285985245, 19.047333333333334 262.1343961931858, 19.23 262.36506285985246 C 19.412666666666667 262.5957295265191, 19.514666666666663 262.90972952651913, 19.535999999999998 263.30706285985246 C 19.546666666666667 263.4670628598525, 19.55333333333333 263.62572952651914, 19.555999999999997 263.78306285985246 C 19.558666666666664 263.9403961931858, 19.557333333333332 264.09372952651916, 19.552 264.2430628598525 C 19.546666666666667 264.39239619318585, 19.538666666666668 264.53239619318583, 19.528 264.66306285985246 C 19.482666666666667 265.16172952651914, 19.353333333333335 265.52706285985244, 19.14 265.75906285985246 C 18.926666666666666 265.9910628598525, 18.581333333333333 266.1217295265191, 18.104 266.15106285985246 L 18.104 265.25906285985246 C 18.21333333333333 265.2297295265191, 18.296 265.17706285985247, 18.352 265.10106285985245 C 18.408 265.0250628598525, 18.44 264.92572952651915, 18.448 264.8030628598525 C 18.471999999999998 264.51239619318585, 18.485999999999997 264.2510628598525, 18.49 264.01906285985245 C 18.494 263.7870628598525, 18.485333333333333 263.56572952651914, 18.464 263.35506285985247 C 18.447999999999997 263.20039619318584, 18.396666666666665 263.0850628598525, 18.31 263.00906285985246 C 18.223333333333333 262.9330628598525, 18.090666666666664 262.8950628598525, 17.912 262.8950628598525 C 17.901333333333334 262.8950628598525, 17.890666666666668 262.8963961931858, 17.88 262.89906285985245 C 17.86933333333333 262.90172952651915, 17.86 262.9043961931858, 17.852 262.9070628598525 Z M 17.852 260.61506285985246 L 17.852 259.6830628598525 L 19.439999999999998 259.6830628598525 L 19.439999999999998 260.61506285985246 Z M 21.944 266.0830628598525 L 21.944 259.6830628598525 L 23.003999999999998 259.6830628598525 L 23.003999999999998 266.0830628598525 Z " stroke="none" fill-rule="nonzero" fill="#000000" fill-opacity="1" transform="matrix(1,0,0,1,5.05,13.314)" id="text5 l" />
  <path d="M 0 240.37355657386723 L 10 240.37355657386723 L 10 241.87355657386723 L 0 241.87355657386723 Z " stroke="none" fill-rule="evenodd" fill="#000000" fill-opacity="1" transform="matrix(1,0,0,1,5.05,13.314)" id="mark6 l" />
  <path d="M 0 213.582050287882 L 10 213.582050287882 L 10 215.082050287882 L 0 215.082050287882 Z " stroke="none" fill-rule="evenodd" fill="#000000" fill-opacity="1" transform="matrix(1,0,0,1,5.05,13.314)" id="mark7 l" />
  <path d="M 0 186.79054400189673 L 10 186.79054400189673 L 10 188.29054400189673 L 0 188.29054400189673 Z " stroke="none" fill-rule="evenodd" fill="#000000" fill-opacity="1" transform="matrix(1,0,0,1,5.05,13.314)" id="mark8 l" />
  <path d="M 0 159.9990377159115 L 10 159.9990377159115 L 10 161.4990377159115 L 0 161.4990377159115 Z " stroke="none" fill-rule="evenodd" fill="#000000" fill-opacity="1" transform="matrix(1,0,0,1,5.05,13.314)" id="mark9 l" />
  <path d="M 0 133.20753142992623 L 25 133.20753142992623 L 25 134.70753142992623 L 0 134.70753142992623 Z " stroke="none" fill-rule="evenodd" fill="#000000" fill-opacity="1" transform="matrix(1,0,0,1,5.05,13.314)" id="mark10 l" />
  <path d="M 14.323999999999998 132.15753142992625 L 14.323999999999998 126.71353142992625 L 13.871999999999998 126.71353142992625 L 13.839999999999998 126.33353142992625 L 14.543999999999999 125.75753142992625 L 15.424 125.75753142992625 L 15.424 132.15753142992625 Z M 16.196 130.74553142992625 C 16.188000000000002 130.3161980965929, 16.182666666666666 129.89953142992624, 16.18 129.49553142992625 C 16.177333333333333 129.09153142992625, 16.177999999999997 128.69619809659292, 16.182 128.30953142992624 C 16.186 127.92286476325958, 16.190666666666665 127.54153142992625, 16.196 127.16553142992625 C 16.209333333333333 126.72553142992625, 16.334000000000003 126.38019809659292, 16.57 126.12953142992625 C 16.805999999999997 125.87886476325957, 17.142666666666663 125.73353142992624, 17.58 125.69353142992625 L 17.58 126.58153142992626 C 17.382666666666665 126.63753142992626, 17.281333333333333 126.76686476325958, 17.276 126.96953142992625 C 17.262666666666668 127.3401980965929, 17.253333333333334 127.68819809659291, 17.248 128.01353142992625 C 17.242666666666665 128.33886476325958, 17.24 128.65553142992624, 17.24 128.96353142992626 C 17.24 129.27153142992626, 17.242666666666665 129.5861980965929, 17.248 129.90753142992625 C 17.253333333333334 130.2288647632596, 17.262666666666668 130.5721980965929, 17.276 130.93753142992625 C 17.281333333333333 131.14553142992628, 17.382666666666665 131.27753142992626, 17.58 131.33353142992624 L 17.58 132.22153142992624 C 17.142666666666663 132.18153142992622, 16.805999999999997 132.03553142992624, 16.57 131.78353142992626 C 16.334000000000003 131.53153142992625, 16.209333333333333 131.18553142992624, 16.196 130.74553142992625 Z M 18.084 132.22153142992624 L 18.084 131.32953142992625 C 18.268 131.27619809659294, 18.366666666666667 131.15219809659294, 18.38 130.95753142992626 C 18.398666666666667 130.4908647632596, 18.410666666666668 130.04219809659293, 18.416 129.61153142992626 C 18.421333333333333 129.1808647632596, 18.421333333333333 128.75019809659292, 18.416 128.31953142992626 C 18.410666666666668 127.88886476325959, 18.398666666666667 127.43619809659292, 18.38 126.96153142992625 C 18.374666666666666 126.76686476325959, 18.276 126.64019809659293, 18.084 126.58153142992626 L 18.084 125.69353142992625 C 18.513333333333335 125.73353142992624, 18.846666666666668 125.87886476325957, 19.084 126.12953142992625 C 19.321333333333335 126.38019809659292, 19.445333333333334 126.72553142992625, 19.456 127.16553142992625 C 19.46666666666667 127.48019809659291, 19.474666666666668 127.79019809659292, 19.48 128.09553142992624 C 19.485333333333333 128.40086476325956, 19.488 128.70153142992623, 19.488 128.99753142992625 C 19.488 129.29353142992625, 19.485333333333333 129.58686476325957, 19.48 129.87753142992625 C 19.474666666666668 130.16819809659293, 19.46666666666667 130.45753142992626, 19.456 130.74553142992625 C 19.439999999999998 131.19619809659292, 19.311999999999998 131.5448647632596, 19.072 131.79153142992624 C 18.832 132.0381980965929, 18.502666666666666 132.18153142992622, 18.084 132.22153142992624 Z M 21.944 132.15753142992625 L 21.944 125.75753142992625 L 23.003999999999998 125.75753142992625 L 23.003999999999998 132.15753142992625 Z " stroke="none" fill-rule="nonzero" fill="#000000" fill-opacity="1" transform="matrix(1,0,0,1,5.05,13.314)" id="text10 l" />
  <path d="M 0 106.416025143941 L 10 106.416025143941 L 10 107.916025143941 L 0 107.916025143941 Z " stroke="none" fill-rule="evenodd" fill="#000000" fill-opacity="1" transform="matrix(1,0,0,1,5.05,13.314)" id="mark11 l" />
  <path d="M 0 79.62451885795576 L 10 79.62451885795576 L 10 81.12451885795576 L 0 81.12451885795576 Z " stroke="none" fill-rule="evenodd" fill="#000000" fill-opacity="1" transform="matrix(1,0,0,1,5.05,13.314)" id="mark12 l" />
  <path d="M 0 52.83301257197053 L 10 52.83301257197053 L 10 54.33301257197053 L 0 54.33301257197053 Z " stroke="none" fill-rule="evenodd" fill="#000000" fill-opacity="1" transform="matrix(1,0,0,1,5.05,13.314)" id="mark13 l" />
  <path d="M 0 26.041506285985292 L 10 26.041506285985292 L 10 27.541506285985292 L 0 27.541506285985292 Z " stroke="none" fill-rule="evenodd" fill="#000000" fill-opacity="1" transform="matrix(1,0,0,1,5.05,13.314)" id="mark14 l" />
  <path d="M 0 -0.75 L 25 -0.75 L 25 0.75 L 0 0.75 Z " stroke="none" fill-rule="evenodd" fill="#000000" fill-opacity="1" transform="matrix(1,0,0,1,5.05,13.314)" id="mark15 l" />
  <path d="M 14.331999999999999 -1.8319999999999999 L 14.331999999999999 -7.276 L 13.879999999999999 -7.276 L 13.847999999999999 -7.656 L 14.552 -8.232 L 15.432 -8.232 L 15.432 -1.8319999999999999 Z M 16.18 -3.2479999999999998 C 16.174666666666667 -3.421333333333333, 16.173333333333332 -3.5606666666666666, 16.176 -3.666 C 16.178666666666665 -3.771333333333333, 16.181333333333335 -3.873333333333333, 16.183999999999997 -3.972 L 17.264 -3.972 C 17.256 -3.8946666666666667, 17.25 -3.7986666666666666, 17.246 -3.6839999999999997 C 17.241999999999997 -3.569333333333333, 17.240666666666666 -3.4586666666666663, 17.241999999999997 -3.352 C 17.243333333333332 -3.2453333333333334, 17.246666666666666 -3.1653333333333338, 17.252 -3.112 C 17.262666666666668 -2.992, 17.297333333333334 -2.8939999999999997, 17.355999999999998 -2.8179999999999996 C 17.414666666666665 -2.7419999999999995, 17.497333333333334 -2.6879999999999997, 17.604 -2.6559999999999997 L 17.604 -1.7639999999999998 C 17.110666666666663 -1.801333333333333, 16.75333333333333 -1.9359999999999997, 16.532 -2.1679999999999997 C 16.310666666666666 -2.4, 16.19333333333333 -2.76, 16.18 -3.2479999999999998 Z M 16.279999999999998 -4.584 L 16.279999999999998 -8.232 L 17.348 -8.232 L 17.348 -4.584 Z M 17.852 -5.008 L 17.852 -5.763999999999999 C 17.929333333333332 -5.804, 18.014666666666667 -5.836, 18.107999999999997 -5.86 C 18.20133333333333 -5.884, 18.301333333333332 -5.896, 18.407999999999998 -5.896 C 18.773333333333333 -5.896, 19.047333333333334 -5.780666666666667, 19.23 -5.55 C 19.412666666666667 -5.319333333333333, 19.514666666666663 -5.005333333333333, 19.535999999999998 -4.608 C 19.546666666666667 -4.448, 19.55333333333333 -4.289333333333333, 19.555999999999997 -4.132 C 19.558666666666664 -3.974666666666667, 19.557333333333332 -3.8213333333333335, 19.552 -3.6719999999999997 C 19.546666666666667 -3.522666666666667, 19.538666666666668 -3.3826666666666663, 19.528 -3.252 C 19.482666666666667 -2.753333333333333, 19.353333333333335 -2.388, 19.14 -2.1559999999999997 C 18.926666666666666 -1.9239999999999997, 18.581333333333333 -1.793333333333333, 18.104 -1.7639999999999998 L 18.104 -2.6559999999999997 C 18.21333333333333 -2.685333333333333, 18.296 -2.738, 18.352 -2.814 C 18.408 -2.89, 18.44 -2.9893333333333336, 18.448 -3.112 C 18.471999999999998 -3.4026666666666667, 18.485999999999997 -3.664, 18.49 -3.896 C 18.494 -4.128, 18.485333333333333 -4.349333333333333, 18.464 -4.5600000000000005 C 18.447999999999997 -4.714666666666667, 18.396666666666665 -4.83, 18.31 -4.906 C 18.223333333333333 -4.981999999999999, 18.090666666666664 -5.02, 17.912 -5.02 C 17.901333333333334 -5.02, 17.890666666666668 -5.018666666666666, 17.88 -5.016 C 17.86933333333333 -5.013333333333334, 17.86 -5.010666666666667, 17.852 -5.008 Z M 17.852 -7.3 L 17.852 -8.232 L 19.439999999999998 -8.232 L 19.439999999999998 -7.3 Z M 21.944 -1.8319999999999999 L 21.944 -8.232 L 23.003999999999998 -8.232 L 23.003999999999998 -1.8319999999999999 Z " stroke="none" fill-rule="nonzero" fill="#000000" fill-opacity="1" transform="matrix(1,0,0,1,5.05,13.314)" id="text15 l" />
  <path d="M -5 -13.264 L 30 -13.264 L 30 381.81708800379346 L -5 381.81708800379346 Z " stroke="#FF0000" stroke-opacity="1" stroke-width="0.1" stroke-linecap="butt" stroke-linejoin="miter" fill="none" transform="matrix(1,0,0,1,5.05,13.314)" />
</svg>