<?xml version="1.0" encoding="UTF-8"?>
<svg xmlns:xlink="http://www.w3.org/1999/xlink" viewBox="0 0 35.1 437.32454143811253" version="1.1" style="font-synthesis: none;" width="35.1mm" height="437.32454143811253mm" xmlns="http://www.w3.org/2000/svg">
  <defs />
  <style>	</style>
  <path d="M 0 0 L 35.1 0 L 35.1 437.32454143811253 L 0 437.32454143811253 Z " stroke="none" fill-rule="nonzero" fill="#FFFFFF" fill-opacity="1" transform="matrix(1,0,0,1,0,0)" />
  <path d="M 0 416.4425414381125 L 10 416.4425414381125 L 10 417.9425414381125 L 0 417.9425414381125 Z " stroke="none" fill-rule="evenodd" fill="#000000" fill-opacity="1" transform="matrix(1,0,0,1,5.05,13.314)" id="mark1 l" />
  <path d="M 0 405.74529678585327 L 10 405.74529678585327 L 10 407.24529678585327 L 0 407.24529678585327 Z " stroke="none" fill-rule="evenodd" fill="#000000" fill-opacity="1" transform="matrix(1,0,0,1,5.05,13.314)" id="mark2 l" />
  <path d="M 0 395.04805213359396 L 10 395.04805213359396 L 10 396.54805213359396 L 0 396.54805213359396 Z " stroke="none" fill-rule="evenodd" fill="#000000" fill-opacity="1" transform="matrix(1,0,0,1,5.05,13.314)" id="mark3 l" />
  <path d="M 0 384.35080748133464 L 10 384.35080748133464 L 10 385.85080748133464 L 0 385.85080748133464 Z " stroke="none" fill-rule="evenodd" fill="#000000" fill-opacity="1" transform="matrix(1,0,0,1,5.05,13.314)" id="mark4 l" />
  <path d="M 0 373.6535628290754 L 25 373.6535628290754 L 25 375.1535628290754 L 0 375.1535628290754 Z " stroke="none" fill-rule="evenodd" fill="#000000" fill-opacity="1" transform="matrix(1,0,0,1,5.05,13.314)" id="mark5 l" />
  <path d="M 16.18 371.1555628290754 C 16.174666666666667 370.98222949574205, 16.173333333333332 370.84289616240875, 16.176 370.7375628290754 C 16.178666666666665 370.632229495742, 16.181333333333335 370.53022949574205, 16.183999999999997 370.4315628290754 L 17.264 370.4315628290754 C 17.256 370.50889616240875, 17.25 370.60489616240875, 17.246 370.7195628290754 C 17.241999999999997 370.8342294957421, 17.240666666666666 370.9448961624087, 17.241999999999997 371.0515628290754 C 17.243333333333332 371.15822949574203, 17.246666666666666 371.2382294957421, 17.252 371.2915628290754 C 17.262666666666668 371.41156282907536, 17.297333333333334 371.5095628290754, 17.355999999999998 371.5855628290754 C 17.414666666666665 371.66156282907536, 17.497333333333334 371.71556282907534, 17.604 371.7475628290754 L 17.604 372.6395628290754 C 17.110666666666663 372.60222949574205, 16.75333333333333 372.4675628290754, 16.532 372.2355628290754 C 16.310666666666666 372.00356282907535, 16.19333333333333 371.6435628290754, 16.18 371.1555628290754 Z M 16.279999999999998 369.8195628290754 L 16.279999999999998 366.1715628290754 L 17.348 366.1715628290754 L 17.348 369.8195628290754 Z M 17.852 369.3955628290754 L 17.852 368.6395628290754 C 17.929333333333332 368.59956282907535, 18.014666666666667 368.56756282907537, 18.107999999999997 368.54356282907537 C 18.20133333333333 368.51956282907537, 18.301333333333332 368.50756282907537, 18.407999999999998 368.50756282907537 C 18.773333333333333 368.50756282907537, 19.047333333333334 368.6228961624087, 19.23 368.8535628290754 C 19.412666666666667 369.084229495742, 19.514666666666663 369.39822949574204, 19.535999999999998 369.7955628290754 C 19.546666666666667 369.95556282907535, 19.55333333333333 370.11422949574205, 19.555999999999997 370.2715628290754 C 19.558666666666664 370.4288961624087, 19.557333333333332 370.582229495742, 19.552 370.7315628290754 C 19.546666666666667 370.8808961624087, 19.538666666666668 371.0208961624087, 19.528 371.1515628290754 C 19.482666666666667 371.650229495742, 19.353333333333335 372.01556282907535, 19.14 372.2475628290754 C 18.926666666666666 372.4795628290754, 18.581333333333333 372.61022949574203, 18.104 372.6395628290754 L 18.104 371.7475628290754 C 18.21333333333333 371.7182294957421, 18.296 371.6655628290754, 18.352 371.58956282907536 C 18.408 371.5135628290754, 18.44 371.41422949574206, 18.448 371.2915628290754 C 18.471999999999998 371.0008961624087, 18.485999999999997 370.7395628290754, 18.49 370.50756282907537 C 18.494 370.2755628290754, 18.485333333333333 370.05422949574205, 18.464 369.8435628290754 C 18.447999999999997 369.68889616240875, 18.396666666666665 369.5735628290754, 18.31 369.4975628290754 C 18.223333333333333 369.42156282907536, 18.090666666666664 369.3835628290754, 17.912 369.3835628290754 C 17.901333333333334 369.3835628290754, 17.890666666666668 369.3848961624087, 17.88 369.38756282907536 C 17.86933333333333 369.39022949574206, 17.86 369.39289616240876, 17.852 369.3955628290754 Z M 17.852 367.1035628290754 L 17.852 366.1715628290754 L 19.439999999999998 366.1715628290754 L 19.439999999999998 367.1035628290754 Z M 21.944 372.5715628290754 L 21.944 366.1715628290754 L 23.003999999999998 366.1715628290754 L 23.003999999999998 372.5715628290754 Z " stroke="none" fill-rule="nonzero" fill="#000000" fill-opacity="1" transform="matrix(1,0,0,1,5.05,13.314)" id="text5 l" />
  <path d="M 0 362.95631817681607 L 10 362.95631817681607 L 10 364.45631817681607 L 0 364.45631817681607 Z " stroke="none" fill-rule="evenodd" fill="#000000" fill-opacity="1" transform="matrix(1,0,0,1,5.05,13.314)" id="mark6 l" />
  <path d="M 0 352.25907352455675 L 10 352.25907352455675 L 10 353.75907352455675 L 0 353.75907352455675 Z " stroke="none" fill-rule="evenodd" fill="#000000" fill-opacity="1" transform="matrix(1,0,0,1,5.05,13.314)" id="mark7 l" />
  <path d="M 0 341.5618288722975 L 10 341.5618288722975 L 10 343.0618288722975 L 0 343.0618288722975 Z " stroke="none" fill-rule="evenodd" fill="#000000" fill-opacity="1" transform="matrix(1,0,0,1,5.05,13.314)" id="mark8 l" />
  <path d="M 0 330.8645842200382 L 10 330.8645842200382 L 10 332.3645842200382 L 0 332.3645842200382 Z " stroke="none" fill-rule="evenodd" fill="#000000" fill-opacity="1" transform="matrix(1,0,0,1,5.05,13.314)" id="mark9 l" />
  <path d="M 0 320.16733956777887 L 25 320.16733956777887 L 25 321.66733956777887 L 0 321.66733956777887 Z " stroke="none" fill-rule="evenodd" fill="#000000" fill-opacity="1" transform="matrix(1,0,0,1,5.05,13.314)" id="mark10 l" />
  <path d="M 14.323999999999998 319.11733956777886 L 14.323999999999998 313.67333956777884 L 13.871999999999998 313.67333956777884 L 13.839999999999998 313.29333956777884 L 14.543999999999999 312.7173395677789 L 15.424 312.7173395677789 L 15.424 319.11733956777886 Z M 16.196 317.7053395677789 C 16.188000000000002 317.2760062344455, 16.182666666666666 316.8593395677789, 16.18 316.4553395677789 C 16.177333333333333 316.0513395677789, 16.177999999999997 315.6560062344455, 16.182 315.26933956777884 C 16.186 314.8826729011122, 16.190666666666665 314.50133956777887, 16.196 314.12533956777884 C 16.209333333333333 313.68533956777884, 16.334000000000003 313.3400062344455, 16.57 313.08933956777884 C 16.805999999999997 312.8386729011122, 17.142666666666663 312.6933395677789, 17.58 312.65333956777886 L 17.58 313.54133956777883 C 17.382666666666665 313.5973395677788, 17.281333333333333 313.7266729011122, 17.276 313.92933956777887 C 17.262666666666668 314.3000062344455, 17.253333333333334 314.6480062344455, 17.248 314.97333956777885 C 17.242666666666665 315.2986729011122, 17.24 315.61533956777885, 17.24 315.92333956777884 C 17.24 316.23133956777883, 17.242666666666665 316.5460062344455, 17.248 316.86733956777886 C 17.253333333333334 317.1886729011122, 17.262666666666668 317.53200623444553, 17.276 317.89733956777883 C 17.281333333333333 318.10533956777886, 17.382666666666665 318.23733956777886, 17.58 318.29333956777884 L 17.58 319.1813395677789 C 17.142666666666663 319.14133956777886, 16.805999999999997 318.99533956777884, 16.57 318.74333956777883 C 16.334000000000003 318.4913395677788, 16.209333333333333 318.1453395677788, 16.196 317.7053395677789 Z M 18.084 319.1813395677789 L 18.084 318.2893395677789 C 18.268 318.23600623444554, 18.366666666666667 318.1120062344455, 18.38 317.91733956777887 C 18.398666666666667 317.4506729011122, 18.410666666666668 317.00200623444556, 18.416 316.57133956777886 C 18.421333333333333 316.14067290111217, 18.421333333333333 315.7100062344455, 18.416 315.27933956777883 C 18.410666666666668 314.8486729011122, 18.398666666666667 314.3960062344455, 18.38 313.92133956777883 C 18.374666666666666 313.7266729011122, 18.276 313.6000062344455, 18.084 313.54133956777883 L 18.084 312.65333956777886 C 18.513333333333335 312.6933395677789, 18.846666666666668 312.8386729011122, 19.084 313.08933956777884 C 19.321333333333335 313.3400062344455, 19.445333333333334 313.68533956777884, 19.456 314.12533956777884 C 19.46666666666667 314.44000623444555, 19.474666666666668 314.75000623444555, 19.48 315.05533956777884 C 19.485333333333333 315.3606729011122, 19.488 315.6613395677789, 19.488 315.95733956777883 C 19.488 316.2533395677789, 19.485333333333333 316.5466729011122, 19.48 316.8373395677789 C 19.474666666666668 317.12800623444554, 19.46666666666667 317.41733956777887, 19.456 317.7053395677789 C 19.439999999999998 318.1560062344455, 19.311999999999998 318.5046729011122, 19.072 318.75133956777887 C 18.832 318.99800623444554, 18.502666666666666 319.14133956777886, 18.084 319.1813395677789 Z M 21.944 319.11733956777886 L 21.944 312.7173395677789 L 23.003999999999998 312.7173395677789 L 23.003999999999998 319.11733956777886 Z " stroke="none" fill-rule="nonzero" fill="#000000" fill-opacity="1" transform="matrix(1,0,0,1,5.05,13.314)" id="text10 l" />
  <path d="M 0 309.47009491551955 L 10 309.47009491551955 L 10 310.97009491551955 L 0 310.97009491551955 Z " stroke="none" fill-rule="evenodd" fill="#000000" fill-opacity="1" transform="matrix(1,0,0,1,5.05,13.314)" id="mark11 l" />
  <path d="M 0 298.7728502632603 L 10 298.7728502632603 L 10 300.2728502632603 L 0 300.2728502632603 Z " stroke="none" fill-rule="evenodd" fill="#000000" fill-opacity="1" transform="matrix(1,0,0,1,5.05,13.314)" id="mark12 l" />
  <path d="M 0 288.075605611001 L 10 288.075605611001 L 10 289.575605611001 L 0 289.575605611001 Z " stroke="none" fill-rule="evenodd" fill="#000000" fill-opacity="1" transform="matrix(1,0,0,1,5.05,13.314)" id="mark13 l" />
  <path d="M 0 277.3783609587417 L 10 277.3783609587417 L 10 278.8783609587417 L 0 278.8783609587417 Z " stroke="none" fill-rule="evenodd" fill="#000000" fill-opacity="1" transform="matrix(1,0,0,1,5.05,13.314)" id="mark14 l" />
  <path d="M 0 266.6811163064824 L 25 266.6811163064824 L 25 268.1811163064824 L 0 268.1811163064824 Z " stroke="none" fill-rule="evenodd" fill="#000000" fill-opacity="1" transform="matrix(1,0,0,1,5.05,13.314)" id="mark15 l" />
  <path d="M 14.331999999999999 265.5991163064824 L 14.331999999999999 260.1551163064824 L 13.879999999999999 260.1551163064824 L 13.847999999999999 259.7751163064824 L 14.552 259.19911630648244 L 15.432 259.19911630648244 L 15.432 265.5991163064824 Z M 16.18 264.1831163064824 C 16.174666666666667 264.0097829731491, 16.173333333333332 263.8704496398158, 16.176 263.7651163064824 C 16.178666666666665 263.65978297314905, 16.181333333333335 263.5577829731491, 16.183999999999997 263.45911630648243 L 17.264 263.45911630648243 C 17.256 263.5364496398157, 17.25 263.6324496398157, 17.246 263.74711630648244 C 17.241999999999997 263.86178297314905, 17.240666666666666 263.97244963981575, 17.241999999999997 264.07911630648243 C 17.243333333333332 264.18578297314906, 17.246666666666666 264.2657829731491, 17.252 264.31911630648244 C 17.262666666666668 264.4391163064824, 17.297333333333334 264.5371163064824, 17.355999999999998 264.6131163064824 C 17.414666666666665 264.6891163064824, 17.497333333333334 264.7431163064824, 17.604 264.7751163064824 L 17.604 265.6671163064824 C 17.110666666666663 265.6297829731491, 16.75333333333333 265.49511630648243, 16.532 265.2631163064824 C 16.310666666666666 265.0311163064824, 16.19333333333333 264.6711163064824, 16.18 264.1831163064824 Z M 16.279999999999998 262.8471163064824 L 16.279999999999998 259.19911630648244 L 17.348 259.19911630648244 L 17.348 262.8471163064824 Z M 17.852 262.4231163064824 L 17.852 261.6671163064824 C 17.929333333333332 261.6271163064824, 18.014666666666667 261.5951163064824, 18.107999999999997 261.5711163064824 C 18.20133333333333 261.5471163064824, 18.301333333333332 261.5351163064824, 18.407999999999998 261.5351163064824 C 18.773333333333333 261.5351163064824, 19.047333333333334 261.65044963981575, 19.23 261.8811163064824 C 19.412666666666667 262.11178297314905, 19.514666666666663 262.42578297314907, 19.535999999999998 262.8231163064824 C 19.546666666666667 262.98311630648243, 19.55333333333333 263.1417829731491, 19.555999999999997 263.2991163064824 C 19.558666666666664 263.45644963981573, 19.557333333333332 263.6097829731491, 19.552 263.75911630648244 C 19.546666666666667 263.9084496398158, 19.538666666666668 264.0484496398158, 19.528 264.1791163064824 C 19.482666666666667 264.6777829731491, 19.353333333333335 265.0431163064824, 19.14 265.2751163064824 C 18.926666666666666 265.50711630648243, 18.581333333333333 265.6377829731491, 18.104 265.6671163064824 L 18.104 264.7751163064824 C 18.21333333333333 264.74578297314906, 18.296 264.6931163064824, 18.352 264.6171163064824 C 18.408 264.5411163064824, 18.44 264.4417829731491, 18.448 264.31911630648244 C 18.471999999999998 264.02844963981573, 18.485999999999997 263.7671163064824, 18.49 263.5351163064824 C 18.494 263.3031163064824, 18.485333333333333 263.0817829731491, 18.464 262.8711163064824 C 18.447999999999997 262.7164496398158, 18.396666666666665 262.6011163064824, 18.31 262.5251163064824 C 18.223333333333333 262.44911630648244, 18.090666666666664 262.4111163064824, 17.912 262.4111163064824 C 17.901333333333334 262.4111163064824, 17.890666666666668 262.41244963981575, 17.88 262.4151163064824 C 17.86933333333333 262.4177829731491, 17.86 262.42044963981573, 17.852 262.4231163064824 Z M 17.852 260.1311163064824 L 17.852 259.19911630648244 L 19.439999999999998 259.19911630648244 L 19.439999999999998 260.1311163064824 Z M 21.944 265.5991163064824 L 21.944 259.19911630648244 L 23.003999999999998 259.19911630648244 L 23.003999999999998 265.5991163064824 Z " stroke="none" fill-rule="nonzero" fill="#000000" fill-opacity="1" transform="matrix(1,0,0,1,5.05,13.314)" id="text15 l" />
  <path d="M 0 255.9838716542231 L 10 255.9838716542231 L 10 257.4838716542231 L 0 257.4838716542231 Z " stroke="none" fill-rule="evenodd" fill="#000000" fill-opacity="1" transform="matrix(1,0,0,1,5.05,13.314)" id="mark16 l" />
  <path d="M 0 245.2866270019638 L 10 245.2866270019638 L 10 246.7866270019638 L 0 246.7866270019638 Z " stroke="none" fill-rule="evenodd" fill="#000000" fill-opacity="1" transform="matrix(1,0,0,1,5.05,13.314)" id="mark17 l" />
  <path d="M 0 234.58938234970452 L 10 234.58938234970452 L 10 236.08938234970452 L 0 236.08938234970452 Z " stroke="none" fill-rule="evenodd" fill="#000000" fill-opacity="1" transform="matrix(1,0,0,1,5.05,13.314)" id="mark18 l" />
  <path d="M 0 223.8921376974452 L 10 223.8921376974452 L 10 225.3921376974452 L 0 225.3921376974452 Z " stroke="none" fill-rule="evenodd" fill="#000000" fill-opacity="1" transform="matrix(1,0,0,1,5.05,13.314)" id="mark19 l" />
  <path d="M 0 213.19489304518592 L 25 213.19489304518592 L 25 214.69489304518592 L 0 214.69489304518592 Z " stroke="none" fill-rule="evenodd" fill="#000000" fill-opacity="1" transform="matrix(1,0,0,1,5.05,13.314)" id="mark20 l" />
  <path d="M 12.319999999999999 212.14489304518594 C 12.317333333333334 212.04622637851926, 12.315333333333331 211.95755971185258, 12.313999999999998 211.87889304518595 C 12.312666666666665 211.80022637851926, 12.311333333333334 211.72622637851927, 12.309999999999999 211.65689304518594 C 12.308666666666667 211.5875597118526, 12.308 211.5155597118526, 12.308 211.44089304518593 C 12.308 211.36622637851926, 12.308 211.2815597118526, 12.308 211.18689304518594 C 12.308 211.09222637851929, 12.309333333333335 210.98089304518595, 12.312 210.85289304518594 C 12.32 210.55955971185261, 12.37 210.2975597118526, 12.462 210.06689304518594 C 12.554 209.83622637851926, 12.687999999999999 209.63022637851924, 12.863999999999999 209.44889304518594 C 13.04 209.26755971185258, 13.257333333333333 209.10622637851927, 13.515999999999998 208.96489304518593 L 14.047999999999998 208.67689304518595 C 14.234666666666666 208.57555971185263, 14.354 208.45355971185262, 14.405999999999999 208.31089304518594 C 14.457999999999998 208.16822637851925, 14.488 208.0342263785193, 14.495999999999999 207.90889304518595 C 14.506666666666664 207.7622263785193, 14.512666666666664 207.6055597118526, 14.514 207.43889304518595 C 14.51533333333333 207.2722263785193, 14.511999999999997 207.1155597118526, 14.504 206.96889304518595 C 14.498666666666665 206.86489304518597, 14.468666666666666 206.77889304518595, 14.413999999999998 206.71089304518594 C 14.359333333333332 206.64289304518593, 14.279999999999998 206.5942263785193, 14.175999999999998 206.56489304518593 L 14.175999999999998 205.67689304518595 C 14.663999999999998 205.70889304518596, 15.014 205.84022637851928, 15.225999999999999 206.07089304518593 C 15.437999999999999 206.30155971185258, 15.554666666666666 206.66222637851928, 15.575999999999999 207.15289304518595 C 15.578666666666663 207.21689304518594, 15.580666666666666 207.28222637851928, 15.581999999999999 207.34889304518595 C 15.583333333333332 207.4155597118526, 15.584 207.48022637851926, 15.584 207.54289304518593 C 15.584 207.6055597118526, 15.583333333333332 207.66755971185262, 15.581999999999999 207.72889304518594 C 15.580666666666666 207.79022637851926, 15.578666666666663 207.85022637851927, 15.575999999999999 207.90889304518595 C 15.565333333333331 208.19422637851926, 15.512 208.44089304518593, 15.415999999999999 208.64889304518593 C 15.32 208.85689304518593, 15.19 209.03689304518593, 15.026 209.18889304518595 C 14.862 209.34089304518594, 14.672 209.47689304518593, 14.456 209.59689304518594 L 13.851999999999999 209.92489304518594 C 13.737333333333332 209.9862263785193, 13.647333333333332 210.0702263785193, 13.581999999999999 210.17689304518595 C 13.516666666666666 210.2835597118526, 13.469999999999999 210.39689304518595, 13.441999999999998 210.51689304518595 C 13.413999999999998 210.63689304518593, 13.399999999999999 210.74889304518592, 13.399999999999999 210.85289304518594 L 13.399999999999999 212.14489304518594 Z M 12.328 208.10489304518595 C 12.322666666666667 207.9875597118526, 12.318666666666665 207.87289304518595, 12.315999999999999 207.76089304518592 C 12.313333333333333 207.64889304518596, 12.311333333333334 207.54289304518596, 12.309999999999999 207.44289304518594 C 12.308666666666667 207.34289304518592, 12.309333333333335 207.24622637851928, 12.312 207.15289304518595 C 12.330666666666666 206.66489304518592, 12.447333333333333 206.3055597118526, 12.661999999999999 206.07489304518595 C 12.876666666666665 205.8442263785193, 13.213333333333331 205.7115597118526, 13.671999999999999 205.67689304518595 L 13.671999999999999 206.56889304518594 C 13.576 206.59822637851926, 13.505333333333333 206.64489304518594, 13.459999999999999 206.70889304518593 C 13.414666666666665 206.77289304518592, 13.390666666666664 206.85022637851927, 13.387999999999998 206.94089304518593 C 13.382666666666665 207.14889304518593, 13.379333333333333 207.34222637851929, 13.378 207.52089304518594 C 13.376666666666667 207.6995597118526, 13.381333333333334 207.89422637851928, 13.392 208.10489304518595 Z M 13.904 212.14489304518594 L 13.904 211.21289304518595 L 15.5 211.21289304518595 L 15.5 212.14489304518594 Z M 16.196 210.73289304518593 C 16.188000000000002 210.30355971185259, 16.182666666666666 209.88689304518596, 16.18 209.48289304518593 C 16.177333333333333 209.07889304518596, 16.177999999999997 208.6835597118526, 16.182 208.29689304518593 C 16.186 207.91022637851927, 16.190666666666665 207.52889304518595, 16.196 207.15289304518595 C 16.209333333333333 206.71289304518592, 16.334000000000003 206.3675597118526, 16.57 206.11689304518595 C 16.805999999999997 205.8662263785193, 17.142666666666663 205.72089304518596, 17.58 205.68089304518594 L 17.58 206.56889304518594 C 17.382666666666665 206.62489304518596, 17.281333333333333 206.7542263785193, 17.276 206.95689304518595 C 17.262666666666668 207.32755971185262, 17.253333333333334 207.6755597118526, 17.248 208.00089304518593 C 17.242666666666665 208.32622637851927, 17.24 208.64289304518593, 17.24 208.95089304518595 C 17.24 209.2588930451859, 17.242666666666665 209.5735597118526, 17.248 209.89489304518594 C 17.253333333333334 210.21622637851928, 17.262666666666668 210.55955971185261, 17.276 210.92489304518594 C 17.281333333333333 211.13289304518594, 17.382666666666665 211.26489304518594, 17.58 211.32089304518593 L 17.58 212.20889304518593 C 17.142666666666663 212.16889304518594, 16.805999999999997 212.02289304518592, 16.57 211.77089304518594 C 16.334000000000003 211.5188930451859, 16.209333333333333 211.1728930451859, 16.196 210.73289304518593 Z M 18.084 212.20889304518593 L 18.084 211.31689304518594 C 18.268 211.26355971185262, 18.366666666666667 211.1395597118526, 18.38 210.94489304518595 C 18.398666666666667 210.47822637851925, 18.410666666666668 210.02955971185258, 18.416 209.59889304518595 C 18.421333333333333 209.16822637851925, 18.421333333333333 208.7375597118526, 18.416 208.30689304518594 C 18.410666666666668 207.87622637851928, 18.398666666666667 207.4235597118526, 18.38 206.94889304518594 C 18.374666666666666 206.75422637851926, 18.276 206.6275597118526, 18.084 206.56889304518594 L 18.084 205.68089304518594 C 18.513333333333335 205.72089304518596, 18.846666666666668 205.8662263785193, 19.084 206.11689304518595 C 19.321333333333335 206.3675597118526, 19.445333333333334 206.71289304518592, 19.456 207.15289304518595 C 19.46666666666667 207.46755971185257, 19.474666666666668 207.77755971185258, 19.48 208.08289304518593 C 19.485333333333333 208.38822637851928, 19.488 208.68889304518592, 19.488 208.98489304518594 C 19.488 209.28089304518596, 19.485333333333333 209.57422637851926, 19.48 209.86489304518594 C 19.474666666666668 210.15555971185262, 19.46666666666667 210.44489304518595, 19.456 210.73289304518593 C 19.439999999999998 211.18355971185258, 19.311999999999998 211.53222637851928, 19.072 211.77889304518592 C 18.832 212.02555971185262, 18.502666666666666 212.16889304518594, 18.084 212.20889304518593 Z M 21.944 212.14489304518594 L 21.944 205.74489304518593 L 23.003999999999998 205.74489304518593 L 23.003999999999998 212.14489304518594 Z " stroke="none" fill-rule="nonzero" fill="#000000" fill-opacity="1" transform="matrix(1,0,0,1,5.05,13.314)" id="text20 l" />
  <path d="M 0 202.49764839292664 L 10 202.49764839292664 L 10 203.99764839292664 L 0 203.99764839292664 Z " stroke="none" fill-rule="evenodd" fill="#000000" fill-opacity="1" transform="matrix(1,0,0,1,5.05,13.314)" id="mark21 l" />
  <path d="M 0 191.80040374066732 L 10 191.80040374066732 L 10 193.30040374066732 L 0 193.30040374066732 Z " stroke="none" fill-rule="evenodd" fill="#000000" fill-opacity="1" transform="matrix(1,0,0,1,5.05,13.314)" id="mark22 l" />
  <path d="M 0 181.10315908840803 L 10 181.10315908840803 L 10 182.60315908840803 L 0 182.60315908840803 Z " stroke="none" fill-rule="evenodd" fill="#000000" fill-opacity="1" transform="matrix(1,0,0,1,5.05,13.314)" id="mark23 l" />
  <path d="M 0 170.40591443614875 L 10 170.40591443614875 L 10 171.90591443614875 L 0 171.90591443614875 Z " stroke="none" fill-rule="evenodd" fill="#000000" fill-opacity="1" transform="matrix(1,0,0,1,5.05,13.314)" id="mark24 l" />
  <path d="M 0 159.70866978388943 L 25 159.70866978388943 L 25 161.20866978388943 L 0 161.20866978388943 Z " stroke="none" fill-rule="evenodd" fill="#000000" fill-opacity="1" transform="matrix(1,0,0,1,5.05,13.314)" id="mark25 l" />
  <path d="M 12.328 158.65866978388945 C 12.325333333333333 158.56000311722278, 12.323333333333332 158.47133645055612, 12.322 158.39266978388946 C 12.320666666666666 158.3140031172228, 12.319333333333333 158.24000311722278, 12.318 158.17066978388945 C 12.316666666666666 158.10133645055612, 12.315999999999999 158.02933645055612, 12.316 157.95466978388944 C 12.315999999999999 157.88000311722277, 12.315999999999999 157.7953364505561, 12.316 157.70066978388945 C 12.315999999999999 157.6060031172228, 12.317333333333334 157.49466978388946, 12.32 157.36666978388945 C 12.328 157.07333645055613, 12.378 156.81133645055613, 12.47 156.58066978388945 C 12.562000000000001 156.35000311722277, 12.696 156.14400311722278, 12.872 155.96266978388945 C 13.048 155.78133645055613, 13.265333333333334 155.62000311722278, 13.524000000000001 155.47866978388944 L 14.056000000000001 155.19066978388946 C 14.242666666666668 155.08933645055612, 14.362000000000002 154.9673364505561, 14.414 154.82466978388945 C 14.466000000000001 154.6820031172228, 14.495999999999999 154.54800311722278, 14.504 154.42266978388946 C 14.514666666666667 154.27600311722279, 14.520666666666667 154.11933645055615, 14.522 153.95266978388946 C 14.523333333333333 153.78600311722278, 14.520000000000001 153.62933645055614, 14.512 153.48266978388946 C 14.506666666666666 153.37866978388945, 14.476666666666667 153.29266978388947, 14.422 153.22466978388945 C 14.367333333333335 153.15666978388944, 14.288 153.10800311722278, 14.184000000000001 153.07866978388944 L 14.184000000000001 152.19066978388946 C 14.672 152.22266978388944, 15.022000000000002 152.3540031172228, 15.234 152.58466978388944 C 15.446000000000002 152.81533645055612, 15.562666666666667 153.1760031172228, 15.584 153.66666978388946 C 15.586666666666668 153.73066978388945, 15.588666666666668 153.7960031172228, 15.59 153.86266978388946 C 15.591333333333335 153.92933645055612, 15.592000000000002 153.99400311722277, 15.592 154.05666978388945 C 15.592000000000002 154.11933645055612, 15.591333333333335 154.1813364505561, 15.59 154.24266978388945 C 15.588666666666668 154.30400311722278, 15.586666666666668 154.36400311722278, 15.584 154.42266978388946 C 15.573333333333332 154.7080031172228, 15.52 154.95466978388944, 15.424 155.16266978388944 C 15.328 155.37066978388944, 15.197999999999999 155.55066978388945, 15.033999999999999 155.70266978388946 C 14.87 155.85466978388945, 14.68 155.99066978388944, 14.464 156.11066978388945 L 13.86 156.43866978388945 C 13.745333333333335 156.50000311722278, 13.655333333333335 156.58400311722278, 13.59 156.69066978388946 C 13.524666666666668 156.79733645055614, 13.478000000000002 156.91066978388946, 13.45 157.03066978388944 C 13.422 157.15066978388944, 13.408 157.26266978388944, 13.408 157.36666978388945 L 13.408 158.65866978388945 Z M 12.336 154.61866978388946 C 12.330666666666666 154.50133645055612, 12.326666666666664 154.38666978388946, 12.324 154.27466978388946 C 12.321333333333332 154.16266978388947, 12.319333333333333 154.05666978388945, 12.318 153.95666978388945 C 12.316666666666666 153.85666978388946, 12.317333333333334 153.7600031172228, 12.32 153.66666978388946 C 12.338666666666668 153.17866978388946, 12.455333333333336 152.81933645055614, 12.67 152.58866978388946 C 12.884666666666668 152.35800311722278, 13.221333333333334 152.22533645055614, 13.68 152.19066978388946 L 13.68 153.08266978388946 C 13.584 153.11200311722277, 13.513333333333332 153.15866978388942, 13.468 153.22266978388944 C 13.422666666666668 153.28666978388947, 13.398666666666667 153.36400311722278, 13.396 153.45466978388944 C 13.390666666666666 153.66266978388944, 13.387333333333332 153.85600311722277, 13.386 154.03466978388946 C 13.384666666666666 154.21333645055614, 13.389333333333333 154.4080031172228, 13.4 154.61866978388946 Z M 13.911999999999999 158.65866978388945 L 13.911999999999999 157.72666978388946 L 15.508 157.72666978388946 L 15.508 158.65866978388945 Z M 16.18 157.24266978388945 C 16.174666666666667 157.06933645055614, 16.173333333333332 156.93000311722278, 16.176 156.82466978388945 C 16.178666666666665 156.7193364505561, 16.181333333333335 156.61733645055614, 16.183999999999997 156.51866978388946 L 17.264 156.51866978388946 C 17.256 156.59600311722278, 17.25 156.69200311722278, 17.246 156.80666978388945 C 17.241999999999997 156.9213364505561, 17.240666666666666 157.03200311722279, 17.241999999999997 157.13866978388944 C 17.243333333333332 157.2453364505561, 17.246666666666666 157.3253364505561, 17.252 157.37866978388945 C 17.262666666666668 157.49866978388945, 17.297333333333334 157.59666978388947, 17.355999999999998 157.67266978388946 C 17.414666666666665 157.74866978388945, 17.497333333333334 157.80266978388943, 17.604 157.83466978388944 L 17.604 158.72666978388946 C 17.110666666666663 158.6893364505561, 16.75333333333333 158.55466978388944, 16.532 158.32266978388944 C 16.310666666666666 158.09066978388944, 16.19333333333333 157.73066978388945, 16.18 157.24266978388945 Z M 16.279999999999998 155.90666978388944 L 16.279999999999998 152.25866978388945 L 17.348 152.25866978388945 L 17.348 155.90666978388944 Z M 17.852 155.48266978388946 L 17.852 154.72666978388946 C 17.929333333333332 154.68666978388947, 18.014666666666667 154.65466978388946, 18.107999999999997 154.63066978388946 C 18.20133333333333 154.60666978388946, 18.301333333333332 154.59466978388946, 18.407999999999998 154.59466978388946 C 18.773333333333333 154.59466978388946, 19.047333333333334 154.71000311722278, 19.23 154.94066978388946 C 19.412666666666667 155.17133645055614, 19.514666666666663 155.48533645055613, 19.535999999999998 155.88266978388944 C 19.546666666666667 156.04266978388944, 19.55333333333333 156.2013364505561, 19.555999999999997 156.35866978388944 C 19.558666666666664 156.5160031172228, 19.557333333333332 156.6693364505561, 19.552 156.81866978388945 C 19.546666666666667 156.9680031172228, 19.538666666666668 157.10800311722278, 19.528 157.23866978388946 C 19.482666666666667 157.7373364505561, 19.353333333333335 158.10266978388944, 19.14 158.33466978388944 C 18.926666666666666 158.56666978388944, 18.581333333333333 158.69733645055612, 18.104 158.72666978388946 L 18.104 157.83466978388944 C 18.21333333333333 157.80533645055613, 18.296 157.75266978388947, 18.352 157.67666978388945 C 18.408 157.60066978388943, 18.44 157.5013364505561, 18.448 157.37866978388945 C 18.471999999999998 157.0880031172228, 18.485999999999997 156.82666978388946, 18.49 156.59466978388946 C 18.494 156.36266978388946, 18.485333333333333 156.1413364505561, 18.464 155.93066978388944 C 18.447999999999997 155.77600311722279, 18.396666666666665 155.66066978388943, 18.31 155.58466978388944 C 18.223333333333333 155.50866978388945, 18.090666666666664 155.47066978388946, 17.912 155.47066978388946 C 17.901333333333334 155.47066978388946, 17.890666666666668 155.47200311722278, 17.88 155.47466978388945 C 17.86933333333333 155.47733645055612, 17.86 155.4800031172228, 17.852 155.48266978388946 Z M 17.852 153.19066978388946 L 17.852 152.25866978388945 L 19.439999999999998 152.25866978388945 L 19.439999999999998 153.19066978388946 Z M 21.944 158.65866978388945 L 21.944 152.25866978388945 L 23.003999999999998 152.25866978388945 L 23.003999999999998 158.65866978388945 Z " stroke="none" fill-rule="nonzero" fill="#000000" fill-opacity="1" transform="matrix(1,0,0,1,5.05,13.314)" id="text25 l" />
  <path d="M 0 149.01142513163012 L 10 149.01142513163012 L 10 150.51142513163012 L 0 150.51142513163012 Z " stroke="none" fill-rule="evenodd" fill="#000000" fill-opacity="1" transform="matrix(1,0,0,1,5.05,13.314)" id="mark26 l" />
  <path d="M 0 138.31418047937086 L 10 138.31418047937086 L 10 139.81418047937086 L 0 139.81418047937086 Z " stroke="none" fill-rule="evenodd" fill="#000000" fill-opacity="1" transform="matrix(1,0,0,1,5.05,13.314)" id="mark27 l" />
  <path d="M 0 127.61693582711155 L 10 127.61693582711155 L 10 129.11693582711155 L 0 129.11693582711155 Z " stroke="none" fill-rule="evenodd" fill="#000000" fill-opacity="1" transform="matrix(1,0,0,1,5.05,13.314)" id="mark28 l" />
  <path d="M 0 116.91969117485223 L 10 116.91969117485223 L 10 118.41969117485223 L 0 118.41969117485223 Z " stroke="none" fill-rule="evenodd" fill="#000000" fill-opacity="1" transform="matrix(1,0,0,1,5.05,13.314)" id="mark29 l" />
  <path d="M 0 106.22244652259297 L 25 106.22244652259297 L 25 107.72244652259297 L 0 107.72244652259297 Z " stroke="none" fill-rule="evenodd" fill="#000000" fill-opacity="1" transform="matrix(1,0,0,1,5.05,13.314)" id="mark30 l" />
  <path d="M 12.223999999999998 103.75644652259298 C 12.221333333333334 103.65511318925965, 12.219333333333333 103.57111318925965, 12.218 103.50444652259297 C 12.216666666666667 103.4377798559263, 12.216666666666667 103.36977985592631, 12.218 103.30044652259298 C 12.219333333333333 103.23111318925964, 12.221333333333334 103.1417798559263, 12.223999999999998 103.03244652259298 L 13.303999999999998 103.03244652259298 L 13.303999999999998 103.89644652259298 C 13.303999999999998 104.13377985592632, 13.417333333333332 104.28444652259299, 13.643999999999998 104.34844652259298 L 13.643999999999998 105.24044652259298 C 13.155999999999999 105.20311318925964, 12.800666666666665 105.06844652259298, 12.578 104.83644652259298 C 12.355333333333334 104.60444652259298, 12.237333333333332 104.24444652259297, 12.223999999999998 103.75644652259298 Z M 12.292 99.70444652259297 L 12.292 98.77244652259297 L 15.536 98.77244652259297 L 15.536 99.70444652259297 Z M 14.143999999999998 104.35244652259298 C 14.367999999999999 104.29644652259299, 14.483999999999998 104.14577985592632, 14.491999999999999 103.90044652259297 C 14.497333333333334 103.69777985592631, 14.500666666666666 103.51511318925967, 14.501999999999999 103.35244652259298 C 14.503333333333332 103.1897798559263, 14.498666666666665 103.03244652259298, 14.488 102.88044652259298 C 14.48 102.72311318925964, 14.431999999999999 102.58977985592631, 14.344 102.48044652259298 C 14.256 102.37111318925966, 14.089333333333332 102.31911318925964, 13.844 102.32444652259298 L 13.096 102.33244652259297 L 13.068 101.44044652259298 L 14.027999999999999 100.05644652259298 L 15.216 100.05644652259298 L 14.248 101.40844652259298 L 14.28 101.40844652259298 C 14.712 101.40844652259298, 15.028666666666666 101.53111318925966, 15.229999999999999 101.77644652259298 C 15.431333333333333 102.0217798559263, 15.544 102.39911318925964, 15.568 102.90844652259298 C 15.57333333333333 102.98044652259297, 15.576666666666664 103.05244652259296, 15.578 103.12444652259298 C 15.57933333333333 103.19644652259296, 15.579999999999998 103.26711318925965, 15.579999999999998 103.33644652259298 C 15.579999999999998 103.40577985592631, 15.57933333333333 103.47511318925964, 15.578 103.54444652259298 C 15.576666666666664 103.61377985592631, 15.57333333333333 103.68444652259296, 15.568 103.75644652259298 C 15.549333333333333 104.25244652259298, 15.428666666666665 104.61711318925964, 15.206 104.85044652259297 C 14.983333333333334 105.08377985592631, 14.630666666666666 105.21377985592632, 14.148 105.24044652259298 Z M 16.196 103.76044652259297 C 16.188000000000002 103.33111318925964, 16.182666666666666 102.91444652259298, 16.18 102.51044652259297 C 16.177333333333333 102.10644652259296, 16.177999999999997 101.71111318925963, 16.182 101.32444652259298 C 16.186 100.93777985592632, 16.190666666666665 100.55644652259298, 16.196 100.18044652259297 C 16.209333333333333 99.74044652259298, 16.334000000000003 99.39511318925963, 16.57 99.14444652259297 C 16.805999999999997 98.89377985592631, 17.142666666666663 98.74844652259299, 17.58 98.70844652259298 L 17.58 99.59644652259298 C 17.382666666666665 99.65244652259298, 17.281333333333333 99.78177985592632, 17.276 99.98444652259298 C 17.262666666666668 100.35511318925964, 17.253333333333334 100.70311318925962, 17.248 101.02844652259297 C 17.242666666666665 101.35377985592629, 17.24 101.67044652259297, 17.24 101.97844652259298 C 17.24 102.28644652259298, 17.242666666666665 102.60111318925965, 17.248 102.92244652259298 C 17.253333333333334 103.2437798559263, 17.262666666666668 103.58711318925964, 17.276 103.95244652259298 C 17.281333333333333 104.16044652259298, 17.382666666666665 104.29244652259297, 17.58 104.34844652259298 L 17.58 105.23644652259297 C 17.142666666666663 105.19644652259298, 16.805999999999997 105.05044652259298, 16.57 104.79844652259298 C 16.334000000000003 104.54644652259299, 16.209333333333333 104.20044652259298, 16.196 103.76044652259297 Z M 18.084 105.23644652259297 L 18.084 104.34444652259297 C 18.268 104.29111318925965, 18.366666666666667 104.16711318925965, 18.38 103.97244652259297 C 18.398666666666667 103.5057798559263, 18.410666666666668 103.05711318925964, 18.416 102.62644652259297 C 18.421333333333333 102.1957798559263, 18.421333333333333 101.76511318925964, 18.416 101.33444652259298 C 18.410666666666668 100.9037798559263, 18.398666666666667 100.45111318925964, 18.38 99.97644652259298 C 18.374666666666666 99.78177985592632, 18.276 99.65511318925965, 18.084 99.59644652259298 L 18.084 98.70844652259298 C 18.513333333333335 98.74844652259299, 18.846666666666668 98.89377985592631, 19.084 99.14444652259297 C 19.321333333333335 99.39511318925963, 19.445333333333334 99.74044652259298, 19.456 100.18044652259297 C 19.46666666666667 100.49511318925964, 19.474666666666668 100.80511318925964, 19.48 101.11044652259298 C 19.485333333333333 101.41577985592632, 19.488 101.71644652259297, 19.488 102.01244652259298 C 19.488 102.30844652259299, 19.485333333333333 102.60177985592631, 19.48 102.89244652259298 C 19.474666666666668 103.18311318925964, 19.46666666666667 103.47244652259297, 19.456 103.76044652259297 C 19.439999999999998 104.21111318925963, 19.311999999999998 104.55977985592631, 19.072 104.80644652259298 C 18.832 105.05311318925965, 18.502666666666666 105.19644652259298, 18.084 105.23644652259297 Z M 21.944 105.17244652259298 L 21.944 98.77244652259297 L 23.003999999999998 98.77244652259297 L 23.003999999999998 105.17244652259298 Z " stroke="none" fill-rule="nonzero" fill="#000000" fill-opacity="1" transform="matrix(1,0,0,1,5.05,13.314)" id="text30 l" />
  <path d="M 0 95.52520187033366 L 10 95.52520187033366 L 10 97.02520187033366 L 0 97.02520187033366 Z " stroke="none" fill-rule="evenodd" fill="#000000" fill-opacity="1" transform="matrix(1,0,0,1,5.05,13.314)" id="mark31 l" />
  <path d="M 0 84.82795721807435 L 10 84.82795721807435 L 10 86.32795721807435 L 0 86.32795721807435 Z " stroke="none" fill-rule="evenodd" fill="#000000" fill-opacity="1" transform="matrix(1,0,0,1,5.05,13.314)" id="mark32 l" />
  <path d="M 0 74.13071256581509 L 10 74.13071256581509 L 10 75.63071256581509 L 0 75.63071256581509 Z " stroke="none" fill-rule="evenodd" fill="#000000" fill-opacity="1" transform="matrix(1,0,0,1,5.05,13.314)" id="mark33 l" />
  <path d="M 0 63.43346791355577 L 10 63.43346791355577 L 10 64.93346791355577 L 0 64.93346791355577 Z " stroke="none" fill-rule="evenodd" fill="#000000" fill-opacity="1" transform="matrix(1,0,0,1,5.05,13.314)" id="mark34 l" />
  <path d="M 0 52.73622326129646 L 25 52.73622326129646 L 25 54.23622326129646 L 0 54.23622326129646 Z " stroke="none" fill-rule="evenodd" fill="#000000" fill-opacity="1" transform="matrix(1,0,0,1,5.05,13.314)" id="mark35 l" />
  <path d="M 12.232 50.23822326129646 C 12.229333333333333 50.136889927963125, 12.227333333333334 50.05288992796312, 12.226 49.98622326129646 C 12.224666666666668 49.919556594629796, 12.224666666666668 49.8515565946298, 12.226 49.78222326129646 C 12.227333333333334 49.71288992796313, 12.229333333333333 49.62355659462979, 12.232 49.51422326129646 L 13.312 49.51422326129646 L 13.312 50.378223261296455 C 13.312 50.61555659462979, 13.425333333333333 50.76622326129646, 13.652 50.83022326129646 L 13.652 51.722223261296456 C 13.164 51.68488992796313, 12.808666666666667 51.550223261296466, 12.586 51.31822326129646 C 12.363333333333333 51.08622326129647, 12.245333333333335 50.72622326129647, 12.232 50.23822326129646 Z M 12.3 46.18622326129646 L 12.3 45.25422326129646 L 15.544 45.25422326129646 L 15.544 46.18622326129646 Z M 14.152000000000001 50.83422326129646 C 14.376000000000001 50.77822326129645, 14.492 50.62755659462979, 14.5 50.38222326129646 C 14.505333333333333 50.179556594629794, 14.508666666666667 49.996889927963124, 14.51 49.83422326129646 C 14.511333333333333 49.67155659462979, 14.506666666666668 49.514223261296465, 14.496 49.36222326129646 C 14.488 49.20488992796312, 14.440000000000001 49.0715565946298, 14.352 48.96222326129646 C 14.264 48.85288992796312, 14.097333333333335 48.80088992796313, 13.852 48.80622326129646 L 13.104 48.81422326129646 L 13.076 47.92222326129646 L 14.036 46.53822326129646 L 15.224 46.53822326129646 L 14.256 47.890223261296455 L 14.288 47.890223261296455 C 14.719999999999999 47.890223261296455, 15.036666666666665 48.01288992796312, 15.238 48.25822326129646 C 15.439333333333334 48.503556594629785, 15.552 48.880889927963125, 15.576 49.390223261296455 C 15.581333333333333 49.46222326129646, 15.584666666666667 49.53422326129646, 15.586 49.606223261296456 C 15.587333333333333 49.678223261296466, 15.588000000000001 49.748889927963134, 15.588000000000001 49.81822326129646 C 15.588000000000001 49.8875565946298, 15.587333333333333 49.95688992796313, 15.586 50.02622326129646 C 15.584666666666667 50.0955565946298, 15.581333333333333 50.166223261296466, 15.576 50.23822326129646 C 15.557333333333334 50.734223261296464, 15.436666666666667 51.09888992796313, 15.214 51.332223261296456 C 14.991333333333333 51.5655565946298, 14.638666666666666 51.69555659462979, 14.156 51.722223261296456 Z M 16.18 50.23822326129646 C 16.174666666666667 50.06488992796312, 16.173333333333332 49.92555659462979, 16.176 49.820223261296455 C 16.178666666666665 49.71488992796313, 16.181333333333335 49.612889927963124, 16.183999999999997 49.51422326129646 L 17.264 49.51422326129646 C 17.256 49.59155659462979, 17.25 49.6875565946298, 17.246 49.80222326129646 C 17.241999999999997 49.916889927963126, 17.240666666666666 50.02755659462979, 17.241999999999997 50.134223261296455 C 17.243333333333332 50.240889927963124, 17.246666666666666 50.32088992796312, 17.252 50.37422326129646 C 17.262666666666668 50.494223261296455, 17.297333333333334 50.59222326129645, 17.355999999999998 50.66822326129646 C 17.414666666666665 50.744223261296455, 17.497333333333334 50.79822326129646, 17.604 50.83022326129646 L 17.604 51.722223261296456 C 17.110666666666663 51.68488992796313, 16.75333333333333 51.550223261296466, 16.532 51.31822326129646 C 16.310666666666666 51.08622326129647, 16.19333333333333 50.72622326129647, 16.18 50.23822326129646 Z M 16.279999999999998 48.902223261296456 L 16.279999999999998 45.25422326129646 L 17.348 45.25422326129646 L 17.348 48.902223261296456 Z M 17.852 48.478223261296456 L 17.852 47.722223261296456 C 17.929333333333332 47.68222326129646, 18.014666666666667 47.65022326129646, 18.107999999999997 47.62622326129646 C 18.20133333333333 47.60222326129646, 18.301333333333332 47.59022326129646, 18.407999999999998 47.59022326129646 C 18.773333333333333 47.59022326129646, 19.047333333333334 47.70555659462979, 19.23 47.93622326129646 C 19.412666666666667 48.166889927963126, 19.514666666666663 48.480889927963126, 19.535999999999998 48.878223261296455 C 19.546666666666667 49.03822326129646, 19.55333333333333 49.19688992796313, 19.555999999999997 49.35422326129646 C 19.558666666666664 49.511556594629795, 19.557333333333332 49.66488992796313, 19.552 49.814223261296455 C 19.546666666666667 49.96355659462979, 19.538666666666668 50.103556594629794, 19.528 50.23422326129646 C 19.482666666666667 50.73288992796313, 19.353333333333335 51.098223261296454, 19.14 51.33022326129646 C 18.926666666666666 51.56222326129645, 18.581333333333333 51.69288992796312, 18.104 51.722223261296456 L 18.104 50.83022326129646 C 18.21333333333333 50.80088992796313, 18.296 50.74822326129646, 18.352 50.67222326129646 C 18.408 50.59622326129646, 18.44 50.496889927963124, 18.448 50.37422326129646 C 18.471999999999998 50.0835565946298, 18.485999999999997 49.82222326129646, 18.49 49.59022326129646 C 18.494 49.35822326129646, 18.485333333333333 49.136889927963125, 18.464 48.92622326129646 C 18.447999999999997 48.771556594629786, 18.396666666666665 48.65622326129646, 18.31 48.58022326129646 C 18.223333333333333 48.50422326129646, 18.090666666666664 48.46622326129645, 17.912 48.466223261296456 C 17.901333333333334 48.46622326129645, 17.890666666666668 48.467556594629784, 17.88 48.47022326129646 C 17.86933333333333 48.472889927963124, 17.86 48.47555659462979, 17.852 48.478223261296456 Z M 17.852 46.18622326129646 L 17.852 45.25422326129646 L 19.439999999999998 45.25422326129646 L 19.439999999999998 46.18622326129646 Z M 21.944 51.65422326129646 L 21.944 45.25422326129646 L 23.003999999999998 45.25422326129646 L 23.003999999999998 51.65422326129646 Z " stroke="none" fill-rule="nonzero" fill="#000000" fill-opacity="1" transform="matrix(1,0,0,1,5.05,13.314)" id="text35 l" />
  <path d="M 0 42.0389786090372 L 10 42.0389786090372 L 10 43.5389786090372 L 0 43.5389786090372 Z " stroke="none" fill-rule="evenodd" fill="#000000" fill-opacity="1" transform="matrix(1,0,0,1,5.05,13.314)" id="mark36 l" />
  <path d="M 0 31.341733956777887 L 10 31.341733956777887 L 10 32.84173395677789 L 0 32.84173395677789 Z " stroke="none" fill-rule="evenodd" fill="#000000" fill-opacity="1" transform="matrix(1,0,0,1,5.05,13.314)" id="mark37 l" />
  <path d="M 0 20.644489304518572 L 10 20.644489304518572 L 10 22.144489304518572 L 0 22.144489304518572 Z " stroke="none" fill-rule="evenodd" fill="#000000" fill-opacity="1" transform="matrix(1,0,0,1,5.05,13.314)" id="mark38 l" />
  <path d="M 0 9.947244652259315 L 10 9.947244652259315 L 10 11.447244652259315 L 0 11.447244652259315 Z " stroke="none" fill-rule="evenodd" fill="#000000" fill-opacity="1" transform="matrix(1,0,0,1,5.05,13.314)" id="mark39 l" />
  <path d="M 0 -0.75 L 25 -0.75 L 25 0.75 L 0 0.75 Z " stroke="none" fill-rule="evenodd" fill="#000000" fill-opacity="1" transform="matrix(1,0,0,1,5.05,13.314)" id="mark40 l" />
  <path d="M 11.739999999999998 -3.484 L 11.739999999999998 -4.359999999999999 L 12.455999999999998 -6.24 L 13.495999999999999 -6.24 L 12.771999999999998 -4.4079999999999995 L 13.171999999999997 -4.4079999999999995 L 13.171999999999997 -3.484 Z M 13.675999999999998 -1.7999999999999998 L 13.675999999999998 -8.2 L 14.683999999999997 -8.2 L 14.683999999999997 -1.7999999999999998 Z M 15.187999999999999 -3.484 L 15.187999999999999 -4.4079999999999995 L 15.655999999999999 -4.4079999999999995 L 15.655999999999999 -3.484 Z M 16.195999999999998 -3.2119999999999997 C 16.188 -3.641333333333333, 16.182666666666666 -4.058, 16.18 -4.462 C 16.177333333333333 -4.866, 16.177999999999997 -5.261333333333333, 16.182 -5.648 C 16.186 -6.034666666666666, 16.190666666666665 -6.416, 16.195999999999998 -6.792 C 16.20933333333333 -7.231999999999999, 16.333999999999996 -7.577333333333334, 16.569999999999997 -7.828 C 16.805999999999997 -8.078666666666667, 17.142666666666663 -8.224, 17.58 -8.264 L 17.58 -7.3759999999999994 C 17.382666666666665 -7.32, 17.281333333333333 -7.190666666666667, 17.275999999999996 -6.9879999999999995 C 17.262666666666664 -6.617333333333333, 17.25333333333333 -6.269333333333333, 17.247999999999998 -5.944 C 17.242666666666665 -5.618666666666666, 17.24 -5.302, 17.24 -4.994 C 17.24 -4.686, 17.242666666666665 -4.371333333333333, 17.247999999999998 -4.05 C 17.25333333333333 -3.7286666666666664, 17.262666666666664 -3.3853333333333326, 17.275999999999996 -3.0199999999999996 C 17.281333333333333 -2.812, 17.382666666666665 -2.6799999999999997, 17.58 -2.6239999999999997 L 17.58 -1.7359999999999998 C 17.142666666666663 -1.7759999999999998, 16.805999999999997 -1.9219999999999997, 16.569999999999997 -2.174 C 16.333999999999996 -2.4259999999999997, 16.20933333333333 -2.772, 16.195999999999998 -3.2119999999999997 Z M 18.084 -1.7359999999999998 L 18.084 -2.6279999999999997 C 18.268 -2.681333333333333, 18.366666666666667 -2.8053333333333335, 18.38 -3 C 18.398666666666664 -3.4666666666666663, 18.410666666666664 -3.915333333333333, 18.415999999999997 -4.346 C 18.42133333333333 -4.776666666666666, 18.42133333333333 -5.207333333333333, 18.415999999999997 -5.638 C 18.410666666666664 -6.068666666666666, 18.398666666666664 -6.521333333333333, 18.38 -6.9959999999999996 C 18.374666666666666 -7.190666666666667, 18.276 -7.317333333333334, 18.084 -7.3759999999999994 L 18.084 -8.264 C 18.513333333333332 -8.224, 18.846666666666664 -8.078666666666667, 19.083999999999996 -7.828 C 19.32133333333333 -7.577333333333334, 19.44533333333333 -7.231999999999999, 19.456 -6.792 C 19.466666666666665 -6.477333333333332, 19.474666666666664 -6.167333333333333, 19.479999999999997 -5.861999999999999 C 19.48533333333333 -5.556666666666667, 19.488 -5.256, 19.488 -4.96 C 19.488 -4.664, 19.48533333333333 -4.370666666666667, 19.479999999999997 -4.08 C 19.474666666666664 -3.7893333333333334, 19.466666666666665 -3.5, 19.456 -3.2119999999999997 C 19.439999999999998 -2.761333333333333, 19.311999999999998 -2.4126666666666665, 19.072 -2.166 C 18.831999999999997 -1.9193333333333331, 18.502666666666663 -1.7759999999999998, 18.084 -1.7359999999999998 Z M 21.944 -1.7999999999999998 L 21.944 -8.2 L 23.003999999999998 -8.2 L 23.003999999999998 -1.7999999999999998 Z " stroke="none" fill-rule="nonzero" fill="#000000" fill-opacity="1" transform="matrix(1,0,0,1,5.05,13.314)" id="text40 l" />
  <path d="M -5 -13.264 L 30 -13.264 L 30 423.9605414381125 L -5 423.9605414381125 Z " stroke="#FF0000" stroke-opacity="1" stroke-width="0.1" stroke-linecap="butt" stroke-linejoin="miter" fill="none" transform="matrix(1,0,0,1,5.05,13.314)" />
</svg>