<?xml version="1.0" encoding="UTF-8"?>
<svg xmlns:xlink="http://www.w3.org/1999/xlink" viewBox="0 0 35.1 247.4642044169933" version="1.1" style="font-synthesis: none;" width="35.1mm" height="247.4642044169933mm" xmlns="http://www.w3.org/2000/svg">
  <defs />
  <style>	</style>
  <path d="M 0 0 L 35.1 0 L 35.1 247.4642044169933 L 0 247.4642044169933 Z " stroke="none" fill-rule="nonzero" fill="#FFFFFF" fill-opacity="1" transform="matrix(1,0,0,1,0,0)" />
  <path d="M 0 226.61420441699335 L 10 226.61420441699335 L 10 228.11420441699335 L 0 228.11420441699335 Z " stroke="none" fill-rule="evenodd" fill="#000000" fill-opacity="1" transform="matrix(1,0,0,1,5.05,13.314)" id="mark1 l" />
  <path d="M 0 210.37390410149382 L 10 210.37390410149382 L 10 211.87390410149382 L 0 211.87390410149382 Z " stroke="none" fill-rule="evenodd" fill="#000000" fill-opacity="1" transform="matrix(1,0,0,1,5.05,13.314)" id="mark2 l" />
  <path d="M 0 194.1336037859943 L 10 194.1336037859943 L 10 195.6336037859943 L 0 195.6336037859943 Z " stroke="none" fill-rule="evenodd" fill="#000000" fill-opacity="1" transform="matrix(1,0,0,1,5.05,13.314)" id="mark3 l" />
  <path d="M 0 177.89330347049477 L 10 177.89330347049477 L 10 179.39330347049477 L 0 179.39330347049477 Z " stroke="none" fill-rule="evenodd" fill="#000000" fill-opacity="1" transform="matrix(1,0,0,1,5.05,13.314)" id="mark4 l" />
  <path d="M 0 161.65300315499525 L 25 161.65300315499525 L 25 163.15300315499525 L 0 163.15300315499525 Z " stroke="none" fill-rule="evenodd" fill="#000000" fill-opacity="1" transform="matrix(1,0,0,1,5.05,13.314)" id="mark5 l" />
  <path d="M 16.18 159.15500315499526 C 16.174666666666667 158.98166982166194, 16.173333333333332 158.8423364883286, 16.176 158.73700315499525 C 16.178666666666665 158.63166982166194, 16.181333333333335 158.52966982166194, 16.183999999999997 158.43100315499527 L 17.264 158.43100315499527 C 17.256 158.50833648832858, 17.25 158.60433648832858, 17.246 158.71900315499525 C 17.241999999999997 158.8336698216619, 17.240666666666666 158.9443364883286, 17.241999999999997 159.05100315499524 C 17.243333333333332 159.1576698216619, 17.246666666666666 159.2376698216619, 17.252 159.29100315499525 C 17.262666666666668 159.41100315499526, 17.297333333333334 159.50900315499524, 17.355999999999998 159.58500315499526 C 17.414666666666665 159.66100315499523, 17.497333333333334 159.71500315499523, 17.604 159.74700315499524 L 17.604 160.63900315499527 C 17.110666666666663 160.60166982166191, 16.75333333333333 160.46700315499524, 16.532 160.23500315499524 C 16.310666666666666 160.00300315499524, 16.19333333333333 159.64300315499526, 16.18 159.15500315499526 Z M 16.279999999999998 157.81900315499524 L 16.279999999999998 154.17100315499525 L 17.348 154.17100315499525 L 17.348 157.81900315499524 Z M 17.852 157.39500315499527 L 17.852 156.63900315499527 C 17.929333333333332 156.59900315499527, 18.014666666666667 156.56700315499526, 18.107999999999997 156.54300315499526 C 18.20133333333333 156.51900315499526, 18.301333333333332 156.50700315499526, 18.407999999999998 156.50700315499526 C 18.773333333333333 156.50700315499526, 19.047333333333334 156.62233648832859, 19.23 156.85300315499526 C 19.412666666666667 157.0836698216619, 19.514666666666663 157.3976698216619, 19.535999999999998 157.79500315499524 C 19.546666666666667 157.95500315499524, 19.55333333333333 158.11366982166192, 19.555999999999997 158.27100315499524 C 19.558666666666664 158.4283364883286, 19.557333333333332 158.58166982166193, 19.552 158.73100315499525 C 19.546666666666667 158.88033648832857, 19.538666666666668 159.02033648832858, 19.528 159.15100315499527 C 19.482666666666667 159.64966982166192, 19.353333333333335 160.01500315499527, 19.14 160.24700315499524 C 18.926666666666666 160.47900315499527, 18.581333333333333 160.60966982166192, 18.104 160.63900315499527 L 18.104 159.74700315499524 C 18.21333333333333 159.71766982166193, 18.296 159.66500315499525, 18.352 159.58900315499525 C 18.408 159.51300315499526, 18.44 159.41366982166193, 18.448 159.29100315499525 C 18.471999999999998 159.00033648832857, 18.485999999999997 158.73900315499526, 18.49 158.50700315499526 C 18.494 158.27500315499526, 18.485333333333333 158.0536698216619, 18.464 157.84300315499524 C 18.447999999999997 157.68833648832856, 18.396666666666665 157.57300315499523, 18.31 157.49700315499524 C 18.223333333333333 157.42100315499525, 18.090666666666664 157.38300315499527, 17.912 157.38300315499527 C 17.901333333333334 157.38300315499527, 17.890666666666668 157.3843364883286, 17.88 157.38700315499526 C 17.86933333333333 157.38966982166193, 17.86 157.3923364883286, 17.852 157.39500315499527 Z M 17.852 155.10300315499526 L 17.852 154.17100315499525 L 19.439999999999998 154.17100315499525 L 19.439999999999998 155.10300315499526 Z M 21.944 160.57100315499525 L 21.944 154.17100315499525 L 23.003999999999998 154.17100315499525 L 23.003999999999998 160.57100315499525 Z " stroke="none" fill-rule="nonzero" fill="#000000" fill-opacity="1" transform="matrix(1,0,0,1,5.05,13.314)" id="text5 l" />
  <path d="M 0 145.41270283949572 L 10 145.41270283949572 L 10 146.91270283949572 L 0 146.91270283949572 Z " stroke="none" fill-rule="evenodd" fill="#000000" fill-opacity="1" transform="matrix(1,0,0,1,5.05,13.314)" id="mark6 l" />
  <path d="M 0 129.1724025239962 L 10 129.1724025239962 L 10 130.6724025239962 L 0 130.6724025239962 Z " stroke="none" fill-rule="evenodd" fill="#000000" fill-opacity="1" transform="matrix(1,0,0,1,5.05,13.314)" id="mark7 l" />
  <path d="M 0 112.93210220849667 L 10 112.93210220849667 L 10 114.43210220849667 L 0 114.43210220849667 Z " stroke="none" fill-rule="evenodd" fill="#000000" fill-opacity="1" transform="matrix(1,0,0,1,5.05,13.314)" id="mark8 l" />
  <path d="M 0 96.69180189299715 L 10 96.69180189299715 L 10 98.19180189299715 L 0 98.19180189299715 Z " stroke="none" fill-rule="evenodd" fill="#000000" fill-opacity="1" transform="matrix(1,0,0,1,5.05,13.314)" id="mark9 l" />
  <path d="M 0 80.45150157749762 L 25 80.45150157749762 L 25 81.95150157749762 L 0 81.95150157749762 Z " stroke="none" fill-rule="evenodd" fill="#000000" fill-opacity="1" transform="matrix(1,0,0,1,5.05,13.314)" id="mark10 l" />
  <path d="M 14.323999999999998 79.40150157749763 L 14.323999999999998 73.95750157749762 L 13.871999999999998 73.95750157749762 L 13.839999999999998 73.57750157749763 L 14.543999999999999 73.00150157749762 L 15.424 73.00150157749762 L 15.424 79.40150157749763 Z M 16.196 77.98950157749762 C 16.188000000000002 77.56016824416429, 16.182666666666666 77.14350157749763, 16.18 76.73950157749762 C 16.177333333333333 76.33550157749762, 16.177999999999997 75.9401682441643, 16.182 75.55350157749763 C 16.186 75.16683491083096, 16.190666666666665 74.78550157749763, 16.196 74.40950157749762 C 16.209333333333333 73.96950157749762, 16.334000000000003 73.62416824416428, 16.57 73.37350157749762 C 16.805999999999997 73.12283491083096, 17.142666666666663 72.97750157749763, 17.58 72.93750157749763 L 17.58 73.82550157749763 C 17.382666666666665 73.88150157749763, 17.281333333333333 74.01083491083097, 17.276 74.21350157749762 C 17.262666666666668 74.58416824416429, 17.253333333333334 74.93216824416429, 17.248 75.25750157749762 C 17.242666666666665 75.58283491083095, 17.24 75.89950157749762, 17.24 76.20750157749762 C 17.24 76.51550157749763, 17.242666666666665 76.8301682441643, 17.248 77.15150157749763 C 17.253333333333334 77.47283491083095, 17.262666666666668 77.81616824416429, 17.276 78.18150157749763 C 17.281333333333333 78.38950157749763, 17.382666666666665 78.52150157749762, 17.58 78.57750157749763 L 17.58 79.46550157749762 C 17.142666666666663 79.42550157749763, 16.805999999999997 79.27950157749763, 16.57 79.02750157749763 C 16.334000000000003 78.77550157749764, 16.209333333333333 78.42950157749763, 16.196 77.98950157749762 Z M 18.084 79.46550157749762 L 18.084 78.57350157749762 C 18.268 78.5201682441643, 18.366666666666667 78.39616824416429, 18.38 78.20150157749762 C 18.398666666666667 77.73483491083095, 18.410666666666668 77.28616824416429, 18.416 76.85550157749762 C 18.421333333333333 76.42483491083097, 18.421333333333333 75.9941682441643, 18.416 75.56350157749763 C 18.410666666666668 75.13283491083097, 18.398666666666667 74.68016824416429, 18.38 74.20550157749763 C 18.374666666666666 74.01083491083097, 18.276 73.8841682441643, 18.084 73.82550157749763 L 18.084 72.93750157749763 C 18.513333333333335 72.97750157749763, 18.846666666666668 73.12283491083096, 19.084 73.37350157749762 C 19.321333333333335 73.62416824416428, 19.445333333333334 73.96950157749762, 19.456 74.40950157749762 C 19.46666666666667 74.72416824416429, 19.474666666666668 75.03416824416429, 19.48 75.33950157749763 C 19.485333333333333 75.64483491083097, 19.488 75.94550157749762, 19.488 76.24150157749763 C 19.488 76.53750157749764, 19.485333333333333 76.83083491083096, 19.48 77.12150157749763 C 19.474666666666668 77.41216824416429, 19.46666666666667 77.70150157749762, 19.456 77.98950157749762 C 19.439999999999998 78.44016824416428, 19.311999999999998 78.78883491083096, 19.072 79.03550157749763 C 18.832 79.2821682441643, 18.502666666666666 79.42550157749763, 18.084 79.46550157749762 Z M 21.944 79.40150157749763 L 21.944 73.00150157749762 L 23.003999999999998 73.00150157749762 L 23.003999999999998 79.40150157749763 Z " stroke="none" fill-rule="nonzero" fill="#000000" fill-opacity="1" transform="matrix(1,0,0,1,5.05,13.314)" id="text10 l" />
  <path d="M 0 64.2112012619981 L 10 64.2112012619981 L 10 65.7112012619981 L 0 65.7112012619981 Z " stroke="none" fill-rule="evenodd" fill="#000000" fill-opacity="1" transform="matrix(1,0,0,1,5.05,13.314)" id="mark11 l" />
  <path d="M 0 47.970900946498574 L 10 47.970900946498574 L 10 49.470900946498574 L 0 49.470900946498574 Z " stroke="none" fill-rule="evenodd" fill="#000000" fill-opacity="1" transform="matrix(1,0,0,1,5.05,13.314)" id="mark12 l" />
  <path d="M 0 31.73060063099905 L 10 31.73060063099905 L 10 33.23060063099905 L 0 33.23060063099905 Z " stroke="none" fill-rule="evenodd" fill="#000000" fill-opacity="1" transform="matrix(1,0,0,1,5.05,13.314)" id="mark13 l" />
  <path d="M 0 15.490300315499525 L 10 15.490300315499525 L 10 16.990300315499525 L 0 16.990300315499525 Z " stroke="none" fill-rule="evenodd" fill="#000000" fill-opacity="1" transform="matrix(1,0,0,1,5.05,13.314)" id="mark14 l" />
  <path d="M 0 -0.75 L 25 -0.75 L 25 0.75 L 0 0.75 Z " stroke="none" fill-rule="evenodd" fill="#000000" fill-opacity="1" transform="matrix(1,0,0,1,5.05,13.314)" id="mark15 l" />
  <path d="M 14.331999999999999 -1.8319999999999999 L 14.331999999999999 -7.276 L 13.879999999999999 -7.276 L 13.847999999999999 -7.656 L 14.552 -8.232 L 15.432 -8.232 L 15.432 -1.8319999999999999 Z M 16.18 -3.2479999999999998 C 16.174666666666667 -3.421333333333333, 16.173333333333332 -3.5606666666666666, 16.176 -3.666 C 16.178666666666665 -3.771333333333333, 16.181333333333335 -3.873333333333333, 16.183999999999997 -3.972 L 17.264 -3.972 C 17.256 -3.8946666666666667, 17.25 -3.7986666666666666, 17.246 -3.6839999999999997 C 17.241999999999997 -3.569333333333333, 17.240666666666666 -3.4586666666666663, 17.241999999999997 -3.352 C 17.243333333333332 -3.2453333333333334, 17.246666666666666 -3.1653333333333338, 17.252 -3.112 C 17.262666666666668 -2.992, 17.297333333333334 -2.8939999999999997, 17.355999999999998 -2.8179999999999996 C 17.414666666666665 -2.7419999999999995, 17.497333333333334 -2.6879999999999997, 17.604 -2.6559999999999997 L 17.604 -1.7639999999999998 C 17.110666666666663 -1.801333333333333, 16.75333333333333 -1.9359999999999997, 16.532 -2.1679999999999997 C 16.310666666666666 -2.4, 16.19333333333333 -2.76, 16.18 -3.2479999999999998 Z M 16.279999999999998 -4.584 L 16.279999999999998 -8.232 L 17.348 -8.232 L 17.348 -4.584 Z M 17.852 -5.008 L 17.852 -5.763999999999999 C 17.929333333333332 -5.804, 18.014666666666667 -5.836, 18.107999999999997 -5.86 C 18.20133333333333 -5.884, 18.301333333333332 -5.896, 18.407999999999998 -5.896 C 18.773333333333333 -5.896, 19.047333333333334 -5.780666666666667, 19.23 -5.55 C 19.412666666666667 -5.319333333333333, 19.514666666666663 -5.005333333333333, 19.535999999999998 -4.608 C 19.546666666666667 -4.448, 19.55333333333333 -4.289333333333333, 19.555999999999997 -4.132 C 19.558666666666664 -3.974666666666667, 19.557333333333332 -3.8213333333333335, 19.552 -3.6719999999999997 C 19.546666666666667 -3.522666666666667, 19.538666666666668 -3.3826666666666663, 19.528 -3.252 C 19.482666666666667 -2.753333333333333, 19.353333333333335 -2.388, 19.14 -2.1559999999999997 C 18.926666666666666 -1.9239999999999997, 18.581333333333333 -1.793333333333333, 18.104 -1.7639999999999998 L 18.104 -2.6559999999999997 C 18.21333333333333 -2.685333333333333, 18.296 -2.738, 18.352 -2.814 C 18.408 -2.89, 18.44 -2.9893333333333336, 18.448 -3.112 C 18.471999999999998 -3.4026666666666667, 18.485999999999997 -3.664, 18.49 -3.896 C 18.494 -4.128, 18.485333333333333 -4.349333333333333, 18.464 -4.5600000000000005 C 18.447999999999997 -4.714666666666667, 18.396666666666665 -4.83, 18.31 -4.906 C 18.223333333333333 -4.981999999999999, 18.090666666666664 -5.02, 17.912 -5.02 C 17.901333333333334 -5.02, 17.890666666666668 -5.018666666666666, 17.88 -5.016 C 17.86933333333333 -5.013333333333334, 17.86 -5.010666666666667, 17.852 -5.008 Z M 17.852 -7.3 L 17.852 -8.232 L 19.439999999999998 -8.232 L 19.439999999999998 -7.3 Z M 21.944 -1.8319999999999999 L 21.944 -8.232 L 23.003999999999998 -8.232 L 23.003999999999998 -1.8319999999999999 Z " stroke="none" fill-rule="nonzero" fill="#000000" fill-opacity="1" transform="matrix(1,0,0,1,5.05,13.314)" id="text15 l" />
  <path d="M -5 -13.264 L 30 -13.264 L 30 234.1002044169933 L -5 234.1002044169933 Z " stroke="#FF0000" stroke-opacity="1" stroke-width="0.1" stroke-linecap="butt" stroke-linejoin="miter" fill="none" transform="matrix(1,0,0,1,5.05,13.314)" />
</svg>