<?xml version="1.0" encoding="UTF-8"?>
<svg xmlns:xlink="http://www.w3.org/1999/xlink" viewBox="0 0 35.1 459.8195445386655" version="1.1" style="font-synthesis: none;" width="35.1mm" height="459.8195445386655mm" xmlns="http://www.w3.org/2000/svg">
  <defs />
  <style>	</style>
  <path d="M 0 0 L 35.1 0 L 35.1 459.8195445386655 L 0 459.8195445386655 Z " stroke="none" fill-rule="nonzero" fill="#FFFFFF" fill-opacity="1" transform="matrix(1,0,0,1,0,0)" />
  <path d="M 0 438.9375445386656 L 10 438.9375445386656 L 10 440.4375445386656 L 0 440.4375445386656 Z " stroke="none" fill-rule="evenodd" fill="#000000" fill-opacity="1" transform="matrix(1,0,0,1,5.05,13.314)" id="mark1 l" />
  <path d="M 0 432.565261284482 L 10 432.565261284482 L 10 434.065261284482 L 0 434.065261284482 Z " stroke="none" fill-rule="evenodd" fill="#000000" fill-opacity="1" transform="matrix(1,0,0,1,5.05,13.314)" id="mark2 l" />
  <path d="M 0 426.1929780302985 L 10 426.1929780302985 L 10 427.6929780302985 L 0 427.6929780302985 Z " stroke="none" fill-rule="evenodd" fill="#000000" fill-opacity="1" transform="matrix(1,0,0,1,5.05,13.314)" id="mark3 l" />
  <path d="M 0 419.8206947761149 L 10 419.8206947761149 L 10 421.3206947761149 L 0 421.3206947761149 Z " stroke="none" fill-rule="evenodd" fill="#000000" fill-opacity="1" transform="matrix(1,0,0,1,5.05,13.314)" id="mark4 l" />
  <path d="M 0 413.44841152193135 L 25 413.44841152193135 L 25 414.94841152193135 L 0 414.94841152193135 Z " stroke="none" fill-rule="evenodd" fill="#000000" fill-opacity="1" transform="matrix(1,0,0,1,5.05,13.314)" id="mark5 l" />
  <path d="M 16.18 410.95041152193136 C 16.174666666666667 410.777078188598, 16.173333333333332 410.6377448552647, 16.176 410.53241152193135 C 16.178666666666665 410.427078188598, 16.181333333333335 410.325078188598, 16.183999999999997 410.22641152193137 L 17.264 410.22641152193137 C 17.256 410.30374485526465, 17.25 410.39974485526466, 17.246 410.5144115219314 C 17.241999999999997 410.629078188598, 17.240666666666666 410.7397448552647, 17.241999999999997 410.8464115219314 C 17.243333333333332 410.953078188598, 17.246666666666666 411.033078188598, 17.252 411.0864115219314 C 17.262666666666668 411.2064115219314, 17.297333333333334 411.30441152193134, 17.355999999999998 411.38041152193136 C 17.414666666666665 411.45641152193133, 17.497333333333334 411.51041152193136, 17.604 411.54241152193134 L 17.604 412.43441152193134 C 17.110666666666663 412.397078188598, 16.75333333333333 412.2624115219313, 16.532 412.03041152193134 C 16.310666666666666 411.79841152193137, 16.19333333333333 411.43841152193136, 16.18 410.95041152193136 Z M 16.279999999999998 409.61441152193134 L 16.279999999999998 405.9664115219314 L 17.348 405.9664115219314 L 17.348 409.61441152193134 Z M 17.852 409.19041152193137 L 17.852 408.43441152193134 C 17.929333333333332 408.3944115219314, 18.014666666666667 408.36241152193134, 18.107999999999997 408.33841152193133 C 18.20133333333333 408.31441152193133, 18.301333333333332 408.30241152193133, 18.407999999999998 408.30241152193133 C 18.773333333333333 408.30241152193133, 19.047333333333334 408.4177448552647, 19.23 408.64841152193134 C 19.412666666666667 408.879078188598, 19.514666666666663 409.19307818859807, 19.535999999999998 409.59041152193134 C 19.546666666666667 409.75041152193137, 19.55333333333333 409.90907818859796, 19.555999999999997 410.06641152193134 C 19.558666666666664 410.2237448552646, 19.557333333333332 410.37707818859803, 19.552 410.5264115219314 C 19.546666666666667 410.6757448552647, 19.538666666666668 410.8157448552647, 19.528 410.94641152193134 C 19.482666666666667 411.445078188598, 19.353333333333335 411.8104115219313, 19.14 412.04241152193134 C 18.926666666666666 412.27441152193137, 18.581333333333333 412.40507818859805, 18.104 412.43441152193134 L 18.104 411.54241152193134 C 18.21333333333333 411.513078188598, 18.296 411.46041152193135, 18.352 411.3844115219313 C 18.408 411.30841152193136, 18.44 411.209078188598, 18.448 411.0864115219314 C 18.471999999999998 410.79574485526473, 18.485999999999997 410.53441152193136, 18.49 410.30241152193133 C 18.494 410.0704115219313, 18.485333333333333 409.849078188598, 18.464 409.63841152193135 C 18.447999999999997 409.4837448552647, 18.396666666666665 409.3684115219314, 18.31 409.29241152193134 C 18.223333333333333 409.2164115219314, 18.090666666666664 409.17841152193137, 17.912 409.17841152193137 C 17.901333333333334 409.17841152193137, 17.890666666666668 409.17974485526463, 17.88 409.18241152193133 C 17.86933333333333 409.185078188598, 17.86 409.18774485526467, 17.852 409.19041152193137 Z M 17.852 406.89841152193134 L 17.852 405.9664115219314 L 19.439999999999998 405.9664115219314 L 19.439999999999998 406.89841152193134 Z M 21.944 412.36641152193135 L 21.944 405.9664115219314 L 23.003999999999998 405.9664115219314 L 23.003999999999998 412.36641152193135 Z " stroke="none" fill-rule="nonzero" fill="#000000" fill-opacity="1" transform="matrix(1,0,0,1,5.05,13.314)" id="text5 l" />
  <path d="M 0 407.0761282677478 L 10 407.0761282677478 L 10 408.5761282677478 L 0 408.5761282677478 Z " stroke="none" fill-rule="evenodd" fill="#000000" fill-opacity="1" transform="matrix(1,0,0,1,5.05,13.314)" id="mark6 l" />
  <path d="M 0 400.7038450135642 L 10 400.7038450135642 L 10 402.2038450135642 L 0 402.2038450135642 Z " stroke="none" fill-rule="evenodd" fill="#000000" fill-opacity="1" transform="matrix(1,0,0,1,5.05,13.314)" id="mark7 l" />
  <path d="M 0 394.3315617593807 L 10 394.3315617593807 L 10 395.8315617593807 L 0 395.8315617593807 Z " stroke="none" fill-rule="evenodd" fill="#000000" fill-opacity="1" transform="matrix(1,0,0,1,5.05,13.314)" id="mark8 l" />
  <path d="M 0 387.9592785051971 L 10 387.9592785051971 L 10 389.4592785051971 L 0 389.4592785051971 Z " stroke="none" fill-rule="evenodd" fill="#000000" fill-opacity="1" transform="matrix(1,0,0,1,5.05,13.314)" id="mark9 l" />
  <path d="M 0 381.58699525101355 L 25 381.58699525101355 L 25 383.08699525101355 L 0 383.08699525101355 Z " stroke="none" fill-rule="evenodd" fill="#000000" fill-opacity="1" transform="matrix(1,0,0,1,5.05,13.314)" id="mark10 l" />
  <path d="M 14.323999999999998 380.53699525101354 L 14.323999999999998 375.0929952510135 L 13.871999999999998 375.0929952510135 L 13.839999999999998 374.7129952510135 L 14.543999999999999 374.13699525101356 L 15.424 374.13699525101356 L 15.424 380.53699525101354 Z M 16.196 379.12499525101356 C 16.188000000000002 378.69566191768024, 16.182666666666666 378.27899525101355, 16.18 377.87499525101356 C 16.177333333333333 377.47099525101356, 16.177999999999997 377.07566191768024, 16.182 376.6889952510135 C 16.186 376.30232858434687, 16.190666666666665 375.92099525101355, 16.196 375.5449952510135 C 16.209333333333333 375.1049952510135, 16.334000000000003 374.7596619176802, 16.57 374.5089952510135 C 16.805999999999997 374.2583285843469, 17.142666666666663 374.11299525101356, 17.58 374.07299525101354 L 17.58 374.9609952510135 C 17.382666666666665 375.0169952510135, 17.281333333333333 375.14632858434686, 17.276 375.34899525101355 C 17.262666666666668 375.71966191768024, 17.253333333333334 376.0676619176802, 17.248 376.39299525101353 C 17.242666666666665 376.71832858434686, 17.24 377.0349952510135, 17.24 377.3429952510135 C 17.24 377.6509952510135, 17.242666666666665 377.9656619176802, 17.248 378.28699525101354 C 17.253333333333334 378.60832858434685, 17.262666666666668 378.9516619176802, 17.276 379.3169952510135 C 17.281333333333333 379.52499525101354, 17.382666666666665 379.65699525101354, 17.58 379.7129952510135 L 17.58 380.60099525101356 C 17.142666666666663 380.56099525101354, 16.805999999999997 380.4149952510135, 16.57 380.1629952510135 C 16.334000000000003 379.9109952510135, 16.209333333333333 379.56499525101356, 16.196 379.12499525101356 Z M 18.084 380.60099525101356 L 18.084 379.70899525101356 C 18.268 379.6556619176802, 18.366666666666667 379.5316619176802, 18.38 379.33699525101355 C 18.398666666666667 378.8703285843469, 18.410666666666668 378.42166191768024, 18.416 377.99099525101354 C 18.421333333333333 377.56032858434685, 18.421333333333333 377.1296619176802, 18.416 376.6989952510135 C 18.410666666666668 376.2683285843469, 18.398666666666667 375.8156619176802, 18.38 375.3409952510135 C 18.374666666666666 375.14632858434686, 18.276 375.0196619176802, 18.084 374.9609952510135 L 18.084 374.07299525101354 C 18.513333333333335 374.11299525101356, 18.846666666666668 374.2583285843469, 19.084 374.5089952510135 C 19.321333333333335 374.7596619176802, 19.445333333333334 375.1049952510135, 19.456 375.5449952510135 C 19.46666666666667 375.8596619176802, 19.474666666666668 376.16966191768023, 19.48 376.4749952510135 C 19.485333333333333 376.7803285843469, 19.488 377.0809952510135, 19.488 377.3769952510135 C 19.488 377.6729952510135, 19.485333333333333 377.9663285843469, 19.48 378.25699525101356 C 19.474666666666668 378.5476619176802, 19.46666666666667 378.83699525101355, 19.456 379.12499525101356 C 19.439999999999998 379.57566191768024, 19.311999999999998 379.9243285843469, 19.072 380.17099525101355 C 18.832 380.4176619176802, 18.502666666666666 380.56099525101354, 18.084 380.60099525101356 Z M 21.944 380.53699525101354 L 21.944 374.13699525101356 L 23.003999999999998 374.13699525101356 L 23.003999999999998 380.53699525101354 Z " stroke="none" fill-rule="nonzero" fill="#000000" fill-opacity="1" transform="matrix(1,0,0,1,5.05,13.314)" id="text10 l" />
  <path d="M 0 375.21471199683003 L 10 375.21471199683003 L 10 376.71471199683003 L 0 376.71471199683003 Z " stroke="none" fill-rule="evenodd" fill="#000000" fill-opacity="1" transform="matrix(1,0,0,1,5.05,13.314)" id="mark11 l" />
  <path d="M 0 368.84242874264646 L 10 368.84242874264646 L 10 370.34242874264646 L 0 370.34242874264646 Z " stroke="none" fill-rule="evenodd" fill="#000000" fill-opacity="1" transform="matrix(1,0,0,1,5.05,13.314)" id="mark12 l" />
  <path d="M 0 362.4701454884629 L 10 362.4701454884629 L 10 363.9701454884629 L 0 363.9701454884629 Z " stroke="none" fill-rule="evenodd" fill="#000000" fill-opacity="1" transform="matrix(1,0,0,1,5.05,13.314)" id="mark13 l" />
  <path d="M 0 356.0978622342793 L 10 356.0978622342793 L 10 357.5978622342793 L 0 357.5978622342793 Z " stroke="none" fill-rule="evenodd" fill="#000000" fill-opacity="1" transform="matrix(1,0,0,1,5.05,13.314)" id="mark14 l" />
  <path d="M 0 349.72557898009575 L 25 349.72557898009575 L 25 351.22557898009575 L 0 351.22557898009575 Z " stroke="none" fill-rule="evenodd" fill="#000000" fill-opacity="1" transform="matrix(1,0,0,1,5.05,13.314)" id="mark15 l" />
  <path d="M 14.331999999999999 348.64357898009575 L 14.331999999999999 343.19957898009574 L 13.879999999999999 343.19957898009574 L 13.847999999999999 342.81957898009574 L 14.552 342.2435789800958 L 15.432 342.2435789800958 L 15.432 348.64357898009575 Z M 16.18 347.22757898009576 C 16.174666666666667 347.0542456467624, 16.173333333333332 346.9149123134291, 16.176 346.80957898009575 C 16.178666666666665 346.7042456467624, 16.181333333333335 346.6022456467624, 16.183999999999997 346.50357898009577 L 17.264 346.50357898009577 C 17.256 346.5809123134291, 17.25 346.6769123134291, 17.246 346.7915789800958 C 17.241999999999997 346.90624564676244, 17.240666666666666 347.0169123134291, 17.241999999999997 347.1235789800958 C 17.243333333333332 347.2302456467624, 17.246666666666666 347.3102456467624, 17.252 347.3635789800958 C 17.262666666666668 347.4835789800958, 17.297333333333334 347.58157898009574, 17.355999999999998 347.65757898009576 C 17.414666666666665 347.73357898009573, 17.497333333333334 347.78757898009576, 17.604 347.81957898009574 L 17.604 348.71157898009574 C 17.110666666666663 348.6742456467624, 16.75333333333333 348.5395789800957, 16.532 348.30757898009574 C 16.310666666666666 348.07557898009577, 16.19333333333333 347.71557898009576, 16.18 347.22757898009576 Z M 16.279999999999998 345.89157898009574 L 16.279999999999998 342.2435789800958 L 17.348 342.2435789800958 L 17.348 345.89157898009574 Z M 17.852 345.46757898009577 L 17.852 344.71157898009574 C 17.929333333333332 344.6715789800958, 18.014666666666667 344.63957898009573, 18.107999999999997 344.61557898009573 C 18.20133333333333 344.59157898009573, 18.301333333333332 344.57957898009573, 18.407999999999998 344.57957898009573 C 18.773333333333333 344.57957898009573, 19.047333333333334 344.6949123134291, 19.23 344.92557898009574 C 19.412666666666667 345.1562456467624, 19.514666666666663 345.4702456467624, 19.535999999999998 345.86757898009574 C 19.546666666666667 346.02757898009577, 19.55333333333333 346.1862456467624, 19.555999999999997 346.34357898009574 C 19.558666666666664 346.50091231342907, 19.557333333333332 346.65424564676243, 19.552 346.8035789800958 C 19.546666666666667 346.9529123134291, 19.538666666666668 347.0929123134291, 19.528 347.22357898009574 C 19.482666666666667 347.7222456467624, 19.353333333333335 348.0875789800957, 19.14 348.31957898009574 C 18.926666666666666 348.55157898009577, 18.581333333333333 348.6822456467624, 18.104 348.71157898009574 L 18.104 347.81957898009574 C 18.21333333333333 347.7902456467624, 18.296 347.73757898009575, 18.352 347.6615789800957 C 18.408 347.58557898009576, 18.44 347.4862456467624, 18.448 347.3635789800958 C 18.471999999999998 347.07291231342913, 18.485999999999997 346.81157898009576, 18.49 346.57957898009573 C 18.494 346.34757898009576, 18.485333333333333 346.1262456467624, 18.464 345.91557898009575 C 18.447999999999997 345.7609123134291, 18.396666666666665 345.64557898009576, 18.31 345.56957898009574 C 18.223333333333333 345.4935789800958, 18.090666666666664 345.45557898009577, 17.912 345.45557898009577 C 17.901333333333334 345.45557898009577, 17.890666666666668 345.4569123134291, 17.88 345.4595789800957 C 17.86933333333333 345.4622456467624, 17.86 345.46491231342907, 17.852 345.46757898009577 Z M 17.852 343.17557898009574 L 17.852 342.2435789800958 L 19.439999999999998 342.2435789800958 L 19.439999999999998 343.17557898009574 Z M 21.944 348.64357898009575 L 21.944 342.2435789800958 L 23.003999999999998 342.2435789800958 L 23.003999999999998 348.64357898009575 Z " stroke="none" fill-rule="nonzero" fill="#000000" fill-opacity="1" transform="matrix(1,0,0,1,5.05,13.314)" id="text15 l" />
  <path d="M 0 343.3532957259122 L 10 343.3532957259122 L 10 344.8532957259122 L 0 344.8532957259122 Z " stroke="none" fill-rule="evenodd" fill="#000000" fill-opacity="1" transform="matrix(1,0,0,1,5.05,13.314)" id="mark16 l" />
  <path d="M 0 336.98101247172866 L 10 336.98101247172866 L 10 338.48101247172866 L 0 338.48101247172866 Z " stroke="none" fill-rule="evenodd" fill="#000000" fill-opacity="1" transform="matrix(1,0,0,1,5.05,13.314)" id="mark17 l" />
  <path d="M 0 330.6087292175451 L 10 330.6087292175451 L 10 332.1087292175451 L 0 332.1087292175451 Z " stroke="none" fill-rule="evenodd" fill="#000000" fill-opacity="1" transform="matrix(1,0,0,1,5.05,13.314)" id="mark18 l" />
  <path d="M 0 324.2364459633615 L 10 324.2364459633615 L 10 325.7364459633615 L 0 325.7364459633615 Z " stroke="none" fill-rule="evenodd" fill="#000000" fill-opacity="1" transform="matrix(1,0,0,1,5.05,13.314)" id="mark19 l" />
  <path d="M 0 317.864162709178 L 25 317.864162709178 L 25 319.364162709178 L 0 319.364162709178 Z " stroke="none" fill-rule="evenodd" fill="#000000" fill-opacity="1" transform="matrix(1,0,0,1,5.05,13.314)" id="mark20 l" />
  <path d="M 12.319999999999999 316.814162709178 C 12.317333333333334 316.7154960425113, 12.315333333333331 316.62682937584464, 12.313999999999998 316.548162709178 C 12.312666666666665 316.4694960425113, 12.311333333333334 316.39549604251135, 12.309999999999999 316.326162709178 C 12.308666666666667 316.25682937584463, 12.308 316.18482937584463, 12.308 316.110162709178 C 12.308 316.03549604251134, 12.308 315.95082937584465, 12.308 315.85616270917797 C 12.308 315.7614960425113, 12.309333333333335 315.650162709178, 12.312 315.522162709178 C 12.32 315.22882937584467, 12.37 314.96682937584467, 12.462 314.736162709178 C 12.554 314.50549604251137, 12.687999999999999 314.29949604251135, 12.863999999999999 314.11816270917797 C 13.04 313.93682937584464, 13.257333333333333 313.77549604251135, 13.515999999999998 313.634162709178 L 14.047999999999998 313.346162709178 C 14.234666666666666 313.2448293758447, 14.354 313.1228293758447, 14.405999999999999 312.980162709178 C 14.457999999999998 312.8374960425113, 14.488 312.70349604251135, 14.495999999999999 312.578162709178 C 14.506666666666664 312.4314960425113, 14.512666666666664 312.27482937584466, 14.514 312.108162709178 C 14.51533333333333 311.9414960425113, 14.511999999999997 311.78482937584465, 14.504 311.638162709178 C 14.498666666666665 311.534162709178, 14.468666666666666 311.448162709178, 14.413999999999998 311.38016270917797 C 14.359333333333332 311.312162709178, 14.279999999999998 311.26349604251135, 14.175999999999998 311.234162709178 L 14.175999999999998 310.346162709178 C 14.663999999999998 310.378162709178, 15.014 310.50949604251133, 15.225999999999999 310.740162709178 C 15.437999999999999 310.97082937584463, 15.554666666666666 311.33149604251133, 15.575999999999999 311.822162709178 C 15.578666666666663 311.886162709178, 15.580666666666666 311.95149604251134, 15.581999999999999 312.018162709178 C 15.583333333333332 312.08482937584466, 15.584 312.1494960425113, 15.584 312.212162709178 C 15.584 312.27482937584466, 15.583333333333332 312.3368293758447, 15.581999999999999 312.398162709178 C 15.580666666666666 312.4594960425113, 15.578666666666663 312.5194960425113, 15.575999999999999 312.578162709178 C 15.565333333333331 312.8634960425113, 15.512 313.110162709178, 15.415999999999999 313.318162709178 C 15.32 313.526162709178, 15.19 313.706162709178, 15.026 313.858162709178 C 14.862 314.01016270917796, 14.672 314.146162709178, 14.456 314.266162709178 L 13.851999999999999 314.59416270917797 C 13.737333333333332 314.65549604251134, 13.647333333333332 314.7394960425113, 13.581999999999999 314.846162709178 C 13.516666666666666 314.95282937584466, 13.469999999999999 315.066162709178, 13.441999999999998 315.186162709178 C 13.413999999999998 315.306162709178, 13.399999999999999 315.41816270917803, 13.399999999999999 315.522162709178 L 13.399999999999999 316.814162709178 Z M 12.328 312.774162709178 C 12.322666666666667 312.65682937584467, 12.318666666666665 312.542162709178, 12.315999999999999 312.430162709178 C 12.313333333333333 312.31816270917795, 12.311333333333334 312.21216270917796, 12.309999999999999 312.112162709178 C 12.308666666666667 312.012162709178, 12.309333333333335 311.91549604251134, 12.312 311.822162709178 C 12.330666666666666 311.334162709178, 12.447333333333333 310.97482937584465, 12.661999999999999 310.744162709178 C 12.876666666666665 310.51349604251135, 13.213333333333331 310.38082937584466, 13.671999999999999 310.346162709178 L 13.671999999999999 311.23816270917797 C 13.576 311.2674960425113, 13.505333333333333 311.314162709178, 13.459999999999999 311.378162709178 C 13.414666666666665 311.44216270917804, 13.390666666666664 311.5194960425114, 13.387999999999998 311.610162709178 C 13.382666666666665 311.81816270917795, 13.379333333333333 312.01149604251134, 13.378 312.19016270917797 C 13.376666666666667 312.36882937584465, 13.381333333333334 312.5634960425113, 13.392 312.774162709178 Z M 13.904 316.814162709178 L 13.904 315.882162709178 L 15.5 315.882162709178 L 15.5 316.814162709178 Z M 16.196 315.402162709178 C 16.188000000000002 314.97282937584464, 16.182666666666666 314.556162709178, 16.18 314.152162709178 C 16.177333333333333 313.748162709178, 16.177999999999997 313.35282937584464, 16.182 312.966162709178 C 16.186 312.5794960425113, 16.190666666666665 312.198162709178, 16.196 311.822162709178 C 16.209333333333333 311.382162709178, 16.334000000000003 311.03682937584466, 16.57 310.786162709178 C 16.805999999999997 310.53549604251134, 17.142666666666663 310.390162709178, 17.58 310.350162709178 L 17.58 311.23816270917797 C 17.382666666666665 311.29416270917795, 17.281333333333333 311.4234960425113, 17.276 311.626162709178 C 17.262666666666668 311.99682937584464, 17.253333333333334 312.34482937584465, 17.248 312.670162709178 C 17.242666666666665 312.9954960425113, 17.24 313.312162709178, 17.24 313.620162709178 C 17.24 313.92816270917797, 17.242666666666665 314.2428293758446, 17.248 314.564162709178 C 17.253333333333334 314.88549604251136, 17.262666666666668 315.22882937584467, 17.276 315.59416270917797 C 17.281333333333333 315.802162709178, 17.382666666666665 315.934162709178, 17.58 315.990162709178 L 17.58 316.878162709178 C 17.142666666666663 316.838162709178, 16.805999999999997 316.692162709178, 16.57 316.44016270917797 C 16.334000000000003 316.18816270917796, 16.209333333333333 315.84216270917796, 16.196 315.402162709178 Z M 18.084 316.878162709178 L 18.084 315.986162709178 C 18.268 315.9328293758447, 18.366666666666667 315.80882937584465, 18.38 315.614162709178 C 18.398666666666667 315.14749604251136, 18.410666666666668 314.6988293758447, 18.416 314.268162709178 C 18.421333333333333 313.8374960425113, 18.421333333333333 313.4068293758446, 18.416 312.97616270917797 C 18.410666666666668 312.54549604251133, 18.398666666666667 312.09282937584464, 18.38 311.61816270917797 C 18.374666666666666 311.4234960425113, 18.276 311.29682937584465, 18.084 311.23816270917797 L 18.084 310.350162709178 C 18.513333333333335 310.390162709178, 18.846666666666668 310.53549604251134, 19.084 310.786162709178 C 19.321333333333335 311.03682937584466, 19.445333333333334 311.382162709178, 19.456 311.822162709178 C 19.46666666666667 312.1368293758447, 19.474666666666668 312.4468293758447, 19.48 312.752162709178 C 19.485333333333333 313.05749604251133, 19.488 313.35816270917803, 19.488 313.65416270917797 C 19.488 313.950162709178, 19.485333333333333 314.2434960425113, 19.48 314.534162709178 C 19.474666666666668 314.8248293758447, 19.46666666666667 315.114162709178, 19.456 315.402162709178 C 19.439999999999998 315.85282937584464, 19.311999999999998 316.20149604251134, 19.072 316.448162709178 C 18.832 316.6948293758447, 18.502666666666666 316.838162709178, 18.084 316.878162709178 Z M 21.944 316.814162709178 L 21.944 310.414162709178 L 23.003999999999998 310.414162709178 L 23.003999999999998 316.814162709178 Z " stroke="none" fill-rule="nonzero" fill="#000000" fill-opacity="1" transform="matrix(1,0,0,1,5.05,13.314)" id="text20 l" />
  <path d="M 0 311.49187945499443 L 10 311.49187945499443 L 10 312.99187945499443 L 0 312.99187945499443 Z " stroke="none" fill-rule="evenodd" fill="#000000" fill-opacity="1" transform="matrix(1,0,0,1,5.05,13.314)" id="mark21 l" />
  <path d="M 0 305.11959620081086 L 10 305.11959620081086 L 10 306.61959620081086 L 0 306.61959620081086 Z " stroke="none" fill-rule="evenodd" fill="#000000" fill-opacity="1" transform="matrix(1,0,0,1,5.05,13.314)" id="mark22 l" />
  <path d="M 0 298.7473129466273 L 10 298.7473129466273 L 10 300.2473129466273 L 0 300.2473129466273 Z " stroke="none" fill-rule="evenodd" fill="#000000" fill-opacity="1" transform="matrix(1,0,0,1,5.05,13.314)" id="mark23 l" />
  <path d="M 0 292.3750296924437 L 10 292.3750296924437 L 10 293.8750296924437 L 0 293.8750296924437 Z " stroke="none" fill-rule="evenodd" fill="#000000" fill-opacity="1" transform="matrix(1,0,0,1,5.05,13.314)" id="mark24 l" />
  <path d="M 0 286.00274643826015 L 25 286.00274643826015 L 25 287.50274643826015 L 0 287.50274643826015 Z " stroke="none" fill-rule="evenodd" fill="#000000" fill-opacity="1" transform="matrix(1,0,0,1,5.05,13.314)" id="mark25 l" />
  <path d="M 12.328 284.95274643826014 C 12.325333333333333 284.85407977159343, 12.323333333333332 284.7654131049268, 12.322 284.6867464382601 C 12.320666666666666 284.60807977159345, 12.319333333333333 284.5340797715935, 12.318 284.46474643826014 C 12.316666666666666 284.3954131049268, 12.315999999999999 284.3234131049268, 12.316 284.2487464382601 C 12.315999999999999 284.1740797715935, 12.315999999999999 284.0894131049268, 12.316 283.9947464382601 C 12.315999999999999 283.9000797715934, 12.317333333333334 283.78874643826015, 12.32 283.66074643826016 C 12.328 283.3674131049268, 12.378 283.1054131049268, 12.47 282.87474643826016 C 12.562000000000001 282.6440797715935, 12.696 282.4380797715935, 12.872 282.2567464382601 C 13.048 282.0754131049268, 13.265333333333334 281.9140797715935, 13.524000000000001 281.7727464382601 L 14.056000000000001 281.4847464382601 C 14.242666666666668 281.38341310492683, 14.362000000000002 281.2614131049268, 14.414 281.11874643826013 C 14.466000000000001 280.97607977159345, 14.495999999999999 280.8420797715935, 14.504 280.71674643826015 C 14.514666666666667 280.57007977159344, 14.520666666666667 280.4134131049268, 14.522 280.2467464382601 C 14.523333333333333 280.08007977159343, 14.520000000000001 279.9234131049268, 14.512 279.77674643826015 C 14.506666666666666 279.67274643826016, 14.476666666666667 279.58674643826015, 14.422 279.5187464382601 C 14.367333333333335 279.4507464382601, 14.288 279.4020797715935, 14.184000000000001 279.37274643826015 L 14.184000000000001 278.4847464382601 C 14.672 278.51674643826016, 15.022000000000002 278.6480797715935, 15.234 278.8787464382601 C 15.446000000000002 279.1094131049268, 15.562666666666667 279.4700797715935, 15.584 279.9607464382601 C 15.586666666666668 280.02474643826014, 15.588666666666668 280.0900797715935, 15.59 280.15674643826014 C 15.591333333333335 280.2234131049268, 15.592000000000002 280.28807977159346, 15.592 280.35074643826016 C 15.592000000000002 280.4134131049268, 15.591333333333335 280.4754131049268, 15.59 280.53674643826014 C 15.588666666666668 280.59807977159346, 15.586666666666668 280.65807977159346, 15.584 280.71674643826015 C 15.573333333333332 281.00207977159346, 15.52 281.2487464382601, 15.424 281.45674643826015 C 15.328 281.6647464382601, 15.197999999999999 281.84474643826013, 15.033999999999999 281.9967464382601 C 14.87 282.1487464382601, 14.68 282.28474643826013, 14.464 282.40474643826013 L 13.86 282.7327464382601 C 13.745333333333335 282.7940797715935, 13.655333333333335 282.87807977159343, 13.59 282.9847464382601 C 13.524666666666668 283.0914131049268, 13.478000000000002 283.20474643826014, 13.45 283.32474643826015 C 13.422 283.44474643826015, 13.408 283.5567464382602, 13.408 283.66074643826016 L 13.408 284.95274643826014 Z M 12.336 280.9127464382601 C 12.330666666666666 280.7954131049268, 12.326666666666664 280.68074643826014, 12.324 280.5687464382601 C 12.321333333333332 280.4567464382601, 12.319333333333333 280.3507464382601, 12.318 280.25074643826014 C 12.316666666666666 280.15074643826017, 12.317333333333334 280.0540797715935, 12.32 279.9607464382601 C 12.338666666666668 279.4727464382601, 12.455333333333336 279.1134131049268, 12.67 278.88274643826014 C 12.884666666666668 278.6520797715935, 13.221333333333334 278.5194131049268, 13.68 278.4847464382601 L 13.68 279.3767464382601 C 13.584 279.40607977159345, 13.513333333333332 279.45274643826014, 13.468 279.51674643826016 C 13.422666666666668 279.5807464382602, 13.398666666666667 279.6580797715935, 13.396 279.7487464382601 C 13.390666666666666 279.9567464382601, 13.387333333333332 280.1500797715935, 13.386 280.3287464382601 C 13.384666666666666 280.5074131049268, 13.389333333333333 280.70207977159345, 13.4 280.9127464382601 Z M 13.911999999999999 284.95274643826014 L 13.911999999999999 284.0207464382601 L 15.508 284.0207464382601 L 15.508 284.95274643826014 Z M 16.18 283.53674643826014 C 16.174666666666667 283.3634131049268, 16.173333333333332 283.22407977159344, 16.176 283.11874643826013 C 16.178666666666665 283.0134131049268, 16.181333333333335 282.9114131049268, 16.183999999999997 282.81274643826015 L 17.264 282.81274643826015 C 17.256 282.8900797715935, 17.25 282.9860797715935, 17.246 283.10074643826016 C 17.241999999999997 283.2154131049268, 17.240666666666666 283.32607977159347, 17.241999999999997 283.43274643826015 C 17.243333333333332 283.5394131049268, 17.246666666666666 283.6194131049268, 17.252 283.67274643826016 C 17.262666666666668 283.7927464382601, 17.297333333333334 283.8907464382601, 17.355999999999998 283.96674643826015 C 17.414666666666665 284.0427464382601, 17.497333333333334 284.09674643826014, 17.604 284.1287464382601 L 17.604 285.0207464382601 C 17.110666666666663 284.9834131049268, 16.75333333333333 284.84874643826015, 16.532 284.6167464382601 C 16.310666666666666 284.3847464382601, 16.19333333333333 284.02474643826014, 16.18 283.53674643826014 Z M 16.279999999999998 282.2007464382601 L 16.279999999999998 278.55274643826016 L 17.348 278.55274643826016 L 17.348 282.2007464382601 Z M 17.852 281.77674643826015 L 17.852 281.0207464382601 C 17.929333333333332 280.9807464382601, 18.014666666666667 280.9487464382601, 18.107999999999997 280.9247464382601 C 18.20133333333333 280.9007464382601, 18.301333333333332 280.8887464382601, 18.407999999999998 280.8887464382601 C 18.773333333333333 280.8887464382601, 19.047333333333334 281.00407977159347, 19.23 281.2347464382601 C 19.412666666666667 281.46541310492677, 19.514666666666663 281.7794131049268, 19.535999999999998 282.1767464382601 C 19.546666666666667 282.33674643826015, 19.55333333333333 282.4954131049268, 19.555999999999997 282.6527464382601 C 19.558666666666664 282.81007977159345, 19.557333333333332 282.9634131049268, 19.552 283.11274643826016 C 19.546666666666667 283.2620797715935, 19.538666666666668 283.4020797715935, 19.528 283.5327464382601 C 19.482666666666667 284.0314131049268, 19.353333333333335 284.39674643826015, 19.14 284.6287464382601 C 18.926666666666666 284.8607464382601, 18.581333333333333 284.9914131049268, 18.104 285.0207464382601 L 18.104 284.1287464382601 C 18.21333333333333 284.0994131049268, 18.296 284.04674643826013, 18.352 283.9707464382601 C 18.408 283.8947464382601, 18.44 283.7954131049268, 18.448 283.67274643826016 C 18.471999999999998 283.38207977159345, 18.485999999999997 283.12074643826014, 18.49 282.8887464382601 C 18.494 282.65674643826014, 18.485333333333333 282.43541310492685, 18.464 282.2247464382601 C 18.447999999999997 282.07007977159344, 18.396666666666665 281.95474643826014, 18.31 281.8787464382601 C 18.223333333333333 281.80274643826016, 18.090666666666664 281.76474643826015, 17.912 281.76474643826015 C 17.901333333333334 281.76474643826015, 17.890666666666668 281.76607977159347, 17.88 281.7687464382601 C 17.86933333333333 281.7714131049268, 17.86 281.77407977159345, 17.852 281.77674643826015 Z M 17.852 279.4847464382601 L 17.852 278.55274643826016 L 19.439999999999998 278.55274643826016 L 19.439999999999998 279.4847464382601 Z M 21.944 284.95274643826014 L 21.944 278.55274643826016 L 23.003999999999998 278.55274643826016 L 23.003999999999998 284.95274643826014 Z " stroke="none" fill-rule="nonzero" fill="#000000" fill-opacity="1" transform="matrix(1,0,0,1,5.05,13.314)" id="text25 l" />
  <path d="M 0 279.6304631840766 L 10 279.6304631840766 L 10 281.1304631840766 L 0 281.1304631840766 Z " stroke="none" fill-rule="evenodd" fill="#000000" fill-opacity="1" transform="matrix(1,0,0,1,5.05,13.314)" id="mark26 l" />
  <path d="M 0 273.25817992989306 L 10 273.25817992989306 L 10 274.75817992989306 L 0 274.75817992989306 Z " stroke="none" fill-rule="evenodd" fill="#000000" fill-opacity="1" transform="matrix(1,0,0,1,5.05,13.314)" id="mark27 l" />
  <path d="M 0 266.8858966757095 L 10 266.8858966757095 L 10 268.3858966757095 L 0 268.3858966757095 Z " stroke="none" fill-rule="evenodd" fill="#000000" fill-opacity="1" transform="matrix(1,0,0,1,5.05,13.314)" id="mark28 l" />
  <path d="M 0 260.513613421526 L 10 260.513613421526 L 10 262.013613421526 L 0 262.013613421526 Z " stroke="none" fill-rule="evenodd" fill="#000000" fill-opacity="1" transform="matrix(1,0,0,1,5.05,13.314)" id="mark29 l" />
  <path d="M 0 254.14133016734237 L 25 254.14133016734237 L 25 255.64133016734237 L 0 255.64133016734237 Z " stroke="none" fill-rule="evenodd" fill="#000000" fill-opacity="1" transform="matrix(1,0,0,1,5.05,13.314)" id="mark30 l" />
  <path d="M 12.223999999999998 251.6753301673424 C 12.221333333333334 251.57399683400905, 12.219333333333333 251.48999683400905, 12.218 251.42333016734239 C 12.216666666666667 251.35666350067572, 12.216666666666667 251.2886635006757, 12.218 251.21933016734238 C 12.219333333333333 251.14999683400904, 12.221333333333334 251.06066350067573, 12.223999999999998 250.9513301673424 L 13.303999999999998 250.9513301673424 L 13.303999999999998 251.81533016734238 C 13.303999999999998 252.05266350067572, 13.417333333333332 252.2033301673424, 13.643999999999998 252.26733016734238 L 13.643999999999998 253.1593301673424 C 13.155999999999999 253.12199683400905, 12.800666666666665 252.98733016734238, 12.578 252.75533016734238 C 12.355333333333334 252.52333016734238, 12.237333333333332 252.1633301673424, 12.223999999999998 251.6753301673424 Z M 12.292 247.6233301673424 L 12.292 246.6913301673424 L 15.536 246.6913301673424 L 15.536 247.6233301673424 Z M 14.143999999999998 252.2713301673424 C 14.367999999999999 252.21533016734242, 14.483999999999998 252.06466350067575, 14.491999999999999 251.8193301673424 C 14.497333333333334 251.6166635006757, 14.500666666666666 251.43399683400906, 14.501999999999999 251.2713301673424 C 14.503333333333332 251.10866350067573, 14.498666666666665 250.9513301673424, 14.488 250.7993301673424 C 14.48 250.64199683400903, 14.431999999999999 250.5086635006757, 14.344 250.39933016734238 C 14.256 250.28999683400906, 14.089333333333332 250.23799683400907, 13.844 250.24333016734238 L 13.096 250.2513301673424 L 13.068 249.3593301673424 L 14.027999999999999 247.9753301673424 L 15.216 247.9753301673424 L 14.248 249.32733016734238 L 14.28 249.32733016734238 C 14.712 249.32733016734238, 15.028666666666666 249.44999683400903, 15.229999999999999 249.6953301673424 C 15.431333333333333 249.94066350067573, 15.544 250.31799683400908, 15.568 250.82733016734238 C 15.57333333333333 250.89933016734238, 15.576666666666664 250.9713301673424, 15.578 251.0433301673424 C 15.57933333333333 251.1153301673424, 15.579999999999998 251.18599683400905, 15.579999999999998 251.25533016734238 C 15.579999999999998 251.3246635006757, 15.57933333333333 251.39399683400904, 15.578 251.4633301673424 C 15.576666666666664 251.5326635006757, 15.57333333333333 251.6033301673424, 15.568 251.6753301673424 C 15.549333333333333 252.17133016734238, 15.428666666666665 252.53599683400904, 15.206 252.7693301673424 C 14.983333333333334 253.00266350067574, 14.630666666666666 253.13266350067573, 14.148 253.1593301673424 Z M 16.196 251.67933016734239 C 16.188000000000002 251.24999683400904, 16.182666666666666 250.83333016734235, 16.18 250.42933016734239 C 16.177333333333333 250.02533016734236, 16.177999999999997 249.62999683400903, 16.182 249.24333016734238 C 16.186 248.85666350067572, 16.190666666666665 248.4753301673424, 16.196 248.0993301673424 C 16.209333333333333 247.6593301673424, 16.334000000000003 247.31399683400906, 16.57 247.0633301673424 C 16.805999999999997 246.81266350067574, 17.142666666666663 246.66733016734239, 17.58 246.6273301673424 L 17.58 247.5153301673424 C 17.382666666666665 247.5713301673424, 17.281333333333333 247.70066350067572, 17.276 247.9033301673424 C 17.262666666666668 248.27399683400904, 17.253333333333334 248.62199683400905, 17.248 248.9473301673424 C 17.242666666666665 249.27266350067572, 17.24 249.58933016734238, 17.24 249.8973301673424 C 17.24 250.2053301673424, 17.242666666666665 250.51999683400908, 17.248 250.8413301673424 C 17.253333333333334 251.1626635006757, 17.262666666666668 251.50599683400907, 17.276 251.8713301673424 C 17.281333333333333 252.0793301673424, 17.382666666666665 252.2113301673424, 17.58 252.26733016734238 L 17.58 253.15533016734238 C 17.142666666666663 253.1153301673424, 16.805999999999997 252.96933016734238, 16.57 252.7173301673424 C 16.334000000000003 252.4653301673424, 16.209333333333333 252.11933016734238, 16.196 251.67933016734239 Z M 18.084 253.15533016734238 L 18.084 252.2633301673424 C 18.268 252.20999683400908, 18.366666666666667 252.08599683400905, 18.38 251.8913301673424 C 18.398666666666667 251.4246635006757, 18.410666666666668 250.97599683400904, 18.416 250.5453301673424 C 18.421333333333333 250.1146635006757, 18.421333333333333 249.68399683400906, 18.416 249.2533301673424 C 18.410666666666668 248.82266350067573, 18.398666666666667 248.36999683400904, 18.38 247.8953301673424 C 18.374666666666666 247.70066350067572, 18.276 247.57399683400905, 18.084 247.5153301673424 L 18.084 246.6273301673424 C 18.513333333333335 246.66733016734239, 18.846666666666668 246.81266350067574, 19.084 247.0633301673424 C 19.321333333333335 247.31399683400906, 19.445333333333334 247.6593301673424, 19.456 248.0993301673424 C 19.46666666666667 248.41399683400905, 19.474666666666668 248.72399683400903, 19.48 249.02933016734238 C 19.485333333333333 249.33466350067573, 19.488 249.63533016734237, 19.488 249.9313301673424 C 19.488 250.22733016734236, 19.485333333333333 250.5206635006757, 19.48 250.8113301673424 C 19.474666666666668 251.10199683400907, 19.46666666666667 251.3913301673424, 19.456 251.67933016734239 C 19.439999999999998 252.12999683400906, 19.311999999999998 252.47866350067574, 19.072 252.72533016734238 C 18.832 252.97199683400902, 18.502666666666666 253.1153301673424, 18.084 253.15533016734238 Z M 21.944 253.0913301673424 L 21.944 246.6913301673424 L 23.003999999999998 246.6913301673424 L 23.003999999999998 253.0913301673424 Z " stroke="none" fill-rule="nonzero" fill="#000000" fill-opacity="1" transform="matrix(1,0,0,1,5.05,13.314)" id="text30 l" />
  <path d="M 0 247.76904691315883 L 10 247.76904691315883 L 10 249.26904691315883 L 0 249.26904691315883 Z " stroke="none" fill-rule="evenodd" fill="#000000" fill-opacity="1" transform="matrix(1,0,0,1,5.05,13.314)" id="mark31 l" />
  <path d="M 0 241.39676365897526 L 10 241.39676365897526 L 10 242.89676365897526 L 0 242.89676365897526 Z " stroke="none" fill-rule="evenodd" fill="#000000" fill-opacity="1" transform="matrix(1,0,0,1,5.05,13.314)" id="mark32 l" />
  <path d="M 0 235.02448040479172 L 10 235.02448040479172 L 10 236.52448040479172 L 0 236.52448040479172 Z " stroke="none" fill-rule="evenodd" fill="#000000" fill-opacity="1" transform="matrix(1,0,0,1,5.05,13.314)" id="mark33 l" />
  <path d="M 0 228.65219715060815 L 10 228.65219715060815 L 10 230.15219715060815 L 0 230.15219715060815 Z " stroke="none" fill-rule="evenodd" fill="#000000" fill-opacity="1" transform="matrix(1,0,0,1,5.05,13.314)" id="mark34 l" />
  <path d="M 0 222.27991389642457 L 25 222.27991389642457 L 25 223.77991389642457 L 0 223.77991389642457 Z " stroke="none" fill-rule="evenodd" fill="#000000" fill-opacity="1" transform="matrix(1,0,0,1,5.05,13.314)" id="mark35 l" />
  <path d="M 12.232 219.78191389642458 C 12.229333333333333 219.6805805630912, 12.227333333333334 219.5965805630912, 12.226 219.52991389642457 C 12.224666666666668 219.46324722975788, 12.224666666666668 219.3952472297579, 12.226 219.3259138964246 C 12.227333333333334 219.25658056309123, 12.229333333333333 219.1672472297579, 12.232 219.0579138964246 L 13.312 219.0579138964246 L 13.312 219.92191389642457 C 13.312 220.1592472297579, 13.425333333333333 220.30991389642458, 13.652 220.37391389642457 L 13.652 221.2659138964246 C 13.164 221.22858056309124, 12.808666666666667 221.09391389642457, 12.586 220.86191389642457 C 12.363333333333333 220.62991389642457, 12.245333333333335 220.26991389642455, 12.232 219.78191389642458 Z M 12.3 215.7299138964246 L 12.3 214.79791389642457 L 15.544 214.79791389642457 L 15.544 215.7299138964246 Z M 14.152000000000001 220.3779138964246 C 14.376000000000001 220.32191389642458, 14.492 220.1712472297579, 14.5 219.9259138964246 C 14.505333333333333 219.72324722975793, 14.508666666666667 219.54058056309125, 14.51 219.3779138964246 C 14.511333333333333 219.21524722975792, 14.506666666666668 219.05791389642457, 14.496 218.90591389642458 C 14.488 218.74858056309125, 14.440000000000001 218.61524722975793, 14.352 218.50591389642457 C 14.264 218.39658056309128, 14.097333333333335 218.34458056309126, 13.852 218.34991389642457 L 13.104 218.35791389642458 L 13.076 217.46591389642458 L 14.036 216.08191389642457 L 15.224 216.08191389642457 L 14.256 217.43391389642457 L 14.288 217.43391389642457 C 14.719999999999999 217.43391389642454, 15.036666666666665 217.55658056309125, 15.238 217.8019138964246 C 15.439333333333334 218.04724722975794, 15.552 218.42458056309124, 15.576 218.93391389642457 C 15.581333333333333 219.00591389642454, 15.584666666666667 219.07791389642455, 15.586 219.14991389642458 C 15.587333333333333 219.22191389642455, 15.588000000000001 219.29258056309124, 15.588000000000001 219.36191389642457 C 15.588000000000001 219.4312472297579, 15.587333333333333 219.50058056309123, 15.586 219.56991389642457 C 15.584666666666667 219.6392472297579, 15.581333333333333 219.70991389642455, 15.576 219.78191389642458 C 15.557333333333334 220.2779138964246, 15.436666666666667 220.64258056309126, 15.214 220.87591389642458 C 14.991333333333333 221.1092472297579, 14.638666666666666 221.23924722975792, 14.156 221.2659138964246 Z M 16.18 219.78191389642458 C 16.174666666666667 219.60858056309127, 16.173333333333332 219.4692472297579, 16.176 219.36391389642458 C 16.178666666666665 219.25858056309124, 16.181333333333335 219.15658056309127, 16.183999999999997 219.0579138964246 L 17.264 219.0579138964246 C 17.256 219.1352472297579, 17.25 219.2312472297579, 17.246 219.34591389642458 C 17.241999999999997 219.46058056309124, 17.240666666666666 219.57124722975792, 17.241999999999997 219.67791389642457 C 17.243333333333332 219.78458056309123, 17.246666666666666 219.86458056309124, 17.252 219.91791389642458 C 17.262666666666668 220.03791389642458, 17.297333333333334 220.1359138964246, 17.355999999999998 220.2119138964246 C 17.414666666666665 220.28791389642458, 17.497333333333334 220.34191389642456, 17.604 220.37391389642457 L 17.604 221.2659138964246 C 17.110666666666663 221.22858056309124, 16.75333333333333 221.09391389642457, 16.532 220.86191389642457 C 16.310666666666666 220.62991389642457, 16.19333333333333 220.26991389642455, 16.18 219.78191389642458 Z M 16.279999999999998 218.44591389642457 L 16.279999999999998 214.79791389642457 L 17.348 214.79791389642457 L 17.348 218.44591389642457 Z M 17.852 218.0219138964246 L 17.852 217.2659138964246 C 17.929333333333332 217.22591389642457, 18.014666666666667 217.1939138964246, 18.107999999999997 217.1699138964246 C 18.20133333333333 217.1459138964246, 18.301333333333332 217.1339138964246, 18.407999999999998 217.1339138964246 C 18.773333333333333 217.1339138964246, 19.047333333333334 217.2492472297579, 19.23 217.4799138964246 C 19.412666666666667 217.71058056309127, 19.514666666666663 218.02458056309126, 19.535999999999998 218.42191389642457 C 19.546666666666667 218.58191389642457, 19.55333333333333 218.7405805630912, 19.555999999999997 218.89791389642457 C 19.558666666666664 219.05524722975792, 19.557333333333332 219.20858056309123, 19.552 219.35791389642458 C 19.546666666666667 219.50724722975792, 19.538666666666668 219.6472472297579, 19.528 219.7779138964246 C 19.482666666666667 220.27658056309127, 19.353333333333335 220.64191389642457, 19.14 220.87391389642457 C 18.926666666666666 221.10591389642457, 18.581333333333333 221.23658056309125, 18.104 221.2659138964246 L 18.104 220.37391389642457 C 18.21333333333333 220.34458056309126, 18.296 220.2919138964246, 18.352 220.21591389642458 C 18.408 220.13991389642456, 18.44 220.04058056309123, 18.448 219.91791389642458 C 18.471999999999998 219.62724722975793, 18.485999999999997 219.3659138964246, 18.49 219.1339138964246 C 18.494 218.9019138964246, 18.485333333333333 218.68058056309127, 18.464 218.46991389642457 C 18.447999999999997 218.31524722975792, 18.396666666666665 218.19991389642456, 18.31 218.12391389642457 C 18.223333333333333 218.04791389642457, 18.090666666666664 218.00991389642456, 17.912 218.0099138964246 C 17.901333333333334 218.00991389642456, 17.890666666666668 218.0112472297579, 17.88 218.01391389642458 C 17.86933333333333 218.01658056309125, 17.86 218.01924722975792, 17.852 218.0219138964246 Z M 17.852 215.7299138964246 L 17.852 214.79791389642457 L 19.439999999999998 214.79791389642457 L 19.439999999999998 215.7299138964246 Z M 21.944 221.19791389642458 L 21.944 214.79791389642457 L 23.003999999999998 214.79791389642457 L 23.003999999999998 221.19791389642458 Z " stroke="none" fill-rule="nonzero" fill="#000000" fill-opacity="1" transform="matrix(1,0,0,1,5.05,13.314)" id="text35 l" />
  <path d="M 0 215.90763064224103 L 10 215.90763064224103 L 10 217.40763064224103 L 0 217.40763064224103 Z " stroke="none" fill-rule="evenodd" fill="#000000" fill-opacity="1" transform="matrix(1,0,0,1,5.05,13.314)" id="mark36 l" />
  <path d="M 0 209.53534738805746 L 10 209.53534738805746 L 10 211.03534738805746 L 0 211.03534738805746 Z " stroke="none" fill-rule="evenodd" fill="#000000" fill-opacity="1" transform="matrix(1,0,0,1,5.05,13.314)" id="mark37 l" />
  <path d="M 0 203.16306413387392 L 10 203.16306413387392 L 10 204.66306413387392 L 0 204.66306413387392 Z " stroke="none" fill-rule="evenodd" fill="#000000" fill-opacity="1" transform="matrix(1,0,0,1,5.05,13.314)" id="mark38 l" />
  <path d="M 0 196.79078087969035 L 10 196.79078087969035 L 10 198.29078087969035 L 0 198.29078087969035 Z " stroke="none" fill-rule="evenodd" fill="#000000" fill-opacity="1" transform="matrix(1,0,0,1,5.05,13.314)" id="mark39 l" />
  <path d="M 0 190.4184976255068 L 25 190.4184976255068 L 25 191.9184976255068 L 0 191.9184976255068 Z " stroke="none" fill-rule="evenodd" fill="#000000" fill-opacity="1" transform="matrix(1,0,0,1,5.05,13.314)" id="mark40 l" />
  <path d="M 11.739999999999998 187.68449762550682 L 11.739999999999998 186.80849762550682 L 12.455999999999998 184.92849762550682 L 13.495999999999999 184.92849762550682 L 12.771999999999998 186.76049762550682 L 13.171999999999997 186.76049762550682 L 13.171999999999997 187.68449762550682 Z M 13.675999999999998 189.36849762550682 L 13.675999999999998 182.9684976255068 L 14.683999999999997 182.9684976255068 L 14.683999999999997 189.36849762550682 Z M 15.187999999999999 187.68449762550682 L 15.187999999999999 186.76049762550682 L 15.655999999999999 186.76049762550682 L 15.655999999999999 187.68449762550682 Z M 16.195999999999998 187.9564976255068 C 16.188 187.52716429217347, 16.182666666666666 187.1104976255068, 16.18 186.7064976255068 C 16.177333333333333 186.30249762550682, 16.177999999999997 185.9071642921735, 16.182 185.5204976255068 C 16.186 185.13383095884015, 16.190666666666665 184.75249762550683, 16.195999999999998 184.37649762550683 C 16.20933333333333 183.93649762550683, 16.333999999999996 183.59116429217352, 16.569999999999997 183.34049762550683 C 16.805999999999997 183.08983095884014, 17.142666666666663 182.9444976255068, 17.58 182.90449762550682 L 17.58 183.79249762550683 C 17.382666666666665 183.8484976255068, 17.281333333333333 183.97783095884017, 17.275999999999996 184.18049762550683 C 17.262666666666664 184.5511642921735, 17.25333333333333 184.89916429217348, 17.247999999999998 185.2244976255068 C 17.242666666666665 185.54983095884015, 17.24 185.8664976255068, 17.24 186.17449762550683 C 17.24 186.48249762550682, 17.242666666666665 186.79716429217348, 17.247999999999998 187.11849762550682 C 17.25333333333333 187.43983095884016, 17.262666666666664 187.78316429217347, 17.275999999999996 188.14849762550682 C 17.281333333333333 188.35649762550685, 17.382666666666665 188.48849762550682, 17.58 188.5444976255068 L 17.58 189.4324976255068 C 17.142666666666663 189.3924976255068, 16.805999999999997 189.2464976255068, 16.569999999999997 188.99449762550682 C 16.333999999999996 188.74249762550681, 16.20933333333333 188.3964976255068, 16.195999999999998 187.9564976255068 Z M 18.084 189.4324976255068 L 18.084 188.54049762550682 C 18.268 188.4871642921735, 18.366666666666667 188.3631642921735, 18.38 188.16849762550683 C 18.398666666666664 187.70183095884016, 18.410666666666664 187.2531642921735, 18.415999999999997 186.82249762550683 C 18.42133333333333 186.39183095884016, 18.42133333333333 185.9611642921735, 18.415999999999997 185.53049762550683 C 18.410666666666664 185.09983095884016, 18.398666666666664 184.6471642921735, 18.38 184.17249762550682 C 18.374666666666666 183.97783095884017, 18.276 183.8511642921735, 18.084 183.79249762550683 L 18.084 182.90449762550682 C 18.513333333333332 182.9444976255068, 18.846666666666664 183.08983095884014, 19.083999999999996 183.34049762550683 C 19.32133333333333 183.59116429217352, 19.44533333333333 183.93649762550683, 19.456 184.37649762550683 C 19.466666666666665 184.69116429217348, 19.474666666666664 185.00116429217348, 19.479999999999997 185.3064976255068 C 19.48533333333333 185.61183095884013, 19.488 185.9124976255068, 19.488 186.20849762550682 C 19.488 186.50449762550681, 19.48533333333333 186.79783095884014, 19.479999999999997 187.08849762550682 C 19.474666666666664 187.3791642921735, 19.466666666666665 187.66849762550683, 19.456 187.9564976255068 C 19.439999999999998 188.4071642921735, 19.311999999999998 188.75583095884016, 19.072 189.0024976255068 C 18.831999999999997 189.24916429217348, 18.502666666666663 189.3924976255068, 18.084 189.4324976255068 Z M 21.944 189.36849762550682 L 21.944 182.9684976255068 L 23.003999999999998 182.9684976255068 L 23.003999999999998 189.36849762550682 Z " stroke="none" fill-rule="nonzero" fill="#000000" fill-opacity="1" transform="matrix(1,0,0,1,5.05,13.314)" id="text40 l" />
  <path d="M 0 184.04621437132323 L 10 184.04621437132323 L 10 185.54621437132323 L 0 185.54621437132323 Z " stroke="none" fill-rule="evenodd" fill="#000000" fill-opacity="1" transform="matrix(1,0,0,1,5.05,13.314)" id="mark41 l" />
  <path d="M 0 177.67393111713966 L 10 177.67393111713966 L 10 179.17393111713966 L 0 179.17393111713966 Z " stroke="none" fill-rule="evenodd" fill="#000000" fill-opacity="1" transform="matrix(1,0,0,1,5.05,13.314)" id="mark42 l" />
  <path d="M 0 171.3016478629561 L 10 171.3016478629561 L 10 172.8016478629561 L 0 172.8016478629561 Z " stroke="none" fill-rule="evenodd" fill="#000000" fill-opacity="1" transform="matrix(1,0,0,1,5.05,13.314)" id="mark43 l" />
  <path d="M 0 164.92936460877257 L 10 164.92936460877257 L 10 166.42936460877257 L 0 166.42936460877257 Z " stroke="none" fill-rule="evenodd" fill="#000000" fill-opacity="1" transform="matrix(1,0,0,1,5.05,13.314)" id="mark44 l" />
  <path d="M 0 158.557081354589 L 25 158.557081354589 L 25 160.057081354589 L 0 160.057081354589 Z " stroke="none" fill-rule="evenodd" fill="#000000" fill-opacity="1" transform="matrix(1,0,0,1,5.05,13.314)" id="mark45 l" />
  <path d="M 11.748 155.791081354589 L 11.748 154.915081354589 L 12.463999999999999 153.035081354589 L 13.503999999999998 153.035081354589 L 12.78 154.867081354589 L 13.18 154.867081354589 L 13.18 155.791081354589 Z M 13.684 157.475081354589 L 13.684 151.075081354589 L 14.691999999999998 151.075081354589 L 14.691999999999998 157.475081354589 Z M 15.195999999999998 155.791081354589 L 15.195999999999998 154.867081354589 L 15.663999999999998 154.867081354589 L 15.663999999999998 155.791081354589 Z M 16.18 156.059081354589 C 16.174666666666667 155.8857480212557, 16.173333333333332 155.74641468792237, 16.176 155.641081354589 C 16.178666666666665 155.5357480212557, 16.181333333333335 155.4337480212557, 16.183999999999997 155.33508135458902 L 17.264 155.33508135458902 C 17.256 155.41241468792234, 17.25 155.50841468792234, 17.246 155.623081354589 C 17.241999999999997 155.73774802125567, 17.240666666666666 155.84841468792234, 17.241999999999997 155.955081354589 C 17.243333333333332 156.06174802125565, 17.246666666666666 156.14174802125567, 17.252 156.195081354589 C 17.262666666666668 156.315081354589, 17.297333333333334 156.413081354589, 17.355999999999998 156.48908135458902 C 17.414666666666665 156.56508135458898, 17.497333333333334 156.61908135458899, 17.604 156.651081354589 L 17.604 157.54308135458902 C 17.110666666666663 157.50574802125567, 16.75333333333333 157.371081354589, 16.532 157.139081354589 C 16.310666666666666 156.907081354589, 16.19333333333333 156.547081354589, 16.18 156.059081354589 Z M 16.279999999999998 154.723081354589 L 16.279999999999998 151.075081354589 L 17.348 151.075081354589 L 17.348 154.723081354589 Z M 17.852 154.29908135458902 L 17.852 153.54308135458902 C 17.929333333333332 153.50308135458903, 18.014666666666667 153.47108135458902, 18.107999999999997 153.44708135458902 C 18.20133333333333 153.42308135458902, 18.301333333333332 153.41108135458902, 18.407999999999998 153.41108135458902 C 18.773333333333333 153.41108135458902, 19.047333333333334 153.52641468792234, 19.23 153.75708135458902 C 19.412666666666667 153.98774802125567, 19.514666666666663 154.30174802125566, 19.535999999999998 154.699081354589 C 19.546666666666667 154.859081354589, 19.55333333333333 155.01774802125567, 19.555999999999997 155.175081354589 C 19.558666666666664 155.33241468792235, 19.557333333333332 155.4857480212557, 19.552 155.635081354589 C 19.546666666666667 155.78441468792232, 19.538666666666668 155.92441468792234, 19.528 156.05508135458902 C 19.482666666666667 156.55374802125567, 19.353333333333335 156.91908135458903, 19.14 157.151081354589 C 18.926666666666666 157.38308135458902, 18.581333333333333 157.51374802125568, 18.104 157.54308135458902 L 18.104 156.651081354589 C 18.21333333333333 156.62174802125568, 18.296 156.569081354589, 18.352 156.493081354589 C 18.408 156.41708135458902, 18.44 156.31774802125568, 18.448 156.195081354589 C 18.471999999999998 155.90441468792233, 18.485999999999997 155.64308135458901, 18.49 155.41108135458902 C 18.494 155.17908135458902, 18.485333333333333 154.95774802125567, 18.464 154.747081354589 C 18.447999999999997 154.59241468792231, 18.396666666666665 154.477081354589, 18.31 154.401081354589 C 18.223333333333333 154.325081354589, 18.090666666666664 154.28708135458902, 17.912 154.28708135458902 C 17.901333333333334 154.28708135458902, 17.890666666666668 154.28841468792234, 17.88 154.291081354589 C 17.86933333333333 154.29374802125568, 17.86 154.29641468792235, 17.852 154.29908135458902 Z M 17.852 152.00708135458902 L 17.852 151.075081354589 L 19.439999999999998 151.075081354589 L 19.439999999999998 152.00708135458902 Z M 21.944 157.475081354589 L 21.944 151.075081354589 L 23.003999999999998 151.075081354589 L 23.003999999999998 157.475081354589 Z " stroke="none" fill-rule="nonzero" fill="#000000" fill-opacity="1" transform="matrix(1,0,0,1,5.05,13.314)" id="text45 l" />
  <path d="M 0 152.18479810040543 L 10 152.18479810040543 L 10 153.68479810040543 L 0 153.68479810040543 Z " stroke="none" fill-rule="evenodd" fill="#000000" fill-opacity="1" transform="matrix(1,0,0,1,5.05,13.314)" id="mark46 l" />
  <path d="M 0 145.81251484622186 L 10 145.81251484622186 L 10 147.31251484622186 L 0 147.31251484622186 Z " stroke="none" fill-rule="evenodd" fill="#000000" fill-opacity="1" transform="matrix(1,0,0,1,5.05,13.314)" id="mark47 l" />
  <path d="M 0 139.44023159203834 L 10 139.44023159203834 L 10 140.94023159203834 L 0 140.94023159203834 Z " stroke="none" fill-rule="evenodd" fill="#000000" fill-opacity="1" transform="matrix(1,0,0,1,5.05,13.314)" id="mark48 l" />
  <path d="M 0 133.06794833785477 L 10 133.06794833785477 L 10 134.56794833785477 L 0 134.56794833785477 Z " stroke="none" fill-rule="evenodd" fill="#000000" fill-opacity="1" transform="matrix(1,0,0,1,5.05,13.314)" id="mark49 l" />
  <path d="M 0 126.6956650836712 L 25 126.6956650836712 L 25 128.1956650836712 L 0 128.1956650836712 Z " stroke="none" fill-rule="evenodd" fill="#000000" fill-opacity="1" transform="matrix(1,0,0,1,5.05,13.314)" id="mark50 l" />
  <path d="M 12.204 124.22966508367121 C 12.198666666666668 124.05633175033788, 12.197333333333333 123.91699841700455, 12.2 123.8116650836712 C 12.202666666666667 123.70633175033788, 12.205333333333336 123.60433175033788, 12.208 123.5056650836712 L 13.288 123.5056650836712 C 13.280000000000001 123.58299841700455, 13.274000000000001 123.67899841700455, 13.27 123.7936650836712 C 13.265999999999998 123.90833175033788, 13.264666666666667 124.01899841700454, 13.266 124.12566508367121 C 13.267333333333333 124.23233175033788, 13.270666666666667 124.31233175033788, 13.276 124.3656650836712 C 13.286666666666665 124.48566508367121, 13.321333333333332 124.5836650836712, 13.379999999999999 124.6596650836712 C 13.438666666666666 124.73566508367121, 13.521333333333335 124.78966508367121, 13.628 124.8216650836712 L 13.628 125.7136650836712 C 13.134666666666668 125.67633175033788, 12.777333333333335 125.5416650836712, 12.556 125.3096650836712 C 12.334666666666667 125.0776650836712, 12.217333333333332 124.7176650836712, 12.204 124.22966508367121 Z M 12.304 122.89366508367121 L 12.304 119.2456650836712 L 13.372 119.2456650836712 L 13.372 122.89366508367121 Z M 13.876 122.4696650836712 L 13.876 121.7136650836712 C 13.953333333333333 121.6736650836712, 14.038666666666668 121.6416650836712, 14.132 121.6176650836712 C 14.225333333333333 121.5936650836712, 14.325333333333333 121.5816650836712, 14.432 121.5816650836712 C 14.797333333333334 121.5816650836712, 15.071333333333332 121.69699841700452, 15.254 121.9276650836712 C 15.436666666666667 122.15833175033788, 15.538666666666668 122.47233175033787, 15.56 122.86966508367121 C 15.570666666666668 123.0296650836712, 15.577333333333334 123.18833175033788, 15.58 123.34566508367121 C 15.582666666666666 123.50299841700453, 15.581333333333333 123.65633175033787, 15.576 123.8056650836712 C 15.570666666666666 123.95499841700453, 15.562666666666665 124.09499841700453, 15.552 124.2256650836712 C 15.506666666666668 124.72433175033787, 15.377333333333333 125.0896650836712, 15.164 125.3216650836712 C 14.950666666666667 125.5536650836712, 14.605333333333332 125.68433175033786, 14.128 125.7136650836712 L 14.128 124.8216650836712 C 14.237333333333334 124.79233175033788, 14.32 124.73966508367121, 14.376 124.6636650836712 C 14.432 124.5876650836712, 14.464 124.48833175033786, 14.472 124.3656650836712 C 14.495999999999999 124.07499841700454, 14.509999999999998 123.8136650836712, 14.514 123.5816650836712 C 14.518 123.3496650836712, 14.509333333333334 123.12833175033788, 14.488 122.91766508367121 C 14.472000000000001 122.76299841700455, 14.420666666666666 122.64766508367121, 14.334 122.5716650836712 C 14.247333333333334 122.4956650836712, 14.114666666666666 122.4576650836712, 13.936 122.4576650836712 C 13.925333333333333 122.4576650836712, 13.914666666666665 122.45899841700452, 13.904 122.4616650836712 C 13.893333333333334 122.46433175033786, 13.884 122.46699841700453, 13.876 122.4696650836712 Z M 13.876 120.1776650836712 L 13.876 119.2456650836712 L 15.464 119.2456650836712 L 15.464 120.1776650836712 Z M 16.196 124.2336650836712 C 16.188000000000002 123.80433175033787, 16.182666666666666 123.38766508367121, 16.18 122.9836650836712 C 16.177333333333333 122.5796650836712, 16.177999999999997 122.18433175033786, 16.182 121.7976650836712 C 16.186 121.41099841700455, 16.190666666666665 121.0296650836712, 16.196 120.6536650836712 C 16.209333333333333 120.2136650836712, 16.334000000000003 119.86833175033787, 16.57 119.6176650836712 C 16.805999999999997 119.36699841700454, 17.142666666666663 119.22166508367121, 17.58 119.1816650836712 L 17.58 120.06966508367121 C 17.382666666666665 120.12566508367121, 17.281333333333333 120.25499841700453, 17.276 120.4576650836712 C 17.262666666666668 120.82833175033787, 17.253333333333334 121.17633175033787, 17.248 121.5016650836712 C 17.242666666666665 121.82699841700453, 17.24 122.14366508367121, 17.24 122.4516650836712 C 17.24 122.7596650836712, 17.242666666666665 123.07433175033788, 17.248 123.3956650836712 C 17.253333333333334 123.71699841700453, 17.262666666666668 124.06033175033787, 17.276 124.4256650836712 C 17.281333333333333 124.63366508367122, 17.382666666666665 124.76566508367121, 17.58 124.8216650836712 L 17.58 125.7096650836712 C 17.142666666666663 125.66966508367122, 16.805999999999997 125.5236650836712, 16.57 125.27166508367121 C 16.334000000000003 125.01966508367121, 16.209333333333333 124.67366508367121, 16.196 124.2336650836712 Z M 18.084 125.7096650836712 L 18.084 124.8176650836712 C 18.268 124.76433175033787, 18.366666666666667 124.64033175033788, 18.38 124.4456650836712 C 18.398666666666667 123.97899841700453, 18.410666666666668 123.53033175033787, 18.416 123.0996650836712 C 18.421333333333333 122.66899841700453, 18.421333333333333 122.23833175033788, 18.416 121.80766508367121 C 18.410666666666668 121.37699841700454, 18.398666666666667 120.92433175033787, 18.38 120.4496650836712 C 18.374666666666666 120.25499841700454, 18.276 120.12833175033788, 18.084 120.06966508367121 L 18.084 119.1816650836712 C 18.513333333333335 119.22166508367121, 18.846666666666668 119.36699841700454, 19.084 119.6176650836712 C 19.321333333333335 119.86833175033787, 19.445333333333334 120.2136650836712, 19.456 120.6536650836712 C 19.46666666666667 120.96833175033788, 19.474666666666668 121.27833175033788, 19.48 121.5836650836712 C 19.485333333333333 121.88899841700453, 19.488 122.1896650836712, 19.488 122.48566508367121 C 19.488 122.78166508367121, 19.485333333333333 123.07499841700454, 19.48 123.3656650836712 C 19.474666666666668 123.65633175033787, 19.46666666666667 123.9456650836712, 19.456 124.2336650836712 C 19.439999999999998 124.68433175033786, 19.311999999999998 125.03299841700453, 19.072 125.2796650836712 C 18.832 125.52633175033787, 18.502666666666666 125.66966508367122, 18.084 125.7096650836712 Z M 21.944 125.6456650836712 L 21.944 119.2456650836712 L 23.003999999999998 119.2456650836712 L 23.003999999999998 125.6456650836712 Z " stroke="none" fill-rule="nonzero" fill="#000000" fill-opacity="1" transform="matrix(1,0,0,1,5.05,13.314)" id="text50 l" />
  <path d="M 0 120.32338182948763 L 10 120.32338182948763 L 10 121.82338182948763 L 0 121.82338182948763 Z " stroke="none" fill-rule="evenodd" fill="#000000" fill-opacity="1" transform="matrix(1,0,0,1,5.05,13.314)" id="mark51 l" />
  <path d="M 0 113.95109857530406 L 10 113.95109857530406 L 10 115.45109857530406 L 0 115.45109857530406 Z " stroke="none" fill-rule="evenodd" fill="#000000" fill-opacity="1" transform="matrix(1,0,0,1,5.05,13.314)" id="mark52 l" />
  <path d="M 0 107.57881532112054 L 10 107.57881532112054 L 10 109.07881532112054 L 0 109.07881532112054 Z " stroke="none" fill-rule="evenodd" fill="#000000" fill-opacity="1" transform="matrix(1,0,0,1,5.05,13.314)" id="mark53 l" />
  <path d="M 0 101.20653206693697 L 10 101.20653206693697 L 10 102.70653206693697 L 0 102.70653206693697 Z " stroke="none" fill-rule="evenodd" fill="#000000" fill-opacity="1" transform="matrix(1,0,0,1,5.05,13.314)" id="mark54 l" />
  <path d="M 0 94.8342488127534 L 25 94.8342488127534 L 25 96.3342488127534 L 0 96.3342488127534 Z " stroke="none" fill-rule="evenodd" fill="#000000" fill-opacity="1" transform="matrix(1,0,0,1,5.05,13.314)" id="mark55 l" />
  <path d="M 12.212 92.33624881275341 C 12.206666666666667 92.16291547942008, 12.205333333333332 92.02358214608674, 12.207999999999998 91.9182488127534 C 12.210666666666667 91.81291547942007, 12.213333333333335 91.71091547942007, 12.216 91.6122488127534 L 13.296 91.6122488127534 C 13.288 91.68958214608674, 13.282 91.78558214608674, 13.277999999999999 91.9002488127534 C 13.273999999999997 92.01491547942007, 13.272666666666666 92.12558214608674, 13.274 92.23224881275341 C 13.275333333333332 92.33891547942008, 13.278666666666666 92.41891547942008, 13.283999999999999 92.4722488127534 C 13.294666666666664 92.59224881275341, 13.32933333333333 92.69024881275341, 13.387999999999998 92.7662488127534 C 13.446666666666665 92.84224881275341, 13.529333333333334 92.89624881275341, 13.636 92.92824881275341 L 13.636 93.8202488127534 C 13.142666666666667 93.78291547942007, 12.785333333333334 93.64824881275341, 12.563999999999998 93.41624881275341 C 12.342666666666666 93.18424881275341, 12.225333333333332 92.82424881275341, 12.212 92.33624881275341 Z M 12.312 91.00024881275341 L 12.312 87.3522488127534 L 13.379999999999999 87.3522488127534 L 13.379999999999999 91.00024881275341 Z M 13.883999999999999 90.5762488127534 L 13.883999999999999 89.8202488127534 C 13.961333333333332 89.7802488127534, 14.046666666666667 89.7482488127534, 14.139999999999999 89.7242488127534 C 14.233333333333333 89.70024881275341, 14.333333333333332 89.68824881275341, 14.44 89.68824881275341 C 14.805333333333333 89.68824881275341, 15.07933333333333 89.80358214608674, 15.261999999999999 90.0342488127534 C 15.444666666666667 90.26491547942007, 15.546666666666667 90.57891547942008, 15.568 90.97624881275341 C 15.578666666666667 91.13624881275341, 15.585333333333333 91.29491547942007, 15.588 91.45224881275341 C 15.590666666666666 91.60958214608675, 15.589333333333332 91.76291547942007, 15.584 91.9122488127534 C 15.578666666666665 92.06158214608674, 15.570666666666664 92.20158214608674, 15.559999999999999 92.3322488127534 C 15.514666666666667 92.83091547942007, 15.385333333333332 93.19624881275341, 15.171999999999999 93.42824881275341 C 14.958666666666666 93.66024881275341, 14.613333333333332 93.79091547942008, 14.136 93.8202488127534 L 14.136 92.92824881275341 C 14.245333333333333 92.89891547942008, 14.328 92.84624881275342, 14.383999999999999 92.77024881275341 C 14.44 92.6942488127534, 14.472 92.59491547942007, 14.479999999999999 92.4722488127534 C 14.503999999999998 92.18158214608674, 14.517999999999997 91.92024881275341, 14.521999999999998 91.68824881275341 C 14.526 91.45624881275342, 14.517333333333333 91.23491547942007, 14.495999999999999 91.02424881275341 C 14.48 90.86958214608674, 14.428666666666665 90.75424881275342, 14.341999999999999 90.67824881275341 C 14.255333333333333 90.6022488127534, 14.122666666666666 90.5642488127534, 13.943999999999999 90.5642488127534 C 13.933333333333332 90.5642488127534, 13.922666666666665 90.56558214608674, 13.911999999999999 90.56824881275341 C 13.901333333333334 90.57091547942008, 13.892 90.57358214608674, 13.883999999999999 90.5762488127534 Z M 13.883999999999999 88.2842488127534 L 13.883999999999999 87.3522488127534 L 15.472 87.3522488127534 L 15.472 88.2842488127534 Z M 16.18 92.33624881275341 C 16.174666666666667 92.16291547942008, 16.173333333333332 92.02358214608674, 16.176 91.9182488127534 C 16.178666666666665 91.81291547942007, 16.181333333333335 91.71091547942007, 16.183999999999997 91.6122488127534 L 17.264 91.6122488127534 C 17.256 91.68958214608674, 17.25 91.78558214608674, 17.246 91.9002488127534 C 17.241999999999997 92.01491547942007, 17.240666666666666 92.12558214608674, 17.241999999999997 92.23224881275341 C 17.243333333333332 92.33891547942008, 17.246666666666666 92.41891547942008, 17.252 92.4722488127534 C 17.262666666666668 92.59224881275341, 17.297333333333334 92.69024881275341, 17.355999999999998 92.7662488127534 C 17.414666666666665 92.84224881275341, 17.497333333333334 92.89624881275341, 17.604 92.92824881275341 L 17.604 93.8202488127534 C 17.110666666666663 93.78291547942007, 16.75333333333333 93.64824881275341, 16.532 93.41624881275341 C 16.310666666666666 93.18424881275341, 16.19333333333333 92.82424881275341, 16.18 92.33624881275341 Z M 16.279999999999998 91.00024881275341 L 16.279999999999998 87.3522488127534 L 17.348 87.3522488127534 L 17.348 91.00024881275341 Z M 17.852 90.5762488127534 L 17.852 89.8202488127534 C 17.929333333333332 89.7802488127534, 18.014666666666667 89.7482488127534, 18.107999999999997 89.7242488127534 C 18.20133333333333 89.70024881275341, 18.301333333333332 89.68824881275341, 18.407999999999998 89.68824881275341 C 18.773333333333333 89.68824881275341, 19.047333333333334 89.80358214608674, 19.23 90.0342488127534 C 19.412666666666667 90.26491547942007, 19.514666666666663 90.57891547942008, 19.535999999999998 90.97624881275341 C 19.546666666666667 91.13624881275341, 19.55333333333333 91.29491547942007, 19.555999999999997 91.45224881275341 C 19.558666666666664 91.60958214608675, 19.557333333333332 91.76291547942007, 19.552 91.9122488127534 C 19.546666666666667 92.06158214608674, 19.538666666666668 92.20158214608674, 19.528 92.3322488127534 C 19.482666666666667 92.83091547942007, 19.353333333333335 93.19624881275341, 19.14 93.42824881275341 C 18.926666666666666 93.66024881275341, 18.581333333333333 93.79091547942008, 18.104 93.8202488127534 L 18.104 92.92824881275341 C 18.21333333333333 92.89891547942008, 18.296 92.84624881275342, 18.352 92.77024881275341 C 18.408 92.6942488127534, 18.44 92.59491547942007, 18.448 92.4722488127534 C 18.471999999999998 92.18158214608674, 18.485999999999997 91.92024881275341, 18.49 91.68824881275341 C 18.494 91.45624881275342, 18.485333333333333 91.23491547942007, 18.464 91.02424881275341 C 18.447999999999997 90.86958214608674, 18.396666666666665 90.75424881275342, 18.31 90.67824881275341 C 18.223333333333333 90.6022488127534, 18.090666666666664 90.5642488127534, 17.912 90.5642488127534 C 17.901333333333334 90.5642488127534, 17.890666666666668 90.56558214608674, 17.88 90.56824881275341 C 17.86933333333333 90.57091547942008, 17.86 90.57358214608674, 17.852 90.5762488127534 Z M 17.852 88.2842488127534 L 17.852 87.3522488127534 L 19.439999999999998 87.3522488127534 L 19.439999999999998 88.2842488127534 Z M 21.944 93.75224881275341 L 21.944 87.3522488127534 L 23.003999999999998 87.3522488127534 L 23.003999999999998 93.75224881275341 Z " stroke="none" fill-rule="nonzero" fill="#000000" fill-opacity="1" transform="matrix(1,0,0,1,5.05,13.314)" id="text55 l" />
  <path d="M 0 88.46196555856983 L 10 88.46196555856983 L 10 89.96196555856983 L 0 89.96196555856983 Z " stroke="none" fill-rule="evenodd" fill="#000000" fill-opacity="1" transform="matrix(1,0,0,1,5.05,13.314)" id="mark56 l" />
  <path d="M 0 82.08968230438632 L 10 82.08968230438632 L 10 83.58968230438632 L 0 83.58968230438632 Z " stroke="none" fill-rule="evenodd" fill="#000000" fill-opacity="1" transform="matrix(1,0,0,1,5.05,13.314)" id="mark57 l" />
  <path d="M 0 75.71739905020274 L 10 75.71739905020274 L 10 77.21739905020274 L 0 77.21739905020274 Z " stroke="none" fill-rule="evenodd" fill="#000000" fill-opacity="1" transform="matrix(1,0,0,1,5.05,13.314)" id="mark58 l" />
  <path d="M 0 69.34511579601917 L 10 69.34511579601917 L 10 70.84511579601917 L 0 70.84511579601917 Z " stroke="none" fill-rule="evenodd" fill="#000000" fill-opacity="1" transform="matrix(1,0,0,1,5.05,13.314)" id="mark59 l" />
  <path d="M 0 62.9728325418356 L 25 62.9728325418356 L 25 64.4728325418356 L 0 64.4728325418356 Z " stroke="none" fill-rule="evenodd" fill="#000000" fill-opacity="1" transform="matrix(1,0,0,1,5.05,13.314)" id="mark60 l" />
  <path d="M 12.264 60.50683254183561 C 12.261333333333333 60.24283254183561, 12.258 59.96549920850227, 12.254 59.674832541835606 C 12.25 59.38416587516894, 12.248 59.08549920850227, 12.248 58.778832541835605 C 12.248 58.47216587516894, 12.249333333333333 58.16416587516893, 12.251999999999999 57.854832541835606 C 12.254666666666665 57.54549920850228, 12.258666666666667 57.23749920850227, 12.264 56.930832541835606 C 12.271999999999998 56.4668325418356, 12.397333333333332 56.1148325418356, 12.639999999999999 55.8748325418356 C 12.882666666666665 55.63483254183561, 13.215999999999998 55.49616587516894, 13.639999999999999 55.458832541835605 L 13.639999999999999 56.3508325418356 C 13.543999999999997 56.3748325418356, 13.470666666666665 56.418832541835606, 13.419999999999998 56.482832541835606 C 13.369333333333332 56.546832541835606, 13.343999999999998 56.63216587516894, 13.344 56.738832541835606 C 13.335999999999999 57.226832541835606, 13.330666666666666 57.693499208502274, 13.328 58.138832541835605 C 13.325333333333333 58.584165875168935, 13.323999999999998 59.01749920850227, 13.323999999999998 59.4388325418356 C 13.323999999999998 59.860165875168946, 13.328 60.27483254183561, 13.335999999999999 60.6828325418356 C 13.335999999999999 60.792165875168934, 13.363333333333333 60.88149920850226, 13.418 60.9508325418356 C 13.472666666666665 61.02016587516893, 13.549333333333333 61.069499208502265, 13.648 61.098832541835606 L 13.648 61.9908325418356 C 13.159999999999998 61.958832541835605, 12.809333333333331 61.8268325418356, 12.595999999999998 61.5948325418356 C 12.382666666666665 61.3628325418356, 12.271999999999998 61.00016587516893, 12.264 60.50683254183561 Z M 13.812 58.8268325418356 L 13.812 58.0828325418356 C 13.894666666666666 58.034832541835605, 13.987333333333332 57.997499208502276, 14.09 57.970832541835605 C 14.192666666666668 57.944165875168935, 14.301333333333332 57.930832541835606, 14.415999999999999 57.930832541835606 C 14.84 57.930832541835606, 15.134 58.03016587516893, 15.297999999999998 58.2288325418356 C 15.462 58.42749920850227, 15.547999999999998 58.7588325418356, 15.556 59.2228325418356 C 15.561333333333334 59.4068325418356, 15.564666666666666 59.56216587516894, 15.565999999999999 59.6888325418356 C 15.567333333333332 59.815499208502274, 15.567333333333332 59.940165875168944, 15.565999999999999 60.062832541835604 C 15.564666666666666 60.185499208502264, 15.559999999999999 60.333499208502275, 15.552 60.50683254183561 C 15.527999999999999 60.997499208502276, 15.408 61.36016587516893, 15.192 61.5948325418356 C 14.975999999999999 61.82949920850227, 14.628 61.96149920850227, 14.148 61.9908325418356 L 14.148 61.1068325418356 C 14.251999999999999 61.077499208502275, 14.331333333333333 61.02949920850227, 14.386 60.9628325418356 C 14.440666666666665 60.89616587516893, 14.469333333333333 60.80949920850227, 14.472 60.702832541835605 C 14.477333333333332 60.54816587516894, 14.481333333333332 60.40949920850227, 14.483999999999998 60.2868325418356 C 14.486666666666666 60.16416587516893, 14.489333333333335 60.046832541835606, 14.491999999999999 59.934832541835604 C 14.494666666666667 59.8228325418356, 14.495333333333333 59.71149920850227, 14.494 59.6008325418356 C 14.492666666666667 59.490165875168934, 14.489333333333333 59.37349920850227, 14.483999999999998 59.25083254183561 C 14.481333333333332 59.101499208502275, 14.429333333333332 58.9908325418356, 14.328 58.918832541835606 C 14.226666666666665 58.84683254183561, 14.094666666666665 58.81083254183561, 13.931999999999999 58.8108325418356 C 13.913333333333334 58.81083254183561, 13.894 58.81149920850227, 13.873999999999999 58.812832541835604 C 13.854 58.81416587516894, 13.833333333333332 58.818832541835604, 13.812 58.8268325418356 Z M 14.44 57.50683254183561 C 14.448 57.41349920850227, 14.452666666666666 57.33149920850228, 14.453999999999999 57.260832541835605 C 14.455333333333332 57.190165875168944, 14.454666666666665 57.11483254183561, 14.451999999999998 57.034832541835605 C 14.449333333333332 56.9548325418356, 14.445333333333334 56.85616587516894, 14.44 56.738832541835606 C 14.434666666666665 56.64016587516893, 14.407999999999998 56.556832541835604, 14.36 56.488832541835606 C 14.311999999999998 56.42083254183561, 14.238666666666665 56.3748325418356, 14.139999999999999 56.3508325418356 L 14.139999999999999 55.4628325418356 C 14.577333333333332 55.5028325418356, 14.911333333333332 55.64749920850227, 15.142 55.89683254183561 C 15.372666666666667 56.14616587516893, 15.495999999999999 56.473499208502275, 15.511999999999999 56.87883254183561 C 15.514666666666667 56.94549920850227, 15.516666666666666 57.0088325418356, 15.517999999999999 57.068832541835604 C 15.519333333333332 57.12883254183561, 15.519333333333332 57.1928325418356, 15.517999999999999 57.260832541835605 C 15.516666666666666 57.32883254183561, 15.514666666666667 57.4108325418356, 15.511999999999999 57.50683254183561 Z M 16.196 60.510832541835605 C 16.188000000000002 60.08149920850227, 16.182666666666666 59.66483254183561, 16.18 59.260832541835605 C 16.177333333333333 58.8568325418356, 16.177999999999997 58.461499208502275, 16.182 58.074832541835605 C 16.186 57.688165875168934, 16.190666666666665 57.306832541835604, 16.196 56.930832541835606 C 16.209333333333333 56.4908325418356, 16.334000000000003 56.14549920850227, 16.57 55.894832541835605 C 16.805999999999997 55.64416587516894, 17.142666666666663 55.49883254183561, 17.58 55.458832541835605 L 17.58 56.3468325418356 C 17.382666666666665 56.40283254183561, 17.281333333333333 56.53216587516894, 17.276 56.7348325418356 C 17.262666666666668 57.105499208502266, 17.253333333333334 57.453499208502265, 17.248 57.778832541835605 C 17.242666666666665 58.10416587516893, 17.24 58.4208325418356, 17.24 58.7288325418356 C 17.24 59.0368325418356, 17.242666666666665 59.35149920850227, 17.248 59.672832541835604 C 17.253333333333334 59.99416587516894, 17.262666666666668 60.33749920850227, 17.276 60.702832541835605 C 17.281333333333333 60.9108325418356, 17.382666666666665 61.04283254183561, 17.58 61.098832541835606 L 17.58 61.986832541835604 C 17.142666666666663 61.946832541835605, 16.805999999999997 61.800832541835604, 16.57 61.5488325418356 C 16.334000000000003 61.2968325418356, 16.209333333333333 60.9508325418356, 16.196 60.510832541835605 Z M 18.084 61.986832541835604 L 18.084 61.0948325418356 C 18.268 61.04149920850227, 18.366666666666667 60.917499208502264, 18.38 60.7228325418356 C 18.398666666666667 60.25616587516893, 18.410666666666668 59.80749920850227, 18.416 59.376832541835604 C 18.421333333333333 58.94616587516894, 18.421333333333333 58.51549920850227, 18.416 58.0848325418356 C 18.410666666666668 57.654165875168935, 18.398666666666667 57.20149920850227, 18.38 56.726832541835606 C 18.374666666666666 56.532165875168936, 18.276 56.40549920850226, 18.084 56.3468325418356 L 18.084 55.458832541835605 C 18.513333333333335 55.49883254183561, 18.846666666666668 55.64416587516894, 19.084 55.894832541835605 C 19.321333333333335 56.14549920850227, 19.445333333333334 56.4908325418356, 19.456 56.930832541835606 C 19.46666666666667 57.24549920850228, 19.474666666666668 57.555499208502276, 19.48 57.860832541835606 C 19.485333333333333 58.166165875168936, 19.488 58.4668325418356, 19.488 58.76283254183561 C 19.488 59.0588325418356, 19.485333333333333 59.352165875168936, 19.48 59.6428325418356 C 19.474666666666668 59.93349920850227, 19.46666666666667 60.2228325418356, 19.456 60.510832541835605 C 19.439999999999998 60.961499208502275, 19.311999999999998 61.31016587516894, 19.072 61.556832541835604 C 18.832 61.80349920850227, 18.502666666666666 61.946832541835605, 18.084 61.986832541835604 Z M 21.944 61.922832541835604 L 21.944 55.522832541835605 L 23.003999999999998 55.522832541835605 L 23.003999999999998 61.922832541835604 Z " stroke="none" fill-rule="nonzero" fill="#000000" fill-opacity="1" transform="matrix(1,0,0,1,5.05,13.314)" id="text60 l" />
  <path d="M 0 56.60054928765203 L 10 56.60054928765203 L 10 58.10054928765203 L 0 58.10054928765203 Z " stroke="none" fill-rule="evenodd" fill="#000000" fill-opacity="1" transform="matrix(1,0,0,1,5.05,13.314)" id="mark61 l" />
  <path d="M 0 50.228266033468515 L 10 50.228266033468515 L 10 51.728266033468515 L 0 51.728266033468515 Z " stroke="none" fill-rule="evenodd" fill="#000000" fill-opacity="1" transform="matrix(1,0,0,1,5.05,13.314)" id="mark62 l" />
  <path d="M 0 43.85598277928494 L 10 43.85598277928494 L 10 45.35598277928494 L 0 45.35598277928494 Z " stroke="none" fill-rule="evenodd" fill="#000000" fill-opacity="1" transform="matrix(1,0,0,1,5.05,13.314)" id="mark63 l" />
  <path d="M 0 37.48369952510137 L 10 37.48369952510137 L 10 38.98369952510137 L 0 38.98369952510137 Z " stroke="none" fill-rule="evenodd" fill="#000000" fill-opacity="1" transform="matrix(1,0,0,1,5.05,13.314)" id="mark64 l" />
  <path d="M 0 31.1114162709178 L 25 31.1114162709178 L 25 32.6114162709178 L 0 32.6114162709178 Z " stroke="none" fill-rule="evenodd" fill="#000000" fill-opacity="1" transform="matrix(1,0,0,1,5.05,13.314)" id="mark65 l" />
  <path d="M 12.272 28.6454162709178 C 12.269333333333332 28.381416270917796, 12.266 28.104082937584465, 12.262 27.8134162709178 C 12.258000000000001 27.522749604251132, 12.256 27.224082937584463, 12.256 26.917416270917798 C 12.256 26.610749604251133, 12.257333333333335 26.302749604251133, 12.26 25.9934162709178 C 12.262666666666668 25.684082937584463, 12.266666666666666 25.376082937584464, 12.272 25.0694162709178 C 12.280000000000001 24.6054162709178, 12.405333333333335 24.253416270917803, 12.648 24.0134162709178 C 12.890666666666668 23.7734162709178, 13.224 23.634749604251134, 13.648 23.597416270917797 L 13.648 24.4894162709178 C 13.552 24.5134162709178, 13.478666666666665 24.5574162709178, 13.428 24.6214162709178 C 13.377333333333333 24.6854162709178, 13.352 24.77074960425113, 13.352 24.8774162709178 C 13.344 25.365416270917798, 13.338666666666665 25.832082937584467, 13.336 26.2774162709178 C 13.333333333333332 26.722749604251135, 13.332 27.15608293758447, 13.332 27.5774162709178 C 13.332 27.998749604251135, 13.335999999999999 28.4134162709178, 13.344 28.8214162709178 C 13.343999999999998 28.930749604251133, 13.371333333333332 29.02008293758447, 13.426 29.0894162709178 C 13.480666666666666 29.158749604251135, 13.557333333333332 29.208082937584464, 13.656 29.237416270917798 L 13.656 30.1294162709178 C 13.168 30.097416270917797, 12.817333333333334 29.9654162709178, 12.604 29.7334162709178 C 12.390666666666668 29.5014162709178, 12.280000000000001 29.13874960425113, 12.272 28.6454162709178 Z M 13.82 26.9654162709178 L 13.82 26.2214162709178 C 13.902666666666665 26.173416270917798, 13.995333333333331 26.136082937584465, 14.097999999999999 26.109416270917798 C 14.200666666666667 26.08274960425113, 14.309333333333333 26.0694162709178, 14.424 26.0694162709178 C 14.848 26.0694162709178, 15.142000000000001 26.168749604251133, 15.306000000000001 26.3674162709178 C 15.47 26.56608293758447, 15.556000000000001 26.8974162709178, 15.564 27.3614162709178 C 15.569333333333333 27.545416270917798, 15.572666666666667 27.700749604251136, 15.574 27.8274162709178 C 15.575333333333333 27.954082937584467, 15.575333333333333 28.078749604251136, 15.574 28.2014162709178 C 15.572666666666667 28.32408293758447, 15.567999999999998 28.472082937584467, 15.56 28.6454162709178 C 15.536000000000001 29.13608293758447, 15.416 29.49874960425113, 15.2 29.7334162709178 C 14.984 29.96808293758447, 14.636 30.100082937584467, 14.156 30.1294162709178 L 14.156 29.2454162709178 C 14.259999999999998 29.216082937584467, 14.339333333333332 29.168082937584465, 14.394 29.1014162709178 C 14.448666666666666 29.034749604251132, 14.477333333333334 28.948082937584466, 14.48 28.8414162709178 C 14.485333333333333 28.686749604251133, 14.489333333333335 28.548082937584468, 14.492 28.4254162709178 C 14.494666666666667 28.302749604251133, 14.497333333333334 28.1854162709178, 14.5 28.0734162709178 C 14.502666666666666 27.961416270917802, 14.503333333333332 27.850082937584467, 14.501999999999999 27.7394162709178 C 14.500666666666666 27.628749604251134, 14.497333333333334 27.512082937584466, 14.492 27.3894162709178 C 14.489333333333335 27.240082937584468, 14.437333333333335 27.1294162709178, 14.336 27.0574162709178 C 14.234666666666666 26.985416270917803, 14.102666666666666 26.9494162709178, 13.94 26.9494162709178 C 13.921333333333333 26.9494162709178, 13.902000000000001 26.95008293758447, 13.882 26.9514162709178 C 13.862000000000002 26.95274960425113, 13.841333333333335 26.9574162709178, 13.82 26.9654162709178 Z M 14.448 25.6454162709178 C 14.456 25.552082937584466, 14.460666666666668 25.470082937584465, 14.462 25.3994162709178 C 14.463333333333335 25.32874960425113, 14.462666666666667 25.253416270917796, 14.46 25.173416270917798 C 14.457333333333333 25.0934162709178, 14.453333333333333 24.994749604251133, 14.448 24.8774162709178 C 14.442666666666668 24.778749604251132, 14.416 24.6954162709178, 14.368 24.6274162709178 C 14.32 24.5594162709178, 14.246666666666666 24.5134162709178, 14.148 24.4894162709178 L 14.148 23.6014162709178 C 14.585333333333335 23.641416270917798, 14.919333333333334 23.786082937584467, 15.15 24.0354162709178 C 15.380666666666666 24.284749604251132, 15.504000000000001 24.612082937584468, 15.52 25.0174162709178 C 15.522666666666666 25.08408293758447, 15.524666666666668 25.1474162709178, 15.526 25.2074162709178 C 15.527333333333335 25.2674162709178, 15.527333333333335 25.3314162709178, 15.526 25.3994162709178 C 15.524666666666668 25.467416270917802, 15.522666666666666 25.549416270917803, 15.52 25.6454162709178 Z M 16.18 28.6454162709178 C 16.174666666666667 28.472082937584467, 16.173333333333332 28.332749604251134, 16.176 28.2274162709178 C 16.178666666666665 28.122082937584466, 16.181333333333335 28.02008293758447, 16.183999999999997 27.9214162709178 L 17.264 27.9214162709178 C 17.256 27.99874960425113, 17.25 28.094749604251135, 17.246 28.2094162709178 C 17.241999999999997 28.324082937584464, 17.240666666666666 28.43474960425113, 17.241999999999997 28.5414162709178 C 17.243333333333332 28.64808293758447, 17.246666666666666 28.728082937584468, 17.252 28.7814162709178 C 17.262666666666668 28.9014162709178, 17.297333333333334 28.9994162709178, 17.355999999999998 29.0754162709178 C 17.414666666666665 29.1514162709178, 17.497333333333334 29.2054162709178, 17.604 29.237416270917798 L 17.604 30.1294162709178 C 17.110666666666663 30.092082937584465, 16.75333333333333 29.957416270917797, 16.532 29.7254162709178 C 16.310666666666666 29.4934162709178, 16.19333333333333 29.1334162709178, 16.18 28.6454162709178 Z M 16.279999999999998 27.3094162709178 L 16.279999999999998 23.661416270917798 L 17.348 23.661416270917798 L 17.348 27.3094162709178 Z M 17.852 26.8854162709178 L 17.852 26.1294162709178 C 17.929333333333332 26.0894162709178, 18.014666666666667 26.0574162709178, 18.107999999999997 26.033416270917797 C 18.20133333333333 26.009416270917797, 18.301333333333332 25.9974162709178, 18.407999999999998 25.9974162709178 C 18.773333333333333 25.9974162709178, 19.047333333333334 26.112749604251135, 19.23 26.3434162709178 C 19.412666666666667 26.574082937584464, 19.514666666666663 26.888082937584464, 19.535999999999998 27.2854162709178 C 19.546666666666667 27.445416270917796, 19.55333333333333 27.604082937584465, 19.555999999999997 27.7614162709178 C 19.558666666666664 27.918749604251133, 19.557333333333332 28.072082937584465, 19.552 28.2214162709178 C 19.546666666666667 28.370749604251134, 19.538666666666668 28.510749604251135, 19.528 28.6414162709178 C 19.482666666666667 29.140082937584467, 19.353333333333335 29.5054162709178, 19.14 29.737416270917798 C 18.926666666666666 29.9694162709178, 18.581333333333333 30.100082937584467, 18.104 30.1294162709178 L 18.104 29.237416270917798 C 18.21333333333333 29.208082937584464, 18.296 29.155416270917797, 18.352 29.0794162709178 C 18.408 29.003416270917796, 18.44 28.904082937584462, 18.448 28.7814162709178 C 18.471999999999998 28.49074960425113, 18.485999999999997 28.229416270917795, 18.49 27.9974162709178 C 18.494 27.765416270917797, 18.485333333333333 27.544082937584463, 18.464 27.333416270917798 C 18.447999999999997 27.17874960425113, 18.396666666666665 27.0634162709178, 18.31 26.987416270917798 C 18.223333333333333 26.911416270917798, 18.090666666666664 26.8734162709178, 17.912 26.8734162709178 C 17.901333333333334 26.8734162709178, 17.890666666666668 26.874749604251132, 17.88 26.8774162709178 C 17.86933333333333 26.880082937584465, 17.86 26.88274960425113, 17.852 26.8854162709178 Z M 17.852 24.5934162709178 L 17.852 23.661416270917798 L 19.439999999999998 23.661416270917798 L 19.439999999999998 24.5934162709178 Z M 21.944 30.0614162709178 L 21.944 23.661416270917798 L 23.003999999999998 23.661416270917798 L 23.003999999999998 30.0614162709178 Z " stroke="none" fill-rule="nonzero" fill="#000000" fill-opacity="1" transform="matrix(1,0,0,1,5.05,13.314)" id="text65 l" />
  <path d="M 0 24.739133016734286 L 10 24.739133016734286 L 10 26.239133016734286 L 0 26.239133016734286 Z " stroke="none" fill-rule="evenodd" fill="#000000" fill-opacity="1" transform="matrix(1,0,0,1,5.05,13.314)" id="mark66 l" />
  <path d="M 0 18.366849762550657 L 10 18.366849762550657 L 10 19.866849762550657 L 0 19.866849762550657 Z " stroke="none" fill-rule="evenodd" fill="#000000" fill-opacity="1" transform="matrix(1,0,0,1,5.05,13.314)" id="mark67 l" />
  <path d="M 0 11.994566508367143 L 10 11.994566508367143 L 10 13.494566508367143 L 0 13.494566508367143 Z " stroke="none" fill-rule="evenodd" fill="#000000" fill-opacity="1" transform="matrix(1,0,0,1,5.05,13.314)" id="mark68 l" />
  <path d="M 0 5.622283254183571 L 10 5.622283254183571 L 10 7.122283254183571 L 0 7.122283254183571 Z " stroke="none" fill-rule="evenodd" fill="#000000" fill-opacity="1" transform="matrix(1,0,0,1,5.05,13.314)" id="mark69 l" />
  <path d="M 0 -0.75 L 25 -0.75 L 25 0.75 L 0 0.75 Z " stroke="none" fill-rule="evenodd" fill="#000000" fill-opacity="1" transform="matrix(1,0,0,1,5.05,13.314)" id="mark70 l" />
  <path d="M 12.331999999999999 -7.268 L 12.331999999999999 -8.2 L 15.691999999999998 -8.2 L 15.691999999999998 -7.268 Z M 12.783999999999999 -1.7999999999999998 L 14.471999999999998 -6.8759999999999994 L 15.559999999999999 -6.8759999999999994 L 13.899999999999999 -1.7999999999999998 Z M 16.195999999999998 -3.2119999999999997 C 16.188 -3.641333333333333, 16.182666666666666 -4.058, 16.18 -4.462 C 16.177333333333333 -4.866, 16.177999999999997 -5.261333333333333, 16.182 -5.648 C 16.186 -6.034666666666666, 16.190666666666665 -6.416, 16.195999999999998 -6.792 C 16.20933333333333 -7.231999999999999, 16.333999999999996 -7.577333333333334, 16.569999999999997 -7.828 C 16.805999999999997 -8.078666666666667, 17.142666666666663 -8.224, 17.58 -8.264 L 17.58 -7.3759999999999994 C 17.382666666666665 -7.32, 17.281333333333333 -7.190666666666667, 17.275999999999996 -6.9879999999999995 C 17.262666666666664 -6.617333333333333, 17.25333333333333 -6.269333333333333, 17.247999999999998 -5.944 C 17.242666666666665 -5.618666666666666, 17.24 -5.302, 17.24 -4.994 C 17.24 -4.686, 17.242666666666665 -4.371333333333333, 17.247999999999998 -4.05 C 17.25333333333333 -3.7286666666666664, 17.262666666666664 -3.3853333333333326, 17.275999999999996 -3.0199999999999996 C 17.281333333333333 -2.812, 17.382666666666665 -2.6799999999999997, 17.58 -2.6239999999999997 L 17.58 -1.7359999999999998 C 17.142666666666663 -1.7759999999999998, 16.805999999999997 -1.9219999999999997, 16.569999999999997 -2.174 C 16.333999999999996 -2.4259999999999997, 16.20933333333333 -2.772, 16.195999999999998 -3.2119999999999997 Z M 18.084 -1.7359999999999998 L 18.084 -2.6279999999999997 C 18.268 -2.681333333333333, 18.366666666666667 -2.8053333333333335, 18.38 -3 C 18.398666666666664 -3.4666666666666663, 18.410666666666664 -3.915333333333333, 18.415999999999997 -4.346 C 18.42133333333333 -4.776666666666666, 18.42133333333333 -5.207333333333333, 18.415999999999997 -5.638 C 18.410666666666664 -6.068666666666666, 18.398666666666664 -6.521333333333333, 18.38 -6.9959999999999996 C 18.374666666666666 -7.190666666666667, 18.276 -7.317333333333334, 18.084 -7.3759999999999994 L 18.084 -8.264 C 18.513333333333332 -8.224, 18.846666666666664 -8.078666666666667, 19.083999999999996 -7.828 C 19.32133333333333 -7.577333333333334, 19.44533333333333 -7.231999999999999, 19.456 -6.792 C 19.466666666666665 -6.477333333333332, 19.474666666666664 -6.167333333333333, 19.479999999999997 -5.861999999999999 C 19.48533333333333 -5.556666666666667, 19.488 -5.256, 19.488 -4.96 C 19.488 -4.664, 19.48533333333333 -4.370666666666667, 19.479999999999997 -4.08 C 19.474666666666664 -3.7893333333333334, 19.466666666666665 -3.5, 19.456 -3.2119999999999997 C 19.439999999999998 -2.761333333333333, 19.311999999999998 -2.4126666666666665, 19.072 -2.166 C 18.831999999999997 -1.9193333333333331, 18.502666666666663 -1.7759999999999998, 18.084 -1.7359999999999998 Z M 21.944 -1.7999999999999998 L 21.944 -8.2 L 23.003999999999998 -8.2 L 23.003999999999998 -1.7999999999999998 Z " stroke="none" fill-rule="nonzero" fill="#000000" fill-opacity="1" transform="matrix(1,0,0,1,5.05,13.314)" id="text70 l" />
  <path d="M -5 -13.264 L 30 -13.264 L 30 446.4555445386655 L -5 446.4555445386655 Z " stroke="#FF0000" stroke-opacity="1" stroke-width="0.1" stroke-linecap="butt" stroke-linejoin="miter" fill="none" transform="matrix(1,0,0,1,5.05,13.314)" />
</svg>