<?xml version="1.0" encoding="UTF-8"?>
<svg xmlns:xlink="http://www.w3.org/1999/xlink" viewBox="0 0 45.099999999999994 107.01511279960678" version="1.1" style="font-synthesis: none;" width="45.099999999999994mm" height="107.01511279960678mm" xmlns="http://www.w3.org/2000/svg">
  <defs />
  <style>	</style>
  <path d="M 0 0 L 45.099999999999994 0 L 45.099999999999994 107.01511279960678 L 0 107.01511279960678 Z " stroke="none" fill-rule="nonzero" fill="#FFFFFF" fill-opacity="1" transform="matrix(1,0,0,1,0,0)" />
  <path d="M 0 86.16511279960679 L 10 86.16511279960679 L 10 87.66511279960679 L 0 87.66511279960679 Z " stroke="none" fill-rule="evenodd" fill="#000000" fill-opacity="1" transform="matrix(1,0,0,1,5.05,13.314)" id="mark200 ml" />
  <path d="M 0 79.47933489194472 L 10 79.47933489194472 L 10 80.97933489194472 L 0 80.97933489194472 Z " stroke="none" fill-rule="evenodd" fill="#000000" fill-opacity="1" transform="matrix(1,0,0,1,5.05,13.314)" id="mark300 ml" />
  <path d="M 0 72.79355698428266 L 10 72.79355698428266 L 10 74.29355698428266 L 0 74.29355698428266 Z " stroke="none" fill-rule="evenodd" fill="#000000" fill-opacity="1" transform="matrix(1,0,0,1,5.05,13.314)" id="mark400 ml" />
  <path d="M 0 66.1077790766206 L 25 66.1077790766206 L 25 67.6077790766206 L 0 67.6077790766206 Z " stroke="none" fill-rule="evenodd" fill="#000000" fill-opacity="1" transform="matrix(1,0,0,1,5.05,13.314)" id="mark500 ml" />
  <path d="M 14.172 63.64177907662061 C 14.166666666666666 63.46844574328727, 14.165333333333333 63.329112409953936, 14.168 63.2237790766206 C 14.170666666666666 63.11844574328727, 14.173333333333334 63.01644574328728, 14.176 62.917779076620604 L 15.256 62.917779076620604 C 15.248000000000001 62.99511240995393, 15.242 63.091112409953936, 15.238 63.20577907662061 C 15.233999999999998 63.32044574328727, 15.232666666666667 63.43111240995394, 15.234 63.5377790766206 C 15.235333333333333 63.644445743287264, 15.238666666666667 63.72444574328727, 15.244 63.777779076620604 C 15.254666666666667 63.8977790766206, 15.289333333333333 63.9957790766206, 15.347999999999999 64.0717790766206 C 15.406666666666666 64.1477790766206, 15.489333333333335 64.2017790766206, 15.596 64.2337790766206 L 15.596 65.1257790766206 C 15.102666666666668 65.08844574328727, 14.745333333333333 64.9537790766206, 14.524 64.7217790766206 C 14.302666666666667 64.48977907662061, 14.185333333333334 64.12977907662061, 14.172 63.64177907662061 Z M 14.272 62.3057790766206 L 14.272 58.657779076620606 L 15.34 58.657779076620606 L 15.34 62.3057790766206 Z M 15.844 61.8817790766206 L 15.844 61.1257790766206 C 15.921333333333333 61.085779076620604, 16.006666666666668 61.0537790766206, 16.1 61.029779076620606 C 16.193333333333335 61.0057790766206, 16.293333333333333 60.9937790766206, 16.4 60.993779076620605 C 16.765333333333334 60.9937790766206, 17.039333333333335 61.10911240995394, 17.222 61.3397790766206 C 17.404666666666667 61.570445743287266, 17.506666666666668 61.88444574328727, 17.528 62.28177907662061 C 17.538666666666664 62.441779076620605, 17.545333333333332 62.60044574328727, 17.548000000000002 62.75777907662061 C 17.550666666666665 62.915112409953935, 17.549333333333333 63.06844574328727, 17.544 63.2177790766206 C 17.538666666666668 63.36711240995394, 17.53066666666667 63.50711240995394, 17.52 63.6377790766206 C 17.474666666666664 64.13644574328728, 17.345333333333333 64.50177907662061, 17.131999999999998 64.7337790766206 C 16.918666666666667 64.9657790766206, 16.573333333333334 65.09644574328728, 16.096 65.1257790766206 L 16.096 64.2337790766206 C 16.205333333333332 64.20444574328727, 16.287999999999997 64.15177907662061, 16.344 64.0757790766206 C 16.4 63.999779076620605, 16.432000000000002 63.90044574328727, 16.44 63.777779076620604 C 16.464 63.48711240995394, 16.478 63.225779076620604, 16.482 62.993779076620605 C 16.485999999999997 62.761779076620606, 16.477333333333334 62.54044574328727, 16.456 62.3297790766206 C 16.439999999999998 62.17511240995394, 16.388666666666666 62.05977907662061, 16.302 61.98377907662061 C 16.215333333333334 61.907779076620606, 16.082666666666668 61.8697790766206, 15.904 61.8697790766206 C 15.893333333333334 61.8697790766206, 15.882666666666667 61.87111240995394, 15.872 61.87377907662061 C 15.861333333333333 61.87644574328728, 15.852 61.87911240995393, 15.844 61.8817790766206 Z M 15.844 59.5897790766206 L 15.844 58.657779076620606 L 17.432 58.657779076620606 L 17.432 59.5897790766206 Z M 18.164 63.645779076620606 C 18.156000000000002 63.21644574328727, 18.150666666666666 62.79977907662061, 18.148 62.395779076620606 C 18.145333333333333 61.9917790766206, 18.145999999999997 61.596445743287276, 18.15 61.209779076620606 C 18.154 60.823112409953936, 18.158666666666665 60.441779076620605, 18.164 60.06577907662061 C 18.177333333333333 59.6257790766206, 18.302 59.280445743287274, 18.538 59.029779076620606 C 18.774 58.77911240995394, 19.110666666666667 58.63377907662061, 19.548 58.593779076620606 L 19.548 59.481779076620604 C 19.350666666666665 59.53777907662061, 19.249333333333333 59.66711240995394, 19.244 59.8697790766206 C 19.230666666666668 60.240445743287275, 19.221333333333334 60.58844574328728, 19.216 60.91377907662061 C 19.210666666666665 61.23911240995395, 19.208 61.55577907662061, 19.208 61.8637790766206 C 19.208 62.17177907662061, 19.210666666666665 62.48644574328728, 19.216 62.807779076620605 C 19.221333333333334 63.12911240995393, 19.230666666666668 63.47244574328727, 19.244 63.837779076620606 C 19.249333333333333 64.0457790766206, 19.350666666666665 64.1777790766206, 19.548 64.2337790766206 L 19.548 65.1217790766206 C 19.110666666666667 65.0817790766206, 18.774 64.9357790766206, 18.538 64.68377907662061 C 18.302 64.43177907662061, 18.177333333333333 64.08577907662061, 18.164 63.645779076620606 Z M 20.052 65.1217790766206 L 20.052 64.2297790766206 C 20.236 64.17644574328727, 20.334666666666667 64.05244574328727, 20.348 63.8577790766206 C 20.366666666666667 63.391112409953934, 20.378666666666668 62.942445743287266, 20.384 62.511779076620606 C 20.389333333333333 62.08111240995393, 20.389333333333333 61.650445743287264, 20.384 61.219779076620604 C 20.378666666666668 60.78911240995393, 20.366666666666667 60.33644574328727, 20.348 59.86177907662061 C 20.342666666666666 59.667112409953944, 20.244 59.54044574328728, 20.052 59.481779076620604 L 20.052 58.593779076620606 C 20.481333333333332 58.63377907662061, 20.814666666666668 58.77911240995394, 21.052 59.029779076620606 C 21.28933333333333 59.280445743287274, 21.413333333333334 59.6257790766206, 21.424 60.06577907662061 C 21.43466666666667 60.380445743287275, 21.442666666666668 60.69044574328727, 21.448 60.99577907662061 C 21.453333333333333 61.301112409953944, 21.456 61.60177907662061, 21.456 61.89777907662061 C 21.456 62.19377907662061, 21.453333333333333 62.48711240995394, 21.448 62.777779076620604 C 21.442666666666668 63.06844574328727, 21.43466666666667 63.3577790766206, 21.424 63.645779076620606 C 21.407999999999998 64.09644574328726, 21.279999999999998 64.44511240995394, 21.04 64.6917790766206 C 20.8 64.93844574328728, 20.470666666666666 65.0817790766206, 20.052 65.1217790766206 Z M 22.14 63.645779076620606 C 22.132 63.21644574328727, 22.126666666666665 62.79977907662061, 22.124 62.395779076620606 C 22.121333333333332 61.9917790766206, 22.121999999999996 61.596445743287276, 22.125999999999998 61.209779076620606 C 22.13 60.823112409953936, 22.134666666666664 60.441779076620605, 22.14 60.06577907662061 C 22.153333333333332 59.6257790766206, 22.278 59.280445743287274, 22.514 59.029779076620606 C 22.75 58.77911240995394, 23.086666666666666 58.63377907662061, 23.523999999999997 58.593779076620606 L 23.523999999999997 59.481779076620604 C 23.326666666666664 59.53777907662061, 23.22533333333333 59.66711240995394, 23.22 59.8697790766206 C 23.206666666666667 60.240445743287275, 23.197333333333333 60.58844574328728, 23.192 60.91377907662061 C 23.186666666666664 61.23911240995395, 23.183999999999997 61.55577907662061, 23.183999999999997 61.8637790766206 C 23.183999999999997 62.17177907662061, 23.186666666666664 62.48644574328728, 23.192 62.807779076620605 C 23.197333333333333 63.12911240995393, 23.206666666666667 63.47244574328727, 23.22 63.837779076620606 C 23.22533333333333 64.0457790766206, 23.326666666666664 64.1777790766206, 23.523999999999997 64.2337790766206 L 23.523999999999997 65.1217790766206 C 23.086666666666666 65.0817790766206, 22.75 64.9357790766206, 22.514 64.68377907662061 C 22.278 64.43177907662061, 22.153333333333332 64.08577907662061, 22.14 63.645779076620606 Z M 24.028 65.1217790766206 L 24.028 64.2297790766206 C 24.211999999999996 64.17644574328727, 24.310666666666663 64.05244574328727, 24.323999999999998 63.8577790766206 C 24.342666666666666 63.391112409953934, 24.354666666666667 62.942445743287266, 24.36 62.511779076620606 C 24.365333333333332 62.08111240995393, 24.365333333333332 61.650445743287264, 24.36 61.219779076620604 C 24.354666666666667 60.78911240995393, 24.342666666666666 60.33644574328727, 24.323999999999998 59.86177907662061 C 24.318666666666665 59.667112409953944, 24.22 59.54044574328728, 24.028 59.481779076620604 L 24.028 58.593779076620606 C 24.45733333333333 58.63377907662061, 24.790666666666663 58.77911240995394, 25.028 59.029779076620606 C 25.265333333333334 59.280445743287274, 25.389333333333333 59.6257790766206, 25.4 60.06577907662061 C 25.410666666666664 60.380445743287275, 25.418666666666667 60.69044574328727, 25.424 60.99577907662061 C 25.429333333333332 61.301112409953944, 25.431999999999995 61.60177907662061, 25.432 61.89777907662061 C 25.431999999999995 62.19377907662061, 25.429333333333332 62.48711240995394, 25.424 62.777779076620604 C 25.418666666666667 63.06844574328727, 25.410666666666664 63.3577790766206, 25.4 63.645779076620606 C 25.384 64.09644574328726, 25.256 64.44511240995394, 25.016 64.6917790766206 C 24.775999999999996 64.93844574328728, 24.446666666666665 65.0817790766206, 24.028 65.1217790766206 Z M 27.887999999999998 65.0577790766206 L 27.887999999999998 60.25777907662061 L 28.956 60.25777907662061 L 28.956 65.0577790766206 Z M 32.111999999999995 65.0577790766206 L 32.111999999999995 61.3577790766206 C 32.111999999999995 61.21644574328727, 32.074 61.11444574328728, 31.997999999999998 61.051779076620605 C 31.921999999999997 60.98911240995393, 31.818666666666665 60.9577790766206, 31.688 60.957779076620604 C 31.648000000000003 60.9577790766206, 31.614666666666665 60.9617790766206, 31.587999999999997 60.969779076620604 L 31.587999999999997 60.337779076620606 C 31.662666666666667 60.289779076620604, 31.745333333333335 60.25177907662061, 31.836 60.2237790766206 C 31.926666666666662 60.19577907662061, 32.02933333333333 60.181779076620614, 32.144 60.18177907662061 C 32.471999999999994 60.181779076620614, 32.726 60.27977907662061, 32.906 60.475779076620604 C 33.086 60.67177907662061, 33.176 60.99644574328727, 33.176 61.44977907662061 L 33.176 65.0577790766206 Z M 30.016 65.0577790766206 L 30.016 61.3577790766206 C 30.016 61.22177907662061, 29.982 61.12111240995394, 29.913999999999998 61.0557790766206 C 29.845999999999997 60.99044574328727, 29.742666666666665 60.9577790766206, 29.604 60.957779076620604 C 29.58 60.9577790766206, 29.55533333333333 60.95844574328727, 29.529999999999998 60.959779076620606 C 29.504666666666665 60.96111240995394, 29.479999999999997 60.965779076620606, 29.456 60.9737790766206 L 29.456 60.3577790766206 C 29.528 60.29911240995394, 29.610666666666667 60.25511240995394, 29.704 60.225779076620604 C 29.79733333333333 60.19644574328727, 29.912 60.181779076620614, 30.048 60.18177907662061 C 30.375999999999998 60.181779076620614, 30.63133333333333 60.27977907662061, 30.814 60.475779076620604 C 30.996666666666663 60.67177907662061, 31.087999999999997 60.99644574328727, 31.087999999999997 61.44977907662061 L 31.087999999999997 65.0577790766206 Z M 33.944 65.0577790766206 L 33.944 58.657779076620606 L 35.004 58.657779076620606 L 35.004 65.0577790766206 Z " stroke="none" fill-rule="nonzero" fill="#000000" fill-opacity="1" transform="matrix(1,0,0,1,5.05,13.314)" id="text500 ml" />
  <path d="M 0 59.422001168958545 L 10 59.422001168958545 L 10 60.922001168958545 L 0 60.922001168958545 Z " stroke="none" fill-rule="evenodd" fill="#000000" fill-opacity="1" transform="matrix(1,0,0,1,5.05,13.314)" id="mark600 ml" />
  <path d="M 0 52.73622326129648 L 10 52.73622326129648 L 10 54.23622326129648 L 0 54.23622326129648 Z " stroke="none" fill-rule="evenodd" fill="#000000" fill-opacity="1" transform="matrix(1,0,0,1,5.05,13.314)" id="mark700 ml" />
  <path d="M 0 46.05044535363442 L 10 46.05044535363442 L 10 47.55044535363442 L 0 47.55044535363442 Z " stroke="none" fill-rule="evenodd" fill="#000000" fill-opacity="1" transform="matrix(1,0,0,1,5.05,13.314)" id="mark800 ml" />
  <path d="M 0 39.36466744597235 L 10 39.36466744597235 L 10 40.86466744597235 L 0 40.86466744597235 Z " stroke="none" fill-rule="evenodd" fill="#000000" fill-opacity="1" transform="matrix(1,0,0,1,5.05,13.314)" id="mark900 ml" />
  <path d="M 0 32.6788895383103 L 25 32.6788895383103 L 25 34.1788895383103 L 0 34.1788895383103 Z " stroke="none" fill-rule="evenodd" fill="#000000" fill-opacity="1" transform="matrix(1,0,0,1,5.05,13.314)" id="mark1,000 ml" />
  <path d="M 12.315999999999997 31.6288895383103 L 12.315999999999997 26.1848895383103 L 11.863999999999997 26.1848895383103 L 11.831999999999997 25.8048895383103 L 12.535999999999998 25.2288895383103 L 13.415999999999999 25.2288895383103 L 13.415999999999999 31.6288895383103 Z M 14.187999999999997 30.2168895383103 C 14.179999999999996 29.787556204976966, 14.174666666666663 29.3708895383103, 14.171999999999997 28.9668895383103 C 14.16933333333333 28.5628895383103, 14.169999999999998 28.167556204976968, 14.173999999999998 27.7808895383103 C 14.177999999999997 27.394222871643635, 14.182666666666663 27.0128895383103, 14.187999999999997 26.6368895383103 C 14.20133333333333 26.196889538310298, 14.325999999999997 25.851556204976966, 14.561999999999998 25.600889538310298 C 14.797999999999996 25.35022287164363, 15.134666666666664 25.204889538310297, 15.571999999999997 25.164889538310298 L 15.571999999999997 26.0528895383103 C 15.374666666666663 26.1088895383103, 15.27333333333333 26.238222871643636, 15.267999999999997 26.4408895383103 C 15.254666666666663 26.811556204976966, 15.245333333333331 27.159556204976965, 15.239999999999997 27.4848895383103 C 15.234666666666666 27.81022287164363, 15.232 28.1268895383103, 15.231999999999998 28.4348895383103 C 15.232 28.7428895383103, 15.234666666666666 29.05755620497697, 15.239999999999997 29.3788895383103 C 15.245333333333331 29.700222871643632, 15.254666666666663 30.043556204976966, 15.267999999999997 30.4088895383103 C 15.27333333333333 30.616889538310296, 15.374666666666663 30.748889538310298, 15.571999999999997 30.8048895383103 L 15.571999999999997 31.6928895383103 C 15.134666666666664 31.652889538310305, 14.797999999999996 31.506889538310304, 14.561999999999998 31.2548895383103 C 14.325999999999997 31.0028895383103, 14.20133333333333 30.656889538310303, 14.187999999999997 30.2168895383103 Z M 16.075999999999997 31.6928895383103 L 16.075999999999997 30.8008895383103 C 16.259999999999998 30.747556204976966, 16.358666666666664 30.623556204976964, 16.371999999999996 30.4288895383103 C 16.390666666666664 29.962222871643633, 16.402666666666665 29.513556204976965, 16.407999999999998 29.0828895383103 C 16.41333333333333 28.65222287164363, 16.41333333333333 28.221556204976963, 16.407999999999998 27.7908895383103 C 16.402666666666665 27.360222871643636, 16.390666666666664 26.90755620497697, 16.371999999999996 26.4328895383103 C 16.366666666666664 26.238222871643636, 16.267999999999997 26.111556204976967, 16.075999999999997 26.0528895383103 L 16.075999999999997 25.164889538310298 C 16.505333333333333 25.204889538310297, 16.838666666666665 25.35022287164363, 17.075999999999997 25.600889538310298 C 17.313333333333333 25.851556204976966, 17.43733333333333 26.196889538310298, 17.447999999999997 26.6368895383103 C 17.458666666666666 26.951556204976967, 17.466666666666665 27.26155620497697, 17.471999999999998 27.5668895383103 C 17.47733333333333 27.872222871643636, 17.479999999999997 28.1728895383103, 17.479999999999997 28.4688895383103 C 17.479999999999997 28.7648895383103, 17.47733333333333 29.058222871643633, 17.471999999999998 29.3488895383103 C 17.466666666666665 29.639556204976966, 17.458666666666666 29.9288895383103, 17.447999999999997 30.2168895383103 C 17.431999999999995 30.667556204976968, 17.303999999999995 31.016222871643635, 17.063999999999997 31.2628895383103 C 16.823999999999998 31.509556204976967, 16.494666666666664 31.652889538310305, 16.075999999999997 31.6928895383103 Z M 18.163999999999998 30.2168895383103 C 18.156 29.787556204976966, 18.150666666666663 29.3708895383103, 18.147999999999996 28.9668895383103 C 18.14533333333333 28.5628895383103, 18.145999999999994 28.167556204976968, 18.149999999999995 27.7808895383103 C 18.153999999999996 27.394222871643635, 18.15866666666666 27.0128895383103, 18.163999999999998 26.6368895383103 C 18.17733333333333 26.196889538310298, 18.302 25.851556204976966, 18.537999999999997 25.600889538310298 C 18.773999999999994 25.35022287164363, 19.11066666666666 25.204889538310297, 19.547999999999995 25.164889538310298 L 19.547999999999995 26.0528895383103 C 19.350666666666662 26.1088895383103, 19.24933333333333 26.238222871643636, 19.243999999999996 26.4408895383103 C 19.230666666666664 26.811556204976966, 19.22133333333333 27.159556204976965, 19.215999999999998 27.4848895383103 C 19.21066666666666 27.81022287164363, 19.207999999999995 28.1268895383103, 19.207999999999995 28.4348895383103 C 19.207999999999995 28.7428895383103, 19.21066666666666 29.05755620497697, 19.215999999999998 29.3788895383103 C 19.22133333333333 29.700222871643632, 19.230666666666664 30.043556204976966, 19.243999999999996 30.4088895383103 C 19.24933333333333 30.616889538310296, 19.350666666666662 30.748889538310298, 19.547999999999995 30.8048895383103 L 19.547999999999995 31.6928895383103 C 19.11066666666666 31.652889538310305, 18.773999999999994 31.506889538310304, 18.537999999999997 31.2548895383103 C 18.302 31.0028895383103, 18.17733333333333 30.656889538310303, 18.163999999999998 30.2168895383103 Z M 20.051999999999996 31.6928895383103 L 20.051999999999996 30.8008895383103 C 20.235999999999997 30.747556204976966, 20.334666666666664 30.623556204976964, 20.347999999999995 30.4288895383103 C 20.366666666666664 29.962222871643633, 20.378666666666664 29.513556204976965, 20.383999999999997 29.0828895383103 C 20.38933333333333 28.65222287164363, 20.38933333333333 28.221556204976963, 20.383999999999997 27.7908895383103 C 20.378666666666664 27.360222871643636, 20.366666666666664 26.90755620497697, 20.347999999999995 26.4328895383103 C 20.342666666666663 26.238222871643636, 20.243999999999996 26.111556204976967, 20.051999999999996 26.0528895383103 L 20.051999999999996 25.164889538310298 C 20.481333333333332 25.204889538310297, 20.814666666666664 25.35022287164363, 21.051999999999996 25.600889538310298 C 21.28933333333333 25.851556204976966, 21.41333333333333 26.196889538310298, 21.423999999999996 26.6368895383103 C 21.434666666666665 26.951556204976967, 21.442666666666664 27.26155620497697, 21.447999999999997 27.5668895383103 C 21.45333333333333 27.872222871643636, 21.455999999999996 28.1728895383103, 21.455999999999996 28.4688895383103 C 21.455999999999996 28.7648895383103, 21.45333333333333 29.058222871643633, 21.447999999999997 29.3488895383103 C 21.442666666666664 29.639556204976966, 21.434666666666665 29.9288895383103, 21.423999999999996 30.2168895383103 C 21.407999999999994 30.667556204976968, 21.279999999999994 31.016222871643635, 21.039999999999996 31.2628895383103 C 20.799999999999997 31.509556204976967, 20.470666666666663 31.652889538310305, 20.051999999999996 31.6928895383103 Z M 22.139999999999997 30.2168895383103 C 22.131999999999998 29.787556204976966, 22.12666666666666 29.3708895383103, 22.123999999999995 28.9668895383103 C 22.12133333333333 28.5628895383103, 22.121999999999993 28.167556204976968, 22.125999999999994 27.7808895383103 C 22.129999999999995 27.394222871643635, 22.13466666666666 27.0128895383103, 22.139999999999997 26.6368895383103 C 22.15333333333333 26.196889538310298, 22.278 25.851556204976966, 22.513999999999996 25.600889538310298 C 22.749999999999993 25.35022287164363, 23.08666666666666 25.204889538310297, 23.523999999999994 25.164889538310298 L 23.523999999999994 26.0528895383103 C 23.32666666666666 26.1088895383103, 23.225333333333328 26.238222871643636, 23.219999999999995 26.4408895383103 C 23.206666666666663 26.811556204976966, 23.19733333333333 27.159556204976965, 23.191999999999997 27.4848895383103 C 23.18666666666666 27.81022287164363, 23.183999999999994 28.1268895383103, 23.183999999999994 28.4348895383103 C 23.183999999999994 28.7428895383103, 23.18666666666666 29.05755620497697, 23.191999999999997 29.3788895383103 C 23.19733333333333 29.700222871643632, 23.206666666666663 30.043556204976966, 23.219999999999995 30.4088895383103 C 23.225333333333328 30.616889538310296, 23.32666666666666 30.748889538310298, 23.523999999999994 30.8048895383103 L 23.523999999999994 31.6928895383103 C 23.08666666666666 31.652889538310305, 22.749999999999993 31.506889538310304, 22.513999999999996 31.2548895383103 C 22.278 31.0028895383103, 22.15333333333333 30.656889538310303, 22.139999999999997 30.2168895383103 Z M 24.027999999999995 31.6928895383103 L 24.027999999999995 30.8008895383103 C 24.211999999999996 30.747556204976966, 24.310666666666663 30.623556204976964, 24.323999999999995 30.4288895383103 C 24.342666666666666 29.962222871643633, 24.354666666666667 29.513556204976965, 24.359999999999996 29.0828895383103 C 24.365333333333332 28.65222287164363, 24.365333333333332 28.221556204976963, 24.359999999999996 27.7908895383103 C 24.354666666666667 27.360222871643636, 24.342666666666666 26.90755620497697, 24.323999999999995 26.4328895383103 C 24.318666666666665 26.238222871643636, 24.22 26.111556204976967, 24.027999999999995 26.0528895383103 L 24.027999999999995 25.164889538310298 C 24.45733333333333 25.204889538310297, 24.79066666666666 25.35022287164363, 25.027999999999995 25.600889538310298 C 25.26533333333333 25.851556204976966, 25.38933333333333 26.196889538310298, 25.399999999999995 26.6368895383103 C 25.410666666666664 26.951556204976967, 25.418666666666667 27.26155620497697, 25.423999999999996 27.5668895383103 C 25.429333333333332 27.872222871643636, 25.431999999999995 28.1728895383103, 25.431999999999995 28.4688895383103 C 25.431999999999995 28.7648895383103, 25.429333333333332 29.058222871643633, 25.423999999999996 29.3488895383103 C 25.418666666666667 29.639556204976966, 25.410666666666664 29.9288895383103, 25.399999999999995 30.2168895383103 C 25.383999999999993 30.667556204976968, 25.255999999999993 31.016222871643635, 25.015999999999995 31.2628895383103 C 24.775999999999996 31.509556204976967, 24.446666666666665 31.652889538310305, 24.027999999999995 31.6928895383103 Z M 27.887999999999995 31.6288895383103 L 27.887999999999995 26.8288895383103 L 28.955999999999996 26.8288895383103 L 28.955999999999996 31.6288895383103 Z M 32.111999999999995 31.6288895383103 L 32.111999999999995 27.9288895383103 C 32.111999999999995 27.78755620497697, 32.074 27.68555620497697, 31.997999999999994 27.6228895383103 C 31.921999999999997 27.560222871643635, 31.81866666666666 27.528889538310302, 31.687999999999995 27.528889538310302 C 31.647999999999993 27.528889538310302, 31.614666666666658 27.5328895383103, 31.587999999999994 27.5408895383103 L 31.587999999999994 26.9088895383103 C 31.66266666666666 26.860889538310303, 31.745333333333328 26.822889538310303, 31.835999999999995 26.7948895383103 C 31.926666666666662 26.7668895383103, 32.02933333333333 26.7528895383103, 32.14399999999999 26.7528895383103 C 32.471999999999994 26.7528895383103, 32.726 26.850889538310298, 32.90599999999999 27.0468895383103 C 33.086 27.2428895383103, 33.175999999999995 27.567556204976967, 33.175999999999995 28.0208895383103 L 33.175999999999995 31.6288895383103 Z M 30.015999999999995 31.6288895383103 L 30.015999999999995 27.9288895383103 C 30.01599999999999 27.792889538310302, 29.981999999999992 27.692222871643636, 29.913999999999994 27.6268895383103 C 29.845999999999997 27.561556204976966, 29.74266666666666 27.528889538310302, 29.603999999999996 27.528889538310302 C 29.579999999999995 27.528889538310302, 29.55533333333333 27.52955620497697, 29.529999999999994 27.5308895383103 C 29.504666666666658 27.532222871643633, 29.479999999999993 27.5368895383103, 29.455999999999996 27.5448895383103 L 29.455999999999996 26.9288895383103 C 29.527999999999995 26.870222871643634, 29.61066666666666 26.82622287164363, 29.703999999999994 26.7968895383103 C 29.797333333333327 26.767556204976962, 29.911999999999995 26.7528895383103, 30.047999999999995 26.7528895383103 C 30.375999999999994 26.7528895383103, 30.63133333333333 26.850889538310298, 30.813999999999997 27.0468895383103 C 30.996666666666663 27.2428895383103, 31.087999999999994 27.567556204976967, 31.087999999999994 28.0208895383103 L 31.087999999999994 31.6288895383103 Z M 33.943999999999996 31.6288895383103 L 33.943999999999996 25.2288895383103 L 35.00399999999999 25.2288895383103 L 35.00399999999999 31.6288895383103 Z " stroke="none" fill-rule="nonzero" fill="#000000" fill-opacity="1" transform="matrix(1,0,0,1,5.05,13.314)" id="text1,000 ml" />
  <path d="M 0 25.993111630648244 L 10 25.993111630648244 L 10 27.493111630648244 L 0 27.493111630648244 Z " stroke="none" fill-rule="evenodd" fill="#000000" fill-opacity="1" transform="matrix(1,0,0,1,5.05,13.314)" id="mark1,100 ml" />
  <path d="M 0 19.307333722986186 L 10 19.307333722986186 L 10 20.807333722986186 L 0 20.807333722986186 Z " stroke="none" fill-rule="evenodd" fill="#000000" fill-opacity="1" transform="matrix(1,0,0,1,5.05,13.314)" id="mark1,200 ml" />
  <path d="M 0 12.6215558153241 L 10 12.6215558153241 L 10 14.1215558153241 L 0 14.1215558153241 Z " stroke="none" fill-rule="evenodd" fill="#000000" fill-opacity="1" transform="matrix(1,0,0,1,5.05,13.314)" id="mark1,300 ml" />
  <path d="M 0 5.935777907662057 L 10 5.935777907662057 L 10 7.435777907662057 L 0 7.435777907662057 Z " stroke="none" fill-rule="evenodd" fill="#000000" fill-opacity="1" transform="matrix(1,0,0,1,5.05,13.314)" id="mark1,400 ml" />
  <path d="M 0 -0.75 L 25 -0.75 L 25 0.75 L 0 0.75 Z " stroke="none" fill-rule="evenodd" fill="#000000" fill-opacity="1" transform="matrix(1,0,0,1,5.05,13.314)" id="mark1,500 ml" />
  <path d="M 12.323999999999996 -1.7999999999999998 L 12.323999999999996 -7.244 L 11.871999999999996 -7.244 L 11.839999999999996 -7.624 L 12.543999999999997 -8.2 L 13.423999999999998 -8.2 L 13.423999999999998 -1.7999999999999998 Z M 14.171999999999997 -3.2159999999999997 C 14.166666666666664 -3.389333333333333, 14.16533333333333 -3.528666666666667, 14.167999999999996 -3.634 C 14.170666666666664 -3.7393333333333336, 14.173333333333332 -3.841333333333333, 14.175999999999997 -3.94 L 15.255999999999997 -3.94 C 15.247999999999998 -3.8626666666666667, 15.241999999999997 -3.7666666666666666, 15.237999999999996 -3.6519999999999997 C 15.233999999999995 -3.5373333333333328, 15.232666666666663 -3.4266666666666667, 15.233999999999996 -3.32 C 15.23533333333333 -3.213333333333334, 15.238666666666663 -3.1333333333333337, 15.243999999999996 -3.08 C 15.254666666666662 -2.96, 15.289333333333328 -2.862, 15.347999999999995 -2.7859999999999996 C 15.406666666666663 -2.71, 15.489333333333331 -2.6559999999999997, 15.595999999999997 -2.6239999999999997 L 15.595999999999997 -1.7319999999999998 C 15.102666666666664 -1.7693333333333332, 14.745333333333331 -1.904, 14.523999999999996 -2.1359999999999997 C 14.302666666666664 -2.368, 14.185333333333329 -2.7279999999999998, 14.171999999999997 -3.2159999999999997 Z M 14.271999999999997 -4.552 L 14.271999999999997 -8.2 L 15.339999999999996 -8.2 L 15.339999999999996 -4.552 Z M 15.843999999999996 -4.976 L 15.843999999999996 -5.731999999999999 C 15.92133333333333 -5.771999999999999, 16.006666666666664 -5.804, 16.099999999999994 -5.828 C 16.193333333333328 -5.852, 16.29333333333333 -5.864, 16.399999999999995 -5.864 C 16.76533333333333 -5.864, 17.03933333333333 -5.748666666666667, 17.221999999999998 -5.518 C 17.404666666666664 -5.287333333333333, 17.50666666666666 -4.973333333333333, 17.527999999999995 -4.576 C 17.538666666666664 -4.416, 17.54533333333333 -4.257333333333333, 17.547999999999995 -4.1 C 17.55066666666666 -3.9426666666666668, 17.54933333333333 -3.7893333333333334, 17.543999999999997 -3.6399999999999997 C 17.538666666666664 -3.490666666666667, 17.530666666666665 -3.3506666666666667, 17.519999999999996 -3.2199999999999998 C 17.474666666666664 -2.721333333333333, 17.345333333333333 -2.356, 17.131999999999998 -2.1239999999999997 C 16.918666666666663 -1.892, 16.57333333333333 -1.7613333333333332, 16.095999999999997 -1.7319999999999998 L 16.095999999999997 -2.6239999999999997 C 16.20533333333333 -2.653333333333333, 16.287999999999997 -2.7059999999999995, 16.343999999999998 -2.782 C 16.4 -2.8579999999999997, 16.432 -2.957333333333333, 16.439999999999998 -3.08 C 16.463999999999995 -3.3706666666666667, 16.477999999999994 -3.6319999999999997, 16.481999999999996 -3.864 C 16.485999999999997 -4.096, 16.47733333333333 -4.317333333333333, 16.455999999999996 -4.5280000000000005 C 16.439999999999994 -4.682666666666667, 16.388666666666662 -4.798, 16.301999999999996 -4.874 C 16.21533333333333 -4.949999999999999, 16.08266666666666 -4.9879999999999995, 15.903999999999996 -4.9879999999999995 C 15.893333333333329 -4.9879999999999995, 15.882666666666662 -4.986666666666666, 15.871999999999996 -4.984 C 15.86133333333333 -4.981333333333334, 15.851999999999997 -4.978666666666667, 15.843999999999996 -4.976 Z M 15.843999999999996 -7.268 L 15.843999999999996 -8.2 L 17.431999999999995 -8.2 L 17.431999999999995 -7.268 Z M 18.163999999999998 -3.2119999999999997 C 18.156 -3.641333333333333, 18.150666666666663 -4.058, 18.147999999999996 -4.462 C 18.14533333333333 -4.866, 18.145999999999994 -5.261333333333333, 18.149999999999995 -5.648 C 18.153999999999996 -6.034666666666666, 18.15866666666666 -6.416, 18.163999999999998 -6.792 C 18.17733333333333 -7.231999999999999, 18.302 -7.577333333333334, 18.537999999999997 -7.828 C 18.773999999999994 -8.078666666666667, 19.11066666666666 -8.224, 19.547999999999995 -8.264 L 19.547999999999995 -7.3759999999999994 C 19.350666666666662 -7.32, 19.24933333333333 -7.190666666666667, 19.243999999999996 -6.9879999999999995 C 19.230666666666664 -6.617333333333333, 19.22133333333333 -6.269333333333333, 19.215999999999998 -5.944 C 19.21066666666666 -5.618666666666666, 19.207999999999995 -5.302, 19.207999999999995 -4.994 C 19.207999999999995 -4.686, 19.21066666666666 -4.371333333333333, 19.215999999999998 -4.05 C 19.22133333333333 -3.7286666666666664, 19.230666666666664 -3.3853333333333326, 19.243999999999996 -3.0199999999999996 C 19.24933333333333 -2.812, 19.350666666666662 -2.6799999999999997, 19.547999999999995 -2.6239999999999997 L 19.547999999999995 -1.7359999999999998 C 19.11066666666666 -1.7759999999999998, 18.773999999999994 -1.9219999999999997, 18.537999999999997 -2.174 C 18.302 -2.4259999999999997, 18.17733333333333 -2.772, 18.163999999999998 -3.2119999999999997 Z M 20.051999999999996 -1.7359999999999998 L 20.051999999999996 -2.6279999999999997 C 20.235999999999997 -2.681333333333333, 20.334666666666664 -2.8053333333333335, 20.347999999999995 -3 C 20.366666666666664 -3.4666666666666663, 20.378666666666664 -3.915333333333333, 20.383999999999997 -4.346 C 20.38933333333333 -4.776666666666666, 20.38933333333333 -5.207333333333333, 20.383999999999997 -5.638 C 20.378666666666664 -6.068666666666666, 20.366666666666664 -6.521333333333333, 20.347999999999995 -6.9959999999999996 C 20.342666666666663 -7.190666666666667, 20.243999999999996 -7.317333333333334, 20.051999999999996 -7.3759999999999994 L 20.051999999999996 -8.264 C 20.481333333333332 -8.224, 20.814666666666664 -8.078666666666667, 21.051999999999996 -7.828 C 21.28933333333333 -7.577333333333334, 21.41333333333333 -7.231999999999999, 21.423999999999996 -6.792 C 21.434666666666665 -6.477333333333332, 21.442666666666664 -6.167333333333333, 21.447999999999997 -5.861999999999999 C 21.45333333333333 -5.556666666666667, 21.455999999999996 -5.256, 21.455999999999996 -4.96 C 21.455999999999996 -4.664, 21.45333333333333 -4.370666666666667, 21.447999999999997 -4.08 C 21.442666666666664 -3.7893333333333334, 21.434666666666665 -3.5, 21.423999999999996 -3.2119999999999997 C 21.407999999999994 -2.761333333333333, 21.279999999999994 -2.4126666666666665, 21.039999999999996 -2.166 C 20.799999999999997 -1.9193333333333331, 20.470666666666663 -1.7759999999999998, 20.051999999999996 -1.7359999999999998 Z M 22.139999999999997 -3.2119999999999997 C 22.131999999999998 -3.641333333333333, 22.12666666666666 -4.058, 22.123999999999995 -4.462 C 22.12133333333333 -4.866, 22.121999999999993 -5.261333333333333, 22.125999999999994 -5.648 C 22.129999999999995 -6.034666666666666, 22.13466666666666 -6.416, 22.139999999999997 -6.792 C 22.15333333333333 -7.231999999999999, 22.278 -7.577333333333334, 22.513999999999996 -7.828 C 22.749999999999993 -8.078666666666667, 23.08666666666666 -8.224, 23.523999999999994 -8.264 L 23.523999999999994 -7.3759999999999994 C 23.32666666666666 -7.32, 23.225333333333328 -7.190666666666667, 23.219999999999995 -6.9879999999999995 C 23.206666666666663 -6.617333333333333, 23.19733333333333 -6.269333333333333, 23.191999999999997 -5.944 C 23.18666666666666 -5.618666666666666, 23.183999999999994 -5.302, 23.183999999999994 -4.994 C 23.183999999999994 -4.686, 23.18666666666666 -4.371333333333333, 23.191999999999997 -4.05 C 23.19733333333333 -3.7286666666666664, 23.206666666666663 -3.3853333333333326, 23.219999999999995 -3.0199999999999996 C 23.225333333333328 -2.812, 23.32666666666666 -2.6799999999999997, 23.523999999999994 -2.6239999999999997 L 23.523999999999994 -1.7359999999999998 C 23.08666666666666 -1.7759999999999998, 22.749999999999993 -1.9219999999999997, 22.513999999999996 -2.174 C 22.278 -2.4259999999999997, 22.15333333333333 -2.772, 22.139999999999997 -3.2119999999999997 Z M 24.027999999999995 -1.7359999999999998 L 24.027999999999995 -2.6279999999999997 C 24.211999999999996 -2.681333333333333, 24.310666666666663 -2.8053333333333335, 24.323999999999995 -3 C 24.342666666666666 -3.4666666666666663, 24.354666666666667 -3.915333333333333, 24.359999999999996 -4.346 C 24.365333333333332 -4.776666666666666, 24.365333333333332 -5.207333333333333, 24.359999999999996 -5.638 C 24.354666666666667 -6.068666666666666, 24.342666666666666 -6.521333333333333, 24.323999999999995 -6.9959999999999996 C 24.318666666666665 -7.190666666666667, 24.22 -7.317333333333334, 24.027999999999995 -7.3759999999999994 L 24.027999999999995 -8.264 C 24.45733333333333 -8.224, 24.79066666666666 -8.078666666666667, 25.027999999999995 -7.828 C 25.26533333333333 -7.577333333333334, 25.38933333333333 -7.231999999999999, 25.399999999999995 -6.792 C 25.410666666666664 -6.477333333333332, 25.418666666666667 -6.167333333333333, 25.423999999999996 -5.861999999999999 C 25.429333333333332 -5.556666666666667, 25.431999999999995 -5.256, 25.431999999999995 -4.96 C 25.431999999999995 -4.664, 25.429333333333332 -4.370666666666667, 25.423999999999996 -4.08 C 25.418666666666667 -3.7893333333333334, 25.410666666666664 -3.5, 25.399999999999995 -3.2119999999999997 C 25.383999999999993 -2.761333333333333, 25.255999999999993 -2.4126666666666665, 25.015999999999995 -2.166 C 24.775999999999996 -1.9193333333333331, 24.446666666666665 -1.7759999999999998, 24.027999999999995 -1.7359999999999998 Z M 27.887999999999995 -1.7999999999999998 L 27.887999999999995 -6.6 L 28.955999999999996 -6.6 L 28.955999999999996 -1.7999999999999998 Z M 32.111999999999995 -1.7999999999999998 L 32.111999999999995 -5.5 C 32.111999999999995 -5.641333333333333, 32.074 -5.743333333333333, 31.997999999999994 -5.806 C 31.921999999999997 -5.868666666666666, 31.81866666666666 -5.8999999999999995, 31.687999999999995 -5.8999999999999995 C 31.647999999999993 -5.8999999999999995, 31.614666666666658 -5.896, 31.587999999999994 -5.888 L 31.587999999999994 -6.52 C 31.66266666666666 -6.568, 31.745333333333328 -6.606, 31.835999999999995 -6.6339999999999995 C 31.926666666666662 -6.662, 32.02933333333333 -6.676, 32.14399999999999 -6.676 C 32.471999999999994 -6.676, 32.726 -6.578, 32.90599999999999 -6.382000000000001 C 33.086 -6.186, 33.175999999999995 -5.861333333333333, 33.175999999999995 -5.4079999999999995 L 33.175999999999995 -1.7999999999999998 Z M 30.015999999999995 -1.7999999999999998 L 30.015999999999995 -5.5 C 30.01599999999999 -5.636, 29.981999999999992 -5.736666666666666, 29.913999999999994 -5.802 C 29.845999999999997 -5.867333333333333, 29.74266666666666 -5.8999999999999995, 29.603999999999996 -5.8999999999999995 C 29.579999999999995 -5.8999999999999995, 29.55533333333333 -5.899333333333333, 29.529999999999994 -5.898 C 29.504666666666658 -5.8966666666666665, 29.479999999999993 -5.8919999999999995, 29.455999999999996 -5.8839999999999995 L 29.455999999999996 -6.5 C 29.527999999999995 -6.558666666666667, 29.61066666666666 -6.602666666666668, 29.703999999999994 -6.632000000000001 C 29.797333333333327 -6.661333333333333, 29.911999999999995 -6.676, 30.047999999999995 -6.676 C 30.375999999999994 -6.676, 30.63133333333333 -6.578, 30.813999999999997 -6.382000000000001 C 30.996666666666663 -6.186, 31.087999999999994 -5.861333333333333, 31.087999999999994 -5.4079999999999995 L 31.087999999999994 -1.7999999999999998 Z M 33.943999999999996 -1.7999999999999998 L 33.943999999999996 -8.2 L 35.00399999999999 -8.2 L 35.00399999999999 -1.7999999999999998 Z " stroke="none" fill-rule="nonzero" fill="#000000" fill-opacity="1" transform="matrix(1,0,0,1,5.05,13.314)" id="text1,500 ml" />
  <path d="M -5 -13.264 L 40 -13.264 L 40 93.65111279960679 L -5 93.65111279960679 Z " stroke="#FF0000" stroke-opacity="1" stroke-width="0.1" stroke-linecap="butt" stroke-linejoin="miter" fill="none" transform="matrix(1,0,0,1,5.05,13.314)" />
</svg>