<?xml version="1.0" encoding="UTF-8"?>
<svg xmlns:xlink="http://www.w3.org/1999/xlink" viewBox="0 0 35.1 365.5367761496082" version="1.1" style="font-synthesis: none;" width="35.1mm" height="365.5367761496082mm" xmlns="http://www.w3.org/2000/svg">
  <defs />
  <style>	</style>
  <path d="M 0 0 L 35.1 0 L 35.1 365.5367761496082 L 0 365.5367761496082 Z " stroke="none" fill-rule="nonzero" fill="#FFFFFF" fill-opacity="1" transform="matrix(1,0,0,1,0,0)" />
  <path d="M 0 344.6547761496082 L 10 344.6547761496082 L 10 346.1547761496082 L 0 346.1547761496082 Z " stroke="none" fill-rule="evenodd" fill="#000000" fill-opacity="1" transform="matrix(1,0,0,1,5.05,13.314)" id="mark1 l" />
  <path d="M 0 337.60569908533046 L 10 337.60569908533046 L 10 339.10569908533046 L 0 339.10569908533046 Z " stroke="none" fill-rule="evenodd" fill="#000000" fill-opacity="1" transform="matrix(1,0,0,1,5.05,13.314)" id="mark2 l" />
  <path d="M 0 330.55662202105276 L 10 330.55662202105276 L 10 332.05662202105276 L 0 332.05662202105276 Z " stroke="none" fill-rule="evenodd" fill="#000000" fill-opacity="1" transform="matrix(1,0,0,1,5.05,13.314)" id="mark3 l" />
  <path d="M 0 323.50754495677506 L 10 323.50754495677506 L 10 325.00754495677506 L 0 325.00754495677506 Z " stroke="none" fill-rule="evenodd" fill="#000000" fill-opacity="1" transform="matrix(1,0,0,1,5.05,13.314)" id="mark4 l" />
  <path d="M 0 316.4584678924973 L 25 316.4584678924973 L 25 317.9584678924973 L 0 317.9584678924973 Z " stroke="none" fill-rule="evenodd" fill="#000000" fill-opacity="1" transform="matrix(1,0,0,1,5.05,13.314)" id="mark5 l" />
  <path d="M 16.18 313.9604678924973 C 16.174666666666667 313.787134559164, 16.173333333333332 313.6478012258307, 16.176 313.5424678924973 C 16.178666666666665 313.43713455916395, 16.181333333333335 313.335134559164, 16.183999999999997 313.23646789249733 L 17.264 313.23646789249733 C 17.256 313.3138012258306, 17.25 313.4098012258306, 17.246 313.52446789249734 C 17.241999999999997 313.63913455916395, 17.240666666666666 313.74980122583065, 17.241999999999997 313.85646789249734 C 17.243333333333332 313.96313455916396, 17.246666666666666 314.043134559164, 17.252 314.09646789249734 C 17.262666666666668 314.2164678924973, 17.297333333333334 314.3144678924973, 17.355999999999998 314.3904678924973 C 17.414666666666665 314.4664678924973, 17.497333333333334 314.5204678924973, 17.604 314.5524678924973 L 17.604 315.4444678924973 C 17.110666666666663 315.407134559164, 16.75333333333333 315.27246789249733, 16.532 315.0404678924973 C 16.310666666666666 314.8084678924973, 16.19333333333333 314.4484678924973, 16.18 313.9604678924973 Z M 16.279999999999998 312.6244678924973 L 16.279999999999998 308.97646789249734 L 17.348 308.97646789249734 L 17.348 312.6244678924973 Z M 17.852 312.20046789249733 L 17.852 311.4444678924973 C 17.929333333333332 311.4044678924973, 18.014666666666667 311.3724678924973, 18.107999999999997 311.3484678924973 C 18.20133333333333 311.3244678924973, 18.301333333333332 311.3124678924973, 18.407999999999998 311.3124678924973 C 18.773333333333333 311.3124678924973, 19.047333333333334 311.42780122583065, 19.23 311.6584678924973 C 19.412666666666667 311.88913455916395, 19.514666666666663 312.20313455916397, 19.535999999999998 312.6004678924973 C 19.546666666666667 312.76046789249733, 19.55333333333333 312.919134559164, 19.555999999999997 313.0764678924973 C 19.558666666666664 313.23380122583063, 19.557333333333332 313.387134559164, 19.552 313.53646789249734 C 19.546666666666667 313.6858012258307, 19.538666666666668 313.8258012258307, 19.528 313.9564678924973 C 19.482666666666667 314.455134559164, 19.353333333333335 314.8204678924973, 19.14 315.0524678924973 C 18.926666666666666 315.28446789249733, 18.581333333333333 315.415134559164, 18.104 315.4444678924973 L 18.104 314.5524678924973 C 18.21333333333333 314.52313455916396, 18.296 314.4704678924973, 18.352 314.3944678924973 C 18.408 314.3184678924973, 18.44 314.219134559164, 18.448 314.09646789249734 C 18.471999999999998 313.80580122583063, 18.485999999999997 313.5444678924973, 18.49 313.3124678924973 C 18.494 313.0804678924973, 18.485333333333333 312.859134559164, 18.464 312.6484678924973 C 18.447999999999997 312.4938012258307, 18.396666666666665 312.3784678924973, 18.31 312.3024678924973 C 18.223333333333333 312.22646789249734, 18.090666666666664 312.18846789249733, 17.912 312.18846789249733 C 17.901333333333334 312.18846789249733, 17.890666666666668 312.18980122583065, 17.88 312.1924678924973 C 17.86933333333333 312.195134559164, 17.86 312.19780122583063, 17.852 312.20046789249733 Z M 17.852 309.9084678924973 L 17.852 308.97646789249734 L 19.439999999999998 308.97646789249734 L 19.439999999999998 309.9084678924973 Z M 21.944 315.3764678924973 L 21.944 308.97646789249734 L 23.003999999999998 308.97646789249734 L 23.003999999999998 315.3764678924973 Z " stroke="none" fill-rule="nonzero" fill="#000000" fill-opacity="1" transform="matrix(1,0,0,1,5.05,13.314)" id="text5 l" />
  <path d="M 0 309.4093908282196 L 10 309.4093908282196 L 10 310.9093908282196 L 0 310.9093908282196 Z " stroke="none" fill-rule="evenodd" fill="#000000" fill-opacity="1" transform="matrix(1,0,0,1,5.05,13.314)" id="mark6 l" />
  <path d="M 0 302.36031376394186 L 10 302.36031376394186 L 10 303.86031376394186 L 0 303.86031376394186 Z " stroke="none" fill-rule="evenodd" fill="#000000" fill-opacity="1" transform="matrix(1,0,0,1,5.05,13.314)" id="mark7 l" />
  <path d="M 0 295.31123669966416 L 10 295.31123669966416 L 10 296.81123669966416 L 0 296.81123669966416 Z " stroke="none" fill-rule="evenodd" fill="#000000" fill-opacity="1" transform="matrix(1,0,0,1,5.05,13.314)" id="mark8 l" />
  <path d="M 0 288.26215963538647 L 10 288.26215963538647 L 10 289.76215963538647 L 0 289.76215963538647 Z " stroke="none" fill-rule="evenodd" fill="#000000" fill-opacity="1" transform="matrix(1,0,0,1,5.05,13.314)" id="mark9 l" />
  <path d="M 0 281.2130825711087 L 25 281.2130825711087 L 25 282.7130825711087 L 0 282.7130825711087 Z " stroke="none" fill-rule="evenodd" fill="#000000" fill-opacity="1" transform="matrix(1,0,0,1,5.05,13.314)" id="mark10 l" />
  <path d="M 14.323999999999998 280.1630825711087 L 14.323999999999998 274.7190825711087 L 13.871999999999998 274.7190825711087 L 13.839999999999998 274.3390825711087 L 14.543999999999999 273.7630825711087 L 15.424 273.7630825711087 L 15.424 280.1630825711087 Z M 16.196 278.7510825711087 C 16.188000000000002 278.3217492377754, 16.182666666666666 277.9050825711087, 16.18 277.5010825711087 C 16.177333333333333 277.09708257110873, 16.177999999999997 276.7017492377754, 16.182 276.3150825711087 C 16.186 275.92841590444203, 16.190666666666665 275.5470825711087, 16.196 275.1710825711087 C 16.209333333333333 274.7310825711087, 16.334000000000003 274.38574923777537, 16.57 274.1350825711087 C 16.805999999999997 273.884415904442, 17.142666666666663 273.7390825711087, 17.58 273.6990825711087 L 17.58 274.5870825711087 C 17.382666666666665 274.6430825711087, 17.281333333333333 274.772415904442, 17.276 274.9750825711087 C 17.262666666666668 275.34574923777535, 17.253333333333334 275.69374923777536, 17.248 276.0190825711087 C 17.242666666666665 276.34441590444203, 17.24 276.6610825711087, 17.24 276.9690825711087 C 17.24 277.2770825711087, 17.242666666666665 277.59174923777533, 17.248 277.9130825711087 C 17.253333333333334 278.2344159044421, 17.262666666666668 278.5777492377754, 17.276 278.9430825711087 C 17.281333333333333 279.15108257110865, 17.382666666666665 279.2830825711087, 17.58 279.3390825711087 L 17.58 280.2270825711087 C 17.142666666666663 280.1870825711087, 16.805999999999997 280.0410825711087, 16.57 279.7890825711087 C 16.334000000000003 279.53708257110867, 16.209333333333333 279.1910825711087, 16.196 278.7510825711087 Z M 18.084 280.2270825711087 L 18.084 279.3350825711087 C 18.268 279.28174923777533, 18.366666666666667 279.15774923777536, 18.38 278.9630825711087 C 18.398666666666667 278.4964159044421, 18.410666666666668 278.0477492377754, 18.416 277.6170825711087 C 18.421333333333333 277.186415904442, 18.421333333333333 276.7557492377754, 18.416 276.3250825711087 C 18.410666666666668 275.89441590444204, 18.398666666666667 275.4417492377754, 18.38 274.9670825711087 C 18.374666666666666 274.772415904442, 18.276 274.64574923777536, 18.084 274.5870825711087 L 18.084 273.6990825711087 C 18.513333333333335 273.7390825711087, 18.846666666666668 273.884415904442, 19.084 274.1350825711087 C 19.321333333333335 274.38574923777537, 19.445333333333334 274.7310825711087, 19.456 275.1710825711087 C 19.46666666666667 275.4857492377754, 19.474666666666668 275.7957492377754, 19.48 276.1010825711087 C 19.485333333333333 276.40641590444204, 19.488 276.7070825711087, 19.488 277.0030825711087 C 19.488 277.29908257110867, 19.485333333333333 277.592415904442, 19.48 277.88308257110873 C 19.474666666666668 278.1737492377754, 19.46666666666667 278.4630825711087, 19.456 278.7510825711087 C 19.439999999999998 279.2017492377754, 19.311999999999998 279.55041590444205, 19.072 279.7970825711087 C 18.832 280.0437492377754, 18.502666666666666 280.1870825711087, 18.084 280.2270825711087 Z M 21.944 280.1630825711087 L 21.944 273.7630825711087 L 23.003999999999998 273.7630825711087 L 23.003999999999998 280.1630825711087 Z " stroke="none" fill-rule="nonzero" fill="#000000" fill-opacity="1" transform="matrix(1,0,0,1,5.05,13.314)" id="text10 l" />
  <path d="M 0 274.164005506831 L 10 274.164005506831 L 10 275.664005506831 L 0 275.664005506831 Z " stroke="none" fill-rule="evenodd" fill="#000000" fill-opacity="1" transform="matrix(1,0,0,1,5.05,13.314)" id="mark11 l" />
  <path d="M 0 267.11492844255326 L 10 267.11492844255326 L 10 268.61492844255326 L 0 268.61492844255326 Z " stroke="none" fill-rule="evenodd" fill="#000000" fill-opacity="1" transform="matrix(1,0,0,1,5.05,13.314)" id="mark12 l" />
  <path d="M 0 260.06585137827557 L 10 260.06585137827557 L 10 261.56585137827557 L 0 261.56585137827557 Z " stroke="none" fill-rule="evenodd" fill="#000000" fill-opacity="1" transform="matrix(1,0,0,1,5.05,13.314)" id="mark13 l" />
  <path d="M 0 253.01677431399787 L 10 253.01677431399787 L 10 254.51677431399787 L 0 254.51677431399787 Z " stroke="none" fill-rule="evenodd" fill="#000000" fill-opacity="1" transform="matrix(1,0,0,1,5.05,13.314)" id="mark14 l" />
  <path d="M 0 245.96769724972015 L 25 245.96769724972015 L 25 247.46769724972015 L 0 247.46769724972015 Z " stroke="none" fill-rule="evenodd" fill="#000000" fill-opacity="1" transform="matrix(1,0,0,1,5.05,13.314)" id="mark15 l" />
  <path d="M 14.331999999999999 244.88569724972015 L 14.331999999999999 239.44169724972016 L 13.879999999999999 239.44169724972016 L 13.847999999999999 239.06169724972014 L 14.552 238.48569724972015 L 15.432 238.48569724972015 L 15.432 244.88569724972015 Z M 16.18 243.46969724972016 C 16.174666666666667 243.29636391638684, 16.173333333333332 243.15703058305348, 16.176 243.05169724972015 C 16.178666666666665 242.94636391638682, 16.181333333333335 242.84436391638684, 16.183999999999997 242.74569724972017 L 17.264 242.74569724972017 C 17.256 242.82303058305348, 17.25 242.91903058305348, 17.246 243.03369724972015 C 17.241999999999997 243.1483639163868, 17.240666666666666 243.25903058305346, 17.241999999999997 243.36569724972014 C 17.243333333333332 243.47236391638683, 17.246666666666666 243.5523639163868, 17.252 243.60569724972015 C 17.262666666666668 243.72569724972016, 17.297333333333334 243.82369724972017, 17.355999999999998 243.89969724972016 C 17.414666666666665 243.97569724972016, 17.497333333333334 244.02969724972013, 17.604 244.06169724972014 L 17.604 244.95369724972016 C 17.110666666666663 244.91636391638684, 16.75333333333333 244.78169724972014, 16.532 244.54969724972014 C 16.310666666666666 244.31769724972014, 16.19333333333333 243.95769724972016, 16.18 243.46969724972016 Z M 16.279999999999998 242.13369724972014 L 16.279999999999998 238.48569724972015 L 17.348 238.48569724972015 L 17.348 242.13369724972014 Z M 17.852 241.70969724972016 L 17.852 240.95369724972016 C 17.929333333333332 240.91369724972014, 18.014666666666667 240.88169724972016, 18.107999999999997 240.85769724972016 C 18.20133333333333 240.83369724972016, 18.301333333333332 240.82169724972016, 18.407999999999998 240.82169724972016 C 18.773333333333333 240.82169724972016, 19.047333333333334 240.9370305830535, 19.23 241.16769724972016 C 19.412666666666667 241.3983639163868, 19.514666666666663 241.71236391638683, 19.535999999999998 242.10969724972014 C 19.546666666666667 242.26969724972014, 19.55333333333333 242.42836391638681, 19.555999999999997 242.58569724972014 C 19.558666666666664 242.7430305830535, 19.557333333333332 242.89636391638683, 19.552 243.04569724972015 C 19.546666666666667 243.19503058305347, 19.538666666666668 243.33503058305348, 19.528 243.46569724972017 C 19.482666666666667 243.96436391638684, 19.353333333333335 244.32969724972014, 19.14 244.56169724972014 C 18.926666666666666 244.79369724972014, 18.581333333333333 244.92436391638682, 18.104 244.95369724972016 L 18.104 244.06169724972014 C 18.21333333333333 244.03236391638683, 18.296 243.97969724972015, 18.352 243.90369724972015 C 18.408 243.82769724972016, 18.44 243.72836391638683, 18.448 243.60569724972015 C 18.471999999999998 243.31503058305347, 18.485999999999997 243.05369724972013, 18.49 242.82169724972016 C 18.494 242.58969724972013, 18.485333333333333 242.36836391638678, 18.464 242.15769724972014 C 18.447999999999997 242.0030305830535, 18.396666666666665 241.88769724972013, 18.31 241.81169724972014 C 18.223333333333333 241.73569724972015, 18.090666666666664 241.69769724972016, 17.912 241.69769724972016 C 17.901333333333334 241.69769724972016, 17.890666666666668 241.6990305830535, 17.88 241.70169724972016 C 17.86933333333333 241.7043639163868, 17.86 241.7070305830535, 17.852 241.70969724972016 Z M 17.852 239.41769724972016 L 17.852 238.48569724972015 L 19.439999999999998 238.48569724972015 L 19.439999999999998 239.41769724972016 Z M 21.944 244.88569724972015 L 21.944 238.48569724972015 L 23.003999999999998 238.48569724972015 L 23.003999999999998 244.88569724972015 Z " stroke="none" fill-rule="nonzero" fill="#000000" fill-opacity="1" transform="matrix(1,0,0,1,5.05,13.314)" id="text15 l" />
  <path d="M 0 238.91862018544242 L 10 238.91862018544242 L 10 240.41862018544242 L 0 240.41862018544242 Z " stroke="none" fill-rule="evenodd" fill="#000000" fill-opacity="1" transform="matrix(1,0,0,1,5.05,13.314)" id="mark16 l" />
  <path d="M 0 231.86954312116472 L 10 231.86954312116472 L 10 233.36954312116472 L 0 233.36954312116472 Z " stroke="none" fill-rule="evenodd" fill="#000000" fill-opacity="1" transform="matrix(1,0,0,1,5.05,13.314)" id="mark17 l" />
  <path d="M 0 224.82046605688697 L 10 224.82046605688697 L 10 226.32046605688697 L 0 226.32046605688697 Z " stroke="none" fill-rule="evenodd" fill="#000000" fill-opacity="1" transform="matrix(1,0,0,1,5.05,13.314)" id="mark18 l" />
  <path d="M 0 217.77138899260927 L 10 217.77138899260927 L 10 219.27138899260927 L 0 219.27138899260927 Z " stroke="none" fill-rule="evenodd" fill="#000000" fill-opacity="1" transform="matrix(1,0,0,1,5.05,13.314)" id="mark19 l" />
  <path d="M 0 210.72231192833155 L 25 210.72231192833155 L 25 212.22231192833155 L 0 212.22231192833155 Z " stroke="none" fill-rule="evenodd" fill="#000000" fill-opacity="1" transform="matrix(1,0,0,1,5.05,13.314)" id="mark20 l" />
  <path d="M 12.319999999999999 209.67231192833157 C 12.317333333333334 209.57364526166492, 12.315333333333331 209.48497859499827, 12.313999999999998 209.40631192833158 C 12.312666666666665 209.32764526166494, 12.311333333333334 209.25364526166493, 12.309999999999999 209.18431192833157 C 12.308666666666667 209.1149785949982, 12.308 209.0429785949982, 12.308 208.96831192833156 C 12.308 208.89364526166491, 12.308 208.80897859499822, 12.308 208.71431192833157 C 12.308 208.6196452616649, 12.309333333333335 208.50831192833158, 12.312 208.38031192833157 C 12.32 208.08697859499824, 12.37 207.82497859499824, 12.462 207.59431192833156 C 12.554 207.36364526166489, 12.687999999999999 207.15764526166492, 12.863999999999999 206.97631192833157 C 13.04 206.79497859499827, 13.257333333333333 206.63364526166492, 13.515999999999998 206.49231192833156 L 14.047999999999998 206.20431192833158 C 14.234666666666666 206.10297859499823, 14.354 205.98097859499825, 14.405999999999999 205.83831192833156 C 14.457999999999998 205.69564526166488, 14.488 205.5616452616649, 14.495999999999999 205.43631192833158 C 14.506666666666664 205.2896452616649, 14.512666666666664 205.13297859499824, 14.514 204.96631192833158 C 14.51533333333333 204.79964526166492, 14.511999999999997 204.64297859499825, 14.504 204.49631192833158 C 14.498666666666665 204.39231192833157, 14.468666666666666 204.30631192833158, 14.413999999999998 204.23831192833157 C 14.359333333333332 204.17031192833156, 14.279999999999998 204.1216452616649, 14.175999999999998 204.09231192833155 L 14.175999999999998 203.20431192833158 C 14.663999999999998 203.2363119283316, 15.014 203.3676452616649, 15.225999999999999 203.59831192833155 C 15.437999999999999 203.8289785949982, 15.554666666666666 204.1896452616649, 15.575999999999999 204.68031192833158 C 15.578666666666663 204.74431192833157, 15.580666666666666 204.8096452616649, 15.581999999999999 204.87631192833157 C 15.583333333333332 204.94297859499824, 15.584 205.0076452616649, 15.584 205.07031192833156 C 15.584 205.13297859499824, 15.583333333333332 205.19497859499822, 15.581999999999999 205.25631192833157 C 15.580666666666666 205.3176452616649, 15.578666666666663 205.3776452616649, 15.575999999999999 205.43631192833158 C 15.565333333333331 205.72164526166492, 15.512 205.96831192833156, 15.415999999999999 206.17631192833156 C 15.32 206.38431192833156, 15.19 206.56431192833156, 15.026 206.71631192833158 C 14.862 206.86831192833154, 14.672 207.00431192833156, 14.456 207.12431192833157 L 13.851999999999999 207.45231192833157 C 13.737333333333332 207.51364526166492, 13.647333333333332 207.59764526166492, 13.581999999999999 207.70431192833158 C 13.516666666666666 207.81097859499823, 13.469999999999999 207.92431192833158, 13.441999999999998 208.04431192833158 C 13.413999999999998 208.16431192833159, 13.399999999999999 208.27631192833155, 13.399999999999999 208.38031192833157 L 13.399999999999999 209.67231192833157 Z M 12.328 205.63231192833157 C 12.322666666666667 205.51497859499824, 12.318666666666665 205.40031192833158, 12.315999999999999 205.28831192833155 C 12.313333333333333 205.1763119283316, 12.311333333333334 205.0703119283316, 12.309999999999999 204.97031192833157 C 12.308666666666667 204.87031192833155, 12.309333333333335 204.7736452616649, 12.312 204.68031192833158 C 12.330666666666666 204.1923119283316, 12.447333333333333 203.83297859499825, 12.661999999999999 203.60231192833157 C 12.876666666666665 203.3716452616649, 13.213333333333331 203.23897859499823, 13.671999999999999 203.20431192833158 L 13.671999999999999 204.09631192833157 C 13.576 204.12564526166489, 13.505333333333333 204.17231192833157, 13.459999999999999 204.23631192833156 C 13.414666666666665 204.30031192833155, 13.390666666666664 204.3776452616649, 13.387999999999998 204.46831192833156 C 13.382666666666665 204.6763119283316, 13.379333333333333 204.8696452616649, 13.378 205.04831192833157 C 13.376666666666667 205.22697859499823, 13.381333333333334 205.42164526166488, 13.392 205.63231192833157 Z M 13.904 209.67231192833157 L 13.904 208.74031192833158 L 15.5 208.74031192833158 L 15.5 209.67231192833157 Z M 16.196 208.26031192833156 C 16.188000000000002 207.83097859499821, 16.182666666666666 207.41431192833156, 16.18 207.01031192833156 C 16.177333333333333 206.60631192833156, 16.177999999999997 206.2109785949982, 16.182 205.82431192833155 C 16.186 205.4376452616649, 16.190666666666665 205.05631192833158, 16.196 204.68031192833158 C 16.209333333333333 204.2403119283316, 16.334000000000003 203.89497859499824, 16.57 203.64431192833158 C 16.805999999999997 203.39364526166491, 17.142666666666663 203.2483119283316, 17.58 203.20831192833157 L 17.58 204.09631192833157 C 17.382666666666665 204.15231192833159, 17.281333333333333 204.2816452616649, 17.276 204.48431192833158 C 17.262666666666668 204.85497859499822, 17.253333333333334 205.20297859499823, 17.248 205.52831192833156 C 17.242666666666665 205.8536452616649, 17.24 206.17031192833156, 17.24 206.47831192833158 C 17.24 206.7863119283316, 17.242666666666665 207.10097859499825, 17.248 207.42231192833157 C 17.253333333333334 207.74364526166488, 17.262666666666668 208.08697859499824, 17.276 208.45231192833157 C 17.281333333333333 208.66031192833157, 17.382666666666665 208.79231192833157, 17.58 208.84831192833155 L 17.58 209.73631192833156 C 17.142666666666663 209.69631192833157, 16.805999999999997 209.55031192833155, 16.57 209.29831192833157 C 16.334000000000003 209.0463119283316, 16.209333333333333 208.7003119283316, 16.196 208.26031192833156 Z M 18.084 209.73631192833156 L 18.084 208.84431192833156 C 18.268 208.79097859499825, 18.366666666666667 208.66697859499826, 18.38 208.47231192833158 C 18.398666666666667 208.0056452616649, 18.410666666666668 207.55697859499824, 18.416 207.12631192833157 C 18.421333333333333 206.6956452616649, 18.421333333333333 206.26497859499824, 18.416 205.83431192833157 C 18.410666666666668 205.4036452616649, 18.398666666666667 204.95097859499822, 18.38 204.47631192833157 C 18.374666666666666 204.2816452616649, 18.276 204.15497859499823, 18.084 204.09631192833157 L 18.084 203.20831192833157 C 18.513333333333335 203.2483119283316, 18.846666666666668 203.39364526166491, 19.084 203.64431192833158 C 19.321333333333335 203.89497859499824, 19.445333333333334 204.2403119283316, 19.456 204.68031192833158 C 19.46666666666667 204.99497859499826, 19.474666666666668 205.30497859499823, 19.48 205.61031192833156 C 19.485333333333333 205.91564526166488, 19.488 206.21631192833155, 19.488 206.51231192833157 C 19.488 206.80831192833156, 19.485333333333333 207.10164526166488, 19.48 207.39231192833157 C 19.474666666666668 207.68297859499825, 19.46666666666667 207.97231192833158, 19.456 208.26031192833156 C 19.439999999999998 208.71097859499827, 19.311999999999998 209.0596452616649, 19.072 209.30631192833155 C 18.832 209.55297859499822, 18.502666666666666 209.69631192833157, 18.084 209.73631192833156 Z M 21.944 209.67231192833157 L 21.944 203.27231192833156 L 23.003999999999998 203.27231192833156 L 23.003999999999998 209.67231192833157 Z " stroke="none" fill-rule="nonzero" fill="#000000" fill-opacity="1" transform="matrix(1,0,0,1,5.05,13.314)" id="text20 l" />
  <path d="M 0 203.67323486405382 L 10 203.67323486405382 L 10 205.17323486405382 L 0 205.17323486405382 Z " stroke="none" fill-rule="evenodd" fill="#000000" fill-opacity="1" transform="matrix(1,0,0,1,5.05,13.314)" id="mark21 l" />
  <path d="M 0 196.62415779977613 L 10 196.62415779977613 L 10 198.12415779977613 L 0 198.12415779977613 Z " stroke="none" fill-rule="evenodd" fill="#000000" fill-opacity="1" transform="matrix(1,0,0,1,5.05,13.314)" id="mark22 l" />
  <path d="M 0 189.5750807354984 L 10 189.5750807354984 L 10 191.0750807354984 L 0 191.0750807354984 Z " stroke="none" fill-rule="evenodd" fill="#000000" fill-opacity="1" transform="matrix(1,0,0,1,5.05,13.314)" id="mark23 l" />
  <path d="M 0 182.52600367122068 L 10 182.52600367122068 L 10 184.02600367122068 L 0 184.02600367122068 Z " stroke="none" fill-rule="evenodd" fill="#000000" fill-opacity="1" transform="matrix(1,0,0,1,5.05,13.314)" id="mark24 l" />
  <path d="M 0 175.47692660694295 L 25 175.47692660694295 L 25 176.97692660694295 L 0 176.97692660694295 Z " stroke="none" fill-rule="evenodd" fill="#000000" fill-opacity="1" transform="matrix(1,0,0,1,5.05,13.314)" id="mark25 l" />
  <path d="M 12.328 174.42692660694297 C 12.325333333333333 174.32825994027633, 12.323333333333332 174.23959327360964, 12.322 174.16092660694298 C 12.320666666666666 174.08225994027632, 12.319333333333333 174.00825994027633, 12.318 173.93892660694297 C 12.316666666666666 173.8695932736096, 12.315999999999999 173.7975932736096, 12.316 173.72292660694296 C 12.315999999999999 173.64825994027632, 12.315999999999999 173.56359327360963, 12.316 173.46892660694297 C 12.315999999999999 173.37425994027632, 12.317333333333334 173.26292660694298, 12.32 173.13492660694297 C 12.328 172.84159327360965, 12.378 172.57959327360965, 12.47 172.34892660694297 C 12.562000000000001 172.1182599402763, 12.696 171.9122599402763, 12.872 171.73092660694297 C 13.048 171.54959327360964, 13.265333333333334 171.38825994027633, 13.524000000000001 171.24692660694296 L 14.056000000000001 170.95892660694298 C 14.242666666666668 170.85759327360964, 14.362000000000002 170.73559327360962, 14.414 170.59292660694297 C 14.466000000000001 170.4502599402763, 14.495999999999999 170.3162599402763, 14.504 170.19092660694298 C 14.514666666666667 170.0442599402763, 14.520666666666667 169.88759327360964, 14.522 169.72092660694298 C 14.523333333333333 169.55425994027632, 14.520000000000001 169.39759327360966, 14.512 169.25092660694298 C 14.506666666666666 169.14692660694297, 14.476666666666667 169.06092660694299, 14.422 168.99292660694297 C 14.367333333333335 168.92492660694296, 14.288 168.8762599402763, 14.184000000000001 168.84692660694296 L 14.184000000000001 167.95892660694298 C 14.672 167.990926606943, 15.022000000000002 168.1222599402763, 15.234 168.35292660694296 C 15.446000000000002 168.58359327360964, 15.562666666666667 168.9442599402763, 15.584 169.43492660694298 C 15.586666666666668 169.49892660694297, 15.588666666666668 169.56425994027632, 15.59 169.63092660694298 C 15.591333333333335 169.69759327360964, 15.592000000000002 169.7622599402763, 15.592 169.82492660694297 C 15.592000000000002 169.88759327360964, 15.591333333333335 169.94959327360962, 15.59 170.01092660694297 C 15.588666666666668 170.0722599402763, 15.586666666666668 170.1322599402763, 15.584 170.19092660694298 C 15.573333333333332 170.47625994027632, 15.52 170.72292660694296, 15.424 170.93092660694296 C 15.328 171.13892660694296, 15.197999999999999 171.31892660694297, 15.033999999999999 171.47092660694298 C 14.87 171.62292660694297, 14.68 171.75892660694296, 14.464 171.87892660694297 L 13.86 172.20692660694297 C 13.745333333333335 172.26825994027632, 13.655333333333335 172.35225994027633, 13.59 172.45892660694298 C 13.524666666666668 172.56559327360964, 13.478000000000002 172.67892660694298, 13.45 172.79892660694298 C 13.422 172.918926606943, 13.408 173.03092660694296, 13.408 173.13492660694297 L 13.408 174.42692660694297 Z M 12.336 170.38692660694298 C 12.330666666666666 170.26959327360964, 12.326666666666664 170.15492660694295, 12.324 170.04292660694296 C 12.321333333333332 169.93092660694296, 12.319333333333333 169.82492660694297, 12.318 169.72492660694297 C 12.316666666666666 169.62492660694298, 12.317333333333334 169.5282599402763, 12.32 169.43492660694298 C 12.338666666666668 168.94692660694298, 12.455333333333336 168.58759327360966, 12.67 168.35692660694298 C 12.884666666666668 168.1262599402763, 13.221333333333334 167.99359327360963, 13.68 167.95892660694298 L 13.68 168.85092660694298 C 13.584 168.8802599402763, 13.513333333333332 168.92692660694297, 13.468 168.99092660694296 C 13.422666666666668 169.05492660694296, 13.398666666666667 169.1322599402763, 13.396 169.22292660694296 C 13.390666666666666 169.430926606943, 13.387333333333332 169.62425994027632, 13.386 169.80292660694298 C 13.384666666666666 169.98159327360963, 13.389333333333333 170.1762599402763, 13.4 170.38692660694298 Z M 13.911999999999999 174.42692660694297 L 13.911999999999999 173.49492660694298 L 15.508 173.49492660694298 L 15.508 174.42692660694297 Z M 16.18 173.01092660694297 C 16.174666666666667 172.83759327360966, 16.173333333333332 172.69825994027633, 16.176 172.59292660694297 C 16.178666666666665 172.48759327360966, 16.181333333333335 172.38559327360966, 16.183999999999997 172.28692660694298 L 17.264 172.28692660694298 C 17.256 172.3642599402763, 17.25 172.4602599402763, 17.246 172.57492660694297 C 17.241999999999997 172.68959327360963, 17.240666666666666 172.8002599402763, 17.241999999999997 172.90692660694296 C 17.243333333333332 173.01359327360962, 17.246666666666666 173.09359327360963, 17.252 173.14692660694297 C 17.262666666666668 173.26692660694297, 17.297333333333334 173.36492660694296, 17.355999999999998 173.44092660694298 C 17.414666666666665 173.51692660694295, 17.497333333333334 173.57092660694295, 17.604 173.60292660694296 L 17.604 174.49492660694298 C 17.110666666666663 174.45759327360963, 16.75333333333333 174.32292660694296, 16.532 174.09092660694296 C 16.310666666666666 173.85892660694296, 16.19333333333333 173.49892660694297, 16.18 173.01092660694297 Z M 16.279999999999998 171.67492660694296 L 16.279999999999998 168.02692660694296 L 17.348 168.02692660694296 L 17.348 171.67492660694296 Z M 17.852 171.25092660694298 L 17.852 170.49492660694298 C 17.929333333333332 170.454926606943, 18.014666666666667 170.42292660694298, 18.107999999999997 170.39892660694298 C 18.20133333333333 170.37492660694298, 18.301333333333332 170.36292660694298, 18.407999999999998 170.36292660694298 C 18.773333333333333 170.36292660694298, 19.047333333333334 170.4782599402763, 19.23 170.70892660694298 C 19.412666666666667 170.93959327360963, 19.514666666666663 171.25359327360962, 19.535999999999998 171.65092660694296 C 19.546666666666667 171.81092660694296, 19.55333333333333 171.96959327360963, 19.555999999999997 172.12692660694296 C 19.558666666666664 172.2842599402763, 19.557333333333332 172.43759327360965, 19.552 172.58692660694297 C 19.546666666666667 172.73625994027628, 19.538666666666668 172.8762599402763, 19.528 173.00692660694298 C 19.482666666666667 173.50559327360963, 19.353333333333335 173.870926606943, 19.14 174.10292660694296 C 18.926666666666666 174.334926606943, 18.581333333333333 174.46559327360964, 18.104 174.49492660694298 L 18.104 173.60292660694296 C 18.21333333333333 173.57359327360965, 18.296 173.52092660694296, 18.352 173.44492660694297 C 18.408 173.36892660694298, 18.44 173.26959327360964, 18.448 173.14692660694297 C 18.471999999999998 172.8562599402763, 18.485999999999997 172.59492660694298, 18.49 172.36292660694298 C 18.494 172.13092660694298, 18.485333333333333 171.90959327360963, 18.464 171.69892660694296 C 18.447999999999997 171.54425994027628, 18.396666666666665 171.42892660694295, 18.31 171.35292660694296 C 18.223333333333333 171.27692660694296, 18.090666666666664 171.23892660694298, 17.912 171.23892660694298 C 17.901333333333334 171.23892660694298, 17.890666666666668 171.2402599402763, 17.88 171.24292660694297 C 17.86933333333333 171.24559327360964, 17.86 171.2482599402763, 17.852 171.25092660694298 Z M 17.852 168.95892660694298 L 17.852 168.02692660694296 L 19.439999999999998 168.02692660694296 L 19.439999999999998 168.95892660694298 Z M 21.944 174.42692660694297 L 21.944 168.02692660694296 L 23.003999999999998 168.02692660694296 L 23.003999999999998 174.42692660694297 Z " stroke="none" fill-rule="nonzero" fill="#000000" fill-opacity="1" transform="matrix(1,0,0,1,5.05,13.314)" id="text25 l" />
  <path d="M 0 168.42784954266526 L 10 168.42784954266526 L 10 169.92784954266526 L 0 169.92784954266526 Z " stroke="none" fill-rule="evenodd" fill="#000000" fill-opacity="1" transform="matrix(1,0,0,1,5.05,13.314)" id="mark26 l" />
  <path d="M 0 161.37877247838753 L 10 161.37877247838753 L 10 162.87877247838753 L 0 162.87877247838753 Z " stroke="none" fill-rule="evenodd" fill="#000000" fill-opacity="1" transform="matrix(1,0,0,1,5.05,13.314)" id="mark27 l" />
  <path d="M 0 154.3296954141098 L 10 154.3296954141098 L 10 155.8296954141098 L 0 155.8296954141098 Z " stroke="none" fill-rule="evenodd" fill="#000000" fill-opacity="1" transform="matrix(1,0,0,1,5.05,13.314)" id="mark28 l" />
  <path d="M 0 147.28061834983208 L 10 147.28061834983208 L 10 148.78061834983208 L 0 148.78061834983208 Z " stroke="none" fill-rule="evenodd" fill="#000000" fill-opacity="1" transform="matrix(1,0,0,1,5.05,13.314)" id="mark29 l" />
  <path d="M 0 140.23154128555439 L 25 140.23154128555439 L 25 141.73154128555439 L 0 141.73154128555439 Z " stroke="none" fill-rule="evenodd" fill="#000000" fill-opacity="1" transform="matrix(1,0,0,1,5.05,13.314)" id="mark30 l" />
  <path d="M 12.223999999999998 137.7655412855544 C 12.221333333333334 137.66420795222106, 12.219333333333333 137.58020795222106, 12.218 137.5135412855544 C 12.216666666666667 137.44687461888773, 12.216666666666667 137.37887461888775, 12.218 137.30954128555442 C 12.219333333333333 137.24020795222108, 12.221333333333334 137.15087461888774, 12.223999999999998 137.04154128555442 L 13.303999999999998 137.04154128555442 L 13.303999999999998 137.9055412855544 C 13.303999999999998 138.14287461888773, 13.417333333333332 138.2935412855544, 13.643999999999998 138.3575412855544 L 13.643999999999998 139.24954128555441 C 13.155999999999999 139.21220795222106, 12.800666666666665 139.0775412855544, 12.578 138.8455412855544 C 12.355333333333334 138.6135412855544, 12.237333333333332 138.2535412855544, 12.223999999999998 137.7655412855544 Z M 12.292 133.7135412855544 L 12.292 132.7815412855544 L 15.536 132.7815412855544 L 15.536 133.7135412855544 Z M 14.143999999999998 138.3615412855544 C 14.367999999999999 138.3055412855544, 14.483999999999998 138.15487461888773, 14.491999999999999 137.9095412855544 C 14.497333333333334 137.70687461888775, 14.500666666666666 137.52420795222108, 14.501999999999999 137.3615412855544 C 14.503333333333332 137.19887461888774, 14.498666666666665 137.0415412855544, 14.488 136.8895412855544 C 14.48 136.73220795222107, 14.431999999999999 136.59887461888775, 14.344 136.4895412855544 C 14.256 136.38020795222107, 14.089333333333332 136.32820795222108, 13.844 136.3335412855544 L 13.096 136.3415412855544 L 13.068 135.4495412855544 L 14.027999999999999 134.0655412855544 L 15.216 134.0655412855544 L 14.248 135.4175412855544 L 14.28 135.4175412855544 C 14.712 135.4175412855544, 15.028666666666666 135.54020795222107, 15.229999999999999 135.78554128555442 C 15.431333333333333 136.03087461888776, 15.544 136.40820795222106, 15.568 136.9175412855544 C 15.57333333333333 136.9895412855544, 15.576666666666664 137.0615412855544, 15.578 137.1335412855544 C 15.57933333333333 137.2055412855544, 15.579999999999998 137.27620795222106, 15.579999999999998 137.3455412855544 C 15.579999999999998 137.41487461888772, 15.57933333333333 137.48420795222106, 15.578 137.5535412855544 C 15.576666666666664 137.62287461888772, 15.57333333333333 137.6935412855544, 15.568 137.7655412855544 C 15.549333333333333 138.26154128555442, 15.428666666666665 138.62620795222108, 15.206 138.8595412855544 C 14.983333333333334 139.09287461888772, 14.630666666666666 139.22287461888774, 14.148 139.24954128555441 Z M 16.196 137.7695412855544 C 16.188000000000002 137.34020795222105, 16.182666666666666 136.9235412855544, 16.18 136.5195412855544 C 16.177333333333333 136.1155412855544, 16.177999999999997 135.72020795222107, 16.182 135.3335412855544 C 16.186 134.94687461888773, 16.190666666666665 134.56554128555442, 16.196 134.1895412855544 C 16.209333333333333 133.74954128555441, 16.334000000000003 133.40420795222107, 16.57 133.1535412855544 C 16.805999999999997 132.90287461888775, 17.142666666666663 132.7575412855544, 17.58 132.7175412855544 L 17.58 133.6055412855544 C 17.382666666666665 133.66154128555442, 17.281333333333333 133.79087461888776, 17.276 133.99354128555441 C 17.262666666666668 134.36420795222108, 17.253333333333334 134.71220795222106, 17.248 135.0375412855544 C 17.242666666666665 135.36287461888773, 17.24 135.6795412855544, 17.24 135.9875412855544 C 17.24 136.2955412855544, 17.242666666666665 136.61020795222106, 17.248 136.9315412855544 C 17.253333333333334 137.25287461888774, 17.262666666666668 137.59620795222108, 17.276 137.9615412855544 C 17.281333333333333 138.1695412855544, 17.382666666666665 138.3015412855544, 17.58 138.3575412855544 L 17.58 139.2455412855544 C 17.142666666666663 139.2055412855544, 16.805999999999997 139.0595412855544, 16.57 138.8075412855544 C 16.334000000000003 138.5555412855544, 16.209333333333333 138.2095412855544, 16.196 137.7695412855544 Z M 18.084 139.2455412855544 L 18.084 138.3535412855544 C 18.268 138.30020795222106, 18.366666666666667 138.1762079522211, 18.38 137.9815412855544 C 18.398666666666667 137.51487461888775, 18.410666666666668 137.06620795222108, 18.416 136.6355412855544 C 18.421333333333333 136.20487461888774, 18.421333333333333 135.77420795222105, 18.416 135.3435412855544 C 18.410666666666668 134.9128746188877, 18.398666666666667 134.46020795222105, 18.38 133.9855412855544 C 18.374666666666666 133.79087461888773, 18.276 133.66420795222106, 18.084 133.6055412855544 L 18.084 132.7175412855544 C 18.513333333333335 132.7575412855544, 18.846666666666668 132.90287461888775, 19.084 133.1535412855544 C 19.321333333333335 133.40420795222107, 19.445333333333334 133.74954128555441, 19.456 134.1895412855544 C 19.46666666666667 134.50420795222107, 19.474666666666668 134.81420795222107, 19.48 135.1195412855544 C 19.485333333333333 135.4248746188877, 19.488 135.7255412855544, 19.488 136.0215412855544 C 19.488 136.3175412855544, 19.485333333333333 136.61087461888772, 19.48 136.9015412855544 C 19.474666666666668 137.19220795222108, 19.46666666666667 137.4815412855544, 19.456 137.7695412855544 C 19.439999999999998 138.22020795222107, 19.311999999999998 138.56887461888772, 19.072 138.8155412855544 C 18.832 139.06220795222106, 18.502666666666666 139.2055412855544, 18.084 139.2455412855544 Z M 21.944 139.1815412855544 L 21.944 132.7815412855544 L 23.003999999999998 132.7815412855544 L 23.003999999999998 139.1815412855544 Z " stroke="none" fill-rule="nonzero" fill="#000000" fill-opacity="1" transform="matrix(1,0,0,1,5.05,13.314)" id="text30 l" />
  <path d="M 0 133.18246422127666 L 10 133.18246422127666 L 10 134.68246422127666 L 0 134.68246422127666 Z " stroke="none" fill-rule="evenodd" fill="#000000" fill-opacity="1" transform="matrix(1,0,0,1,5.05,13.314)" id="mark31 l" />
  <path d="M 0 126.13338715699894 L 10 126.13338715699894 L 10 127.63338715699894 L 0 127.63338715699894 Z " stroke="none" fill-rule="evenodd" fill="#000000" fill-opacity="1" transform="matrix(1,0,0,1,5.05,13.314)" id="mark32 l" />
  <path d="M 0 119.08431009272121 L 10 119.08431009272121 L 10 120.58431009272121 L 0 120.58431009272121 Z " stroke="none" fill-rule="evenodd" fill="#000000" fill-opacity="1" transform="matrix(1,0,0,1,5.05,13.314)" id="mark33 l" />
  <path d="M 0 112.03523302844351 L 10 112.03523302844351 L 10 113.53523302844351 L 0 113.53523302844351 Z " stroke="none" fill-rule="evenodd" fill="#000000" fill-opacity="1" transform="matrix(1,0,0,1,5.05,13.314)" id="mark34 l" />
  <path d="M 0 104.98615596416579 L 25 104.98615596416579 L 25 106.48615596416579 L 0 106.48615596416579 Z " stroke="none" fill-rule="evenodd" fill="#000000" fill-opacity="1" transform="matrix(1,0,0,1,5.05,13.314)" id="mark35 l" />
  <path d="M 12.232 102.4881559641658 C 12.229333333333333 102.38682263083246, 12.227333333333334 102.30282263083245, 12.226 102.23615596416579 C 12.224666666666668 102.16948929749913, 12.224666666666668 102.10148929749914, 12.226 102.0321559641658 C 12.227333333333334 101.96282263083248, 12.229333333333333 101.87348929749913, 12.232 101.7641559641658 L 13.312 101.7641559641658 L 13.312 102.6281559641658 C 13.312 102.86548929749912, 13.425333333333333 103.01615596416579, 13.652 103.0801559641658 L 13.652 103.9721559641658 C 13.164 103.93482263083246, 12.808666666666667 103.80015596416581, 12.586 103.5681559641658 C 12.363333333333333 103.33615596416581, 12.245333333333335 102.9761559641658, 12.232 102.4881559641658 Z M 12.3 98.43615596416579 L 12.3 97.50415596416579 L 15.544 97.50415596416579 L 15.544 98.43615596416579 Z M 14.152000000000001 103.0841559641658 C 14.376000000000001 103.02815596416579, 14.492 102.87748929749912, 14.5 102.63215596416579 C 14.505333333333333 102.42948929749913, 14.508666666666667 102.24682263083247, 14.51 102.0841559641658 C 14.511333333333333 101.92148929749914, 14.506666666666668 101.76415596416581, 14.496 101.6121559641658 C 14.488 101.45482263083247, 14.440000000000001 101.32148929749911, 14.352 101.21215596416579 C 14.264 101.10282263083246, 14.097333333333335 101.05082263083247, 13.852 101.0561559641658 L 13.104 101.06415596416579 L 13.076 100.1721559641658 L 14.036 98.7881559641658 L 15.224 98.7881559641658 L 14.256 100.1401559641658 L 14.288 100.1401559641658 C 14.719999999999999 100.14015596416579, 15.036666666666665 100.26282263083246, 15.238 100.5081559641658 C 15.439333333333334 100.75348929749913, 15.552 101.13082263083245, 15.576 101.6401559641658 C 15.581333333333333 101.71215596416579, 15.584666666666667 101.78415596416579, 15.586 101.8561559641658 C 15.587333333333333 101.9281559641658, 15.588000000000001 101.99882263083248, 15.588000000000001 102.0681559641658 C 15.588000000000001 102.13748929749914, 15.587333333333333 102.20682263083248, 15.586 102.2761559641658 C 15.584666666666667 102.34548929749914, 15.581333333333333 102.4161559641658, 15.576 102.4881559641658 C 15.557333333333334 102.98415596416581, 15.436666666666667 103.34882263083247, 15.214 103.58215596416579 C 14.991333333333333 103.81548929749914, 14.638666666666666 103.94548929749914, 14.156 103.9721559641658 Z M 16.18 102.4881559641658 C 16.174666666666667 102.31482263083245, 16.173333333333332 102.17548929749913, 16.176 102.07015596416579 C 16.178666666666665 101.96482263083246, 16.181333333333335 101.86282263083245, 16.183999999999997 101.7641559641658 L 17.264 101.7641559641658 C 17.256 101.84148929749912, 17.25 101.93748929749913, 17.246 102.05215596416579 C 17.241999999999997 102.16682263083246, 17.240666666666666 102.27748929749913, 17.241999999999997 102.3841559641658 C 17.243333333333332 102.49082263083247, 17.246666666666666 102.57082263083245, 17.252 102.6241559641658 C 17.262666666666668 102.7441559641658, 17.297333333333334 102.84215596416581, 17.355999999999998 102.91815596416579 C 17.414666666666665 102.9941559641658, 17.497333333333334 103.0481559641658, 17.604 103.0801559641658 L 17.604 103.9721559641658 C 17.110666666666663 103.93482263083246, 16.75333333333333 103.80015596416581, 16.532 103.5681559641658 C 16.310666666666666 103.33615596416581, 16.19333333333333 102.9761559641658, 16.18 102.4881559641658 Z M 16.279999999999998 101.1521559641658 L 16.279999999999998 97.50415596416579 L 17.348 97.50415596416579 L 17.348 101.1521559641658 Z M 17.852 100.7281559641658 L 17.852 99.9721559641658 C 17.929333333333332 99.93215596416579, 18.014666666666667 99.90015596416579, 18.107999999999997 99.87615596416579 C 18.20133333333333 99.8521559641658, 18.301333333333332 99.8401559641658, 18.407999999999998 99.8401559641658 C 18.773333333333333 99.8401559641658, 19.047333333333334 99.95548929749913, 19.23 100.18615596416579 C 19.412666666666667 100.41682263083246, 19.514666666666663 100.73082263083248, 19.535999999999998 101.1281559641658 C 19.546666666666667 101.28815596416581, 19.55333333333333 101.44682263083246, 19.555999999999997 101.6041559641658 C 19.558666666666664 101.76148929749914, 19.557333333333332 101.91482263083248, 19.552 102.06415596416579 C 19.546666666666667 102.21348929749914, 19.538666666666668 102.35348929749912, 19.528 102.4841559641658 C 19.482666666666667 102.98282263083246, 19.353333333333335 103.3481559641658, 19.14 103.5801559641658 C 18.926666666666666 103.8121559641658, 18.581333333333333 103.94282263083247, 18.104 103.9721559641658 L 18.104 103.0801559641658 C 18.21333333333333 103.05082263083247, 18.296 102.99815596416579, 18.352 102.9221559641658 C 18.408 102.8461559641658, 18.44 102.74682263083247, 18.448 102.6241559641658 C 18.471999999999998 102.33348929749914, 18.485999999999997 102.0721559641658, 18.49 101.8401559641658 C 18.494 101.60815596416579, 18.485333333333333 101.38682263083246, 18.464 101.1761559641658 C 18.447999999999997 101.02148929749913, 18.396666666666665 100.9061559641658, 18.31 100.8301559641658 C 18.223333333333333 100.75415596416579, 18.090666666666664 100.7161559641658, 17.912 100.7161559641658 C 17.901333333333334 100.7161559641658, 17.890666666666668 100.71748929749913, 17.88 100.7201559641658 C 17.86933333333333 100.72282263083245, 17.86 100.72548929749911, 17.852 100.7281559641658 Z M 17.852 98.43615596416579 L 17.852 97.50415596416579 L 19.439999999999998 97.50415596416579 L 19.439999999999998 98.43615596416579 Z M 21.944 103.9041559641658 L 21.944 97.50415596416579 L 23.003999999999998 97.50415596416579 L 23.003999999999998 103.9041559641658 Z " stroke="none" fill-rule="nonzero" fill="#000000" fill-opacity="1" transform="matrix(1,0,0,1,5.05,13.314)" id="text35 l" />
  <path d="M 0 97.93707889988806 L 10 97.93707889988806 L 10 99.43707889988806 L 0 99.43707889988806 Z " stroke="none" fill-rule="evenodd" fill="#000000" fill-opacity="1" transform="matrix(1,0,0,1,5.05,13.314)" id="mark36 l" />
  <path d="M 0 90.88800183561034 L 10 90.88800183561034 L 10 92.38800183561034 L 0 92.38800183561034 Z " stroke="none" fill-rule="evenodd" fill="#000000" fill-opacity="1" transform="matrix(1,0,0,1,5.05,13.314)" id="mark37 l" />
  <path d="M 0 83.83892477133264 L 10 83.83892477133264 L 10 85.33892477133264 L 0 85.33892477133264 Z " stroke="none" fill-rule="evenodd" fill="#000000" fill-opacity="1" transform="matrix(1,0,0,1,5.05,13.314)" id="mark38 l" />
  <path d="M 0 76.78984770705489 L 10 76.78984770705489 L 10 78.28984770705489 L 0 78.28984770705489 Z " stroke="none" fill-rule="evenodd" fill="#000000" fill-opacity="1" transform="matrix(1,0,0,1,5.05,13.314)" id="mark39 l" />
  <path d="M 0 69.74077064277719 L 25 69.74077064277719 L 25 71.24077064277719 L 0 71.24077064277719 Z " stroke="none" fill-rule="evenodd" fill="#000000" fill-opacity="1" transform="matrix(1,0,0,1,5.05,13.314)" id="mark40 l" />
  <path d="M 11.739999999999998 67.0067706427772 L 11.739999999999998 66.1307706427772 L 12.455999999999998 64.2507706427772 L 13.495999999999999 64.2507706427772 L 12.771999999999998 66.08277064277719 L 13.171999999999997 66.08277064277719 L 13.171999999999997 67.0067706427772 Z M 13.675999999999998 68.6907706427772 L 13.675999999999998 62.2907706427772 L 14.683999999999997 62.2907706427772 L 14.683999999999997 68.6907706427772 Z M 15.187999999999999 67.0067706427772 L 15.187999999999999 66.08277064277719 L 15.655999999999999 66.08277064277719 L 15.655999999999999 67.0067706427772 Z M 16.195999999999998 67.27877064277719 C 16.188 66.84943730944386, 16.182666666666666 66.4327706427772, 16.18 66.02877064277719 C 16.177333333333333 65.6247706427772, 16.177999999999997 65.22943730944387, 16.182 64.8427706427772 C 16.186 64.45610397611053, 16.190666666666665 64.0747706427772, 16.195999999999998 63.6987706427772 C 16.20933333333333 63.25877064277719, 16.333999999999996 62.913437309443864, 16.569999999999997 62.6627706427772 C 16.805999999999997 62.41210397611053, 17.142666666666663 62.2667706427772, 17.58 62.2267706427772 L 17.58 63.114770642777195 C 17.382666666666665 63.1707706427772, 17.281333333333333 63.30010397611053, 17.275999999999996 63.50277064277719 C 17.262666666666664 63.87343730944386, 17.25333333333333 64.22143730944386, 17.247999999999998 64.54677064277719 C 17.242666666666665 64.87210397611052, 17.24 65.18877064277719, 17.24 65.4967706427772 C 17.24 65.8047706427772, 17.242666666666665 66.11943730944387, 17.247999999999998 66.4407706427772 C 17.25333333333333 66.76210397611052, 17.262666666666664 67.10543730944386, 17.275999999999996 67.4707706427772 C 17.281333333333333 67.6787706427772, 17.382666666666665 67.81077064277719, 17.58 67.8667706427772 L 17.58 68.75477064277719 C 17.142666666666663 68.7147706427772, 16.805999999999997 68.5687706427772, 16.569999999999997 68.3167706427772 C 16.333999999999996 68.0647706427772, 16.20933333333333 67.7187706427772, 16.195999999999998 67.27877064277719 Z M 18.084 68.75477064277719 L 18.084 67.86277064277719 C 18.268 67.80943730944387, 18.366666666666667 67.68543730944386, 18.38 67.49077064277719 C 18.398666666666664 67.02410397611052, 18.410666666666664 66.57543730944386, 18.415999999999997 66.14477064277719 C 18.42133333333333 65.71410397611054, 18.42133333333333 65.28343730944387, 18.415999999999997 64.8527706427772 C 18.410666666666664 64.42210397611053, 18.398666666666664 63.96943730944386, 18.38 63.4947706427772 C 18.374666666666666 63.300103976110535, 18.276 63.17343730944387, 18.084 63.114770642777195 L 18.084 62.2267706427772 C 18.513333333333332 62.2667706427772, 18.846666666666664 62.41210397611053, 19.083999999999996 62.6627706427772 C 19.32133333333333 62.913437309443864, 19.44533333333333 63.25877064277719, 19.456 63.6987706427772 C 19.466666666666665 64.01343730944387, 19.474666666666664 64.32343730944386, 19.479999999999997 64.6287706427772 C 19.48533333333333 64.93410397611053, 19.488 65.23477064277719, 19.488 65.5307706427772 C 19.488 65.8267706427772, 19.48533333333333 66.12010397611053, 19.479999999999997 66.4107706427772 C 19.474666666666664 66.70143730944386, 19.466666666666665 66.99077064277719, 19.456 67.27877064277719 C 19.439999999999998 67.72943730944385, 19.311999999999998 68.07810397611053, 19.072 68.3247706427772 C 18.831999999999997 68.57143730944387, 18.502666666666663 68.7147706427772, 18.084 68.75477064277719 Z M 21.944 68.6907706427772 L 21.944 62.2907706427772 L 23.003999999999998 62.2907706427772 L 23.003999999999998 68.6907706427772 Z " stroke="none" fill-rule="nonzero" fill="#000000" fill-opacity="1" transform="matrix(1,0,0,1,5.05,13.314)" id="text40 l" />
  <path d="M 0 62.691693578499496 L 10 62.691693578499496 L 10 64.1916935784995 L 0 64.1916935784995 Z " stroke="none" fill-rule="evenodd" fill="#000000" fill-opacity="1" transform="matrix(1,0,0,1,5.05,13.314)" id="mark41 l" />
  <path d="M 0 55.64261651422174 L 10 55.64261651422174 L 10 57.14261651422174 L 0 57.14261651422174 Z " stroke="none" fill-rule="evenodd" fill="#000000" fill-opacity="1" transform="matrix(1,0,0,1,5.05,13.314)" id="mark42 l" />
  <path d="M 0 48.593539449944046 L 10 48.593539449944046 L 10 50.093539449944046 L 0 50.093539449944046 Z " stroke="none" fill-rule="evenodd" fill="#000000" fill-opacity="1" transform="matrix(1,0,0,1,5.05,13.314)" id="mark43 l" />
  <path d="M 0 41.54446238566635 L 10 41.54446238566635 L 10 43.04446238566635 L 0 43.04446238566635 Z " stroke="none" fill-rule="evenodd" fill="#000000" fill-opacity="1" transform="matrix(1,0,0,1,5.05,13.314)" id="mark44 l" />
  <path d="M 0 34.495385321388596 L 25 34.495385321388596 L 25 35.995385321388596 L 0 35.995385321388596 Z " stroke="none" fill-rule="evenodd" fill="#000000" fill-opacity="1" transform="matrix(1,0,0,1,5.05,13.314)" id="mark45 l" />
  <path d="M 11.748 31.729385321388595 L 11.748 30.853385321388597 L 12.463999999999999 28.973385321388594 L 13.503999999999998 28.973385321388594 L 12.78 30.805385321388595 L 13.18 30.805385321388595 L 13.18 31.729385321388595 Z M 13.684 33.413385321388596 L 13.684 27.013385321388597 L 14.691999999999998 27.013385321388597 L 14.691999999999998 33.413385321388596 Z M 15.195999999999998 31.729385321388595 L 15.195999999999998 30.805385321388595 L 15.663999999999998 30.805385321388595 L 15.663999999999998 31.729385321388595 Z M 16.18 31.997385321388595 C 16.174666666666667 31.82405198805526, 16.173333333333332 31.684718654721927, 16.176 31.579385321388596 C 16.178666666666665 31.47405198805526, 16.181333333333335 31.37205198805526, 16.183999999999997 31.273385321388595 L 17.264 31.273385321388595 C 17.256 31.35071865472193, 17.25 31.446718654721927, 17.246 31.561385321388595 C 17.241999999999997 31.676051988055264, 17.240666666666666 31.78671865472193, 17.241999999999997 31.893385321388596 C 17.243333333333332 32.00005198805526, 17.246666666666666 32.08005198805526, 17.252 32.133385321388594 C 17.262666666666668 32.25338532138859, 17.297333333333334 32.3513853213886, 17.355999999999998 32.4273853213886 C 17.414666666666665 32.5033853213886, 17.497333333333334 32.557385321388594, 17.604 32.5893853213886 L 17.604 33.48138532138859 C 17.110666666666663 33.444051988055264, 16.75333333333333 33.309385321388596, 16.532 33.0773853213886 C 16.310666666666666 32.8453853213886, 16.19333333333333 32.4853853213886, 16.18 31.997385321388595 Z M 16.279999999999998 30.661385321388597 L 16.279999999999998 27.013385321388597 L 17.348 27.013385321388597 L 17.348 30.661385321388597 Z M 17.852 30.237385321388594 L 17.852 29.481385321388597 C 17.929333333333332 29.441385321388594, 18.014666666666667 29.409385321388598, 18.107999999999997 29.385385321388597 C 18.20133333333333 29.361385321388596, 18.301333333333332 29.349385321388596, 18.407999999999998 29.349385321388596 C 18.773333333333333 29.349385321388596, 19.047333333333334 29.464718654721928, 19.23 29.695385321388596 C 19.412666666666667 29.926051988055264, 19.514666666666663 30.240051988055264, 19.535999999999998 30.637385321388596 C 19.546666666666667 30.797385321388596, 19.55333333333333 30.95605198805526, 19.555999999999997 31.113385321388595 C 19.558666666666664 31.27071865472193, 19.557333333333332 31.42405198805526, 19.552 31.573385321388596 C 19.546666666666667 31.72271865472193, 19.538666666666668 31.862718654721927, 19.528 31.993385321388594 C 19.482666666666667 32.492051988055266, 19.353333333333335 32.8573853213886, 19.14 33.0893853213886 C 18.926666666666666 33.3213853213886, 18.581333333333333 33.45205198805526, 18.104 33.48138532138859 L 18.104 32.5893853213886 C 18.21333333333333 32.560051988055264, 18.296 32.5073853213886, 18.352 32.431385321388596 C 18.408 32.355385321388596, 18.44 32.25605198805526, 18.448 32.133385321388594 C 18.471999999999998 31.842718654721928, 18.485999999999997 31.581385321388595, 18.49 31.349385321388596 C 18.494 31.117385321388596, 18.485333333333333 30.896051988055262, 18.464 30.685385321388594 C 18.447999999999997 30.530718654721927, 18.396666666666665 30.415385321388595, 18.31 30.339385321388598 C 18.223333333333333 30.263385321388597, 18.090666666666664 30.225385321388597, 17.912 30.225385321388597 C 17.901333333333334 30.225385321388597, 17.890666666666668 30.226718654721928, 17.88 30.229385321388595 C 17.86933333333333 30.23205198805526, 17.86 30.23471865472193, 17.852 30.237385321388594 Z M 17.852 27.945385321388596 L 17.852 27.013385321388597 L 19.439999999999998 27.013385321388597 L 19.439999999999998 27.945385321388596 Z M 21.944 33.413385321388596 L 21.944 27.013385321388597 L 23.003999999999998 27.013385321388597 L 23.003999999999998 33.413385321388596 Z " stroke="none" fill-rule="nonzero" fill="#000000" fill-opacity="1" transform="matrix(1,0,0,1,5.05,13.314)" id="text45 l" />
  <path d="M 0 27.4463082571109 L 10 27.4463082571109 L 10 28.9463082571109 L 0 28.9463082571109 Z " stroke="none" fill-rule="evenodd" fill="#000000" fill-opacity="1" transform="matrix(1,0,0,1,5.05,13.314)" id="mark46 l" />
  <path d="M 0 20.397231192833146 L 10 20.397231192833146 L 10 21.897231192833146 L 0 21.897231192833146 Z " stroke="none" fill-rule="evenodd" fill="#000000" fill-opacity="1" transform="matrix(1,0,0,1,5.05,13.314)" id="mark47 l" />
  <path d="M 0 13.34815412855545 L 10 13.34815412855545 L 10 14.84815412855545 L 0 14.84815412855545 Z " stroke="none" fill-rule="evenodd" fill="#000000" fill-opacity="1" transform="matrix(1,0,0,1,5.05,13.314)" id="mark48 l" />
  <path d="M 0 6.299077064277753 L 10 6.299077064277753 L 10 7.799077064277753 L 0 7.799077064277753 Z " stroke="none" fill-rule="evenodd" fill="#000000" fill-opacity="1" transform="matrix(1,0,0,1,5.05,13.314)" id="mark49 l" />
  <path d="M 0 -0.75 L 25 -0.75 L 25 0.75 L 0 0.75 Z " stroke="none" fill-rule="evenodd" fill="#000000" fill-opacity="1" transform="matrix(1,0,0,1,5.05,13.314)" id="mark50 l" />
  <path d="M 12.204 -3.2159999999999997 C 12.198666666666668 -3.389333333333333, 12.197333333333333 -3.528666666666667, 12.2 -3.634 C 12.202666666666667 -3.7393333333333336, 12.205333333333336 -3.841333333333333, 12.208 -3.94 L 13.288 -3.94 C 13.280000000000001 -3.8626666666666667, 13.274000000000001 -3.7666666666666666, 13.27 -3.6519999999999997 C 13.265999999999998 -3.5373333333333328, 13.264666666666667 -3.4266666666666667, 13.266 -3.32 C 13.267333333333333 -3.213333333333334, 13.270666666666667 -3.1333333333333337, 13.276 -3.08 C 13.286666666666665 -2.96, 13.321333333333332 -2.862, 13.379999999999999 -2.7859999999999996 C 13.438666666666666 -2.71, 13.521333333333335 -2.6559999999999997, 13.628 -2.6239999999999997 L 13.628 -1.7319999999999998 C 13.134666666666668 -1.7693333333333332, 12.777333333333335 -1.904, 12.556 -2.1359999999999997 C 12.334666666666667 -2.368, 12.217333333333332 -2.7279999999999998, 12.204 -3.2159999999999997 Z M 12.304 -4.552 L 12.304 -8.2 L 13.372 -8.2 L 13.372 -4.552 Z M 13.876 -4.976 L 13.876 -5.731999999999999 C 13.953333333333333 -5.771999999999999, 14.038666666666668 -5.804, 14.132 -5.828 C 14.225333333333333 -5.852, 14.325333333333333 -5.864, 14.432 -5.864 C 14.797333333333334 -5.864, 15.071333333333332 -5.748666666666667, 15.254 -5.518 C 15.436666666666667 -5.287333333333333, 15.538666666666668 -4.973333333333333, 15.56 -4.576 C 15.570666666666668 -4.416, 15.577333333333334 -4.257333333333333, 15.58 -4.1 C 15.582666666666666 -3.9426666666666668, 15.581333333333333 -3.7893333333333334, 15.576 -3.6399999999999997 C 15.570666666666666 -3.490666666666667, 15.562666666666665 -3.3506666666666667, 15.552 -3.2199999999999998 C 15.506666666666668 -2.721333333333333, 15.377333333333333 -2.356, 15.164 -2.1239999999999997 C 14.950666666666667 -1.892, 14.605333333333332 -1.7613333333333332, 14.128 -1.7319999999999998 L 14.128 -2.6239999999999997 C 14.237333333333334 -2.653333333333333, 14.32 -2.7059999999999995, 14.376 -2.782 C 14.432 -2.8579999999999997, 14.464 -2.957333333333333, 14.472 -3.08 C 14.495999999999999 -3.3706666666666667, 14.509999999999998 -3.6319999999999997, 14.514 -3.864 C 14.518 -4.096, 14.509333333333334 -4.317333333333333, 14.488 -4.5280000000000005 C 14.472000000000001 -4.682666666666667, 14.420666666666666 -4.798, 14.334 -4.874 C 14.247333333333334 -4.949999999999999, 14.114666666666666 -4.9879999999999995, 13.936 -4.9879999999999995 C 13.925333333333333 -4.9879999999999995, 13.914666666666665 -4.986666666666666, 13.904 -4.984 C 13.893333333333334 -4.981333333333334, 13.884 -4.978666666666667, 13.876 -4.976 Z M 13.876 -7.268 L 13.876 -8.2 L 15.464 -8.2 L 15.464 -7.268 Z M 16.196 -3.2119999999999997 C 16.188000000000002 -3.641333333333333, 16.182666666666666 -4.058, 16.18 -4.462 C 16.177333333333333 -4.866, 16.177999999999997 -5.261333333333333, 16.182 -5.648 C 16.186 -6.034666666666666, 16.190666666666665 -6.416, 16.196 -6.792 C 16.209333333333333 -7.231999999999999, 16.334000000000003 -7.577333333333334, 16.57 -7.828 C 16.805999999999997 -8.078666666666667, 17.142666666666663 -8.224, 17.58 -8.264 L 17.58 -7.3759999999999994 C 17.382666666666665 -7.32, 17.281333333333333 -7.190666666666667, 17.276 -6.9879999999999995 C 17.262666666666668 -6.617333333333333, 17.253333333333334 -6.269333333333333, 17.248 -5.944 C 17.242666666666665 -5.618666666666666, 17.24 -5.302, 17.24 -4.994 C 17.24 -4.686, 17.242666666666665 -4.371333333333333, 17.248 -4.05 C 17.253333333333334 -3.7286666666666664, 17.262666666666668 -3.3853333333333326, 17.276 -3.0199999999999996 C 17.281333333333333 -2.812, 17.382666666666665 -2.6799999999999997, 17.58 -2.6239999999999997 L 17.58 -1.7359999999999998 C 17.142666666666663 -1.7759999999999998, 16.805999999999997 -1.9219999999999997, 16.57 -2.174 C 16.334000000000003 -2.4259999999999997, 16.209333333333333 -2.772, 16.196 -3.2119999999999997 Z M 18.084 -1.7359999999999998 L 18.084 -2.6279999999999997 C 18.268 -2.681333333333333, 18.366666666666667 -2.8053333333333335, 18.38 -3 C 18.398666666666667 -3.4666666666666663, 18.410666666666668 -3.915333333333333, 18.416 -4.346 C 18.421333333333333 -4.776666666666666, 18.421333333333333 -5.207333333333333, 18.416 -5.638 C 18.410666666666668 -6.068666666666666, 18.398666666666667 -6.521333333333333, 18.38 -6.9959999999999996 C 18.374666666666666 -7.190666666666667, 18.276 -7.317333333333334, 18.084 -7.3759999999999994 L 18.084 -8.264 C 18.513333333333335 -8.224, 18.846666666666668 -8.078666666666667, 19.084 -7.828 C 19.321333333333335 -7.577333333333334, 19.445333333333334 -7.231999999999999, 19.456 -6.792 C 19.46666666666667 -6.477333333333332, 19.474666666666668 -6.167333333333333, 19.48 -5.861999999999999 C 19.485333333333333 -5.556666666666667, 19.488 -5.256, 19.488 -4.96 C 19.488 -4.664, 19.485333333333333 -4.370666666666667, 19.48 -4.08 C 19.474666666666668 -3.7893333333333334, 19.46666666666667 -3.5, 19.456 -3.2119999999999997 C 19.439999999999998 -2.761333333333333, 19.311999999999998 -2.4126666666666665, 19.072 -2.166 C 18.832 -1.9193333333333331, 18.502666666666666 -1.7759999999999998, 18.084 -1.7359999999999998 Z M 21.944 -1.7999999999999998 L 21.944 -8.2 L 23.003999999999998 -8.2 L 23.003999999999998 -1.7999999999999998 Z " stroke="none" fill-rule="nonzero" fill="#000000" fill-opacity="1" transform="matrix(1,0,0,1,5.05,13.314)" id="text50 l" />
  <path d="M -5 -13.264 L 30 -13.264 L 30 352.1727761496082 L -5 352.1727761496082 Z " stroke="#FF0000" stroke-opacity="1" stroke-width="0.1" stroke-linecap="butt" stroke-linejoin="miter" fill="none" transform="matrix(1,0,0,1,5.05,13.314)" />
</svg>