<?xml version="1.0" encoding="UTF-8"?>
<svg xmlns:xlink="http://www.w3.org/1999/xlink" viewBox="0 0 35.1 380.71741794257537" version="1.1" style="font-synthesis: none;" width="35.1mm" height="380.71741794257537mm" xmlns="http://www.w3.org/2000/svg">
  <defs />
  <style>	</style>
  <path d="M 0 0 L 35.1 0 L 35.1 380.71741794257537 L 0 380.71741794257537 Z " stroke="none" fill-rule="nonzero" fill="#FFFFFF" fill-opacity="1" transform="matrix(1,0,0,1,0,0)" />
  <path d="M 0 359.83541794257536 L 10 359.83541794257536 L 10 361.33541794257536 L 0 361.33541794257536 Z " stroke="none" fill-rule="evenodd" fill="#000000" fill-opacity="1" transform="matrix(1,0,0,1,5.05,13.314)" id="mark1 l" />
  <path d="M 0 347.40143801352104 L 10 347.40143801352104 L 10 348.90143801352104 L 0 348.90143801352104 Z " stroke="none" fill-rule="evenodd" fill="#000000" fill-opacity="1" transform="matrix(1,0,0,1,5.05,13.314)" id="mark2 l" />
  <path d="M 0 334.9674580844667 L 10 334.9674580844667 L 10 336.4674580844667 L 0 336.4674580844667 Z " stroke="none" fill-rule="evenodd" fill="#000000" fill-opacity="1" transform="matrix(1,0,0,1,5.05,13.314)" id="mark3 l" />
  <path d="M 0 322.5334781554124 L 10 322.5334781554124 L 10 324.0334781554124 L 0 324.0334781554124 Z " stroke="none" fill-rule="evenodd" fill="#000000" fill-opacity="1" transform="matrix(1,0,0,1,5.05,13.314)" id="mark4 l" />
  <path d="M 0 310.09949822635804 L 25 310.09949822635804 L 25 311.59949822635804 L 0 311.59949822635804 Z " stroke="none" fill-rule="evenodd" fill="#000000" fill-opacity="1" transform="matrix(1,0,0,1,5.05,13.314)" id="mark5 l" />
  <path d="M 16.18 307.60149822635805 C 16.174666666666667 307.4281648930247, 16.173333333333332 307.2888315596914, 16.176 307.18349822635804 C 16.178666666666665 307.0781648930247, 16.181333333333335 306.9761648930247, 16.183999999999997 306.87749822635806 L 17.264 306.87749822635806 C 17.256 306.9548315596914, 17.25 307.0508315596914, 17.246 307.16549822635807 C 17.241999999999997 307.28016489302473, 17.240666666666666 307.3908315596914, 17.241999999999997 307.49749822635806 C 17.243333333333332 307.6041648930247, 17.246666666666666 307.6841648930247, 17.252 307.73749822635807 C 17.262666666666668 307.8574982263581, 17.297333333333334 307.95549822635803, 17.355999999999998 308.03149822635805 C 17.414666666666665 308.107498226358, 17.497333333333334 308.16149822635805, 17.604 308.19349822635803 L 17.604 309.085498226358 C 17.110666666666663 309.0481648930247, 16.75333333333333 308.913498226358, 16.532 308.68149822635803 C 16.310666666666666 308.44949822635806, 16.19333333333333 308.08949822635805, 16.18 307.60149822635805 Z M 16.279999999999998 306.26549822635803 L 16.279999999999998 302.61749822635807 L 17.348 302.61749822635807 L 17.348 306.26549822635803 Z M 17.852 305.84149822635806 L 17.852 305.085498226358 C 17.929333333333332 305.04549822635806, 18.014666666666667 305.013498226358, 18.107999999999997 304.989498226358 C 18.20133333333333 304.965498226358, 18.301333333333332 304.953498226358, 18.407999999999998 304.953498226358 C 18.773333333333333 304.953498226358, 19.047333333333334 305.0688315596914, 19.23 305.299498226358 C 19.412666666666667 305.5301648930247, 19.514666666666663 305.8441648930247, 19.535999999999998 306.24149822635803 C 19.546666666666667 306.40149822635806, 19.55333333333333 306.5601648930247, 19.555999999999997 306.71749822635803 C 19.558666666666664 306.87483155969136, 19.557333333333332 307.0281648930247, 19.552 307.17749822635807 C 19.546666666666667 307.3268315596914, 19.538666666666668 307.4668315596914, 19.528 307.597498226358 C 19.482666666666667 308.0961648930247, 19.353333333333335 308.461498226358, 19.14 308.69349822635803 C 18.926666666666666 308.92549822635806, 18.581333333333333 309.0561648930247, 18.104 309.085498226358 L 18.104 308.19349822635803 C 18.21333333333333 308.1641648930247, 18.296 308.11149822635804, 18.352 308.035498226358 C 18.408 307.95949822635805, 18.44 307.8601648930247, 18.448 307.73749822635807 C 18.471999999999998 307.4468315596914, 18.485999999999997 307.18549822635805, 18.49 306.953498226358 C 18.494 306.72149822635805, 18.485333333333333 306.5001648930247, 18.464 306.28949822635803 C 18.447999999999997 306.1348315596914, 18.396666666666665 306.01949822635805, 18.31 305.94349822635803 C 18.223333333333333 305.86749822635807, 18.090666666666664 305.82949822635806, 17.912 305.82949822635806 C 17.901333333333334 305.82949822635806, 17.890666666666668 305.8308315596914, 17.88 305.833498226358 C 17.86933333333333 305.8361648930247, 17.86 305.83883155969136, 17.852 305.84149822635806 Z M 17.852 303.549498226358 L 17.852 302.61749822635807 L 19.439999999999998 302.61749822635807 L 19.439999999999998 303.549498226358 Z M 21.944 309.01749822635804 L 21.944 302.61749822635807 L 23.003999999999998 302.61749822635807 L 23.003999999999998 309.01749822635804 Z " stroke="none" fill-rule="nonzero" fill="#000000" fill-opacity="1" transform="matrix(1,0,0,1,5.05,13.314)" id="text5 l" />
  <path d="M 0 297.6655182973037 L 10 297.6655182973037 L 10 299.1655182973037 L 0 299.1655182973037 Z " stroke="none" fill-rule="evenodd" fill="#000000" fill-opacity="1" transform="matrix(1,0,0,1,5.05,13.314)" id="mark6 l" />
  <path d="M 0 285.2315383682494 L 10 285.2315383682494 L 10 286.7315383682494 L 0 286.7315383682494 Z " stroke="none" fill-rule="evenodd" fill="#000000" fill-opacity="1" transform="matrix(1,0,0,1,5.05,13.314)" id="mark7 l" />
  <path d="M 0 272.7975584391951 L 10 272.7975584391951 L 10 274.2975584391951 L 0 274.2975584391951 Z " stroke="none" fill-rule="evenodd" fill="#000000" fill-opacity="1" transform="matrix(1,0,0,1,5.05,13.314)" id="mark8 l" />
  <path d="M 0 260.36357851014077 L 10 260.36357851014077 L 10 261.86357851014077 L 0 261.86357851014077 Z " stroke="none" fill-rule="evenodd" fill="#000000" fill-opacity="1" transform="matrix(1,0,0,1,5.05,13.314)" id="mark9 l" />
  <path d="M 0 247.92959858108645 L 25 247.92959858108645 L 25 249.42959858108645 L 0 249.42959858108645 Z " stroke="none" fill-rule="evenodd" fill="#000000" fill-opacity="1" transform="matrix(1,0,0,1,5.05,13.314)" id="mark10 l" />
  <path d="M 14.323999999999998 246.87959858108647 L 14.323999999999998 241.43559858108648 L 13.871999999999998 241.43559858108648 L 13.839999999999998 241.05559858108646 L 14.543999999999999 240.47959858108646 L 15.424 240.47959858108646 L 15.424 246.87959858108647 Z M 16.196 245.46759858108646 C 16.188000000000002 245.03826524775315, 16.182666666666666 244.62159858108646, 16.18 244.21759858108646 C 16.177333333333333 243.81359858108647, 16.177999999999997 243.41826524775314, 16.182 243.03159858108646 C 16.186 242.64493191441977, 16.190666666666665 242.26359858108646, 16.196 241.88759858108648 C 16.209333333333333 241.44759858108648, 16.334000000000003 241.10226524775317, 16.57 240.85159858108648 C 16.805999999999997 240.6009319144198, 17.142666666666663 240.45559858108646, 17.58 240.41559858108647 L 17.58 241.30359858108648 C 17.382666666666665 241.35959858108646, 17.281333333333333 241.48893191441982, 17.276 241.69159858108648 C 17.262666666666668 242.06226524775315, 17.253333333333334 242.41026524775313, 17.248 242.73559858108646 C 17.242666666666665 243.0609319144198, 17.24 243.3775985810865, 17.24 243.68559858108648 C 17.24 243.99359858108647, 17.242666666666665 244.30826524775313, 17.248 244.62959858108647 C 17.253333333333334 244.9509319144198, 17.262666666666668 245.29426524775312, 17.276 245.65959858108647 C 17.281333333333333 245.8675985810865, 17.382666666666665 245.9995985810865, 17.58 246.05559858108646 L 17.58 246.94359858108646 C 17.142666666666663 246.90359858108644, 16.805999999999997 246.75759858108648, 16.57 246.50559858108647 C 16.334000000000003 246.25359858108646, 16.209333333333333 245.90759858108646, 16.196 245.46759858108646 Z M 18.084 246.94359858108646 L 18.084 246.05159858108647 C 18.268 245.99826524775315, 18.366666666666667 245.87426524775316, 18.38 245.67959858108648 C 18.398666666666667 245.2129319144198, 18.410666666666668 244.76426524775314, 18.416 244.33359858108648 C 18.421333333333333 243.9029319144198, 18.421333333333333 243.47226524775314, 18.416 243.04159858108648 C 18.410666666666668 242.6109319144198, 18.398666666666667 242.15826524775315, 18.38 241.68359858108647 C 18.374666666666666 241.48893191441982, 18.276 241.36226524775316, 18.084 241.30359858108648 L 18.084 240.41559858108647 C 18.513333333333335 240.45559858108646, 18.846666666666668 240.6009319144198, 19.084 240.85159858108648 C 19.321333333333335 241.10226524775317, 19.445333333333334 241.44759858108648, 19.456 241.88759858108648 C 19.46666666666667 242.20226524775313, 19.474666666666668 242.51226524775313, 19.48 242.81759858108646 C 19.485333333333333 243.12293191441978, 19.488 243.42359858108645, 19.488 243.71959858108647 C 19.488 244.01559858108646, 19.485333333333333 244.30893191441982, 19.48 244.59959858108647 C 19.474666666666668 244.89026524775312, 19.46666666666667 245.17959858108645, 19.456 245.46759858108646 C 19.439999999999998 245.91826524775314, 19.311999999999998 246.2669319144198, 19.072 246.51359858108646 C 18.832 246.76026524775313, 18.502666666666666 246.90359858108644, 18.084 246.94359858108646 Z M 21.944 246.87959858108647 L 21.944 240.47959858108646 L 23.003999999999998 240.47959858108646 L 23.003999999999998 246.87959858108647 Z " stroke="none" fill-rule="nonzero" fill="#000000" fill-opacity="1" transform="matrix(1,0,0,1,5.05,13.314)" id="text10 l" />
  <path d="M 0 235.49561865203214 L 10 235.49561865203214 L 10 236.99561865203214 L 0 236.99561865203214 Z " stroke="none" fill-rule="evenodd" fill="#000000" fill-opacity="1" transform="matrix(1,0,0,1,5.05,13.314)" id="mark11 l" />
  <path d="M 0 223.0616387229778 L 10 223.0616387229778 L 10 224.5616387229778 L 0 224.5616387229778 Z " stroke="none" fill-rule="evenodd" fill="#000000" fill-opacity="1" transform="matrix(1,0,0,1,5.05,13.314)" id="mark12 l" />
  <path d="M 0 210.62765879392347 L 10 210.62765879392347 L 10 212.12765879392347 L 0 212.12765879392347 Z " stroke="none" fill-rule="evenodd" fill="#000000" fill-opacity="1" transform="matrix(1,0,0,1,5.05,13.314)" id="mark13 l" />
  <path d="M 0 198.19367886486916 L 10 198.19367886486916 L 10 199.69367886486916 L 0 199.69367886486916 Z " stroke="none" fill-rule="evenodd" fill="#000000" fill-opacity="1" transform="matrix(1,0,0,1,5.05,13.314)" id="mark14 l" />
  <path d="M 0 185.75969893581484 L 25 185.75969893581484 L 25 187.25969893581484 L 0 187.25969893581484 Z " stroke="none" fill-rule="evenodd" fill="#000000" fill-opacity="1" transform="matrix(1,0,0,1,5.05,13.314)" id="mark15 l" />
  <path d="M 14.331999999999999 184.67769893581485 L 14.331999999999999 179.23369893581486 L 13.879999999999999 179.23369893581486 L 13.847999999999999 178.85369893581483 L 14.552 178.27769893581484 L 15.432 178.27769893581484 L 15.432 184.67769893581485 Z M 16.18 183.26169893581485 C 16.174666666666667 183.08836560248153, 16.173333333333332 182.94903226914818, 16.176 182.84369893581484 C 16.178666666666665 182.7383656024815, 16.181333333333335 182.63636560248153, 16.183999999999997 182.53769893581486 L 17.264 182.53769893581486 C 17.256 182.61503226914817, 17.25 182.71103226914818, 17.246 182.82569893581484 C 17.241999999999997 182.9403656024815, 17.240666666666666 183.05103226914815, 17.241999999999997 183.15769893581484 C 17.243333333333332 183.26436560248152, 17.246666666666666 183.3443656024815, 17.252 183.39769893581484 C 17.262666666666668 183.51769893581485, 17.297333333333334 183.61569893581486, 17.355999999999998 183.69169893581486 C 17.414666666666665 183.76769893581485, 17.497333333333334 183.82169893581482, 17.604 183.85369893581483 L 17.604 184.74569893581486 C 17.110666666666663 184.70836560248154, 16.75333333333333 184.57369893581483, 16.532 184.34169893581483 C 16.310666666666666 184.10969893581483, 16.19333333333333 183.74969893581485, 16.18 183.26169893581485 Z M 16.279999999999998 181.92569893581484 L 16.279999999999998 178.27769893581484 L 17.348 178.27769893581484 L 17.348 181.92569893581484 Z M 17.852 181.50169893581486 L 17.852 180.74569893581486 C 17.929333333333332 180.70569893581487, 18.014666666666667 180.67369893581485, 18.107999999999997 180.64969893581485 C 18.20133333333333 180.62569893581485, 18.301333333333332 180.61369893581485, 18.407999999999998 180.61369893581485 C 18.773333333333333 180.61369893581485, 19.047333333333334 180.7290322691482, 19.23 180.95969893581486 C 19.412666666666667 181.1903656024815, 19.514666666666663 181.50436560248153, 19.535999999999998 181.90169893581484 C 19.546666666666667 182.06169893581483, 19.55333333333333 182.2203656024815, 19.555999999999997 182.37769893581483 C 19.558666666666664 182.5350322691482, 19.557333333333332 182.68836560248153, 19.552 182.83769893581484 C 19.546666666666667 182.98703226914816, 19.538666666666668 183.12703226914817, 19.528 183.25769893581486 C 19.482666666666667 183.7563656024815, 19.353333333333335 184.12169893581483, 19.14 184.35369893581483 C 18.926666666666666 184.58569893581483, 18.581333333333333 184.71636560248152, 18.104 184.74569893581486 L 18.104 183.85369893581483 C 18.21333333333333 183.82436560248152, 18.296 183.77169893581484, 18.352 183.69569893581485 C 18.408 183.61969893581485, 18.44 183.52036560248152, 18.448 183.39769893581484 C 18.471999999999998 183.10703226914816, 18.485999999999997 182.84569893581482, 18.49 182.61369893581485 C 18.494 182.38169893581482, 18.485333333333333 182.1603656024815, 18.464 181.94969893581484 C 18.447999999999997 181.79503226914818, 18.396666666666665 181.67969893581483, 18.31 181.60369893581483 C 18.223333333333333 181.52769893581484, 18.090666666666664 181.48969893581486, 17.912 181.48969893581486 C 17.901333333333334 181.48969893581486, 17.890666666666668 181.4910322691482, 17.88 181.49369893581485 C 17.86933333333333 181.4963656024815, 17.86 181.4990322691482, 17.852 181.50169893581486 Z M 17.852 179.20969893581486 L 17.852 178.27769893581484 L 19.439999999999998 178.27769893581484 L 19.439999999999998 179.20969893581486 Z M 21.944 184.67769893581485 L 21.944 178.27769893581484 L 23.003999999999998 178.27769893581484 L 23.003999999999998 184.67769893581485 Z " stroke="none" fill-rule="nonzero" fill="#000000" fill-opacity="1" transform="matrix(1,0,0,1,5.05,13.314)" id="text15 l" />
  <path d="M 0 173.32571900676052 L 10 173.32571900676052 L 10 174.82571900676052 L 0 174.82571900676052 Z " stroke="none" fill-rule="evenodd" fill="#000000" fill-opacity="1" transform="matrix(1,0,0,1,5.05,13.314)" id="mark16 l" />
  <path d="M 0 160.89173907770618 L 10 160.89173907770618 L 10 162.39173907770618 L 0 162.39173907770618 Z " stroke="none" fill-rule="evenodd" fill="#000000" fill-opacity="1" transform="matrix(1,0,0,1,5.05,13.314)" id="mark17 l" />
  <path d="M 0 148.45775914865186 L 10 148.45775914865186 L 10 149.95775914865186 L 0 149.95775914865186 Z " stroke="none" fill-rule="evenodd" fill="#000000" fill-opacity="1" transform="matrix(1,0,0,1,5.05,13.314)" id="mark18 l" />
  <path d="M 0 136.02377921959754 L 10 136.02377921959754 L 10 137.52377921959754 L 0 137.52377921959754 Z " stroke="none" fill-rule="evenodd" fill="#000000" fill-opacity="1" transform="matrix(1,0,0,1,5.05,13.314)" id="mark19 l" />
  <path d="M 0 123.58979929054323 L 25 123.58979929054323 L 25 125.08979929054323 L 0 125.08979929054323 Z " stroke="none" fill-rule="evenodd" fill="#000000" fill-opacity="1" transform="matrix(1,0,0,1,5.05,13.314)" id="mark20 l" />
  <path d="M 12.319999999999999 122.53979929054323 C 12.317333333333334 122.44113262387657, 12.315333333333331 122.35246595720989, 12.313999999999998 122.27379929054322 C 12.312666666666665 122.19513262387656, 12.311333333333334 122.12113262387658, 12.309999999999999 122.05179929054323 C 12.308666666666667 121.98246595720991, 12.308 121.91046595720991, 12.308 121.83579929054324 C 12.308 121.76113262387656, 12.308 121.6764659572099, 12.308 121.58179929054323 C 12.308 121.48713262387656, 12.309333333333335 121.37579929054323, 12.312 121.24779929054323 C 12.32 120.95446595720989, 12.37 120.69246595720989, 12.462 120.46179929054323 C 12.554 120.23113262387656, 12.687999999999999 120.02513262387654, 12.863999999999999 119.84379929054323 C 13.04 119.66246595720989, 13.257333333333333 119.50113262387657, 13.515999999999998 119.35979929054322 L 14.047999999999998 119.07179929054323 C 14.234666666666666 118.97046595720988, 14.354 118.8484659572099, 14.405999999999999 118.70579929054323 C 14.457999999999998 118.56313262387656, 14.488 118.42913262387657, 14.495999999999999 118.30379929054322 C 14.506666666666664 118.15713262387655, 14.512666666666664 118.00046595720988, 14.514 117.83379929054323 C 14.51533333333333 117.66713262387657, 14.511999999999997 117.5104659572099, 14.504 117.36379929054323 C 14.498666666666665 117.25979929054324, 14.468666666666666 117.17379929054323, 14.413999999999998 117.10579929054323 C 14.359333333333332 117.03779929054323, 14.279999999999998 116.98913262387657, 14.175999999999998 116.95979929054323 L 14.175999999999998 116.07179929054323 C 14.663999999999998 116.10379929054324, 15.014 116.23513262387657, 15.225999999999999 116.46579929054323 C 15.437999999999999 116.6964659572099, 15.554666666666666 117.05713262387656, 15.575999999999999 117.54779929054322 C 15.578666666666663 117.61179929054322, 15.580666666666666 117.67713262387656, 15.581999999999999 117.74379929054322 C 15.583333333333332 117.81046595720989, 15.584 117.87513262387657, 15.584 117.93779929054323 C 15.584 118.00046595720988, 15.583333333333332 118.0624659572099, 15.581999999999999 118.12379929054323 C 15.580666666666666 118.18513262387657, 15.578666666666663 118.24513262387657, 15.575999999999999 118.30379929054322 C 15.565333333333331 118.58913262387657, 15.512 118.83579929054324, 15.415999999999999 119.04379929054323 C 15.32 119.25179929054323, 15.19 119.43179929054322, 15.026 119.58379929054323 C 14.862 119.73579929054323, 14.672 119.87179929054324, 14.456 119.99179929054323 L 13.851999999999999 120.31979929054323 C 13.737333333333332 120.38113262387657, 13.647333333333332 120.46513262387657, 13.581999999999999 120.57179929054323 C 13.516666666666666 120.67846595720988, 13.469999999999999 120.79179929054322, 13.441999999999998 120.91179929054323 C 13.413999999999998 121.03179929054323, 13.399999999999999 121.14379929054323, 13.399999999999999 121.24779929054323 L 13.399999999999999 122.53979929054323 Z M 12.328 118.49979929054322 C 12.322666666666667 118.3824659572099, 12.318666666666665 118.26779929054324, 12.315999999999999 118.15579929054323 C 12.313333333333333 118.04379929054322, 12.311333333333334 117.93779929054321, 12.309999999999999 117.83779929054323 C 12.308666666666667 117.73779929054322, 12.309333333333335 117.64113262387656, 12.312 117.54779929054322 C 12.330666666666666 117.05979929054322, 12.447333333333333 116.7004659572099, 12.661999999999999 116.46979929054322 C 12.876666666666665 116.23913262387657, 13.213333333333331 116.1064659572099, 13.671999999999999 116.07179929054323 L 13.671999999999999 116.96379929054324 C 13.576 116.99313262387656, 13.505333333333333 117.03979929054324, 13.459999999999999 117.10379929054324 C 13.414666666666665 117.16779929054323, 13.390666666666664 117.24513262387657, 13.387999999999998 117.33579929054324 C 13.382666666666665 117.54379929054323, 13.379333333333333 117.73713262387656, 13.378 117.91579929054323 C 13.376666666666667 118.0944659572099, 13.381333333333334 118.28913262387657, 13.392 118.49979929054322 Z M 13.904 122.53979929054323 L 13.904 121.60779929054323 L 15.5 121.60779929054323 L 15.5 122.53979929054323 Z M 16.196 121.12779929054322 C 16.188000000000002 120.69846595720989, 16.182666666666666 120.28179929054323, 16.18 119.87779929054322 C 16.177333333333333 119.47379929054323, 16.177999999999997 119.07846595720989, 16.182 118.69179929054323 C 16.186 118.30513262387657, 16.190666666666665 117.92379929054323, 16.196 117.54779929054322 C 16.209333333333333 117.10779929054323, 16.334000000000003 116.7624659572099, 16.57 116.51179929054322 C 16.805999999999997 116.26113262387656, 17.142666666666663 116.11579929054324, 17.58 116.07579929054323 L 17.58 116.96379929054324 C 17.382666666666665 117.01979929054323, 17.281333333333333 117.14913262387655, 17.276 117.35179929054323 C 17.262666666666668 117.72246595720989, 17.253333333333334 118.07046595720989, 17.248 118.39579929054322 C 17.242666666666665 118.72113262387656, 17.24 119.03779929054323, 17.24 119.34579929054323 C 17.24 119.65379929054322, 17.242666666666665 119.9684659572099, 17.248 120.28979929054323 C 17.253333333333334 120.61113262387656, 17.262666666666668 120.95446595720989, 17.276 121.31979929054323 C 17.281333333333333 121.52779929054324, 17.382666666666665 121.65979929054323, 17.58 121.71579929054323 L 17.58 122.60379929054322 C 17.142666666666663 122.56379929054324, 16.805999999999997 122.41779929054323, 16.57 122.16579929054323 C 16.334000000000003 121.91379929054324, 16.209333333333333 121.56779929054323, 16.196 121.12779929054322 Z M 18.084 122.60379929054322 L 18.084 121.71179929054323 C 18.268 121.6584659572099, 18.366666666666667 121.5344659572099, 18.38 121.33979929054323 C 18.398666666666667 120.87313262387656, 18.410666666666668 120.42446595720989, 18.416 119.99379929054322 C 18.421333333333333 119.56313262387656, 18.421333333333333 119.1324659572099, 18.416 118.70179929054324 C 18.410666666666668 118.27113262387657, 18.398666666666667 117.8184659572099, 18.38 117.34379929054323 C 18.374666666666666 117.14913262387657, 18.276 117.0224659572099, 18.084 116.96379929054324 L 18.084 116.07579929054323 C 18.513333333333335 116.11579929054324, 18.846666666666668 116.26113262387656, 19.084 116.51179929054322 C 19.321333333333335 116.7624659572099, 19.445333333333334 117.10779929054323, 19.456 117.54779929054322 C 19.46666666666667 117.8624659572099, 19.474666666666668 118.17246595720991, 19.48 118.47779929054323 C 19.485333333333333 118.78313262387655, 19.488 119.08379929054323, 19.488 119.37979929054323 C 19.488 119.67579929054324, 19.485333333333333 119.96913262387656, 19.48 120.25979929054323 C 19.474666666666668 120.5504659572099, 19.46666666666667 120.83979929054323, 19.456 121.12779929054322 C 19.439999999999998 121.57846595720989, 19.311999999999998 121.92713262387656, 19.072 122.17379929054323 C 18.832 122.4204659572099, 18.502666666666666 122.56379929054324, 18.084 122.60379929054322 Z M 21.944 122.53979929054323 L 21.944 116.13979929054322 L 23.003999999999998 116.13979929054322 L 23.003999999999998 122.53979929054323 Z " stroke="none" fill-rule="nonzero" fill="#000000" fill-opacity="1" transform="matrix(1,0,0,1,5.05,13.314)" id="text20 l" />
  <path d="M 0 111.15581936148891 L 10 111.15581936148891 L 10 112.65581936148891 L 0 112.65581936148891 Z " stroke="none" fill-rule="evenodd" fill="#000000" fill-opacity="1" transform="matrix(1,0,0,1,5.05,13.314)" id="mark21 l" />
  <path d="M 0 98.72183943243459 L 10 98.72183943243459 L 10 100.22183943243459 L 0 100.22183943243459 Z " stroke="none" fill-rule="evenodd" fill="#000000" fill-opacity="1" transform="matrix(1,0,0,1,5.05,13.314)" id="mark22 l" />
  <path d="M 0 86.28785950338028 L 10 86.28785950338028 L 10 87.78785950338028 L 0 87.78785950338028 Z " stroke="none" fill-rule="evenodd" fill="#000000" fill-opacity="1" transform="matrix(1,0,0,1,5.05,13.314)" id="mark23 l" />
  <path d="M 0 73.8538795743259 L 10 73.8538795743259 L 10 75.3538795743259 L 0 75.3538795743259 Z " stroke="none" fill-rule="evenodd" fill="#000000" fill-opacity="1" transform="matrix(1,0,0,1,5.05,13.314)" id="mark24 l" />
  <path d="M 0 61.419899645271585 L 25 61.419899645271585 L 25 62.919899645271585 L 0 62.919899645271585 Z " stroke="none" fill-rule="evenodd" fill="#000000" fill-opacity="1" transform="matrix(1,0,0,1,5.05,13.314)" id="mark25 l" />
  <path d="M 12.328 60.36989964527159 C 12.325333333333333 60.271232978604914, 12.323333333333332 60.18256631193825, 12.322 60.10389964527159 C 12.320666666666666 60.02523297860492, 12.319333333333333 59.95123297860492, 12.318 59.88189964527159 C 12.316666666666666 59.812566311938255, 12.315999999999999 59.74056631193825, 12.316 59.66589964527159 C 12.315999999999999 59.59123297860492, 12.315999999999999 59.50656631193826, 12.316 59.41189964527159 C 12.315999999999999 59.31723297860492, 12.317333333333334 59.205899645271586, 12.32 59.077899645271586 C 12.328 58.78456631193825, 12.378 58.52256631193825, 12.47 58.291899645271585 C 12.562000000000001 58.06123297860492, 12.696 57.85523297860492, 12.872 57.67389964527159 C 13.048 57.49256631193825, 13.265333333333334 57.331232978604916, 13.524000000000001 57.18989964527159 L 14.056000000000001 56.901899645271584 C 14.242666666666668 56.800566311938255, 14.362000000000002 56.678566311938255, 14.414 56.535899645271584 C 14.466000000000001 56.393232978604914, 14.495999999999999 56.25923297860491, 14.504 56.13389964527159 C 14.514666666666667 55.98723297860492, 14.520666666666667 55.830566311938256, 14.522 55.663899645271584 C 14.523333333333333 55.49723297860491, 14.520000000000001 55.34056631193825, 14.512 55.193899645271586 C 14.506666666666666 55.089899645271586, 14.476666666666667 55.00389964527159, 14.422 54.93589964527159 C 14.367333333333335 54.86789964527159, 14.288 54.819232978604916, 14.184000000000001 54.78989964527159 L 14.184000000000001 53.901899645271584 C 14.672 53.93389964527158, 15.022000000000002 54.06523297860492, 15.234 54.29589964527159 C 15.446000000000002 54.526566311938254, 15.562666666666667 54.88723297860492, 15.584 55.37789964527159 C 15.586666666666668 55.44189964527159, 15.588666666666668 55.50723297860492, 15.59 55.57389964527159 C 15.591333333333335 55.64056631193826, 15.592000000000002 55.705232978604926, 15.592 55.767899645271584 C 15.592000000000002 55.830566311938256, 15.591333333333335 55.89256631193825, 15.59 55.95389964527159 C 15.588666666666668 56.01523297860492, 15.586666666666668 56.075232978604916, 15.584 56.13389964527159 C 15.573333333333332 56.419232978604924, 15.52 56.66589964527159, 15.424 56.873899645271585 C 15.328 57.08189964527159, 15.197999999999999 57.26189964527159, 15.033999999999999 57.413899645271584 C 14.87 57.565899645271585, 14.68 57.70189964527158, 14.464 57.821899645271586 L 13.86 58.14989964527159 C 13.745333333333335 58.21123297860492, 13.655333333333335 58.295232978604915, 13.59 58.401899645271584 C 13.524666666666668 58.50856631193825, 13.478000000000002 58.62189964527159, 13.45 58.74189964527159 C 13.422 58.861899645271585, 13.408 58.97389964527159, 13.408 59.077899645271586 L 13.408 60.36989964527159 Z M 12.336 56.32989964527159 C 12.330666666666666 56.21256631193826, 12.326666666666664 56.09789964527159, 12.324 55.98589964527159 C 12.321333333333332 55.873899645271585, 12.319333333333333 55.767899645271584, 12.318 55.66789964527159 C 12.316666666666666 55.56789964527158, 12.317333333333334 55.47123297860492, 12.32 55.37789964527159 C 12.338666666666668 54.88989964527158, 12.455333333333336 54.530566311938244, 12.67 54.29989964527159 C 12.884666666666668 54.069232978604916, 13.221333333333334 53.93656631193825, 13.68 53.901899645271584 L 13.68 54.79389964527159 C 13.584 54.82323297860492, 13.513333333333332 54.86989964527159, 13.468 54.93389964527159 C 13.422666666666668 54.99789964527159, 13.398666666666667 55.075232978604916, 13.396 55.16589964527159 C 13.390666666666666 55.373899645271585, 13.387333333333332 55.56723297860492, 13.386 55.745899645271585 C 13.384666666666666 55.92456631193825, 13.389333333333333 56.11923297860493, 13.4 56.32989964527159 Z M 13.911999999999999 60.36989964527159 L 13.911999999999999 59.437899645271585 L 15.508 59.437899645271585 L 15.508 60.36989964527159 Z M 16.18 58.95389964527159 C 16.174666666666667 58.78056631193825, 16.173333333333332 58.64123297860492, 16.176 58.535899645271584 C 16.178666666666665 58.43056631193825, 16.181333333333335 58.32856631193826, 16.183999999999997 58.22989964527159 L 17.264 58.22989964527159 C 17.256 58.307232978604915, 17.25 58.40323297860492, 17.246 58.51789964527159 C 17.241999999999997 58.632566311938255, 17.240666666666666 58.74323297860492, 17.241999999999997 58.849899645271584 C 17.243333333333332 58.956566311938246, 17.246666666666666 59.03656631193825, 17.252 59.089899645271586 C 17.262666666666668 59.209899645271584, 17.297333333333334 59.30789964527159, 17.355999999999998 59.38389964527159 C 17.414666666666665 59.45989964527159, 17.497333333333334 59.513899645271586, 17.604 59.54589964527159 L 17.604 60.437899645271585 C 17.110666666666663 60.40056631193825, 16.75333333333333 60.26589964527159, 16.532 60.03389964527159 C 16.310666666666666 59.80189964527159, 16.19333333333333 59.44189964527159, 16.18 58.95389964527159 Z M 16.279999999999998 57.617899645271585 L 16.279999999999998 53.96989964527159 L 17.348 53.96989964527159 L 17.348 57.617899645271585 Z M 17.852 57.193899645271586 L 17.852 56.437899645271585 C 17.929333333333332 56.397899645271586, 18.014666666666667 56.36589964527158, 18.107999999999997 56.34189964527159 C 18.20133333333333 56.31789964527158, 18.301333333333332 56.30589964527158, 18.407999999999998 56.30589964527159 C 18.773333333333333 56.30589964527158, 19.047333333333334 56.42123297860492, 19.23 56.651899645271584 C 19.412666666666667 56.88256631193825, 19.514666666666663 57.196566311938255, 19.535999999999998 57.59389964527159 C 19.546666666666667 57.75389964527159, 19.55333333333333 57.91256631193825, 19.555999999999997 58.06989964527159 C 19.558666666666664 58.22723297860492, 19.557333333333332 58.38056631193825, 19.552 58.529899645271584 C 19.546666666666667 58.67923297860492, 19.538666666666668 58.81923297860492, 19.528 58.949899645271586 C 19.482666666666667 59.44856631193826, 19.353333333333335 59.81389964527159, 19.14 60.04589964527159 C 18.926666666666666 60.27789964527159, 18.581333333333333 60.40856631193826, 18.104 60.437899645271585 L 18.104 59.54589964527159 C 18.21333333333333 59.516566311938256, 18.296 59.46389964527159, 18.352 59.38789964527159 C 18.408 59.31189964527159, 18.44 59.212566311938254, 18.448 59.089899645271586 C 18.471999999999998 58.79923297860492, 18.485999999999997 58.53789964527159, 18.49 58.30589964527159 C 18.494 58.07389964527159, 18.485333333333333 57.852566311938254, 18.464 57.641899645271586 C 18.447999999999997 57.48723297860492, 18.396666666666665 57.37189964527159, 18.31 57.29589964527159 C 18.223333333333333 57.21989964527159, 18.090666666666664 57.181899645271585, 17.912 57.181899645271585 C 17.901333333333334 57.181899645271585, 17.890666666666668 57.18323297860492, 17.88 57.18589964527159 C 17.86933333333333 57.18856631193826, 17.86 57.191232978604916, 17.852 57.193899645271586 Z M 17.852 54.901899645271584 L 17.852 53.96989964527159 L 19.439999999999998 53.96989964527159 L 19.439999999999998 54.901899645271584 Z M 21.944 60.36989964527159 L 21.944 53.96989964527159 L 23.003999999999998 53.96989964527159 L 23.003999999999998 60.36989964527159 Z " stroke="none" fill-rule="nonzero" fill="#000000" fill-opacity="1" transform="matrix(1,0,0,1,5.05,13.314)" id="text25 l" />
  <path d="M 0 48.98591971621727 L 10 48.98591971621727 L 10 50.48591971621727 L 0 50.48591971621727 Z " stroke="none" fill-rule="evenodd" fill="#000000" fill-opacity="1" transform="matrix(1,0,0,1,5.05,13.314)" id="mark26 l" />
  <path d="M 0 36.55193978716295 L 10 36.55193978716295 L 10 38.05193978716295 L 0 38.05193978716295 Z " stroke="none" fill-rule="evenodd" fill="#000000" fill-opacity="1" transform="matrix(1,0,0,1,5.05,13.314)" id="mark27 l" />
  <path d="M 0 24.117959858108634 L 10 24.117959858108634 L 10 25.617959858108634 L 0 25.617959858108634 Z " stroke="none" fill-rule="evenodd" fill="#000000" fill-opacity="1" transform="matrix(1,0,0,1,5.05,13.314)" id="mark28 l" />
  <path d="M 0 11.683979929054317 L 10 11.683979929054317 L 10 13.183979929054317 L 0 13.183979929054317 Z " stroke="none" fill-rule="evenodd" fill="#000000" fill-opacity="1" transform="matrix(1,0,0,1,5.05,13.314)" id="mark29 l" />
  <path d="M 0 -0.75 L 25 -0.75 L 25 0.75 L 0 0.75 Z " stroke="none" fill-rule="evenodd" fill="#000000" fill-opacity="1" transform="matrix(1,0,0,1,5.05,13.314)" id="mark30 l" />
  <path d="M 12.223999999999998 -3.2159999999999997 C 12.221333333333334 -3.317333333333333, 12.219333333333333 -3.4013333333333335, 12.218 -3.468 C 12.216666666666667 -3.5346666666666664, 12.216666666666667 -3.602666666666666, 12.218 -3.6719999999999997 C 12.219333333333333 -3.7413333333333334, 12.221333333333334 -3.8306666666666667, 12.223999999999998 -3.94 L 13.303999999999998 -3.94 L 13.303999999999998 -3.0759999999999996 C 13.303999999999998 -2.8386666666666667, 13.417333333333332 -2.6879999999999997, 13.643999999999998 -2.6239999999999997 L 13.643999999999998 -1.7319999999999998 C 13.155999999999999 -1.7693333333333332, 12.800666666666665 -1.904, 12.578 -2.1359999999999997 C 12.355333333333334 -2.368, 12.237333333333332 -2.7279999999999998, 12.223999999999998 -3.2159999999999997 Z M 12.292 -7.268 L 12.292 -8.2 L 15.536 -8.2 L 15.536 -7.268 Z M 14.143999999999998 -2.6199999999999997 C 14.367999999999999 -2.6759999999999997, 14.483999999999998 -2.826666666666666, 14.491999999999999 -3.072 C 14.497333333333334 -3.2746666666666666, 14.500666666666666 -3.4573333333333336, 14.501999999999999 -3.62 C 14.503333333333332 -3.7826666666666666, 14.498666666666665 -3.94, 14.488 -4.092 C 14.48 -4.2493333333333325, 14.431999999999999 -4.382666666666666, 14.344 -4.492 C 14.256 -4.601333333333333, 14.089333333333332 -4.653333333333332, 13.844 -4.648 L 13.096 -4.64 L 13.068 -5.532 L 14.027999999999999 -6.9159999999999995 L 15.216 -6.9159999999999995 L 14.248 -5.564 L 14.28 -5.564 C 14.712 -5.564, 15.028666666666666 -5.441333333333334, 15.229999999999999 -5.196 C 15.431333333333333 -4.950666666666666, 15.544 -4.573333333333332, 15.568 -4.064 C 15.57333333333333 -3.992, 15.576666666666664 -3.92, 15.578 -3.848 C 15.57933333333333 -3.776, 15.579999999999998 -3.705333333333333, 15.579999999999998 -3.6359999999999997 C 15.579999999999998 -3.5666666666666664, 15.57933333333333 -3.4973333333333336, 15.578 -3.428 C 15.576666666666664 -3.3586666666666662, 15.57333333333333 -3.2879999999999994, 15.568 -3.2159999999999997 C 15.549333333333333 -2.7199999999999998, 15.428666666666665 -2.3553333333333333, 15.206 -2.122 C 14.983333333333334 -1.8886666666666665, 14.630666666666666 -1.7586666666666664, 14.148 -1.7319999999999998 Z M 16.196 -3.2119999999999997 C 16.188000000000002 -3.641333333333333, 16.182666666666666 -4.058, 16.18 -4.462 C 16.177333333333333 -4.866, 16.177999999999997 -5.261333333333333, 16.182 -5.648 C 16.186 -6.034666666666666, 16.190666666666665 -6.416, 16.196 -6.792 C 16.209333333333333 -7.231999999999999, 16.334000000000003 -7.577333333333334, 16.57 -7.828 C 16.805999999999997 -8.078666666666667, 17.142666666666663 -8.224, 17.58 -8.264 L 17.58 -7.3759999999999994 C 17.382666666666665 -7.32, 17.281333333333333 -7.190666666666667, 17.276 -6.9879999999999995 C 17.262666666666668 -6.617333333333333, 17.253333333333334 -6.269333333333333, 17.248 -5.944 C 17.242666666666665 -5.618666666666666, 17.24 -5.302, 17.24 -4.994 C 17.24 -4.686, 17.242666666666665 -4.371333333333333, 17.248 -4.05 C 17.253333333333334 -3.7286666666666664, 17.262666666666668 -3.3853333333333326, 17.276 -3.0199999999999996 C 17.281333333333333 -2.812, 17.382666666666665 -2.6799999999999997, 17.58 -2.6239999999999997 L 17.58 -1.7359999999999998 C 17.142666666666663 -1.7759999999999998, 16.805999999999997 -1.9219999999999997, 16.57 -2.174 C 16.334000000000003 -2.4259999999999997, 16.209333333333333 -2.772, 16.196 -3.2119999999999997 Z M 18.084 -1.7359999999999998 L 18.084 -2.6279999999999997 C 18.268 -2.681333333333333, 18.366666666666667 -2.8053333333333335, 18.38 -3 C 18.398666666666667 -3.4666666666666663, 18.410666666666668 -3.915333333333333, 18.416 -4.346 C 18.421333333333333 -4.776666666666666, 18.421333333333333 -5.207333333333333, 18.416 -5.638 C 18.410666666666668 -6.068666666666666, 18.398666666666667 -6.521333333333333, 18.38 -6.9959999999999996 C 18.374666666666666 -7.190666666666667, 18.276 -7.317333333333334, 18.084 -7.3759999999999994 L 18.084 -8.264 C 18.513333333333335 -8.224, 18.846666666666668 -8.078666666666667, 19.084 -7.828 C 19.321333333333335 -7.577333333333334, 19.445333333333334 -7.231999999999999, 19.456 -6.792 C 19.46666666666667 -6.477333333333332, 19.474666666666668 -6.167333333333333, 19.48 -5.861999999999999 C 19.485333333333333 -5.556666666666667, 19.488 -5.256, 19.488 -4.96 C 19.488 -4.664, 19.485333333333333 -4.370666666666667, 19.48 -4.08 C 19.474666666666668 -3.7893333333333334, 19.46666666666667 -3.5, 19.456 -3.2119999999999997 C 19.439999999999998 -2.761333333333333, 19.311999999999998 -2.4126666666666665, 19.072 -2.166 C 18.832 -1.9193333333333331, 18.502666666666666 -1.7759999999999998, 18.084 -1.7359999999999998 Z M 21.944 -1.7999999999999998 L 21.944 -8.2 L 23.003999999999998 -8.2 L 23.003999999999998 -1.7999999999999998 Z " stroke="none" fill-rule="nonzero" fill="#000000" fill-opacity="1" transform="matrix(1,0,0,1,5.05,13.314)" id="text30 l" />
  <path d="M -5 -13.264 L 30 -13.264 L 30 367.35341794257533 L -5 367.35341794257533 Z " stroke="#FF0000" stroke-opacity="1" stroke-width="0.1" stroke-linecap="butt" stroke-linejoin="miter" fill="none" transform="matrix(1,0,0,1,5.05,13.314)" />
</svg>