<?xml version="1.0" encoding="UTF-8"?>
<svg xmlns:xlink="http://www.w3.org/1999/xlink" viewBox="0 0 35.1 305.0389968928991" version="1.1" style="font-synthesis: none;" width="35.1mm" height="305.0389968928991mm" xmlns="http://www.w3.org/2000/svg">
  <defs />
  <style>	</style>
  <path d="M 0 0 L 35.1 0 L 35.1 305.0389968928991 L 0 305.0389968928991 Z " stroke="none" fill-rule="nonzero" fill="#FFFFFF" fill-opacity="1" transform="matrix(1,0,0,1,0,0)" />
  <path d="M 0 284.1569968928991 L 10 284.1569968928991 L 10 285.6569968928991 L 0 285.6569968928991 Z " stroke="none" fill-rule="evenodd" fill="#000000" fill-opacity="1" transform="matrix(1,0,0,1,5.05,13.314)" id="mark1 l" />
  <path d="M 0 274.33261768969567 L 10 274.33261768969567 L 10 275.83261768969567 L 0 275.83261768969567 Z " stroke="none" fill-rule="evenodd" fill="#000000" fill-opacity="1" transform="matrix(1,0,0,1,5.05,13.314)" id="mark2 l" />
  <path d="M 0 264.50823848649225 L 10 264.50823848649225 L 10 266.00823848649225 L 0 266.00823848649225 Z " stroke="none" fill-rule="evenodd" fill="#000000" fill-opacity="1" transform="matrix(1,0,0,1,5.05,13.314)" id="mark3 l" />
  <path d="M 0 254.68385928328883 L 10 254.68385928328883 L 10 256.1838592832888 L 0 256.1838592832888 Z " stroke="none" fill-rule="evenodd" fill="#000000" fill-opacity="1" transform="matrix(1,0,0,1,5.05,13.314)" id="mark4 l" />
  <path d="M 0 244.85948008008543 L 25 244.85948008008543 L 25 246.35948008008543 L 0 246.35948008008543 Z " stroke="none" fill-rule="evenodd" fill="#000000" fill-opacity="1" transform="matrix(1,0,0,1,5.05,13.314)" id="mark5 l" />
  <path d="M 16.18 242.36148008008544 C 16.174666666666667 242.18814674675212, 16.173333333333332 242.04881341341877, 16.176 241.94348008008544 C 16.178666666666665 241.8381467467521, 16.181333333333335 241.73614674675213, 16.183999999999997 241.63748008008545 L 17.264 241.63748008008545 C 17.256 241.71481341341877, 17.25 241.81081341341877, 17.246 241.92548008008544 C 17.241999999999997 242.0401467467521, 17.240666666666666 242.15081341341875, 17.241999999999997 242.25748008008543 C 17.243333333333332 242.3641467467521, 17.246666666666666 242.4441467467521, 17.252 242.49748008008544 C 17.262666666666668 242.61748008008544, 17.297333333333334 242.71548008008546, 17.355999999999998 242.79148008008545 C 17.414666666666665 242.86748008008544, 17.497333333333334 242.92148008008542, 17.604 242.95348008008543 L 17.604 243.84548008008545 C 17.110666666666663 243.80814674675213, 16.75333333333333 243.67348008008543, 16.532 243.44148008008543 C 16.310666666666666 243.20948008008543, 16.19333333333333 242.84948008008544, 16.18 242.36148008008544 Z M 16.279999999999998 241.02548008008543 L 16.279999999999998 237.37748008008543 L 17.348 237.37748008008543 L 17.348 241.02548008008543 Z M 17.852 240.60148008008545 L 17.852 239.84548008008545 C 17.929333333333332 239.80548008008543, 18.014666666666667 239.77348008008545, 18.107999999999997 239.74948008008545 C 18.20133333333333 239.72548008008545, 18.301333333333332 239.71348008008545, 18.407999999999998 239.71348008008545 C 18.773333333333333 239.71348008008545, 19.047333333333334 239.8288134134188, 19.23 240.05948008008545 C 19.412666666666667 240.2901467467521, 19.514666666666663 240.60414674675212, 19.535999999999998 241.00148008008543 C 19.546666666666667 241.16148008008543, 19.55333333333333 241.3201467467521, 19.555999999999997 241.47748008008543 C 19.558666666666664 241.63481341341878, 19.557333333333332 241.78814674675212, 19.552 241.93748008008544 C 19.546666666666667 242.08681341341875, 19.538666666666668 242.22681341341877, 19.528 242.35748008008545 C 19.482666666666667 242.85614674675213, 19.353333333333335 243.22148008008543, 19.14 243.45348008008543 C 18.926666666666666 243.68548008008543, 18.581333333333333 243.8161467467521, 18.104 243.84548008008545 L 18.104 242.95348008008543 C 18.21333333333333 242.92414674675211, 18.296 242.87148008008543, 18.352 242.79548008008544 C 18.408 242.71948008008545, 18.44 242.6201467467521, 18.448 242.49748008008544 C 18.471999999999998 242.20681341341876, 18.485999999999997 241.94548008008542, 18.49 241.71348008008545 C 18.494 241.48148008008542, 18.485333333333333 241.26014674675207, 18.464 241.04948008008543 C 18.447999999999997 240.89481341341877, 18.396666666666665 240.77948008008542, 18.31 240.70348008008543 C 18.223333333333333 240.62748008008543, 18.090666666666664 240.58948008008545, 17.912 240.58948008008545 C 17.901333333333334 240.58948008008545, 17.890666666666668 240.5908134134188, 17.88 240.59348008008544 C 17.86933333333333 240.59614674675208, 17.86 240.59881341341878, 17.852 240.60148008008545 Z M 17.852 238.30948008008545 L 17.852 237.37748008008543 L 19.439999999999998 237.37748008008543 L 19.439999999999998 238.30948008008545 Z M 21.944 243.77748008008544 L 21.944 237.37748008008543 L 23.003999999999998 237.37748008008543 L 23.003999999999998 243.77748008008544 Z " stroke="none" fill-rule="nonzero" fill="#000000" fill-opacity="1" transform="matrix(1,0,0,1,5.05,13.314)" id="text5 l" />
  <path d="M 0 235.035100876882 L 10 235.035100876882 L 10 236.535100876882 L 0 236.535100876882 Z " stroke="none" fill-rule="evenodd" fill="#000000" fill-opacity="1" transform="matrix(1,0,0,1,5.05,13.314)" id="mark6 l" />
  <path d="M 0 225.2107216736786 L 10 225.2107216736786 L 10 226.7107216736786 L 0 226.7107216736786 Z " stroke="none" fill-rule="evenodd" fill="#000000" fill-opacity="1" transform="matrix(1,0,0,1,5.05,13.314)" id="mark7 l" />
  <path d="M 0 215.38634247047517 L 10 215.38634247047517 L 10 216.88634247047517 L 0 216.88634247047517 Z " stroke="none" fill-rule="evenodd" fill="#000000" fill-opacity="1" transform="matrix(1,0,0,1,5.05,13.314)" id="mark8 l" />
  <path d="M 0 205.56196326727178 L 10 205.56196326727178 L 10 207.06196326727178 L 0 207.06196326727178 Z " stroke="none" fill-rule="evenodd" fill="#000000" fill-opacity="1" transform="matrix(1,0,0,1,5.05,13.314)" id="mark9 l" />
  <path d="M 0 195.73758406406836 L 25 195.73758406406836 L 25 197.23758406406836 L 0 197.23758406406836 Z " stroke="none" fill-rule="evenodd" fill="#000000" fill-opacity="1" transform="matrix(1,0,0,1,5.05,13.314)" id="mark10 l" />
  <path d="M 14.323999999999998 194.68758406406837 L 14.323999999999998 189.2435840640684 L 13.871999999999998 189.2435840640684 L 13.839999999999998 188.86358406406836 L 14.543999999999999 188.28758406406837 L 15.424 188.28758406406837 L 15.424 194.68758406406837 Z M 16.196 193.27558406406837 C 16.188000000000002 192.84625073073505, 16.182666666666666 192.42958406406837, 16.18 192.02558406406837 C 16.177333333333333 191.62158406406837, 16.177999999999997 191.22625073073505, 16.182 190.83958406406836 C 16.186 190.4529173974017, 16.190666666666665 190.0715840640684, 16.196 189.69558406406838 C 16.209333333333333 189.2555840640684, 16.334000000000003 188.91025073073507, 16.57 188.65958406406838 C 16.805999999999997 188.4089173974017, 17.142666666666663 188.26358406406837, 17.58 188.22358406406838 L 17.58 189.11158406406838 C 17.382666666666665 189.16758406406836, 17.281333333333333 189.29691739740173, 17.276 189.4995840640684 C 17.262666666666668 189.87025073073505, 17.253333333333334 190.21825073073504, 17.248 190.54358406406837 C 17.242666666666665 190.8689173974017, 17.24 191.18558406406837, 17.24 191.4935840640684 C 17.24 191.80158406406838, 17.242666666666665 192.11625073073503, 17.248 192.43758406406837 C 17.253333333333334 192.75891739740172, 17.262666666666668 193.10225073073505, 17.276 193.46758406406838 C 17.281333333333333 193.67558406406837, 17.382666666666665 193.80758406406835, 17.58 193.86358406406836 L 17.58 194.75158406406837 C 17.142666666666663 194.71158406406838, 16.805999999999997 194.5655840640684, 16.57 194.31358406406838 C 16.334000000000003 194.06158406406837, 16.209333333333333 193.71558406406837, 16.196 193.27558406406837 Z M 18.084 194.75158406406837 L 18.084 193.85958406406837 C 18.268 193.80625073073503, 18.366666666666667 193.68225073073506, 18.38 193.4875840640684 C 18.398666666666667 193.02091739740172, 18.410666666666668 192.57225073073505, 18.416 192.14158406406838 C 18.421333333333333 191.71091739740172, 18.421333333333333 191.28025073073505, 18.416 190.84958406406838 C 18.410666666666668 190.4189173974017, 18.398666666666667 189.96625073073506, 18.38 189.49158406406838 C 18.374666666666666 189.29691739740173, 18.276 189.17025073073506, 18.084 189.11158406406838 L 18.084 188.22358406406838 C 18.513333333333335 188.26358406406837, 18.846666666666668 188.4089173974017, 19.084 188.65958406406838 C 19.321333333333335 188.91025073073507, 19.445333333333334 189.2555840640684, 19.456 189.69558406406838 C 19.46666666666667 190.01025073073504, 19.474666666666668 190.32025073073504, 19.48 190.62558406406836 C 19.485333333333333 190.93091739740169, 19.488 191.23158406406836, 19.488 191.52758406406838 C 19.488 191.82358406406837, 19.485333333333333 192.1169173974017, 19.48 192.40758406406837 C 19.474666666666668 192.69825073073503, 19.46666666666667 192.98758406406836, 19.456 193.27558406406837 C 19.439999999999998 193.72625073073505, 19.311999999999998 194.0749173974017, 19.072 194.32158406406836 C 18.832 194.56825073073503, 18.502666666666666 194.71158406406838, 18.084 194.75158406406837 Z M 21.944 194.68758406406837 L 21.944 188.28758406406837 L 23.003999999999998 188.28758406406837 L 23.003999999999998 194.68758406406837 Z " stroke="none" fill-rule="nonzero" fill="#000000" fill-opacity="1" transform="matrix(1,0,0,1,5.05,13.314)" id="text10 l" />
  <path d="M 0 185.91320486086494 L 10 185.91320486086494 L 10 187.41320486086494 L 0 187.41320486086494 Z " stroke="none" fill-rule="evenodd" fill="#000000" fill-opacity="1" transform="matrix(1,0,0,1,5.05,13.314)" id="mark11 l" />
  <path d="M 0 176.08882565766152 L 10 176.08882565766152 L 10 177.58882565766152 L 0 177.58882565766152 Z " stroke="none" fill-rule="evenodd" fill="#000000" fill-opacity="1" transform="matrix(1,0,0,1,5.05,13.314)" id="mark12 l" />
  <path d="M 0 166.2644464544581 L 10 166.2644464544581 L 10 167.7644464544581 L 0 167.7644464544581 Z " stroke="none" fill-rule="evenodd" fill="#000000" fill-opacity="1" transform="matrix(1,0,0,1,5.05,13.314)" id="mark13 l" />
  <path d="M 0 156.44006725125467 L 10 156.44006725125467 L 10 157.94006725125467 L 0 157.94006725125467 Z " stroke="none" fill-rule="evenodd" fill="#000000" fill-opacity="1" transform="matrix(1,0,0,1,5.05,13.314)" id="mark14 l" />
  <path d="M 0 146.61568804805125 L 25 146.61568804805125 L 25 148.11568804805125 L 0 148.11568804805125 Z " stroke="none" fill-rule="evenodd" fill="#000000" fill-opacity="1" transform="matrix(1,0,0,1,5.05,13.314)" id="mark15 l" />
  <path d="M 14.331999999999999 145.53368804805126 L 14.331999999999999 140.08968804805127 L 13.879999999999999 140.08968804805127 L 13.847999999999999 139.70968804805125 L 14.552 139.13368804805125 L 15.432 139.13368804805125 L 15.432 145.53368804805126 Z M 16.18 144.11768804805126 C 16.174666666666667 143.94435471471792, 16.173333333333332 143.8050213813846, 16.176 143.69968804805126 C 16.178666666666665 143.59435471471792, 16.181333333333335 143.49235471471792, 16.183999999999997 143.39368804805127 L 17.264 143.39368804805127 C 17.256 143.47102138138462, 17.25 143.5670213813846, 17.246 143.68168804805126 C 17.241999999999997 143.79635471471792, 17.240666666666666 143.9070213813846, 17.241999999999997 144.01368804805125 C 17.243333333333332 144.1203547147179, 17.246666666666666 144.20035471471792, 17.252 144.25368804805126 C 17.262666666666668 144.37368804805126, 17.297333333333334 144.47168804805128, 17.355999999999998 144.54768804805127 C 17.414666666666665 144.62368804805126, 17.497333333333334 144.67768804805124, 17.604 144.70968804805125 L 17.604 145.60168804805127 C 17.110666666666663 145.56435471471792, 16.75333333333333 145.42968804805125, 16.532 145.19768804805125 C 16.310666666666666 144.96568804805125, 16.19333333333333 144.60568804805126, 16.18 144.11768804805126 Z M 16.279999999999998 142.78168804805125 L 16.279999999999998 139.13368804805125 L 17.348 139.13368804805125 L 17.348 142.78168804805125 Z M 17.852 142.35768804805127 L 17.852 141.60168804805127 C 17.929333333333332 141.56168804805128, 18.014666666666667 141.52968804805127, 18.107999999999997 141.50568804805127 C 18.20133333333333 141.48168804805127, 18.301333333333332 141.46968804805127, 18.407999999999998 141.46968804805127 C 18.773333333333333 141.46968804805127, 19.047333333333334 141.5850213813846, 19.23 141.81568804805127 C 19.412666666666667 142.04635471471792, 19.514666666666663 142.36035471471791, 19.535999999999998 142.75768804805125 C 19.546666666666667 142.91768804805125, 19.55333333333333 143.07635471471792, 19.555999999999997 143.23368804805125 C 19.558666666666664 143.39102138138458, 19.557333333333332 143.54435471471794, 19.552 143.69368804805126 C 19.546666666666667 143.84302138138457, 19.538666666666668 143.9830213813846, 19.528 144.11368804805127 C 19.482666666666667 144.61235471471792, 19.353333333333335 144.97768804805125, 19.14 145.20968804805125 C 18.926666666666666 145.44168804805125, 18.581333333333333 145.57235471471793, 18.104 145.60168804805127 L 18.104 144.70968804805125 C 18.21333333333333 144.68035471471794, 18.296 144.62768804805125, 18.352 144.55168804805126 C 18.408 144.47568804805127, 18.44 144.37635471471793, 18.448 144.25368804805126 C 18.471999999999998 143.96302138138458, 18.485999999999997 143.70168804805127, 18.49 143.46968804805127 C 18.494 143.23768804805127, 18.485333333333333 143.01635471471792, 18.464 142.80568804805125 C 18.447999999999997 142.6510213813846, 18.396666666666665 142.53568804805124, 18.31 142.45968804805125 C 18.223333333333333 142.38368804805125, 18.090666666666664 142.34568804805127, 17.912 142.34568804805127 C 17.901333333333334 142.34568804805127, 17.890666666666668 142.3470213813846, 17.88 142.34968804805126 C 17.86933333333333 142.35235471471793, 17.86 142.3550213813846, 17.852 142.35768804805127 Z M 17.852 140.06568804805127 L 17.852 139.13368804805125 L 19.439999999999998 139.13368804805125 L 19.439999999999998 140.06568804805127 Z M 21.944 145.53368804805126 L 21.944 139.13368804805125 L 23.003999999999998 139.13368804805125 L 23.003999999999998 145.53368804805126 Z " stroke="none" fill-rule="nonzero" fill="#000000" fill-opacity="1" transform="matrix(1,0,0,1,5.05,13.314)" id="text15 l" />
  <path d="M 0 136.79130884484783 L 10 136.79130884484783 L 10 138.29130884484783 L 0 138.29130884484783 Z " stroke="none" fill-rule="evenodd" fill="#000000" fill-opacity="1" transform="matrix(1,0,0,1,5.05,13.314)" id="mark16 l" />
  <path d="M 0 126.96692964164441 L 10 126.96692964164441 L 10 128.4669296416444 L 0 128.4669296416444 Z " stroke="none" fill-rule="evenodd" fill="#000000" fill-opacity="1" transform="matrix(1,0,0,1,5.05,13.314)" id="mark17 l" />
  <path d="M 0 117.14255043844102 L 10 117.14255043844102 L 10 118.64255043844102 L 0 118.64255043844102 Z " stroke="none" fill-rule="evenodd" fill="#000000" fill-opacity="1" transform="matrix(1,0,0,1,5.05,13.314)" id="mark18 l" />
  <path d="M 0 107.3181712352376 L 10 107.3181712352376 L 10 108.8181712352376 L 0 108.8181712352376 Z " stroke="none" fill-rule="evenodd" fill="#000000" fill-opacity="1" transform="matrix(1,0,0,1,5.05,13.314)" id="mark19 l" />
  <path d="M 0 97.49379203203418 L 25 97.49379203203418 L 25 98.99379203203418 L 0 98.99379203203418 Z " stroke="none" fill-rule="evenodd" fill="#000000" fill-opacity="1" transform="matrix(1,0,0,1,5.05,13.314)" id="mark20 l" />
  <path d="M 12.319999999999999 96.44379203203418 C 12.317333333333334 96.34512536536752, 12.315333333333331 96.25645869870084, 12.313999999999998 96.17779203203418 C 12.312666666666665 96.09912536536751, 12.311333333333334 96.02512536536751, 12.309999999999999 95.95579203203418 C 12.308666666666667 95.88645869870085, 12.308 95.81445869870086, 12.308 95.73979203203419 C 12.308 95.66512536536752, 12.308 95.58045869870085, 12.308 95.48579203203418 C 12.308 95.39112536536751, 12.309333333333335 95.27979203203418, 12.312 95.15179203203418 C 12.32 94.85845869870084, 12.37 94.59645869870084, 12.462 94.36579203203418 C 12.554 94.13512536536751, 12.687999999999999 93.92912536536751, 12.863999999999999 93.74779203203418 C 13.04 93.56645869870084, 13.257333333333333 93.40512536536751, 13.515999999999998 93.26379203203417 L 14.047999999999998 92.97579203203418 C 14.234666666666666 92.87445869870083, 14.354 92.75245869870085, 14.405999999999999 92.60979203203418 C 14.457999999999998 92.46712536536751, 14.488 92.33312536536752, 14.495999999999999 92.20779203203418 C 14.506666666666664 92.0611253653675, 14.512666666666664 91.90445869870084, 14.514 91.73779203203418 C 14.51533333333333 91.57112536536752, 14.511999999999997 91.41445869870086, 14.504 91.26779203203418 C 14.498666666666665 91.1637920320342, 14.468666666666666 91.07779203203418, 14.413999999999998 91.00979203203418 C 14.359333333333332 90.94179203203419, 14.279999999999998 90.89312536536751, 14.175999999999998 90.86379203203418 L 14.175999999999998 89.97579203203418 C 14.663999999999998 90.00779203203419, 15.014 90.13912536536752, 15.225999999999999 90.36979203203418 C 15.437999999999999 90.60045869870085, 15.554666666666666 90.96112536536752, 15.575999999999999 91.45179203203418 C 15.578666666666663 91.51579203203418, 15.580666666666666 91.58112536536751, 15.581999999999999 91.64779203203418 C 15.583333333333332 91.71445869870084, 15.584 91.77912536536752, 15.584 91.84179203203418 C 15.584 91.90445869870085, 15.583333333333332 91.96645869870085, 15.581999999999999 92.02779203203418 C 15.580666666666666 92.08912536536752, 15.578666666666663 92.14912536536752, 15.575999999999999 92.20779203203418 C 15.565333333333331 92.49312536536752, 15.512 92.73979203203419, 15.415999999999999 92.94779203203419 C 15.32 93.15579203203419, 15.19 93.33579203203418, 15.026 93.48779203203418 C 14.862 93.63979203203418, 14.672 93.77579203203419, 14.456 93.89579203203418 L 13.851999999999999 94.22379203203418 C 13.737333333333332 94.28512536536752, 13.647333333333332 94.36912536536752, 13.581999999999999 94.47579203203418 C 13.516666666666666 94.58245869870083, 13.469999999999999 94.69579203203418, 13.441999999999998 94.81579203203418 C 13.413999999999998 94.93579203203419, 13.399999999999999 95.04779203203418, 13.399999999999999 95.15179203203418 L 13.399999999999999 96.44379203203418 Z M 12.328 92.40379203203418 C 12.322666666666667 92.28645869870086, 12.318666666666665 92.17179203203419, 12.315999999999999 92.05979203203418 C 12.313333333333333 91.94779203203417, 12.311333333333334 91.84179203203418, 12.309999999999999 91.74179203203418 C 12.308666666666667 91.64179203203418, 12.309333333333335 91.54512536536751, 12.312 91.45179203203418 C 12.330666666666666 90.96379203203418, 12.447333333333333 90.60445869870085, 12.661999999999999 90.37379203203417 C 12.876666666666665 90.14312536536752, 13.213333333333331 90.01045869870086, 13.671999999999999 89.97579203203418 L 13.671999999999999 90.86779203203419 C 13.576 90.89712536536751, 13.505333333333333 90.94379203203418, 13.459999999999999 91.00779203203419 C 13.414666666666665 91.07179203203418, 13.390666666666664 91.14912536536752, 13.387999999999998 91.23979203203419 C 13.382666666666665 91.44779203203419, 13.379333333333333 91.64112536536751, 13.378 91.81979203203419 C 13.376666666666667 91.99845869870086, 13.381333333333334 92.19312536536752, 13.392 92.40379203203418 Z M 13.904 96.44379203203418 L 13.904 95.51179203203418 L 15.5 95.51179203203418 L 15.5 96.44379203203418 Z M 16.196 95.03179203203418 C 16.188000000000002 94.60245869870084, 16.182666666666666 94.18579203203419, 16.18 93.78179203203418 C 16.177333333333333 93.37779203203418, 16.177999999999997 92.98245869870084, 16.182 92.59579203203418 C 16.186 92.20912536536753, 16.190666666666665 91.82779203203418, 16.196 91.45179203203418 C 16.209333333333333 91.01179203203418, 16.334000000000003 90.66645869870085, 16.57 90.41579203203418 C 16.805999999999997 90.16512536536752, 17.142666666666663 90.01979203203419, 17.58 89.97979203203418 L 17.58 90.86779203203419 C 17.382666666666665 90.92379203203419, 17.281333333333333 91.0531253653675, 17.276 91.25579203203418 C 17.262666666666668 91.62645869870084, 17.253333333333334 91.97445869870084, 17.248 92.29979203203418 C 17.242666666666665 92.62512536536751, 17.24 92.94179203203417, 17.24 93.24979203203418 C 17.24 93.55779203203419, 17.242666666666665 93.87245869870085, 17.248 94.19379203203418 C 17.253333333333334 94.51512536536751, 17.262666666666668 94.85845869870084, 17.276 95.22379203203418 C 17.281333333333333 95.43179203203418, 17.382666666666665 95.56379203203419, 17.58 95.61979203203418 L 17.58 96.50779203203417 C 17.142666666666663 96.46779203203417, 16.805999999999997 96.32179203203418, 16.57 96.06979203203419 C 16.334000000000003 95.81779203203419, 16.209333333333333 95.47179203203419, 16.196 95.03179203203418 Z M 18.084 96.50779203203417 L 18.084 95.61579203203418 C 18.268 95.56245869870085, 18.366666666666667 95.43845869870086, 18.38 95.24379203203418 C 18.398666666666667 94.77712536536751, 18.410666666666668 94.32845869870084, 18.416 93.89779203203418 C 18.421333333333333 93.46712536536751, 18.421333333333333 93.03645869870086, 18.416 92.60579203203419 C 18.410666666666668 92.17512536536752, 18.398666666666667 91.72245869870085, 18.38 91.24779203203418 C 18.374666666666666 91.05312536536752, 18.276 90.92645869870086, 18.084 90.86779203203419 L 18.084 89.97979203203418 C 18.513333333333335 90.01979203203419, 18.846666666666668 90.16512536536752, 19.084 90.41579203203418 C 19.321333333333335 90.66645869870085, 19.445333333333334 91.01179203203418, 19.456 91.45179203203418 C 19.46666666666667 91.76645869870084, 19.474666666666668 92.07645869870085, 19.48 92.38179203203418 C 19.485333333333333 92.68712536536752, 19.488 92.98779203203418, 19.488 93.28379203203419 C 19.488 93.57979203203419, 19.485333333333333 93.87312536536751, 19.48 94.16379203203418 C 19.474666666666668 94.45445869870085, 19.46666666666667 94.74379203203418, 19.456 95.03179203203418 C 19.439999999999998 95.48245869870084, 19.311999999999998 95.83112536536751, 19.072 96.07779203203418 C 18.832 96.32445869870085, 18.502666666666666 96.46779203203417, 18.084 96.50779203203417 Z M 21.944 96.44379203203418 L 21.944 90.04379203203418 L 23.003999999999998 90.04379203203418 L 23.003999999999998 96.44379203203418 Z " stroke="none" fill-rule="nonzero" fill="#000000" fill-opacity="1" transform="matrix(1,0,0,1,5.05,13.314)" id="text20 l" />
  <path d="M 0 87.66941282883076 L 10 87.66941282883076 L 10 89.16941282883076 L 0 89.16941282883076 Z " stroke="none" fill-rule="evenodd" fill="#000000" fill-opacity="1" transform="matrix(1,0,0,1,5.05,13.314)" id="mark21 l" />
  <path d="M 0 77.84503362562734 L 10 77.84503362562734 L 10 79.34503362562734 L 0 79.34503362562734 Z " stroke="none" fill-rule="evenodd" fill="#000000" fill-opacity="1" transform="matrix(1,0,0,1,5.05,13.314)" id="mark22 l" />
  <path d="M 0 68.02065442242392 L 10 68.02065442242392 L 10 69.52065442242392 L 0 69.52065442242392 Z " stroke="none" fill-rule="evenodd" fill="#000000" fill-opacity="1" transform="matrix(1,0,0,1,5.05,13.314)" id="mark23 l" />
  <path d="M 0 58.196275219220496 L 10 58.196275219220496 L 10 59.696275219220496 L 0 59.696275219220496 Z " stroke="none" fill-rule="evenodd" fill="#000000" fill-opacity="1" transform="matrix(1,0,0,1,5.05,13.314)" id="mark24 l" />
  <path d="M 0 48.371896016017104 L 25 48.371896016017104 L 25 49.871896016017104 L 0 49.871896016017104 Z " stroke="none" fill-rule="evenodd" fill="#000000" fill-opacity="1" transform="matrix(1,0,0,1,5.05,13.314)" id="mark25 l" />
  <path d="M 12.328 47.32189601601711 C 12.325333333333333 47.22322934935043, 12.323333333333332 47.13456268268377, 12.322 47.05589601601711 C 12.320666666666666 46.97722934935044, 12.319333333333333 46.90322934935044, 12.318 46.83389601601711 C 12.316666666666666 46.764562682683774, 12.315999999999999 46.69256268268377, 12.316 46.617896016017106 C 12.315999999999999 46.54322934935044, 12.315999999999999 46.45856268268378, 12.316 46.36389601601711 C 12.315999999999999 46.26922934935044, 12.317333333333334 46.157896016017105, 12.32 46.029896016017105 C 12.328 45.73656268268377, 12.378 45.47456268268377, 12.47 45.2438960160171 C 12.562000000000001 45.01322934935044, 12.696 44.80722934935044, 12.872 44.62589601601711 C 13.048 44.444562682683774, 13.265333333333334 44.283229349350435, 13.524000000000001 44.14189601601711 L 14.056000000000001 43.8538960160171 C 14.242666666666668 43.752562682683774, 14.362000000000002 43.630562682683774, 14.414 43.4878960160171 C 14.466000000000001 43.34522934935044, 14.495999999999999 43.21122934935044, 14.504 43.08589601601711 C 14.514666666666667 42.93922934935044, 14.520666666666667 42.78256268268377, 14.522 42.6158960160171 C 14.523333333333333 42.44922934935044, 14.520000000000001 42.29256268268377, 14.512 42.145896016017105 C 14.506666666666666 42.041896016017105, 14.476666666666667 41.95589601601711, 14.422 41.88789601601711 C 14.367333333333335 41.819896016017104, 14.288 41.771229349350435, 14.184000000000001 41.74189601601711 L 14.184000000000001 40.8538960160171 C 14.672 40.88589601601711, 15.022000000000002 41.01722934935044, 15.234 41.24789601601711 C 15.446000000000002 41.47856268268377, 15.562666666666667 41.83922934935044, 15.584 42.32989601601711 C 15.586666666666668 42.39389601601711, 15.588666666666668 42.45922934935044, 15.59 42.52589601601711 C 15.591333333333335 42.59256268268378, 15.592000000000002 42.65722934935044, 15.592 42.7198960160171 C 15.592000000000002 42.78256268268377, 15.591333333333335 42.84456268268377, 15.59 42.90589601601711 C 15.588666666666668 42.96722934935044, 15.586666666666668 43.02722934935044, 15.584 43.08589601601711 C 15.573333333333332 43.37122934935044, 15.52 43.617896016017106, 15.424 43.825896016017104 C 15.328 44.03389601601711, 15.197999999999999 44.21389601601711, 15.033999999999999 44.3658960160171 C 14.87 44.517896016017104, 14.68 44.6538960160171, 14.464 44.773896016017105 L 13.86 45.10189601601711 C 13.745333333333335 45.16322934935044, 13.655333333333335 45.24722934935044, 13.59 45.3538960160171 C 13.524666666666668 45.46056268268377, 13.478000000000002 45.57389601601711, 13.45 45.693896016017106 C 13.422 45.813896016017104, 13.408 45.925896016017106, 13.408 46.029896016017105 L 13.408 47.32189601601711 Z M 12.336 43.28189601601711 C 12.330666666666666 43.16456268268377, 12.326666666666664 43.04989601601711, 12.324 42.937896016017106 C 12.321333333333332 42.825896016017104, 12.319333333333333 42.71989601601711, 12.318 42.61989601601711 C 12.316666666666666 42.51989601601711, 12.317333333333334 42.423229349350436, 12.32 42.32989601601711 C 12.338666666666668 41.8418960160171, 12.455333333333336 41.48256268268377, 12.67 41.251896016017106 C 12.884666666666668 41.02122934935044, 13.221333333333334 40.88856268268378, 13.68 40.8538960160171 L 13.68 41.745896016017106 C 13.584 41.77522934935044, 13.513333333333332 41.82189601601711, 13.468 41.88589601601711 C 13.422666666666668 41.94989601601711, 13.398666666666667 42.027229349350435, 13.396 42.117896016017106 C 13.390666666666666 42.325896016017104, 13.387333333333332 42.51922934935044, 13.386 42.697896016017104 C 13.384666666666666 42.87656268268377, 13.389333333333333 43.07122934935044, 13.4 43.28189601601711 Z M 13.911999999999999 47.32189601601711 L 13.911999999999999 46.389896016017104 L 15.508 46.389896016017104 L 15.508 47.32189601601711 Z M 16.18 45.90589601601711 C 16.174666666666667 45.73256268268377, 16.173333333333332 45.59322934935044, 16.176 45.4878960160171 C 16.178666666666665 45.38256268268377, 16.181333333333335 45.28056268268377, 16.183999999999997 45.181896016017106 L 17.264 45.181896016017106 C 17.256 45.25922934935044, 17.25 45.35522934935044, 17.246 45.46989601601711 C 17.241999999999997 45.584562682683774, 17.240666666666666 45.69522934935044, 17.241999999999997 45.8018960160171 C 17.243333333333332 45.90856268268377, 17.246666666666666 45.98856268268377, 17.252 46.041896016017105 C 17.262666666666668 46.1618960160171, 17.297333333333334 46.25989601601711, 17.355999999999998 46.33589601601711 C 17.414666666666665 46.41189601601711, 17.497333333333334 46.465896016017105, 17.604 46.49789601601711 L 17.604 47.389896016017104 C 17.110666666666663 47.35256268268377, 16.75333333333333 47.21789601601711, 16.532 46.98589601601711 C 16.310666666666666 46.75389601601711, 16.19333333333333 46.39389601601711, 16.18 45.90589601601711 Z M 16.279999999999998 44.569896016017104 L 16.279999999999998 40.92189601601711 L 17.348 40.92189601601711 L 17.348 44.569896016017104 Z M 17.852 44.145896016017105 L 17.852 43.389896016017104 C 17.929333333333332 43.349896016017105, 18.014666666666667 43.31789601601711, 18.107999999999997 43.29389601601711 C 18.20133333333333 43.26989601601711, 18.301333333333332 43.257896016017106, 18.407999999999998 43.257896016017106 C 18.773333333333333 43.257896016017106, 19.047333333333334 43.37322934935044, 19.23 43.6038960160171 C 19.412666666666667 43.83456268268377, 19.514666666666663 44.148562682683774, 19.535999999999998 44.54589601601711 C 19.546666666666667 44.70589601601711, 19.55333333333333 44.86456268268377, 19.555999999999997 45.02189601601711 C 19.558666666666664 45.179229349350436, 19.557333333333332 45.33256268268377, 19.552 45.4818960160171 C 19.546666666666667 45.63122934935044, 19.538666666666668 45.77122934935044, 19.528 45.901896016017105 C 19.482666666666667 46.40056268268378, 19.353333333333335 46.76589601601711, 19.14 46.99789601601711 C 18.926666666666666 47.22989601601711, 18.581333333333333 47.36056268268378, 18.104 47.389896016017104 L 18.104 46.49789601601711 C 18.21333333333333 46.468562682683775, 18.296 46.41589601601711, 18.352 46.33989601601711 C 18.408 46.26389601601711, 18.44 46.16456268268377, 18.448 46.041896016017105 C 18.471999999999998 45.75122934935044, 18.485999999999997 45.489896016017106, 18.49 45.257896016017106 C 18.494 45.02589601601711, 18.485333333333333 44.80456268268377, 18.464 44.593896016017105 C 18.447999999999997 44.43922934935044, 18.396666666666665 44.32389601601711, 18.31 44.24789601601711 C 18.223333333333333 44.17189601601711, 18.090666666666664 44.133896016017104, 17.912 44.133896016017104 C 17.901333333333334 44.133896016017104, 17.890666666666668 44.13522934935044, 17.88 44.13789601601711 C 17.86933333333333 44.14056268268377, 17.86 44.143229349350435, 17.852 44.145896016017105 Z M 17.852 41.8538960160171 L 17.852 40.92189601601711 L 19.439999999999998 40.92189601601711 L 19.439999999999998 41.8538960160171 Z M 21.944 47.32189601601711 L 21.944 40.92189601601711 L 23.003999999999998 40.92189601601711 L 23.003999999999998 47.32189601601711 Z " stroke="none" fill-rule="nonzero" fill="#000000" fill-opacity="1" transform="matrix(1,0,0,1,5.05,13.314)" id="text25 l" />
  <path d="M 0 38.54751681281368 L 10 38.54751681281368 L 10 40.04751681281368 L 0 40.04751681281368 Z " stroke="none" fill-rule="evenodd" fill="#000000" fill-opacity="1" transform="matrix(1,0,0,1,5.05,13.314)" id="mark26 l" />
  <path d="M 0 28.723137609610262 L 10 28.723137609610262 L 10 30.223137609610262 L 0 30.223137609610262 Z " stroke="none" fill-rule="evenodd" fill="#000000" fill-opacity="1" transform="matrix(1,0,0,1,5.05,13.314)" id="mark27 l" />
  <path d="M 0 18.89875840640684 L 10 18.89875840640684 L 10 20.39875840640684 L 0 20.39875840640684 Z " stroke="none" fill-rule="evenodd" fill="#000000" fill-opacity="1" transform="matrix(1,0,0,1,5.05,13.314)" id="mark28 l" />
  <path d="M 0 9.07437920320342 L 10 9.07437920320342 L 10 10.57437920320342 L 0 10.57437920320342 Z " stroke="none" fill-rule="evenodd" fill="#000000" fill-opacity="1" transform="matrix(1,0,0,1,5.05,13.314)" id="mark29 l" />
  <path d="M 0 -0.75 L 25 -0.75 L 25 0.75 L 0 0.75 Z " stroke="none" fill-rule="evenodd" fill="#000000" fill-opacity="1" transform="matrix(1,0,0,1,5.05,13.314)" id="mark30 l" />
  <path d="M 12.223999999999998 -3.2159999999999997 C 12.221333333333334 -3.317333333333333, 12.219333333333333 -3.4013333333333335, 12.218 -3.468 C 12.216666666666667 -3.5346666666666664, 12.216666666666667 -3.602666666666666, 12.218 -3.6719999999999997 C 12.219333333333333 -3.7413333333333334, 12.221333333333334 -3.8306666666666667, 12.223999999999998 -3.94 L 13.303999999999998 -3.94 L 13.303999999999998 -3.0759999999999996 C 13.303999999999998 -2.8386666666666667, 13.417333333333332 -2.6879999999999997, 13.643999999999998 -2.6239999999999997 L 13.643999999999998 -1.7319999999999998 C 13.155999999999999 -1.7693333333333332, 12.800666666666665 -1.904, 12.578 -2.1359999999999997 C 12.355333333333334 -2.368, 12.237333333333332 -2.7279999999999998, 12.223999999999998 -3.2159999999999997 Z M 12.292 -7.268 L 12.292 -8.2 L 15.536 -8.2 L 15.536 -7.268 Z M 14.143999999999998 -2.6199999999999997 C 14.367999999999999 -2.6759999999999997, 14.483999999999998 -2.826666666666666, 14.491999999999999 -3.072 C 14.497333333333334 -3.2746666666666666, 14.500666666666666 -3.4573333333333336, 14.501999999999999 -3.62 C 14.503333333333332 -3.7826666666666666, 14.498666666666665 -3.94, 14.488 -4.092 C 14.48 -4.2493333333333325, 14.431999999999999 -4.382666666666666, 14.344 -4.492 C 14.256 -4.601333333333333, 14.089333333333332 -4.653333333333332, 13.844 -4.648 L 13.096 -4.64 L 13.068 -5.532 L 14.027999999999999 -6.9159999999999995 L 15.216 -6.9159999999999995 L 14.248 -5.564 L 14.28 -5.564 C 14.712 -5.564, 15.028666666666666 -5.441333333333334, 15.229999999999999 -5.196 C 15.431333333333333 -4.950666666666666, 15.544 -4.573333333333332, 15.568 -4.064 C 15.57333333333333 -3.992, 15.576666666666664 -3.92, 15.578 -3.848 C 15.57933333333333 -3.776, 15.579999999999998 -3.705333333333333, 15.579999999999998 -3.6359999999999997 C 15.579999999999998 -3.5666666666666664, 15.57933333333333 -3.4973333333333336, 15.578 -3.428 C 15.576666666666664 -3.3586666666666662, 15.57333333333333 -3.2879999999999994, 15.568 -3.2159999999999997 C 15.549333333333333 -2.7199999999999998, 15.428666666666665 -2.3553333333333333, 15.206 -2.122 C 14.983333333333334 -1.8886666666666665, 14.630666666666666 -1.7586666666666664, 14.148 -1.7319999999999998 Z M 16.196 -3.2119999999999997 C 16.188000000000002 -3.641333333333333, 16.182666666666666 -4.058, 16.18 -4.462 C 16.177333333333333 -4.866, 16.177999999999997 -5.261333333333333, 16.182 -5.648 C 16.186 -6.034666666666666, 16.190666666666665 -6.416, 16.196 -6.792 C 16.209333333333333 -7.231999999999999, 16.334000000000003 -7.577333333333334, 16.57 -7.828 C 16.805999999999997 -8.078666666666667, 17.142666666666663 -8.224, 17.58 -8.264 L 17.58 -7.3759999999999994 C 17.382666666666665 -7.32, 17.281333333333333 -7.190666666666667, 17.276 -6.9879999999999995 C 17.262666666666668 -6.617333333333333, 17.253333333333334 -6.269333333333333, 17.248 -5.944 C 17.242666666666665 -5.618666666666666, 17.24 -5.302, 17.24 -4.994 C 17.24 -4.686, 17.242666666666665 -4.371333333333333, 17.248 -4.05 C 17.253333333333334 -3.7286666666666664, 17.262666666666668 -3.3853333333333326, 17.276 -3.0199999999999996 C 17.281333333333333 -2.812, 17.382666666666665 -2.6799999999999997, 17.58 -2.6239999999999997 L 17.58 -1.7359999999999998 C 17.142666666666663 -1.7759999999999998, 16.805999999999997 -1.9219999999999997, 16.57 -2.174 C 16.334000000000003 -2.4259999999999997, 16.209333333333333 -2.772, 16.196 -3.2119999999999997 Z M 18.084 -1.7359999999999998 L 18.084 -2.6279999999999997 C 18.268 -2.681333333333333, 18.366666666666667 -2.8053333333333335, 18.38 -3 C 18.398666666666667 -3.4666666666666663, 18.410666666666668 -3.915333333333333, 18.416 -4.346 C 18.421333333333333 -4.776666666666666, 18.421333333333333 -5.207333333333333, 18.416 -5.638 C 18.410666666666668 -6.068666666666666, 18.398666666666667 -6.521333333333333, 18.38 -6.9959999999999996 C 18.374666666666666 -7.190666666666667, 18.276 -7.317333333333334, 18.084 -7.3759999999999994 L 18.084 -8.264 C 18.513333333333335 -8.224, 18.846666666666668 -8.078666666666667, 19.084 -7.828 C 19.321333333333335 -7.577333333333334, 19.445333333333334 -7.231999999999999, 19.456 -6.792 C 19.46666666666667 -6.477333333333332, 19.474666666666668 -6.167333333333333, 19.48 -5.861999999999999 C 19.485333333333333 -5.556666666666667, 19.488 -5.256, 19.488 -4.96 C 19.488 -4.664, 19.485333333333333 -4.370666666666667, 19.48 -4.08 C 19.474666666666668 -3.7893333333333334, 19.46666666666667 -3.5, 19.456 -3.2119999999999997 C 19.439999999999998 -2.761333333333333, 19.311999999999998 -2.4126666666666665, 19.072 -2.166 C 18.832 -1.9193333333333331, 18.502666666666666 -1.7759999999999998, 18.084 -1.7359999999999998 Z M 21.944 -1.7999999999999998 L 21.944 -8.2 L 23.003999999999998 -8.2 L 23.003999999999998 -1.7999999999999998 Z " stroke="none" fill-rule="nonzero" fill="#000000" fill-opacity="1" transform="matrix(1,0,0,1,5.05,13.314)" id="text30 l" />
  <path d="M -5 -13.264 L 30 -13.264 L 30 291.67499689289906 L -5 291.67499689289906 Z " stroke="#FF0000" stroke-opacity="1" stroke-width="0.1" stroke-linecap="butt" stroke-linejoin="miter" fill="none" transform="matrix(1,0,0,1,5.05,13.314)" />
</svg>