<?xml version="1.0" encoding="UTF-8"?>
<svg xmlns:xlink="http://www.w3.org/1999/xlink" viewBox="0 0 35.1 309.8474689116409" version="1.1" style="font-synthesis: none;" width="35.1mm" height="309.8474689116409mm" xmlns="http://www.w3.org/2000/svg">
  <defs />
  <style>	</style>
  <path d="M 0 0 L 35.1 0 L 35.1 309.8474689116409 L 0 309.8474689116409 Z " stroke="none" fill-rule="nonzero" fill="#FFFFFF" fill-opacity="1" transform="matrix(1,0,0,1,0,0)" />
  <path d="M 0 288.96546891164087 L 10 288.96546891164087 L 10 290.46546891164087 L 0 290.46546891164087 Z " stroke="none" fill-rule="evenodd" fill="#000000" fill-opacity="1" transform="matrix(1,0,0,1,5.05,13.314)" id="mark1 l" />
  <path d="M 0 278.97528032848084 L 10 278.97528032848084 L 10 280.47528032848084 L 0 280.47528032848084 Z " stroke="none" fill-rule="evenodd" fill="#000000" fill-opacity="1" transform="matrix(1,0,0,1,5.05,13.314)" id="mark2 l" />
  <path d="M 0 268.9850917453208 L 10 268.9850917453208 L 10 270.4850917453208 L 0 270.4850917453208 Z " stroke="none" fill-rule="evenodd" fill="#000000" fill-opacity="1" transform="matrix(1,0,0,1,5.05,13.314)" id="mark3 l" />
  <path d="M 0 258.99490316216077 L 10 258.99490316216077 L 10 260.49490316216077 L 0 260.49490316216077 Z " stroke="none" fill-rule="evenodd" fill="#000000" fill-opacity="1" transform="matrix(1,0,0,1,5.05,13.314)" id="mark4 l" />
  <path d="M 0 249.00471457900073 L 25 249.00471457900073 L 25 250.50471457900073 L 0 250.50471457900073 Z " stroke="none" fill-rule="evenodd" fill="#000000" fill-opacity="1" transform="matrix(1,0,0,1,5.05,13.314)" id="mark5 l" />
  <path d="M 16.18 246.50671457900074 C 16.174666666666667 246.3333812456674, 16.173333333333332 246.1940479123341, 16.176 246.08871457900074 C 16.178666666666665 245.98338124566743, 16.181333333333335 245.8813812456674, 16.183999999999997 245.78271457900075 L 17.264 245.78271457900075 C 17.256 245.8600479123341, 17.25 245.9560479123341, 17.246 246.07071457900074 C 17.241999999999997 246.18538124566743, 17.240666666666666 246.29604791233407, 17.241999999999997 246.40271457900073 C 17.243333333333332 246.50938124566738, 17.246666666666666 246.58938124566737, 17.252 246.64271457900074 C 17.262666666666668 246.76271457900071, 17.297333333333334 246.86071457900073, 17.355999999999998 246.93671457900075 C 17.414666666666665 247.01271457900071, 17.497333333333334 247.06671457900072, 17.604 247.09871457900073 L 17.604 247.99071457900075 C 17.110666666666663 247.9533812456674, 16.75333333333333 247.81871457900073, 16.532 247.58671457900073 C 16.310666666666666 247.35471457900073, 16.19333333333333 246.99471457900074, 16.18 246.50671457900074 Z M 16.279999999999998 245.17071457900073 L 16.279999999999998 241.52271457900073 L 17.348 241.52271457900073 L 17.348 245.17071457900073 Z M 17.852 244.74671457900075 L 17.852 243.99071457900075 C 17.929333333333332 243.95071457900076, 18.014666666666667 243.91871457900072, 18.107999999999997 243.89471457900075 C 18.20133333333333 243.87071457900072, 18.301333333333332 243.85871457900072, 18.407999999999998 243.85871457900075 C 18.773333333333333 243.85871457900072, 19.047333333333334 243.97404791233407, 19.23 244.20471457900075 C 19.412666666666667 244.4353812456674, 19.514666666666663 244.7493812456674, 19.535999999999998 245.14671457900073 C 19.546666666666667 245.30671457900073, 19.55333333333333 245.4653812456674, 19.555999999999997 245.62271457900073 C 19.558666666666664 245.78004791233406, 19.557333333333332 245.93338124566742, 19.552 246.08271457900074 C 19.546666666666667 246.23204791233405, 19.538666666666668 246.3720479123341, 19.528 246.50271457900075 C 19.482666666666667 247.0013812456674, 19.353333333333335 247.36671457900076, 19.14 247.59871457900073 C 18.926666666666666 247.83071457900076, 18.581333333333333 247.9613812456674, 18.104 247.99071457900075 L 18.104 247.09871457900073 C 18.21333333333333 247.06938124566742, 18.296 247.01671457900073, 18.352 246.94071457900074 C 18.408 246.86471457900075, 18.44 246.7653812456674, 18.448 246.64271457900074 C 18.471999999999998 246.35204791233406, 18.485999999999997 246.09071457900075, 18.49 245.85871457900075 C 18.494 245.62671457900075, 18.485333333333333 245.4053812456674, 18.464 245.19471457900073 C 18.447999999999997 245.04004791233405, 18.396666666666665 244.92471457900072, 18.31 244.84871457900073 C 18.223333333333333 244.77271457900073, 18.090666666666664 244.73471457900075, 17.912 244.73471457900075 C 17.901333333333334 244.73471457900075, 17.890666666666668 244.73604791233407, 17.88 244.73871457900074 C 17.86933333333333 244.7413812456674, 17.86 244.74404791233408, 17.852 244.74671457900075 Z M 17.852 242.45471457900075 L 17.852 241.52271457900073 L 19.439999999999998 241.52271457900073 L 19.439999999999998 242.45471457900075 Z M 21.944 247.92271457900074 L 21.944 241.52271457900073 L 23.003999999999998 241.52271457900073 L 23.003999999999998 247.92271457900074 Z " stroke="none" fill-rule="nonzero" fill="#000000" fill-opacity="1" transform="matrix(1,0,0,1,5.05,13.314)" id="text5 l" />
  <path d="M 0 239.01452599584073 L 10 239.01452599584073 L 10 240.51452599584073 L 0 240.51452599584073 Z " stroke="none" fill-rule="evenodd" fill="#000000" fill-opacity="1" transform="matrix(1,0,0,1,5.05,13.314)" id="mark6 l" />
  <path d="M 0 229.0243374126807 L 10 229.0243374126807 L 10 230.5243374126807 L 0 230.5243374126807 Z " stroke="none" fill-rule="evenodd" fill="#000000" fill-opacity="1" transform="matrix(1,0,0,1,5.05,13.314)" id="mark7 l" />
  <path d="M 0 219.03414882952066 L 10 219.03414882952066 L 10 220.53414882952066 L 0 220.53414882952066 Z " stroke="none" fill-rule="evenodd" fill="#000000" fill-opacity="1" transform="matrix(1,0,0,1,5.05,13.314)" id="mark8 l" />
  <path d="M 0 209.04396024636063 L 10 209.04396024636063 L 10 210.54396024636063 L 0 210.54396024636063 Z " stroke="none" fill-rule="evenodd" fill="#000000" fill-opacity="1" transform="matrix(1,0,0,1,5.05,13.314)" id="mark9 l" />
  <path d="M 0 199.0537716632006 L 25 199.0537716632006 L 25 200.5537716632006 L 0 200.5537716632006 Z " stroke="none" fill-rule="evenodd" fill="#000000" fill-opacity="1" transform="matrix(1,0,0,1,5.05,13.314)" id="mark10 l" />
  <path d="M 14.323999999999998 198.0037716632006 L 14.323999999999998 192.55977166320062 L 13.871999999999998 192.55977166320062 L 13.839999999999998 192.1797716632006 L 14.543999999999999 191.6037716632006 L 15.424 191.6037716632006 L 15.424 198.0037716632006 Z M 16.196 196.5917716632006 C 16.188000000000002 196.16243832986726, 16.182666666666666 195.7457716632006, 16.18 195.3417716632006 C 16.177333333333333 194.9377716632006, 16.177999999999997 194.54243832986725, 16.182 194.1557716632006 C 16.186 193.76910499653394, 16.190666666666665 193.38777166320062, 16.196 193.01177166320062 C 16.209333333333333 192.57177166320065, 16.334000000000003 192.2264383298673, 16.57 191.97577166320062 C 16.805999999999997 191.72510499653396, 17.142666666666663 191.5797716632006, 17.58 191.5397716632006 L 17.58 192.42777166320062 C 17.382666666666665 192.48377166320063, 17.281333333333333 192.61310499653393, 17.276 192.81577166320062 C 17.262666666666668 193.18643832986726, 17.253333333333334 193.53443832986727, 17.248 193.8597716632006 C 17.242666666666665 194.18510499653394, 17.24 194.5017716632006, 17.24 194.80977166320062 C 17.24 195.11777166320064, 17.242666666666665 195.4324383298673, 17.248 195.7537716632006 C 17.253333333333334 196.07510499653392, 17.262666666666668 196.41843832986729, 17.276 196.7837716632006 C 17.281333333333333 196.9917716632006, 17.382666666666665 197.1237716632006, 17.58 197.1797716632006 L 17.58 198.0677716632006 C 17.142666666666663 198.0277716632006, 16.805999999999997 197.8817716632006, 16.57 197.62977166320061 C 16.334000000000003 197.37777166320063, 16.209333333333333 197.03177166320063, 16.196 196.5917716632006 Z M 18.084 198.0677716632006 L 18.084 197.1757716632006 C 18.268 197.1224383298673, 18.366666666666667 196.9984383298673, 18.38 196.80377166320062 C 18.398666666666667 196.33710499653395, 18.410666666666668 195.88843832986728, 18.416 195.45777166320062 C 18.421333333333333 195.02710499653395, 18.421333333333333 194.59643832986728, 18.416 194.16577166320062 C 18.410666666666668 193.73510499653395, 18.398666666666667 193.28243832986726, 18.38 192.8077716632006 C 18.374666666666666 192.61310499653393, 18.276 192.48643832986727, 18.084 192.42777166320062 L 18.084 191.5397716632006 C 18.513333333333335 191.5797716632006, 18.846666666666668 191.72510499653396, 19.084 191.97577166320062 C 19.321333333333335 192.2264383298673, 19.445333333333334 192.57177166320065, 19.456 193.01177166320062 C 19.46666666666667 193.3264383298673, 19.474666666666668 193.63643832986727, 19.48 193.9417716632006 C 19.485333333333333 194.24710499653392, 19.488 194.5477716632006, 19.488 194.8437716632006 C 19.488 195.1397716632006, 19.485333333333333 195.43310499653393, 19.48 195.7237716632006 C 19.474666666666668 196.0144383298673, 19.46666666666667 196.30377166320062, 19.456 196.5917716632006 C 19.439999999999998 197.0424383298673, 19.311999999999998 197.39110499653395, 19.072 197.6377716632006 C 18.832 197.88443832986727, 18.502666666666666 198.0277716632006, 18.084 198.0677716632006 Z M 21.944 198.0037716632006 L 21.944 191.6037716632006 L 23.003999999999998 191.6037716632006 L 23.003999999999998 198.0037716632006 Z " stroke="none" fill-rule="nonzero" fill="#000000" fill-opacity="1" transform="matrix(1,0,0,1,5.05,13.314)" id="text10 l" />
  <path d="M 0 189.0635830800406 L 10 189.0635830800406 L 10 190.5635830800406 L 0 190.5635830800406 Z " stroke="none" fill-rule="evenodd" fill="#000000" fill-opacity="1" transform="matrix(1,0,0,1,5.05,13.314)" id="mark11 l" />
  <path d="M 0 179.07339449688055 L 10 179.07339449688055 L 10 180.57339449688055 L 0 180.57339449688055 Z " stroke="none" fill-rule="evenodd" fill="#000000" fill-opacity="1" transform="matrix(1,0,0,1,5.05,13.314)" id="mark12 l" />
  <path d="M 0 169.08320591372052 L 10 169.08320591372052 L 10 170.58320591372052 L 0 170.58320591372052 Z " stroke="none" fill-rule="evenodd" fill="#000000" fill-opacity="1" transform="matrix(1,0,0,1,5.05,13.314)" id="mark13 l" />
  <path d="M 0 159.09301733056049 L 10 159.09301733056049 L 10 160.59301733056049 L 0 160.59301733056049 Z " stroke="none" fill-rule="evenodd" fill="#000000" fill-opacity="1" transform="matrix(1,0,0,1,5.05,13.314)" id="mark14 l" />
  <path d="M 0 149.10282874740045 L 25 149.10282874740045 L 25 150.60282874740045 L 0 150.60282874740045 Z " stroke="none" fill-rule="evenodd" fill="#000000" fill-opacity="1" transform="matrix(1,0,0,1,5.05,13.314)" id="mark15 l" />
  <path d="M 14.331999999999999 148.02082874740046 L 14.331999999999999 142.57682874740047 L 13.879999999999999 142.57682874740047 L 13.847999999999999 142.19682874740045 L 14.552 141.62082874740045 L 15.432 141.62082874740045 L 15.432 148.02082874740046 Z M 16.18 146.60482874740046 C 16.174666666666667 146.43149541406711, 16.173333333333332 146.2921620807338, 16.176 146.18682874740045 C 16.178666666666665 146.08149541406712, 16.181333333333335 145.97949541406712, 16.183999999999997 145.88082874740047 L 17.264 145.88082874740047 C 17.256 145.9581620807338, 17.25 146.0541620807338, 17.246 146.16882874740045 C 17.241999999999997 146.28349541406712, 17.240666666666666 146.3941620807338, 17.241999999999997 146.50082874740045 C 17.243333333333332 146.6074954140671, 17.246666666666666 146.68749541406712, 17.252 146.74082874740046 C 17.262666666666668 146.86082874740046, 17.297333333333334 146.95882874740047, 17.355999999999998 147.03482874740047 C 17.414666666666665 147.11082874740046, 17.497333333333334 147.16482874740043, 17.604 147.19682874740045 L 17.604 148.08882874740047 C 17.110666666666663 148.05149541406712, 16.75333333333333 147.91682874740044, 16.532 147.68482874740045 C 16.310666666666666 147.45282874740045, 16.19333333333333 147.09282874740046, 16.18 146.60482874740046 Z M 16.279999999999998 145.26882874740045 L 16.279999999999998 141.62082874740045 L 17.348 141.62082874740045 L 17.348 145.26882874740045 Z M 17.852 144.84482874740047 L 17.852 144.08882874740047 C 17.929333333333332 144.04882874740048, 18.014666666666667 144.01682874740047, 18.107999999999997 143.99282874740047 C 18.20133333333333 143.96882874740047, 18.301333333333332 143.95682874740046, 18.407999999999998 143.95682874740046 C 18.773333333333333 143.95682874740046, 19.047333333333334 144.0721620807338, 19.23 144.30282874740047 C 19.412666666666667 144.53349541406712, 19.514666666666663 144.8474954140671, 19.535999999999998 145.24482874740045 C 19.546666666666667 145.40482874740044, 19.55333333333333 145.56349541406712, 19.555999999999997 145.72082874740045 C 19.558666666666664 145.87816208073377, 19.557333333333332 146.03149541406714, 19.552 146.18082874740045 C 19.546666666666667 146.33016208073377, 19.538666666666668 146.4701620807338, 19.528 146.60082874740047 C 19.482666666666667 147.09949541406712, 19.353333333333335 147.46482874740045, 19.14 147.69682874740045 C 18.926666666666666 147.92882874740044, 18.581333333333333 148.05949541406713, 18.104 148.08882874740047 L 18.104 147.19682874740045 C 18.21333333333333 147.16749541406713, 18.296 147.11482874740045, 18.352 147.03882874740046 C 18.408 146.96282874740047, 18.44 146.86349541406713, 18.448 146.74082874740046 C 18.471999999999998 146.45016208073378, 18.485999999999997 146.18882874740046, 18.49 145.95682874740046 C 18.494 145.72482874740047, 18.485333333333333 145.50349541406712, 18.464 145.29282874740045 C 18.447999999999997 145.1381620807338, 18.396666666666665 145.02282874740044, 18.31 144.94682874740045 C 18.223333333333333 144.87082874740045, 18.090666666666664 144.83282874740047, 17.912 144.83282874740047 C 17.901333333333334 144.83282874740047, 17.890666666666668 144.8341620807338, 17.88 144.83682874740046 C 17.86933333333333 144.83949541406713, 17.86 144.8421620807338, 17.852 144.84482874740047 Z M 17.852 142.55282874740047 L 17.852 141.62082874740045 L 19.439999999999998 141.62082874740045 L 19.439999999999998 142.55282874740047 Z M 21.944 148.02082874740046 L 21.944 141.62082874740045 L 23.003999999999998 141.62082874740045 L 23.003999999999998 148.02082874740046 Z " stroke="none" fill-rule="nonzero" fill="#000000" fill-opacity="1" transform="matrix(1,0,0,1,5.05,13.314)" id="text15 l" />
  <path d="M 0 139.11264016424042 L 10 139.11264016424042 L 10 140.61264016424042 L 0 140.61264016424042 Z " stroke="none" fill-rule="evenodd" fill="#000000" fill-opacity="1" transform="matrix(1,0,0,1,5.05,13.314)" id="mark16 l" />
  <path d="M 0 129.12245158108038 L 10 129.12245158108038 L 10 130.62245158108038 L 0 130.62245158108038 Z " stroke="none" fill-rule="evenodd" fill="#000000" fill-opacity="1" transform="matrix(1,0,0,1,5.05,13.314)" id="mark17 l" />
  <path d="M 0 119.13226299792035 L 10 119.13226299792035 L 10 120.63226299792035 L 0 120.63226299792035 Z " stroke="none" fill-rule="evenodd" fill="#000000" fill-opacity="1" transform="matrix(1,0,0,1,5.05,13.314)" id="mark18 l" />
  <path d="M 0 109.14207441476032 L 10 109.14207441476032 L 10 110.64207441476032 L 0 110.64207441476032 Z " stroke="none" fill-rule="evenodd" fill="#000000" fill-opacity="1" transform="matrix(1,0,0,1,5.05,13.314)" id="mark19 l" />
  <path d="M 0 99.15188583160028 L 25 99.15188583160028 L 25 100.65188583160028 L 0 100.65188583160028 Z " stroke="none" fill-rule="evenodd" fill="#000000" fill-opacity="1" transform="matrix(1,0,0,1,5.05,13.314)" id="mark20 l" />
  <path d="M 12.319999999999999 98.10188583160028 C 12.317333333333334 98.00321916493363, 12.315333333333331 97.91455249826696, 12.313999999999998 97.83588583160028 C 12.312666666666665 97.75721916493362, 12.311333333333334 97.68321916493362, 12.309999999999999 97.61388583160029 C 12.308666666666667 97.54455249826695, 12.308 97.47255249826696, 12.308 97.39788583160029 C 12.308 97.32321916493362, 12.308 97.23855249826696, 12.308 97.14388583160029 C 12.308 97.04921916493362, 12.309333333333335 96.93788583160028, 12.312 96.80988583160028 C 12.32 96.51655249826695, 12.37 96.25455249826695, 12.462 96.02388583160028 C 12.554 95.79321916493362, 12.687999999999999 95.58721916493361, 12.863999999999999 95.40588583160029 C 13.04 95.22455249826695, 13.257333333333333 95.06321916493361, 13.515999999999998 94.92188583160028 L 14.047999999999998 94.63388583160028 C 14.234666666666666 94.53255249826695, 14.354 94.41055249826695, 14.405999999999999 94.26788583160028 C 14.457999999999998 94.12521916493361, 14.488 93.99121916493361, 14.495999999999999 93.86588583160028 C 14.506666666666664 93.71921916493362, 14.512666666666664 93.56255249826695, 14.514 93.39588583160028 C 14.51533333333333 93.22921916493361, 14.511999999999997 93.07255249826694, 14.504 92.92588583160028 C 14.498666666666665 92.82188583160028, 14.468666666666666 92.73588583160029, 14.413999999999998 92.66788583160029 C 14.359333333333332 92.59988583160029, 14.279999999999998 92.55121916493363, 14.175999999999998 92.52188583160029 L 14.175999999999998 91.63388583160028 C 14.663999999999998 91.66588583160028, 15.014 91.79721916493362, 15.225999999999999 92.02788583160029 C 15.437999999999999 92.25855249826695, 15.554666666666666 92.61921916493361, 15.575999999999999 93.10988583160028 C 15.578666666666663 93.17388583160027, 15.580666666666666 93.23921916493362, 15.581999999999999 93.30588583160028 C 15.583333333333332 93.37255249826696, 15.584 93.43721916493362, 15.584 93.49988583160028 C 15.584 93.56255249826695, 15.583333333333332 93.62455249826695, 15.581999999999999 93.68588583160029 C 15.580666666666666 93.74721916493363, 15.578666666666663 93.80721916493361, 15.575999999999999 93.86588583160028 C 15.565333333333331 94.15121916493361, 15.512 94.39788583160028, 15.415999999999999 94.60588583160029 C 15.32 94.81388583160029, 15.19 94.99388583160028, 15.026 95.14588583160028 C 14.862 95.29788583160028, 14.672 95.43388583160029, 14.456 95.55388583160028 L 13.851999999999999 95.88188583160029 C 13.737333333333332 95.94321916493362, 13.647333333333332 96.02721916493363, 13.581999999999999 96.13388583160028 C 13.516666666666666 96.24055249826694, 13.469999999999999 96.35388583160028, 13.441999999999998 96.47388583160028 C 13.413999999999998 96.59388583160029, 13.399999999999999 96.70588583160028, 13.399999999999999 96.80988583160028 L 13.399999999999999 98.10188583160028 Z M 12.328 94.06188583160028 C 12.322666666666667 93.94455249826696, 12.318666666666665 93.8298858316003, 12.315999999999999 93.71788583160028 C 12.313333333333333 93.60588583160028, 12.311333333333334 93.49988583160028, 12.309999999999999 93.39988583160029 C 12.308666666666667 93.29988583160028, 12.309333333333335 93.20321916493361, 12.312 93.10988583160028 C 12.330666666666666 92.62188583160028, 12.447333333333333 92.26255249826694, 12.661999999999999 92.03188583160028 C 12.876666666666665 91.80121916493361, 13.213333333333331 91.66855249826695, 13.671999999999999 91.63388583160028 L 13.671999999999999 92.52588583160029 C 13.576 92.55521916493362, 13.505333333333333 92.6018858316003, 13.459999999999999 92.66588583160029 C 13.414666666666665 92.72988583160028, 13.390666666666664 92.80721916493361, 13.387999999999998 92.89788583160029 C 13.382666666666665 93.10588583160029, 13.379333333333333 93.29921916493362, 13.378 93.47788583160029 C 13.376666666666667 93.65655249826696, 13.381333333333334 93.85121916493362, 13.392 94.06188583160028 Z M 13.904 98.10188583160028 L 13.904 97.16988583160028 L 15.5 97.16988583160028 L 15.5 98.10188583160028 Z M 16.196 96.68988583160028 C 16.188000000000002 96.26055249826695, 16.182666666666666 95.84388583160029, 16.18 95.43988583160028 C 16.177333333333333 95.03588583160028, 16.177999999999997 94.64055249826696, 16.182 94.25388583160029 C 16.186 93.86721916493362, 16.190666666666665 93.48588583160029, 16.196 93.10988583160028 C 16.209333333333333 92.66988583160028, 16.334000000000003 92.32455249826695, 16.57 92.07388583160028 C 16.805999999999997 91.82321916493362, 17.142666666666663 91.67788583160029, 17.58 91.63788583160029 L 17.58 92.52588583160029 C 17.382666666666665 92.58188583160029, 17.281333333333333 92.71121916493361, 17.276 92.91388583160028 C 17.262666666666668 93.28455249826695, 17.253333333333334 93.63255249826695, 17.248 93.95788583160028 C 17.242666666666665 94.28321916493361, 17.24 94.59988583160029, 17.24 94.90788583160028 C 17.24 95.21588583160027, 17.242666666666665 95.53055249826696, 17.248 95.85188583160028 C 17.253333333333334 96.17321916493361, 17.262666666666668 96.51655249826695, 17.276 96.88188583160029 C 17.281333333333333 97.08988583160028, 17.382666666666665 97.22188583160028, 17.58 97.27788583160029 L 17.58 98.16588583160028 C 17.142666666666663 98.12588583160029, 16.805999999999997 97.97988583160028, 16.57 97.72788583160029 C 16.334000000000003 97.4758858316003, 16.209333333333333 97.12988583160029, 16.196 96.68988583160028 Z M 18.084 98.16588583160028 L 18.084 97.27388583160028 C 18.268 97.22055249826695, 18.366666666666667 97.09655249826696, 18.38 96.90188583160028 C 18.398666666666667 96.43521916493361, 18.410666666666668 95.98655249826695, 18.416 95.55588583160028 C 18.421333333333333 95.12521916493363, 18.421333333333333 94.69455249826696, 18.416 94.26388583160029 C 18.410666666666668 93.83321916493362, 18.398666666666667 93.38055249826695, 18.38 92.90588583160029 C 18.374666666666666 92.71121916493362, 18.276 92.58455249826696, 18.084 92.52588583160029 L 18.084 91.63788583160029 C 18.513333333333335 91.67788583160029, 18.846666666666668 91.82321916493362, 19.084 92.07388583160028 C 19.321333333333335 92.32455249826695, 19.445333333333334 92.66988583160028, 19.456 93.10988583160028 C 19.46666666666667 93.42455249826696, 19.474666666666668 93.73455249826696, 19.48 94.03988583160029 C 19.485333333333333 94.34521916493361, 19.488 94.64588583160028, 19.488 94.94188583160029 C 19.488 95.2378858316003, 19.485333333333333 95.53121916493362, 19.48 95.82188583160028 C 19.474666666666668 96.11255249826695, 19.46666666666667 96.40188583160028, 19.456 96.68988583160028 C 19.439999999999998 97.14055249826694, 19.311999999999998 97.48921916493362, 19.072 97.73588583160029 C 18.832 97.98255249826695, 18.502666666666666 98.12588583160029, 18.084 98.16588583160028 Z M 21.944 98.10188583160028 L 21.944 91.70188583160028 L 23.003999999999998 91.70188583160028 L 23.003999999999998 98.10188583160028 Z " stroke="none" fill-rule="nonzero" fill="#000000" fill-opacity="1" transform="matrix(1,0,0,1,5.05,13.314)" id="text20 l" />
  <path d="M 0 89.16169724844028 L 10 89.16169724844028 L 10 90.66169724844028 L 0 90.66169724844028 Z " stroke="none" fill-rule="evenodd" fill="#000000" fill-opacity="1" transform="matrix(1,0,0,1,5.05,13.314)" id="mark21 l" />
  <path d="M 0 79.17150866528024 L 10 79.17150866528024 L 10 80.67150866528024 L 0 80.67150866528024 Z " stroke="none" fill-rule="evenodd" fill="#000000" fill-opacity="1" transform="matrix(1,0,0,1,5.05,13.314)" id="mark22 l" />
  <path d="M 0 69.18132008212021 L 10 69.18132008212021 L 10 70.68132008212021 L 0 70.68132008212021 Z " stroke="none" fill-rule="evenodd" fill="#000000" fill-opacity="1" transform="matrix(1,0,0,1,5.05,13.314)" id="mark23 l" />
  <path d="M 0 59.191131498960175 L 10 59.191131498960175 L 10 60.691131498960175 L 0 60.691131498960175 Z " stroke="none" fill-rule="evenodd" fill="#000000" fill-opacity="1" transform="matrix(1,0,0,1,5.05,13.314)" id="mark24 l" />
  <path d="M 0 49.20094291580014 L 25 49.20094291580014 L 25 50.70094291580014 L 0 50.70094291580014 Z " stroke="none" fill-rule="evenodd" fill="#000000" fill-opacity="1" transform="matrix(1,0,0,1,5.05,13.314)" id="mark25 l" />
  <path d="M 12.328 48.150942915800144 C 12.325333333333333 48.05227624913347, 12.323333333333332 47.96360958246681, 12.322 47.884942915800146 C 12.320666666666666 47.806276249133475, 12.319333333333333 47.73227624913348, 12.318 47.662942915800144 C 12.316666666666666 47.59360958246681, 12.315999999999999 47.52160958246681, 12.316 47.44694291580014 C 12.315999999999999 47.37227624913348, 12.315999999999999 47.28760958246681, 12.316 47.192942915800145 C 12.315999999999999 47.09827624913348, 12.317333333333334 46.98694291580014, 12.32 46.85894291580014 C 12.328 46.56560958246681, 12.378 46.30360958246681, 12.47 46.07294291580014 C 12.562000000000001 45.84227624913348, 12.696 45.63627624913348, 12.872 45.454942915800146 C 13.048 45.27360958246681, 13.265333333333334 45.11227624913347, 13.524000000000001 44.970942915800144 L 14.056000000000001 44.68294291580014 C 14.242666666666668 44.58160958246681, 14.362000000000002 44.45960958246681, 14.414 44.31694291580014 C 14.466000000000001 44.17427624913348, 14.495999999999999 44.04027624913348, 14.504 43.91494291580015 C 14.514666666666667 43.76827624913348, 14.520666666666667 43.611609582466805, 14.522 43.44494291580014 C 14.523333333333333 43.27827624913348, 14.520000000000001 43.12160958246681, 14.512 42.97494291580014 C 14.506666666666666 42.87094291580014, 14.476666666666667 42.784942915800144, 14.422 42.716942915800146 C 14.367333333333335 42.64894291580014, 14.288 42.60027624913348, 14.184000000000001 42.570942915800146 L 14.184000000000001 41.68294291580014 C 14.672 41.714942915800144, 15.022000000000002 41.84627624913348, 15.234 42.076942915800146 C 15.446000000000002 42.30760958246681, 15.562666666666667 42.66827624913348, 15.584 43.15894291580015 C 15.586666666666668 43.22294291580015, 15.588666666666668 43.288276249133474, 15.59 43.354942915800144 C 15.591333333333335 43.421609582466814, 15.592000000000002 43.486276249133475, 15.592 43.54894291580014 C 15.592000000000002 43.611609582466805, 15.591333333333335 43.67360958246681, 15.59 43.73494291580015 C 15.588666666666668 43.796276249133484, 15.586666666666668 43.85627624913348, 15.584 43.91494291580015 C 15.573333333333332 44.20027624913348, 15.52 44.44694291580014, 15.424 44.65494291580014 C 15.328 44.86294291580015, 15.197999999999999 45.04294291580014, 15.033999999999999 45.19494291580014 C 14.87 45.34694291580014, 14.68 45.482942915800145, 14.464 45.60294291580014 L 13.86 45.930942915800145 C 13.745333333333335 45.99227624913348, 13.655333333333335 46.07627624913348, 13.59 46.18294291580014 C 13.524666666666668 46.28960958246681, 13.478000000000002 46.40294291580014, 13.45 46.522942915800144 C 13.422 46.64294291580015, 13.408 46.75494291580014, 13.408 46.85894291580014 L 13.408 48.150942915800144 Z M 12.336 44.110942915800145 C 12.330666666666666 43.99360958246681, 12.326666666666664 43.87894291580014, 12.324 43.76694291580014 C 12.321333333333332 43.65494291580015, 12.319333333333333 43.54894291580015, 12.318 43.448942915800146 C 12.316666666666666 43.348942915800144, 12.317333333333334 43.25227624913347, 12.32 43.15894291580015 C 12.338666666666668 42.67094291580014, 12.455333333333336 42.31160958246681, 12.67 42.080942915800144 C 12.884666666666668 41.85027624913348, 13.221333333333334 41.717609582466814, 13.68 41.68294291580014 L 13.68 42.57494291580014 C 13.584 42.60427624913348, 13.513333333333332 42.650942915800144, 13.468 42.714942915800144 C 13.422666666666668 42.778942915800144, 13.398666666666667 42.85627624913347, 13.396 42.94694291580014 C 13.390666666666666 43.15494291580014, 13.387333333333332 43.34827624913348, 13.386 43.52694291580014 C 13.384666666666666 43.705609582466806, 13.389333333333333 43.900276249133476, 13.4 44.110942915800145 Z M 13.911999999999999 48.150942915800144 L 13.911999999999999 47.21894291580014 L 15.508 47.21894291580014 L 15.508 48.150942915800144 Z M 16.18 46.73494291580015 C 16.174666666666667 46.561609582466815, 16.173333333333332 46.422276249133475, 16.176 46.31694291580014 C 16.178666666666665 46.211609582466814, 16.181333333333335 46.10960958246681, 16.183999999999997 46.01094291580014 L 17.264 46.01094291580014 C 17.256 46.08827624913348, 17.25 46.184276249133475, 17.246 46.29894291580015 C 17.241999999999997 46.41360958246681, 17.240666666666666 46.52427624913348, 17.241999999999997 46.63094291580014 C 17.243333333333332 46.73760958246681, 17.246666666666666 46.817609582466815, 17.252 46.87094291580014 C 17.262666666666668 46.99094291580015, 17.297333333333334 47.088942915800146, 17.355999999999998 47.16494291580015 C 17.414666666666665 47.24094291580015, 17.497333333333334 47.29494291580015, 17.604 47.326942915800146 L 17.604 48.21894291580014 C 17.110666666666663 48.181609582466805, 16.75333333333333 48.046942915800145, 16.532 47.814942915800145 C 16.310666666666666 47.582942915800146, 16.19333333333333 47.22294291580015, 16.18 46.73494291580015 Z M 16.279999999999998 45.39894291580014 L 16.279999999999998 41.750942915800145 L 17.348 41.750942915800145 L 17.348 45.39894291580014 Z M 17.852 44.97494291580014 L 17.852 44.21894291580014 C 17.929333333333332 44.17894291580015, 18.014666666666667 44.146942915800146, 18.107999999999997 44.122942915800145 C 18.20133333333333 44.098942915800144, 18.301333333333332 44.086942915800144, 18.407999999999998 44.086942915800144 C 18.773333333333333 44.086942915800144, 19.047333333333334 44.202276249133476, 19.23 44.43294291580014 C 19.412666666666667 44.66360958246681, 19.514666666666663 44.97760958246681, 19.535999999999998 45.37494291580015 C 19.546666666666667 45.534942915800144, 19.55333333333333 45.69360958246681, 19.555999999999997 45.85094291580015 C 19.558666666666664 46.00827624913348, 19.557333333333332 46.16160958246681, 19.552 46.31094291580014 C 19.546666666666667 46.46027624913347, 19.538666666666668 46.60027624913347, 19.528 46.73094291580014 C 19.482666666666667 47.22960958246681, 19.353333333333335 47.59494291580015, 19.14 47.826942915800146 C 18.926666666666666 48.058942915800145, 18.581333333333333 48.189609582466815, 18.104 48.21894291580014 L 18.104 47.326942915800146 C 18.21333333333333 47.297609582466805, 18.296 47.24494291580014, 18.352 47.168942915800145 C 18.408 47.09294291580014, 18.44 46.9936095824668, 18.448 46.87094291580014 C 18.471999999999998 46.580276249133476, 18.485999999999997 46.31894291580014, 18.49 46.086942915800144 C 18.494 45.854942915800144, 18.485333333333333 45.63360958246681, 18.464 45.42294291580014 C 18.447999999999997 45.26827624913348, 18.396666666666665 45.15294291580014, 18.31 45.076942915800146 C 18.223333333333333 45.00094291580014, 18.090666666666664 44.96294291580014, 17.912 44.96294291580014 C 17.901333333333334 44.96294291580014, 17.890666666666668 44.964276249133476, 17.88 44.966942915800146 C 17.86933333333333 44.96960958246681, 17.86 44.97227624913348, 17.852 44.97494291580014 Z M 17.852 42.68294291580014 L 17.852 41.750942915800145 L 19.439999999999998 41.750942915800145 L 19.439999999999998 42.68294291580014 Z M 21.944 48.150942915800144 L 21.944 41.750942915800145 L 23.003999999999998 41.750942915800145 L 23.003999999999998 48.150942915800144 Z " stroke="none" fill-rule="nonzero" fill="#000000" fill-opacity="1" transform="matrix(1,0,0,1,5.05,13.314)" id="text25 l" />
  <path d="M 0 39.210754332640136 L 10 39.210754332640136 L 10 40.710754332640136 L 0 40.710754332640136 Z " stroke="none" fill-rule="evenodd" fill="#000000" fill-opacity="1" transform="matrix(1,0,0,1,5.05,13.314)" id="mark26 l" />
  <path d="M 0 29.2205657494801 L 10 29.2205657494801 L 10 30.7205657494801 L 0 30.7205657494801 Z " stroke="none" fill-rule="evenodd" fill="#000000" fill-opacity="1" transform="matrix(1,0,0,1,5.05,13.314)" id="mark27 l" />
  <path d="M 0 19.230377166320068 L 10 19.230377166320068 L 10 20.730377166320068 L 0 20.730377166320068 Z " stroke="none" fill-rule="evenodd" fill="#000000" fill-opacity="1" transform="matrix(1,0,0,1,5.05,13.314)" id="mark28 l" />
  <path d="M 0 9.240188583160034 L 10 9.240188583160034 L 10 10.740188583160034 L 0 10.740188583160034 Z " stroke="none" fill-rule="evenodd" fill="#000000" fill-opacity="1" transform="matrix(1,0,0,1,5.05,13.314)" id="mark29 l" />
  <path d="M 0 -0.75 L 25 -0.75 L 25 0.75 L 0 0.75 Z " stroke="none" fill-rule="evenodd" fill="#000000" fill-opacity="1" transform="matrix(1,0,0,1,5.05,13.314)" id="mark30 l" />
  <path d="M 12.223999999999998 -3.2159999999999997 C 12.221333333333334 -3.317333333333333, 12.219333333333333 -3.4013333333333335, 12.218 -3.468 C 12.216666666666667 -3.5346666666666664, 12.216666666666667 -3.602666666666666, 12.218 -3.6719999999999997 C 12.219333333333333 -3.7413333333333334, 12.221333333333334 -3.8306666666666667, 12.223999999999998 -3.94 L 13.303999999999998 -3.94 L 13.303999999999998 -3.0759999999999996 C 13.303999999999998 -2.8386666666666667, 13.417333333333332 -2.6879999999999997, 13.643999999999998 -2.6239999999999997 L 13.643999999999998 -1.7319999999999998 C 13.155999999999999 -1.7693333333333332, 12.800666666666665 -1.904, 12.578 -2.1359999999999997 C 12.355333333333334 -2.368, 12.237333333333332 -2.7279999999999998, 12.223999999999998 -3.2159999999999997 Z M 12.292 -7.268 L 12.292 -8.2 L 15.536 -8.2 L 15.536 -7.268 Z M 14.143999999999998 -2.6199999999999997 C 14.367999999999999 -2.6759999999999997, 14.483999999999998 -2.826666666666666, 14.491999999999999 -3.072 C 14.497333333333334 -3.2746666666666666, 14.500666666666666 -3.4573333333333336, 14.501999999999999 -3.62 C 14.503333333333332 -3.7826666666666666, 14.498666666666665 -3.94, 14.488 -4.092 C 14.48 -4.2493333333333325, 14.431999999999999 -4.382666666666666, 14.344 -4.492 C 14.256 -4.601333333333333, 14.089333333333332 -4.653333333333332, 13.844 -4.648 L 13.096 -4.64 L 13.068 -5.532 L 14.027999999999999 -6.9159999999999995 L 15.216 -6.9159999999999995 L 14.248 -5.564 L 14.28 -5.564 C 14.712 -5.564, 15.028666666666666 -5.441333333333334, 15.229999999999999 -5.196 C 15.431333333333333 -4.950666666666666, 15.544 -4.573333333333332, 15.568 -4.064 C 15.57333333333333 -3.992, 15.576666666666664 -3.92, 15.578 -3.848 C 15.57933333333333 -3.776, 15.579999999999998 -3.705333333333333, 15.579999999999998 -3.6359999999999997 C 15.579999999999998 -3.5666666666666664, 15.57933333333333 -3.4973333333333336, 15.578 -3.428 C 15.576666666666664 -3.3586666666666662, 15.57333333333333 -3.2879999999999994, 15.568 -3.2159999999999997 C 15.549333333333333 -2.7199999999999998, 15.428666666666665 -2.3553333333333333, 15.206 -2.122 C 14.983333333333334 -1.8886666666666665, 14.630666666666666 -1.7586666666666664, 14.148 -1.7319999999999998 Z M 16.196 -3.2119999999999997 C 16.188000000000002 -3.641333333333333, 16.182666666666666 -4.058, 16.18 -4.462 C 16.177333333333333 -4.866, 16.177999999999997 -5.261333333333333, 16.182 -5.648 C 16.186 -6.034666666666666, 16.190666666666665 -6.416, 16.196 -6.792 C 16.209333333333333 -7.231999999999999, 16.334000000000003 -7.577333333333334, 16.57 -7.828 C 16.805999999999997 -8.078666666666667, 17.142666666666663 -8.224, 17.58 -8.264 L 17.58 -7.3759999999999994 C 17.382666666666665 -7.32, 17.281333333333333 -7.190666666666667, 17.276 -6.9879999999999995 C 17.262666666666668 -6.617333333333333, 17.253333333333334 -6.269333333333333, 17.248 -5.944 C 17.242666666666665 -5.618666666666666, 17.24 -5.302, 17.24 -4.994 C 17.24 -4.686, 17.242666666666665 -4.371333333333333, 17.248 -4.05 C 17.253333333333334 -3.7286666666666664, 17.262666666666668 -3.3853333333333326, 17.276 -3.0199999999999996 C 17.281333333333333 -2.812, 17.382666666666665 -2.6799999999999997, 17.58 -2.6239999999999997 L 17.58 -1.7359999999999998 C 17.142666666666663 -1.7759999999999998, 16.805999999999997 -1.9219999999999997, 16.57 -2.174 C 16.334000000000003 -2.4259999999999997, 16.209333333333333 -2.772, 16.196 -3.2119999999999997 Z M 18.084 -1.7359999999999998 L 18.084 -2.6279999999999997 C 18.268 -2.681333333333333, 18.366666666666667 -2.8053333333333335, 18.38 -3 C 18.398666666666667 -3.4666666666666663, 18.410666666666668 -3.915333333333333, 18.416 -4.346 C 18.421333333333333 -4.776666666666666, 18.421333333333333 -5.207333333333333, 18.416 -5.638 C 18.410666666666668 -6.068666666666666, 18.398666666666667 -6.521333333333333, 18.38 -6.9959999999999996 C 18.374666666666666 -7.190666666666667, 18.276 -7.317333333333334, 18.084 -7.3759999999999994 L 18.084 -8.264 C 18.513333333333335 -8.224, 18.846666666666668 -8.078666666666667, 19.084 -7.828 C 19.321333333333335 -7.577333333333334, 19.445333333333334 -7.231999999999999, 19.456 -6.792 C 19.46666666666667 -6.477333333333332, 19.474666666666668 -6.167333333333333, 19.48 -5.861999999999999 C 19.485333333333333 -5.556666666666667, 19.488 -5.256, 19.488 -4.96 C 19.488 -4.664, 19.485333333333333 -4.370666666666667, 19.48 -4.08 C 19.474666666666668 -3.7893333333333334, 19.46666666666667 -3.5, 19.456 -3.2119999999999997 C 19.439999999999998 -2.761333333333333, 19.311999999999998 -2.4126666666666665, 19.072 -2.166 C 18.832 -1.9193333333333331, 18.502666666666666 -1.7759999999999998, 18.084 -1.7359999999999998 Z M 21.944 -1.7999999999999998 L 21.944 -8.2 L 23.003999999999998 -8.2 L 23.003999999999998 -1.7999999999999998 Z " stroke="none" fill-rule="nonzero" fill="#000000" fill-opacity="1" transform="matrix(1,0,0,1,5.05,13.314)" id="text30 l" />
  <path d="M -5 -13.264 L 30 -13.264 L 30 296.48346891164084 L -5 296.48346891164084 Z " stroke="#FF0000" stroke-opacity="1" stroke-width="0.1" stroke-linecap="butt" stroke-linejoin="miter" fill="none" transform="matrix(1,0,0,1,5.05,13.314)" />
</svg>