<?xml version="1.0" encoding="UTF-8"?>
<svg xmlns:xlink="http://www.w3.org/1999/xlink" viewBox="0 0 35.1 316.4504585167983" version="1.1" style="font-synthesis: none;" width="35.1mm" height="316.4504585167983mm" xmlns="http://www.w3.org/2000/svg">
  <defs />
  <style>	</style>
  <path d="M 0 0 L 35.1 0 L 35.1 316.4504585167983 L 0 316.4504585167983 Z " stroke="none" fill-rule="nonzero" fill="#FFFFFF" fill-opacity="1" transform="matrix(1,0,0,1,0,0)" />
  <path d="M 0 295.5684585167983 L 10 295.5684585167983 L 10 297.0684585167983 L 0 297.0684585167983 Z " stroke="none" fill-rule="evenodd" fill="#000000" fill-opacity="1" transform="matrix(1,0,0,1,5.05,13.314)" id="mark1 l" />
  <path d="M 0 285.3505806369087 L 10 285.3505806369087 L 10 286.8505806369087 L 0 286.8505806369087 Z " stroke="none" fill-rule="evenodd" fill="#000000" fill-opacity="1" transform="matrix(1,0,0,1,5.05,13.314)" id="mark2 l" />
  <path d="M 0 275.1327027570191 L 10 275.1327027570191 L 10 276.6327027570191 L 0 276.6327027570191 Z " stroke="none" fill-rule="evenodd" fill="#000000" fill-opacity="1" transform="matrix(1,0,0,1,5.05,13.314)" id="mark3 l" />
  <path d="M 0 264.9148248771295 L 10 264.9148248771295 L 10 266.4148248771295 L 0 266.4148248771295 Z " stroke="none" fill-rule="evenodd" fill="#000000" fill-opacity="1" transform="matrix(1,0,0,1,5.05,13.314)" id="mark4 l" />
  <path d="M 0 254.6969469972399 L 25 254.6969469972399 L 25 256.19694699723993 L 0 256.19694699723993 Z " stroke="none" fill-rule="evenodd" fill="#000000" fill-opacity="1" transform="matrix(1,0,0,1,5.05,13.314)" id="mark5 l" />
  <path d="M 16.18 252.19894699723991 C 16.174666666666667 252.0256136639066, 16.173333333333332 251.88628033057324, 16.176 251.7809469972399 C 16.178666666666665 251.67561366390657, 16.181333333333335 251.5736136639066, 16.183999999999997 251.47494699723993 L 17.264 251.47494699723993 C 17.256 251.55228033057324, 17.25 251.64828033057324, 17.246 251.7629469972399 C 17.241999999999997 251.87761366390657, 17.240666666666666 251.98828033057322, 17.241999999999997 252.0949469972399 C 17.243333333333332 252.20161366390658, 17.246666666666666 252.28161366390657, 17.252 252.3349469972399 C 17.262666666666668 252.45494699723992, 17.297333333333334 252.55294699723993, 17.355999999999998 252.62894699723992 C 17.414666666666665 252.70494699723992, 17.497333333333334 252.7589469972399, 17.604 252.7909469972399 L 17.604 253.68294699723992 C 17.110666666666663 253.6456136639066, 16.75333333333333 253.5109469972399, 16.532 253.2789469972399 C 16.310666666666666 253.0469469972399, 16.19333333333333 252.68694699723994, 16.18 252.19894699723991 Z M 16.279999999999998 250.8629469972399 L 16.279999999999998 247.2149469972399 L 17.348 247.2149469972399 L 17.348 250.8629469972399 Z M 17.852 250.43894699723992 L 17.852 249.68294699723992 C 17.929333333333332 249.64294699723993, 18.014666666666667 249.61094699723992, 18.107999999999997 249.58694699723992 C 18.20133333333333 249.56294699723992, 18.301333333333332 249.55094699723992, 18.407999999999998 249.55094699723992 C 18.773333333333333 249.55094699723992, 19.047333333333334 249.66628033057327, 19.23 249.89694699723992 C 19.412666666666667 250.12761366390657, 19.514666666666663 250.4416136639066, 19.535999999999998 250.8389469972399 C 19.546666666666667 250.9989469972399, 19.55333333333333 251.1576136639066, 19.555999999999997 251.3149469972399 C 19.558666666666664 251.47228033057326, 19.557333333333332 251.62561366390656, 19.552 251.7749469972399 C 19.546666666666667 251.92428033057325, 19.538666666666668 252.06428033057324, 19.528 252.19494699723992 C 19.482666666666667 252.69361366390658, 19.353333333333335 253.0589469972399, 19.14 253.2909469972399 C 18.926666666666666 253.5229469972399, 18.581333333333333 253.65361366390658, 18.104 253.68294699723992 L 18.104 252.7909469972399 C 18.21333333333333 252.7616136639066, 18.296 252.70894699723993, 18.352 252.6329469972399 C 18.408 252.5569469972399, 18.44 252.45761366390656, 18.448 252.3349469972399 C 18.471999999999998 252.04428033057326, 18.485999999999997 251.7829469972399, 18.49 251.55094699723992 C 18.494 251.3189469972399, 18.485333333333333 251.09761366390657, 18.464 250.8869469972399 C 18.447999999999997 250.73228033057325, 18.396666666666665 250.6169469972399, 18.31 250.5409469972399 C 18.223333333333333 250.4649469972399, 18.090666666666664 250.42694699723995, 17.912 250.42694699723992 C 17.901333333333334 250.42694699723995, 17.890666666666668 250.42828033057327, 17.88 250.43094699723991 C 17.86933333333333 250.43361366390656, 17.86 250.43628033057325, 17.852 250.43894699723992 Z M 17.852 248.14694699723992 L 17.852 247.2149469972399 L 19.439999999999998 247.2149469972399 L 19.439999999999998 248.14694699723992 Z M 21.944 253.6149469972399 L 21.944 247.2149469972399 L 23.003999999999998 247.2149469972399 L 23.003999999999998 253.6149469972399 Z " stroke="none" fill-rule="nonzero" fill="#000000" fill-opacity="1" transform="matrix(1,0,0,1,5.05,13.314)" id="text5 l" />
  <path d="M 0 244.47906911735032 L 10 244.47906911735032 L 10 245.97906911735032 L 0 245.97906911735032 Z " stroke="none" fill-rule="evenodd" fill="#000000" fill-opacity="1" transform="matrix(1,0,0,1,5.05,13.314)" id="mark6 l" />
  <path d="M 0 234.2611912374607 L 10 234.2611912374607 L 10 235.7611912374607 L 0 235.7611912374607 Z " stroke="none" fill-rule="evenodd" fill="#000000" fill-opacity="1" transform="matrix(1,0,0,1,5.05,13.314)" id="mark7 l" />
  <path d="M 0 224.04331335757112 L 10 224.04331335757112 L 10 225.54331335757112 L 0 225.54331335757112 Z " stroke="none" fill-rule="evenodd" fill="#000000" fill-opacity="1" transform="matrix(1,0,0,1,5.05,13.314)" id="mark8 l" />
  <path d="M 0 213.82543547768154 L 10 213.82543547768154 L 10 215.32543547768154 L 0 215.32543547768154 Z " stroke="none" fill-rule="evenodd" fill="#000000" fill-opacity="1" transform="matrix(1,0,0,1,5.05,13.314)" id="mark9 l" />
  <path d="M 0 203.60755759779192 L 25 203.60755759779192 L 25 205.10755759779192 L 0 205.10755759779192 Z " stroke="none" fill-rule="evenodd" fill="#000000" fill-opacity="1" transform="matrix(1,0,0,1,5.05,13.314)" id="mark10 l" />
  <path d="M 14.323999999999998 202.55755759779194 L 14.323999999999998 197.11355759779195 L 13.871999999999998 197.11355759779195 L 13.839999999999998 196.73355759779193 L 14.543999999999999 196.15755759779194 L 15.424 196.15755759779194 L 15.424 202.55755759779194 Z M 16.196 201.14555759779194 C 16.188000000000002 200.7162242644586, 16.182666666666666 200.29955759779193, 16.18 199.89555759779194 C 16.177333333333333 199.49155759779194, 16.177999999999997 199.0962242644586, 16.182 198.70955759779193 C 16.186 198.3228909311253, 16.190666666666665 197.94155759779196, 16.196 197.56555759779195 C 16.209333333333333 197.12555759779195, 16.334000000000003 196.78022426445864, 16.57 196.52955759779195 C 16.805999999999997 196.27889093112526, 17.142666666666663 196.13355759779193, 17.58 196.09355759779194 L 17.58 196.98155759779195 C 17.382666666666665 197.03755759779193, 17.281333333333333 197.1668909311253, 17.276 197.36955759779195 C 17.262666666666668 197.74022426445862, 17.253333333333334 198.08822426445857, 17.248 198.41355759779194 C 17.242666666666665 198.73889093112524, 17.24 199.05555759779193, 17.24 199.36355759779195 C 17.24 199.67155759779195, 17.242666666666665 199.9862242644586, 17.248 200.30755759779194 C 17.253333333333334 200.62889093112528, 17.262666666666668 200.9722242644586, 17.276 201.33755759779194 C 17.281333333333333 201.54555759779197, 17.382666666666665 201.67755759779195, 17.58 201.73355759779193 L 17.58 202.62155759779193 C 17.142666666666663 202.5815575977919, 16.805999999999997 202.43555759779193, 16.57 202.18355759779195 C 16.334000000000003 201.93155759779194, 16.209333333333333 201.58555759779193, 16.196 201.14555759779194 Z M 18.084 202.62155759779193 L 18.084 201.72955759779194 C 18.268 201.6762242644586, 18.366666666666667 201.55222426445863, 18.38 201.35755759779195 C 18.398666666666667 200.89089093112528, 18.410666666666668 200.44222426445862, 18.416 200.01155759779195 C 18.421333333333333 199.58089093112528, 18.421333333333333 199.1502242644586, 18.416 198.71955759779195 C 18.410666666666668 198.28889093112525, 18.398666666666667 197.83622426445862, 18.38 197.36155759779194 C 18.374666666666666 197.1668909311253, 18.276 197.04022426445863, 18.084 196.98155759779195 L 18.084 196.09355759779194 C 18.513333333333335 196.13355759779193, 18.846666666666668 196.27889093112526, 19.084 196.52955759779195 C 19.321333333333335 196.78022426445864, 19.445333333333334 197.12555759779195, 19.456 197.56555759779195 C 19.46666666666667 197.8802242644586, 19.474666666666668 198.1902242644586, 19.48 198.49555759779193 C 19.485333333333333 198.80089093112525, 19.488 199.10155759779195, 19.488 199.39755759779194 C 19.488 199.69355759779194, 19.485333333333333 199.98689093112526, 19.48 200.27755759779194 C 19.474666666666668 200.56822426445862, 19.46666666666667 200.85755759779195, 19.456 201.14555759779194 C 19.439999999999998 201.5962242644586, 19.311999999999998 201.94489093112526, 19.072 202.19155759779193 C 18.832 202.4382242644586, 18.502666666666666 202.5815575977919, 18.084 202.62155759779193 Z M 21.944 202.55755759779194 L 21.944 196.15755759779194 L 23.003999999999998 196.15755759779194 L 23.003999999999998 202.55755759779194 Z " stroke="none" fill-rule="nonzero" fill="#000000" fill-opacity="1" transform="matrix(1,0,0,1,5.05,13.314)" id="text10 l" />
  <path d="M 0 193.3896797179023 L 10 193.3896797179023 L 10 194.8896797179023 L 0 194.8896797179023 Z " stroke="none" fill-rule="evenodd" fill="#000000" fill-opacity="1" transform="matrix(1,0,0,1,5.05,13.314)" id="mark11 l" />
  <path d="M 0 183.17180183801273 L 10 183.17180183801273 L 10 184.67180183801273 L 0 184.67180183801273 Z " stroke="none" fill-rule="evenodd" fill="#000000" fill-opacity="1" transform="matrix(1,0,0,1,5.05,13.314)" id="mark12 l" />
  <path d="M 0 172.95392395812314 L 10 172.95392395812314 L 10 174.45392395812314 L 0 174.45392395812314 Z " stroke="none" fill-rule="evenodd" fill="#000000" fill-opacity="1" transform="matrix(1,0,0,1,5.05,13.314)" id="mark13 l" />
  <path d="M 0 162.73604607823353 L 10 162.73604607823353 L 10 164.23604607823353 L 0 164.23604607823353 Z " stroke="none" fill-rule="evenodd" fill="#000000" fill-opacity="1" transform="matrix(1,0,0,1,5.05,13.314)" id="mark14 l" />
  <path d="M 0 152.51816819834394 L 25 152.51816819834394 L 25 154.01816819834394 L 0 154.01816819834394 Z " stroke="none" fill-rule="evenodd" fill="#000000" fill-opacity="1" transform="matrix(1,0,0,1,5.05,13.314)" id="mark15 l" />
  <path d="M 14.331999999999999 151.43616819834395 L 14.331999999999999 145.99216819834396 L 13.879999999999999 145.99216819834396 L 13.847999999999999 145.61216819834394 L 14.552 145.03616819834394 L 15.432 145.03616819834394 L 15.432 151.43616819834395 Z M 16.18 150.02016819834395 C 16.174666666666667 149.84683486501063, 16.173333333333332 149.70750153167728, 16.176 149.60216819834395 C 16.178666666666665 149.4968348650106, 16.181333333333335 149.39483486501064, 16.183999999999997 149.29616819834396 L 17.264 149.29616819834396 C 17.256 149.37350153167728, 17.25 149.46950153167728, 17.246 149.58416819834395 C 17.241999999999997 149.6988348650106, 17.240666666666666 149.80950153167726, 17.241999999999997 149.91616819834394 C 17.243333333333332 150.02283486501062, 17.246666666666666 150.1028348650106, 17.252 150.15616819834395 C 17.262666666666668 150.27616819834395, 17.297333333333334 150.37416819834397, 17.355999999999998 150.45016819834396 C 17.414666666666665 150.52616819834395, 17.497333333333334 150.58016819834393, 17.604 150.61216819834394 L 17.604 151.50416819834396 C 17.110666666666663 151.46683486501064, 16.75333333333333 151.33216819834394, 16.532 151.10016819834394 C 16.310666666666666 150.86816819834394, 16.19333333333333 150.50816819834395, 16.18 150.02016819834395 Z M 16.279999999999998 148.68416819834394 L 16.279999999999998 145.03616819834394 L 17.348 145.03616819834394 L 17.348 148.68416819834394 Z M 17.852 148.26016819834396 L 17.852 147.50416819834396 C 17.929333333333332 147.46416819834397, 18.014666666666667 147.43216819834396, 18.107999999999997 147.40816819834396 C 18.20133333333333 147.38416819834396, 18.301333333333332 147.37216819834396, 18.407999999999998 147.37216819834396 C 18.773333333333333 147.37216819834396, 19.047333333333334 147.4875015316773, 19.23 147.71816819834396 C 19.412666666666667 147.9488348650106, 19.514666666666663 148.26283486501063, 19.535999999999998 148.66016819834394 C 19.546666666666667 148.82016819834394, 19.55333333333333 148.9788348650106, 19.555999999999997 149.13616819834394 C 19.558666666666664 149.2935015316773, 19.557333333333332 149.44683486501063, 19.552 149.59616819834395 C 19.546666666666667 149.74550153167726, 19.538666666666668 149.88550153167728, 19.528 150.01616819834396 C 19.482666666666667 150.5148348650106, 19.353333333333335 150.88016819834394, 19.14 151.11216819834394 C 18.926666666666666 151.34416819834394, 18.581333333333333 151.47483486501062, 18.104 151.50416819834396 L 18.104 150.61216819834394 C 18.21333333333333 150.58283486501062, 18.296 150.53016819834394, 18.352 150.45416819834395 C 18.408 150.37816819834396, 18.44 150.27883486501062, 18.448 150.15616819834395 C 18.471999999999998 149.86550153167727, 18.485999999999997 149.60416819834393, 18.49 149.37216819834396 C 18.494 149.14016819834393, 18.485333333333333 148.9188348650106, 18.464 148.70816819834394 C 18.447999999999997 148.55350153167728, 18.396666666666665 148.43816819834393, 18.31 148.36216819834394 C 18.223333333333333 148.28616819834394, 18.090666666666664 148.24816819834396, 17.912 148.24816819834396 C 17.901333333333334 148.24816819834396, 17.890666666666668 148.2495015316773, 17.88 148.25216819834395 C 17.86933333333333 148.2548348650106, 17.86 148.2575015316773, 17.852 148.26016819834396 Z M 17.852 145.96816819834396 L 17.852 145.03616819834394 L 19.439999999999998 145.03616819834394 L 19.439999999999998 145.96816819834396 Z M 21.944 151.43616819834395 L 21.944 145.03616819834394 L 23.003999999999998 145.03616819834394 L 23.003999999999998 151.43616819834395 Z " stroke="none" fill-rule="nonzero" fill="#000000" fill-opacity="1" transform="matrix(1,0,0,1,5.05,13.314)" id="text15 l" />
  <path d="M 0 142.30029031845436 L 10 142.30029031845436 L 10 143.80029031845436 L 0 143.80029031845436 Z " stroke="none" fill-rule="evenodd" fill="#000000" fill-opacity="1" transform="matrix(1,0,0,1,5.05,13.314)" id="mark16 l" />
  <path d="M 0 132.08241243856475 L 10 132.08241243856475 L 10 133.58241243856475 L 0 133.58241243856475 Z " stroke="none" fill-rule="evenodd" fill="#000000" fill-opacity="1" transform="matrix(1,0,0,1,5.05,13.314)" id="mark17 l" />
  <path d="M 0 121.86453455867516 L 10 121.86453455867516 L 10 123.36453455867516 L 0 123.36453455867516 Z " stroke="none" fill-rule="evenodd" fill="#000000" fill-opacity="1" transform="matrix(1,0,0,1,5.05,13.314)" id="mark18 l" />
  <path d="M 0 111.64665667878555 L 10 111.64665667878555 L 10 113.14665667878555 L 0 113.14665667878555 Z " stroke="none" fill-rule="evenodd" fill="#000000" fill-opacity="1" transform="matrix(1,0,0,1,5.05,13.314)" id="mark19 l" />
  <path d="M 0 101.42877879889596 L 25 101.42877879889596 L 25 102.92877879889596 L 0 102.92877879889596 Z " stroke="none" fill-rule="evenodd" fill="#000000" fill-opacity="1" transform="matrix(1,0,0,1,5.05,13.314)" id="mark20 l" />
  <path d="M 12.319999999999999 100.37877879889596 C 12.317333333333334 100.2801121322293, 12.315333333333331 100.19144546556264, 12.313999999999998 100.11277879889596 C 12.312666666666665 100.0341121322293, 12.311333333333334 99.9601121322293, 12.309999999999999 99.89077879889597 C 12.308666666666667 99.82144546556263, 12.308 99.74944546556264, 12.308 99.67477879889597 C 12.308 99.6001121322293, 12.308 99.51544546556264, 12.308 99.42077879889597 C 12.308 99.3261121322293, 12.309333333333335 99.21477879889596, 12.312 99.08677879889596 C 12.32 98.79344546556263, 12.37 98.53144546556263, 12.462 98.30077879889596 C 12.554 98.0701121322293, 12.687999999999999 97.86411213222931, 12.863999999999999 97.68277879889597 C 13.04 97.50144546556263, 13.257333333333333 97.3401121322293, 13.515999999999998 97.19877879889596 L 14.047999999999998 96.91077879889596 C 14.234666666666666 96.80944546556262, 14.354 96.68744546556263, 14.405999999999999 96.54477879889596 C 14.457999999999998 96.40211213222929, 14.488 96.2681121322293, 14.495999999999999 96.14277879889596 C 14.506666666666664 95.9961121322293, 14.512666666666664 95.83944546556263, 14.514 95.67277879889596 C 14.51533333333333 95.50611213222929, 14.511999999999997 95.34944546556262, 14.504 95.20277879889596 C 14.498666666666665 95.09877879889596, 14.468666666666666 95.01277879889597, 14.413999999999998 94.94477879889597 C 14.359333333333332 94.87677879889597, 14.279999999999998 94.82811213222931, 14.175999999999998 94.79877879889597 L 14.175999999999998 93.91077879889596 C 14.663999999999998 93.94277879889596, 15.014 94.0741121322293, 15.225999999999999 94.30477879889597 C 15.437999999999999 94.53544546556263, 15.554666666666666 94.89611213222929, 15.575999999999999 95.38677879889596 C 15.578666666666663 95.45077879889595, 15.580666666666666 95.5161121322293, 15.581999999999999 95.58277879889596 C 15.583333333333332 95.64944546556264, 15.584 95.7141121322293, 15.584 95.77677879889596 C 15.584 95.83944546556263, 15.583333333333332 95.90144546556263, 15.581999999999999 95.96277879889597 C 15.580666666666666 96.0241121322293, 15.578666666666663 96.08411213222931, 15.575999999999999 96.14277879889596 C 15.565333333333331 96.4281121322293, 15.512 96.67477879889597, 15.415999999999999 96.88277879889597 C 15.32 97.09077879889597, 15.19 97.27077879889598, 15.026 97.42277879889596 C 14.862 97.57477879889598, 14.672 97.71077879889597, 14.456 97.83077879889596 L 13.851999999999999 98.15877879889597 C 13.737333333333332 98.2201121322293, 13.647333333333332 98.3041121322293, 13.581999999999999 98.41077879889596 C 13.516666666666666 98.51744546556262, 13.469999999999999 98.63077879889596, 13.441999999999998 98.75077879889596 C 13.413999999999998 98.87077879889597, 13.399999999999999 98.98277879889596, 13.399999999999999 99.08677879889596 L 13.399999999999999 100.37877879889596 Z M 12.328 96.33877879889596 C 12.322666666666667 96.22144546556262, 12.318666666666665 96.10677879889597, 12.315999999999999 95.99477879889596 C 12.313333333333333 95.88277879889596, 12.311333333333334 95.77677879889596, 12.309999999999999 95.67677879889597 C 12.308666666666667 95.57677879889596, 12.309333333333335 95.4801121322293, 12.312 95.38677879889596 C 12.330666666666666 94.89877879889596, 12.447333333333333 94.53944546556262, 12.661999999999999 94.30877879889596 C 12.876666666666665 94.0781121322293, 13.213333333333331 93.94544546556263, 13.671999999999999 93.91077879889596 L 13.671999999999999 94.80277879889597 C 13.576 94.8321121322293, 13.505333333333333 94.87877879889598, 13.459999999999999 94.94277879889597 C 13.414666666666665 95.00677879889597, 13.390666666666664 95.0841121322293, 13.387999999999998 95.17477879889597 C 13.382666666666665 95.38277879889597, 13.379333333333333 95.5761121322293, 13.378 95.75477879889597 C 13.376666666666667 95.93344546556264, 13.381333333333334 96.12811213222929, 13.392 96.33877879889596 Z M 13.904 100.37877879889596 L 13.904 99.44677879889596 L 15.5 99.44677879889596 L 15.5 100.37877879889596 Z M 16.196 98.96677879889596 C 16.188000000000002 98.53744546556263, 16.182666666666666 98.12077879889597, 16.18 97.71677879889596 C 16.177333333333333 97.31277879889595, 16.177999999999997 96.91744546556262, 16.182 96.53077879889597 C 16.186 96.14411213222931, 16.190666666666665 95.76277879889597, 16.196 95.38677879889596 C 16.209333333333333 94.94677879889596, 16.334000000000003 94.60144546556263, 16.57 94.35077879889596 C 16.805999999999997 94.1001121322293, 17.142666666666663 93.95477879889597, 17.58 93.91477879889597 L 17.58 94.80277879889597 C 17.382666666666665 94.85877879889597, 17.281333333333333 94.98811213222929, 17.276 95.19077879889596 C 17.262666666666668 95.56144546556263, 17.253333333333334 95.90944546556263, 17.248 96.23477879889596 C 17.242666666666665 96.56011213222928, 17.24 96.87677879889596, 17.24 97.18477879889596 C 17.24 97.49277879889597, 17.242666666666665 97.80744546556264, 17.248 98.12877879889596 C 17.253333333333334 98.4501121322293, 17.262666666666668 98.79344546556263, 17.276 99.15877879889597 C 17.281333333333333 99.36677879889596, 17.382666666666665 99.49877879889596, 17.58 99.55477879889597 L 17.58 100.44277879889596 C 17.142666666666663 100.40277879889597, 16.805999999999997 100.25677879889597, 16.57 100.00477879889597 C 16.334000000000003 99.75277879889597, 16.209333333333333 99.40677879889597, 16.196 98.96677879889596 Z M 18.084 100.44277879889596 L 18.084 99.55077879889596 C 18.268 99.49744546556263, 18.366666666666667 99.37344546556264, 18.38 99.17877879889596 C 18.398666666666667 98.7121121322293, 18.410666666666668 98.26344546556263, 18.416 97.83277879889596 C 18.421333333333333 97.40211213222929, 18.421333333333333 96.97144546556262, 18.416 96.54077879889597 C 18.410666666666668 96.1101121322293, 18.398666666666667 95.65744546556263, 18.38 95.18277879889597 C 18.374666666666666 94.9881121322293, 18.276 94.86144546556264, 18.084 94.80277879889597 L 18.084 93.91477879889597 C 18.513333333333335 93.95477879889597, 18.846666666666668 94.1001121322293, 19.084 94.35077879889596 C 19.321333333333335 94.60144546556263, 19.445333333333334 94.94677879889596, 19.456 95.38677879889596 C 19.46666666666667 95.70144546556264, 19.474666666666668 96.01144546556264, 19.48 96.31677879889597 C 19.485333333333333 96.6221121322293, 19.488 96.92277879889596, 19.488 97.21877879889597 C 19.488 97.51477879889597, 19.485333333333333 97.8081121322293, 19.48 98.09877879889596 C 19.474666666666668 98.38944546556263, 19.46666666666667 98.67877879889596, 19.456 98.96677879889596 C 19.439999999999998 99.41744546556262, 19.311999999999998 99.7661121322293, 19.072 100.01277879889597 C 18.832 100.25944546556264, 18.502666666666666 100.40277879889597, 18.084 100.44277879889596 Z M 21.944 100.37877879889596 L 21.944 93.97877879889596 L 23.003999999999998 93.97877879889596 L 23.003999999999998 100.37877879889596 Z " stroke="none" fill-rule="nonzero" fill="#000000" fill-opacity="1" transform="matrix(1,0,0,1,5.05,13.314)" id="text20 l" />
  <path d="M 0 91.21090091900638 L 10 91.21090091900638 L 10 92.71090091900638 L 0 92.71090091900638 Z " stroke="none" fill-rule="evenodd" fill="#000000" fill-opacity="1" transform="matrix(1,0,0,1,5.05,13.314)" id="mark21 l" />
  <path d="M 0 80.99302303911676 L 10 80.99302303911676 L 10 82.49302303911676 L 0 82.49302303911676 Z " stroke="none" fill-rule="evenodd" fill="#000000" fill-opacity="1" transform="matrix(1,0,0,1,5.05,13.314)" id="mark22 l" />
  <path d="M 0 70.77514515922718 L 10 70.77514515922718 L 10 72.27514515922718 L 0 72.27514515922718 Z " stroke="none" fill-rule="evenodd" fill="#000000" fill-opacity="1" transform="matrix(1,0,0,1,5.05,13.314)" id="mark23 l" />
  <path d="M 0 60.557267279337566 L 10 60.557267279337566 L 10 62.057267279337566 L 0 62.057267279337566 Z " stroke="none" fill-rule="evenodd" fill="#000000" fill-opacity="1" transform="matrix(1,0,0,1,5.05,13.314)" id="mark24 l" />
  <path d="M 0 50.33938939944798 L 25 50.33938939944798 L 25 51.83938939944798 L 0 51.83938939944798 Z " stroke="none" fill-rule="evenodd" fill="#000000" fill-opacity="1" transform="matrix(1,0,0,1,5.05,13.314)" id="mark25 l" />
  <path d="M 12.328 49.289389399447984 C 12.325333333333333 49.19072273278131, 12.323333333333332 49.10205606611465, 12.322 49.023389399447986 C 12.320666666666666 48.944722732781315, 12.319333333333333 48.87072273278132, 12.318 48.801389399447984 C 12.316666666666666 48.73205606611465, 12.315999999999999 48.66005606611465, 12.316 48.58538939944798 C 12.315999999999999 48.51072273278132, 12.315999999999999 48.426056066114654, 12.316 48.331389399447986 C 12.315999999999999 48.23672273278132, 12.317333333333334 48.12538939944798, 12.32 47.99738939944798 C 12.328 47.70405606611465, 12.378 47.44205606611465, 12.47 47.21138939944798 C 12.562000000000001 46.98072273278132, 12.696 46.77472273278132, 12.872 46.593389399447986 C 13.048 46.41205606611465, 13.265333333333334 46.25072273278131, 13.524000000000001 46.109389399447984 L 14.056000000000001 45.82138939944798 C 14.242666666666668 45.72005606611465, 14.362000000000002 45.59805606611465, 14.414 45.45538939944798 C 14.466000000000001 45.31272273278132, 14.495999999999999 45.17872273278132, 14.504 45.05338939944799 C 14.514666666666667 44.90672273278132, 14.520666666666667 44.750056066114645, 14.522 44.58338939944798 C 14.523333333333333 44.41672273278132, 14.520000000000001 44.26005606611465, 14.512 44.11338939944798 C 14.506666666666666 44.00938939944798, 14.476666666666667 43.923389399447984, 14.422 43.855389399447986 C 14.367333333333335 43.78738939944798, 14.288 43.73872273278132, 14.184000000000001 43.709389399447986 L 14.184000000000001 42.82138939944798 C 14.672 42.853389399447984, 15.022000000000002 42.98472273278132, 15.234 43.215389399447986 C 15.446000000000002 43.44605606611465, 15.562666666666667 43.80672273278132, 15.584 44.29738939944799 C 15.586666666666668 44.36138939944799, 15.588666666666668 44.426722732781315, 15.59 44.493389399447985 C 15.591333333333335 44.560056066114655, 15.592000000000002 44.624722732781315, 15.592 44.68738939944798 C 15.592000000000002 44.750056066114645, 15.591333333333335 44.81205606611465, 15.59 44.87338939944799 C 15.588666666666668 44.934722732781324, 15.586666666666668 44.99472273278132, 15.584 45.05338939944799 C 15.573333333333332 45.33872273278132, 15.52 45.58538939944798, 15.424 45.79338939944798 C 15.328 46.00138939944799, 15.197999999999999 46.18138939944798, 15.033999999999999 46.33338939944798 C 14.87 46.48538939944798, 14.68 46.621389399447985, 14.464 46.74138939944798 L 13.86 47.069389399447985 C 13.745333333333335 47.13072273278132, 13.655333333333335 47.21472273278132, 13.59 47.32138939944798 C 13.524666666666668 47.42805606611465, 13.478000000000002 47.54138939944798, 13.45 47.661389399447984 C 13.422 47.78138939944799, 13.408 47.89338939944798, 13.408 47.99738939944798 L 13.408 49.289389399447984 Z M 12.336 45.249389399447985 C 12.330666666666666 45.13205606611465, 12.326666666666664 45.01738939944798, 12.324 44.905389399447984 C 12.321333333333332 44.79338939944799, 12.319333333333333 44.68738939944799, 12.318 44.587389399447986 C 12.316666666666666 44.487389399447984, 12.317333333333334 44.39072273278131, 12.32 44.29738939944799 C 12.338666666666668 43.80938939944798, 12.455333333333336 43.45005606611465, 12.67 43.219389399447984 C 12.884666666666668 42.98872273278132, 13.221333333333334 42.856056066114654, 13.68 42.82138939944798 L 13.68 43.71338939944798 C 13.584 43.74272273278132, 13.513333333333332 43.789389399447984, 13.468 43.853389399447984 C 13.422666666666668 43.917389399447984, 13.398666666666667 43.99472273278131, 13.396 44.08538939944798 C 13.390666666666666 44.29338939944798, 13.387333333333332 44.48672273278132, 13.386 44.66538939944798 C 13.384666666666666 44.844056066114646, 13.389333333333333 45.038722732781316, 13.4 45.249389399447985 Z M 13.911999999999999 49.289389399447984 L 13.911999999999999 48.35738939944798 L 15.508 48.35738939944798 L 15.508 49.289389399447984 Z M 16.18 47.87338939944799 C 16.174666666666667 47.700056066114655, 16.173333333333332 47.560722732781315, 16.176 47.45538939944798 C 16.178666666666665 47.350056066114654, 16.181333333333335 47.24805606611465, 16.183999999999997 47.14938939944798 L 17.264 47.14938939944798 C 17.256 47.22672273278132, 17.25 47.322722732781315, 17.246 47.43738939944799 C 17.241999999999997 47.55205606611465, 17.240666666666666 47.66272273278132, 17.241999999999997 47.76938939944798 C 17.243333333333332 47.87605606611465, 17.246666666666666 47.956056066114655, 17.252 48.00938939944798 C 17.262666666666668 48.12938939944798, 17.297333333333334 48.227389399447986, 17.355999999999998 48.30338939944799 C 17.414666666666665 48.37938939944799, 17.497333333333334 48.43338939944798, 17.604 48.465389399447986 L 17.604 49.35738939944798 C 17.110666666666663 49.320056066114645, 16.75333333333333 49.185389399447985, 16.532 48.953389399447985 C 16.310666666666666 48.721389399447986, 16.19333333333333 48.36138939944799, 16.18 47.87338939944799 Z M 16.279999999999998 46.53738939944798 L 16.279999999999998 42.889389399447985 L 17.348 42.889389399447985 L 17.348 46.53738939944798 Z M 17.852 46.11338939944798 L 17.852 45.35738939944798 C 17.929333333333332 45.31738939944799, 18.014666666666667 45.285389399447986, 18.107999999999997 45.261389399447985 C 18.20133333333333 45.237389399447984, 18.301333333333332 45.225389399447984, 18.407999999999998 45.225389399447984 C 18.773333333333333 45.225389399447984, 19.047333333333334 45.340722732781316, 19.23 45.57138939944798 C 19.412666666666667 45.80205606611465, 19.514666666666663 46.11605606611465, 19.535999999999998 46.51338939944799 C 19.546666666666667 46.673389399447984, 19.55333333333333 46.83205606611465, 19.555999999999997 46.98938939944799 C 19.558666666666664 47.14672273278132, 19.557333333333332 47.30005606611465, 19.552 47.44938939944798 C 19.546666666666667 47.59872273278131, 19.538666666666668 47.73872273278131, 19.528 47.86938939944798 C 19.482666666666667 48.368056066114654, 19.353333333333335 48.73338939944799, 19.14 48.965389399447986 C 18.926666666666666 49.197389399447985, 18.581333333333333 49.328056066114655, 18.104 49.35738939944798 L 18.104 48.465389399447986 C 18.21333333333333 48.43605606611465, 18.296 48.383389399447985, 18.352 48.307389399447985 C 18.408 48.231389399447984, 18.44 48.13205606611465, 18.448 48.00938939944798 C 18.471999999999998 47.718722732781316, 18.485999999999997 47.45738939944798, 18.49 47.225389399447984 C 18.494 46.993389399447985, 18.485333333333333 46.77205606611465, 18.464 46.56138939944798 C 18.447999999999997 46.40672273278132, 18.396666666666665 46.29138939944798, 18.31 46.215389399447986 C 18.223333333333333 46.13938939944798, 18.090666666666664 46.10138939944798, 17.912 46.10138939944798 C 17.901333333333334 46.10138939944798, 17.890666666666668 46.10272273278132, 17.88 46.105389399447986 C 17.86933333333333 46.10805606611465, 17.86 46.11072273278132, 17.852 46.11338939944798 Z M 17.852 43.82138939944798 L 17.852 42.889389399447985 L 19.439999999999998 42.889389399447985 L 19.439999999999998 43.82138939944798 Z M 21.944 49.289389399447984 L 21.944 42.889389399447985 L 23.003999999999998 42.889389399447985 L 23.003999999999998 49.289389399447984 Z " stroke="none" fill-rule="nonzero" fill="#000000" fill-opacity="1" transform="matrix(1,0,0,1,5.05,13.314)" id="text25 l" />
  <path d="M 0 40.121511519558396 L 10 40.121511519558396 L 10 41.621511519558396 L 0 41.621511519558396 Z " stroke="none" fill-rule="evenodd" fill="#000000" fill-opacity="1" transform="matrix(1,0,0,1,5.05,13.314)" id="mark26 l" />
  <path d="M 0 29.903633639668783 L 10 29.903633639668783 L 10 31.403633639668783 L 0 31.403633639668783 Z " stroke="none" fill-rule="evenodd" fill="#000000" fill-opacity="1" transform="matrix(1,0,0,1,5.05,13.314)" id="mark27 l" />
  <path d="M 0 19.68575575977917 L 10 19.68575575977917 L 10 21.18575575977917 L 0 21.18575575977917 Z " stroke="none" fill-rule="evenodd" fill="#000000" fill-opacity="1" transform="matrix(1,0,0,1,5.05,13.314)" id="mark28 l" />
  <path d="M 0 9.467877879889613 L 10 9.467877879889613 L 10 10.967877879889613 L 0 10.967877879889613 Z " stroke="none" fill-rule="evenodd" fill="#000000" fill-opacity="1" transform="matrix(1,0,0,1,5.05,13.314)" id="mark29 l" />
  <path d="M 0 -0.75 L 25 -0.75 L 25 0.75 L 0 0.75 Z " stroke="none" fill-rule="evenodd" fill="#000000" fill-opacity="1" transform="matrix(1,0,0,1,5.05,13.314)" id="mark30 l" />
  <path d="M 12.223999999999998 -3.2159999999999997 C 12.221333333333334 -3.317333333333333, 12.219333333333333 -3.4013333333333335, 12.218 -3.468 C 12.216666666666667 -3.5346666666666664, 12.216666666666667 -3.602666666666666, 12.218 -3.6719999999999997 C 12.219333333333333 -3.7413333333333334, 12.221333333333334 -3.8306666666666667, 12.223999999999998 -3.94 L 13.303999999999998 -3.94 L 13.303999999999998 -3.0759999999999996 C 13.303999999999998 -2.8386666666666667, 13.417333333333332 -2.6879999999999997, 13.643999999999998 -2.6239999999999997 L 13.643999999999998 -1.7319999999999998 C 13.155999999999999 -1.7693333333333332, 12.800666666666665 -1.904, 12.578 -2.1359999999999997 C 12.355333333333334 -2.368, 12.237333333333332 -2.7279999999999998, 12.223999999999998 -3.2159999999999997 Z M 12.292 -7.268 L 12.292 -8.2 L 15.536 -8.2 L 15.536 -7.268 Z M 14.143999999999998 -2.6199999999999997 C 14.367999999999999 -2.6759999999999997, 14.483999999999998 -2.826666666666666, 14.491999999999999 -3.072 C 14.497333333333334 -3.2746666666666666, 14.500666666666666 -3.4573333333333336, 14.501999999999999 -3.62 C 14.503333333333332 -3.7826666666666666, 14.498666666666665 -3.94, 14.488 -4.092 C 14.48 -4.2493333333333325, 14.431999999999999 -4.382666666666666, 14.344 -4.492 C 14.256 -4.601333333333333, 14.089333333333332 -4.653333333333332, 13.844 -4.648 L 13.096 -4.64 L 13.068 -5.532 L 14.027999999999999 -6.9159999999999995 L 15.216 -6.9159999999999995 L 14.248 -5.564 L 14.28 -5.564 C 14.712 -5.564, 15.028666666666666 -5.441333333333334, 15.229999999999999 -5.196 C 15.431333333333333 -4.950666666666666, 15.544 -4.573333333333332, 15.568 -4.064 C 15.57333333333333 -3.992, 15.576666666666664 -3.92, 15.578 -3.848 C 15.57933333333333 -3.776, 15.579999999999998 -3.705333333333333, 15.579999999999998 -3.6359999999999997 C 15.579999999999998 -3.5666666666666664, 15.57933333333333 -3.4973333333333336, 15.578 -3.428 C 15.576666666666664 -3.3586666666666662, 15.57333333333333 -3.2879999999999994, 15.568 -3.2159999999999997 C 15.549333333333333 -2.7199999999999998, 15.428666666666665 -2.3553333333333333, 15.206 -2.122 C 14.983333333333334 -1.8886666666666665, 14.630666666666666 -1.7586666666666664, 14.148 -1.7319999999999998 Z M 16.196 -3.2119999999999997 C 16.188000000000002 -3.641333333333333, 16.182666666666666 -4.058, 16.18 -4.462 C 16.177333333333333 -4.866, 16.177999999999997 -5.261333333333333, 16.182 -5.648 C 16.186 -6.034666666666666, 16.190666666666665 -6.416, 16.196 -6.792 C 16.209333333333333 -7.231999999999999, 16.334000000000003 -7.577333333333334, 16.57 -7.828 C 16.805999999999997 -8.078666666666667, 17.142666666666663 -8.224, 17.58 -8.264 L 17.58 -7.3759999999999994 C 17.382666666666665 -7.32, 17.281333333333333 -7.190666666666667, 17.276 -6.9879999999999995 C 17.262666666666668 -6.617333333333333, 17.253333333333334 -6.269333333333333, 17.248 -5.944 C 17.242666666666665 -5.618666666666666, 17.24 -5.302, 17.24 -4.994 C 17.24 -4.686, 17.242666666666665 -4.371333333333333, 17.248 -4.05 C 17.253333333333334 -3.7286666666666664, 17.262666666666668 -3.3853333333333326, 17.276 -3.0199999999999996 C 17.281333333333333 -2.812, 17.382666666666665 -2.6799999999999997, 17.58 -2.6239999999999997 L 17.58 -1.7359999999999998 C 17.142666666666663 -1.7759999999999998, 16.805999999999997 -1.9219999999999997, 16.57 -2.174 C 16.334000000000003 -2.4259999999999997, 16.209333333333333 -2.772, 16.196 -3.2119999999999997 Z M 18.084 -1.7359999999999998 L 18.084 -2.6279999999999997 C 18.268 -2.681333333333333, 18.366666666666667 -2.8053333333333335, 18.38 -3 C 18.398666666666667 -3.4666666666666663, 18.410666666666668 -3.915333333333333, 18.416 -4.346 C 18.421333333333333 -4.776666666666666, 18.421333333333333 -5.207333333333333, 18.416 -5.638 C 18.410666666666668 -6.068666666666666, 18.398666666666667 -6.521333333333333, 18.38 -6.9959999999999996 C 18.374666666666666 -7.190666666666667, 18.276 -7.317333333333334, 18.084 -7.3759999999999994 L 18.084 -8.264 C 18.513333333333335 -8.224, 18.846666666666668 -8.078666666666667, 19.084 -7.828 C 19.321333333333335 -7.577333333333334, 19.445333333333334 -7.231999999999999, 19.456 -6.792 C 19.46666666666667 -6.477333333333332, 19.474666666666668 -6.167333333333333, 19.48 -5.861999999999999 C 19.485333333333333 -5.556666666666667, 19.488 -5.256, 19.488 -4.96 C 19.488 -4.664, 19.485333333333333 -4.370666666666667, 19.48 -4.08 C 19.474666666666668 -3.7893333333333334, 19.46666666666667 -3.5, 19.456 -3.2119999999999997 C 19.439999999999998 -2.761333333333333, 19.311999999999998 -2.4126666666666665, 19.072 -2.166 C 18.832 -1.9193333333333331, 18.502666666666666 -1.7759999999999998, 18.084 -1.7359999999999998 Z M 21.944 -1.7999999999999998 L 21.944 -8.2 L 23.003999999999998 -8.2 L 23.003999999999998 -1.7999999999999998 Z " stroke="none" fill-rule="nonzero" fill="#000000" fill-opacity="1" transform="matrix(1,0,0,1,5.05,13.314)" id="text30 l" />
  <path d="M -5 -13.264 L 30 -13.264 L 30 303.08645851679825 L -5 303.08645851679825 Z " stroke="#FF0000" stroke-opacity="1" stroke-width="0.1" stroke-linecap="butt" stroke-linejoin="miter" fill="none" transform="matrix(1,0,0,1,5.05,13.314)" />
</svg>