<?xml version="1.0" encoding="UTF-8"?>
<svg xmlns:xlink="http://www.w3.org/1999/xlink" viewBox="0 0 35.1 335.18685515476824" version="1.1" style="font-synthesis: none;" width="35.1mm" height="335.18685515476824mm" xmlns="http://www.w3.org/2000/svg">
  <defs />
  <style>	</style>
  <path d="M 0 0 L 35.1 0 L 35.1 335.18685515476824 L 0 335.18685515476824 Z " stroke="none" fill-rule="nonzero" fill="#FFFFFF" fill-opacity="1" transform="matrix(1,0,0,1,0,0)" />
  <path d="M 0 314.30485515476823 L 10 314.30485515476823 L 10 315.80485515476823 L 0 315.80485515476823 Z " stroke="none" fill-rule="evenodd" fill="#000000" fill-opacity="1" transform="matrix(1,0,0,1,5.05,13.314)" id="mark1 l" />
  <path d="M 0 307.87516423324234 L 10 307.87516423324234 L 10 309.37516423324234 L 0 309.37516423324234 Z " stroke="none" fill-rule="evenodd" fill="#000000" fill-opacity="1" transform="matrix(1,0,0,1,5.05,13.314)" id="mark2 l" />
  <path d="M 0 301.44547331171646 L 10 301.44547331171646 L 10 302.94547331171646 L 0 302.94547331171646 Z " stroke="none" fill-rule="evenodd" fill="#000000" fill-opacity="1" transform="matrix(1,0,0,1,5.05,13.314)" id="mark3 l" />
  <path d="M 0 295.01578239019057 L 10 295.01578239019057 L 10 296.51578239019057 L 0 296.51578239019057 Z " stroke="none" fill-rule="evenodd" fill="#000000" fill-opacity="1" transform="matrix(1,0,0,1,5.05,13.314)" id="mark4 l" />
  <path d="M 0 288.58609146866473 L 25 288.58609146866473 L 25 290.08609146866473 L 0 290.08609146866473 Z " stroke="none" fill-rule="evenodd" fill="#000000" fill-opacity="1" transform="matrix(1,0,0,1,5.05,13.314)" id="mark5 l" />
  <path d="M 16.18 286.08809146866474 C 16.174666666666667 285.9147581353314, 16.173333333333332 285.77542480199804, 16.176 285.67009146866474 C 16.178666666666665 285.56475813533143, 16.181333333333335 285.4627581353314, 16.183999999999997 285.36409146866475 L 17.264 285.36409146866475 C 17.256 285.4414248019981, 17.25 285.5374248019981, 17.246 285.65209146866476 C 17.241999999999997 285.76675813533143, 17.240666666666666 285.8774248019981, 17.241999999999997 285.98409146866476 C 17.243333333333332 286.0907581353314, 17.246666666666666 286.1707581353314, 17.252 286.22409146866477 C 17.262666666666668 286.3440914686647, 17.297333333333334 286.4420914686647, 17.355999999999998 286.51809146866475 C 17.414666666666665 286.5940914686647, 17.497333333333334 286.64809146866475, 17.604 286.6800914686647 L 17.604 287.5720914686647 C 17.110666666666663 287.5347581353314, 16.75333333333333 287.40009146866475, 16.532 287.1680914686647 C 16.310666666666666 286.9360914686647, 16.19333333333333 286.57609146866474, 16.18 286.08809146866474 Z M 16.279999999999998 284.75209146866473 L 16.279999999999998 281.10409146866476 L 17.348 281.10409146866476 L 17.348 284.75209146866473 Z M 17.852 284.32809146866475 L 17.852 283.5720914686647 C 17.929333333333332 283.5320914686647, 18.014666666666667 283.5000914686647, 18.107999999999997 283.4760914686647 C 18.20133333333333 283.4520914686647, 18.301333333333332 283.4400914686647, 18.407999999999998 283.4400914686647 C 18.773333333333333 283.4400914686647, 19.047333333333334 283.5554248019981, 19.23 283.7860914686647 C 19.412666666666667 284.0167581353314, 19.514666666666663 284.3307581353314, 19.535999999999998 284.72809146866473 C 19.546666666666667 284.88809146866475, 19.55333333333333 285.0467581353314, 19.555999999999997 285.2040914686647 C 19.558666666666664 285.36142480199806, 19.557333333333332 285.5147581353314, 19.552 285.66409146866476 C 19.546666666666667 285.8134248019981, 19.538666666666668 285.9534248019981, 19.528 286.0840914686647 C 19.482666666666667 286.5827581353314, 19.353333333333335 286.94809146866476, 19.14 287.1800914686647 C 18.926666666666666 287.4120914686647, 18.581333333333333 287.5427581353314, 18.104 287.5720914686647 L 18.104 286.6800914686647 C 18.21333333333333 286.6507581353314, 18.296 286.59809146866473, 18.352 286.5220914686647 C 18.408 286.4460914686647, 18.44 286.3467581353314, 18.448 286.22409146866477 C 18.471999999999998 285.93342480199806, 18.485999999999997 285.67209146866475, 18.49 285.4400914686647 C 18.494 285.20809146866475, 18.485333333333333 284.98675813533146, 18.464 284.77609146866473 C 18.447999999999997 284.62142480199805, 18.396666666666665 284.50609146866475, 18.31 284.4300914686647 C 18.223333333333333 284.35409146866476, 18.090666666666664 284.31609146866475, 17.912 284.31609146866475 C 17.901333333333334 284.31609146866475, 17.890666666666668 284.3174248019981, 17.88 284.3200914686647 C 17.86933333333333 284.3227581353314, 17.86 284.32542480199805, 17.852 284.32809146866475 Z M 17.852 282.0360914686647 L 17.852 281.10409146866476 L 19.439999999999998 281.10409146866476 L 19.439999999999998 282.0360914686647 Z M 21.944 287.50409146866474 L 21.944 281.10409146866476 L 23.003999999999998 281.10409146866476 L 23.003999999999998 287.50409146866474 Z " stroke="none" fill-rule="nonzero" fill="#000000" fill-opacity="1" transform="matrix(1,0,0,1,5.05,13.314)" id="text5 l" />
  <path d="M 0 282.15640054713884 L 10 282.15640054713884 L 10 283.65640054713884 L 0 283.65640054713884 Z " stroke="none" fill-rule="evenodd" fill="#000000" fill-opacity="1" transform="matrix(1,0,0,1,5.05,13.314)" id="mark6 l" />
  <path d="M 0 275.72670962561295 L 10 275.72670962561295 L 10 277.22670962561295 L 0 277.22670962561295 Z " stroke="none" fill-rule="evenodd" fill="#000000" fill-opacity="1" transform="matrix(1,0,0,1,5.05,13.314)" id="mark7 l" />
  <path d="M 0 269.29701870408707 L 10 269.29701870408707 L 10 270.79701870408707 L 0 270.79701870408707 Z " stroke="none" fill-rule="evenodd" fill="#000000" fill-opacity="1" transform="matrix(1,0,0,1,5.05,13.314)" id="mark8 l" />
  <path d="M 0 262.8673277825612 L 10 262.8673277825612 L 10 264.3673277825612 L 0 264.3673277825612 Z " stroke="none" fill-rule="evenodd" fill="#000000" fill-opacity="1" transform="matrix(1,0,0,1,5.05,13.314)" id="mark9 l" />
  <path d="M 0 256.4376368610353 L 25 256.4376368610353 L 25 257.9376368610353 L 0 257.9376368610353 Z " stroke="none" fill-rule="evenodd" fill="#000000" fill-opacity="1" transform="matrix(1,0,0,1,5.05,13.314)" id="mark10 l" />
  <path d="M 14.323999999999998 255.3876368610353 L 14.323999999999998 249.94363686103532 L 13.871999999999998 249.94363686103532 L 13.839999999999998 249.5636368610353 L 14.543999999999999 248.9876368610353 L 15.424 248.9876368610353 L 15.424 255.3876368610353 Z M 16.196 253.9756368610353 C 16.188000000000002 253.54630352770198, 16.182666666666666 253.1296368610353, 16.18 252.7256368610353 C 16.177333333333333 252.3216368610353, 16.177999999999997 251.92630352770198, 16.182 251.5396368610353 C 16.186 251.15297019436863, 16.190666666666665 250.7716368610353, 16.196 250.3956368610353 C 16.209333333333333 249.95563686103532, 16.334000000000003 249.61030352770197, 16.57 249.3596368610353 C 16.805999999999997 249.10897019436865, 17.142666666666663 248.9636368610353, 17.58 248.9236368610353 L 17.58 249.8116368610353 C 17.382666666666665 249.86763686103532, 17.281333333333333 249.99697019436866, 17.276 250.19963686103532 C 17.262666666666668 250.57030352770198, 17.253333333333334 250.918303527702, 17.248 251.2436368610353 C 17.242666666666665 251.56897019436866, 17.24 251.88563686103532, 17.24 252.19363686103532 C 17.24 252.5016368610353, 17.242666666666665 252.81630352770196, 17.248 253.1376368610353 C 17.253333333333334 253.45897019436865, 17.262666666666668 253.80230352770198, 17.276 254.1676368610353 C 17.281333333333333 254.3756368610353, 17.382666666666665 254.50763686103528, 17.58 254.5636368610353 L 17.58 255.4516368610353 C 17.142666666666663 255.4116368610353, 16.805999999999997 255.26563686103532, 16.57 255.0136368610353 C 16.334000000000003 254.7616368610353, 16.209333333333333 254.4156368610353, 16.196 253.9756368610353 Z M 18.084 255.4516368610353 L 18.084 254.5596368610353 C 18.268 254.50630352770196, 18.366666666666667 254.382303527702, 18.38 254.18763686103532 C 18.398666666666667 253.72097019436865, 18.410666666666668 253.27230352770198, 18.416 252.8416368610353 C 18.421333333333333 252.41097019436864, 18.421333333333333 251.98030352770195, 18.416 251.5496368610353 C 18.410666666666668 251.11897019436861, 18.398666666666667 250.66630352770196, 18.38 250.1916368610353 C 18.374666666666666 249.99697019436863, 18.276 249.87030352770196, 18.084 249.8116368610353 L 18.084 248.9236368610353 C 18.513333333333335 248.9636368610353, 18.846666666666668 249.10897019436865, 19.084 249.3596368610353 C 19.321333333333335 249.61030352770197, 19.445333333333334 249.95563686103532, 19.456 250.3956368610353 C 19.46666666666667 250.71030352770197, 19.474666666666668 251.02030352770197, 19.48 251.3256368610353 C 19.485333333333333 251.63097019436862, 19.488 251.93163686103532, 19.488 252.2276368610353 C 19.488 252.5236368610353, 19.485333333333333 252.81697019436865, 19.48 253.1076368610353 C 19.474666666666668 253.39830352770196, 19.46666666666667 253.6876368610353, 19.456 253.9756368610353 C 19.439999999999998 254.42630352770198, 19.311999999999998 254.77497019436862, 19.072 255.0216368610353 C 18.832 255.26830352770196, 18.502666666666666 255.4116368610353, 18.084 255.4516368610353 Z M 21.944 255.3876368610353 L 21.944 248.9876368610353 L 23.003999999999998 248.9876368610353 L 23.003999999999998 255.3876368610353 Z " stroke="none" fill-rule="nonzero" fill="#000000" fill-opacity="1" transform="matrix(1,0,0,1,5.05,13.314)" id="text10 l" />
  <path d="M 0 250.0079459395094 L 10 250.0079459395094 L 10 251.5079459395094 L 0 251.5079459395094 Z " stroke="none" fill-rule="evenodd" fill="#000000" fill-opacity="1" transform="matrix(1,0,0,1,5.05,13.314)" id="mark11 l" />
  <path d="M 0 243.57825501798354 L 10 243.57825501798354 L 10 245.07825501798354 L 0 245.07825501798354 Z " stroke="none" fill-rule="evenodd" fill="#000000" fill-opacity="1" transform="matrix(1,0,0,1,5.05,13.314)" id="mark12 l" />
  <path d="M 0 237.14856409645765 L 10 237.14856409645765 L 10 238.64856409645765 L 0 238.64856409645765 Z " stroke="none" fill-rule="evenodd" fill="#000000" fill-opacity="1" transform="matrix(1,0,0,1,5.05,13.314)" id="mark13 l" />
  <path d="M 0 230.7188731749318 L 10 230.7188731749318 L 10 232.2188731749318 L 0 232.2188731749318 Z " stroke="none" fill-rule="evenodd" fill="#000000" fill-opacity="1" transform="matrix(1,0,0,1,5.05,13.314)" id="mark14 l" />
  <path d="M 0 224.2891822534059 L 25 224.2891822534059 L 25 225.7891822534059 L 0 225.7891822534059 Z " stroke="none" fill-rule="evenodd" fill="#000000" fill-opacity="1" transform="matrix(1,0,0,1,5.05,13.314)" id="mark15 l" />
  <path d="M 14.331999999999999 223.2071822534059 L 14.331999999999999 217.76318225340592 L 13.879999999999999 217.76318225340592 L 13.847999999999999 217.3831822534059 L 14.552 216.8071822534059 L 15.432 216.8071822534059 L 15.432 223.2071822534059 Z M 16.18 221.7911822534059 C 16.174666666666667 221.61784892007256, 16.173333333333332 221.47851558673926, 16.176 221.3731822534059 C 16.178666666666665 221.2678489200726, 16.181333333333335 221.16584892007256, 16.183999999999997 221.06718225340592 L 17.264 221.06718225340592 C 17.256 221.14451558673926, 17.25 221.24051558673926, 17.246 221.3551822534059 C 17.241999999999997 221.4698489200726, 17.240666666666666 221.58051558673924, 17.241999999999997 221.6871822534059 C 17.243333333333332 221.79384892007255, 17.246666666666666 221.87384892007253, 17.252 221.9271822534059 C 17.262666666666668 222.04718225340588, 17.297333333333334 222.1451822534059, 17.355999999999998 222.2211822534059 C 17.414666666666665 222.29718225340588, 17.497333333333334 222.35118225340588, 17.604 222.3831822534059 L 17.604 223.27518225340592 C 17.110666666666663 223.23784892007257, 16.75333333333333 223.1031822534059, 16.532 222.8711822534059 C 16.310666666666666 222.6391822534059, 16.19333333333333 222.2791822534059, 16.18 221.7911822534059 Z M 16.279999999999998 220.4551822534059 L 16.279999999999998 216.8071822534059 L 17.348 216.8071822534059 L 17.348 220.4551822534059 Z M 17.852 220.03118225340592 L 17.852 219.27518225340592 C 17.929333333333332 219.23518225340592, 18.014666666666667 219.20318225340588, 18.107999999999997 219.1791822534059 C 18.20133333333333 219.15518225340588, 18.301333333333332 219.14318225340588, 18.407999999999998 219.1431822534059 C 18.773333333333333 219.14318225340588, 19.047333333333334 219.25851558673924, 19.23 219.48918225340591 C 19.412666666666667 219.71984892007256, 19.514666666666663 220.03384892007256, 19.535999999999998 220.4311822534059 C 19.546666666666667 220.5911822534059, 19.55333333333333 220.74984892007257, 19.555999999999997 220.9071822534059 C 19.558666666666664 221.06451558673922, 19.557333333333332 221.21784892007258, 19.552 221.3671822534059 C 19.546666666666667 221.51651558673922, 19.538666666666668 221.65651558673926, 19.528 221.78718225340592 C 19.482666666666667 222.28584892007257, 19.353333333333335 222.65118225340592, 19.14 222.8831822534059 C 18.926666666666666 223.11518225340592, 18.581333333333333 223.24584892007258, 18.104 223.27518225340592 L 18.104 222.3831822534059 C 18.21333333333333 222.35384892007258, 18.296 222.3011822534059, 18.352 222.2251822534059 C 18.408 222.1491822534059, 18.44 222.04984892007258, 18.448 221.9271822534059 C 18.471999999999998 221.63651558673922, 18.485999999999997 221.3751822534059, 18.49 221.1431822534059 C 18.494 220.9111822534059, 18.485333333333333 220.68984892007256, 18.464 220.4791822534059 C 18.447999999999997 220.3245155867392, 18.396666666666665 220.20918225340588, 18.31 220.1331822534059 C 18.223333333333333 220.0571822534059, 18.090666666666664 220.01918225340592, 17.912 220.01918225340592 C 17.901333333333334 220.01918225340592, 17.890666666666668 220.02051558673924, 17.88 220.0231822534059 C 17.86933333333333 220.02584892007258, 17.86 220.02851558673925, 17.852 220.03118225340592 Z M 17.852 217.73918225340591 L 17.852 216.8071822534059 L 19.439999999999998 216.8071822534059 L 19.439999999999998 217.73918225340591 Z M 21.944 223.2071822534059 L 21.944 216.8071822534059 L 23.003999999999998 216.8071822534059 L 23.003999999999998 223.2071822534059 Z " stroke="none" fill-rule="nonzero" fill="#000000" fill-opacity="1" transform="matrix(1,0,0,1,5.05,13.314)" id="text15 l" />
  <path d="M 0 217.85949133188 L 10 217.85949133188 L 10 219.35949133188 L 0 219.35949133188 Z " stroke="none" fill-rule="evenodd" fill="#000000" fill-opacity="1" transform="matrix(1,0,0,1,5.05,13.314)" id="mark16 l" />
  <path d="M 0 211.42980041035412 L 10 211.42980041035412 L 10 212.92980041035412 L 0 212.92980041035412 Z " stroke="none" fill-rule="evenodd" fill="#000000" fill-opacity="1" transform="matrix(1,0,0,1,5.05,13.314)" id="mark17 l" />
  <path d="M 0 205.00010948882823 L 10 205.00010948882823 L 10 206.50010948882823 L 0 206.50010948882823 Z " stroke="none" fill-rule="evenodd" fill="#000000" fill-opacity="1" transform="matrix(1,0,0,1,5.05,13.314)" id="mark18 l" />
  <path d="M 0 198.57041856730234 L 10 198.57041856730234 L 10 200.07041856730234 L 0 200.07041856730234 Z " stroke="none" fill-rule="evenodd" fill="#000000" fill-opacity="1" transform="matrix(1,0,0,1,5.05,13.314)" id="mark19 l" />
  <path d="M 0 192.14072764577648 L 25 192.14072764577648 L 25 193.64072764577648 L 0 193.64072764577648 Z " stroke="none" fill-rule="evenodd" fill="#000000" fill-opacity="1" transform="matrix(1,0,0,1,5.05,13.314)" id="mark20 l" />
  <path d="M 12.319999999999999 191.0907276457765 C 12.317333333333334 190.99206097910982, 12.315333333333331 190.90339431244317, 12.313999999999998 190.8247276457765 C 12.312666666666665 190.74606097910984, 12.311333333333334 190.67206097910983, 12.309999999999999 190.6027276457765 C 12.308666666666667 190.53339431244316, 12.308 190.46139431244316, 12.308 190.3867276457765 C 12.308 190.31206097910982, 12.308 190.22739431244315, 12.308 190.1327276457765 C 12.308 190.03806097910984, 12.309333333333335 189.9267276457765, 12.312 189.7987276457765 C 12.32 189.50539431244317, 12.37 189.24339431244317, 12.462 189.0127276457765 C 12.554 188.78206097910981, 12.687999999999999 188.57606097910983, 12.863999999999999 188.3947276457765 C 13.04 188.21339431244317, 13.257333333333333 188.05206097910983, 13.515999999999998 187.9107276457765 L 14.047999999999998 187.6227276457765 C 14.234666666666666 187.52139431244316, 14.354 187.39939431244315, 14.405999999999999 187.2567276457765 C 14.457999999999998 187.11406097910984, 14.488 186.98006097910985, 14.495999999999999 186.8547276457765 C 14.506666666666664 186.70806097910986, 14.512666666666664 186.55139431244316, 14.514 186.3847276457765 C 14.51533333333333 186.21806097910985, 14.511999999999997 186.06139431244316, 14.504 185.9147276457765 C 14.498666666666665 185.81072764577652, 14.468666666666666 185.7247276457765, 14.413999999999998 185.6567276457765 C 14.359333333333332 185.5887276457765, 14.279999999999998 185.54006097910982, 14.175999999999998 185.51072764577648 L 14.175999999999998 184.6227276457765 C 14.663999999999998 184.65472764577652, 15.014 184.78606097910983, 15.225999999999999 185.01672764577648 C 15.437999999999999 185.24739431244316, 15.554666666666666 185.60806097910984, 15.575999999999999 186.0987276457765 C 15.578666666666663 186.1627276457765, 15.580666666666666 186.22806097910984, 15.581999999999999 186.2947276457765 C 15.583333333333332 186.36139431244317, 15.584 186.42606097910982, 15.584 186.4887276457765 C 15.584 186.55139431244316, 15.583333333333332 186.61339431244318, 15.581999999999999 186.6747276457765 C 15.580666666666666 186.73606097910982, 15.578666666666663 186.79606097910982, 15.575999999999999 186.8547276457765 C 15.565333333333331 187.14006097910982, 15.512 187.3867276457765, 15.415999999999999 187.5947276457765 C 15.32 187.80272764577649, 15.19 187.9827276457765, 15.026 188.1347276457765 C 14.862 188.2867276457765, 14.672 188.4227276457765, 14.456 188.5427276457765 L 13.851999999999999 188.8707276457765 C 13.737333333333332 188.93206097910985, 13.647333333333332 189.01606097910985, 13.581999999999999 189.1227276457765 C 13.516666666666666 189.22939431244316, 13.469999999999999 189.3427276457765, 13.441999999999998 189.4627276457765 C 13.413999999999998 189.5827276457765, 13.399999999999999 189.69472764577648, 13.399999999999999 189.7987276457765 L 13.399999999999999 191.0907276457765 Z M 12.328 187.0507276457765 C 12.322666666666667 186.93339431244317, 12.318666666666665 186.81872764577648, 12.315999999999999 186.70672764577648 C 12.313333333333333 186.5947276457765, 12.311333333333334 186.4887276457765, 12.309999999999999 186.3887276457765 C 12.308666666666667 186.2887276457765, 12.309333333333335 186.19206097910984, 12.312 186.0987276457765 C 12.330666666666666 185.6107276457765, 12.447333333333333 185.25139431244315, 12.661999999999999 185.0207276457765 C 12.876666666666665 184.79006097910985, 13.213333333333331 184.65739431244316, 13.671999999999999 184.6227276457765 L 13.671999999999999 185.5147276457765 C 13.576 185.54406097910982, 13.505333333333333 185.5907276457765, 13.459999999999999 185.6547276457765 C 13.414666666666665 185.71872764577648, 13.390666666666664 185.79606097910982, 13.387999999999998 185.8867276457765 C 13.382666666666665 186.0947276457765, 13.379333333333333 186.28806097910984, 13.378 186.4667276457765 C 13.376666666666667 186.64539431244316, 13.381333333333334 186.84006097910984, 13.392 187.0507276457765 Z M 13.904 191.0907276457765 L 13.904 190.1587276457765 L 15.5 190.1587276457765 L 15.5 191.0907276457765 Z M 16.196 189.6787276457765 C 16.188000000000002 189.24939431244314, 16.182666666666666 188.8327276457765, 16.18 188.4287276457765 C 16.177333333333333 188.0247276457765, 16.177999999999997 187.62939431244317, 16.182 187.24272764577648 C 16.186 186.85606097910983, 16.190666666666665 186.4747276457765, 16.196 186.0987276457765 C 16.209333333333333 185.6587276457765, 16.334000000000003 185.31339431244317, 16.57 185.0627276457765 C 16.805999999999997 184.81206097910984, 17.142666666666663 184.6667276457765, 17.58 184.6267276457765 L 17.58 185.5147276457765 C 17.382666666666665 185.57072764577651, 17.281333333333333 185.70006097910985, 17.276 185.9027276457765 C 17.262666666666668 186.27339431244317, 17.253333333333334 186.62139431244316, 17.248 186.9467276457765 C 17.242666666666665 187.27206097910982, 17.24 187.5887276457765, 17.24 187.8967276457765 C 17.24 188.2047276457765, 17.242666666666665 188.51939431244315, 17.248 188.8407276457765 C 17.253333333333334 189.16206097910984, 17.262666666666668 189.50539431244317, 17.276 189.8707276457765 C 17.281333333333333 190.0787276457765, 17.382666666666665 190.2107276457765, 17.58 190.26672764577648 L 17.58 191.1547276457765 C 17.142666666666663 191.1147276457765, 16.805999999999997 190.96872764577648, 16.57 190.7167276457765 C 16.334000000000003 190.4647276457765, 16.209333333333333 190.1187276457765, 16.196 189.6787276457765 Z M 18.084 191.1547276457765 L 18.084 190.2627276457765 C 18.268 190.20939431244318, 18.366666666666667 190.08539431244316, 18.38 189.8907276457765 C 18.398666666666667 189.4240609791098, 18.410666666666668 188.97539431244314, 18.416 188.5447276457765 C 18.421333333333333 188.1140609791098, 18.421333333333333 187.68339431244317, 18.416 187.2527276457765 C 18.410666666666668 186.82206097910984, 18.398666666666667 186.36939431244315, 18.38 185.8947276457765 C 18.374666666666666 185.70006097910982, 18.276 185.57339431244316, 18.084 185.5147276457765 L 18.084 184.6267276457765 C 18.513333333333335 184.6667276457765, 18.846666666666668 184.81206097910984, 19.084 185.0627276457765 C 19.321333333333335 185.31339431244317, 19.445333333333334 185.6587276457765, 19.456 186.0987276457765 C 19.46666666666667 186.41339431244316, 19.474666666666668 186.72339431244313, 19.48 187.02872764577648 C 19.485333333333333 187.33406097910984, 19.488 187.63472764577648, 19.488 187.9307276457765 C 19.488 188.2267276457765, 19.485333333333333 188.52006097910981, 19.48 188.8107276457765 C 19.474666666666668 189.10139431244318, 19.46666666666667 189.3907276457765, 19.456 189.6787276457765 C 19.439999999999998 190.12939431244317, 19.311999999999998 190.47806097910984, 19.072 190.72472764577648 C 18.832 190.97139431244315, 18.502666666666666 191.1147276457765, 18.084 191.1547276457765 Z M 21.944 191.0907276457765 L 21.944 184.6907276457765 L 23.003999999999998 184.6907276457765 L 23.003999999999998 191.0907276457765 Z " stroke="none" fill-rule="nonzero" fill="#000000" fill-opacity="1" transform="matrix(1,0,0,1,5.05,13.314)" id="text20 l" />
  <path d="M 0 185.7110367242506 L 10 185.7110367242506 L 10 187.2110367242506 L 0 187.2110367242506 Z " stroke="none" fill-rule="evenodd" fill="#000000" fill-opacity="1" transform="matrix(1,0,0,1,5.05,13.314)" id="mark21 l" />
  <path d="M 0 179.2813458027247 L 10 179.2813458027247 L 10 180.7813458027247 L 0 180.7813458027247 Z " stroke="none" fill-rule="evenodd" fill="#000000" fill-opacity="1" transform="matrix(1,0,0,1,5.05,13.314)" id="mark22 l" />
  <path d="M 0 172.85165488119884 L 10 172.85165488119884 L 10 174.35165488119884 L 0 174.35165488119884 Z " stroke="none" fill-rule="evenodd" fill="#000000" fill-opacity="1" transform="matrix(1,0,0,1,5.05,13.314)" id="mark23 l" />
  <path d="M 0 166.42196395967295 L 10 166.42196395967295 L 10 167.92196395967295 L 0 167.92196395967295 Z " stroke="none" fill-rule="evenodd" fill="#000000" fill-opacity="1" transform="matrix(1,0,0,1,5.05,13.314)" id="mark24 l" />
  <path d="M 0 159.99227303814706 L 25 159.99227303814706 L 25 161.49227303814706 L 0 161.49227303814706 Z " stroke="none" fill-rule="evenodd" fill="#000000" fill-opacity="1" transform="matrix(1,0,0,1,5.05,13.314)" id="mark25 l" />
  <path d="M 12.328 158.94227303814708 C 12.325333333333333 158.8436063714804, 12.323333333333332 158.75493970481375, 12.322 158.6762730381471 C 12.320666666666666 158.59760637148042, 12.319333333333333 158.5236063714804, 12.318 158.45427303814708 C 12.316666666666666 158.38493970481375, 12.315999999999999 158.31293970481374, 12.316 158.23827303814707 C 12.315999999999999 158.1636063714804, 12.315999999999999 158.07893970481373, 12.316 157.98427303814708 C 12.315999999999999 157.88960637148043, 12.317333333333334 157.7782730381471, 12.32 157.65027303814708 C 12.328 157.35693970481375, 12.378 157.09493970481375, 12.47 156.86427303814708 C 12.562000000000001 156.6336063714804, 12.696 156.4276063714804, 12.872 156.24627303814708 C 13.048 156.06493970481375, 13.265333333333334 155.9036063714804, 13.524000000000001 155.76227303814707 L 14.056000000000001 155.4742730381471 C 14.242666666666668 155.37293970481375, 14.362000000000002 155.25093970481373, 14.414 155.10827303814708 C 14.466000000000001 154.96560637148042, 14.495999999999999 154.8316063714804, 14.504 154.7062730381471 C 14.514666666666667 154.5596063714804, 14.520666666666667 154.40293970481375, 14.522 154.2362730381471 C 14.523333333333333 154.06960637148043, 14.520000000000001 153.91293970481377, 14.512 153.7662730381471 C 14.506666666666666 153.66227303814708, 14.476666666666667 153.57627303814706, 14.422 153.50827303814708 C 14.367333333333335 153.4402730381471, 14.288 153.3916063714804, 14.184000000000001 153.36227303814707 L 14.184000000000001 152.4742730381471 C 14.672 152.5062730381471, 15.022000000000002 152.63760637148042, 15.234 152.86827303814707 C 15.446000000000002 153.09893970481374, 15.562666666666667 153.4596063714804, 15.584 153.9502730381471 C 15.586666666666668 154.0142730381471, 15.588666666666668 154.07960637148042, 15.59 154.1462730381471 C 15.591333333333335 154.21293970481375, 15.592000000000002 154.27760637148043, 15.592 154.34027303814707 C 15.592000000000002 154.40293970481372, 15.591333333333335 154.46493970481373, 15.59 154.52627303814708 C 15.588666666666668 154.5876063714804, 15.586666666666668 154.6476063714804, 15.584 154.7062730381471 C 15.573333333333332 154.99160637148043, 15.52 155.23827303814707, 15.424 155.44627303814707 C 15.328 155.65427303814707, 15.197999999999999 155.83427303814707, 15.033999999999999 155.9862730381471 C 14.87 156.13827303814708, 14.68 156.27427303814707, 14.464 156.39427303814708 L 13.86 156.72227303814708 C 13.745333333333335 156.7836063714804, 13.655333333333335 156.8676063714804, 13.59 156.9742730381471 C 13.524666666666668 157.08093970481374, 13.478000000000002 157.19427303814706, 13.45 157.31427303814706 C 13.422 157.43427303814707, 13.408 157.54627303814706, 13.408 157.65027303814708 L 13.408 158.94227303814708 Z M 12.336 154.9022730381471 C 12.330666666666666 154.78493970481375, 12.326666666666664 154.6702730381471, 12.324 154.5582730381471 C 12.321333333333332 154.4462730381471, 12.319333333333333 154.34027303814707, 12.318 154.24027303814708 C 12.316666666666666 154.1402730381471, 12.317333333333334 154.0436063714804, 12.32 153.9502730381471 C 12.338666666666668 153.4622730381471, 12.455333333333336 153.10293970481376, 12.67 152.87227303814709 C 12.884666666666668 152.6416063714804, 13.221333333333334 152.50893970481374, 13.68 152.4742730381471 L 13.68 153.36627303814709 C 13.584 153.3956063714804, 13.513333333333332 153.44227303814708, 13.468 153.50627303814707 C 13.422666666666668 153.57027303814706, 13.398666666666667 153.6476063714804, 13.396 153.73827303814707 C 13.390666666666666 153.94627303814707, 13.387333333333332 154.13960637148043, 13.386 154.31827303814708 C 13.384666666666666 154.49693970481374, 13.389333333333333 154.69160637148042, 13.4 154.9022730381471 Z M 13.911999999999999 158.94227303814708 L 13.911999999999999 158.0102730381471 L 15.508 158.0102730381471 L 15.508 158.94227303814708 Z M 16.18 157.52627303814708 C 16.174666666666667 157.35293970481376, 16.173333333333332 157.2136063714804, 16.176 157.10827303814708 C 16.178666666666665 157.00293970481374, 16.181333333333335 156.90093970481377, 16.183999999999997 156.8022730381471 L 17.264 156.8022730381471 C 17.256 156.8796063714804, 17.25 156.9756063714804, 17.246 157.09027303814707 C 17.241999999999997 157.20493970481374, 17.240666666666666 157.31560637148038, 17.241999999999997 157.42227303814707 C 17.243333333333332 157.52893970481375, 17.246666666666666 157.60893970481374, 17.252 157.66227303814708 C 17.262666666666668 157.78227303814708, 17.297333333333334 157.8802730381471, 17.355999999999998 157.9562730381471 C 17.414666666666665 158.03227303814708, 17.497333333333334 158.08627303814706, 17.604 158.11827303814707 L 17.604 159.0102730381471 C 17.110666666666663 158.97293970481377, 16.75333333333333 158.83827303814707, 16.532 158.60627303814707 C 16.310666666666666 158.37427303814707, 16.19333333333333 158.01427303814708, 16.18 157.52627303814708 Z M 16.279999999999998 156.19027303814707 L 16.279999999999998 152.54227303814707 L 17.348 152.54227303814707 L 17.348 156.19027303814707 Z M 17.852 155.7662730381471 L 17.852 155.0102730381471 C 17.929333333333332 154.9702730381471, 18.014666666666667 154.9382730381471, 18.107999999999997 154.9142730381471 C 18.20133333333333 154.8902730381471, 18.301333333333332 154.87827303814709, 18.407999999999998 154.87827303814709 C 18.773333333333333 154.87827303814709, 19.047333333333334 154.99360637148044, 19.23 155.2242730381471 C 19.412666666666667 155.45493970481374, 19.514666666666663 155.76893970481376, 19.535999999999998 156.16627303814707 C 19.546666666666667 156.32627303814706, 19.55333333333333 156.48493970481374, 19.555999999999997 156.64227303814707 C 19.558666666666664 156.79960637148042, 19.557333333333332 156.95293970481376, 19.552 157.10227303814708 C 19.546666666666667 157.2516063714804, 19.538666666666668 157.3916063714804, 19.528 157.5222730381471 C 19.482666666666667 158.02093970481374, 19.353333333333335 158.38627303814707, 19.14 158.61827303814707 C 18.926666666666666 158.85027303814707, 18.581333333333333 158.98093970481375, 18.104 159.0102730381471 L 18.104 158.11827303814707 C 18.21333333333333 158.08893970481375, 18.296 158.03627303814707, 18.352 157.96027303814708 C 18.408 157.8842730381471, 18.44 157.78493970481375, 18.448 157.66227303814708 C 18.471999999999998 157.3716063714804, 18.485999999999997 157.11027303814706, 18.49 156.87827303814709 C 18.494 156.64627303814706, 18.485333333333333 156.42493970481374, 18.464 156.21427303814707 C 18.447999999999997 156.0596063714804, 18.396666666666665 155.94427303814706, 18.31 155.86827303814707 C 18.223333333333333 155.79227303814707, 18.090666666666664 155.7542730381471, 17.912 155.7542730381471 C 17.901333333333334 155.7542730381471, 17.890666666666668 155.75560637148044, 17.88 155.75827303814708 C 17.86933333333333 155.76093970481372, 17.86 155.76360637148042, 17.852 155.7662730381471 Z M 17.852 153.4742730381471 L 17.852 152.54227303814707 L 19.439999999999998 152.54227303814707 L 19.439999999999998 153.4742730381471 Z M 21.944 158.94227303814708 L 21.944 152.54227303814707 L 23.003999999999998 152.54227303814707 L 23.003999999999998 158.94227303814708 Z " stroke="none" fill-rule="nonzero" fill="#000000" fill-opacity="1" transform="matrix(1,0,0,1,5.05,13.314)" id="text25 l" />
  <path d="M 0 153.56258211662117 L 10 153.56258211662117 L 10 155.06258211662117 L 0 155.06258211662117 Z " stroke="none" fill-rule="evenodd" fill="#000000" fill-opacity="1" transform="matrix(1,0,0,1,5.05,13.314)" id="mark26 l" />
  <path d="M 0 147.1328911950953 L 10 147.1328911950953 L 10 148.6328911950953 L 0 148.6328911950953 Z " stroke="none" fill-rule="evenodd" fill="#000000" fill-opacity="1" transform="matrix(1,0,0,1,5.05,13.314)" id="mark27 l" />
  <path d="M 0 140.70320027356942 L 10 140.70320027356942 L 10 142.20320027356942 L 0 142.20320027356942 Z " stroke="none" fill-rule="evenodd" fill="#000000" fill-opacity="1" transform="matrix(1,0,0,1,5.05,13.314)" id="mark28 l" />
  <path d="M 0 134.27350935204353 L 10 134.27350935204353 L 10 135.77350935204353 L 0 135.77350935204353 Z " stroke="none" fill-rule="evenodd" fill="#000000" fill-opacity="1" transform="matrix(1,0,0,1,5.05,13.314)" id="mark29 l" />
  <path d="M 0 127.84381843051764 L 25 127.84381843051764 L 25 129.34381843051764 L 0 129.34381843051764 Z " stroke="none" fill-rule="evenodd" fill="#000000" fill-opacity="1" transform="matrix(1,0,0,1,5.05,13.314)" id="mark30 l" />
  <path d="M 12.223999999999998 125.37781843051765 C 12.221333333333334 125.27648509718432, 12.219333333333333 125.19248509718432, 12.218 125.12581843051764 C 12.216666666666667 125.05915176385099, 12.216666666666667 124.99115176385098, 12.218 124.92181843051765 C 12.219333333333333 124.85248509718431, 12.221333333333334 124.76315176385098, 12.223999999999998 124.65381843051765 L 13.303999999999998 124.65381843051765 L 13.303999999999998 125.51781843051765 C 13.303999999999998 125.75515176385099, 13.417333333333332 125.90581843051766, 13.643999999999998 125.96981843051765 L 13.643999999999998 126.86181843051764 C 13.155999999999999 126.82448509718432, 12.800666666666665 126.68981843051765, 12.578 126.45781843051765 C 12.355333333333334 126.22581843051765, 12.237333333333332 125.86581843051766, 12.223999999999998 125.37781843051765 Z M 12.292 121.32581843051764 L 12.292 120.39381843051764 L 15.536 120.39381843051764 L 15.536 121.32581843051764 Z M 14.143999999999998 125.97381843051765 C 14.367999999999999 125.91781843051766, 14.483999999999998 125.76715176385098, 14.491999999999999 125.52181843051764 C 14.497333333333334 125.31915176385098, 14.500666666666666 125.13648509718432, 14.501999999999999 124.97381843051765 C 14.503333333333332 124.81115176385097, 14.498666666666665 124.65381843051765, 14.488 124.50181843051764 C 14.48 124.3444850971843, 14.431999999999999 124.21115176385098, 14.344 124.10181843051765 C 14.256 123.99248509718431, 14.089333333333332 123.94048509718431, 13.844 123.94581843051765 L 13.096 123.95381843051764 L 13.068 123.06181843051765 L 14.027999999999999 121.67781843051765 L 15.216 121.67781843051765 L 14.248 123.02981843051765 L 14.28 123.02981843051765 C 14.712 123.02981843051765, 15.028666666666666 123.15248509718431, 15.229999999999999 123.39781843051765 C 15.431333333333333 123.64315176385098, 15.544 124.02048509718432, 15.568 124.52981843051765 C 15.57333333333333 124.60181843051765, 15.576666666666664 124.67381843051766, 15.578 124.74581843051764 C 15.57933333333333 124.81781843051766, 15.579999999999998 124.88848509718432, 15.579999999999998 124.95781843051765 C 15.579999999999998 125.02715176385098, 15.57933333333333 125.09648509718431, 15.578 125.16581843051765 C 15.576666666666664 125.23515176385098, 15.57333333333333 125.30581843051766, 15.568 125.37781843051765 C 15.549333333333333 125.87381843051764, 15.428666666666665 126.23848509718431, 15.206 126.47181843051764 C 14.983333333333334 126.70515176385098, 14.630666666666666 126.83515176385097, 14.148 126.86181843051764 Z M 16.196 125.38181843051764 C 16.188000000000002 124.95248509718431, 16.182666666666666 124.53581843051765, 16.18 124.13181843051764 C 16.177333333333333 123.72781843051766, 16.177999999999997 123.33248509718432, 16.182 122.94581843051765 C 16.186 122.55915176385098, 16.190666666666665 122.17781843051765, 16.196 121.80181843051764 C 16.209333333333333 121.36181843051764, 16.334000000000003 121.0164850971843, 16.57 120.76581843051764 C 16.805999999999997 120.51515176385098, 17.142666666666663 120.36981843051765, 17.58 120.32981843051765 L 17.58 121.21781843051765 C 17.382666666666665 121.27381843051765, 17.281333333333333 121.40315176385099, 17.276 121.60581843051764 C 17.262666666666668 121.97648509718431, 17.253333333333334 122.32448509718432, 17.248 122.64981843051764 C 17.242666666666665 122.97515176385099, 17.24 123.29181843051765, 17.24 123.59981843051764 C 17.24 123.90781843051764, 17.242666666666665 124.22248509718432, 17.248 124.54381843051765 C 17.253333333333334 124.86515176385097, 17.262666666666668 125.20848509718431, 17.276 125.57381843051765 C 17.281333333333333 125.78181843051763, 17.382666666666665 125.91381843051764, 17.58 125.96981843051765 L 17.58 126.85781843051764 C 17.142666666666663 126.81781843051763, 16.805999999999997 126.67181843051765, 16.57 126.41981843051765 C 16.334000000000003 126.16781843051766, 16.209333333333333 125.82181843051765, 16.196 125.38181843051764 Z M 18.084 126.85781843051764 L 18.084 125.96581843051764 C 18.268 125.91248509718432, 18.366666666666667 125.7884850971843, 18.38 125.59381843051764 C 18.398666666666667 125.12715176385097, 18.410666666666668 124.6784850971843, 18.416 124.24781843051764 C 18.421333333333333 123.81715176385099, 18.421333333333333 123.38648509718433, 18.416 122.95581843051765 C 18.410666666666668 122.525151763851, 18.398666666666667 122.07248509718431, 18.38 121.59781843051765 C 18.374666666666666 121.40315176385099, 18.276 121.27648509718432, 18.084 121.21781843051765 L 18.084 120.32981843051765 C 18.513333333333335 120.36981843051765, 18.846666666666668 120.51515176385098, 19.084 120.76581843051764 C 19.321333333333335 121.0164850971843, 19.445333333333334 121.36181843051764, 19.456 121.80181843051764 C 19.46666666666667 122.11648509718432, 19.474666666666668 122.42648509718433, 19.48 122.73181843051765 C 19.485333333333333 123.03715176385097, 19.488 123.33781843051764, 19.488 123.63381843051765 C 19.488 123.92981843051766, 19.485333333333333 124.22315176385098, 19.48 124.51381843051765 C 19.474666666666668 124.80448509718431, 19.46666666666667 125.09381843051764, 19.456 125.38181843051764 C 19.439999999999998 125.8324850971843, 19.311999999999998 126.18115176385098, 19.072 126.42781843051765 C 18.832 126.67448509718432, 18.502666666666666 126.81781843051763, 18.084 126.85781843051764 Z M 21.944 126.79381843051765 L 21.944 120.39381843051764 L 23.003999999999998 120.39381843051764 L 23.003999999999998 126.79381843051765 Z " stroke="none" fill-rule="nonzero" fill="#000000" fill-opacity="1" transform="matrix(1,0,0,1,5.05,13.314)" id="text30 l" />
  <path d="M 0 121.41412750899178 L 10 121.41412750899178 L 10 122.91412750899178 L 0 122.91412750899178 Z " stroke="none" fill-rule="evenodd" fill="#000000" fill-opacity="1" transform="matrix(1,0,0,1,5.05,13.314)" id="mark31 l" />
  <path d="M 0 114.9844365874659 L 10 114.9844365874659 L 10 116.4844365874659 L 0 116.4844365874659 Z " stroke="none" fill-rule="evenodd" fill="#000000" fill-opacity="1" transform="matrix(1,0,0,1,5.05,13.314)" id="mark32 l" />
  <path d="M 0 108.55474566594 L 10 108.55474566594 L 10 110.05474566594 L 0 110.05474566594 Z " stroke="none" fill-rule="evenodd" fill="#000000" fill-opacity="1" transform="matrix(1,0,0,1,5.05,13.314)" id="mark33 l" />
  <path d="M 0 102.12505474441411 L 10 102.12505474441411 L 10 103.62505474441411 L 0 103.62505474441411 Z " stroke="none" fill-rule="evenodd" fill="#000000" fill-opacity="1" transform="matrix(1,0,0,1,5.05,13.314)" id="mark34 l" />
  <path d="M 0 95.69536382288825 L 25 95.69536382288825 L 25 97.19536382288825 L 0 97.19536382288825 Z " stroke="none" fill-rule="evenodd" fill="#000000" fill-opacity="1" transform="matrix(1,0,0,1,5.05,13.314)" id="mark35 l" />
  <path d="M 12.232 93.19736382288826 C 12.229333333333333 93.09603048955493, 12.227333333333334 93.01203048955493, 12.226 92.94536382288825 C 12.224666666666668 92.87869715622159, 12.224666666666668 92.8106971562216, 12.226 92.74136382288826 C 12.227333333333334 92.67203048955493, 12.229333333333333 92.5826971562216, 12.232 92.47336382288826 L 13.312 92.47336382288826 L 13.312 93.33736382288826 C 13.312 93.57469715622159, 13.425333333333333 93.72536382288826, 13.652 93.78936382288826 L 13.652 94.68136382288826 C 13.164 94.64403048955492, 12.808666666666667 94.50936382288826, 12.586 94.27736382288826 C 12.363333333333333 94.04536382288826, 12.245333333333335 93.68536382288826, 12.232 93.19736382288826 Z M 12.3 89.14536382288826 L 12.3 88.21336382288825 L 15.544 88.21336382288825 L 15.544 89.14536382288826 Z M 14.152000000000001 93.79336382288827 C 14.376000000000001 93.73736382288827, 14.492 93.58669715622159, 14.5 93.34136382288825 C 14.505333333333333 93.1386971562216, 14.508666666666667 92.95603048955493, 14.51 92.79336382288827 C 14.511333333333333 92.6306971562216, 14.506666666666668 92.47336382288826, 14.496 92.32136382288826 C 14.488 92.16403048955492, 14.440000000000001 92.03069715622159, 14.352 91.92136382288825 C 14.264 91.81203048955493, 14.097333333333335 91.76003048955494, 13.852 91.76536382288826 L 13.104 91.77336382288826 L 13.076 90.88136382288826 L 14.036 89.49736382288826 L 15.224 89.49736382288826 L 14.256 90.84936382288826 L 14.288 90.84936382288826 C 14.719999999999999 90.84936382288826, 15.036666666666665 90.97203048955492, 15.238 91.21736382288826 C 15.439333333333334 91.4626971562216, 15.552 91.84003048955492, 15.576 92.34936382288826 C 15.581333333333333 92.42136382288825, 15.584666666666667 92.49336382288826, 15.586 92.56536382288826 C 15.587333333333333 92.63736382288826, 15.588000000000001 92.70803048955493, 15.588000000000001 92.77736382288826 C 15.588000000000001 92.8466971562216, 15.587333333333333 92.91603048955493, 15.586 92.98536382288826 C 15.584666666666667 93.0546971562216, 15.581333333333333 93.12536382288826, 15.576 93.19736382288826 C 15.557333333333334 93.69336382288826, 15.436666666666667 94.05803048955492, 15.214 94.29136382288826 C 14.991333333333333 94.52469715622159, 14.638666666666666 94.6546971562216, 14.156 94.68136382288826 Z M 16.18 93.19736382288826 C 16.174666666666667 93.02403048955493, 16.173333333333332 92.88469715622159, 16.176 92.77936382288826 C 16.178666666666665 92.67403048955492, 16.181333333333335 92.57203048955492, 16.183999999999997 92.47336382288826 L 17.264 92.47336382288826 C 17.256 92.55069715622159, 17.25 92.64669715622159, 17.246 92.76136382288826 C 17.241999999999997 92.87603048955492, 17.240666666666666 92.9866971562216, 17.241999999999997 93.09336382288826 C 17.243333333333332 93.20003048955493, 17.246666666666666 93.28003048955493, 17.252 93.33336382288826 C 17.262666666666668 93.45336382288826, 17.297333333333334 93.55136382288826, 17.355999999999998 93.62736382288826 C 17.414666666666665 93.70336382288826, 17.497333333333334 93.75736382288827, 17.604 93.78936382288826 L 17.604 94.68136382288826 C 17.110666666666663 94.64403048955492, 16.75333333333333 94.50936382288826, 16.532 94.27736382288826 C 16.310666666666666 94.04536382288826, 16.19333333333333 93.68536382288826, 16.18 93.19736382288826 Z M 16.279999999999998 91.86136382288826 L 16.279999999999998 88.21336382288825 L 17.348 88.21336382288825 L 17.348 91.86136382288826 Z M 17.852 91.43736382288826 L 17.852 90.68136382288826 C 17.929333333333332 90.64136382288825, 18.014666666666667 90.60936382288826, 18.107999999999997 90.58536382288825 C 18.20133333333333 90.56136382288827, 18.301333333333332 90.54936382288827, 18.407999999999998 90.54936382288827 C 18.773333333333333 90.54936382288827, 19.047333333333334 90.66469715622159, 19.23 90.89536382288826 C 19.412666666666667 91.12603048955492, 19.514666666666663 91.44003048955493, 19.535999999999998 91.83736382288826 C 19.546666666666667 91.99736382288826, 19.55333333333333 92.15603048955492, 19.555999999999997 92.31336382288826 C 19.558666666666664 92.4706971562216, 19.557333333333332 92.62403048955493, 19.552 92.77336382288826 C 19.546666666666667 92.92269715622159, 19.538666666666668 93.06269715622159, 19.528 93.19336382288826 C 19.482666666666667 93.69203048955492, 19.353333333333335 94.05736382288826, 19.14 94.28936382288826 C 18.926666666666666 94.52136382288826, 18.581333333333333 94.65203048955493, 18.104 94.68136382288826 L 18.104 93.78936382288826 C 18.21333333333333 93.76003048955494, 18.296 93.70736382288827, 18.352 93.63136382288826 C 18.408 93.55536382288825, 18.44 93.45603048955492, 18.448 93.33336382288826 C 18.471999999999998 93.04269715622159, 18.485999999999997 92.78136382288827, 18.49 92.54936382288827 C 18.494 92.31736382288827, 18.485333333333333 92.09603048955492, 18.464 91.88536382288827 C 18.447999999999997 91.7306971562216, 18.396666666666665 91.61536382288827, 18.31 91.53936382288826 C 18.223333333333333 91.46336382288825, 18.090666666666664 91.42536382288826, 17.912 91.42536382288826 C 17.901333333333334 91.42536382288826, 17.890666666666668 91.42669715622159, 17.88 91.42936382288826 C 17.86933333333333 91.43203048955493, 17.86 91.43469715622159, 17.852 91.43736382288826 Z M 17.852 89.14536382288826 L 17.852 88.21336382288825 L 19.439999999999998 88.21336382288825 L 19.439999999999998 89.14536382288826 Z M 21.944 94.61336382288826 L 21.944 88.21336382288825 L 23.003999999999998 88.21336382288825 L 23.003999999999998 94.61336382288826 Z " stroke="none" fill-rule="nonzero" fill="#000000" fill-opacity="1" transform="matrix(1,0,0,1,5.05,13.314)" id="text35 l" />
  <path d="M 0 89.26567290136236 L 10 89.26567290136236 L 10 90.76567290136236 L 0 90.76567290136236 Z " stroke="none" fill-rule="evenodd" fill="#000000" fill-opacity="1" transform="matrix(1,0,0,1,5.05,13.314)" id="mark36 l" />
  <path d="M 0 82.83598197983648 L 10 82.83598197983648 L 10 84.33598197983648 L 0 84.33598197983648 Z " stroke="none" fill-rule="evenodd" fill="#000000" fill-opacity="1" transform="matrix(1,0,0,1,5.05,13.314)" id="mark37 l" />
  <path d="M 0 76.40629105831059 L 10 76.40629105831059 L 10 77.90629105831059 L 0 77.90629105831059 Z " stroke="none" fill-rule="evenodd" fill="#000000" fill-opacity="1" transform="matrix(1,0,0,1,5.05,13.314)" id="mark38 l" />
  <path d="M 0 69.97660013678473 L 10 69.97660013678473 L 10 71.47660013678473 L 0 71.47660013678473 Z " stroke="none" fill-rule="evenodd" fill="#000000" fill-opacity="1" transform="matrix(1,0,0,1,5.05,13.314)" id="mark39 l" />
  <path d="M 0 63.546909215258836 L 25 63.546909215258836 L 25 65.04690921525884 L 0 65.04690921525884 Z " stroke="none" fill-rule="evenodd" fill="#000000" fill-opacity="1" transform="matrix(1,0,0,1,5.05,13.314)" id="mark40 l" />
  <path d="M 11.739999999999998 60.81290921525884 L 11.739999999999998 59.93690921525884 L 12.455999999999998 58.05690921525884 L 13.495999999999999 58.05690921525884 L 12.771999999999998 59.88890921525884 L 13.171999999999997 59.88890921525884 L 13.171999999999997 60.81290921525884 Z M 13.675999999999998 62.49690921525884 L 13.675999999999998 56.09690921525884 L 14.683999999999997 56.09690921525884 L 14.683999999999997 62.49690921525884 Z M 15.187999999999999 60.81290921525884 L 15.187999999999999 59.88890921525884 L 15.655999999999999 59.88890921525884 L 15.655999999999999 60.81290921525884 Z M 16.195999999999998 61.08490921525884 C 16.188 60.65557588192551, 16.182666666666666 60.23890921525884, 16.18 59.83490921525884 C 16.177333333333333 59.430909215258836, 16.177999999999997 59.03557588192551, 16.182 58.64890921525884 C 16.186 58.26224254859217, 16.190666666666665 57.88090921525884, 16.195999999999998 57.50490921525884 C 16.20933333333333 57.06490921525884, 16.333999999999996 56.71957588192551, 16.569999999999997 56.46890921525884 C 16.805999999999997 56.21824254859217, 17.142666666666663 56.072909215258846, 17.58 56.03290921525884 L 17.58 56.92090921525884 C 17.382666666666665 56.97690921525884, 17.281333333333333 57.10624254859218, 17.275999999999996 57.308909215258836 C 17.262666666666664 57.6795758819255, 17.25333333333333 58.0275758819255, 17.247999999999998 58.35290921525884 C 17.242666666666665 58.678242548592166, 17.24 58.994909215258836, 17.24 59.302909215258836 C 17.24 59.610909215258836, 17.242666666666665 59.9255758819255, 17.247999999999998 60.24690921525884 C 17.25333333333333 60.568242548592174, 17.262666666666664 60.91157588192551, 17.275999999999996 61.27690921525884 C 17.281333333333333 61.48490921525884, 17.382666666666665 61.61690921525884, 17.58 61.67290921525884 L 17.58 62.56090921525884 C 17.142666666666663 62.52090921525884, 16.805999999999997 62.37490921525884, 16.569999999999997 62.12290921525884 C 16.333999999999996 61.870909215258834, 16.20933333333333 61.52490921525884, 16.195999999999998 61.08490921525884 Z M 18.084 62.56090921525884 L 18.084 61.668909215258836 C 18.268 61.61557588192551, 18.366666666666667 61.4915758819255, 18.38 61.296909215258836 C 18.398666666666664 60.83024254859217, 18.410666666666664 60.38157588192551, 18.415999999999997 59.95090921525884 C 18.42133333333333 59.52024254859217, 18.42133333333333 59.089575881925505, 18.415999999999997 58.65890921525884 C 18.410666666666664 58.22824254859217, 18.398666666666664 57.775575881925505, 18.38 57.30090921525884 C 18.374666666666666 57.10624254859217, 18.276 56.9795758819255, 18.084 56.92090921525884 L 18.084 56.03290921525884 C 18.513333333333332 56.072909215258846, 18.846666666666664 56.21824254859217, 19.083999999999996 56.46890921525884 C 19.32133333333333 56.71957588192551, 19.44533333333333 57.06490921525884, 19.456 57.50490921525884 C 19.466666666666665 57.819575881925516, 19.474666666666664 58.12957588192551, 19.479999999999997 58.43490921525884 C 19.48533333333333 58.74024254859217, 19.488 59.040909215258836, 19.488 59.33690921525884 C 19.488 59.632909215258834, 19.48533333333333 59.92624254859217, 19.479999999999997 60.21690921525884 C 19.474666666666664 60.507575881925504, 19.466666666666665 60.796909215258836, 19.456 61.08490921525884 C 19.439999999999998 61.53557588192551, 19.311999999999998 61.88424254859218, 19.072 62.13090921525884 C 18.831999999999997 62.3775758819255, 18.502666666666663 62.52090921525884, 18.084 62.56090921525884 Z M 21.944 62.49690921525884 L 21.944 56.09690921525884 L 23.003999999999998 56.09690921525884 L 23.003999999999998 62.49690921525884 Z " stroke="none" fill-rule="nonzero" fill="#000000" fill-opacity="1" transform="matrix(1,0,0,1,5.05,13.314)" id="text40 l" />
  <path d="M 0 57.11721829373295 L 10 57.11721829373295 L 10 58.61721829373295 L 0 58.61721829373295 Z " stroke="none" fill-rule="evenodd" fill="#000000" fill-opacity="1" transform="matrix(1,0,0,1,5.05,13.314)" id="mark41 l" />
  <path d="M 0 50.68752737220706 L 10 50.68752737220706 L 10 52.18752737220706 L 0 52.18752737220706 Z " stroke="none" fill-rule="evenodd" fill="#000000" fill-opacity="1" transform="matrix(1,0,0,1,5.05,13.314)" id="mark42 l" />
  <path d="M 0 44.25783645068117 L 10 44.25783645068117 L 10 45.75783645068117 L 0 45.75783645068117 Z " stroke="none" fill-rule="evenodd" fill="#000000" fill-opacity="1" transform="matrix(1,0,0,1,5.05,13.314)" id="mark43 l" />
  <path d="M 0 37.82814552915528 L 10 37.82814552915528 L 10 39.32814552915528 L 0 39.32814552915528 Z " stroke="none" fill-rule="evenodd" fill="#000000" fill-opacity="1" transform="matrix(1,0,0,1,5.05,13.314)" id="mark44 l" />
  <path d="M 0 31.398454607629446 L 25 31.398454607629446 L 25 32.898454607629446 L 0 32.898454607629446 Z " stroke="none" fill-rule="evenodd" fill="#000000" fill-opacity="1" transform="matrix(1,0,0,1,5.05,13.314)" id="mark45 l" />
  <path d="M 11.748 28.632454607629445 L 11.748 27.756454607629447 L 12.463999999999999 25.876454607629444 L 13.503999999999998 25.876454607629444 L 12.78 27.708454607629445 L 13.18 27.708454607629445 L 13.18 28.632454607629445 Z M 13.684 30.316454607629446 L 13.684 23.916454607629447 L 14.691999999999998 23.916454607629447 L 14.691999999999998 30.316454607629446 Z M 15.195999999999998 28.632454607629445 L 15.195999999999998 27.708454607629445 L 15.663999999999998 27.708454607629445 L 15.663999999999998 28.632454607629445 Z M 16.18 28.900454607629445 C 16.174666666666667 28.72712127429611, 16.173333333333332 28.587787940962777, 16.176 28.482454607629446 C 16.178666666666665 28.37712127429611, 16.181333333333335 28.27512127429611, 16.183999999999997 28.176454607629445 L 17.264 28.176454607629445 C 17.256 28.25378794096278, 17.25 28.349787940962777, 17.246 28.464454607629445 C 17.241999999999997 28.579121274296114, 17.240666666666666 28.68978794096278, 17.241999999999997 28.796454607629446 C 17.243333333333332 28.90312127429611, 17.246666666666666 28.983121274296114, 17.252 29.036454607629445 C 17.262666666666668 29.156454607629446, 17.297333333333334 29.254454607629448, 17.355999999999998 29.330454607629445 C 17.414666666666665 29.40645460762945, 17.497333333333334 29.460454607629444, 17.604 29.492454607629444 L 17.604 30.384454607629447 C 17.110666666666663 30.347121274296114, 16.75333333333333 30.212454607629446, 16.532 29.980454607629447 C 16.310666666666666 29.748454607629444, 16.19333333333333 29.38845460762944, 16.18 28.900454607629445 Z M 16.279999999999998 27.564454607629447 L 16.279999999999998 23.916454607629447 L 17.348 23.916454607629447 L 17.348 27.564454607629447 Z M 17.852 27.140454607629444 L 17.852 26.384454607629447 C 17.929333333333332 26.344454607629444, 18.014666666666667 26.312454607629448, 18.107999999999997 26.288454607629447 C 18.20133333333333 26.264454607629446, 18.301333333333332 26.252454607629446, 18.407999999999998 26.252454607629446 C 18.773333333333333 26.252454607629446, 19.047333333333334 26.367787940962778, 19.23 26.598454607629446 C 19.412666666666667 26.829121274296114, 19.514666666666663 27.143121274296114, 19.535999999999998 27.540454607629446 C 19.546666666666667 27.700454607629446, 19.55333333333333 27.85912127429611, 19.555999999999997 28.016454607629445 C 19.558666666666664 28.17378794096278, 19.557333333333332 28.32712127429611, 19.552 28.476454607629446 C 19.546666666666667 28.62578794096278, 19.538666666666668 28.765787940962777, 19.528 28.896454607629444 C 19.482666666666667 29.395121274296113, 19.353333333333335 29.76045460762945, 19.14 29.992454607629444 C 18.926666666666666 30.224454607629447, 18.581333333333333 30.35512127429611, 18.104 30.384454607629447 L 18.104 29.492454607629444 C 18.21333333333333 29.463121274296114, 18.296 29.410454607629447, 18.352 29.334454607629446 C 18.408 29.258454607629446, 18.44 29.159121274296112, 18.448 29.036454607629445 C 18.471999999999998 28.745787940962778, 18.485999999999997 28.484454607629445, 18.49 28.252454607629446 C 18.494 28.020454607629446, 18.485333333333333 27.799121274296112, 18.464 27.588454607629444 C 18.447999999999997 27.433787940962777, 18.396666666666665 27.318454607629445, 18.31 27.242454607629448 C 18.223333333333333 27.166454607629447, 18.090666666666664 27.128454607629447, 17.912 27.128454607629447 C 17.901333333333334 27.128454607629447, 17.890666666666668 27.12978794096278, 17.88 27.132454607629445 C 17.86933333333333 27.13512127429611, 17.86 27.13778794096278, 17.852 27.140454607629444 Z M 17.852 24.848454607629446 L 17.852 23.916454607629447 L 19.439999999999998 23.916454607629447 L 19.439999999999998 24.848454607629446 Z M 21.944 30.316454607629446 L 21.944 23.916454607629447 L 23.003999999999998 23.916454607629447 L 23.003999999999998 30.316454607629446 Z " stroke="none" fill-rule="nonzero" fill="#000000" fill-opacity="1" transform="matrix(1,0,0,1,5.05,13.314)" id="text45 l" />
  <path d="M 0 24.968763686103557 L 10 24.968763686103557 L 10 26.468763686103557 L 0 26.468763686103557 Z " stroke="none" fill-rule="evenodd" fill="#000000" fill-opacity="1" transform="matrix(1,0,0,1,5.05,13.314)" id="mark46 l" />
  <path d="M 0 18.539072764577668 L 10 18.539072764577668 L 10 20.039072764577668 L 0 20.039072764577668 Z " stroke="none" fill-rule="evenodd" fill="#000000" fill-opacity="1" transform="matrix(1,0,0,1,5.05,13.314)" id="mark47 l" />
  <path d="M 0 12.109381843051779 L 10 12.109381843051779 L 10 13.609381843051779 L 0 13.609381843051779 Z " stroke="none" fill-rule="evenodd" fill="#000000" fill-opacity="1" transform="matrix(1,0,0,1,5.05,13.314)" id="mark48 l" />
  <path d="M 0 5.679690921525889 L 10 5.679690921525889 L 10 7.179690921525889 L 0 7.179690921525889 Z " stroke="none" fill-rule="evenodd" fill="#000000" fill-opacity="1" transform="matrix(1,0,0,1,5.05,13.314)" id="mark49 l" />
  <path d="M 0 -0.75 L 25 -0.75 L 25 0.75 L 0 0.75 Z " stroke="none" fill-rule="evenodd" fill="#000000" fill-opacity="1" transform="matrix(1,0,0,1,5.05,13.314)" id="mark50 l" />
  <path d="M 12.204 -3.2159999999999997 C 12.198666666666668 -3.389333333333333, 12.197333333333333 -3.528666666666667, 12.2 -3.634 C 12.202666666666667 -3.7393333333333336, 12.205333333333336 -3.841333333333333, 12.208 -3.94 L 13.288 -3.94 C 13.280000000000001 -3.8626666666666667, 13.274000000000001 -3.7666666666666666, 13.27 -3.6519999999999997 C 13.265999999999998 -3.5373333333333328, 13.264666666666667 -3.4266666666666667, 13.266 -3.32 C 13.267333333333333 -3.213333333333334, 13.270666666666667 -3.1333333333333337, 13.276 -3.08 C 13.286666666666665 -2.96, 13.321333333333332 -2.862, 13.379999999999999 -2.7859999999999996 C 13.438666666666666 -2.71, 13.521333333333335 -2.6559999999999997, 13.628 -2.6239999999999997 L 13.628 -1.7319999999999998 C 13.134666666666668 -1.7693333333333332, 12.777333333333335 -1.904, 12.556 -2.1359999999999997 C 12.334666666666667 -2.368, 12.217333333333332 -2.7279999999999998, 12.204 -3.2159999999999997 Z M 12.304 -4.552 L 12.304 -8.2 L 13.372 -8.2 L 13.372 -4.552 Z M 13.876 -4.976 L 13.876 -5.731999999999999 C 13.953333333333333 -5.771999999999999, 14.038666666666668 -5.804, 14.132 -5.828 C 14.225333333333333 -5.852, 14.325333333333333 -5.864, 14.432 -5.864 C 14.797333333333334 -5.864, 15.071333333333332 -5.748666666666667, 15.254 -5.518 C 15.436666666666667 -5.287333333333333, 15.538666666666668 -4.973333333333333, 15.56 -4.576 C 15.570666666666668 -4.416, 15.577333333333334 -4.257333333333333, 15.58 -4.1 C 15.582666666666666 -3.9426666666666668, 15.581333333333333 -3.7893333333333334, 15.576 -3.6399999999999997 C 15.570666666666666 -3.490666666666667, 15.562666666666665 -3.3506666666666667, 15.552 -3.2199999999999998 C 15.506666666666668 -2.721333333333333, 15.377333333333333 -2.356, 15.164 -2.1239999999999997 C 14.950666666666667 -1.892, 14.605333333333332 -1.7613333333333332, 14.128 -1.7319999999999998 L 14.128 -2.6239999999999997 C 14.237333333333334 -2.653333333333333, 14.32 -2.7059999999999995, 14.376 -2.782 C 14.432 -2.8579999999999997, 14.464 -2.957333333333333, 14.472 -3.08 C 14.495999999999999 -3.3706666666666667, 14.509999999999998 -3.6319999999999997, 14.514 -3.864 C 14.518 -4.096, 14.509333333333334 -4.317333333333333, 14.488 -4.5280000000000005 C 14.472000000000001 -4.682666666666667, 14.420666666666666 -4.798, 14.334 -4.874 C 14.247333333333334 -4.949999999999999, 14.114666666666666 -4.9879999999999995, 13.936 -4.9879999999999995 C 13.925333333333333 -4.9879999999999995, 13.914666666666665 -4.986666666666666, 13.904 -4.984 C 13.893333333333334 -4.981333333333334, 13.884 -4.978666666666667, 13.876 -4.976 Z M 13.876 -7.268 L 13.876 -8.2 L 15.464 -8.2 L 15.464 -7.268 Z M 16.196 -3.2119999999999997 C 16.188000000000002 -3.641333333333333, 16.182666666666666 -4.058, 16.18 -4.462 C 16.177333333333333 -4.866, 16.177999999999997 -5.261333333333333, 16.182 -5.648 C 16.186 -6.034666666666666, 16.190666666666665 -6.416, 16.196 -6.792 C 16.209333333333333 -7.231999999999999, 16.334000000000003 -7.577333333333334, 16.57 -7.828 C 16.805999999999997 -8.078666666666667, 17.142666666666663 -8.224, 17.58 -8.264 L 17.58 -7.3759999999999994 C 17.382666666666665 -7.32, 17.281333333333333 -7.190666666666667, 17.276 -6.9879999999999995 C 17.262666666666668 -6.617333333333333, 17.253333333333334 -6.269333333333333, 17.248 -5.944 C 17.242666666666665 -5.618666666666666, 17.24 -5.302, 17.24 -4.994 C 17.24 -4.686, 17.242666666666665 -4.371333333333333, 17.248 -4.05 C 17.253333333333334 -3.7286666666666664, 17.262666666666668 -3.3853333333333326, 17.276 -3.0199999999999996 C 17.281333333333333 -2.812, 17.382666666666665 -2.6799999999999997, 17.58 -2.6239999999999997 L 17.58 -1.7359999999999998 C 17.142666666666663 -1.7759999999999998, 16.805999999999997 -1.9219999999999997, 16.57 -2.174 C 16.334000000000003 -2.4259999999999997, 16.209333333333333 -2.772, 16.196 -3.2119999999999997 Z M 18.084 -1.7359999999999998 L 18.084 -2.6279999999999997 C 18.268 -2.681333333333333, 18.366666666666667 -2.8053333333333335, 18.38 -3 C 18.398666666666667 -3.4666666666666663, 18.410666666666668 -3.915333333333333, 18.416 -4.346 C 18.421333333333333 -4.776666666666666, 18.421333333333333 -5.207333333333333, 18.416 -5.638 C 18.410666666666668 -6.068666666666666, 18.398666666666667 -6.521333333333333, 18.38 -6.9959999999999996 C 18.374666666666666 -7.190666666666667, 18.276 -7.317333333333334, 18.084 -7.3759999999999994 L 18.084 -8.264 C 18.513333333333335 -8.224, 18.846666666666668 -8.078666666666667, 19.084 -7.828 C 19.321333333333335 -7.577333333333334, 19.445333333333334 -7.231999999999999, 19.456 -6.792 C 19.46666666666667 -6.477333333333332, 19.474666666666668 -6.167333333333333, 19.48 -5.861999999999999 C 19.485333333333333 -5.556666666666667, 19.488 -5.256, 19.488 -4.96 C 19.488 -4.664, 19.485333333333333 -4.370666666666667, 19.48 -4.08 C 19.474666666666668 -3.7893333333333334, 19.46666666666667 -3.5, 19.456 -3.2119999999999997 C 19.439999999999998 -2.761333333333333, 19.311999999999998 -2.4126666666666665, 19.072 -2.166 C 18.832 -1.9193333333333331, 18.502666666666666 -1.7759999999999998, 18.084 -1.7359999999999998 Z M 21.944 -1.7999999999999998 L 21.944 -8.2 L 23.003999999999998 -8.2 L 23.003999999999998 -1.7999999999999998 Z " stroke="none" fill-rule="nonzero" fill="#000000" fill-opacity="1" transform="matrix(1,0,0,1,5.05,13.314)" id="text50 l" />
  <path d="M -5 -13.264 L 30 -13.264 L 30 321.8228551547682 L -5 321.8228551547682 Z " stroke="#FF0000" stroke-opacity="1" stroke-width="0.1" stroke-linecap="butt" stroke-linejoin="miter" fill="none" transform="matrix(1,0,0,1,5.05,13.314)" />
</svg>