<?xml version="1.0" encoding="UTF-8"?>
<svg xmlns:xlink="http://www.w3.org/1999/xlink" viewBox="0 0 35.1 335.4176332021542" version="1.1" style="font-synthesis: none;" width="35.1mm" height="335.4176332021542mm" xmlns="http://www.w3.org/2000/svg">
  <defs />
  <style>	</style>
  <path d="M 0 0 L 35.1 0 L 35.1 335.4176332021542 L 0 335.4176332021542 Z " stroke="none" fill-rule="nonzero" fill="#FFFFFF" fill-opacity="1" transform="matrix(1,0,0,1,0,0)" />
  <path d="M 0 314.5356332021542 L 10 314.5356332021542 L 10 316.0356332021542 L 0 316.0356332021542 Z " stroke="none" fill-rule="evenodd" fill="#000000" fill-opacity="1" transform="matrix(1,0,0,1,5.05,13.314)" id="mark1 l" />
  <path d="M 0 297.941652507304 L 10 297.941652507304 L 10 299.441652507304 L 0 299.441652507304 Z " stroke="none" fill-rule="evenodd" fill="#000000" fill-opacity="1" transform="matrix(1,0,0,1,5.05,13.314)" id="mark2 l" />
  <path d="M 0 281.34767181245377 L 10 281.34767181245377 L 10 282.84767181245377 L 0 282.84767181245377 Z " stroke="none" fill-rule="evenodd" fill="#000000" fill-opacity="1" transform="matrix(1,0,0,1,5.05,13.314)" id="mark3 l" />
  <path d="M 0 264.7536911176036 L 10 264.7536911176036 L 10 266.2536911176036 L 0 266.2536911176036 Z " stroke="none" fill-rule="evenodd" fill="#000000" fill-opacity="1" transform="matrix(1,0,0,1,5.05,13.314)" id="mark4 l" />
  <path d="M 0 248.15971042275334 L 25 248.15971042275334 L 25 249.65971042275334 L 0 249.65971042275334 Z " stroke="none" fill-rule="evenodd" fill="#000000" fill-opacity="1" transform="matrix(1,0,0,1,5.05,13.314)" id="mark5 l" />
  <path d="M 16.18 245.66171042275334 C 16.174666666666667 245.48837708942, 16.173333333333332 245.3490437560867, 16.176 245.24371042275334 C 16.178666666666665 245.13837708942003, 16.181333333333335 245.03637708942, 16.183999999999997 244.93771042275336 L 17.264 244.93771042275336 C 17.256 245.0150437560867, 17.25 245.1110437560867, 17.246 245.22571042275334 C 17.241999999999997 245.34037708942003, 17.240666666666666 245.45104375608668, 17.241999999999997 245.55771042275333 C 17.243333333333332 245.66437708942, 17.246666666666666 245.74437708941997, 17.252 245.79771042275334 C 17.262666666666668 245.91771042275332, 17.297333333333334 246.01571042275333, 17.355999999999998 246.09171042275335 C 17.414666666666665 246.16771042275332, 17.497333333333334 246.22171042275332, 17.604 246.25371042275333 L 17.604 247.14571042275335 C 17.110666666666663 247.10837708942, 16.75333333333333 246.97371042275333, 16.532 246.74171042275333 C 16.310666666666666 246.50971042275333, 16.19333333333333 246.14971042275334, 16.18 245.66171042275334 Z M 16.279999999999998 244.32571042275333 L 16.279999999999998 240.67771042275334 L 17.348 240.67771042275334 L 17.348 244.32571042275333 Z M 17.852 243.90171042275335 L 17.852 243.14571042275335 C 17.929333333333332 243.10571042275336, 18.014666666666667 243.07371042275332, 18.107999999999997 243.04971042275335 C 18.20133333333333 243.02571042275332, 18.301333333333332 243.01371042275332, 18.407999999999998 243.01371042275335 C 18.773333333333333 243.01371042275332, 19.047333333333334 243.12904375608667, 19.23 243.35971042275335 C 19.412666666666667 243.59037708942, 19.514666666666663 243.90437708942, 19.535999999999998 244.30171042275333 C 19.546666666666667 244.46171042275333, 19.55333333333333 244.62037708942, 19.555999999999997 244.77771042275333 C 19.558666666666664 244.93504375608666, 19.557333333333332 245.08837708942002, 19.552 245.23771042275334 C 19.546666666666667 245.38704375608665, 19.538666666666668 245.5270437560867, 19.528 245.65771042275335 C 19.482666666666667 246.15637708942, 19.353333333333335 246.52171042275336, 19.14 246.75371042275333 C 18.926666666666666 246.98571042275336, 18.581333333333333 247.11637708942, 18.104 247.14571042275335 L 18.104 246.25371042275333 C 18.21333333333333 246.22437708942002, 18.296 246.17171042275334, 18.352 246.09571042275334 C 18.408 246.01971042275335, 18.44 245.92037708942001, 18.448 245.79771042275334 C 18.471999999999998 245.50704375608666, 18.485999999999997 245.24571042275335, 18.49 245.01371042275335 C 18.494 244.78171042275335, 18.485333333333333 244.56037708942, 18.464 244.34971042275333 C 18.447999999999997 244.19504375608665, 18.396666666666665 244.07971042275332, 18.31 244.00371042275333 C 18.223333333333333 243.92771042275334, 18.090666666666664 243.88971042275335, 17.912 243.88971042275335 C 17.901333333333334 243.88971042275335, 17.890666666666668 243.89104375608667, 17.88 243.89371042275334 C 17.86933333333333 243.89637708942, 17.86 243.89904375608668, 17.852 243.90171042275335 Z M 17.852 241.60971042275335 L 17.852 240.67771042275334 L 19.439999999999998 240.67771042275334 L 19.439999999999998 241.60971042275335 Z M 21.944 247.07771042275334 L 21.944 240.67771042275334 L 23.003999999999998 240.67771042275334 L 23.003999999999998 247.07771042275334 Z " stroke="none" fill-rule="nonzero" fill="#000000" fill-opacity="1" transform="matrix(1,0,0,1,5.05,13.314)" id="text5 l" />
  <path d="M 0 231.56572972790312 L 10 231.56572972790312 L 10 233.06572972790312 L 0 233.06572972790312 Z " stroke="none" fill-rule="evenodd" fill="#000000" fill-opacity="1" transform="matrix(1,0,0,1,5.05,13.314)" id="mark6 l" />
  <path d="M 0 214.9717490330529 L 10 214.9717490330529 L 10 216.4717490330529 L 0 216.4717490330529 Z " stroke="none" fill-rule="evenodd" fill="#000000" fill-opacity="1" transform="matrix(1,0,0,1,5.05,13.314)" id="mark7 l" />
  <path d="M 0 198.37776833820269 L 10 198.37776833820269 L 10 199.87776833820269 L 0 199.87776833820269 Z " stroke="none" fill-rule="evenodd" fill="#000000" fill-opacity="1" transform="matrix(1,0,0,1,5.05,13.314)" id="mark8 l" />
  <path d="M 0 181.78378764335244 L 10 181.78378764335244 L 10 183.28378764335244 L 0 183.28378764335244 Z " stroke="none" fill-rule="evenodd" fill="#000000" fill-opacity="1" transform="matrix(1,0,0,1,5.05,13.314)" id="mark9 l" />
  <path d="M 0 165.18980694850222 L 25 165.18980694850222 L 25 166.68980694850222 L 0 166.68980694850222 Z " stroke="none" fill-rule="evenodd" fill="#000000" fill-opacity="1" transform="matrix(1,0,0,1,5.05,13.314)" id="mark10 l" />
  <path d="M 14.323999999999998 164.13980694850224 L 14.323999999999998 158.69580694850225 L 13.871999999999998 158.69580694850225 L 13.839999999999998 158.31580694850223 L 14.543999999999999 157.73980694850223 L 15.424 157.73980694850223 L 15.424 164.13980694850224 Z M 16.196 162.72780694850223 C 16.188000000000002 162.2984736151689, 16.182666666666666 161.88180694850223, 16.18 161.47780694850223 C 16.177333333333333 161.07380694850224, 16.177999999999997 160.6784736151689, 16.182 160.29180694850223 C 16.186 159.90514028183557, 16.190666666666665 159.52380694850225, 16.196 159.14780694850225 C 16.209333333333333 158.70780694850225, 16.334000000000003 158.36247361516894, 16.57 158.11180694850225 C 16.805999999999997 157.86114028183556, 17.142666666666663 157.71580694850223, 17.58 157.67580694850224 L 17.58 158.56380694850225 C 17.382666666666665 158.61980694850223, 17.281333333333333 158.7491402818356, 17.276 158.95180694850225 C 17.262666666666668 159.32247361516892, 17.253333333333334 159.6704736151689, 17.248 159.99580694850223 C 17.242666666666665 160.32114028183557, 17.24 160.63780694850223, 17.24 160.94580694850225 C 17.24 161.25380694850224, 17.242666666666665 161.5684736151689, 17.248 161.88980694850224 C 17.253333333333334 162.21114028183558, 17.262666666666668 162.5544736151689, 17.276 162.91980694850224 C 17.281333333333333 163.12780694850227, 17.382666666666665 163.25980694850224, 17.58 163.31580694850223 L 17.58 164.20380694850223 C 17.142666666666663 164.1638069485022, 16.805999999999997 164.01780694850223, 16.57 163.76580694850225 C 16.334000000000003 163.51380694850224, 16.209333333333333 163.16780694850223, 16.196 162.72780694850223 Z M 18.084 164.20380694850223 L 18.084 163.31180694850224 C 18.268 163.25847361516892, 18.366666666666667 163.13447361516893, 18.38 162.93980694850225 C 18.398666666666667 162.47314028183558, 18.410666666666668 162.02447361516892, 18.416 161.59380694850225 C 18.421333333333333 161.16314028183558, 18.421333333333333 160.7324736151689, 18.416 160.30180694850225 C 18.410666666666668 159.87114028183558, 18.398666666666667 159.41847361516892, 18.38 158.94380694850224 C 18.374666666666666 158.7491402818356, 18.276 158.62247361516893, 18.084 158.56380694850225 L 18.084 157.67580694850224 C 18.513333333333335 157.71580694850223, 18.846666666666668 157.86114028183556, 19.084 158.11180694850225 C 19.321333333333335 158.36247361516894, 19.445333333333334 158.70780694850225, 19.456 159.14780694850225 C 19.46666666666667 159.4624736151689, 19.474666666666668 159.7724736151689, 19.48 160.07780694850223 C 19.485333333333333 160.38314028183555, 19.488 160.68380694850222, 19.488 160.97980694850224 C 19.488 161.27580694850224, 19.485333333333333 161.56914028183556, 19.48 161.85980694850224 C 19.474666666666668 162.15047361516892, 19.46666666666667 162.43980694850225, 19.456 162.72780694850223 C 19.439999999999998 163.1784736151689, 19.311999999999998 163.52714028183559, 19.072 163.77380694850223 C 18.832 164.0204736151689, 18.502666666666666 164.1638069485022, 18.084 164.20380694850223 Z M 21.944 164.13980694850224 L 21.944 157.73980694850223 L 23.003999999999998 157.73980694850223 L 23.003999999999998 164.13980694850224 Z " stroke="none" fill-rule="nonzero" fill="#000000" fill-opacity="1" transform="matrix(1,0,0,1,5.05,13.314)" id="text10 l" />
  <path d="M 0 148.595826253652 L 10 148.595826253652 L 10 150.095826253652 L 0 150.095826253652 Z " stroke="none" fill-rule="evenodd" fill="#000000" fill-opacity="1" transform="matrix(1,0,0,1,5.05,13.314)" id="mark11 l" />
  <path d="M 0 132.0018455588018 L 10 132.0018455588018 L 10 133.5018455588018 L 0 133.5018455588018 Z " stroke="none" fill-rule="evenodd" fill="#000000" fill-opacity="1" transform="matrix(1,0,0,1,5.05,13.314)" id="mark12 l" />
  <path d="M 0 115.40786486395157 L 10 115.40786486395157 L 10 116.90786486395157 L 0 116.90786486395157 Z " stroke="none" fill-rule="evenodd" fill="#000000" fill-opacity="1" transform="matrix(1,0,0,1,5.05,13.314)" id="mark13 l" />
  <path d="M 0 98.81388416910133 L 10 98.81388416910133 L 10 100.31388416910133 L 0 100.31388416910133 Z " stroke="none" fill-rule="evenodd" fill="#000000" fill-opacity="1" transform="matrix(1,0,0,1,5.05,13.314)" id="mark14 l" />
  <path d="M 0 82.21990347425111 L 25 82.21990347425111 L 25 83.71990347425111 L 0 83.71990347425111 Z " stroke="none" fill-rule="evenodd" fill="#000000" fill-opacity="1" transform="matrix(1,0,0,1,5.05,13.314)" id="mark15 l" />
  <path d="M 14.331999999999999 81.13790347425112 L 14.331999999999999 75.69390347425112 L 13.879999999999999 75.69390347425112 L 13.847999999999999 75.31390347425112 L 14.552 74.73790347425111 L 15.432 74.73790347425111 L 15.432 81.13790347425112 Z M 16.18 79.72190347425112 C 16.174666666666667 79.54857014091779, 16.173333333333332 79.40923680758445, 16.176 79.30390347425111 C 16.178666666666665 79.19857014091778, 16.181333333333335 79.09657014091778, 16.183999999999997 78.99790347425112 L 17.264 78.99790347425112 C 17.256 79.07523680758445, 17.25 79.17123680758445, 17.246 79.28590347425111 C 17.241999999999997 79.40057014091778, 17.240666666666666 79.51123680758445, 17.241999999999997 79.61790347425112 C 17.243333333333332 79.72457014091779, 17.246666666666666 79.80457014091779, 17.252 79.85790347425112 C 17.262666666666668 79.97790347425112, 17.297333333333334 80.07590347425112, 17.355999999999998 80.15190347425111 C 17.414666666666665 80.22790347425112, 17.497333333333334 80.28190347425112, 17.604 80.31390347425112 L 17.604 81.20590347425112 C 17.110666666666663 81.16857014091778, 16.75333333333333 81.03390347425112, 16.532 80.80190347425112 C 16.310666666666666 80.56990347425112, 16.19333333333333 80.20990347425112, 16.18 79.72190347425112 Z M 16.279999999999998 78.38590347425112 L 16.279999999999998 74.73790347425111 L 17.348 74.73790347425111 L 17.348 78.38590347425112 Z M 17.852 77.96190347425112 L 17.852 77.20590347425112 C 17.929333333333332 77.16590347425111, 18.014666666666667 77.13390347425111, 18.107999999999997 77.10990347425111 C 18.20133333333333 77.08590347425113, 18.301333333333332 77.07390347425113, 18.407999999999998 77.07390347425113 C 18.773333333333333 77.07390347425113, 19.047333333333334 77.18923680758445, 19.23 77.41990347425111 C 19.412666666666667 77.65057014091778, 19.514666666666663 77.96457014091779, 19.535999999999998 78.36190347425112 C 19.546666666666667 78.52190347425112, 19.55333333333333 78.68057014091778, 19.555999999999997 78.83790347425112 C 19.558666666666664 78.99523680758446, 19.557333333333332 79.14857014091778, 19.552 79.29790347425111 C 19.546666666666667 79.44723680758445, 19.538666666666668 79.58723680758445, 19.528 79.71790347425112 C 19.482666666666667 80.21657014091778, 19.353333333333335 80.58190347425112, 19.14 80.81390347425112 C 18.926666666666666 81.04590347425112, 18.581333333333333 81.17657014091779, 18.104 81.20590347425112 L 18.104 80.31390347425112 C 18.21333333333333 80.2845701409178, 18.296 80.23190347425113, 18.352 80.15590347425112 C 18.408 80.07990347425111, 18.44 79.98057014091778, 18.448 79.85790347425112 C 18.471999999999998 79.56723680758445, 18.485999999999997 79.30590347425112, 18.49 79.07390347425113 C 18.494 78.84190347425113, 18.485333333333333 78.62057014091778, 18.464 78.40990347425112 C 18.447999999999997 78.25523680758445, 18.396666666666665 78.13990347425113, 18.31 78.06390347425112 C 18.223333333333333 77.98790347425111, 18.090666666666664 77.94990347425112, 17.912 77.94990347425112 C 17.901333333333334 77.94990347425112, 17.890666666666668 77.95123680758445, 17.88 77.95390347425112 C 17.86933333333333 77.95657014091779, 17.86 77.95923680758445, 17.852 77.96190347425112 Z M 17.852 75.66990347425111 L 17.852 74.73790347425111 L 19.439999999999998 74.73790347425111 L 19.439999999999998 75.66990347425111 Z M 21.944 81.13790347425112 L 21.944 74.73790347425111 L 23.003999999999998 74.73790347425111 L 23.003999999999998 81.13790347425112 Z " stroke="none" fill-rule="nonzero" fill="#000000" fill-opacity="1" transform="matrix(1,0,0,1,5.05,13.314)" id="text15 l" />
  <path d="M 0 65.62592277940092 L 10 65.62592277940092 L 10 67.12592277940092 L 0 67.12592277940092 Z " stroke="none" fill-rule="evenodd" fill="#000000" fill-opacity="1" transform="matrix(1,0,0,1,5.05,13.314)" id="mark16 l" />
  <path d="M 0 49.03194208455068 L 10 49.03194208455068 L 10 50.53194208455068 L 0 50.53194208455068 Z " stroke="none" fill-rule="evenodd" fill="#000000" fill-opacity="1" transform="matrix(1,0,0,1,5.05,13.314)" id="mark17 l" />
  <path d="M 0 32.43796138970043 L 10 32.43796138970043 L 10 33.93796138970043 L 0 33.93796138970043 Z " stroke="none" fill-rule="evenodd" fill="#000000" fill-opacity="1" transform="matrix(1,0,0,1,5.05,13.314)" id="mark18 l" />
  <path d="M 0 15.843980694850245 L 10 15.843980694850245 L 10 17.343980694850245 L 0 17.343980694850245 Z " stroke="none" fill-rule="evenodd" fill="#000000" fill-opacity="1" transform="matrix(1,0,0,1,5.05,13.314)" id="mark19 l" />
  <path d="M 0 -0.75 L 25 -0.75 L 25 0.75 L 0 0.75 Z " stroke="none" fill-rule="evenodd" fill="#000000" fill-opacity="1" transform="matrix(1,0,0,1,5.05,13.314)" id="mark20 l" />
  <path d="M 12.319999999999999 -1.7999999999999998 C 12.317333333333334 -1.8986666666666663, 12.315333333333331 -1.987333333333333, 12.313999999999998 -2.066 C 12.312666666666665 -2.1446666666666663, 12.311333333333334 -2.2186666666666666, 12.309999999999999 -2.288 C 12.308666666666667 -2.357333333333333, 12.308 -2.429333333333333, 12.308 -2.5039999999999996 C 12.308 -2.5786666666666664, 12.308 -2.663333333333333, 12.308 -2.758 C 12.308 -2.852666666666667, 12.309333333333335 -2.964, 12.312 -3.0919999999999996 C 12.32 -3.3853333333333335, 12.37 -3.647333333333333, 12.462 -3.8779999999999997 C 12.554 -4.108666666666667, 12.687999999999999 -4.314666666666667, 12.863999999999999 -4.4959999999999996 C 13.04 -4.677333333333333, 13.257333333333333 -4.838666666666667, 13.515999999999998 -4.98 L 14.047999999999998 -5.268 C 14.234666666666666 -5.3693333333333335, 14.354 -5.491333333333333, 14.405999999999999 -5.634 C 14.457999999999998 -5.776666666666667, 14.488 -5.910666666666667, 14.495999999999999 -6.036 C 14.506666666666664 -6.182666666666666, 14.512666666666664 -6.339333333333333, 14.514 -6.506 C 14.51533333333333 -6.672666666666667, 14.511999999999997 -6.829333333333334, 14.504 -6.976 C 14.498666666666665 -7.08, 14.468666666666666 -7.165999999999999, 14.413999999999998 -7.233999999999999 C 14.359333333333332 -7.302, 14.279999999999998 -7.350666666666666, 14.175999999999998 -7.38 L 14.175999999999998 -8.268 C 14.663999999999998 -8.236, 15.014 -8.104666666666667, 15.225999999999999 -7.874 C 15.437999999999999 -7.643333333333333, 15.554666666666666 -7.282666666666666, 15.575999999999999 -6.792 C 15.578666666666663 -6.728, 15.580666666666666 -6.6626666666666665, 15.581999999999999 -6.595999999999999 C 15.583333333333332 -6.529333333333334, 15.584 -6.464666666666666, 15.584 -6.402 C 15.584 -6.339333333333332, 15.583333333333332 -6.277333333333333, 15.581999999999999 -6.216 C 15.580666666666666 -6.1546666666666665, 15.578666666666663 -6.094666666666667, 15.575999999999999 -6.036 C 15.565333333333331 -5.750666666666667, 15.512 -5.504, 15.415999999999999 -5.295999999999999 C 15.32 -5.088, 15.19 -4.908, 15.026 -4.756 C 14.862 -4.604, 14.672 -4.468, 14.456 -4.348 L 13.851999999999999 -4.02 C 13.737333333333332 -3.9586666666666663, 13.647333333333332 -3.8746666666666663, 13.581999999999999 -3.768 C 13.516666666666666 -3.6613333333333333, 13.469999999999999 -3.548, 13.441999999999998 -3.428 C 13.413999999999998 -3.308, 13.399999999999999 -3.1959999999999997, 13.399999999999999 -3.0919999999999996 L 13.399999999999999 -1.7999999999999998 Z M 12.328 -5.84 C 12.322666666666667 -5.957333333333333, 12.318666666666665 -6.071999999999999, 12.315999999999999 -6.184 C 12.313333333333333 -6.295999999999999, 12.311333333333334 -6.401999999999999, 12.309999999999999 -6.502 C 12.308666666666667 -6.602, 12.309333333333335 -6.698666666666666, 12.312 -6.792 C 12.330666666666666 -7.279999999999999, 12.447333333333333 -7.639333333333333, 12.661999999999999 -7.87 C 12.876666666666665 -8.100666666666667, 13.213333333333331 -8.233333333333334, 13.671999999999999 -8.268 L 13.671999999999999 -7.3759999999999994 C 13.576 -7.346666666666666, 13.505333333333333 -7.3, 13.459999999999999 -7.236 C 13.414666666666665 -7.172, 13.390666666666664 -7.094666666666667, 13.387999999999998 -7.004 C 13.382666666666665 -6.795999999999999, 13.379333333333333 -6.602666666666666, 13.378 -6.424 C 13.376666666666667 -6.245333333333333, 13.381333333333334 -6.050666666666666, 13.392 -5.84 Z M 13.904 -1.7999999999999998 L 13.904 -2.7319999999999998 L 15.5 -2.7319999999999998 L 15.5 -1.7999999999999998 Z M 16.196 -3.2119999999999997 C 16.188000000000002 -3.641333333333333, 16.182666666666666 -4.058, 16.18 -4.462 C 16.177333333333333 -4.866, 16.177999999999997 -5.261333333333333, 16.182 -5.648 C 16.186 -6.034666666666666, 16.190666666666665 -6.416, 16.196 -6.792 C 16.209333333333333 -7.231999999999999, 16.334000000000003 -7.577333333333334, 16.57 -7.828 C 16.805999999999997 -8.078666666666667, 17.142666666666663 -8.224, 17.58 -8.264 L 17.58 -7.3759999999999994 C 17.382666666666665 -7.32, 17.281333333333333 -7.190666666666667, 17.276 -6.9879999999999995 C 17.262666666666668 -6.617333333333333, 17.253333333333334 -6.269333333333333, 17.248 -5.944 C 17.242666666666665 -5.618666666666666, 17.24 -5.302, 17.24 -4.994 C 17.24 -4.686, 17.242666666666665 -4.371333333333333, 17.248 -4.05 C 17.253333333333334 -3.7286666666666664, 17.262666666666668 -3.3853333333333326, 17.276 -3.0199999999999996 C 17.281333333333333 -2.812, 17.382666666666665 -2.6799999999999997, 17.58 -2.6239999999999997 L 17.58 -1.7359999999999998 C 17.142666666666663 -1.7759999999999998, 16.805999999999997 -1.9219999999999997, 16.57 -2.174 C 16.334000000000003 -2.4259999999999997, 16.209333333333333 -2.772, 16.196 -3.2119999999999997 Z M 18.084 -1.7359999999999998 L 18.084 -2.6279999999999997 C 18.268 -2.681333333333333, 18.366666666666667 -2.8053333333333335, 18.38 -3 C 18.398666666666667 -3.4666666666666663, 18.410666666666668 -3.915333333333333, 18.416 -4.346 C 18.421333333333333 -4.776666666666666, 18.421333333333333 -5.207333333333333, 18.416 -5.638 C 18.410666666666668 -6.068666666666666, 18.398666666666667 -6.521333333333333, 18.38 -6.9959999999999996 C 18.374666666666666 -7.190666666666667, 18.276 -7.317333333333334, 18.084 -7.3759999999999994 L 18.084 -8.264 C 18.513333333333335 -8.224, 18.846666666666668 -8.078666666666667, 19.084 -7.828 C 19.321333333333335 -7.577333333333334, 19.445333333333334 -7.231999999999999, 19.456 -6.792 C 19.46666666666667 -6.477333333333332, 19.474666666666668 -6.167333333333333, 19.48 -5.861999999999999 C 19.485333333333333 -5.556666666666667, 19.488 -5.256, 19.488 -4.96 C 19.488 -4.664, 19.485333333333333 -4.370666666666667, 19.48 -4.08 C 19.474666666666668 -3.7893333333333334, 19.46666666666667 -3.5, 19.456 -3.2119999999999997 C 19.439999999999998 -2.761333333333333, 19.311999999999998 -2.4126666666666665, 19.072 -2.166 C 18.832 -1.9193333333333331, 18.502666666666666 -1.7759999999999998, 18.084 -1.7359999999999998 Z M 21.944 -1.7999999999999998 L 21.944 -8.2 L 23.003999999999998 -8.2 L 23.003999999999998 -1.7999999999999998 Z " stroke="none" fill-rule="nonzero" fill="#000000" fill-opacity="1" transform="matrix(1,0,0,1,5.05,13.314)" id="text20 l" />
  <path d="M -5 -13.264 L 30 -13.264 L 30 322.0536332021542 L -5 322.0536332021542 Z " stroke="#FF0000" stroke-opacity="1" stroke-width="0.1" stroke-linecap="butt" stroke-linejoin="miter" fill="none" transform="matrix(1,0,0,1,5.05,13.314)" />
</svg>