<?xml version="1.0" encoding="UTF-8"?>
<svg xmlns:xlink="http://www.w3.org/1999/xlink" viewBox="0 0 35.1 252.4157297279031" version="1.1" style="font-synthesis: none;" width="35.1mm" height="252.4157297279031mm" xmlns="http://www.w3.org/2000/svg">
  <defs />
  <style>	</style>
  <path d="M 0 0 L 35.1 0 L 35.1 252.4157297279031 L 0 252.4157297279031 Z " stroke="none" fill-rule="nonzero" fill="#FFFFFF" fill-opacity="1" transform="matrix(1,0,0,1,0,0)" />
  <path d="M 0 231.56572972790312 L 10 231.56572972790312 L 10 233.06572972790312 L 0 233.06572972790312 Z " stroke="none" fill-rule="evenodd" fill="#000000" fill-opacity="1" transform="matrix(1,0,0,1,5.05,13.314)" id="mark1 l" />
  <path d="M 0 214.9717490330529 L 10 214.9717490330529 L 10 216.4717490330529 L 0 216.4717490330529 Z " stroke="none" fill-rule="evenodd" fill="#000000" fill-opacity="1" transform="matrix(1,0,0,1,5.05,13.314)" id="mark2 l" />
  <path d="M 0 198.37776833820266 L 10 198.37776833820266 L 10 199.87776833820266 L 0 199.87776833820266 Z " stroke="none" fill-rule="evenodd" fill="#000000" fill-opacity="1" transform="matrix(1,0,0,1,5.05,13.314)" id="mark3 l" />
  <path d="M 0 181.78378764335247 L 10 181.78378764335247 L 10 183.28378764335247 L 0 183.28378764335247 Z " stroke="none" fill-rule="evenodd" fill="#000000" fill-opacity="1" transform="matrix(1,0,0,1,5.05,13.314)" id="mark4 l" />
  <path d="M 0 165.18980694850222 L 25 165.18980694850222 L 25 166.68980694850222 L 0 166.68980694850222 Z " stroke="none" fill-rule="evenodd" fill="#000000" fill-opacity="1" transform="matrix(1,0,0,1,5.05,13.314)" id="mark5 l" />
  <path d="M 16.18 162.69180694850223 C 16.174666666666667 162.51847361516892, 16.173333333333332 162.37914028183556, 16.176 162.27380694850223 C 16.178666666666665 162.1684736151689, 16.181333333333335 162.06647361516892, 16.183999999999997 161.96780694850224 L 17.264 161.96780694850224 C 17.256 162.04514028183556, 17.25 162.14114028183556, 17.246 162.25580694850223 C 17.241999999999997 162.3704736151689, 17.240666666666666 162.48114028183556, 17.241999999999997 162.58780694850222 C 17.243333333333332 162.69447361516887, 17.246666666666666 162.7744736151689, 17.252 162.82780694850223 C 17.262666666666668 162.94780694850223, 17.297333333333334 163.04580694850225, 17.355999999999998 163.12180694850224 C 17.414666666666665 163.19780694850223, 17.497333333333334 163.25180694850224, 17.604 163.28380694850222 L 17.604 164.17580694850224 C 17.110666666666663 164.1384736151689, 16.75333333333333 164.00380694850224, 16.532 163.77180694850222 C 16.310666666666666 163.53980694850225, 16.19333333333333 163.17980694850223, 16.18 162.69180694850223 Z M 16.279999999999998 161.35580694850222 L 16.279999999999998 157.70780694850222 L 17.348 157.70780694850222 L 17.348 161.35580694850222 Z M 17.852 160.93180694850224 L 17.852 160.17580694850224 C 17.929333333333332 160.13580694850225, 18.014666666666667 160.10380694850224, 18.107999999999997 160.07980694850224 C 18.20133333333333 160.05580694850224, 18.301333333333332 160.04380694850224, 18.407999999999998 160.04380694850224 C 18.773333333333333 160.04380694850224, 19.047333333333334 160.15914028183556, 19.23 160.38980694850224 C 19.412666666666667 160.6204736151689, 19.514666666666663 160.93447361516888, 19.535999999999998 161.33180694850222 C 19.546666666666667 161.49180694850224, 19.55333333333333 161.6504736151689, 19.555999999999997 161.80780694850222 C 19.558666666666664 161.96514028183557, 19.557333333333332 162.1184736151689, 19.552 162.26780694850223 C 19.546666666666667 162.41714028183554, 19.538666666666668 162.55714028183556, 19.528 162.68780694850224 C 19.482666666666667 163.1864736151689, 19.353333333333335 163.55180694850222, 19.14 163.78380694850222 C 18.926666666666666 164.01580694850222, 18.581333333333333 164.1464736151689, 18.104 164.17580694850224 L 18.104 163.28380694850222 C 18.21333333333333 163.25447361516888, 18.296 163.20180694850222, 18.352 163.12580694850223 C 18.408 163.04980694850224, 18.44 162.9504736151689, 18.448 162.82780694850223 C 18.471999999999998 162.53714028183555, 18.485999999999997 162.27580694850224, 18.49 162.04380694850224 C 18.494 161.81180694850224, 18.485333333333333 161.5904736151689, 18.464 161.37980694850222 C 18.447999999999997 161.22514028183556, 18.396666666666665 161.10980694850224, 18.31 161.03380694850222 C 18.223333333333333 160.95780694850225, 18.090666666666664 160.91980694850224, 17.912 160.91980694850224 C 17.901333333333334 160.91980694850224, 17.890666666666668 160.92114028183556, 17.88 160.92380694850223 C 17.86933333333333 160.9264736151689, 17.86 160.92914028183554, 17.852 160.93180694850224 Z M 17.852 158.63980694850224 L 17.852 157.70780694850222 L 19.439999999999998 157.70780694850222 L 19.439999999999998 158.63980694850224 Z M 21.944 164.10780694850223 L 21.944 157.70780694850222 L 23.003999999999998 157.70780694850222 L 23.003999999999998 164.10780694850223 Z " stroke="none" fill-rule="nonzero" fill="#000000" fill-opacity="1" transform="matrix(1,0,0,1,5.05,13.314)" id="text5 l" />
  <path d="M 0 148.595826253652 L 10 148.595826253652 L 10 150.095826253652 L 0 150.095826253652 Z " stroke="none" fill-rule="evenodd" fill="#000000" fill-opacity="1" transform="matrix(1,0,0,1,5.05,13.314)" id="mark6 l" />
  <path d="M 0 132.0018455588018 L 10 132.0018455588018 L 10 133.5018455588018 L 0 133.5018455588018 Z " stroke="none" fill-rule="evenodd" fill="#000000" fill-opacity="1" transform="matrix(1,0,0,1,5.05,13.314)" id="mark7 l" />
  <path d="M 0 115.40786486395157 L 10 115.40786486395157 L 10 116.90786486395157 L 0 116.90786486395157 Z " stroke="none" fill-rule="evenodd" fill="#000000" fill-opacity="1" transform="matrix(1,0,0,1,5.05,13.314)" id="mark8 l" />
  <path d="M 0 98.81388416910133 L 10 98.81388416910133 L 10 100.31388416910133 L 0 100.31388416910133 Z " stroke="none" fill-rule="evenodd" fill="#000000" fill-opacity="1" transform="matrix(1,0,0,1,5.05,13.314)" id="mark9 l" />
  <path d="M 0 82.21990347425111 L 25 82.21990347425111 L 25 83.71990347425111 L 0 83.71990347425111 Z " stroke="none" fill-rule="evenodd" fill="#000000" fill-opacity="1" transform="matrix(1,0,0,1,5.05,13.314)" id="mark10 l" />
  <path d="M 14.323999999999998 81.16990347425111 L 14.323999999999998 75.72590347425111 L 13.871999999999998 75.72590347425111 L 13.839999999999998 75.34590347425112 L 14.543999999999999 74.76990347425111 L 15.424 74.76990347425111 L 15.424 81.16990347425111 Z M 16.196 79.75790347425111 C 16.188000000000002 79.32857014091778, 16.182666666666666 78.91190347425112, 16.18 78.50790347425111 C 16.177333333333333 78.10390347425111, 16.177999999999997 77.70857014091777, 16.182 77.32190347425112 C 16.186 76.93523680758446, 16.190666666666665 76.55390347425111, 16.196 76.17790347425111 C 16.209333333333333 75.73790347425111, 16.334000000000003 75.39257014091778, 16.57 75.14190347425111 C 16.805999999999997 74.89123680758445, 17.142666666666663 74.74590347425112, 17.58 74.70590347425112 L 17.58 75.59390347425112 C 17.382666666666665 75.64990347425112, 17.281333333333333 75.77923680758444, 17.276 75.98190347425111 C 17.262666666666668 76.35257014091778, 17.253333333333334 76.70057014091778, 17.248 77.02590347425111 C 17.242666666666665 77.35123680758444, 17.24 77.6679034742511, 17.24 77.97590347425111 C 17.24 78.28390347425112, 17.242666666666665 78.59857014091779, 17.248 78.91990347425111 C 17.253333333333334 79.24123680758444, 17.262666666666668 79.58457014091778, 17.276 79.94990347425112 C 17.281333333333333 80.15790347425111, 17.382666666666665 80.28990347425112, 17.58 80.34590347425112 L 17.58 81.23390347425111 C 17.142666666666663 81.19390347425112, 16.805999999999997 81.04790347425111, 16.57 80.79590347425112 C 16.334000000000003 80.54390347425112, 16.209333333333333 80.19790347425112, 16.196 79.75790347425111 Z M 18.084 81.23390347425111 L 18.084 80.34190347425111 C 18.268 80.28857014091778, 18.366666666666667 80.16457014091779, 18.38 79.96990347425111 C 18.398666666666667 79.50323680758444, 18.410666666666668 79.05457014091778, 18.416 78.62390347425111 C 18.421333333333333 78.19323680758444, 18.421333333333333 77.76257014091779, 18.416 77.33190347425112 C 18.410666666666668 76.90123680758445, 18.398666666666667 76.44857014091778, 18.38 75.97390347425112 C 18.374666666666666 75.77923680758445, 18.276 75.65257014091779, 18.084 75.59390347425112 L 18.084 74.70590347425112 C 18.513333333333335 74.74590347425112, 18.846666666666668 74.89123680758445, 19.084 75.14190347425111 C 19.321333333333335 75.39257014091778, 19.445333333333334 75.73790347425111, 19.456 76.17790347425111 C 19.46666666666667 76.49257014091778, 19.474666666666668 76.80257014091778, 19.48 77.10790347425112 C 19.485333333333333 77.41323680758445, 19.488 77.71390347425111, 19.488 78.00990347425112 C 19.488 78.30590347425112, 19.485333333333333 78.59923680758445, 19.48 78.88990347425111 C 19.474666666666668 79.18057014091778, 19.46666666666667 79.46990347425111, 19.456 79.75790347425111 C 19.439999999999998 80.20857014091777, 19.311999999999998 80.55723680758445, 19.072 80.80390347425111 C 18.832 81.05057014091778, 18.502666666666666 81.19390347425112, 18.084 81.23390347425111 Z M 21.944 81.16990347425111 L 21.944 74.76990347425111 L 23.003999999999998 74.76990347425111 L 23.003999999999998 81.16990347425111 Z " stroke="none" fill-rule="nonzero" fill="#000000" fill-opacity="1" transform="matrix(1,0,0,1,5.05,13.314)" id="text10 l" />
  <path d="M 0 65.6259227794009 L 10 65.6259227794009 L 10 67.1259227794009 L 0 67.1259227794009 Z " stroke="none" fill-rule="evenodd" fill="#000000" fill-opacity="1" transform="matrix(1,0,0,1,5.05,13.314)" id="mark11 l" />
  <path d="M 0 49.03194208455068 L 10 49.03194208455068 L 10 50.53194208455068 L 0 50.53194208455068 Z " stroke="none" fill-rule="evenodd" fill="#000000" fill-opacity="1" transform="matrix(1,0,0,1,5.05,13.314)" id="mark12 l" />
  <path d="M 0 32.43796138970046 L 10 32.43796138970046 L 10 33.93796138970046 L 0 33.93796138970046 Z " stroke="none" fill-rule="evenodd" fill="#000000" fill-opacity="1" transform="matrix(1,0,0,1,5.05,13.314)" id="mark13 l" />
  <path d="M 0 15.843980694850217 L 10 15.843980694850217 L 10 17.343980694850217 L 0 17.343980694850217 Z " stroke="none" fill-rule="evenodd" fill="#000000" fill-opacity="1" transform="matrix(1,0,0,1,5.05,13.314)" id="mark14 l" />
  <path d="M 0 -0.75 L 25 -0.75 L 25 0.75 L 0 0.75 Z " stroke="none" fill-rule="evenodd" fill="#000000" fill-opacity="1" transform="matrix(1,0,0,1,5.05,13.314)" id="mark15 l" />
  <path d="M 14.331999999999999 -1.8319999999999999 L 14.331999999999999 -7.276 L 13.879999999999999 -7.276 L 13.847999999999999 -7.656 L 14.552 -8.232 L 15.432 -8.232 L 15.432 -1.8319999999999999 Z M 16.18 -3.2479999999999998 C 16.174666666666667 -3.421333333333333, 16.173333333333332 -3.5606666666666666, 16.176 -3.666 C 16.178666666666665 -3.771333333333333, 16.181333333333335 -3.873333333333333, 16.183999999999997 -3.972 L 17.264 -3.972 C 17.256 -3.8946666666666667, 17.25 -3.7986666666666666, 17.246 -3.6839999999999997 C 17.241999999999997 -3.569333333333333, 17.240666666666666 -3.4586666666666663, 17.241999999999997 -3.352 C 17.243333333333332 -3.2453333333333334, 17.246666666666666 -3.1653333333333338, 17.252 -3.112 C 17.262666666666668 -2.992, 17.297333333333334 -2.8939999999999997, 17.355999999999998 -2.8179999999999996 C 17.414666666666665 -2.7419999999999995, 17.497333333333334 -2.6879999999999997, 17.604 -2.6559999999999997 L 17.604 -1.7639999999999998 C 17.110666666666663 -1.801333333333333, 16.75333333333333 -1.9359999999999997, 16.532 -2.1679999999999997 C 16.310666666666666 -2.4, 16.19333333333333 -2.76, 16.18 -3.2479999999999998 Z M 16.279999999999998 -4.584 L 16.279999999999998 -8.232 L 17.348 -8.232 L 17.348 -4.584 Z M 17.852 -5.008 L 17.852 -5.763999999999999 C 17.929333333333332 -5.804, 18.014666666666667 -5.836, 18.107999999999997 -5.86 C 18.20133333333333 -5.884, 18.301333333333332 -5.896, 18.407999999999998 -5.896 C 18.773333333333333 -5.896, 19.047333333333334 -5.780666666666667, 19.23 -5.55 C 19.412666666666667 -5.319333333333333, 19.514666666666663 -5.005333333333333, 19.535999999999998 -4.608 C 19.546666666666667 -4.448, 19.55333333333333 -4.289333333333333, 19.555999999999997 -4.132 C 19.558666666666664 -3.974666666666667, 19.557333333333332 -3.8213333333333335, 19.552 -3.6719999999999997 C 19.546666666666667 -3.522666666666667, 19.538666666666668 -3.3826666666666663, 19.528 -3.252 C 19.482666666666667 -2.753333333333333, 19.353333333333335 -2.388, 19.14 -2.1559999999999997 C 18.926666666666666 -1.9239999999999997, 18.581333333333333 -1.793333333333333, 18.104 -1.7639999999999998 L 18.104 -2.6559999999999997 C 18.21333333333333 -2.685333333333333, 18.296 -2.738, 18.352 -2.814 C 18.408 -2.89, 18.44 -2.9893333333333336, 18.448 -3.112 C 18.471999999999998 -3.4026666666666667, 18.485999999999997 -3.664, 18.49 -3.896 C 18.494 -4.128, 18.485333333333333 -4.349333333333333, 18.464 -4.5600000000000005 C 18.447999999999997 -4.714666666666667, 18.396666666666665 -4.83, 18.31 -4.906 C 18.223333333333333 -4.981999999999999, 18.090666666666664 -5.02, 17.912 -5.02 C 17.901333333333334 -5.02, 17.890666666666668 -5.018666666666666, 17.88 -5.016 C 17.86933333333333 -5.013333333333334, 17.86 -5.010666666666667, 17.852 -5.008 Z M 17.852 -7.3 L 17.852 -8.232 L 19.439999999999998 -8.232 L 19.439999999999998 -7.3 Z M 21.944 -1.8319999999999999 L 21.944 -8.232 L 23.003999999999998 -8.232 L 23.003999999999998 -1.8319999999999999 Z " stroke="none" fill-rule="nonzero" fill="#000000" fill-opacity="1" transform="matrix(1,0,0,1,5.05,13.314)" id="text15 l" />
  <path d="M -5 -13.264 L 30 -13.264 L 30 239.0517297279031 L -5 239.0517297279031 Z " stroke="#FF0000" stroke-opacity="1" stroke-width="0.1" stroke-linecap="butt" stroke-linejoin="miter" fill="none" transform="matrix(1,0,0,1,5.05,13.314)" />
</svg>