<?xml version="1.0" encoding="UTF-8"?>
<svg xmlns:xlink="http://www.w3.org/1999/xlink" viewBox="0 0 35.1 519.2099015361837" version="1.1" style="font-synthesis: none;" width="35.1mm" height="519.2099015361838mm" xmlns="http://www.w3.org/2000/svg">
  <defs />
  <style>	</style>
  <path d="M 0 0 L 35.1 0 L 35.1 519.2099015361837 L 0 519.2099015361837 Z " stroke="none" fill-rule="nonzero" fill="#FFFFFF" fill-opacity="1" transform="matrix(1,0,0,1,0,0)" />
  <path d="M 0 498.3599015361838 L 10 498.3599015361838 L 10 499.8599015361838 L 0 499.8599015361838 Z " stroke="none" fill-rule="evenodd" fill="#000000" fill-opacity="1" transform="matrix(1,0,0,1,5.05,13.318000000000001)" id="mark2 l" />
  <path d="M 0 488.17398517830253 L 10 488.17398517830253 L 10 489.67398517830253 L 0 489.67398517830253 Z " stroke="none" fill-rule="evenodd" fill="#000000" fill-opacity="1" transform="matrix(1,0,0,1,5.05,13.318000000000001)" id="mark4 l" />
  <path d="M 0 477.98806882042123 L 10 477.98806882042123 L 10 479.48806882042123 L 0 479.48806882042123 Z " stroke="none" fill-rule="evenodd" fill="#000000" fill-opacity="1" transform="matrix(1,0,0,1,5.05,13.318000000000001)" id="mark6 l" />
  <path d="M 0 467.80215246253994 L 10 467.80215246253994 L 10 469.30215246253994 L 0 469.30215246253994 Z " stroke="none" fill-rule="evenodd" fill="#000000" fill-opacity="1" transform="matrix(1,0,0,1,5.05,13.318000000000001)" id="mark8 l" />
  <path d="M 0 457.6162361046586 L 25 457.6162361046586 L 25 459.1162361046586 L 0 459.1162361046586 Z " stroke="none" fill-rule="evenodd" fill="#000000" fill-opacity="1" transform="matrix(1,0,0,1,5.05,13.318000000000001)" id="mark10 l" />
  <path d="M 14.323999999999998 456.56623610465857 L 14.323999999999998 451.12223610465855 L 13.871999999999998 451.12223610465855 L 13.839999999999998 450.74223610465856 L 14.543999999999999 450.1662361046586 L 15.424 450.1662361046586 L 15.424 456.56623610465857 Z M 16.196 455.1542361046586 C 16.188000000000002 454.7249027713252, 16.182666666666666 454.3082361046586, 16.18 453.9042361046586 C 16.177333333333333 453.5002361046586, 16.177999999999997 453.1049027713252, 16.182 452.71823610465856 C 16.186 452.3315694379919, 16.190666666666665 451.95023610465853, 16.196 451.57423610465855 C 16.209333333333333 451.1342361046586, 16.334000000000003 450.78890277132524, 16.57 450.53823610465855 C 16.805999999999997 450.2875694379919, 17.142666666666663 450.1422361046586, 17.58 450.1022361046586 L 17.58 450.99023610465855 C 17.382666666666665 451.04623610465853, 17.281333333333333 451.17556943799184, 17.276 451.3782361046586 C 17.262666666666668 451.7489027713252, 17.253333333333334 452.0969027713253, 17.248 452.42223610465857 C 17.242666666666665 452.74756943799196, 17.24 453.06423610465856, 17.24 453.37223610465855 C 17.24 453.68023610465855, 17.242666666666665 453.9949027713252, 17.248 454.31623610465857 C 17.253333333333334 454.63756943799194, 17.262666666666668 454.98090277132525, 17.276 455.34623610465854 C 17.281333333333333 455.55423610465857, 17.382666666666665 455.6862361046586, 17.58 455.74223610465856 L 17.58 456.6302361046586 C 17.142666666666663 456.59023610465863, 16.805999999999997 456.44423610465856, 16.57 456.19223610465855 C 16.334000000000003 455.94023610465854, 16.209333333333333 455.59423610465853, 16.196 455.1542361046586 Z M 18.084 456.6302361046586 L 18.084 455.7382361046586 C 18.268 455.68490277132526, 18.366666666666667 455.56090277132523, 18.38 455.3662361046586 C 18.398666666666667 454.8995694379919, 18.410666666666668 454.4509027713252, 18.416 454.0202361046586 C 18.421333333333333 453.58956943799194, 18.421333333333333 453.1589027713252, 18.416 452.72823610465855 C 18.410666666666668 452.2975694379919, 18.398666666666667 451.8449027713252, 18.38 451.37023610465855 C 18.374666666666666 451.1755694379919, 18.276 451.04890277132523, 18.084 450.99023610465855 L 18.084 450.1022361046586 C 18.513333333333335 450.1422361046586, 18.846666666666668 450.2875694379919, 19.084 450.53823610465855 C 19.321333333333335 450.78890277132524, 19.445333333333334 451.1342361046586, 19.456 451.57423610465855 C 19.46666666666667 451.8889027713252, 19.474666666666668 452.19890277132527, 19.48 452.50423610465856 C 19.485333333333333 452.80956943799197, 19.488 453.1102361046586, 19.488 453.40623610465855 C 19.488 453.7022361046586, 19.485333333333333 453.9955694379919, 19.48 454.2862361046586 C 19.474666666666668 454.5769027713252, 19.46666666666667 454.8662361046586, 19.456 455.1542361046586 C 19.439999999999998 455.6049027713252, 19.311999999999998 455.9535694379919, 19.072 456.2002361046586 C 18.832 456.44690277132526, 18.502666666666666 456.59023610465863, 18.084 456.6302361046586 Z M 21.944 456.56623610465857 L 21.944 450.1662361046586 L 23.003999999999998 450.1662361046586 L 23.003999999999998 456.56623610465857 Z " stroke="none" fill-rule="nonzero" fill="#000000" fill-opacity="1" transform="matrix(1,0,0,1,5.05,13.318000000000001)" id="text10 l" />
  <path d="M 0 447.4303197467773 L 10 447.4303197467773 L 10 448.9303197467773 L 0 448.9303197467773 Z " stroke="none" fill-rule="evenodd" fill="#000000" fill-opacity="1" transform="matrix(1,0,0,1,5.05,13.318000000000001)" id="mark12 l" />
  <path d="M 0 437.244403388896 L 10 437.244403388896 L 10 438.744403388896 L 0 438.744403388896 Z " stroke="none" fill-rule="evenodd" fill="#000000" fill-opacity="1" transform="matrix(1,0,0,1,5.05,13.318000000000001)" id="mark14 l" />
  <path d="M 0 427.0584870310147 L 10 427.0584870310147 L 10 428.5584870310147 L 0 428.5584870310147 Z " stroke="none" fill-rule="evenodd" fill="#000000" fill-opacity="1" transform="matrix(1,0,0,1,5.05,13.318000000000001)" id="mark16 l" />
  <path d="M 0 416.8725706731334 L 10 416.8725706731334 L 10 418.3725706731334 L 0 418.3725706731334 Z " stroke="none" fill-rule="evenodd" fill="#000000" fill-opacity="1" transform="matrix(1,0,0,1,5.05,13.318000000000001)" id="mark18 l" />
  <path d="M 0 406.6866543152521 L 25 406.6866543152521 L 25 408.1866543152521 L 0 408.1866543152521 Z " stroke="none" fill-rule="evenodd" fill="#000000" fill-opacity="1" transform="matrix(1,0,0,1,5.05,13.318000000000001)" id="mark20 l" />
  <path d="M 12.319999999999999 405.6366543152521 C 12.317333333333334 405.5379876485854, 12.315333333333331 405.44932098191873, 12.313999999999998 405.37065431525207 C 12.312666666666665 405.2919876485854, 12.311333333333334 405.21798764858545, 12.309999999999999 405.1486543152521 C 12.308666666666667 405.0793209819187, 12.308 405.0073209819187, 12.308 404.9326543152521 C 12.308 404.85798764858544, 12.308 404.77332098191874, 12.308 404.67865431525206 C 12.308 404.5839876485854, 12.309333333333335 404.47265431525204, 12.312 404.3446543152521 C 12.32 404.0513209819187, 12.37 403.78932098191876, 12.462 403.5586543152521 C 12.554 403.32798764858546, 12.687999999999999 403.12198764858545, 12.863999999999999 402.94065431525206 C 13.04 402.7593209819188, 13.257333333333333 402.59798764858544, 13.515999999999998 402.4566543152521 L 14.047999999999998 402.16865431525207 C 14.234666666666666 402.0673209819188, 14.354 401.94532098191877, 14.405999999999999 401.8026543152521 C 14.457999999999998 401.6599876485854, 14.488 401.52598764858544, 14.495999999999999 401.4006543152521 C 14.506666666666664 401.2539876485854, 14.512666666666664 401.09732098191876, 14.514 400.93065431525207 C 14.51533333333333 400.7639876485854, 14.511999999999997 400.60732098191875, 14.504 400.4606543152521 C 14.498666666666665 400.35665431525206, 14.468666666666666 400.27065431525205, 14.413999999999998 400.20265431525206 C 14.359333333333332 400.1346543152521, 14.279999999999998 400.08598764858544, 14.175999999999998 400.0566543152521 L 14.175999999999998 399.16865431525207 C 14.663999999999998 399.2006543152521, 15.014 399.3319876485854, 15.225999999999999 399.5626543152521 C 15.437999999999999 399.7933209819187, 15.554666666666666 400.15398764858537, 15.575999999999999 400.64465431525207 C 15.578666666666663 400.70865431525203, 15.580666666666666 400.7739876485854, 15.581999999999999 400.8406543152521 C 15.583333333333332 400.9073209819187, 15.584 400.97198764858535, 15.584 401.0346543152521 C 15.584 401.09732098191876, 15.583333333333332 401.15932098191877, 15.581999999999999 401.2206543152521 C 15.580666666666666 401.2819876485854, 15.578666666666663 401.3419876485855, 15.575999999999999 401.4006543152521 C 15.565333333333331 401.6859876485854, 15.512 401.9326543152521, 15.415999999999999 402.1406543152521 C 15.32 402.34865431525213, 15.19 402.5286543152521, 15.026 402.68065431525207 C 14.862 402.83265431525206, 14.672 402.968654315252, 14.456 403.0886543152521 L 13.851999999999999 403.41665431525206 C 13.737333333333332 403.47798764858544, 13.647333333333332 403.5619876485854, 13.581999999999999 403.66865431525207 C 13.516666666666666 403.77532098191875, 13.469999999999999 403.8886543152521, 13.441999999999998 404.0086543152521 C 13.413999999999998 404.1286543152521, 13.399999999999999 404.2406543152521, 13.399999999999999 404.3446543152521 L 13.399999999999999 405.6366543152521 Z M 12.328 401.59665431525207 C 12.322666666666667 401.47932098191876, 12.318666666666665 401.3646543152521, 12.315999999999999 401.2526543152521 C 12.313333333333333 401.14065431525205, 12.311333333333334 401.03465431525206, 12.309999999999999 400.9346543152521 C 12.308666666666667 400.8346543152521, 12.309333333333335 400.73798764858543, 12.312 400.64465431525207 C 12.330666666666666 400.1566543152521, 12.447333333333333 399.7973209819188, 12.661999999999999 399.5666543152521 C 12.876666666666665 399.3359876485854, 13.213333333333331 399.20332098191875, 13.671999999999999 399.16865431525207 L 13.671999999999999 400.06065431525207 C 13.576 400.0899876485854, 13.505333333333333 400.1366543152521, 13.459999999999999 400.2006543152521 C 13.414666666666665 400.26465431525213, 13.390666666666664 400.3419876485855, 13.387999999999998 400.4326543152521 C 13.382666666666665 400.64065431525205, 13.379333333333333 400.83398764858543, 13.378 401.01265431525206 C 13.376666666666667 401.1913209819187, 13.381333333333334 401.3859876485854, 13.392 401.59665431525207 Z M 13.904 405.6366543152521 L 13.904 404.70465431525207 L 15.5 404.70465431525207 L 15.5 405.6366543152521 Z M 16.196 404.2246543152521 C 16.188000000000002 403.79532098191874, 16.182666666666666 403.3786543152521, 16.18 402.9746543152521 C 16.177333333333333 402.5706543152521, 16.177999999999997 402.17532098191873, 16.182 401.7886543152521 C 16.186 401.4019876485854, 16.190666666666665 401.02065431525205, 16.196 400.64465431525207 C 16.209333333333333 400.2046543152521, 16.334000000000003 399.85932098191876, 16.57 399.60865431525207 C 16.805999999999997 399.35798764858544, 17.142666666666663 399.2126543152521, 17.58 399.1726543152521 L 17.58 400.06065431525207 C 17.382666666666665 400.11665431525205, 17.281333333333333 400.24598764858536, 17.276 400.4486543152521 C 17.262666666666668 400.81932098191874, 17.253333333333334 401.1673209819188, 17.248 401.4926543152521 C 17.242666666666665 401.8179876485855, 17.24 402.1346543152521, 17.24 402.44265431525207 C 17.24 402.75065431525206, 17.242666666666665 403.0653209819187, 17.248 403.3866543152521 C 17.253333333333334 403.70798764858546, 17.262666666666668 404.05132098191876, 17.276 404.41665431525206 C 17.281333333333333 404.6246543152521, 17.382666666666665 404.7566543152521, 17.58 404.8126543152521 L 17.58 405.7006543152521 C 17.142666666666663 405.66065431525215, 16.805999999999997 405.5146543152521, 16.57 405.26265431525206 C 16.334000000000003 405.01065431525205, 16.209333333333333 404.66465431525205, 16.196 404.2246543152521 Z M 18.084 405.7006543152521 L 18.084 404.8086543152521 C 18.268 404.75532098191877, 18.366666666666667 404.63132098191875, 18.38 404.4366543152521 C 18.398666666666667 403.9699876485854, 18.410666666666668 403.52132098191873, 18.416 403.0906543152521 C 18.421333333333333 402.65998764858546, 18.421333333333333 402.2293209819187, 18.416 401.79865431525207 C 18.410666666666668 401.3679876485854, 18.398666666666667 400.91532098191874, 18.38 400.44065431525206 C 18.374666666666666 400.2459876485854, 18.276 400.11932098191875, 18.084 400.06065431525207 L 18.084 399.1726543152521 C 18.513333333333335 399.2126543152521, 18.846666666666668 399.35798764858544, 19.084 399.60865431525207 C 19.321333333333335 399.85932098191876, 19.445333333333334 400.2046543152521, 19.456 400.64465431525207 C 19.46666666666667 400.9593209819187, 19.474666666666668 401.2693209819188, 19.48 401.5746543152521 C 19.485333333333333 401.8799876485855, 19.488 402.1806543152521, 19.488 402.47665431525206 C 19.488 402.7726543152521, 19.485333333333333 403.0659876485854, 19.48 403.3566543152521 C 19.474666666666668 403.6473209819187, 19.46666666666667 403.9366543152521, 19.456 404.2246543152521 C 19.439999999999998 404.67532098191873, 19.311999999999998 405.02398764858543, 19.072 405.2706543152521 C 18.832 405.5173209819188, 18.502666666666666 405.66065431525215, 18.084 405.7006543152521 Z M 21.944 405.6366543152521 L 21.944 399.2366543152521 L 23.003999999999998 399.2366543152521 L 23.003999999999998 405.6366543152521 Z " stroke="none" fill-rule="nonzero" fill="#000000" fill-opacity="1" transform="matrix(1,0,0,1,5.05,13.318000000000001)" id="text20 l" />
  <path d="M 0 396.5007379573708 L 10 396.5007379573708 L 10 398.0007379573708 L 0 398.0007379573708 Z " stroke="none" fill-rule="evenodd" fill="#000000" fill-opacity="1" transform="matrix(1,0,0,1,5.05,13.318000000000001)" id="mark22 l" />
  <path d="M 0 386.3148215994895 L 10 386.3148215994895 L 10 387.8148215994895 L 0 387.8148215994895 Z " stroke="none" fill-rule="evenodd" fill="#000000" fill-opacity="1" transform="matrix(1,0,0,1,5.05,13.318000000000001)" id="mark24 l" />
  <path d="M 0 376.1289052416082 L 10 376.1289052416082 L 10 377.6289052416082 L 0 377.6289052416082 Z " stroke="none" fill-rule="evenodd" fill="#000000" fill-opacity="1" transform="matrix(1,0,0,1,5.05,13.318000000000001)" id="mark26 l" />
  <path d="M 0 365.9429888837269 L 10 365.9429888837269 L 10 367.4429888837269 L 0 367.4429888837269 Z " stroke="none" fill-rule="evenodd" fill="#000000" fill-opacity="1" transform="matrix(1,0,0,1,5.05,13.318000000000001)" id="mark28 l" />
  <path d="M 0 355.7570725258456 L 25 355.7570725258456 L 25 357.2570725258456 L 0 357.2570725258456 Z " stroke="none" fill-rule="evenodd" fill="#000000" fill-opacity="1" transform="matrix(1,0,0,1,5.05,13.318000000000001)" id="mark30 l" />
  <path d="M 12.223999999999998 353.2910725258456 C 12.221333333333334 353.18973919251226, 12.219333333333333 353.10573919251226, 12.218 353.0390725258456 C 12.216666666666667 352.97240585917893, 12.216666666666667 352.90440585917895, 12.218 352.8350725258456 C 12.219333333333333 352.7657391925122, 12.221333333333334 352.67640585917894, 12.223999999999998 352.5670725258456 L 13.303999999999998 352.5670725258456 L 13.303999999999998 353.4310725258456 C 13.303999999999998 353.66840585917896, 13.417333333333332 353.8190725258456, 13.643999999999998 353.8830725258456 L 13.643999999999998 354.7750725258456 C 13.155999999999999 354.73773919251227, 12.800666666666665 354.6030725258456, 12.578 354.3710725258456 C 12.355333333333334 354.13907252584556, 12.237333333333332 353.7790725258456, 12.223999999999998 353.2910725258456 Z M 12.292 349.2390725258456 L 12.292 348.3070725258456 L 15.536 348.3070725258456 L 15.536 349.2390725258456 Z M 14.143999999999998 353.8870725258456 C 14.367999999999999 353.8310725258456, 14.483999999999998 353.68040585917896, 14.491999999999999 353.4350725258456 C 14.497333333333334 353.2324058591789, 14.500666666666666 353.0497391925122, 14.501999999999999 352.8870725258456 C 14.503333333333332 352.7244058591789, 14.498666666666665 352.56707252584556, 14.488 352.41507252584563 C 14.48 352.2577391925123, 14.431999999999999 352.1244058591789, 14.344 352.0150725258456 C 14.256 351.90573919251227, 14.089333333333332 351.8537391925123, 13.844 351.8590725258456 L 13.096 351.86707252584563 L 13.068 350.9750725258456 L 14.027999999999999 349.5910725258456 L 15.216 349.5910725258456 L 14.248 350.9430725258456 L 14.28 350.9430725258456 C 14.712 350.9430725258456, 15.028666666666666 351.06573919251224, 15.229999999999999 351.3110725258456 C 15.431333333333333 351.55640585917894, 15.544 351.93373919251223, 15.568 352.4430725258456 C 15.57333333333333 352.5150725258456, 15.576666666666664 352.5870725258456, 15.578 352.6590725258456 C 15.57933333333333 352.7310725258456, 15.579999999999998 352.8017391925123, 15.579999999999998 352.8710725258456 C 15.579999999999998 352.9404058591789, 15.57933333333333 353.00973919251226, 15.578 353.0790725258456 C 15.576666666666664 353.1484058591789, 15.57333333333333 353.2190725258456, 15.568 353.2910725258456 C 15.549333333333333 353.7870725258456, 15.428666666666665 354.15173919251225, 15.206 354.3850725258456 C 14.983333333333334 354.61840585917895, 14.630666666666666 354.74840585917894, 14.148 354.7750725258456 Z M 16.196 353.2950725258456 C 16.188000000000002 352.8657391925123, 16.182666666666666 352.4490725258456, 16.18 352.0450725258456 C 16.177333333333333 351.64107252584563, 16.177999999999997 351.2457391925123, 16.182 350.8590725258456 C 16.186 350.47240585917893, 16.190666666666665 350.0910725258456, 16.196 349.7150725258456 C 16.209333333333333 349.2750725258456, 16.334000000000003 348.9297391925123, 16.57 348.6790725258456 C 16.805999999999997 348.42840585917895, 17.142666666666663 348.28307252584557, 17.58 348.2430725258456 L 17.58 349.1310725258456 C 17.382666666666665 349.18707252584556, 17.281333333333333 349.31640585917893, 17.276 349.5190725258456 C 17.262666666666668 349.88973919251225, 17.253333333333334 350.23773919251227, 17.248 350.5630725258456 C 17.242666666666665 350.88840585917893, 17.24 351.2050725258456, 17.24 351.5130725258456 C 17.24 351.8210725258456, 17.242666666666665 352.13573919251223, 17.248 352.4570725258456 C 17.253333333333334 352.778405859179, 17.262666666666668 353.1217391925123, 17.276 353.4870725258456 C 17.281333333333333 353.6950725258456, 17.382666666666665 353.82707252584555, 17.58 353.8830725258456 L 17.58 354.7710725258456 C 17.142666666666663 354.7310725258456, 16.805999999999997 354.5850725258456, 16.57 354.3330725258456 C 16.334000000000003 354.08107252584557, 16.209333333333333 353.7350725258456, 16.196 353.2950725258456 Z M 18.084 354.7710725258456 L 18.084 353.87907252584563 C 18.268 353.8257391925123, 18.366666666666667 353.70173919251226, 18.38 353.5070725258456 C 18.398666666666667 353.040405859179, 18.410666666666668 352.5917391925123, 18.416 352.1610725258456 C 18.421333333333333 351.7304058591789, 18.421333333333333 351.2997391925123, 18.416 350.8690725258456 C 18.410666666666668 350.43840585917894, 18.398666666666667 349.98573919251226, 18.38 349.5110725258456 C 18.374666666666666 349.31640585917893, 18.276 349.18973919251226, 18.084 349.1310725258456 L 18.084 348.2430725258456 C 18.513333333333335 348.28307252584557, 18.846666666666668 348.42840585917895, 19.084 348.6790725258456 C 19.321333333333335 348.9297391925123, 19.445333333333334 349.2750725258456, 19.456 349.7150725258456 C 19.46666666666667 350.0297391925123, 19.474666666666668 350.3397391925123, 19.48 350.6450725258456 C 19.485333333333333 350.95040585917894, 19.488 351.2510725258456, 19.488 351.5470725258456 C 19.488 351.84307252584557, 19.485333333333333 352.1364058591789, 19.48 352.42707252584563 C 19.474666666666668 352.7177391925123, 19.46666666666667 353.0070725258456, 19.456 353.2950725258456 C 19.439999999999998 353.7457391925123, 19.311999999999998 354.09440585917895, 19.072 354.3410725258456 C 18.832 354.5877391925123, 18.502666666666666 354.7310725258456, 18.084 354.7710725258456 Z M 21.944 354.7070725258456 L 21.944 348.3070725258456 L 23.003999999999998 348.3070725258456 L 23.003999999999998 354.7070725258456 Z " stroke="none" fill-rule="nonzero" fill="#000000" fill-opacity="1" transform="matrix(1,0,0,1,5.05,13.318000000000001)" id="text30 l" />
  <path d="M 0 345.5711561679643 L 10 345.5711561679643 L 10 347.0711561679643 L 0 347.0711561679643 Z " stroke="none" fill-rule="evenodd" fill="#000000" fill-opacity="1" transform="matrix(1,0,0,1,5.05,13.318000000000001)" id="mark32 l" />
  <path d="M 0 335.385239810083 L 10 335.385239810083 L 10 336.885239810083 L 0 336.885239810083 Z " stroke="none" fill-rule="evenodd" fill="#000000" fill-opacity="1" transform="matrix(1,0,0,1,5.05,13.318000000000001)" id="mark34 l" />
  <path d="M 0 325.1993234522017 L 10 325.1993234522017 L 10 326.6993234522017 L 0 326.6993234522017 Z " stroke="none" fill-rule="evenodd" fill="#000000" fill-opacity="1" transform="matrix(1,0,0,1,5.05,13.318000000000001)" id="mark36 l" />
  <path d="M 0 315.01340709432037 L 10 315.01340709432037 L 10 316.51340709432037 L 0 316.51340709432037 Z " stroke="none" fill-rule="evenodd" fill="#000000" fill-opacity="1" transform="matrix(1,0,0,1,5.05,13.318000000000001)" id="mark38 l" />
  <path d="M 0 304.8274907364391 L 25 304.8274907364391 L 25 306.3274907364391 L 0 306.3274907364391 Z " stroke="none" fill-rule="evenodd" fill="#000000" fill-opacity="1" transform="matrix(1,0,0,1,5.05,13.318000000000001)" id="mark40 l" />
  <path d="M 11.739999999999998 302.09349073643904 L 11.739999999999998 301.21749073643906 L 12.455999999999998 299.33749073643907 L 13.495999999999999 299.33749073643907 L 12.771999999999998 301.16949073643906 L 13.171999999999997 301.16949073643906 L 13.171999999999997 302.09349073643904 Z M 13.675999999999998 303.77749073643906 L 13.675999999999998 297.3774907364391 L 14.683999999999997 297.3774907364391 L 14.683999999999997 303.77749073643906 Z M 15.187999999999999 302.09349073643904 L 15.187999999999999 301.16949073643906 L 15.655999999999999 301.16949073643906 L 15.655999999999999 302.09349073643904 Z M 16.195999999999998 302.3654907364391 C 16.188 301.93615740310577, 16.182666666666666 301.5194907364391, 16.18 301.1154907364391 C 16.177333333333333 300.7114907364391, 16.177999999999997 300.31615740310576, 16.182 299.92949073643905 C 16.186 299.5428240697724, 16.190666666666665 299.1614907364391, 16.195999999999998 298.78549073643904 C 16.20933333333333 298.34549073643905, 16.333999999999996 298.00015740310573, 16.569999999999997 297.74949073643904 C 16.805999999999997 297.4988240697724, 17.142666666666663 297.3534907364391, 17.58 297.31349073643906 L 17.58 298.20149073643904 C 17.382666666666665 298.257490736439, 17.281333333333333 298.3868240697724, 17.275999999999996 298.5894907364391 C 17.262666666666664 298.9601574031057, 17.25333333333333 299.3081574031057, 17.247999999999998 299.63349073643906 C 17.242666666666665 299.9588240697724, 17.24 300.27549073643905, 17.24 300.58349073643905 C 17.24 300.89149073643904, 17.242666666666665 301.2061574031057, 17.247999999999998 301.52749073643906 C 17.25333333333333 301.84882406977243, 17.262666666666664 302.19215740310574, 17.275999999999996 302.55749073643904 C 17.281333333333333 302.76549073643906, 17.382666666666665 302.89749073643907, 17.58 302.95349073643905 L 17.58 303.8414907364391 C 17.142666666666663 303.80149073643906, 16.805999999999997 303.6554907364391, 16.569999999999997 303.40349073643904 C 16.333999999999996 303.1514907364391, 16.20933333333333 302.8054907364391, 16.195999999999998 302.3654907364391 Z M 18.084 303.8414907364391 L 18.084 302.9494907364391 C 18.268 302.89615740310575, 18.366666666666667 302.7721574031057, 18.38 302.5774907364391 C 18.398666666666664 302.11082406977243, 18.410666666666664 301.66215740310577, 18.415999999999997 301.23149073643907 C 18.42133333333333 300.8008240697724, 18.42133333333333 300.37015740310574, 18.415999999999997 299.93949073643904 C 18.410666666666664 299.5088240697724, 18.398666666666664 299.0561574031057, 18.38 298.58149073643904 C 18.374666666666666 298.3868240697724, 18.276 298.2601574031057, 18.084 298.20149073643904 L 18.084 297.31349073643906 C 18.513333333333332 297.3534907364391, 18.846666666666664 297.4988240697724, 19.083999999999996 297.74949073643904 C 19.32133333333333 298.00015740310573, 19.44533333333333 298.34549073643905, 19.456 298.78549073643904 C 19.466666666666665 299.10015740310575, 19.474666666666664 299.4101574031057, 19.479999999999997 299.71549073643905 C 19.48533333333333 300.0208240697724, 19.488 300.32149073643905, 19.488 300.61749073643904 C 19.488 300.91349073643903, 19.48533333333333 301.2068240697724, 19.479999999999997 301.4974907364391 C 19.474666666666664 301.78815740310574, 19.466666666666665 302.0774907364391, 19.456 302.3654907364391 C 19.439999999999998 302.81615740310576, 19.311999999999998 303.1648240697724, 19.072 303.4114907364391 C 18.831999999999997 303.65815740310575, 18.502666666666663 303.80149073643906, 18.084 303.8414907364391 Z M 21.944 303.77749073643906 L 21.944 297.3774907364391 L 23.003999999999998 297.3774907364391 L 23.003999999999998 303.77749073643906 Z " stroke="none" fill-rule="nonzero" fill="#000000" fill-opacity="1" transform="matrix(1,0,0,1,5.05,13.318000000000001)" id="text40 l" />
  <path d="M 0 294.6415743785578 L 10 294.6415743785578 L 10 296.1415743785578 L 0 296.1415743785578 Z " stroke="none" fill-rule="evenodd" fill="#000000" fill-opacity="1" transform="matrix(1,0,0,1,5.05,13.318000000000001)" id="mark42 l" />
  <path d="M 0 284.4556580206765 L 10 284.4556580206765 L 10 285.9556580206765 L 0 285.9556580206765 Z " stroke="none" fill-rule="evenodd" fill="#000000" fill-opacity="1" transform="matrix(1,0,0,1,5.05,13.318000000000001)" id="mark44 l" />
  <path d="M 0 274.2697416627952 L 10 274.2697416627952 L 10 275.7697416627952 L 0 275.7697416627952 Z " stroke="none" fill-rule="evenodd" fill="#000000" fill-opacity="1" transform="matrix(1,0,0,1,5.05,13.318000000000001)" id="mark46 l" />
  <path d="M 0 264.08382530491383 L 10 264.08382530491383 L 10 265.58382530491383 L 0 265.58382530491383 Z " stroke="none" fill-rule="evenodd" fill="#000000" fill-opacity="1" transform="matrix(1,0,0,1,5.05,13.318000000000001)" id="mark48 l" />
  <path d="M 0 253.89790894703256 L 25 253.89790894703256 L 25 255.39790894703256 L 0 255.39790894703256 Z " stroke="none" fill-rule="evenodd" fill="#000000" fill-opacity="1" transform="matrix(1,0,0,1,5.05,13.318000000000001)" id="mark50 l" />
  <path d="M 12.204 251.43190894703258 C 12.198666666666668 251.25857561369926, 12.197333333333333 251.11924228036594, 12.2 251.01390894703258 C 12.202666666666667 250.90857561369927, 12.205333333333336 250.80657561369927, 12.208 250.7079089470326 L 13.288 250.7079089470326 C 13.280000000000001 250.7852422803659, 13.274000000000001 250.88124228036588, 13.27 250.99590894703258 C 13.265999999999998 251.1105756136992, 13.264666666666667 251.2212422803659, 13.266 251.32790894703257 C 13.267333333333333 251.43457561369922, 13.270666666666667 251.51457561369924, 13.276 251.56790894703258 C 13.286666666666665 251.68790894703258, 13.321333333333332 251.78590894703257, 13.379999999999999 251.8619089470326 C 13.438666666666666 251.93790894703255, 13.521333333333335 251.99190894703258, 13.628 252.02390894703257 L 13.628 252.9159089470326 C 13.134666666666668 252.87857561369924, 12.777333333333335 252.7439089470326, 12.556 252.51190894703257 C 12.334666666666667 252.2799089470326, 12.217333333333332 251.91990894703258, 12.204 251.43190894703258 Z M 12.304 250.09590894703257 L 12.304 246.44790894703257 L 13.372 246.44790894703257 L 13.372 250.09590894703257 Z M 13.876 249.6719089470326 L 13.876 248.9159089470326 C 13.953333333333333 248.8759089470326, 14.038666666666668 248.8439089470326, 14.132 248.8199089470326 C 14.225333333333333 248.7959089470326, 14.325333333333333 248.7839089470326, 14.432 248.7839089470326 C 14.797333333333334 248.7839089470326, 15.071333333333332 248.8992422803659, 15.254 249.1299089470326 C 15.436666666666667 249.36057561369927, 15.538666666666668 249.67457561369923, 15.56 250.07190894703257 C 15.570666666666668 250.2319089470326, 15.577333333333334 250.39057561369924, 15.58 250.54790894703257 C 15.582666666666666 250.70524228036592, 15.581333333333333 250.85857561369926, 15.576 251.00790894703258 C 15.570666666666666 251.1572422803659, 15.562666666666665 251.29724228036588, 15.552 251.4279089470326 C 15.506666666666668 251.92657561369924, 15.377333333333333 252.2919089470326, 15.164 252.52390894703257 C 14.950666666666667 252.7559089470326, 14.605333333333332 252.88657561369928, 14.128 252.9159089470326 L 14.128 252.02390894703257 C 14.237333333333334 251.99457561369923, 14.32 251.94190894703257, 14.376 251.86590894703258 C 14.432 251.7899089470326, 14.464 251.69057561369925, 14.472 251.56790894703258 C 14.495999999999999 251.2772422803659, 14.509999999999998 251.01590894703259, 14.514 250.7839089470326 C 14.518 250.5519089470326, 14.509333333333334 250.33057561369924, 14.488 250.11990894703257 C 14.472000000000001 249.96524228036589, 14.420666666666666 249.8499089470326, 14.334 249.77390894703257 C 14.247333333333334 249.6979089470326, 14.114666666666666 249.6599089470326, 13.936 249.6599089470326 C 13.925333333333333 249.6599089470326, 13.914666666666665 249.6612422803659, 13.904 249.66390894703258 C 13.893333333333334 249.66657561369925, 13.884 249.6692422803659, 13.876 249.6719089470326 Z M 13.876 247.3799089470326 L 13.876 246.44790894703257 L 15.464 246.44790894703257 L 15.464 247.3799089470326 Z M 16.196 251.43590894703257 C 16.188000000000002 251.00657561369923, 16.182666666666666 250.58990894703257, 16.18 250.18590894703257 C 16.177333333333333 249.78190894703258, 16.177999999999997 249.38657561369922, 16.182 248.99990894703257 C 16.186 248.6132422803659, 16.190666666666665 248.2319089470326, 16.196 247.8559089470326 C 16.209333333333333 247.41590894703262, 16.334000000000003 247.07057561369925, 16.57 246.8199089470326 C 16.805999999999997 246.56924228036593, 17.142666666666663 246.4239089470326, 17.58 246.38390894703258 L 17.58 247.27190894703259 C 17.382666666666665 247.3279089470326, 17.281333333333333 247.4572422803659, 17.276 247.6599089470326 C 17.262666666666668 248.03057561369923, 17.253333333333334 248.37857561369924, 17.248 248.70390894703257 C 17.242666666666665 249.0292422803659, 17.24 249.34590894703257, 17.24 249.6539089470326 C 17.24 249.9619089470326, 17.242666666666665 250.27657561369926, 17.248 250.59790894703258 C 17.253333333333334 250.9192422803659, 17.262666666666668 251.26257561369925, 17.276 251.62790894703258 C 17.281333333333333 251.83590894703258, 17.382666666666665 251.96790894703258, 17.58 252.02390894703257 L 17.58 252.91190894703257 C 17.142666666666663 252.87190894703258, 16.805999999999997 252.72590894703256, 16.57 252.47390894703258 C 16.334000000000003 252.2219089470326, 16.209333333333333 251.8759089470326, 16.196 251.43590894703257 Z M 18.084 252.91190894703257 L 18.084 252.01990894703258 C 18.268 251.96657561369926, 18.366666666666667 251.84257561369927, 18.38 251.6479089470326 C 18.398666666666667 251.18124228036592, 18.410666666666668 250.73257561369925, 18.416 250.3019089470326 C 18.421333333333333 249.87124228036592, 18.421333333333333 249.44057561369925, 18.416 249.00990894703259 C 18.410666666666668 248.57924228036592, 18.398666666666667 248.12657561369923, 18.38 247.65190894703258 C 18.374666666666666 247.4572422803659, 18.276 247.33057561369924, 18.084 247.27190894703259 L 18.084 246.38390894703258 C 18.513333333333335 246.4239089470326, 18.846666666666668 246.56924228036593, 19.084 246.8199089470326 C 19.321333333333335 247.07057561369925, 19.445333333333334 247.41590894703262, 19.456 247.8559089470326 C 19.46666666666667 248.17057561369927, 19.474666666666668 248.48057561369924, 19.48 248.78590894703257 C 19.485333333333333 249.0912422803659, 19.488 249.39190894703256, 19.488 249.68790894703258 C 19.488 249.98390894703257, 19.485333333333333 250.2772422803659, 19.48 250.56790894703258 C 19.474666666666668 250.85857561369926, 19.46666666666667 251.1479089470326, 19.456 251.43590894703257 C 19.439999999999998 251.88657561369928, 19.311999999999998 252.23524228036592, 19.072 252.48190894703257 C 18.832 252.72857561369923, 18.502666666666666 252.87190894703258, 18.084 252.91190894703257 Z M 21.944 252.84790894703258 L 21.944 246.44790894703257 L 23.003999999999998 246.44790894703257 L 23.003999999999998 252.84790894703258 Z " stroke="none" fill-rule="nonzero" fill="#000000" fill-opacity="1" transform="matrix(1,0,0,1,5.05,13.318000000000001)" id="text50 l" />
  <path d="M 0 243.7119925891513 L 10 243.7119925891513 L 10 245.2119925891513 L 0 245.2119925891513 Z " stroke="none" fill-rule="evenodd" fill="#000000" fill-opacity="1" transform="matrix(1,0,0,1,5.05,13.318000000000001)" id="mark52 l" />
  <path d="M 0 233.52607623126994 L 10 233.52607623126994 L 10 235.02607623126994 L 0 235.02607623126994 Z " stroke="none" fill-rule="evenodd" fill="#000000" fill-opacity="1" transform="matrix(1,0,0,1,5.05,13.318000000000001)" id="mark54 l" />
  <path d="M 0 223.34015987338864 L 10 223.34015987338864 L 10 224.84015987338864 L 0 224.84015987338864 Z " stroke="none" fill-rule="evenodd" fill="#000000" fill-opacity="1" transform="matrix(1,0,0,1,5.05,13.318000000000001)" id="mark56 l" />
  <path d="M 0 213.15424351550735 L 10 213.15424351550735 L 10 214.65424351550735 L 0 214.65424351550735 Z " stroke="none" fill-rule="evenodd" fill="#000000" fill-opacity="1" transform="matrix(1,0,0,1,5.05,13.318000000000001)" id="mark58 l" />
  <path d="M 0 202.96832715762605 L 25 202.96832715762605 L 25 204.46832715762605 L 0 204.46832715762605 Z " stroke="none" fill-rule="evenodd" fill="#000000" fill-opacity="1" transform="matrix(1,0,0,1,5.05,13.318000000000001)" id="mark60 l" />
  <path d="M 12.264 200.50232715762607 C 12.261333333333333 200.23832715762603, 12.258 199.9609938242927, 12.254 199.67032715762608 C 12.25 199.3796604909594, 12.248 199.08099382429276, 12.248 198.77432715762606 C 12.248 198.46766049095942, 12.249333333333333 198.1596604909594, 12.251999999999999 197.85032715762605 C 12.254666666666665 197.5409938242927, 12.258666666666667 197.23299382429272, 12.264 196.92632715762608 C 12.271999999999998 196.46232715762608, 12.397333333333332 196.11032715762607, 12.639999999999999 195.87032715762606 C 12.882666666666665 195.63032715762608, 13.215999999999998 195.49166049095942, 13.639999999999999 195.45432715762607 L 13.639999999999999 196.34632715762606 C 13.543999999999997 196.37032715762604, 13.470666666666665 196.41432715762608, 13.419999999999998 196.47832715762607 C 13.369333333333332 196.54232715762606, 13.343999999999998 196.62766049095939, 13.344 196.73432715762607 C 13.335999999999999 197.22232715762607, 13.330666666666666 197.6889938242927, 13.328 198.13432715762607 C 13.325333333333333 198.57966049095938, 13.323999999999998 199.01299382429272, 13.323999999999998 199.43432715762606 C 13.323999999999998 199.8556604909594, 13.328 200.27032715762607, 13.335999999999999 200.67832715762606 C 13.335999999999999 200.7876604909594, 13.363333333333333 200.87699382429275, 13.418 200.94632715762606 C 13.472666666666665 201.01566049095942, 13.549333333333333 201.06499382429274, 13.648 201.09432715762605 L 13.648 201.98632715762608 C 13.159999999999998 201.95432715762607, 12.809333333333331 201.82232715762606, 12.595999999999998 201.59032715762606 C 12.382666666666665 201.35832715762606, 12.271999999999998 200.99566049095938, 12.264 200.50232715762607 Z M 13.812 198.82232715762606 L 13.812 198.07832715762606 C 13.894666666666666 198.03032715762606, 13.987333333333332 197.99299382429274, 14.09 197.96632715762607 C 14.192666666666668 197.9396604909594, 14.301333333333332 197.92632715762608, 14.415999999999999 197.92632715762608 C 14.84 197.92632715762608, 15.134 198.0256604909594, 15.297999999999998 198.22432715762608 C 15.462 198.42299382429275, 15.547999999999998 198.75432715762605, 15.556 199.21832715762608 C 15.561333333333334 199.40232715762608, 15.564666666666666 199.5576604909594, 15.565999999999999 199.68432715762606 C 15.567333333333332 199.81099382429272, 15.567333333333332 199.93566049095938, 15.565999999999999 200.05832715762605 C 15.564666666666666 200.18099382429273, 15.559999999999999 200.32899382429275, 15.552 200.50232715762607 C 15.527999999999999 200.99299382429274, 15.408 201.3556604909594, 15.192 201.59032715762606 C 14.975999999999999 201.82499382429273, 14.628 201.95699382429274, 14.148 201.98632715762608 L 14.148 201.10232715762606 C 14.251999999999999 201.07299382429272, 14.331333333333333 201.02499382429272, 14.386 200.95832715762606 C 14.440666666666665 200.8916604909594, 14.469333333333333 200.80499382429275, 14.472 200.69832715762607 C 14.477333333333332 200.54366049095938, 14.481333333333332 200.40499382429272, 14.483999999999998 200.28232715762607 C 14.486666666666666 200.15966049095942, 14.489333333333335 200.04232715762606, 14.491999999999999 199.93032715762607 C 14.494666666666667 199.81832715762607, 14.495333333333333 199.70699382429274, 14.494 199.59632715762606 C 14.492666666666667 199.4856604909594, 14.489333333333333 199.36899382429272, 14.483999999999998 199.24632715762607 C 14.481333333333332 199.09699382429272, 14.429333333333332 198.98632715762608, 14.328 198.91432715762608 C 14.226666666666665 198.84232715762607, 14.094666666666665 198.80632715762607, 13.931999999999999 198.80632715762607 C 13.913333333333334 198.80632715762607, 13.894 198.80699382429273, 13.873999999999999 198.80832715762605 C 13.854 198.8096604909594, 13.833333333333332 198.81432715762605, 13.812 198.82232715762606 Z M 14.44 197.50232715762607 C 14.448 197.40899382429274, 14.452666666666666 197.32699382429274, 14.453999999999999 197.25632715762606 C 14.455333333333332 197.18566049095938, 14.454666666666665 197.11032715762605, 14.451999999999998 197.03032715762606 C 14.449333333333332 196.95032715762608, 14.445333333333334 196.85166049095938, 14.44 196.73432715762607 C 14.434666666666665 196.63566049095942, 14.407999999999998 196.55232715762608, 14.36 196.48432715762607 C 14.311999999999998 196.41632715762606, 14.238666666666665 196.37032715762604, 14.139999999999999 196.34632715762606 L 14.139999999999999 195.45832715762606 C 14.577333333333332 195.49832715762608, 14.911333333333332 195.64299382429272, 15.142 195.89232715762606 C 15.372666666666667 196.1416604909594, 15.495999999999999 196.46899382429274, 15.511999999999999 196.87432715762606 C 15.514666666666667 196.94099382429275, 15.516666666666666 197.00432715762608, 15.517999999999999 197.06432715762605 C 15.519333333333332 197.12432715762606, 15.519333333333332 197.18832715762608, 15.517999999999999 197.25632715762606 C 15.516666666666666 197.32432715762604, 15.514666666666667 197.40632715762604, 15.511999999999999 197.50232715762607 Z M 16.196 200.50632715762606 C 16.188000000000002 200.0769938242927, 16.182666666666666 199.66032715762606, 16.18 199.25632715762606 C 16.177333333333333 198.85232715762606, 16.177999999999997 198.45699382429274, 16.182 198.07032715762605 C 16.186 197.68366049095943, 16.190666666666665 197.30232715762608, 16.196 196.92632715762608 C 16.209333333333333 196.48632715762608, 16.334000000000003 196.14099382429276, 16.57 195.89032715762607 C 16.805999999999997 195.6396604909594, 17.142666666666663 195.49432715762606, 17.58 195.45432715762607 L 17.58 196.34232715762607 C 17.382666666666665 196.39832715762606, 17.281333333333333 196.52766049095942, 17.276 196.73032715762608 C 17.262666666666668 197.10099382429274, 17.253333333333334 197.4489938242927, 17.248 197.77432715762606 C 17.242666666666665 198.09966049095937, 17.24 198.41632715762606, 17.24 198.72432715762608 C 17.24 199.03232715762607, 17.242666666666665 199.34699382429272, 17.248 199.66832715762607 C 17.253333333333334 199.9896604909594, 17.262666666666668 200.3329938242927, 17.276 200.69832715762607 C 17.281333333333333 200.9063271576261, 17.382666666666665 201.03832715762607, 17.58 201.09432715762605 L 17.58 201.98232715762606 C 17.142666666666663 201.94232715762604, 16.805999999999997 201.79632715762605, 16.57 201.54432715762607 C 16.334000000000003 201.29232715762606, 16.209333333333333 200.94632715762606, 16.196 200.50632715762606 Z M 18.084 201.98232715762606 L 18.084 201.09032715762606 C 18.268 201.03699382429272, 18.366666666666667 200.91299382429276, 18.38 200.71832715762608 C 18.398666666666667 200.2516604909594, 18.410666666666668 199.80299382429274, 18.416 199.37232715762607 C 18.421333333333333 198.9416604909594, 18.421333333333333 198.5109938242927, 18.416 198.08032715762607 C 18.410666666666668 197.64966049095938, 18.398666666666667 197.19699382429275, 18.38 196.72232715762607 C 18.374666666666666 196.52766049095942, 18.276 196.40099382429275, 18.084 196.34232715762607 L 18.084 195.45432715762607 C 18.513333333333335 195.49432715762606, 18.846666666666668 195.6396604909594, 19.084 195.89032715762607 C 19.321333333333335 196.14099382429276, 19.445333333333334 196.48632715762608, 19.456 196.92632715762608 C 19.46666666666667 197.24099382429273, 19.474666666666668 197.55099382429273, 19.48 197.85632715762605 C 19.485333333333333 198.16166049095938, 19.488 198.46232715762608, 19.488 198.75832715762607 C 19.488 199.05432715762606, 19.485333333333333 199.34766049095938, 19.48 199.63832715762607 C 19.474666666666668 199.92899382429275, 19.46666666666667 200.21832715762608, 19.456 200.50632715762606 C 19.439999999999998 200.95699382429274, 19.311999999999998 201.30566049095938, 19.072 201.55232715762605 C 18.832 201.79899382429272, 18.502666666666666 201.94232715762604, 18.084 201.98232715762606 Z M 21.944 201.91832715762607 L 21.944 195.51832715762606 L 23.003999999999998 195.51832715762606 L 23.003999999999998 201.91832715762607 Z " stroke="none" fill-rule="nonzero" fill="#000000" fill-opacity="1" transform="matrix(1,0,0,1,5.05,13.318000000000001)" id="text60 l" />
  <path d="M 0 192.78241079974475 L 10 192.78241079974475 L 10 194.28241079974475 L 0 194.28241079974475 Z " stroke="none" fill-rule="evenodd" fill="#000000" fill-opacity="1" transform="matrix(1,0,0,1,5.05,13.318000000000001)" id="mark62 l" />
  <path d="M 0 182.59649444186346 L 10 182.59649444186346 L 10 184.09649444186346 L 0 184.09649444186346 Z " stroke="none" fill-rule="evenodd" fill="#000000" fill-opacity="1" transform="matrix(1,0,0,1,5.05,13.318000000000001)" id="mark64 l" />
  <path d="M 0 172.41057808398216 L 10 172.41057808398216 L 10 173.91057808398216 L 0 173.91057808398216 Z " stroke="none" fill-rule="evenodd" fill="#000000" fill-opacity="1" transform="matrix(1,0,0,1,5.05,13.318000000000001)" id="mark66 l" />
  <path d="M 0 162.22466172610086 L 10 162.22466172610086 L 10 163.72466172610086 L 0 163.72466172610086 Z " stroke="none" fill-rule="evenodd" fill="#000000" fill-opacity="1" transform="matrix(1,0,0,1,5.05,13.318000000000001)" id="mark68 l" />
  <path d="M 0 152.03874536821957 L 25 152.03874536821957 L 25 153.53874536821957 L 0 153.53874536821957 Z " stroke="none" fill-rule="evenodd" fill="#000000" fill-opacity="1" transform="matrix(1,0,0,1,5.05,13.318000000000001)" id="mark70 l" />
  <path d="M 12.331999999999999 145.5207453682196 L 12.331999999999999 144.58874536821958 L 15.691999999999998 144.58874536821958 L 15.691999999999998 145.5207453682196 Z M 12.783999999999999 150.98874536821958 L 14.471999999999998 145.9127453682196 L 15.559999999999999 145.9127453682196 L 13.899999999999999 150.98874536821958 Z M 16.195999999999998 149.57674536821958 C 16.188 149.14741203488626, 16.182666666666666 148.73074536821957, 16.18 148.32674536821958 C 16.177333333333333 147.92274536821958, 16.177999999999997 147.52741203488625, 16.182 147.14074536821957 C 16.186 146.7540787015529, 16.190666666666665 146.37274536821957, 16.195999999999998 145.9967453682196 C 16.20933333333333 145.5567453682196, 16.333999999999996 145.21141203488625, 16.569999999999997 144.9607453682196 C 16.805999999999997 144.71007870155293, 17.142666666666663 144.56474536821958, 17.58 144.52474536821958 L 17.58 145.4127453682196 C 17.382666666666665 145.4687453682196, 17.281333333333333 145.59807870155294, 17.275999999999996 145.8007453682196 C 17.262666666666664 146.17141203488626, 17.25333333333333 146.51941203488624, 17.247999999999998 146.84474536821958 C 17.242666666666665 147.1700787015529, 17.24 147.4867453682196, 17.24 147.7947453682196 C 17.24 148.1027453682196, 17.242666666666665 148.41741203488624, 17.247999999999998 148.73874536821958 C 17.25333333333333 149.06007870155292, 17.262666666666664 149.40341203488626, 17.275999999999996 149.76874536821958 C 17.281333333333333 149.97674536821958, 17.382666666666665 150.1087453682196, 17.58 150.16474536821957 L 17.58 151.05274536821958 C 17.142666666666663 151.01274536821958, 16.805999999999997 150.8667453682196, 16.569999999999997 150.6147453682196 C 16.333999999999996 150.36274536821958, 16.20933333333333 150.01674536821957, 16.195999999999998 149.57674536821958 Z M 18.084 151.05274536821958 L 18.084 150.16074536821958 C 18.268 150.10741203488627, 18.366666666666667 149.98341203488627, 18.38 149.7887453682196 C 18.398666666666664 149.32207870155293, 18.410666666666664 148.87341203488626, 18.415999999999997 148.4427453682196 C 18.42133333333333 148.01207870155292, 18.42133333333333 147.58141203488626, 18.415999999999997 147.1507453682196 C 18.410666666666664 146.72007870155292, 18.398666666666664 146.26741203488623, 18.38 145.79274536821958 C 18.374666666666666 145.5980787015529, 18.276 145.47141203488624, 18.084 145.4127453682196 L 18.084 144.52474536821958 C 18.513333333333332 144.56474536821958, 18.846666666666664 144.71007870155293, 19.083999999999996 144.9607453682196 C 19.32133333333333 145.21141203488625, 19.44533333333333 145.5567453682196, 19.456 145.9967453682196 C 19.466666666666665 146.31141203488625, 19.474666666666664 146.62141203488625, 19.479999999999997 146.92674536821957 C 19.48533333333333 147.2320787015529, 19.488 147.53274536821957, 19.488 147.8287453682196 C 19.488 148.12474536821958, 19.48533333333333 148.41807870155293, 19.479999999999997 148.70874536821958 C 19.474666666666664 148.99941203488623, 19.466666666666665 149.28874536821957, 19.456 149.57674536821958 C 19.439999999999998 150.02741203488625, 19.311999999999998 150.37607870155293, 19.072 150.62274536821957 C 18.831999999999997 150.86941203488624, 18.502666666666663 151.01274536821958, 18.084 151.05274536821958 Z M 21.944 150.98874536821958 L 21.944 144.58874536821958 L 23.003999999999998 144.58874536821958 L 23.003999999999998 150.98874536821958 Z " stroke="none" fill-rule="nonzero" fill="#000000" fill-opacity="1" transform="matrix(1,0,0,1,5.05,13.318000000000001)" id="text70 l" />
  <path d="M 0 141.85282901033827 L 10 141.85282901033827 L 10 143.35282901033827 L 0 143.35282901033827 Z " stroke="none" fill-rule="evenodd" fill="#000000" fill-opacity="1" transform="matrix(1,0,0,1,5.05,13.318000000000001)" id="mark72 l" />
  <path d="M 0 131.66691265245692 L 10 131.66691265245692 L 10 133.16691265245692 L 0 133.16691265245692 Z " stroke="none" fill-rule="evenodd" fill="#000000" fill-opacity="1" transform="matrix(1,0,0,1,5.05,13.318000000000001)" id="mark74 l" />
  <path d="M 0 121.48099629457562 L 10 121.48099629457562 L 10 122.98099629457562 L 0 122.98099629457562 Z " stroke="none" fill-rule="evenodd" fill="#000000" fill-opacity="1" transform="matrix(1,0,0,1,5.05,13.318000000000001)" id="mark76 l" />
  <path d="M 0 111.29507993669432 L 10 111.29507993669432 L 10 112.79507993669432 L 0 112.79507993669432 Z " stroke="none" fill-rule="evenodd" fill="#000000" fill-opacity="1" transform="matrix(1,0,0,1,5.05,13.318000000000001)" id="mark78 l" />
  <path d="M 0 101.10916357881302 L 25 101.10916357881302 L 25 102.60916357881302 L 0 102.60916357881302 Z " stroke="none" fill-rule="evenodd" fill="#000000" fill-opacity="1" transform="matrix(1,0,0,1,5.05,13.318000000000001)" id="mark80 l" />
  <path d="M 12.244 98.64316357881303 C 12.241333333333333 98.55783024547969, 12.239333333333335 98.48116357881304, 12.238 98.41316357881303 C 12.236666666666668 98.34516357881301, 12.237333333333334 98.2738302454797, 12.24 98.19916357881303 C 12.242666666666667 98.12449691214636, 12.248000000000001 98.03116357881302, 12.256 97.91916357881303 C 12.282666666666668 97.63916357881303, 12.350666666666665 97.4178302454797, 12.46 97.25516357881303 C 12.569333333333333 97.09249691214637, 12.733333333333334 96.96583024547971, 12.952 96.87516357881303 L 12.952 96.71916357881302 C 12.797333333333334 96.6658302454797, 12.663333333333334 96.57649691214635, 12.55 96.45116357881302 C 12.436666666666667 96.3258302454797, 12.362666666666666 96.16716357881302, 12.328 95.97516357881302 C 12.314666666666668 95.88183024547969, 12.303333333333335 95.7818302454797, 12.294 95.67516357881303 C 12.284666666666666 95.56849691214636, 12.278666666666666 95.46316357881302, 12.276 95.35916357881302 C 12.273333333333333 95.25516357881303, 12.273333333333333 95.16049691214636, 12.276 95.07516357881303 C 12.302666666666667 94.5898302454797, 12.417333333333332 94.22983024547969, 12.62 93.99516357881302 C 12.822666666666667 93.76049691214637, 13.16 93.62583024547969, 13.632 93.59116357881302 L 13.632 94.48316357881303 C 13.527999999999999 94.51516357881303, 13.450666666666667 94.56849691214636, 13.4 94.64316357881303 C 13.349333333333334 94.71783024547969, 13.324000000000002 94.81516357881303, 13.324 94.93516357881303 C 13.321333333333335 95.01516357881303, 13.32 95.09116357881302, 13.32 95.16316357881303 C 13.32 95.23516357881303, 13.32 95.3058302454797, 13.32 95.37516357881303 C 13.32 95.44449691214636, 13.32 95.51516357881303, 13.32 95.58716357881303 C 13.32 95.65916357881302, 13.321333333333335 95.7338302454797, 13.324 95.81116357881302 C 13.324000000000002 95.93116357881303, 13.349333333333334 96.02916357881304, 13.4 96.10516357881303 C 13.450666666666667 96.18116357881303, 13.527999999999999 96.23516357881303, 13.632 96.26716357881303 L 13.632 97.34316357881303 C 13.525333333333332 97.37516357881303, 13.447333333333333 97.42983024547969, 13.398 97.50716357881302 C 13.348666666666666 97.58449691214636, 13.324000000000002 97.68316357881304, 13.324 97.80316357881303 C 13.321333333333335 97.96849691214635, 13.32 98.13183024547969, 13.32 98.29316357881302 C 13.32 98.45449691214635, 13.32 98.61649691214635, 13.32 98.77916357881303 C 13.322666666666667 98.89649691214635, 13.348666666666666 98.9938302454797, 13.398 99.07116357881303 C 13.447333333333333 99.14849691214636, 13.525333333333332 99.20316357881302, 13.632 99.23516357881303 L 13.632 100.12716357881303 C 13.146666666666665 100.09249691214636, 12.798666666666666 99.95516357881303, 12.588 99.71516357881303 C 12.377333333333333 99.47516357881304, 12.262666666666666 99.1178302454797, 12.244 98.64316357881303 Z M 14.132 100.12716357881303 L 14.132 99.23516357881303 C 14.238666666666667 99.20316357881302, 14.316666666666666 99.14916357881302, 14.366 99.07316357881302 C 14.415333333333333 98.99716357881303, 14.440000000000001 98.90049691214637, 14.44 98.78316357881303 C 14.442666666666668 98.66849691214637, 14.443999999999999 98.55783024547969, 14.443999999999999 98.45116357881302 C 14.443999999999999 98.34449691214635, 14.443999999999999 98.2378302454797, 14.443999999999999 98.13116357881303 C 14.443999999999999 98.02449691214636, 14.442666666666668 97.91516357881304, 14.44 97.80316357881303 C 14.437333333333335 97.56049691214636, 14.334666666666667 97.40716357881303, 14.132 97.34316357881303 L 14.132 96.26716357881303 C 14.337333333333333 96.20583024547969, 14.440000000000001 96.05249691214637, 14.44 95.80716357881303 C 14.440000000000001 95.66316357881303, 14.440666666666667 95.51716357881303, 14.442 95.36916357881303 C 14.443333333333333 95.22116357881302, 14.442666666666668 95.07649691214635, 14.44 94.93516357881303 C 14.440000000000001 94.8178302454797, 14.415333333333333 94.72116357881303, 14.366 94.64516357881303 C 14.316666666666666 94.56916357881302, 14.238666666666667 94.51516357881303, 14.132 94.48316357881303 L 14.132 93.59116357881302 C 14.590666666666667 93.62583024547969, 14.924666666666667 93.75916357881303, 15.134 93.99116357881303 C 15.343333333333334 94.22316357881303, 15.46 94.58449691214636, 15.484 95.07516357881303 C 15.489333333333335 95.15783024547969, 15.490666666666668 95.25383024547969, 15.488 95.36316357881303 C 15.485333333333333 95.47249691214637, 15.479333333333333 95.58116357881303, 15.469999999999999 95.68916357881302 C 15.460666666666667 95.79716357881303, 15.449333333333334 95.89116357881304, 15.436 95.97116357881303 C 15.401333333333334 96.16583024547968, 15.327333333333334 96.3258302454797, 15.214 96.45116357881302 C 15.100666666666667 96.57649691214635, 14.965333333333334 96.6658302454797, 14.808 96.71916357881302 L 14.808 96.88316357881303 C 15.008000000000001 96.97383024547969, 15.165333333333335 97.10049691214635, 15.280000000000001 97.26316357881302 C 15.394666666666668 97.42583024547969, 15.469333333333335 97.64049691214635, 15.504 97.90716357881303 C 15.52 98.06183024547968, 15.528 98.1958302454797, 15.528 98.30916357881303 C 15.528 98.42249691214636, 15.525333333333332 98.53383024547969, 15.52 98.64316357881303 C 15.493333333333332 99.13383024547969, 15.374666666666666 99.4958302454797, 15.164 99.72916357881303 C 14.953333333333333 99.96249691214636, 14.609333333333332 100.09516357881303, 14.132 100.12716357881303 Z M 16.196 98.64716357881302 C 16.188000000000002 98.21783024547969, 16.182666666666666 97.80116357881303, 16.18 97.39716357881302 C 16.177333333333333 96.99316357881301, 16.177999999999997 96.59783024547968, 16.182 96.21116357881303 C 16.186 95.82449691214637, 16.190666666666665 95.44316357881303, 16.196 95.06716357881302 C 16.209333333333333 94.62716357881303, 16.334000000000003 94.2818302454797, 16.57 94.03116357881302 C 16.805999999999997 93.78049691214636, 17.142666666666663 93.63516357881304, 17.58 93.59516357881303 L 17.58 94.48316357881303 C 17.382666666666665 94.53916357881303, 17.281333333333333 94.66849691214635, 17.276 94.87116357881303 C 17.262666666666668 95.24183024547969, 17.253333333333334 95.58983024547969, 17.248 95.91516357881302 C 17.242666666666665 96.24049691214636, 17.24 96.55716357881302, 17.24 96.86516357881302 C 17.24 97.17316357881303, 17.242666666666665 97.4878302454797, 17.248 97.80916357881303 C 17.253333333333334 98.13049691214636, 17.262666666666668 98.47383024547969, 17.276 98.83916357881303 C 17.281333333333333 99.04716357881303, 17.382666666666665 99.17916357881302, 17.58 99.23516357881303 L 17.58 100.12316357881302 C 17.142666666666663 100.08316357881303, 16.805999999999997 99.93716357881303, 16.57 99.68516357881303 C 16.334000000000003 99.43316357881304, 16.209333333333333 99.08716357881303, 16.196 98.64716357881302 Z M 18.084 100.12316357881302 L 18.084 99.23116357881302 C 18.268 99.1778302454797, 18.366666666666667 99.0538302454797, 18.38 98.85916357881302 C 18.398666666666667 98.39249691214636, 18.410666666666668 97.94383024547969, 18.416 97.51316357881302 C 18.421333333333333 97.08249691214635, 18.421333333333333 96.65183024547969, 18.416 96.22116357881303 C 18.410666666666668 95.79049691214637, 18.398666666666667 95.3378302454797, 18.38 94.86316357881303 C 18.374666666666666 94.66849691214637, 18.276 94.5418302454797, 18.084 94.48316357881303 L 18.084 93.59516357881303 C 18.513333333333335 93.63516357881304, 18.846666666666668 93.78049691214636, 19.084 94.03116357881302 C 19.321333333333335 94.2818302454797, 19.445333333333334 94.62716357881303, 19.456 95.06716357881302 C 19.46666666666667 95.3818302454797, 19.474666666666668 95.69183024547971, 19.48 95.99716357881303 C 19.485333333333333 96.30249691214637, 19.488 96.60316357881302, 19.488 96.89916357881303 C 19.488 97.19516357881304, 19.485333333333333 97.48849691214636, 19.48 97.77916357881303 C 19.474666666666668 98.0698302454797, 19.46666666666667 98.35916357881302, 19.456 98.64716357881302 C 19.439999999999998 99.09783024547968, 19.311999999999998 99.44649691214636, 19.072 99.69316357881303 C 18.832 99.9398302454797, 18.502666666666666 100.08316357881303, 18.084 100.12316357881302 Z M 21.944 100.05916357881303 L 21.944 93.65916357881302 L 23.003999999999998 93.65916357881302 L 23.003999999999998 100.05916357881303 Z " stroke="none" fill-rule="nonzero" fill="#000000" fill-opacity="1" transform="matrix(1,0,0,1,5.05,13.318000000000001)" id="text80 l" />
  <path d="M 0 90.92324722093173 L 10 90.92324722093173 L 10 92.42324722093173 L 0 92.42324722093173 Z " stroke="none" fill-rule="evenodd" fill="#000000" fill-opacity="1" transform="matrix(1,0,0,1,5.05,13.318000000000001)" id="mark82 l" />
  <path d="M 0 80.73733086305043 L 10 80.73733086305043 L 10 82.23733086305043 L 0 82.23733086305043 Z " stroke="none" fill-rule="evenodd" fill="#000000" fill-opacity="1" transform="matrix(1,0,0,1,5.05,13.318000000000001)" id="mark84 l" />
  <path d="M 0 70.55141450516913 L 10 70.55141450516913 L 10 72.05141450516913 L 0 72.05141450516913 Z " stroke="none" fill-rule="evenodd" fill="#000000" fill-opacity="1" transform="matrix(1,0,0,1,5.05,13.318000000000001)" id="mark86 l" />
  <path d="M 0 60.36549814728784 L 10 60.36549814728784 L 10 61.86549814728784 L 0 61.86549814728784 Z " stroke="none" fill-rule="evenodd" fill="#000000" fill-opacity="1" transform="matrix(1,0,0,1,5.05,13.318000000000001)" id="mark88 l" />
  <path d="M 0 50.17958178940654 L 25 50.17958178940654 L 25 51.67958178940654 L 0 51.67958178940654 Z " stroke="none" fill-rule="evenodd" fill="#000000" fill-opacity="1" transform="matrix(1,0,0,1,5.05,13.318000000000001)" id="mark90 l" />
  <path d="M 12.191999999999998 45.37758178940654 C 12.191999999999997 45.22291512273988, 12.191333333333333 45.08158178940654, 12.19 44.95358178940654 C 12.188666666666666 44.82558178940654, 12.187999999999999 44.70958178940654, 12.187999999999999 44.60558178940654 C 12.187999999999999 44.501581789406536, 12.188666666666666 44.410248456073205, 12.19 44.33158178940654 C 12.191333333333333 44.25291512273988, 12.193333333333332 44.18958178940654, 12.196 44.14158178940654 C 12.217333333333332 43.650915122739875, 12.337333333333333 43.28958178940654, 12.556 43.05758178940654 C 12.774666666666665 42.82558178940654, 13.122666666666666 42.693581789406544, 13.6 42.66158178940654 L 13.6 43.54958178940654 C 13.384 43.60291512273987, 13.276 43.736248456073206, 13.276 43.94958178940654 C 13.276 43.98158178940654, 13.275333333333332 44.06158178940654, 13.274 44.18958178940654 C 13.272666666666666 44.31758178940654, 13.271333333333331 44.46424845607321, 13.27 44.62958178940654 C 13.268666666666665 44.79491512273987, 13.267333333333333 44.95091512273987, 13.265999999999998 45.09758178940654 C 13.264666666666667 45.24424845607321, 13.265333333333333 45.352248456073205, 13.267999999999999 45.42158178940654 C 13.273333333333333 45.562915122739874, 13.33 45.669581789406536, 13.437999999999999 45.74158178940654 C 13.546 45.81358178940654, 13.685333333333332 45.84958178940654, 13.855999999999998 45.84958178940654 C 13.871999999999998 45.84958178940654, 13.88733333333333 45.848915122739875, 13.902 45.84758178940654 C 13.916666666666664 45.846248456073205, 13.929333333333332 45.8442484560732, 13.94 45.84158178940654 L 13.94 46.62158178940654 C 13.873333333333333 46.65358178940654, 13.796666666666667 46.67958178940654, 13.709999999999999 46.69958178940654 C 13.623333333333331 46.71958178940653, 13.532 46.72958178940654, 13.436 46.72958178940654 C 13.217333333333332 46.72958178940654, 13.013333333333332 46.684248456073206, 12.823999999999998 46.59358178940654 C 12.634666666666664 46.50291512273987, 12.482 46.35758178940654, 12.366 46.157581789406535 C 12.249999999999998 45.95758178940653, 12.191999999999997 45.69758178940654, 12.191999999999998 45.37758178940654 Z M 12.299999999999999 47.71758178940654 C 12.299999999999999 47.66691512273987, 12.299999999999999 47.60891512273987, 12.299999999999999 47.54358178940654 C 12.299999999999999 47.4782484560732, 12.300666666666665 47.41091512273987, 12.302 47.34158178940654 C 12.303333333333331 47.27224845607321, 12.305333333333333 47.20691512273987, 12.308 47.14558178940654 L 13.379999999999999 47.14558178940654 C 13.377333333333333 47.276248456073205, 13.374666666666666 47.400915122739875, 13.372 47.51958178940654 C 13.369333333333334 47.63824845607321, 13.370666666666665 47.766915122739874, 13.376 47.90558178940654 C 13.381333333333334 47.998915122739874, 13.401333333333334 48.0762484560732, 13.436 48.13758178940654 C 13.470666666666666 48.198915122739876, 13.525333333333332 48.24691512273988, 13.6 48.28158178940654 L 13.6 49.18958178940654 C 13.143999999999998 49.15224845607321, 12.813333333333333 49.017581789406535, 12.607999999999999 48.785581789406535 C 12.402666666666665 48.553581789406536, 12.299999999999999 48.19758178940654, 12.299999999999999 47.71758178940654 Z M 14.1 49.19758178940654 L 14.1 48.309581789406536 C 14.196000000000002 48.288248456073205, 14.272 48.243581789406534, 14.328 48.175581789406536 C 14.383999999999999 48.10758178940654, 14.411999999999999 48.01491512273987, 14.411999999999999 47.89758178940654 C 14.417333333333332 47.5482484560732, 14.421333333333331 47.22291512273987, 14.424 46.92158178940654 C 14.426666666666666 46.620248456073206, 14.427333333333333 46.31958178940654, 14.425999999999998 46.01958178940654 C 14.424666666666667 45.71958178940654, 14.422666666666665 45.40158178940654, 14.419999999999998 45.06558178940654 C 14.417333333333332 44.72958178940654, 14.41333333333333 44.352248456073205, 14.408 43.93358178940654 C 14.407999999999998 43.83491512273987, 14.380666666666666 43.75358178940654, 14.325999999999999 43.68958178940654 C 14.271333333333335 43.62558178940654, 14.196000000000002 43.57891512273987, 14.1 43.54958178940654 L 14.1 42.66158178940654 C 14.588000000000001 42.688248456073204, 14.937999999999999 42.81891512273987, 15.149999999999999 43.053581789406536 C 15.361999999999998 43.288248456073205, 15.473333333333333 43.650915122739875, 15.483999999999998 44.14158178940654 C 15.494666666666667 44.62958178940654, 15.501333333333335 45.06691512273987, 15.504 45.45358178940654 C 15.506666666666668 45.840248456073205, 15.506 46.21291512273987, 15.501999999999999 46.57158178940654 C 15.497999999999998 46.93024845607321, 15.491999999999997 47.312248456073206, 15.483999999999998 47.71758178940654 C 15.475999999999999 48.21358178940654, 15.360666666666665 48.57758178940654, 15.137999999999998 48.809581789406536 C 14.915333333333331 49.041581789406536, 14.569333333333333 49.17091512273987, 14.1 49.19758178940654 Z M 16.196 47.71358178940654 C 16.188000000000002 47.28424845607321, 16.182666666666666 46.86758178940654, 16.18 46.46358178940654 C 16.177333333333333 46.059581789406536, 16.177999999999997 45.6642484560732, 16.182 45.27758178940654 C 16.186 44.89091512273988, 16.190666666666665 44.50958178940654, 16.196 44.13358178940654 C 16.209333333333333 43.69358178940654, 16.334000000000003 43.34824845607321, 16.57 43.09758178940654 C 16.805999999999997 42.84691512273987, 17.142666666666663 42.70158178940654, 17.58 42.66158178940654 L 17.58 43.54958178940654 C 17.382666666666665 43.60558178940654, 17.281333333333333 43.73491512273987, 17.276 43.937581789406536 C 17.262666666666668 44.30824845607321, 17.253333333333334 44.65624845607321, 17.248 44.98158178940654 C 17.242666666666665 45.30691512273987, 17.24 45.62358178940654, 17.24 45.931581789406536 C 17.24 46.23958178940654, 17.242666666666665 46.55424845607321, 17.248 46.87558178940654 C 17.253333333333334 47.19691512273987, 17.262666666666668 47.5402484560732, 17.276 47.90558178940654 C 17.281333333333333 48.11358178940654, 17.382666666666665 48.24558178940654, 17.58 48.30158178940654 L 17.58 49.18958178940654 C 17.142666666666663 49.14958178940654, 16.805999999999997 49.00358178940654, 16.57 48.751581789406536 C 16.334000000000003 48.499581789406534, 16.209333333333333 48.15358178940654, 16.196 47.71358178940654 Z M 18.084 49.18958178940654 L 18.084 48.297581789406536 C 18.268 48.24424845607321, 18.366666666666667 48.120248456073206, 18.38 47.925581789406536 C 18.398666666666667 47.458915122739874, 18.410666666666668 47.01024845607321, 18.416 46.57958178940654 C 18.421333333333333 46.14891512273987, 18.421333333333333 45.718248456073205, 18.416 45.28758178940654 C 18.410666666666668 44.85691512273987, 18.398666666666667 44.404248456073205, 18.38 43.92958178940654 C 18.374666666666666 43.73491512273988, 18.276 43.608248456073206, 18.084 43.54958178940654 L 18.084 42.66158178940654 C 18.513333333333335 42.70158178940654, 18.846666666666668 42.84691512273987, 19.084 43.09758178940654 C 19.321333333333335 43.34824845607321, 19.445333333333334 43.69358178940654, 19.456 44.13358178940654 C 19.46666666666667 44.44824845607321, 19.474666666666668 44.758248456073204, 19.48 45.06358178940654 C 19.485333333333333 45.36891512273988, 19.488 45.66958178940654, 19.488 45.96558178940654 C 19.488 46.26158178940654, 19.485333333333333 46.55491512273987, 19.48 46.84558178940654 C 19.474666666666668 47.136248456073204, 19.46666666666667 47.425581789406536, 19.456 47.71358178940654 C 19.439999999999998 48.16424845607321, 19.311999999999998 48.51291512273988, 19.072 48.75958178940654 C 18.832 49.0062484560732, 18.502666666666666 49.14958178940654, 18.084 49.18958178940654 Z M 21.944 49.12558178940654 L 21.944 42.72558178940654 L 23.003999999999998 42.72558178940654 L 23.003999999999998 49.12558178940654 Z " stroke="none" fill-rule="nonzero" fill="#000000" fill-opacity="1" transform="matrix(1,0,0,1,5.05,13.318000000000001)" id="text90 l" />
  <path d="M 0 39.993665431525244 L 10 39.993665431525244 L 10 41.493665431525244 L 0 41.493665431525244 Z " stroke="none" fill-rule="evenodd" fill="#000000" fill-opacity="1" transform="matrix(1,0,0,1,5.05,13.318000000000001)" id="mark92 l" />
  <path d="M 0 29.807749073643947 L 10 29.807749073643947 L 10 31.307749073643947 L 0 31.307749073643947 Z " stroke="none" fill-rule="evenodd" fill="#000000" fill-opacity="1" transform="matrix(1,0,0,1,5.05,13.318000000000001)" id="mark94 l" />
  <path d="M 0 19.621832715762594 L 10 19.621832715762594 L 10 21.121832715762594 L 0 21.121832715762594 Z " stroke="none" fill-rule="evenodd" fill="#000000" fill-opacity="1" transform="matrix(1,0,0,1,5.05,13.318000000000001)" id="mark96 l" />
  <path d="M 0 9.435916357881297 L 10 9.435916357881297 L 10 10.935916357881297 L 0 10.935916357881297 Z " stroke="none" fill-rule="evenodd" fill="#000000" fill-opacity="1" transform="matrix(1,0,0,1,5.05,13.318000000000001)" id="mark98 l" />
  <path d="M 0 -0.75 L 25 -0.75 L 25 0.75 L 0 0.75 Z " stroke="none" fill-rule="evenodd" fill="#000000" fill-opacity="1" transform="matrix(1,0,0,1,5.05,13.318000000000001)" id="mark100 l" />
  <path d="M 10.347999999999997 -1.7999999999999998 L 10.347999999999997 -7.244 L 9.895999999999997 -7.244 L 9.863999999999997 -7.624 L 10.567999999999998 -8.2 L 11.447999999999999 -8.2 L 11.447999999999999 -1.7999999999999998 Z M 12.219999999999997 -3.2119999999999997 C 12.211999999999996 -3.641333333333333, 12.206666666666663 -4.058, 12.203999999999997 -4.462 C 12.20133333333333 -4.866, 12.201999999999998 -5.261333333333333, 12.205999999999998 -5.648 C 12.209999999999997 -6.034666666666666, 12.214666666666664 -6.416, 12.219999999999997 -6.792 C 12.23333333333333 -7.231999999999999, 12.357999999999997 -7.577333333333334, 12.593999999999998 -7.828 C 12.829999999999998 -8.078666666666667, 13.166666666666664 -8.224, 13.603999999999997 -8.264 L 13.603999999999997 -7.3759999999999994 C 13.406666666666663 -7.32, 13.30533333333333 -7.190666666666667, 13.299999999999997 -6.9879999999999995 C 13.286666666666665 -6.617333333333333, 13.277333333333331 -6.269333333333333, 13.271999999999997 -5.944 C 13.266666666666662 -5.618666666666666, 13.263999999999996 -5.302, 13.263999999999998 -4.994 C 13.263999999999996 -4.686, 13.266666666666662 -4.371333333333333, 13.271999999999997 -4.05 C 13.277333333333331 -3.7286666666666664, 13.286666666666665 -3.3853333333333326, 13.299999999999997 -3.0199999999999996 C 13.30533333333333 -2.812, 13.406666666666663 -2.6799999999999997, 13.603999999999997 -2.6239999999999997 L 13.603999999999997 -1.7359999999999998 C 13.166666666666664 -1.7759999999999998, 12.829999999999998 -1.9219999999999997, 12.593999999999998 -2.174 C 12.357999999999997 -2.4259999999999997, 12.23333333333333 -2.772, 12.219999999999997 -3.2119999999999997 Z M 14.107999999999997 -1.7359999999999998 L 14.107999999999997 -2.6279999999999997 C 14.291999999999996 -2.681333333333333, 14.390666666666663 -2.8053333333333335, 14.403999999999996 -3 C 14.422666666666663 -3.4666666666666663, 14.434666666666663 -3.915333333333333, 14.439999999999998 -4.346 C 14.44533333333333 -4.776666666666666, 14.44533333333333 -5.207333333333333, 14.439999999999998 -5.638 C 14.434666666666663 -6.068666666666666, 14.422666666666663 -6.521333333333333, 14.403999999999996 -6.9959999999999996 C 14.398666666666664 -7.190666666666667, 14.299999999999997 -7.317333333333334, 14.107999999999997 -7.3759999999999994 L 14.107999999999997 -8.264 C 14.537333333333331 -8.224, 14.870666666666665 -8.078666666666667, 15.107999999999997 -7.828 C 15.345333333333329 -7.577333333333334, 15.469333333333331 -7.231999999999999, 15.479999999999997 -6.792 C 15.490666666666662 -6.477333333333332, 15.498666666666663 -6.167333333333333, 15.503999999999998 -5.861999999999999 C 15.50933333333333 -5.556666666666667, 15.511999999999997 -5.256, 15.511999999999997 -4.96 C 15.511999999999997 -4.664, 15.50933333333333 -4.370666666666667, 15.503999999999998 -4.08 C 15.498666666666663 -3.7893333333333334, 15.490666666666662 -3.5, 15.479999999999997 -3.2119999999999997 C 15.463999999999999 -2.761333333333333, 15.335999999999999 -2.4126666666666665, 15.095999999999997 -2.166 C 14.855999999999998 -1.9193333333333331, 14.526666666666664 -1.7759999999999998, 14.107999999999997 -1.7359999999999998 Z M 16.195999999999998 -3.2119999999999997 C 16.188 -3.641333333333333, 16.182666666666663 -4.058, 16.179999999999996 -4.462 C 16.17733333333333 -4.866, 16.177999999999997 -5.261333333333333, 16.181999999999995 -5.648 C 16.185999999999993 -6.034666666666666, 16.19066666666666 -6.416, 16.195999999999998 -6.792 C 16.20933333333333 -7.231999999999999, 16.333999999999996 -7.577333333333334, 16.569999999999997 -7.828 C 16.805999999999997 -8.078666666666667, 17.142666666666663 -8.224, 17.579999999999995 -8.264 L 17.579999999999995 -7.3759999999999994 C 17.382666666666662 -7.32, 17.28133333333333 -7.190666666666667, 17.275999999999996 -6.9879999999999995 C 17.262666666666664 -6.617333333333333, 17.25333333333333 -6.269333333333333, 17.247999999999998 -5.944 C 17.242666666666665 -5.618666666666666, 17.239999999999995 -5.302, 17.239999999999995 -4.994 C 17.239999999999995 -4.686, 17.242666666666665 -4.371333333333333, 17.247999999999998 -4.05 C 17.25333333333333 -3.7286666666666664, 17.262666666666664 -3.3853333333333326, 17.275999999999996 -3.0199999999999996 C 17.28133333333333 -2.812, 17.382666666666662 -2.6799999999999997, 17.579999999999995 -2.6239999999999997 L 17.579999999999995 -1.7359999999999998 C 17.142666666666663 -1.7759999999999998, 16.805999999999997 -1.9219999999999997, 16.569999999999997 -2.174 C 16.333999999999996 -2.4259999999999997, 16.20933333333333 -2.772, 16.195999999999998 -3.2119999999999997 Z M 18.083999999999996 -1.7359999999999998 L 18.083999999999996 -2.6279999999999997 C 18.267999999999994 -2.681333333333333, 18.36666666666666 -2.8053333333333335, 18.379999999999995 -3 C 18.398666666666664 -3.4666666666666663, 18.410666666666664 -3.915333333333333, 18.415999999999997 -4.346 C 18.42133333333333 -4.776666666666666, 18.42133333333333 -5.207333333333333, 18.415999999999997 -5.638 C 18.410666666666664 -6.068666666666666, 18.398666666666664 -6.521333333333333, 18.379999999999995 -6.9959999999999996 C 18.374666666666663 -7.190666666666667, 18.275999999999996 -7.317333333333334, 18.083999999999996 -7.3759999999999994 L 18.083999999999996 -8.264 C 18.51333333333333 -8.224, 18.84666666666666 -8.078666666666667, 19.083999999999996 -7.828 C 19.32133333333333 -7.577333333333334, 19.44533333333333 -7.231999999999999, 19.455999999999996 -6.792 C 19.466666666666665 -6.477333333333332, 19.474666666666664 -6.167333333333333, 19.479999999999997 -5.861999999999999 C 19.48533333333333 -5.556666666666667, 19.487999999999996 -5.256, 19.487999999999996 -4.96 C 19.487999999999996 -4.664, 19.48533333333333 -4.370666666666667, 19.479999999999997 -4.08 C 19.474666666666664 -3.7893333333333334, 19.466666666666665 -3.5, 19.455999999999996 -3.2119999999999997 C 19.439999999999994 -2.761333333333333, 19.311999999999994 -2.4126666666666665, 19.071999999999996 -2.166 C 18.831999999999997 -1.9193333333333331, 18.502666666666663 -1.7759999999999998, 18.083999999999996 -1.7359999999999998 Z M 21.943999999999996 -1.7999999999999998 L 21.943999999999996 -8.2 L 23.003999999999998 -8.2 L 23.003999999999998 -1.7999999999999998 Z " stroke="none" fill-rule="nonzero" fill="#000000" fill-opacity="1" transform="matrix(1,0,0,1,5.05,13.318000000000001)" id="text100 l" />
  <path d="M -5 -13.268 L 30 -13.268 L 30 505.84190153618374 L -5 505.84190153618374 Z " stroke="#FF0000" stroke-opacity="1" stroke-width="0.1" stroke-linecap="butt" stroke-linejoin="miter" fill="none" transform="matrix(1,0,0,1,5.05,13.318000000000001)" />
</svg>