<?xml version="1.0" encoding="UTF-8"?>
<svg xmlns:xlink="http://www.w3.org/1999/xlink" viewBox="0 0 35.1 456.3121895158926" version="1.1" style="font-synthesis: none;" width="35.1mm" height="456.3121895158926mm" xmlns="http://www.w3.org/2000/svg">
  <defs />
  <style>	</style>
  <path d="M 0 0 L 35.1 0 L 35.1 456.3121895158926 L 0 456.3121895158926 Z " stroke="none" fill-rule="nonzero" fill="#FFFFFF" fill-opacity="1" transform="matrix(1,0,0,1,0,0)" />
  <path d="M 0 435.4301895158926 L 10 435.4301895158926 L 10 436.9301895158926 L 0 436.9301895158926 Z " stroke="none" fill-rule="evenodd" fill="#000000" fill-opacity="1" transform="matrix(1,0,0,1,5.05,13.314)" id="mark1 l" />
  <path d="M 0 428.03730494782667 L 10 428.03730494782667 L 10 429.53730494782667 L 0 429.53730494782667 Z " stroke="none" fill-rule="evenodd" fill="#000000" fill-opacity="1" transform="matrix(1,0,0,1,5.05,13.314)" id="mark2 l" />
  <path d="M 0 420.6444203797607 L 10 420.6444203797607 L 10 422.1444203797607 L 0 422.1444203797607 Z " stroke="none" fill-rule="evenodd" fill="#000000" fill-opacity="1" transform="matrix(1,0,0,1,5.05,13.314)" id="mark3 l" />
  <path d="M 0 413.2515358116947 L 10 413.2515358116947 L 10 414.7515358116947 L 0 414.7515358116947 Z " stroke="none" fill-rule="evenodd" fill="#000000" fill-opacity="1" transform="matrix(1,0,0,1,5.05,13.314)" id="mark4 l" />
  <path d="M 0 405.85865124362874 L 25 405.85865124362874 L 25 407.35865124362874 L 0 407.35865124362874 Z " stroke="none" fill-rule="evenodd" fill="#000000" fill-opacity="1" transform="matrix(1,0,0,1,5.05,13.314)" id="mark5 l" />
  <path d="M 16.18 403.36065124362875 C 16.174666666666667 403.1873179102954, 16.173333333333332 403.0479845769621, 16.176 402.94265124362875 C 16.178666666666665 402.8373179102954, 16.181333333333335 402.7353179102954, 16.183999999999997 402.63665124362876 L 17.264 402.63665124362876 C 17.256 402.7139845769621, 17.25 402.8099845769621, 17.246 402.9246512436288 C 17.241999999999997 403.03931791029544, 17.240666666666666 403.1499845769621, 17.241999999999997 403.25665124362877 C 17.243333333333332 403.36331791029545, 17.246666666666666 403.4433179102954, 17.252 403.4966512436288 C 17.262666666666668 403.6166512436288, 17.297333333333334 403.71465124362874, 17.355999999999998 403.79065124362876 C 17.414666666666665 403.8666512436288, 17.497333333333334 403.92065124362875, 17.604 403.95265124362874 L 17.604 404.84465124362873 C 17.110666666666663 404.8073179102954, 16.75333333333333 404.6726512436287, 16.532 404.44065124362874 C 16.310666666666666 404.20865124362876, 16.19333333333333 403.84865124362875, 16.18 403.36065124362875 Z M 16.279999999999998 402.02465124362874 L 16.279999999999998 398.37665124362877 L 17.348 398.37665124362877 L 17.348 402.02465124362874 Z M 17.852 401.60065124362876 L 17.852 400.84465124362873 C 17.929333333333332 400.80465124362877, 18.014666666666667 400.77265124362873, 18.107999999999997 400.74865124362873 C 18.20133333333333 400.7246512436287, 18.301333333333332 400.7126512436288, 18.407999999999998 400.7126512436287 C 18.773333333333333 400.7126512436288, 19.047333333333334 400.8279845769621, 19.23 401.05865124362873 C 19.412666666666667 401.2893179102954, 19.514666666666663 401.60331791029535, 19.535999999999998 402.00065124362874 C 19.546666666666667 402.16065124362876, 19.55333333333333 402.3193179102954, 19.555999999999997 402.47665124362874 C 19.558666666666664 402.63398457696206, 19.557333333333332 402.7873179102954, 19.552 402.9366512436288 C 19.546666666666667 403.0859845769621, 19.538666666666668 403.2259845769621, 19.528 403.35665124362873 C 19.482666666666667 403.8553179102954, 19.353333333333335 404.2206512436287, 19.14 404.45265124362874 C 18.926666666666666 404.68465124362876, 18.581333333333333 404.8153179102954, 18.104 404.84465124362873 L 18.104 403.95265124362874 C 18.21333333333333 403.9233179102954, 18.296 403.8706512436288, 18.352 403.7946512436287 C 18.408 403.71865124362876, 18.44 403.6193179102954, 18.448 403.4966512436288 C 18.471999999999998 403.2059845769621, 18.485999999999997 402.94465124362875, 18.49 402.7126512436287 C 18.494 402.48065124362876, 18.485333333333333 402.2593179102954, 18.464 402.04865124362874 C 18.447999999999997 401.8939845769621, 18.396666666666665 401.7786512436287, 18.31 401.70265124362874 C 18.223333333333333 401.62665124362877, 18.090666666666664 401.58865124362876, 17.912 401.58865124362876 C 17.901333333333334 401.58865124362876, 17.890666666666668 401.5899845769621, 17.88 401.5926512436287 C 17.86933333333333 401.5953179102954, 17.86 401.59798457696206, 17.852 401.60065124362876 Z M 17.852 399.30865124362873 L 17.852 398.37665124362877 L 19.439999999999998 398.37665124362877 L 19.439999999999998 399.30865124362873 Z M 21.944 404.77665124362875 L 21.944 398.37665124362877 L 23.003999999999998 398.37665124362877 L 23.003999999999998 404.77665124362875 Z " stroke="none" fill-rule="nonzero" fill="#000000" fill-opacity="1" transform="matrix(1,0,0,1,5.05,13.314)" id="text5 l" />
  <path d="M 0 398.46576667556275 L 10 398.46576667556275 L 10 399.96576667556275 L 0 399.96576667556275 Z " stroke="none" fill-rule="evenodd" fill="#000000" fill-opacity="1" transform="matrix(1,0,0,1,5.05,13.314)" id="mark6 l" />
  <path d="M 0 391.07288210749675 L 10 391.07288210749675 L 10 392.57288210749675 L 0 392.57288210749675 Z " stroke="none" fill-rule="evenodd" fill="#000000" fill-opacity="1" transform="matrix(1,0,0,1,5.05,13.314)" id="mark7 l" />
  <path d="M 0 383.6799975394308 L 10 383.6799975394308 L 10 385.1799975394308 L 0 385.1799975394308 Z " stroke="none" fill-rule="evenodd" fill="#000000" fill-opacity="1" transform="matrix(1,0,0,1,5.05,13.314)" id="mark8 l" />
  <path d="M 0 376.2871129713648 L 10 376.2871129713648 L 10 377.7871129713648 L 0 377.7871129713648 Z " stroke="none" fill-rule="evenodd" fill="#000000" fill-opacity="1" transform="matrix(1,0,0,1,5.05,13.314)" id="mark9 l" />
  <path d="M 0 368.8942284032988 L 25 368.8942284032988 L 25 370.3942284032988 L 0 370.3942284032988 Z " stroke="none" fill-rule="evenodd" fill="#000000" fill-opacity="1" transform="matrix(1,0,0,1,5.05,13.314)" id="mark10 l" />
  <path d="M 14.323999999999998 367.8442284032988 L 14.323999999999998 362.4002284032988 L 13.871999999999998 362.4002284032988 L 13.839999999999998 362.0202284032988 L 14.543999999999999 361.44422840329884 L 15.424 361.44422840329884 L 15.424 367.8442284032988 Z M 16.196 366.43222840329884 C 16.188000000000002 366.0028950699655, 16.182666666666666 365.58622840329883, 16.18 365.18222840329884 C 16.177333333333333 364.77822840329884, 16.177999999999997 364.3828950699655, 16.182 363.9962284032988 C 16.186 363.60956173663214, 16.190666666666665 363.22822840329883, 16.196 362.8522284032988 C 16.209333333333333 362.4122284032988, 16.334000000000003 362.0668950699655, 16.57 361.8162284032988 C 16.805999999999997 361.56556173663216, 17.142666666666663 361.4202284032988, 17.58 361.3802284032988 L 17.58 362.2682284032988 C 17.382666666666665 362.3242284032988, 17.281333333333333 362.45356173663214, 17.276 362.6562284032988 C 17.262666666666668 363.02689506996546, 17.253333333333334 363.3748950699655, 17.248 363.7002284032988 C 17.242666666666665 364.02556173663214, 17.24 364.3422284032988, 17.24 364.6502284032988 C 17.24 364.9582284032988, 17.242666666666665 365.27289506996544, 17.248 365.5942284032988 C 17.253333333333334 365.9155617366322, 17.262666666666668 366.2588950699655, 17.276 366.6242284032988 C 17.281333333333333 366.8322284032988, 17.382666666666665 366.96422840329876, 17.58 367.0202284032988 L 17.58 367.90822840329884 C 17.142666666666663 367.8682284032988, 16.805999999999997 367.7222284032988, 16.57 367.4702284032988 C 16.334000000000003 367.2182284032988, 16.209333333333333 366.87222840329883, 16.196 366.43222840329884 Z M 18.084 367.90822840329884 L 18.084 367.01622840329884 C 18.268 366.9628950699655, 18.366666666666667 366.8388950699655, 18.38 366.6442284032988 C 18.398666666666667 366.1775617366322, 18.410666666666668 365.7288950699655, 18.416 365.2982284032988 C 18.421333333333333 364.8675617366321, 18.421333333333333 364.4368950699655, 18.416 364.0062284032988 C 18.410666666666668 363.57556173663215, 18.398666666666667 363.12289506996547, 18.38 362.6482284032988 C 18.374666666666666 362.45356173663214, 18.276 362.3268950699655, 18.084 362.2682284032988 L 18.084 361.3802284032988 C 18.513333333333335 361.4202284032988, 18.846666666666668 361.56556173663216, 19.084 361.8162284032988 C 19.321333333333335 362.0668950699655, 19.445333333333334 362.4122284032988, 19.456 362.8522284032988 C 19.46666666666667 363.1668950699655, 19.474666666666668 363.4768950699655, 19.48 363.7822284032988 C 19.485333333333333 364.08756173663215, 19.488 364.3882284032988, 19.488 364.6842284032988 C 19.488 364.9802284032988, 19.485333333333333 365.27356173663213, 19.48 365.56422840329884 C 19.474666666666668 365.8548950699655, 19.46666666666667 366.1442284032988, 19.456 366.43222840329884 C 19.439999999999998 366.8828950699655, 19.311999999999998 367.23156173663216, 19.072 367.47822840329883 C 18.832 367.7248950699655, 18.502666666666666 367.8682284032988, 18.084 367.90822840329884 Z M 21.944 367.8442284032988 L 21.944 361.44422840329884 L 23.003999999999998 361.44422840329884 L 23.003999999999998 367.8442284032988 Z " stroke="none" fill-rule="nonzero" fill="#000000" fill-opacity="1" transform="matrix(1,0,0,1,5.05,13.314)" id="text10 l" />
  <path d="M 0 361.5013438352329 L 10 361.5013438352329 L 10 363.0013438352329 L 0 363.0013438352329 Z " stroke="none" fill-rule="evenodd" fill="#000000" fill-opacity="1" transform="matrix(1,0,0,1,5.05,13.314)" id="mark11 l" />
  <path d="M 0 354.1084592671669 L 10 354.1084592671669 L 10 355.6084592671669 L 0 355.6084592671669 Z " stroke="none" fill-rule="evenodd" fill="#000000" fill-opacity="1" transform="matrix(1,0,0,1,5.05,13.314)" id="mark12 l" />
  <path d="M 0 346.7155746991009 L 10 346.7155746991009 L 10 348.2155746991009 L 0 348.2155746991009 Z " stroke="none" fill-rule="evenodd" fill="#000000" fill-opacity="1" transform="matrix(1,0,0,1,5.05,13.314)" id="mark13 l" />
  <path d="M 0 339.32269013103496 L 10 339.32269013103496 L 10 340.82269013103496 L 0 340.82269013103496 Z " stroke="none" fill-rule="evenodd" fill="#000000" fill-opacity="1" transform="matrix(1,0,0,1,5.05,13.314)" id="mark14 l" />
  <path d="M 0 331.92980556296897 L 25 331.92980556296897 L 25 333.42980556296897 L 0 333.42980556296897 Z " stroke="none" fill-rule="evenodd" fill="#000000" fill-opacity="1" transform="matrix(1,0,0,1,5.05,13.314)" id="mark15 l" />
  <path d="M 14.331999999999999 330.847805562969 L 14.331999999999999 325.40380556296896 L 13.879999999999999 325.40380556296896 L 13.847999999999999 325.02380556296896 L 14.552 324.447805562969 L 15.432 324.447805562969 L 15.432 330.847805562969 Z M 16.18 329.431805562969 C 16.174666666666667 329.25847222963563, 16.173333333333332 329.1191388963023, 16.176 329.01380556296897 C 16.178666666666665 328.90847222963566, 16.181333333333335 328.80647222963563, 16.183999999999997 328.707805562969 L 17.264 328.707805562969 C 17.256 328.7851388963023, 17.25 328.88113889630233, 17.246 328.995805562969 C 17.241999999999997 329.11047222963566, 17.240666666666666 329.2211388963023, 17.241999999999997 329.327805562969 C 17.243333333333332 329.4344722296356, 17.246666666666666 329.51447222963566, 17.252 329.567805562969 C 17.262666666666668 329.68780556296895, 17.297333333333334 329.78580556296896, 17.355999999999998 329.861805562969 C 17.414666666666665 329.93780556296895, 17.497333333333334 329.991805562969, 17.604 330.02380556296896 L 17.604 330.91580556296896 C 17.110666666666663 330.87847222963563, 16.75333333333333 330.743805562969, 16.532 330.51180556296896 C 16.310666666666666 330.27980556296893, 16.19333333333333 329.919805562969, 16.18 329.431805562969 Z M 16.279999999999998 328.09580556296896 L 16.279999999999998 324.447805562969 L 17.348 324.447805562969 L 17.348 328.09580556296896 Z M 17.852 327.671805562969 L 17.852 326.91580556296896 C 17.929333333333332 326.87580556296894, 18.014666666666667 326.84380556296895, 18.107999999999997 326.81980556296895 C 18.20133333333333 326.79580556296895, 18.301333333333332 326.78380556296895, 18.407999999999998 326.78380556296895 C 18.773333333333333 326.78380556296895, 19.047333333333334 326.8991388963023, 19.23 327.12980556296895 C 19.412666666666667 327.3604722296356, 19.514666666666663 327.6744722296356, 19.535999999999998 328.07180556296896 C 19.546666666666667 328.231805562969, 19.55333333333333 328.39047222963563, 19.555999999999997 328.54780556296896 C 19.558666666666664 328.7051388963023, 19.557333333333332 328.85847222963565, 19.552 329.007805562969 C 19.546666666666667 329.15713889630234, 19.538666666666668 329.29713889630233, 19.528 329.42780556296896 C 19.482666666666667 329.92647222963564, 19.353333333333335 330.291805562969, 19.14 330.52380556296896 C 18.926666666666666 330.75580556296893, 18.581333333333333 330.8864722296356, 18.104 330.91580556296896 L 18.104 330.02380556296896 C 18.21333333333333 329.9944722296356, 18.296 329.94180556296897, 18.352 329.86580556296894 C 18.408 329.7898055629689, 18.44 329.69047222963565, 18.448 329.567805562969 C 18.471999999999998 329.2771388963023, 18.485999999999997 329.015805562969, 18.49 328.78380556296895 C 18.494 328.551805562969, 18.485333333333333 328.3304722296357, 18.464 328.11980556296896 C 18.447999999999997 327.9651388963023, 18.396666666666665 327.849805562969, 18.31 327.77380556296896 C 18.223333333333333 327.697805562969, 18.090666666666664 327.659805562969, 17.912 327.659805562969 C 17.901333333333334 327.659805562969, 17.890666666666668 327.6611388963023, 17.88 327.66380556296895 C 17.86933333333333 327.66647222963564, 17.86 327.6691388963023, 17.852 327.671805562969 Z M 17.852 325.37980556296895 L 17.852 324.447805562969 L 19.439999999999998 324.447805562969 L 19.439999999999998 325.37980556296895 Z M 21.944 330.847805562969 L 21.944 324.447805562969 L 23.003999999999998 324.447805562969 L 23.003999999999998 330.847805562969 Z " stroke="none" fill-rule="nonzero" fill="#000000" fill-opacity="1" transform="matrix(1,0,0,1,5.05,13.314)" id="text15 l" />
  <path d="M 0 324.53692099490297 L 10 324.53692099490297 L 10 326.03692099490297 L 0 326.03692099490297 Z " stroke="none" fill-rule="evenodd" fill="#000000" fill-opacity="1" transform="matrix(1,0,0,1,5.05,13.314)" id="mark16 l" />
  <path d="M 0 317.14403642683703 L 10 317.14403642683703 L 10 318.64403642683703 L 0 318.64403642683703 Z " stroke="none" fill-rule="evenodd" fill="#000000" fill-opacity="1" transform="matrix(1,0,0,1,5.05,13.314)" id="mark17 l" />
  <path d="M 0 309.75115185877104 L 10 309.75115185877104 L 10 311.25115185877104 L 0 311.25115185877104 Z " stroke="none" fill-rule="evenodd" fill="#000000" fill-opacity="1" transform="matrix(1,0,0,1,5.05,13.314)" id="mark18 l" />
  <path d="M 0 302.35826729070504 L 10 302.35826729070504 L 10 303.85826729070504 L 0 303.85826729070504 Z " stroke="none" fill-rule="evenodd" fill="#000000" fill-opacity="1" transform="matrix(1,0,0,1,5.05,13.314)" id="mark19 l" />
  <path d="M 0 294.9653827226391 L 25 294.9653827226391 L 25 296.4653827226391 L 0 296.4653827226391 Z " stroke="none" fill-rule="evenodd" fill="#000000" fill-opacity="1" transform="matrix(1,0,0,1,5.05,13.314)" id="mark20 l" />
  <path d="M 12.319999999999999 293.9153827226391 C 12.317333333333334 293.8167160559724, 12.315333333333331 293.72804938930574, 12.313999999999998 293.6493827226391 C 12.312666666666665 293.5707160559724, 12.311333333333334 293.4967160559724, 12.309999999999999 293.4273827226391 C 12.308666666666667 293.3580493893058, 12.308 293.2860493893058, 12.308 293.2113827226391 C 12.308 293.13671605597244, 12.308 293.0520493893058, 12.308 292.95738272263907 C 12.308 292.86271605597244, 12.309333333333335 292.7513827226391, 12.312 292.6233827226391 C 12.32 292.33004938930577, 12.37 292.06804938930577, 12.462 291.8373827226391 C 12.554 291.60671605597247, 12.687999999999999 291.40071605597245, 12.863999999999999 291.21938272263907 C 13.04 291.03804938930574, 13.257333333333333 290.8767160559724, 13.515999999999998 290.7353827226391 L 14.047999999999998 290.4473827226391 C 14.234666666666666 290.34604938930573, 14.354 290.2240493893057, 14.405999999999999 290.0813827226391 C 14.457999999999998 289.93871605597246, 14.488 289.80471605597245, 14.495999999999999 289.6793827226391 C 14.506666666666664 289.5327160559724, 14.512666666666664 289.37604938930576, 14.514 289.2093827226391 C 14.51533333333333 289.0427160559724, 14.511999999999997 288.88604938930575, 14.504 288.7393827226391 C 14.498666666666665 288.6353827226391, 14.468666666666666 288.5493827226391, 14.413999999999998 288.48138272263907 C 14.359333333333332 288.4133827226391, 14.279999999999998 288.3647160559724, 14.175999999999998 288.3353827226391 L 14.175999999999998 287.4473827226391 C 14.663999999999998 287.47938272263906, 15.014 287.6107160559724, 15.225999999999999 287.8413827226391 C 15.437999999999999 288.0720493893058, 15.554666666666666 288.43271605597243, 15.575999999999999 288.9233827226391 C 15.578666666666663 288.9873827226391, 15.580666666666666 289.05271605597244, 15.581999999999999 289.1193827226391 C 15.583333333333332 289.18604938930577, 15.584 289.2507160559724, 15.584 289.3133827226391 C 15.584 289.37604938930576, 15.583333333333332 289.4380493893058, 15.581999999999999 289.4993827226391 C 15.580666666666666 289.5607160559724, 15.578666666666663 289.6207160559724, 15.575999999999999 289.6793827226391 C 15.565333333333331 289.9647160559724, 15.512 290.2113827226391, 15.415999999999999 290.4193827226391 C 15.32 290.6273827226391, 15.19 290.8073827226391, 15.026 290.9593827226391 C 14.862 291.11138272263906, 14.672 291.2473827226391, 14.456 291.3673827226391 L 13.851999999999999 291.69538272263907 C 13.737333333333332 291.75671605597245, 13.647333333333332 291.84071605597245, 13.581999999999999 291.9473827226391 C 13.516666666666666 292.05404938930576, 13.469999999999999 292.1673827226391, 13.441999999999998 292.2873827226391 C 13.413999999999998 292.4073827226391, 13.399999999999999 292.51938272263914, 13.399999999999999 292.6233827226391 L 13.399999999999999 293.9153827226391 Z M 12.328 289.8753827226391 C 12.322666666666667 289.7580493893057, 12.318666666666665 289.6433827226391, 12.315999999999999 289.5313827226391 C 12.313333333333333 289.41938272263906, 12.311333333333334 289.31338272263906, 12.309999999999999 289.2133827226391 C 12.308666666666667 289.11338272263913, 12.309333333333335 289.01671605597244, 12.312 288.9233827226391 C 12.330666666666666 288.4353827226391, 12.447333333333333 288.07604938930575, 12.661999999999999 287.8453827226391 C 12.876666666666665 287.61471605597245, 13.213333333333331 287.48204938930576, 13.671999999999999 287.4473827226391 L 13.671999999999999 288.3393827226391 C 13.576 288.3687160559724, 13.505333333333333 288.41538272263915, 13.459999999999999 288.4793827226391 C 13.414666666666665 288.5433827226391, 13.390666666666664 288.6207160559724, 13.387999999999998 288.7113827226391 C 13.382666666666665 288.9193827226391, 13.379333333333333 289.11271605597244, 13.378 289.29138272263907 C 13.376666666666667 289.47004938930576, 13.381333333333334 289.66471605597246, 13.392 289.8753827226391 Z M 13.904 293.9153827226391 L 13.904 292.9833827226391 L 15.5 292.9833827226391 L 15.5 293.9153827226391 Z M 16.196 292.5033827226391 C 16.188000000000002 292.0740493893058, 16.182666666666666 291.6573827226391, 16.18 291.2533827226391 C 16.177333333333333 290.8493827226391, 16.177999999999997 290.4540493893058, 16.182 290.0673827226391 C 16.186 289.6807160559724, 16.190666666666665 289.2993827226391, 16.196 288.9233827226391 C 16.209333333333333 288.4833827226391, 16.334000000000003 288.13804938930576, 16.57 287.8873827226391 C 16.805999999999997 287.63671605597244, 17.142666666666663 287.49138272263906, 17.58 287.4513827226391 L 17.58 288.3393827226391 C 17.382666666666665 288.39538272263906, 17.281333333333333 288.5247160559724, 17.276 288.7273827226391 C 17.262666666666668 289.09804938930574, 17.253333333333334 289.44604938930576, 17.248 289.7713827226391 C 17.242666666666665 290.0967160559724, 17.24 290.4133827226391, 17.24 290.7213827226391 C 17.24 291.02938272263907, 17.242666666666665 291.3440493893057, 17.248 291.6653827226391 C 17.253333333333334 291.98671605597247, 17.262666666666668 292.33004938930577, 17.276 292.69538272263907 C 17.281333333333333 292.9033827226391, 17.382666666666665 293.03538272263904, 17.58 293.0913827226391 L 17.58 293.9793827226391 C 17.142666666666663 293.9393827226391, 16.805999999999997 293.7933827226391, 16.57 293.54138272263907 C 16.334000000000003 293.28938272263906, 16.209333333333333 292.9433827226391, 16.196 292.5033827226391 Z M 18.084 293.9793827226391 L 18.084 293.0873827226391 C 18.268 293.0340493893058, 18.366666666666667 292.91004938930575, 18.38 292.7153827226391 C 18.398666666666667 292.24871605597247, 18.410666666666668 291.8000493893058, 18.416 291.3693827226391 C 18.421333333333333 290.9387160559724, 18.421333333333333 290.50804938930577, 18.416 290.0773827226391 C 18.410666666666668 289.64671605597243, 18.398666666666667 289.19404938930575, 18.38 288.71938272263907 C 18.374666666666666 288.5247160559724, 18.276 288.39804938930575, 18.084 288.3393827226391 L 18.084 287.4513827226391 C 18.513333333333335 287.49138272263906, 18.846666666666668 287.63671605597244, 19.084 287.8873827226391 C 19.321333333333335 288.13804938930576, 19.445333333333334 288.4833827226391, 19.456 288.9233827226391 C 19.46666666666667 289.2380493893058, 19.474666666666668 289.5480493893058, 19.48 289.8533827226391 C 19.485333333333333 290.15871605597243, 19.488 290.4593827226391, 19.488 290.75538272263907 C 19.488 291.05138272263906, 19.485333333333333 291.3447160559724, 19.48 291.6353827226391 C 19.474666666666668 291.9260493893058, 19.46666666666667 292.2153827226391, 19.456 292.5033827226391 C 19.439999999999998 292.9540493893058, 19.311999999999998 293.30271605597244, 19.072 293.5493827226391 C 18.832 293.7960493893058, 18.502666666666666 293.9393827226391, 18.084 293.9793827226391 Z M 21.944 293.9153827226391 L 21.944 287.5153827226391 L 23.003999999999998 287.5153827226391 L 23.003999999999998 293.9153827226391 Z " stroke="none" fill-rule="nonzero" fill="#000000" fill-opacity="1" transform="matrix(1,0,0,1,5.05,13.314)" id="text20 l" />
  <path d="M 0 287.57249815457305 L 10 287.57249815457305 L 10 289.07249815457305 L 0 289.07249815457305 Z " stroke="none" fill-rule="evenodd" fill="#000000" fill-opacity="1" transform="matrix(1,0,0,1,5.05,13.314)" id="mark21 l" />
  <path d="M 0 280.1796135865071 L 10 280.1796135865071 L 10 281.6796135865071 L 0 281.6796135865071 Z " stroke="none" fill-rule="evenodd" fill="#000000" fill-opacity="1" transform="matrix(1,0,0,1,5.05,13.314)" id="mark22 l" />
  <path d="M 0 272.7867290184412 L 10 272.7867290184412 L 10 274.2867290184412 L 0 274.2867290184412 Z " stroke="none" fill-rule="evenodd" fill="#000000" fill-opacity="1" transform="matrix(1,0,0,1,5.05,13.314)" id="mark23 l" />
  <path d="M 0 265.3938444503751 L 10 265.3938444503751 L 10 266.8938444503751 L 0 266.8938444503751 Z " stroke="none" fill-rule="evenodd" fill="#000000" fill-opacity="1" transform="matrix(1,0,0,1,5.05,13.314)" id="mark24 l" />
  <path d="M 0 258.0009598823092 L 25 258.0009598823092 L 25 259.5009598823092 L 0 259.5009598823092 Z " stroke="none" fill-rule="evenodd" fill="#000000" fill-opacity="1" transform="matrix(1,0,0,1,5.05,13.314)" id="mark25 l" />
  <path d="M 12.328 256.9509598823092 C 12.325333333333333 256.8522932156425, 12.323333333333332 256.7636265489758, 12.322 256.68495988230916 C 12.320666666666666 256.6062932156425, 12.319333333333333 256.5322932156425, 12.318 256.4629598823092 C 12.316666666666666 256.3936265489759, 12.315999999999999 256.32162654897587, 12.316 256.24695988230917 C 12.315999999999999 256.1722932156425, 12.315999999999999 256.08762654897583, 12.316 255.99295988230918 C 12.315999999999999 255.89829321564252, 12.317333333333334 255.7869598823092, 12.32 255.65895988230918 C 12.328 255.36562654897585, 12.378 255.10362654897585, 12.47 254.87295988230917 C 12.562000000000001 254.6422932156425, 12.696 254.43629321564254, 12.872 254.25495988230918 C 13.048 254.07362654897588, 13.265333333333334 253.91229321564253, 13.524000000000001 253.77095988230917 L 14.056000000000001 253.4829598823092 C 14.242666666666668 253.38162654897585, 14.362000000000002 253.25962654897586, 14.414 253.11695988230917 C 14.466000000000001 252.9742932156425, 14.495999999999999 252.8402932156425, 14.504 252.7149598823092 C 14.514666666666667 252.5682932156425, 14.520666666666667 252.41162654897585, 14.522 252.2449598823092 C 14.523333333333333 252.07829321564253, 14.520000000000001 251.92162654897587, 14.512 251.7749598823092 C 14.506666666666666 251.67095988230918, 14.476666666666667 251.5849598823092, 14.422 251.51695988230918 C 14.367333333333335 251.44895988230917, 14.288 251.4002932156425, 14.184000000000001 251.37095988230917 L 14.184000000000001 250.4829598823092 C 14.672 250.5149598823092, 15.022000000000002 250.64629321564252, 15.234 250.87695988230917 C 15.446000000000002 251.10762654897582, 15.562666666666667 251.46829321564252, 15.584 251.9589598823092 C 15.586666666666668 252.02295988230918, 15.588666666666668 252.08829321564252, 15.59 252.15495988230919 C 15.591333333333335 252.22162654897585, 15.592000000000002 252.2862932156425, 15.592 252.34895988230917 C 15.592000000000002 252.41162654897585, 15.591333333333335 252.47362654897583, 15.59 252.53495988230918 C 15.588666666666668 252.5962932156425, 15.586666666666668 252.6562932156425, 15.584 252.7149598823092 C 15.573333333333332 253.00029321564253, 15.52 253.24695988230917, 15.424 253.45495988230917 C 15.328 253.66295988230917, 15.197999999999999 253.84295988230917, 15.033999999999999 253.9949598823092 C 14.87 254.14695988230915, 14.68 254.28295988230917, 14.464 254.40295988230918 L 13.86 254.73095988230918 C 13.745333333333335 254.79229321564253, 13.655333333333335 254.87629321564253, 13.59 254.9829598823092 C 13.524666666666668 255.08962654897584, 13.478000000000002 255.2029598823092, 13.45 255.3229598823092 C 13.422 255.4429598823092, 13.408 255.55495988230916, 13.408 255.65895988230918 L 13.408 256.9509598823092 Z M 12.336 252.91095988230919 C 12.330666666666666 252.79362654897585, 12.326666666666664 252.6789598823092, 12.324 252.56695988230916 C 12.321333333333332 252.4549598823092, 12.319333333333333 252.3489598823092, 12.318 252.24895988230918 C 12.316666666666666 252.14895988230916, 12.317333333333334 252.05229321564252, 12.32 251.9589598823092 C 12.338666666666668 251.47095988230922, 12.455333333333336 251.11162654897586, 12.67 250.88095988230918 C 12.884666666666668 250.6502932156425, 13.221333333333334 250.51762654897584, 13.68 250.4829598823092 L 13.68 251.37495988230918 C 13.584 251.4042932156425, 13.513333333333332 251.45095988230918, 13.468 251.51495988230917 C 13.422666666666668 251.57895988230916, 13.398666666666667 251.6562932156425, 13.396 251.74695988230917 C 13.390666666666666 251.9549598823092, 13.387333333333332 252.14829321564252, 13.386 252.32695988230918 C 13.384666666666666 252.50562654897584, 13.389333333333333 252.7002932156425, 13.4 252.91095988230919 Z M 13.911999999999999 256.9509598823092 L 13.911999999999999 256.01895988230916 L 15.508 256.01895988230916 L 15.508 256.9509598823092 Z M 16.18 255.53495988230918 C 16.174666666666667 255.36162654897586, 16.173333333333332 255.22229321564254, 16.176 255.11695988230917 C 16.178666666666665 255.01162654897587, 16.181333333333335 254.90962654897587, 16.183999999999997 254.8109598823092 L 17.264 254.8109598823092 C 17.256 254.8882932156425, 17.25 254.98429321564248, 17.246 255.09895988230917 C 17.241999999999997 255.2136265489758, 17.240666666666666 255.3242932156425, 17.241999999999997 255.43095988230917 C 17.243333333333332 255.53762654897582, 17.246666666666666 255.61762654897584, 17.252 255.67095988230918 C 17.262666666666668 255.79095988230918, 17.297333333333334 255.88895988230917, 17.355999999999998 255.9649598823092 C 17.414666666666665 256.04095988230915, 17.497333333333334 256.0949598823092, 17.604 256.12695988230917 L 17.604 257.01895988230916 C 17.110666666666663 256.98162654897584, 16.75333333333333 256.8469598823092, 16.532 256.61495988230917 C 16.310666666666666 256.38295988230914, 16.19333333333333 256.0229598823091, 16.18 255.53495988230918 Z M 16.279999999999998 254.19895988230917 L 16.279999999999998 250.55095988230917 L 17.348 250.55095988230917 L 17.348 254.19895988230917 Z M 17.852 253.7749598823092 L 17.852 253.0189598823092 C 17.929333333333332 252.9789598823092, 18.014666666666667 252.9469598823092, 18.107999999999997 252.9229598823092 C 18.20133333333333 252.89895988230919, 18.301333333333332 252.88695988230918, 18.407999999999998 252.88695988230918 C 18.773333333333333 252.88695988230918, 19.047333333333334 253.0022932156425, 19.23 253.2329598823092 C 19.412666666666667 253.46362654897587, 19.514666666666663 253.77762654897583, 19.535999999999998 254.17495988230917 C 19.546666666666667 254.3349598823092, 19.55333333333333 254.49362654897584, 19.555999999999997 254.65095988230917 C 19.558666666666664 254.80829321564252, 19.557333333333332 254.96162654897586, 19.552 255.11095988230917 C 19.546666666666667 255.2602932156425, 19.538666666666668 255.40029321564248, 19.528 255.5309598823092 C 19.482666666666667 256.02962654897584, 19.353333333333335 256.39495988230914, 19.14 256.62695988230917 C 18.926666666666666 256.8589598823092, 18.581333333333333 256.9896265489758, 18.104 257.01895988230916 L 18.104 256.12695988230917 C 18.21333333333333 256.0976265489758, 18.296 256.0449598823092, 18.352 255.96895988230918 C 18.408 255.89295988230919, 18.44 255.79362654897585, 18.448 255.67095988230918 C 18.471999999999998 255.3802932156425, 18.485999999999997 255.11895988230918, 18.49 254.88695988230918 C 18.494 254.65495988230919, 18.485333333333333 254.43362654897584, 18.464 254.22295988230917 C 18.447999999999997 254.06829321564248, 18.396666666666665 253.9529598823092, 18.31 253.87695988230917 C 18.223333333333333 253.8009598823092, 18.090666666666664 253.7629598823092, 17.912 253.7629598823092 C 17.901333333333334 253.7629598823092, 17.890666666666668 253.7642932156425, 17.88 253.76695988230918 C 17.86933333333333 253.76962654897585, 17.86 253.7722932156425, 17.852 253.7749598823092 Z M 17.852 251.4829598823092 L 17.852 250.55095988230917 L 19.439999999999998 250.55095988230917 L 19.439999999999998 251.4829598823092 Z M 21.944 256.9509598823092 L 21.944 250.55095988230917 L 23.003999999999998 250.55095988230917 L 23.003999999999998 256.9509598823092 Z " stroke="none" fill-rule="nonzero" fill="#000000" fill-opacity="1" transform="matrix(1,0,0,1,5.05,13.314)" id="text25 l" />
  <path d="M 0 250.60807531424322 L 10 250.60807531424322 L 10 252.10807531424322 L 0 252.10807531424322 Z " stroke="none" fill-rule="evenodd" fill="#000000" fill-opacity="1" transform="matrix(1,0,0,1,5.05,13.314)" id="mark26 l" />
  <path d="M 0 243.21519074617723 L 10 243.21519074617723 L 10 244.71519074617723 L 0 244.71519074617723 Z " stroke="none" fill-rule="evenodd" fill="#000000" fill-opacity="1" transform="matrix(1,0,0,1,5.05,13.314)" id="mark27 l" />
  <path d="M 0 235.82230617811126 L 10 235.82230617811126 L 10 237.32230617811126 L 0 237.32230617811126 Z " stroke="none" fill-rule="evenodd" fill="#000000" fill-opacity="1" transform="matrix(1,0,0,1,5.05,13.314)" id="mark28 l" />
  <path d="M 0 228.4294216100453 L 10 228.4294216100453 L 10 229.9294216100453 L 0 229.9294216100453 Z " stroke="none" fill-rule="evenodd" fill="#000000" fill-opacity="1" transform="matrix(1,0,0,1,5.05,13.314)" id="mark29 l" />
  <path d="M 0 221.0365370419793 L 25 221.0365370419793 L 25 222.5365370419793 L 0 222.5365370419793 Z " stroke="none" fill-rule="evenodd" fill="#000000" fill-opacity="1" transform="matrix(1,0,0,1,5.05,13.314)" id="mark30 l" />
  <path d="M 12.223999999999998 218.57053704197932 C 12.221333333333334 218.46920370864598, 12.219333333333333 218.38520370864597, 12.218 218.3185370419793 C 12.216666666666667 218.25187037531265, 12.216666666666667 218.18387037531267, 12.218 218.1145370419793 C 12.219333333333333 218.045203708646, 12.221333333333334 217.95587037531266, 12.223999999999998 217.84653704197933 L 13.303999999999998 217.84653704197933 L 13.303999999999998 218.7105370419793 C 13.303999999999998 218.94787037531268, 13.417333333333332 219.09853704197934, 13.643999999999998 219.1625370419793 L 13.643999999999998 220.05453704197933 C 13.155999999999999 220.01720370864598, 12.800666666666665 219.88253704197933, 12.578 219.6505370419793 C 12.355333333333334 219.41853704197933, 12.237333333333332 219.05853704197932, 12.223999999999998 218.57053704197932 Z M 12.292 214.51853704197933 L 12.292 213.5865370419793 L 15.536 213.5865370419793 L 15.536 214.51853704197933 Z M 14.143999999999998 219.16653704197932 C 14.367999999999999 219.1105370419793, 14.483999999999998 218.95987037531265, 14.491999999999999 218.71453704197933 C 14.497333333333334 218.51187037531267, 14.500666666666666 218.329203708646, 14.501999999999999 218.16653704197932 C 14.503333333333332 218.00387037531266, 14.498666666666665 217.84653704197933, 14.488 217.69453704197932 C 14.48 217.537203708646, 14.431999999999999 217.40387037531264, 14.344 217.2945370419793 C 14.256 217.185203708646, 14.089333333333332 217.13320370864596, 13.844 217.1385370419793 L 13.096 217.14653704197931 L 13.068 216.25453704197932 L 14.027999999999999 214.87053704197933 L 15.216 214.87053704197933 L 14.248 216.2225370419793 L 14.28 216.2225370419793 C 14.712 216.2225370419793, 15.028666666666666 216.34520370864598, 15.229999999999999 216.59053704197933 C 15.431333333333333 216.83587037531265, 15.544 217.21320370864598, 15.568 217.7225370419793 C 15.57333333333333 217.7945370419793, 15.576666666666664 217.8665370419793, 15.578 217.93853704197932 C 15.57933333333333 218.01053704197932, 15.579999999999998 218.081203708646, 15.579999999999998 218.1505370419793 C 15.579999999999998 218.21987037531267, 15.57933333333333 218.28920370864597, 15.578 218.35853704197933 C 15.576666666666664 218.42787037531264, 15.57333333333333 218.49853704197932, 15.568 218.57053704197932 C 15.549333333333333 219.06653704197933, 15.428666666666665 219.431203708646, 15.206 219.66453704197932 C 14.983333333333334 219.89787037531264, 14.630666666666666 220.02787037531266, 14.148 220.05453704197933 Z M 16.196 218.5745370419793 C 16.188000000000002 218.14520370864597, 16.182666666666666 217.7285370419793, 16.18 217.3245370419793 C 16.177333333333333 216.92053704197932, 16.177999999999997 216.52520370864596, 16.182 216.1385370419793 C 16.186 215.75187037531265, 16.190666666666665 215.37053704197933, 16.196 214.99453704197933 C 16.209333333333333 214.55453704197936, 16.334000000000003 214.209203708646, 16.57 213.95853704197933 C 16.805999999999997 213.70787037531267, 17.142666666666663 213.56253704197934, 17.58 213.52253704197932 L 17.58 214.41053704197932 C 17.382666666666665 214.46653704197934, 17.281333333333333 214.59587037531264, 17.276 214.79853704197933 C 17.262666666666668 215.16920370864597, 17.253333333333334 215.51720370864598, 17.248 215.8425370419793 C 17.242666666666665 216.16787037531265, 17.24 216.4845370419793, 17.24 216.79253704197933 C 17.24 217.10053704197935, 17.242666666666665 217.415203708646, 17.248 217.73653704197932 C 17.253333333333334 218.05787037531263, 17.262666666666668 218.401203708646, 17.276 218.76653704197932 C 17.281333333333333 218.97453704197932, 17.382666666666665 219.10653704197932, 17.58 219.1625370419793 L 17.58 220.0505370419793 C 17.142666666666663 220.01053704197932, 16.805999999999997 219.8645370419793, 16.57 219.61253704197932 C 16.334000000000003 219.36053704197934, 16.209333333333333 219.01453704197934, 16.196 218.5745370419793 Z M 18.084 220.0505370419793 L 18.084 219.15853704197932 C 18.268 219.105203708646, 18.366666666666667 218.981203708646, 18.38 218.78653704197933 C 18.398666666666667 218.31987037531266, 18.410666666666668 217.871203708646, 18.416 217.44053704197933 C 18.421333333333333 217.00987037531266, 18.421333333333333 216.579203708646, 18.416 216.14853704197932 C 18.410666666666668 215.71787037531266, 18.398666666666667 215.26520370864597, 18.38 214.79053704197932 C 18.374666666666666 214.59587037531264, 18.276 214.46920370864598, 18.084 214.41053704197932 L 18.084 213.52253704197932 C 18.513333333333335 213.56253704197934, 18.846666666666668 213.70787037531267, 19.084 213.95853704197933 C 19.321333333333335 214.209203708646, 19.445333333333334 214.55453704197936, 19.456 214.99453704197933 C 19.46666666666667 215.309203708646, 19.474666666666668 215.61920370864598, 19.48 215.9245370419793 C 19.485333333333333 216.22987037531263, 19.488 216.5305370419793, 19.488 216.82653704197932 C 19.488 217.1225370419793, 19.485333333333333 217.41587037531264, 19.48 217.70653704197932 C 19.474666666666668 217.997203708646, 19.46666666666667 218.28653704197933, 19.456 218.5745370419793 C 19.439999999999998 219.02520370864602, 19.311999999999998 219.37387037531266, 19.072 219.6205370419793 C 18.832 219.86720370864597, 18.502666666666666 220.01053704197932, 18.084 220.0505370419793 Z M 21.944 219.98653704197932 L 21.944 213.5865370419793 L 23.003999999999998 213.5865370419793 L 23.003999999999998 219.98653704197932 Z " stroke="none" fill-rule="nonzero" fill="#000000" fill-opacity="1" transform="matrix(1,0,0,1,5.05,13.314)" id="text30 l" />
  <path d="M 0 213.64365247391333 L 10 213.64365247391333 L 10 215.14365247391333 L 0 215.14365247391333 Z " stroke="none" fill-rule="evenodd" fill="#000000" fill-opacity="1" transform="matrix(1,0,0,1,5.05,13.314)" id="mark31 l" />
  <path d="M 0 206.25076790584734 L 10 206.25076790584734 L 10 207.75076790584734 L 0 207.75076790584734 Z " stroke="none" fill-rule="evenodd" fill="#000000" fill-opacity="1" transform="matrix(1,0,0,1,5.05,13.314)" id="mark32 l" />
  <path d="M 0 198.85788333778137 L 10 198.85788333778137 L 10 200.35788333778137 L 0 200.35788333778137 Z " stroke="none" fill-rule="evenodd" fill="#000000" fill-opacity="1" transform="matrix(1,0,0,1,5.05,13.314)" id="mark33 l" />
  <path d="M 0 191.4649987697154 L 10 191.4649987697154 L 10 192.9649987697154 L 0 192.9649987697154 Z " stroke="none" fill-rule="evenodd" fill="#000000" fill-opacity="1" transform="matrix(1,0,0,1,5.05,13.314)" id="mark34 l" />
  <path d="M 0 184.0721142016494 L 25 184.0721142016494 L 25 185.5721142016494 L 0 185.5721142016494 Z " stroke="none" fill-rule="evenodd" fill="#000000" fill-opacity="1" transform="matrix(1,0,0,1,5.05,13.314)" id="mark35 l" />
  <path d="M 12.232 181.57411420164942 C 12.229333333333333 181.47278086831608, 12.227333333333334 181.38878086831608, 12.226 181.3221142016494 C 12.224666666666668 181.25544753498275, 12.224666666666668 181.18744753498274, 12.226 181.1181142016494 C 12.227333333333334 181.04878086831607, 12.229333333333333 180.95944753498276, 12.232 180.85011420164943 L 13.312 180.85011420164943 L 13.312 181.7141142016494 C 13.312 181.95144753498275, 13.425333333333333 182.1021142016494, 13.652 182.1661142016494 L 13.652 183.05811420164943 C 13.164 183.02078086831608, 12.808666666666667 182.8861142016494, 12.586 182.6541142016494 C 12.363333333333333 182.4221142016494, 12.245333333333335 182.06211420164942, 12.232 181.57411420164942 Z M 12.3 177.52211420164943 L 12.3 176.5901142016494 L 15.544 176.5901142016494 L 15.544 177.52211420164943 Z M 14.152000000000001 182.17011420164943 C 14.376000000000001 182.11411420164944, 14.492 181.96344753498278, 14.5 181.71811420164943 C 14.505333333333333 181.51544753498274, 14.508666666666667 181.3327808683161, 14.51 181.17011420164943 C 14.511333333333333 181.00744753498276, 14.506666666666668 180.85011420164943, 14.496 180.69811420164942 C 14.488 180.5407808683161, 14.440000000000001 180.40744753498277, 14.352 180.2981142016494 C 14.264 180.1887808683161, 14.097333333333335 180.1367808683161, 13.852 180.1421142016494 L 13.104 180.15011420164942 L 13.076 179.25811420164942 L 14.036 177.87411420164943 L 15.224 177.87411420164943 L 14.256 179.2261142016494 L 14.288 179.2261142016494 C 14.719999999999999 179.2261142016494, 15.036666666666665 179.34878086831608, 15.238 179.59411420164943 C 15.439333333333334 179.83944753498275, 15.552 180.2167808683161, 15.576 180.7261142016494 C 15.581333333333333 180.7981142016494, 15.584666666666667 180.87011420164941, 15.586 180.94211420164942 C 15.587333333333333 181.01411420164942, 15.588000000000001 181.08478086831607, 15.588000000000001 181.1541142016494 C 15.588000000000001 181.22344753498274, 15.587333333333333 181.2927808683161, 15.586 181.36211420164943 C 15.584666666666667 181.43144753498277, 15.581333333333333 181.50211420164942, 15.576 181.57411420164942 C 15.557333333333334 182.0701142016494, 15.436666666666667 182.43478086831607, 15.214 182.66811420164942 C 14.991333333333333 182.90144753498276, 14.638666666666666 183.03144753498276, 14.156 183.05811420164943 Z M 16.18 181.57411420164942 C 16.174666666666667 181.40078086831608, 16.173333333333332 181.26144753498275, 16.176 181.15611420164942 C 16.178666666666665 181.05078086831608, 16.181333333333335 180.94878086831608, 16.183999999999997 180.85011420164943 L 17.264 180.85011420164943 C 17.256 180.92744753498278, 17.25 181.02344753498275, 17.246 181.13811420164942 C 17.241999999999997 181.25278086831608, 17.240666666666666 181.36344753498275, 17.241999999999997 181.4701142016494 C 17.243333333333332 181.57678086831606, 17.246666666666666 181.65678086831608, 17.252 181.71011420164942 C 17.262666666666668 181.83011420164942, 17.297333333333334 181.92811420164944, 17.355999999999998 182.00411420164943 C 17.414666666666665 182.08011420164942, 17.497333333333334 182.1341142016494, 17.604 182.1661142016494 L 17.604 183.05811420164943 C 17.110666666666663 183.02078086831608, 16.75333333333333 182.8861142016494, 16.532 182.6541142016494 C 16.310666666666666 182.4221142016494, 16.19333333333333 182.06211420164942, 16.18 181.57411420164942 Z M 16.279999999999998 180.2381142016494 L 16.279999999999998 176.5901142016494 L 17.348 176.5901142016494 L 17.348 180.2381142016494 Z M 17.852 179.81411420164943 L 17.852 179.05811420164943 C 17.929333333333332 179.01811420164944, 18.014666666666667 178.98611420164943, 18.107999999999997 178.96211420164943 C 18.20133333333333 178.93811420164943, 18.301333333333332 178.92611420164943, 18.407999999999998 178.92611420164943 C 18.773333333333333 178.92611420164943, 19.047333333333334 179.04144753498275, 19.23 179.27211420164943 C 19.412666666666667 179.50278086831608, 19.514666666666663 179.81678086831607, 19.535999999999998 180.2141142016494 C 19.546666666666667 180.3741142016494, 19.55333333333333 180.53278086831608, 19.555999999999997 180.6901142016494 C 19.558666666666664 180.84744753498273, 19.557333333333332 181.0007808683161, 19.552 181.15011420164942 C 19.546666666666667 181.29944753498273, 19.538666666666668 181.43944753498275, 19.528 181.57011420164943 C 19.482666666666667 182.06878086831608, 19.353333333333335 182.4341142016494, 19.14 182.6661142016494 C 18.926666666666666 182.8981142016494, 18.581333333333333 183.0287808683161, 18.104 183.05811420164943 L 18.104 182.1661142016494 C 18.21333333333333 182.1367808683161, 18.296 182.0841142016494, 18.352 182.00811420164942 C 18.408 181.93211420164943, 18.44 181.8327808683161, 18.448 181.71011420164942 C 18.471999999999998 181.41944753498274, 18.485999999999997 181.15811420164943, 18.49 180.92611420164943 C 18.494 180.69411420164943, 18.485333333333333 180.47278086831608, 18.464 180.2621142016494 C 18.447999999999997 180.10744753498275, 18.396666666666665 179.9921142016494, 18.31 179.9161142016494 C 18.223333333333333 179.8401142016494, 18.090666666666664 179.80211420164943, 17.912 179.80211420164943 C 17.901333333333334 179.80211420164943, 17.890666666666668 179.80344753498275, 17.88 179.80611420164942 C 17.86933333333333 179.8087808683161, 17.86 179.81144753498276, 17.852 179.81411420164943 Z M 17.852 177.52211420164943 L 17.852 176.5901142016494 L 19.439999999999998 176.5901142016494 L 19.439999999999998 177.52211420164943 Z M 21.944 182.99011420164942 L 21.944 176.5901142016494 L 23.003999999999998 176.5901142016494 L 23.003999999999998 182.99011420164942 Z " stroke="none" fill-rule="nonzero" fill="#000000" fill-opacity="1" transform="matrix(1,0,0,1,5.05,13.314)" id="text35 l" />
  <path d="M 0 176.67922963358347 L 10 176.67922963358347 L 10 178.17922963358347 L 0 178.17922963358347 Z " stroke="none" fill-rule="evenodd" fill="#000000" fill-opacity="1" transform="matrix(1,0,0,1,5.05,13.314)" id="mark36 l" />
  <path d="M 0 169.28634506551748 L 10 169.28634506551748 L 10 170.78634506551748 L 0 170.78634506551748 Z " stroke="none" fill-rule="evenodd" fill="#000000" fill-opacity="1" transform="matrix(1,0,0,1,5.05,13.314)" id="mark37 l" />
  <path d="M 0 161.89346049745149 L 10 161.89346049745149 L 10 163.39346049745149 L 0 163.39346049745149 Z " stroke="none" fill-rule="evenodd" fill="#000000" fill-opacity="1" transform="matrix(1,0,0,1,5.05,13.314)" id="mark38 l" />
  <path d="M 0 154.5005759293855 L 10 154.5005759293855 L 10 156.0005759293855 L 0 156.0005759293855 Z " stroke="none" fill-rule="evenodd" fill="#000000" fill-opacity="1" transform="matrix(1,0,0,1,5.05,13.314)" id="mark39 l" />
  <path d="M 0 147.10769136131955 L 25 147.10769136131955 L 25 148.60769136131955 L 0 148.60769136131955 Z " stroke="none" fill-rule="evenodd" fill="#000000" fill-opacity="1" transform="matrix(1,0,0,1,5.05,13.314)" id="mark40 l" />
  <path d="M 11.739999999999998 144.37369136131957 L 11.739999999999998 143.49769136131957 L 12.455999999999998 141.61769136131957 L 13.495999999999999 141.61769136131957 L 12.771999999999998 143.44969136131957 L 13.171999999999997 143.44969136131957 L 13.171999999999997 144.37369136131957 Z M 13.675999999999998 146.05769136131957 L 13.675999999999998 139.65769136131956 L 14.683999999999997 139.65769136131956 L 14.683999999999997 146.05769136131957 Z M 15.187999999999999 144.37369136131957 L 15.187999999999999 143.44969136131957 L 15.655999999999999 143.44969136131957 L 15.655999999999999 144.37369136131957 Z M 16.195999999999998 144.64569136131956 C 16.188 144.21635802798625, 16.182666666666666 143.79969136131956, 16.18 143.39569136131956 C 16.177333333333333 142.99169136131957, 16.177999999999997 142.59635802798624, 16.182 142.20969136131956 C 16.186 141.8230246946529, 16.190666666666665 141.44169136131956, 16.195999999999998 141.06569136131958 C 16.20933333333333 140.62569136131958, 16.333999999999996 140.28035802798624, 16.569999999999997 140.02969136131958 C 16.805999999999997 139.77902469465292, 17.142666666666663 139.63369136131956, 17.58 139.59369136131957 L 17.58 140.48169136131958 C 17.382666666666665 140.5376913613196, 17.281333333333333 140.66702469465292, 17.275999999999996 140.86969136131958 C 17.262666666666664 141.24035802798625, 17.25333333333333 141.58835802798623, 17.247999999999998 141.91369136131956 C 17.242666666666665 142.2390246946529, 17.24 142.5556913613196, 17.24 142.86369136131958 C 17.24 143.17169136131957, 17.242666666666665 143.48635802798623, 17.247999999999998 143.80769136131957 C 17.25333333333333 144.1290246946529, 17.262666666666664 144.47235802798625, 17.275999999999996 144.83769136131957 C 17.281333333333333 145.04569136131957, 17.382666666666665 145.17769136131957, 17.58 145.23369136131956 L 17.58 146.12169136131956 C 17.142666666666663 146.08169136131957, 16.805999999999997 145.93569136131958, 16.569999999999997 145.68369136131957 C 16.333999999999996 145.43169136131957, 16.20933333333333 145.08569136131956, 16.195999999999998 144.64569136131956 Z M 18.084 146.12169136131956 L 18.084 145.22969136131957 C 18.268 145.17635802798625, 18.366666666666667 145.05235802798626, 18.38 144.85769136131958 C 18.398666666666664 144.3910246946529, 18.410666666666664 143.94235802798624, 18.415999999999997 143.51169136131958 C 18.42133333333333 143.0810246946529, 18.42133333333333 142.65035802798624, 18.415999999999997 142.21969136131958 C 18.410666666666664 141.7890246946529, 18.398666666666664 141.33635802798622, 18.38 140.86169136131957 C 18.374666666666666 140.6670246946529, 18.276 140.54035802798623, 18.084 140.48169136131958 L 18.084 139.59369136131957 C 18.513333333333332 139.63369136131956, 18.846666666666664 139.77902469465292, 19.083999999999996 140.02969136131958 C 19.32133333333333 140.28035802798624, 19.44533333333333 140.62569136131958, 19.456 141.06569136131958 C 19.466666666666665 141.38035802798623, 19.474666666666664 141.69035802798624, 19.479999999999997 141.99569136131956 C 19.48533333333333 142.30102469465288, 19.488 142.60169136131955, 19.488 142.89769136131957 C 19.488 143.19369136131957, 19.48533333333333 143.48702469465292, 19.479999999999997 143.77769136131957 C 19.474666666666664 144.06835802798622, 19.466666666666665 144.35769136131955, 19.456 144.64569136131956 C 19.439999999999998 145.09635802798624, 19.311999999999998 145.44502469465291, 19.072 145.69169136131956 C 18.831999999999997 145.93835802798623, 18.502666666666663 146.08169136131957, 18.084 146.12169136131956 Z M 21.944 146.05769136131957 L 21.944 139.65769136131956 L 23.003999999999998 139.65769136131956 L 23.003999999999998 146.05769136131957 Z " stroke="none" fill-rule="nonzero" fill="#000000" fill-opacity="1" transform="matrix(1,0,0,1,5.05,13.314)" id="text40 l" />
  <path d="M 0 139.71480679325356 L 10 139.71480679325356 L 10 141.21480679325356 L 0 141.21480679325356 Z " stroke="none" fill-rule="evenodd" fill="#000000" fill-opacity="1" transform="matrix(1,0,0,1,5.05,13.314)" id="mark41 l" />
  <path d="M 0 132.32192222518756 L 10 132.32192222518756 L 10 133.82192222518756 L 0 133.82192222518756 Z " stroke="none" fill-rule="evenodd" fill="#000000" fill-opacity="1" transform="matrix(1,0,0,1,5.05,13.314)" id="mark42 l" />
  <path d="M 0 124.92903765712163 L 10 124.92903765712163 L 10 126.42903765712163 L 0 126.42903765712163 Z " stroke="none" fill-rule="evenodd" fill="#000000" fill-opacity="1" transform="matrix(1,0,0,1,5.05,13.314)" id="mark43 l" />
  <path d="M 0 117.53615308905563 L 10 117.53615308905563 L 10 119.03615308905563 L 0 119.03615308905563 Z " stroke="none" fill-rule="evenodd" fill="#000000" fill-opacity="1" transform="matrix(1,0,0,1,5.05,13.314)" id="mark44 l" />
  <path d="M 0 110.14326852098964 L 25 110.14326852098964 L 25 111.64326852098964 L 0 111.64326852098964 Z " stroke="none" fill-rule="evenodd" fill="#000000" fill-opacity="1" transform="matrix(1,0,0,1,5.05,13.314)" id="mark45 l" />
  <path d="M 11.748 107.37726852098965 L 11.748 106.50126852098964 L 12.463999999999999 104.62126852098964 L 13.503999999999998 104.62126852098964 L 12.78 106.45326852098964 L 13.18 106.45326852098964 L 13.18 107.37726852098965 Z M 13.684 109.06126852098964 L 13.684 102.66126852098964 L 14.691999999999998 102.66126852098964 L 14.691999999999998 109.06126852098964 Z M 15.195999999999998 107.37726852098965 L 15.195999999999998 106.45326852098964 L 15.663999999999998 106.45326852098964 L 15.663999999999998 107.37726852098965 Z M 16.18 107.64526852098965 C 16.174666666666667 107.4719351876563, 16.173333333333332 107.33260185432297, 16.176 107.22726852098964 C 16.178666666666665 107.1219351876563, 16.181333333333335 107.0199351876563, 16.183999999999997 106.92126852098964 L 17.264 106.92126852098964 C 17.256 106.99860185432297, 17.25 107.09460185432297, 17.246 107.20926852098964 C 17.241999999999997 107.3239351876563, 17.240666666666666 107.43460185432298, 17.241999999999997 107.54126852098965 C 17.243333333333332 107.64793518765632, 17.246666666666666 107.7279351876563, 17.252 107.78126852098964 C 17.262666666666668 107.90126852098965, 17.297333333333334 107.99926852098963, 17.355999999999998 108.07526852098964 C 17.414666666666665 108.15126852098965, 17.497333333333334 108.20526852098965, 17.604 108.23726852098964 L 17.604 109.12926852098964 C 17.110666666666663 109.0919351876563, 16.75333333333333 108.95726852098963, 16.532 108.72526852098964 C 16.310666666666666 108.49326852098963, 16.19333333333333 108.13326852098965, 16.18 107.64526852098965 Z M 16.279999999999998 106.30926852098965 L 16.279999999999998 102.66126852098964 L 17.348 102.66126852098964 L 17.348 106.30926852098965 Z M 17.852 105.88526852098964 L 17.852 105.12926852098964 C 17.929333333333332 105.08926852098963, 18.014666666666667 105.05726852098965, 18.107999999999997 105.03326852098964 C 18.20133333333333 105.00926852098965, 18.301333333333332 104.99726852098965, 18.407999999999998 104.99726852098965 C 18.773333333333333 104.99726852098965, 19.047333333333334 105.11260185432297, 19.23 105.34326852098964 C 19.412666666666667 105.5739351876563, 19.514666666666663 105.8879351876563, 19.535999999999998 106.28526852098965 C 19.546666666666667 106.44526852098963, 19.55333333333333 106.6039351876563, 19.555999999999997 106.76126852098965 C 19.558666666666664 106.91860185432299, 19.557333333333332 107.07193518765632, 19.552 107.22126852098964 C 19.546666666666667 107.37060185432298, 19.538666666666668 107.51060185432297, 19.528 107.64126852098964 C 19.482666666666667 108.1399351876563, 19.353333333333335 108.50526852098966, 19.14 108.73726852098964 C 18.926666666666666 108.96926852098966, 18.581333333333333 109.09993518765631, 18.104 109.12926852098964 L 18.104 108.23726852098964 C 18.21333333333333 108.20793518765632, 18.296 108.15526852098964, 18.352 108.07926852098964 C 18.408 108.00326852098965, 18.44 107.90393518765632, 18.448 107.78126852098964 C 18.471999999999998 107.49060185432299, 18.485999999999997 107.22926852098965, 18.49 106.99726852098965 C 18.494 106.76526852098965, 18.485333333333333 106.5439351876563, 18.464 106.33326852098965 C 18.447999999999997 106.17860185432298, 18.396666666666665 106.06326852098965, 18.31 105.98726852098964 C 18.223333333333333 105.91126852098964, 18.090666666666664 105.87326852098965, 17.912 105.87326852098964 C 17.901333333333334 105.87326852098965, 17.890666666666668 105.87460185432298, 17.88 105.87726852098965 C 17.86933333333333 105.87993518765632, 17.86 105.88260185432297, 17.852 105.88526852098964 Z M 17.852 103.59326852098964 L 17.852 102.66126852098964 L 19.439999999999998 102.66126852098964 L 19.439999999999998 103.59326852098964 Z M 21.944 109.06126852098964 L 21.944 102.66126852098964 L 23.003999999999998 102.66126852098964 L 23.003999999999998 109.06126852098964 Z " stroke="none" fill-rule="nonzero" fill="#000000" fill-opacity="1" transform="matrix(1,0,0,1,5.05,13.314)" id="text45 l" />
  <path d="M 0 102.7503839529237 L 10 102.7503839529237 L 10 104.2503839529237 L 0 104.2503839529237 Z " stroke="none" fill-rule="evenodd" fill="#000000" fill-opacity="1" transform="matrix(1,0,0,1,5.05,13.314)" id="mark46 l" />
  <path d="M 0 95.3574993848577 L 10 95.3574993848577 L 10 96.8574993848577 L 0 96.8574993848577 Z " stroke="none" fill-rule="evenodd" fill="#000000" fill-opacity="1" transform="matrix(1,0,0,1,5.05,13.314)" id="mark47 l" />
  <path d="M 0 87.96461481679171 L 10 87.96461481679171 L 10 89.46461481679171 L 0 89.46461481679171 Z " stroke="none" fill-rule="evenodd" fill="#000000" fill-opacity="1" transform="matrix(1,0,0,1,5.05,13.314)" id="mark48 l" />
  <path d="M 0 80.57173024872577 L 10 80.57173024872577 L 10 82.07173024872577 L 0 82.07173024872577 Z " stroke="none" fill-rule="evenodd" fill="#000000" fill-opacity="1" transform="matrix(1,0,0,1,5.05,13.314)" id="mark49 l" />
  <path d="M 0 73.17884568065978 L 25 73.17884568065978 L 25 74.67884568065978 L 0 74.67884568065978 Z " stroke="none" fill-rule="evenodd" fill="#000000" fill-opacity="1" transform="matrix(1,0,0,1,5.05,13.314)" id="mark50 l" />
  <path d="M 12.204 70.71284568065978 C 12.198666666666668 70.53951234732645, 12.197333333333333 70.40017901399311, 12.2 70.29484568065978 C 12.202666666666667 70.18951234732644, 12.205333333333336 70.08751234732644, 12.208 69.98884568065978 L 13.288 69.98884568065978 C 13.280000000000001 70.0661790139931, 13.274000000000001 70.16217901399311, 13.27 70.27684568065978 C 13.265999999999998 70.39151234732644, 13.264666666666667 70.50217901399311, 13.266 70.60884568065978 C 13.267333333333333 70.71551234732645, 13.270666666666667 70.79551234732645, 13.276 70.84884568065978 C 13.286666666666665 70.96884568065978, 13.321333333333332 71.06684568065978, 13.379999999999999 71.14284568065978 C 13.438666666666666 71.21884568065978, 13.521333333333335 71.27284568065978, 13.628 71.30484568065978 L 13.628 72.19684568065978 C 13.134666666666668 72.15951234732646, 12.777333333333335 72.02484568065978, 12.556 71.79284568065978 C 12.334666666666667 71.56084568065978, 12.217333333333332 71.20084568065978, 12.204 70.71284568065978 Z M 12.304 69.37684568065978 L 12.304 65.72884568065977 L 13.372 65.72884568065977 L 13.372 69.37684568065978 Z M 13.876 68.95284568065978 L 13.876 68.19684568065978 C 13.953333333333333 68.15684568065977, 14.038666666666668 68.12484568065977, 14.132 68.10084568065977 C 14.225333333333333 68.07684568065977, 14.325333333333333 68.06484568065977, 14.432 68.06484568065977 C 14.797333333333334 68.06484568065977, 15.071333333333332 68.1801790139931, 15.254 68.41084568065978 C 15.436666666666667 68.64151234732645, 15.538666666666668 68.95551234732645, 15.56 69.35284568065978 C 15.570666666666668 69.51284568065978, 15.577333333333334 69.67151234732646, 15.58 69.82884568065978 C 15.582666666666666 69.98617901399311, 15.581333333333333 70.13951234732644, 15.576 70.28884568065978 C 15.570666666666666 70.4381790139931, 15.562666666666665 70.57817901399311, 15.552 70.70884568065978 C 15.506666666666668 71.20751234732644, 15.377333333333333 71.57284568065978, 15.164 71.80484568065978 C 14.950666666666667 72.03684568065978, 14.605333333333332 72.16751234732644, 14.128 72.19684568065978 L 14.128 71.30484568065978 C 14.237333333333334 71.27551234732645, 14.32 71.22284568065979, 14.376 71.14684568065978 C 14.432 71.07084568065977, 14.464 70.97151234732644, 14.472 70.84884568065978 C 14.495999999999999 70.55817901399311, 14.509999999999998 70.29684568065977, 14.514 70.06484568065977 C 14.518 69.83284568065977, 14.509333333333334 69.61151234732644, 14.488 69.40084568065978 C 14.472000000000001 69.24617901399311, 14.420666666666666 69.13084568065979, 14.334 69.05484568065978 C 14.247333333333334 68.97884568065977, 14.114666666666666 68.94084568065978, 13.936 68.94084568065978 C 13.925333333333333 68.94084568065978, 13.914666666666665 68.94217901399311, 13.904 68.94484568065978 C 13.893333333333334 68.94751234732644, 13.884 68.95017901399311, 13.876 68.95284568065978 Z M 13.876 66.66084568065978 L 13.876 65.72884568065977 L 15.464 65.72884568065977 L 15.464 66.66084568065978 Z M 16.196 70.71684568065977 C 16.188000000000002 70.28751234732644, 16.182666666666666 69.87084568065978, 16.18 69.46684568065977 C 16.177333333333333 69.06284568065978, 16.177999999999997 68.66751234732645, 16.182 68.28084568065978 C 16.186 67.89417901399311, 16.190666666666665 67.51284568065978, 16.196 67.13684568065977 C 16.209333333333333 66.69684568065978, 16.334000000000003 66.35151234732645, 16.57 66.10084568065977 C 16.805999999999997 65.85017901399311, 17.142666666666663 65.70484568065979, 17.58 65.66484568065978 L 17.58 66.55284568065979 C 17.382666666666665 66.60884568065978, 17.281333333333333 66.7381790139931, 17.276 66.94084568065978 C 17.262666666666668 67.31151234732644, 17.253333333333334 67.65951234732644, 17.248 67.98484568065977 C 17.242666666666665 68.3101790139931, 17.24 68.62684568065978, 17.24 68.93484568065978 C 17.24 69.24284568065977, 17.242666666666665 69.55751234732645, 17.248 69.87884568065978 C 17.253333333333334 70.20017901399311, 17.262666666666668 70.54351234732644, 17.276 70.90884568065978 C 17.281333333333333 71.11684568065978, 17.382666666666665 71.24884568065978, 17.58 71.30484568065978 L 17.58 72.19284568065977 C 17.142666666666663 72.15284568065978, 16.805999999999997 72.00684568065978, 16.57 71.75484568065978 C 16.334000000000003 71.50284568065979, 16.209333333333333 71.15684568065979, 16.196 70.71684568065977 Z M 18.084 72.19284568065977 L 18.084 71.30084568065978 C 18.268 71.24751234732645, 18.366666666666667 71.12351234732644, 18.38 70.92884568065978 C 18.398666666666667 70.46217901399311, 18.410666666666668 70.01351234732644, 18.416 69.58284568065977 C 18.421333333333333 69.15217901399312, 18.421333333333333 68.72151234732645, 18.416 68.29084568065979 C 18.410666666666668 67.86017901399312, 18.398666666666667 67.40751234732645, 18.38 66.93284568065978 C 18.374666666666666 66.73817901399312, 18.276 66.61151234732645, 18.084 66.55284568065979 L 18.084 65.66484568065978 C 18.513333333333335 65.70484568065979, 18.846666666666668 65.85017901399311, 19.084 66.10084568065977 C 19.321333333333335 66.35151234732645, 19.445333333333334 66.69684568065978, 19.456 67.13684568065977 C 19.46666666666667 67.45151234732646, 19.474666666666668 67.76151234732646, 19.48 68.06684568065978 C 19.485333333333333 68.3721790139931, 19.488 68.67284568065978, 19.488 68.96884568065978 C 19.488 69.26484568065979, 19.485333333333333 69.55817901399311, 19.48 69.84884568065978 C 19.474666666666668 70.13951234732644, 19.46666666666667 70.42884568065978, 19.456 70.71684568065977 C 19.439999999999998 71.16751234732644, 19.311999999999998 71.51617901399311, 19.072 71.76284568065978 C 18.832 72.00951234732645, 18.502666666666666 72.15284568065978, 18.084 72.19284568065977 Z M 21.944 72.12884568065978 L 21.944 65.72884568065977 L 23.003999999999998 65.72884568065977 L 23.003999999999998 72.12884568065978 Z " stroke="none" fill-rule="nonzero" fill="#000000" fill-opacity="1" transform="matrix(1,0,0,1,5.05,13.314)" id="text50 l" />
  <path d="M 0 65.78596111259378 L 10 65.78596111259378 L 10 67.28596111259378 L 0 67.28596111259378 Z " stroke="none" fill-rule="evenodd" fill="#000000" fill-opacity="1" transform="matrix(1,0,0,1,5.05,13.314)" id="mark51 l" />
  <path d="M 0 58.393076544527844 L 10 58.393076544527844 L 10 59.893076544527844 L 0 59.893076544527844 Z " stroke="none" fill-rule="evenodd" fill="#000000" fill-opacity="1" transform="matrix(1,0,0,1,5.05,13.314)" id="mark52 l" />
  <path d="M 0 51.00019197646185 L 10 51.00019197646185 L 10 52.50019197646185 L 0 52.50019197646185 Z " stroke="none" fill-rule="evenodd" fill="#000000" fill-opacity="1" transform="matrix(1,0,0,1,5.05,13.314)" id="mark53 l" />
  <path d="M 0 43.607307408395855 L 10 43.607307408395855 L 10 45.107307408395855 L 0 45.107307408395855 Z " stroke="none" fill-rule="evenodd" fill="#000000" fill-opacity="1" transform="matrix(1,0,0,1,5.05,13.314)" id="mark54 l" />
  <path d="M 0 36.21442284032992 L 25 36.21442284032992 L 25 37.71442284032992 L 0 37.71442284032992 Z " stroke="none" fill-rule="evenodd" fill="#000000" fill-opacity="1" transform="matrix(1,0,0,1,5.05,13.314)" id="mark55 l" />
  <path d="M 12.212 33.71642284032992 C 12.206666666666667 33.54308950699658, 12.205333333333332 33.40375617366325, 12.207999999999998 33.29842284032991 C 12.210666666666667 33.193089506996586, 12.213333333333335 33.09108950699658, 12.216 32.992422840329915 L 13.296 32.992422840329915 C 13.288 33.06975617366325, 13.282 33.165756173663254, 13.277999999999999 33.28042284032992 C 13.273999999999997 33.395089506996584, 13.272666666666666 33.50575617366325, 13.274 33.61242284032991 C 13.275333333333332 33.71908950699658, 13.278666666666666 33.79908950699658, 13.283999999999999 33.852422840329915 C 13.294666666666664 33.97242284032991, 13.32933333333333 34.07042284032992, 13.387999999999998 34.14642284032992 C 13.446666666666665 34.22242284032992, 13.529333333333334 34.276422840329914, 13.636 34.30842284032992 L 13.636 35.200422840329914 C 13.142666666666667 35.163089506996585, 12.785333333333334 35.02842284032992, 12.563999999999998 34.79642284032992 C 12.342666666666666 34.56442284032992, 12.225333333333332 34.20442284032992, 12.212 33.71642284032992 Z M 12.312 32.38042284032991 L 12.312 28.732422840329917 L 13.379999999999999 28.732422840329917 L 13.379999999999999 32.38042284032991 Z M 13.883999999999999 31.956422840329914 L 13.883999999999999 31.200422840329917 C 13.961333333333332 31.160422840329915, 14.046666666666667 31.128422840329918, 14.139999999999999 31.104422840329917 C 14.233333333333333 31.080422840329916, 14.333333333333332 31.068422840329916, 14.44 31.068422840329916 C 14.805333333333333 31.068422840329916, 15.07933333333333 31.183756173663248, 15.261999999999999 31.414422840329916 C 15.444666666666667 31.645089506996584, 15.546666666666667 31.959089506996584, 15.568 32.35642284032991 C 15.578666666666667 32.516422840329916, 15.585333333333333 32.675089506996585, 15.588 32.83242284032992 C 15.590666666666666 32.98975617366325, 15.589333333333332 33.14308950699658, 15.584 33.29242284032991 C 15.578666666666665 33.44175617366325, 15.570666666666664 33.58175617366325, 15.559999999999999 33.712422840329914 C 15.514666666666667 34.211089506996586, 15.385333333333332 34.57642284032992, 15.171999999999999 34.80842284032992 C 14.958666666666666 35.04042284032992, 14.613333333333332 35.17108950699658, 14.136 35.200422840329914 L 14.136 34.30842284032992 C 14.245333333333333 34.279089506996584, 14.328 34.22642284032992, 14.383999999999999 34.15042284032992 C 14.44 34.074422840329916, 14.472 33.97508950699658, 14.479999999999999 33.852422840329915 C 14.503999999999998 33.56175617366325, 14.517999999999997 33.300422840329915, 14.521999999999998 33.068422840329916 C 14.526 32.83642284032992, 14.517333333333333 32.61508950699658, 14.495999999999999 32.404422840329914 C 14.48 32.24975617366324, 14.428666666666665 32.13442284032992, 14.341999999999999 32.05842284032992 C 14.255333333333333 31.982422840329917, 14.122666666666666 31.944422840329917, 13.943999999999999 31.944422840329917 C 13.933333333333332 31.944422840329917, 13.922666666666665 31.94575617366325, 13.911999999999999 31.948422840329915 C 13.901333333333334 31.95108950699658, 13.892 31.95375617366325, 13.883999999999999 31.956422840329914 Z M 13.883999999999999 29.664422840329916 L 13.883999999999999 28.732422840329917 L 15.472 28.732422840329917 L 15.472 29.664422840329916 Z M 16.18 33.71642284032992 C 16.174666666666667 33.54308950699658, 16.173333333333332 33.40375617366325, 16.176 33.29842284032991 C 16.178666666666665 33.193089506996586, 16.181333333333335 33.09108950699658, 16.183999999999997 32.992422840329915 L 17.264 32.992422840329915 C 17.256 33.06975617366325, 17.25 33.165756173663254, 17.246 33.28042284032992 C 17.241999999999997 33.395089506996584, 17.240666666666666 33.50575617366325, 17.241999999999997 33.61242284032991 C 17.243333333333332 33.71908950699658, 17.246666666666666 33.79908950699658, 17.252 33.852422840329915 C 17.262666666666668 33.97242284032991, 17.297333333333334 34.07042284032992, 17.355999999999998 34.14642284032992 C 17.414666666666665 34.22242284032992, 17.497333333333334 34.276422840329914, 17.604 34.30842284032992 L 17.604 35.200422840329914 C 17.110666666666663 35.163089506996585, 16.75333333333333 35.02842284032992, 16.532 34.79642284032992 C 16.310666666666666 34.56442284032992, 16.19333333333333 34.20442284032992, 16.18 33.71642284032992 Z M 16.279999999999998 32.38042284032991 L 16.279999999999998 28.732422840329917 L 17.348 28.732422840329917 L 17.348 32.38042284032991 Z M 17.852 31.956422840329914 L 17.852 31.200422840329917 C 17.929333333333332 31.160422840329915, 18.014666666666667 31.128422840329918, 18.107999999999997 31.104422840329917 C 18.20133333333333 31.080422840329916, 18.301333333333332 31.068422840329916, 18.407999999999998 31.068422840329916 C 18.773333333333333 31.068422840329916, 19.047333333333334 31.183756173663248, 19.23 31.414422840329916 C 19.412666666666667 31.645089506996584, 19.514666666666663 31.959089506996584, 19.535999999999998 32.35642284032991 C 19.546666666666667 32.516422840329916, 19.55333333333333 32.675089506996585, 19.555999999999997 32.83242284032992 C 19.558666666666664 32.98975617366325, 19.557333333333332 33.14308950699658, 19.552 33.29242284032991 C 19.546666666666667 33.44175617366325, 19.538666666666668 33.58175617366325, 19.528 33.712422840329914 C 19.482666666666667 34.211089506996586, 19.353333333333335 34.57642284032992, 19.14 34.80842284032992 C 18.926666666666666 35.04042284032992, 18.581333333333333 35.17108950699658, 18.104 35.200422840329914 L 18.104 34.30842284032992 C 18.21333333333333 34.279089506996584, 18.296 34.22642284032992, 18.352 34.15042284032992 C 18.408 34.074422840329916, 18.44 33.97508950699658, 18.448 33.852422840329915 C 18.471999999999998 33.56175617366325, 18.485999999999997 33.300422840329915, 18.49 33.068422840329916 C 18.494 32.83642284032992, 18.485333333333333 32.61508950699658, 18.464 32.404422840329914 C 18.447999999999997 32.24975617366324, 18.396666666666665 32.13442284032992, 18.31 32.05842284032992 C 18.223333333333333 31.982422840329917, 18.090666666666664 31.944422840329917, 17.912 31.944422840329917 C 17.901333333333334 31.944422840329917, 17.890666666666668 31.94575617366325, 17.88 31.948422840329915 C 17.86933333333333 31.95108950699658, 17.86 31.95375617366325, 17.852 31.956422840329914 Z M 17.852 29.664422840329916 L 17.852 28.732422840329917 L 19.439999999999998 28.732422840329917 L 19.439999999999998 29.664422840329916 Z M 21.944 35.132422840329916 L 21.944 28.732422840329917 L 23.003999999999998 28.732422840329917 L 23.003999999999998 35.132422840329916 Z " stroke="none" fill-rule="nonzero" fill="#000000" fill-opacity="1" transform="matrix(1,0,0,1,5.05,13.314)" id="text55 l" />
  <path d="M 0 28.821538272263922 L 10 28.821538272263922 L 10 30.321538272263922 L 0 30.321538272263922 Z " stroke="none" fill-rule="evenodd" fill="#000000" fill-opacity="1" transform="matrix(1,0,0,1,5.05,13.314)" id="mark56 l" />
  <path d="M 0 21.428653704197927 L 10 21.428653704197927 L 10 22.928653704197927 L 0 22.928653704197927 Z " stroke="none" fill-rule="evenodd" fill="#000000" fill-opacity="1" transform="matrix(1,0,0,1,5.05,13.314)" id="mark57 l" />
  <path d="M 0 14.03576913613199 L 10 14.03576913613199 L 10 15.53576913613199 L 0 15.53576913613199 Z " stroke="none" fill-rule="evenodd" fill="#000000" fill-opacity="1" transform="matrix(1,0,0,1,5.05,13.314)" id="mark58 l" />
  <path d="M 0 6.642884568065995 L 10 6.642884568065995 L 10 8.142884568065995 L 0 8.142884568065995 Z " stroke="none" fill-rule="evenodd" fill="#000000" fill-opacity="1" transform="matrix(1,0,0,1,5.05,13.314)" id="mark59 l" />
  <path d="M 0 -0.75 L 25 -0.75 L 25 0.75 L 0 0.75 Z " stroke="none" fill-rule="evenodd" fill="#000000" fill-opacity="1" transform="matrix(1,0,0,1,5.05,13.314)" id="mark60 l" />
  <path d="M 12.264 -3.2159999999999997 C 12.261333333333333 -3.4799999999999995, 12.258 -3.7573333333333334, 12.254 -4.048 C 12.25 -4.338666666666667, 12.248 -4.637333333333333, 12.248 -4.944 C 12.248 -5.250666666666667, 12.249333333333333 -5.558666666666666, 12.251999999999999 -5.867999999999999 C 12.254666666666665 -6.1773333333333325, 12.258666666666667 -6.485333333333333, 12.264 -6.792 C 12.271999999999998 -7.256, 12.397333333333332 -7.6080000000000005, 12.639999999999999 -7.848 C 12.882666666666665 -8.088000000000001, 13.215999999999998 -8.226666666666667, 13.639999999999999 -8.264 L 13.639999999999999 -7.372 C 13.543999999999997 -7.347999999999999, 13.470666666666665 -7.303999999999999, 13.419999999999998 -7.239999999999999 C 13.369333333333332 -7.176, 13.343999999999998 -7.090666666666667, 13.344 -6.984 C 13.335999999999999 -6.496, 13.330666666666666 -6.029333333333334, 13.328 -5.584 C 13.325333333333333 -5.1386666666666665, 13.323999999999998 -4.705333333333334, 13.323999999999998 -4.284 C 13.323999999999998 -3.8626666666666667, 13.328 -3.4480000000000004, 13.335999999999999 -3.04 C 13.335999999999999 -2.9306666666666668, 13.363333333333333 -2.841333333333333, 13.418 -2.772 C 13.472666666666665 -2.7026666666666666, 13.549333333333333 -2.653333333333333, 13.648 -2.6239999999999997 L 13.648 -1.7319999999999998 C 13.159999999999998 -1.7639999999999998, 12.809333333333331 -1.896, 12.595999999999998 -2.1279999999999997 C 12.382666666666665 -2.36, 12.271999999999998 -2.7226666666666666, 12.264 -3.2159999999999997 Z M 13.812 -4.896 L 13.812 -5.64 C 13.894666666666666 -5.688, 13.987333333333332 -5.725333333333333, 14.09 -5.752 C 14.192666666666668 -5.778666666666666, 14.301333333333332 -5.792, 14.415999999999999 -5.792 C 14.84 -5.792, 15.134 -5.692666666666666, 15.297999999999998 -5.494 C 15.462 -5.295333333333334, 15.547999999999998 -4.964, 15.556 -4.5 C 15.561333333333334 -4.316000000000001, 15.564666666666666 -4.160666666666667, 15.565999999999999 -4.034 C 15.567333333333332 -3.907333333333333, 15.567333333333332 -3.7826666666666666, 15.565999999999999 -3.6599999999999997 C 15.564666666666666 -3.5373333333333337, 15.559999999999999 -3.389333333333333, 15.552 -3.2159999999999997 C 15.527999999999999 -2.7253333333333334, 15.408 -2.3626666666666667, 15.192 -2.1279999999999997 C 14.975999999999999 -1.893333333333333, 14.628 -1.7613333333333332, 14.148 -1.7319999999999998 L 14.148 -2.6159999999999997 C 14.251999999999999 -2.6453333333333333, 14.331333333333333 -2.6933333333333334, 14.386 -2.76 C 14.440666666666665 -2.826666666666666, 14.469333333333333 -2.913333333333333, 14.472 -3.0199999999999996 C 14.477333333333332 -3.174666666666666, 14.481333333333332 -3.313333333333333, 14.483999999999998 -3.436 C 14.486666666666666 -3.558666666666667, 14.489333333333335 -3.676, 14.491999999999999 -3.788 C 14.494666666666667 -3.9, 14.495333333333333 -4.011333333333333, 14.494 -4.122 C 14.492666666666667 -4.232666666666667, 14.489333333333333 -4.349333333333333, 14.483999999999998 -4.4719999999999995 C 14.481333333333332 -4.621333333333333, 14.429333333333332 -4.732, 14.328 -4.804 C 14.226666666666665 -4.876, 14.094666666666665 -4.912, 13.931999999999999 -4.912 C 13.913333333333334 -4.912, 13.894 -4.911333333333333, 13.873999999999999 -4.91 C 13.854 -4.908666666666667, 13.833333333333332 -4.904, 13.812 -4.896 Z M 14.44 -6.216 C 14.448 -6.309333333333333, 14.452666666666666 -6.391333333333333, 14.453999999999999 -6.462 C 14.455333333333332 -6.532666666666667, 14.454666666666665 -6.6080000000000005, 14.451999999999998 -6.688 C 14.449333333333332 -6.768000000000001, 14.445333333333334 -6.866666666666667, 14.44 -6.984 C 14.434666666666665 -7.082666666666666, 14.407999999999998 -7.165999999999999, 14.36 -7.233999999999999 C 14.311999999999998 -7.302, 14.238666666666665 -7.347999999999999, 14.139999999999999 -7.372 L 14.139999999999999 -8.26 C 14.577333333333332 -8.219999999999999, 14.911333333333332 -8.075333333333333, 15.142 -7.826 C 15.372666666666667 -7.576666666666666, 15.495999999999999 -7.2493333333333325, 15.511999999999999 -6.843999999999999 C 15.514666666666667 -6.777333333333333, 15.516666666666666 -6.7139999999999995, 15.517999999999999 -6.654 C 15.519333333333332 -6.594, 15.519333333333332 -6.53, 15.517999999999999 -6.462 C 15.516666666666666 -6.393999999999999, 15.514666666666667 -6.311999999999999, 15.511999999999999 -6.216 Z M 16.196 -3.2119999999999997 C 16.188000000000002 -3.641333333333333, 16.182666666666666 -4.058, 16.18 -4.462 C 16.177333333333333 -4.866, 16.177999999999997 -5.261333333333333, 16.182 -5.648 C 16.186 -6.034666666666666, 16.190666666666665 -6.416, 16.196 -6.792 C 16.209333333333333 -7.231999999999999, 16.334000000000003 -7.577333333333334, 16.57 -7.828 C 16.805999999999997 -8.078666666666667, 17.142666666666663 -8.224, 17.58 -8.264 L 17.58 -7.3759999999999994 C 17.382666666666665 -7.32, 17.281333333333333 -7.190666666666667, 17.276 -6.9879999999999995 C 17.262666666666668 -6.617333333333333, 17.253333333333334 -6.269333333333333, 17.248 -5.944 C 17.242666666666665 -5.618666666666666, 17.24 -5.302, 17.24 -4.994 C 17.24 -4.686, 17.242666666666665 -4.371333333333333, 17.248 -4.05 C 17.253333333333334 -3.7286666666666664, 17.262666666666668 -3.3853333333333326, 17.276 -3.0199999999999996 C 17.281333333333333 -2.812, 17.382666666666665 -2.6799999999999997, 17.58 -2.6239999999999997 L 17.58 -1.7359999999999998 C 17.142666666666663 -1.7759999999999998, 16.805999999999997 -1.9219999999999997, 16.57 -2.174 C 16.334000000000003 -2.4259999999999997, 16.209333333333333 -2.772, 16.196 -3.2119999999999997 Z M 18.084 -1.7359999999999998 L 18.084 -2.6279999999999997 C 18.268 -2.681333333333333, 18.366666666666667 -2.8053333333333335, 18.38 -3 C 18.398666666666667 -3.4666666666666663, 18.410666666666668 -3.915333333333333, 18.416 -4.346 C 18.421333333333333 -4.776666666666666, 18.421333333333333 -5.207333333333333, 18.416 -5.638 C 18.410666666666668 -6.068666666666666, 18.398666666666667 -6.521333333333333, 18.38 -6.9959999999999996 C 18.374666666666666 -7.190666666666667, 18.276 -7.317333333333334, 18.084 -7.3759999999999994 L 18.084 -8.264 C 18.513333333333335 -8.224, 18.846666666666668 -8.078666666666667, 19.084 -7.828 C 19.321333333333335 -7.577333333333334, 19.445333333333334 -7.231999999999999, 19.456 -6.792 C 19.46666666666667 -6.477333333333332, 19.474666666666668 -6.167333333333333, 19.48 -5.861999999999999 C 19.485333333333333 -5.556666666666667, 19.488 -5.256, 19.488 -4.96 C 19.488 -4.664, 19.485333333333333 -4.370666666666667, 19.48 -4.08 C 19.474666666666668 -3.7893333333333334, 19.46666666666667 -3.5, 19.456 -3.2119999999999997 C 19.439999999999998 -2.761333333333333, 19.311999999999998 -2.4126666666666665, 19.072 -2.166 C 18.832 -1.9193333333333331, 18.502666666666666 -1.7759999999999998, 18.084 -1.7359999999999998 Z M 21.944 -1.7999999999999998 L 21.944 -8.2 L 23.003999999999998 -8.2 L 23.003999999999998 -1.7999999999999998 Z " stroke="none" fill-rule="nonzero" fill="#000000" fill-opacity="1" transform="matrix(1,0,0,1,5.05,13.314)" id="text60 l" />
  <path d="M -5 -13.264 L 30 -13.264 L 30 442.9481895158926 L -5 442.9481895158926 Z " stroke="#FF0000" stroke-opacity="1" stroke-width="0.1" stroke-linecap="butt" stroke-linejoin="miter" fill="none" transform="matrix(1,0,0,1,5.05,13.314)" />
</svg>