<?xml version="1.0" encoding="UTF-8"?>
<svg xmlns:xlink="http://www.w3.org/1999/xlink" viewBox="0 0 35.1 463.7806735852858" version="1.1" style="font-synthesis: none;" width="35.1mm" height="463.7806735852858mm" xmlns="http://www.w3.org/2000/svg">
  <defs />
  <style>	</style>
  <path d="M 0 0 L 35.1 0 L 35.1 463.7806735852858 L 0 463.7806735852858 Z " stroke="none" fill-rule="nonzero" fill="#FFFFFF" fill-opacity="1" transform="matrix(1,0,0,1,0,0)" />
  <path d="M 0 442.89867358528585 L 10 442.89867358528585 L 10 444.39867358528585 L 0 444.39867358528585 Z " stroke="none" fill-rule="evenodd" fill="#000000" fill-opacity="1" transform="matrix(1,0,0,1,5.05,13.314)" id="mark1 l" />
  <path d="M 0 436.46898266375996 L 10 436.46898266375996 L 10 437.96898266375996 L 0 437.96898266375996 Z " stroke="none" fill-rule="evenodd" fill="#000000" fill-opacity="1" transform="matrix(1,0,0,1,5.05,13.314)" id="mark2 l" />
  <path d="M 0 430.03929174223407 L 10 430.03929174223407 L 10 431.53929174223407 L 0 431.53929174223407 Z " stroke="none" fill-rule="evenodd" fill="#000000" fill-opacity="1" transform="matrix(1,0,0,1,5.05,13.314)" id="mark3 l" />
  <path d="M 0 423.60960082070824 L 10 423.60960082070824 L 10 425.10960082070824 L 0 425.10960082070824 Z " stroke="none" fill-rule="evenodd" fill="#000000" fill-opacity="1" transform="matrix(1,0,0,1,5.05,13.314)" id="mark4 l" />
  <path d="M 0 417.17990989918235 L 25 417.17990989918235 L 25 418.67990989918235 L 0 418.67990989918235 Z " stroke="none" fill-rule="evenodd" fill="#000000" fill-opacity="1" transform="matrix(1,0,0,1,5.05,13.314)" id="mark5 l" />
  <path d="M 16.18 414.68190989918236 C 16.174666666666667 414.508576565849, 16.173333333333332 414.3692432325157, 16.176 414.26390989918235 C 16.178666666666665 414.158576565849, 16.181333333333335 414.056576565849, 16.183999999999997 413.95790989918237 L 17.264 413.95790989918237 C 17.256 414.0352432325157, 17.25 414.1312432325157, 17.246 414.2459098991824 C 17.241999999999997 414.36057656584904, 17.240666666666666 414.4712432325157, 17.241999999999997 414.5779098991824 C 17.243333333333332 414.68457656584906, 17.246666666666666 414.764576565849, 17.252 414.8179098991824 C 17.262666666666668 414.9379098991824, 17.297333333333334 415.03590989918234, 17.355999999999998 415.11190989918236 C 17.414666666666665 415.1879098991824, 17.497333333333334 415.24190989918236, 17.604 415.27390989918234 L 17.604 416.16590989918234 C 17.110666666666663 416.128576565849, 16.75333333333333 415.9939098991823, 16.532 415.76190989918234 C 16.310666666666666 415.52990989918237, 16.19333333333333 415.16990989918236, 16.18 414.68190989918236 Z M 16.279999999999998 413.34590989918235 L 16.279999999999998 409.6979098991824 L 17.348 409.6979098991824 L 17.348 413.34590989918235 Z M 17.852 412.92190989918237 L 17.852 412.16590989918234 C 17.929333333333332 412.1259098991824, 18.014666666666667 412.09390989918234, 18.107999999999997 412.06990989918233 C 18.20133333333333 412.04590989918233, 18.301333333333332 412.0339098991824, 18.407999999999998 412.03390989918233 C 18.773333333333333 412.0339098991824, 19.047333333333334 412.1492432325157, 19.23 412.37990989918234 C 19.412666666666667 412.610576565849, 19.514666666666663 412.92457656584895, 19.535999999999998 413.32190989918234 C 19.546666666666667 413.48190989918237, 19.55333333333333 413.640576565849, 19.555999999999997 413.79790989918234 C 19.558666666666664 413.95524323251567, 19.557333333333332 414.10857656584903, 19.552 414.2579098991824 C 19.546666666666667 414.4072432325157, 19.538666666666668 414.5472432325157, 19.528 414.67790989918234 C 19.482666666666667 415.176576565849, 19.353333333333335 415.5419098991823, 19.14 415.77390989918234 C 18.926666666666666 416.00590989918237, 18.581333333333333 416.136576565849, 18.104 416.16590989918234 L 18.104 415.27390989918234 C 18.21333333333333 415.244576565849, 18.296 415.1919098991824, 18.352 415.1159098991823 C 18.408 415.03990989918236, 18.44 414.940576565849, 18.448 414.8179098991824 C 18.471999999999998 414.52724323251573, 18.485999999999997 414.26590989918236, 18.49 414.03390989918233 C 18.494 413.80190989918236, 18.485333333333333 413.580576565849, 18.464 413.36990989918235 C 18.447999999999997 413.2152432325157, 18.396666666666665 413.0999098991823, 18.31 413.02390989918234 C 18.223333333333333 412.9479098991824, 18.090666666666664 412.90990989918237, 17.912 412.90990989918237 C 17.901333333333334 412.90990989918237, 17.890666666666668 412.9112432325157, 17.88 412.91390989918233 C 17.86933333333333 412.916576565849, 17.86 412.91924323251567, 17.852 412.92190989918237 Z M 17.852 410.62990989918234 L 17.852 409.6979098991824 L 19.439999999999998 409.6979098991824 L 19.439999999999998 410.62990989918234 Z M 21.944 416.09790989918235 L 21.944 409.6979098991824 L 23.003999999999998 409.6979098991824 L 23.003999999999998 416.09790989918235 Z " stroke="none" fill-rule="nonzero" fill="#000000" fill-opacity="1" transform="matrix(1,0,0,1,5.05,13.314)" id="text5 l" />
  <path d="M 0 410.75021897765646 L 10 410.75021897765646 L 10 412.25021897765646 L 0 412.25021897765646 Z " stroke="none" fill-rule="evenodd" fill="#000000" fill-opacity="1" transform="matrix(1,0,0,1,5.05,13.314)" id="mark6 l" />
  <path d="M 0 404.32052805613057 L 10 404.32052805613057 L 10 405.82052805613057 L 0 405.82052805613057 Z " stroke="none" fill-rule="evenodd" fill="#000000" fill-opacity="1" transform="matrix(1,0,0,1,5.05,13.314)" id="mark7 l" />
  <path d="M 0 397.8908371346047 L 10 397.8908371346047 L 10 399.3908371346047 L 0 399.3908371346047 Z " stroke="none" fill-rule="evenodd" fill="#000000" fill-opacity="1" transform="matrix(1,0,0,1,5.05,13.314)" id="mark8 l" />
  <path d="M 0 391.4611462130788 L 10 391.4611462130788 L 10 392.9611462130788 L 0 392.9611462130788 Z " stroke="none" fill-rule="evenodd" fill="#000000" fill-opacity="1" transform="matrix(1,0,0,1,5.05,13.314)" id="mark9 l" />
  <path d="M 0 385.0314552915529 L 25 385.0314552915529 L 25 386.5314552915529 L 0 386.5314552915529 Z " stroke="none" fill-rule="evenodd" fill="#000000" fill-opacity="1" transform="matrix(1,0,0,1,5.05,13.314)" id="mark10 l" />
  <path d="M 14.323999999999998 383.9814552915529 L 14.323999999999998 378.5374552915529 L 13.871999999999998 378.5374552915529 L 13.839999999999998 378.1574552915529 L 14.543999999999999 377.5814552915529 L 15.424 377.5814552915529 L 15.424 383.9814552915529 Z M 16.196 382.5694552915529 C 16.188000000000002 382.1401219582196, 16.182666666666666 381.7234552915529, 16.18 381.3194552915529 C 16.177333333333333 380.9154552915529, 16.177999999999997 380.5201219582196, 16.182 380.1334552915529 C 16.186 379.7467886248862, 16.190666666666665 379.3654552915529, 16.196 378.9894552915529 C 16.209333333333333 378.5494552915529, 16.334000000000003 378.20412195821956, 16.57 377.95345529155287 C 16.805999999999997 377.70278862488624, 17.142666666666663 377.55745529155286, 17.58 377.5174552915529 L 17.58 378.40545529155287 C 17.382666666666665 378.46145529155285, 17.281333333333333 378.5907886248862, 17.276 378.7934552915529 C 17.262666666666668 379.16412195821954, 17.253333333333334 379.51212195821955, 17.248 379.8374552915529 C 17.242666666666665 380.1627886248862, 17.24 380.4794552915529, 17.24 380.7874552915529 C 17.24 381.09545529155287, 17.242666666666665 381.4101219582195, 17.248 381.7314552915529 C 17.253333333333334 382.05278862488626, 17.262666666666668 382.39612195821957, 17.276 382.76145529155286 C 17.281333333333333 382.9694552915529, 17.382666666666665 383.10145529155284, 17.58 383.1574552915529 L 17.58 384.0454552915529 C 17.142666666666663 384.00545529155295, 16.805999999999997 383.8594552915529, 16.57 383.60745529155287 C 16.334000000000003 383.35545529155286, 16.209333333333333 383.0094552915529, 16.196 382.5694552915529 Z M 18.084 384.0454552915529 L 18.084 383.1534552915529 C 18.268 383.1001219582196, 18.366666666666667 382.97612195821955, 18.38 382.7814552915529 C 18.398666666666667 382.31478862488626, 18.410666666666668 381.8661219582196, 18.416 381.4354552915529 C 18.421333333333333 381.0047886248862, 18.421333333333333 380.57412195821956, 18.416 380.14345529155287 C 18.410666666666668 379.71278862488623, 18.398666666666667 379.26012195821954, 18.38 378.78545529155286 C 18.374666666666666 378.5907886248862, 18.276 378.46412195821955, 18.084 378.40545529155287 L 18.084 377.5174552915529 C 18.513333333333335 377.55745529155286, 18.846666666666668 377.70278862488624, 19.084 377.95345529155287 C 19.321333333333335 378.20412195821956, 19.445333333333334 378.5494552915529, 19.456 378.9894552915529 C 19.46666666666667 379.3041219582196, 19.474666666666668 379.6141219582196, 19.48 379.9194552915529 C 19.485333333333333 380.22478862488623, 19.488 380.5254552915529, 19.488 380.82145529155287 C 19.488 381.11745529155286, 19.485333333333333 381.4107886248862, 19.48 381.7014552915529 C 19.474666666666668 381.99212195821957, 19.46666666666667 382.2814552915529, 19.456 382.5694552915529 C 19.439999999999998 383.0201219582196, 19.311999999999998 383.36878862488624, 19.072 383.6154552915529 C 18.832 383.8621219582196, 18.502666666666666 384.00545529155295, 18.084 384.0454552915529 Z M 21.944 383.9814552915529 L 21.944 377.5814552915529 L 23.003999999999998 377.5814552915529 L 23.003999999999998 383.9814552915529 Z " stroke="none" fill-rule="nonzero" fill="#000000" fill-opacity="1" transform="matrix(1,0,0,1,5.05,13.314)" id="text10 l" />
  <path d="M 0 378.601764370027 L 10 378.601764370027 L 10 380.101764370027 L 0 380.101764370027 Z " stroke="none" fill-rule="evenodd" fill="#000000" fill-opacity="1" transform="matrix(1,0,0,1,5.05,13.314)" id="mark11 l" />
  <path d="M 0 372.1720734485011 L 10 372.1720734485011 L 10 373.6720734485011 L 0 373.6720734485011 Z " stroke="none" fill-rule="evenodd" fill="#000000" fill-opacity="1" transform="matrix(1,0,0,1,5.05,13.314)" id="mark12 l" />
  <path d="M 0 365.74238252697523 L 10 365.74238252697523 L 10 367.24238252697523 L 0 367.24238252697523 Z " stroke="none" fill-rule="evenodd" fill="#000000" fill-opacity="1" transform="matrix(1,0,0,1,5.05,13.314)" id="mark13 l" />
  <path d="M 0 359.3126916054494 L 10 359.3126916054494 L 10 360.8126916054494 L 0 360.8126916054494 Z " stroke="none" fill-rule="evenodd" fill="#000000" fill-opacity="1" transform="matrix(1,0,0,1,5.05,13.314)" id="mark14 l" />
  <path d="M 0 352.8830006839235 L 25 352.8830006839235 L 25 354.3830006839235 L 0 354.3830006839235 Z " stroke="none" fill-rule="evenodd" fill="#000000" fill-opacity="1" transform="matrix(1,0,0,1,5.05,13.314)" id="mark15 l" />
  <path d="M 14.331999999999999 351.8010006839235 L 14.331999999999999 346.3570006839235 L 13.879999999999999 346.3570006839235 L 13.847999999999999 345.9770006839235 L 14.552 345.40100068392354 L 15.432 345.40100068392354 L 15.432 351.8010006839235 Z M 16.18 350.3850006839235 C 16.174666666666667 350.2116673505902, 16.173333333333332 350.0723340172568, 16.176 349.9670006839235 C 16.178666666666665 349.8616673505902, 16.181333333333335 349.7596673505902, 16.183999999999997 349.66100068392353 L 17.264 349.66100068392353 C 17.256 349.7383340172569, 17.25 349.8343340172569, 17.246 349.94900068392354 C 17.241999999999997 350.0636673505902, 17.240666666666666 350.17433401725685, 17.241999999999997 350.28100068392354 C 17.243333333333332 350.38766735059016, 17.246666666666666 350.4676673505902, 17.252 350.52100068392355 C 17.262666666666668 350.6410006839235, 17.297333333333334 350.7390006839235, 17.355999999999998 350.81500068392353 C 17.414666666666665 350.8910006839235, 17.497333333333334 350.9450006839235, 17.604 350.9770006839235 L 17.604 351.8690006839235 C 17.110666666666663 351.8316673505902, 16.75333333333333 351.69700068392353, 16.532 351.4650006839235 C 16.310666666666666 351.2330006839235, 16.19333333333333 350.8730006839235, 16.18 350.3850006839235 Z M 16.279999999999998 349.0490006839235 L 16.279999999999998 345.40100068392354 L 17.348 345.40100068392354 L 17.348 349.0490006839235 Z M 17.852 348.62500068392353 L 17.852 347.8690006839235 C 17.929333333333332 347.8290006839235, 18.014666666666667 347.7970006839235, 18.107999999999997 347.7730006839235 C 18.20133333333333 347.7490006839235, 18.301333333333332 347.7370006839235, 18.407999999999998 347.7370006839235 C 18.773333333333333 347.7370006839235, 19.047333333333334 347.85233401725685, 19.23 348.0830006839235 C 19.412666666666667 348.31366735059015, 19.514666666666663 348.6276673505902, 19.535999999999998 349.0250006839235 C 19.546666666666667 349.18500068392353, 19.55333333333333 349.3436673505902, 19.555999999999997 349.5010006839235 C 19.558666666666664 349.65833401725683, 19.557333333333332 349.8116673505902, 19.552 349.96100068392354 C 19.546666666666667 350.1103340172569, 19.538666666666668 350.2503340172569, 19.528 350.3810006839235 C 19.482666666666667 350.8796673505902, 19.353333333333335 351.24500068392354, 19.14 351.4770006839235 C 18.926666666666666 351.7090006839235, 18.581333333333333 351.83966735059016, 18.104 351.8690006839235 L 18.104 350.9770006839235 C 18.21333333333333 350.94766735059017, 18.296 350.8950006839235, 18.352 350.8190006839235 C 18.408 350.74300068392347, 18.44 350.6436673505902, 18.448 350.52100068392355 C 18.471999999999998 350.23033401725684, 18.485999999999997 349.9690006839235, 18.49 349.7370006839235 C 18.494 349.5050006839235, 18.485333333333333 349.28366735059024, 18.464 349.0730006839235 C 18.447999999999997 348.9183340172568, 18.396666666666665 348.8030006839235, 18.31 348.7270006839235 C 18.223333333333333 348.65100068392354, 18.090666666666664 348.61300068392353, 17.912 348.61300068392353 C 17.901333333333334 348.61300068392353, 17.890666666666668 348.61433401725685, 17.88 348.6170006839235 C 17.86933333333333 348.6196673505902, 17.86 348.62233401725683, 17.852 348.62500068392353 Z M 17.852 346.3330006839235 L 17.852 345.40100068392354 L 19.439999999999998 345.40100068392354 L 19.439999999999998 346.3330006839235 Z M 21.944 351.8010006839235 L 21.944 345.40100068392354 L 23.003999999999998 345.40100068392354 L 23.003999999999998 351.8010006839235 Z " stroke="none" fill-rule="nonzero" fill="#000000" fill-opacity="1" transform="matrix(1,0,0,1,5.05,13.314)" id="text15 l" />
  <path d="M 0 346.4533097623976 L 10 346.4533097623976 L 10 347.9533097623976 L 0 347.9533097623976 Z " stroke="none" fill-rule="evenodd" fill="#000000" fill-opacity="1" transform="matrix(1,0,0,1,5.05,13.314)" id="mark16 l" />
  <path d="M 0 340.02361884087173 L 10 340.02361884087173 L 10 341.52361884087173 L 0 341.52361884087173 Z " stroke="none" fill-rule="evenodd" fill="#000000" fill-opacity="1" transform="matrix(1,0,0,1,5.05,13.314)" id="mark17 l" />
  <path d="M 0 333.59392791934584 L 10 333.59392791934584 L 10 335.09392791934584 L 0 335.09392791934584 Z " stroke="none" fill-rule="evenodd" fill="#000000" fill-opacity="1" transform="matrix(1,0,0,1,5.05,13.314)" id="mark18 l" />
  <path d="M 0 327.16423699781996 L 10 327.16423699781996 L 10 328.66423699781996 L 0 328.66423699781996 Z " stroke="none" fill-rule="evenodd" fill="#000000" fill-opacity="1" transform="matrix(1,0,0,1,5.05,13.314)" id="mark19 l" />
  <path d="M 0 320.7345460762941 L 25 320.7345460762941 L 25 322.2345460762941 L 0 322.2345460762941 Z " stroke="none" fill-rule="evenodd" fill="#000000" fill-opacity="1" transform="matrix(1,0,0,1,5.05,13.314)" id="mark20 l" />
  <path d="M 12.319999999999999 319.6845460762941 C 12.317333333333334 319.5858794096274, 12.315333333333331 319.49721274296076, 12.313999999999998 319.4185460762941 C 12.312666666666665 319.33987940962743, 12.311333333333334 319.2658794096274, 12.309999999999999 319.1965460762941 C 12.308666666666667 319.1272127429608, 12.308 319.0552127429608, 12.308 318.9805460762941 C 12.308 318.90587940962746, 12.308 318.8212127429608, 12.308 318.7265460762941 C 12.308 318.63187940962746, 12.309333333333335 318.5205460762941, 12.312 318.39254607629414 C 12.32 318.0992127429608, 12.37 317.8372127429608, 12.462 317.60654607629414 C 12.554 317.3758794096275, 12.687999999999999 317.16987940962747, 12.863999999999999 316.9885460762941 C 13.04 316.80721274296076, 13.257333333333333 316.6458794096274, 13.515999999999998 316.5045460762941 L 14.047999999999998 316.2165460762941 C 14.234666666666666 316.11521274296075, 14.354 315.99321274296074, 14.405999999999999 315.8505460762941 C 14.457999999999998 315.7078794096275, 14.488 315.57387940962747, 14.495999999999999 315.4485460762941 C 14.506666666666664 315.3018794096274, 14.512666666666664 315.1452127429608, 14.514 314.9785460762941 C 14.51533333333333 314.8118794096274, 14.511999999999997 314.65521274296077, 14.504 314.5085460762941 C 14.498666666666665 314.40454607629414, 14.468666666666666 314.3185460762941, 14.413999999999998 314.2505460762941 C 14.359333333333332 314.1825460762941, 14.279999999999998 314.1338794096274, 14.175999999999998 314.1045460762941 L 14.175999999999998 313.2165460762941 C 14.663999999999998 313.2485460762941, 15.014 313.3798794096274, 15.225999999999999 313.6105460762941 C 15.437999999999999 313.8412127429608, 15.554666666666666 314.20187940962745, 15.575999999999999 314.6925460762941 C 15.578666666666663 314.7565460762941, 15.580666666666666 314.82187940962746, 15.581999999999999 314.8885460762941 C 15.583333333333332 314.9552127429608, 15.584 315.01987940962744, 15.584 315.08254607629414 C 15.584 315.1452127429608, 15.583333333333332 315.2072127429608, 15.581999999999999 315.2685460762941 C 15.580666666666666 315.32987940962744, 15.578666666666663 315.38987940962744, 15.575999999999999 315.4485460762941 C 15.565333333333331 315.73387940962743, 15.512 315.9805460762941, 15.415999999999999 316.18854607629413 C 15.32 316.3965460762941, 15.19 316.5765460762941, 15.026 316.7285460762941 C 14.862 316.8805460762941, 14.672 317.0165460762941, 14.456 317.1365460762941 L 13.851999999999999 317.4645460762941 C 13.737333333333332 317.52587940962746, 13.647333333333332 317.60987940962747, 13.581999999999999 317.7165460762941 C 13.516666666666666 317.8232127429608, 13.469999999999999 317.9365460762941, 13.441999999999998 318.0565460762941 C 13.413999999999998 318.17654607629413, 13.399999999999999 318.28854607629415, 13.399999999999999 318.39254607629414 L 13.399999999999999 319.6845460762941 Z M 12.328 315.6445460762941 C 12.322666666666667 315.5272127429607, 12.318666666666665 315.4125460762941, 12.315999999999999 315.3005460762941 C 12.313333333333333 315.1885460762941, 12.311333333333334 315.0825460762941, 12.309999999999999 314.9825460762941 C 12.308666666666667 314.88254607629415, 12.309333333333335 314.78587940962746, 12.312 314.6925460762941 C 12.330666666666666 314.2045460762941, 12.447333333333333 313.84521274296077, 12.661999999999999 313.6145460762941 C 12.876666666666665 313.38387940962747, 13.213333333333331 313.2512127429608, 13.671999999999999 313.2165460762941 L 13.671999999999999 314.1085460762941 C 13.576 314.13787940962743, 13.505333333333333 314.18454607629417, 13.459999999999999 314.24854607629413 C 13.414666666666665 314.3125460762941, 13.390666666666664 314.38987940962744, 13.387999999999998 314.4805460762941 C 13.382666666666665 314.68854607629413, 13.379333333333333 314.88187940962746, 13.378 315.0605460762941 C 13.376666666666667 315.2392127429608, 13.381333333333334 315.4338794096275, 13.392 315.6445460762941 Z M 13.904 319.6845460762941 L 13.904 318.7525460762941 L 15.5 318.7525460762941 L 15.5 319.6845460762941 Z M 16.196 318.27254607629413 C 16.188000000000002 317.8432127429608, 16.182666666666666 317.42654607629413, 16.18 317.02254607629413 C 16.177333333333333 316.61854607629414, 16.177999999999997 316.2232127429608, 16.182 315.8365460762941 C 16.186 315.44987940962744, 16.190666666666665 315.0685460762941, 16.196 314.6925460762941 C 16.209333333333333 314.2525460762941, 16.334000000000003 313.9072127429608, 16.57 313.6565460762941 C 16.805999999999997 313.40587940962746, 17.142666666666663 313.2605460762941, 17.58 313.2205460762941 L 17.58 314.1085460762941 C 17.382666666666665 314.1645460762941, 17.281333333333333 314.29387940962744, 17.276 314.4965460762941 C 17.262666666666668 314.86721274296076, 17.253333333333334 315.2152127429608, 17.248 315.5405460762941 C 17.242666666666665 315.86587940962744, 17.24 316.1825460762941, 17.24 316.4905460762941 C 17.24 316.7985460762941, 17.242666666666665 317.11321274296074, 17.248 317.4345460762941 C 17.253333333333334 317.7558794096275, 17.262666666666668 318.0992127429608, 17.276 318.4645460762941 C 17.281333333333333 318.6725460762941, 17.382666666666665 318.80454607629406, 17.58 318.8605460762941 L 17.58 319.74854607629413 C 17.142666666666663 319.7085460762941, 16.805999999999997 319.5625460762941, 16.57 319.3105460762941 C 16.334000000000003 319.0585460762941, 16.209333333333333 318.71254607629413, 16.196 318.27254607629413 Z M 18.084 319.74854607629413 L 18.084 318.85654607629414 C 18.268 318.8032127429608, 18.366666666666667 318.6792127429608, 18.38 318.4845460762941 C 18.398666666666667 318.0178794096275, 18.410666666666668 317.5692127429608, 18.416 317.1385460762941 C 18.421333333333333 316.7078794096274, 18.421333333333333 316.2772127429608, 18.416 315.8465460762941 C 18.410666666666668 315.41587940962745, 18.398666666666667 314.96321274296076, 18.38 314.4885460762941 C 18.374666666666666 314.29387940962744, 18.276 314.16721274296077, 18.084 314.1085460762941 L 18.084 313.2205460762941 C 18.513333333333335 313.2605460762941, 18.846666666666668 313.40587940962746, 19.084 313.6565460762941 C 19.321333333333335 313.9072127429608, 19.445333333333334 314.2525460762941, 19.456 314.6925460762941 C 19.46666666666667 315.0072127429608, 19.474666666666668 315.3172127429608, 19.48 315.6225460762941 C 19.485333333333333 315.92787940962745, 19.488 316.2285460762941, 19.488 316.5245460762941 C 19.488 316.8205460762941, 19.485333333333333 317.11387940962743, 19.48 317.40454607629414 C 19.474666666666668 317.6952127429608, 19.46666666666667 317.9845460762941, 19.456 318.27254607629413 C 19.439999999999998 318.7232127429608, 19.311999999999998 319.07187940962746, 19.072 319.3185460762941 C 18.832 319.5652127429608, 18.502666666666666 319.7085460762941, 18.084 319.74854607629413 Z M 21.944 319.6845460762941 L 21.944 313.28454607629413 L 23.003999999999998 313.28454607629413 L 23.003999999999998 319.6845460762941 Z " stroke="none" fill-rule="nonzero" fill="#000000" fill-opacity="1" transform="matrix(1,0,0,1,5.05,13.314)" id="text20 l" />
  <path d="M 0 314.30485515476823 L 10 314.30485515476823 L 10 315.80485515476823 L 0 315.80485515476823 Z " stroke="none" fill-rule="evenodd" fill="#000000" fill-opacity="1" transform="matrix(1,0,0,1,5.05,13.314)" id="mark21 l" />
  <path d="M 0 307.87516423324234 L 10 307.87516423324234 L 10 309.37516423324234 L 0 309.37516423324234 Z " stroke="none" fill-rule="evenodd" fill="#000000" fill-opacity="1" transform="matrix(1,0,0,1,5.05,13.314)" id="mark22 l" />
  <path d="M 0 301.44547331171646 L 10 301.44547331171646 L 10 302.94547331171646 L 0 302.94547331171646 Z " stroke="none" fill-rule="evenodd" fill="#000000" fill-opacity="1" transform="matrix(1,0,0,1,5.05,13.314)" id="mark23 l" />
  <path d="M 0 295.01578239019057 L 10 295.01578239019057 L 10 296.51578239019057 L 0 296.51578239019057 Z " stroke="none" fill-rule="evenodd" fill="#000000" fill-opacity="1" transform="matrix(1,0,0,1,5.05,13.314)" id="mark24 l" />
  <path d="M 0 288.5860914686647 L 25 288.5860914686647 L 25 290.0860914686647 L 0 290.0860914686647 Z " stroke="none" fill-rule="evenodd" fill="#000000" fill-opacity="1" transform="matrix(1,0,0,1,5.05,13.314)" id="mark25 l" />
  <path d="M 12.328 287.53609146866467 C 12.325333333333333 287.43742480199796, 12.323333333333332 287.3487581353313, 12.322 287.27009146866465 C 12.320666666666666 287.191424801998, 12.319333333333333 287.11742480199797, 12.318 287.04809146866467 C 12.316666666666666 286.97875813533136, 12.315999999999999 286.90675813533136, 12.316 286.83209146866466 C 12.315999999999999 286.757424801998, 12.315999999999999 286.6727581353313, 12.316 286.57809146866464 C 12.315999999999999 286.48342480199796, 12.317333333333334 286.3720914686646, 12.32 286.2440914686647 C 12.328 285.9507581353313, 12.378 285.68875813533134, 12.47 285.4580914686647 C 12.562000000000001 285.22742480199804, 12.696 285.021424801998, 12.872 284.84009146866464 C 13.048 284.6587581353313, 13.265333333333334 284.49742480199797, 13.524000000000001 284.35609146866466 L 14.056000000000001 284.06809146866465 C 14.242666666666668 283.9667581353313, 14.362000000000002 283.84475813533135, 14.414 283.70209146866466 C 14.466000000000001 283.559424801998, 14.495999999999999 283.425424801998, 14.504 283.3000914686647 C 14.514666666666667 283.15342480199797, 14.520666666666667 282.99675813533133, 14.522 282.83009146866465 C 14.523333333333333 282.66342480199796, 14.520000000000001 282.5067581353313, 14.512 282.3600914686647 C 14.506666666666666 282.25609146866464, 14.476666666666667 282.1700914686646, 14.422 282.10209146866464 C 14.367333333333335 282.03409146866466, 14.288 281.985424801998, 14.184000000000001 281.9560914686647 L 14.184000000000001 281.06809146866465 C 14.672 281.10009146866463, 15.022000000000002 281.231424801998, 15.234 281.46209146866465 C 15.446000000000002 281.6927581353313, 15.562666666666667 282.05342480199795, 15.584 282.54409146866465 C 15.586666666666668 282.6080914686646, 15.588666666666668 282.67342480199795, 15.59 282.7400914686647 C 15.591333333333335 282.8067581353313, 15.592000000000002 282.871424801998, 15.592 282.9340914686647 C 15.592000000000002 282.99675813533133, 15.591333333333335 283.05875813533135, 15.59 283.12009146866467 C 15.588666666666668 283.181424801998, 15.586666666666668 283.241424801998, 15.584 283.3000914686647 C 15.573333333333332 283.585424801998, 15.52 283.83209146866466, 15.424 284.0400914686647 C 15.328 284.24809146866465, 15.197999999999999 284.42809146866466, 15.033999999999999 284.58009146866465 C 14.87 284.73209146866463, 14.68 284.86809146866466, 14.464 284.98809146866466 L 13.86 285.31609146866464 C 13.745333333333335 285.377424801998, 13.655333333333335 285.461424801998, 13.59 285.56809146866465 C 13.524666666666668 285.67475813533133, 13.478000000000002 285.7880914686647, 13.45 285.9080914686647 C 13.422 286.0280914686647, 13.408 286.14009146866465, 13.408 286.2440914686647 L 13.408 287.53609146866467 Z M 12.336 283.49609146866464 C 12.330666666666666 283.37875813533134, 12.326666666666664 283.2640914686647, 12.324 283.15209146866465 C 12.321333333333332 283.0400914686646, 12.319333333333333 282.93409146866463, 12.318 282.83409146866467 C 12.316666666666666 282.7340914686647, 12.317333333333334 282.637424801998, 12.32 282.54409146866465 C 12.338666666666668 282.0560914686647, 12.455333333333336 281.6967581353314, 12.67 281.4660914686647 C 12.884666666666668 281.23542480199797, 13.221333333333334 281.1027581353313, 13.68 281.06809146866465 L 13.68 281.96009146866464 C 13.584 281.989424801998, 13.513333333333332 282.03609146866467, 13.468 282.1000914686647 C 13.422666666666668 282.1640914686647, 13.398666666666667 282.241424801998, 13.396 282.33209146866466 C 13.390666666666666 282.5400914686647, 13.387333333333332 282.733424801998, 13.386 282.91209146866464 C 13.384666666666666 283.0907581353313, 13.389333333333333 283.285424801998, 13.4 283.49609146866464 Z M 13.911999999999999 287.53609146866467 L 13.911999999999999 286.60409146866465 L 15.508 286.60409146866465 L 15.508 287.53609146866467 Z M 16.18 286.12009146866467 C 16.174666666666667 285.9467581353314, 16.173333333333332 285.807424801998, 16.176 285.70209146866466 C 16.178666666666665 285.5967581353313, 16.181333333333335 285.4947581353313, 16.183999999999997 285.3960914686647 L 17.264 285.3960914686647 C 17.256 285.473424801998, 17.25 285.569424801998, 17.246 285.6840914686647 C 17.241999999999997 285.79875813533135, 17.240666666666666 285.909424801998, 17.241999999999997 286.0160914686647 C 17.243333333333332 286.1227581353313, 17.246666666666666 286.20275813533135, 17.252 286.2560914686647 C 17.262666666666668 286.37609146866464, 17.297333333333334 286.47409146866465, 17.355999999999998 286.5500914686647 C 17.414666666666665 286.62609146866464, 17.497333333333334 286.68009146866467, 17.604 286.71209146866465 L 17.604 287.60409146866465 C 17.110666666666663 287.5667581353313, 16.75333333333333 287.4320914686647, 16.532 287.20009146866465 C 16.310666666666666 286.9680914686646, 16.19333333333333 286.6080914686646, 16.18 286.12009146866467 Z M 16.279999999999998 284.78409146866466 L 16.279999999999998 281.1360914686647 L 17.348 281.1360914686647 L 17.348 284.78409146866466 Z M 17.852 284.3600914686647 L 17.852 283.60409146866465 C 17.929333333333332 283.5640914686646, 18.014666666666667 283.53209146866465, 18.107999999999997 283.50809146866465 C 18.20133333333333 283.48409146866464, 18.301333333333332 283.47209146866464, 18.407999999999998 283.47209146866464 C 18.773333333333333 283.47209146866464, 19.047333333333334 283.58742480199794, 19.23 283.81809146866465 C 19.412666666666667 284.04875813533135, 19.514666666666663 284.3627581353313, 19.535999999999998 284.76009146866465 C 19.546666666666667 284.9200914686647, 19.55333333333333 285.0787581353313, 19.555999999999997 285.23609146866465 C 19.558666666666664 285.393424801998, 19.557333333333332 285.54675813533134, 19.552 285.6960914686647 C 19.546666666666667 285.84542480199804, 19.538666666666668 285.985424801998, 19.528 286.11609146866465 C 19.482666666666667 286.61475813533133, 19.353333333333335 286.9800914686646, 19.14 287.21209146866465 C 18.926666666666666 287.4440914686647, 18.581333333333333 287.5747581353313, 18.104 287.60409146866465 L 18.104 286.71209146866465 C 18.21333333333333 286.6827581353313, 18.296 286.63009146866466, 18.352 286.55409146866464 C 18.408 286.4780914686647, 18.44 286.37875813533134, 18.448 286.2560914686647 C 18.471999999999998 285.965424801998, 18.485999999999997 285.7040914686646, 18.49 285.47209146866464 C 18.494 285.2400914686647, 18.485333333333333 285.0187581353313, 18.464 284.80809146866466 C 18.447999999999997 284.653424801998, 18.396666666666665 284.5380914686647, 18.31 284.46209146866465 C 18.223333333333333 284.3860914686647, 18.090666666666664 284.3480914686647, 17.912 284.3480914686647 C 17.901333333333334 284.3480914686647, 17.890666666666668 284.349424801998, 17.88 284.35209146866464 C 17.86933333333333 284.3547581353313, 17.86 284.357424801998, 17.852 284.3600914686647 Z M 17.852 282.06809146866465 L 17.852 281.1360914686647 L 19.439999999999998 281.1360914686647 L 19.439999999999998 282.06809146866465 Z M 21.944 287.53609146866467 L 21.944 281.1360914686647 L 23.003999999999998 281.1360914686647 L 23.003999999999998 287.53609146866467 Z " stroke="none" fill-rule="nonzero" fill="#000000" fill-opacity="1" transform="matrix(1,0,0,1,5.05,13.314)" id="text25 l" />
  <path d="M 0 282.1564005471388 L 10 282.1564005471388 L 10 283.6564005471388 L 0 283.6564005471388 Z " stroke="none" fill-rule="evenodd" fill="#000000" fill-opacity="1" transform="matrix(1,0,0,1,5.05,13.314)" id="mark26 l" />
  <path d="M 0 275.7267096256129 L 10 275.7267096256129 L 10 277.2267096256129 L 0 277.2267096256129 Z " stroke="none" fill-rule="evenodd" fill="#000000" fill-opacity="1" transform="matrix(1,0,0,1,5.05,13.314)" id="mark27 l" />
  <path d="M 0 269.297018704087 L 10 269.297018704087 L 10 270.797018704087 L 0 270.797018704087 Z " stroke="none" fill-rule="evenodd" fill="#000000" fill-opacity="1" transform="matrix(1,0,0,1,5.05,13.314)" id="mark28 l" />
  <path d="M 0 262.8673277825611 L 10 262.8673277825611 L 10 264.3673277825611 L 0 264.3673277825611 Z " stroke="none" fill-rule="evenodd" fill="#000000" fill-opacity="1" transform="matrix(1,0,0,1,5.05,13.314)" id="mark29 l" />
  <path d="M 0 256.43763686103523 L 25 256.43763686103523 L 25 257.93763686103523 L 0 257.93763686103523 Z " stroke="none" fill-rule="evenodd" fill="#000000" fill-opacity="1" transform="matrix(1,0,0,1,5.05,13.314)" id="mark30 l" />
  <path d="M 12.223999999999998 253.97163686103525 C 12.221333333333334 253.87030352770188, 12.219333333333333 253.78630352770188, 12.218 253.71963686103524 C 12.216666666666667 253.65297019436855, 12.216666666666667 253.58497019436857, 12.218 253.51563686103526 C 12.219333333333333 253.4463035277019, 12.221333333333334 253.35697019436856, 12.223999999999998 253.24763686103526 L 13.303999999999998 253.24763686103526 L 13.303999999999998 254.11163686103524 C 13.303999999999998 254.34897019436858, 13.417333333333332 254.49963686103524, 13.643999999999998 254.56363686103523 L 13.643999999999998 255.45563686103526 C 13.155999999999999 255.4183035277019, 12.800666666666665 255.28363686103523, 12.578 255.05163686103523 C 12.355333333333334 254.81963686103524, 12.237333333333332 254.45963686103522, 12.223999999999998 253.97163686103525 Z M 12.292 249.91963686103526 L 12.292 248.98763686103524 L 15.536 248.98763686103524 L 15.536 249.91963686103526 Z M 14.143999999999998 254.56763686103525 C 14.367999999999999 254.51163686103524, 14.483999999999998 254.36097019436858, 14.491999999999999 254.11563686103526 C 14.497333333333334 253.9129701943686, 14.500666666666666 253.73030352770192, 14.501999999999999 253.56763686103525 C 14.503333333333332 253.4049701943686, 14.498666666666665 253.24763686103523, 14.488 253.09563686103525 C 14.48 252.93830352770192, 14.431999999999999 252.8049701943686, 14.344 252.69563686103524 C 14.256 252.58630352770194, 14.089333333333332 252.53430352770192, 13.844 252.53963686103523 L 13.096 252.54763686103524 L 13.068 251.65563686103525 L 14.027999999999999 250.27163686103523 L 15.216 250.27163686103523 L 14.248 251.62363686103524 L 14.28 251.62363686103524 C 14.712 251.6236368610352, 15.028666666666666 251.7463035277019, 15.229999999999999 251.99163686103526 C 15.431333333333333 252.2369701943686, 15.544 252.6143035277019, 15.568 253.12363686103524 C 15.57333333333333 253.1956368610352, 15.576666666666664 253.26763686103521, 15.578 253.33963686103525 C 15.57933333333333 253.41163686103522, 15.579999999999998 253.4823035277019, 15.579999999999998 253.55163686103523 C 15.579999999999998 253.62097019436857, 15.57933333333333 253.6903035277019, 15.578 253.75963686103523 C 15.576666666666664 253.82897019436857, 15.57333333333333 253.89963686103522, 15.568 253.97163686103525 C 15.549333333333333 254.46763686103526, 15.428666666666665 254.83230352770192, 15.206 255.06563686103524 C 14.983333333333334 255.29897019436856, 14.630666666666666 255.4289701943686, 14.148 255.45563686103526 Z M 16.196 253.97563686103524 C 16.188000000000002 253.5463035277019, 16.182666666666666 253.12963686103524, 16.18 252.72563686103524 C 16.177333333333333 252.32163686103524, 16.177999999999997 251.92630352770192, 16.182 251.53963686103523 C 16.186 251.1529701943686, 16.190666666666665 250.77163686103526, 16.196 250.39563686103526 C 16.209333333333333 249.95563686103526, 16.334000000000003 249.61030352770194, 16.57 249.35963686103526 C 16.805999999999997 249.10897019436857, 17.142666666666663 248.96363686103524, 17.58 248.92363686103525 L 17.58 249.81163686103525 C 17.382666666666665 249.86763686103524, 17.281333333333333 249.9969701943686, 17.276 250.19963686103526 C 17.262666666666668 250.57030352770192, 17.253333333333334 250.91830352770188, 17.248 251.24363686103524 C 17.242666666666665 251.56897019436855, 17.24 251.88563686103524, 17.24 252.19363686103526 C 17.24 252.50163686103525, 17.242666666666665 252.8163035277019, 17.248 253.13763686103525 C 17.253333333333334 253.4589701943686, 17.262666666666668 253.8023035277019, 17.276 254.16763686103525 C 17.281333333333333 254.37563686103528, 17.382666666666665 254.50763686103525, 17.58 254.56363686103523 L 17.58 255.45163686103524 C 17.142666666666663 255.41163686103522, 16.805999999999997 255.26563686103523, 16.57 255.01363686103525 C 16.334000000000003 254.76163686103524, 16.209333333333333 254.41563686103524, 16.196 253.97563686103524 Z M 18.084 255.45163686103524 L 18.084 254.55963686103524 C 18.268 254.5063035277019, 18.366666666666667 254.38230352770194, 18.38 254.18763686103526 C 18.398666666666667 253.7209701943686, 18.410666666666668 253.27230352770192, 18.416 252.84163686103525 C 18.421333333333333 252.4109701943686, 18.421333333333333 251.9803035277019, 18.416 251.54963686103525 C 18.410666666666668 251.11897019436856, 18.398666666666667 250.66630352770193, 18.38 250.19163686103525 C 18.374666666666666 249.9969701943686, 18.276 249.87030352770194, 18.084 249.81163686103525 L 18.084 248.92363686103525 C 18.513333333333335 248.96363686103524, 18.846666666666668 249.10897019436857, 19.084 249.35963686103526 C 19.321333333333335 249.61030352770194, 19.445333333333334 249.95563686103526, 19.456 250.39563686103526 C 19.46666666666667 250.7103035277019, 19.474666666666668 251.0203035277019, 19.48 251.32563686103524 C 19.485333333333333 251.63097019436856, 19.488 251.93163686103526, 19.488 252.22763686103525 C 19.488 252.52363686103524, 19.485333333333333 252.81697019436857, 19.48 253.10763686103525 C 19.474666666666668 253.39830352770193, 19.46666666666667 253.68763686103526, 19.456 253.97563686103524 C 19.439999999999998 254.42630352770192, 19.311999999999998 254.77497019436856, 19.072 255.02163686103523 C 18.832 255.2683035277019, 18.502666666666666 255.41163686103522, 18.084 255.45163686103524 Z M 21.944 255.38763686103525 L 21.944 248.98763686103524 L 23.003999999999998 248.98763686103524 L 23.003999999999998 255.38763686103525 Z " stroke="none" fill-rule="nonzero" fill="#000000" fill-opacity="1" transform="matrix(1,0,0,1,5.05,13.314)" id="text30 l" />
  <path d="M 0 250.0079459395094 L 10 250.0079459395094 L 10 251.5079459395094 L 0 251.5079459395094 Z " stroke="none" fill-rule="evenodd" fill="#000000" fill-opacity="1" transform="matrix(1,0,0,1,5.05,13.314)" id="mark31 l" />
  <path d="M 0 243.5782550179835 L 10 243.5782550179835 L 10 245.0782550179835 L 0 245.0782550179835 Z " stroke="none" fill-rule="evenodd" fill="#000000" fill-opacity="1" transform="matrix(1,0,0,1,5.05,13.314)" id="mark32 l" />
  <path d="M 0 237.14856409645762 L 10 237.14856409645762 L 10 238.64856409645762 L 0 238.64856409645762 Z " stroke="none" fill-rule="evenodd" fill="#000000" fill-opacity="1" transform="matrix(1,0,0,1,5.05,13.314)" id="mark33 l" />
  <path d="M 0 230.71887317493173 L 10 230.71887317493173 L 10 232.21887317493173 L 0 232.21887317493173 Z " stroke="none" fill-rule="evenodd" fill="#000000" fill-opacity="1" transform="matrix(1,0,0,1,5.05,13.314)" id="mark34 l" />
  <path d="M 0 224.28918225340587 L 25 224.28918225340587 L 25 225.78918225340587 L 0 225.78918225340587 Z " stroke="none" fill-rule="evenodd" fill="#000000" fill-opacity="1" transform="matrix(1,0,0,1,5.05,13.314)" id="mark35 l" />
  <path d="M 12.232 221.79118225340588 C 12.229333333333333 221.68984892007256, 12.227333333333334 221.60584892007256, 12.226 221.53918225340587 C 12.224666666666668 221.47251558673923, 12.224666666666668 221.40451558673922, 12.226 221.3351822534059 C 12.227333333333334 221.26584892007256, 12.229333333333333 221.17651558673924, 12.232 221.0671822534059 L 13.312 221.0671822534059 L 13.312 221.93118225340586 C 13.312 222.1685155867392, 13.425333333333333 222.31918225340587, 13.652 222.38318225340586 L 13.652 223.2751822534059 C 13.164 223.23784892007257, 12.808666666666667 223.10318225340586, 12.586 222.87118225340586 C 12.363333333333333 222.63918225340586, 12.245333333333335 222.2791822534059, 12.232 221.79118225340588 Z M 12.3 217.7391822534059 L 12.3 216.80718225340587 L 15.544 216.80718225340587 L 15.544 217.7391822534059 Z M 14.152000000000001 222.38718225340588 C 14.376000000000001 222.33118225340587, 14.492 222.1805155867392, 14.5 221.93518225340588 C 14.505333333333333 221.73251558673923, 14.508666666666667 221.54984892007252, 14.51 221.38718225340588 C 14.511333333333333 221.2245155867392, 14.506666666666668 221.06718225340586, 14.496 220.91518225340587 C 14.488 220.75784892007255, 14.440000000000001 220.62451558673922, 14.352 220.51518225340587 C 14.264 220.40584892007254, 14.097333333333335 220.35384892007255, 13.852 220.35918225340586 L 13.104 220.36718225340587 L 13.076 219.47518225340588 L 14.036 218.09118225340586 L 15.224 218.09118225340586 L 14.256 219.44318225340587 L 14.288 219.44318225340587 C 14.719999999999999 219.4431822534059, 15.036666666666665 219.56584892007254, 15.238 219.8111822534059 C 15.439333333333334 220.05651558673924, 15.552 220.43384892007253, 15.576 220.94318225340587 C 15.581333333333333 221.0151822534059, 15.584666666666667 221.0871822534059, 15.586 221.15918225340587 C 15.587333333333333 221.2311822534059, 15.588000000000001 221.30184892007253, 15.588000000000001 221.37118225340586 C 15.588000000000001 221.4405155867392, 15.587333333333333 221.50984892007256, 15.586 221.57918225340586 C 15.584666666666667 221.64851558673922, 15.581333333333333 221.7191822534059, 15.576 221.79118225340588 C 15.557333333333334 222.2871822534059, 15.436666666666667 222.65184892007255, 15.214 222.88518225340587 C 14.991333333333333 223.1185155867392, 14.638666666666666 223.2485155867392, 14.156 223.2751822534059 Z M 16.18 221.79118225340588 C 16.174666666666667 221.61784892007256, 16.173333333333332 221.4785155867392, 16.176 221.37318225340587 C 16.178666666666665 221.26784892007254, 16.181333333333335 221.16584892007256, 16.183999999999997 221.0671822534059 L 17.264 221.0671822534059 C 17.256 221.1445155867392, 17.25 221.2405155867392, 17.246 221.35518225340587 C 17.241999999999997 221.46984892007254, 17.240666666666666 221.58051558673918, 17.241999999999997 221.68718225340587 C 17.243333333333332 221.79384892007255, 17.246666666666666 221.87384892007253, 17.252 221.92718225340587 C 17.262666666666668 222.04718225340588, 17.297333333333334 222.1451822534059, 17.355999999999998 222.22118225340589 C 17.414666666666665 222.29718225340588, 17.497333333333334 222.35118225340585, 17.604 222.38318225340586 L 17.604 223.2751822534059 C 17.110666666666663 223.23784892007257, 16.75333333333333 223.10318225340586, 16.532 222.87118225340586 C 16.310666666666666 222.63918225340586, 16.19333333333333 222.2791822534059, 16.18 221.79118225340588 Z M 16.279999999999998 220.45518225340587 L 16.279999999999998 216.80718225340587 L 17.348 216.80718225340587 L 17.348 220.45518225340587 Z M 17.852 220.0311822534059 L 17.852 219.2751822534059 C 17.929333333333332 219.2351822534059, 18.014666666666667 219.20318225340588, 18.107999999999997 219.17918225340588 C 18.20133333333333 219.15518225340588, 18.301333333333332 219.14318225340588, 18.407999999999998 219.14318225340588 C 18.773333333333333 219.14318225340588, 19.047333333333334 219.25851558673924, 19.23 219.4891822534059 C 19.412666666666667 219.71984892007254, 19.514666666666663 220.03384892007256, 19.535999999999998 220.43118225340586 C 19.546666666666667 220.59118225340586, 19.55333333333333 220.74984892007257, 19.555999999999997 220.90718225340586 C 19.558666666666664 221.06451558673922, 19.557333333333332 221.21784892007253, 19.552 221.36718225340587 C 19.546666666666667 221.51651558673922, 19.538666666666668 221.6565155867392, 19.528 221.7871822534059 C 19.482666666666667 222.28584892007254, 19.353333333333335 222.65118225340586, 19.14 222.88318225340586 C 18.926666666666666 223.11518225340586, 18.581333333333333 223.24584892007255, 18.104 223.2751822534059 L 18.104 222.38318225340586 C 18.21333333333333 222.35384892007255, 18.296 222.3011822534059, 18.352 222.22518225340588 C 18.408 222.14918225340585, 18.44 222.04984892007252, 18.448 221.92718225340587 C 18.471999999999998 221.63651558673922, 18.485999999999997 221.37518225340585, 18.49 221.14318225340588 C 18.494 220.91118225340585, 18.485333333333333 220.68984892007254, 18.464 220.47918225340587 C 18.447999999999997 220.3245155867392, 18.396666666666665 220.20918225340586, 18.31 220.13318225340586 C 18.223333333333333 220.05718225340587, 18.090666666666664 220.01918225340592, 17.912 220.0191822534059 C 17.901333333333334 220.01918225340592, 17.890666666666668 220.02051558673924, 17.88 220.02318225340588 C 17.86933333333333 220.02584892007252, 17.86 220.02851558673922, 17.852 220.0311822534059 Z M 17.852 217.7391822534059 L 17.852 216.80718225340587 L 19.439999999999998 216.80718225340587 L 19.439999999999998 217.7391822534059 Z M 21.944 223.20718225340588 L 21.944 216.80718225340587 L 23.003999999999998 216.80718225340587 L 23.003999999999998 223.20718225340588 Z " stroke="none" fill-rule="nonzero" fill="#000000" fill-opacity="1" transform="matrix(1,0,0,1,5.05,13.314)" id="text35 l" />
  <path d="M 0 217.85949133187998 L 10 217.85949133187998 L 10 219.35949133187998 L 0 219.35949133187998 Z " stroke="none" fill-rule="evenodd" fill="#000000" fill-opacity="1" transform="matrix(1,0,0,1,5.05,13.314)" id="mark36 l" />
  <path d="M 0 211.4298004103541 L 10 211.4298004103541 L 10 212.9298004103541 L 0 212.9298004103541 Z " stroke="none" fill-rule="evenodd" fill="#000000" fill-opacity="1" transform="matrix(1,0,0,1,5.05,13.314)" id="mark37 l" />
  <path d="M 0 205.0001094888282 L 10 205.0001094888282 L 10 206.5001094888282 L 0 206.5001094888282 Z " stroke="none" fill-rule="evenodd" fill="#000000" fill-opacity="1" transform="matrix(1,0,0,1,5.05,13.314)" id="mark38 l" />
  <path d="M 0 198.57041856730234 L 10 198.57041856730234 L 10 200.07041856730234 L 0 200.07041856730234 Z " stroke="none" fill-rule="evenodd" fill="#000000" fill-opacity="1" transform="matrix(1,0,0,1,5.05,13.314)" id="mark39 l" />
  <path d="M 0 192.14072764577645 L 25 192.14072764577645 L 25 193.64072764577645 L 0 193.64072764577645 Z " stroke="none" fill-rule="evenodd" fill="#000000" fill-opacity="1" transform="matrix(1,0,0,1,5.05,13.314)" id="mark40 l" />
  <path d="M 11.739999999999998 189.40672764577647 L 11.739999999999998 188.53072764577647 L 12.455999999999998 186.65072764577647 L 13.495999999999999 186.65072764577647 L 12.771999999999998 188.48272764577646 L 13.171999999999997 188.48272764577646 L 13.171999999999997 189.40672764577647 Z M 13.675999999999998 191.09072764577647 L 13.675999999999998 184.69072764577646 L 14.683999999999997 184.69072764577646 L 14.683999999999997 191.09072764577647 Z M 15.187999999999999 189.40672764577647 L 15.187999999999999 188.48272764577646 L 15.655999999999999 188.48272764577646 L 15.655999999999999 189.40672764577647 Z M 16.195999999999998 189.67872764577646 C 16.188 189.24939431244314, 16.182666666666666 188.83272764577646, 16.18 188.42872764577646 C 16.177333333333333 188.02472764577647, 16.177999999999997 187.62939431244314, 16.182 187.24272764577645 C 16.186 186.8560609791098, 16.190666666666665 186.47472764577645, 16.195999999999998 186.09872764577648 C 16.20933333333333 185.65872764577648, 16.333999999999996 185.31339431244314, 16.569999999999997 185.06272764577648 C 16.805999999999997 184.81206097910982, 17.142666666666663 184.66672764577646, 17.58 184.62672764577647 L 17.58 185.51472764577647 C 17.382666666666665 185.5707276457765, 17.281333333333333 185.70006097910982, 17.275999999999996 185.90272764577648 C 17.262666666666664 186.27339431244314, 17.25333333333333 186.62139431244313, 17.247999999999998 186.94672764577646 C 17.242666666666665 187.2720609791098, 17.24 187.5887276457765, 17.24 187.89672764577648 C 17.24 188.20472764577647, 17.242666666666665 188.51939431244313, 17.247999999999998 188.84072764577647 C 17.25333333333333 189.1620609791098, 17.262666666666664 189.50539431244314, 17.275999999999996 189.87072764577647 C 17.281333333333333 190.07872764577647, 17.382666666666665 190.21072764577647, 17.58 190.26672764577646 L 17.58 191.15472764577646 C 17.142666666666663 191.11472764577647, 16.805999999999997 190.96872764577648, 16.569999999999997 190.71672764577647 C 16.333999999999996 190.46472764577646, 16.20933333333333 190.11872764577646, 16.195999999999998 189.67872764577646 Z M 18.084 191.15472764577646 L 18.084 190.26272764577647 C 18.268 190.20939431244315, 18.366666666666667 190.08539431244316, 18.38 189.89072764577648 C 18.398666666666664 189.4240609791098, 18.410666666666664 188.97539431244314, 18.415999999999997 188.54472764577648 C 18.42133333333333 188.1140609791098, 18.42133333333333 187.68339431244314, 18.415999999999997 187.25272764577647 C 18.410666666666664 186.8220609791098, 18.398666666666664 186.36939431244312, 18.38 185.89472764577647 C 18.374666666666666 185.7000609791098, 18.276 185.57339431244313, 18.084 185.51472764577647 L 18.084 184.62672764577647 C 18.513333333333332 184.66672764577646, 18.846666666666664 184.81206097910982, 19.083999999999996 185.06272764577648 C 19.32133333333333 185.31339431244314, 19.44533333333333 185.65872764577648, 19.456 186.09872764577648 C 19.466666666666665 186.41339431244313, 19.474666666666664 186.72339431244313, 19.479999999999997 187.02872764577646 C 19.48533333333333 187.33406097910978, 19.488 187.63472764577645, 19.488 187.93072764577647 C 19.488 188.22672764577646, 19.48533333333333 188.52006097910981, 19.479999999999997 188.81072764577647 C 19.474666666666664 189.10139431244312, 19.466666666666665 189.39072764577645, 19.456 189.67872764577646 C 19.439999999999998 190.12939431244314, 19.311999999999998 190.4780609791098, 19.072 190.72472764577645 C 18.831999999999997 190.97139431244312, 18.502666666666663 191.11472764577647, 18.084 191.15472764577646 Z M 21.944 191.09072764577647 L 21.944 184.69072764577646 L 23.003999999999998 184.69072764577646 L 23.003999999999998 191.09072764577647 Z " stroke="none" fill-rule="nonzero" fill="#000000" fill-opacity="1" transform="matrix(1,0,0,1,5.05,13.314)" id="text40 l" />
  <path d="M 0 185.71103672425056 L 10 185.71103672425056 L 10 187.21103672425056 L 0 187.21103672425056 Z " stroke="none" fill-rule="evenodd" fill="#000000" fill-opacity="1" transform="matrix(1,0,0,1,5.05,13.314)" id="mark41 l" />
  <path d="M 0 179.28134580272467 L 10 179.28134580272467 L 10 180.78134580272467 L 0 180.78134580272467 Z " stroke="none" fill-rule="evenodd" fill="#000000" fill-opacity="1" transform="matrix(1,0,0,1,5.05,13.314)" id="mark42 l" />
  <path d="M 0 172.85165488119878 L 10 172.85165488119878 L 10 174.35165488119878 L 0 174.35165488119878 Z " stroke="none" fill-rule="evenodd" fill="#000000" fill-opacity="1" transform="matrix(1,0,0,1,5.05,13.314)" id="mark43 l" />
  <path d="M 0 166.4219639596729 L 10 166.4219639596729 L 10 167.9219639596729 L 0 167.9219639596729 Z " stroke="none" fill-rule="evenodd" fill="#000000" fill-opacity="1" transform="matrix(1,0,0,1,5.05,13.314)" id="mark44 l" />
  <path d="M 0 159.99227303814706 L 25 159.99227303814706 L 25 161.49227303814706 L 0 161.49227303814706 Z " stroke="none" fill-rule="evenodd" fill="#000000" fill-opacity="1" transform="matrix(1,0,0,1,5.05,13.314)" id="mark45 l" />
  <path d="M 11.748 157.22627303814707 L 11.748 156.35027303814707 L 12.463999999999999 154.47027303814707 L 13.503999999999998 154.47027303814707 L 12.78 156.30227303814706 L 13.18 156.30227303814706 L 13.18 157.22627303814707 Z M 13.684 158.91027303814707 L 13.684 152.51027303814706 L 14.691999999999998 152.51027303814706 L 14.691999999999998 158.91027303814707 Z M 15.195999999999998 157.22627303814707 L 15.195999999999998 156.30227303814706 L 15.663999999999998 156.30227303814706 L 15.663999999999998 157.22627303814707 Z M 16.18 157.49427303814707 C 16.174666666666667 157.32093970481372, 16.173333333333332 157.1816063714804, 16.176 157.07627303814706 C 16.178666666666665 156.97093970481373, 16.181333333333335 156.86893970481373, 16.183999999999997 156.77027303814708 L 17.264 156.77027303814708 C 17.256 156.84760637148042, 17.25 156.9436063714804, 17.246 157.05827303814706 C 17.241999999999997 157.17293970481373, 17.240666666666666 157.2836063714804, 17.241999999999997 157.39027303814706 C 17.243333333333332 157.4969397048137, 17.246666666666666 157.57693970481373, 17.252 157.63027303814707 C 17.262666666666668 157.75027303814707, 17.297333333333334 157.84827303814708, 17.355999999999998 157.92427303814708 C 17.414666666666665 158.00027303814707, 17.497333333333334 158.05427303814704, 17.604 158.08627303814706 L 17.604 158.97827303814708 C 17.110666666666663 158.94093970481373, 16.75333333333333 158.80627303814705, 16.532 158.57427303814706 C 16.310666666666666 158.34227303814706, 16.19333333333333 157.98227303814707, 16.18 157.49427303814707 Z M 16.279999999999998 156.15827303814706 L 16.279999999999998 152.51027303814706 L 17.348 152.51027303814706 L 17.348 156.15827303814706 Z M 17.852 155.73427303814708 L 17.852 154.97827303814708 C 17.929333333333332 154.9382730381471, 18.014666666666667 154.90627303814708, 18.107999999999997 154.88227303814708 C 18.20133333333333 154.85827303814708, 18.301333333333332 154.84627303814707, 18.407999999999998 154.84627303814707 C 18.773333333333333 154.84627303814707, 19.047333333333334 154.9616063714804, 19.23 155.19227303814708 C 19.412666666666667 155.42293970481373, 19.514666666666663 155.73693970481372, 19.535999999999998 156.13427303814706 C 19.546666666666667 156.29427303814705, 19.55333333333333 156.45293970481373, 19.555999999999997 156.61027303814706 C 19.558666666666664 156.76760637148038, 19.557333333333332 156.92093970481375, 19.552 157.07027303814706 C 19.546666666666667 157.21960637148038, 19.538666666666668 157.3596063714804, 19.528 157.49027303814708 C 19.482666666666667 157.98893970481373, 19.353333333333335 158.35427303814706, 19.14 158.58627303814706 C 18.926666666666666 158.81827303814705, 18.581333333333333 158.94893970481374, 18.104 158.97827303814708 L 18.104 158.08627303814706 C 18.21333333333333 158.05693970481374, 18.296 158.00427303814706, 18.352 157.92827303814707 C 18.408 157.85227303814708, 18.44 157.75293970481374, 18.448 157.63027303814707 C 18.471999999999998 157.3396063714804, 18.485999999999997 157.07827303814707, 18.49 156.84627303814707 C 18.494 156.61427303814708, 18.485333333333333 156.39293970481373, 18.464 156.18227303814706 C 18.447999999999997 156.0276063714804, 18.396666666666665 155.91227303814705, 18.31 155.83627303814706 C 18.223333333333333 155.76027303814706, 18.090666666666664 155.72227303814708, 17.912 155.72227303814708 C 17.901333333333334 155.72227303814708, 17.890666666666668 155.7236063714804, 17.88 155.72627303814707 C 17.86933333333333 155.72893970481374, 17.86 155.7316063714804, 17.852 155.73427303814708 Z M 17.852 153.44227303814708 L 17.852 152.51027303814706 L 19.439999999999998 152.51027303814706 L 19.439999999999998 153.44227303814708 Z M 21.944 158.91027303814707 L 21.944 152.51027303814706 L 23.003999999999998 152.51027303814706 L 23.003999999999998 158.91027303814707 Z " stroke="none" fill-rule="nonzero" fill="#000000" fill-opacity="1" transform="matrix(1,0,0,1,5.05,13.314)" id="text45 l" />
  <path d="M 0 153.56258211662117 L 10 153.56258211662117 L 10 155.06258211662117 L 0 155.06258211662117 Z " stroke="none" fill-rule="evenodd" fill="#000000" fill-opacity="1" transform="matrix(1,0,0,1,5.05,13.314)" id="mark46 l" />
  <path d="M 0 147.13289119509528 L 10 147.13289119509528 L 10 148.63289119509528 L 0 148.63289119509528 Z " stroke="none" fill-rule="evenodd" fill="#000000" fill-opacity="1" transform="matrix(1,0,0,1,5.05,13.314)" id="mark47 l" />
  <path d="M 0 140.7032002735694 L 10 140.7032002735694 L 10 142.2032002735694 L 0 142.2032002735694 Z " stroke="none" fill-rule="evenodd" fill="#000000" fill-opacity="1" transform="matrix(1,0,0,1,5.05,13.314)" id="mark48 l" />
  <path d="M 0 134.2735093520435 L 10 134.2735093520435 L 10 135.7735093520435 L 0 135.7735093520435 Z " stroke="none" fill-rule="evenodd" fill="#000000" fill-opacity="1" transform="matrix(1,0,0,1,5.05,13.314)" id="mark49 l" />
  <path d="M 0 127.84381843051762 L 25 127.84381843051762 L 25 129.34381843051762 L 0 129.34381843051762 Z " stroke="none" fill-rule="evenodd" fill="#000000" fill-opacity="1" transform="matrix(1,0,0,1,5.05,13.314)" id="mark50 l" />
  <path d="M 12.204 125.37781843051762 C 12.198666666666668 125.20448509718429, 12.197333333333333 125.06515176385095, 12.2 124.95981843051761 C 12.202666666666667 124.85448509718428, 12.205333333333336 124.75248509718429, 12.208 124.65381843051762 L 13.288 124.65381843051762 C 13.280000000000001 124.73115176385096, 13.274000000000001 124.82715176385095, 13.27 124.94181843051761 C 13.265999999999998 125.05648509718428, 13.264666666666667 125.16715176385094, 13.266 125.27381843051762 C 13.267333333333333 125.38048509718428, 13.270666666666667 125.46048509718429, 13.276 125.51381843051762 C 13.286666666666665 125.63381843051761, 13.321333333333332 125.73181843051762, 13.379999999999999 125.80781843051761 C 13.438666666666666 125.88381843051761, 13.521333333333335 125.93781843051761, 13.628 125.96981843051762 L 13.628 126.86181843051762 C 13.134666666666668 126.82448509718428, 12.777333333333335 126.68981843051762, 12.556 126.45781843051762 C 12.334666666666667 126.22581843051762, 12.217333333333332 125.8658184305176, 12.204 125.37781843051762 Z M 12.304 124.04181843051762 L 12.304 120.39381843051761 L 13.372 120.39381843051761 L 13.372 124.04181843051762 Z M 13.876 123.61781843051762 L 13.876 122.86181843051762 C 13.953333333333333 122.82181843051762, 14.038666666666668 122.78981843051761, 14.132 122.76581843051761 C 14.225333333333333 122.74181843051761, 14.325333333333333 122.72981843051761, 14.432 122.72981843051761 C 14.797333333333334 122.72981843051761, 15.071333333333332 122.84515176385095, 15.254 123.07581843051761 C 15.436666666666667 123.30648509718428, 15.538666666666668 123.62048509718429, 15.56 124.01781843051762 C 15.570666666666668 124.17781843051762, 15.577333333333334 124.33648509718428, 15.58 124.49381843051762 C 15.582666666666666 124.65115176385095, 15.581333333333333 124.80448509718428, 15.576 124.95381843051761 C 15.570666666666666 125.10315176385095, 15.562666666666665 125.24315176385096, 15.552 125.37381843051762 C 15.506666666666668 125.8724850971843, 15.377333333333333 126.23781843051762, 15.164 126.46981843051762 C 14.950666666666667 126.70181843051762, 14.605333333333332 126.83248509718429, 14.128 126.86181843051762 L 14.128 125.96981843051762 C 14.237333333333334 125.94048509718428, 14.32 125.88781843051763, 14.376 125.81181843051762 C 14.432 125.73581843051761, 14.464 125.63648509718428, 14.472 125.51381843051762 C 14.495999999999999 125.22315176385095, 14.509999999999998 124.96181843051762, 14.514 124.72981843051761 C 14.518 124.49781843051761, 14.509333333333334 124.27648509718429, 14.488 124.06581843051762 C 14.472000000000001 123.91115176385097, 14.420666666666666 123.79581843051761, 14.334 123.71981843051762 C 14.247333333333334 123.64381843051763, 14.114666666666666 123.60581843051762, 13.936 123.60581843051762 C 13.925333333333333 123.60581843051762, 13.914666666666665 123.60715176385096, 13.904 123.60981843051762 C 13.893333333333334 123.61248509718428, 13.884 123.61515176385095, 13.876 123.61781843051762 Z M 13.876 121.32581843051761 L 13.876 120.39381843051761 L 15.464 120.39381843051761 L 15.464 121.32581843051761 Z M 16.196 125.38181843051761 C 16.188000000000002 124.95248509718428, 16.182666666666666 124.53581843051762, 16.18 124.13181843051761 C 16.177333333333333 123.7278184305176, 16.177999999999997 123.33248509718427, 16.182 122.94581843051762 C 16.186 122.55915176385096, 16.190666666666665 122.17781843051762, 16.196 121.80181843051761 C 16.209333333333333 121.36181843051762, 16.334000000000003 121.01648509718427, 16.57 120.76581843051761 C 16.805999999999997 120.51515176385095, 17.142666666666663 120.36981843051763, 17.58 120.32981843051762 L 17.58 121.21781843051762 C 17.382666666666665 121.27381843051762, 17.281333333333333 121.40315176385096, 17.276 121.60581843051762 C 17.262666666666668 121.97648509718428, 17.253333333333334 122.32448509718427, 17.248 122.64981843051761 C 17.242666666666665 122.97515176385093, 17.24 123.29181843051761, 17.24 123.59981843051762 C 17.24 123.90781843051762, 17.242666666666665 124.22248509718429, 17.248 124.54381843051762 C 17.253333333333334 124.86515176385095, 17.262666666666668 125.20848509718428, 17.276 125.57381843051762 C 17.281333333333333 125.78181843051762, 17.382666666666665 125.91381843051761, 17.58 125.96981843051762 L 17.58 126.85781843051761 C 17.142666666666663 126.81781843051762, 16.805999999999997 126.67181843051762, 16.57 126.41981843051762 C 16.334000000000003 126.16781843051763, 16.209333333333333 125.82181843051762, 16.196 125.38181843051761 Z M 18.084 126.85781843051761 L 18.084 125.96581843051761 C 18.268 125.91248509718429, 18.366666666666667 125.78848509718429, 18.38 125.59381843051762 C 18.398666666666667 125.12715176385095, 18.410666666666668 124.67848509718428, 18.416 124.24781843051761 C 18.421333333333333 123.81715176385094, 18.421333333333333 123.38648509718428, 18.416 122.95581843051762 C 18.410666666666668 122.52515176385094, 18.398666666666667 122.07248509718428, 18.38 121.59781843051762 C 18.374666666666666 121.40315176385096, 18.276 121.27648509718429, 18.084 121.21781843051762 L 18.084 120.32981843051762 C 18.513333333333335 120.36981843051763, 18.846666666666668 120.51515176385095, 19.084 120.76581843051761 C 19.321333333333335 121.01648509718427, 19.445333333333334 121.36181843051762, 19.456 121.80181843051761 C 19.46666666666667 122.11648509718428, 19.474666666666668 122.42648509718428, 19.48 122.73181843051762 C 19.485333333333333 123.03715176385096, 19.488 123.33781843051761, 19.488 123.63381843051762 C 19.488 123.92981843051763, 19.485333333333333 124.22315176385095, 19.48 124.51381843051762 C 19.474666666666668 124.80448509718428, 19.46666666666667 125.09381843051762, 19.456 125.38181843051761 C 19.439999999999998 125.83248509718427, 19.311999999999998 126.18115176385095, 19.072 126.42781843051762 C 18.832 126.67448509718429, 18.502666666666666 126.81781843051762, 18.084 126.85781843051761 Z M 21.944 126.79381843051762 L 21.944 120.39381843051761 L 23.003999999999998 120.39381843051761 L 23.003999999999998 126.79381843051762 Z " stroke="none" fill-rule="nonzero" fill="#000000" fill-opacity="1" transform="matrix(1,0,0,1,5.05,13.314)" id="text50 l" />
  <path d="M 0 121.41412750899173 L 10 121.41412750899173 L 10 122.91412750899173 L 0 122.91412750899173 Z " stroke="none" fill-rule="evenodd" fill="#000000" fill-opacity="1" transform="matrix(1,0,0,1,5.05,13.314)" id="mark51 l" />
  <path d="M 0 114.98443658746584 L 10 114.98443658746584 L 10 116.48443658746584 L 0 116.48443658746584 Z " stroke="none" fill-rule="evenodd" fill="#000000" fill-opacity="1" transform="matrix(1,0,0,1,5.05,13.314)" id="mark52 l" />
  <path d="M 0 108.55474566594 L 10 108.55474566594 L 10 110.05474566594 L 0 110.05474566594 Z " stroke="none" fill-rule="evenodd" fill="#000000" fill-opacity="1" transform="matrix(1,0,0,1,5.05,13.314)" id="mark53 l" />
  <path d="M 0 102.12505474441411 L 10 102.12505474441411 L 10 103.62505474441411 L 0 103.62505474441411 Z " stroke="none" fill-rule="evenodd" fill="#000000" fill-opacity="1" transform="matrix(1,0,0,1,5.05,13.314)" id="mark54 l" />
  <path d="M 0 95.69536382288823 L 25 95.69536382288823 L 25 97.19536382288823 L 0 97.19536382288823 Z " stroke="none" fill-rule="evenodd" fill="#000000" fill-opacity="1" transform="matrix(1,0,0,1,5.05,13.314)" id="mark55 l" />
  <path d="M 12.212 93.19736382288824 C 12.206666666666667 93.0240304895549, 12.205333333333332 92.88469715622156, 12.207999999999998 92.77936382288823 C 12.210666666666667 92.6740304895549, 12.213333333333335 92.57203048955489, 12.216 92.47336382288823 L 13.296 92.47336382288823 C 13.288 92.55069715622156, 13.282 92.64669715622156, 13.277999999999999 92.76136382288823 C 13.273999999999997 92.87603048955489, 13.272666666666666 92.98669715622157, 13.274 93.09336382288824 C 13.275333333333332 93.2000304895549, 13.278666666666666 93.2800304895549, 13.283999999999999 93.33336382288823 C 13.294666666666664 93.45336382288824, 13.32933333333333 93.55136382288823, 13.387999999999998 93.62736382288823 C 13.446666666666665 93.70336382288824, 13.529333333333334 93.75736382288824, 13.636 93.78936382288823 L 13.636 94.68136382288823 C 13.142666666666667 94.6440304895549, 12.785333333333334 94.50936382288823, 12.563999999999998 94.27736382288823 C 12.342666666666666 94.04536382288823, 12.225333333333332 93.68536382288823, 12.212 93.19736382288824 Z M 12.312 91.86136382288824 L 12.312 88.21336382288823 L 13.379999999999999 88.21336382288823 L 13.379999999999999 91.86136382288824 Z M 13.883999999999999 91.43736382288823 L 13.883999999999999 90.68136382288823 C 13.961333333333332 90.64136382288822, 14.046666666666667 90.60936382288823, 14.139999999999999 90.58536382288823 C 14.233333333333333 90.56136382288824, 14.333333333333332 90.54936382288824, 14.44 90.54936382288824 C 14.805333333333333 90.54936382288824, 15.07933333333333 90.66469715622156, 15.261999999999999 90.89536382288823 C 15.444666666666667 91.12603048955489, 15.546666666666667 91.4400304895549, 15.568 91.83736382288824 C 15.578666666666667 91.99736382288823, 15.585333333333333 92.1560304895549, 15.588 92.31336382288823 C 15.590666666666666 92.47069715622158, 15.589333333333332 92.6240304895549, 15.584 92.77336382288823 C 15.578666666666665 92.92269715622156, 15.570666666666664 93.06269715622156, 15.559999999999999 93.19336382288823 C 15.514666666666667 93.6920304895549, 15.385333333333332 94.05736382288823, 15.171999999999999 94.28936382288823 C 14.958666666666666 94.52136382288823, 14.613333333333332 94.6520304895549, 14.136 94.68136382288823 L 14.136 93.78936382288823 C 14.245333333333333 93.76003048955491, 14.328 93.70736382288824, 14.383999999999999 93.63136382288823 C 14.44 93.55536382288822, 14.472 93.45603048955489, 14.479999999999999 93.33336382288823 C 14.503999999999998 93.04269715622156, 14.517999999999997 92.78136382288824, 14.521999999999998 92.54936382288824 C 14.526 92.31736382288823, 14.517333333333333 92.09603048955489, 14.495999999999999 91.88536382288824 C 14.48 91.73069715622157, 14.428666666666665 91.61536382288824, 14.341999999999999 91.53936382288823 C 14.255333333333333 91.46336382288823, 14.122666666666666 91.42536382288823, 13.943999999999999 91.42536382288823 C 13.933333333333332 91.42536382288823, 13.922666666666665 91.42669715622156, 13.911999999999999 91.42936382288823 C 13.901333333333334 91.43203048955489, 13.892 91.43469715622156, 13.883999999999999 91.43736382288823 Z M 13.883999999999999 89.14536382288823 L 13.883999999999999 88.21336382288823 L 15.472 88.21336382288823 L 15.472 89.14536382288823 Z M 16.18 93.19736382288824 C 16.174666666666667 93.0240304895549, 16.173333333333332 92.88469715622156, 16.176 92.77936382288823 C 16.178666666666665 92.6740304895549, 16.181333333333335 92.57203048955489, 16.183999999999997 92.47336382288823 L 17.264 92.47336382288823 C 17.256 92.55069715622156, 17.25 92.64669715622156, 17.246 92.76136382288823 C 17.241999999999997 92.87603048955489, 17.240666666666666 92.98669715622157, 17.241999999999997 93.09336382288824 C 17.243333333333332 93.2000304895549, 17.246666666666666 93.2800304895549, 17.252 93.33336382288823 C 17.262666666666668 93.45336382288824, 17.297333333333334 93.55136382288823, 17.355999999999998 93.62736382288823 C 17.414666666666665 93.70336382288824, 17.497333333333334 93.75736382288824, 17.604 93.78936382288823 L 17.604 94.68136382288823 C 17.110666666666663 94.6440304895549, 16.75333333333333 94.50936382288823, 16.532 94.27736382288823 C 16.310666666666666 94.04536382288823, 16.19333333333333 93.68536382288823, 16.18 93.19736382288824 Z M 16.279999999999998 91.86136382288824 L 16.279999999999998 88.21336382288823 L 17.348 88.21336382288823 L 17.348 91.86136382288824 Z M 17.852 91.43736382288823 L 17.852 90.68136382288823 C 17.929333333333332 90.64136382288822, 18.014666666666667 90.60936382288823, 18.107999999999997 90.58536382288823 C 18.20133333333333 90.56136382288824, 18.301333333333332 90.54936382288824, 18.407999999999998 90.54936382288824 C 18.773333333333333 90.54936382288824, 19.047333333333334 90.66469715622156, 19.23 90.89536382288823 C 19.412666666666667 91.12603048955489, 19.514666666666663 91.4400304895549, 19.535999999999998 91.83736382288824 C 19.546666666666667 91.99736382288823, 19.55333333333333 92.1560304895549, 19.555999999999997 92.31336382288823 C 19.558666666666664 92.47069715622158, 19.557333333333332 92.6240304895549, 19.552 92.77336382288823 C 19.546666666666667 92.92269715622156, 19.538666666666668 93.06269715622156, 19.528 93.19336382288823 C 19.482666666666667 93.6920304895549, 19.353333333333335 94.05736382288823, 19.14 94.28936382288823 C 18.926666666666666 94.52136382288823, 18.581333333333333 94.6520304895549, 18.104 94.68136382288823 L 18.104 93.78936382288823 C 18.21333333333333 93.76003048955491, 18.296 93.70736382288824, 18.352 93.63136382288823 C 18.408 93.55536382288822, 18.44 93.45603048955489, 18.448 93.33336382288823 C 18.471999999999998 93.04269715622156, 18.485999999999997 92.78136382288824, 18.49 92.54936382288824 C 18.494 92.31736382288823, 18.485333333333333 92.09603048955489, 18.464 91.88536382288824 C 18.447999999999997 91.73069715622157, 18.396666666666665 91.61536382288824, 18.31 91.53936382288823 C 18.223333333333333 91.46336382288823, 18.090666666666664 91.42536382288823, 17.912 91.42536382288823 C 17.901333333333334 91.42536382288823, 17.890666666666668 91.42669715622156, 17.88 91.42936382288823 C 17.86933333333333 91.43203048955489, 17.86 91.43469715622156, 17.852 91.43736382288823 Z M 17.852 89.14536382288823 L 17.852 88.21336382288823 L 19.439999999999998 88.21336382288823 L 19.439999999999998 89.14536382288823 Z M 21.944 94.61336382288823 L 21.944 88.21336382288823 L 23.003999999999998 88.21336382288823 L 23.003999999999998 94.61336382288823 Z " stroke="none" fill-rule="nonzero" fill="#000000" fill-opacity="1" transform="matrix(1,0,0,1,5.05,13.314)" id="text55 l" />
  <path d="M 0 89.26567290136234 L 10 89.26567290136234 L 10 90.76567290136234 L 0 90.76567290136234 Z " stroke="none" fill-rule="evenodd" fill="#000000" fill-opacity="1" transform="matrix(1,0,0,1,5.05,13.314)" id="mark56 l" />
  <path d="M 0 82.83598197983645 L 10 82.83598197983645 L 10 84.33598197983645 L 0 84.33598197983645 Z " stroke="none" fill-rule="evenodd" fill="#000000" fill-opacity="1" transform="matrix(1,0,0,1,5.05,13.314)" id="mark57 l" />
  <path d="M 0 76.40629105831056 L 10 76.40629105831056 L 10 77.90629105831056 L 0 77.90629105831056 Z " stroke="none" fill-rule="evenodd" fill="#000000" fill-opacity="1" transform="matrix(1,0,0,1,5.05,13.314)" id="mark58 l" />
  <path d="M 0 69.97660013678467 L 10 69.97660013678467 L 10 71.47660013678467 L 0 71.47660013678467 Z " stroke="none" fill-rule="evenodd" fill="#000000" fill-opacity="1" transform="matrix(1,0,0,1,5.05,13.314)" id="mark59 l" />
  <path d="M 0 63.54690921525878 L 25 63.54690921525878 L 25 65.04690921525878 L 0 65.04690921525878 Z " stroke="none" fill-rule="evenodd" fill="#000000" fill-opacity="1" transform="matrix(1,0,0,1,5.05,13.314)" id="mark60 l" />
  <path d="M 12.264 61.080909215258785 C 12.261333333333333 60.81690921525879, 12.258 60.53957588192546, 12.254 60.248909215258784 C 12.25 59.958242548592125, 12.248 59.65957588192545, 12.248 59.352909215258784 C 12.248 59.04624254859212, 12.249333333333333 58.73824254859211, 12.251999999999999 58.428909215258784 C 12.254666666666665 58.119575881925456, 12.258666666666667 57.81157588192545, 12.264 57.504909215258785 C 12.271999999999998 57.04090921525878, 12.397333333333332 56.68890921525878, 12.639999999999999 56.44890921525878 C 12.882666666666665 56.20890921525878, 13.215999999999998 56.07024254859211, 13.639999999999999 56.03290921525878 L 13.639999999999999 56.92490921525878 C 13.543999999999997 56.94890921525878, 13.470666666666665 56.99290921525878, 13.419999999999998 57.056909215258784 C 13.369333333333332 57.12090921525878, 13.343999999999998 57.206242548592115, 13.344 57.312909215258784 C 13.335999999999999 57.800909215258784, 13.330666666666666 58.26757588192545, 13.328 58.71290921525878 C 13.325333333333333 59.15824254859211, 13.323999999999998 59.59157588192545, 13.323999999999998 60.01290921525878 C 13.323999999999998 60.43424254859211, 13.328 60.848909215258786, 13.335999999999999 61.25690921525878 C 13.335999999999999 61.36624254859211, 13.363333333333333 61.45557588192545, 13.418 61.52490921525878 C 13.472666666666665 61.59424254859211, 13.549333333333333 61.64357588192544, 13.648 61.672909215258784 L 13.648 62.56490921525878 C 13.159999999999998 62.53290921525878, 12.809333333333331 62.400909215258785, 12.595999999999998 62.16890921525878 C 12.382666666666665 61.93690921525878, 12.271999999999998 61.57424254859211, 12.264 61.080909215258785 Z M 13.812 59.40090921525878 L 13.812 58.65690921525878 C 13.894666666666666 58.60890921525878, 13.987333333333332 58.57157588192545, 14.09 58.544909215258784 C 14.192666666666668 58.51824254859212, 14.301333333333332 58.50490921525879, 14.415999999999999 58.504909215258785 C 14.84 58.50490921525879, 15.134 58.60424254859212, 15.297999999999998 58.80290921525878 C 15.462 59.00157588192545, 15.547999999999998 59.33290921525878, 15.556 59.79690921525878 C 15.561333333333334 59.980909215258784, 15.564666666666666 60.13624254859212, 15.565999999999999 60.26290921525878 C 15.567333333333332 60.38957588192545, 15.567333333333332 60.514242548592115, 15.565999999999999 60.63690921525878 C 15.564666666666666 60.75957588192545, 15.559999999999999 60.90757588192545, 15.552 61.080909215258785 C 15.527999999999999 61.571575881925455, 15.408 61.93424254859212, 15.192 62.16890921525878 C 14.975999999999999 62.40357588192545, 14.628 62.53557588192545, 14.148 62.56490921525878 L 14.148 61.68090921525878 C 14.251999999999999 61.651575881925446, 14.331333333333333 61.60357588192545, 14.386 61.53690921525878 C 14.440666666666665 61.47024254859211, 14.469333333333333 61.38357588192545, 14.472 61.27690921525878 C 14.477333333333332 61.12224254859211, 14.481333333333332 60.98357588192545, 14.483999999999998 60.86090921525878 C 14.486666666666666 60.73824254859211, 14.489333333333335 60.62090921525878, 14.491999999999999 60.50890921525878 C 14.494666666666667 60.39690921525879, 14.495333333333333 60.28557588192545, 14.494 60.17490921525878 C 14.492666666666667 60.06424254859212, 14.489333333333333 59.947575881925445, 14.483999999999998 59.824909215258785 C 14.481333333333332 59.675575881925454, 14.429333333333332 59.56490921525878, 14.328 59.492909215258784 C 14.226666666666665 59.420909215258774, 14.094666666666665 59.38490921525877, 13.931999999999999 59.38490921525878 C 13.913333333333334 59.38490921525877, 13.894 59.38557588192545, 13.873999999999999 59.38690921525878 C 13.854 59.38824254859212, 13.833333333333332 59.39290921525878, 13.812 59.40090921525878 Z M 14.44 58.080909215258785 C 14.448 57.98757588192545, 14.452666666666666 57.905575881925444, 14.453999999999999 57.83490921525878 C 14.455333333333332 57.76424254859211, 14.454666666666665 57.688909215258775, 14.451999999999998 57.608909215258784 C 14.449333333333332 57.52890921525878, 14.445333333333334 57.43024254859212, 14.44 57.312909215258784 C 14.434666666666665 57.21424254859211, 14.407999999999998 57.13090921525878, 14.36 57.062909215258784 C 14.311999999999998 56.99490921525878, 14.238666666666665 56.94890921525878, 14.139999999999999 56.92490921525878 L 14.139999999999999 56.03690921525878 C 14.577333333333332 56.07690921525878, 14.911333333333332 56.22157588192545, 15.142 56.470909215258786 C 15.372666666666667 56.72024254859212, 15.495999999999999 57.047575881925454, 15.511999999999999 57.452909215258785 C 15.514666666666667 57.51957588192545, 15.516666666666666 57.58290921525878, 15.517999999999999 57.64290921525878 C 15.519333333333332 57.702909215258785, 15.519333333333332 57.76690921525878, 15.517999999999999 57.83490921525878 C 15.516666666666666 57.902909215258774, 15.514666666666667 57.98490921525878, 15.511999999999999 58.080909215258785 Z M 16.196 61.08490921525878 C 16.188000000000002 60.65557588192546, 16.182666666666666 60.238909215258786, 16.18 59.83490921525878 C 16.177333333333333 59.43090921525878, 16.177999999999997 59.035575881925446, 16.182 58.64890921525878 C 16.186 58.26224254859212, 16.190666666666665 57.88090921525878, 16.196 57.504909215258785 C 16.209333333333333 57.06490921525878, 16.334000000000003 56.71957588192545, 16.57 56.46890921525878 C 16.805999999999997 56.218242548592116, 17.142666666666663 56.07290921525878, 17.58 56.03290921525878 L 17.58 56.92090921525878 C 17.382666666666665 56.976909215258786, 17.281333333333333 57.10624254859212, 17.276 57.30890921525878 C 17.262666666666668 57.679575881925444, 17.253333333333334 58.02757588192545, 17.248 58.352909215258784 C 17.242666666666665 58.67824254859212, 17.24 58.99490921525879, 17.24 59.30290921525878 C 17.24 59.610909215258786, 17.242666666666665 59.925575881925454, 17.248 60.24690921525878 C 17.253333333333334 60.56824254859211, 17.262666666666668 60.911575881925444, 17.276 61.27690921525878 C 17.281333333333333 61.48490921525878, 17.382666666666665 61.61690921525879, 17.58 61.672909215258784 L 17.58 62.56090921525878 C 17.142666666666663 62.52090921525878, 16.805999999999997 62.37490921525878, 16.57 62.12290921525878 C 16.334000000000003 61.87090921525878, 16.209333333333333 61.52490921525879, 16.196 61.08490921525878 Z M 18.084 62.56090921525878 L 18.084 61.66890921525878 C 18.268 61.61557588192545, 18.366666666666667 61.49157588192545, 18.38 61.29690921525878 C 18.398666666666667 60.83024254859212, 18.410666666666668 60.38157588192546, 18.416 59.95090921525878 C 18.421333333333333 59.52024254859212, 18.421333333333333 59.089575881925455, 18.416 58.65890921525878 C 18.410666666666668 58.22824254859212, 18.398666666666667 57.77557588192545, 18.38 57.300909215258784 C 18.374666666666666 57.10624254859212, 18.276 56.97957588192545, 18.084 56.92090921525878 L 18.084 56.03290921525878 C 18.513333333333335 56.07290921525878, 18.846666666666668 56.218242548592116, 19.084 56.46890921525878 C 19.321333333333335 56.71957588192545, 19.445333333333334 57.06490921525878, 19.456 57.504909215258785 C 19.46666666666667 57.819575881925445, 19.474666666666668 58.12957588192545, 19.48 58.434909215258784 C 19.485333333333333 58.74024254859212, 19.488 59.04090921525878, 19.488 59.336909215258785 C 19.488 59.63290921525878, 19.485333333333333 59.926242548592114, 19.48 60.21690921525878 C 19.474666666666668 60.50757588192545, 19.46666666666667 60.79690921525878, 19.456 61.08490921525878 C 19.439999999999998 61.53557588192545, 19.311999999999998 61.88424254859211, 19.072 62.13090921525878 C 18.832 62.37757588192545, 18.502666666666666 62.52090921525878, 18.084 62.56090921525878 Z M 21.944 62.49690921525878 L 21.944 56.09690921525878 L 23.003999999999998 56.09690921525878 L 23.003999999999998 62.49690921525878 Z " stroke="none" fill-rule="nonzero" fill="#000000" fill-opacity="1" transform="matrix(1,0,0,1,5.05,13.314)" id="text60 l" />
  <path d="M 0 57.11721829373295 L 10 57.11721829373295 L 10 58.61721829373295 L 0 58.61721829373295 Z " stroke="none" fill-rule="evenodd" fill="#000000" fill-opacity="1" transform="matrix(1,0,0,1,5.05,13.314)" id="mark61 l" />
  <path d="M 0 50.68752737220706 L 10 50.68752737220706 L 10 52.18752737220706 L 0 52.18752737220706 Z " stroke="none" fill-rule="evenodd" fill="#000000" fill-opacity="1" transform="matrix(1,0,0,1,5.05,13.314)" id="mark62 l" />
  <path d="M 0 44.25783645068117 L 10 44.25783645068117 L 10 45.75783645068117 L 0 45.75783645068117 Z " stroke="none" fill-rule="evenodd" fill="#000000" fill-opacity="1" transform="matrix(1,0,0,1,5.05,13.314)" id="mark63 l" />
  <path d="M 0 37.82814552915528 L 10 37.82814552915528 L 10 39.32814552915528 L 0 39.32814552915528 Z " stroke="none" fill-rule="evenodd" fill="#000000" fill-opacity="1" transform="matrix(1,0,0,1,5.05,13.314)" id="mark64 l" />
  <path d="M 0 31.39845460762939 L 25 31.39845460762939 L 25 32.89845460762939 L 0 32.89845460762939 Z " stroke="none" fill-rule="evenodd" fill="#000000" fill-opacity="1" transform="matrix(1,0,0,1,5.05,13.314)" id="mark65 l" />
  <path d="M 12.272 28.93245460762939 C 12.269333333333332 28.668454607629386, 12.266 28.391121274296054, 12.262 28.100454607629388 C 12.258000000000001 27.80978794096272, 12.256 27.511121274296052, 12.256 27.204454607629387 C 12.256 26.897787940962722, 12.257333333333335 26.589787940962722, 12.26 26.280454607629387 C 12.262666666666668 25.971121274296053, 12.266666666666666 25.663121274296053, 12.272 25.356454607629388 C 12.280000000000001 24.89245460762939, 12.405333333333335 24.54045460762939, 12.648 24.30045460762939 C 12.890666666666668 24.06045460762939, 13.224 23.92178794096272, 13.648 23.884454607629387 L 13.648 24.77645460762939 C 13.552 24.80045460762939, 13.478666666666665 24.84445460762939, 13.428 24.908454607629388 C 13.377333333333333 24.972454607629388, 13.352 25.05778794096272, 13.352 25.164454607629388 C 13.344 25.652454607629387, 13.338666666666665 26.119121274296056, 13.336 26.56445460762939 C 13.333333333333332 27.009787940962724, 13.332 27.443121274296054, 13.332 27.86445460762939 C 13.332 28.28578794096272, 13.335999999999999 28.70045460762939, 13.344 29.10845460762939 C 13.343999999999998 29.217787940962722, 13.371333333333332 29.30712127429605, 13.426 29.376454607629388 C 13.480666666666666 29.445787940962724, 13.557333333333332 29.495121274296054, 13.656 29.524454607629387 L 13.656 30.41645460762939 C 13.168 30.384454607629387, 12.817333333333334 30.25245460762939, 12.604 30.02045460762939 C 12.390666666666668 29.78845460762939, 12.280000000000001 29.42578794096272, 12.272 28.93245460762939 Z M 13.82 27.25245460762939 L 13.82 26.50845460762939 C 13.902666666666665 26.460454607629387, 13.995333333333331 26.423121274296058, 14.097999999999999 26.396454607629387 C 14.200666666666667 26.369787940962723, 14.309333333333333 26.356454607629388, 14.424 26.356454607629388 C 14.848 26.356454607629388, 15.142000000000001 26.455787940962722, 15.306000000000001 26.65445460762939 C 15.47 26.853121274296054, 15.556000000000001 27.184454607629387, 15.564 27.64845460762939 C 15.569333333333333 27.83245460762939, 15.572666666666667 27.987787940962725, 15.574 28.11445460762939 C 15.575333333333333 28.241121274296056, 15.575333333333333 28.36578794096272, 15.574 28.48845460762939 C 15.572666666666667 28.611121274296053, 15.567999999999998 28.759121274296056, 15.56 28.93245460762939 C 15.536000000000001 29.423121274296058, 15.416 29.785787940962724, 15.2 30.02045460762939 C 14.984 30.255121274296055, 14.636 30.387121274296057, 14.156 30.41645460762939 L 14.156 29.53245460762939 C 14.259999999999998 29.503121274296056, 14.339333333333332 29.455121274296054, 14.394 29.388454607629388 C 14.448666666666666 29.32178794096272, 14.477333333333334 29.235121274296056, 14.48 29.12845460762939 C 14.485333333333333 28.973787940962723, 14.489333333333335 28.835121274296053, 14.492 28.71245460762939 C 14.494666666666667 28.589787940962722, 14.497333333333334 28.472454607629388, 14.5 28.36045460762939 C 14.502666666666666 28.24845460762939, 14.503333333333332 28.137121274296057, 14.501999999999999 28.02645460762939 C 14.500666666666666 27.915787940962723, 14.497333333333334 27.799121274296056, 14.492 27.67645460762939 C 14.489333333333335 27.527121274296057, 14.437333333333335 27.41645460762939, 14.336 27.344454607629388 C 14.234666666666666 27.272454607629392, 14.102666666666666 27.23645460762939, 13.94 27.23645460762939 C 13.921333333333333 27.23645460762939, 13.902000000000001 27.237121274296058, 13.882 27.23845460762939 C 13.862000000000002 27.23978794096272, 13.841333333333335 27.244454607629386, 13.82 27.25245460762939 Z M 14.448 25.93245460762939 C 14.456 25.839121274296055, 14.460666666666668 25.757121274296054, 14.462 25.68645460762939 C 14.463333333333335 25.615787940962722, 14.462666666666667 25.540454607629385, 14.46 25.460454607629387 C 14.457333333333333 25.38045460762939, 14.453333333333333 25.281787940962722, 14.448 25.164454607629388 C 14.442666666666668 25.06578794096272, 14.416 24.982454607629386, 14.368 24.914454607629388 C 14.32 24.84645460762939, 14.246666666666666 24.80045460762939, 14.148 24.77645460762939 L 14.148 23.888454607629388 C 14.585333333333335 23.928454607629387, 14.919333333333334 24.073121274296057, 15.15 24.32245460762939 C 15.380666666666666 24.57178794096272, 15.504000000000001 24.899121274296057, 15.52 25.30445460762939 C 15.522666666666666 25.37112127429606, 15.524666666666668 25.43445460762939, 15.526 25.49445460762939 C 15.527333333333335 25.55445460762939, 15.527333333333335 25.61845460762939, 15.526 25.68645460762939 C 15.524666666666668 25.75445460762939, 15.522666666666666 25.836454607629392, 15.52 25.93245460762939 Z M 16.18 28.93245460762939 C 16.174666666666667 28.759121274296056, 16.173333333333332 28.619787940962723, 16.176 28.51445460762939 C 16.178666666666665 28.409121274296055, 16.181333333333335 28.30712127429605, 16.183999999999997 28.20845460762939 L 17.264 28.20845460762939 C 17.256 28.28578794096272, 17.25 28.381787940962724, 17.246 28.49645460762939 C 17.241999999999997 28.611121274296053, 17.240666666666666 28.72178794096272, 17.241999999999997 28.82845460762939 C 17.243333333333332 28.93512127429606, 17.246666666666666 29.015121274296057, 17.252 29.068454607629388 C 17.262666666666668 29.18845460762939, 17.297333333333334 29.286454607629388, 17.355999999999998 29.362454607629388 C 17.414666666666665 29.43845460762939, 17.497333333333334 29.49245460762939, 17.604 29.524454607629387 L 17.604 30.41645460762939 C 17.110666666666663 30.379121274296054, 16.75333333333333 30.24445460762939, 16.532 30.01245460762939 C 16.310666666666666 29.780454607629387, 16.19333333333333 29.420454607629388, 16.18 28.93245460762939 Z M 16.279999999999998 27.59645460762939 L 16.279999999999998 23.948454607629387 L 17.348 23.948454607629387 L 17.348 27.59645460762939 Z M 17.852 27.17245460762939 L 17.852 26.41645460762939 C 17.929333333333332 26.37645460762939, 18.014666666666667 26.344454607629388, 18.107999999999997 26.320454607629387 C 18.20133333333333 26.29645460762939, 18.301333333333332 26.284454607629392, 18.407999999999998 26.28445460762939 C 18.773333333333333 26.284454607629392, 19.047333333333334 26.399787940962725, 19.23 26.63045460762939 C 19.412666666666667 26.861121274296053, 19.514666666666663 27.175121274296053, 19.535999999999998 27.57245460762939 C 19.546666666666667 27.732454607629386, 19.55333333333333 27.891121274296054, 19.555999999999997 28.048454607629388 C 19.558666666666664 28.205787940962722, 19.557333333333332 28.359121274296058, 19.552 28.50845460762939 C 19.546666666666667 28.65778794096272, 19.538666666666668 28.79778794096272, 19.528 28.92845460762939 C 19.482666666666667 29.427121274296056, 19.353333333333335 29.792454607629388, 19.14 30.024454607629387 C 18.926666666666666 30.256454607629387, 18.581333333333333 30.387121274296057, 18.104 30.41645460762939 L 18.104 29.524454607629387 C 18.21333333333333 29.495121274296054, 18.296 29.44245460762939, 18.352 29.36645460762939 C 18.408 29.29045460762939, 18.44 29.191121274296055, 18.448 29.068454607629388 C 18.471999999999998 28.77778794096272, 18.485999999999997 28.516454607629388, 18.49 28.28445460762939 C 18.494 28.05245460762939, 18.485333333333333 27.831121274296056, 18.464 27.620454607629387 C 18.447999999999997 27.46578794096272, 18.396666666666665 27.350454607629388, 18.31 27.274454607629387 C 18.223333333333333 27.198454607629387, 18.090666666666664 27.16045460762939, 17.912 27.16045460762939 C 17.901333333333334 27.16045460762939, 17.890666666666668 27.161787940962725, 17.88 27.164454607629388 C 17.86933333333333 27.167121274296058, 17.86 27.16978794096272, 17.852 27.17245460762939 Z M 17.852 24.88045460762939 L 17.852 23.948454607629387 L 19.439999999999998 23.948454607629387 L 19.439999999999998 24.88045460762939 Z M 21.944 30.34845460762939 L 21.944 23.948454607629387 L 23.003999999999998 23.948454607629387 L 23.003999999999998 30.34845460762939 Z " stroke="none" fill-rule="nonzero" fill="#000000" fill-opacity="1" transform="matrix(1,0,0,1,5.05,13.314)" id="text65 l" />
  <path d="M 0 24.9687636861035 L 10 24.9687636861035 L 10 26.4687636861035 L 0 26.4687636861035 Z " stroke="none" fill-rule="evenodd" fill="#000000" fill-opacity="1" transform="matrix(1,0,0,1,5.05,13.314)" id="mark66 l" />
  <path d="M 0 18.539072764577554 L 10 18.539072764577554 L 10 20.039072764577554 L 0 20.039072764577554 Z " stroke="none" fill-rule="evenodd" fill="#000000" fill-opacity="1" transform="matrix(1,0,0,1,5.05,13.314)" id="mark67 l" />
  <path d="M 0 12.109381843051722 L 10 12.109381843051722 L 10 13.609381843051722 L 0 13.609381843051722 Z " stroke="none" fill-rule="evenodd" fill="#000000" fill-opacity="1" transform="matrix(1,0,0,1,5.05,13.314)" id="mark68 l" />
  <path d="M 0 5.679690921525889 L 10 5.679690921525889 L 10 7.179690921525889 L 0 7.179690921525889 Z " stroke="none" fill-rule="evenodd" fill="#000000" fill-opacity="1" transform="matrix(1,0,0,1,5.05,13.314)" id="mark69 l" />
  <path d="M 0 -0.75 L 25 -0.75 L 25 0.75 L 0 0.75 Z " stroke="none" fill-rule="evenodd" fill="#000000" fill-opacity="1" transform="matrix(1,0,0,1,5.05,13.314)" id="mark70 l" />
  <path d="M 12.331999999999999 -7.268 L 12.331999999999999 -8.2 L 15.691999999999998 -8.2 L 15.691999999999998 -7.268 Z M 12.783999999999999 -1.7999999999999998 L 14.471999999999998 -6.8759999999999994 L 15.559999999999999 -6.8759999999999994 L 13.899999999999999 -1.7999999999999998 Z M 16.195999999999998 -3.2119999999999997 C 16.188 -3.641333333333333, 16.182666666666666 -4.058, 16.18 -4.462 C 16.177333333333333 -4.866, 16.177999999999997 -5.261333333333333, 16.182 -5.648 C 16.186 -6.034666666666666, 16.190666666666665 -6.416, 16.195999999999998 -6.792 C 16.20933333333333 -7.231999999999999, 16.333999999999996 -7.577333333333334, 16.569999999999997 -7.828 C 16.805999999999997 -8.078666666666667, 17.142666666666663 -8.224, 17.58 -8.264 L 17.58 -7.3759999999999994 C 17.382666666666665 -7.32, 17.281333333333333 -7.190666666666667, 17.275999999999996 -6.9879999999999995 C 17.262666666666664 -6.617333333333333, 17.25333333333333 -6.269333333333333, 17.247999999999998 -5.944 C 17.242666666666665 -5.618666666666666, 17.24 -5.302, 17.24 -4.994 C 17.24 -4.686, 17.242666666666665 -4.371333333333333, 17.247999999999998 -4.05 C 17.25333333333333 -3.7286666666666664, 17.262666666666664 -3.3853333333333326, 17.275999999999996 -3.0199999999999996 C 17.281333333333333 -2.812, 17.382666666666665 -2.6799999999999997, 17.58 -2.6239999999999997 L 17.58 -1.7359999999999998 C 17.142666666666663 -1.7759999999999998, 16.805999999999997 -1.9219999999999997, 16.569999999999997 -2.174 C 16.333999999999996 -2.4259999999999997, 16.20933333333333 -2.772, 16.195999999999998 -3.2119999999999997 Z M 18.084 -1.7359999999999998 L 18.084 -2.6279999999999997 C 18.268 -2.681333333333333, 18.366666666666667 -2.8053333333333335, 18.38 -3 C 18.398666666666664 -3.4666666666666663, 18.410666666666664 -3.915333333333333, 18.415999999999997 -4.346 C 18.42133333333333 -4.776666666666666, 18.42133333333333 -5.207333333333333, 18.415999999999997 -5.638 C 18.410666666666664 -6.068666666666666, 18.398666666666664 -6.521333333333333, 18.38 -6.9959999999999996 C 18.374666666666666 -7.190666666666667, 18.276 -7.317333333333334, 18.084 -7.3759999999999994 L 18.084 -8.264 C 18.513333333333332 -8.224, 18.846666666666664 -8.078666666666667, 19.083999999999996 -7.828 C 19.32133333333333 -7.577333333333334, 19.44533333333333 -7.231999999999999, 19.456 -6.792 C 19.466666666666665 -6.477333333333332, 19.474666666666664 -6.167333333333333, 19.479999999999997 -5.861999999999999 C 19.48533333333333 -5.556666666666667, 19.488 -5.256, 19.488 -4.96 C 19.488 -4.664, 19.48533333333333 -4.370666666666667, 19.479999999999997 -4.08 C 19.474666666666664 -3.7893333333333334, 19.466666666666665 -3.5, 19.456 -3.2119999999999997 C 19.439999999999998 -2.761333333333333, 19.311999999999998 -2.4126666666666665, 19.072 -2.166 C 18.831999999999997 -1.9193333333333331, 18.502666666666663 -1.7759999999999998, 18.084 -1.7359999999999998 Z M 21.944 -1.7999999999999998 L 21.944 -8.2 L 23.003999999999998 -8.2 L 23.003999999999998 -1.7999999999999998 Z " stroke="none" fill-rule="nonzero" fill="#000000" fill-opacity="1" transform="matrix(1,0,0,1,5.05,13.314)" id="text70 l" />
  <path d="M -5 -13.264 L 30 -13.264 L 30 450.41667358528576 L -5 450.41667358528576 Z " stroke="#FF0000" stroke-opacity="1" stroke-width="0.1" stroke-linecap="butt" stroke-linejoin="miter" fill="none" transform="matrix(1,0,0,1,5.05,13.314)" />
</svg>