<?xml version="1.0" encoding="UTF-8"?>
<svg xmlns:xlink="http://www.w3.org/1999/xlink" viewBox="0 0 35.1 499.1719776768609" version="1.1" style="font-synthesis: none;" width="35.1mm" height="499.1719776768609mm" xmlns="http://www.w3.org/2000/svg">
  <defs />
  <style>	</style>
  <path d="M 0 0 L 35.1 0 L 35.1 499.1719776768609 L 0 499.1719776768609 Z " stroke="none" fill-rule="nonzero" fill="#FFFFFF" fill-opacity="1" transform="matrix(1,0,0,1,0,0)" />
  <path d="M 0 478.2899776768608 L 10 478.2899776768608 L 10 479.7899776768608 L 0 479.7899776768608 Z " stroke="none" fill-rule="evenodd" fill="#000000" fill-opacity="1" transform="matrix(1,0,0,1,5.05,13.314)" id="mark1 l" />
  <path d="M 0 470.17065602132084 L 10 470.17065602132084 L 10 471.67065602132084 L 0 471.67065602132084 Z " stroke="none" fill-rule="evenodd" fill="#000000" fill-opacity="1" transform="matrix(1,0,0,1,5.05,13.314)" id="mark2 l" />
  <path d="M 0 462.0513343657808 L 10 462.0513343657808 L 10 463.5513343657808 L 0 463.5513343657808 Z " stroke="none" fill-rule="evenodd" fill="#000000" fill-opacity="1" transform="matrix(1,0,0,1,5.05,13.314)" id="mark3 l" />
  <path d="M 0 453.93201271024077 L 10 453.93201271024077 L 10 455.43201271024077 L 0 455.43201271024077 Z " stroke="none" fill-rule="evenodd" fill="#000000" fill-opacity="1" transform="matrix(1,0,0,1,5.05,13.314)" id="mark4 l" />
  <path d="M 0 445.8126910547008 L 25 445.8126910547008 L 25 447.3126910547008 L 0 447.3126910547008 Z " stroke="none" fill-rule="evenodd" fill="#000000" fill-opacity="1" transform="matrix(1,0,0,1,5.05,13.314)" id="mark5 l" />
  <path d="M 16.18 443.3146910547008 C 16.174666666666667 443.1413577213675, 16.173333333333332 443.00202438803416, 16.176 442.8966910547008 C 16.178666666666665 442.79135772136743, 16.181333333333335 442.6893577213674, 16.183999999999997 442.5906910547008 L 17.264 442.5906910547008 C 17.256 442.66802438803415, 17.25 442.76402438803416, 17.246 442.8786910547008 C 17.241999999999997 442.9933577213675, 17.240666666666666 443.10402438803413, 17.241999999999997 443.2106910547008 C 17.243333333333332 443.31735772136744, 17.246666666666666 443.3973577213675, 17.252 443.4506910547008 C 17.262666666666668 443.5706910547008, 17.297333333333334 443.6686910547008, 17.355999999999998 443.7446910547008 C 17.414666666666665 443.8206910547008, 17.497333333333334 443.87469105470075, 17.604 443.9066910547008 L 17.604 444.7986910547008 C 17.110666666666663 444.7613577213674, 16.75333333333333 444.6266910547008, 16.532 444.3946910547008 C 16.310666666666666 444.16269105470076, 16.19333333333333 443.80269105470074, 16.18 443.3146910547008 Z M 16.279999999999998 441.9786910547008 L 16.279999999999998 438.3306910547008 L 17.348 438.3306910547008 L 17.348 441.9786910547008 Z M 17.852 441.5546910547008 L 17.852 440.7986910547008 C 17.929333333333332 440.75869105470076, 18.014666666666667 440.7266910547008, 18.107999999999997 440.7026910547008 C 18.20133333333333 440.6786910547008, 18.301333333333332 440.6666910547008, 18.407999999999998 440.6666910547008 C 18.773333333333333 440.6666910547008, 19.047333333333334 440.7820243880341, 19.23 441.0126910547008 C 19.412666666666667 441.2433577213675, 19.514666666666663 441.55735772136745, 19.535999999999998 441.9546910547008 C 19.546666666666667 442.11469105470076, 19.55333333333333 442.27335772136746, 19.555999999999997 442.4306910547008 C 19.558666666666664 442.5880243880341, 19.557333333333332 442.7413577213674, 19.552 442.8906910547008 C 19.546666666666667 443.0400243880341, 19.538666666666668 443.1800243880341, 19.528 443.3106910547008 C 19.482666666666667 443.8093577213674, 19.353333333333335 444.17469105470076, 19.14 444.4066910547008 C 18.926666666666666 444.6386910547008, 18.581333333333333 444.76935772136744, 18.104 444.7986910547008 L 18.104 443.9066910547008 C 18.21333333333333 443.8773577213675, 18.296 443.8246910547008, 18.352 443.74869105470077 C 18.408 443.6726910547008, 18.44 443.57335772136753, 18.448 443.4506910547008 C 18.471999999999998 443.1600243880341, 18.485999999999997 442.89869105470075, 18.49 442.6666910547008 C 18.494 442.4346910547008, 18.485333333333333 442.21335772136746, 18.464 442.0026910547008 C 18.447999999999997 441.84802438803416, 18.396666666666665 441.7326910547008, 18.31 441.6566910547008 C 18.223333333333333 441.58069105470076, 18.090666666666664 441.54269105470075, 17.912 441.5426910547008 C 17.901333333333334 441.54269105470075, 17.890666666666668 441.54402438803413, 17.88 441.5466910547008 C 17.86933333333333 441.5493577213674, 17.86 441.55202438803417, 17.852 441.5546910547008 Z M 17.852 439.2626910547008 L 17.852 438.3306910547008 L 19.439999999999998 438.3306910547008 L 19.439999999999998 439.2626910547008 Z M 21.944 444.7306910547008 L 21.944 438.3306910547008 L 23.003999999999998 438.3306910547008 L 23.003999999999998 444.7306910547008 Z " stroke="none" fill-rule="nonzero" fill="#000000" fill-opacity="1" transform="matrix(1,0,0,1,5.05,13.314)" id="text5 l" />
  <path d="M 0 437.69336939916076 L 10 437.69336939916076 L 10 439.19336939916076 L 0 439.19336939916076 Z " stroke="none" fill-rule="evenodd" fill="#000000" fill-opacity="1" transform="matrix(1,0,0,1,5.05,13.314)" id="mark6 l" />
  <path d="M 0 429.5740477436208 L 10 429.5740477436208 L 10 431.0740477436208 L 0 431.0740477436208 Z " stroke="none" fill-rule="evenodd" fill="#000000" fill-opacity="1" transform="matrix(1,0,0,1,5.05,13.314)" id="mark7 l" />
  <path d="M 0 421.45472608808075 L 10 421.45472608808075 L 10 422.95472608808075 L 0 422.95472608808075 Z " stroke="none" fill-rule="evenodd" fill="#000000" fill-opacity="1" transform="matrix(1,0,0,1,5.05,13.314)" id="mark8 l" />
  <path d="M 0 413.3354044325407 L 10 413.3354044325407 L 10 414.8354044325407 L 0 414.8354044325407 Z " stroke="none" fill-rule="evenodd" fill="#000000" fill-opacity="1" transform="matrix(1,0,0,1,5.05,13.314)" id="mark9 l" />
  <path d="M 0 405.2160827770007 L 25 405.2160827770007 L 25 406.7160827770007 L 0 406.7160827770007 Z " stroke="none" fill-rule="evenodd" fill="#000000" fill-opacity="1" transform="matrix(1,0,0,1,5.05,13.314)" id="mark10 l" />
  <path d="M 14.323999999999998 404.16608277700067 L 14.323999999999998 398.72208277700065 L 13.871999999999998 398.72208277700065 L 13.839999999999998 398.34208277700066 L 14.543999999999999 397.7660827770007 L 15.424 397.7660827770007 L 15.424 404.16608277700067 Z M 16.196 402.7540827770007 C 16.188000000000002 402.3247494436673, 16.182666666666666 401.9080827770007, 16.18 401.5040827770007 C 16.177333333333333 401.1000827770007, 16.177999999999997 400.7047494436673, 16.182 400.31808277700065 C 16.186 399.931416110334, 16.190666666666665 399.5500827770006, 16.196 399.17408277700065 C 16.209333333333333 398.7340827770007, 16.334000000000003 398.38874944366734, 16.57 398.13808277700065 C 16.805999999999997 397.887416110334, 17.142666666666663 397.7420827770007, 17.58 397.70208277700067 L 17.58 398.59008277700065 C 17.382666666666665 398.64608277700063, 17.281333333333333 398.77541611033394, 17.276 398.9780827770007 C 17.262666666666668 399.3487494436673, 17.253333333333334 399.6967494436674, 17.248 400.02208277700066 C 17.242666666666665 400.34741611033405, 17.24 400.66408277700066, 17.24 400.97208277700065 C 17.24 401.28008277700064, 17.242666666666665 401.5947494436673, 17.248 401.91608277700067 C 17.253333333333334 402.23741611033404, 17.262666666666668 402.58074944366734, 17.276 402.94608277700064 C 17.281333333333333 403.15408277700067, 17.382666666666665 403.2860827770007, 17.58 403.34208277700066 L 17.58 404.2300827770007 C 17.142666666666663 404.1900827770007, 16.805999999999997 404.04408277700065, 16.57 403.79208277700064 C 16.334000000000003 403.54008277700063, 16.209333333333333 403.19408277700063, 16.196 402.7540827770007 Z M 18.084 404.2300827770007 L 18.084 403.3380827770007 C 18.268 403.28474944366735, 18.366666666666667 403.1607494436673, 18.38 402.9660827770007 C 18.398666666666667 402.499416110334, 18.410666666666668 402.0507494436673, 18.416 401.6200827770007 C 18.421333333333333 401.18941611033404, 18.421333333333333 400.7587494436673, 18.416 400.32808277700065 C 18.410666666666668 399.897416110334, 18.398666666666667 399.4447494436673, 18.38 398.97008277700064 C 18.374666666666666 398.775416110334, 18.276 398.6487494436673, 18.084 398.59008277700065 L 18.084 397.70208277700067 C 18.513333333333335 397.7420827770007, 18.846666666666668 397.887416110334, 19.084 398.13808277700065 C 19.321333333333335 398.38874944366734, 19.445333333333334 398.7340827770007, 19.456 399.17408277700065 C 19.46666666666667 399.4887494436673, 19.474666666666668 399.79874944366736, 19.48 400.10408277700066 C 19.485333333333333 400.40941611033406, 19.488 400.7100827770007, 19.488 401.00608277700064 C 19.488 401.3020827770007, 19.485333333333333 401.595416110334, 19.48 401.8860827770007 C 19.474666666666668 402.1767494436673, 19.46666666666667 402.4660827770007, 19.456 402.7540827770007 C 19.439999999999998 403.2047494436673, 19.311999999999998 403.553416110334, 19.072 403.8000827770007 C 18.832 404.04674944366735, 18.502666666666666 404.1900827770007, 18.084 404.2300827770007 Z M 21.944 404.16608277700067 L 21.944 397.7660827770007 L 23.003999999999998 397.7660827770007 L 23.003999999999998 404.16608277700067 Z " stroke="none" fill-rule="nonzero" fill="#000000" fill-opacity="1" transform="matrix(1,0,0,1,5.05,13.314)" id="text10 l" />
  <path d="M 0 397.0967611214607 L 10 397.0967611214607 L 10 398.5967611214607 L 0 398.5967611214607 Z " stroke="none" fill-rule="evenodd" fill="#000000" fill-opacity="1" transform="matrix(1,0,0,1,5.05,13.314)" id="mark11 l" />
  <path d="M 0 388.97743946592067 L 10 388.97743946592067 L 10 390.47743946592067 L 0 390.47743946592067 Z " stroke="none" fill-rule="evenodd" fill="#000000" fill-opacity="1" transform="matrix(1,0,0,1,5.05,13.314)" id="mark12 l" />
  <path d="M 0 380.8581178103807 L 10 380.8581178103807 L 10 382.3581178103807 L 0 382.3581178103807 Z " stroke="none" fill-rule="evenodd" fill="#000000" fill-opacity="1" transform="matrix(1,0,0,1,5.05,13.314)" id="mark13 l" />
  <path d="M 0 372.73879615484066 L 10 372.73879615484066 L 10 374.23879615484066 L 0 374.23879615484066 Z " stroke="none" fill-rule="evenodd" fill="#000000" fill-opacity="1" transform="matrix(1,0,0,1,5.05,13.314)" id="mark14 l" />
  <path d="M 0 364.6194744993006 L 25 364.6194744993006 L 25 366.1194744993006 L 0 366.1194744993006 Z " stroke="none" fill-rule="evenodd" fill="#000000" fill-opacity="1" transform="matrix(1,0,0,1,5.05,13.314)" id="mark15 l" />
  <path d="M 14.331999999999999 363.53747449930063 L 14.331999999999999 358.0934744993006 L 13.879999999999999 358.0934744993006 L 13.847999999999999 357.7134744993006 L 14.552 357.13747449930065 L 15.432 357.13747449930065 L 15.432 363.53747449930063 Z M 16.18 362.12147449930063 C 16.174666666666667 361.9481411659673, 16.173333333333332 361.808807832634, 16.176 361.7034744993006 C 16.178666666666665 361.59814116596726, 16.181333333333335 361.4961411659673, 16.183999999999997 361.39747449930064 L 17.264 361.39747449930064 C 17.256 361.4748078326339, 17.25 361.57080783263393, 17.246 361.68547449930065 C 17.241999999999997 361.80014116596726, 17.240666666666666 361.91080783263396, 17.241999999999997 362.01747449930065 C 17.243333333333332 362.1241411659673, 17.246666666666666 362.2041411659673, 17.252 362.25747449930066 C 17.262666666666668 362.3774744993006, 17.297333333333334 362.4754744993006, 17.355999999999998 362.55147449930064 C 17.414666666666665 362.6274744993006, 17.497333333333334 362.68147449930063, 17.604 362.7134744993006 L 17.604 363.6054744993006 C 17.110666666666663 363.5681411659673, 16.75333333333333 363.43347449930064, 16.532 363.2014744993006 C 16.310666666666666 362.9694744993006, 16.19333333333333 362.60947449930063, 16.18 362.12147449930063 Z M 16.279999999999998 360.7854744993006 L 16.279999999999998 357.13747449930065 L 17.348 357.13747449930065 L 17.348 360.7854744993006 Z M 17.852 360.36147449930064 L 17.852 359.6054744993006 C 17.929333333333332 359.5654744993006, 18.014666666666667 359.5334744993006, 18.107999999999997 359.5094744993006 C 18.20133333333333 359.4854744993006, 18.301333333333332 359.4734744993006, 18.407999999999998 359.4734744993006 C 18.773333333333333 359.4734744993006, 19.047333333333334 359.58880783263396, 19.23 359.8194744993006 C 19.412666666666667 360.05014116596726, 19.514666666666663 360.3641411659673, 19.535999999999998 360.7614744993006 C 19.546666666666667 360.92147449930064, 19.55333333333333 361.0801411659673, 19.555999999999997 361.2374744993006 C 19.558666666666664 361.39480783263394, 19.557333333333332 361.5481411659673, 19.552 361.69747449930065 C 19.546666666666667 361.846807832634, 19.538666666666668 361.986807832634, 19.528 362.1174744993006 C 19.482666666666667 362.6161411659673, 19.353333333333335 362.9814744993006, 19.14 363.2134744993006 C 18.926666666666666 363.44547449930064, 18.581333333333333 363.57614116596733, 18.104 363.6054744993006 L 18.104 362.7134744993006 C 18.21333333333333 362.6841411659673, 18.296 362.6314744993006, 18.352 362.5554744993006 C 18.408 362.47947449930064, 18.44 362.3801411659673, 18.448 362.25747449930066 C 18.471999999999998 361.96680783263395, 18.485999999999997 361.70547449930064, 18.49 361.4734744993006 C 18.494 361.24147449930064, 18.485333333333333 361.0201411659673, 18.464 360.8094744993006 C 18.447999999999997 360.654807832634, 18.396666666666665 360.53947449930064, 18.31 360.4634744993006 C 18.223333333333333 360.38747449930065, 18.090666666666664 360.34947449930064, 17.912 360.34947449930064 C 17.901333333333334 360.34947449930064, 17.890666666666668 360.35080783263396, 17.88 360.3534744993006 C 17.86933333333333 360.3561411659673, 17.86 360.35880783263394, 17.852 360.36147449930064 Z M 17.852 358.0694744993006 L 17.852 357.13747449930065 L 19.439999999999998 357.13747449930065 L 19.439999999999998 358.0694744993006 Z M 21.944 363.53747449930063 L 21.944 357.13747449930065 L 23.003999999999998 357.13747449930065 L 23.003999999999998 363.53747449930063 Z " stroke="none" fill-rule="nonzero" fill="#000000" fill-opacity="1" transform="matrix(1,0,0,1,5.05,13.314)" id="text15 l" />
  <path d="M 0 356.5001528437606 L 10 356.5001528437606 L 10 358.0001528437606 L 0 358.0001528437606 Z " stroke="none" fill-rule="evenodd" fill="#000000" fill-opacity="1" transform="matrix(1,0,0,1,5.05,13.314)" id="mark16 l" />
  <path d="M 0 348.3808311882206 L 10 348.3808311882206 L 10 349.8808311882206 L 0 349.8808311882206 Z " stroke="none" fill-rule="evenodd" fill="#000000" fill-opacity="1" transform="matrix(1,0,0,1,5.05,13.314)" id="mark17 l" />
  <path d="M 0 340.26150953268063 L 10 340.26150953268063 L 10 341.76150953268063 L 0 341.76150953268063 Z " stroke="none" fill-rule="evenodd" fill="#000000" fill-opacity="1" transform="matrix(1,0,0,1,5.05,13.314)" id="mark18 l" />
  <path d="M 0 332.1421878771406 L 10 332.1421878771406 L 10 333.6421878771406 L 0 333.6421878771406 Z " stroke="none" fill-rule="evenodd" fill="#000000" fill-opacity="1" transform="matrix(1,0,0,1,5.05,13.314)" id="mark19 l" />
  <path d="M 0 324.02286622160057 L 25 324.02286622160057 L 25 325.52286622160057 L 0 325.52286622160057 Z " stroke="none" fill-rule="evenodd" fill="#000000" fill-opacity="1" transform="matrix(1,0,0,1,5.05,13.314)" id="mark20 l" />
  <path d="M 12.319999999999999 322.97286622160055 C 12.317333333333334 322.87419955493385, 12.315333333333331 322.7855328882672, 12.313999999999998 322.70686622160054 C 12.312666666666665 322.6281995549339, 12.311333333333334 322.55419955493386, 12.309999999999999 322.48486622160056 C 12.308666666666667 322.41553288826725, 12.308 322.34353288826725, 12.308 322.26886622160055 C 12.308 322.1941995549339, 12.308 322.1095328882672, 12.308 322.0148662216005 C 12.308 321.92019955493384, 12.309333333333335 321.8088662216005, 12.312 321.6808662216006 C 12.32 321.3875328882672, 12.37 321.12553288826723, 12.462 320.8948662216006 C 12.554 320.66419955493393, 12.687999999999999 320.4581995549339, 12.863999999999999 320.2768662216005 C 13.04 320.0955328882672, 13.257333333333333 319.93419955493385, 13.515999999999998 319.79286622160055 L 14.047999999999998 319.50486622160054 C 14.234666666666666 319.4035328882672, 14.354 319.28153288826724, 14.405999999999999 319.13886622160055 C 14.457999999999998 318.99619955493387, 14.488 318.8621995549339, 14.495999999999999 318.73686622160056 C 14.506666666666664 318.59019955493386, 14.512666666666664 318.4335328882672, 14.514 318.26686622160054 C 14.51533333333333 318.10019955493385, 14.511999999999997 317.9435328882672, 14.504 317.79686622160057 C 14.498666666666665 317.6928662216005, 14.468666666666666 317.6068662216005, 14.413999999999998 317.53886622160053 C 14.359333333333332 317.47086622160055, 14.279999999999998 317.4221995549339, 14.175999999999998 317.39286622160057 L 14.175999999999998 316.50486622160054 C 14.663999999999998 316.5368662216005, 15.014 316.6681995549339, 15.225999999999999 316.89886622160054 C 15.437999999999999 317.1295328882672, 15.554666666666666 317.49019955493384, 15.575999999999999 317.98086622160054 C 15.578666666666663 318.0448662216005, 15.580666666666666 318.11019955493384, 15.581999999999999 318.17686622160056 C 15.583333333333332 318.24353288826717, 15.584 318.3081995549339, 15.584 318.3708662216006 C 15.584 318.4335328882672, 15.583333333333332 318.49553288826723, 15.581999999999999 318.55686622160056 C 15.580666666666666 318.6181995549339, 15.578666666666663 318.6781995549339, 15.575999999999999 318.73686622160056 C 15.565333333333331 319.0221995549339, 15.512 319.26886622160055, 15.415999999999999 319.4768662216006 C 15.32 319.68486622160054, 15.19 319.86486622160055, 15.026 320.01686622160054 C 14.862 320.1688662216005, 14.672 320.30486622160055, 14.456 320.42486622160055 L 13.851999999999999 320.7528662216005 C 13.737333333333332 320.8141995549339, 13.647333333333332 320.8981995549339, 13.581999999999999 321.00486622160054 C 13.516666666666666 321.1115328882672, 13.469999999999999 321.22486622160056, 13.441999999999998 321.34486622160057 C 13.413999999999998 321.4648662216006, 13.399999999999999 321.57686622160054, 13.399999999999999 321.6808662216006 L 13.399999999999999 322.97286622160055 Z M 12.328 318.93286622160053 C 12.322666666666667 318.8155328882672, 12.318666666666665 318.70086622160056, 12.315999999999999 318.58886622160054 C 12.313333333333333 318.4768662216005, 12.311333333333334 318.3708662216005, 12.309999999999999 318.27086622160056 C 12.308666666666667 318.1708662216006, 12.309333333333335 318.0741995549339, 12.312 317.98086622160054 C 12.330666666666666 317.4928662216006, 12.447333333333333 317.13353288826727, 12.661999999999999 316.90286622160056 C 12.876666666666665 316.67219955493385, 13.213333333333331 316.5395328882672, 13.671999999999999 316.50486622160054 L 13.671999999999999 317.39686622160053 C 13.576 317.4261995549339, 13.505333333333333 317.47286622160055, 13.459999999999999 317.5368662216006 C 13.414666666666665 317.6008662216006, 13.390666666666664 317.6781995549339, 13.387999999999998 317.76886622160055 C 13.382666666666665 317.9768662216006, 13.379333333333333 318.1701995549339, 13.378 318.34886622160053 C 13.376666666666667 318.5275328882672, 13.381333333333334 318.72219955493387, 13.392 318.93286622160053 Z M 13.904 322.97286622160055 L 13.904 322.04086622160054 L 15.5 322.04086622160054 L 15.5 322.97286622160055 Z M 16.196 321.5608662216006 C 16.188000000000002 321.13153288826726, 16.182666666666666 320.7148662216006, 16.18 320.3108662216006 C 16.177333333333333 319.9068662216006, 16.177999999999997 319.51153288826725, 16.182 319.12486622160054 C 16.186 318.7381995549339, 16.190666666666665 318.3568662216005, 16.196 317.98086622160054 C 16.209333333333333 317.5408662216006, 16.334000000000003 317.1955328882672, 16.57 316.94486622160053 C 16.805999999999997 316.6941995549339, 17.142666666666663 316.5488662216006, 17.58 316.50886622160056 L 17.58 317.39686622160053 C 17.382666666666665 317.4528662216005, 17.281333333333333 317.5821995549339, 17.276 317.78486622160057 C 17.262666666666668 318.1555328882672, 17.253333333333334 318.5035328882672, 17.248 318.82886622160055 C 17.242666666666665 319.1541995549339, 17.24 319.47086622160055, 17.24 319.77886622160054 C 17.24 320.08686622160053, 17.242666666666665 320.4015328882672, 17.248 320.72286622160055 C 17.253333333333334 321.0441995549339, 17.262666666666668 321.38753288826723, 17.276 321.7528662216005 C 17.281333333333333 321.96086622160055, 17.382666666666665 322.09286622160056, 17.58 322.14886622160054 L 17.58 323.0368662216006 C 17.142666666666663 322.9968662216006, 16.805999999999997 322.85086622160054, 16.57 322.59886622160053 C 16.334000000000003 322.3468662216005, 16.209333333333333 322.0008662216006, 16.196 321.5608662216006 Z M 18.084 323.0368662216006 L 18.084 322.1448662216006 C 18.268 322.09153288826724, 18.366666666666667 321.9675328882672, 18.38 321.77286622160057 C 18.398666666666667 321.30619955493387, 18.410666666666668 320.8575328882672, 18.416 320.42686622160056 C 18.421333333333333 319.9961995549339, 18.421333333333333 319.5655328882672, 18.416 319.13486622160053 C 18.410666666666668 318.7041995549339, 18.398666666666667 318.2515328882672, 18.38 317.7768662216005 C 18.374666666666666 317.5821995549339, 18.276 317.4555328882672, 18.084 317.39686622160053 L 18.084 316.50886622160056 C 18.513333333333335 316.5488662216006, 18.846666666666668 316.6941995549339, 19.084 316.94486622160053 C 19.321333333333335 317.1955328882672, 19.445333333333334 317.5408662216006, 19.456 317.98086622160054 C 19.46666666666667 318.2955328882672, 19.474666666666668 318.60553288826725, 19.48 318.91086622160054 C 19.485333333333333 319.2161995549339, 19.488 319.51686622160054, 19.488 319.81286622160053 C 19.488 320.1088662216005, 19.485333333333333 320.4021995549339, 19.48 320.6928662216006 C 19.474666666666668 320.98353288826723, 19.46666666666667 321.27286622160057, 19.456 321.5608662216006 C 19.439999999999998 322.01153288826725, 19.311999999999998 322.3601995549339, 19.072 322.60686622160057 C 18.832 322.85353288826724, 18.502666666666666 322.9968662216006, 18.084 323.0368662216006 Z M 21.944 322.97286622160055 L 21.944 316.5728662216006 L 23.003999999999998 316.5728662216006 L 23.003999999999998 322.97286622160055 Z " stroke="none" fill-rule="nonzero" fill="#000000" fill-opacity="1" transform="matrix(1,0,0,1,5.05,13.314)" id="text20 l" />
  <path d="M 0 315.90354456606053 L 10 315.90354456606053 L 10 317.40354456606053 L 0 317.40354456606053 Z " stroke="none" fill-rule="evenodd" fill="#000000" fill-opacity="1" transform="matrix(1,0,0,1,5.05,13.314)" id="mark21 l" />
  <path d="M 0 307.78422291052055 L 10 307.78422291052055 L 10 309.28422291052055 L 0 309.28422291052055 Z " stroke="none" fill-rule="evenodd" fill="#000000" fill-opacity="1" transform="matrix(1,0,0,1,5.05,13.314)" id="mark22 l" />
  <path d="M 0 299.6649012549805 L 10 299.6649012549805 L 10 301.1649012549805 L 0 301.1649012549805 Z " stroke="none" fill-rule="evenodd" fill="#000000" fill-opacity="1" transform="matrix(1,0,0,1,5.05,13.314)" id="mark23 l" />
  <path d="M 0 291.54557959944054 L 10 291.54557959944054 L 10 293.04557959944054 L 0 293.04557959944054 Z " stroke="none" fill-rule="evenodd" fill="#000000" fill-opacity="1" transform="matrix(1,0,0,1,5.05,13.314)" id="mark24 l" />
  <path d="M 0 283.4262579439005 L 25 283.4262579439005 L 25 284.9262579439005 L 0 284.9262579439005 Z " stroke="none" fill-rule="evenodd" fill="#000000" fill-opacity="1" transform="matrix(1,0,0,1,5.05,13.314)" id="mark25 l" />
  <path d="M 12.328 282.3762579439005 C 12.325333333333333 282.2775912772338, 12.323333333333332 282.18892461056714, 12.322 282.1102579439005 C 12.320666666666666 282.0315912772338, 12.319333333333333 281.9575912772338, 12.318 281.8882579439005 C 12.316666666666666 281.8189246105672, 12.315999999999999 281.7469246105672, 12.316 281.6722579439005 C 12.315999999999999 281.59759127723385, 12.315999999999999 281.5129246105672, 12.316 281.41825794390047 C 12.315999999999999 281.32359127723385, 12.317333333333334 281.2122579439005, 12.32 281.0842579439005 C 12.328 280.7909246105672, 12.378 280.5289246105672, 12.47 280.2982579439005 C 12.562000000000001 280.0675912772339, 12.696 279.86159127723386, 12.872 279.6802579439005 C 13.048 279.49892461056714, 13.265333333333334 279.3375912772338, 13.524000000000001 279.1962579439005 L 14.056000000000001 278.9082579439005 C 14.242666666666668 278.80692461056714, 14.362000000000002 278.6849246105671, 14.414 278.5422579439005 C 14.466000000000001 278.39959127723387, 14.495999999999999 278.26559127723385, 14.504 278.1402579439005 C 14.514666666666667 277.9935912772338, 14.520666666666667 277.83692461056717, 14.522 277.6702579439005 C 14.523333333333333 277.5035912772338, 14.520000000000001 277.34692461056716, 14.512 277.2002579439005 C 14.506666666666666 277.0962579439005, 14.476666666666667 277.0102579439005, 14.422 276.9422579439005 C 14.367333333333335 276.8742579439005, 14.288 276.8255912772338, 14.184000000000001 276.7962579439005 L 14.184000000000001 275.9082579439005 C 14.672 275.94025794390046, 15.022000000000002 276.0715912772338, 15.234 276.3022579439005 C 15.446000000000002 276.5329246105672, 15.562666666666667 276.89359127723384, 15.584 277.3842579439005 C 15.586666666666668 277.4482579439005, 15.588666666666668 277.51359127723384, 15.59 277.5802579439005 C 15.591333333333335 277.64692461056717, 15.592000000000002 277.7115912772338, 15.592 277.7742579439005 C 15.592000000000002 277.83692461056717, 15.591333333333335 277.8989246105672, 15.59 277.9602579439005 C 15.588666666666668 278.0215912772338, 15.586666666666668 278.0815912772338, 15.584 278.1402579439005 C 15.573333333333332 278.4255912772338, 15.52 278.6722579439005, 15.424 278.8802579439005 C 15.328 279.0882579439005, 15.197999999999999 279.2682579439005, 15.033999999999999 279.4202579439005 C 14.87 279.57225794390047, 14.68 279.7082579439005, 14.464 279.8282579439005 L 13.86 280.15625794390047 C 13.745333333333335 280.21759127723385, 13.655333333333335 280.30159127723385, 13.59 280.4082579439005 C 13.524666666666668 280.51492461056716, 13.478000000000002 280.6282579439005, 13.45 280.7482579439005 C 13.422 280.8682579439005, 13.408 280.98025794390054, 13.408 281.0842579439005 L 13.408 282.3762579439005 Z M 12.336 278.3362579439005 C 12.330666666666666 278.2189246105671, 12.326666666666664 278.1042579439005, 12.324 277.9922579439005 C 12.321333333333332 277.88025794390046, 12.319333333333333 277.77425794390047, 12.318 277.6742579439005 C 12.316666666666666 277.57425794390053, 12.317333333333334 277.47759127723384, 12.32 277.3842579439005 C 12.338666666666668 276.8962579439005, 12.455333333333336 276.53692461056716, 12.67 276.3062579439005 C 12.884666666666668 276.07559127723385, 13.221333333333334 275.94292461056716, 13.68 275.9082579439005 L 13.68 276.8002579439005 C 13.584 276.8295912772338, 13.513333333333332 276.87625794390055, 13.468 276.9402579439005 C 13.422666666666668 277.0042579439005, 13.398666666666667 277.0815912772338, 13.396 277.1722579439005 C 13.390666666666666 277.3802579439005, 13.387333333333332 277.57359127723385, 13.386 277.7522579439005 C 13.384666666666666 277.93092461056716, 13.389333333333333 278.12559127723387, 13.4 278.3362579439005 Z M 13.911999999999999 282.3762579439005 L 13.911999999999999 281.4442579439005 L 15.508 281.4442579439005 L 15.508 282.3762579439005 Z M 16.18 280.9602579439005 C 16.174666666666667 280.78692461056716, 16.173333333333332 280.64759127723386, 16.176 280.5422579439005 C 16.178666666666665 280.43692461056713, 16.181333333333335 280.33492461056716, 16.183999999999997 280.2362579439005 L 17.264 280.2362579439005 C 17.256 280.31359127723385, 17.25 280.40959127723386, 17.246 280.5242579439005 C 17.241999999999997 280.6389246105672, 17.240666666666666 280.74959127723383, 17.241999999999997 280.8562579439005 C 17.243333333333332 280.96292461056714, 17.246666666666666 281.0429246105672, 17.252 281.0962579439005 C 17.262666666666668 281.2162579439005, 17.297333333333334 281.3142579439005, 17.355999999999998 281.3902579439005 C 17.414666666666665 281.4662579439005, 17.497333333333334 281.52025794390045, 17.604 281.5522579439005 L 17.604 282.4442579439005 C 17.110666666666663 282.40692461056716, 16.75333333333333 282.2722579439005, 16.532 282.0402579439005 C 16.310666666666666 281.80825794390046, 16.19333333333333 281.4482579439005, 16.18 280.9602579439005 Z M 16.279999999999998 279.6242579439005 L 16.279999999999998 275.9762579439005 L 17.348 275.9762579439005 L 17.348 279.6242579439005 Z M 17.852 279.2002579439005 L 17.852 278.4442579439005 C 17.929333333333332 278.40425794390046, 18.014666666666667 278.3722579439005, 18.107999999999997 278.3482579439005 C 18.20133333333333 278.3242579439005, 18.301333333333332 278.3122579439005, 18.407999999999998 278.3122579439005 C 18.773333333333333 278.3122579439005, 19.047333333333334 278.42759127723383, 19.23 278.6582579439005 C 19.412666666666667 278.88892461056713, 19.514666666666663 279.20292461056715, 19.535999999999998 279.6002579439005 C 19.546666666666667 279.76025794390046, 19.55333333333333 279.91892461056716, 19.555999999999997 280.0762579439005 C 19.558666666666664 280.2335912772338, 19.557333333333332 280.3869246105671, 19.552 280.5362579439005 C 19.546666666666667 280.6855912772338, 19.538666666666668 280.8255912772338, 19.528 280.9562579439005 C 19.482666666666667 281.4549246105671, 19.353333333333335 281.82025794390046, 19.14 282.0522579439005 C 18.926666666666666 282.2842579439005, 18.581333333333333 282.41492461056714, 18.104 282.4442579439005 L 18.104 281.5522579439005 C 18.21333333333333 281.5229246105672, 18.296 281.4702579439005, 18.352 281.39425794390047 C 18.408 281.3182579439005, 18.44 281.21892461056717, 18.448 281.0962579439005 C 18.471999999999998 280.8055912772338, 18.485999999999997 280.5442579439005, 18.49 280.3122579439005 C 18.494 280.0802579439005, 18.485333333333333 279.85892461056716, 18.464 279.6482579439005 C 18.447999999999997 279.49359127723386, 18.396666666666665 279.3782579439005, 18.31 279.3022579439005 C 18.223333333333333 279.22625794390046, 18.090666666666664 279.1882579439005, 17.912 279.1882579439005 C 17.901333333333334 279.1882579439005, 17.890666666666668 279.18959127723383, 17.88 279.1922579439005 C 17.86933333333333 279.19492461056717, 17.86 279.19759127723387, 17.852 279.2002579439005 Z M 17.852 276.9082579439005 L 17.852 275.9762579439005 L 19.439999999999998 275.9762579439005 L 19.439999999999998 276.9082579439005 Z M 21.944 282.3762579439005 L 21.944 275.9762579439005 L 23.003999999999998 275.9762579439005 L 23.003999999999998 282.3762579439005 Z " stroke="none" fill-rule="nonzero" fill="#000000" fill-opacity="1" transform="matrix(1,0,0,1,5.05,13.314)" id="text25 l" />
  <path d="M 0 275.3069362883605 L 10 275.3069362883605 L 10 276.8069362883605 L 0 276.8069362883605 Z " stroke="none" fill-rule="evenodd" fill="#000000" fill-opacity="1" transform="matrix(1,0,0,1,5.05,13.314)" id="mark26 l" />
  <path d="M 0 267.18761463282044 L 10 267.18761463282044 L 10 268.68761463282044 L 0 268.68761463282044 Z " stroke="none" fill-rule="evenodd" fill="#000000" fill-opacity="1" transform="matrix(1,0,0,1,5.05,13.314)" id="mark27 l" />
  <path d="M 0 259.06829297728046 L 10 259.06829297728046 L 10 260.56829297728046 L 0 260.56829297728046 Z " stroke="none" fill-rule="evenodd" fill="#000000" fill-opacity="1" transform="matrix(1,0,0,1,5.05,13.314)" id="mark28 l" />
  <path d="M 0 250.94897132174046 L 10 250.94897132174046 L 10 252.44897132174046 L 0 252.44897132174046 Z " stroke="none" fill-rule="evenodd" fill="#000000" fill-opacity="1" transform="matrix(1,0,0,1,5.05,13.314)" id="mark29 l" />
  <path d="M 0 242.82964966620042 L 25 242.82964966620042 L 25 244.32964966620042 L 0 244.32964966620042 Z " stroke="none" fill-rule="evenodd" fill="#000000" fill-opacity="1" transform="matrix(1,0,0,1,5.05,13.314)" id="mark30 l" />
  <path d="M 12.223999999999998 240.36364966620044 C 12.221333333333334 240.2623163328671, 12.219333333333333 240.1783163328671, 12.218 240.11164966620044 C 12.216666666666667 240.04498299953377, 12.216666666666667 239.9769829995338, 12.218 239.90764966620043 C 12.219333333333333 239.83831633286712, 12.221333333333334 239.74898299953378, 12.223999999999998 239.63964966620046 L 13.303999999999998 239.63964966620046 L 13.303999999999998 240.50364966620043 C 13.303999999999998 240.7409829995338, 13.417333333333332 240.89164966620046, 13.643999999999998 240.95564966620043 L 13.643999999999998 241.84764966620045 C 13.155999999999999 241.8103163328671, 12.800666666666665 241.67564966620046, 12.578 241.44364966620043 C 12.355333333333334 241.21164966620046, 12.237333333333332 240.85164966620044, 12.223999999999998 240.36364966620044 Z M 12.292 236.31164966620045 L 12.292 235.37964966620044 L 15.536 235.37964966620044 L 15.536 236.31164966620045 Z M 14.143999999999998 240.95964966620045 C 14.367999999999999 240.90364966620047, 14.483999999999998 240.7529829995338, 14.491999999999999 240.50764966620045 C 14.497333333333334 240.30498299953376, 14.500666666666666 240.12231633286711, 14.501999999999999 239.95964966620045 C 14.503333333333332 239.79698299953378, 14.498666666666665 239.63964966620046, 14.488 239.48764966620044 C 14.48 239.33031633286714, 14.431999999999999 239.1969829995338, 14.344 239.08764966620043 C 14.256 238.9783163328671, 14.089333333333332 238.9263163328671, 13.844 238.93164966620043 L 13.096 238.93964966620044 L 13.068 238.04764966620044 L 14.027999999999999 236.66364966620046 L 15.216 236.66364966620046 L 14.248 238.01564966620043 L 14.28 238.01564966620043 C 14.712 238.01564966620043, 15.028666666666666 238.13831633286713, 15.229999999999999 238.38364966620045 C 15.431333333333333 238.62898299953378, 15.544 239.00631633286713, 15.568 239.51564966620043 C 15.57333333333333 239.58764966620043, 15.576666666666664 239.65964966620044, 15.578 239.73164966620044 C 15.57933333333333 239.80364966620044, 15.579999999999998 239.87431633286712, 15.579999999999998 239.94364966620043 C 15.579999999999998 240.0129829995338, 15.57933333333333 240.08231633286712, 15.578 240.15164966620046 C 15.576666666666664 240.2209829995338, 15.57333333333333 240.29164966620044, 15.568 240.36364966620044 C 15.549333333333333 240.85964966620043, 15.428666666666665 241.2243163328671, 15.206 241.45764966620044 C 14.983333333333334 241.6909829995338, 14.630666666666666 241.82098299953378, 14.148 241.84764966620045 Z M 16.196 240.36764966620044 C 16.188000000000002 239.9383163328671, 16.182666666666666 239.52164966620046, 16.18 239.11764966620044 C 16.177333333333333 238.71364966620047, 16.177999999999997 238.3183163328671, 16.182 237.93164966620043 C 16.186 237.54498299953377, 16.190666666666665 237.16364966620046, 16.196 236.78764966620045 C 16.209333333333333 236.34764966620043, 16.334000000000003 236.0023163328671, 16.57 235.75164966620045 C 16.805999999999997 235.5009829995338, 17.142666666666663 235.35564966620046, 17.58 235.31564966620044 L 17.58 236.20364966620045 C 17.382666666666665 236.25964966620046, 17.281333333333333 236.3889829995338, 17.276 236.59164966620045 C 17.262666666666668 236.96231633286712, 17.253333333333334 237.3103163328671, 17.248 237.63564966620044 C 17.242666666666665 237.96098299953377, 17.24 238.27764966620043, 17.24 238.58564966620045 C 17.24 238.89364966620042, 17.242666666666665 239.2083163328671, 17.248 239.52964966620044 C 17.253333333333334 239.85098299953378, 17.262666666666668 240.19431633286712, 17.276 240.55964966620044 C 17.281333333333333 240.76764966620044, 17.382666666666665 240.89964966620045, 17.58 240.95564966620043 L 17.58 241.84364966620043 C 17.142666666666663 241.80364966620044, 16.805999999999997 241.65764966620043, 16.57 241.40564966620045 C 16.334000000000003 241.1536496662004, 16.209333333333333 240.8076496662004, 16.196 240.36764966620044 Z M 18.084 241.84364966620043 L 18.084 240.95164966620044 C 18.268 240.89831633286713, 18.366666666666667 240.7743163328671, 18.38 240.57964966620045 C 18.398666666666667 240.11298299953376, 18.410666666666668 239.6643163328671, 18.416 239.23364966620045 C 18.421333333333333 238.80298299953375, 18.421333333333333 238.37231633286711, 18.416 237.94164966620045 C 18.410666666666668 237.51098299953378, 18.398666666666667 237.0583163328671, 18.38 236.58364966620044 C 18.374666666666666 236.38898299953377, 18.276 236.2623163328671, 18.084 236.20364966620045 L 18.084 235.31564966620044 C 18.513333333333335 235.35564966620046, 18.846666666666668 235.5009829995338, 19.084 235.75164966620045 C 19.321333333333335 236.0023163328671, 19.445333333333334 236.34764966620043, 19.456 236.78764966620045 C 19.46666666666667 237.10231633286708, 19.474666666666668 237.41231633286708, 19.48 237.71764966620043 C 19.485333333333333 238.02298299953378, 19.488 238.32364966620042, 19.488 238.61964966620044 C 19.488 238.91564966620047, 19.485333333333333 239.20898299953376, 19.48 239.49964966620044 C 19.474666666666668 239.79031633286712, 19.46666666666667 240.07964966620045, 19.456 240.36764966620044 C 19.439999999999998 240.81831633286708, 19.311999999999998 241.1669829995338, 19.072 241.41364966620043 C 18.832 241.66031633286713, 18.502666666666666 241.80364966620044, 18.084 241.84364966620043 Z M 21.944 241.77964966620044 L 21.944 235.37964966620044 L 23.003999999999998 235.37964966620044 L 23.003999999999998 241.77964966620044 Z " stroke="none" fill-rule="nonzero" fill="#000000" fill-opacity="1" transform="matrix(1,0,0,1,5.05,13.314)" id="text30 l" />
  <path d="M 0 234.71032801066042 L 10 234.71032801066042 L 10 236.21032801066042 L 0 236.21032801066042 Z " stroke="none" fill-rule="evenodd" fill="#000000" fill-opacity="1" transform="matrix(1,0,0,1,5.05,13.314)" id="mark31 l" />
  <path d="M 0 226.59100635512038 L 10 226.59100635512038 L 10 228.09100635512038 L 0 228.09100635512038 Z " stroke="none" fill-rule="evenodd" fill="#000000" fill-opacity="1" transform="matrix(1,0,0,1,5.05,13.314)" id="mark32 l" />
  <path d="M 0 218.4716846995804 L 10 218.4716846995804 L 10 219.9716846995804 L 0 219.9716846995804 Z " stroke="none" fill-rule="evenodd" fill="#000000" fill-opacity="1" transform="matrix(1,0,0,1,5.05,13.314)" id="mark33 l" />
  <path d="M 0 210.35236304404037 L 10 210.35236304404037 L 10 211.85236304404037 L 0 211.85236304404037 Z " stroke="none" fill-rule="evenodd" fill="#000000" fill-opacity="1" transform="matrix(1,0,0,1,5.05,13.314)" id="mark34 l" />
  <path d="M 0 202.2330413885004 L 25 202.2330413885004 L 25 203.7330413885004 L 0 203.7330413885004 Z " stroke="none" fill-rule="evenodd" fill="#000000" fill-opacity="1" transform="matrix(1,0,0,1,5.05,13.314)" id="mark35 l" />
  <path d="M 12.232 199.7350413885004 C 12.229333333333333 199.63370805516706, 12.227333333333334 199.54970805516706, 12.226 199.4830413885004 C 12.224666666666668 199.41637472183373, 12.224666666666668 199.34837472183372, 12.226 199.2790413885004 C 12.227333333333334 199.20970805516706, 12.229333333333333 199.12037472183374, 12.232 199.01104138850042 L 13.312 199.01104138850042 L 13.312 199.8750413885004 C 13.312 200.11237472183373, 13.425333333333333 200.2630413885004, 13.652 200.3270413885004 L 13.652 201.21904138850041 C 13.164 201.18170805516706, 12.808666666666667 201.0470413885004, 12.586 200.8150413885004 C 12.363333333333333 200.5830413885004, 12.245333333333335 200.2230413885004, 12.232 199.7350413885004 Z M 12.3 195.6830413885004 L 12.3 194.7510413885004 L 15.544 194.7510413885004 L 15.544 195.6830413885004 Z M 14.152000000000001 200.3310413885004 C 14.376000000000001 200.27504138850043, 14.492 200.12437472183376, 14.5 199.8790413885004 C 14.505333333333333 199.67637472183372, 14.508666666666667 199.49370805516708, 14.51 199.3310413885004 C 14.511333333333333 199.16837472183374, 14.506666666666668 199.01104138850042, 14.496 198.8590413885004 C 14.488 198.70170805516705, 14.440000000000001 198.56837472183372, 14.352 198.4590413885004 C 14.264 198.34970805516707, 14.097333333333335 198.29770805516708, 13.852 198.3030413885004 L 13.104 198.3110413885004 L 13.076 197.4190413885004 L 14.036 196.03504138850042 L 15.224 196.03504138850042 L 14.256 197.3870413885004 L 14.288 197.3870413885004 C 14.719999999999999 197.3870413885004, 15.036666666666665 197.50970805516704, 15.238 197.75504138850042 C 15.439333333333334 198.00037472183374, 15.552 198.3777080551671, 15.576 198.8870413885004 C 15.581333333333333 198.9590413885004, 15.584666666666667 199.0310413885004, 15.586 199.1030413885004 C 15.587333333333333 199.1750413885004, 15.588000000000001 199.24570805516706, 15.588000000000001 199.3150413885004 C 15.588000000000001 199.38437472183372, 15.587333333333333 199.45370805516706, 15.586 199.52304138850042 C 15.584666666666667 199.59237472183372, 15.581333333333333 199.6630413885004, 15.576 199.7350413885004 C 15.557333333333334 200.2310413885004, 15.436666666666667 200.59570805516705, 15.214 200.8290413885004 C 14.991333333333333 201.06237472183375, 14.638666666666666 201.19237472183374, 14.156 201.21904138850041 Z M 16.18 199.7350413885004 C 16.174666666666667 199.56170805516706, 16.173333333333332 199.42237472183376, 16.176 199.3170413885004 C 16.178666666666665 199.2117080551671, 16.181333333333335 199.10970805516706, 16.183999999999997 199.01104138850042 L 17.264 199.01104138850042 C 17.256 199.08837472183376, 17.25 199.18437472183376, 17.246 199.2990413885004 C 17.241999999999997 199.4137080551671, 17.240666666666666 199.52437472183374, 17.241999999999997 199.6310413885004 C 17.243333333333332 199.73770805516705, 17.246666666666666 199.81770805516703, 17.252 199.8710413885004 C 17.262666666666668 199.99104138850038, 17.297333333333334 200.0890413885004, 17.355999999999998 200.1650413885004 C 17.414666666666665 200.24104138850038, 17.497333333333334 200.29504138850038, 17.604 200.3270413885004 L 17.604 201.21904138850041 C 17.110666666666663 201.18170805516706, 16.75333333333333 201.0470413885004, 16.532 200.8150413885004 C 16.310666666666666 200.5830413885004, 16.19333333333333 200.2230413885004, 16.18 199.7350413885004 Z M 16.279999999999998 198.3990413885004 L 16.279999999999998 194.7510413885004 L 17.348 194.7510413885004 L 17.348 198.3990413885004 Z M 17.852 197.97504138850041 L 17.852 197.21904138850041 C 17.929333333333332 197.17904138850042, 18.014666666666667 197.14704138850038, 18.107999999999997 197.1230413885004 C 18.20133333333333 197.09904138850038, 18.301333333333332 197.08704138850038, 18.407999999999998 197.0870413885004 C 18.773333333333333 197.08704138850038, 19.047333333333334 197.20237472183373, 19.23 197.4330413885004 C 19.412666666666667 197.66370805516706, 19.514666666666663 197.97770805516706, 19.535999999999998 198.3750413885004 C 19.546666666666667 198.5350413885004, 19.55333333333333 198.69370805516706, 19.555999999999997 198.8510413885004 C 19.558666666666664 199.00837472183372, 19.557333333333332 199.16170805516708, 19.552 199.3110413885004 C 19.546666666666667 199.46037472183372, 19.538666666666668 199.60037472183376, 19.528 199.73104138850042 C 19.482666666666667 200.22970805516707, 19.353333333333335 200.59504138850042, 19.14 200.8270413885004 C 18.926666666666666 201.05904138850042, 18.581333333333333 201.18970805516707, 18.104 201.21904138850041 L 18.104 200.3270413885004 C 18.21333333333333 200.29770805516708, 18.296 200.2450413885004, 18.352 200.1690413885004 C 18.408 200.0930413885004, 18.44 199.99370805516708, 18.448 199.8710413885004 C 18.471999999999998 199.58037472183372, 18.485999999999997 199.3190413885004, 18.49 199.0870413885004 C 18.494 198.8550413885004, 18.485333333333333 198.63370805516706, 18.464 198.4230413885004 C 18.447999999999997 198.2683747218337, 18.396666666666665 198.15304138850038, 18.31 198.0770413885004 C 18.223333333333333 198.0010413885004, 18.090666666666664 197.96304138850041, 17.912 197.96304138850041 C 17.901333333333334 197.96304138850041, 17.890666666666668 197.96437472183374, 17.88 197.9670413885004 C 17.86933333333333 197.96970805516708, 17.86 197.97237472183375, 17.852 197.97504138850041 Z M 17.852 195.6830413885004 L 17.852 194.7510413885004 L 19.439999999999998 194.7510413885004 L 19.439999999999998 195.6830413885004 Z M 21.944 201.1510413885004 L 21.944 194.7510413885004 L 23.003999999999998 194.7510413885004 L 23.003999999999998 201.1510413885004 Z " stroke="none" fill-rule="nonzero" fill="#000000" fill-opacity="1" transform="matrix(1,0,0,1,5.05,13.314)" id="text35 l" />
  <path d="M 0 194.11371973296036 L 10 194.11371973296036 L 10 195.61371973296036 L 0 195.61371973296036 Z " stroke="none" fill-rule="evenodd" fill="#000000" fill-opacity="1" transform="matrix(1,0,0,1,5.05,13.314)" id="mark36 l" />
  <path d="M 0 185.99439807742033 L 10 185.99439807742033 L 10 187.49439807742033 L 0 187.49439807742033 Z " stroke="none" fill-rule="evenodd" fill="#000000" fill-opacity="1" transform="matrix(1,0,0,1,5.05,13.314)" id="mark37 l" />
  <path d="M 0 177.87507642188035 L 10 177.87507642188035 L 10 179.37507642188035 L 0 179.37507642188035 Z " stroke="none" fill-rule="evenodd" fill="#000000" fill-opacity="1" transform="matrix(1,0,0,1,5.05,13.314)" id="mark38 l" />
  <path d="M 0 169.75575476634032 L 10 169.75575476634032 L 10 171.25575476634032 L 0 171.25575476634032 Z " stroke="none" fill-rule="evenodd" fill="#000000" fill-opacity="1" transform="matrix(1,0,0,1,5.05,13.314)" id="mark39 l" />
  <path d="M 0 161.63643311080028 L 25 161.63643311080028 L 25 163.13643311080028 L 0 163.13643311080028 Z " stroke="none" fill-rule="evenodd" fill="#000000" fill-opacity="1" transform="matrix(1,0,0,1,5.05,13.314)" id="mark40 l" />
  <path d="M 11.739999999999998 158.9024331108003 L 11.739999999999998 158.0264331108003 L 12.455999999999998 156.1464331108003 L 13.495999999999999 156.1464331108003 L 12.771999999999998 157.9784331108003 L 13.171999999999997 157.9784331108003 L 13.171999999999997 158.9024331108003 Z M 13.675999999999998 160.5864331108003 L 13.675999999999998 154.1864331108003 L 14.683999999999997 154.1864331108003 L 14.683999999999997 160.5864331108003 Z M 15.187999999999999 158.9024331108003 L 15.187999999999999 157.9784331108003 L 15.655999999999999 157.9784331108003 L 15.655999999999999 158.9024331108003 Z M 16.195999999999998 159.1744331108003 C 16.188 158.74509977746695, 16.182666666666666 158.3284331108003, 16.18 157.9244331108003 C 16.177333333333333 157.5204331108003, 16.177999999999997 157.12509977746697, 16.182 156.7384331108003 C 16.186 156.35176644413363, 16.190666666666665 155.97043311080031, 16.195999999999998 155.5944331108003 C 16.20933333333333 155.1544331108003, 16.333999999999996 154.809099777467, 16.569999999999997 154.5584331108003 C 16.805999999999997 154.30776644413362, 17.142666666666663 154.1624331108003, 17.58 154.1224331108003 L 17.58 155.0104331108003 C 17.382666666666665 155.0664331108003, 17.281333333333333 155.19576644413365, 17.275999999999996 155.3984331108003 C 17.262666666666664 155.76909977746698, 17.25333333333333 156.11709977746696, 17.247999999999998 156.4424331108003 C 17.242666666666665 156.76776644413363, 17.24 157.0844331108003, 17.24 157.3924331108003 C 17.24 157.7004331108003, 17.242666666666665 158.01509977746696, 17.247999999999998 158.3364331108003 C 17.25333333333333 158.65776644413364, 17.262666666666664 159.00109977746695, 17.275999999999996 159.3664331108003 C 17.281333333333333 159.57443311080033, 17.382666666666665 159.7064331108003, 17.58 159.7624331108003 L 17.58 160.6504331108003 C 17.142666666666663 160.61043311080027, 16.805999999999997 160.4644331108003, 16.569999999999997 160.2124331108003 C 16.333999999999996 159.9604331108003, 16.20933333333333 159.6144331108003, 16.195999999999998 159.1744331108003 Z M 18.084 160.6504331108003 L 18.084 159.7584331108003 C 18.268 159.70509977746698, 18.366666666666667 159.581099777467, 18.38 159.3864331108003 C 18.398666666666664 158.91976644413364, 18.410666666666664 158.47109977746697, 18.415999999999997 158.0404331108003 C 18.42133333333333 157.60976644413364, 18.42133333333333 157.17909977746697, 18.415999999999997 156.7484331108003 C 18.410666666666664 156.31776644413364, 18.398666666666664 155.86509977746698, 18.38 155.3904331108003 C 18.374666666666666 155.19576644413365, 18.276 155.069099777467, 18.084 155.0104331108003 L 18.084 154.1224331108003 C 18.513333333333332 154.1624331108003, 18.846666666666664 154.30776644413362, 19.083999999999996 154.5584331108003 C 19.32133333333333 154.809099777467, 19.44533333333333 155.1544331108003, 19.456 155.5944331108003 C 19.466666666666665 155.90909977746696, 19.474666666666664 156.21909977746697, 19.479999999999997 156.5244331108003 C 19.48533333333333 156.8297664441336, 19.488 157.13043311080028, 19.488 157.4264331108003 C 19.488 157.7224331108003, 19.48533333333333 158.01576644413362, 19.479999999999997 158.3064331108003 C 19.474666666666664 158.59709977746698, 19.466666666666665 158.8864331108003, 19.456 159.1744331108003 C 19.439999999999998 159.62509977746697, 19.311999999999998 159.97376644413364, 19.072 160.2204331108003 C 18.831999999999997 160.46709977746696, 18.502666666666663 160.61043311080027, 18.084 160.6504331108003 Z M 21.944 160.5864331108003 L 21.944 154.1864331108003 L 23.003999999999998 154.1864331108003 L 23.003999999999998 160.5864331108003 Z " stroke="none" fill-rule="nonzero" fill="#000000" fill-opacity="1" transform="matrix(1,0,0,1,5.05,13.314)" id="text40 l" />
  <path d="M 0 153.5171114552603 L 10 153.5171114552603 L 10 155.0171114552603 L 0 155.0171114552603 Z " stroke="none" fill-rule="evenodd" fill="#000000" fill-opacity="1" transform="matrix(1,0,0,1,5.05,13.314)" id="mark41 l" />
  <path d="M 0 145.39778979972027 L 10 145.39778979972027 L 10 146.89778979972027 L 0 146.89778979972027 Z " stroke="none" fill-rule="evenodd" fill="#000000" fill-opacity="1" transform="matrix(1,0,0,1,5.05,13.314)" id="mark42 l" />
  <path d="M 0 137.27846814418024 L 10 137.27846814418024 L 10 138.77846814418024 L 0 138.77846814418024 Z " stroke="none" fill-rule="evenodd" fill="#000000" fill-opacity="1" transform="matrix(1,0,0,1,5.05,13.314)" id="mark43 l" />
  <path d="M 0 129.15914648864026 L 10 129.15914648864026 L 10 130.65914648864026 L 0 130.65914648864026 Z " stroke="none" fill-rule="evenodd" fill="#000000" fill-opacity="1" transform="matrix(1,0,0,1,5.05,13.314)" id="mark44 l" />
  <path d="M 0 121.03982483310023 L 25 121.03982483310023 L 25 122.53982483310023 L 0 122.53982483310023 Z " stroke="none" fill-rule="evenodd" fill="#000000" fill-opacity="1" transform="matrix(1,0,0,1,5.05,13.314)" id="mark45 l" />
  <path d="M 11.748 118.27382483310024 L 11.748 117.39782483310023 L 12.463999999999999 115.51782483310024 L 13.503999999999998 115.51782483310024 L 12.78 117.34982483310023 L 13.18 117.34982483310023 L 13.18 118.27382483310024 Z M 13.684 119.95782483310023 L 13.684 113.55782483310023 L 14.691999999999998 113.55782483310023 L 14.691999999999998 119.95782483310023 Z M 15.195999999999998 118.27382483310024 L 15.195999999999998 117.34982483310023 L 15.663999999999998 117.34982483310023 L 15.663999999999998 118.27382483310024 Z M 16.18 118.54182483310024 C 16.174666666666667 118.36849149976689, 16.173333333333332 118.22915816643356, 16.176 118.12382483310023 C 16.178666666666665 118.0184914997669, 16.181333333333335 117.91649149976689, 16.183999999999997 117.81782483310023 L 17.264 117.81782483310023 C 17.256 117.89515816643356, 17.25 117.99115816643356, 17.246 118.10582483310023 C 17.241999999999997 118.2204914997669, 17.240666666666666 118.33115816643357, 17.241999999999997 118.43782483310024 C 17.243333333333332 118.5444914997669, 17.246666666666666 118.62449149976689, 17.252 118.67782483310023 C 17.262666666666668 118.79782483310024, 17.297333333333334 118.89582483310022, 17.355999999999998 118.97182483310023 C 17.414666666666665 119.04782483310024, 17.497333333333334 119.10182483310024, 17.604 119.13382483310023 L 17.604 120.02582483310023 C 17.110666666666663 119.9884914997669, 16.75333333333333 119.85382483310022, 16.532 119.62182483310023 C 16.310666666666666 119.38982483310022, 16.19333333333333 119.02982483310024, 16.18 118.54182483310024 Z M 16.279999999999998 117.20582483310024 L 16.279999999999998 113.55782483310023 L 17.348 113.55782483310023 L 17.348 117.20582483310024 Z M 17.852 116.78182483310023 L 17.852 116.02582483310023 C 17.929333333333332 115.98582483310022, 18.014666666666667 115.95382483310024, 18.107999999999997 115.92982483310023 C 18.20133333333333 115.90582483310024, 18.301333333333332 115.89382483310024, 18.407999999999998 115.89382483310024 C 18.773333333333333 115.89382483310024, 19.047333333333334 116.00915816643356, 19.23 116.23982483310023 C 19.412666666666667 116.4704914997669, 19.514666666666663 116.78449149976689, 19.535999999999998 117.18182483310024 C 19.546666666666667 117.34182483310022, 19.55333333333333 117.5004914997669, 19.555999999999997 117.65782483310024 C 19.558666666666664 117.81515816643358, 19.557333333333332 117.96849149976691, 19.552 118.11782483310023 C 19.546666666666667 118.26715816643357, 19.538666666666668 118.40715816643356, 19.528 118.53782483310023 C 19.482666666666667 119.0364914997669, 19.353333333333335 119.40182483310025, 19.14 119.63382483310023 C 18.926666666666666 119.86582483310025, 18.581333333333333 119.9964914997669, 18.104 120.02582483310023 L 18.104 119.13382483310023 C 18.21333333333333 119.10449149976691, 18.296 119.05182483310023, 18.352 118.97582483310023 C 18.408 118.89982483310024, 18.44 118.8004914997669, 18.448 118.67782483310023 C 18.471999999999998 118.38715816643358, 18.485999999999997 118.12582483310024, 18.49 117.89382483310024 C 18.494 117.66182483310024, 18.485333333333333 117.44049149976689, 18.464 117.22982483310024 C 18.447999999999997 117.07515816643357, 18.396666666666665 116.95982483310024, 18.31 116.88382483310023 C 18.223333333333333 116.80782483310023, 18.090666666666664 116.76982483310024, 17.912 116.76982483310023 C 17.901333333333334 116.76982483310024, 17.890666666666668 116.77115816643357, 17.88 116.77382483310024 C 17.86933333333333 116.7764914997669, 17.86 116.77915816643356, 17.852 116.78182483310023 Z M 17.852 114.48982483310023 L 17.852 113.55782483310023 L 19.439999999999998 113.55782483310023 L 19.439999999999998 114.48982483310023 Z M 21.944 119.95782483310023 L 21.944 113.55782483310023 L 23.003999999999998 113.55782483310023 L 23.003999999999998 119.95782483310023 Z " stroke="none" fill-rule="nonzero" fill="#000000" fill-opacity="1" transform="matrix(1,0,0,1,5.05,13.314)" id="text45 l" />
  <path d="M 0 112.92050317756019 L 10 112.92050317756019 L 10 114.42050317756019 L 0 114.42050317756019 Z " stroke="none" fill-rule="evenodd" fill="#000000" fill-opacity="1" transform="matrix(1,0,0,1,5.05,13.314)" id="mark46 l" />
  <path d="M 0 104.80118152202022 L 10 104.80118152202022 L 10 106.30118152202022 L 0 106.30118152202022 Z " stroke="none" fill-rule="evenodd" fill="#000000" fill-opacity="1" transform="matrix(1,0,0,1,5.05,13.314)" id="mark47 l" />
  <path d="M 0 96.68185986648018 L 10 96.68185986648018 L 10 98.18185986648018 L 0 98.18185986648018 Z " stroke="none" fill-rule="evenodd" fill="#000000" fill-opacity="1" transform="matrix(1,0,0,1,5.05,13.314)" id="mark48 l" />
  <path d="M 0 88.5625382109402 L 10 88.5625382109402 L 10 90.0625382109402 L 0 90.0625382109402 Z " stroke="none" fill-rule="evenodd" fill="#000000" fill-opacity="1" transform="matrix(1,0,0,1,5.05,13.314)" id="mark49 l" />
  <path d="M 0 80.44321655540017 L 25 80.44321655540017 L 25 81.94321655540017 L 0 81.94321655540017 Z " stroke="none" fill-rule="evenodd" fill="#000000" fill-opacity="1" transform="matrix(1,0,0,1,5.05,13.314)" id="mark50 l" />
  <path d="M 12.204 77.97721655540018 C 12.198666666666668 77.80388322206684, 12.197333333333333 77.6645498887335, 12.2 77.55921655540017 C 12.202666666666667 77.45388322206684, 12.205333333333336 77.35188322206683, 12.208 77.25321655540017 L 13.288 77.25321655540017 C 13.280000000000001 77.3305498887335, 13.274000000000001 77.4265498887335, 13.27 77.54121655540017 C 13.265999999999998 77.65588322206683, 13.264666666666667 77.7665498887335, 13.266 77.87321655540018 C 13.267333333333333 77.97988322206683, 13.270666666666667 78.05988322206684, 13.276 78.11321655540017 C 13.286666666666665 78.23321655540018, 13.321333333333332 78.33121655540018, 13.379999999999999 78.40721655540017 C 13.438666666666666 78.48321655540016, 13.521333333333335 78.53721655540016, 13.628 78.56921655540017 L 13.628 79.46121655540017 C 13.134666666666668 79.42388322206683, 12.777333333333335 79.28921655540017, 12.556 79.05721655540017 C 12.334666666666667 78.82521655540017, 12.217333333333332 78.46521655540018, 12.204 77.97721655540018 Z M 12.304 76.64121655540018 L 12.304 72.99321655540017 L 13.372 72.99321655540017 L 13.372 76.64121655540018 Z M 13.876 76.21721655540017 L 13.876 75.46121655540017 C 13.953333333333333 75.42121655540018, 14.038666666666668 75.38921655540017, 14.132 75.36521655540017 C 14.225333333333333 75.34121655540017, 14.325333333333333 75.32921655540017, 14.432 75.32921655540017 C 14.797333333333334 75.32921655540017, 15.071333333333332 75.4445498887335, 15.254 75.67521655540017 C 15.436666666666667 75.90588322206683, 15.538666666666668 76.21988322206684, 15.56 76.61721655540018 C 15.570666666666668 76.77721655540017, 15.577333333333334 76.93588322206683, 15.58 77.09321655540018 C 15.582666666666666 77.2505498887335, 15.581333333333333 77.40388322206684, 15.576 77.55321655540017 C 15.570666666666666 77.7025498887335, 15.562666666666665 77.84254988873352, 15.552 77.97321655540017 C 15.506666666666668 78.47188322206685, 15.377333333333333 78.83721655540018, 15.164 79.06921655540017 C 14.950666666666667 79.30121655540017, 14.605333333333332 79.43188322206684, 14.128 79.46121655540017 L 14.128 78.56921655540017 C 14.237333333333334 78.53988322206683, 14.32 78.48721655540018, 14.376 78.41121655540017 C 14.432 78.33521655540017, 14.464 78.23588322206683, 14.472 78.11321655540017 C 14.495999999999999 77.8225498887335, 14.509999999999998 77.56121655540018, 14.514 77.32921655540017 C 14.518 77.09721655540017, 14.509333333333334 76.87588322206683, 14.488 76.66521655540018 C 14.472000000000001 76.51054988873351, 14.420666666666666 76.39521655540017, 14.334 76.31921655540017 C 14.247333333333334 76.24321655540018, 14.114666666666666 76.20521655540017, 13.936 76.20521655540017 C 13.925333333333333 76.20521655540017, 13.914666666666665 76.2065498887335, 13.904 76.20921655540018 C 13.893333333333334 76.21188322206683, 13.884 76.2145498887335, 13.876 76.21721655540017 Z M 13.876 73.92521655540017 L 13.876 72.99321655540017 L 15.464 72.99321655540017 L 15.464 73.92521655540017 Z M 16.196 77.98121655540017 C 16.188000000000002 77.55188322206683, 16.182666666666666 77.13521655540018, 16.18 76.73121655540017 C 16.177333333333333 76.32721655540017, 16.177999999999997 75.93188322206684, 16.182 75.54521655540017 C 16.186 75.1585498887335, 16.190666666666665 74.77721655540017, 16.196 74.40121655540017 C 16.209333333333333 73.96121655540017, 16.334000000000003 73.61588322206683, 16.57 73.36521655540017 C 16.805999999999997 73.1145498887335, 17.142666666666663 72.96921655540018, 17.58 72.92921655540017 L 17.58 73.81721655540018 C 17.382666666666665 73.87321655540018, 17.281333333333333 74.00254988873351, 17.276 74.20521655540017 C 17.262666666666668 74.57588322206684, 17.253333333333334 74.92388322206683, 17.248 75.24921655540017 C 17.242666666666665 75.5745498887335, 17.24 75.89121655540016, 17.24 76.19921655540017 C 17.24 76.50721655540018, 17.242666666666665 76.82188322206684, 17.248 77.14321655540017 C 17.253333333333334 77.4645498887335, 17.262666666666668 77.80788322206683, 17.276 78.17321655540017 C 17.281333333333333 78.38121655540017, 17.382666666666665 78.51321655540016, 17.58 78.56921655540017 L 17.58 79.45721655540017 C 17.142666666666663 79.41721655540017, 16.805999999999997 79.27121655540017, 16.57 79.01921655540018 C 16.334000000000003 78.76721655540018, 16.209333333333333 78.42121655540018, 16.196 77.98121655540017 Z M 18.084 79.45721655540017 L 18.084 78.56521655540017 C 18.268 78.51188322206684, 18.366666666666667 78.38788322206683, 18.38 78.19321655540017 C 18.398666666666667 77.7265498887335, 18.410666666666668 77.27788322206683, 18.416 76.84721655540017 C 18.421333333333333 76.41654988873351, 18.421333333333333 75.98588322206685, 18.416 75.55521655540018 C 18.410666666666668 75.12454988873351, 18.398666666666667 74.67188322206684, 18.38 74.19721655540017 C 18.374666666666666 74.00254988873351, 18.276 73.87588322206685, 18.084 73.81721655540018 L 18.084 72.92921655540017 C 18.513333333333335 72.96921655540018, 18.846666666666668 73.1145498887335, 19.084 73.36521655540017 C 19.321333333333335 73.61588322206683, 19.445333333333334 73.96121655540017, 19.456 74.40121655540017 C 19.46666666666667 74.71588322206684, 19.474666666666668 75.02588322206684, 19.48 75.33121655540018 C 19.485333333333333 75.63654988873351, 19.488 75.93721655540017, 19.488 76.23321655540018 C 19.488 76.52921655540018, 19.485333333333333 76.8225498887335, 19.48 77.11321655540017 C 19.474666666666668 77.40388322206684, 19.46666666666667 77.69321655540017, 19.456 77.98121655540017 C 19.439999999999998 78.43188322206683, 19.311999999999998 78.7805498887335, 19.072 79.02721655540017 C 18.832 79.27388322206684, 18.502666666666666 79.41721655540017, 18.084 79.45721655540017 Z M 21.944 79.39321655540017 L 21.944 72.99321655540017 L 23.003999999999998 72.99321655540017 L 23.003999999999998 79.39321655540017 Z " stroke="none" fill-rule="nonzero" fill="#000000" fill-opacity="1" transform="matrix(1,0,0,1,5.05,13.314)" id="text50 l" />
  <path d="M 0 72.32389489986014 L 10 72.32389489986014 L 10 73.82389489986014 L 0 73.82389489986014 Z " stroke="none" fill-rule="evenodd" fill="#000000" fill-opacity="1" transform="matrix(1,0,0,1,5.05,13.314)" id="mark51 l" />
  <path d="M 0 64.20457324432016 L 10 64.20457324432016 L 10 65.70457324432016 L 0 65.70457324432016 Z " stroke="none" fill-rule="evenodd" fill="#000000" fill-opacity="1" transform="matrix(1,0,0,1,5.05,13.314)" id="mark52 l" />
  <path d="M 0 56.085251588780125 L 10 56.085251588780125 L 10 57.585251588780125 L 0 57.585251588780125 Z " stroke="none" fill-rule="evenodd" fill="#000000" fill-opacity="1" transform="matrix(1,0,0,1,5.05,13.314)" id="mark53 l" />
  <path d="M 0 47.96592993324009 L 10 47.96592993324009 L 10 49.46592993324009 L 0 49.46592993324009 Z " stroke="none" fill-rule="evenodd" fill="#000000" fill-opacity="1" transform="matrix(1,0,0,1,5.05,13.314)" id="mark54 l" />
  <path d="M 0 39.84660827770011 L 25 39.84660827770011 L 25 41.34660827770011 L 0 41.34660827770011 Z " stroke="none" fill-rule="evenodd" fill="#000000" fill-opacity="1" transform="matrix(1,0,0,1,5.05,13.314)" id="mark55 l" />
  <path d="M 12.212 37.348608277700116 C 12.206666666666667 37.17527494436678, 12.205333333333332 37.035941611033444, 12.207999999999998 36.93060827770011 C 12.210666666666667 36.82527494436678, 12.213333333333335 36.72327494436678, 12.216 36.62460827770011 L 13.296 36.62460827770011 C 13.288 36.70194161103345, 13.282 36.797941611033444, 13.277999999999999 36.912608277700116 C 13.273999999999997 37.02727494436678, 13.272666666666666 37.13794161103344, 13.274 37.24460827770011 C 13.275333333333332 37.35127494436678, 13.278666666666666 37.43127494436678, 13.283999999999999 37.48460827770011 C 13.294666666666664 37.60460827770011, 13.32933333333333 37.702608277700115, 13.387999999999998 37.778608277700116 C 13.446666666666665 37.854608277700116, 13.529333333333334 37.90860827770011, 13.636 37.940608277700115 L 13.636 38.83260827770011 C 13.142666666666667 38.79527494436678, 12.785333333333334 38.66060827770011, 12.563999999999998 38.428608277700114 C 12.342666666666666 38.196608277700115, 12.225333333333332 37.836608277700115, 12.212 37.348608277700116 Z M 12.312 36.01260827770011 L 12.312 32.364608277700114 L 13.379999999999999 32.364608277700114 L 13.379999999999999 36.01260827770011 Z M 13.883999999999999 35.58860827770011 L 13.883999999999999 34.83260827770011 C 13.961333333333332 34.79260827770011, 14.046666666666667 34.760608277700115, 14.139999999999999 34.736608277700114 C 14.233333333333333 34.71260827770011, 14.333333333333332 34.70060827770011, 14.44 34.70060827770011 C 14.805333333333333 34.70060827770011, 15.07933333333333 34.815941611033445, 15.261999999999999 35.046608277700116 C 15.444666666666667 35.27727494436678, 15.546666666666667 35.59127494436677, 15.568 35.98860827770011 C 15.578666666666667 36.148608277700106, 15.585333333333333 36.30727494436678, 15.588 36.464608277700115 C 15.590666666666666 36.62194161103345, 15.589333333333332 36.77527494436678, 15.584 36.92460827770011 C 15.578666666666665 37.07394161103345, 15.570666666666664 37.21394161103345, 15.559999999999999 37.34460827770011 C 15.514666666666667 37.84327494436678, 15.385333333333332 38.208608277700115, 15.171999999999999 38.440608277700115 C 14.958666666666666 38.672608277700114, 14.613333333333332 38.80327494436678, 14.136 38.83260827770011 L 14.136 37.940608277700115 C 14.245333333333333 37.91127494436678, 14.328 37.858608277700114, 14.383999999999999 37.78260827770011 C 14.44 37.70660827770011, 14.472 37.60727494436678, 14.479999999999999 37.48460827770011 C 14.503999999999998 37.193941611033445, 14.517999999999997 36.93260827770011, 14.521999999999998 36.70060827770011 C 14.526 36.46860827770011, 14.517333333333333 36.24727494436678, 14.495999999999999 36.03660827770011 C 14.48 35.88194161103345, 14.428666666666665 35.766608277700115, 14.341999999999999 35.690608277700115 C 14.255333333333333 35.614608277700114, 14.122666666666666 35.57660827770011, 13.943999999999999 35.57660827770011 C 13.933333333333332 35.57660827770011, 13.922666666666665 35.577941611033445, 13.911999999999999 35.580608277700115 C 13.901333333333334 35.58327494436678, 13.892 35.58594161103345, 13.883999999999999 35.58860827770011 Z M 13.883999999999999 33.296608277700116 L 13.883999999999999 32.364608277700114 L 15.472 32.364608277700114 L 15.472 33.296608277700116 Z M 16.18 37.348608277700116 C 16.174666666666667 37.17527494436678, 16.173333333333332 37.035941611033444, 16.176 36.93060827770011 C 16.178666666666665 36.82527494436678, 16.181333333333335 36.72327494436678, 16.183999999999997 36.62460827770011 L 17.264 36.62460827770011 C 17.256 36.70194161103345, 17.25 36.797941611033444, 17.246 36.912608277700116 C 17.241999999999997 37.02727494436678, 17.240666666666666 37.13794161103344, 17.241999999999997 37.24460827770011 C 17.243333333333332 37.35127494436678, 17.246666666666666 37.43127494436678, 17.252 37.48460827770011 C 17.262666666666668 37.60460827770011, 17.297333333333334 37.702608277700115, 17.355999999999998 37.778608277700116 C 17.414666666666665 37.854608277700116, 17.497333333333334 37.90860827770011, 17.604 37.940608277700115 L 17.604 38.83260827770011 C 17.110666666666663 38.79527494436678, 16.75333333333333 38.66060827770011, 16.532 38.428608277700114 C 16.310666666666666 38.196608277700115, 16.19333333333333 37.836608277700115, 16.18 37.348608277700116 Z M 16.279999999999998 36.01260827770011 L 16.279999999999998 32.364608277700114 L 17.348 32.364608277700114 L 17.348 36.01260827770011 Z M 17.852 35.58860827770011 L 17.852 34.83260827770011 C 17.929333333333332 34.79260827770011, 18.014666666666667 34.760608277700115, 18.107999999999997 34.736608277700114 C 18.20133333333333 34.71260827770011, 18.301333333333332 34.70060827770011, 18.407999999999998 34.70060827770011 C 18.773333333333333 34.70060827770011, 19.047333333333334 34.815941611033445, 19.23 35.046608277700116 C 19.412666666666667 35.27727494436678, 19.514666666666663 35.59127494436677, 19.535999999999998 35.98860827770011 C 19.546666666666667 36.148608277700106, 19.55333333333333 36.30727494436678, 19.555999999999997 36.464608277700115 C 19.558666666666664 36.62194161103345, 19.557333333333332 36.77527494436678, 19.552 36.92460827770011 C 19.546666666666667 37.07394161103345, 19.538666666666668 37.21394161103345, 19.528 37.34460827770011 C 19.482666666666667 37.84327494436678, 19.353333333333335 38.208608277700115, 19.14 38.440608277700115 C 18.926666666666666 38.672608277700114, 18.581333333333333 38.80327494436678, 18.104 38.83260827770011 L 18.104 37.940608277700115 C 18.21333333333333 37.91127494436678, 18.296 37.858608277700114, 18.352 37.78260827770011 C 18.408 37.70660827770011, 18.44 37.60727494436678, 18.448 37.48460827770011 C 18.471999999999998 37.193941611033445, 18.485999999999997 36.93260827770011, 18.49 36.70060827770011 C 18.494 36.46860827770011, 18.485333333333333 36.24727494436678, 18.464 36.03660827770011 C 18.447999999999997 35.88194161103345, 18.396666666666665 35.766608277700115, 18.31 35.690608277700115 C 18.223333333333333 35.614608277700114, 18.090666666666664 35.57660827770011, 17.912 35.57660827770011 C 17.901333333333334 35.57660827770011, 17.890666666666668 35.577941611033445, 17.88 35.580608277700115 C 17.86933333333333 35.58327494436678, 17.86 35.58594161103345, 17.852 35.58860827770011 Z M 17.852 33.296608277700116 L 17.852 32.364608277700114 L 19.439999999999998 32.364608277700114 L 19.439999999999998 33.296608277700116 Z M 21.944 38.76460827770011 L 21.944 32.364608277700114 L 23.003999999999998 32.364608277700114 L 23.003999999999998 38.76460827770011 Z " stroke="none" fill-rule="nonzero" fill="#000000" fill-opacity="1" transform="matrix(1,0,0,1,5.05,13.314)" id="text55 l" />
  <path d="M 0 31.72728662216008 L 10 31.72728662216008 L 10 33.22728662216008 L 0 33.22728662216008 Z " stroke="none" fill-rule="evenodd" fill="#000000" fill-opacity="1" transform="matrix(1,0,0,1,5.05,13.314)" id="mark56 l" />
  <path d="M 0 23.607964966620045 L 10 23.607964966620045 L 10 25.107964966620045 L 0 25.107964966620045 Z " stroke="none" fill-rule="evenodd" fill="#000000" fill-opacity="1" transform="matrix(1,0,0,1,5.05,13.314)" id="mark57 l" />
  <path d="M 0 15.488643311080068 L 10 15.488643311080068 L 10 16.988643311080068 L 0 16.988643311080068 Z " stroke="none" fill-rule="evenodd" fill="#000000" fill-opacity="1" transform="matrix(1,0,0,1,5.05,13.314)" id="mark58 l" />
  <path d="M 0 7.369321655540034 L 10 7.369321655540034 L 10 8.869321655540034 L 0 8.869321655540034 Z " stroke="none" fill-rule="evenodd" fill="#000000" fill-opacity="1" transform="matrix(1,0,0,1,5.05,13.314)" id="mark59 l" />
  <path d="M 0 -0.75 L 25 -0.75 L 25 0.75 L 0 0.75 Z " stroke="none" fill-rule="evenodd" fill="#000000" fill-opacity="1" transform="matrix(1,0,0,1,5.05,13.314)" id="mark60 l" />
  <path d="M 12.264 -3.2159999999999997 C 12.261333333333333 -3.4799999999999995, 12.258 -3.7573333333333334, 12.254 -4.048 C 12.25 -4.338666666666667, 12.248 -4.637333333333333, 12.248 -4.944 C 12.248 -5.250666666666667, 12.249333333333333 -5.558666666666666, 12.251999999999999 -5.867999999999999 C 12.254666666666665 -6.1773333333333325, 12.258666666666667 -6.485333333333333, 12.264 -6.792 C 12.271999999999998 -7.256, 12.397333333333332 -7.6080000000000005, 12.639999999999999 -7.848 C 12.882666666666665 -8.088000000000001, 13.215999999999998 -8.226666666666667, 13.639999999999999 -8.264 L 13.639999999999999 -7.372 C 13.543999999999997 -7.347999999999999, 13.470666666666665 -7.303999999999999, 13.419999999999998 -7.239999999999999 C 13.369333333333332 -7.176, 13.343999999999998 -7.090666666666667, 13.344 -6.984 C 13.335999999999999 -6.496, 13.330666666666666 -6.029333333333334, 13.328 -5.584 C 13.325333333333333 -5.1386666666666665, 13.323999999999998 -4.705333333333334, 13.323999999999998 -4.284 C 13.323999999999998 -3.8626666666666667, 13.328 -3.4480000000000004, 13.335999999999999 -3.04 C 13.335999999999999 -2.9306666666666668, 13.363333333333333 -2.841333333333333, 13.418 -2.772 C 13.472666666666665 -2.7026666666666666, 13.549333333333333 -2.653333333333333, 13.648 -2.6239999999999997 L 13.648 -1.7319999999999998 C 13.159999999999998 -1.7639999999999998, 12.809333333333331 -1.896, 12.595999999999998 -2.1279999999999997 C 12.382666666666665 -2.36, 12.271999999999998 -2.7226666666666666, 12.264 -3.2159999999999997 Z M 13.812 -4.896 L 13.812 -5.64 C 13.894666666666666 -5.688, 13.987333333333332 -5.725333333333333, 14.09 -5.752 C 14.192666666666668 -5.778666666666666, 14.301333333333332 -5.792, 14.415999999999999 -5.792 C 14.84 -5.792, 15.134 -5.692666666666666, 15.297999999999998 -5.494 C 15.462 -5.295333333333334, 15.547999999999998 -4.964, 15.556 -4.5 C 15.561333333333334 -4.316000000000001, 15.564666666666666 -4.160666666666667, 15.565999999999999 -4.034 C 15.567333333333332 -3.907333333333333, 15.567333333333332 -3.7826666666666666, 15.565999999999999 -3.6599999999999997 C 15.564666666666666 -3.5373333333333337, 15.559999999999999 -3.389333333333333, 15.552 -3.2159999999999997 C 15.527999999999999 -2.7253333333333334, 15.408 -2.3626666666666667, 15.192 -2.1279999999999997 C 14.975999999999999 -1.893333333333333, 14.628 -1.7613333333333332, 14.148 -1.7319999999999998 L 14.148 -2.6159999999999997 C 14.251999999999999 -2.6453333333333333, 14.331333333333333 -2.6933333333333334, 14.386 -2.76 C 14.440666666666665 -2.826666666666666, 14.469333333333333 -2.913333333333333, 14.472 -3.0199999999999996 C 14.477333333333332 -3.174666666666666, 14.481333333333332 -3.313333333333333, 14.483999999999998 -3.436 C 14.486666666666666 -3.558666666666667, 14.489333333333335 -3.676, 14.491999999999999 -3.788 C 14.494666666666667 -3.9, 14.495333333333333 -4.011333333333333, 14.494 -4.122 C 14.492666666666667 -4.232666666666667, 14.489333333333333 -4.349333333333333, 14.483999999999998 -4.4719999999999995 C 14.481333333333332 -4.621333333333333, 14.429333333333332 -4.732, 14.328 -4.804 C 14.226666666666665 -4.876, 14.094666666666665 -4.912, 13.931999999999999 -4.912 C 13.913333333333334 -4.912, 13.894 -4.911333333333333, 13.873999999999999 -4.91 C 13.854 -4.908666666666667, 13.833333333333332 -4.904, 13.812 -4.896 Z M 14.44 -6.216 C 14.448 -6.309333333333333, 14.452666666666666 -6.391333333333333, 14.453999999999999 -6.462 C 14.455333333333332 -6.532666666666667, 14.454666666666665 -6.6080000000000005, 14.451999999999998 -6.688 C 14.449333333333332 -6.768000000000001, 14.445333333333334 -6.866666666666667, 14.44 -6.984 C 14.434666666666665 -7.082666666666666, 14.407999999999998 -7.165999999999999, 14.36 -7.233999999999999 C 14.311999999999998 -7.302, 14.238666666666665 -7.347999999999999, 14.139999999999999 -7.372 L 14.139999999999999 -8.26 C 14.577333333333332 -8.219999999999999, 14.911333333333332 -8.075333333333333, 15.142 -7.826 C 15.372666666666667 -7.576666666666666, 15.495999999999999 -7.2493333333333325, 15.511999999999999 -6.843999999999999 C 15.514666666666667 -6.777333333333333, 15.516666666666666 -6.7139999999999995, 15.517999999999999 -6.654 C 15.519333333333332 -6.594, 15.519333333333332 -6.53, 15.517999999999999 -6.462 C 15.516666666666666 -6.393999999999999, 15.514666666666667 -6.311999999999999, 15.511999999999999 -6.216 Z M 16.196 -3.2119999999999997 C 16.188000000000002 -3.641333333333333, 16.182666666666666 -4.058, 16.18 -4.462 C 16.177333333333333 -4.866, 16.177999999999997 -5.261333333333333, 16.182 -5.648 C 16.186 -6.034666666666666, 16.190666666666665 -6.416, 16.196 -6.792 C 16.209333333333333 -7.231999999999999, 16.334000000000003 -7.577333333333334, 16.57 -7.828 C 16.805999999999997 -8.078666666666667, 17.142666666666663 -8.224, 17.58 -8.264 L 17.58 -7.3759999999999994 C 17.382666666666665 -7.32, 17.281333333333333 -7.190666666666667, 17.276 -6.9879999999999995 C 17.262666666666668 -6.617333333333333, 17.253333333333334 -6.269333333333333, 17.248 -5.944 C 17.242666666666665 -5.618666666666666, 17.24 -5.302, 17.24 -4.994 C 17.24 -4.686, 17.242666666666665 -4.371333333333333, 17.248 -4.05 C 17.253333333333334 -3.7286666666666664, 17.262666666666668 -3.3853333333333326, 17.276 -3.0199999999999996 C 17.281333333333333 -2.812, 17.382666666666665 -2.6799999999999997, 17.58 -2.6239999999999997 L 17.58 -1.7359999999999998 C 17.142666666666663 -1.7759999999999998, 16.805999999999997 -1.9219999999999997, 16.57 -2.174 C 16.334000000000003 -2.4259999999999997, 16.209333333333333 -2.772, 16.196 -3.2119999999999997 Z M 18.084 -1.7359999999999998 L 18.084 -2.6279999999999997 C 18.268 -2.681333333333333, 18.366666666666667 -2.8053333333333335, 18.38 -3 C 18.398666666666667 -3.4666666666666663, 18.410666666666668 -3.915333333333333, 18.416 -4.346 C 18.421333333333333 -4.776666666666666, 18.421333333333333 -5.207333333333333, 18.416 -5.638 C 18.410666666666668 -6.068666666666666, 18.398666666666667 -6.521333333333333, 18.38 -6.9959999999999996 C 18.374666666666666 -7.190666666666667, 18.276 -7.317333333333334, 18.084 -7.3759999999999994 L 18.084 -8.264 C 18.513333333333335 -8.224, 18.846666666666668 -8.078666666666667, 19.084 -7.828 C 19.321333333333335 -7.577333333333334, 19.445333333333334 -7.231999999999999, 19.456 -6.792 C 19.46666666666667 -6.477333333333332, 19.474666666666668 -6.167333333333333, 19.48 -5.861999999999999 C 19.485333333333333 -5.556666666666667, 19.488 -5.256, 19.488 -4.96 C 19.488 -4.664, 19.485333333333333 -4.370666666666667, 19.48 -4.08 C 19.474666666666668 -3.7893333333333334, 19.46666666666667 -3.5, 19.456 -3.2119999999999997 C 19.439999999999998 -2.761333333333333, 19.311999999999998 -2.4126666666666665, 19.072 -2.166 C 18.832 -1.9193333333333331, 18.502666666666666 -1.7759999999999998, 18.084 -1.7359999999999998 Z M 21.944 -1.7999999999999998 L 21.944 -8.2 L 23.003999999999998 -8.2 L 23.003999999999998 -1.7999999999999998 Z " stroke="none" fill-rule="nonzero" fill="#000000" fill-opacity="1" transform="matrix(1,0,0,1,5.05,13.314)" id="text60 l" />
  <path d="M -5 -13.264 L 30 -13.264 L 30 485.80797767686084 L -5 485.80797767686084 Z " stroke="#FF0000" stroke-opacity="1" stroke-width="0.1" stroke-linecap="butt" stroke-linejoin="miter" fill="none" transform="matrix(1,0,0,1,5.05,13.314)" />
</svg>