<?xml version="1.0" encoding="UTF-8"?>
<svg xmlns:xlink="http://www.w3.org/1999/xlink" viewBox="0 0 40.099999999999994 280.5462239049274" version="1.1" style="font-synthesis: none;" width="40.099999999999994mm" height="280.5462239049274mm" xmlns="http://www.w3.org/2000/svg">
  <defs />
  <style>	</style>
  <path d="M 0 0 L 40.099999999999994 0 L 40.099999999999994 280.5462239049274 L 0 280.5462239049274 Z " stroke="none" fill-rule="nonzero" fill="#FFFFFF" fill-opacity="1" transform="matrix(1,0,0,1,0,0)" />
  <path d="M 0 259.6642239049274 L 10 259.6642239049274 L 10 261.1642239049274 L 0 261.1642239049274 Z " stroke="none" fill-rule="evenodd" fill="#000000" fill-opacity="1" transform="matrix(1,0,0,1,5.05,13.314)" id="mark2 l" />
  <path d="M 0 250.36371590832283 L 10 250.36371590832283 L 10 251.86371590832283 L 0 251.86371590832283 Z " stroke="none" fill-rule="evenodd" fill="#000000" fill-opacity="1" transform="matrix(1,0,0,1,5.05,13.314)" id="mark3 l" />
  <path d="M 0 241.06320791171828 L 10 241.06320791171828 L 10 242.56320791171828 L 0 242.56320791171828 Z " stroke="none" fill-rule="evenodd" fill="#000000" fill-opacity="1" transform="matrix(1,0,0,1,5.05,13.314)" id="mark4 l" />
  <path d="M 0 231.76269991511373 L 30 231.76269991511373 L 30 233.26269991511373 L 0 233.26269991511373 Z " stroke="none" fill-rule="evenodd" fill="#000000" fill-opacity="1" transform="matrix(1,0,0,1,5.05,13.314)" id="mark5 l" />
  <path d="M 21.18 229.26469991511374 C 21.174666666666667 229.09136658178042, 21.173333333333332 228.9520332484471, 21.176 228.84669991511373 C 21.178666666666665 228.74136658178043, 21.18133333333333 228.63936658178042, 21.183999999999997 228.54069991511375 L 22.264 228.54069991511375 C 22.256 228.61803324844706, 22.25 228.71403324844704, 22.246 228.82869991511373 C 22.241999999999997 228.94336658178037, 22.240666666666666 229.05403324844707, 22.241999999999997 229.16069991511372 C 22.243333333333332 229.26736658178038, 22.246666666666666 229.3473665817804, 22.252 229.40069991511373 C 22.262666666666668 229.52069991511374, 22.297333333333334 229.61869991511372, 22.355999999999998 229.69469991511374 C 22.414666666666665 229.7706999151137, 22.49733333333333 229.82469991511374, 22.604 229.85669991511372 L 22.604 230.74869991511375 C 22.110666666666667 230.7113665817804, 21.75333333333333 230.57669991511375, 21.532 230.34469991511372 C 21.310666666666666 230.11269991511375, 21.19333333333333 229.75269991511374, 21.18 229.26469991511374 Z M 21.279999999999998 227.92869991511373 L 21.279999999999998 224.28069991511373 L 22.348 224.28069991511373 L 22.348 227.92869991511373 Z M 22.852 227.50469991511375 L 22.852 226.74869991511375 C 22.929333333333332 226.70869991511375, 23.014666666666663 226.67669991511374, 23.107999999999997 226.65269991511374 C 23.20133333333333 226.62869991511374, 23.301333333333332 226.61669991511374, 23.407999999999998 226.61669991511374 C 23.773333333333333 226.61669991511374, 24.047333333333334 226.73203324844707, 24.23 226.96269991511375 C 24.412666666666667 227.19336658178042, 24.514666666666663 227.5073665817804, 24.535999999999998 227.90469991511372 C 24.546666666666667 228.06469991511375, 24.55333333333333 228.2233665817804, 24.555999999999997 228.38069991511372 C 24.558666666666664 228.53803324844708, 24.557333333333332 228.69136658178041, 24.552 228.84069991511373 C 24.546666666666667 228.99003324844705, 24.538666666666664 229.13003324844703, 24.528 229.26069991511375 C 24.482666666666667 229.7593665817804, 24.353333333333335 230.12469991511375, 24.14 230.35669991511372 C 23.92666666666667 230.58869991511375, 23.581333333333333 230.71936658178043, 23.104 230.74869991511375 L 23.104 229.85669991511372 C 23.213333333333335 229.82736658178038, 23.296 229.77469991511373, 23.352 229.69869991511374 C 23.408 229.62269991511374, 23.44 229.5233665817804, 23.448 229.40069991511373 C 23.471999999999998 229.11003324844705, 23.485999999999997 228.84869991511374, 23.49 228.61669991511374 C 23.494 228.38469991511374, 23.485333333333333 228.1633665817804, 23.464 227.95269991511373 C 23.447999999999997 227.79803324844704, 23.396666666666665 227.68269991511374, 23.31 227.60669991511372 C 23.223333333333333 227.53069991511376, 23.090666666666667 227.49269991511375, 22.912 227.49269991511375 C 22.901333333333334 227.49269991511375, 22.890666666666668 227.49403324844707, 22.88 227.49669991511374 C 22.86933333333333 227.4993665817804, 22.86 227.50203324844705, 22.852 227.50469991511375 Z M 22.852 225.21269991511375 L 22.852 224.28069991511373 L 24.439999999999998 224.28069991511373 L 24.439999999999998 225.21269991511375 Z M 26.944 230.68069991511373 L 26.944 224.28069991511373 L 28.003999999999998 224.28069991511373 L 28.003999999999998 230.68069991511373 Z " stroke="none" fill-rule="nonzero" fill="#000000" fill-opacity="1" transform="matrix(1,0,0,1,5.05,13.314)" id="text5 l" />
  <path d="M 0 222.46219191850918 L 10 222.46219191850918 L 10 223.96219191850918 L 0 223.96219191850918 Z " stroke="none" fill-rule="evenodd" fill="#000000" fill-opacity="1" transform="matrix(1,0,0,1,5.05,13.314)" id="mark6 l" />
  <path d="M 0 213.16168392190463 L 10 213.16168392190463 L 10 214.66168392190463 L 0 214.66168392190463 Z " stroke="none" fill-rule="evenodd" fill="#000000" fill-opacity="1" transform="matrix(1,0,0,1,5.05,13.314)" id="mark7 l" />
  <path d="M 0 203.86117592530007 L 10 203.86117592530007 L 10 205.36117592530007 L 0 205.36117592530007 Z " stroke="none" fill-rule="evenodd" fill="#000000" fill-opacity="1" transform="matrix(1,0,0,1,5.05,13.314)" id="mark8 l" />
  <path d="M 0 194.56066792869552 L 10 194.56066792869552 L 10 196.06066792869552 L 0 196.06066792869552 Z " stroke="none" fill-rule="evenodd" fill="#000000" fill-opacity="1" transform="matrix(1,0,0,1,5.05,13.314)" id="mark9 l" />
  <path d="M 0 185.260159932091 L 30 185.260159932091 L 30 186.760159932091 L 0 186.760159932091 Z " stroke="none" fill-rule="evenodd" fill="#000000" fill-opacity="1" transform="matrix(1,0,0,1,5.05,13.314)" id="mark10 l" />
  <path d="M 19.323999999999998 184.21015993209102 L 19.323999999999998 178.76615993209103 L 18.871999999999996 178.76615993209103 L 18.839999999999996 178.386159932091 L 19.543999999999997 177.810159932091 L 20.423999999999996 177.810159932091 L 20.423999999999996 184.21015993209102 Z M 21.195999999999998 182.798159932091 C 21.188 182.36882659875766, 21.182666666666663 181.952159932091, 21.179999999999996 181.548159932091 C 21.17733333333333 181.14415993209101, 21.177999999999994 180.7488265987577, 21.181999999999995 180.362159932091 C 21.185999999999996 179.97549326542435, 21.19066666666666 179.59415993209103, 21.195999999999998 179.21815993209103 C 21.20933333333333 178.77815993209103, 21.333999999999996 178.43282659875769, 21.569999999999997 178.18215993209103 C 21.805999999999997 177.93149326542436, 22.142666666666663 177.786159932091, 22.579999999999995 177.74615993209102 L 22.579999999999995 178.63415993209102 C 22.382666666666662 178.69015993209103, 22.28133333333333 178.81949326542437, 22.275999999999996 179.02215993209103 C 22.262666666666664 179.3928265987577, 22.25333333333333 179.74082659875768, 22.247999999999998 180.066159932091 C 22.24266666666666 180.39149326542434, 22.239999999999995 180.708159932091, 22.239999999999995 181.01615993209103 C 22.239999999999995 181.32415993209102, 22.24266666666666 181.63882659875767, 22.247999999999998 181.96015993209102 C 22.25333333333333 182.28149326542436, 22.262666666666664 182.6248265987577, 22.275999999999996 182.99015993209102 C 22.28133333333333 183.19815993209102, 22.382666666666662 183.33015993209102, 22.579999999999995 183.386159932091 L 22.579999999999995 184.274159932091 C 22.142666666666663 184.23415993209102, 21.805999999999997 184.088159932091, 21.569999999999997 183.83615993209102 C 21.333999999999996 183.584159932091, 21.20933333333333 183.238159932091, 21.195999999999998 182.798159932091 Z M 23.083999999999996 184.274159932091 L 23.083999999999996 183.382159932091 C 23.267999999999997 183.3288265987577, 23.366666666666664 183.20482659875768, 23.379999999999995 183.01015993209103 C 23.398666666666664 182.54349326542433, 23.410666666666664 182.09482659875766, 23.415999999999997 181.66415993209102 C 23.42133333333333 181.23349326542433, 23.42133333333333 180.8028265987577, 23.415999999999997 180.37215993209102 C 23.410666666666664 179.94149326542436, 23.398666666666664 179.48882659875767, 23.379999999999995 179.01415993209102 C 23.374666666666663 178.81949326542434, 23.275999999999996 178.69282659875768, 23.083999999999996 178.63415993209102 L 23.083999999999996 177.74615993209102 C 23.51333333333333 177.786159932091, 23.846666666666664 177.93149326542436, 24.083999999999996 178.18215993209103 C 24.32133333333333 178.43282659875769, 24.44533333333333 178.77815993209103, 24.455999999999996 179.21815993209103 C 24.46666666666666 179.53282659875768, 24.474666666666664 179.84282659875765, 24.479999999999997 180.148159932091 C 24.48533333333333 180.45349326542436, 24.487999999999992 180.754159932091, 24.487999999999996 181.05015993209102 C 24.487999999999992 181.346159932091, 24.48533333333333 181.63949326542433, 24.479999999999997 181.93015993209102 C 24.474666666666664 182.2208265987577, 24.46666666666666 182.51015993209103, 24.455999999999996 182.798159932091 C 24.439999999999998 183.2488265987577, 24.311999999999998 183.59749326542436, 24.071999999999996 183.844159932091 C 23.831999999999997 184.09082659875767, 23.502666666666663 184.23415993209102, 23.083999999999996 184.274159932091 Z M 26.943999999999996 184.21015993209102 L 26.943999999999996 177.810159932091 L 28.003999999999998 177.810159932091 L 28.003999999999998 184.21015993209102 Z " stroke="none" fill-rule="nonzero" fill="#000000" fill-opacity="1" transform="matrix(1,0,0,1,5.05,13.314)" id="text10 l" />
  <path d="M 0 175.95965193548645 L 10 175.95965193548645 L 10 177.45965193548645 L 0 177.45965193548645 Z " stroke="none" fill-rule="evenodd" fill="#000000" fill-opacity="1" transform="matrix(1,0,0,1,5.05,13.314)" id="mark11 l" />
  <path d="M 0 166.6591439388819 L 10 166.6591439388819 L 10 168.1591439388819 L 0 168.1591439388819 Z " stroke="none" fill-rule="evenodd" fill="#000000" fill-opacity="1" transform="matrix(1,0,0,1,5.05,13.314)" id="mark12 l" />
  <path d="M 0 157.35863594227735 L 10 157.35863594227735 L 10 158.85863594227735 L 0 158.85863594227735 Z " stroke="none" fill-rule="evenodd" fill="#000000" fill-opacity="1" transform="matrix(1,0,0,1,5.05,13.314)" id="mark13 l" />
  <path d="M 0 148.0581279456728 L 10 148.0581279456728 L 10 149.5581279456728 L 0 149.5581279456728 Z " stroke="none" fill-rule="evenodd" fill="#000000" fill-opacity="1" transform="matrix(1,0,0,1,5.05,13.314)" id="mark14 l" />
  <path d="M 0 138.75761994906824 L 30 138.75761994906824 L 30 140.25761994906824 L 0 140.25761994906824 Z " stroke="none" fill-rule="evenodd" fill="#000000" fill-opacity="1" transform="matrix(1,0,0,1,5.05,13.314)" id="mark15 l" />
  <path d="M 19.332 137.67561994906825 L 19.332 132.23161994906826 L 18.88 132.23161994906826 L 18.848 131.85161994906824 L 19.552 131.27561994906824 L 20.432 131.27561994906824 L 20.432 137.67561994906825 Z M 21.18 136.25961994906825 C 21.174666666666667 136.08628661573493, 21.173333333333332 135.94695328240158, 21.176 135.84161994906825 C 21.178666666666665 135.7362866157349, 21.18133333333333 135.63428661573494, 21.183999999999997 135.53561994906826 L 22.264 135.53561994906826 C 22.256 135.61295328240158, 22.25 135.70895328240158, 22.246 135.82361994906825 C 22.241999999999997 135.9382866157349, 22.240666666666666 136.04895328240158, 22.241999999999997 136.15561994906824 C 22.243333333333332 136.2622866157349, 22.246666666666666 136.3422866157349, 22.252 136.39561994906825 C 22.262666666666668 136.51561994906825, 22.297333333333334 136.61361994906827, 22.355999999999998 136.68961994906826 C 22.414666666666665 136.76561994906825, 22.49733333333333 136.81961994906823, 22.604 136.85161994906824 L 22.604 137.74361994906826 C 22.110666666666667 137.7062866157349, 21.75333333333333 137.57161994906824, 21.532 137.33961994906824 C 21.310666666666666 137.10761994906824, 21.19333333333333 136.74761994906825, 21.18 136.25961994906825 Z M 21.279999999999998 134.92361994906824 L 21.279999999999998 131.27561994906824 L 22.348 131.27561994906824 L 22.348 134.92361994906824 Z M 22.852 134.49961994906826 L 22.852 133.74361994906826 C 22.929333333333332 133.70361994906824, 23.014666666666663 133.67161994906826, 23.107999999999997 133.64761994906826 C 23.20133333333333 133.62361994906826, 23.301333333333332 133.61161994906826, 23.407999999999998 133.61161994906826 C 23.773333333333333 133.61161994906826, 24.047333333333334 133.72695328240158, 24.23 133.95761994906826 C 24.412666666666667 134.18828661573494, 24.514666666666663 134.50228661573493, 24.535999999999998 134.89961994906824 C 24.546666666666667 135.05961994906824, 24.55333333333333 135.2182866157349, 24.555999999999997 135.37561994906824 C 24.558666666666664 135.5329532824016, 24.557333333333332 135.68628661573493, 24.552 135.83561994906825 C 24.546666666666667 135.98495328240156, 24.538666666666664 136.12495328240158, 24.528 136.25561994906826 C 24.482666666666667 136.75428661573494, 24.353333333333335 137.11961994906824, 24.14 137.35161994906824 C 23.92666666666667 137.58361994906824, 23.581333333333333 137.71428661573492, 23.104 137.74361994906826 L 23.104 136.85161994906824 C 23.213333333333335 136.82228661573492, 23.296 136.76961994906824, 23.352 136.69361994906825 C 23.408 136.61761994906826, 23.44 136.51828661573492, 23.448 136.39561994906825 C 23.471999999999998 136.10495328240157, 23.485999999999997 135.84361994906826, 23.49 135.61161994906826 C 23.494 135.37961994906826, 23.485333333333333 135.1582866157349, 23.464 134.94761994906824 C 23.447999999999997 134.79295328240158, 23.396666666666665 134.67761994906823, 23.31 134.60161994906824 C 23.223333333333333 134.52561994906824, 23.090666666666667 134.48761994906826, 22.912 134.48761994906826 C 22.901333333333334 134.48761994906826, 22.890666666666668 134.48895328240158, 22.88 134.49161994906825 C 22.86933333333333 134.49428661573492, 22.86 134.4969532824016, 22.852 134.49961994906826 Z M 22.852 132.20761994906826 L 22.852 131.27561994906824 L 24.439999999999998 131.27561994906824 L 24.439999999999998 132.20761994906826 Z M 26.944 137.67561994906825 L 26.944 131.27561994906824 L 28.003999999999998 131.27561994906824 L 28.003999999999998 137.67561994906825 Z " stroke="none" fill-rule="nonzero" fill="#000000" fill-opacity="1" transform="matrix(1,0,0,1,5.05,13.314)" id="text15 l" />
  <path d="M 0 129.4571119524637 L 10 129.4571119524637 L 10 130.9571119524637 L 0 130.9571119524637 Z " stroke="none" fill-rule="evenodd" fill="#000000" fill-opacity="1" transform="matrix(1,0,0,1,5.05,13.314)" id="mark16 l" />
  <path d="M 0 120.15660395585914 L 10 120.15660395585914 L 10 121.65660395585914 L 0 121.65660395585914 Z " stroke="none" fill-rule="evenodd" fill="#000000" fill-opacity="1" transform="matrix(1,0,0,1,5.05,13.314)" id="mark17 l" />
  <path d="M 0 110.85609595925459 L 10 110.85609595925459 L 10 112.35609595925459 L 0 112.35609595925459 Z " stroke="none" fill-rule="evenodd" fill="#000000" fill-opacity="1" transform="matrix(1,0,0,1,5.05,13.314)" id="mark18 l" />
  <path d="M 0 101.55558796265004 L 10 101.55558796265004 L 10 103.05558796265004 L 0 103.05558796265004 Z " stroke="none" fill-rule="evenodd" fill="#000000" fill-opacity="1" transform="matrix(1,0,0,1,5.05,13.314)" id="mark19 l" />
  <path d="M 0 92.25507996604551 L 30 92.25507996604551 L 30 93.75507996604551 L 0 93.75507996604551 Z " stroke="none" fill-rule="evenodd" fill="#000000" fill-opacity="1" transform="matrix(1,0,0,1,5.05,13.314)" id="mark20 l" />
  <path d="M 17.32 91.20507996604552 C 17.31733333333333 91.10641329937886, 17.31533333333333 91.01774663271219, 17.314 90.93907996604551 C 17.312666666666665 90.86041329937885, 17.31133333333333 90.78641329937885, 17.31 90.71707996604552 C 17.308666666666667 90.64774663271218, 17.308 90.5757466327122, 17.308 90.50107996604552 C 17.308 90.42641329937885, 17.308 90.34174663271219, 17.308 90.24707996604552 C 17.308 90.15241329937885, 17.30933333333333 90.04107996604552, 17.311999999999998 89.91307996604552 C 17.319999999999997 89.61974663271218, 17.369999999999997 89.35774663271218, 17.462 89.12707996604551 C 17.554 88.89641329937885, 17.688 88.69041329937885, 17.864 88.50907996604552 C 18.04 88.32774663271218, 18.25733333333333 88.16641329937885, 18.516 88.02507996604551 L 19.048 87.73707996604551 C 19.234666666666666 87.63574663271217, 19.354 87.51374663271218, 19.406 87.37107996604551 C 19.458 87.22841329937884, 19.488 87.09441329937886, 19.496 86.96907996604551 C 19.506666666666668 86.82241329937884, 19.512666666666668 86.66574663271217, 19.514 86.49907996604551 C 19.51533333333333 86.33241329937886, 19.511999999999997 86.17574663271219, 19.503999999999998 86.02907996604551 C 19.498666666666665 85.92507996604553, 19.468666666666664 85.83907996604552, 19.413999999999998 85.77107996604552 C 19.359333333333332 85.70307996604552, 19.28 85.65441329937885, 19.176 85.62507996604552 L 19.176 84.73707996604551 C 19.663999999999998 84.76907996604552, 20.014 84.90041329937885, 20.226 85.13107996604552 C 20.438 85.36174663271218, 20.554666666666666 85.72241329937886, 20.576 86.21307996604551 C 20.578666666666667 86.27707996604552, 20.580666666666666 86.34241329937885, 20.582 86.40907996604551 C 20.583333333333336 86.47574663271217, 20.584 86.54041329937886, 20.584 86.60307996604551 C 20.584 86.66574663271219, 20.583333333333336 86.72774663271218, 20.582 86.78907996604552 C 20.580666666666666 86.85041329937886, 20.578666666666667 86.91041329937886, 20.576 86.96907996604551 C 20.56533333333333 87.25441329937885, 20.512 87.50107996604552, 20.416 87.70907996604552 C 20.32 87.91707996604552, 20.189999999999998 88.09707996604551, 20.026 88.24907996604551 C 19.862 88.40107996604551, 19.671999999999997 88.53707996604552, 19.456 88.65707996604552 L 18.852 88.98507996604552 C 18.737333333333332 89.04641329937886, 18.647333333333332 89.13041329937886, 18.582 89.23707996604551 C 18.516666666666666 89.34374663271217, 18.47 89.45707996604551, 18.442 89.57707996604552 C 18.413999999999998 89.69707996604552, 18.4 89.80907996604552, 18.4 89.91307996604552 L 18.4 91.20507996604552 Z M 17.328 87.16507996604551 C 17.322666666666667 87.04774663271219, 17.318666666666665 86.93307996604553, 17.316 86.82107996604552 C 17.313333333333333 86.70907996604551, 17.31133333333333 86.60307996604551, 17.31 86.50307996604552 C 17.308666666666667 86.40307996604551, 17.30933333333333 86.30641329937885, 17.311999999999998 86.21307996604551 C 17.330666666666666 85.72507996604551, 17.447333333333333 85.36574663271219, 17.662 85.13507996604551 C 17.876666666666665 84.90441329937886, 18.21333333333333 84.7717466327122, 18.672 84.73707996604551 L 18.672 85.62907996604552 C 18.576 85.65841329937885, 18.505333333333333 85.70507996604552, 18.46 85.76907996604552 C 18.414666666666665 85.83307996604552, 18.390666666666664 85.91041329937886, 18.387999999999998 86.00107996604552 C 18.382666666666665 86.20907996604552, 18.37933333333333 86.40241329937885, 18.378 86.58107996604552 C 18.376666666666665 86.7597466327122, 18.38133333333333 86.95441329937886, 18.392 87.16507996604551 Z M 18.904 91.20507996604552 L 18.904 90.27307996604551 L 20.5 90.27307996604551 L 20.5 91.20507996604552 Z M 21.196 89.79307996604551 C 21.188000000000002 89.36374663271218, 21.182666666666666 88.94707996604552, 21.18 88.54307996604551 C 21.177333333333333 88.13907996604551, 21.177999999999997 87.74374663271217, 21.182 87.35707996604552 C 21.186 86.97041329937886, 21.190666666666665 86.58907996604552, 21.196 86.21307996604551 C 21.209333333333333 85.77307996604551, 21.334 85.42774663271219, 21.57 85.17707996604551 C 21.806 84.92641329937885, 22.142666666666667 84.78107996604552, 22.58 84.74107996604552 L 22.58 85.62907996604552 C 22.382666666666665 85.68507996604552, 22.281333333333333 85.81441329937884, 22.276 86.01707996604551 C 22.262666666666668 86.38774663271218, 22.253333333333334 86.73574663271218, 22.248 87.06107996604551 C 22.242666666666665 87.38641329937884, 22.24 87.70307996604551, 22.24 88.01107996604551 C 22.24 88.31907996604552, 22.242666666666665 88.63374663271219, 22.248 88.95507996604552 C 22.253333333333334 89.27641329937885, 22.262666666666668 89.61974663271218, 22.276 89.98507996604552 C 22.281333333333333 90.19307996604552, 22.382666666666665 90.32507996604552, 22.58 90.38107996604552 L 22.58 91.26907996604551 C 22.142666666666667 91.22907996604552, 21.806 91.08307996604552, 21.57 90.83107996604552 C 21.334 90.57907996604553, 21.209333333333333 90.23307996604552, 21.196 89.79307996604551 Z M 23.084 91.26907996604551 L 23.084 90.37707996604551 C 23.268 90.32374663271219, 23.366666666666667 90.19974663271219, 23.38 90.00507996604551 C 23.398666666666667 89.53841329937885, 23.410666666666668 89.08974663271218, 23.416 88.65907996604551 C 23.421333333333333 88.22841329937884, 23.421333333333333 87.79774663271219, 23.416 87.36707996604552 C 23.410666666666668 86.93641329937886, 23.398666666666667 86.48374663271218, 23.38 86.00907996604552 C 23.374666666666666 85.81441329937886, 23.276 85.68774663271219, 23.084 85.62907996604552 L 23.084 84.74107996604552 C 23.513333333333335 84.78107996604552, 23.846666666666668 84.92641329937885, 24.084 85.17707996604551 C 24.321333333333335 85.42774663271219, 24.44533333333333 85.77307996604551, 24.456 86.21307996604551 C 24.46666666666667 86.52774663271218, 24.474666666666668 86.83774663271218, 24.48 87.14307996604552 C 24.485333333333333 87.44841329937886, 24.488 87.74907996604551, 24.488 88.04507996604552 C 24.488 88.34107996604553, 24.485333333333333 88.63441329937885, 24.48 88.92507996604552 C 24.474666666666668 89.21574663271218, 24.46666666666667 89.50507996604551, 24.456 89.79307996604551 C 24.439999999999998 90.24374663271217, 24.311999999999998 90.59241329937885, 24.072 90.83907996604552 C 23.832 91.08574663271219, 23.502666666666666 91.22907996604552, 23.084 91.26907996604551 Z M 26.944 91.20507996604552 L 26.944 84.80507996604551 L 28.003999999999998 84.80507996604551 L 28.003999999999998 91.20507996604552 Z " stroke="none" fill-rule="nonzero" fill="#000000" fill-opacity="1" transform="matrix(1,0,0,1,5.05,13.314)" id="text20 l" />
  <path d="M 0 82.95457196944096 L 10 82.95457196944096 L 10 84.45457196944096 L 0 84.45457196944096 Z " stroke="none" fill-rule="evenodd" fill="#000000" fill-opacity="1" transform="matrix(1,0,0,1,5.05,13.314)" id="mark21 l" />
  <path d="M 0 73.65406397283641 L 10 73.65406397283641 L 10 75.15406397283641 L 0 75.15406397283641 Z " stroke="none" fill-rule="evenodd" fill="#000000" fill-opacity="1" transform="matrix(1,0,0,1,5.05,13.314)" id="mark22 l" />
  <path d="M 0 64.35355597623186 L 10 64.35355597623186 L 10 65.85355597623186 L 0 65.85355597623186 Z " stroke="none" fill-rule="evenodd" fill="#000000" fill-opacity="1" transform="matrix(1,0,0,1,5.05,13.314)" id="mark23 l" />
  <path d="M 0 55.05304797962731 L 10 55.05304797962731 L 10 56.55304797962731 L 0 56.55304797962731 Z " stroke="none" fill-rule="evenodd" fill="#000000" fill-opacity="1" transform="matrix(1,0,0,1,5.05,13.314)" id="mark24 l" />
  <path d="M 0 45.75253998302276 L 30 45.75253998302276 L 30 47.25253998302276 L 0 47.25253998302276 Z " stroke="none" fill-rule="evenodd" fill="#000000" fill-opacity="1" transform="matrix(1,0,0,1,5.05,13.314)" id="mark25 l" />
  <path d="M 17.328 44.70253998302276 C 17.325333333333333 44.60387331635609, 17.32333333333333 44.515206649689425, 17.322 44.43653998302276 C 17.320666666666664 44.35787331635609, 17.319333333333333 44.28387331635609, 17.317999999999998 44.21453998302276 C 17.316666666666663 44.14520664968943, 17.316 44.073206649689425, 17.316 43.99853998302276 C 17.316 43.923873316356094, 17.316 43.83920664968942, 17.316 43.74453998302276 C 17.316 43.64987331635609, 17.31733333333333 43.53853998302276, 17.319999999999997 43.41053998302276 C 17.327999999999996 43.11720664968943, 17.377999999999997 42.85520664968943, 17.47 42.62453998302276 C 17.561999999999998 42.39387331635609, 17.695999999999998 42.18787331635609, 17.872 42.00653998302276 C 18.048 41.82520664968942, 18.26533333333333 41.66387331635609, 18.523999999999997 41.52253998302276 L 19.055999999999997 41.234539983022756 C 19.242666666666665 41.13320664968943, 19.362 41.01120664968943, 19.413999999999998 40.86853998302276 C 19.465999999999998 40.725873316356086, 19.496 40.59187331635609, 19.503999999999998 40.46653998302276 C 19.514666666666667 40.319873316356095, 19.520666666666667 40.16320664968943, 19.522 39.99653998302276 C 19.52333333333333 39.829873316356085, 19.519999999999996 39.67320664968942, 19.511999999999997 39.52653998302276 C 19.506666666666664 39.42253998302276, 19.476666666666663 39.33653998302276, 19.421999999999997 39.26853998302276 C 19.36733333333333 39.200539983022765, 19.287999999999997 39.151873316356095, 19.183999999999997 39.12253998302276 L 19.183999999999997 38.234539983022756 C 19.671999999999997 38.26653998302275, 20.022 38.39787331635609, 20.233999999999998 38.62853998302276 C 20.445999999999998 38.859206649689426, 20.562666666666665 39.21987331635609, 20.584 39.71053998302276 C 20.586666666666666 39.77453998302276, 20.588666666666665 39.83987331635609, 20.589999999999996 39.90653998302276 C 20.59133333333333 39.97320664968943, 20.592 40.0378733163561, 20.592 40.100539983022756 C 20.592 40.16320664968943, 20.59133333333333 40.225206649689426, 20.589999999999996 40.28653998302276 C 20.588666666666665 40.34787331635609, 20.586666666666666 40.407873316356095, 20.584 40.46653998302276 C 20.57333333333333 40.7518733163561, 20.519999999999996 40.99853998302276, 20.424 41.20653998302276 C 20.327999999999996 41.41453998302276, 20.197999999999997 41.59453998302276, 20.034 41.74653998302276 C 19.869999999999997 41.89853998302276, 19.68 42.03453998302276, 19.464 42.15453998302276 L 18.86 42.48253998302276 C 18.74533333333333 42.54387331635609, 18.65533333333333 42.62787331635609, 18.589999999999996 42.734539983022756 C 18.52466666666666 42.841206649689425, 18.477999999999998 42.95453998302276, 18.45 43.07453998302276 C 18.421999999999997 43.19453998302276, 18.407999999999998 43.30653998302276, 18.407999999999998 43.41053998302276 L 18.407999999999998 44.70253998302276 Z M 17.336 40.66253998302276 C 17.330666666666666 40.545206649689426, 17.326666666666664 40.43053998302276, 17.323999999999998 40.31853998302276 C 17.32133333333333 40.20653998302276, 17.319333333333333 40.100539983022756, 17.317999999999998 40.00053998302276 C 17.316666666666663 39.90053998302275, 17.31733333333333 39.80387331635609, 17.319999999999997 39.71053998302276 C 17.338666666666665 39.222539983022756, 17.455333333333332 38.863206649689424, 17.669999999999998 38.63253998302276 C 17.884666666666664 38.401873316356095, 18.221333333333334 38.26920664968942, 18.68 38.234539983022756 L 18.68 39.12653998302276 C 18.583999999999996 39.15587331635609, 18.51333333333333 39.20253998302276, 18.467999999999996 39.26653998302276 C 18.422666666666665 39.33053998302276, 18.398666666666664 39.40787331635609, 18.395999999999997 39.49853998302276 C 18.390666666666664 39.70653998302276, 18.38733333333333 39.89987331635609, 18.386 40.07853998302276 C 18.384666666666664 40.25720664968942, 18.389333333333333 40.45187331635609, 18.4 40.66253998302276 Z M 18.912 44.70253998302276 L 18.912 43.77053998302276 L 20.508 43.77053998302276 L 20.508 44.70253998302276 Z M 21.18 43.28653998302276 C 21.174666666666667 43.113206649689424, 21.173333333333332 42.97387331635609, 21.176 42.86853998302276 C 21.178666666666665 42.76320664968943, 21.18133333333333 42.66120664968943, 21.183999999999997 42.56253998302276 L 22.264 42.56253998302276 C 22.256 42.63987331635609, 22.25 42.73587331635609, 22.246 42.85053998302276 C 22.241999999999997 42.96520664968943, 22.240666666666666 43.075873316356095, 22.241999999999997 43.18253998302276 C 22.243333333333332 43.289206649689426, 22.246666666666666 43.369206649689424, 22.252 43.42253998302276 C 22.262666666666668 43.542539983022756, 22.297333333333334 43.64053998302276, 22.355999999999998 43.71653998302276 C 22.414666666666665 43.79253998302276, 22.49733333333333 43.84653998302276, 22.604 43.87853998302276 L 22.604 44.77053998302276 C 22.110666666666667 44.73320664968943, 21.75333333333333 44.59853998302276, 21.532 44.36653998302276 C 21.310666666666666 44.13453998302276, 21.19333333333333 43.77453998302276, 21.18 43.28653998302276 Z M 21.279999999999998 41.95053998302276 L 21.279999999999998 38.30253998302276 L 22.348 38.30253998302276 L 22.348 41.95053998302276 Z M 22.852 41.52653998302276 L 22.852 40.77053998302276 C 22.929333333333332 40.73053998302276, 23.014666666666663 40.69853998302276, 23.107999999999997 40.67453998302276 C 23.20133333333333 40.65053998302276, 23.301333333333332 40.63853998302276, 23.407999999999998 40.63853998302276 C 23.773333333333333 40.63853998302276, 24.047333333333334 40.75387331635609, 24.23 40.984539983022756 C 24.412666666666667 41.21520664968943, 24.514666666666663 41.52920664968943, 24.535999999999998 41.926539983022764 C 24.546666666666667 42.08653998302276, 24.55333333333333 42.24520664968943, 24.555999999999997 42.40253998302276 C 24.558666666666664 42.5598733163561, 24.557333333333332 42.713206649689425, 24.552 42.86253998302276 C 24.546666666666667 43.011873316356095, 24.538666666666664 43.151873316356095, 24.528 43.28253998302276 C 24.482666666666667 43.78120664968943, 24.353333333333335 44.14653998302276, 24.14 44.37853998302276 C 23.92666666666667 44.61053998302276, 23.581333333333333 44.741206649689424, 23.104 44.77053998302276 L 23.104 43.87853998302276 C 23.213333333333335 43.84920664968943, 23.296 43.79653998302276, 23.352 43.72053998302276 C 23.408 43.64453998302276, 23.44 43.545206649689426, 23.448 43.42253998302276 C 23.471999999999998 43.13187331635609, 23.485999999999997 42.87053998302276, 23.49 42.63853998302276 C 23.494 42.40653998302276, 23.485333333333333 42.18520664968943, 23.464 41.97453998302276 C 23.447999999999997 41.819873316356095, 23.396666666666665 41.70453998302276, 23.31 41.62853998302276 C 23.223333333333333 41.55253998302276, 23.090666666666667 41.51453998302276, 22.912 41.51453998302276 C 22.901333333333334 41.51453998302276, 22.890666666666668 41.51587331635609, 22.88 41.51853998302276 C 22.86933333333333 41.52120664968943, 22.86 41.523873316356095, 22.852 41.52653998302276 Z M 22.852 39.234539983022756 L 22.852 38.30253998302276 L 24.439999999999998 38.30253998302276 L 24.439999999999998 39.234539983022756 Z M 26.944 44.70253998302276 L 26.944 38.30253998302276 L 28.003999999999998 38.30253998302276 L 28.003999999999998 44.70253998302276 Z " stroke="none" fill-rule="nonzero" fill="#000000" fill-opacity="1" transform="matrix(1,0,0,1,5.05,13.314)" id="text25 l" />
  <path d="M 0 36.452031986418206 L 10 36.452031986418206 L 10 37.952031986418206 L 0 37.952031986418206 Z " stroke="none" fill-rule="evenodd" fill="#000000" fill-opacity="1" transform="matrix(1,0,0,1,5.05,13.314)" id="mark26 l" />
  <path d="M 0 27.151523989813654 L 10 27.151523989813654 L 10 28.651523989813654 L 0 28.651523989813654 Z " stroke="none" fill-rule="evenodd" fill="#000000" fill-opacity="1" transform="matrix(1,0,0,1,5.05,13.314)" id="mark27 l" />
  <path d="M 0 17.851015993209103 L 10 17.851015993209103 L 10 19.351015993209103 L 0 19.351015993209103 Z " stroke="none" fill-rule="evenodd" fill="#000000" fill-opacity="1" transform="matrix(1,0,0,1,5.05,13.314)" id="mark28 l" />
  <path d="M 0 8.550507996604551 L 10 8.550507996604551 L 10 10.050507996604551 L 0 10.050507996604551 Z " stroke="none" fill-rule="evenodd" fill="#000000" fill-opacity="1" transform="matrix(1,0,0,1,5.05,13.314)" id="mark29 l" />
  <path d="M 0 -0.75 L 30 -0.75 L 30 0.75 L 0 0.75 Z " stroke="none" fill-rule="evenodd" fill="#000000" fill-opacity="1" transform="matrix(1,0,0,1,5.05,13.314)" id="mark30 l" />
  <path d="M 17.224 -3.2159999999999997 C 17.221333333333334 -3.317333333333333, 17.219333333333335 -3.4013333333333335, 17.218 -3.468 C 17.21666666666667 -3.5346666666666664, 17.21666666666667 -3.602666666666666, 17.218 -3.6719999999999997 C 17.219333333333335 -3.7413333333333334, 17.221333333333334 -3.8306666666666667, 17.224 -3.94 L 18.304000000000002 -3.94 L 18.304000000000002 -3.0759999999999996 C 18.304000000000002 -2.8386666666666667, 18.417333333333335 -2.6879999999999997, 18.644000000000002 -2.6239999999999997 L 18.644000000000002 -1.7319999999999998 C 18.156000000000002 -1.7693333333333332, 17.800666666666668 -1.904, 17.578 -2.1359999999999997 C 17.355333333333334 -2.368, 17.237333333333332 -2.7279999999999998, 17.224 -3.2159999999999997 Z M 17.292 -7.268 L 17.292 -8.2 L 20.536 -8.2 L 20.536 -7.268 Z M 19.144000000000002 -2.6199999999999997 C 19.368000000000002 -2.6759999999999997, 19.484 -2.826666666666666, 19.492 -3.072 C 19.497333333333334 -3.2746666666666666, 19.500666666666667 -3.4573333333333336, 19.502000000000002 -3.62 C 19.503333333333337 -3.7826666666666666, 19.49866666666667 -3.94, 19.488 -4.092 C 19.48 -4.2493333333333325, 19.432000000000002 -4.382666666666666, 19.344 -4.492 C 19.256 -4.601333333333333, 19.089333333333332 -4.653333333333332, 18.844 -4.648 L 18.096 -4.64 L 18.068 -5.532 L 19.028000000000002 -6.9159999999999995 L 20.216 -6.9159999999999995 L 19.248 -5.564 L 19.28 -5.564 C 19.712 -5.564, 20.028666666666666 -5.441333333333334, 20.23 -5.196 C 20.431333333333335 -4.950666666666666, 20.544 -4.573333333333332, 20.568 -4.064 C 20.573333333333334 -3.992, 20.576666666666668 -3.92, 20.578000000000003 -3.848 C 20.579333333333334 -3.776, 20.580000000000002 -3.705333333333333, 20.580000000000002 -3.6359999999999997 C 20.580000000000002 -3.5666666666666664, 20.579333333333334 -3.4973333333333336, 20.578000000000003 -3.428 C 20.576666666666668 -3.3586666666666662, 20.573333333333334 -3.2879999999999994, 20.568 -3.2159999999999997 C 20.549333333333333 -2.7199999999999998, 20.428666666666665 -2.3553333333333333, 20.206 -2.122 C 19.983333333333334 -1.8886666666666665, 19.630666666666666 -1.7586666666666664, 19.148 -1.7319999999999998 Z M 21.196 -3.2119999999999997 C 21.188000000000002 -3.641333333333333, 21.182666666666666 -4.058, 21.18 -4.462 C 21.177333333333333 -4.866, 21.177999999999997 -5.261333333333333, 21.182 -5.648 C 21.186 -6.034666666666666, 21.190666666666665 -6.416, 21.196 -6.792 C 21.209333333333333 -7.231999999999999, 21.334 -7.577333333333334, 21.57 -7.828 C 21.806 -8.078666666666667, 22.142666666666667 -8.224, 22.58 -8.264 L 22.58 -7.3759999999999994 C 22.382666666666665 -7.32, 22.281333333333333 -7.190666666666667, 22.276 -6.9879999999999995 C 22.262666666666668 -6.617333333333333, 22.253333333333334 -6.269333333333333, 22.248 -5.944 C 22.242666666666665 -5.618666666666666, 22.24 -5.302, 22.24 -4.994 C 22.24 -4.686, 22.242666666666665 -4.371333333333333, 22.248 -4.05 C 22.253333333333334 -3.7286666666666664, 22.262666666666668 -3.3853333333333326, 22.276 -3.0199999999999996 C 22.281333333333333 -2.812, 22.382666666666665 -2.6799999999999997, 22.58 -2.6239999999999997 L 22.58 -1.7359999999999998 C 22.142666666666667 -1.7759999999999998, 21.806 -1.9219999999999997, 21.57 -2.174 C 21.334 -2.4259999999999997, 21.209333333333333 -2.772, 21.196 -3.2119999999999997 Z M 23.084 -1.7359999999999998 L 23.084 -2.6279999999999997 C 23.268 -2.681333333333333, 23.366666666666667 -2.8053333333333335, 23.38 -3 C 23.398666666666667 -3.4666666666666663, 23.410666666666668 -3.915333333333333, 23.416 -4.346 C 23.421333333333333 -4.776666666666666, 23.421333333333333 -5.207333333333333, 23.416 -5.638 C 23.410666666666668 -6.068666666666666, 23.398666666666667 -6.521333333333333, 23.38 -6.9959999999999996 C 23.374666666666666 -7.190666666666667, 23.276 -7.317333333333334, 23.084 -7.3759999999999994 L 23.084 -8.264 C 23.513333333333335 -8.224, 23.846666666666668 -8.078666666666667, 24.084 -7.828 C 24.321333333333335 -7.577333333333334, 24.44533333333333 -7.231999999999999, 24.456 -6.792 C 24.46666666666667 -6.477333333333332, 24.474666666666668 -6.167333333333333, 24.48 -5.861999999999999 C 24.485333333333333 -5.556666666666667, 24.488 -5.256, 24.488 -4.96 C 24.488 -4.664, 24.485333333333333 -4.370666666666667, 24.48 -4.08 C 24.474666666666668 -3.7893333333333334, 24.46666666666667 -3.5, 24.456 -3.2119999999999997 C 24.439999999999998 -2.761333333333333, 24.311999999999998 -2.4126666666666665, 24.072 -2.166 C 23.832 -1.9193333333333331, 23.502666666666666 -1.7759999999999998, 23.084 -1.7359999999999998 Z M 26.944 -1.7999999999999998 L 26.944 -8.2 L 28.003999999999998 -8.2 L 28.003999999999998 -1.7999999999999998 Z " stroke="none" fill-rule="nonzero" fill="#000000" fill-opacity="1" transform="matrix(1,0,0,1,5.05,13.314)" id="text30 l" />
  <path d="M -5 -13.264 L 35 -13.264 L 35 267.18222390492735 L -5 267.18222390492735 Z " stroke="#FF0000" stroke-opacity="1" stroke-width="0.1" stroke-linecap="butt" stroke-linejoin="miter" fill="none" transform="matrix(1,0,0,1,5.05,13.314)" />
</svg>