<?xml version="1.0" encoding="UTF-8"?>
<svg xmlns:xlink="http://www.w3.org/1999/xlink" viewBox="0 0 35.1 342.3878765083831" version="1.1" style="font-synthesis: none;" width="35.1mm" height="342.3878765083831mm" xmlns="http://www.w3.org/2000/svg">
  <defs />
  <style>	</style>
  <path d="M 0 0 L 35.1 0 L 35.1 342.3878765083831 L 0 342.3878765083831 Z " stroke="none" fill-rule="nonzero" fill="#FFFFFF" fill-opacity="1" transform="matrix(1,0,0,1,0,0)" />
  <path d="M 0 321.5058765083831 L 10 321.5058765083831 L 10 323.0058765083831 L 0 323.0058765083831 Z " stroke="none" fill-rule="evenodd" fill="#000000" fill-opacity="1" transform="matrix(1,0,0,1,5.05,13.314)" id="mark1 l" />
  <path d="M 0 314.9292259673957 L 10 314.9292259673957 L 10 316.4292259673957 L 0 316.4292259673957 Z " stroke="none" fill-rule="evenodd" fill="#000000" fill-opacity="1" transform="matrix(1,0,0,1,5.05,13.314)" id="mark2 l" />
  <path d="M 0 308.3525754264083 L 10 308.3525754264083 L 10 309.8525754264083 L 0 309.8525754264083 Z " stroke="none" fill-rule="evenodd" fill="#000000" fill-opacity="1" transform="matrix(1,0,0,1,5.05,13.314)" id="mark3 l" />
  <path d="M 0 301.77592488542086 L 10 301.77592488542086 L 10 303.27592488542086 L 0 303.27592488542086 Z " stroke="none" fill-rule="evenodd" fill="#000000" fill-opacity="1" transform="matrix(1,0,0,1,5.05,13.314)" id="mark4 l" />
  <path d="M 0 295.1992743444335 L 25 295.1992743444335 L 25 296.6992743444335 L 0 296.6992743444335 Z " stroke="none" fill-rule="evenodd" fill="#000000" fill-opacity="1" transform="matrix(1,0,0,1,5.05,13.314)" id="mark5 l" />
  <path d="M 16.18 292.7012743444335 C 16.174666666666667 292.52794101110015, 16.173333333333332 292.38860767776686, 16.176 292.2832743444335 C 16.178666666666665 292.17794101110013, 16.181333333333335 292.07594101110016, 16.183999999999997 291.9772743444335 L 17.264 291.9772743444335 C 17.256 292.05460767776685, 17.25 292.15060767776686, 17.246 292.2652743444335 C 17.241999999999997 292.3799410111002, 17.240666666666666 292.49060767776683, 17.241999999999997 292.5972743444335 C 17.243333333333332 292.70394101110014, 17.246666666666666 292.7839410111002, 17.252 292.8372743444335 C 17.262666666666668 292.9572743444335, 17.297333333333334 293.0552743444335, 17.355999999999998 293.1312743444335 C 17.414666666666665 293.2072743444335, 17.497333333333334 293.26127434443345, 17.604 293.2932743444335 L 17.604 294.1852743444335 C 17.110666666666663 294.14794101110016, 16.75333333333333 294.0132743444335, 16.532 293.7812743444335 C 16.310666666666666 293.54927434443346, 16.19333333333333 293.1892743444335, 16.18 292.7012743444335 Z M 16.279999999999998 291.3652743444335 L 16.279999999999998 287.7172743444335 L 17.348 287.7172743444335 L 17.348 291.3652743444335 Z M 17.852 290.9412743444335 L 17.852 290.1852743444335 C 17.929333333333332 290.14527434443346, 18.014666666666667 290.1132743444335, 18.107999999999997 290.0892743444335 C 18.20133333333333 290.0652743444335, 18.301333333333332 290.0532743444335, 18.407999999999998 290.0532743444335 C 18.773333333333333 290.0532743444335, 19.047333333333334 290.16860767776683, 19.23 290.3992743444335 C 19.412666666666667 290.62994101110013, 19.514666666666663 290.94394101110015, 19.535999999999998 291.3412743444335 C 19.546666666666667 291.50127434443345, 19.55333333333333 291.65994101110016, 19.555999999999997 291.8172743444335 C 19.558666666666664 291.9746076777668, 19.557333333333332 292.1279410111001, 19.552 292.2772743444335 C 19.546666666666667 292.4266076777668, 19.538666666666668 292.5666076777668, 19.528 292.6972743444335 C 19.482666666666667 293.1959410111001, 19.353333333333335 293.56127434443346, 19.14 293.7932743444335 C 18.926666666666666 294.0252743444335, 18.581333333333333 294.15594101110014, 18.104 294.1852743444335 L 18.104 293.2932743444335 C 18.21333333333333 293.2639410111002, 18.296 293.2112743444335, 18.352 293.13527434443347 C 18.408 293.0592743444335, 18.44 292.95994101110017, 18.448 292.8372743444335 C 18.471999999999998 292.5466076777668, 18.485999999999997 292.2852743444335, 18.49 292.0532743444335 C 18.494 291.8212743444335, 18.485333333333333 291.59994101110016, 18.464 291.3892743444335 C 18.447999999999997 291.23460767776686, 18.396666666666665 291.1192743444335, 18.31 291.0432743444335 C 18.223333333333333 290.96727434443346, 18.090666666666664 290.9292743444335, 17.912 290.9292743444335 C 17.901333333333334 290.9292743444335, 17.890666666666668 290.93060767776683, 17.88 290.93327434443347 C 17.86933333333333 290.93594101110017, 17.86 290.93860767776687, 17.852 290.9412743444335 Z M 17.852 288.6492743444335 L 17.852 287.7172743444335 L 19.439999999999998 287.7172743444335 L 19.439999999999998 288.6492743444335 Z M 21.944 294.1172743444335 L 21.944 287.7172743444335 L 23.003999999999998 287.7172743444335 L 23.003999999999998 294.1172743444335 Z " stroke="none" fill-rule="nonzero" fill="#000000" fill-opacity="1" transform="matrix(1,0,0,1,5.05,13.314)" id="text5 l" />
  <path d="M 0 288.62262380344606 L 10 288.62262380344606 L 10 290.12262380344606 L 0 290.12262380344606 Z " stroke="none" fill-rule="evenodd" fill="#000000" fill-opacity="1" transform="matrix(1,0,0,1,5.05,13.314)" id="mark6 l" />
  <path d="M 0 282.04597326245863 L 10 282.04597326245863 L 10 283.54597326245863 L 0 283.54597326245863 Z " stroke="none" fill-rule="evenodd" fill="#000000" fill-opacity="1" transform="matrix(1,0,0,1,5.05,13.314)" id="mark7 l" />
  <path d="M 0 275.46932272147126 L 10 275.46932272147126 L 10 276.96932272147126 L 0 276.96932272147126 Z " stroke="none" fill-rule="evenodd" fill="#000000" fill-opacity="1" transform="matrix(1,0,0,1,5.05,13.314)" id="mark8 l" />
  <path d="M 0 268.8926721804838 L 10 268.8926721804838 L 10 270.3926721804838 L 0 270.3926721804838 Z " stroke="none" fill-rule="evenodd" fill="#000000" fill-opacity="1" transform="matrix(1,0,0,1,5.05,13.314)" id="mark9 l" />
  <path d="M 0 262.3160216394964 L 25 262.3160216394964 L 25 263.8160216394964 L 0 263.8160216394964 Z " stroke="none" fill-rule="evenodd" fill="#000000" fill-opacity="1" transform="matrix(1,0,0,1,5.05,13.314)" id="mark10 l" />
  <path d="M 14.323999999999998 261.2660216394964 L 14.323999999999998 255.8220216394964 L 13.871999999999998 255.8220216394964 L 13.839999999999998 255.44202163949637 L 14.543999999999999 254.86602163949638 L 15.424 254.86602163949638 L 15.424 261.2660216394964 Z M 16.196 259.8540216394964 C 16.188000000000002 259.42468830616303, 16.182666666666666 259.0080216394964, 16.18 258.6040216394964 C 16.177333333333333 258.2000216394964, 16.177999999999997 257.80468830616303, 16.182 257.4180216394964 C 16.186 257.0313549728297, 16.190666666666665 256.6500216394964, 16.196 256.27402163949637 C 16.209333333333333 255.83402163949637, 16.334000000000003 255.48868830616306, 16.57 255.2380216394964 C 16.805999999999997 254.98735497282973, 17.142666666666663 254.8420216394964, 17.58 254.8020216394964 L 17.58 255.6900216394964 C 17.382666666666665 255.7460216394964, 17.281333333333333 255.87535497282974, 17.276 256.0780216394964 C 17.262666666666668 256.44868830616304, 17.253333333333334 256.79668830616305, 17.248 257.1220216394964 C 17.242666666666665 257.4473549728297, 17.24 257.7640216394964, 17.24 258.07202163949637 C 17.24 258.38002163949636, 17.242666666666665 258.694688306163, 17.248 259.0160216394964 C 17.253333333333334 259.33735497282976, 17.262666666666668 259.68068830616306, 17.276 260.04602163949636 C 17.281333333333333 260.2540216394964, 17.382666666666665 260.3860216394964, 17.58 260.4420216394964 L 17.58 261.3300216394964 C 17.142666666666663 261.2900216394964, 16.805999999999997 261.1440216394964, 16.57 260.89202163949636 C 16.334000000000003 260.64002163949635, 16.209333333333333 260.29402163949635, 16.196 259.8540216394964 Z M 18.084 261.3300216394964 L 18.084 260.4380216394964 C 18.268 260.38468830616307, 18.366666666666667 260.26068830616305, 18.38 260.0660216394964 C 18.398666666666667 259.59935497282976, 18.410666666666668 259.1506883061631, 18.416 258.7200216394964 C 18.421333333333333 258.2893549728297, 18.421333333333333 257.858688306163, 18.416 257.42802163949636 C 18.410666666666668 256.9973549728297, 18.398666666666667 256.54468830616304, 18.38 256.07002163949636 C 18.374666666666666 255.8753549728297, 18.276 255.74868830616305, 18.084 255.6900216394964 L 18.084 254.8020216394964 C 18.513333333333335 254.8420216394964, 18.846666666666668 254.98735497282973, 19.084 255.2380216394964 C 19.321333333333335 255.48868830616306, 19.445333333333334 255.83402163949637, 19.456 256.27402163949637 C 19.46666666666667 256.5886883061631, 19.474666666666668 256.8986883061631, 19.48 257.2040216394964 C 19.485333333333333 257.5093549728297, 19.488 257.8100216394964, 19.488 258.10602163949636 C 19.488 258.4020216394964, 19.485333333333333 258.6953549728297, 19.48 258.9860216394964 C 19.474666666666668 259.27668830616307, 19.46666666666667 259.5660216394964, 19.456 259.8540216394964 C 19.439999999999998 260.30468830616303, 19.311999999999998 260.65335497282973, 19.072 260.9000216394964 C 18.832 261.14668830616307, 18.502666666666666 261.2900216394964, 18.084 261.3300216394964 Z M 21.944 261.2660216394964 L 21.944 254.86602163949638 L 23.003999999999998 254.86602163949638 L 23.003999999999998 261.2660216394964 Z " stroke="none" fill-rule="nonzero" fill="#000000" fill-opacity="1" transform="matrix(1,0,0,1,5.05,13.314)" id="text10 l" />
  <path d="M 0 255.73937109850903 L 10 255.73937109850903 L 10 257.239371098509 L 0 257.239371098509 Z " stroke="none" fill-rule="evenodd" fill="#000000" fill-opacity="1" transform="matrix(1,0,0,1,5.05,13.314)" id="mark11 l" />
  <path d="M 0 249.1627205575216 L 10 249.1627205575216 L 10 250.6627205575216 L 0 250.6627205575216 Z " stroke="none" fill-rule="evenodd" fill="#000000" fill-opacity="1" transform="matrix(1,0,0,1,5.05,13.314)" id="mark12 l" />
  <path d="M 0 242.5860700165342 L 10 242.5860700165342 L 10 244.0860700165342 L 0 244.0860700165342 Z " stroke="none" fill-rule="evenodd" fill="#000000" fill-opacity="1" transform="matrix(1,0,0,1,5.05,13.314)" id="mark13 l" />
  <path d="M 0 236.0094194755468 L 10 236.0094194755468 L 10 237.5094194755468 L 0 237.5094194755468 Z " stroke="none" fill-rule="evenodd" fill="#000000" fill-opacity="1" transform="matrix(1,0,0,1,5.05,13.314)" id="mark14 l" />
  <path d="M 0 229.43276893455936 L 25 229.43276893455936 L 25 230.93276893455936 L 0 230.93276893455936 Z " stroke="none" fill-rule="evenodd" fill="#000000" fill-opacity="1" transform="matrix(1,0,0,1,5.05,13.314)" id="mark15 l" />
  <path d="M 14.331999999999999 228.35076893455937 L 14.331999999999999 222.90676893455938 L 13.879999999999999 222.90676893455938 L 13.847999999999999 222.52676893455936 L 14.552 221.95076893455936 L 15.432 221.95076893455936 L 15.432 228.35076893455937 Z M 16.18 226.93476893455937 C 16.174666666666667 226.76143560122605, 16.173333333333332 226.62210226789273, 16.176 226.51676893455937 C 16.178666666666665 226.41143560122606, 16.181333333333335 226.30943560122606, 16.183999999999997 226.21076893455938 L 17.264 226.21076893455938 C 17.256 226.2881022678927, 17.25 226.38410226789267, 17.246 226.49876893455937 C 17.241999999999997 226.613435601226, 17.240666666666666 226.7241022678927, 17.241999999999997 226.83076893455936 C 17.243333333333332 226.937435601226, 17.246666666666666 227.01743560122603, 17.252 227.07076893455937 C 17.262666666666668 227.19076893455937, 17.297333333333334 227.28876893455936, 17.355999999999998 227.36476893455938 C 17.414666666666665 227.44076893455934, 17.497333333333334 227.49476893455937, 17.604 227.52676893455936 L 17.604 228.41876893455938 C 17.110666666666663 228.38143560122603, 16.75333333333333 228.24676893455938, 16.532 228.01476893455936 C 16.310666666666666 227.78276893455939, 16.19333333333333 227.42276893455937, 16.18 226.93476893455937 Z M 16.279999999999998 225.59876893455936 L 16.279999999999998 221.95076893455936 L 17.348 221.95076893455936 L 17.348 225.59876893455936 Z M 17.852 225.17476893455938 L 17.852 224.41876893455938 C 17.929333333333332 224.3787689345594, 18.014666666666667 224.34676893455938, 18.107999999999997 224.32276893455938 C 18.20133333333333 224.29876893455938, 18.301333333333332 224.28676893455938, 18.407999999999998 224.28676893455938 C 18.773333333333333 224.28676893455938, 19.047333333333334 224.4021022678927, 19.23 224.63276893455938 C 19.412666666666667 224.86343560122606, 19.514666666666663 225.17743560122602, 19.535999999999998 225.57476893455936 C 19.546666666666667 225.73476893455938, 19.55333333333333 225.89343560122603, 19.555999999999997 226.05076893455936 C 19.558666666666664 226.2081022678927, 19.557333333333332 226.36143560122605, 19.552 226.51076893455937 C 19.546666666666667 226.66010226789268, 19.538666666666668 226.80010226789267, 19.528 226.93076893455938 C 19.482666666666667 227.42943560122603, 19.353333333333335 227.7947689345594, 19.14 228.02676893455936 C 18.926666666666666 228.25876893455938, 18.581333333333333 228.38943560122607, 18.104 228.41876893455938 L 18.104 227.52676893455936 C 18.21333333333333 227.49743560122602, 18.296 227.44476893455936, 18.352 227.36876893455937 C 18.408 227.29276893455938, 18.44 227.19343560122604, 18.448 227.07076893455937 C 18.471999999999998 226.7801022678927, 18.485999999999997 226.51876893455938, 18.49 226.28676893455938 C 18.494 226.05476893455938, 18.485333333333333 225.83343560122603, 18.464 225.62276893455936 C 18.447999999999997 225.46810226789268, 18.396666666666665 225.35276893455938, 18.31 225.27676893455936 C 18.223333333333333 225.2007689345594, 18.090666666666664 225.16276893455938, 17.912 225.16276893455938 C 17.901333333333334 225.16276893455938, 17.890666666666668 225.1641022678927, 17.88 225.16676893455937 C 17.86933333333333 225.16943560122604, 17.86 225.17210226789268, 17.852 225.17476893455938 Z M 17.852 222.88276893455938 L 17.852 221.95076893455936 L 19.439999999999998 221.95076893455936 L 19.439999999999998 222.88276893455938 Z M 21.944 228.35076893455937 L 21.944 221.95076893455936 L 23.003999999999998 221.95076893455936 L 23.003999999999998 228.35076893455937 Z " stroke="none" fill-rule="nonzero" fill="#000000" fill-opacity="1" transform="matrix(1,0,0,1,5.05,13.314)" id="text15 l" />
  <path d="M 0 222.85611839357196 L 10 222.85611839357196 L 10 224.35611839357196 L 0 224.35611839357196 Z " stroke="none" fill-rule="evenodd" fill="#000000" fill-opacity="1" transform="matrix(1,0,0,1,5.05,13.314)" id="mark16 l" />
  <path d="M 0 216.27946785258456 L 10 216.27946785258456 L 10 217.77946785258456 L 0 217.77946785258456 Z " stroke="none" fill-rule="evenodd" fill="#000000" fill-opacity="1" transform="matrix(1,0,0,1,5.05,13.314)" id="mark17 l" />
  <path d="M 0 209.70281731159713 L 10 209.70281731159713 L 10 211.20281731159713 L 0 211.20281731159713 Z " stroke="none" fill-rule="evenodd" fill="#000000" fill-opacity="1" transform="matrix(1,0,0,1,5.05,13.314)" id="mark18 l" />
  <path d="M 0 203.12616677060973 L 10 203.12616677060973 L 10 204.62616677060973 L 0 204.62616677060973 Z " stroke="none" fill-rule="evenodd" fill="#000000" fill-opacity="1" transform="matrix(1,0,0,1,5.05,13.314)" id="mark19 l" />
  <path d="M 0 196.54951622962233 L 25 196.54951622962233 L 25 198.04951622962233 L 0 198.04951622962233 Z " stroke="none" fill-rule="evenodd" fill="#000000" fill-opacity="1" transform="matrix(1,0,0,1,5.05,13.314)" id="mark20 l" />
  <path d="M 12.319999999999999 195.49951622962234 C 12.317333333333334 195.40084956295567, 12.315333333333331 195.31218289628902, 12.313999999999998 195.23351622962235 C 12.312666666666665 195.1548495629557, 12.311333333333334 195.08084956295568, 12.309999999999999 195.01151622962234 C 12.308666666666667 194.942182896289, 12.308 194.870182896289, 12.308 194.79551622962234 C 12.308 194.72084956295566, 12.308 194.63618289628903, 12.308 194.54151622962235 C 12.308 194.44684956295566, 12.309333333333335 194.33551622962233, 12.312 194.20751622962234 C 12.32 193.914182896289, 12.37 193.652182896289, 12.462 193.42151622962234 C 12.554 193.1908495629557, 12.687999999999999 192.98484956295567, 12.863999999999999 192.80351622962235 C 13.04 192.62218289628902, 13.257333333333333 192.46084956295567, 13.515999999999998 192.31951622962234 L 14.047999999999998 192.03151622962235 C 14.234666666666666 191.930182896289, 14.354 191.808182896289, 14.405999999999999 191.66551622962234 C 14.457999999999998 191.52284956295568, 14.488 191.38884956295567, 14.495999999999999 191.26351622962235 C 14.506666666666664 191.11684956295568, 14.512666666666664 190.960182896289, 14.514 190.79351622962236 C 14.51533333333333 190.6268495629557, 14.511999999999997 190.47018289628903, 14.504 190.32351622962236 C 14.498666666666665 190.21951622962234, 14.468666666666666 190.13351622962233, 14.413999999999998 190.06551622962235 C 14.359333333333332 189.99751622962236, 14.279999999999998 189.94884956295567, 14.175999999999998 189.91951622962233 L 14.175999999999998 189.03151622962235 C 14.663999999999998 189.06351622962237, 15.014 189.19484956295568, 15.225999999999999 189.42551622962233 C 15.437999999999999 189.656182896289, 15.554666666666666 190.01684956295566, 15.575999999999999 190.50751622962235 C 15.578666666666663 190.57151622962238, 15.580666666666666 190.6368495629557, 15.581999999999999 190.70351622962235 C 15.583333333333332 190.77018289628901, 15.584 190.8348495629557, 15.584 190.89751622962234 C 15.584 190.96018289628898, 15.583333333333332 191.022182896289, 15.581999999999999 191.08351622962235 C 15.580666666666666 191.14484956295567, 15.578666666666663 191.20484956295567, 15.575999999999999 191.26351622962235 C 15.565333333333331 191.5488495629557, 15.512 191.79551622962236, 15.415999999999999 192.00351622962233 C 15.32 192.21151622962236, 15.19 192.39151622962237, 15.026 192.54351622962236 C 14.862 192.69551622962234, 14.672 192.83151622962237, 14.456 192.95151622962234 L 13.851999999999999 193.27951622962235 C 13.737333333333332 193.34084956295567, 13.647333333333332 193.42484956295567, 13.581999999999999 193.53151622962235 C 13.516666666666666 193.63818289628904, 13.469999999999999 193.75151622962235, 13.441999999999998 193.87151622962233 C 13.413999999999998 193.99151622962233, 13.399999999999999 194.10351622962236, 13.399999999999999 194.20751622962234 L 13.399999999999999 195.49951622962234 Z M 12.328 191.45951622962235 C 12.322666666666667 191.34218289628902, 12.318666666666665 191.22751622962235, 12.315999999999999 191.11551622962236 C 12.313333333333333 191.00351622962236, 12.311333333333334 190.89751622962234, 12.309999999999999 190.79751622962235 C 12.308666666666667 190.69751622962235, 12.309333333333335 190.60084956295566, 12.312 190.50751622962235 C 12.330666666666666 190.01951622962235, 12.447333333333333 189.66018289628903, 12.661999999999999 189.42951622962235 C 12.876666666666665 189.19884956295567, 13.213333333333331 189.066182896289, 13.671999999999999 189.03151622962235 L 13.671999999999999 189.92351622962235 C 13.576 189.95284956295566, 13.505333333333333 189.99951622962234, 13.459999999999999 190.06351622962234 C 13.414666666666665 190.12751622962233, 13.390666666666664 190.20484956295567, 13.387999999999998 190.29551622962234 C 13.382666666666665 190.50351622962233, 13.379333333333333 190.6968495629557, 13.378 190.87551622962235 C 13.376666666666667 191.054182896289, 13.381333333333334 191.24884956295568, 13.392 191.45951622962235 Z M 13.904 195.49951622962234 L 13.904 194.56751622962236 L 15.5 194.56751622962236 L 15.5 195.49951622962234 Z M 16.196 194.08751622962234 C 16.188000000000002 193.658182896289, 16.182666666666666 193.24151622962233, 16.18 192.83751622962234 C 16.177333333333333 192.43351622962234, 16.177999999999997 192.038182896289, 16.182 191.65151622962233 C 16.186 191.26484956295567, 16.190666666666665 190.88351622962233, 16.196 190.50751622962235 C 16.209333333333333 190.06751622962236, 16.334000000000003 189.722182896289, 16.57 189.47151622962235 C 16.805999999999997 189.2208495629557, 17.142666666666663 189.07551622962234, 17.58 189.03551622962235 L 17.58 189.92351622962235 C 17.382666666666665 189.97951622962236, 17.281333333333333 190.1088495629557, 17.276 190.31151622962236 C 17.262666666666668 190.68218289628902, 17.253333333333334 191.030182896289, 17.248 191.35551622962234 C 17.242666666666665 191.68084956295567, 17.24 191.99751622962236, 17.24 192.30551622962236 C 17.24 192.61351622962235, 17.242666666666665 192.928182896289, 17.248 193.24951622962234 C 17.253333333333334 193.5708495629557, 17.262666666666668 193.914182896289, 17.276 194.27951622962235 C 17.281333333333333 194.48751622962237, 17.382666666666665 194.61951622962235, 17.58 194.67551622962233 L 17.58 195.56351622962234 C 17.142666666666663 195.52351622962232, 16.805999999999997 195.37751622962233, 16.57 195.12551622962235 C 16.334000000000003 194.87351622962234, 16.209333333333333 194.52751622962234, 16.196 194.08751622962234 Z M 18.084 195.56351622962234 L 18.084 194.67151622962234 C 18.268 194.618182896289, 18.366666666666667 194.49418289628903, 18.38 194.29951622962236 C 18.398666666666667 193.8328495629557, 18.410666666666668 193.38418289628902, 18.416 192.95351622962235 C 18.421333333333333 192.52284956295568, 18.421333333333333 192.09218289628902, 18.416 191.66151622962235 C 18.410666666666668 191.23084956295568, 18.398666666666667 190.778182896289, 18.38 190.30351622962235 C 18.374666666666666 190.10884956295567, 18.276 189.982182896289, 18.084 189.92351622962235 L 18.084 189.03551622962235 C 18.513333333333335 189.07551622962234, 18.846666666666668 189.2208495629557, 19.084 189.47151622962235 C 19.321333333333335 189.722182896289, 19.445333333333334 190.06751622962236, 19.456 190.50751622962235 C 19.46666666666667 190.822182896289, 19.474666666666668 191.132182896289, 19.48 191.43751622962233 C 19.485333333333333 191.74284956295566, 19.488 192.04351622962233, 19.488 192.33951622962235 C 19.488 192.63551622962234, 19.485333333333333 192.92884956295566, 19.48 193.21951622962234 C 19.474666666666668 193.51018289628902, 19.46666666666667 193.79951622962236, 19.456 194.08751622962234 C 19.439999999999998 194.53818289628902, 19.311999999999998 194.88684956295566, 19.072 195.13351622962233 C 18.832 195.380182896289, 18.502666666666666 195.52351622962232, 18.084 195.56351622962234 Z M 21.944 195.49951622962234 L 21.944 189.09951622962234 L 23.003999999999998 189.09951622962234 L 23.003999999999998 195.49951622962234 Z " stroke="none" fill-rule="nonzero" fill="#000000" fill-opacity="1" transform="matrix(1,0,0,1,5.05,13.314)" id="text20 l" />
  <path d="M 0 189.9728656886349 L 10 189.9728656886349 L 10 191.4728656886349 L 0 191.4728656886349 Z " stroke="none" fill-rule="evenodd" fill="#000000" fill-opacity="1" transform="matrix(1,0,0,1,5.05,13.314)" id="mark21 l" />
  <path d="M 0 183.3962151476475 L 10 183.3962151476475 L 10 184.8962151476475 L 0 184.8962151476475 Z " stroke="none" fill-rule="evenodd" fill="#000000" fill-opacity="1" transform="matrix(1,0,0,1,5.05,13.314)" id="mark22 l" />
  <path d="M 0 176.8195646066601 L 10 176.8195646066601 L 10 178.3195646066601 L 0 178.3195646066601 Z " stroke="none" fill-rule="evenodd" fill="#000000" fill-opacity="1" transform="matrix(1,0,0,1,5.05,13.314)" id="mark23 l" />
  <path d="M 0 170.2429140656727 L 10 170.2429140656727 L 10 171.7429140656727 L 0 171.7429140656727 Z " stroke="none" fill-rule="evenodd" fill="#000000" fill-opacity="1" transform="matrix(1,0,0,1,5.05,13.314)" id="mark24 l" />
  <path d="M 0 163.66626352468526 L 25 163.66626352468526 L 25 165.16626352468526 L 0 165.16626352468526 Z " stroke="none" fill-rule="evenodd" fill="#000000" fill-opacity="1" transform="matrix(1,0,0,1,5.05,13.314)" id="mark25 l" />
  <path d="M 12.328 162.61626352468528 C 12.325333333333333 162.51759685801863, 12.323333333333332 162.42893019135195, 12.322 162.3502635246853 C 12.320666666666666 162.27159685801863, 12.319333333333333 162.19759685801864, 12.318 162.12826352468528 C 12.316666666666666 162.05893019135192, 12.315999999999999 161.98693019135192, 12.316 161.91226352468527 C 12.315999999999999 161.83759685801863, 12.315999999999999 161.75293019135194, 12.316 161.65826352468528 C 12.315999999999999 161.56359685801863, 12.317333333333334 161.4522635246853, 12.32 161.32426352468528 C 12.328 161.03093019135196, 12.378 160.76893019135196, 12.47 160.53826352468528 C 12.562000000000001 160.3075968580186, 12.696 160.1015968580186, 12.872 159.92026352468528 C 13.048 159.73893019135195, 13.265333333333334 159.57759685801864, 13.524000000000001 159.43626352468527 L 14.056000000000001 159.1482635246853 C 14.242666666666668 159.04693019135195, 14.362000000000002 158.92493019135193, 14.414 158.78226352468528 C 14.466000000000001 158.63959685801862, 14.495999999999999 158.5055968580186, 14.504 158.3802635246853 C 14.514666666666667 158.23359685801861, 14.520666666666667 158.07693019135195, 14.522 157.9102635246853 C 14.523333333333333 157.74359685801863, 14.520000000000001 157.58693019135197, 14.512 157.4402635246853 C 14.506666666666666 157.33626352468528, 14.476666666666667 157.2502635246853, 14.422 157.18226352468528 C 14.367333333333335 157.11426352468527, 14.288 157.0655968580186, 14.184000000000001 157.03626352468527 L 14.184000000000001 156.1482635246853 C 14.672 156.1802635246853, 15.022000000000002 156.31159685801862, 15.234 156.54226352468527 C 15.446000000000002 156.77293019135195, 15.562666666666667 157.13359685801862, 15.584 157.6242635246853 C 15.586666666666668 157.68826352468528, 15.588666666666668 157.75359685801862, 15.59 157.8202635246853 C 15.591333333333335 157.88693019135195, 15.592000000000002 157.9515968580186, 15.592 158.01426352468528 C 15.592000000000002 158.07693019135195, 15.591333333333335 158.13893019135193, 15.59 158.20026352468528 C 15.588666666666668 158.2615968580186, 15.586666666666668 158.3215968580186, 15.584 158.3802635246853 C 15.573333333333332 158.66559685801863, 15.52 158.91226352468527, 15.424 159.12026352468527 C 15.328 159.32826352468527, 15.197999999999999 159.50826352468528, 15.033999999999999 159.6602635246853 C 14.87 159.81226352468528, 14.68 159.94826352468527, 14.464 160.06826352468528 L 13.86 160.39626352468528 C 13.745333333333335 160.45759685801863, 13.655333333333335 160.54159685801864, 13.59 160.6482635246853 C 13.524666666666668 160.75493019135195, 13.478000000000002 160.8682635246853, 13.45 160.9882635246853 C 13.422 161.1082635246853, 13.408 161.22026352468527, 13.408 161.32426352468528 L 13.408 162.61626352468528 Z M 12.336 158.5762635246853 C 12.330666666666666 158.45893019135195, 12.326666666666664 158.34426352468526, 12.324 158.23226352468527 C 12.321333333333332 158.12026352468527, 12.319333333333333 158.01426352468528, 12.318 157.91426352468528 C 12.316666666666666 157.8142635246853, 12.317333333333334 157.71759685801862, 12.32 157.6242635246853 C 12.338666666666668 157.1362635246853, 12.455333333333336 156.77693019135197, 12.67 156.5462635246853 C 12.884666666666668 156.3155968580186, 13.221333333333334 156.18293019135194, 13.68 156.1482635246853 L 13.68 157.0402635246853 C 13.584 157.0695968580186, 13.513333333333332 157.11626352468528, 13.468 157.18026352468527 C 13.422666666666668 157.24426352468527, 13.398666666666667 157.3215968580186, 13.396 157.41226352468527 C 13.390666666666666 157.6202635246853, 13.387333333333332 157.81359685801863, 13.386 157.99226352468528 C 13.384666666666666 158.17093019135194, 13.389333333333333 158.36559685801862, 13.4 158.5762635246853 Z M 13.911999999999999 162.61626352468528 L 13.911999999999999 161.6842635246853 L 15.508 161.6842635246853 L 15.508 162.61626352468528 Z M 16.18 161.20026352468528 C 16.174666666666667 161.02693019135197, 16.173333333333332 160.88759685801864, 16.176 160.78226352468528 C 16.178666666666665 160.67693019135197, 16.181333333333335 160.57493019135197, 16.183999999999997 160.4762635246853 L 17.264 160.4762635246853 C 17.256 160.5535968580186, 17.25 160.6495968580186, 17.246 160.76426352468528 C 17.241999999999997 160.87893019135194, 17.240666666666666 160.98959685801861, 17.241999999999997 161.09626352468527 C 17.243333333333332 161.20293019135192, 17.246666666666666 161.28293019135194, 17.252 161.33626352468528 C 17.262666666666668 161.45626352468528, 17.297333333333334 161.55426352468527, 17.355999999999998 161.6302635246853 C 17.414666666666665 161.70626352468526, 17.497333333333334 161.76026352468526, 17.604 161.79226352468527 L 17.604 162.6842635246853 C 17.110666666666663 162.64693019135194, 16.75333333333333 162.51226352468527, 16.532 162.28026352468527 C 16.310666666666666 162.04826352468527, 16.19333333333333 161.68826352468528, 16.18 161.20026352468528 Z M 16.279999999999998 159.86426352468527 L 16.279999999999998 156.21626352468527 L 17.348 156.21626352468527 L 17.348 159.86426352468527 Z M 17.852 159.4402635246853 L 17.852 158.6842635246853 C 17.929333333333332 158.6442635246853, 18.014666666666667 158.6122635246853, 18.107999999999997 158.5882635246853 C 18.20133333333333 158.5642635246853, 18.301333333333332 158.5522635246853, 18.407999999999998 158.5522635246853 C 18.773333333333333 158.5522635246853, 19.047333333333334 158.6675968580186, 19.23 158.8982635246853 C 19.412666666666667 159.12893019135194, 19.514666666666663 159.44293019135193, 19.535999999999998 159.84026352468527 C 19.546666666666667 160.00026352468527, 19.55333333333333 160.15893019135194, 19.555999999999997 160.31626352468527 C 19.558666666666664 160.47359685801862, 19.557333333333332 160.62693019135196, 19.552 160.77626352468528 C 19.546666666666667 160.9255968580186, 19.538666666666668 161.0655968580186, 19.528 161.1962635246853 C 19.482666666666667 161.69493019135194, 19.353333333333335 162.0602635246853, 19.14 162.29226352468527 C 18.926666666666666 162.5242635246853, 18.581333333333333 162.65493019135195, 18.104 162.6842635246853 L 18.104 161.79226352468527 C 18.21333333333333 161.76293019135196, 18.296 161.71026352468527, 18.352 161.63426352468528 C 18.408 161.5582635246853, 18.44 161.45893019135195, 18.448 161.33626352468528 C 18.471999999999998 161.0455968580186, 18.485999999999997 160.7842635246853, 18.49 160.5522635246853 C 18.494 160.3202635246853, 18.485333333333333 160.09893019135194, 18.464 159.88826352468527 C 18.447999999999997 159.7335968580186, 18.396666666666665 159.61826352468526, 18.31 159.54226352468527 C 18.223333333333333 159.46626352468527, 18.090666666666664 159.4282635246853, 17.912 159.4282635246853 C 17.901333333333334 159.4282635246853, 17.890666666666668 159.4295968580186, 17.88 159.43226352468528 C 17.86933333333333 159.43493019135195, 17.86 159.43759685801862, 17.852 159.4402635246853 Z M 17.852 157.1482635246853 L 17.852 156.21626352468527 L 19.439999999999998 156.21626352468527 L 19.439999999999998 157.1482635246853 Z M 21.944 162.61626352468528 L 21.944 156.21626352468527 L 23.003999999999998 156.21626352468527 L 23.003999999999998 162.61626352468528 Z " stroke="none" fill-rule="nonzero" fill="#000000" fill-opacity="1" transform="matrix(1,0,0,1,5.05,13.314)" id="text25 l" />
  <path d="M 0 157.08961298369786 L 10 157.08961298369786 L 10 158.58961298369786 L 0 158.58961298369786 Z " stroke="none" fill-rule="evenodd" fill="#000000" fill-opacity="1" transform="matrix(1,0,0,1,5.05,13.314)" id="mark26 l" />
  <path d="M 0 150.51296244271046 L 10 150.51296244271046 L 10 152.01296244271046 L 0 152.01296244271046 Z " stroke="none" fill-rule="evenodd" fill="#000000" fill-opacity="1" transform="matrix(1,0,0,1,5.05,13.314)" id="mark27 l" />
  <path d="M 0 143.93631190172303 L 10 143.93631190172303 L 10 145.43631190172303 L 0 145.43631190172303 Z " stroke="none" fill-rule="evenodd" fill="#000000" fill-opacity="1" transform="matrix(1,0,0,1,5.05,13.314)" id="mark28 l" />
  <path d="M 0 137.35966136073563 L 10 137.35966136073563 L 10 138.85966136073563 L 0 138.85966136073563 Z " stroke="none" fill-rule="evenodd" fill="#000000" fill-opacity="1" transform="matrix(1,0,0,1,5.05,13.314)" id="mark29 l" />
  <path d="M 0 130.78301081974823 L 25 130.78301081974823 L 25 132.28301081974823 L 0 132.28301081974823 Z " stroke="none" fill-rule="evenodd" fill="#000000" fill-opacity="1" transform="matrix(1,0,0,1,5.05,13.314)" id="mark30 l" />
  <path d="M 12.223999999999998 128.31701081974825 C 12.221333333333334 128.2156774864149, 12.219333333333333 128.1316774864149, 12.218 128.06501081974824 C 12.216666666666667 127.99834415308158, 12.216666666666667 127.93034415308156, 12.218 127.86101081974824 C 12.219333333333333 127.7916774864149, 12.221333333333334 127.70234415308158, 12.223999999999998 127.59301081974824 L 13.303999999999998 127.59301081974824 L 13.303999999999998 128.45701081974823 C 13.303999999999998 128.69434415308157, 13.417333333333332 128.84501081974824, 13.643999999999998 128.90901081974823 L 13.643999999999998 129.80101081974826 C 13.155999999999999 129.7636774864149, 12.800666666666665 129.62901081974823, 12.578 129.39701081974823 C 12.355333333333334 129.16501081974823, 12.237333333333332 128.80501081974825, 12.223999999999998 128.31701081974825 Z M 12.292 124.26501081974824 L 12.292 123.33301081974824 L 15.536 123.33301081974824 L 15.536 124.26501081974824 Z M 14.143999999999998 128.91301081974825 C 14.367999999999999 128.85701081974824, 14.483999999999998 128.70634415308157, 14.491999999999999 128.46101081974825 C 14.497333333333334 128.2583441530816, 14.500666666666666 128.07567748641492, 14.501999999999999 127.91301081974825 C 14.503333333333332 127.75034415308158, 14.498666666666665 127.59301081974826, 14.488 127.44101081974824 C 14.48 127.28367748641492, 14.431999999999999 127.15034415308158, 14.344 127.04101081974824 C 14.256 126.93167748641491, 14.089333333333332 126.87967748641492, 13.844 126.88501081974825 L 13.096 126.89301081974824 L 13.068 126.00101081974825 L 14.027999999999999 124.61701081974824 L 15.216 124.61701081974824 L 14.248 125.96901081974825 L 14.28 125.96901081974825 C 14.712 125.96901081974825, 15.028666666666666 126.09167748641491, 15.229999999999999 126.33701081974824 C 15.431333333333333 126.58234415308158, 15.544 126.9596774864149, 15.568 127.46901081974825 C 15.57333333333333 127.54101081974824, 15.576666666666664 127.61301081974824, 15.578 127.68501081974824 C 15.57933333333333 127.75701081974825, 15.579999999999998 127.8276774864149, 15.579999999999998 127.89701081974825 C 15.579999999999998 127.96634415308156, 15.57933333333333 128.0356774864149, 15.578 128.10501081974826 C 15.576666666666664 128.17434415308156, 15.57333333333333 128.24501081974825, 15.568 128.31701081974825 C 15.549333333333333 128.81301081974826, 15.428666666666665 129.17767748641492, 15.206 129.41101081974824 C 14.983333333333334 129.64434415308156, 14.630666666666666 129.77434415308159, 14.148 129.80101081974826 Z M 16.196 128.32101081974824 C 16.188000000000002 127.89167748641492, 16.182666666666666 127.47501081974823, 16.18 127.07101081974824 C 16.177333333333333 126.66701081974824, 16.177999999999997 126.27167748641492, 16.182 125.88501081974825 C 16.186 125.49834415308158, 16.190666666666665 125.11701081974824, 16.196 124.74101081974824 C 16.209333333333333 124.30101081974824, 16.334000000000003 123.95567748641491, 16.57 123.70501081974824 C 16.805999999999997 123.45434415308156, 17.142666666666663 123.30901081974824, 17.58 123.26901081974825 L 17.58 124.15701081974825 C 17.382666666666665 124.21301081974825, 17.281333333333333 124.34234415308157, 17.276 124.54501081974824 C 17.262666666666668 124.91567748641489, 17.253333333333334 125.2636774864149, 17.248 125.58901081974824 C 17.242666666666665 125.91434415308157, 17.24 126.23101081974824, 17.24 126.53901081974824 C 17.24 126.84701081974825, 17.242666666666665 127.16167748641492, 17.248 127.48301081974824 C 17.253333333333334 127.80434415308157, 17.262666666666668 128.14767748641492, 17.276 128.51301081974825 C 17.281333333333333 128.72101081974824, 17.382666666666665 128.85301081974825, 17.58 128.90901081974823 L 17.58 129.79701081974824 C 17.142666666666663 129.75701081974825, 16.805999999999997 129.61101081974823, 16.57 129.35901081974825 C 16.334000000000003 129.10701081974824, 16.209333333333333 128.76101081974824, 16.196 128.32101081974824 Z M 18.084 129.79701081974824 L 18.084 128.90501081974824 C 18.268 128.85167748641493, 18.366666666666667 128.72767748641493, 18.38 128.53301081974826 C 18.398666666666667 128.0663441530816, 18.410666666666668 127.61767748641492, 18.416 127.18701081974824 C 18.421333333333333 126.75634415308159, 18.421333333333333 126.32567748641492, 18.416 125.89501081974825 C 18.410666666666668 125.46434415308158, 18.398666666666667 125.01167748641491, 18.38 124.53701081974825 C 18.374666666666666 124.34234415308158, 18.276 124.21567748641492, 18.084 124.15701081974825 L 18.084 123.26901081974825 C 18.513333333333335 123.30901081974824, 18.846666666666668 123.45434415308156, 19.084 123.70501081974824 C 19.321333333333335 123.95567748641491, 19.445333333333334 124.30101081974824, 19.456 124.74101081974824 C 19.46666666666667 125.05567748641491, 19.474666666666668 125.36567748641491, 19.48 125.67101081974825 C 19.485333333333333 125.97634415308158, 19.488 126.27701081974826, 19.488 126.57301081974825 C 19.488 126.86901081974824, 19.485333333333333 127.16234415308159, 19.48 127.45301081974824 C 19.474666666666668 127.74367748641492, 19.46666666666667 128.03301081974826, 19.456 128.32101081974824 C 19.439999999999998 128.77167748641492, 19.311999999999998 129.1203441530816, 19.072 129.36701081974823 C 18.832 129.6136774864149, 18.502666666666666 129.75701081974825, 18.084 129.79701081974824 Z M 21.944 129.73301081974824 L 21.944 123.33301081974824 L 23.003999999999998 123.33301081974824 L 23.003999999999998 129.73301081974824 Z " stroke="none" fill-rule="nonzero" fill="#000000" fill-opacity="1" transform="matrix(1,0,0,1,5.05,13.314)" id="text30 l" />
  <path d="M 0 124.2063602787608 L 10 124.2063602787608 L 10 125.7063602787608 L 0 125.7063602787608 Z " stroke="none" fill-rule="evenodd" fill="#000000" fill-opacity="1" transform="matrix(1,0,0,1,5.05,13.314)" id="mark31 l" />
  <path d="M 0 117.6297097377734 L 10 117.6297097377734 L 10 119.1297097377734 L 0 119.1297097377734 Z " stroke="none" fill-rule="evenodd" fill="#000000" fill-opacity="1" transform="matrix(1,0,0,1,5.05,13.314)" id="mark32 l" />
  <path d="M 0 111.053059196786 L 10 111.053059196786 L 10 112.553059196786 L 0 112.553059196786 Z " stroke="none" fill-rule="evenodd" fill="#000000" fill-opacity="1" transform="matrix(1,0,0,1,5.05,13.314)" id="mark33 l" />
  <path d="M 0 104.47640865579856 L 10 104.47640865579856 L 10 105.97640865579856 L 0 105.97640865579856 Z " stroke="none" fill-rule="evenodd" fill="#000000" fill-opacity="1" transform="matrix(1,0,0,1,5.05,13.314)" id="mark34 l" />
  <path d="M 0 97.89975811481116 L 25 97.89975811481116 L 25 99.39975811481116 L 0 99.39975811481116 Z " stroke="none" fill-rule="evenodd" fill="#000000" fill-opacity="1" transform="matrix(1,0,0,1,5.05,13.314)" id="mark35 l" />
  <path d="M 12.232 95.40175811481117 C 12.229333333333333 95.30042478147784, 12.227333333333334 95.21642478147784, 12.226 95.14975811481116 C 12.224666666666668 95.0830914481445, 12.224666666666668 95.0150914481445, 12.226 94.94575811481117 C 12.227333333333334 94.87642478147784, 12.229333333333333 94.78709144814451, 12.232 94.67775811481117 L 13.312 94.67775811481117 L 13.312 95.54175811481117 C 13.312 95.7790914481445, 13.425333333333333 95.92975811481116, 13.652 95.99375811481117 L 13.652 96.88575811481117 C 13.164 96.84842478147783, 12.808666666666667 96.71375811481116, 12.586 96.48175811481117 C 12.363333333333333 96.24975811481116, 12.245333333333335 95.88975811481117, 12.232 95.40175811481117 Z M 12.3 91.34975811481117 L 12.3 90.41775811481116 L 15.544 90.41775811481116 L 15.544 91.34975811481117 Z M 14.152000000000001 95.99775811481118 C 14.376000000000001 95.94175811481118, 14.492 95.7910914481445, 14.5 95.54575811481116 C 14.505333333333333 95.3430914481445, 14.508666666666667 95.16042478147784, 14.51 94.99775811481118 C 14.511333333333333 94.83509144814451, 14.506666666666668 94.67775811481117, 14.496 94.52575811481117 C 14.488 94.36842478147783, 14.440000000000001 94.23509144814449, 14.352 94.12575811481116 C 14.264 94.01642478147784, 14.097333333333335 93.96442478147785, 13.852 93.96975811481117 L 13.104 93.97775811481117 L 13.076 93.08575811481117 L 14.036 91.70175811481117 L 15.224 91.70175811481117 L 14.256 93.05375811481117 L 14.288 93.05375811481117 C 14.719999999999999 93.05375811481117, 15.036666666666665 93.17642478147783, 15.238 93.42175811481117 C 15.439333333333334 93.6670914481445, 15.552 94.04442478147783, 15.576 94.55375811481117 C 15.581333333333333 94.62575811481116, 15.584666666666667 94.69775811481117, 15.586 94.76975811481117 C 15.587333333333333 94.84175811481117, 15.588000000000001 94.91242478147784, 15.588000000000001 94.98175811481117 C 15.588000000000001 95.0510914481445, 15.587333333333333 95.12042478147784, 15.586 95.18975811481117 C 15.584666666666667 95.2590914481445, 15.581333333333333 95.32975811481117, 15.576 95.40175811481117 C 15.557333333333334 95.89775811481118, 15.436666666666667 96.26242478147785, 15.214 96.49575811481117 C 14.991333333333333 96.72909144814452, 14.638666666666666 96.85909144814451, 14.156 96.88575811481117 Z M 16.18 95.40175811481117 C 16.174666666666667 95.22842478147784, 16.173333333333332 95.0890914481445, 16.176 94.98375811481117 C 16.178666666666665 94.87842478147783, 16.181333333333335 94.77642478147783, 16.183999999999997 94.67775811481117 L 17.264 94.67775811481117 C 17.256 94.7550914481445, 17.25 94.8510914481445, 17.246 94.96575811481117 C 17.241999999999997 95.08042478147783, 17.240666666666666 95.1910914481445, 17.241999999999997 95.29775811481117 C 17.243333333333332 95.40442478147784, 17.246666666666666 95.48442478147784, 17.252 95.53775811481117 C 17.262666666666668 95.65775811481117, 17.297333333333334 95.75575811481117, 17.355999999999998 95.83175811481117 C 17.414666666666665 95.90775811481117, 17.497333333333334 95.96175811481118, 17.604 95.99375811481117 L 17.604 96.88575811481117 C 17.110666666666663 96.84842478147783, 16.75333333333333 96.71375811481116, 16.532 96.48175811481117 C 16.310666666666666 96.24975811481116, 16.19333333333333 95.88975811481117, 16.18 95.40175811481117 Z M 16.279999999999998 94.06575811481117 L 16.279999999999998 90.41775811481116 L 17.348 90.41775811481116 L 17.348 94.06575811481117 Z M 17.852 93.64175811481117 L 17.852 92.88575811481117 C 17.929333333333332 92.84575811481116, 18.014666666666667 92.81375811481117, 18.107999999999997 92.78975811481116 C 18.20133333333333 92.76575811481118, 18.301333333333332 92.75375811481118, 18.407999999999998 92.75375811481118 C 18.773333333333333 92.75375811481118, 19.047333333333334 92.8690914481445, 19.23 93.09975811481117 C 19.412666666666667 93.33042478147783, 19.514666666666663 93.64442478147784, 19.535999999999998 94.04175811481117 C 19.546666666666667 94.20175811481117, 19.55333333333333 94.36042478147783, 19.555999999999997 94.51775811481117 C 19.558666666666664 94.67509144814451, 19.557333333333332 94.82842478147784, 19.552 94.97775811481117 C 19.546666666666667 95.1270914481445, 19.538666666666668 95.2670914481445, 19.528 95.39775811481117 C 19.482666666666667 95.89642478147785, 19.353333333333335 96.26175811481119, 19.14 96.49375811481117 C 18.926666666666666 96.72575811481119, 18.581333333333333 96.85642478147784, 18.104 96.88575811481117 L 18.104 95.99375811481117 C 18.21333333333333 95.96442478147785, 18.296 95.91175811481118, 18.352 95.83575811481117 C 18.408 95.75975811481116, 18.44 95.66042478147783, 18.448 95.53775811481117 C 18.471999999999998 95.2470914481445, 18.485999999999997 94.98575811481118, 18.49 94.75375811481118 C 18.494 94.52175811481116, 18.485333333333333 94.30042478147783, 18.464 94.08975811481118 C 18.447999999999997 93.9350914481445, 18.396666666666665 93.81975811481118, 18.31 93.74375811481117 C 18.223333333333333 93.66775811481116, 18.090666666666664 93.62975811481117, 17.912 93.62975811481117 C 17.901333333333334 93.62975811481117, 17.890666666666668 93.6310914481445, 17.88 93.63375811481117 C 17.86933333333333 93.63642478147783, 17.86 93.6390914481445, 17.852 93.64175811481117 Z M 17.852 91.34975811481117 L 17.852 90.41775811481116 L 19.439999999999998 90.41775811481116 L 19.439999999999998 91.34975811481117 Z M 21.944 96.81775811481117 L 21.944 90.41775811481116 L 23.003999999999998 90.41775811481116 L 23.003999999999998 96.81775811481117 Z " stroke="none" fill-rule="nonzero" fill="#000000" fill-opacity="1" transform="matrix(1,0,0,1,5.05,13.314)" id="text35 l" />
  <path d="M 0 91.32310757382376 L 10 91.32310757382376 L 10 92.82310757382376 L 0 92.82310757382376 Z " stroke="none" fill-rule="evenodd" fill="#000000" fill-opacity="1" transform="matrix(1,0,0,1,5.05,13.314)" id="mark36 l" />
  <path d="M 0 84.74645703283636 L 10 84.74645703283636 L 10 86.24645703283636 L 0 86.24645703283636 Z " stroke="none" fill-rule="evenodd" fill="#000000" fill-opacity="1" transform="matrix(1,0,0,1,5.05,13.314)" id="mark37 l" />
  <path d="M 0 78.16980649184893 L 10 78.16980649184893 L 10 79.66980649184893 L 0 79.66980649184893 Z " stroke="none" fill-rule="evenodd" fill="#000000" fill-opacity="1" transform="matrix(1,0,0,1,5.05,13.314)" id="mark38 l" />
  <path d="M 0 71.5931559508615 L 10 71.5931559508615 L 10 73.0931559508615 L 0 73.0931559508615 Z " stroke="none" fill-rule="evenodd" fill="#000000" fill-opacity="1" transform="matrix(1,0,0,1,5.05,13.314)" id="mark39 l" />
  <path d="M 0 65.01650540987413 L 25 65.01650540987413 L 25 66.51650540987413 L 0 66.51650540987413 Z " stroke="none" fill-rule="evenodd" fill="#000000" fill-opacity="1" transform="matrix(1,0,0,1,5.05,13.314)" id="mark40 l" />
  <path d="M 11.739999999999998 62.282505409874126 L 11.739999999999998 61.40650540987412 L 12.455999999999998 59.526505409874126 L 13.495999999999999 59.526505409874126 L 12.771999999999998 61.35850540987413 L 13.171999999999997 61.35850540987413 L 13.171999999999997 62.282505409874126 Z M 13.675999999999998 63.966505409874124 L 13.675999999999998 57.566505409874125 L 14.683999999999997 57.566505409874125 L 14.683999999999997 63.966505409874124 Z M 15.187999999999999 62.282505409874126 L 15.187999999999999 61.35850540987413 L 15.655999999999999 61.35850540987413 L 15.655999999999999 62.282505409874126 Z M 16.195999999999998 62.554505409874125 C 16.188 62.12517207654079, 16.182666666666666 61.70850540987412, 16.18 61.304505409874125 C 16.177333333333333 60.90050540987413, 16.177999999999997 60.50517207654079, 16.182 60.118505409874125 C 16.186 59.73183874320746, 16.190666666666665 59.350505409874124, 16.195999999999998 58.974505409874126 C 16.20933333333333 58.53450540987412, 16.333999999999996 58.189172076540785, 16.569999999999997 57.938505409874125 C 16.805999999999997 57.68783874320745, 17.142666666666663 57.542505409874124, 17.58 57.502505409874125 L 17.58 58.39050540987412 C 17.382666666666665 58.44650540987412, 17.281333333333333 58.575838743207456, 17.275999999999996 58.77850540987412 C 17.262666666666664 59.14917207654079, 17.25333333333333 59.49717207654079, 17.247999999999998 59.822505409874125 C 17.242666666666665 60.14783874320746, 17.24 60.46450540987412, 17.24 60.77250540987412 C 17.24 61.08050540987412, 17.242666666666665 61.39517207654079, 17.247999999999998 61.716505409874124 C 17.25333333333333 62.03783874320746, 17.262666666666664 62.38117207654079, 17.275999999999996 62.746505409874125 C 17.281333333333333 62.954505409874116, 17.382666666666665 63.08650540987412, 17.58 63.142505409874126 L 17.58 64.03050540987412 C 17.142666666666663 63.990505409874125, 16.805999999999997 63.844505409874124, 16.569999999999997 63.59250540987412 C 16.333999999999996 63.34050540987412, 16.20933333333333 62.99450540987412, 16.195999999999998 62.554505409874125 Z M 18.084 64.03050540987412 L 18.084 63.13850540987412 C 18.268 63.085172076540786, 18.366666666666667 62.96117207654079, 18.38 62.76650540987412 C 18.398666666666664 62.29983874320746, 18.410666666666664 61.85117207654079, 18.415999999999997 61.420505409874124 C 18.42133333333333 60.98983874320746, 18.42133333333333 60.55917207654079, 18.415999999999997 60.12850540987412 C 18.410666666666664 59.697838743207456, 18.398666666666664 59.24517207654078, 18.38 58.770505409874126 C 18.374666666666666 58.575838743207456, 18.276 58.44917207654079, 18.084 58.39050540987412 L 18.084 57.502505409874125 C 18.513333333333332 57.542505409874124, 18.846666666666664 57.68783874320745, 19.083999999999996 57.938505409874125 C 19.32133333333333 58.189172076540785, 19.44533333333333 58.53450540987412, 19.456 58.974505409874126 C 19.466666666666665 59.28917207654079, 19.474666666666664 59.59917207654078, 19.479999999999997 59.904505409874126 C 19.48533333333333 60.209838743207456, 19.488 60.51050540987413, 19.488 60.80650540987412 C 19.488 61.10250540987413, 19.48533333333333 61.39583874320746, 19.479999999999997 61.68650540987412 C 19.474666666666664 61.977172076540796, 19.466666666666665 62.26650540987413, 19.456 62.554505409874125 C 19.439999999999998 63.00517207654079, 19.311999999999998 63.35383874320746, 19.072 63.600505409874124 C 18.831999999999997 63.84717207654079, 18.502666666666663 63.990505409874125, 18.084 64.03050540987412 Z M 21.944 63.966505409874124 L 21.944 57.566505409874125 L 23.003999999999998 57.566505409874125 L 23.003999999999998 63.966505409874124 Z " stroke="none" fill-rule="nonzero" fill="#000000" fill-opacity="1" transform="matrix(1,0,0,1,5.05,13.314)" id="text40 l" />
  <path d="M 0 58.4398548688867 L 10 58.4398548688867 L 10 59.9398548688867 L 0 59.9398548688867 Z " stroke="none" fill-rule="evenodd" fill="#000000" fill-opacity="1" transform="matrix(1,0,0,1,5.05,13.314)" id="mark41 l" />
  <path d="M 0 51.86320432789927 L 10 51.86320432789927 L 10 53.36320432789927 L 0 53.36320432789927 Z " stroke="none" fill-rule="evenodd" fill="#000000" fill-opacity="1" transform="matrix(1,0,0,1,5.05,13.314)" id="mark42 l" />
  <path d="M 0 45.286553786911895 L 10 45.286553786911895 L 10 46.786553786911895 L 0 46.786553786911895 Z " stroke="none" fill-rule="evenodd" fill="#000000" fill-opacity="1" transform="matrix(1,0,0,1,5.05,13.314)" id="mark43 l" />
  <path d="M 0 38.709903245924465 L 10 38.709903245924465 L 10 40.209903245924465 L 0 40.209903245924465 Z " stroke="none" fill-rule="evenodd" fill="#000000" fill-opacity="1" transform="matrix(1,0,0,1,5.05,13.314)" id="mark44 l" />
  <path d="M 0 32.13325270493709 L 25 32.13325270493709 L 25 33.63325270493709 L 0 33.63325270493709 Z " stroke="none" fill-rule="evenodd" fill="#000000" fill-opacity="1" transform="matrix(1,0,0,1,5.05,13.314)" id="mark45 l" />
  <path d="M 11.748 29.36725270493709 L 11.748 28.491252704937093 L 12.463999999999999 26.61125270493709 L 13.503999999999998 26.61125270493709 L 12.78 28.44325270493709 L 13.18 28.44325270493709 L 13.18 29.36725270493709 Z M 13.684 31.05125270493709 L 13.684 24.651252704937093 L 14.691999999999998 24.651252704937093 L 14.691999999999998 31.05125270493709 Z M 15.195999999999998 29.36725270493709 L 15.195999999999998 28.44325270493709 L 15.663999999999998 28.44325270493709 L 15.663999999999998 29.36725270493709 Z M 16.18 29.63525270493709 C 16.174666666666667 29.461919371603756, 16.173333333333332 29.322586038270423, 16.176 29.217252704937092 C 16.178666666666665 29.111919371603754, 16.181333333333335 29.009919371603758, 16.183999999999997 28.91125270493709 L 17.264 28.91125270493709 C 17.256 28.988586038270427, 17.25 29.084586038270423, 17.246 29.19925270493709 C 17.241999999999997 29.31391937160376, 17.240666666666666 29.424586038270427, 17.241999999999997 29.531252704937092 C 17.243333333333332 29.637919371603758, 17.246666666666666 29.71791937160376, 17.252 29.77125270493709 C 17.262666666666668 29.89125270493709, 17.297333333333334 29.989252704937094, 17.355999999999998 30.06525270493709 C 17.414666666666665 30.141252704937095, 17.497333333333334 30.19525270493709, 17.604 30.22725270493709 L 17.604 31.119252704937093 C 17.110666666666663 31.08191937160376, 16.75333333333333 30.947252704937092, 16.532 30.715252704937093 C 16.310666666666666 30.48325270493709, 16.19333333333333 30.123252704937087, 16.18 29.63525270493709 Z M 16.279999999999998 28.299252704937093 L 16.279999999999998 24.651252704937093 L 17.348 24.651252704937093 L 17.348 28.299252704937093 Z M 17.852 27.87525270493709 L 17.852 27.119252704937093 C 17.929333333333332 27.07925270493709, 18.014666666666667 27.047252704937094, 18.107999999999997 27.023252704937093 C 18.20133333333333 26.999252704937092, 18.301333333333332 26.98725270493709, 18.407999999999998 26.98725270493709 C 18.773333333333333 26.98725270493709, 19.047333333333334 27.102586038270424, 19.23 27.33325270493709 C 19.412666666666667 27.56391937160376, 19.514666666666663 27.87791937160376, 19.535999999999998 28.275252704937092 C 19.546666666666667 28.435252704937092, 19.55333333333333 28.593919371603757, 19.555999999999997 28.75125270493709 C 19.558666666666664 28.908586038270425, 19.557333333333332 29.061919371603757, 19.552 29.211252704937092 C 19.546666666666667 29.360586038270426, 19.538666666666668 29.500586038270423, 19.528 29.63125270493709 C 19.482666666666667 30.12991937160376, 19.353333333333335 30.495252704937094, 19.14 30.72725270493709 C 18.926666666666666 30.959252704937093, 18.581333333333333 31.089919371603756, 18.104 31.119252704937093 L 18.104 30.22725270493709 C 18.21333333333333 30.19791937160376, 18.296 30.145252704937093, 18.352 30.069252704937092 C 18.408 29.993252704937092, 18.44 29.893919371603758, 18.448 29.77125270493709 C 18.471999999999998 29.480586038270424, 18.485999999999997 29.21925270493709, 18.49 28.98725270493709 C 18.494 28.755252704937092, 18.485333333333333 28.53391937160376, 18.464 28.32325270493709 C 18.447999999999997 28.168586038270423, 18.396666666666665 28.05325270493709, 18.31 27.977252704937094 C 18.223333333333333 27.901252704937093, 18.090666666666664 27.863252704937093, 17.912 27.863252704937093 C 17.901333333333334 27.863252704937093, 17.890666666666668 27.864586038270424, 17.88 27.86725270493709 C 17.86933333333333 27.869919371603757, 17.86 27.872586038270427, 17.852 27.87525270493709 Z M 17.852 25.58325270493709 L 17.852 24.651252704937093 L 19.439999999999998 24.651252704937093 L 19.439999999999998 25.58325270493709 Z M 21.944 31.05125270493709 L 21.944 24.651252704937093 L 23.003999999999998 24.651252704937093 L 23.003999999999998 31.05125270493709 Z " stroke="none" fill-rule="nonzero" fill="#000000" fill-opacity="1" transform="matrix(1,0,0,1,5.05,13.314)" id="text45 l" />
  <path d="M 0 25.556602163949663 L 10 25.556602163949663 L 10 27.056602163949663 L 0 27.056602163949663 Z " stroke="none" fill-rule="evenodd" fill="#000000" fill-opacity="1" transform="matrix(1,0,0,1,5.05,13.314)" id="mark46 l" />
  <path d="M 0 18.979951622962233 L 10 18.979951622962233 L 10 20.479951622962233 L 0 20.479951622962233 Z " stroke="none" fill-rule="evenodd" fill="#000000" fill-opacity="1" transform="matrix(1,0,0,1,5.05,13.314)" id="mark47 l" />
  <path d="M 0 12.40330108197486 L 10 12.40330108197486 L 10 13.90330108197486 L 0 13.90330108197486 Z " stroke="none" fill-rule="evenodd" fill="#000000" fill-opacity="1" transform="matrix(1,0,0,1,5.05,13.314)" id="mark48 l" />
  <path d="M 0 5.82665054098743 L 10 5.82665054098743 L 10 7.32665054098743 L 0 7.32665054098743 Z " stroke="none" fill-rule="evenodd" fill="#000000" fill-opacity="1" transform="matrix(1,0,0,1,5.05,13.314)" id="mark49 l" />
  <path d="M 0 -0.75 L 25 -0.75 L 25 0.75 L 0 0.75 Z " stroke="none" fill-rule="evenodd" fill="#000000" fill-opacity="1" transform="matrix(1,0,0,1,5.05,13.314)" id="mark50 l" />
  <path d="M 12.204 -3.2159999999999997 C 12.198666666666668 -3.389333333333333, 12.197333333333333 -3.528666666666667, 12.2 -3.634 C 12.202666666666667 -3.7393333333333336, 12.205333333333336 -3.841333333333333, 12.208 -3.94 L 13.288 -3.94 C 13.280000000000001 -3.8626666666666667, 13.274000000000001 -3.7666666666666666, 13.27 -3.6519999999999997 C 13.265999999999998 -3.5373333333333328, 13.264666666666667 -3.4266666666666667, 13.266 -3.32 C 13.267333333333333 -3.213333333333334, 13.270666666666667 -3.1333333333333337, 13.276 -3.08 C 13.286666666666665 -2.96, 13.321333333333332 -2.862, 13.379999999999999 -2.7859999999999996 C 13.438666666666666 -2.71, 13.521333333333335 -2.6559999999999997, 13.628 -2.6239999999999997 L 13.628 -1.7319999999999998 C 13.134666666666668 -1.7693333333333332, 12.777333333333335 -1.904, 12.556 -2.1359999999999997 C 12.334666666666667 -2.368, 12.217333333333332 -2.7279999999999998, 12.204 -3.2159999999999997 Z M 12.304 -4.552 L 12.304 -8.2 L 13.372 -8.2 L 13.372 -4.552 Z M 13.876 -4.976 L 13.876 -5.731999999999999 C 13.953333333333333 -5.771999999999999, 14.038666666666668 -5.804, 14.132 -5.828 C 14.225333333333333 -5.852, 14.325333333333333 -5.864, 14.432 -5.864 C 14.797333333333334 -5.864, 15.071333333333332 -5.748666666666667, 15.254 -5.518 C 15.436666666666667 -5.287333333333333, 15.538666666666668 -4.973333333333333, 15.56 -4.576 C 15.570666666666668 -4.416, 15.577333333333334 -4.257333333333333, 15.58 -4.1 C 15.582666666666666 -3.9426666666666668, 15.581333333333333 -3.7893333333333334, 15.576 -3.6399999999999997 C 15.570666666666666 -3.490666666666667, 15.562666666666665 -3.3506666666666667, 15.552 -3.2199999999999998 C 15.506666666666668 -2.721333333333333, 15.377333333333333 -2.356, 15.164 -2.1239999999999997 C 14.950666666666667 -1.892, 14.605333333333332 -1.7613333333333332, 14.128 -1.7319999999999998 L 14.128 -2.6239999999999997 C 14.237333333333334 -2.653333333333333, 14.32 -2.7059999999999995, 14.376 -2.782 C 14.432 -2.8579999999999997, 14.464 -2.957333333333333, 14.472 -3.08 C 14.495999999999999 -3.3706666666666667, 14.509999999999998 -3.6319999999999997, 14.514 -3.864 C 14.518 -4.096, 14.509333333333334 -4.317333333333333, 14.488 -4.5280000000000005 C 14.472000000000001 -4.682666666666667, 14.420666666666666 -4.798, 14.334 -4.874 C 14.247333333333334 -4.949999999999999, 14.114666666666666 -4.9879999999999995, 13.936 -4.9879999999999995 C 13.925333333333333 -4.9879999999999995, 13.914666666666665 -4.986666666666666, 13.904 -4.984 C 13.893333333333334 -4.981333333333334, 13.884 -4.978666666666667, 13.876 -4.976 Z M 13.876 -7.268 L 13.876 -8.2 L 15.464 -8.2 L 15.464 -7.268 Z M 16.196 -3.2119999999999997 C 16.188000000000002 -3.641333333333333, 16.182666666666666 -4.058, 16.18 -4.462 C 16.177333333333333 -4.866, 16.177999999999997 -5.261333333333333, 16.182 -5.648 C 16.186 -6.034666666666666, 16.190666666666665 -6.416, 16.196 -6.792 C 16.209333333333333 -7.231999999999999, 16.334000000000003 -7.577333333333334, 16.57 -7.828 C 16.805999999999997 -8.078666666666667, 17.142666666666663 -8.224, 17.58 -8.264 L 17.58 -7.3759999999999994 C 17.382666666666665 -7.32, 17.281333333333333 -7.190666666666667, 17.276 -6.9879999999999995 C 17.262666666666668 -6.617333333333333, 17.253333333333334 -6.269333333333333, 17.248 -5.944 C 17.242666666666665 -5.618666666666666, 17.24 -5.302, 17.24 -4.994 C 17.24 -4.686, 17.242666666666665 -4.371333333333333, 17.248 -4.05 C 17.253333333333334 -3.7286666666666664, 17.262666666666668 -3.3853333333333326, 17.276 -3.0199999999999996 C 17.281333333333333 -2.812, 17.382666666666665 -2.6799999999999997, 17.58 -2.6239999999999997 L 17.58 -1.7359999999999998 C 17.142666666666663 -1.7759999999999998, 16.805999999999997 -1.9219999999999997, 16.57 -2.174 C 16.334000000000003 -2.4259999999999997, 16.209333333333333 -2.772, 16.196 -3.2119999999999997 Z M 18.084 -1.7359999999999998 L 18.084 -2.6279999999999997 C 18.268 -2.681333333333333, 18.366666666666667 -2.8053333333333335, 18.38 -3 C 18.398666666666667 -3.4666666666666663, 18.410666666666668 -3.915333333333333, 18.416 -4.346 C 18.421333333333333 -4.776666666666666, 18.421333333333333 -5.207333333333333, 18.416 -5.638 C 18.410666666666668 -6.068666666666666, 18.398666666666667 -6.521333333333333, 18.38 -6.9959999999999996 C 18.374666666666666 -7.190666666666667, 18.276 -7.317333333333334, 18.084 -7.3759999999999994 L 18.084 -8.264 C 18.513333333333335 -8.224, 18.846666666666668 -8.078666666666667, 19.084 -7.828 C 19.321333333333335 -7.577333333333334, 19.445333333333334 -7.231999999999999, 19.456 -6.792 C 19.46666666666667 -6.477333333333332, 19.474666666666668 -6.167333333333333, 19.48 -5.861999999999999 C 19.485333333333333 -5.556666666666667, 19.488 -5.256, 19.488 -4.96 C 19.488 -4.664, 19.485333333333333 -4.370666666666667, 19.48 -4.08 C 19.474666666666668 -3.7893333333333334, 19.46666666666667 -3.5, 19.456 -3.2119999999999997 C 19.439999999999998 -2.761333333333333, 19.311999999999998 -2.4126666666666665, 19.072 -2.166 C 18.832 -1.9193333333333331, 18.502666666666666 -1.7759999999999998, 18.084 -1.7359999999999998 Z M 21.944 -1.7999999999999998 L 21.944 -8.2 L 23.003999999999998 -8.2 L 23.003999999999998 -1.7999999999999998 Z " stroke="none" fill-rule="nonzero" fill="#000000" fill-opacity="1" transform="matrix(1,0,0,1,5.05,13.314)" id="text50 l" />
  <path d="M -5 -13.264 L 30 -13.264 L 30 329.02387650838307 L -5 329.02387650838307 Z " stroke="#FF0000" stroke-opacity="1" stroke-width="0.1" stroke-linecap="butt" stroke-linejoin="miter" fill="none" transform="matrix(1,0,0,1,5.05,13.314)" />
</svg>