<?xml version="1.0" encoding="UTF-8"?>
<svg xmlns:xlink="http://www.w3.org/1999/xlink" viewBox="0 0 35.1 364.23529572591224" version="1.1" style="font-synthesis: none;" width="35.1mm" height="364.23529572591224mm" xmlns="http://www.w3.org/2000/svg">
  <defs />
  <style>	</style>
  <path d="M 0 0 L 35.1 0 L 35.1 364.23529572591224 L 0 364.23529572591224 Z " stroke="none" fill-rule="nonzero" fill="#FFFFFF" fill-opacity="1" transform="matrix(1,0,0,1,0,0)" />
  <path d="M 0 343.35329572591223 L 10 343.35329572591223 L 10 344.85329572591223 L 0 344.85329572591223 Z " stroke="none" fill-rule="evenodd" fill="#000000" fill-opacity="1" transform="matrix(1,0,0,1,5.05,13.314)" id="mark1 l" />
  <path d="M 0 329.0156584039992 L 10 329.0156584039992 L 10 330.5156584039992 L 0 330.5156584039992 Z " stroke="none" fill-rule="evenodd" fill="#000000" fill-opacity="1" transform="matrix(1,0,0,1,5.05,13.314)" id="mark2 l" />
  <path d="M 0 314.6780210820862 L 10 314.6780210820862 L 10 316.1780210820862 L 0 316.1780210820862 Z " stroke="none" fill-rule="evenodd" fill="#000000" fill-opacity="1" transform="matrix(1,0,0,1,5.05,13.314)" id="mark3 l" />
  <path d="M 0 300.3403837601732 L 10 300.3403837601732 L 10 301.8403837601732 L 0 301.8403837601732 Z " stroke="none" fill-rule="evenodd" fill="#000000" fill-opacity="1" transform="matrix(1,0,0,1,5.05,13.314)" id="mark4 l" />
  <path d="M 0 286.0027464382602 L 25 286.0027464382602 L 25 287.5027464382602 L 0 287.5027464382602 Z " stroke="none" fill-rule="evenodd" fill="#000000" fill-opacity="1" transform="matrix(1,0,0,1,5.05,13.314)" id="mark5 l" />
  <path d="M 16.18 283.5047464382602 C 16.174666666666667 283.33141310492687, 16.173333333333332 283.19207977159357, 16.176 283.0867464382602 C 16.178666666666665 282.98141310492684, 16.181333333333335 282.87941310492687, 16.183999999999997 282.7807464382602 L 17.264 282.7807464382602 C 17.256 282.85807977159357, 17.25 282.95407977159357, 17.246 283.06874643826023 C 17.241999999999997 283.1834131049269, 17.240666666666666 283.29407977159354, 17.241999999999997 283.4007464382602 C 17.243333333333332 283.50741310492685, 17.246666666666666 283.5874131049269, 17.252 283.64074643826024 C 17.262666666666668 283.7607464382602, 17.297333333333334 283.8587464382602, 17.355999999999998 283.9347464382602 C 17.414666666666665 284.0107464382602, 17.497333333333334 284.06474643826016, 17.604 284.0967464382602 L 17.604 284.9887464382602 C 17.110666666666663 284.95141310492687, 16.75333333333333 284.8167464382602, 16.532 284.5847464382602 C 16.310666666666666 284.35274643826017, 16.19333333333333 283.9927464382602, 16.18 283.5047464382602 Z M 16.279999999999998 282.1687464382602 L 16.279999999999998 278.52074643826023 L 17.348 278.52074643826023 L 17.348 282.1687464382602 Z M 17.852 281.7447464382602 L 17.852 280.9887464382602 C 17.929333333333332 280.9487464382602, 18.014666666666667 280.9167464382602, 18.107999999999997 280.8927464382602 C 18.20133333333333 280.8687464382602, 18.301333333333332 280.8567464382602, 18.407999999999998 280.8567464382602 C 18.773333333333333 280.8567464382602, 19.047333333333334 280.97207977159354, 19.23 281.2027464382602 C 19.412666666666667 281.43341310492684, 19.514666666666663 281.74741310492686, 19.535999999999998 282.1447464382602 C 19.546666666666667 282.30474643826017, 19.55333333333333 282.4634131049269, 19.555999999999997 282.6207464382602 C 19.558666666666664 282.7780797715935, 19.557333333333332 282.93141310492683, 19.552 283.08074643826023 C 19.546666666666667 283.2300797715935, 19.538666666666668 283.3700797715935, 19.528 283.5007464382602 C 19.482666666666667 283.9994131049268, 19.353333333333335 284.36474643826017, 19.14 284.5967464382602 C 18.926666666666666 284.8287464382602, 18.581333333333333 284.95941310492685, 18.104 284.9887464382602 L 18.104 284.0967464382602 C 18.21333333333333 284.0674131049269, 18.296 284.0147464382602, 18.352 283.9387464382602 C 18.408 283.8627464382602, 18.44 283.7634131049269, 18.448 283.64074643826024 C 18.471999999999998 283.3500797715935, 18.485999999999997 283.0887464382602, 18.49 282.8567464382602 C 18.494 282.6247464382602, 18.485333333333333 282.40341310492687, 18.464 282.1927464382602 C 18.447999999999997 282.0380797715936, 18.396666666666665 281.9227464382602, 18.31 281.8467464382602 C 18.223333333333333 281.7707464382602, 18.090666666666664 281.7327464382602, 17.912 281.7327464382602 C 17.901333333333334 281.7327464382602, 17.890666666666668 281.73407977159354, 17.88 281.7367464382602 C 17.86933333333333 281.7394131049269, 17.86 281.7420797715936, 17.852 281.7447464382602 Z M 17.852 279.4527464382602 L 17.852 278.52074643826023 L 19.439999999999998 278.52074643826023 L 19.439999999999998 279.4527464382602 Z M 21.944 284.9207464382602 L 21.944 278.52074643826023 L 23.003999999999998 278.52074643826023 L 23.003999999999998 284.9207464382602 Z " stroke="none" fill-rule="nonzero" fill="#000000" fill-opacity="1" transform="matrix(1,0,0,1,5.05,13.314)" id="text5 l" />
  <path d="M 0 271.6651091163472 L 10 271.6651091163472 L 10 273.1651091163472 L 0 273.1651091163472 Z " stroke="none" fill-rule="evenodd" fill="#000000" fill-opacity="1" transform="matrix(1,0,0,1,5.05,13.314)" id="mark6 l" />
  <path d="M 0 257.3274717944342 L 10 257.3274717944342 L 10 258.8274717944342 L 0 258.8274717944342 Z " stroke="none" fill-rule="evenodd" fill="#000000" fill-opacity="1" transform="matrix(1,0,0,1,5.05,13.314)" id="mark7 l" />
  <path d="M 0 242.98983447252118 L 10 242.98983447252118 L 10 244.48983447252118 L 0 244.48983447252118 Z " stroke="none" fill-rule="evenodd" fill="#000000" fill-opacity="1" transform="matrix(1,0,0,1,5.05,13.314)" id="mark8 l" />
  <path d="M 0 228.65219715060817 L 10 228.65219715060817 L 10 230.15219715060817 L 0 230.15219715060817 Z " stroke="none" fill-rule="evenodd" fill="#000000" fill-opacity="1" transform="matrix(1,0,0,1,5.05,13.314)" id="mark9 l" />
  <path d="M 0 214.31455982869517 L 25 214.31455982869517 L 25 215.81455982869517 L 0 215.81455982869517 Z " stroke="none" fill-rule="evenodd" fill="#000000" fill-opacity="1" transform="matrix(1,0,0,1,5.05,13.314)" id="mark10 l" />
  <path d="M 14.323999999999998 213.26455982869518 L 14.323999999999998 207.8205598286952 L 13.871999999999998 207.8205598286952 L 13.839999999999998 207.44055982869517 L 14.543999999999999 206.86455982869518 L 15.424 206.86455982869518 L 15.424 213.26455982869518 Z M 16.196 211.85255982869518 C 16.188000000000002 211.42322649536186, 16.182666666666666 211.00655982869517, 16.18 210.60255982869518 C 16.177333333333333 210.19855982869518, 16.177999999999997 209.80322649536186, 16.182 209.41655982869517 C 16.186 209.0298931620285, 16.190666666666665 208.64855982869517, 16.196 208.2725598286952 C 16.209333333333333 207.8325598286952, 16.334000000000003 207.48722649536188, 16.57 207.2365598286952 C 16.805999999999997 206.9858931620285, 17.142666666666663 206.84055982869518, 17.58 206.80055982869519 L 17.58 207.6885598286952 C 17.382666666666665 207.74455982869517, 17.281333333333333 207.87389316202854, 17.276 208.0765598286952 C 17.262666666666668 208.44722649536186, 17.253333333333334 208.79522649536185, 17.248 209.12055982869518 C 17.242666666666665 209.4458931620285, 17.24 209.7625598286952, 17.24 210.0705598286952 C 17.24 210.3785598286952, 17.242666666666665 210.69322649536184, 17.248 211.01455982869518 C 17.253333333333334 211.33589316202853, 17.262666666666668 211.67922649536183, 17.276 212.04455982869518 C 17.281333333333333 212.2525598286952, 17.382666666666665 212.38455982869522, 17.58 212.44055982869517 L 17.58 213.32855982869518 C 17.142666666666663 213.28855982869516, 16.805999999999997 213.1425598286952, 16.57 212.8905598286952 C 16.334000000000003 212.63855982869518, 16.209333333333333 212.29255982869518, 16.196 211.85255982869518 Z M 18.084 213.32855982869518 L 18.084 212.43655982869518 C 18.268 212.38322649536187, 18.366666666666667 212.25922649536187, 18.38 212.0645598286952 C 18.398666666666667 211.59789316202853, 18.410666666666668 211.14922649536186, 18.416 210.7185598286952 C 18.421333333333333 210.28789316202852, 18.421333333333333 209.85722649536186, 18.416 209.4265598286952 C 18.410666666666668 208.99589316202852, 18.398666666666667 208.54322649536186, 18.38 208.0685598286952 C 18.374666666666666 207.87389316202854, 18.276 207.74722649536187, 18.084 207.6885598286952 L 18.084 206.80055982869519 C 18.513333333333335 206.84055982869518, 18.846666666666668 206.9858931620285, 19.084 207.2365598286952 C 19.321333333333335 207.48722649536188, 19.445333333333334 207.8325598286952, 19.456 208.2725598286952 C 19.46666666666667 208.58722649536185, 19.474666666666668 208.89722649536185, 19.48 209.20255982869517 C 19.485333333333333 209.5078931620285, 19.488 209.80855982869517, 19.488 210.1045598286952 C 19.488 210.40055982869518, 19.485333333333333 210.69389316202853, 19.48 210.98455982869518 C 19.474666666666668 211.27522649536184, 19.46666666666667 211.56455982869517, 19.456 211.85255982869518 C 19.439999999999998 212.30322649536186, 19.311999999999998 212.65189316202853, 19.072 212.89855982869517 C 18.832 213.14522649536184, 18.502666666666666 213.28855982869516, 18.084 213.32855982869518 Z M 21.944 213.26455982869518 L 21.944 206.86455982869518 L 23.003999999999998 206.86455982869518 L 23.003999999999998 213.26455982869518 Z " stroke="none" fill-rule="nonzero" fill="#000000" fill-opacity="1" transform="matrix(1,0,0,1,5.05,13.314)" id="text10 l" />
  <path d="M 0 199.97692250678216 L 10 199.97692250678216 L 10 201.47692250678216 L 0 201.47692250678216 Z " stroke="none" fill-rule="evenodd" fill="#000000" fill-opacity="1" transform="matrix(1,0,0,1,5.05,13.314)" id="mark11 l" />
  <path d="M 0 185.63928518486912 L 10 185.63928518486912 L 10 187.13928518486912 L 0 187.13928518486912 Z " stroke="none" fill-rule="evenodd" fill="#000000" fill-opacity="1" transform="matrix(1,0,0,1,5.05,13.314)" id="mark12 l" />
  <path d="M 0 171.30164786295612 L 10 171.30164786295612 L 10 172.80164786295612 L 0 172.80164786295612 Z " stroke="none" fill-rule="evenodd" fill="#000000" fill-opacity="1" transform="matrix(1,0,0,1,5.05,13.314)" id="mark13 l" />
  <path d="M 0 156.9640105410431 L 10 156.9640105410431 L 10 158.4640105410431 L 0 158.4640105410431 Z " stroke="none" fill-rule="evenodd" fill="#000000" fill-opacity="1" transform="matrix(1,0,0,1,5.05,13.314)" id="mark14 l" />
  <path d="M 0 142.6263732191301 L 25 142.6263732191301 L 25 144.1263732191301 L 0 144.1263732191301 Z " stroke="none" fill-rule="evenodd" fill="#000000" fill-opacity="1" transform="matrix(1,0,0,1,5.05,13.314)" id="mark15 l" />
  <path d="M 14.331999999999999 141.5443732191301 L 14.331999999999999 136.10037321913012 L 13.879999999999999 136.10037321913012 L 13.847999999999999 135.7203732191301 L 14.552 135.1443732191301 L 15.432 135.1443732191301 L 15.432 141.5443732191301 Z M 16.18 140.1283732191301 C 16.174666666666667 139.9550398857968, 16.173333333333332 139.81570655246344, 16.176 139.7103732191301 C 16.178666666666665 139.60503988579677, 16.181333333333335 139.5030398857968, 16.183999999999997 139.40437321913012 L 17.264 139.40437321913012 C 17.256 139.48170655246344, 17.25 139.57770655246344, 17.246 139.6923732191301 C 17.241999999999997 139.80703988579677, 17.240666666666666 139.91770655246341, 17.241999999999997 140.0243732191301 C 17.243333333333332 140.13103988579678, 17.246666666666666 140.21103988579677, 17.252 140.2643732191301 C 17.262666666666668 140.3843732191301, 17.297333333333334 140.48237321913012, 17.355999999999998 140.55837321913012 C 17.414666666666665 140.6343732191301, 17.497333333333334 140.68837321913009, 17.604 140.7203732191301 L 17.604 141.61237321913012 C 17.110666666666663 141.5750398857968, 16.75333333333333 141.4403732191301, 16.532 141.2083732191301 C 16.310666666666666 140.9763732191301, 16.19333333333333 140.6163732191301, 16.18 140.1283732191301 Z M 16.279999999999998 138.7923732191301 L 16.279999999999998 135.1443732191301 L 17.348 135.1443732191301 L 17.348 138.7923732191301 Z M 17.852 138.36837321913012 L 17.852 137.61237321913012 C 17.929333333333332 137.57237321913013, 18.014666666666667 137.54037321913012, 18.107999999999997 137.51637321913012 C 18.20133333333333 137.49237321913012, 18.301333333333332 137.48037321913012, 18.407999999999998 137.48037321913012 C 18.773333333333333 137.48037321913012, 19.047333333333334 137.59570655246347, 19.23 137.82637321913012 C 19.412666666666667 138.05703988579677, 19.514666666666663 138.3710398857968, 19.535999999999998 138.7683732191301 C 19.546666666666667 138.9283732191301, 19.55333333333333 139.08703988579677, 19.555999999999997 139.2443732191301 C 19.558666666666664 139.40170655246345, 19.557333333333332 139.5550398857968, 19.552 139.7043732191301 C 19.546666666666667 139.85370655246342, 19.538666666666668 139.99370655246344, 19.528 140.12437321913012 C 19.482666666666667 140.62303988579677, 19.353333333333335 140.9883732191301, 19.14 141.2203732191301 C 18.926666666666666 141.4523732191301, 18.581333333333333 141.58303988579678, 18.104 141.61237321913012 L 18.104 140.7203732191301 C 18.21333333333333 140.69103988579678, 18.296 140.6383732191301, 18.352 140.5623732191301 C 18.408 140.48637321913012, 18.44 140.38703988579678, 18.448 140.2643732191301 C 18.471999999999998 139.97370655246343, 18.485999999999997 139.7123732191301, 18.49 139.48037321913012 C 18.494 139.2483732191301, 18.485333333333333 139.02703988579677, 18.464 138.8163732191301 C 18.447999999999997 138.66170655246344, 18.396666666666665 138.5463732191301, 18.31 138.4703732191301 C 18.223333333333333 138.3943732191301, 18.090666666666664 138.35637321913012, 17.912 138.35637321913012 C 17.901333333333334 138.35637321913012, 17.890666666666668 138.35770655246347, 17.88 138.3603732191301 C 17.86933333333333 138.36303988579675, 17.86 138.36570655246345, 17.852 138.36837321913012 Z M 17.852 136.07637321913012 L 17.852 135.1443732191301 L 19.439999999999998 135.1443732191301 L 19.439999999999998 136.07637321913012 Z M 21.944 141.5443732191301 L 21.944 135.1443732191301 L 23.003999999999998 135.1443732191301 L 23.003999999999998 141.5443732191301 Z " stroke="none" fill-rule="nonzero" fill="#000000" fill-opacity="1" transform="matrix(1,0,0,1,5.05,13.314)" id="text15 l" />
  <path d="M 0 128.2887358972171 L 10 128.2887358972171 L 10 129.7887358972171 L 0 129.7887358972171 Z " stroke="none" fill-rule="evenodd" fill="#000000" fill-opacity="1" transform="matrix(1,0,0,1,5.05,13.314)" id="mark16 l" />
  <path d="M 0 113.95109857530409 L 10 113.95109857530409 L 10 115.45109857530409 L 0 115.45109857530409 Z " stroke="none" fill-rule="evenodd" fill="#000000" fill-opacity="1" transform="matrix(1,0,0,1,5.05,13.314)" id="mark17 l" />
  <path d="M 0 99.61346125339111 L 10 99.61346125339111 L 10 101.11346125339111 L 0 101.11346125339111 Z " stroke="none" fill-rule="evenodd" fill="#000000" fill-opacity="1" transform="matrix(1,0,0,1,5.05,13.314)" id="mark18 l" />
  <path d="M 0 85.2758239314781 L 10 85.2758239314781 L 10 86.7758239314781 L 0 86.7758239314781 Z " stroke="none" fill-rule="evenodd" fill="#000000" fill-opacity="1" transform="matrix(1,0,0,1,5.05,13.314)" id="mark19 l" />
  <path d="M 0 70.9381866095651 L 25 70.9381866095651 L 25 72.4381866095651 L 0 72.4381866095651 Z " stroke="none" fill-rule="evenodd" fill="#000000" fill-opacity="1" transform="matrix(1,0,0,1,5.05,13.314)" id="mark20 l" />
  <path d="M 12.319999999999999 69.8881866095651 C 12.317333333333334 69.78951994289844, 12.315333333333331 69.70085327623177, 12.313999999999998 69.62218660956509 C 12.312666666666665 69.54351994289843, 12.311333333333334 69.46951994289843, 12.309999999999999 69.4001866095651 C 12.308666666666667 69.33085327623176, 12.308 69.25885327623178, 12.308 69.1841866095651 C 12.308 69.10951994289843, 12.308 69.02485327623177, 12.308 68.9301866095651 C 12.308 68.83551994289843, 12.309333333333335 68.7241866095651, 12.312 68.5961866095651 C 12.32 68.30285327623176, 12.37 68.04085327623176, 12.462 67.8101866095651 C 12.554 67.57951994289843, 12.687999999999999 67.37351994289843, 12.863999999999999 67.1921866095651 C 13.04 67.01085327623176, 13.257333333333333 66.84951994289843, 13.515999999999998 66.70818660956509 L 14.047999999999998 66.42018660956509 C 14.234666666666666 66.31885327623175, 14.354 66.19685327623176, 14.405999999999999 66.0541866095651 C 14.457999999999998 65.91151994289842, 14.488 65.77751994289844, 14.495999999999999 65.65218660956509 C 14.506666666666664 65.50551994289842, 14.512666666666664 65.34885327623175, 14.514 65.1821866095651 C 14.51533333333333 65.01551994289844, 14.511999999999997 64.85885327623177, 14.504 64.7121866095651 C 14.498666666666665 64.60818660956511, 14.468666666666666 64.5221866095651, 14.413999999999998 64.4541866095651 C 14.359333333333332 64.3861866095651, 14.279999999999998 64.33751994289842, 14.175999999999998 64.3081866095651 L 14.175999999999998 63.42018660956509 C 14.663999999999998 63.452186609565096, 15.014 63.583519942898434, 15.225999999999999 63.8141866095651 C 15.437999999999999 64.04485327623176, 15.554666666666666 64.40551994289844, 15.575999999999999 64.89618660956509 C 15.578666666666663 64.9601866095651, 15.580666666666666 65.02551994289843, 15.581999999999999 65.09218660956509 C 15.583333333333332 65.15885327623175, 15.584 65.22351994289843, 15.584 65.28618660956509 C 15.584 65.34885327623176, 15.583333333333332 65.41085327623176, 15.581999999999999 65.4721866095651 C 15.580666666666666 65.53351994289844, 15.578666666666663 65.59351994289844, 15.575999999999999 65.65218660956509 C 15.565333333333331 65.93751994289843, 15.512 66.1841866095651, 15.415999999999999 66.3921866095651 C 15.32 66.6001866095651, 15.19 66.78018660956509, 15.026 66.9321866095651 C 14.862 67.0841866095651, 14.672 67.2201866095651, 14.456 67.3401866095651 L 13.851999999999999 67.6681866095651 C 13.737333333333332 67.72951994289843, 13.647333333333332 67.81351994289844, 13.581999999999999 67.92018660956509 C 13.516666666666666 68.02685327623175, 13.469999999999999 68.14018660956509, 13.441999999999998 68.2601866095651 C 13.413999999999998 68.3801866095651, 13.399999999999999 68.4921866095651, 13.399999999999999 68.5961866095651 L 13.399999999999999 69.8881866095651 Z M 12.328 65.84818660956509 C 12.322666666666667 65.73085327623177, 12.318666666666665 65.6161866095651, 12.315999999999999 65.5041866095651 C 12.313333333333333 65.39218660956509, 12.311333333333334 65.28618660956509, 12.309999999999999 65.1861866095651 C 12.308666666666667 65.08618660956509, 12.309333333333335 64.98951994289843, 12.312 64.89618660956509 C 12.330666666666666 64.40818660956509, 12.447333333333333 64.04885327623177, 12.661999999999999 63.818186609565096 C 12.876666666666665 63.58751994289844, 13.213333333333331 63.454853276231766, 13.671999999999999 63.42018660956509 L 13.671999999999999 64.3121866095651 C 13.576 64.34151994289843, 13.505333333333333 64.3881866095651, 13.459999999999999 64.4521866095651 C 13.414666666666665 64.5161866095651, 13.390666666666664 64.59351994289844, 13.387999999999998 64.6841866095651 C 13.382666666666665 64.8921866095651, 13.379333333333333 65.08551994289843, 13.378 65.2641866095651 C 13.376666666666667 65.44285327623177, 13.381333333333334 65.63751994289844, 13.392 65.84818660956509 Z M 13.904 69.8881866095651 L 13.904 68.9561866095651 L 15.5 68.9561866095651 L 15.5 69.8881866095651 Z M 16.196 68.47618660956509 C 16.188000000000002 68.04685327623176, 16.182666666666666 67.6301866095651, 16.18 67.22618660956509 C 16.177333333333333 66.8221866095651, 16.177999999999997 66.42685327623175, 16.182 66.0401866095651 C 16.186 65.65351994289844, 16.190666666666665 65.2721866095651, 16.196 64.89618660956509 C 16.209333333333333 64.4561866095651, 16.334000000000003 64.11085327623177, 16.57 63.8601866095651 C 16.805999999999997 63.60951994289843, 17.142666666666663 63.4641866095651, 17.58 63.4241866095651 L 17.58 64.3121866095651 C 17.382666666666665 64.3681866095651, 17.281333333333333 64.49751994289842, 17.276 64.7001866095651 C 17.262666666666668 65.07085327623176, 17.253333333333334 65.41885327623176, 17.248 65.74418660956509 C 17.242666666666665 66.06951994289842, 17.24 66.38618660956509, 17.24 66.6941866095651 C 17.24 67.0021866095651, 17.242666666666665 67.31685327623177, 17.248 67.6381866095651 C 17.253333333333334 67.95951994289842, 17.262666666666668 68.30285327623176, 17.276 68.6681866095651 C 17.281333333333333 68.8761866095651, 17.382666666666665 69.0081866095651, 17.58 69.0641866095651 L 17.58 69.95218660956509 C 17.142666666666663 69.9121866095651, 16.805999999999997 69.7661866095651, 16.57 69.5141866095651 C 16.334000000000003 69.2621866095651, 16.209333333333333 68.9161866095651, 16.196 68.47618660956509 Z M 18.084 69.95218660956509 L 18.084 69.0601866095651 C 18.268 69.00685327623177, 18.366666666666667 68.88285327623177, 18.38 68.6881866095651 C 18.398666666666667 68.22151994289842, 18.410666666666668 67.77285327623176, 18.416 67.34218660956509 C 18.421333333333333 66.91151994289842, 18.421333333333333 66.48085327623177, 18.416 66.0501866095651 C 18.410666666666668 65.61951994289844, 18.398666666666667 65.16685327623176, 18.38 64.6921866095651 C 18.374666666666666 64.49751994289844, 18.276 64.37085327623177, 18.084 64.3121866095651 L 18.084 63.4241866095651 C 18.513333333333335 63.4641866095651, 18.846666666666668 63.60951994289843, 19.084 63.8601866095651 C 19.321333333333335 64.11085327623177, 19.445333333333334 64.4561866095651, 19.456 64.89618660956509 C 19.46666666666667 65.21085327623176, 19.474666666666668 65.52085327623176, 19.48 65.8261866095651 C 19.485333333333333 66.13151994289844, 19.488 66.4321866095651, 19.488 66.7281866095651 C 19.488 67.0241866095651, 19.485333333333333 67.31751994289843, 19.48 67.6081866095651 C 19.474666666666668 67.89885327623176, 19.46666666666667 68.1881866095651, 19.456 68.47618660956509 C 19.439999999999998 68.92685327623175, 19.311999999999998 69.27551994289843, 19.072 69.5221866095651 C 18.832 69.76885327623177, 18.502666666666666 69.9121866095651, 18.084 69.95218660956509 Z M 21.944 69.8881866095651 L 21.944 63.4881866095651 L 23.003999999999998 63.4881866095651 L 23.003999999999998 69.8881866095651 Z " stroke="none" fill-rule="nonzero" fill="#000000" fill-opacity="1" transform="matrix(1,0,0,1,5.05,13.314)" id="text20 l" />
  <path d="M 0 56.600549287652086 L 10 56.600549287652086 L 10 58.100549287652086 L 0 58.100549287652086 Z " stroke="none" fill-rule="evenodd" fill="#000000" fill-opacity="1" transform="matrix(1,0,0,1,5.05,13.314)" id="mark21 l" />
  <path d="M 0 42.26291196573908 L 10 42.26291196573908 L 10 43.76291196573908 L 0 43.76291196573908 Z " stroke="none" fill-rule="evenodd" fill="#000000" fill-opacity="1" transform="matrix(1,0,0,1,5.05,13.314)" id="mark22 l" />
  <path d="M 0 27.925274643826015 L 10 27.925274643826015 L 10 29.425274643826015 L 0 29.425274643826015 Z " stroke="none" fill-rule="evenodd" fill="#000000" fill-opacity="1" transform="matrix(1,0,0,1,5.05,13.314)" id="mark23 l" />
  <path d="M 0 13.587637321913007 L 10 13.587637321913007 L 10 15.087637321913007 L 0 15.087637321913007 Z " stroke="none" fill-rule="evenodd" fill="#000000" fill-opacity="1" transform="matrix(1,0,0,1,5.05,13.314)" id="mark24 l" />
  <path d="M 0 -0.75 L 25 -0.75 L 25 0.75 L 0 0.75 Z " stroke="none" fill-rule="evenodd" fill="#000000" fill-opacity="1" transform="matrix(1,0,0,1,5.05,13.314)" id="mark25 l" />
  <path d="M 12.328 -1.7999999999999998 C 12.325333333333333 -1.8986666666666663, 12.323333333333332 -1.987333333333333, 12.322 -2.066 C 12.320666666666666 -2.1446666666666663, 12.319333333333333 -2.2186666666666666, 12.318 -2.288 C 12.316666666666666 -2.357333333333333, 12.315999999999999 -2.429333333333333, 12.316 -2.5039999999999996 C 12.315999999999999 -2.5786666666666664, 12.315999999999999 -2.663333333333333, 12.316 -2.758 C 12.315999999999999 -2.852666666666667, 12.317333333333334 -2.964, 12.32 -3.0919999999999996 C 12.328 -3.3853333333333335, 12.378 -3.647333333333333, 12.47 -3.8779999999999997 C 12.562000000000001 -4.108666666666667, 12.696 -4.314666666666667, 12.872 -4.4959999999999996 C 13.048 -4.677333333333333, 13.265333333333334 -4.838666666666667, 13.524000000000001 -4.98 L 14.056000000000001 -5.268 C 14.242666666666668 -5.3693333333333335, 14.362000000000002 -5.491333333333333, 14.414 -5.634 C 14.466000000000001 -5.776666666666667, 14.495999999999999 -5.910666666666667, 14.504 -6.036 C 14.514666666666667 -6.182666666666666, 14.520666666666667 -6.339333333333333, 14.522 -6.506 C 14.523333333333333 -6.672666666666667, 14.520000000000001 -6.829333333333334, 14.512 -6.976 C 14.506666666666666 -7.08, 14.476666666666667 -7.165999999999999, 14.422 -7.233999999999999 C 14.367333333333335 -7.302, 14.288 -7.350666666666666, 14.184000000000001 -7.38 L 14.184000000000001 -8.268 C 14.672 -8.236, 15.022000000000002 -8.104666666666667, 15.234 -7.874 C 15.446000000000002 -7.643333333333333, 15.562666666666667 -7.282666666666666, 15.584 -6.792 C 15.586666666666668 -6.728, 15.588666666666668 -6.6626666666666665, 15.59 -6.595999999999999 C 15.591333333333335 -6.529333333333334, 15.592000000000002 -6.464666666666666, 15.592 -6.402 C 15.592000000000002 -6.339333333333332, 15.591333333333335 -6.277333333333333, 15.59 -6.216 C 15.588666666666668 -6.1546666666666665, 15.586666666666668 -6.094666666666667, 15.584 -6.036 C 15.573333333333332 -5.750666666666667, 15.52 -5.504, 15.424 -5.295999999999999 C 15.328 -5.088, 15.197999999999999 -4.908, 15.033999999999999 -4.756 C 14.87 -4.604, 14.68 -4.468, 14.464 -4.348 L 13.86 -4.02 C 13.745333333333335 -3.9586666666666663, 13.655333333333335 -3.8746666666666663, 13.59 -3.768 C 13.524666666666668 -3.6613333333333333, 13.478000000000002 -3.548, 13.45 -3.428 C 13.422 -3.308, 13.408 -3.1959999999999997, 13.408 -3.0919999999999996 L 13.408 -1.7999999999999998 Z M 12.336 -5.84 C 12.330666666666666 -5.957333333333333, 12.326666666666664 -6.071999999999999, 12.324 -6.184 C 12.321333333333332 -6.295999999999999, 12.319333333333333 -6.401999999999999, 12.318 -6.502 C 12.316666666666666 -6.602, 12.317333333333334 -6.698666666666666, 12.32 -6.792 C 12.338666666666668 -7.279999999999999, 12.455333333333336 -7.639333333333333, 12.67 -7.87 C 12.884666666666668 -8.100666666666667, 13.221333333333334 -8.233333333333334, 13.68 -8.268 L 13.68 -7.3759999999999994 C 13.584 -7.346666666666666, 13.513333333333332 -7.3, 13.468 -7.236 C 13.422666666666668 -7.172, 13.398666666666667 -7.094666666666667, 13.396 -7.004 C 13.390666666666666 -6.795999999999999, 13.387333333333332 -6.602666666666666, 13.386 -6.424 C 13.384666666666666 -6.245333333333333, 13.389333333333333 -6.050666666666666, 13.4 -5.84 Z M 13.911999999999999 -1.7999999999999998 L 13.911999999999999 -2.7319999999999998 L 15.508 -2.7319999999999998 L 15.508 -1.7999999999999998 Z M 16.18 -3.2159999999999997 C 16.174666666666667 -3.389333333333333, 16.173333333333332 -3.528666666666667, 16.176 -3.634 C 16.178666666666665 -3.7393333333333336, 16.181333333333335 -3.841333333333333, 16.183999999999997 -3.94 L 17.264 -3.94 C 17.256 -3.8626666666666667, 17.25 -3.7666666666666666, 17.246 -3.6519999999999997 C 17.241999999999997 -3.5373333333333328, 17.240666666666666 -3.4266666666666667, 17.241999999999997 -3.32 C 17.243333333333332 -3.213333333333334, 17.246666666666666 -3.1333333333333337, 17.252 -3.08 C 17.262666666666668 -2.96, 17.297333333333334 -2.862, 17.355999999999998 -2.7859999999999996 C 17.414666666666665 -2.71, 17.497333333333334 -2.6559999999999997, 17.604 -2.6239999999999997 L 17.604 -1.7319999999999998 C 17.110666666666663 -1.7693333333333332, 16.75333333333333 -1.904, 16.532 -2.1359999999999997 C 16.310666666666666 -2.368, 16.19333333333333 -2.7279999999999998, 16.18 -3.2159999999999997 Z M 16.279999999999998 -4.552 L 16.279999999999998 -8.2 L 17.348 -8.2 L 17.348 -4.552 Z M 17.852 -4.976 L 17.852 -5.731999999999999 C 17.929333333333332 -5.771999999999999, 18.014666666666667 -5.804, 18.107999999999997 -5.828 C 18.20133333333333 -5.852, 18.301333333333332 -5.864, 18.407999999999998 -5.864 C 18.773333333333333 -5.864, 19.047333333333334 -5.748666666666667, 19.23 -5.518 C 19.412666666666667 -5.287333333333333, 19.514666666666663 -4.973333333333333, 19.535999999999998 -4.576 C 19.546666666666667 -4.416, 19.55333333333333 -4.257333333333333, 19.555999999999997 -4.1 C 19.558666666666664 -3.9426666666666668, 19.557333333333332 -3.7893333333333334, 19.552 -3.6399999999999997 C 19.546666666666667 -3.490666666666667, 19.538666666666668 -3.3506666666666667, 19.528 -3.2199999999999998 C 19.482666666666667 -2.721333333333333, 19.353333333333335 -2.356, 19.14 -2.1239999999999997 C 18.926666666666666 -1.892, 18.581333333333333 -1.7613333333333332, 18.104 -1.7319999999999998 L 18.104 -2.6239999999999997 C 18.21333333333333 -2.653333333333333, 18.296 -2.7059999999999995, 18.352 -2.782 C 18.408 -2.8579999999999997, 18.44 -2.957333333333333, 18.448 -3.08 C 18.471999999999998 -3.3706666666666667, 18.485999999999997 -3.6319999999999997, 18.49 -3.864 C 18.494 -4.096, 18.485333333333333 -4.317333333333333, 18.464 -4.5280000000000005 C 18.447999999999997 -4.682666666666667, 18.396666666666665 -4.798, 18.31 -4.874 C 18.223333333333333 -4.949999999999999, 18.090666666666664 -4.9879999999999995, 17.912 -4.9879999999999995 C 17.901333333333334 -4.9879999999999995, 17.890666666666668 -4.986666666666666, 17.88 -4.984 C 17.86933333333333 -4.981333333333334, 17.86 -4.978666666666667, 17.852 -4.976 Z M 17.852 -7.268 L 17.852 -8.2 L 19.439999999999998 -8.2 L 19.439999999999998 -7.268 Z M 21.944 -1.7999999999999998 L 21.944 -8.2 L 23.003999999999998 -8.2 L 23.003999999999998 -1.7999999999999998 Z " stroke="none" fill-rule="nonzero" fill="#000000" fill-opacity="1" transform="matrix(1,0,0,1,5.05,13.314)" id="text25 l" />
  <path d="M -5 -13.264 L 30 -13.264 L 30 350.8712957259122 L -5 350.8712957259122 Z " stroke="#FF0000" stroke-opacity="1" stroke-width="0.1" stroke-linecap="butt" stroke-linejoin="miter" fill="none" transform="matrix(1,0,0,1,5.05,13.314)" />
</svg>