<?xml version="1.0" encoding="UTF-8"?>
<svg xmlns:xlink="http://www.w3.org/1999/xlink" viewBox="0 0 35.1 340.00846064489775" version="1.1" style="font-synthesis: none;" width="35.1mm" height="340.00846064489775mm" xmlns="http://www.w3.org/2000/svg">
  <defs />
  <style>	</style>
  <path d="M 0 0 L 35.1 0 L 35.1 340.00846064489775 L 0 340.00846064489775 Z " stroke="none" fill-rule="nonzero" fill="#FFFFFF" fill-opacity="1" transform="matrix(1,0,0,1,0,0)" />
  <path d="M 0 319.12646064489775 L 10 319.12646064489775 L 10 320.62646064489775 L 0 320.62646064489775 Z " stroke="none" fill-rule="evenodd" fill="#000000" fill-opacity="1" transform="matrix(1,0,0,1,5.05,13.314)" id="mark1 l" />
  <path d="M 0 310.92450011554143 L 10 310.92450011554143 L 10 312.42450011554143 L 0 312.42450011554143 Z " stroke="none" fill-rule="evenodd" fill="#000000" fill-opacity="1" transform="matrix(1,0,0,1,5.05,13.314)" id="mark2 l" />
  <path d="M 0 302.72253958618506 L 10 302.72253958618506 L 10 304.22253958618506 L 0 304.22253958618506 Z " stroke="none" fill-rule="evenodd" fill="#000000" fill-opacity="1" transform="matrix(1,0,0,1,5.05,13.314)" id="mark3 l" />
  <path d="M 0 294.5205790568287 L 10 294.5205790568287 L 10 296.0205790568287 L 0 296.0205790568287 Z " stroke="none" fill-rule="evenodd" fill="#000000" fill-opacity="1" transform="matrix(1,0,0,1,5.05,13.314)" id="mark4 l" />
  <path d="M 0 286.3186185274724 L 25 286.3186185274724 L 25 287.8186185274724 L 0 287.8186185274724 Z " stroke="none" fill-rule="evenodd" fill="#000000" fill-opacity="1" transform="matrix(1,0,0,1,5.05,13.314)" id="mark5 l" />
  <path d="M 16.18 283.8206185274724 C 16.174666666666667 283.64728519413904, 16.173333333333332 283.50795186080575, 16.176 283.4026185274724 C 16.178666666666665 283.297285194139, 16.181333333333335 283.19528519413905, 16.183999999999997 283.0966185274724 L 17.264 283.0966185274724 C 17.256 283.17395186080574, 17.25 283.26995186080575, 17.246 283.3846185274724 C 17.241999999999997 283.4992851941391, 17.240666666666666 283.6099518608057, 17.241999999999997 283.7166185274724 C 17.243333333333332 283.8232851941391, 17.246666666666666 283.9032851941391, 17.252 283.9566185274724 C 17.262666666666668 284.07661852747236, 17.297333333333334 284.1746185274724, 17.355999999999998 284.2506185274724 C 17.414666666666665 284.3266185274724, 17.497333333333334 284.3806185274724, 17.604 284.4126185274724 L 17.604 285.30461852747237 C 17.110666666666663 285.26728519413905, 16.75333333333333 285.1326185274724, 16.532 284.9006185274724 C 16.310666666666666 284.66861852747235, 16.19333333333333 284.3086185274724, 16.18 283.8206185274724 Z M 16.279999999999998 282.4846185274724 L 16.279999999999998 278.8366185274724 L 17.348 278.8366185274724 L 17.348 282.4846185274724 Z M 17.852 282.0606185274724 L 17.852 281.30461852747237 C 17.929333333333332 281.26461852747235, 18.014666666666667 281.23261852747237, 18.107999999999997 281.20861852747237 C 18.20133333333333 281.18461852747237, 18.301333333333332 281.17261852747237, 18.407999999999998 281.17261852747237 C 18.773333333333333 281.17261852747237, 19.047333333333334 281.2879518608057, 19.23 281.51861852747237 C 19.412666666666667 281.749285194139, 19.514666666666663 282.06328519413904, 19.535999999999998 282.4606185274724 C 19.546666666666667 282.6206185274724, 19.55333333333333 282.77928519413905, 19.555999999999997 282.9366185274724 C 19.558666666666664 283.0939518608057, 19.557333333333332 283.24728519413907, 19.552 283.3966185274724 C 19.546666666666667 283.54595186080576, 19.538666666666668 283.68595186080574, 19.528 283.8166185274724 C 19.482666666666667 284.31528519413905, 19.353333333333335 284.68061852747235, 19.14 284.9126185274724 C 18.926666666666666 285.1446185274724, 18.581333333333333 285.27528519413903, 18.104 285.30461852747237 L 18.104 284.4126185274724 C 18.21333333333333 284.38328519413903, 18.296 284.3306185274724, 18.352 284.25461852747236 C 18.408 284.1786185274724, 18.44 284.07928519413906, 18.448 283.9566185274724 C 18.471999999999998 283.6659518608057, 18.485999999999997 283.4046185274724, 18.49 283.17261852747237 C 18.494 282.9406185274724, 18.485333333333333 282.71928519413905, 18.464 282.5086185274724 C 18.447999999999997 282.35395186080575, 18.396666666666665 282.2386185274724, 18.31 282.1626185274724 C 18.223333333333333 282.0866185274724, 18.090666666666664 282.0486185274724, 17.912 282.0486185274724 C 17.901333333333334 282.0486185274724, 17.890666666666668 282.0499518608057, 17.88 282.05261852747236 C 17.86933333333333 282.05528519413906, 17.86 282.0579518608057, 17.852 282.0606185274724 Z M 17.852 279.76861852747237 L 17.852 278.8366185274724 L 19.439999999999998 278.8366185274724 L 19.439999999999998 279.76861852747237 Z M 21.944 285.2366185274724 L 21.944 278.8366185274724 L 23.003999999999998 278.8366185274724 L 23.003999999999998 285.2366185274724 Z " stroke="none" fill-rule="nonzero" fill="#000000" fill-opacity="1" transform="matrix(1,0,0,1,5.05,13.314)" id="text5 l" />
  <path d="M 0 278.116657998116 L 10 278.116657998116 L 10 279.616657998116 L 0 279.616657998116 Z " stroke="none" fill-rule="evenodd" fill="#000000" fill-opacity="1" transform="matrix(1,0,0,1,5.05,13.314)" id="mark6 l" />
  <path d="M 0 269.91469746875964 L 10 269.91469746875964 L 10 271.41469746875964 L 0 271.41469746875964 Z " stroke="none" fill-rule="evenodd" fill="#000000" fill-opacity="1" transform="matrix(1,0,0,1,5.05,13.314)" id="mark7 l" />
  <path d="M 0 261.71273693940327 L 10 261.71273693940327 L 10 263.21273693940327 L 0 263.21273693940327 Z " stroke="none" fill-rule="evenodd" fill="#000000" fill-opacity="1" transform="matrix(1,0,0,1,5.05,13.314)" id="mark8 l" />
  <path d="M 0 253.51077641004696 L 10 253.51077641004696 L 10 255.01077641004696 L 0 255.01077641004696 Z " stroke="none" fill-rule="evenodd" fill="#000000" fill-opacity="1" transform="matrix(1,0,0,1,5.05,13.314)" id="mark9 l" />
  <path d="M 0 245.3088158806906 L 25 245.3088158806906 L 25 246.8088158806906 L 0 246.8088158806906 Z " stroke="none" fill-rule="evenodd" fill="#000000" fill-opacity="1" transform="matrix(1,0,0,1,5.05,13.314)" id="mark10 l" />
  <path d="M 14.323999999999998 244.2588158806906 L 14.323999999999998 238.81481588069062 L 13.871999999999998 238.81481588069062 L 13.839999999999998 238.4348158806906 L 14.543999999999999 237.8588158806906 L 15.424 237.8588158806906 L 15.424 244.2588158806906 Z M 16.196 242.8468158806906 C 16.188000000000002 242.41748254735728, 16.182666666666666 242.0008158806906, 16.18 241.5968158806906 C 16.177333333333333 241.1928158806906, 16.177999999999997 240.79748254735728, 16.182 240.4108158806906 C 16.186 240.02414921402394, 16.190666666666665 239.6428158806906, 16.196 239.26681588069061 C 16.209333333333333 238.82681588069062, 16.334000000000003 238.48148254735727, 16.57 238.2308158806906 C 16.805999999999997 237.98014921402395, 17.142666666666663 237.8348158806906, 17.58 237.7948158806906 L 17.58 238.6828158806906 C 17.382666666666665 238.73881588069062, 17.281333333333333 238.86814921402396, 17.276 239.07081588069062 C 17.262666666666668 239.44148254735728, 17.253333333333334 239.7894825473573, 17.248 240.1148158806906 C 17.242666666666665 240.44014921402396, 17.24 240.75681588069062, 17.24 241.06481588069062 C 17.24 241.3728158806906, 17.242666666666665 241.68748254735726, 17.248 242.0088158806906 C 17.253333333333334 242.33014921402395, 17.262666666666668 242.67348254735728, 17.276 243.0388158806906 C 17.281333333333333 243.2468158806906, 17.382666666666665 243.37881588069058, 17.58 243.4348158806906 L 17.58 244.3228158806906 C 17.142666666666663 244.2828158806906, 16.805999999999997 244.13681588069062, 16.57 243.8848158806906 C 16.334000000000003 243.6328158806906, 16.209333333333333 243.2868158806906, 16.196 242.8468158806906 Z M 18.084 244.3228158806906 L 18.084 243.4308158806906 C 18.268 243.37748254735726, 18.366666666666667 243.2534825473573, 18.38 243.05881588069062 C 18.398666666666667 242.59214921402395, 18.410666666666668 242.14348254735728, 18.416 241.7128158806906 C 18.421333333333333 241.28214921402395, 18.421333333333333 240.85148254735725, 18.416 240.4208158806906 C 18.410666666666668 239.99014921402392, 18.398666666666667 239.53748254735726, 18.38 239.0628158806906 C 18.374666666666666 238.86814921402393, 18.276 238.74148254735726, 18.084 238.6828158806906 L 18.084 237.7948158806906 C 18.513333333333335 237.8348158806906, 18.846666666666668 237.98014921402395, 19.084 238.2308158806906 C 19.321333333333335 238.48148254735727, 19.445333333333334 238.82681588069062, 19.456 239.26681588069061 C 19.46666666666667 239.58148254735727, 19.474666666666668 239.89148254735727, 19.48 240.1968158806906 C 19.485333333333333 240.50214921402392, 19.488 240.80281588069062, 19.488 241.0988158806906 C 19.488 241.3948158806906, 19.485333333333333 241.68814921402395, 19.48 241.9788158806906 C 19.474666666666668 242.26948254735726, 19.46666666666667 242.5588158806906, 19.456 242.8468158806906 C 19.439999999999998 243.29748254735728, 19.311999999999998 243.64614921402392, 19.072 243.8928158806906 C 18.832 244.13948254735726, 18.502666666666666 244.2828158806906, 18.084 244.3228158806906 Z M 21.944 244.2588158806906 L 21.944 237.8588158806906 L 23.003999999999998 237.8588158806906 L 23.003999999999998 244.2588158806906 Z " stroke="none" fill-rule="nonzero" fill="#000000" fill-opacity="1" transform="matrix(1,0,0,1,5.05,13.314)" id="text10 l" />
  <path d="M 0 237.10685535133422 L 10 237.10685535133422 L 10 238.60685535133422 L 0 238.60685535133422 Z " stroke="none" fill-rule="evenodd" fill="#000000" fill-opacity="1" transform="matrix(1,0,0,1,5.05,13.314)" id="mark11 l" />
  <path d="M 0 228.9048948219779 L 10 228.9048948219779 L 10 230.4048948219779 L 0 230.4048948219779 Z " stroke="none" fill-rule="evenodd" fill="#000000" fill-opacity="1" transform="matrix(1,0,0,1,5.05,13.314)" id="mark12 l" />
  <path d="M 0 220.70293429262153 L 10 220.70293429262153 L 10 222.20293429262153 L 0 222.20293429262153 Z " stroke="none" fill-rule="evenodd" fill="#000000" fill-opacity="1" transform="matrix(1,0,0,1,5.05,13.314)" id="mark13 l" />
  <path d="M 0 212.50097376326516 L 10 212.50097376326516 L 10 214.00097376326516 L 0 214.00097376326516 Z " stroke="none" fill-rule="evenodd" fill="#000000" fill-opacity="1" transform="matrix(1,0,0,1,5.05,13.314)" id="mark14 l" />
  <path d="M 0 204.29901323390882 L 25 204.29901323390882 L 25 205.79901323390882 L 0 205.79901323390882 Z " stroke="none" fill-rule="evenodd" fill="#000000" fill-opacity="1" transform="matrix(1,0,0,1,5.05,13.314)" id="mark15 l" />
  <path d="M 14.331999999999999 203.21701323390883 L 14.331999999999999 197.77301323390884 L 13.879999999999999 197.77301323390884 L 13.847999999999999 197.39301323390882 L 14.552 196.81701323390882 L 15.432 196.81701323390882 L 15.432 203.21701323390883 Z M 16.18 201.80101323390883 C 16.174666666666667 201.62767990057552, 16.173333333333332 201.48834656724216, 16.176 201.38301323390883 C 16.178666666666665 201.2776799005755, 16.181333333333335 201.17567990057552, 16.183999999999997 201.07701323390884 L 17.264 201.07701323390884 C 17.256 201.15434656724216, 17.25 201.25034656724216, 17.246 201.36501323390883 C 17.241999999999997 201.4796799005755, 17.240666666666666 201.59034656724214, 17.241999999999997 201.69701323390882 C 17.243333333333332 201.8036799005755, 17.246666666666666 201.8836799005755, 17.252 201.93701323390883 C 17.262666666666668 202.05701323390883, 17.297333333333334 202.15501323390885, 17.355999999999998 202.23101323390884 C 17.414666666666665 202.30701323390883, 17.497333333333334 202.3610132339088, 17.604 202.39301323390882 L 17.604 203.28501323390884 C 17.110666666666663 203.24767990057552, 16.75333333333333 203.11301323390882, 16.532 202.88101323390882 C 16.310666666666666 202.64901323390882, 16.19333333333333 202.28901323390886, 16.18 201.80101323390883 Z M 16.279999999999998 200.46501323390882 L 16.279999999999998 196.81701323390882 L 17.348 196.81701323390882 L 17.348 200.46501323390882 Z M 17.852 200.04101323390884 L 17.852 199.28501323390884 C 17.929333333333332 199.24501323390885, 18.014666666666667 199.21301323390884, 18.107999999999997 199.18901323390884 C 18.20133333333333 199.16501323390884, 18.301333333333332 199.15301323390884, 18.407999999999998 199.15301323390884 C 18.773333333333333 199.15301323390884, 19.047333333333334 199.2683465672422, 19.23 199.49901323390884 C 19.412666666666667 199.7296799005755, 19.514666666666663 200.0436799005755, 19.535999999999998 200.44101323390882 C 19.546666666666667 200.60101323390882, 19.55333333333333 200.75967990057552, 19.555999999999997 200.91701323390882 C 19.558666666666664 201.07434656724217, 19.557333333333332 201.22767990057548, 19.552 201.37701323390883 C 19.546666666666667 201.52634656724217, 19.538666666666668 201.66634656724216, 19.528 201.79701323390884 C 19.482666666666667 202.2956799005755, 19.353333333333335 202.66101323390882, 19.14 202.89301323390882 C 18.926666666666666 203.12501323390882, 18.581333333333333 203.2556799005755, 18.104 203.28501323390884 L 18.104 202.39301323390882 C 18.21333333333333 202.3636799005755, 18.296 202.31101323390885, 18.352 202.23501323390883 C 18.408 202.1590132339088, 18.44 202.05967990057547, 18.448 201.93701323390883 C 18.471999999999998 201.64634656724218, 18.485999999999997 201.3850132339088, 18.49 201.15301323390884 C 18.494 200.9210132339088, 18.485333333333333 200.6996799005755, 18.464 200.48901323390882 C 18.447999999999997 200.33434656724216, 18.396666666666665 200.2190132339088, 18.31 200.14301323390882 C 18.223333333333333 200.06701323390882, 18.090666666666664 200.02901323390887, 17.912 200.02901323390884 C 17.901333333333334 200.02901323390887, 17.890666666666668 200.0303465672422, 17.88 200.03301323390883 C 17.86933333333333 200.03567990057547, 17.86 200.03834656724217, 17.852 200.04101323390884 Z M 17.852 197.74901323390884 L 17.852 196.81701323390882 L 19.439999999999998 196.81701323390882 L 19.439999999999998 197.74901323390884 Z M 21.944 203.21701323390883 L 21.944 196.81701323390882 L 23.003999999999998 196.81701323390882 L 23.003999999999998 203.21701323390883 Z " stroke="none" fill-rule="nonzero" fill="#000000" fill-opacity="1" transform="matrix(1,0,0,1,5.05,13.314)" id="text15 l" />
  <path d="M 0 196.09705270455248 L 10 196.09705270455248 L 10 197.59705270455248 L 0 197.59705270455248 Z " stroke="none" fill-rule="evenodd" fill="#000000" fill-opacity="1" transform="matrix(1,0,0,1,5.05,13.314)" id="mark16 l" />
  <path d="M 0 187.8950921751961 L 10 187.8950921751961 L 10 189.3950921751961 L 0 189.3950921751961 Z " stroke="none" fill-rule="evenodd" fill="#000000" fill-opacity="1" transform="matrix(1,0,0,1,5.05,13.314)" id="mark17 l" />
  <path d="M 0 179.69313164583977 L 10 179.69313164583977 L 10 181.19313164583977 L 0 181.19313164583977 Z " stroke="none" fill-rule="evenodd" fill="#000000" fill-opacity="1" transform="matrix(1,0,0,1,5.05,13.314)" id="mark18 l" />
  <path d="M 0 171.49117111648343 L 10 171.49117111648343 L 10 172.99117111648343 L 0 172.99117111648343 Z " stroke="none" fill-rule="evenodd" fill="#000000" fill-opacity="1" transform="matrix(1,0,0,1,5.05,13.314)" id="mark19 l" />
  <path d="M 0 163.28921058712706 L 25 163.28921058712706 L 25 164.78921058712706 L 0 164.78921058712706 Z " stroke="none" fill-rule="evenodd" fill="#000000" fill-opacity="1" transform="matrix(1,0,0,1,5.05,13.314)" id="mark20 l" />
  <path d="M 12.319999999999999 162.23921058712708 C 12.317333333333334 162.1405439204604, 12.315333333333331 162.05187725379375, 12.313999999999998 161.97321058712708 C 12.312666666666665 161.89454392046042, 12.311333333333334 161.8205439204604, 12.309999999999999 161.75121058712708 C 12.308666666666667 161.68187725379374, 12.308 161.60987725379374, 12.308 161.53521058712707 C 12.308 161.4605439204604, 12.308 161.37587725379373, 12.308 161.28121058712708 C 12.308 161.18654392046042, 12.309333333333335 161.0752105871271, 12.312 160.94721058712707 C 12.32 160.65387725379375, 12.37 160.39187725379375, 12.462 160.16121058712707 C 12.554 159.9305439204604, 12.687999999999999 159.7245439204604, 12.863999999999999 159.54321058712708 C 13.04 159.36187725379375, 13.257333333333333 159.2005439204604, 13.515999999999998 159.05921058712707 L 14.047999999999998 158.7712105871271 C 14.234666666666666 158.66987725379374, 14.354 158.54787725379373, 14.405999999999999 158.40521058712707 C 14.457999999999998 158.26254392046042, 14.488 158.1285439204604, 14.495999999999999 158.00321058712709 C 14.506666666666664 157.8565439204604, 14.512666666666664 157.69987725379374, 14.514 157.5332105871271 C 14.51533333333333 157.36654392046043, 14.511999999999997 157.20987725379376, 14.504 157.0632105871271 C 14.498666666666665 156.95921058712707, 14.468666666666666 156.87321058712706, 14.413999999999998 156.80521058712708 C 14.359333333333332 156.7372105871271, 14.279999999999998 156.6885439204604, 14.175999999999998 156.65921058712706 L 14.175999999999998 155.7712105871271 C 14.663999999999998 155.8032105871271, 15.014 155.9345439204604, 15.225999999999999 156.16521058712706 C 15.437999999999999 156.39587725379374, 15.554666666666666 156.7565439204604, 15.575999999999999 157.24721058712709 C 15.578666666666663 157.3112105871271, 15.580666666666666 157.37654392046042, 15.581999999999999 157.44321058712708 C 15.583333333333332 157.50987725379375, 15.584 157.57454392046043, 15.584 157.63721058712707 C 15.584 157.69987725379372, 15.583333333333332 157.76187725379373, 15.581999999999999 157.82321058712708 C 15.580666666666666 157.8845439204604, 15.578666666666663 157.9445439204604, 15.575999999999999 158.00321058712709 C 15.565333333333331 158.28854392046043, 15.512 158.53521058712707, 15.415999999999999 158.74321058712707 C 15.32 158.95121058712706, 15.19 159.13121058712707, 15.026 159.2832105871271 C 14.862 159.43521058712707, 14.672 159.57121058712707, 14.456 159.69121058712707 L 13.851999999999999 160.01921058712708 C 13.737333333333332 160.0805439204604, 13.647333333333332 160.1645439204604, 13.581999999999999 160.2712105871271 C 13.516666666666666 160.37787725379374, 13.469999999999999 160.49121058712706, 13.441999999999998 160.61121058712706 C 13.413999999999998 160.73121058712707, 13.399999999999999 160.84321058712706, 13.399999999999999 160.94721058712707 L 13.399999999999999 162.23921058712708 Z M 12.328 158.19921058712708 C 12.322666666666667 158.08187725379375, 12.318666666666665 157.96721058712708, 12.315999999999999 157.8552105871271 C 12.313333333333333 157.7432105871271, 12.311333333333334 157.63721058712707, 12.309999999999999 157.53721058712708 C 12.308666666666667 157.43721058712708, 12.309333333333335 157.3405439204604, 12.312 157.24721058712709 C 12.330666666666666 156.7592105871271, 12.447333333333333 156.39987725379376, 12.661999999999999 156.16921058712708 C 12.876666666666665 155.9385439204604, 13.213333333333331 155.80587725379374, 13.671999999999999 155.7712105871271 L 13.671999999999999 156.66321058712708 C 13.576 156.6925439204604, 13.505333333333333 156.73921058712708, 13.459999999999999 156.80321058712707 C 13.414666666666665 156.86721058712706, 13.390666666666664 156.9445439204604, 13.387999999999998 157.03521058712707 C 13.382666666666665 157.24321058712707, 13.379333333333333 157.43654392046042, 13.378 157.61521058712708 C 13.376666666666667 157.79387725379374, 13.381333333333334 157.98854392046042, 13.392 158.19921058712708 Z M 13.904 162.23921058712708 L 13.904 161.3072105871271 L 15.5 161.3072105871271 L 15.5 162.23921058712708 Z M 16.196 160.82721058712707 C 16.188000000000002 160.39787725379375, 16.182666666666666 159.98121058712707, 16.18 159.57721058712707 C 16.177333333333333 159.17321058712707, 16.177999999999997 158.77787725379375, 16.182 158.39121058712706 C 16.186 158.0045439204604, 16.190666666666665 157.62321058712706, 16.196 157.24721058712709 C 16.209333333333333 156.8072105871271, 16.334000000000003 156.46187725379374, 16.57 156.21121058712708 C 16.805999999999997 155.96054392046042, 17.142666666666663 155.81521058712707, 17.58 155.77521058712708 L 17.58 156.66321058712708 C 17.382666666666665 156.7192105871271, 17.281333333333333 156.84854392046043, 17.276 157.0512105871271 C 17.262666666666668 157.42187725379375, 17.253333333333334 157.76987725379374, 17.248 158.09521058712707 C 17.242666666666665 158.4205439204604, 17.24 158.7372105871271, 17.24 159.0452105871271 C 17.24 159.35321058712708, 17.242666666666665 159.66787725379373, 17.248 159.98921058712708 C 17.253333333333334 160.31054392046042, 17.262666666666668 160.65387725379375, 17.276 161.01921058712708 C 17.281333333333333 161.22721058712708, 17.382666666666665 161.35921058712708, 17.58 161.41521058712706 L 17.58 162.30321058712707 C 17.142666666666663 162.26321058712708, 16.805999999999997 162.1172105871271, 16.57 161.86521058712708 C 16.334000000000003 161.61321058712707, 16.209333333333333 161.26721058712707, 16.196 160.82721058712707 Z M 18.084 162.30321058712707 L 18.084 161.41121058712707 C 18.268 161.35787725379376, 18.366666666666667 161.23387725379376, 18.38 161.0392105871271 C 18.398666666666667 160.57254392046042, 18.410666666666668 160.12387725379375, 18.416 159.69321058712708 C 18.421333333333333 159.26254392046042, 18.421333333333333 158.83187725379375, 18.416 158.40121058712708 C 18.410666666666668 157.97054392046041, 18.398666666666667 157.51787725379373, 18.38 157.04321058712708 C 18.374666666666666 156.8485439204604, 18.276 156.72187725379374, 18.084 156.66321058712708 L 18.084 155.77521058712708 C 18.513333333333335 155.81521058712707, 18.846666666666668 155.96054392046042, 19.084 156.21121058712708 C 19.321333333333335 156.46187725379374, 19.445333333333334 156.8072105871271, 19.456 157.24721058712709 C 19.46666666666667 157.56187725379374, 19.474666666666668 157.87187725379374, 19.48 158.17721058712706 C 19.485333333333333 158.4825439204604, 19.488 158.78321058712706, 19.488 159.07921058712708 C 19.488 159.37521058712707, 19.485333333333333 159.66854392046042, 19.48 159.95921058712707 C 19.474666666666668 160.24987725379373, 19.46666666666667 160.53921058712706, 19.456 160.82721058712707 C 19.439999999999998 161.27787725379375, 19.311999999999998 161.62654392046042, 19.072 161.87321058712706 C 18.832 162.11987725379373, 18.502666666666666 162.26321058712708, 18.084 162.30321058712707 Z M 21.944 162.23921058712708 L 21.944 155.83921058712707 L 23.003999999999998 155.83921058712707 L 23.003999999999998 162.23921058712708 Z " stroke="none" fill-rule="nonzero" fill="#000000" fill-opacity="1" transform="matrix(1,0,0,1,5.05,13.314)" id="text20 l" />
  <path d="M 0 155.08725005777072 L 10 155.08725005777072 L 10 156.58725005777072 L 0 156.58725005777072 Z " stroke="none" fill-rule="evenodd" fill="#000000" fill-opacity="1" transform="matrix(1,0,0,1,5.05,13.314)" id="mark21 l" />
  <path d="M 0 146.88528952841435 L 10 146.88528952841435 L 10 148.38528952841435 L 0 148.38528952841435 Z " stroke="none" fill-rule="evenodd" fill="#000000" fill-opacity="1" transform="matrix(1,0,0,1,5.05,13.314)" id="mark22 l" />
  <path d="M 0 138.683328999058 L 10 138.683328999058 L 10 140.183328999058 L 0 140.183328999058 Z " stroke="none" fill-rule="evenodd" fill="#000000" fill-opacity="1" transform="matrix(1,0,0,1,5.05,13.314)" id="mark23 l" />
  <path d="M 0 130.48136846970166 L 10 130.48136846970166 L 10 131.98136846970166 L 0 131.98136846970166 Z " stroke="none" fill-rule="evenodd" fill="#000000" fill-opacity="1" transform="matrix(1,0,0,1,5.05,13.314)" id="mark24 l" />
  <path d="M 0 122.2794079403453 L 25 122.2794079403453 L 25 123.7794079403453 L 0 123.7794079403453 Z " stroke="none" fill-rule="evenodd" fill="#000000" fill-opacity="1" transform="matrix(1,0,0,1,5.05,13.314)" id="mark25 l" />
  <path d="M 12.328 121.2294079403453 C 12.325333333333333 121.13074127367864, 12.323333333333332 121.04207460701195, 12.322 120.96340794034529 C 12.320666666666666 120.88474127367863, 12.319333333333333 120.81074127367862, 12.318 120.7414079403453 C 12.316666666666666 120.67207460701195, 12.315999999999999 120.60007460701196, 12.316 120.5254079403453 C 12.315999999999999 120.45074127367863, 12.315999999999999 120.36607460701197, 12.316 120.2714079403453 C 12.315999999999999 120.17674127367863, 12.317333333333334 120.0654079403453, 12.32 119.9374079403453 C 12.328 119.64407460701196, 12.378 119.38207460701196, 12.47 119.1514079403453 C 12.562000000000001 118.92074127367863, 12.696 118.71474127367863, 12.872 118.5334079403453 C 13.048 118.35207460701196, 13.265333333333334 118.19074127367861, 13.524000000000001 118.04940794034529 L 14.056000000000001 117.7614079403453 C 14.242666666666668 117.66007460701196, 14.362000000000002 117.53807460701196, 14.414 117.3954079403453 C 14.466000000000001 117.25274127367862, 14.495999999999999 117.11874127367862, 14.504 116.99340794034529 C 14.514666666666667 116.84674127367863, 14.520666666666667 116.69007460701197, 14.522 116.5234079403453 C 14.523333333333333 116.35674127367862, 14.520000000000001 116.20007460701196, 14.512 116.0534079403453 C 14.506666666666666 115.9494079403453, 14.476666666666667 115.8634079403453, 14.422 115.7954079403453 C 14.367333333333335 115.7274079403453, 14.288 115.67874127367864, 14.184000000000001 115.6494079403453 L 14.184000000000001 114.7614079403453 C 14.672 114.79340794034529, 15.022000000000002 114.92474127367862, 15.234 115.1554079403453 C 15.446000000000002 115.38607460701198, 15.562666666666667 115.74674127367862, 15.584 116.23740794034529 C 15.586666666666668 116.30140794034529, 15.588666666666668 116.36674127367863, 15.59 116.43340794034529 C 15.591333333333335 116.50007460701197, 15.592000000000002 116.56474127367864, 15.592 116.6274079403453 C 15.592000000000002 116.69007460701197, 15.591333333333335 116.75207460701196, 15.59 116.8134079403453 C 15.588666666666668 116.87474127367864, 15.586666666666668 116.93474127367863, 15.584 116.99340794034529 C 15.573333333333332 117.27874127367862, 15.52 117.52540794034529, 15.424 117.7334079403453 C 15.328 117.9414079403453, 15.197999999999999 118.1214079403453, 15.033999999999999 118.2734079403453 C 14.87 118.42540794034531, 14.68 118.5614079403453, 14.464 118.6814079403453 L 13.86 119.0094079403453 C 13.745333333333335 119.07074127367864, 13.655333333333335 119.15474127367862, 13.59 119.2614079403453 C 13.524666666666668 119.36807460701196, 13.478000000000002 119.48140794034529, 13.45 119.6014079403453 C 13.422 119.7214079403453, 13.408 119.8334079403453, 13.408 119.9374079403453 L 13.408 121.2294079403453 Z M 12.336 117.18940794034529 C 12.330666666666666 117.07207460701196, 12.326666666666664 116.95740794034529, 12.324 116.8454079403453 C 12.321333333333332 116.7334079403453, 12.319333333333333 116.6274079403453, 12.318 116.5274079403453 C 12.316666666666666 116.42740794034529, 12.317333333333334 116.33074127367863, 12.32 116.23740794034529 C 12.338666666666668 115.7494079403453, 12.455333333333336 115.39007460701195, 12.67 115.15940794034529 C 12.884666666666668 114.92874127367863, 13.221333333333334 114.79607460701196, 13.68 114.7614079403453 L 13.68 115.6534079403453 C 13.584 115.68274127367863, 13.513333333333332 115.72940794034531, 13.468 115.7934079403453 C 13.422666666666668 115.8574079403453, 13.398666666666667 115.93474127367863, 13.396 116.0254079403453 C 13.390666666666666 116.2334079403453, 13.387333333333332 116.42674127367863, 13.386 116.6054079403453 C 13.384666666666666 116.78407460701197, 13.389333333333333 116.97874127367862, 13.4 117.18940794034529 Z M 13.911999999999999 121.2294079403453 L 13.911999999999999 120.2974079403453 L 15.508 120.2974079403453 L 15.508 121.2294079403453 Z M 16.18 119.8134079403453 C 16.174666666666667 119.64007460701197, 16.173333333333332 119.50074127367861, 16.176 119.3954079403453 C 16.178666666666665 119.29007460701195, 16.181333333333335 119.18807460701196, 16.183999999999997 119.0894079403453 L 17.264 119.0894079403453 C 17.256 119.16674127367862, 17.25 119.26274127367861, 17.246 119.3774079403453 C 17.241999999999997 119.49207460701194, 17.240666666666666 119.60274127367862, 17.241999999999997 119.7094079403453 C 17.243333333333332 119.81607460701196, 17.246666666666666 119.89607460701197, 17.252 119.9494079403453 C 17.262666666666668 120.06940794034531, 17.297333333333334 120.1674079403453, 17.355999999999998 120.24340794034529 C 17.414666666666665 120.31940794034529, 17.497333333333334 120.37340794034529, 17.604 120.4054079403453 L 17.604 121.2974079403453 C 17.110666666666663 121.26007460701197, 16.75333333333333 121.1254079403453, 16.532 120.8934079403453 C 16.310666666666666 120.6614079403453, 16.19333333333333 120.30140794034531, 16.18 119.8134079403453 Z M 16.279999999999998 118.4774079403453 L 16.279999999999998 114.82940794034529 L 17.348 114.82940794034529 L 17.348 118.4774079403453 Z M 17.852 118.0534079403453 L 17.852 117.2974079403453 C 17.929333333333332 117.2574079403453, 18.014666666666667 117.22540794034529, 18.107999999999997 117.20140794034529 C 18.20133333333333 117.17740794034529, 18.301333333333332 117.16540794034529, 18.407999999999998 117.16540794034529 C 18.773333333333333 117.16540794034529, 19.047333333333334 117.28074127367861, 19.23 117.5114079403453 C 19.412666666666667 117.74207460701197, 19.514666666666663 118.05607460701196, 19.535999999999998 118.4534079403453 C 19.546666666666667 118.6134079403453, 19.55333333333333 118.77207460701197, 19.555999999999997 118.9294079403453 C 19.558666666666664 119.08674127367863, 19.557333333333332 119.24007460701196, 19.552 119.3894079403453 C 19.546666666666667 119.53874127367862, 19.538666666666668 119.67874127367864, 19.528 119.8094079403453 C 19.482666666666667 120.30807460701197, 19.353333333333335 120.6734079403453, 19.14 120.9054079403453 C 18.926666666666666 121.1374079403453, 18.581333333333333 121.26807460701195, 18.104 121.2974079403453 L 18.104 120.4054079403453 C 18.21333333333333 120.37607460701196, 18.296 120.3234079403453, 18.352 120.2474079403453 C 18.408 120.17140794034529, 18.44 120.07207460701196, 18.448 119.9494079403453 C 18.471999999999998 119.65874127367863, 18.485999999999997 119.39740794034529, 18.49 119.16540794034529 C 18.494 118.93340794034529, 18.485333333333333 118.71207460701196, 18.464 118.5014079403453 C 18.447999999999997 118.34674127367863, 18.396666666666665 118.23140794034529, 18.31 118.1554079403453 C 18.223333333333333 118.0794079403453, 18.090666666666664 118.0414079403453, 17.912 118.0414079403453 C 17.901333333333334 118.0414079403453, 17.890666666666668 118.04274127367863, 17.88 118.0454079403453 C 17.86933333333333 118.04807460701196, 17.86 118.05074127367863, 17.852 118.0534079403453 Z M 17.852 115.7614079403453 L 17.852 114.82940794034529 L 19.439999999999998 114.82940794034529 L 19.439999999999998 115.7614079403453 Z M 21.944 121.2294079403453 L 21.944 114.82940794034529 L 23.003999999999998 114.82940794034529 L 23.003999999999998 121.2294079403453 Z " stroke="none" fill-rule="nonzero" fill="#000000" fill-opacity="1" transform="matrix(1,0,0,1,5.05,13.314)" id="text25 l" />
  <path d="M 0 114.07744741098895 L 10 114.07744741098895 L 10 115.57744741098895 L 0 115.57744741098895 Z " stroke="none" fill-rule="evenodd" fill="#000000" fill-opacity="1" transform="matrix(1,0,0,1,5.05,13.314)" id="mark26 l" />
  <path d="M 0 105.87548688163258 L 10 105.87548688163258 L 10 107.37548688163258 L 0 107.37548688163258 Z " stroke="none" fill-rule="evenodd" fill="#000000" fill-opacity="1" transform="matrix(1,0,0,1,5.05,13.314)" id="mark27 l" />
  <path d="M 0 97.67352635227624 L 10 97.67352635227624 L 10 99.17352635227624 L 0 99.17352635227624 Z " stroke="none" fill-rule="evenodd" fill="#000000" fill-opacity="1" transform="matrix(1,0,0,1,5.05,13.314)" id="mark28 l" />
  <path d="M 0 89.4715658229199 L 10 89.4715658229199 L 10 90.9715658229199 L 0 90.9715658229199 Z " stroke="none" fill-rule="evenodd" fill="#000000" fill-opacity="1" transform="matrix(1,0,0,1,5.05,13.314)" id="mark29 l" />
  <path d="M 0 81.26960529356353 L 25 81.26960529356353 L 25 82.76960529356353 L 0 82.76960529356353 Z " stroke="none" fill-rule="evenodd" fill="#000000" fill-opacity="1" transform="matrix(1,0,0,1,5.05,13.314)" id="mark30 l" />
  <path d="M 12.223999999999998 78.80360529356354 C 12.221333333333334 78.7022719602302, 12.219333333333333 78.6182719602302, 12.218 78.55160529356353 C 12.216666666666667 78.48493862689686, 12.216666666666667 78.41693862689687, 12.218 78.34760529356353 C 12.219333333333333 78.2782719602302, 12.221333333333334 78.18893862689687, 12.223999999999998 78.07960529356353 L 13.303999999999998 78.07960529356353 L 13.303999999999998 78.94360529356354 C 13.303999999999998 79.18093862689686, 13.417333333333332 79.33160529356353, 13.643999999999998 79.39560529356353 L 13.643999999999998 80.28760529356353 C 13.155999999999999 80.25027196023021, 12.800666666666665 80.11560529356353, 12.578 79.88360529356353 C 12.355333333333334 79.65160529356353, 12.237333333333332 79.29160529356353, 12.223999999999998 78.80360529356354 Z M 12.292 74.75160529356353 L 12.292 73.81960529356353 L 15.536 73.81960529356353 L 15.536 74.75160529356353 Z M 14.143999999999998 79.39960529356354 C 14.367999999999999 79.34360529356354, 14.483999999999998 79.19293862689686, 14.491999999999999 78.94760529356353 C 14.497333333333334 78.74493862689687, 14.500666666666666 78.5622719602302, 14.501999999999999 78.39960529356354 C 14.503333333333332 78.23693862689686, 14.498666666666665 78.07960529356353, 14.488 77.92760529356353 C 14.48 77.77027196023019, 14.431999999999999 77.63693862689686, 14.344 77.52760529356354 C 14.256 77.4182719602302, 14.089333333333332 77.36627196023021, 13.844 77.37160529356353 L 13.096 77.37960529356353 L 13.068 76.48760529356353 L 14.027999999999999 75.10360529356353 L 15.216 75.10360529356353 L 14.248 76.45560529356354 L 14.28 76.45560529356354 C 14.712 76.45560529356354, 15.028666666666666 76.5782719602302, 15.229999999999999 76.82360529356353 C 15.431333333333333 77.06893862689687, 15.544 77.4462719602302, 15.568 77.95560529356354 C 15.57333333333333 78.02760529356354, 15.576666666666664 78.09960529356353, 15.578 78.17160529356353 C 15.57933333333333 78.24360529356353, 15.579999999999998 78.3142719602302, 15.579999999999998 78.38360529356353 C 15.579999999999998 78.45293862689687, 15.57933333333333 78.5222719602302, 15.578 78.59160529356353 C 15.576666666666664 78.66093862689686, 15.57333333333333 78.73160529356353, 15.568 78.80360529356354 C 15.549333333333333 79.29960529356353, 15.428666666666665 79.6642719602302, 15.206 79.89760529356353 C 14.983333333333334 80.13093862689686, 14.630666666666666 80.26093862689686, 14.148 80.28760529356353 Z M 16.196 78.80760529356353 C 16.188000000000002 78.3782719602302, 16.182666666666666 77.96160529356354, 16.18 77.55760529356353 C 16.177333333333333 77.15360529356353, 16.177999999999997 76.7582719602302, 16.182 76.37160529356353 C 16.186 75.98493862689686, 16.190666666666665 75.60360529356353, 16.196 75.22760529356353 C 16.209333333333333 74.78760529356353, 16.334000000000003 74.4422719602302, 16.57 74.19160529356353 C 16.805999999999997 73.94093862689687, 17.142666666666663 73.79560529356354, 17.58 73.75560529356353 L 17.58 74.64360529356354 C 17.382666666666665 74.69960529356354, 17.281333333333333 74.82893862689686, 17.276 75.03160529356353 C 17.262666666666668 75.4022719602302, 17.253333333333334 75.7502719602302, 17.248 76.07560529356353 C 17.242666666666665 76.40093862689686, 17.24 76.71760529356354, 17.24 77.02560529356353 C 17.24 77.33360529356352, 17.242666666666665 77.6482719602302, 17.248 77.96960529356353 C 17.253333333333334 78.29093862689686, 17.262666666666668 78.6342719602302, 17.276 78.99960529356353 C 17.281333333333333 79.20760529356353, 17.382666666666665 79.33960529356354, 17.58 79.39560529356353 L 17.58 80.28360529356353 C 17.142666666666663 80.24360529356353, 16.805999999999997 80.09760529356353, 16.57 79.84560529356354 C 16.334000000000003 79.59360529356354, 16.209333333333333 79.24760529356354, 16.196 78.80760529356353 Z M 18.084 80.28360529356353 L 18.084 79.39160529356353 C 18.268 79.3382719602302, 18.366666666666667 79.21427196023019, 18.38 79.01960529356353 C 18.398666666666667 78.55293862689686, 18.410666666666668 78.1042719602302, 18.416 77.67360529356353 C 18.421333333333333 77.24293862689687, 18.421333333333333 76.8122719602302, 18.416 76.38160529356354 C 18.410666666666668 75.95093862689687, 18.398666666666667 75.4982719602302, 18.38 75.02360529356353 C 18.374666666666666 74.82893862689687, 18.276 74.7022719602302, 18.084 74.64360529356354 L 18.084 73.75560529356353 C 18.513333333333335 73.79560529356354, 18.846666666666668 73.94093862689687, 19.084 74.19160529356353 C 19.321333333333335 74.4422719602302, 19.445333333333334 74.78760529356353, 19.456 75.22760529356353 C 19.46666666666667 75.54227196023021, 19.474666666666668 75.85227196023021, 19.48 76.15760529356353 C 19.485333333333333 76.46293862689686, 19.488 76.76360529356353, 19.488 77.05960529356354 C 19.488 77.35560529356354, 19.485333333333333 77.64893862689686, 19.48 77.93960529356353 C 19.474666666666668 78.2302719602302, 19.46666666666667 78.51960529356353, 19.456 78.80760529356353 C 19.439999999999998 79.25827196023019, 19.311999999999998 79.60693862689686, 19.072 79.85360529356353 C 18.832 80.1002719602302, 18.502666666666666 80.24360529356353, 18.084 80.28360529356353 Z M 21.944 80.21960529356353 L 21.944 73.81960529356353 L 23.003999999999998 73.81960529356353 L 23.003999999999998 80.21960529356353 Z " stroke="none" fill-rule="nonzero" fill="#000000" fill-opacity="1" transform="matrix(1,0,0,1,5.05,13.314)" id="text30 l" />
  <path d="M 0 73.06764476420719 L 10 73.06764476420719 L 10 74.56764476420719 L 0 74.56764476420719 Z " stroke="none" fill-rule="evenodd" fill="#000000" fill-opacity="1" transform="matrix(1,0,0,1,5.05,13.314)" id="mark31 l" />
  <path d="M 0 64.86568423485085 L 10 64.86568423485085 L 10 66.36568423485085 L 0 66.36568423485085 Z " stroke="none" fill-rule="evenodd" fill="#000000" fill-opacity="1" transform="matrix(1,0,0,1,5.05,13.314)" id="mark32 l" />
  <path d="M 0 56.663723705494476 L 10 56.663723705494476 L 10 58.163723705494476 L 0 58.163723705494476 Z " stroke="none" fill-rule="evenodd" fill="#000000" fill-opacity="1" transform="matrix(1,0,0,1,5.05,13.314)" id="mark33 l" />
  <path d="M 0 48.461763176138106 L 10 48.461763176138106 L 10 49.961763176138106 L 0 49.961763176138106 Z " stroke="none" fill-rule="evenodd" fill="#000000" fill-opacity="1" transform="matrix(1,0,0,1,5.05,13.314)" id="mark34 l" />
  <path d="M 0 40.25980264678179 L 25 40.25980264678179 L 25 41.75980264678179 L 0 41.75980264678179 Z " stroke="none" fill-rule="evenodd" fill="#000000" fill-opacity="1" transform="matrix(1,0,0,1,5.05,13.314)" id="mark35 l" />
  <path d="M 12.232 37.761802646781796 C 12.229333333333333 37.66046931344846, 12.227333333333334 37.57646931344846, 12.226 37.50980264678179 C 12.224666666666668 37.44313598011512, 12.224666666666668 37.375135980115125, 12.226 37.30580264678179 C 12.227333333333334 37.23646931344846, 12.229333333333333 37.147135980115124, 12.232 37.03780264678179 L 13.312 37.03780264678179 L 13.312 37.90180264678179 C 13.312 38.13913598011512, 13.425333333333333 38.289802646781794, 13.652 38.353802646781794 L 13.652 39.24580264678179 C 13.164 39.20846931344846, 12.808666666666667 39.07380264678179, 12.586 38.841802646781794 C 12.363333333333333 38.609802646781795, 12.245333333333335 38.249802646781795, 12.232 37.761802646781796 Z M 12.3 33.709802646781796 L 12.3 32.777802646781794 L 15.544 32.777802646781794 L 15.544 33.709802646781796 Z M 14.152000000000001 38.35780264678179 C 14.376000000000001 38.30180264678179, 14.492 38.15113598011512, 14.5 37.905802646781794 C 14.505333333333333 37.70313598011513, 14.508666666666667 37.52046931344846, 14.51 37.35780264678179 C 14.511333333333333 37.195135980115126, 14.506666666666668 37.03780264678179, 14.496 36.88580264678179 C 14.488 36.72846931344846, 14.440000000000001 36.59513598011513, 14.352 36.48580264678179 C 14.264 36.37646931344845, 14.097333333333335 36.32446931344846, 13.852 36.32980264678179 L 13.104 36.337802646781796 L 13.076 35.44580264678179 L 14.036 34.06180264678179 L 15.224 34.06180264678179 L 14.256 35.41380264678179 L 14.288 35.41380264678179 C 14.719999999999999 35.41380264678179, 15.036666666666665 35.53646931344846, 15.238 35.78180264678179 C 15.439333333333334 36.027135980115126, 15.552 36.40446931344846, 15.576 36.91380264678179 C 15.581333333333333 36.98580264678179, 15.584666666666667 37.057802646781795, 15.586 37.12980264678179 C 15.587333333333333 37.20180264678179, 15.588000000000001 37.27246931344846, 15.588000000000001 37.341802646781794 C 15.588000000000001 37.41113598011513, 15.587333333333333 37.48046931344846, 15.586 37.54980264678179 C 15.584666666666667 37.619135980115125, 15.581333333333333 37.68980264678179, 15.576 37.761802646781796 C 15.557333333333334 38.2578026467818, 15.436666666666667 38.62246931344846, 15.214 38.85580264678179 C 14.991333333333333 39.089135980115124, 14.638666666666666 39.21913598011513, 14.156 39.24580264678179 Z M 16.18 37.761802646781796 C 16.174666666666667 37.588469313448456, 16.173333333333332 37.44913598011512, 16.176 37.34380264678179 C 16.178666666666665 37.23846931344846, 16.181333333333335 37.13646931344846, 16.183999999999997 37.03780264678179 L 17.264 37.03780264678179 C 17.256 37.11513598011513, 17.25 37.21113598011513, 17.246 37.325802646781796 C 17.241999999999997 37.44046931344846, 17.240666666666666 37.55113598011513, 17.241999999999997 37.65780264678179 C 17.243333333333332 37.76446931344846, 17.246666666666666 37.84446931344846, 17.252 37.89780264678179 C 17.262666666666668 38.01780264678179, 17.297333333333334 38.115802646781795, 17.355999999999998 38.191802646781795 C 17.414666666666665 38.267802646781796, 17.497333333333334 38.32180264678179, 17.604 38.353802646781794 L 17.604 39.24580264678179 C 17.110666666666663 39.20846931344846, 16.75333333333333 39.07380264678179, 16.532 38.841802646781794 C 16.310666666666666 38.609802646781795, 16.19333333333333 38.249802646781795, 16.18 37.761802646781796 Z M 16.279999999999998 36.42580264678179 L 16.279999999999998 32.777802646781794 L 17.348 32.777802646781794 L 17.348 36.42580264678179 Z M 17.852 36.00180264678179 L 17.852 35.24580264678179 C 17.929333333333332 35.20580264678179, 18.014666666666667 35.173802646781795, 18.107999999999997 35.149802646781794 C 18.20133333333333 35.12580264678179, 18.301333333333332 35.11380264678179, 18.407999999999998 35.11380264678179 C 18.773333333333333 35.11380264678179, 19.047333333333334 35.22913598011513, 19.23 35.459802646781796 C 19.412666666666667 35.69046931344846, 19.514666666666663 36.00446931344846, 19.535999999999998 36.40180264678179 C 19.546666666666667 36.56180264678179, 19.55333333333333 36.72046931344846, 19.555999999999997 36.877802646781795 C 19.558666666666664 37.03513598011513, 19.557333333333332 37.18846931344846, 19.552 37.33780264678179 C 19.546666666666667 37.48713598011513, 19.538666666666668 37.62713598011513, 19.528 37.75780264678179 C 19.482666666666667 38.25646931344846, 19.353333333333335 38.621802646781795, 19.14 38.853802646781794 C 18.926666666666666 39.085802646781794, 18.581333333333333 39.21646931344846, 18.104 39.24580264678179 L 18.104 38.353802646781794 C 18.21333333333333 38.32446931344846, 18.296 38.271802646781794, 18.352 38.19580264678179 C 18.408 38.11980264678179, 18.44 38.02046931344846, 18.448 37.89780264678179 C 18.471999999999998 37.607135980115125, 18.485999999999997 37.34580264678179, 18.49 37.11380264678179 C 18.494 36.88180264678179, 18.485333333333333 36.66046931344846, 18.464 36.44980264678179 C 18.447999999999997 36.29513598011512, 18.396666666666665 36.179802646781795, 18.31 36.103802646781794 C 18.223333333333333 36.027802646781794, 18.090666666666664 35.98980264678179, 17.912 35.98980264678179 C 17.901333333333334 35.98980264678179, 17.890666666666668 35.991135980115125, 17.88 35.993802646781795 C 17.86933333333333 35.99646931344846, 17.86 35.99913598011513, 17.852 36.00180264678179 Z M 17.852 33.709802646781796 L 17.852 32.777802646781794 L 19.439999999999998 32.777802646781794 L 19.439999999999998 33.709802646781796 Z M 21.944 39.17780264678179 L 21.944 32.777802646781794 L 23.003999999999998 32.777802646781794 L 23.003999999999998 39.17780264678179 Z " stroke="none" fill-rule="nonzero" fill="#000000" fill-opacity="1" transform="matrix(1,0,0,1,5.05,13.314)" id="text35 l" />
  <path d="M 0 32.05784211742542 L 10 32.05784211742542 L 10 33.55784211742542 L 0 33.55784211742542 Z " stroke="none" fill-rule="evenodd" fill="#000000" fill-opacity="1" transform="matrix(1,0,0,1,5.05,13.314)" id="mark36 l" />
  <path d="M 0 23.855881588069053 L 10 23.855881588069053 L 10 25.355881588069053 L 0 25.355881588069053 Z " stroke="none" fill-rule="evenodd" fill="#000000" fill-opacity="1" transform="matrix(1,0,0,1,5.05,13.314)" id="mark37 l" />
  <path d="M 0 15.65392105871274 L 10 15.65392105871274 L 10 17.15392105871274 L 0 17.15392105871274 Z " stroke="none" fill-rule="evenodd" fill="#000000" fill-opacity="1" transform="matrix(1,0,0,1,5.05,13.314)" id="mark38 l" />
  <path d="M 0 7.45196052935637 L 10 7.45196052935637 L 10 8.95196052935637 L 0 8.95196052935637 Z " stroke="none" fill-rule="evenodd" fill="#000000" fill-opacity="1" transform="matrix(1,0,0,1,5.05,13.314)" id="mark39 l" />
  <path d="M 0 -0.75 L 25 -0.75 L 25 0.75 L 0 0.75 Z " stroke="none" fill-rule="evenodd" fill="#000000" fill-opacity="1" transform="matrix(1,0,0,1,5.05,13.314)" id="mark40 l" />
  <path d="M 11.739999999999998 -3.484 L 11.739999999999998 -4.359999999999999 L 12.455999999999998 -6.24 L 13.495999999999999 -6.24 L 12.771999999999998 -4.4079999999999995 L 13.171999999999997 -4.4079999999999995 L 13.171999999999997 -3.484 Z M 13.675999999999998 -1.7999999999999998 L 13.675999999999998 -8.2 L 14.683999999999997 -8.2 L 14.683999999999997 -1.7999999999999998 Z M 15.187999999999999 -3.484 L 15.187999999999999 -4.4079999999999995 L 15.655999999999999 -4.4079999999999995 L 15.655999999999999 -3.484 Z M 16.195999999999998 -3.2119999999999997 C 16.188 -3.641333333333333, 16.182666666666666 -4.058, 16.18 -4.462 C 16.177333333333333 -4.866, 16.177999999999997 -5.261333333333333, 16.182 -5.648 C 16.186 -6.034666666666666, 16.190666666666665 -6.416, 16.195999999999998 -6.792 C 16.20933333333333 -7.231999999999999, 16.333999999999996 -7.577333333333334, 16.569999999999997 -7.828 C 16.805999999999997 -8.078666666666667, 17.142666666666663 -8.224, 17.58 -8.264 L 17.58 -7.3759999999999994 C 17.382666666666665 -7.32, 17.281333333333333 -7.190666666666667, 17.275999999999996 -6.9879999999999995 C 17.262666666666664 -6.617333333333333, 17.25333333333333 -6.269333333333333, 17.247999999999998 -5.944 C 17.242666666666665 -5.618666666666666, 17.24 -5.302, 17.24 -4.994 C 17.24 -4.686, 17.242666666666665 -4.371333333333333, 17.247999999999998 -4.05 C 17.25333333333333 -3.7286666666666664, 17.262666666666664 -3.3853333333333326, 17.275999999999996 -3.0199999999999996 C 17.281333333333333 -2.812, 17.382666666666665 -2.6799999999999997, 17.58 -2.6239999999999997 L 17.58 -1.7359999999999998 C 17.142666666666663 -1.7759999999999998, 16.805999999999997 -1.9219999999999997, 16.569999999999997 -2.174 C 16.333999999999996 -2.4259999999999997, 16.20933333333333 -2.772, 16.195999999999998 -3.2119999999999997 Z M 18.084 -1.7359999999999998 L 18.084 -2.6279999999999997 C 18.268 -2.681333333333333, 18.366666666666667 -2.8053333333333335, 18.38 -3 C 18.398666666666664 -3.4666666666666663, 18.410666666666664 -3.915333333333333, 18.415999999999997 -4.346 C 18.42133333333333 -4.776666666666666, 18.42133333333333 -5.207333333333333, 18.415999999999997 -5.638 C 18.410666666666664 -6.068666666666666, 18.398666666666664 -6.521333333333333, 18.38 -6.9959999999999996 C 18.374666666666666 -7.190666666666667, 18.276 -7.317333333333334, 18.084 -7.3759999999999994 L 18.084 -8.264 C 18.513333333333332 -8.224, 18.846666666666664 -8.078666666666667, 19.083999999999996 -7.828 C 19.32133333333333 -7.577333333333334, 19.44533333333333 -7.231999999999999, 19.456 -6.792 C 19.466666666666665 -6.477333333333332, 19.474666666666664 -6.167333333333333, 19.479999999999997 -5.861999999999999 C 19.48533333333333 -5.556666666666667, 19.488 -5.256, 19.488 -4.96 C 19.488 -4.664, 19.48533333333333 -4.370666666666667, 19.479999999999997 -4.08 C 19.474666666666664 -3.7893333333333334, 19.466666666666665 -3.5, 19.456 -3.2119999999999997 C 19.439999999999998 -2.761333333333333, 19.311999999999998 -2.4126666666666665, 19.072 -2.166 C 18.831999999999997 -1.9193333333333331, 18.502666666666663 -1.7759999999999998, 18.084 -1.7359999999999998 Z M 21.944 -1.7999999999999998 L 21.944 -8.2 L 23.003999999999998 -8.2 L 23.003999999999998 -1.7999999999999998 Z " stroke="none" fill-rule="nonzero" fill="#000000" fill-opacity="1" transform="matrix(1,0,0,1,5.05,13.314)" id="text40 l" />
  <path d="M -5 -13.264 L 30 -13.264 L 30 326.6444606448977 L -5 326.6444606448977 Z " stroke="#FF0000" stroke-opacity="1" stroke-width="0.1" stroke-linecap="butt" stroke-linejoin="miter" fill="none" transform="matrix(1,0,0,1,5.05,13.314)" />
</svg>