<?xml version="1.0" encoding="utf-8"?>
<svg xmlns="http://www.w3.org/2000/svg" xmlns:xlink="http://www.w3.org/1999/xlink" version="1.1" width="35mm" height="602.1181mm" viewBox="0 0 35 602.1181">
  <defs />
  <style>svg { background: #ffffff; }</style>
  <rect id="cutLine" fill="none" stroke="red" stroke-width="0.05" width="35" height="602.1181" />
  <g id="scale" transform="translate(5, 5)">
    <rect id="mark_5" fill="Black" x="0" y="590.6181" width="10" height="1.5" />
    <rect id="mark_10" fill="Black" x="0" y="572.9342" width="25" height="1.5" />
    <path fill="Black" d="M 0.484375 1.0214844 L 0.484375 6.4648438 L 1.5839844 6.4648438 L 1.5839844 0.064453125 L 0.7050781 0.064453125 L 0 0.640625 L 0.033203125 1.0214844 L 0.484375 1.0214844 Z M 2.140625 3.8027344 Q 2.1445312 4.408203, 2.15625 5.0527344 Q 2.1777344 5.7128906, 2.53125 6.091797 Q 2.8847656 6.46875, 3.5410156 6.529297 L 3.5410156 5.640625 Q 3.2441406 5.5566406, 3.2363281 5.2441406 Q 3.2167969 4.6972656, 3.2089844 4.2148438 Q 3.2011719 3.7324219, 3.2011719 3.2714844 Q 3.2011719 2.8085938, 3.2089844 2.3203125 Q 3.2167969 1.8320312, 3.2363281 1.2773438 Q 3.2441406 0.97265625, 3.5410156 0.8886719 L 3.5410156 0 Q 2.8847656 0.060546875, 2.53125 0.4375 Q 2.1777344 0.8125, 2.15625 1.4726562 Q 2.1484375 2.0371094, 2.1425781 2.6171875 Q 2.1367188 3.1972656, 2.140625 3.8027344 Z M 4.044922 5.6367188 L 4.044922 6.529297 Q 4.671875 6.46875, 5.03125 6.0996094 Q 5.392578 5.7285156, 5.4160156 5.0527344 Q 5.4335938 4.6210938, 5.4414062 4.185547 Q 5.4492188 3.7480469, 5.4492188 3.3046875 Q 5.4492188 2.8613281, 5.4414062 2.4042969 Q 5.4335938 1.9453125, 5.4160156 1.4726562 Q 5.4003906 0.8125, 5.044922 0.4375 Q 4.689453 0.060546875, 4.044922 0 L 4.044922 0.8886719 Q 4.3320312 0.9765625, 4.3398438 1.2695312 Q 4.3691406 1.9804688, 4.376953 2.6269531 Q 4.3847656 3.2734375, 4.376953 3.9199219 Q 4.3691406 4.564453, 4.3398438 5.265625 Q 4.3203125 5.5566406, 4.044922 5.6367188 Z M 8.193359 6.4648438 L 8.193359 0.064453125 L 9.251953 0.064453125 L 9.251953 6.4648438 L 8.193359 6.4648438 Z" transform="translate(13.748047, 565.8842)" />
    <rect id="mark_15" fill="Black" x="0" y="555.25037" width="10" height="1.5" />
    <rect id="mark_20" fill="Black" x="0" y="537.56647" width="25" height="1.5" />
    <path fill="Black" d="M 0.005859375 6.203125 Q 0.0078125 6.3203125, 0.01171875 6.46875 L 1.0917969 6.46875 L 1.0917969 5.1757812 Q 1.0917969 5.0214844, 1.1328125 4.841797 Q 1.1757812 4.6601562, 1.2734375 4.5 Q 1.3710938 4.3398438, 1.5429688 4.248047 L 2.1464844 3.9199219 Q 2.4707031 3.7402344, 2.7167969 3.5136719 Q 2.9628906 3.2851562, 3.1074219 2.9726562 Q 3.2519531 2.6601562, 3.2675781 2.2324219 Q 3.2714844 2.1445312, 3.2734375 2.0527344 Q 3.2753906 1.9609375, 3.2753906 1.8671875 Q 3.2753906 1.7734375, 3.2734375 1.6738281 Q 3.2714844 1.5722656, 3.2675781 1.4765625 Q 3.234375 0.7402344, 2.9160156 0.39453125 Q 2.5996094 0.048828125, 1.8671875 0 L 1.8671875 0.8886719 Q 2.0234375 0.93359375, 2.1054688 1.0351562 Q 2.1875 1.1367188, 2.1953125 1.2929688 Q 2.2070312 1.5136719, 2.2050781 1.7636719 Q 2.203125 2.0136719, 2.1875 2.2324219 Q 2.1757812 2.4199219, 2.0976562 2.6347656 Q 2.0195312 2.8496094, 1.7382812 3 L 1.2070312 3.2890625 Q 0.8183594 3.5, 0.5546875 3.7734375 Q 0.29101562 4.044922, 0.15234375 4.390625 Q 0.015625 4.736328, 0.00390625 5.1757812 Q 0 5.3691406, 0 5.5117188 L 0 5.765625 Q 0 5.876953, 0.001953125 5.9804688 Q 0.00390625 6.0839844, 0.005859375 6.203125 Z M 0.0078125 2.0839844 Q 0.01171875 2.2519531, 0.01953125 2.4296875 L 1.0839844 2.4296875 Q 1.0664062 2.1132812, 1.0683594 1.8457031 Q 1.0703125 1.5761719, 1.0800781 1.265625 Q 1.0839844 1.1289062, 1.1503906 1.0332031 Q 1.21875 0.9375, 1.3632812 0.8925781 L 1.3632812 0 Q 0.67578125 0.052734375, 0.35351562 0.3984375 Q 0.03125 0.7441406, 0.00390625 1.4765625 Q 0 1.6171875, 0.001953125 1.7675781 Q 0.00390625 1.9160156, 0.0078125 2.0839844 Z M 1.5957031 5.5371094 L 1.5957031 6.46875 L 3.1914062 6.46875 L 3.1914062 5.5371094 L 1.5957031 5.5371094 Z M 4.0390625 3.8066406 Q 4.0429688 4.4121094, 4.0546875 5.0566406 Q 4.076172 5.716797, 4.4296875 6.095703 Q 4.783203 6.4726562, 5.439453 6.533203 L 5.439453 5.6445312 Q 5.142578 5.560547, 5.1347656 5.248047 Q 5.1152344 4.701172, 5.107422 4.21875 Q 5.0996094 3.7363281, 5.0996094 3.2753906 Q 5.0996094 2.8125, 5.107422 2.3242188 Q 5.1152344 1.8359375, 5.1347656 1.28125 Q 5.142578 0.9765625, 5.439453 0.8925781 L 5.439453 0.00390625 Q 4.783203 0.064453125, 4.4296875 0.44140625 Q 4.076172 0.81640625, 4.0546875 1.4765625 Q 4.046875 2.0410156, 4.0410156 2.6210938 Q 4.0351562 3.2011719, 4.0390625 3.8066406 Z M 5.9433594 5.640625 L 5.9433594 6.533203 Q 6.5703125 6.4726562, 6.9296875 6.1035156 Q 7.2910156 5.732422, 7.314453 5.0566406 Q 7.3320312 4.625, 7.3398438 4.189453 Q 7.3476562 3.7519531, 7.3476562 3.3085938 Q 7.3476562 2.8652344, 7.3398438 2.4082031 Q 7.3320312 1.9492188, 7.314453 1.4765625 Q 7.298828 0.81640625, 6.9433594 0.44140625 Q 6.5878906 0.064453125, 5.9433594 0.00390625 L 5.9433594 0.8925781 Q 6.2304688 0.98046875, 6.2382812 1.2734375 Q 6.267578 1.984375, 6.2753906 2.6308594 Q 6.283203 3.2773438, 6.2753906 3.9238281 Q 6.267578 4.5683594, 6.2382812 5.2695312 Q 6.21875 5.560547, 5.9433594 5.640625 Z M 10.091797 6.46875 L 10.091797 0.068359375 L 11.150391 0.068359375 L 11.150391 6.46875 L 10.091797 6.46875 Z" transform="translate(11.849609, 530.5165)" />
    <rect id="mark_25" fill="Black" x="0" y="519.88257" width="10" height="1.5" />
    <rect id="mark_30" fill="Black" x="0" y="502.1987" width="25" height="1.5" />
    <path fill="Black" d="M 0.076171875 0.064453125 L 0.076171875 0.99609375 L 3.3203125 0.99609375 L 3.3203125 0.064453125 L 0.076171875 0.064453125 Z M 2.2753906 5.1933594 Q 2.2636719 5.560547, 1.9277344 5.6445312 L 1.9316406 6.533203 Q 2.65625 6.4921875, 2.9902344 6.142578 Q 3.3242188 5.7929688, 3.3515625 5.048828 Q 3.359375 4.9414062, 3.3613281 4.8378906 Q 3.3632812 4.732422, 3.3632812 4.6289062 Q 3.3632812 4.5253906, 3.3613281 4.4179688 Q 3.359375 4.3085938, 3.3515625 4.201172 Q 3.3144531 3.4375, 3.0117188 3.0703125 Q 2.7109375 2.7011719, 2.0625 2.7011719 L 2.03125 2.7011719 L 3 1.3496094 L 1.8105469 1.3496094 L 0.8515625 2.7324219 L 0.87890625 3.625 L 1.6269531 3.6171875 Q 1.9960938 3.609375, 2.1269531 3.7734375 Q 2.2597656 3.9375, 2.2714844 4.171875 Q 2.2871094 4.4003906, 2.2851562 4.6445312 Q 2.2832031 4.888672, 2.2753906 5.1933594 Z M 0.001953125 4.796875 Q 0.00390625 4.8964844, 0.0078125 5.048828 Q 0.02734375 5.78125, 0.36132812 6.1289062 Q 0.6953125 6.4765625, 1.4277344 6.533203 L 1.4277344 5.640625 Q 1.0878906 5.544922, 1.0878906 5.189453 L 1.0878906 4.3242188 L 0.0078125 4.3242188 Q 0.00390625 4.4882812, 0.001953125 4.59375 Q 0 4.6972656, 0.001953125 4.796875 Z M 4.1152344 3.8027344 Q 4.1191406 4.408203, 4.1308594 5.0527344 Q 4.1523438 5.7128906, 4.5058594 6.091797 Q 4.859375 6.46875, 5.515625 6.529297 L 5.515625 5.640625 Q 5.21875 5.5566406, 5.2109375 5.2441406 Q 5.1914062 4.6972656, 5.1835938 4.2148438 Q 5.1757812 3.7324219, 5.1757812 3.2714844 Q 5.1757812 2.8085938, 5.1835938 2.3203125 Q 5.1914062 1.8320312, 5.2109375 1.2773438 Q 5.21875 0.97265625, 5.515625 0.8886719 L 5.515625 0 Q 4.859375 0.060546875, 4.5058594 0.4375 Q 4.1523438 0.8125, 4.1308594 1.4726562 Q 4.123047 2.0371094, 4.1171875 2.6171875 Q 4.111328 3.1972656, 4.1152344 3.8027344 Z M 6.0195312 5.6367188 L 6.0195312 6.529297 Q 6.6464844 6.46875, 7.0058594 6.0996094 Q 7.3671875 5.7285156, 7.390625 5.0527344 Q 7.408203 4.6210938, 7.4160156 4.185547 Q 7.423828 3.7480469, 7.423828 3.3046875 Q 7.423828 2.8613281, 7.4160156 2.4042969 Q 7.408203 1.9453125, 7.390625 1.4726562 Q 7.375 0.8125, 7.0195312 0.4375 Q 6.6640625 0.060546875, 6.0195312 0 L 6.0195312 0.8886719 Q 6.3066406 0.9765625, 6.314453 1.2695312 Q 6.34375 1.9804688, 6.3515625 2.6269531 Q 6.359375 3.2734375, 6.3515625 3.9199219 Q 6.34375 4.564453, 6.314453 5.265625 Q 6.294922 5.5566406, 6.0195312 5.6367188 Z M 10.167969 6.4648438 L 10.167969 0.064453125 L 11.2265625 0.064453125 L 11.2265625 6.4648438 L 10.167969 6.4648438 Z" transform="translate(11.7734375, 495.1487)" />
    <rect id="mark_35" fill="Black" x="0" y="484.51483" width="10" height="1.5" />
    <rect id="mark_40" fill="Black" x="0" y="466.83093" width="25" height="1.5" />
    <path fill="Black" d="M 1.9355469 0.064453125 L 1.9355469 6.4648438 L 2.9433594 6.4648438 L 2.9433594 0.064453125 L 1.9355469 0.064453125 Z M 0 3.9042969 L 0 4.78125 L 1.4316406 4.78125 L 1.4316406 3.8574219 L 1.03125 3.8574219 L 1.7558594 2.0253906 L 0.7167969 2.0253906 L 0 3.9042969 Z M 3.4472656 3.8574219 L 3.4472656 4.78125 L 3.9160156 4.78125 L 3.9160156 3.8574219 L 3.4472656 3.8574219 Z M 4.1679688 3.8027344 Q 4.171875 4.408203, 4.1835938 5.0527344 Q 4.205078 5.7128906, 4.5585938 6.091797 Q 4.9121094 6.46875, 5.5683594 6.529297 L 5.5683594 5.640625 Q 5.2714844 5.5566406, 5.263672 5.2441406 Q 5.2441406 4.6972656, 5.236328 4.2148438 Q 5.2285156 3.7324219, 5.2285156 3.2714844 Q 5.2285156 2.8085938, 5.236328 2.3203125 Q 5.2441406 1.8320312, 5.263672 1.2773438 Q 5.2714844 0.97265625, 5.5683594 0.8886719 L 5.5683594 0 Q 4.9121094 0.060546875, 4.5585938 0.4375 Q 4.205078 0.8125, 4.1835938 1.4726562 Q 4.1757812 2.0371094, 4.169922 2.6171875 Q 4.1640625 3.1972656, 4.1679688 3.8027344 Z M 6.0722656 5.6367188 L 6.0722656 6.529297 Q 6.6992188 6.46875, 7.0585938 6.0996094 Q 7.419922 5.7285156, 7.4433594 5.0527344 Q 7.4609375 4.6210938, 7.46875 4.185547 Q 7.4765625 3.7480469, 7.4765625 3.3046875 Q 7.4765625 2.8613281, 7.46875 2.4042969 Q 7.4609375 1.9453125, 7.4433594 1.4726562 Q 7.4277344 0.8125, 7.0722656 0.4375 Q 6.716797 0.060546875, 6.0722656 0 L 6.0722656 0.8886719 Q 6.359375 0.9765625, 6.3671875 1.2695312 Q 6.3964844 1.9804688, 6.404297 2.6269531 Q 6.4121094 3.2734375, 6.404297 3.9199219 Q 6.3964844 4.564453, 6.3671875 5.265625 Q 6.3476562 5.5566406, 6.0722656 5.6367188 Z M 10.220703 6.4648438 L 10.220703 0.064453125 L 11.279297 0.064453125 L 11.279297 6.4648438 L 10.220703 6.4648438 Z" transform="translate(11.720703, 459.78094)" />
    <rect id="mark_45" fill="Black" x="0" y="449.14706" width="10" height="1.5" />
    <rect id="mark_50" fill="Black" x="0" y="431.46317" width="25" height="1.5" />
    <path fill="Black" d="M 0.107421875 0.064453125 L 0.107421875 3.7128906 L 1.1757812 3.7128906 L 1.1757812 0.064453125 L 0.107421875 0.064453125 Z M 1.6796875 0.064453125 L 1.6796875 0.99609375 L 3.2675781 0.99609375 L 3.2675781 0.064453125 L 1.6796875 0.064453125 Z M 1.6796875 2.5332031 L 1.6796875 3.2890625 Q 1.6914062 3.2851562, 1.7070312 3.28125 Q 1.7246094 3.2773438, 1.7402344 3.2773438 Q 2.0078125 3.2773438, 2.1367188 3.390625 Q 2.2675781 3.5039062, 2.2910156 3.7363281 Q 2.3242188 4.0527344, 2.3183594 4.4003906 Q 2.3125 4.748047, 2.2753906 5.185547 Q 2.2636719 5.3691406, 2.1796875 5.484375 Q 2.0957031 5.5976562, 1.9316406 5.640625 L 1.9316406 6.533203 Q 2.6484375 6.4882812, 2.9667969 6.140625 Q 3.2871094 5.7929688, 3.3554688 5.044922 Q 3.3710938 4.8496094, 3.3789062 4.625 Q 3.3886719 4.4003906, 3.3828125 4.1660156 Q 3.3789062 3.9296875, 3.3632812 3.6894531 Q 3.3320312 3.09375, 3.0566406 2.7480469 Q 2.7832031 2.4003906, 2.2363281 2.4003906 Q 2.0761719 2.4003906, 1.9355469 2.4375 Q 1.7949219 2.4726562, 1.6796875 2.5332031 Z M 0.00390625 4.6308594 Q 0 4.7890625, 0.0078125 5.048828 Q 0.02734375 5.78125, 0.359375 6.1289062 Q 0.69140625 6.4765625, 1.4316406 6.533203 L 1.4316406 5.640625 Q 1.2714844 5.59375, 1.1835938 5.4804688 Q 1.0957031 5.3652344, 1.0800781 5.185547 Q 1.0722656 5.1054688, 1.0703125 4.9453125 Q 1.0683594 4.7851562, 1.0742188 4.6132812 Q 1.0800781 4.4414062, 1.0917969 4.3242188 L 0.01171875 4.3242188 Q 0.0078125 4.4726562, 0.00390625 4.6308594 Z M 4.015625 3.8027344 Q 4.0195312 4.408203, 4.03125 5.0527344 Q 4.0527344 5.7128906, 4.40625 6.091797 Q 4.7597656 6.46875, 5.4160156 6.529297 L 5.4160156 5.640625 Q 5.1191406 5.5566406, 5.111328 5.2441406 Q 5.091797 4.6972656, 5.0839844 4.2148438 Q 5.076172 3.7324219, 5.076172 3.2714844 Q 5.076172 2.8085938, 5.0839844 2.3203125 Q 5.091797 1.8320312, 5.111328 1.2773438 Q 5.1191406 0.97265625, 5.4160156 0.8886719 L 5.4160156 0 Q 4.7597656 0.060546875, 4.40625 0.4375 Q 4.0527344 0.8125, 4.03125 1.4726562 Q 4.0234375 2.0371094, 4.017578 2.6171875 Q 4.0117188 3.1972656, 4.015625 3.8027344 Z M 5.919922 5.6367188 L 5.919922 6.529297 Q 6.546875 6.46875, 6.90625 6.0996094 Q 7.267578 5.7285156, 7.2910156 5.0527344 Q 7.3085938 4.6210938, 7.3164062 4.185547 Q 7.3242188 3.7480469, 7.3242188 3.3046875 Q 7.3242188 2.8613281, 7.3164062 2.4042969 Q 7.3085938 1.9453125, 7.2910156 1.4726562 Q 7.2753906 0.8125, 6.919922 0.4375 Q 6.564453 0.060546875, 5.919922 0 L 5.919922 0.8886719 Q 6.2070312 0.9765625, 6.2148438 1.2695312 Q 6.2441406 1.9804688, 6.251953 2.6269531 Q 6.2597656 3.2734375, 6.251953 3.9199219 Q 6.2441406 4.564453, 6.2148438 5.265625 Q 6.1953125 5.5566406, 5.919922 5.6367188 Z M 10.068359 6.4648438 L 10.068359 0.064453125 L 11.126953 0.064453125 L 11.126953 6.4648438 L 10.068359 6.4648438 Z" transform="translate(11.873047, 424.41318)" />
    <rect id="mark_55" fill="Black" x="0" y="413.7793" width="10" height="1.5" />
    <rect id="mark_60" fill="Black" x="0" y="396.0954" width="25" height="1.5" />
    <path fill="Black" d="M 0.005859375 4.216797 Q 0.01171875 4.6523438, 0.015625 5.048828 Q 0.02734375 5.7890625, 0.34765625 6.1367188 Q 0.66796875 6.484375, 1.4003906 6.533203 L 1.4003906 5.640625 Q 1.2519531 5.5976562, 1.1699219 5.4941406 Q 1.0878906 5.388672, 1.0878906 5.2246094 Q 1.0761719 4.6132812, 1.0761719 3.9824219 Q 1.0761719 3.3496094, 1.0800781 2.6816406 Q 1.0839844 2.0136719, 1.0957031 1.28125 Q 1.0957031 1.1210938, 1.171875 1.0253906 Q 1.2480469 0.9296875, 1.3925781 0.8925781 L 1.3925781 0 Q 0.7558594 0.056640625, 0.390625 0.41796875 Q 0.02734375 0.77734375, 0.015625 1.4726562 Q 0.0078125 1.9335938, 0.00390625 2.3984375 Q 0 2.8613281, 0 3.3222656 Q 0 3.78125, 0.005859375 4.216797 Z M 2.2050781 1.8027344 Q 2.203125 1.9082031, 2.1914062 2.0488281 L 3.2636719 2.0488281 Q 3.2675781 1.9042969, 3.2695312 1.8027344 Q 3.2714844 1.7011719, 3.2695312 1.6113281 Q 3.2675781 1.5214844, 3.2636719 1.4199219 Q 3.2402344 0.8125, 2.8945312 0.43945312 Q 2.5488281 0.064453125, 1.8925781 0.00390625 L 1.8925781 0.8925781 Q 2.0410156 0.9296875, 2.1113281 1.03125 Q 2.1835938 1.1328125, 2.1914062 1.28125 Q 2.1992188 1.4570312, 2.203125 1.578125 Q 2.2089844 1.6972656, 2.2050781 1.8027344 Z M 1.5644531 2.625 L 1.5644531 3.3691406 Q 1.5957031 3.3574219, 1.625 3.3554688 Q 1.65625 3.3535156, 1.6835938 3.3535156 Q 1.9277344 3.3535156, 2.0800781 3.4609375 Q 2.2324219 3.5683594, 2.2363281 3.7929688 Q 2.2441406 3.9765625, 2.2460938 4.142578 Q 2.2480469 4.3085938, 2.2441406 4.4765625 Q 2.2402344 4.6445312, 2.2363281 4.830078 Q 2.2324219 5.013672, 2.2246094 5.2441406 Q 2.2207031 5.404297, 2.1386719 5.5058594 Q 2.0566406 5.6054688, 1.9003906 5.6484375 L 1.9003906 6.533203 Q 2.6191406 6.4882812, 2.9433594 6.1367188 Q 3.2675781 5.7851562, 3.3046875 5.048828 Q 3.3164062 4.7890625, 3.3183594 4.6054688 Q 3.3203125 4.419922, 3.3183594 4.2304688 Q 3.3164062 4.0410156, 3.3085938 3.765625 Q 3.296875 3.0683594, 3.0507812 2.7714844 Q 2.8046875 2.4726562, 2.1679688 2.4726562 Q 1.9960938 2.4726562, 1.8417969 2.5136719 Q 1.6875 2.5527344, 1.5644531 2.625 Z M 4.0039062 3.8027344 Q 4.0078125 4.408203, 4.0195312 5.0527344 Q 4.0410156 5.7128906, 4.3945312 6.091797 Q 4.748047 6.46875, 5.404297 6.529297 L 5.404297 5.640625 Q 5.107422 5.5566406, 5.0996094 5.2441406 Q 5.080078 4.6972656, 5.0722656 4.2148438 Q 5.064453 3.7324219, 5.064453 3.2714844 Q 5.064453 2.8085938, 5.0722656 2.3203125 Q 5.080078 1.8320312, 5.0996094 1.2773438 Q 5.107422 0.97265625, 5.404297 0.8886719 L 5.404297 0 Q 4.748047 0.060546875, 4.3945312 0.4375 Q 4.0410156 0.8125, 4.0195312 1.4726562 Q 4.0117188 2.0371094, 4.0058594 2.6171875 Q 4 3.1972656, 4.0039062 3.8027344 Z M 5.908203 5.6367188 L 5.908203 6.529297 Q 6.5351562 6.46875, 6.8945312 6.0996094 Q 7.2558594 5.7285156, 7.279297 5.0527344 Q 7.296875 4.6210938, 7.3046875 4.185547 Q 7.3125 3.7480469, 7.3125 3.3046875 Q 7.3125 2.8613281, 7.3046875 2.4042969 Q 7.296875 1.9453125, 7.279297 1.4726562 Q 7.263672 0.8125, 6.908203 0.4375 Q 6.5527344 0.060546875, 5.908203 0 L 5.908203 0.8886719 Q 6.1953125 0.9765625, 6.203125 1.2695312 Q 6.232422 1.9804688, 6.2402344 2.6269531 Q 6.248047 3.2734375, 6.2402344 3.9199219 Q 6.232422 4.564453, 6.203125 5.265625 Q 6.1835938 5.5566406, 5.908203 5.6367188 Z M 10.056641 6.4648438 L 10.056641 0.064453125 L 11.115234 0.064453125 L 11.115234 6.4648438 L 10.056641 6.4648438 Z" transform="translate(11.884766, 389.0454)" />
    <rect id="mark_65" fill="Black" x="0" y="378.41153" width="10" height="1.5" />
    <rect id="mark_70" fill="Black" x="0" y="360.72763" width="25" height="1.5" />
    <path fill="Black" d="M 0 0.064453125 L 0 0.99609375 L 3.3613281 0.99609375 L 3.3613281 0.064453125 L 0 0.064453125 Z M 2.140625 1.3886719 L 0.453125 6.4648438 L 1.5683594 6.4648438 L 3.2285156 1.3886719 L 2.140625 1.3886719 Z M 4.232422 3.8027344 Q 4.236328 4.408203, 4.248047 5.0527344 Q 4.2695312 5.7128906, 4.623047 6.091797 Q 4.9765625 6.46875, 5.6328125 6.529297 L 5.6328125 5.640625 Q 5.3359375 5.5566406, 5.328125 5.2441406 Q 5.3085938 4.6972656, 5.3007812 4.2148438 Q 5.2929688 3.7324219, 5.2929688 3.2714844 Q 5.2929688 2.8085938, 5.3007812 2.3203125 Q 5.3085938 1.8320312, 5.328125 1.2773438 Q 5.3359375 0.97265625, 5.6328125 0.8886719 L 5.6328125 0 Q 4.9765625 0.060546875, 4.623047 0.4375 Q 4.2695312 0.8125, 4.248047 1.4726562 Q 4.2402344 2.0371094, 4.234375 2.6171875 Q 4.2285156 3.1972656, 4.232422 3.8027344 Z M 6.1367188 5.6367188 L 6.1367188 6.529297 Q 6.763672 6.46875, 7.123047 6.0996094 Q 7.484375 5.7285156, 7.5078125 5.0527344 Q 7.5253906 4.6210938, 7.533203 4.185547 Q 7.5410156 3.7480469, 7.5410156 3.3046875 Q 7.5410156 2.8613281, 7.533203 2.4042969 Q 7.5253906 1.9453125, 7.5078125 1.4726562 Q 7.4921875 0.8125, 7.1367188 0.4375 Q 6.78125 0.060546875, 6.1367188 0 L 6.1367188 0.8886719 Q 6.423828 0.9765625, 6.4316406 1.2695312 Q 6.4609375 1.9804688, 6.46875 2.6269531 Q 6.4765625 3.2734375, 6.46875 3.9199219 Q 6.4609375 4.564453, 6.4316406 5.265625 Q 6.4121094 5.5566406, 6.1367188 5.6367188 Z M 10.285156 6.4648438 L 10.285156 0.064453125 L 11.34375 0.064453125 L 11.34375 6.4648438 L 10.285156 6.4648438 Z" transform="translate(11.65625, 353.67764)" />
    <rect id="mark_75" fill="Black" x="0" y="343.04376" width="10" height="1.5" />
    <rect id="mark_80" fill="Black" x="0" y="325.35986" width="25" height="1.5" />
    <path fill="Black" d="M 0.001953125 4.8222656 Q 0.00390625 4.923828, 0.0078125 5.0527344 Q 0.03515625 5.765625, 0.3515625 6.125 Q 0.66796875 6.484375, 1.3964844 6.5371094 L 1.3964844 5.6445312 Q 1.2363281 5.5976562, 1.1621094 5.482422 Q 1.0878906 5.3652344, 1.0839844 5.189453 L 1.0839844 4.703125 Q 1.0839844 4.4609375, 1.0878906 4.2128906 Q 1.0878906 4.033203, 1.1621094 3.9179688 Q 1.2363281 3.8007812, 1.3964844 3.7519531 L 1.3964844 2.6757812 Q 1.2402344 2.6289062, 1.1640625 2.515625 Q 1.0878906 2.4003906, 1.0878906 2.2207031 Q 1.0839844 2.1054688, 1.0839844 1.9980469 L 1.0839844 1.5742188 Q 1.0839844 1.4648438, 1.0878906 1.3457031 Q 1.0878906 1.1640625, 1.1640625 1.0527344 Q 1.2402344 0.94140625, 1.3964844 0.8925781 L 1.3964844 0 Q 0.6875 0.052734375, 0.3828125 0.40429688 Q 0.080078125 0.7558594, 0.0390625 1.484375 Q 0.03515625 1.6132812, 0.0390625 1.7695312 Q 0.04296875 1.9238281, 0.056640625 2.0839844 Q 0.072265625 2.2441406, 0.091796875 2.3847656 Q 0.14453125 2.671875, 0.31445312 2.8613281 Q 0.484375 3.0488281, 0.71484375 3.1289062 L 0.71484375 3.2851562 Q 0.38671875 3.4199219, 0.22265625 3.6640625 Q 0.060546875 3.9082031, 0.01953125 4.328125 Q 0.0078125 4.4960938, 0.00390625 4.609375 Q 0 4.720703, 0.001953125 4.8222656 Z M 1.8964844 5.6445312 L 1.8964844 6.5371094 Q 2.6113281 6.4882812, 2.9277344 6.138672 Q 3.2441406 5.7890625, 3.2832031 5.0527344 Q 3.2910156 4.888672, 3.2910156 4.71875 Q 3.2910156 4.548828, 3.2675781 4.3164062 Q 3.2148438 3.9160156, 3.0429688 3.6738281 Q 2.8710938 3.4296875, 2.5722656 3.2929688 L 2.5722656 3.1289062 Q 2.8066406 3.0488281, 2.9765625 2.8613281 Q 3.1484375 2.671875, 3.1992188 2.3808594 Q 3.21875 2.2597656, 3.2324219 2.0996094 Q 3.2480469 1.9375, 3.2519531 1.7734375 Q 3.2558594 1.609375, 3.2480469 1.484375 Q 3.2109375 0.7480469, 2.8964844 0.40039062 Q 2.5839844 0.052734375, 1.8964844 0 L 1.8964844 0.8925781 Q 2.0546875 0.94140625, 2.1289062 1.0546875 Q 2.203125 1.1679688, 2.203125 1.3457031 Q 2.2070312 1.5566406, 2.2050781 1.7792969 Q 2.203125 2, 2.203125 2.2167969 Q 2.203125 2.5839844, 1.8964844 2.6757812 L 1.8964844 3.7519531 Q 2.1992188 3.8496094, 2.203125 4.2128906 Q 2.2070312 4.3808594, 2.2070312 4.5410156 L 2.2070312 4.861328 Q 2.2070312 5.0214844, 2.203125 5.1933594 Q 2.203125 5.3691406, 2.1289062 5.484375 Q 2.0546875 5.5976562, 1.8964844 5.6445312 Z M 4.0234375 3.8066406 Q 4.0273438 4.4121094, 4.0390625 5.0566406 Q 4.060547 5.716797, 4.4140625 6.095703 Q 4.767578 6.4726562, 5.423828 6.533203 L 5.423828 5.6445312 Q 5.126953 5.560547, 5.1191406 5.248047 Q 5.0996094 4.701172, 5.091797 4.21875 Q 5.0839844 3.7363281, 5.0839844 3.2753906 Q 5.0839844 2.8125, 5.091797 2.3242188 Q 5.0996094 1.8359375, 5.1191406 1.28125 Q 5.126953 0.9765625, 5.423828 0.8925781 L 5.423828 0.00390625 Q 4.767578 0.064453125, 4.4140625 0.44140625 Q 4.060547 0.81640625, 4.0390625 1.4765625 Q 4.03125 2.0410156, 4.0253906 2.6210938 Q 4.0195312 3.2011719, 4.0234375 3.8066406 Z M 5.9277344 5.640625 L 5.9277344 6.533203 Q 6.5546875 6.4726562, 6.9140625 6.1035156 Q 7.2753906 5.732422, 7.298828 5.0566406 Q 7.3164062 4.625, 7.3242188 4.189453 Q 7.3320312 3.7519531, 7.3320312 3.3085938 Q 7.3320312 2.8652344, 7.3242188 2.4082031 Q 7.3164062 1.9492188, 7.298828 1.4765625 Q 7.283203 0.81640625, 6.9277344 0.44140625 Q 6.5722656 0.064453125, 5.9277344 0.00390625 L 5.9277344 0.8925781 Q 6.2148438 0.98046875, 6.2226562 1.2734375 Q 6.251953 1.984375, 6.2597656 2.6308594 Q 6.267578 3.2773438, 6.2597656 3.9238281 Q 6.251953 4.5683594, 6.2226562 5.2695312 Q 6.203125 5.560547, 5.9277344 5.640625 Z M 10.076172 6.46875 L 10.076172 0.068359375 L 11.134766 0.068359375 L 11.134766 6.46875 L 10.076172 6.46875 Z" transform="translate(11.865234, 318.30988)" />
    <rect id="mark_85" fill="Black" x="0" y="307.676" width="10" height="1.5" />
    <rect id="mark_90" fill="Black" x="0" y="289.9921" width="25" height="1.5" />
    <path fill="Black" d="M 0.001953125 2.2929688 Q 0.00390625 2.484375, 0.00390625 2.7167969 Q 0.00390625 3.1972656, 0.17773438 3.4980469 Q 0.35351562 3.796875, 0.63671875 3.9335938 Q 0.9199219 4.0683594, 1.2480469 4.0683594 Q 1.3925781 4.0683594, 1.5214844 4.0390625 Q 1.6523438 4.0097656, 1.7519531 3.9609375 L 1.7519531 3.1816406 Q 1.7363281 3.1855469, 1.7148438 3.1875 Q 1.6933594 3.1894531, 1.6679688 3.1894531 Q 1.4121094 3.1894531, 1.25 3.0820312 Q 1.0878906 2.9726562, 1.0800781 2.7617188 Q 1.0761719 2.65625, 1.078125 2.4375 Q 1.0800781 2.2167969, 1.0820312 1.96875 Q 1.0839844 1.7207031, 1.0859375 1.5292969 Q 1.0878906 1.3359375, 1.0878906 1.2890625 Q 1.0878906 0.96875, 1.4121094 0.8886719 L 1.4121094 0 Q 0.6972656 0.048828125, 0.36914062 0.39648438 Q 0.041015625 0.7441406, 0.0078125 1.4804688 Q 0.00390625 1.5527344, 0.001953125 1.671875 Q 0 1.7890625, 0 1.9453125 Q 0 2.1015625, 0.001953125 2.2929688 Z M 1.9121094 5.6484375 L 1.9121094 6.5371094 Q 2.6171875 6.4960938, 2.9511719 6.1484375 Q 3.2851562 5.8007812, 3.296875 5.0566406 Q 3.3085938 4.4492188, 3.3144531 3.9121094 Q 3.3203125 3.3730469, 3.3164062 2.7929688 Q 3.3125 2.2128906, 3.296875 1.4804688 Q 3.28125 0.7441406, 2.9628906 0.39257812 Q 2.6445312 0.041015625, 1.9121094 0 L 1.9121094 0.8886719 Q 2.0566406 0.93359375, 2.1386719 1.0292969 Q 2.2207031 1.125, 2.2207031 1.2734375 Q 2.2285156 1.9003906, 2.2324219 2.4042969 Q 2.2363281 2.9082031, 2.2382812 3.359375 Q 2.2402344 3.8085938, 2.2363281 4.2617188 Q 2.2324219 4.7128906, 2.2246094 5.236328 Q 2.2246094 5.4121094, 2.140625 5.515625 Q 2.0566406 5.6171875, 1.9121094 5.6484375 Z M 0.11328125 4.8828125 L 0.11328125 5.0566406 Q 0.11328125 5.7773438, 0.41992188 6.125 Q 0.7285156 6.4726562, 1.4121094 6.529297 L 1.4121094 5.6210938 Q 1.3007812 5.5683594, 1.2480469 5.4765625 Q 1.1972656 5.3847656, 1.1894531 5.2441406 Q 1.1796875 5.0371094, 1.1835938 4.859375 Q 1.1894531 4.6816406, 1.1933594 4.484375 L 0.12109375 4.484375 Q 0.1171875 4.576172, 0.115234375 4.6816406 Q 0.11328125 4.7851562, 0.11328125 4.8828125 Z M 4.064453 3.8027344 Q 4.0683594 4.408203, 4.080078 5.0527344 Q 4.1015625 5.7128906, 4.455078 6.091797 Q 4.8085938 6.46875, 5.4648438 6.529297 L 5.4648438 5.640625 Q 5.1679688 5.5566406, 5.1601562 5.2441406 Q 5.140625 4.6972656, 5.1328125 4.2148438 Q 5.125 3.7324219, 5.125 3.2714844 Q 5.125 2.8085938, 5.1328125 2.3203125 Q 5.140625 1.8320312, 5.1601562 1.2773438 Q 5.1679688 0.97265625, 5.4648438 0.8886719 L 5.4648438 0 Q 4.8085938 0.060546875, 4.455078 0.4375 Q 4.1015625 0.8125, 4.080078 1.4726562 Q 4.0722656 2.0371094, 4.0664062 2.6171875 Q 4.060547 3.1972656, 4.064453 3.8027344 Z M 5.96875 5.6367188 L 5.96875 6.529297 Q 6.595703 6.46875, 6.955078 6.0996094 Q 7.3164062 5.7285156, 7.3398438 5.0527344 Q 7.357422 4.6210938, 7.3652344 4.185547 Q 7.373047 3.7480469, 7.373047 3.3046875 Q 7.373047 2.8613281, 7.3652344 2.4042969 Q 7.357422 1.9453125, 7.3398438 1.4726562 Q 7.3242188 0.8125, 6.96875 0.4375 Q 6.6132812 0.060546875, 5.96875 0 L 5.96875 0.8886719 Q 6.2558594 0.9765625, 6.263672 1.2695312 Q 6.2929688 1.9804688, 6.3007812 2.6269531 Q 6.3085938 3.2734375, 6.3007812 3.9199219 Q 6.2929688 4.564453, 6.263672 5.265625 Q 6.2441406 5.5566406, 5.96875 5.6367188 Z M 10.1171875 6.4648438 L 10.1171875 0.064453125 L 11.175781 0.064453125 L 11.175781 6.4648438 L 10.1171875 6.4648438 Z" transform="translate(11.824219, 282.9421)" />
    <rect id="mark_95" fill="Black" x="0" y="272.30823" width="10" height="1.5" />
    <rect id="mark_100" fill="Black" x="0" y="254.62436" width="25" height="1.5" />
    <path fill="Black" d="M 0.484375 1.0214844 L 0.484375 6.4648438 L 1.5839844 6.4648438 L 1.5839844 0.064453125 L 0.7050781 0.064453125 L 0 0.640625 L 0.033203125 1.0214844 L 0.484375 1.0214844 Z M 2.140625 3.8027344 Q 2.1445312 4.408203, 2.15625 5.0527344 Q 2.1777344 5.7128906, 2.53125 6.091797 Q 2.8847656 6.46875, 3.5410156 6.529297 L 3.5410156 5.640625 Q 3.2441406 5.5566406, 3.2363281 5.2441406 Q 3.2167969 4.6972656, 3.2089844 4.2148438 Q 3.2011719 3.7324219, 3.2011719 3.2714844 Q 3.2011719 2.8085938, 3.2089844 2.3203125 Q 3.2167969 1.8320312, 3.2363281 1.2773438 Q 3.2441406 0.97265625, 3.5410156 0.8886719 L 3.5410156 0 Q 2.8847656 0.060546875, 2.53125 0.4375 Q 2.1777344 0.8125, 2.15625 1.4726562 Q 2.1484375 2.0371094, 2.1425781 2.6171875 Q 2.1367188 3.1972656, 2.140625 3.8027344 Z M 4.044922 5.6367188 L 4.044922 6.529297 Q 4.671875 6.46875, 5.03125 6.0996094 Q 5.392578 5.7285156, 5.4160156 5.0527344 Q 5.4335938 4.6210938, 5.4414062 4.185547 Q 5.4492188 3.7480469, 5.4492188 3.3046875 Q 5.4492188 2.8613281, 5.4414062 2.4042969 Q 5.4335938 1.9453125, 5.4160156 1.4726562 Q 5.4003906 0.8125, 5.044922 0.4375 Q 4.689453 0.060546875, 4.044922 0 L 4.044922 0.8886719 Q 4.3320312 0.9765625, 4.3398438 1.2695312 Q 4.3691406 1.9804688, 4.376953 2.6269531 Q 4.3847656 3.2734375, 4.376953 3.9199219 Q 4.3691406 4.564453, 4.3398438 5.265625 Q 4.3203125 5.5566406, 4.044922 5.6367188 Z M 6.140625 3.8027344 Q 6.1445312 4.408203, 6.15625 5.0527344 Q 6.1777344 5.7128906, 6.53125 6.091797 Q 6.8847656 6.46875, 7.5410156 6.529297 L 7.5410156 5.640625 Q 7.2441406 5.5566406, 7.236328 5.2441406 Q 7.216797 4.6972656, 7.2089844 4.2148438 Q 7.201172 3.7324219, 7.201172 3.2714844 Q 7.201172 2.8085938, 7.2089844 2.3203125 Q 7.216797 1.8320312, 7.236328 1.2773438 Q 7.2441406 0.97265625, 7.5410156 0.8886719 L 7.5410156 0 Q 6.8847656 0.060546875, 6.53125 0.4375 Q 6.1777344 0.8125, 6.15625 1.4726562 Q 6.1484375 2.0371094, 6.142578 2.6171875 Q 6.1367188 3.1972656, 6.140625 3.8027344 Z M 8.044922 5.6367188 L 8.044922 6.529297 Q 8.671875 6.46875, 9.03125 6.0996094 Q 9.392578 5.7285156, 9.416016 5.0527344 Q 9.433594 4.6210938, 9.441406 4.185547 Q 9.449219 3.7480469, 9.449219 3.3046875 Q 9.449219 2.8613281, 9.441406 2.4042969 Q 9.433594 1.9453125, 9.416016 1.4726562 Q 9.400391 0.8125, 9.044922 0.4375 Q 8.689453 0.060546875, 8.044922 0 L 8.044922 0.8886719 Q 8.332031 0.9765625, 8.339844 1.2695312 Q 8.369141 1.9804688, 8.376953 2.6269531 Q 8.384766 3.2734375, 8.376953 3.9199219 Q 8.369141 4.564453, 8.339844 5.265625 Q 8.3203125 5.5566406, 8.044922 5.6367188 Z M 12.193359 6.4648438 L 12.193359 0.064453125 L 13.251953 0.064453125 L 13.251953 6.4648438 L 12.193359 6.4648438 Z" transform="translate(9.748047, 247.57436)" />
    <rect id="mark_105" fill="Black" x="0" y="236.94048" width="10" height="1.5" />
    <rect id="mark_110" fill="Black" x="0" y="219.25659" width="25" height="1.5" />
    <path fill="Black" d="M 0.484375 1.0214844 L 0.484375 6.4648438 L 1.5839844 6.4648438 L 1.5839844 0.064453125 L 0.7050781 0.064453125 L 0 0.640625 L 0.033203125 1.0214844 L 0.484375 1.0214844 Z M 2.484375 1.0214844 L 2.484375 6.4648438 L 3.5839844 6.4648438 L 3.5839844 0.064453125 L 2.7050781 0.064453125 L 2 0.640625 L 2.0332031 1.0214844 L 2.484375 1.0214844 Z M 4.140625 3.8027344 Q 4.1445312 4.408203, 4.15625 5.0527344 Q 4.1777344 5.7128906, 4.53125 6.091797 Q 4.8847656 6.46875, 5.5410156 6.529297 L 5.5410156 5.640625 Q 5.2441406 5.5566406, 5.236328 5.2441406 Q 5.216797 4.6972656, 5.2089844 4.2148438 Q 5.201172 3.7324219, 5.201172 3.2714844 Q 5.201172 2.8085938, 5.2089844 2.3203125 Q 5.216797 1.8320312, 5.236328 1.2773438 Q 5.2441406 0.97265625, 5.5410156 0.8886719 L 5.5410156 0 Q 4.8847656 0.060546875, 4.53125 0.4375 Q 4.1777344 0.8125, 4.15625 1.4726562 Q 4.1484375 2.0371094, 4.142578 2.6171875 Q 4.1367188 3.1972656, 4.140625 3.8027344 Z M 6.044922 5.6367188 L 6.044922 6.529297 Q 6.671875 6.46875, 7.03125 6.0996094 Q 7.392578 5.7285156, 7.4160156 5.0527344 Q 7.4335938 4.6210938, 7.4414062 4.185547 Q 7.4492188 3.7480469, 7.4492188 3.3046875 Q 7.4492188 2.8613281, 7.4414062 2.4042969 Q 7.4335938 1.9453125, 7.4160156 1.4726562 Q 7.4003906 0.8125, 7.044922 0.4375 Q 6.689453 0.060546875, 6.044922 0 L 6.044922 0.8886719 Q 6.3320312 0.9765625, 6.3398438 1.2695312 Q 6.3691406 1.9804688, 6.376953 2.6269531 Q 6.3847656 3.2734375, 6.376953 3.9199219 Q 6.3691406 4.564453, 6.3398438 5.265625 Q 6.3203125 5.5566406, 6.044922 5.6367188 Z M 10.193359 6.4648438 L 10.193359 0.064453125 L 11.251953 0.064453125 L 11.251953 6.4648438 L 10.193359 6.4648438 Z" transform="translate(11.748047, 212.20659)" />
    <rect id="mark_115" fill="Black" x="0" y="201.57271" width="10" height="1.5" />
    <rect id="mark_120" fill="Black" x="0" y="183.88882" width="25" height="1.5" />
    <path fill="Black" d="M 0.484375 1.0253906 L 0.484375 6.46875 L 1.5839844 6.46875 L 1.5839844 0.068359375 L 0.7050781 0.068359375 L 0 0.64453125 L 0.033203125 1.0253906 L 0.484375 1.0253906 Z M 2.1074219 6.203125 Q 2.109375 6.3203125, 2.1132812 6.46875 L 3.1933594 6.46875 L 3.1933594 5.1757812 Q 3.1933594 5.0214844, 3.234375 4.841797 Q 3.2773438 4.6601562, 3.375 4.5 Q 3.4726562 4.3398438, 3.6445312 4.248047 L 4.248047 3.9199219 Q 4.5722656 3.7402344, 4.8183594 3.5136719 Q 5.064453 3.2851562, 5.2089844 2.9726562 Q 5.3535156 2.6601562, 5.3691406 2.2324219 Q 5.373047 2.1445312, 5.375 2.0527344 Q 5.376953 1.9609375, 5.376953 1.8671875 Q 5.376953 1.7734375, 5.375 1.6738281 Q 5.373047 1.5722656, 5.3691406 1.4765625 Q 5.3359375 0.7402344, 5.017578 0.39453125 Q 4.701172 0.048828125, 3.96875 0 L 3.96875 0.8886719 Q 4.125 0.93359375, 4.2070312 1.0351562 Q 4.2890625 1.1367188, 4.296875 1.2929688 Q 4.3085938 1.5136719, 4.3066406 1.7636719 Q 4.3046875 2.0136719, 4.2890625 2.2324219 Q 4.2773438 2.4199219, 4.1992188 2.6347656 Q 4.1210938 2.8496094, 3.8398438 3 L 3.3085938 3.2890625 Q 2.9199219 3.5, 2.65625 3.7734375 Q 2.3925781 4.044922, 2.2539062 4.390625 Q 2.1171875 4.736328, 2.1054688 5.1757812 Q 2.1015625 5.3691406, 2.1015625 5.5117188 L 2.1015625 5.765625 Q 2.1015625 5.876953, 2.1035156 5.9804688 Q 2.1054688 6.0839844, 2.1074219 6.203125 Z M 2.109375 2.0839844 Q 2.1132812 2.2519531, 2.1210938 2.4296875 L 3.1855469 2.4296875 Q 3.1679688 2.1132812, 3.1699219 1.8457031 Q 3.171875 1.5761719, 3.1816406 1.265625 Q 3.1855469 1.1289062, 3.2519531 1.0332031 Q 3.3203125 0.9375, 3.4648438 0.8925781 L 3.4648438 0 Q 2.7773438 0.052734375, 2.4550781 0.3984375 Q 2.1328125 0.7441406, 2.1054688 1.4765625 Q 2.1015625 1.6171875, 2.1035156 1.7675781 Q 2.1054688 1.9160156, 2.109375 2.0839844 Z M 3.6972656 5.5371094 L 3.6972656 6.46875 L 5.2929688 6.46875 L 5.2929688 5.5371094 L 3.6972656 5.5371094 Z M 6.140625 3.8066406 Q 6.1445312 4.4121094, 6.15625 5.0566406 Q 6.1777344 5.716797, 6.53125 6.095703 Q 6.8847656 6.4726562, 7.5410156 6.533203 L 7.5410156 5.6445312 Q 7.2441406 5.560547, 7.236328 5.248047 Q 7.216797 4.701172, 7.2089844 4.21875 Q 7.201172 3.7363281, 7.201172 3.2753906 Q 7.201172 2.8125, 7.2089844 2.3242188 Q 7.216797 1.8359375, 7.236328 1.28125 Q 7.2441406 0.9765625, 7.5410156 0.8925781 L 7.5410156 0.00390625 Q 6.8847656 0.064453125, 6.53125 0.44140625 Q 6.1777344 0.81640625, 6.15625 1.4765625 Q 6.1484375 2.0410156, 6.142578 2.6210938 Q 6.1367188 3.2011719, 6.140625 3.8066406 Z M 8.044922 5.640625 L 8.044922 6.533203 Q 8.671875 6.4726562, 9.03125 6.1035156 Q 9.392578 5.732422, 9.416016 5.0566406 Q 9.433594 4.625, 9.441406 4.189453 Q 9.449219 3.7519531, 9.449219 3.3085938 Q 9.449219 2.8652344, 9.441406 2.4082031 Q 9.433594 1.9492188, 9.416016 1.4765625 Q 9.400391 0.81640625, 9.044922 0.44140625 Q 8.689453 0.064453125, 8.044922 0.00390625 L 8.044922 0.8925781 Q 8.332031 0.98046875, 8.339844 1.2734375 Q 8.369141 1.984375, 8.376953 2.6308594 Q 8.384766 3.2773438, 8.376953 3.9238281 Q 8.369141 4.5683594, 8.339844 5.2695312 Q 8.3203125 5.560547, 8.044922 5.640625 Z M 12.193359 6.46875 L 12.193359 0.068359375 L 13.251953 0.068359375 L 13.251953 6.46875 L 12.193359 6.46875 Z" transform="translate(9.748047, 176.83882)" />
    <rect id="mark_125" fill="Black" x="0" y="166.20494" width="10" height="1.5" />
    <rect id="mark_130" fill="Black" x="0" y="148.52106" width="25" height="1.5" />
    <path fill="Black" d="M 0.484375 1.0214844 L 0.484375 6.4648438 L 1.5839844 6.4648438 L 1.5839844 0.064453125 L 0.7050781 0.064453125 L 0 0.640625 L 0.033203125 1.0214844 L 0.484375 1.0214844 Z M 2.1015625 0.064453125 L 2.1015625 0.99609375 L 5.345703 0.99609375 L 5.345703 0.064453125 L 2.1015625 0.064453125 Z M 4.3007812 5.1933594 Q 4.2890625 5.560547, 3.953125 5.6445312 L 3.9570312 6.533203 Q 4.6816406 6.4921875, 5.015625 6.142578 Q 5.3496094 5.7929688, 5.376953 5.048828 Q 5.3847656 4.9414062, 5.3867188 4.8378906 Q 5.388672 4.732422, 5.388672 4.6289062 Q 5.388672 4.5253906, 5.3867188 4.4179688 Q 5.3847656 4.3085938, 5.376953 4.201172 Q 5.3398438 3.4375, 5.0371094 3.0703125 Q 4.736328 2.7011719, 4.0878906 2.7011719 L 4.0566406 2.7011719 L 5.0253906 1.3496094 L 3.8359375 1.3496094 L 2.8769531 2.7324219 L 2.9042969 3.625 L 3.6523438 3.6171875 Q 4.0214844 3.609375, 4.1523438 3.7734375 Q 4.2851562 3.9375, 4.296875 4.171875 Q 4.3125 4.4003906, 4.310547 4.6445312 Q 4.3085938 4.888672, 4.3007812 5.1933594 Z M 2.0273438 4.796875 Q 2.0292969 4.8964844, 2.0332031 5.048828 Q 2.0527344 5.78125, 2.3867188 6.1289062 Q 2.7207031 6.4765625, 3.453125 6.533203 L 3.453125 5.640625 Q 3.1132812 5.544922, 3.1132812 5.189453 L 3.1132812 4.3242188 L 2.0332031 4.3242188 Q 2.0292969 4.4882812, 2.0273438 4.59375 Q 2.0253906 4.6972656, 2.0273438 4.796875 Z M 6.140625 3.8027344 Q 6.1445312 4.408203, 6.15625 5.0527344 Q 6.1777344 5.7128906, 6.53125 6.091797 Q 6.8847656 6.46875, 7.5410156 6.529297 L 7.5410156 5.640625 Q 7.2441406 5.5566406, 7.236328 5.2441406 Q 7.216797 4.6972656, 7.2089844 4.2148438 Q 7.201172 3.7324219, 7.201172 3.2714844 Q 7.201172 2.8085938, 7.2089844 2.3203125 Q 7.216797 1.8320312, 7.236328 1.2773438 Q 7.2441406 0.97265625, 7.5410156 0.8886719 L 7.5410156 0 Q 6.8847656 0.060546875, 6.53125 0.4375 Q 6.1777344 0.8125, 6.15625 1.4726562 Q 6.1484375 2.0371094, 6.142578 2.6171875 Q 6.1367188 3.1972656, 6.140625 3.8027344 Z M 8.044922 5.6367188 L 8.044922 6.529297 Q 8.671875 6.46875, 9.03125 6.0996094 Q 9.392578 5.7285156, 9.416016 5.0527344 Q 9.433594 4.6210938, 9.441406 4.185547 Q 9.449219 3.7480469, 9.449219 3.3046875 Q 9.449219 2.8613281, 9.441406 2.4042969 Q 9.433594 1.9453125, 9.416016 1.4726562 Q 9.400391 0.8125, 9.044922 0.4375 Q 8.689453 0.060546875, 8.044922 0 L 8.044922 0.8886719 Q 8.332031 0.9765625, 8.339844 1.2695312 Q 8.369141 1.9804688, 8.376953 2.6269531 Q 8.384766 3.2734375, 8.376953 3.9199219 Q 8.369141 4.564453, 8.339844 5.265625 Q 8.3203125 5.5566406, 8.044922 5.6367188 Z M 12.193359 6.4648438 L 12.193359 0.064453125 L 13.251953 0.064453125 L 13.251953 6.4648438 L 12.193359 6.4648438 Z" transform="translate(9.748047, 141.47105)" />
    <rect id="mark_135" fill="Black" x="0" y="130.83717" width="10" height="1.5" />
    <rect id="mark_140" fill="Black" x="0" y="113.1533" width="25" height="1.5" />
    <path fill="Black" d="M 0.484375 1.0214844 L 0.484375 6.4648438 L 1.5839844 6.4648438 L 1.5839844 0.064453125 L 0.7050781 0.064453125 L 0 0.640625 L 0.033203125 1.0214844 L 0.484375 1.0214844 Z M 3.9082031 0.064453125 L 3.9082031 6.4648438 L 4.9160156 6.4648438 L 4.9160156 0.064453125 L 3.9082031 0.064453125 Z M 1.9726562 3.9042969 L 1.9726562 4.78125 L 3.4042969 4.78125 L 3.4042969 3.8574219 L 3.0039062 3.8574219 L 3.7285156 2.0253906 L 2.6894531 2.0253906 L 1.9726562 3.9042969 Z M 5.419922 3.8574219 L 5.419922 4.78125 L 5.888672 4.78125 L 5.888672 3.8574219 L 5.419922 3.8574219 Z M 6.140625 3.8027344 Q 6.1445312 4.408203, 6.15625 5.0527344 Q 6.1777344 5.7128906, 6.53125 6.091797 Q 6.8847656 6.46875, 7.5410156 6.529297 L 7.5410156 5.640625 Q 7.2441406 5.5566406, 7.236328 5.2441406 Q 7.216797 4.6972656, 7.2089844 4.2148438 Q 7.201172 3.7324219, 7.201172 3.2714844 Q 7.201172 2.8085938, 7.2089844 2.3203125 Q 7.216797 1.8320312, 7.236328 1.2773438 Q 7.2441406 0.97265625, 7.5410156 0.8886719 L 7.5410156 0 Q 6.8847656 0.060546875, 6.53125 0.4375 Q 6.1777344 0.8125, 6.15625 1.4726562 Q 6.1484375 2.0371094, 6.142578 2.6171875 Q 6.1367188 3.1972656, 6.140625 3.8027344 Z M 8.044922 5.6367188 L 8.044922 6.529297 Q 8.671875 6.46875, 9.03125 6.0996094 Q 9.392578 5.7285156, 9.416016 5.0527344 Q 9.433594 4.6210938, 9.441406 4.185547 Q 9.449219 3.7480469, 9.449219 3.3046875 Q 9.449219 2.8613281, 9.441406 2.4042969 Q 9.433594 1.9453125, 9.416016 1.4726562 Q 9.400391 0.8125, 9.044922 0.4375 Q 8.689453 0.060546875, 8.044922 0 L 8.044922 0.8886719 Q 8.332031 0.9765625, 8.339844 1.2695312 Q 8.369141 1.9804688, 8.376953 2.6269531 Q 8.384766 3.2734375, 8.376953 3.9199219 Q 8.369141 4.564453, 8.339844 5.265625 Q 8.3203125 5.5566406, 8.044922 5.6367188 Z M 12.193359 6.4648438 L 12.193359 0.064453125 L 13.251953 0.064453125 L 13.251953 6.4648438 L 12.193359 6.4648438 Z" transform="translate(9.748047, 106.103294)" />
    <rect id="mark_145" fill="Black" x="0" y="95.46941" width="10" height="1.5" />
    <rect id="mark_150" fill="Black" x="0" y="77.78553" width="25" height="1.5" />
    <path fill="Black" d="M 0.484375 1.0214844 L 0.484375 6.4648438 L 1.5839844 6.4648438 L 1.5839844 0.064453125 L 0.7050781 0.064453125 L 0 0.640625 L 0.033203125 1.0214844 L 0.484375 1.0214844 Z M 2.2324219 0.064453125 L 2.2324219 3.7128906 L 3.3007812 3.7128906 L 3.3007812 0.064453125 L 2.2324219 0.064453125 Z M 3.8046875 0.064453125 L 3.8046875 0.99609375 L 5.392578 0.99609375 L 5.392578 0.064453125 L 3.8046875 0.064453125 Z M 3.8046875 2.5332031 L 3.8046875 3.2890625 Q 3.8164062 3.2851562, 3.8320312 3.28125 Q 3.8496094 3.2773438, 3.8652344 3.2773438 Q 4.1328125 3.2773438, 4.2617188 3.390625 Q 4.392578 3.5039062, 4.4160156 3.7363281 Q 4.4492188 4.0527344, 4.4433594 4.4003906 Q 4.4375 4.748047, 4.4003906 5.185547 Q 4.388672 5.3691406, 4.3046875 5.484375 Q 4.220703 5.5976562, 4.0566406 5.640625 L 4.0566406 6.533203 Q 4.7734375 6.4882812, 5.091797 6.140625 Q 5.4121094 5.7929688, 5.4804688 5.044922 Q 5.4960938 4.8496094, 5.5039062 4.625 Q 5.513672 4.4003906, 5.5078125 4.1660156 Q 5.5039062 3.9296875, 5.4882812 3.6894531 Q 5.4570312 3.09375, 5.1816406 2.7480469 Q 4.908203 2.4003906, 4.361328 2.4003906 Q 4.201172 2.4003906, 4.060547 2.4375 Q 3.9199219 2.4726562, 3.8046875 2.5332031 Z M 2.1289062 4.6308594 Q 2.125 4.7890625, 2.1328125 5.048828 Q 2.1523438 5.78125, 2.484375 6.1289062 Q 2.8164062 6.4765625, 3.5566406 6.533203 L 3.5566406 5.640625 Q 3.3964844 5.59375, 3.3085938 5.4804688 Q 3.2207031 5.3652344, 3.2050781 5.185547 Q 3.1972656 5.1054688, 3.1953125 4.9453125 Q 3.1933594 4.7851562, 3.1992188 4.6132812 Q 3.2050781 4.4414062, 3.2167969 4.3242188 L 2.1367188 4.3242188 Q 2.1328125 4.4726562, 2.1289062 4.6308594 Z M 6.140625 3.8027344 Q 6.1445312 4.408203, 6.15625 5.0527344 Q 6.1777344 5.7128906, 6.53125 6.091797 Q 6.8847656 6.46875, 7.5410156 6.529297 L 7.5410156 5.640625 Q 7.2441406 5.5566406, 7.236328 5.2441406 Q 7.216797 4.6972656, 7.2089844 4.2148438 Q 7.201172 3.7324219, 7.201172 3.2714844 Q 7.201172 2.8085938, 7.2089844 2.3203125 Q 7.216797 1.8320312, 7.236328 1.2773438 Q 7.2441406 0.97265625, 7.5410156 0.8886719 L 7.5410156 0 Q 6.8847656 0.060546875, 6.53125 0.4375 Q 6.1777344 0.8125, 6.15625 1.4726562 Q 6.1484375 2.0371094, 6.142578 2.6171875 Q 6.1367188 3.1972656, 6.140625 3.8027344 Z M 8.044922 5.6367188 L 8.044922 6.529297 Q 8.671875 6.46875, 9.03125 6.0996094 Q 9.392578 5.7285156, 9.416016 5.0527344 Q 9.433594 4.6210938, 9.441406 4.185547 Q 9.449219 3.7480469, 9.449219 3.3046875 Q 9.449219 2.8613281, 9.441406 2.4042969 Q 9.433594 1.9453125, 9.416016 1.4726562 Q 9.400391 0.8125, 9.044922 0.4375 Q 8.689453 0.060546875, 8.044922 0 L 8.044922 0.8886719 Q 8.332031 0.9765625, 8.339844 1.2695312 Q 8.369141 1.9804688, 8.376953 2.6269531 Q 8.384766 3.2734375, 8.376953 3.9199219 Q 8.369141 4.564453, 8.339844 5.265625 Q 8.3203125 5.5566406, 8.044922 5.6367188 Z M 12.193359 6.4648438 L 12.193359 0.064453125 L 13.251953 0.064453125 L 13.251953 6.4648438 L 12.193359 6.4648438 Z" transform="translate(9.748047, 70.73553)" />
    <rect id="mark_155" fill="Black" x="0" y="60.101646" width="10" height="1.5" />
    <rect id="mark_160" fill="Black" x="0" y="42.417763" width="25" height="1.5" />
    <path fill="Black" d="M 0.484375 1.0214844 L 0.484375 6.4648438 L 1.5839844 6.4648438 L 1.5839844 0.064453125 L 0.7050781 0.064453125 L 0 0.640625 L 0.033203125 1.0214844 L 0.484375 1.0214844 Z M 2.1425781 4.216797 Q 2.1484375 4.6523438, 2.1523438 5.048828 Q 2.1640625 5.7890625, 2.484375 6.1367188 Q 2.8046875 6.484375, 3.5371094 6.533203 L 3.5371094 5.640625 Q 3.3886719 5.5976562, 3.3066406 5.4941406 Q 3.2246094 5.388672, 3.2246094 5.2246094 Q 3.2128906 4.6132812, 3.2128906 3.9824219 Q 3.2128906 3.3496094, 3.2167969 2.6816406 Q 3.2207031 2.0136719, 3.2324219 1.28125 Q 3.2324219 1.1210938, 3.3085938 1.0253906 Q 3.3847656 0.9296875, 3.5292969 0.8925781 L 3.5292969 0 Q 2.8925781 0.056640625, 2.5273438 0.41796875 Q 2.1640625 0.77734375, 2.1523438 1.4726562 Q 2.1445312 1.9335938, 2.140625 2.3984375 Q 2.1367188 2.8613281, 2.1367188 3.3222656 Q 2.1367188 3.78125, 2.1425781 4.216797 Z M 4.341797 1.8027344 Q 4.3398438 1.9082031, 4.328125 2.0488281 L 5.4003906 2.0488281 Q 5.404297 1.9042969, 5.40625 1.8027344 Q 5.408203 1.7011719, 5.40625 1.6113281 Q 5.404297 1.5214844, 5.4003906 1.4199219 Q 5.376953 0.8125, 5.03125 0.43945312 Q 4.685547 0.064453125, 4.029297 0.00390625 L 4.029297 0.8925781 Q 4.1777344 0.9296875, 4.248047 1.03125 Q 4.3203125 1.1328125, 4.328125 1.28125 Q 4.3359375 1.4570312, 4.3398438 1.578125 Q 4.345703 1.6972656, 4.341797 1.8027344 Z M 3.7011719 2.625 L 3.7011719 3.3691406 Q 3.7324219 3.3574219, 3.7617188 3.3554688 Q 3.7929688 3.3535156, 3.8203125 3.3535156 Q 4.064453 3.3535156, 4.216797 3.4609375 Q 4.3691406 3.5683594, 4.373047 3.7929688 Q 4.3808594 3.9765625, 4.3828125 4.142578 Q 4.3847656 4.3085938, 4.3808594 4.4765625 Q 4.376953 4.6445312, 4.373047 4.830078 Q 4.3691406 5.013672, 4.361328 5.2441406 Q 4.357422 5.404297, 4.2753906 5.5058594 Q 4.1933594 5.6054688, 4.0371094 5.6484375 L 4.0371094 6.533203 Q 4.7558594 6.4882812, 5.080078 6.1367188 Q 5.404297 5.7851562, 5.4414062 5.048828 Q 5.453125 4.7890625, 5.455078 4.6054688 Q 5.4570312 4.419922, 5.455078 4.2304688 Q 5.453125 4.0410156, 5.4453125 3.765625 Q 5.4335938 3.0683594, 5.1875 2.7714844 Q 4.9414062 2.4726562, 4.3046875 2.4726562 Q 4.1328125 2.4726562, 3.9785156 2.5136719 Q 3.8242188 2.5527344, 3.7011719 2.625 Z M 6.140625 3.8027344 Q 6.1445312 4.408203, 6.15625 5.0527344 Q 6.1777344 5.7128906, 6.53125 6.091797 Q 6.8847656 6.46875, 7.5410156 6.529297 L 7.5410156 5.640625 Q 7.2441406 5.5566406, 7.236328 5.2441406 Q 7.216797 4.6972656, 7.2089844 4.2148438 Q 7.201172 3.7324219, 7.201172 3.2714844 Q 7.201172 2.8085938, 7.2089844 2.3203125 Q 7.216797 1.8320312, 7.236328 1.2773438 Q 7.2441406 0.97265625, 7.5410156 0.8886719 L 7.5410156 0 Q 6.8847656 0.060546875, 6.53125 0.4375 Q 6.1777344 0.8125, 6.15625 1.4726562 Q 6.1484375 2.0371094, 6.142578 2.6171875 Q 6.1367188 3.1972656, 6.140625 3.8027344 Z M 8.044922 5.6367188 L 8.044922 6.529297 Q 8.671875 6.46875, 9.03125 6.0996094 Q 9.392578 5.7285156, 9.416016 5.0527344 Q 9.433594 4.6210938, 9.441406 4.185547 Q 9.449219 3.7480469, 9.449219 3.3046875 Q 9.449219 2.8613281, 9.441406 2.4042969 Q 9.433594 1.9453125, 9.416016 1.4726562 Q 9.400391 0.8125, 9.044922 0.4375 Q 8.689453 0.060546875, 8.044922 0 L 8.044922 0.8886719 Q 8.332031 0.9765625, 8.339844 1.2695312 Q 8.369141 1.9804688, 8.376953 2.6269531 Q 8.384766 3.2734375, 8.376953 3.9199219 Q 8.369141 4.564453, 8.339844 5.265625 Q 8.3203125 5.5566406, 8.044922 5.6367188 Z M 12.193359 6.4648438 L 12.193359 0.064453125 L 13.251953 0.064453125 L 13.251953 6.4648438 L 12.193359 6.4648438 Z" transform="translate(9.748047, 35.367764)" />
    <rect id="mark_165" fill="Black" x="0" y="24.733883" width="10" height="1.5" />
    <rect id="mark_170" fill="Black" x="0" y="7.05" width="25" height="1.5" />
    <path fill="Black" d="M 0.484375 1.0214844 L 0.484375 6.4648438 L 1.5839844 6.4648438 L 1.5839844 0.064453125 L 0.7050781 0.064453125 L 0 0.640625 L 0.033203125 1.0214844 L 0.484375 1.0214844 Z M 1.9082031 0.064453125 L 1.9082031 0.99609375 L 5.2695312 0.99609375 L 5.2695312 0.064453125 L 1.9082031 0.064453125 Z M 4.048828 1.3886719 L 2.3613281 6.4648438 L 3.4765625 6.4648438 L 5.1367188 1.3886719 L 4.048828 1.3886719 Z M 6.140625 3.8027344 Q 6.1445312 4.408203, 6.15625 5.0527344 Q 6.1777344 5.7128906, 6.53125 6.091797 Q 6.8847656 6.46875, 7.5410156 6.529297 L 7.5410156 5.640625 Q 7.2441406 5.5566406, 7.236328 5.2441406 Q 7.216797 4.6972656, 7.2089844 4.2148438 Q 7.201172 3.7324219, 7.201172 3.2714844 Q 7.201172 2.8085938, 7.2089844 2.3203125 Q 7.216797 1.8320312, 7.236328 1.2773438 Q 7.2441406 0.97265625, 7.5410156 0.8886719 L 7.5410156 0 Q 6.8847656 0.060546875, 6.53125 0.4375 Q 6.1777344 0.8125, 6.15625 1.4726562 Q 6.1484375 2.0371094, 6.142578 2.6171875 Q 6.1367188 3.1972656, 6.140625 3.8027344 Z M 8.044922 5.6367188 L 8.044922 6.529297 Q 8.671875 6.46875, 9.03125 6.0996094 Q 9.392578 5.7285156, 9.416016 5.0527344 Q 9.433594 4.6210938, 9.441406 4.185547 Q 9.449219 3.7480469, 9.449219 3.3046875 Q 9.449219 2.8613281, 9.441406 2.4042969 Q 9.433594 1.9453125, 9.416016 1.4726562 Q 9.400391 0.8125, 9.044922 0.4375 Q 8.689453 0.060546875, 8.044922 0 L 8.044922 0.8886719 Q 8.332031 0.9765625, 8.339844 1.2695312 Q 8.369141 1.9804688, 8.376953 2.6269531 Q 8.384766 3.2734375, 8.376953 3.9199219 Q 8.369141 4.564453, 8.339844 5.265625 Q 8.3203125 5.5566406, 8.044922 5.6367188 Z M 12.193359 6.4648438 L 12.193359 0.064453125 L 13.251953 0.064453125 L 13.251953 6.4648438 L 12.193359 6.4648438 Z" transform="translate(9.748047, 0)" />
  </g>
</svg>