<?xml version="1.0" encoding="UTF-8"?>
<svg xmlns:xlink="http://www.w3.org/1999/xlink" viewBox="0 0 35.1 473.9208873281313" version="1.1" style="font-synthesis: none;" width="35.1mm" height="473.9208873281313mm" xmlns="http://www.w3.org/2000/svg">
  <defs />
  <style>	</style>
  <path d="M 0 0 L 35.1 0 L 35.1 473.9208873281313 L 0 473.9208873281313 Z " stroke="none" fill-rule="nonzero" fill="#FFFFFF" fill-opacity="1" transform="matrix(1,0,0,1,0,0)" />
  <path d="M 0 453.0388873281313 L 10 453.0388873281313 L 10 454.5388873281313 L 0 454.5388873281313 Z " stroke="none" fill-rule="evenodd" fill="#000000" fill-opacity="1" transform="matrix(1,0,0,1,5.05,13.314)" id="mark1 l" />
  <path d="M 0 446.4622367871439 L 10 446.4622367871439 L 10 447.9622367871439 L 0 447.9622367871439 Z " stroke="none" fill-rule="evenodd" fill="#000000" fill-opacity="1" transform="matrix(1,0,0,1,5.05,13.314)" id="mark2 l" />
  <path d="M 0 439.8855862461565 L 10 439.8855862461565 L 10 441.3855862461565 L 0 441.3855862461565 Z " stroke="none" fill-rule="evenodd" fill="#000000" fill-opacity="1" transform="matrix(1,0,0,1,5.05,13.314)" id="mark3 l" />
  <path d="M 0 433.30893570516906 L 10 433.30893570516906 L 10 434.80893570516906 L 0 434.80893570516906 Z " stroke="none" fill-rule="evenodd" fill="#000000" fill-opacity="1" transform="matrix(1,0,0,1,5.05,13.314)" id="mark4 l" />
  <path d="M 0 426.7322851641817 L 25 426.7322851641817 L 25 428.2322851641817 L 0 428.2322851641817 Z " stroke="none" fill-rule="evenodd" fill="#000000" fill-opacity="1" transform="matrix(1,0,0,1,5.05,13.314)" id="mark5 l" />
  <path d="M 16.18 424.2342851641817 C 16.174666666666667 424.06095183084835, 16.173333333333332 423.92161849751506, 16.176 423.8162851641817 C 16.178666666666665 423.71095183084833, 16.181333333333335 423.60895183084835, 16.183999999999997 423.5102851641817 L 17.264 423.5102851641817 C 17.256 423.587618497515, 17.25 423.683618497515, 17.246 423.7982851641817 C 17.241999999999997 423.91295183084833, 17.240666666666666 424.02361849751503, 17.241999999999997 424.1302851641817 C 17.243333333333332 424.23695183084834, 17.246666666666666 424.3169518308483, 17.252 424.3702851641817 C 17.262666666666668 424.4902851641817, 17.297333333333334 424.5882851641817, 17.355999999999998 424.6642851641817 C 17.414666666666665 424.74028516418167, 17.497333333333334 424.7942851641817, 17.604 424.8262851641817 L 17.604 425.7182851641817 C 17.110666666666663 425.68095183084836, 16.75333333333333 425.54628516418165, 16.532 425.3142851641817 C 16.310666666666666 425.0822851641817, 16.19333333333333 424.7222851641817, 16.18 424.2342851641817 Z M 16.279999999999998 422.8982851641817 L 16.279999999999998 419.2502851641817 L 17.348 419.2502851641817 L 17.348 422.8982851641817 Z M 17.852 422.4742851641817 L 17.852 421.7182851641817 C 17.929333333333332 421.6782851641817, 18.014666666666667 421.6462851641817, 18.107999999999997 421.6222851641817 C 18.20133333333333 421.5982851641817, 18.301333333333332 421.5862851641817, 18.407999999999998 421.5862851641817 C 18.773333333333333 421.5862851641817, 19.047333333333334 421.701618497515, 19.23 421.9322851641817 C 19.412666666666667 422.16295183084833, 19.514666666666663 422.4769518308484, 19.535999999999998 422.8742851641817 C 19.546666666666667 423.0342851641817, 19.55333333333333 423.1929518308483, 19.555999999999997 423.3502851641817 C 19.558666666666664 423.50761849751495, 19.557333333333332 423.6609518308484, 19.552 423.8102851641817 C 19.546666666666667 423.95961849751507, 19.538666666666668 424.09961849751505, 19.528 424.2302851641817 C 19.482666666666667 424.72895183084836, 19.353333333333335 425.09428516418166, 19.14 425.3262851641817 C 18.926666666666666 425.5582851641817, 18.581333333333333 425.6889518308484, 18.104 425.7182851641817 L 18.104 424.8262851641817 C 18.21333333333333 424.79695183084834, 18.296 424.7442851641817, 18.352 424.66828516418167 C 18.408 424.5922851641817, 18.44 424.49295183084837, 18.448 424.3702851641817 C 18.471999999999998 424.07961849751507, 18.485999999999997 423.8182851641817, 18.49 423.5862851641817 C 18.494 423.35428516418165, 18.485333333333333 423.13295183084836, 18.464 422.9222851641817 C 18.447999999999997 422.76761849751506, 18.396666666666665 422.65228516418176, 18.31 422.5762851641817 C 18.223333333333333 422.5002851641817, 18.090666666666664 422.4622851641817, 17.912 422.4622851641817 C 17.901333333333334 422.4622851641817, 17.890666666666668 422.463618497515, 17.88 422.46628516418167 C 17.86933333333333 422.46895183084837, 17.86 422.471618497515, 17.852 422.4742851641817 Z M 17.852 420.1822851641817 L 17.852 419.2502851641817 L 19.439999999999998 419.2502851641817 L 19.439999999999998 420.1822851641817 Z M 21.944 425.6502851641817 L 21.944 419.2502851641817 L 23.003999999999998 419.2502851641817 L 23.003999999999998 425.6502851641817 Z " stroke="none" fill-rule="nonzero" fill="#000000" fill-opacity="1" transform="matrix(1,0,0,1,5.05,13.314)" id="text5 l" />
  <path d="M 0 420.15563462319426 L 10 420.15563462319426 L 10 421.65563462319426 L 0 421.65563462319426 Z " stroke="none" fill-rule="evenodd" fill="#000000" fill-opacity="1" transform="matrix(1,0,0,1,5.05,13.314)" id="mark6 l" />
  <path d="M 0 413.57898408220683 L 10 413.57898408220683 L 10 415.07898408220683 L 0 415.07898408220683 Z " stroke="none" fill-rule="evenodd" fill="#000000" fill-opacity="1" transform="matrix(1,0,0,1,5.05,13.314)" id="mark7 l" />
  <path d="M 0 407.00233354121946 L 10 407.00233354121946 L 10 408.50233354121946 L 0 408.50233354121946 Z " stroke="none" fill-rule="evenodd" fill="#000000" fill-opacity="1" transform="matrix(1,0,0,1,5.05,13.314)" id="mark8 l" />
  <path d="M 0 400.425683000232 L 10 400.425683000232 L 10 401.925683000232 L 0 401.925683000232 Z " stroke="none" fill-rule="evenodd" fill="#000000" fill-opacity="1" transform="matrix(1,0,0,1,5.05,13.314)" id="mark9 l" />
  <path d="M 0 393.84903245924465 L 25 393.84903245924465 L 25 395.34903245924465 L 0 395.34903245924465 Z " stroke="none" fill-rule="evenodd" fill="#000000" fill-opacity="1" transform="matrix(1,0,0,1,5.05,13.314)" id="mark10 l" />
  <path d="M 14.323999999999998 392.79903245924464 L 14.323999999999998 387.3550324592446 L 13.871999999999998 387.3550324592446 L 13.839999999999998 386.97503245924463 L 14.543999999999999 386.39903245924467 L 15.424 386.39903245924467 L 15.424 392.79903245924464 Z M 16.196 391.38703245924467 C 16.188000000000002 390.9576991259113, 16.182666666666666 390.54103245924466, 16.18 390.13703245924467 C 16.177333333333333 389.73303245924467, 16.177999999999997 389.3376991259113, 16.182 388.95103245924463 C 16.186 388.564365792578, 16.190666666666665 388.1830324592446, 16.196 387.8070324592446 C 16.209333333333333 387.3670324592447, 16.334000000000003 387.0216991259113, 16.57 386.7710324592446 C 16.805999999999997 386.520365792578, 17.142666666666663 386.37503245924466, 17.58 386.33503245924464 L 17.58 387.2230324592446 C 17.382666666666665 387.2790324592446, 17.281333333333333 387.4083657925779, 17.276 387.61103245924465 C 17.262666666666668 387.9816991259113, 17.253333333333334 388.32969912591136, 17.248 388.65503245924464 C 17.242666666666665 388.980365792578, 17.24 389.29703245924463, 17.24 389.6050324592446 C 17.24 389.9130324592446, 17.242666666666665 390.2276991259113, 17.248 390.54903245924464 C 17.253333333333334 390.870365792578, 17.262666666666668 391.2136991259113, 17.276 391.5790324592446 C 17.281333333333333 391.78703245924464, 17.382666666666665 391.91903245924465, 17.58 391.97503245924463 L 17.58 392.86303245924466 C 17.142666666666663 392.8230324592447, 16.805999999999997 392.67703245924463, 16.57 392.4250324592446 C 16.334000000000003 392.1730324592446, 16.209333333333333 391.8270324592446, 16.196 391.38703245924467 Z M 18.084 392.86303245924466 L 18.084 391.97103245924467 C 18.268 391.9176991259113, 18.366666666666667 391.7936991259113, 18.38 391.59903245924465 C 18.398666666666667 391.13236579257796, 18.410666666666668 390.6836991259113, 18.416 390.25303245924465 C 18.421333333333333 389.822365792578, 18.421333333333333 389.39169912591126, 18.416 388.9610324592446 C 18.410666666666668 388.530365792578, 18.398666666666667 388.0776991259113, 18.38 387.6030324592446 C 18.374666666666666 387.40836579257797, 18.276 387.2816991259113, 18.084 387.2230324592446 L 18.084 386.33503245924464 C 18.513333333333335 386.37503245924466, 18.846666666666668 386.520365792578, 19.084 386.7710324592446 C 19.321333333333335 387.0216991259113, 19.445333333333334 387.3670324592447, 19.456 387.8070324592446 C 19.46666666666667 388.1216991259113, 19.474666666666668 388.43169912591134, 19.48 388.73703245924463 C 19.485333333333333 389.04236579257804, 19.488 389.3430324592447, 19.488 389.6390324592446 C 19.488 389.93503245924467, 19.485333333333333 390.22836579257796, 19.48 390.51903245924467 C 19.474666666666668 390.80969912591127, 19.46666666666667 391.09903245924465, 19.456 391.38703245924467 C 19.439999999999998 391.8376991259113, 19.311999999999998 392.186365792578, 19.072 392.43303245924466 C 18.832 392.6796991259113, 18.502666666666666 392.8230324592447, 18.084 392.86303245924466 Z M 21.944 392.79903245924464 L 21.944 386.39903245924467 L 23.003999999999998 386.39903245924467 L 23.003999999999998 392.79903245924464 Z " stroke="none" fill-rule="nonzero" fill="#000000" fill-opacity="1" transform="matrix(1,0,0,1,5.05,13.314)" id="text10 l" />
  <path d="M 0 387.2723819182572 L 10 387.2723819182572 L 10 388.7723819182572 L 0 388.7723819182572 Z " stroke="none" fill-rule="evenodd" fill="#000000" fill-opacity="1" transform="matrix(1,0,0,1,5.05,13.314)" id="mark11 l" />
  <path d="M 0 380.6957313772698 L 10 380.6957313772698 L 10 382.1957313772698 L 0 382.1957313772698 Z " stroke="none" fill-rule="evenodd" fill="#000000" fill-opacity="1" transform="matrix(1,0,0,1,5.05,13.314)" id="mark12 l" />
  <path d="M 0 374.11908083628236 L 10 374.11908083628236 L 10 375.61908083628236 L 0 375.61908083628236 Z " stroke="none" fill-rule="evenodd" fill="#000000" fill-opacity="1" transform="matrix(1,0,0,1,5.05,13.314)" id="mark13 l" />
  <path d="M 0 367.542430295295 L 10 367.542430295295 L 10 369.042430295295 L 0 369.042430295295 Z " stroke="none" fill-rule="evenodd" fill="#000000" fill-opacity="1" transform="matrix(1,0,0,1,5.05,13.314)" id="mark14 l" />
  <path d="M 0 360.96577975430756 L 25 360.96577975430756 L 25 362.46577975430756 L 0 362.46577975430756 Z " stroke="none" fill-rule="evenodd" fill="#000000" fill-opacity="1" transform="matrix(1,0,0,1,5.05,13.314)" id="mark15 l" />
  <path d="M 14.331999999999999 359.88377975430757 L 14.331999999999999 354.43977975430755 L 13.879999999999999 354.43977975430755 L 13.847999999999999 354.05977975430756 L 14.552 353.4837797543076 L 15.432 353.4837797543076 L 15.432 359.88377975430757 Z M 16.18 358.46777975430757 C 16.174666666666667 358.2944464209742, 16.173333333333332 358.1551130876409, 16.176 358.04977975430756 C 16.178666666666665 357.9444464209742, 16.181333333333335 357.8424464209742, 16.183999999999997 357.7437797543076 L 17.264 357.7437797543076 C 17.256 357.8211130876409, 17.25 357.9171130876409, 17.246 358.0317797543076 C 17.241999999999997 358.14644642097426, 17.240666666666666 358.2571130876409, 17.241999999999997 358.3637797543076 C 17.243333333333332 358.4704464209742, 17.246666666666666 358.55044642097425, 17.252 358.6037797543076 C 17.262666666666668 358.72377975430754, 17.297333333333334 358.82177975430756, 17.355999999999998 358.8977797543076 C 17.414666666666665 358.97377975430754, 17.497333333333334 359.0277797543075, 17.604 359.05977975430756 L 17.604 359.95177975430755 C 17.110666666666663 359.91444642097423, 16.75333333333333 359.7797797543076, 16.532 359.54777975430756 C 16.310666666666666 359.3157797543075, 16.19333333333333 358.95577975430757, 16.18 358.46777975430757 Z M 16.279999999999998 357.13177975430756 L 16.279999999999998 353.4837797543076 L 17.348 353.4837797543076 L 17.348 357.13177975430756 Z M 17.852 356.7077797543076 L 17.852 355.95177975430755 C 17.929333333333332 355.91177975430753, 18.014666666666667 355.87977975430755, 18.107999999999997 355.85577975430755 C 18.20133333333333 355.83177975430755, 18.301333333333332 355.81977975430755, 18.407999999999998 355.81977975430755 C 18.773333333333333 355.81977975430755, 19.047333333333334 355.9351130876409, 19.23 356.16577975430755 C 19.412666666666667 356.3964464209742, 19.514666666666663 356.7104464209742, 19.535999999999998 357.10777975430756 C 19.546666666666667 357.2677797543075, 19.55333333333333 357.42644642097423, 19.555999999999997 357.58377975430756 C 19.558666666666664 357.7411130876409, 19.557333333333332 357.8944464209742, 19.552 358.0437797543076 C 19.546666666666667 358.1931130876409, 19.538666666666668 358.33311308764087, 19.528 358.46377975430755 C 19.482666666666667 358.9624464209742, 19.353333333333335 359.3277797543075, 19.14 359.55977975430756 C 18.926666666666666 359.7917797543076, 18.581333333333333 359.9224464209742, 18.104 359.95177975430755 L 18.104 359.05977975430756 C 18.21333333333333 359.0304464209743, 18.296 358.97777975430756, 18.352 358.90177975430754 C 18.408 358.8257797543076, 18.44 358.72644642097424, 18.448 358.6037797543076 C 18.471999999999998 358.3131130876409, 18.485999999999997 358.0517797543076, 18.49 357.81977975430755 C 18.494 357.5877797543076, 18.485333333333333 357.3664464209742, 18.464 357.15577975430756 C 18.447999999999997 357.00111308764093, 18.396666666666665 356.8857797543076, 18.31 356.80977975430756 C 18.223333333333333 356.73377975430753, 18.090666666666664 356.6957797543076, 17.912 356.6957797543076 C 17.901333333333334 356.6957797543076, 17.890666666666668 356.6971130876409, 17.88 356.69977975430754 C 17.86933333333333 356.70244642097424, 17.86 356.70511308764094, 17.852 356.7077797543076 Z M 17.852 354.41577975430755 L 17.852 353.4837797543076 L 19.439999999999998 353.4837797543076 L 19.439999999999998 354.41577975430755 Z M 21.944 359.88377975430757 L 21.944 353.4837797543076 L 23.003999999999998 353.4837797543076 L 23.003999999999998 359.88377975430757 Z " stroke="none" fill-rule="nonzero" fill="#000000" fill-opacity="1" transform="matrix(1,0,0,1,5.05,13.314)" id="text15 l" />
  <path d="M 0 354.3891292133202 L 10 354.3891292133202 L 10 355.8891292133202 L 0 355.8891292133202 Z " stroke="none" fill-rule="evenodd" fill="#000000" fill-opacity="1" transform="matrix(1,0,0,1,5.05,13.314)" id="mark16 l" />
  <path d="M 0 347.81247867233276 L 10 347.81247867233276 L 10 349.31247867233276 L 0 349.31247867233276 Z " stroke="none" fill-rule="evenodd" fill="#000000" fill-opacity="1" transform="matrix(1,0,0,1,5.05,13.314)" id="mark17 l" />
  <path d="M 0 341.23582813134533 L 10 341.23582813134533 L 10 342.73582813134533 L 0 342.73582813134533 Z " stroke="none" fill-rule="evenodd" fill="#000000" fill-opacity="1" transform="matrix(1,0,0,1,5.05,13.314)" id="mark18 l" />
  <path d="M 0 334.6591775903579 L 10 334.6591775903579 L 10 336.1591775903579 L 0 336.1591775903579 Z " stroke="none" fill-rule="evenodd" fill="#000000" fill-opacity="1" transform="matrix(1,0,0,1,5.05,13.314)" id="mark19 l" />
  <path d="M 0 328.0825270493705 L 25 328.0825270493705 L 25 329.5825270493705 L 0 329.5825270493705 Z " stroke="none" fill-rule="evenodd" fill="#000000" fill-opacity="1" transform="matrix(1,0,0,1,5.05,13.314)" id="mark20 l" />
  <path d="M 12.319999999999999 327.0325270493705 C 12.317333333333334 326.9338603827038, 12.315333333333331 326.84519371603716, 12.313999999999998 326.7665270493705 C 12.312666666666665 326.68786038270383, 12.311333333333334 326.6138603827038, 12.309999999999999 326.5445270493705 C 12.308666666666667 326.4751937160372, 12.308 326.4031937160372, 12.308 326.3285270493705 C 12.308 326.25386038270386, 12.308 326.16919371603717, 12.308 326.0745270493705 C 12.308 325.9798603827038, 12.309333333333335 325.8685270493705, 12.312 325.74052704937054 C 12.32 325.4471937160372, 12.37 325.18519371603713, 12.462 324.95452704937054 C 12.554 324.72386038270383, 12.687999999999999 324.5178603827038, 12.863999999999999 324.3365270493705 C 13.04 324.15519371603716, 13.257333333333333 323.9938603827038, 13.515999999999998 323.8525270493705 L 14.047999999999998 323.5645270493705 C 14.234666666666666 323.46319371603715, 14.354 323.3411937160372, 14.405999999999999 323.1985270493705 C 14.457999999999998 323.0558603827038, 14.488 322.9218603827038, 14.495999999999999 322.7965270493705 C 14.506666666666664 322.6498603827039, 14.512666666666664 322.4931937160372, 14.514 322.3265270493705 C 14.51533333333333 322.1598603827038, 14.511999999999997 322.0031937160372, 14.504 321.8565270493705 C 14.498666666666665 321.75252704937054, 14.468666666666666 321.66652704937053, 14.413999999999998 321.5985270493705 C 14.359333333333332 321.5305270493705, 14.279999999999998 321.48186038270387, 14.175999999999998 321.45252704937053 L 14.175999999999998 320.5645270493705 C 14.663999999999998 320.5965270493705, 15.014 320.72786038270385, 15.225999999999999 320.9585270493705 C 15.437999999999999 321.18919371603715, 15.554666666666666 321.54986038270386, 15.575999999999999 322.0405270493705 C 15.578666666666663 322.1045270493705, 15.580666666666666 322.16986038270386, 15.581999999999999 322.2365270493705 C 15.583333333333332 322.3031937160372, 15.584 322.36786038270384, 15.584 322.43052704937054 C 15.584 322.4931937160372, 15.583333333333332 322.5551937160372, 15.581999999999999 322.6165270493705 C 15.580666666666666 322.67786038270384, 15.578666666666663 322.73786038270384, 15.575999999999999 322.7965270493705 C 15.565333333333331 323.0818603827039, 15.512 323.32852704937056, 15.415999999999999 323.53652704937053 C 15.32 323.7445270493705, 15.19 323.9245270493705, 15.026 324.0765270493705 C 14.862 324.2285270493705, 14.672 324.3645270493705, 14.456 324.4845270493705 L 13.851999999999999 324.8125270493705 C 13.737333333333332 324.87386038270387, 13.647333333333332 324.95786038270387, 13.581999999999999 325.0645270493705 C 13.516666666666666 325.1711937160372, 13.469999999999999 325.2845270493705, 13.441999999999998 325.40452704937053 C 13.413999999999998 325.52452704937053, 13.399999999999999 325.63652704937056, 13.399999999999999 325.74052704937054 L 13.399999999999999 327.0325270493705 Z M 12.328 322.9925270493705 C 12.322666666666667 322.8751937160372, 12.318666666666665 322.7605270493705, 12.315999999999999 322.6485270493705 C 12.313333333333333 322.5365270493705, 12.311333333333334 322.4305270493705, 12.309999999999999 322.3305270493705 C 12.308666666666667 322.23052704937055, 12.309333333333335 322.13386038270386, 12.312 322.0405270493705 C 12.330666666666666 321.5525270493705, 12.447333333333333 321.1931937160372, 12.661999999999999 320.9625270493705 C 12.876666666666665 320.73186038270387, 13.213333333333331 320.5991937160372, 13.671999999999999 320.5645270493705 L 13.671999999999999 321.4565270493705 C 13.576 321.48586038270383, 13.505333333333333 321.5325270493705, 13.459999999999999 321.59652704937054 C 13.414666666666665 321.66052704937056, 13.390666666666664 321.73786038270384, 13.387999999999998 321.8285270493705 C 13.382666666666665 322.03652704937053, 13.379333333333333 322.22986038270386, 13.378 322.4085270493705 C 13.376666666666667 322.5871937160372, 13.381333333333334 322.7818603827038, 13.392 322.9925270493705 Z M 13.904 327.0325270493705 L 13.904 326.1005270493705 L 15.5 326.1005270493705 L 15.5 327.0325270493705 Z M 16.196 325.62052704937054 C 16.188000000000002 325.1911937160372, 16.182666666666666 324.77452704937053, 16.18 324.37052704937054 C 16.177333333333333 323.96652704937054, 16.177999999999997 323.5711937160372, 16.182 323.1845270493705 C 16.186 322.79786038270385, 16.190666666666665 322.41652704937053, 16.196 322.0405270493705 C 16.209333333333333 321.6005270493705, 16.334000000000003 321.2551937160372, 16.57 321.0045270493705 C 16.805999999999997 320.75386038270386, 17.142666666666663 320.60852704937054, 17.58 320.5685270493705 L 17.58 321.4565270493705 C 17.382666666666665 321.5125270493705, 17.281333333333333 321.64186038270384, 17.276 321.8445270493705 C 17.262666666666668 322.21519371603716, 17.253333333333334 322.5631937160372, 17.248 322.8885270493705 C 17.242666666666665 323.21386038270384, 17.24 323.5305270493705, 17.24 323.8385270493705 C 17.24 324.1465270493705, 17.242666666666665 324.46119371603714, 17.248 324.7825270493705 C 17.253333333333334 325.1038603827039, 17.262666666666668 325.4471937160372, 17.276 325.8125270493705 C 17.281333333333333 326.0205270493705, 17.382666666666665 326.1525270493705, 17.58 326.2085270493705 L 17.58 327.09652704937054 C 17.142666666666663 327.0565270493705, 16.805999999999997 326.91052704937056, 16.57 326.6585270493705 C 16.334000000000003 326.40652704937054, 16.209333333333333 326.06052704937053, 16.196 325.62052704937054 Z M 18.084 327.09652704937054 L 18.084 326.20452704937054 C 18.268 326.1511937160372, 18.366666666666667 326.0271937160372, 18.38 325.8325270493705 C 18.398666666666667 325.3658603827039, 18.410666666666668 324.9171937160372, 18.416 324.4865270493705 C 18.421333333333333 324.0558603827038, 18.421333333333333 323.6251937160372, 18.416 323.1945270493705 C 18.410666666666668 322.76386038270385, 18.398666666666667 322.31119371603717, 18.38 321.8365270493705 C 18.374666666666666 321.64186038270384, 18.276 321.5151937160372, 18.084 321.4565270493705 L 18.084 320.5685270493705 C 18.513333333333335 320.60852704937054, 18.846666666666668 320.75386038270386, 19.084 321.0045270493705 C 19.321333333333335 321.2551937160372, 19.445333333333334 321.6005270493705, 19.456 322.0405270493705 C 19.46666666666667 322.3551937160372, 19.474666666666668 322.66519371603715, 19.48 322.9705270493705 C 19.485333333333333 323.27586038270385, 19.488 323.5765270493705, 19.488 323.8725270493705 C 19.488 324.1685270493705, 19.485333333333333 324.46186038270383, 19.48 324.75252704937054 C 19.474666666666668 325.0431937160372, 19.46666666666667 325.3325270493705, 19.456 325.62052704937054 C 19.439999999999998 326.0711937160372, 19.311999999999998 326.41986038270386, 19.072 326.66652704937053 C 18.832 326.9131937160372, 18.502666666666666 327.0565270493705, 18.084 327.09652704937054 Z M 21.944 327.0325270493705 L 21.944 320.63252704937054 L 23.003999999999998 320.63252704937054 L 23.003999999999998 327.0325270493705 Z " stroke="none" fill-rule="nonzero" fill="#000000" fill-opacity="1" transform="matrix(1,0,0,1,5.05,13.314)" id="text20 l" />
  <path d="M 0 321.5058765083831 L 10 321.5058765083831 L 10 323.0058765083831 L 0 323.0058765083831 Z " stroke="none" fill-rule="evenodd" fill="#000000" fill-opacity="1" transform="matrix(1,0,0,1,5.05,13.314)" id="mark21 l" />
  <path d="M 0 314.9292259673957 L 10 314.9292259673957 L 10 316.4292259673957 L 0 316.4292259673957 Z " stroke="none" fill-rule="evenodd" fill="#000000" fill-opacity="1" transform="matrix(1,0,0,1,5.05,13.314)" id="mark22 l" />
  <path d="M 0 308.3525754264083 L 10 308.3525754264083 L 10 309.8525754264083 L 0 309.8525754264083 Z " stroke="none" fill-rule="evenodd" fill="#000000" fill-opacity="1" transform="matrix(1,0,0,1,5.05,13.314)" id="mark23 l" />
  <path d="M 0 301.77592488542086 L 10 301.77592488542086 L 10 303.27592488542086 L 0 303.27592488542086 Z " stroke="none" fill-rule="evenodd" fill="#000000" fill-opacity="1" transform="matrix(1,0,0,1,5.05,13.314)" id="mark24 l" />
  <path d="M 0 295.19927434443343 L 25 295.19927434443343 L 25 296.69927434443343 L 0 296.69927434443343 Z " stroke="none" fill-rule="evenodd" fill="#000000" fill-opacity="1" transform="matrix(1,0,0,1,5.05,13.314)" id="mark25 l" />
  <path d="M 12.328 294.1492743444334 C 12.325333333333333 294.0506076777667, 12.323333333333332 293.96194101110007, 12.322 293.8832743444334 C 12.320666666666666 293.80460767776674, 12.319333333333333 293.7306076777668, 12.318 293.6612743444334 C 12.316666666666666 293.59194101110006, 12.315999999999999 293.51994101110006, 12.316 293.4452743444334 C 12.315999999999999 293.37060767776677, 12.315999999999999 293.2859410111001, 12.316 293.1912743444334 C 12.315999999999999 293.0966076777667, 12.317333333333334 292.98527434443344, 12.32 292.85727434443345 C 12.328 292.5639410111001, 12.378 292.3019410111001, 12.47 292.07127434443345 C 12.562000000000001 291.8406076777668, 12.696 291.6346076777668, 12.872 291.4532743444334 C 13.048 291.27194101110007, 13.265333333333334 291.1106076777668, 13.524000000000001 290.9692743444334 L 14.056000000000001 290.6812743444334 C 14.242666666666668 290.5799410111001, 14.362000000000002 290.4579410111001, 14.414 290.3152743444334 C 14.466000000000001 290.17260767776673, 14.495999999999999 290.0386076777668, 14.504 289.91327434443343 C 14.514666666666667 289.76660767776673, 14.520666666666667 289.6099410111001, 14.522 289.4432743444334 C 14.523333333333333 289.2766076777667, 14.520000000000001 289.1199410111001, 14.512 288.97327434443343 C 14.506666666666666 288.86927434443345, 14.476666666666667 288.78327434443344, 14.422 288.7152743444334 C 14.367333333333335 288.6472743444334, 14.288 288.5986076777668, 14.184000000000001 288.56927434443344 L 14.184000000000001 287.6812743444334 C 14.672 287.71327434443344, 15.022000000000002 287.84460767776676, 15.234 288.0752743444334 C 15.446000000000002 288.30594101110006, 15.562666666666667 288.66660767776676, 15.584 289.1572743444334 C 15.586666666666668 289.2212743444334, 15.588666666666668 289.28660767776677, 15.59 289.35327434443343 C 15.591333333333335 289.4199410111001, 15.592000000000002 289.48460767776675, 15.592 289.54727434443345 C 15.592000000000002 289.6099410111001, 15.591333333333335 289.6719410111001, 15.59 289.7332743444334 C 15.588666666666668 289.79460767776675, 15.586666666666668 289.85460767776675, 15.584 289.91327434443343 C 15.573333333333332 290.19860767776674, 15.52 290.4452743444334, 15.424 290.65327434443344 C 15.328 290.8612743444334, 15.197999999999999 291.0412743444334, 15.033999999999999 291.1932743444334 C 14.87 291.3452743444334, 14.68 291.4812743444334, 14.464 291.6012743444334 L 13.86 291.9292743444334 C 13.745333333333335 291.9906076777668, 13.655333333333335 292.0746076777667, 13.59 292.1812743444334 C 13.524666666666668 292.2879410111001, 13.478000000000002 292.40127434443343, 13.45 292.52127434443344 C 13.422 292.64127434443344, 13.408 292.75327434443346, 13.408 292.85727434443345 L 13.408 294.1492743444334 Z M 12.336 290.1092743444334 C 12.330666666666666 289.9919410111001, 12.326666666666664 289.87727434443343, 12.324 289.7652743444334 C 12.321333333333332 289.6532743444334, 12.319333333333333 289.5472743444334, 12.318 289.4472743444334 C 12.316666666666666 289.34727434443346, 12.317333333333334 289.25060767776677, 12.32 289.1572743444334 C 12.338666666666668 288.6692743444334, 12.455333333333336 288.3099410111001, 12.67 288.07927434443343 C 12.884666666666668 287.8486076777668, 13.221333333333334 287.7159410111001, 13.68 287.6812743444334 L 13.68 288.5732743444334 C 13.584 288.60260767776674, 13.513333333333332 288.6492743444334, 13.468 288.71327434443344 C 13.422666666666668 288.77727434443347, 13.398666666666667 288.8546076777668, 13.396 288.9452743444334 C 13.390666666666666 289.1532743444334, 13.387333333333332 289.34660767776677, 13.386 289.5252743444334 C 13.384666666666666 289.7039410111001, 13.389333333333333 289.89860767776673, 13.4 290.1092743444334 Z M 13.911999999999999 294.1492743444334 L 13.911999999999999 293.2172743444334 L 15.508 293.2172743444334 L 15.508 294.1492743444334 Z M 16.18 292.7332743444334 C 16.174666666666667 292.5599410111001, 16.173333333333332 292.4206076777667, 16.176 292.3152743444334 C 16.178666666666665 292.2099410111001, 16.181333333333335 292.1079410111001, 16.183999999999997 292.00927434443344 L 17.264 292.00927434443344 C 17.256 292.0866076777668, 17.25 292.1826076777668, 17.246 292.29727434443345 C 17.241999999999997 292.4119410111001, 17.240666666666666 292.52260767776676, 17.241999999999997 292.62927434443344 C 17.243333333333332 292.73594101110007, 17.246666666666666 292.8159410111001, 17.252 292.86927434443345 C 17.262666666666668 292.9892743444334, 17.297333333333334 293.0872743444334, 17.355999999999998 293.16327434443343 C 17.414666666666665 293.2392743444334, 17.497333333333334 293.2932743444334, 17.604 293.3252743444334 L 17.604 294.2172743444334 C 17.110666666666663 294.1799410111001, 16.75333333333333 294.04527434443344, 16.532 293.8132743444334 C 16.310666666666666 293.5812743444334, 16.19333333333333 293.2212743444334, 16.18 292.7332743444334 Z M 16.279999999999998 291.3972743444334 L 16.279999999999998 287.74927434443345 L 17.348 287.74927434443345 L 17.348 291.3972743444334 Z M 17.852 290.97327434443343 L 17.852 290.2172743444334 C 17.929333333333332 290.1772743444334, 18.014666666666667 290.1452743444334, 18.107999999999997 290.1212743444334 C 18.20133333333333 290.0972743444334, 18.301333333333332 290.0852743444334, 18.407999999999998 290.0852743444334 C 18.773333333333333 290.0852743444334, 19.047333333333334 290.20060767776675, 19.23 290.4312743444334 C 19.412666666666667 290.66194101110005, 19.514666666666663 290.9759410111001, 19.535999999999998 291.3732743444334 C 19.546666666666667 291.53327434443344, 19.55333333333333 291.6919410111001, 19.555999999999997 291.8492743444334 C 19.558666666666664 292.00660767776674, 19.557333333333332 292.1599410111001, 19.552 292.30927434443345 C 19.546666666666667 292.4586076777668, 19.538666666666668 292.5986076777668, 19.528 292.7292743444334 C 19.482666666666667 293.2279410111001, 19.353333333333335 293.59327434443344, 19.14 293.8252743444334 C 18.926666666666666 294.0572743444334, 18.581333333333333 294.18794101110007, 18.104 294.2172743444334 L 18.104 293.3252743444334 C 18.21333333333333 293.29594101110007, 18.296 293.2432743444334, 18.352 293.1672743444334 C 18.408 293.0912743444334, 18.44 292.9919410111001, 18.448 292.86927434443345 C 18.471999999999998 292.57860767776674, 18.485999999999997 292.31727434443343, 18.49 292.0852743444334 C 18.494 291.85327434443343, 18.485333333333333 291.63194101110014, 18.464 291.4212743444334 C 18.447999999999997 291.26660767776673, 18.396666666666665 291.15127434443343, 18.31 291.0752743444334 C 18.223333333333333 290.99927434443345, 18.090666666666664 290.96127434443343, 17.912 290.96127434443343 C 17.901333333333334 290.96127434443343, 17.890666666666668 290.96260767776675, 17.88 290.9652743444334 C 17.86933333333333 290.9679410111001, 17.86 290.97060767776674, 17.852 290.97327434443343 Z M 17.852 288.6812743444334 L 17.852 287.74927434443345 L 19.439999999999998 287.74927434443345 L 19.439999999999998 288.6812743444334 Z M 21.944 294.1492743444334 L 21.944 287.74927434443345 L 23.003999999999998 287.74927434443345 L 23.003999999999998 294.1492743444334 Z " stroke="none" fill-rule="nonzero" fill="#000000" fill-opacity="1" transform="matrix(1,0,0,1,5.05,13.314)" id="text25 l" />
  <path d="M 0 288.62262380344606 L 10 288.62262380344606 L 10 290.12262380344606 L 0 290.12262380344606 Z " stroke="none" fill-rule="evenodd" fill="#000000" fill-opacity="1" transform="matrix(1,0,0,1,5.05,13.314)" id="mark26 l" />
  <path d="M 0 282.0459732624587 L 10 282.0459732624587 L 10 283.5459732624587 L 0 283.5459732624587 Z " stroke="none" fill-rule="evenodd" fill="#000000" fill-opacity="1" transform="matrix(1,0,0,1,5.05,13.314)" id="mark27 l" />
  <path d="M 0 275.46932272147126 L 10 275.46932272147126 L 10 276.96932272147126 L 0 276.96932272147126 Z " stroke="none" fill-rule="evenodd" fill="#000000" fill-opacity="1" transform="matrix(1,0,0,1,5.05,13.314)" id="mark28 l" />
  <path d="M 0 268.8926721804838 L 10 268.8926721804838 L 10 270.3926721804838 L 0 270.3926721804838 Z " stroke="none" fill-rule="evenodd" fill="#000000" fill-opacity="1" transform="matrix(1,0,0,1,5.05,13.314)" id="mark29 l" />
  <path d="M 0 262.3160216394964 L 25 262.3160216394964 L 25 263.8160216394964 L 0 263.8160216394964 Z " stroke="none" fill-rule="evenodd" fill="#000000" fill-opacity="1" transform="matrix(1,0,0,1,5.05,13.314)" id="mark30 l" />
  <path d="M 12.223999999999998 259.8500216394964 C 12.221333333333334 259.74868830616305, 12.219333333333333 259.66468830616304, 12.218 259.5980216394964 C 12.216666666666667 259.5313549728297, 12.216666666666667 259.46335497282973, 12.218 259.3940216394964 C 12.219333333333333 259.32468830616307, 12.221333333333334 259.2353549728297, 12.223999999999998 259.1260216394964 L 13.303999999999998 259.1260216394964 L 13.303999999999998 259.9900216394964 C 13.303999999999998 260.2273549728297, 13.417333333333332 260.37802163949635, 13.643999999999998 260.4420216394964 L 13.643999999999998 261.33402163949637 C 13.155999999999999 261.29668830616305, 12.800666666666665 261.1620216394964, 12.578 260.9300216394964 C 12.355333333333334 260.69802163949635, 12.237333333333332 260.3380216394964, 12.223999999999998 259.8500216394964 Z M 12.292 255.7980216394964 L 12.292 254.86602163949638 L 15.536 254.86602163949638 L 15.536 255.7980216394964 Z M 14.143999999999998 260.4460216394964 C 14.367999999999999 260.3900216394964, 14.483999999999998 260.23935497282974, 14.491999999999999 259.9940216394964 C 14.497333333333334 259.7913549728297, 14.500666666666666 259.60868830616306, 14.501999999999999 259.4460216394964 C 14.503333333333332 259.2833549728297, 14.498666666666665 259.1260216394964, 14.488 258.9740216394964 C 14.48 258.81668830616303, 14.431999999999999 258.6833549728297, 14.344 258.5740216394964 C 14.256 258.46468830616305, 14.089333333333332 258.41268830616303, 13.844 258.4180216394964 L 13.096 258.4260216394964 L 13.068 257.53402163949636 L 14.027999999999999 256.1500216394964 L 15.216 256.1500216394964 L 14.248 257.5020216394964 L 14.28 257.5020216394964 C 14.712 257.5020216394964, 15.028666666666666 257.6246883061631, 15.229999999999999 257.8700216394964 C 15.431333333333333 258.11535497282966, 15.544 258.492688306163, 15.568 259.0020216394964 C 15.57333333333333 259.0740216394964, 15.576666666666664 259.1460216394964, 15.578 259.2180216394964 C 15.57933333333333 259.2900216394964, 15.579999999999998 259.36068830616307, 15.579999999999998 259.4300216394964 C 15.579999999999998 259.4993549728297, 15.57933333333333 259.56868830616304, 15.578 259.6380216394964 C 15.576666666666664 259.70735497282976, 15.57333333333333 259.7780216394964, 15.568 259.8500216394964 C 15.549333333333333 260.34602163949637, 15.428666666666665 260.71068830616304, 15.206 260.9440216394964 C 14.983333333333334 261.17735497282973, 14.630666666666666 261.3073549728297, 14.148 261.33402163949637 Z M 16.196 259.8540216394964 C 16.188000000000002 259.42468830616303, 16.182666666666666 259.0080216394964, 16.18 258.6040216394964 C 16.177333333333333 258.2000216394964, 16.177999999999997 257.80468830616303, 16.182 257.4180216394964 C 16.186 257.0313549728297, 16.190666666666665 256.6500216394964, 16.196 256.27402163949637 C 16.209333333333333 255.83402163949637, 16.334000000000003 255.48868830616306, 16.57 255.2380216394964 C 16.805999999999997 254.98735497282973, 17.142666666666663 254.8420216394964, 17.58 254.8020216394964 L 17.58 255.6900216394964 C 17.382666666666665 255.7460216394964, 17.281333333333333 255.87535497282974, 17.276 256.0780216394964 C 17.262666666666668 256.44868830616304, 17.253333333333334 256.79668830616305, 17.248 257.1220216394964 C 17.242666666666665 257.4473549728297, 17.24 257.7640216394964, 17.24 258.07202163949637 C 17.24 258.38002163949636, 17.242666666666665 258.694688306163, 17.248 259.0160216394964 C 17.253333333333334 259.33735497282976, 17.262666666666668 259.68068830616306, 17.276 260.04602163949636 C 17.281333333333333 260.2540216394964, 17.382666666666665 260.3860216394964, 17.58 260.4420216394964 L 17.58 261.3300216394964 C 17.142666666666663 261.2900216394964, 16.805999999999997 261.1440216394964, 16.57 260.89202163949636 C 16.334000000000003 260.64002163949635, 16.209333333333333 260.29402163949635, 16.196 259.8540216394964 Z M 18.084 261.3300216394964 L 18.084 260.4380216394964 C 18.268 260.38468830616307, 18.366666666666667 260.26068830616305, 18.38 260.0660216394964 C 18.398666666666667 259.59935497282976, 18.410666666666668 259.1506883061631, 18.416 258.7200216394964 C 18.421333333333333 258.2893549728297, 18.421333333333333 257.858688306163, 18.416 257.42802163949636 C 18.410666666666668 256.9973549728297, 18.398666666666667 256.54468830616304, 18.38 256.07002163949636 C 18.374666666666666 255.8753549728297, 18.276 255.74868830616305, 18.084 255.6900216394964 L 18.084 254.8020216394964 C 18.513333333333335 254.8420216394964, 18.846666666666668 254.98735497282973, 19.084 255.2380216394964 C 19.321333333333335 255.48868830616306, 19.445333333333334 255.83402163949637, 19.456 256.27402163949637 C 19.46666666666667 256.5886883061631, 19.474666666666668 256.8986883061631, 19.48 257.2040216394964 C 19.485333333333333 257.5093549728297, 19.488 257.8100216394964, 19.488 258.10602163949636 C 19.488 258.4020216394964, 19.485333333333333 258.6953549728297, 19.48 258.9860216394964 C 19.474666666666668 259.27668830616307, 19.46666666666667 259.5660216394964, 19.456 259.8540216394964 C 19.439999999999998 260.30468830616303, 19.311999999999998 260.65335497282973, 19.072 260.9000216394964 C 18.832 261.14668830616307, 18.502666666666666 261.2900216394964, 18.084 261.3300216394964 Z M 21.944 261.2660216394964 L 21.944 254.86602163949638 L 23.003999999999998 254.86602163949638 L 23.003999999999998 261.2660216394964 Z " stroke="none" fill-rule="nonzero" fill="#000000" fill-opacity="1" transform="matrix(1,0,0,1,5.05,13.314)" id="text30 l" />
  <path d="M 0 255.73937109850897 L 10 255.73937109850897 L 10 257.23937109850897 L 0 257.23937109850897 Z " stroke="none" fill-rule="evenodd" fill="#000000" fill-opacity="1" transform="matrix(1,0,0,1,5.05,13.314)" id="mark31 l" />
  <path d="M 0 249.1627205575216 L 10 249.1627205575216 L 10 250.6627205575216 L 0 250.6627205575216 Z " stroke="none" fill-rule="evenodd" fill="#000000" fill-opacity="1" transform="matrix(1,0,0,1,5.05,13.314)" id="mark32 l" />
  <path d="M 0 242.5860700165342 L 10 242.5860700165342 L 10 244.0860700165342 L 0 244.0860700165342 Z " stroke="none" fill-rule="evenodd" fill="#000000" fill-opacity="1" transform="matrix(1,0,0,1,5.05,13.314)" id="mark33 l" />
  <path d="M 0 236.00941947554676 L 10 236.00941947554676 L 10 237.50941947554676 L 0 237.50941947554676 Z " stroke="none" fill-rule="evenodd" fill="#000000" fill-opacity="1" transform="matrix(1,0,0,1,5.05,13.314)" id="mark34 l" />
  <path d="M 0 229.43276893455936 L 25 229.43276893455936 L 25 230.93276893455936 L 0 230.93276893455936 Z " stroke="none" fill-rule="evenodd" fill="#000000" fill-opacity="1" transform="matrix(1,0,0,1,5.05,13.314)" id="mark35 l" />
  <path d="M 12.232 226.93476893455937 C 12.229333333333333 226.83343560122603, 12.227333333333334 226.74943560122603, 12.226 226.68276893455936 C 12.224666666666668 226.6161022678927, 12.224666666666668 226.54810226789272, 12.226 226.47876893455935 C 12.227333333333334 226.40943560122605, 12.229333333333333 226.3201022678927, 12.232 226.21076893455938 L 13.312 226.21076893455938 L 13.312 227.07476893455936 C 13.312 227.31210226789273, 13.425333333333333 227.4627689345594, 13.652 227.52676893455936 L 13.652 228.41876893455938 C 13.164 228.38143560122603, 12.808666666666667 228.24676893455938, 12.586 228.01476893455936 C 12.363333333333333 227.78276893455939, 12.245333333333335 227.42276893455937, 12.232 226.93476893455937 Z M 12.3 222.88276893455938 L 12.3 221.95076893455936 L 15.544 221.95076893455936 L 15.544 222.88276893455938 Z M 14.152000000000001 227.53076893455938 C 14.376000000000001 227.47476893455936, 14.492 227.3241022678927, 14.5 227.07876893455938 C 14.505333333333333 226.87610226789272, 14.508666666666667 226.69343560122604, 14.51 226.53076893455938 C 14.511333333333333 226.3681022678927, 14.506666666666668 226.21076893455938, 14.496 226.05876893455937 C 14.488 225.90143560122604, 14.440000000000001 225.7681022678927, 14.352 225.65876893455936 C 14.264 225.54943560122604, 14.097333333333335 225.49743560122602, 13.852 225.50276893455936 L 13.104 225.51076893455937 L 13.076 224.61876893455937 L 14.036 223.23476893455938 L 15.224 223.23476893455938 L 14.256 224.58676893455936 L 14.288 224.58676893455936 C 14.719999999999999 224.58676893455936, 15.036666666666665 224.70943560122603, 15.238 224.95476893455938 C 15.439333333333334 225.2001022678927, 15.552 225.57743560122603, 15.576 226.08676893455936 C 15.581333333333333 226.15876893455936, 15.584666666666667 226.23076893455936, 15.586 226.30276893455937 C 15.587333333333333 226.37476893455937, 15.588000000000001 226.44543560122605, 15.588000000000001 226.51476893455936 C 15.588000000000001 226.58410226789272, 15.587333333333333 226.65343560122602, 15.586 226.72276893455938 C 15.584666666666667 226.7921022678927, 15.581333333333333 226.86276893455937, 15.576 226.93476893455937 C 15.557333333333334 227.43076893455938, 15.436666666666667 227.79543560122605, 15.214 228.02876893455937 C 14.991333333333333 228.2621022678927, 14.638666666666666 228.3921022678927, 14.156 228.41876893455938 Z M 16.18 226.93476893455937 C 16.174666666666667 226.76143560122605, 16.173333333333332 226.62210226789273, 16.176 226.51676893455937 C 16.178666666666665 226.41143560122606, 16.181333333333335 226.30943560122606, 16.183999999999997 226.21076893455938 L 17.264 226.21076893455938 C 17.256 226.2881022678927, 17.25 226.38410226789267, 17.246 226.49876893455937 C 17.241999999999997 226.613435601226, 17.240666666666666 226.7241022678927, 17.241999999999997 226.83076893455936 C 17.243333333333332 226.937435601226, 17.246666666666666 227.01743560122603, 17.252 227.07076893455937 C 17.262666666666668 227.19076893455937, 17.297333333333334 227.28876893455936, 17.355999999999998 227.36476893455938 C 17.414666666666665 227.44076893455934, 17.497333333333334 227.49476893455937, 17.604 227.52676893455936 L 17.604 228.41876893455938 C 17.110666666666663 228.38143560122603, 16.75333333333333 228.24676893455938, 16.532 228.01476893455936 C 16.310666666666666 227.78276893455939, 16.19333333333333 227.42276893455937, 16.18 226.93476893455937 Z M 16.279999999999998 225.59876893455936 L 16.279999999999998 221.95076893455936 L 17.348 221.95076893455936 L 17.348 225.59876893455936 Z M 17.852 225.17476893455938 L 17.852 224.41876893455938 C 17.929333333333332 224.3787689345594, 18.014666666666667 224.34676893455938, 18.107999999999997 224.32276893455938 C 18.20133333333333 224.29876893455938, 18.301333333333332 224.28676893455938, 18.407999999999998 224.28676893455938 C 18.773333333333333 224.28676893455938, 19.047333333333334 224.4021022678927, 19.23 224.63276893455938 C 19.412666666666667 224.86343560122606, 19.514666666666663 225.17743560122602, 19.535999999999998 225.57476893455936 C 19.546666666666667 225.73476893455938, 19.55333333333333 225.89343560122603, 19.555999999999997 226.05076893455936 C 19.558666666666664 226.2081022678927, 19.557333333333332 226.36143560122605, 19.552 226.51076893455937 C 19.546666666666667 226.66010226789268, 19.538666666666668 226.80010226789267, 19.528 226.93076893455938 C 19.482666666666667 227.42943560122603, 19.353333333333335 227.7947689345594, 19.14 228.02676893455936 C 18.926666666666666 228.25876893455938, 18.581333333333333 228.38943560122607, 18.104 228.41876893455938 L 18.104 227.52676893455936 C 18.21333333333333 227.49743560122602, 18.296 227.44476893455936, 18.352 227.36876893455937 C 18.408 227.29276893455938, 18.44 227.19343560122604, 18.448 227.07076893455937 C 18.471999999999998 226.7801022678927, 18.485999999999997 226.51876893455938, 18.49 226.28676893455938 C 18.494 226.05476893455938, 18.485333333333333 225.83343560122603, 18.464 225.62276893455936 C 18.447999999999997 225.46810226789268, 18.396666666666665 225.35276893455938, 18.31 225.27676893455936 C 18.223333333333333 225.2007689345594, 18.090666666666664 225.16276893455938, 17.912 225.16276893455938 C 17.901333333333334 225.16276893455938, 17.890666666666668 225.1641022678927, 17.88 225.16676893455937 C 17.86933333333333 225.16943560122604, 17.86 225.17210226789268, 17.852 225.17476893455938 Z M 17.852 222.88276893455938 L 17.852 221.95076893455936 L 19.439999999999998 221.95076893455936 L 19.439999999999998 222.88276893455938 Z M 21.944 228.35076893455937 L 21.944 221.95076893455936 L 23.003999999999998 221.95076893455936 L 23.003999999999998 228.35076893455937 Z " stroke="none" fill-rule="nonzero" fill="#000000" fill-opacity="1" transform="matrix(1,0,0,1,5.05,13.314)" id="text35 l" />
  <path d="M 0 222.85611839357196 L 10 222.85611839357196 L 10 224.35611839357196 L 0 224.35611839357196 Z " stroke="none" fill-rule="evenodd" fill="#000000" fill-opacity="1" transform="matrix(1,0,0,1,5.05,13.314)" id="mark36 l" />
  <path d="M 0 216.27946785258456 L 10 216.27946785258456 L 10 217.77946785258456 L 0 217.77946785258456 Z " stroke="none" fill-rule="evenodd" fill="#000000" fill-opacity="1" transform="matrix(1,0,0,1,5.05,13.314)" id="mark37 l" />
  <path d="M 0 209.70281731159713 L 10 209.70281731159713 L 10 211.20281731159713 L 0 211.20281731159713 Z " stroke="none" fill-rule="evenodd" fill="#000000" fill-opacity="1" transform="matrix(1,0,0,1,5.05,13.314)" id="mark38 l" />
  <path d="M 0 203.1261667706097 L 10 203.1261667706097 L 10 204.6261667706097 L 0 204.6261667706097 Z " stroke="none" fill-rule="evenodd" fill="#000000" fill-opacity="1" transform="matrix(1,0,0,1,5.05,13.314)" id="mark39 l" />
  <path d="M 0 196.54951622962233 L 25 196.54951622962233 L 25 198.04951622962233 L 0 198.04951622962233 Z " stroke="none" fill-rule="evenodd" fill="#000000" fill-opacity="1" transform="matrix(1,0,0,1,5.05,13.314)" id="mark40 l" />
  <path d="M 11.739999999999998 193.81551622962235 L 11.739999999999998 192.93951622962234 L 12.455999999999998 191.05951622962235 L 13.495999999999999 191.05951622962235 L 12.771999999999998 192.89151622962234 L 13.171999999999997 192.89151622962234 L 13.171999999999997 193.81551622962235 Z M 13.675999999999998 195.49951622962234 L 13.675999999999998 189.09951622962234 L 14.683999999999997 189.09951622962234 L 14.683999999999997 195.49951622962234 Z M 15.187999999999999 193.81551622962235 L 15.187999999999999 192.89151622962234 L 15.655999999999999 192.89151622962234 L 15.655999999999999 193.81551622962235 Z M 16.195999999999998 194.08751622962234 C 16.188 193.658182896289, 16.182666666666666 193.24151622962233, 16.18 192.83751622962234 C 16.177333333333333 192.43351622962234, 16.177999999999997 192.038182896289, 16.182 191.65151622962233 C 16.186 191.26484956295567, 16.190666666666665 190.88351622962233, 16.195999999999998 190.50751622962235 C 16.20933333333333 190.06751622962236, 16.333999999999996 189.722182896289, 16.569999999999997 189.47151622962235 C 16.805999999999997 189.2208495629557, 17.142666666666663 189.07551622962234, 17.58 189.03551622962235 L 17.58 189.92351622962235 C 17.382666666666665 189.97951622962236, 17.281333333333333 190.1088495629557, 17.275999999999996 190.31151622962236 C 17.262666666666664 190.68218289628902, 17.25333333333333 191.030182896289, 17.247999999999998 191.35551622962234 C 17.242666666666665 191.68084956295567, 17.24 191.99751622962236, 17.24 192.30551622962236 C 17.24 192.61351622962235, 17.242666666666665 192.928182896289, 17.247999999999998 193.24951622962234 C 17.25333333333333 193.5708495629557, 17.262666666666664 193.914182896289, 17.275999999999996 194.27951622962235 C 17.281333333333333 194.48751622962237, 17.382666666666665 194.61951622962235, 17.58 194.67551622962233 L 17.58 195.56351622962234 C 17.142666666666663 195.52351622962232, 16.805999999999997 195.37751622962233, 16.569999999999997 195.12551622962235 C 16.333999999999996 194.87351622962234, 16.20933333333333 194.52751622962234, 16.195999999999998 194.08751622962234 Z M 18.084 195.56351622962234 L 18.084 194.67151622962234 C 18.268 194.618182896289, 18.366666666666667 194.49418289628903, 18.38 194.29951622962236 C 18.398666666666664 193.8328495629557, 18.410666666666664 193.38418289628902, 18.415999999999997 192.95351622962235 C 18.42133333333333 192.52284956295568, 18.42133333333333 192.09218289628902, 18.415999999999997 191.66151622962235 C 18.410666666666664 191.23084956295568, 18.398666666666664 190.778182896289, 18.38 190.30351622962235 C 18.374666666666666 190.10884956295567, 18.276 189.982182896289, 18.084 189.92351622962235 L 18.084 189.03551622962235 C 18.513333333333332 189.07551622962234, 18.846666666666664 189.2208495629557, 19.083999999999996 189.47151622962235 C 19.32133333333333 189.722182896289, 19.44533333333333 190.06751622962236, 19.456 190.50751622962235 C 19.466666666666665 190.822182896289, 19.474666666666664 191.132182896289, 19.479999999999997 191.43751622962233 C 19.48533333333333 191.74284956295566, 19.488 192.04351622962233, 19.488 192.33951622962235 C 19.488 192.63551622962234, 19.48533333333333 192.92884956295566, 19.479999999999997 193.21951622962234 C 19.474666666666664 193.51018289628902, 19.466666666666665 193.79951622962236, 19.456 194.08751622962234 C 19.439999999999998 194.53818289628902, 19.311999999999998 194.88684956295566, 19.072 195.13351622962233 C 18.831999999999997 195.380182896289, 18.502666666666663 195.52351622962232, 18.084 195.56351622962234 Z M 21.944 195.49951622962234 L 21.944 189.09951622962234 L 23.003999999999998 189.09951622962234 L 23.003999999999998 195.49951622962234 Z " stroke="none" fill-rule="nonzero" fill="#000000" fill-opacity="1" transform="matrix(1,0,0,1,5.05,13.314)" id="text40 l" />
  <path d="M 0 189.9728656886349 L 10 189.9728656886349 L 10 191.4728656886349 L 0 191.4728656886349 Z " stroke="none" fill-rule="evenodd" fill="#000000" fill-opacity="1" transform="matrix(1,0,0,1,5.05,13.314)" id="mark41 l" />
  <path d="M 0 183.39621514764747 L 10 183.39621514764747 L 10 184.89621514764747 L 0 184.89621514764747 Z " stroke="none" fill-rule="evenodd" fill="#000000" fill-opacity="1" transform="matrix(1,0,0,1,5.05,13.314)" id="mark42 l" />
  <path d="M 0 176.8195646066601 L 10 176.8195646066601 L 10 178.3195646066601 L 0 178.3195646066601 Z " stroke="none" fill-rule="evenodd" fill="#000000" fill-opacity="1" transform="matrix(1,0,0,1,5.05,13.314)" id="mark43 l" />
  <path d="M 0 170.24291406567266 L 10 170.24291406567266 L 10 171.74291406567266 L 0 171.74291406567266 Z " stroke="none" fill-rule="evenodd" fill="#000000" fill-opacity="1" transform="matrix(1,0,0,1,5.05,13.314)" id="mark44 l" />
  <path d="M 0 163.6662635246853 L 25 163.6662635246853 L 25 165.1662635246853 L 0 165.1662635246853 Z " stroke="none" fill-rule="evenodd" fill="#000000" fill-opacity="1" transform="matrix(1,0,0,1,5.05,13.314)" id="mark45 l" />
  <path d="M 11.748 160.9002635246853 L 11.748 160.0242635246853 L 12.463999999999999 158.1442635246853 L 13.503999999999998 158.1442635246853 L 12.78 159.9762635246853 L 13.18 159.9762635246853 L 13.18 160.9002635246853 Z M 13.684 162.5842635246853 L 13.684 156.1842635246853 L 14.691999999999998 156.1842635246853 L 14.691999999999998 162.5842635246853 Z M 15.195999999999998 160.9002635246853 L 15.195999999999998 159.9762635246853 L 15.663999999999998 159.9762635246853 L 15.663999999999998 160.9002635246853 Z M 16.18 161.1682635246853 C 16.174666666666667 160.99493019135195, 16.173333333333332 160.85559685801863, 16.176 160.7502635246853 C 16.178666666666665 160.64493019135196, 16.181333333333335 160.54293019135196, 16.183999999999997 160.4442635246853 L 17.264 160.4442635246853 C 17.256 160.52159685801865, 17.25 160.61759685801863, 17.246 160.7322635246853 C 17.241999999999997 160.84693019135196, 17.240666666666666 160.95759685801863, 17.241999999999997 161.0642635246853 C 17.243333333333332 161.17093019135194, 17.246666666666666 161.25093019135196, 17.252 161.3042635246853 C 17.262666666666668 161.4242635246853, 17.297333333333334 161.52226352468531, 17.355999999999998 161.5982635246853 C 17.414666666666665 161.6742635246853, 17.497333333333334 161.72826352468527, 17.604 161.76026352468529 L 17.604 162.6522635246853 C 17.110666666666663 162.61493019135196, 16.75333333333333 162.48026352468528, 16.532 162.24826352468529 C 16.310666666666666 162.0162635246853, 16.19333333333333 161.6562635246853, 16.18 161.1682635246853 Z M 16.279999999999998 159.8322635246853 L 16.279999999999998 156.1842635246853 L 17.348 156.1842635246853 L 17.348 159.8322635246853 Z M 17.852 159.4082635246853 L 17.852 158.6522635246853 C 17.929333333333332 158.61226352468532, 18.014666666666667 158.5802635246853, 18.107999999999997 158.5562635246853 C 18.20133333333333 158.5322635246853, 18.301333333333332 158.5202635246853, 18.407999999999998 158.5202635246853 C 18.773333333333333 158.5202635246853, 19.047333333333334 158.63559685801863, 19.23 158.8662635246853 C 19.412666666666667 159.09693019135196, 19.514666666666663 159.41093019135195, 19.535999999999998 159.8082635246853 C 19.546666666666667 159.96826352468528, 19.55333333333333 160.12693019135196, 19.555999999999997 160.2842635246853 C 19.558666666666664 160.4415968580186, 19.557333333333332 160.59493019135198, 19.552 160.7442635246853 C 19.546666666666667 160.8935968580186, 19.538666666666668 161.03359685801863, 19.528 161.1642635246853 C 19.482666666666667 161.66293019135196, 19.353333333333335 162.0282635246853, 19.14 162.26026352468529 C 18.926666666666666 162.49226352468528, 18.581333333333333 162.62293019135197, 18.104 162.6522635246853 L 18.104 161.76026352468529 C 18.21333333333333 161.73093019135197, 18.296 161.6782635246853, 18.352 161.6022635246853 C 18.408 161.5262635246853, 18.44 161.42693019135197, 18.448 161.3042635246853 C 18.471999999999998 161.01359685801862, 18.485999999999997 160.7522635246853, 18.49 160.5202635246853 C 18.494 160.2882635246853, 18.485333333333333 160.06693019135196, 18.464 159.8562635246853 C 18.447999999999997 159.70159685801863, 18.396666666666665 159.58626352468528, 18.31 159.51026352468529 C 18.223333333333333 159.4342635246853, 18.090666666666664 159.3962635246853, 17.912 159.3962635246853 C 17.901333333333334 159.3962635246853, 17.890666666666668 159.39759685801863, 17.88 159.4002635246853 C 17.86933333333333 159.40293019135197, 17.86 159.40559685801864, 17.852 159.4082635246853 Z M 17.852 157.1162635246853 L 17.852 156.1842635246853 L 19.439999999999998 156.1842635246853 L 19.439999999999998 157.1162635246853 Z M 21.944 162.5842635246853 L 21.944 156.1842635246853 L 23.003999999999998 156.1842635246853 L 23.003999999999998 162.5842635246853 Z " stroke="none" fill-rule="nonzero" fill="#000000" fill-opacity="1" transform="matrix(1,0,0,1,5.05,13.314)" id="text45 l" />
  <path d="M 0 157.08961298369786 L 10 157.08961298369786 L 10 158.58961298369786 L 0 158.58961298369786 Z " stroke="none" fill-rule="evenodd" fill="#000000" fill-opacity="1" transform="matrix(1,0,0,1,5.05,13.314)" id="mark46 l" />
  <path d="M 0 150.51296244271043 L 10 150.51296244271043 L 10 152.01296244271043 L 0 152.01296244271043 Z " stroke="none" fill-rule="evenodd" fill="#000000" fill-opacity="1" transform="matrix(1,0,0,1,5.05,13.314)" id="mark47 l" />
  <path d="M 0 143.93631190172306 L 10 143.93631190172306 L 10 145.43631190172306 L 0 145.43631190172306 Z " stroke="none" fill-rule="evenodd" fill="#000000" fill-opacity="1" transform="matrix(1,0,0,1,5.05,13.314)" id="mark48 l" />
  <path d="M 0 137.35966136073563 L 10 137.35966136073563 L 10 138.85966136073563 L 0 138.85966136073563 Z " stroke="none" fill-rule="evenodd" fill="#000000" fill-opacity="1" transform="matrix(1,0,0,1,5.05,13.314)" id="mark49 l" />
  <path d="M 0 130.7830108197482 L 25 130.7830108197482 L 25 132.2830108197482 L 0 132.2830108197482 Z " stroke="none" fill-rule="evenodd" fill="#000000" fill-opacity="1" transform="matrix(1,0,0,1,5.05,13.314)" id="mark50 l" />
  <path d="M 12.204 128.31701081974822 C 12.198666666666668 128.1436774864149, 12.197333333333333 128.00434415308155, 12.2 127.89901081974821 C 12.202666666666667 127.79367748641488, 12.205333333333336 127.69167748641487, 12.208 127.59301081974822 L 13.288 127.59301081974822 C 13.280000000000001 127.67034415308154, 13.274000000000001 127.76634415308155, 13.27 127.88101081974821 C 13.265999999999998 127.99567748641488, 13.264666666666667 128.10634415308155, 13.266 128.2130108197482 C 13.267333333333333 128.31967748641486, 13.270666666666667 128.39967748641487, 13.276 128.45301081974821 C 13.286666666666665 128.57301081974822, 13.321333333333332 128.67101081974823, 13.379999999999999 128.74701081974823 C 13.438666666666666 128.82301081974822, 13.521333333333335 128.8770108197482, 13.628 128.9090108197482 L 13.628 129.80101081974823 C 13.134666666666668 129.76367748641488, 12.777333333333335 129.6290108197482, 12.556 129.3970108197482 C 12.334666666666667 129.1650108197482, 12.217333333333332 128.80501081974822, 12.204 128.31701081974822 Z M 12.304 126.98101081974822 L 12.304 123.33301081974821 L 13.372 123.33301081974821 L 13.372 126.98101081974822 Z M 13.876 126.55701081974821 L 13.876 125.80101081974821 C 13.953333333333333 125.76101081974821, 14.038666666666668 125.7290108197482, 14.132 125.70501081974821 C 14.225333333333333 125.68101081974822, 14.325333333333333 125.66901081974822, 14.432 125.66901081974822 C 14.797333333333334 125.66901081974822, 15.071333333333332 125.78434415308155, 15.254 126.01501081974821 C 15.436666666666667 126.24567748641488, 15.538666666666668 126.55967748641488, 15.56 126.95701081974822 C 15.570666666666668 127.11701081974822, 15.577333333333334 127.27567748641488, 15.58 127.43301081974822 C 15.582666666666666 127.59034415308156, 15.581333333333333 127.74367748641488, 15.576 127.89301081974821 C 15.570666666666666 128.04234415308156, 15.562666666666665 128.18234415308154, 15.552 128.31301081974823 C 15.506666666666668 128.81167748641488, 15.377333333333333 129.1770108197482, 15.164 129.4090108197482 C 14.950666666666667 129.6410108197482, 14.605333333333332 129.7716774864149, 14.128 129.80101081974823 L 14.128 128.9090108197482 C 14.237333333333334 128.8796774864149, 14.32 128.82701081974824, 14.376 128.75101081974822 C 14.432 128.6750108197482, 14.464 128.57567748641486, 14.472 128.45301081974821 C 14.495999999999999 128.16234415308156, 14.509999999999998 127.90101081974822, 14.514 127.66901081974822 C 14.518 127.43701081974822, 14.509333333333334 127.21567748641488, 14.488 127.00501081974822 C 14.472000000000001 126.85034415308155, 14.420666666666666 126.73501081974823, 14.334 126.65901081974822 C 14.247333333333334 126.58301081974821, 14.114666666666666 126.5450108197482, 13.936 126.54501081974821 C 13.925333333333333 126.5450108197482, 13.914666666666665 126.54634415308155, 13.904 126.54901081974822 C 13.893333333333334 126.55167748641489, 13.884 126.55434415308156, 13.876 126.55701081974821 Z M 13.876 124.26501081974821 L 13.876 123.33301081974821 L 15.464 123.33301081974821 L 15.464 124.26501081974821 Z M 16.196 128.3210108197482 C 16.188000000000002 127.89167748641489, 16.182666666666666 127.47501081974822, 16.18 127.07101081974821 C 16.177333333333333 126.66701081974821, 16.177999999999997 126.27167748641489, 16.182 125.88501081974822 C 16.186 125.49834415308155, 16.190666666666665 125.11701081974823, 16.196 124.74101081974821 C 16.209333333333333 124.30101081974823, 16.334000000000003 123.95567748641488, 16.57 123.70501081974821 C 16.805999999999997 123.45434415308155, 17.142666666666663 123.30901081974821, 17.58 123.26901081974822 L 17.58 124.15701081974822 C 17.382666666666665 124.2130108197482, 17.281333333333333 124.34234415308154, 17.276 124.54501081974821 C 17.262666666666668 124.91567748641488, 17.253333333333334 125.26367748641488, 17.248 125.58901081974821 C 17.242666666666665 125.91434415308154, 17.24 126.2310108197482, 17.24 126.53901081974821 C 17.24 126.84701081974822, 17.242666666666665 127.16167748641487, 17.248 127.48301081974822 C 17.253333333333334 127.80434415308156, 17.262666666666668 128.1476774864149, 17.276 128.51301081974822 C 17.281333333333333 128.72101081974822, 17.382666666666665 128.85301081974822, 17.58 128.9090108197482 L 17.58 129.7970108197482 C 17.142666666666663 129.75701081974822, 16.805999999999997 129.6110108197482, 16.57 129.35901081974822 C 16.334000000000003 129.1070108197482, 16.209333333333333 128.7610108197482, 16.196 128.3210108197482 Z M 18.084 129.7970108197482 L 18.084 128.9050108197482 C 18.268 128.85167748641487, 18.366666666666667 128.7276774864149, 18.38 128.53301081974823 C 18.398666666666667 128.06634415308156, 18.410666666666668 127.61767748641486, 18.416 127.18701081974821 C 18.421333333333333 126.75634415308153, 18.421333333333333 126.32567748641488, 18.416 125.89501081974822 C 18.410666666666668 125.46434415308156, 18.398666666666667 125.0116774864149, 18.38 124.53701081974822 C 18.374666666666666 124.34234415308154, 18.276 124.21567748641488, 18.084 124.15701081974822 L 18.084 123.26901081974822 C 18.513333333333335 123.30901081974821, 18.846666666666668 123.45434415308155, 19.084 123.70501081974821 C 19.321333333333335 123.95567748641488, 19.445333333333334 124.30101081974823, 19.456 124.74101081974821 C 19.46666666666667 125.05567748641488, 19.474666666666668 125.36567748641488, 19.48 125.67101081974822 C 19.485333333333333 125.97634415308156, 19.488 126.27701081974821, 19.488 126.57301081974822 C 19.488 126.86901081974823, 19.485333333333333 127.16234415308156, 19.48 127.45301081974821 C 19.474666666666668 127.7436774864149, 19.46666666666667 128.03301081974823, 19.456 128.3210108197482 C 19.439999999999998 128.7716774864149, 19.311999999999998 129.12034415308153, 19.072 129.3670108197482 C 18.832 129.61367748641487, 18.502666666666666 129.75701081974822, 18.084 129.7970108197482 Z M 21.944 129.73301081974822 L 21.944 123.33301081974821 L 23.003999999999998 123.33301081974821 L 23.003999999999998 129.73301081974822 Z " stroke="none" fill-rule="nonzero" fill="#000000" fill-opacity="1" transform="matrix(1,0,0,1,5.05,13.314)" id="text50 l" />
  <path d="M 0 124.20636027876083 L 10 124.20636027876083 L 10 125.70636027876083 L 0 125.70636027876083 Z " stroke="none" fill-rule="evenodd" fill="#000000" fill-opacity="1" transform="matrix(1,0,0,1,5.05,13.314)" id="mark51 l" />
  <path d="M 0 117.6297097377734 L 10 117.6297097377734 L 10 119.1297097377734 L 0 119.1297097377734 Z " stroke="none" fill-rule="evenodd" fill="#000000" fill-opacity="1" transform="matrix(1,0,0,1,5.05,13.314)" id="mark52 l" />
  <path d="M 0 111.05305919678597 L 10 111.05305919678597 L 10 112.55305919678597 L 0 112.55305919678597 Z " stroke="none" fill-rule="evenodd" fill="#000000" fill-opacity="1" transform="matrix(1,0,0,1,5.05,13.314)" id="mark53 l" />
  <path d="M 0 104.4764086557986 L 10 104.4764086557986 L 10 105.9764086557986 L 0 105.9764086557986 Z " stroke="none" fill-rule="evenodd" fill="#000000" fill-opacity="1" transform="matrix(1,0,0,1,5.05,13.314)" id="mark54 l" />
  <path d="M 0 97.89975811481116 L 25 97.89975811481116 L 25 99.39975811481116 L 0 99.39975811481116 Z " stroke="none" fill-rule="evenodd" fill="#000000" fill-opacity="1" transform="matrix(1,0,0,1,5.05,13.314)" id="mark55 l" />
  <path d="M 12.212 95.40175811481117 C 12.206666666666667 95.22842478147784, 12.205333333333332 95.0890914481445, 12.207999999999998 94.98375811481117 C 12.210666666666667 94.87842478147783, 12.213333333333335 94.77642478147783, 12.216 94.67775811481117 L 13.296 94.67775811481117 C 13.288 94.7550914481445, 13.282 94.8510914481445, 13.277999999999999 94.96575811481117 C 13.273999999999997 95.08042478147783, 13.272666666666666 95.1910914481445, 13.274 95.29775811481117 C 13.275333333333332 95.40442478147784, 13.278666666666666 95.48442478147784, 13.283999999999999 95.53775811481117 C 13.294666666666664 95.65775811481117, 13.32933333333333 95.75575811481117, 13.387999999999998 95.83175811481117 C 13.446666666666665 95.90775811481117, 13.529333333333334 95.96175811481118, 13.636 95.99375811481117 L 13.636 96.88575811481117 C 13.142666666666667 96.84842478147783, 12.785333333333334 96.71375811481116, 12.563999999999998 96.48175811481117 C 12.342666666666666 96.24975811481116, 12.225333333333332 95.88975811481117, 12.212 95.40175811481117 Z M 12.312 94.06575811481117 L 12.312 90.41775811481116 L 13.379999999999999 90.41775811481116 L 13.379999999999999 94.06575811481117 Z M 13.883999999999999 93.64175811481117 L 13.883999999999999 92.88575811481117 C 13.961333333333332 92.84575811481116, 14.046666666666667 92.81375811481117, 14.139999999999999 92.78975811481116 C 14.233333333333333 92.76575811481118, 14.333333333333332 92.75375811481118, 14.44 92.75375811481118 C 14.805333333333333 92.75375811481118, 15.07933333333333 92.8690914481445, 15.261999999999999 93.09975811481117 C 15.444666666666667 93.33042478147783, 15.546666666666667 93.64442478147784, 15.568 94.04175811481117 C 15.578666666666667 94.20175811481117, 15.585333333333333 94.36042478147783, 15.588 94.51775811481117 C 15.590666666666666 94.67509144814451, 15.589333333333332 94.82842478147784, 15.584 94.97775811481117 C 15.578666666666665 95.1270914481445, 15.570666666666664 95.2670914481445, 15.559999999999999 95.39775811481117 C 15.514666666666667 95.89642478147785, 15.385333333333332 96.26175811481119, 15.171999999999999 96.49375811481117 C 14.958666666666666 96.72575811481119, 14.613333333333332 96.85642478147784, 14.136 96.88575811481117 L 14.136 95.99375811481117 C 14.245333333333333 95.96442478147785, 14.328 95.91175811481118, 14.383999999999999 95.83575811481117 C 14.44 95.75975811481116, 14.472 95.66042478147783, 14.479999999999999 95.53775811481117 C 14.503999999999998 95.2470914481445, 14.517999999999997 94.98575811481118, 14.521999999999998 94.75375811481118 C 14.526 94.52175811481116, 14.517333333333333 94.30042478147783, 14.495999999999999 94.08975811481118 C 14.48 93.9350914481445, 14.428666666666665 93.81975811481118, 14.341999999999999 93.74375811481117 C 14.255333333333333 93.66775811481116, 14.122666666666666 93.62975811481117, 13.943999999999999 93.62975811481117 C 13.933333333333332 93.62975811481117, 13.922666666666665 93.6310914481445, 13.911999999999999 93.63375811481117 C 13.901333333333334 93.63642478147783, 13.892 93.6390914481445, 13.883999999999999 93.64175811481117 Z M 13.883999999999999 91.34975811481117 L 13.883999999999999 90.41775811481116 L 15.472 90.41775811481116 L 15.472 91.34975811481117 Z M 16.18 95.40175811481117 C 16.174666666666667 95.22842478147784, 16.173333333333332 95.0890914481445, 16.176 94.98375811481117 C 16.178666666666665 94.87842478147783, 16.181333333333335 94.77642478147783, 16.183999999999997 94.67775811481117 L 17.264 94.67775811481117 C 17.256 94.7550914481445, 17.25 94.8510914481445, 17.246 94.96575811481117 C 17.241999999999997 95.08042478147783, 17.240666666666666 95.1910914481445, 17.241999999999997 95.29775811481117 C 17.243333333333332 95.40442478147784, 17.246666666666666 95.48442478147784, 17.252 95.53775811481117 C 17.262666666666668 95.65775811481117, 17.297333333333334 95.75575811481117, 17.355999999999998 95.83175811481117 C 17.414666666666665 95.90775811481117, 17.497333333333334 95.96175811481118, 17.604 95.99375811481117 L 17.604 96.88575811481117 C 17.110666666666663 96.84842478147783, 16.75333333333333 96.71375811481116, 16.532 96.48175811481117 C 16.310666666666666 96.24975811481116, 16.19333333333333 95.88975811481117, 16.18 95.40175811481117 Z M 16.279999999999998 94.06575811481117 L 16.279999999999998 90.41775811481116 L 17.348 90.41775811481116 L 17.348 94.06575811481117 Z M 17.852 93.64175811481117 L 17.852 92.88575811481117 C 17.929333333333332 92.84575811481116, 18.014666666666667 92.81375811481117, 18.107999999999997 92.78975811481116 C 18.20133333333333 92.76575811481118, 18.301333333333332 92.75375811481118, 18.407999999999998 92.75375811481118 C 18.773333333333333 92.75375811481118, 19.047333333333334 92.8690914481445, 19.23 93.09975811481117 C 19.412666666666667 93.33042478147783, 19.514666666666663 93.64442478147784, 19.535999999999998 94.04175811481117 C 19.546666666666667 94.20175811481117, 19.55333333333333 94.36042478147783, 19.555999999999997 94.51775811481117 C 19.558666666666664 94.67509144814451, 19.557333333333332 94.82842478147784, 19.552 94.97775811481117 C 19.546666666666667 95.1270914481445, 19.538666666666668 95.2670914481445, 19.528 95.39775811481117 C 19.482666666666667 95.89642478147785, 19.353333333333335 96.26175811481119, 19.14 96.49375811481117 C 18.926666666666666 96.72575811481119, 18.581333333333333 96.85642478147784, 18.104 96.88575811481117 L 18.104 95.99375811481117 C 18.21333333333333 95.96442478147785, 18.296 95.91175811481118, 18.352 95.83575811481117 C 18.408 95.75975811481116, 18.44 95.66042478147783, 18.448 95.53775811481117 C 18.471999999999998 95.2470914481445, 18.485999999999997 94.98575811481118, 18.49 94.75375811481118 C 18.494 94.52175811481116, 18.485333333333333 94.30042478147783, 18.464 94.08975811481118 C 18.447999999999997 93.9350914481445, 18.396666666666665 93.81975811481118, 18.31 93.74375811481117 C 18.223333333333333 93.66775811481116, 18.090666666666664 93.62975811481117, 17.912 93.62975811481117 C 17.901333333333334 93.62975811481117, 17.890666666666668 93.6310914481445, 17.88 93.63375811481117 C 17.86933333333333 93.63642478147783, 17.86 93.6390914481445, 17.852 93.64175811481117 Z M 17.852 91.34975811481117 L 17.852 90.41775811481116 L 19.439999999999998 90.41775811481116 L 19.439999999999998 91.34975811481117 Z M 21.944 96.81775811481117 L 21.944 90.41775811481116 L 23.003999999999998 90.41775811481116 L 23.003999999999998 96.81775811481117 Z " stroke="none" fill-rule="nonzero" fill="#000000" fill-opacity="1" transform="matrix(1,0,0,1,5.05,13.314)" id="text55 l" />
  <path d="M 0 91.32310757382373 L 10 91.32310757382373 L 10 92.82310757382373 L 0 92.82310757382373 Z " stroke="none" fill-rule="evenodd" fill="#000000" fill-opacity="1" transform="matrix(1,0,0,1,5.05,13.314)" id="mark56 l" />
  <path d="M 0 84.74645703283636 L 10 84.74645703283636 L 10 86.24645703283636 L 0 86.24645703283636 Z " stroke="none" fill-rule="evenodd" fill="#000000" fill-opacity="1" transform="matrix(1,0,0,1,5.05,13.314)" id="mark57 l" />
  <path d="M 0 78.16980649184893 L 10 78.16980649184893 L 10 79.66980649184893 L 0 79.66980649184893 Z " stroke="none" fill-rule="evenodd" fill="#000000" fill-opacity="1" transform="matrix(1,0,0,1,5.05,13.314)" id="mark58 l" />
  <path d="M 0 71.5931559508615 L 10 71.5931559508615 L 10 73.0931559508615 L 0 73.0931559508615 Z " stroke="none" fill-rule="evenodd" fill="#000000" fill-opacity="1" transform="matrix(1,0,0,1,5.05,13.314)" id="mark59 l" />
  <path d="M 0 65.01650540987413 L 25 65.01650540987413 L 25 66.51650540987413 L 0 66.51650540987413 Z " stroke="none" fill-rule="evenodd" fill="#000000" fill-opacity="1" transform="matrix(1,0,0,1,5.05,13.314)" id="mark60 l" />
  <path d="M 12.264 62.55050540987413 C 12.261333333333333 62.286505409874124, 12.258 62.00917207654079, 12.254 61.718505409874126 C 12.25 61.42783874320746, 12.248 61.12917207654079, 12.248 60.822505409874125 C 12.248 60.51583874320746, 12.249333333333333 60.20783874320746, 12.251999999999999 59.898505409874126 C 12.254666666666665 59.58917207654079, 12.258666666666667 59.28117207654079, 12.264 58.974505409874126 C 12.271999999999998 58.51050540987412, 12.397333333333332 58.158505409874124, 12.639999999999999 57.91850540987412 C 12.882666666666665 57.67850540987412, 13.215999999999998 57.539838743207454, 13.639999999999999 57.502505409874125 L 13.639999999999999 58.39450540987412 C 13.543999999999997 58.41850540987412, 13.470666666666665 58.462505409874126, 13.419999999999998 58.526505409874126 C 13.369333333333332 58.590505409874126, 13.343999999999998 58.67583874320746, 13.344 58.782505409874126 C 13.335999999999999 59.270505409874126, 13.330666666666666 59.73717207654079, 13.328 60.182505409874125 C 13.325333333333333 60.62783874320746, 13.323999999999998 61.06117207654079, 13.323999999999998 61.48250540987412 C 13.323999999999998 61.90383874320746, 13.328 62.31850540987412, 13.335999999999999 62.72650540987412 C 13.335999999999999 62.83583874320746, 13.363333333333333 62.92517207654079, 13.418 62.99450540987412 C 13.472666666666665 63.063838743207455, 13.549333333333333 63.11317207654079, 13.648 63.142505409874126 L 13.648 64.03450540987413 C 13.159999999999998 64.00250540987412, 12.809333333333331 63.87050540987413, 12.595999999999998 63.63850540987412 C 12.382666666666665 63.40650540987413, 12.271999999999998 63.04383874320746, 12.264 62.55050540987413 Z M 13.812 60.87050540987413 L 13.812 60.12650540987413 C 13.894666666666666 60.078505409874126, 13.987333333333332 60.04117207654079, 14.09 60.014505409874126 C 14.192666666666668 59.98783874320746, 14.301333333333332 59.974505409874126, 14.415999999999999 59.974505409874126 C 14.84 59.974505409874126, 15.134 60.07383874320746, 15.297999999999998 60.27250540987412 C 15.462 60.471172076540796, 15.547999999999998 60.80250540987413, 15.556 61.26650540987412 C 15.561333333333334 61.450505409874125, 15.564666666666666 61.60583874320746, 15.565999999999999 61.73250540987412 C 15.567333333333332 61.85917207654079, 15.567333333333332 61.98383874320746, 15.565999999999999 62.106505409874124 C 15.564666666666666 62.22917207654079, 15.559999999999999 62.37717207654079, 15.552 62.55050540987413 C 15.527999999999999 63.04117207654079, 15.408 63.40383874320746, 15.192 63.63850540987412 C 14.975999999999999 63.8731720765408, 14.628 64.00517207654079, 14.148 64.03450540987413 L 14.148 63.15050540987412 C 14.251999999999999 63.12117207654079, 14.331333333333333 63.073172076540786, 14.386 63.00650540987412 C 14.440666666666665 62.93983874320746, 14.469333333333333 62.85317207654079, 14.472 62.746505409874125 C 14.477333333333332 62.59183874320746, 14.481333333333332 62.453172076540795, 14.483999999999998 62.33050540987412 C 14.486666666666666 62.20783874320746, 14.489333333333335 62.090505409874126, 14.491999999999999 61.978505409874124 C 14.494666666666667 61.86650540987412, 14.495333333333333 61.75517207654079, 14.494 61.64450540987412 C 14.492666666666667 61.533838743207454, 14.489333333333333 61.417172076540794, 14.483999999999998 61.29450540987413 C 14.481333333333332 61.14517207654079, 14.429333333333332 61.03450540987412, 14.328 60.962505409874126 C 14.226666666666665 60.89050540987412, 14.094666666666665 60.85450540987412, 13.931999999999999 60.85450540987412 C 13.913333333333334 60.85450540987412, 13.894 60.85517207654079, 13.873999999999999 60.856505409874124 C 13.854 60.85783874320746, 13.833333333333332 60.86250540987413, 13.812 60.87050540987413 Z M 14.44 59.55050540987412 C 14.448 59.457172076540786, 14.452666666666666 59.37517207654079, 14.453999999999999 59.304505409874125 C 14.455333333333332 59.23383874320746, 14.454666666666665 59.158505409874124, 14.451999999999998 59.078505409874126 C 14.449333333333332 58.99850540987412, 14.445333333333334 58.899838743207454, 14.44 58.782505409874126 C 14.434666666666665 58.68383874320746, 14.407999999999998 58.60050540987413, 14.36 58.532505409874126 C 14.311999999999998 58.46450540987412, 14.238666666666665 58.41850540987412, 14.139999999999999 58.39450540987412 L 14.139999999999999 57.50650540987412 C 14.577333333333332 57.54650540987412, 14.911333333333332 57.69117207654079, 15.142 57.94050540987412 C 15.372666666666667 58.18983874320745, 15.495999999999999 58.51717207654079, 15.511999999999999 58.92250540987413 C 15.514666666666667 58.98917207654079, 15.516666666666666 59.05250540987412, 15.517999999999999 59.112505409874124 C 15.519333333333332 59.17250540987412, 15.519333333333332 59.23650540987412, 15.517999999999999 59.304505409874125 C 15.516666666666666 59.37250540987412, 15.514666666666667 59.454505409874116, 15.511999999999999 59.55050540987412 Z M 16.196 62.554505409874125 C 16.188000000000002 62.12517207654079, 16.182666666666666 61.70850540987412, 16.18 61.304505409874125 C 16.177333333333333 60.90050540987413, 16.177999999999997 60.50517207654079, 16.182 60.118505409874125 C 16.186 59.73183874320746, 16.190666666666665 59.350505409874124, 16.196 58.974505409874126 C 16.209333333333333 58.53450540987412, 16.334000000000003 58.189172076540785, 16.57 57.938505409874125 C 16.805999999999997 57.68783874320745, 17.142666666666663 57.542505409874124, 17.58 57.502505409874125 L 17.58 58.39050540987412 C 17.382666666666665 58.44650540987412, 17.281333333333333 58.575838743207456, 17.276 58.77850540987412 C 17.262666666666668 59.14917207654079, 17.253333333333334 59.49717207654079, 17.248 59.822505409874125 C 17.242666666666665 60.14783874320746, 17.24 60.46450540987412, 17.24 60.77250540987412 C 17.24 61.08050540987412, 17.242666666666665 61.39517207654079, 17.248 61.716505409874124 C 17.253333333333334 62.03783874320746, 17.262666666666668 62.38117207654079, 17.276 62.746505409874125 C 17.281333333333333 62.954505409874116, 17.382666666666665 63.08650540987412, 17.58 63.142505409874126 L 17.58 64.03050540987412 C 17.142666666666663 63.990505409874125, 16.805999999999997 63.844505409874124, 16.57 63.59250540987412 C 16.334000000000003 63.34050540987412, 16.209333333333333 62.99450540987412, 16.196 62.554505409874125 Z M 18.084 64.03050540987412 L 18.084 63.13850540987412 C 18.268 63.085172076540786, 18.366666666666667 62.96117207654079, 18.38 62.76650540987412 C 18.398666666666667 62.29983874320746, 18.410666666666668 61.85117207654079, 18.416 61.420505409874124 C 18.421333333333333 60.98983874320746, 18.421333333333333 60.55917207654079, 18.416 60.12850540987412 C 18.410666666666668 59.697838743207456, 18.398666666666667 59.24517207654078, 18.38 58.770505409874126 C 18.374666666666666 58.575838743207456, 18.276 58.44917207654079, 18.084 58.39050540987412 L 18.084 57.502505409874125 C 18.513333333333335 57.542505409874124, 18.846666666666668 57.68783874320745, 19.084 57.938505409874125 C 19.321333333333335 58.189172076540785, 19.445333333333334 58.53450540987412, 19.456 58.974505409874126 C 19.46666666666667 59.28917207654079, 19.474666666666668 59.59917207654078, 19.48 59.904505409874126 C 19.485333333333333 60.209838743207456, 19.488 60.51050540987413, 19.488 60.80650540987412 C 19.488 61.10250540987413, 19.485333333333333 61.39583874320746, 19.48 61.68650540987412 C 19.474666666666668 61.977172076540796, 19.46666666666667 62.26650540987413, 19.456 62.554505409874125 C 19.439999999999998 63.00517207654079, 19.311999999999998 63.35383874320746, 19.072 63.600505409874124 C 18.832 63.84717207654079, 18.502666666666666 63.990505409874125, 18.084 64.03050540987412 Z M 21.944 63.966505409874124 L 21.944 57.566505409874125 L 23.003999999999998 57.566505409874125 L 23.003999999999998 63.966505409874124 Z " stroke="none" fill-rule="nonzero" fill="#000000" fill-opacity="1" transform="matrix(1,0,0,1,5.05,13.314)" id="text60 l" />
  <path d="M 0 58.4398548688867 L 10 58.4398548688867 L 10 59.9398548688867 L 0 59.9398548688867 Z " stroke="none" fill-rule="evenodd" fill="#000000" fill-opacity="1" transform="matrix(1,0,0,1,5.05,13.314)" id="mark61 l" />
  <path d="M 0 51.86320432789927 L 10 51.86320432789927 L 10 53.36320432789927 L 0 53.36320432789927 Z " stroke="none" fill-rule="evenodd" fill="#000000" fill-opacity="1" transform="matrix(1,0,0,1,5.05,13.314)" id="mark62 l" />
  <path d="M 0 45.286553786911895 L 10 45.286553786911895 L 10 46.786553786911895 L 0 46.786553786911895 Z " stroke="none" fill-rule="evenodd" fill="#000000" fill-opacity="1" transform="matrix(1,0,0,1,5.05,13.314)" id="mark63 l" />
  <path d="M 0 38.709903245924465 L 10 38.709903245924465 L 10 40.209903245924465 L 0 40.209903245924465 Z " stroke="none" fill-rule="evenodd" fill="#000000" fill-opacity="1" transform="matrix(1,0,0,1,5.05,13.314)" id="mark64 l" />
  <path d="M 0 32.133252704937036 L 25 32.133252704937036 L 25 33.633252704937036 L 0 33.633252704937036 Z " stroke="none" fill-rule="evenodd" fill="#000000" fill-opacity="1" transform="matrix(1,0,0,1,5.05,13.314)" id="mark65 l" />
  <path d="M 12.272 29.667252704937034 C 12.269333333333332 29.40325270493703, 12.266 29.1259193716037, 12.262 28.835252704937034 C 12.258000000000001 28.544586038270367, 12.256 28.245919371603698, 12.256 27.939252704937033 C 12.256 27.632586038270368, 12.257333333333335 27.32458603827037, 12.26 27.015252704937033 C 12.262666666666668 26.7059193716037, 12.266666666666666 26.3979193716037, 12.272 26.091252704937034 C 12.280000000000001 25.627252704937035, 12.405333333333335 25.275252704937035, 12.648 25.035252704937037 C 12.890666666666668 24.795252704937035, 13.224 24.65658603827037, 13.648 24.619252704937033 L 13.648 25.511252704937036 C 13.552 25.535252704937037, 13.478666666666665 25.579252704937037, 13.428 25.643252704937034 C 13.377333333333333 25.707252704937034, 13.352 25.792586038270365, 13.352 25.899252704937034 C 13.344 26.387252704937033, 13.338666666666665 26.853919371603702, 13.336 27.299252704937036 C 13.333333333333332 27.74458603827037, 13.332 28.1779193716037, 13.332 28.599252704937037 C 13.332 29.020586038270366, 13.335999999999999 29.435252704937035, 13.344 29.843252704937036 C 13.343999999999998 29.95258603827037, 13.371333333333332 30.041919371603697, 13.426 30.111252704937034 C 13.480666666666666 30.18058603827037, 13.557333333333332 30.2299193716037, 13.656 30.259252704937033 L 13.656 31.151252704937036 C 13.168 31.119252704937033, 12.817333333333334 30.987252704937035, 12.604 30.755252704937035 C 12.390666666666668 30.523252704937036, 12.280000000000001 30.160586038270367, 12.272 29.667252704937034 Z M 13.82 27.987252704937035 L 13.82 27.243252704937035 C 13.902666666666665 27.195252704937033, 13.995333333333331 27.157919371603704, 14.097999999999999 27.131252704937033 C 14.200666666666667 27.10458603827037, 14.309333333333333 27.091252704937034, 14.424 27.091252704937034 C 14.848 27.091252704937034, 15.142000000000001 27.190586038270368, 15.306000000000001 27.389252704937036 C 15.47 27.5879193716037, 15.556000000000001 27.919252704937033, 15.564 28.383252704937036 C 15.569333333333333 28.567252704937037, 15.572666666666667 28.72258603827037, 15.574 28.849252704937037 C 15.575333333333333 28.975919371603702, 15.575333333333333 29.100586038270364, 15.574 29.223252704937035 C 15.572666666666667 29.3459193716037, 15.567999999999998 29.493919371603702, 15.56 29.667252704937034 C 15.536000000000001 30.157919371603704, 15.416 30.52058603827037, 15.2 30.755252704937035 C 14.984 30.9899193716037, 14.636 31.121919371603703, 14.156 31.151252704937036 L 14.156 30.267252704937036 C 14.259999999999998 30.237919371603702, 14.339333333333332 30.1899193716037, 14.394 30.123252704937034 C 14.448666666666666 30.056586038270368, 14.477333333333334 29.9699193716037, 14.48 29.863252704937036 C 14.485333333333333 29.70858603827037, 14.489333333333335 29.5699193716037, 14.492 29.447252704937036 C 14.494666666666667 29.32458603827037, 14.497333333333334 29.207252704937034, 14.5 29.095252704937035 C 14.502666666666666 28.983252704937037, 14.503333333333332 28.871919371603703, 14.501999999999999 28.761252704937036 C 14.500666666666666 28.65058603827037, 14.497333333333334 28.5339193716037, 14.492 28.411252704937034 C 14.489333333333335 28.261919371603703, 14.437333333333335 28.151252704937036, 14.336 28.079252704937034 C 14.234666666666666 28.007252704937038, 14.102666666666666 27.971252704937037, 13.94 27.971252704937037 C 13.921333333333333 27.971252704937037, 13.902000000000001 27.971919371603704, 13.882 27.973252704937035 C 13.862000000000002 27.974586038270367, 13.841333333333335 27.979252704937032, 13.82 27.987252704937035 Z M 14.448 26.667252704937034 C 14.456 26.5739193716037, 14.460666666666668 26.4919193716037, 14.462 26.421252704937036 C 14.463333333333335 26.350586038270368, 14.462666666666667 26.27525270493703, 14.46 26.195252704937033 C 14.457333333333333 26.115252704937035, 14.453333333333333 26.01658603827037, 14.448 25.899252704937034 C 14.442666666666668 25.800586038270367, 14.416 25.71725270493703, 14.368 25.649252704937034 C 14.32 25.581252704937036, 14.246666666666666 25.535252704937037, 14.148 25.511252704937036 L 14.148 24.623252704937034 C 14.585333333333335 24.663252704937033, 14.919333333333334 24.807919371603703, 15.15 25.057252704937035 C 15.380666666666666 25.306586038270368, 15.504000000000001 25.633919371603703, 15.52 26.039252704937034 C 15.522666666666666 26.105919371603704, 15.524666666666668 26.169252704937037, 15.526 26.229252704937036 C 15.527333333333335 26.289252704937034, 15.527333333333335 26.353252704937034, 15.526 26.421252704937036 C 15.524666666666668 26.489252704937037, 15.522666666666666 26.571252704937038, 15.52 26.667252704937034 Z M 16.18 29.667252704937034 C 16.174666666666667 29.493919371603702, 16.173333333333332 29.35458603827037, 16.176 29.249252704937035 C 16.178666666666665 29.1439193716037, 16.181333333333335 29.041919371603697, 16.183999999999997 28.943252704937034 L 17.264 28.943252704937034 C 17.256 29.020586038270366, 17.25 29.11658603827037, 17.246 29.231252704937035 C 17.241999999999997 29.3459193716037, 17.240666666666666 29.456586038270366, 17.241999999999997 29.563252704937035 C 17.243333333333332 29.669919371603704, 17.246666666666666 29.749919371603703, 17.252 29.803252704937034 C 17.262666666666668 29.923252704937035, 17.297333333333334 30.021252704937034, 17.355999999999998 30.097252704937034 C 17.414666666666665 30.173252704937035, 17.497333333333334 30.227252704937037, 17.604 30.259252704937033 L 17.604 31.151252704937036 C 17.110666666666663 31.1139193716037, 16.75333333333333 30.979252704937036, 16.532 30.747252704937036 C 16.310666666666666 30.515252704937033, 16.19333333333333 30.155252704937034, 16.18 29.667252704937034 Z M 16.279999999999998 28.331252704937036 L 16.279999999999998 24.683252704937033 L 17.348 24.683252704937033 L 17.348 28.331252704937036 Z M 17.852 27.907252704937036 L 17.852 27.151252704937036 C 17.929333333333332 27.111252704937037, 18.014666666666667 27.079252704937034, 18.107999999999997 27.055252704937033 C 18.20133333333333 27.031252704937035, 18.301333333333332 27.01925270493704, 18.407999999999998 27.019252704937035 C 18.773333333333333 27.01925270493704, 19.047333333333334 27.13458603827037, 19.23 27.365252704937035 C 19.412666666666667 27.5959193716037, 19.514666666666663 27.9099193716037, 19.535999999999998 28.307252704937035 C 19.546666666666667 28.46725270493703, 19.55333333333333 28.6259193716037, 19.555999999999997 28.783252704937034 C 19.558666666666664 28.940586038270368, 19.557333333333332 29.093919371603704, 19.552 29.243252704937035 C 19.546666666666667 29.392586038270366, 19.538666666666668 29.532586038270367, 19.528 29.663252704937037 C 19.482666666666667 30.1619193716037, 19.353333333333335 30.527252704937034, 19.14 30.759252704937033 C 18.926666666666666 30.991252704937033, 18.581333333333333 31.121919371603703, 18.104 31.151252704937036 L 18.104 30.259252704937033 C 18.21333333333333 30.2299193716037, 18.296 30.177252704937036, 18.352 30.101252704937036 C 18.408 30.025252704937035, 18.44 29.9259193716037, 18.448 29.803252704937034 C 18.471999999999998 29.512586038270367, 18.485999999999997 29.251252704937034, 18.49 29.019252704937035 C 18.494 28.787252704937035, 18.485333333333333 28.5659193716037, 18.464 28.355252704937033 C 18.447999999999997 28.200586038270366, 18.396666666666665 28.085252704937034, 18.31 28.009252704937033 C 18.223333333333333 27.933252704937033, 18.090666666666664 27.895252704937036, 17.912 27.895252704937036 C 17.901333333333334 27.895252704937036, 17.890666666666668 27.89658603827037, 17.88 27.899252704937034 C 17.86933333333333 27.901919371603704, 17.86 27.904586038270367, 17.852 27.907252704937036 Z M 17.852 25.615252704937035 L 17.852 24.683252704937033 L 19.439999999999998 24.683252704937033 L 19.439999999999998 25.615252704937035 Z M 21.944 31.083252704937035 L 21.944 24.683252704937033 L 23.003999999999998 24.683252704937033 L 23.003999999999998 31.083252704937035 Z " stroke="none" fill-rule="nonzero" fill="#000000" fill-opacity="1" transform="matrix(1,0,0,1,5.05,13.314)" id="text65 l" />
  <path d="M 0 25.556602163949663 L 10 25.556602163949663 L 10 27.056602163949663 L 0 27.056602163949663 Z " stroke="none" fill-rule="evenodd" fill="#000000" fill-opacity="1" transform="matrix(1,0,0,1,5.05,13.314)" id="mark66 l" />
  <path d="M 0 18.979951622962176 L 10 18.979951622962176 L 10 20.479951622962176 L 0 20.479951622962176 Z " stroke="none" fill-rule="evenodd" fill="#000000" fill-opacity="1" transform="matrix(1,0,0,1,5.05,13.314)" id="mark67 l" />
  <path d="M 0 12.403301081974803 L 10 12.403301081974803 L 10 13.903301081974803 L 0 13.903301081974803 Z " stroke="none" fill-rule="evenodd" fill="#000000" fill-opacity="1" transform="matrix(1,0,0,1,5.05,13.314)" id="mark68 l" />
  <path d="M 0 5.82665054098743 L 10 5.82665054098743 L 10 7.32665054098743 L 0 7.32665054098743 Z " stroke="none" fill-rule="evenodd" fill="#000000" fill-opacity="1" transform="matrix(1,0,0,1,5.05,13.314)" id="mark69 l" />
  <path d="M 0 -0.75 L 25 -0.75 L 25 0.75 L 0 0.75 Z " stroke="none" fill-rule="evenodd" fill="#000000" fill-opacity="1" transform="matrix(1,0,0,1,5.05,13.314)" id="mark70 l" />
  <path d="M 12.331999999999999 -7.268 L 12.331999999999999 -8.2 L 15.691999999999998 -8.2 L 15.691999999999998 -7.268 Z M 12.783999999999999 -1.7999999999999998 L 14.471999999999998 -6.8759999999999994 L 15.559999999999999 -6.8759999999999994 L 13.899999999999999 -1.7999999999999998 Z M 16.195999999999998 -3.2119999999999997 C 16.188 -3.641333333333333, 16.182666666666666 -4.058, 16.18 -4.462 C 16.177333333333333 -4.866, 16.177999999999997 -5.261333333333333, 16.182 -5.648 C 16.186 -6.034666666666666, 16.190666666666665 -6.416, 16.195999999999998 -6.792 C 16.20933333333333 -7.231999999999999, 16.333999999999996 -7.577333333333334, 16.569999999999997 -7.828 C 16.805999999999997 -8.078666666666667, 17.142666666666663 -8.224, 17.58 -8.264 L 17.58 -7.3759999999999994 C 17.382666666666665 -7.32, 17.281333333333333 -7.190666666666667, 17.275999999999996 -6.9879999999999995 C 17.262666666666664 -6.617333333333333, 17.25333333333333 -6.269333333333333, 17.247999999999998 -5.944 C 17.242666666666665 -5.618666666666666, 17.24 -5.302, 17.24 -4.994 C 17.24 -4.686, 17.242666666666665 -4.371333333333333, 17.247999999999998 -4.05 C 17.25333333333333 -3.7286666666666664, 17.262666666666664 -3.3853333333333326, 17.275999999999996 -3.0199999999999996 C 17.281333333333333 -2.812, 17.382666666666665 -2.6799999999999997, 17.58 -2.6239999999999997 L 17.58 -1.7359999999999998 C 17.142666666666663 -1.7759999999999998, 16.805999999999997 -1.9219999999999997, 16.569999999999997 -2.174 C 16.333999999999996 -2.4259999999999997, 16.20933333333333 -2.772, 16.195999999999998 -3.2119999999999997 Z M 18.084 -1.7359999999999998 L 18.084 -2.6279999999999997 C 18.268 -2.681333333333333, 18.366666666666667 -2.8053333333333335, 18.38 -3 C 18.398666666666664 -3.4666666666666663, 18.410666666666664 -3.915333333333333, 18.415999999999997 -4.346 C 18.42133333333333 -4.776666666666666, 18.42133333333333 -5.207333333333333, 18.415999999999997 -5.638 C 18.410666666666664 -6.068666666666666, 18.398666666666664 -6.521333333333333, 18.38 -6.9959999999999996 C 18.374666666666666 -7.190666666666667, 18.276 -7.317333333333334, 18.084 -7.3759999999999994 L 18.084 -8.264 C 18.513333333333332 -8.224, 18.846666666666664 -8.078666666666667, 19.083999999999996 -7.828 C 19.32133333333333 -7.577333333333334, 19.44533333333333 -7.231999999999999, 19.456 -6.792 C 19.466666666666665 -6.477333333333332, 19.474666666666664 -6.167333333333333, 19.479999999999997 -5.861999999999999 C 19.48533333333333 -5.556666666666667, 19.488 -5.256, 19.488 -4.96 C 19.488 -4.664, 19.48533333333333 -4.370666666666667, 19.479999999999997 -4.08 C 19.474666666666664 -3.7893333333333334, 19.466666666666665 -3.5, 19.456 -3.2119999999999997 C 19.439999999999998 -2.761333333333333, 19.311999999999998 -2.4126666666666665, 19.072 -2.166 C 18.831999999999997 -1.9193333333333331, 18.502666666666663 -1.7759999999999998, 18.084 -1.7359999999999998 Z M 21.944 -1.7999999999999998 L 21.944 -8.2 L 23.003999999999998 -8.2 L 23.003999999999998 -1.7999999999999998 Z " stroke="none" fill-rule="nonzero" fill="#000000" fill-opacity="1" transform="matrix(1,0,0,1,5.05,13.314)" id="text70 l" />
  <path d="M -5 -13.264 L 30 -13.264 L 30 460.55688732813127 L -5 460.55688732813127 Z " stroke="#FF0000" stroke-opacity="1" stroke-width="0.1" stroke-linecap="butt" stroke-linejoin="miter" fill="none" transform="matrix(1,0,0,1,5.05,13.314)" />
</svg>