<?xml version="1.0" encoding="UTF-8"?>
<svg xmlns:xlink="http://www.w3.org/1999/xlink" viewBox="0 0 35.1 359.76641182744095" version="1.1" style="font-synthesis: none;" width="35.1mm" height="359.766411827441mm" xmlns="http://www.w3.org/2000/svg">
  <defs />
  <style>	</style>
  <path d="M 0 0 L 35.1 0 L 35.1 359.76641182744095 L 0 359.76641182744095 Z " stroke="none" fill-rule="nonzero" fill="#FFFFFF" fill-opacity="1" transform="matrix(1,0,0,1,0,0)" />
  <path d="M 0 338.91641182744104 L 10 338.91641182744104 L 10 340.41641182744104 L 0 340.41641182744104 Z " stroke="none" fill-rule="evenodd" fill="#000000" fill-opacity="1" transform="matrix(1,0,0,1,5.05,13.314)" id="mark1 l" />
  <path d="M 0 328.926223244281 L 10 328.926223244281 L 10 330.426223244281 L 0 330.426223244281 Z " stroke="none" fill-rule="evenodd" fill="#000000" fill-opacity="1" transform="matrix(1,0,0,1,5.05,13.314)" id="mark2 l" />
  <path d="M 0 318.93603466112097 L 10 318.93603466112097 L 10 320.43603466112097 L 0 320.43603466112097 Z " stroke="none" fill-rule="evenodd" fill="#000000" fill-opacity="1" transform="matrix(1,0,0,1,5.05,13.314)" id="mark3 l" />
  <path d="M 0 308.94584607796094 L 10 308.94584607796094 L 10 310.44584607796094 L 0 310.44584607796094 Z " stroke="none" fill-rule="evenodd" fill="#000000" fill-opacity="1" transform="matrix(1,0,0,1,5.05,13.314)" id="mark4 l" />
  <path d="M 0 298.9556574948009 L 25 298.9556574948009 L 25 300.4556574948009 L 0 300.4556574948009 Z " stroke="none" fill-rule="evenodd" fill="#000000" fill-opacity="1" transform="matrix(1,0,0,1,5.05,13.314)" id="mark5 l" />
  <path d="M 16.18 296.4576574948009 C 16.174666666666667 296.28432416146757, 16.173333333333332 296.14499082813427, 16.176 296.0396574948009 C 16.178666666666665 295.93432416146754, 16.181333333333335 295.83232416146757, 16.183999999999997 295.7336574948009 L 17.264 295.7336574948009 C 17.256 295.81099082813427, 17.25 295.90699082813427, 17.246 296.02165749480093 C 17.241999999999997 296.1363241614676, 17.240666666666666 296.24699082813424, 17.241999999999997 296.3536574948009 C 17.243333333333332 296.4603241614676, 17.246666666666666 296.5403241614676, 17.252 296.59365749480094 C 17.262666666666668 296.7136574948009, 17.297333333333334 296.8116574948009, 17.355999999999998 296.8876574948009 C 17.414666666666665 296.96365749480094, 17.497333333333334 297.0176574948009, 17.604 297.0496574948009 L 17.604 297.9416574948009 C 17.110666666666663 297.90432416146757, 16.75333333333333 297.7696574948009, 16.532 297.5376574948009 C 16.310666666666666 297.30565749480087, 16.19333333333333 296.9456574948009, 16.18 296.4576574948009 Z M 16.279999999999998 295.1216574948009 L 16.279999999999998 291.47365749480093 L 17.348 291.47365749480093 L 17.348 295.1216574948009 Z M 17.852 294.6976574948009 L 17.852 293.9416574948009 C 17.929333333333332 293.9016574948009, 18.014666666666667 293.8696574948009, 18.107999999999997 293.8456574948009 C 18.20133333333333 293.8216574948009, 18.301333333333332 293.8096574948009, 18.407999999999998 293.8096574948009 C 18.773333333333333 293.8096574948009, 19.047333333333334 293.92499082813424, 19.23 294.1556574948009 C 19.412666666666667 294.38632416146754, 19.514666666666663 294.70032416146756, 19.535999999999998 295.0976574948009 C 19.546666666666667 295.2576574948009, 19.55333333333333 295.41632416146757, 19.555999999999997 295.5736574948009 C 19.558666666666664 295.7309908281342, 19.557333333333332 295.8843241614676, 19.552 296.03365749480093 C 19.546666666666667 296.1829908281343, 19.538666666666668 296.32299082813427, 19.528 296.4536574948009 C 19.482666666666667 296.9523241614676, 19.353333333333335 297.31765749480087, 19.14 297.5496574948009 C 18.926666666666666 297.7816574948009, 18.581333333333333 297.91232416146755, 18.104 297.9416574948009 L 18.104 297.0496574948009 C 18.21333333333333 297.02032416146756, 18.296 296.9676574948009, 18.352 296.8916574948009 C 18.408 296.8156574948009, 18.44 296.7163241614676, 18.448 296.59365749480094 C 18.471999999999998 296.3029908281342, 18.485999999999997 296.0416574948009, 18.49 295.8096574948009 C 18.494 295.5776574948009, 18.485333333333333 295.35632416146757, 18.464 295.1456574948009 C 18.447999999999997 294.9909908281343, 18.396666666666665 294.8756574948009, 18.31 294.7996574948009 C 18.223333333333333 294.72365749480093, 18.090666666666664 294.6856574948009, 17.912 294.6856574948009 C 17.901333333333334 294.6856574948009, 17.890666666666668 294.68699082813424, 17.88 294.6896574948009 C 17.86933333333333 294.6923241614676, 17.86 294.6949908281342, 17.852 294.6976574948009 Z M 17.852 292.4056574948009 L 17.852 291.47365749480093 L 19.439999999999998 291.47365749480093 L 19.439999999999998 292.4056574948009 Z M 21.944 297.8736574948009 L 21.944 291.47365749480093 L 23.003999999999998 291.47365749480093 L 23.003999999999998 297.8736574948009 Z " stroke="none" fill-rule="nonzero" fill="#000000" fill-opacity="1" transform="matrix(1,0,0,1,5.05,13.314)" id="text5 l" />
  <path d="M 0 288.96546891164087 L 10 288.96546891164087 L 10 290.46546891164087 L 0 290.46546891164087 Z " stroke="none" fill-rule="evenodd" fill="#000000" fill-opacity="1" transform="matrix(1,0,0,1,5.05,13.314)" id="mark6 l" />
  <path d="M 0 278.97528032848084 L 10 278.97528032848084 L 10 280.47528032848084 L 0 280.47528032848084 Z " stroke="none" fill-rule="evenodd" fill="#000000" fill-opacity="1" transform="matrix(1,0,0,1,5.05,13.314)" id="mark7 l" />
  <path d="M 0 268.9850917453208 L 10 268.9850917453208 L 10 270.4850917453208 L 0 270.4850917453208 Z " stroke="none" fill-rule="evenodd" fill="#000000" fill-opacity="1" transform="matrix(1,0,0,1,5.05,13.314)" id="mark8 l" />
  <path d="M 0 258.99490316216077 L 10 258.99490316216077 L 10 260.49490316216077 L 0 260.49490316216077 Z " stroke="none" fill-rule="evenodd" fill="#000000" fill-opacity="1" transform="matrix(1,0,0,1,5.05,13.314)" id="mark9 l" />
  <path d="M 0 249.00471457900076 L 25 249.00471457900076 L 25 250.50471457900076 L 0 250.50471457900076 Z " stroke="none" fill-rule="evenodd" fill="#000000" fill-opacity="1" transform="matrix(1,0,0,1,5.05,13.314)" id="mark10 l" />
  <path d="M 14.323999999999998 247.95471457900078 L 14.323999999999998 242.5107145790008 L 13.871999999999998 242.5107145790008 L 13.839999999999998 242.13071457900077 L 14.543999999999999 241.55471457900077 L 15.424 241.55471457900077 L 15.424 247.95471457900078 Z M 16.196 246.54271457900077 C 16.188000000000002 246.11338124566743, 16.182666666666666 245.69671457900074, 16.18 245.29271457900077 C 16.177333333333333 244.88871457900075, 16.177999999999997 244.49338124566742, 16.182 244.10671457900077 C 16.186 243.7200479123341, 16.190666666666665 243.3387145790008, 16.196 242.9627145790008 C 16.209333333333333 242.5227145790008, 16.334000000000003 242.17738124566745, 16.57 241.9267145790008 C 16.805999999999997 241.67604791233413, 17.142666666666663 241.53071457900077, 17.58 241.49071457900078 L 17.58 242.37871457900079 C 17.382666666666665 242.4347145790008, 17.281333333333333 242.5640479123341, 17.276 242.7667145790008 C 17.262666666666668 243.13738124566743, 17.253333333333334 243.48538124566744, 17.248 243.81071457900077 C 17.242666666666665 244.1360479123341, 17.24 244.45271457900077, 17.24 244.7607145790008 C 17.24 245.06871457900078, 17.242666666666665 245.38338124566747, 17.248 245.70471457900078 C 17.253333333333334 246.0260479123341, 17.262666666666668 246.36938124566746, 17.276 246.73471457900078 C 17.281333333333333 246.94271457900078, 17.382666666666665 247.07471457900078, 17.58 247.13071457900077 L 17.58 248.01871457900077 C 17.142666666666663 247.97871457900078, 16.805999999999997 247.83271457900076, 16.57 247.58071457900078 C 16.334000000000003 247.32871457900077, 16.209333333333333 246.98271457900077, 16.196 246.54271457900077 Z M 18.084 248.01871457900077 L 18.084 247.12671457900078 C 18.268 247.07338124566746, 18.366666666666667 246.94938124566744, 18.38 246.7547145790008 C 18.398666666666667 246.2880479123341, 18.410666666666668 245.83938124566743, 18.416 245.4087145790008 C 18.421333333333333 244.9780479123341, 18.421333333333333 244.54738124566745, 18.416 244.11671457900079 C 18.410666666666668 243.68604791233412, 18.398666666666667 243.23338124566743, 18.38 242.75871457900078 C 18.374666666666666 242.5640479123341, 18.276 242.43738124566744, 18.084 242.37871457900079 L 18.084 241.49071457900078 C 18.513333333333335 241.53071457900077, 18.846666666666668 241.67604791233413, 19.084 241.9267145790008 C 19.321333333333335 242.17738124566745, 19.445333333333334 242.5227145790008, 19.456 242.9627145790008 C 19.46666666666667 243.27738124566744, 19.474666666666668 243.58738124566742, 19.48 243.89271457900077 C 19.485333333333333 244.19804791233412, 19.488 244.49871457900076, 19.488 244.79471457900078 C 19.488 245.09071457900075, 19.485333333333333 245.3840479123341, 19.48 245.67471457900078 C 19.474666666666668 245.96538124566746, 19.46666666666667 246.2547145790008, 19.456 246.54271457900077 C 19.439999999999998 246.99338124566745, 19.311999999999998 247.34204791233412, 19.072 247.58871457900077 C 18.832 247.8353812456674, 18.502666666666666 247.97871457900078, 18.084 248.01871457900077 Z M 21.944 247.95471457900078 L 21.944 241.55471457900077 L 23.003999999999998 241.55471457900077 L 23.003999999999998 247.95471457900078 Z " stroke="none" fill-rule="nonzero" fill="#000000" fill-opacity="1" transform="matrix(1,0,0,1,5.05,13.314)" id="text10 l" />
  <path d="M 0 239.01452599584076 L 10 239.01452599584076 L 10 240.51452599584076 L 0 240.51452599584076 Z " stroke="none" fill-rule="evenodd" fill="#000000" fill-opacity="1" transform="matrix(1,0,0,1,5.05,13.314)" id="mark11 l" />
  <path d="M 0 229.02433741268072 L 10 229.02433741268072 L 10 230.52433741268072 L 0 230.52433741268072 Z " stroke="none" fill-rule="evenodd" fill="#000000" fill-opacity="1" transform="matrix(1,0,0,1,5.05,13.314)" id="mark12 l" />
  <path d="M 0 219.0341488295207 L 10 219.0341488295207 L 10 220.5341488295207 L 0 220.5341488295207 Z " stroke="none" fill-rule="evenodd" fill="#000000" fill-opacity="1" transform="matrix(1,0,0,1,5.05,13.314)" id="mark13 l" />
  <path d="M 0 209.04396024636065 L 10 209.04396024636065 L 10 210.54396024636065 L 0 210.54396024636065 Z " stroke="none" fill-rule="evenodd" fill="#000000" fill-opacity="1" transform="matrix(1,0,0,1,5.05,13.314)" id="mark14 l" />
  <path d="M 0 199.05377166320062 L 25 199.05377166320062 L 25 200.55377166320062 L 0 200.55377166320062 Z " stroke="none" fill-rule="evenodd" fill="#000000" fill-opacity="1" transform="matrix(1,0,0,1,5.05,13.314)" id="mark15 l" />
  <path d="M 14.331999999999999 197.97177166320063 L 14.331999999999999 192.52777166320064 L 13.879999999999999 192.52777166320064 L 13.847999999999999 192.14777166320061 L 14.552 191.57177166320062 L 15.432 191.57177166320062 L 15.432 197.97177166320063 Z M 16.18 196.55577166320063 C 16.174666666666667 196.38243832986728, 16.173333333333332 196.243104996534, 16.176 196.13777166320062 C 16.178666666666665 196.03243832986732, 16.181333333333335 195.9304383298673, 16.183999999999997 195.83177166320064 L 17.264 195.83177166320064 C 17.256 195.90910499653398, 17.25 196.005104996534, 17.246 196.11977166320062 C 17.241999999999997 196.23443832986732, 17.240666666666666 196.34510499653396, 17.241999999999997 196.45177166320062 C 17.243333333333332 196.55843832986727, 17.246666666666666 196.63843832986726, 17.252 196.69177166320063 C 17.262666666666668 196.8117716632006, 17.297333333333334 196.90977166320062, 17.355999999999998 196.98577166320064 C 17.414666666666665 197.0617716632006, 17.497333333333334 197.1157716632006, 17.604 197.14777166320061 L 17.604 198.03977166320064 C 17.110666666666663 198.0024383298673, 16.75333333333333 197.8677716632006, 16.532 197.63577166320061 C 16.310666666666666 197.40377166320062, 16.19333333333333 197.04377166320063, 16.18 196.55577166320063 Z M 16.279999999999998 195.21977166320062 L 16.279999999999998 191.57177166320062 L 17.348 191.57177166320062 L 17.348 195.21977166320062 Z M 17.852 194.79577166320064 L 17.852 194.03977166320064 C 17.929333333333332 193.99977166320065, 18.014666666666667 193.9677716632006, 18.107999999999997 193.94377166320064 C 18.20133333333333 193.9197716632006, 18.301333333333332 193.9077716632006, 18.407999999999998 193.90777166320063 C 18.773333333333333 193.9077716632006, 19.047333333333334 194.02310499653396, 19.23 194.25377166320064 C 19.412666666666667 194.4844383298673, 19.514666666666663 194.79843832986728, 19.535999999999998 195.19577166320062 C 19.546666666666667 195.3557716632006, 19.55333333333333 195.5144383298673, 19.555999999999997 195.67177166320062 C 19.558666666666664 195.82910499653394, 19.557333333333332 195.9824383298673, 19.552 196.13177166320062 C 19.546666666666667 196.28110499653394, 19.538666666666668 196.42110499653398, 19.528 196.55177166320064 C 19.482666666666667 197.0504383298673, 19.353333333333335 197.41577166320064, 19.14 197.64777166320061 C 18.926666666666666 197.87977166320064, 18.581333333333333 198.0104383298673, 18.104 198.03977166320064 L 18.104 197.14777166320061 C 18.21333333333333 197.1184383298673, 18.296 197.06577166320062, 18.352 196.98977166320063 C 18.408 196.91377166320063, 18.44 196.8144383298673, 18.448 196.69177166320063 C 18.471999999999998 196.40110499653395, 18.485999999999997 196.13977166320063, 18.49 195.90777166320063 C 18.494 195.67577166320063, 18.485333333333333 195.4544383298673, 18.464 195.24377166320062 C 18.447999999999997 195.08910499653393, 18.396666666666665 194.9737716632006, 18.31 194.89777166320061 C 18.223333333333333 194.82177166320062, 18.090666666666664 194.78377166320064, 17.912 194.78377166320064 C 17.901333333333334 194.78377166320064, 17.890666666666668 194.78510499653396, 17.88 194.78777166320063 C 17.86933333333333 194.7904383298673, 17.86 194.79310499653397, 17.852 194.79577166320064 Z M 17.852 192.50377166320064 L 17.852 191.57177166320062 L 19.439999999999998 191.57177166320062 L 19.439999999999998 192.50377166320064 Z M 21.944 197.97177166320063 L 21.944 191.57177166320062 L 23.003999999999998 191.57177166320062 L 23.003999999999998 197.97177166320063 Z " stroke="none" fill-rule="nonzero" fill="#000000" fill-opacity="1" transform="matrix(1,0,0,1,5.05,13.314)" id="text15 l" />
  <path d="M 0 189.0635830800406 L 10 189.0635830800406 L 10 190.5635830800406 L 0 190.5635830800406 Z " stroke="none" fill-rule="evenodd" fill="#000000" fill-opacity="1" transform="matrix(1,0,0,1,5.05,13.314)" id="mark16 l" />
  <path d="M 0 179.07339449688055 L 10 179.07339449688055 L 10 180.57339449688055 L 0 180.57339449688055 Z " stroke="none" fill-rule="evenodd" fill="#000000" fill-opacity="1" transform="matrix(1,0,0,1,5.05,13.314)" id="mark17 l" />
  <path d="M 0 169.08320591372052 L 10 169.08320591372052 L 10 170.58320591372052 L 0 170.58320591372052 Z " stroke="none" fill-rule="evenodd" fill="#000000" fill-opacity="1" transform="matrix(1,0,0,1,5.05,13.314)" id="mark18 l" />
  <path d="M 0 159.09301733056049 L 10 159.09301733056049 L 10 160.59301733056049 L 0 160.59301733056049 Z " stroke="none" fill-rule="evenodd" fill="#000000" fill-opacity="1" transform="matrix(1,0,0,1,5.05,13.314)" id="mark19 l" />
  <path d="M 0 149.10282874740045 L 25 149.10282874740045 L 25 150.60282874740045 L 0 150.60282874740045 Z " stroke="none" fill-rule="evenodd" fill="#000000" fill-opacity="1" transform="matrix(1,0,0,1,5.05,13.314)" id="mark20 l" />
  <path d="M 12.319999999999999 148.05282874740047 C 12.317333333333334 147.9541620807338, 12.315333333333331 147.86549541406714, 12.313999999999998 147.78682874740048 C 12.312666666666665 147.7081620807338, 12.311333333333334 147.6341620807338, 12.309999999999999 147.56482874740047 C 12.308666666666667 147.49549541406714, 12.308 147.42349541406713, 12.308 147.34882874740046 C 12.308 147.2741620807338, 12.308 147.18949541406712, 12.308 147.09482874740047 C 12.308 147.00016208073382, 12.309333333333335 146.88882874740048, 12.312 146.76082874740047 C 12.32 146.46749541406714, 12.37 146.20549541406714, 12.462 145.97482874740047 C 12.554 145.7441620807338, 12.687999999999999 145.5381620807338, 12.863999999999999 145.35682874740047 C 13.04 145.17549541406714, 13.257333333333333 145.0141620807338, 13.515999999999998 144.87282874740046 L 14.047999999999998 144.58482874740048 C 14.234666666666666 144.48349541406714, 14.354 144.36149541406712, 14.405999999999999 144.21882874740047 C 14.457999999999998 144.0761620807338, 14.488 143.9421620807338, 14.495999999999999 143.81682874740048 C 14.506666666666664 143.6701620807338, 14.512666666666664 143.51349541406714, 14.514 143.34682874740048 C 14.51533333333333 143.18016208073382, 14.511999999999997 143.02349541406716, 14.504 142.87682874740048 C 14.498666666666665 142.77282874740047, 14.468666666666666 142.68682874740045, 14.413999999999998 142.61882874740047 C 14.359333333333332 142.5508287474005, 14.279999999999998 142.5021620807338, 14.175999999999998 142.47282874740046 L 14.175999999999998 141.58482874740048 C 14.663999999999998 141.6168287474005, 15.014 141.7481620807338, 15.225999999999999 141.97882874740046 C 15.437999999999999 142.20949541406713, 15.554666666666666 142.57016208073378, 15.575999999999999 143.06082874740048 C 15.578666666666663 143.1248287474005, 15.580666666666666 143.1901620807338, 15.581999999999999 143.25682874740048 C 15.583333333333332 143.32349541406714, 15.584 143.38816208073382, 15.584 143.45082874740046 C 15.584 143.5134954140671, 15.583333333333332 143.57549541406712, 15.581999999999999 143.63682874740047 C 15.580666666666666 143.6981620807338, 15.578666666666663 143.7581620807338, 15.575999999999999 143.81682874740048 C 15.565333333333331 144.10216208073382, 15.512 144.34882874740046, 15.415999999999999 144.55682874740046 C 15.32 144.76482874740046, 15.19 144.94482874740046, 15.026 145.09682874740048 C 14.862 145.24882874740047, 14.672 145.38482874740046, 14.456 145.50482874740047 L 13.851999999999999 145.83282874740047 C 13.737333333333332 145.8941620807338, 13.647333333333332 145.9781620807338, 13.581999999999999 146.08482874740048 C 13.516666666666666 146.19149541406713, 13.469999999999999 146.30482874740045, 13.441999999999998 146.42482874740045 C 13.413999999999998 146.54482874740046, 13.399999999999999 146.65682874740045, 13.399999999999999 146.76082874740047 L 13.399999999999999 148.05282874740047 Z M 12.328 144.01282874740048 C 12.322666666666667 143.89549541406714, 12.318666666666665 143.78082874740048, 12.315999999999999 143.66882874740048 C 12.313333333333333 143.5568287474005, 12.311333333333334 143.45082874740046, 12.309999999999999 143.35082874740047 C 12.308666666666667 143.25082874740048, 12.309333333333335 143.15416208073378, 12.312 143.06082874740048 C 12.330666666666666 142.57282874740048, 12.447333333333333 142.21349541406715, 12.661999999999999 141.98282874740048 C 12.876666666666665 141.7521620807338, 13.213333333333331 141.61949541406713, 13.671999999999999 141.58482874740048 L 13.671999999999999 142.47682874740048 C 13.576 142.5061620807338, 13.505333333333333 142.55282874740047, 13.459999999999999 142.61682874740046 C 13.414666666666665 142.68082874740045, 13.390666666666664 142.7581620807338, 13.387999999999998 142.84882874740046 C 13.382666666666665 143.05682874740046, 13.379333333333333 143.25016208073382, 13.378 143.42882874740047 C 13.376666666666667 143.60749541406713, 13.381333333333334 143.8021620807338, 13.392 144.01282874740048 Z M 13.904 148.05282874740047 L 13.904 147.12082874740048 L 15.5 147.12082874740048 L 15.5 148.05282874740047 Z M 16.196 146.64082874740046 C 16.188000000000002 146.21149541406714, 16.182666666666666 145.79482874740046, 16.18 145.39082874740046 C 16.177333333333333 144.98682874740047, 16.177999999999997 144.59149541406714, 16.182 144.20482874740046 C 16.186 143.8181620807338, 16.190666666666665 143.43682874740045, 16.196 143.06082874740048 C 16.209333333333333 142.62082874740048, 16.334000000000003 142.27549541406714, 16.57 142.02482874740048 C 16.805999999999997 141.77416208073382, 17.142666666666663 141.62882874740046, 17.58 141.58882874740047 L 17.58 142.47682874740048 C 17.382666666666665 142.5328287474005, 17.281333333333333 142.66216208073382, 17.276 142.86482874740048 C 17.262666666666668 143.23549541406715, 17.253333333333334 143.58349541406713, 17.248 143.90882874740046 C 17.242666666666665 144.2341620807338, 17.24 144.5508287474005, 17.24 144.85882874740048 C 17.24 145.16682874740047, 17.242666666666665 145.48149541406713, 17.248 145.80282874740047 C 17.253333333333334 146.1241620807338, 17.262666666666668 146.46749541406714, 17.276 146.83282874740047 C 17.281333333333333 147.04082874740047, 17.382666666666665 147.17282874740047, 17.58 147.22882874740046 L 17.58 148.11682874740046 C 17.142666666666663 148.07682874740047, 16.805999999999997 147.93082874740048, 16.57 147.67882874740047 C 16.334000000000003 147.42682874740046, 16.209333333333333 147.08082874740046, 16.196 146.64082874740046 Z M 18.084 148.11682874740046 L 18.084 147.22482874740047 C 18.268 147.17149541406715, 18.366666666666667 147.04749541406716, 18.38 146.85282874740048 C 18.398666666666667 146.3861620807338, 18.410666666666668 145.93749541406714, 18.416 145.50682874740048 C 18.421333333333333 145.0761620807338, 18.421333333333333 144.64549541406714, 18.416 144.21482874740047 C 18.410666666666668 143.7841620807338, 18.398666666666667 143.33149541406712, 18.38 142.85682874740047 C 18.374666666666666 142.6621620807338, 18.276 142.53549541406713, 18.084 142.47682874740048 L 18.084 141.58882874740047 C 18.513333333333335 141.62882874740046, 18.846666666666668 141.77416208073382, 19.084 142.02482874740048 C 19.321333333333335 142.27549541406714, 19.445333333333334 142.62082874740048, 19.456 143.06082874740048 C 19.46666666666667 143.37549541406713, 19.474666666666668 143.68549541406713, 19.48 143.99082874740046 C 19.485333333333333 144.29616208073378, 19.488 144.59682874740045, 19.488 144.89282874740047 C 19.488 145.18882874740046, 19.485333333333333 145.48216208073381, 19.48 145.77282874740047 C 19.474666666666668 146.06349541406712, 19.46666666666667 146.35282874740045, 19.456 146.64082874740046 C 19.439999999999998 147.09149541406714, 19.311999999999998 147.4401620807338, 19.072 147.68682874740045 C 18.832 147.93349541406712, 18.502666666666666 148.07682874740047, 18.084 148.11682874740046 Z M 21.944 148.05282874740047 L 21.944 141.65282874740046 L 23.003999999999998 141.65282874740046 L 23.003999999999998 148.05282874740047 Z " stroke="none" fill-rule="nonzero" fill="#000000" fill-opacity="1" transform="matrix(1,0,0,1,5.05,13.314)" id="text20 l" />
  <path d="M 0 139.11264016424045 L 10 139.11264016424045 L 10 140.61264016424045 L 0 140.61264016424045 Z " stroke="none" fill-rule="evenodd" fill="#000000" fill-opacity="1" transform="matrix(1,0,0,1,5.05,13.314)" id="mark21 l" />
  <path d="M 0 129.1224515810804 L 10 129.1224515810804 L 10 130.6224515810804 L 0 130.6224515810804 Z " stroke="none" fill-rule="evenodd" fill="#000000" fill-opacity="1" transform="matrix(1,0,0,1,5.05,13.314)" id="mark22 l" />
  <path d="M 0 119.13226299792038 L 10 119.13226299792038 L 10 120.63226299792038 L 0 120.63226299792038 Z " stroke="none" fill-rule="evenodd" fill="#000000" fill-opacity="1" transform="matrix(1,0,0,1,5.05,13.314)" id="mark23 l" />
  <path d="M 0 109.14207441476034 L 10 109.14207441476034 L 10 110.64207441476034 L 0 110.64207441476034 Z " stroke="none" fill-rule="evenodd" fill="#000000" fill-opacity="1" transform="matrix(1,0,0,1,5.05,13.314)" id="mark24 l" />
  <path d="M 0 99.15188583160031 L 25 99.15188583160031 L 25 100.65188583160031 L 0 100.65188583160031 Z " stroke="none" fill-rule="evenodd" fill="#000000" fill-opacity="1" transform="matrix(1,0,0,1,5.05,13.314)" id="mark25 l" />
  <path d="M 12.328 98.10188583160031 C 12.325333333333333 98.00321916493365, 12.323333333333332 97.91455249826697, 12.322 97.83588583160031 C 12.320666666666666 97.75721916493364, 12.319333333333333 97.68321916493363, 12.318 97.61388583160031 C 12.316666666666666 97.54455249826697, 12.315999999999999 97.47255249826698, 12.316 97.39788583160032 C 12.315999999999999 97.32321916493365, 12.315999999999999 97.23855249826698, 12.316 97.14388583160031 C 12.315999999999999 97.04921916493365, 12.317333333333334 96.93788583160031, 12.32 96.80988583160031 C 12.328 96.51655249826698, 12.378 96.25455249826697, 12.47 96.02388583160031 C 12.562000000000001 95.79321916493365, 12.696 95.58721916493364, 12.872 95.40588583160032 C 13.048 95.22455249826697, 13.265333333333334 95.06321916493364, 13.524000000000001 94.9218858316003 L 14.056000000000001 94.63388583160031 C 14.242666666666668 94.53255249826697, 14.362000000000002 94.41055249826698, 14.414 94.26788583160031 C 14.466000000000001 94.12521916493364, 14.495999999999999 93.99121916493365, 14.504 93.86588583160031 C 14.514666666666667 93.71921916493363, 14.520666666666667 93.56255249826697, 14.522 93.39588583160031 C 14.523333333333333 93.22921916493365, 14.520000000000001 93.07255249826699, 14.512 92.92588583160031 C 14.506666666666666 92.82188583160033, 14.476666666666667 92.73588583160031, 14.422 92.66788583160032 C 14.367333333333335 92.59988583160032, 14.288 92.55121916493364, 14.184000000000001 92.52188583160031 L 14.184000000000001 91.63388583160031 C 14.672 91.66588583160032, 15.022000000000002 91.79721916493365, 15.234 92.02788583160032 C 15.446000000000002 92.25855249826698, 15.562666666666667 92.61921916493365, 15.584 93.10988583160031 C 15.586666666666668 93.17388583160032, 15.588666666666668 93.23921916493364, 15.59 93.3058858316003 C 15.591333333333335 93.37255249826697, 15.592000000000002 93.43721916493365, 15.592 93.49988583160031 C 15.592000000000002 93.56255249826698, 15.591333333333335 93.62455249826698, 15.59 93.68588583160032 C 15.588666666666668 93.74721916493365, 15.586666666666668 93.80721916493366, 15.584 93.86588583160031 C 15.573333333333332 94.15121916493365, 15.52 94.39788583160032, 15.424 94.60588583160032 C 15.328 94.81388583160032, 15.197999999999999 94.99388583160031, 15.033999999999999 95.14588583160031 C 14.87 95.29788583160031, 14.68 95.43388583160032, 14.464 95.55388583160031 L 13.86 95.88188583160031 C 13.745333333333335 95.94321916493365, 13.655333333333335 96.02721916493365, 13.59 96.13388583160031 C 13.524666666666668 96.24055249826698, 13.478000000000002 96.35388583160031, 13.45 96.47388583160031 C 13.422 96.59388583160032, 13.408 96.70588583160031, 13.408 96.80988583160031 L 13.408 98.10188583160031 Z M 12.336 94.0618858316003 C 12.330666666666666 93.94455249826699, 12.326666666666664 93.82988583160032, 12.324 93.71788583160031 C 12.321333333333332 93.6058858316003, 12.319333333333333 93.49988583160031, 12.318 93.39988583160032 C 12.316666666666666 93.2998858316003, 12.317333333333334 93.20321916493364, 12.32 93.10988583160031 C 12.338666666666668 92.62188583160031, 12.455333333333336 92.26255249826698, 12.67 92.0318858316003 C 12.884666666666668 91.80121916493366, 13.221333333333334 91.66855249826699, 13.68 91.63388583160031 L 13.68 92.52588583160032 C 13.584 92.55521916493365, 13.513333333333332 92.60188583160031, 13.468 92.66588583160032 C 13.422666666666668 92.72988583160031, 13.398666666666667 92.80721916493366, 13.396 92.89788583160032 C 13.390666666666666 93.10588583160032, 13.387333333333332 93.29921916493365, 13.386 93.47788583160032 C 13.384666666666666 93.65655249826699, 13.389333333333333 93.85121916493365, 13.4 94.0618858316003 Z M 13.911999999999999 98.10188583160031 L 13.911999999999999 97.16988583160031 L 15.508 97.16988583160031 L 15.508 98.10188583160031 Z M 16.18 96.68588583160032 C 16.174666666666667 96.51255249826698, 16.173333333333332 96.37321916493363, 16.176 96.26788583160031 C 16.178666666666665 96.16255249826696, 16.181333333333335 96.06055249826697, 16.183999999999997 95.96188583160031 L 17.264 95.96188583160031 C 17.256 96.03921916493364, 17.25 96.13521916493363, 17.246 96.24988583160031 C 17.241999999999997 96.36455249826696, 17.240666666666666 96.47521916493363, 17.241999999999997 96.58188583160032 C 17.243333333333332 96.68855249826697, 17.246666666666666 96.76855249826698, 17.252 96.82188583160031 C 17.262666666666668 96.94188583160033, 17.297333333333334 97.03988583160032, 17.355999999999998 97.11588583160031 C 17.414666666666665 97.1918858316003, 17.497333333333334 97.2458858316003, 17.604 97.27788583160032 L 17.604 98.16988583160031 C 17.110666666666663 98.13255249826699, 16.75333333333333 97.99788583160031, 16.532 97.76588583160031 C 16.310666666666666 97.53388583160032, 16.19333333333333 97.17388583160033, 16.18 96.68588583160032 Z M 16.279999999999998 95.34988583160032 L 16.279999999999998 91.70188583160031 L 17.348 91.70188583160031 L 17.348 95.34988583160032 Z M 17.852 94.92588583160031 L 17.852 94.16988583160031 C 17.929333333333332 94.1298858316003, 18.014666666666667 94.09788583160031, 18.107999999999997 94.07388583160031 C 18.20133333333333 94.0498858316003, 18.301333333333332 94.0378858316003, 18.407999999999998 94.0378858316003 C 18.773333333333333 94.0378858316003, 19.047333333333334 94.15321916493365, 19.23 94.38388583160031 C 19.412666666666667 94.61455249826697, 19.514666666666663 94.92855249826698, 19.535999999999998 95.32588583160032 C 19.546666666666667 95.48588583160031, 19.55333333333333 95.64455249826698, 19.555999999999997 95.80188583160032 C 19.558666666666664 95.95921916493364, 19.557333333333332 96.11255249826698, 19.552 96.26188583160031 C 19.546666666666667 96.41121916493364, 19.538666666666668 96.55121916493366, 19.528 96.68188583160031 C 19.482666666666667 97.18055249826699, 19.353333333333335 97.54588583160032, 19.14 97.77788583160032 C 18.926666666666666 98.00988583160031, 18.581333333333333 98.14055249826697, 18.104 98.16988583160031 L 18.104 97.27788583160032 C 18.21333333333333 97.24855249826697, 18.296 97.19588583160032, 18.352 97.11988583160031 C 18.408 97.0438858316003, 18.44 96.94455249826697, 18.448 96.82188583160031 C 18.471999999999998 96.53121916493365, 18.485999999999997 96.2698858316003, 18.49 96.0378858316003 C 18.494 95.8058858316003, 18.485333333333333 95.58455249826699, 18.464 95.37388583160032 C 18.447999999999997 95.21921916493366, 18.396666666666665 95.10388583160032, 18.31 95.02788583160032 C 18.223333333333333 94.95188583160031, 18.090666666666664 94.91388583160031, 17.912 94.91388583160031 C 17.901333333333334 94.91388583160031, 17.890666666666668 94.91521916493365, 17.88 94.91788583160032 C 17.86933333333333 94.92055249826697, 17.86 94.92321916493364, 17.852 94.92588583160031 Z M 17.852 92.63388583160031 L 17.852 91.70188583160031 L 19.439999999999998 91.70188583160031 L 19.439999999999998 92.63388583160031 Z M 21.944 98.10188583160031 L 21.944 91.70188583160031 L 23.003999999999998 91.70188583160031 L 23.003999999999998 98.10188583160031 Z " stroke="none" fill-rule="nonzero" fill="#000000" fill-opacity="1" transform="matrix(1,0,0,1,5.05,13.314)" id="text25 l" />
  <path d="M 0 89.1616972484403 L 10 89.1616972484403 L 10 90.6616972484403 L 0 90.6616972484403 Z " stroke="none" fill-rule="evenodd" fill="#000000" fill-opacity="1" transform="matrix(1,0,0,1,5.05,13.314)" id="mark26 l" />
  <path d="M 0 79.17150866528027 L 10 79.17150866528027 L 10 80.67150866528027 L 0 80.67150866528027 Z " stroke="none" fill-rule="evenodd" fill="#000000" fill-opacity="1" transform="matrix(1,0,0,1,5.05,13.314)" id="mark27 l" />
  <path d="M 0 69.18132008212024 L 10 69.18132008212024 L 10 70.68132008212024 L 0 70.68132008212024 Z " stroke="none" fill-rule="evenodd" fill="#000000" fill-opacity="1" transform="matrix(1,0,0,1,5.05,13.314)" id="mark28 l" />
  <path d="M 0 59.1911314989602 L 10 59.1911314989602 L 10 60.6911314989602 L 0 60.6911314989602 Z " stroke="none" fill-rule="evenodd" fill="#000000" fill-opacity="1" transform="matrix(1,0,0,1,5.05,13.314)" id="mark29 l" />
  <path d="M 0 49.20094291580017 L 25 49.20094291580017 L 25 50.70094291580017 L 0 50.70094291580017 Z " stroke="none" fill-rule="evenodd" fill="#000000" fill-opacity="1" transform="matrix(1,0,0,1,5.05,13.314)" id="mark30 l" />
  <path d="M 12.223999999999998 46.734942915800175 C 12.221333333333334 46.63360958246684, 12.219333333333333 46.54960958246684, 12.218 46.48294291580017 C 12.216666666666667 46.4162762491335, 12.216666666666667 46.348276249133505, 12.218 46.27894291580017 C 12.219333333333333 46.20960958246684, 12.221333333333334 46.120276249133504, 12.223999999999998 46.01094291580017 L 13.303999999999998 46.01094291580017 L 13.303999999999998 46.87494291580017 C 13.303999999999998 47.1122762491335, 13.417333333333332 47.262942915800174, 13.643999999999998 47.326942915800174 L 13.643999999999998 48.21894291580017 C 13.155999999999999 48.18160958246684, 12.800666666666665 48.04694291580017, 12.578 47.814942915800174 C 12.355333333333334 47.582942915800174, 12.237333333333332 47.222942915800175, 12.223999999999998 46.734942915800175 Z M 12.292 42.68294291580017 L 12.292 41.750942915800174 L 15.536 41.750942915800174 L 15.536 42.68294291580017 Z M 14.143999999999998 47.33094291580017 C 14.367999999999999 47.27494291580017, 14.483999999999998 47.1242762491335, 14.491999999999999 46.878942915800174 C 14.497333333333334 46.67627624913351, 14.500666666666666 46.49360958246684, 14.501999999999999 46.33094291580017 C 14.503333333333332 46.168276249133505, 14.498666666666665 46.01094291580017, 14.488 45.85894291580017 C 14.48 45.70160958246684, 14.431999999999999 45.568276249133504, 14.344 45.45894291580017 C 14.256 45.34960958246684, 14.089333333333332 45.29760958246684, 13.844 45.30294291580017 L 13.096 45.31094291580017 L 13.068 44.41894291580017 L 14.027999999999999 43.03494291580017 L 15.216 43.03494291580017 L 14.248 44.38694291580017 L 14.28 44.38694291580017 C 14.712 44.38694291580017, 15.028666666666666 44.50960958246684, 15.229999999999999 44.75494291580017 C 15.431333333333333 45.000276249133506, 15.544 45.37760958246684, 15.568 45.88694291580017 C 15.57333333333333 45.95894291580017, 15.576666666666664 46.030942915800175, 15.578 46.10294291580017 C 15.57933333333333 46.17494291580017, 15.579999999999998 46.24560958246684, 15.579999999999998 46.314942915800174 C 15.579999999999998 46.38427624913351, 15.57933333333333 46.45360958246684, 15.578 46.52294291580017 C 15.576666666666664 46.592276249133505, 15.57333333333333 46.66294291580017, 15.568 46.734942915800175 C 15.549333333333333 47.23094291580018, 15.428666666666665 47.59560958246684, 15.206 47.82894291580017 C 14.983333333333334 48.062276249133504, 14.630666666666666 48.192276249133506, 14.148 48.21894291580017 Z M 16.196 46.73894291580017 C 16.188000000000002 46.30960958246684, 16.182666666666666 45.89294291580018, 16.18 45.48894291580017 C 16.177333333333333 45.08494291580017, 16.177999999999997 44.68960958246684, 16.182 44.30294291580017 C 16.186 43.91627624913351, 16.190666666666665 43.53494291580017, 16.196 43.158942915800175 C 16.209333333333333 42.71894291580017, 16.334000000000003 42.37360958246684, 16.57 42.122942915800174 C 16.805999999999997 41.872276249133506, 17.142666666666663 41.72694291580017, 17.58 41.686942915800174 L 17.58 42.57494291580017 C 17.382666666666665 42.630942915800176, 17.281333333333333 42.760276249133504, 17.276 42.96294291580017 C 17.262666666666668 43.33360958246684, 17.253333333333334 43.68160958246684, 17.248 44.006942915800174 C 17.242666666666665 44.33227624913351, 17.24 44.64894291580018, 17.24 44.95694291580017 C 17.24 45.26494291580018, 17.242666666666665 45.579609582466844, 17.248 45.90094291580017 C 17.253333333333334 46.2222762491335, 17.262666666666668 46.565609582466834, 17.276 46.93094291580017 C 17.281333333333333 47.13894291580017, 17.382666666666665 47.27094291580017, 17.58 47.326942915800174 L 17.58 48.21494291580017 C 17.142666666666663 48.17494291580017, 16.805999999999997 48.028942915800165, 16.57 47.77694291580017 C 16.334000000000003 47.52494291580017, 16.209333333333333 47.17894291580017, 16.196 46.73894291580017 Z M 18.084 48.21494291580017 L 18.084 47.32294291580017 C 18.268 47.269609582466835, 18.366666666666667 47.14560958246684, 18.38 46.95094291580017 C 18.398666666666667 46.48427624913351, 18.410666666666668 46.03560958246684, 18.416 45.60494291580017 C 18.421333333333333 45.174276249133506, 18.421333333333333 44.74360958246684, 18.416 44.31294291580017 C 18.410666666666668 43.882276249133504, 18.398666666666667 43.42960958246684, 18.38 42.954942915800174 C 18.374666666666666 42.76027624913351, 18.276 42.63360958246684, 18.084 42.57494291580017 L 18.084 41.686942915800174 C 18.513333333333335 41.72694291580017, 18.846666666666668 41.872276249133506, 19.084 42.122942915800174 C 19.321333333333335 42.37360958246684, 19.445333333333334 42.71894291580017, 19.456 43.158942915800175 C 19.46666666666667 43.47360958246684, 19.474666666666668 43.78360958246684, 19.48 44.088942915800175 C 19.485333333333333 44.39427624913351, 19.488 44.694942915800176, 19.488 44.990942915800176 C 19.488 45.286942915800175, 19.485333333333333 45.580276249133505, 19.48 45.87094291580017 C 19.474666666666668 46.16160958246684, 19.46666666666667 46.45094291580017, 19.456 46.73894291580017 C 19.439999999999998 47.189609582466844, 19.311999999999998 47.5382762491335, 19.072 47.78494291580017 C 18.832 48.031609582466835, 18.502666666666666 48.17494291580017, 18.084 48.21494291580017 Z M 21.944 48.15094291580017 L 21.944 41.750942915800174 L 23.003999999999998 41.750942915800174 L 23.003999999999998 48.15094291580017 Z " stroke="none" fill-rule="nonzero" fill="#000000" fill-opacity="1" transform="matrix(1,0,0,1,5.05,13.314)" id="text30 l" />
  <path d="M 0 39.210754332640136 L 10 39.210754332640136 L 10 40.710754332640136 L 0 40.710754332640136 Z " stroke="none" fill-rule="evenodd" fill="#000000" fill-opacity="1" transform="matrix(1,0,0,1,5.05,13.314)" id="mark31 l" />
  <path d="M 0 29.2205657494801 L 10 29.2205657494801 L 10 30.7205657494801 L 0 30.7205657494801 Z " stroke="none" fill-rule="evenodd" fill="#000000" fill-opacity="1" transform="matrix(1,0,0,1,5.05,13.314)" id="mark32 l" />
  <path d="M 0 19.230377166320068 L 10 19.230377166320068 L 10 20.730377166320068 L 0 20.730377166320068 Z " stroke="none" fill-rule="evenodd" fill="#000000" fill-opacity="1" transform="matrix(1,0,0,1,5.05,13.314)" id="mark33 l" />
  <path d="M 0 9.240188583160034 L 10 9.240188583160034 L 10 10.740188583160034 L 0 10.740188583160034 Z " stroke="none" fill-rule="evenodd" fill="#000000" fill-opacity="1" transform="matrix(1,0,0,1,5.05,13.314)" id="mark34 l" />
  <path d="M 0 -0.75 L 25 -0.75 L 25 0.75 L 0 0.75 Z " stroke="none" fill-rule="evenodd" fill="#000000" fill-opacity="1" transform="matrix(1,0,0,1,5.05,13.314)" id="mark35 l" />
  <path d="M 12.232 -3.2479999999999998 C 12.229333333333333 -3.349333333333333, 12.227333333333334 -3.4333333333333336, 12.226 -3.5 C 12.224666666666668 -3.5666666666666664, 12.224666666666668 -3.6346666666666665, 12.226 -3.7039999999999997 C 12.227333333333334 -3.773333333333333, 12.229333333333333 -3.8626666666666667, 12.232 -3.972 L 13.312 -3.972 L 13.312 -3.1079999999999997 C 13.312 -2.8706666666666663, 13.425333333333333 -2.7199999999999998, 13.652 -2.6559999999999997 L 13.652 -1.7639999999999998 C 13.164 -1.801333333333333, 12.808666666666667 -1.9359999999999997, 12.586 -2.1679999999999997 C 12.363333333333333 -2.4, 12.245333333333335 -2.76, 12.232 -3.2479999999999998 Z M 12.3 -7.3 L 12.3 -8.232 L 15.544 -8.232 L 15.544 -7.3 Z M 14.152000000000001 -2.6519999999999997 C 14.376000000000001 -2.7079999999999997, 14.492 -2.8586666666666662, 14.5 -3.104 C 14.505333333333333 -3.3066666666666666, 14.508666666666667 -3.489333333333333, 14.51 -3.652 C 14.511333333333333 -3.8146666666666667, 14.506666666666668 -3.9719999999999995, 14.496 -4.124 C 14.488 -4.2813333333333325, 14.440000000000001 -4.414666666666666, 14.352 -4.524 C 14.264 -4.633333333333333, 14.097333333333335 -4.685333333333333, 13.852 -4.68 L 13.104 -4.672 L 13.076 -5.564 L 14.036 -6.9479999999999995 L 15.224 -6.9479999999999995 L 14.256 -5.596 L 14.288 -5.596 C 14.719999999999999 -5.596, 15.036666666666665 -5.473333333333333, 15.238 -5.228 C 15.439333333333334 -4.982666666666667, 15.552 -4.605333333333333, 15.576 -4.096 C 15.581333333333333 -4.024, 15.584666666666667 -3.952, 15.586 -3.88 C 15.587333333333333 -3.808, 15.588000000000001 -3.737333333333333, 15.588000000000001 -3.6679999999999997 C 15.588000000000001 -3.5986666666666665, 15.587333333333333 -3.529333333333333, 15.586 -3.46 C 15.584666666666667 -3.3906666666666667, 15.581333333333333 -3.3200000000000003, 15.576 -3.2479999999999998 C 15.557333333333334 -2.752, 15.436666666666667 -2.3873333333333333, 15.214 -2.154 C 14.991333333333333 -1.9206666666666665, 14.638666666666666 -1.7906666666666666, 14.156 -1.7639999999999998 Z M 16.18 -3.2479999999999998 C 16.174666666666667 -3.421333333333333, 16.173333333333332 -3.5606666666666666, 16.176 -3.666 C 16.178666666666665 -3.771333333333333, 16.181333333333335 -3.873333333333333, 16.183999999999997 -3.972 L 17.264 -3.972 C 17.256 -3.8946666666666667, 17.25 -3.7986666666666666, 17.246 -3.6839999999999997 C 17.241999999999997 -3.569333333333333, 17.240666666666666 -3.4586666666666663, 17.241999999999997 -3.352 C 17.243333333333332 -3.2453333333333334, 17.246666666666666 -3.1653333333333338, 17.252 -3.112 C 17.262666666666668 -2.992, 17.297333333333334 -2.8939999999999997, 17.355999999999998 -2.8179999999999996 C 17.414666666666665 -2.7419999999999995, 17.497333333333334 -2.6879999999999997, 17.604 -2.6559999999999997 L 17.604 -1.7639999999999998 C 17.110666666666663 -1.801333333333333, 16.75333333333333 -1.9359999999999997, 16.532 -2.1679999999999997 C 16.310666666666666 -2.4, 16.19333333333333 -2.76, 16.18 -3.2479999999999998 Z M 16.279999999999998 -4.584 L 16.279999999999998 -8.232 L 17.348 -8.232 L 17.348 -4.584 Z M 17.852 -5.008 L 17.852 -5.763999999999999 C 17.929333333333332 -5.804, 18.014666666666667 -5.836, 18.107999999999997 -5.86 C 18.20133333333333 -5.884, 18.301333333333332 -5.896, 18.407999999999998 -5.896 C 18.773333333333333 -5.896, 19.047333333333334 -5.780666666666667, 19.23 -5.55 C 19.412666666666667 -5.319333333333333, 19.514666666666663 -5.005333333333333, 19.535999999999998 -4.608 C 19.546666666666667 -4.448, 19.55333333333333 -4.289333333333333, 19.555999999999997 -4.132 C 19.558666666666664 -3.974666666666667, 19.557333333333332 -3.8213333333333335, 19.552 -3.6719999999999997 C 19.546666666666667 -3.522666666666667, 19.538666666666668 -3.3826666666666663, 19.528 -3.252 C 19.482666666666667 -2.753333333333333, 19.353333333333335 -2.388, 19.14 -2.1559999999999997 C 18.926666666666666 -1.9239999999999997, 18.581333333333333 -1.793333333333333, 18.104 -1.7639999999999998 L 18.104 -2.6559999999999997 C 18.21333333333333 -2.685333333333333, 18.296 -2.738, 18.352 -2.814 C 18.408 -2.89, 18.44 -2.9893333333333336, 18.448 -3.112 C 18.471999999999998 -3.4026666666666667, 18.485999999999997 -3.664, 18.49 -3.896 C 18.494 -4.128, 18.485333333333333 -4.349333333333333, 18.464 -4.5600000000000005 C 18.447999999999997 -4.714666666666667, 18.396666666666665 -4.83, 18.31 -4.906 C 18.223333333333333 -4.981999999999999, 18.090666666666664 -5.02, 17.912 -5.02 C 17.901333333333334 -5.02, 17.890666666666668 -5.018666666666666, 17.88 -5.016 C 17.86933333333333 -5.013333333333334, 17.86 -5.010666666666667, 17.852 -5.008 Z M 17.852 -7.3 L 17.852 -8.232 L 19.439999999999998 -8.232 L 19.439999999999998 -7.3 Z M 21.944 -1.8319999999999999 L 21.944 -8.232 L 23.003999999999998 -8.232 L 23.003999999999998 -1.8319999999999999 Z " stroke="none" fill-rule="nonzero" fill="#000000" fill-opacity="1" transform="matrix(1,0,0,1,5.05,13.314)" id="text35 l" />
  <path d="M -5 -13.264 L 30 -13.264 L 30 346.402411827441 L -5 346.402411827441 Z " stroke="#FF0000" stroke-opacity="1" stroke-width="0.1" stroke-linecap="butt" stroke-linejoin="miter" fill="none" transform="matrix(1,0,0,1,5.05,13.314)" />
</svg>