<?xml version="1.0" encoding="UTF-8"?>
<svg xmlns:xlink="http://www.w3.org/1999/xlink" viewBox="0 0 35.1 328.56150647632495" version="1.1" style="font-synthesis: none;" width="35.1mm" height="328.56150647632495mm" xmlns="http://www.w3.org/2000/svg">
  <defs />
  <style>	</style>
  <path d="M 0 0 L 35.1 0 L 35.1 328.56150647632495 L 0 328.56150647632495 Z " stroke="none" fill-rule="nonzero" fill="#FFFFFF" fill-opacity="1" transform="matrix(1,0,0,1,0,0)" />
  <path d="M 0 307.67950647632495 L 10 307.67950647632495 L 10 309.17950647632495 L 0 309.17950647632495 Z " stroke="none" fill-rule="evenodd" fill="#000000" fill-opacity="1" transform="matrix(1,0,0,1,5.05,13.314)" id="mark1 l" />
  <path d="M 0 297.04400625300343 L 10 297.04400625300343 L 10 298.54400625300343 L 0 298.54400625300343 Z " stroke="none" fill-rule="evenodd" fill="#000000" fill-opacity="1" transform="matrix(1,0,0,1,5.05,13.314)" id="mark2 l" />
  <path d="M 0 286.40850602968186 L 10 286.40850602968186 L 10 287.90850602968186 L 0 287.90850602968186 Z " stroke="none" fill-rule="evenodd" fill="#000000" fill-opacity="1" transform="matrix(1,0,0,1,5.05,13.314)" id="mark3 l" />
  <path d="M 0 275.7730058063603 L 10 275.7730058063603 L 10 277.2730058063603 L 0 277.2730058063603 Z " stroke="none" fill-rule="evenodd" fill="#000000" fill-opacity="1" transform="matrix(1,0,0,1,5.05,13.314)" id="mark4 l" />
  <path d="M 0 265.1375055830388 L 25 265.1375055830388 L 25 266.6375055830388 L 0 266.6375055830388 Z " stroke="none" fill-rule="evenodd" fill="#000000" fill-opacity="1" transform="matrix(1,0,0,1,5.05,13.314)" id="mark5 l" />
  <path d="M 16.18 262.6395055830388 C 16.174666666666667 262.46617224970544, 16.173333333333332 262.32683891637214, 16.176 262.2215055830388 C 16.178666666666665 262.1161722497054, 16.181333333333335 262.01417224970544, 16.183999999999997 261.9155055830388 L 17.264 261.9155055830388 C 17.256 261.9928389163721, 17.25 262.0888389163721, 17.246 262.2035055830388 C 17.241999999999997 262.3181722497054, 17.240666666666666 262.4288389163721, 17.241999999999997 262.5355055830388 C 17.243333333333332 262.6421722497054, 17.246666666666666 262.72217224970547, 17.252 262.7755055830388 C 17.262666666666668 262.89550558303876, 17.297333333333334 262.99350558303877, 17.355999999999998 263.0695055830388 C 17.414666666666665 263.14550558303876, 17.497333333333334 263.1995055830388, 17.604 263.23150558303877 L 17.604 264.12350558303876 C 17.110666666666663 264.08617224970544, 16.75333333333333 263.9515055830388, 16.532 263.71950558303877 C 16.310666666666666 263.48750558303874, 16.19333333333333 263.1275055830388, 16.18 262.6395055830388 Z M 16.279999999999998 261.30350558303877 L 16.279999999999998 257.6555055830388 L 17.348 257.6555055830388 L 17.348 261.30350558303877 Z M 17.852 260.8795055830388 L 17.852 260.12350558303876 C 17.929333333333332 260.08350558303874, 18.014666666666667 260.05150558303876, 18.107999999999997 260.02750558303876 C 18.20133333333333 260.00350558303876, 18.301333333333332 259.99150558303876, 18.407999999999998 259.99150558303876 C 18.773333333333333 259.99150558303876, 19.047333333333334 260.1068389163721, 19.23 260.33750558303876 C 19.412666666666667 260.5681722497054, 19.514666666666663 260.88217224970543, 19.535999999999998 261.27950558303877 C 19.546666666666667 261.4395055830388, 19.55333333333333 261.59817224970544, 19.555999999999997 261.75550558303877 C 19.558666666666664 261.9128389163721, 19.557333333333332 262.06617224970546, 19.552 262.2155055830388 C 19.546666666666667 262.36483891637215, 19.538666666666668 262.50483891637214, 19.528 262.63550558303876 C 19.482666666666667 263.13417224970544, 19.353333333333335 263.49950558303874, 19.14 263.73150558303877 C 18.926666666666666 263.9635055830388, 18.581333333333333 264.0941722497055, 18.104 264.12350558303876 L 18.104 263.23150558303877 C 18.21333333333333 263.2021722497054, 18.296 263.1495055830388, 18.352 263.07350558303875 C 18.408 262.9975055830388, 18.44 262.89817224970545, 18.448 262.7755055830388 C 18.471999999999998 262.4848389163721, 18.485999999999997 262.2235055830388, 18.49 261.99150558303876 C 18.494 261.7595055830388, 18.485333333333333 261.53817224970544, 18.464 261.32750558303877 C 18.447999999999997 261.17283891637214, 18.396666666666665 261.0575055830388, 18.31 260.98150558303877 C 18.223333333333333 260.9055055830388, 18.090666666666664 260.8675055830388, 17.912 260.8675055830388 C 17.901333333333334 260.8675055830388, 17.890666666666668 260.8688389163721, 17.88 260.87150558303875 C 17.86933333333333 260.87417224970545, 17.86 260.8768389163721, 17.852 260.8795055830388 Z M 17.852 258.58750558303876 L 17.852 257.6555055830388 L 19.439999999999998 257.6555055830388 L 19.439999999999998 258.58750558303876 Z M 21.944 264.0555055830388 L 21.944 257.6555055830388 L 23.003999999999998 257.6555055830388 L 23.003999999999998 264.0555055830388 Z " stroke="none" fill-rule="nonzero" fill="#000000" fill-opacity="1" transform="matrix(1,0,0,1,5.05,13.314)" id="text5 l" />
  <path d="M 0 254.5020053597172 L 10 254.5020053597172 L 10 256.0020053597172 L 0 256.0020053597172 Z " stroke="none" fill-rule="evenodd" fill="#000000" fill-opacity="1" transform="matrix(1,0,0,1,5.05,13.314)" id="mark6 l" />
  <path d="M 0 243.86650513639566 L 10 243.86650513639566 L 10 245.36650513639566 L 0 245.36650513639566 Z " stroke="none" fill-rule="evenodd" fill="#000000" fill-opacity="1" transform="matrix(1,0,0,1,5.05,13.314)" id="mark7 l" />
  <path d="M 0 233.23100491307412 L 10 233.23100491307412 L 10 234.73100491307412 L 0 234.73100491307412 Z " stroke="none" fill-rule="evenodd" fill="#000000" fill-opacity="1" transform="matrix(1,0,0,1,5.05,13.314)" id="mark8 l" />
  <path d="M 0 222.59550468975254 L 10 222.59550468975254 L 10 224.09550468975254 L 0 224.09550468975254 Z " stroke="none" fill-rule="evenodd" fill="#000000" fill-opacity="1" transform="matrix(1,0,0,1,5.05,13.314)" id="mark9 l" />
  <path d="M 0 211.96000446643103 L 25 211.96000446643103 L 25 213.46000446643103 L 0 213.46000446643103 Z " stroke="none" fill-rule="evenodd" fill="#000000" fill-opacity="1" transform="matrix(1,0,0,1,5.05,13.314)" id="mark10 l" />
  <path d="M 14.323999999999998 210.91000446643105 L 14.323999999999998 205.46600446643106 L 13.871999999999998 205.46600446643106 L 13.839999999999998 205.08600446643104 L 14.543999999999999 204.51000446643104 L 15.424 204.51000446643104 L 15.424 210.91000446643105 Z M 16.196 209.49800446643104 C 16.188000000000002 209.06867113309772, 16.182666666666666 208.65200446643104, 16.18 208.24800446643104 C 16.177333333333333 207.84400446643104, 16.177999999999997 207.44867113309772, 16.182 207.06200446643103 C 16.186 206.67533779976438, 16.190666666666665 206.29400446643103, 16.196 205.91800446643106 C 16.209333333333333 205.47800446643106, 16.334000000000003 205.13267113309772, 16.57 204.88200446643106 C 16.805999999999997 204.6313377997644, 17.142666666666663 204.48600446643104, 17.58 204.44600446643105 L 17.58 205.33400446643105 C 17.382666666666665 205.39000446643107, 17.281333333333333 205.5193377997644, 17.276 205.72200446643106 C 17.262666666666668 206.09267113309772, 17.253333333333334 206.44067113309774, 17.248 206.76600446643104 C 17.242666666666665 207.0913377997644, 17.24 207.40800446643107, 17.24 207.71600446643106 C 17.24 208.02400446643105, 17.242666666666665 208.3386711330977, 17.248 208.66000446643105 C 17.253333333333334 208.9813377997644, 17.262666666666668 209.32467113309772, 17.276 209.69000446643105 C 17.281333333333333 209.89800446643105, 17.382666666666665 210.03000446643102, 17.58 210.08600446643104 L 17.58 210.97400446643104 C 17.142666666666663 210.93400446643105, 16.805999999999997 210.78800446643106, 16.57 210.53600446643105 C 16.334000000000003 210.28400446643104, 16.209333333333333 209.93800446643104, 16.196 209.49800446643104 Z M 18.084 210.97400446643104 L 18.084 210.08200446643104 C 18.268 210.0286711330977, 18.366666666666667 209.90467113309774, 18.38 209.71000446643106 C 18.398666666666667 209.2433377997644, 18.410666666666668 208.79467113309772, 18.416 208.36400446643106 C 18.421333333333333 207.9333377997644, 18.421333333333333 207.5026711330977, 18.416 207.07200446643105 C 18.410666666666668 206.64133779976436, 18.398666666666667 206.1886711330977, 18.38 205.71400446643105 C 18.374666666666666 205.51933779976437, 18.276 205.3926711330977, 18.084 205.33400446643105 L 18.084 204.44600446643105 C 18.513333333333335 204.48600446643104, 18.846666666666668 204.6313377997644, 19.084 204.88200446643106 C 19.321333333333335 205.13267113309772, 19.445333333333334 205.47800446643106, 19.456 205.91800446643106 C 19.46666666666667 206.2326711330977, 19.474666666666668 206.5426711330977, 19.48 206.84800446643104 C 19.485333333333333 207.15333779976436, 19.488 207.45400446643106, 19.488 207.75000446643105 C 19.488 208.04600446643104, 19.485333333333333 208.3393377997644, 19.48 208.63000446643105 C 19.474666666666668 208.9206711330977, 19.46666666666667 209.21000446643103, 19.456 209.49800446643104 C 19.439999999999998 209.94867113309772, 19.311999999999998 210.29733779976436, 19.072 210.54400446643103 C 18.832 210.7906711330977, 18.502666666666666 210.93400446643105, 18.084 210.97400446643104 Z M 21.944 210.91000446643105 L 21.944 204.51000446643104 L 23.003999999999998 204.51000446643104 L 23.003999999999998 210.91000446643105 Z " stroke="none" fill-rule="nonzero" fill="#000000" fill-opacity="1" transform="matrix(1,0,0,1,5.05,13.314)" id="text10 l" />
  <path d="M 0 201.32450424310946 L 10 201.32450424310946 L 10 202.82450424310946 L 0 202.82450424310946 Z " stroke="none" fill-rule="evenodd" fill="#000000" fill-opacity="1" transform="matrix(1,0,0,1,5.05,13.314)" id="mark11 l" />
  <path d="M 0 190.68900401978792 L 10 190.68900401978792 L 10 192.18900401978792 L 0 192.18900401978792 Z " stroke="none" fill-rule="evenodd" fill="#000000" fill-opacity="1" transform="matrix(1,0,0,1,5.05,13.314)" id="mark12 l" />
  <path d="M 0 180.05350379646637 L 10 180.05350379646637 L 10 181.55350379646637 L 0 181.55350379646637 Z " stroke="none" fill-rule="evenodd" fill="#000000" fill-opacity="1" transform="matrix(1,0,0,1,5.05,13.314)" id="mark13 l" />
  <path d="M 0 169.4180035731448 L 10 169.4180035731448 L 10 170.9180035731448 L 0 170.9180035731448 Z " stroke="none" fill-rule="evenodd" fill="#000000" fill-opacity="1" transform="matrix(1,0,0,1,5.05,13.314)" id="mark14 l" />
  <path d="M 0 158.78250334982326 L 25 158.78250334982326 L 25 160.28250334982326 L 0 160.28250334982326 Z " stroke="none" fill-rule="evenodd" fill="#000000" fill-opacity="1" transform="matrix(1,0,0,1,5.05,13.314)" id="mark15 l" />
  <path d="M 14.331999999999999 157.70050334982326 L 14.331999999999999 152.25650334982328 L 13.879999999999999 152.25650334982328 L 13.847999999999999 151.87650334982325 L 14.552 151.30050334982326 L 15.432 151.30050334982326 L 15.432 157.70050334982326 Z M 16.18 156.28450334982327 C 16.174666666666667 156.11117001648995, 16.173333333333332 155.9718366831566, 16.176 155.86650334982326 C 16.178666666666665 155.76117001648993, 16.181333333333335 155.65917001648995, 16.183999999999997 155.56050334982328 L 17.264 155.56050334982328 C 17.256 155.6378366831566, 17.25 155.7338366831566, 17.246 155.84850334982326 C 17.241999999999997 155.96317001648993, 17.240666666666666 156.0738366831566, 17.241999999999997 156.18050334982325 C 17.243333333333332 156.2871700164899, 17.246666666666666 156.36717001648992, 17.252 156.42050334982326 C 17.262666666666668 156.54050334982327, 17.297333333333334 156.63850334982328, 17.355999999999998 156.71450334982327 C 17.414666666666665 156.79050334982327, 17.497333333333334 156.84450334982324, 17.604 156.87650334982325 L 17.604 157.76850334982328 C 17.110666666666663 157.73117001648993, 16.75333333333333 157.59650334982325, 16.532 157.36450334982325 C 16.310666666666666 157.13250334982325, 16.19333333333333 156.77250334982327, 16.18 156.28450334982327 Z M 16.279999999999998 154.94850334982326 L 16.279999999999998 151.30050334982326 L 17.348 151.30050334982326 L 17.348 154.94850334982326 Z M 17.852 154.52450334982328 L 17.852 153.76850334982328 C 17.929333333333332 153.72850334982328, 18.014666666666667 153.69650334982327, 18.107999999999997 153.67250334982327 C 18.20133333333333 153.64850334982327, 18.301333333333332 153.63650334982327, 18.407999999999998 153.63650334982327 C 18.773333333333333 153.63650334982327, 19.047333333333334 153.7518366831566, 19.23 153.98250334982328 C 19.412666666666667 154.21317001648995, 19.514666666666663 154.52717001648995, 19.535999999999998 154.92450334982325 C 19.546666666666667 155.08450334982325, 19.55333333333333 155.24317001648993, 19.555999999999997 155.40050334982325 C 19.558666666666664 155.5578366831566, 19.557333333333332 155.71117001648992, 19.552 155.86050334982326 C 19.546666666666667 156.0098366831566, 19.538666666666668 156.1498366831566, 19.528 156.28050334982328 C 19.482666666666667 156.77917001648993, 19.353333333333335 157.14450334982325, 19.14 157.37650334982325 C 18.926666666666666 157.60850334982325, 18.581333333333333 157.73917001648994, 18.104 157.76850334982328 L 18.104 156.87650334982325 C 18.21333333333333 156.84717001648994, 18.296 156.7945033498233, 18.352 156.71850334982327 C 18.408 156.64250334982324, 18.44 156.5431700164899, 18.448 156.42050334982326 C 18.471999999999998 156.1298366831566, 18.485999999999997 155.86850334982327, 18.49 155.63650334982327 C 18.494 155.40450334982327, 18.485333333333333 155.18317001648992, 18.464 154.97250334982326 C 18.447999999999997 154.8178366831566, 18.396666666666665 154.70250334982325, 18.31 154.62650334982325 C 18.223333333333333 154.55050334982326, 18.090666666666664 154.51250334982328, 17.912 154.51250334982328 C 17.901333333333334 154.51250334982328, 17.890666666666668 154.5138366831566, 17.88 154.51650334982327 C 17.86933333333333 154.51917001648994, 17.86 154.5218366831566, 17.852 154.52450334982328 Z M 17.852 152.23250334982328 L 17.852 151.30050334982326 L 19.439999999999998 151.30050334982326 L 19.439999999999998 152.23250334982328 Z M 21.944 157.70050334982326 L 21.944 151.30050334982326 L 23.003999999999998 151.30050334982326 L 23.003999999999998 157.70050334982326 Z " stroke="none" fill-rule="nonzero" fill="#000000" fill-opacity="1" transform="matrix(1,0,0,1,5.05,13.314)" id="text15 l" />
  <path d="M 0 148.14700312650172 L 10 148.14700312650172 L 10 149.64700312650172 L 0 149.64700312650172 Z " stroke="none" fill-rule="evenodd" fill="#000000" fill-opacity="1" transform="matrix(1,0,0,1,5.05,13.314)" id="mark16 l" />
  <path d="M 0 137.51150290318017 L 10 137.51150290318017 L 10 139.01150290318017 L 0 139.01150290318017 Z " stroke="none" fill-rule="evenodd" fill="#000000" fill-opacity="1" transform="matrix(1,0,0,1,5.05,13.314)" id="mark17 l" />
  <path d="M 0 126.8760026798586 L 10 126.8760026798586 L 10 128.3760026798586 L 0 128.3760026798586 Z " stroke="none" fill-rule="evenodd" fill="#000000" fill-opacity="1" transform="matrix(1,0,0,1,5.05,13.314)" id="mark18 l" />
  <path d="M 0 116.24050245653706 L 10 116.24050245653706 L 10 117.74050245653706 L 0 117.74050245653706 Z " stroke="none" fill-rule="evenodd" fill="#000000" fill-opacity="1" transform="matrix(1,0,0,1,5.05,13.314)" id="mark19 l" />
  <path d="M 0 105.60500223321552 L 25 105.60500223321552 L 25 107.10500223321552 L 0 107.10500223321552 Z " stroke="none" fill-rule="evenodd" fill="#000000" fill-opacity="1" transform="matrix(1,0,0,1,5.05,13.314)" id="mark20 l" />
  <path d="M 12.319999999999999 104.55500223321552 C 12.317333333333334 104.45633556654886, 12.315333333333331 104.36766889988218, 12.313999999999998 104.28900223321551 C 12.312666666666665 104.21033556654885, 12.311333333333334 104.13633556654884, 12.309999999999999 104.06700223321552 C 12.308666666666667 103.99766889988217, 12.308 103.92566889988218, 12.308 103.85100223321552 C 12.308 103.77633556654885, 12.308 103.69166889988219, 12.308 103.59700223321552 C 12.308 103.50233556654885, 12.309333333333335 103.39100223321552, 12.312 103.26300223321552 C 12.32 102.96966889988218, 12.37 102.70766889988218, 12.462 102.47700223321552 C 12.554 102.24633556654885, 12.687999999999999 102.04033556654885, 12.863999999999999 101.85900223321552 C 13.04 101.67766889988218, 13.257333333333333 101.51633556654883, 13.515999999999998 101.37500223321551 L 14.047999999999998 101.08700223321551 C 14.234666666666666 100.98566889988219, 14.354 100.86366889988219, 14.405999999999999 100.72100223321551 C 14.457999999999998 100.57833556654884, 14.488 100.44433556654884, 14.495999999999999 100.31900223321551 C 14.506666666666664 100.17233556654885, 14.512666666666664 100.01566889988219, 14.514 99.84900223321551 C 14.51533333333333 99.68233556654884, 14.511999999999997 99.52566889988218, 14.504 99.37900223321552 C 14.498666666666665 99.27500223321552, 14.468666666666666 99.18900223321552, 14.413999999999998 99.12100223321552 C 14.359333333333332 99.05300223321552, 14.279999999999998 99.00433556654886, 14.175999999999998 98.97500223321552 L 14.175999999999998 98.08700223321551 C 14.663999999999998 98.11900223321551, 15.014 98.25033556654884, 15.225999999999999 98.48100223321552 C 15.437999999999999 98.7116688998822, 15.554666666666666 99.07233556654884, 15.575999999999999 99.56300223321551 C 15.578666666666663 99.6270022332155, 15.580666666666666 99.69233556654885, 15.581999999999999 99.75900223321551 C 15.583333333333332 99.82566889988219, 15.584 99.89033556654886, 15.584 99.95300223321551 C 15.584 100.01566889988219, 15.583333333333332 100.07766889988218, 15.581999999999999 100.13900223321552 C 15.580666666666666 100.20033556654886, 15.578666666666663 100.26033556654885, 15.575999999999999 100.31900223321551 C 15.565333333333331 100.60433556654884, 15.512 100.85100223321551, 15.415999999999999 101.05900223321552 C 15.32 101.26700223321552, 15.19 101.44700223321553, 15.026 101.59900223321551 C 14.862 101.75100223321553, 14.672 101.88700223321553, 14.456 102.00700223321552 L 13.851999999999999 102.33500223321552 C 13.737333333333332 102.39633556654886, 13.647333333333332 102.48033556654885, 13.581999999999999 102.58700223321551 C 13.516666666666666 102.69366889988218, 13.469999999999999 102.80700223321551, 13.441999999999998 102.92700223321552 C 13.413999999999998 103.04700223321552, 13.399999999999999 103.15900223321552, 13.399999999999999 103.26300223321552 L 13.399999999999999 104.55500223321552 Z M 12.328 100.51500223321551 C 12.322666666666667 100.39766889988218, 12.318666666666665 100.28300223321551, 12.315999999999999 100.17100223321552 C 12.313333333333333 100.05900223321552, 12.311333333333334 99.95300223321551, 12.309999999999999 99.85300223321552 C 12.308666666666667 99.75300223321551, 12.309333333333335 99.65633556654885, 12.312 99.56300223321551 C 12.330666666666666 99.07500223321551, 12.447333333333333 98.71566889988217, 12.661999999999999 98.48500223321551 C 12.876666666666665 98.25433556654885, 13.213333333333331 98.12166889988218, 13.671999999999999 98.08700223321551 L 13.671999999999999 98.97900223321552 C 13.576 99.00833556654885, 13.505333333333333 99.05500223321553, 13.459999999999999 99.11900223321553 C 13.414666666666665 99.18300223321552, 13.390666666666664 99.26033556654885, 13.387999999999998 99.35100223321552 C 13.382666666666665 99.55900223321552, 13.379333333333333 99.75233556654885, 13.378 99.93100223321552 C 13.376666666666667 100.1096688998822, 13.381333333333334 100.30433556654884, 13.392 100.51500223321551 Z M 13.904 104.55500223321552 L 13.904 103.62300223321552 L 15.5 103.62300223321552 L 15.5 104.55500223321552 Z M 16.196 103.14300223321551 C 16.188000000000002 102.71366889988218, 16.182666666666666 102.29700223321552, 16.18 101.89300223321551 C 16.177333333333333 101.48900223321553, 16.177999999999997 101.09366889988219, 16.182 100.70700223321552 C 16.186 100.32033556654885, 16.190666666666665 99.93900223321552, 16.196 99.56300223321551 C 16.209333333333333 99.12300223321552, 16.334000000000003 98.77766889988217, 16.57 98.52700223321551 C 16.805999999999997 98.27633556654885, 17.142666666666663 98.13100223321553, 17.58 98.09100223321552 L 17.58 98.97900223321552 C 17.382666666666665 99.03500223321552, 17.281333333333333 99.16433556654886, 17.276 99.36700223321552 C 17.262666666666668 99.73766889988218, 17.253333333333334 100.0856688998822, 17.248 100.41100223321551 C 17.242666666666665 100.73633556654886, 17.24 101.05300223321552, 17.24 101.36100223321552 C 17.24 101.66900223321551, 17.242666666666665 101.98366889988219, 17.248 102.30500223321552 C 17.253333333333334 102.62633556654885, 17.262666666666668 102.96966889988218, 17.276 103.33500223321552 C 17.281333333333333 103.5430022332155, 17.382666666666665 103.67500223321551, 17.58 103.73100223321552 L 17.58 104.61900223321551 C 17.142666666666663 104.5790022332155, 16.805999999999997 104.43300223321552, 16.57 104.18100223321552 C 16.334000000000003 103.92900223321553, 16.209333333333333 103.58300223321552, 16.196 103.14300223321551 Z M 18.084 104.61900223321551 L 18.084 103.72700223321552 C 18.268 103.67366889988219, 18.366666666666667 103.54966889988218, 18.38 103.35500223321552 C 18.398666666666667 102.88833556654885, 18.410666666666668 102.43966889988218, 18.416 102.00900223321551 C 18.421333333333333 101.57833556654886, 18.421333333333333 101.1476688998822, 18.416 100.71700223321552 C 18.410666666666668 100.28633556654887, 18.398666666666667 99.83366889988218, 18.38 99.35900223321552 C 18.374666666666666 99.16433556654886, 18.276 99.03766889988219, 18.084 98.97900223321552 L 18.084 98.09100223321552 C 18.513333333333335 98.13100223321553, 18.846666666666668 98.27633556654885, 19.084 98.52700223321551 C 19.321333333333335 98.77766889988217, 19.445333333333334 99.12300223321552, 19.456 99.56300223321551 C 19.46666666666667 99.8776688998822, 19.474666666666668 100.1876688998822, 19.48 100.49300223321552 C 19.485333333333333 100.79833556654884, 19.488 101.09900223321551, 19.488 101.39500223321552 C 19.488 101.69100223321553, 19.485333333333333 101.98433556654885, 19.48 102.27500223321552 C 19.474666666666668 102.56566889988218, 19.46666666666667 102.85500223321552, 19.456 103.14300223321551 C 19.439999999999998 103.59366889988218, 19.311999999999998 103.94233556654885, 19.072 104.18900223321552 C 18.832 104.43566889988219, 18.502666666666666 104.5790022332155, 18.084 104.61900223321551 Z M 21.944 104.55500223321552 L 21.944 98.15500223321551 L 23.003999999999998 98.15500223321551 L 23.003999999999998 104.55500223321552 Z " stroke="none" fill-rule="nonzero" fill="#000000" fill-opacity="1" transform="matrix(1,0,0,1,5.05,13.314)" id="text20 l" />
  <path d="M 0 94.96950200989397 L 10 94.96950200989397 L 10 96.46950200989397 L 0 96.46950200989397 Z " stroke="none" fill-rule="evenodd" fill="#000000" fill-opacity="1" transform="matrix(1,0,0,1,5.05,13.314)" id="mark21 l" />
  <path d="M 0 84.3340017865724 L 10 84.3340017865724 L 10 85.8340017865724 L 0 85.8340017865724 Z " stroke="none" fill-rule="evenodd" fill="#000000" fill-opacity="1" transform="matrix(1,0,0,1,5.05,13.314)" id="mark22 l" />
  <path d="M 0 73.69850156325086 L 10 73.69850156325086 L 10 75.19850156325086 L 0 75.19850156325086 Z " stroke="none" fill-rule="evenodd" fill="#000000" fill-opacity="1" transform="matrix(1,0,0,1,5.05,13.314)" id="mark23 l" />
  <path d="M 0 63.063001339929315 L 10 63.063001339929315 L 10 64.56300133992931 L 0 64.56300133992931 Z " stroke="none" fill-rule="evenodd" fill="#000000" fill-opacity="1" transform="matrix(1,0,0,1,5.05,13.314)" id="mark24 l" />
  <path d="M 0 52.42750111660774 L 25 52.42750111660774 L 25 53.92750111660774 L 0 53.92750111660774 Z " stroke="none" fill-rule="evenodd" fill="#000000" fill-opacity="1" transform="matrix(1,0,0,1,5.05,13.314)" id="mark25 l" />
  <path d="M 12.328 51.377501116607746 C 12.325333333333333 51.27883444994107, 12.323333333333332 51.19016778327441, 12.322 51.11150111660775 C 12.320666666666666 51.03283444994108, 12.319333333333333 50.95883444994108, 12.318 50.88950111660775 C 12.316666666666666 50.820167783274414, 12.315999999999999 50.74816778327441, 12.316 50.673501116607746 C 12.315999999999999 50.59883444994108, 12.315999999999999 50.51416778327442, 12.316 50.41950111660775 C 12.315999999999999 50.32483444994108, 12.317333333333334 50.213501116607745, 12.32 50.085501116607745 C 12.328 49.79216778327441, 12.378 49.53016778327441, 12.47 49.29950111660774 C 12.562000000000001 49.06883444994108, 12.696 48.862834449941076, 12.872 48.68150111660775 C 13.048 48.50016778327441, 13.265333333333334 48.338834449941075, 13.524000000000001 48.19750111660775 L 14.056000000000001 47.90950111660774 C 14.242666666666668 47.80816778327441, 14.362000000000002 47.68616778327441, 14.414 47.54350111660774 C 14.466000000000001 47.40083444994108, 14.495999999999999 47.26683444994108, 14.504 47.14150111660775 C 14.514666666666667 46.99483444994108, 14.520666666666667 46.83816778327441, 14.522 46.67150111660774 C 14.523333333333333 46.50483444994108, 14.520000000000001 46.34816778327441, 14.512 46.201501116607744 C 14.506666666666666 46.097501116607745, 14.476666666666667 46.01150111660775, 14.422 45.94350111660775 C 14.367333333333335 45.875501116607744, 14.288 45.82683444994108, 14.184000000000001 45.79750111660775 L 14.184000000000001 44.90950111660774 C 14.672 44.941501116607746, 15.022000000000002 45.072834449941084, 15.234 45.30350111660775 C 15.446000000000002 45.53416778327441, 15.562666666666667 45.89483444994108, 15.584 46.38550111660775 C 15.586666666666668 46.44950111660775, 15.588666666666668 46.51483444994108, 15.59 46.58150111660775 C 15.591333333333335 46.64816778327442, 15.592000000000002 46.71283444994108, 15.592 46.77550111660774 C 15.592000000000002 46.83816778327441, 15.591333333333335 46.90016778327441, 15.59 46.96150111660775 C 15.588666666666668 47.02283444994109, 15.586666666666668 47.08283444994108, 15.584 47.14150111660775 C 15.573333333333332 47.42683444994108, 15.52 47.673501116607746, 15.424 47.881501116607744 C 15.328 48.08950111660775, 15.197999999999999 48.26950111660775, 15.033999999999999 48.42150111660774 C 14.87 48.573501116607744, 14.68 48.70950111660774, 14.464 48.829501116607744 L 13.86 49.15750111660775 C 13.745333333333335 49.21883444994108, 13.655333333333335 49.302834449941074, 13.59 49.40950111660774 C 13.524666666666668 49.51616778327441, 13.478000000000002 49.62950111660775, 13.45 49.749501116607746 C 13.422 49.86950111660774, 13.408 49.981501116607745, 13.408 50.085501116607745 L 13.408 51.377501116607746 Z M 12.336 47.33750111660775 C 12.330666666666666 47.22016778327441, 12.326666666666664 47.10550111660774, 12.324 46.993501116607746 C 12.321333333333332 46.88150111660775, 12.319333333333333 46.77550111660775, 12.318 46.67550111660775 C 12.316666666666666 46.57550111660775, 12.317333333333334 46.478834449941075, 12.32 46.38550111660775 C 12.338666666666668 45.89750111660774, 12.455333333333336 45.53816778327441, 12.67 45.307501116607746 C 12.884666666666668 45.07683444994108, 13.221333333333334 44.944167783274416, 13.68 44.90950111660774 L 13.68 45.801501116607746 C 13.584 45.83083444994108, 13.513333333333332 45.877501116607746, 13.468 45.941501116607746 C 13.422666666666668 46.005501116607746, 13.398666666666667 46.082834449941075, 13.396 46.173501116607746 C 13.390666666666666 46.381501116607744, 13.387333333333332 46.57483444994108, 13.386 46.753501116607744 C 13.384666666666666 46.93216778327441, 13.389333333333333 47.12683444994108, 13.4 47.33750111660775 Z M 13.911999999999999 51.377501116607746 L 13.911999999999999 50.445501116607744 L 15.508 50.445501116607744 L 15.508 51.377501116607746 Z M 16.18 49.96150111660775 C 16.174666666666667 49.78816778327441, 16.173333333333332 49.64883444994108, 16.176 49.54350111660774 C 16.178666666666665 49.43816778327441, 16.181333333333335 49.33616778327442, 16.183999999999997 49.237501116607746 L 17.264 49.237501116607746 C 17.256 49.314834449941074, 17.25 49.41083444994108, 17.246 49.52550111660775 C 17.241999999999997 49.640167783274414, 17.240666666666666 49.75083444994108, 17.241999999999997 49.85750111660774 C 17.243333333333332 49.964167783274405, 17.246666666666666 50.04416778327441, 17.252 50.097501116607745 C 17.262666666666668 50.21750111660774, 17.297333333333334 50.31550111660775, 17.355999999999998 50.39150111660775 C 17.414666666666665 50.46750111660775, 17.497333333333334 50.521501116607745, 17.604 50.55350111660775 L 17.604 51.445501116607744 C 17.110666666666663 51.40816778327441, 16.75333333333333 51.27350111660775, 16.532 51.04150111660775 C 16.310666666666666 50.80950111660775, 16.19333333333333 50.44950111660775, 16.18 49.96150111660775 Z M 16.279999999999998 48.625501116607744 L 16.279999999999998 44.97750111660775 L 17.348 44.97750111660775 L 17.348 48.625501116607744 Z M 17.852 48.201501116607744 L 17.852 47.445501116607744 C 17.929333333333332 47.40550111660775, 18.014666666666667 47.37350111660775, 18.107999999999997 47.34950111660775 C 18.20133333333333 47.32550111660775, 18.301333333333332 47.313501116607746, 18.407999999999998 47.313501116607746 C 18.773333333333333 47.313501116607746, 19.047333333333334 47.42883444994108, 19.23 47.65950111660774 C 19.412666666666667 47.890167783274414, 19.514666666666663 48.204167783274414, 19.535999999999998 48.60150111660775 C 19.546666666666667 48.76150111660775, 19.55333333333333 48.92016778327441, 19.555999999999997 49.07750111660775 C 19.558666666666664 49.234834449941076, 19.557333333333332 49.38816778327441, 19.552 49.53750111660774 C 19.546666666666667 49.68683444994108, 19.538666666666668 49.82683444994108, 19.528 49.957501116607745 C 19.482666666666667 50.45616778327442, 19.353333333333335 50.82150111660775, 19.14 51.05350111660775 C 18.926666666666666 51.28550111660775, 18.581333333333333 51.41616778327442, 18.104 51.445501116607744 L 18.104 50.55350111660775 C 18.21333333333333 50.524167783274414, 18.296 50.47150111660775, 18.352 50.39550111660775 C 18.408 50.319501116607746, 18.44 50.22016778327441, 18.448 50.097501116607745 C 18.471999999999998 49.80683444994108, 18.485999999999997 49.545501116607745, 18.49 49.313501116607746 C 18.494 49.08150111660775, 18.485333333333333 48.86016778327441, 18.464 48.649501116607745 C 18.447999999999997 48.49483444994108, 18.396666666666665 48.37950111660775, 18.31 48.30350111660775 C 18.223333333333333 48.22750111660775, 18.090666666666664 48.189501116607744, 17.912 48.189501116607744 C 17.901333333333334 48.189501116607744, 17.890666666666668 48.19083444994108, 17.88 48.19350111660775 C 17.86933333333333 48.19616778327442, 17.86 48.198834449941074, 17.852 48.201501116607744 Z M 17.852 45.90950111660774 L 17.852 44.97750111660775 L 19.439999999999998 44.97750111660775 L 19.439999999999998 45.90950111660774 Z M 21.944 51.377501116607746 L 21.944 44.97750111660775 L 23.003999999999998 44.97750111660775 L 23.003999999999998 51.377501116607746 Z " stroke="none" fill-rule="nonzero" fill="#000000" fill-opacity="1" transform="matrix(1,0,0,1,5.05,13.314)" id="text25 l" />
  <path d="M 0 41.79200089328623 L 10 41.79200089328623 L 10 43.29200089328623 L 0 43.29200089328623 Z " stroke="none" fill-rule="evenodd" fill="#000000" fill-opacity="1" transform="matrix(1,0,0,1,5.05,13.314)" id="mark26 l" />
  <path d="M 0 31.156500669964657 L 10 31.156500669964657 L 10 32.65650066996466 L 0 32.65650066996466 Z " stroke="none" fill-rule="evenodd" fill="#000000" fill-opacity="1" transform="matrix(1,0,0,1,5.05,13.314)" id="mark27 l" />
  <path d="M 0 20.521000446643086 L 10 20.521000446643086 L 10 22.021000446643086 L 0 22.021000446643086 Z " stroke="none" fill-rule="evenodd" fill="#000000" fill-opacity="1" transform="matrix(1,0,0,1,5.05,13.314)" id="mark28 l" />
  <path d="M 0 9.885500223321571 L 10 9.885500223321571 L 10 11.385500223321571 L 0 11.385500223321571 Z " stroke="none" fill-rule="evenodd" fill="#000000" fill-opacity="1" transform="matrix(1,0,0,1,5.05,13.314)" id="mark29 l" />
  <path d="M 0 -0.75 L 25 -0.75 L 25 0.75 L 0 0.75 Z " stroke="none" fill-rule="evenodd" fill="#000000" fill-opacity="1" transform="matrix(1,0,0,1,5.05,13.314)" id="mark30 l" />
  <path d="M 12.223999999999998 -3.2159999999999997 C 12.221333333333334 -3.317333333333333, 12.219333333333333 -3.4013333333333335, 12.218 -3.468 C 12.216666666666667 -3.5346666666666664, 12.216666666666667 -3.602666666666666, 12.218 -3.6719999999999997 C 12.219333333333333 -3.7413333333333334, 12.221333333333334 -3.8306666666666667, 12.223999999999998 -3.94 L 13.303999999999998 -3.94 L 13.303999999999998 -3.0759999999999996 C 13.303999999999998 -2.8386666666666667, 13.417333333333332 -2.6879999999999997, 13.643999999999998 -2.6239999999999997 L 13.643999999999998 -1.7319999999999998 C 13.155999999999999 -1.7693333333333332, 12.800666666666665 -1.904, 12.578 -2.1359999999999997 C 12.355333333333334 -2.368, 12.237333333333332 -2.7279999999999998, 12.223999999999998 -3.2159999999999997 Z M 12.292 -7.268 L 12.292 -8.2 L 15.536 -8.2 L 15.536 -7.268 Z M 14.143999999999998 -2.6199999999999997 C 14.367999999999999 -2.6759999999999997, 14.483999999999998 -2.826666666666666, 14.491999999999999 -3.072 C 14.497333333333334 -3.2746666666666666, 14.500666666666666 -3.4573333333333336, 14.501999999999999 -3.62 C 14.503333333333332 -3.7826666666666666, 14.498666666666665 -3.94, 14.488 -4.092 C 14.48 -4.2493333333333325, 14.431999999999999 -4.382666666666666, 14.344 -4.492 C 14.256 -4.601333333333333, 14.089333333333332 -4.653333333333332, 13.844 -4.648 L 13.096 -4.64 L 13.068 -5.532 L 14.027999999999999 -6.9159999999999995 L 15.216 -6.9159999999999995 L 14.248 -5.564 L 14.28 -5.564 C 14.712 -5.564, 15.028666666666666 -5.441333333333334, 15.229999999999999 -5.196 C 15.431333333333333 -4.950666666666666, 15.544 -4.573333333333332, 15.568 -4.064 C 15.57333333333333 -3.992, 15.576666666666664 -3.92, 15.578 -3.848 C 15.57933333333333 -3.776, 15.579999999999998 -3.705333333333333, 15.579999999999998 -3.6359999999999997 C 15.579999999999998 -3.5666666666666664, 15.57933333333333 -3.4973333333333336, 15.578 -3.428 C 15.576666666666664 -3.3586666666666662, 15.57333333333333 -3.2879999999999994, 15.568 -3.2159999999999997 C 15.549333333333333 -2.7199999999999998, 15.428666666666665 -2.3553333333333333, 15.206 -2.122 C 14.983333333333334 -1.8886666666666665, 14.630666666666666 -1.7586666666666664, 14.148 -1.7319999999999998 Z M 16.196 -3.2119999999999997 C 16.188000000000002 -3.641333333333333, 16.182666666666666 -4.058, 16.18 -4.462 C 16.177333333333333 -4.866, 16.177999999999997 -5.261333333333333, 16.182 -5.648 C 16.186 -6.034666666666666, 16.190666666666665 -6.416, 16.196 -6.792 C 16.209333333333333 -7.231999999999999, 16.334000000000003 -7.577333333333334, 16.57 -7.828 C 16.805999999999997 -8.078666666666667, 17.142666666666663 -8.224, 17.58 -8.264 L 17.58 -7.3759999999999994 C 17.382666666666665 -7.32, 17.281333333333333 -7.190666666666667, 17.276 -6.9879999999999995 C 17.262666666666668 -6.617333333333333, 17.253333333333334 -6.269333333333333, 17.248 -5.944 C 17.242666666666665 -5.618666666666666, 17.24 -5.302, 17.24 -4.994 C 17.24 -4.686, 17.242666666666665 -4.371333333333333, 17.248 -4.05 C 17.253333333333334 -3.7286666666666664, 17.262666666666668 -3.3853333333333326, 17.276 -3.0199999999999996 C 17.281333333333333 -2.812, 17.382666666666665 -2.6799999999999997, 17.58 -2.6239999999999997 L 17.58 -1.7359999999999998 C 17.142666666666663 -1.7759999999999998, 16.805999999999997 -1.9219999999999997, 16.57 -2.174 C 16.334000000000003 -2.4259999999999997, 16.209333333333333 -2.772, 16.196 -3.2119999999999997 Z M 18.084 -1.7359999999999998 L 18.084 -2.6279999999999997 C 18.268 -2.681333333333333, 18.366666666666667 -2.8053333333333335, 18.38 -3 C 18.398666666666667 -3.4666666666666663, 18.410666666666668 -3.915333333333333, 18.416 -4.346 C 18.421333333333333 -4.776666666666666, 18.421333333333333 -5.207333333333333, 18.416 -5.638 C 18.410666666666668 -6.068666666666666, 18.398666666666667 -6.521333333333333, 18.38 -6.9959999999999996 C 18.374666666666666 -7.190666666666667, 18.276 -7.317333333333334, 18.084 -7.3759999999999994 L 18.084 -8.264 C 18.513333333333335 -8.224, 18.846666666666668 -8.078666666666667, 19.084 -7.828 C 19.321333333333335 -7.577333333333334, 19.445333333333334 -7.231999999999999, 19.456 -6.792 C 19.46666666666667 -6.477333333333332, 19.474666666666668 -6.167333333333333, 19.48 -5.861999999999999 C 19.485333333333333 -5.556666666666667, 19.488 -5.256, 19.488 -4.96 C 19.488 -4.664, 19.485333333333333 -4.370666666666667, 19.48 -4.08 C 19.474666666666668 -3.7893333333333334, 19.46666666666667 -3.5, 19.456 -3.2119999999999997 C 19.439999999999998 -2.761333333333333, 19.311999999999998 -2.4126666666666665, 19.072 -2.166 C 18.832 -1.9193333333333331, 18.502666666666666 -1.7759999999999998, 18.084 -1.7359999999999998 Z M 21.944 -1.7999999999999998 L 21.944 -8.2 L 23.003999999999998 -8.2 L 23.003999999999998 -1.7999999999999998 Z " stroke="none" fill-rule="nonzero" fill="#000000" fill-opacity="1" transform="matrix(1,0,0,1,5.05,13.314)" id="text30 l" />
  <path d="M -5 -13.264 L 30 -13.264 L 30 315.1975064763249 L -5 315.1975064763249 Z " stroke="#FF0000" stroke-opacity="1" stroke-width="0.1" stroke-linecap="butt" stroke-linejoin="miter" fill="none" transform="matrix(1,0,0,1,5.05,13.314)" />
</svg>