<?xml version="1.0" encoding="UTF-8"?>
<svg xmlns:xlink="http://www.w3.org/1999/xlink" viewBox="0 0 35.1 452.1869701663641" version="1.1" style="font-synthesis: none;" width="35.1mm" height="452.1869701663641mm" xmlns="http://www.w3.org/2000/svg">
  <defs />
  <style>	</style>
  <path d="M 0 0 L 35.1 0 L 35.1 452.1869701663641 L 0 452.1869701663641 Z " stroke="none" fill-rule="nonzero" fill="#FFFFFF" fill-opacity="1" transform="matrix(1,0,0,1,0,0)" />
  <path d="M 0 431.3049701663641 L 10 431.3049701663641 L 10 432.8049701663641 L 0 432.8049701663641 Z " stroke="none" fill-rule="evenodd" fill="#000000" fill-opacity="1" transform="matrix(1,0,0,1,5.05,13.314)" id="mark1 l" />
  <path d="M 0 422.487521795622 L 10 422.487521795622 L 10 423.987521795622 L 0 423.987521795622 Z " stroke="none" fill-rule="evenodd" fill="#000000" fill-opacity="1" transform="matrix(1,0,0,1,5.05,13.314)" id="mark2 l" />
  <path d="M 0 413.67007342487983 L 10 413.67007342487983 L 10 415.17007342487983 L 0 415.17007342487983 Z " stroke="none" fill-rule="evenodd" fill="#000000" fill-opacity="1" transform="matrix(1,0,0,1,5.05,13.314)" id="mark3 l" />
  <path d="M 0 404.8526250541377 L 10 404.8526250541377 L 10 406.3526250541377 L 0 406.3526250541377 Z " stroke="none" fill-rule="evenodd" fill="#000000" fill-opacity="1" transform="matrix(1,0,0,1,5.05,13.314)" id="mark4 l" />
  <path d="M 0 396.0351766833956 L 25 396.0351766833956 L 25 397.5351766833956 L 0 397.5351766833956 Z " stroke="none" fill-rule="evenodd" fill="#000000" fill-opacity="1" transform="matrix(1,0,0,1,5.05,13.314)" id="mark5 l" />
  <path d="M 16.18 393.5371766833956 C 16.174666666666667 393.3638433500623, 16.173333333333332 393.2245100167289, 16.176 393.1191766833956 C 16.178666666666665 393.0138433500623, 16.181333333333335 392.9118433500623, 16.183999999999997 392.8131766833956 L 17.264 392.8131766833956 C 17.256 392.89051001672897, 17.25 392.98651001672897, 17.246 393.10117668339564 C 17.241999999999997 393.2158433500623, 17.240666666666666 393.3265100167289, 17.241999999999997 393.43317668339563 C 17.243333333333332 393.53984335006226, 17.246666666666666 393.6198433500623, 17.252 393.67317668339564 C 17.262666666666668 393.7931766833956, 17.297333333333334 393.89117668339554, 17.355999999999998 393.9671766833956 C 17.414666666666665 394.0431766833956, 17.497333333333334 394.0971766833956, 17.604 394.1291766833956 L 17.604 395.0211766833956 C 17.110666666666663 394.98384335006233, 16.75333333333333 394.8491766833956, 16.532 394.6171766833956 C 16.310666666666666 394.38517668339557, 16.19333333333333 394.02517668339556, 16.18 393.5371766833956 Z M 16.279999999999998 392.2011766833956 L 16.279999999999998 388.55317668339563 L 17.348 388.55317668339563 L 17.348 392.2011766833956 Z M 17.852 391.7771766833956 L 17.852 391.0211766833956 C 17.929333333333332 390.9811766833956, 18.014666666666667 390.94917668339554, 18.107999999999997 390.9251766833956 C 18.20133333333333 390.90117668339553, 18.301333333333332 390.8891766833956, 18.407999999999998 390.8891766833956 C 18.773333333333333 390.8891766833956, 19.047333333333334 391.0045100167289, 19.23 391.2351766833956 C 19.412666666666667 391.4658433500623, 19.514666666666663 391.77984335006227, 19.535999999999998 392.1771766833956 C 19.546666666666667 392.3371766833956, 19.55333333333333 392.4958433500623, 19.555999999999997 392.6531766833956 C 19.558666666666664 392.8105100167289, 19.557333333333332 392.9638433500623, 19.552 393.11317668339564 C 19.546666666666667 393.262510016729, 19.538666666666668 393.40251001672897, 19.528 393.5331766833956 C 19.482666666666667 394.0318433500623, 19.353333333333335 394.3971766833956, 19.14 394.6291766833956 C 18.926666666666666 394.86117668339557, 18.581333333333333 394.99184335006225, 18.104 395.0211766833956 L 18.104 394.1291766833956 C 18.21333333333333 394.09984335006226, 18.296 394.0471766833956, 18.352 393.9711766833956 C 18.408 393.89517668339556, 18.44 393.7958433500623, 18.448 393.67317668339564 C 18.471999999999998 393.38251001672893, 18.485999999999997 393.12117668339556, 18.49 392.8891766833956 C 18.494 392.6571766833956, 18.485333333333333 392.4358433500623, 18.464 392.2251766833956 C 18.447999999999997 392.0705100167289, 18.396666666666665 391.9551766833956, 18.31 391.8791766833956 C 18.223333333333333 391.80317668339563, 18.090666666666664 391.7651766833957, 17.912 391.7651766833956 C 17.901333333333334 391.7651766833957, 17.890666666666668 391.76651001672894, 17.88 391.7691766833956 C 17.86933333333333 391.7718433500622, 17.86 391.7745100167289, 17.852 391.7771766833956 Z M 17.852 389.4851766833956 L 17.852 388.55317668339563 L 19.439999999999998 388.55317668339563 L 19.439999999999998 389.4851766833956 Z M 21.944 394.9531766833956 L 21.944 388.55317668339563 L 23.003999999999998 388.55317668339563 L 23.003999999999998 394.9531766833956 Z " stroke="none" fill-rule="nonzero" fill="#000000" fill-opacity="1" transform="matrix(1,0,0,1,5.05,13.314)" id="text5 l" />
  <path d="M 0 387.2177283126535 L 10 387.2177283126535 L 10 388.7177283126535 L 0 388.7177283126535 Z " stroke="none" fill-rule="evenodd" fill="#000000" fill-opacity="1" transform="matrix(1,0,0,1,5.05,13.314)" id="mark6 l" />
  <path d="M 0 378.4002799419114 L 10 378.4002799419114 L 10 379.9002799419114 L 0 379.9002799419114 Z " stroke="none" fill-rule="evenodd" fill="#000000" fill-opacity="1" transform="matrix(1,0,0,1,5.05,13.314)" id="mark7 l" />
  <path d="M 0 369.5828315711692 L 10 369.5828315711692 L 10 371.0828315711692 L 0 371.0828315711692 Z " stroke="none" fill-rule="evenodd" fill="#000000" fill-opacity="1" transform="matrix(1,0,0,1,5.05,13.314)" id="mark8 l" />
  <path d="M 0 360.7653832004271 L 10 360.7653832004271 L 10 362.2653832004271 L 0 362.2653832004271 Z " stroke="none" fill-rule="evenodd" fill="#000000" fill-opacity="1" transform="matrix(1,0,0,1,5.05,13.314)" id="mark9 l" />
  <path d="M 0 351.947934829685 L 25 351.947934829685 L 25 353.447934829685 L 0 353.447934829685 Z " stroke="none" fill-rule="evenodd" fill="#000000" fill-opacity="1" transform="matrix(1,0,0,1,5.05,13.314)" id="mark10 l" />
  <path d="M 14.323999999999998 350.89793482968497 L 14.323999999999998 345.45393482968495 L 13.871999999999998 345.45393482968495 L 13.839999999999998 345.07393482968496 L 14.543999999999999 344.497934829685 L 15.424 344.497934829685 L 15.424 350.89793482968497 Z M 16.196 349.485934829685 C 16.188000000000002 349.0566014963516, 16.182666666666666 348.639934829685, 16.18 348.235934829685 C 16.177333333333333 347.831934829685, 16.177999999999997 347.4366014963516, 16.182 347.04993482968496 C 16.186 346.6632681630183, 16.190666666666665 346.281934829685, 16.196 345.90593482968495 C 16.209333333333333 345.46593482968495, 16.334000000000003 345.12060149635164, 16.57 344.86993482968495 C 16.805999999999997 344.6192681630183, 17.142666666666663 344.473934829685, 17.58 344.433934829685 L 17.58 345.32193482968495 C 17.382666666666665 345.37793482968493, 17.281333333333333 345.5072681630183, 17.276 345.709934829685 C 17.262666666666668 346.0806014963516, 17.253333333333334 346.42860149635163, 17.248 346.75393482968497 C 17.242666666666665 347.0792681630183, 17.24 347.39593482968496, 17.24 347.70393482968495 C 17.24 348.01193482968495, 17.242666666666665 348.3266014963516, 17.248 348.64793482968497 C 17.253333333333334 348.96926816301834, 17.262666666666668 349.31260149635165, 17.276 349.67793482968494 C 17.281333333333333 349.88593482968497, 17.382666666666665 350.017934829685, 17.58 350.07393482968496 L 17.58 350.961934829685 C 17.142666666666663 350.921934829685, 16.805999999999997 350.77593482968496, 16.57 350.52393482968495 C 16.334000000000003 350.27193482968494, 16.209333333333333 349.92593482968493, 16.196 349.485934829685 Z M 18.084 350.961934829685 L 18.084 350.069934829685 C 18.268 350.01660149635165, 18.366666666666667 349.89260149635163, 18.38 349.697934829685 C 18.398666666666667 349.23126816301834, 18.410666666666668 348.7826014963517, 18.416 348.351934829685 C 18.421333333333333 347.9212681630183, 18.421333333333333 347.4906014963516, 18.416 347.05993482968495 C 18.410666666666668 346.6292681630183, 18.398666666666667 346.1766014963516, 18.38 345.70193482968494 C 18.374666666666666 345.5072681630183, 18.276 345.38060149635163, 18.084 345.32193482968495 L 18.084 344.433934829685 C 18.513333333333335 344.473934829685, 18.846666666666668 344.6192681630183, 19.084 344.86993482968495 C 19.321333333333335 345.12060149635164, 19.445333333333334 345.46593482968495, 19.456 345.90593482968495 C 19.46666666666667 346.22060149635166, 19.474666666666668 346.53060149635166, 19.48 346.83593482968496 C 19.485333333333333 347.1412681630183, 19.488 347.441934829685, 19.488 347.73793482968495 C 19.488 348.033934829685, 19.485333333333333 348.3272681630183, 19.48 348.617934829685 C 19.474666666666668 348.90860149635165, 19.46666666666667 349.197934829685, 19.456 349.485934829685 C 19.439999999999998 349.9366014963516, 19.311999999999998 350.2852681630183, 19.072 350.531934829685 C 18.832 350.77860149635165, 18.502666666666666 350.921934829685, 18.084 350.961934829685 Z M 21.944 350.89793482968497 L 21.944 344.497934829685 L 23.003999999999998 344.497934829685 L 23.003999999999998 350.89793482968497 Z " stroke="none" fill-rule="nonzero" fill="#000000" fill-opacity="1" transform="matrix(1,0,0,1,5.05,13.314)" id="text10 l" />
  <path d="M 0 343.13048645894287 L 10 343.13048645894287 L 10 344.63048645894287 L 0 344.63048645894287 Z " stroke="none" fill-rule="evenodd" fill="#000000" fill-opacity="1" transform="matrix(1,0,0,1,5.05,13.314)" id="mark11 l" />
  <path d="M 0 334.31303808820076 L 10 334.31303808820076 L 10 335.81303808820076 L 0 335.81303808820076 Z " stroke="none" fill-rule="evenodd" fill="#000000" fill-opacity="1" transform="matrix(1,0,0,1,5.05,13.314)" id="mark12 l" />
  <path d="M 0 325.49558971745864 L 10 325.49558971745864 L 10 326.99558971745864 L 0 326.99558971745864 Z " stroke="none" fill-rule="evenodd" fill="#000000" fill-opacity="1" transform="matrix(1,0,0,1,5.05,13.314)" id="mark13 l" />
  <path d="M 0 316.6781413467165 L 10 316.6781413467165 L 10 318.1781413467165 L 0 318.1781413467165 Z " stroke="none" fill-rule="evenodd" fill="#000000" fill-opacity="1" transform="matrix(1,0,0,1,5.05,13.314)" id="mark14 l" />
  <path d="M 0 307.86069297597436 L 25 307.86069297597436 L 25 309.36069297597436 L 0 309.36069297597436 Z " stroke="none" fill-rule="evenodd" fill="#000000" fill-opacity="1" transform="matrix(1,0,0,1,5.05,13.314)" id="mark15 l" />
  <path d="M 14.331999999999999 306.77869297597437 L 14.331999999999999 301.33469297597435 L 13.879999999999999 301.33469297597435 L 13.847999999999999 300.95469297597435 L 14.552 300.3786929759744 L 15.432 300.3786929759744 L 15.432 306.77869297597437 Z M 16.18 305.36269297597437 C 16.174666666666667 305.189359642641, 16.173333333333332 305.05002630930767, 16.176 304.94469297597436 C 16.178666666666665 304.83935964264106, 16.181333333333335 304.737359642641, 16.183999999999997 304.6386929759744 L 17.264 304.6386929759744 C 17.256 304.7160263093077, 17.25 304.8120263093077, 17.246 304.9266929759744 C 17.241999999999997 305.04135964264105, 17.240666666666666 305.1520263093077, 17.241999999999997 305.2586929759744 C 17.243333333333332 305.365359642641, 17.246666666666666 305.44535964264105, 17.252 305.4986929759744 C 17.262666666666668 305.61869297597434, 17.297333333333334 305.71669297597435, 17.355999999999998 305.7926929759744 C 17.414666666666665 305.86869297597434, 17.497333333333334 305.92269297597437, 17.604 305.95469297597435 L 17.604 306.84669297597435 C 17.110666666666663 306.809359642641, 16.75333333333333 306.6746929759744, 16.532 306.44269297597435 C 16.310666666666666 306.2106929759743, 16.19333333333333 305.85069297597437, 16.18 305.36269297597437 Z M 16.279999999999998 304.02669297597436 L 16.279999999999998 300.3786929759744 L 17.348 300.3786929759744 L 17.348 304.02669297597436 Z M 17.852 303.6026929759744 L 17.852 302.84669297597435 C 17.929333333333332 302.80669297597433, 18.014666666666667 302.77469297597435, 18.107999999999997 302.75069297597435 C 18.20133333333333 302.72669297597434, 18.301333333333332 302.71469297597434, 18.407999999999998 302.71469297597434 C 18.773333333333333 302.71469297597434, 19.047333333333334 302.8300263093077, 19.23 303.06069297597435 C 19.412666666666667 303.291359642641, 19.514666666666663 303.605359642641, 19.535999999999998 304.00269297597436 C 19.546666666666667 304.1626929759744, 19.55333333333333 304.321359642641, 19.555999999999997 304.47869297597435 C 19.558666666666664 304.6360263093077, 19.557333333333332 304.78935964264105, 19.552 304.9386929759744 C 19.546666666666667 305.08802630930774, 19.538666666666668 305.2280263093077, 19.528 305.35869297597435 C 19.482666666666667 305.85735964264103, 19.353333333333335 306.2226929759744, 19.14 306.45469297597435 C 18.926666666666666 306.6866929759743, 18.581333333333333 306.817359642641, 18.104 306.84669297597435 L 18.104 305.95469297597435 C 18.21333333333333 305.925359642641, 18.296 305.87269297597436, 18.352 305.79669297597434 C 18.408 305.7206929759743, 18.44 305.62135964264104, 18.448 305.4986929759744 C 18.471999999999998 305.2080263093077, 18.485999999999997 304.9466929759744, 18.49 304.71469297597434 C 18.494 304.4826929759744, 18.485333333333333 304.2613596426411, 18.464 304.05069297597436 C 18.447999999999997 303.8960263093077, 18.396666666666665 303.7806929759744, 18.31 303.70469297597435 C 18.223333333333333 303.6286929759744, 18.090666666666664 303.5906929759744, 17.912 303.5906929759744 C 17.901333333333334 303.5906929759744, 17.890666666666668 303.5920263093077, 17.88 303.59469297597434 C 17.86933333333333 303.59735964264104, 17.86 303.6000263093077, 17.852 303.6026929759744 Z M 17.852 301.31069297597435 L 17.852 300.3786929759744 L 19.439999999999998 300.3786929759744 L 19.439999999999998 301.31069297597435 Z M 21.944 306.77869297597437 L 21.944 300.3786929759744 L 23.003999999999998 300.3786929759744 L 23.003999999999998 306.77869297597437 Z " stroke="none" fill-rule="nonzero" fill="#000000" fill-opacity="1" transform="matrix(1,0,0,1,5.05,13.314)" id="text15 l" />
  <path d="M 0 299.04324460523225 L 10 299.04324460523225 L 10 300.54324460523225 L 0 300.54324460523225 Z " stroke="none" fill-rule="evenodd" fill="#000000" fill-opacity="1" transform="matrix(1,0,0,1,5.05,13.314)" id="mark16 l" />
  <path d="M 0 290.22579623449013 L 10 290.22579623449013 L 10 291.72579623449013 L 0 291.72579623449013 Z " stroke="none" fill-rule="evenodd" fill="#000000" fill-opacity="1" transform="matrix(1,0,0,1,5.05,13.314)" id="mark17 l" />
  <path d="M 0 281.40834786374796 L 10 281.40834786374796 L 10 282.90834786374796 L 0 282.90834786374796 Z " stroke="none" fill-rule="evenodd" fill="#000000" fill-opacity="1" transform="matrix(1,0,0,1,5.05,13.314)" id="mark18 l" />
  <path d="M 0 272.59089949300585 L 10 272.59089949300585 L 10 274.09089949300585 L 0 274.09089949300585 Z " stroke="none" fill-rule="evenodd" fill="#000000" fill-opacity="1" transform="matrix(1,0,0,1,5.05,13.314)" id="mark19 l" />
  <path d="M 0 263.77345112226374 L 25 263.77345112226374 L 25 265.27345112226374 L 0 265.27345112226374 Z " stroke="none" fill-rule="evenodd" fill="#000000" fill-opacity="1" transform="matrix(1,0,0,1,5.05,13.314)" id="mark20 l" />
  <path d="M 12.319999999999999 262.7234511222637 C 12.317333333333334 262.624784455597, 12.315333333333331 262.53611778893037, 12.313999999999998 262.4574511222637 C 12.312666666666665 262.37878445559704, 12.311333333333334 262.30478445559703, 12.309999999999999 262.2354511222637 C 12.308666666666667 262.1661177889304, 12.308 262.0941177889304, 12.308 262.0194511222637 C 12.308 261.9447844555971, 12.308 261.8601177889304, 12.308 261.7654511222637 C 12.308 261.670784455597, 12.309333333333335 261.5594511222637, 12.312 261.43145112226375 C 12.32 261.13811778893034, 12.37 260.8761177889304, 12.462 260.64545112226375 C 12.554 260.4147844555971, 12.687999999999999 260.2087844555971, 12.863999999999999 260.0274511222637 C 13.04 259.84611778893037, 13.257333333333333 259.684784455597, 13.515999999999998 259.5434511222637 L 14.047999999999998 259.2554511222637 C 14.234666666666666 259.15411778893036, 14.354 259.0321177889304, 14.405999999999999 258.8894511222637 C 14.457999999999998 258.74678445559704, 14.488 258.6127844555971, 14.495999999999999 258.48745112226374 C 14.506666666666664 258.34078445559703, 14.512666666666664 258.1841177889304, 14.514 258.0174511222637 C 14.51533333333333 257.850784455597, 14.511999999999997 257.6941177889304, 14.504 257.54745112226374 C 14.498666666666665 257.4434511222637, 14.468666666666666 257.3574511222637, 14.413999999999998 257.2894511222637 C 14.359333333333332 257.2214511222637, 14.279999999999998 257.1727844555971, 14.175999999999998 257.14345112226374 L 14.175999999999998 256.2554511222637 C 14.663999999999998 256.2874511222637, 15.014 256.41878445559706, 15.225999999999999 256.6494511222637 C 15.437999999999999 256.88011778893036, 15.554666666666666 257.240784455597, 15.575999999999999 257.7314511222637 C 15.578666666666663 257.79545112226367, 15.580666666666666 257.860784455597, 15.581999999999999 257.92745112226373 C 15.583333333333332 257.99411778893034, 15.584 258.05878445559705, 15.584 258.12145112226375 C 15.584 258.1841177889304, 15.583333333333332 258.2461177889304, 15.581999999999999 258.3074511222637 C 15.580666666666666 258.36878445559705, 15.578666666666663 258.42878445559705, 15.575999999999999 258.48745112226374 C 15.565333333333331 258.77278445559705, 15.512 259.0194511222637, 15.415999999999999 259.22745112226374 C 15.32 259.4354511222637, 15.19 259.6154511222637, 15.026 259.7674511222637 C 14.862 259.9194511222637, 14.672 260.0554511222637, 14.456 260.1754511222637 L 13.851999999999999 260.5034511222637 C 13.737333333333332 260.5647844555971, 13.647333333333332 260.6487844555971, 13.581999999999999 260.7554511222637 C 13.516666666666666 260.8621177889304, 13.469999999999999 260.97545112226373, 13.441999999999998 261.09545112226374 C 13.413999999999998 261.21545112226374, 13.399999999999999 261.3274511222637, 13.399999999999999 261.43145112226375 L 13.399999999999999 262.7234511222637 Z M 12.328 258.6834511222637 C 12.322666666666667 258.5661177889304, 12.318666666666665 258.45145112226373, 12.315999999999999 258.3394511222637 C 12.313333333333333 258.2274511222637, 12.311333333333334 258.1214511222637, 12.309999999999999 258.0214511222637 C 12.308666666666667 257.92145112226376, 12.309333333333335 257.82478445559707, 12.312 257.7314511222637 C 12.330666666666666 257.24345112226376, 12.447333333333333 256.88411778893044, 12.661999999999999 256.65345112226373 C 12.876666666666665 256.422784455597, 13.213333333333331 256.2901177889304, 13.671999999999999 256.2554511222637 L 13.671999999999999 257.1474511222637 C 13.576 257.17678445559704, 13.505333333333333 257.2234511222637, 13.459999999999999 257.28745112226375 C 13.414666666666665 257.35145112226377, 13.390666666666664 257.42878445559705, 13.387999999999998 257.5194511222637 C 13.382666666666665 257.72745112226374, 13.379333333333333 257.9207844555971, 13.378 258.0994511222637 C 13.376666666666667 258.2781177889304, 13.381333333333334 258.47278445559704, 13.392 258.6834511222637 Z M 13.904 262.7234511222637 L 13.904 261.7914511222637 L 15.5 261.7914511222637 L 15.5 262.7234511222637 Z M 16.196 261.31145112226375 C 16.188000000000002 260.88211778893043, 16.182666666666666 260.46545112226374, 16.18 260.06145112226375 C 16.177333333333333 259.65745112226375, 16.177999999999997 259.2621177889304, 16.182 258.8754511222637 C 16.186 258.48878445559706, 16.190666666666665 258.1074511222637, 16.196 257.7314511222637 C 16.209333333333333 257.29145112226377, 16.334000000000003 256.9461177889304, 16.57 256.6954511222637 C 16.805999999999997 256.4447844555971, 17.142666666666663 256.29945112226375, 17.58 256.2594511222637 L 17.58 257.1474511222637 C 17.382666666666665 257.2034511222637, 17.281333333333333 257.33278445559705, 17.276 257.53545112226374 C 17.262666666666668 257.9061177889304, 17.253333333333334 258.2541177889304, 17.248 258.5794511222637 C 17.242666666666665 258.90478445559705, 17.24 259.2214511222637, 17.24 259.5294511222637 C 17.24 259.8374511222637, 17.242666666666665 260.15211778893035, 17.248 260.4734511222637 C 17.253333333333334 260.7947844555971, 17.262666666666668 261.1381177889304, 17.276 261.5034511222637 C 17.281333333333333 261.7114511222637, 17.382666666666665 261.84345112226373, 17.58 261.8994511222637 L 17.58 262.78745112226375 C 17.142666666666663 262.7474511222638, 16.805999999999997 262.6014511222637, 16.57 262.3494511222637 C 16.334000000000003 262.0974511222637, 16.209333333333333 261.75145112226375, 16.196 261.31145112226375 Z M 18.084 262.78745112226375 L 18.084 261.89545112226375 C 18.268 261.8421177889304, 18.366666666666667 261.7181177889304, 18.38 261.52345112226374 C 18.398666666666667 261.05678445559704, 18.410666666666668 260.6081177889304, 18.416 260.17745112226373 C 18.421333333333333 259.7467844555971, 18.421333333333333 259.3161177889304, 18.416 258.8854511222637 C 18.410666666666668 258.45478445559706, 18.398666666666667 258.0021177889304, 18.38 257.5274511222637 C 18.374666666666666 257.33278445559705, 18.276 257.2061177889304, 18.084 257.1474511222637 L 18.084 256.2594511222637 C 18.513333333333335 256.29945112226375, 18.846666666666668 256.4447844555971, 19.084 256.6954511222637 C 19.321333333333335 256.9461177889304, 19.445333333333334 257.29145112226377, 19.456 257.7314511222637 C 19.46666666666667 258.04611778893036, 19.474666666666668 258.3561177889304, 19.48 258.6614511222637 C 19.485333333333333 258.96678445559706, 19.488 259.2674511222637, 19.488 259.5634511222637 C 19.488 259.8594511222637, 19.485333333333333 260.15278445559704, 19.48 260.44345112226375 C 19.474666666666668 260.7341177889304, 19.46666666666667 261.02345112226374, 19.456 261.31145112226375 C 19.439999999999998 261.7621177889304, 19.311999999999998 262.11078445559707, 19.072 262.35745112226374 C 18.832 262.6041177889304, 18.502666666666666 262.7474511222638, 18.084 262.78745112226375 Z M 21.944 262.7234511222637 L 21.944 256.32345112226375 L 23.003999999999998 256.32345112226375 L 23.003999999999998 262.7234511222637 Z " stroke="none" fill-rule="nonzero" fill="#000000" fill-opacity="1" transform="matrix(1,0,0,1,5.05,13.314)" id="text20 l" />
  <path d="M 0 254.95600275152162 L 10 254.95600275152162 L 10 256.4560027515216 L 0 256.4560027515216 Z " stroke="none" fill-rule="evenodd" fill="#000000" fill-opacity="1" transform="matrix(1,0,0,1,5.05,13.314)" id="mark21 l" />
  <path d="M 0 246.1385543807795 L 10 246.1385543807795 L 10 247.6385543807795 L 0 247.6385543807795 Z " stroke="none" fill-rule="evenodd" fill="#000000" fill-opacity="1" transform="matrix(1,0,0,1,5.05,13.314)" id="mark22 l" />
  <path d="M 0 237.32110601003737 L 10 237.32110601003737 L 10 238.82110601003737 L 0 238.82110601003737 Z " stroke="none" fill-rule="evenodd" fill="#000000" fill-opacity="1" transform="matrix(1,0,0,1,5.05,13.314)" id="mark23 l" />
  <path d="M 0 228.50365763929526 L 10 228.50365763929526 L 10 230.00365763929526 L 0 230.00365763929526 Z " stroke="none" fill-rule="evenodd" fill="#000000" fill-opacity="1" transform="matrix(1,0,0,1,5.05,13.314)" id="mark24 l" />
  <path d="M 0 219.6862092685531 L 25 219.6862092685531 L 25 221.1862092685531 L 0 221.1862092685531 Z " stroke="none" fill-rule="evenodd" fill="#000000" fill-opacity="1" transform="matrix(1,0,0,1,5.05,13.314)" id="mark25 l" />
  <path d="M 12.328 218.63620926855313 C 12.325333333333333 218.53754260188646, 12.323333333333332 218.4488759352198, 12.322 218.37020926855314 C 12.320666666666666 218.29154260188648, 12.319333333333333 218.21754260188646, 12.318 218.14820926855313 C 12.316666666666666 218.0788759352198, 12.315999999999999 218.0068759352198, 12.316 217.93220926855312 C 12.315999999999999 217.85754260188645, 12.315999999999999 217.77287593521982, 12.316 217.67820926855313 C 12.315999999999999 217.58354260188645, 12.317333333333334 217.47220926855312, 12.32 217.34420926855313 C 12.328 217.05087593521978, 12.378 216.78887593521978, 12.47 216.55820926855313 C 12.562000000000001 216.32754260188648, 12.696 216.12154260188646, 12.872 215.94020926855313 C 13.048 215.7588759352198, 13.265333333333334 215.59754260188646, 13.524000000000001 215.45620926855312 L 14.056000000000001 215.16820926855314 C 14.242666666666668 215.0668759352198, 14.362000000000002 214.94487593521978, 14.414 214.80220926855313 C 14.466000000000001 214.65954260188647, 14.495999999999999 214.52554260188646, 14.504 214.40020926855314 C 14.514666666666667 214.25354260188647, 14.520666666666667 214.09687593521983, 14.522 213.93020926855314 C 14.523333333333333 213.76354260188646, 14.520000000000001 213.60687593521982, 14.512 213.46020926855314 C 14.506666666666666 213.35620926855313, 14.476666666666667 213.27020926855315, 14.422 213.20220926855313 C 14.367333333333335 213.13420926855312, 14.288 213.08554260188646, 14.184000000000001 213.05620926855312 L 14.184000000000001 212.16820926855314 C 14.672 212.20020926855312, 15.022000000000002 212.33154260188647, 15.234 212.56220926855312 C 15.446000000000002 212.7928759352198, 15.562666666666667 213.15354260188647, 15.584 213.64420926855314 C 15.586666666666668 213.70820926855313, 15.588666666666668 213.77354260188645, 15.59 213.84020926855314 C 15.591333333333335 213.90687593521977, 15.592000000000002 213.97154260188645, 15.592 214.03420926855313 C 15.592000000000002 214.0968759352198, 15.591333333333335 214.15887593521978, 15.59 214.22020926855313 C 15.588666666666668 214.28154260188643, 15.586666666666668 214.34154260188643, 15.584 214.40020926855314 C 15.573333333333332 214.68554260188648, 15.52 214.93220926855315, 15.424 215.14020926855312 C 15.328 215.34820926855315, 15.197999999999999 215.52820926855316, 15.033999999999999 215.68020926855314 C 14.87 215.83220926855313, 14.68 215.96820926855315, 14.464 216.08820926855313 L 13.86 216.41620926855313 C 13.745333333333335 216.47754260188646, 13.655333333333335 216.56154260188646, 13.59 216.66820926855314 C 13.524666666666668 216.77487593521982, 13.478000000000002 216.88820926855314, 13.45 217.00820926855312 C 13.422 217.12820926855312, 13.408 217.24020926855314, 13.408 217.34420926855313 L 13.408 218.63620926855313 Z M 12.336 214.59620926855314 C 12.330666666666666 214.47887593521978, 12.326666666666664 214.3642092685531, 12.324 214.25220926855314 C 12.321333333333332 214.14020926855312, 12.319333333333333 214.03420926855313, 12.318 213.93420926855313 C 12.316666666666666 213.83420926855314, 12.317333333333334 213.73754260188647, 12.32 213.64420926855314 C 12.338666666666668 213.15620926855314, 12.455333333333336 212.79687593521982, 12.67 212.56620926855314 C 12.884666666666668 212.33554260188646, 13.221333333333334 212.20287593521982, 13.68 212.16820926855314 L 13.68 213.06020926855314 C 13.584 213.08954260188648, 13.513333333333332 213.1362092685531, 13.468 213.20020926855312 C 13.422666666666668 213.26420926855315, 13.398666666666667 213.3415426018865, 13.396 213.43220926855312 C 13.390666666666666 213.64020926855312, 13.387333333333332 213.83354260188645, 13.386 214.01220926855314 C 13.384666666666666 214.19087593521982, 13.389333333333333 214.38554260188647, 13.4 214.59620926855314 Z M 13.911999999999999 218.63620926855313 L 13.911999999999999 217.70420926855314 L 15.508 217.70420926855314 L 15.508 218.63620926855313 Z M 16.18 217.22020926855313 C 16.174666666666667 217.04687593521982, 16.173333333333332 216.90754260188646, 16.176 216.80220926855313 C 16.178666666666665 216.6968759352198, 16.181333333333335 216.59487593521982, 16.183999999999997 216.49620926855314 L 17.264 216.49620926855314 C 17.256 216.57354260188646, 17.25 216.66954260188646, 17.246 216.78420926855313 C 17.241999999999997 216.8988759352198, 17.240666666666666 217.00954260188647, 17.241999999999997 217.11620926855312 C 17.243333333333332 217.22287593521978, 17.246666666666666 217.3028759352198, 17.252 217.35620926855313 C 17.262666666666668 217.47620926855313, 17.297333333333334 217.57420926855315, 17.355999999999998 217.65020926855314 C 17.414666666666665 217.72620926855313, 17.497333333333334 217.7802092685531, 17.604 217.81220926855312 L 17.604 218.70420926855314 C 17.110666666666663 218.6668759352198, 16.75333333333333 218.53220926855312, 16.532 218.30020926855312 C 16.310666666666666 218.06820926855312, 16.19333333333333 217.7082092685531, 16.18 217.22020926855313 Z M 16.279999999999998 215.88420926855312 L 16.279999999999998 212.23620926855313 L 17.348 212.23620926855313 L 17.348 215.88420926855312 Z M 17.852 215.46020926855314 L 17.852 214.70420926855314 C 17.929333333333332 214.66420926855312, 18.014666666666667 214.63220926855314, 18.107999999999997 214.60820926855314 C 18.20133333333333 214.58420926855314, 18.301333333333332 214.57220926855314, 18.407999999999998 214.57220926855314 C 18.773333333333333 214.57220926855314, 19.047333333333334 214.68754260188646, 19.23 214.91820926855314 C 19.412666666666667 215.14887593521982, 19.514666666666663 215.4628759352198, 19.535999999999998 215.86020926855312 C 19.546666666666667 216.02020926855312, 19.55333333333333 216.17887593521976, 19.555999999999997 216.33620926855312 C 19.558666666666664 216.49354260188647, 19.557333333333332 216.64687593521978, 19.552 216.79620926855313 C 19.546666666666667 216.94554260188647, 19.538666666666668 217.08554260188646, 19.528 217.21620926855314 C 19.482666666666667 217.71487593521982, 19.353333333333335 218.08020926855312, 19.14 218.31220926855312 C 18.926666666666666 218.54420926855312, 18.581333333333333 218.6748759352198, 18.104 218.70420926855314 L 18.104 217.81220926855312 C 18.21333333333333 217.7828759352198, 18.296 217.73020926855315, 18.352 217.65420926855313 C 18.408 217.5782092685531, 18.44 217.47887593521978, 18.448 217.35620926855313 C 18.471999999999998 217.06554260188648, 18.485999999999997 216.80420926855314, 18.49 216.57220926855314 C 18.494 216.34020926855314, 18.485333333333333 216.11887593521982, 18.464 215.90820926855312 C 18.447999999999997 215.75354260188647, 18.396666666666665 215.6382092685531, 18.31 215.56220926855312 C 18.223333333333333 215.48620926855313, 18.090666666666664 215.44820926855311, 17.912 215.44820926855314 C 17.901333333333334 215.44820926855311, 17.890666666666668 215.44954260188646, 17.88 215.45220926855313 C 17.86933333333333 215.4548759352198, 17.86 215.45754260188647, 17.852 215.46020926855314 Z M 17.852 213.16820926855314 L 17.852 212.23620926855313 L 19.439999999999998 212.23620926855313 L 19.439999999999998 213.16820926855314 Z M 21.944 218.63620926855313 L 21.944 212.23620926855313 L 23.003999999999998 212.23620926855313 L 23.003999999999998 218.63620926855313 Z " stroke="none" fill-rule="nonzero" fill="#000000" fill-opacity="1" transform="matrix(1,0,0,1,5.05,13.314)" id="text25 l" />
  <path d="M 0 210.868760897811 L 10 210.868760897811 L 10 212.368760897811 L 0 212.368760897811 Z " stroke="none" fill-rule="evenodd" fill="#000000" fill-opacity="1" transform="matrix(1,0,0,1,5.05,13.314)" id="mark26 l" />
  <path d="M 0 202.0513125270689 L 10 202.0513125270689 L 10 203.5513125270689 L 0 203.5513125270689 Z " stroke="none" fill-rule="evenodd" fill="#000000" fill-opacity="1" transform="matrix(1,0,0,1,5.05,13.314)" id="mark27 l" />
  <path d="M 0 193.23386415632675 L 10 193.23386415632675 L 10 194.73386415632675 L 0 194.73386415632675 Z " stroke="none" fill-rule="evenodd" fill="#000000" fill-opacity="1" transform="matrix(1,0,0,1,5.05,13.314)" id="mark28 l" />
  <path d="M 0 184.41641578558463 L 10 184.41641578558463 L 10 185.91641578558463 L 0 185.91641578558463 Z " stroke="none" fill-rule="evenodd" fill="#000000" fill-opacity="1" transform="matrix(1,0,0,1,5.05,13.314)" id="mark29 l" />
  <path d="M 0 175.5989674148425 L 25 175.5989674148425 L 25 177.0989674148425 L 0 177.0989674148425 Z " stroke="none" fill-rule="evenodd" fill="#000000" fill-opacity="1" transform="matrix(1,0,0,1,5.05,13.314)" id="mark30 l" />
  <path d="M 12.223999999999998 173.1329674148425 C 12.221333333333334 173.03163408150917, 12.219333333333333 172.94763408150916, 12.218 172.8809674148425 C 12.216666666666667 172.81430074817584, 12.216666666666667 172.74630074817586, 12.218 172.67696741484252 C 12.219333333333333 172.6076340815092, 12.221333333333334 172.51830074817585, 12.223999999999998 172.40896741484252 L 13.303999999999998 172.40896741484252 L 13.303999999999998 173.2729674148425 C 13.303999999999998 173.51030074817584, 13.417333333333332 173.6609674148425, 13.643999999999998 173.7249674148425 L 13.643999999999998 174.61696741484252 C 13.155999999999999 174.57963408150917, 12.800666666666665 174.4449674148425, 12.578 174.2129674148425 C 12.355333333333334 173.9809674148425, 12.237333333333332 173.6209674148425, 12.223999999999998 173.1329674148425 Z M 12.292 169.08096741484252 L 12.292 168.1489674148425 L 15.536 168.1489674148425 L 15.536 169.08096741484252 Z M 14.143999999999998 173.72896741484251 C 14.367999999999999 173.6729674148425, 14.483999999999998 173.52230074817584, 14.491999999999999 173.27696741484252 C 14.497333333333334 173.07430074817586, 14.500666666666666 172.89163408150918, 14.501999999999999 172.72896741484251 C 14.503333333333332 172.56630074817585, 14.498666666666665 172.4089674148425, 14.488 172.2569674148425 C 14.48 172.09963408150918, 14.431999999999999 171.96630074817585, 14.344 171.8569674148425 C 14.256 171.74763408150918, 14.089333333333332 171.69563408150918, 13.844 171.7009674148425 L 13.096 171.7089674148425 L 13.068 170.8169674148425 L 14.027999999999999 169.4329674148425 L 15.216 169.4329674148425 L 14.248 170.7849674148425 L 14.28 170.7849674148425 C 14.712 170.7849674148425, 15.028666666666666 170.90763408150917, 15.229999999999999 171.15296741484252 C 15.431333333333333 171.39830074817587, 15.544 171.77563408150917, 15.568 172.2849674148425 C 15.57333333333333 172.3569674148425, 15.576666666666664 172.4289674148425, 15.578 172.5009674148425 C 15.57933333333333 172.5729674148425, 15.579999999999998 172.64363408150916, 15.579999999999998 172.7129674148425 C 15.579999999999998 172.78230074817583, 15.57933333333333 172.85163408150916, 15.578 172.9209674148425 C 15.576666666666664 172.99030074817583, 15.57333333333333 173.0609674148425, 15.568 173.1329674148425 C 15.549333333333333 173.62896741484252, 15.428666666666665 173.99363408150919, 15.206 174.2269674148425 C 14.983333333333334 174.46030074817583, 14.630666666666666 174.59030074817585, 14.148 174.61696741484252 Z M 16.196 173.1369674148425 C 16.188000000000002 172.70763408150916, 16.182666666666666 172.2909674148425, 16.18 171.8869674148425 C 16.177333333333333 171.4829674148425, 16.177999999999997 171.08763408150918, 16.182 170.7009674148425 C 16.186 170.31430074817584, 16.190666666666665 169.93296741484252, 16.196 169.55696741484252 C 16.209333333333333 169.11696741484252, 16.334000000000003 168.77163408150918, 16.57 168.52096741484252 C 16.805999999999997 168.27030074817586, 17.142666666666663 168.1249674148425, 17.58 168.0849674148425 L 17.58 168.97296741484251 C 17.382666666666665 169.02896741484253, 17.281333333333333 169.15830074817586, 17.276 169.36096741484252 C 17.262666666666668 169.73163408150918, 17.253333333333334 170.07963408150917, 17.248 170.4049674148425 C 17.242666666666665 170.73030074817584, 17.24 171.0469674148425, 17.24 171.35496741484252 C 17.24 171.6629674148425, 17.242666666666665 171.97763408150917, 17.248 172.2989674148425 C 17.253333333333334 172.62030074817585, 17.262666666666668 172.96363408150918, 17.276 173.3289674148425 C 17.281333333333333 173.5369674148425, 17.382666666666665 173.6689674148425, 17.58 173.7249674148425 L 17.58 174.6129674148425 C 17.142666666666663 174.5729674148425, 16.805999999999997 174.4269674148425, 16.57 174.1749674148425 C 16.334000000000003 173.9229674148425, 16.209333333333333 173.5769674148425, 16.196 173.1369674148425 Z M 18.084 174.6129674148425 L 18.084 173.7209674148425 C 18.268 173.66763408150916, 18.366666666666667 173.5436340815092, 18.38 173.34896741484252 C 18.398666666666667 172.88230074817585, 18.410666666666668 172.43363408150918, 18.416 172.00296741484252 C 18.421333333333333 171.57230074817585, 18.421333333333333 171.14163408150915, 18.416 170.71096741484251 C 18.410666666666668 170.28030074817582, 18.398666666666667 169.82763408150916, 18.38 169.3529674148425 C 18.374666666666666 169.15830074817583, 18.276 169.03163408150917, 18.084 168.97296741484251 L 18.084 168.0849674148425 C 18.513333333333335 168.1249674148425, 18.846666666666668 168.27030074817586, 19.084 168.52096741484252 C 19.321333333333335 168.77163408150918, 19.445333333333334 169.11696741484252, 19.456 169.55696741484252 C 19.46666666666667 169.87163408150917, 19.474666666666668 170.18163408150917, 19.48 170.4869674148425 C 19.485333333333333 170.79230074817582, 19.488 171.09296741484252, 19.488 171.3889674148425 C 19.488 171.6849674148425, 19.485333333333333 171.97830074817583, 19.48 172.2689674148425 C 19.474666666666668 172.5596340815092, 19.46666666666667 172.84896741484252, 19.456 173.1369674148425 C 19.439999999999998 173.58763408150918, 19.311999999999998 173.93630074817582, 19.072 174.1829674148425 C 18.832 174.42963408150916, 18.502666666666666 174.5729674148425, 18.084 174.6129674148425 Z M 21.944 174.5489674148425 L 21.944 168.1489674148425 L 23.003999999999998 168.1489674148425 L 23.003999999999998 174.5489674148425 Z " stroke="none" fill-rule="nonzero" fill="#000000" fill-opacity="1" transform="matrix(1,0,0,1,5.05,13.314)" id="text30 l" />
  <path d="M 0 166.78151904410038 L 10 166.78151904410038 L 10 168.28151904410038 L 0 168.28151904410038 Z " stroke="none" fill-rule="evenodd" fill="#000000" fill-opacity="1" transform="matrix(1,0,0,1,5.05,13.314)" id="mark31 l" />
  <path d="M 0 157.96407067335826 L 10 157.96407067335826 L 10 159.46407067335826 L 0 159.46407067335826 Z " stroke="none" fill-rule="evenodd" fill="#000000" fill-opacity="1" transform="matrix(1,0,0,1,5.05,13.314)" id="mark32 l" />
  <path d="M 0 149.14662230261615 L 10 149.14662230261615 L 10 150.64662230261615 L 0 150.64662230261615 Z " stroke="none" fill-rule="evenodd" fill="#000000" fill-opacity="1" transform="matrix(1,0,0,1,5.05,13.314)" id="mark33 l" />
  <path d="M 0 140.32917393187404 L 10 140.32917393187404 L 10 141.82917393187404 L 0 141.82917393187404 Z " stroke="none" fill-rule="evenodd" fill="#000000" fill-opacity="1" transform="matrix(1,0,0,1,5.05,13.314)" id="mark34 l" />
  <path d="M 0 131.51172556113187 L 25 131.51172556113187 L 25 133.01172556113187 L 0 133.01172556113187 Z " stroke="none" fill-rule="evenodd" fill="#000000" fill-opacity="1" transform="matrix(1,0,0,1,5.05,13.314)" id="mark35 l" />
  <path d="M 12.232 129.01372556113188 C 12.229333333333333 128.91239222779853, 12.227333333333334 128.82839222779853, 12.226 128.76172556113187 C 12.224666666666668 128.6950588944652, 12.224666666666668 128.62705889446522, 12.226 128.55772556113186 C 12.227333333333334 128.48839222779856, 12.229333333333333 128.3990588944652, 12.232 128.2897255611319 L 13.312 128.2897255611319 L 13.312 129.15372556113186 C 13.312 129.39105889446523, 13.425333333333333 129.5417255611319, 13.652 129.60572556113186 L 13.652 130.4977255611319 C 13.164 130.46039222779854, 12.808666666666667 130.3257255611319, 12.586 130.09372556113186 C 12.363333333333333 129.8617255611319, 12.245333333333335 129.50172556113188, 12.232 129.01372556113188 Z M 12.3 124.96172556113187 L 12.3 124.02972556113187 L 15.544 124.02972556113187 L 15.544 124.96172556113187 Z M 14.152000000000001 129.60972556113188 C 14.376000000000001 129.55372556113187, 14.492 129.4030588944652, 14.5 129.15772556113188 C 14.505333333333333 128.95505889446522, 14.508666666666667 128.77239222779855, 14.51 128.60972556113188 C 14.511333333333333 128.44705889446521, 14.506666666666668 128.2897255611319, 14.496 128.13772556113187 C 14.488 127.98039222779855, 14.440000000000001 127.84705889446519, 14.352 127.73772556113187 C 14.264 127.62839222779854, 14.097333333333335 127.57639222779855, 13.852 127.58172556113188 L 13.104 127.58972556113187 L 13.076 126.69772556113188 L 14.036 125.31372556113187 L 15.224 125.31372556113187 L 14.256 126.66572556113188 L 14.288 126.66572556113188 C 14.719999999999999 126.66572556113186, 15.036666666666665 126.78839222779854, 15.238 127.03372556113187 C 15.439333333333334 127.27905889446521, 15.552 127.65639222779853, 15.576 128.16572556113186 C 15.581333333333333 128.23772556113187, 15.584666666666667 128.30972556113187, 15.586 128.38172556113187 C 15.587333333333333 128.45372556113188, 15.588000000000001 128.52439222779856, 15.588000000000001 128.59372556113186 C 15.588000000000001 128.66305889446522, 15.587333333333333 128.73239222779856, 15.586 128.8017255611319 C 15.584666666666667 128.87105889446522, 15.581333333333333 128.94172556113188, 15.576 129.01372556113188 C 15.557333333333334 129.5097255611319, 15.436666666666667 129.87439222779855, 15.214 130.10772556113187 C 14.991333333333333 130.3410588944652, 14.638666666666666 130.47105889446522, 14.156 130.4977255611319 Z M 16.18 129.01372556113188 C 16.174666666666667 128.84039222779856, 16.173333333333332 128.7010588944652, 16.176 128.59572556113187 C 16.178666666666665 128.49039222779854, 16.181333333333335 128.38839222779856, 16.183999999999997 128.2897255611319 L 17.264 128.2897255611319 C 17.256 128.3670588944652, 17.25 128.4630588944652, 17.246 128.57772556113187 C 17.241999999999997 128.69239222779854, 17.240666666666666 128.8030588944652, 17.241999999999997 128.90972556113186 C 17.243333333333332 129.01639222779852, 17.246666666666666 129.09639222779853, 17.252 129.14972556113187 C 17.262666666666668 129.26972556113188, 17.297333333333334 129.3677255611319, 17.355999999999998 129.44372556113188 C 17.414666666666665 129.51972556113188, 17.497333333333334 129.57372556113188, 17.604 129.60572556113186 L 17.604 130.4977255611319 C 17.110666666666663 130.46039222779854, 16.75333333333333 130.3257255611319, 16.532 130.09372556113186 C 16.310666666666666 129.8617255611319, 16.19333333333333 129.50172556113188, 16.18 129.01372556113188 Z M 16.279999999999998 127.67772556113188 L 16.279999999999998 124.02972556113187 L 17.348 124.02972556113187 L 17.348 127.67772556113188 Z M 17.852 127.25372556113187 L 17.852 126.49772556113187 C 17.929333333333332 126.45772556113187, 18.014666666666667 126.42572556113187, 18.107999999999997 126.40172556113187 C 18.20133333333333 126.37772556113188, 18.301333333333332 126.36572556113188, 18.407999999999998 126.36572556113188 C 18.773333333333333 126.36572556113188, 19.047333333333334 126.4810588944652, 19.23 126.71172556113187 C 19.412666666666667 126.94239222779854, 19.514666666666663 127.25639222779856, 19.535999999999998 127.65372556113188 C 19.546666666666667 127.81372556113189, 19.55333333333333 127.97239222779854, 19.555999999999997 128.12972556113186 C 19.558666666666664 128.28705889446522, 19.557333333333332 128.44039222779855, 19.552 128.58972556113187 C 19.546666666666667 128.7390588944652, 19.538666666666668 128.8790588944652, 19.528 129.0097255611319 C 19.482666666666667 129.50839222779854, 19.353333333333335 129.87372556113186, 19.14 130.10572556113186 C 18.926666666666666 130.33772556113186, 18.581333333333333 130.46839222779855, 18.104 130.4977255611319 L 18.104 129.60572556113186 C 18.21333333333333 129.57639222779852, 18.296 129.52372556113187, 18.352 129.44772556113188 C 18.408 129.37172556113188, 18.44 129.27239222779855, 18.448 129.14972556113187 C 18.471999999999998 128.8590588944652, 18.485999999999997 128.59772556113188, 18.49 128.36572556113188 C 18.494 128.13372556113188, 18.485333333333333 127.91239222779853, 18.464 127.70172556113188 C 18.447999999999997 127.54705889446521, 18.396666666666665 127.43172556113188, 18.31 127.35572556113188 C 18.223333333333333 127.27972556113187, 18.090666666666664 127.24172556113187, 17.912 127.24172556113187 C 17.901333333333334 127.24172556113187, 17.890666666666668 127.24305889446521, 17.88 127.24572556113188 C 17.86933333333333 127.24839222779853, 17.86 127.25105889446519, 17.852 127.25372556113187 Z M 17.852 124.96172556113187 L 17.852 124.02972556113187 L 19.439999999999998 124.02972556113187 L 19.439999999999998 124.96172556113187 Z M 21.944 130.42972556113187 L 21.944 124.02972556113187 L 23.003999999999998 124.02972556113187 L 23.003999999999998 130.42972556113187 Z " stroke="none" fill-rule="nonzero" fill="#000000" fill-opacity="1" transform="matrix(1,0,0,1,5.05,13.314)" id="text35 l" />
  <path d="M 0 122.69427719038976 L 10 122.69427719038976 L 10 124.19427719038976 L 0 124.19427719038976 Z " stroke="none" fill-rule="evenodd" fill="#000000" fill-opacity="1" transform="matrix(1,0,0,1,5.05,13.314)" id="mark36 l" />
  <path d="M 0 113.87682881964764 L 10 113.87682881964764 L 10 115.37682881964764 L 0 115.37682881964764 Z " stroke="none" fill-rule="evenodd" fill="#000000" fill-opacity="1" transform="matrix(1,0,0,1,5.05,13.314)" id="mark37 l" />
  <path d="M 0 105.05938044890553 L 10 105.05938044890553 L 10 106.55938044890553 L 0 106.55938044890553 Z " stroke="none" fill-rule="evenodd" fill="#000000" fill-opacity="1" transform="matrix(1,0,0,1,5.05,13.314)" id="mark38 l" />
  <path d="M 0 96.24193207816342 L 10 96.24193207816342 L 10 97.74193207816342 L 0 97.74193207816342 Z " stroke="none" fill-rule="evenodd" fill="#000000" fill-opacity="1" transform="matrix(1,0,0,1,5.05,13.314)" id="mark39 l" />
  <path d="M 0 87.42448370742125 L 25 87.42448370742125 L 25 88.92448370742125 L 0 88.92448370742125 Z " stroke="none" fill-rule="evenodd" fill="#000000" fill-opacity="1" transform="matrix(1,0,0,1,5.05,13.314)" id="mark40 l" />
  <path d="M 11.739999999999998 84.69048370742125 L 11.739999999999998 83.81448370742125 L 12.455999999999998 81.93448370742125 L 13.495999999999999 81.93448370742125 L 12.771999999999998 83.76648370742124 L 13.171999999999997 83.76648370742124 L 13.171999999999997 84.69048370742125 Z M 13.675999999999998 86.37448370742125 L 13.675999999999998 79.97448370742124 L 14.683999999999997 79.97448370742124 L 14.683999999999997 86.37448370742125 Z M 15.187999999999999 84.69048370742125 L 15.187999999999999 83.76648370742124 L 15.655999999999999 83.76648370742124 L 15.655999999999999 84.69048370742125 Z M 16.195999999999998 84.96248370742124 C 16.188 84.53315037408791, 16.182666666666666 84.11648370742125, 16.18 83.71248370742124 C 16.177333333333333 83.30848370742125, 16.177999999999997 82.91315037408792, 16.182 82.52648370742125 C 16.186 82.13981704075458, 16.190666666666665 81.75848370742125, 16.195999999999998 81.38248370742124 C 16.20933333333333 80.94248370742125, 16.333999999999996 80.5971503740879, 16.569999999999997 80.34648370742124 C 16.805999999999997 80.09581704075458, 17.142666666666663 79.95048370742126, 17.58 79.91048370742125 L 17.58 80.79848370742125 C 17.382666666666665 80.85448370742125, 17.281333333333333 80.98381704075459, 17.275999999999996 81.18648370742125 C 17.262666666666664 81.55715037408791, 17.25333333333333 81.90515037408791, 17.247999999999998 82.23048370742124 C 17.242666666666665 82.55581704075458, 17.24 82.87248370742124, 17.24 83.18048370742125 C 17.24 83.48848370742125, 17.242666666666665 83.80315037408792, 17.247999999999998 84.12448370742125 C 17.25333333333333 84.44581704075458, 17.262666666666664 84.78915037408791, 17.275999999999996 85.15448370742125 C 17.281333333333333 85.36248370742125, 17.382666666666665 85.49448370742124, 17.58 85.55048370742125 L 17.58 86.43848370742124 C 17.142666666666663 86.39848370742125, 16.805999999999997 86.25248370742125, 16.569999999999997 86.00048370742125 C 16.333999999999996 85.74848370742126, 16.20933333333333 85.40248370742125, 16.195999999999998 84.96248370742124 Z M 18.084 86.43848370742124 L 18.084 85.54648370742125 C 18.268 85.49315037408792, 18.366666666666667 85.36915037408791, 18.38 85.17448370742125 C 18.398666666666664 84.70781704075458, 18.410666666666664 84.25915037408791, 18.415999999999997 83.82848370742124 C 18.42133333333333 83.39781704075459, 18.42133333333333 82.96715037408792, 18.415999999999997 82.53648370742125 C 18.410666666666664 82.10581704075459, 18.398666666666664 81.65315037408791, 18.38 81.17848370742125 C 18.374666666666666 80.98381704075459, 18.276 80.85715037408792, 18.084 80.79848370742125 L 18.084 79.91048370742125 C 18.513333333333332 79.95048370742126, 18.846666666666664 80.09581704075458, 19.083999999999996 80.34648370742124 C 19.32133333333333 80.5971503740879, 19.44533333333333 80.94248370742125, 19.456 81.38248370742124 C 19.466666666666665 81.69715037408791, 19.474666666666664 82.00715037408791, 19.479999999999997 82.31248370742125 C 19.48533333333333 82.61781704075459, 19.488 82.91848370742125, 19.488 83.21448370742125 C 19.488 83.51048370742126, 19.48533333333333 83.80381704075458, 19.479999999999997 84.09448370742125 C 19.474666666666664 84.38515037408791, 19.466666666666665 84.67448370742125, 19.456 84.96248370742124 C 19.439999999999998 85.4131503740879, 19.311999999999998 85.76181704075458, 19.072 86.00848370742125 C 18.831999999999997 86.25515037408792, 18.502666666666663 86.39848370742125, 18.084 86.43848370742124 Z M 21.944 86.37448370742125 L 21.944 79.97448370742124 L 23.003999999999998 79.97448370742124 L 23.003999999999998 86.37448370742125 Z " stroke="none" fill-rule="nonzero" fill="#000000" fill-opacity="1" transform="matrix(1,0,0,1,5.05,13.314)" id="text40 l" />
  <path d="M 0 78.60703533667913 L 10 78.60703533667913 L 10 80.10703533667913 L 0 80.10703533667913 Z " stroke="none" fill-rule="evenodd" fill="#000000" fill-opacity="1" transform="matrix(1,0,0,1,5.05,13.314)" id="mark41 l" />
  <path d="M 0 69.78958696593702 L 10 69.78958696593702 L 10 71.28958696593702 L 0 71.28958696593702 Z " stroke="none" fill-rule="evenodd" fill="#000000" fill-opacity="1" transform="matrix(1,0,0,1,5.05,13.314)" id="mark42 l" />
  <path d="M 0 60.972138595194906 L 10 60.972138595194906 L 10 62.472138595194906 L 0 62.472138595194906 Z " stroke="none" fill-rule="evenodd" fill="#000000" fill-opacity="1" transform="matrix(1,0,0,1,5.05,13.314)" id="mark43 l" />
  <path d="M 0 52.15469022445279 L 10 52.15469022445279 L 10 53.65469022445279 L 0 53.65469022445279 Z " stroke="none" fill-rule="evenodd" fill="#000000" fill-opacity="1" transform="matrix(1,0,0,1,5.05,13.314)" id="mark44 l" />
  <path d="M 0 43.33724185371062 L 25 43.33724185371062 L 25 44.83724185371062 L 0 44.83724185371062 Z " stroke="none" fill-rule="evenodd" fill="#000000" fill-opacity="1" transform="matrix(1,0,0,1,5.05,13.314)" id="mark45 l" />
  <path d="M 11.748 40.571241853710625 L 11.748 39.69524185371062 L 12.463999999999999 37.815241853710624 L 13.503999999999998 37.815241853710624 L 12.78 39.647241853710625 L 13.18 39.647241853710625 L 13.18 40.571241853710625 Z M 13.684 42.25524185371062 L 13.684 35.85524185371062 L 14.691999999999998 35.85524185371062 L 14.691999999999998 42.25524185371062 Z M 15.195999999999998 40.571241853710625 L 15.195999999999998 39.647241853710625 L 15.663999999999998 39.647241853710625 L 15.663999999999998 40.571241853710625 Z M 16.18 40.839241853710625 C 16.174666666666667 40.665908520377286, 16.173333333333332 40.52657518704395, 16.176 40.42124185371062 C 16.178666666666665 40.31590852037729, 16.181333333333335 40.21390852037729, 16.183999999999997 40.11524185371062 L 17.264 40.11524185371062 C 17.256 40.19257518704396, 17.25 40.28857518704396, 17.246 40.403241853710625 C 17.241999999999997 40.51790852037729, 17.240666666666666 40.62857518704396, 17.241999999999997 40.73524185371062 C 17.243333333333332 40.84190852037729, 17.246666666666666 40.921908520377286, 17.252 40.97524185371062 C 17.262666666666668 41.09524185371062, 17.297333333333334 41.193241853710624, 17.355999999999998 41.269241853710625 C 17.414666666666665 41.345241853710625, 17.497333333333334 41.39924185371062, 17.604 41.431241853710624 L 17.604 42.32324185371062 C 17.110666666666663 42.28590852037729, 16.75333333333333 42.15124185371062, 16.532 41.91924185371062 C 16.310666666666666 41.687241853710624, 16.19333333333333 41.327241853710625, 16.18 40.839241853710625 Z M 16.279999999999998 39.50324185371062 L 16.279999999999998 35.85524185371062 L 17.348 35.85524185371062 L 17.348 39.50324185371062 Z M 17.852 39.07924185371062 L 17.852 38.32324185371062 C 17.929333333333332 38.28324185371062, 18.014666666666667 38.251241853710624, 18.107999999999997 38.22724185371062 C 18.20133333333333 38.20324185371062, 18.301333333333332 38.19124185371062, 18.407999999999998 38.19124185371062 C 18.773333333333333 38.19124185371062, 19.047333333333334 38.30657518704396, 19.23 38.537241853710626 C 19.412666666666667 38.76790852037729, 19.514666666666663 39.08190852037729, 19.535999999999998 39.47924185371062 C 19.546666666666667 39.63924185371062, 19.55333333333333 39.79790852037729, 19.555999999999997 39.955241853710625 C 19.558666666666664 40.11257518704396, 19.557333333333332 40.26590852037729, 19.552 40.41524185371062 C 19.546666666666667 40.56457518704396, 19.538666666666668 40.70457518704396, 19.528 40.83524185371062 C 19.482666666666667 41.33390852037729, 19.353333333333335 41.699241853710625, 19.14 41.931241853710624 C 18.926666666666666 42.16324185371062, 18.581333333333333 42.293908520377286, 18.104 42.32324185371062 L 18.104 41.431241853710624 C 18.21333333333333 41.40190852037729, 18.296 41.34924185371062, 18.352 41.27324185371062 C 18.408 41.19724185371062, 18.44 41.09790852037729, 18.448 40.97524185371062 C 18.471999999999998 40.684575187043954, 18.485999999999997 40.42324185371062, 18.49 40.19124185371062 C 18.494 39.95924185371062, 18.485333333333333 39.73790852037729, 18.464 39.52724185371062 C 18.447999999999997 39.37257518704395, 18.396666666666665 39.257241853710624, 18.31 39.181241853710624 C 18.223333333333333 39.10524185371062, 18.090666666666664 39.06724185371062, 17.912 39.06724185371062 C 17.901333333333334 39.06724185371062, 17.890666666666668 39.068575187043955, 17.88 39.071241853710625 C 17.86933333333333 39.07390852037729, 17.86 39.07657518704396, 17.852 39.07924185371062 Z M 17.852 36.787241853710626 L 17.852 35.85524185371062 L 19.439999999999998 35.85524185371062 L 19.439999999999998 36.787241853710626 Z M 21.944 42.25524185371062 L 21.944 35.85524185371062 L 23.003999999999998 35.85524185371062 L 23.003999999999998 42.25524185371062 Z " stroke="none" fill-rule="nonzero" fill="#000000" fill-opacity="1" transform="matrix(1,0,0,1,5.05,13.314)" id="text45 l" />
  <path d="M 0 34.51979348296851 L 10 34.51979348296851 L 10 36.01979348296851 L 0 36.01979348296851 Z " stroke="none" fill-rule="evenodd" fill="#000000" fill-opacity="1" transform="matrix(1,0,0,1,5.05,13.314)" id="mark46 l" />
  <path d="M 0 25.702345112226396 L 10 25.702345112226396 L 10 27.202345112226396 L 0 27.202345112226396 Z " stroke="none" fill-rule="evenodd" fill="#000000" fill-opacity="1" transform="matrix(1,0,0,1,5.05,13.314)" id="mark47 l" />
  <path d="M 0 16.884896741484283 L 10 16.884896741484283 L 10 18.384896741484283 L 0 18.384896741484283 Z " stroke="none" fill-rule="evenodd" fill="#000000" fill-opacity="1" transform="matrix(1,0,0,1,5.05,13.314)" id="mark48 l" />
  <path d="M 0 8.06744837074217 L 10 8.06744837074217 L 10 9.56744837074217 L 0 9.56744837074217 Z " stroke="none" fill-rule="evenodd" fill="#000000" fill-opacity="1" transform="matrix(1,0,0,1,5.05,13.314)" id="mark49 l" />
  <path d="M 0 -0.75 L 25 -0.75 L 25 0.75 L 0 0.75 Z " stroke="none" fill-rule="evenodd" fill="#000000" fill-opacity="1" transform="matrix(1,0,0,1,5.05,13.314)" id="mark50 l" />
  <path d="M 12.204 -3.2159999999999997 C 12.198666666666668 -3.389333333333333, 12.197333333333333 -3.528666666666667, 12.2 -3.634 C 12.202666666666667 -3.7393333333333336, 12.205333333333336 -3.841333333333333, 12.208 -3.94 L 13.288 -3.94 C 13.280000000000001 -3.8626666666666667, 13.274000000000001 -3.7666666666666666, 13.27 -3.6519999999999997 C 13.265999999999998 -3.5373333333333328, 13.264666666666667 -3.4266666666666667, 13.266 -3.32 C 13.267333333333333 -3.213333333333334, 13.270666666666667 -3.1333333333333337, 13.276 -3.08 C 13.286666666666665 -2.96, 13.321333333333332 -2.862, 13.379999999999999 -2.7859999999999996 C 13.438666666666666 -2.71, 13.521333333333335 -2.6559999999999997, 13.628 -2.6239999999999997 L 13.628 -1.7319999999999998 C 13.134666666666668 -1.7693333333333332, 12.777333333333335 -1.904, 12.556 -2.1359999999999997 C 12.334666666666667 -2.368, 12.217333333333332 -2.7279999999999998, 12.204 -3.2159999999999997 Z M 12.304 -4.552 L 12.304 -8.2 L 13.372 -8.2 L 13.372 -4.552 Z M 13.876 -4.976 L 13.876 -5.731999999999999 C 13.953333333333333 -5.771999999999999, 14.038666666666668 -5.804, 14.132 -5.828 C 14.225333333333333 -5.852, 14.325333333333333 -5.864, 14.432 -5.864 C 14.797333333333334 -5.864, 15.071333333333332 -5.748666666666667, 15.254 -5.518 C 15.436666666666667 -5.287333333333333, 15.538666666666668 -4.973333333333333, 15.56 -4.576 C 15.570666666666668 -4.416, 15.577333333333334 -4.257333333333333, 15.58 -4.1 C 15.582666666666666 -3.9426666666666668, 15.581333333333333 -3.7893333333333334, 15.576 -3.6399999999999997 C 15.570666666666666 -3.490666666666667, 15.562666666666665 -3.3506666666666667, 15.552 -3.2199999999999998 C 15.506666666666668 -2.721333333333333, 15.377333333333333 -2.356, 15.164 -2.1239999999999997 C 14.950666666666667 -1.892, 14.605333333333332 -1.7613333333333332, 14.128 -1.7319999999999998 L 14.128 -2.6239999999999997 C 14.237333333333334 -2.653333333333333, 14.32 -2.7059999999999995, 14.376 -2.782 C 14.432 -2.8579999999999997, 14.464 -2.957333333333333, 14.472 -3.08 C 14.495999999999999 -3.3706666666666667, 14.509999999999998 -3.6319999999999997, 14.514 -3.864 C 14.518 -4.096, 14.509333333333334 -4.317333333333333, 14.488 -4.5280000000000005 C 14.472000000000001 -4.682666666666667, 14.420666666666666 -4.798, 14.334 -4.874 C 14.247333333333334 -4.949999999999999, 14.114666666666666 -4.9879999999999995, 13.936 -4.9879999999999995 C 13.925333333333333 -4.9879999999999995, 13.914666666666665 -4.986666666666666, 13.904 -4.984 C 13.893333333333334 -4.981333333333334, 13.884 -4.978666666666667, 13.876 -4.976 Z M 13.876 -7.268 L 13.876 -8.2 L 15.464 -8.2 L 15.464 -7.268 Z M 16.196 -3.2119999999999997 C 16.188000000000002 -3.641333333333333, 16.182666666666666 -4.058, 16.18 -4.462 C 16.177333333333333 -4.866, 16.177999999999997 -5.261333333333333, 16.182 -5.648 C 16.186 -6.034666666666666, 16.190666666666665 -6.416, 16.196 -6.792 C 16.209333333333333 -7.231999999999999, 16.334000000000003 -7.577333333333334, 16.57 -7.828 C 16.805999999999997 -8.078666666666667, 17.142666666666663 -8.224, 17.58 -8.264 L 17.58 -7.3759999999999994 C 17.382666666666665 -7.32, 17.281333333333333 -7.190666666666667, 17.276 -6.9879999999999995 C 17.262666666666668 -6.617333333333333, 17.253333333333334 -6.269333333333333, 17.248 -5.944 C 17.242666666666665 -5.618666666666666, 17.24 -5.302, 17.24 -4.994 C 17.24 -4.686, 17.242666666666665 -4.371333333333333, 17.248 -4.05 C 17.253333333333334 -3.7286666666666664, 17.262666666666668 -3.3853333333333326, 17.276 -3.0199999999999996 C 17.281333333333333 -2.812, 17.382666666666665 -2.6799999999999997, 17.58 -2.6239999999999997 L 17.58 -1.7359999999999998 C 17.142666666666663 -1.7759999999999998, 16.805999999999997 -1.9219999999999997, 16.57 -2.174 C 16.334000000000003 -2.4259999999999997, 16.209333333333333 -2.772, 16.196 -3.2119999999999997 Z M 18.084 -1.7359999999999998 L 18.084 -2.6279999999999997 C 18.268 -2.681333333333333, 18.366666666666667 -2.8053333333333335, 18.38 -3 C 18.398666666666667 -3.4666666666666663, 18.410666666666668 -3.915333333333333, 18.416 -4.346 C 18.421333333333333 -4.776666666666666, 18.421333333333333 -5.207333333333333, 18.416 -5.638 C 18.410666666666668 -6.068666666666666, 18.398666666666667 -6.521333333333333, 18.38 -6.9959999999999996 C 18.374666666666666 -7.190666666666667, 18.276 -7.317333333333334, 18.084 -7.3759999999999994 L 18.084 -8.264 C 18.513333333333335 -8.224, 18.846666666666668 -8.078666666666667, 19.084 -7.828 C 19.321333333333335 -7.577333333333334, 19.445333333333334 -7.231999999999999, 19.456 -6.792 C 19.46666666666667 -6.477333333333332, 19.474666666666668 -6.167333333333333, 19.48 -5.861999999999999 C 19.485333333333333 -5.556666666666667, 19.488 -5.256, 19.488 -4.96 C 19.488 -4.664, 19.485333333333333 -4.370666666666667, 19.48 -4.08 C 19.474666666666668 -3.7893333333333334, 19.46666666666667 -3.5, 19.456 -3.2119999999999997 C 19.439999999999998 -2.761333333333333, 19.311999999999998 -2.4126666666666665, 19.072 -2.166 C 18.832 -1.9193333333333331, 18.502666666666666 -1.7759999999999998, 18.084 -1.7359999999999998 Z M 21.944 -1.7999999999999998 L 21.944 -8.2 L 23.003999999999998 -8.2 L 23.003999999999998 -1.7999999999999998 Z " stroke="none" fill-rule="nonzero" fill="#000000" fill-opacity="1" transform="matrix(1,0,0,1,5.05,13.314)" id="text50 l" />
  <path d="M -5 -13.264 L 30 -13.264 L 30 438.8229701663641 L -5 438.8229701663641 Z " stroke="#FF0000" stroke-opacity="1" stroke-width="0.1" stroke-linecap="butt" stroke-linejoin="miter" fill="none" transform="matrix(1,0,0,1,5.05,13.314)" />
</svg>