<?xml version="1.0" encoding="UTF-8"?>
<svg xmlns:xlink="http://www.w3.org/1999/xlink" viewBox="0 0 35.1 415.97701958659076" version="1.1" style="font-synthesis: none;" width="35.1mm" height="415.97701958659076mm" xmlns="http://www.w3.org/2000/svg">
  <defs />
  <style>	</style>
  <path d="M 0 0 L 35.1 0 L 35.1 415.97701958659076 L 0 415.97701958659076 Z " stroke="none" fill-rule="nonzero" fill="#FFFFFF" fill-opacity="1" transform="matrix(1,0,0,1,0,0)" />
  <path d="M 0 395.09501958659075 L 10 395.09501958659075 L 10 396.59501958659075 L 0 396.59501958659075 Z " stroke="none" fill-rule="evenodd" fill="#000000" fill-opacity="1" transform="matrix(1,0,0,1,5.05,13.314)" id="mark1 l" />
  <path d="M 0 387.01654979910927 L 10 387.01654979910927 L 10 388.51654979910927 L 0 388.51654979910927 Z " stroke="none" fill-rule="evenodd" fill="#000000" fill-opacity="1" transform="matrix(1,0,0,1,5.05,13.314)" id="mark2 l" />
  <path d="M 0 378.93808001162785 L 10 378.93808001162785 L 10 380.43808001162785 L 0 380.43808001162785 Z " stroke="none" fill-rule="evenodd" fill="#000000" fill-opacity="1" transform="matrix(1,0,0,1,5.05,13.314)" id="mark3 l" />
  <path d="M 0 370.8596102241464 L 10 370.8596102241464 L 10 372.3596102241464 L 0 372.3596102241464 Z " stroke="none" fill-rule="evenodd" fill="#000000" fill-opacity="1" transform="matrix(1,0,0,1,5.05,13.314)" id="mark4 l" />
  <path d="M 0 362.78114043666494 L 25 362.78114043666494 L 25 364.28114043666494 L 0 364.28114043666494 Z " stroke="none" fill-rule="evenodd" fill="#000000" fill-opacity="1" transform="matrix(1,0,0,1,5.05,13.314)" id="mark5 l" />
  <path d="M 16.18 360.28314043666495 C 16.174666666666667 360.1098071033316, 16.173333333333332 359.9704737699983, 16.176 359.86514043666494 C 16.178666666666665 359.7598071033316, 16.181333333333335 359.6578071033316, 16.183999999999997 359.55914043666496 L 17.264 359.55914043666496 C 17.256 359.6364737699983, 17.25 359.7324737699983, 17.246 359.847140436665 C 17.241999999999997 359.96180710333164, 17.240666666666666 360.0724737699983, 17.241999999999997 360.17914043666497 C 17.243333333333332 360.2858071033316, 17.246666666666666 360.3658071033316, 17.252 360.419140436665 C 17.262666666666668 360.539140436665, 17.297333333333334 360.63714043666494, 17.355999999999998 360.71314043666496 C 17.414666666666665 360.7891404366649, 17.497333333333334 360.84314043666495, 17.604 360.87514043666494 L 17.604 361.76714043666493 C 17.110666666666663 361.7298071033316, 16.75333333333333 361.5951404366649, 16.532 361.36314043666493 C 16.310666666666666 361.13114043666496, 16.19333333333333 360.77114043666495, 16.18 360.28314043666495 Z M 16.279999999999998 358.94714043666494 L 16.279999999999998 355.29914043666497 L 17.348 355.29914043666497 L 17.348 358.94714043666494 Z M 17.852 358.52314043666496 L 17.852 357.76714043666493 C 17.929333333333332 357.72714043666497, 18.014666666666667 357.69514043666493, 18.107999999999997 357.6711404366649 C 18.20133333333333 357.6471404366649, 18.301333333333332 357.6351404366649, 18.407999999999998 357.6351404366649 C 18.773333333333333 357.6351404366649, 19.047333333333334 357.7504737699983, 19.23 357.98114043666493 C 19.412666666666667 358.2118071033316, 19.514666666666663 358.5258071033316, 19.535999999999998 358.92314043666494 C 19.546666666666667 359.08314043666496, 19.55333333333333 359.2418071033316, 19.555999999999997 359.39914043666494 C 19.558666666666664 359.55647376999826, 19.557333333333332 359.7098071033316, 19.552 359.859140436665 C 19.546666666666667 360.0084737699983, 19.538666666666668 360.1484737699983, 19.528 360.27914043666493 C 19.482666666666667 360.7778071033316, 19.353333333333335 361.1431404366649, 19.14 361.37514043666494 C 18.926666666666666 361.60714043666496, 18.581333333333333 361.7378071033316, 18.104 361.76714043666493 L 18.104 360.87514043666494 C 18.21333333333333 360.8458071033316, 18.296 360.79314043666494, 18.352 360.7171404366649 C 18.408 360.64114043666495, 18.44 360.5418071033316, 18.448 360.419140436665 C 18.471999999999998 360.1284737699983, 18.485999999999997 359.86714043666495, 18.49 359.6351404366649 C 18.494 359.40314043666496, 18.485333333333333 359.1818071033316, 18.464 358.97114043666494 C 18.447999999999997 358.8164737699983, 18.396666666666665 358.70114043666496, 18.31 358.62514043666494 C 18.223333333333333 358.54914043666497, 18.090666666666664 358.51114043666496, 17.912 358.51114043666496 C 17.901333333333334 358.51114043666496, 17.890666666666668 358.5124737699983, 17.88 358.5151404366649 C 17.86933333333333 358.5178071033316, 17.86 358.52047376999826, 17.852 358.52314043666496 Z M 17.852 356.23114043666493 L 17.852 355.29914043666497 L 19.439999999999998 355.29914043666497 L 19.439999999999998 356.23114043666493 Z M 21.944 361.69914043666495 L 21.944 355.29914043666497 L 23.003999999999998 355.29914043666497 L 23.003999999999998 361.69914043666495 Z " stroke="none" fill-rule="nonzero" fill="#000000" fill-opacity="1" transform="matrix(1,0,0,1,5.05,13.314)" id="text5 l" />
  <path d="M 0 354.7026706491835 L 10 354.7026706491835 L 10 356.2026706491835 L 0 356.2026706491835 Z " stroke="none" fill-rule="evenodd" fill="#000000" fill-opacity="1" transform="matrix(1,0,0,1,5.05,13.314)" id="mark6 l" />
  <path d="M 0 346.6242008617021 L 10 346.6242008617021 L 10 348.1242008617021 L 0 348.1242008617021 Z " stroke="none" fill-rule="evenodd" fill="#000000" fill-opacity="1" transform="matrix(1,0,0,1,5.05,13.314)" id="mark7 l" />
  <path d="M 0 338.5457310742206 L 10 338.5457310742206 L 10 340.0457310742206 L 0 340.0457310742206 Z " stroke="none" fill-rule="evenodd" fill="#000000" fill-opacity="1" transform="matrix(1,0,0,1,5.05,13.314)" id="mark8 l" />
  <path d="M 0 330.4672612867392 L 10 330.4672612867392 L 10 331.9672612867392 L 0 331.9672612867392 Z " stroke="none" fill-rule="evenodd" fill="#000000" fill-opacity="1" transform="matrix(1,0,0,1,5.05,13.314)" id="mark9 l" />
  <path d="M 0 322.38879149925776 L 25 322.38879149925776 L 25 323.88879149925776 L 0 323.88879149925776 Z " stroke="none" fill-rule="evenodd" fill="#000000" fill-opacity="1" transform="matrix(1,0,0,1,5.05,13.314)" id="mark10 l" />
  <path d="M 14.323999999999998 321.33879149925775 L 14.323999999999998 315.89479149925774 L 13.871999999999998 315.89479149925774 L 13.839999999999998 315.51479149925774 L 14.543999999999999 314.9387914992578 L 15.424 314.9387914992578 L 15.424 321.33879149925775 Z M 16.196 319.9267914992578 C 16.188000000000002 319.49745816592446, 16.182666666666666 319.08079149925777, 16.18 318.6767914992578 C 16.177333333333333 318.2727914992578, 16.177999999999997 317.87745816592445, 16.182 317.49079149925774 C 16.186 317.1041248325911, 16.190666666666665 316.7227914992577, 16.196 316.34679149925773 C 16.209333333333333 315.9067914992578, 16.334000000000003 315.5614581659244, 16.57 315.31079149925773 C 16.805999999999997 315.0601248325911, 17.142666666666663 314.9147914992578, 17.58 314.87479149925775 L 17.58 315.76279149925773 C 17.382666666666665 315.8187914992577, 17.281333333333333 315.9481248325911, 17.276 316.15079149925776 C 17.262666666666668 316.5214581659244, 17.253333333333334 316.8694581659244, 17.248 317.19479149925775 C 17.242666666666665 317.5201248325911, 17.24 317.83679149925774, 17.24 318.14479149925774 C 17.24 318.4527914992577, 17.242666666666665 318.7674581659244, 17.248 319.08879149925775 C 17.253333333333334 319.4101248325911, 17.262666666666668 319.7534581659244, 17.276 320.1187914992577 C 17.281333333333333 320.32679149925775, 17.382666666666665 320.45879149925776, 17.58 320.51479149925774 L 17.58 321.4027914992578 C 17.142666666666663 321.3627914992578, 16.805999999999997 321.21679149925774, 16.57 320.96479149925773 C 16.334000000000003 320.7127914992577, 16.209333333333333 320.3667914992578, 16.196 319.9267914992578 Z M 18.084 321.4027914992578 L 18.084 320.5107914992578 C 18.268 320.45745816592444, 18.366666666666667 320.3334581659244, 18.38 320.13879149925776 C 18.398666666666667 319.67212483259107, 18.410666666666668 319.2234581659244, 18.416 318.79279149925776 C 18.421333333333333 318.3621248325911, 18.421333333333333 317.9314581659244, 18.416 317.50079149925773 C 18.410666666666668 317.0701248325911, 18.398666666666667 316.6174581659244, 18.38 316.1427914992577 C 18.374666666666666 315.9481248325911, 18.276 315.8214581659244, 18.084 315.76279149925773 L 18.084 314.87479149925775 C 18.513333333333335 314.9147914992578, 18.846666666666668 315.0601248325911, 19.084 315.31079149925773 C 19.321333333333335 315.5614581659244, 19.445333333333334 315.9067914992578, 19.456 316.34679149925773 C 19.46666666666667 316.6614581659244, 19.474666666666668 316.97145816592445, 19.48 317.27679149925774 C 19.485333333333333 317.5821248325911, 19.488 317.88279149925773, 19.488 318.1787914992577 C 19.488 318.4747914992577, 19.485333333333333 318.76812483259107, 19.48 319.0587914992578 C 19.474666666666668 319.34945816592443, 19.46666666666667 319.63879149925776, 19.456 319.9267914992578 C 19.439999999999998 320.37745816592445, 19.311999999999998 320.7261248325911, 19.072 320.97279149925777 C 18.832 321.21945816592444, 18.502666666666666 321.3627914992578, 18.084 321.4027914992578 Z M 21.944 321.33879149925775 L 21.944 314.9387914992578 L 23.003999999999998 314.9387914992578 L 23.003999999999998 321.33879149925775 Z " stroke="none" fill-rule="nonzero" fill="#000000" fill-opacity="1" transform="matrix(1,0,0,1,5.05,13.314)" id="text10 l" />
  <path d="M 0 314.3103217117763 L 10 314.3103217117763 L 10 315.8103217117763 L 0 315.8103217117763 Z " stroke="none" fill-rule="evenodd" fill="#000000" fill-opacity="1" transform="matrix(1,0,0,1,5.05,13.314)" id="mark11 l" />
  <path d="M 0 306.23185192429486 L 10 306.23185192429486 L 10 307.73185192429486 L 0 307.73185192429486 Z " stroke="none" fill-rule="evenodd" fill="#000000" fill-opacity="1" transform="matrix(1,0,0,1,5.05,13.314)" id="mark12 l" />
  <path d="M 0 298.15338213681343 L 10 298.15338213681343 L 10 299.65338213681343 L 0 299.65338213681343 Z " stroke="none" fill-rule="evenodd" fill="#000000" fill-opacity="1" transform="matrix(1,0,0,1,5.05,13.314)" id="mark13 l" />
  <path d="M 0 290.07491234933195 L 10 290.07491234933195 L 10 291.57491234933195 L 0 291.57491234933195 Z " stroke="none" fill-rule="evenodd" fill="#000000" fill-opacity="1" transform="matrix(1,0,0,1,5.05,13.314)" id="mark14 l" />
  <path d="M 0 281.99644256185053 L 25 281.99644256185053 L 25 283.49644256185053 L 0 283.49644256185053 Z " stroke="none" fill-rule="evenodd" fill="#000000" fill-opacity="1" transform="matrix(1,0,0,1,5.05,13.314)" id="mark15 l" />
  <path d="M 14.331999999999999 280.91444256185054 L 14.331999999999999 275.4704425618505 L 13.879999999999999 275.4704425618505 L 13.847999999999999 275.0904425618505 L 14.552 274.51444256185056 L 15.432 274.51444256185056 L 15.432 280.91444256185054 Z M 16.18 279.49844256185054 C 16.174666666666667 279.32510922851725, 16.173333333333332 279.1857758951839, 16.176 279.08044256185053 C 16.178666666666665 278.97510922851717, 16.181333333333335 278.8731092285172, 16.183999999999997 278.77444256185055 L 17.264 278.77444256185055 C 17.256 278.8517758951839, 17.25 278.9477758951839, 17.246 279.06244256185056 C 17.241999999999997 279.1771092285172, 17.240666666666666 279.28777589518387, 17.241999999999997 279.39444256185055 C 17.243333333333332 279.5011092285172, 17.246666666666666 279.5811092285172, 17.252 279.63444256185056 C 17.262666666666668 279.7544425618505, 17.297333333333334 279.8524425618505, 17.355999999999998 279.92844256185055 C 17.414666666666665 280.0044425618505, 17.497333333333334 280.05844256185054, 17.604 280.0904425618505 L 17.604 280.9824425618505 C 17.110666666666663 280.9451092285172, 16.75333333333333 280.81044256185055, 16.532 280.5784425618505 C 16.310666666666666 280.3464425618505, 16.19333333333333 279.9864425618505, 16.18 279.49844256185054 Z M 16.279999999999998 278.1624425618505 L 16.279999999999998 274.51444256185056 L 17.348 274.51444256185056 L 17.348 278.1624425618505 Z M 17.852 277.73844256185055 L 17.852 276.9824425618505 C 17.929333333333332 276.9424425618505, 18.014666666666667 276.9104425618505, 18.107999999999997 276.8864425618505 C 18.20133333333333 276.8624425618505, 18.301333333333332 276.8504425618505, 18.407999999999998 276.8504425618505 C 18.773333333333333 276.8504425618505, 19.047333333333334 276.9657758951838, 19.23 277.1964425618505 C 19.412666666666667 277.4271092285172, 19.514666666666663 277.7411092285172, 19.535999999999998 278.1384425618505 C 19.546666666666667 278.29844256185055, 19.55333333333333 278.4571092285172, 19.555999999999997 278.6144425618505 C 19.558666666666664 278.77177589518385, 19.557333333333332 278.9251092285172, 19.552 279.07444256185056 C 19.546666666666667 279.2237758951839, 19.538666666666668 279.3637758951839, 19.528 279.4944425618505 C 19.482666666666667 279.9931092285172, 19.353333333333335 280.3584425618505, 19.14 280.5904425618505 C 18.926666666666666 280.82244256185055, 18.581333333333333 280.9531092285172, 18.104 280.9824425618505 L 18.104 280.0904425618505 C 18.21333333333333 280.0611092285172, 18.296 280.00844256185053, 18.352 279.9324425618505 C 18.408 279.85644256185054, 18.44 279.7571092285172, 18.448 279.63444256185056 C 18.471999999999998 279.34377589518385, 18.485999999999997 279.0824425618505, 18.49 278.8504425618505 C 18.494 278.61844256185054, 18.485333333333333 278.3971092285172, 18.464 278.1864425618505 C 18.447999999999997 278.0317758951839, 18.396666666666665 277.91644256185054, 18.31 277.8404425618505 C 18.223333333333333 277.76444256185056, 18.090666666666664 277.72644256185055, 17.912 277.72644256185055 C 17.901333333333334 277.72644256185055, 17.890666666666668 277.72777589518387, 17.88 277.7304425618505 C 17.86933333333333 277.73310922851715, 17.86 277.73577589518385, 17.852 277.73844256185055 Z M 17.852 275.4464425618505 L 17.852 274.51444256185056 L 19.439999999999998 274.51444256185056 L 19.439999999999998 275.4464425618505 Z M 21.944 280.91444256185054 L 21.944 274.51444256185056 L 23.003999999999998 274.51444256185056 L 23.003999999999998 280.91444256185054 Z " stroke="none" fill-rule="nonzero" fill="#000000" fill-opacity="1" transform="matrix(1,0,0,1,5.05,13.314)" id="text15 l" />
  <path d="M 0 273.9179727743691 L 10 273.9179727743691 L 10 275.4179727743691 L 0 275.4179727743691 Z " stroke="none" fill-rule="evenodd" fill="#000000" fill-opacity="1" transform="matrix(1,0,0,1,5.05,13.314)" id="mark16 l" />
  <path d="M 0 265.8395029868876 L 10 265.8395029868876 L 10 267.3395029868876 L 0 267.3395029868876 Z " stroke="none" fill-rule="evenodd" fill="#000000" fill-opacity="1" transform="matrix(1,0,0,1,5.05,13.314)" id="mark17 l" />
  <path d="M 0 257.7610331994062 L 10 257.7610331994062 L 10 259.2610331994062 L 0 259.2610331994062 Z " stroke="none" fill-rule="evenodd" fill="#000000" fill-opacity="1" transform="matrix(1,0,0,1,5.05,13.314)" id="mark18 l" />
  <path d="M 0 249.68256341192475 L 10 249.68256341192475 L 10 251.18256341192475 L 0 251.18256341192475 Z " stroke="none" fill-rule="evenodd" fill="#000000" fill-opacity="1" transform="matrix(1,0,0,1,5.05,13.314)" id="mark19 l" />
  <path d="M 0 241.60409362444332 L 25 241.60409362444332 L 25 243.10409362444332 L 0 243.10409362444332 Z " stroke="none" fill-rule="evenodd" fill="#000000" fill-opacity="1" transform="matrix(1,0,0,1,5.05,13.314)" id="mark20 l" />
  <path d="M 12.319999999999999 240.55409362444334 C 12.317333333333334 240.45542695777667, 12.315333333333331 240.36676029110998, 12.313999999999998 240.28809362444335 C 12.312666666666665 240.20942695777666, 12.311333333333334 240.13542695777667, 12.309999999999999 240.06609362444334 C 12.308666666666667 239.99676029111, 12.308 239.92476029111, 12.308 239.85009362444333 C 12.308 239.77542695777666, 12.308 239.69076029111, 12.308 239.59609362444334 C 12.308 239.5014269577767, 12.309333333333335 239.39009362444335, 12.312 239.26209362444334 C 12.32 238.96876029111002, 12.37 238.70676029111002, 12.462 238.47609362444334 C 12.554 238.24542695777666, 12.687999999999999 238.03942695777664, 12.863999999999999 237.85809362444334 C 13.04 237.67676029110999, 13.257333333333333 237.51542695777667, 13.515999999999998 237.37409362444333 L 14.047999999999998 237.08609362444335 C 14.234666666666666 236.98476029111004, 14.354 236.86276029111002, 14.405999999999999 236.72009362444334 C 14.457999999999998 236.57742695777665, 14.488 236.4434269577767, 14.495999999999999 236.31809362444335 C 14.506666666666664 236.1714269577767, 14.512666666666664 236.01476029111, 14.514 235.84809362444335 C 14.51533333333333 235.6814269577767, 14.511999999999997 235.52476029111, 14.504 235.37809362444335 C 14.498666666666665 235.27409362444337, 14.468666666666666 235.18809362444335, 14.413999999999998 235.12009362444334 C 14.359333333333332 235.05209362444333, 14.279999999999998 235.0034269577767, 14.175999999999998 234.97409362444333 L 14.175999999999998 234.08609362444335 C 14.663999999999998 234.11809362444336, 15.014 234.24942695777668, 15.225999999999999 234.48009362444333 C 15.437999999999999 234.71076029110998, 15.554666666666666 235.07142695777668, 15.575999999999999 235.56209362444335 C 15.578666666666663 235.62609362444334, 15.580666666666666 235.69142695777668, 15.581999999999999 235.75809362444335 C 15.583333333333332 235.82476029111, 15.584 235.88942695777666, 15.584 235.95209362444334 C 15.584 236.01476029111, 15.583333333333332 236.07676029111002, 15.581999999999999 236.13809362444334 C 15.580666666666666 236.19942695777667, 15.578666666666663 236.25942695777667, 15.575999999999999 236.31809362444335 C 15.565333333333331 236.60342695777666, 15.512 236.85009362444333, 15.415999999999999 237.05809362444333 C 15.32 237.26609362444333, 15.19 237.44609362444334, 15.026 237.59809362444335 C 14.862 237.75009362444334, 14.672 237.88609362444333, 14.456 238.00609362444334 L 13.851999999999999 238.33409362444334 C 13.737333333333332 238.3954269577767, 13.647333333333332 238.4794269577767, 13.581999999999999 238.58609362444335 C 13.516666666666666 238.69276029111, 13.469999999999999 238.80609362444335, 13.441999999999998 238.92609362444335 C 13.413999999999998 239.04609362444333, 13.399999999999999 239.15809362444332, 13.399999999999999 239.26209362444334 L 13.399999999999999 240.55409362444334 Z M 12.328 236.51409362444335 C 12.322666666666667 236.39676029111, 12.318666666666665 236.28209362444335, 12.315999999999999 236.17009362444333 C 12.313333333333333 236.05809362444336, 12.311333333333334 235.95209362444336, 12.309999999999999 235.85209362444334 C 12.308666666666667 235.75209362444332, 12.309333333333335 235.65542695777668, 12.312 235.56209362444335 C 12.330666666666666 235.07409362444332, 12.447333333333333 234.71476029111, 12.661999999999999 234.48409362444335 C 12.876666666666665 234.2534269577767, 13.213333333333331 234.12076029111, 13.671999999999999 234.08609362444335 L 13.671999999999999 234.97809362444335 C 13.576 235.00742695777666, 13.505333333333333 235.05409362444334, 13.459999999999999 235.11809362444333 C 13.414666666666665 235.18209362444333, 13.390666666666664 235.25942695777667, 13.387999999999998 235.35009362444333 C 13.382666666666665 235.55809362444333, 13.379333333333333 235.7514269577767, 13.378 235.93009362444334 C 13.376666666666667 236.10876029111, 13.381333333333334 236.30342695777668, 13.392 236.51409362444335 Z M 13.904 240.55409362444334 L 13.904 239.62209362444335 L 15.5 239.62209362444335 L 15.5 240.55409362444334 Z M 16.196 239.14209362444333 C 16.188000000000002 238.71276029111, 16.182666666666666 238.29609362444336, 16.18 237.89209362444333 C 16.177333333333333 237.48809362444337, 16.177999999999997 237.09276029111, 16.182 236.70609362444333 C 16.186 236.31942695777667, 16.190666666666665 235.93809362444335, 16.196 235.56209362444335 C 16.209333333333333 235.12209362444332, 16.334000000000003 234.77676029111, 16.57 234.52609362444335 C 16.805999999999997 234.2754269577767, 17.142666666666663 234.13009362444336, 17.58 234.09009362444334 L 17.58 234.97809362444335 C 17.382666666666665 235.03409362444336, 17.281333333333333 235.1634269577767, 17.276 235.36609362444335 C 17.262666666666668 235.73676029111002, 17.253333333333334 236.08476029111, 17.248 236.41009362444333 C 17.242666666666665 236.73542695777667, 17.24 237.05209362444333, 17.24 237.36009362444335 C 17.24 237.66809362444332, 17.242666666666665 237.98276029111, 17.248 238.30409362444334 C 17.253333333333334 238.62542695777668, 17.262666666666668 238.96876029111002, 17.276 239.33409362444334 C 17.281333333333333 239.54209362444334, 17.382666666666665 239.67409362444334, 17.58 239.73009362444333 L 17.58 240.61809362444333 C 17.142666666666663 240.57809362444334, 16.805999999999997 240.43209362444333, 16.57 240.18009362444334 C 16.334000000000003 239.9280936244433, 16.209333333333333 239.5820936244433, 16.196 239.14209362444333 Z M 18.084 240.61809362444333 L 18.084 239.72609362444334 C 18.268 239.67276029111002, 18.366666666666667 239.54876029111, 18.38 239.35409362444335 C 18.398666666666667 238.88742695777665, 18.410666666666668 238.43876029111, 18.416 238.00809362444335 C 18.421333333333333 237.57742695777665, 18.421333333333333 237.14676029111, 18.416 236.71609362444335 C 18.410666666666668 236.28542695777668, 18.398666666666667 235.83276029111, 18.38 235.35809362444334 C 18.374666666666666 235.16342695777666, 18.276 235.03676029111, 18.084 234.97809362444335 L 18.084 234.09009362444334 C 18.513333333333335 234.13009362444336, 18.846666666666668 234.2754269577767, 19.084 234.52609362444335 C 19.321333333333335 234.77676029111, 19.445333333333334 235.12209362444332, 19.456 235.56209362444335 C 19.46666666666667 235.87676029110997, 19.474666666666668 236.18676029110998, 19.48 236.49209362444333 C 19.485333333333333 236.79742695777668, 19.488 237.09809362444332, 19.488 237.39409362444334 C 19.488 237.69009362444336, 19.485333333333333 237.98342695777666, 19.48 238.27409362444334 C 19.474666666666668 238.56476029111002, 19.46666666666667 238.85409362444335, 19.456 239.14209362444333 C 19.439999999999998 239.59276029110998, 19.311999999999998 239.94142695777668, 19.072 240.18809362444333 C 18.832 240.43476029111002, 18.502666666666666 240.57809362444334, 18.084 240.61809362444333 Z M 21.944 240.55409362444334 L 21.944 234.15409362444333 L 23.003999999999998 234.15409362444333 L 23.003999999999998 240.55409362444334 Z " stroke="none" fill-rule="nonzero" fill="#000000" fill-opacity="1" transform="matrix(1,0,0,1,5.05,13.314)" id="text20 l" />
  <path d="M 0 233.52562383696187 L 10 233.52562383696187 L 10 235.02562383696187 L 0 235.02562383696187 Z " stroke="none" fill-rule="evenodd" fill="#000000" fill-opacity="1" transform="matrix(1,0,0,1,5.05,13.314)" id="mark21 l" />
  <path d="M 0 225.44715404948042 L 10 225.44715404948042 L 10 226.94715404948042 L 0 226.94715404948042 Z " stroke="none" fill-rule="evenodd" fill="#000000" fill-opacity="1" transform="matrix(1,0,0,1,5.05,13.314)" id="mark22 l" />
  <path d="M 0 217.368684261999 L 10 217.368684261999 L 10 218.868684261999 L 0 218.868684261999 Z " stroke="none" fill-rule="evenodd" fill="#000000" fill-opacity="1" transform="matrix(1,0,0,1,5.05,13.314)" id="mark23 l" />
  <path d="M 0 209.29021447451754 L 10 209.29021447451754 L 10 210.79021447451754 L 0 210.79021447451754 Z " stroke="none" fill-rule="evenodd" fill="#000000" fill-opacity="1" transform="matrix(1,0,0,1,5.05,13.314)" id="mark24 l" />
  <path d="M 0 201.2117446870361 L 25 201.2117446870361 L 25 202.7117446870361 L 0 202.7117446870361 Z " stroke="none" fill-rule="evenodd" fill="#000000" fill-opacity="1" transform="matrix(1,0,0,1,5.05,13.314)" id="mark25 l" />
  <path d="M 12.328 200.1617446870361 C 12.325333333333333 200.06307802036946, 12.323333333333332 199.97441135370278, 12.322 199.8957446870361 C 12.320666666666666 199.81707802036945, 12.319333333333333 199.74307802036947, 12.318 199.6737446870361 C 12.316666666666666 199.60441135370274, 12.315999999999999 199.53241135370274, 12.316 199.4577446870361 C 12.315999999999999 199.38307802036945, 12.315999999999999 199.29841135370276, 12.316 199.2037446870361 C 12.315999999999999 199.10907802036945, 12.317333333333334 198.99774468703612, 12.32 198.8697446870361 C 12.328 198.57641135370278, 12.378 198.31441135370278, 12.47 198.0837446870361 C 12.562000000000001 197.85307802036942, 12.696 197.64707802036943, 12.872 197.4657446870361 C 13.048 197.28441135370278, 13.265333333333334 197.12307802036946, 13.524000000000001 196.9817446870361 L 14.056000000000001 196.69374468703612 C 14.242666666666668 196.59241135370274, 14.362000000000002 196.47041135370276, 14.414 196.3277446870361 C 14.466000000000001 196.18507802036945, 14.495999999999999 196.05107802036946, 14.504 195.92574468703612 C 14.514666666666667 195.77907802036947, 14.520666666666667 195.62241135370277, 14.522 195.45574468703612 C 14.523333333333333 195.28907802036946, 14.520000000000001 195.13241135370276, 14.512 194.98574468703612 C 14.506666666666666 194.88174468703613, 14.476666666666667 194.79574468703612, 14.422 194.7277446870361 C 14.367333333333335 194.6597446870361, 14.288 194.6110780203694, 14.184000000000001 194.5817446870361 L 14.184000000000001 193.69374468703612 C 14.672 193.72574468703613, 15.022000000000002 193.85707802036944, 15.234 194.0877446870361 C 15.446000000000002 194.31841135370277, 15.562666666666667 194.67907802036945, 15.584 195.16974468703611 C 15.586666666666668 195.2337446870361, 15.588666666666668 195.29907802036945, 15.59 195.3657446870361 C 15.591333333333335 195.43241135370278, 15.592000000000002 195.49707802036943, 15.592 195.5597446870361 C 15.592000000000002 195.62241135370277, 15.591333333333335 195.68441135370279, 15.59 195.7457446870361 C 15.588666666666668 195.80707802036943, 15.586666666666668 195.86707802036943, 15.584 195.92574468703612 C 15.573333333333332 196.21107802036943, 15.52 196.4577446870361, 15.424 196.6657446870361 C 15.328 196.8737446870361, 15.197999999999999 197.0537446870361, 15.033999999999999 197.20574468703612 C 14.87 197.35774468703613, 14.68 197.4937446870361, 14.464 197.6137446870361 L 13.86 197.9417446870361 C 13.745333333333335 198.00307802036946, 13.655333333333335 198.08707802036946, 13.59 198.19374468703612 C 13.524666666666668 198.30041135370277, 13.478000000000002 198.41374468703611, 13.45 198.53374468703612 C 13.422 198.65374468703612, 13.408 198.7657446870361, 13.408 198.8697446870361 L 13.408 200.1617446870361 Z M 12.336 196.1217446870361 C 12.330666666666666 196.00441135370278, 12.326666666666664 195.88974468703609, 12.324 195.7777446870361 C 12.321333333333332 195.6657446870361, 12.319333333333333 195.5597446870361, 12.318 195.4597446870361 C 12.316666666666666 195.3597446870361, 12.317333333333334 195.26307802036945, 12.32 195.16974468703611 C 12.338666666666668 194.68174468703612, 12.455333333333336 194.32241135370276, 12.67 194.0917446870361 C 12.884666666666668 193.86107802036946, 13.221333333333334 193.72841135370277, 13.68 193.69374468703612 L 13.68 194.5857446870361 C 13.584 194.61507802036942, 13.513333333333332 194.6617446870361, 13.468 194.7257446870361 C 13.422666666666668 194.7897446870361, 13.398666666666667 194.86707802036943, 13.396 194.9577446870361 C 13.390666666666666 195.16574468703612, 13.387333333333332 195.35907802036945, 13.386 195.5377446870361 C 13.384666666666666 195.71641135370277, 13.389333333333333 195.91107802036947, 13.4 196.1217446870361 Z M 13.911999999999999 200.1617446870361 L 13.911999999999999 199.22974468703612 L 15.508 199.22974468703612 L 15.508 200.1617446870361 Z M 16.18 198.7457446870361 C 16.174666666666667 198.57241135370276, 16.173333333333332 198.43307802036946, 16.176 198.3277446870361 C 16.178666666666665 198.2224113537028, 16.181333333333335 198.12041135370276, 16.183999999999997 198.02174468703612 L 17.264 198.02174468703612 C 17.256 198.09907802036946, 17.25 198.19507802036946, 17.246 198.3097446870361 C 17.241999999999997 198.4244113537028, 17.240666666666666 198.53507802036944, 17.241999999999997 198.6417446870361 C 17.243333333333332 198.74841135370275, 17.246666666666666 198.82841135370273, 17.252 198.8817446870361 C 17.262666666666668 199.00174468703608, 17.297333333333334 199.0997446870361, 17.355999999999998 199.17574468703612 C 17.414666666666665 199.25174468703608, 17.497333333333334 199.30574468703608, 17.604 199.3377446870361 L 17.604 200.22974468703612 C 17.110666666666663 200.19241135370277, 16.75333333333333 200.0577446870361, 16.532 199.8257446870361 C 16.310666666666666 199.5937446870361, 16.19333333333333 199.2337446870361, 16.18 198.7457446870361 Z M 16.279999999999998 197.4097446870361 L 16.279999999999998 193.7617446870361 L 17.348 193.7617446870361 L 17.348 197.4097446870361 Z M 17.852 196.98574468703612 L 17.852 196.22974468703612 C 17.929333333333332 196.18974468703613, 18.014666666666667 196.1577446870361, 18.107999999999997 196.1337446870361 C 18.20133333333333 196.10974468703608, 18.301333333333332 196.09774468703608, 18.407999999999998 196.0977446870361 C 18.773333333333333 196.09774468703608, 19.047333333333334 196.21307802036944, 19.23 196.44374468703612 C 19.412666666666667 196.67441135370277, 19.514666666666663 196.98841135370276, 19.535999999999998 197.3857446870361 C 19.546666666666667 197.5457446870361, 19.55333333333333 197.70441135370277, 19.555999999999997 197.8617446870361 C 19.558666666666664 198.01907802036942, 19.557333333333332 198.17241135370278, 19.552 198.3217446870361 C 19.546666666666667 198.47107802036942, 19.538666666666668 198.61107802036946, 19.528 198.74174468703612 C 19.482666666666667 199.24041135370277, 19.353333333333335 199.60574468703612, 19.14 199.8377446870361 C 18.926666666666666 200.06974468703612, 18.581333333333333 200.20041135370278, 18.104 200.22974468703612 L 18.104 199.3377446870361 C 18.21333333333333 199.30841135370278, 18.296 199.2557446870361, 18.352 199.1797446870361 C 18.408 199.1037446870361, 18.44 199.00441135370278, 18.448 198.8817446870361 C 18.471999999999998 198.59107802036942, 18.485999999999997 198.3297446870361, 18.49 198.0977446870361 C 18.494 197.8657446870361, 18.485333333333333 197.64441135370276, 18.464 197.4337446870361 C 18.447999999999997 197.2790780203694, 18.396666666666665 197.1637446870361, 18.31 197.0877446870361 C 18.223333333333333 197.0117446870361, 18.090666666666664 196.97374468703612, 17.912 196.97374468703612 C 17.901333333333334 196.97374468703612, 17.890666666666668 196.97507802036944, 17.88 196.9777446870361 C 17.86933333333333 196.98041135370278, 17.86 196.98307802036945, 17.852 196.98574468703612 Z M 17.852 194.69374468703612 L 17.852 193.7617446870361 L 19.439999999999998 193.7617446870361 L 19.439999999999998 194.69374468703612 Z M 21.944 200.1617446870361 L 21.944 193.7617446870361 L 23.003999999999998 193.7617446870361 L 23.003999999999998 200.1617446870361 Z " stroke="none" fill-rule="nonzero" fill="#000000" fill-opacity="1" transform="matrix(1,0,0,1,5.05,13.314)" id="text25 l" />
  <path d="M 0 193.13327489955466 L 10 193.13327489955466 L 10 194.63327489955466 L 0 194.63327489955466 Z " stroke="none" fill-rule="evenodd" fill="#000000" fill-opacity="1" transform="matrix(1,0,0,1,5.05,13.314)" id="mark26 l" />
  <path d="M 0 185.0548051120732 L 10 185.0548051120732 L 10 186.5548051120732 L 0 186.5548051120732 Z " stroke="none" fill-rule="evenodd" fill="#000000" fill-opacity="1" transform="matrix(1,0,0,1,5.05,13.314)" id="mark27 l" />
  <path d="M 0 176.97633532459176 L 10 176.97633532459176 L 10 178.47633532459176 L 0 178.47633532459176 Z " stroke="none" fill-rule="evenodd" fill="#000000" fill-opacity="1" transform="matrix(1,0,0,1,5.05,13.314)" id="mark28 l" />
  <path d="M 0 168.89786553711033 L 10 168.89786553711033 L 10 170.39786553711033 L 0 170.39786553711033 Z " stroke="none" fill-rule="evenodd" fill="#000000" fill-opacity="1" transform="matrix(1,0,0,1,5.05,13.314)" id="mark29 l" />
  <path d="M 0 160.81939574962888 L 25 160.81939574962888 L 25 162.31939574962888 L 0 162.31939574962888 Z " stroke="none" fill-rule="evenodd" fill="#000000" fill-opacity="1" transform="matrix(1,0,0,1,5.05,13.314)" id="mark30 l" />
  <path d="M 12.223999999999998 158.3533957496289 C 12.221333333333334 158.25206241629556, 12.219333333333333 158.16806241629556, 12.218 158.1013957496289 C 12.216666666666667 158.03472908296223, 12.216666666666667 157.96672908296222, 12.218 157.8973957496289 C 12.219333333333333 157.82806241629555, 12.221333333333334 157.73872908296224, 12.223999999999998 157.6293957496289 L 13.303999999999998 157.6293957496289 L 13.303999999999998 158.4933957496289 C 13.303999999999998 158.73072908296223, 13.417333333333332 158.8813957496289, 13.643999999999998 158.9453957496289 L 13.643999999999998 159.8373957496289 C 13.155999999999999 159.80006241629556, 12.800666666666665 159.66539574962889, 12.578 159.4333957496289 C 12.355333333333334 159.2013957496289, 12.237333333333332 158.8413957496289, 12.223999999999998 158.3533957496289 Z M 12.292 154.3013957496289 L 12.292 153.3693957496289 L 15.536 153.3693957496289 L 15.536 154.3013957496289 Z M 14.143999999999998 158.9493957496289 C 14.367999999999999 158.8933957496289, 14.483999999999998 158.74272908296223, 14.491999999999999 158.4973957496289 C 14.497333333333334 158.29472908296225, 14.500666666666666 158.11206241629557, 14.501999999999999 157.9493957496289 C 14.503333333333332 157.78672908296224, 14.498666666666665 157.6293957496289, 14.488 157.4773957496289 C 14.48 157.32006241629557, 14.431999999999999 157.18672908296224, 14.344 157.0773957496289 C 14.256 156.96806241629557, 14.089333333333332 156.91606241629557, 13.844 156.92139574962889 L 13.096 156.9293957496289 L 13.068 156.0373957496289 L 14.027999999999999 154.65339574962888 L 15.216 154.65339574962888 L 14.248 156.0053957496289 L 14.28 156.0053957496289 C 14.712 156.0053957496289, 15.028666666666666 156.12806241629556, 15.229999999999999 156.3733957496289 C 15.431333333333333 156.61872908296223, 15.544 156.99606241629556, 15.568 157.5053957496289 C 15.57333333333333 157.5773957496289, 15.576666666666664 157.6493957496289, 15.578 157.7213957496289 C 15.57933333333333 157.7933957496289, 15.579999999999998 157.86406241629555, 15.579999999999998 157.9333957496289 C 15.579999999999998 158.00272908296222, 15.57933333333333 158.07206241629555, 15.578 158.14139574962888 C 15.576666666666664 158.21072908296222, 15.57333333333333 158.2813957496289, 15.568 158.3533957496289 C 15.549333333333333 158.8493957496289, 15.428666666666665 159.21406241629558, 15.206 159.4473957496289 C 14.983333333333334 159.68072908296222, 14.630666666666666 159.81072908296224, 14.148 159.8373957496289 Z M 16.196 158.3573957496289 C 16.188000000000002 157.92806241629555, 16.182666666666666 157.5113957496289, 16.18 157.1073957496289 C 16.177333333333333 156.7033957496289, 16.177999999999997 156.30806241629557, 16.182 155.92139574962889 C 16.186 155.53472908296223, 16.190666666666665 155.1533957496289, 16.196 154.7773957496289 C 16.209333333333333 154.3373957496289, 16.334000000000003 153.9920624162956, 16.57 153.7413957496289 C 16.805999999999997 153.49072908296222, 17.142666666666663 153.3453957496289, 17.58 153.3053957496289 L 17.58 154.1933957496289 C 17.382666666666665 154.2493957496289, 17.281333333333333 154.37872908296225, 17.276 154.5813957496289 C 17.262666666666668 154.95206241629558, 17.253333333333334 155.30006241629556, 17.248 155.6253957496289 C 17.242666666666665 155.95072908296223, 17.24 156.2673957496289, 17.24 156.5753957496289 C 17.24 156.8833957496289, 17.242666666666665 157.19806241629556, 17.248 157.5193957496289 C 17.253333333333334 157.84072908296224, 17.262666666666668 158.18406241629555, 17.276 158.5493957496289 C 17.281333333333333 158.75739574962893, 17.382666666666665 158.8893957496289, 17.58 158.9453957496289 L 17.58 159.8333957496289 C 17.142666666666663 159.79339574962887, 16.805999999999997 159.64739574962888, 16.57 159.3953957496289 C 16.334000000000003 159.1433957496289, 16.209333333333333 158.7973957496289, 16.196 158.3573957496289 Z M 18.084 159.8333957496289 L 18.084 158.9413957496289 C 18.268 158.88806241629558, 18.366666666666667 158.7640624162956, 18.38 158.5693957496289 C 18.398666666666667 158.10272908296224, 18.410666666666668 157.65406241629557, 18.416 157.2233957496289 C 18.421333333333333 156.79272908296224, 18.421333333333333 156.36206241629557, 18.416 155.9313957496289 C 18.410666666666668 155.50072908296224, 18.398666666666667 155.04806241629558, 18.38 154.5733957496289 C 18.374666666666666 154.37872908296225, 18.276 154.2520624162956, 18.084 154.1933957496289 L 18.084 153.3053957496289 C 18.513333333333335 153.3453957496289, 18.846666666666668 153.49072908296222, 19.084 153.7413957496289 C 19.321333333333335 153.9920624162956, 19.445333333333334 154.3373957496289, 19.456 154.7773957496289 C 19.46666666666667 155.09206241629556, 19.474666666666668 155.40206241629556, 19.48 155.7073957496289 C 19.485333333333333 156.0127290829622, 19.488 156.31339574962888, 19.488 156.6093957496289 C 19.488 156.9053957496289, 19.485333333333333 157.19872908296222, 19.48 157.4893957496289 C 19.474666666666668 157.78006241629558, 19.46666666666667 158.0693957496289, 19.456 158.3573957496289 C 19.439999999999998 158.80806241629557, 19.311999999999998 159.15672908296224, 19.072 159.40339574962888 C 18.832 159.65006241629555, 18.502666666666666 159.79339574962887, 18.084 159.8333957496289 Z M 21.944 159.7693957496289 L 21.944 153.3693957496289 L 23.003999999999998 153.3693957496289 L 23.003999999999998 159.7693957496289 Z " stroke="none" fill-rule="nonzero" fill="#000000" fill-opacity="1" transform="matrix(1,0,0,1,5.05,13.314)" id="text30 l" />
  <path d="M 0 152.74092596214743 L 10 152.74092596214743 L 10 154.24092596214743 L 0 154.24092596214743 Z " stroke="none" fill-rule="evenodd" fill="#000000" fill-opacity="1" transform="matrix(1,0,0,1,5.05,13.314)" id="mark31 l" />
  <path d="M 0 144.66245617466598 L 10 144.66245617466598 L 10 146.16245617466598 L 0 146.16245617466598 Z " stroke="none" fill-rule="evenodd" fill="#000000" fill-opacity="1" transform="matrix(1,0,0,1,5.05,13.314)" id="mark32 l" />
  <path d="M 0 136.58398638718455 L 10 136.58398638718455 L 10 138.08398638718455 L 0 138.08398638718455 Z " stroke="none" fill-rule="evenodd" fill="#000000" fill-opacity="1" transform="matrix(1,0,0,1,5.05,13.314)" id="mark33 l" />
  <path d="M 0 128.50551659970313 L 10 128.50551659970313 L 10 130.00551659970313 L 0 130.00551659970313 Z " stroke="none" fill-rule="evenodd" fill="#000000" fill-opacity="1" transform="matrix(1,0,0,1,5.05,13.314)" id="mark34 l" />
  <path d="M 0 120.42704681222165 L 25 120.42704681222165 L 25 121.92704681222165 L 0 121.92704681222165 Z " stroke="none" fill-rule="evenodd" fill="#000000" fill-opacity="1" transform="matrix(1,0,0,1,5.05,13.314)" id="mark35 l" />
  <path d="M 12.232 117.92904681222166 C 12.229333333333333 117.82771347888833, 12.227333333333334 117.74371347888832, 12.226 117.67704681222165 C 12.224666666666668 117.61038014555498, 12.224666666666668 117.54238014555499, 12.226 117.47304681222165 C 12.227333333333334 117.40371347888832, 12.229333333333333 117.31438014555499, 12.232 117.20504681222165 L 13.312 117.20504681222165 L 13.312 118.06904681222166 C 13.312 118.30638014555498, 13.425333333333333 118.45704681222165, 13.652 118.52104681222166 L 13.652 119.41304681222165 C 13.164 119.37571347888831, 12.808666666666667 119.24104681222165, 12.586 119.00904681222165 C 12.363333333333333 118.77704681222166, 12.245333333333335 118.41704681222166, 12.232 117.92904681222166 Z M 12.3 113.87704681222165 L 12.3 112.94504681222165 L 15.544 112.94504681222165 L 15.544 113.87704681222165 Z M 14.152000000000001 118.52504681222166 C 14.376000000000001 118.46904681222166, 14.492 118.31838014555498, 14.5 118.07304681222165 C 14.505333333333333 117.87038014555498, 14.508666666666667 117.68771347888833, 14.51 117.52504681222166 C 14.511333333333333 117.362380145555, 14.506666666666668 117.20504681222165, 14.496 117.05304681222165 C 14.488 116.89571347888831, 14.440000000000001 116.76238014555497, 14.352 116.65304681222165 C 14.264 116.54371347888832, 14.097333333333335 116.49171347888833, 13.852 116.49704681222165 L 13.104 116.50504681222165 L 13.076 115.61304681222165 L 14.036 114.22904681222165 L 15.224 114.22904681222165 L 14.256 115.58104681222166 L 14.288 115.58104681222166 C 14.719999999999999 115.58104681222167, 15.036666666666665 115.70371347888832, 15.238 115.94904681222165 C 15.439333333333334 116.19438014555499, 15.552 116.57171347888831, 15.576 117.08104681222166 C 15.581333333333333 117.15304681222165, 15.584666666666667 117.22504681222165, 15.586 117.29704681222165 C 15.587333333333333 117.36904681222165, 15.588000000000001 117.43971347888832, 15.588000000000001 117.50904681222165 C 15.588000000000001 117.57838014555499, 15.587333333333333 117.64771347888832, 15.586 117.71704681222165 C 15.584666666666667 117.78638014555499, 15.581333333333333 117.85704681222165, 15.576 117.92904681222166 C 15.557333333333334 118.42504681222165, 15.436666666666667 118.78971347888832, 15.214 119.02304681222165 C 14.991333333333333 119.25638014555499, 14.638666666666666 119.386380145555, 14.156 119.41304681222165 Z M 16.18 117.92904681222166 C 16.174666666666667 117.75571347888832, 16.173333333333332 117.61638014555498, 16.176 117.51104681222165 C 16.178666666666665 117.40571347888832, 16.181333333333335 117.30371347888831, 16.183999999999997 117.20504681222165 L 17.264 117.20504681222165 C 17.256 117.28238014555498, 17.25 117.37838014555498, 17.246 117.49304681222165 C 17.241999999999997 117.60771347888831, 17.240666666666666 117.71838014555499, 17.241999999999997 117.82504681222166 C 17.243333333333332 117.93171347888833, 17.246666666666666 118.01171347888832, 17.252 118.06504681222165 C 17.262666666666668 118.18504681222166, 17.297333333333334 118.28304681222166, 17.355999999999998 118.35904681222165 C 17.414666666666665 118.43504681222166, 17.497333333333334 118.48904681222166, 17.604 118.52104681222166 L 17.604 119.41304681222165 C 17.110666666666663 119.37571347888831, 16.75333333333333 119.24104681222165, 16.532 119.00904681222165 C 16.310666666666666 118.77704681222166, 16.19333333333333 118.41704681222166, 16.18 117.92904681222166 Z M 16.279999999999998 116.59304681222166 L 16.279999999999998 112.94504681222165 L 17.348 112.94504681222165 L 17.348 116.59304681222166 Z M 17.852 116.16904681222165 L 17.852 115.41304681222165 C 17.929333333333332 115.37304681222165, 18.014666666666667 115.34104681222163, 18.107999999999997 115.31704681222165 C 18.20133333333333 115.29304681222166, 18.301333333333332 115.28104681222166, 18.407999999999998 115.28104681222166 C 18.773333333333333 115.28104681222166, 19.047333333333334 115.39638014555499, 19.23 115.62704681222165 C 19.412666666666667 115.85771347888831, 19.514666666666663 116.17171347888832, 19.535999999999998 116.56904681222166 C 19.546666666666667 116.72904681222165, 19.55333333333333 116.88771347888832, 19.555999999999997 117.04504681222166 C 19.558666666666664 117.202380145555, 19.557333333333332 117.35571347888832, 19.552 117.50504681222165 C 19.546666666666667 117.65438014555498, 19.538666666666668 117.79438014555498, 19.528 117.92504681222165 C 19.482666666666667 118.42371347888832, 19.353333333333335 118.78904681222164, 19.14 119.02104681222166 C 18.926666666666666 119.25304681222164, 18.581333333333333 119.38371347888832, 18.104 119.41304681222165 L 18.104 118.52104681222166 C 18.21333333333333 118.49171347888833, 18.296 118.43904681222166, 18.352 118.36304681222165 C 18.408 118.28704681222165, 18.44 118.18771347888831, 18.448 118.06504681222165 C 18.471999999999998 117.77438014555499, 18.485999999999997 117.51304681222166, 18.49 117.28104681222166 C 18.494 117.04904681222166, 18.485333333333333 116.82771347888831, 18.464 116.61704681222166 C 18.447999999999997 116.46238014555499, 18.396666666666665 116.34704681222166, 18.31 116.27104681222166 C 18.223333333333333 116.19504681222165, 18.090666666666664 116.15704681222164, 17.912 116.15704681222165 C 17.901333333333334 116.15704681222164, 17.890666666666668 116.15838014555499, 17.88 116.16104681222166 C 17.86933333333333 116.16371347888833, 17.86 116.166380145555, 17.852 116.16904681222165 Z M 17.852 113.87704681222165 L 17.852 112.94504681222165 L 19.439999999999998 112.94504681222165 L 19.439999999999998 113.87704681222165 Z M 21.944 119.34504681222165 L 21.944 112.94504681222165 L 23.003999999999998 112.94504681222165 L 23.003999999999998 119.34504681222165 Z " stroke="none" fill-rule="nonzero" fill="#000000" fill-opacity="1" transform="matrix(1,0,0,1,5.05,13.314)" id="text35 l" />
  <path d="M 0 112.34857702474022 L 10 112.34857702474022 L 10 113.84857702474022 L 0 113.84857702474022 Z " stroke="none" fill-rule="evenodd" fill="#000000" fill-opacity="1" transform="matrix(1,0,0,1,5.05,13.314)" id="mark36 l" />
  <path d="M 0 104.2701072372588 L 10 104.2701072372588 L 10 105.7701072372588 L 0 105.7701072372588 Z " stroke="none" fill-rule="evenodd" fill="#000000" fill-opacity="1" transform="matrix(1,0,0,1,5.05,13.314)" id="mark37 l" />
  <path d="M 0 96.19163744977732 L 10 96.19163744977732 L 10 97.69163744977732 L 0 97.69163744977732 Z " stroke="none" fill-rule="evenodd" fill="#000000" fill-opacity="1" transform="matrix(1,0,0,1,5.05,13.314)" id="mark38 l" />
  <path d="M 0 88.1131676622959 L 10 88.1131676622959 L 10 89.6131676622959 L 0 89.6131676622959 Z " stroke="none" fill-rule="evenodd" fill="#000000" fill-opacity="1" transform="matrix(1,0,0,1,5.05,13.314)" id="mark39 l" />
  <path d="M 0 80.03469787481447 L 25 80.03469787481447 L 25 81.53469787481447 L 0 81.53469787481447 Z " stroke="none" fill-rule="evenodd" fill="#000000" fill-opacity="1" transform="matrix(1,0,0,1,5.05,13.314)" id="mark40 l" />
  <path d="M 11.739999999999998 77.30069787481447 L 11.739999999999998 76.42469787481447 L 12.455999999999998 74.54469787481447 L 13.495999999999999 74.54469787481447 L 12.771999999999998 76.37669787481447 L 13.171999999999997 76.37669787481447 L 13.171999999999997 77.30069787481447 Z M 13.675999999999998 78.98469787481447 L 13.675999999999998 72.58469787481447 L 14.683999999999997 72.58469787481447 L 14.683999999999997 78.98469787481447 Z M 15.187999999999999 77.30069787481447 L 15.187999999999999 76.37669787481447 L 15.655999999999999 76.37669787481447 L 15.655999999999999 77.30069787481447 Z M 16.195999999999998 77.57269787481447 C 16.188 77.14336454148113, 16.182666666666666 76.72669787481448, 16.18 76.32269787481447 C 16.177333333333333 75.91869787481447, 16.177999999999997 75.52336454148114, 16.182 75.13669787481447 C 16.186 74.7500312081478, 16.190666666666665 74.36869787481447, 16.195999999999998 73.99269787481447 C 16.20933333333333 73.55269787481447, 16.333999999999996 73.20736454148113, 16.569999999999997 72.95669787481447 C 16.805999999999997 72.7060312081478, 17.142666666666663 72.56069787481448, 17.58 72.52069787481447 L 17.58 73.40869787481448 C 17.382666666666665 73.46469787481448, 17.281333333333333 73.59403120814781, 17.275999999999996 73.79669787481447 C 17.262666666666664 74.16736454148113, 17.25333333333333 74.51536454148113, 17.247999999999998 74.84069787481447 C 17.242666666666665 75.1660312081478, 17.24 75.48269787481446, 17.24 75.79069787481447 C 17.24 76.09869787481448, 17.242666666666665 76.41336454148114, 17.247999999999998 76.73469787481447 C 17.25333333333333 77.0560312081478, 17.262666666666664 77.39936454148113, 17.275999999999996 77.76469787481447 C 17.281333333333333 77.97269787481447, 17.382666666666665 78.10469787481446, 17.58 78.16069787481447 L 17.58 79.04869787481447 C 17.142666666666663 79.00869787481447, 16.805999999999997 78.86269787481447, 16.569999999999997 78.61069787481448 C 16.333999999999996 78.35869787481448, 16.20933333333333 78.01269787481448, 16.195999999999998 77.57269787481447 Z M 18.084 79.04869787481447 L 18.084 78.15669787481447 C 18.268 78.10336454148114, 18.366666666666667 77.97936454148113, 18.38 77.78469787481447 C 18.398666666666664 77.3180312081478, 18.410666666666664 76.86936454148113, 18.415999999999997 76.43869787481447 C 18.42133333333333 76.00803120814781, 18.42133333333333 75.57736454148115, 18.415999999999997 75.14669787481448 C 18.410666666666664 74.71603120814781, 18.398666666666664 74.26336454148114, 18.38 73.78869787481447 C 18.374666666666666 73.59403120814781, 18.276 73.46736454148115, 18.084 73.40869787481448 L 18.084 72.52069787481447 C 18.513333333333332 72.56069787481448, 18.846666666666664 72.7060312081478, 19.083999999999996 72.95669787481447 C 19.32133333333333 73.20736454148113, 19.44533333333333 73.55269787481447, 19.456 73.99269787481447 C 19.466666666666665 74.30736454148114, 19.474666666666664 74.61736454148114, 19.479999999999997 74.92269787481447 C 19.48533333333333 75.22803120814781, 19.488 75.52869787481447, 19.488 75.82469787481448 C 19.488 76.12069787481448, 19.48533333333333 76.4140312081478, 19.479999999999997 76.70469787481447 C 19.474666666666664 76.99536454148114, 19.466666666666665 77.28469787481447, 19.456 77.57269787481447 C 19.439999999999998 78.02336454148113, 19.311999999999998 78.3720312081478, 19.072 78.61869787481447 C 18.831999999999997 78.86536454148114, 18.502666666666663 79.00869787481447, 18.084 79.04869787481447 Z M 21.944 78.98469787481447 L 21.944 72.58469787481447 L 23.003999999999998 72.58469787481447 L 23.003999999999998 78.98469787481447 Z " stroke="none" fill-rule="nonzero" fill="#000000" fill-opacity="1" transform="matrix(1,0,0,1,5.05,13.314)" id="text40 l" />
  <path d="M 0 71.95622808733299 L 10 71.95622808733299 L 10 73.45622808733299 L 0 73.45622808733299 Z " stroke="none" fill-rule="evenodd" fill="#000000" fill-opacity="1" transform="matrix(1,0,0,1,5.05,13.314)" id="mark41 l" />
  <path d="M 0 63.877758299851564 L 10 63.877758299851564 L 10 65.37775829985156 L 0 65.37775829985156 Z " stroke="none" fill-rule="evenodd" fill="#000000" fill-opacity="1" transform="matrix(1,0,0,1,5.05,13.314)" id="mark42 l" />
  <path d="M 0 55.79928851237014 L 10 55.79928851237014 L 10 57.29928851237014 L 0 57.29928851237014 Z " stroke="none" fill-rule="evenodd" fill="#000000" fill-opacity="1" transform="matrix(1,0,0,1,5.05,13.314)" id="mark43 l" />
  <path d="M 0 47.72081872488866 L 10 47.72081872488866 L 10 49.22081872488866 L 0 49.22081872488866 Z " stroke="none" fill-rule="evenodd" fill="#000000" fill-opacity="1" transform="matrix(1,0,0,1,5.05,13.314)" id="mark44 l" />
  <path d="M 0 39.642348937407235 L 25 39.642348937407235 L 25 41.142348937407235 L 0 41.142348937407235 Z " stroke="none" fill-rule="evenodd" fill="#000000" fill-opacity="1" transform="matrix(1,0,0,1,5.05,13.314)" id="mark45 l" />
  <path d="M 11.748 36.876348937407236 L 11.748 36.00034893740723 L 12.463999999999999 34.120348937407236 L 13.503999999999998 34.120348937407236 L 12.78 35.95234893740724 L 13.18 35.95234893740724 L 13.18 36.876348937407236 Z M 13.684 38.560348937407234 L 13.684 32.160348937407235 L 14.691999999999998 32.160348937407235 L 14.691999999999998 38.560348937407234 Z M 15.195999999999998 36.876348937407236 L 15.195999999999998 35.95234893740724 L 15.663999999999998 35.95234893740724 L 15.663999999999998 36.876348937407236 Z M 16.18 37.14434893740724 C 16.174666666666667 36.9710156040739, 16.173333333333332 36.831682270740565, 16.176 36.72634893740723 C 16.178666666666665 36.621015604073904, 16.181333333333335 36.5190156040739, 16.183999999999997 36.42034893740723 L 17.264 36.42034893740723 C 17.256 36.49768227074057, 17.25 36.59368227074057, 17.246 36.70834893740724 C 17.241999999999997 36.8230156040739, 17.240666666666666 36.93368227074057, 17.241999999999997 37.04034893740723 C 17.243333333333332 37.1470156040739, 17.246666666666666 37.2270156040739, 17.252 37.28034893740723 C 17.262666666666668 37.40034893740723, 17.297333333333334 37.498348937407236, 17.355999999999998 37.57434893740724 C 17.414666666666665 37.65034893740724, 17.497333333333334 37.70434893740723, 17.604 37.736348937407236 L 17.604 38.62834893740723 C 17.110666666666663 38.5910156040739, 16.75333333333333 38.456348937407235, 16.532 38.224348937407235 C 16.310666666666666 37.992348937407236, 16.19333333333333 37.63234893740724, 16.18 37.14434893740724 Z M 16.279999999999998 35.80834893740723 L 16.279999999999998 32.160348937407235 L 17.348 32.160348937407235 L 17.348 35.80834893740723 Z M 17.852 35.38434893740723 L 17.852 34.62834893740723 C 17.929333333333332 34.58834893740723, 18.014666666666667 34.556348937407236, 18.107999999999997 34.532348937407235 C 18.20133333333333 34.508348937407234, 18.301333333333332 34.496348937407234, 18.407999999999998 34.496348937407234 C 18.773333333333333 34.496348937407234, 19.047333333333334 34.61168227074057, 19.23 34.84234893740724 C 19.412666666666667 35.0730156040739, 19.514666666666663 35.3870156040739, 19.535999999999998 35.78434893740723 C 19.546666666666667 35.944348937407234, 19.55333333333333 36.1030156040739, 19.555999999999997 36.26034893740724 C 19.558666666666664 36.41768227074057, 19.557333333333332 36.5710156040739, 19.552 36.72034893740723 C 19.546666666666667 36.86968227074057, 19.538666666666668 37.00968227074057, 19.528 37.14034893740723 C 19.482666666666667 37.639015604073904, 19.353333333333335 38.00434893740724, 19.14 38.236348937407236 C 18.926666666666666 38.468348937407235, 18.581333333333333 38.5990156040739, 18.104 38.62834893740723 L 18.104 37.736348937407236 C 18.21333333333333 37.7070156040739, 18.296 37.654348937407235, 18.352 37.578348937407235 C 18.408 37.502348937407234, 18.44 37.4030156040739, 18.448 37.28034893740723 C 18.471999999999998 36.989682270740566, 18.485999999999997 36.72834893740723, 18.49 36.496348937407234 C 18.494 36.264348937407235, 18.485333333333333 36.0430156040739, 18.464 35.83234893740723 C 18.447999999999997 35.67768227074056, 18.396666666666665 35.562348937407236, 18.31 35.486348937407236 C 18.223333333333333 35.410348937407235, 18.090666666666664 35.37234893740723, 17.912 35.37234893740723 C 17.901333333333334 35.37234893740723, 17.890666666666668 35.37368227074057, 17.88 35.376348937407236 C 17.86933333333333 35.3790156040739, 17.86 35.38168227074057, 17.852 35.38434893740723 Z M 17.852 33.09234893740724 L 17.852 32.160348937407235 L 19.439999999999998 32.160348937407235 L 19.439999999999998 33.09234893740724 Z M 21.944 38.560348937407234 L 21.944 32.160348937407235 L 23.003999999999998 32.160348937407235 L 23.003999999999998 38.560348937407234 Z " stroke="none" fill-rule="nonzero" fill="#000000" fill-opacity="1" transform="matrix(1,0,0,1,5.05,13.314)" id="text45 l" />
  <path d="M 0 31.56387914992581 L 10 31.56387914992581 L 10 33.06387914992581 L 0 33.06387914992581 Z " stroke="none" fill-rule="evenodd" fill="#000000" fill-opacity="1" transform="matrix(1,0,0,1,5.05,13.314)" id="mark46 l" />
  <path d="M 0 23.48540936244433 L 10 23.48540936244433 L 10 24.98540936244433 L 0 24.98540936244433 Z " stroke="none" fill-rule="evenodd" fill="#000000" fill-opacity="1" transform="matrix(1,0,0,1,5.05,13.314)" id="mark47 l" />
  <path d="M 0 15.406939574962905 L 10 15.406939574962905 L 10 16.906939574962905 L 0 16.906939574962905 Z " stroke="none" fill-rule="evenodd" fill="#000000" fill-opacity="1" transform="matrix(1,0,0,1,5.05,13.314)" id="mark48 l" />
  <path d="M 0 7.328469787481481 L 10 7.328469787481481 L 10 8.828469787481481 L 0 8.828469787481481 Z " stroke="none" fill-rule="evenodd" fill="#000000" fill-opacity="1" transform="matrix(1,0,0,1,5.05,13.314)" id="mark49 l" />
  <path d="M 0 -0.75 L 25 -0.75 L 25 0.75 L 0 0.75 Z " stroke="none" fill-rule="evenodd" fill="#000000" fill-opacity="1" transform="matrix(1,0,0,1,5.05,13.314)" id="mark50 l" />
  <path d="M 12.204 -3.2159999999999997 C 12.198666666666668 -3.389333333333333, 12.197333333333333 -3.528666666666667, 12.2 -3.634 C 12.202666666666667 -3.7393333333333336, 12.205333333333336 -3.841333333333333, 12.208 -3.94 L 13.288 -3.94 C 13.280000000000001 -3.8626666666666667, 13.274000000000001 -3.7666666666666666, 13.27 -3.6519999999999997 C 13.265999999999998 -3.5373333333333328, 13.264666666666667 -3.4266666666666667, 13.266 -3.32 C 13.267333333333333 -3.213333333333334, 13.270666666666667 -3.1333333333333337, 13.276 -3.08 C 13.286666666666665 -2.96, 13.321333333333332 -2.862, 13.379999999999999 -2.7859999999999996 C 13.438666666666666 -2.71, 13.521333333333335 -2.6559999999999997, 13.628 -2.6239999999999997 L 13.628 -1.7319999999999998 C 13.134666666666668 -1.7693333333333332, 12.777333333333335 -1.904, 12.556 -2.1359999999999997 C 12.334666666666667 -2.368, 12.217333333333332 -2.7279999999999998, 12.204 -3.2159999999999997 Z M 12.304 -4.552 L 12.304 -8.2 L 13.372 -8.2 L 13.372 -4.552 Z M 13.876 -4.976 L 13.876 -5.731999999999999 C 13.953333333333333 -5.771999999999999, 14.038666666666668 -5.804, 14.132 -5.828 C 14.225333333333333 -5.852, 14.325333333333333 -5.864, 14.432 -5.864 C 14.797333333333334 -5.864, 15.071333333333332 -5.748666666666667, 15.254 -5.518 C 15.436666666666667 -5.287333333333333, 15.538666666666668 -4.973333333333333, 15.56 -4.576 C 15.570666666666668 -4.416, 15.577333333333334 -4.257333333333333, 15.58 -4.1 C 15.582666666666666 -3.9426666666666668, 15.581333333333333 -3.7893333333333334, 15.576 -3.6399999999999997 C 15.570666666666666 -3.490666666666667, 15.562666666666665 -3.3506666666666667, 15.552 -3.2199999999999998 C 15.506666666666668 -2.721333333333333, 15.377333333333333 -2.356, 15.164 -2.1239999999999997 C 14.950666666666667 -1.892, 14.605333333333332 -1.7613333333333332, 14.128 -1.7319999999999998 L 14.128 -2.6239999999999997 C 14.237333333333334 -2.653333333333333, 14.32 -2.7059999999999995, 14.376 -2.782 C 14.432 -2.8579999999999997, 14.464 -2.957333333333333, 14.472 -3.08 C 14.495999999999999 -3.3706666666666667, 14.509999999999998 -3.6319999999999997, 14.514 -3.864 C 14.518 -4.096, 14.509333333333334 -4.317333333333333, 14.488 -4.5280000000000005 C 14.472000000000001 -4.682666666666667, 14.420666666666666 -4.798, 14.334 -4.874 C 14.247333333333334 -4.949999999999999, 14.114666666666666 -4.9879999999999995, 13.936 -4.9879999999999995 C 13.925333333333333 -4.9879999999999995, 13.914666666666665 -4.986666666666666, 13.904 -4.984 C 13.893333333333334 -4.981333333333334, 13.884 -4.978666666666667, 13.876 -4.976 Z M 13.876 -7.268 L 13.876 -8.2 L 15.464 -8.2 L 15.464 -7.268 Z M 16.196 -3.2119999999999997 C 16.188000000000002 -3.641333333333333, 16.182666666666666 -4.058, 16.18 -4.462 C 16.177333333333333 -4.866, 16.177999999999997 -5.261333333333333, 16.182 -5.648 C 16.186 -6.034666666666666, 16.190666666666665 -6.416, 16.196 -6.792 C 16.209333333333333 -7.231999999999999, 16.334000000000003 -7.577333333333334, 16.57 -7.828 C 16.805999999999997 -8.078666666666667, 17.142666666666663 -8.224, 17.58 -8.264 L 17.58 -7.3759999999999994 C 17.382666666666665 -7.32, 17.281333333333333 -7.190666666666667, 17.276 -6.9879999999999995 C 17.262666666666668 -6.617333333333333, 17.253333333333334 -6.269333333333333, 17.248 -5.944 C 17.242666666666665 -5.618666666666666, 17.24 -5.302, 17.24 -4.994 C 17.24 -4.686, 17.242666666666665 -4.371333333333333, 17.248 -4.05 C 17.253333333333334 -3.7286666666666664, 17.262666666666668 -3.3853333333333326, 17.276 -3.0199999999999996 C 17.281333333333333 -2.812, 17.382666666666665 -2.6799999999999997, 17.58 -2.6239999999999997 L 17.58 -1.7359999999999998 C 17.142666666666663 -1.7759999999999998, 16.805999999999997 -1.9219999999999997, 16.57 -2.174 C 16.334000000000003 -2.4259999999999997, 16.209333333333333 -2.772, 16.196 -3.2119999999999997 Z M 18.084 -1.7359999999999998 L 18.084 -2.6279999999999997 C 18.268 -2.681333333333333, 18.366666666666667 -2.8053333333333335, 18.38 -3 C 18.398666666666667 -3.4666666666666663, 18.410666666666668 -3.915333333333333, 18.416 -4.346 C 18.421333333333333 -4.776666666666666, 18.421333333333333 -5.207333333333333, 18.416 -5.638 C 18.410666666666668 -6.068666666666666, 18.398666666666667 -6.521333333333333, 18.38 -6.9959999999999996 C 18.374666666666666 -7.190666666666667, 18.276 -7.317333333333334, 18.084 -7.3759999999999994 L 18.084 -8.264 C 18.513333333333335 -8.224, 18.846666666666668 -8.078666666666667, 19.084 -7.828 C 19.321333333333335 -7.577333333333334, 19.445333333333334 -7.231999999999999, 19.456 -6.792 C 19.46666666666667 -6.477333333333332, 19.474666666666668 -6.167333333333333, 19.48 -5.861999999999999 C 19.485333333333333 -5.556666666666667, 19.488 -5.256, 19.488 -4.96 C 19.488 -4.664, 19.485333333333333 -4.370666666666667, 19.48 -4.08 C 19.474666666666668 -3.7893333333333334, 19.46666666666667 -3.5, 19.456 -3.2119999999999997 C 19.439999999999998 -2.761333333333333, 19.311999999999998 -2.4126666666666665, 19.072 -2.166 C 18.832 -1.9193333333333331, 18.502666666666666 -1.7759999999999998, 18.084 -1.7359999999999998 Z M 21.944 -1.7999999999999998 L 21.944 -8.2 L 23.003999999999998 -8.2 L 23.003999999999998 -1.7999999999999998 Z " stroke="none" fill-rule="nonzero" fill="#000000" fill-opacity="1" transform="matrix(1,0,0,1,5.05,13.314)" id="text50 l" />
  <path d="M -5 -13.264 L 30 -13.264 L 30 402.6130195865907 L -5 402.6130195865907 Z " stroke="#FF0000" stroke-opacity="1" stroke-width="0.1" stroke-linecap="butt" stroke-linejoin="miter" fill="none" transform="matrix(1,0,0,1,5.05,13.314)" />
</svg>