<?xml version="1.0" encoding="UTF-8"?>
<svg xmlns:xlink="http://www.w3.org/1999/xlink" viewBox="0 0 35.1 382.9922011321077" version="1.1" style="font-synthesis: none;" width="35.1mm" height="382.9922011321077mm" xmlns="http://www.w3.org/2000/svg">
  <defs />
  <style>	</style>
  <path d="M 0 0 L 35.1 0 L 35.1 382.9922011321077 L 0 382.9922011321077 Z " stroke="none" fill-rule="nonzero" fill="#FFFFFF" fill-opacity="1" transform="matrix(1,0,0,1,0,0)" />
  <path d="M 0 362.1102011321077 L 10 362.1102011321077 L 10 363.6102011321077 L 0 363.6102011321077 Z " stroke="none" fill-rule="evenodd" fill="#000000" fill-opacity="1" transform="matrix(1,0,0,1,5.05,13.314)" id="mark1 l" />
  <path d="M 0 355.9600282315635 L 10 355.9600282315635 L 10 357.4600282315635 L 0 357.4600282315635 Z " stroke="none" fill-rule="evenodd" fill="#000000" fill-opacity="1" transform="matrix(1,0,0,1,5.05,13.314)" id="mark2 l" />
  <path d="M 0 349.8098553310193 L 10 349.8098553310193 L 10 351.3098553310193 L 0 351.3098553310193 Z " stroke="none" fill-rule="evenodd" fill="#000000" fill-opacity="1" transform="matrix(1,0,0,1,5.05,13.314)" id="mark3 l" />
  <path d="M 0 343.6596824304751 L 10 343.6596824304751 L 10 345.1596824304751 L 0 345.1596824304751 Z " stroke="none" fill-rule="evenodd" fill="#000000" fill-opacity="1" transform="matrix(1,0,0,1,5.05,13.314)" id="mark4 l" />
  <path d="M 0 337.5095095299309 L 25 337.5095095299309 L 25 339.0095095299309 L 0 339.0095095299309 Z " stroke="none" fill-rule="evenodd" fill="#000000" fill-opacity="1" transform="matrix(1,0,0,1,5.05,13.314)" id="mark5 l" />
  <path d="M 16.18 335.0115095299309 C 16.174666666666667 334.83817619659754, 16.173333333333332 334.6988428632642, 16.176 334.5935095299309 C 16.178666666666665 334.4881761965976, 16.181333333333335 334.38617619659755, 16.183999999999997 334.2875095299309 L 17.264 334.2875095299309 C 17.256 334.36484286326424, 17.25 334.46084286326425, 17.246 334.5755095299309 C 17.241999999999997 334.6901761965976, 17.240666666666666 334.8008428632642, 17.241999999999997 334.9075095299309 C 17.243333333333332 335.01417619659753, 17.246666666666666 335.0941761965976, 17.252 335.1475095299309 C 17.262666666666668 335.26750952993086, 17.297333333333334 335.3655095299309, 17.355999999999998 335.4415095299309 C 17.414666666666665 335.51750952993086, 17.497333333333334 335.5715095299309, 17.604 335.6035095299309 L 17.604 336.49550952993087 C 17.110666666666663 336.45817619659755, 16.75333333333333 336.3235095299309, 16.532 336.0915095299309 C 16.310666666666666 335.85950952993085, 16.19333333333333 335.4995095299309, 16.18 335.0115095299309 Z M 16.279999999999998 333.6755095299309 L 16.279999999999998 330.0275095299309 L 17.348 330.0275095299309 L 17.348 333.6755095299309 Z M 17.852 333.2515095299309 L 17.852 332.49550952993087 C 17.929333333333332 332.45550952993085, 18.014666666666667 332.42350952993087, 18.107999999999997 332.39950952993087 C 18.20133333333333 332.37550952993087, 18.301333333333332 332.36350952993087, 18.407999999999998 332.36350952993087 C 18.773333333333333 332.36350952993087, 19.047333333333334 332.4788428632642, 19.23 332.70950952993087 C 19.412666666666667 332.9401761965975, 19.514666666666663 333.25417619659754, 19.535999999999998 333.6515095299309 C 19.546666666666667 333.8115095299309, 19.55333333333333 333.97017619659755, 19.555999999999997 334.1275095299309 C 19.558666666666664 334.2848428632642, 19.557333333333332 334.43817619659757, 19.552 334.5875095299309 C 19.546666666666667 334.73684286326426, 19.538666666666668 334.87684286326424, 19.528 335.00750952993087 C 19.482666666666667 335.50617619659755, 19.353333333333335 335.8715095299309, 19.14 336.1035095299309 C 18.926666666666666 336.33550952993085, 18.581333333333333 336.46617619659753, 18.104 336.49550952993087 L 18.104 335.6035095299309 C 18.21333333333333 335.57417619659753, 18.296 335.5215095299309, 18.352 335.44550952993086 C 18.408 335.36950952993084, 18.44 335.27017619659756, 18.448 335.1475095299309 C 18.471999999999998 334.8568428632642, 18.485999999999997 334.5955095299309, 18.49 334.36350952993087 C 18.494 334.1315095299309, 18.485333333333333 333.9101761965976, 18.464 333.6995095299309 C 18.447999999999997 333.5448428632642, 18.396666666666665 333.4295095299309, 18.31 333.3535095299309 C 18.223333333333333 333.2775095299309, 18.090666666666664 333.2395095299309, 17.912 333.2395095299309 C 17.901333333333334 333.2395095299309, 17.890666666666668 333.2408428632642, 17.88 333.24350952993086 C 17.86933333333333 333.24617619659756, 17.86 333.2488428632642, 17.852 333.2515095299309 Z M 17.852 330.95950952993087 L 17.852 330.0275095299309 L 19.439999999999998 330.0275095299309 L 19.439999999999998 330.95950952993087 Z M 21.944 336.4275095299309 L 21.944 330.0275095299309 L 23.003999999999998 330.0275095299309 L 23.003999999999998 336.4275095299309 Z " stroke="none" fill-rule="nonzero" fill="#000000" fill-opacity="1" transform="matrix(1,0,0,1,5.05,13.314)" id="text5 l" />
  <path d="M 0 331.3593366293867 L 10 331.3593366293867 L 10 332.8593366293867 L 0 332.8593366293867 Z " stroke="none" fill-rule="evenodd" fill="#000000" fill-opacity="1" transform="matrix(1,0,0,1,5.05,13.314)" id="mark6 l" />
  <path d="M 0 325.2091637288425 L 10 325.2091637288425 L 10 326.7091637288425 L 0 326.7091637288425 Z " stroke="none" fill-rule="evenodd" fill="#000000" fill-opacity="1" transform="matrix(1,0,0,1,5.05,13.314)" id="mark7 l" />
  <path d="M 0 319.0589908282983 L 10 319.0589908282983 L 10 320.5589908282983 L 0 320.5589908282983 Z " stroke="none" fill-rule="evenodd" fill="#000000" fill-opacity="1" transform="matrix(1,0,0,1,5.05,13.314)" id="mark8 l" />
  <path d="M 0 312.9088179277541 L 10 312.9088179277541 L 10 314.4088179277541 L 0 314.4088179277541 Z " stroke="none" fill-rule="evenodd" fill="#000000" fill-opacity="1" transform="matrix(1,0,0,1,5.05,13.314)" id="mark9 l" />
  <path d="M 0 306.7586450272099 L 25 306.7586450272099 L 25 308.2586450272099 L 0 308.2586450272099 Z " stroke="none" fill-rule="evenodd" fill="#000000" fill-opacity="1" transform="matrix(1,0,0,1,5.05,13.314)" id="mark10 l" />
  <path d="M 14.323999999999998 305.7086450272099 L 14.323999999999998 300.2646450272099 L 13.871999999999998 300.2646450272099 L 13.839999999999998 299.8846450272099 L 14.543999999999999 299.30864502720993 L 15.424 299.30864502720993 L 15.424 305.7086450272099 Z M 16.196 304.29664502720993 C 16.188000000000002 303.86731169387656, 16.182666666666666 303.45064502720993, 16.18 303.04664502720993 C 16.177333333333333 302.64264502720994, 16.177999999999997 302.24731169387655, 16.182 301.8606450272099 C 16.186 301.47397836054324, 16.190666666666665 301.0926450272099, 16.196 300.7166450272099 C 16.209333333333333 300.2766450272099, 16.334000000000003 299.9313116938766, 16.57 299.6806450272099 C 16.805999999999997 299.42997836054326, 17.142666666666663 299.28464502720993, 17.58 299.2446450272099 L 17.58 300.1326450272099 C 17.382666666666665 300.1886450272099, 17.281333333333333 300.31797836054324, 17.276 300.5206450272099 C 17.262666666666668 300.89131169387656, 17.253333333333334 301.2393116938766, 17.248 301.5646450272099 C 17.242666666666665 301.88997836054324, 17.24 302.2066450272099, 17.24 302.5146450272099 C 17.24 302.8226450272099, 17.242666666666665 303.13731169387654, 17.248 303.4586450272099 C 17.253333333333334 303.7799783605433, 17.262666666666668 304.1233116938766, 17.276 304.4886450272099 C 17.281333333333333 304.6966450272099, 17.382666666666665 304.8286450272099, 17.58 304.8846450272099 L 17.58 305.77264502720993 C 17.142666666666663 305.7326450272099, 16.805999999999997 305.5866450272099, 16.57 305.3346450272099 C 16.334000000000003 305.0826450272099, 16.209333333333333 304.7366450272099, 16.196 304.29664502720993 Z M 18.084 305.77264502720993 L 18.084 304.88064502720994 C 18.268 304.8273116938766, 18.366666666666667 304.70331169387657, 18.38 304.5086450272099 C 18.398666666666667 304.0419783605433, 18.410666666666668 303.5933116938766, 18.416 303.1626450272099 C 18.421333333333333 302.7319783605432, 18.421333333333333 302.3013116938765, 18.416 301.8706450272099 C 18.410666666666668 301.43997836054325, 18.398666666666667 300.98731169387656, 18.38 300.5126450272099 C 18.374666666666666 300.31797836054324, 18.276 300.19131169387657, 18.084 300.1326450272099 L 18.084 299.2446450272099 C 18.513333333333335 299.28464502720993, 18.846666666666668 299.42997836054326, 19.084 299.6806450272099 C 19.321333333333335 299.9313116938766, 19.445333333333334 300.2766450272099, 19.456 300.7166450272099 C 19.46666666666667 301.0313116938766, 19.474666666666668 301.3413116938766, 19.48 301.6466450272099 C 19.485333333333333 301.95197836054325, 19.488 302.25264502720995, 19.488 302.5486450272099 C 19.488 302.84464502720994, 19.485333333333333 303.13797836054323, 19.48 303.42864502720994 C 19.474666666666668 303.7193116938766, 19.46666666666667 304.0086450272099, 19.456 304.29664502720993 C 19.439999999999998 304.74731169387655, 19.311999999999998 305.09597836054326, 19.072 305.3426450272099 C 18.832 305.5893116938766, 18.502666666666666 305.7326450272099, 18.084 305.77264502720993 Z M 21.944 305.7086450272099 L 21.944 299.30864502720993 L 23.003999999999998 299.30864502720993 L 23.003999999999998 305.7086450272099 Z " stroke="none" fill-rule="nonzero" fill="#000000" fill-opacity="1" transform="matrix(1,0,0,1,5.05,13.314)" id="text10 l" />
  <path d="M 0 300.60847212666573 L 10 300.60847212666573 L 10 302.10847212666573 L 0 302.10847212666573 Z " stroke="none" fill-rule="evenodd" fill="#000000" fill-opacity="1" transform="matrix(1,0,0,1,5.05,13.314)" id="mark11 l" />
  <path d="M 0 294.45829922612154 L 10 294.45829922612154 L 10 295.95829922612154 L 0 295.95829922612154 Z " stroke="none" fill-rule="evenodd" fill="#000000" fill-opacity="1" transform="matrix(1,0,0,1,5.05,13.314)" id="mark12 l" />
  <path d="M 0 288.3081263255773 L 10 288.3081263255773 L 10 289.8081263255773 L 0 289.8081263255773 Z " stroke="none" fill-rule="evenodd" fill="#000000" fill-opacity="1" transform="matrix(1,0,0,1,5.05,13.314)" id="mark13 l" />
  <path d="M 0 282.1579534250331 L 10 282.1579534250331 L 10 283.6579534250331 L 0 283.6579534250331 Z " stroke="none" fill-rule="evenodd" fill="#000000" fill-opacity="1" transform="matrix(1,0,0,1,5.05,13.314)" id="mark14 l" />
  <path d="M 0 276.0077805244889 L 25 276.0077805244889 L 25 277.5077805244889 L 0 277.5077805244889 Z " stroke="none" fill-rule="evenodd" fill="#000000" fill-opacity="1" transform="matrix(1,0,0,1,5.05,13.314)" id="mark15 l" />
  <path d="M 14.331999999999999 274.9257805244889 L 14.331999999999999 269.4817805244889 L 13.879999999999999 269.4817805244889 L 13.847999999999999 269.1017805244889 L 14.552 268.52578052448894 L 15.432 268.52578052448894 L 15.432 274.9257805244889 Z M 16.18 273.5097805244889 C 16.174666666666667 273.33644719115557, 16.173333333333332 273.1971138578223, 16.176 273.0917805244889 C 16.178666666666665 272.98644719115555, 16.181333333333335 272.8844471911556, 16.183999999999997 272.7857805244889 L 17.264 272.7857805244889 C 17.256 272.8631138578222, 17.25 272.9591138578222, 17.246 273.07378052448894 C 17.241999999999997 273.18844719115555, 17.240666666666666 273.29911385782225, 17.241999999999997 273.40578052448893 C 17.243333333333332 273.51244719115556, 17.246666666666666 273.5924471911556, 17.252 273.64578052448894 C 17.262666666666668 273.7657805244889, 17.297333333333334 273.8637805244889, 17.355999999999998 273.9397805244889 C 17.414666666666665 274.0157805244889, 17.497333333333334 274.0697805244889, 17.604 274.1017805244889 L 17.604 274.9937805244889 C 17.110666666666663 274.9564471911556, 16.75333333333333 274.82178052448893, 16.532 274.5897805244889 C 16.310666666666666 274.3577805244889, 16.19333333333333 273.9977805244889, 16.18 273.5097805244889 Z M 16.279999999999998 272.1737805244889 L 16.279999999999998 268.52578052448894 L 17.348 268.52578052448894 L 17.348 272.1737805244889 Z M 17.852 271.7497805244889 L 17.852 270.9937805244889 C 17.929333333333332 270.9537805244889, 18.014666666666667 270.9217805244889, 18.107999999999997 270.8977805244889 C 18.20133333333333 270.8737805244889, 18.301333333333332 270.8617805244889, 18.407999999999998 270.8617805244889 C 18.773333333333333 270.8617805244889, 19.047333333333334 270.97711385782225, 19.23 271.2077805244889 C 19.412666666666667 271.43844719115555, 19.514666666666663 271.75244719115557, 19.535999999999998 272.1497805244889 C 19.546666666666667 272.30978052448893, 19.55333333333333 272.4684471911556, 19.555999999999997 272.6257805244889 C 19.558666666666664 272.78311385782223, 19.557333333333332 272.9364471911556, 19.552 273.08578052448894 C 19.546666666666667 273.2351138578223, 19.538666666666668 273.37511385782227, 19.528 273.5057805244889 C 19.482666666666667 274.0044471911556, 19.353333333333335 274.3697805244889, 19.14 274.6017805244889 C 18.926666666666666 274.83378052448893, 18.581333333333333 274.9644471911556, 18.104 274.9937805244889 L 18.104 274.1017805244889 C 18.21333333333333 274.07244719115556, 18.296 274.0197805244889, 18.352 273.9437805244889 C 18.408 273.8677805244889, 18.44 273.7684471911556, 18.448 273.64578052448894 C 18.471999999999998 273.35511385782223, 18.485999999999997 273.0937805244889, 18.49 272.8617805244889 C 18.494 272.6297805244889, 18.485333333333333 272.4084471911556, 18.464 272.1977805244889 C 18.447999999999997 272.0431138578223, 18.396666666666665 271.9277805244889, 18.31 271.8517805244889 C 18.223333333333333 271.77578052448894, 18.090666666666664 271.7377805244889, 17.912 271.7377805244889 C 17.901333333333334 271.7377805244889, 17.890666666666668 271.73911385782225, 17.88 271.7417805244889 C 17.86933333333333 271.7444471911556, 17.86 271.7471138578222, 17.852 271.7497805244889 Z M 17.852 269.4577805244889 L 17.852 268.52578052448894 L 19.439999999999998 268.52578052448894 L 19.439999999999998 269.4577805244889 Z M 21.944 274.9257805244889 L 21.944 268.52578052448894 L 23.003999999999998 268.52578052448894 L 23.003999999999998 274.9257805244889 Z " stroke="none" fill-rule="nonzero" fill="#000000" fill-opacity="1" transform="matrix(1,0,0,1,5.05,13.314)" id="text15 l" />
  <path d="M 0 269.8576076239447 L 10 269.8576076239447 L 10 271.3576076239447 L 0 271.3576076239447 Z " stroke="none" fill-rule="evenodd" fill="#000000" fill-opacity="1" transform="matrix(1,0,0,1,5.05,13.314)" id="mark16 l" />
  <path d="M 0 263.7074347234005 L 10 263.7074347234005 L 10 265.2074347234005 L 0 265.2074347234005 Z " stroke="none" fill-rule="evenodd" fill="#000000" fill-opacity="1" transform="matrix(1,0,0,1,5.05,13.314)" id="mark17 l" />
  <path d="M 0 257.55726182285633 L 10 257.55726182285633 L 10 259.05726182285633 L 0 259.05726182285633 Z " stroke="none" fill-rule="evenodd" fill="#000000" fill-opacity="1" transform="matrix(1,0,0,1,5.05,13.314)" id="mark18 l" />
  <path d="M 0 251.40708892231214 L 10 251.40708892231214 L 10 252.90708892231214 L 0 252.90708892231214 Z " stroke="none" fill-rule="evenodd" fill="#000000" fill-opacity="1" transform="matrix(1,0,0,1,5.05,13.314)" id="mark19 l" />
  <path d="M 0 245.25691602176792 L 25 245.25691602176792 L 25 246.75691602176792 L 0 246.75691602176792 Z " stroke="none" fill-rule="evenodd" fill="#000000" fill-opacity="1" transform="matrix(1,0,0,1,5.05,13.314)" id="mark20 l" />
  <path d="M 12.319999999999999 244.20691602176794 C 12.317333333333334 244.1082493551013, 12.315333333333331 244.01958268843464, 12.313999999999998 243.94091602176795 C 12.312666666666665 243.8622493551013, 12.311333333333334 243.7882493551013, 12.309999999999999 243.71891602176794 C 12.308666666666667 243.64958268843458, 12.308 243.57758268843457, 12.308 243.50291602176793 C 12.308 243.4282493551013, 12.308 243.3435826884346, 12.308 243.24891602176794 C 12.308 243.15424935510129, 12.309333333333335 243.04291602176795, 12.312 242.91491602176794 C 12.32 242.62158268843461, 12.37 242.3595826884346, 12.462 242.12891602176794 C 12.554 241.89824935510126, 12.687999999999999 241.6922493551013, 12.863999999999999 241.51091602176794 C 13.04 241.32958268843464, 13.257333333333333 241.1682493551013, 13.515999999999998 241.02691602176793 L 14.047999999999998 240.73891602176795 C 14.234666666666666 240.6375826884346, 14.354 240.51558268843462, 14.405999999999999 240.37291602176794 C 14.457999999999998 240.23024935510125, 14.488 240.09624935510126, 14.495999999999999 239.97091602176795 C 14.506666666666664 239.82424935510127, 14.512666666666664 239.6675826884346, 14.514 239.50091602176795 C 14.51533333333333 239.3342493551013, 14.511999999999997 239.17758268843463, 14.504 239.03091602176795 C 14.498666666666665 238.92691602176794, 14.468666666666666 238.84091602176795, 14.413999999999998 238.77291602176794 C 14.359333333333332 238.70491602176793, 14.279999999999998 238.65624935510127, 14.175999999999998 238.62691602176793 L 14.175999999999998 237.73891602176795 C 14.663999999999998 237.77091602176796, 15.014 237.90224935510128, 15.225999999999999 238.13291602176793 C 15.437999999999999 238.36358268843458, 15.554666666666666 238.72424935510128, 15.575999999999999 239.21491602176795 C 15.578666666666663 239.27891602176794, 15.580666666666666 239.34424935510128, 15.581999999999999 239.41091602176795 C 15.583333333333332 239.4775826884346, 15.584 239.54224935510126, 15.584 239.60491602176793 C 15.584 239.6675826884346, 15.583333333333332 239.7295826884346, 15.581999999999999 239.79091602176794 C 15.580666666666666 239.85224935510126, 15.578666666666663 239.91224935510127, 15.575999999999999 239.97091602176795 C 15.565333333333331 240.2562493551013, 15.512 240.50291602176793, 15.415999999999999 240.71091602176793 C 15.32 240.91891602176793, 15.19 241.09891602176793, 15.026 241.25091602176795 C 14.862 241.4029160217679, 14.672 241.53891602176793, 14.456 241.65891602176794 L 13.851999999999999 241.98691602176794 C 13.737333333333332 242.0482493551013, 13.647333333333332 242.1322493551013, 13.581999999999999 242.23891602176795 C 13.516666666666666 242.3455826884346, 13.469999999999999 242.45891602176795, 13.441999999999998 242.57891602176795 C 13.413999999999998 242.69891602176796, 13.399999999999999 242.81091602176792, 13.399999999999999 242.91491602176794 L 13.399999999999999 244.20691602176794 Z M 12.328 240.16691602176795 C 12.322666666666667 240.0495826884346, 12.318666666666665 239.93491602176795, 12.315999999999999 239.82291602176792 C 12.313333333333333 239.71091602176796, 12.311333333333334 239.60491602176796, 12.309999999999999 239.50491602176794 C 12.308666666666667 239.40491602176792, 12.309333333333335 239.30824935510128, 12.312 239.21491602176795 C 12.330666666666666 238.72691602176798, 12.447333333333333 238.36758268843462, 12.661999999999999 238.13691602176795 C 12.876666666666665 237.90624935510127, 13.213333333333331 237.7735826884346, 13.671999999999999 237.73891602176795 L 13.671999999999999 238.63091602176794 C 13.576 238.66024935510126, 13.505333333333333 238.70691602176794, 13.459999999999999 238.77091602176793 C 13.414666666666665 238.83491602176792, 13.390666666666664 238.91224935510127, 13.387999999999998 239.00291602176793 C 13.382666666666665 239.21091602176796, 13.379333333333333 239.40424935510129, 13.378 239.58291602176794 C 13.376666666666667 239.7615826884346, 13.381333333333334 239.95624935510125, 13.392 240.16691602176795 Z M 13.904 244.20691602176794 L 13.904 243.27491602176795 L 15.5 243.27491602176795 L 15.5 244.20691602176794 Z M 16.196 242.79491602176793 C 16.188000000000002 242.36558268843459, 16.182666666666666 241.94891602176793, 16.18 241.54491602176793 C 16.177333333333333 241.14091602176794, 16.177999999999997 240.74558268843458, 16.182 240.35891602176793 C 16.186 239.97224935510127, 16.190666666666665 239.59091602176795, 16.196 239.21491602176795 C 16.209333333333333 238.77491602176798, 16.334000000000003 238.4295826884346, 16.57 238.17891602176795 C 16.805999999999997 237.9282493551013, 17.142666666666663 237.78291602176796, 17.58 237.74291602176794 L 17.58 238.63091602176794 C 17.382666666666665 238.68691602176796, 17.281333333333333 238.81624935510126, 17.276 239.01891602176795 C 17.262666666666668 239.3895826884346, 17.253333333333334 239.7375826884346, 17.248 240.06291602176793 C 17.242666666666665 240.38824935510127, 17.24 240.70491602176793, 17.24 241.01291602176795 C 17.24 241.32091602176797, 17.242666666666665 241.63558268843462, 17.248 241.95691602176794 C 17.253333333333334 242.27824935510125, 17.262666666666668 242.62158268843461, 17.276 242.98691602176794 C 17.281333333333333 243.19491602176794, 17.382666666666665 243.32691602176794, 17.58 243.38291602176793 L 17.58 244.27091602176793 C 17.142666666666663 244.23091602176794, 16.805999999999997 244.08491602176792, 16.57 243.83291602176794 C 16.334000000000003 243.58091602176796, 16.209333333333333 243.23491602176796, 16.196 242.79491602176793 Z M 18.084 244.27091602176793 L 18.084 243.37891602176794 C 18.268 243.32558268843462, 18.366666666666667 243.20158268843463, 18.38 243.00691602176795 C 18.398666666666667 242.54024935510128, 18.410666666666668 242.0915826884346, 18.416 241.66091602176795 C 18.421333333333333 241.23024935510128, 18.421333333333333 240.7995826884346, 18.416 240.36891602176794 C 18.410666666666668 239.93824935510128, 18.398666666666667 239.4855826884346, 18.38 239.01091602176794 C 18.374666666666666 238.81624935510126, 18.276 238.6895826884346, 18.084 238.63091602176794 L 18.084 237.74291602176794 C 18.513333333333335 237.78291602176796, 18.846666666666668 237.9282493551013, 19.084 238.17891602176795 C 19.321333333333335 238.4295826884346, 19.445333333333334 238.77491602176798, 19.456 239.21491602176795 C 19.46666666666667 239.52958268843463, 19.474666666666668 239.8395826884346, 19.48 240.14491602176793 C 19.485333333333333 240.45024935510125, 19.488 240.75091602176792, 19.488 241.04691602176794 C 19.488 241.34291602176793, 19.485333333333333 241.63624935510126, 19.48 241.92691602176794 C 19.474666666666668 242.21758268843462, 19.46666666666667 242.50691602176795, 19.456 242.79491602176793 C 19.439999999999998 243.24558268843464, 19.311999999999998 243.59424935510128, 19.072 243.84091602176792 C 18.832 244.0875826884346, 18.502666666666666 244.23091602176794, 18.084 244.27091602176793 Z M 21.944 244.20691602176794 L 21.944 237.80691602176793 L 23.003999999999998 237.80691602176793 L 23.003999999999998 244.20691602176794 Z " stroke="none" fill-rule="nonzero" fill="#000000" fill-opacity="1" transform="matrix(1,0,0,1,5.05,13.314)" id="text20 l" />
  <path d="M 0 239.10674312122373 L 10 239.10674312122373 L 10 240.60674312122373 L 0 240.60674312122373 Z " stroke="none" fill-rule="evenodd" fill="#000000" fill-opacity="1" transform="matrix(1,0,0,1,5.05,13.314)" id="mark21 l" />
  <path d="M 0 232.95657022067954 L 10 232.95657022067954 L 10 234.45657022067954 L 0 234.45657022067954 Z " stroke="none" fill-rule="evenodd" fill="#000000" fill-opacity="1" transform="matrix(1,0,0,1,5.05,13.314)" id="mark22 l" />
  <path d="M 0 226.80639732013535 L 10 226.80639732013535 L 10 228.30639732013535 L 0 228.30639732013535 Z " stroke="none" fill-rule="evenodd" fill="#000000" fill-opacity="1" transform="matrix(1,0,0,1,5.05,13.314)" id="mark23 l" />
  <path d="M 0 220.65622441959113 L 10 220.65622441959113 L 10 222.15622441959113 L 0 222.15622441959113 Z " stroke="none" fill-rule="evenodd" fill="#000000" fill-opacity="1" transform="matrix(1,0,0,1,5.05,13.314)" id="mark24 l" />
  <path d="M 0 214.50605151904693 L 25 214.50605151904693 L 25 216.00605151904693 L 0 216.00605151904693 Z " stroke="none" fill-rule="evenodd" fill="#000000" fill-opacity="1" transform="matrix(1,0,0,1,5.05,13.314)" id="mark25 l" />
  <path d="M 12.328 213.45605151904695 C 12.325333333333333 213.35738485238028, 12.323333333333332 213.26871818571362, 12.322 213.19005151904696 C 12.320666666666666 213.1113848523803, 12.319333333333333 213.03738485238028, 12.318 212.96805151904695 C 12.316666666666666 212.89871818571362, 12.315999999999999 212.82671818571362, 12.316 212.75205151904694 C 12.315999999999999 212.67738485238027, 12.315999999999999 212.5927181857136, 12.316 212.49805151904695 C 12.315999999999999 212.4033848523803, 12.317333333333334 212.29205151904696, 12.32 212.16405151904695 C 12.328 211.87071818571363, 12.378 211.60871818571363, 12.47 211.37805151904695 C 12.562000000000001 211.14738485238027, 12.696 210.94138485238028, 12.872 210.76005151904695 C 13.048 210.57871818571363, 13.265333333333334 210.41738485238028, 13.524000000000001 210.27605151904694 L 14.056000000000001 209.98805151904696 C 14.242666666666668 209.88671818571362, 14.362000000000002 209.7647181857136, 14.414 209.62205151904695 C 14.466000000000001 209.4793848523803, 14.495999999999999 209.34538485238028, 14.504 209.22005151904696 C 14.514666666666667 209.0733848523803, 14.520666666666667 208.91671818571365, 14.522 208.75005151904696 C 14.523333333333333 208.58338485238028, 14.520000000000001 208.42671818571364, 14.512 208.28005151904696 C 14.506666666666666 208.17605151904695, 14.476666666666667 208.09005151904694, 14.422 208.02205151904695 C 14.367333333333335 207.95405151904697, 14.288 207.90538485238028, 14.184000000000001 207.87605151904694 L 14.184000000000001 206.98805151904696 C 14.672 207.02005151904694, 15.022000000000002 207.15138485238026, 15.234 207.38205151904694 C 15.446000000000002 207.61271818571362, 15.562666666666667 207.97338485238026, 15.584 208.46405151904696 C 15.586666666666668 208.52805151904698, 15.588666666666668 208.59338485238032, 15.59 208.66005151904696 C 15.591333333333335 208.72671818571365, 15.592000000000002 208.7913848523803, 15.592 208.85405151904695 C 15.592000000000002 208.9167181857136, 15.591333333333335 208.9787181857136, 15.59 209.04005151904695 C 15.588666666666668 209.1013848523803, 15.586666666666668 209.1613848523803, 15.584 209.22005151904696 C 15.573333333333332 209.5053848523803, 15.52 209.75205151904694, 15.424 209.96005151904694 C 15.328 210.16805151904694, 15.197999999999999 210.34805151904695, 15.033999999999999 210.50005151904696 C 14.87 210.65205151904695, 14.68 210.78805151904695, 14.464 210.90805151904695 L 13.86 211.23605151904695 C 13.745333333333335 211.29738485238028, 13.655333333333335 211.38138485238028, 13.59 211.48805151904696 C 13.524666666666668 211.59471818571365, 13.478000000000002 211.70805151904693, 13.45 211.82805151904694 C 13.422 211.94805151904694, 13.408 212.06005151904694, 13.408 212.16405151904695 L 13.408 213.45605151904695 Z M 12.336 209.41605151904696 C 12.330666666666666 209.29871818571362, 12.326666666666664 209.18405151904696, 12.324 209.07205151904697 C 12.321333333333332 208.96005151904697, 12.319333333333333 208.85405151904695, 12.318 208.75405151904695 C 12.316666666666666 208.65405151904696, 12.317333333333334 208.55738485238027, 12.32 208.46405151904696 C 12.338666666666668 207.97605151904696, 12.455333333333336 207.61671818571364, 12.67 207.38605151904696 C 12.884666666666668 207.15538485238028, 13.221333333333334 207.02271818571364, 13.68 206.98805151904696 L 13.68 207.88005151904696 C 13.584 207.90938485238027, 13.513333333333332 207.95605151904692, 13.468 208.02005151904694 C 13.422666666666668 208.08405151904697, 13.398666666666667 208.16138485238028, 13.396 208.25205151904694 C 13.390666666666666 208.46005151904694, 13.387333333333332 208.65338485238027, 13.386 208.83205151904696 C 13.384666666666666 209.01071818571364, 13.389333333333333 209.2053848523803, 13.4 209.41605151904696 Z M 13.911999999999999 213.45605151904695 L 13.911999999999999 212.52405151904696 L 15.508 212.52405151904696 L 15.508 213.45605151904695 Z M 16.18 212.04005151904695 C 16.174666666666667 211.86671818571364, 16.173333333333332 211.72738485238028, 16.176 211.62205151904695 C 16.178666666666665 211.51671818571361, 16.181333333333335 211.41471818571364, 16.183999999999997 211.31605151904697 L 17.264 211.31605151904697 C 17.256 211.39338485238028, 17.25 211.48938485238028, 17.246 211.60405151904695 C 17.241999999999997 211.7187181857136, 17.240666666666666 211.82938485238026, 17.241999999999997 211.93605151904694 C 17.243333333333332 212.04271818571362, 17.246666666666666 212.1227181857136, 17.252 212.17605151904695 C 17.262666666666668 212.29605151904696, 17.297333333333334 212.39405151904697, 17.355999999999998 212.47005151904696 C 17.414666666666665 212.54605151904696, 17.497333333333334 212.60005151904693, 17.604 212.63205151904694 L 17.604 213.52405151904696 C 17.110666666666663 213.48671818571364, 16.75333333333333 213.35205151904694, 16.532 213.12005151904694 C 16.310666666666666 212.88805151904694, 16.19333333333333 212.52805151904698, 16.18 212.04005151904695 Z M 16.279999999999998 210.70405151904694 L 16.279999999999998 207.05605151904695 L 17.348 207.05605151904695 L 17.348 210.70405151904694 Z M 17.852 210.28005151904696 L 17.852 209.52405151904696 C 17.929333333333332 209.48405151904697, 18.014666666666667 209.45205151904696, 18.107999999999997 209.42805151904696 C 18.20133333333333 209.40405151904696, 18.301333333333332 209.39205151904696, 18.407999999999998 209.39205151904696 C 18.773333333333333 209.39205151904696, 19.047333333333334 209.5073848523803, 19.23 209.73805151904696 C 19.412666666666667 209.9687181857136, 19.514666666666663 210.28271818571363, 19.535999999999998 210.68005151904694 C 19.546666666666667 210.84005151904694, 19.55333333333333 210.99871818571364, 19.555999999999997 211.15605151904694 C 19.558666666666664 211.3133848523803, 19.557333333333332 211.4667181857136, 19.552 211.61605151904695 C 19.546666666666667 211.7653848523803, 19.538666666666668 211.90538485238028, 19.528 212.03605151904696 C 19.482666666666667 212.53471818571361, 19.353333333333335 212.90005151904694, 19.14 213.13205151904694 C 18.926666666666666 213.36405151904694, 18.581333333333333 213.49471818571362, 18.104 213.52405151904696 L 18.104 212.63205151904694 C 18.21333333333333 212.60271818571363, 18.296 212.55005151904697, 18.352 212.47405151904695 C 18.408 212.39805151904693, 18.44 212.2987181857136, 18.448 212.17605151904695 C 18.471999999999998 211.8853848523803, 18.485999999999997 211.62405151904693, 18.49 211.39205151904696 C 18.494 211.16005151904693, 18.485333333333333 210.9387181857136, 18.464 210.72805151904694 C 18.447999999999997 210.5733848523803, 18.396666666666665 210.45805151904693, 18.31 210.38205151904694 C 18.223333333333333 210.30605151904695, 18.090666666666664 210.268051519047, 17.912 210.26805151904696 C 17.901333333333334 210.268051519047, 17.890666666666668 210.2693848523803, 17.88 210.27205151904695 C 17.86933333333333 210.2747181857136, 17.86 210.2773848523803, 17.852 210.28005151904696 Z M 17.852 207.98805151904696 L 17.852 207.05605151904695 L 19.439999999999998 207.05605151904695 L 19.439999999999998 207.98805151904696 Z M 21.944 213.45605151904695 L 21.944 207.05605151904695 L 23.003999999999998 207.05605151904695 L 23.003999999999998 213.45605151904695 Z " stroke="none" fill-rule="nonzero" fill="#000000" fill-opacity="1" transform="matrix(1,0,0,1,5.05,13.314)" id="text25 l" />
  <path d="M 0 208.35587861850274 L 10 208.35587861850274 L 10 209.85587861850274 L 0 209.85587861850274 Z " stroke="none" fill-rule="evenodd" fill="#000000" fill-opacity="1" transform="matrix(1,0,0,1,5.05,13.314)" id="mark26 l" />
  <path d="M 0 202.20570571795855 L 10 202.20570571795855 L 10 203.70570571795855 L 0 203.70570571795855 Z " stroke="none" fill-rule="evenodd" fill="#000000" fill-opacity="1" transform="matrix(1,0,0,1,5.05,13.314)" id="mark27 l" />
  <path d="M 0 196.05553281741433 L 10 196.05553281741433 L 10 197.55553281741433 L 0 197.55553281741433 Z " stroke="none" fill-rule="evenodd" fill="#000000" fill-opacity="1" transform="matrix(1,0,0,1,5.05,13.314)" id="mark28 l" />
  <path d="M 0 189.90535991687014 L 10 189.90535991687014 L 10 191.40535991687014 L 0 191.40535991687014 Z " stroke="none" fill-rule="evenodd" fill="#000000" fill-opacity="1" transform="matrix(1,0,0,1,5.05,13.314)" id="mark29 l" />
  <path d="M 0 183.75518701632595 L 25 183.75518701632595 L 25 185.25518701632595 L 0 185.25518701632595 Z " stroke="none" fill-rule="evenodd" fill="#000000" fill-opacity="1" transform="matrix(1,0,0,1,5.05,13.314)" id="mark30 l" />
  <path d="M 12.223999999999998 181.28918701632597 C 12.221333333333334 181.18785368299262, 12.219333333333333 181.10385368299262, 12.218 181.03718701632596 C 12.216666666666667 180.9705203496593, 12.216666666666667 180.9025203496593, 12.218 180.83318701632595 C 12.219333333333333 180.76385368299265, 12.221333333333334 180.6745203496593, 12.223999999999998 180.56518701632598 L 13.303999999999998 180.56518701632598 L 13.303999999999998 181.42918701632595 C 13.303999999999998 181.66652034965932, 13.417333333333332 181.817187016326, 13.643999999999998 181.88118701632595 L 13.643999999999998 182.77318701632598 C 13.155999999999999 182.73585368299263, 12.800666666666665 182.60118701632598, 12.578 182.36918701632595 C 12.355333333333334 182.13718701632598, 12.237333333333332 181.77718701632597, 12.223999999999998 181.28918701632597 Z M 12.292 177.23718701632598 L 12.292 176.30518701632596 L 15.536 176.30518701632596 L 15.536 177.23718701632598 Z M 14.143999999999998 181.88518701632597 C 14.367999999999999 181.82918701632596, 14.483999999999998 181.6785203496593, 14.491999999999999 181.43318701632597 C 14.497333333333334 181.23052034965932, 14.500666666666666 181.04785368299264, 14.501999999999999 180.88518701632597 C 14.503333333333332 180.7225203496593, 14.498666666666665 180.56518701632598, 14.488 180.41318701632596 C 14.48 180.25585368299264, 14.431999999999999 180.1225203496593, 14.344 180.01318701632596 C 14.256 179.90385368299263, 14.089333333333332 179.8518536829926, 13.844 179.85718701632595 L 13.096 179.86518701632596 L 13.068 178.97318701632597 L 14.027999999999999 177.58918701632598 L 15.216 177.58918701632598 L 14.248 178.94118701632596 L 14.28 178.94118701632596 C 14.712 178.94118701632596, 15.028666666666666 179.06385368299263, 15.229999999999999 179.30918701632598 C 15.431333333333333 179.5545203496593, 15.544 179.93185368299262, 15.568 180.44118701632596 C 15.57333333333333 180.51318701632596, 15.576666666666664 180.58518701632596, 15.578 180.65718701632596 C 15.57933333333333 180.72918701632597, 15.579999999999998 180.79985368299265, 15.579999999999998 180.86918701632595 C 15.579999999999998 180.9385203496593, 15.57933333333333 181.00785368299265, 15.578 181.07718701632598 C 15.576666666666664 181.1465203496593, 15.57333333333333 181.21718701632597, 15.568 181.28918701632597 C 15.549333333333333 181.78518701632598, 15.428666666666665 182.14985368299264, 15.206 182.38318701632596 C 14.983333333333334 182.61652034965928, 14.630666666666666 182.7465203496593, 14.148 182.77318701632598 Z M 16.196 181.29318701632596 C 16.188000000000002 180.8638536829926, 16.182666666666666 180.44718701632596, 16.18 180.04318701632596 C 16.177333333333333 179.63918701632596, 16.177999999999997 179.24385368299264, 16.182 178.85718701632595 C 16.186 178.4705203496593, 16.190666666666665 178.08918701632598, 16.196 177.71318701632597 C 16.209333333333333 177.27318701632598, 16.334000000000003 176.92785368299263, 16.57 176.67718701632597 C 16.805999999999997 176.4265203496593, 17.142666666666663 176.281187016326, 17.58 176.24118701632597 L 17.58 177.12918701632597 C 17.382666666666665 177.18518701632598, 17.281333333333333 177.31452034965932, 17.276 177.51718701632598 C 17.262666666666668 177.88785368299264, 17.253333333333334 178.23585368299263, 17.248 178.56118701632596 C 17.242666666666665 178.8865203496593, 17.24 179.20318701632596, 17.24 179.51118701632598 C 17.24 179.81918701632597, 17.242666666666665 180.13385368299262, 17.248 180.45518701632597 C 17.253333333333334 180.7765203496593, 17.262666666666668 181.11985368299264, 17.276 181.48518701632597 C 17.281333333333333 181.69318701632596, 17.382666666666665 181.82518701632597, 17.58 181.88118701632595 L 17.58 182.76918701632596 C 17.142666666666663 182.72918701632597, 16.805999999999997 182.58318701632595, 16.57 182.33118701632597 C 16.334000000000003 182.07918701632596, 16.209333333333333 181.73318701632596, 16.196 181.29318701632596 Z M 18.084 182.76918701632596 L 18.084 181.87718701632596 C 18.268 181.82385368299265, 18.366666666666667 181.69985368299265, 18.38 181.50518701632598 C 18.398666666666667 181.0385203496593, 18.410666666666668 180.58985368299264, 18.416 180.15918701632597 C 18.421333333333333 179.7285203496593, 18.421333333333333 179.29785368299264, 18.416 178.86718701632597 C 18.410666666666668 178.4365203496593, 18.398666666666667 177.98385368299262, 18.38 177.50918701632597 C 18.374666666666666 177.3145203496593, 18.276 177.18785368299262, 18.084 177.12918701632597 L 18.084 176.24118701632597 C 18.513333333333335 176.281187016326, 18.846666666666668 176.4265203496593, 19.084 176.67718701632597 C 19.321333333333335 176.92785368299263, 19.445333333333334 177.27318701632598, 19.456 177.71318701632597 C 19.46666666666667 178.02785368299263, 19.474666666666668 178.33785368299263, 19.48 178.64318701632595 C 19.485333333333333 178.94852034965928, 19.488 179.24918701632595, 19.488 179.54518701632597 C 19.488 179.84118701632596, 19.485333333333333 180.13452034965928, 19.48 180.42518701632596 C 19.474666666666668 180.71585368299264, 19.46666666666667 181.00518701632598, 19.456 181.29318701632596 C 19.439999999999998 181.74385368299264, 19.311999999999998 182.0925203496593, 19.072 182.33918701632595 C 18.832 182.58585368299262, 18.502666666666666 182.72918701632597, 18.084 182.76918701632596 Z M 21.944 182.70518701632597 L 21.944 176.30518701632596 L 23.003999999999998 176.30518701632596 L 23.003999999999998 182.70518701632597 Z " stroke="none" fill-rule="nonzero" fill="#000000" fill-opacity="1" transform="matrix(1,0,0,1,5.05,13.314)" id="text30 l" />
  <path d="M 0 177.60501411578176 L 10 177.60501411578176 L 10 179.10501411578176 L 0 179.10501411578176 Z " stroke="none" fill-rule="evenodd" fill="#000000" fill-opacity="1" transform="matrix(1,0,0,1,5.05,13.314)" id="mark31 l" />
  <path d="M 0 171.45484121523754 L 10 171.45484121523754 L 10 172.95484121523754 L 0 172.95484121523754 Z " stroke="none" fill-rule="evenodd" fill="#000000" fill-opacity="1" transform="matrix(1,0,0,1,5.05,13.314)" id="mark32 l" />
  <path d="M 0 165.30466831469334 L 10 165.30466831469334 L 10 166.80466831469334 L 0 166.80466831469334 Z " stroke="none" fill-rule="evenodd" fill="#000000" fill-opacity="1" transform="matrix(1,0,0,1,5.05,13.314)" id="mark33 l" />
  <path d="M 0 159.15449541414915 L 10 159.15449541414915 L 10 160.65449541414915 L 0 160.65449541414915 Z " stroke="none" fill-rule="evenodd" fill="#000000" fill-opacity="1" transform="matrix(1,0,0,1,5.05,13.314)" id="mark34 l" />
  <path d="M 0 153.00432251360496 L 25 153.00432251360496 L 25 154.50432251360496 L 0 154.50432251360496 Z " stroke="none" fill-rule="evenodd" fill="#000000" fill-opacity="1" transform="matrix(1,0,0,1,5.05,13.314)" id="mark35 l" />
  <path d="M 12.232 150.50632251360497 C 12.229333333333333 150.40498918027163, 12.227333333333334 150.32098918027162, 12.226 150.25432251360496 C 12.224666666666668 150.1876558469383, 12.224666666666668 150.1196558469383, 12.226 150.05032251360495 C 12.227333333333334 149.98098918027162, 12.229333333333333 149.8916558469383, 12.232 149.78232251360498 L 13.312 149.78232251360498 L 13.312 150.64632251360496 C 13.312 150.8836558469383, 13.425333333333333 151.03432251360496, 13.652 151.09832251360496 L 13.652 151.99032251360498 C 13.164 151.95298918027163, 12.808666666666667 151.81832251360495, 12.586 151.58632251360496 C 12.363333333333333 151.35432251360496, 12.245333333333335 150.99432251360497, 12.232 150.50632251360497 Z M 12.3 146.45432251360498 L 12.3 145.52232251360496 L 15.544 145.52232251360496 L 15.544 146.45432251360498 Z M 14.152000000000001 151.10232251360497 C 14.376000000000001 151.04632251360496, 14.492 150.8956558469383, 14.5 150.65032251360498 C 14.505333333333333 150.44765584693832, 14.508666666666667 150.26498918027164, 14.51 150.10232251360497 C 14.511333333333333 149.9396558469383, 14.506666666666668 149.78232251360498, 14.496 149.63032251360497 C 14.488 149.47298918027164, 14.440000000000001 149.33965584693829, 14.352 149.23032251360496 C 14.264 149.12098918027164, 14.097333333333335 149.06898918027164, 13.852 149.07432251360495 L 13.104 149.08232251360496 L 13.076 148.19032251360497 L 14.036 146.80632251360498 L 15.224 146.80632251360498 L 14.256 148.15832251360496 L 14.288 148.15832251360496 C 14.719999999999999 148.15832251360496, 15.036666666666665 148.28098918027163, 15.238 148.52632251360498 C 15.439333333333334 148.7716558469383, 15.552 149.14898918027163, 15.576 149.65832251360496 C 15.581333333333333 149.73032251360496, 15.584666666666667 149.80232251360496, 15.586 149.87432251360497 C 15.587333333333333 149.94632251360497, 15.588000000000001 150.01698918027162, 15.588000000000001 150.08632251360496 C 15.588000000000001 150.1556558469383, 15.587333333333333 150.22498918027162, 15.586 150.29432251360498 C 15.584666666666667 150.3636558469383, 15.581333333333333 150.43432251360497, 15.576 150.50632251360497 C 15.557333333333334 151.00232251360498, 15.436666666666667 151.36698918027164, 15.214 151.60032251360497 C 14.991333333333333 151.83365584693829, 14.638666666666666 151.9636558469383, 14.156 151.99032251360498 Z M 16.18 150.50632251360497 C 16.174666666666667 150.33298918027165, 16.173333333333332 150.19365584693833, 16.176 150.08832251360496 C 16.178666666666665 149.98298918027166, 16.181333333333335 149.88098918027165, 16.183999999999997 149.78232251360498 L 17.264 149.78232251360498 C 17.256 149.8596558469383, 17.25 149.9556558469383, 17.246 150.07032251360496 C 17.241999999999997 150.18498918027163, 17.240666666666666 150.2956558469383, 17.241999999999997 150.40232251360496 C 17.243333333333332 150.5089891802716, 17.246666666666666 150.58898918027162, 17.252 150.64232251360497 C 17.262666666666668 150.76232251360497, 17.297333333333334 150.86032251360496, 17.355999999999998 150.93632251360498 C 17.414666666666665 151.01232251360494, 17.497333333333334 151.06632251360494, 17.604 151.09832251360496 L 17.604 151.99032251360498 C 17.110666666666663 151.95298918027163, 16.75333333333333 151.81832251360495, 16.532 151.58632251360496 C 16.310666666666666 151.35432251360496, 16.19333333333333 150.99432251360497, 16.18 150.50632251360497 Z M 16.279999999999998 149.17032251360496 L 16.279999999999998 145.52232251360496 L 17.348 145.52232251360496 L 17.348 149.17032251360496 Z M 17.852 148.74632251360498 L 17.852 147.99032251360498 C 17.929333333333332 147.950322513605, 18.014666666666667 147.91832251360498, 18.107999999999997 147.89432251360498 C 18.20133333333333 147.87032251360498, 18.301333333333332 147.85832251360497, 18.407999999999998 147.85832251360497 C 18.773333333333333 147.85832251360497, 19.047333333333334 147.9736558469383, 19.23 148.20432251360498 C 19.412666666666667 148.43498918027163, 19.514666666666663 148.74898918027162, 19.535999999999998 149.14632251360496 C 19.546666666666667 149.30632251360495, 19.55333333333333 149.46498918027163, 19.555999999999997 149.62232251360496 C 19.558666666666664 149.7796558469383, 19.557333333333332 149.93298918027165, 19.552 150.08232251360496 C 19.546666666666667 150.23165584693828, 19.538666666666668 150.3716558469383, 19.528 150.50232251360498 C 19.482666666666667 151.00098918027163, 19.353333333333335 151.36632251360498, 19.14 151.59832251360496 C 18.926666666666666 151.83032251360498, 18.581333333333333 151.96098918027164, 18.104 151.99032251360498 L 18.104 151.09832251360496 C 18.21333333333333 151.06898918027164, 18.296 151.01632251360496, 18.352 150.94032251360497 C 18.408 150.86432251360498, 18.44 150.76498918027164, 18.448 150.64232251360497 C 18.471999999999998 150.35165584693829, 18.485999999999997 150.09032251360497, 18.49 149.85832251360497 C 18.494 149.62632251360498, 18.485333333333333 149.40498918027163, 18.464 149.19432251360496 C 18.447999999999997 149.03965584693827, 18.396666666666665 148.92432251360495, 18.31 148.84832251360496 C 18.223333333333333 148.77232251360496, 18.090666666666664 148.73432251360498, 17.912 148.73432251360498 C 17.901333333333334 148.73432251360498, 17.890666666666668 148.7356558469383, 17.88 148.73832251360497 C 17.86933333333333 148.74098918027164, 17.86 148.7436558469383, 17.852 148.74632251360498 Z M 17.852 146.45432251360498 L 17.852 145.52232251360496 L 19.439999999999998 145.52232251360496 L 19.439999999999998 146.45432251360498 Z M 21.944 151.92232251360497 L 21.944 145.52232251360496 L 23.003999999999998 145.52232251360496 L 23.003999999999998 151.92232251360497 Z " stroke="none" fill-rule="nonzero" fill="#000000" fill-opacity="1" transform="matrix(1,0,0,1,5.05,13.314)" id="text35 l" />
  <path d="M 0 146.85414961306074 L 10 146.85414961306074 L 10 148.35414961306074 L 0 148.35414961306074 Z " stroke="none" fill-rule="evenodd" fill="#000000" fill-opacity="1" transform="matrix(1,0,0,1,5.05,13.314)" id="mark36 l" />
  <path d="M 0 140.70397671251655 L 10 140.70397671251655 L 10 142.20397671251655 L 0 142.20397671251655 Z " stroke="none" fill-rule="evenodd" fill="#000000" fill-opacity="1" transform="matrix(1,0,0,1,5.05,13.314)" id="mark37 l" />
  <path d="M 0 134.55380381197236 L 10 134.55380381197236 L 10 136.05380381197236 L 0 136.05380381197236 Z " stroke="none" fill-rule="evenodd" fill="#000000" fill-opacity="1" transform="matrix(1,0,0,1,5.05,13.314)" id="mark38 l" />
  <path d="M 0 128.40363091142817 L 10 128.40363091142817 L 10 129.90363091142817 L 0 129.90363091142817 Z " stroke="none" fill-rule="evenodd" fill="#000000" fill-opacity="1" transform="matrix(1,0,0,1,5.05,13.314)" id="mark39 l" />
  <path d="M 0 122.25345801088395 L 25 122.25345801088395 L 25 123.75345801088395 L 0 123.75345801088395 Z " stroke="none" fill-rule="evenodd" fill="#000000" fill-opacity="1" transform="matrix(1,0,0,1,5.05,13.314)" id="mark40 l" />
  <path d="M 11.739999999999998 119.51945801088395 L 11.739999999999998 118.64345801088395 L 12.455999999999998 116.76345801088395 L 13.495999999999999 116.76345801088395 L 12.771999999999998 118.59545801088395 L 13.171999999999997 118.59545801088395 L 13.171999999999997 119.51945801088395 Z M 13.675999999999998 121.20345801088395 L 13.675999999999998 114.80345801088394 L 14.683999999999997 114.80345801088394 L 14.683999999999997 121.20345801088395 Z M 15.187999999999999 119.51945801088395 L 15.187999999999999 118.59545801088395 L 15.655999999999999 118.59545801088395 L 15.655999999999999 119.51945801088395 Z M 16.195999999999998 119.79145801088394 C 16.188 119.36212467755061, 16.182666666666666 118.94545801088395, 16.18 118.54145801088394 C 16.177333333333333 118.13745801088393, 16.177999999999997 117.7421246775506, 16.182 117.35545801088395 C 16.186 116.9687913442173, 16.190666666666665 116.58745801088395, 16.195999999999998 116.21145801088394 C 16.20933333333333 115.77145801088395, 16.333999999999996 115.4261246775506, 16.569999999999997 115.17545801088394 C 16.805999999999997 114.92479134421728, 17.142666666666663 114.77945801088396, 17.58 114.73945801088395 L 17.58 115.62745801088396 C 17.382666666666665 115.68345801088395, 17.281333333333333 115.81279134421729, 17.275999999999996 116.01545801088395 C 17.262666666666664 116.38612467755061, 17.25333333333333 116.7341246775506, 17.247999999999998 117.05945801088394 C 17.242666666666665 117.38479134421726, 17.24 117.70145801088394, 17.24 118.00945801088395 C 17.24 118.31745801088395, 17.242666666666665 118.63212467755062, 17.247999999999998 118.95345801088395 C 17.25333333333333 119.27479134421728, 17.262666666666664 119.61812467755061, 17.275999999999996 119.98345801088395 C 17.281333333333333 120.19145801088395, 17.382666666666665 120.32345801088394, 17.58 120.37945801088395 L 17.58 121.26745801088394 C 17.142666666666663 121.22745801088395, 16.805999999999997 121.08145801088395, 16.569999999999997 120.82945801088395 C 16.333999999999996 120.57745801088396, 16.20933333333333 120.23145801088396, 16.195999999999998 119.79145801088394 Z M 18.084 121.26745801088394 L 18.084 120.37545801088395 C 18.268 120.32212467755062, 18.366666666666667 120.19812467755062, 18.38 120.00345801088395 C 18.398666666666664 119.53679134421728, 18.410666666666664 119.08812467755061, 18.415999999999997 118.65745801088394 C 18.42133333333333 118.22679134421728, 18.42133333333333 117.79612467755061, 18.415999999999997 117.36545801088396 C 18.410666666666664 116.93479134421727, 18.398666666666664 116.48212467755062, 18.38 116.00745801088395 C 18.374666666666666 115.81279134421729, 18.276 115.68612467755062, 18.084 115.62745801088396 L 18.084 114.73945801088395 C 18.513333333333332 114.77945801088396, 18.846666666666664 114.92479134421728, 19.083999999999996 115.17545801088394 C 19.32133333333333 115.4261246775506, 19.44533333333333 115.77145801088395, 19.456 116.21145801088394 C 19.466666666666665 116.52612467755061, 19.474666666666664 116.83612467755061, 19.479999999999997 117.14145801088395 C 19.48533333333333 117.44679134421729, 19.488 117.74745801088395, 19.488 118.04345801088395 C 19.488 118.33945801088396, 19.48533333333333 118.63279134421728, 19.479999999999997 118.92345801088395 C 19.474666666666664 119.21412467755061, 19.466666666666665 119.50345801088395, 19.456 119.79145801088394 C 19.439999999999998 120.2421246775506, 19.311999999999998 120.59079134421728, 19.072 120.83745801088395 C 18.831999999999997 121.08412467755062, 18.502666666666663 121.22745801088395, 18.084 121.26745801088394 Z M 21.944 121.20345801088395 L 21.944 114.80345801088394 L 23.003999999999998 114.80345801088394 L 23.003999999999998 121.20345801088395 Z " stroke="none" fill-rule="nonzero" fill="#000000" fill-opacity="1" transform="matrix(1,0,0,1,5.05,13.314)" id="text40 l" />
  <path d="M 0 116.10328511033975 L 10 116.10328511033975 L 10 117.60328511033975 L 0 117.60328511033975 Z " stroke="none" fill-rule="evenodd" fill="#000000" fill-opacity="1" transform="matrix(1,0,0,1,5.05,13.314)" id="mark41 l" />
  <path d="M 0 109.95311220979556 L 10 109.95311220979556 L 10 111.45311220979556 L 0 111.45311220979556 Z " stroke="none" fill-rule="evenodd" fill="#000000" fill-opacity="1" transform="matrix(1,0,0,1,5.05,13.314)" id="mark42 l" />
  <path d="M 0 103.80293930925137 L 10 103.80293930925137 L 10 105.30293930925137 L 0 105.30293930925137 Z " stroke="none" fill-rule="evenodd" fill="#000000" fill-opacity="1" transform="matrix(1,0,0,1,5.05,13.314)" id="mark43 l" />
  <path d="M 0 97.65276640870718 L 10 97.65276640870718 L 10 99.15276640870718 L 0 99.15276640870718 Z " stroke="none" fill-rule="evenodd" fill="#000000" fill-opacity="1" transform="matrix(1,0,0,1,5.05,13.314)" id="mark44 l" />
  <path d="M 0 91.50259350816299 L 25 91.50259350816299 L 25 93.00259350816299 L 0 93.00259350816299 Z " stroke="none" fill-rule="evenodd" fill="#000000" fill-opacity="1" transform="matrix(1,0,0,1,5.05,13.314)" id="mark45 l" />
  <path d="M 11.748 88.736593508163 L 11.748 87.86059350816299 L 12.463999999999999 85.980593508163 L 13.503999999999998 85.980593508163 L 12.78 87.81259350816299 L 13.18 87.81259350816299 L 13.18 88.736593508163 Z M 13.684 90.420593508163 L 13.684 84.02059350816299 L 14.691999999999998 84.02059350816299 L 14.691999999999998 90.420593508163 Z M 15.195999999999998 88.736593508163 L 15.195999999999998 87.81259350816299 L 15.663999999999998 87.81259350816299 L 15.663999999999998 88.736593508163 Z M 16.18 89.004593508163 C 16.174666666666667 88.83126017482965, 16.173333333333332 88.69192684149633, 16.176 88.58659350816299 C 16.178666666666665 88.48126017482966, 16.181333333333335 88.37926017482965, 16.183999999999997 88.280593508163 L 17.264 88.280593508163 C 17.256 88.35792684149632, 17.25 88.45392684149633, 17.246 88.56859350816299 C 17.241999999999997 88.68326017482966, 17.240666666666666 88.79392684149633, 17.241999999999997 88.900593508163 C 17.243333333333332 89.00726017482967, 17.246666666666666 89.08726017482965, 17.252 89.140593508163 C 17.262666666666668 89.260593508163, 17.297333333333334 89.358593508163, 17.355999999999998 89.43459350816299 C 17.414666666666665 89.510593508163, 17.497333333333334 89.564593508163, 17.604 89.596593508163 L 17.604 90.48859350816299 C 17.110666666666663 90.45126017482966, 16.75333333333333 90.316593508163, 16.532 90.084593508163 C 16.310666666666666 89.852593508163, 16.19333333333333 89.492593508163, 16.18 89.004593508163 Z M 16.279999999999998 87.668593508163 L 16.279999999999998 84.02059350816299 L 17.348 84.02059350816299 L 17.348 87.668593508163 Z M 17.852 87.24459350816299 L 17.852 86.48859350816299 C 17.929333333333332 86.44859350816299, 18.014666666666667 86.41659350816299, 18.107999999999997 86.39259350816299 C 18.20133333333333 86.368593508163, 18.301333333333332 86.356593508163, 18.407999999999998 86.356593508163 C 18.773333333333333 86.356593508163, 19.047333333333334 86.47192684149633, 19.23 86.70259350816299 C 19.412666666666667 86.93326017482966, 19.514666666666663 87.24726017482966, 19.535999999999998 87.644593508163 C 19.546666666666667 87.804593508163, 19.55333333333333 87.96326017482966, 19.555999999999997 88.120593508163 C 19.558666666666664 88.27792684149634, 19.557333333333332 88.43126017482967, 19.552 88.58059350816299 C 19.546666666666667 88.72992684149634, 19.538666666666668 88.86992684149632, 19.528 89.00059350816299 C 19.482666666666667 89.49926017482966, 19.353333333333335 89.864593508163, 19.14 90.096593508163 C 18.926666666666666 90.328593508163, 18.581333333333333 90.45926017482967, 18.104 90.48859350816299 L 18.104 89.596593508163 C 18.21333333333333 89.56726017482967, 18.296 89.51459350816299, 18.352 89.438593508163 C 18.408 89.362593508163, 18.44 89.26326017482967, 18.448 89.140593508163 C 18.471999999999998 88.84992684149634, 18.485999999999997 88.588593508163, 18.49 88.356593508163 C 18.494 88.12459350816299, 18.485333333333333 87.90326017482965, 18.464 87.692593508163 C 18.447999999999997 87.53792684149633, 18.396666666666665 87.422593508163, 18.31 87.346593508163 C 18.223333333333333 87.27059350816299, 18.090666666666664 87.23259350816299, 17.912 87.23259350816299 C 17.901333333333334 87.23259350816299, 17.890666666666668 87.23392684149633, 17.88 87.236593508163 C 17.86933333333333 87.23926017482965, 17.86 87.24192684149632, 17.852 87.24459350816299 Z M 17.852 84.95259350816299 L 17.852 84.02059350816299 L 19.439999999999998 84.02059350816299 L 19.439999999999998 84.95259350816299 Z M 21.944 90.420593508163 L 21.944 84.02059350816299 L 23.003999999999998 84.02059350816299 L 23.003999999999998 90.420593508163 Z " stroke="none" fill-rule="nonzero" fill="#000000" fill-opacity="1" transform="matrix(1,0,0,1,5.05,13.314)" id="text45 l" />
  <path d="M 0 85.3524206076188 L 10 85.3524206076188 L 10 86.8524206076188 L 0 86.8524206076188 Z " stroke="none" fill-rule="evenodd" fill="#000000" fill-opacity="1" transform="matrix(1,0,0,1,5.05,13.314)" id="mark46 l" />
  <path d="M 0 79.20224770707455 L 10 79.20224770707455 L 10 80.70224770707455 L 0 80.70224770707455 Z " stroke="none" fill-rule="evenodd" fill="#000000" fill-opacity="1" transform="matrix(1,0,0,1,5.05,13.314)" id="mark47 l" />
  <path d="M 0 73.05207480653036 L 10 73.05207480653036 L 10 74.55207480653036 L 0 74.55207480653036 Z " stroke="none" fill-rule="evenodd" fill="#000000" fill-opacity="1" transform="matrix(1,0,0,1,5.05,13.314)" id="mark48 l" />
  <path d="M 0 66.90190190598616 L 10 66.90190190598616 L 10 68.40190190598616 L 0 68.40190190598616 Z " stroke="none" fill-rule="evenodd" fill="#000000" fill-opacity="1" transform="matrix(1,0,0,1,5.05,13.314)" id="mark49 l" />
  <path d="M 0 60.75172900544197 L 25 60.75172900544197 L 25 62.25172900544197 L 0 62.25172900544197 Z " stroke="none" fill-rule="evenodd" fill="#000000" fill-opacity="1" transform="matrix(1,0,0,1,5.05,13.314)" id="mark50 l" />
  <path d="M 12.204 58.28572900544198 C 12.198666666666668 58.11239567210864, 12.197333333333333 57.97306233877531, 12.2 57.86772900544197 C 12.202666666666667 57.76239567210864, 12.205333333333336 57.66039567210865, 12.208 57.561729005441975 L 13.288 57.561729005441975 C 13.280000000000001 57.639062338775304, 13.274000000000001 57.73506233877531, 13.27 57.84972900544198 C 13.265999999999998 57.964395672108644, 13.264666666666667 58.07506233877531, 13.266 58.18172900544197 C 13.267333333333333 58.288395672108635, 13.270666666666667 58.36839567210864, 13.276 58.421729005441975 C 13.286666666666665 58.54172900544197, 13.321333333333332 58.63972900544198, 13.379999999999999 58.71572900544198 C 13.438666666666666 58.79172900544198, 13.521333333333335 58.845729005441974, 13.628 58.87772900544198 L 13.628 59.769729005441974 C 13.134666666666668 59.73239567210864, 12.777333333333335 59.59772900544198, 12.556 59.36572900544198 C 12.334666666666667 59.13372900544198, 12.217333333333332 58.77372900544198, 12.204 58.28572900544198 Z M 12.304 56.949729005441974 L 12.304 53.30172900544198 L 13.372 53.30172900544198 L 13.372 56.949729005441974 Z M 13.876 56.525729005441974 L 13.876 55.769729005441974 C 13.953333333333333 55.729729005441975, 14.038666666666668 55.69772900544197, 14.132 55.67372900544198 C 14.225333333333333 55.64972900544197, 14.325333333333333 55.63772900544197, 14.432 55.637729005441976 C 14.797333333333334 55.63772900544197, 15.071333333333332 55.75306233877531, 15.254 55.98372900544197 C 15.436666666666667 56.21439567210864, 15.538666666666668 56.528395672108644, 15.56 56.92572900544198 C 15.570666666666668 57.085729005441976, 15.577333333333334 57.24439567210864, 15.58 57.40172900544198 C 15.582666666666666 57.559062338775306, 15.581333333333333 57.71239567210864, 15.576 57.86172900544197 C 15.570666666666666 58.01106233877531, 15.562666666666665 58.15106233877531, 15.552 58.281729005441974 C 15.506666666666668 58.78039567210865, 15.377333333333333 59.14572900544198, 15.164 59.37772900544198 C 14.950666666666667 59.60972900544198, 14.605333333333332 59.74039567210865, 14.128 59.769729005441974 L 14.128 58.87772900544198 C 14.237333333333334 58.848395672108644, 14.32 58.79572900544198, 14.376 58.71972900544198 C 14.432 58.643729005441976, 14.464 58.54439567210864, 14.472 58.421729005441975 C 14.495999999999999 58.13106233877531, 14.509999999999998 57.869729005441975, 14.514 57.637729005441976 C 14.518 57.40572900544198, 14.509333333333334 57.18439567210864, 14.488 56.973729005441974 C 14.472000000000001 56.81906233877531, 14.420666666666666 56.70372900544198, 14.334 56.62772900544198 C 14.247333333333334 56.55172900544198, 14.114666666666666 56.513729005441974, 13.936 56.513729005441974 C 13.925333333333333 56.513729005441974, 13.914666666666665 56.51506233877531, 13.904 56.51772900544198 C 13.893333333333334 56.52039567210865, 13.884 56.523062338775304, 13.876 56.525729005441974 Z M 13.876 54.23372900544197 L 13.876 53.30172900544198 L 15.464 53.30172900544198 L 15.464 54.23372900544197 Z M 16.196 58.28972900544198 C 16.188000000000002 57.86039567210864, 16.182666666666666 57.44372900544198, 16.18 57.03972900544198 C 16.177333333333333 56.63572900544197, 16.177999999999997 56.24039567210865, 16.182 55.85372900544198 C 16.186 55.46706233877531, 16.190666666666665 55.085729005441976, 16.196 54.70972900544198 C 16.209333333333333 54.269729005441974, 16.334000000000003 53.924395672108645, 16.57 53.67372900544198 C 16.805999999999997 53.42306233877531, 17.142666666666663 53.277729005441984, 17.58 53.23772900544198 L 17.58 54.125729005441976 C 17.382666666666665 54.18172900544198, 17.281333333333333 54.31106233877531, 17.276 54.513729005441974 C 17.262666666666668 54.884395672108646, 17.253333333333334 55.23239567210865, 17.248 55.55772900544198 C 17.242666666666665 55.88306233877532, 17.24 56.19972900544198, 17.24 56.50772900544197 C 17.24 56.81572900544198, 17.242666666666665 57.13039567210865, 17.248 57.451729005441976 C 17.253333333333334 57.773062338775304, 17.262666666666668 58.11639567210864, 17.276 58.48172900544198 C 17.281333333333333 58.689729005441976, 17.382666666666665 58.82172900544197, 17.58 58.87772900544198 L 17.58 59.765729005441976 C 17.142666666666663 59.72572900544198, 16.805999999999997 59.579729005441976, 16.57 59.327729005441974 C 16.334000000000003 59.07572900544197, 16.209333333333333 58.72972900544197, 16.196 58.28972900544198 Z M 18.084 59.765729005441976 L 18.084 58.87372900544197 C 18.268 58.82039567210864, 18.366666666666667 58.696395672108636, 18.38 58.50172900544197 C 18.398666666666667 58.035062338775305, 18.410666666666668 57.58639567210864, 18.416 57.15572900544198 C 18.421333333333333 56.7250623387753, 18.421333333333333 56.294395672108635, 18.416 55.863729005441975 C 18.410666666666668 55.4330623387753, 18.398666666666667 54.98039567210864, 18.38 54.50572900544198 C 18.374666666666666 54.311062338775315, 18.276 54.18439567210865, 18.084 54.125729005441976 L 18.084 53.23772900544198 C 18.513333333333335 53.277729005441984, 18.846666666666668 53.42306233877531, 19.084 53.67372900544198 C 19.321333333333335 53.924395672108645, 19.445333333333334 54.269729005441974, 19.456 54.70972900544198 C 19.46666666666667 55.024395672108646, 19.474666666666668 55.33439567210864, 19.48 55.63972900544198 C 19.485333333333333 55.945062338775315, 19.488 56.24572900544198, 19.488 56.54172900544198 C 19.488 56.83772900544198, 19.485333333333333 57.13106233877531, 19.48 57.421729005441975 C 19.474666666666668 57.71239567210864, 19.46666666666667 58.00172900544197, 19.456 58.28972900544198 C 19.439999999999998 58.74039567210865, 19.311999999999998 59.08906233877531, 19.072 59.335729005441976 C 18.832 59.582395672108646, 18.502666666666666 59.72572900544198, 18.084 59.765729005441976 Z M 21.944 59.701729005441976 L 21.944 53.30172900544198 L 23.003999999999998 53.30172900544198 L 23.003999999999998 59.701729005441976 Z " stroke="none" fill-rule="nonzero" fill="#000000" fill-opacity="1" transform="matrix(1,0,0,1,5.05,13.314)" id="text50 l" />
  <path d="M 0 54.60155610489778 L 10 54.60155610489778 L 10 56.10155610489778 L 0 56.10155610489778 Z " stroke="none" fill-rule="evenodd" fill="#000000" fill-opacity="1" transform="matrix(1,0,0,1,5.05,13.314)" id="mark51 l" />
  <path d="M 0 48.45138320435359 L 10 48.45138320435359 L 10 49.95138320435359 L 0 49.95138320435359 Z " stroke="none" fill-rule="evenodd" fill="#000000" fill-opacity="1" transform="matrix(1,0,0,1,5.05,13.314)" id="mark52 l" />
  <path d="M 0 42.3012103038094 L 10 42.3012103038094 L 10 43.8012103038094 L 0 43.8012103038094 Z " stroke="none" fill-rule="evenodd" fill="#000000" fill-opacity="1" transform="matrix(1,0,0,1,5.05,13.314)" id="mark53 l" />
  <path d="M 0 36.15103740326521 L 10 36.15103740326521 L 10 37.65103740326521 L 0 37.65103740326521 Z " stroke="none" fill-rule="evenodd" fill="#000000" fill-opacity="1" transform="matrix(1,0,0,1,5.05,13.314)" id="mark54 l" />
  <path d="M 0 30.000864502720958 L 25 30.000864502720958 L 25 31.500864502720958 L 0 31.500864502720958 Z " stroke="none" fill-rule="evenodd" fill="#000000" fill-opacity="1" transform="matrix(1,0,0,1,5.05,13.314)" id="mark55 l" />
  <path d="M 12.212 27.502864502720957 C 12.206666666666667 27.329531169387625, 12.205333333333332 27.190197836054292, 12.207999999999998 27.084864502720958 C 12.210666666666667 26.979531169387624, 12.213333333333335 26.877531169387623, 12.216 26.778864502720957 L 13.296 26.778864502720957 C 13.288 26.85619783605429, 13.282 26.95219783605429, 13.277999999999999 27.066864502720957 C 13.273999999999997 27.181531169387625, 13.272666666666666 27.292197836054292, 13.274 27.398864502720958 C 13.275333333333332 27.505531169387623, 13.278666666666666 27.58553116938762, 13.283999999999999 27.638864502720956 C 13.294666666666664 27.758864502720954, 13.32933333333333 27.856864502720953, 13.387999999999998 27.932864502720957 C 13.446666666666665 28.008864502720954, 13.529333333333334 28.062864502720956, 13.636 28.094864502720956 L 13.636 28.98686450272096 C 13.142666666666667 28.949531169387626, 12.785333333333334 28.81486450272096, 12.563999999999998 28.58286450272096 C 12.342666666666666 28.35086450272096, 12.225333333333332 27.990864502720957, 12.212 27.502864502720957 Z M 12.312 26.16686450272096 L 12.312 22.51886450272096 L 13.379999999999999 22.51886450272096 L 13.379999999999999 26.16686450272096 Z M 13.883999999999999 25.742864502720955 L 13.883999999999999 24.98686450272096 C 13.961333333333332 24.946864502720956, 14.046666666666667 24.91486450272096, 14.139999999999999 24.89086450272096 C 14.233333333333333 24.866864502720958, 14.333333333333332 24.854864502720957, 14.44 24.854864502720957 C 14.805333333333333 24.854864502720957, 15.07933333333333 24.97019783605429, 15.261999999999999 25.200864502720957 C 15.444666666666667 25.431531169387625, 15.546666666666667 25.745531169387625, 15.568 26.142864502720958 C 15.578666666666667 26.302864502720958, 15.585333333333333 26.461531169387627, 15.588 26.618864502720957 C 15.590666666666666 26.776197836054294, 15.589333333333332 26.929531169387623, 15.584 27.078864502720958 C 15.578666666666665 27.228197836054292, 15.570666666666664 27.368197836054293, 15.559999999999999 27.498864502720956 C 15.514666666666667 27.99753116938762, 15.385333333333332 28.362864502720953, 15.171999999999999 28.594864502720956 C 14.958666666666666 28.82686450272096, 14.613333333333332 28.957531169387625, 14.136 28.98686450272096 L 14.136 28.094864502720956 C 14.245333333333333 28.065531169387626, 14.328 28.01286450272096, 14.383999999999999 27.936864502720958 C 14.44 27.860864502720958, 14.472 27.761531169387624, 14.479999999999999 27.638864502720956 C 14.503999999999998 27.34819783605429, 14.517999999999997 27.086864502720957, 14.521999999999998 26.854864502720957 C 14.526 26.622864502720958, 14.517333333333333 26.401531169387624, 14.495999999999999 26.190864502720956 C 14.48 26.036197836054292, 14.428666666666665 25.92086450272096, 14.341999999999999 25.84486450272096 C 14.255333333333333 25.76886450272096, 14.122666666666666 25.730864502720962, 13.943999999999999 25.73086450272096 C 13.933333333333332 25.730864502720962, 13.922666666666665 25.73219783605429, 13.911999999999999 25.734864502720956 C 13.901333333333334 25.737531169387623, 13.892 25.740197836054293, 13.883999999999999 25.742864502720955 Z M 13.883999999999999 23.450864502720957 L 13.883999999999999 22.51886450272096 L 15.472 22.51886450272096 L 15.472 23.450864502720957 Z M 16.18 27.502864502720957 C 16.174666666666667 27.329531169387625, 16.173333333333332 27.190197836054292, 16.176 27.084864502720958 C 16.178666666666665 26.979531169387624, 16.181333333333335 26.877531169387623, 16.183999999999997 26.778864502720957 L 17.264 26.778864502720957 C 17.256 26.85619783605429, 17.25 26.95219783605429, 17.246 27.066864502720957 C 17.241999999999997 27.181531169387625, 17.240666666666666 27.292197836054292, 17.241999999999997 27.398864502720958 C 17.243333333333332 27.505531169387623, 17.246666666666666 27.58553116938762, 17.252 27.638864502720956 C 17.262666666666668 27.758864502720954, 17.297333333333334 27.856864502720953, 17.355999999999998 27.932864502720957 C 17.414666666666665 28.008864502720954, 17.497333333333334 28.062864502720956, 17.604 28.094864502720956 L 17.604 28.98686450272096 C 17.110666666666663 28.949531169387626, 16.75333333333333 28.81486450272096, 16.532 28.58286450272096 C 16.310666666666666 28.35086450272096, 16.19333333333333 27.990864502720957, 16.18 27.502864502720957 Z M 16.279999999999998 26.16686450272096 L 16.279999999999998 22.51886450272096 L 17.348 22.51886450272096 L 17.348 26.16686450272096 Z M 17.852 25.742864502720955 L 17.852 24.98686450272096 C 17.929333333333332 24.946864502720956, 18.014666666666667 24.91486450272096, 18.107999999999997 24.89086450272096 C 18.20133333333333 24.866864502720958, 18.301333333333332 24.854864502720957, 18.407999999999998 24.854864502720957 C 18.773333333333333 24.854864502720957, 19.047333333333334 24.97019783605429, 19.23 25.200864502720957 C 19.412666666666667 25.431531169387625, 19.514666666666663 25.745531169387625, 19.535999999999998 26.142864502720958 C 19.546666666666667 26.302864502720958, 19.55333333333333 26.461531169387627, 19.555999999999997 26.618864502720957 C 19.558666666666664 26.776197836054294, 19.557333333333332 26.929531169387623, 19.552 27.078864502720958 C 19.546666666666667 27.228197836054292, 19.538666666666668 27.368197836054293, 19.528 27.498864502720956 C 19.482666666666667 27.99753116938762, 19.353333333333335 28.362864502720953, 19.14 28.594864502720956 C 18.926666666666666 28.82686450272096, 18.581333333333333 28.957531169387625, 18.104 28.98686450272096 L 18.104 28.094864502720956 C 18.21333333333333 28.065531169387626, 18.296 28.01286450272096, 18.352 27.936864502720958 C 18.408 27.860864502720958, 18.44 27.761531169387624, 18.448 27.638864502720956 C 18.471999999999998 27.34819783605429, 18.485999999999997 27.086864502720957, 18.49 26.854864502720957 C 18.494 26.622864502720958, 18.485333333333333 26.401531169387624, 18.464 26.190864502720956 C 18.447999999999997 26.036197836054292, 18.396666666666665 25.92086450272096, 18.31 25.84486450272096 C 18.223333333333333 25.76886450272096, 18.090666666666664 25.730864502720962, 17.912 25.73086450272096 C 17.901333333333334 25.730864502720962, 17.890666666666668 25.73219783605429, 17.88 25.734864502720956 C 17.86933333333333 25.737531169387623, 17.86 25.740197836054293, 17.852 25.742864502720955 Z M 17.852 23.450864502720957 L 17.852 22.51886450272096 L 19.439999999999998 22.51886450272096 L 19.439999999999998 23.450864502720957 Z M 21.944 28.918864502720957 L 21.944 22.51886450272096 L 23.003999999999998 22.51886450272096 L 23.003999999999998 28.918864502720957 Z " stroke="none" fill-rule="nonzero" fill="#000000" fill-opacity="1" transform="matrix(1,0,0,1,5.05,13.314)" id="text55 l" />
  <path d="M 0 23.850691602176767 L 10 23.850691602176767 L 10 25.350691602176767 L 0 25.350691602176767 Z " stroke="none" fill-rule="evenodd" fill="#000000" fill-opacity="1" transform="matrix(1,0,0,1,5.05,13.314)" id="mark56 l" />
  <path d="M 0 17.700518701632575 L 10 17.700518701632575 L 10 19.200518701632575 L 0 19.200518701632575 Z " stroke="none" fill-rule="evenodd" fill="#000000" fill-opacity="1" transform="matrix(1,0,0,1,5.05,13.314)" id="mark57 l" />
  <path d="M 0 11.550345801088383 L 10 11.550345801088383 L 10 13.050345801088383 L 0 13.050345801088383 Z " stroke="none" fill-rule="evenodd" fill="#000000" fill-opacity="1" transform="matrix(1,0,0,1,5.05,13.314)" id="mark58 l" />
  <path d="M 0 5.400172900544192 L 10 5.400172900544192 L 10 6.900172900544192 L 0 6.900172900544192 Z " stroke="none" fill-rule="evenodd" fill="#000000" fill-opacity="1" transform="matrix(1,0,0,1,5.05,13.314)" id="mark59 l" />
  <path d="M 0 -0.75 L 25 -0.75 L 25 0.75 L 0 0.75 Z " stroke="none" fill-rule="evenodd" fill="#000000" fill-opacity="1" transform="matrix(1,0,0,1,5.05,13.314)" id="mark60 l" />
  <path d="M 12.264 -3.2159999999999997 C 12.261333333333333 -3.4799999999999995, 12.258 -3.7573333333333334, 12.254 -4.048 C 12.25 -4.338666666666667, 12.248 -4.637333333333333, 12.248 -4.944 C 12.248 -5.250666666666667, 12.249333333333333 -5.558666666666666, 12.251999999999999 -5.867999999999999 C 12.254666666666665 -6.1773333333333325, 12.258666666666667 -6.485333333333333, 12.264 -6.792 C 12.271999999999998 -7.256, 12.397333333333332 -7.6080000000000005, 12.639999999999999 -7.848 C 12.882666666666665 -8.088000000000001, 13.215999999999998 -8.226666666666667, 13.639999999999999 -8.264 L 13.639999999999999 -7.372 C 13.543999999999997 -7.347999999999999, 13.470666666666665 -7.303999999999999, 13.419999999999998 -7.239999999999999 C 13.369333333333332 -7.176, 13.343999999999998 -7.090666666666667, 13.344 -6.984 C 13.335999999999999 -6.496, 13.330666666666666 -6.029333333333334, 13.328 -5.584 C 13.325333333333333 -5.1386666666666665, 13.323999999999998 -4.705333333333334, 13.323999999999998 -4.284 C 13.323999999999998 -3.8626666666666667, 13.328 -3.4480000000000004, 13.335999999999999 -3.04 C 13.335999999999999 -2.9306666666666668, 13.363333333333333 -2.841333333333333, 13.418 -2.772 C 13.472666666666665 -2.7026666666666666, 13.549333333333333 -2.653333333333333, 13.648 -2.6239999999999997 L 13.648 -1.7319999999999998 C 13.159999999999998 -1.7639999999999998, 12.809333333333331 -1.896, 12.595999999999998 -2.1279999999999997 C 12.382666666666665 -2.36, 12.271999999999998 -2.7226666666666666, 12.264 -3.2159999999999997 Z M 13.812 -4.896 L 13.812 -5.64 C 13.894666666666666 -5.688, 13.987333333333332 -5.725333333333333, 14.09 -5.752 C 14.192666666666668 -5.778666666666666, 14.301333333333332 -5.792, 14.415999999999999 -5.792 C 14.84 -5.792, 15.134 -5.692666666666666, 15.297999999999998 -5.494 C 15.462 -5.295333333333334, 15.547999999999998 -4.964, 15.556 -4.5 C 15.561333333333334 -4.316000000000001, 15.564666666666666 -4.160666666666667, 15.565999999999999 -4.034 C 15.567333333333332 -3.907333333333333, 15.567333333333332 -3.7826666666666666, 15.565999999999999 -3.6599999999999997 C 15.564666666666666 -3.5373333333333337, 15.559999999999999 -3.389333333333333, 15.552 -3.2159999999999997 C 15.527999999999999 -2.7253333333333334, 15.408 -2.3626666666666667, 15.192 -2.1279999999999997 C 14.975999999999999 -1.893333333333333, 14.628 -1.7613333333333332, 14.148 -1.7319999999999998 L 14.148 -2.6159999999999997 C 14.251999999999999 -2.6453333333333333, 14.331333333333333 -2.6933333333333334, 14.386 -2.76 C 14.440666666666665 -2.826666666666666, 14.469333333333333 -2.913333333333333, 14.472 -3.0199999999999996 C 14.477333333333332 -3.174666666666666, 14.481333333333332 -3.313333333333333, 14.483999999999998 -3.436 C 14.486666666666666 -3.558666666666667, 14.489333333333335 -3.676, 14.491999999999999 -3.788 C 14.494666666666667 -3.9, 14.495333333333333 -4.011333333333333, 14.494 -4.122 C 14.492666666666667 -4.232666666666667, 14.489333333333333 -4.349333333333333, 14.483999999999998 -4.4719999999999995 C 14.481333333333332 -4.621333333333333, 14.429333333333332 -4.732, 14.328 -4.804 C 14.226666666666665 -4.876, 14.094666666666665 -4.912, 13.931999999999999 -4.912 C 13.913333333333334 -4.912, 13.894 -4.911333333333333, 13.873999999999999 -4.91 C 13.854 -4.908666666666667, 13.833333333333332 -4.904, 13.812 -4.896 Z M 14.44 -6.216 C 14.448 -6.309333333333333, 14.452666666666666 -6.391333333333333, 14.453999999999999 -6.462 C 14.455333333333332 -6.532666666666667, 14.454666666666665 -6.6080000000000005, 14.451999999999998 -6.688 C 14.449333333333332 -6.768000000000001, 14.445333333333334 -6.866666666666667, 14.44 -6.984 C 14.434666666666665 -7.082666666666666, 14.407999999999998 -7.165999999999999, 14.36 -7.233999999999999 C 14.311999999999998 -7.302, 14.238666666666665 -7.347999999999999, 14.139999999999999 -7.372 L 14.139999999999999 -8.26 C 14.577333333333332 -8.219999999999999, 14.911333333333332 -8.075333333333333, 15.142 -7.826 C 15.372666666666667 -7.576666666666666, 15.495999999999999 -7.2493333333333325, 15.511999999999999 -6.843999999999999 C 15.514666666666667 -6.777333333333333, 15.516666666666666 -6.7139999999999995, 15.517999999999999 -6.654 C 15.519333333333332 -6.594, 15.519333333333332 -6.53, 15.517999999999999 -6.462 C 15.516666666666666 -6.393999999999999, 15.514666666666667 -6.311999999999999, 15.511999999999999 -6.216 Z M 16.196 -3.2119999999999997 C 16.188000000000002 -3.641333333333333, 16.182666666666666 -4.058, 16.18 -4.462 C 16.177333333333333 -4.866, 16.177999999999997 -5.261333333333333, 16.182 -5.648 C 16.186 -6.034666666666666, 16.190666666666665 -6.416, 16.196 -6.792 C 16.209333333333333 -7.231999999999999, 16.334000000000003 -7.577333333333334, 16.57 -7.828 C 16.805999999999997 -8.078666666666667, 17.142666666666663 -8.224, 17.58 -8.264 L 17.58 -7.3759999999999994 C 17.382666666666665 -7.32, 17.281333333333333 -7.190666666666667, 17.276 -6.9879999999999995 C 17.262666666666668 -6.617333333333333, 17.253333333333334 -6.269333333333333, 17.248 -5.944 C 17.242666666666665 -5.618666666666666, 17.24 -5.302, 17.24 -4.994 C 17.24 -4.686, 17.242666666666665 -4.371333333333333, 17.248 -4.05 C 17.253333333333334 -3.7286666666666664, 17.262666666666668 -3.3853333333333326, 17.276 -3.0199999999999996 C 17.281333333333333 -2.812, 17.382666666666665 -2.6799999999999997, 17.58 -2.6239999999999997 L 17.58 -1.7359999999999998 C 17.142666666666663 -1.7759999999999998, 16.805999999999997 -1.9219999999999997, 16.57 -2.174 C 16.334000000000003 -2.4259999999999997, 16.209333333333333 -2.772, 16.196 -3.2119999999999997 Z M 18.084 -1.7359999999999998 L 18.084 -2.6279999999999997 C 18.268 -2.681333333333333, 18.366666666666667 -2.8053333333333335, 18.38 -3 C 18.398666666666667 -3.4666666666666663, 18.410666666666668 -3.915333333333333, 18.416 -4.346 C 18.421333333333333 -4.776666666666666, 18.421333333333333 -5.207333333333333, 18.416 -5.638 C 18.410666666666668 -6.068666666666666, 18.398666666666667 -6.521333333333333, 18.38 -6.9959999999999996 C 18.374666666666666 -7.190666666666667, 18.276 -7.317333333333334, 18.084 -7.3759999999999994 L 18.084 -8.264 C 18.513333333333335 -8.224, 18.846666666666668 -8.078666666666667, 19.084 -7.828 C 19.321333333333335 -7.577333333333334, 19.445333333333334 -7.231999999999999, 19.456 -6.792 C 19.46666666666667 -6.477333333333332, 19.474666666666668 -6.167333333333333, 19.48 -5.861999999999999 C 19.485333333333333 -5.556666666666667, 19.488 -5.256, 19.488 -4.96 C 19.488 -4.664, 19.485333333333333 -4.370666666666667, 19.48 -4.08 C 19.474666666666668 -3.7893333333333334, 19.46666666666667 -3.5, 19.456 -3.2119999999999997 C 19.439999999999998 -2.761333333333333, 19.311999999999998 -2.4126666666666665, 19.072 -2.166 C 18.832 -1.9193333333333331, 18.502666666666666 -1.7759999999999998, 18.084 -1.7359999999999998 Z M 21.944 -1.7999999999999998 L 21.944 -8.2 L 23.003999999999998 -8.2 L 23.003999999999998 -1.7999999999999998 Z " stroke="none" fill-rule="nonzero" fill="#000000" fill-opacity="1" transform="matrix(1,0,0,1,5.05,13.314)" id="text60 l" />
  <path d="M -5 -13.264 L 30 -13.264 L 30 369.6282011321077 L -5 369.6282011321077 Z " stroke="#FF0000" stroke-opacity="1" stroke-width="0.1" stroke-linecap="butt" stroke-linejoin="miter" fill="none" transform="matrix(1,0,0,1,5.05,13.314)" />
</svg>