<?xml version="1.0" encoding="utf-8"?>
<svg xmlns="http://www.w3.org/2000/svg" xmlns:xlink="http://www.w3.org/1999/xlink" version="1.1" width="43mm" height="301.30737mm" viewBox="0 0 43 301.30737">
  <defs />
  <style>svg { background: #ffffff; }</style>
  <rect id="cutLine" fill="none" stroke="red" stroke-width="0.05" width="43" height="301.30737" />
  <g id="scale" transform="translate(5, 5)">
    <rect id="mark_1" fill="Black" x="0" y="286.95697" width="20" height="1.5" />
    <path fill="Black" d="M 0.484375 0.95703125 L 0.484375 6.4003906 L 1.5839844 6.4003906 L 1.5839844 0 L 0.7050781 0 L 0 0.5761719 L 0.033203125 0.95703125 L 0.484375 0.95703125 Z M 4.1933594 6.4003906 L 4.1933594 0 L 5.251953 0 L 5.251953 6.4003906 L 4.1933594 6.4003906 Z" transform="translate(27.748047, 284.90698)" />
    <rect id="mark_1.5" fill="Black" x="0" y="282.0448" width="10" height="1.5" />
    <rect id="mark_2" fill="Black" x="0" y="277.1326" width="20" height="1.5" />
    <path fill="Black" d="M 0.005859375 6.203125 Q 0.0078125 6.3203125, 0.01171875 6.46875 L 1.0917969 6.46875 L 1.0917969 5.1757812 Q 1.0917969 5.0214844, 1.1328125 4.841797 Q 1.1757812 4.6601562, 1.2734375 4.5 Q 1.3710938 4.3398438, 1.5429688 4.248047 L 2.1464844 3.9199219 Q 2.4707031 3.7402344, 2.7167969 3.5136719 Q 2.9628906 3.2851562, 3.1074219 2.9726562 Q 3.2519531 2.6601562, 3.2675781 2.2324219 Q 3.2714844 2.1445312, 3.2734375 2.0527344 Q 3.2753906 1.9609375, 3.2753906 1.8671875 Q 3.2753906 1.7734375, 3.2734375 1.6738281 Q 3.2714844 1.5722656, 3.2675781 1.4765625 Q 3.234375 0.7402344, 2.9160156 0.39453125 Q 2.5996094 0.048828125, 1.8671875 0 L 1.8671875 0.8886719 Q 2.0234375 0.93359375, 2.1054688 1.0351562 Q 2.1875 1.1367188, 2.1953125 1.2929688 Q 2.2070312 1.5136719, 2.2050781 1.7636719 Q 2.203125 2.0136719, 2.1875 2.2324219 Q 2.1757812 2.4199219, 2.0976562 2.6347656 Q 2.0195312 2.8496094, 1.7382812 3 L 1.2070312 3.2890625 Q 0.8183594 3.5, 0.5546875 3.7734375 Q 0.29101562 4.044922, 0.15234375 4.390625 Q 0.015625 4.736328, 0.00390625 5.1757812 Q 0 5.3691406, 0 5.5117188 L 0 5.765625 Q 0 5.876953, 0.001953125 5.9804688 Q 0.00390625 6.0839844, 0.005859375 6.203125 Z M 0.0078125 2.0839844 Q 0.01171875 2.2519531, 0.01953125 2.4296875 L 1.0839844 2.4296875 Q 1.0664062 2.1132812, 1.0683594 1.8457031 Q 1.0703125 1.5761719, 1.0800781 1.265625 Q 1.0839844 1.1289062, 1.1503906 1.0332031 Q 1.21875 0.9375, 1.3632812 0.8925781 L 1.3632812 0 Q 0.67578125 0.052734375, 0.35351562 0.3984375 Q 0.03125 0.7441406, 0.00390625 1.4765625 Q 0 1.6171875, 0.001953125 1.7675781 Q 0.00390625 1.9160156, 0.0078125 2.0839844 Z M 1.5957031 5.5371094 L 1.5957031 6.46875 L 3.1914062 6.46875 L 3.1914062 5.5371094 L 1.5957031 5.5371094 Z M 6.091797 6.46875 L 6.091797 0.068359375 L 7.1503906 0.068359375 L 7.1503906 6.46875 L 6.091797 6.46875 Z" transform="translate(25.84961, 275.0826)" />
    <rect id="mark_2.5" fill="Black" x="0" y="272.22043" width="10" height="1.5" />
    <rect id="mark_3" fill="Black" x="0" y="267.30823" width="20" height="1.5" />
    <path fill="Black" d="M 0.076171875 0 L 0.076171875 0.9316406 L 3.3203125 0.9316406 L 3.3203125 0 L 0.076171875 0 Z M 2.2753906 5.1289062 Q 2.2636719 5.4960938, 1.9277344 5.580078 L 1.9316406 6.46875 Q 2.65625 6.4277344, 2.9902344 6.078125 Q 3.3242188 5.7285156, 3.3515625 4.984375 Q 3.359375 4.876953, 3.3613281 4.7734375 Q 3.3632812 4.6679688, 3.3632812 4.564453 Q 3.3632812 4.4609375, 3.3613281 4.3535156 Q 3.359375 4.2441406, 3.3515625 4.1367188 Q 3.3144531 3.3730469, 3.0117188 3.0058594 Q 2.7109375 2.6367188, 2.0625 2.6367188 L 2.03125 2.6367188 L 3 1.2851562 L 1.8105469 1.2851562 L 0.8515625 2.6679688 L 0.87890625 3.5605469 L 1.6269531 3.5527344 Q 1.9960938 3.5449219, 2.1269531 3.7089844 Q 2.2597656 3.8730469, 2.2714844 4.107422 Q 2.2871094 4.3359375, 2.2851562 4.580078 Q 2.2832031 4.8242188, 2.2753906 5.1289062 Z M 0.001953125 4.732422 Q 0.00390625 4.8320312, 0.0078125 4.984375 Q 0.02734375 5.716797, 0.36132812 6.064453 Q 0.6953125 6.4121094, 1.4277344 6.46875 L 1.4277344 5.576172 Q 1.0878906 5.4804688, 1.0878906 5.125 L 1.0878906 4.2597656 L 0.0078125 4.2597656 Q 0.00390625 4.423828, 0.001953125 4.529297 Q 0 4.6328125, 0.001953125 4.732422 Z M 6.1679688 6.4003906 L 6.1679688 0 L 7.2265625 0 L 7.2265625 6.4003906 L 6.1679688 6.4003906 Z" transform="translate(25.773438, 265.25824)" />
    <rect id="mark_3.5" fill="Black" x="0" y="262.39603" width="10" height="1.5" />
    <rect id="mark_4" fill="Black" x="0" y="257.48386" width="20" height="1.5" />
    <path fill="Black" d="M 1.9355469 0 L 1.9355469 6.4003906 L 2.9433594 6.4003906 L 2.9433594 0 L 1.9355469 0 Z M 0 3.8398438 L 0 4.716797 L 1.4316406 4.716797 L 1.4316406 3.7929688 L 1.03125 3.7929688 L 1.7558594 1.9609375 L 0.7167969 1.9609375 L 0 3.8398438 Z M 3.4472656 3.7929688 L 3.4472656 4.716797 L 3.9160156 4.716797 L 3.9160156 3.7929688 L 3.4472656 3.7929688 Z M 6.220703 6.4003906 L 6.220703 0 L 7.279297 0 L 7.279297 6.4003906 L 6.220703 6.4003906 Z" transform="translate(25.720703, 255.43385)" />
    <rect id="mark_4.5" fill="Black" x="0" y="252.57167" width="10" height="1.5" />
    <rect id="mark_5" fill="Black" x="0" y="247.65948" width="20" height="1.5" />
    <path fill="Black" d="M 0.107421875 0 L 0.107421875 3.6484375 L 1.1757812 3.6484375 L 1.1757812 0 L 0.107421875 0 Z M 1.6796875 0 L 1.6796875 0.9316406 L 3.2675781 0.9316406 L 3.2675781 0 L 1.6796875 0 Z M 1.6796875 2.46875 L 1.6796875 3.2246094 Q 1.6914062 3.2207031, 1.7070312 3.2167969 Q 1.7246094 3.2128906, 1.7402344 3.2128906 Q 2.0078125 3.2128906, 2.1367188 3.3261719 Q 2.2675781 3.4394531, 2.2910156 3.671875 Q 2.3242188 3.9882812, 2.3183594 4.3359375 Q 2.3125 4.6835938, 2.2753906 5.1210938 Q 2.2636719 5.3046875, 2.1796875 5.419922 Q 2.0957031 5.533203, 1.9316406 5.576172 L 1.9316406 6.46875 Q 2.6484375 6.423828, 2.9667969 6.076172 Q 3.2871094 5.7285156, 3.3554688 4.9804688 Q 3.3710938 4.7851562, 3.3789062 4.560547 Q 3.3886719 4.3359375, 3.3828125 4.1015625 Q 3.3789062 3.8652344, 3.3632812 3.625 Q 3.3320312 3.0292969, 3.0566406 2.6835938 Q 2.7832031 2.3359375, 2.2363281 2.3359375 Q 2.0761719 2.3359375, 1.9355469 2.3730469 Q 1.7949219 2.4082031, 1.6796875 2.46875 Z M 0.00390625 4.5664062 Q 0 4.7246094, 0.0078125 4.984375 Q 0.02734375 5.716797, 0.359375 6.064453 Q 0.69140625 6.4121094, 1.4316406 6.46875 L 1.4316406 5.576172 Q 1.2714844 5.529297, 1.1835938 5.4160156 Q 1.0957031 5.3007812, 1.0800781 5.1210938 Q 1.0722656 5.0410156, 1.0703125 4.8808594 Q 1.0683594 4.720703, 1.0742188 4.548828 Q 1.0800781 4.376953, 1.0917969 4.2597656 L 0.01171875 4.2597656 Q 0.0078125 4.408203, 0.00390625 4.5664062 Z M 6.0683594 6.4003906 L 6.0683594 0 L 7.126953 0 L 7.126953 6.4003906 L 6.0683594 6.4003906 Z" transform="translate(25.873047, 245.60948)" />
    <rect id="mark_5.5" fill="Black" x="0" y="242.7473" width="10" height="1.5" />
    <rect id="mark_6" fill="Black" x="0" y="237.8351" width="20" height="1.5" />
    <path fill="Black" d="M 0.005859375 4.216797 Q 0.01171875 4.6523438, 0.015625 5.048828 Q 0.02734375 5.7890625, 0.34765625 6.1367188 Q 0.66796875 6.484375, 1.4003906 6.533203 L 1.4003906 5.640625 Q 1.2519531 5.5976562, 1.1699219 5.4941406 Q 1.0878906 5.388672, 1.0878906 5.2246094 Q 1.0761719 4.6132812, 1.0761719 3.9824219 Q 1.0761719 3.3496094, 1.0800781 2.6816406 Q 1.0839844 2.0136719, 1.0957031 1.28125 Q 1.0957031 1.1210938, 1.171875 1.0253906 Q 1.2480469 0.9296875, 1.3925781 0.8925781 L 1.3925781 0 Q 0.7558594 0.056640625, 0.390625 0.41796875 Q 0.02734375 0.77734375, 0.015625 1.4726562 Q 0.0078125 1.9335938, 0.00390625 2.3984375 Q 0 2.8613281, 0 3.3222656 Q 0 3.78125, 0.005859375 4.216797 Z M 2.2050781 1.8027344 Q 2.203125 1.9082031, 2.1914062 2.0488281 L 3.2636719 2.0488281 Q 3.2675781 1.9042969, 3.2695312 1.8027344 Q 3.2714844 1.7011719, 3.2695312 1.6113281 Q 3.2675781 1.5214844, 3.2636719 1.4199219 Q 3.2402344 0.8125, 2.8945312 0.43945312 Q 2.5488281 0.064453125, 1.8925781 0.00390625 L 1.8925781 0.8925781 Q 2.0410156 0.9296875, 2.1113281 1.03125 Q 2.1835938 1.1328125, 2.1914062 1.28125 Q 2.1992188 1.4570312, 2.203125 1.578125 Q 2.2089844 1.6972656, 2.2050781 1.8027344 Z M 1.5644531 2.625 L 1.5644531 3.3691406 Q 1.5957031 3.3574219, 1.625 3.3554688 Q 1.65625 3.3535156, 1.6835938 3.3535156 Q 1.9277344 3.3535156, 2.0800781 3.4609375 Q 2.2324219 3.5683594, 2.2363281 3.7929688 Q 2.2441406 3.9765625, 2.2460938 4.142578 Q 2.2480469 4.3085938, 2.2441406 4.4765625 Q 2.2402344 4.6445312, 2.2363281 4.830078 Q 2.2324219 5.013672, 2.2246094 5.2441406 Q 2.2207031 5.404297, 2.1386719 5.5058594 Q 2.0566406 5.6054688, 1.9003906 5.6484375 L 1.9003906 6.533203 Q 2.6191406 6.4882812, 2.9433594 6.1367188 Q 3.2675781 5.7851562, 3.3046875 5.048828 Q 3.3164062 4.7890625, 3.3183594 4.6054688 Q 3.3203125 4.419922, 3.3183594 4.2304688 Q 3.3164062 4.0410156, 3.3085938 3.765625 Q 3.296875 3.0683594, 3.0507812 2.7714844 Q 2.8046875 2.4726562, 2.1679688 2.4726562 Q 1.9960938 2.4726562, 1.8417969 2.5136719 Q 1.6875 2.5527344, 1.5644531 2.625 Z M 6.0566406 6.4648438 L 6.0566406 0.064453125 L 7.1152344 0.064453125 L 7.1152344 6.4648438 L 6.0566406 6.4648438 Z" transform="translate(25.884766, 235.7851)" />
    <rect id="mark_6.5" fill="Black" x="0" y="232.92291" width="10" height="1.5" />
    <rect id="mark_7" fill="Black" x="0" y="228.01073" width="20" height="1.5" />
    <path fill="Black" d="M 0 0 L 0 0.9316406 L 3.3613281 0.9316406 L 3.3613281 0 L 0 0 Z M 2.140625 1.3242188 L 0.453125 6.4003906 L 1.5683594 6.4003906 L 3.2285156 1.3242188 L 2.140625 1.3242188 Z M 6.2851562 6.4003906 L 6.2851562 0 L 7.34375 0 L 7.34375 6.4003906 L 6.2851562 6.4003906 Z" transform="translate(25.65625, 225.96072)" />
    <rect id="mark_7.5" fill="Black" x="0" y="223.09854" width="10" height="1.5" />
    <rect id="mark_8" fill="Black" x="0" y="218.18634" width="20" height="1.5" />
    <path fill="Black" d="M 0.001953125 4.8222656 Q 0.00390625 4.923828, 0.0078125 5.0527344 Q 0.03515625 5.765625, 0.3515625 6.125 Q 0.66796875 6.484375, 1.3964844 6.5371094 L 1.3964844 5.6445312 Q 1.2363281 5.5976562, 1.1621094 5.482422 Q 1.0878906 5.3652344, 1.0839844 5.189453 L 1.0839844 4.703125 Q 1.0839844 4.4609375, 1.0878906 4.2128906 Q 1.0878906 4.033203, 1.1621094 3.9179688 Q 1.2363281 3.8007812, 1.3964844 3.7519531 L 1.3964844 2.6757812 Q 1.2402344 2.6289062, 1.1640625 2.515625 Q 1.0878906 2.4003906, 1.0878906 2.2207031 Q 1.0839844 2.1054688, 1.0839844 1.9980469 L 1.0839844 1.5742188 Q 1.0839844 1.4648438, 1.0878906 1.3457031 Q 1.0878906 1.1640625, 1.1640625 1.0527344 Q 1.2402344 0.94140625, 1.3964844 0.8925781 L 1.3964844 0 Q 0.6875 0.052734375, 0.3828125 0.40429688 Q 0.080078125 0.7558594, 0.0390625 1.484375 Q 0.03515625 1.6132812, 0.0390625 1.7695312 Q 0.04296875 1.9238281, 0.056640625 2.0839844 Q 0.072265625 2.2441406, 0.091796875 2.3847656 Q 0.14453125 2.671875, 0.31445312 2.8613281 Q 0.484375 3.0488281, 0.71484375 3.1289062 L 0.71484375 3.2851562 Q 0.38671875 3.4199219, 0.22265625 3.6640625 Q 0.060546875 3.9082031, 0.01953125 4.328125 Q 0.0078125 4.4960938, 0.00390625 4.609375 Q 0 4.720703, 0.001953125 4.8222656 Z M 1.8964844 5.6445312 L 1.8964844 6.5371094 Q 2.6113281 6.4882812, 2.9277344 6.138672 Q 3.2441406 5.7890625, 3.2832031 5.0527344 Q 3.2910156 4.888672, 3.2910156 4.71875 Q 3.2910156 4.548828, 3.2675781 4.3164062 Q 3.2148438 3.9160156, 3.0429688 3.6738281 Q 2.8710938 3.4296875, 2.5722656 3.2929688 L 2.5722656 3.1289062 Q 2.8066406 3.0488281, 2.9765625 2.8613281 Q 3.1484375 2.671875, 3.1992188 2.3808594 Q 3.21875 2.2597656, 3.2324219 2.0996094 Q 3.2480469 1.9375, 3.2519531 1.7734375 Q 3.2558594 1.609375, 3.2480469 1.484375 Q 3.2109375 0.7480469, 2.8964844 0.40039062 Q 2.5839844 0.052734375, 1.8964844 0 L 1.8964844 0.8925781 Q 2.0546875 0.94140625, 2.1289062 1.0546875 Q 2.203125 1.1679688, 2.203125 1.3457031 Q 2.2070312 1.5566406, 2.2050781 1.7792969 Q 2.203125 2, 2.203125 2.2167969 Q 2.203125 2.5839844, 1.8964844 2.6757812 L 1.8964844 3.7519531 Q 2.1992188 3.8496094, 2.203125 4.2128906 Q 2.2070312 4.3808594, 2.2070312 4.5410156 L 2.2070312 4.861328 Q 2.2070312 5.0214844, 2.203125 5.1933594 Q 2.203125 5.3691406, 2.1289062 5.484375 Q 2.0546875 5.5976562, 1.8964844 5.6445312 Z M 6.076172 6.46875 L 6.076172 0.068359375 L 7.1347656 0.068359375 L 7.1347656 6.46875 L 6.076172 6.46875 Z" transform="translate(25.865234, 216.13634)" />
    <rect id="mark_8.5" fill="Black" x="0" y="213.27415" width="10" height="1.5" />
    <rect id="mark_9" fill="Black" x="0" y="208.36197" width="20" height="1.5" />
    <path fill="Black" d="M 0.001953125 2.2929688 Q 0.00390625 2.484375, 0.00390625 2.7167969 Q 0.00390625 3.1972656, 0.17773438 3.4980469 Q 0.35351562 3.796875, 0.63671875 3.9335938 Q 0.9199219 4.0683594, 1.2480469 4.0683594 Q 1.3925781 4.0683594, 1.5214844 4.0390625 Q 1.6523438 4.0097656, 1.7519531 3.9609375 L 1.7519531 3.1816406 Q 1.7363281 3.1855469, 1.7148438 3.1875 Q 1.6933594 3.1894531, 1.6679688 3.1894531 Q 1.4121094 3.1894531, 1.25 3.0820312 Q 1.0878906 2.9726562, 1.0800781 2.7617188 Q 1.0761719 2.65625, 1.078125 2.4375 Q 1.0800781 2.2167969, 1.0820312 1.96875 Q 1.0839844 1.7207031, 1.0859375 1.5292969 Q 1.0878906 1.3359375, 1.0878906 1.2890625 Q 1.0878906 0.96875, 1.4121094 0.8886719 L 1.4121094 0 Q 0.6972656 0.048828125, 0.36914062 0.39648438 Q 0.041015625 0.7441406, 0.0078125 1.4804688 Q 0.00390625 1.5527344, 0.001953125 1.671875 Q 0 1.7890625, 0 1.9453125 Q 0 2.1015625, 0.001953125 2.2929688 Z M 1.9121094 5.6484375 L 1.9121094 6.5371094 Q 2.6171875 6.4960938, 2.9511719 6.1484375 Q 3.2851562 5.8007812, 3.296875 5.0566406 Q 3.3085938 4.4492188, 3.3144531 3.9121094 Q 3.3203125 3.3730469, 3.3164062 2.7929688 Q 3.3125 2.2128906, 3.296875 1.4804688 Q 3.28125 0.7441406, 2.9628906 0.39257812 Q 2.6445312 0.041015625, 1.9121094 0 L 1.9121094 0.8886719 Q 2.0566406 0.93359375, 2.1386719 1.0292969 Q 2.2207031 1.125, 2.2207031 1.2734375 Q 2.2285156 1.9003906, 2.2324219 2.4042969 Q 2.2363281 2.9082031, 2.2382812 3.359375 Q 2.2402344 3.8085938, 2.2363281 4.2617188 Q 2.2324219 4.7128906, 2.2246094 5.236328 Q 2.2246094 5.4121094, 2.140625 5.515625 Q 2.0566406 5.6171875, 1.9121094 5.6484375 Z M 0.11328125 4.8828125 L 0.11328125 5.0566406 Q 0.11328125 5.7773438, 0.41992188 6.125 Q 0.7285156 6.4726562, 1.4121094 6.529297 L 1.4121094 5.6210938 Q 1.3007812 5.5683594, 1.2480469 5.4765625 Q 1.1972656 5.3847656, 1.1894531 5.2441406 Q 1.1796875 5.0371094, 1.1835938 4.859375 Q 1.1894531 4.6816406, 1.1933594 4.484375 L 0.12109375 4.484375 Q 0.1171875 4.576172, 0.115234375 4.6816406 Q 0.11328125 4.7851562, 0.11328125 4.8828125 Z M 6.1171875 6.4648438 L 6.1171875 0.064453125 L 7.1757812 0.064453125 L 7.1757812 6.4648438 L 6.1171875 6.4648438 Z" transform="translate(25.824219, 206.31197)" />
    <rect id="mark_9.5" fill="Black" x="0" y="203.44978" width="10" height="1.5" />
    <rect id="mark_10" fill="Black" x="0" y="198.53758" width="20" height="1.5" />
    <path fill="Black" d="M 0.484375 1.0214844 L 0.484375 6.4648438 L 1.5839844 6.4648438 L 1.5839844 0.064453125 L 0.7050781 0.064453125 L 0 0.640625 L 0.033203125 1.0214844 L 0.484375 1.0214844 Z M 2.140625 3.8027344 Q 2.1445312 4.408203, 2.15625 5.0527344 Q 2.1777344 5.7128906, 2.53125 6.091797 Q 2.8847656 6.46875, 3.5410156 6.529297 L 3.5410156 5.640625 Q 3.2441406 5.5566406, 3.2363281 5.2441406 Q 3.2167969 4.6972656, 3.2089844 4.2148438 Q 3.2011719 3.7324219, 3.2011719 3.2714844 Q 3.2011719 2.8085938, 3.2089844 2.3203125 Q 3.2167969 1.8320312, 3.2363281 1.2773438 Q 3.2441406 0.97265625, 3.5410156 0.8886719 L 3.5410156 0 Q 2.8847656 0.060546875, 2.53125 0.4375 Q 2.1777344 0.8125, 2.15625 1.4726562 Q 2.1484375 2.0371094, 2.1425781 2.6171875 Q 2.1367188 3.1972656, 2.140625 3.8027344 Z M 4.044922 5.6367188 L 4.044922 6.529297 Q 4.671875 6.46875, 5.03125 6.0996094 Q 5.392578 5.7285156, 5.4160156 5.0527344 Q 5.4335938 4.6210938, 5.4414062 4.185547 Q 5.4492188 3.7480469, 5.4492188 3.3046875 Q 5.4492188 2.8613281, 5.4414062 2.4042969 Q 5.4335938 1.9453125, 5.4160156 1.4726562 Q 5.4003906 0.8125, 5.044922 0.4375 Q 4.689453 0.060546875, 4.044922 0 L 4.044922 0.8886719 Q 4.3320312 0.9765625, 4.3398438 1.2695312 Q 4.3691406 1.9804688, 4.376953 2.6269531 Q 4.3847656 3.2734375, 4.376953 3.9199219 Q 4.3691406 4.564453, 4.3398438 5.265625 Q 4.3203125 5.5566406, 4.044922 5.6367188 Z M 8.193359 6.4648438 L 8.193359 0.064453125 L 9.251953 0.064453125 L 9.251953 6.4648438 L 8.193359 6.4648438 Z" transform="translate(23.748047, 196.48758)" />
    <rect id="mark_10.5" fill="Black" x="0" y="193.6254" width="10" height="1.5" />
    <rect id="mark_11" fill="Black" x="0" y="188.71321" width="20" height="1.5" />
    <path fill="Black" d="M 0.484375 0.95703125 L 0.484375 6.4003906 L 1.5839844 6.4003906 L 1.5839844 0 L 0.7050781 0 L 0 0.5761719 L 0.033203125 0.95703125 L 0.484375 0.95703125 Z M 2.484375 0.95703125 L 2.484375 6.4003906 L 3.5839844 6.4003906 L 3.5839844 0 L 2.7050781 0 L 2 0.5761719 L 2.0332031 0.95703125 L 2.484375 0.95703125 Z M 6.1933594 6.4003906 L 6.1933594 0 L 7.251953 0 L 7.251953 6.4003906 L 6.1933594 6.4003906 Z" transform="translate(25.748047, 186.66321)" />
    <rect id="mark_11.5" fill="Black" x="0" y="183.80103" width="10" height="1.5" />
    <rect id="mark_12" fill="Black" x="0" y="178.88882" width="20" height="1.5" />
    <path fill="Black" d="M 0.484375 1.0253906 L 0.484375 6.46875 L 1.5839844 6.46875 L 1.5839844 0.068359375 L 0.7050781 0.068359375 L 0 0.64453125 L 0.033203125 1.0253906 L 0.484375 1.0253906 Z M 2.1074219 6.203125 Q 2.109375 6.3203125, 2.1132812 6.46875 L 3.1933594 6.46875 L 3.1933594 5.1757812 Q 3.1933594 5.0214844, 3.234375 4.841797 Q 3.2773438 4.6601562, 3.375 4.5 Q 3.4726562 4.3398438, 3.6445312 4.248047 L 4.248047 3.9199219 Q 4.5722656 3.7402344, 4.8183594 3.5136719 Q 5.064453 3.2851562, 5.2089844 2.9726562 Q 5.3535156 2.6601562, 5.3691406 2.2324219 Q 5.373047 2.1445312, 5.375 2.0527344 Q 5.376953 1.9609375, 5.376953 1.8671875 Q 5.376953 1.7734375, 5.375 1.6738281 Q 5.373047 1.5722656, 5.3691406 1.4765625 Q 5.3359375 0.7402344, 5.017578 0.39453125 Q 4.701172 0.048828125, 3.96875 0 L 3.96875 0.8886719 Q 4.125 0.93359375, 4.2070312 1.0351562 Q 4.2890625 1.1367188, 4.296875 1.2929688 Q 4.3085938 1.5136719, 4.3066406 1.7636719 Q 4.3046875 2.0136719, 4.2890625 2.2324219 Q 4.2773438 2.4199219, 4.1992188 2.6347656 Q 4.1210938 2.8496094, 3.8398438 3 L 3.3085938 3.2890625 Q 2.9199219 3.5, 2.65625 3.7734375 Q 2.3925781 4.044922, 2.2539062 4.390625 Q 2.1171875 4.736328, 2.1054688 5.1757812 Q 2.1015625 5.3691406, 2.1015625 5.5117188 L 2.1015625 5.765625 Q 2.1015625 5.876953, 2.1035156 5.9804688 Q 2.1054688 6.0839844, 2.1074219 6.203125 Z M 2.109375 2.0839844 Q 2.1132812 2.2519531, 2.1210938 2.4296875 L 3.1855469 2.4296875 Q 3.1679688 2.1132812, 3.1699219 1.8457031 Q 3.171875 1.5761719, 3.1816406 1.265625 Q 3.1855469 1.1289062, 3.2519531 1.0332031 Q 3.3203125 0.9375, 3.4648438 0.8925781 L 3.4648438 0 Q 2.7773438 0.052734375, 2.4550781 0.3984375 Q 2.1328125 0.7441406, 2.1054688 1.4765625 Q 2.1015625 1.6171875, 2.1035156 1.7675781 Q 2.1054688 1.9160156, 2.109375 2.0839844 Z M 3.6972656 5.5371094 L 3.6972656 6.46875 L 5.2929688 6.46875 L 5.2929688 5.5371094 L 3.6972656 5.5371094 Z M 8.193359 6.46875 L 8.193359 0.068359375 L 9.251953 0.068359375 L 9.251953 6.46875 L 8.193359 6.46875 Z" transform="translate(23.748047, 176.83882)" />
    <rect id="mark_12.5" fill="Black" x="0" y="173.97664" width="10" height="1.5" />
    <rect id="mark_13" fill="Black" x="0" y="169.06445" width="20" height="1.5" />
    <path fill="Black" d="M 0.484375 0.95703125 L 0.484375 6.4003906 L 1.5839844 6.4003906 L 1.5839844 0 L 0.7050781 0 L 0 0.5761719 L 0.033203125 0.95703125 L 0.484375 0.95703125 Z M 2.1015625 0 L 2.1015625 0.9316406 L 5.345703 0.9316406 L 5.345703 0 L 2.1015625 0 Z M 4.3007812 5.1289062 Q 4.2890625 5.4960938, 3.953125 5.580078 L 3.9570312 6.46875 Q 4.6816406 6.4277344, 5.015625 6.078125 Q 5.3496094 5.7285156, 5.376953 4.984375 Q 5.3847656 4.876953, 5.3867188 4.7734375 Q 5.388672 4.6679688, 5.388672 4.564453 Q 5.388672 4.4609375, 5.3867188 4.3535156 Q 5.3847656 4.2441406, 5.376953 4.1367188 Q 5.3398438 3.3730469, 5.0371094 3.0058594 Q 4.736328 2.6367188, 4.0878906 2.6367188 L 4.0566406 2.6367188 L 5.0253906 1.2851562 L 3.8359375 1.2851562 L 2.8769531 2.6679688 L 2.9042969 3.5605469 L 3.6523438 3.5527344 Q 4.0214844 3.5449219, 4.1523438 3.7089844 Q 4.2851562 3.8730469, 4.296875 4.107422 Q 4.3125 4.3359375, 4.310547 4.580078 Q 4.3085938 4.8242188, 4.3007812 5.1289062 Z M 2.0273438 4.732422 Q 2.0292969 4.8320312, 2.0332031 4.984375 Q 2.0527344 5.716797, 2.3867188 6.064453 Q 2.7207031 6.4121094, 3.453125 6.46875 L 3.453125 5.576172 Q 3.1132812 5.4804688, 3.1132812 5.125 L 3.1132812 4.2597656 L 2.0332031 4.2597656 Q 2.0292969 4.423828, 2.0273438 4.529297 Q 2.0253906 4.6328125, 2.0273438 4.732422 Z M 8.193359 6.4003906 L 8.193359 0 L 9.251953 0 L 9.251953 6.4003906 L 8.193359 6.4003906 Z" transform="translate(23.748047, 167.01445)" />
    <rect id="mark_13.5" fill="Black" x="0" y="164.15227" width="10" height="1.5" />
    <rect id="mark_14" fill="Black" x="0" y="159.24007" width="20" height="1.5" />
    <path fill="Black" d="M 0.484375 0.95703125 L 0.484375 6.4003906 L 1.5839844 6.4003906 L 1.5839844 0 L 0.7050781 0 L 0 0.5761719 L 0.033203125 0.95703125 L 0.484375 0.95703125 Z M 3.9082031 0 L 3.9082031 6.4003906 L 4.9160156 6.4003906 L 4.9160156 0 L 3.9082031 0 Z M 1.9726562 3.8398438 L 1.9726562 4.716797 L 3.4042969 4.716797 L 3.4042969 3.7929688 L 3.0039062 3.7929688 L 3.7285156 1.9609375 L 2.6894531 1.9609375 L 1.9726562 3.8398438 Z M 5.419922 3.7929688 L 5.419922 4.716797 L 5.888672 4.716797 L 5.888672 3.7929688 L 5.419922 3.7929688 Z M 8.193359 6.4003906 L 8.193359 0 L 9.251953 0 L 9.251953 6.4003906 L 8.193359 6.4003906 Z" transform="translate(23.748047, 157.19006)" />
    <rect id="mark_14.5" fill="Black" x="0" y="154.32788" width="10" height="1.5" />
    <rect id="mark_15" fill="Black" x="0" y="149.4157" width="20" height="1.5" />
    <path fill="Black" d="M 0.484375 0.95703125 L 0.484375 6.4003906 L 1.5839844 6.4003906 L 1.5839844 0 L 0.7050781 0 L 0 0.5761719 L 0.033203125 0.95703125 L 0.484375 0.95703125 Z M 2.2324219 0 L 2.2324219 3.6484375 L 3.3007812 3.6484375 L 3.3007812 0 L 2.2324219 0 Z M 3.8046875 0 L 3.8046875 0.9316406 L 5.392578 0.9316406 L 5.392578 0 L 3.8046875 0 Z M 3.8046875 2.46875 L 3.8046875 3.2246094 Q 3.8164062 3.2207031, 3.8320312 3.2167969 Q 3.8496094 3.2128906, 3.8652344 3.2128906 Q 4.1328125 3.2128906, 4.2617188 3.3261719 Q 4.392578 3.4394531, 4.4160156 3.671875 Q 4.4492188 3.9882812, 4.4433594 4.3359375 Q 4.4375 4.6835938, 4.4003906 5.1210938 Q 4.388672 5.3046875, 4.3046875 5.419922 Q 4.220703 5.533203, 4.0566406 5.576172 L 4.0566406 6.46875 Q 4.7734375 6.423828, 5.091797 6.076172 Q 5.4121094 5.7285156, 5.4804688 4.9804688 Q 5.4960938 4.7851562, 5.5039062 4.560547 Q 5.513672 4.3359375, 5.5078125 4.1015625 Q 5.5039062 3.8652344, 5.4882812 3.625 Q 5.4570312 3.0292969, 5.1816406 2.6835938 Q 4.908203 2.3359375, 4.361328 2.3359375 Q 4.201172 2.3359375, 4.060547 2.3730469 Q 3.9199219 2.4082031, 3.8046875 2.46875 Z M 2.1289062 4.5664062 Q 2.125 4.7246094, 2.1328125 4.984375 Q 2.1523438 5.716797, 2.484375 6.064453 Q 2.8164062 6.4121094, 3.5566406 6.46875 L 3.5566406 5.576172 Q 3.3964844 5.529297, 3.3085938 5.4160156 Q 3.2207031 5.3007812, 3.2050781 5.1210938 Q 3.1972656 5.0410156, 3.1953125 4.8808594 Q 3.1933594 4.720703, 3.1992188 4.548828 Q 3.2050781 4.376953, 3.2167969 4.2597656 L 2.1367188 4.2597656 Q 2.1328125 4.408203, 2.1289062 4.5664062 Z M 8.193359 6.4003906 L 8.193359 0 L 9.251953 0 L 9.251953 6.4003906 L 8.193359 6.4003906 Z" transform="translate(23.748047, 147.36569)" />
    <rect id="mark_15.5" fill="Black" x="0" y="144.5035" width="10" height="1.5" />
    <rect id="mark_16" fill="Black" x="0" y="139.59131" width="20" height="1.5" />
    <path fill="Black" d="M 0.484375 1.0214844 L 0.484375 6.4648438 L 1.5839844 6.4648438 L 1.5839844 0.064453125 L 0.7050781 0.064453125 L 0 0.640625 L 0.033203125 1.0214844 L 0.484375 1.0214844 Z M 2.1425781 4.216797 Q 2.1484375 4.6523438, 2.1523438 5.048828 Q 2.1640625 5.7890625, 2.484375 6.1367188 Q 2.8046875 6.484375, 3.5371094 6.533203 L 3.5371094 5.640625 Q 3.3886719 5.5976562, 3.3066406 5.4941406 Q 3.2246094 5.388672, 3.2246094 5.2246094 Q 3.2128906 4.6132812, 3.2128906 3.9824219 Q 3.2128906 3.3496094, 3.2167969 2.6816406 Q 3.2207031 2.0136719, 3.2324219 1.28125 Q 3.2324219 1.1210938, 3.3085938 1.0253906 Q 3.3847656 0.9296875, 3.5292969 0.8925781 L 3.5292969 0 Q 2.8925781 0.056640625, 2.5273438 0.41796875 Q 2.1640625 0.77734375, 2.1523438 1.4726562 Q 2.1445312 1.9335938, 2.140625 2.3984375 Q 2.1367188 2.8613281, 2.1367188 3.3222656 Q 2.1367188 3.78125, 2.1425781 4.216797 Z M 4.341797 1.8027344 Q 4.3398438 1.9082031, 4.328125 2.0488281 L 5.4003906 2.0488281 Q 5.404297 1.9042969, 5.40625 1.8027344 Q 5.408203 1.7011719, 5.40625 1.6113281 Q 5.404297 1.5214844, 5.4003906 1.4199219 Q 5.376953 0.8125, 5.03125 0.43945312 Q 4.685547 0.064453125, 4.029297 0.00390625 L 4.029297 0.8925781 Q 4.1777344 0.9296875, 4.248047 1.03125 Q 4.3203125 1.1328125, 4.328125 1.28125 Q 4.3359375 1.4570312, 4.3398438 1.578125 Q 4.345703 1.6972656, 4.341797 1.8027344 Z M 3.7011719 2.625 L 3.7011719 3.3691406 Q 3.7324219 3.3574219, 3.7617188 3.3554688 Q 3.7929688 3.3535156, 3.8203125 3.3535156 Q 4.064453 3.3535156, 4.216797 3.4609375 Q 4.3691406 3.5683594, 4.373047 3.7929688 Q 4.3808594 3.9765625, 4.3828125 4.142578 Q 4.3847656 4.3085938, 4.3808594 4.4765625 Q 4.376953 4.6445312, 4.373047 4.830078 Q 4.3691406 5.013672, 4.361328 5.2441406 Q 4.357422 5.404297, 4.2753906 5.5058594 Q 4.1933594 5.6054688, 4.0371094 5.6484375 L 4.0371094 6.533203 Q 4.7558594 6.4882812, 5.080078 6.1367188 Q 5.404297 5.7851562, 5.4414062 5.048828 Q 5.453125 4.7890625, 5.455078 4.6054688 Q 5.4570312 4.419922, 5.455078 4.2304688 Q 5.453125 4.0410156, 5.4453125 3.765625 Q 5.4335938 3.0683594, 5.1875 2.7714844 Q 4.9414062 2.4726562, 4.3046875 2.4726562 Q 4.1328125 2.4726562, 3.9785156 2.5136719 Q 3.8242188 2.5527344, 3.7011719 2.625 Z M 8.193359 6.4648438 L 8.193359 0.064453125 L 9.251953 0.064453125 L 9.251953 6.4648438 L 8.193359 6.4648438 Z" transform="translate(23.748047, 137.5413)" />
    <rect id="mark_16.5" fill="Black" x="0" y="134.67912" width="10" height="1.5" />
    <rect id="mark_17" fill="Black" x="0" y="129.76692" width="20" height="1.5" />
    <path fill="Black" d="M 0.484375 0.95703125 L 0.484375 6.4003906 L 1.5839844 6.4003906 L 1.5839844 0 L 0.7050781 0 L 0 0.5761719 L 0.033203125 0.95703125 L 0.484375 0.95703125 Z M 1.9082031 0 L 1.9082031 0.9316406 L 5.2695312 0.9316406 L 5.2695312 0 L 1.9082031 0 Z M 4.048828 1.3242188 L 2.3613281 6.4003906 L 3.4765625 6.4003906 L 5.1367188 1.3242188 L 4.048828 1.3242188 Z M 8.193359 6.4003906 L 8.193359 0 L 9.251953 0 L 9.251953 6.4003906 L 8.193359 6.4003906 Z" transform="translate(23.748047, 127.71693)" />
    <rect id="mark_17.5" fill="Black" x="0" y="124.854744" width="10" height="1.5" />
    <rect id="mark_18" fill="Black" x="0" y="119.94255" width="20" height="1.5" />
    <path fill="Black" d="M 0.484375 1.0253906 L 0.484375 6.46875 L 1.5839844 6.46875 L 1.5839844 0.068359375 L 0.7050781 0.068359375 L 0 0.64453125 L 0.033203125 1.0253906 L 0.484375 1.0253906 Z M 2.1191406 4.8222656 Q 2.1210938 4.923828, 2.125 5.0527344 Q 2.1523438 5.765625, 2.46875 6.125 Q 2.7851562 6.484375, 3.5136719 6.5371094 L 3.5136719 5.6445312 Q 3.3535156 5.5976562, 3.2792969 5.482422 Q 3.2050781 5.3652344, 3.2011719 5.189453 L 3.2011719 4.703125 Q 3.2011719 4.4609375, 3.2050781 4.2128906 Q 3.2050781 4.033203, 3.2792969 3.9179688 Q 3.3535156 3.8007812, 3.5136719 3.7519531 L 3.5136719 2.6757812 Q 3.3574219 2.6289062, 3.28125 2.515625 Q 3.2050781 2.4003906, 3.2050781 2.2207031 Q 3.2011719 2.1054688, 3.2011719 1.9980469 L 3.2011719 1.5742188 Q 3.2011719 1.4648438, 3.2050781 1.3457031 Q 3.2050781 1.1640625, 3.28125 1.0527344 Q 3.3574219 0.94140625, 3.5136719 0.8925781 L 3.5136719 0 Q 2.8046875 0.052734375, 2.5 0.40429688 Q 2.1972656 0.7558594, 2.15625 1.484375 Q 2.1523438 1.6132812, 2.15625 1.7695312 Q 2.1601562 1.9238281, 2.1738281 2.0839844 Q 2.1894531 2.2441406, 2.2089844 2.3847656 Q 2.2617188 2.671875, 2.4316406 2.8613281 Q 2.6015625 3.0488281, 2.8320312 3.1289062 L 2.8320312 3.2851562 Q 2.5039062 3.4199219, 2.3398438 3.6640625 Q 2.1777344 3.9082031, 2.1367188 4.328125 Q 2.125 4.4960938, 2.1210938 4.609375 Q 2.1171875 4.720703, 2.1191406 4.8222656 Z M 4.013672 5.6445312 L 4.013672 6.5371094 Q 4.7285156 6.4882812, 5.044922 6.138672 Q 5.361328 5.7890625, 5.4003906 5.0527344 Q 5.408203 4.888672, 5.408203 4.71875 Q 5.408203 4.548828, 5.3847656 4.3164062 Q 5.3320312 3.9160156, 5.1601562 3.6738281 Q 4.9882812 3.4296875, 4.689453 3.2929688 L 4.689453 3.1289062 Q 4.923828 3.0488281, 5.09375 2.8613281 Q 5.265625 2.671875, 5.3164062 2.3808594 Q 5.3359375 2.2597656, 5.3496094 2.0996094 Q 5.3652344 1.9375, 5.3691406 1.7734375 Q 5.373047 1.609375, 5.3652344 1.484375 Q 5.328125 0.7480469, 5.013672 0.40039062 Q 4.701172 0.052734375, 4.013672 0 L 4.013672 0.8925781 Q 4.171875 0.94140625, 4.2460938 1.0546875 Q 4.3203125 1.1679688, 4.3203125 1.3457031 Q 4.3242188 1.5566406, 4.3222656 1.7792969 Q 4.3203125 2, 4.3203125 2.2167969 Q 4.3203125 2.5839844, 4.013672 2.6757812 L 4.013672 3.7519531 Q 4.3164062 3.8496094, 4.3203125 4.2128906 Q 4.3242188 4.3808594, 4.3242188 4.5410156 L 4.3242188 4.861328 Q 4.3242188 5.0214844, 4.3203125 5.1933594 Q 4.3203125 5.3691406, 4.2460938 5.484375 Q 4.171875 5.5976562, 4.013672 5.6445312 Z M 8.193359 6.46875 L 8.193359 0.068359375 L 9.251953 0.068359375 L 9.251953 6.46875 L 8.193359 6.46875 Z" transform="translate(23.748047, 117.89255)" />
    <rect id="mark_18.5" fill="Black" x="0" y="115.030365" width="10" height="1.5" />
    <rect id="mark_19" fill="Black" x="0" y="110.11817" width="20" height="1.5" />
    <path fill="Black" d="M 0.484375 1.0214844 L 0.484375 6.4648438 L 1.5839844 6.4648438 L 1.5839844 0.064453125 L 0.7050781 0.064453125 L 0 0.640625 L 0.033203125 1.0214844 L 0.484375 1.0214844 Z M 2.078125 2.2929688 Q 2.0800781 2.484375, 2.0800781 2.7167969 Q 2.0800781 3.1972656, 2.2539062 3.4980469 Q 2.4296875 3.796875, 2.7128906 3.9335938 Q 2.9960938 4.0683594, 3.3242188 4.0683594 Q 3.46875 4.0683594, 3.5976562 4.0390625 Q 3.7285156 4.0097656, 3.828125 3.9609375 L 3.828125 3.1816406 Q 3.8125 3.1855469, 3.7910156 3.1875 Q 3.7695312 3.1894531, 3.7441406 3.1894531 Q 3.4882812 3.1894531, 3.3261719 3.0820312 Q 3.1640625 2.9726562, 3.15625 2.7617188 Q 3.1523438 2.65625, 3.1542969 2.4375 Q 3.15625 2.2167969, 3.1582031 1.96875 Q 3.1601562 1.7207031, 3.1621094 1.5292969 Q 3.1640625 1.3359375, 3.1640625 1.2890625 Q 3.1640625 0.96875, 3.4882812 0.8886719 L 3.4882812 0 Q 2.7734375 0.048828125, 2.4453125 0.39648438 Q 2.1171875 0.7441406, 2.0839844 1.4804688 Q 2.0800781 1.5527344, 2.078125 1.671875 Q 2.0761719 1.7890625, 2.0761719 1.9453125 Q 2.0761719 2.1015625, 2.078125 2.2929688 Z M 3.9882812 5.6484375 L 3.9882812 6.5371094 Q 4.6933594 6.4960938, 5.0273438 6.1484375 Q 5.361328 5.8007812, 5.373047 5.0566406 Q 5.3847656 4.4492188, 5.390625 3.9121094 Q 5.3964844 3.3730469, 5.392578 2.7929688 Q 5.388672 2.2128906, 5.373047 1.4804688 Q 5.357422 0.7441406, 5.0390625 0.39257812 Q 4.720703 0.041015625, 3.9882812 0 L 3.9882812 0.8886719 Q 4.1328125 0.93359375, 4.2148438 1.0292969 Q 4.296875 1.125, 4.296875 1.2734375 Q 4.3046875 1.9003906, 4.3085938 2.4042969 Q 4.3125 2.9082031, 4.314453 3.359375 Q 4.3164062 3.8085938, 4.3125 4.2617188 Q 4.3085938 4.7128906, 4.3007812 5.236328 Q 4.3007812 5.4121094, 4.216797 5.515625 Q 4.1328125 5.6171875, 3.9882812 5.6484375 Z M 2.1894531 4.8828125 L 2.1894531 5.0566406 Q 2.1894531 5.7773438, 2.4960938 6.125 Q 2.8046875 6.4726562, 3.4882812 6.529297 L 3.4882812 5.6210938 Q 3.3769531 5.5683594, 3.3242188 5.4765625 Q 3.2734375 5.3847656, 3.265625 5.2441406 Q 3.2558594 5.0371094, 3.2597656 4.859375 Q 3.265625 4.6816406, 3.2695312 4.484375 L 2.1972656 4.484375 Q 2.1933594 4.576172, 2.1914062 4.6816406 Q 2.1894531 4.7851562, 2.1894531 4.8828125 Z M 8.193359 6.4648438 L 8.193359 0.064453125 L 9.251953 0.064453125 L 9.251953 6.4648438 L 8.193359 6.4648438 Z" transform="translate(23.748047, 108.06817)" />
    <rect id="mark_19.5" fill="Black" x="0" y="105.205986" width="10" height="1.5" />
    <rect id="mark_20" fill="Black" x="0" y="100.29379" width="20" height="1.5" />
    <path fill="Black" d="M 0.005859375 6.203125 Q 0.0078125 6.3203125, 0.01171875 6.46875 L 1.0917969 6.46875 L 1.0917969 5.1757812 Q 1.0917969 5.0214844, 1.1328125 4.841797 Q 1.1757812 4.6601562, 1.2734375 4.5 Q 1.3710938 4.3398438, 1.5429688 4.248047 L 2.1464844 3.9199219 Q 2.4707031 3.7402344, 2.7167969 3.5136719 Q 2.9628906 3.2851562, 3.1074219 2.9726562 Q 3.2519531 2.6601562, 3.2675781 2.2324219 Q 3.2714844 2.1445312, 3.2734375 2.0527344 Q 3.2753906 1.9609375, 3.2753906 1.8671875 Q 3.2753906 1.7734375, 3.2734375 1.6738281 Q 3.2714844 1.5722656, 3.2675781 1.4765625 Q 3.234375 0.7402344, 2.9160156 0.39453125 Q 2.5996094 0.048828125, 1.8671875 0 L 1.8671875 0.8886719 Q 2.0234375 0.93359375, 2.1054688 1.0351562 Q 2.1875 1.1367188, 2.1953125 1.2929688 Q 2.2070312 1.5136719, 2.2050781 1.7636719 Q 2.203125 2.0136719, 2.1875 2.2324219 Q 2.1757812 2.4199219, 2.0976562 2.6347656 Q 2.0195312 2.8496094, 1.7382812 3 L 1.2070312 3.2890625 Q 0.8183594 3.5, 0.5546875 3.7734375 Q 0.29101562 4.044922, 0.15234375 4.390625 Q 0.015625 4.736328, 0.00390625 5.1757812 Q 0 5.3691406, 0 5.5117188 L 0 5.765625 Q 0 5.876953, 0.001953125 5.9804688 Q 0.00390625 6.0839844, 0.005859375 6.203125 Z M 0.0078125 2.0839844 Q 0.01171875 2.2519531, 0.01953125 2.4296875 L 1.0839844 2.4296875 Q 1.0664062 2.1132812, 1.0683594 1.8457031 Q 1.0703125 1.5761719, 1.0800781 1.265625 Q 1.0839844 1.1289062, 1.1503906 1.0332031 Q 1.21875 0.9375, 1.3632812 0.8925781 L 1.3632812 0 Q 0.67578125 0.052734375, 0.35351562 0.3984375 Q 0.03125 0.7441406, 0.00390625 1.4765625 Q 0 1.6171875, 0.001953125 1.7675781 Q 0.00390625 1.9160156, 0.0078125 2.0839844 Z M 1.5957031 5.5371094 L 1.5957031 6.46875 L 3.1914062 6.46875 L 3.1914062 5.5371094 L 1.5957031 5.5371094 Z M 4.0390625 3.8066406 Q 4.0429688 4.4121094, 4.0546875 5.0566406 Q 4.076172 5.716797, 4.4296875 6.095703 Q 4.783203 6.4726562, 5.439453 6.533203 L 5.439453 5.6445312 Q 5.142578 5.560547, 5.1347656 5.248047 Q 5.1152344 4.701172, 5.107422 4.21875 Q 5.0996094 3.7363281, 5.0996094 3.2753906 Q 5.0996094 2.8125, 5.107422 2.3242188 Q 5.1152344 1.8359375, 5.1347656 1.28125 Q 5.142578 0.9765625, 5.439453 0.8925781 L 5.439453 0.00390625 Q 4.783203 0.064453125, 4.4296875 0.44140625 Q 4.076172 0.81640625, 4.0546875 1.4765625 Q 4.046875 2.0410156, 4.0410156 2.6210938 Q 4.0351562 3.2011719, 4.0390625 3.8066406 Z M 5.9433594 5.640625 L 5.9433594 6.533203 Q 6.5703125 6.4726562, 6.9296875 6.1035156 Q 7.2910156 5.732422, 7.314453 5.0566406 Q 7.3320312 4.625, 7.3398438 4.189453 Q 7.3476562 3.7519531, 7.3476562 3.3085938 Q 7.3476562 2.8652344, 7.3398438 2.4082031 Q 7.3320312 1.9492188, 7.314453 1.4765625 Q 7.298828 0.81640625, 6.9433594 0.44140625 Q 6.5878906 0.064453125, 5.9433594 0.00390625 L 5.9433594 0.8925781 Q 6.2304688 0.98046875, 6.2382812 1.2734375 Q 6.267578 1.984375, 6.2753906 2.6308594 Q 6.283203 3.2773438, 6.2753906 3.9238281 Q 6.267578 4.5683594, 6.2382812 5.2695312 Q 6.21875 5.560547, 5.9433594 5.640625 Z M 10.091797 6.46875 L 10.091797 0.068359375 L 11.150391 0.068359375 L 11.150391 6.46875 L 10.091797 6.46875 Z" transform="translate(21.84961, 98.24379)" />
    <rect id="mark_20.5" fill="Black" x="0" y="95.38161" width="10" height="1.5" />
    <rect id="mark_21" fill="Black" x="0" y="90.46941" width="20" height="1.5" />
    <path fill="Black" d="M 0.005859375 6.203125 Q 0.0078125 6.3203125, 0.01171875 6.46875 L 1.0917969 6.46875 L 1.0917969 5.1757812 Q 1.0917969 5.0214844, 1.1328125 4.841797 Q 1.1757812 4.6601562, 1.2734375 4.5 Q 1.3710938 4.3398438, 1.5429688 4.248047 L 2.1464844 3.9199219 Q 2.4707031 3.7402344, 2.7167969 3.5136719 Q 2.9628906 3.2851562, 3.1074219 2.9726562 Q 3.2519531 2.6601562, 3.2675781 2.2324219 Q 3.2714844 2.1445312, 3.2734375 2.0527344 Q 3.2753906 1.9609375, 3.2753906 1.8671875 Q 3.2753906 1.7734375, 3.2734375 1.6738281 Q 3.2714844 1.5722656, 3.2675781 1.4765625 Q 3.234375 0.7402344, 2.9160156 0.39453125 Q 2.5996094 0.048828125, 1.8671875 0 L 1.8671875 0.8886719 Q 2.0234375 0.93359375, 2.1054688 1.0351562 Q 2.1875 1.1367188, 2.1953125 1.2929688 Q 2.2070312 1.5136719, 2.2050781 1.7636719 Q 2.203125 2.0136719, 2.1875 2.2324219 Q 2.1757812 2.4199219, 2.0976562 2.6347656 Q 2.0195312 2.8496094, 1.7382812 3 L 1.2070312 3.2890625 Q 0.8183594 3.5, 0.5546875 3.7734375 Q 0.29101562 4.044922, 0.15234375 4.390625 Q 0.015625 4.736328, 0.00390625 5.1757812 Q 0 5.3691406, 0 5.5117188 L 0 5.765625 Q 0 5.876953, 0.001953125 5.9804688 Q 0.00390625 6.0839844, 0.005859375 6.203125 Z M 0.0078125 2.0839844 Q 0.01171875 2.2519531, 0.01953125 2.4296875 L 1.0839844 2.4296875 Q 1.0664062 2.1132812, 1.0683594 1.8457031 Q 1.0703125 1.5761719, 1.0800781 1.265625 Q 1.0839844 1.1289062, 1.1503906 1.0332031 Q 1.21875 0.9375, 1.3632812 0.8925781 L 1.3632812 0 Q 0.67578125 0.052734375, 0.35351562 0.3984375 Q 0.03125 0.7441406, 0.00390625 1.4765625 Q 0 1.6171875, 0.001953125 1.7675781 Q 0.00390625 1.9160156, 0.0078125 2.0839844 Z M 1.5957031 5.5371094 L 1.5957031 6.46875 L 3.1914062 6.46875 L 3.1914062 5.5371094 L 1.5957031 5.5371094 Z M 4.3828125 1.0253906 L 4.3828125 6.46875 L 5.482422 6.46875 L 5.482422 0.068359375 L 4.6035156 0.068359375 L 3.8984375 0.64453125 L 3.9316406 1.0253906 L 4.3828125 1.0253906 Z M 8.091797 6.46875 L 8.091797 0.068359375 L 9.150391 0.068359375 L 9.150391 6.46875 L 8.091797 6.46875 Z" transform="translate(23.84961, 88.41941)" />
    <rect id="mark_21.5" fill="Black" x="0" y="85.55723" width="10" height="1.5" />
    <rect id="mark_22" fill="Black" x="0" y="80.645035" width="20" height="1.5" />
    <path fill="Black" d="M 0.005859375 6.203125 Q 0.0078125 6.3203125, 0.01171875 6.46875 L 1.0917969 6.46875 L 1.0917969 5.1757812 Q 1.0917969 5.0214844, 1.1328125 4.841797 Q 1.1757812 4.6601562, 1.2734375 4.5 Q 1.3710938 4.3398438, 1.5429688 4.248047 L 2.1464844 3.9199219 Q 2.4707031 3.7402344, 2.7167969 3.5136719 Q 2.9628906 3.2851562, 3.1074219 2.9726562 Q 3.2519531 2.6601562, 3.2675781 2.2324219 Q 3.2714844 2.1445312, 3.2734375 2.0527344 Q 3.2753906 1.9609375, 3.2753906 1.8671875 Q 3.2753906 1.7734375, 3.2734375 1.6738281 Q 3.2714844 1.5722656, 3.2675781 1.4765625 Q 3.234375 0.7402344, 2.9160156 0.39453125 Q 2.5996094 0.048828125, 1.8671875 0 L 1.8671875 0.8886719 Q 2.0234375 0.93359375, 2.1054688 1.0351562 Q 2.1875 1.1367188, 2.1953125 1.2929688 Q 2.2070312 1.5136719, 2.2050781 1.7636719 Q 2.203125 2.0136719, 2.1875 2.2324219 Q 2.1757812 2.4199219, 2.0976562 2.6347656 Q 2.0195312 2.8496094, 1.7382812 3 L 1.2070312 3.2890625 Q 0.8183594 3.5, 0.5546875 3.7734375 Q 0.29101562 4.044922, 0.15234375 4.390625 Q 0.015625 4.736328, 0.00390625 5.1757812 Q 0 5.3691406, 0 5.5117188 L 0 5.765625 Q 0 5.876953, 0.001953125 5.9804688 Q 0.00390625 6.0839844, 0.005859375 6.203125 Z M 0.0078125 2.0839844 Q 0.01171875 2.2519531, 0.01953125 2.4296875 L 1.0839844 2.4296875 Q 1.0664062 2.1132812, 1.0683594 1.8457031 Q 1.0703125 1.5761719, 1.0800781 1.265625 Q 1.0839844 1.1289062, 1.1503906 1.0332031 Q 1.21875 0.9375, 1.3632812 0.8925781 L 1.3632812 0 Q 0.67578125 0.052734375, 0.35351562 0.3984375 Q 0.03125 0.7441406, 0.00390625 1.4765625 Q 0 1.6171875, 0.001953125 1.7675781 Q 0.00390625 1.9160156, 0.0078125 2.0839844 Z M 1.5957031 5.5371094 L 1.5957031 6.46875 L 3.1914062 6.46875 L 3.1914062 5.5371094 L 1.5957031 5.5371094 Z M 4.0058594 6.203125 Q 4.0078125 6.3203125, 4.0117188 6.46875 L 5.091797 6.46875 L 5.091797 5.1757812 Q 5.091797 5.0214844, 5.1328125 4.841797 Q 5.1757812 4.6601562, 5.2734375 4.5 Q 5.3710938 4.3398438, 5.5429688 4.248047 L 6.1464844 3.9199219 Q 6.470703 3.7402344, 6.716797 3.5136719 Q 6.9628906 3.2851562, 7.107422 2.9726562 Q 7.251953 2.6601562, 7.267578 2.2324219 Q 7.2714844 2.1445312, 7.2734375 2.0527344 Q 7.2753906 1.9609375, 7.2753906 1.8671875 Q 7.2753906 1.7734375, 7.2734375 1.6738281 Q 7.2714844 1.5722656, 7.267578 1.4765625 Q 7.234375 0.7402344, 6.9160156 0.39453125 Q 6.5996094 0.048828125, 5.8671875 0 L 5.8671875 0.8886719 Q 6.0234375 0.93359375, 6.1054688 1.0351562 Q 6.1875 1.1367188, 6.1953125 1.2929688 Q 6.2070312 1.5136719, 6.205078 1.7636719 Q 6.203125 2.0136719, 6.1875 2.2324219 Q 6.1757812 2.4199219, 6.0976562 2.6347656 Q 6.0195312 2.8496094, 5.7382812 3 L 5.2070312 3.2890625 Q 4.8183594 3.5, 4.5546875 3.7734375 Q 4.2910156 4.044922, 4.1523438 4.390625 Q 4.015625 4.736328, 4.0039062 5.1757812 Q 4 5.3691406, 4 5.5117188 L 4 5.765625 Q 4 5.876953, 4.001953 5.9804688 Q 4.0039062 6.0839844, 4.0058594 6.203125 Z M 4.0078125 2.0839844 Q 4.0117188 2.2519531, 4.0195312 2.4296875 L 5.0839844 2.4296875 Q 5.0664062 2.1132812, 5.0683594 1.8457031 Q 5.0703125 1.5761719, 5.080078 1.265625 Q 5.0839844 1.1289062, 5.1503906 1.0332031 Q 5.21875 0.9375, 5.3632812 0.8925781 L 5.3632812 0 Q 4.6757812 0.052734375, 4.3535156 0.3984375 Q 4.03125 0.7441406, 4.0039062 1.4765625 Q 4 1.6171875, 4.001953 1.7675781 Q 4.0039062 1.9160156, 4.0078125 2.0839844 Z M 5.595703 5.5371094 L 5.595703 6.46875 L 7.1914062 6.46875 L 7.1914062 5.5371094 L 5.595703 5.5371094 Z M 10.091797 6.46875 L 10.091797 0.068359375 L 11.150391 0.068359375 L 11.150391 6.46875 L 10.091797 6.46875 Z" transform="translate(21.84961, 78.59503)" />
    <rect id="mark_22.5" fill="Black" x="0" y="75.73285" width="10" height="1.5" />
    <rect id="mark_23" fill="Black" x="0" y="70.820656" width="20" height="1.5" />
    <path fill="Black" d="M 0.005859375 6.203125 Q 0.0078125 6.3203125, 0.01171875 6.46875 L 1.0917969 6.46875 L 1.0917969 5.1757812 Q 1.0917969 5.0214844, 1.1328125 4.841797 Q 1.1757812 4.6601562, 1.2734375 4.5 Q 1.3710938 4.3398438, 1.5429688 4.248047 L 2.1464844 3.9199219 Q 2.4707031 3.7402344, 2.7167969 3.5136719 Q 2.9628906 3.2851562, 3.1074219 2.9726562 Q 3.2519531 2.6601562, 3.2675781 2.2324219 Q 3.2714844 2.1445312, 3.2734375 2.0527344 Q 3.2753906 1.9609375, 3.2753906 1.8671875 Q 3.2753906 1.7734375, 3.2734375 1.6738281 Q 3.2714844 1.5722656, 3.2675781 1.4765625 Q 3.234375 0.7402344, 2.9160156 0.39453125 Q 2.5996094 0.048828125, 1.8671875 0 L 1.8671875 0.8886719 Q 2.0234375 0.93359375, 2.1054688 1.0351562 Q 2.1875 1.1367188, 2.1953125 1.2929688 Q 2.2070312 1.5136719, 2.2050781 1.7636719 Q 2.203125 2.0136719, 2.1875 2.2324219 Q 2.1757812 2.4199219, 2.0976562 2.6347656 Q 2.0195312 2.8496094, 1.7382812 3 L 1.2070312 3.2890625 Q 0.8183594 3.5, 0.5546875 3.7734375 Q 0.29101562 4.044922, 0.15234375 4.390625 Q 0.015625 4.736328, 0.00390625 5.1757812 Q 0 5.3691406, 0 5.5117188 L 0 5.765625 Q 0 5.876953, 0.001953125 5.9804688 Q 0.00390625 6.0839844, 0.005859375 6.203125 Z M 0.0078125 2.0839844 Q 0.01171875 2.2519531, 0.01953125 2.4296875 L 1.0839844 2.4296875 Q 1.0664062 2.1132812, 1.0683594 1.8457031 Q 1.0703125 1.5761719, 1.0800781 1.265625 Q 1.0839844 1.1289062, 1.1503906 1.0332031 Q 1.21875 0.9375, 1.3632812 0.8925781 L 1.3632812 0 Q 0.67578125 0.052734375, 0.35351562 0.3984375 Q 0.03125 0.7441406, 0.00390625 1.4765625 Q 0 1.6171875, 0.001953125 1.7675781 Q 0.00390625 1.9160156, 0.0078125 2.0839844 Z M 1.5957031 5.5371094 L 1.5957031 6.46875 L 3.1914062 6.46875 L 3.1914062 5.5371094 L 1.5957031 5.5371094 Z M 4 0.068359375 L 4 1 L 7.2441406 1 L 7.2441406 0.068359375 L 4 0.068359375 Z M 6.1992188 5.1972656 Q 6.1875 5.564453, 5.8515625 5.6484375 L 5.8554688 6.5371094 Q 6.580078 6.4960938, 6.9140625 6.1464844 Q 7.248047 5.796875, 7.2753906 5.0527344 Q 7.283203 4.9453125, 7.2851562 4.841797 Q 7.2871094 4.736328, 7.2871094 4.6328125 Q 7.2871094 4.529297, 7.2851562 4.421875 Q 7.283203 4.3125, 7.2753906 4.205078 Q 7.2382812 3.4414062, 6.935547 3.0742188 Q 6.6347656 2.7050781, 5.986328 2.7050781 L 5.955078 2.7050781 L 6.923828 1.3535156 L 5.734375 1.3535156 L 4.7753906 2.7363281 L 4.8027344 3.6289062 L 5.5507812 3.6210938 Q 5.919922 3.6132812, 6.0507812 3.7773438 Q 6.1835938 3.9414062, 6.1953125 4.1757812 Q 6.2109375 4.404297, 6.2089844 4.6484375 Q 6.2070312 4.892578, 6.1992188 5.1972656 Z M 3.9257812 4.8007812 Q 3.9277344 4.9003906, 3.9316406 5.0527344 Q 3.9511719 5.7851562, 4.2851562 6.1328125 Q 4.6191406 6.4804688, 5.3515625 6.5371094 L 5.3515625 5.6445312 Q 5.0117188 5.548828, 5.0117188 5.1933594 L 5.0117188 4.328125 L 3.9316406 4.328125 Q 3.9277344 4.4921875, 3.9257812 4.5976562 Q 3.9238281 4.701172, 3.9257812 4.8007812 Z M 10.091797 6.46875 L 10.091797 0.068359375 L 11.150391 0.068359375 L 11.150391 6.46875 L 10.091797 6.46875 Z" transform="translate(21.84961, 68.77065)" />
    <rect id="mark_23.5" fill="Black" x="0" y="65.90846" width="10" height="1.5" />
    <rect id="mark_24" fill="Black" x="0" y="60.996273" width="20" height="1.5" />
    <path fill="Black" d="M 0.005859375 6.203125 Q 0.0078125 6.3203125, 0.01171875 6.46875 L 1.0917969 6.46875 L 1.0917969 5.1757812 Q 1.0917969 5.0214844, 1.1328125 4.841797 Q 1.1757812 4.6601562, 1.2734375 4.5 Q 1.3710938 4.3398438, 1.5429688 4.248047 L 2.1464844 3.9199219 Q 2.4707031 3.7402344, 2.7167969 3.5136719 Q 2.9628906 3.2851562, 3.1074219 2.9726562 Q 3.2519531 2.6601562, 3.2675781 2.2324219 Q 3.2714844 2.1445312, 3.2734375 2.0527344 Q 3.2753906 1.9609375, 3.2753906 1.8671875 Q 3.2753906 1.7734375, 3.2734375 1.6738281 Q 3.2714844 1.5722656, 3.2675781 1.4765625 Q 3.234375 0.7402344, 2.9160156 0.39453125 Q 2.5996094 0.048828125, 1.8671875 0 L 1.8671875 0.8886719 Q 2.0234375 0.93359375, 2.1054688 1.0351562 Q 2.1875 1.1367188, 2.1953125 1.2929688 Q 2.2070312 1.5136719, 2.2050781 1.7636719 Q 2.203125 2.0136719, 2.1875 2.2324219 Q 2.1757812 2.4199219, 2.0976562 2.6347656 Q 2.0195312 2.8496094, 1.7382812 3 L 1.2070312 3.2890625 Q 0.8183594 3.5, 0.5546875 3.7734375 Q 0.29101562 4.044922, 0.15234375 4.390625 Q 0.015625 4.736328, 0.00390625 5.1757812 Q 0 5.3691406, 0 5.5117188 L 0 5.765625 Q 0 5.876953, 0.001953125 5.9804688 Q 0.00390625 6.0839844, 0.005859375 6.203125 Z M 0.0078125 2.0839844 Q 0.01171875 2.2519531, 0.01953125 2.4296875 L 1.0839844 2.4296875 Q 1.0664062 2.1132812, 1.0683594 1.8457031 Q 1.0703125 1.5761719, 1.0800781 1.265625 Q 1.0839844 1.1289062, 1.1503906 1.0332031 Q 1.21875 0.9375, 1.3632812 0.8925781 L 1.3632812 0 Q 0.67578125 0.052734375, 0.35351562 0.3984375 Q 0.03125 0.7441406, 0.00390625 1.4765625 Q 0 1.6171875, 0.001953125 1.7675781 Q 0.00390625 1.9160156, 0.0078125 2.0839844 Z M 1.5957031 5.5371094 L 1.5957031 6.46875 L 3.1914062 6.46875 L 3.1914062 5.5371094 L 1.5957031 5.5371094 Z M 5.8066406 0.068359375 L 5.8066406 6.46875 L 6.814453 6.46875 L 6.814453 0.068359375 L 5.8066406 0.068359375 Z M 3.8710938 3.9082031 L 3.8710938 4.7851562 L 5.3027344 4.7851562 L 5.3027344 3.8613281 L 4.9023438 3.8613281 L 5.626953 2.0292969 L 4.5878906 2.0292969 L 3.8710938 3.9082031 Z M 7.3183594 3.8613281 L 7.3183594 4.7851562 L 7.7871094 4.7851562 L 7.7871094 3.8613281 L 7.3183594 3.8613281 Z M 10.091797 6.46875 L 10.091797 0.068359375 L 11.150391 0.068359375 L 11.150391 6.46875 L 10.091797 6.46875 Z" transform="translate(21.84961, 58.946274)" />
    <rect id="mark_24.5" fill="Black" x="0" y="56.084084" width="10" height="1.5" />
    <rect id="mark_25" fill="Black" x="0" y="51.171894" width="20" height="1.5" />
    <path fill="Black" d="M 0.005859375 6.203125 Q 0.0078125 6.3203125, 0.01171875 6.46875 L 1.0917969 6.46875 L 1.0917969 5.1757812 Q 1.0917969 5.0214844, 1.1328125 4.841797 Q 1.1757812 4.6601562, 1.2734375 4.5 Q 1.3710938 4.3398438, 1.5429688 4.248047 L 2.1464844 3.9199219 Q 2.4707031 3.7402344, 2.7167969 3.5136719 Q 2.9628906 3.2851562, 3.1074219 2.9726562 Q 3.2519531 2.6601562, 3.2675781 2.2324219 Q 3.2714844 2.1445312, 3.2734375 2.0527344 Q 3.2753906 1.9609375, 3.2753906 1.8671875 Q 3.2753906 1.7734375, 3.2734375 1.6738281 Q 3.2714844 1.5722656, 3.2675781 1.4765625 Q 3.234375 0.7402344, 2.9160156 0.39453125 Q 2.5996094 0.048828125, 1.8671875 0 L 1.8671875 0.8886719 Q 2.0234375 0.93359375, 2.1054688 1.0351562 Q 2.1875 1.1367188, 2.1953125 1.2929688 Q 2.2070312 1.5136719, 2.2050781 1.7636719 Q 2.203125 2.0136719, 2.1875 2.2324219 Q 2.1757812 2.4199219, 2.0976562 2.6347656 Q 2.0195312 2.8496094, 1.7382812 3 L 1.2070312 3.2890625 Q 0.8183594 3.5, 0.5546875 3.7734375 Q 0.29101562 4.044922, 0.15234375 4.390625 Q 0.015625 4.736328, 0.00390625 5.1757812 Q 0 5.3691406, 0 5.5117188 L 0 5.765625 Q 0 5.876953, 0.001953125 5.9804688 Q 0.00390625 6.0839844, 0.005859375 6.203125 Z M 0.0078125 2.0839844 Q 0.01171875 2.2519531, 0.01953125 2.4296875 L 1.0839844 2.4296875 Q 1.0664062 2.1132812, 1.0683594 1.8457031 Q 1.0703125 1.5761719, 1.0800781 1.265625 Q 1.0839844 1.1289062, 1.1503906 1.0332031 Q 1.21875 0.9375, 1.3632812 0.8925781 L 1.3632812 0 Q 0.67578125 0.052734375, 0.35351562 0.3984375 Q 0.03125 0.7441406, 0.00390625 1.4765625 Q 0 1.6171875, 0.001953125 1.7675781 Q 0.00390625 1.9160156, 0.0078125 2.0839844 Z M 1.5957031 5.5371094 L 1.5957031 6.46875 L 3.1914062 6.46875 L 3.1914062 5.5371094 L 1.5957031 5.5371094 Z M 4.1308594 0.068359375 L 4.1308594 3.7167969 L 5.1992188 3.7167969 L 5.1992188 0.068359375 L 4.1308594 0.068359375 Z M 5.703125 0.068359375 L 5.703125 1 L 7.2910156 1 L 7.2910156 0.068359375 L 5.703125 0.068359375 Z M 5.703125 2.5371094 L 5.703125 3.2929688 Q 5.7148438 3.2890625, 5.7304688 3.2851562 Q 5.748047 3.28125, 5.763672 3.28125 Q 6.03125 3.28125, 6.1601562 3.3945312 Q 6.2910156 3.5078125, 6.314453 3.7402344 Q 6.3476562 4.0566406, 6.341797 4.404297 Q 6.3359375 4.751953, 6.298828 5.189453 Q 6.2871094 5.373047, 6.203125 5.4882812 Q 6.1191406 5.6015625, 5.955078 5.6445312 L 5.955078 6.5371094 Q 6.671875 6.4921875, 6.9902344 6.1445312 Q 7.310547 5.796875, 7.3789062 5.048828 Q 7.3945312 4.8535156, 7.4023438 4.6289062 Q 7.4121094 4.404297, 7.40625 4.169922 Q 7.4023438 3.9335938, 7.3867188 3.6933594 Q 7.3554688 3.0976562, 7.080078 2.7519531 Q 6.8066406 2.4042969, 6.2597656 2.4042969 Q 6.0996094 2.4042969, 5.9589844 2.4414062 Q 5.8183594 2.4765625, 5.703125 2.5371094 Z M 4.0273438 4.6347656 Q 4.0234375 4.7929688, 4.03125 5.0527344 Q 4.0507812 5.7851562, 4.3828125 6.1328125 Q 4.7148438 6.4804688, 5.455078 6.5371094 L 5.455078 5.6445312 Q 5.294922 5.5976562, 5.2070312 5.484375 Q 5.1191406 5.3691406, 5.1035156 5.189453 Q 5.095703 5.109375, 5.09375 4.9492188 Q 5.091797 4.7890625, 5.0976562 4.6171875 Q 5.1035156 4.4453125, 5.1152344 4.328125 L 4.0351562 4.328125 Q 4.03125 4.4765625, 4.0273438 4.6347656 Z M 10.091797 6.46875 L 10.091797 0.068359375 L 11.150391 0.068359375 L 11.150391 6.46875 L 10.091797 6.46875 Z" transform="translate(21.84961, 49.121895)" />
    <rect id="mark_25.5" fill="Black" x="0" y="46.259705" width="10" height="1.5" />
    <rect id="mark_26" fill="Black" x="0" y="41.347515" width="20" height="1.5" />
    <path fill="Black" d="M 0.005859375 6.203125 Q 0.0078125 6.3203125, 0.01171875 6.46875 L 1.0917969 6.46875 L 1.0917969 5.1757812 Q 1.0917969 5.0214844, 1.1328125 4.841797 Q 1.1757812 4.6601562, 1.2734375 4.5 Q 1.3710938 4.3398438, 1.5429688 4.248047 L 2.1464844 3.9199219 Q 2.4707031 3.7402344, 2.7167969 3.5136719 Q 2.9628906 3.2851562, 3.1074219 2.9726562 Q 3.2519531 2.6601562, 3.2675781 2.2324219 Q 3.2714844 2.1445312, 3.2734375 2.0527344 Q 3.2753906 1.9609375, 3.2753906 1.8671875 Q 3.2753906 1.7734375, 3.2734375 1.6738281 Q 3.2714844 1.5722656, 3.2675781 1.4765625 Q 3.234375 0.7402344, 2.9160156 0.39453125 Q 2.5996094 0.048828125, 1.8671875 0 L 1.8671875 0.8886719 Q 2.0234375 0.93359375, 2.1054688 1.0351562 Q 2.1875 1.1367188, 2.1953125 1.2929688 Q 2.2070312 1.5136719, 2.2050781 1.7636719 Q 2.203125 2.0136719, 2.1875 2.2324219 Q 2.1757812 2.4199219, 2.0976562 2.6347656 Q 2.0195312 2.8496094, 1.7382812 3 L 1.2070312 3.2890625 Q 0.8183594 3.5, 0.5546875 3.7734375 Q 0.29101562 4.044922, 0.15234375 4.390625 Q 0.015625 4.736328, 0.00390625 5.1757812 Q 0 5.3691406, 0 5.5117188 L 0 5.765625 Q 0 5.876953, 0.001953125 5.9804688 Q 0.00390625 6.0839844, 0.005859375 6.203125 Z M 0.0078125 2.0839844 Q 0.01171875 2.2519531, 0.01953125 2.4296875 L 1.0839844 2.4296875 Q 1.0664062 2.1132812, 1.0683594 1.8457031 Q 1.0703125 1.5761719, 1.0800781 1.265625 Q 1.0839844 1.1289062, 1.1503906 1.0332031 Q 1.21875 0.9375, 1.3632812 0.8925781 L 1.3632812 0 Q 0.67578125 0.052734375, 0.35351562 0.3984375 Q 0.03125 0.7441406, 0.00390625 1.4765625 Q 0 1.6171875, 0.001953125 1.7675781 Q 0.00390625 1.9160156, 0.0078125 2.0839844 Z M 1.5957031 5.5371094 L 1.5957031 6.46875 L 3.1914062 6.46875 L 3.1914062 5.5371094 L 1.5957031 5.5371094 Z M 4.0410156 4.220703 Q 4.046875 4.65625, 4.0507812 5.0527344 Q 4.0625 5.7929688, 4.3828125 6.140625 Q 4.703125 6.4882812, 5.435547 6.5371094 L 5.435547 5.6445312 Q 5.2871094 5.6015625, 5.205078 5.498047 Q 5.123047 5.392578, 5.123047 5.2285156 Q 5.111328 4.6171875, 5.111328 3.9863281 Q 5.111328 3.3535156, 5.1152344 2.6855469 Q 5.1191406 2.0175781, 5.1308594 1.2851562 Q 5.1308594 1.125, 5.2070312 1.0292969 Q 5.283203 0.93359375, 5.4277344 0.8964844 L 5.4277344 0.00390625 Q 4.7910156 0.060546875, 4.4257812 0.421875 Q 4.0625 0.78125, 4.0507812 1.4765625 Q 4.0429688 1.9375, 4.0390625 2.4023438 Q 4.0351562 2.8652344, 4.0351562 3.3261719 Q 4.0351562 3.7851562, 4.0410156 4.220703 Z M 6.2402344 1.8066406 Q 6.2382812 1.9121094, 6.2265625 2.0527344 L 7.298828 2.0527344 Q 7.3027344 1.9082031, 7.3046875 1.8066406 Q 7.3066406 1.7050781, 7.3046875 1.6152344 Q 7.3027344 1.5253906, 7.298828 1.4238281 Q 7.2753906 0.81640625, 6.9296875 0.44335938 Q 6.5839844 0.068359375, 5.9277344 0.0078125 L 5.9277344 0.8964844 Q 6.076172 0.93359375, 6.1464844 1.0351562 Q 6.21875 1.1367188, 6.2265625 1.2851562 Q 6.234375 1.4609375, 6.2382812 1.5820312 Q 6.2441406 1.7011719, 6.2402344 1.8066406 Z M 5.5996094 2.6289062 L 5.5996094 3.3730469 Q 5.6308594 3.3613281, 5.6601562 3.359375 Q 5.6914062 3.3574219, 5.71875 3.3574219 Q 5.9628906 3.3574219, 6.1152344 3.4648438 Q 6.267578 3.5722656, 6.2714844 3.796875 Q 6.279297 3.9804688, 6.28125 4.1464844 Q 6.283203 4.3125, 6.279297 4.4804688 Q 6.2753906 4.6484375, 6.2714844 4.8339844 Q 6.267578 5.017578, 6.2597656 5.248047 Q 6.2558594 5.408203, 6.173828 5.5097656 Q 6.091797 5.609375, 5.935547 5.6523438 L 5.935547 6.5371094 Q 6.654297 6.4921875, 6.9785156 6.140625 Q 7.3027344 5.7890625, 7.3398438 5.0527344 Q 7.3515625 4.7929688, 7.3535156 4.609375 Q 7.3554688 4.423828, 7.3535156 4.234375 Q 7.3515625 4.044922, 7.34375 3.7695312 Q 7.3320312 3.0722656, 7.0859375 2.7753906 Q 6.8398438 2.4765625, 6.203125 2.4765625 Q 6.03125 2.4765625, 5.876953 2.5175781 Q 5.7226562 2.5566406, 5.5996094 2.6289062 Z M 10.091797 6.46875 L 10.091797 0.068359375 L 11.150391 0.068359375 L 11.150391 6.46875 L 10.091797 6.46875 Z" transform="translate(21.84961, 39.297516)" />
    <rect id="mark_26.5" fill="Black" x="0" y="36.435326" width="10" height="1.5" />
    <rect id="mark_27" fill="Black" x="0" y="31.523136" width="20" height="1.5" />
    <path fill="Black" d="M 0.005859375 6.203125 Q 0.0078125 6.3203125, 0.01171875 6.46875 L 1.0917969 6.46875 L 1.0917969 5.1757812 Q 1.0917969 5.0214844, 1.1328125 4.841797 Q 1.1757812 4.6601562, 1.2734375 4.5 Q 1.3710938 4.3398438, 1.5429688 4.248047 L 2.1464844 3.9199219 Q 2.4707031 3.7402344, 2.7167969 3.5136719 Q 2.9628906 3.2851562, 3.1074219 2.9726562 Q 3.2519531 2.6601562, 3.2675781 2.2324219 Q 3.2714844 2.1445312, 3.2734375 2.0527344 Q 3.2753906 1.9609375, 3.2753906 1.8671875 Q 3.2753906 1.7734375, 3.2734375 1.6738281 Q 3.2714844 1.5722656, 3.2675781 1.4765625 Q 3.234375 0.7402344, 2.9160156 0.39453125 Q 2.5996094 0.048828125, 1.8671875 0 L 1.8671875 0.8886719 Q 2.0234375 0.93359375, 2.1054688 1.0351562 Q 2.1875 1.1367188, 2.1953125 1.2929688 Q 2.2070312 1.5136719, 2.2050781 1.7636719 Q 2.203125 2.0136719, 2.1875 2.2324219 Q 2.1757812 2.4199219, 2.0976562 2.6347656 Q 2.0195312 2.8496094, 1.7382812 3 L 1.2070312 3.2890625 Q 0.8183594 3.5, 0.5546875 3.7734375 Q 0.29101562 4.044922, 0.15234375 4.390625 Q 0.015625 4.736328, 0.00390625 5.1757812 Q 0 5.3691406, 0 5.5117188 L 0 5.765625 Q 0 5.876953, 0.001953125 5.9804688 Q 0.00390625 6.0839844, 0.005859375 6.203125 Z M 0.0078125 2.0839844 Q 0.01171875 2.2519531, 0.01953125 2.4296875 L 1.0839844 2.4296875 Q 1.0664062 2.1132812, 1.0683594 1.8457031 Q 1.0703125 1.5761719, 1.0800781 1.265625 Q 1.0839844 1.1289062, 1.1503906 1.0332031 Q 1.21875 0.9375, 1.3632812 0.8925781 L 1.3632812 0 Q 0.67578125 0.052734375, 0.35351562 0.3984375 Q 0.03125 0.7441406, 0.00390625 1.4765625 Q 0 1.6171875, 0.001953125 1.7675781 Q 0.00390625 1.9160156, 0.0078125 2.0839844 Z M 1.5957031 5.5371094 L 1.5957031 6.46875 L 3.1914062 6.46875 L 3.1914062 5.5371094 L 1.5957031 5.5371094 Z M 3.8066406 0.068359375 L 3.8066406 1 L 7.1679688 1 L 7.1679688 0.068359375 L 3.8066406 0.068359375 Z M 5.9472656 1.3925781 L 4.2597656 6.46875 L 5.375 6.46875 L 7.0351562 1.3925781 L 5.9472656 1.3925781 Z M 10.091797 6.46875 L 10.091797 0.068359375 L 11.150391 0.068359375 L 11.150391 6.46875 L 10.091797 6.46875 Z" transform="translate(21.84961, 29.473137)" />
    <rect id="mark_27.5" fill="Black" x="0" y="26.610947" width="10" height="1.5" />
    <rect id="mark_28" fill="Black" x="0" y="21.698757" width="20" height="1.5" />
    <path fill="Black" d="M 0.005859375 6.203125 Q 0.0078125 6.3203125, 0.01171875 6.46875 L 1.0917969 6.46875 L 1.0917969 5.1757812 Q 1.0917969 5.0214844, 1.1328125 4.841797 Q 1.1757812 4.6601562, 1.2734375 4.5 Q 1.3710938 4.3398438, 1.5429688 4.248047 L 2.1464844 3.9199219 Q 2.4707031 3.7402344, 2.7167969 3.5136719 Q 2.9628906 3.2851562, 3.1074219 2.9726562 Q 3.2519531 2.6601562, 3.2675781 2.2324219 Q 3.2714844 2.1445312, 3.2734375 2.0527344 Q 3.2753906 1.9609375, 3.2753906 1.8671875 Q 3.2753906 1.7734375, 3.2734375 1.6738281 Q 3.2714844 1.5722656, 3.2675781 1.4765625 Q 3.234375 0.7402344, 2.9160156 0.39453125 Q 2.5996094 0.048828125, 1.8671875 0 L 1.8671875 0.8886719 Q 2.0234375 0.93359375, 2.1054688 1.0351562 Q 2.1875 1.1367188, 2.1953125 1.2929688 Q 2.2070312 1.5136719, 2.2050781 1.7636719 Q 2.203125 2.0136719, 2.1875 2.2324219 Q 2.1757812 2.4199219, 2.0976562 2.6347656 Q 2.0195312 2.8496094, 1.7382812 3 L 1.2070312 3.2890625 Q 0.8183594 3.5, 0.5546875 3.7734375 Q 0.29101562 4.044922, 0.15234375 4.390625 Q 0.015625 4.736328, 0.00390625 5.1757812 Q 0 5.3691406, 0 5.5117188 L 0 5.765625 Q 0 5.876953, 0.001953125 5.9804688 Q 0.00390625 6.0839844, 0.005859375 6.203125 Z M 0.0078125 2.0839844 Q 0.01171875 2.2519531, 0.01953125 2.4296875 L 1.0839844 2.4296875 Q 1.0664062 2.1132812, 1.0683594 1.8457031 Q 1.0703125 1.5761719, 1.0800781 1.265625 Q 1.0839844 1.1289062, 1.1503906 1.0332031 Q 1.21875 0.9375, 1.3632812 0.8925781 L 1.3632812 0 Q 0.67578125 0.052734375, 0.35351562 0.3984375 Q 0.03125 0.7441406, 0.00390625 1.4765625 Q 0 1.6171875, 0.001953125 1.7675781 Q 0.00390625 1.9160156, 0.0078125 2.0839844 Z M 1.5957031 5.5371094 L 1.5957031 6.46875 L 3.1914062 6.46875 L 3.1914062 5.5371094 L 1.5957031 5.5371094 Z M 4.017578 4.8222656 Q 4.0195312 4.923828, 4.0234375 5.0527344 Q 4.0507812 5.765625, 4.3671875 6.125 Q 4.6835938 6.484375, 5.4121094 6.5371094 L 5.4121094 5.6445312 Q 5.251953 5.5976562, 5.1777344 5.482422 Q 5.1035156 5.3652344, 5.0996094 5.189453 L 5.0996094 4.703125 Q 5.0996094 4.4609375, 5.1035156 4.2128906 Q 5.1035156 4.033203, 5.1777344 3.9179688 Q 5.251953 3.8007812, 5.4121094 3.7519531 L 5.4121094 2.6757812 Q 5.2558594 2.6289062, 5.1796875 2.515625 Q 5.1035156 2.4003906, 5.1035156 2.2207031 Q 5.0996094 2.1054688, 5.0996094 1.9980469 L 5.0996094 1.5742188 Q 5.0996094 1.4648438, 5.1035156 1.3457031 Q 5.1035156 1.1640625, 5.1796875 1.0527344 Q 5.2558594 0.94140625, 5.4121094 0.8925781 L 5.4121094 0 Q 4.703125 0.052734375, 4.3984375 0.40429688 Q 4.095703 0.7558594, 4.0546875 1.484375 Q 4.0507812 1.6132812, 4.0546875 1.7695312 Q 4.0585938 1.9238281, 4.0722656 2.0839844 Q 4.0878906 2.2441406, 4.107422 2.3847656 Q 4.1601562 2.671875, 4.330078 2.8613281 Q 4.5 3.0488281, 4.7304688 3.1289062 L 4.7304688 3.2851562 Q 4.4023438 3.4199219, 4.2382812 3.6640625 Q 4.076172 3.9082031, 4.0351562 4.328125 Q 4.0234375 4.4960938, 4.0195312 4.609375 Q 4.015625 4.720703, 4.017578 4.8222656 Z M 5.9121094 5.6445312 L 5.9121094 6.5371094 Q 6.626953 6.4882812, 6.9433594 6.138672 Q 7.2597656 5.7890625, 7.298828 5.0527344 Q 7.3066406 4.888672, 7.3066406 4.71875 Q 7.3066406 4.548828, 7.283203 4.3164062 Q 7.2304688 3.9160156, 7.0585938 3.6738281 Q 6.8867188 3.4296875, 6.5878906 3.2929688 L 6.5878906 3.1289062 Q 6.8222656 3.0488281, 6.9921875 2.8613281 Q 7.1640625 2.671875, 7.2148438 2.3808594 Q 7.234375 2.2597656, 7.248047 2.0996094 Q 7.263672 1.9375, 7.267578 1.7734375 Q 7.2714844 1.609375, 7.263672 1.484375 Q 7.2265625 0.7480469, 6.9121094 0.40039062 Q 6.5996094 0.052734375, 5.9121094 0 L 5.9121094 0.8925781 Q 6.0703125 0.94140625, 6.1445312 1.0546875 Q 6.21875 1.1679688, 6.21875 1.3457031 Q 6.2226562 1.5566406, 6.220703 1.7792969 Q 6.21875 2, 6.21875 2.2167969 Q 6.21875 2.5839844, 5.9121094 2.6757812 L 5.9121094 3.7519531 Q 6.2148438 3.8496094, 6.21875 4.2128906 Q 6.2226562 4.3808594, 6.2226562 4.5410156 L 6.2226562 4.861328 Q 6.2226562 5.0214844, 6.21875 5.1933594 Q 6.21875 5.3691406, 6.1445312 5.484375 Q 6.0703125 5.5976562, 5.9121094 5.6445312 Z M 10.091797 6.46875 L 10.091797 0.068359375 L 11.150391 0.068359375 L 11.150391 6.46875 L 10.091797 6.46875 Z" transform="translate(21.84961, 19.648758)" />
    <rect id="mark_28.5" fill="Black" x="0" y="16.786568" width="10" height="1.5" />
    <rect id="mark_29" fill="Black" x="0" y="11.874379" width="20" height="1.5" />
    <path fill="Black" d="M 0.005859375 6.203125 Q 0.0078125 6.3203125, 0.01171875 6.46875 L 1.0917969 6.46875 L 1.0917969 5.1757812 Q 1.0917969 5.0214844, 1.1328125 4.841797 Q 1.1757812 4.6601562, 1.2734375 4.5 Q 1.3710938 4.3398438, 1.5429688 4.248047 L 2.1464844 3.9199219 Q 2.4707031 3.7402344, 2.7167969 3.5136719 Q 2.9628906 3.2851562, 3.1074219 2.9726562 Q 3.2519531 2.6601562, 3.2675781 2.2324219 Q 3.2714844 2.1445312, 3.2734375 2.0527344 Q 3.2753906 1.9609375, 3.2753906 1.8671875 Q 3.2753906 1.7734375, 3.2734375 1.6738281 Q 3.2714844 1.5722656, 3.2675781 1.4765625 Q 3.234375 0.7402344, 2.9160156 0.39453125 Q 2.5996094 0.048828125, 1.8671875 0 L 1.8671875 0.8886719 Q 2.0234375 0.93359375, 2.1054688 1.0351562 Q 2.1875 1.1367188, 2.1953125 1.2929688 Q 2.2070312 1.5136719, 2.2050781 1.7636719 Q 2.203125 2.0136719, 2.1875 2.2324219 Q 2.1757812 2.4199219, 2.0976562 2.6347656 Q 2.0195312 2.8496094, 1.7382812 3 L 1.2070312 3.2890625 Q 0.8183594 3.5, 0.5546875 3.7734375 Q 0.29101562 4.044922, 0.15234375 4.390625 Q 0.015625 4.736328, 0.00390625 5.1757812 Q 0 5.3691406, 0 5.5117188 L 0 5.765625 Q 0 5.876953, 0.001953125 5.9804688 Q 0.00390625 6.0839844, 0.005859375 6.203125 Z M 0.0078125 2.0839844 Q 0.01171875 2.2519531, 0.01953125 2.4296875 L 1.0839844 2.4296875 Q 1.0664062 2.1132812, 1.0683594 1.8457031 Q 1.0703125 1.5761719, 1.0800781 1.265625 Q 1.0839844 1.1289062, 1.1503906 1.0332031 Q 1.21875 0.9375, 1.3632812 0.8925781 L 1.3632812 0 Q 0.67578125 0.052734375, 0.35351562 0.3984375 Q 0.03125 0.7441406, 0.00390625 1.4765625 Q 0 1.6171875, 0.001953125 1.7675781 Q 0.00390625 1.9160156, 0.0078125 2.0839844 Z M 1.5957031 5.5371094 L 1.5957031 6.46875 L 3.1914062 6.46875 L 3.1914062 5.5371094 L 1.5957031 5.5371094 Z M 3.9765625 2.296875 Q 3.9785156 2.4882812, 3.9785156 2.7207031 Q 3.9785156 3.2011719, 4.1523438 3.5019531 Q 4.328125 3.8007812, 4.611328 3.9375 Q 4.8945312 4.0722656, 5.2226562 4.0722656 Q 5.3671875 4.0722656, 5.4960938 4.0429688 Q 5.626953 4.013672, 5.7265625 3.9648438 L 5.7265625 3.1855469 Q 5.7109375 3.1894531, 5.689453 3.1914062 Q 5.6679688 3.1933594, 5.642578 3.1933594 Q 5.3867188 3.1933594, 5.2246094 3.0859375 Q 5.0625 2.9765625, 5.0546875 2.765625 Q 5.0507812 2.6601562, 5.0527344 2.4414062 Q 5.0546875 2.2207031, 5.0566406 1.9726562 Q 5.0585938 1.7246094, 5.060547 1.5332031 Q 5.0625 1.3398438, 5.0625 1.2929688 Q 5.0625 0.97265625, 5.3867188 0.8925781 L 5.3867188 0.00390625 Q 4.671875 0.052734375, 4.34375 0.40039062 Q 4.015625 0.7480469, 3.9824219 1.484375 Q 3.9785156 1.5566406, 3.9765625 1.6757812 Q 3.9746094 1.7929688, 3.9746094 1.9492188 Q 3.9746094 2.1054688, 3.9765625 2.296875 Z M 5.8867188 5.6523438 L 5.8867188 6.5410156 Q 6.591797 6.5, 6.9257812 6.1523438 Q 7.2597656 5.8046875, 7.2714844 5.060547 Q 7.283203 4.453125, 7.2890625 3.9160156 Q 7.294922 3.3769531, 7.2910156 2.796875 Q 7.2871094 2.2167969, 7.2714844 1.484375 Q 7.2558594 0.7480469, 6.9375 0.39648438 Q 6.6191406 0.044921875, 5.8867188 0.00390625 L 5.8867188 0.8925781 Q 6.03125 0.9375, 6.1132812 1.0332031 Q 6.1953125 1.1289062, 6.1953125 1.2773438 Q 6.203125 1.9042969, 6.2070312 2.4082031 Q 6.2109375 2.9121094, 6.2128906 3.3632812 Q 6.2148438 3.8125, 6.2109375 4.265625 Q 6.2070312 4.716797, 6.1992188 5.2402344 Q 6.1992188 5.4160156, 6.1152344 5.5195312 Q 6.03125 5.6210938, 5.8867188 5.6523438 Z M 4.0878906 4.8867188 L 4.0878906 5.060547 Q 4.0878906 5.78125, 4.3945312 6.1289062 Q 4.703125 6.4765625, 5.3867188 6.533203 L 5.3867188 5.625 Q 5.2753906 5.5722656, 5.2226562 5.4804688 Q 5.171875 5.388672, 5.1640625 5.248047 Q 5.154297 5.0410156, 5.158203 4.8632812 Q 5.1640625 4.685547, 5.1679688 4.4882812 L 4.095703 4.4882812 Q 4.091797 4.580078, 4.0898438 4.685547 Q 4.0878906 4.7890625, 4.0878906 4.8867188 Z M 10.091797 6.46875 L 10.091797 0.068359375 L 11.150391 0.068359375 L 11.150391 6.46875 L 10.091797 6.46875 Z" transform="translate(21.84961, 9.824379)" />
    <rect id="mark_29.5" fill="Black" x="0" y="6.9621897" width="10" height="1.5" />
    <rect id="mark_30" fill="Black" x="0" y="2.0500002" width="20" height="1.5" />
    <path fill="Black" d="M 0.076171875 0.064453125 L 0.076171875 0.99609375 L 3.3203125 0.99609375 L 3.3203125 0.064453125 L 0.076171875 0.064453125 Z M 2.2753906 5.1933594 Q 2.2636719 5.560547, 1.9277344 5.6445312 L 1.9316406 6.533203 Q 2.65625 6.4921875, 2.9902344 6.142578 Q 3.3242188 5.7929688, 3.3515625 5.048828 Q 3.359375 4.9414062, 3.3613281 4.8378906 Q 3.3632812 4.732422, 3.3632812 4.6289062 Q 3.3632812 4.5253906, 3.3613281 4.4179688 Q 3.359375 4.3085938, 3.3515625 4.201172 Q 3.3144531 3.4375, 3.0117188 3.0703125 Q 2.7109375 2.7011719, 2.0625 2.7011719 L 2.03125 2.7011719 L 3 1.3496094 L 1.8105469 1.3496094 L 0.8515625 2.7324219 L 0.87890625 3.625 L 1.6269531 3.6171875 Q 1.9960938 3.609375, 2.1269531 3.7734375 Q 2.2597656 3.9375, 2.2714844 4.171875 Q 2.2871094 4.4003906, 2.2851562 4.6445312 Q 2.2832031 4.888672, 2.2753906 5.1933594 Z M 0.001953125 4.796875 Q 0.00390625 4.8964844, 0.0078125 5.048828 Q 0.02734375 5.78125, 0.36132812 6.1289062 Q 0.6953125 6.4765625, 1.4277344 6.533203 L 1.4277344 5.640625 Q 1.0878906 5.544922, 1.0878906 5.189453 L 1.0878906 4.3242188 L 0.0078125 4.3242188 Q 0.00390625 4.4882812, 0.001953125 4.59375 Q 0 4.6972656, 0.001953125 4.796875 Z M 4.1152344 3.8027344 Q 4.1191406 4.408203, 4.1308594 5.0527344 Q 4.1523438 5.7128906, 4.5058594 6.091797 Q 4.859375 6.46875, 5.515625 6.529297 L 5.515625 5.640625 Q 5.21875 5.5566406, 5.2109375 5.2441406 Q 5.1914062 4.6972656, 5.1835938 4.2148438 Q 5.1757812 3.7324219, 5.1757812 3.2714844 Q 5.1757812 2.8085938, 5.1835938 2.3203125 Q 5.1914062 1.8320312, 5.2109375 1.2773438 Q 5.21875 0.97265625, 5.515625 0.8886719 L 5.515625 0 Q 4.859375 0.060546875, 4.5058594 0.4375 Q 4.1523438 0.8125, 4.1308594 1.4726562 Q 4.123047 2.0371094, 4.1171875 2.6171875 Q 4.111328 3.1972656, 4.1152344 3.8027344 Z M 6.0195312 5.6367188 L 6.0195312 6.529297 Q 6.6464844 6.46875, 7.0058594 6.0996094 Q 7.3671875 5.7285156, 7.390625 5.0527344 Q 7.408203 4.6210938, 7.4160156 4.185547 Q 7.423828 3.7480469, 7.423828 3.3046875 Q 7.423828 2.8613281, 7.4160156 2.4042969 Q 7.408203 1.9453125, 7.390625 1.4726562 Q 7.375 0.8125, 7.0195312 0.4375 Q 6.6640625 0.060546875, 6.0195312 0 L 6.0195312 0.8886719 Q 6.3066406 0.9765625, 6.314453 1.2695312 Q 6.34375 1.9804688, 6.3515625 2.6269531 Q 6.359375 3.2734375, 6.3515625 3.9199219 Q 6.34375 4.564453, 6.314453 5.265625 Q 6.294922 5.5566406, 6.0195312 5.6367188 Z M 10.167969 6.4648438 L 10.167969 0.064453125 L 11.2265625 0.064453125 L 11.2265625 6.4648438 L 10.167969 6.4648438 Z" transform="translate(21.773438, 0)" />
  </g>
</svg>