<?xml version="1.0" encoding="UTF-8"?>
<svg xmlns:xlink="http://www.w3.org/1999/xlink" viewBox="0 0 35.1 363.60441992458266" version="1.1" style="font-synthesis: none;" width="35.1mm" height="363.6044199245827mm" xmlns="http://www.w3.org/2000/svg">
  <defs />
  <style>	</style>
  <path d="M 0 0 L 35.1 0 L 35.1 363.60441992458266 L 0 363.60441992458266 Z " stroke="none" fill-rule="nonzero" fill="#FFFFFF" fill-opacity="1" transform="matrix(1,0,0,1,0,0)" />
  <path d="M 0 342.75441992458275 L 10 342.75441992458275 L 10 344.25441992458275 L 0 344.25441992458275 Z " stroke="none" fill-rule="evenodd" fill="#000000" fill-opacity="1" transform="matrix(1,0,0,1,5.05,13.314)" id="mark1 l" />
  <path d="M 0 332.6513487503303 L 10 332.6513487503303 L 10 334.1513487503303 L 0 334.1513487503303 Z " stroke="none" fill-rule="evenodd" fill="#000000" fill-opacity="1" transform="matrix(1,0,0,1,5.05,13.314)" id="mark2 l" />
  <path d="M 0 322.54827757607785 L 10 322.54827757607785 L 10 324.04827757607785 L 0 324.04827757607785 Z " stroke="none" fill-rule="evenodd" fill="#000000" fill-opacity="1" transform="matrix(1,0,0,1,5.05,13.314)" id="mark3 l" />
  <path d="M 0 312.44520640182543 L 10 312.44520640182543 L 10 313.94520640182543 L 0 313.94520640182543 Z " stroke="none" fill-rule="evenodd" fill="#000000" fill-opacity="1" transform="matrix(1,0,0,1,5.05,13.314)" id="mark4 l" />
  <path d="M 0 302.342135227573 L 25 302.342135227573 L 25 303.842135227573 L 0 303.842135227573 Z " stroke="none" fill-rule="evenodd" fill="#000000" fill-opacity="1" transform="matrix(1,0,0,1,5.05,13.314)" id="mark5 l" />
  <path d="M 16.18 299.844135227573 C 16.174666666666667 299.6708018942397, 16.173333333333332 299.5314685609063, 16.176 299.426135227573 C 16.178666666666665 299.3208018942397, 16.181333333333335 299.2188018942397, 16.183999999999997 299.12013522757303 L 17.264 299.12013522757303 C 17.256 299.1974685609064, 17.25 299.2934685609064, 17.246 299.40813522757304 C 17.241999999999997 299.5228018942397, 17.240666666666666 299.63346856090635, 17.241999999999997 299.74013522757303 C 17.243333333333332 299.84680189423966, 17.246666666666666 299.9268018942397, 17.252 299.98013522757304 C 17.262666666666668 300.100135227573, 17.297333333333334 300.198135227573, 17.355999999999998 300.274135227573 C 17.414666666666665 300.350135227573, 17.497333333333334 300.404135227573, 17.604 300.436135227573 L 17.604 301.328135227573 C 17.110666666666663 301.2908018942397, 16.75333333333333 301.15613522757303, 16.532 300.924135227573 C 16.310666666666666 300.692135227573, 16.19333333333333 300.332135227573, 16.18 299.844135227573 Z M 16.279999999999998 298.508135227573 L 16.279999999999998 294.86013522757304 L 17.348 294.86013522757304 L 17.348 298.508135227573 Z M 17.852 298.08413522757303 L 17.852 297.328135227573 C 17.929333333333332 297.288135227573, 18.014666666666667 297.256135227573, 18.107999999999997 297.232135227573 C 18.20133333333333 297.208135227573, 18.301333333333332 297.196135227573, 18.407999999999998 297.196135227573 C 18.773333333333333 297.196135227573, 19.047333333333334 297.31146856090635, 19.23 297.542135227573 C 19.412666666666667 297.77280189423965, 19.514666666666663 298.08680189423967, 19.535999999999998 298.484135227573 C 19.546666666666667 298.64413522757303, 19.55333333333333 298.8028018942397, 19.555999999999997 298.960135227573 C 19.558666666666664 299.11746856090633, 19.557333333333332 299.2708018942397, 19.552 299.42013522757304 C 19.546666666666667 299.5694685609064, 19.538666666666668 299.7094685609064, 19.528 299.840135227573 C 19.482666666666667 300.3388018942397, 19.353333333333335 300.70413522757303, 19.14 300.936135227573 C 18.926666666666666 301.168135227573, 18.581333333333333 301.29880189423966, 18.104 301.328135227573 L 18.104 300.436135227573 C 18.21333333333333 300.40680189423966, 18.296 300.354135227573, 18.352 300.278135227573 C 18.408 300.20213522757297, 18.44 300.1028018942397, 18.448 299.98013522757304 C 18.471999999999998 299.68946856090633, 18.485999999999997 299.428135227573, 18.49 299.196135227573 C 18.494 298.964135227573, 18.485333333333333 298.74280189423973, 18.464 298.532135227573 C 18.447999999999997 298.3774685609063, 18.396666666666665 298.262135227573, 18.31 298.186135227573 C 18.223333333333333 298.11013522757304, 18.090666666666664 298.072135227573, 17.912 298.072135227573 C 17.901333333333334 298.072135227573, 17.890666666666668 298.07346856090635, 17.88 298.076135227573 C 17.86933333333333 298.0788018942397, 17.86 298.08146856090633, 17.852 298.08413522757303 Z M 17.852 295.792135227573 L 17.852 294.86013522757304 L 19.439999999999998 294.86013522757304 L 19.439999999999998 295.792135227573 Z M 21.944 301.260135227573 L 21.944 294.86013522757304 L 23.003999999999998 294.86013522757304 L 23.003999999999998 301.260135227573 Z " stroke="none" fill-rule="nonzero" fill="#000000" fill-opacity="1" transform="matrix(1,0,0,1,5.05,13.314)" id="text5 l" />
  <path d="M 0 292.2390640533206 L 10 292.2390640533206 L 10 293.7390640533206 L 0 293.7390640533206 Z " stroke="none" fill-rule="evenodd" fill="#000000" fill-opacity="1" transform="matrix(1,0,0,1,5.05,13.314)" id="mark6 l" />
  <path d="M 0 282.1359928790681 L 10 282.1359928790681 L 10 283.6359928790681 L 0 283.6359928790681 Z " stroke="none" fill-rule="evenodd" fill="#000000" fill-opacity="1" transform="matrix(1,0,0,1,5.05,13.314)" id="mark7 l" />
  <path d="M 0 272.0329217048157 L 10 272.0329217048157 L 10 273.5329217048157 L 0 273.5329217048157 Z " stroke="none" fill-rule="evenodd" fill="#000000" fill-opacity="1" transform="matrix(1,0,0,1,5.05,13.314)" id="mark8 l" />
  <path d="M 0 261.9298505305633 L 10 261.9298505305633 L 10 263.4298505305633 L 0 263.4298505305633 Z " stroke="none" fill-rule="evenodd" fill="#000000" fill-opacity="1" transform="matrix(1,0,0,1,5.05,13.314)" id="mark9 l" />
  <path d="M 0 251.82677935631085 L 25 251.82677935631085 L 25 253.32677935631085 L 0 253.32677935631085 Z " stroke="none" fill-rule="evenodd" fill="#000000" fill-opacity="1" transform="matrix(1,0,0,1,5.05,13.314)" id="mark10 l" />
  <path d="M 14.323999999999998 250.77677935631087 L 14.323999999999998 245.33277935631088 L 13.871999999999998 245.33277935631088 L 13.839999999999998 244.95277935631086 L 14.543999999999999 244.37677935631086 L 15.424 244.37677935631086 L 15.424 250.77677935631087 Z M 16.196 249.36477935631086 C 16.188000000000002 248.93544602297754, 16.182666666666666 248.51877935631086, 16.18 248.11477935631086 C 16.177333333333333 247.71077935631087, 16.177999999999997 247.31544602297754, 16.182 246.92877935631086 C 16.186 246.54211268964417, 16.190666666666665 246.16077935631085, 16.196 245.78477935631088 C 16.209333333333333 245.34477935631088, 16.334000000000003 244.99944602297757, 16.57 244.74877935631088 C 16.805999999999997 244.4981126896442, 17.142666666666663 244.35277935631086, 17.58 244.31277935631087 L 17.58 245.20077935631087 C 17.382666666666665 245.25677935631086, 17.281333333333333 245.38611268964422, 17.276 245.58877935631088 C 17.262666666666668 245.95944602297754, 17.253333333333334 246.30744602297753, 17.248 246.63277935631086 C 17.242666666666665 246.9581126896442, 17.24 247.2747793563109, 17.24 247.58277935631088 C 17.24 247.89077935631087, 17.242666666666665 248.20544602297753, 17.248 248.52677935631087 C 17.253333333333334 248.8481126896442, 17.262666666666668 249.19144602297752, 17.276 249.55677935631087 C 17.281333333333333 249.7647793563109, 17.382666666666665 249.8967793563109, 17.58 249.95277935631086 L 17.58 250.84077935631086 C 17.142666666666663 250.80077935631084, 16.805999999999997 250.65477935631088, 16.57 250.40277935631087 C 16.334000000000003 250.15077935631086, 16.209333333333333 249.80477935631086, 16.196 249.36477935631086 Z M 18.084 250.84077935631086 L 18.084 249.94877935631087 C 18.268 249.89544602297755, 18.366666666666667 249.77144602297756, 18.38 249.57677935631088 C 18.398666666666667 249.1101126896442, 18.410666666666668 248.66144602297754, 18.416 248.23077935631088 C 18.421333333333333 247.8001126896442, 18.421333333333333 247.36944602297754, 18.416 246.93877935631087 C 18.410666666666668 246.5081126896442, 18.398666666666667 246.05544602297755, 18.38 245.58077935631087 C 18.374666666666666 245.38611268964422, 18.276 245.25944602297756, 18.084 245.20077935631087 L 18.084 244.31277935631087 C 18.513333333333335 244.35277935631086, 18.846666666666668 244.4981126896442, 19.084 244.74877935631088 C 19.321333333333335 244.99944602297757, 19.445333333333334 245.34477935631088, 19.456 245.78477935631088 C 19.46666666666667 246.09944602297753, 19.474666666666668 246.40944602297753, 19.48 246.71477935631086 C 19.485333333333333 247.02011268964418, 19.488 247.32077935631085, 19.488 247.61677935631087 C 19.488 247.91277935631086, 19.485333333333333 248.20611268964421, 19.48 248.49677935631087 C 19.474666666666668 248.78744602297752, 19.46666666666667 249.07677935631085, 19.456 249.36477935631086 C 19.439999999999998 249.81544602297754, 19.311999999999998 250.1641126896442, 19.072 250.41077935631085 C 18.832 250.65744602297752, 18.502666666666666 250.80077935631084, 18.084 250.84077935631086 Z M 21.944 250.77677935631087 L 21.944 244.37677935631086 L 23.003999999999998 244.37677935631086 L 23.003999999999998 250.77677935631087 Z " stroke="none" fill-rule="nonzero" fill="#000000" fill-opacity="1" transform="matrix(1,0,0,1,5.05,13.314)" id="text10 l" />
  <path d="M 0 241.72370818205843 L 10 241.72370818205843 L 10 243.22370818205843 L 0 243.22370818205843 Z " stroke="none" fill-rule="evenodd" fill="#000000" fill-opacity="1" transform="matrix(1,0,0,1,5.05,13.314)" id="mark11 l" />
  <path d="M 0 231.62063700780598 L 10 231.62063700780598 L 10 233.12063700780598 L 0 233.12063700780598 Z " stroke="none" fill-rule="evenodd" fill="#000000" fill-opacity="1" transform="matrix(1,0,0,1,5.05,13.314)" id="mark12 l" />
  <path d="M 0 221.51756583355353 L 10 221.51756583355353 L 10 223.01756583355353 L 0 223.01756583355353 Z " stroke="none" fill-rule="evenodd" fill="#000000" fill-opacity="1" transform="matrix(1,0,0,1,5.05,13.314)" id="mark13 l" />
  <path d="M 0 211.4144946593011 L 10 211.4144946593011 L 10 212.9144946593011 L 0 212.9144946593011 Z " stroke="none" fill-rule="evenodd" fill="#000000" fill-opacity="1" transform="matrix(1,0,0,1,5.05,13.314)" id="mark14 l" />
  <path d="M 0 201.3114234850487 L 25 201.3114234850487 L 25 202.8114234850487 L 0 202.8114234850487 Z " stroke="none" fill-rule="evenodd" fill="#000000" fill-opacity="1" transform="matrix(1,0,0,1,5.05,13.314)" id="mark15 l" />
  <path d="M 14.331999999999999 200.2294234850487 L 14.331999999999999 194.7854234850487 L 13.879999999999999 194.7854234850487 L 13.847999999999999 194.4054234850487 L 14.552 193.8294234850487 L 15.432 193.8294234850487 L 15.432 200.2294234850487 Z M 16.18 198.8134234850487 C 16.174666666666667 198.64009015171536, 16.173333333333332 198.50075681838203, 16.176 198.3954234850487 C 16.178666666666665 198.29009015171536, 16.181333333333335 198.18809015171536, 16.183999999999997 198.0894234850487 L 17.264 198.0894234850487 C 17.256 198.16675681838205, 17.25 198.26275681838203, 17.246 198.3774234850487 C 17.241999999999997 198.49209015171536, 17.240666666666666 198.60275681838203, 17.241999999999997 198.7094234850487 C 17.243333333333332 198.81609015171534, 17.246666666666666 198.89609015171538, 17.252 198.9494234850487 C 17.262666666666668 199.06942348504873, 17.297333333333334 199.16742348504872, 17.355999999999998 199.2434234850487 C 17.414666666666665 199.3194234850487, 17.497333333333334 199.3734234850487, 17.604 199.4054234850487 L 17.604 200.2974234850487 C 17.110666666666663 200.26009015171536, 16.75333333333333 200.1254234850487, 16.532 199.8934234850487 C 16.310666666666666 199.66142348504872, 16.19333333333333 199.3014234850487, 16.18 198.8134234850487 Z M 16.279999999999998 197.4774234850487 L 16.279999999999998 193.8294234850487 L 17.348 193.8294234850487 L 17.348 197.4774234850487 Z M 17.852 197.0534234850487 L 17.852 196.2974234850487 C 17.929333333333332 196.25742348504872, 18.014666666666667 196.22542348504874, 18.107999999999997 196.2014234850487 C 18.20133333333333 196.17742348504873, 18.301333333333332 196.16542348504873, 18.407999999999998 196.1654234850487 C 18.773333333333333 196.16542348504873, 19.047333333333334 196.28075681838203, 19.23 196.5114234850487 C 19.412666666666667 196.74209015171533, 19.514666666666663 197.05609015171535, 19.535999999999998 197.4534234850487 C 19.546666666666667 197.6134234850487, 19.55333333333333 197.77209015171536, 19.555999999999997 197.9294234850487 C 19.558666666666664 198.086756818382, 19.557333333333332 198.24009015171538, 19.552 198.3894234850487 C 19.546666666666667 198.538756818382, 19.538666666666668 198.67875681838203, 19.528 198.8094234850487 C 19.482666666666667 199.30809015171536, 19.353333333333335 199.6734234850487, 19.14 199.9054234850487 C 18.926666666666666 200.13742348504869, 18.581333333333333 200.26809015171534, 18.104 200.2974234850487 L 18.104 199.4054234850487 C 18.21333333333333 199.37609015171535, 18.296 199.3234234850487, 18.352 199.2474234850487 C 18.408 199.1714234850487, 18.44 199.07209015171537, 18.448 198.9494234850487 C 18.471999999999998 198.65875681838202, 18.485999999999997 198.3974234850487, 18.49 198.1654234850487 C 18.494 197.9334234850487, 18.485333333333333 197.71209015171536, 18.464 197.5014234850487 C 18.447999999999997 197.34675681838203, 18.396666666666665 197.2314234850487, 18.31 197.1554234850487 C 18.223333333333333 197.07942348504872, 18.090666666666664 197.0414234850487, 17.912 197.0414234850487 C 17.901333333333334 197.0414234850487, 17.890666666666668 197.04275681838203, 17.88 197.0454234850487 C 17.86933333333333 197.04809015171537, 17.86 197.050756818382, 17.852 197.0534234850487 Z M 17.852 194.7614234850487 L 17.852 193.8294234850487 L 19.439999999999998 193.8294234850487 L 19.439999999999998 194.7614234850487 Z M 21.944 200.2294234850487 L 21.944 193.8294234850487 L 23.003999999999998 193.8294234850487 L 23.003999999999998 200.2294234850487 Z " stroke="none" fill-rule="nonzero" fill="#000000" fill-opacity="1" transform="matrix(1,0,0,1,5.05,13.314)" id="text15 l" />
  <path d="M 0 191.20835231079624 L 10 191.20835231079624 L 10 192.70835231079624 L 0 192.70835231079624 Z " stroke="none" fill-rule="evenodd" fill="#000000" fill-opacity="1" transform="matrix(1,0,0,1,5.05,13.314)" id="mark16 l" />
  <path d="M 0 181.10528113654382 L 10 181.10528113654382 L 10 182.60528113654382 L 0 182.60528113654382 Z " stroke="none" fill-rule="evenodd" fill="#000000" fill-opacity="1" transform="matrix(1,0,0,1,5.05,13.314)" id="mark17 l" />
  <path d="M 0 171.00220996229137 L 10 171.00220996229137 L 10 172.50220996229137 L 0 172.50220996229137 Z " stroke="none" fill-rule="evenodd" fill="#000000" fill-opacity="1" transform="matrix(1,0,0,1,5.05,13.314)" id="mark18 l" />
  <path d="M 0 160.89913878803895 L 10 160.89913878803895 L 10 162.39913878803895 L 0 162.39913878803895 Z " stroke="none" fill-rule="evenodd" fill="#000000" fill-opacity="1" transform="matrix(1,0,0,1,5.05,13.314)" id="mark19 l" />
  <path d="M 0 150.7960676137865 L 25 150.7960676137865 L 25 152.2960676137865 L 0 152.2960676137865 Z " stroke="none" fill-rule="evenodd" fill="#000000" fill-opacity="1" transform="matrix(1,0,0,1,5.05,13.314)" id="mark20 l" />
  <path d="M 12.319999999999999 149.74606761378652 C 12.317333333333334 149.64740094711985, 12.315333333333331 149.5587342804532, 12.313999999999998 149.48006761378653 C 12.312666666666665 149.40140094711987, 12.311333333333334 149.32740094711986, 12.309999999999999 149.25806761378652 C 12.308666666666667 149.1887342804532, 12.308 149.1167342804532, 12.308 149.04206761378651 C 12.308 148.96740094711984, 12.308 148.88273428045318, 12.308 148.78806761378652 C 12.308 148.69340094711987, 12.309333333333335 148.58206761378653, 12.312 148.45406761378652 C 12.32 148.1607342804532, 12.37 147.8987342804532, 12.462 147.66806761378652 C 12.554 147.43740094711984, 12.687999999999999 147.23140094711985, 12.863999999999999 147.05006761378652 C 13.04 146.8687342804532, 13.257333333333333 146.70740094711985, 13.515999999999998 146.56606761378652 L 14.047999999999998 146.27806761378653 C 14.234666666666666 146.1767342804532, 14.354 146.0547342804532, 14.405999999999999 145.91206761378652 C 14.457999999999998 145.76940094711983, 14.488 145.63540094711985, 14.495999999999999 145.51006761378653 C 14.506666666666664 145.36340094711986, 14.512666666666664 145.2067342804532, 14.514 145.04006761378653 C 14.51533333333333 144.87340094711988, 14.511999999999997 144.7167342804532, 14.504 144.57006761378653 C 14.498666666666665 144.46606761378652, 14.468666666666666 144.38006761378654, 14.413999999999998 144.31206761378652 C 14.359333333333332 144.2440676137865, 14.279999999999998 144.19540094711985, 14.175999999999998 144.1660676137865 L 14.175999999999998 143.27806761378653 C 14.663999999999998 143.31006761378654, 15.014 143.44140094711986, 15.225999999999999 143.6720676137865 C 15.437999999999999 143.90273428045316, 15.554666666666666 144.26340094711986, 15.575999999999999 144.75406761378653 C 15.578666666666663 144.81806761378652, 15.580666666666666 144.88340094711987, 15.581999999999999 144.95006761378653 C 15.583333333333332 145.0167342804532, 15.584 145.08140094711985, 15.584 145.14406761378652 C 15.584 145.2067342804532, 15.583333333333332 145.26873428045317, 15.581999999999999 145.33006761378653 C 15.580666666666666 145.39140094711985, 15.578666666666663 145.45140094711985, 15.575999999999999 145.51006761378653 C 15.565333333333331 145.79540094711987, 15.512 146.04206761378651, 15.415999999999999 146.2500676137865 C 15.32 146.4580676137865, 15.19 146.63806761378652, 15.026 146.79006761378653 C 14.862 146.94206761378652, 14.672 147.07806761378652, 14.456 147.19806761378652 L 13.851999999999999 147.52606761378652 C 13.737333333333332 147.58740094711987, 13.647333333333332 147.67140094711988, 13.581999999999999 147.77806761378653 C 13.516666666666666 147.8847342804532, 13.469999999999999 147.99806761378653, 13.441999999999998 148.11806761378654 C 13.413999999999998 148.2380676137865, 13.399999999999999 148.3500676137865, 13.399999999999999 148.45406761378652 L 13.399999999999999 149.74606761378652 Z M 12.328 145.70606761378653 C 12.322666666666667 145.5887342804532, 12.318666666666665 145.47406761378653, 12.315999999999999 145.3620676137865 C 12.313333333333333 145.25006761378654, 12.311333333333334 145.14406761378655, 12.309999999999999 145.04406761378652 C 12.308666666666667 144.9440676137865, 12.309333333333335 144.84740094711987, 12.312 144.75406761378653 C 12.330666666666666 144.26606761378653, 12.447333333333333 143.9067342804532, 12.661999999999999 143.67606761378653 C 12.876666666666665 143.44540094711985, 13.213333333333331 143.31273428045318, 13.671999999999999 143.27806761378653 L 13.671999999999999 144.17006761378653 C 13.576 144.19940094711984, 13.505333333333333 144.24606761378652, 13.459999999999999 144.31006761378652 C 13.414666666666665 144.3740676137865, 13.390666666666664 144.45140094711985, 13.387999999999998 144.54206761378651 C 13.382666666666665 144.7500676137865, 13.379333333333333 144.94340094711987, 13.378 145.12206761378653 C 13.376666666666667 145.30073428045318, 13.381333333333334 145.49540094711986, 13.392 145.70606761378653 Z M 13.904 149.74606761378652 L 13.904 148.81406761378653 L 15.5 148.81406761378653 L 15.5 149.74606761378652 Z M 16.196 148.33406761378652 C 16.188000000000002 147.90473428045317, 16.182666666666666 147.4880676137865, 16.18 147.08406761378652 C 16.177333333333333 146.68006761378652, 16.177999999999997 146.2847342804532, 16.182 145.8980676137865 C 16.186 145.51140094711985, 16.190666666666665 145.13006761378654, 16.196 144.75406761378653 C 16.209333333333333 144.31406761378653, 16.334000000000003 143.9687342804532, 16.57 143.71806761378653 C 16.805999999999997 143.46740094711987, 17.142666666666663 143.32206761378654, 17.58 143.28206761378652 L 17.58 144.17006761378653 C 17.382666666666665 144.22606761378654, 17.281333333333333 144.35540094711988, 17.276 144.55806761378653 C 17.262666666666668 144.9287342804532, 17.253333333333334 145.27673428045318, 17.248 145.60206761378652 C 17.242666666666665 145.92740094711985, 17.24 146.2440676137865, 17.24 146.55206761378653 C 17.24 146.86006761378653, 17.242666666666665 147.17473428045318, 17.248 147.49606761378652 C 17.253333333333334 147.81740094711986, 17.262666666666668 148.1607342804532, 17.276 148.52606761378652 C 17.281333333333333 148.73406761378652, 17.382666666666665 148.86606761378653, 17.58 148.9220676137865 L 17.58 149.81006761378652 C 17.142666666666663 149.77006761378652, 16.805999999999997 149.6240676137865, 16.57 149.37206761378653 C 16.334000000000003 149.12006761378652, 16.209333333333333 148.7740676137865, 16.196 148.33406761378652 Z M 18.084 149.81006761378652 L 18.084 148.91806761378652 C 18.268 148.8647342804532, 18.366666666666667 148.7407342804532, 18.38 148.54606761378653 C 18.398666666666667 148.07940094711986, 18.410666666666668 147.6307342804532, 18.416 147.20006761378653 C 18.421333333333333 146.76940094711986, 18.421333333333333 146.3387342804532, 18.416 145.90806761378653 C 18.410666666666668 145.47740094711986, 18.398666666666667 145.02473428045317, 18.38 144.55006761378652 C 18.374666666666666 144.35540094711985, 18.276 144.22873428045318, 18.084 144.17006761378653 L 18.084 143.28206761378652 C 18.513333333333335 143.32206761378654, 18.846666666666668 143.46740094711987, 19.084 143.71806761378653 C 19.321333333333335 143.9687342804532, 19.445333333333334 144.31406761378653, 19.456 144.75406761378653 C 19.46666666666667 145.06873428045319, 19.474666666666668 145.3787342804532, 19.48 145.6840676137865 C 19.485333333333333 145.98940094711983, 19.488 146.2900676137865, 19.488 146.58606761378653 C 19.488 146.88206761378652, 19.485333333333333 147.17540094711984, 19.48 147.46606761378652 C 19.474666666666668 147.7567342804532, 19.46666666666667 148.04606761378653, 19.456 148.33406761378652 C 19.439999999999998 148.7847342804532, 19.311999999999998 149.13340094711987, 19.072 149.3800676137865 C 18.832 149.62673428045318, 18.502666666666666 149.77006761378652, 18.084 149.81006761378652 Z M 21.944 149.74606761378652 L 21.944 143.34606761378652 L 23.003999999999998 143.34606761378652 L 23.003999999999998 149.74606761378652 Z " stroke="none" fill-rule="nonzero" fill="#000000" fill-opacity="1" transform="matrix(1,0,0,1,5.05,13.314)" id="text20 l" />
  <path d="M 0 140.69299643953408 L 10 140.69299643953408 L 10 142.19299643953408 L 0 142.19299643953408 Z " stroke="none" fill-rule="evenodd" fill="#000000" fill-opacity="1" transform="matrix(1,0,0,1,5.05,13.314)" id="mark21 l" />
  <path d="M 0 130.58992526528166 L 10 130.58992526528166 L 10 132.08992526528166 L 0 132.08992526528166 Z " stroke="none" fill-rule="evenodd" fill="#000000" fill-opacity="1" transform="matrix(1,0,0,1,5.05,13.314)" id="mark22 l" />
  <path d="M 0 120.48685409102922 L 10 120.48685409102922 L 10 121.98685409102922 L 0 121.98685409102922 Z " stroke="none" fill-rule="evenodd" fill="#000000" fill-opacity="1" transform="matrix(1,0,0,1,5.05,13.314)" id="mark23 l" />
  <path d="M 0 110.3837829167768 L 10 110.3837829167768 L 10 111.8837829167768 L 0 111.8837829167768 Z " stroke="none" fill-rule="evenodd" fill="#000000" fill-opacity="1" transform="matrix(1,0,0,1,5.05,13.314)" id="mark24 l" />
  <path d="M 0 100.28071174252435 L 25 100.28071174252435 L 25 101.78071174252435 L 0 101.78071174252435 Z " stroke="none" fill-rule="evenodd" fill="#000000" fill-opacity="1" transform="matrix(1,0,0,1,5.05,13.314)" id="mark25 l" />
  <path d="M 12.328 99.23071174252435 C 12.325333333333333 99.13204507585769, 12.323333333333332 99.043378409191, 12.322 98.96471174252434 C 12.320666666666666 98.88604507585768, 12.319333333333333 98.8120450758577, 12.318 98.74271174252435 C 12.316666666666666 98.67337840919103, 12.315999999999999 98.60137840919103, 12.316 98.52671174252436 C 12.315999999999999 98.45204507585768, 12.315999999999999 98.36737840919102, 12.316 98.27271174252435 C 12.315999999999999 98.17804507585768, 12.317333333333334 98.06671174252435, 12.32 97.93871174252435 C 12.328 97.64537840919101, 12.378 97.38337840919101, 12.47 97.15271174252435 C 12.562000000000001 96.92204507585768, 12.696 96.71604507585766, 12.872 96.53471174252435 C 13.048 96.35337840919101, 13.265333333333334 96.19204507585769, 13.524000000000001 96.05071174252434 L 14.056000000000001 95.76271174252435 C 14.242666666666668 95.66137840919102, 14.362000000000002 95.53937840919102, 14.414 95.39671174252435 C 14.466000000000001 95.25404507585768, 14.495999999999999 95.12004507585767, 14.504 94.99471174252434 C 14.514666666666667 94.84804507585768, 14.520666666666667 94.69137840919102, 14.522 94.52471174252435 C 14.523333333333333 94.35804507585767, 14.520000000000001 94.20137840919101, 14.512 94.05471174252435 C 14.506666666666666 93.95071174252435, 14.476666666666667 93.86471174252435, 14.422 93.79671174252435 C 14.367333333333335 93.72871174252435, 14.288 93.68004507585768, 14.184000000000001 93.65071174252435 L 14.184000000000001 92.76271174252435 C 14.672 92.79471174252434, 15.022000000000002 92.92604507585767, 15.234 93.15671174252435 C 15.446000000000002 93.38737840919103, 15.562666666666667 93.74804507585769, 15.584 94.23871174252434 C 15.586666666666668 94.30271174252435, 15.588666666666668 94.36804507585768, 15.59 94.43471174252434 C 15.591333333333335 94.50137840919102, 15.592000000000002 94.56604507585769, 15.592 94.62871174252435 C 15.592000000000002 94.69137840919102, 15.591333333333335 94.75337840919101, 15.59 94.81471174252435 C 15.588666666666668 94.87604507585769, 15.586666666666668 94.93604507585768, 15.584 94.99471174252434 C 15.573333333333332 95.28004507585767, 15.52 95.52671174252434, 15.424 95.73471174252435 C 15.328 95.94271174252435, 15.197999999999999 96.12271174252434, 15.033999999999999 96.27471174252435 C 14.87 96.42671174252435, 14.68 96.56271174252436, 14.464 96.68271174252435 L 13.86 97.01071174252435 C 13.745333333333335 97.07204507585769, 13.655333333333335 97.15604507585769, 13.59 97.26271174252435 C 13.524666666666668 97.369378409191, 13.478000000000002 97.48271174252434, 13.45 97.60271174252435 C 13.422 97.72271174252435, 13.408 97.83471174252435, 13.408 97.93871174252435 L 13.408 99.23071174252435 Z M 12.336 95.19071174252434 C 12.330666666666666 95.07337840919101, 12.326666666666664 94.95871174252434, 12.324 94.84671174252435 C 12.321333333333332 94.73471174252435, 12.319333333333333 94.62871174252435, 12.318 94.52871174252435 C 12.316666666666666 94.42871174252434, 12.317333333333334 94.33204507585768, 12.32 94.23871174252434 C 12.338666666666668 93.75071174252435, 12.455333333333336 93.391378409191, 12.67 93.16071174252434 C 12.884666666666668 92.93004507585768, 13.221333333333334 92.79737840919101, 13.68 92.76271174252435 L 13.68 93.65471174252436 C 13.584 93.68404507585768, 13.513333333333332 93.73071174252435, 13.468 93.79471174252436 C 13.422666666666668 93.85871174252435, 13.398666666666667 93.93604507585768, 13.396 94.02671174252436 C 13.390666666666666 94.23471174252435, 13.387333333333332 94.42804507585768, 13.386 94.60671174252435 C 13.384666666666666 94.78537840919103, 13.389333333333333 94.98004507585767, 13.4 95.19071174252434 Z M 13.911999999999999 99.23071174252435 L 13.911999999999999 98.29871174252435 L 15.508 98.29871174252435 L 15.508 99.23071174252435 Z M 16.18 97.81471174252435 C 16.174666666666667 97.64137840919102, 16.173333333333332 97.5020450758577, 16.176 97.39671174252435 C 16.178666666666665 97.29137840919103, 16.181333333333335 97.18937840919102, 16.183999999999997 97.09071174252435 L 17.264 97.09071174252435 C 17.256 97.16804507585769, 17.25 97.2640450758577, 17.246 97.37871174252435 C 17.241999999999997 97.49337840919102, 17.240666666666666 97.60404507585768, 17.241999999999997 97.71071174252435 C 17.243333333333332 97.81737840919102, 17.246666666666666 97.89737840919102, 17.252 97.95071174252435 C 17.262666666666668 98.07071174252435, 17.297333333333334 98.16871174252435, 17.355999999999998 98.24471174252434 C 17.414666666666665 98.32071174252435, 17.497333333333334 98.37471174252435, 17.604 98.40671174252435 L 17.604 99.29871174252435 C 17.110666666666663 99.26137840919102, 16.75333333333333 99.12671174252435, 16.532 98.89471174252435 C 16.310666666666666 98.66271174252435, 16.19333333333333 98.30271174252435, 16.18 97.81471174252435 Z M 16.279999999999998 96.47871174252435 L 16.279999999999998 92.83071174252434 L 17.348 92.83071174252434 L 17.348 96.47871174252435 Z M 17.852 96.05471174252435 L 17.852 95.29871174252435 C 17.929333333333332 95.25871174252435, 18.014666666666667 95.22671174252434, 18.107999999999997 95.20271174252434 C 18.20133333333333 95.17871174252434, 18.301333333333332 95.16671174252434, 18.407999999999998 95.16671174252434 C 18.773333333333333 95.16671174252434, 19.047333333333334 95.28204507585768, 19.23 95.51271174252435 C 19.412666666666667 95.74337840919101, 19.514666666666663 96.05737840919102, 19.535999999999998 96.45471174252435 C 19.546666666666667 96.61471174252435, 19.55333333333333 96.77337840919103, 19.555999999999997 96.93071174252435 C 19.558666666666664 97.08804507585768, 19.557333333333332 97.24137840919101, 19.552 97.39071174252435 C 19.546666666666667 97.54004507585768, 19.538666666666668 97.68004507585768, 19.528 97.81071174252435 C 19.482666666666667 98.30937840919101, 19.353333333333335 98.67471174252435, 19.14 98.90671174252435 C 18.926666666666666 99.13871174252435, 18.581333333333333 99.269378409191, 18.104 99.29871174252435 L 18.104 98.40671174252435 C 18.21333333333333 98.37737840919102, 18.296 98.32471174252436, 18.352 98.24871174252435 C 18.408 98.17271174252434, 18.44 98.07337840919101, 18.448 97.95071174252435 C 18.471999999999998 97.66004507585768, 18.485999999999997 97.39871174252434, 18.49 97.16671174252434 C 18.494 96.93471174252434, 18.485333333333333 96.71337840919102, 18.464 96.50271174252435 C 18.447999999999997 96.3480450758577, 18.396666666666665 96.23271174252436, 18.31 96.15671174252435 C 18.223333333333333 96.08071174252434, 18.090666666666664 96.04271174252435, 17.912 96.04271174252435 C 17.901333333333334 96.04271174252435, 17.890666666666668 96.04404507585767, 17.88 96.04671174252435 C 17.86933333333333 96.04937840919101, 17.86 96.05204507585768, 17.852 96.05471174252435 Z M 17.852 93.76271174252435 L 17.852 92.83071174252434 L 19.439999999999998 92.83071174252434 L 19.439999999999998 93.76271174252435 Z M 21.944 99.23071174252435 L 21.944 92.83071174252434 L 23.003999999999998 92.83071174252434 L 23.003999999999998 99.23071174252435 Z " stroke="none" fill-rule="nonzero" fill="#000000" fill-opacity="1" transform="matrix(1,0,0,1,5.05,13.314)" id="text25 l" />
  <path d="M 0 90.1776405682719 L 10 90.1776405682719 L 10 91.6776405682719 L 0 91.6776405682719 Z " stroke="none" fill-rule="evenodd" fill="#000000" fill-opacity="1" transform="matrix(1,0,0,1,5.05,13.314)" id="mark26 l" />
  <path d="M 0 80.07456939401948 L 10 80.07456939401948 L 10 81.57456939401948 L 0 81.57456939401948 Z " stroke="none" fill-rule="evenodd" fill="#000000" fill-opacity="1" transform="matrix(1,0,0,1,5.05,13.314)" id="mark27 l" />
  <path d="M 0 69.97149821976706 L 10 69.97149821976706 L 10 71.47149821976706 L 0 71.47149821976706 Z " stroke="none" fill-rule="evenodd" fill="#000000" fill-opacity="1" transform="matrix(1,0,0,1,5.05,13.314)" id="mark28 l" />
  <path d="M 0 59.868427045514636 L 10 59.868427045514636 L 10 61.368427045514636 L 0 61.368427045514636 Z " stroke="none" fill-rule="evenodd" fill="#000000" fill-opacity="1" transform="matrix(1,0,0,1,5.05,13.314)" id="mark29 l" />
  <path d="M 0 49.765355871262216 L 25 49.765355871262216 L 25 51.265355871262216 L 0 51.265355871262216 Z " stroke="none" fill-rule="evenodd" fill="#000000" fill-opacity="1" transform="matrix(1,0,0,1,5.05,13.314)" id="mark30 l" />
  <path d="M 12.223999999999998 47.29935587126222 C 12.221333333333334 47.198022537928885, 12.219333333333333 47.11402253792889, 12.218 47.04735587126222 C 12.216666666666667 46.98068920459555, 12.216666666666667 46.91268920459555, 12.218 46.84335587126222 C 12.219333333333333 46.774022537928886, 12.221333333333334 46.68468920459555, 12.223999999999998 46.57535587126222 L 13.303999999999998 46.57535587126222 L 13.303999999999998 47.439355871262215 C 13.303999999999998 47.67668920459555, 13.417333333333332 47.82735587126222, 13.643999999999998 47.89135587126222 L 13.643999999999998 48.783355871262216 C 13.155999999999999 48.74602253792889, 12.800666666666665 48.61135587126222, 12.578 48.37935587126222 C 12.355333333333334 48.14735587126222, 12.237333333333332 47.78735587126222, 12.223999999999998 47.29935587126222 Z M 12.292 43.247355871262215 L 12.292 42.31535587126222 L 15.536 42.31535587126222 L 15.536 43.247355871262215 Z M 14.143999999999998 47.89535587126222 C 14.367999999999999 47.839355871262214, 14.483999999999998 47.68868920459555, 14.491999999999999 47.44335587126222 C 14.497333333333334 47.240689204595554, 14.500666666666666 47.058022537928885, 14.501999999999999 46.89535587126222 C 14.503333333333332 46.73268920459555, 14.498666666666665 46.57535587126222, 14.488 46.42335587126222 C 14.48 46.26602253792888, 14.431999999999999 46.13268920459555, 14.344 46.02335587126222 C 14.256 45.914022537928886, 14.089333333333332 45.86202253792889, 13.844 45.86735587126222 L 13.096 45.875355871262215 L 13.068 44.98335587126222 L 14.027999999999999 43.59935587126222 L 15.216 43.59935587126222 L 14.248 44.951355871262216 L 14.28 44.951355871262216 C 14.712 44.951355871262216, 15.028666666666666 45.07402253792888, 15.229999999999999 45.31935587126222 C 15.431333333333333 45.56468920459555, 15.544 45.942022537928885, 15.568 46.451355871262216 C 15.57333333333333 46.52335587126222, 15.576666666666664 46.59535587126222, 15.578 46.66735587126222 C 15.57933333333333 46.73935587126222, 15.579999999999998 46.81002253792889, 15.579999999999998 46.87935587126222 C 15.579999999999998 46.94868920459555, 15.57933333333333 47.018022537928886, 15.578 47.08735587126222 C 15.576666666666664 47.15668920459555, 15.57333333333333 47.22735587126222, 15.568 47.29935587126222 C 15.549333333333333 47.79535587126222, 15.428666666666665 48.16002253792888, 15.206 48.393355871262216 C 14.983333333333334 48.62668920459555, 14.630666666666666 48.75668920459555, 14.148 48.783355871262216 Z M 16.196 47.30335587126222 C 16.188000000000002 46.87402253792889, 16.182666666666666 46.45735587126222, 16.18 46.05335587126222 C 16.177333333333333 45.649355871262216, 16.177999999999997 45.25402253792888, 16.182 44.86735587126222 C 16.186 44.480689204595556, 16.190666666666665 44.09935587126222, 16.196 43.72335587126222 C 16.209333333333333 43.283355871262216, 16.334000000000003 42.93802253792889, 16.57 42.68735587126222 C 16.805999999999997 42.43668920459555, 17.142666666666663 42.29135587126222, 17.58 42.25135587126222 L 17.58 43.13935587126222 C 17.382666666666665 43.19535587126222, 17.281333333333333 43.32468920459555, 17.276 43.527355871262216 C 17.262666666666668 43.89802253792889, 17.253333333333334 44.24602253792889, 17.248 44.57135587126222 C 17.242666666666665 44.89668920459555, 17.24 45.21335587126222, 17.24 45.521355871262216 C 17.24 45.82935587126222, 17.242666666666665 46.14402253792889, 17.248 46.46535587126222 C 17.253333333333334 46.78668920459555, 17.262666666666668 47.13002253792888, 17.276 47.49535587126222 C 17.281333333333333 47.70335587126222, 17.382666666666665 47.835355871262216, 17.58 47.89135587126222 L 17.58 48.77935587126222 C 17.142666666666663 48.73935587126222, 16.805999999999997 48.59335587126222, 16.57 48.341355871262216 C 16.334000000000003 48.089355871262214, 16.209333333333333 47.74335587126222, 16.196 47.30335587126222 Z M 18.084 48.77935587126222 L 18.084 47.887355871262216 C 18.268 47.83402253792888, 18.366666666666667 47.710022537928886, 18.38 47.515355871262216 C 18.398666666666667 47.048689204595554, 18.410666666666668 46.600022537928886, 18.416 46.16935587126222 C 18.421333333333333 45.73868920459555, 18.421333333333333 45.308022537928885, 18.416 44.87735587126222 C 18.410666666666668 44.44668920459555, 18.398666666666667 43.994022537928885, 18.38 43.51935587126222 C 18.374666666666666 43.32468920459556, 18.276 43.198022537928885, 18.084 43.13935587126222 L 18.084 42.25135587126222 C 18.513333333333335 42.29135587126222, 18.846666666666668 42.43668920459555, 19.084 42.68735587126222 C 19.321333333333335 42.93802253792889, 19.445333333333334 43.283355871262216, 19.456 43.72335587126222 C 19.46666666666667 44.03802253792889, 19.474666666666668 44.348022537928884, 19.48 44.65335587126222 C 19.485333333333333 44.95868920459556, 19.488 45.25935587126222, 19.488 45.55535587126222 C 19.488 45.85135587126222, 19.485333333333333 46.14468920459555, 19.48 46.43535587126222 C 19.474666666666668 46.726022537928884, 19.46666666666667 47.015355871262216, 19.456 47.30335587126222 C 19.439999999999998 47.75402253792889, 19.311999999999998 48.10268920459555, 19.072 48.34935587126222 C 18.832 48.59602253792888, 18.502666666666666 48.73935587126222, 18.084 48.77935587126222 Z M 21.944 48.71535587126222 L 21.944 42.31535587126222 L 23.003999999999998 42.31535587126222 L 23.003999999999998 48.71535587126222 Z " stroke="none" fill-rule="nonzero" fill="#000000" fill-opacity="1" transform="matrix(1,0,0,1,5.05,13.314)" id="text30 l" />
  <path d="M 0 39.66228469700974 L 10 39.66228469700974 L 10 41.16228469700974 L 0 41.16228469700974 Z " stroke="none" fill-rule="evenodd" fill="#000000" fill-opacity="1" transform="matrix(1,0,0,1,5.05,13.314)" id="mark31 l" />
  <path d="M 0 29.559213522757318 L 10 29.559213522757318 L 10 31.059213522757318 L 0 31.059213522757318 Z " stroke="none" fill-rule="evenodd" fill="#000000" fill-opacity="1" transform="matrix(1,0,0,1,5.05,13.314)" id="mark32 l" />
  <path d="M 0 19.456142348504898 L 10 19.456142348504898 L 10 20.956142348504898 L 0 20.956142348504898 Z " stroke="none" fill-rule="evenodd" fill="#000000" fill-opacity="1" transform="matrix(1,0,0,1,5.05,13.314)" id="mark33 l" />
  <path d="M 0 9.353071174252477 L 10 9.353071174252477 L 10 10.853071174252477 L 0 10.853071174252477 Z " stroke="none" fill-rule="evenodd" fill="#000000" fill-opacity="1" transform="matrix(1,0,0,1,5.05,13.314)" id="mark34 l" />
  <path d="M 0 -0.75 L 25 -0.75 L 25 0.75 L 0 0.75 Z " stroke="none" fill-rule="evenodd" fill="#000000" fill-opacity="1" transform="matrix(1,0,0,1,5.05,13.314)" id="mark35 l" />
  <path d="M 12.232 -3.2479999999999998 C 12.229333333333333 -3.349333333333333, 12.227333333333334 -3.4333333333333336, 12.226 -3.5 C 12.224666666666668 -3.5666666666666664, 12.224666666666668 -3.6346666666666665, 12.226 -3.7039999999999997 C 12.227333333333334 -3.773333333333333, 12.229333333333333 -3.8626666666666667, 12.232 -3.972 L 13.312 -3.972 L 13.312 -3.1079999999999997 C 13.312 -2.8706666666666663, 13.425333333333333 -2.7199999999999998, 13.652 -2.6559999999999997 L 13.652 -1.7639999999999998 C 13.164 -1.801333333333333, 12.808666666666667 -1.9359999999999997, 12.586 -2.1679999999999997 C 12.363333333333333 -2.4, 12.245333333333335 -2.76, 12.232 -3.2479999999999998 Z M 12.3 -7.3 L 12.3 -8.232 L 15.544 -8.232 L 15.544 -7.3 Z M 14.152000000000001 -2.6519999999999997 C 14.376000000000001 -2.7079999999999997, 14.492 -2.8586666666666662, 14.5 -3.104 C 14.505333333333333 -3.3066666666666666, 14.508666666666667 -3.489333333333333, 14.51 -3.652 C 14.511333333333333 -3.8146666666666667, 14.506666666666668 -3.9719999999999995, 14.496 -4.124 C 14.488 -4.2813333333333325, 14.440000000000001 -4.414666666666666, 14.352 -4.524 C 14.264 -4.633333333333333, 14.097333333333335 -4.685333333333333, 13.852 -4.68 L 13.104 -4.672 L 13.076 -5.564 L 14.036 -6.9479999999999995 L 15.224 -6.9479999999999995 L 14.256 -5.596 L 14.288 -5.596 C 14.719999999999999 -5.596, 15.036666666666665 -5.473333333333333, 15.238 -5.228 C 15.439333333333334 -4.982666666666667, 15.552 -4.605333333333333, 15.576 -4.096 C 15.581333333333333 -4.024, 15.584666666666667 -3.952, 15.586 -3.88 C 15.587333333333333 -3.808, 15.588000000000001 -3.737333333333333, 15.588000000000001 -3.6679999999999997 C 15.588000000000001 -3.5986666666666665, 15.587333333333333 -3.529333333333333, 15.586 -3.46 C 15.584666666666667 -3.3906666666666667, 15.581333333333333 -3.3200000000000003, 15.576 -3.2479999999999998 C 15.557333333333334 -2.752, 15.436666666666667 -2.3873333333333333, 15.214 -2.154 C 14.991333333333333 -1.9206666666666665, 14.638666666666666 -1.7906666666666666, 14.156 -1.7639999999999998 Z M 16.18 -3.2479999999999998 C 16.174666666666667 -3.421333333333333, 16.173333333333332 -3.5606666666666666, 16.176 -3.666 C 16.178666666666665 -3.771333333333333, 16.181333333333335 -3.873333333333333, 16.183999999999997 -3.972 L 17.264 -3.972 C 17.256 -3.8946666666666667, 17.25 -3.7986666666666666, 17.246 -3.6839999999999997 C 17.241999999999997 -3.569333333333333, 17.240666666666666 -3.4586666666666663, 17.241999999999997 -3.352 C 17.243333333333332 -3.2453333333333334, 17.246666666666666 -3.1653333333333338, 17.252 -3.112 C 17.262666666666668 -2.992, 17.297333333333334 -2.8939999999999997, 17.355999999999998 -2.8179999999999996 C 17.414666666666665 -2.7419999999999995, 17.497333333333334 -2.6879999999999997, 17.604 -2.6559999999999997 L 17.604 -1.7639999999999998 C 17.110666666666663 -1.801333333333333, 16.75333333333333 -1.9359999999999997, 16.532 -2.1679999999999997 C 16.310666666666666 -2.4, 16.19333333333333 -2.76, 16.18 -3.2479999999999998 Z M 16.279999999999998 -4.584 L 16.279999999999998 -8.232 L 17.348 -8.232 L 17.348 -4.584 Z M 17.852 -5.008 L 17.852 -5.763999999999999 C 17.929333333333332 -5.804, 18.014666666666667 -5.836, 18.107999999999997 -5.86 C 18.20133333333333 -5.884, 18.301333333333332 -5.896, 18.407999999999998 -5.896 C 18.773333333333333 -5.896, 19.047333333333334 -5.780666666666667, 19.23 -5.55 C 19.412666666666667 -5.319333333333333, 19.514666666666663 -5.005333333333333, 19.535999999999998 -4.608 C 19.546666666666667 -4.448, 19.55333333333333 -4.289333333333333, 19.555999999999997 -4.132 C 19.558666666666664 -3.974666666666667, 19.557333333333332 -3.8213333333333335, 19.552 -3.6719999999999997 C 19.546666666666667 -3.522666666666667, 19.538666666666668 -3.3826666666666663, 19.528 -3.252 C 19.482666666666667 -2.753333333333333, 19.353333333333335 -2.388, 19.14 -2.1559999999999997 C 18.926666666666666 -1.9239999999999997, 18.581333333333333 -1.793333333333333, 18.104 -1.7639999999999998 L 18.104 -2.6559999999999997 C 18.21333333333333 -2.685333333333333, 18.296 -2.738, 18.352 -2.814 C 18.408 -2.89, 18.44 -2.9893333333333336, 18.448 -3.112 C 18.471999999999998 -3.4026666666666667, 18.485999999999997 -3.664, 18.49 -3.896 C 18.494 -4.128, 18.485333333333333 -4.349333333333333, 18.464 -4.5600000000000005 C 18.447999999999997 -4.714666666666667, 18.396666666666665 -4.83, 18.31 -4.906 C 18.223333333333333 -4.981999999999999, 18.090666666666664 -5.02, 17.912 -5.02 C 17.901333333333334 -5.02, 17.890666666666668 -5.018666666666666, 17.88 -5.016 C 17.86933333333333 -5.013333333333334, 17.86 -5.010666666666667, 17.852 -5.008 Z M 17.852 -7.3 L 17.852 -8.232 L 19.439999999999998 -8.232 L 19.439999999999998 -7.3 Z M 21.944 -1.8319999999999999 L 21.944 -8.232 L 23.003999999999998 -8.232 L 23.003999999999998 -1.8319999999999999 Z " stroke="none" fill-rule="nonzero" fill="#000000" fill-opacity="1" transform="matrix(1,0,0,1,5.05,13.314)" id="text35 l" />
  <path d="M -5 -13.264 L 30 -13.264 L 30 350.2404199245827 L -5 350.2404199245827 Z " stroke="#FF0000" stroke-opacity="1" stroke-width="0.1" stroke-linecap="butt" stroke-linejoin="miter" fill="none" transform="matrix(1,0,0,1,5.05,13.314)" />
</svg>