<?xml version="1.0" encoding="UTF-8"?>
<svg xmlns:xlink="http://www.w3.org/1999/xlink" viewBox="0 0 35.1 364.61831327829253" version="1.1" style="font-synthesis: none;" width="35.1mm" height="364.61831327829253mm" xmlns="http://www.w3.org/2000/svg">
  <defs />
  <style>	</style>
  <path d="M 0 0 L 35.1 0 L 35.1 364.61831327829253 L 0 364.61831327829253 Z " stroke="none" fill-rule="nonzero" fill="#FFFFFF" fill-opacity="1" transform="matrix(1,0,0,1,0,0)" />
  <path d="M 0 343.7363132782925 L 10 343.7363132782925 L 10 345.2363132782925 L 0 345.2363132782925 Z " stroke="none" fill-rule="evenodd" fill="#000000" fill-opacity="1" transform="matrix(1,0,0,1,5.05,13.314)" id="mark1 l" />
  <path d="M 0 325.60545468469815 L 10 325.60545468469815 L 10 327.10545468469815 L 0 327.10545468469815 Z " stroke="none" fill-rule="evenodd" fill="#000000" fill-opacity="1" transform="matrix(1,0,0,1,5.05,13.314)" id="mark2 l" />
  <path d="M 0 307.4745960911038 L 10 307.4745960911038 L 10 308.9745960911038 L 0 308.9745960911038 Z " stroke="none" fill-rule="evenodd" fill="#000000" fill-opacity="1" transform="matrix(1,0,0,1,5.05,13.314)" id="mark3 l" />
  <path d="M 0 289.3437374975095 L 10 289.3437374975095 L 10 290.8437374975095 L 0 290.8437374975095 Z " stroke="none" fill-rule="evenodd" fill="#000000" fill-opacity="1" transform="matrix(1,0,0,1,5.05,13.314)" id="mark4 l" />
  <path d="M 0 271.2128789039151 L 25 271.2128789039151 L 25 272.7128789039151 L 0 272.7128789039151 Z " stroke="none" fill-rule="evenodd" fill="#000000" fill-opacity="1" transform="matrix(1,0,0,1,5.05,13.314)" id="mark5 l" />
  <path d="M 16.18 268.7148789039151 C 16.174666666666667 268.5415455705818, 16.173333333333332 268.4022122372485, 16.176 268.2968789039151 C 16.178666666666665 268.19154557058175, 16.181333333333335 268.0895455705818, 16.183999999999997 267.99087890391513 L 17.264 267.99087890391513 C 17.256 268.0682122372485, 17.25 268.1642122372485, 17.246 268.27887890391514 C 17.241999999999997 268.3935455705818, 17.240666666666666 268.50421223724845, 17.241999999999997 268.61087890391514 C 17.243333333333332 268.7175455705818, 17.246666666666666 268.7975455705818, 17.252 268.85087890391515 C 17.262666666666668 268.9708789039151, 17.297333333333334 269.0688789039151, 17.355999999999998 269.1448789039151 C 17.414666666666665 269.22087890391515, 17.497333333333334 269.2748789039151, 17.604 269.3068789039151 L 17.604 270.1988789039151 C 17.110666666666663 270.1615455705818, 16.75333333333333 270.02687890391513, 16.532 269.7948789039151 C 16.310666666666666 269.5628789039151, 16.19333333333333 269.2028789039151, 16.18 268.7148789039151 Z M 16.279999999999998 267.3788789039151 L 16.279999999999998 263.73087890391514 L 17.348 263.73087890391514 L 17.348 267.3788789039151 Z M 17.852 266.95487890391513 L 17.852 266.1988789039151 C 17.929333333333332 266.1588789039151, 18.014666666666667 266.1268789039151, 18.107999999999997 266.1028789039151 C 18.20133333333333 266.0788789039151, 18.301333333333332 266.0668789039151, 18.407999999999998 266.0668789039151 C 18.773333333333333 266.0668789039151, 19.047333333333334 266.18221223724845, 19.23 266.4128789039151 C 19.412666666666667 266.64354557058175, 19.514666666666663 266.9575455705818, 19.535999999999998 267.3548789039151 C 19.546666666666667 267.51487890391513, 19.55333333333333 267.6735455705818, 19.555999999999997 267.8308789039151 C 19.558666666666664 267.98821223724843, 19.557333333333332 268.1415455705818, 19.552 268.29087890391514 C 19.546666666666667 268.4402122372485, 19.538666666666668 268.5802122372485, 19.528 268.7108789039151 C 19.482666666666667 269.2095455705818, 19.353333333333335 269.5748789039151, 19.14 269.8068789039151 C 18.926666666666666 270.03887890391513, 18.581333333333333 270.16954557058176, 18.104 270.1988789039151 L 18.104 269.3068789039151 C 18.21333333333333 269.27754557058176, 18.296 269.2248789039151, 18.352 269.1488789039151 C 18.408 269.0728789039151, 18.44 268.9735455705818, 18.448 268.85087890391515 C 18.471999999999998 268.56021223724844, 18.485999999999997 268.2988789039151, 18.49 268.0668789039151 C 18.494 267.8348789039151, 18.485333333333333 267.6135455705818, 18.464 267.4028789039151 C 18.447999999999997 267.2482122372485, 18.396666666666665 267.1328789039151, 18.31 267.0568789039151 C 18.223333333333333 266.98087890391514, 18.090666666666664 266.94287890391513, 17.912 266.94287890391513 C 17.901333333333334 266.94287890391513, 17.890666666666668 266.94421223724845, 17.88 266.9468789039151 C 17.86933333333333 266.9495455705818, 17.86 266.95221223724843, 17.852 266.95487890391513 Z M 17.852 264.6628789039151 L 17.852 263.73087890391514 L 19.439999999999998 263.73087890391514 L 19.439999999999998 264.6628789039151 Z M 21.944 270.1308789039151 L 21.944 263.73087890391514 L 23.003999999999998 263.73087890391514 L 23.003999999999998 270.1308789039151 Z " stroke="none" fill-rule="nonzero" fill="#000000" fill-opacity="1" transform="matrix(1,0,0,1,5.05,13.314)" id="text5 l" />
  <path d="M 0 253.0820203103208 L 10 253.0820203103208 L 10 254.5820203103208 L 0 254.5820203103208 Z " stroke="none" fill-rule="evenodd" fill="#000000" fill-opacity="1" transform="matrix(1,0,0,1,5.05,13.314)" id="mark6 l" />
  <path d="M 0 234.95116171672646 L 10 234.95116171672646 L 10 236.45116171672646 L 0 236.45116171672646 Z " stroke="none" fill-rule="evenodd" fill="#000000" fill-opacity="1" transform="matrix(1,0,0,1,5.05,13.314)" id="mark7 l" />
  <path d="M 0 216.8203031231321 L 10 216.8203031231321 L 10 218.3203031231321 L 0 218.3203031231321 Z " stroke="none" fill-rule="evenodd" fill="#000000" fill-opacity="1" transform="matrix(1,0,0,1,5.05,13.314)" id="mark8 l" />
  <path d="M 0 198.68944452953778 L 10 198.68944452953778 L 10 200.18944452953778 L 0 200.18944452953778 Z " stroke="none" fill-rule="evenodd" fill="#000000" fill-opacity="1" transform="matrix(1,0,0,1,5.05,13.314)" id="mark9 l" />
  <path d="M 0 180.55858593594343 L 25 180.55858593594343 L 25 182.05858593594343 L 0 182.05858593594343 Z " stroke="none" fill-rule="evenodd" fill="#000000" fill-opacity="1" transform="matrix(1,0,0,1,5.05,13.314)" id="mark10 l" />
  <path d="M 14.323999999999998 179.50858593594344 L 14.323999999999998 174.06458593594346 L 13.871999999999998 174.06458593594346 L 13.839999999999998 173.68458593594343 L 14.543999999999999 173.10858593594344 L 15.424 173.10858593594344 L 15.424 179.50858593594344 Z M 16.196 178.09658593594344 C 16.188000000000002 177.6672526026101, 16.182666666666666 177.25058593594343, 16.18 176.84658593594344 C 16.177333333333333 176.44258593594344, 16.177999999999997 176.04725260261011, 16.182 175.66058593594343 C 16.186 175.27391926927677, 16.190666666666665 174.89258593594346, 16.196 174.51658593594345 C 16.209333333333333 174.07658593594346, 16.334000000000003 173.7312526026101, 16.57 173.48058593594345 C 16.805999999999997 173.2299192692768, 17.142666666666663 173.08458593594344, 17.58 173.04458593594345 L 17.58 173.93258593594345 C 17.382666666666665 173.98858593594346, 17.281333333333333 174.1179192692768, 17.276 174.32058593594346 C 17.262666666666668 174.69125260261012, 17.253333333333334 175.0392526026101, 17.248 175.36458593594344 C 17.242666666666665 175.68991926927677, 17.24 176.00658593594343, 17.24 176.31458593594346 C 17.24 176.62258593594345, 17.242666666666665 176.9372526026101, 17.248 177.25858593594344 C 17.253333333333334 177.5799192692768, 17.262666666666668 177.92325260261012, 17.276 178.28858593594344 C 17.281333333333333 178.49658593594344, 17.382666666666665 178.62858593594345, 17.58 178.68458593594343 L 17.58 179.57258593594344 C 17.142666666666663 179.53258593594344, 16.805999999999997 179.38658593594343, 16.57 179.13458593594345 C 16.334000000000003 178.88258593594344, 16.209333333333333 178.53658593594344, 16.196 178.09658593594344 Z M 18.084 179.57258593594344 L 18.084 178.68058593594344 C 18.268 178.6272526026101, 18.366666666666667 178.50325260261013, 18.38 178.30858593594346 C 18.398666666666667 177.8419192692768, 18.410666666666668 177.39325260261012, 18.416 176.96258593594345 C 18.421333333333333 176.53191926927678, 18.421333333333333 176.1012526026101, 18.416 175.67058593594345 C 18.410666666666668 175.23991926927675, 18.398666666666667 174.7872526026101, 18.38 174.31258593594345 C 18.374666666666666 174.11791926927677, 18.276 173.9912526026101, 18.084 173.93258593594345 L 18.084 173.04458593594345 C 18.513333333333335 173.08458593594344, 18.846666666666668 173.2299192692768, 19.084 173.48058593594345 C 19.321333333333335 173.7312526026101, 19.445333333333334 174.07658593594346, 19.456 174.51658593594345 C 19.46666666666667 174.8312526026101, 19.474666666666668 175.1412526026101, 19.48 175.44658593594343 C 19.485333333333333 175.75191926927675, 19.488 176.05258593594345, 19.488 176.34858593594345 C 19.488 176.64458593594344, 19.485333333333333 176.93791926927676, 19.48 177.22858593594344 C 19.474666666666668 177.51925260261012, 19.46666666666667 177.80858593594346, 19.456 178.09658593594344 C 19.439999999999998 178.54725260261011, 19.311999999999998 178.89591926927676, 19.072 179.14258593594343 C 18.832 179.3892526026101, 18.502666666666666 179.53258593594344, 18.084 179.57258593594344 Z M 21.944 179.50858593594344 L 21.944 173.10858593594344 L 23.003999999999998 173.10858593594344 L 23.003999999999998 179.50858593594344 Z " stroke="none" fill-rule="nonzero" fill="#000000" fill-opacity="1" transform="matrix(1,0,0,1,5.05,13.314)" id="text10 l" />
  <path d="M 0 162.42772734234907 L 10 162.42772734234907 L 10 163.92772734234907 L 0 163.92772734234907 Z " stroke="none" fill-rule="evenodd" fill="#000000" fill-opacity="1" transform="matrix(1,0,0,1,5.05,13.314)" id="mark11 l" />
  <path d="M 0 144.29686874875475 L 10 144.29686874875475 L 10 145.79686874875475 L 0 145.79686874875475 Z " stroke="none" fill-rule="evenodd" fill="#000000" fill-opacity="1" transform="matrix(1,0,0,1,5.05,13.314)" id="mark12 l" />
  <path d="M 0 126.1660101551604 L 10 126.1660101551604 L 10 127.6660101551604 L 0 127.6660101551604 Z " stroke="none" fill-rule="evenodd" fill="#000000" fill-opacity="1" transform="matrix(1,0,0,1,5.05,13.314)" id="mark13 l" />
  <path d="M 0 108.03515156156604 L 10 108.03515156156604 L 10 109.53515156156604 L 0 109.53515156156604 Z " stroke="none" fill-rule="evenodd" fill="#000000" fill-opacity="1" transform="matrix(1,0,0,1,5.05,13.314)" id="mark14 l" />
  <path d="M 0 89.90429296797168 L 25 89.90429296797168 L 25 91.40429296797168 L 0 91.40429296797168 Z " stroke="none" fill-rule="evenodd" fill="#000000" fill-opacity="1" transform="matrix(1,0,0,1,5.05,13.314)" id="mark15 l" />
  <path d="M 14.331999999999999 88.82229296797169 L 14.331999999999999 83.37829296797169 L 13.879999999999999 83.37829296797169 L 13.847999999999999 82.9982929679717 L 14.552 82.42229296797169 L 15.432 82.42229296797169 L 15.432 88.82229296797169 Z M 16.18 87.4062929679717 C 16.174666666666667 87.23295963463836, 16.173333333333332 87.09362630130502, 16.176 86.98829296797169 C 16.178666666666665 86.88295963463835, 16.181333333333335 86.78095963463835, 16.183999999999997 86.68229296797169 L 17.264 86.68229296797169 C 17.256 86.75962630130502, 17.25 86.85562630130502, 17.246 86.97029296797169 C 17.241999999999997 87.08495963463835, 17.240666666666666 87.19562630130503, 17.241999999999997 87.3022929679717 C 17.243333333333332 87.40895963463836, 17.246666666666666 87.48895963463836, 17.252 87.54229296797169 C 17.262666666666668 87.6622929679717, 17.297333333333334 87.7602929679717, 17.355999999999998 87.83629296797169 C 17.414666666666665 87.9122929679717, 17.497333333333334 87.9662929679717, 17.604 87.9982929679717 L 17.604 88.89029296797169 C 17.110666666666663 88.85295963463835, 16.75333333333333 88.71829296797169, 16.532 88.48629296797169 C 16.310666666666666 88.2542929679717, 16.19333333333333 87.8942929679717, 16.18 87.4062929679717 Z M 16.279999999999998 86.0702929679717 L 16.279999999999998 82.42229296797169 L 17.348 82.42229296797169 L 17.348 86.0702929679717 Z M 17.852 85.64629296797169 L 17.852 84.89029296797169 C 17.929333333333332 84.85029296797168, 18.014666666666667 84.81829296797169, 18.107999999999997 84.79429296797169 C 18.20133333333333 84.7702929679717, 18.301333333333332 84.7582929679717, 18.407999999999998 84.7582929679717 C 18.773333333333333 84.7582929679717, 19.047333333333334 84.87362630130502, 19.23 85.10429296797169 C 19.412666666666667 85.33495963463835, 19.514666666666663 85.64895963463836, 19.535999999999998 86.0462929679717 C 19.546666666666667 86.20629296797169, 19.55333333333333 86.36495963463835, 19.555999999999997 86.5222929679717 C 19.558666666666664 86.67962630130503, 19.557333333333332 86.83295963463836, 19.552 86.98229296797169 C 19.546666666666667 87.13162630130502, 19.538666666666668 87.27162630130502, 19.528 87.40229296797169 C 19.482666666666667 87.90095963463835, 19.353333333333335 88.2662929679717, 19.14 88.4982929679717 C 18.926666666666666 88.73029296797169, 18.581333333333333 88.86095963463836, 18.104 88.89029296797169 L 18.104 87.9982929679717 C 18.21333333333333 87.96895963463837, 18.296 87.9162929679717, 18.352 87.84029296797169 C 18.408 87.76429296797168, 18.44 87.66495963463835, 18.448 87.54229296797169 C 18.471999999999998 87.25162630130502, 18.485999999999997 86.9902929679717, 18.49 86.7582929679717 C 18.494 86.5262929679717, 18.485333333333333 86.30495963463835, 18.464 86.0942929679717 C 18.447999999999997 85.93962630130503, 18.396666666666665 85.8242929679717, 18.31 85.7482929679717 C 18.223333333333333 85.67229296797169, 18.090666666666664 85.63429296797169, 17.912 85.63429296797169 C 17.901333333333334 85.63429296797169, 17.890666666666668 85.63562630130502, 17.88 85.6382929679717 C 17.86933333333333 85.64095963463836, 17.86 85.64362630130502, 17.852 85.64629296797169 Z M 17.852 83.35429296797169 L 17.852 82.42229296797169 L 19.439999999999998 82.42229296797169 L 19.439999999999998 83.35429296797169 Z M 21.944 88.82229296797169 L 21.944 82.42229296797169 L 23.003999999999998 82.42229296797169 L 23.003999999999998 88.82229296797169 Z " stroke="none" fill-rule="nonzero" fill="#000000" fill-opacity="1" transform="matrix(1,0,0,1,5.05,13.314)" id="text15 l" />
  <path d="M 0 71.77343437437736 L 10 71.77343437437736 L 10 73.27343437437736 L 0 73.27343437437736 Z " stroke="none" fill-rule="evenodd" fill="#000000" fill-opacity="1" transform="matrix(1,0,0,1,5.05,13.314)" id="mark16 l" />
  <path d="M 0 53.642575780783034 L 10 53.642575780783034 L 10 55.142575780783034 L 0 55.142575780783034 Z " stroke="none" fill-rule="evenodd" fill="#000000" fill-opacity="1" transform="matrix(1,0,0,1,5.05,13.314)" id="mark17 l" />
  <path d="M 0 35.51171718718871 L 10 35.51171718718871 L 10 37.01171718718871 L 0 37.01171718718871 Z " stroke="none" fill-rule="evenodd" fill="#000000" fill-opacity="1" transform="matrix(1,0,0,1,5.05,13.314)" id="mark18 l" />
  <path d="M 0 17.380858593594326 L 10 17.380858593594326 L 10 18.880858593594326 L 0 18.880858593594326 Z " stroke="none" fill-rule="evenodd" fill="#000000" fill-opacity="1" transform="matrix(1,0,0,1,5.05,13.314)" id="mark19 l" />
  <path d="M 0 -0.75 L 25 -0.75 L 25 0.75 L 0 0.75 Z " stroke="none" fill-rule="evenodd" fill="#000000" fill-opacity="1" transform="matrix(1,0,0,1,5.05,13.314)" id="mark20 l" />
  <path d="M 12.319999999999999 -1.7999999999999998 C 12.317333333333334 -1.8986666666666663, 12.315333333333331 -1.987333333333333, 12.313999999999998 -2.066 C 12.312666666666665 -2.1446666666666663, 12.311333333333334 -2.2186666666666666, 12.309999999999999 -2.288 C 12.308666666666667 -2.357333333333333, 12.308 -2.429333333333333, 12.308 -2.5039999999999996 C 12.308 -2.5786666666666664, 12.308 -2.663333333333333, 12.308 -2.758 C 12.308 -2.852666666666667, 12.309333333333335 -2.964, 12.312 -3.0919999999999996 C 12.32 -3.3853333333333335, 12.37 -3.647333333333333, 12.462 -3.8779999999999997 C 12.554 -4.108666666666667, 12.687999999999999 -4.314666666666667, 12.863999999999999 -4.4959999999999996 C 13.04 -4.677333333333333, 13.257333333333333 -4.838666666666667, 13.515999999999998 -4.98 L 14.047999999999998 -5.268 C 14.234666666666666 -5.3693333333333335, 14.354 -5.491333333333333, 14.405999999999999 -5.634 C 14.457999999999998 -5.776666666666667, 14.488 -5.910666666666667, 14.495999999999999 -6.036 C 14.506666666666664 -6.182666666666666, 14.512666666666664 -6.339333333333333, 14.514 -6.506 C 14.51533333333333 -6.672666666666667, 14.511999999999997 -6.829333333333334, 14.504 -6.976 C 14.498666666666665 -7.08, 14.468666666666666 -7.165999999999999, 14.413999999999998 -7.233999999999999 C 14.359333333333332 -7.302, 14.279999999999998 -7.350666666666666, 14.175999999999998 -7.38 L 14.175999999999998 -8.268 C 14.663999999999998 -8.236, 15.014 -8.104666666666667, 15.225999999999999 -7.874 C 15.437999999999999 -7.643333333333333, 15.554666666666666 -7.282666666666666, 15.575999999999999 -6.792 C 15.578666666666663 -6.728, 15.580666666666666 -6.6626666666666665, 15.581999999999999 -6.595999999999999 C 15.583333333333332 -6.529333333333334, 15.584 -6.464666666666666, 15.584 -6.402 C 15.584 -6.339333333333332, 15.583333333333332 -6.277333333333333, 15.581999999999999 -6.216 C 15.580666666666666 -6.1546666666666665, 15.578666666666663 -6.094666666666667, 15.575999999999999 -6.036 C 15.565333333333331 -5.750666666666667, 15.512 -5.504, 15.415999999999999 -5.295999999999999 C 15.32 -5.088, 15.19 -4.908, 15.026 -4.756 C 14.862 -4.604, 14.672 -4.468, 14.456 -4.348 L 13.851999999999999 -4.02 C 13.737333333333332 -3.9586666666666663, 13.647333333333332 -3.8746666666666663, 13.581999999999999 -3.768 C 13.516666666666666 -3.6613333333333333, 13.469999999999999 -3.548, 13.441999999999998 -3.428 C 13.413999999999998 -3.308, 13.399999999999999 -3.1959999999999997, 13.399999999999999 -3.0919999999999996 L 13.399999999999999 -1.7999999999999998 Z M 12.328 -5.84 C 12.322666666666667 -5.957333333333333, 12.318666666666665 -6.071999999999999, 12.315999999999999 -6.184 C 12.313333333333333 -6.295999999999999, 12.311333333333334 -6.401999999999999, 12.309999999999999 -6.502 C 12.308666666666667 -6.602, 12.309333333333335 -6.698666666666666, 12.312 -6.792 C 12.330666666666666 -7.279999999999999, 12.447333333333333 -7.639333333333333, 12.661999999999999 -7.87 C 12.876666666666665 -8.100666666666667, 13.213333333333331 -8.233333333333334, 13.671999999999999 -8.268 L 13.671999999999999 -7.3759999999999994 C 13.576 -7.346666666666666, 13.505333333333333 -7.3, 13.459999999999999 -7.236 C 13.414666666666665 -7.172, 13.390666666666664 -7.094666666666667, 13.387999999999998 -7.004 C 13.382666666666665 -6.795999999999999, 13.379333333333333 -6.602666666666666, 13.378 -6.424 C 13.376666666666667 -6.245333333333333, 13.381333333333334 -6.050666666666666, 13.392 -5.84 Z M 13.904 -1.7999999999999998 L 13.904 -2.7319999999999998 L 15.5 -2.7319999999999998 L 15.5 -1.7999999999999998 Z M 16.196 -3.2119999999999997 C 16.188000000000002 -3.641333333333333, 16.182666666666666 -4.058, 16.18 -4.462 C 16.177333333333333 -4.866, 16.177999999999997 -5.261333333333333, 16.182 -5.648 C 16.186 -6.034666666666666, 16.190666666666665 -6.416, 16.196 -6.792 C 16.209333333333333 -7.231999999999999, 16.334000000000003 -7.577333333333334, 16.57 -7.828 C 16.805999999999997 -8.078666666666667, 17.142666666666663 -8.224, 17.58 -8.264 L 17.58 -7.3759999999999994 C 17.382666666666665 -7.32, 17.281333333333333 -7.190666666666667, 17.276 -6.9879999999999995 C 17.262666666666668 -6.617333333333333, 17.253333333333334 -6.269333333333333, 17.248 -5.944 C 17.242666666666665 -5.618666666666666, 17.24 -5.302, 17.24 -4.994 C 17.24 -4.686, 17.242666666666665 -4.371333333333333, 17.248 -4.05 C 17.253333333333334 -3.7286666666666664, 17.262666666666668 -3.3853333333333326, 17.276 -3.0199999999999996 C 17.281333333333333 -2.812, 17.382666666666665 -2.6799999999999997, 17.58 -2.6239999999999997 L 17.58 -1.7359999999999998 C 17.142666666666663 -1.7759999999999998, 16.805999999999997 -1.9219999999999997, 16.57 -2.174 C 16.334000000000003 -2.4259999999999997, 16.209333333333333 -2.772, 16.196 -3.2119999999999997 Z M 18.084 -1.7359999999999998 L 18.084 -2.6279999999999997 C 18.268 -2.681333333333333, 18.366666666666667 -2.8053333333333335, 18.38 -3 C 18.398666666666667 -3.4666666666666663, 18.410666666666668 -3.915333333333333, 18.416 -4.346 C 18.421333333333333 -4.776666666666666, 18.421333333333333 -5.207333333333333, 18.416 -5.638 C 18.410666666666668 -6.068666666666666, 18.398666666666667 -6.521333333333333, 18.38 -6.9959999999999996 C 18.374666666666666 -7.190666666666667, 18.276 -7.317333333333334, 18.084 -7.3759999999999994 L 18.084 -8.264 C 18.513333333333335 -8.224, 18.846666666666668 -8.078666666666667, 19.084 -7.828 C 19.321333333333335 -7.577333333333334, 19.445333333333334 -7.231999999999999, 19.456 -6.792 C 19.46666666666667 -6.477333333333332, 19.474666666666668 -6.167333333333333, 19.48 -5.861999999999999 C 19.485333333333333 -5.556666666666667, 19.488 -5.256, 19.488 -4.96 C 19.488 -4.664, 19.485333333333333 -4.370666666666667, 19.48 -4.08 C 19.474666666666668 -3.7893333333333334, 19.46666666666667 -3.5, 19.456 -3.2119999999999997 C 19.439999999999998 -2.761333333333333, 19.311999999999998 -2.4126666666666665, 19.072 -2.166 C 18.832 -1.9193333333333331, 18.502666666666666 -1.7759999999999998, 18.084 -1.7359999999999998 Z M 21.944 -1.7999999999999998 L 21.944 -8.2 L 23.003999999999998 -8.2 L 23.003999999999998 -1.7999999999999998 Z " stroke="none" fill-rule="nonzero" fill="#000000" fill-opacity="1" transform="matrix(1,0,0,1,5.05,13.314)" id="text20 l" />
  <path d="M -5 -13.264 L 30 -13.264 L 30 351.2543132782925 L -5 351.2543132782925 Z " stroke="#FF0000" stroke-opacity="1" stroke-width="0.1" stroke-linecap="butt" stroke-linejoin="miter" fill="none" transform="matrix(1,0,0,1,5.05,13.314)" />
</svg>