<?xml version="1.0" encoding="UTF-8"?>
<svg xmlns:xlink="http://www.w3.org/1999/xlink" viewBox="0 0 35.1 529.427817894065" version="1.1" style="font-synthesis: none;" width="35.1mm" height="529.427817894065mm" xmlns="http://www.w3.org/2000/svg">
  <defs />
  <style>	</style>
  <path d="M 0 0 L 35.1 0 L 35.1 529.427817894065 L 0 529.427817894065 Z " stroke="none" fill-rule="nonzero" fill="#FFFFFF" fill-opacity="1" transform="matrix(1,0,0,1,0,0)" />
  <path d="M 0 508.54581789406507 L 10 508.54581789406507 L 10 510.04581789406507 L 0 510.04581789406507 Z " stroke="none" fill-rule="evenodd" fill="#000000" fill-opacity="1" transform="matrix(1,0,0,1,5.05,13.314)" id="mark1 l" />
  <path d="M 0 498.1520256921454 L 10 498.1520256921454 L 10 499.6520256921454 L 0 499.6520256921454 Z " stroke="none" fill-rule="evenodd" fill="#000000" fill-opacity="1" transform="matrix(1,0,0,1,5.05,13.314)" id="mark2 l" />
  <path d="M 0 487.7582334902257 L 10 487.7582334902257 L 10 489.2582334902257 L 0 489.2582334902257 Z " stroke="none" fill-rule="evenodd" fill="#000000" fill-opacity="1" transform="matrix(1,0,0,1,5.05,13.314)" id="mark3 l" />
  <path d="M 0 477.364441288306 L 10 477.364441288306 L 10 478.864441288306 L 0 478.864441288306 Z " stroke="none" fill-rule="evenodd" fill="#000000" fill-opacity="1" transform="matrix(1,0,0,1,5.05,13.314)" id="mark4 l" />
  <path d="M 0 466.9706490863863 L 25 466.9706490863863 L 25 468.4706490863863 L 0 468.4706490863863 Z " stroke="none" fill-rule="evenodd" fill="#000000" fill-opacity="1" transform="matrix(1,0,0,1,5.05,13.314)" id="mark5 l" />
  <path d="M 16.18 464.4726490863863 C 16.174666666666667 464.29931575305295, 16.173333333333332 464.15998241971965, 16.176 464.0546490863863 C 16.178666666666665 463.94931575305293, 16.181333333333335 463.84731575305295, 16.183999999999997 463.7486490863863 L 17.264 463.7486490863863 C 17.256 463.82598241971965, 17.25 463.92198241971965, 17.246 464.0366490863863 C 17.241999999999997 464.151315753053, 17.240666666666666 464.26198241971963, 17.241999999999997 464.3686490863863 C 17.243333333333332 464.475315753053, 17.246666666666666 464.5553157530529, 17.252 464.6086490863863 C 17.262666666666668 464.7286490863863, 17.297333333333334 464.8266490863863, 17.355999999999998 464.9026490863863 C 17.414666666666665 464.9786490863863, 17.497333333333334 465.0326490863863, 17.604 465.0646490863863 L 17.604 465.9566490863863 C 17.110666666666663 465.91931575305296, 16.75333333333333 465.78464908638625, 16.532 465.5526490863863 C 16.310666666666666 465.3206490863863, 16.19333333333333 464.9606490863863, 16.18 464.4726490863863 Z M 16.279999999999998 463.1366490863863 L 16.279999999999998 459.4886490863863 L 17.348 459.4886490863863 L 17.348 463.1366490863863 Z M 17.852 462.7126490863863 L 17.852 461.9566490863863 C 17.929333333333332 461.9166490863863, 18.014666666666667 461.8846490863863, 18.107999999999997 461.8606490863863 C 18.20133333333333 461.8366490863863, 18.301333333333332 461.82464908638633, 18.407999999999998 461.8246490863863 C 18.773333333333333 461.82464908638633, 19.047333333333334 461.9399824197196, 19.23 462.1706490863863 C 19.412666666666667 462.4013157530529, 19.514666666666663 462.7153157530529, 19.535999999999998 463.1126490863863 C 19.546666666666667 463.2726490863863, 19.55333333333333 463.43131575305296, 19.555999999999997 463.5886490863863 C 19.558666666666664 463.7459824197196, 19.557333333333332 463.899315753053, 19.552 464.0486490863863 C 19.546666666666667 464.19798241971966, 19.538666666666668 464.33798241971965, 19.528 464.4686490863863 C 19.482666666666667 464.96731575305296, 19.353333333333335 465.33264908638625, 19.14 465.5646490863863 C 18.926666666666666 465.7966490863863, 18.581333333333333 465.92731575305294, 18.104 465.9566490863863 L 18.104 465.0646490863863 C 18.21333333333333 465.03531575305294, 18.296 464.98264908638635, 18.352 464.90664908638627 C 18.408 464.8306490863863, 18.44 464.73131575305297, 18.448 464.6086490863863 C 18.471999999999998 464.31798241971967, 18.485999999999997 464.0566490863863, 18.49 463.8246490863863 C 18.494 463.5926490863863, 18.485333333333333 463.37131575305295, 18.464 463.1606490863863 C 18.447999999999997 463.00598241971966, 18.396666666666665 462.89064908638625, 18.31 462.8146490863863 C 18.223333333333333 462.7386490863863, 18.090666666666664 462.7006490863863, 17.912 462.7006490863863 C 17.901333333333334 462.7006490863863, 17.890666666666668 462.7019824197196, 17.88 462.70464908638627 C 17.86933333333333 462.70731575305297, 17.86 462.7099824197196, 17.852 462.7126490863863 Z M 17.852 460.4206490863863 L 17.852 459.4886490863863 L 19.439999999999998 459.4886490863863 L 19.439999999999998 460.4206490863863 Z M 21.944 465.8886490863863 L 21.944 459.4886490863863 L 23.003999999999998 459.4886490863863 L 23.003999999999998 465.8886490863863 Z " stroke="none" fill-rule="nonzero" fill="#000000" fill-opacity="1" transform="matrix(1,0,0,1,5.05,13.314)" id="text5 l" />
  <path d="M 0 456.5768568844666 L 10 456.5768568844666 L 10 458.0768568844666 L 0 458.0768568844666 Z " stroke="none" fill-rule="evenodd" fill="#000000" fill-opacity="1" transform="matrix(1,0,0,1,5.05,13.314)" id="mark6 l" />
  <path d="M 0 446.1830646825469 L 10 446.1830646825469 L 10 447.6830646825469 L 0 447.6830646825469 Z " stroke="none" fill-rule="evenodd" fill="#000000" fill-opacity="1" transform="matrix(1,0,0,1,5.05,13.314)" id="mark7 l" />
  <path d="M 0 435.78927248062723 L 10 435.78927248062723 L 10 437.28927248062723 L 0 437.28927248062723 Z " stroke="none" fill-rule="evenodd" fill="#000000" fill-opacity="1" transform="matrix(1,0,0,1,5.05,13.314)" id="mark8 l" />
  <path d="M 0 425.3954802787075 L 10 425.3954802787075 L 10 426.8954802787075 L 0 426.8954802787075 Z " stroke="none" fill-rule="evenodd" fill="#000000" fill-opacity="1" transform="matrix(1,0,0,1,5.05,13.314)" id="mark9 l" />
  <path d="M 0 415.00168807678784 L 25 415.00168807678784 L 25 416.50168807678784 L 0 416.50168807678784 Z " stroke="none" fill-rule="evenodd" fill="#000000" fill-opacity="1" transform="matrix(1,0,0,1,5.05,13.314)" id="mark10 l" />
  <path d="M 14.323999999999998 413.95168807678783 L 14.323999999999998 408.5076880767878 L 13.871999999999998 408.5076880767878 L 13.839999999999998 408.1276880767878 L 14.543999999999999 407.55168807678785 L 15.424 407.55168807678785 L 15.424 413.95168807678783 Z M 16.196 412.53968807678785 C 16.188000000000002 412.11035474345454, 16.182666666666666 411.6936880767878, 16.18 411.28968807678785 C 16.177333333333333 410.8856880767878, 16.177999999999997 410.49035474345453, 16.182 410.1036880767878 C 16.186 409.7170214101212, 16.190666666666665 409.33568807678785, 16.196 408.9596880767878 C 16.209333333333333 408.5196880767878, 16.334000000000003 408.1743547434545, 16.57 407.9236880767878 C 16.805999999999997 407.6730214101211, 17.142666666666663 407.52768807678785, 17.58 407.48768807678783 L 17.58 408.3756880767878 C 17.382666666666665 408.43168807678785, 17.281333333333333 408.56102141012116, 17.276 408.76368807678784 C 17.262666666666668 409.13435474345454, 17.253333333333334 409.4823547434545, 17.248 409.8076880767878 C 17.242666666666665 410.13302141012116, 17.24 410.4496880767878, 17.24 410.7576880767878 C 17.24 411.0656880767878, 17.242666666666665 411.3803547434545, 17.248 411.70168807678783 C 17.253333333333334 412.02302141012115, 17.262666666666668 412.3663547434545, 17.276 412.7316880767878 C 17.281333333333333 412.9396880767878, 17.382666666666665 413.07168807678784, 17.58 413.1276880767878 L 17.58 414.01568807678785 C 17.142666666666663 413.97568807678783, 16.805999999999997 413.8296880767878, 16.57 413.5776880767878 C 16.334000000000003 413.3256880767878, 16.209333333333333 412.97968807678785, 16.196 412.53968807678785 Z M 18.084 414.01568807678785 L 18.084 413.12368807678786 C 18.268 413.07035474345446, 18.366666666666667 412.9463547434545, 18.38 412.75168807678784 C 18.398666666666667 412.2850214101212, 18.410666666666668 411.83635474345454, 18.416 411.40568807678784 C 18.421333333333333 410.97502141012114, 18.421333333333333 410.5443547434545, 18.416 410.1136880767878 C 18.410666666666668 409.6830214101212, 18.398666666666667 409.23035474345454, 18.38 408.7556880767878 C 18.374666666666666 408.56102141012116, 18.276 408.4343547434545, 18.084 408.3756880767878 L 18.084 407.48768807678783 C 18.513333333333335 407.52768807678785, 18.846666666666668 407.6730214101211, 19.084 407.9236880767878 C 19.321333333333335 408.1743547434545, 19.445333333333334 408.5196880767878, 19.456 408.9596880767878 C 19.46666666666667 409.2743547434545, 19.474666666666668 409.5843547434545, 19.48 409.8896880767878 C 19.485333333333333 410.19502141012117, 19.488 410.4956880767878, 19.488 410.7916880767878 C 19.488 411.0876880767878, 19.485333333333333 411.3810214101212, 19.48 411.67168807678786 C 19.474666666666668 411.9623547434545, 19.46666666666667 412.2516880767879, 19.456 412.53968807678785 C 19.439999999999998 412.99035474345453, 19.311999999999998 413.3390214101212, 19.072 413.58568807678785 C 18.832 413.8323547434545, 18.502666666666666 413.97568807678783, 18.084 414.01568807678785 Z M 21.944 413.95168807678783 L 21.944 407.55168807678785 L 23.003999999999998 407.55168807678785 L 23.003999999999998 413.95168807678783 Z " stroke="none" fill-rule="nonzero" fill="#000000" fill-opacity="1" transform="matrix(1,0,0,1,5.05,13.314)" id="text10 l" />
  <path d="M 0 404.6078958748681 L 10 404.6078958748681 L 10 406.1078958748681 L 0 406.1078958748681 Z " stroke="none" fill-rule="evenodd" fill="#000000" fill-opacity="1" transform="matrix(1,0,0,1,5.05,13.314)" id="mark11 l" />
  <path d="M 0 394.21410367294845 L 10 394.21410367294845 L 10 395.71410367294845 L 0 395.71410367294845 Z " stroke="none" fill-rule="evenodd" fill="#000000" fill-opacity="1" transform="matrix(1,0,0,1,5.05,13.314)" id="mark12 l" />
  <path d="M 0 383.82031147102873 L 10 383.82031147102873 L 10 385.32031147102873 L 0 385.32031147102873 Z " stroke="none" fill-rule="evenodd" fill="#000000" fill-opacity="1" transform="matrix(1,0,0,1,5.05,13.314)" id="mark13 l" />
  <path d="M 0 373.426519269109 L 10 373.426519269109 L 10 374.926519269109 L 0 374.926519269109 Z " stroke="none" fill-rule="evenodd" fill="#000000" fill-opacity="1" transform="matrix(1,0,0,1,5.05,13.314)" id="mark14 l" />
  <path d="M 0 363.03272706718934 L 25 363.03272706718934 L 25 364.53272706718934 L 0 364.53272706718934 Z " stroke="none" fill-rule="evenodd" fill="#000000" fill-opacity="1" transform="matrix(1,0,0,1,5.05,13.314)" id="mark15 l" />
  <path d="M 14.331999999999999 361.95072706718935 L 14.331999999999999 356.50672706718933 L 13.879999999999999 356.50672706718933 L 13.847999999999999 356.12672706718934 L 14.552 355.55072706718937 L 15.432 355.55072706718937 L 15.432 361.95072706718935 Z M 16.18 360.53472706718935 C 16.174666666666667 360.361393733856, 16.173333333333332 360.2220604005227, 16.176 360.11672706718934 C 16.178666666666665 360.011393733856, 16.181333333333335 359.909393733856, 16.183999999999997 359.81072706718936 L 17.264 359.81072706718936 C 17.256 359.8880604005227, 17.25 359.9840604005227, 17.246 360.0987270671894 C 17.241999999999997 360.21339373385604, 17.240666666666666 360.3240604005227, 17.241999999999997 360.43072706718937 C 17.243333333333332 360.537393733856, 17.246666666666666 360.61739373385603, 17.252 360.6707270671894 C 17.262666666666668 360.7907270671893, 17.297333333333334 360.88872706718934, 17.355999999999998 360.96472706718936 C 17.414666666666665 361.0407270671893, 17.497333333333334 361.0947270671893, 17.604 361.12672706718934 L 17.604 362.01872706718933 C 17.110666666666663 361.981393733856, 16.75333333333333 361.84672706718936, 16.532 361.61472706718934 C 16.310666666666666 361.3827270671893, 16.19333333333333 361.02272706718935, 16.18 360.53472706718935 Z M 16.279999999999998 359.19872706718934 L 16.279999999999998 355.55072706718937 L 17.348 355.55072706718937 L 17.348 359.19872706718934 Z M 17.852 358.77472706718936 L 17.852 358.01872706718933 C 17.929333333333332 357.9787270671893, 18.014666666666667 357.94672706718933, 18.107999999999997 357.9227270671893 C 18.20133333333333 357.8987270671893, 18.301333333333332 357.8867270671893, 18.407999999999998 357.8867270671893 C 18.773333333333333 357.8867270671893, 19.047333333333334 358.0020604005227, 19.23 358.23272706718933 C 19.412666666666667 358.463393733856, 19.514666666666663 358.777393733856, 19.535999999999998 359.17472706718934 C 19.546666666666667 359.3347270671893, 19.55333333333333 359.493393733856, 19.555999999999997 359.65072706718934 C 19.558666666666664 359.80806040052266, 19.557333333333332 359.96139373385597, 19.552 360.1107270671894 C 19.546666666666667 360.26006040052266, 19.538666666666668 360.40006040052265, 19.528 360.53072706718933 C 19.482666666666667 361.02939373385595, 19.353333333333335 361.3947270671893, 19.14 361.62672706718934 C 18.926666666666666 361.85872706718936, 18.581333333333333 361.989393733856, 18.104 362.01872706718933 L 18.104 361.12672706718934 C 18.21333333333333 361.09739373385605, 18.296 361.04472706718934, 18.352 360.9687270671893 C 18.408 360.89272706718936, 18.44 360.793393733856, 18.448 360.6707270671894 C 18.471999999999998 360.38006040052267, 18.485999999999997 360.11872706718935, 18.49 359.8867270671893 C 18.494 359.65472706718936, 18.485333333333333 359.433393733856, 18.464 359.22272706718934 C 18.447999999999997 359.0680604005227, 18.396666666666665 358.95272706718936, 18.31 358.87672706718934 C 18.223333333333333 358.8007270671893, 18.090666666666664 358.76272706718936, 17.912 358.76272706718936 C 17.901333333333334 358.76272706718936, 17.890666666666668 358.7640604005227, 17.88 358.7667270671893 C 17.86933333333333 358.769393733856, 17.86 358.7720604005227, 17.852 358.77472706718936 Z M 17.852 356.48272706718933 L 17.852 355.55072706718937 L 19.439999999999998 355.55072706718937 L 19.439999999999998 356.48272706718933 Z M 21.944 361.95072706718935 L 21.944 355.55072706718937 L 23.003999999999998 355.55072706718937 L 23.003999999999998 361.95072706718935 Z " stroke="none" fill-rule="nonzero" fill="#000000" fill-opacity="1" transform="matrix(1,0,0,1,5.05,13.314)" id="text15 l" />
  <path d="M 0 352.6389348652697 L 10 352.6389348652697 L 10 354.1389348652697 L 0 354.1389348652697 Z " stroke="none" fill-rule="evenodd" fill="#000000" fill-opacity="1" transform="matrix(1,0,0,1,5.05,13.314)" id="mark16 l" />
  <path d="M 0 342.24514266334995 L 10 342.24514266334995 L 10 343.74514266334995 L 0 343.74514266334995 Z " stroke="none" fill-rule="evenodd" fill="#000000" fill-opacity="1" transform="matrix(1,0,0,1,5.05,13.314)" id="mark17 l" />
  <path d="M 0 331.85135046143023 L 10 331.85135046143023 L 10 333.35135046143023 L 0 333.35135046143023 Z " stroke="none" fill-rule="evenodd" fill="#000000" fill-opacity="1" transform="matrix(1,0,0,1,5.05,13.314)" id="mark18 l" />
  <path d="M 0 321.45755825951056 L 10 321.45755825951056 L 10 322.95755825951056 L 0 322.95755825951056 Z " stroke="none" fill-rule="evenodd" fill="#000000" fill-opacity="1" transform="matrix(1,0,0,1,5.05,13.314)" id="mark19 l" />
  <path d="M 0 311.0637660575909 L 25 311.0637660575909 L 25 312.5637660575909 L 0 312.5637660575909 Z " stroke="none" fill-rule="evenodd" fill="#000000" fill-opacity="1" transform="matrix(1,0,0,1,5.05,13.314)" id="mark20 l" />
  <path d="M 12.319999999999999 310.0137660575909 C 12.317333333333334 309.9150993909242, 12.315333333333331 309.82643272425753, 12.313999999999998 309.74776605759087 C 12.312666666666665 309.6690993909242, 12.311333333333334 309.5950993909242, 12.309999999999999 309.5257660575909 C 12.308666666666667 309.4564327242576, 12.308 309.3844327242576, 12.308 309.3097660575909 C 12.308 309.23509939092423, 12.308 309.1504327242576, 12.308 309.05576605759086 C 12.308 308.96109939092423, 12.309333333333335 308.8497660575909, 12.312 308.7217660575909 C 12.32 308.42843272425756, 12.37 308.16643272425756, 12.462 307.9357660575909 C 12.554 307.70509939092426, 12.687999999999999 307.49909939092424, 12.863999999999999 307.31776605759086 C 13.04 307.13643272425753, 13.257333333333333 306.9750993909242, 13.515999999999998 306.8337660575909 L 14.047999999999998 306.54576605759087 C 14.234666666666666 306.4444327242575, 14.354 306.3224327242575, 14.405999999999999 306.1797660575909 C 14.457999999999998 306.03709939092425, 14.488 305.90309939092424, 14.495999999999999 305.7777660575909 C 14.506666666666664 305.6310993909242, 14.512666666666664 305.47443272425755, 14.514 305.30776605759087 C 14.51533333333333 305.1410993909242, 14.511999999999997 304.98443272425754, 14.504 304.8377660575909 C 14.498666666666665 304.7337660575909, 14.468666666666666 304.6477660575909, 14.413999999999998 304.57976605759086 C 14.359333333333332 304.5117660575909, 14.279999999999998 304.4630993909242, 14.175999999999998 304.4337660575909 L 14.175999999999998 303.54576605759087 C 14.663999999999998 303.57776605759085, 15.014 303.70909939092417, 15.225999999999999 303.9397660575909 C 15.437999999999999 304.1704327242576, 15.554666666666666 304.5310993909242, 15.575999999999999 305.02176605759087 C 15.578666666666663 305.0857660575909, 15.580666666666666 305.15109939092423, 15.581999999999999 305.2177660575909 C 15.583333333333332 305.28443272425756, 15.584 305.3490993909242, 15.584 305.4117660575909 C 15.584 305.47443272425755, 15.583333333333332 305.53643272425757, 15.581999999999999 305.5977660575909 C 15.580666666666666 305.6590993909242, 15.578666666666663 305.7190993909242, 15.575999999999999 305.7777660575909 C 15.565333333333331 306.0630993909242, 15.512 306.3097660575909, 15.415999999999999 306.5177660575909 C 15.32 306.7257660575909, 15.19 306.9057660575909, 15.026 307.05776605759087 C 14.862 307.20976605759085, 14.672 307.3457660575909, 14.456 307.4657660575909 L 13.851999999999999 307.79376605759086 C 13.737333333333332 307.85509939092424, 13.647333333333332 307.93909939092424, 13.581999999999999 308.04576605759087 C 13.516666666666666 308.15243272425755, 13.469999999999999 308.2657660575909, 13.441999999999998 308.3857660575909 C 13.413999999999998 308.5057660575909, 13.399999999999999 308.6177660575909, 13.399999999999999 308.7217660575909 L 13.399999999999999 310.0137660575909 Z M 12.328 305.97376605759086 C 12.322666666666667 305.8564327242575, 12.318666666666665 305.7417660575909, 12.315999999999999 305.62976605759087 C 12.313333333333333 305.51776605759085, 12.311333333333334 305.41176605759085, 12.309999999999999 305.3117660575909 C 12.308666666666667 305.2117660575909, 12.309333333333335 305.11509939092423, 12.312 305.02176605759087 C 12.330666666666666 304.53376605759087, 12.447333333333333 304.17443272425754, 12.661999999999999 303.9437660575909 C 12.876666666666665 303.71309939092424, 13.213333333333331 303.58043272425755, 13.671999999999999 303.54576605759087 L 13.671999999999999 304.43776605759086 C 13.576 304.4670993909242, 13.505333333333333 304.51376605759094, 13.459999999999999 304.5777660575909 C 13.414666666666665 304.64176605759087, 13.390666666666664 304.7190993909242, 13.387999999999998 304.8097660575909 C 13.382666666666665 305.0177660575909, 13.379333333333333 305.21109939092423, 13.378 305.38976605759086 C 13.376666666666667 305.56843272425755, 13.381333333333334 305.76309939092425, 13.392 305.97376605759086 Z M 13.904 310.0137660575909 L 13.904 309.08176605759087 L 15.5 309.08176605759087 L 15.5 310.0137660575909 Z M 16.196 308.6017660575909 C 16.188000000000002 308.1724327242576, 16.182666666666666 307.7557660575909, 16.18 307.3517660575909 C 16.177333333333333 306.9477660575909, 16.177999999999997 306.5524327242576, 16.182 306.1657660575909 C 16.186 305.7790993909242, 16.190666666666665 305.3977660575909, 16.196 305.02176605759087 C 16.209333333333333 304.58176605759087, 16.334000000000003 304.23643272425755, 16.57 303.98576605759087 C 16.805999999999997 303.73509939092423, 17.142666666666663 303.58976605759085, 17.58 303.5497660575909 L 17.58 304.43776605759086 C 17.382666666666665 304.49376605759085, 17.281333333333333 304.6230993909242, 17.276 304.8257660575909 C 17.262666666666668 305.19643272425753, 17.253333333333334 305.54443272425755, 17.248 305.8697660575909 C 17.242666666666665 306.1950993909242, 17.24 306.5117660575909, 17.24 306.81976605759087 C 17.24 307.12776605759086, 17.242666666666665 307.4424327242575, 17.248 307.7637660575909 C 17.253333333333334 308.08509939092426, 17.262666666666668 308.42843272425756, 17.276 308.79376605759086 C 17.281333333333333 309.0017660575909, 17.382666666666665 309.13376605759083, 17.58 309.1897660575909 L 17.58 310.0777660575909 C 17.142666666666663 310.0377660575909, 16.805999999999997 309.89176605759087, 16.57 309.63976605759086 C 16.334000000000003 309.38776605759085, 16.209333333333333 309.0417660575909, 16.196 308.6017660575909 Z M 18.084 310.0777660575909 L 18.084 309.1857660575909 C 18.268 309.13243272425757, 18.366666666666667 309.00843272425755, 18.38 308.8137660575909 C 18.398666666666667 308.34709939092426, 18.410666666666668 307.8984327242576, 18.416 307.4677660575909 C 18.421333333333333 307.0370993909242, 18.421333333333333 306.60643272425756, 18.416 306.17576605759086 C 18.410666666666668 305.7450993909242, 18.398666666666667 305.29243272425754, 18.38 304.81776605759086 C 18.374666666666666 304.6230993909242, 18.276 304.49643272425755, 18.084 304.43776605759086 L 18.084 303.5497660575909 C 18.513333333333335 303.58976605759085, 18.846666666666668 303.73509939092423, 19.084 303.98576605759087 C 19.321333333333335 304.23643272425755, 19.445333333333334 304.58176605759087, 19.456 305.02176605759087 C 19.46666666666667 305.3364327242576, 19.474666666666668 305.6464327242576, 19.48 305.9517660575909 C 19.485333333333333 306.2570993909242, 19.488 306.55776605759087, 19.488 306.85376605759086 C 19.488 307.14976605759085, 19.485333333333333 307.4430993909242, 19.48 307.7337660575909 C 19.474666666666668 308.02443272425757, 19.46666666666667 308.3137660575909, 19.456 308.6017660575909 C 19.439999999999998 309.0524327242576, 19.311999999999998 309.40109939092423, 19.072 309.6477660575909 C 18.832 309.89443272425757, 18.502666666666666 310.0377660575909, 18.084 310.0777660575909 Z M 21.944 310.0137660575909 L 21.944 303.6137660575909 L 23.003999999999998 303.6137660575909 L 23.003999999999998 310.0137660575909 Z " stroke="none" fill-rule="nonzero" fill="#000000" fill-opacity="1" transform="matrix(1,0,0,1,5.05,13.314)" id="text20 l" />
  <path d="M 0 300.6699738556712 L 10 300.6699738556712 L 10 302.1699738556712 L 0 302.1699738556712 Z " stroke="none" fill-rule="evenodd" fill="#000000" fill-opacity="1" transform="matrix(1,0,0,1,5.05,13.314)" id="mark21 l" />
  <path d="M 0 290.27618165375145 L 10 290.27618165375145 L 10 291.77618165375145 L 0 291.77618165375145 Z " stroke="none" fill-rule="evenodd" fill="#000000" fill-opacity="1" transform="matrix(1,0,0,1,5.05,13.314)" id="mark22 l" />
  <path d="M 0 279.8823894518318 L 10 279.8823894518318 L 10 281.3823894518318 L 0 281.3823894518318 Z " stroke="none" fill-rule="evenodd" fill="#000000" fill-opacity="1" transform="matrix(1,0,0,1,5.05,13.314)" id="mark23 l" />
  <path d="M 0 269.4885972499121 L 10 269.4885972499121 L 10 270.9885972499121 L 0 270.9885972499121 Z " stroke="none" fill-rule="evenodd" fill="#000000" fill-opacity="1" transform="matrix(1,0,0,1,5.05,13.314)" id="mark24 l" />
  <path d="M 0 259.0948050479924 L 25 259.0948050479924 L 25 260.5948050479924 L 0 260.5948050479924 Z " stroke="none" fill-rule="evenodd" fill="#000000" fill-opacity="1" transform="matrix(1,0,0,1,5.05,13.314)" id="mark25 l" />
  <path d="M 12.328 258.0448050479924 C 12.325333333333333 257.9461383813257, 12.323333333333332 257.857471714659, 12.322 257.77880504799236 C 12.320666666666666 257.7001383813257, 12.319333333333333 257.6261383813257, 12.318 257.5568050479924 C 12.316666666666666 257.4874717146591, 12.315999999999999 257.4154717146591, 12.316 257.3408050479924 C 12.315999999999999 257.26613838132573, 12.315999999999999 257.1814717146591, 12.316 257.08680504799236 C 12.315999999999999 256.99213838132573, 12.317333333333334 256.8808050479924, 12.32 256.7528050479924 C 12.328 256.45947171465906, 12.378 256.19747171465906, 12.47 255.96680504799238 C 12.562000000000001 255.7361383813257, 12.696 255.5301383813257, 12.872 255.34880504799239 C 13.048 255.16747171465906, 13.265333333333334 255.00613838132574, 13.524000000000001 254.86480504799238 L 14.056000000000001 254.5768050479924 C 14.242666666666668 254.47547171465902, 14.362000000000002 254.35347171465904, 14.414 254.21080504799238 C 14.466000000000001 254.06813838132572, 14.495999999999999 253.93413838132574, 14.504 253.8088050479924 C 14.514666666666667 253.66213838132575, 14.520666666666667 253.50547171465905, 14.522 253.3388050479924 C 14.523333333333333 253.17213838132574, 14.520000000000001 253.01547171465904, 14.512 252.8688050479924 C 14.506666666666666 252.7648050479924, 14.476666666666667 252.6788050479924, 14.422 252.6108050479924 C 14.367333333333335 252.54280504799237, 14.288 252.49413838132568, 14.184000000000001 252.46480504799237 L 14.184000000000001 251.5768050479924 C 14.672 251.6088050479924, 15.022000000000002 251.74013838132572, 15.234 251.97080504799237 C 15.446000000000002 252.20147171465905, 15.562666666666667 252.56213838132572, 15.584 253.0528050479924 C 15.586666666666668 253.1168050479924, 15.588666666666668 253.18213838132573, 15.59 253.2488050479924 C 15.591333333333335 253.31547171465905, 15.592000000000002 253.3801383813257, 15.592 253.44280504799238 C 15.592000000000002 253.50547171465905, 15.591333333333335 253.56747171465906, 15.59 253.6288050479924 C 15.588666666666668 253.6901383813257, 15.586666666666668 253.7501383813257, 15.584 253.8088050479924 C 15.573333333333332 254.0941383813257, 15.52 254.34080504799238, 15.424 254.54880504799237 C 15.328 254.75680504799237, 15.197999999999999 254.93680504799238, 15.033999999999999 255.0888050479924 C 14.87 255.2408050479924, 14.68 255.37680504799238, 14.464 255.49680504799238 L 13.86 255.82480504799238 C 13.745333333333335 255.88613838132574, 13.655333333333335 255.97013838132574, 13.59 256.07680504799237 C 13.524666666666668 256.18347171465905, 13.478000000000002 256.2968050479924, 13.45 256.4168050479924 C 13.422 256.5368050479924, 13.408 256.6488050479924, 13.408 256.7528050479924 L 13.408 258.0448050479924 Z M 12.336 254.0048050479924 C 12.330666666666666 253.88747171465906, 12.326666666666664 253.77280504799236, 12.324 253.66080504799237 C 12.321333333333332 253.54880504799237, 12.319333333333333 253.44280504799238, 12.318 253.34280504799239 C 12.316666666666666 253.2428050479924, 12.317333333333334 253.14613838132573, 12.32 253.0528050479924 C 12.338666666666668 252.5648050479924, 12.455333333333336 252.20547171465904, 12.67 251.9748050479924 C 12.884666666666668 251.74413838132574, 13.221333333333334 251.61147171465905, 13.68 251.5768050479924 L 13.68 252.4688050479924 C 13.584 252.4981383813257, 13.513333333333332 252.54480504799238, 13.468 252.60880504799238 C 13.422666666666668 252.67280504799237, 13.398666666666667 252.7501383813257, 13.396 252.84080504799238 C 13.390666666666666 253.0488050479924, 13.387333333333332 253.24213838132573, 13.386 253.4208050479924 C 13.384666666666666 253.59947171465905, 13.389333333333333 253.79413838132575, 13.4 254.0048050479924 Z M 13.911999999999999 258.0448050479924 L 13.911999999999999 257.11280504799237 L 15.508 257.11280504799237 L 15.508 258.0448050479924 Z M 16.18 256.6288050479924 C 16.174666666666667 256.45547171465904, 16.173333333333332 256.31613838132574, 16.176 256.2108050479924 C 16.178666666666665 256.105471714659, 16.181333333333335 256.00347171465904, 16.183999999999997 255.9048050479924 L 17.264 255.9048050479924 C 17.256 255.98213838132574, 17.25 256.07813838132574, 17.246 256.1928050479924 C 17.241999999999997 256.3074717146591, 17.240666666666666 256.4181383813257, 17.241999999999997 256.5248050479924 C 17.243333333333332 256.631471714659, 17.246666666666666 256.71147171465907, 17.252 256.7648050479924 C 17.262666666666668 256.88480504799236, 17.297333333333334 256.9828050479924, 17.355999999999998 257.0588050479924 C 17.414666666666665 257.13480504799236, 17.497333333333334 257.18880504799233, 17.604 257.22080504799237 L 17.604 258.11280504799237 C 17.110666666666663 258.07547171465905, 16.75333333333333 257.9408050479924, 16.532 257.70880504799237 C 16.310666666666666 257.47680504799234, 16.19333333333333 257.1168050479924, 16.18 256.6288050479924 Z M 16.279999999999998 255.29280504799237 L 16.279999999999998 251.64480504799238 L 17.348 251.64480504799238 L 17.348 255.29280504799237 Z M 17.852 254.8688050479924 L 17.852 254.1128050479924 C 17.929333333333332 254.0728050479924, 18.014666666666667 254.04080504799236, 18.107999999999997 254.0168050479924 C 18.20133333333333 253.99280504799236, 18.301333333333332 253.98080504799236, 18.407999999999998 253.9808050479924 C 18.773333333333333 253.98080504799236, 19.047333333333334 254.09613838132572, 19.23 254.3268050479924 C 19.412666666666667 254.55747171465904, 19.514666666666663 254.87147171465904, 19.535999999999998 255.26880504799237 C 19.546666666666667 255.42880504799237, 19.55333333333333 255.58747171465905, 19.555999999999997 255.74480504799237 C 19.558666666666664 255.9021383813257, 19.557333333333332 256.05547171465906, 19.552 256.2048050479924 C 19.546666666666667 256.3541383813257, 19.538666666666668 256.4941383813257, 19.528 256.62480504799237 C 19.482666666666667 257.123471714659, 19.353333333333335 257.48880504799234, 19.14 257.72080504799237 C 18.926666666666666 257.9528050479924, 18.581333333333333 258.083471714659, 18.104 258.11280504799237 L 18.104 257.22080504799237 C 18.21333333333333 257.1914717146591, 18.296 257.1388050479924, 18.352 257.06280504799236 C 18.408 256.9868050479924, 18.44 256.88747171465906, 18.448 256.7648050479924 C 18.471999999999998 256.4741383813257, 18.485999999999997 256.2128050479924, 18.49 255.9808050479924 C 18.494 255.7488050479924, 18.485333333333333 255.52747171465904, 18.464 255.31680504799237 C 18.447999999999997 255.1621383813257, 18.396666666666665 255.04680504799236, 18.31 254.97080504799237 C 18.223333333333333 254.89480504799238, 18.090666666666664 254.8568050479924, 17.912 254.8568050479924 C 17.901333333333334 254.8568050479924, 17.890666666666668 254.85813838132572, 17.88 254.8608050479924 C 17.86933333333333 254.86347171465906, 17.86 254.86613838132573, 17.852 254.8688050479924 Z M 17.852 252.5768050479924 L 17.852 251.64480504799238 L 19.439999999999998 251.64480504799238 L 19.439999999999998 252.5768050479924 Z M 21.944 258.0448050479924 L 21.944 251.64480504799238 L 23.003999999999998 251.64480504799238 L 23.003999999999998 258.0448050479924 Z " stroke="none" fill-rule="nonzero" fill="#000000" fill-opacity="1" transform="matrix(1,0,0,1,5.05,13.314)" id="text25 l" />
  <path d="M 0 248.70101284607267 L 10 248.70101284607267 L 10 250.20101284607267 L 0 250.20101284607267 Z " stroke="none" fill-rule="evenodd" fill="#000000" fill-opacity="1" transform="matrix(1,0,0,1,5.05,13.314)" id="mark26 l" />
  <path d="M 0 238.307220644153 L 10 238.307220644153 L 10 239.807220644153 L 0 239.807220644153 Z " stroke="none" fill-rule="evenodd" fill="#000000" fill-opacity="1" transform="matrix(1,0,0,1,5.05,13.314)" id="mark27 l" />
  <path d="M 0 227.91342844223328 L 10 227.91342844223328 L 10 229.41342844223328 L 0 229.41342844223328 Z " stroke="none" fill-rule="evenodd" fill="#000000" fill-opacity="1" transform="matrix(1,0,0,1,5.05,13.314)" id="mark28 l" />
  <path d="M 0 217.51963624031362 L 10 217.51963624031362 L 10 219.01963624031362 L 0 219.01963624031362 Z " stroke="none" fill-rule="evenodd" fill="#000000" fill-opacity="1" transform="matrix(1,0,0,1,5.05,13.314)" id="mark29 l" />
  <path d="M 0 207.1258440383939 L 25 207.1258440383939 L 25 208.6258440383939 L 0 208.6258440383939 Z " stroke="none" fill-rule="evenodd" fill="#000000" fill-opacity="1" transform="matrix(1,0,0,1,5.05,13.314)" id="mark30 l" />
  <path d="M 12.223999999999998 204.6598440383939 C 12.221333333333334 204.55851070506057, 12.219333333333333 204.47451070506057, 12.218 204.4078440383939 C 12.216666666666667 204.34117737172724, 12.216666666666667 204.27317737172723, 12.218 204.20384403839392 C 12.219333333333333 204.13451070506056, 12.221333333333334 204.04517737172725, 12.223999999999998 203.93584403839392 L 13.303999999999998 203.93584403839392 L 13.303999999999998 204.7998440383939 C 13.303999999999998 205.03717737172724, 13.417333333333332 205.1878440383939, 13.643999999999998 205.2518440383939 L 13.643999999999998 206.14384403839392 C 13.155999999999999 206.1065107050606, 12.800666666666665 205.9718440383939, 12.578 205.7398440383939 C 12.355333333333334 205.5078440383939, 12.237333333333332 205.1478440383939, 12.223999999999998 204.6598440383939 Z M 12.292 200.60784403839392 L 12.292 199.6758440383939 L 15.536 199.6758440383939 L 15.536 200.60784403839392 Z M 14.143999999999998 205.25584403839392 C 14.367999999999999 205.1998440383939, 14.483999999999998 205.04917737172724, 14.491999999999999 204.80384403839392 C 14.497333333333334 204.60117737172726, 14.500666666666666 204.4185107050606, 14.501999999999999 204.25584403839392 C 14.503333333333332 204.09317737172728, 14.498666666666665 203.93584403839392, 14.488 203.7838440383939 C 14.48 203.62651070506058, 14.431999999999999 203.49317737172726, 14.344 203.3838440383939 C 14.256 203.27451070506055, 14.089333333333332 203.22251070506059, 13.844 203.2278440383939 L 13.096 203.2358440383939 L 13.068 202.3438440383939 L 14.027999999999999 200.9598440383939 L 15.216 200.9598440383939 L 14.248 202.3118440383939 L 14.28 202.3118440383939 C 14.712 202.3118440383939, 15.028666666666666 202.43451070506057, 15.229999999999999 202.67984403839392 C 15.431333333333333 202.92517737172724, 15.544 203.30251070506057, 15.568 203.8118440383939 C 15.57333333333333 203.8838440383939, 15.576666666666664 203.9558440383939, 15.578 204.0278440383939 C 15.57933333333333 204.0998440383939, 15.579999999999998 204.17051070506056, 15.579999999999998 204.2398440383939 C 15.579999999999998 204.30917737172723, 15.57933333333333 204.3785107050606, 15.578 204.4478440383939 C 15.576666666666664 204.51717737172726, 15.57333333333333 204.5878440383939, 15.568 204.6598440383939 C 15.549333333333333 205.15584403839392, 15.428666666666665 205.5205107050606, 15.206 205.7538440383939 C 14.983333333333334 205.98717737172723, 14.630666666666666 206.11717737172722, 14.148 206.14384403839392 Z M 16.196 204.6638440383939 C 16.188000000000002 204.2345107050606, 16.182666666666666 203.8178440383939, 16.18 203.4138440383939 C 16.177333333333333 203.0098440383939, 16.177999999999997 202.61451070506058, 16.182 202.2278440383939 C 16.186 201.8411773717272, 16.190666666666665 201.4598440383939, 16.196 201.08384403839392 C 16.209333333333333 200.64384403839392, 16.334000000000003 200.2985107050606, 16.57 200.04784403839392 C 16.805999999999997 199.79717737172723, 17.142666666666663 199.6518440383939, 17.58 199.6118440383939 L 17.58 200.49984403839392 C 17.382666666666665 200.5558440383939, 17.281333333333333 200.68517737172726, 17.276 200.88784403839392 C 17.262666666666668 201.2585107050606, 17.253333333333334 201.60651070506057, 17.248 201.9318440383939 C 17.242666666666665 202.25717737172724, 17.24 202.57384403839393, 17.24 202.88184403839392 C 17.24 203.18984403839391, 17.242666666666665 203.50451070506057, 17.248 203.8258440383939 C 17.253333333333334 204.14717737172725, 17.262666666666668 204.49051070506056, 17.276 204.8558440383939 C 17.281333333333333 205.06384403839394, 17.382666666666665 205.19584403839394, 17.58 205.2518440383939 L 17.58 206.1398440383939 C 17.142666666666663 206.09984403839388, 16.805999999999997 205.95384403839392, 16.57 205.70184403839392 C 16.334000000000003 205.4498440383939, 16.209333333333333 205.1038440383939, 16.196 204.6638440383939 Z M 18.084 206.1398440383939 L 18.084 205.2478440383939 C 18.268 205.1945107050606, 18.366666666666667 205.0705107050606, 18.38 204.87584403839392 C 18.398666666666667 204.40917737172725, 18.410666666666668 203.96051070506059, 18.416 203.52984403839392 C 18.421333333333333 203.09917737172725, 18.421333333333333 202.66851070506058, 18.416 202.23784403839392 C 18.410666666666668 201.80717737172725, 18.398666666666667 201.3545107050606, 18.38 200.8798440383939 C 18.374666666666666 200.68517737172726, 18.276 200.5585107050606, 18.084 200.49984403839392 L 18.084 199.6118440383939 C 18.513333333333335 199.6518440383939, 18.846666666666668 199.79717737172723, 19.084 200.04784403839392 C 19.321333333333335 200.2985107050606, 19.445333333333334 200.64384403839392, 19.456 201.08384403839392 C 19.46666666666667 201.39851070506057, 19.474666666666668 201.70851070506058, 19.48 202.0138440383939 C 19.485333333333333 202.31917737172722, 19.488 202.6198440383939, 19.488 202.9158440383939 C 19.488 203.2118440383939, 19.485333333333333 203.50517737172726, 19.48 203.7958440383939 C 19.474666666666668 204.08651070506056, 19.46666666666667 204.3758440383939, 19.456 204.6638440383939 C 19.439999999999998 205.11451070506058, 19.311999999999998 205.46317737172726, 19.072 205.7098440383939 C 18.832 205.95651070506057, 18.502666666666666 206.09984403839388, 18.084 206.1398440383939 Z M 21.944 206.0758440383939 L 21.944 199.6758440383939 L 23.003999999999998 199.6758440383939 L 23.003999999999998 206.0758440383939 Z " stroke="none" fill-rule="nonzero" fill="#000000" fill-opacity="1" transform="matrix(1,0,0,1,5.05,13.314)" id="text30 l" />
  <path d="M 0 196.73205183647423 L 10 196.73205183647423 L 10 198.23205183647423 L 0 198.23205183647423 Z " stroke="none" fill-rule="evenodd" fill="#000000" fill-opacity="1" transform="matrix(1,0,0,1,5.05,13.314)" id="mark31 l" />
  <path d="M 0 186.3382596345545 L 10 186.3382596345545 L 10 187.8382596345545 L 0 187.8382596345545 Z " stroke="none" fill-rule="evenodd" fill="#000000" fill-opacity="1" transform="matrix(1,0,0,1,5.05,13.314)" id="mark32 l" />
  <path d="M 0 175.94446743263484 L 10 175.94446743263484 L 10 177.44446743263484 L 0 177.44446743263484 Z " stroke="none" fill-rule="evenodd" fill="#000000" fill-opacity="1" transform="matrix(1,0,0,1,5.05,13.314)" id="mark33 l" />
  <path d="M 0 165.55067523071511 L 10 165.55067523071511 L 10 167.05067523071511 L 0 167.05067523071511 Z " stroke="none" fill-rule="evenodd" fill="#000000" fill-opacity="1" transform="matrix(1,0,0,1,5.05,13.314)" id="mark34 l" />
  <path d="M 0 155.15688302879545 L 25 155.15688302879545 L 25 156.65688302879545 L 0 156.65688302879545 Z " stroke="none" fill-rule="evenodd" fill="#000000" fill-opacity="1" transform="matrix(1,0,0,1,5.05,13.314)" id="mark35 l" />
  <path d="M 12.232 152.65888302879546 C 12.229333333333333 152.55754969546211, 12.227333333333334 152.4735496954621, 12.226 152.40688302879545 C 12.224666666666668 152.34021636212879, 12.224666666666668 152.27221636212877, 12.226 152.20288302879544 C 12.227333333333334 152.1335496954621, 12.229333333333333 152.0442163621288, 12.232 151.93488302879547 L 13.312 151.93488302879547 L 13.312 152.79888302879544 C 13.312 153.03621636212878, 13.425333333333333 153.18688302879545, 13.652 153.25088302879544 L 13.652 154.14288302879547 C 13.164 154.10554969546212, 12.808666666666667 153.97088302879544, 12.586 153.73888302879544 C 12.363333333333333 153.50688302879544, 12.245333333333335 153.14688302879546, 12.232 152.65888302879546 Z M 12.3 148.60688302879547 L 12.3 147.67488302879545 L 15.544 147.67488302879545 L 15.544 148.60688302879547 Z M 14.152000000000001 153.25488302879546 C 14.376000000000001 153.19888302879548, 14.492 153.0482163621288, 14.5 152.80288302879546 C 14.505333333333333 152.60021636212878, 14.508666666666667 152.41754969546213, 14.51 152.25488302879546 C 14.511333333333333 152.0922163621288, 14.506666666666668 151.93488302879547, 14.496 151.78288302879545 C 14.488 151.62554969546213, 14.440000000000001 151.4922163621288, 14.352 151.38288302879545 C 14.264 151.27354969546212, 14.097333333333335 151.22154969546213, 13.852 151.22688302879544 L 13.104 151.23488302879545 L 13.076 150.34288302879546 L 14.036 148.95888302879547 L 15.224 148.95888302879547 L 14.256 150.31088302879544 L 14.288 150.31088302879544 C 14.719999999999999 150.31088302879544, 15.036666666666665 150.43354969546212, 15.238 150.67888302879547 C 15.439333333333334 150.9242163621288, 15.552 151.30154969546214, 15.576 151.81088302879544 C 15.581333333333333 151.88288302879545, 15.584666666666667 151.95488302879545, 15.586 152.02688302879545 C 15.587333333333333 152.09888302879546, 15.588000000000001 152.1695496954621, 15.588000000000001 152.23888302879544 C 15.588000000000001 152.30821636212877, 15.587333333333333 152.37754969546214, 15.586 152.44688302879547 C 15.584666666666667 152.5162163621288, 15.581333333333333 152.58688302879546, 15.576 152.65888302879546 C 15.557333333333334 153.15488302879544, 15.436666666666667 153.5195496954621, 15.214 153.75288302879545 C 14.991333333333333 153.9862163621288, 14.638666666666666 154.1162163621288, 14.156 154.14288302879547 Z M 16.18 152.65888302879546 C 16.174666666666667 152.4855496954621, 16.173333333333332 152.34621636212879, 16.176 152.24088302879545 C 16.178666666666665 152.13554969546212, 16.181333333333335 152.0335496954621, 16.183999999999997 151.93488302879547 L 17.264 151.93488302879547 C 17.256 152.0122163621288, 17.25 152.1082163621288, 17.246 152.22288302879545 C 17.241999999999997 152.33754969546212, 17.240666666666666 152.4482163621288, 17.241999999999997 152.55488302879544 C 17.243333333333332 152.6615496954621, 17.246666666666666 152.7415496954621, 17.252 152.79488302879545 C 17.262666666666668 152.91488302879546, 17.297333333333334 153.01288302879547, 17.355999999999998 153.08888302879546 C 17.414666666666665 153.16488302879546, 17.497333333333334 153.21888302879543, 17.604 153.25088302879544 L 17.604 154.14288302879547 C 17.110666666666663 154.10554969546212, 16.75333333333333 153.97088302879544, 16.532 153.73888302879544 C 16.310666666666666 153.50688302879544, 16.19333333333333 153.14688302879546, 16.18 152.65888302879546 Z M 16.279999999999998 151.32288302879545 L 16.279999999999998 147.67488302879545 L 17.348 147.67488302879545 L 17.348 151.32288302879545 Z M 17.852 150.89888302879547 L 17.852 150.14288302879547 C 17.929333333333332 150.10288302879547, 18.014666666666667 150.07088302879546, 18.107999999999997 150.04688302879546 C 18.20133333333333 150.02288302879546, 18.301333333333332 150.01088302879546, 18.407999999999998 150.01088302879546 C 18.773333333333333 150.01088302879546, 19.047333333333334 150.1262163621288, 19.23 150.35688302879547 C 19.412666666666667 150.58754969546212, 19.514666666666663 150.9015496954621, 19.535999999999998 151.29888302879544 C 19.546666666666667 151.45888302879544, 19.55333333333333 151.61754969546212, 19.555999999999997 151.77488302879544 C 19.558666666666664 151.93221636212877, 19.557333333333332 152.08554969546213, 19.552 152.23488302879545 C 19.546666666666667 152.38421636212877, 19.538666666666668 152.52421636212878, 19.528 152.65488302879547 C 19.482666666666667 153.15354969546212, 19.353333333333335 153.51888302879544, 19.14 153.75088302879544 C 18.926666666666666 153.98288302879544, 18.581333333333333 154.11354969546213, 18.104 154.14288302879547 L 18.104 153.25088302879544 C 18.21333333333333 153.22154969546213, 18.296 153.16888302879545, 18.352 153.09288302879546 C 18.408 153.01688302879546, 18.44 152.91754969546213, 18.448 152.79488302879545 C 18.471999999999998 152.50421636212877, 18.485999999999997 152.24288302879546, 18.49 152.01088302879546 C 18.494 151.77888302879546, 18.485333333333333 151.55754969546211, 18.464 151.34688302879545 C 18.447999999999997 151.1922163621288, 18.396666666666665 151.07688302879544, 18.31 151.00088302879544 C 18.223333333333333 150.92488302879545, 18.090666666666664 150.88688302879547, 17.912 150.88688302879547 C 17.901333333333334 150.88688302879547, 17.890666666666668 150.8882163621288, 17.88 150.89088302879546 C 17.86933333333333 150.89354969546213, 17.86 150.8962163621288, 17.852 150.89888302879547 Z M 17.852 148.60688302879547 L 17.852 147.67488302879545 L 19.439999999999998 147.67488302879545 L 19.439999999999998 148.60688302879547 Z M 21.944 154.07488302879545 L 21.944 147.67488302879545 L 23.003999999999998 147.67488302879545 L 23.003999999999998 154.07488302879545 Z " stroke="none" fill-rule="nonzero" fill="#000000" fill-opacity="1" transform="matrix(1,0,0,1,5.05,13.314)" id="text35 l" />
  <path d="M 0 144.76309082687573 L 10 144.76309082687573 L 10 146.26309082687573 L 0 146.26309082687573 Z " stroke="none" fill-rule="evenodd" fill="#000000" fill-opacity="1" transform="matrix(1,0,0,1,5.05,13.314)" id="mark36 l" />
  <path d="M 0 134.36929862495606 L 10 134.36929862495606 L 10 135.86929862495606 L 0 135.86929862495606 Z " stroke="none" fill-rule="evenodd" fill="#000000" fill-opacity="1" transform="matrix(1,0,0,1,5.05,13.314)" id="mark37 l" />
  <path d="M 0 123.97550642303634 L 10 123.97550642303634 L 10 125.47550642303634 L 0 125.47550642303634 Z " stroke="none" fill-rule="evenodd" fill="#000000" fill-opacity="1" transform="matrix(1,0,0,1,5.05,13.314)" id="mark38 l" />
  <path d="M 0 113.58171422111667 L 10 113.58171422111667 L 10 115.08171422111667 L 0 115.08171422111667 Z " stroke="none" fill-rule="evenodd" fill="#000000" fill-opacity="1" transform="matrix(1,0,0,1,5.05,13.314)" id="mark39 l" />
  <path d="M 0 103.18792201919695 L 25 103.18792201919695 L 25 104.68792201919695 L 0 104.68792201919695 Z " stroke="none" fill-rule="evenodd" fill="#000000" fill-opacity="1" transform="matrix(1,0,0,1,5.05,13.314)" id="mark40 l" />
  <path d="M 11.739999999999998 100.45392201919695 L 11.739999999999998 99.57792201919695 L 12.455999999999998 97.69792201919695 L 13.495999999999999 97.69792201919695 L 12.771999999999998 99.52992201919695 L 13.171999999999997 99.52992201919695 L 13.171999999999997 100.45392201919695 Z M 13.675999999999998 102.13792201919695 L 13.675999999999998 95.73792201919694 L 14.683999999999997 95.73792201919694 L 14.683999999999997 102.13792201919695 Z M 15.187999999999999 100.45392201919695 L 15.187999999999999 99.52992201919695 L 15.655999999999999 99.52992201919695 L 15.655999999999999 100.45392201919695 Z M 16.195999999999998 100.72592201919694 C 16.188 100.29658868586361, 16.182666666666666 99.87992201919695, 16.18 99.47592201919694 C 16.177333333333333 99.07192201919695, 16.177999999999997 98.6765886858636, 16.182 98.28992201919695 C 16.186 97.9032553525303, 16.190666666666665 97.52192201919695, 16.195999999999998 97.14592201919695 C 16.20933333333333 96.70592201919695, 16.333999999999996 96.36058868586362, 16.569999999999997 96.10992201919694 C 16.805999999999997 95.85925535253028, 17.142666666666663 95.71392201919696, 17.58 95.67392201919695 L 17.58 96.56192201919696 C 17.382666666666665 96.61792201919695, 17.281333333333333 96.74725535253027, 17.275999999999996 96.94992201919695 C 17.262666666666664 97.32058868586361, 17.25333333333333 97.66858868586361, 17.247999999999998 97.99392201919694 C 17.242666666666665 98.31925535253028, 17.24 98.63592201919695, 17.24 98.94392201919695 C 17.24 99.25192201919694, 17.242666666666665 99.56658868586362, 17.247999999999998 99.88792201919695 C 17.25333333333333 100.20925535253028, 17.262666666666664 100.55258868586361, 17.275999999999996 100.91792201919695 C 17.281333333333333 101.12592201919696, 17.382666666666665 101.25792201919695, 17.58 101.31392201919695 L 17.58 102.20192201919694 C 17.142666666666663 102.16192201919696, 16.805999999999997 102.01592201919695, 16.569999999999997 101.76392201919695 C 16.333999999999996 101.51192201919696, 16.20933333333333 101.16592201919696, 16.195999999999998 100.72592201919694 Z M 18.084 102.20192201919694 L 18.084 101.30992201919695 C 18.268 101.25658868586362, 18.366666666666667 101.13258868586362, 18.38 100.93792201919695 C 18.398666666666664 100.47125535253028, 18.410666666666664 100.02258868586361, 18.415999999999997 99.59192201919694 C 18.42133333333333 99.16125535253028, 18.42133333333333 98.73058868586362, 18.415999999999997 98.29992201919696 C 18.410666666666664 97.86925535253029, 18.398666666666664 97.41658868586362, 18.38 96.94192201919695 C 18.374666666666666 96.74725535253029, 18.276 96.62058868586362, 18.084 96.56192201919696 L 18.084 95.67392201919695 C 18.513333333333332 95.71392201919696, 18.846666666666664 95.85925535253028, 19.083999999999996 96.10992201919694 C 19.32133333333333 96.36058868586362, 19.44533333333333 96.70592201919695, 19.456 97.14592201919695 C 19.466666666666665 97.46058868586363, 19.474666666666664 97.77058868586363, 19.479999999999997 98.07592201919695 C 19.48533333333333 98.38125535253027, 19.488 98.68192201919695, 19.488 98.97792201919695 C 19.488 99.27392201919696, 19.48533333333333 99.56725535253028, 19.479999999999997 99.85792201919695 C 19.474666666666664 100.14858868586361, 19.466666666666665 100.43792201919695, 19.456 100.72592201919694 C 19.439999999999998 101.1765886858636, 19.311999999999998 101.52525535253028, 19.072 101.77192201919695 C 18.831999999999997 102.01858868586362, 18.502666666666663 102.16192201919696, 18.084 102.20192201919694 Z M 21.944 102.13792201919695 L 21.944 95.73792201919694 L 23.003999999999998 95.73792201919694 L 23.003999999999998 102.13792201919695 Z " stroke="none" fill-rule="nonzero" fill="#000000" fill-opacity="1" transform="matrix(1,0,0,1,5.05,13.314)" id="text40 l" />
  <path d="M 0 92.79412981727728 L 10 92.79412981727728 L 10 94.29412981727728 L 0 94.29412981727728 Z " stroke="none" fill-rule="evenodd" fill="#000000" fill-opacity="1" transform="matrix(1,0,0,1,5.05,13.314)" id="mark41 l" />
  <path d="M 0 82.40033761535756 L 10 82.40033761535756 L 10 83.90033761535756 L 0 83.90033761535756 Z " stroke="none" fill-rule="evenodd" fill="#000000" fill-opacity="1" transform="matrix(1,0,0,1,5.05,13.314)" id="mark42 l" />
  <path d="M 0 72.00654541343789 L 10 72.00654541343789 L 10 73.50654541343789 L 0 73.50654541343789 Z " stroke="none" fill-rule="evenodd" fill="#000000" fill-opacity="1" transform="matrix(1,0,0,1,5.05,13.314)" id="mark43 l" />
  <path d="M 0 61.61275321151817 L 10 61.61275321151817 L 10 63.11275321151817 L 0 63.11275321151817 Z " stroke="none" fill-rule="evenodd" fill="#000000" fill-opacity="1" transform="matrix(1,0,0,1,5.05,13.314)" id="mark44 l" />
  <path d="M 0 51.2189610095985 L 25 51.2189610095985 L 25 52.7189610095985 L 0 52.7189610095985 Z " stroke="none" fill-rule="evenodd" fill="#000000" fill-opacity="1" transform="matrix(1,0,0,1,5.05,13.314)" id="mark45 l" />
  <path d="M 11.748 48.4529610095985 L 11.748 47.5769610095985 L 12.463999999999999 45.6969610095985 L 13.503999999999998 45.6969610095985 L 12.78 47.528961009598504 L 13.18 47.528961009598504 L 13.18 48.4529610095985 Z M 13.684 50.1369610095985 L 13.684 43.7369610095985 L 14.691999999999998 43.7369610095985 L 14.691999999999998 50.1369610095985 Z M 15.195999999999998 48.4529610095985 L 15.195999999999998 47.528961009598504 L 15.663999999999998 47.528961009598504 L 15.663999999999998 48.4529610095985 Z M 16.18 48.720961009598504 C 16.174666666666667 48.547627676265165, 16.173333333333332 48.40829434293183, 16.176 48.3029610095985 C 16.178666666666665 48.19762767626517, 16.181333333333335 48.095627676265174, 16.183999999999997 47.9969610095985 L 17.264 47.9969610095985 C 17.256 48.074294342931836, 17.25 48.17029434293184, 17.246 48.284961009598504 C 17.241999999999997 48.39962767626517, 17.240666666666666 48.510294342931836, 17.241999999999997 48.6169610095985 C 17.243333333333332 48.72362767626517, 17.246666666666666 48.803627676265165, 17.252 48.8569610095985 C 17.262666666666668 48.9769610095985, 17.297333333333334 49.074961009598496, 17.355999999999998 49.150961009598504 C 17.414666666666665 49.2269610095985, 17.497333333333334 49.2809610095985, 17.604 49.3129610095985 L 17.604 50.2049610095985 C 17.110666666666663 50.16762767626517, 16.75333333333333 50.03296100959851, 16.532 49.8009610095985 C 16.310666666666666 49.56896100959851, 16.19333333333333 49.20896100959851, 16.18 48.720961009598504 Z M 16.279999999999998 47.3849610095985 L 16.279999999999998 43.7369610095985 L 17.348 43.7369610095985 L 17.348 47.3849610095985 Z M 17.852 46.9609610095985 L 17.852 46.2049610095985 C 17.929333333333332 46.1649610095985, 18.014666666666667 46.1329610095985, 18.107999999999997 46.1089610095985 C 18.20133333333333 46.0849610095985, 18.301333333333332 46.0729610095985, 18.407999999999998 46.0729610095985 C 18.773333333333333 46.0729610095985, 19.047333333333334 46.18829434293183, 19.23 46.418961009598505 C 19.412666666666667 46.64962767626517, 19.514666666666663 46.96362767626516, 19.535999999999998 47.3609610095985 C 19.546666666666667 47.520961009598494, 19.55333333333333 47.67962767626517, 19.555999999999997 47.836961009598504 C 19.558666666666664 47.99429434293184, 19.557333333333332 48.147627676265174, 19.552 48.2969610095985 C 19.546666666666667 48.446294342931836, 19.538666666666668 48.586294342931836, 19.528 48.7169610095985 C 19.482666666666667 49.21562767626517, 19.353333333333335 49.5809610095985, 19.14 49.8129610095985 C 18.926666666666666 50.044961009598495, 18.581333333333333 50.175627676265165, 18.104 50.2049610095985 L 18.104 49.3129610095985 C 18.21333333333333 49.28362767626517, 18.296 49.2309610095985, 18.352 49.1549610095985 C 18.408 49.0789610095985, 18.44 48.97962767626517, 18.448 48.8569610095985 C 18.471999999999998 48.56629434293184, 18.485999999999997 48.3049610095985, 18.49 48.0729610095985 C 18.494 47.8409610095985, 18.485333333333333 47.61962767626517, 18.464 47.4089610095985 C 18.447999999999997 47.254294342931836, 18.396666666666665 47.1389610095985, 18.31 47.0629610095985 C 18.223333333333333 46.9869610095985, 18.090666666666664 46.9489610095985, 17.912 46.9489610095985 C 17.901333333333334 46.9489610095985, 17.890666666666668 46.950294342931834, 17.88 46.9529610095985 C 17.86933333333333 46.955627676265166, 17.86 46.958294342931836, 17.852 46.9609610095985 Z M 17.852 44.668961009598505 L 17.852 43.7369610095985 L 19.439999999999998 43.7369610095985 L 19.439999999999998 44.668961009598505 Z M 21.944 50.1369610095985 L 21.944 43.7369610095985 L 23.003999999999998 43.7369610095985 L 23.003999999999998 50.1369610095985 Z " stroke="none" fill-rule="nonzero" fill="#000000" fill-opacity="1" transform="matrix(1,0,0,1,5.05,13.314)" id="text45 l" />
  <path d="M 0 40.82516880767878 L 10 40.82516880767878 L 10 42.32516880767878 L 0 42.32516880767878 Z " stroke="none" fill-rule="evenodd" fill="#000000" fill-opacity="1" transform="matrix(1,0,0,1,5.05,13.314)" id="mark46 l" />
  <path d="M 0 30.431376605759112 L 10 30.431376605759112 L 10 31.931376605759112 L 0 31.931376605759112 Z " stroke="none" fill-rule="evenodd" fill="#000000" fill-opacity="1" transform="matrix(1,0,0,1,5.05,13.314)" id="mark47 l" />
  <path d="M 0 20.03758440383939 L 10 20.03758440383939 L 10 21.53758440383939 L 0 21.53758440383939 Z " stroke="none" fill-rule="evenodd" fill="#000000" fill-opacity="1" transform="matrix(1,0,0,1,5.05,13.314)" id="mark48 l" />
  <path d="M 0 9.643792201919666 L 10 9.643792201919666 L 10 11.143792201919666 L 0 11.143792201919666 Z " stroke="none" fill-rule="evenodd" fill="#000000" fill-opacity="1" transform="matrix(1,0,0,1,5.05,13.314)" id="mark49 l" />
  <path d="M 0 -0.75 L 25 -0.75 L 25 0.75 L 0 0.75 Z " stroke="none" fill-rule="evenodd" fill="#000000" fill-opacity="1" transform="matrix(1,0,0,1,5.05,13.314)" id="mark50 l" />
  <path d="M 12.204 -3.2159999999999997 C 12.198666666666668 -3.389333333333333, 12.197333333333333 -3.528666666666667, 12.2 -3.634 C 12.202666666666667 -3.7393333333333336, 12.205333333333336 -3.841333333333333, 12.208 -3.94 L 13.288 -3.94 C 13.280000000000001 -3.8626666666666667, 13.274000000000001 -3.7666666666666666, 13.27 -3.6519999999999997 C 13.265999999999998 -3.5373333333333328, 13.264666666666667 -3.4266666666666667, 13.266 -3.32 C 13.267333333333333 -3.213333333333334, 13.270666666666667 -3.1333333333333337, 13.276 -3.08 C 13.286666666666665 -2.96, 13.321333333333332 -2.862, 13.379999999999999 -2.7859999999999996 C 13.438666666666666 -2.71, 13.521333333333335 -2.6559999999999997, 13.628 -2.6239999999999997 L 13.628 -1.7319999999999998 C 13.134666666666668 -1.7693333333333332, 12.777333333333335 -1.904, 12.556 -2.1359999999999997 C 12.334666666666667 -2.368, 12.217333333333332 -2.7279999999999998, 12.204 -3.2159999999999997 Z M 12.304 -4.552 L 12.304 -8.2 L 13.372 -8.2 L 13.372 -4.552 Z M 13.876 -4.976 L 13.876 -5.731999999999999 C 13.953333333333333 -5.771999999999999, 14.038666666666668 -5.804, 14.132 -5.828 C 14.225333333333333 -5.852, 14.325333333333333 -5.864, 14.432 -5.864 C 14.797333333333334 -5.864, 15.071333333333332 -5.748666666666667, 15.254 -5.518 C 15.436666666666667 -5.287333333333333, 15.538666666666668 -4.973333333333333, 15.56 -4.576 C 15.570666666666668 -4.416, 15.577333333333334 -4.257333333333333, 15.58 -4.1 C 15.582666666666666 -3.9426666666666668, 15.581333333333333 -3.7893333333333334, 15.576 -3.6399999999999997 C 15.570666666666666 -3.490666666666667, 15.562666666666665 -3.3506666666666667, 15.552 -3.2199999999999998 C 15.506666666666668 -2.721333333333333, 15.377333333333333 -2.356, 15.164 -2.1239999999999997 C 14.950666666666667 -1.892, 14.605333333333332 -1.7613333333333332, 14.128 -1.7319999999999998 L 14.128 -2.6239999999999997 C 14.237333333333334 -2.653333333333333, 14.32 -2.7059999999999995, 14.376 -2.782 C 14.432 -2.8579999999999997, 14.464 -2.957333333333333, 14.472 -3.08 C 14.495999999999999 -3.3706666666666667, 14.509999999999998 -3.6319999999999997, 14.514 -3.864 C 14.518 -4.096, 14.509333333333334 -4.317333333333333, 14.488 -4.5280000000000005 C 14.472000000000001 -4.682666666666667, 14.420666666666666 -4.798, 14.334 -4.874 C 14.247333333333334 -4.949999999999999, 14.114666666666666 -4.9879999999999995, 13.936 -4.9879999999999995 C 13.925333333333333 -4.9879999999999995, 13.914666666666665 -4.986666666666666, 13.904 -4.984 C 13.893333333333334 -4.981333333333334, 13.884 -4.978666666666667, 13.876 -4.976 Z M 13.876 -7.268 L 13.876 -8.2 L 15.464 -8.2 L 15.464 -7.268 Z M 16.196 -3.2119999999999997 C 16.188000000000002 -3.641333333333333, 16.182666666666666 -4.058, 16.18 -4.462 C 16.177333333333333 -4.866, 16.177999999999997 -5.261333333333333, 16.182 -5.648 C 16.186 -6.034666666666666, 16.190666666666665 -6.416, 16.196 -6.792 C 16.209333333333333 -7.231999999999999, 16.334000000000003 -7.577333333333334, 16.57 -7.828 C 16.805999999999997 -8.078666666666667, 17.142666666666663 -8.224, 17.58 -8.264 L 17.58 -7.3759999999999994 C 17.382666666666665 -7.32, 17.281333333333333 -7.190666666666667, 17.276 -6.9879999999999995 C 17.262666666666668 -6.617333333333333, 17.253333333333334 -6.269333333333333, 17.248 -5.944 C 17.242666666666665 -5.618666666666666, 17.24 -5.302, 17.24 -4.994 C 17.24 -4.686, 17.242666666666665 -4.371333333333333, 17.248 -4.05 C 17.253333333333334 -3.7286666666666664, 17.262666666666668 -3.3853333333333326, 17.276 -3.0199999999999996 C 17.281333333333333 -2.812, 17.382666666666665 -2.6799999999999997, 17.58 -2.6239999999999997 L 17.58 -1.7359999999999998 C 17.142666666666663 -1.7759999999999998, 16.805999999999997 -1.9219999999999997, 16.57 -2.174 C 16.334000000000003 -2.4259999999999997, 16.209333333333333 -2.772, 16.196 -3.2119999999999997 Z M 18.084 -1.7359999999999998 L 18.084 -2.6279999999999997 C 18.268 -2.681333333333333, 18.366666666666667 -2.8053333333333335, 18.38 -3 C 18.398666666666667 -3.4666666666666663, 18.410666666666668 -3.915333333333333, 18.416 -4.346 C 18.421333333333333 -4.776666666666666, 18.421333333333333 -5.207333333333333, 18.416 -5.638 C 18.410666666666668 -6.068666666666666, 18.398666666666667 -6.521333333333333, 18.38 -6.9959999999999996 C 18.374666666666666 -7.190666666666667, 18.276 -7.317333333333334, 18.084 -7.3759999999999994 L 18.084 -8.264 C 18.513333333333335 -8.224, 18.846666666666668 -8.078666666666667, 19.084 -7.828 C 19.321333333333335 -7.577333333333334, 19.445333333333334 -7.231999999999999, 19.456 -6.792 C 19.46666666666667 -6.477333333333332, 19.474666666666668 -6.167333333333333, 19.48 -5.861999999999999 C 19.485333333333333 -5.556666666666667, 19.488 -5.256, 19.488 -4.96 C 19.488 -4.664, 19.485333333333333 -4.370666666666667, 19.48 -4.08 C 19.474666666666668 -3.7893333333333334, 19.46666666666667 -3.5, 19.456 -3.2119999999999997 C 19.439999999999998 -2.761333333333333, 19.311999999999998 -2.4126666666666665, 19.072 -2.166 C 18.832 -1.9193333333333331, 18.502666666666666 -1.7759999999999998, 18.084 -1.7359999999999998 Z M 21.944 -1.7999999999999998 L 21.944 -8.2 L 23.003999999999998 -8.2 L 23.003999999999998 -1.7999999999999998 Z " stroke="none" fill-rule="nonzero" fill="#000000" fill-opacity="1" transform="matrix(1,0,0,1,5.05,13.314)" id="text50 l" />
  <path d="M -5 -13.264 L 30 -13.264 L 30 516.0638178940651 L -5 516.0638178940651 Z " stroke="#FF0000" stroke-opacity="1" stroke-width="0.1" stroke-linecap="butt" stroke-linejoin="miter" fill="none" transform="matrix(1,0,0,1,5.05,13.314)" />
</svg>