<?xml version="1.0" encoding="UTF-8"?>
<svg xmlns:xlink="http://www.w3.org/1999/xlink" viewBox="0 0 35.1 298.1159281811904" version="1.1" style="font-synthesis: none;" width="35.1mm" height="298.1159281811904mm" xmlns="http://www.w3.org/2000/svg">
  <defs />
  <style>	</style>
  <path d="M 0 0 L 35.1 0 L 35.1 298.1159281811904 L 0 298.1159281811904 Z " stroke="none" fill-rule="nonzero" fill="#FFFFFF" fill-opacity="1" transform="matrix(1,0,0,1,0,0)" />
  <path d="M 0 277.2339281811904 L 10 277.2339281811904 L 10 278.7339281811904 L 0 278.7339281811904 Z " stroke="none" fill-rule="evenodd" fill="#000000" fill-opacity="1" transform="matrix(1,0,0,1,5.05,13.314)" id="mark1 l" />
  <path d="M 0 262.6031951190225 L 10 262.6031951190225 L 10 264.1031951190225 L 0 264.1031951190225 Z " stroke="none" fill-rule="evenodd" fill="#000000" fill-opacity="1" transform="matrix(1,0,0,1,5.05,13.314)" id="mark2 l" />
  <path d="M 0 247.97246205685454 L 10 247.97246205685454 L 10 249.47246205685454 L 0 249.47246205685454 Z " stroke="none" fill-rule="evenodd" fill="#000000" fill-opacity="1" transform="matrix(1,0,0,1,5.05,13.314)" id="mark3 l" />
  <path d="M 0 233.34172899468663 L 10 233.34172899468663 L 10 234.84172899468663 L 0 234.84172899468663 Z " stroke="none" fill-rule="evenodd" fill="#000000" fill-opacity="1" transform="matrix(1,0,0,1,5.05,13.314)" id="mark4 l" />
  <path d="M 0 218.7109959325187 L 25 218.7109959325187 L 25 220.2109959325187 L 0 220.2109959325187 Z " stroke="none" fill-rule="evenodd" fill="#000000" fill-opacity="1" transform="matrix(1,0,0,1,5.05,13.314)" id="mark5 l" />
  <path d="M 16.18 216.2129959325187 C 16.174666666666667 216.0396625991854, 16.173333333333332 215.90032926585206, 16.176 215.7949959325187 C 16.178666666666665 215.6896625991854, 16.181333333333335 215.5876625991854, 16.183999999999997 215.48899593251872 L 17.264 215.48899593251872 C 17.256 215.56632926585203, 17.25 215.662329265852, 17.246 215.7769959325187 C 17.241999999999997 215.89166259918534, 17.240666666666666 216.00232926585204, 17.241999999999997 216.1089959325187 C 17.243333333333332 216.21566259918535, 17.246666666666666 216.29566259918536, 17.252 216.3489959325187 C 17.262666666666668 216.4689959325187, 17.297333333333334 216.5669959325187, 17.355999999999998 216.64299593251872 C 17.414666666666665 216.71899593251868, 17.497333333333334 216.7729959325187, 17.604 216.8049959325187 L 17.604 217.69699593251872 C 17.110666666666663 217.65966259918537, 16.75333333333333 217.52499593251872, 16.532 217.2929959325187 C 16.310666666666666 217.06099593251872, 16.19333333333333 216.7009959325187, 16.18 216.2129959325187 Z M 16.279999999999998 214.8769959325187 L 16.279999999999998 211.2289959325187 L 17.348 211.2289959325187 L 17.348 214.8769959325187 Z M 17.852 214.45299593251872 L 17.852 213.69699593251872 C 17.929333333333332 213.65699593251873, 18.014666666666667 213.62499593251871, 18.107999999999997 213.6009959325187 C 18.20133333333333 213.5769959325187, 18.301333333333332 213.5649959325187, 18.407999999999998 213.5649959325187 C 18.773333333333333 213.5649959325187, 19.047333333333334 213.68032926585204, 19.23 213.91099593251872 C 19.412666666666667 214.1416625991854, 19.514666666666663 214.45566259918536, 19.535999999999998 214.8529959325187 C 19.546666666666667 215.01299593251872, 19.55333333333333 215.17166259918537, 19.555999999999997 215.3289959325187 C 19.558666666666664 215.48632926585205, 19.557333333333332 215.63966259918539, 19.552 215.7889959325187 C 19.546666666666667 215.93832926585202, 19.538666666666668 216.078329265852, 19.528 216.20899593251872 C 19.482666666666667 216.70766259918537, 19.353333333333335 217.07299593251872, 19.14 217.3049959325187 C 18.926666666666666 217.53699593251872, 18.581333333333333 217.6676625991854, 18.104 217.69699593251872 L 18.104 216.8049959325187 C 18.21333333333333 216.77566259918535, 18.296 216.7229959325187, 18.352 216.6469959325187 C 18.408 216.5709959325187, 18.44 216.47166259918538, 18.448 216.3489959325187 C 18.471999999999998 216.05832926585202, 18.485999999999997 215.7969959325187, 18.49 215.5649959325187 C 18.494 215.3329959325187, 18.485333333333333 215.11166259918537, 18.464 214.9009959325187 C 18.447999999999997 214.746329265852, 18.396666666666665 214.63099593251872, 18.31 214.5549959325187 C 18.223333333333333 214.47899593251873, 18.090666666666664 214.44099593251872, 17.912 214.44099593251872 C 17.901333333333334 214.44099593251872, 17.890666666666668 214.44232926585204, 17.88 214.4449959325187 C 17.86933333333333 214.44766259918538, 17.86 214.45032926585202, 17.852 214.45299593251872 Z M 17.852 212.16099593251872 L 17.852 211.2289959325187 L 19.439999999999998 211.2289959325187 L 19.439999999999998 212.16099593251872 Z M 21.944 217.6289959325187 L 21.944 211.2289959325187 L 23.003999999999998 211.2289959325187 L 23.003999999999998 217.6289959325187 Z " stroke="none" fill-rule="nonzero" fill="#000000" fill-opacity="1" transform="matrix(1,0,0,1,5.05,13.314)" id="text5 l" />
  <path d="M 0 204.0802628703508 L 10 204.0802628703508 L 10 205.5802628703508 L 0 205.5802628703508 Z " stroke="none" fill-rule="evenodd" fill="#000000" fill-opacity="1" transform="matrix(1,0,0,1,5.05,13.314)" id="mark6 l" />
  <path d="M 0 189.4495298081829 L 10 189.4495298081829 L 10 190.9495298081829 L 0 190.9495298081829 Z " stroke="none" fill-rule="evenodd" fill="#000000" fill-opacity="1" transform="matrix(1,0,0,1,5.05,13.314)" id="mark7 l" />
  <path d="M 0 174.81879674601498 L 10 174.81879674601498 L 10 176.31879674601498 L 0 176.31879674601498 Z " stroke="none" fill-rule="evenodd" fill="#000000" fill-opacity="1" transform="matrix(1,0,0,1,5.05,13.314)" id="mark8 l" />
  <path d="M 0 160.18806368384708 L 10 160.18806368384708 L 10 161.68806368384708 L 0 161.68806368384708 Z " stroke="none" fill-rule="evenodd" fill="#000000" fill-opacity="1" transform="matrix(1,0,0,1,5.05,13.314)" id="mark9 l" />
  <path d="M 0 145.55733062167914 L 25 145.55733062167914 L 25 147.05733062167914 L 0 147.05733062167914 Z " stroke="none" fill-rule="evenodd" fill="#000000" fill-opacity="1" transform="matrix(1,0,0,1,5.05,13.314)" id="mark10 l" />
  <path d="M 14.323999999999998 144.50733062167916 L 14.323999999999998 139.06333062167917 L 13.871999999999998 139.06333062167917 L 13.839999999999998 138.68333062167915 L 14.543999999999999 138.10733062167915 L 15.424 138.10733062167915 L 15.424 144.50733062167916 Z M 16.196 143.09533062167915 C 16.188000000000002 142.6659972883458, 16.182666666666666 142.24933062167915, 16.18 141.84533062167915 C 16.177333333333333 141.44133062167916, 16.177999999999997 141.04599728834583, 16.182 140.65933062167915 C 16.186 140.2726639550125, 16.190666666666665 139.89133062167917, 16.196 139.51533062167917 C 16.209333333333333 139.07533062167917, 16.334000000000003 138.72999728834583, 16.57 138.47933062167917 C 16.805999999999997 138.2286639550125, 17.142666666666663 138.08333062167915, 17.58 138.04333062167916 L 17.58 138.93133062167917 C 17.382666666666665 138.98733062167918, 17.281333333333333 139.1166639550125, 17.276 139.31933062167917 C 17.262666666666668 139.68999728834584, 17.253333333333334 140.03799728834582, 17.248 140.36333062167915 C 17.242666666666665 140.6886639550125, 17.24 141.00533062167915, 17.24 141.31333062167917 C 17.24 141.62133062167916, 17.242666666666665 141.93599728834582, 17.248 142.25733062167916 C 17.253333333333334 142.5786639550125, 17.262666666666668 142.92199728834584, 17.276 143.28733062167916 C 17.281333333333333 143.49533062167916, 17.382666666666665 143.62733062167916, 17.58 143.68333062167915 L 17.58 144.57133062167915 C 17.142666666666663 144.53133062167916, 16.805999999999997 144.38533062167915, 16.57 144.13333062167916 C 16.334000000000003 143.88133062167915, 16.209333333333333 143.53533062167915, 16.196 143.09533062167915 Z M 18.084 144.57133062167915 L 18.084 143.67933062167916 C 18.268 143.62599728834584, 18.366666666666667 143.50199728834582, 18.38 143.30733062167917 C 18.398666666666667 142.84066395501247, 18.410666666666668 142.3919972883458, 18.416 141.96133062167917 C 18.421333333333333 141.53066395501247, 18.421333333333333 141.09999728834583, 18.416 140.66933062167917 C 18.410666666666668 140.2386639550125, 18.398666666666667 139.7859972883458, 18.38 139.31133062167916 C 18.374666666666666 139.11666395501248, 18.276 138.98999728834582, 18.084 138.93133062167917 L 18.084 138.04333062167916 C 18.513333333333335 138.08333062167915, 18.846666666666668 138.2286639550125, 19.084 138.47933062167917 C 19.321333333333335 138.72999728834583, 19.445333333333334 139.07533062167917, 19.456 139.51533062167917 C 19.46666666666667 139.82999728834582, 19.474666666666668 140.1399972883458, 19.48 140.44533062167915 C 19.485333333333333 140.7506639550125, 19.488 141.05133062167914, 19.488 141.34733062167916 C 19.488 141.64333062167916, 19.485333333333333 141.93666395501248, 19.48 142.22733062167916 C 19.474666666666668 142.51799728834584, 19.46666666666667 142.80733062167917, 19.456 143.09533062167915 C 19.439999999999998 143.54599728834583, 19.311999999999998 143.8946639550125, 19.072 144.14133062167915 C 18.832 144.38799728834582, 18.502666666666666 144.53133062167916, 18.084 144.57133062167915 Z M 21.944 144.50733062167916 L 21.944 138.10733062167915 L 23.003999999999998 138.10733062167915 L 23.003999999999998 144.50733062167916 Z " stroke="none" fill-rule="nonzero" fill="#000000" fill-opacity="1" transform="matrix(1,0,0,1,5.05,13.314)" id="text10 l" />
  <path d="M 0 130.92659755951124 L 10 130.92659755951124 L 10 132.42659755951124 L 0 132.42659755951124 Z " stroke="none" fill-rule="evenodd" fill="#000000" fill-opacity="1" transform="matrix(1,0,0,1,5.05,13.314)" id="mark11 l" />
  <path d="M 0 116.29586449734333 L 10 116.29586449734333 L 10 117.79586449734333 L 0 117.79586449734333 Z " stroke="none" fill-rule="evenodd" fill="#000000" fill-opacity="1" transform="matrix(1,0,0,1,5.05,13.314)" id="mark12 l" />
  <path d="M 0 101.66513143517543 L 10 101.66513143517543 L 10 103.16513143517543 L 0 103.16513143517543 Z " stroke="none" fill-rule="evenodd" fill="#000000" fill-opacity="1" transform="matrix(1,0,0,1,5.05,13.314)" id="mark13 l" />
  <path d="M 0 87.03439837300749 L 10 87.03439837300749 L 10 88.53439837300749 L 0 88.53439837300749 Z " stroke="none" fill-rule="evenodd" fill="#000000" fill-opacity="1" transform="matrix(1,0,0,1,5.05,13.314)" id="mark14 l" />
  <path d="M 0 72.40366531083959 L 25 72.40366531083959 L 25 73.90366531083959 L 0 73.90366531083959 Z " stroke="none" fill-rule="evenodd" fill="#000000" fill-opacity="1" transform="matrix(1,0,0,1,5.05,13.314)" id="mark15 l" />
  <path d="M 14.331999999999999 71.32166531083959 L 14.331999999999999 65.87766531083959 L 13.879999999999999 65.87766531083959 L 13.847999999999999 65.4976653108396 L 14.552 64.92166531083959 L 15.432 64.92166531083959 L 15.432 71.32166531083959 Z M 16.18 69.9056653108396 C 16.174666666666667 69.73233197750626, 16.173333333333332 69.59299864417292, 16.176 69.48766531083959 C 16.178666666666665 69.38233197750625, 16.181333333333335 69.28033197750625, 16.183999999999997 69.18166531083959 L 17.264 69.18166531083959 C 17.256 69.25899864417292, 17.25 69.35499864417292, 17.246 69.46966531083959 C 17.241999999999997 69.58433197750625, 17.240666666666666 69.69499864417293, 17.241999999999997 69.8016653108396 C 17.243333333333332 69.90833197750626, 17.246666666666666 69.98833197750626, 17.252 70.04166531083959 C 17.262666666666668 70.1616653108396, 17.297333333333334 70.2596653108396, 17.355999999999998 70.33566531083959 C 17.414666666666665 70.4116653108396, 17.497333333333334 70.4656653108396, 17.604 70.4976653108396 L 17.604 71.38966531083959 C 17.110666666666663 71.35233197750625, 16.75333333333333 71.21766531083959, 16.532 70.9856653108396 C 16.310666666666666 70.7536653108396, 16.19333333333333 70.3936653108396, 16.18 69.9056653108396 Z M 16.279999999999998 68.5696653108396 L 16.279999999999998 64.92166531083959 L 17.348 64.92166531083959 L 17.348 68.5696653108396 Z M 17.852 68.14566531083959 L 17.852 67.38966531083959 C 17.929333333333332 67.34966531083958, 18.014666666666667 67.31766531083959, 18.107999999999997 67.29366531083959 C 18.20133333333333 67.2696653108396, 18.301333333333332 67.2576653108396, 18.407999999999998 67.2576653108396 C 18.773333333333333 67.2576653108396, 19.047333333333334 67.37299864417292, 19.23 67.60366531083959 C 19.412666666666667 67.83433197750625, 19.514666666666663 68.14833197750626, 19.535999999999998 68.5456653108396 C 19.546666666666667 68.70566531083959, 19.55333333333333 68.86433197750625, 19.555999999999997 69.0216653108396 C 19.558666666666664 69.17899864417294, 19.557333333333332 69.33233197750626, 19.552 69.48166531083959 C 19.546666666666667 69.63099864417292, 19.538666666666668 69.77099864417292, 19.528 69.90166531083959 C 19.482666666666667 70.40033197750626, 19.353333333333335 70.7656653108396, 19.14 70.9976653108396 C 18.926666666666666 71.2296653108396, 18.581333333333333 71.36033197750626, 18.104 71.38966531083959 L 18.104 70.4976653108396 C 18.21333333333333 70.46833197750627, 18.296 70.4156653108396, 18.352 70.33966531083959 C 18.408 70.26366531083958, 18.44 70.16433197750625, 18.448 70.04166531083959 C 18.471999999999998 69.75099864417292, 18.485999999999997 69.4896653108396, 18.49 69.2576653108396 C 18.494 69.0256653108396, 18.485333333333333 68.80433197750625, 18.464 68.5936653108396 C 18.447999999999997 68.43899864417293, 18.396666666666665 68.3236653108396, 18.31 68.2476653108396 C 18.223333333333333 68.17166531083959, 18.090666666666664 68.13366531083959, 17.912 68.13366531083959 C 17.901333333333334 68.13366531083959, 17.890666666666668 68.13499864417292, 17.88 68.1376653108396 C 17.86933333333333 68.14033197750626, 17.86 68.14299864417292, 17.852 68.14566531083959 Z M 17.852 65.85366531083959 L 17.852 64.92166531083959 L 19.439999999999998 64.92166531083959 L 19.439999999999998 65.85366531083959 Z M 21.944 71.32166531083959 L 21.944 64.92166531083959 L 23.003999999999998 64.92166531083959 L 23.003999999999998 71.32166531083959 Z " stroke="none" fill-rule="nonzero" fill="#000000" fill-opacity="1" transform="matrix(1,0,0,1,5.05,13.314)" id="text15 l" />
  <path d="M 0 57.77293224867168 L 10 57.77293224867168 L 10 59.27293224867168 L 0 59.27293224867168 Z " stroke="none" fill-rule="evenodd" fill="#000000" fill-opacity="1" transform="matrix(1,0,0,1,5.05,13.314)" id="mark16 l" />
  <path d="M 0 43.142199186503774 L 10 43.142199186503774 L 10 44.642199186503774 L 0 44.642199186503774 Z " stroke="none" fill-rule="evenodd" fill="#000000" fill-opacity="1" transform="matrix(1,0,0,1,5.05,13.314)" id="mark17 l" />
  <path d="M 0 28.51146612433587 L 10 28.51146612433587 L 10 30.01146612433587 L 0 30.01146612433587 Z " stroke="none" fill-rule="evenodd" fill="#000000" fill-opacity="1" transform="matrix(1,0,0,1,5.05,13.314)" id="mark18 l" />
  <path d="M 0 13.880733062167963 L 10 13.880733062167963 L 10 15.380733062167963 L 0 15.380733062167963 Z " stroke="none" fill-rule="evenodd" fill="#000000" fill-opacity="1" transform="matrix(1,0,0,1,5.05,13.314)" id="mark19 l" />
  <path d="M 0 -0.75 L 25 -0.75 L 25 0.75 L 0 0.75 Z " stroke="none" fill-rule="evenodd" fill="#000000" fill-opacity="1" transform="matrix(1,0,0,1,5.05,13.314)" id="mark20 l" />
  <path d="M 12.319999999999999 -1.7999999999999998 C 12.317333333333334 -1.8986666666666663, 12.315333333333331 -1.987333333333333, 12.313999999999998 -2.066 C 12.312666666666665 -2.1446666666666663, 12.311333333333334 -2.2186666666666666, 12.309999999999999 -2.288 C 12.308666666666667 -2.357333333333333, 12.308 -2.429333333333333, 12.308 -2.5039999999999996 C 12.308 -2.5786666666666664, 12.308 -2.663333333333333, 12.308 -2.758 C 12.308 -2.852666666666667, 12.309333333333335 -2.964, 12.312 -3.0919999999999996 C 12.32 -3.3853333333333335, 12.37 -3.647333333333333, 12.462 -3.8779999999999997 C 12.554 -4.108666666666667, 12.687999999999999 -4.314666666666667, 12.863999999999999 -4.4959999999999996 C 13.04 -4.677333333333333, 13.257333333333333 -4.838666666666667, 13.515999999999998 -4.98 L 14.047999999999998 -5.268 C 14.234666666666666 -5.3693333333333335, 14.354 -5.491333333333333, 14.405999999999999 -5.634 C 14.457999999999998 -5.776666666666667, 14.488 -5.910666666666667, 14.495999999999999 -6.036 C 14.506666666666664 -6.182666666666666, 14.512666666666664 -6.339333333333333, 14.514 -6.506 C 14.51533333333333 -6.672666666666667, 14.511999999999997 -6.829333333333334, 14.504 -6.976 C 14.498666666666665 -7.08, 14.468666666666666 -7.165999999999999, 14.413999999999998 -7.233999999999999 C 14.359333333333332 -7.302, 14.279999999999998 -7.350666666666666, 14.175999999999998 -7.38 L 14.175999999999998 -8.268 C 14.663999999999998 -8.236, 15.014 -8.104666666666667, 15.225999999999999 -7.874 C 15.437999999999999 -7.643333333333333, 15.554666666666666 -7.282666666666666, 15.575999999999999 -6.792 C 15.578666666666663 -6.728, 15.580666666666666 -6.6626666666666665, 15.581999999999999 -6.595999999999999 C 15.583333333333332 -6.529333333333334, 15.584 -6.464666666666666, 15.584 -6.402 C 15.584 -6.339333333333332, 15.583333333333332 -6.277333333333333, 15.581999999999999 -6.216 C 15.580666666666666 -6.1546666666666665, 15.578666666666663 -6.094666666666667, 15.575999999999999 -6.036 C 15.565333333333331 -5.750666666666667, 15.512 -5.504, 15.415999999999999 -5.295999999999999 C 15.32 -5.088, 15.19 -4.908, 15.026 -4.756 C 14.862 -4.604, 14.672 -4.468, 14.456 -4.348 L 13.851999999999999 -4.02 C 13.737333333333332 -3.9586666666666663, 13.647333333333332 -3.8746666666666663, 13.581999999999999 -3.768 C 13.516666666666666 -3.6613333333333333, 13.469999999999999 -3.548, 13.441999999999998 -3.428 C 13.413999999999998 -3.308, 13.399999999999999 -3.1959999999999997, 13.399999999999999 -3.0919999999999996 L 13.399999999999999 -1.7999999999999998 Z M 12.328 -5.84 C 12.322666666666667 -5.957333333333333, 12.318666666666665 -6.071999999999999, 12.315999999999999 -6.184 C 12.313333333333333 -6.295999999999999, 12.311333333333334 -6.401999999999999, 12.309999999999999 -6.502 C 12.308666666666667 -6.602, 12.309333333333335 -6.698666666666666, 12.312 -6.792 C 12.330666666666666 -7.279999999999999, 12.447333333333333 -7.639333333333333, 12.661999999999999 -7.87 C 12.876666666666665 -8.100666666666667, 13.213333333333331 -8.233333333333334, 13.671999999999999 -8.268 L 13.671999999999999 -7.3759999999999994 C 13.576 -7.346666666666666, 13.505333333333333 -7.3, 13.459999999999999 -7.236 C 13.414666666666665 -7.172, 13.390666666666664 -7.094666666666667, 13.387999999999998 -7.004 C 13.382666666666665 -6.795999999999999, 13.379333333333333 -6.602666666666666, 13.378 -6.424 C 13.376666666666667 -6.245333333333333, 13.381333333333334 -6.050666666666666, 13.392 -5.84 Z M 13.904 -1.7999999999999998 L 13.904 -2.7319999999999998 L 15.5 -2.7319999999999998 L 15.5 -1.7999999999999998 Z M 16.196 -3.2119999999999997 C 16.188000000000002 -3.641333333333333, 16.182666666666666 -4.058, 16.18 -4.462 C 16.177333333333333 -4.866, 16.177999999999997 -5.261333333333333, 16.182 -5.648 C 16.186 -6.034666666666666, 16.190666666666665 -6.416, 16.196 -6.792 C 16.209333333333333 -7.231999999999999, 16.334000000000003 -7.577333333333334, 16.57 -7.828 C 16.805999999999997 -8.078666666666667, 17.142666666666663 -8.224, 17.58 -8.264 L 17.58 -7.3759999999999994 C 17.382666666666665 -7.32, 17.281333333333333 -7.190666666666667, 17.276 -6.9879999999999995 C 17.262666666666668 -6.617333333333333, 17.253333333333334 -6.269333333333333, 17.248 -5.944 C 17.242666666666665 -5.618666666666666, 17.24 -5.302, 17.24 -4.994 C 17.24 -4.686, 17.242666666666665 -4.371333333333333, 17.248 -4.05 C 17.253333333333334 -3.7286666666666664, 17.262666666666668 -3.3853333333333326, 17.276 -3.0199999999999996 C 17.281333333333333 -2.812, 17.382666666666665 -2.6799999999999997, 17.58 -2.6239999999999997 L 17.58 -1.7359999999999998 C 17.142666666666663 -1.7759999999999998, 16.805999999999997 -1.9219999999999997, 16.57 -2.174 C 16.334000000000003 -2.4259999999999997, 16.209333333333333 -2.772, 16.196 -3.2119999999999997 Z M 18.084 -1.7359999999999998 L 18.084 -2.6279999999999997 C 18.268 -2.681333333333333, 18.366666666666667 -2.8053333333333335, 18.38 -3 C 18.398666666666667 -3.4666666666666663, 18.410666666666668 -3.915333333333333, 18.416 -4.346 C 18.421333333333333 -4.776666666666666, 18.421333333333333 -5.207333333333333, 18.416 -5.638 C 18.410666666666668 -6.068666666666666, 18.398666666666667 -6.521333333333333, 18.38 -6.9959999999999996 C 18.374666666666666 -7.190666666666667, 18.276 -7.317333333333334, 18.084 -7.3759999999999994 L 18.084 -8.264 C 18.513333333333335 -8.224, 18.846666666666668 -8.078666666666667, 19.084 -7.828 C 19.321333333333335 -7.577333333333334, 19.445333333333334 -7.231999999999999, 19.456 -6.792 C 19.46666666666667 -6.477333333333332, 19.474666666666668 -6.167333333333333, 19.48 -5.861999999999999 C 19.485333333333333 -5.556666666666667, 19.488 -5.256, 19.488 -4.96 C 19.488 -4.664, 19.485333333333333 -4.370666666666667, 19.48 -4.08 C 19.474666666666668 -3.7893333333333334, 19.46666666666667 -3.5, 19.456 -3.2119999999999997 C 19.439999999999998 -2.761333333333333, 19.311999999999998 -2.4126666666666665, 19.072 -2.166 C 18.832 -1.9193333333333331, 18.502666666666666 -1.7759999999999998, 18.084 -1.7359999999999998 Z M 21.944 -1.7999999999999998 L 21.944 -8.2 L 23.003999999999998 -8.2 L 23.003999999999998 -1.7999999999999998 Z " stroke="none" fill-rule="nonzero" fill="#000000" fill-opacity="1" transform="matrix(1,0,0,1,5.05,13.314)" id="text20 l" />
  <path d="M -5 -13.264 L 30 -13.264 L 30 284.75192818119035 L -5 284.75192818119035 Z " stroke="#FF0000" stroke-opacity="1" stroke-width="0.1" stroke-linecap="butt" stroke-linejoin="miter" fill="none" transform="matrix(1,0,0,1,5.05,13.314)" />
</svg>