<?xml version="1.0" encoding="UTF-8"?>
<svg xmlns:xlink="http://www.w3.org/1999/xlink" viewBox="0 0 35.1 422.538572163212" version="1.1" style="font-synthesis: none;" width="35.1mm" height="422.538572163212mm" xmlns="http://www.w3.org/2000/svg">
  <defs />
  <style>	</style>
  <path d="M 0 0 L 35.1 0 L 35.1 422.538572163212 L 0 422.538572163212 Z " stroke="none" fill-rule="nonzero" fill="#FFFFFF" fill-opacity="1" transform="matrix(1,0,0,1,0,0)" />
  <path d="M 0 401.656572163212 L 10 401.656572163212 L 10 403.156572163212 L 0 403.156572163212 Z " stroke="none" fill-rule="evenodd" fill="#000000" fill-opacity="1" transform="matrix(1,0,0,1,5.05,13.314)" id="mark1 l" />
  <path d="M 0 395.36896947316177 L 10 395.36896947316177 L 10 396.86896947316177 L 0 396.86896947316177 Z " stroke="none" fill-rule="evenodd" fill="#000000" fill-opacity="1" transform="matrix(1,0,0,1,5.05,13.314)" id="mark2 l" />
  <path d="M 0 389.0813667831116 L 10 389.0813667831116 L 10 390.5813667831116 L 0 390.5813667831116 Z " stroke="none" fill-rule="evenodd" fill="#000000" fill-opacity="1" transform="matrix(1,0,0,1,5.05,13.314)" id="mark3 l" />
  <path d="M 0 382.7937640930614 L 10 382.7937640930614 L 10 384.2937640930614 L 0 384.2937640930614 Z " stroke="none" fill-rule="evenodd" fill="#000000" fill-opacity="1" transform="matrix(1,0,0,1,5.05,13.314)" id="mark4 l" />
  <path d="M 0 376.5061614030112 L 25 376.5061614030112 L 25 378.0061614030112 L 0 378.0061614030112 Z " stroke="none" fill-rule="evenodd" fill="#000000" fill-opacity="1" transform="matrix(1,0,0,1,5.05,13.314)" id="mark5 l" />
  <path d="M 16.18 374.00816140301123 C 16.174666666666667 373.8348280696779, 16.173333333333332 373.6954947363446, 16.176 373.5901614030112 C 16.178666666666665 373.48482806967786, 16.181333333333335 373.3828280696779, 16.183999999999997 373.28416140301124 L 17.264 373.28416140301124 C 17.256 373.3614947363446, 17.25 373.4574947363446, 17.246 373.57216140301125 C 17.241999999999997 373.6868280696779, 17.240666666666666 373.79749473634456, 17.241999999999997 373.90416140301124 C 17.243333333333332 374.01082806967787, 17.246666666666666 374.09082806967785, 17.252 374.14416140301125 C 17.262666666666668 374.26416140301126, 17.297333333333334 374.3621614030112, 17.355999999999998 374.43816140301124 C 17.414666666666665 374.5141614030112, 17.497333333333334 374.56816140301123, 17.604 374.6001614030112 L 17.604 375.4921614030112 C 17.110666666666663 375.4548280696779, 16.75333333333333 375.3201614030112, 16.532 375.0881614030112 C 16.310666666666666 374.85616140301124, 16.19333333333333 374.49616140301123, 16.18 374.00816140301123 Z M 16.279999999999998 372.6721614030112 L 16.279999999999998 369.02416140301125 L 17.348 369.02416140301125 L 17.348 372.6721614030112 Z M 17.852 372.24816140301124 L 17.852 371.4921614030112 C 17.929333333333332 371.45216140301125, 18.014666666666667 371.4201614030112, 18.107999999999997 371.3961614030112 C 18.20133333333333 371.3721614030112, 18.301333333333332 371.3601614030112, 18.407999999999998 371.3601614030112 C 18.773333333333333 371.3601614030112, 19.047333333333334 371.47549473634456, 19.23 371.7061614030112 C 19.412666666666667 371.93682806967786, 19.514666666666663 372.2508280696779, 19.535999999999998 372.6481614030112 C 19.546666666666667 372.80816140301124, 19.55333333333333 372.9668280696779, 19.555999999999997 373.1241614030112 C 19.558666666666664 373.28149473634454, 19.557333333333332 373.4348280696779, 19.552 373.58416140301125 C 19.546666666666667 373.7334947363446, 19.538666666666668 373.8734947363446, 19.528 374.0041614030112 C 19.482666666666667 374.5028280696779, 19.353333333333335 374.8681614030112, 19.14 375.1001614030112 C 18.926666666666666 375.33216140301124, 18.581333333333333 375.46282806967787, 18.104 375.4921614030112 L 18.104 374.6001614030112 C 18.21333333333333 374.5708280696779, 18.296 374.5181614030112, 18.352 374.4421614030112 C 18.408 374.36616140301123, 18.44 374.2668280696779, 18.448 374.14416140301125 C 18.471999999999998 373.8534947363446, 18.485999999999997 373.59216140301123, 18.49 373.3601614030112 C 18.494 373.12816140301123, 18.485333333333333 372.9068280696779, 18.464 372.6961614030112 C 18.447999999999997 372.5414947363446, 18.396666666666665 372.42616140301124, 18.31 372.3501614030112 C 18.223333333333333 372.27416140301125, 18.090666666666664 372.23616140301124, 17.912 372.23616140301124 C 17.901333333333334 372.23616140301124, 17.890666666666668 372.23749473634456, 17.88 372.2401614030112 C 17.86933333333333 372.2428280696779, 17.86 372.24549473634454, 17.852 372.24816140301124 Z M 17.852 369.9561614030112 L 17.852 369.02416140301125 L 19.439999999999998 369.02416140301125 L 19.439999999999998 369.9561614030112 Z M 21.944 375.4241614030112 L 21.944 369.02416140301125 L 23.003999999999998 369.02416140301125 L 23.003999999999998 375.4241614030112 Z " stroke="none" fill-rule="nonzero" fill="#000000" fill-opacity="1" transform="matrix(1,0,0,1,5.05,13.314)" id="text5 l" />
  <path d="M 0 370.21855871296106 L 10 370.21855871296106 L 10 371.71855871296106 L 0 371.71855871296106 Z " stroke="none" fill-rule="evenodd" fill="#000000" fill-opacity="1" transform="matrix(1,0,0,1,5.05,13.314)" id="mark6 l" />
  <path d="M 0 363.93095602291083 L 10 363.93095602291083 L 10 365.43095602291083 L 0 365.43095602291083 Z " stroke="none" fill-rule="evenodd" fill="#000000" fill-opacity="1" transform="matrix(1,0,0,1,5.05,13.314)" id="mark7 l" />
  <path d="M 0 357.64335333286067 L 10 357.64335333286067 L 10 359.14335333286067 L 0 359.14335333286067 Z " stroke="none" fill-rule="evenodd" fill="#000000" fill-opacity="1" transform="matrix(1,0,0,1,5.05,13.314)" id="mark8 l" />
  <path d="M 0 351.35575064281045 L 10 351.35575064281045 L 10 352.85575064281045 L 0 352.85575064281045 Z " stroke="none" fill-rule="evenodd" fill="#000000" fill-opacity="1" transform="matrix(1,0,0,1,5.05,13.314)" id="mark9 l" />
  <path d="M 0 345.0681479527603 L 25 345.0681479527603 L 25 346.5681479527603 L 0 346.5681479527603 Z " stroke="none" fill-rule="evenodd" fill="#000000" fill-opacity="1" transform="matrix(1,0,0,1,5.05,13.314)" id="mark10 l" />
  <path d="M 14.323999999999998 344.0181479527603 L 14.323999999999998 338.57414795276026 L 13.871999999999998 338.57414795276026 L 13.839999999999998 338.19414795276026 L 14.543999999999999 337.6181479527603 L 15.424 337.6181479527603 L 15.424 344.0181479527603 Z M 16.196 342.6061479527603 C 16.188000000000002 342.176814619427, 16.182666666666666 341.7601479527603, 16.18 341.3561479527603 C 16.177333333333333 340.9521479527603, 16.177999999999997 340.556814619427, 16.182 340.17014795276026 C 16.186 339.7834812860936, 16.190666666666665 339.4021479527603, 16.196 339.02614795276025 C 16.209333333333333 338.58614795276026, 16.334000000000003 338.24081461942694, 16.57 337.99014795276025 C 16.805999999999997 337.73948128609356, 17.142666666666663 337.5941479527603, 17.58 337.5541479527603 L 17.58 338.44214795276025 C 17.382666666666665 338.4981479527603, 17.281333333333333 338.6274812860936, 17.276 338.8301479527603 C 17.262666666666668 339.2008146194269, 17.253333333333334 339.54881461942693, 17.248 339.87414795276027 C 17.242666666666665 340.1994812860936, 17.24 340.51614795276026, 17.24 340.82414795276026 C 17.24 341.13214795276025, 17.242666666666665 341.4468146194269, 17.248 341.7681479527603 C 17.253333333333334 342.08948128609364, 17.262666666666668 342.43281461942695, 17.276 342.79814795276025 C 17.281333333333333 343.0061479527602, 17.382666666666665 343.1381479527603, 17.58 343.19414795276026 L 17.58 344.0821479527603 C 17.142666666666663 344.0421479527603, 16.805999999999997 343.89614795276026, 16.57 343.64414795276025 C 16.334000000000003 343.39214795276024, 16.209333333333333 343.0461479527603, 16.196 342.6061479527603 Z M 18.084 344.0821479527603 L 18.084 343.1901479527603 C 18.268 343.1368146194269, 18.366666666666667 343.01281461942693, 18.38 342.8181479527603 C 18.398666666666667 342.35148128609364, 18.410666666666668 341.902814619427, 18.416 341.4721479527603 C 18.421333333333333 341.0414812860936, 18.421333333333333 340.61081461942695, 18.416 340.18014795276025 C 18.410666666666668 339.7494812860936, 18.398666666666667 339.296814619427, 18.38 338.82214795276025 C 18.374666666666666 338.6274812860936, 18.276 338.50081461942693, 18.084 338.44214795276025 L 18.084 337.5541479527603 C 18.513333333333335 337.5941479527603, 18.846666666666668 337.73948128609356, 19.084 337.99014795276025 C 19.321333333333335 338.24081461942694, 19.445333333333334 338.58614795276026, 19.456 339.02614795276025 C 19.46666666666667 339.34081461942696, 19.474666666666668 339.65081461942697, 19.48 339.95614795276026 C 19.485333333333333 340.2614812860936, 19.488 340.56214795276026, 19.488 340.85814795276025 C 19.488 341.15414795276024, 19.485333333333333 341.4474812860936, 19.48 341.7381479527603 C 19.474666666666668 342.02881461942695, 19.46666666666667 342.3181479527603, 19.456 342.6061479527603 C 19.439999999999998 343.056814619427, 19.311999999999998 343.4054812860936, 19.072 343.6521479527603 C 18.832 343.89881461942696, 18.502666666666666 344.0421479527603, 18.084 344.0821479527603 Z M 21.944 344.0181479527603 L 21.944 337.6181479527603 L 23.003999999999998 337.6181479527603 L 23.003999999999998 344.0181479527603 Z " stroke="none" fill-rule="nonzero" fill="#000000" fill-opacity="1" transform="matrix(1,0,0,1,5.05,13.314)" id="text10 l" />
  <path d="M 0 338.7805452627101 L 10 338.7805452627101 L 10 340.2805452627101 L 0 340.2805452627101 Z " stroke="none" fill-rule="evenodd" fill="#000000" fill-opacity="1" transform="matrix(1,0,0,1,5.05,13.314)" id="mark11 l" />
  <path d="M 0 332.4929425726599 L 10 332.4929425726599 L 10 333.9929425726599 L 0 333.9929425726599 Z " stroke="none" fill-rule="evenodd" fill="#000000" fill-opacity="1" transform="matrix(1,0,0,1,5.05,13.314)" id="mark12 l" />
  <path d="M 0 326.20533988260974 L 10 326.20533988260974 L 10 327.70533988260974 L 0 327.70533988260974 Z " stroke="none" fill-rule="evenodd" fill="#000000" fill-opacity="1" transform="matrix(1,0,0,1,5.05,13.314)" id="mark13 l" />
  <path d="M 0 319.91773719255957 L 10 319.91773719255957 L 10 321.41773719255957 L 0 321.41773719255957 Z " stroke="none" fill-rule="evenodd" fill="#000000" fill-opacity="1" transform="matrix(1,0,0,1,5.05,13.314)" id="mark14 l" />
  <path d="M 0 313.63013450250935 L 25 313.63013450250935 L 25 315.13013450250935 L 0 315.13013450250935 Z " stroke="none" fill-rule="evenodd" fill="#000000" fill-opacity="1" transform="matrix(1,0,0,1,5.05,13.314)" id="mark15 l" />
  <path d="M 14.331999999999999 312.54813450250936 L 14.331999999999999 307.10413450250934 L 13.879999999999999 307.10413450250934 L 13.847999999999999 306.72413450250934 L 14.552 306.1481345025094 L 15.432 306.1481345025094 L 15.432 312.54813450250936 Z M 16.18 311.13213450250936 C 16.174666666666667 310.958801169176, 16.173333333333332 310.8194678358427, 16.176 310.71413450250935 C 16.178666666666665 310.608801169176, 16.181333333333335 310.506801169176, 16.183999999999997 310.40813450250937 L 17.264 310.40813450250937 C 17.256 310.48546783584266, 17.25 310.58146783584266, 17.246 310.6961345025094 C 17.241999999999997 310.810801169176, 17.240666666666666 310.9214678358427, 17.241999999999997 311.0281345025094 C 17.243333333333332 311.134801169176, 17.246666666666666 311.21480116917604, 17.252 311.2681345025094 C 17.262666666666668 311.38813450250933, 17.297333333333334 311.48613450250934, 17.355999999999998 311.56213450250937 C 17.414666666666665 311.63813450250933, 17.497333333333334 311.69213450250936, 17.604 311.72413450250934 L 17.604 312.61613450250934 C 17.110666666666663 312.578801169176, 16.75333333333333 312.44413450250937, 16.532 312.21213450250934 C 16.310666666666666 311.9801345025093, 16.19333333333333 311.62013450250936, 16.18 311.13213450250936 Z M 16.279999999999998 309.79613450250935 L 16.279999999999998 306.1481345025094 L 17.348 306.1481345025094 L 17.348 309.79613450250935 Z M 17.852 309.37213450250937 L 17.852 308.61613450250934 C 17.929333333333332 308.5761345025093, 18.014666666666667 308.54413450250934, 18.107999999999997 308.52013450250934 C 18.20133333333333 308.49613450250934, 18.301333333333332 308.48413450250933, 18.407999999999998 308.48413450250933 C 18.773333333333333 308.48413450250933, 19.047333333333334 308.5994678358427, 19.23 308.83013450250934 C 19.412666666666667 309.060801169176, 19.514666666666663 309.374801169176, 19.535999999999998 309.77213450250935 C 19.546666666666667 309.93213450250937, 19.55333333333333 310.090801169176, 19.555999999999997 310.24813450250934 C 19.558666666666664 310.40546783584267, 19.557333333333332 310.55880116917604, 19.552 310.7081345025094 C 19.546666666666667 310.8574678358427, 19.538666666666668 310.9974678358427, 19.528 311.12813450250934 C 19.482666666666667 311.626801169176, 19.353333333333335 311.9921345025093, 19.14 312.22413450250934 C 18.926666666666666 312.45613450250937, 18.581333333333333 312.58680116917606, 18.104 312.61613450250934 L 18.104 311.72413450250934 C 18.21333333333333 311.694801169176, 18.296 311.64213450250935, 18.352 311.5661345025093 C 18.408 311.49013450250936, 18.44 311.39080116917603, 18.448 311.2681345025094 C 18.471999999999998 310.9774678358427, 18.485999999999997 310.71613450250936, 18.49 310.48413450250933 C 18.494 310.25213450250936, 18.485333333333333 310.030801169176, 18.464 309.82013450250935 C 18.447999999999997 309.6654678358427, 18.396666666666665 309.55013450250937, 18.31 309.47413450250934 C 18.223333333333333 309.3981345025094, 18.090666666666664 309.36013450250937, 17.912 309.36013450250937 C 17.901333333333334 309.36013450250937, 17.890666666666668 309.3614678358427, 17.88 309.36413450250933 C 17.86933333333333 309.36680116917603, 17.86 309.36946783584267, 17.852 309.37213450250937 Z M 17.852 307.08013450250934 L 17.852 306.1481345025094 L 19.439999999999998 306.1481345025094 L 19.439999999999998 307.08013450250934 Z M 21.944 312.54813450250936 L 21.944 306.1481345025094 L 23.003999999999998 306.1481345025094 L 23.003999999999998 312.54813450250936 Z " stroke="none" fill-rule="nonzero" fill="#000000" fill-opacity="1" transform="matrix(1,0,0,1,5.05,13.314)" id="text15 l" />
  <path d="M 0 307.3425318124592 L 10 307.3425318124592 L 10 308.8425318124592 L 0 308.8425318124592 Z " stroke="none" fill-rule="evenodd" fill="#000000" fill-opacity="1" transform="matrix(1,0,0,1,5.05,13.314)" id="mark16 l" />
  <path d="M 0 301.05492912240896 L 10 301.05492912240896 L 10 302.55492912240896 L 0 302.55492912240896 Z " stroke="none" fill-rule="evenodd" fill="#000000" fill-opacity="1" transform="matrix(1,0,0,1,5.05,13.314)" id="mark17 l" />
  <path d="M 0 294.7673264323588 L 10 294.7673264323588 L 10 296.2673264323588 L 0 296.2673264323588 Z " stroke="none" fill-rule="evenodd" fill="#000000" fill-opacity="1" transform="matrix(1,0,0,1,5.05,13.314)" id="mark18 l" />
  <path d="M 0 288.4797237423086 L 10 288.4797237423086 L 10 289.9797237423086 L 0 289.9797237423086 Z " stroke="none" fill-rule="evenodd" fill="#000000" fill-opacity="1" transform="matrix(1,0,0,1,5.05,13.314)" id="mark19 l" />
  <path d="M 0 282.1921210522584 L 25 282.1921210522584 L 25 283.6921210522584 L 0 283.6921210522584 Z " stroke="none" fill-rule="evenodd" fill="#000000" fill-opacity="1" transform="matrix(1,0,0,1,5.05,13.314)" id="mark20 l" />
  <path d="M 12.319999999999999 281.1421210522584 C 12.317333333333334 281.0434543855917, 12.315333333333331 280.95478771892505, 12.313999999999998 280.8761210522584 C 12.312666666666665 280.7974543855917, 12.311333333333334 280.7234543855917, 12.309999999999999 280.6541210522584 C 12.308666666666667 280.5847877189251, 12.308 280.5127877189251, 12.308 280.4381210522584 C 12.308 280.36345438559175, 12.308 280.27878771892506, 12.308 280.1841210522584 C 12.308 280.0894543855917, 12.309333333333335 279.9781210522584, 12.312 279.85012105225843 C 12.32 279.5567877189251, 12.37 279.294787718925, 12.462 279.06412105225843 C 12.554 278.8334543855917, 12.687999999999999 278.6274543855917, 12.863999999999999 278.4461210522584 C 13.04 278.26478771892505, 13.257333333333333 278.1034543855917, 13.515999999999998 277.9621210522584 L 14.047999999999998 277.6741210522584 C 14.234666666666666 277.57278771892504, 14.354 277.4507877189251, 14.405999999999999 277.3081210522584 C 14.457999999999998 277.1654543855917, 14.488 277.0314543855917, 14.495999999999999 276.9061210522584 C 14.506666666666664 276.75945438559177, 14.512666666666664 276.6027877189251, 14.514 276.4361210522584 C 14.51533333333333 276.2694543855917, 14.511999999999997 276.11278771892506, 14.504 275.9661210522584 C 14.498666666666665 275.86212105225843, 14.468666666666666 275.7761210522584, 14.413999999999998 275.7081210522584 C 14.359333333333332 275.6401210522584, 14.279999999999998 275.59145438559176, 14.175999999999998 275.5621210522584 L 14.175999999999998 274.6741210522584 C 14.663999999999998 274.70612105225837, 15.014 274.83745438559174, 15.225999999999999 275.0681210522584 C 15.437999999999999 275.29878771892504, 15.554666666666666 275.65945438559174, 15.575999999999999 276.1501210522584 C 15.578666666666663 276.2141210522584, 15.580666666666666 276.27945438559175, 15.581999999999999 276.3461210522584 C 15.583333333333332 276.4127877189251, 15.584 276.4774543855917, 15.584 276.5401210522584 C 15.584 276.6027877189251, 15.583333333333332 276.6647877189251, 15.581999999999999 276.7261210522584 C 15.580666666666666 276.78745438559173, 15.578666666666663 276.84745438559173, 15.575999999999999 276.9061210522584 C 15.565333333333331 277.1914543855918, 15.512 277.43812105225845, 15.415999999999999 277.6461210522584 C 15.32 277.8541210522584, 15.19 278.0341210522584, 15.026 278.1861210522584 C 14.862 278.3381210522584, 14.672 278.4741210522584, 14.456 278.5941210522584 L 13.851999999999999 278.9221210522584 C 13.737333333333332 278.98345438559176, 13.647333333333332 279.06745438559176, 13.581999999999999 279.1741210522584 C 13.516666666666666 279.28078771892507, 13.469999999999999 279.3941210522584, 13.441999999999998 279.5141210522584 C 13.413999999999998 279.6341210522584, 13.399999999999999 279.74612105225845, 13.399999999999999 279.85012105225843 L 13.399999999999999 281.1421210522584 Z M 12.328 277.1021210522584 C 12.322666666666667 276.9847877189251, 12.318666666666665 276.8701210522584, 12.315999999999999 276.7581210522584 C 12.313333333333333 276.64612105225837, 12.311333333333334 276.54012105225837, 12.309999999999999 276.4401210522584 C 12.308666666666667 276.34012105225844, 12.309333333333335 276.24345438559175, 12.312 276.1501210522584 C 12.330666666666666 275.6621210522584, 12.447333333333333 275.30278771892506, 12.661999999999999 275.0721210522584 C 12.876666666666665 274.84145438559176, 13.213333333333331 274.70878771892507, 13.671999999999999 274.6741210522584 L 13.671999999999999 275.5661210522584 C 13.576 275.5954543855917, 13.505333333333333 275.6421210522584, 13.459999999999999 275.7061210522584 C 13.414666666666665 275.77012105225845, 13.390666666666664 275.84745438559173, 13.387999999999998 275.9381210522584 C 13.382666666666665 276.1461210522584, 13.379333333333333 276.33945438559175, 13.378 276.5181210522584 C 13.376666666666667 276.69678771892507, 13.381333333333334 276.8914543855917, 13.392 277.1021210522584 Z M 13.904 281.1421210522584 L 13.904 280.2101210522584 L 15.5 280.2101210522584 L 15.5 281.1421210522584 Z M 16.196 279.7301210522584 C 16.188000000000002 279.3007877189251, 16.182666666666666 278.8841210522584, 16.18 278.4801210522584 C 16.177333333333333 278.07612105225843, 16.177999999999997 277.6807877189251, 16.182 277.2941210522584 C 16.186 276.90745438559173, 16.190666666666665 276.5261210522584, 16.196 276.1501210522584 C 16.209333333333333 275.7101210522584, 16.334000000000003 275.3647877189251, 16.57 275.1141210522584 C 16.805999999999997 274.86345438559175, 17.142666666666663 274.7181210522584, 17.58 274.6781210522584 L 17.58 275.5661210522584 C 17.382666666666665 275.62212105225836, 17.281333333333333 275.7514543855917, 17.276 275.9541210522584 C 17.262666666666668 276.32478771892505, 17.253333333333334 276.67278771892506, 17.248 276.9981210522584 C 17.242666666666665 277.32345438559173, 17.24 277.6401210522584, 17.24 277.9481210522584 C 17.24 278.2561210522584, 17.242666666666665 278.57078771892503, 17.248 278.8921210522584 C 17.253333333333334 279.2134543855918, 17.262666666666668 279.5567877189251, 17.276 279.9221210522584 C 17.281333333333333 280.1301210522584, 17.382666666666665 280.2621210522584, 17.58 280.3181210522584 L 17.58 281.2061210522584 C 17.142666666666663 281.1661210522584, 16.805999999999997 281.02012105225845, 16.57 280.7681210522584 C 16.334000000000003 280.5161210522584, 16.209333333333333 280.1701210522584, 16.196 279.7301210522584 Z M 18.084 281.2061210522584 L 18.084 280.31412105225843 C 18.268 280.2607877189251, 18.366666666666667 280.13678771892506, 18.38 279.9421210522584 C 18.398666666666667 279.4754543855918, 18.410666666666668 279.0267877189251, 18.416 278.5961210522584 C 18.421333333333333 278.1654543855917, 18.421333333333333 277.7347877189251, 18.416 277.3041210522584 C 18.410666666666668 276.87345438559174, 18.398666666666667 276.42078771892506, 18.38 275.9461210522584 C 18.374666666666666 275.7514543855917, 18.276 275.62478771892506, 18.084 275.5661210522584 L 18.084 274.6781210522584 C 18.513333333333335 274.7181210522584, 18.846666666666668 274.86345438559175, 19.084 275.1141210522584 C 19.321333333333335 275.3647877189251, 19.445333333333334 275.7101210522584, 19.456 276.1501210522584 C 19.46666666666667 276.4647877189251, 19.474666666666668 276.77478771892504, 19.48 277.0801210522584 C 19.485333333333333 277.38545438559174, 19.488 277.6861210522584, 19.488 277.9821210522584 C 19.488 278.27812105225837, 19.485333333333333 278.5714543855917, 19.48 278.86212105225843 C 19.474666666666668 279.1527877189251, 19.46666666666667 279.4421210522584, 19.456 279.7301210522584 C 19.439999999999998 280.1807877189251, 19.311999999999998 280.52945438559175, 19.072 280.7761210522584 C 18.832 281.0227877189251, 18.502666666666666 281.1661210522584, 18.084 281.2061210522584 Z M 21.944 281.1421210522584 L 21.944 274.7421210522584 L 23.003999999999998 274.7421210522584 L 23.003999999999998 281.1421210522584 Z " stroke="none" fill-rule="nonzero" fill="#000000" fill-opacity="1" transform="matrix(1,0,0,1,5.05,13.314)" id="text20 l" />
  <path d="M 0 275.90451836220825 L 10 275.90451836220825 L 10 277.40451836220825 L 0 277.40451836220825 Z " stroke="none" fill-rule="evenodd" fill="#000000" fill-opacity="1" transform="matrix(1,0,0,1,5.05,13.314)" id="mark21 l" />
  <path d="M 0 269.61691567215803 L 10 269.61691567215803 L 10 271.11691567215803 L 0 271.11691567215803 Z " stroke="none" fill-rule="evenodd" fill="#000000" fill-opacity="1" transform="matrix(1,0,0,1,5.05,13.314)" id="mark22 l" />
  <path d="M 0 263.32931298210787 L 10 263.32931298210787 L 10 264.82931298210787 L 0 264.82931298210787 Z " stroke="none" fill-rule="evenodd" fill="#000000" fill-opacity="1" transform="matrix(1,0,0,1,5.05,13.314)" id="mark23 l" />
  <path d="M 0 257.0417102920577 L 10 257.0417102920577 L 10 258.5417102920577 L 0 258.5417102920577 Z " stroke="none" fill-rule="evenodd" fill="#000000" fill-opacity="1" transform="matrix(1,0,0,1,5.05,13.314)" id="mark24 l" />
  <path d="M 0 250.75410760200748 L 25 250.75410760200748 L 25 252.25410760200748 L 0 252.25410760200748 Z " stroke="none" fill-rule="evenodd" fill="#000000" fill-opacity="1" transform="matrix(1,0,0,1,5.05,13.314)" id="mark25 l" />
  <path d="M 12.328 249.7041076020075 C 12.325333333333333 249.60544093534082, 12.323333333333332 249.51677426867417, 12.322 249.4381076020075 C 12.320666666666666 249.35944093534084, 12.319333333333333 249.28544093534083, 12.318 249.2161076020075 C 12.316666666666666 249.14677426867416, 12.315999999999999 249.07477426867416, 12.316 249.0001076020075 C 12.315999999999999 248.92544093534082, 12.315999999999999 248.84077426867418, 12.316 248.7461076020075 C 12.315999999999999 248.65144093534082, 12.317333333333334 248.54010760200748, 12.32 248.4121076020075 C 12.328 248.11877426867414, 12.378 247.85677426867414, 12.47 247.6261076020075 C 12.562000000000001 247.39544093534084, 12.696 247.18944093534083, 12.872 247.0081076020075 C 13.048 246.82677426867417, 13.265333333333334 246.66544093534083, 13.524000000000001 246.5241076020075 L 14.056000000000001 246.2361076020075 C 14.242666666666668 246.13477426867416, 14.362000000000002 246.01277426867415, 14.414 245.8701076020075 C 14.466000000000001 245.72744093534084, 14.495999999999999 245.59344093534082, 14.504 245.4681076020075 C 14.514666666666667 245.32144093534083, 14.520666666666667 245.16477426867417, 14.522 244.9981076020075 C 14.523333333333333 244.83144093534085, 14.520000000000001 244.67477426867418, 14.512 244.5281076020075 C 14.506666666666666 244.4241076020075, 14.476666666666667 244.33810760200748, 14.422 244.2701076020075 C 14.367333333333335 244.20210760200752, 14.288 244.15344093534083, 14.184000000000001 244.12410760200748 L 14.184000000000001 243.2361076020075 C 14.672 243.26810760200752, 15.022000000000002 243.39944093534086, 15.234 243.63010760200748 C 15.446000000000002 243.86077426867416, 15.562666666666667 244.2214409353408, 15.584 244.7121076020075 C 15.586666666666668 244.77610760200753, 15.588666666666668 244.84144093534084, 15.59 244.9081076020075 C 15.591333333333335 244.97477426867417, 15.592000000000002 245.03944093534085, 15.592 245.1021076020075 C 15.592000000000002 245.16477426867414, 15.591333333333335 245.22677426867415, 15.59 245.2881076020075 C 15.588666666666668 245.34944093534082, 15.586666666666668 245.40944093534083, 15.584 245.4681076020075 C 15.573333333333332 245.75344093534085, 15.52 246.00010760200752, 15.424 246.2081076020075 C 15.328 246.41610760200751, 15.197999999999999 246.59610760200752, 15.033999999999999 246.7481076020075 C 14.87 246.9001076020075, 14.68 247.03610760200746, 14.464 247.1561076020075 L 13.86 247.4841076020075 C 13.745333333333335 247.54544093534082, 13.655333333333335 247.62944093534082, 13.59 247.7361076020075 C 13.524666666666668 247.84277426867416, 13.478000000000002 247.95610760200748, 13.45 248.07610760200748 C 13.422 248.1961076020075, 13.408 248.3081076020075, 13.408 248.4121076020075 L 13.408 249.7041076020075 Z M 12.336 245.6641076020075 C 12.330666666666666 245.54677426867414, 12.326666666666664 245.43210760200748, 12.324 245.3201076020075 C 12.321333333333332 245.2081076020075, 12.319333333333333 245.1021076020075, 12.318 245.0021076020075 C 12.316666666666666 244.9021076020075, 12.317333333333334 244.8054409353408, 12.32 244.7121076020075 C 12.338666666666668 244.2241076020075, 12.455333333333336 243.86477426867418, 12.67 243.6341076020075 C 12.884666666666668 243.40344093534083, 13.221333333333334 243.27077426867416, 13.68 243.2361076020075 L 13.68 244.1281076020075 C 13.584 244.15744093534084, 13.513333333333332 244.2041076020075, 13.468 244.2681076020075 C 13.422666666666668 244.33210760200748, 13.398666666666667 244.4094409353408, 13.396 244.5001076020075 C 13.390666666666666 244.7081076020075, 13.387333333333332 244.90144093534084, 13.386 245.0801076020075 C 13.384666666666666 245.25877426867416, 13.389333333333333 245.45344093534084, 13.4 245.6641076020075 Z M 13.911999999999999 249.7041076020075 L 13.911999999999999 248.7721076020075 L 15.508 248.7721076020075 L 15.508 249.7041076020075 Z M 16.18 248.2881076020075 C 16.174666666666667 248.11477426867418, 16.173333333333332 247.97544093534083, 16.176 247.8701076020075 C 16.178666666666665 247.76477426867416, 16.181333333333335 247.66277426867418, 16.183999999999997 247.5641076020075 L 17.264 247.5641076020075 C 17.256 247.64144093534082, 17.25 247.73744093534083, 17.246 247.8521076020075 C 17.241999999999997 247.96677426867416, 17.240666666666666 248.0774409353408, 17.241999999999997 248.1841076020075 C 17.243333333333332 248.29077426867417, 17.246666666666666 248.37077426867415, 17.252 248.4241076020075 C 17.262666666666668 248.5441076020075, 17.297333333333334 248.6421076020075, 17.355999999999998 248.7181076020075 C 17.414666666666665 248.7941076020075, 17.497333333333334 248.84810760200747, 17.604 248.88010760200748 L 17.604 249.7721076020075 C 17.110666666666663 249.7347742686742, 16.75333333333333 249.60010760200748, 16.532 249.36810760200748 C 16.310666666666666 249.13610760200748, 16.19333333333333 248.7761076020075, 16.18 248.2881076020075 Z M 16.279999999999998 246.9521076020075 L 16.279999999999998 243.3041076020075 L 17.348 243.3041076020075 L 17.348 246.9521076020075 Z M 17.852 246.5281076020075 L 17.852 245.7721076020075 C 17.929333333333332 245.7321076020075, 18.014666666666667 245.7001076020075, 18.107999999999997 245.6761076020075 C 18.20133333333333 245.6521076020075, 18.301333333333332 245.6401076020075, 18.407999999999998 245.6401076020075 C 18.773333333333333 245.6401076020075, 19.047333333333334 245.75544093534086, 19.23 245.9861076020075 C 19.412666666666667 246.21677426867416, 19.514666666666663 246.53077426867418, 19.535999999999998 246.9281076020075 C 19.546666666666667 247.08810760200748, 19.55333333333333 247.24677426867416, 19.555999999999997 247.40410760200749 C 19.558666666666664 247.56144093534084, 19.557333333333332 247.71477426867418, 19.552 247.8641076020075 C 19.546666666666667 248.0134409353408, 19.538666666666668 248.15344093534083, 19.528 248.2841076020075 C 19.482666666666667 248.7827742686742, 19.353333333333335 249.14810760200749, 19.14 249.38010760200748 C 18.926666666666666 249.61210760200748, 18.581333333333333 249.74277426867417, 18.104 249.7721076020075 L 18.104 248.88010760200748 C 18.21333333333333 248.85077426867417, 18.296 248.7981076020075, 18.352 248.7221076020075 C 18.408 248.6461076020075, 18.44 248.54677426867417, 18.448 248.4241076020075 C 18.471999999999998 248.13344093534081, 18.485999999999997 247.87210760200747, 18.49 247.6401076020075 C 18.494 247.40810760200748, 18.485333333333333 247.18677426867413, 18.464 246.9761076020075 C 18.447999999999997 246.82144093534083, 18.396666666666665 246.70610760200748, 18.31 246.63010760200748 C 18.223333333333333 246.5541076020075, 18.090666666666664 246.5161076020075, 17.912 246.5161076020075 C 17.901333333333334 246.5161076020075, 17.890666666666668 246.51744093534086, 17.88 246.5201076020075 C 17.86933333333333 246.52277426867414, 17.86 246.52544093534084, 17.852 246.5281076020075 Z M 17.852 244.2361076020075 L 17.852 243.3041076020075 L 19.439999999999998 243.3041076020075 L 19.439999999999998 244.2361076020075 Z M 21.944 249.7041076020075 L 21.944 243.3041076020075 L 23.003999999999998 243.3041076020075 L 23.003999999999998 249.7041076020075 Z " stroke="none" fill-rule="nonzero" fill="#000000" fill-opacity="1" transform="matrix(1,0,0,1,5.05,13.314)" id="text25 l" />
  <path d="M 0 244.4665049119573 L 10 244.4665049119573 L 10 245.9665049119573 L 0 245.9665049119573 Z " stroke="none" fill-rule="evenodd" fill="#000000" fill-opacity="1" transform="matrix(1,0,0,1,5.05,13.314)" id="mark26 l" />
  <path d="M 0 238.17890222190712 L 10 238.17890222190712 L 10 239.67890222190712 L 0 239.67890222190712 Z " stroke="none" fill-rule="evenodd" fill="#000000" fill-opacity="1" transform="matrix(1,0,0,1,5.05,13.314)" id="mark27 l" />
  <path d="M 0 231.89129953185693 L 10 231.89129953185693 L 10 233.39129953185693 L 0 233.39129953185693 Z " stroke="none" fill-rule="evenodd" fill="#000000" fill-opacity="1" transform="matrix(1,0,0,1,5.05,13.314)" id="mark28 l" />
  <path d="M 0 225.60369684180674 L 10 225.60369684180674 L 10 227.10369684180674 L 0 227.10369684180674 Z " stroke="none" fill-rule="evenodd" fill="#000000" fill-opacity="1" transform="matrix(1,0,0,1,5.05,13.314)" id="mark29 l" />
  <path d="M 0 219.31609415175654 L 25 219.31609415175654 L 25 220.81609415175654 L 0 220.81609415175654 Z " stroke="none" fill-rule="evenodd" fill="#000000" fill-opacity="1" transform="matrix(1,0,0,1,5.05,13.314)" id="mark30 l" />
  <path d="M 12.223999999999998 216.85009415175656 C 12.221333333333334 216.7487608184232, 12.219333333333333 216.6647608184232, 12.218 216.59809415175656 C 12.216666666666667 216.53142748508986, 12.216666666666667 216.46342748508988, 12.218 216.39409415175658 C 12.219333333333333 216.32476081842321, 12.221333333333334 216.23542748508987, 12.223999999999998 216.12609415175658 L 13.303999999999998 216.12609415175658 L 13.303999999999998 216.99009415175655 C 13.303999999999998 217.2274274850899, 13.417333333333332 217.37809415175656, 13.643999999999998 217.44209415175655 L 13.643999999999998 218.33409415175657 C 13.155999999999999 218.29676081842322, 12.800666666666665 218.16209415175655, 12.578 217.93009415175655 C 12.355333333333334 217.69809415175655, 12.237333333333332 217.33809415175654, 12.223999999999998 216.85009415175656 Z M 12.292 212.79809415175657 L 12.292 211.86609415175656 L 15.536 211.86609415175656 L 15.536 212.79809415175657 Z M 14.143999999999998 217.44609415175657 C 14.367999999999999 217.39009415175656, 14.483999999999998 217.2394274850899, 14.491999999999999 216.99409415175657 C 14.497333333333334 216.7914274850899, 14.500666666666666 216.60876081842324, 14.501999999999999 216.44609415175657 C 14.503333333333332 216.2834274850899, 14.498666666666665 216.12609415175655, 14.488 215.97409415175656 C 14.48 215.81676081842323, 14.431999999999999 215.6834274850899, 14.344 215.57409415175655 C 14.256 215.46476081842326, 14.089333333333332 215.41276081842324, 13.844 215.41809415175655 L 13.096 215.42609415175656 L 13.068 214.53409415175656 L 14.027999999999999 213.15009415175655 L 15.216 213.15009415175655 L 14.248 214.50209415175655 L 14.28 214.50209415175655 C 14.712 214.50209415175652, 15.028666666666666 214.62476081842323, 15.229999999999999 214.87009415175658 C 15.431333333333333 215.11542748508992, 15.544 215.49276081842322, 15.568 216.00209415175655 C 15.57333333333333 216.07409415175653, 15.576666666666664 216.14609415175653, 15.578 216.21809415175656 C 15.57933333333333 216.29009415175653, 15.579999999999998 216.36076081842322, 15.579999999999998 216.43009415175655 C 15.579999999999998 216.49942748508988, 15.57933333333333 216.56876081842321, 15.578 216.63809415175655 C 15.576666666666664 216.70742748508988, 15.57333333333333 216.77809415175653, 15.568 216.85009415175656 C 15.549333333333333 217.34609415175657, 15.428666666666665 217.71076081842324, 15.206 217.94409415175656 C 14.983333333333334 218.17742748508988, 14.630666666666666 218.3074274850899, 14.148 218.33409415175657 Z M 16.196 216.85409415175656 C 16.188000000000002 216.4247608184232, 16.182666666666666 216.00809415175655, 16.18 215.60409415175656 C 16.177333333333333 215.20009415175656, 16.177999999999997 214.80476081842323, 16.182 214.41809415175655 C 16.186 214.03142748508992, 16.190666666666665 213.65009415175658, 16.196 213.27409415175657 C 16.209333333333333 212.83409415175657, 16.334000000000003 212.48876081842326, 16.57 212.23809415175657 C 16.805999999999997 211.98742748508988, 17.142666666666663 211.84209415175656, 17.58 211.80209415175656 L 17.58 212.69009415175657 C 17.382666666666665 212.74609415175655, 17.281333333333333 212.87542748508992, 17.276 213.07809415175657 C 17.262666666666668 213.44876081842324, 17.253333333333334 213.7967608184232, 17.248 214.12209415175656 C 17.242666666666665 214.44742748508986, 17.24 214.76409415175655, 17.24 215.07209415175657 C 17.24 215.38009415175657, 17.242666666666665 215.69476081842322, 17.248 216.01609415175656 C 17.253333333333334 216.3374274850899, 17.262666666666668 216.6807608184232, 17.276 217.04609415175656 C 17.281333333333333 217.2540941517566, 17.382666666666665 217.38609415175657, 17.58 217.44209415175655 L 17.58 218.33009415175655 C 17.142666666666663 218.29009415175653, 16.805999999999997 218.14409415175655, 16.57 217.89209415175657 C 16.334000000000003 217.64009415175656, 16.209333333333333 217.29409415175655, 16.196 216.85409415175656 Z M 18.084 218.33009415175655 L 18.084 217.43809415175656 C 18.268 217.38476081842322, 18.366666666666667 217.26076081842325, 18.38 217.06609415175657 C 18.398666666666667 216.5994274850899, 18.410666666666668 216.15076081842324, 18.416 215.72009415175657 C 18.421333333333333 215.2894274850899, 18.421333333333333 214.8587608184232, 18.416 214.42809415175657 C 18.410666666666668 213.99742748508987, 18.398666666666667 213.54476081842324, 18.38 213.07009415175656 C 18.374666666666666 212.87542748508992, 18.276 212.74876081842325, 18.084 212.69009415175657 L 18.084 211.80209415175656 C 18.513333333333335 211.84209415175656, 18.846666666666668 211.98742748508988, 19.084 212.23809415175657 C 19.321333333333335 212.48876081842326, 19.445333333333334 212.83409415175657, 19.456 213.27409415175657 C 19.46666666666667 213.58876081842322, 19.474666666666668 213.89876081842323, 19.48 214.20409415175655 C 19.485333333333333 214.50942748508987, 19.488 214.81009415175657, 19.488 215.10609415175657 C 19.488 215.40209415175656, 19.485333333333333 215.69542748508988, 19.48 215.98609415175656 C 19.474666666666668 216.27676081842324, 19.46666666666667 216.56609415175657, 19.456 216.85409415175656 C 19.439999999999998 217.30476081842323, 19.311999999999998 217.65342748508988, 19.072 217.90009415175655 C 18.832 218.14676081842322, 18.502666666666666 218.29009415175653, 18.084 218.33009415175655 Z M 21.944 218.26609415175656 L 21.944 211.86609415175656 L 23.003999999999998 211.86609415175656 L 23.003999999999998 218.26609415175656 Z " stroke="none" fill-rule="nonzero" fill="#000000" fill-opacity="1" transform="matrix(1,0,0,1,5.05,13.314)" id="text30 l" />
  <path d="M 0 213.02849146170635 L 10 213.02849146170635 L 10 214.52849146170635 L 0 214.52849146170635 Z " stroke="none" fill-rule="evenodd" fill="#000000" fill-opacity="1" transform="matrix(1,0,0,1,5.05,13.314)" id="mark31 l" />
  <path d="M 0 206.7408887716562 L 10 206.7408887716562 L 10 208.2408887716562 L 0 208.2408887716562 Z " stroke="none" fill-rule="evenodd" fill="#000000" fill-opacity="1" transform="matrix(1,0,0,1,5.05,13.314)" id="mark32 l" />
  <path d="M 0 200.453286081606 L 10 200.453286081606 L 10 201.953286081606 L 0 201.953286081606 Z " stroke="none" fill-rule="evenodd" fill="#000000" fill-opacity="1" transform="matrix(1,0,0,1,5.05,13.314)" id="mark33 l" />
  <path d="M 0 194.1656833915558 L 10 194.1656833915558 L 10 195.6656833915558 L 0 195.6656833915558 Z " stroke="none" fill-rule="evenodd" fill="#000000" fill-opacity="1" transform="matrix(1,0,0,1,5.05,13.314)" id="mark34 l" />
  <path d="M 0 187.8780807015056 L 25 187.8780807015056 L 25 189.3780807015056 L 0 189.3780807015056 Z " stroke="none" fill-rule="evenodd" fill="#000000" fill-opacity="1" transform="matrix(1,0,0,1,5.05,13.314)" id="mark35 l" />
  <path d="M 12.232 185.38008070150562 C 12.229333333333333 185.27874736817228, 12.227333333333334 185.19474736817227, 12.226 185.1280807015056 C 12.224666666666668 185.06141403483895, 12.224666666666668 184.99341403483896, 12.226 184.9240807015056 C 12.227333333333334 184.8547473681723, 12.229333333333333 184.76541403483895, 12.232 184.65608070150563 L 13.312 184.65608070150563 L 13.312 185.5200807015056 C 13.312 185.75741403483897, 13.425333333333333 185.90808070150564, 13.652 185.9720807015056 L 13.652 186.86408070150563 C 13.164 186.82674736817228, 12.808666666666667 186.69208070150563, 12.586 186.4600807015056 C 12.363333333333333 186.22808070150563, 12.245333333333335 185.86808070150562, 12.232 185.38008070150562 Z M 12.3 181.32808070150563 L 12.3 180.3960807015056 L 15.544 180.3960807015056 L 15.544 181.32808070150563 Z M 14.152000000000001 185.97608070150562 C 14.376000000000001 185.9200807015056, 14.492 185.76941403483895, 14.5 185.52408070150562 C 14.505333333333333 185.32141403483897, 14.508666666666667 185.1387473681723, 14.51 184.97608070150562 C 14.511333333333333 184.81341403483896, 14.506666666666668 184.65608070150563, 14.496 184.50408070150561 C 14.488 184.3467473681723, 14.440000000000001 184.21341403483896, 14.352 184.1040807015056 C 14.264 183.99474736817228, 14.097333333333335 183.94274736817226, 13.852 183.9480807015056 L 13.104 183.9560807015056 L 13.076 183.06408070150562 L 14.036 181.68008070150563 L 15.224 181.68008070150563 L 14.256 183.0320807015056 L 14.288 183.0320807015056 C 14.719999999999999 183.0320807015056, 15.036666666666665 183.15474736817228, 15.238 183.40008070150563 C 15.439333333333334 183.64541403483895, 15.552 184.02274736817228, 15.576 184.5320807015056 C 15.581333333333333 184.6040807015056, 15.584666666666667 184.6760807015056, 15.586 184.74808070150561 C 15.587333333333333 184.82008070150562, 15.588000000000001 184.8907473681723, 15.588000000000001 184.9600807015056 C 15.588000000000001 185.02941403483896, 15.587333333333333 185.0987473681723, 15.586 185.16808070150563 C 15.584666666666667 185.23741403483896, 15.581333333333333 185.30808070150562, 15.576 185.38008070150562 C 15.557333333333334 185.87608070150563, 15.436666666666667 186.2407473681723, 15.214 186.4740807015056 C 14.991333333333333 186.70741403483893, 14.638666666666666 186.83741403483896, 14.156 186.86408070150563 Z M 16.18 185.38008070150562 C 16.174666666666667 185.2067473681723, 16.173333333333332 185.06741403483895, 16.176 184.9620807015056 C 16.178666666666665 184.85674736817228, 16.181333333333335 184.7547473681723, 16.183999999999997 184.65608070150563 L 17.264 184.65608070150563 C 17.256 184.73341403483894, 17.25 184.82941403483895, 17.246 184.9440807015056 C 17.241999999999997 185.05874736817228, 17.240666666666666 185.16941403483895, 17.241999999999997 185.2760807015056 C 17.243333333333332 185.38274736817226, 17.246666666666666 185.46274736817227, 17.252 185.51608070150562 C 17.262666666666668 185.63608070150562, 17.297333333333334 185.73408070150563, 17.355999999999998 185.81008070150563 C 17.414666666666665 185.88608070150562, 17.497333333333334 185.94008070150562, 17.604 185.9720807015056 L 17.604 186.86408070150563 C 17.110666666666663 186.82674736817228, 16.75333333333333 186.69208070150563, 16.532 186.4600807015056 C 16.310666666666666 186.22808070150563, 16.19333333333333 185.86808070150562, 16.18 185.38008070150562 Z M 16.279999999999998 184.0440807015056 L 16.279999999999998 180.3960807015056 L 17.348 180.3960807015056 L 17.348 184.0440807015056 Z M 17.852 183.62008070150563 L 17.852 182.86408070150563 C 17.929333333333332 182.82408070150564, 18.014666666666667 182.79208070150563, 18.107999999999997 182.76808070150562 C 18.20133333333333 182.74408070150562, 18.301333333333332 182.73208070150562, 18.407999999999998 182.73208070150562 C 18.773333333333333 182.73208070150562, 19.047333333333334 182.84741403483895, 19.23 183.07808070150563 C 19.412666666666667 183.30874736817228, 19.514666666666663 183.62274736817227, 19.535999999999998 184.0200807015056 C 19.546666666666667 184.18008070150563, 19.55333333333333 184.33874736817228, 19.555999999999997 184.4960807015056 C 19.558666666666664 184.65341403483896, 19.557333333333332 184.8067473681723, 19.552 184.9560807015056 C 19.546666666666667 185.10541403483893, 19.538666666666668 185.24541403483894, 19.528 185.37608070150563 C 19.482666666666667 185.87474736817228, 19.353333333333335 186.2400807015056, 19.14 186.4720807015056 C 18.926666666666666 186.7040807015056, 18.581333333333333 186.8347473681723, 18.104 186.86408070150563 L 18.104 185.9720807015056 C 18.21333333333333 185.94274736817226, 18.296 185.8900807015056, 18.352 185.81408070150562 C 18.408 185.73808070150562, 18.44 185.6387473681723, 18.448 185.51608070150562 C 18.471999999999998 185.22541403483893, 18.485999999999997 184.96408070150562, 18.49 184.73208070150562 C 18.494 184.50008070150562, 18.485333333333333 184.27874736817228, 18.464 184.0680807015056 C 18.447999999999997 183.91341403483895, 18.396666666666665 183.79808070150563, 18.31 183.7220807015056 C 18.223333333333333 183.64608070150564, 18.090666666666664 183.60808070150563, 17.912 183.60808070150563 C 17.901333333333334 183.60808070150563, 17.890666666666668 183.60941403483895, 17.88 183.61208070150562 C 17.86933333333333 183.6147473681723, 17.86 183.61741403483893, 17.852 183.62008070150563 Z M 17.852 181.32808070150563 L 17.852 180.3960807015056 L 19.439999999999998 180.3960807015056 L 19.439999999999998 181.32808070150563 Z M 21.944 186.79608070150562 L 21.944 180.3960807015056 L 23.003999999999998 180.3960807015056 L 23.003999999999998 186.79608070150562 Z " stroke="none" fill-rule="nonzero" fill="#000000" fill-opacity="1" transform="matrix(1,0,0,1,5.05,13.314)" id="text35 l" />
  <path d="M 0 181.59047801145542 L 10 181.59047801145542 L 10 183.09047801145542 L 0 183.09047801145542 Z " stroke="none" fill-rule="evenodd" fill="#000000" fill-opacity="1" transform="matrix(1,0,0,1,5.05,13.314)" id="mark36 l" />
  <path d="M 0 175.30287532140525 L 10 175.30287532140525 L 10 176.80287532140525 L 0 176.80287532140525 Z " stroke="none" fill-rule="evenodd" fill="#000000" fill-opacity="1" transform="matrix(1,0,0,1,5.05,13.314)" id="mark37 l" />
  <path d="M 0 169.01527263135506 L 10 169.01527263135506 L 10 170.51527263135506 L 0 170.51527263135506 Z " stroke="none" fill-rule="evenodd" fill="#000000" fill-opacity="1" transform="matrix(1,0,0,1,5.05,13.314)" id="mark38 l" />
  <path d="M 0 162.72766994130487 L 10 162.72766994130487 L 10 164.22766994130487 L 0 164.22766994130487 Z " stroke="none" fill-rule="evenodd" fill="#000000" fill-opacity="1" transform="matrix(1,0,0,1,5.05,13.314)" id="mark39 l" />
  <path d="M 0 156.44006725125467 L 25 156.44006725125467 L 25 157.94006725125467 L 0 157.94006725125467 Z " stroke="none" fill-rule="evenodd" fill="#000000" fill-opacity="1" transform="matrix(1,0,0,1,5.05,13.314)" id="mark40 l" />
  <path d="M 11.739999999999998 153.7060672512547 L 11.739999999999998 152.8300672512547 L 12.455999999999998 150.9500672512547 L 13.495999999999999 150.9500672512547 L 12.771999999999998 152.7820672512547 L 13.171999999999997 152.7820672512547 L 13.171999999999997 153.7060672512547 Z M 13.675999999999998 155.3900672512547 L 13.675999999999998 148.9900672512547 L 14.683999999999997 148.9900672512547 L 14.683999999999997 155.3900672512547 Z M 15.187999999999999 153.7060672512547 L 15.187999999999999 152.7820672512547 L 15.655999999999999 152.7820672512547 L 15.655999999999999 153.7060672512547 Z M 16.195999999999998 153.97806725125469 C 16.188 153.54873391792134, 16.182666666666666 153.13206725125468, 16.18 152.72806725125469 C 16.177333333333333 152.3240672512547, 16.177999999999997 151.92873391792136, 16.182 151.54206725125468 C 16.186 151.15540058458802, 16.190666666666665 150.7740672512547, 16.195999999999998 150.3980672512547 C 16.20933333333333 149.9580672512547, 16.333999999999996 149.61273391792136, 16.569999999999997 149.3620672512547 C 16.805999999999997 149.11140058458804, 17.142666666666663 148.96606725125469, 17.58 148.9260672512547 L 17.58 149.8140672512547 C 17.382666666666665 149.8700672512547, 17.281333333333333 149.99940058458805, 17.275999999999996 150.2020672512547 C 17.262666666666664 150.57273391792137, 17.25333333333333 150.92073391792135, 17.247999999999998 151.2460672512547 C 17.242666666666665 151.57140058458802, 17.24 151.88806725125468, 17.24 152.1960672512547 C 17.24 152.5040672512547, 17.242666666666665 152.81873391792135, 17.247999999999998 153.1400672512547 C 17.25333333333333 153.46140058458803, 17.262666666666664 153.80473391792137, 17.275999999999996 154.1700672512547 C 17.281333333333333 154.3780672512547, 17.382666666666665 154.5100672512547, 17.58 154.56606725125468 L 17.58 155.45406725125468 C 17.142666666666663 155.4140672512547, 16.805999999999997 155.26806725125468, 16.569999999999997 155.0160672512547 C 16.333999999999996 154.7640672512547, 16.20933333333333 154.41806725125468, 16.195999999999998 153.97806725125469 Z M 18.084 155.45406725125468 L 18.084 154.5620672512547 C 18.268 154.50873391792135, 18.366666666666667 154.38473391792138, 18.38 154.1900672512547 C 18.398666666666664 153.72340058458803, 18.410666666666664 153.27473391792137, 18.415999999999997 152.8440672512547 C 18.42133333333333 152.41340058458803, 18.42133333333333 151.98273391792134, 18.415999999999997 151.5520672512547 C 18.410666666666664 151.121400584588, 18.398666666666664 150.66873391792134, 18.38 150.1940672512547 C 18.374666666666666 149.99940058458802, 18.276 149.87273391792135, 18.084 149.8140672512547 L 18.084 148.9260672512547 C 18.513333333333332 148.96606725125469, 18.846666666666664 149.11140058458804, 19.083999999999996 149.3620672512547 C 19.32133333333333 149.61273391792136, 19.44533333333333 149.9580672512547, 19.456 150.3980672512547 C 19.466666666666665 150.71273391792135, 19.474666666666664 151.02273391792136, 19.479999999999997 151.32806725125468 C 19.48533333333333 151.633400584588, 19.488 151.9340672512547, 19.488 152.2300672512547 C 19.488 152.5260672512547, 19.48533333333333 152.819400584588, 19.479999999999997 153.1100672512547 C 19.474666666666664 153.40073391792137, 19.466666666666665 153.6900672512547, 19.456 153.97806725125469 C 19.439999999999998 154.42873391792136, 19.311999999999998 154.777400584588, 19.072 155.02406725125468 C 18.831999999999997 155.27073391792135, 18.502666666666663 155.4140672512547, 18.084 155.45406725125468 Z M 21.944 155.3900672512547 L 21.944 148.9900672512547 L 23.003999999999998 148.9900672512547 L 23.003999999999998 155.3900672512547 Z " stroke="none" fill-rule="nonzero" fill="#000000" fill-opacity="1" transform="matrix(1,0,0,1,5.05,13.314)" id="text40 l" />
  <path d="M 0 150.1524645612045 L 10 150.1524645612045 L 10 151.6524645612045 L 0 151.6524645612045 Z " stroke="none" fill-rule="evenodd" fill="#000000" fill-opacity="1" transform="matrix(1,0,0,1,5.05,13.314)" id="mark41 l" />
  <path d="M 0 143.8648618711543 L 10 143.8648618711543 L 10 145.3648618711543 L 0 145.3648618711543 Z " stroke="none" fill-rule="evenodd" fill="#000000" fill-opacity="1" transform="matrix(1,0,0,1,5.05,13.314)" id="mark42 l" />
  <path d="M 0 137.57725918110413 L 10 137.57725918110413 L 10 139.07725918110413 L 0 139.07725918110413 Z " stroke="none" fill-rule="evenodd" fill="#000000" fill-opacity="1" transform="matrix(1,0,0,1,5.05,13.314)" id="mark43 l" />
  <path d="M 0 131.2896564910539 L 10 131.2896564910539 L 10 132.7896564910539 L 0 132.7896564910539 Z " stroke="none" fill-rule="evenodd" fill="#000000" fill-opacity="1" transform="matrix(1,0,0,1,5.05,13.314)" id="mark44 l" />
  <path d="M 0 125.00205380100374 L 25 125.00205380100374 L 25 126.50205380100374 L 0 126.50205380100374 Z " stroke="none" fill-rule="evenodd" fill="#000000" fill-opacity="1" transform="matrix(1,0,0,1,5.05,13.314)" id="mark45 l" />
  <path d="M 11.748 122.23605380100375 L 11.748 121.36005380100374 L 12.463999999999999 119.48005380100375 L 13.503999999999998 119.48005380100375 L 12.78 121.31205380100374 L 13.18 121.31205380100374 L 13.18 122.23605380100375 Z M 13.684 123.92005380100375 L 13.684 117.52005380100374 L 14.691999999999998 117.52005380100374 L 14.691999999999998 123.92005380100375 Z M 15.195999999999998 122.23605380100375 L 15.195999999999998 121.31205380100374 L 15.663999999999998 121.31205380100374 L 15.663999999999998 122.23605380100375 Z M 16.18 122.50405380100375 C 16.174666666666667 122.33072046767042, 16.173333333333332 122.19138713433708, 16.176 122.08605380100374 C 16.178666666666665 121.98072046767041, 16.181333333333335 121.8787204676704, 16.183999999999997 121.78005380100375 L 17.264 121.78005380100375 C 17.256 121.85738713433707, 17.25 121.95338713433708, 17.246 122.06805380100374 C 17.241999999999997 122.1827204676704, 17.240666666666666 122.29338713433708, 17.241999999999997 122.40005380100375 C 17.243333333333332 122.50672046767042, 17.246666666666666 122.58672046767042, 17.252 122.64005380100375 C 17.262666666666668 122.76005380100375, 17.297333333333334 122.85805380100375, 17.355999999999998 122.93405380100374 C 17.414666666666665 123.01005380100375, 17.497333333333334 123.06405380100375, 17.604 123.09605380100375 L 17.604 123.98805380100374 C 17.110666666666663 123.95072046767041, 16.75333333333333 123.81605380100375, 16.532 123.58405380100375 C 16.310666666666666 123.35205380100375, 16.19333333333333 122.99205380100375, 16.18 122.50405380100375 Z M 16.279999999999998 121.16805380100375 L 16.279999999999998 117.52005380100374 L 17.348 117.52005380100374 L 17.348 121.16805380100375 Z M 17.852 120.74405380100374 L 17.852 119.98805380100374 C 17.929333333333332 119.94805380100374, 18.014666666666667 119.91605380100373, 18.107999999999997 119.89205380100374 C 18.20133333333333 119.86805380100375, 18.301333333333332 119.85605380100375, 18.407999999999998 119.85605380100375 C 18.773333333333333 119.85605380100375, 19.047333333333334 119.97138713433708, 19.23 120.20205380100374 C 19.412666666666667 120.4327204676704, 19.514666666666663 120.74672046767041, 19.535999999999998 121.14405380100375 C 19.546666666666667 121.30405380100375, 19.55333333333333 121.46272046767041, 19.555999999999997 121.62005380100375 C 19.558666666666664 121.77738713433709, 19.557333333333332 121.93072046767041, 19.552 122.08005380100374 C 19.546666666666667 122.22938713433707, 19.538666666666668 122.36938713433707, 19.528 122.50005380100374 C 19.482666666666667 122.99872046767041, 19.353333333333335 123.36405380100373, 19.14 123.59605380100375 C 18.926666666666666 123.82805380100373, 18.581333333333333 123.95872046767042, 18.104 123.98805380100374 L 18.104 123.09605380100375 C 18.21333333333333 123.06672046767042, 18.296 123.01405380100375, 18.352 122.93805380100375 C 18.408 122.86205380100374, 18.44 122.7627204676704, 18.448 122.64005380100375 C 18.471999999999998 122.34938713433708, 18.485999999999997 122.08805380100375, 18.49 121.85605380100375 C 18.494 121.62405380100375, 18.485333333333333 121.4027204676704, 18.464 121.19205380100375 C 18.447999999999997 121.03738713433708, 18.396666666666665 120.92205380100376, 18.31 120.84605380100375 C 18.223333333333333 120.77005380100374, 18.090666666666664 120.73205380100373, 17.912 120.73205380100374 C 17.901333333333334 120.73205380100373, 17.890666666666668 120.73338713433708, 17.88 120.73605380100375 C 17.86933333333333 120.73872046767042, 17.86 120.74138713433709, 17.852 120.74405380100374 Z M 17.852 118.45205380100374 L 17.852 117.52005380100374 L 19.439999999999998 117.52005380100374 L 19.439999999999998 118.45205380100374 Z M 21.944 123.92005380100375 L 21.944 117.52005380100374 L 23.003999999999998 117.52005380100374 L 23.003999999999998 123.92005380100375 Z " stroke="none" fill-rule="nonzero" fill="#000000" fill-opacity="1" transform="matrix(1,0,0,1,5.05,13.314)" id="text45 l" />
  <path d="M 0 118.71445111095358 L 10 118.71445111095358 L 10 120.21445111095358 L 0 120.21445111095358 Z " stroke="none" fill-rule="evenodd" fill="#000000" fill-opacity="1" transform="matrix(1,0,0,1,5.05,13.314)" id="mark46 l" />
  <path d="M 0 112.42684842090335 L 10 112.42684842090335 L 10 113.92684842090335 L 0 113.92684842090335 Z " stroke="none" fill-rule="evenodd" fill="#000000" fill-opacity="1" transform="matrix(1,0,0,1,5.05,13.314)" id="mark47 l" />
  <path d="M 0 106.13924573085319 L 10 106.13924573085319 L 10 107.63924573085319 L 0 107.63924573085319 Z " stroke="none" fill-rule="evenodd" fill="#000000" fill-opacity="1" transform="matrix(1,0,0,1,5.05,13.314)" id="mark48 l" />
  <path d="M 0 99.85164304080297 L 10 99.85164304080297 L 10 101.35164304080297 L 0 101.35164304080297 Z " stroke="none" fill-rule="evenodd" fill="#000000" fill-opacity="1" transform="matrix(1,0,0,1,5.05,13.314)" id="mark49 l" />
  <path d="M 0 93.5640403507528 L 25 93.5640403507528 L 25 95.0640403507528 L 0 95.0640403507528 Z " stroke="none" fill-rule="evenodd" fill="#000000" fill-opacity="1" transform="matrix(1,0,0,1,5.05,13.314)" id="mark50 l" />
  <path d="M 12.204 91.09804035075281 C 12.198666666666668 90.92470701741948, 12.197333333333333 90.78537368408614, 12.2 90.6800403507528 C 12.202666666666667 90.57470701741947, 12.205333333333336 90.47270701741948, 12.208 90.37404035075281 L 13.288 90.37404035075281 C 13.280000000000001 90.45137368408615, 13.274000000000001 90.54737368408614, 13.27 90.6620403507528 C 13.265999999999998 90.77670701741947, 13.264666666666667 90.88737368408614, 13.266 90.99404035075281 C 13.267333333333333 91.10070701741948, 13.270666666666667 91.18070701741948, 13.276 91.2340403507528 C 13.286666666666665 91.35404035075281, 13.321333333333332 91.45204035075281, 13.379999999999999 91.5280403507528 C 13.438666666666666 91.60404035075281, 13.521333333333335 91.65804035075281, 13.628 91.69004035075281 L 13.628 92.5820403507528 C 13.134666666666668 92.54470701741947, 12.777333333333335 92.41004035075281, 12.556 92.17804035075281 C 12.334666666666667 91.94604035075281, 12.217333333333332 91.58604035075281, 12.204 91.09804035075281 Z M 12.304 89.76204035075281 L 12.304 86.1140403507528 L 13.372 86.1140403507528 L 13.372 89.76204035075281 Z M 13.876 89.3380403507528 L 13.876 88.5820403507528 C 13.953333333333333 88.5420403507528, 14.038666666666668 88.5100403507528, 14.132 88.4860403507528 C 14.225333333333333 88.4620403507528, 14.325333333333333 88.4500403507528, 14.432 88.4500403507528 C 14.797333333333334 88.4500403507528, 15.071333333333332 88.56537368408614, 15.254 88.7960403507528 C 15.436666666666667 89.02670701741947, 15.538666666666668 89.34070701741948, 15.56 89.73804035075281 C 15.570666666666668 89.89804035075281, 15.577333333333334 90.05670701741947, 15.58 90.21404035075281 C 15.582666666666666 90.37137368408614, 15.581333333333333 90.52470701741947, 15.576 90.6740403507528 C 15.570666666666666 90.82337368408614, 15.562666666666665 90.96337368408614, 15.552 91.0940403507528 C 15.506666666666668 91.59270701741947, 15.377333333333333 91.95804035075281, 15.164 92.19004035075281 C 14.950666666666667 92.42204035075281, 14.605333333333332 92.55270701741948, 14.128 92.5820403507528 L 14.128 91.69004035075281 C 14.237333333333334 91.66070701741948, 14.32 91.60804035075282, 14.376 91.53204035075281 C 14.432 91.4560403507528, 14.464 91.35670701741947, 14.472 91.2340403507528 C 14.495999999999999 90.94337368408614, 14.509999999999998 90.68204035075281, 14.514 90.4500403507528 C 14.518 90.2180403507528, 14.509333333333334 89.99670701741948, 14.488 89.78604035075281 C 14.472000000000001 89.63137368408616, 14.420666666666666 89.51604035075282, 14.334 89.44004035075281 C 14.247333333333334 89.3640403507528, 14.114666666666666 89.3260403507528, 13.936 89.3260403507528 C 13.925333333333333 89.3260403507528, 13.914666666666665 89.32737368408614, 13.904 89.33004035075281 C 13.893333333333334 89.33270701741947, 13.884 89.33537368408614, 13.876 89.3380403507528 Z M 13.876 87.0460403507528 L 13.876 86.1140403507528 L 15.464 86.1140403507528 L 15.464 87.0460403507528 Z M 16.196 91.1020403507528 C 16.188000000000002 90.67270701741947, 16.182666666666666 90.25604035075281, 16.18 89.8520403507528 C 16.177333333333333 89.4480403507528, 16.177999999999997 89.05270701741946, 16.182 88.66604035075281 C 16.186 88.27937368408615, 16.190666666666665 87.89804035075281, 16.196 87.5220403507528 C 16.209333333333333 87.0820403507528, 16.334000000000003 86.73670701741948, 16.57 86.4860403507528 C 16.805999999999997 86.23537368408614, 17.142666666666663 86.09004035075282, 17.58 86.05004035075281 L 17.58 86.93804035075281 C 17.382666666666665 86.99404035075281, 17.281333333333333 87.12337368408613, 17.276 87.3260403507528 C 17.262666666666668 87.69670701741947, 17.253333333333334 88.04470701741947, 17.248 88.3700403507528 C 17.242666666666665 88.69537368408614, 17.24 89.0120403507528, 17.24 89.3200403507528 C 17.24 89.62804035075281, 17.242666666666665 89.94270701741948, 17.248 90.26404035075281 C 17.253333333333334 90.58537368408614, 17.262666666666668 90.92870701741947, 17.276 91.29404035075281 C 17.281333333333333 91.50204035075281, 17.382666666666665 91.63404035075281, 17.58 91.69004035075281 L 17.58 92.5780403507528 C 17.142666666666663 92.53804035075281, 16.805999999999997 92.39204035075281, 16.57 92.14004035075281 C 16.334000000000003 91.88804035075282, 16.209333333333333 91.54204035075281, 16.196 91.1020403507528 Z M 18.084 92.5780403507528 L 18.084 91.6860403507528 C 18.268 91.63270701741948, 18.366666666666667 91.50870701741948, 18.38 91.3140403507528 C 18.398666666666667 90.84737368408614, 18.410666666666668 90.39870701741947, 18.416 89.9680403507528 C 18.421333333333333 89.53737368408613, 18.421333333333333 89.10670701741948, 18.416 88.67604035075281 C 18.410666666666668 88.24537368408615, 18.398666666666667 87.79270701741947, 18.38 87.31804035075281 C 18.374666666666666 87.12337368408615, 18.276 86.99670701741948, 18.084 86.93804035075281 L 18.084 86.05004035075281 C 18.513333333333335 86.09004035075282, 18.846666666666668 86.23537368408614, 19.084 86.4860403507528 C 19.321333333333335 86.73670701741948, 19.445333333333334 87.0820403507528, 19.456 87.5220403507528 C 19.46666666666667 87.83670701741947, 19.474666666666668 88.14670701741947, 19.48 88.45204035075281 C 19.485333333333333 88.75737368408615, 19.488 89.0580403507528, 19.488 89.35404035075281 C 19.488 89.65004035075282, 19.485333333333333 89.94337368408614, 19.48 90.2340403507528 C 19.474666666666668 90.52470701741947, 19.46666666666667 90.8140403507528, 19.456 91.1020403507528 C 19.439999999999998 91.55270701741946, 19.311999999999998 91.90137368408614, 19.072 92.14804035075281 C 18.832 92.39470701741948, 18.502666666666666 92.53804035075281, 18.084 92.5780403507528 Z M 21.944 92.51404035075281 L 21.944 86.1140403507528 L 23.003999999999998 86.1140403507528 L 23.003999999999998 92.51404035075281 Z " stroke="none" fill-rule="nonzero" fill="#000000" fill-opacity="1" transform="matrix(1,0,0,1,5.05,13.314)" id="text50 l" />
  <path d="M 0 87.27643766070264 L 10 87.27643766070264 L 10 88.77643766070264 L 0 88.77643766070264 Z " stroke="none" fill-rule="evenodd" fill="#000000" fill-opacity="1" transform="matrix(1,0,0,1,5.05,13.314)" id="mark51 l" />
  <path d="M 0 80.98883497065242 L 10 80.98883497065242 L 10 82.48883497065242 L 0 82.48883497065242 Z " stroke="none" fill-rule="evenodd" fill="#000000" fill-opacity="1" transform="matrix(1,0,0,1,5.05,13.314)" id="mark52 l" />
  <path d="M 0 74.70123228060226 L 10 74.70123228060226 L 10 76.20123228060226 L 0 76.20123228060226 Z " stroke="none" fill-rule="evenodd" fill="#000000" fill-opacity="1" transform="matrix(1,0,0,1,5.05,13.314)" id="mark53 l" />
  <path d="M 0 68.41362959055209 L 10 68.41362959055209 L 10 69.91362959055209 L 0 69.91362959055209 Z " stroke="none" fill-rule="evenodd" fill="#000000" fill-opacity="1" transform="matrix(1,0,0,1,5.05,13.314)" id="mark54 l" />
  <path d="M 0 62.12602690050187 L 25 62.12602690050187 L 25 63.62602690050187 L 0 63.62602690050187 Z " stroke="none" fill-rule="evenodd" fill="#000000" fill-opacity="1" transform="matrix(1,0,0,1,5.05,13.314)" id="mark55 l" />
  <path d="M 12.212 59.62802690050187 C 12.206666666666667 59.45469356716853, 12.205333333333332 59.31536023383519, 12.207999999999998 59.210026900501866 C 12.210666666666667 59.10469356716854, 12.213333333333335 59.002693567168535, 12.216 58.90402690050187 L 13.296 58.90402690050187 C 13.288 58.981360233835204, 13.282 59.0773602338352, 13.277999999999999 59.19202690050187 C 13.273999999999997 59.30669356716854, 13.272666666666666 59.4173602338352, 13.274 59.524026900501866 C 13.275333333333332 59.630693567168535, 13.278666666666666 59.71069356716853, 13.283999999999999 59.76402690050187 C 13.294666666666664 59.884026900501865, 13.32933333333333 59.982026900501864, 13.387999999999998 60.05802690050187 C 13.446666666666665 60.134026900501865, 13.529333333333334 60.18802690050187, 13.636 60.22002690050187 L 13.636 61.11202690050187 C 13.142666666666667 61.07469356716854, 12.785333333333334 60.94002690050187, 12.563999999999998 60.70802690050187 C 12.342666666666666 60.47602690050187, 12.225333333333332 60.11602690050187, 12.212 59.62802690050187 Z M 12.312 58.29202690050187 L 12.312 54.64402690050187 L 13.379999999999999 54.64402690050187 L 13.379999999999999 58.29202690050187 Z M 13.883999999999999 57.86802690050187 L 13.883999999999999 57.11202690050187 C 13.961333333333332 57.07202690050187, 14.046666666666667 57.04002690050187, 14.139999999999999 57.01602690050187 C 14.233333333333333 56.99202690050187, 14.333333333333332 56.98002690050187, 14.44 56.98002690050187 C 14.805333333333333 56.98002690050187, 15.07933333333333 57.0953602338352, 15.261999999999999 57.32602690050187 C 15.444666666666667 57.55669356716854, 15.546666666666667 57.87069356716853, 15.568 58.268026900501866 C 15.578666666666667 58.42802690050186, 15.585333333333333 58.58669356716854, 15.588 58.74402690050187 C 15.590666666666666 58.901360233835206, 15.589333333333332 59.054693567168535, 15.584 59.204026900501866 C 15.578666666666665 59.353360233835204, 15.570666666666664 59.493360233835205, 15.559999999999999 59.62402690050187 C 15.514666666666667 60.12269356716854, 15.385333333333332 60.48802690050188, 15.171999999999999 60.72002690050187 C 14.958666666666666 60.95202690050188, 14.613333333333332 61.08269356716853, 14.136 61.11202690050187 L 14.136 60.22002690050187 C 14.245333333333333 60.19069356716854, 14.328 60.13802690050187, 14.383999999999999 60.06202690050187 C 14.44 59.98602690050187, 14.472 59.886693567168535, 14.479999999999999 59.76402690050187 C 14.503999999999998 59.4733602338352, 14.517999999999997 59.21202690050187, 14.521999999999998 58.98002690050187 C 14.526 58.74802690050187, 14.517333333333333 58.526693567168536, 14.495999999999999 58.31602690050187 C 14.48 58.161360233835204, 14.428666666666665 58.04602690050187, 14.341999999999999 57.97002690050187 C 14.255333333333333 57.89402690050187, 14.122666666666666 57.856026900501874, 13.943999999999999 57.85602690050187 C 13.933333333333332 57.856026900501874, 13.922666666666665 57.85736023383521, 13.911999999999999 57.86002690050187 C 13.901333333333334 57.862693567168535, 13.892 57.865360233835204, 13.883999999999999 57.86802690050187 Z M 13.883999999999999 55.57602690050187 L 13.883999999999999 54.64402690050187 L 15.472 54.64402690050187 L 15.472 55.57602690050187 Z M 16.18 59.62802690050187 C 16.174666666666667 59.45469356716853, 16.173333333333332 59.31536023383519, 16.176 59.210026900501866 C 16.178666666666665 59.10469356716854, 16.181333333333335 59.002693567168535, 16.183999999999997 58.90402690050187 L 17.264 58.90402690050187 C 17.256 58.981360233835204, 17.25 59.0773602338352, 17.246 59.19202690050187 C 17.241999999999997 59.30669356716854, 17.240666666666666 59.4173602338352, 17.241999999999997 59.524026900501866 C 17.243333333333332 59.630693567168535, 17.246666666666666 59.71069356716853, 17.252 59.76402690050187 C 17.262666666666668 59.884026900501865, 17.297333333333334 59.982026900501864, 17.355999999999998 60.05802690050187 C 17.414666666666665 60.134026900501865, 17.497333333333334 60.18802690050187, 17.604 60.22002690050187 L 17.604 61.11202690050187 C 17.110666666666663 61.07469356716854, 16.75333333333333 60.94002690050187, 16.532 60.70802690050187 C 16.310666666666666 60.47602690050187, 16.19333333333333 60.11602690050187, 16.18 59.62802690050187 Z M 16.279999999999998 58.29202690050187 L 16.279999999999998 54.64402690050187 L 17.348 54.64402690050187 L 17.348 58.29202690050187 Z M 17.852 57.86802690050187 L 17.852 57.11202690050187 C 17.929333333333332 57.07202690050187, 18.014666666666667 57.04002690050187, 18.107999999999997 57.01602690050187 C 18.20133333333333 56.99202690050187, 18.301333333333332 56.98002690050187, 18.407999999999998 56.98002690050187 C 18.773333333333333 56.98002690050187, 19.047333333333334 57.0953602338352, 19.23 57.32602690050187 C 19.412666666666667 57.55669356716854, 19.514666666666663 57.87069356716853, 19.535999999999998 58.268026900501866 C 19.546666666666667 58.42802690050186, 19.55333333333333 58.58669356716854, 19.555999999999997 58.74402690050187 C 19.558666666666664 58.901360233835206, 19.557333333333332 59.054693567168535, 19.552 59.204026900501866 C 19.546666666666667 59.353360233835204, 19.538666666666668 59.493360233835205, 19.528 59.62402690050187 C 19.482666666666667 60.12269356716854, 19.353333333333335 60.48802690050188, 19.14 60.72002690050187 C 18.926666666666666 60.95202690050188, 18.581333333333333 61.08269356716853, 18.104 61.11202690050187 L 18.104 60.22002690050187 C 18.21333333333333 60.19069356716854, 18.296 60.13802690050187, 18.352 60.06202690050187 C 18.408 59.98602690050187, 18.44 59.886693567168535, 18.448 59.76402690050187 C 18.471999999999998 59.4733602338352, 18.485999999999997 59.21202690050187, 18.49 58.98002690050187 C 18.494 58.74802690050187, 18.485333333333333 58.526693567168536, 18.464 58.31602690050187 C 18.447999999999997 58.161360233835204, 18.396666666666665 58.04602690050187, 18.31 57.97002690050187 C 18.223333333333333 57.89402690050187, 18.090666666666664 57.856026900501874, 17.912 57.85602690050187 C 17.901333333333334 57.856026900501874, 17.890666666666668 57.85736023383521, 17.88 57.86002690050187 C 17.86933333333333 57.862693567168535, 17.86 57.865360233835204, 17.852 57.86802690050187 Z M 17.852 55.57602690050187 L 17.852 54.64402690050187 L 19.439999999999998 54.64402690050187 L 19.439999999999998 55.57602690050187 Z M 21.944 61.04402690050187 L 21.944 54.64402690050187 L 23.003999999999998 54.64402690050187 L 23.003999999999998 61.04402690050187 Z " stroke="none" fill-rule="nonzero" fill="#000000" fill-opacity="1" transform="matrix(1,0,0,1,5.05,13.314)" id="text55 l" />
  <path d="M 0 55.838424210451706 L 10 55.838424210451706 L 10 57.338424210451706 L 0 57.338424210451706 Z " stroke="none" fill-rule="evenodd" fill="#000000" fill-opacity="1" transform="matrix(1,0,0,1,5.05,13.314)" id="mark56 l" />
  <path d="M 0 49.550821520401485 L 10 49.550821520401485 L 10 51.050821520401485 L 0 51.050821520401485 Z " stroke="none" fill-rule="evenodd" fill="#000000" fill-opacity="1" transform="matrix(1,0,0,1,5.05,13.314)" id="mark57 l" />
  <path d="M 0 43.26321883035132 L 10 43.26321883035132 L 10 44.76321883035132 L 0 44.76321883035132 Z " stroke="none" fill-rule="evenodd" fill="#000000" fill-opacity="1" transform="matrix(1,0,0,1,5.05,13.314)" id="mark58 l" />
  <path d="M 0 36.975616140301156 L 10 36.975616140301156 L 10 38.475616140301156 L 0 38.475616140301156 Z " stroke="none" fill-rule="evenodd" fill="#000000" fill-opacity="1" transform="matrix(1,0,0,1,5.05,13.314)" id="mark59 l" />
  <path d="M 0 30.688013450250935 L 25 30.688013450250935 L 25 32.188013450250935 L 0 32.188013450250935 Z " stroke="none" fill-rule="evenodd" fill="#000000" fill-opacity="1" transform="matrix(1,0,0,1,5.05,13.314)" id="mark60 l" />
  <path d="M 12.264 28.222013450250934 C 12.261333333333333 27.95801345025093, 12.258 27.6806801169176, 12.254 27.390013450250933 C 12.25 27.099346783584267, 12.248 26.800680116917597, 12.248 26.494013450250932 C 12.248 26.187346783584267, 12.249333333333333 25.879346783584268, 12.251999999999999 25.570013450250933 C 12.254666666666665 25.260680116917598, 12.258666666666667 24.9526801169176, 12.264 24.646013450250933 C 12.271999999999998 24.182013450250935, 12.397333333333332 23.830013450250934, 12.639999999999999 23.590013450250936 C 12.882666666666665 23.350013450250934, 13.215999999999998 23.21134678358427, 13.639999999999999 23.174013450250932 L 13.639999999999999 24.066013450250935 C 13.543999999999997 24.090013450250936, 13.470666666666665 24.134013450250933, 13.419999999999998 24.198013450250933 C 13.369333333333332 24.262013450250933, 13.343999999999998 24.347346783584264, 13.344 24.454013450250933 C 13.335999999999999 24.942013450250933, 13.330666666666666 25.4086801169176, 13.328 25.854013450250935 C 13.325333333333333 26.29934678358427, 13.323999999999998 26.732680116917603, 13.323999999999998 27.154013450250936 C 13.323999999999998 27.57534678358427, 13.328 27.990013450250935, 13.335999999999999 28.398013450250936 C 13.335999999999999 28.507346783584268, 13.363333333333333 28.596680116917604, 13.418 28.666013450250933 C 13.472666666666665 28.73534678358427, 13.549333333333333 28.7846801169176, 13.648 28.814013450250933 L 13.648 29.706013450250936 C 13.159999999999998 29.674013450250932, 12.809333333333331 29.542013450250934, 12.595999999999998 29.310013450250935 C 12.382666666666665 29.078013450250936, 12.271999999999998 28.715346783584266, 12.264 28.222013450250934 Z M 13.812 26.542013450250934 L 13.812 25.798013450250934 C 13.894666666666666 25.750013450250933, 13.987333333333332 25.7126801169176, 14.09 25.686013450250933 C 14.192666666666668 25.659346783584265, 14.301333333333332 25.646013450250933, 14.415999999999999 25.646013450250933 C 14.84 25.646013450250933, 15.134 25.745346783584267, 15.297999999999998 25.944013450250935 C 15.462 26.142680116917603, 15.547999999999998 26.474013450250936, 15.556 26.938013450250935 C 15.561333333333334 27.122013450250932, 15.564666666666666 27.27734678358427, 15.565999999999999 27.404013450250936 C 15.567333333333332 27.5306801169176, 15.567333333333332 27.65534678358427, 15.565999999999999 27.778013450250935 C 15.564666666666666 27.900680116917606, 15.559999999999999 28.048680116917602, 15.552 28.222013450250934 C 15.527999999999999 28.712680116917603, 15.408 29.075346783584266, 15.192 29.310013450250935 C 14.975999999999999 29.544680116917604, 14.628 29.676680116917602, 14.148 29.706013450250936 L 14.148 28.822013450250935 C 14.251999999999999 28.7926801169176, 14.331333333333333 28.7446801169176, 14.386 28.678013450250933 C 14.440666666666665 28.611346783584267, 14.469333333333333 28.5246801169176, 14.472 28.418013450250935 C 14.477333333333332 28.263346783584268, 14.481333333333332 28.124680116917602, 14.483999999999998 28.002013450250935 C 14.486666666666666 27.879346783584268, 14.489333333333335 27.762013450250933, 14.491999999999999 27.650013450250935 C 14.494666666666667 27.538013450250936, 14.495333333333333 27.426680116917602, 14.494 27.316013450250935 C 14.492666666666667 27.205346783584268, 14.489333333333333 27.0886801169176, 14.483999999999998 26.966013450250934 C 14.481333333333332 26.816680116917603, 14.429333333333332 26.706013450250936, 14.328 26.634013450250933 C 14.226666666666665 26.562013450250937, 14.094666666666665 26.526013450250936, 13.931999999999999 26.526013450250936 C 13.913333333333334 26.526013450250936, 13.894 26.526680116917603, 13.873999999999999 26.528013450250935 C 13.854 26.529346783584266, 13.833333333333332 26.534013450250935, 13.812 26.542013450250934 Z M 14.44 25.222013450250934 C 14.448 25.1286801169176, 14.452666666666666 25.0466801169176, 14.453999999999999 24.976013450250935 C 14.455333333333332 24.905346783584264, 14.454666666666665 24.83001345025093, 14.451999999999998 24.750013450250933 C 14.449333333333332 24.670013450250934, 14.445333333333334 24.571346783584268, 14.44 24.454013450250933 C 14.434666666666665 24.355346783584267, 14.407999999999998 24.272013450250935, 14.36 24.204013450250933 C 14.311999999999998 24.136013450250935, 14.238666666666665 24.090013450250936, 14.139999999999999 24.066013450250935 L 14.139999999999999 23.178013450250933 C 14.577333333333332 23.218013450250933, 14.911333333333332 23.362680116917602, 15.142 23.612013450250934 C 15.372666666666667 23.861346783584267, 15.495999999999999 24.188680116917602, 15.511999999999999 24.594013450250934 C 15.514666666666667 24.660680116917604, 15.516666666666666 24.724013450250936, 15.517999999999999 24.784013450250935 C 15.519333333333332 24.844013450250934, 15.519333333333332 24.908013450250934, 15.517999999999999 24.976013450250935 C 15.516666666666666 25.044013450250937, 15.514666666666667 25.126013450250937, 15.511999999999999 25.222013450250934 Z M 16.196 28.226013450250935 C 16.188000000000002 27.7966801169176, 16.182666666666666 27.380013450250935, 16.18 26.976013450250935 C 16.177333333333333 26.572013450250935, 16.177999999999997 26.176680116917602, 16.182 25.790013450250935 C 16.186 25.40334678358427, 16.190666666666665 25.02201345025093, 16.196 24.646013450250933 C 16.209333333333333 24.206013450250936, 16.334000000000003 23.8606801169176, 16.57 23.610013450250932 C 16.805999999999997 23.359346783584265, 17.142666666666663 23.21401345025093, 17.58 23.174013450250932 L 17.58 24.062013450250934 C 17.382666666666665 24.118013450250935, 17.281333333333333 24.247346783584266, 17.276 24.450013450250935 C 17.262666666666668 24.8206801169176, 17.253333333333334 25.1686801169176, 17.248 25.494013450250932 C 17.242666666666665 25.81934678358427, 17.24 26.136013450250935, 17.24 26.444013450250935 C 17.24 26.752013450250935, 17.242666666666665 27.066680116917603, 17.248 27.388013450250934 C 17.253333333333334 27.709346783584266, 17.262666666666668 28.0526801169176, 17.276 28.418013450250935 C 17.281333333333333 28.626013450250934, 17.382666666666665 28.758013450250935, 17.58 28.814013450250933 L 17.58 29.702013450250934 C 17.142666666666663 29.66201345025093, 16.805999999999997 29.516013450250934, 16.57 29.264013450250935 C 16.334000000000003 29.012013450250937, 16.209333333333333 28.666013450250937, 16.196 28.226013450250935 Z M 18.084 29.702013450250934 L 18.084 28.810013450250935 C 18.268 28.7566801169176, 18.366666666666667 28.632680116917598, 18.38 28.438013450250935 C 18.398666666666667 27.971346783584266, 18.410666666666668 27.522680116917602, 18.416 27.092013450250935 C 18.421333333333333 26.661346783584268, 18.421333333333333 26.2306801169176, 18.416 25.800013450250933 C 18.410666666666668 25.36934678358427, 18.398666666666667 24.916680116917604, 18.38 24.442013450250933 C 18.374666666666666 24.24734678358427, 18.276 24.120680116917605, 18.084 24.062013450250934 L 18.084 23.174013450250932 C 18.513333333333335 23.21401345025093, 18.846666666666668 23.359346783584265, 19.084 23.610013450250932 C 19.321333333333335 23.8606801169176, 19.445333333333334 24.206013450250936, 19.456 24.646013450250933 C 19.46666666666667 24.9606801169176, 19.474666666666668 25.270680116917603, 19.48 25.576013450250933 C 19.485333333333333 25.88134678358427, 19.488 26.182013450250935, 19.488 26.478013450250934 C 19.488 26.774013450250933, 19.485333333333333 27.06734678358427, 19.48 27.358013450250933 C 19.474666666666668 27.648680116917603, 19.46666666666667 27.938013450250935, 19.456 28.226013450250935 C 19.439999999999998 28.676680116917602, 19.311999999999998 29.02534678358427, 19.072 29.272013450250935 C 18.832 29.5186801169176, 18.502666666666666 29.66201345025093, 18.084 29.702013450250934 Z M 21.944 29.638013450250934 L 21.944 23.238013450250932 L 23.003999999999998 23.238013450250932 L 23.003999999999998 29.638013450250934 Z " stroke="none" fill-rule="nonzero" fill="#000000" fill-opacity="1" transform="matrix(1,0,0,1,5.05,13.314)" id="text60 l" />
  <path d="M 0 24.40041076020077 L 10 24.40041076020077 L 10 25.90041076020077 L 0 25.90041076020077 Z " stroke="none" fill-rule="evenodd" fill="#000000" fill-opacity="1" transform="matrix(1,0,0,1,5.05,13.314)" id="mark61 l" />
  <path d="M 0 18.11280807015055 L 10 18.11280807015055 L 10 19.61280807015055 L 0 19.61280807015055 Z " stroke="none" fill-rule="evenodd" fill="#000000" fill-opacity="1" transform="matrix(1,0,0,1,5.05,13.314)" id="mark62 l" />
  <path d="M 0 11.825205380100385 L 10 11.825205380100385 L 10 13.325205380100385 L 0 13.325205380100385 Z " stroke="none" fill-rule="evenodd" fill="#000000" fill-opacity="1" transform="matrix(1,0,0,1,5.05,13.314)" id="mark63 l" />
  <path d="M 0 5.537602690050221 L 10 5.537602690050221 L 10 7.037602690050221 L 0 7.037602690050221 Z " stroke="none" fill-rule="evenodd" fill="#000000" fill-opacity="1" transform="matrix(1,0,0,1,5.05,13.314)" id="mark64 l" />
  <path d="M 0 -0.75 L 25 -0.75 L 25 0.75 L 0 0.75 Z " stroke="none" fill-rule="evenodd" fill="#000000" fill-opacity="1" transform="matrix(1,0,0,1,5.05,13.314)" id="mark65 l" />
  <path d="M 12.272 -3.2159999999999997 C 12.269333333333332 -3.4799999999999995, 12.266 -3.7573333333333334, 12.262 -4.048 C 12.258000000000001 -4.338666666666667, 12.256 -4.637333333333333, 12.256 -4.944 C 12.256 -5.250666666666667, 12.257333333333335 -5.558666666666666, 12.26 -5.867999999999999 C 12.262666666666668 -6.1773333333333325, 12.266666666666666 -6.485333333333333, 12.272 -6.792 C 12.280000000000001 -7.256, 12.405333333333335 -7.6080000000000005, 12.648 -7.848 C 12.890666666666668 -8.088000000000001, 13.224 -8.226666666666667, 13.648 -8.264 L 13.648 -7.372 C 13.552 -7.347999999999999, 13.478666666666665 -7.303999999999999, 13.428 -7.239999999999999 C 13.377333333333333 -7.176, 13.352 -7.090666666666667, 13.352 -6.984 C 13.344 -6.496, 13.338666666666665 -6.029333333333334, 13.336 -5.584 C 13.333333333333332 -5.1386666666666665, 13.332 -4.705333333333334, 13.332 -4.284 C 13.332 -3.8626666666666667, 13.335999999999999 -3.4480000000000004, 13.344 -3.04 C 13.343999999999998 -2.9306666666666668, 13.371333333333332 -2.841333333333333, 13.426 -2.772 C 13.480666666666666 -2.7026666666666666, 13.557333333333332 -2.653333333333333, 13.656 -2.6239999999999997 L 13.656 -1.7319999999999998 C 13.168 -1.7639999999999998, 12.817333333333334 -1.896, 12.604 -2.1279999999999997 C 12.390666666666668 -2.36, 12.280000000000001 -2.7226666666666666, 12.272 -3.2159999999999997 Z M 13.82 -4.896 L 13.82 -5.64 C 13.902666666666665 -5.688, 13.995333333333331 -5.725333333333333, 14.097999999999999 -5.752 C 14.200666666666667 -5.778666666666666, 14.309333333333333 -5.792, 14.424 -5.792 C 14.848 -5.792, 15.142000000000001 -5.692666666666666, 15.306000000000001 -5.494 C 15.47 -5.295333333333334, 15.556000000000001 -4.964, 15.564 -4.5 C 15.569333333333333 -4.316000000000001, 15.572666666666667 -4.160666666666667, 15.574 -4.034 C 15.575333333333333 -3.907333333333333, 15.575333333333333 -3.7826666666666666, 15.574 -3.6599999999999997 C 15.572666666666667 -3.5373333333333337, 15.567999999999998 -3.389333333333333, 15.56 -3.2159999999999997 C 15.536000000000001 -2.7253333333333334, 15.416 -2.3626666666666667, 15.2 -2.1279999999999997 C 14.984 -1.893333333333333, 14.636 -1.7613333333333332, 14.156 -1.7319999999999998 L 14.156 -2.6159999999999997 C 14.259999999999998 -2.6453333333333333, 14.339333333333332 -2.6933333333333334, 14.394 -2.76 C 14.448666666666666 -2.826666666666666, 14.477333333333334 -2.913333333333333, 14.48 -3.0199999999999996 C 14.485333333333333 -3.174666666666666, 14.489333333333335 -3.313333333333333, 14.492 -3.436 C 14.494666666666667 -3.558666666666667, 14.497333333333334 -3.676, 14.5 -3.788 C 14.502666666666666 -3.9, 14.503333333333332 -4.011333333333333, 14.501999999999999 -4.122 C 14.500666666666666 -4.232666666666667, 14.497333333333334 -4.349333333333333, 14.492 -4.4719999999999995 C 14.489333333333335 -4.621333333333333, 14.437333333333335 -4.732, 14.336 -4.804 C 14.234666666666666 -4.876, 14.102666666666666 -4.912, 13.94 -4.912 C 13.921333333333333 -4.912, 13.902000000000001 -4.911333333333333, 13.882 -4.91 C 13.862000000000002 -4.908666666666667, 13.841333333333335 -4.904, 13.82 -4.896 Z M 14.448 -6.216 C 14.456 -6.309333333333333, 14.460666666666668 -6.391333333333333, 14.462 -6.462 C 14.463333333333335 -6.532666666666667, 14.462666666666667 -6.6080000000000005, 14.46 -6.688 C 14.457333333333333 -6.768000000000001, 14.453333333333333 -6.866666666666667, 14.448 -6.984 C 14.442666666666668 -7.082666666666666, 14.416 -7.165999999999999, 14.368 -7.233999999999999 C 14.32 -7.302, 14.246666666666666 -7.347999999999999, 14.148 -7.372 L 14.148 -8.26 C 14.585333333333335 -8.219999999999999, 14.919333333333334 -8.075333333333333, 15.15 -7.826 C 15.380666666666666 -7.576666666666666, 15.504000000000001 -7.2493333333333325, 15.52 -6.843999999999999 C 15.522666666666666 -6.777333333333333, 15.524666666666668 -6.7139999999999995, 15.526 -6.654 C 15.527333333333335 -6.594, 15.527333333333335 -6.53, 15.526 -6.462 C 15.524666666666668 -6.393999999999999, 15.522666666666666 -6.311999999999999, 15.52 -6.216 Z M 16.18 -3.2159999999999997 C 16.174666666666667 -3.389333333333333, 16.173333333333332 -3.528666666666667, 16.176 -3.634 C 16.178666666666665 -3.7393333333333336, 16.181333333333335 -3.841333333333333, 16.183999999999997 -3.94 L 17.264 -3.94 C 17.256 -3.8626666666666667, 17.25 -3.7666666666666666, 17.246 -3.6519999999999997 C 17.241999999999997 -3.5373333333333328, 17.240666666666666 -3.4266666666666667, 17.241999999999997 -3.32 C 17.243333333333332 -3.213333333333334, 17.246666666666666 -3.1333333333333337, 17.252 -3.08 C 17.262666666666668 -2.96, 17.297333333333334 -2.862, 17.355999999999998 -2.7859999999999996 C 17.414666666666665 -2.71, 17.497333333333334 -2.6559999999999997, 17.604 -2.6239999999999997 L 17.604 -1.7319999999999998 C 17.110666666666663 -1.7693333333333332, 16.75333333333333 -1.904, 16.532 -2.1359999999999997 C 16.310666666666666 -2.368, 16.19333333333333 -2.7279999999999998, 16.18 -3.2159999999999997 Z M 16.279999999999998 -4.552 L 16.279999999999998 -8.2 L 17.348 -8.2 L 17.348 -4.552 Z M 17.852 -4.976 L 17.852 -5.731999999999999 C 17.929333333333332 -5.771999999999999, 18.014666666666667 -5.804, 18.107999999999997 -5.828 C 18.20133333333333 -5.852, 18.301333333333332 -5.864, 18.407999999999998 -5.864 C 18.773333333333333 -5.864, 19.047333333333334 -5.748666666666667, 19.23 -5.518 C 19.412666666666667 -5.287333333333333, 19.514666666666663 -4.973333333333333, 19.535999999999998 -4.576 C 19.546666666666667 -4.416, 19.55333333333333 -4.257333333333333, 19.555999999999997 -4.1 C 19.558666666666664 -3.9426666666666668, 19.557333333333332 -3.7893333333333334, 19.552 -3.6399999999999997 C 19.546666666666667 -3.490666666666667, 19.538666666666668 -3.3506666666666667, 19.528 -3.2199999999999998 C 19.482666666666667 -2.721333333333333, 19.353333333333335 -2.356, 19.14 -2.1239999999999997 C 18.926666666666666 -1.892, 18.581333333333333 -1.7613333333333332, 18.104 -1.7319999999999998 L 18.104 -2.6239999999999997 C 18.21333333333333 -2.653333333333333, 18.296 -2.7059999999999995, 18.352 -2.782 C 18.408 -2.8579999999999997, 18.44 -2.957333333333333, 18.448 -3.08 C 18.471999999999998 -3.3706666666666667, 18.485999999999997 -3.6319999999999997, 18.49 -3.864 C 18.494 -4.096, 18.485333333333333 -4.317333333333333, 18.464 -4.5280000000000005 C 18.447999999999997 -4.682666666666667, 18.396666666666665 -4.798, 18.31 -4.874 C 18.223333333333333 -4.949999999999999, 18.090666666666664 -4.9879999999999995, 17.912 -4.9879999999999995 C 17.901333333333334 -4.9879999999999995, 17.890666666666668 -4.986666666666666, 17.88 -4.984 C 17.86933333333333 -4.981333333333334, 17.86 -4.978666666666667, 17.852 -4.976 Z M 17.852 -7.268 L 17.852 -8.2 L 19.439999999999998 -8.2 L 19.439999999999998 -7.268 Z M 21.944 -1.7999999999999998 L 21.944 -8.2 L 23.003999999999998 -8.2 L 23.003999999999998 -1.7999999999999998 Z " stroke="none" fill-rule="nonzero" fill="#000000" fill-opacity="1" transform="matrix(1,0,0,1,5.05,13.314)" id="text65 l" />
  <path d="M -5 -13.264 L 30 -13.264 L 30 409.17457216321196 L -5 409.17457216321196 Z " stroke="#FF0000" stroke-opacity="1" stroke-width="0.1" stroke-linecap="butt" stroke-linejoin="miter" fill="none" transform="matrix(1,0,0,1,5.05,13.314)" />
</svg>