<?xml version="1.0" encoding="UTF-8"?>
<svg xmlns:xlink="http://www.w3.org/1999/xlink" viewBox="0 0 45.099999999999994 107.01511279960678" version="1.1" style="font-synthesis: none;" width="45.099999999999994mm" height="107.01511279960678mm" xmlns="http://www.w3.org/2000/svg">
  <defs />
  <style>	</style>
  <path d="M 0 0 L 45.099999999999994 0 L 45.099999999999994 107.01511279960678 L 0 107.01511279960678 Z " stroke="none" fill-rule="nonzero" fill="#FFFFFF" fill-opacity="1" transform="matrix(1,0,0,1,0,0)" />
  <path d="M 0 86.16511279960679 L 10 86.16511279960679 L 10 87.66511279960679 L 0 87.66511279960679 Z " stroke="none" fill-rule="evenodd" fill="#000000" fill-opacity="1" transform="matrix(1,0,0,1,5.05,13.318000000000001)" id="mark2 dl" />
  <path d="M 0 79.47933489194472 L 10 79.47933489194472 L 10 80.97933489194472 L 0 80.97933489194472 Z " stroke="none" fill-rule="evenodd" fill="#000000" fill-opacity="1" transform="matrix(1,0,0,1,5.05,13.318000000000001)" id="mark3 dl" />
  <path d="M 0 72.79355698428266 L 10 72.79355698428266 L 10 74.29355698428266 L 0 74.29355698428266 Z " stroke="none" fill-rule="evenodd" fill="#000000" fill-opacity="1" transform="matrix(1,0,0,1,5.05,13.318000000000001)" id="mark4 dl" />
  <path d="M 0 66.1077790766206 L 25 66.1077790766206 L 25 67.6077790766206 L 0 67.6077790766206 Z " stroke="none" fill-rule="evenodd" fill="#000000" fill-opacity="1" transform="matrix(1,0,0,1,5.05,13.318000000000001)" id="mark5 dl" />
  <path d="M 24.212 63.60577907662061 C 24.206666666666663 63.43244574328727, 24.205333333333332 63.293112409953935, 24.208 63.1877790766206 C 24.210666666666665 63.082445743287266, 24.21333333333333 62.98044574328728, 24.215999999999998 62.8817790766206 L 25.296 62.8817790766206 C 25.287999999999997 62.95911240995393, 25.281999999999996 63.055112409953935, 25.278 63.16977907662061 C 25.274 63.28444574328727, 25.272666666666666 63.39511240995394, 25.273999999999997 63.5017790766206 C 25.27533333333333 63.60844574328726, 25.278666666666666 63.68844574328727, 25.284 63.7417790766206 C 25.294666666666664 63.8617790766206, 25.32933333333333 63.9597790766206, 25.387999999999998 64.0357790766206 C 25.446666666666665 64.11177907662059, 25.529333333333334 64.1657790766206, 25.636 64.1977790766206 L 25.636 65.0897790766206 C 25.14266666666667 65.05244574328727, 24.785333333333334 64.9177790766206, 24.564 64.6857790766206 C 24.342666666666666 64.4537790766206, 24.22533333333333 64.0937790766206, 24.212 63.60577907662061 Z M 24.311999999999998 62.2697790766206 L 24.311999999999998 58.621779076620605 L 25.38 58.621779076620605 L 25.38 62.2697790766206 Z M 25.884 61.8457790766206 L 25.884 61.0897790766206 C 25.961333333333332 61.0497790766206, 26.046666666666667 61.0177790766206, 26.14 60.993779076620605 C 26.233333333333334 60.9697790766206, 26.333333333333332 60.9577790766206, 26.439999999999998 60.957779076620604 C 26.805333333333333 60.9577790766206, 27.079333333333334 61.073112409953936, 27.262 61.3037790766206 C 27.444666666666667 61.534445743287264, 27.546666666666667 61.84844574328727, 27.567999999999998 62.24577907662061 C 27.578666666666663 62.405779076620604, 27.58533333333333 62.564445743287266, 27.588 62.72177907662061 C 27.590666666666664 62.87911240995393, 27.589333333333332 63.03244574328727, 27.584 63.1817790766206 C 27.578666666666667 63.33111240995394, 27.570666666666668 63.47111240995394, 27.56 63.6017790766206 C 27.514666666666663 64.10044574328728, 27.38533333333333 64.4657790766206, 27.171999999999997 64.6977790766206 C 26.958666666666666 64.9297790766206, 26.613333333333333 65.06044574328727, 26.136 65.0897790766206 L 26.136 64.1977790766206 C 26.24533333333333 64.16844574328726, 26.327999999999996 64.11577907662061, 26.384 64.0397790766206 C 26.439999999999998 63.963779076620604, 26.472 63.86444574328727, 26.48 63.7417790766206 C 26.503999999999998 63.451112409953936, 26.518 63.1897790766206, 26.522 62.957779076620604 C 26.525999999999996 62.725779076620604, 26.517333333333333 62.50444574328727, 26.496 62.2937790766206 C 26.479999999999997 62.13911240995394, 26.428666666666665 62.023779076620606, 26.342 61.947779076620606 C 26.255333333333333 61.871779076620605, 26.122666666666667 61.8337790766206, 25.944 61.8337790766206 C 25.93333333333333 61.8337790766206, 25.922666666666665 61.835112409953936, 25.912 61.837779076620606 C 25.901333333333334 61.840445743287276, 25.892 61.84311240995393, 25.884 61.8457790766206 Z M 25.884 59.5537790766206 L 25.884 58.621779076620605 L 27.471999999999998 58.621779076620605 L 27.471999999999998 59.5537790766206 Z M 29.904 63.8297790766206 C 29.896 63.67244574328727, 29.890666666666668 63.48644574328727, 29.887999999999998 63.271779076620604 C 29.885333333333335 63.05711240995394, 29.884 62.834445743287276, 29.884 62.603779076620604 C 29.884 62.37311240995393, 29.886000000000003 62.153112409953934, 29.89 61.9437790766206 C 29.894 61.73444574328727, 29.898666666666667 61.557779076620605, 29.904 61.41377907662061 C 29.922666666666665 60.9577790766206, 30.024666666666665 60.63244574328726, 30.21 60.4377790766206 C 30.395333333333333 60.24311240995394, 30.656 60.14577907662061, 30.992 60.145779076620606 C 31.128 60.14577907662061, 31.244 60.16044574328727, 31.34 60.1897790766206 C 31.436 60.21911240995394, 31.52133333333333 60.26177907662061, 31.596 60.3177790766206 L 31.596 60.9457790766206 C 31.54 60.929779076620605, 31.477333333333334 60.921779076620595, 31.408 60.9217790766206 C 31.266666666666666 60.921779076620595, 31.162 60.95311240995393, 31.094 61.0157790766206 C 31.026000000000003 61.078445743287276, 30.989333333333335 61.17244574328727, 30.983999999999998 61.2977790766206 C 30.968 61.583112409953934, 30.95733333333333 61.8777790766206, 30.951999999999998 62.1817790766206 C 30.946666666666665 62.4857790766206, 30.946666666666665 62.78577907662061, 30.951999999999998 63.081779076620606 C 30.95733333333333 63.377779076620605, 30.96666666666667 63.655112409953944, 30.98 63.91377907662061 C 30.988 64.0577790766206, 31.02466666666667 64.1617790766206, 31.09 64.2257790766206 C 31.15533333333333 64.28977907662059, 31.261333333333333 64.3217790766206, 31.408 64.3217790766206 C 31.479999999999997 64.3217790766206, 31.542666666666666 64.31377907662059, 31.596 64.2977790766206 L 31.596 64.9177790766206 C 31.518666666666668 64.9737790766206, 31.43 65.01777907662061, 31.33 65.04977907662061 C 31.229999999999997 65.0817790766206, 31.112 65.0977790766206, 30.976 65.0977790766206 C 30.634666666666664 65.0977790766206, 30.375999999999998 64.99911240995394, 30.2 64.8017790766206 C 30.024 64.60444574328727, 29.925333333333334 64.28044574328726, 29.904 63.8297790766206 Z M 32.084 65.0217790766206 L 32.084 58.621779076620605 L 33.164 58.621779076620605 L 33.164 65.0217790766206 Z M 33.944 65.0217790766206 L 33.944 58.621779076620605 L 35.004 58.621779076620605 L 35.004 65.0217790766206 Z " stroke="none" fill-rule="nonzero" fill="#000000" fill-opacity="1" transform="matrix(1,0,0,1,5.05,13.318000000000001)" id="text5 dl" />
  <path d="M 0 59.422001168958545 L 10 59.422001168958545 L 10 60.922001168958545 L 0 60.922001168958545 Z " stroke="none" fill-rule="evenodd" fill="#000000" fill-opacity="1" transform="matrix(1,0,0,1,5.05,13.318000000000001)" id="mark6 dl" />
  <path d="M 0 52.73622326129647 L 10 52.73622326129647 L 10 54.23622326129647 L 0 54.23622326129647 Z " stroke="none" fill-rule="evenodd" fill="#000000" fill-opacity="1" transform="matrix(1,0,0,1,5.05,13.318000000000001)" id="mark7 dl" />
  <path d="M 0 46.05044535363442 L 10 46.05044535363442 L 10 47.55044535363442 L 0 47.55044535363442 Z " stroke="none" fill-rule="evenodd" fill="#000000" fill-opacity="1" transform="matrix(1,0,0,1,5.05,13.318000000000001)" id="mark8 dl" />
  <path d="M 0 39.36466744597236 L 10 39.36466744597236 L 10 40.86466744597236 L 0 40.86466744597236 Z " stroke="none" fill-rule="evenodd" fill="#000000" fill-opacity="1" transform="matrix(1,0,0,1,5.05,13.318000000000001)" id="mark9 dl" />
  <path d="M 0 32.6788895383103 L 25 32.6788895383103 L 25 34.1788895383103 L 0 34.1788895383103 Z " stroke="none" fill-rule="evenodd" fill="#000000" fill-opacity="1" transform="matrix(1,0,0,1,5.05,13.318000000000001)" id="mark10 dl" />
  <path d="M 22.356 31.624889538310303 L 22.356 26.180889538310304 L 21.904 26.180889538310304 L 21.872 25.8008895383103 L 22.576 25.2248895383103 L 23.456 25.2248895383103 L 23.456 31.624889538310303 Z M 24.228 30.212889538310304 C 24.220000000000002 29.783556204976968, 24.214666666666666 29.366889538310303, 24.212 28.962889538310304 C 24.209333333333333 28.558889538310304, 24.21 28.16355620497697, 24.214 27.776889538310304 C 24.217999999999996 27.390222871643637, 24.222666666666665 27.0088895383103, 24.228 26.6328895383103 C 24.241333333333333 26.192889538310304, 24.366 25.847556204976968, 24.602 25.5968895383103 C 24.838 25.346222871643633, 25.174666666666667 25.2008895383103, 25.612 25.1608895383103 L 25.612 26.048889538310302 C 25.414666666666665 26.104889538310303, 25.313333333333333 26.234222871643638, 25.308 26.436889538310304 C 25.294666666666668 26.80755620497697, 25.285333333333334 27.155556204976968, 25.28 27.4808895383103 C 25.27466666666667 27.806222871643634, 25.272 28.122889538310304, 25.272 28.430889538310304 C 25.272 28.738889538310303, 25.27466666666667 29.05355620497697, 25.28 29.374889538310303 C 25.285333333333334 29.696222871643634, 25.294666666666668 30.039556204976968, 25.308 30.404889538310304 C 25.313333333333333 30.612889538310306, 25.414666666666665 30.744889538310304, 25.612 30.8008895383103 L 25.612 31.688889538310303 C 25.174666666666667 31.648889538310303, 24.838 31.502889538310306, 24.602 31.250889538310304 C 24.366 30.9988895383103, 24.241333333333333 30.652889538310305, 24.228 30.212889538310304 Z M 26.116 31.688889538310303 L 26.116 30.796889538310303 C 26.299999999999997 30.74355620497697, 26.398666666666664 30.61955620497697, 26.412 30.424889538310303 C 26.430666666666667 29.95822287164364, 26.442666666666668 29.509556204976974, 26.448 29.078889538310303 C 26.453333333333333 28.64822287164364, 26.453333333333333 28.217556204976972, 26.448 27.7868895383103 C 26.442666666666668 27.356222871643638, 26.430666666666667 26.90355620497697, 26.412 26.4288895383103 C 26.406666666666666 26.234222871643635, 26.308 26.107556204976966, 26.116 26.048889538310302 L 26.116 25.1608895383103 C 26.545333333333332 25.2008895383103, 26.878666666666668 25.346222871643633, 27.116 25.5968895383103 C 27.35333333333333 25.847556204976968, 27.477333333333334 26.192889538310304, 27.488 26.6328895383103 C 27.49866666666667 26.94755620497697, 27.506666666666668 27.257556204976968, 27.512 27.5628895383103 C 27.517333333333333 27.868222871643635, 27.520000000000003 28.168889538310303, 27.52 28.464889538310302 C 27.520000000000003 28.760889538310302, 27.517333333333333 29.05422287164363, 27.512 29.3448895383103 C 27.506666666666668 29.635556204976965, 27.49866666666667 29.924889538310303, 27.488 30.212889538310304 C 27.471999999999998 30.66355620497697, 27.343999999999998 31.012222871643637, 27.104 31.258889538310303 C 26.864 31.50555620497697, 26.534666666666666 31.648889538310303, 26.116 31.688889538310303 Z M 29.904 30.432889538310302 C 29.896 30.27555620497697, 29.890666666666668 30.08955620497697, 29.887999999999998 29.874889538310303 C 29.885333333333335 29.660222871643636, 29.884 29.43755620497697, 29.884 29.206889538310303 C 29.884 28.976222871643635, 29.886000000000003 28.756222871643637, 29.89 28.546889538310303 C 29.894 28.33755620497697, 29.898666666666667 28.160889538310304, 29.904 28.016889538310302 C 29.922666666666665 27.560889538310303, 30.024666666666665 27.23555620497697, 30.21 27.040889538310303 C 30.395333333333333 26.846222871643636, 30.656 26.7488895383103, 30.992 26.7488895383103 C 31.128 26.7488895383103, 31.244 26.76355620497697, 31.34 26.792889538310302 C 31.436 26.82222287164364, 31.52133333333333 26.8648895383103, 31.596 26.920889538310302 L 31.596 27.548889538310302 C 31.54 27.5328895383103, 31.477333333333334 27.524889538310305, 31.408 27.524889538310305 C 31.266666666666666 27.524889538310305, 31.162 27.556222871643634, 31.094 27.618889538310302 C 31.026000000000003 27.68155620497697, 30.989333333333335 27.775556204976972, 30.983999999999998 27.900889538310302 C 30.968 28.186222871643636, 30.95733333333333 28.480889538310304, 30.951999999999998 28.784889538310303 C 30.946666666666665 29.0888895383103, 30.946666666666665 29.388889538310302, 30.951999999999998 29.6848895383103 C 30.95733333333333 29.9808895383103, 30.96666666666667 30.25822287164364, 30.98 30.516889538310302 C 30.988 30.6608895383103, 31.02466666666667 30.7648895383103, 31.09 30.828889538310303 C 31.15533333333333 30.8928895383103, 31.261333333333333 30.924889538310303, 31.408 30.924889538310303 C 31.479999999999997 30.924889538310303, 31.542666666666666 30.9168895383103, 31.596 30.900889538310302 L 31.596 31.520889538310303 C 31.518666666666668 31.576889538310304, 31.43 31.6208895383103, 31.33 31.6528895383103 C 31.229999999999997 31.6848895383103, 31.112 31.7008895383103, 30.976 31.700889538310303 C 30.634666666666664 31.7008895383103, 30.375999999999998 31.602222871643633, 30.2 31.404889538310304 C 30.024 31.207556204976967, 29.925333333333334 30.88355620497697, 29.904 30.432889538310302 Z M 32.084 31.624889538310303 L 32.084 25.2248895383103 L 33.164 25.2248895383103 L 33.164 31.624889538310303 Z M 33.944 31.624889538310303 L 33.944 25.2248895383103 L 35.004 25.2248895383103 L 35.004 31.624889538310303 Z " stroke="none" fill-rule="nonzero" fill="#000000" fill-opacity="1" transform="matrix(1,0,0,1,5.05,13.318000000000001)" id="text10 dl" />
  <path d="M 0 25.993111630648244 L 10 25.993111630648244 L 10 27.493111630648244 L 0 27.493111630648244 Z " stroke="none" fill-rule="evenodd" fill="#000000" fill-opacity="1" transform="matrix(1,0,0,1,5.05,13.318000000000001)" id="mark11 dl" />
  <path d="M 0 19.307333722986186 L 10 19.307333722986186 L 10 20.807333722986186 L 0 20.807333722986186 Z " stroke="none" fill-rule="evenodd" fill="#000000" fill-opacity="1" transform="matrix(1,0,0,1,5.05,13.318000000000001)" id="mark12 dl" />
  <path d="M 0 12.621555815324115 L 10 12.621555815324115 L 10 14.121555815324115 L 0 14.121555815324115 Z " stroke="none" fill-rule="evenodd" fill="#000000" fill-opacity="1" transform="matrix(1,0,0,1,5.05,13.318000000000001)" id="mark13 dl" />
  <path d="M 0 5.935777907662043 L 10 5.935777907662043 L 10 7.435777907662043 L 0 7.435777907662043 Z " stroke="none" fill-rule="evenodd" fill="#000000" fill-opacity="1" transform="matrix(1,0,0,1,5.05,13.318000000000001)" id="mark14 dl" />
  <path d="M 0 -0.75 L 25 -0.75 L 25 0.75 L 0 0.75 Z " stroke="none" fill-rule="evenodd" fill="#000000" fill-opacity="1" transform="matrix(1,0,0,1,5.05,13.318000000000001)" id="mark15 dl" />
  <path d="M 22.364 -1.8359999999999999 L 22.364 -7.279999999999999 L 21.912 -7.279999999999999 L 21.88 -7.66 L 22.584 -8.236 L 23.464 -8.236 L 23.464 -1.8359999999999999 Z M 24.212 -3.252 C 24.206666666666663 -3.4253333333333327, 24.205333333333332 -3.5646666666666667, 24.208 -3.67 C 24.210666666666665 -3.775333333333333, 24.21333333333333 -3.8773333333333335, 24.215999999999998 -3.976 L 25.296 -3.976 C 25.287999999999997 -3.8986666666666663, 25.281999999999996 -3.802666666666666, 25.278 -3.6879999999999997 C 25.274 -3.5733333333333333, 25.272666666666666 -3.4626666666666663, 25.273999999999997 -3.356 C 25.27533333333333 -3.2493333333333334, 25.278666666666666 -3.1693333333333333, 25.284 -3.1159999999999997 C 25.294666666666664 -2.996, 25.32933333333333 -2.898, 25.387999999999998 -2.822 C 25.446666666666665 -2.746, 25.529333333333334 -2.6919999999999997, 25.636 -2.6599999999999997 L 25.636 -1.7679999999999998 C 25.14266666666667 -1.8053333333333332, 24.785333333333334 -1.94, 24.564 -2.1719999999999997 C 24.342666666666666 -2.404, 24.22533333333333 -2.764, 24.212 -3.252 Z M 24.311999999999998 -4.587999999999999 L 24.311999999999998 -8.236 L 25.38 -8.236 L 25.38 -4.587999999999999 Z M 25.884 -5.0120000000000005 L 25.884 -5.768 C 25.961333333333332 -5.808, 26.046666666666667 -5.84, 26.14 -5.864000000000001 C 26.233333333333334 -5.888000000000001, 26.333333333333332 -5.9, 26.439999999999998 -5.9 C 26.805333333333333 -5.9, 27.079333333333334 -5.784666666666667, 27.262 -5.554 C 27.444666666666667 -5.323333333333333, 27.546666666666667 -5.009333333333333, 27.567999999999998 -4.612 C 27.578666666666663 -4.452, 27.58533333333333 -4.293333333333333, 27.588 -4.135999999999999 C 27.590666666666664 -3.9786666666666664, 27.589333333333332 -3.8253333333333335, 27.584 -3.676 C 27.578666666666667 -3.526666666666667, 27.570666666666668 -3.3866666666666667, 27.56 -3.256 C 27.514666666666663 -2.7573333333333334, 27.38533333333333 -2.392, 27.171999999999997 -2.1599999999999997 C 26.958666666666666 -1.928, 26.613333333333333 -1.7973333333333332, 26.136 -1.7679999999999998 L 26.136 -2.6599999999999997 C 26.24533333333333 -2.689333333333333, 26.327999999999996 -2.7419999999999995, 26.384 -2.8179999999999996 C 26.439999999999998 -2.8939999999999997, 26.472 -2.993333333333333, 26.48 -3.1159999999999997 C 26.503999999999998 -3.4066666666666663, 26.518 -3.668, 26.522 -3.9 C 26.525999999999996 -4.132, 26.517333333333333 -4.353333333333333, 26.496 -4.564 C 26.479999999999997 -4.718666666666667, 26.428666666666665 -4.834, 26.342 -4.91 C 26.255333333333333 -4.986000000000001, 26.122666666666667 -5.024, 25.944 -5.024 C 25.93333333333333 -5.024, 25.922666666666665 -5.022666666666667, 25.912 -5.02 C 25.901333333333334 -5.017333333333333, 25.892 -5.014666666666667, 25.884 -5.0120000000000005 Z M 25.884 -7.304 L 25.884 -8.236 L 27.471999999999998 -8.236 L 27.471999999999998 -7.304 Z M 29.904 -3.0279999999999996 C 29.896 -3.185333333333333, 29.890666666666668 -3.3713333333333333, 29.887999999999998 -3.586 C 29.885333333333335 -3.8006666666666664, 29.884 -4.023333333333333, 29.884 -4.254 C 29.884 -4.484666666666667, 29.886000000000003 -4.704666666666666, 29.89 -4.914 C 29.894 -5.123333333333333, 29.898666666666667 -5.3, 29.904 -5.444 C 29.922666666666665 -5.9, 30.024666666666665 -6.225333333333333, 30.21 -6.42 C 30.395333333333333 -6.6146666666666665, 30.656 -6.712, 30.992 -6.712 C 31.128 -6.712, 31.244 -6.697333333333334, 31.34 -6.668000000000001 C 31.436 -6.638666666666667, 31.52133333333333 -6.596, 31.596 -6.539999999999999 L 31.596 -5.911999999999999 C 31.54 -5.927999999999999, 31.477333333333334 -5.936, 31.408 -5.936 C 31.266666666666666 -5.936, 31.162 -5.9046666666666665, 31.094 -5.8420000000000005 C 31.026000000000003 -5.779333333333333, 30.989333333333335 -5.6853333333333325, 30.983999999999998 -5.5600000000000005 C 30.968 -5.274666666666667, 30.95733333333333 -4.9799999999999995, 30.951999999999998 -4.676 C 30.946666666666665 -4.372, 30.946666666666665 -4.071999999999999, 30.951999999999998 -3.776 C 30.95733333333333 -3.48, 30.96666666666667 -3.2026666666666666, 30.98 -2.944 C 30.988 -2.8, 31.02466666666667 -2.6959999999999997, 31.09 -2.6319999999999997 C 31.15533333333333 -2.5679999999999996, 31.261333333333333 -2.5359999999999996, 31.408 -2.5359999999999996 C 31.479999999999997 -2.5359999999999996, 31.542666666666666 -2.5439999999999996, 31.596 -2.5599999999999996 L 31.596 -1.94 C 31.518666666666668 -1.884, 31.43 -1.8399999999999999, 31.33 -1.8079999999999998 C 31.229999999999997 -1.7759999999999998, 31.112 -1.7599999999999998, 30.976 -1.7599999999999998 C 30.634666666666664 -1.7599999999999998, 30.375999999999998 -1.8586666666666665, 30.2 -2.056 C 30.024 -2.253333333333333, 29.925333333333334 -2.577333333333333, 29.904 -3.0279999999999996 Z M 32.084 -1.8359999999999999 L 32.084 -8.236 L 33.164 -8.236 L 33.164 -1.8359999999999999 Z M 33.944 -1.8359999999999999 L 33.944 -8.236 L 35.004 -8.236 L 35.004 -1.8359999999999999 Z " stroke="none" fill-rule="nonzero" fill="#000000" fill-opacity="1" transform="matrix(1,0,0,1,5.05,13.318000000000001)" id="text15 dl" />
  <path d="M -5 -13.268 L 40 -13.268 L 40 93.64711279960679 L -5 93.64711279960679 Z " stroke="#FF0000" stroke-opacity="1" stroke-width="0.1" stroke-linecap="butt" stroke-linejoin="miter" fill="none" transform="matrix(1,0,0,1,5.05,13.318000000000001)" />
</svg>