<?xml version="1.0" encoding="UTF-8"?>
<svg xmlns:xlink="http://www.w3.org/1999/xlink" viewBox="0 0 35.1 504.8870913923284" version="1.1" style="font-synthesis: none;" width="35.1mm" height="504.8870913923284mm" xmlns="http://www.w3.org/2000/svg">
  <defs />
  <style>	</style>
  <path d="M 0 0 L 35.1 0 L 35.1 504.8870913923284 L 0 504.8870913923284 Z " stroke="none" fill-rule="nonzero" fill="#FFFFFF" fill-opacity="1" transform="matrix(1,0,0,1,0,0)" />
  <path d="M 0 484.0050913923284 L 10 484.0050913923284 L 10 485.5050913923284 L 0 485.5050913923284 Z " stroke="none" fill-rule="evenodd" fill="#000000" fill-opacity="1" transform="matrix(1,0,0,1,5.05,13.314)" id="mark1 l" />
  <path d="M 0 476.4307930893233 L 10 476.4307930893233 L 10 477.9307930893233 L 0 477.9307930893233 Z " stroke="none" fill-rule="evenodd" fill="#000000" fill-opacity="1" transform="matrix(1,0,0,1,5.05,13.314)" id="mark2 l" />
  <path d="M 0 468.85649478631814 L 10 468.85649478631814 L 10 470.35649478631814 L 0 470.35649478631814 Z " stroke="none" fill-rule="evenodd" fill="#000000" fill-opacity="1" transform="matrix(1,0,0,1,5.05,13.314)" id="mark3 l" />
  <path d="M 0 461.282196483313 L 10 461.282196483313 L 10 462.782196483313 L 0 462.782196483313 Z " stroke="none" fill-rule="evenodd" fill="#000000" fill-opacity="1" transform="matrix(1,0,0,1,5.05,13.314)" id="mark4 l" />
  <path d="M 0 453.7078981803079 L 25 453.7078981803079 L 25 455.2078981803079 L 0 455.2078981803079 Z " stroke="none" fill-rule="evenodd" fill="#000000" fill-opacity="1" transform="matrix(1,0,0,1,5.05,13.314)" id="mark5 l" />
  <path d="M 16.18 451.2098981803079 C 16.174666666666667 451.03656484697456, 16.173333333333332 450.89723151364126, 16.176 450.7918981803079 C 16.178666666666665 450.68656484697453, 16.181333333333335 450.58456484697456, 16.183999999999997 450.4858981803079 L 17.264 450.4858981803079 C 17.256 450.5632315136412, 17.25 450.6592315136412, 17.246 450.7738981803079 C 17.241999999999997 450.88856484697453, 17.240666666666666 450.99923151364123, 17.241999999999997 451.1058981803079 C 17.243333333333332 451.21256484697454, 17.246666666666666 451.2925648469745, 17.252 451.3458981803079 C 17.262666666666668 451.46589818030793, 17.297333333333334 451.5638981803079, 17.355999999999998 451.6398981803079 C 17.414666666666665 451.7158981803079, 17.497333333333334 451.7698981803079, 17.604 451.8018981803079 L 17.604 452.6938981803079 C 17.110666666666663 452.65656484697456, 16.75333333333333 452.52189818030786, 16.532 452.2898981803079 C 16.310666666666666 452.0578981803079, 16.19333333333333 451.6978981803079, 16.18 451.2098981803079 Z M 16.279999999999998 449.8738981803079 L 16.279999999999998 446.2258981803079 L 17.348 446.2258981803079 L 17.348 449.8738981803079 Z M 17.852 449.4498981803079 L 17.852 448.6938981803079 C 17.929333333333332 448.6538981803079, 18.014666666666667 448.6218981803079, 18.107999999999997 448.5978981803079 C 18.20133333333333 448.5738981803079, 18.301333333333332 448.5618981803079, 18.407999999999998 448.5618981803079 C 18.773333333333333 448.5618981803079, 19.047333333333334 448.67723151364123, 19.23 448.9078981803079 C 19.412666666666667 449.13856484697453, 19.514666666666663 449.4525648469746, 19.535999999999998 449.8498981803079 C 19.546666666666667 450.0098981803079, 19.55333333333333 450.1685648469745, 19.555999999999997 450.3258981803079 C 19.558666666666664 450.48323151364116, 19.557333333333332 450.6365648469746, 19.552 450.7858981803079 C 19.546666666666667 450.93523151364127, 19.538666666666668 451.07523151364126, 19.528 451.2058981803079 C 19.482666666666667 451.70456484697456, 19.353333333333335 452.06989818030786, 19.14 452.3018981803079 C 18.926666666666666 452.5338981803079, 18.581333333333333 452.6645648469746, 18.104 452.6938981803079 L 18.104 451.8018981803079 C 18.21333333333333 451.77256484697455, 18.296 451.7198981803079, 18.352 451.6438981803079 C 18.408 451.5678981803079, 18.44 451.4685648469746, 18.448 451.3458981803079 C 18.471999999999998 451.0552315136413, 18.485999999999997 450.7938981803079, 18.49 450.5618981803079 C 18.494 450.32989818030785, 18.485333333333333 450.10856484697456, 18.464 449.8978981803079 C 18.447999999999997 449.74323151364126, 18.396666666666665 449.62789818030797, 18.31 449.5518981803079 C 18.223333333333333 449.4758981803079, 18.090666666666664 449.4378981803079, 17.912 449.4378981803079 C 17.901333333333334 449.4378981803079, 17.890666666666668 449.4392315136412, 17.88 449.4418981803079 C 17.86933333333333 449.4445648469746, 17.86 449.4472315136412, 17.852 449.4498981803079 Z M 17.852 447.1578981803079 L 17.852 446.2258981803079 L 19.439999999999998 446.2258981803079 L 19.439999999999998 447.1578981803079 Z M 21.944 452.6258981803079 L 21.944 446.2258981803079 L 23.003999999999998 446.2258981803079 L 23.003999999999998 452.6258981803079 Z " stroke="none" fill-rule="nonzero" fill="#000000" fill-opacity="1" transform="matrix(1,0,0,1,5.05,13.314)" id="text5 l" />
  <path d="M 0 446.13359987730274 L 10 446.13359987730274 L 10 447.63359987730274 L 0 447.63359987730274 Z " stroke="none" fill-rule="evenodd" fill="#000000" fill-opacity="1" transform="matrix(1,0,0,1,5.05,13.314)" id="mark6 l" />
  <path d="M 0 438.5593015742976 L 10 438.5593015742976 L 10 440.0593015742976 L 0 440.0593015742976 Z " stroke="none" fill-rule="evenodd" fill="#000000" fill-opacity="1" transform="matrix(1,0,0,1,5.05,13.314)" id="mark7 l" />
  <path d="M 0 430.9850032712925 L 10 430.9850032712925 L 10 432.4850032712925 L 0 432.4850032712925 Z " stroke="none" fill-rule="evenodd" fill="#000000" fill-opacity="1" transform="matrix(1,0,0,1,5.05,13.314)" id="mark8 l" />
  <path d="M 0 423.41070496828735 L 10 423.41070496828735 L 10 424.91070496828735 L 0 424.91070496828735 Z " stroke="none" fill-rule="evenodd" fill="#000000" fill-opacity="1" transform="matrix(1,0,0,1,5.05,13.314)" id="mark9 l" />
  <path d="M 0 415.8364066652822 L 25 415.8364066652822 L 25 417.3364066652822 L 0 417.3364066652822 Z " stroke="none" fill-rule="evenodd" fill="#000000" fill-opacity="1" transform="matrix(1,0,0,1,5.05,13.314)" id="mark10 l" />
  <path d="M 14.323999999999998 414.7864066652822 L 14.323999999999998 409.34240666528217 L 13.871999999999998 409.34240666528217 L 13.839999999999998 408.9624066652822 L 14.543999999999999 408.3864066652822 L 15.424 408.3864066652822 L 15.424 414.7864066652822 Z M 16.196 413.3744066652822 C 16.188000000000002 412.9450733319489, 16.182666666666666 412.5284066652822, 16.18 412.1244066652822 C 16.177333333333333 411.7204066652822, 16.177999999999997 411.3250733319489, 16.182 410.9384066652822 C 16.186 410.5517399986155, 16.190666666666665 410.17040666528214, 16.196 409.79440666528217 C 16.209333333333333 409.3544066652822, 16.334000000000003 409.0090733319489, 16.57 408.75840666528217 C 16.805999999999997 408.50773999861553, 17.142666666666663 408.36240666528215, 17.58 408.3224066652822 L 17.58 409.21040666528216 C 17.382666666666665 409.26640666528215, 17.281333333333333 409.3957399986155, 17.276 409.5984066652822 C 17.262666666666668 409.96907333194883, 17.253333333333334 410.3170733319488, 17.248 410.6424066652822 C 17.242666666666665 410.96773999861546, 17.24 411.2844066652822, 17.24 411.59240666528217 C 17.24 411.90040666528216, 17.242666666666665 412.2150733319488, 17.248 412.5364066652822 C 17.253333333333334 412.85773999861556, 17.262666666666668 413.2010733319489, 17.276 413.56640666528216 C 17.281333333333333 413.7744066652822, 17.382666666666665 413.90640666528213, 17.58 413.9624066652822 L 17.58 414.8504066652822 C 17.142666666666663 414.81040666528224, 16.805999999999997 414.6644066652822, 16.57 414.41240666528216 C 16.334000000000003 414.16040666528215, 16.209333333333333 413.8144066652822, 16.196 413.3744066652822 Z M 18.084 414.8504066652822 L 18.084 413.9584066652822 C 18.268 413.90507333194887, 18.366666666666667 413.78107333194885, 18.38 413.5864066652822 C 18.398666666666667 413.1197399986155, 18.410666666666668 412.67107333194883, 18.416 412.2404066652822 C 18.421333333333333 411.80973999861556, 18.421333333333333 411.37907333194886, 18.416 410.94840666528216 C 18.410666666666668 410.5177399986155, 18.398666666666667 410.06507333194884, 18.38 409.59040666528216 C 18.374666666666666 409.39573999861557, 18.276 409.2690733319489, 18.084 409.21040666528216 L 18.084 408.3224066652822 C 18.513333333333335 408.36240666528215, 18.846666666666668 408.50773999861553, 19.084 408.75840666528217 C 19.321333333333335 409.0090733319489, 19.445333333333334 409.3544066652822, 19.456 409.79440666528217 C 19.46666666666667 410.1090733319488, 19.474666666666668 410.4190733319489, 19.48 410.7244066652822 C 19.485333333333333 411.02973999861547, 19.488 411.33040666528217, 19.488 411.62640666528216 C 19.488 411.92240666528215, 19.485333333333333 412.2157399986155, 19.48 412.5064066652822 C 19.474666666666668 412.79707333194887, 19.46666666666667 413.0864066652822, 19.456 413.3744066652822 C 19.439999999999998 413.8250733319489, 19.311999999999998 414.1737399986156, 19.072 414.4204066652822 C 18.832 414.6670733319489, 18.502666666666666 414.81040666528224, 18.084 414.8504066652822 Z M 21.944 414.7864066652822 L 21.944 408.3864066652822 L 23.003999999999998 408.3864066652822 L 23.003999999999998 414.7864066652822 Z " stroke="none" fill-rule="nonzero" fill="#000000" fill-opacity="1" transform="matrix(1,0,0,1,5.05,13.314)" id="text10 l" />
  <path d="M 0 408.2621083622771 L 10 408.2621083622771 L 10 409.7621083622771 L 0 409.7621083622771 Z " stroke="none" fill-rule="evenodd" fill="#000000" fill-opacity="1" transform="matrix(1,0,0,1,5.05,13.314)" id="mark11 l" />
  <path d="M 0 400.68781005927195 L 10 400.68781005927195 L 10 402.18781005927195 L 0 402.18781005927195 Z " stroke="none" fill-rule="evenodd" fill="#000000" fill-opacity="1" transform="matrix(1,0,0,1,5.05,13.314)" id="mark12 l" />
  <path d="M 0 393.1135117562668 L 10 393.1135117562668 L 10 394.6135117562668 L 0 394.6135117562668 Z " stroke="none" fill-rule="evenodd" fill="#000000" fill-opacity="1" transform="matrix(1,0,0,1,5.05,13.314)" id="mark13 l" />
  <path d="M 0 385.5392134532617 L 10 385.5392134532617 L 10 387.0392134532617 L 0 387.0392134532617 Z " stroke="none" fill-rule="evenodd" fill="#000000" fill-opacity="1" transform="matrix(1,0,0,1,5.05,13.314)" id="mark14 l" />
  <path d="M 0 377.96491515025656 L 25 377.96491515025656 L 25 379.46491515025656 L 0 379.46491515025656 Z " stroke="none" fill-rule="evenodd" fill="#000000" fill-opacity="1" transform="matrix(1,0,0,1,5.05,13.314)" id="mark15 l" />
  <path d="M 14.331999999999999 376.88291515025657 L 14.331999999999999 371.43891515025655 L 13.879999999999999 371.43891515025655 L 13.847999999999999 371.05891515025655 L 14.552 370.4829151502566 L 15.432 370.4829151502566 L 15.432 376.88291515025657 Z M 16.18 375.46691515025657 C 16.174666666666667 375.2935818169232, 16.173333333333332 375.15424848358987, 16.176 375.04891515025656 C 16.178666666666665 374.94358181692326, 16.181333333333335 374.8415818169232, 16.183999999999997 374.7429151502566 L 17.264 374.7429151502566 C 17.256 374.8202484835899, 17.25 374.9162484835899, 17.246 375.0309151502566 C 17.241999999999997 375.14558181692325, 17.240666666666666 375.2562484835899, 17.241999999999997 375.3629151502566 C 17.243333333333332 375.4695818169232, 17.246666666666666 375.54958181692325, 17.252 375.6029151502566 C 17.262666666666668 375.72291515025654, 17.297333333333334 375.82091515025655, 17.355999999999998 375.8969151502566 C 17.414666666666665 375.97291515025654, 17.497333333333334 376.02691515025657, 17.604 376.05891515025655 L 17.604 376.95091515025655 C 17.110666666666663 376.9135818169232, 16.75333333333333 376.7789151502566, 16.532 376.54691515025655 C 16.310666666666666 376.3149151502565, 16.19333333333333 375.95491515025657, 16.18 375.46691515025657 Z M 16.279999999999998 374.13091515025656 L 16.279999999999998 370.4829151502566 L 17.348 370.4829151502566 L 17.348 374.13091515025656 Z M 17.852 373.7069151502566 L 17.852 372.95091515025655 C 17.929333333333332 372.9109151502565, 18.014666666666667 372.87891515025655, 18.107999999999997 372.85491515025655 C 18.20133333333333 372.83091515025654, 18.301333333333332 372.81891515025654, 18.407999999999998 372.81891515025654 C 18.773333333333333 372.81891515025654, 19.047333333333334 372.9342484835899, 19.23 373.16491515025655 C 19.412666666666667 373.3955818169232, 19.514666666666663 373.7095818169232, 19.535999999999998 374.10691515025655 C 19.546666666666667 374.2669151502566, 19.55333333333333 374.4255818169232, 19.555999999999997 374.58291515025655 C 19.558666666666664 374.7402484835899, 19.557333333333332 374.89358181692324, 19.552 375.0429151502566 C 19.546666666666667 375.19224848358994, 19.538666666666668 375.3322484835899, 19.528 375.46291515025655 C 19.482666666666667 375.9615818169232, 19.353333333333335 376.3269151502566, 19.14 376.55891515025655 C 18.926666666666666 376.7909151502565, 18.581333333333333 376.9215818169232, 18.104 376.95091515025655 L 18.104 376.05891515025655 C 18.21333333333333 376.0295818169232, 18.296 375.97691515025656, 18.352 375.90091515025654 C 18.408 375.8249151502565, 18.44 375.72558181692324, 18.448 375.6029151502566 C 18.471999999999998 375.3122484835899, 18.485999999999997 375.05091515025657, 18.49 374.81891515025654 C 18.494 374.5869151502566, 18.485333333333333 374.3655818169233, 18.464 374.15491515025656 C 18.447999999999997 374.00024848358987, 18.396666666666665 373.8849151502566, 18.31 373.80891515025655 C 18.223333333333333 373.7329151502566, 18.090666666666664 373.6949151502566, 17.912 373.6949151502566 C 17.901333333333334 373.6949151502566, 17.890666666666668 373.6962484835899, 17.88 373.69891515025654 C 17.86933333333333 373.70158181692324, 17.86 373.7042484835899, 17.852 373.7069151502566 Z M 17.852 371.41491515025655 L 17.852 370.4829151502566 L 19.439999999999998 370.4829151502566 L 19.439999999999998 371.41491515025655 Z M 21.944 376.88291515025657 L 21.944 370.4829151502566 L 23.003999999999998 370.4829151502566 L 23.003999999999998 376.88291515025657 Z " stroke="none" fill-rule="nonzero" fill="#000000" fill-opacity="1" transform="matrix(1,0,0,1,5.05,13.314)" id="text15 l" />
  <path d="M 0 370.3906168472514 L 10 370.3906168472514 L 10 371.8906168472514 L 0 371.8906168472514 Z " stroke="none" fill-rule="evenodd" fill="#000000" fill-opacity="1" transform="matrix(1,0,0,1,5.05,13.314)" id="mark16 l" />
  <path d="M 0 362.8163185442463 L 10 362.8163185442463 L 10 364.3163185442463 L 0 364.3163185442463 Z " stroke="none" fill-rule="evenodd" fill="#000000" fill-opacity="1" transform="matrix(1,0,0,1,5.05,13.314)" id="mark17 l" />
  <path d="M 0 355.24202024124116 L 10 355.24202024124116 L 10 356.74202024124116 L 0 356.74202024124116 Z " stroke="none" fill-rule="evenodd" fill="#000000" fill-opacity="1" transform="matrix(1,0,0,1,5.05,13.314)" id="mark18 l" />
  <path d="M 0 347.667721938236 L 10 347.667721938236 L 10 349.167721938236 L 0 349.167721938236 Z " stroke="none" fill-rule="evenodd" fill="#000000" fill-opacity="1" transform="matrix(1,0,0,1,5.05,13.314)" id="mark19 l" />
  <path d="M 0 340.0934236352309 L 25 340.0934236352309 L 25 341.5934236352309 L 0 341.5934236352309 Z " stroke="none" fill-rule="evenodd" fill="#000000" fill-opacity="1" transform="matrix(1,0,0,1,5.05,13.314)" id="mark20 l" />
  <path d="M 12.319999999999999 339.0434236352309 C 12.317333333333334 338.9447569685642, 12.315333333333331 338.85609030189755, 12.313999999999998 338.7774236352309 C 12.312666666666665 338.6987569685642, 12.311333333333334 338.6247569685642, 12.309999999999999 338.5554236352309 C 12.308666666666667 338.4860903018976, 12.308 338.4140903018976, 12.308 338.3394236352309 C 12.308 338.26475696856426, 12.308 338.18009030189756, 12.308 338.0854236352309 C 12.308 337.9907569685642, 12.309333333333335 337.87942363523086, 12.312 337.75142363523094 C 12.32 337.4580903018975, 12.37 337.1960903018976, 12.462 336.96542363523093 C 12.554 336.7347569685643, 12.687999999999999 336.52875696856427, 12.863999999999999 336.3474236352309 C 13.04 336.16609030189755, 13.257333333333333 336.0047569685642, 13.515999999999998 335.8634236352309 L 14.047999999999998 335.5754236352309 C 14.234666666666666 335.47409030189755, 14.354 335.3520903018976, 14.405999999999999 335.2094236352309 C 14.457999999999998 335.0667569685642, 14.488 334.93275696856426, 14.495999999999999 334.8074236352309 C 14.506666666666664 334.6607569685642, 14.512666666666664 334.5040903018976, 14.514 334.3374236352309 C 14.51533333333333 334.1707569685642, 14.511999999999997 334.01409030189757, 14.504 333.8674236352309 C 14.498666666666665 333.7634236352309, 14.468666666666666 333.67742363523087, 14.413999999999998 333.6094236352309 C 14.359333333333332 333.5414236352309, 14.279999999999998 333.49275696856427, 14.175999999999998 333.4634236352309 L 14.175999999999998 332.5754236352309 C 14.663999999999998 332.6074236352309, 15.014 332.73875696856425, 15.225999999999999 332.9694236352309 C 15.437999999999999 333.20009030189755, 15.554666666666666 333.5607569685642, 15.575999999999999 334.0514236352309 C 15.578666666666663 334.11542363523085, 15.580666666666666 334.1807569685642, 15.581999999999999 334.2474236352309 C 15.583333333333332 334.3140903018975, 15.584 334.37875696856423, 15.584 334.44142363523093 C 15.584 334.5040903018976, 15.583333333333332 334.5660903018976, 15.581999999999999 334.6274236352309 C 15.580666666666666 334.68875696856423, 15.578666666666663 334.74875696856424, 15.575999999999999 334.8074236352309 C 15.565333333333331 335.09275696856423, 15.512 335.3394236352309, 15.415999999999999 335.5474236352309 C 15.32 335.7554236352309, 15.19 335.9354236352309, 15.026 336.0874236352309 C 14.862 336.2394236352309, 14.672 336.3754236352309, 14.456 336.4954236352309 L 13.851999999999999 336.8234236352309 C 13.737333333333332 336.88475696856426, 13.647333333333332 336.96875696856426, 13.581999999999999 337.0754236352309 C 13.516666666666666 337.1820903018976, 13.469999999999999 337.2954236352309, 13.441999999999998 337.4154236352309 C 13.413999999999998 337.5354236352309, 13.399999999999999 337.6474236352309, 13.399999999999999 337.75142363523094 L 13.399999999999999 339.0434236352309 Z M 12.328 335.0034236352309 C 12.322666666666667 334.8860903018976, 12.318666666666665 334.7714236352309, 12.315999999999999 334.6594236352309 C 12.313333333333333 334.54742363523087, 12.311333333333334 334.4414236352309, 12.309999999999999 334.3414236352309 C 12.308666666666667 334.24142363523094, 12.309333333333335 334.14475696856425, 12.312 334.0514236352309 C 12.330666666666666 333.56342363523095, 12.447333333333333 333.2040903018976, 12.661999999999999 332.9734236352309 C 12.876666666666665 332.7427569685642, 13.213333333333331 332.61009030189757, 13.671999999999999 332.5754236352309 L 13.671999999999999 333.4674236352309 C 13.576 333.4967569685642, 13.505333333333333 333.5434236352309, 13.459999999999999 333.60742363523093 C 13.414666666666665 333.67142363523095, 13.390666666666664 333.74875696856424, 13.387999999999998 333.8394236352309 C 13.382666666666665 334.0474236352309, 13.379333333333333 334.24075696856426, 13.378 334.4194236352309 C 13.376666666666667 334.59809030189757, 13.381333333333334 334.7927569685642, 13.392 335.0034236352309 Z M 13.904 339.0434236352309 L 13.904 338.1114236352309 L 15.5 338.1114236352309 L 15.5 339.0434236352309 Z M 16.196 337.63142363523093 C 16.188000000000002 337.2020903018976, 16.182666666666666 336.7854236352309, 16.18 336.38142363523093 C 16.177333333333333 335.97742363523093, 16.177999999999997 335.5820903018976, 16.182 335.1954236352309 C 16.186 334.80875696856424, 16.190666666666665 334.42742363523087, 16.196 334.0514236352309 C 16.209333333333333 333.61142363523095, 16.334000000000003 333.2660903018976, 16.57 333.0154236352309 C 16.805999999999997 332.76475696856426, 17.142666666666663 332.61942363523093, 17.58 332.5794236352309 L 17.58 333.4674236352309 C 17.382666666666665 333.52342363523087, 17.281333333333333 333.65275696856423, 17.276 333.8554236352309 C 17.262666666666668 334.22609030189756, 17.253333333333334 334.57409030189757, 17.248 334.8994236352309 C 17.242666666666665 335.22475696856424, 17.24 335.5414236352309, 17.24 335.8494236352309 C 17.24 336.1574236352309, 17.242666666666665 336.47209030189754, 17.248 336.7934236352309 C 17.253333333333334 337.1147569685643, 17.262666666666668 337.4580903018976, 17.276 337.8234236352309 C 17.281333333333333 338.0314236352309, 17.382666666666665 338.1634236352309, 17.58 338.2194236352309 L 17.58 339.10742363523093 C 17.142666666666663 339.06742363523097, 16.805999999999997 338.9214236352309, 16.57 338.6694236352309 C 16.334000000000003 338.4174236352309, 16.209333333333333 338.07142363523093, 16.196 337.63142363523093 Z M 18.084 339.10742363523093 L 18.084 338.21542363523093 C 18.268 338.1620903018976, 18.366666666666667 338.03809030189757, 18.38 337.8434236352309 C 18.398666666666667 337.3767569685642, 18.410666666666668 336.92809030189756, 18.416 336.4974236352309 C 18.421333333333333 336.0667569685643, 18.421333333333333 335.6360903018976, 18.416 335.2054236352309 C 18.410666666666668 334.77475696856425, 18.398666666666667 334.32209030189756, 18.38 333.8474236352309 C 18.374666666666666 333.65275696856423, 18.276 333.52609030189757, 18.084 333.4674236352309 L 18.084 332.5794236352309 C 18.513333333333335 332.61942363523093, 18.846666666666668 332.76475696856426, 19.084 333.0154236352309 C 19.321333333333335 333.2660903018976, 19.445333333333334 333.61142363523095, 19.456 334.0514236352309 C 19.46666666666667 334.36609030189754, 19.474666666666668 334.6760903018976, 19.48 334.9814236352309 C 19.485333333333333 335.28675696856425, 19.488 335.5874236352309, 19.488 335.8834236352309 C 19.488 336.1794236352309, 19.485333333333333 336.4727569685642, 19.48 336.76342363523094 C 19.474666666666668 337.0540903018976, 19.46666666666667 337.3434236352309, 19.456 337.63142363523093 C 19.439999999999998 338.0820903018976, 19.311999999999998 338.43075696856425, 19.072 338.6774236352309 C 18.832 338.9240903018976, 18.502666666666666 339.06742363523097, 18.084 339.10742363523093 Z M 21.944 339.0434236352309 L 21.944 332.64342363523093 L 23.003999999999998 332.64342363523093 L 23.003999999999998 339.0434236352309 Z " stroke="none" fill-rule="nonzero" fill="#000000" fill-opacity="1" transform="matrix(1,0,0,1,5.05,13.314)" id="text20 l" />
  <path d="M 0 332.51912533222577 L 10 332.51912533222577 L 10 334.01912533222577 L 0 334.01912533222577 Z " stroke="none" fill-rule="evenodd" fill="#000000" fill-opacity="1" transform="matrix(1,0,0,1,5.05,13.314)" id="mark21 l" />
  <path d="M 0 324.9448270292206 L 10 324.9448270292206 L 10 326.4448270292206 L 0 326.4448270292206 Z " stroke="none" fill-rule="evenodd" fill="#000000" fill-opacity="1" transform="matrix(1,0,0,1,5.05,13.314)" id="mark22 l" />
  <path d="M 0 317.3705287262155 L 10 317.3705287262155 L 10 318.8705287262155 L 0 318.8705287262155 Z " stroke="none" fill-rule="evenodd" fill="#000000" fill-opacity="1" transform="matrix(1,0,0,1,5.05,13.314)" id="mark23 l" />
  <path d="M 0 309.7962304232104 L 10 309.7962304232104 L 10 311.2962304232104 L 0 311.2962304232104 Z " stroke="none" fill-rule="evenodd" fill="#000000" fill-opacity="1" transform="matrix(1,0,0,1,5.05,13.314)" id="mark24 l" />
  <path d="M 0 302.2219321202052 L 25 302.2219321202052 L 25 303.7219321202052 L 0 303.7219321202052 Z " stroke="none" fill-rule="evenodd" fill="#000000" fill-opacity="1" transform="matrix(1,0,0,1,5.05,13.314)" id="mark25 l" />
  <path d="M 12.328 301.1719321202052 C 12.325333333333333 301.0732654535385, 12.323333333333332 300.98459878687186, 12.322 300.9059321202052 C 12.320666666666666 300.82726545353853, 12.319333333333333 300.7532654535385, 12.318 300.6839321202052 C 12.316666666666666 300.6145987868719, 12.315999999999999 300.5425987868719, 12.316 300.4679321202052 C 12.315999999999999 300.39326545353856, 12.315999999999999 300.3085987868719, 12.316 300.2139321202052 C 12.315999999999999 300.11926545353856, 12.317333333333334 300.0079321202052, 12.32 299.87993212020524 C 12.328 299.5865987868719, 12.378 299.3245987868719, 12.47 299.09393212020524 C 12.562000000000001 298.8632654535386, 12.696 298.65726545353857, 12.872 298.4759321202052 C 13.048 298.29459878687186, 13.265333333333334 298.1332654535385, 13.524000000000001 297.9919321202052 L 14.056000000000001 297.7039321202052 C 14.242666666666668 297.60259878687185, 14.362000000000002 297.48059878687184, 14.414 297.3379321202052 C 14.466000000000001 297.1952654535386, 14.495999999999999 297.06126545353857, 14.504 296.9359321202052 C 14.514666666666667 296.7892654535385, 14.520666666666667 296.6325987868719, 14.522 296.4659321202052 C 14.523333333333333 296.2992654535385, 14.520000000000001 296.1425987868719, 14.512 295.9959321202052 C 14.506666666666666 295.89193212020524, 14.476666666666667 295.8059321202052, 14.422 295.7379321202052 C 14.367333333333335 295.6699321202052, 14.288 295.6212654535385, 14.184000000000001 295.59193212020523 L 14.184000000000001 294.7039321202052 C 14.672 294.7359321202052, 15.022000000000002 294.8672654535385, 15.234 295.0979321202052 C 15.446000000000002 295.3285987868719, 15.562666666666667 295.68926545353855, 15.584 296.1799321202052 C 15.586666666666668 296.2439321202052, 15.588666666666668 296.30926545353856, 15.59 296.3759321202052 C 15.591333333333335 296.4425987868719, 15.592000000000002 296.50726545353854, 15.592 296.56993212020524 C 15.592000000000002 296.6325987868719, 15.591333333333335 296.6945987868719, 15.59 296.7559321202052 C 15.588666666666668 296.81726545353854, 15.586666666666668 296.87726545353854, 15.584 296.9359321202052 C 15.573333333333332 297.22126545353854, 15.52 297.4679321202052, 15.424 297.67593212020523 C 15.328 297.8839321202052, 15.197999999999999 298.0639321202052, 15.033999999999999 298.2159321202052 C 14.87 298.3679321202052, 14.68 298.5039321202052, 14.464 298.6239321202052 L 13.86 298.9519321202052 C 13.745333333333335 299.01326545353857, 13.655333333333335 299.09726545353857, 13.59 299.2039321202052 C 13.524666666666668 299.3105987868719, 13.478000000000002 299.4239321202052, 13.45 299.5439321202052 C 13.422 299.66393212020523, 13.408 299.77593212020525, 13.408 299.87993212020524 L 13.408 301.1719321202052 Z M 12.336 297.1319321202052 C 12.330666666666666 297.01459878687183, 12.326666666666664 296.8999321202052, 12.324 296.7879321202052 C 12.321333333333332 296.6759321202052, 12.319333333333333 296.5699321202052, 12.318 296.4699321202052 C 12.316666666666666 296.36993212020525, 12.317333333333334 296.27326545353856, 12.32 296.1799321202052 C 12.338666666666668 295.6919321202052, 12.455333333333336 295.33259878687187, 12.67 295.1019321202052 C 12.884666666666668 294.87126545353857, 13.221333333333334 294.7385987868719, 13.68 294.7039321202052 L 13.68 295.5959321202052 C 13.584 295.62526545353853, 13.513333333333332 295.67193212020527, 13.468 295.73593212020523 C 13.422666666666668 295.7999321202052, 13.398666666666667 295.87726545353854, 13.396 295.9679321202052 C 13.390666666666666 296.17593212020523, 13.387333333333332 296.36926545353856, 13.386 296.5479321202052 C 13.384666666666666 296.7265987868719, 13.389333333333333 296.9212654535386, 13.4 297.1319321202052 Z M 13.911999999999999 301.1719321202052 L 13.911999999999999 300.2399321202052 L 15.508 300.2399321202052 L 15.508 301.1719321202052 Z M 16.18 299.7559321202052 C 16.174666666666667 299.58259878687187, 16.173333333333332 299.4432654535386, 16.176 299.3379321202052 C 16.178666666666665 299.23259878687185, 16.181333333333335 299.1305987868719, 16.183999999999997 299.0319321202052 L 17.264 299.0319321202052 C 17.256 299.10926545353857, 17.25 299.2052654535386, 17.246 299.31993212020524 C 17.241999999999997 299.4345987868719, 17.240666666666666 299.54526545353855, 17.241999999999997 299.65193212020523 C 17.243333333333332 299.75859878687186, 17.246666666666666 299.8385987868719, 17.252 299.89193212020524 C 17.262666666666668 300.0119321202052, 17.297333333333334 300.1099321202052, 17.355999999999998 300.1859321202052 C 17.414666666666665 300.2619321202052, 17.497333333333334 300.31593212020516, 17.604 300.3479321202052 L 17.604 301.2399321202052 C 17.110666666666663 301.2025987868719, 16.75333333333333 301.0679321202052, 16.532 300.8359321202052 C 16.310666666666666 300.6039321202052, 16.19333333333333 300.2439321202052, 16.18 299.7559321202052 Z M 16.279999999999998 298.4199321202052 L 16.279999999999998 294.77193212020524 L 17.348 294.77193212020524 L 17.348 298.4199321202052 Z M 17.852 297.9959321202052 L 17.852 297.2399321202052 C 17.929333333333332 297.1999321202052, 18.014666666666667 297.1679321202052, 18.107999999999997 297.1439321202052 C 18.20133333333333 297.1199321202052, 18.301333333333332 297.1079321202052, 18.407999999999998 297.1079321202052 C 18.773333333333333 297.1079321202052, 19.047333333333334 297.22326545353854, 19.23 297.4539321202052 C 19.412666666666667 297.68459878687185, 19.514666666666663 297.99859878687187, 19.535999999999998 298.3959321202052 C 19.546666666666667 298.55593212020517, 19.55333333333333 298.7145987868719, 19.555999999999997 298.8719321202052 C 19.558666666666664 299.0292654535385, 19.557333333333332 299.18259878687184, 19.552 299.33193212020524 C 19.546666666666667 299.4812654535385, 19.538666666666668 299.6212654535385, 19.528 299.7519321202052 C 19.482666666666667 300.2505987868718, 19.353333333333335 300.6159321202052, 19.14 300.8479321202052 C 18.926666666666666 301.0799321202052, 18.581333333333333 301.21059878687186, 18.104 301.2399321202052 L 18.104 300.3479321202052 C 18.21333333333333 300.3185987868719, 18.296 300.2659321202052, 18.352 300.1899321202052 C 18.408 300.1139321202052, 18.44 300.0145987868719, 18.448 299.89193212020524 C 18.471999999999998 299.60126545353853, 18.485999999999997 299.3399321202052, 18.49 299.1079321202052 C 18.494 298.8759321202052, 18.485333333333333 298.6545987868719, 18.464 298.4439321202052 C 18.447999999999997 298.2892654535386, 18.396666666666665 298.1739321202052, 18.31 298.0979321202052 C 18.223333333333333 298.0219321202052, 18.090666666666664 297.9839321202052, 17.912 297.9839321202052 C 17.901333333333334 297.9839321202052, 17.890666666666668 297.98526545353855, 17.88 297.9879321202052 C 17.86933333333333 297.9905987868719, 17.86 297.9932654535386, 17.852 297.9959321202052 Z M 17.852 295.7039321202052 L 17.852 294.77193212020524 L 19.439999999999998 294.77193212020524 L 19.439999999999998 295.7039321202052 Z M 21.944 301.1719321202052 L 21.944 294.77193212020524 L 23.003999999999998 294.77193212020524 L 23.003999999999998 301.1719321202052 Z " stroke="none" fill-rule="nonzero" fill="#000000" fill-opacity="1" transform="matrix(1,0,0,1,5.05,13.314)" id="text25 l" />
  <path d="M 0 294.64763381720013 L 10 294.64763381720013 L 10 296.14763381720013 L 0 296.14763381720013 Z " stroke="none" fill-rule="evenodd" fill="#000000" fill-opacity="1" transform="matrix(1,0,0,1,5.05,13.314)" id="mark26 l" />
  <path d="M 0 287.073335514195 L 10 287.073335514195 L 10 288.573335514195 L 0 288.573335514195 Z " stroke="none" fill-rule="evenodd" fill="#000000" fill-opacity="1" transform="matrix(1,0,0,1,5.05,13.314)" id="mark27 l" />
  <path d="M 0 279.49903721118983 L 10 279.49903721118983 L 10 280.99903721118983 L 0 280.99903721118983 Z " stroke="none" fill-rule="evenodd" fill="#000000" fill-opacity="1" transform="matrix(1,0,0,1,5.05,13.314)" id="mark28 l" />
  <path d="M 0 271.92473890818474 L 10 271.92473890818474 L 10 273.42473890818474 L 0 273.42473890818474 Z " stroke="none" fill-rule="evenodd" fill="#000000" fill-opacity="1" transform="matrix(1,0,0,1,5.05,13.314)" id="mark29 l" />
  <path d="M 0 264.3504406051796 L 25 264.3504406051796 L 25 265.8504406051796 L 0 265.8504406051796 Z " stroke="none" fill-rule="evenodd" fill="#000000" fill-opacity="1" transform="matrix(1,0,0,1,5.05,13.314)" id="mark30 l" />
  <path d="M 12.223999999999998 261.8844406051796 C 12.221333333333334 261.78310727184623, 12.219333333333333 261.6991072718463, 12.218 261.63244060517957 C 12.216666666666667 261.56577393851296, 12.216666666666667 261.4977739385129, 12.218 261.42844060517956 C 12.219333333333333 261.35910727184626, 12.221333333333334 261.2697739385129, 12.223999999999998 261.1604406051796 L 13.303999999999998 261.1604406051796 L 13.303999999999998 262.02444060517956 C 13.303999999999998 262.2617739385129, 13.417333333333332 262.41244060517954, 13.643999999999998 262.47644060517956 L 13.643999999999998 263.36844060517956 C 13.155999999999999 263.33110727184624, 12.800666666666665 263.1964406051796, 12.578 262.96444060517956 C 12.355333333333334 262.73244060517953, 12.237333333333332 262.3724406051796, 12.223999999999998 261.8844406051796 Z M 12.292 257.83244060517956 L 12.292 256.9004406051796 L 15.536 256.9004406051796 L 15.536 257.83244060517956 Z M 14.143999999999998 262.4804406051796 C 14.367999999999999 262.4244406051796, 14.483999999999998 262.27377393851293, 14.491999999999999 262.0284406051796 C 14.497333333333334 261.8257739385129, 14.500666666666666 261.64310727184625, 14.501999999999999 261.4804406051796 C 14.503333333333332 261.3177739385129, 14.498666666666665 261.1604406051796, 14.488 261.0084406051796 C 14.48 260.8511072718462, 14.431999999999999 260.7177739385129, 14.344 260.60844060517957 C 14.256 260.49910727184624, 14.089333333333332 260.4471072718462, 13.844 260.45244060517956 L 13.096 260.4604406051796 L 13.068 259.56844060517955 L 14.027999999999999 258.1844406051796 L 15.216 258.1844406051796 L 14.248 259.53644060517956 L 14.28 259.53644060517956 C 14.712 259.53644060517956, 15.028666666666666 259.6591072718462, 15.229999999999999 259.90444060517956 C 15.431333333333333 260.1497739385129, 15.544 260.52710727184626, 15.568 261.03644060517956 C 15.57333333333333 261.10844060517957, 15.576666666666664 261.18044060517957, 15.578 261.2524406051796 C 15.57933333333333 261.3244406051796, 15.579999999999998 261.39510727184626, 15.579999999999998 261.46444060517956 C 15.579999999999998 261.53377393851287, 15.57933333333333 261.6031072718462, 15.578 261.6724406051796 C 15.576666666666664 261.7417739385129, 15.57333333333333 261.8124406051796, 15.568 261.8844406051796 C 15.549333333333333 262.38044060517956, 15.428666666666665 262.7451072718462, 15.206 262.97844060517957 C 14.983333333333334 263.2117739385129, 14.630666666666666 263.3417739385129, 14.148 263.36844060517956 Z M 16.196 261.8884406051796 C 16.188000000000002 261.4591072718463, 16.182666666666666 261.0424406051796, 16.18 260.6384406051796 C 16.177333333333333 260.2344406051796, 16.177999999999997 259.8391072718463, 16.182 259.45244060517956 C 16.186 259.0657739385129, 16.190666666666665 258.6844406051796, 16.196 258.30844060517956 C 16.209333333333333 257.86844060517956, 16.334000000000003 257.52310727184624, 16.57 257.27244060517955 C 16.805999999999997 257.0217739385129, 17.142666666666663 256.8764406051796, 17.58 256.8364406051796 L 17.58 257.72444060517955 C 17.382666666666665 257.78044060517954, 17.281333333333333 257.9097739385129, 17.276 258.1124406051796 C 17.262666666666668 258.4831072718462, 17.253333333333334 258.83110727184624, 17.248 259.15644060517957 C 17.242666666666665 259.4817739385129, 17.24 259.79844060517956, 17.24 260.10644060517956 C 17.24 260.41444060517955, 17.242666666666665 260.7291072718462, 17.248 261.0504406051796 C 17.253333333333334 261.37177393851294, 17.262666666666668 261.71510727184625, 17.276 262.08044060517955 C 17.281333333333333 262.2884406051796, 17.382666666666665 262.4204406051796, 17.58 262.47644060517956 L 17.58 263.3644406051796 C 17.142666666666663 263.3244406051796, 16.805999999999997 263.1784406051796, 16.57 262.92644060517955 C 16.334000000000003 262.6744406051796, 16.209333333333333 262.3284406051796, 16.196 261.8884406051796 Z M 18.084 263.3644406051796 L 18.084 262.4724406051796 C 18.268 262.41910727184626, 18.366666666666667 262.29510727184623, 18.38 262.1004406051796 C 18.398666666666667 261.63377393851295, 18.410666666666668 261.1851072718463, 18.416 260.7544406051796 C 18.421333333333333 260.3237739385129, 18.421333333333333 259.89310727184625, 18.416 259.46244060517955 C 18.410666666666668 259.0317739385129, 18.398666666666667 258.5791072718462, 18.38 258.10444060517955 C 18.374666666666666 257.9097739385129, 18.276 257.78310727184623, 18.084 257.72444060517955 L 18.084 256.8364406051796 C 18.513333333333335 256.8764406051796, 18.846666666666668 257.0217739385129, 19.084 257.27244060517955 C 19.321333333333335 257.52310727184624, 19.445333333333334 257.86844060517956, 19.456 258.30844060517956 C 19.46666666666667 258.62310727184627, 19.474666666666668 258.9331072718462, 19.48 259.23844060517956 C 19.485333333333333 259.5437739385129, 19.488 259.84444060517956, 19.488 260.14044060517955 C 19.488 260.43644060517954, 19.485333333333333 260.7297739385129, 19.48 261.0204406051796 C 19.474666666666668 261.31110727184625, 19.46666666666667 261.6004406051796, 19.456 261.8884406051796 C 19.439999999999998 262.3391072718463, 19.311999999999998 262.6877739385129, 19.072 262.9344406051796 C 18.832 263.18110727184626, 18.502666666666666 263.3244406051796, 18.084 263.3644406051796 Z M 21.944 263.3004406051796 L 21.944 256.9004406051796 L 23.003999999999998 256.9004406051796 L 23.003999999999998 263.3004406051796 Z " stroke="none" fill-rule="nonzero" fill="#000000" fill-opacity="1" transform="matrix(1,0,0,1,5.05,13.314)" id="text30 l" />
  <path d="M 0 256.77614230217443 L 10 256.77614230217443 L 10 258.27614230217443 L 0 258.27614230217443 Z " stroke="none" fill-rule="evenodd" fill="#000000" fill-opacity="1" transform="matrix(1,0,0,1,5.05,13.314)" id="mark31 l" />
  <path d="M 0 249.2018439991693 L 10 249.2018439991693 L 10 250.7018439991693 L 0 250.7018439991693 Z " stroke="none" fill-rule="evenodd" fill="#000000" fill-opacity="1" transform="matrix(1,0,0,1,5.05,13.314)" id="mark32 l" />
  <path d="M 0 241.6275456961642 L 10 241.6275456961642 L 10 243.1275456961642 L 0 243.1275456961642 Z " stroke="none" fill-rule="evenodd" fill="#000000" fill-opacity="1" transform="matrix(1,0,0,1,5.05,13.314)" id="mark33 l" />
  <path d="M 0 234.05324739315904 L 10 234.05324739315904 L 10 235.55324739315904 L 0 235.55324739315904 Z " stroke="none" fill-rule="evenodd" fill="#000000" fill-opacity="1" transform="matrix(1,0,0,1,5.05,13.314)" id="mark34 l" />
  <path d="M 0 226.47894909015395 L 25 226.47894909015395 L 25 227.97894909015395 L 0 227.97894909015395 Z " stroke="none" fill-rule="evenodd" fill="#000000" fill-opacity="1" transform="matrix(1,0,0,1,5.05,13.314)" id="mark35 l" />
  <path d="M 12.232 223.98094909015396 C 12.229333333333333 223.8796157568206, 12.227333333333334 223.7956157568206, 12.226 223.72894909015395 C 12.224666666666668 223.66228242348728, 12.224666666666668 223.5942824234873, 12.226 223.52494909015394 C 12.227333333333334 223.45561575682063, 12.229333333333333 223.3662824234873, 12.232 223.25694909015397 L 13.312 223.25694909015397 L 13.312 224.12094909015394 C 13.312 224.3582824234873, 13.425333333333333 224.50894909015398, 13.652 224.57294909015394 L 13.652 225.46494909015397 C 13.164 225.42761575682061, 12.808666666666667 225.29294909015397, 12.586 225.06094909015394 C 12.363333333333333 224.82894909015397, 12.245333333333335 224.46894909015396, 12.232 223.98094909015396 Z M 12.3 219.92894909015396 L 12.3 218.99694909015395 L 15.544 218.99694909015395 L 15.544 219.92894909015396 Z M 14.152000000000001 224.57694909015396 C 14.376000000000001 224.52094909015395, 14.492 224.37028242348728, 14.5 224.12494909015396 C 14.505333333333333 223.9222824234873, 14.508666666666667 223.73961575682063, 14.51 223.57694909015396 C 14.511333333333333 223.4142824234873, 14.506666666666668 223.25694909015397, 14.496 223.10494909015395 C 14.488 222.94761575682062, 14.440000000000001 222.81428242348727, 14.352 222.70494909015395 C 14.264 222.59561575682062, 14.097333333333335 222.5436157568206, 13.852 222.54894909015394 L 13.104 222.55694909015395 L 13.076 221.66494909015395 L 14.036 220.28094909015397 L 15.224 220.28094909015397 L 14.256 221.63294909015394 L 14.288 221.63294909015394 C 14.719999999999999 221.63294909015394, 15.036666666666665 221.75561575682062, 15.238 222.00094909015397 C 15.439333333333334 222.2462824234873, 15.552 222.6236157568206, 15.576 223.13294909015394 C 15.581333333333333 223.20494909015395, 15.584666666666667 223.27694909015395, 15.586 223.34894909015395 C 15.587333333333333 223.42094909015395, 15.588000000000001 223.49161575682064, 15.588000000000001 223.56094909015394 C 15.588000000000001 223.6302824234873, 15.587333333333333 223.6996157568206, 15.586 223.76894909015397 C 15.584666666666667 223.83828242348727, 15.581333333333333 223.90894909015395, 15.576 223.98094909015396 C 15.557333333333334 224.47694909015397, 15.436666666666667 224.84161575682063, 15.214 225.07494909015395 C 14.991333333333333 225.30828242348727, 14.638666666666666 225.4382824234873, 14.156 225.46494909015397 Z M 16.18 223.98094909015396 C 16.174666666666667 223.80761575682064, 16.173333333333332 223.6682824234873, 16.176 223.56294909015395 C 16.178666666666665 223.45761575682064, 16.181333333333335 223.35561575682064, 16.183999999999997 223.25694909015397 L 17.264 223.25694909015397 C 17.256 223.33428242348728, 17.25 223.43028242348726, 17.246 223.54494909015395 C 17.241999999999997 223.65961575682059, 17.240666666666666 223.7702824234873, 17.241999999999997 223.87694909015394 C 17.243333333333332 223.9836157568206, 17.246666666666666 224.0636157568206, 17.252 224.11694909015395 C 17.262666666666668 224.23694909015396, 17.297333333333334 224.33494909015394, 17.355999999999998 224.41094909015396 C 17.414666666666665 224.48694909015393, 17.497333333333334 224.54094909015396, 17.604 224.57294909015394 L 17.604 225.46494909015397 C 17.110666666666663 225.42761575682061, 16.75333333333333 225.29294909015397, 16.532 225.06094909015394 C 16.310666666666666 224.82894909015397, 16.19333333333333 224.46894909015396, 16.18 223.98094909015396 Z M 16.279999999999998 222.64494909015394 L 16.279999999999998 218.99694909015395 L 17.348 218.99694909015395 L 17.348 222.64494909015394 Z M 17.852 222.22094909015397 L 17.852 221.46494909015397 C 17.929333333333332 221.42494909015397, 18.014666666666667 221.39294909015396, 18.107999999999997 221.36894909015396 C 18.20133333333333 221.34494909015396, 18.301333333333332 221.33294909015396, 18.407999999999998 221.33294909015396 C 18.773333333333333 221.33294909015396, 19.047333333333334 221.44828242348729, 19.23 221.67894909015396 C 19.412666666666667 221.90961575682064, 19.514666666666663 222.2236157568206, 19.535999999999998 222.62094909015394 C 19.546666666666667 222.78094909015397, 19.55333333333333 222.93961575682061, 19.555999999999997 223.09694909015394 C 19.558666666666664 223.2542824234873, 19.557333333333332 223.40761575682063, 19.552 223.55694909015395 C 19.546666666666667 223.70628242348727, 19.538666666666668 223.84628242348725, 19.528 223.97694909015397 C 19.482666666666667 224.47561575682062, 19.353333333333335 224.84094909015397, 19.14 225.07294909015394 C 18.926666666666666 225.30494909015397, 18.581333333333333 225.43561575682065, 18.104 225.46494909015397 L 18.104 224.57294909015394 C 18.21333333333333 224.5436157568206, 18.296 224.49094909015395, 18.352 224.41494909015395 C 18.408 224.33894909015396, 18.44 224.23961575682063, 18.448 224.11694909015395 C 18.471999999999998 223.82628242348727, 18.485999999999997 223.56494909015396, 18.49 223.33294909015396 C 18.494 223.10094909015396, 18.485333333333333 222.8796157568206, 18.464 222.66894909015394 C 18.447999999999997 222.51428242348726, 18.396666666666665 222.39894909015396, 18.31 222.32294909015394 C 18.223333333333333 222.24694909015398, 18.090666666666664 222.20894909015396, 17.912 222.20894909015396 C 17.901333333333334 222.20894909015396, 17.890666666666668 222.21028242348729, 17.88 222.21294909015396 C 17.86933333333333 222.21561575682063, 17.86 222.21828242348727, 17.852 222.22094909015397 Z M 17.852 219.92894909015396 L 17.852 218.99694909015395 L 19.439999999999998 218.99694909015395 L 19.439999999999998 219.92894909015396 Z M 21.944 225.39694909015395 L 21.944 218.99694909015395 L 23.003999999999998 218.99694909015395 L 23.003999999999998 225.39694909015395 Z " stroke="none" fill-rule="nonzero" fill="#000000" fill-opacity="1" transform="matrix(1,0,0,1,5.05,13.314)" id="text35 l" />
  <path d="M 0 218.9046507871488 L 10 218.9046507871488 L 10 220.4046507871488 L 0 220.4046507871488 Z " stroke="none" fill-rule="evenodd" fill="#000000" fill-opacity="1" transform="matrix(1,0,0,1,5.05,13.314)" id="mark36 l" />
  <path d="M 0 211.33035248414365 L 10 211.33035248414365 L 10 212.83035248414365 L 0 212.83035248414365 Z " stroke="none" fill-rule="evenodd" fill="#000000" fill-opacity="1" transform="matrix(1,0,0,1,5.05,13.314)" id="mark37 l" />
  <path d="M 0 203.75605418113855 L 10 203.75605418113855 L 10 205.25605418113855 L 0 205.25605418113855 Z " stroke="none" fill-rule="evenodd" fill="#000000" fill-opacity="1" transform="matrix(1,0,0,1,5.05,13.314)" id="mark38 l" />
  <path d="M 0 196.1817558781334 L 10 196.1817558781334 L 10 197.6817558781334 L 0 197.6817558781334 Z " stroke="none" fill-rule="evenodd" fill="#000000" fill-opacity="1" transform="matrix(1,0,0,1,5.05,13.314)" id="mark39 l" />
  <path d="M 0 188.60745757512825 L 25 188.60745757512825 L 25 190.10745757512825 L 0 190.10745757512825 Z " stroke="none" fill-rule="evenodd" fill="#000000" fill-opacity="1" transform="matrix(1,0,0,1,5.05,13.314)" id="mark40 l" />
  <path d="M 11.739999999999998 185.87345757512827 L 11.739999999999998 184.99745757512827 L 12.455999999999998 183.11745757512827 L 13.495999999999999 183.11745757512827 L 12.771999999999998 184.94945757512826 L 13.171999999999997 184.94945757512826 L 13.171999999999997 185.87345757512827 Z M 13.675999999999998 187.55745757512827 L 13.675999999999998 181.15745757512826 L 14.683999999999997 181.15745757512826 L 14.683999999999997 187.55745757512827 Z M 15.187999999999999 185.87345757512827 L 15.187999999999999 184.94945757512826 L 15.655999999999999 184.94945757512826 L 15.655999999999999 185.87345757512827 Z M 16.195999999999998 186.14545757512826 C 16.188 185.71612424179492, 16.182666666666666 185.29945757512826, 16.18 184.89545757512826 C 16.177333333333333 184.49145757512827, 16.177999999999997 184.09612424179494, 16.182 183.70945757512825 C 16.186 183.3227909084616, 16.190666666666665 182.94145757512828, 16.195999999999998 182.56545757512828 C 16.20933333333333 182.12545757512828, 16.333999999999996 181.78012424179497, 16.569999999999997 181.52945757512828 C 16.805999999999997 181.2787909084616, 17.142666666666663 181.13345757512826, 17.58 181.09345757512827 L 17.58 181.98145757512827 C 17.382666666666665 182.03745757512826, 17.281333333333333 182.16679090846162, 17.275999999999996 182.36945757512828 C 17.262666666666664 182.74012424179494, 17.25333333333333 183.08812424179493, 17.247999999999998 183.41345757512826 C 17.242666666666665 183.7387909084616, 17.24 184.05545757512826, 17.24 184.36345757512828 C 17.24 184.67145757512827, 17.242666666666665 184.98612424179493, 17.247999999999998 185.30745757512827 C 17.25333333333333 185.6287909084616, 17.262666666666664 185.97212424179492, 17.275999999999996 186.33745757512827 C 17.281333333333333 186.5454575751283, 17.382666666666665 186.67745757512827, 17.58 186.73345757512826 L 17.58 187.62145757512826 C 17.142666666666663 187.58145757512824, 16.805999999999997 187.43545757512825, 16.569999999999997 187.18345757512827 C 16.333999999999996 186.93145757512826, 16.20933333333333 186.58545757512826, 16.195999999999998 186.14545757512826 Z M 18.084 187.62145757512826 L 18.084 186.72945757512827 C 18.268 186.67612424179495, 18.366666666666667 186.55212424179496, 18.38 186.35745757512828 C 18.398666666666664 185.8907909084616, 18.410666666666664 185.44212424179494, 18.415999999999997 185.01145757512828 C 18.42133333333333 184.5807909084616, 18.42133333333333 184.15012424179494, 18.415999999999997 183.71945757512827 C 18.410666666666664 183.2887909084616, 18.398666666666664 182.83612424179495, 18.38 182.36145757512827 C 18.374666666666666 182.16679090846162, 18.276 182.04012424179496, 18.084 181.98145757512827 L 18.084 181.09345757512827 C 18.513333333333332 181.13345757512826, 18.846666666666664 181.2787909084616, 19.083999999999996 181.52945757512828 C 19.32133333333333 181.78012424179497, 19.44533333333333 182.12545757512828, 19.456 182.56545757512828 C 19.466666666666665 182.88012424179493, 19.474666666666664 183.19012424179493, 19.479999999999997 183.49545757512826 C 19.48533333333333 183.80079090846158, 19.488 184.10145757512825, 19.488 184.39745757512827 C 19.488 184.69345757512826, 19.48533333333333 184.9867909084616, 19.479999999999997 185.27745757512827 C 19.474666666666664 185.56812424179495, 19.466666666666665 185.85745757512828, 19.456 186.14545757512826 C 19.439999999999998 186.59612424179494, 19.311999999999998 186.9447909084616, 19.072 187.19145757512825 C 18.831999999999997 187.43812424179492, 18.502666666666663 187.58145757512824, 18.084 187.62145757512826 Z M 21.944 187.55745757512827 L 21.944 181.15745757512826 L 23.003999999999998 181.15745757512826 L 23.003999999999998 187.55745757512827 Z " stroke="none" fill-rule="nonzero" fill="#000000" fill-opacity="1" transform="matrix(1,0,0,1,5.05,13.314)" id="text40 l" />
  <path d="M 0 181.03315927212316 L 10 181.03315927212316 L 10 182.53315927212316 L 0 182.53315927212316 Z " stroke="none" fill-rule="evenodd" fill="#000000" fill-opacity="1" transform="matrix(1,0,0,1,5.05,13.314)" id="mark41 l" />
  <path d="M 0 173.458860969118 L 10 173.458860969118 L 10 174.958860969118 L 0 174.958860969118 Z " stroke="none" fill-rule="evenodd" fill="#000000" fill-opacity="1" transform="matrix(1,0,0,1,5.05,13.314)" id="mark42 l" />
  <path d="M 0 165.88456266611286 L 10 165.88456266611286 L 10 167.38456266611286 L 0 167.38456266611286 Z " stroke="none" fill-rule="evenodd" fill="#000000" fill-opacity="1" transform="matrix(1,0,0,1,5.05,13.314)" id="mark43 l" />
  <path d="M 0 158.31026436310776 L 10 158.31026436310776 L 10 159.81026436310776 L 0 159.81026436310776 Z " stroke="none" fill-rule="evenodd" fill="#000000" fill-opacity="1" transform="matrix(1,0,0,1,5.05,13.314)" id="mark44 l" />
  <path d="M 0 150.7359660601026 L 25 150.7359660601026 L 25 152.2359660601026 L 0 152.2359660601026 Z " stroke="none" fill-rule="evenodd" fill="#000000" fill-opacity="1" transform="matrix(1,0,0,1,5.05,13.314)" id="mark45 l" />
  <path d="M 11.748 147.96996606010262 L 11.748 147.09396606010262 L 12.463999999999999 145.21396606010262 L 13.503999999999998 145.21396606010262 L 12.78 147.04596606010261 L 13.18 147.04596606010261 L 13.18 147.96996606010262 Z M 13.684 149.65396606010262 L 13.684 143.2539660601026 L 14.691999999999998 143.2539660601026 L 14.691999999999998 149.65396606010262 Z M 15.195999999999998 147.96996606010262 L 15.195999999999998 147.04596606010261 L 15.663999999999998 147.04596606010261 L 15.663999999999998 147.96996606010262 Z M 16.18 148.23796606010262 C 16.174666666666667 148.06463272676928, 16.173333333333332 147.92529939343595, 16.176 147.81996606010262 C 16.178666666666665 147.71463272676928, 16.181333333333335 147.61263272676928, 16.183999999999997 147.51396606010263 L 17.264 147.51396606010263 C 17.256 147.59129939343597, 17.25 147.68729939343595, 17.246 147.80196606010261 C 17.241999999999997 147.91663272676928, 17.240666666666666 148.02729939343595, 17.241999999999997 148.1339660601026 C 17.243333333333332 148.24063272676926, 17.246666666666666 148.32063272676928, 17.252 148.37396606010262 C 17.262666666666668 148.49396606010262, 17.297333333333334 148.59196606010264, 17.355999999999998 148.66796606010263 C 17.414666666666665 148.74396606010262, 17.497333333333334 148.7979660601026, 17.604 148.8299660601026 L 17.604 149.72196606010263 C 17.110666666666663 149.68463272676928, 16.75333333333333 149.5499660601026, 16.532 149.3179660601026 C 16.310666666666666 149.0859660601026, 16.19333333333333 148.72596606010262, 16.18 148.23796606010262 Z M 16.279999999999998 146.9019660601026 L 16.279999999999998 143.2539660601026 L 17.348 143.2539660601026 L 17.348 146.9019660601026 Z M 17.852 146.47796606010263 L 17.852 145.72196606010263 C 17.929333333333332 145.68196606010264, 18.014666666666667 145.64996606010263, 18.107999999999997 145.62596606010263 C 18.20133333333333 145.60196606010263, 18.301333333333332 145.58996606010263, 18.407999999999998 145.58996606010263 C 18.773333333333333 145.58996606010263, 19.047333333333334 145.70529939343595, 19.23 145.93596606010263 C 19.412666666666667 146.16663272676928, 19.514666666666663 146.48063272676927, 19.535999999999998 146.8779660601026 C 19.546666666666667 147.0379660601026, 19.55333333333333 147.19663272676928, 19.555999999999997 147.3539660601026 C 19.558666666666664 147.51129939343593, 19.557333333333332 147.6646327267693, 19.552 147.81396606010262 C 19.546666666666667 147.96329939343593, 19.538666666666668 148.10329939343595, 19.528 148.23396606010263 C 19.482666666666667 148.73263272676928, 19.353333333333335 149.0979660601026, 19.14 149.3299660601026 C 18.926666666666666 149.5619660601026, 18.581333333333333 149.6926327267693, 18.104 149.72196606010263 L 18.104 148.8299660601026 C 18.21333333333333 148.8006327267693, 18.296 148.7479660601026, 18.352 148.67196606010262 C 18.408 148.59596606010263, 18.44 148.4966327267693, 18.448 148.37396606010262 C 18.471999999999998 148.08329939343594, 18.485999999999997 147.82196606010262, 18.49 147.58996606010263 C 18.494 147.35796606010263, 18.485333333333333 147.13663272676928, 18.464 146.9259660601026 C 18.447999999999997 146.77129939343595, 18.396666666666665 146.6559660601026, 18.31 146.5799660601026 C 18.223333333333333 146.5039660601026, 18.090666666666664 146.46596606010263, 17.912 146.46596606010263 C 17.901333333333334 146.46596606010263, 17.890666666666668 146.46729939343595, 17.88 146.46996606010262 C 17.86933333333333 146.4726327267693, 17.86 146.47529939343596, 17.852 146.47796606010263 Z M 17.852 144.18596606010263 L 17.852 143.2539660601026 L 19.439999999999998 143.2539660601026 L 19.439999999999998 144.18596606010263 Z M 21.944 149.65396606010262 L 21.944 143.2539660601026 L 23.003999999999998 143.2539660601026 L 23.003999999999998 149.65396606010262 Z " stroke="none" fill-rule="nonzero" fill="#000000" fill-opacity="1" transform="matrix(1,0,0,1,5.05,13.314)" id="text45 l" />
  <path d="M 0 143.16166775709746 L 10 143.16166775709746 L 10 144.66166775709746 L 0 144.66166775709746 Z " stroke="none" fill-rule="evenodd" fill="#000000" fill-opacity="1" transform="matrix(1,0,0,1,5.05,13.314)" id="mark46 l" />
  <path d="M 0 135.58736945409237 L 10 135.58736945409237 L 10 137.08736945409237 L 0 137.08736945409237 Z " stroke="none" fill-rule="evenodd" fill="#000000" fill-opacity="1" transform="matrix(1,0,0,1,5.05,13.314)" id="mark47 l" />
  <path d="M 0 128.01307115108722 L 10 128.01307115108722 L 10 129.51307115108722 L 0 129.51307115108722 Z " stroke="none" fill-rule="evenodd" fill="#000000" fill-opacity="1" transform="matrix(1,0,0,1,5.05,13.314)" id="mark48 l" />
  <path d="M 0 120.43877284808207 L 10 120.43877284808207 L 10 121.93877284808207 L 0 121.93877284808207 Z " stroke="none" fill-rule="evenodd" fill="#000000" fill-opacity="1" transform="matrix(1,0,0,1,5.05,13.314)" id="mark49 l" />
  <path d="M 0 112.86447454507697 L 25 112.86447454507697 L 25 114.36447454507697 L 0 114.36447454507697 Z " stroke="none" fill-rule="evenodd" fill="#000000" fill-opacity="1" transform="matrix(1,0,0,1,5.05,13.314)" id="mark50 l" />
  <path d="M 12.204 110.39847454507698 C 12.198666666666668 110.22514121174365, 12.197333333333333 110.08580787841031, 12.2 109.98047454507697 C 12.202666666666667 109.87514121174364, 12.205333333333336 109.77314121174365, 12.208 109.67447454507698 L 13.288 109.67447454507698 C 13.280000000000001 109.75180787841032, 13.274000000000001 109.84780787841031, 13.27 109.96247454507697 C 13.265999999999998 110.07714121174364, 13.264666666666667 110.1878078784103, 13.266 110.29447454507698 C 13.267333333333333 110.40114121174364, 13.270666666666667 110.48114121174365, 13.276 110.53447454507698 C 13.286666666666665 110.65447454507697, 13.321333333333332 110.75247454507698, 13.379999999999999 110.82847454507697 C 13.438666666666666 110.90447454507697, 13.521333333333335 110.95847454507697, 13.628 110.99047454507698 L 13.628 111.88247454507697 C 13.134666666666668 111.84514121174364, 12.777333333333335 111.71047454507698, 12.556 111.47847454507698 C 12.334666666666667 111.24647454507698, 12.217333333333332 110.88647454507696, 12.204 110.39847454507698 Z M 12.304 109.06247454507698 L 12.304 105.41447454507697 L 13.372 105.41447454507697 L 13.372 109.06247454507698 Z M 13.876 108.63847454507697 L 13.876 107.88247454507697 C 13.953333333333333 107.84247454507698, 14.038666666666668 107.81047454507697, 14.132 107.78647454507697 C 14.225333333333333 107.76247454507697, 14.325333333333333 107.75047454507697, 14.432 107.75047454507697 C 14.797333333333334 107.75047454507697, 15.071333333333332 107.86580787841031, 15.254 108.09647454507697 C 15.436666666666667 108.32714121174364, 15.538666666666668 108.64114121174364, 15.56 109.03847454507698 C 15.570666666666668 109.19847454507698, 15.577333333333334 109.35714121174364, 15.58 109.51447454507698 C 15.582666666666666 109.6718078784103, 15.581333333333333 109.82514121174364, 15.576 109.97447454507697 C 15.570666666666666 110.1238078784103, 15.562666666666665 110.26380787841032, 15.552 110.39447454507697 C 15.506666666666668 110.89314121174365, 15.377333333333333 111.25847454507698, 15.164 111.49047454507698 C 14.950666666666667 111.72247454507698, 14.605333333333332 111.85314121174365, 14.128 111.88247454507697 L 14.128 110.99047454507698 C 14.237333333333334 110.96114121174364, 14.32 110.90847454507698, 14.376 110.83247454507698 C 14.432 110.75647454507697, 14.464 110.65714121174364, 14.472 110.53447454507698 C 14.495999999999999 110.24380787841031, 14.509999999999998 109.98247454507698, 14.514 109.75047454507697 C 14.518 109.51847454507697, 14.509333333333334 109.29714121174365, 14.488 109.08647454507698 C 14.472000000000001 108.93180787841032, 14.420666666666666 108.81647454507697, 14.334 108.74047454507698 C 14.247333333333334 108.66447454507698, 14.114666666666666 108.62647454507697, 13.936 108.62647454507697 C 13.925333333333333 108.62647454507697, 13.914666666666665 108.62780787841032, 13.904 108.63047454507698 C 13.893333333333334 108.63314121174363, 13.884 108.6358078784103, 13.876 108.63847454507697 Z M 13.876 106.34647454507697 L 13.876 105.41447454507697 L 15.464 105.41447454507697 L 15.464 106.34647454507697 Z M 16.196 110.40247454507697 C 16.188000000000002 109.97314121174364, 16.182666666666666 109.55647454507698, 16.18 109.15247454507697 C 16.177333333333333 108.74847454507696, 16.177999999999997 108.35314121174363, 16.182 107.96647454507698 C 16.186 107.57980787841032, 16.190666666666665 107.19847454507698, 16.196 106.82247454507697 C 16.209333333333333 106.38247454507697, 16.334000000000003 106.03714121174363, 16.57 105.78647454507697 C 16.805999999999997 105.53580787841031, 17.142666666666663 105.39047454507698, 17.58 105.35047454507698 L 17.58 106.23847454507698 C 17.382666666666665 106.29447454507698, 17.281333333333333 106.42380787841032, 17.276 106.62647454507697 C 17.262666666666668 106.99714121174364, 17.253333333333334 107.34514121174362, 17.248 107.67047454507697 C 17.242666666666665 107.99580787841029, 17.24 108.31247454507697, 17.24 108.62047454507697 C 17.24 108.92847454507698, 17.242666666666665 109.24314121174365, 17.248 109.56447454507698 C 17.253333333333334 109.8858078784103, 17.262666666666668 110.22914121174364, 17.276 110.59447454507698 C 17.281333333333333 110.80247454507698, 17.382666666666665 110.93447454507697, 17.58 110.99047454507698 L 17.58 111.87847454507697 C 17.142666666666663 111.83847454507698, 16.805999999999997 111.69247454507698, 16.57 111.44047454507698 C 16.334000000000003 111.18847454507699, 16.209333333333333 110.84247454507698, 16.196 110.40247454507697 Z M 18.084 111.87847454507697 L 18.084 110.98647454507697 C 18.268 110.93314121174365, 18.366666666666667 110.80914121174365, 18.38 110.61447454507697 C 18.398666666666667 110.1478078784103, 18.410666666666668 109.69914121174364, 18.416 109.26847454507697 C 18.421333333333333 108.8378078784103, 18.421333333333333 108.40714121174364, 18.416 107.97647454507698 C 18.410666666666668 107.5458078784103, 18.398666666666667 107.09314121174364, 18.38 106.61847454507698 C 18.374666666666666 106.42380787841032, 18.276 106.29714121174365, 18.084 106.23847454507698 L 18.084 105.35047454507698 C 18.513333333333335 105.39047454507698, 18.846666666666668 105.53580787841031, 19.084 105.78647454507697 C 19.321333333333335 106.03714121174363, 19.445333333333334 106.38247454507697, 19.456 106.82247454507697 C 19.46666666666667 107.13714121174364, 19.474666666666668 107.44714121174364, 19.48 107.75247454507698 C 19.485333333333333 108.05780787841032, 19.488 108.35847454507697, 19.488 108.65447454507698 C 19.488 108.95047454507699, 19.485333333333333 109.24380787841031, 19.48 109.53447454507698 C 19.474666666666668 109.82514121174364, 19.46666666666667 110.11447454507697, 19.456 110.40247454507697 C 19.439999999999998 110.85314121174363, 19.311999999999998 111.2018078784103, 19.072 111.44847454507698 C 18.832 111.69514121174365, 18.502666666666666 111.83847454507698, 18.084 111.87847454507697 Z M 21.944 111.81447454507698 L 21.944 105.41447454507697 L 23.003999999999998 105.41447454507697 L 23.003999999999998 111.81447454507698 Z " stroke="none" fill-rule="nonzero" fill="#000000" fill-opacity="1" transform="matrix(1,0,0,1,5.05,13.314)" id="text50 l" />
  <path d="M 0 105.29017624207182 L 10 105.29017624207182 L 10 106.79017624207182 L 0 106.79017624207182 Z " stroke="none" fill-rule="evenodd" fill="#000000" fill-opacity="1" transform="matrix(1,0,0,1,5.05,13.314)" id="mark51 l" />
  <path d="M 0 97.71587793906667 L 10 97.71587793906667 L 10 99.21587793906667 L 0 99.21587793906667 Z " stroke="none" fill-rule="evenodd" fill="#000000" fill-opacity="1" transform="matrix(1,0,0,1,5.05,13.314)" id="mark52 l" />
  <path d="M 0 90.14157963606158 L 10 90.14157963606158 L 10 91.64157963606158 L 0 91.64157963606158 Z " stroke="none" fill-rule="evenodd" fill="#000000" fill-opacity="1" transform="matrix(1,0,0,1,5.05,13.314)" id="mark53 l" />
  <path d="M 0 82.56728133305643 L 10 82.56728133305643 L 10 84.06728133305643 L 0 84.06728133305643 Z " stroke="none" fill-rule="evenodd" fill="#000000" fill-opacity="1" transform="matrix(1,0,0,1,5.05,13.314)" id="mark54 l" />
  <path d="M 0 74.99298303005128 L 25 74.99298303005128 L 25 76.49298303005128 L 0 76.49298303005128 Z " stroke="none" fill-rule="evenodd" fill="#000000" fill-opacity="1" transform="matrix(1,0,0,1,5.05,13.314)" id="mark55 l" />
  <path d="M 12.212 72.49498303005129 C 12.206666666666667 72.32164969671794, 12.205333333333332 72.18231636338461, 12.207999999999998 72.07698303005128 C 12.210666666666667 71.97164969671795, 12.213333333333335 71.86964969671794, 12.216 71.77098303005128 L 13.296 71.77098303005128 C 13.288 71.84831636338461, 13.282 71.94431636338462, 13.277999999999999 72.05898303005128 C 13.273999999999997 72.17364969671794, 13.272666666666666 72.28431636338462, 13.274 72.39098303005129 C 13.275333333333332 72.49764969671796, 13.278666666666666 72.57764969671794, 13.283999999999999 72.63098303005128 C 13.294666666666664 72.75098303005129, 13.32933333333333 72.84898303005129, 13.387999999999998 72.92498303005128 C 13.446666666666665 73.00098303005129, 13.529333333333334 73.05498303005129, 13.636 73.08698303005129 L 13.636 73.97898303005128 C 13.142666666666667 73.94164969671795, 12.785333333333334 73.80698303005128, 12.563999999999998 73.57498303005129 C 12.342666666666666 73.34298303005129, 12.225333333333332 72.98298303005129, 12.212 72.49498303005129 Z M 12.312 71.15898303005129 L 12.312 67.51098303005128 L 13.379999999999999 67.51098303005128 L 13.379999999999999 71.15898303005129 Z M 13.883999999999999 70.73498303005128 L 13.883999999999999 69.97898303005128 C 13.961333333333332 69.93898303005128, 14.046666666666667 69.90698303005128, 14.139999999999999 69.88298303005128 C 14.233333333333333 69.85898303005129, 14.333333333333332 69.84698303005129, 14.44 69.84698303005129 C 14.805333333333333 69.84698303005129, 15.07933333333333 69.96231636338462, 15.261999999999999 70.19298303005128 C 15.444666666666667 70.42364969671794, 15.546666666666667 70.73764969671795, 15.568 71.13498303005129 C 15.578666666666667 71.29498303005128, 15.585333333333333 71.45364969671795, 15.588 71.61098303005129 C 15.590666666666666 71.76831636338463, 15.589333333333332 71.92164969671796, 15.584 72.07098303005128 C 15.578666666666665 72.22031636338463, 15.570666666666664 72.36031636338461, 15.559999999999999 72.49098303005128 C 15.514666666666667 72.98964969671795, 15.385333333333332 73.35498303005129, 15.171999999999999 73.58698303005129 C 14.958666666666666 73.81898303005129, 14.613333333333332 73.94964969671796, 14.136 73.97898303005128 L 14.136 73.08698303005129 C 14.245333333333333 73.05764969671796, 14.328 73.00498303005128, 14.383999999999999 72.92898303005128 C 14.44 72.85298303005129, 14.472 72.75364969671796, 14.479999999999999 72.63098303005128 C 14.503999999999998 72.34031636338463, 14.517999999999997 72.07898303005129, 14.521999999999998 71.84698303005129 C 14.526 71.61498303005128, 14.517333333333333 71.39364969671794, 14.495999999999999 71.18298303005129 C 14.48 71.02831636338462, 14.428666666666665 70.9129830300513, 14.341999999999999 70.83698303005129 C 14.255333333333333 70.76098303005128, 14.122666666666666 70.72298303005128, 13.943999999999999 70.72298303005128 C 13.933333333333332 70.72298303005128, 13.922666666666665 70.72431636338462, 13.911999999999999 70.72698303005129 C 13.901333333333334 70.72964969671794, 13.892 70.73231636338461, 13.883999999999999 70.73498303005128 Z M 13.883999999999999 68.44298303005128 L 13.883999999999999 67.51098303005128 L 15.472 67.51098303005128 L 15.472 68.44298303005128 Z M 16.18 72.49498303005129 C 16.174666666666667 72.32164969671794, 16.173333333333332 72.18231636338461, 16.176 72.07698303005128 C 16.178666666666665 71.97164969671795, 16.181333333333335 71.86964969671794, 16.183999999999997 71.77098303005128 L 17.264 71.77098303005128 C 17.256 71.84831636338461, 17.25 71.94431636338462, 17.246 72.05898303005128 C 17.241999999999997 72.17364969671794, 17.240666666666666 72.28431636338462, 17.241999999999997 72.39098303005129 C 17.243333333333332 72.49764969671796, 17.246666666666666 72.57764969671794, 17.252 72.63098303005128 C 17.262666666666668 72.75098303005129, 17.297333333333334 72.84898303005129, 17.355999999999998 72.92498303005128 C 17.414666666666665 73.00098303005129, 17.497333333333334 73.05498303005129, 17.604 73.08698303005129 L 17.604 73.97898303005128 C 17.110666666666663 73.94164969671795, 16.75333333333333 73.80698303005128, 16.532 73.57498303005129 C 16.310666666666666 73.34298303005129, 16.19333333333333 72.98298303005129, 16.18 72.49498303005129 Z M 16.279999999999998 71.15898303005129 L 16.279999999999998 67.51098303005128 L 17.348 67.51098303005128 L 17.348 71.15898303005129 Z M 17.852 70.73498303005128 L 17.852 69.97898303005128 C 17.929333333333332 69.93898303005128, 18.014666666666667 69.90698303005128, 18.107999999999997 69.88298303005128 C 18.20133333333333 69.85898303005129, 18.301333333333332 69.84698303005129, 18.407999999999998 69.84698303005129 C 18.773333333333333 69.84698303005129, 19.047333333333334 69.96231636338462, 19.23 70.19298303005128 C 19.412666666666667 70.42364969671794, 19.514666666666663 70.73764969671795, 19.535999999999998 71.13498303005129 C 19.546666666666667 71.29498303005128, 19.55333333333333 71.45364969671795, 19.555999999999997 71.61098303005129 C 19.558666666666664 71.76831636338463, 19.557333333333332 71.92164969671796, 19.552 72.07098303005128 C 19.546666666666667 72.22031636338463, 19.538666666666668 72.36031636338461, 19.528 72.49098303005128 C 19.482666666666667 72.98964969671795, 19.353333333333335 73.35498303005129, 19.14 73.58698303005129 C 18.926666666666666 73.81898303005129, 18.581333333333333 73.94964969671796, 18.104 73.97898303005128 L 18.104 73.08698303005129 C 18.21333333333333 73.05764969671796, 18.296 73.00498303005128, 18.352 72.92898303005128 C 18.408 72.85298303005129, 18.44 72.75364969671796, 18.448 72.63098303005128 C 18.471999999999998 72.34031636338463, 18.485999999999997 72.07898303005129, 18.49 71.84698303005129 C 18.494 71.61498303005128, 18.485333333333333 71.39364969671794, 18.464 71.18298303005129 C 18.447999999999997 71.02831636338462, 18.396666666666665 70.9129830300513, 18.31 70.83698303005129 C 18.223333333333333 70.76098303005128, 18.090666666666664 70.72298303005128, 17.912 70.72298303005128 C 17.901333333333334 70.72298303005128, 17.890666666666668 70.72431636338462, 17.88 70.72698303005129 C 17.86933333333333 70.72964969671794, 17.86 70.73231636338461, 17.852 70.73498303005128 Z M 17.852 68.44298303005128 L 17.852 67.51098303005128 L 19.439999999999998 67.51098303005128 L 19.439999999999998 68.44298303005128 Z M 21.944 73.91098303005128 L 21.944 67.51098303005128 L 23.003999999999998 67.51098303005128 L 23.003999999999998 73.91098303005128 Z " stroke="none" fill-rule="nonzero" fill="#000000" fill-opacity="1" transform="matrix(1,0,0,1,5.05,13.314)" id="text55 l" />
  <path d="M 0 67.41868472704618 L 10 67.41868472704618 L 10 68.91868472704618 L 0 68.91868472704618 Z " stroke="none" fill-rule="evenodd" fill="#000000" fill-opacity="1" transform="matrix(1,0,0,1,5.05,13.314)" id="mark56 l" />
  <path d="M 0 59.84438642404103 L 10 59.84438642404103 L 10 61.34438642404103 L 0 61.34438642404103 Z " stroke="none" fill-rule="evenodd" fill="#000000" fill-opacity="1" transform="matrix(1,0,0,1,5.05,13.314)" id="mark57 l" />
  <path d="M 0 52.27008812103588 L 10 52.27008812103588 L 10 53.77008812103588 L 0 53.77008812103588 Z " stroke="none" fill-rule="evenodd" fill="#000000" fill-opacity="1" transform="matrix(1,0,0,1,5.05,13.314)" id="mark58 l" />
  <path d="M 0 44.69578981803079 L 10 44.69578981803079 L 10 46.19578981803079 L 0 46.19578981803079 Z " stroke="none" fill-rule="evenodd" fill="#000000" fill-opacity="1" transform="matrix(1,0,0,1,5.05,13.314)" id="mark59 l" />
  <path d="M 0 37.12149151502564 L 25 37.12149151502564 L 25 38.62149151502564 L 0 38.62149151502564 Z " stroke="none" fill-rule="evenodd" fill="#000000" fill-opacity="1" transform="matrix(1,0,0,1,5.05,13.314)" id="mark60 l" />
  <path d="M 12.264 34.655491515025645 C 12.261333333333333 34.39149151502564, 12.258 34.11415818169231, 12.254 33.823491515025644 C 12.25 33.53282484835898, 12.248 33.23415818169231, 12.248 32.92749151502564 C 12.248 32.62082484835898, 12.249333333333333 32.31282484835898, 12.251999999999999 32.003491515025644 C 12.254666666666665 31.69415818169231, 12.258666666666667 31.38615818169231, 12.264 31.07949151502564 C 12.271999999999998 30.615491515025646, 12.397333333333332 30.263491515025642, 12.639999999999999 30.02349151502564 C 12.882666666666665 29.783491515025638, 13.215999999999998 29.644824848358972, 13.639999999999999 29.607491515025643 L 13.639999999999999 30.499491515025642 C 13.543999999999997 30.52349151502564, 13.470666666666665 30.56749151502564, 13.419999999999998 30.631491515025644 C 13.369333333333332 30.69549151502564, 13.343999999999998 30.780824848358975, 13.344 30.88749151502564 C 13.335999999999999 31.375491515025644, 13.330666666666666 31.84215818169231, 13.328 32.28749151502564 C 13.325333333333333 32.73282484835897, 13.323999999999998 33.16615818169231, 13.323999999999998 33.58749151502564 C 13.323999999999998 34.00882484835898, 13.328 34.423491515025646, 13.335999999999999 34.83149151502564 C 13.335999999999999 34.94082484835897, 13.363333333333333 35.03015818169231, 13.418 35.09949151502564 C 13.472666666666665 35.16882484835897, 13.549333333333333 35.21815818169231, 13.648 35.247491515025644 L 13.648 36.13949151502564 C 13.159999999999998 36.10749151502564, 12.809333333333331 35.975491515025645, 12.595999999999998 35.74349151502564 C 12.382666666666665 35.51149151502564, 12.271999999999998 35.14882484835898, 12.264 34.655491515025645 Z M 13.812 32.97549151502564 L 13.812 32.23149151502564 C 13.894666666666666 32.183491515025636, 13.987333333333332 32.14615818169231, 14.09 32.11949151502564 C 14.192666666666668 32.09282484835898, 14.301333333333332 32.079491515025644, 14.415999999999999 32.079491515025644 C 14.84 32.079491515025644, 15.134 32.17882484835898, 15.297999999999998 32.37749151502564 C 15.462 32.57615818169231, 15.547999999999998 32.90749151502564, 15.556 33.37149151502564 C 15.561333333333334 33.55549151502564, 15.564666666666666 33.710824848358975, 15.565999999999999 33.83749151502564 C 15.567333333333332 33.96415818169231, 15.567333333333332 34.088824848358975, 15.565999999999999 34.21149151502564 C 15.564666666666666 34.33415818169231, 15.559999999999999 34.482158181692306, 15.552 34.655491515025645 C 15.527999999999999 35.14615818169231, 15.408 35.50882484835898, 15.192 35.74349151502564 C 14.975999999999999 35.97815818169231, 14.628 36.11015818169231, 14.148 36.13949151502564 L 14.148 35.25549151502564 C 14.251999999999999 35.226158181692306, 14.331333333333333 35.17815818169231, 14.386 35.11149151502564 C 14.440666666666665 35.04482484835897, 14.469333333333333 34.95815818169231, 14.472 34.85149151502564 C 14.477333333333332 34.69682484835897, 14.481333333333332 34.558158181692306, 14.483999999999998 34.43549151502564 C 14.486666666666666 34.31282484835897, 14.489333333333335 34.19549151502564, 14.491999999999999 34.08349151502564 C 14.494666666666667 33.97149151502565, 14.495333333333333 33.86015818169231, 14.494 33.74949151502564 C 14.492666666666667 33.63882484835898, 14.489333333333333 33.52215818169231, 14.483999999999998 33.399491515025645 C 14.481333333333332 33.250158181692306, 14.429333333333332 33.13949151502564, 14.328 33.067491515025644 C 14.226666666666665 32.99549151502564, 14.094666666666665 32.95949151502564, 13.931999999999999 32.95949151502564 C 13.913333333333334 32.95949151502564, 13.894 32.96015818169231, 13.873999999999999 32.96149151502564 C 13.854 32.96282484835898, 13.833333333333332 32.96749151502564, 13.812 32.97549151502564 Z M 14.44 31.65549151502564 C 14.448 31.56215818169231, 14.452666666666666 31.48015818169231, 14.453999999999999 31.409491515025643 C 14.455333333333332 31.338824848358975, 14.454666666666665 31.263491515025642, 14.451999999999998 31.183491515025644 C 14.449333333333332 31.103491515025645, 14.445333333333334 31.00482484835898, 14.44 30.88749151502564 C 14.434666666666665 30.788824848358978, 14.407999999999998 30.705491515025642, 14.36 30.637491515025644 C 14.311999999999998 30.56949151502564, 14.238666666666665 30.52349151502564, 14.139999999999999 30.499491515025642 L 14.139999999999999 29.61149151502564 C 14.577333333333332 29.65149151502564, 14.911333333333332 29.79615818169231, 15.142 30.045491515025642 C 15.372666666666667 30.294824848358974, 15.495999999999999 30.622158181692306, 15.511999999999999 31.02749151502564 C 15.514666666666667 31.094158181692308, 15.516666666666666 31.15749151502564, 15.517999999999999 31.217491515025642 C 15.519333333333332 31.277491515025645, 15.519333333333332 31.341491515025645, 15.517999999999999 31.409491515025643 C 15.516666666666666 31.47749151502564, 15.514666666666667 31.55949151502564, 15.511999999999999 31.65549151502564 Z M 16.196 34.65949151502564 C 16.188000000000002 34.23015818169231, 16.182666666666666 33.813491515025646, 16.18 33.40949151502564 C 16.177333333333333 33.00549151502564, 16.177999999999997 32.610158181692306, 16.182 32.22349151502564 C 16.186 31.836824848358972, 16.190666666666665 31.455491515025642, 16.196 31.07949151502564 C 16.209333333333333 30.63949151502564, 16.334000000000003 30.29415818169231, 16.57 30.043491515025643 C 16.805999999999997 29.792824848358975, 17.142666666666663 29.647491515025642, 17.58 29.607491515025643 L 17.58 30.49549151502564 C 17.382666666666665 30.55149151502564, 17.281333333333333 30.680824848358974, 17.276 30.883491515025643 C 17.262666666666668 31.25415818169231, 17.253333333333334 31.60215818169231, 17.248 31.927491515025643 C 17.242666666666665 32.252824848358976, 17.24 32.569491515025646, 17.24 32.87749151502564 C 17.24 33.185491515025646, 17.242666666666665 33.50015818169231, 17.248 33.82149151502564 C 17.253333333333334 34.14282484835897, 17.262666666666668 34.4861581816923, 17.276 34.85149151502564 C 17.281333333333333 35.05949151502564, 17.382666666666665 35.19149151502564, 17.58 35.247491515025644 L 17.58 36.13549151502564 C 17.142666666666663 36.09549151502564, 16.805999999999997 35.94949151502564, 16.57 35.69749151502564 C 16.334000000000003 35.44549151502564, 16.209333333333333 35.09949151502564, 16.196 34.65949151502564 Z M 18.084 36.13549151502564 L 18.084 35.24349151502564 C 18.268 35.190158181692304, 18.366666666666667 35.06615818169231, 18.38 34.87149151502564 C 18.398666666666667 34.40482484835898, 18.410666666666668 33.95615818169231, 18.416 33.52549151502564 C 18.421333333333333 33.094824848358975, 18.421333333333333 32.66415818169231, 18.416 32.23349151502564 C 18.410666666666668 31.802824848358973, 18.398666666666667 31.350158181692308, 18.38 30.875491515025644 C 18.374666666666666 30.680824848358977, 18.276 30.55415818169231, 18.084 30.49549151502564 L 18.084 29.607491515025643 C 18.513333333333335 29.647491515025642, 18.846666666666668 29.792824848358975, 19.084 30.043491515025643 C 19.321333333333335 30.29415818169231, 19.445333333333334 30.63949151502564, 19.456 31.07949151502564 C 19.46666666666667 31.394158181692312, 19.474666666666668 31.70415818169231, 19.48 32.009491515025644 C 19.485333333333333 32.31482484835898, 19.488 32.615491515025646, 19.488 32.911491515025645 C 19.488 33.207491515025644, 19.485333333333333 33.500824848358974, 19.48 33.79149151502564 C 19.474666666666668 34.08215818169231, 19.46666666666667 34.37149151502564, 19.456 34.65949151502564 C 19.439999999999998 35.11015818169231, 19.311999999999998 35.45882484835897, 19.072 35.70549151502564 C 18.832 35.95215818169231, 18.502666666666666 36.09549151502564, 18.084 36.13549151502564 Z M 21.944 36.07149151502564 L 21.944 29.671491515025643 L 23.003999999999998 29.671491515025643 L 23.003999999999998 36.07149151502564 Z " stroke="none" fill-rule="nonzero" fill="#000000" fill-opacity="1" transform="matrix(1,0,0,1,5.05,13.314)" id="text60 l" />
  <path d="M 0 29.54719321202049 L 10 29.54719321202049 L 10 31.04719321202049 L 0 31.04719321202049 Z " stroke="none" fill-rule="evenodd" fill="#000000" fill-opacity="1" transform="matrix(1,0,0,1,5.05,13.314)" id="mark61 l" />
  <path d="M 0 21.972894909015395 L 10 21.972894909015395 L 10 23.472894909015395 L 0 23.472894909015395 Z " stroke="none" fill-rule="evenodd" fill="#000000" fill-opacity="1" transform="matrix(1,0,0,1,5.05,13.314)" id="mark62 l" />
  <path d="M 0 14.398596606010244 L 10 14.398596606010244 L 10 15.898596606010244 L 0 15.898596606010244 Z " stroke="none" fill-rule="evenodd" fill="#000000" fill-opacity="1" transform="matrix(1,0,0,1,5.05,13.314)" id="mark63 l" />
  <path d="M 0 6.824298303005094 L 10 6.824298303005094 L 10 8.324298303005094 L 0 8.324298303005094 Z " stroke="none" fill-rule="evenodd" fill="#000000" fill-opacity="1" transform="matrix(1,0,0,1,5.05,13.314)" id="mark64 l" />
  <path d="M 0 -0.75 L 25 -0.75 L 25 0.75 L 0 0.75 Z " stroke="none" fill-rule="evenodd" fill="#000000" fill-opacity="1" transform="matrix(1,0,0,1,5.05,13.314)" id="mark65 l" />
  <path d="M 12.272 -3.2159999999999997 C 12.269333333333332 -3.4799999999999995, 12.266 -3.7573333333333334, 12.262 -4.048 C 12.258000000000001 -4.338666666666667, 12.256 -4.637333333333333, 12.256 -4.944 C 12.256 -5.250666666666667, 12.257333333333335 -5.558666666666666, 12.26 -5.867999999999999 C 12.262666666666668 -6.1773333333333325, 12.266666666666666 -6.485333333333333, 12.272 -6.792 C 12.280000000000001 -7.256, 12.405333333333335 -7.6080000000000005, 12.648 -7.848 C 12.890666666666668 -8.088000000000001, 13.224 -8.226666666666667, 13.648 -8.264 L 13.648 -7.372 C 13.552 -7.347999999999999, 13.478666666666665 -7.303999999999999, 13.428 -7.239999999999999 C 13.377333333333333 -7.176, 13.352 -7.090666666666667, 13.352 -6.984 C 13.344 -6.496, 13.338666666666665 -6.029333333333334, 13.336 -5.584 C 13.333333333333332 -5.1386666666666665, 13.332 -4.705333333333334, 13.332 -4.284 C 13.332 -3.8626666666666667, 13.335999999999999 -3.4480000000000004, 13.344 -3.04 C 13.343999999999998 -2.9306666666666668, 13.371333333333332 -2.841333333333333, 13.426 -2.772 C 13.480666666666666 -2.7026666666666666, 13.557333333333332 -2.653333333333333, 13.656 -2.6239999999999997 L 13.656 -1.7319999999999998 C 13.168 -1.7639999999999998, 12.817333333333334 -1.896, 12.604 -2.1279999999999997 C 12.390666666666668 -2.36, 12.280000000000001 -2.7226666666666666, 12.272 -3.2159999999999997 Z M 13.82 -4.896 L 13.82 -5.64 C 13.902666666666665 -5.688, 13.995333333333331 -5.725333333333333, 14.097999999999999 -5.752 C 14.200666666666667 -5.778666666666666, 14.309333333333333 -5.792, 14.424 -5.792 C 14.848 -5.792, 15.142000000000001 -5.692666666666666, 15.306000000000001 -5.494 C 15.47 -5.295333333333334, 15.556000000000001 -4.964, 15.564 -4.5 C 15.569333333333333 -4.316000000000001, 15.572666666666667 -4.160666666666667, 15.574 -4.034 C 15.575333333333333 -3.907333333333333, 15.575333333333333 -3.7826666666666666, 15.574 -3.6599999999999997 C 15.572666666666667 -3.5373333333333337, 15.567999999999998 -3.389333333333333, 15.56 -3.2159999999999997 C 15.536000000000001 -2.7253333333333334, 15.416 -2.3626666666666667, 15.2 -2.1279999999999997 C 14.984 -1.893333333333333, 14.636 -1.7613333333333332, 14.156 -1.7319999999999998 L 14.156 -2.6159999999999997 C 14.259999999999998 -2.6453333333333333, 14.339333333333332 -2.6933333333333334, 14.394 -2.76 C 14.448666666666666 -2.826666666666666, 14.477333333333334 -2.913333333333333, 14.48 -3.0199999999999996 C 14.485333333333333 -3.174666666666666, 14.489333333333335 -3.313333333333333, 14.492 -3.436 C 14.494666666666667 -3.558666666666667, 14.497333333333334 -3.676, 14.5 -3.788 C 14.502666666666666 -3.9, 14.503333333333332 -4.011333333333333, 14.501999999999999 -4.122 C 14.500666666666666 -4.232666666666667, 14.497333333333334 -4.349333333333333, 14.492 -4.4719999999999995 C 14.489333333333335 -4.621333333333333, 14.437333333333335 -4.732, 14.336 -4.804 C 14.234666666666666 -4.876, 14.102666666666666 -4.912, 13.94 -4.912 C 13.921333333333333 -4.912, 13.902000000000001 -4.911333333333333, 13.882 -4.91 C 13.862000000000002 -4.908666666666667, 13.841333333333335 -4.904, 13.82 -4.896 Z M 14.448 -6.216 C 14.456 -6.309333333333333, 14.460666666666668 -6.391333333333333, 14.462 -6.462 C 14.463333333333335 -6.532666666666667, 14.462666666666667 -6.6080000000000005, 14.46 -6.688 C 14.457333333333333 -6.768000000000001, 14.453333333333333 -6.866666666666667, 14.448 -6.984 C 14.442666666666668 -7.082666666666666, 14.416 -7.165999999999999, 14.368 -7.233999999999999 C 14.32 -7.302, 14.246666666666666 -7.347999999999999, 14.148 -7.372 L 14.148 -8.26 C 14.585333333333335 -8.219999999999999, 14.919333333333334 -8.075333333333333, 15.15 -7.826 C 15.380666666666666 -7.576666666666666, 15.504000000000001 -7.2493333333333325, 15.52 -6.843999999999999 C 15.522666666666666 -6.777333333333333, 15.524666666666668 -6.7139999999999995, 15.526 -6.654 C 15.527333333333335 -6.594, 15.527333333333335 -6.53, 15.526 -6.462 C 15.524666666666668 -6.393999999999999, 15.522666666666666 -6.311999999999999, 15.52 -6.216 Z M 16.18 -3.2159999999999997 C 16.174666666666667 -3.389333333333333, 16.173333333333332 -3.528666666666667, 16.176 -3.634 C 16.178666666666665 -3.7393333333333336, 16.181333333333335 -3.841333333333333, 16.183999999999997 -3.94 L 17.264 -3.94 C 17.256 -3.8626666666666667, 17.25 -3.7666666666666666, 17.246 -3.6519999999999997 C 17.241999999999997 -3.5373333333333328, 17.240666666666666 -3.4266666666666667, 17.241999999999997 -3.32 C 17.243333333333332 -3.213333333333334, 17.246666666666666 -3.1333333333333337, 17.252 -3.08 C 17.262666666666668 -2.96, 17.297333333333334 -2.862, 17.355999999999998 -2.7859999999999996 C 17.414666666666665 -2.71, 17.497333333333334 -2.6559999999999997, 17.604 -2.6239999999999997 L 17.604 -1.7319999999999998 C 17.110666666666663 -1.7693333333333332, 16.75333333333333 -1.904, 16.532 -2.1359999999999997 C 16.310666666666666 -2.368, 16.19333333333333 -2.7279999999999998, 16.18 -3.2159999999999997 Z M 16.279999999999998 -4.552 L 16.279999999999998 -8.2 L 17.348 -8.2 L 17.348 -4.552 Z M 17.852 -4.976 L 17.852 -5.731999999999999 C 17.929333333333332 -5.771999999999999, 18.014666666666667 -5.804, 18.107999999999997 -5.828 C 18.20133333333333 -5.852, 18.301333333333332 -5.864, 18.407999999999998 -5.864 C 18.773333333333333 -5.864, 19.047333333333334 -5.748666666666667, 19.23 -5.518 C 19.412666666666667 -5.287333333333333, 19.514666666666663 -4.973333333333333, 19.535999999999998 -4.576 C 19.546666666666667 -4.416, 19.55333333333333 -4.257333333333333, 19.555999999999997 -4.1 C 19.558666666666664 -3.9426666666666668, 19.557333333333332 -3.7893333333333334, 19.552 -3.6399999999999997 C 19.546666666666667 -3.490666666666667, 19.538666666666668 -3.3506666666666667, 19.528 -3.2199999999999998 C 19.482666666666667 -2.721333333333333, 19.353333333333335 -2.356, 19.14 -2.1239999999999997 C 18.926666666666666 -1.892, 18.581333333333333 -1.7613333333333332, 18.104 -1.7319999999999998 L 18.104 -2.6239999999999997 C 18.21333333333333 -2.653333333333333, 18.296 -2.7059999999999995, 18.352 -2.782 C 18.408 -2.8579999999999997, 18.44 -2.957333333333333, 18.448 -3.08 C 18.471999999999998 -3.3706666666666667, 18.485999999999997 -3.6319999999999997, 18.49 -3.864 C 18.494 -4.096, 18.485333333333333 -4.317333333333333, 18.464 -4.5280000000000005 C 18.447999999999997 -4.682666666666667, 18.396666666666665 -4.798, 18.31 -4.874 C 18.223333333333333 -4.949999999999999, 18.090666666666664 -4.9879999999999995, 17.912 -4.9879999999999995 C 17.901333333333334 -4.9879999999999995, 17.890666666666668 -4.986666666666666, 17.88 -4.984 C 17.86933333333333 -4.981333333333334, 17.86 -4.978666666666667, 17.852 -4.976 Z M 17.852 -7.268 L 17.852 -8.2 L 19.439999999999998 -8.2 L 19.439999999999998 -7.268 Z M 21.944 -1.7999999999999998 L 21.944 -8.2 L 23.003999999999998 -8.2 L 23.003999999999998 -1.7999999999999998 Z " stroke="none" fill-rule="nonzero" fill="#000000" fill-opacity="1" transform="matrix(1,0,0,1,5.05,13.314)" id="text65 l" />
  <path d="M -5 -13.264 L 30 -13.264 L 30 491.52309139232835 L -5 491.52309139232835 Z " stroke="#FF0000" stroke-opacity="1" stroke-width="0.1" stroke-linecap="butt" stroke-linejoin="miter" fill="none" transform="matrix(1,0,0,1,5.05,13.314)" />
</svg>