<?xml version="1.0" encoding="UTF-8"?>
<svg xmlns:xlink="http://www.w3.org/1999/xlink" viewBox="0 0 35.1 485.3687088867705" version="1.1" style="font-synthesis: none;" width="35.1mm" height="485.36870888677055mm" xmlns="http://www.w3.org/2000/svg">
  <defs />
  <style>	</style>
  <path d="M 0 0 L 35.1 0 L 35.1 485.3687088867705 L 0 485.3687088867705 Z " stroke="none" fill-rule="nonzero" fill="#FFFFFF" fill-opacity="1" transform="matrix(1,0,0,1,0,0)" />
  <path d="M 0 464.5187088867706 L 10 464.5187088867706 L 10 466.0187088867706 L 0 466.0187088867706 Z " stroke="none" fill-rule="evenodd" fill="#000000" fill-opacity="1" transform="matrix(1,0,0,1,5.05,13.314)" id="mark1 l" />
  <path d="M 0 453.9444200484349 L 10 453.9444200484349 L 10 455.4444200484349 L 0 455.4444200484349 Z " stroke="none" fill-rule="evenodd" fill="#000000" fill-opacity="1" transform="matrix(1,0,0,1,5.05,13.314)" id="mark2 l" />
  <path d="M 0 443.3701312100992 L 10 443.3701312100992 L 10 444.8701312100992 L 0 444.8701312100992 Z " stroke="none" fill-rule="evenodd" fill="#000000" fill-opacity="1" transform="matrix(1,0,0,1,5.05,13.314)" id="mark3 l" />
  <path d="M 0 432.7958423717635 L 10 432.7958423717635 L 10 434.2958423717635 L 0 434.2958423717635 Z " stroke="none" fill-rule="evenodd" fill="#000000" fill-opacity="1" transform="matrix(1,0,0,1,5.05,13.314)" id="mark4 l" />
  <path d="M 0 422.2215535334278 L 25 422.2215535334278 L 25 423.7215535334278 L 0 423.7215535334278 Z " stroke="none" fill-rule="evenodd" fill="#000000" fill-opacity="1" transform="matrix(1,0,0,1,5.05,13.314)" id="mark5 l" />
  <path d="M 16.18 419.72355353342783 C 16.174666666666667 419.5502202000945, 16.173333333333332 419.4108868667612, 16.176 419.3055535334278 C 16.178666666666665 419.20022020009446, 16.181333333333335 419.0982202000945, 16.183999999999997 418.99955353342784 L 17.264 418.99955353342784 C 17.256 419.0768868667612, 17.25 419.1728868667612, 17.246 419.28755353342785 C 17.241999999999997 419.4022202000945, 17.240666666666666 419.51288686676116, 17.241999999999997 419.61955353342785 C 17.243333333333332 419.72622020009453, 17.246666666666666 419.80622020009446, 17.252 419.85955353342786 C 17.262666666666668 419.97955353342786, 17.297333333333334 420.0775535334278, 17.355999999999998 420.15355353342784 C 17.414666666666665 420.22955353342786, 17.497333333333334 420.28355353342783, 17.604 420.3155535334278 L 17.604 421.2075535334278 C 17.110666666666663 421.1702202000945, 16.75333333333333 421.0355535334278, 16.532 420.8035535334278 C 16.310666666666666 420.57155353342785, 16.19333333333333 420.21155353342783, 16.18 419.72355353342783 Z M 16.279999999999998 418.3875535334278 L 16.279999999999998 414.73955353342785 L 17.348 414.73955353342785 L 17.348 418.3875535334278 Z M 17.852 417.96355353342784 L 17.852 417.2075535334278 C 17.929333333333332 417.16755353342785, 18.014666666666667 417.1355535334278, 18.107999999999997 417.1115535334278 C 18.20133333333333 417.0875535334278, 18.301333333333332 417.07555353342786, 18.407999999999998 417.0755535334278 C 18.773333333333333 417.07555353342786, 19.047333333333334 417.19088686676116, 19.23 417.4215535334278 C 19.412666666666667 417.65222020009446, 19.514666666666663 417.9662202000944, 19.535999999999998 418.3635535334278 C 19.546666666666667 418.52355353342784, 19.55333333333333 418.6822202000945, 19.555999999999997 418.8395535334278 C 19.558666666666664 418.99688686676114, 19.557333333333332 419.1502202000945, 19.552 419.29955353342785 C 19.546666666666667 419.4488868667612, 19.538666666666668 419.5888868667612, 19.528 419.7195535334278 C 19.482666666666667 420.2182202000945, 19.353333333333335 420.5835535334278, 19.14 420.8155535334278 C 18.926666666666666 421.04755353342784, 18.581333333333333 421.1782202000945, 18.104 421.2075535334278 L 18.104 420.3155535334278 C 18.21333333333333 420.2862202000945, 18.296 420.2335535334279, 18.352 420.1575535334278 C 18.408 420.08155353342784, 18.44 419.9822202000945, 18.448 419.85955353342786 C 18.471999999999998 419.5688868667612, 18.485999999999997 419.30755353342784, 18.49 419.0755535334278 C 18.494 418.84355353342784, 18.485333333333333 418.6222202000945, 18.464 418.4115535334278 C 18.447999999999997 418.2568868667612, 18.396666666666665 418.1415535334278, 18.31 418.0655535334278 C 18.223333333333333 417.98955353342785, 18.090666666666664 417.95155353342784, 17.912 417.95155353342784 C 17.901333333333334 417.95155353342784, 17.890666666666668 417.95288686676116, 17.88 417.9555535334278 C 17.86933333333333 417.9582202000945, 17.86 417.96088686676114, 17.852 417.96355353342784 Z M 17.852 415.6715535334278 L 17.852 414.73955353342785 L 19.439999999999998 414.73955353342785 L 19.439999999999998 415.6715535334278 Z M 21.944 421.13955353342783 L 21.944 414.73955353342785 L 23.003999999999998 414.73955353342785 L 23.003999999999998 421.13955353342783 Z " stroke="none" fill-rule="nonzero" fill="#000000" fill-opacity="1" transform="matrix(1,0,0,1,5.05,13.314)" id="text5 l" />
  <path d="M 0 411.6472646950921 L 10 411.6472646950921 L 10 413.1472646950921 L 0 413.1472646950921 Z " stroke="none" fill-rule="evenodd" fill="#000000" fill-opacity="1" transform="matrix(1,0,0,1,5.05,13.314)" id="mark6 l" />
  <path d="M 0 401.0729758567564 L 10 401.0729758567564 L 10 402.5729758567564 L 0 402.5729758567564 Z " stroke="none" fill-rule="evenodd" fill="#000000" fill-opacity="1" transform="matrix(1,0,0,1,5.05,13.314)" id="mark7 l" />
  <path d="M 0 390.4986870184207 L 10 390.4986870184207 L 10 391.9986870184207 L 0 391.9986870184207 Z " stroke="none" fill-rule="evenodd" fill="#000000" fill-opacity="1" transform="matrix(1,0,0,1,5.05,13.314)" id="mark8 l" />
  <path d="M 0 379.924398180085 L 10 379.924398180085 L 10 381.424398180085 L 0 381.424398180085 Z " stroke="none" fill-rule="evenodd" fill="#000000" fill-opacity="1" transform="matrix(1,0,0,1,5.05,13.314)" id="mark9 l" />
  <path d="M 0 369.3501093417493 L 25 369.3501093417493 L 25 370.8501093417493 L 0 370.8501093417493 Z " stroke="none" fill-rule="evenodd" fill="#000000" fill-opacity="1" transform="matrix(1,0,0,1,5.05,13.314)" id="mark10 l" />
  <path d="M 14.323999999999998 368.3001093417493 L 14.323999999999998 362.8561093417493 L 13.871999999999998 362.8561093417493 L 13.839999999999998 362.4761093417493 L 14.543999999999999 361.9001093417493 L 15.424 361.9001093417493 L 15.424 368.3001093417493 Z M 16.196 366.8881093417493 C 16.188000000000002 366.45877600841595, 16.182666666666666 366.0421093417493, 16.18 365.6381093417493 C 16.177333333333333 365.23410934174933, 16.177999999999997 364.83877600841595, 16.182 364.4521093417493 C 16.186 364.06544267508264, 16.190666666666665 363.6841093417493, 16.196 363.3081093417493 C 16.209333333333333 362.8681093417493, 16.334000000000003 362.522776008416, 16.57 362.2721093417493 C 16.805999999999997 362.02144267508265, 17.142666666666663 361.8761093417493, 17.58 361.8361093417493 L 17.58 362.7241093417493 C 17.382666666666665 362.78010934174927, 17.281333333333333 362.90944267508263, 17.276 363.1121093417493 C 17.262666666666668 363.48277600841595, 17.253333333333334 363.83077600841597, 17.248 364.1561093417493 C 17.242666666666665 364.48144267508263, 17.24 364.7981093417493, 17.24 365.1061093417493 C 17.24 365.4141093417493, 17.242666666666665 365.72877600841593, 17.248 366.0501093417493 C 17.253333333333334 366.3714426750827, 17.262666666666668 366.714776008416, 17.276 367.0801093417493 C 17.281333333333333 367.2881093417493, 17.382666666666665 367.4201093417493, 17.58 367.4761093417493 L 17.58 368.3641093417493 C 17.142666666666663 368.3241093417493, 16.805999999999997 368.1781093417493, 16.57 367.9261093417493 C 16.334000000000003 367.6741093417493, 16.209333333333333 367.32810934174927, 16.196 366.8881093417493 Z M 18.084 368.3641093417493 L 18.084 367.47210934174933 C 18.268 367.418776008416, 18.366666666666667 367.29477600841597, 18.38 367.1001093417493 C 18.398666666666667 366.6334426750827, 18.410666666666668 366.184776008416, 18.416 365.7541093417493 C 18.421333333333333 365.3234426750826, 18.421333333333333 364.8927760084159, 18.416 364.4621093417493 C 18.410666666666668 364.03144267508264, 18.398666666666667 363.57877600841596, 18.38 363.1041093417493 C 18.374666666666666 362.90944267508263, 18.276 362.78277600841596, 18.084 362.7241093417493 L 18.084 361.8361093417493 C 18.513333333333335 361.8761093417493, 18.846666666666668 362.02144267508265, 19.084 362.2721093417493 C 19.321333333333335 362.522776008416, 19.445333333333334 362.8681093417493, 19.456 363.3081093417493 C 19.46666666666667 363.622776008416, 19.474666666666668 363.932776008416, 19.48 364.2381093417493 C 19.485333333333333 364.54344267508264, 19.488 364.84410934174934, 19.488 365.1401093417493 C 19.488 365.43610934174933, 19.485333333333333 365.7294426750826, 19.48 366.02010934174933 C 19.474666666666668 366.310776008416, 19.46666666666667 366.6001093417493, 19.456 366.8881093417493 C 19.439999999999998 367.33877600841595, 19.311999999999998 367.68744267508265, 19.072 367.9341093417493 C 18.832 368.180776008416, 18.502666666666666 368.3241093417493, 18.084 368.3641093417493 Z M 21.944 368.3001093417493 L 21.944 361.9001093417493 L 23.003999999999998 361.9001093417493 L 23.003999999999998 368.3001093417493 Z " stroke="none" fill-rule="nonzero" fill="#000000" fill-opacity="1" transform="matrix(1,0,0,1,5.05,13.314)" id="text10 l" />
  <path d="M 0 358.7758205034136 L 10 358.7758205034136 L 10 360.2758205034136 L 0 360.2758205034136 Z " stroke="none" fill-rule="evenodd" fill="#000000" fill-opacity="1" transform="matrix(1,0,0,1,5.05,13.314)" id="mark11 l" />
  <path d="M 0 348.20153166507794 L 10 348.20153166507794 L 10 349.70153166507794 L 0 349.70153166507794 Z " stroke="none" fill-rule="evenodd" fill="#000000" fill-opacity="1" transform="matrix(1,0,0,1,5.05,13.314)" id="mark12 l" />
  <path d="M 0 337.62724282674225 L 10 337.62724282674225 L 10 339.12724282674225 L 0 339.12724282674225 Z " stroke="none" fill-rule="evenodd" fill="#000000" fill-opacity="1" transform="matrix(1,0,0,1,5.05,13.314)" id="mark13 l" />
  <path d="M 0 327.05295398840656 L 10 327.05295398840656 L 10 328.55295398840656 L 0 328.55295398840656 Z " stroke="none" fill-rule="evenodd" fill="#000000" fill-opacity="1" transform="matrix(1,0,0,1,5.05,13.314)" id="mark14 l" />
  <path d="M 0 316.4786651500708 L 25 316.4786651500708 L 25 317.9786651500708 L 0 317.9786651500708 Z " stroke="none" fill-rule="evenodd" fill="#000000" fill-opacity="1" transform="matrix(1,0,0,1,5.05,13.314)" id="mark15 l" />
  <path d="M 14.331999999999999 315.3966651500708 L 14.331999999999999 309.9526651500708 L 13.879999999999999 309.9526651500708 L 13.847999999999999 309.5726651500708 L 14.552 308.99666515007084 L 15.432 308.99666515007084 L 15.432 315.3966651500708 Z M 16.18 313.9806651500708 C 16.174666666666667 313.8073318167375, 16.173333333333332 313.6679984834042, 16.176 313.5626651500708 C 16.178666666666665 313.45733181673745, 16.181333333333335 313.3553318167375, 16.183999999999997 313.25666515007083 L 17.264 313.25666515007083 C 17.256 313.3339984834041, 17.25 313.4299984834041, 17.246 313.54466515007084 C 17.241999999999997 313.65933181673745, 17.240666666666666 313.76999848340415, 17.241999999999997 313.87666515007083 C 17.243333333333332 313.98333181673746, 17.246666666666666 314.0633318167375, 17.252 314.11666515007084 C 17.262666666666668 314.2366651500708, 17.297333333333334 314.3346651500708, 17.355999999999998 314.4106651500708 C 17.414666666666665 314.4866651500708, 17.497333333333334 314.5406651500708, 17.604 314.5726651500708 L 17.604 315.4646651500708 C 17.110666666666663 315.4273318167375, 16.75333333333333 315.29266515007083, 16.532 315.0606651500708 C 16.310666666666666 314.8286651500708, 16.19333333333333 314.4686651500708, 16.18 313.9806651500708 Z M 16.279999999999998 312.6446651500708 L 16.279999999999998 308.99666515007084 L 17.348 308.99666515007084 L 17.348 312.6446651500708 Z M 17.852 312.22066515007083 L 17.852 311.4646651500708 C 17.929333333333332 311.4246651500708, 18.014666666666667 311.3926651500708, 18.107999999999997 311.3686651500708 C 18.20133333333333 311.3446651500708, 18.301333333333332 311.3326651500708, 18.407999999999998 311.3326651500708 C 18.773333333333333 311.3326651500708, 19.047333333333334 311.44799848340415, 19.23 311.6786651500708 C 19.412666666666667 311.90933181673745, 19.514666666666663 312.22333181673747, 19.535999999999998 312.6206651500708 C 19.546666666666667 312.78066515007083, 19.55333333333333 312.9393318167375, 19.555999999999997 313.0966651500708 C 19.558666666666664 313.25399848340413, 19.557333333333332 313.4073318167375, 19.552 313.55666515007084 C 19.546666666666667 313.7059984834042, 19.538666666666668 313.8459984834042, 19.528 313.9766651500708 C 19.482666666666667 314.4753318167375, 19.353333333333335 314.8406651500708, 19.14 315.0726651500708 C 18.926666666666666 315.30466515007083, 18.581333333333333 315.4353318167375, 18.104 315.4646651500708 L 18.104 314.5726651500708 C 18.21333333333333 314.54333181673746, 18.296 314.4906651500708, 18.352 314.4146651500708 C 18.408 314.3386651500708, 18.44 314.2393318167375, 18.448 314.11666515007084 C 18.471999999999998 313.82599848340413, 18.485999999999997 313.5646651500708, 18.49 313.3326651500708 C 18.494 313.1006651500708, 18.485333333333333 312.8793318167375, 18.464 312.6686651500708 C 18.447999999999997 312.5139984834042, 18.396666666666665 312.3986651500708, 18.31 312.3226651500708 C 18.223333333333333 312.24666515007084, 18.090666666666664 312.20866515007083, 17.912 312.20866515007083 C 17.901333333333334 312.20866515007083, 17.890666666666668 312.20999848340415, 17.88 312.2126651500708 C 17.86933333333333 312.2153318167375, 17.86 312.21799848340413, 17.852 312.22066515007083 Z M 17.852 309.9286651500708 L 17.852 308.99666515007084 L 19.439999999999998 308.99666515007084 L 19.439999999999998 309.9286651500708 Z M 21.944 315.3966651500708 L 21.944 308.99666515007084 L 23.003999999999998 308.99666515007084 L 23.003999999999998 315.3966651500708 Z " stroke="none" fill-rule="nonzero" fill="#000000" fill-opacity="1" transform="matrix(1,0,0,1,5.05,13.314)" id="text15 l" />
  <path d="M 0 305.9043763117352 L 10 305.9043763117352 L 10 307.4043763117352 L 0 307.4043763117352 Z " stroke="none" fill-rule="evenodd" fill="#000000" fill-opacity="1" transform="matrix(1,0,0,1,5.05,13.314)" id="mark16 l" />
  <path d="M 0 295.33008747339943 L 10 295.33008747339943 L 10 296.83008747339943 L 0 296.83008747339943 Z " stroke="none" fill-rule="evenodd" fill="#000000" fill-opacity="1" transform="matrix(1,0,0,1,5.05,13.314)" id="mark17 l" />
  <path d="M 0 284.7557986350638 L 10 284.7557986350638 L 10 286.2557986350638 L 0 286.2557986350638 Z " stroke="none" fill-rule="evenodd" fill="#000000" fill-opacity="1" transform="matrix(1,0,0,1,5.05,13.314)" id="mark18 l" />
  <path d="M 0 274.18150979672805 L 10 274.18150979672805 L 10 275.68150979672805 L 0 275.68150979672805 Z " stroke="none" fill-rule="evenodd" fill="#000000" fill-opacity="1" transform="matrix(1,0,0,1,5.05,13.314)" id="mark19 l" />
  <path d="M 0 263.60722095839236 L 25 263.60722095839236 L 25 265.10722095839236 L 0 265.10722095839236 Z " stroke="none" fill-rule="evenodd" fill="#000000" fill-opacity="1" transform="matrix(1,0,0,1,5.05,13.314)" id="mark20 l" />
  <path d="M 12.319999999999999 262.55722095839235 C 12.317333333333334 262.45855429172565, 12.315333333333331 262.369887625059, 12.313999999999998 262.29122095839233 C 12.312666666666665 262.21255429172567, 12.311333333333334 262.13855429172565, 12.309999999999999 262.06922095839235 C 12.308666666666667 261.99988762505905, 12.308 261.92788762505904, 12.308 261.85322095839234 C 12.308 261.7785542917257, 12.308 261.693887625059, 12.308 261.5992209583923 C 12.308 261.50455429172564, 12.309333333333335 261.39322095839236, 12.312 261.2652209583924 C 12.32 260.971887625059, 12.37 260.70988762505897, 12.462 260.4792209583924 C 12.554 260.24855429172567, 12.687999999999999 260.04255429172565, 12.863999999999999 259.8612209583923 C 13.04 259.679887625059, 13.257333333333333 259.51855429172565, 13.515999999999998 259.37722095839234 L 14.047999999999998 259.08922095839233 C 14.234666666666666 258.987887625059, 14.354 258.86588762505903, 14.405999999999999 258.72322095839235 C 14.457999999999998 258.58055429172566, 14.488 258.44655429172565, 14.495999999999999 258.32122095839236 C 14.506666666666664 258.1745542917257, 14.512666666666664 258.017887625059, 14.514 257.85122095839233 C 14.51533333333333 257.68455429172565, 14.511999999999997 257.527887625059, 14.504 257.38122095839236 C 14.498666666666665 257.2772209583924, 14.468666666666666 257.19122095839236, 14.413999999999998 257.1232209583923 C 14.359333333333332 257.05522095839234, 14.279999999999998 257.0065542917257, 14.175999999999998 256.97722095839237 L 14.175999999999998 256.08922095839233 C 14.663999999999998 256.1212209583923, 15.014 256.2525542917257, 15.225999999999999 256.48322095839234 C 15.437999999999999 256.713887625059, 15.554666666666666 257.0745542917257, 15.575999999999999 257.56522095839233 C 15.578666666666663 257.62922095839235, 15.580666666666666 257.6945542917257, 15.581999999999999 257.76122095839236 C 15.583333333333332 257.827887625059, 15.584 257.8925542917257, 15.584 257.9552209583924 C 15.584 258.017887625059, 15.583333333333332 258.07988762505903, 15.581999999999999 258.14122095839235 C 15.580666666666666 258.2025542917257, 15.578666666666663 258.2625542917257, 15.575999999999999 258.32122095839236 C 15.565333333333331 258.60655429172573, 15.512 258.8532209583924, 15.415999999999999 259.06122095839237 C 15.32 259.26922095839234, 15.19 259.44922095839235, 15.026 259.60122095839233 C 14.862 259.7532209583923, 14.672 259.88922095839234, 14.456 260.00922095839235 L 13.851999999999999 260.3372209583923 C 13.737333333333332 260.3985542917257, 13.647333333333332 260.4825542917257, 13.581999999999999 260.58922095839233 C 13.516666666666666 260.695887625059, 13.469999999999999 260.80922095839236, 13.441999999999998 260.92922095839236 C 13.413999999999998 261.04922095839237, 13.399999999999999 261.1612209583924, 13.399999999999999 261.2652209583924 L 13.399999999999999 262.55722095839235 Z M 12.328 258.51722095839233 C 12.322666666666667 258.399887625059, 12.318666666666665 258.28522095839236, 12.315999999999999 258.17322095839233 C 12.313333333333333 258.0612209583923, 12.311333333333334 257.9552209583923, 12.309999999999999 257.85522095839235 C 12.308666666666667 257.7552209583924, 12.309333333333335 257.6585542917257, 12.312 257.56522095839233 C 12.330666666666666 257.07722095839233, 12.447333333333333 256.717887625059, 12.661999999999999 256.48722095839236 C 12.876666666666665 256.2565542917257, 13.213333333333331 256.123887625059, 13.671999999999999 256.08922095839233 L 13.671999999999999 256.9812209583923 C 13.576 257.01055429172567, 13.505333333333333 257.05722095839235, 13.459999999999999 257.12122095839237 C 13.414666666666665 257.1852209583924, 13.390666666666664 257.2625542917257, 13.387999999999998 257.35322095839234 C 13.382666666666665 257.56122095839237, 13.379333333333333 257.7545542917257, 13.378 257.9332209583923 C 13.376666666666667 258.111887625059, 13.381333333333334 258.30655429172566, 13.392 258.51722095839233 Z M 13.904 262.55722095839235 L 13.904 261.62522095839233 L 15.5 261.62522095839233 L 15.5 262.55722095839235 Z M 16.196 261.1452209583924 C 16.188000000000002 260.71588762505905, 16.182666666666666 260.29922095839237, 16.18 259.8952209583924 C 16.177333333333333 259.4912209583924, 16.177999999999997 259.09588762505905, 16.182 258.70922095839234 C 16.186 258.3225542917257, 16.190666666666665 257.94122095839236, 16.196 257.56522095839233 C 16.209333333333333 257.12522095839233, 16.334000000000003 256.779887625059, 16.57 256.52922095839233 C 16.805999999999997 256.2785542917257, 17.142666666666663 256.13322095839237, 17.58 256.09322095839235 L 17.58 256.9812209583923 C 17.382666666666665 257.0372209583923, 17.281333333333333 257.1665542917257, 17.276 257.36922095839236 C 17.262666666666668 257.739887625059, 17.253333333333334 258.087887625059, 17.248 258.41322095839234 C 17.242666666666665 258.7385542917257, 17.24 259.05522095839234, 17.24 259.36322095839233 C 17.24 259.6712209583923, 17.242666666666665 259.985887625059, 17.248 260.30722095839235 C 17.253333333333334 260.6285542917257, 17.262666666666668 260.971887625059, 17.276 261.3372209583923 C 17.281333333333333 261.54522095839235, 17.382666666666665 261.67722095839235, 17.58 261.73322095839234 L 17.58 262.62122095839237 C 17.142666666666663 262.58122095839235, 16.805999999999997 262.4352209583924, 16.57 262.1832209583923 C 16.334000000000003 261.9312209583924, 16.209333333333333 261.58522095839237, 16.196 261.1452209583924 Z M 18.084 262.62122095839237 L 18.084 261.7292209583924 C 18.268 261.67588762505903, 18.366666666666667 261.551887625059, 18.38 261.35722095839236 C 18.398666666666667 260.8905542917257, 18.410666666666668 260.44188762505905, 18.416 260.01122095839236 C 18.421333333333333 259.58055429172566, 18.421333333333333 259.149887625059, 18.416 258.7192209583923 C 18.410666666666668 258.2885542917257, 18.398666666666667 257.835887625059, 18.38 257.3612209583923 C 18.374666666666666 257.1665542917257, 18.276 257.039887625059, 18.084 256.9812209583923 L 18.084 256.09322095839235 C 18.513333333333335 256.13322095839237, 18.846666666666668 256.2785542917257, 19.084 256.52922095839233 C 19.321333333333335 256.779887625059, 19.445333333333334 257.12522095839233, 19.456 257.56522095839233 C 19.46666666666667 257.87988762505904, 19.474666666666668 258.189887625059, 19.48 258.49522095839234 C 19.485333333333333 258.8005542917257, 19.488 259.10122095839233, 19.488 259.3972209583923 C 19.488 259.6932209583923, 19.485333333333333 259.98655429172567, 19.48 260.2772209583924 C 19.474666666666668 260.56788762505903, 19.46666666666667 260.85722095839236, 19.456 261.1452209583924 C 19.439999999999998 261.59588762505905, 19.311999999999998 261.9445542917257, 19.072 262.19122095839236 C 18.832 262.43788762505903, 18.502666666666666 262.58122095839235, 18.084 262.62122095839237 Z M 21.944 262.55722095839235 L 21.944 256.1572209583924 L 23.003999999999998 256.1572209583924 L 23.003999999999998 262.55722095839235 Z " stroke="none" fill-rule="nonzero" fill="#000000" fill-opacity="1" transform="matrix(1,0,0,1,5.05,13.314)" id="text20 l" />
  <path d="M 0 253.03293212005667 L 10 253.03293212005667 L 10 254.53293212005667 L 0 254.53293212005667 Z " stroke="none" fill-rule="evenodd" fill="#000000" fill-opacity="1" transform="matrix(1,0,0,1,5.05,13.314)" id="mark21 l" />
  <path d="M 0 242.45864328172098 L 10 242.45864328172098 L 10 243.95864328172098 L 0 243.95864328172098 Z " stroke="none" fill-rule="evenodd" fill="#000000" fill-opacity="1" transform="matrix(1,0,0,1,5.05,13.314)" id="mark22 l" />
  <path d="M 0 231.8843544433853 L 10 231.8843544433853 L 10 233.3843544433853 L 0 233.3843544433853 Z " stroke="none" fill-rule="evenodd" fill="#000000" fill-opacity="1" transform="matrix(1,0,0,1,5.05,13.314)" id="mark23 l" />
  <path d="M 0 221.3100656050496 L 10 221.3100656050496 L 10 222.8100656050496 L 0 222.8100656050496 Z " stroke="none" fill-rule="evenodd" fill="#000000" fill-opacity="1" transform="matrix(1,0,0,1,5.05,13.314)" id="mark24 l" />
  <path d="M 0 210.7357767667139 L 25 210.7357767667139 L 25 212.2357767667139 L 0 212.2357767667139 Z " stroke="none" fill-rule="evenodd" fill="#000000" fill-opacity="1" transform="matrix(1,0,0,1,5.05,13.314)" id="mark25 l" />
  <path d="M 12.328 209.68577676671393 C 12.325333333333333 209.58711010004725, 12.323333333333332 209.4984434333806, 12.322 209.41977676671394 C 12.320666666666666 209.34111010004727, 12.319333333333333 209.26711010004726, 12.318 209.19777676671393 C 12.316666666666666 209.1284434333806, 12.315999999999999 209.0564434333806, 12.316 208.98177676671392 C 12.315999999999999 208.90711010004725, 12.315999999999999 208.8224434333806, 12.316 208.72777676671393 C 12.315999999999999 208.63311010004725, 12.317333333333334 208.5217767667139, 12.32 208.39377676671393 C 12.328 208.10044343338058, 12.378 207.83844343338058, 12.47 207.60777676671393 C 12.562000000000001 207.37711010004728, 12.696 207.17111010004726, 12.872 206.98977676671393 C 13.048 206.8084434333806, 13.265333333333334 206.64711010004726, 13.524000000000001 206.50577676671392 L 14.056000000000001 206.21777676671394 C 14.242666666666668 206.1164434333806, 14.362000000000002 205.99444343338058, 14.414 205.85177676671393 C 14.466000000000001 205.70911010004727, 14.495999999999999 205.57511010004725, 14.504 205.44977676671394 C 14.514666666666667 205.30311010004726, 14.520666666666667 205.1464434333806, 14.522 204.97977676671394 C 14.523333333333333 204.81311010004728, 14.520000000000001 204.65644343338062, 14.512 204.50977676671394 C 14.506666666666666 204.40577676671393, 14.476666666666667 204.31977676671391, 14.422 204.25177676671393 C 14.367333333333335 204.18377676671395, 14.288 204.13511010004726, 14.184000000000001 204.10577676671392 L 14.184000000000001 203.21777676671394 C 14.672 203.24977676671395, 15.022000000000002 203.3811101000473, 15.234 203.61177676671392 C 15.446000000000002 203.8424434333806, 15.562666666666667 204.20311010004724, 15.584 204.69377676671394 C 15.586666666666668 204.75777676671396, 15.588666666666668 204.82311010004727, 15.59 204.88977676671394 C 15.591333333333335 204.9564434333806, 15.592000000000002 205.02111010004728, 15.592 205.08377676671392 C 15.592000000000002 205.14644343338057, 15.591333333333335 205.20844343338058, 15.59 205.26977676671393 C 15.588666666666668 205.33111010004725, 15.586666666666668 205.39111010004726, 15.584 205.44977676671394 C 15.573333333333332 205.73511010004728, 15.52 205.98177676671395, 15.424 206.18977676671392 C 15.328 206.39777676671395, 15.197999999999999 206.57777676671395, 15.033999999999999 206.72977676671394 C 14.87 206.88177676671393, 14.68 207.0177767667139, 14.464 207.13777676671393 L 13.86 207.46577676671393 C 13.745333333333335 207.52711010004725, 13.655333333333335 207.61111010004726, 13.59 207.71777676671394 C 13.524666666666668 207.8244434333806, 13.478000000000002 207.9377767667139, 13.45 208.0577767667139 C 13.422 208.17777676671392, 13.408 208.28977676671394, 13.408 208.39377676671393 L 13.408 209.68577676671393 Z M 12.336 205.64577676671394 C 12.330666666666666 205.52844343338057, 12.326666666666664 205.4137767667139, 12.324 205.30177676671394 C 12.321333333333332 205.18977676671392, 12.319333333333333 205.08377676671392, 12.318 204.98377676671393 C 12.316666666666666 204.88377676671394, 12.317333333333334 204.78711010004724, 12.32 204.69377676671394 C 12.338666666666668 204.20577676671394, 12.455333333333336 203.8464434333806, 12.67 203.61577676671394 C 12.884666666666668 203.38511010004726, 13.221333333333334 203.2524434333806, 13.68 203.21777676671394 L 13.68 204.10977676671394 C 13.584 204.13911010004728, 13.513333333333332 204.18577676671393, 13.468 204.24977676671392 C 13.422666666666668 204.31377676671391, 13.398666666666667 204.39111010004723, 13.396 204.48177676671392 C 13.390666666666666 204.68977676671392, 13.387333333333332 204.88311010004728, 13.386 205.06177676671393 C 13.384666666666666 205.2404434333806, 13.389333333333333 205.43511010004727, 13.4 205.64577676671394 Z M 13.911999999999999 209.68577676671393 L 13.911999999999999 208.75377676671394 L 15.508 208.75377676671394 L 15.508 209.68577676671393 Z M 16.18 208.26977676671393 C 16.174666666666667 208.0964434333806, 16.173333333333332 207.95711010004726, 16.176 207.85177676671393 C 16.178666666666665 207.7464434333806, 16.181333333333335 207.64444343338062, 16.183999999999997 207.54577676671394 L 17.264 207.54577676671394 C 17.256 207.62311010004726, 17.25 207.71911010004726, 17.246 207.83377676671392 C 17.241999999999997 207.9484434333806, 17.240666666666666 208.05911010004723, 17.241999999999997 208.16577676671392 C 17.243333333333332 208.2724434333806, 17.246666666666666 208.35244343338059, 17.252 208.40577676671393 C 17.262666666666668 208.52577676671393, 17.297333333333334 208.62377676671395, 17.355999999999998 208.69977676671394 C 17.414666666666665 208.77577676671393, 17.497333333333334 208.8297767667139, 17.604 208.86177676671392 L 17.604 209.75377676671394 C 17.110666666666663 209.71644343338062, 16.75333333333333 209.58177676671392, 16.532 209.34977676671392 C 16.310666666666666 209.11777676671392, 16.19333333333333 208.75777676671393, 16.18 208.26977676671393 Z M 16.279999999999998 206.93377676671392 L 16.279999999999998 203.28577676671392 L 17.348 203.28577676671392 L 17.348 206.93377676671392 Z M 17.852 206.50977676671394 L 17.852 205.75377676671394 C 17.929333333333332 205.71377676671392, 18.014666666666667 205.68177676671394, 18.107999999999997 205.65777676671394 C 18.20133333333333 205.63377676671394, 18.301333333333332 205.62177676671394, 18.407999999999998 205.62177676671394 C 18.773333333333333 205.62177676671394, 19.047333333333334 205.7371101000473, 19.23 205.96777676671394 C 19.412666666666667 206.1984434333806, 19.514666666666663 206.5124434333806, 19.535999999999998 206.90977676671392 C 19.546666666666667 207.06977676671391, 19.55333333333333 207.2284434333806, 19.555999999999997 207.38577676671392 C 19.558666666666664 207.54311010004727, 19.557333333333332 207.6964434333806, 19.552 207.84577676671393 C 19.546666666666667 207.99511010004724, 19.538666666666668 208.13511010004726, 19.528 208.26577676671394 C 19.482666666666667 208.76444343338062, 19.353333333333335 209.12977676671392, 19.14 209.36177676671392 C 18.926666666666666 209.59377676671392, 18.581333333333333 209.7244434333806, 18.104 209.75377676671394 L 18.104 208.86177676671392 C 18.21333333333333 208.8324434333806, 18.296 208.77977676671392, 18.352 208.70377676671393 C 18.408 208.62777676671394, 18.44 208.5284434333806, 18.448 208.40577676671393 C 18.471999999999998 208.11511010004725, 18.485999999999997 207.8537767667139, 18.49 207.62177676671394 C 18.494 207.3897767667139, 18.485333333333333 207.16844343338056, 18.464 206.95777676671392 C 18.447999999999997 206.80311010004726, 18.396666666666665 206.6877767667139, 18.31 206.61177676671392 C 18.223333333333333 206.53577676671392, 18.090666666666664 206.49777676671394, 17.912 206.49777676671394 C 17.901333333333334 206.49777676671394, 17.890666666666668 206.4991101000473, 17.88 206.50177676671393 C 17.86933333333333 206.50444343338057, 17.86 206.50711010004727, 17.852 206.50977676671394 Z M 17.852 204.21777676671394 L 17.852 203.28577676671392 L 19.439999999999998 203.28577676671392 L 19.439999999999998 204.21777676671394 Z M 21.944 209.68577676671393 L 21.944 203.28577676671392 L 23.003999999999998 203.28577676671392 L 23.003999999999998 209.68577676671393 Z " stroke="none" fill-rule="nonzero" fill="#000000" fill-opacity="1" transform="matrix(1,0,0,1,5.05,13.314)" id="text25 l" />
  <path d="M 0 200.16148792837822 L 10 200.16148792837822 L 10 201.66148792837822 L 0 201.66148792837822 Z " stroke="none" fill-rule="evenodd" fill="#000000" fill-opacity="1" transform="matrix(1,0,0,1,5.05,13.314)" id="mark26 l" />
  <path d="M 0 189.58719909004253 L 10 189.58719909004253 L 10 191.08719909004253 L 0 191.08719909004253 Z " stroke="none" fill-rule="evenodd" fill="#000000" fill-opacity="1" transform="matrix(1,0,0,1,5.05,13.314)" id="mark27 l" />
  <path d="M 0 179.01291025170678 L 10 179.01291025170678 L 10 180.51291025170678 L 0 180.51291025170678 Z " stroke="none" fill-rule="evenodd" fill="#000000" fill-opacity="1" transform="matrix(1,0,0,1,5.05,13.314)" id="mark28 l" />
  <path d="M 0 168.4386214133711 L 10 168.4386214133711 L 10 169.9386214133711 L 0 169.9386214133711 Z " stroke="none" fill-rule="evenodd" fill="#000000" fill-opacity="1" transform="matrix(1,0,0,1,5.05,13.314)" id="mark29 l" />
  <path d="M 0 157.8643325750354 L 25 157.8643325750354 L 25 159.3643325750354 L 0 159.3643325750354 Z " stroke="none" fill-rule="evenodd" fill="#000000" fill-opacity="1" transform="matrix(1,0,0,1,5.05,13.314)" id="mark30 l" />
  <path d="M 12.223999999999998 155.39833257503543 C 12.221333333333334 155.29699924170208, 12.219333333333333 155.21299924170208, 12.218 155.14633257503542 C 12.216666666666667 155.07966590836875, 12.216666666666667 155.01166590836877, 12.218 154.94233257503544 C 12.219333333333333 154.8729992417021, 12.221333333333334 154.78366590836876, 12.223999999999998 154.67433257503544 L 13.303999999999998 154.67433257503544 L 13.303999999999998 155.5383325750354 C 13.303999999999998 155.77566590836875, 13.417333333333332 155.92633257503542, 13.643999999999998 155.9903325750354 L 13.643999999999998 156.88233257503543 C 13.155999999999999 156.84499924170208, 12.800666666666665 156.7103325750354, 12.578 156.4783325750354 C 12.355333333333334 156.2463325750354, 12.237333333333332 155.88633257503542, 12.223999999999998 155.39833257503543 Z M 12.292 151.34633257503543 L 12.292 150.41433257503542 L 15.536 150.41433257503542 L 15.536 151.34633257503543 Z M 14.143999999999998 155.99433257503543 C 14.367999999999999 155.93833257503542, 14.483999999999998 155.78766590836875, 14.491999999999999 155.54233257503543 C 14.497333333333334 155.33966590836877, 14.500666666666666 155.1569992417021, 14.501999999999999 154.99433257503543 C 14.503333333333332 154.83166590836876, 14.498666666666665 154.6743325750354, 14.488 154.52233257503542 C 14.48 154.3649992417021, 14.431999999999999 154.23166590836877, 14.344 154.12233257503541 C 14.256 154.0129992417021, 14.089333333333332 153.9609992417021, 13.844 153.9663325750354 L 13.096 153.97433257503542 L 13.068 153.08233257503542 L 14.027999999999999 151.6983325750354 L 15.216 151.6983325750354 L 14.248 153.0503325750354 L 14.28 153.0503325750354 C 14.712 153.0503325750354, 15.028666666666666 153.1729992417021, 15.229999999999999 153.41833257503544 C 15.431333333333333 153.66366590836878, 15.544 154.04099924170208, 15.568 154.5503325750354 C 15.57333333333333 154.62233257503541, 15.576666666666664 154.69433257503542, 15.578 154.76633257503542 C 15.57933333333333 154.83833257503542, 15.579999999999998 154.90899924170208, 15.579999999999998 154.9783325750354 C 15.579999999999998 155.04766590836874, 15.57933333333333 155.11699924170208, 15.578 155.1863325750354 C 15.576666666666664 155.25566590836874, 15.57333333333333 155.32633257503542, 15.568 155.39833257503543 C 15.549333333333333 155.89433257503543, 15.428666666666665 156.2589992417021, 15.206 156.49233257503542 C 14.983333333333334 156.72566590836874, 14.630666666666666 156.85566590836876, 14.148 156.88233257503543 Z M 16.196 155.40233257503542 C 16.188000000000002 154.97299924170207, 16.182666666666666 154.5563325750354, 16.18 154.15233257503542 C 16.177333333333333 153.74833257503542, 16.177999999999997 153.3529992417021, 16.182 152.9663325750354 C 16.186 152.57966590836875, 16.190666666666665 152.19833257503544, 16.196 151.82233257503543 C 16.209333333333333 151.38233257503543, 16.334000000000003 151.0369992417021, 16.57 150.78633257503543 C 16.805999999999997 150.53566590836877, 17.142666666666663 150.39033257503542, 17.58 150.35033257503542 L 17.58 151.23833257503543 C 17.382666666666665 151.29433257503544, 17.281333333333333 151.42366590836878, 17.276 151.62633257503543 C 17.262666666666668 151.9969992417021, 17.253333333333334 152.34499924170208, 17.248 152.67033257503542 C 17.242666666666665 152.99566590836875, 17.24 153.3123325750354, 17.24 153.62033257503543 C 17.24 153.92833257503543, 17.242666666666665 154.24299924170208, 17.248 154.56433257503542 C 17.253333333333334 154.88566590836876, 17.262666666666668 155.2289992417021, 17.276 155.59433257503542 C 17.281333333333333 155.80233257503542, 17.382666666666665 155.93433257503543, 17.58 155.9903325750354 L 17.58 156.87833257503542 C 17.142666666666663 156.83833257503542, 16.805999999999997 156.6923325750354, 16.57 156.44033257503543 C 16.334000000000003 156.18833257503542, 16.209333333333333 155.8423325750354, 16.196 155.40233257503542 Z M 18.084 156.87833257503542 L 18.084 155.98633257503542 C 18.268 155.93299924170208, 18.366666666666667 155.8089992417021, 18.38 155.61433257503543 C 18.398666666666667 155.14766590836877, 18.410666666666668 154.6989992417021, 18.416 154.26833257503543 C 18.421333333333333 153.83766590836876, 18.421333333333333 153.40699924170207, 18.416 152.97633257503543 C 18.410666666666668 152.54566590836873, 18.398666666666667 152.09299924170207, 18.38 151.61833257503542 C 18.374666666666666 151.42366590836875, 18.276 151.29699924170208, 18.084 151.23833257503543 L 18.084 150.35033257503542 C 18.513333333333335 150.39033257503542, 18.846666666666668 150.53566590836877, 19.084 150.78633257503543 C 19.321333333333335 151.0369992417021, 19.445333333333334 151.38233257503543, 19.456 151.82233257503543 C 19.46666666666667 152.13699924170209, 19.474666666666668 152.4469992417021, 19.48 152.7523325750354 C 19.485333333333333 153.05766590836873, 19.488 153.35833257503543, 19.488 153.65433257503543 C 19.488 153.95033257503542, 19.485333333333333 154.24366590836874, 19.48 154.53433257503542 C 19.474666666666668 154.8249992417021, 19.46666666666667 155.11433257503543, 19.456 155.40233257503542 C 19.439999999999998 155.8529992417021, 19.311999999999998 156.20166590836874, 19.072 156.4483325750354 C 18.832 156.69499924170208, 18.502666666666666 156.83833257503542, 18.084 156.87833257503542 Z M 21.944 156.81433257503542 L 21.944 150.41433257503542 L 23.003999999999998 150.41433257503542 L 23.003999999999998 156.81433257503542 Z " stroke="none" fill-rule="nonzero" fill="#000000" fill-opacity="1" transform="matrix(1,0,0,1,5.05,13.314)" id="text30 l" />
  <path d="M 0 147.29004373669972 L 10 147.29004373669972 L 10 148.79004373669972 L 0 148.79004373669972 Z " stroke="none" fill-rule="evenodd" fill="#000000" fill-opacity="1" transform="matrix(1,0,0,1,5.05,13.314)" id="mark31 l" />
  <path d="M 0 136.71575489836403 L 10 136.71575489836403 L 10 138.21575489836403 L 0 138.21575489836403 Z " stroke="none" fill-rule="evenodd" fill="#000000" fill-opacity="1" transform="matrix(1,0,0,1,5.05,13.314)" id="mark32 l" />
  <path d="M 0 126.14146606002834 L 10 126.14146606002834 L 10 127.64146606002834 L 0 127.64146606002834 Z " stroke="none" fill-rule="evenodd" fill="#000000" fill-opacity="1" transform="matrix(1,0,0,1,5.05,13.314)" id="mark33 l" />
  <path d="M 0 115.56717722169265 L 10 115.56717722169265 L 10 117.06717722169265 L 0 117.06717722169265 Z " stroke="none" fill-rule="evenodd" fill="#000000" fill-opacity="1" transform="matrix(1,0,0,1,5.05,13.314)" id="mark34 l" />
  <path d="M 0 104.99288838335696 L 25 104.99288838335696 L 25 106.49288838335696 L 0 106.49288838335696 Z " stroke="none" fill-rule="evenodd" fill="#000000" fill-opacity="1" transform="matrix(1,0,0,1,5.05,13.314)" id="mark35 l" />
  <path d="M 12.232 102.49488838335697 C 12.229333333333333 102.39355505002364, 12.227333333333334 102.30955505002363, 12.226 102.24288838335696 C 12.224666666666668 102.17622171669029, 12.224666666666668 102.1082217166903, 12.226 102.03888838335696 C 12.227333333333334 101.96955505002363, 12.229333333333333 101.8802217166903, 12.232 101.77088838335696 L 13.312 101.77088838335696 L 13.312 102.63488838335697 C 13.312 102.87222171669029, 13.425333333333333 103.02288838335696, 13.652 103.08688838335696 L 13.652 103.97888838335696 C 13.164 103.94155505002362, 12.808666666666667 103.80688838335696, 12.586 103.57488838335696 C 12.363333333333333 103.34288838335696, 12.245333333333335 102.98288838335696, 12.232 102.49488838335697 Z M 12.3 98.44288838335696 L 12.3 97.51088838335696 L 15.544 97.51088838335696 L 15.544 98.44288838335696 Z M 14.152000000000001 103.09088838335697 C 14.376000000000001 103.03488838335697, 14.492 102.88422171669029, 14.5 102.63888838335696 C 14.505333333333333 102.43622171669028, 14.508666666666667 102.25355505002364, 14.51 102.09088838335697 C 14.511333333333333 101.9282217166903, 14.506666666666668 101.77088838335696, 14.496 101.61888838335696 C 14.488 101.46155505002362, 14.440000000000001 101.32822171669028, 14.352 101.21888838335695 C 14.264 101.10955505002363, 14.097333333333335 101.05755505002364, 13.852 101.06288838335696 L 13.104 101.07088838335696 L 13.076 100.17888838335696 L 14.036 98.79488838335696 L 15.224 98.79488838335696 L 14.256 100.14688838335697 L 14.288 100.14688838335697 C 14.719999999999999 100.14688838335698, 15.036666666666665 100.26955505002363, 15.238 100.51488838335696 C 15.439333333333334 100.7602217166903, 15.552 101.13755505002362, 15.576 101.64688838335697 C 15.581333333333333 101.71888838335695, 15.584666666666667 101.79088838335696, 15.586 101.86288838335696 C 15.587333333333333 101.93488838335696, 15.588000000000001 102.00555505002363, 15.588000000000001 102.07488838335696 C 15.588000000000001 102.1442217166903, 15.587333333333333 102.21355505002363, 15.586 102.28288838335696 C 15.584666666666667 102.3522217166903, 15.581333333333333 102.42288838335696, 15.576 102.49488838335697 C 15.557333333333334 102.99088838335696, 15.436666666666667 103.35555505002363, 15.214 103.58888838335696 C 14.991333333333333 103.8222217166903, 14.638666666666666 103.9522217166903, 14.156 103.97888838335696 Z M 16.18 102.49488838335697 C 16.174666666666667 102.32155505002363, 16.173333333333332 102.1822217166903, 16.176 102.07688838335696 C 16.178666666666665 101.97155505002362, 16.181333333333335 101.86955505002362, 16.183999999999997 101.77088838335696 L 17.264 101.77088838335696 C 17.256 101.84822171669029, 17.25 101.9442217166903, 17.246 102.05888838335696 C 17.241999999999997 102.17355505002362, 17.240666666666666 102.2842217166903, 17.241999999999997 102.39088838335697 C 17.243333333333332 102.49755505002364, 17.246666666666666 102.57755505002363, 17.252 102.63088838335696 C 17.262666666666668 102.75088838335697, 17.297333333333334 102.84888838335696, 17.355999999999998 102.92488838335696 C 17.414666666666665 103.00088838335697, 17.497333333333334 103.05488838335697, 17.604 103.08688838335696 L 17.604 103.97888838335696 C 17.110666666666663 103.94155505002362, 16.75333333333333 103.80688838335696, 16.532 103.57488838335696 C 16.310666666666666 103.34288838335696, 16.19333333333333 102.98288838335696, 16.18 102.49488838335697 Z M 16.279999999999998 101.15888838335697 L 16.279999999999998 97.51088838335696 L 17.348 97.51088838335696 L 17.348 101.15888838335697 Z M 17.852 100.73488838335696 L 17.852 99.97888838335696 C 17.929333333333332 99.93888838335695, 18.014666666666667 99.90688838335694, 18.107999999999997 99.88288838335696 C 18.20133333333333 99.85888838335697, 18.301333333333332 99.84688838335697, 18.407999999999998 99.84688838335697 C 18.773333333333333 99.84688838335697, 19.047333333333334 99.9622217166903, 19.23 100.19288838335696 C 19.412666666666667 100.42355505002362, 19.514666666666663 100.73755505002363, 19.535999999999998 101.13488838335697 C 19.546666666666667 101.29488838335696, 19.55333333333333 101.45355505002362, 19.555999999999997 101.61088838335696 C 19.558666666666664 101.7682217166903, 19.557333333333332 101.92155505002363, 19.552 102.07088838335696 C 19.546666666666667 102.22022171669029, 19.538666666666668 102.36022171669029, 19.528 102.49088838335696 C 19.482666666666667 102.98955505002363, 19.353333333333335 103.35488838335695, 19.14 103.58688838335696 C 18.926666666666666 103.81888838335695, 18.581333333333333 103.94955505002363, 18.104 103.97888838335696 L 18.104 103.08688838335696 C 18.21333333333333 103.05755505002364, 18.296 103.00488838335697, 18.352 102.92888838335696 C 18.408 102.85288838335696, 18.44 102.75355505002362, 18.448 102.63088838335696 C 18.471999999999998 102.3402217166903, 18.485999999999997 102.07888838335697, 18.49 101.84688838335697 C 18.494 101.61488838335697, 18.485333333333333 101.39355505002362, 18.464 101.18288838335697 C 18.447999999999997 101.0282217166903, 18.396666666666665 100.91288838335697, 18.31 100.83688838335696 C 18.223333333333333 100.76088838335696, 18.090666666666664 100.72288838335695, 17.912 100.72288838335696 C 17.901333333333334 100.72288838335695, 17.890666666666668 100.7242217166903, 17.88 100.72688838335696 C 17.86933333333333 100.72955505002363, 17.86 100.7322217166903, 17.852 100.73488838335696 Z M 17.852 98.44288838335696 L 17.852 97.51088838335696 L 19.439999999999998 97.51088838335696 L 19.439999999999998 98.44288838335696 Z M 21.944 103.91088838335696 L 21.944 97.51088838335696 L 23.003999999999998 97.51088838335696 L 23.003999999999998 103.91088838335696 Z " stroke="none" fill-rule="nonzero" fill="#000000" fill-opacity="1" transform="matrix(1,0,0,1,5.05,13.314)" id="text35 l" />
  <path d="M 0 94.41859954502127 L 10 94.41859954502127 L 10 95.91859954502127 L 0 95.91859954502127 Z " stroke="none" fill-rule="evenodd" fill="#000000" fill-opacity="1" transform="matrix(1,0,0,1,5.05,13.314)" id="mark36 l" />
  <path d="M 0 83.84431070668558 L 10 83.84431070668558 L 10 85.34431070668558 L 0 85.34431070668558 Z " stroke="none" fill-rule="evenodd" fill="#000000" fill-opacity="1" transform="matrix(1,0,0,1,5.05,13.314)" id="mark37 l" />
  <path d="M 0 73.27002186834989 L 10 73.27002186834989 L 10 74.77002186834989 L 0 74.77002186834989 Z " stroke="none" fill-rule="evenodd" fill="#000000" fill-opacity="1" transform="matrix(1,0,0,1,5.05,13.314)" id="mark38 l" />
  <path d="M 0 62.69573303001414 L 10 62.69573303001414 L 10 64.19573303001414 L 0 64.19573303001414 Z " stroke="none" fill-rule="evenodd" fill="#000000" fill-opacity="1" transform="matrix(1,0,0,1,5.05,13.314)" id="mark39 l" />
  <path d="M 0 52.12144419167845 L 25 52.12144419167845 L 25 53.62144419167845 L 0 53.62144419167845 Z " stroke="none" fill-rule="evenodd" fill="#000000" fill-opacity="1" transform="matrix(1,0,0,1,5.05,13.314)" id="mark40 l" />
  <path d="M 11.739999999999998 49.387444191678455 L 11.739999999999998 48.51144419167845 L 12.455999999999998 46.631444191678455 L 13.495999999999999 46.631444191678455 L 12.771999999999998 48.463444191678455 L 13.171999999999997 48.463444191678455 L 13.171999999999997 49.387444191678455 Z M 13.675999999999998 51.07144419167845 L 13.675999999999998 44.671444191678454 L 14.683999999999997 44.671444191678454 L 14.683999999999997 51.07144419167845 Z M 15.187999999999999 49.387444191678455 L 15.187999999999999 48.463444191678455 L 15.655999999999999 48.463444191678455 L 15.655999999999999 49.387444191678455 Z M 16.195999999999998 49.65944419167845 C 16.188 49.230110858345114, 16.182666666666666 48.81344419167846, 16.18 48.40944419167845 C 16.177333333333333 48.00544419167845, 16.177999999999997 47.61011085834512, 16.182 47.22344419167845 C 16.186 46.83677752501179, 16.190666666666665 46.45544419167845, 16.195999999999998 46.079444191678455 C 16.20933333333333 45.63944419167845, 16.333999999999996 45.29411085834512, 16.569999999999997 45.043444191678454 C 16.805999999999997 44.792777525011786, 17.142666666666663 44.64744419167845, 17.58 44.607444191678454 L 17.58 45.49544419167845 C 17.382666666666665 45.551444191678456, 17.281333333333333 45.68077752501179, 17.275999999999996 45.88344419167845 C 17.262666666666664 46.254110858345115, 17.25333333333333 46.60211085834512, 17.247999999999998 46.927444191678454 C 17.242666666666665 47.25277752501179, 17.24 47.56944419167845, 17.24 47.87744419167845 C 17.24 48.18544419167846, 17.242666666666665 48.500110858345124, 17.247999999999998 48.82144419167845 C 17.25333333333333 49.14277752501178, 17.262666666666664 49.486110858345114, 17.275999999999996 49.85144419167845 C 17.281333333333333 50.05944419167845, 17.382666666666665 50.19144419167845, 17.58 50.247444191678454 L 17.58 51.13544419167845 C 17.142666666666663 51.09544419167845, 16.805999999999997 50.94944419167845, 16.569999999999997 50.69744419167845 C 16.333999999999996 50.44544419167845, 16.20933333333333 50.099444191678444, 16.195999999999998 49.65944419167845 Z M 18.084 51.13544419167845 L 18.084 50.24344419167845 C 18.268 50.190110858345115, 18.366666666666667 50.06611085834511, 18.38 49.87144419167845 C 18.398666666666664 49.40477752501178, 18.410666666666664 48.95611085834511, 18.415999999999997 48.52544419167845 C 18.42133333333333 48.094777525011786, 18.42133333333333 47.66411085834512, 18.415999999999997 47.23344419167845 C 18.410666666666664 46.802777525011784, 18.398666666666664 46.35011085834512, 18.38 45.875444191678454 C 18.374666666666666 45.680777525011784, 18.276 45.55411085834512, 18.084 45.49544419167845 L 18.084 44.607444191678454 C 18.513333333333332 44.64744419167845, 18.846666666666664 44.792777525011786, 19.083999999999996 45.043444191678454 C 19.32133333333333 45.29411085834512, 19.44533333333333 45.63944419167845, 19.456 46.079444191678455 C 19.466666666666665 46.39411085834512, 19.474666666666664 46.704110858345125, 19.479999999999997 47.009444191678455 C 19.48533333333333 47.314777525011785, 19.488 47.61544419167845, 19.488 47.911444191678456 C 19.488 48.207444191678455, 19.48533333333333 48.500777525011785, 19.479999999999997 48.79144419167845 C 19.474666666666664 49.08211085834512, 19.466666666666665 49.37144419167845, 19.456 49.65944419167845 C 19.439999999999998 50.110110858345124, 19.311999999999998 50.45877752501178, 19.072 50.70544419167845 C 18.831999999999997 50.95211085834512, 18.502666666666663 51.09544419167845, 18.084 51.13544419167845 Z M 21.944 51.07144419167845 L 21.944 44.671444191678454 L 23.003999999999998 44.671444191678454 L 23.003999999999998 51.07144419167845 Z " stroke="none" fill-rule="nonzero" fill="#000000" fill-opacity="1" transform="matrix(1,0,0,1,5.05,13.314)" id="text40 l" />
  <path d="M 0 41.54715535334276 L 10 41.54715535334276 L 10 43.04715535334276 L 0 43.04715535334276 Z " stroke="none" fill-rule="evenodd" fill="#000000" fill-opacity="1" transform="matrix(1,0,0,1,5.05,13.314)" id="mark41 l" />
  <path d="M 0 30.97286651500707 L 10 30.97286651500707 L 10 32.47286651500707 L 0 32.47286651500707 Z " stroke="none" fill-rule="evenodd" fill="#000000" fill-opacity="1" transform="matrix(1,0,0,1,5.05,13.314)" id="mark42 l" />
  <path d="M 0 20.39857767667138 L 10 20.39857767667138 L 10 21.89857767667138 L 0 21.89857767667138 Z " stroke="none" fill-rule="evenodd" fill="#000000" fill-opacity="1" transform="matrix(1,0,0,1,5.05,13.314)" id="mark43 l" />
  <path d="M 0 9.82428883833569 L 10 9.82428883833569 L 10 11.32428883833569 L 0 11.32428883833569 Z " stroke="none" fill-rule="evenodd" fill="#000000" fill-opacity="1" transform="matrix(1,0,0,1,5.05,13.314)" id="mark44 l" />
  <path d="M 0 -0.75 L 25 -0.75 L 25 0.75 L 0 0.75 Z " stroke="none" fill-rule="evenodd" fill="#000000" fill-opacity="1" transform="matrix(1,0,0,1,5.05,13.314)" id="mark45 l" />
  <path d="M 11.748 -3.516 L 11.748 -4.3919999999999995 L 12.463999999999999 -6.272 L 13.503999999999998 -6.272 L 12.78 -4.4399999999999995 L 13.18 -4.4399999999999995 L 13.18 -3.516 Z M 13.684 -1.8319999999999999 L 13.684 -8.232 L 14.691999999999998 -8.232 L 14.691999999999998 -1.8319999999999999 Z M 15.195999999999998 -3.516 L 15.195999999999998 -4.4399999999999995 L 15.663999999999998 -4.4399999999999995 L 15.663999999999998 -3.516 Z M 16.18 -3.2479999999999998 C 16.174666666666667 -3.421333333333333, 16.173333333333332 -3.5606666666666666, 16.176 -3.666 C 16.178666666666665 -3.771333333333333, 16.181333333333335 -3.873333333333333, 16.183999999999997 -3.972 L 17.264 -3.972 C 17.256 -3.8946666666666667, 17.25 -3.7986666666666666, 17.246 -3.6839999999999997 C 17.241999999999997 -3.569333333333333, 17.240666666666666 -3.4586666666666663, 17.241999999999997 -3.352 C 17.243333333333332 -3.2453333333333334, 17.246666666666666 -3.1653333333333338, 17.252 -3.112 C 17.262666666666668 -2.992, 17.297333333333334 -2.8939999999999997, 17.355999999999998 -2.8179999999999996 C 17.414666666666665 -2.7419999999999995, 17.497333333333334 -2.6879999999999997, 17.604 -2.6559999999999997 L 17.604 -1.7639999999999998 C 17.110666666666663 -1.801333333333333, 16.75333333333333 -1.9359999999999997, 16.532 -2.1679999999999997 C 16.310666666666666 -2.4, 16.19333333333333 -2.76, 16.18 -3.2479999999999998 Z M 16.279999999999998 -4.584 L 16.279999999999998 -8.232 L 17.348 -8.232 L 17.348 -4.584 Z M 17.852 -5.008 L 17.852 -5.763999999999999 C 17.929333333333332 -5.804, 18.014666666666667 -5.836, 18.107999999999997 -5.86 C 18.20133333333333 -5.884, 18.301333333333332 -5.896, 18.407999999999998 -5.896 C 18.773333333333333 -5.896, 19.047333333333334 -5.780666666666667, 19.23 -5.55 C 19.412666666666667 -5.319333333333333, 19.514666666666663 -5.005333333333333, 19.535999999999998 -4.608 C 19.546666666666667 -4.448, 19.55333333333333 -4.289333333333333, 19.555999999999997 -4.132 C 19.558666666666664 -3.974666666666667, 19.557333333333332 -3.8213333333333335, 19.552 -3.6719999999999997 C 19.546666666666667 -3.522666666666667, 19.538666666666668 -3.3826666666666663, 19.528 -3.252 C 19.482666666666667 -2.753333333333333, 19.353333333333335 -2.388, 19.14 -2.1559999999999997 C 18.926666666666666 -1.9239999999999997, 18.581333333333333 -1.793333333333333, 18.104 -1.7639999999999998 L 18.104 -2.6559999999999997 C 18.21333333333333 -2.685333333333333, 18.296 -2.738, 18.352 -2.814 C 18.408 -2.89, 18.44 -2.9893333333333336, 18.448 -3.112 C 18.471999999999998 -3.4026666666666667, 18.485999999999997 -3.664, 18.49 -3.896 C 18.494 -4.128, 18.485333333333333 -4.349333333333333, 18.464 -4.5600000000000005 C 18.447999999999997 -4.714666666666667, 18.396666666666665 -4.83, 18.31 -4.906 C 18.223333333333333 -4.981999999999999, 18.090666666666664 -5.02, 17.912 -5.02 C 17.901333333333334 -5.02, 17.890666666666668 -5.018666666666666, 17.88 -5.016 C 17.86933333333333 -5.013333333333334, 17.86 -5.010666666666667, 17.852 -5.008 Z M 17.852 -7.3 L 17.852 -8.232 L 19.439999999999998 -8.232 L 19.439999999999998 -7.3 Z M 21.944 -1.8319999999999999 L 21.944 -8.232 L 23.003999999999998 -8.232 L 23.003999999999998 -1.8319999999999999 Z " stroke="none" fill-rule="nonzero" fill="#000000" fill-opacity="1" transform="matrix(1,0,0,1,5.05,13.314)" id="text45 l" />
  <path d="M -5 -13.264 L 30 -13.264 L 30 472.0047088867705 L -5 472.0047088867705 Z " stroke="#FF0000" stroke-opacity="1" stroke-width="0.1" stroke-linecap="butt" stroke-linejoin="miter" fill="none" transform="matrix(1,0,0,1,5.05,13.314)" />
</svg>