<?xml version="1.0" encoding="UTF-8"?>
<svg xmlns:xlink="http://www.w3.org/1999/xlink" viewBox="0 0 35.1 292.78638029684345" version="1.1" style="font-synthesis: none;" width="35.1mm" height="292.78638029684345mm" xmlns="http://www.w3.org/2000/svg">
  <defs />
  <style>	</style>
  <path d="M 0 0 L 35.1 0 L 35.1 292.78638029684345 L 0 292.78638029684345 Z " stroke="none" fill-rule="nonzero" fill="#FFFFFF" fill-opacity="1" transform="matrix(1,0,0,1,0,0)" />
  <path d="M 0 271.90438029684344 L 10 271.90438029684344 L 10 273.40438029684344 L 0 273.40438029684344 Z " stroke="none" fill-rule="evenodd" fill="#000000" fill-opacity="1" transform="matrix(1,0,0,1,5.05,13.314)" id="mark1 l" />
  <path d="M 0 262.50250511419364 L 10 262.50250511419364 L 10 264.00250511419364 L 0 264.00250511419364 Z " stroke="none" fill-rule="evenodd" fill="#000000" fill-opacity="1" transform="matrix(1,0,0,1,5.05,13.314)" id="mark2 l" />
  <path d="M 0 253.10062993154386 L 10 253.10062993154386 L 10 254.60062993154386 L 0 254.60062993154386 Z " stroke="none" fill-rule="evenodd" fill="#000000" fill-opacity="1" transform="matrix(1,0,0,1,5.05,13.314)" id="mark3 l" />
  <path d="M 0 243.6987547488941 L 10 243.6987547488941 L 10 245.1987547488941 L 0 245.1987547488941 Z " stroke="none" fill-rule="evenodd" fill="#000000" fill-opacity="1" transform="matrix(1,0,0,1,5.05,13.314)" id="mark4 l" />
  <path d="M 0 234.29687956624434 L 25 234.29687956624434 L 25 235.79687956624434 L 0 235.79687956624434 Z " stroke="none" fill-rule="evenodd" fill="#000000" fill-opacity="1" transform="matrix(1,0,0,1,5.05,13.314)" id="mark5 l" />
  <path d="M 16.18 231.79887956624435 C 16.174666666666667 231.625546232911, 16.173333333333332 231.48621289957768, 16.176 231.38087956624435 C 16.178666666666665 231.275546232911, 16.181333333333335 231.173546232911, 16.183999999999997 231.07487956624436 L 17.264 231.07487956624436 C 17.256 231.1522128995777, 17.25 231.24821289957768, 17.246 231.36287956624435 C 17.241999999999997 231.477546232911, 17.240666666666666 231.58821289957768, 17.241999999999997 231.69487956624434 C 17.243333333333332 231.801546232911, 17.246666666666666 231.88154623291103, 17.252 231.93487956624435 C 17.262666666666668 232.05487956624438, 17.297333333333334 232.15287956624437, 17.355999999999998 232.22887956624436 C 17.414666666666665 232.30487956624435, 17.497333333333334 232.35887956624435, 17.604 232.39087956624434 L 17.604 233.28287956624436 C 17.110666666666663 233.245546232911, 16.75333333333333 233.11087956624436, 16.532 232.87887956624434 C 16.310666666666666 232.64687956624437, 16.19333333333333 232.28687956624435, 16.18 231.79887956624435 Z M 16.279999999999998 230.46287956624434 L 16.279999999999998 226.81487956624434 L 17.348 226.81487956624434 L 17.348 230.46287956624434 Z M 17.852 230.03887956624436 L 17.852 229.28287956624436 C 17.929333333333332 229.24287956624437, 18.014666666666667 229.2108795662444, 18.107999999999997 229.18687956624436 C 18.20133333333333 229.16287956624438, 18.301333333333332 229.15087956624438, 18.407999999999998 229.15087956624436 C 18.773333333333333 229.15087956624438, 19.047333333333334 229.26621289957768, 19.23 229.49687956624436 C 19.412666666666667 229.72754623291098, 19.514666666666663 230.041546232911, 19.535999999999998 230.43887956624434 C 19.546666666666667 230.59887956624436, 19.55333333333333 230.757546232911, 19.555999999999997 230.91487956624434 C 19.558666666666664 231.07221289957766, 19.557333333333332 231.22554623291103, 19.552 231.37487956624435 C 19.546666666666667 231.52421289957766, 19.538666666666668 231.66421289957768, 19.528 231.79487956624436 C 19.482666666666667 232.293546232911, 19.353333333333335 232.65887956624434, 19.14 232.89087956624434 C 18.926666666666666 233.12287956624434, 18.581333333333333 233.253546232911, 18.104 233.28287956624436 L 18.104 232.39087956624434 C 18.21333333333333 232.361546232911, 18.296 232.30887956624434, 18.352 232.23287956624435 C 18.408 232.15687956624436, 18.44 232.05754623291102, 18.448 231.93487956624435 C 18.471999999999998 231.64421289957767, 18.485999999999997 231.38287956624436, 18.49 231.15087956624436 C 18.494 230.91887956624436, 18.485333333333333 230.697546232911, 18.464 230.48687956624434 C 18.447999999999997 230.33221289957768, 18.396666666666665 230.21687956624436, 18.31 230.14087956624434 C 18.223333333333333 230.06487956624437, 18.090666666666664 230.02687956624436, 17.912 230.02687956624436 C 17.901333333333334 230.02687956624436, 17.890666666666668 230.02821289957768, 17.88 230.03087956624435 C 17.86933333333333 230.03354623291102, 17.86 230.03621289957766, 17.852 230.03887956624436 Z M 17.852 227.74687956624436 L 17.852 226.81487956624434 L 19.439999999999998 226.81487956624434 L 19.439999999999998 227.74687956624436 Z M 21.944 233.21487956624435 L 21.944 226.81487956624434 L 23.003999999999998 226.81487956624434 L 23.003999999999998 233.21487956624435 Z " stroke="none" fill-rule="nonzero" fill="#000000" fill-opacity="1" transform="matrix(1,0,0,1,5.05,13.314)" id="text5 l" />
  <path d="M 0 224.89500438359454 L 10 224.89500438359454 L 10 226.39500438359454 L 0 226.39500438359454 Z " stroke="none" fill-rule="evenodd" fill="#000000" fill-opacity="1" transform="matrix(1,0,0,1,5.05,13.314)" id="mark6 l" />
  <path d="M 0 215.4931292009448 L 10 215.4931292009448 L 10 216.9931292009448 L 0 216.9931292009448 Z " stroke="none" fill-rule="evenodd" fill="#000000" fill-opacity="1" transform="matrix(1,0,0,1,5.05,13.314)" id="mark7 l" />
  <path d="M 0 206.091254018295 L 10 206.091254018295 L 10 207.591254018295 L 0 207.591254018295 Z " stroke="none" fill-rule="evenodd" fill="#000000" fill-opacity="1" transform="matrix(1,0,0,1,5.05,13.314)" id="mark8 l" />
  <path d="M 0 196.68937883564524 L 10 196.68937883564524 L 10 198.18937883564524 L 0 198.18937883564524 Z " stroke="none" fill-rule="evenodd" fill="#000000" fill-opacity="1" transform="matrix(1,0,0,1,5.05,13.314)" id="mark9 l" />
  <path d="M 0 187.28750365299547 L 25 187.28750365299547 L 25 188.78750365299547 L 0 188.78750365299547 Z " stroke="none" fill-rule="evenodd" fill="#000000" fill-opacity="1" transform="matrix(1,0,0,1,5.05,13.314)" id="mark10 l" />
  <path d="M 14.323999999999998 186.23750365299549 L 14.323999999999998 180.7935036529955 L 13.871999999999998 180.7935036529955 L 13.839999999999998 180.41350365299547 L 14.543999999999999 179.83750365299548 L 15.424 179.83750365299548 L 15.424 186.23750365299549 Z M 16.196 184.82550365299548 C 16.188000000000002 184.39617031966213, 16.182666666666666 183.97950365299548, 16.18 183.57550365299548 C 16.177333333333333 183.17150365299548, 16.177999999999997 182.77617031966216, 16.182 182.38950365299547 C 16.186 182.00283698632882, 16.190666666666665 181.6215036529955, 16.196 181.2455036529955 C 16.209333333333333 180.8055036529955, 16.334000000000003 180.46017031966215, 16.57 180.2095036529955 C 16.805999999999997 179.95883698632883, 17.142666666666663 179.81350365299548, 17.58 179.7735036529955 L 17.58 180.6615036529955 C 17.382666666666665 180.7175036529955, 17.281333333333333 180.84683698632884, 17.276 181.0495036529955 C 17.262666666666668 181.42017031966216, 17.253333333333334 181.76817031966215, 17.248 182.09350365299548 C 17.242666666666665 182.4188369863288, 17.24 182.73550365299548, 17.24 183.0435036529955 C 17.24 183.3515036529955, 17.242666666666665 183.66617031966214, 17.248 183.98750365299549 C 17.253333333333334 184.30883698632883, 17.262666666666668 184.65217031966216, 17.276 185.0175036529955 C 17.281333333333333 185.22550365299549, 17.382666666666665 185.3575036529955, 17.58 185.41350365299547 L 17.58 186.30150365299548 C 17.142666666666663 186.2615036529955, 16.805999999999997 186.11550365299547, 16.57 185.8635036529955 C 16.334000000000003 185.61150365299548, 16.209333333333333 185.26550365299548, 16.196 184.82550365299548 Z M 18.084 186.30150365299548 L 18.084 185.40950365299548 C 18.268 185.35617031966217, 18.366666666666667 185.23217031966215, 18.38 185.0375036529955 C 18.398666666666667 184.5708369863288, 18.410666666666668 184.12217031966213, 18.416 183.6915036529955 C 18.421333333333333 183.2608369863288, 18.421333333333333 182.83017031966216, 18.416 182.3995036529955 C 18.410666666666668 181.96883698632882, 18.398666666666667 181.51617031966214, 18.38 181.0415036529955 C 18.374666666666666 180.8468369863288, 18.276 180.72017031966215, 18.084 180.6615036529955 L 18.084 179.7735036529955 C 18.513333333333335 179.81350365299548, 18.846666666666668 179.95883698632883, 19.084 180.2095036529955 C 19.321333333333335 180.46017031966215, 19.445333333333334 180.8055036529955, 19.456 181.2455036529955 C 19.46666666666667 181.56017031966215, 19.474666666666668 181.87017031966212, 19.48 182.17550365299547 C 19.485333333333333 182.48083698632882, 19.488 182.78150365299547, 19.488 183.0775036529955 C 19.488 183.37350365299548, 19.485333333333333 183.6668369863288, 19.48 183.95750365299548 C 19.474666666666668 184.24817031966217, 19.46666666666667 184.5375036529955, 19.456 184.82550365299548 C 19.439999999999998 185.27617031966216, 19.311999999999998 185.62483698632883, 19.072 185.87150365299547 C 18.832 186.11817031966214, 18.502666666666666 186.2615036529955, 18.084 186.30150365299548 Z M 21.944 186.23750365299549 L 21.944 179.83750365299548 L 23.003999999999998 179.83750365299548 L 23.003999999999998 186.23750365299549 Z " stroke="none" fill-rule="nonzero" fill="#000000" fill-opacity="1" transform="matrix(1,0,0,1,5.05,13.314)" id="text10 l" />
  <path d="M 0 177.8856284703457 L 10 177.8856284703457 L 10 179.3856284703457 L 0 179.3856284703457 Z " stroke="none" fill-rule="evenodd" fill="#000000" fill-opacity="1" transform="matrix(1,0,0,1,5.05,13.314)" id="mark11 l" />
  <path d="M 0 168.48375328769592 L 10 168.48375328769592 L 10 169.98375328769592 L 0 169.98375328769592 Z " stroke="none" fill-rule="evenodd" fill="#000000" fill-opacity="1" transform="matrix(1,0,0,1,5.05,13.314)" id="mark12 l" />
  <path d="M 0 159.08187810504614 L 10 159.08187810504614 L 10 160.58187810504614 L 0 160.58187810504614 Z " stroke="none" fill-rule="evenodd" fill="#000000" fill-opacity="1" transform="matrix(1,0,0,1,5.05,13.314)" id="mark13 l" />
  <path d="M 0 149.68000292239637 L 10 149.68000292239637 L 10 151.18000292239637 L 0 151.18000292239637 Z " stroke="none" fill-rule="evenodd" fill="#000000" fill-opacity="1" transform="matrix(1,0,0,1,5.05,13.314)" id="mark14 l" />
  <path d="M 0 140.2781277397466 L 25 140.2781277397466 L 25 141.7781277397466 L 0 141.7781277397466 Z " stroke="none" fill-rule="evenodd" fill="#000000" fill-opacity="1" transform="matrix(1,0,0,1,5.05,13.314)" id="mark15 l" />
  <path d="M 14.331999999999999 139.1961277397466 L 14.331999999999999 133.7521277397466 L 13.879999999999999 133.7521277397466 L 13.847999999999999 133.3721277397466 L 14.552 132.7961277397466 L 15.432 132.7961277397466 L 15.432 139.1961277397466 Z M 16.18 137.7801277397466 C 16.174666666666667 137.6067944064133, 16.173333333333332 137.46746107307996, 16.176 137.3621277397466 C 16.178666666666665 137.2567944064133, 16.181333333333335 137.1547944064133, 16.183999999999997 137.05612773974661 L 17.264 137.05612773974661 C 17.256 137.13346107307993, 17.25 137.22946107307993, 17.246 137.3441277397466 C 17.241999999999997 137.45879440641326, 17.240666666666666 137.56946107307994, 17.241999999999997 137.6761277397466 C 17.243333333333332 137.78279440641325, 17.246666666666666 137.86279440641326, 17.252 137.9161277397466 C 17.262666666666668 138.0361277397466, 17.297333333333334 138.1341277397466, 17.355999999999998 138.2101277397466 C 17.414666666666665 138.28612773974658, 17.497333333333334 138.34012773974658, 17.604 138.3721277397466 L 17.604 139.2641277397466 C 17.110666666666663 139.22679440641326, 16.75333333333333 139.0921277397466, 16.532 138.8601277397466 C 16.310666666666666 138.6281277397466, 16.19333333333333 138.2681277397466, 16.18 137.7801277397466 Z M 16.279999999999998 136.4441277397466 L 16.279999999999998 132.7961277397466 L 17.348 132.7961277397466 L 17.348 136.4441277397466 Z M 17.852 136.0201277397466 L 17.852 135.2641277397466 C 17.929333333333332 135.22412773974662, 18.014666666666667 135.1921277397466, 18.107999999999997 135.1681277397466 C 18.20133333333333 135.1441277397466, 18.301333333333332 135.1321277397466, 18.407999999999998 135.1321277397466 C 18.773333333333333 135.1321277397466, 19.047333333333334 135.24746107307993, 19.23 135.4781277397466 C 19.412666666666667 135.70879440641326, 19.514666666666663 136.02279440641325, 19.535999999999998 136.4201277397466 C 19.546666666666667 136.5801277397466, 19.55333333333333 136.73879440641326, 19.555999999999997 136.8961277397466 C 19.558666666666664 137.05346107307994, 19.557333333333332 137.20679440641328, 19.552 137.3561277397466 C 19.546666666666667 137.5054610730799, 19.538666666666668 137.64546107307993, 19.528 137.7761277397466 C 19.482666666666667 138.27479440641326, 19.353333333333335 138.64012773974662, 19.14 138.8721277397466 C 18.926666666666666 139.10412773974662, 18.581333333333333 139.23479440641327, 18.104 139.2641277397466 L 18.104 138.3721277397466 C 18.21333333333333 138.34279440641328, 18.296 138.2901277397466, 18.352 138.2141277397466 C 18.408 138.1381277397466, 18.44 138.03879440641327, 18.448 137.9161277397466 C 18.471999999999998 137.62546107307992, 18.485999999999997 137.3641277397466, 18.49 137.1321277397466 C 18.494 136.9001277397466, 18.485333333333333 136.67879440641326, 18.464 136.4681277397466 C 18.447999999999997 136.3134610730799, 18.396666666666665 136.19812773974658, 18.31 136.1221277397466 C 18.223333333333333 136.0461277397466, 18.090666666666664 136.0081277397466, 17.912 136.0081277397466 C 17.901333333333334 136.0081277397466, 17.890666666666668 136.00946107307993, 17.88 136.0121277397466 C 17.86933333333333 136.01479440641327, 17.86 136.01746107307994, 17.852 136.0201277397466 Z M 17.852 133.7281277397466 L 17.852 132.7961277397466 L 19.439999999999998 132.7961277397466 L 19.439999999999998 133.7281277397466 Z M 21.944 139.1961277397466 L 21.944 132.7961277397466 L 23.003999999999998 132.7961277397466 L 23.003999999999998 139.1961277397466 Z " stroke="none" fill-rule="nonzero" fill="#000000" fill-opacity="1" transform="matrix(1,0,0,1,5.05,13.314)" id="text15 l" />
  <path d="M 0 130.87625255709682 L 10 130.87625255709682 L 10 132.37625255709682 L 0 132.37625255709682 Z " stroke="none" fill-rule="evenodd" fill="#000000" fill-opacity="1" transform="matrix(1,0,0,1,5.05,13.314)" id="mark16 l" />
  <path d="M 0 121.47437737444704 L 10 121.47437737444704 L 10 122.97437737444704 L 0 122.97437737444704 Z " stroke="none" fill-rule="evenodd" fill="#000000" fill-opacity="1" transform="matrix(1,0,0,1,5.05,13.314)" id="mark17 l" />
  <path d="M 0 112.0725021917973 L 10 112.0725021917973 L 10 113.5725021917973 L 0 113.5725021917973 Z " stroke="none" fill-rule="evenodd" fill="#000000" fill-opacity="1" transform="matrix(1,0,0,1,5.05,13.314)" id="mark18 l" />
  <path d="M 0 102.67062700914752 L 10 102.67062700914752 L 10 104.17062700914752 L 0 104.17062700914752 Z " stroke="none" fill-rule="evenodd" fill="#000000" fill-opacity="1" transform="matrix(1,0,0,1,5.05,13.314)" id="mark19 l" />
  <path d="M 0 93.26875182649775 L 25 93.26875182649775 L 25 94.76875182649775 L 0 94.76875182649775 Z " stroke="none" fill-rule="evenodd" fill="#000000" fill-opacity="1" transform="matrix(1,0,0,1,5.05,13.314)" id="mark20 l" />
  <path d="M 12.319999999999999 92.21875182649775 C 12.317333333333334 92.12008515983109, 12.315333333333331 92.03141849316442, 12.313999999999998 91.95275182649775 C 12.312666666666665 91.87408515983108, 12.311333333333334 91.80008515983108, 12.309999999999999 91.73075182649775 C 12.308666666666667 91.66141849316442, 12.308 91.58941849316443, 12.308 91.51475182649776 C 12.308 91.44008515983109, 12.308 91.35541849316442, 12.308 91.26075182649775 C 12.308 91.16608515983108, 12.309333333333335 91.05475182649775, 12.312 90.92675182649775 C 12.32 90.63341849316441, 12.37 90.37141849316441, 12.462 90.14075182649775 C 12.554 89.91008515983108, 12.687999999999999 89.70408515983108, 12.863999999999999 89.52275182649775 C 13.04 89.34141849316441, 13.257333333333333 89.18008515983108, 13.515999999999998 89.03875182649774 L 14.047999999999998 88.75075182649775 C 14.234666666666666 88.6494184931644, 14.354 88.52741849316442, 14.405999999999999 88.38475182649775 C 14.457999999999998 88.24208515983108, 14.488 88.10808515983109, 14.495999999999999 87.98275182649775 C 14.506666666666664 87.83608515983107, 14.512666666666664 87.6794184931644, 14.514 87.51275182649775 C 14.51533333333333 87.34608515983109, 14.511999999999997 87.18941849316442, 14.504 87.04275182649775 C 14.498666666666665 86.93875182649776, 14.468666666666666 86.85275182649775, 14.413999999999998 86.78475182649775 C 14.359333333333332 86.71675182649776, 14.279999999999998 86.66808515983108, 14.175999999999998 86.63875182649775 L 14.175999999999998 85.75075182649775 C 14.663999999999998 85.78275182649776, 15.014 85.91408515983109, 15.225999999999999 86.14475182649775 C 15.437999999999999 86.37541849316442, 15.554666666666666 86.73608515983109, 15.575999999999999 87.22675182649775 C 15.578666666666663 87.29075182649775, 15.580666666666666 87.35608515983108, 15.581999999999999 87.42275182649774 C 15.583333333333332 87.48941849316441, 15.584 87.55408515983109, 15.584 87.61675182649775 C 15.584 87.67941849316442, 15.583333333333332 87.74141849316442, 15.581999999999999 87.80275182649775 C 15.580666666666666 87.86408515983109, 15.578666666666663 87.9240851598311, 15.575999999999999 87.98275182649775 C 15.565333333333331 88.26808515983109, 15.512 88.51475182649776, 15.415999999999999 88.72275182649776 C 15.32 88.93075182649775, 15.19 89.11075182649775, 15.026 89.26275182649775 C 14.862 89.41475182649775, 14.672 89.55075182649776, 14.456 89.67075182649775 L 13.851999999999999 89.99875182649775 C 13.737333333333332 90.06008515983109, 13.647333333333332 90.14408515983109, 13.581999999999999 90.25075182649775 C 13.516666666666666 90.3574184931644, 13.469999999999999 90.47075182649775, 13.441999999999998 90.59075182649775 C 13.413999999999998 90.71075182649776, 13.399999999999999 90.82275182649775, 13.399999999999999 90.92675182649775 L 13.399999999999999 92.21875182649775 Z M 12.328 88.17875182649775 C 12.322666666666667 88.06141849316442, 12.318666666666665 87.94675182649776, 12.315999999999999 87.83475182649775 C 12.313333333333333 87.72275182649774, 12.311333333333334 87.61675182649775, 12.309999999999999 87.51675182649775 C 12.308666666666667 87.41675182649774, 12.309333333333335 87.32008515983108, 12.312 87.22675182649775 C 12.330666666666666 86.73875182649775, 12.447333333333333 86.37941849316442, 12.661999999999999 86.14875182649774 C 12.876666666666665 85.9180851598311, 13.213333333333331 85.78541849316443, 13.671999999999999 85.75075182649775 L 13.671999999999999 86.64275182649776 C 13.576 86.67208515983108, 13.505333333333333 86.71875182649775, 13.459999999999999 86.78275182649776 C 13.414666666666665 86.84675182649775, 13.390666666666664 86.9240851598311, 13.387999999999998 87.01475182649776 C 13.382666666666665 87.22275182649776, 13.379333333333333 87.41608515983108, 13.378 87.59475182649776 C 13.376666666666667 87.77341849316443, 13.381333333333334 87.96808515983109, 13.392 88.17875182649775 Z M 13.904 92.21875182649775 L 13.904 91.28675182649775 L 15.5 91.28675182649775 L 15.5 92.21875182649775 Z M 16.196 90.80675182649775 C 16.188000000000002 90.37741849316441, 16.182666666666666 89.96075182649776, 16.18 89.55675182649775 C 16.177333333333333 89.15275182649775, 16.177999999999997 88.75741849316441, 16.182 88.37075182649775 C 16.186 87.9840851598311, 16.190666666666665 87.60275182649775, 16.196 87.22675182649775 C 16.209333333333333 86.78675182649775, 16.334000000000003 86.44141849316442, 16.57 86.19075182649775 C 16.805999999999997 85.94008515983109, 17.142666666666663 85.79475182649776, 17.58 85.75475182649775 L 17.58 86.64275182649776 C 17.382666666666665 86.69875182649776, 17.281333333333333 86.82808515983108, 17.276 87.03075182649775 C 17.262666666666668 87.40141849316441, 17.253333333333334 87.74941849316441, 17.248 88.07475182649775 C 17.242666666666665 88.40008515983108, 17.24 88.71675182649774, 17.24 89.02475182649775 C 17.24 89.33275182649776, 17.242666666666665 89.64741849316442, 17.248 89.96875182649775 C 17.253333333333334 90.29008515983108, 17.262666666666668 90.63341849316441, 17.276 90.99875182649775 C 17.281333333333333 91.20675182649775, 17.382666666666665 91.33875182649776, 17.58 91.39475182649775 L 17.58 92.28275182649774 C 17.142666666666663 92.24275182649775, 16.805999999999997 92.09675182649775, 16.57 91.84475182649776 C 16.334000000000003 91.59275182649776, 16.209333333333333 91.24675182649776, 16.196 90.80675182649775 Z M 18.084 92.28275182649774 L 18.084 91.39075182649775 C 18.268 91.33741849316442, 18.366666666666667 91.21341849316443, 18.38 91.01875182649775 C 18.398666666666667 90.55208515983108, 18.410666666666668 90.10341849316441, 18.416 89.67275182649774 C 18.421333333333333 89.24208515983108, 18.421333333333333 88.81141849316442, 18.416 88.38075182649776 C 18.410666666666668 87.95008515983109, 18.398666666666667 87.49741849316442, 18.38 87.02275182649775 C 18.374666666666666 86.82808515983109, 18.276 86.70141849316443, 18.084 86.64275182649776 L 18.084 85.75475182649775 C 18.513333333333335 85.79475182649776, 18.846666666666668 85.94008515983109, 19.084 86.19075182649775 C 19.321333333333335 86.44141849316442, 19.445333333333334 86.78675182649775, 19.456 87.22675182649775 C 19.46666666666667 87.54141849316441, 19.474666666666668 87.85141849316442, 19.48 88.15675182649775 C 19.485333333333333 88.46208515983109, 19.488 88.76275182649775, 19.488 89.05875182649775 C 19.488 89.35475182649776, 19.485333333333333 89.64808515983108, 19.48 89.93875182649775 C 19.474666666666668 90.22941849316442, 19.46666666666667 90.51875182649775, 19.456 90.80675182649775 C 19.439999999999998 91.25741849316441, 19.311999999999998 91.60608515983108, 19.072 91.85275182649775 C 18.832 92.09941849316442, 18.502666666666666 92.24275182649775, 18.084 92.28275182649774 Z M 21.944 92.21875182649775 L 21.944 85.81875182649775 L 23.003999999999998 85.81875182649775 L 23.003999999999998 92.21875182649775 Z " stroke="none" fill-rule="nonzero" fill="#000000" fill-opacity="1" transform="matrix(1,0,0,1,5.05,13.314)" id="text20 l" />
  <path d="M 0 83.86687664384797 L 10 83.86687664384797 L 10 85.36687664384797 L 0 85.36687664384797 Z " stroke="none" fill-rule="evenodd" fill="#000000" fill-opacity="1" transform="matrix(1,0,0,1,5.05,13.314)" id="mark21 l" />
  <path d="M 0 74.4650014611982 L 10 74.4650014611982 L 10 75.9650014611982 L 0 75.9650014611982 Z " stroke="none" fill-rule="evenodd" fill="#000000" fill-opacity="1" transform="matrix(1,0,0,1,5.05,13.314)" id="mark22 l" />
  <path d="M 0 65.06312627854842 L 10 65.06312627854842 L 10 66.56312627854842 L 0 66.56312627854842 Z " stroke="none" fill-rule="evenodd" fill="#000000" fill-opacity="1" transform="matrix(1,0,0,1,5.05,13.314)" id="mark23 l" />
  <path d="M 0 55.66125109589865 L 10 55.66125109589865 L 10 57.16125109589865 L 0 57.16125109589865 Z " stroke="none" fill-rule="evenodd" fill="#000000" fill-opacity="1" transform="matrix(1,0,0,1,5.05,13.314)" id="mark24 l" />
  <path d="M 0 46.259375913248874 L 25 46.259375913248874 L 25 47.759375913248874 L 0 47.759375913248874 Z " stroke="none" fill-rule="evenodd" fill="#000000" fill-opacity="1" transform="matrix(1,0,0,1,5.05,13.314)" id="mark25 l" />
  <path d="M 12.328 45.20937591324888 C 12.325333333333333 45.11070924658221, 12.323333333333332 45.02204257991554, 12.322 44.94337591324888 C 12.320666666666666 44.86470924658221, 12.319333333333333 44.79070924658221, 12.318 44.72137591324888 C 12.316666666666666 44.652042579915545, 12.315999999999999 44.58004257991554, 12.316 44.505375913248876 C 12.315999999999999 44.43070924658221, 12.315999999999999 44.34604257991554, 12.316 44.25137591324888 C 12.315999999999999 44.15670924658221, 12.317333333333334 44.045375913248876, 12.32 43.917375913248875 C 12.328 43.624042579915546, 12.378 43.362042579915546, 12.47 43.131375913248874 C 12.562000000000001 42.90070924658221, 12.696 42.69470924658221, 12.872 42.51337591324888 C 13.048 42.33204257991554, 13.265333333333334 42.170709246582206, 13.524000000000001 42.02937591324888 L 14.056000000000001 41.74137591324887 C 14.242666666666668 41.640042579915544, 14.362000000000002 41.518042579915544, 14.414 41.375375913248874 C 14.466000000000001 41.2327092465822, 14.495999999999999 41.09870924658221, 14.504 40.97337591324888 C 14.514666666666667 40.82670924658221, 14.520666666666667 40.670042579915545, 14.522 40.503375913248874 C 14.523333333333333 40.3367092465822, 14.520000000000001 40.180042579915536, 14.512 40.033375913248875 C 14.506666666666666 39.929375913248876, 14.476666666666667 39.84337591324888, 14.422 39.77537591324888 C 14.367333333333335 39.70737591324888, 14.288 39.65870924658221, 14.184000000000001 39.62937591324888 L 14.184000000000001 38.74137591324887 C 14.672 38.77337591324887, 15.022000000000002 38.90470924658221, 15.234 39.13537591324888 C 15.446000000000002 39.36604257991554, 15.562666666666667 39.72670924658221, 15.584 40.21737591324888 C 15.586666666666668 40.28137591324888, 15.588666666666668 40.34670924658221, 15.59 40.41337591324888 C 15.591333333333335 40.48004257991555, 15.592000000000002 40.544709246582215, 15.592 40.60737591324887 C 15.592000000000002 40.670042579915545, 15.591333333333335 40.73204257991554, 15.59 40.79337591324888 C 15.588666666666668 40.85470924658221, 15.586666666666668 40.91470924658221, 15.584 40.97337591324888 C 15.573333333333332 41.258709246582214, 15.52 41.505375913248876, 15.424 41.713375913248875 C 15.328 41.92137591324888, 15.197999999999999 42.10137591324888, 15.033999999999999 42.253375913248874 C 14.87 42.405375913248875, 14.68 42.54137591324888, 14.464 42.661375913248875 L 13.86 42.98937591324888 C 13.745333333333335 43.05070924658221, 13.655333333333335 43.134709246582204, 13.59 43.24137591324887 C 13.524666666666668 43.34804257991554, 13.478000000000002 43.46137591324888, 13.45 43.58137591324888 C 13.422 43.701375913248874, 13.408 43.813375913248876, 13.408 43.917375913248875 L 13.408 45.20937591324888 Z M 12.336 41.16937591324888 C 12.330666666666666 41.05204257991554, 12.326666666666664 40.93737591324888, 12.324 40.82537591324888 C 12.321333333333332 40.713375913248875, 12.319333333333333 40.60737591324887, 12.318 40.50737591324888 C 12.316666666666666 40.40737591324887, 12.317333333333334 40.310709246582206, 12.32 40.21737591324888 C 12.338666666666668 39.72937591324887, 12.455333333333336 39.37004257991554, 12.67 39.13937591324888 C 12.884666666666668 38.90870924658221, 13.221333333333334 38.77604257991554, 13.68 38.74137591324887 L 13.68 39.63337591324888 C 13.584 39.66270924658221, 13.513333333333332 39.70937591324888, 13.468 39.77337591324888 C 13.422666666666668 39.83737591324888, 13.398666666666667 39.914709246582206, 13.396 40.005375913248876 C 13.390666666666666 40.213375913248875, 13.387333333333332 40.40670924658221, 13.386 40.585375913248875 C 13.384666666666666 40.76404257991554, 13.389333333333333 40.95870924658221, 13.4 41.16937591324888 Z M 13.911999999999999 45.20937591324888 L 13.911999999999999 44.277375913248875 L 15.508 44.277375913248875 L 15.508 45.20937591324888 Z M 16.18 43.79337591324888 C 16.174666666666667 43.62004257991554, 16.173333333333332 43.48070924658221, 16.176 43.375375913248874 C 16.178666666666665 43.27004257991555, 16.181333333333335 43.16804257991555, 16.183999999999997 43.06937591324888 L 17.264 43.06937591324888 C 17.256 43.146709246582205, 17.25 43.24270924658221, 17.246 43.35737591324888 C 17.241999999999997 43.472042579915545, 17.240666666666666 43.58270924658221, 17.241999999999997 43.689375913248874 C 17.243333333333332 43.79604257991554, 17.246666666666666 43.87604257991554, 17.252 43.929375913248876 C 17.262666666666668 44.04937591324887, 17.297333333333334 44.14737591324888, 17.355999999999998 44.22337591324888 C 17.414666666666665 44.29937591324888, 17.497333333333334 44.353375913248875, 17.604 44.38537591324888 L 17.604 45.277375913248875 C 17.110666666666663 45.240042579915546, 16.75333333333333 45.10537591324888, 16.532 44.87337591324888 C 16.310666666666666 44.64137591324888, 16.19333333333333 44.28137591324888, 16.18 43.79337591324888 Z M 16.279999999999998 42.457375913248875 L 16.279999999999998 38.80937591324888 L 17.348 38.80937591324888 L 17.348 42.457375913248875 Z M 17.852 42.033375913248875 L 17.852 41.277375913248875 C 17.929333333333332 41.237375913248876, 18.014666666666667 41.20537591324888, 18.107999999999997 41.18137591324888 C 18.20133333333333 41.15737591324888, 18.301333333333332 41.14537591324888, 18.407999999999998 41.14537591324888 C 18.773333333333333 41.14537591324888, 19.047333333333334 41.26070924658221, 19.23 41.49137591324887 C 19.412666666666667 41.722042579915545, 19.514666666666663 42.036042579915545, 19.535999999999998 42.43337591324888 C 19.546666666666667 42.59337591324888, 19.55333333333333 42.752042579915546, 19.555999999999997 42.90937591324888 C 19.558666666666664 43.066709246582214, 19.557333333333332 43.22004257991554, 19.552 43.369375913248874 C 19.546666666666667 43.51870924658221, 19.538666666666668 43.65870924658221, 19.528 43.789375913248875 C 19.482666666666667 44.28804257991555, 19.353333333333335 44.65337591324888, 19.14 44.88537591324888 C 18.926666666666666 45.11737591324888, 18.581333333333333 45.24804257991554, 18.104 45.277375913248875 L 18.104 44.38537591324888 C 18.21333333333333 44.356042579915545, 18.296 44.30337591324888, 18.352 44.22737591324888 C 18.408 44.15137591324888, 18.44 44.05204257991554, 18.448 43.929375913248876 C 18.471999999999998 43.63870924658221, 18.485999999999997 43.377375913248876, 18.49 43.14537591324888 C 18.494 42.91337591324888, 18.485333333333333 42.692042579915544, 18.464 42.481375913248876 C 18.447999999999997 42.32670924658221, 18.396666666666665 42.21137591324888, 18.31 42.13537591324888 C 18.223333333333333 42.05937591324888, 18.090666666666664 42.021375913248875, 17.912 42.021375913248875 C 17.901333333333334 42.021375913248875, 17.890666666666668 42.02270924658221, 17.88 42.02537591324888 C 17.86933333333333 42.02804257991555, 17.86 42.03070924658221, 17.852 42.033375913248875 Z M 17.852 39.74137591324887 L 17.852 38.80937591324888 L 19.439999999999998 38.80937591324888 L 19.439999999999998 39.74137591324887 Z M 21.944 45.20937591324888 L 21.944 38.80937591324888 L 23.003999999999998 38.80937591324888 L 23.003999999999998 45.20937591324888 Z " stroke="none" fill-rule="nonzero" fill="#000000" fill-opacity="1" transform="matrix(1,0,0,1,5.05,13.314)" id="text25 l" />
  <path d="M 0 36.8575007305991 L 10 36.8575007305991 L 10 38.3575007305991 L 0 38.3575007305991 Z " stroke="none" fill-rule="evenodd" fill="#000000" fill-opacity="1" transform="matrix(1,0,0,1,5.05,13.314)" id="mark26 l" />
  <path d="M 0 27.455625547949325 L 10 27.455625547949325 L 10 28.955625547949325 L 0 28.955625547949325 Z " stroke="none" fill-rule="evenodd" fill="#000000" fill-opacity="1" transform="matrix(1,0,0,1,5.05,13.314)" id="mark27 l" />
  <path d="M 0 18.05375036529955 L 10 18.05375036529955 L 10 19.55375036529955 L 0 19.55375036529955 Z " stroke="none" fill-rule="evenodd" fill="#000000" fill-opacity="1" transform="matrix(1,0,0,1,5.05,13.314)" id="mark28 l" />
  <path d="M 0 8.651875182649803 L 10 8.651875182649803 L 10 10.151875182649803 L 0 10.151875182649803 Z " stroke="none" fill-rule="evenodd" fill="#000000" fill-opacity="1" transform="matrix(1,0,0,1,5.05,13.314)" id="mark29 l" />
  <path d="M 0 -0.75 L 25 -0.75 L 25 0.75 L 0 0.75 Z " stroke="none" fill-rule="evenodd" fill="#000000" fill-opacity="1" transform="matrix(1,0,0,1,5.05,13.314)" id="mark30 l" />
  <path d="M 12.223999999999998 -3.2159999999999997 C 12.221333333333334 -3.317333333333333, 12.219333333333333 -3.4013333333333335, 12.218 -3.468 C 12.216666666666667 -3.5346666666666664, 12.216666666666667 -3.602666666666666, 12.218 -3.6719999999999997 C 12.219333333333333 -3.7413333333333334, 12.221333333333334 -3.8306666666666667, 12.223999999999998 -3.94 L 13.303999999999998 -3.94 L 13.303999999999998 -3.0759999999999996 C 13.303999999999998 -2.8386666666666667, 13.417333333333332 -2.6879999999999997, 13.643999999999998 -2.6239999999999997 L 13.643999999999998 -1.7319999999999998 C 13.155999999999999 -1.7693333333333332, 12.800666666666665 -1.904, 12.578 -2.1359999999999997 C 12.355333333333334 -2.368, 12.237333333333332 -2.7279999999999998, 12.223999999999998 -3.2159999999999997 Z M 12.292 -7.268 L 12.292 -8.2 L 15.536 -8.2 L 15.536 -7.268 Z M 14.143999999999998 -2.6199999999999997 C 14.367999999999999 -2.6759999999999997, 14.483999999999998 -2.826666666666666, 14.491999999999999 -3.072 C 14.497333333333334 -3.2746666666666666, 14.500666666666666 -3.4573333333333336, 14.501999999999999 -3.62 C 14.503333333333332 -3.7826666666666666, 14.498666666666665 -3.94, 14.488 -4.092 C 14.48 -4.2493333333333325, 14.431999999999999 -4.382666666666666, 14.344 -4.492 C 14.256 -4.601333333333333, 14.089333333333332 -4.653333333333332, 13.844 -4.648 L 13.096 -4.64 L 13.068 -5.532 L 14.027999999999999 -6.9159999999999995 L 15.216 -6.9159999999999995 L 14.248 -5.564 L 14.28 -5.564 C 14.712 -5.564, 15.028666666666666 -5.441333333333334, 15.229999999999999 -5.196 C 15.431333333333333 -4.950666666666666, 15.544 -4.573333333333332, 15.568 -4.064 C 15.57333333333333 -3.992, 15.576666666666664 -3.92, 15.578 -3.848 C 15.57933333333333 -3.776, 15.579999999999998 -3.705333333333333, 15.579999999999998 -3.6359999999999997 C 15.579999999999998 -3.5666666666666664, 15.57933333333333 -3.4973333333333336, 15.578 -3.428 C 15.576666666666664 -3.3586666666666662, 15.57333333333333 -3.2879999999999994, 15.568 -3.2159999999999997 C 15.549333333333333 -2.7199999999999998, 15.428666666666665 -2.3553333333333333, 15.206 -2.122 C 14.983333333333334 -1.8886666666666665, 14.630666666666666 -1.7586666666666664, 14.148 -1.7319999999999998 Z M 16.196 -3.2119999999999997 C 16.188000000000002 -3.641333333333333, 16.182666666666666 -4.058, 16.18 -4.462 C 16.177333333333333 -4.866, 16.177999999999997 -5.261333333333333, 16.182 -5.648 C 16.186 -6.034666666666666, 16.190666666666665 -6.416, 16.196 -6.792 C 16.209333333333333 -7.231999999999999, 16.334000000000003 -7.577333333333334, 16.57 -7.828 C 16.805999999999997 -8.078666666666667, 17.142666666666663 -8.224, 17.58 -8.264 L 17.58 -7.3759999999999994 C 17.382666666666665 -7.32, 17.281333333333333 -7.190666666666667, 17.276 -6.9879999999999995 C 17.262666666666668 -6.617333333333333, 17.253333333333334 -6.269333333333333, 17.248 -5.944 C 17.242666666666665 -5.618666666666666, 17.24 -5.302, 17.24 -4.994 C 17.24 -4.686, 17.242666666666665 -4.371333333333333, 17.248 -4.05 C 17.253333333333334 -3.7286666666666664, 17.262666666666668 -3.3853333333333326, 17.276 -3.0199999999999996 C 17.281333333333333 -2.812, 17.382666666666665 -2.6799999999999997, 17.58 -2.6239999999999997 L 17.58 -1.7359999999999998 C 17.142666666666663 -1.7759999999999998, 16.805999999999997 -1.9219999999999997, 16.57 -2.174 C 16.334000000000003 -2.4259999999999997, 16.209333333333333 -2.772, 16.196 -3.2119999999999997 Z M 18.084 -1.7359999999999998 L 18.084 -2.6279999999999997 C 18.268 -2.681333333333333, 18.366666666666667 -2.8053333333333335, 18.38 -3 C 18.398666666666667 -3.4666666666666663, 18.410666666666668 -3.915333333333333, 18.416 -4.346 C 18.421333333333333 -4.776666666666666, 18.421333333333333 -5.207333333333333, 18.416 -5.638 C 18.410666666666668 -6.068666666666666, 18.398666666666667 -6.521333333333333, 18.38 -6.9959999999999996 C 18.374666666666666 -7.190666666666667, 18.276 -7.317333333333334, 18.084 -7.3759999999999994 L 18.084 -8.264 C 18.513333333333335 -8.224, 18.846666666666668 -8.078666666666667, 19.084 -7.828 C 19.321333333333335 -7.577333333333334, 19.445333333333334 -7.231999999999999, 19.456 -6.792 C 19.46666666666667 -6.477333333333332, 19.474666666666668 -6.167333333333333, 19.48 -5.861999999999999 C 19.485333333333333 -5.556666666666667, 19.488 -5.256, 19.488 -4.96 C 19.488 -4.664, 19.485333333333333 -4.370666666666667, 19.48 -4.08 C 19.474666666666668 -3.7893333333333334, 19.46666666666667 -3.5, 19.456 -3.2119999999999997 C 19.439999999999998 -2.761333333333333, 19.311999999999998 -2.4126666666666665, 19.072 -2.166 C 18.832 -1.9193333333333331, 18.502666666666666 -1.7759999999999998, 18.084 -1.7359999999999998 Z M 21.944 -1.7999999999999998 L 21.944 -8.2 L 23.003999999999998 -8.2 L 23.003999999999998 -1.7999999999999998 Z " stroke="none" fill-rule="nonzero" fill="#000000" fill-opacity="1" transform="matrix(1,0,0,1,5.05,13.314)" id="text30 l" />
  <path d="M -5 -13.264 L 30 -13.264 L 30 279.4223802968434 L -5 279.4223802968434 Z " stroke="#FF0000" stroke-opacity="1" stroke-width="0.1" stroke-linecap="butt" stroke-linejoin="miter" fill="none" transform="matrix(1,0,0,1,5.05,13.314)" />
</svg>