<?xml version="1.0" encoding="UTF-8"?>
<svg xmlns:xlink="http://www.w3.org/1999/xlink" viewBox="0 0 35.1 256.3776186520322" version="1.1" style="font-synthesis: none;" width="35.1mm" height="256.3776186520322mm" xmlns="http://www.w3.org/2000/svg">
  <defs />
  <style>	</style>
  <path d="M 0 0 L 35.1 0 L 35.1 256.3776186520322 L 0 256.3776186520322 Z " stroke="none" fill-rule="nonzero" fill="#FFFFFF" fill-opacity="1" transform="matrix(1,0,0,1,0,0)" />
  <path d="M 0 235.49561865203214 L 10 235.49561865203214 L 10 236.99561865203214 L 0 236.99561865203214 Z " stroke="none" fill-rule="evenodd" fill="#000000" fill-opacity="1" transform="matrix(1,0,0,1,5.05,13.314)" id="mark1 l" />
  <path d="M 0 223.06163872297782 L 10 223.06163872297782 L 10 224.56163872297782 L 0 224.56163872297782 Z " stroke="none" fill-rule="evenodd" fill="#000000" fill-opacity="1" transform="matrix(1,0,0,1,5.05,13.314)" id="mark2 l" />
  <path d="M 0 210.62765879392347 L 10 210.62765879392347 L 10 212.12765879392347 L 0 212.12765879392347 Z " stroke="none" fill-rule="evenodd" fill="#000000" fill-opacity="1" transform="matrix(1,0,0,1,5.05,13.314)" id="mark3 l" />
  <path d="M 0 198.19367886486916 L 10 198.19367886486916 L 10 199.69367886486916 L 0 199.69367886486916 Z " stroke="none" fill-rule="evenodd" fill="#000000" fill-opacity="1" transform="matrix(1,0,0,1,5.05,13.314)" id="mark4 l" />
  <path d="M 0 185.75969893581484 L 25 185.75969893581484 L 25 187.25969893581484 L 0 187.25969893581484 Z " stroke="none" fill-rule="evenodd" fill="#000000" fill-opacity="1" transform="matrix(1,0,0,1,5.05,13.314)" id="mark5 l" />
  <path d="M 16.18 183.26169893581485 C 16.174666666666667 183.08836560248153, 16.173333333333332 182.94903226914818, 16.176 182.84369893581484 C 16.178666666666665 182.7383656024815, 16.181333333333335 182.63636560248153, 16.183999999999997 182.53769893581486 L 17.264 182.53769893581486 C 17.256 182.61503226914817, 17.25 182.71103226914818, 17.246 182.82569893581484 C 17.241999999999997 182.9403656024815, 17.240666666666666 183.05103226914815, 17.241999999999997 183.15769893581484 C 17.243333333333332 183.26436560248152, 17.246666666666666 183.3443656024815, 17.252 183.39769893581484 C 17.262666666666668 183.51769893581485, 17.297333333333334 183.61569893581486, 17.355999999999998 183.69169893581486 C 17.414666666666665 183.76769893581485, 17.497333333333334 183.82169893581482, 17.604 183.85369893581483 L 17.604 184.74569893581486 C 17.110666666666663 184.70836560248154, 16.75333333333333 184.57369893581483, 16.532 184.34169893581483 C 16.310666666666666 184.10969893581483, 16.19333333333333 183.74969893581485, 16.18 183.26169893581485 Z M 16.279999999999998 181.92569893581484 L 16.279999999999998 178.27769893581484 L 17.348 178.27769893581484 L 17.348 181.92569893581484 Z M 17.852 181.50169893581486 L 17.852 180.74569893581486 C 17.929333333333332 180.70569893581487, 18.014666666666667 180.67369893581485, 18.107999999999997 180.64969893581485 C 18.20133333333333 180.62569893581485, 18.301333333333332 180.61369893581485, 18.407999999999998 180.61369893581485 C 18.773333333333333 180.61369893581485, 19.047333333333334 180.7290322691482, 19.23 180.95969893581486 C 19.412666666666667 181.1903656024815, 19.514666666666663 181.50436560248153, 19.535999999999998 181.90169893581484 C 19.546666666666667 182.06169893581483, 19.55333333333333 182.2203656024815, 19.555999999999997 182.37769893581483 C 19.558666666666664 182.5350322691482, 19.557333333333332 182.68836560248153, 19.552 182.83769893581484 C 19.546666666666667 182.98703226914816, 19.538666666666668 183.12703226914817, 19.528 183.25769893581486 C 19.482666666666667 183.7563656024815, 19.353333333333335 184.12169893581483, 19.14 184.35369893581483 C 18.926666666666666 184.58569893581483, 18.581333333333333 184.71636560248152, 18.104 184.74569893581486 L 18.104 183.85369893581483 C 18.21333333333333 183.82436560248152, 18.296 183.77169893581484, 18.352 183.69569893581485 C 18.408 183.61969893581485, 18.44 183.52036560248152, 18.448 183.39769893581484 C 18.471999999999998 183.10703226914816, 18.485999999999997 182.84569893581482, 18.49 182.61369893581485 C 18.494 182.38169893581482, 18.485333333333333 182.1603656024815, 18.464 181.94969893581484 C 18.447999999999997 181.79503226914818, 18.396666666666665 181.67969893581483, 18.31 181.60369893581483 C 18.223333333333333 181.52769893581484, 18.090666666666664 181.48969893581486, 17.912 181.48969893581486 C 17.901333333333334 181.48969893581486, 17.890666666666668 181.4910322691482, 17.88 181.49369893581485 C 17.86933333333333 181.4963656024815, 17.86 181.4990322691482, 17.852 181.50169893581486 Z M 17.852 179.20969893581486 L 17.852 178.27769893581484 L 19.439999999999998 178.27769893581484 L 19.439999999999998 179.20969893581486 Z M 21.944 184.67769893581485 L 21.944 178.27769893581484 L 23.003999999999998 178.27769893581484 L 23.003999999999998 184.67769893581485 Z " stroke="none" fill-rule="nonzero" fill="#000000" fill-opacity="1" transform="matrix(1,0,0,1,5.05,13.314)" id="text5 l" />
  <path d="M 0 173.3257190067605 L 10 173.3257190067605 L 10 174.8257190067605 L 0 174.8257190067605 Z " stroke="none" fill-rule="evenodd" fill="#000000" fill-opacity="1" transform="matrix(1,0,0,1,5.05,13.314)" id="mark6 l" />
  <path d="M 0 160.89173907770618 L 10 160.89173907770618 L 10 162.39173907770618 L 0 162.39173907770618 Z " stroke="none" fill-rule="evenodd" fill="#000000" fill-opacity="1" transform="matrix(1,0,0,1,5.05,13.314)" id="mark7 l" />
  <path d="M 0 148.45775914865186 L 10 148.45775914865186 L 10 149.95775914865186 L 0 149.95775914865186 Z " stroke="none" fill-rule="evenodd" fill="#000000" fill-opacity="1" transform="matrix(1,0,0,1,5.05,13.314)" id="mark8 l" />
  <path d="M 0 136.02377921959754 L 10 136.02377921959754 L 10 137.52377921959754 L 0 137.52377921959754 Z " stroke="none" fill-rule="evenodd" fill="#000000" fill-opacity="1" transform="matrix(1,0,0,1,5.05,13.314)" id="mark9 l" />
  <path d="M 0 123.58979929054323 L 25 123.58979929054323 L 25 125.08979929054323 L 0 125.08979929054323 Z " stroke="none" fill-rule="evenodd" fill="#000000" fill-opacity="1" transform="matrix(1,0,0,1,5.05,13.314)" id="mark10 l" />
  <path d="M 14.323999999999998 122.53979929054323 L 14.323999999999998 117.09579929054323 L 13.871999999999998 117.09579929054323 L 13.839999999999998 116.71579929054323 L 14.543999999999999 116.13979929054322 L 15.424 116.13979929054322 L 15.424 122.53979929054323 Z M 16.196 121.12779929054322 C 16.188000000000002 120.69846595720989, 16.182666666666666 120.28179929054323, 16.18 119.87779929054322 C 16.177333333333333 119.47379929054323, 16.177999999999997 119.07846595720989, 16.182 118.69179929054323 C 16.186 118.30513262387657, 16.190666666666665 117.92379929054323, 16.196 117.54779929054322 C 16.209333333333333 117.10779929054323, 16.334000000000003 116.7624659572099, 16.57 116.51179929054322 C 16.805999999999997 116.26113262387656, 17.142666666666663 116.11579929054324, 17.58 116.07579929054323 L 17.58 116.96379929054324 C 17.382666666666665 117.01979929054323, 17.281333333333333 117.14913262387655, 17.276 117.35179929054323 C 17.262666666666668 117.72246595720989, 17.253333333333334 118.07046595720989, 17.248 118.39579929054322 C 17.242666666666665 118.72113262387656, 17.24 119.03779929054323, 17.24 119.34579929054323 C 17.24 119.65379929054322, 17.242666666666665 119.9684659572099, 17.248 120.28979929054323 C 17.253333333333334 120.61113262387656, 17.262666666666668 120.95446595720989, 17.276 121.31979929054323 C 17.281333333333333 121.52779929054324, 17.382666666666665 121.65979929054323, 17.58 121.71579929054323 L 17.58 122.60379929054322 C 17.142666666666663 122.56379929054324, 16.805999999999997 122.41779929054323, 16.57 122.16579929054323 C 16.334000000000003 121.91379929054324, 16.209333333333333 121.56779929054323, 16.196 121.12779929054322 Z M 18.084 122.60379929054322 L 18.084 121.71179929054323 C 18.268 121.6584659572099, 18.366666666666667 121.5344659572099, 18.38 121.33979929054323 C 18.398666666666667 120.87313262387656, 18.410666666666668 120.42446595720989, 18.416 119.99379929054322 C 18.421333333333333 119.56313262387656, 18.421333333333333 119.1324659572099, 18.416 118.70179929054324 C 18.410666666666668 118.27113262387657, 18.398666666666667 117.8184659572099, 18.38 117.34379929054323 C 18.374666666666666 117.14913262387657, 18.276 117.0224659572099, 18.084 116.96379929054324 L 18.084 116.07579929054323 C 18.513333333333335 116.11579929054324, 18.846666666666668 116.26113262387656, 19.084 116.51179929054322 C 19.321333333333335 116.7624659572099, 19.445333333333334 117.10779929054323, 19.456 117.54779929054322 C 19.46666666666667 117.8624659572099, 19.474666666666668 118.17246595720991, 19.48 118.47779929054323 C 19.485333333333333 118.78313262387655, 19.488 119.08379929054323, 19.488 119.37979929054323 C 19.488 119.67579929054324, 19.485333333333333 119.96913262387656, 19.48 120.25979929054323 C 19.474666666666668 120.5504659572099, 19.46666666666667 120.83979929054323, 19.456 121.12779929054322 C 19.439999999999998 121.57846595720989, 19.311999999999998 121.92713262387656, 19.072 122.17379929054323 C 18.832 122.4204659572099, 18.502666666666666 122.56379929054324, 18.084 122.60379929054322 Z M 21.944 122.53979929054323 L 21.944 116.13979929054322 L 23.003999999999998 116.13979929054322 L 23.003999999999998 122.53979929054323 Z " stroke="none" fill-rule="nonzero" fill="#000000" fill-opacity="1" transform="matrix(1,0,0,1,5.05,13.314)" id="text10 l" />
  <path d="M 0 111.15581936148891 L 10 111.15581936148891 L 10 112.65581936148891 L 0 112.65581936148891 Z " stroke="none" fill-rule="evenodd" fill="#000000" fill-opacity="1" transform="matrix(1,0,0,1,5.05,13.314)" id="mark11 l" />
  <path d="M 0 98.72183943243456 L 10 98.72183943243456 L 10 100.22183943243456 L 0 100.22183943243456 Z " stroke="none" fill-rule="evenodd" fill="#000000" fill-opacity="1" transform="matrix(1,0,0,1,5.05,13.314)" id="mark12 l" />
  <path d="M 0 86.28785950338025 L 10 86.28785950338025 L 10 87.78785950338025 L 0 87.78785950338025 Z " stroke="none" fill-rule="evenodd" fill="#000000" fill-opacity="1" transform="matrix(1,0,0,1,5.05,13.314)" id="mark13 l" />
  <path d="M 0 73.85387957432593 L 10 73.85387957432593 L 10 75.35387957432593 L 0 75.35387957432593 Z " stroke="none" fill-rule="evenodd" fill="#000000" fill-opacity="1" transform="matrix(1,0,0,1,5.05,13.314)" id="mark14 l" />
  <path d="M 0 61.41989964527161 L 25 61.41989964527161 L 25 62.91989964527161 L 0 62.91989964527161 Z " stroke="none" fill-rule="evenodd" fill="#000000" fill-opacity="1" transform="matrix(1,0,0,1,5.05,13.314)" id="mark15 l" />
  <path d="M 14.331999999999999 60.33789964527161 L 14.331999999999999 54.89389964527161 L 13.879999999999999 54.89389964527161 L 13.847999999999999 54.513899645271614 L 14.552 53.937899645271614 L 15.432 53.937899645271614 L 15.432 60.33789964527161 Z M 16.18 58.921899645271615 C 16.174666666666667 58.748566311938276, 16.173333333333332 58.609232978604936, 16.176 58.50389964527161 C 16.178666666666665 58.39856631193828, 16.181333333333335 58.29656631193828, 16.183999999999997 58.19789964527161 L 17.264 58.19789964527161 C 17.256 58.27523297860495, 17.25 58.371232978604944, 17.246 58.485899645271616 C 17.241999999999997 58.60056631193828, 17.240666666666666 58.71123297860494, 17.241999999999997 58.81789964527161 C 17.243333333333332 58.92456631193828, 17.246666666666666 59.00456631193828, 17.252 59.05789964527161 C 17.262666666666668 59.17789964527161, 17.297333333333334 59.27589964527161, 17.355999999999998 59.351899645271615 C 17.414666666666665 59.42789964527161, 17.497333333333334 59.48189964527161, 17.604 59.513899645271614 L 17.604 60.40589964527161 C 17.110666666666663 60.36856631193828, 16.75333333333333 60.23389964527161, 16.532 60.001899645271614 C 16.310666666666666 59.769899645271614, 16.19333333333333 59.409899645271615, 16.18 58.921899645271615 Z M 16.279999999999998 57.58589964527161 L 16.279999999999998 53.937899645271614 L 17.348 53.937899645271614 L 17.348 57.58589964527161 Z M 17.852 57.16189964527161 L 17.852 56.40589964527161 C 17.929333333333332 56.36589964527161, 18.014666666666667 56.333899645271615, 18.107999999999997 56.309899645271614 C 18.20133333333333 56.28589964527161, 18.301333333333332 56.27389964527161, 18.407999999999998 56.27389964527161 C 18.773333333333333 56.27389964527161, 19.047333333333334 56.389232978604944, 19.23 56.619899645271616 C 19.412666666666667 56.85056631193828, 19.514666666666663 57.16456631193827, 19.535999999999998 57.56189964527161 C 19.546666666666667 57.721899645271606, 19.55333333333333 57.88056631193828, 19.555999999999997 58.037899645271615 C 19.558666666666664 58.19523297860495, 19.557333333333332 58.34856631193828, 19.552 58.49789964527161 C 19.546666666666667 58.64723297860495, 19.538666666666668 58.78723297860495, 19.528 58.91789964527161 C 19.482666666666667 59.41656631193828, 19.353333333333335 59.78189964527162, 19.14 60.013899645271614 C 18.926666666666666 60.24589964527162, 18.581333333333333 60.37656631193828, 18.104 60.40589964527161 L 18.104 59.513899645271614 C 18.21333333333333 59.48456631193828, 18.296 59.43189964527161, 18.352 59.35589964527161 C 18.408 59.27989964527161, 18.44 59.18056631193828, 18.448 59.05789964527161 C 18.471999999999998 58.767232978604945, 18.485999999999997 58.50589964527161, 18.49 58.27389964527161 C 18.494 58.04189964527161, 18.485333333333333 57.82056631193828, 18.464 57.60989964527161 C 18.447999999999997 57.45523297860495, 18.396666666666665 57.339899645271615, 18.31 57.263899645271614 C 18.223333333333333 57.187899645271614, 18.090666666666664 57.14989964527162, 17.912 57.14989964527161 C 17.901333333333334 57.14989964527162, 17.890666666666668 57.15123297860495, 17.88 57.153899645271615 C 17.86933333333333 57.15656631193828, 17.86 57.15923297860495, 17.852 57.16189964527161 Z M 17.852 54.869899645271616 L 17.852 53.937899645271614 L 19.439999999999998 53.937899645271614 L 19.439999999999998 54.869899645271616 Z M 21.944 60.33789964527161 L 21.944 53.937899645271614 L 23.003999999999998 53.937899645271614 L 23.003999999999998 60.33789964527161 Z " stroke="none" fill-rule="nonzero" fill="#000000" fill-opacity="1" transform="matrix(1,0,0,1,5.05,13.314)" id="text15 l" />
  <path d="M 0 48.985919716217296 L 10 48.985919716217296 L 10 50.485919716217296 L 0 50.485919716217296 Z " stroke="none" fill-rule="evenodd" fill="#000000" fill-opacity="1" transform="matrix(1,0,0,1,5.05,13.314)" id="mark16 l" />
  <path d="M 0 36.55193978716295 L 10 36.55193978716295 L 10 38.05193978716295 L 0 38.05193978716295 Z " stroke="none" fill-rule="evenodd" fill="#000000" fill-opacity="1" transform="matrix(1,0,0,1,5.05,13.314)" id="mark17 l" />
  <path d="M 0 24.117959858108634 L 10 24.117959858108634 L 10 25.617959858108634 L 0 25.617959858108634 Z " stroke="none" fill-rule="evenodd" fill="#000000" fill-opacity="1" transform="matrix(1,0,0,1,5.05,13.314)" id="mark18 l" />
  <path d="M 0 11.683979929054317 L 10 11.683979929054317 L 10 13.183979929054317 L 0 13.183979929054317 Z " stroke="none" fill-rule="evenodd" fill="#000000" fill-opacity="1" transform="matrix(1,0,0,1,5.05,13.314)" id="mark19 l" />
  <path d="M 0 -0.75 L 25 -0.75 L 25 0.75 L 0 0.75 Z " stroke="none" fill-rule="evenodd" fill="#000000" fill-opacity="1" transform="matrix(1,0,0,1,5.05,13.314)" id="mark20 l" />
  <path d="M 12.319999999999999 -1.7999999999999998 C 12.317333333333334 -1.8986666666666663, 12.315333333333331 -1.987333333333333, 12.313999999999998 -2.066 C 12.312666666666665 -2.1446666666666663, 12.311333333333334 -2.2186666666666666, 12.309999999999999 -2.288 C 12.308666666666667 -2.357333333333333, 12.308 -2.429333333333333, 12.308 -2.5039999999999996 C 12.308 -2.5786666666666664, 12.308 -2.663333333333333, 12.308 -2.758 C 12.308 -2.852666666666667, 12.309333333333335 -2.964, 12.312 -3.0919999999999996 C 12.32 -3.3853333333333335, 12.37 -3.647333333333333, 12.462 -3.8779999999999997 C 12.554 -4.108666666666667, 12.687999999999999 -4.314666666666667, 12.863999999999999 -4.4959999999999996 C 13.04 -4.677333333333333, 13.257333333333333 -4.838666666666667, 13.515999999999998 -4.98 L 14.047999999999998 -5.268 C 14.234666666666666 -5.3693333333333335, 14.354 -5.491333333333333, 14.405999999999999 -5.634 C 14.457999999999998 -5.776666666666667, 14.488 -5.910666666666667, 14.495999999999999 -6.036 C 14.506666666666664 -6.182666666666666, 14.512666666666664 -6.339333333333333, 14.514 -6.506 C 14.51533333333333 -6.672666666666667, 14.511999999999997 -6.829333333333334, 14.504 -6.976 C 14.498666666666665 -7.08, 14.468666666666666 -7.165999999999999, 14.413999999999998 -7.233999999999999 C 14.359333333333332 -7.302, 14.279999999999998 -7.350666666666666, 14.175999999999998 -7.38 L 14.175999999999998 -8.268 C 14.663999999999998 -8.236, 15.014 -8.104666666666667, 15.225999999999999 -7.874 C 15.437999999999999 -7.643333333333333, 15.554666666666666 -7.282666666666666, 15.575999999999999 -6.792 C 15.578666666666663 -6.728, 15.580666666666666 -6.6626666666666665, 15.581999999999999 -6.595999999999999 C 15.583333333333332 -6.529333333333334, 15.584 -6.464666666666666, 15.584 -6.402 C 15.584 -6.339333333333332, 15.583333333333332 -6.277333333333333, 15.581999999999999 -6.216 C 15.580666666666666 -6.1546666666666665, 15.578666666666663 -6.094666666666667, 15.575999999999999 -6.036 C 15.565333333333331 -5.750666666666667, 15.512 -5.504, 15.415999999999999 -5.295999999999999 C 15.32 -5.088, 15.19 -4.908, 15.026 -4.756 C 14.862 -4.604, 14.672 -4.468, 14.456 -4.348 L 13.851999999999999 -4.02 C 13.737333333333332 -3.9586666666666663, 13.647333333333332 -3.8746666666666663, 13.581999999999999 -3.768 C 13.516666666666666 -3.6613333333333333, 13.469999999999999 -3.548, 13.441999999999998 -3.428 C 13.413999999999998 -3.308, 13.399999999999999 -3.1959999999999997, 13.399999999999999 -3.0919999999999996 L 13.399999999999999 -1.7999999999999998 Z M 12.328 -5.84 C 12.322666666666667 -5.957333333333333, 12.318666666666665 -6.071999999999999, 12.315999999999999 -6.184 C 12.313333333333333 -6.295999999999999, 12.311333333333334 -6.401999999999999, 12.309999999999999 -6.502 C 12.308666666666667 -6.602, 12.309333333333335 -6.698666666666666, 12.312 -6.792 C 12.330666666666666 -7.279999999999999, 12.447333333333333 -7.639333333333333, 12.661999999999999 -7.87 C 12.876666666666665 -8.100666666666667, 13.213333333333331 -8.233333333333334, 13.671999999999999 -8.268 L 13.671999999999999 -7.3759999999999994 C 13.576 -7.346666666666666, 13.505333333333333 -7.3, 13.459999999999999 -7.236 C 13.414666666666665 -7.172, 13.390666666666664 -7.094666666666667, 13.387999999999998 -7.004 C 13.382666666666665 -6.795999999999999, 13.379333333333333 -6.602666666666666, 13.378 -6.424 C 13.376666666666667 -6.245333333333333, 13.381333333333334 -6.050666666666666, 13.392 -5.84 Z M 13.904 -1.7999999999999998 L 13.904 -2.7319999999999998 L 15.5 -2.7319999999999998 L 15.5 -1.7999999999999998 Z M 16.196 -3.2119999999999997 C 16.188000000000002 -3.641333333333333, 16.182666666666666 -4.058, 16.18 -4.462 C 16.177333333333333 -4.866, 16.177999999999997 -5.261333333333333, 16.182 -5.648 C 16.186 -6.034666666666666, 16.190666666666665 -6.416, 16.196 -6.792 C 16.209333333333333 -7.231999999999999, 16.334000000000003 -7.577333333333334, 16.57 -7.828 C 16.805999999999997 -8.078666666666667, 17.142666666666663 -8.224, 17.58 -8.264 L 17.58 -7.3759999999999994 C 17.382666666666665 -7.32, 17.281333333333333 -7.190666666666667, 17.276 -6.9879999999999995 C 17.262666666666668 -6.617333333333333, 17.253333333333334 -6.269333333333333, 17.248 -5.944 C 17.242666666666665 -5.618666666666666, 17.24 -5.302, 17.24 -4.994 C 17.24 -4.686, 17.242666666666665 -4.371333333333333, 17.248 -4.05 C 17.253333333333334 -3.7286666666666664, 17.262666666666668 -3.3853333333333326, 17.276 -3.0199999999999996 C 17.281333333333333 -2.812, 17.382666666666665 -2.6799999999999997, 17.58 -2.6239999999999997 L 17.58 -1.7359999999999998 C 17.142666666666663 -1.7759999999999998, 16.805999999999997 -1.9219999999999997, 16.57 -2.174 C 16.334000000000003 -2.4259999999999997, 16.209333333333333 -2.772, 16.196 -3.2119999999999997 Z M 18.084 -1.7359999999999998 L 18.084 -2.6279999999999997 C 18.268 -2.681333333333333, 18.366666666666667 -2.8053333333333335, 18.38 -3 C 18.398666666666667 -3.4666666666666663, 18.410666666666668 -3.915333333333333, 18.416 -4.346 C 18.421333333333333 -4.776666666666666, 18.421333333333333 -5.207333333333333, 18.416 -5.638 C 18.410666666666668 -6.068666666666666, 18.398666666666667 -6.521333333333333, 18.38 -6.9959999999999996 C 18.374666666666666 -7.190666666666667, 18.276 -7.317333333333334, 18.084 -7.3759999999999994 L 18.084 -8.264 C 18.513333333333335 -8.224, 18.846666666666668 -8.078666666666667, 19.084 -7.828 C 19.321333333333335 -7.577333333333334, 19.445333333333334 -7.231999999999999, 19.456 -6.792 C 19.46666666666667 -6.477333333333332, 19.474666666666668 -6.167333333333333, 19.48 -5.861999999999999 C 19.485333333333333 -5.556666666666667, 19.488 -5.256, 19.488 -4.96 C 19.488 -4.664, 19.485333333333333 -4.370666666666667, 19.48 -4.08 C 19.474666666666668 -3.7893333333333334, 19.46666666666667 -3.5, 19.456 -3.2119999999999997 C 19.439999999999998 -2.761333333333333, 19.311999999999998 -2.4126666666666665, 19.072 -2.166 C 18.832 -1.9193333333333331, 18.502666666666666 -1.7759999999999998, 18.084 -1.7359999999999998 Z M 21.944 -1.7999999999999998 L 21.944 -8.2 L 23.003999999999998 -8.2 L 23.003999999999998 -1.7999999999999998 Z " stroke="none" fill-rule="nonzero" fill="#000000" fill-opacity="1" transform="matrix(1,0,0,1,5.05,13.314)" id="text20 l" />
  <path d="M -5 -13.264 L 30 -13.264 L 30 243.01361865203216 L -5 243.01361865203216 Z " stroke="#FF0000" stroke-opacity="1" stroke-width="0.1" stroke-linecap="butt" stroke-linejoin="miter" fill="none" transform="matrix(1,0,0,1,5.05,13.314)" />
</svg>