<?xml version="1.0" encoding="UTF-8"?>
<svg xmlns:xlink="http://www.w3.org/1999/xlink" viewBox="0 0 35.1 269.5830128460727" version="1.1" style="font-synthesis: none;" width="35.1mm" height="269.5830128460727mm" xmlns="http://www.w3.org/2000/svg">
  <defs />
  <style>	</style>
  <path d="M 0 0 L 35.1 0 L 35.1 269.5830128460727 L 0 269.5830128460727 Z " stroke="none" fill-rule="nonzero" fill="#FFFFFF" fill-opacity="1" transform="matrix(1,0,0,1,0,0)" />
  <path d="M 0 248.7010128460727 L 10 248.7010128460727 L 10 250.2010128460727 L 0 250.2010128460727 Z " stroke="none" fill-rule="evenodd" fill="#000000" fill-opacity="1" transform="matrix(1,0,0,1,5.05,13.314)" id="mark1 l" />
  <path d="M 0 238.307220644153 L 10 238.307220644153 L 10 239.807220644153 L 0 239.807220644153 Z " stroke="none" fill-rule="evenodd" fill="#000000" fill-opacity="1" transform="matrix(1,0,0,1,5.05,13.314)" id="mark2 l" />
  <path d="M 0 227.9134284422333 L 10 227.9134284422333 L 10 229.4134284422333 L 0 229.4134284422333 Z " stroke="none" fill-rule="evenodd" fill="#000000" fill-opacity="1" transform="matrix(1,0,0,1,5.05,13.314)" id="mark3 l" />
  <path d="M 0 217.51963624031362 L 10 217.51963624031362 L 10 219.01963624031362 L 0 219.01963624031362 Z " stroke="none" fill-rule="evenodd" fill="#000000" fill-opacity="1" transform="matrix(1,0,0,1,5.05,13.314)" id="mark4 l" />
  <path d="M 0 207.12584403839392 L 25 207.12584403839392 L 25 208.62584403839392 L 0 208.62584403839392 Z " stroke="none" fill-rule="evenodd" fill="#000000" fill-opacity="1" transform="matrix(1,0,0,1,5.05,13.314)" id="mark5 l" />
  <path d="M 16.18 204.62784403839393 C 16.174666666666667 204.4545107050606, 16.173333333333332 204.31517737172726, 16.176 204.20984403839392 C 16.178666666666665 204.1045107050606, 16.181333333333335 204.00251070506062, 16.183999999999997 203.90384403839394 L 17.264 203.90384403839394 C 17.256 203.98117737172726, 17.25 204.07717737172726, 17.246 204.19184403839392 C 17.241999999999997 204.3065107050606, 17.240666666666666 204.41717737172726, 17.241999999999997 204.52384403839392 C 17.243333333333332 204.63051070506057, 17.246666666666666 204.71051070506059, 17.252 204.76384403839393 C 17.262666666666668 204.88384403839393, 17.297333333333334 204.98184403839394, 17.355999999999998 205.05784403839394 C 17.414666666666665 205.13384403839393, 17.497333333333334 205.1878440383939, 17.604 205.21984403839392 L 17.604 206.11184403839394 C 17.110666666666663 206.0745107050606, 16.75333333333333 205.93984403839391, 16.532 205.70784403839392 C 16.310666666666666 205.47584403839392, 16.19333333333333 205.1158440383939, 16.18 204.62784403839393 Z M 16.279999999999998 203.29184403839392 L 16.279999999999998 199.64384403839392 L 17.348 199.64384403839392 L 17.348 203.29184403839392 Z M 17.852 202.86784403839394 L 17.852 202.11184403839394 C 17.929333333333332 202.07184403839392, 18.014666666666667 202.03984403839394, 18.107999999999997 202.01584403839394 C 18.20133333333333 201.99184403839394, 18.301333333333332 201.97984403839394, 18.407999999999998 201.97984403839394 C 18.773333333333333 201.97984403839394, 19.047333333333334 202.09517737172726, 19.23 202.32584403839394 C 19.412666666666667 202.55651070506062, 19.514666666666663 202.8705107050606, 19.535999999999998 203.26784403839392 C 19.546666666666667 203.4278440383939, 19.55333333333333 203.58651070506056, 19.555999999999997 203.74384403839392 C 19.558666666666664 203.90117737172727, 19.557333333333332 204.05451070506058, 19.552 204.20384403839392 C 19.546666666666667 204.35317737172727, 19.538666666666668 204.49317737172726, 19.528 204.62384403839394 C 19.482666666666667 205.12251070506062, 19.353333333333335 205.48784403839392, 19.14 205.71984403839392 C 18.926666666666666 205.95184403839392, 18.581333333333333 206.0825107050606, 18.104 206.11184403839394 L 18.104 205.21984403839392 C 18.21333333333333 205.1905107050606, 18.296 205.13784403839395, 18.352 205.06184403839393 C 18.408 204.9858440383939, 18.44 204.88651070506057, 18.448 204.76384403839393 C 18.471999999999998 204.47317737172727, 18.485999999999997 204.21184403839393, 18.49 203.97984403839394 C 18.494 203.74784403839394, 18.485333333333333 203.52651070506062, 18.464 203.31584403839392 C 18.447999999999997 203.16117737172726, 18.396666666666665 203.0458440383939, 18.31 202.96984403839392 C 18.223333333333333 202.89384403839392, 18.090666666666664 202.8558440383939, 17.912 202.85584403839394 C 17.901333333333334 202.8558440383939, 17.890666666666668 202.85717737172726, 17.88 202.85984403839393 C 17.86933333333333 202.8625107050606, 17.86 202.86517737172727, 17.852 202.86784403839394 Z M 17.852 200.57584403839394 L 17.852 199.64384403839392 L 19.439999999999998 199.64384403839392 L 19.439999999999998 200.57584403839394 Z M 21.944 206.04384403839393 L 21.944 199.64384403839392 L 23.003999999999998 199.64384403839392 L 23.003999999999998 206.04384403839393 Z " stroke="none" fill-rule="nonzero" fill="#000000" fill-opacity="1" transform="matrix(1,0,0,1,5.05,13.314)" id="text5 l" />
  <path d="M 0 196.73205183647423 L 10 196.73205183647423 L 10 198.23205183647423 L 0 198.23205183647423 Z " stroke="none" fill-rule="evenodd" fill="#000000" fill-opacity="1" transform="matrix(1,0,0,1,5.05,13.314)" id="mark6 l" />
  <path d="M 0 186.3382596345545 L 10 186.3382596345545 L 10 187.8382596345545 L 0 187.8382596345545 Z " stroke="none" fill-rule="evenodd" fill="#000000" fill-opacity="1" transform="matrix(1,0,0,1,5.05,13.314)" id="mark7 l" />
  <path d="M 0 175.94446743263484 L 10 175.94446743263484 L 10 177.44446743263484 L 0 177.44446743263484 Z " stroke="none" fill-rule="evenodd" fill="#000000" fill-opacity="1" transform="matrix(1,0,0,1,5.05,13.314)" id="mark8 l" />
  <path d="M 0 165.55067523071511 L 10 165.55067523071511 L 10 167.05067523071511 L 0 167.05067523071511 Z " stroke="none" fill-rule="evenodd" fill="#000000" fill-opacity="1" transform="matrix(1,0,0,1,5.05,13.314)" id="mark9 l" />
  <path d="M 0 155.15688302879545 L 25 155.15688302879545 L 25 156.65688302879545 L 0 156.65688302879545 Z " stroke="none" fill-rule="evenodd" fill="#000000" fill-opacity="1" transform="matrix(1,0,0,1,5.05,13.314)" id="mark10 l" />
  <path d="M 14.323999999999998 154.10688302879547 L 14.323999999999998 148.66288302879548 L 13.871999999999998 148.66288302879548 L 13.839999999999998 148.28288302879545 L 14.543999999999999 147.70688302879546 L 15.424 147.70688302879546 L 15.424 154.10688302879547 Z M 16.196 152.69488302879546 C 16.188000000000002 152.26554969546214, 16.182666666666666 151.84888302879546, 16.18 151.44488302879546 C 16.177333333333333 151.04088302879546, 16.177999999999997 150.64554969546214, 16.182 150.25888302879545 C 16.186 149.8722163621288, 16.190666666666665 149.49088302879545, 16.196 149.11488302879548 C 16.209333333333333 148.67488302879548, 16.334000000000003 148.32954969546213, 16.57 148.07888302879547 C 16.805999999999997 147.8282163621288, 17.142666666666663 147.68288302879546, 17.58 147.64288302879547 L 17.58 148.53088302879547 C 17.382666666666665 148.58688302879548, 17.281333333333333 148.71621636212882, 17.276 148.91888302879548 C 17.262666666666668 149.28954969546214, 17.253333333333334 149.63754969546213, 17.248 149.96288302879546 C 17.242666666666665 150.2882163621288, 17.24 150.60488302879548, 17.24 150.91288302879548 C 17.24 151.22088302879547, 17.242666666666665 151.53554969546212, 17.248 151.85688302879547 C 17.253333333333334 152.1782163621288, 17.262666666666668 152.52154969546214, 17.276 152.88688302879547 C 17.281333333333333 153.09488302879546, 17.382666666666665 153.22688302879547, 17.58 153.28288302879545 L 17.58 154.17088302879546 C 17.142666666666663 154.13088302879547, 16.805999999999997 153.98488302879548, 16.57 153.73288302879547 C 16.334000000000003 153.48088302879546, 16.209333333333333 153.13488302879546, 16.196 152.69488302879546 Z M 18.084 154.17088302879546 L 18.084 153.27888302879546 C 18.268 153.22554969546215, 18.366666666666667 153.10154969546215, 18.38 152.90688302879548 C 18.398666666666667 152.4402163621288, 18.410666666666668 151.99154969546214, 18.416 151.56088302879547 C 18.421333333333333 151.1302163621288, 18.421333333333333 150.69954969546214, 18.416 150.26888302879547 C 18.410666666666668 149.8382163621288, 18.398666666666667 149.38554969546212, 18.38 148.91088302879547 C 18.374666666666666 148.7162163621288, 18.276 148.58954969546213, 18.084 148.53088302879547 L 18.084 147.64288302879547 C 18.513333333333335 147.68288302879546, 18.846666666666668 147.8282163621288, 19.084 148.07888302879547 C 19.321333333333335 148.32954969546213, 19.445333333333334 148.67488302879548, 19.456 149.11488302879548 C 19.46666666666667 149.42954969546213, 19.474666666666668 149.73954969546213, 19.48 150.04488302879545 C 19.485333333333333 150.35021636212878, 19.488 150.65088302879545, 19.488 150.94688302879547 C 19.488 151.24288302879546, 19.485333333333333 151.5362163621288, 19.48 151.82688302879546 C 19.474666666666668 152.11754969546212, 19.46666666666667 152.40688302879545, 19.456 152.69488302879546 C 19.439999999999998 153.14554969546214, 19.311999999999998 153.4942163621288, 19.072 153.74088302879545 C 18.832 153.98754969546212, 18.502666666666666 154.13088302879547, 18.084 154.17088302879546 Z M 21.944 154.10688302879547 L 21.944 147.70688302879546 L 23.003999999999998 147.70688302879546 L 23.003999999999998 154.10688302879547 Z " stroke="none" fill-rule="nonzero" fill="#000000" fill-opacity="1" transform="matrix(1,0,0,1,5.05,13.314)" id="text10 l" />
  <path d="M 0 144.76309082687573 L 10 144.76309082687573 L 10 146.26309082687573 L 0 146.26309082687573 Z " stroke="none" fill-rule="evenodd" fill="#000000" fill-opacity="1" transform="matrix(1,0,0,1,5.05,13.314)" id="mark11 l" />
  <path d="M 0 134.36929862495606 L 10 134.36929862495606 L 10 135.86929862495606 L 0 135.86929862495606 Z " stroke="none" fill-rule="evenodd" fill="#000000" fill-opacity="1" transform="matrix(1,0,0,1,5.05,13.314)" id="mark12 l" />
  <path d="M 0 123.97550642303634 L 10 123.97550642303634 L 10 125.47550642303634 L 0 125.47550642303634 Z " stroke="none" fill-rule="evenodd" fill="#000000" fill-opacity="1" transform="matrix(1,0,0,1,5.05,13.314)" id="mark13 l" />
  <path d="M 0 113.58171422111664 L 10 113.58171422111664 L 10 115.08171422111664 L 0 115.08171422111664 Z " stroke="none" fill-rule="evenodd" fill="#000000" fill-opacity="1" transform="matrix(1,0,0,1,5.05,13.314)" id="mark14 l" />
  <path d="M 0 103.18792201919695 L 25 103.18792201919695 L 25 104.68792201919695 L 0 104.68792201919695 Z " stroke="none" fill-rule="evenodd" fill="#000000" fill-opacity="1" transform="matrix(1,0,0,1,5.05,13.314)" id="mark15 l" />
  <path d="M 14.331999999999999 102.10592201919695 L 14.331999999999999 96.66192201919695 L 13.879999999999999 96.66192201919695 L 13.847999999999999 96.28192201919695 L 14.552 95.70592201919695 L 15.432 95.70592201919695 L 15.432 102.10592201919695 Z M 16.18 100.68992201919696 C 16.174666666666667 100.51658868586362, 16.173333333333332 100.37725535253028, 16.176 100.27192201919695 C 16.178666666666665 100.16658868586362, 16.181333333333335 100.06458868586361, 16.183999999999997 99.96592201919695 L 17.264 99.96592201919695 C 17.256 100.04325535253028, 17.25 100.13925535253028, 17.246 100.25392201919695 C 17.241999999999997 100.36858868586361, 17.240666666666666 100.47925535253029, 17.241999999999997 100.58592201919696 C 17.243333333333332 100.69258868586363, 17.246666666666666 100.77258868586362, 17.252 100.82592201919695 C 17.262666666666668 100.94592201919696, 17.297333333333334 101.04392201919696, 17.355999999999998 101.11992201919695 C 17.414666666666665 101.19592201919696, 17.497333333333334 101.24992201919696, 17.604 101.28192201919695 L 17.604 102.17392201919695 C 17.110666666666663 102.13658868586361, 16.75333333333333 102.00192201919695, 16.532 101.76992201919695 C 16.310666666666666 101.53792201919696, 16.19333333333333 101.17792201919696, 16.18 100.68992201919696 Z M 16.279999999999998 99.35392201919696 L 16.279999999999998 95.70592201919695 L 17.348 95.70592201919695 L 17.348 99.35392201919696 Z M 17.852 98.92992201919695 L 17.852 98.17392201919695 C 17.929333333333332 98.13392201919694, 18.014666666666667 98.10192201919693, 18.107999999999997 98.07792201919695 C 18.20133333333333 98.05392201919696, 18.301333333333332 98.04192201919696, 18.407999999999998 98.04192201919696 C 18.773333333333333 98.04192201919696, 19.047333333333334 98.15725535253029, 19.23 98.38792201919695 C 19.412666666666667 98.61858868586361, 19.514666666666663 98.93258868586362, 19.535999999999998 99.32992201919696 C 19.546666666666667 99.48992201919695, 19.55333333333333 99.64858868586361, 19.555999999999997 99.80592201919696 C 19.558666666666664 99.9632553525303, 19.557333333333332 100.11658868586362, 19.552 100.26592201919695 C 19.546666666666667 100.41525535253028, 19.538666666666668 100.55525535253028, 19.528 100.68592201919695 C 19.482666666666667 101.18458868586362, 19.353333333333335 101.54992201919694, 19.14 101.78192201919695 C 18.926666666666666 102.01392201919694, 18.581333333333333 102.14458868586362, 18.104 102.17392201919695 L 18.104 101.28192201919695 C 18.21333333333333 101.25258868586363, 18.296 101.19992201919696, 18.352 101.12392201919695 C 18.408 101.04792201919695, 18.44 100.94858868586361, 18.448 100.82592201919695 C 18.471999999999998 100.53525535253029, 18.485999999999997 100.27392201919696, 18.49 100.04192201919696 C 18.494 99.80992201919696, 18.485333333333333 99.58858868586361, 18.464 99.37792201919696 C 18.447999999999997 99.22325535253029, 18.396666666666665 99.10792201919696, 18.31 99.03192201919695 C 18.223333333333333 98.95592201919695, 18.090666666666664 98.91792201919694, 17.912 98.91792201919695 C 17.901333333333334 98.91792201919694, 17.890666666666668 98.91925535253029, 17.88 98.92192201919696 C 17.86933333333333 98.92458868586363, 17.86 98.9272553525303, 17.852 98.92992201919695 Z M 17.852 96.63792201919695 L 17.852 95.70592201919695 L 19.439999999999998 95.70592201919695 L 19.439999999999998 96.63792201919695 Z M 21.944 102.10592201919695 L 21.944 95.70592201919695 L 23.003999999999998 95.70592201919695 L 23.003999999999998 102.10592201919695 Z " stroke="none" fill-rule="nonzero" fill="#000000" fill-opacity="1" transform="matrix(1,0,0,1,5.05,13.314)" id="text15 l" />
  <path d="M 0 92.79412981727725 L 10 92.79412981727725 L 10 94.29412981727725 L 0 94.29412981727725 Z " stroke="none" fill-rule="evenodd" fill="#000000" fill-opacity="1" transform="matrix(1,0,0,1,5.05,13.314)" id="mark16 l" />
  <path d="M 0 82.40033761535756 L 10 82.40033761535756 L 10 83.90033761535756 L 0 83.90033761535756 Z " stroke="none" fill-rule="evenodd" fill="#000000" fill-opacity="1" transform="matrix(1,0,0,1,5.05,13.314)" id="mark17 l" />
  <path d="M 0 72.00654541343786 L 10 72.00654541343786 L 10 73.50654541343786 L 0 73.50654541343786 Z " stroke="none" fill-rule="evenodd" fill="#000000" fill-opacity="1" transform="matrix(1,0,0,1,5.05,13.314)" id="mark18 l" />
  <path d="M 0 61.61275321151817 L 10 61.61275321151817 L 10 63.11275321151817 L 0 63.11275321151817 Z " stroke="none" fill-rule="evenodd" fill="#000000" fill-opacity="1" transform="matrix(1,0,0,1,5.05,13.314)" id="mark19 l" />
  <path d="M 0 51.21896100959847 L 25 51.21896100959847 L 25 52.71896100959847 L 0 52.71896100959847 Z " stroke="none" fill-rule="evenodd" fill="#000000" fill-opacity="1" transform="matrix(1,0,0,1,5.05,13.314)" id="mark20 l" />
  <path d="M 12.319999999999999 50.168961009598476 C 12.317333333333334 50.07029434293181, 12.315333333333331 49.98162767626515, 12.313999999999998 49.90296100959848 C 12.312666666666665 49.82429434293181, 12.311333333333334 49.75029434293181, 12.309999999999999 49.68096100959848 C 12.308666666666667 49.611627676265144, 12.308 49.53962767626514, 12.308 49.464961009598476 C 12.308 49.39029434293181, 12.308 49.30562767626514, 12.308 49.21096100959848 C 12.308 49.11629434293181, 12.309333333333335 49.004961009598475, 12.312 48.876961009598475 C 12.32 48.583627676265145, 12.37 48.321627676265145, 12.462 48.09096100959847 C 12.554 47.86029434293181, 12.687999999999999 47.65429434293181, 12.863999999999999 47.47296100959848 C 13.04 47.29162767626514, 13.257333333333333 47.130294342931805, 13.515999999999998 46.988961009598476 L 14.047999999999998 46.70096100959847 C 14.234666666666666 46.59962767626514, 14.354 46.47762767626514, 14.405999999999999 46.33496100959847 C 14.457999999999998 46.19229434293181, 14.488 46.05829434293181, 14.495999999999999 45.93296100959848 C 14.506666666666664 45.78629434293181, 14.512666666666664 45.62962767626514, 14.514 45.46296100959847 C 14.51533333333333 45.29629434293181, 14.511999999999997 45.13962767626514, 14.504 44.992961009598474 C 14.498666666666665 44.888961009598475, 14.468666666666666 44.80296100959848, 14.413999999999998 44.73496100959848 C 14.359333333333332 44.666961009598474, 14.279999999999998 44.618294342931804, 14.175999999999998 44.58896100959848 L 14.175999999999998 43.70096100959847 C 14.663999999999998 43.732961009598476, 15.014 43.86429434293181, 15.225999999999999 44.09496100959848 C 15.437999999999999 44.32562767626514, 15.554666666666666 44.68629434293181, 15.575999999999999 45.17696100959848 C 15.578666666666663 45.24096100959848, 15.580666666666666 45.30629434293181, 15.581999999999999 45.37296100959848 C 15.583333333333332 45.43962767626515, 15.584 45.50429434293181, 15.584 45.56696100959847 C 15.584 45.62962767626514, 15.583333333333332 45.69162767626514, 15.581999999999999 45.75296100959848 C 15.580666666666666 45.81429434293181, 15.578666666666663 45.87429434293181, 15.575999999999999 45.93296100959848 C 15.565333333333331 46.21829434293181, 15.512 46.464961009598476, 15.415999999999999 46.672961009598474 C 15.32 46.88096100959848, 15.19 47.06096100959848, 15.026 47.21296100959847 C 14.862 47.364961009598474, 14.672 47.50096100959847, 14.456 47.620961009598474 L 13.851999999999999 47.94896100959848 C 13.737333333333332 48.01029434293181, 13.647333333333332 48.0942943429318, 13.581999999999999 48.20096100959847 C 13.516666666666666 48.30762767626514, 13.469999999999999 48.42096100959847, 13.441999999999998 48.540961009598476 C 13.413999999999998 48.66096100959848, 13.399999999999999 48.772961009598475, 13.399999999999999 48.876961009598475 L 13.399999999999999 50.168961009598476 Z M 12.328 46.12896100959848 C 12.322666666666667 46.01162767626514, 12.318666666666665 45.89696100959848, 12.315999999999999 45.784961009598476 C 12.313333333333333 45.672961009598474, 12.311333333333334 45.56696100959848, 12.309999999999999 45.46696100959848 C 12.308666666666667 45.36696100959848, 12.309333333333335 45.270294342931805, 12.312 45.17696100959848 C 12.330666666666666 44.68896100959847, 12.447333333333333 44.32962767626514, 12.661999999999999 44.098961009598476 C 12.876666666666665 43.86829434293181, 13.213333333333331 43.735627676265146, 13.671999999999999 43.70096100959847 L 13.671999999999999 44.592961009598476 C 13.576 44.62229434293181, 13.505333333333333 44.668961009598476, 13.459999999999999 44.732961009598476 C 13.414666666666665 44.796961009598476, 13.390666666666664 44.874294342931805, 13.387999999999998 44.964961009598476 C 13.382666666666665 45.172961009598474, 13.379333333333333 45.36629434293181, 13.378 45.544961009598474 C 13.376666666666667 45.72362767626514, 13.381333333333334 45.91829434293181, 13.392 46.12896100959848 Z M 13.904 50.168961009598476 L 13.904 49.236961009598474 L 15.5 49.236961009598474 L 15.5 50.168961009598476 Z M 16.196 48.75696100959848 C 16.188000000000002 48.327627676265145, 16.182666666666666 47.91096100959848, 16.18 47.50696100959848 C 16.177333333333333 47.102961009598474, 16.177999999999997 46.70762767626514, 16.182 46.32096100959848 C 16.186 45.934294342931814, 16.190666666666665 45.55296100959848, 16.196 45.17696100959848 C 16.209333333333333 44.736961009598474, 16.334000000000003 44.391627676265145, 16.57 44.14096100959848 C 16.805999999999997 43.89029434293181, 17.142666666666663 43.74496100959848, 17.58 43.70496100959848 L 17.58 44.592961009598476 C 17.382666666666665 44.64896100959848, 17.281333333333333 44.77829434293181, 17.276 44.980961009598474 C 17.262666666666668 45.351627676265146, 17.253333333333334 45.699627676265145, 17.248 46.02496100959848 C 17.242666666666665 46.35029434293181, 17.24 46.66696100959848, 17.24 46.97496100959847 C 17.24 47.28296100959848, 17.242666666666665 47.59762767626515, 17.248 47.918961009598476 C 17.253333333333334 48.24029434293181, 17.262666666666668 48.583627676265145, 17.276 48.94896100959848 C 17.281333333333333 49.156961009598476, 17.382666666666665 49.28896100959848, 17.58 49.34496100959848 L 17.58 50.232961009598476 C 17.142666666666663 50.19296100959848, 16.805999999999997 50.046961009598476, 16.57 49.794961009598474 C 16.334000000000003 49.54296100959847, 16.209333333333333 49.196961009598475, 16.196 48.75696100959848 Z M 18.084 50.232961009598476 L 18.084 49.34096100959847 C 18.268 49.287627676265146, 18.366666666666667 49.163627676265136, 18.38 48.96896100959847 C 18.398666666666667 48.502294342931805, 18.410666666666668 48.053627676265144, 18.416 47.62296100959848 C 18.421333333333333 47.19229434293181, 18.421333333333333 46.76162767626514, 18.416 46.330961009598475 C 18.410666666666668 45.90029434293181, 18.398666666666667 45.44762767626514, 18.38 44.97296100959848 C 18.374666666666666 44.778294342931815, 18.276 44.65162767626514, 18.084 44.592961009598476 L 18.084 43.70496100959848 C 18.513333333333335 43.74496100959848, 18.846666666666668 43.89029434293181, 19.084 44.14096100959848 C 19.321333333333335 44.391627676265145, 19.445333333333334 44.736961009598474, 19.456 45.17696100959848 C 19.46666666666667 45.491627676265146, 19.474666666666668 45.80162767626514, 19.48 46.10696100959848 C 19.485333333333333 46.412294342931816, 19.488 46.71296100959848, 19.488 47.00896100959848 C 19.488 47.30496100959848, 19.485333333333333 47.59829434293181, 19.48 47.888961009598475 C 19.474666666666668 48.17962767626514, 19.46666666666667 48.46896100959847, 19.456 48.75696100959848 C 19.439999999999998 49.20762767626515, 19.311999999999998 49.556294342931814, 19.072 49.80296100959848 C 18.832 50.04962767626514, 18.502666666666666 50.19296100959848, 18.084 50.232961009598476 Z M 21.944 50.168961009598476 L 21.944 43.76896100959848 L 23.003999999999998 43.76896100959848 L 23.003999999999998 50.168961009598476 Z " stroke="none" fill-rule="nonzero" fill="#000000" fill-opacity="1" transform="matrix(1,0,0,1,5.05,13.314)" id="text20 l" />
  <path d="M 0 40.82516880767878 L 10 40.82516880767878 L 10 42.32516880767878 L 0 42.32516880767878 Z " stroke="none" fill-rule="evenodd" fill="#000000" fill-opacity="1" transform="matrix(1,0,0,1,5.05,13.314)" id="mark21 l" />
  <path d="M 0 30.431376605759084 L 10 30.431376605759084 L 10 31.931376605759084 L 0 31.931376605759084 Z " stroke="none" fill-rule="evenodd" fill="#000000" fill-opacity="1" transform="matrix(1,0,0,1,5.05,13.314)" id="mark22 l" />
  <path d="M 0 20.03758440383939 L 10 20.03758440383939 L 10 21.53758440383939 L 0 21.53758440383939 Z " stroke="none" fill-rule="evenodd" fill="#000000" fill-opacity="1" transform="matrix(1,0,0,1,5.05,13.314)" id="mark23 l" />
  <path d="M 0 9.643792201919695 L 10 9.643792201919695 L 10 11.143792201919695 L 0 11.143792201919695 Z " stroke="none" fill-rule="evenodd" fill="#000000" fill-opacity="1" transform="matrix(1,0,0,1,5.05,13.314)" id="mark24 l" />
  <path d="M 0 -0.75 L 25 -0.75 L 25 0.75 L 0 0.75 Z " stroke="none" fill-rule="evenodd" fill="#000000" fill-opacity="1" transform="matrix(1,0,0,1,5.05,13.314)" id="mark25 l" />
  <path d="M 12.328 -1.7999999999999998 C 12.325333333333333 -1.8986666666666663, 12.323333333333332 -1.987333333333333, 12.322 -2.066 C 12.320666666666666 -2.1446666666666663, 12.319333333333333 -2.2186666666666666, 12.318 -2.288 C 12.316666666666666 -2.357333333333333, 12.315999999999999 -2.429333333333333, 12.316 -2.5039999999999996 C 12.315999999999999 -2.5786666666666664, 12.315999999999999 -2.663333333333333, 12.316 -2.758 C 12.315999999999999 -2.852666666666667, 12.317333333333334 -2.964, 12.32 -3.0919999999999996 C 12.328 -3.3853333333333335, 12.378 -3.647333333333333, 12.47 -3.8779999999999997 C 12.562000000000001 -4.108666666666667, 12.696 -4.314666666666667, 12.872 -4.4959999999999996 C 13.048 -4.677333333333333, 13.265333333333334 -4.838666666666667, 13.524000000000001 -4.98 L 14.056000000000001 -5.268 C 14.242666666666668 -5.3693333333333335, 14.362000000000002 -5.491333333333333, 14.414 -5.634 C 14.466000000000001 -5.776666666666667, 14.495999999999999 -5.910666666666667, 14.504 -6.036 C 14.514666666666667 -6.182666666666666, 14.520666666666667 -6.339333333333333, 14.522 -6.506 C 14.523333333333333 -6.672666666666667, 14.520000000000001 -6.829333333333334, 14.512 -6.976 C 14.506666666666666 -7.08, 14.476666666666667 -7.165999999999999, 14.422 -7.233999999999999 C 14.367333333333335 -7.302, 14.288 -7.350666666666666, 14.184000000000001 -7.38 L 14.184000000000001 -8.268 C 14.672 -8.236, 15.022000000000002 -8.104666666666667, 15.234 -7.874 C 15.446000000000002 -7.643333333333333, 15.562666666666667 -7.282666666666666, 15.584 -6.792 C 15.586666666666668 -6.728, 15.588666666666668 -6.6626666666666665, 15.59 -6.595999999999999 C 15.591333333333335 -6.529333333333334, 15.592000000000002 -6.464666666666666, 15.592 -6.402 C 15.592000000000002 -6.339333333333332, 15.591333333333335 -6.277333333333333, 15.59 -6.216 C 15.588666666666668 -6.1546666666666665, 15.586666666666668 -6.094666666666667, 15.584 -6.036 C 15.573333333333332 -5.750666666666667, 15.52 -5.504, 15.424 -5.295999999999999 C 15.328 -5.088, 15.197999999999999 -4.908, 15.033999999999999 -4.756 C 14.87 -4.604, 14.68 -4.468, 14.464 -4.348 L 13.86 -4.02 C 13.745333333333335 -3.9586666666666663, 13.655333333333335 -3.8746666666666663, 13.59 -3.768 C 13.524666666666668 -3.6613333333333333, 13.478000000000002 -3.548, 13.45 -3.428 C 13.422 -3.308, 13.408 -3.1959999999999997, 13.408 -3.0919999999999996 L 13.408 -1.7999999999999998 Z M 12.336 -5.84 C 12.330666666666666 -5.957333333333333, 12.326666666666664 -6.071999999999999, 12.324 -6.184 C 12.321333333333332 -6.295999999999999, 12.319333333333333 -6.401999999999999, 12.318 -6.502 C 12.316666666666666 -6.602, 12.317333333333334 -6.698666666666666, 12.32 -6.792 C 12.338666666666668 -7.279999999999999, 12.455333333333336 -7.639333333333333, 12.67 -7.87 C 12.884666666666668 -8.100666666666667, 13.221333333333334 -8.233333333333334, 13.68 -8.268 L 13.68 -7.3759999999999994 C 13.584 -7.346666666666666, 13.513333333333332 -7.3, 13.468 -7.236 C 13.422666666666668 -7.172, 13.398666666666667 -7.094666666666667, 13.396 -7.004 C 13.390666666666666 -6.795999999999999, 13.387333333333332 -6.602666666666666, 13.386 -6.424 C 13.384666666666666 -6.245333333333333, 13.389333333333333 -6.050666666666666, 13.4 -5.84 Z M 13.911999999999999 -1.7999999999999998 L 13.911999999999999 -2.7319999999999998 L 15.508 -2.7319999999999998 L 15.508 -1.7999999999999998 Z M 16.18 -3.2159999999999997 C 16.174666666666667 -3.389333333333333, 16.173333333333332 -3.528666666666667, 16.176 -3.634 C 16.178666666666665 -3.7393333333333336, 16.181333333333335 -3.841333333333333, 16.183999999999997 -3.94 L 17.264 -3.94 C 17.256 -3.8626666666666667, 17.25 -3.7666666666666666, 17.246 -3.6519999999999997 C 17.241999999999997 -3.5373333333333328, 17.240666666666666 -3.4266666666666667, 17.241999999999997 -3.32 C 17.243333333333332 -3.213333333333334, 17.246666666666666 -3.1333333333333337, 17.252 -3.08 C 17.262666666666668 -2.96, 17.297333333333334 -2.862, 17.355999999999998 -2.7859999999999996 C 17.414666666666665 -2.71, 17.497333333333334 -2.6559999999999997, 17.604 -2.6239999999999997 L 17.604 -1.7319999999999998 C 17.110666666666663 -1.7693333333333332, 16.75333333333333 -1.904, 16.532 -2.1359999999999997 C 16.310666666666666 -2.368, 16.19333333333333 -2.7279999999999998, 16.18 -3.2159999999999997 Z M 16.279999999999998 -4.552 L 16.279999999999998 -8.2 L 17.348 -8.2 L 17.348 -4.552 Z M 17.852 -4.976 L 17.852 -5.731999999999999 C 17.929333333333332 -5.771999999999999, 18.014666666666667 -5.804, 18.107999999999997 -5.828 C 18.20133333333333 -5.852, 18.301333333333332 -5.864, 18.407999999999998 -5.864 C 18.773333333333333 -5.864, 19.047333333333334 -5.748666666666667, 19.23 -5.518 C 19.412666666666667 -5.287333333333333, 19.514666666666663 -4.973333333333333, 19.535999999999998 -4.576 C 19.546666666666667 -4.416, 19.55333333333333 -4.257333333333333, 19.555999999999997 -4.1 C 19.558666666666664 -3.9426666666666668, 19.557333333333332 -3.7893333333333334, 19.552 -3.6399999999999997 C 19.546666666666667 -3.490666666666667, 19.538666666666668 -3.3506666666666667, 19.528 -3.2199999999999998 C 19.482666666666667 -2.721333333333333, 19.353333333333335 -2.356, 19.14 -2.1239999999999997 C 18.926666666666666 -1.892, 18.581333333333333 -1.7613333333333332, 18.104 -1.7319999999999998 L 18.104 -2.6239999999999997 C 18.21333333333333 -2.653333333333333, 18.296 -2.7059999999999995, 18.352 -2.782 C 18.408 -2.8579999999999997, 18.44 -2.957333333333333, 18.448 -3.08 C 18.471999999999998 -3.3706666666666667, 18.485999999999997 -3.6319999999999997, 18.49 -3.864 C 18.494 -4.096, 18.485333333333333 -4.317333333333333, 18.464 -4.5280000000000005 C 18.447999999999997 -4.682666666666667, 18.396666666666665 -4.798, 18.31 -4.874 C 18.223333333333333 -4.949999999999999, 18.090666666666664 -4.9879999999999995, 17.912 -4.9879999999999995 C 17.901333333333334 -4.9879999999999995, 17.890666666666668 -4.986666666666666, 17.88 -4.984 C 17.86933333333333 -4.981333333333334, 17.86 -4.978666666666667, 17.852 -4.976 Z M 17.852 -7.268 L 17.852 -8.2 L 19.439999999999998 -8.2 L 19.439999999999998 -7.268 Z M 21.944 -1.7999999999999998 L 21.944 -8.2 L 23.003999999999998 -8.2 L 23.003999999999998 -1.7999999999999998 Z " stroke="none" fill-rule="nonzero" fill="#000000" fill-opacity="1" transform="matrix(1,0,0,1,5.05,13.314)" id="text25 l" />
  <path d="M -5 -13.264 L 30 -13.264 L 30 256.21901284607264 L -5 256.21901284607264 Z " stroke="#FF0000" stroke-opacity="1" stroke-width="0.1" stroke-linecap="butt" stroke-linejoin="miter" fill="none" transform="matrix(1,0,0,1,5.05,13.314)" />
</svg>