<?xml version="1.0" encoding="UTF-8"?>
<svg xmlns:xlink="http://www.w3.org/1999/xlink" viewBox="0 0 35.1 315.9102293972771" version="1.1" style="font-synthesis: none;" width="35.1mm" height="315.9102293972771mm" xmlns="http://www.w3.org/2000/svg">
  <defs />
  <style>	</style>
  <path d="M 0 0 L 35.1 0 L 35.1 315.9102293972771 L 0 315.9102293972771 Z " stroke="none" fill-rule="nonzero" fill="#FFFFFF" fill-opacity="1" transform="matrix(1,0,0,1,0,0)" />
  <path d="M 0 295.0282293972771 L 10 295.0282293972771 L 10 296.5282293972771 L 0 296.5282293972771 Z " stroke="none" fill-rule="evenodd" fill="#000000" fill-opacity="1" transform="matrix(1,0,0,1,5.05,13.314)" id="mark1 l" />
  <path d="M 0 290.74158839151943 L 10 290.74158839151943 L 10 292.24158839151943 L 0 292.24158839151943 Z " stroke="none" fill-rule="evenodd" fill="#000000" fill-opacity="1" transform="matrix(1,0,0,1,5.05,13.314)" id="mark2 l" />
  <path d="M 0 286.4549473857618 L 10 286.4549473857618 L 10 287.9549473857618 L 0 287.9549473857618 Z " stroke="none" fill-rule="evenodd" fill="#000000" fill-opacity="1" transform="matrix(1,0,0,1,5.05,13.314)" id="mark3 l" />
  <path d="M 0 282.16830638000414 L 10 282.16830638000414 L 10 283.66830638000414 L 0 283.66830638000414 Z " stroke="none" fill-rule="evenodd" fill="#000000" fill-opacity="1" transform="matrix(1,0,0,1,5.05,13.314)" id="mark4 l" />
  <path d="M 0 277.8816653742465 L 25 277.8816653742465 L 25 279.3816653742465 L 0 279.3816653742465 Z " stroke="none" fill-rule="evenodd" fill="#000000" fill-opacity="1" transform="matrix(1,0,0,1,5.05,13.314)" id="mark5 l" />
  <path d="M 16.18 275.3836653742465 C 16.174666666666667 275.21033204091316, 16.173333333333332 275.07099870757986, 16.176 274.9656653742465 C 16.178666666666665 274.86033204091314, 16.181333333333335 274.75833204091316, 16.183999999999997 274.6596653742465 L 17.264 274.6596653742465 C 17.256 274.73699870757986, 17.25 274.83299870757986, 17.246 274.9476653742465 C 17.241999999999997 275.0623320409132, 17.240666666666666 275.17299870757984, 17.241999999999997 275.2796653742465 C 17.243333333333332 275.3863320409132, 17.246666666666666 275.4663320409132, 17.252 275.51966537424653 C 17.262666666666668 275.6396653742465, 17.297333333333334 275.7376653742465, 17.355999999999998 275.8136653742465 C 17.414666666666665 275.88966537424653, 17.497333333333334 275.9436653742465, 17.604 275.9756653742465 L 17.604 276.8676653742465 C 17.110666666666663 276.83033204091316, 16.75333333333333 276.6956653742465, 16.532 276.4636653742465 C 16.310666666666666 276.23166537424646, 16.19333333333333 275.8716653742465, 16.18 275.3836653742465 Z M 16.279999999999998 274.0476653742465 L 16.279999999999998 270.3996653742465 L 17.348 270.3996653742465 L 17.348 274.0476653742465 Z M 17.852 273.6236653742465 L 17.852 272.8676653742465 C 17.929333333333332 272.82766537424646, 18.014666666666667 272.7956653742465, 18.107999999999997 272.7716653742465 C 18.20133333333333 272.7476653742465, 18.301333333333332 272.7356653742465, 18.407999999999998 272.7356653742465 C 18.773333333333333 272.7356653742465, 19.047333333333334 272.85099870757983, 19.23 273.0816653742465 C 19.412666666666667 273.31233204091313, 19.514666666666663 273.62633204091316, 19.535999999999998 274.0236653742465 C 19.546666666666667 274.1836653742465, 19.55333333333333 274.34233204091316, 19.555999999999997 274.4996653742465 C 19.558666666666664 274.6569987075798, 19.557333333333332 274.8103320409132, 19.552 274.9596653742465 C 19.546666666666667 275.1089987075799, 19.538666666666668 275.24899870757986, 19.528 275.3796653742465 C 19.482666666666667 275.87833204091316, 19.353333333333335 276.24366537424646, 19.14 276.4756653742465 C 18.926666666666666 276.7076653742465, 18.581333333333333 276.83833204091314, 18.104 276.8676653742465 L 18.104 275.9756653742465 C 18.21333333333333 275.94633204091315, 18.296 275.8936653742465, 18.352 275.8176653742465 C 18.408 275.7416653742465, 18.44 275.6423320409132, 18.448 275.51966537424653 C 18.471999999999998 275.2289987075798, 18.485999999999997 274.9676653742465, 18.49 274.7356653742465 C 18.494 274.5036653742465, 18.485333333333333 274.28233204091316, 18.464 274.0716653742465 C 18.447999999999997 273.91699870757986, 18.396666666666665 273.8016653742465, 18.31 273.7256653742465 C 18.223333333333333 273.6496653742465, 18.090666666666664 273.6116653742465, 17.912 273.6116653742465 C 17.901333333333334 273.6116653742465, 17.890666666666668 273.61299870757983, 17.88 273.6156653742465 C 17.86933333333333 273.6183320409132, 17.86 273.6209987075798, 17.852 273.6236653742465 Z M 17.852 271.3316653742465 L 17.852 270.3996653742465 L 19.439999999999998 270.3996653742465 L 19.439999999999998 271.3316653742465 Z M 21.944 276.7996653742465 L 21.944 270.3996653742465 L 23.003999999999998 270.3996653742465 L 23.003999999999998 276.7996653742465 Z " stroke="none" fill-rule="nonzero" fill="#000000" fill-opacity="1" transform="matrix(1,0,0,1,5.05,13.314)" id="text5 l" />
  <path d="M 0 273.5950243684889 L 10 273.5950243684889 L 10 275.0950243684889 L 0 275.0950243684889 Z " stroke="none" fill-rule="evenodd" fill="#000000" fill-opacity="1" transform="matrix(1,0,0,1,5.05,13.314)" id="mark6 l" />
  <path d="M 0 269.30838336273126 L 10 269.30838336273126 L 10 270.80838336273126 L 0 270.80838336273126 Z " stroke="none" fill-rule="evenodd" fill="#000000" fill-opacity="1" transform="matrix(1,0,0,1,5.05,13.314)" id="mark7 l" />
  <path d="M 0 265.0217423569736 L 10 265.0217423569736 L 10 266.5217423569736 L 0 266.5217423569736 Z " stroke="none" fill-rule="evenodd" fill="#000000" fill-opacity="1" transform="matrix(1,0,0,1,5.05,13.314)" id="mark8 l" />
  <path d="M 0 260.735101351216 L 10 260.735101351216 L 10 262.235101351216 L 0 262.235101351216 Z " stroke="none" fill-rule="evenodd" fill="#000000" fill-opacity="1" transform="matrix(1,0,0,1,5.05,13.314)" id="mark9 l" />
  <path d="M 0 256.44846034545833 L 25 256.44846034545833 L 25 257.94846034545833 L 0 257.94846034545833 Z " stroke="none" fill-rule="evenodd" fill="#000000" fill-opacity="1" transform="matrix(1,0,0,1,5.05,13.314)" id="mark10 l" />
  <path d="M 14.323999999999998 255.39846034545835 L 14.323999999999998 249.95446034545836 L 13.871999999999998 249.95446034545836 L 13.839999999999998 249.57446034545833 L 14.543999999999999 248.99846034545834 L 15.424 248.99846034545834 L 15.424 255.39846034545835 Z M 16.196 253.98646034545834 C 16.188000000000002 253.55712701212502, 16.182666666666666 253.14046034545834, 16.18 252.73646034545834 C 16.177333333333333 252.33246034545834, 16.177999999999997 251.93712701212502, 16.182 251.55046034545833 C 16.186 251.16379367879168, 16.190666666666665 250.78246034545833, 16.196 250.40646034545836 C 16.209333333333333 249.96646034545836, 16.334000000000003 249.62112701212502, 16.57 249.37046034545835 C 16.805999999999997 249.1197936787917, 17.142666666666663 248.97446034545834, 17.58 248.93446034545835 L 17.58 249.82246034545835 C 17.382666666666665 249.87846034545836, 17.281333333333333 250.0077936787917, 17.276 250.21046034545836 C 17.262666666666668 250.58112701212502, 17.253333333333334 250.92912701212504, 17.248 251.25446034545834 C 17.242666666666665 251.5797936787917, 17.24 251.89646034545837, 17.24 252.20446034545836 C 17.24 252.51246034545835, 17.242666666666665 252.827127012125, 17.248 253.14846034545835 C 17.253333333333334 253.4697936787917, 17.262666666666668 253.81312701212502, 17.276 254.17846034545835 C 17.281333333333333 254.38646034545835, 17.382666666666665 254.51846034545832, 17.58 254.57446034545833 L 17.58 255.46246034545834 C 17.142666666666663 255.42246034545835, 16.805999999999997 255.27646034545836, 16.57 255.02446034545835 C 16.334000000000003 254.77246034545834, 16.209333333333333 254.42646034545834, 16.196 253.98646034545834 Z M 18.084 255.46246034545834 L 18.084 254.57046034545834 C 18.268 254.517127012125, 18.366666666666667 254.39312701212503, 18.38 254.19846034545836 C 18.398666666666667 253.7317936787917, 18.410666666666668 253.28312701212502, 18.416 252.85246034545835 C 18.421333333333333 252.4217936787917, 18.421333333333333 251.991127012125, 18.416 251.56046034545835 C 18.410666666666668 251.12979367879166, 18.398666666666667 250.677127012125, 18.38 250.20246034545835 C 18.374666666666666 250.00779367879167, 18.276 249.881127012125, 18.084 249.82246034545835 L 18.084 248.93446034545835 C 18.513333333333335 248.97446034545834, 18.846666666666668 249.1197936787917, 19.084 249.37046034545835 C 19.321333333333335 249.62112701212502, 19.445333333333334 249.96646034545836, 19.456 250.40646034545836 C 19.46666666666667 250.721127012125, 19.474666666666668 251.031127012125, 19.48 251.33646034545833 C 19.485333333333333 251.64179367879166, 19.488 251.94246034545836, 19.488 252.23846034545835 C 19.488 252.53446034545834, 19.485333333333333 252.8277936787917, 19.48 253.11846034545835 C 19.474666666666668 253.409127012125, 19.46666666666667 253.69846034545833, 19.456 253.98646034545834 C 19.439999999999998 254.43712701212502, 19.311999999999998 254.78579367879166, 19.072 255.03246034545833 C 18.832 255.279127012125, 18.502666666666666 255.42246034545835, 18.084 255.46246034545834 Z M 21.944 255.39846034545835 L 21.944 248.99846034545834 L 23.003999999999998 248.99846034545834 L 23.003999999999998 255.39846034545835 Z " stroke="none" fill-rule="nonzero" fill="#000000" fill-opacity="1" transform="matrix(1,0,0,1,5.05,13.314)" id="text10 l" />
  <path d="M 0 252.16181933970068 L 10 252.16181933970068 L 10 253.66181933970068 L 0 253.66181933970068 Z " stroke="none" fill-rule="evenodd" fill="#000000" fill-opacity="1" transform="matrix(1,0,0,1,5.05,13.314)" id="mark11 l" />
  <path d="M 0 247.87517833394304 L 10 247.87517833394304 L 10 249.37517833394304 L 0 249.37517833394304 Z " stroke="none" fill-rule="evenodd" fill="#000000" fill-opacity="1" transform="matrix(1,0,0,1,5.05,13.314)" id="mark12 l" />
  <path d="M 0 243.5885373281854 L 10 243.5885373281854 L 10 245.0885373281854 L 0 245.0885373281854 Z " stroke="none" fill-rule="evenodd" fill="#000000" fill-opacity="1" transform="matrix(1,0,0,1,5.05,13.314)" id="mark13 l" />
  <path d="M 0 239.30189632242778 L 10 239.30189632242778 L 10 240.80189632242778 L 0 240.80189632242778 Z " stroke="none" fill-rule="evenodd" fill="#000000" fill-opacity="1" transform="matrix(1,0,0,1,5.05,13.314)" id="mark14 l" />
  <path d="M 0 235.01525531667014 L 25 235.01525531667014 L 25 236.51525531667014 L 0 236.51525531667014 Z " stroke="none" fill-rule="evenodd" fill="#000000" fill-opacity="1" transform="matrix(1,0,0,1,5.05,13.314)" id="mark15 l" />
  <path d="M 14.331999999999999 233.93325531667014 L 14.331999999999999 228.48925531667015 L 13.879999999999999 228.48925531667015 L 13.847999999999999 228.10925531667013 L 14.552 227.53325531667014 L 15.432 227.53325531667014 L 15.432 233.93325531667014 Z M 16.18 232.51725531667014 C 16.174666666666667 232.34392198333683, 16.173333333333332 232.20458865000347, 16.176 232.09925531667014 C 16.178666666666665 231.9939219833368, 16.181333333333335 231.89192198333683, 16.183999999999997 231.79325531667016 L 17.264 231.79325531667016 C 17.256 231.87058865000347, 17.25 231.96658865000347, 17.246 232.08125531667014 C 17.241999999999997 232.1959219833368, 17.240666666666666 232.30658865000348, 17.241999999999997 232.41325531667013 C 17.243333333333332 232.5199219833368, 17.246666666666666 232.5999219833368, 17.252 232.65325531667014 C 17.262666666666668 232.77325531667015, 17.297333333333334 232.87125531667016, 17.355999999999998 232.94725531667015 C 17.414666666666665 233.02325531667015, 17.497333333333334 233.07725531667012, 17.604 233.10925531667013 L 17.604 234.00125531667015 C 17.110666666666663 233.9639219833368, 16.75333333333333 233.82925531667013, 16.532 233.59725531667013 C 16.310666666666666 233.36525531667013, 16.19333333333333 233.00525531667012, 16.18 232.51725531667014 Z M 16.279999999999998 231.18125531667013 L 16.279999999999998 227.53325531667014 L 17.348 227.53325531667014 L 17.348 231.18125531667013 Z M 17.852 230.75725531667015 L 17.852 230.00125531667015 C 17.929333333333332 229.96125531667013, 18.014666666666667 229.92925531667015, 18.107999999999997 229.90525531667015 C 18.20133333333333 229.88125531667015, 18.301333333333332 229.86925531667015, 18.407999999999998 229.86925531667015 C 18.773333333333333 229.86925531667015, 19.047333333333334 229.98458865000347, 19.23 230.21525531667015 C 19.412666666666667 230.44592198333683, 19.514666666666663 230.75992198333682, 19.535999999999998 231.15725531667013 C 19.546666666666667 231.31725531667013, 19.55333333333333 231.47592198333678, 19.555999999999997 231.63325531667013 C 19.558666666666664 231.79058865000349, 19.557333333333332 231.9439219833368, 19.552 232.09325531667014 C 19.546666666666667 232.24258865000348, 19.538666666666668 232.38258865000347, 19.528 232.51325531667015 C 19.482666666666667 233.01192198333683, 19.353333333333335 233.37725531667013, 19.14 233.60925531667013 C 18.926666666666666 233.84125531667013, 18.581333333333333 233.9719219833368, 18.104 234.00125531667015 L 18.104 233.10925531667013 C 18.21333333333333 233.07992198333682, 18.296 233.02725531667016, 18.352 232.95125531667014 C 18.408 232.87525531667012, 18.44 232.7759219833368, 18.448 232.65325531667014 C 18.471999999999998 232.3625886500035, 18.485999999999997 232.10125531667015, 18.49 231.86925531667015 C 18.494 231.63725531667015, 18.485333333333333 231.41592198333683, 18.464 231.20525531667013 C 18.447999999999997 231.05058865000348, 18.396666666666665 230.93525531667012, 18.31 230.85925531667013 C 18.223333333333333 230.78325531667014, 18.090666666666664 230.74525531667013, 17.912 230.74525531667015 C 17.901333333333334 230.74525531667013, 17.890666666666668 230.74658865000347, 17.88 230.74925531667014 C 17.86933333333333 230.7519219833368, 17.86 230.75458865000348, 17.852 230.75725531667015 Z M 17.852 228.46525531667015 L 17.852 227.53325531667014 L 19.439999999999998 227.53325531667014 L 19.439999999999998 228.46525531667015 Z M 21.944 233.93325531667014 L 21.944 227.53325531667014 L 23.003999999999998 227.53325531667014 L 23.003999999999998 233.93325531667014 Z " stroke="none" fill-rule="nonzero" fill="#000000" fill-opacity="1" transform="matrix(1,0,0,1,5.05,13.314)" id="text15 l" />
  <path d="M 0 230.7286143109125 L 10 230.7286143109125 L 10 232.2286143109125 L 0 232.2286143109125 Z " stroke="none" fill-rule="evenodd" fill="#000000" fill-opacity="1" transform="matrix(1,0,0,1,5.05,13.314)" id="mark16 l" />
  <path d="M 0 226.44197330515487 L 10 226.44197330515487 L 10 227.94197330515487 L 0 227.94197330515487 Z " stroke="none" fill-rule="evenodd" fill="#000000" fill-opacity="1" transform="matrix(1,0,0,1,5.05,13.314)" id="mark17 l" />
  <path d="M 0 222.15533229939723 L 10 222.15533229939723 L 10 223.65533229939723 L 0 223.65533229939723 Z " stroke="none" fill-rule="evenodd" fill="#000000" fill-opacity="1" transform="matrix(1,0,0,1,5.05,13.314)" id="mark18 l" />
  <path d="M 0 217.86869129363959 L 10 217.86869129363959 L 10 219.36869129363959 L 0 219.36869129363959 Z " stroke="none" fill-rule="evenodd" fill="#000000" fill-opacity="1" transform="matrix(1,0,0,1,5.05,13.314)" id="mark19 l" />
  <path d="M 0 213.58205028788194 L 25 213.58205028788194 L 25 215.08205028788194 L 0 215.08205028788194 Z " stroke="none" fill-rule="evenodd" fill="#000000" fill-opacity="1" transform="matrix(1,0,0,1,5.05,13.314)" id="mark20 l" />
  <path d="M 12.319999999999999 212.53205028788196 C 12.317333333333334 212.43338362121528, 12.315333333333331 212.34471695454863, 12.313999999999998 212.26605028788197 C 12.312666666666665 212.1873836212153, 12.311333333333334 212.1133836212153, 12.309999999999999 212.04405028788196 C 12.308666666666667 211.97471695454863, 12.308 211.90271695454862, 12.308 211.82805028788195 C 12.308 211.75338362121528, 12.308 211.66871695454861, 12.308 211.57405028788196 C 12.308 211.4793836212153, 12.309333333333335 211.36805028788197, 12.312 211.24005028788196 C 12.32 210.94671695454863, 12.37 210.68471695454863, 12.462 210.45405028788196 C 12.554 210.22338362121528, 12.687999999999999 210.0173836212153, 12.863999999999999 209.83605028788196 C 13.04 209.65471695454863, 13.257333333333333 209.4933836212153, 13.515999999999998 209.35205028788195 L 14.047999999999998 209.06405028788197 C 14.234666666666666 208.96271695454863, 14.354 208.8407169545486, 14.405999999999999 208.69805028788196 C 14.457999999999998 208.5553836212153, 14.488 208.42138362121528, 14.495999999999999 208.29605028788197 C 14.506666666666664 208.1493836212153, 14.512666666666664 207.99271695454865, 14.514 207.82605028788197 C 14.51533333333333 207.65938362121528, 14.511999999999997 207.50271695454865, 14.504 207.35605028788197 C 14.498666666666665 207.25205028788196, 14.468666666666666 207.16605028788194, 14.413999999999998 207.09805028788196 C 14.359333333333332 207.03005028788198, 14.279999999999998 206.9813836212153, 14.175999999999998 206.95205028788195 L 14.175999999999998 206.06405028788197 C 14.663999999999998 206.09605028788195, 15.014 206.22738362121527, 15.225999999999999 206.45805028788195 C 15.437999999999999 206.68871695454862, 15.554666666666666 207.04938362121527, 15.575999999999999 207.54005028788197 C 15.578666666666663 207.604050287882, 15.580666666666666 207.66938362121533, 15.581999999999999 207.73605028788197 C 15.583333333333332 207.80271695454866, 15.584 207.8673836212153, 15.584 207.93005028788195 C 15.584 207.9927169545486, 15.583333333333332 208.0547169545486, 15.581999999999999 208.11605028788196 C 15.580666666666666 208.1773836212153, 15.578666666666663 208.23738362121532, 15.575999999999999 208.29605028788197 C 15.565333333333331 208.5813836212153, 15.512 208.82805028788195, 15.415999999999999 209.03605028788195 C 15.32 209.24405028788195, 15.19 209.42405028788195, 15.026 209.57605028788197 C 14.862 209.72805028788196, 14.672 209.86405028788195, 14.456 209.98405028788196 L 13.851999999999999 210.31205028788196 C 13.737333333333332 210.37338362121528, 13.647333333333332 210.45738362121529, 13.581999999999999 210.56405028788197 C 13.516666666666666 210.67071695454865, 13.469999999999999 210.78405028788194, 13.441999999999998 210.90405028788194 C 13.413999999999998 211.02405028788195, 13.399999999999999 211.13605028788194, 13.399999999999999 211.24005028788196 L 13.399999999999999 212.53205028788196 Z M 12.328 208.49205028788197 C 12.322666666666667 208.37471695454863, 12.318666666666665 208.26005028788197, 12.315999999999999 208.14805028788197 C 12.313333333333333 208.03605028788198, 12.311333333333334 207.93005028788195, 12.309999999999999 207.83005028788196 C 12.308666666666667 207.73005028788197, 12.309333333333335 207.63338362121527, 12.312 207.54005028788197 C 12.330666666666666 207.05205028788197, 12.447333333333333 206.69271695454864, 12.661999999999999 206.46205028788197 C 12.876666666666665 206.2313836212153, 13.213333333333331 206.09871695454865, 13.671999999999999 206.06405028788197 L 13.671999999999999 206.95605028788196 C 13.576 206.98538362121528, 13.505333333333333 207.03205028788193, 13.459999999999999 207.09605028788195 C 13.414666666666665 207.16005028788197, 13.390666666666664 207.2373836212153, 13.387999999999998 207.32805028788195 C 13.382666666666665 207.53605028788195, 13.379333333333333 207.72938362121528, 13.378 207.90805028788196 C 13.376666666666667 208.08671695454865, 13.381333333333334 208.2813836212153, 13.392 208.49205028788197 Z M 13.904 212.53205028788196 L 13.904 211.60005028788197 L 15.5 211.60005028788197 L 15.5 212.53205028788196 Z M 16.196 211.12005028788195 C 16.188000000000002 210.69071695454863, 16.182666666666666 210.27405028788195, 16.18 209.87005028788195 C 16.177333333333333 209.46605028788196, 16.177999999999997 209.07071695454863, 16.182 208.68405028788194 C 16.186 208.2973836212153, 16.190666666666665 207.91605028788194, 16.196 207.54005028788197 C 16.209333333333333 207.10005028788197, 16.334000000000003 206.75471695454863, 16.57 206.50405028788197 C 16.805999999999997 206.2533836212153, 17.142666666666663 206.10805028788195, 17.58 206.06805028788196 L 17.58 206.95605028788196 C 17.382666666666665 207.01205028788198, 17.281333333333333 207.1413836212153, 17.276 207.34405028788197 C 17.262666666666668 207.71471695454863, 17.253333333333334 208.06271695454865, 17.248 208.38805028788195 C 17.242666666666665 208.7133836212153, 17.24 209.03005028788198, 17.24 209.33805028788197 C 17.24 209.64605028788196, 17.242666666666665 209.96071695454862, 17.248 210.28205028788196 C 17.253333333333334 210.6033836212153, 17.262666666666668 210.94671695454863, 17.276 211.31205028788196 C 17.281333333333333 211.52005028788196, 17.382666666666665 211.65205028788193, 17.58 211.70805028788195 L 17.58 212.59605028788195 C 17.142666666666663 212.55605028788196, 16.805999999999997 212.41005028788197, 16.57 212.15805028788196 C 16.334000000000003 211.90605028788195, 16.209333333333333 211.56005028788195, 16.196 211.12005028788195 Z M 18.084 212.59605028788195 L 18.084 211.70405028788196 C 18.268 211.6507169545486, 18.366666666666667 211.52671695454865, 18.38 211.33205028788197 C 18.398666666666667 210.8653836212153, 18.410666666666668 210.41671695454863, 18.416 209.98605028788197 C 18.421333333333333 209.5553836212153, 18.421333333333333 209.1247169545486, 18.416 208.69405028788196 C 18.410666666666668 208.26338362121527, 18.398666666666667 207.8107169545486, 18.38 207.33605028788196 C 18.374666666666666 207.14138362121528, 18.276 207.01471695454862, 18.084 206.95605028788196 L 18.084 206.06805028788196 C 18.513333333333335 206.10805028788195, 18.846666666666668 206.2533836212153, 19.084 206.50405028788197 C 19.321333333333335 206.75471695454863, 19.445333333333334 207.10005028788197, 19.456 207.54005028788197 C 19.46666666666667 207.85471695454862, 19.474666666666668 208.16471695454862, 19.48 208.47005028788195 C 19.485333333333333 208.77538362121527, 19.488 209.07605028788197, 19.488 209.37205028788196 C 19.488 209.66805028788195, 19.485333333333333 209.9613836212153, 19.48 210.25205028788196 C 19.474666666666668 210.5427169545486, 19.46666666666667 210.83205028788194, 19.456 211.12005028788195 C 19.439999999999998 211.57071695454863, 19.311999999999998 211.91938362121527, 19.072 212.16605028788194 C 18.832 212.4127169545486, 18.502666666666666 212.55605028788196, 18.084 212.59605028788195 Z M 21.944 212.53205028788196 L 21.944 206.13205028788195 L 23.003999999999998 206.13205028788195 L 23.003999999999998 212.53205028788196 Z " stroke="none" fill-rule="nonzero" fill="#000000" fill-opacity="1" transform="matrix(1,0,0,1,5.05,13.314)" id="text20 l" />
  <path d="M 0 209.2954092821243 L 10 209.2954092821243 L 10 210.7954092821243 L 0 210.7954092821243 Z " stroke="none" fill-rule="evenodd" fill="#000000" fill-opacity="1" transform="matrix(1,0,0,1,5.05,13.314)" id="mark21 l" />
  <path d="M 0 205.00876827636665 L 10 205.00876827636665 L 10 206.50876827636665 L 0 206.50876827636665 Z " stroke="none" fill-rule="evenodd" fill="#000000" fill-opacity="1" transform="matrix(1,0,0,1,5.05,13.314)" id="mark22 l" />
  <path d="M 0 200.722127270609 L 10 200.722127270609 L 10 202.222127270609 L 0 202.222127270609 Z " stroke="none" fill-rule="evenodd" fill="#000000" fill-opacity="1" transform="matrix(1,0,0,1,5.05,13.314)" id="mark23 l" />
  <path d="M 0 196.43548626485136 L 10 196.43548626485136 L 10 197.93548626485136 L 0 197.93548626485136 Z " stroke="none" fill-rule="evenodd" fill="#000000" fill-opacity="1" transform="matrix(1,0,0,1,5.05,13.314)" id="mark24 l" />
  <path d="M 0 192.14884525909375 L 25 192.14884525909375 L 25 193.64884525909375 L 0 193.64884525909375 Z " stroke="none" fill-rule="evenodd" fill="#000000" fill-opacity="1" transform="matrix(1,0,0,1,5.05,13.314)" id="mark25 l" />
  <path d="M 12.328 191.09884525909376 C 12.325333333333333 191.00017859242712, 12.323333333333332 190.91151192576044, 12.322 190.83284525909377 C 12.320666666666666 190.7541785924271, 12.319333333333333 190.68017859242713, 12.318 190.61084525909376 C 12.316666666666666 190.5415119257604, 12.315999999999999 190.4695119257604, 12.316 190.39484525909376 C 12.315999999999999 190.3201785924271, 12.315999999999999 190.23551192576042, 12.316 190.14084525909377 C 12.315999999999999 190.0461785924271, 12.317333333333334 189.93484525909378, 12.32 189.80684525909376 C 12.328 189.51351192576044, 12.378 189.25151192576044, 12.47 189.02084525909376 C 12.562000000000001 188.79017859242708, 12.696 188.5841785924271, 12.872 188.40284525909377 C 13.048 188.22151192576044, 13.265333333333334 188.06017859242712, 13.524000000000001 187.91884525909376 L 14.056000000000001 187.63084525909377 C 14.242666666666668 187.52951192576043, 14.362000000000002 187.40751192576042, 14.414 187.26484525909376 C 14.466000000000001 187.1221785924271, 14.495999999999999 186.9881785924271, 14.504 186.86284525909377 C 14.514666666666667 186.7161785924271, 14.520666666666667 186.55951192576043, 14.522 186.39284525909378 C 14.523333333333333 186.22617859242712, 14.520000000000001 186.06951192576045, 14.512 185.92284525909378 C 14.506666666666666 185.81884525909376, 14.476666666666667 185.73284525909378, 14.422 185.66484525909377 C 14.367333333333335 185.59684525909375, 14.288 185.5481785924271, 14.184000000000001 185.51884525909375 L 14.184000000000001 184.63084525909377 C 14.672 184.66284525909379, 15.022000000000002 184.7941785924271, 15.234 185.02484525909375 C 15.446000000000002 185.25551192576043, 15.562666666666667 185.6161785924271, 15.584 186.10684525909377 C 15.586666666666668 186.17084525909377, 15.588666666666668 186.2361785924271, 15.59 186.30284525909377 C 15.591333333333335 186.36951192576043, 15.592000000000002 186.4341785924271, 15.592 186.49684525909376 C 15.592000000000002 186.55951192576043, 15.591333333333335 186.62151192576042, 15.59 186.68284525909377 C 15.588666666666668 186.7441785924271, 15.586666666666668 186.8041785924271, 15.584 186.86284525909377 C 15.573333333333332 187.14817859242712, 15.52 187.39484525909376, 15.424 187.60284525909375 C 15.328 187.81084525909375, 15.197999999999999 187.99084525909376, 15.033999999999999 188.14284525909378 C 14.87 188.29484525909376, 14.68 188.43084525909376, 14.464 188.55084525909376 L 13.86 188.87884525909377 C 13.745333333333335 188.94017859242712, 13.655333333333335 189.02417859242712, 13.59 189.13084525909377 C 13.524666666666668 189.23751192576043, 13.478000000000002 189.35084525909377, 13.45 189.47084525909378 C 13.422 189.59084525909378, 13.408 189.70284525909375, 13.408 189.80684525909376 L 13.408 191.09884525909376 Z M 12.336 187.05884525909377 C 12.330666666666666 186.94151192576044, 12.326666666666664 186.82684525909374, 12.324 186.71484525909375 C 12.321333333333332 186.60284525909375, 12.319333333333333 186.49684525909376, 12.318 186.39684525909377 C 12.316666666666666 186.29684525909377, 12.317333333333334 186.2001785924271, 12.32 186.10684525909377 C 12.338666666666668 185.61884525909377, 12.455333333333336 185.25951192576045, 12.67 185.02884525909377 C 12.884666666666668 184.7981785924271, 13.221333333333334 184.66551192576043, 13.68 184.63084525909377 L 13.68 185.52284525909377 C 13.584 185.55217859242708, 13.513333333333332 185.59884525909376, 13.468 185.66284525909376 C 13.422666666666668 185.72684525909375, 13.398666666666667 185.8041785924271, 13.396 185.89484525909376 C 13.390666666666666 186.10284525909378, 13.387333333333332 186.2961785924271, 13.386 186.47484525909377 C 13.384666666666666 186.65351192576043, 13.389333333333333 186.8481785924271, 13.4 187.05884525909377 Z M 13.911999999999999 191.09884525909376 L 13.911999999999999 190.16684525909378 L 15.508 190.16684525909378 L 15.508 191.09884525909376 Z M 16.18 189.68284525909377 C 16.174666666666667 189.50951192576045, 16.173333333333332 189.37017859242712, 16.176 189.26484525909376 C 16.178666666666665 189.15951192576046, 16.181333333333335 189.05751192576045, 16.183999999999997 188.95884525909378 L 17.264 188.95884525909378 C 17.256 189.0361785924271, 17.25 189.1321785924271, 17.246 189.24684525909376 C 17.241999999999997 189.36151192576042, 17.240666666666666 189.4721785924271, 17.241999999999997 189.57884525909375 C 17.243333333333332 189.6855119257604, 17.246666666666666 189.76551192576042, 17.252 189.81884525909376 C 17.262666666666668 189.93884525909377, 17.297333333333334 190.03684525909375, 17.355999999999998 190.11284525909377 C 17.414666666666665 190.18884525909374, 17.497333333333334 190.24284525909374, 17.604 190.27484525909375 L 17.604 191.16684525909378 C 17.110666666666663 191.12951192576043, 16.75333333333333 190.99484525909375, 16.532 190.76284525909375 C 16.310666666666666 190.53084525909375, 16.19333333333333 190.17084525909377, 16.18 189.68284525909377 Z M 16.279999999999998 188.34684525909375 L 16.279999999999998 184.69884525909376 L 17.348 184.69884525909376 L 17.348 188.34684525909375 Z M 17.852 187.92284525909378 L 17.852 187.16684525909378 C 17.929333333333332 187.12684525909378, 18.014666666666667 187.09484525909377, 18.107999999999997 187.07084525909377 C 18.20133333333333 187.04684525909377, 18.301333333333332 187.03484525909377, 18.407999999999998 187.03484525909377 C 18.773333333333333 187.03484525909377, 19.047333333333334 187.1501785924271, 19.23 187.38084525909377 C 19.412666666666667 187.61151192576042, 19.514666666666663 187.92551192576042, 19.535999999999998 188.32284525909375 C 19.546666666666667 188.48284525909375, 19.55333333333333 188.64151192576043, 19.555999999999997 188.79884525909375 C 19.558666666666664 188.9561785924271, 19.557333333333332 189.10951192576044, 19.552 189.25884525909376 C 19.546666666666667 189.40817859242708, 19.538666666666668 189.5481785924271, 19.528 189.67884525909378 C 19.482666666666667 190.17751192576043, 19.353333333333335 190.54284525909378, 19.14 190.77484525909375 C 18.926666666666666 191.00684525909378, 18.581333333333333 191.13751192576044, 18.104 191.16684525909378 L 18.104 190.27484525909375 C 18.21333333333333 190.24551192576044, 18.296 190.19284525909376, 18.352 190.11684525909376 C 18.408 190.04084525909377, 18.44 189.94151192576044, 18.448 189.81884525909376 C 18.471999999999998 189.52817859242708, 18.485999999999997 189.26684525909377, 18.49 189.03484525909377 C 18.494 188.80284525909377, 18.485333333333333 188.58151192576042, 18.464 188.37084525909376 C 18.447999999999997 188.21617859242707, 18.396666666666665 188.10084525909375, 18.31 188.02484525909375 C 18.223333333333333 187.94884525909376, 18.090666666666664 187.91084525909378, 17.912 187.91084525909378 C 17.901333333333334 187.91084525909378, 17.890666666666668 187.9121785924271, 17.88 187.91484525909377 C 17.86933333333333 187.91751192576044, 17.86 187.9201785924271, 17.852 187.92284525909378 Z M 17.852 185.63084525909377 L 17.852 184.69884525909376 L 19.439999999999998 184.69884525909376 L 19.439999999999998 185.63084525909377 Z M 21.944 191.09884525909376 L 21.944 184.69884525909376 L 23.003999999999998 184.69884525909376 L 23.003999999999998 191.09884525909376 Z " stroke="none" fill-rule="nonzero" fill="#000000" fill-opacity="1" transform="matrix(1,0,0,1,5.05,13.314)" id="text25 l" />
  <path d="M 0 187.8622042533361 L 10 187.8622042533361 L 10 189.3622042533361 L 0 189.3622042533361 Z " stroke="none" fill-rule="evenodd" fill="#000000" fill-opacity="1" transform="matrix(1,0,0,1,5.05,13.314)" id="mark26 l" />
  <path d="M 0 183.57556324757846 L 10 183.57556324757846 L 10 185.07556324757846 L 0 185.07556324757846 Z " stroke="none" fill-rule="evenodd" fill="#000000" fill-opacity="1" transform="matrix(1,0,0,1,5.05,13.314)" id="mark27 l" />
  <path d="M 0 179.28892224182084 L 10 179.28892224182084 L 10 180.78892224182084 L 0 180.78892224182084 Z " stroke="none" fill-rule="evenodd" fill="#000000" fill-opacity="1" transform="matrix(1,0,0,1,5.05,13.314)" id="mark28 l" />
  <path d="M 0 175.0022812360632 L 10 175.0022812360632 L 10 176.5022812360632 L 0 176.5022812360632 Z " stroke="none" fill-rule="evenodd" fill="#000000" fill-opacity="1" transform="matrix(1,0,0,1,5.05,13.314)" id="mark29 l" />
  <path d="M 0 170.71564023030555 L 25 170.71564023030555 L 25 172.21564023030555 L 0 172.21564023030555 Z " stroke="none" fill-rule="evenodd" fill="#000000" fill-opacity="1" transform="matrix(1,0,0,1,5.05,13.314)" id="mark30 l" />
  <path d="M 12.223999999999998 168.24964023030557 C 12.221333333333334 168.14830689697223, 12.219333333333333 168.06430689697223, 12.218 167.99764023030556 C 12.216666666666667 167.9309735636389, 12.216666666666667 167.8629735636389, 12.218 167.79364023030558 C 12.219333333333333 167.72430689697222, 12.221333333333334 167.6349735636389, 12.223999999999998 167.52564023030558 L 13.303999999999998 167.52564023030558 L 13.303999999999998 168.38964023030556 C 13.303999999999998 168.6269735636389, 13.417333333333332 168.77764023030556, 13.643999999999998 168.84164023030556 L 13.643999999999998 169.73364023030558 C 13.155999999999999 169.69630689697223, 12.800666666666665 169.56164023030556, 12.578 169.32964023030556 C 12.355333333333334 169.09764023030556, 12.237333333333332 168.73764023030557, 12.223999999999998 168.24964023030557 Z M 12.292 164.19764023030558 L 12.292 163.26564023030556 L 15.536 163.26564023030556 L 15.536 164.19764023030558 Z M 14.143999999999998 168.84564023030558 C 14.367999999999999 168.78964023030557, 14.483999999999998 168.6389735636389, 14.491999999999999 168.39364023030558 C 14.497333333333334 168.19097356363892, 14.500666666666666 168.00830689697224, 14.501999999999999 167.84564023030558 C 14.503333333333332 167.6829735636389, 14.498666666666665 167.52564023030558, 14.488 167.37364023030557 C 14.48 167.21630689697224, 14.431999999999999 167.08297356363892, 14.344 166.97364023030556 C 14.256 166.86430689697224, 14.089333333333332 166.81230689697225, 13.844 166.81764023030556 L 13.096 166.82564023030557 L 13.068 165.93364023030557 L 14.027999999999999 164.54964023030556 L 15.216 164.54964023030556 L 14.248 165.90164023030556 L 14.28 165.90164023030556 C 14.712 165.90164023030556, 15.028666666666666 166.02430689697223, 15.229999999999999 166.26964023030558 C 15.431333333333333 166.5149735636389, 15.544 166.89230689697223, 15.568 167.40164023030556 C 15.57333333333333 167.47364023030556, 15.576666666666664 167.54564023030557, 15.578 167.61764023030557 C 15.57933333333333 167.68964023030557, 15.579999999999998 167.76030689697222, 15.579999999999998 167.82964023030556 C 15.579999999999998 167.8989735636389, 15.57933333333333 167.96830689697222, 15.578 168.03764023030556 C 15.576666666666664 168.1069735636389, 15.57333333333333 168.17764023030557, 15.568 168.24964023030557 C 15.549333333333333 168.74564023030558, 15.428666666666665 169.11030689697225, 15.206 169.34364023030557 C 14.983333333333334 169.5769735636389, 14.630666666666666 169.7069735636389, 14.148 169.73364023030558 Z M 16.196 168.25364023030556 C 16.188000000000002 167.82430689697222, 16.182666666666666 167.40764023030556, 16.18 167.00364023030556 C 16.177333333333333 166.59964023030557, 16.177999999999997 166.20430689697224, 16.182 165.81764023030556 C 16.186 165.4309735636389, 16.190666666666665 165.04964023030558, 16.196 164.67364023030558 C 16.209333333333333 164.23364023030558, 16.334000000000003 163.88830689697227, 16.57 163.63764023030558 C 16.805999999999997 163.3869735636389, 17.142666666666663 163.24164023030556, 17.58 163.20164023030557 L 17.58 164.08964023030558 C 17.382666666666665 164.14564023030556, 17.281333333333333 164.27497356363892, 17.276 164.47764023030558 C 17.262666666666668 164.84830689697225, 17.253333333333334 165.19630689697223, 17.248 165.52164023030556 C 17.242666666666665 165.8469735636389, 17.24 166.16364023030556, 17.24 166.47164023030558 C 17.24 166.77964023030557, 17.242666666666665 167.09430689697223, 17.248 167.41564023030557 C 17.253333333333334 167.7369735636389, 17.262666666666668 168.08030689697222, 17.276 168.44564023030557 C 17.281333333333333 168.6536402303056, 17.382666666666665 168.78564023030557, 17.58 168.84164023030556 L 17.58 169.72964023030556 C 17.142666666666663 169.68964023030554, 16.805999999999997 169.54364023030556, 16.57 169.29164023030557 C 16.334000000000003 169.03964023030557, 16.209333333333333 168.69364023030556, 16.196 168.25364023030556 Z M 18.084 169.72964023030556 L 18.084 168.83764023030557 C 18.268 168.78430689697225, 18.366666666666667 168.66030689697226, 18.38 168.46564023030558 C 18.398666666666667 167.9989735636389, 18.410666666666668 167.55030689697224, 18.416 167.11964023030558 C 18.421333333333333 166.6889735636389, 18.421333333333333 166.25830689697224, 18.416 165.82764023030558 C 18.410666666666668 165.3969735636389, 18.398666666666667 164.94430689697225, 18.38 164.46964023030557 C 18.374666666666666 164.27497356363892, 18.276 164.14830689697226, 18.084 164.08964023030558 L 18.084 163.20164023030557 C 18.513333333333335 163.24164023030556, 18.846666666666668 163.3869735636389, 19.084 163.63764023030558 C 19.321333333333335 163.88830689697227, 19.445333333333334 164.23364023030558, 19.456 164.67364023030558 C 19.46666666666667 164.98830689697223, 19.474666666666668 165.29830689697224, 19.48 165.60364023030556 C 19.485333333333333 165.90897356363888, 19.488 166.20964023030555, 19.488 166.50564023030557 C 19.488 166.80164023030557, 19.485333333333333 167.0949735636389, 19.48 167.38564023030557 C 19.474666666666668 167.67630689697225, 19.46666666666667 167.96564023030558, 19.456 168.25364023030556 C 19.439999999999998 168.70430689697224, 19.311999999999998 169.05297356363891, 19.072 169.29964023030556 C 18.832 169.54630689697223, 18.502666666666666 169.68964023030554, 18.084 169.72964023030556 Z M 21.944 169.66564023030557 L 21.944 163.26564023030556 L 23.003999999999998 163.26564023030556 L 23.003999999999998 169.66564023030557 Z " stroke="none" fill-rule="nonzero" fill="#000000" fill-opacity="1" transform="matrix(1,0,0,1,5.05,13.314)" id="text30 l" />
  <path d="M 0 166.4289992245479 L 10 166.4289992245479 L 10 167.9289992245479 L 0 167.9289992245479 Z " stroke="none" fill-rule="evenodd" fill="#000000" fill-opacity="1" transform="matrix(1,0,0,1,5.05,13.314)" id="mark31 l" />
  <path d="M 0 162.14235821879026 L 10 162.14235821879026 L 10 163.64235821879026 L 0 163.64235821879026 Z " stroke="none" fill-rule="evenodd" fill="#000000" fill-opacity="1" transform="matrix(1,0,0,1,5.05,13.314)" id="mark32 l" />
  <path d="M 0 157.85571721303262 L 10 157.85571721303262 L 10 159.35571721303262 L 0 159.35571721303262 Z " stroke="none" fill-rule="evenodd" fill="#000000" fill-opacity="1" transform="matrix(1,0,0,1,5.05,13.314)" id="mark33 l" />
  <path d="M 0 153.569076207275 L 10 153.569076207275 L 10 155.069076207275 L 0 155.069076207275 Z " stroke="none" fill-rule="evenodd" fill="#000000" fill-opacity="1" transform="matrix(1,0,0,1,5.05,13.314)" id="mark34 l" />
  <path d="M 0 149.28243520151736 L 25 149.28243520151736 L 25 150.78243520151736 L 0 150.78243520151736 Z " stroke="none" fill-rule="evenodd" fill="#000000" fill-opacity="1" transform="matrix(1,0,0,1,5.05,13.314)" id="mark35 l" />
  <path d="M 12.232 146.78443520151737 C 12.229333333333333 146.68310186818402, 12.227333333333334 146.59910186818402, 12.226 146.53243520151736 C 12.224666666666668 146.4657685348507, 12.224666666666668 146.3977685348507, 12.226 146.32843520151738 C 12.227333333333334 146.25910186818405, 12.229333333333333 146.1697685348507, 12.232 146.06043520151738 L 13.312 146.06043520151738 L 13.312 146.92443520151735 C 13.312 147.1617685348507, 13.425333333333333 147.31243520151736, 13.652 147.37643520151735 L 13.652 148.26843520151738 C 13.164 148.23110186818406, 12.808666666666667 148.09643520151735, 12.586 147.86443520151735 C 12.363333333333333 147.63243520151735, 12.245333333333335 147.27243520151737, 12.232 146.78443520151737 Z M 12.3 142.73243520151738 L 12.3 141.80043520151736 L 15.544 141.80043520151736 L 15.544 142.73243520151738 Z M 14.152000000000001 147.38043520151737 C 14.376000000000001 147.32443520151736, 14.492 147.1737685348507, 14.5 146.92843520151737 C 14.505333333333333 146.72576853485072, 14.508666666666667 146.54310186818404, 14.51 146.38043520151737 C 14.511333333333333 146.2177685348507, 14.506666666666668 146.06043520151738, 14.496 145.90843520151736 C 14.488 145.75110186818404, 14.440000000000001 145.6177685348507, 14.352 145.50843520151736 C 14.264 145.39910186818403, 14.097333333333335 145.34710186818404, 13.852 145.35243520151735 L 13.104 145.36043520151736 L 13.076 144.46843520151737 L 14.036 143.08443520151735 L 15.224 143.08443520151735 L 14.256 144.43643520151736 L 14.288 144.43643520151736 C 14.719999999999999 144.43643520151736, 15.036666666666665 144.55910186818403, 15.238 144.80443520151738 C 15.439333333333334 145.0497685348507, 15.552 145.42710186818402, 15.576 145.93643520151736 C 15.581333333333333 146.00843520151736, 15.584666666666667 146.08043520151736, 15.586 146.15243520151736 C 15.587333333333333 146.22443520151737, 15.588000000000001 146.29510186818402, 15.588000000000001 146.36443520151735 C 15.588000000000001 146.43376853485069, 15.587333333333333 146.50310186818405, 15.586 146.57243520151735 C 15.584666666666667 146.6417685348507, 15.581333333333333 146.71243520151737, 15.576 146.78443520151737 C 15.557333333333334 147.28043520151738, 15.436666666666667 147.64510186818404, 15.214 147.87843520151736 C 14.991333333333333 148.11176853485068, 14.638666666666666 148.24176853485068, 14.156 148.26843520151738 Z M 16.18 146.78443520151737 C 16.174666666666667 146.61110186818405, 16.173333333333332 146.4717685348507, 16.176 146.36643520151736 C 16.178666666666665 146.26110186818403, 16.181333333333335 146.15910186818405, 16.183999999999997 146.06043520151738 L 17.264 146.06043520151738 C 17.256 146.1377685348507, 17.25 146.2337685348507, 17.246 146.34843520151736 C 17.241999999999997 146.46310186818403, 17.240666666666666 146.57376853485067, 17.241999999999997 146.68043520151735 C 17.243333333333332 146.78710186818404, 17.246666666666666 146.86710186818402, 17.252 146.92043520151736 C 17.262666666666668 147.04043520151737, 17.297333333333334 147.13843520151738, 17.355999999999998 147.21443520151738 C 17.414666666666665 147.29043520151737, 17.497333333333334 147.34443520151734, 17.604 147.37643520151735 L 17.604 148.26843520151738 C 17.110666666666663 148.23110186818406, 16.75333333333333 148.09643520151735, 16.532 147.86443520151735 C 16.310666666666666 147.63243520151735, 16.19333333333333 147.27243520151737, 16.18 146.78443520151737 Z M 16.279999999999998 145.44843520151736 L 16.279999999999998 141.80043520151736 L 17.348 141.80043520151736 L 17.348 145.44843520151736 Z M 17.852 145.02443520151738 L 17.852 144.26843520151738 C 17.929333333333332 144.22843520151739, 18.014666666666667 144.19643520151737, 18.107999999999997 144.17243520151737 C 18.20133333333333 144.14843520151737, 18.301333333333332 144.13643520151737, 18.407999999999998 144.13643520151737 C 18.773333333333333 144.13643520151737, 19.047333333333334 144.25176853485073, 19.23 144.48243520151738 C 19.412666666666667 144.71310186818403, 19.514666666666663 145.02710186818405, 19.535999999999998 145.42443520151735 C 19.546666666666667 145.58443520151735, 19.55333333333333 145.74310186818403, 19.555999999999997 145.90043520151735 C 19.558666666666664 146.0577685348507, 19.557333333333332 146.21110186818404, 19.552 146.36043520151736 C 19.546666666666667 146.50976853485068, 19.538666666666668 146.6497685348507, 19.528 146.78043520151738 C 19.482666666666667 147.27910186818403, 19.353333333333335 147.64443520151735, 19.14 147.87643520151735 C 18.926666666666666 148.10843520151735, 18.581333333333333 148.23910186818404, 18.104 148.26843520151738 L 18.104 147.37643520151735 C 18.21333333333333 147.34710186818404, 18.296 147.29443520151736, 18.352 147.21843520151737 C 18.408 147.14243520151737, 18.44 147.04310186818404, 18.448 146.92043520151736 C 18.471999999999998 146.62976853485068, 18.485999999999997 146.36843520151734, 18.49 146.13643520151737 C 18.494 145.90443520151734, 18.485333333333333 145.68310186818402, 18.464 145.47243520151736 C 18.447999999999997 145.3177685348507, 18.396666666666665 145.20243520151735, 18.31 145.12643520151735 C 18.223333333333333 145.05043520151736, 18.090666666666664 145.01243520151738, 17.912 145.01243520151738 C 17.901333333333334 145.01243520151738, 17.890666666666668 145.01376853485073, 17.88 145.01643520151737 C 17.86933333333333 145.019101868184, 17.86 145.0217685348507, 17.852 145.02443520151738 Z M 17.852 142.73243520151738 L 17.852 141.80043520151736 L 19.439999999999998 141.80043520151736 L 19.439999999999998 142.73243520151738 Z M 21.944 148.20043520151737 L 21.944 141.80043520151736 L 23.003999999999998 141.80043520151736 L 23.003999999999998 148.20043520151737 Z " stroke="none" fill-rule="nonzero" fill="#000000" fill-opacity="1" transform="matrix(1,0,0,1,5.05,13.314)" id="text35 l" />
  <path d="M 0 144.99579419575971 L 10 144.99579419575971 L 10 146.49579419575971 L 0 146.49579419575971 Z " stroke="none" fill-rule="evenodd" fill="#000000" fill-opacity="1" transform="matrix(1,0,0,1,5.05,13.314)" id="mark36 l" />
  <path d="M 0 140.70915319000207 L 10 140.70915319000207 L 10 142.20915319000207 L 0 142.20915319000207 Z " stroke="none" fill-rule="evenodd" fill="#000000" fill-opacity="1" transform="matrix(1,0,0,1,5.05,13.314)" id="mark37 l" />
  <path d="M 0 136.42251218424443 L 10 136.42251218424443 L 10 137.92251218424443 L 0 137.92251218424443 Z " stroke="none" fill-rule="evenodd" fill="#000000" fill-opacity="1" transform="matrix(1,0,0,1,5.05,13.314)" id="mark38 l" />
  <path d="M 0 132.13587117848678 L 10 132.13587117848678 L 10 133.63587117848678 L 0 133.63587117848678 Z " stroke="none" fill-rule="evenodd" fill="#000000" fill-opacity="1" transform="matrix(1,0,0,1,5.05,13.314)" id="mark39 l" />
  <path d="M 0 127.84923017272916 L 25 127.84923017272916 L 25 129.34923017272916 L 0 129.34923017272916 Z " stroke="none" fill-rule="evenodd" fill="#000000" fill-opacity="1" transform="matrix(1,0,0,1,5.05,13.314)" id="mark40 l" />
  <path d="M 11.739999999999998 125.11523017272917 L 11.739999999999998 124.23923017272917 L 12.455999999999998 122.35923017272917 L 13.495999999999999 122.35923017272917 L 12.771999999999998 124.19123017272916 L 13.171999999999997 124.19123017272916 L 13.171999999999997 125.11523017272917 Z M 13.675999999999998 126.79923017272917 L 13.675999999999998 120.39923017272916 L 14.683999999999997 120.39923017272916 L 14.683999999999997 126.79923017272917 Z M 15.187999999999999 125.11523017272917 L 15.187999999999999 124.19123017272916 L 15.655999999999999 124.19123017272916 L 15.655999999999999 125.11523017272917 Z M 16.195999999999998 125.38723017272916 C 16.188 124.95789683939583, 16.182666666666666 124.54123017272917, 16.18 124.13723017272916 C 16.177333333333333 123.73323017272918, 16.177999999999997 123.33789683939584, 16.182 122.95123017272917 C 16.186 122.5645635060625, 16.190666666666665 122.18323017272917, 16.195999999999998 121.80723017272916 C 16.20933333333333 121.36723017272917, 16.333999999999996 121.02189683939582, 16.569999999999997 120.77123017272916 C 16.805999999999997 120.5205635060625, 17.142666666666663 120.37523017272918, 17.58 120.33523017272917 L 17.58 121.22323017272917 C 17.382666666666665 121.27923017272917, 17.281333333333333 121.4085635060625, 17.275999999999996 121.61123017272917 C 17.262666666666664 121.98189683939583, 17.25333333333333 122.32989683939584, 17.247999999999998 122.65523017272916 C 17.242666666666665 122.98056350606251, 17.24 123.29723017272917, 17.24 123.60523017272916 C 17.24 123.91323017272916, 17.242666666666665 124.22789683939584, 17.247999999999998 124.54923017272917 C 17.25333333333333 124.8705635060625, 17.262666666666664 125.21389683939583, 17.275999999999996 125.57923017272917 C 17.281333333333333 125.78723017272915, 17.382666666666665 125.91923017272916, 17.58 125.97523017272917 L 17.58 126.86323017272916 C 17.142666666666663 126.82323017272915, 16.805999999999997 126.67723017272917, 16.569999999999997 126.42523017272917 C 16.333999999999996 126.17323017272918, 16.20933333333333 125.82723017272917, 16.195999999999998 125.38723017272916 Z M 18.084 126.86323017272916 L 18.084 125.97123017272916 C 18.268 125.91789683939584, 18.366666666666667 125.79389683939583, 18.38 125.59923017272916 C 18.398666666666664 125.1325635060625, 18.410666666666664 124.68389683939583, 18.415999999999997 124.25323017272916 C 18.42133333333333 123.82256350606251, 18.42133333333333 123.39189683939586, 18.415999999999997 122.96123017272917 C 18.410666666666664 122.53056350606252, 18.398666666666664 122.07789683939583, 18.38 121.60323017272917 C 18.374666666666666 121.4085635060625, 18.276 121.28189683939584, 18.084 121.22323017272917 L 18.084 120.33523017272917 C 18.513333333333332 120.37523017272918, 18.846666666666664 120.5205635060625, 19.083999999999996 120.77123017272916 C 19.32133333333333 121.02189683939582, 19.44533333333333 121.36723017272917, 19.456 121.80723017272916 C 19.466666666666665 122.12189683939584, 19.474666666666664 122.43189683939585, 19.479999999999997 122.73723017272917 C 19.48533333333333 123.04256350606249, 19.488 123.34323017272916, 19.488 123.63923017272917 C 19.488 123.93523017272918, 19.48533333333333 124.2285635060625, 19.479999999999997 124.51923017272917 C 19.474666666666664 124.80989683939583, 19.466666666666665 125.09923017272916, 19.456 125.38723017272916 C 19.439999999999998 125.83789683939582, 19.311999999999998 126.1865635060625, 19.072 126.43323017272917 C 18.831999999999997 126.67989683939584, 18.502666666666663 126.82323017272915, 18.084 126.86323017272916 Z M 21.944 126.79923017272917 L 21.944 120.39923017272916 L 23.003999999999998 120.39923017272916 L 23.003999999999998 126.79923017272917 Z " stroke="none" fill-rule="nonzero" fill="#000000" fill-opacity="1" transform="matrix(1,0,0,1,5.05,13.314)" id="text40 l" />
  <path d="M 0 123.56258916697152 L 10 123.56258916697152 L 10 125.06258916697152 L 0 125.06258916697152 Z " stroke="none" fill-rule="evenodd" fill="#000000" fill-opacity="1" transform="matrix(1,0,0,1,5.05,13.314)" id="mark41 l" />
  <path d="M 0 119.27594816121388 L 10 119.27594816121388 L 10 120.77594816121388 L 0 120.77594816121388 Z " stroke="none" fill-rule="evenodd" fill="#000000" fill-opacity="1" transform="matrix(1,0,0,1,5.05,13.314)" id="mark42 l" />
  <path d="M 0 114.98930715545623 L 10 114.98930715545623 L 10 116.48930715545623 L 0 116.48930715545623 Z " stroke="none" fill-rule="evenodd" fill="#000000" fill-opacity="1" transform="matrix(1,0,0,1,5.05,13.314)" id="mark43 l" />
  <path d="M 0 110.70266614969859 L 10 110.70266614969859 L 10 112.20266614969859 L 0 112.20266614969859 Z " stroke="none" fill-rule="evenodd" fill="#000000" fill-opacity="1" transform="matrix(1,0,0,1,5.05,13.314)" id="mark44 l" />
  <path d="M 0 106.41602514394097 L 25 106.41602514394097 L 25 107.91602514394097 L 0 107.91602514394097 Z " stroke="none" fill-rule="evenodd" fill="#000000" fill-opacity="1" transform="matrix(1,0,0,1,5.05,13.314)" id="mark45 l" />
  <path d="M 11.748 103.65002514394098 L 11.748 102.77402514394097 L 12.463999999999999 100.89402514394098 L 13.503999999999998 100.89402514394098 L 12.78 102.72602514394097 L 13.18 102.72602514394097 L 13.18 103.65002514394098 Z M 13.684 105.33402514394098 L 13.684 98.93402514394097 L 14.691999999999998 98.93402514394097 L 14.691999999999998 105.33402514394098 Z M 15.195999999999998 103.65002514394098 L 15.195999999999998 102.72602514394097 L 15.663999999999998 102.72602514394097 L 15.663999999999998 103.65002514394098 Z M 16.18 103.91802514394098 C 16.174666666666667 103.74469181060763, 16.173333333333332 103.60535847727431, 16.176 103.50002514394097 C 16.178666666666665 103.39469181060764, 16.181333333333335 103.29269181060764, 16.183999999999997 103.19402514394098 L 17.264 103.19402514394098 C 17.256 103.2713584772743, 17.25 103.36735847727431, 17.246 103.48202514394097 C 17.241999999999997 103.59669181060764, 17.240666666666666 103.70735847727431, 17.241999999999997 103.81402514394098 C 17.243333333333332 103.92069181060765, 17.246666666666666 104.00069181060763, 17.252 104.05402514394098 C 17.262666666666668 104.17402514394098, 17.297333333333334 104.272025143941, 17.355999999999998 104.34802514394097 C 17.414666666666665 104.42402514394098, 17.497333333333334 104.47802514394098, 17.604 104.51002514394098 L 17.604 105.40202514394097 C 17.110666666666663 105.36469181060764, 16.75333333333333 105.23002514394099, 16.532 104.99802514394098 C 16.310666666666666 104.766025143941, 16.19333333333333 104.40602514394098, 16.18 103.91802514394098 Z M 16.279999999999998 102.58202514394098 L 16.279999999999998 98.93402514394097 L 17.348 98.93402514394097 L 17.348 102.58202514394098 Z M 17.852 102.15802514394097 L 17.852 101.40202514394097 C 17.929333333333332 101.36202514394097, 18.014666666666667 101.33002514394097, 18.107999999999997 101.30602514394097 C 18.20133333333333 101.28202514394098, 18.301333333333332 101.27002514394098, 18.407999999999998 101.27002514394098 C 18.773333333333333 101.27002514394098, 19.047333333333334 101.38535847727431, 19.23 101.61602514394097 C 19.412666666666667 101.84669181060764, 19.514666666666663 102.16069181060766, 19.535999999999998 102.55802514394098 C 19.546666666666667 102.71802514394099, 19.55333333333333 102.87669181060764, 19.555999999999997 103.03402514394098 C 19.558666666666664 103.19135847727432, 19.557333333333332 103.34469181060766, 19.552 103.49402514394097 C 19.546666666666667 103.64335847727432, 19.538666666666668 103.7833584772743, 19.528 103.91402514394098 C 19.482666666666667 104.41269181060764, 19.353333333333335 104.77802514394098, 19.14 105.01002514394098 C 18.926666666666666 105.24202514394098, 18.581333333333333 105.37269181060765, 18.104 105.40202514394097 L 18.104 104.51002514394098 C 18.21333333333333 104.48069181060765, 18.296 104.42802514394097, 18.352 104.35202514394098 C 18.408 104.27602514394098, 18.44 104.17669181060765, 18.448 104.05402514394098 C 18.471999999999998 103.76335847727432, 18.485999999999997 103.50202514394098, 18.49 103.27002514394098 C 18.494 103.03802514394097, 18.485333333333333 102.81669181060764, 18.464 102.60602514394098 C 18.447999999999997 102.45135847727431, 18.396666666666665 102.33602514394099, 18.31 102.26002514394098 C 18.223333333333333 102.18402514394097, 18.090666666666664 102.14602514394097, 17.912 102.14602514394097 C 17.901333333333334 102.14602514394097, 17.890666666666668 102.14735847727431, 17.88 102.15002514394098 C 17.86933333333333 102.15269181060764, 17.86 102.15535847727429, 17.852 102.15802514394097 Z M 17.852 99.86602514394097 L 17.852 98.93402514394097 L 19.439999999999998 98.93402514394097 L 19.439999999999998 99.86602514394097 Z M 21.944 105.33402514394098 L 21.944 98.93402514394097 L 23.003999999999998 98.93402514394097 L 23.003999999999998 105.33402514394098 Z " stroke="none" fill-rule="nonzero" fill="#000000" fill-opacity="1" transform="matrix(1,0,0,1,5.05,13.314)" id="text45 l" />
  <path d="M 0 102.12938413818333 L 10 102.12938413818333 L 10 103.62938413818333 L 0 103.62938413818333 Z " stroke="none" fill-rule="evenodd" fill="#000000" fill-opacity="1" transform="matrix(1,0,0,1,5.05,13.314)" id="mark46 l" />
  <path d="M 0 97.84274313242568 L 10 97.84274313242568 L 10 99.34274313242568 L 0 99.34274313242568 Z " stroke="none" fill-rule="evenodd" fill="#000000" fill-opacity="1" transform="matrix(1,0,0,1,5.05,13.314)" id="mark47 l" />
  <path d="M 0 93.55610212666804 L 10 93.55610212666804 L 10 95.05610212666804 L 0 95.05610212666804 Z " stroke="none" fill-rule="evenodd" fill="#000000" fill-opacity="1" transform="matrix(1,0,0,1,5.05,13.314)" id="mark48 l" />
  <path d="M 0 89.26946112091039 L 10 89.26946112091039 L 10 90.76946112091039 L 0 90.76946112091039 Z " stroke="none" fill-rule="evenodd" fill="#000000" fill-opacity="1" transform="matrix(1,0,0,1,5.05,13.314)" id="mark49 l" />
  <path d="M 0 84.98282011515278 L 25 84.98282011515278 L 25 86.48282011515278 L 0 86.48282011515278 Z " stroke="none" fill-rule="evenodd" fill="#000000" fill-opacity="1" transform="matrix(1,0,0,1,5.05,13.314)" id="mark50 l" />
  <path d="M 12.204 82.51682011515278 C 12.198666666666668 82.34348678181945, 12.197333333333333 82.20415344848611, 12.2 82.09882011515278 C 12.202666666666667 81.99348678181944, 12.205333333333336 81.89148678181945, 12.208 81.79282011515278 L 13.288 81.79282011515278 C 13.280000000000001 81.87015344848612, 13.274000000000001 81.96615344848611, 13.27 82.08082011515278 C 13.265999999999998 82.19548678181944, 13.264666666666667 82.30615344848611, 13.266 82.41282011515278 C 13.267333333333333 82.51948678181945, 13.270666666666667 82.59948678181945, 13.276 82.65282011515278 C 13.286666666666665 82.77282011515278, 13.321333333333332 82.87082011515278, 13.379999999999999 82.94682011515278 C 13.438666666666666 83.02282011515278, 13.521333333333335 83.07682011515278, 13.628 83.10882011515278 L 13.628 84.00082011515278 C 13.134666666666668 83.96348678181944, 12.777333333333335 83.82882011515278, 12.556 83.59682011515278 C 12.334666666666667 83.36482011515278, 12.217333333333332 83.00482011515278, 12.204 82.51682011515278 Z M 12.304 81.18082011515278 L 12.304 77.53282011515277 L 13.372 77.53282011515277 L 13.372 81.18082011515278 Z M 13.876 80.75682011515278 L 13.876 80.00082011515278 C 13.953333333333333 79.96082011515277, 14.038666666666668 79.92882011515277, 14.132 79.90482011515277 C 14.225333333333333 79.88082011515277, 14.325333333333333 79.86882011515277, 14.432 79.86882011515277 C 14.797333333333334 79.86882011515277, 15.071333333333332 79.98415344848611, 15.254 80.21482011515278 C 15.436666666666667 80.44548678181944, 15.538666666666668 80.75948678181945, 15.56 81.15682011515278 C 15.570666666666668 81.31682011515278, 15.577333333333334 81.47548678181944, 15.58 81.63282011515278 C 15.582666666666666 81.79015344848611, 15.581333333333333 81.94348678181944, 15.576 82.09282011515278 C 15.570666666666666 82.2421534484861, 15.562666666666665 82.38215344848611, 15.552 82.51282011515278 C 15.506666666666668 83.01148678181944, 15.377333333333333 83.37682011515278, 15.164 83.60882011515278 C 14.950666666666667 83.84082011515278, 14.605333333333332 83.97148678181945, 14.128 84.00082011515278 L 14.128 83.10882011515278 C 14.237333333333334 83.07948678181945, 14.32 83.02682011515279, 14.376 82.95082011515278 C 14.432 82.87482011515277, 14.464 82.77548678181944, 14.472 82.65282011515278 C 14.495999999999999 82.36215344848611, 14.509999999999998 82.10082011515279, 14.514 81.86882011515277 C 14.518 81.63682011515277, 14.509333333333334 81.41548678181945, 14.488 81.20482011515278 C 14.472000000000001 81.05015344848613, 14.420666666666666 80.93482011515279, 14.334 80.85882011515278 C 14.247333333333334 80.78282011515277, 14.114666666666666 80.74482011515278, 13.936 80.74482011515278 C 13.925333333333333 80.74482011515278, 13.914666666666665 80.74615344848611, 13.904 80.74882011515278 C 13.893333333333334 80.75148678181944, 13.884 80.75415344848611, 13.876 80.75682011515278 Z M 13.876 78.46482011515278 L 13.876 77.53282011515277 L 15.464 77.53282011515277 L 15.464 78.46482011515278 Z M 16.196 82.52082011515277 C 16.188000000000002 82.09148678181944, 16.182666666666666 81.67482011515278, 16.18 81.27082011515277 C 16.177333333333333 80.86682011515278, 16.177999999999997 80.47148678181944, 16.182 80.08482011515278 C 16.186 79.69815344848612, 16.190666666666665 79.31682011515278, 16.196 78.94082011515277 C 16.209333333333333 78.50082011515278, 16.334000000000003 78.15548678181945, 16.57 77.90482011515277 C 16.805999999999997 77.65415344848611, 17.142666666666663 77.50882011515279, 17.58 77.46882011515278 L 17.58 78.35682011515279 C 17.382666666666665 78.41282011515278, 17.281333333333333 78.5421534484861, 17.276 78.74482011515278 C 17.262666666666668 79.11548678181944, 17.253333333333334 79.46348678181944, 17.248 79.78882011515277 C 17.242666666666665 80.1141534484861, 17.24 80.43082011515277, 17.24 80.73882011515278 C 17.24 81.04682011515278, 17.242666666666665 81.36148678181945, 17.248 81.68282011515278 C 17.253333333333334 82.00415344848611, 17.262666666666668 82.34748678181944, 17.276 82.71282011515278 C 17.281333333333333 82.92082011515278, 17.382666666666665 83.05282011515278, 17.58 83.10882011515278 L 17.58 83.99682011515277 C 17.142666666666663 83.95682011515278, 16.805999999999997 83.81082011515278, 16.57 83.55882011515278 C 16.334000000000003 83.30682011515279, 16.209333333333333 82.96082011515279, 16.196 82.52082011515277 Z M 18.084 83.99682011515277 L 18.084 83.10482011515278 C 18.268 83.05148678181945, 18.366666666666667 82.92748678181945, 18.38 82.73282011515278 C 18.398666666666667 82.26615344848611, 18.410666666666668 81.81748678181944, 18.416 81.38682011515277 C 18.421333333333333 80.9561534484861, 18.421333333333333 80.52548678181945, 18.416 80.09482011515279 C 18.410666666666668 79.66415344848612, 18.398666666666667 79.21148678181945, 18.38 78.73682011515278 C 18.374666666666666 78.54215344848612, 18.276 78.41548678181945, 18.084 78.35682011515279 L 18.084 77.46882011515278 C 18.513333333333335 77.50882011515279, 18.846666666666668 77.65415344848611, 19.084 77.90482011515277 C 19.321333333333335 78.15548678181945, 19.445333333333334 78.50082011515278, 19.456 78.94082011515277 C 19.46666666666667 79.25548678181944, 19.474666666666668 79.56548678181944, 19.48 79.87082011515278 C 19.485333333333333 80.17615344848612, 19.488 80.47682011515278, 19.488 80.77282011515278 C 19.488 81.06882011515279, 19.485333333333333 81.36215344848611, 19.48 81.65282011515278 C 19.474666666666668 81.94348678181944, 19.46666666666667 82.23282011515278, 19.456 82.52082011515277 C 19.439999999999998 82.97148678181944, 19.311999999999998 83.32015344848611, 19.072 83.56682011515278 C 18.832 83.81348678181945, 18.502666666666666 83.95682011515278, 18.084 83.99682011515277 Z M 21.944 83.93282011515278 L 21.944 77.53282011515277 L 23.003999999999998 77.53282011515277 L 23.003999999999998 83.93282011515278 Z " stroke="none" fill-rule="nonzero" fill="#000000" fill-opacity="1" transform="matrix(1,0,0,1,5.05,13.314)" id="text50 l" />
  <path d="M 0 80.69617910939513 L 10 80.69617910939513 L 10 82.19617910939513 L 0 82.19617910939513 Z " stroke="none" fill-rule="evenodd" fill="#000000" fill-opacity="1" transform="matrix(1,0,0,1,5.05,13.314)" id="mark51 l" />
  <path d="M 0 76.40953810363749 L 10 76.40953810363749 L 10 77.90953810363749 L 0 77.90953810363749 Z " stroke="none" fill-rule="evenodd" fill="#000000" fill-opacity="1" transform="matrix(1,0,0,1,5.05,13.314)" id="mark52 l" />
  <path d="M 0 72.12289709787984 L 10 72.12289709787984 L 10 73.62289709787984 L 0 73.62289709787984 Z " stroke="none" fill-rule="evenodd" fill="#000000" fill-opacity="1" transform="matrix(1,0,0,1,5.05,13.314)" id="mark53 l" />
  <path d="M 0 67.8362560921222 L 10 67.8362560921222 L 10 69.3362560921222 L 0 69.3362560921222 Z " stroke="none" fill-rule="evenodd" fill="#000000" fill-opacity="1" transform="matrix(1,0,0,1,5.05,13.314)" id="mark54 l" />
  <path d="M 0 63.54961508636458 L 25 63.54961508636458 L 25 65.04961508636458 L 0 65.04961508636458 Z " stroke="none" fill-rule="evenodd" fill="#000000" fill-opacity="1" transform="matrix(1,0,0,1,5.05,13.314)" id="mark55 l" />
  <path d="M 12.212 61.051615086364585 C 12.206666666666667 60.878281753031246, 12.205333333333332 60.73894841969791, 12.207999999999998 60.63361508636458 C 12.210666666666667 60.52828175303125, 12.213333333333335 60.42628175303125, 12.216 60.32761508636458 L 13.296 60.32761508636458 C 13.288 60.40494841969792, 13.282 60.50094841969792, 13.277999999999999 60.615615086364585 C 13.273999999999997 60.73028175303125, 13.272666666666666 60.84094841969792, 13.274 60.94761508636458 C 13.275333333333332 61.05428175303125, 13.278666666666666 61.134281753031246, 13.283999999999999 61.18761508636458 C 13.294666666666664 61.30761508636458, 13.32933333333333 61.40561508636458, 13.387999999999998 61.481615086364584 C 13.446666666666665 61.55761508636458, 13.529333333333334 61.61161508636458, 13.636 61.64361508636458 L 13.636 62.53561508636458 C 13.142666666666667 62.49828175303125, 12.785333333333334 62.36361508636459, 12.563999999999998 62.13161508636458 C 12.342666666666666 61.89961508636459, 12.225333333333332 61.53961508636459, 12.212 61.051615086364585 Z M 12.312 59.71561508636458 L 12.312 56.06761508636458 L 13.379999999999999 56.06761508636458 L 13.379999999999999 59.71561508636458 Z M 13.883999999999999 59.29161508636458 L 13.883999999999999 58.53561508636458 C 13.961333333333332 58.49561508636458, 14.046666666666667 58.463615086364584, 14.139999999999999 58.43961508636458 C 14.233333333333333 58.41561508636458, 14.333333333333332 58.40361508636458, 14.44 58.40361508636458 C 14.805333333333333 58.40361508636458, 15.07933333333333 58.51894841969792, 15.261999999999999 58.749615086364585 C 15.444666666666667 58.98028175303125, 15.546666666666667 59.29428175303125, 15.568 59.69161508636458 C 15.578666666666667 59.85161508636458, 15.585333333333333 60.01028175303125, 15.588 60.167615086364584 C 15.590666666666666 60.32494841969792, 15.589333333333332 60.478281753031254, 15.584 60.62761508636458 C 15.578666666666665 60.776948419697916, 15.570666666666664 60.91694841969792, 15.559999999999999 61.04761508636458 C 15.514666666666667 61.54628175303125, 15.385333333333332 61.91161508636458, 15.171999999999999 62.14361508636458 C 14.958666666666666 62.375615086364576, 14.613333333333332 62.506281753031246, 14.136 62.53561508636458 L 14.136 61.64361508636458 C 14.245333333333333 61.61428175303125, 14.328 61.56161508636458, 14.383999999999999 61.48561508636458 C 14.44 61.40961508636458, 14.472 61.31028175303125, 14.479999999999999 61.18761508636458 C 14.503999999999998 60.89694841969792, 14.517999999999997 60.63561508636458, 14.521999999999998 60.40361508636458 C 14.526 60.17161508636458, 14.517333333333333 59.95028175303125, 14.495999999999999 59.73961508636458 C 14.48 59.58494841969791, 14.428666666666665 59.469615086364584, 14.341999999999999 59.39361508636458 C 14.255333333333333 59.31761508636458, 14.122666666666666 59.27961508636457, 13.943999999999999 59.27961508636458 C 13.933333333333332 59.27961508636457, 13.922666666666665 59.28094841969791, 13.911999999999999 59.283615086364584 C 13.901333333333334 59.28628175303125, 13.892 59.28894841969792, 13.883999999999999 59.29161508636458 Z M 13.883999999999999 56.999615086364585 L 13.883999999999999 56.06761508636458 L 15.472 56.06761508636458 L 15.472 56.999615086364585 Z M 16.18 61.051615086364585 C 16.174666666666667 60.878281753031246, 16.173333333333332 60.73894841969791, 16.176 60.63361508636458 C 16.178666666666665 60.52828175303125, 16.181333333333335 60.42628175303125, 16.183999999999997 60.32761508636458 L 17.264 60.32761508636458 C 17.256 60.40494841969792, 17.25 60.50094841969792, 17.246 60.615615086364585 C 17.241999999999997 60.73028175303125, 17.240666666666666 60.84094841969792, 17.241999999999997 60.94761508636458 C 17.243333333333332 61.05428175303125, 17.246666666666666 61.134281753031246, 17.252 61.18761508636458 C 17.262666666666668 61.30761508636458, 17.297333333333334 61.40561508636458, 17.355999999999998 61.481615086364584 C 17.414666666666665 61.55761508636458, 17.497333333333334 61.61161508636458, 17.604 61.64361508636458 L 17.604 62.53561508636458 C 17.110666666666663 62.49828175303125, 16.75333333333333 62.36361508636459, 16.532 62.13161508636458 C 16.310666666666666 61.89961508636459, 16.19333333333333 61.53961508636459, 16.18 61.051615086364585 Z M 16.279999999999998 59.71561508636458 L 16.279999999999998 56.06761508636458 L 17.348 56.06761508636458 L 17.348 59.71561508636458 Z M 17.852 59.29161508636458 L 17.852 58.53561508636458 C 17.929333333333332 58.49561508636458, 18.014666666666667 58.463615086364584, 18.107999999999997 58.43961508636458 C 18.20133333333333 58.41561508636458, 18.301333333333332 58.40361508636458, 18.407999999999998 58.40361508636458 C 18.773333333333333 58.40361508636458, 19.047333333333334 58.51894841969792, 19.23 58.749615086364585 C 19.412666666666667 58.98028175303125, 19.514666666666663 59.29428175303125, 19.535999999999998 59.69161508636458 C 19.546666666666667 59.85161508636458, 19.55333333333333 60.01028175303125, 19.555999999999997 60.167615086364584 C 19.558666666666664 60.32494841969792, 19.557333333333332 60.478281753031254, 19.552 60.62761508636458 C 19.546666666666667 60.776948419697916, 19.538666666666668 60.91694841969792, 19.528 61.04761508636458 C 19.482666666666667 61.54628175303125, 19.353333333333335 61.91161508636458, 19.14 62.14361508636458 C 18.926666666666666 62.375615086364576, 18.581333333333333 62.506281753031246, 18.104 62.53561508636458 L 18.104 61.64361508636458 C 18.21333333333333 61.61428175303125, 18.296 61.56161508636458, 18.352 61.48561508636458 C 18.408 61.40961508636458, 18.44 61.31028175303125, 18.448 61.18761508636458 C 18.471999999999998 60.89694841969792, 18.485999999999997 60.63561508636458, 18.49 60.40361508636458 C 18.494 60.17161508636458, 18.485333333333333 59.95028175303125, 18.464 59.73961508636458 C 18.447999999999997 59.58494841969791, 18.396666666666665 59.469615086364584, 18.31 59.39361508636458 C 18.223333333333333 59.31761508636458, 18.090666666666664 59.27961508636457, 17.912 59.27961508636458 C 17.901333333333334 59.27961508636457, 17.890666666666668 59.28094841969791, 17.88 59.283615086364584 C 17.86933333333333 59.28628175303125, 17.86 59.28894841969792, 17.852 59.29161508636458 Z M 17.852 56.999615086364585 L 17.852 56.06761508636458 L 19.439999999999998 56.06761508636458 L 19.439999999999998 56.999615086364585 Z M 21.944 62.46761508636458 L 21.944 56.06761508636458 L 23.003999999999998 56.06761508636458 L 23.003999999999998 62.46761508636458 Z " stroke="none" fill-rule="nonzero" fill="#000000" fill-opacity="1" transform="matrix(1,0,0,1,5.05,13.314)" id="text55 l" />
  <path d="M 0 59.26297408060694 L 10 59.26297408060694 L 10 60.76297408060694 L 0 60.76297408060694 Z " stroke="none" fill-rule="evenodd" fill="#000000" fill-opacity="1" transform="matrix(1,0,0,1,5.05,13.314)" id="mark56 l" />
  <path d="M 0 54.97633307484929 L 10 54.97633307484929 L 10 56.47633307484929 L 0 56.47633307484929 Z " stroke="none" fill-rule="evenodd" fill="#000000" fill-opacity="1" transform="matrix(1,0,0,1,5.05,13.314)" id="mark57 l" />
  <path d="M 0 50.68969206909165 L 10 50.68969206909165 L 10 52.18969206909165 L 0 52.18969206909165 Z " stroke="none" fill-rule="evenodd" fill="#000000" fill-opacity="1" transform="matrix(1,0,0,1,5.05,13.314)" id="mark58 l" />
  <path d="M 0 46.403051063334004 L 10 46.403051063334004 L 10 47.903051063334004 L 0 47.903051063334004 Z " stroke="none" fill-rule="evenodd" fill="#000000" fill-opacity="1" transform="matrix(1,0,0,1,5.05,13.314)" id="mark59 l" />
  <path d="M 0 42.11641005757639 L 25 42.11641005757639 L 25 43.61641005757639 L 0 43.61641005757639 Z " stroke="none" fill-rule="evenodd" fill="#000000" fill-opacity="1" transform="matrix(1,0,0,1,5.05,13.314)" id="mark60 l" />
  <path d="M 12.264 39.650410057576394 C 12.261333333333333 39.38641005757639, 12.258 39.10907672424306, 12.254 38.81841005757639 C 12.25 38.52774339090973, 12.248 38.22907672424306, 12.248 37.92241005757639 C 12.248 37.61574339090973, 12.249333333333333 37.30774339090973, 12.251999999999999 36.99841005757639 C 12.254666666666665 36.68907672424306, 12.258666666666667 36.38107672424306, 12.264 36.074410057576394 C 12.271999999999998 35.61041005757639, 12.397333333333332 35.258410057576384, 12.639999999999999 35.01841005757639 C 12.882666666666665 34.778410057576394, 13.215999999999998 34.63974339090973, 13.639999999999999 34.60241005757639 L 13.639999999999999 35.49441005757639 C 13.543999999999997 35.51841005757639, 13.470666666666665 35.56241005757639, 13.419999999999998 35.62641005757639 C 13.369333333333332 35.69041005757639, 13.343999999999998 35.775743390909724, 13.344 35.882410057576394 C 13.335999999999999 36.37041005757639, 13.330666666666666 36.83707672424306, 13.328 37.28241005757639 C 13.325333333333333 37.72774339090972, 13.323999999999998 38.16107672424306, 13.323999999999998 38.58241005757639 C 13.323999999999998 39.003743390909726, 13.328 39.418410057576395, 13.335999999999999 39.82641005757639 C 13.335999999999999 39.93574339090972, 13.363333333333333 40.02507672424306, 13.418 40.09441005757639 C 13.472666666666665 40.16374339090972, 13.549333333333333 40.21307672424306, 13.648 40.24241005757639 L 13.648 41.13441005757639 C 13.159999999999998 41.10241005757639, 12.809333333333331 40.97041005757639, 12.595999999999998 40.73841005757639 C 12.382666666666665 40.50641005757639, 12.271999999999998 40.14374339090973, 12.264 39.650410057576394 Z M 13.812 37.97041005757639 L 13.812 37.22641005757639 C 13.894666666666666 37.17841005757639, 13.987333333333332 37.141076724243064, 14.09 37.11441005757639 C 14.192666666666668 37.08774339090972, 14.301333333333332 37.074410057576394, 14.415999999999999 37.074410057576394 C 14.84 37.074410057576394, 15.134 37.17374339090972, 15.297999999999998 37.37241005757639 C 15.462 37.571076724243056, 15.547999999999998 37.90241005757639, 15.556 38.36641005757639 C 15.561333333333334 38.550410057576386, 15.564666666666666 38.705743390909724, 15.565999999999999 38.83241005757639 C 15.567333333333332 38.95907672424306, 15.567333333333332 39.08374339090973, 15.565999999999999 39.20641005757639 C 15.564666666666666 39.32907672424305, 15.559999999999999 39.477076724243055, 15.552 39.650410057576394 C 15.527999999999999 40.14107672424306, 15.408 40.50374339090972, 15.192 40.73841005757639 C 14.975999999999999 40.97307672424306, 14.628 41.105076724243055, 14.148 41.13441005757639 L 14.148 40.25041005757639 C 14.251999999999999 40.22107672424306, 14.331333333333333 40.17307672424306, 14.386 40.10641005757639 C 14.440666666666665 40.03974339090972, 14.469333333333333 39.953076724243054, 14.472 39.84641005757639 C 14.477333333333332 39.69174339090973, 14.481333333333332 39.553076724243056, 14.483999999999998 39.43041005757639 C 14.486666666666666 39.30774339090972, 14.489333333333335 39.19041005757639, 14.491999999999999 39.07841005757639 C 14.494666666666667 38.96641005757639, 14.495333333333333 38.855076724243055, 14.494 38.74441005757639 C 14.492666666666667 38.63374339090972, 14.489333333333333 38.51707672424306, 14.483999999999998 38.394410057576394 C 14.481333333333332 38.245076724243056, 14.429333333333332 38.13441005757639, 14.328 38.06241005757639 C 14.226666666666665 37.99041005757639, 14.094666666666665 37.95441005757639, 13.931999999999999 37.95441005757639 C 13.913333333333334 37.95441005757639, 13.894 37.95507672424306, 13.873999999999999 37.95641005757639 C 13.854 37.95774339090973, 13.833333333333332 37.96241005757639, 13.812 37.97041005757639 Z M 14.44 36.650410057576394 C 14.448 36.55707672424306, 14.452666666666666 36.47507672424306, 14.453999999999999 36.40441005757639 C 14.455333333333332 36.333743390909724, 14.454666666666665 36.25841005757639, 14.451999999999998 36.17841005757639 C 14.449333333333332 36.09841005757639, 14.445333333333334 35.99974339090972, 14.44 35.882410057576394 C 14.434666666666665 35.78374339090973, 14.407999999999998 35.70041005757639, 14.36 35.632410057576394 C 14.311999999999998 35.564410057576396, 14.238666666666665 35.51841005757639, 14.139999999999999 35.49441005757639 L 14.139999999999999 34.60641005757639 C 14.577333333333332 34.64641005757639, 14.911333333333332 34.791076724243055, 15.142 35.040410057576395 C 15.372666666666667 35.28974339090972, 15.495999999999999 35.617076724243056, 15.511999999999999 36.022410057576394 C 15.514666666666667 36.08907672424306, 15.516666666666666 36.15241005757639, 15.517999999999999 36.21241005757639 C 15.519333333333332 36.27241005757639, 15.519333333333332 36.33641005757639, 15.517999999999999 36.40441005757639 C 15.516666666666666 36.47241005757639, 15.514666666666667 36.55441005757639, 15.511999999999999 36.650410057576394 Z M 16.196 39.65441005757639 C 16.188000000000002 39.22507672424306, 16.182666666666666 38.808410057576396, 16.18 38.40441005757639 C 16.177333333333333 38.00041005757639, 16.177999999999997 37.60507672424306, 16.182 37.21841005757639 C 16.186 36.83174339090972, 16.190666666666665 36.45041005757639, 16.196 36.074410057576394 C 16.209333333333333 35.63441005757639, 16.334000000000003 35.28907672424306, 16.57 35.03841005757639 C 16.805999999999997 34.787743390909725, 17.142666666666663 34.6424100575764, 17.58 34.60241005757639 L 17.58 35.49041005757639 C 17.382666666666665 35.546410057576395, 17.281333333333333 35.67574339090972, 17.276 35.87841005757639 C 17.262666666666668 36.24907672424306, 17.253333333333334 36.59707672424306, 17.248 36.92241005757639 C 17.242666666666665 37.247743390909726, 17.24 37.56441005757639, 17.24 37.87241005757639 C 17.24 38.18041005757639, 17.242666666666665 38.495076724243056, 17.248 38.81641005757639 C 17.253333333333334 39.137743390909726, 17.262666666666668 39.48107672424306, 17.276 39.84641005757639 C 17.281333333333333 40.05441005757639, 17.382666666666665 40.18641005757639, 17.58 40.24241005757639 L 17.58 41.13041005757639 C 17.142666666666663 41.09041005757639, 16.805999999999997 40.94441005757639, 16.57 40.69241005757639 C 16.334000000000003 40.440410057576386, 16.209333333333333 40.09441005757639, 16.196 39.65441005757639 Z M 18.084 41.13041005757639 L 18.084 40.23841005757639 C 18.268 40.18507672424305, 18.366666666666667 40.06107672424305, 18.38 39.86641005757639 C 18.398666666666667 39.39974339090972, 18.410666666666668 38.95107672424306, 18.416 38.52041005757639 C 18.421333333333333 38.089743390909724, 18.421333333333333 37.65907672424306, 18.416 37.22841005757639 C 18.410666666666668 36.79774339090972, 18.398666666666667 36.34507672424306, 18.38 35.87041005757639 C 18.374666666666666 35.67574339090972, 18.276 35.54907672424306, 18.084 35.49041005757639 L 18.084 34.60241005757639 C 18.513333333333335 34.6424100575764, 18.846666666666668 34.787743390909725, 19.084 35.03841005757639 C 19.321333333333335 35.28907672424306, 19.445333333333334 35.63441005757639, 19.456 36.074410057576394 C 19.46666666666667 36.38907672424306, 19.474666666666668 36.69907672424306, 19.48 37.00441005757639 C 19.485333333333333 37.30974339090972, 19.488 37.610410057576395, 19.488 37.906410057576394 C 19.488 38.202410057576394, 19.485333333333333 38.49574339090972, 19.48 38.78641005757639 C 19.474666666666668 39.07707672424306, 19.46666666666667 39.36641005757639, 19.456 39.65441005757639 C 19.439999999999998 40.10507672424306, 19.311999999999998 40.45374339090973, 19.072 40.70041005757639 C 18.832 40.947076724243054, 18.502666666666666 41.09041005757639, 18.084 41.13041005757639 Z M 21.944 41.06641005757639 L 21.944 34.66641005757639 L 23.003999999999998 34.66641005757639 L 23.003999999999998 41.06641005757639 Z " stroke="none" fill-rule="nonzero" fill="#000000" fill-opacity="1" transform="matrix(1,0,0,1,5.05,13.314)" id="text60 l" />
  <path d="M 0 37.829769051818744 L 10 37.829769051818744 L 10 39.329769051818744 L 0 39.329769051818744 Z " stroke="none" fill-rule="evenodd" fill="#000000" fill-opacity="1" transform="matrix(1,0,0,1,5.05,13.314)" id="mark61 l" />
  <path d="M 0 33.5431280460611 L 10 33.5431280460611 L 10 35.0431280460611 L 0 35.0431280460611 Z " stroke="none" fill-rule="evenodd" fill="#000000" fill-opacity="1" transform="matrix(1,0,0,1,5.05,13.314)" id="mark62 l" />
  <path d="M 0 29.256487040303455 L 10 29.256487040303455 L 10 30.756487040303455 L 0 30.756487040303455 Z " stroke="none" fill-rule="evenodd" fill="#000000" fill-opacity="1" transform="matrix(1,0,0,1,5.05,13.314)" id="mark63 l" />
  <path d="M 0 24.96984603454581 L 10 24.96984603454581 L 10 26.46984603454581 L 0 26.46984603454581 Z " stroke="none" fill-rule="evenodd" fill="#000000" fill-opacity="1" transform="matrix(1,0,0,1,5.05,13.314)" id="mark64 l" />
  <path d="M 0 20.683205028788166 L 25 20.683205028788166 L 25 22.183205028788166 L 0 22.183205028788166 Z " stroke="none" fill-rule="evenodd" fill="#000000" fill-opacity="1" transform="matrix(1,0,0,1,5.05,13.314)" id="mark65 l" />
  <path d="M 12.272 18.217205028788165 C 12.269333333333332 17.95320502878816, 12.266 17.67587169545483, 12.262 17.385205028788164 C 12.258000000000001 17.094538362121497, 12.256 16.795871695454828, 12.256 16.489205028788163 C 12.256 16.182538362121498, 12.257333333333335 15.874538362121498, 12.26 15.565205028788165 C 12.262666666666668 15.255871695454832, 12.266666666666666 14.94787169545483, 12.272 14.641205028788164 C 12.280000000000001 14.177205028788165, 12.405333333333335 13.825205028788165, 12.648 13.585205028788165 C 12.890666666666668 13.345205028788165, 13.224 13.206538362121496, 13.648 13.169205028788165 L 13.648 14.061205028788166 C 13.552 14.085205028788167, 13.478666666666665 14.129205028788165, 13.428 14.193205028788165 C 13.377333333333333 14.257205028788164, 13.352 14.342538362121497, 13.352 14.449205028788164 C 13.344 14.937205028788165, 13.338666666666665 15.403871695454832, 13.336 15.849205028788166 C 13.333333333333332 16.2945383621215, 13.332 16.727871695454834, 13.332 17.149205028788167 C 13.332 17.5705383621215, 13.335999999999999 17.985205028788165, 13.344 18.393205028788167 C 13.343999999999998 18.5025383621215, 13.371333333333332 18.59187169545483, 13.426 18.661205028788164 C 13.480666666666666 18.7305383621215, 13.557333333333332 18.77987169545483, 13.656 18.809205028788163 L 13.656 19.701205028788166 C 13.168 19.669205028788163, 12.817333333333334 19.537205028788165, 12.604 19.305205028788166 C 12.390666666666668 19.073205028788166, 12.280000000000001 18.710538362121497, 12.272 18.217205028788165 Z M 13.82 16.537205028788165 L 13.82 15.793205028788165 C 13.902666666666665 15.745205028788165, 13.995333333333331 15.70787169545483, 14.097999999999999 15.681205028788165 C 14.200666666666667 15.654538362121496, 14.309333333333333 15.641205028788164, 14.424 15.641205028788164 C 14.848 15.641205028788164, 15.142000000000001 15.740538362121498, 15.306000000000001 15.939205028788166 C 15.47 16.13787169545483, 15.556000000000001 16.469205028788164, 15.564 16.933205028788166 C 15.569333333333333 17.117205028788167, 15.572666666666667 17.2725383621215, 15.574 17.399205028788167 C 15.575333333333333 17.525871695454832, 15.575333333333333 17.650538362121498, 15.574 17.773205028788166 C 15.572666666666667 17.895871695454833, 15.567999999999998 18.043871695454833, 15.56 18.217205028788165 C 15.536000000000001 18.707871695454834, 15.416 19.0705383621215, 15.2 19.305205028788166 C 14.984 19.53987169545483, 14.636 19.671871695454833, 14.156 19.701205028788166 L 14.156 18.817205028788166 C 14.259999999999998 18.787871695454832, 14.339333333333332 18.73987169545483, 14.394 18.673205028788164 C 14.448666666666666 18.606538362121498, 14.477333333333334 18.51987169545483, 14.48 18.413205028788166 C 14.485333333333333 18.2585383621215, 14.489333333333335 18.11987169545483, 14.492 17.997205028788166 C 14.494666666666667 17.8745383621215, 14.497333333333334 17.757205028788164, 14.5 17.645205028788165 C 14.502666666666666 17.533205028788167, 14.503333333333332 17.421871695454833, 14.501999999999999 17.311205028788166 C 14.500666666666666 17.2005383621215, 14.497333333333334 17.08387169545483, 14.492 16.961205028788164 C 14.489333333333335 16.811871695454833, 14.437333333333335 16.701205028788166, 14.336 16.629205028788164 C 14.234666666666666 16.557205028788168, 14.102666666666666 16.521205028788167, 13.94 16.521205028788167 C 13.921333333333333 16.521205028788167, 13.902000000000001 16.521871695454834, 13.882 16.523205028788166 C 13.862000000000002 16.524538362121497, 13.841333333333335 16.529205028788166, 13.82 16.537205028788165 Z M 14.448 15.217205028788165 C 14.456 15.123871695454831, 14.460666666666668 15.04187169545483, 14.462 14.971205028788166 C 14.463333333333335 14.900538362121498, 14.462666666666667 14.825205028788165, 14.46 14.745205028788165 C 14.457333333333333 14.665205028788165, 14.453333333333333 14.566538362121499, 14.448 14.449205028788164 C 14.442666666666668 14.350538362121497, 14.416 14.267205028788165, 14.368 14.199205028788166 C 14.32 14.131205028788166, 14.246666666666666 14.085205028788167, 14.148 14.061205028788166 L 14.148 13.173205028788164 C 14.585333333333335 13.213205028788163, 14.919333333333334 13.357871695454833, 15.15 13.607205028788165 C 15.380666666666666 13.856538362121498, 15.504000000000001 14.183871695454831, 15.52 14.589205028788164 C 15.522666666666666 14.655871695454833, 15.524666666666668 14.719205028788167, 15.526 14.779205028788166 C 15.527333333333335 14.839205028788164, 15.527333333333335 14.903205028788165, 15.526 14.971205028788166 C 15.524666666666668 15.039205028788167, 15.522666666666666 15.121205028788166, 15.52 15.217205028788165 Z M 16.18 18.217205028788165 C 16.174666666666667 18.043871695454833, 16.173333333333332 17.9045383621215, 16.176 17.799205028788165 C 16.178666666666665 17.69387169545483, 16.181333333333335 17.59187169545483, 16.183999999999997 17.493205028788164 L 17.264 17.493205028788164 C 17.256 17.570538362121496, 17.25 17.6665383621215, 17.246 17.781205028788165 C 17.241999999999997 17.89587169545483, 17.240666666666666 18.006538362121496, 17.241999999999997 18.113205028788165 C 17.243333333333332 18.219871695454835, 17.246666666666666 18.299871695454833, 17.252 18.353205028788164 C 17.262666666666668 18.473205028788165, 17.297333333333334 18.571205028788164, 17.355999999999998 18.647205028788164 C 17.414666666666665 18.723205028788165, 17.497333333333334 18.777205028788167, 17.604 18.809205028788163 L 17.604 19.701205028788166 C 17.110666666666663 19.66387169545483, 16.75333333333333 19.529205028788166, 16.532 19.297205028788166 C 16.310666666666666 19.065205028788164, 16.19333333333333 18.705205028788164, 16.18 18.217205028788165 Z M 16.279999999999998 16.881205028788166 L 16.279999999999998 13.233205028788165 L 17.348 13.233205028788165 L 17.348 16.881205028788166 Z M 17.852 16.457205028788167 L 17.852 15.701205028788165 C 17.929333333333332 15.661205028788164, 18.014666666666667 15.629205028788164, 18.107999999999997 15.605205028788165 C 18.20133333333333 15.581205028788165, 18.301333333333332 15.569205028788165, 18.407999999999998 15.569205028788165 C 18.773333333333333 15.569205028788165, 19.047333333333334 15.684538362121499, 19.23 15.915205028788165 C 19.412666666666667 16.14587169545483, 19.514666666666663 16.45987169545483, 19.535999999999998 16.857205028788165 C 19.546666666666667 17.01720502878816, 19.55333333333333 17.17587169545483, 19.555999999999997 17.333205028788164 C 19.558666666666664 17.490538362121498, 19.557333333333332 17.64387169545483, 19.552 17.793205028788165 C 19.546666666666667 17.9425383621215, 19.538666666666668 18.0825383621215, 19.528 18.213205028788167 C 19.482666666666667 18.711871695454832, 19.353333333333335 19.077205028788164, 19.14 19.309205028788163 C 18.926666666666666 19.541205028788166, 18.581333333333333 19.671871695454833, 18.104 19.701205028788166 L 18.104 18.809205028788163 C 18.21333333333333 18.77987169545483, 18.296 18.727205028788166, 18.352 18.651205028788166 C 18.408 18.575205028788165, 18.44 18.47587169545483, 18.448 18.353205028788164 C 18.471999999999998 18.062538362121497, 18.485999999999997 17.801205028788164, 18.49 17.569205028788165 C 18.494 17.337205028788166, 18.485333333333333 17.115871695454832, 18.464 16.905205028788163 C 18.447999999999997 16.750538362121496, 18.396666666666665 16.635205028788164, 18.31 16.559205028788163 C 18.223333333333333 16.483205028788163, 18.090666666666664 16.445205028788166, 17.912 16.445205028788166 C 17.901333333333334 16.445205028788166, 17.890666666666668 16.446538362121498, 17.88 16.449205028788164 C 17.86933333333333 16.45187169545483, 17.86 16.454538362121497, 17.852 16.457205028788167 Z M 17.852 14.165205028788165 L 17.852 13.233205028788165 L 19.439999999999998 13.233205028788165 L 19.439999999999998 14.165205028788165 Z M 21.944 19.633205028788165 L 21.944 13.233205028788165 L 23.003999999999998 13.233205028788165 L 23.003999999999998 19.633205028788165 Z " stroke="none" fill-rule="nonzero" fill="#000000" fill-opacity="1" transform="matrix(1,0,0,1,5.05,13.314)" id="text65 l" />
  <path d="M 0 16.39656402303052 L 10 16.39656402303052 L 10 17.89656402303052 L 0 17.89656402303052 Z " stroke="none" fill-rule="evenodd" fill="#000000" fill-opacity="1" transform="matrix(1,0,0,1,5.05,13.314)" id="mark66 l" />
  <path d="M 0 12.109923017272877 L 10 12.109923017272877 L 10 13.609923017272877 L 0 13.609923017272877 Z " stroke="none" fill-rule="evenodd" fill="#000000" fill-opacity="1" transform="matrix(1,0,0,1,5.05,13.314)" id="mark67 l" />
  <path d="M 0 7.823282011515289 L 10 7.823282011515289 L 10 9.323282011515289 L 0 9.323282011515289 Z " stroke="none" fill-rule="evenodd" fill="#000000" fill-opacity="1" transform="matrix(1,0,0,1,5.05,13.314)" id="mark68 l" />
  <path d="M 0 3.5366410057576445 L 10 3.5366410057576445 L 10 5.0366410057576445 L 0 5.0366410057576445 Z " stroke="none" fill-rule="evenodd" fill="#000000" fill-opacity="1" transform="matrix(1,0,0,1,5.05,13.314)" id="mark69 l" />
  <path d="M 0 -0.75 L 25 -0.75 L 25 0.75 L 0 0.75 Z " stroke="none" fill-rule="evenodd" fill="#000000" fill-opacity="1" transform="matrix(1,0,0,1,5.05,13.314)" id="mark70 l" />
  <path d="M 12.331999999999999 -7.268 L 12.331999999999999 -8.2 L 15.691999999999998 -8.2 L 15.691999999999998 -7.268 Z M 12.783999999999999 -1.7999999999999998 L 14.471999999999998 -6.8759999999999994 L 15.559999999999999 -6.8759999999999994 L 13.899999999999999 -1.7999999999999998 Z M 16.195999999999998 -3.2119999999999997 C 16.188 -3.641333333333333, 16.182666666666666 -4.058, 16.18 -4.462 C 16.177333333333333 -4.866, 16.177999999999997 -5.261333333333333, 16.182 -5.648 C 16.186 -6.034666666666666, 16.190666666666665 -6.416, 16.195999999999998 -6.792 C 16.20933333333333 -7.231999999999999, 16.333999999999996 -7.577333333333334, 16.569999999999997 -7.828 C 16.805999999999997 -8.078666666666667, 17.142666666666663 -8.224, 17.58 -8.264 L 17.58 -7.3759999999999994 C 17.382666666666665 -7.32, 17.281333333333333 -7.190666666666667, 17.275999999999996 -6.9879999999999995 C 17.262666666666664 -6.617333333333333, 17.25333333333333 -6.269333333333333, 17.247999999999998 -5.944 C 17.242666666666665 -5.618666666666666, 17.24 -5.302, 17.24 -4.994 C 17.24 -4.686, 17.242666666666665 -4.371333333333333, 17.247999999999998 -4.05 C 17.25333333333333 -3.7286666666666664, 17.262666666666664 -3.3853333333333326, 17.275999999999996 -3.0199999999999996 C 17.281333333333333 -2.812, 17.382666666666665 -2.6799999999999997, 17.58 -2.6239999999999997 L 17.58 -1.7359999999999998 C 17.142666666666663 -1.7759999999999998, 16.805999999999997 -1.9219999999999997, 16.569999999999997 -2.174 C 16.333999999999996 -2.4259999999999997, 16.20933333333333 -2.772, 16.195999999999998 -3.2119999999999997 Z M 18.084 -1.7359999999999998 L 18.084 -2.6279999999999997 C 18.268 -2.681333333333333, 18.366666666666667 -2.8053333333333335, 18.38 -3 C 18.398666666666664 -3.4666666666666663, 18.410666666666664 -3.915333333333333, 18.415999999999997 -4.346 C 18.42133333333333 -4.776666666666666, 18.42133333333333 -5.207333333333333, 18.415999999999997 -5.638 C 18.410666666666664 -6.068666666666666, 18.398666666666664 -6.521333333333333, 18.38 -6.9959999999999996 C 18.374666666666666 -7.190666666666667, 18.276 -7.317333333333334, 18.084 -7.3759999999999994 L 18.084 -8.264 C 18.513333333333332 -8.224, 18.846666666666664 -8.078666666666667, 19.083999999999996 -7.828 C 19.32133333333333 -7.577333333333334, 19.44533333333333 -7.231999999999999, 19.456 -6.792 C 19.466666666666665 -6.477333333333332, 19.474666666666664 -6.167333333333333, 19.479999999999997 -5.861999999999999 C 19.48533333333333 -5.556666666666667, 19.488 -5.256, 19.488 -4.96 C 19.488 -4.664, 19.48533333333333 -4.370666666666667, 19.479999999999997 -4.08 C 19.474666666666664 -3.7893333333333334, 19.466666666666665 -3.5, 19.456 -3.2119999999999997 C 19.439999999999998 -2.761333333333333, 19.311999999999998 -2.4126666666666665, 19.072 -2.166 C 18.831999999999997 -1.9193333333333331, 18.502666666666663 -1.7759999999999998, 18.084 -1.7359999999999998 Z M 21.944 -1.7999999999999998 L 21.944 -8.2 L 23.003999999999998 -8.2 L 23.003999999999998 -1.7999999999999998 Z " stroke="none" fill-rule="nonzero" fill="#000000" fill-opacity="1" transform="matrix(1,0,0,1,5.05,13.314)" id="text70 l" />
  <path d="M -5 -13.264 L 30 -13.264 L 30 302.54622939727705 L -5 302.54622939727705 Z " stroke="#FF0000" stroke-opacity="1" stroke-width="0.1" stroke-linecap="butt" stroke-linejoin="miter" fill="none" transform="matrix(1,0,0,1,5.05,13.314)" />
</svg>