<?xml version="1.0" encoding="utf-8"?>
<svg xmlns="http://www.w3.org/2000/svg" xmlns:xlink="http://www.w3.org/1999/xlink" version="1.1" width="35mm" height="318.06454mm" viewBox="0 0 35 318.06454">
  <defs />
  <style>svg { background: #ffffff; }</style>
  <rect id="cutLine" fill="none" stroke="red" stroke-width="0.05" width="35" height="318.06454" />
  <g id="scale" transform="translate(5, 5)">
    <rect id="mark_1" fill="Black" x="0" y="306.56454" width="25" height="1.5" />
    <path fill="Black" d="M 0.484375 0.95703125 L 0.484375 6.4003906 L 1.5839844 6.4003906 L 1.5839844 0 L 0.7050781 0 L 0 0.5761719 L 0.033203125 0.95703125 L 0.484375 0.95703125 Z M 4.513672 7.7246094 Q 4.7929688 7.9121094, 5.404297 7.9453125 L 5.404297 7.2128906 Q 5.189453 7.1933594, 5.064453 7.125 Q 4.9414062 7.0566406, 4.904297 6.9160156 Q 4.892578 6.8691406, 4.888672 6.8085938 Q 4.8847656 6.748047, 4.904297 6.6933594 Q 4.9375 6.564453, 5.0585938 6.4882812 Q 5.1816406 6.4121094, 5.404297 6.388672 L 5.404297 5.6679688 Q 5.1640625 5.6484375, 5.0898438 5.5996094 Q 5.017578 5.548828, 5.017578 5.4492188 L 5.017578 5.4160156 Q 5.017578 5.3164062, 5.1035156 5.2617188 Q 5.189453 5.205078, 5.408203 5.1875 L 5.408203 4.3515625 Q 5.2734375 4.3085938, 5.1972656 4.2109375 Q 5.1210938 4.1132812, 5.109375 3.953125 Q 5.0976562 3.7636719, 5.095703 3.5683594 Q 5.09375 3.3730469, 5.0976562 3.1679688 Q 5.1015625 2.9609375, 5.109375 2.7480469 Q 5.1171875 2.5878906, 5.189453 2.4902344 Q 5.2617188 2.3925781, 5.404297 2.3554688 L 5.404297 1.5332031 Q 4.7441406 1.5761719, 4.4316406 1.8925781 Q 4.1210938 2.2089844, 4.0722656 2.8691406 Q 4.0683594 2.9960938, 4.064453 3.1074219 Q 4.060547 3.2167969, 4.060547 3.3242188 Q 4.060547 3.4316406, 4.064453 3.5546875 Q 4.0683594 3.6757812, 4.0722656 3.8320312 Q 4.1054688 4.2929688, 4.2617188 4.591797 Q 4.419922 4.888672, 4.7402344 5.029297 L 4.7402344 5.1757812 Q 4.4921875 5.205078, 4.3378906 5.3398438 Q 4.185547 5.4726562, 4.1640625 5.6367188 Q 4.1601562 5.6972656, 4.15625 5.7441406 Q 4.1523438 5.7890625, 4.1640625 5.876953 Q 4.216797 6.251953, 4.7285156 6.328125 L 4.7285156 6.4804688 Q 4.4609375 6.5195312, 4.326172 6.658203 Q 4.1933594 6.796875, 4.1640625 6.9882812 Q 4.15625 7.048828, 4.1621094 7.1289062 Q 4.1679688 7.2089844, 4.1816406 7.2597656 Q 4.236328 7.5371094, 4.513672 7.7246094 Z M 5.904297 4.3476562 L 5.904297 5.171875 Q 6.5722656 5.1289062, 6.876953 4.810547 Q 7.1816406 4.4921875, 7.220703 3.8320312 Q 7.232422 3.671875, 7.234375 3.5527344 Q 7.236328 3.4316406, 7.234375 3.3183594 Q 7.232422 3.2050781, 7.2285156 3.0644531 L 7.2285156 2.84375 Q 7.2285156 2.5957031, 7.341797 2.4980469 Q 7.4570312 2.4003906, 7.6601562 2.4003906 L 7.7773438 2.4003906 L 7.7773438 1.5996094 Q 7.4921875 1.6035156, 7.3398438 1.7148438 Q 7.189453 1.8242188, 7.15625 2.0605469 L 7.0039062 2.0605469 Q 6.716797 1.5839844, 5.904297 1.5332031 L 5.904297 2.3613281 Q 6.0371094 2.3964844, 6.107422 2.4902344 Q 6.1777344 2.5839844, 6.185547 2.7324219 Q 6.1972656 2.9492188, 6.201172 3.1660156 Q 6.205078 3.3808594, 6.201172 3.5878906 Q 6.1972656 3.7929688, 6.185547 3.9804688 Q 6.1777344 4.1210938, 6.1054688 4.2128906 Q 6.033203 4.3046875, 5.904297 4.3476562 Z M 5.904297 7.2128906 L 5.904297 7.939453 Q 6.5 7.904297, 6.904297 7.689453 Q 7.3085938 7.4765625, 7.3808594 6.984375 Q 7.3964844 6.8808594, 7.3945312 6.7890625 Q 7.392578 6.6972656, 7.3808594 6.6367188 Q 7.3085938 6.1972656, 6.955078 5.9628906 Q 6.6015625 5.7285156, 5.904297 5.6875 L 5.904297 6.388672 Q 6.1445312 6.404297, 6.298828 6.46875 Q 6.453125 6.533203, 6.4882812 6.65625 Q 6.517578 6.7285156, 6.5195312 6.783203 Q 6.5214844 6.8398438, 6.4960938 6.9003906 Q 6.453125 7.0371094, 6.3007812 7.111328 Q 6.1484375 7.1875, 5.904297 7.2128906 Z M 8.183594 3.15625 Q 8.185547 3.3242188, 8.193359 3.4042969 L 9.212891 3.4042969 Q 9.208984 3.3652344, 9.207031 3.21875 Q 9.205078 3.0722656, 9.207031 2.9179688 Q 9.208984 2.7636719, 9.212891 2.7050781 Q 9.220703 2.5566406, 9.285156 2.4707031 Q 9.349609 2.3847656, 9.464844 2.3476562 L 9.464844 1.5332031 Q 8.765625 1.5761719, 8.486328 1.8886719 Q 8.208984 2.2011719, 8.185547 2.828125 Q 8.181641 2.9882812, 8.183594 3.15625 Z M 10.171875 2.7558594 L 10.171875 6.4003906 L 11.205078 6.4003906 L 11.212891 2.9921875 Q 11.216797 2.2714844, 10.947266 1.9257812 Q 10.677734 1.5800781, 9.964844 1.5332031 L 9.964844 2.3730469 Q 10.072266 2.4160156, 10.121094 2.5117188 Q 10.171875 2.6074219, 10.171875 2.7558594 Z M 8.037109 5.1757812 Q 8.037109 5.28125, 8.041016 5.3554688 Q 8.087891 5.9570312, 8.347656 6.2089844 Q 8.609375 6.4609375, 9.144531 6.4609375 Q 9.4765625 6.4609375, 9.671875 6.3203125 L 9.671875 5.6875 Q 9.6328125 5.701172, 9.572266 5.701172 Q 9.361328 5.701172, 9.2421875 5.591797 Q 9.125 5.4804688, 9.105469 5.28125 Q 9.1015625 5.1972656, 9.1015625 5.1484375 Q 9.1015625 5.0996094, 9.105469 5 Q 9.113281 4.8007812, 9.189453 4.623047 Q 9.265625 4.4453125, 9.517578 4.3359375 Q 9.560547 4.3164062, 9.597656 4.296875 L 9.671875 4.2597656 L 9.671875 3.5722656 Q 9.568359 3.6035156, 9.466797 3.6386719 Q 9.365234 3.671875, 9.261719 3.7128906 Q 8.824219 3.8691406, 8.564453 4.044922 Q 8.3046875 4.220703, 8.183594 4.451172 Q 8.064453 4.6796875, 8.041016 4.9960938 Q 8.037109 5.0683594, 8.037109 5.1757812 Z M 12.193359 6.4003906 L 12.193359 0 L 13.251953 0 L 13.251953 6.4003906 L 12.193359 6.4003906 Z" transform="translate(9.748047, 297.51456)" />
    <rect id="mark_2" fill="Black" x="0" y="269.37524" width="25" height="1.5" />
    <path fill="Black" d="M 0.005859375 6.203125 Q 0.0078125 6.3203125, 0.01171875 6.46875 L 1.0917969 6.46875 L 1.0917969 5.1757812 Q 1.0917969 5.0214844, 1.1328125 4.841797 Q 1.1757812 4.6601562, 1.2734375 4.5 Q 1.3710938 4.3398438, 1.5429688 4.248047 L 2.1464844 3.9199219 Q 2.4707031 3.7402344, 2.7167969 3.5136719 Q 2.9628906 3.2851562, 3.1074219 2.9726562 Q 3.2519531 2.6601562, 3.2675781 2.2324219 Q 3.2714844 2.1445312, 3.2734375 2.0527344 Q 3.2753906 1.9609375, 3.2753906 1.8671875 Q 3.2753906 1.7734375, 3.2734375 1.6738281 Q 3.2714844 1.5722656, 3.2675781 1.4765625 Q 3.234375 0.7402344, 2.9160156 0.39453125 Q 2.5996094 0.048828125, 1.8671875 0 L 1.8671875 0.8886719 Q 2.0234375 0.93359375, 2.1054688 1.0351562 Q 2.1875 1.1367188, 2.1953125 1.2929688 Q 2.2070312 1.5136719, 2.2050781 1.7636719 Q 2.203125 2.0136719, 2.1875 2.2324219 Q 2.1757812 2.4199219, 2.0976562 2.6347656 Q 2.0195312 2.8496094, 1.7382812 3 L 1.2070312 3.2890625 Q 0.8183594 3.5, 0.5546875 3.7734375 Q 0.29101562 4.044922, 0.15234375 4.390625 Q 0.015625 4.736328, 0.00390625 5.1757812 Q 0 5.3691406, 0 5.5117188 L 0 5.765625 Q 0 5.876953, 0.001953125 5.9804688 Q 0.00390625 6.0839844, 0.005859375 6.203125 Z M 0.0078125 2.0839844 Q 0.01171875 2.2519531, 0.01953125 2.4296875 L 1.0839844 2.4296875 Q 1.0664062 2.1132812, 1.0683594 1.8457031 Q 1.0703125 1.5761719, 1.0800781 1.265625 Q 1.0839844 1.1289062, 1.1503906 1.0332031 Q 1.21875 0.9375, 1.3632812 0.8925781 L 1.3632812 0 Q 0.67578125 0.052734375, 0.35351562 0.3984375 Q 0.03125 0.7441406, 0.00390625 1.4765625 Q 0 1.6171875, 0.001953125 1.7675781 Q 0.00390625 1.9160156, 0.0078125 2.0839844 Z M 1.5957031 5.5371094 L 1.5957031 6.46875 L 3.1914062 6.46875 L 3.1914062 5.5371094 L 1.5957031 5.5371094 Z M 6.4121094 7.7929688 Q 6.6914062 7.9804688, 7.3027344 8.013672 L 7.3027344 7.28125 Q 7.0878906 7.2617188, 6.9628906 7.1933594 Q 6.8398438 7.125, 6.8027344 6.984375 Q 6.7910156 6.9375, 6.7871094 6.876953 Q 6.783203 6.8164062, 6.8027344 6.7617188 Q 6.8359375 6.6328125, 6.9570312 6.5566406 Q 7.080078 6.4804688, 7.3027344 6.4570312 L 7.3027344 5.736328 Q 7.0625 5.716797, 6.9882812 5.6679688 Q 6.9160156 5.6171875, 6.9160156 5.517578 L 6.9160156 5.484375 Q 6.9160156 5.3847656, 7.001953 5.330078 Q 7.0878906 5.2734375, 7.3066406 5.2558594 L 7.3066406 4.419922 Q 7.171875 4.376953, 7.095703 4.279297 Q 7.0195312 4.1816406, 7.0078125 4.0214844 Q 6.9960938 3.8320312, 6.9941406 3.6367188 Q 6.9921875 3.4414062, 6.9960938 3.2363281 Q 7 3.0292969, 7.0078125 2.8164062 Q 7.015625 2.65625, 7.0878906 2.5585938 Q 7.1601562 2.4609375, 7.3027344 2.4238281 L 7.3027344 1.6015625 Q 6.642578 1.6445312, 6.330078 1.9609375 Q 6.0195312 2.2773438, 5.970703 2.9375 Q 5.966797 3.0644531, 5.9628906 3.1757812 Q 5.9589844 3.2851562, 5.9589844 3.3925781 Q 5.9589844 3.5, 5.9628906 3.6230469 Q 5.966797 3.7441406, 5.970703 3.9003906 Q 6.0039062 4.361328, 6.1601562 4.6601562 Q 6.3183594 4.9570312, 6.638672 5.0976562 L 6.638672 5.2441406 Q 6.390625 5.2734375, 6.236328 5.408203 Q 6.0839844 5.5410156, 6.0625 5.705078 Q 6.0585938 5.765625, 6.0546875 5.8125 Q 6.0507812 5.857422, 6.0625 5.9453125 Q 6.1152344 6.3203125, 6.626953 6.3964844 L 6.626953 6.548828 Q 6.359375 6.5878906, 6.2246094 6.7265625 Q 6.091797 6.8652344, 6.0625 7.0566406 Q 6.0546875 7.1171875, 6.060547 7.1972656 Q 6.0664062 7.2773438, 6.080078 7.328125 Q 6.1347656 7.6054688, 6.4121094 7.7929688 Z M 7.8027344 4.4160156 L 7.8027344 5.2402344 Q 8.470703 5.1972656, 8.775391 4.8789062 Q 9.080078 4.560547, 9.119141 3.9003906 Q 9.130859 3.7402344, 9.1328125 3.6210938 Q 9.134766 3.5, 9.1328125 3.3867188 Q 9.130859 3.2734375, 9.126953 3.1328125 L 9.126953 2.9121094 Q 9.126953 2.6640625, 9.240234 2.5664062 Q 9.355469 2.46875, 9.558594 2.46875 L 9.675781 2.46875 L 9.675781 1.6679688 Q 9.390625 1.671875, 9.238281 1.7832031 Q 9.087891 1.8925781, 9.0546875 2.1289062 L 8.902344 2.1289062 Q 8.615234 1.6523438, 7.8027344 1.6015625 L 7.8027344 2.4296875 Q 7.935547 2.4648438, 8.005859 2.5585938 Q 8.076172 2.6523438, 8.083984 2.8007812 Q 8.095703 3.0175781, 8.099609 3.234375 Q 8.103516 3.4492188, 8.099609 3.65625 Q 8.095703 3.8613281, 8.083984 4.048828 Q 8.076172 4.189453, 8.003906 4.28125 Q 7.9316406 4.373047, 7.8027344 4.4160156 Z M 7.8027344 7.28125 L 7.8027344 8.0078125 Q 8.3984375 7.9726562, 8.802734 7.7578125 Q 9.207031 7.544922, 9.279297 7.0527344 Q 9.294922 6.9492188, 9.292969 6.857422 Q 9.291016 6.765625, 9.279297 6.705078 Q 9.207031 6.265625, 8.853516 6.03125 Q 8.5 5.796875, 7.8027344 5.7558594 L 7.8027344 6.4570312 Q 8.042969 6.4726562, 8.197266 6.5371094 Q 8.3515625 6.6015625, 8.386719 6.7246094 Q 8.416016 6.796875, 8.417969 6.8515625 Q 8.419922 6.908203, 8.394531 6.96875 Q 8.3515625 7.1054688, 8.199219 7.1796875 Q 8.046875 7.2558594, 7.8027344 7.28125 Z M 10.082031 3.2246094 Q 10.083984 3.3925781, 10.091797 3.4726562 L 11.111328 3.4726562 Q 11.107422 3.4335938, 11.105469 3.2871094 Q 11.103516 3.140625, 11.105469 2.9863281 Q 11.107422 2.8320312, 11.111328 2.7734375 Q 11.119141 2.625, 11.183594 2.5390625 Q 11.248047 2.453125, 11.363281 2.4160156 L 11.363281 1.6015625 Q 10.6640625 1.6445312, 10.384766 1.9570312 Q 10.107422 2.2695312, 10.083984 2.8964844 Q 10.080078 3.0566406, 10.082031 3.2246094 Z M 12.0703125 2.8242188 L 12.0703125 6.46875 L 13.103516 6.46875 L 13.111328 3.0605469 Q 13.115234 2.3398438, 12.845703 1.9941406 Q 12.576172 1.6484375, 11.863281 1.6015625 L 11.863281 2.4414062 Q 11.970703 2.484375, 12.019531 2.5800781 Q 12.0703125 2.6757812, 12.0703125 2.8242188 Z M 9.935547 5.2441406 Q 9.935547 5.3496094, 9.939453 5.423828 Q 9.986328 6.0253906, 10.246094 6.2773438 Q 10.5078125 6.529297, 11.042969 6.529297 Q 11.375 6.529297, 11.5703125 6.388672 L 11.5703125 5.7558594 Q 11.53125 5.7695312, 11.470703 5.7695312 Q 11.259766 5.7695312, 11.140625 5.6601562 Q 11.0234375 5.548828, 11.003906 5.3496094 Q 11 5.265625, 11 5.216797 Q 11 5.1679688, 11.003906 5.0683594 Q 11.011719 4.8691406, 11.087891 4.6914062 Q 11.1640625 4.513672, 11.416016 4.404297 Q 11.458984 4.3847656, 11.496094 4.3652344 L 11.5703125 4.328125 L 11.5703125 3.640625 Q 11.466797 3.671875, 11.365234 3.7070312 Q 11.263672 3.7402344, 11.160156 3.78125 Q 10.722656 3.9375, 10.462891 4.1132812 Q 10.203125 4.2890625, 10.082031 4.5195312 Q 9.962891 4.748047, 9.939453 5.064453 Q 9.935547 5.1367188, 9.935547 5.2441406 Z M 14.091797 6.46875 L 14.091797 0.068359375 L 15.150391 0.068359375 L 15.150391 6.46875 L 14.091797 6.46875 Z" transform="translate(7.8496094, 260.32526)" />
    <rect id="mark_3" fill="Black" x="0" y="232.18593" width="25" height="1.5" />
    <path fill="Black" d="M 0.076171875 0 L 0.076171875 0.9316406 L 3.3203125 0.9316406 L 3.3203125 0 L 0.076171875 0 Z M 2.2753906 5.1289062 Q 2.2636719 5.4960938, 1.9277344 5.580078 L 1.9316406 6.46875 Q 2.65625 6.4277344, 2.9902344 6.078125 Q 3.3242188 5.7285156, 3.3515625 4.984375 Q 3.359375 4.876953, 3.3613281 4.7734375 Q 3.3632812 4.6679688, 3.3632812 4.564453 Q 3.3632812 4.4609375, 3.3613281 4.3535156 Q 3.359375 4.2441406, 3.3515625 4.1367188 Q 3.3144531 3.3730469, 3.0117188 3.0058594 Q 2.7109375 2.6367188, 2.0625 2.6367188 L 2.03125 2.6367188 L 3 1.2851562 L 1.8105469 1.2851562 L 0.8515625 2.6679688 L 0.87890625 3.5605469 L 1.6269531 3.5527344 Q 1.9960938 3.5449219, 2.1269531 3.7089844 Q 2.2597656 3.8730469, 2.2714844 4.107422 Q 2.2871094 4.3359375, 2.2851562 4.580078 Q 2.2832031 4.8242188, 2.2753906 5.1289062 Z M 0.001953125 4.732422 Q 0.00390625 4.8320312, 0.0078125 4.984375 Q 0.02734375 5.716797, 0.36132812 6.064453 Q 0.6953125 6.4121094, 1.4277344 6.46875 L 1.4277344 5.576172 Q 1.0878906 5.4804688, 1.0878906 5.125 L 1.0878906 4.2597656 L 0.0078125 4.2597656 Q 0.00390625 4.423828, 0.001953125 4.529297 Q 0 4.6328125, 0.001953125 4.732422 Z M 6.4882812 7.7246094 Q 6.767578 7.9121094, 7.3789062 7.9453125 L 7.3789062 7.2128906 Q 7.1640625 7.1933594, 7.0390625 7.125 Q 6.9160156 7.0566406, 6.8789062 6.9160156 Q 6.8671875 6.8691406, 6.8632812 6.8085938 Q 6.859375 6.748047, 6.8789062 6.6933594 Q 6.9121094 6.564453, 7.033203 6.4882812 Q 7.15625 6.4121094, 7.3789062 6.388672 L 7.3789062 5.6679688 Q 7.138672 5.6484375, 7.064453 5.5996094 Q 6.9921875 5.548828, 6.9921875 5.4492188 L 6.9921875 5.4160156 Q 6.9921875 5.3164062, 7.078125 5.2617188 Q 7.1640625 5.205078, 7.3828125 5.1875 L 7.3828125 4.3515625 Q 7.248047 4.3085938, 7.171875 4.2109375 Q 7.095703 4.1132812, 7.0839844 3.953125 Q 7.0722656 3.7636719, 7.0703125 3.5683594 Q 7.0683594 3.3730469, 7.0722656 3.1679688 Q 7.076172 2.9609375, 7.0839844 2.7480469 Q 7.091797 2.5878906, 7.1640625 2.4902344 Q 7.236328 2.3925781, 7.3789062 2.3554688 L 7.3789062 1.5332031 Q 6.71875 1.5761719, 6.40625 1.8925781 Q 6.095703 2.2089844, 6.046875 2.8691406 Q 6.0429688 2.9960938, 6.0390625 3.1074219 Q 6.0351562 3.2167969, 6.0351562 3.3242188 Q 6.0351562 3.4316406, 6.0390625 3.5546875 Q 6.0429688 3.6757812, 6.046875 3.8320312 Q 6.080078 4.2929688, 6.236328 4.591797 Q 6.3945312 4.888672, 6.7148438 5.029297 L 6.7148438 5.1757812 Q 6.466797 5.205078, 6.3125 5.3398438 Q 6.1601562 5.4726562, 6.138672 5.6367188 Q 6.1347656 5.6972656, 6.1308594 5.7441406 Q 6.126953 5.7890625, 6.138672 5.876953 Q 6.1914062 6.251953, 6.703125 6.328125 L 6.703125 6.4804688 Q 6.435547 6.5195312, 6.3007812 6.658203 Q 6.1679688 6.796875, 6.138672 6.9882812 Q 6.1308594 7.048828, 6.1367188 7.1289062 Q 6.142578 7.2089844, 6.15625 7.2597656 Q 6.2109375 7.5371094, 6.4882812 7.7246094 Z M 7.8789062 4.3476562 L 7.8789062 5.171875 Q 8.546875 5.1289062, 8.8515625 4.810547 Q 9.15625 4.4921875, 9.1953125 3.8320312 Q 9.207031 3.671875, 9.208984 3.5527344 Q 9.2109375 3.4316406, 9.208984 3.3183594 Q 9.207031 3.2050781, 9.203125 3.0644531 L 9.203125 2.84375 Q 9.203125 2.5957031, 9.316406 2.4980469 Q 9.431641 2.4003906, 9.634766 2.4003906 L 9.751953 2.4003906 L 9.751953 1.5996094 Q 9.466797 1.6035156, 9.314453 1.7148438 Q 9.1640625 1.8242188, 9.130859 2.0605469 L 8.978516 2.0605469 Q 8.691406 1.5839844, 7.8789062 1.5332031 L 7.8789062 2.3613281 Q 8.011719 2.3964844, 8.082031 2.4902344 Q 8.152344 2.5839844, 8.160156 2.7324219 Q 8.171875 2.9492188, 8.175781 3.1660156 Q 8.1796875 3.3808594, 8.175781 3.5878906 Q 8.171875 3.7929688, 8.160156 3.9804688 Q 8.152344 4.1210938, 8.080078 4.2128906 Q 8.0078125 4.3046875, 7.8789062 4.3476562 Z M 7.8789062 7.2128906 L 7.8789062 7.939453 Q 8.474609 7.904297, 8.878906 7.689453 Q 9.283203 7.4765625, 9.355469 6.984375 Q 9.371094 6.8808594, 9.369141 6.7890625 Q 9.3671875 6.6972656, 9.355469 6.6367188 Q 9.283203 6.1972656, 8.9296875 5.9628906 Q 8.576172 5.7285156, 7.8789062 5.6875 L 7.8789062 6.388672 Q 8.119141 6.404297, 8.2734375 6.46875 Q 8.427734 6.533203, 8.462891 6.65625 Q 8.4921875 6.7285156, 8.494141 6.783203 Q 8.496094 6.8398438, 8.470703 6.9003906 Q 8.427734 7.0371094, 8.275391 7.111328 Q 8.123047 7.1875, 7.8789062 7.2128906 Z M 10.158203 3.15625 Q 10.160156 3.3242188, 10.167969 3.4042969 L 11.1875 3.4042969 Q 11.183594 3.3652344, 11.181641 3.21875 Q 11.1796875 3.0722656, 11.181641 2.9179688 Q 11.183594 2.7636719, 11.1875 2.7050781 Q 11.1953125 2.5566406, 11.259766 2.4707031 Q 11.324219 2.3847656, 11.439453 2.3476562 L 11.439453 1.5332031 Q 10.740234 1.5761719, 10.4609375 1.8886719 Q 10.183594 2.2011719, 10.160156 2.828125 Q 10.15625 2.9882812, 10.158203 3.15625 Z M 12.146484 2.7558594 L 12.146484 6.4003906 L 13.1796875 6.4003906 L 13.1875 2.9921875 Q 13.191406 2.2714844, 12.921875 1.9257812 Q 12.652344 1.5800781, 11.939453 1.5332031 L 11.939453 2.3730469 Q 12.046875 2.4160156, 12.095703 2.5117188 Q 12.146484 2.6074219, 12.146484 2.7558594 Z M 10.011719 5.1757812 Q 10.011719 5.28125, 10.015625 5.3554688 Q 10.0625 5.9570312, 10.322266 6.2089844 Q 10.583984 6.4609375, 11.119141 6.4609375 Q 11.451172 6.4609375, 11.646484 6.3203125 L 11.646484 5.6875 Q 11.607422 5.701172, 11.546875 5.701172 Q 11.3359375 5.701172, 11.216797 5.591797 Q 11.099609 5.4804688, 11.080078 5.28125 Q 11.076172 5.1972656, 11.076172 5.1484375 Q 11.076172 5.0996094, 11.080078 5 Q 11.087891 4.8007812, 11.1640625 4.623047 Q 11.240234 4.4453125, 11.4921875 4.3359375 Q 11.535156 4.3164062, 11.572266 4.296875 L 11.646484 4.2597656 L 11.646484 3.5722656 Q 11.542969 3.6035156, 11.441406 3.6386719 Q 11.339844 3.671875, 11.236328 3.7128906 Q 10.798828 3.8691406, 10.5390625 4.044922 Q 10.279297 4.220703, 10.158203 4.451172 Q 10.0390625 4.6796875, 10.015625 4.9960938 Q 10.011719 5.0683594, 10.011719 5.1757812 Z M 14.167969 6.4003906 L 14.167969 0 L 15.2265625 0 L 15.2265625 6.4003906 L 14.167969 6.4003906 Z" transform="translate(7.7734375, 223.13593)" />
    <rect id="mark_4" fill="Black" x="0" y="194.99661" width="25" height="1.5" />
    <path fill="Black" d="M 1.9355469 0 L 1.9355469 6.4003906 L 2.9433594 6.4003906 L 2.9433594 0 L 1.9355469 0 Z M 0 3.8398438 L 0 4.716797 L 1.4316406 4.716797 L 1.4316406 3.7929688 L 1.03125 3.7929688 L 1.7558594 1.9609375 L 0.7167969 1.9609375 L 0 3.8398438 Z M 3.4472656 3.7929688 L 3.4472656 4.716797 L 3.9160156 4.716797 L 3.9160156 3.7929688 L 3.4472656 3.7929688 Z M 6.5410156 7.7246094 Q 6.8203125 7.9121094, 7.4316406 7.9453125 L 7.4316406 7.2128906 Q 7.216797 7.1933594, 7.091797 7.125 Q 6.96875 7.0566406, 6.9316406 6.9160156 Q 6.919922 6.8691406, 6.9160156 6.8085938 Q 6.9121094 6.748047, 6.9316406 6.6933594 Q 6.9648438 6.564453, 7.0859375 6.4882812 Q 7.2089844 6.4121094, 7.4316406 6.388672 L 7.4316406 5.6679688 Q 7.1914062 5.6484375, 7.1171875 5.5996094 Q 7.044922 5.548828, 7.044922 5.4492188 L 7.044922 5.4160156 Q 7.044922 5.3164062, 7.1308594 5.2617188 Q 7.216797 5.205078, 7.435547 5.1875 L 7.435547 4.3515625 Q 7.3007812 4.3085938, 7.2246094 4.2109375 Q 7.1484375 4.1132812, 7.1367188 3.953125 Q 7.125 3.7636719, 7.123047 3.5683594 Q 7.1210938 3.3730469, 7.125 3.1679688 Q 7.1289062 2.9609375, 7.1367188 2.7480469 Q 7.1445312 2.5878906, 7.216797 2.4902344 Q 7.2890625 2.3925781, 7.4316406 2.3554688 L 7.4316406 1.5332031 Q 6.7714844 1.5761719, 6.4589844 1.8925781 Q 6.1484375 2.2089844, 6.0996094 2.8691406 Q 6.095703 2.9960938, 6.091797 3.1074219 Q 6.0878906 3.2167969, 6.0878906 3.3242188 Q 6.0878906 3.4316406, 6.091797 3.5546875 Q 6.095703 3.6757812, 6.0996094 3.8320312 Q 6.1328125 4.2929688, 6.2890625 4.591797 Q 6.4472656 4.888672, 6.767578 5.029297 L 6.767578 5.1757812 Q 6.5195312 5.205078, 6.3652344 5.3398438 Q 6.2128906 5.4726562, 6.1914062 5.6367188 Q 6.1875 5.6972656, 6.1835938 5.7441406 Q 6.1796875 5.7890625, 6.1914062 5.876953 Q 6.2441406 6.251953, 6.7558594 6.328125 L 6.7558594 6.4804688 Q 6.4882812 6.5195312, 6.3535156 6.658203 Q 6.220703 6.796875, 6.1914062 6.9882812 Q 6.1835938 7.048828, 6.189453 7.1289062 Q 6.1953125 7.2089844, 6.2089844 7.2597656 Q 6.263672 7.5371094, 6.5410156 7.7246094 Z M 7.9316406 4.3476562 L 7.9316406 5.171875 Q 8.599609 5.1289062, 8.904297 4.810547 Q 9.208984 4.4921875, 9.248047 3.8320312 Q 9.259766 3.671875, 9.261719 3.5527344 Q 9.263672 3.4316406, 9.261719 3.3183594 Q 9.259766 3.2050781, 9.255859 3.0644531 L 9.255859 2.84375 Q 9.255859 2.5957031, 9.369141 2.4980469 Q 9.484375 2.4003906, 9.6875 2.4003906 L 9.8046875 2.4003906 L 9.8046875 1.5996094 Q 9.519531 1.6035156, 9.3671875 1.7148438 Q 9.216797 1.8242188, 9.183594 2.0605469 L 9.03125 2.0605469 Q 8.744141 1.5839844, 7.9316406 1.5332031 L 7.9316406 2.3613281 Q 8.064453 2.3964844, 8.134766 2.4902344 Q 8.205078 2.5839844, 8.212891 2.7324219 Q 8.224609 2.9492188, 8.228516 3.1660156 Q 8.232422 3.3808594, 8.228516 3.5878906 Q 8.224609 3.7929688, 8.212891 3.9804688 Q 8.205078 4.1210938, 8.1328125 4.2128906 Q 8.060547 4.3046875, 7.9316406 4.3476562 Z M 7.9316406 7.2128906 L 7.9316406 7.939453 Q 8.527344 7.904297, 8.931641 7.689453 Q 9.3359375 7.4765625, 9.408203 6.984375 Q 9.423828 6.8808594, 9.421875 6.7890625 Q 9.419922 6.6972656, 9.408203 6.6367188 Q 9.3359375 6.1972656, 8.982422 5.9628906 Q 8.628906 5.7285156, 7.9316406 5.6875 L 7.9316406 6.388672 Q 8.171875 6.404297, 8.326172 6.46875 Q 8.480469 6.533203, 8.515625 6.65625 Q 8.544922 6.7285156, 8.546875 6.783203 Q 8.548828 6.8398438, 8.5234375 6.9003906 Q 8.480469 7.0371094, 8.328125 7.111328 Q 8.175781 7.1875, 7.9316406 7.2128906 Z M 10.2109375 3.15625 Q 10.212891 3.3242188, 10.220703 3.4042969 L 11.240234 3.4042969 Q 11.236328 3.3652344, 11.234375 3.21875 Q 11.232422 3.0722656, 11.234375 2.9179688 Q 11.236328 2.7636719, 11.240234 2.7050781 Q 11.248047 2.5566406, 11.3125 2.4707031 Q 11.376953 2.3847656, 11.4921875 2.3476562 L 11.4921875 1.5332031 Q 10.792969 1.5761719, 10.513672 1.8886719 Q 10.236328 2.2011719, 10.212891 2.828125 Q 10.208984 2.9882812, 10.2109375 3.15625 Z M 12.199219 2.7558594 L 12.199219 6.4003906 L 13.232422 6.4003906 L 13.240234 2.9921875 Q 13.244141 2.2714844, 12.974609 1.9257812 Q 12.705078 1.5800781, 11.9921875 1.5332031 L 11.9921875 2.3730469 Q 12.099609 2.4160156, 12.1484375 2.5117188 Q 12.199219 2.6074219, 12.199219 2.7558594 Z M 10.064453 5.1757812 Q 10.064453 5.28125, 10.068359 5.3554688 Q 10.115234 5.9570312, 10.375 6.2089844 Q 10.636719 6.4609375, 11.171875 6.4609375 Q 11.503906 6.4609375, 11.699219 6.3203125 L 11.699219 5.6875 Q 11.660156 5.701172, 11.599609 5.701172 Q 11.388672 5.701172, 11.269531 5.591797 Q 11.152344 5.4804688, 11.1328125 5.28125 Q 11.128906 5.1972656, 11.128906 5.1484375 Q 11.128906 5.0996094, 11.1328125 5 Q 11.140625 4.8007812, 11.216797 4.623047 Q 11.292969 4.4453125, 11.544922 4.3359375 Q 11.587891 4.3164062, 11.625 4.296875 L 11.699219 4.2597656 L 11.699219 3.5722656 Q 11.595703 3.6035156, 11.494141 3.6386719 Q 11.392578 3.671875, 11.2890625 3.7128906 Q 10.8515625 3.8691406, 10.591797 4.044922 Q 10.332031 4.220703, 10.2109375 4.451172 Q 10.091797 4.6796875, 10.068359 4.9960938 Q 10.064453 5.0683594, 10.064453 5.1757812 Z M 14.220703 6.4003906 L 14.220703 0 L 15.279297 0 L 15.279297 6.4003906 L 14.220703 6.4003906 Z" transform="translate(7.720703, 185.94661)" />
    <rect id="mark_5" fill="Black" x="0" y="157.80728" width="25" height="1.5" />
    <path fill="Black" d="M 0.107421875 0 L 0.107421875 3.6484375 L 1.1757812 3.6484375 L 1.1757812 0 L 0.107421875 0 Z M 1.6796875 0 L 1.6796875 0.9316406 L 3.2675781 0.9316406 L 3.2675781 0 L 1.6796875 0 Z M 1.6796875 2.46875 L 1.6796875 3.2246094 Q 1.6914062 3.2207031, 1.7070312 3.2167969 Q 1.7246094 3.2128906, 1.7402344 3.2128906 Q 2.0078125 3.2128906, 2.1367188 3.3261719 Q 2.2675781 3.4394531, 2.2910156 3.671875 Q 2.3242188 3.9882812, 2.3183594 4.3359375 Q 2.3125 4.6835938, 2.2753906 5.1210938 Q 2.2636719 5.3046875, 2.1796875 5.419922 Q 2.0957031 5.533203, 1.9316406 5.576172 L 1.9316406 6.46875 Q 2.6484375 6.423828, 2.9667969 6.076172 Q 3.2871094 5.7285156, 3.3554688 4.9804688 Q 3.3710938 4.7851562, 3.3789062 4.560547 Q 3.3886719 4.3359375, 3.3828125 4.1015625 Q 3.3789062 3.8652344, 3.3632812 3.625 Q 3.3320312 3.0292969, 3.0566406 2.6835938 Q 2.7832031 2.3359375, 2.2363281 2.3359375 Q 2.0761719 2.3359375, 1.9355469 2.3730469 Q 1.7949219 2.4082031, 1.6796875 2.46875 Z M 0.00390625 4.5664062 Q 0 4.7246094, 0.0078125 4.984375 Q 0.02734375 5.716797, 0.359375 6.064453 Q 0.69140625 6.4121094, 1.4316406 6.46875 L 1.4316406 5.576172 Q 1.2714844 5.529297, 1.1835938 5.4160156 Q 1.0957031 5.3007812, 1.0800781 5.1210938 Q 1.0722656 5.0410156, 1.0703125 4.8808594 Q 1.0683594 4.720703, 1.0742188 4.548828 Q 1.0800781 4.376953, 1.0917969 4.2597656 L 0.01171875 4.2597656 Q 0.0078125 4.408203, 0.00390625 4.5664062 Z M 6.388672 7.7246094 Q 6.6679688 7.9121094, 7.279297 7.9453125 L 7.279297 7.2128906 Q 7.064453 7.1933594, 6.939453 7.125 Q 6.8164062 7.0566406, 6.779297 6.9160156 Q 6.767578 6.8691406, 6.763672 6.8085938 Q 6.7597656 6.748047, 6.779297 6.6933594 Q 6.8125 6.564453, 6.9335938 6.4882812 Q 7.0566406 6.4121094, 7.279297 6.388672 L 7.279297 5.6679688 Q 7.0390625 5.6484375, 6.9648438 5.5996094 Q 6.892578 5.548828, 6.892578 5.4492188 L 6.892578 5.4160156 Q 6.892578 5.3164062, 6.9785156 5.2617188 Q 7.064453 5.205078, 7.283203 5.1875 L 7.283203 4.3515625 Q 7.1484375 4.3085938, 7.0722656 4.2109375 Q 6.9960938 4.1132812, 6.984375 3.953125 Q 6.9726562 3.7636719, 6.970703 3.5683594 Q 6.96875 3.3730469, 6.9726562 3.1679688 Q 6.9765625 2.9609375, 6.984375 2.7480469 Q 6.9921875 2.5878906, 7.064453 2.4902344 Q 7.1367188 2.3925781, 7.279297 2.3554688 L 7.279297 1.5332031 Q 6.6191406 1.5761719, 6.3066406 1.8925781 Q 5.9960938 2.2089844, 5.9472656 2.8691406 Q 5.9433594 2.9960938, 5.939453 3.1074219 Q 5.935547 3.2167969, 5.935547 3.3242188 Q 5.935547 3.4316406, 5.939453 3.5546875 Q 5.9433594 3.6757812, 5.9472656 3.8320312 Q 5.9804688 4.2929688, 6.1367188 4.591797 Q 6.294922 4.888672, 6.6152344 5.029297 L 6.6152344 5.1757812 Q 6.3671875 5.205078, 6.2128906 5.3398438 Q 6.060547 5.4726562, 6.0390625 5.6367188 Q 6.0351562 5.6972656, 6.03125 5.7441406 Q 6.0273438 5.7890625, 6.0390625 5.876953 Q 6.091797 6.251953, 6.6035156 6.328125 L 6.6035156 6.4804688 Q 6.3359375 6.5195312, 6.201172 6.658203 Q 6.0683594 6.796875, 6.0390625 6.9882812 Q 6.03125 7.048828, 6.0371094 7.1289062 Q 6.0429688 7.2089844, 6.0566406 7.2597656 Q 6.111328 7.5371094, 6.388672 7.7246094 Z M 7.779297 4.3476562 L 7.779297 5.171875 Q 8.447266 5.1289062, 8.751953 4.810547 Q 9.056641 4.4921875, 9.095703 3.8320312 Q 9.107422 3.671875, 9.109375 3.5527344 Q 9.111328 3.4316406, 9.109375 3.3183594 Q 9.107422 3.2050781, 9.103516 3.0644531 L 9.103516 2.84375 Q 9.103516 2.5957031, 9.216797 2.4980469 Q 9.332031 2.4003906, 9.535156 2.4003906 L 9.652344 2.4003906 L 9.652344 1.5996094 Q 9.3671875 1.6035156, 9.214844 1.7148438 Q 9.064453 1.8242188, 9.03125 2.0605469 L 8.878906 2.0605469 Q 8.591797 1.5839844, 7.779297 1.5332031 L 7.779297 2.3613281 Q 7.9121094 2.3964844, 7.982422 2.4902344 Q 8.052734 2.5839844, 8.060547 2.7324219 Q 8.072266 2.9492188, 8.076172 3.1660156 Q 8.080078 3.3808594, 8.076172 3.5878906 Q 8.072266 3.7929688, 8.060547 3.9804688 Q 8.052734 4.1210938, 7.9804688 4.2128906 Q 7.908203 4.3046875, 7.779297 4.3476562 Z M 7.779297 7.2128906 L 7.779297 7.939453 Q 8.375 7.904297, 8.779297 7.689453 Q 9.183594 7.4765625, 9.255859 6.984375 Q 9.271484 6.8808594, 9.269531 6.7890625 Q 9.267578 6.6972656, 9.255859 6.6367188 Q 9.183594 6.1972656, 8.830078 5.9628906 Q 8.4765625 5.7285156, 7.779297 5.6875 L 7.779297 6.388672 Q 8.019531 6.404297, 8.173828 6.46875 Q 8.328125 6.533203, 8.363281 6.65625 Q 8.392578 6.7285156, 8.394531 6.783203 Q 8.396484 6.8398438, 8.371094 6.9003906 Q 8.328125 7.0371094, 8.175781 7.111328 Q 8.0234375 7.1875, 7.779297 7.2128906 Z M 10.058594 3.15625 Q 10.060547 3.3242188, 10.068359 3.4042969 L 11.087891 3.4042969 Q 11.083984 3.3652344, 11.082031 3.21875 Q 11.080078 3.0722656, 11.082031 2.9179688 Q 11.083984 2.7636719, 11.087891 2.7050781 Q 11.095703 2.5566406, 11.160156 2.4707031 Q 11.224609 2.3847656, 11.339844 2.3476562 L 11.339844 1.5332031 Q 10.640625 1.5761719, 10.361328 1.8886719 Q 10.083984 2.2011719, 10.060547 2.828125 Q 10.056641 2.9882812, 10.058594 3.15625 Z M 12.046875 2.7558594 L 12.046875 6.4003906 L 13.080078 6.4003906 L 13.087891 2.9921875 Q 13.091797 2.2714844, 12.822266 1.9257812 Q 12.552734 1.5800781, 11.839844 1.5332031 L 11.839844 2.3730469 Q 11.947266 2.4160156, 11.996094 2.5117188 Q 12.046875 2.6074219, 12.046875 2.7558594 Z M 9.912109 5.1757812 Q 9.912109 5.28125, 9.916016 5.3554688 Q 9.962891 5.9570312, 10.222656 6.2089844 Q 10.484375 6.4609375, 11.019531 6.4609375 Q 11.3515625 6.4609375, 11.546875 6.3203125 L 11.546875 5.6875 Q 11.5078125 5.701172, 11.447266 5.701172 Q 11.236328 5.701172, 11.1171875 5.591797 Q 11 5.4804688, 10.980469 5.28125 Q 10.9765625 5.1972656, 10.9765625 5.1484375 Q 10.9765625 5.0996094, 10.980469 5 Q 10.988281 4.8007812, 11.064453 4.623047 Q 11.140625 4.4453125, 11.392578 4.3359375 Q 11.435547 4.3164062, 11.472656 4.296875 L 11.546875 4.2597656 L 11.546875 3.5722656 Q 11.443359 3.6035156, 11.341797 3.6386719 Q 11.240234 3.671875, 11.136719 3.7128906 Q 10.699219 3.8691406, 10.439453 4.044922 Q 10.1796875 4.220703, 10.058594 4.451172 Q 9.939453 4.6796875, 9.916016 4.9960938 Q 9.912109 5.0683594, 9.912109 5.1757812 Z M 14.068359 6.4003906 L 14.068359 0 L 15.126953 0 L 15.126953 6.4003906 L 14.068359 6.4003906 Z" transform="translate(7.873047, 148.75728)" />
    <rect id="mark_6" fill="Black" x="0" y="120.617966" width="25" height="1.5" />
    <path fill="Black" d="M 0.005859375 4.216797 Q 0.01171875 4.6523438, 0.015625 5.048828 Q 0.02734375 5.7890625, 0.34765625 6.1367188 Q 0.66796875 6.484375, 1.4003906 6.533203 L 1.4003906 5.640625 Q 1.2519531 5.5976562, 1.1699219 5.4941406 Q 1.0878906 5.388672, 1.0878906 5.2246094 Q 1.0761719 4.6132812, 1.0761719 3.9824219 Q 1.0761719 3.3496094, 1.0800781 2.6816406 Q 1.0839844 2.0136719, 1.0957031 1.28125 Q 1.0957031 1.1210938, 1.171875 1.0253906 Q 1.2480469 0.9296875, 1.3925781 0.8925781 L 1.3925781 0 Q 0.7558594 0.056640625, 0.390625 0.41796875 Q 0.02734375 0.77734375, 0.015625 1.4726562 Q 0.0078125 1.9335938, 0.00390625 2.3984375 Q 0 2.8613281, 0 3.3222656 Q 0 3.78125, 0.005859375 4.216797 Z M 2.2050781 1.8027344 Q 2.203125 1.9082031, 2.1914062 2.0488281 L 3.2636719 2.0488281 Q 3.2675781 1.9042969, 3.2695312 1.8027344 Q 3.2714844 1.7011719, 3.2695312 1.6113281 Q 3.2675781 1.5214844, 3.2636719 1.4199219 Q 3.2402344 0.8125, 2.8945312 0.43945312 Q 2.5488281 0.064453125, 1.8925781 0.00390625 L 1.8925781 0.8925781 Q 2.0410156 0.9296875, 2.1113281 1.03125 Q 2.1835938 1.1328125, 2.1914062 1.28125 Q 2.1992188 1.4570312, 2.203125 1.578125 Q 2.2089844 1.6972656, 2.2050781 1.8027344 Z M 1.5644531 2.625 L 1.5644531 3.3691406 Q 1.5957031 3.3574219, 1.625 3.3554688 Q 1.65625 3.3535156, 1.6835938 3.3535156 Q 1.9277344 3.3535156, 2.0800781 3.4609375 Q 2.2324219 3.5683594, 2.2363281 3.7929688 Q 2.2441406 3.9765625, 2.2460938 4.142578 Q 2.2480469 4.3085938, 2.2441406 4.4765625 Q 2.2402344 4.6445312, 2.2363281 4.830078 Q 2.2324219 5.013672, 2.2246094 5.2441406 Q 2.2207031 5.404297, 2.1386719 5.5058594 Q 2.0566406 5.6054688, 1.9003906 5.6484375 L 1.9003906 6.533203 Q 2.6191406 6.4882812, 2.9433594 6.1367188 Q 3.2675781 5.7851562, 3.3046875 5.048828 Q 3.3164062 4.7890625, 3.3183594 4.6054688 Q 3.3203125 4.419922, 3.3183594 4.2304688 Q 3.3164062 4.0410156, 3.3085938 3.765625 Q 3.296875 3.0683594, 3.0507812 2.7714844 Q 2.8046875 2.4726562, 2.1679688 2.4726562 Q 1.9960938 2.4726562, 1.8417969 2.5136719 Q 1.6875 2.5527344, 1.5644531 2.625 Z M 6.376953 7.7890625 Q 6.65625 7.9765625, 7.267578 8.009766 L 7.267578 7.2773438 Q 7.0527344 7.2578125, 6.9277344 7.189453 Q 6.8046875 7.1210938, 6.767578 6.9804688 Q 6.7558594 6.9335938, 6.751953 6.873047 Q 6.748047 6.8125, 6.767578 6.7578125 Q 6.8007812 6.6289062, 6.921875 6.5527344 Q 7.044922 6.4765625, 7.267578 6.453125 L 7.267578 5.732422 Q 7.0273438 5.7128906, 6.953125 5.6640625 Q 6.8808594 5.6132812, 6.8808594 5.513672 L 6.8808594 5.4804688 Q 6.8808594 5.3808594, 6.966797 5.326172 Q 7.0527344 5.2695312, 7.2714844 5.251953 L 7.2714844 4.4160156 Q 7.1367188 4.373047, 7.060547 4.2753906 Q 6.984375 4.1777344, 6.9726562 4.017578 Q 6.9609375 3.828125, 6.9589844 3.6328125 Q 6.9570312 3.4375, 6.9609375 3.2324219 Q 6.9648438 3.0253906, 6.9726562 2.8125 Q 6.9804688 2.6523438, 7.0527344 2.5546875 Q 7.125 2.4570312, 7.267578 2.4199219 L 7.267578 1.5976562 Q 6.607422 1.640625, 6.294922 1.9570312 Q 5.984375 2.2734375, 5.935547 2.9335938 Q 5.9316406 3.0605469, 5.9277344 3.171875 Q 5.923828 3.28125, 5.923828 3.3886719 Q 5.923828 3.4960938, 5.9277344 3.6191406 Q 5.9316406 3.7402344, 5.935547 3.8964844 Q 5.96875 4.357422, 6.125 4.65625 Q 6.283203 4.953125, 6.6035156 5.09375 L 6.6035156 5.2402344 Q 6.3554688 5.2695312, 6.201172 5.404297 Q 6.048828 5.5371094, 6.0273438 5.701172 Q 6.0234375 5.7617188, 6.0195312 5.8085938 Q 6.015625 5.8535156, 6.0273438 5.9414062 Q 6.080078 6.3164062, 6.591797 6.392578 L 6.591797 6.544922 Q 6.3242188 6.5839844, 6.189453 6.7226562 Q 6.0566406 6.861328, 6.0273438 7.0527344 Q 6.0195312 7.1132812, 6.0253906 7.1933594 Q 6.03125 7.2734375, 6.044922 7.3242188 Q 6.0996094 7.6015625, 6.376953 7.7890625 Z M 7.767578 4.4121094 L 7.767578 5.236328 Q 8.435547 5.1933594, 8.740234 4.875 Q 9.044922 4.5566406, 9.083984 3.8964844 Q 9.095703 3.7363281, 9.097656 3.6171875 Q 9.099609 3.4960938, 9.097656 3.3828125 Q 9.095703 3.2695312, 9.091797 3.1289062 L 9.091797 2.9082031 Q 9.091797 2.6601562, 9.205078 2.5625 Q 9.3203125 2.4648438, 9.5234375 2.4648438 L 9.640625 2.4648438 L 9.640625 1.6640625 Q 9.355469 1.6679688, 9.203125 1.7792969 Q 9.052734 1.8886719, 9.019531 2.125 L 8.8671875 2.125 Q 8.580078 1.6484375, 7.767578 1.5976562 L 7.767578 2.4257812 Q 7.9003906 2.4609375, 7.970703 2.5546875 Q 8.041016 2.6484375, 8.048828 2.796875 Q 8.060547 3.0136719, 8.064453 3.2304688 Q 8.068359 3.4453125, 8.064453 3.6523438 Q 8.060547 3.8574219, 8.048828 4.044922 Q 8.041016 4.185547, 7.96875 4.2773438 Q 7.8964844 4.3691406, 7.767578 4.4121094 Z M 7.767578 7.2773438 L 7.767578 8.003906 Q 8.363281 7.96875, 8.767578 7.7539062 Q 9.171875 7.5410156, 9.244141 7.048828 Q 9.259766 6.9453125, 9.2578125 6.8535156 Q 9.255859 6.7617188, 9.244141 6.701172 Q 9.171875 6.2617188, 8.818359 6.0273438 Q 8.464844 5.7929688, 7.767578 5.751953 L 7.767578 6.453125 Q 8.0078125 6.46875, 8.162109 6.533203 Q 8.316406 6.5976562, 8.3515625 6.720703 Q 8.380859 6.7929688, 8.3828125 6.8476562 Q 8.384766 6.904297, 8.359375 6.9648438 Q 8.316406 7.1015625, 8.1640625 7.1757812 Q 8.011719 7.251953, 7.767578 7.2773438 Z M 10.046875 3.2207031 Q 10.048828 3.3886719, 10.056641 3.46875 L 11.076172 3.46875 Q 11.072266 3.4296875, 11.0703125 3.2832031 Q 11.068359 3.1367188, 11.0703125 2.9824219 Q 11.072266 2.828125, 11.076172 2.7695312 Q 11.083984 2.6210938, 11.1484375 2.5351562 Q 11.212891 2.4492188, 11.328125 2.4121094 L 11.328125 1.5976562 Q 10.628906 1.640625, 10.349609 1.953125 Q 10.072266 2.265625, 10.048828 2.8925781 Q 10.044922 3.0527344, 10.046875 3.2207031 Z M 12.035156 2.8203125 L 12.035156 6.4648438 L 13.068359 6.4648438 L 13.076172 3.0566406 Q 13.080078 2.3359375, 12.810547 1.9902344 Q 12.541016 1.6445312, 11.828125 1.5976562 L 11.828125 2.4375 Q 11.935547 2.4804688, 11.984375 2.5761719 Q 12.035156 2.671875, 12.035156 2.8203125 Z M 9.900391 5.2402344 Q 9.900391 5.345703, 9.904297 5.419922 Q 9.951172 6.0214844, 10.2109375 6.2734375 Q 10.472656 6.5253906, 11.0078125 6.5253906 Q 11.339844 6.5253906, 11.535156 6.3847656 L 11.535156 5.751953 Q 11.496094 5.765625, 11.435547 5.765625 Q 11.224609 5.765625, 11.105469 5.65625 Q 10.988281 5.544922, 10.96875 5.345703 Q 10.964844 5.2617188, 10.964844 5.2128906 Q 10.964844 5.1640625, 10.96875 5.064453 Q 10.9765625 4.8652344, 11.052734 4.6875 Q 11.128906 4.5097656, 11.380859 4.4003906 Q 11.423828 4.3808594, 11.4609375 4.361328 L 11.535156 4.3242188 L 11.535156 3.6367188 Q 11.431641 3.6679688, 11.330078 3.703125 Q 11.228516 3.7363281, 11.125 3.7773438 Q 10.6875 3.9335938, 10.427734 4.109375 Q 10.167969 4.2851562, 10.046875 4.515625 Q 9.927734 4.7441406, 9.904297 5.060547 Q 9.900391 5.1328125, 9.900391 5.2402344 Z M 14.056641 6.4648438 L 14.056641 0.064453125 L 15.115234 0.064453125 L 15.115234 6.4648438 L 14.056641 6.4648438 Z" transform="translate(7.8847656, 111.56796)" />
    <rect id="mark_7" fill="Black" x="0" y="83.42864" width="25" height="1.5" />
    <path fill="Black" d="M 0 0 L 0 0.9316406 L 3.3613281 0.9316406 L 3.3613281 0 L 0 0 Z M 2.140625 1.3242188 L 0.453125 6.4003906 L 1.5683594 6.4003906 L 3.2285156 1.3242188 L 2.140625 1.3242188 Z M 6.6054688 7.7246094 Q 6.8847656 7.9121094, 7.4960938 7.9453125 L 7.4960938 7.2128906 Q 7.28125 7.1933594, 7.15625 7.125 Q 7.033203 7.0566406, 6.9960938 6.9160156 Q 6.984375 6.8691406, 6.9804688 6.8085938 Q 6.9765625 6.748047, 6.9960938 6.6933594 Q 7.029297 6.564453, 7.1503906 6.4882812 Q 7.2734375 6.4121094, 7.4960938 6.388672 L 7.4960938 5.6679688 Q 7.2558594 5.6484375, 7.1816406 5.5996094 Q 7.109375 5.548828, 7.109375 5.4492188 L 7.109375 5.4160156 Q 7.109375 5.3164062, 7.1953125 5.2617188 Q 7.28125 5.205078, 7.5 5.1875 L 7.5 4.3515625 Q 7.3652344 4.3085938, 7.2890625 4.2109375 Q 7.2128906 4.1132812, 7.201172 3.953125 Q 7.189453 3.7636719, 7.1875 3.5683594 Q 7.185547 3.3730469, 7.189453 3.1679688 Q 7.1933594 2.9609375, 7.201172 2.7480469 Q 7.2089844 2.5878906, 7.28125 2.4902344 Q 7.3535156 2.3925781, 7.4960938 2.3554688 L 7.4960938 1.5332031 Q 6.8359375 1.5761719, 6.5234375 1.8925781 Q 6.2128906 2.2089844, 6.1640625 2.8691406 Q 6.1601562 2.9960938, 6.15625 3.1074219 Q 6.1523438 3.2167969, 6.1523438 3.3242188 Q 6.1523438 3.4316406, 6.15625 3.5546875 Q 6.1601562 3.6757812, 6.1640625 3.8320312 Q 6.1972656 4.2929688, 6.3535156 4.591797 Q 6.5117188 4.888672, 6.8320312 5.029297 L 6.8320312 5.1757812 Q 6.5839844 5.205078, 6.4296875 5.3398438 Q 6.2773438 5.4726562, 6.2558594 5.6367188 Q 6.251953 5.6972656, 6.248047 5.7441406 Q 6.2441406 5.7890625, 6.2558594 5.876953 Q 6.3085938 6.251953, 6.8203125 6.328125 L 6.8203125 6.4804688 Q 6.5527344 6.5195312, 6.4179688 6.658203 Q 6.2851562 6.796875, 6.2558594 6.9882812 Q 6.248047 7.048828, 6.2539062 7.1289062 Q 6.2597656 7.2089844, 6.2734375 7.2597656 Q 6.328125 7.5371094, 6.6054688 7.7246094 Z M 7.9960938 4.3476562 L 7.9960938 5.171875 Q 8.6640625 5.1289062, 8.96875 4.810547 Q 9.2734375 4.4921875, 9.3125 3.8320312 Q 9.324219 3.671875, 9.326172 3.5527344 Q 9.328125 3.4316406, 9.326172 3.3183594 Q 9.324219 3.2050781, 9.3203125 3.0644531 L 9.3203125 2.84375 Q 9.3203125 2.5957031, 9.433594 2.4980469 Q 9.548828 2.4003906, 9.751953 2.4003906 L 9.869141 2.4003906 L 9.869141 1.5996094 Q 9.583984 1.6035156, 9.431641 1.7148438 Q 9.28125 1.8242188, 9.248047 2.0605469 L 9.095703 2.0605469 Q 8.808594 1.5839844, 7.9960938 1.5332031 L 7.9960938 2.3613281 Q 8.128906 2.3964844, 8.199219 2.4902344 Q 8.269531 2.5839844, 8.277344 2.7324219 Q 8.2890625 2.9492188, 8.292969 3.1660156 Q 8.296875 3.3808594, 8.292969 3.5878906 Q 8.2890625 3.7929688, 8.277344 3.9804688 Q 8.269531 4.1210938, 8.197266 4.2128906 Q 8.125 4.3046875, 7.9960938 4.3476562 Z M 7.9960938 7.2128906 L 7.9960938 7.939453 Q 8.591797 7.904297, 8.996094 7.689453 Q 9.400391 7.4765625, 9.472656 6.984375 Q 9.488281 6.8808594, 9.486328 6.7890625 Q 9.484375 6.6972656, 9.472656 6.6367188 Q 9.400391 6.1972656, 9.046875 5.9628906 Q 8.693359 5.7285156, 7.9960938 5.6875 L 7.9960938 6.388672 Q 8.236328 6.404297, 8.390625 6.46875 Q 8.544922 6.533203, 8.580078 6.65625 Q 8.609375 6.7285156, 8.611328 6.783203 Q 8.613281 6.8398438, 8.587891 6.9003906 Q 8.544922 7.0371094, 8.392578 7.111328 Q 8.240234 7.1875, 7.9960938 7.2128906 Z M 10.275391 3.15625 Q 10.277344 3.3242188, 10.285156 3.4042969 L 11.3046875 3.4042969 Q 11.300781 3.3652344, 11.298828 3.21875 Q 11.296875 3.0722656, 11.298828 2.9179688 Q 11.300781 2.7636719, 11.3046875 2.7050781 Q 11.3125 2.5566406, 11.376953 2.4707031 Q 11.441406 2.3847656, 11.556641 2.3476562 L 11.556641 1.5332031 Q 10.857422 1.5761719, 10.578125 1.8886719 Q 10.300781 2.2011719, 10.277344 2.828125 Q 10.2734375 2.9882812, 10.275391 3.15625 Z M 12.263672 2.7558594 L 12.263672 6.4003906 L 13.296875 6.4003906 L 13.3046875 2.9921875 Q 13.308594 2.2714844, 13.0390625 1.9257812 Q 12.769531 1.5800781, 12.056641 1.5332031 L 12.056641 2.3730469 Q 12.1640625 2.4160156, 12.212891 2.5117188 Q 12.263672 2.6074219, 12.263672 2.7558594 Z M 10.128906 5.1757812 Q 10.128906 5.28125, 10.1328125 5.3554688 Q 10.1796875 5.9570312, 10.439453 6.2089844 Q 10.701172 6.4609375, 11.236328 6.4609375 Q 11.568359 6.4609375, 11.763672 6.3203125 L 11.763672 5.6875 Q 11.724609 5.701172, 11.6640625 5.701172 Q 11.453125 5.701172, 11.333984 5.591797 Q 11.216797 5.4804688, 11.197266 5.28125 Q 11.193359 5.1972656, 11.193359 5.1484375 Q 11.193359 5.0996094, 11.197266 5 Q 11.205078 4.8007812, 11.28125 4.623047 Q 11.357422 4.4453125, 11.609375 4.3359375 Q 11.652344 4.3164062, 11.689453 4.296875 L 11.763672 4.2597656 L 11.763672 3.5722656 Q 11.660156 3.6035156, 11.558594 3.6386719 Q 11.457031 3.671875, 11.353516 3.7128906 Q 10.916016 3.8691406, 10.65625 4.044922 Q 10.396484 4.220703, 10.275391 4.451172 Q 10.15625 4.6796875, 10.1328125 4.9960938 Q 10.128906 5.0683594, 10.128906 5.1757812 Z M 14.285156 6.4003906 L 14.285156 0 L 15.34375 0 L 15.34375 6.4003906 L 14.285156 6.4003906 Z" transform="translate(7.65625, 74.37864)" />
    <rect id="mark_8" fill="Black" x="0" y="46.23932" width="25" height="1.5" />
    <path fill="Black" d="M 0.001953125 4.8222656 Q 0.00390625 4.923828, 0.0078125 5.0527344 Q 0.03515625 5.765625, 0.3515625 6.125 Q 0.66796875 6.484375, 1.3964844 6.5371094 L 1.3964844 5.6445312 Q 1.2363281 5.5976562, 1.1621094 5.482422 Q 1.0878906 5.3652344, 1.0839844 5.189453 L 1.0839844 4.703125 Q 1.0839844 4.4609375, 1.0878906 4.2128906 Q 1.0878906 4.033203, 1.1621094 3.9179688 Q 1.2363281 3.8007812, 1.3964844 3.7519531 L 1.3964844 2.6757812 Q 1.2402344 2.6289062, 1.1640625 2.515625 Q 1.0878906 2.4003906, 1.0878906 2.2207031 Q 1.0839844 2.1054688, 1.0839844 1.9980469 L 1.0839844 1.5742188 Q 1.0839844 1.4648438, 1.0878906 1.3457031 Q 1.0878906 1.1640625, 1.1640625 1.0527344 Q 1.2402344 0.94140625, 1.3964844 0.8925781 L 1.3964844 0 Q 0.6875 0.052734375, 0.3828125 0.40429688 Q 0.080078125 0.7558594, 0.0390625 1.484375 Q 0.03515625 1.6132812, 0.0390625 1.7695312 Q 0.04296875 1.9238281, 0.056640625 2.0839844 Q 0.072265625 2.2441406, 0.091796875 2.3847656 Q 0.14453125 2.671875, 0.31445312 2.8613281 Q 0.484375 3.0488281, 0.71484375 3.1289062 L 0.71484375 3.2851562 Q 0.38671875 3.4199219, 0.22265625 3.6640625 Q 0.060546875 3.9082031, 0.01953125 4.328125 Q 0.0078125 4.4960938, 0.00390625 4.609375 Q 0 4.720703, 0.001953125 4.8222656 Z M 1.8964844 5.6445312 L 1.8964844 6.5371094 Q 2.6113281 6.4882812, 2.9277344 6.138672 Q 3.2441406 5.7890625, 3.2832031 5.0527344 Q 3.2910156 4.888672, 3.2910156 4.71875 Q 3.2910156 4.548828, 3.2675781 4.3164062 Q 3.2148438 3.9160156, 3.0429688 3.6738281 Q 2.8710938 3.4296875, 2.5722656 3.2929688 L 2.5722656 3.1289062 Q 2.8066406 3.0488281, 2.9765625 2.8613281 Q 3.1484375 2.671875, 3.1992188 2.3808594 Q 3.21875 2.2597656, 3.2324219 2.0996094 Q 3.2480469 1.9375, 3.2519531 1.7734375 Q 3.2558594 1.609375, 3.2480469 1.484375 Q 3.2109375 0.7480469, 2.8964844 0.40039062 Q 2.5839844 0.052734375, 1.8964844 0 L 1.8964844 0.8925781 Q 2.0546875 0.94140625, 2.1289062 1.0546875 Q 2.203125 1.1679688, 2.203125 1.3457031 Q 2.2070312 1.5566406, 2.2050781 1.7792969 Q 2.203125 2, 2.203125 2.2167969 Q 2.203125 2.5839844, 1.8964844 2.6757812 L 1.8964844 3.7519531 Q 2.1992188 3.8496094, 2.203125 4.2128906 Q 2.2070312 4.3808594, 2.2070312 4.5410156 L 2.2070312 4.861328 Q 2.2070312 5.0214844, 2.203125 5.1933594 Q 2.203125 5.3691406, 2.1289062 5.484375 Q 2.0546875 5.5976562, 1.8964844 5.6445312 Z M 6.3964844 7.7929688 Q 6.6757812 7.9804688, 7.2871094 8.013672 L 7.2871094 7.28125 Q 7.0722656 7.2617188, 6.9472656 7.1933594 Q 6.8242188 7.125, 6.7871094 6.984375 Q 6.7753906 6.9375, 6.7714844 6.876953 Q 6.767578 6.8164062, 6.7871094 6.7617188 Q 6.8203125 6.6328125, 6.9414062 6.5566406 Q 7.064453 6.4804688, 7.2871094 6.4570312 L 7.2871094 5.736328 Q 7.046875 5.716797, 6.9726562 5.6679688 Q 6.9003906 5.6171875, 6.9003906 5.517578 L 6.9003906 5.484375 Q 6.9003906 5.3847656, 6.986328 5.330078 Q 7.0722656 5.2734375, 7.2910156 5.2558594 L 7.2910156 4.419922 Q 7.15625 4.376953, 7.080078 4.279297 Q 7.0039062 4.1816406, 6.9921875 4.0214844 Q 6.9804688 3.8320312, 6.9785156 3.6367188 Q 6.9765625 3.4414062, 6.9804688 3.2363281 Q 6.984375 3.0292969, 6.9921875 2.8164062 Q 7 2.65625, 7.0722656 2.5585938 Q 7.1445312 2.4609375, 7.2871094 2.4238281 L 7.2871094 1.6015625 Q 6.626953 1.6445312, 6.314453 1.9609375 Q 6.0039062 2.2773438, 5.955078 2.9375 Q 5.951172 3.0644531, 5.9472656 3.1757812 Q 5.9433594 3.2851562, 5.9433594 3.3925781 Q 5.9433594 3.5, 5.9472656 3.6230469 Q 5.951172 3.7441406, 5.955078 3.9003906 Q 5.9882812 4.361328, 6.1445312 4.6601562 Q 6.3027344 4.9570312, 6.623047 5.0976562 L 6.623047 5.2441406 Q 6.375 5.2734375, 6.220703 5.408203 Q 6.0683594 5.5410156, 6.046875 5.705078 Q 6.0429688 5.765625, 6.0390625 5.8125 Q 6.0351562 5.857422, 6.046875 5.9453125 Q 6.0996094 6.3203125, 6.611328 6.3964844 L 6.611328 6.548828 Q 6.34375 6.5878906, 6.2089844 6.7265625 Q 6.076172 6.8652344, 6.046875 7.0566406 Q 6.0390625 7.1171875, 6.044922 7.1972656 Q 6.0507812 7.2773438, 6.064453 7.328125 Q 6.1191406 7.6054688, 6.3964844 7.7929688 Z M 7.7871094 4.4160156 L 7.7871094 5.2402344 Q 8.455078 5.1972656, 8.759766 4.8789062 Q 9.064453 4.560547, 9.103516 3.9003906 Q 9.115234 3.7402344, 9.1171875 3.6210938 Q 9.119141 3.5, 9.1171875 3.3867188 Q 9.115234 3.2734375, 9.111328 3.1328125 L 9.111328 2.9121094 Q 9.111328 2.6640625, 9.224609 2.5664062 Q 9.339844 2.46875, 9.542969 2.46875 L 9.660156 2.46875 L 9.660156 1.6679688 Q 9.375 1.671875, 9.222656 1.7832031 Q 9.072266 1.8925781, 9.0390625 2.1289062 L 8.886719 2.1289062 Q 8.599609 1.6523438, 7.7871094 1.6015625 L 7.7871094 2.4296875 Q 7.919922 2.4648438, 7.9902344 2.5585938 Q 8.060547 2.6523438, 8.068359 2.8007812 Q 8.080078 3.0175781, 8.083984 3.234375 Q 8.087891 3.4492188, 8.083984 3.65625 Q 8.080078 3.8613281, 8.068359 4.048828 Q 8.060547 4.189453, 7.9882812 4.28125 Q 7.9160156 4.373047, 7.7871094 4.4160156 Z M 7.7871094 7.28125 L 7.7871094 8.0078125 Q 8.3828125 7.9726562, 8.787109 7.7578125 Q 9.191406 7.544922, 9.263672 7.0527344 Q 9.279297 6.9492188, 9.277344 6.857422 Q 9.275391 6.765625, 9.263672 6.705078 Q 9.191406 6.265625, 8.837891 6.03125 Q 8.484375 5.796875, 7.7871094 5.7558594 L 7.7871094 6.4570312 Q 8.027344 6.4726562, 8.181641 6.5371094 Q 8.3359375 6.6015625, 8.371094 6.7246094 Q 8.400391 6.796875, 8.402344 6.8515625 Q 8.404297 6.908203, 8.378906 6.96875 Q 8.3359375 7.1054688, 8.183594 7.1796875 Q 8.03125 7.2558594, 7.7871094 7.28125 Z M 10.066406 3.2246094 Q 10.068359 3.3925781, 10.076172 3.4726562 L 11.095703 3.4726562 Q 11.091797 3.4335938, 11.089844 3.2871094 Q 11.087891 3.140625, 11.089844 2.9863281 Q 11.091797 2.8320312, 11.095703 2.7734375 Q 11.103516 2.625, 11.167969 2.5390625 Q 11.232422 2.453125, 11.347656 2.4160156 L 11.347656 1.6015625 Q 10.6484375 1.6445312, 10.369141 1.9570312 Q 10.091797 2.2695312, 10.068359 2.8964844 Q 10.064453 3.0566406, 10.066406 3.2246094 Z M 12.0546875 2.8242188 L 12.0546875 6.46875 L 13.087891 6.46875 L 13.095703 3.0605469 Q 13.099609 2.3398438, 12.830078 1.9941406 Q 12.560547 1.6484375, 11.847656 1.6015625 L 11.847656 2.4414062 Q 11.955078 2.484375, 12.003906 2.5800781 Q 12.0546875 2.6757812, 12.0546875 2.8242188 Z M 9.919922 5.2441406 Q 9.919922 5.3496094, 9.923828 5.423828 Q 9.970703 6.0253906, 10.230469 6.2773438 Q 10.4921875 6.529297, 11.027344 6.529297 Q 11.359375 6.529297, 11.5546875 6.388672 L 11.5546875 5.7558594 Q 11.515625 5.7695312, 11.455078 5.7695312 Q 11.244141 5.7695312, 11.125 5.6601562 Q 11.0078125 5.548828, 10.988281 5.3496094 Q 10.984375 5.265625, 10.984375 5.216797 Q 10.984375 5.1679688, 10.988281 5.0683594 Q 10.996094 4.8691406, 11.072266 4.6914062 Q 11.1484375 4.513672, 11.400391 4.404297 Q 11.443359 4.3847656, 11.480469 4.3652344 L 11.5546875 4.328125 L 11.5546875 3.640625 Q 11.451172 3.671875, 11.349609 3.7070312 Q 11.248047 3.7402344, 11.144531 3.78125 Q 10.707031 3.9375, 10.447266 4.1132812 Q 10.1875 4.2890625, 10.066406 4.5195312 Q 9.947266 4.748047, 9.923828 5.064453 Q 9.919922 5.1367188, 9.919922 5.2441406 Z M 14.076172 6.46875 L 14.076172 0.068359375 L 15.134766 0.068359375 L 15.134766 6.46875 L 14.076172 6.46875 Z" transform="translate(7.8652344, 37.18932)" />
    <rect id="mark_9" fill="Black" x="0" y="9.05" width="25" height="1.5" />
    <path fill="Black" d="M 0.001953125 2.2929688 Q 0.00390625 2.484375, 0.00390625 2.7167969 Q 0.00390625 3.1972656, 0.17773438 3.4980469 Q 0.35351562 3.796875, 0.63671875 3.9335938 Q 0.9199219 4.0683594, 1.2480469 4.0683594 Q 1.3925781 4.0683594, 1.5214844 4.0390625 Q 1.6523438 4.0097656, 1.7519531 3.9609375 L 1.7519531 3.1816406 Q 1.7363281 3.1855469, 1.7148438 3.1875 Q 1.6933594 3.1894531, 1.6679688 3.1894531 Q 1.4121094 3.1894531, 1.25 3.0820312 Q 1.0878906 2.9726562, 1.0800781 2.7617188 Q 1.0761719 2.65625, 1.078125 2.4375 Q 1.0800781 2.2167969, 1.0820312 1.96875 Q 1.0839844 1.7207031, 1.0859375 1.5292969 Q 1.0878906 1.3359375, 1.0878906 1.2890625 Q 1.0878906 0.96875, 1.4121094 0.8886719 L 1.4121094 0 Q 0.6972656 0.048828125, 0.36914062 0.39648438 Q 0.041015625 0.7441406, 0.0078125 1.4804688 Q 0.00390625 1.5527344, 0.001953125 1.671875 Q 0 1.7890625, 0 1.9453125 Q 0 2.1015625, 0.001953125 2.2929688 Z M 1.9121094 5.6484375 L 1.9121094 6.5371094 Q 2.6171875 6.4960938, 2.9511719 6.1484375 Q 3.2851562 5.8007812, 3.296875 5.0566406 Q 3.3085938 4.4492188, 3.3144531 3.9121094 Q 3.3203125 3.3730469, 3.3164062 2.7929688 Q 3.3125 2.2128906, 3.296875 1.4804688 Q 3.28125 0.7441406, 2.9628906 0.39257812 Q 2.6445312 0.041015625, 1.9121094 0 L 1.9121094 0.8886719 Q 2.0566406 0.93359375, 2.1386719 1.0292969 Q 2.2207031 1.125, 2.2207031 1.2734375 Q 2.2285156 1.9003906, 2.2324219 2.4042969 Q 2.2363281 2.9082031, 2.2382812 3.359375 Q 2.2402344 3.8085938, 2.2363281 4.2617188 Q 2.2324219 4.7128906, 2.2246094 5.236328 Q 2.2246094 5.4121094, 2.140625 5.515625 Q 2.0566406 5.6171875, 1.9121094 5.6484375 Z M 0.11328125 4.8828125 L 0.11328125 5.0566406 Q 0.11328125 5.7773438, 0.41992188 6.125 Q 0.7285156 6.4726562, 1.4121094 6.529297 L 1.4121094 5.6210938 Q 1.3007812 5.5683594, 1.2480469 5.4765625 Q 1.1972656 5.3847656, 1.1894531 5.2441406 Q 1.1796875 5.0371094, 1.1835938 4.859375 Q 1.1894531 4.6816406, 1.1933594 4.484375 L 0.12109375 4.484375 Q 0.1171875 4.576172, 0.115234375 4.6816406 Q 0.11328125 4.7851562, 0.11328125 4.8828125 Z M 6.4375 7.7890625 Q 6.716797 7.9765625, 7.328125 8.009766 L 7.328125 7.2773438 Q 7.1132812 7.2578125, 6.9882812 7.189453 Q 6.8652344 7.1210938, 6.828125 6.9804688 Q 6.8164062 6.9335938, 6.8125 6.873047 Q 6.8085938 6.8125, 6.828125 6.7578125 Q 6.861328 6.6289062, 6.982422 6.5527344 Q 7.1054688 6.4765625, 7.328125 6.453125 L 7.328125 5.732422 Q 7.0878906 5.7128906, 7.013672 5.6640625 Q 6.9414062 5.6132812, 6.9414062 5.513672 L 6.9414062 5.4804688 Q 6.9414062 5.3808594, 7.0273438 5.326172 Q 7.1132812 5.2695312, 7.3320312 5.251953 L 7.3320312 4.4160156 Q 7.1972656 4.373047, 7.1210938 4.2753906 Q 7.044922 4.1777344, 7.033203 4.017578 Q 7.0214844 3.828125, 7.0195312 3.6328125 Q 7.017578 3.4375, 7.0214844 3.2324219 Q 7.0253906 3.0253906, 7.033203 2.8125 Q 7.0410156 2.6523438, 7.1132812 2.5546875 Q 7.185547 2.4570312, 7.328125 2.4199219 L 7.328125 1.5976562 Q 6.6679688 1.640625, 6.3554688 1.9570312 Q 6.044922 2.2734375, 5.9960938 2.9335938 Q 5.9921875 3.0605469, 5.9882812 3.171875 Q 5.984375 3.28125, 5.984375 3.3886719 Q 5.984375 3.4960938, 5.9882812 3.6191406 Q 5.9921875 3.7402344, 5.9960938 3.8964844 Q 6.029297 4.357422, 6.185547 4.65625 Q 6.34375 4.953125, 6.6640625 5.09375 L 6.6640625 5.2402344 Q 6.4160156 5.2695312, 6.2617188 5.404297 Q 6.109375 5.5371094, 6.0878906 5.701172 Q 6.0839844 5.7617188, 6.080078 5.8085938 Q 6.076172 5.8535156, 6.0878906 5.9414062 Q 6.140625 6.3164062, 6.6523438 6.392578 L 6.6523438 6.544922 Q 6.3847656 6.5839844, 6.25 6.7226562 Q 6.1171875 6.861328, 6.0878906 7.0527344 Q 6.080078 7.1132812, 6.0859375 7.1933594 Q 6.091797 7.2734375, 6.1054688 7.3242188 Q 6.1601562 7.6015625, 6.4375 7.7890625 Z M 7.828125 4.4121094 L 7.828125 5.236328 Q 8.496094 5.1933594, 8.800781 4.875 Q 9.105469 4.5566406, 9.144531 3.8964844 Q 9.15625 3.7363281, 9.158203 3.6171875 Q 9.160156 3.4960938, 9.158203 3.3828125 Q 9.15625 3.2695312, 9.152344 3.1289062 L 9.152344 2.9082031 Q 9.152344 2.6601562, 9.265625 2.5625 Q 9.380859 2.4648438, 9.583984 2.4648438 L 9.701172 2.4648438 L 9.701172 1.6640625 Q 9.416016 1.6679688, 9.263672 1.7792969 Q 9.113281 1.8886719, 9.080078 2.125 L 8.927734 2.125 Q 8.640625 1.6484375, 7.828125 1.5976562 L 7.828125 2.4257812 Q 7.9609375 2.4609375, 8.03125 2.5546875 Q 8.1015625 2.6484375, 8.109375 2.796875 Q 8.121094 3.0136719, 8.125 3.2304688 Q 8.128906 3.4453125, 8.125 3.6523438 Q 8.121094 3.8574219, 8.109375 4.044922 Q 8.1015625 4.185547, 8.029297 4.2773438 Q 7.9570312 4.3691406, 7.828125 4.4121094 Z M 7.828125 7.2773438 L 7.828125 8.003906 Q 8.423828 7.96875, 8.828125 7.7539062 Q 9.232422 7.5410156, 9.3046875 7.048828 Q 9.3203125 6.9453125, 9.318359 6.8535156 Q 9.316406 6.7617188, 9.3046875 6.701172 Q 9.232422 6.2617188, 8.878906 6.0273438 Q 8.525391 5.7929688, 7.828125 5.751953 L 7.828125 6.453125 Q 8.068359 6.46875, 8.222656 6.533203 Q 8.376953 6.5976562, 8.412109 6.720703 Q 8.441406 6.7929688, 8.443359 6.8476562 Q 8.4453125 6.904297, 8.419922 6.9648438 Q 8.376953 7.1015625, 8.224609 7.1757812 Q 8.072266 7.251953, 7.828125 7.2773438 Z M 10.107422 3.2207031 Q 10.109375 3.3886719, 10.1171875 3.46875 L 11.136719 3.46875 Q 11.1328125 3.4296875, 11.130859 3.2832031 Q 11.128906 3.1367188, 11.130859 2.9824219 Q 11.1328125 2.828125, 11.136719 2.7695312 Q 11.144531 2.6210938, 11.208984 2.5351562 Q 11.2734375 2.4492188, 11.388672 2.4121094 L 11.388672 1.5976562 Q 10.689453 1.640625, 10.410156 1.953125 Q 10.1328125 2.265625, 10.109375 2.8925781 Q 10.105469 3.0527344, 10.107422 3.2207031 Z M 12.095703 2.8203125 L 12.095703 6.4648438 L 13.128906 6.4648438 L 13.136719 3.0566406 Q 13.140625 2.3359375, 12.871094 1.9902344 Q 12.6015625 1.6445312, 11.888672 1.5976562 L 11.888672 2.4375 Q 11.996094 2.4804688, 12.044922 2.5761719 Q 12.095703 2.671875, 12.095703 2.8203125 Z M 9.9609375 5.2402344 Q 9.9609375 5.345703, 9.964844 5.419922 Q 10.011719 6.0214844, 10.271484 6.2734375 Q 10.533203 6.5253906, 11.068359 6.5253906 Q 11.400391 6.5253906, 11.595703 6.3847656 L 11.595703 5.751953 Q 11.556641 5.765625, 11.496094 5.765625 Q 11.285156 5.765625, 11.166016 5.65625 Q 11.048828 5.544922, 11.029297 5.345703 Q 11.025391 5.2617188, 11.025391 5.2128906 Q 11.025391 5.1640625, 11.029297 5.064453 Q 11.037109 4.8652344, 11.113281 4.6875 Q 11.189453 4.5097656, 11.441406 4.4003906 Q 11.484375 4.3808594, 11.521484 4.361328 L 11.595703 4.3242188 L 11.595703 3.6367188 Q 11.4921875 3.6679688, 11.390625 3.703125 Q 11.2890625 3.7363281, 11.185547 3.7773438 Q 10.748047 3.9335938, 10.488281 4.109375 Q 10.228516 4.2851562, 10.107422 4.515625 Q 9.988281 4.7441406, 9.964844 5.060547 Q 9.9609375 5.1328125, 9.9609375 5.2402344 Z M 14.1171875 6.4648438 L 14.1171875 0.064453125 L 15.175781 0.064453125 L 15.175781 6.4648438 L 14.1171875 6.4648438 Z" transform="translate(7.8242188, 0)" />
  </g>
</svg>