<?xml version="1.0" encoding="UTF-8"?>
<svg xmlns:xlink="http://www.w3.org/1999/xlink" viewBox="0 0 35.1 425.4898958748681" version="1.1" style="font-synthesis: none;" width="35.1mm" height="425.4898958748681mm" xmlns="http://www.w3.org/2000/svg">
  <defs />
  <style>	</style>
  <path d="M 0 0 L 35.1 0 L 35.1 425.4898958748681 L 0 425.4898958748681 Z " stroke="none" fill-rule="nonzero" fill="#FFFFFF" fill-opacity="1" transform="matrix(1,0,0,1,0,0)" />
  <path d="M 0 404.6078958748681 L 10 404.6078958748681 L 10 406.1078958748681 L 0 406.1078958748681 Z " stroke="none" fill-rule="evenodd" fill="#000000" fill-opacity="1" transform="matrix(1,0,0,1,5.05,13.314)" id="mark1 l" />
  <path d="M 0 394.21410367294845 L 10 394.21410367294845 L 10 395.71410367294845 L 0 395.71410367294845 Z " stroke="none" fill-rule="evenodd" fill="#000000" fill-opacity="1" transform="matrix(1,0,0,1,5.05,13.314)" id="mark2 l" />
  <path d="M 0 383.82031147102873 L 10 383.82031147102873 L 10 385.32031147102873 L 0 385.32031147102873 Z " stroke="none" fill-rule="evenodd" fill="#000000" fill-opacity="1" transform="matrix(1,0,0,1,5.05,13.314)" id="mark3 l" />
  <path d="M 0 373.42651926910906 L 10 373.42651926910906 L 10 374.92651926910906 L 0 374.92651926910906 Z " stroke="none" fill-rule="evenodd" fill="#000000" fill-opacity="1" transform="matrix(1,0,0,1,5.05,13.314)" id="mark4 l" />
  <path d="M 0 363.03272706718934 L 25 363.03272706718934 L 25 364.53272706718934 L 0 364.53272706718934 Z " stroke="none" fill-rule="evenodd" fill="#000000" fill-opacity="1" transform="matrix(1,0,0,1,5.05,13.314)" id="mark5 l" />
  <path d="M 16.18 360.53472706718935 C 16.174666666666667 360.361393733856, 16.173333333333332 360.2220604005227, 16.176 360.11672706718934 C 16.178666666666665 360.011393733856, 16.181333333333335 359.909393733856, 16.183999999999997 359.81072706718936 L 17.264 359.81072706718936 C 17.256 359.8880604005227, 17.25 359.9840604005227, 17.246 360.0987270671894 C 17.241999999999997 360.21339373385604, 17.240666666666666 360.3240604005227, 17.241999999999997 360.43072706718937 C 17.243333333333332 360.537393733856, 17.246666666666666 360.61739373385603, 17.252 360.6707270671894 C 17.262666666666668 360.7907270671893, 17.297333333333334 360.88872706718934, 17.355999999999998 360.96472706718936 C 17.414666666666665 361.0407270671893, 17.497333333333334 361.0947270671893, 17.604 361.12672706718934 L 17.604 362.01872706718933 C 17.110666666666663 361.981393733856, 16.75333333333333 361.84672706718936, 16.532 361.61472706718934 C 16.310666666666666 361.3827270671893, 16.19333333333333 361.02272706718935, 16.18 360.53472706718935 Z M 16.279999999999998 359.19872706718934 L 16.279999999999998 355.55072706718937 L 17.348 355.55072706718937 L 17.348 359.19872706718934 Z M 17.852 358.77472706718936 L 17.852 358.01872706718933 C 17.929333333333332 357.9787270671893, 18.014666666666667 357.94672706718933, 18.107999999999997 357.9227270671893 C 18.20133333333333 357.8987270671893, 18.301333333333332 357.8867270671893, 18.407999999999998 357.8867270671893 C 18.773333333333333 357.8867270671893, 19.047333333333334 358.0020604005227, 19.23 358.23272706718933 C 19.412666666666667 358.463393733856, 19.514666666666663 358.777393733856, 19.535999999999998 359.17472706718934 C 19.546666666666667 359.3347270671893, 19.55333333333333 359.493393733856, 19.555999999999997 359.65072706718934 C 19.558666666666664 359.80806040052266, 19.557333333333332 359.96139373385597, 19.552 360.1107270671894 C 19.546666666666667 360.26006040052266, 19.538666666666668 360.40006040052265, 19.528 360.53072706718933 C 19.482666666666667 361.02939373385595, 19.353333333333335 361.3947270671893, 19.14 361.62672706718934 C 18.926666666666666 361.85872706718936, 18.581333333333333 361.989393733856, 18.104 362.01872706718933 L 18.104 361.12672706718934 C 18.21333333333333 361.09739373385605, 18.296 361.04472706718934, 18.352 360.9687270671893 C 18.408 360.89272706718936, 18.44 360.793393733856, 18.448 360.6707270671894 C 18.471999999999998 360.38006040052267, 18.485999999999997 360.11872706718935, 18.49 359.8867270671893 C 18.494 359.65472706718936, 18.485333333333333 359.433393733856, 18.464 359.22272706718934 C 18.447999999999997 359.0680604005227, 18.396666666666665 358.95272706718936, 18.31 358.87672706718934 C 18.223333333333333 358.8007270671893, 18.090666666666664 358.76272706718936, 17.912 358.76272706718936 C 17.901333333333334 358.76272706718936, 17.890666666666668 358.7640604005227, 17.88 358.7667270671893 C 17.86933333333333 358.769393733856, 17.86 358.7720604005227, 17.852 358.77472706718936 Z M 17.852 356.48272706718933 L 17.852 355.55072706718937 L 19.439999999999998 355.55072706718937 L 19.439999999999998 356.48272706718933 Z M 21.944 361.95072706718935 L 21.944 355.55072706718937 L 23.003999999999998 355.55072706718937 L 23.003999999999998 361.95072706718935 Z " stroke="none" fill-rule="nonzero" fill="#000000" fill-opacity="1" transform="matrix(1,0,0,1,5.05,13.314)" id="text5 l" />
  <path d="M 0 352.6389348652697 L 10 352.6389348652697 L 10 354.1389348652697 L 0 354.1389348652697 Z " stroke="none" fill-rule="evenodd" fill="#000000" fill-opacity="1" transform="matrix(1,0,0,1,5.05,13.314)" id="mark6 l" />
  <path d="M 0 342.24514266334995 L 10 342.24514266334995 L 10 343.74514266334995 L 0 343.74514266334995 Z " stroke="none" fill-rule="evenodd" fill="#000000" fill-opacity="1" transform="matrix(1,0,0,1,5.05,13.314)" id="mark7 l" />
  <path d="M 0 331.8513504614303 L 10 331.8513504614303 L 10 333.3513504614303 L 0 333.3513504614303 Z " stroke="none" fill-rule="evenodd" fill="#000000" fill-opacity="1" transform="matrix(1,0,0,1,5.05,13.314)" id="mark8 l" />
  <path d="M 0 321.45755825951056 L 10 321.45755825951056 L 10 322.95755825951056 L 0 322.95755825951056 Z " stroke="none" fill-rule="evenodd" fill="#000000" fill-opacity="1" transform="matrix(1,0,0,1,5.05,13.314)" id="mark9 l" />
  <path d="M 0 311.0637660575909 L 25 311.0637660575909 L 25 312.5637660575909 L 0 312.5637660575909 Z " stroke="none" fill-rule="evenodd" fill="#000000" fill-opacity="1" transform="matrix(1,0,0,1,5.05,13.314)" id="mark10 l" />
  <path d="M 14.323999999999998 310.0137660575909 L 14.323999999999998 304.56976605759087 L 13.871999999999998 304.56976605759087 L 13.839999999999998 304.1897660575909 L 14.543999999999999 303.6137660575909 L 15.424 303.6137660575909 L 15.424 310.0137660575909 Z M 16.196 308.6017660575909 C 16.188000000000002 308.1724327242576, 16.182666666666666 307.7557660575909, 16.18 307.3517660575909 C 16.177333333333333 306.9477660575909, 16.177999999999997 306.5524327242576, 16.182 306.1657660575909 C 16.186 305.7790993909242, 16.190666666666665 305.3977660575909, 16.196 305.02176605759087 C 16.209333333333333 304.58176605759087, 16.334000000000003 304.23643272425755, 16.57 303.98576605759087 C 16.805999999999997 303.73509939092423, 17.142666666666663 303.58976605759085, 17.58 303.5497660575909 L 17.58 304.43776605759086 C 17.382666666666665 304.49376605759085, 17.281333333333333 304.6230993909242, 17.276 304.8257660575909 C 17.262666666666668 305.19643272425753, 17.253333333333334 305.54443272425755, 17.248 305.8697660575909 C 17.242666666666665 306.1950993909242, 17.24 306.5117660575909, 17.24 306.81976605759087 C 17.24 307.12776605759086, 17.242666666666665 307.4424327242575, 17.248 307.7637660575909 C 17.253333333333334 308.08509939092426, 17.262666666666668 308.42843272425756, 17.276 308.79376605759086 C 17.281333333333333 309.0017660575909, 17.382666666666665 309.13376605759083, 17.58 309.1897660575909 L 17.58 310.0777660575909 C 17.142666666666663 310.0377660575909, 16.805999999999997 309.89176605759087, 16.57 309.63976605759086 C 16.334000000000003 309.38776605759085, 16.209333333333333 309.0417660575909, 16.196 308.6017660575909 Z M 18.084 310.0777660575909 L 18.084 309.1857660575909 C 18.268 309.13243272425757, 18.366666666666667 309.00843272425755, 18.38 308.8137660575909 C 18.398666666666667 308.34709939092426, 18.410666666666668 307.8984327242576, 18.416 307.4677660575909 C 18.421333333333333 307.0370993909242, 18.421333333333333 306.60643272425756, 18.416 306.17576605759086 C 18.410666666666668 305.7450993909242, 18.398666666666667 305.29243272425754, 18.38 304.81776605759086 C 18.374666666666666 304.6230993909242, 18.276 304.49643272425755, 18.084 304.43776605759086 L 18.084 303.5497660575909 C 18.513333333333335 303.58976605759085, 18.846666666666668 303.73509939092423, 19.084 303.98576605759087 C 19.321333333333335 304.23643272425755, 19.445333333333334 304.58176605759087, 19.456 305.02176605759087 C 19.46666666666667 305.3364327242576, 19.474666666666668 305.6464327242576, 19.48 305.9517660575909 C 19.485333333333333 306.2570993909242, 19.488 306.55776605759087, 19.488 306.85376605759086 C 19.488 307.14976605759085, 19.485333333333333 307.4430993909242, 19.48 307.7337660575909 C 19.474666666666668 308.02443272425757, 19.46666666666667 308.3137660575909, 19.456 308.6017660575909 C 19.439999999999998 309.0524327242576, 19.311999999999998 309.40109939092423, 19.072 309.6477660575909 C 18.832 309.89443272425757, 18.502666666666666 310.0377660575909, 18.084 310.0777660575909 Z M 21.944 310.0137660575909 L 21.944 303.6137660575909 L 23.003999999999998 303.6137660575909 L 23.003999999999998 310.0137660575909 Z " stroke="none" fill-rule="nonzero" fill="#000000" fill-opacity="1" transform="matrix(1,0,0,1,5.05,13.314)" id="text10 l" />
  <path d="M 0 300.6699738556712 L 10 300.6699738556712 L 10 302.1699738556712 L 0 302.1699738556712 Z " stroke="none" fill-rule="evenodd" fill="#000000" fill-opacity="1" transform="matrix(1,0,0,1,5.05,13.314)" id="mark11 l" />
  <path d="M 0 290.2761816537515 L 10 290.2761816537515 L 10 291.7761816537515 L 0 291.7761816537515 Z " stroke="none" fill-rule="evenodd" fill="#000000" fill-opacity="1" transform="matrix(1,0,0,1,5.05,13.314)" id="mark12 l" />
  <path d="M 0 279.8823894518318 L 10 279.8823894518318 L 10 281.3823894518318 L 0 281.3823894518318 Z " stroke="none" fill-rule="evenodd" fill="#000000" fill-opacity="1" transform="matrix(1,0,0,1,5.05,13.314)" id="mark13 l" />
  <path d="M 0 269.4885972499121 L 10 269.4885972499121 L 10 270.9885972499121 L 0 270.9885972499121 Z " stroke="none" fill-rule="evenodd" fill="#000000" fill-opacity="1" transform="matrix(1,0,0,1,5.05,13.314)" id="mark14 l" />
  <path d="M 0 259.0948050479924 L 25 259.0948050479924 L 25 260.5948050479924 L 0 260.5948050479924 Z " stroke="none" fill-rule="evenodd" fill="#000000" fill-opacity="1" transform="matrix(1,0,0,1,5.05,13.314)" id="mark15 l" />
  <path d="M 14.331999999999999 258.0128050479924 L 14.331999999999999 252.5688050479924 L 13.879999999999999 252.5688050479924 L 13.847999999999999 252.1888050479924 L 14.552 251.6128050479924 L 15.432 251.6128050479924 L 15.432 258.0128050479924 Z M 16.18 256.5968050479924 C 16.174666666666667 256.42347171465906, 16.173333333333332 256.28413838132576, 16.176 256.1788050479924 C 16.178666666666665 256.07347171465904, 16.181333333333335 255.97147171465906, 16.183999999999997 255.87280504799241 L 17.264 255.87280504799241 C 17.256 255.95013838132576, 17.25 256.04613838132576, 17.246 256.1608050479924 C 17.241999999999997 256.2754717146591, 17.240666666666666 256.38613838132574, 17.241999999999997 256.4928050479924 C 17.243333333333332 256.5994717146591, 17.246666666666666 256.6794717146591, 17.252 256.73280504799243 C 17.262666666666668 256.8528050479924, 17.297333333333334 256.9508050479924, 17.355999999999998 257.0268050479924 C 17.414666666666665 257.10280504799243, 17.497333333333334 257.1568050479924, 17.604 257.1888050479924 L 17.604 258.0808050479924 C 17.110666666666663 258.04347171465906, 16.75333333333333 257.9088050479924, 16.532 257.6768050479924 C 16.310666666666666 257.44480504799236, 16.19333333333333 257.0848050479924, 16.18 256.5968050479924 Z M 16.279999999999998 255.2608050479924 L 16.279999999999998 251.6128050479924 L 17.348 251.6128050479924 L 17.348 255.2608050479924 Z M 17.852 254.8368050479924 L 17.852 254.0808050479924 C 17.929333333333332 254.04080504799242, 18.014666666666667 254.00880504799244, 18.107999999999997 253.9848050479924 C 18.20133333333333 253.96080504799244, 18.301333333333332 253.94880504799244, 18.407999999999998 253.9488050479924 C 18.773333333333333 253.94880504799244, 19.047333333333334 254.06413838132573, 19.23 254.2948050479924 C 19.412666666666667 254.52547171465903, 19.514666666666663 254.83947171465906, 19.535999999999998 255.2368050479924 C 19.546666666666667 255.39680504799242, 19.55333333333333 255.55547171465906, 19.555999999999997 255.7128050479924 C 19.558666666666664 255.87013838132572, 19.557333333333332 256.0234717146591, 19.552 256.1728050479924 C 19.546666666666667 256.3221383813258, 19.538666666666668 256.46213838132576, 19.528 256.5928050479924 C 19.482666666666667 257.09147171465906, 19.353333333333335 257.45680504799236, 19.14 257.6888050479924 C 18.926666666666666 257.9208050479924, 18.581333333333333 258.05147171465904, 18.104 258.0808050479924 L 18.104 257.1888050479924 C 18.21333333333333 257.15947171465905, 18.296 257.1068050479924, 18.352 257.0308050479924 C 18.408 256.9548050479924, 18.44 256.8554717146591, 18.448 256.73280504799243 C 18.471999999999998 256.4421383813257, 18.485999999999997 256.1808050479924, 18.49 255.9488050479924 C 18.494 255.7168050479924, 18.485333333333333 255.49547171465906, 18.464 255.2848050479924 C 18.447999999999997 255.13013838132574, 18.396666666666665 255.0148050479924, 18.31 254.9388050479924 C 18.223333333333333 254.86280504799242, 18.090666666666664 254.8248050479924, 17.912 254.8248050479924 C 17.901333333333334 254.8248050479924, 17.890666666666668 254.82613838132573, 17.88 254.8288050479924 C 17.86933333333333 254.83147171465907, 17.86 254.83413838132572, 17.852 254.8368050479924 Z M 17.852 252.5448050479924 L 17.852 251.6128050479924 L 19.439999999999998 251.6128050479924 L 19.439999999999998 252.5448050479924 Z M 21.944 258.0128050479924 L 21.944 251.6128050479924 L 23.003999999999998 251.6128050479924 L 23.003999999999998 258.0128050479924 Z " stroke="none" fill-rule="nonzero" fill="#000000" fill-opacity="1" transform="matrix(1,0,0,1,5.05,13.314)" id="text15 l" />
  <path d="M 0 248.7010128460727 L 10 248.7010128460727 L 10 250.2010128460727 L 0 250.2010128460727 Z " stroke="none" fill-rule="evenodd" fill="#000000" fill-opacity="1" transform="matrix(1,0,0,1,5.05,13.314)" id="mark16 l" />
  <path d="M 0 238.307220644153 L 10 238.307220644153 L 10 239.807220644153 L 0 239.807220644153 Z " stroke="none" fill-rule="evenodd" fill="#000000" fill-opacity="1" transform="matrix(1,0,0,1,5.05,13.314)" id="mark17 l" />
  <path d="M 0 227.9134284422333 L 10 227.9134284422333 L 10 229.4134284422333 L 0 229.4134284422333 Z " stroke="none" fill-rule="evenodd" fill="#000000" fill-opacity="1" transform="matrix(1,0,0,1,5.05,13.314)" id="mark18 l" />
  <path d="M 0 217.51963624031362 L 10 217.51963624031362 L 10 219.01963624031362 L 0 219.01963624031362 Z " stroke="none" fill-rule="evenodd" fill="#000000" fill-opacity="1" transform="matrix(1,0,0,1,5.05,13.314)" id="mark19 l" />
  <path d="M 0 207.12584403839392 L 25 207.12584403839392 L 25 208.62584403839392 L 0 208.62584403839392 Z " stroke="none" fill-rule="evenodd" fill="#000000" fill-opacity="1" transform="matrix(1,0,0,1,5.05,13.314)" id="mark20 l" />
  <path d="M 12.319999999999999 206.07584403839394 C 12.317333333333334 205.97717737172727, 12.315333333333331 205.88851070506058, 12.313999999999998 205.80984403839395 C 12.312666666666665 205.73117737172726, 12.311333333333334 205.65717737172727, 12.309999999999999 205.58784403839394 C 12.308666666666667 205.5185107050606, 12.308 205.4465107050606, 12.308 205.37184403839393 C 12.308 205.29717737172726, 12.308 205.2125107050606, 12.308 205.11784403839394 C 12.308 205.0231773717273, 12.309333333333335 204.91184403839395, 12.312 204.78384403839394 C 12.32 204.49051070506061, 12.37 204.22851070506061, 12.462 203.99784403839394 C 12.554 203.76717737172726, 12.687999999999999 203.56117737172724, 12.863999999999999 203.37984403839394 C 13.04 203.19851070506058, 13.257333333333333 203.03717737172727, 13.515999999999998 202.89584403839393 L 14.047999999999998 202.60784403839395 C 14.234666666666666 202.50651070506063, 14.354 202.38451070506062, 14.405999999999999 202.24184403839394 C 14.457999999999998 202.09917737172725, 14.488 201.9651773717273, 14.495999999999999 201.83984403839395 C 14.506666666666664 201.6931773717273, 14.512666666666664 201.5365107050606, 14.514 201.36984403839395 C 14.51533333333333 201.2031773717273, 14.511999999999997 201.0465107050606, 14.504 200.89984403839395 C 14.498666666666665 200.79584403839397, 14.468666666666666 200.70984403839395, 14.413999999999998 200.64184403839394 C 14.359333333333332 200.57384403839393, 14.279999999999998 200.5251773717273, 14.175999999999998 200.49584403839393 L 14.175999999999998 199.60784403839395 C 14.663999999999998 199.63984403839396, 15.014 199.77117737172728, 15.225999999999999 200.00184403839393 C 15.437999999999999 200.23251070506058, 15.554666666666666 200.59317737172728, 15.575999999999999 201.08384403839395 C 15.578666666666663 201.14784403839394, 15.580666666666666 201.21317737172728, 15.581999999999999 201.27984403839395 C 15.583333333333332 201.3465107050606, 15.584 201.41117737172726, 15.584 201.47384403839393 C 15.584 201.5365107050606, 15.583333333333332 201.59851070506062, 15.581999999999999 201.65984403839394 C 15.580666666666666 201.72117737172726, 15.578666666666663 201.78117737172727, 15.575999999999999 201.83984403839395 C 15.565333333333331 202.12517737172726, 15.512 202.37184403839393, 15.415999999999999 202.57984403839393 C 15.32 202.78784403839393, 15.19 202.96784403839393, 15.026 203.11984403839395 C 14.862 203.27184403839394, 14.672 203.40784403839393, 14.456 203.52784403839394 L 13.851999999999999 203.85584403839394 C 13.737333333333332 203.9171773717273, 13.647333333333332 204.0011773717273, 13.581999999999999 204.10784403839395 C 13.516666666666666 204.2145107050606, 13.469999999999999 204.32784403839395, 13.441999999999998 204.44784403839395 C 13.413999999999998 204.56784403839393, 13.399999999999999 204.67984403839392, 13.399999999999999 204.78384403839394 L 13.399999999999999 206.07584403839394 Z M 12.328 202.03584403839395 C 12.322666666666667 201.9185107050606, 12.318666666666665 201.80384403839395, 12.315999999999999 201.69184403839392 C 12.313333333333333 201.57984403839396, 12.311333333333334 201.47384403839396, 12.309999999999999 201.37384403839394 C 12.308666666666667 201.27384403839392, 12.309333333333335 201.17717737172728, 12.312 201.08384403839395 C 12.330666666666666 200.59584403839392, 12.447333333333333 200.2365107050606, 12.661999999999999 200.00584403839395 C 12.876666666666665 199.7751773717273, 13.213333333333331 199.6425107050606, 13.671999999999999 199.60784403839395 L 13.671999999999999 200.49984403839395 C 13.576 200.52917737172726, 13.505333333333333 200.57584403839394, 13.459999999999999 200.63984403839393 C 13.414666666666665 200.70384403839392, 13.390666666666664 200.78117737172727, 13.387999999999998 200.87184403839393 C 13.382666666666665 201.07984403839393, 13.379333333333333 201.2731773717273, 13.378 201.45184403839394 C 13.376666666666667 201.6305107050606, 13.381333333333334 201.82517737172728, 13.392 202.03584403839395 Z M 13.904 206.07584403839394 L 13.904 205.14384403839395 L 15.5 205.14384403839395 L 15.5 206.07584403839394 Z M 16.196 204.66384403839393 C 16.188000000000002 204.2345107050606, 16.182666666666666 203.81784403839396, 16.18 203.41384403839393 C 16.177333333333333 203.00984403839396, 16.177999999999997 202.6145107050606, 16.182 202.22784403839393 C 16.186 201.84117737172727, 16.190666666666665 201.45984403839395, 16.196 201.08384403839395 C 16.209333333333333 200.64384403839392, 16.334000000000003 200.2985107050606, 16.57 200.04784403839395 C 16.805999999999997 199.7971773717273, 17.142666666666663 199.65184403839396, 17.58 199.61184403839394 L 17.58 200.49984403839395 C 17.382666666666665 200.55584403839396, 17.281333333333333 200.6851773717273, 17.276 200.88784403839395 C 17.262666666666668 201.25851070506062, 17.253333333333334 201.6065107050606, 17.248 201.93184403839393 C 17.242666666666665 202.25717737172727, 17.24 202.57384403839393, 17.24 202.88184403839395 C 17.24 203.18984403839391, 17.242666666666665 203.5045107050606, 17.248 203.82584403839394 C 17.253333333333334 204.14717737172728, 17.262666666666668 204.49051070506061, 17.276 204.85584403839394 C 17.281333333333333 205.06384403839394, 17.382666666666665 205.19584403839394, 17.58 205.25184403839393 L 17.58 206.13984403839393 C 17.142666666666663 206.09984403839394, 16.805999999999997 205.95384403839392, 16.57 205.70184403839394 C 16.334000000000003 205.4498440383939, 16.209333333333333 205.1038440383939, 16.196 204.66384403839393 Z M 18.084 206.13984403839393 L 18.084 205.24784403839394 C 18.268 205.19451070506062, 18.366666666666667 205.0705107050606, 18.38 204.87584403839395 C 18.398666666666667 204.40917737172725, 18.410666666666668 203.96051070506059, 18.416 203.52984403839395 C 18.421333333333333 203.09917737172725, 18.421333333333333 202.6685107050606, 18.416 202.23784403839394 C 18.410666666666668 201.80717737172728, 18.398666666666667 201.3545107050606, 18.38 200.87984403839394 C 18.374666666666666 200.68517737172726, 18.276 200.5585107050606, 18.084 200.49984403839395 L 18.084 199.61184403839394 C 18.513333333333335 199.65184403839396, 18.846666666666668 199.7971773717273, 19.084 200.04784403839395 C 19.321333333333335 200.2985107050606, 19.445333333333334 200.64384403839392, 19.456 201.08384403839395 C 19.46666666666667 201.39851070506057, 19.474666666666668 201.70851070506058, 19.48 202.01384403839393 C 19.485333333333333 202.31917737172728, 19.488 202.61984403839392, 19.488 202.91584403839394 C 19.488 203.21184403839396, 19.485333333333333 203.50517737172726, 19.48 203.79584403839394 C 19.474666666666668 204.08651070506062, 19.46666666666667 204.37584403839395, 19.456 204.66384403839393 C 19.439999999999998 205.11451070506058, 19.311999999999998 205.46317737172728, 19.072 205.70984403839392 C 18.832 205.95651070506062, 18.502666666666666 206.09984403839394, 18.084 206.13984403839393 Z M 21.944 206.07584403839394 L 21.944 199.67584403839393 L 23.003999999999998 199.67584403839393 L 23.003999999999998 206.07584403839394 Z " stroke="none" fill-rule="nonzero" fill="#000000" fill-opacity="1" transform="matrix(1,0,0,1,5.05,13.314)" id="text20 l" />
  <path d="M 0 196.73205183647423 L 10 196.73205183647423 L 10 198.23205183647423 L 0 198.23205183647423 Z " stroke="none" fill-rule="evenodd" fill="#000000" fill-opacity="1" transform="matrix(1,0,0,1,5.05,13.314)" id="mark21 l" />
  <path d="M 0 186.33825963455453 L 10 186.33825963455453 L 10 187.83825963455453 L 0 187.83825963455453 Z " stroke="none" fill-rule="evenodd" fill="#000000" fill-opacity="1" transform="matrix(1,0,0,1,5.05,13.314)" id="mark22 l" />
  <path d="M 0 175.94446743263484 L 10 175.94446743263484 L 10 177.44446743263484 L 0 177.44446743263484 Z " stroke="none" fill-rule="evenodd" fill="#000000" fill-opacity="1" transform="matrix(1,0,0,1,5.05,13.314)" id="mark23 l" />
  <path d="M 0 165.55067523071514 L 10 165.55067523071514 L 10 167.05067523071514 L 0 167.05067523071514 Z " stroke="none" fill-rule="evenodd" fill="#000000" fill-opacity="1" transform="matrix(1,0,0,1,5.05,13.314)" id="mark24 l" />
  <path d="M 0 155.15688302879545 L 25 155.15688302879545 L 25 156.65688302879545 L 0 156.65688302879545 Z " stroke="none" fill-rule="evenodd" fill="#000000" fill-opacity="1" transform="matrix(1,0,0,1,5.05,13.314)" id="mark25 l" />
  <path d="M 12.328 154.10688302879547 C 12.325333333333333 154.0082163621288, 12.323333333333332 153.91954969546214, 12.322 153.84088302879547 C 12.320666666666666 153.7622163621288, 12.319333333333333 153.6882163621288, 12.318 153.61888302879547 C 12.316666666666666 153.54954969546213, 12.315999999999999 153.47754969546213, 12.316 153.40288302879546 C 12.315999999999999 153.32821636212879, 12.315999999999999 153.24354969546212, 12.316 153.14888302879547 C 12.315999999999999 153.0542163621288, 12.317333333333334 152.94288302879548, 12.32 152.81488302879546 C 12.328 152.52154969546214, 12.378 152.25954969546214, 12.47 152.02888302879546 C 12.562000000000001 151.79821636212878, 12.696 151.5922163621288, 12.872 151.41088302879547 C 13.048 151.22954969546214, 13.265333333333334 151.0682163621288, 13.524000000000001 150.92688302879546 L 14.056000000000001 150.63888302879548 C 14.242666666666668 150.53754969546213, 14.362000000000002 150.41554969546212, 14.414 150.27288302879546 C 14.466000000000001 150.1302163621288, 14.495999999999999 149.9962163621288, 14.504 149.87088302879548 C 14.514666666666667 149.7242163621288, 14.520666666666667 149.56754969546213, 14.522 149.40088302879548 C 14.523333333333333 149.23421636212882, 14.520000000000001 149.07754969546215, 14.512 148.93088302879548 C 14.506666666666666 148.82688302879546, 14.476666666666667 148.74088302879545, 14.422 148.67288302879547 C 14.367333333333335 148.60488302879548, 14.288 148.5562163621288, 14.184000000000001 148.52688302879545 L 14.184000000000001 147.63888302879548 C 14.672 147.6708830287955, 15.022000000000002 147.8022163621288, 15.234 148.03288302879545 C 15.446000000000002 148.26354969546213, 15.562666666666667 148.62421636212878, 15.584 149.11488302879548 C 15.586666666666668 149.1788830287955, 15.588666666666668 149.2442163621288, 15.59 149.31088302879547 C 15.591333333333335 149.37754969546214, 15.592000000000002 149.44221636212882, 15.592 149.50488302879546 C 15.592000000000002 149.5675496954621, 15.591333333333335 149.62954969546212, 15.59 149.69088302879547 C 15.588666666666668 149.7522163621288, 15.586666666666668 149.8122163621288, 15.584 149.87088302879548 C 15.573333333333332 150.15621636212882, 15.52 150.40288302879546, 15.424 150.61088302879546 C 15.328 150.81888302879545, 15.197999999999999 150.99888302879546, 15.033999999999999 151.15088302879548 C 14.87 151.30288302879546, 14.68 151.43888302879546, 14.464 151.55888302879546 L 13.86 151.88688302879547 C 13.745333333333335 151.9482163621288, 13.655333333333335 152.0322163621288, 13.59 152.13888302879548 C 13.524666666666668 152.24554969546213, 13.478000000000002 152.35888302879545, 13.45 152.47888302879545 C 13.422 152.59888302879546, 13.408 152.71088302879545, 13.408 152.81488302879546 L 13.408 154.10688302879547 Z M 12.336 150.06688302879547 C 12.330666666666666 149.94954969546214, 12.326666666666664 149.83488302879547, 12.324 149.72288302879548 C 12.321333333333332 149.61088302879548, 12.319333333333333 149.50488302879546, 12.318 149.40488302879547 C 12.316666666666666 149.30488302879547, 12.317333333333334 149.20821636212878, 12.32 149.11488302879548 C 12.338666666666668 148.62688302879548, 12.455333333333336 148.26754969546215, 12.67 148.03688302879547 C 12.884666666666668 147.8062163621288, 13.221333333333334 147.67354969546213, 13.68 147.63888302879548 L 13.68 148.53088302879547 C 13.584 148.56021636212878, 13.513333333333332 148.60688302879547, 13.468 148.67088302879546 C 13.422666666666668 148.73488302879545, 13.398666666666667 148.8122163621288, 13.396 148.90288302879546 C 13.390666666666666 149.11088302879546, 13.387333333333332 149.3042163621288, 13.386 149.48288302879547 C 13.384666666666666 149.66154969546213, 13.389333333333333 149.8562163621288, 13.4 150.06688302879547 Z M 13.911999999999999 154.10688302879547 L 13.911999999999999 153.17488302879548 L 15.508 153.17488302879548 L 15.508 154.10688302879547 Z M 16.18 152.69088302879547 C 16.174666666666667 152.51754969546215, 16.173333333333332 152.3782163621288, 16.176 152.27288302879546 C 16.178666666666665 152.16754969546213, 16.181333333333335 152.06554969546215, 16.183999999999997 151.96688302879548 L 17.264 151.96688302879548 C 17.256 152.0442163621288, 17.25 152.1402163621288, 17.246 152.25488302879546 C 17.241999999999997 152.36954969546213, 17.240666666666666 152.48021636212877, 17.241999999999997 152.58688302879546 C 17.243333333333332 152.69354969546214, 17.246666666666666 152.77354969546212, 17.252 152.82688302879546 C 17.262666666666668 152.94688302879547, 17.297333333333334 153.04488302879548, 17.355999999999998 153.12088302879548 C 17.414666666666665 153.19688302879547, 17.497333333333334 153.25088302879544, 17.604 153.28288302879545 L 17.604 154.17488302879548 C 17.110666666666663 154.13754969546216, 16.75333333333333 154.00288302879545, 16.532 153.77088302879545 C 16.310666666666666 153.53888302879545, 16.19333333333333 153.17888302879547, 16.18 152.69088302879547 Z M 16.279999999999998 151.35488302879546 L 16.279999999999998 147.70688302879546 L 17.348 147.70688302879546 L 17.348 151.35488302879546 Z M 17.852 150.93088302879548 L 17.852 150.17488302879548 C 17.929333333333332 150.13488302879549, 18.014666666666667 150.10288302879547, 18.107999999999997 150.07888302879547 C 18.20133333333333 150.05488302879547, 18.301333333333332 150.04288302879547, 18.407999999999998 150.04288302879547 C 18.773333333333333 150.04288302879547, 19.047333333333334 150.15821636212883, 19.23 150.38888302879548 C 19.412666666666667 150.61954969546213, 19.514666666666663 150.93354969546215, 19.535999999999998 151.33088302879545 C 19.546666666666667 151.49088302879545, 19.55333333333333 151.64954969546213, 19.555999999999997 151.80688302879545 C 19.558666666666664 151.9642163621288, 19.557333333333332 152.11754969546215, 19.552 152.26688302879546 C 19.546666666666667 152.41621636212878, 19.538666666666668 152.5562163621288, 19.528 152.68688302879548 C 19.482666666666667 153.18554969546213, 19.353333333333335 153.55088302879545, 19.14 153.78288302879545 C 18.926666666666666 154.01488302879545, 18.581333333333333 154.14554969546214, 18.104 154.17488302879548 L 18.104 153.28288302879545 C 18.21333333333333 153.25354969546214, 18.296 153.20088302879546, 18.352 153.12488302879547 C 18.408 153.04888302879547, 18.44 152.94954969546214, 18.448 152.82688302879546 C 18.471999999999998 152.53621636212878, 18.485999999999997 152.27488302879544, 18.49 152.04288302879547 C 18.494 151.81088302879544, 18.485333333333333 151.58954969546213, 18.464 151.37888302879546 C 18.447999999999997 151.2242163621288, 18.396666666666665 151.10888302879545, 18.31 151.03288302879545 C 18.223333333333333 150.95688302879546, 18.090666666666664 150.91888302879548, 17.912 150.91888302879548 C 17.901333333333334 150.91888302879548, 17.890666666666668 150.92021636212883, 17.88 150.92288302879547 C 17.86933333333333 150.9255496954621, 17.86 150.9282163621288, 17.852 150.93088302879548 Z M 17.852 148.63888302879548 L 17.852 147.70688302879546 L 19.439999999999998 147.70688302879546 L 19.439999999999998 148.63888302879548 Z M 21.944 154.10688302879547 L 21.944 147.70688302879546 L 23.003999999999998 147.70688302879546 L 23.003999999999998 154.10688302879547 Z " stroke="none" fill-rule="nonzero" fill="#000000" fill-opacity="1" transform="matrix(1,0,0,1,5.05,13.314)" id="text25 l" />
  <path d="M 0 144.76309082687573 L 10 144.76309082687573 L 10 146.26309082687573 L 0 146.26309082687573 Z " stroke="none" fill-rule="evenodd" fill="#000000" fill-opacity="1" transform="matrix(1,0,0,1,5.05,13.314)" id="mark26 l" />
  <path d="M 0 134.36929862495606 L 10 134.36929862495606 L 10 135.86929862495606 L 0 135.86929862495606 Z " stroke="none" fill-rule="evenodd" fill="#000000" fill-opacity="1" transform="matrix(1,0,0,1,5.05,13.314)" id="mark27 l" />
  <path d="M 0 123.97550642303634 L 10 123.97550642303634 L 10 125.47550642303634 L 0 125.47550642303634 Z " stroke="none" fill-rule="evenodd" fill="#000000" fill-opacity="1" transform="matrix(1,0,0,1,5.05,13.314)" id="mark28 l" />
  <path d="M 0 113.58171422111667 L 10 113.58171422111667 L 10 115.08171422111667 L 0 115.08171422111667 Z " stroke="none" fill-rule="evenodd" fill="#000000" fill-opacity="1" transform="matrix(1,0,0,1,5.05,13.314)" id="mark29 l" />
  <path d="M 0 103.18792201919695 L 25 103.18792201919695 L 25 104.68792201919695 L 0 104.68792201919695 Z " stroke="none" fill-rule="evenodd" fill="#000000" fill-opacity="1" transform="matrix(1,0,0,1,5.05,13.314)" id="mark30 l" />
  <path d="M 12.223999999999998 100.72192201919695 C 12.221333333333334 100.62058868586362, 12.219333333333333 100.53658868586362, 12.218 100.46992201919694 C 12.216666666666667 100.40325535253028, 12.216666666666667 100.33525535253028, 12.218 100.26592201919695 C 12.219333333333333 100.19658868586362, 12.221333333333334 100.10725535253027, 12.223999999999998 99.99792201919695 L 13.303999999999998 99.99792201919695 L 13.303999999999998 100.86192201919695 C 13.303999999999998 101.09925535253028, 13.417333333333332 101.24992201919694, 13.643999999999998 101.31392201919695 L 13.643999999999998 102.20592201919695 C 13.155999999999999 102.16858868586363, 12.800666666666665 102.03392201919695, 12.578 101.80192201919695 C 12.355333333333334 101.56992201919695, 12.237333333333332 101.20992201919695, 12.223999999999998 100.72192201919695 Z M 12.292 96.66992201919695 L 12.292 95.73792201919694 L 15.536 95.73792201919694 L 15.536 96.66992201919695 Z M 14.143999999999998 101.31792201919696 C 14.367999999999999 101.26192201919696, 14.483999999999998 101.11125535253029, 14.491999999999999 100.86592201919694 C 14.497333333333334 100.66325535253029, 14.500666666666666 100.48058868586361, 14.501999999999999 100.31792201919696 C 14.503333333333332 100.15525535253028, 14.498666666666665 99.99792201919695, 14.488 99.84592201919695 C 14.48 99.6885886858636, 14.431999999999999 99.55525535253028, 14.344 99.44592201919696 C 14.256 99.33658868586363, 14.089333333333332 99.28458868586362, 13.844 99.28992201919695 L 13.096 99.29792201919695 L 13.068 98.40592201919695 L 14.027999999999999 97.02192201919695 L 15.216 97.02192201919695 L 14.248 98.37392201919695 L 14.28 98.37392201919695 C 14.712 98.37392201919695, 15.028666666666666 98.49658868586363, 15.229999999999999 98.74192201919695 C 15.431333333333333 98.98725535253027, 15.544 99.36458868586362, 15.568 99.87392201919695 C 15.57333333333333 99.94592201919696, 15.576666666666664 100.01792201919694, 15.578 100.08992201919695 C 15.57933333333333 100.16192201919695, 15.579999999999998 100.23258868586362, 15.579999999999998 100.30192201919695 C 15.579999999999998 100.37125535253028, 15.57933333333333 100.44058868586362, 15.578 100.50992201919695 C 15.576666666666664 100.57925535253028, 15.57333333333333 100.64992201919695, 15.568 100.72192201919695 C 15.549333333333333 101.21792201919695, 15.428666666666665 101.58258868586361, 15.206 101.81592201919695 C 14.983333333333334 102.04925535253028, 14.630666666666666 102.17925535253028, 14.148 102.20592201919695 Z M 16.196 100.72592201919694 C 16.188000000000002 100.29658868586361, 16.182666666666666 99.87992201919695, 16.18 99.47592201919694 C 16.177333333333333 99.07192201919695, 16.177999999999997 98.6765886858636, 16.182 98.28992201919695 C 16.186 97.9032553525303, 16.190666666666665 97.52192201919695, 16.196 97.14592201919695 C 16.209333333333333 96.70592201919695, 16.334000000000003 96.36058868586362, 16.57 96.10992201919694 C 16.805999999999997 95.85925535253028, 17.142666666666663 95.71392201919696, 17.58 95.67392201919695 L 17.58 96.56192201919696 C 17.382666666666665 96.61792201919695, 17.281333333333333 96.74725535253027, 17.276 96.94992201919695 C 17.262666666666668 97.32058868586361, 17.253333333333334 97.66858868586361, 17.248 97.99392201919694 C 17.242666666666665 98.31925535253028, 17.24 98.63592201919695, 17.24 98.94392201919695 C 17.24 99.25192201919694, 17.242666666666665 99.56658868586362, 17.248 99.88792201919695 C 17.253333333333334 100.20925535253028, 17.262666666666668 100.55258868586361, 17.276 100.91792201919695 C 17.281333333333333 101.12592201919696, 17.382666666666665 101.25792201919695, 17.58 101.31392201919695 L 17.58 102.20192201919694 C 17.142666666666663 102.16192201919696, 16.805999999999997 102.01592201919695, 16.57 101.76392201919695 C 16.334000000000003 101.51192201919696, 16.209333333333333 101.16592201919696, 16.196 100.72592201919694 Z M 18.084 102.20192201919694 L 18.084 101.30992201919695 C 18.268 101.25658868586362, 18.366666666666667 101.13258868586362, 18.38 100.93792201919695 C 18.398666666666667 100.47125535253028, 18.410666666666668 100.02258868586361, 18.416 99.59192201919694 C 18.421333333333333 99.16125535253028, 18.421333333333333 98.73058868586362, 18.416 98.29992201919696 C 18.410666666666668 97.86925535253029, 18.398666666666667 97.41658868586362, 18.38 96.94192201919695 C 18.374666666666666 96.74725535253029, 18.276 96.62058868586362, 18.084 96.56192201919696 L 18.084 95.67392201919695 C 18.513333333333335 95.71392201919696, 18.846666666666668 95.85925535253028, 19.084 96.10992201919694 C 19.321333333333335 96.36058868586362, 19.445333333333334 96.70592201919695, 19.456 97.14592201919695 C 19.46666666666667 97.46058868586363, 19.474666666666668 97.77058868586363, 19.48 98.07592201919695 C 19.485333333333333 98.38125535253027, 19.488 98.68192201919695, 19.488 98.97792201919695 C 19.488 99.27392201919696, 19.485333333333333 99.56725535253028, 19.48 99.85792201919695 C 19.474666666666668 100.14858868586361, 19.46666666666667 100.43792201919695, 19.456 100.72592201919694 C 19.439999999999998 101.1765886858636, 19.311999999999998 101.52525535253028, 19.072 101.77192201919695 C 18.832 102.01858868586362, 18.502666666666666 102.16192201919696, 18.084 102.20192201919694 Z M 21.944 102.13792201919695 L 21.944 95.73792201919694 L 23.003999999999998 95.73792201919694 L 23.003999999999998 102.13792201919695 Z " stroke="none" fill-rule="nonzero" fill="#000000" fill-opacity="1" transform="matrix(1,0,0,1,5.05,13.314)" id="text30 l" />
  <path d="M 0 92.79412981727728 L 10 92.79412981727728 L 10 94.29412981727728 L 0 94.29412981727728 Z " stroke="none" fill-rule="evenodd" fill="#000000" fill-opacity="1" transform="matrix(1,0,0,1,5.05,13.314)" id="mark31 l" />
  <path d="M 0 82.40033761535756 L 10 82.40033761535756 L 10 83.90033761535756 L 0 83.90033761535756 Z " stroke="none" fill-rule="evenodd" fill="#000000" fill-opacity="1" transform="matrix(1,0,0,1,5.05,13.314)" id="mark32 l" />
  <path d="M 0 72.00654541343789 L 10 72.00654541343789 L 10 73.50654541343789 L 0 73.50654541343789 Z " stroke="none" fill-rule="evenodd" fill="#000000" fill-opacity="1" transform="matrix(1,0,0,1,5.05,13.314)" id="mark33 l" />
  <path d="M 0 61.61275321151817 L 10 61.61275321151817 L 10 63.11275321151817 L 0 63.11275321151817 Z " stroke="none" fill-rule="evenodd" fill="#000000" fill-opacity="1" transform="matrix(1,0,0,1,5.05,13.314)" id="mark34 l" />
  <path d="M 0 51.2189610095985 L 25 51.2189610095985 L 25 52.7189610095985 L 0 52.7189610095985 Z " stroke="none" fill-rule="evenodd" fill="#000000" fill-opacity="1" transform="matrix(1,0,0,1,5.05,13.314)" id="mark35 l" />
  <path d="M 12.232 48.720961009598504 C 12.229333333333333 48.61962767626517, 12.227333333333334 48.535627676265165, 12.226 48.4689610095985 C 12.224666666666668 48.40229434293184, 12.224666666666668 48.33429434293184, 12.226 48.2649610095985 C 12.227333333333334 48.195627676265175, 12.229333333333333 48.10629434293184, 12.232 47.9969610095985 L 13.312 47.9969610095985 L 13.312 48.8609610095985 C 13.312 49.09829434293183, 13.425333333333333 49.2489610095985, 13.652 49.3129610095985 L 13.652 50.2049610095985 C 13.164 50.16762767626517, 12.808666666666667 50.03296100959851, 12.586 49.8009610095985 C 12.363333333333333 49.56896100959851, 12.245333333333335 49.20896100959851, 12.232 48.720961009598504 Z M 12.3 44.668961009598505 L 12.3 43.7369610095985 L 15.544 43.7369610095985 L 15.544 44.668961009598505 Z M 14.152000000000001 49.3169610095985 C 14.376000000000001 49.260961009598496, 14.492 49.11029434293183, 14.5 48.8649610095985 C 14.505333333333333 48.66229434293184, 14.508666666666667 48.47962767626517, 14.51 48.3169610095985 C 14.511333333333333 48.154294342931834, 14.506666666666668 47.9969610095985, 14.496 47.8449610095985 C 14.488 47.687627676265166, 14.440000000000001 47.55429434293183, 14.352 47.4449610095985 C 14.264 47.33562767626517, 14.097333333333335 47.28362767626517, 13.852 47.2889610095985 L 13.104 47.296961009598505 L 13.076 46.4049610095985 L 14.036 45.0209610095985 L 15.224 45.0209610095985 L 14.256 46.3729610095985 L 14.288 46.3729610095985 C 14.719999999999999 46.3729610095985, 15.036666666666665 46.495627676265165, 15.238 46.7409610095985 C 15.439333333333334 46.986294342931835, 15.552 47.36362767626517, 15.576 47.8729610095985 C 15.581333333333333 47.9449610095985, 15.584666666666667 48.0169610095985, 15.586 48.0889610095985 C 15.587333333333333 48.16096100959851, 15.588000000000001 48.23162767626518, 15.588000000000001 48.3009610095985 C 15.588000000000001 48.37029434293184, 15.587333333333333 48.439627676265175, 15.586 48.5089610095985 C 15.584666666666667 48.57829434293184, 15.581333333333333 48.64896100959851, 15.576 48.720961009598504 C 15.557333333333334 49.216961009598506, 15.436666666666667 49.58162767626517, 15.214 49.8149610095985 C 14.991333333333333 50.04829434293184, 14.638666666666666 50.178294342931835, 14.156 50.2049610095985 Z M 16.18 48.720961009598504 C 16.174666666666667 48.547627676265165, 16.173333333333332 48.40829434293183, 16.176 48.3029610095985 C 16.178666666666665 48.19762767626517, 16.181333333333335 48.095627676265174, 16.183999999999997 47.9969610095985 L 17.264 47.9969610095985 C 17.256 48.074294342931836, 17.25 48.17029434293184, 17.246 48.284961009598504 C 17.241999999999997 48.39962767626517, 17.240666666666666 48.510294342931836, 17.241999999999997 48.6169610095985 C 17.243333333333332 48.72362767626517, 17.246666666666666 48.803627676265165, 17.252 48.8569610095985 C 17.262666666666668 48.9769610095985, 17.297333333333334 49.074961009598496, 17.355999999999998 49.150961009598504 C 17.414666666666665 49.2269610095985, 17.497333333333334 49.2809610095985, 17.604 49.3129610095985 L 17.604 50.2049610095985 C 17.110666666666663 50.16762767626517, 16.75333333333333 50.03296100959851, 16.532 49.8009610095985 C 16.310666666666666 49.56896100959851, 16.19333333333333 49.20896100959851, 16.18 48.720961009598504 Z M 16.279999999999998 47.3849610095985 L 16.279999999999998 43.7369610095985 L 17.348 43.7369610095985 L 17.348 47.3849610095985 Z M 17.852 46.9609610095985 L 17.852 46.2049610095985 C 17.929333333333332 46.1649610095985, 18.014666666666667 46.1329610095985, 18.107999999999997 46.1089610095985 C 18.20133333333333 46.0849610095985, 18.301333333333332 46.0729610095985, 18.407999999999998 46.0729610095985 C 18.773333333333333 46.0729610095985, 19.047333333333334 46.18829434293183, 19.23 46.418961009598505 C 19.412666666666667 46.64962767626517, 19.514666666666663 46.96362767626516, 19.535999999999998 47.3609610095985 C 19.546666666666667 47.520961009598494, 19.55333333333333 47.67962767626517, 19.555999999999997 47.836961009598504 C 19.558666666666664 47.99429434293184, 19.557333333333332 48.147627676265174, 19.552 48.2969610095985 C 19.546666666666667 48.446294342931836, 19.538666666666668 48.586294342931836, 19.528 48.7169610095985 C 19.482666666666667 49.21562767626517, 19.353333333333335 49.5809610095985, 19.14 49.8129610095985 C 18.926666666666666 50.044961009598495, 18.581333333333333 50.175627676265165, 18.104 50.2049610095985 L 18.104 49.3129610095985 C 18.21333333333333 49.28362767626517, 18.296 49.2309610095985, 18.352 49.1549610095985 C 18.408 49.0789610095985, 18.44 48.97962767626517, 18.448 48.8569610095985 C 18.471999999999998 48.56629434293184, 18.485999999999997 48.3049610095985, 18.49 48.0729610095985 C 18.494 47.8409610095985, 18.485333333333333 47.61962767626517, 18.464 47.4089610095985 C 18.447999999999997 47.254294342931836, 18.396666666666665 47.1389610095985, 18.31 47.0629610095985 C 18.223333333333333 46.9869610095985, 18.090666666666664 46.9489610095985, 17.912 46.9489610095985 C 17.901333333333334 46.9489610095985, 17.890666666666668 46.950294342931834, 17.88 46.9529610095985 C 17.86933333333333 46.955627676265166, 17.86 46.958294342931836, 17.852 46.9609610095985 Z M 17.852 44.668961009598505 L 17.852 43.7369610095985 L 19.439999999999998 43.7369610095985 L 19.439999999999998 44.668961009598505 Z M 21.944 50.1369610095985 L 21.944 43.7369610095985 L 23.003999999999998 43.7369610095985 L 23.003999999999998 50.1369610095985 Z " stroke="none" fill-rule="nonzero" fill="#000000" fill-opacity="1" transform="matrix(1,0,0,1,5.05,13.314)" id="text35 l" />
  <path d="M 0 40.82516880767878 L 10 40.82516880767878 L 10 42.32516880767878 L 0 42.32516880767878 Z " stroke="none" fill-rule="evenodd" fill="#000000" fill-opacity="1" transform="matrix(1,0,0,1,5.05,13.314)" id="mark36 l" />
  <path d="M 0 30.431376605759112 L 10 30.431376605759112 L 10 31.931376605759112 L 0 31.931376605759112 Z " stroke="none" fill-rule="evenodd" fill="#000000" fill-opacity="1" transform="matrix(1,0,0,1,5.05,13.314)" id="mark37 l" />
  <path d="M 0 20.03758440383939 L 10 20.03758440383939 L 10 21.53758440383939 L 0 21.53758440383939 Z " stroke="none" fill-rule="evenodd" fill="#000000" fill-opacity="1" transform="matrix(1,0,0,1,5.05,13.314)" id="mark38 l" />
  <path d="M 0 9.643792201919723 L 10 9.643792201919723 L 10 11.143792201919723 L 0 11.143792201919723 Z " stroke="none" fill-rule="evenodd" fill="#000000" fill-opacity="1" transform="matrix(1,0,0,1,5.05,13.314)" id="mark39 l" />
  <path d="M 0 -0.75 L 25 -0.75 L 25 0.75 L 0 0.75 Z " stroke="none" fill-rule="evenodd" fill="#000000" fill-opacity="1" transform="matrix(1,0,0,1,5.05,13.314)" id="mark40 l" />
  <path d="M 11.739999999999998 -3.484 L 11.739999999999998 -4.359999999999999 L 12.455999999999998 -6.24 L 13.495999999999999 -6.24 L 12.771999999999998 -4.4079999999999995 L 13.171999999999997 -4.4079999999999995 L 13.171999999999997 -3.484 Z M 13.675999999999998 -1.7999999999999998 L 13.675999999999998 -8.2 L 14.683999999999997 -8.2 L 14.683999999999997 -1.7999999999999998 Z M 15.187999999999999 -3.484 L 15.187999999999999 -4.4079999999999995 L 15.655999999999999 -4.4079999999999995 L 15.655999999999999 -3.484 Z M 16.195999999999998 -3.2119999999999997 C 16.188 -3.641333333333333, 16.182666666666666 -4.058, 16.18 -4.462 C 16.177333333333333 -4.866, 16.177999999999997 -5.261333333333333, 16.182 -5.648 C 16.186 -6.034666666666666, 16.190666666666665 -6.416, 16.195999999999998 -6.792 C 16.20933333333333 -7.231999999999999, 16.333999999999996 -7.577333333333334, 16.569999999999997 -7.828 C 16.805999999999997 -8.078666666666667, 17.142666666666663 -8.224, 17.58 -8.264 L 17.58 -7.3759999999999994 C 17.382666666666665 -7.32, 17.281333333333333 -7.190666666666667, 17.275999999999996 -6.9879999999999995 C 17.262666666666664 -6.617333333333333, 17.25333333333333 -6.269333333333333, 17.247999999999998 -5.944 C 17.242666666666665 -5.618666666666666, 17.24 -5.302, 17.24 -4.994 C 17.24 -4.686, 17.242666666666665 -4.371333333333333, 17.247999999999998 -4.05 C 17.25333333333333 -3.7286666666666664, 17.262666666666664 -3.3853333333333326, 17.275999999999996 -3.0199999999999996 C 17.281333333333333 -2.812, 17.382666666666665 -2.6799999999999997, 17.58 -2.6239999999999997 L 17.58 -1.7359999999999998 C 17.142666666666663 -1.7759999999999998, 16.805999999999997 -1.9219999999999997, 16.569999999999997 -2.174 C 16.333999999999996 -2.4259999999999997, 16.20933333333333 -2.772, 16.195999999999998 -3.2119999999999997 Z M 18.084 -1.7359999999999998 L 18.084 -2.6279999999999997 C 18.268 -2.681333333333333, 18.366666666666667 -2.8053333333333335, 18.38 -3 C 18.398666666666664 -3.4666666666666663, 18.410666666666664 -3.915333333333333, 18.415999999999997 -4.346 C 18.42133333333333 -4.776666666666666, 18.42133333333333 -5.207333333333333, 18.415999999999997 -5.638 C 18.410666666666664 -6.068666666666666, 18.398666666666664 -6.521333333333333, 18.38 -6.9959999999999996 C 18.374666666666666 -7.190666666666667, 18.276 -7.317333333333334, 18.084 -7.3759999999999994 L 18.084 -8.264 C 18.513333333333332 -8.224, 18.846666666666664 -8.078666666666667, 19.083999999999996 -7.828 C 19.32133333333333 -7.577333333333334, 19.44533333333333 -7.231999999999999, 19.456 -6.792 C 19.466666666666665 -6.477333333333332, 19.474666666666664 -6.167333333333333, 19.479999999999997 -5.861999999999999 C 19.48533333333333 -5.556666666666667, 19.488 -5.256, 19.488 -4.96 C 19.488 -4.664, 19.48533333333333 -4.370666666666667, 19.479999999999997 -4.08 C 19.474666666666664 -3.7893333333333334, 19.466666666666665 -3.5, 19.456 -3.2119999999999997 C 19.439999999999998 -2.761333333333333, 19.311999999999998 -2.4126666666666665, 19.072 -2.166 C 18.831999999999997 -1.9193333333333331, 18.502666666666663 -1.7759999999999998, 18.084 -1.7359999999999998 Z M 21.944 -1.7999999999999998 L 21.944 -8.2 L 23.003999999999998 -8.2 L 23.003999999999998 -1.7999999999999998 Z " stroke="none" fill-rule="nonzero" fill="#000000" fill-opacity="1" transform="matrix(1,0,0,1,5.05,13.314)" id="text40 l" />
  <path d="M -5 -13.264 L 30 -13.264 L 30 412.1258958748681 L -5 412.1258958748681 Z " stroke="#FF0000" stroke-opacity="1" stroke-width="0.1" stroke-linecap="butt" stroke-linejoin="miter" fill="none" transform="matrix(1,0,0,1,5.05,13.314)" />
</svg>