<?xml version="1.0" encoding="utf-8"?>
<svg xmlns="http://www.w3.org/2000/svg" xmlns:xlink="http://www.w3.org/1999/xlink" version="1.1" width="40mm" height="65.22206mm" viewBox="0 0 40 65.22206">
  <defs />
  <style>svg { background: #ffffff; }</style>
  <rect id="cutLine" fill="none" stroke="red" stroke-width="0.05" width="40" height="65.22206" />
  <g id="scale" transform="translate(5, 5)">
    <rect id="mark_20" fill="Black" x="0" y="53.922066" width="8" height="1.3" />
    <rect id="mark_40" fill="Black" x="0" y="48.725166" width="8" height="1.3" />
    <rect id="mark_60" fill="Black" x="0" y="43.52827" width="8" height="1.3" />
    <rect id="mark_80" fill="Black" x="0" y="38.331375" width="8" height="1.3" />
    <rect id="mark_100" fill="Black" x="0" y="33.13448" width="30" height="1.3" />
    <path fill="Black" d="M 0.484375 1.0214844 L 0.484375 6.4648438 L 1.5839844 6.4648438 L 1.5839844 0.064453125 L 0.7050781 0.064453125 L 0 0.640625 L 0.033203125 1.0214844 L 0.484375 1.0214844 Z M 2.140625 3.8027344 Q 2.1445312 4.408203, 2.15625 5.0527344 Q 2.1777344 5.7128906, 2.53125 6.091797 Q 2.8847656 6.46875, 3.5410156 6.529297 L 3.5410156 5.640625 Q 3.2441406 5.5566406, 3.2363281 5.2441406 Q 3.2167969 4.6972656, 3.2089844 4.2148438 Q 3.2011719 3.7324219, 3.2011719 3.2714844 Q 3.2011719 2.8085938, 3.2089844 2.3203125 Q 3.2167969 1.8320312, 3.2363281 1.2773438 Q 3.2441406 0.97265625, 3.5410156 0.8886719 L 3.5410156 0 Q 2.8847656 0.060546875, 2.53125 0.4375 Q 2.1777344 0.8125, 2.15625 1.4726562 Q 2.1484375 2.0371094, 2.1425781 2.6171875 Q 2.1367188 3.1972656, 2.140625 3.8027344 Z M 4.044922 5.6367188 L 4.044922 6.529297 Q 4.671875 6.46875, 5.03125 6.0996094 Q 5.392578 5.7285156, 5.4160156 5.0527344 Q 5.4335938 4.6210938, 5.4414062 4.185547 Q 5.4492188 3.7480469, 5.4492188 3.3046875 Q 5.4492188 2.8613281, 5.4414062 2.4042969 Q 5.4335938 1.9453125, 5.4160156 1.4726562 Q 5.4003906 0.8125, 5.044922 0.4375 Q 4.689453 0.060546875, 4.044922 0 L 4.044922 0.8886719 Q 4.3320312 0.9765625, 4.3398438 1.2695312 Q 4.3691406 1.9804688, 4.376953 2.6269531 Q 4.3847656 3.2734375, 4.376953 3.9199219 Q 4.3691406 4.564453, 4.3398438 5.265625 Q 4.3203125 5.5566406, 4.044922 5.6367188 Z M 6.140625 3.8027344 Q 6.1445312 4.408203, 6.15625 5.0527344 Q 6.1777344 5.7128906, 6.53125 6.091797 Q 6.8847656 6.46875, 7.5410156 6.529297 L 7.5410156 5.640625 Q 7.2441406 5.5566406, 7.236328 5.2441406 Q 7.216797 4.6972656, 7.2089844 4.2148438 Q 7.201172 3.7324219, 7.201172 3.2714844 Q 7.201172 2.8085938, 7.2089844 2.3203125 Q 7.216797 1.8320312, 7.236328 1.2773438 Q 7.2441406 0.97265625, 7.5410156 0.8886719 L 7.5410156 0 Q 6.8847656 0.060546875, 6.53125 0.4375 Q 6.1777344 0.8125, 6.15625 1.4726562 Q 6.1484375 2.0371094, 6.142578 2.6171875 Q 6.1367188 3.1972656, 6.140625 3.8027344 Z M 8.044922 5.6367188 L 8.044922 6.529297 Q 8.671875 6.46875, 9.03125 6.0996094 Q 9.392578 5.7285156, 9.416016 5.0527344 Q 9.433594 4.6210938, 9.441406 4.185547 Q 9.449219 3.7480469, 9.449219 3.3046875 Q 9.449219 2.8613281, 9.441406 2.4042969 Q 9.433594 1.9453125, 9.416016 1.4726562 Q 9.400391 0.8125, 9.044922 0.4375 Q 8.689453 0.060546875, 8.044922 0 L 8.044922 0.8886719 Q 8.332031 0.9765625, 8.339844 1.2695312 Q 8.369141 1.9804688, 8.376953 2.6269531 Q 8.384766 3.2734375, 8.376953 3.9199219 Q 8.369141 4.564453, 8.339844 5.265625 Q 8.3203125 5.5566406, 8.044922 5.6367188 Z M 14.3203125 2.765625 L 14.3203125 6.4648438 L 15.392578 6.4648438 L 15.392578 2.8574219 Q 15.392578 2.1777344, 15.119141 1.8828125 Q 14.845703 1.5878906, 14.353516 1.5878906 Q 14.1484375 1.5878906, 14.0078125 1.6328125 Q 13.869141 1.6777344, 13.761719 1.765625 L 13.761719 2.3808594 Q 13.796875 2.3691406, 13.833984 2.3671875 Q 13.873047 2.3652344, 13.908203 2.3652344 Q 14.1171875 2.3652344, 14.21875 2.4628906 Q 14.3203125 2.5605469, 14.3203125 2.765625 Z M 16.416016 2.765625 L 16.416016 6.4648438 L 17.480469 6.4648438 L 17.480469 2.8574219 Q 17.480469 2.1777344, 17.210938 1.8828125 Q 16.941406 1.5878906, 16.449219 1.5878906 Q 16.277344 1.5878906, 16.140625 1.6308594 Q 16.003906 1.671875, 15.892578 1.7441406 L 15.892578 2.3769531 Q 15.933594 2.3652344, 15.9921875 2.3652344 Q 16.189453 2.3652344, 16.302734 2.4589844 Q 16.416016 2.5527344, 16.416016 2.765625 Z M 12.193359 1.6640625 L 12.193359 6.4648438 L 13.261719 6.4648438 L 13.261719 1.6640625 L 12.193359 1.6640625 Z M 18.19336 6.4648438 L 18.19336 0.064453125 L 19.251953 0.064453125 L 19.251953 6.4648438 L 18.19336 6.4648438 Z" transform="translate(8.748047, 25.984482)" />
    <rect id="mark_120" fill="Black" x="0" y="27.937584" width="8" height="1.3" />
    <rect id="mark_140" fill="Black" x="0" y="22.740688" width="8" height="1.3" />
    <rect id="mark_160" fill="Black" x="0" y="17.543793" width="8" height="1.3" />
    <rect id="mark_180" fill="Black" x="0" y="12.346896" width="8" height="1.3" />
    <rect id="mark_200" fill="Black" x="0" y="7.15" width="30" height="1.3" />
    <path fill="Black" d="M 0.005859375 6.203125 Q 0.0078125 6.3203125, 0.01171875 6.46875 L 1.0917969 6.46875 L 1.0917969 5.1757812 Q 1.0917969 5.0214844, 1.1328125 4.841797 Q 1.1757812 4.6601562, 1.2734375 4.5 Q 1.3710938 4.3398438, 1.5429688 4.248047 L 2.1464844 3.9199219 Q 2.4707031 3.7402344, 2.7167969 3.5136719 Q 2.9628906 3.2851562, 3.1074219 2.9726562 Q 3.2519531 2.6601562, 3.2675781 2.2324219 Q 3.2714844 2.1445312, 3.2734375 2.0527344 Q 3.2753906 1.9609375, 3.2753906 1.8671875 Q 3.2753906 1.7734375, 3.2734375 1.6738281 Q 3.2714844 1.5722656, 3.2675781 1.4765625 Q 3.234375 0.7402344, 2.9160156 0.39453125 Q 2.5996094 0.048828125, 1.8671875 0 L 1.8671875 0.8886719 Q 2.0234375 0.93359375, 2.1054688 1.0351562 Q 2.1875 1.1367188, 2.1953125 1.2929688 Q 2.2070312 1.5136719, 2.2050781 1.7636719 Q 2.203125 2.0136719, 2.1875 2.2324219 Q 2.1757812 2.4199219, 2.0976562 2.6347656 Q 2.0195312 2.8496094, 1.7382812 3 L 1.2070312 3.2890625 Q 0.8183594 3.5, 0.5546875 3.7734375 Q 0.29101562 4.044922, 0.15234375 4.390625 Q 0.015625 4.736328, 0.00390625 5.1757812 Q 0 5.3691406, 0 5.5117188 L 0 5.765625 Q 0 5.876953, 0.001953125 5.9804688 Q 0.00390625 6.0839844, 0.005859375 6.203125 Z M 0.0078125 2.0839844 Q 0.01171875 2.2519531, 0.01953125 2.4296875 L 1.0839844 2.4296875 Q 1.0664062 2.1132812, 1.0683594 1.8457031 Q 1.0703125 1.5761719, 1.0800781 1.265625 Q 1.0839844 1.1289062, 1.1503906 1.0332031 Q 1.21875 0.9375, 1.3632812 0.8925781 L 1.3632812 0 Q 0.67578125 0.052734375, 0.35351562 0.3984375 Q 0.03125 0.7441406, 0.00390625 1.4765625 Q 0 1.6171875, 0.001953125 1.7675781 Q 0.00390625 1.9160156, 0.0078125 2.0839844 Z M 1.5957031 5.5371094 L 1.5957031 6.46875 L 3.1914062 6.46875 L 3.1914062 5.5371094 L 1.5957031 5.5371094 Z M 4.0390625 3.8066406 Q 4.0429688 4.4121094, 4.0546875 5.0566406 Q 4.076172 5.716797, 4.4296875 6.095703 Q 4.783203 6.4726562, 5.439453 6.533203 L 5.439453 5.6445312 Q 5.142578 5.560547, 5.1347656 5.248047 Q 5.1152344 4.701172, 5.107422 4.21875 Q 5.0996094 3.7363281, 5.0996094 3.2753906 Q 5.0996094 2.8125, 5.107422 2.3242188 Q 5.1152344 1.8359375, 5.1347656 1.28125 Q 5.142578 0.9765625, 5.439453 0.8925781 L 5.439453 0.00390625 Q 4.783203 0.064453125, 4.4296875 0.44140625 Q 4.076172 0.81640625, 4.0546875 1.4765625 Q 4.046875 2.0410156, 4.0410156 2.6210938 Q 4.0351562 3.2011719, 4.0390625 3.8066406 Z M 5.9433594 5.640625 L 5.9433594 6.533203 Q 6.5703125 6.4726562, 6.9296875 6.1035156 Q 7.2910156 5.732422, 7.314453 5.0566406 Q 7.3320312 4.625, 7.3398438 4.189453 Q 7.3476562 3.7519531, 7.3476562 3.3085938 Q 7.3476562 2.8652344, 7.3398438 2.4082031 Q 7.3320312 1.9492188, 7.314453 1.4765625 Q 7.298828 0.81640625, 6.9433594 0.44140625 Q 6.5878906 0.064453125, 5.9433594 0.00390625 L 5.9433594 0.8925781 Q 6.2304688 0.98046875, 6.2382812 1.2734375 Q 6.267578 1.984375, 6.2753906 2.6308594 Q 6.283203 3.2773438, 6.2753906 3.9238281 Q 6.267578 4.5683594, 6.2382812 5.2695312 Q 6.21875 5.560547, 5.9433594 5.640625 Z M 8.0390625 3.8066406 Q 8.042969 4.4121094, 8.0546875 5.0566406 Q 8.076172 5.716797, 8.4296875 6.095703 Q 8.783203 6.4726562, 9.439453 6.533203 L 9.439453 5.6445312 Q 9.142578 5.560547, 9.134766 5.248047 Q 9.115234 4.701172, 9.107422 4.21875 Q 9.099609 3.7363281, 9.099609 3.2753906 Q 9.099609 2.8125, 9.107422 2.3242188 Q 9.115234 1.8359375, 9.134766 1.28125 Q 9.142578 0.9765625, 9.439453 0.8925781 L 9.439453 0.00390625 Q 8.783203 0.064453125, 8.4296875 0.44140625 Q 8.076172 0.81640625, 8.0546875 1.4765625 Q 8.046875 2.0410156, 8.041016 2.6210938 Q 8.035156 3.2011719, 8.0390625 3.8066406 Z M 9.943359 5.640625 L 9.943359 6.533203 Q 10.5703125 6.4726562, 10.9296875 6.1035156 Q 11.291016 5.732422, 11.314453 5.0566406 Q 11.332031 4.625, 11.339844 4.189453 Q 11.347656 3.7519531, 11.347656 3.3085938 Q 11.347656 2.8652344, 11.339844 2.4082031 Q 11.332031 1.9492188, 11.314453 1.4765625 Q 11.298828 0.81640625, 10.943359 0.44140625 Q 10.587891 0.064453125, 9.943359 0.00390625 L 9.943359 0.8925781 Q 10.230469 0.98046875, 10.238281 1.2734375 Q 10.267578 1.984375, 10.275391 2.6308594 Q 10.283203 3.2773438, 10.275391 3.9238281 Q 10.267578 4.5683594, 10.238281 5.2695312 Q 10.21875 5.560547, 9.943359 5.640625 Z M 16.21875 2.7695312 L 16.21875 6.46875 L 17.291016 6.46875 L 17.291016 2.8613281 Q 17.291016 2.1816406, 17.017578 1.8867188 Q 16.74414 1.5917969, 16.251953 1.5917969 Q 16.046875 1.5917969, 15.90625 1.6367188 Q 15.767578 1.6816406, 15.660156 1.7695312 L 15.660156 2.3847656 Q 15.6953125 2.3730469, 15.732422 2.3710938 Q 15.771484 2.3691406, 15.806641 2.3691406 Q 16.015625 2.3691406, 16.117188 2.4667969 Q 16.21875 2.5644531, 16.21875 2.7695312 Z M 18.314453 2.7695312 L 18.314453 6.46875 L 19.378906 6.46875 L 19.378906 2.8613281 Q 19.378906 2.1816406, 19.109375 1.8867188 Q 18.839844 1.5917969, 18.347656 1.5917969 Q 18.175781 1.5917969, 18.039062 1.6347656 Q 17.902344 1.6757812, 17.791016 1.7480469 L 17.791016 2.3808594 Q 17.832031 2.3691406, 17.890625 2.3691406 Q 18.08789 2.3691406, 18.201172 2.4628906 Q 18.314453 2.5566406, 18.314453 2.7695312 Z M 14.091797 1.6679688 L 14.091797 6.46875 L 15.160156 6.46875 L 15.160156 1.6679688 L 14.091797 1.6679688 Z M 20.091797 6.46875 L 20.091797 0.068359375 L 21.15039 0.068359375 L 21.15039 6.46875 L 20.091797 6.46875 Z" transform="translate(6.8496094, 0)" />
  </g>
</svg>