<?xml version="1.0" encoding="UTF-8"?>
<svg xmlns:xlink="http://www.w3.org/1999/xlink" viewBox="0 0 35.1 475.8568918336229" version="1.1" style="font-synthesis: none;" width="35.1mm" height="475.8568918336229mm" xmlns="http://www.w3.org/2000/svg">
  <defs />
  <style>	</style>
  <path d="M 0 0 L 35.1 0 L 35.1 475.8568918336229 L 0 475.8568918336229 Z " stroke="none" fill-rule="nonzero" fill="#FFFFFF" fill-opacity="1" transform="matrix(1,0,0,1,0,0)" />
  <path d="M 0 454.9748918336229 L 10 454.9748918336229 L 10 456.4748918336229 L 0 456.4748918336229 Z " stroke="none" fill-rule="evenodd" fill="#000000" fill-opacity="1" transform="matrix(1,0,0,1,5.05,13.314)" id="mark1 l" />
  <path d="M 0 445.67438383701835 L 10 445.67438383701835 L 10 447.17438383701835 L 0 447.17438383701835 Z " stroke="none" fill-rule="evenodd" fill="#000000" fill-opacity="1" transform="matrix(1,0,0,1,5.05,13.314)" id="mark2 l" />
  <path d="M 0 436.3738758404138 L 10 436.3738758404138 L 10 437.8738758404138 L 0 437.8738758404138 Z " stroke="none" fill-rule="evenodd" fill="#000000" fill-opacity="1" transform="matrix(1,0,0,1,5.05,13.314)" id="mark3 l" />
  <path d="M 0 427.07336784380925 L 10 427.07336784380925 L 10 428.57336784380925 L 0 428.57336784380925 Z " stroke="none" fill-rule="evenodd" fill="#000000" fill-opacity="1" transform="matrix(1,0,0,1,5.05,13.314)" id="mark4 l" />
  <path d="M 0 417.7728598472047 L 25 417.7728598472047 L 25 419.2728598472047 L 0 419.2728598472047 Z " stroke="none" fill-rule="evenodd" fill="#000000" fill-opacity="1" transform="matrix(1,0,0,1,5.05,13.314)" id="mark5 l" />
  <path d="M 16.18 415.2748598472047 C 16.174666666666667 415.10152651387136, 16.173333333333332 414.96219318053807, 16.176 414.8568598472047 C 16.178666666666665 414.75152651387134, 16.181333333333335 414.64952651387136, 16.183999999999997 414.5508598472047 L 17.264 414.5508598472047 C 17.256 414.628193180538, 17.25 414.724193180538, 17.246 414.83885984720473 C 17.241999999999997 414.95352651387134, 17.240666666666666 415.06419318053804, 17.241999999999997 415.1708598472047 C 17.243333333333332 415.27752651387135, 17.246666666666666 415.35752651387133, 17.252 415.41085984720473 C 17.262666666666668 415.53085984720474, 17.297333333333334 415.6288598472047, 17.355999999999998 415.7048598472047 C 17.414666666666665 415.7808598472047, 17.497333333333334 415.8348598472047, 17.604 415.8668598472047 L 17.604 416.7588598472047 C 17.110666666666663 416.72152651387137, 16.75333333333333 416.58685984720466, 16.532 416.3548598472047 C 16.310666666666666 416.1228598472047, 16.19333333333333 415.7628598472047, 16.18 415.2748598472047 Z M 16.279999999999998 413.9388598472047 L 16.279999999999998 410.29085984720473 L 17.348 410.29085984720473 L 17.348 413.9388598472047 Z M 17.852 413.5148598472047 L 17.852 412.7588598472047 C 17.929333333333332 412.7188598472047, 18.014666666666667 412.6868598472047, 18.107999999999997 412.6628598472047 C 18.20133333333333 412.6388598472047, 18.301333333333332 412.6268598472047, 18.407999999999998 412.6268598472047 C 18.773333333333333 412.6268598472047, 19.047333333333334 412.74219318053804, 19.23 412.9728598472047 C 19.412666666666667 413.20352651387134, 19.514666666666663 413.5175265138714, 19.535999999999998 413.9148598472047 C 19.546666666666667 414.0748598472047, 19.55333333333333 414.2335265138713, 19.555999999999997 414.3908598472047 C 19.558666666666664 414.54819318053796, 19.557333333333332 414.7015265138714, 19.552 414.85085984720473 C 19.546666666666667 415.0001931805381, 19.538666666666668 415.14019318053806, 19.528 415.2708598472047 C 19.482666666666667 415.76952651387137, 19.353333333333335 416.13485984720467, 19.14 416.3668598472047 C 18.926666666666666 416.5988598472047, 18.581333333333333 416.7295265138714, 18.104 416.7588598472047 L 18.104 415.8668598472047 C 18.21333333333333 415.83752651387135, 18.296 415.7848598472047, 18.352 415.7088598472047 C 18.408 415.6328598472047, 18.44 415.5335265138714, 18.448 415.41085984720473 C 18.471999999999998 415.1201931805381, 18.485999999999997 414.8588598472047, 18.49 414.6268598472047 C 18.494 414.39485984720466, 18.485333333333333 414.17352651387137, 18.464 413.9628598472047 C 18.447999999999997 413.80819318053807, 18.396666666666665 413.6928598472048, 18.31 413.6168598472047 C 18.223333333333333 413.54085984720473, 18.090666666666664 413.5028598472047, 17.912 413.5028598472047 C 17.901333333333334 413.5028598472047, 17.890666666666668 413.504193180538, 17.88 413.5068598472047 C 17.86933333333333 413.5095265138714, 17.86 413.512193180538, 17.852 413.5148598472047 Z M 17.852 411.2228598472047 L 17.852 410.29085984720473 L 19.439999999999998 410.29085984720473 L 19.439999999999998 411.2228598472047 Z M 21.944 416.6908598472047 L 21.944 410.29085984720473 L 23.003999999999998 410.29085984720473 L 23.003999999999998 416.6908598472047 Z " stroke="none" fill-rule="nonzero" fill="#000000" fill-opacity="1" transform="matrix(1,0,0,1,5.05,13.314)" id="text5 l" />
  <path d="M 0 408.47235185060015 L 10 408.47235185060015 L 10 409.97235185060015 L 0 409.97235185060015 Z " stroke="none" fill-rule="evenodd" fill="#000000" fill-opacity="1" transform="matrix(1,0,0,1,5.05,13.314)" id="mark6 l" />
  <path d="M 0 399.1718438539956 L 10 399.1718438539956 L 10 400.6718438539956 L 0 400.6718438539956 Z " stroke="none" fill-rule="evenodd" fill="#000000" fill-opacity="1" transform="matrix(1,0,0,1,5.05,13.314)" id="mark7 l" />
  <path d="M 0 389.87133585739105 L 10 389.87133585739105 L 10 391.37133585739105 L 0 391.37133585739105 Z " stroke="none" fill-rule="evenodd" fill="#000000" fill-opacity="1" transform="matrix(1,0,0,1,5.05,13.314)" id="mark8 l" />
  <path d="M 0 380.5708278607865 L 10 380.5708278607865 L 10 382.0708278607865 L 0 382.0708278607865 Z " stroke="none" fill-rule="evenodd" fill="#000000" fill-opacity="1" transform="matrix(1,0,0,1,5.05,13.314)" id="mark9 l" />
  <path d="M 0 371.27031986418194 L 25 371.27031986418194 L 25 372.77031986418194 L 0 372.77031986418194 Z " stroke="none" fill-rule="evenodd" fill="#000000" fill-opacity="1" transform="matrix(1,0,0,1,5.05,13.314)" id="mark10 l" />
  <path d="M 14.323999999999998 370.22031986418193 L 14.323999999999998 364.7763198641819 L 13.871999999999998 364.7763198641819 L 13.839999999999998 364.3963198641819 L 14.543999999999999 363.82031986418195 L 15.424 363.82031986418195 L 15.424 370.22031986418193 Z M 16.196 368.80831986418195 C 16.188000000000002 368.37898653084864, 16.182666666666666 367.96231986418195, 16.18 367.55831986418195 C 16.177333333333333 367.15431986418196, 16.177999999999997 366.75898653084863, 16.182 366.3723198641819 C 16.186 365.98565319751526, 16.190666666666665 365.60431986418195, 16.196 365.2283198641819 C 16.209333333333333 364.7883198641819, 16.334000000000003 364.4429865308486, 16.57 364.1923198641819 C 16.805999999999997 363.9416531975153, 17.142666666666663 363.7963198641819, 17.58 363.75631986418193 L 17.58 364.6443198641819 C 17.382666666666665 364.7003198641819, 17.281333333333333 364.82965319751526, 17.276 365.03231986418194 C 17.262666666666668 365.4029865308486, 17.253333333333334 365.7509865308486, 17.248 366.0763198641819 C 17.242666666666665 366.40165319751526, 17.24 366.7183198641819, 17.24 367.0263198641819 C 17.24 367.3343198641819, 17.242666666666665 367.64898653084856, 17.248 367.97031986418193 C 17.253333333333334 368.2916531975153, 17.262666666666668 368.6349865308486, 17.276 369.0003198641819 C 17.281333333333333 369.20831986418193, 17.382666666666665 369.3403198641819, 17.58 369.3963198641819 L 17.58 370.28431986418195 C 17.142666666666663 370.24431986418193, 16.805999999999997 370.0983198641819, 16.57 369.8463198641819 C 16.334000000000003 369.5943198641819, 16.209333333333333 369.24831986418195, 16.196 368.80831986418195 Z M 18.084 370.28431986418195 L 18.084 369.39231986418196 C 18.268 369.3389865308486, 18.366666666666667 369.2149865308486, 18.38 369.02031986418194 C 18.398666666666667 368.5536531975153, 18.410666666666668 368.10498653084863, 18.416 367.67431986418194 C 18.421333333333333 367.24365319751524, 18.421333333333333 366.8129865308486, 18.416 366.3823198641819 C 18.410666666666668 365.95165319751527, 18.398666666666667 365.4989865308486, 18.38 365.0243198641819 C 18.374666666666666 364.82965319751526, 18.276 364.7029865308486, 18.084 364.6443198641819 L 18.084 363.75631986418193 C 18.513333333333335 363.7963198641819, 18.846666666666668 363.9416531975153, 19.084 364.1923198641819 C 19.321333333333335 364.4429865308486, 19.445333333333334 364.7883198641819, 19.456 365.2283198641819 C 19.46666666666667 365.5429865308486, 19.474666666666668 365.8529865308486, 19.48 366.1583198641819 C 19.485333333333333 366.46365319751527, 19.488 366.7643198641819, 19.488 367.0603198641819 C 19.488 367.3563198641819, 19.485333333333333 367.64965319751525, 19.48 367.94031986418196 C 19.474666666666668 368.2309865308486, 19.46666666666667 368.52031986418194, 19.456 368.80831986418195 C 19.439999999999998 369.25898653084863, 19.311999999999998 369.6076531975153, 19.072 369.85431986418195 C 18.832 370.1009865308486, 18.502666666666666 370.24431986418193, 18.084 370.28431986418195 Z M 21.944 370.22031986418193 L 21.944 363.82031986418195 L 23.003999999999998 363.82031986418195 L 23.003999999999998 370.22031986418193 Z " stroke="none" fill-rule="nonzero" fill="#000000" fill-opacity="1" transform="matrix(1,0,0,1,5.05,13.314)" id="text10 l" />
  <path d="M 0 361.9698118675774 L 10 361.9698118675774 L 10 363.4698118675774 L 0 363.4698118675774 Z " stroke="none" fill-rule="evenodd" fill="#000000" fill-opacity="1" transform="matrix(1,0,0,1,5.05,13.314)" id="mark11 l" />
  <path d="M 0 352.66930387097284 L 10 352.66930387097284 L 10 354.16930387097284 L 0 354.16930387097284 Z " stroke="none" fill-rule="evenodd" fill="#000000" fill-opacity="1" transform="matrix(1,0,0,1,5.05,13.314)" id="mark12 l" />
  <path d="M 0 343.3687958743683 L 10 343.3687958743683 L 10 344.8687958743683 L 0 344.8687958743683 Z " stroke="none" fill-rule="evenodd" fill="#000000" fill-opacity="1" transform="matrix(1,0,0,1,5.05,13.314)" id="mark13 l" />
  <path d="M 0 334.06828787776374 L 10 334.06828787776374 L 10 335.56828787776374 L 0 335.56828787776374 Z " stroke="none" fill-rule="evenodd" fill="#000000" fill-opacity="1" transform="matrix(1,0,0,1,5.05,13.314)" id="mark14 l" />
  <path d="M 0 324.7677798811592 L 25 324.7677798811592 L 25 326.2677798811592 L 0 326.2677798811592 Z " stroke="none" fill-rule="evenodd" fill="#000000" fill-opacity="1" transform="matrix(1,0,0,1,5.05,13.314)" id="mark15 l" />
  <path d="M 14.331999999999999 323.6857798811592 L 14.331999999999999 318.2417798811592 L 13.879999999999999 318.2417798811592 L 13.847999999999999 317.8617798811592 L 14.552 317.2857798811592 L 15.432 317.2857798811592 L 15.432 323.6857798811592 Z M 16.18 322.2697798811592 C 16.174666666666667 322.09644654782585, 16.173333333333332 321.95711321449255, 16.176 321.8517798811592 C 16.178666666666665 321.7464465478258, 16.181333333333335 321.64444654782585, 16.183999999999997 321.5457798811592 L 17.264 321.5457798811592 C 17.256 321.62311321449255, 17.25 321.71911321449255, 17.246 321.8337798811592 C 17.241999999999997 321.9484465478259, 17.240666666666666 322.0591132144925, 17.241999999999997 322.1657798811592 C 17.243333333333332 322.2724465478259, 17.246666666666666 322.3524465478259, 17.252 322.4057798811592 C 17.262666666666668 322.52577988115917, 17.297333333333334 322.6237798811592, 17.355999999999998 322.6997798811592 C 17.414666666666665 322.7757798811592, 17.497333333333334 322.8297798811592, 17.604 322.8617798811592 L 17.604 323.7537798811592 C 17.110666666666663 323.71644654782585, 16.75333333333333 323.5817798811592, 16.532 323.3497798811592 C 16.310666666666666 323.11777988115915, 16.19333333333333 322.7577798811592, 16.18 322.2697798811592 Z M 16.279999999999998 320.9337798811592 L 16.279999999999998 317.2857798811592 L 17.348 317.2857798811592 L 17.348 320.9337798811592 Z M 17.852 320.5097798811592 L 17.852 319.7537798811592 C 17.929333333333332 319.71377988115916, 18.014666666666667 319.6817798811592, 18.107999999999997 319.6577798811592 C 18.20133333333333 319.63377988115917, 18.301333333333332 319.62177988115917, 18.407999999999998 319.62177988115917 C 18.773333333333333 319.62177988115917, 19.047333333333334 319.7371132144925, 19.23 319.9677798811592 C 19.412666666666667 320.1984465478258, 19.514666666666663 320.51244654782585, 19.535999999999998 320.9097798811592 C 19.546666666666667 321.0697798811592, 19.55333333333333 321.22844654782585, 19.555999999999997 321.3857798811592 C 19.558666666666664 321.5431132144925, 19.557333333333332 321.6964465478259, 19.552 321.8457798811592 C 19.546666666666667 321.99511321449256, 19.538666666666668 322.13511321449255, 19.528 322.2657798811592 C 19.482666666666667 322.76444654782586, 19.353333333333335 323.12977988115915, 19.14 323.3617798811592 C 18.926666666666666 323.5937798811592, 18.581333333333333 323.72444654782583, 18.104 323.7537798811592 L 18.104 322.8617798811592 C 18.21333333333333 322.83244654782584, 18.296 322.7797798811592, 18.352 322.70377988115916 C 18.408 322.6277798811592, 18.44 322.52844654782587, 18.448 322.4057798811592 C 18.471999999999998 322.1151132144925, 18.485999999999997 321.8537798811592, 18.49 321.62177988115917 C 18.494 321.3897798811592, 18.485333333333333 321.16844654782585, 18.464 320.9577798811592 C 18.447999999999997 320.80311321449256, 18.396666666666665 320.6877798811592, 18.31 320.6117798811592 C 18.223333333333333 320.5357798811592, 18.090666666666664 320.4977798811592, 17.912 320.4977798811592 C 17.901333333333334 320.4977798811592, 17.890666666666668 320.4991132144925, 17.88 320.50177988115917 C 17.86933333333333 320.50444654782586, 17.86 320.5071132144925, 17.852 320.5097798811592 Z M 17.852 318.2177798811592 L 17.852 317.2857798811592 L 19.439999999999998 317.2857798811592 L 19.439999999999998 318.2177798811592 Z M 21.944 323.6857798811592 L 21.944 317.2857798811592 L 23.003999999999998 317.2857798811592 L 23.003999999999998 323.6857798811592 Z " stroke="none" fill-rule="nonzero" fill="#000000" fill-opacity="1" transform="matrix(1,0,0,1,5.05,13.314)" id="text15 l" />
  <path d="M 0 315.46727188455463 L 10 315.46727188455463 L 10 316.96727188455463 L 0 316.96727188455463 Z " stroke="none" fill-rule="evenodd" fill="#000000" fill-opacity="1" transform="matrix(1,0,0,1,5.05,13.314)" id="mark16 l" />
  <path d="M 0 306.1667638879501 L 10 306.1667638879501 L 10 307.6667638879501 L 0 307.6667638879501 Z " stroke="none" fill-rule="evenodd" fill="#000000" fill-opacity="1" transform="matrix(1,0,0,1,5.05,13.314)" id="mark17 l" />
  <path d="M 0 296.86625589134553 L 10 296.86625589134553 L 10 298.36625589134553 L 0 298.36625589134553 Z " stroke="none" fill-rule="evenodd" fill="#000000" fill-opacity="1" transform="matrix(1,0,0,1,5.05,13.314)" id="mark18 l" />
  <path d="M 0 287.565747894741 L 10 287.565747894741 L 10 289.065747894741 L 0 289.065747894741 Z " stroke="none" fill-rule="evenodd" fill="#000000" fill-opacity="1" transform="matrix(1,0,0,1,5.05,13.314)" id="mark19 l" />
  <path d="M 0 278.2652398981365 L 25 278.2652398981365 L 25 279.7652398981365 L 0 279.7652398981365 Z " stroke="none" fill-rule="evenodd" fill="#000000" fill-opacity="1" transform="matrix(1,0,0,1,5.05,13.314)" id="mark20 l" />
  <path d="M 12.319999999999999 277.2152398981365 C 12.317333333333334 277.11657323146983, 12.315333333333331 277.0279065648031, 12.313999999999998 276.94923989813645 C 12.312666666666665 276.8705732314698, 12.311333333333334 276.7965732314698, 12.309999999999999 276.7272398981365 C 12.308666666666667 276.65790656480317, 12.308 276.58590656480317, 12.308 276.51123989813647 C 12.308 276.4365732314698, 12.308 276.35190656480313, 12.308 276.25723989813645 C 12.308 276.16257323146976, 12.309333333333335 276.0512398981365, 12.312 275.9232398981365 C 12.32 275.62990656480315, 12.37 275.36790656480315, 12.462 275.1372398981365 C 12.554 274.90657323146985, 12.687999999999999 274.70057323146983, 12.863999999999999 274.51923989813645 C 13.04 274.3379065648031, 13.257333333333333 274.1765732314698, 13.515999999999998 274.03523989813647 L 14.047999999999998 273.74723989813646 C 14.234666666666666 273.6459065648031, 14.354 273.52390656480316, 14.405999999999999 273.38123989813647 C 14.457999999999998 273.2385732314698, 14.488 273.10457323146983, 14.495999999999999 272.9792398981365 C 14.506666666666664 272.8325732314698, 14.512666666666664 272.6759065648031, 14.514 272.50923989813646 C 14.51533333333333 272.3425732314698, 14.511999999999997 272.18590656480313, 14.504 272.0392398981365 C 14.498666666666665 271.9352398981365, 14.468666666666666 271.8492398981365, 14.413999999999998 271.78123989813645 C 14.359333333333332 271.71323989813646, 14.279999999999998 271.66457323146983, 14.175999999999998 271.6352398981365 L 14.175999999999998 270.74723989813646 C 14.663999999999998 270.77923989813644, 15.014 270.9105732314698, 15.225999999999999 271.14123989813646 C 15.437999999999999 271.3719065648031, 15.554666666666666 271.7325732314698, 15.575999999999999 272.22323989813646 C 15.578666666666663 272.2872398981365, 15.580666666666666 272.3525732314698, 15.581999999999999 272.4192398981365 C 15.583333333333332 272.48590656480314, 15.584 272.5505732314698, 15.584 272.6132398981365 C 15.584 272.6759065648032, 15.583333333333332 272.73790656480315, 15.581999999999999 272.7992398981365 C 15.580666666666666 272.8605732314698, 15.578666666666663 272.9205732314698, 15.575999999999999 272.9792398981365 C 15.565333333333331 273.2645732314698, 15.512 273.51123989813647, 15.415999999999999 273.7192398981365 C 15.32 273.92723989813646, 15.19 274.10723989813647, 15.026 274.25923989813646 C 14.862 274.41123989813644, 14.672 274.54723989813647, 14.456 274.6672398981365 L 13.851999999999999 274.99523989813645 C 13.737333333333332 275.05657323146977, 13.647333333333332 275.14057323146983, 13.581999999999999 275.24723989813646 C 13.516666666666666 275.35390656480314, 13.469999999999999 275.4672398981365, 13.441999999999998 275.5872398981365 C 13.413999999999998 275.7072398981365, 13.399999999999999 275.8192398981365, 13.399999999999999 275.9232398981365 L 13.399999999999999 277.2152398981365 Z M 12.328 273.17523989813645 C 12.322666666666667 273.05790656480315, 12.318666666666665 272.9432398981365, 12.315999999999999 272.83123989813646 C 12.313333333333333 272.71923989813644, 12.311333333333334 272.61323989813644, 12.309999999999999 272.5132398981365 C 12.308666666666667 272.4132398981365, 12.309333333333335 272.3165732314698, 12.312 272.22323989813646 C 12.330666666666666 271.73523989813646, 12.447333333333333 271.37590656480313, 12.661999999999999 271.1452398981365 C 12.876666666666665 270.91457323146983, 13.213333333333331 270.78190656480314, 13.671999999999999 270.74723989813646 L 13.671999999999999 271.63923989813645 C 13.576 271.6685732314698, 13.505333333333333 271.7152398981365, 13.459999999999999 271.7792398981365 C 13.414666666666665 271.8432398981365, 13.390666666666664 271.9205732314698, 13.387999999999998 272.01123989813647 C 13.382666666666665 272.2192398981365, 13.379333333333333 272.41257323146976, 13.378 272.59123989813645 C 13.376666666666667 272.76990656480314, 13.381333333333334 272.9645732314698, 13.392 273.17523989813645 Z M 13.904 277.2152398981365 L 13.904 276.28323989813646 L 15.5 276.28323989813646 L 15.5 277.2152398981365 Z M 16.196 275.8032398981365 C 16.188000000000002 275.3739065648032, 16.182666666666666 274.9572398981365, 16.18 274.5532398981365 C 16.177333333333333 274.1492398981365, 16.177999999999997 273.7539065648032, 16.182 273.36723989813646 C 16.186 272.9805732314698, 16.190666666666665 272.5992398981365, 16.196 272.22323989813646 C 16.209333333333333 271.78323989813646, 16.334000000000003 271.43790656480314, 16.57 271.18723989813645 C 16.805999999999997 270.9365732314698, 17.142666666666663 270.7912398981365, 17.58 270.7512398981365 L 17.58 271.63923989813645 C 17.382666666666665 271.69523989813644, 17.281333333333333 271.8245732314698, 17.276 272.0272398981365 C 17.262666666666668 272.3979065648032, 17.253333333333334 272.74590656480314, 17.248 273.07123989813647 C 17.242666666666665 273.3965732314698, 17.24 273.71323989813646, 17.24 274.02123989813646 C 17.24 274.32923989813645, 17.242666666666665 274.64390656480316, 17.248 274.9652398981365 C 17.253333333333334 275.2865732314698, 17.262666666666668 275.62990656480315, 17.276 275.99523989813645 C 17.281333333333333 276.2032398981365, 17.382666666666665 276.3352398981365, 17.58 276.39123989813646 L 17.58 277.2792398981365 C 17.142666666666663 277.2392398981365, 16.805999999999997 277.09323989813646, 16.57 276.84123989813645 C 16.334000000000003 276.58923989813644, 16.209333333333333 276.2432398981365, 16.196 275.8032398981365 Z M 18.084 277.2792398981365 L 18.084 276.3872398981365 C 18.268 276.33390656480316, 18.366666666666667 276.20990656480313, 18.38 276.0152398981365 C 18.398666666666667 275.54857323146985, 18.410666666666668 275.0999065648032, 18.416 274.6692398981365 C 18.421333333333333 274.2385732314698, 18.421333333333333 273.80790656480315, 18.416 273.37723989813645 C 18.410666666666668 272.9465732314698, 18.398666666666667 272.4939065648031, 18.38 272.01923989813645 C 18.374666666666666 271.8245732314698, 18.276 271.69790656480313, 18.084 271.63923989813645 L 18.084 270.7512398981365 C 18.513333333333335 270.7912398981365, 18.846666666666668 270.9365732314698, 19.084 271.18723989813645 C 19.321333333333335 271.43790656480314, 19.445333333333334 271.78323989813646, 19.456 272.22323989813646 C 19.46666666666667 272.53790656480317, 19.474666666666668 272.84790656480317, 19.48 273.15323989813646 C 19.485333333333333 273.4585732314698, 19.488 273.75923989813646, 19.488 274.05523989813645 C 19.488 274.35123989813644, 19.485333333333333 274.64457323146985, 19.48 274.9352398981365 C 19.474666666666668 275.22590656480315, 19.46666666666667 275.5152398981365, 19.456 275.8032398981365 C 19.439999999999998 276.2539065648032, 19.311999999999998 276.6025732314698, 19.072 276.8492398981365 C 18.832 277.09590656480316, 18.502666666666666 277.2392398981365, 18.084 277.2792398981365 Z M 21.944 277.2152398981365 L 21.944 270.8152398981365 L 23.003999999999998 270.8152398981365 L 23.003999999999998 277.2152398981365 Z " stroke="none" fill-rule="nonzero" fill="#000000" fill-opacity="1" transform="matrix(1,0,0,1,5.05,13.314)" id="text20 l" />
  <path d="M 0 268.96473190153193 L 10 268.96473190153193 L 10 270.46473190153193 L 0 270.46473190153193 Z " stroke="none" fill-rule="evenodd" fill="#000000" fill-opacity="1" transform="matrix(1,0,0,1,5.05,13.314)" id="mark21 l" />
  <path d="M 0 259.6642239049274 L 10 259.6642239049274 L 10 261.1642239049274 L 0 261.1642239049274 Z " stroke="none" fill-rule="evenodd" fill="#000000" fill-opacity="1" transform="matrix(1,0,0,1,5.05,13.314)" id="mark22 l" />
  <path d="M 0 250.36371590832283 L 10 250.36371590832283 L 10 251.86371590832283 L 0 251.86371590832283 Z " stroke="none" fill-rule="evenodd" fill="#000000" fill-opacity="1" transform="matrix(1,0,0,1,5.05,13.314)" id="mark23 l" />
  <path d="M 0 241.06320791171828 L 10 241.06320791171828 L 10 242.56320791171828 L 0 242.56320791171828 Z " stroke="none" fill-rule="evenodd" fill="#000000" fill-opacity="1" transform="matrix(1,0,0,1,5.05,13.314)" id="mark24 l" />
  <path d="M 0 231.76269991511373 L 25 231.76269991511373 L 25 233.26269991511373 L 0 233.26269991511373 Z " stroke="none" fill-rule="evenodd" fill="#000000" fill-opacity="1" transform="matrix(1,0,0,1,5.05,13.314)" id="mark25 l" />
  <path d="M 12.328 230.71269991511375 C 12.325333333333333 230.61403324844707, 12.323333333333332 230.52536658178042, 12.322 230.44669991511375 C 12.320666666666666 230.3680332484471, 12.319333333333333 230.29403324844708, 12.318 230.22469991511375 C 12.316666666666666 230.1553665817804, 12.315999999999999 230.0833665817804, 12.316 230.00869991511374 C 12.315999999999999 229.93403324844707, 12.315999999999999 229.84936658178043, 12.316 229.75469991511375 C 12.315999999999999 229.66003324844706, 12.317333333333334 229.54869991511373, 12.32 229.42069991511374 C 12.328 229.1273665817804, 12.378 228.8653665817804, 12.47 228.63469991511374 C 12.562000000000001 228.4040332484471, 12.696 228.19803324844708, 12.872 228.01669991511375 C 13.048 227.83536658178042, 13.265333333333334 227.67403324844707, 13.524000000000001 227.53269991511374 L 14.056000000000001 227.24469991511376 C 14.242666666666668 227.1433665817804, 14.362000000000002 227.0213665817804, 14.414 226.87869991511374 C 14.466000000000001 226.7360332484471, 14.495999999999999 226.60203324844707, 14.504 226.47669991511376 C 14.514666666666667 226.33003324844708, 14.520666666666667 226.17336658178044, 14.522 226.00669991511376 C 14.523333333333333 225.84003324844707, 14.520000000000001 225.68336658178043, 14.512 225.53669991511376 C 14.506666666666666 225.43269991511374, 14.476666666666667 225.34669991511376, 14.422 225.27869991511375 C 14.367333333333335 225.21069991511374, 14.288 225.16203324844707, 14.184000000000001 225.13269991511373 L 14.184000000000001 224.24469991511376 C 14.672 224.27669991511374, 15.022000000000002 224.40803324844708, 15.234 224.63869991511373 C 15.446000000000002 224.8693665817804, 15.562666666666667 225.23003324844709, 15.584 225.72069991511376 C 15.586666666666668 225.78469991511375, 15.588666666666668 225.85003324844706, 15.59 225.91669991511375 C 15.591333333333335 225.9833665817804, 15.592000000000002 226.04803324844707, 15.592 226.11069991511374 C 15.592000000000002 226.1733665817804, 15.591333333333335 226.2353665817804, 15.59 226.29669991511375 C 15.588666666666668 226.35803324844704, 15.586666666666668 226.41803324844705, 15.584 226.47669991511376 C 15.573333333333332 226.7620332484471, 15.52 227.00869991511377, 15.424 227.21669991511374 C 15.328 227.42469991511376, 15.197999999999999 227.60469991511377, 15.033999999999999 227.75669991511376 C 14.87 227.90869991511374, 14.68 228.04469991511377, 14.464 228.16469991511374 L 13.86 228.49269991511375 C 13.745333333333335 228.55403324844707, 13.655333333333335 228.63803324844707, 13.59 228.74469991511376 C 13.524666666666668 228.85136658178044, 13.478000000000002 228.96469991511375, 13.45 229.08469991511373 C 13.422 229.20469991511374, 13.408 229.31669991511376, 13.408 229.42069991511374 L 13.408 230.71269991511375 Z M 12.336 226.67269991511375 C 12.330666666666666 226.5553665817804, 12.326666666666664 226.44069991511373, 12.324 226.32869991511376 C 12.321333333333332 226.21669991511374, 12.319333333333333 226.11069991511374, 12.318 226.01069991511375 C 12.316666666666666 225.91069991511375, 12.317333333333334 225.8140332484471, 12.32 225.72069991511376 C 12.338666666666668 225.23269991511376, 12.455333333333336 224.87336658178043, 12.67 224.64269991511375 C 12.884666666666668 224.41203324844707, 13.221333333333334 224.27936658178044, 13.68 224.24469991511376 L 13.68 225.13669991511375 C 13.584 225.1660332484471, 13.513333333333332 225.21269991511372, 13.468 225.27669991511374 C 13.422666666666668 225.34069991511376, 13.398666666666667 225.4180332484471, 13.396 225.50869991511374 C 13.390666666666666 225.71669991511374, 13.387333333333332 225.91003324844706, 13.386 226.08869991511375 C 13.384666666666666 226.26736658178044, 13.389333333333333 226.46203324844709, 13.4 226.67269991511375 Z M 13.911999999999999 230.71269991511375 L 13.911999999999999 229.78069991511376 L 15.508 229.78069991511376 L 15.508 230.71269991511375 Z M 16.18 229.29669991511375 C 16.174666666666667 229.12336658178043, 16.173333333333332 228.98403324844708, 16.176 228.87869991511374 C 16.178666666666665 228.7733665817804, 16.181333333333335 228.67136658178043, 16.183999999999997 228.57269991511376 L 17.264 228.57269991511376 C 17.256 228.65003324844707, 17.25 228.74603324844708, 17.246 228.86069991511374 C 17.241999999999997 228.9753665817804, 17.240666666666666 229.08603324844708, 17.241999999999997 229.19269991511374 C 17.243333333333332 229.2993665817804, 17.246666666666666 229.3793665817804, 17.252 229.43269991511374 C 17.262666666666668 229.55269991511375, 17.297333333333334 229.65069991511376, 17.355999999999998 229.72669991511376 C 17.414666666666665 229.80269991511375, 17.497333333333334 229.85669991511372, 17.604 229.88869991511373 L 17.604 230.78069991511376 C 17.110666666666663 230.7433665817804, 16.75333333333333 230.60869991511373, 16.532 230.37669991511373 C 16.310666666666666 230.14469991511373, 16.19333333333333 229.78469991511372, 16.18 229.29669991511375 Z M 16.279999999999998 227.96069991511374 L 16.279999999999998 224.31269991511374 L 17.348 224.31269991511374 L 17.348 227.96069991511374 Z M 17.852 227.53669991511376 L 17.852 226.78069991511376 C 17.929333333333332 226.74069991511374, 18.014666666666667 226.70869991511375, 18.107999999999997 226.68469991511375 C 18.20133333333333 226.66069991511375, 18.301333333333332 226.64869991511375, 18.407999999999998 226.64869991511375 C 18.773333333333333 226.64869991511375, 19.047333333333334 226.76403324844708, 19.23 226.99469991511376 C 19.412666666666667 227.22536658178043, 19.514666666666663 227.53936658178043, 19.535999999999998 227.93669991511373 C 19.546666666666667 228.09669991511373, 19.55333333333333 228.25536658178038, 19.555999999999997 228.41269991511373 C 19.558666666666664 228.5700332484471, 19.557333333333332 228.7233665817804, 19.552 228.87269991511374 C 19.546666666666667 229.0220332484471, 19.538666666666668 229.16203324844707, 19.528 229.29269991511376 C 19.482666666666667 229.79136658178044, 19.353333333333335 230.15669991511373, 19.14 230.38869991511373 C 18.926666666666666 230.62069991511373, 18.581333333333333 230.75136658178042, 18.104 230.78069991511376 L 18.104 229.88869991511373 C 18.21333333333333 229.85936658178042, 18.296 229.80669991511377, 18.352 229.73069991511375 C 18.408 229.65469991511372, 18.44 229.5553665817804, 18.448 229.43269991511374 C 18.471999999999998 229.1420332484471, 18.485999999999997 228.88069991511375, 18.49 228.64869991511375 C 18.494 228.41669991511375, 18.485333333333333 228.19536658178043, 18.464 227.98469991511374 C 18.447999999999997 227.83003324844708, 18.396666666666665 227.71469991511373, 18.31 227.63869991511373 C 18.223333333333333 227.56269991511374, 18.090666666666664 227.52469991511373, 17.912 227.52469991511376 C 17.901333333333334 227.52469991511373, 17.890666666666668 227.52603324844708, 17.88 227.52869991511375 C 17.86933333333333 227.53136658178042, 17.86 227.5340332484471, 17.852 227.53669991511376 Z M 17.852 225.24469991511376 L 17.852 224.31269991511374 L 19.439999999999998 224.31269991511374 L 19.439999999999998 225.24469991511376 Z M 21.944 230.71269991511375 L 21.944 224.31269991511374 L 23.003999999999998 224.31269991511374 L 23.003999999999998 230.71269991511375 Z " stroke="none" fill-rule="nonzero" fill="#000000" fill-opacity="1" transform="matrix(1,0,0,1,5.05,13.314)" id="text25 l" />
  <path d="M 0 222.46219191850918 L 10 222.46219191850918 L 10 223.96219191850918 L 0 223.96219191850918 Z " stroke="none" fill-rule="evenodd" fill="#000000" fill-opacity="1" transform="matrix(1,0,0,1,5.05,13.314)" id="mark26 l" />
  <path d="M 0 213.16168392190463 L 10 213.16168392190463 L 10 214.66168392190463 L 0 214.66168392190463 Z " stroke="none" fill-rule="evenodd" fill="#000000" fill-opacity="1" transform="matrix(1,0,0,1,5.05,13.314)" id="mark27 l" />
  <path d="M 0 203.86117592530007 L 10 203.86117592530007 L 10 205.36117592530007 L 0 205.36117592530007 Z " stroke="none" fill-rule="evenodd" fill="#000000" fill-opacity="1" transform="matrix(1,0,0,1,5.05,13.314)" id="mark28 l" />
  <path d="M 0 194.56066792869552 L 10 194.56066792869552 L 10 196.06066792869552 L 0 196.06066792869552 Z " stroke="none" fill-rule="evenodd" fill="#000000" fill-opacity="1" transform="matrix(1,0,0,1,5.05,13.314)" id="mark29 l" />
  <path d="M 0 185.26015993209097 L 25 185.26015993209097 L 25 186.76015993209097 L 0 186.76015993209097 Z " stroke="none" fill-rule="evenodd" fill="#000000" fill-opacity="1" transform="matrix(1,0,0,1,5.05,13.314)" id="mark30 l" />
  <path d="M 12.223999999999998 182.794159932091 C 12.221333333333334 182.69282659875765, 12.219333333333333 182.60882659875764, 12.218 182.54215993209098 C 12.216666666666667 182.47549326542432, 12.216666666666667 182.40749326542434, 12.218 182.338159932091 C 12.219333333333333 182.26882659875767, 12.221333333333334 182.17949326542433, 12.223999999999998 182.070159932091 L 13.303999999999998 182.070159932091 L 13.303999999999998 182.93415993209098 C 13.303999999999998 183.17149326542432, 13.417333333333332 183.32215993209098, 13.643999999999998 183.38615993209098 L 13.643999999999998 184.278159932091 C 13.155999999999999 184.24082659875768, 12.800666666666665 184.10615993209097, 12.578 183.87415993209098 C 12.355333333333334 183.64215993209098, 12.237333333333332 183.282159932091, 12.223999999999998 182.794159932091 Z M 12.292 178.742159932091 L 12.292 177.81015993209098 L 15.536 177.81015993209098 L 15.536 178.742159932091 Z M 14.143999999999998 183.390159932091 C 14.367999999999999 183.33415993209098, 14.483999999999998 183.18349326542432, 14.491999999999999 182.938159932091 C 14.497333333333334 182.73549326542434, 14.500666666666666 182.55282659875766, 14.501999999999999 182.390159932091 C 14.503333333333332 182.22749326542433, 14.498666666666665 182.070159932091, 14.488 181.918159932091 C 14.48 181.76082659875766, 14.431999999999999 181.62749326542433, 14.344 181.51815993209098 C 14.256 181.40882659875766, 14.089333333333332 181.35682659875766, 13.844 181.36215993209098 L 13.096 181.37015993209098 L 13.068 180.478159932091 L 14.027999999999999 179.09415993209097 L 15.216 179.09415993209097 L 14.248 180.44615993209098 L 14.28 180.44615993209098 C 14.712 180.44615993209098, 15.028666666666666 180.56882659875765, 15.229999999999999 180.814159932091 C 15.431333333333333 181.05949326542432, 15.544 181.43682659875765, 15.568 181.94615993209098 C 15.57333333333333 182.01815993209098, 15.576666666666664 182.09015993209098, 15.578 182.162159932091 C 15.57933333333333 182.234159932091, 15.579999999999998 182.30482659875764, 15.579999999999998 182.37415993209098 C 15.579999999999998 182.4434932654243, 15.57933333333333 182.51282659875767, 15.578 182.58215993209097 C 15.576666666666664 182.65149326542434, 15.57333333333333 182.722159932091, 15.568 182.794159932091 C 15.549333333333333 183.290159932091, 15.428666666666665 183.65482659875767, 15.206 183.88815993209099 C 14.983333333333334 184.1214932654243, 14.630666666666666 184.2514932654243, 14.148 184.278159932091 Z M 16.196 182.79815993209098 C 16.188000000000002 182.36882659875766, 16.182666666666666 181.95215993209098, 16.18 181.54815993209098 C 16.177333333333333 181.144159932091, 16.177999999999997 180.74882659875766, 16.182 180.36215993209098 C 16.186 179.97549326542432, 16.190666666666665 179.59415993209097, 16.196 179.218159932091 C 16.209333333333333 178.778159932091, 16.334000000000003 178.43282659875766, 16.57 178.182159932091 C 16.805999999999997 177.93149326542434, 17.142666666666663 177.78615993209098, 17.58 177.746159932091 L 17.58 178.634159932091 C 17.382666666666665 178.690159932091, 17.281333333333333 178.81949326542434, 17.276 179.022159932091 C 17.262666666666668 179.39282659875767, 17.253333333333334 179.74082659875765, 17.248 180.06615993209098 C 17.242666666666665 180.39149326542432, 17.24 180.708159932091, 17.24 181.016159932091 C 17.24 181.324159932091, 17.242666666666665 181.63882659875765, 17.248 181.960159932091 C 17.253333333333334 182.28149326542433, 17.262666666666668 182.62482659875766, 17.276 182.990159932091 C 17.281333333333333 183.198159932091, 17.382666666666665 183.330159932091, 17.58 183.38615993209098 L 17.58 184.27415993209098 C 17.142666666666663 184.234159932091, 16.805999999999997 184.088159932091, 16.57 183.836159932091 C 16.334000000000003 183.58415993209098, 16.209333333333333 183.23815993209098, 16.196 182.79815993209098 Z M 18.084 184.27415993209098 L 18.084 183.38215993209099 C 18.268 183.32882659875767, 18.366666666666667 183.20482659875768, 18.38 183.010159932091 C 18.398666666666667 182.54349326542433, 18.410666666666668 182.09482659875766, 18.416 181.664159932091 C 18.421333333333333 181.23349326542433, 18.421333333333333 180.80282659875766, 18.416 180.372159932091 C 18.410666666666668 179.94149326542433, 18.398666666666667 179.48882659875764, 18.38 179.014159932091 C 18.374666666666666 178.8194932654243, 18.276 178.69282659875765, 18.084 178.634159932091 L 18.084 177.746159932091 C 18.513333333333335 177.78615993209098, 18.846666666666668 177.93149326542434, 19.084 178.182159932091 C 19.321333333333335 178.43282659875766, 19.445333333333334 178.778159932091, 19.456 179.218159932091 C 19.46666666666667 179.53282659875765, 19.474666666666668 179.84282659875765, 19.48 180.14815993209098 C 19.485333333333333 180.4534932654243, 19.488 180.75415993209097, 19.488 181.050159932091 C 19.488 181.34615993209098, 19.485333333333333 181.63949326542433, 19.48 181.930159932091 C 19.474666666666668 182.22082659875764, 19.46666666666667 182.51015993209097, 19.456 182.79815993209098 C 19.439999999999998 183.24882659875766, 19.311999999999998 183.59749326542433, 19.072 183.84415993209097 C 18.832 184.09082659875764, 18.502666666666666 184.234159932091, 18.084 184.27415993209098 Z M 21.944 184.210159932091 L 21.944 177.81015993209098 L 23.003999999999998 177.81015993209098 L 23.003999999999998 184.210159932091 Z " stroke="none" fill-rule="nonzero" fill="#000000" fill-opacity="1" transform="matrix(1,0,0,1,5.05,13.314)" id="text30 l" />
  <path d="M 0 175.95965193548642 L 10 175.95965193548642 L 10 177.45965193548642 L 0 177.45965193548642 Z " stroke="none" fill-rule="evenodd" fill="#000000" fill-opacity="1" transform="matrix(1,0,0,1,5.05,13.314)" id="mark31 l" />
  <path d="M 0 166.65914393888187 L 10 166.65914393888187 L 10 168.15914393888187 L 0 168.15914393888187 Z " stroke="none" fill-rule="evenodd" fill="#000000" fill-opacity="1" transform="matrix(1,0,0,1,5.05,13.314)" id="mark32 l" />
  <path d="M 0 157.35863594227732 L 10 157.35863594227732 L 10 158.85863594227732 L 0 158.85863594227732 Z " stroke="none" fill-rule="evenodd" fill="#000000" fill-opacity="1" transform="matrix(1,0,0,1,5.05,13.314)" id="mark33 l" />
  <path d="M 0 148.05812794567277 L 10 148.05812794567277 L 10 149.55812794567277 L 0 149.55812794567277 Z " stroke="none" fill-rule="evenodd" fill="#000000" fill-opacity="1" transform="matrix(1,0,0,1,5.05,13.314)" id="mark34 l" />
  <path d="M 0 138.75761994906821 L 25 138.75761994906821 L 25 140.25761994906821 L 0 140.25761994906821 Z " stroke="none" fill-rule="evenodd" fill="#000000" fill-opacity="1" transform="matrix(1,0,0,1,5.05,13.314)" id="mark35 l" />
  <path d="M 12.232 136.25961994906822 C 12.229333333333333 136.15828661573488, 12.227333333333334 136.07428661573488, 12.226 136.00761994906821 C 12.224666666666668 135.94095328240155, 12.224666666666668 135.87295328240154, 12.226 135.8036199490682 C 12.227333333333334 135.73428661573487, 12.229333333333333 135.64495328240156, 12.232 135.53561994906823 L 13.312 135.53561994906823 L 13.312 136.3996199490682 C 13.312 136.63695328240155, 13.425333333333333 136.78761994906822, 13.652 136.8516199490682 L 13.652 137.74361994906823 C 13.164 137.70628661573488, 12.808666666666667 137.5716199490682, 12.586 137.3396199490682 C 12.363333333333333 137.1076199490682, 12.245333333333335 136.74761994906822, 12.232 136.25961994906822 Z M 12.3 132.20761994906823 L 12.3 131.27561994906821 L 15.544 131.27561994906821 L 15.544 132.20761994906823 Z M 14.152000000000001 136.85561994906823 C 14.376000000000001 136.79961994906824, 14.492 136.64895328240158, 14.5 136.40361994906823 C 14.505333333333333 136.20095328240154, 14.508666666666667 136.0182866157349, 14.51 135.85561994906823 C 14.511333333333333 135.69295328240156, 14.506666666666668 135.53561994906823, 14.496 135.38361994906822 C 14.488 135.2262866157349, 14.440000000000001 135.09295328240157, 14.352 134.9836199490682 C 14.264 134.8742866157349, 14.097333333333335 134.8222866157349, 13.852 134.8276199490682 L 13.104 134.83561994906822 L 13.076 133.94361994906822 L 14.036 132.55961994906824 L 15.224 132.55961994906824 L 14.256 133.9116199490682 L 14.288 133.9116199490682 C 14.719999999999999 133.9116199490682, 15.036666666666665 134.03428661573489, 15.238 134.27961994906823 C 15.439333333333334 134.52495328240155, 15.552 134.9022866157349, 15.576 135.4116199490682 C 15.581333333333333 135.4836199490682, 15.584666666666667 135.55561994906822, 15.586 135.62761994906822 C 15.587333333333333 135.69961994906822, 15.588000000000001 135.77028661573488, 15.588000000000001 135.8396199490682 C 15.588000000000001 135.90895328240154, 15.587333333333333 135.9782866157349, 15.586 136.04761994906823 C 15.584666666666667 136.11695328240157, 15.581333333333333 136.18761994906822, 15.576 136.25961994906822 C 15.557333333333334 136.7556199490682, 15.436666666666667 137.12028661573487, 15.214 137.35361994906822 C 14.991333333333333 137.58695328240157, 14.638666666666666 137.71695328240156, 14.156 137.74361994906823 Z M 16.18 136.25961994906822 C 16.174666666666667 136.08628661573488, 16.173333333333332 135.94695328240155, 16.176 135.84161994906822 C 16.178666666666665 135.73628661573488, 16.181333333333335 135.63428661573488, 16.183999999999997 135.53561994906823 L 17.264 135.53561994906823 C 17.256 135.61295328240158, 17.25 135.70895328240155, 17.246 135.82361994906822 C 17.241999999999997 135.93828661573488, 17.240666666666666 136.04895328240156, 17.241999999999997 136.1556199490682 C 17.243333333333332 136.26228661573487, 17.246666666666666 136.34228661573488, 17.252 136.39561994906822 C 17.262666666666668 136.51561994906822, 17.297333333333334 136.61361994906824, 17.355999999999998 136.68961994906823 C 17.414666666666665 136.76561994906822, 17.497333333333334 136.8196199490682, 17.604 136.8516199490682 L 17.604 137.74361994906823 C 17.110666666666663 137.70628661573488, 16.75333333333333 137.5716199490682, 16.532 137.3396199490682 C 16.310666666666666 137.1076199490682, 16.19333333333333 136.74761994906822, 16.18 136.25961994906822 Z M 16.279999999999998 134.9236199490682 L 16.279999999999998 131.27561994906821 L 17.348 131.27561994906821 L 17.348 134.9236199490682 Z M 17.852 134.49961994906823 L 17.852 133.74361994906823 C 17.929333333333332 133.70361994906824, 18.014666666666667 133.67161994906823, 18.107999999999997 133.64761994906823 C 18.20133333333333 133.62361994906823, 18.301333333333332 133.61161994906823, 18.407999999999998 133.61161994906823 C 18.773333333333333 133.61161994906823, 19.047333333333334 133.72695328240155, 19.23 133.95761994906823 C 19.412666666666667 134.18828661573488, 19.514666666666663 134.50228661573487, 19.535999999999998 134.8996199490682 C 19.546666666666667 135.0596199490682, 19.55333333333333 135.21828661573488, 19.555999999999997 135.3756199490682 C 19.558666666666664 135.53295328240154, 19.557333333333332 135.6862866157349, 19.552 135.83561994906822 C 19.546666666666667 135.98495328240153, 19.538666666666668 136.12495328240155, 19.528 136.25561994906823 C 19.482666666666667 136.75428661573488, 19.353333333333335 137.1196199490682, 19.14 137.3516199490682 C 18.926666666666666 137.5836199490682, 18.581333333333333 137.7142866157349, 18.104 137.74361994906823 L 18.104 136.8516199490682 C 18.21333333333333 136.8222866157349, 18.296 136.76961994906821, 18.352 136.69361994906822 C 18.408 136.61761994906823, 18.44 136.5182866157349, 18.448 136.39561994906822 C 18.471999999999998 136.10495328240154, 18.485999999999997 135.84361994906823, 18.49 135.61161994906823 C 18.494 135.37961994906823, 18.485333333333333 135.15828661573488, 18.464 134.9476199490682 C 18.447999999999997 134.79295328240156, 18.396666666666665 134.6776199490682, 18.31 134.6016199490682 C 18.223333333333333 134.52561994906821, 18.090666666666664 134.48761994906823, 17.912 134.48761994906823 C 17.901333333333334 134.48761994906823, 17.890666666666668 134.48895328240155, 17.88 134.49161994906822 C 17.86933333333333 134.4942866157349, 17.86 134.49695328240156, 17.852 134.49961994906823 Z M 17.852 132.20761994906823 L 17.852 131.27561994906821 L 19.439999999999998 131.27561994906821 L 19.439999999999998 132.20761994906823 Z M 21.944 137.67561994906822 L 21.944 131.27561994906821 L 23.003999999999998 131.27561994906821 L 23.003999999999998 137.67561994906822 Z " stroke="none" fill-rule="nonzero" fill="#000000" fill-opacity="1" transform="matrix(1,0,0,1,5.05,13.314)" id="text35 l" />
  <path d="M 0 129.45711195246366 L 10 129.45711195246366 L 10 130.95711195246366 L 0 130.95711195246366 Z " stroke="none" fill-rule="evenodd" fill="#000000" fill-opacity="1" transform="matrix(1,0,0,1,5.05,13.314)" id="mark36 l" />
  <path d="M 0 120.15660395585911 L 10 120.15660395585911 L 10 121.65660395585911 L 0 121.65660395585911 Z " stroke="none" fill-rule="evenodd" fill="#000000" fill-opacity="1" transform="matrix(1,0,0,1,5.05,13.314)" id="mark37 l" />
  <path d="M 0 110.85609595925456 L 10 110.85609595925456 L 10 112.35609595925456 L 0 112.35609595925456 Z " stroke="none" fill-rule="evenodd" fill="#000000" fill-opacity="1" transform="matrix(1,0,0,1,5.05,13.314)" id="mark38 l" />
  <path d="M 0 101.55558796265007 L 10 101.55558796265007 L 10 103.05558796265007 L 0 103.05558796265007 Z " stroke="none" fill-rule="evenodd" fill="#000000" fill-opacity="1" transform="matrix(1,0,0,1,5.05,13.314)" id="mark39 l" />
  <path d="M 0 92.25507996604551 L 25 92.25507996604551 L 25 93.75507996604551 L 0 93.75507996604551 Z " stroke="none" fill-rule="evenodd" fill="#000000" fill-opacity="1" transform="matrix(1,0,0,1,5.05,13.314)" id="mark40 l" />
  <path d="M 11.739999999999998 89.52107996604552 L 11.739999999999998 88.64507996604551 L 12.455999999999998 86.76507996604552 L 13.495999999999999 86.76507996604552 L 12.771999999999998 88.59707996604551 L 13.171999999999997 88.59707996604551 L 13.171999999999997 89.52107996604552 Z M 13.675999999999998 91.20507996604552 L 13.675999999999998 84.80507996604551 L 14.683999999999997 84.80507996604551 L 14.683999999999997 91.20507996604552 Z M 15.187999999999999 89.52107996604552 L 15.187999999999999 88.59707996604551 L 15.655999999999999 88.59707996604551 L 15.655999999999999 89.52107996604552 Z M 16.195999999999998 89.79307996604551 C 16.188 89.36374663271218, 16.182666666666666 88.94707996604552, 16.18 88.54307996604551 C 16.177333333333333 88.13907996604551, 16.177999999999997 87.74374663271217, 16.182 87.35707996604552 C 16.186 86.97041329937886, 16.190666666666665 86.58907996604552, 16.195999999999998 86.21307996604551 C 16.20933333333333 85.77307996604551, 16.333999999999996 85.42774663271219, 16.569999999999997 85.17707996604551 C 16.805999999999997 84.92641329937885, 17.142666666666663 84.78107996604552, 17.58 84.74107996604552 L 17.58 85.62907996604552 C 17.382666666666665 85.68507996604552, 17.281333333333333 85.81441329937884, 17.275999999999996 86.01707996604551 C 17.262666666666664 86.38774663271218, 17.25333333333333 86.73574663271218, 17.247999999999998 87.06107996604551 C 17.242666666666665 87.38641329937884, 17.24 87.70307996604551, 17.24 88.01107996604551 C 17.24 88.31907996604552, 17.242666666666665 88.63374663271219, 17.247999999999998 88.95507996604552 C 17.25333333333333 89.27641329937885, 17.262666666666664 89.61974663271218, 17.275999999999996 89.98507996604552 C 17.281333333333333 90.19307996604552, 17.382666666666665 90.32507996604552, 17.58 90.38107996604552 L 17.58 91.26907996604551 C 17.142666666666663 91.22907996604552, 16.805999999999997 91.08307996604552, 16.569999999999997 90.83107996604552 C 16.333999999999996 90.57907996604553, 16.20933333333333 90.23307996604552, 16.195999999999998 89.79307996604551 Z M 18.084 91.26907996604551 L 18.084 90.37707996604551 C 18.268 90.32374663271219, 18.366666666666667 90.19974663271219, 18.38 90.00507996604551 C 18.398666666666664 89.53841329937885, 18.410666666666664 89.08974663271218, 18.415999999999997 88.65907996604551 C 18.42133333333333 88.22841329937884, 18.42133333333333 87.79774663271219, 18.415999999999997 87.36707996604552 C 18.410666666666664 86.93641329937886, 18.398666666666664 86.48374663271218, 18.38 86.00907996604552 C 18.374666666666666 85.81441329937886, 18.276 85.68774663271219, 18.084 85.62907996604552 L 18.084 84.74107996604552 C 18.513333333333332 84.78107996604552, 18.846666666666664 84.92641329937885, 19.083999999999996 85.17707996604551 C 19.32133333333333 85.42774663271219, 19.44533333333333 85.77307996604551, 19.456 86.21307996604551 C 19.466666666666665 86.52774663271218, 19.474666666666664 86.83774663271218, 19.479999999999997 87.14307996604552 C 19.48533333333333 87.44841329937886, 19.488 87.74907996604551, 19.488 88.04507996604552 C 19.488 88.34107996604553, 19.48533333333333 88.63441329937885, 19.479999999999997 88.92507996604552 C 19.474666666666664 89.21574663271218, 19.466666666666665 89.50507996604551, 19.456 89.79307996604551 C 19.439999999999998 90.24374663271217, 19.311999999999998 90.59241329937885, 19.072 90.83907996604552 C 18.831999999999997 91.08574663271219, 18.502666666666663 91.22907996604552, 18.084 91.26907996604551 Z M 21.944 91.20507996604552 L 21.944 84.80507996604551 L 23.003999999999998 84.80507996604551 L 23.003999999999998 91.20507996604552 Z " stroke="none" fill-rule="nonzero" fill="#000000" fill-opacity="1" transform="matrix(1,0,0,1,5.05,13.314)" id="text40 l" />
  <path d="M 0 82.95457196944096 L 10 82.95457196944096 L 10 84.45457196944096 L 0 84.45457196944096 Z " stroke="none" fill-rule="evenodd" fill="#000000" fill-opacity="1" transform="matrix(1,0,0,1,5.05,13.314)" id="mark41 l" />
  <path d="M 0 73.65406397283641 L 10 73.65406397283641 L 10 75.15406397283641 L 0 75.15406397283641 Z " stroke="none" fill-rule="evenodd" fill="#000000" fill-opacity="1" transform="matrix(1,0,0,1,5.05,13.314)" id="mark42 l" />
  <path d="M 0 64.35355597623186 L 10 64.35355597623186 L 10 65.85355597623186 L 0 65.85355597623186 Z " stroke="none" fill-rule="evenodd" fill="#000000" fill-opacity="1" transform="matrix(1,0,0,1,5.05,13.314)" id="mark43 l" />
  <path d="M 0 55.05304797962731 L 10 55.05304797962731 L 10 56.55304797962731 L 0 56.55304797962731 Z " stroke="none" fill-rule="evenodd" fill="#000000" fill-opacity="1" transform="matrix(1,0,0,1,5.05,13.314)" id="mark44 l" />
  <path d="M 0 45.75253998302276 L 25 45.75253998302276 L 25 47.25253998302276 L 0 47.25253998302276 Z " stroke="none" fill-rule="evenodd" fill="#000000" fill-opacity="1" transform="matrix(1,0,0,1,5.05,13.314)" id="mark45 l" />
  <path d="M 11.748 42.98653998302276 L 11.748 42.110539983022754 L 12.463999999999999 40.23053998302276 L 13.503999999999998 40.23053998302276 L 12.78 42.06253998302276 L 13.18 42.06253998302276 L 13.18 42.98653998302276 Z M 13.684 44.670539983022756 L 13.684 38.27053998302276 L 14.691999999999998 38.27053998302276 L 14.691999999999998 44.670539983022756 Z M 15.195999999999998 42.98653998302276 L 15.195999999999998 42.06253998302276 L 15.663999999999998 42.06253998302276 L 15.663999999999998 42.98653998302276 Z M 16.18 43.25453998302276 C 16.174666666666667 43.08120664968942, 16.173333333333332 42.94187331635609, 16.176 42.83653998302275 C 16.178666666666665 42.731206649689426, 16.181333333333335 42.62920664968942, 16.183999999999997 42.530539983022756 L 17.264 42.530539983022756 C 17.256 42.60787331635609, 17.25 42.70387331635609, 17.246 42.81853998302276 C 17.241999999999997 42.933206649689424, 17.240666666666666 43.043873316356084, 17.241999999999997 43.15053998302275 C 17.243333333333332 43.25720664968942, 17.246666666666666 43.33720664968942, 17.252 43.390539983022755 C 17.262666666666668 43.51053998302275, 17.297333333333334 43.60853998302276, 17.355999999999998 43.68453998302276 C 17.414666666666665 43.76053998302276, 17.497333333333334 43.814539983022755, 17.604 43.84653998302276 L 17.604 44.738539983022754 C 17.110666666666663 44.701206649689425, 16.75333333333333 44.56653998302276, 16.532 44.33453998302276 C 16.310666666666666 44.10253998302276, 16.19333333333333 43.74253998302276, 16.18 43.25453998302276 Z M 16.279999999999998 41.918539983022754 L 16.279999999999998 38.27053998302276 L 17.348 38.27053998302276 L 17.348 41.918539983022754 Z M 17.852 41.494539983022754 L 17.852 40.738539983022754 C 17.929333333333332 40.698539983022755, 18.014666666666667 40.66653998302276, 18.107999999999997 40.64253998302276 C 18.20133333333333 40.61853998302276, 18.301333333333332 40.606539983022756, 18.407999999999998 40.606539983022756 C 18.773333333333333 40.606539983022756, 19.047333333333334 40.72187331635609, 19.23 40.95253998302276 C 19.412666666666667 41.183206649689424, 19.514666666666663 41.49720664968942, 19.535999999999998 41.89453998302275 C 19.546666666666667 42.05453998302275, 19.55333333333333 42.213206649689425, 19.555999999999997 42.37053998302276 C 19.558666666666664 42.52787331635609, 19.557333333333332 42.68120664968942, 19.552 42.83053998302275 C 19.546666666666667 42.97987331635609, 19.538666666666668 43.11987331635609, 19.528 43.250539983022755 C 19.482666666666667 43.74920664968943, 19.353333333333335 44.11453998302276, 19.14 44.34653998302276 C 18.926666666666666 44.57853998302276, 18.581333333333333 44.70920664968942, 18.104 44.738539983022754 L 18.104 43.84653998302276 C 18.21333333333333 43.817206649689425, 18.296 43.76453998302276, 18.352 43.68853998302276 C 18.408 43.61253998302276, 18.44 43.51320664968942, 18.448 43.390539983022755 C 18.471999999999998 43.09987331635609, 18.485999999999997 42.838539983022756, 18.49 42.606539983022756 C 18.494 42.37453998302276, 18.485333333333333 42.15320664968942, 18.464 41.942539983022755 C 18.447999999999997 41.78787331635609, 18.396666666666665 41.67253998302276, 18.31 41.59653998302276 C 18.223333333333333 41.52053998302276, 18.090666666666664 41.482539983022754, 17.912 41.482539983022754 C 17.901333333333334 41.482539983022754, 17.890666666666668 41.48387331635609, 17.88 41.48653998302276 C 17.86933333333333 41.48920664968942, 17.86 41.49187331635609, 17.852 41.494539983022754 Z M 17.852 39.20253998302276 L 17.852 38.27053998302276 L 19.439999999999998 38.27053998302276 L 19.439999999999998 39.20253998302276 Z M 21.944 44.670539983022756 L 21.944 38.27053998302276 L 23.003999999999998 38.27053998302276 L 23.003999999999998 44.670539983022756 Z " stroke="none" fill-rule="nonzero" fill="#000000" fill-opacity="1" transform="matrix(1,0,0,1,5.05,13.314)" id="text45 l" />
  <path d="M 0 36.452031986418206 L 10 36.452031986418206 L 10 37.952031986418206 L 0 37.952031986418206 Z " stroke="none" fill-rule="evenodd" fill="#000000" fill-opacity="1" transform="matrix(1,0,0,1,5.05,13.314)" id="mark46 l" />
  <path d="M 0 27.151523989813654 L 10 27.151523989813654 L 10 28.651523989813654 L 0 28.651523989813654 Z " stroke="none" fill-rule="evenodd" fill="#000000" fill-opacity="1" transform="matrix(1,0,0,1,5.05,13.314)" id="mark47 l" />
  <path d="M 0 17.851015993209103 L 10 17.851015993209103 L 10 19.351015993209103 L 0 19.351015993209103 Z " stroke="none" fill-rule="evenodd" fill="#000000" fill-opacity="1" transform="matrix(1,0,0,1,5.05,13.314)" id="mark48 l" />
  <path d="M 0 8.550507996604551 L 10 8.550507996604551 L 10 10.050507996604551 L 0 10.050507996604551 Z " stroke="none" fill-rule="evenodd" fill="#000000" fill-opacity="1" transform="matrix(1,0,0,1,5.05,13.314)" id="mark49 l" />
  <path d="M 0 -0.75 L 25 -0.75 L 25 0.75 L 0 0.75 Z " stroke="none" fill-rule="evenodd" fill="#000000" fill-opacity="1" transform="matrix(1,0,0,1,5.05,13.314)" id="mark50 l" />
  <path d="M 12.204 -3.2159999999999997 C 12.198666666666668 -3.389333333333333, 12.197333333333333 -3.528666666666667, 12.2 -3.634 C 12.202666666666667 -3.7393333333333336, 12.205333333333336 -3.841333333333333, 12.208 -3.94 L 13.288 -3.94 C 13.280000000000001 -3.8626666666666667, 13.274000000000001 -3.7666666666666666, 13.27 -3.6519999999999997 C 13.265999999999998 -3.5373333333333328, 13.264666666666667 -3.4266666666666667, 13.266 -3.32 C 13.267333333333333 -3.213333333333334, 13.270666666666667 -3.1333333333333337, 13.276 -3.08 C 13.286666666666665 -2.96, 13.321333333333332 -2.862, 13.379999999999999 -2.7859999999999996 C 13.438666666666666 -2.71, 13.521333333333335 -2.6559999999999997, 13.628 -2.6239999999999997 L 13.628 -1.7319999999999998 C 13.134666666666668 -1.7693333333333332, 12.777333333333335 -1.904, 12.556 -2.1359999999999997 C 12.334666666666667 -2.368, 12.217333333333332 -2.7279999999999998, 12.204 -3.2159999999999997 Z M 12.304 -4.552 L 12.304 -8.2 L 13.372 -8.2 L 13.372 -4.552 Z M 13.876 -4.976 L 13.876 -5.731999999999999 C 13.953333333333333 -5.771999999999999, 14.038666666666668 -5.804, 14.132 -5.828 C 14.225333333333333 -5.852, 14.325333333333333 -5.864, 14.432 -5.864 C 14.797333333333334 -5.864, 15.071333333333332 -5.748666666666667, 15.254 -5.518 C 15.436666666666667 -5.287333333333333, 15.538666666666668 -4.973333333333333, 15.56 -4.576 C 15.570666666666668 -4.416, 15.577333333333334 -4.257333333333333, 15.58 -4.1 C 15.582666666666666 -3.9426666666666668, 15.581333333333333 -3.7893333333333334, 15.576 -3.6399999999999997 C 15.570666666666666 -3.490666666666667, 15.562666666666665 -3.3506666666666667, 15.552 -3.2199999999999998 C 15.506666666666668 -2.721333333333333, 15.377333333333333 -2.356, 15.164 -2.1239999999999997 C 14.950666666666667 -1.892, 14.605333333333332 -1.7613333333333332, 14.128 -1.7319999999999998 L 14.128 -2.6239999999999997 C 14.237333333333334 -2.653333333333333, 14.32 -2.7059999999999995, 14.376 -2.782 C 14.432 -2.8579999999999997, 14.464 -2.957333333333333, 14.472 -3.08 C 14.495999999999999 -3.3706666666666667, 14.509999999999998 -3.6319999999999997, 14.514 -3.864 C 14.518 -4.096, 14.509333333333334 -4.317333333333333, 14.488 -4.5280000000000005 C 14.472000000000001 -4.682666666666667, 14.420666666666666 -4.798, 14.334 -4.874 C 14.247333333333334 -4.949999999999999, 14.114666666666666 -4.9879999999999995, 13.936 -4.9879999999999995 C 13.925333333333333 -4.9879999999999995, 13.914666666666665 -4.986666666666666, 13.904 -4.984 C 13.893333333333334 -4.981333333333334, 13.884 -4.978666666666667, 13.876 -4.976 Z M 13.876 -7.268 L 13.876 -8.2 L 15.464 -8.2 L 15.464 -7.268 Z M 16.196 -3.2119999999999997 C 16.188000000000002 -3.641333333333333, 16.182666666666666 -4.058, 16.18 -4.462 C 16.177333333333333 -4.866, 16.177999999999997 -5.261333333333333, 16.182 -5.648 C 16.186 -6.034666666666666, 16.190666666666665 -6.416, 16.196 -6.792 C 16.209333333333333 -7.231999999999999, 16.334000000000003 -7.577333333333334, 16.57 -7.828 C 16.805999999999997 -8.078666666666667, 17.142666666666663 -8.224, 17.58 -8.264 L 17.58 -7.3759999999999994 C 17.382666666666665 -7.32, 17.281333333333333 -7.190666666666667, 17.276 -6.9879999999999995 C 17.262666666666668 -6.617333333333333, 17.253333333333334 -6.269333333333333, 17.248 -5.944 C 17.242666666666665 -5.618666666666666, 17.24 -5.302, 17.24 -4.994 C 17.24 -4.686, 17.242666666666665 -4.371333333333333, 17.248 -4.05 C 17.253333333333334 -3.7286666666666664, 17.262666666666668 -3.3853333333333326, 17.276 -3.0199999999999996 C 17.281333333333333 -2.812, 17.382666666666665 -2.6799999999999997, 17.58 -2.6239999999999997 L 17.58 -1.7359999999999998 C 17.142666666666663 -1.7759999999999998, 16.805999999999997 -1.9219999999999997, 16.57 -2.174 C 16.334000000000003 -2.4259999999999997, 16.209333333333333 -2.772, 16.196 -3.2119999999999997 Z M 18.084 -1.7359999999999998 L 18.084 -2.6279999999999997 C 18.268 -2.681333333333333, 18.366666666666667 -2.8053333333333335, 18.38 -3 C 18.398666666666667 -3.4666666666666663, 18.410666666666668 -3.915333333333333, 18.416 -4.346 C 18.421333333333333 -4.776666666666666, 18.421333333333333 -5.207333333333333, 18.416 -5.638 C 18.410666666666668 -6.068666666666666, 18.398666666666667 -6.521333333333333, 18.38 -6.9959999999999996 C 18.374666666666666 -7.190666666666667, 18.276 -7.317333333333334, 18.084 -7.3759999999999994 L 18.084 -8.264 C 18.513333333333335 -8.224, 18.846666666666668 -8.078666666666667, 19.084 -7.828 C 19.321333333333335 -7.577333333333334, 19.445333333333334 -7.231999999999999, 19.456 -6.792 C 19.46666666666667 -6.477333333333332, 19.474666666666668 -6.167333333333333, 19.48 -5.861999999999999 C 19.485333333333333 -5.556666666666667, 19.488 -5.256, 19.488 -4.96 C 19.488 -4.664, 19.485333333333333 -4.370666666666667, 19.48 -4.08 C 19.474666666666668 -3.7893333333333334, 19.46666666666667 -3.5, 19.456 -3.2119999999999997 C 19.439999999999998 -2.761333333333333, 19.311999999999998 -2.4126666666666665, 19.072 -2.166 C 18.832 -1.9193333333333331, 18.502666666666666 -1.7759999999999998, 18.084 -1.7359999999999998 Z M 21.944 -1.7999999999999998 L 21.944 -8.2 L 23.003999999999998 -8.2 L 23.003999999999998 -1.7999999999999998 Z " stroke="none" fill-rule="nonzero" fill="#000000" fill-opacity="1" transform="matrix(1,0,0,1,5.05,13.314)" id="text50 l" />
  <path d="M -5 -13.264 L 30 -13.264 L 30 462.4928918336229 L -5 462.4928918336229 Z " stroke="#FF0000" stroke-opacity="1" stroke-width="0.1" stroke-linecap="butt" stroke-linejoin="miter" fill="none" transform="matrix(1,0,0,1,5.05,13.314)" />
</svg>