<?xml version="1.0" encoding="UTF-8"?>
<svg xmlns:xlink="http://www.w3.org/1999/xlink" viewBox="0 0 35.1 484.44399131481964" version="1.1" style="font-synthesis: none;" width="35.1mm" height="484.44399131481964mm" xmlns="http://www.w3.org/2000/svg">
  <defs />
  <style>	</style>
  <path d="M 0 0 L 35.1 0 L 35.1 484.44399131481964 L 0 484.44399131481964 Z " stroke="none" fill-rule="nonzero" fill="#FFFFFF" fill-opacity="1" transform="matrix(1,0,0,1,0,0)" />
  <path d="M 0 463.56199131481964 L 10 463.56199131481964 L 10 465.06199131481964 L 0 465.06199131481964 Z " stroke="none" fill-rule="evenodd" fill="#000000" fill-opacity="1" transform="matrix(1,0,0,1,5.05,13.314)" id="mark1 l" />
  <path d="M 0 447.55123299361895 L 10 447.55123299361895 L 10 449.05123299361895 L 0 449.05123299361895 Z " stroke="none" fill-rule="evenodd" fill="#000000" fill-opacity="1" transform="matrix(1,0,0,1,5.05,13.314)" id="mark2 l" />
  <path d="M 0 431.54047467241827 L 10 431.54047467241827 L 10 433.04047467241827 L 0 433.04047467241827 Z " stroke="none" fill-rule="evenodd" fill="#000000" fill-opacity="1" transform="matrix(1,0,0,1,5.05,13.314)" id="mark3 l" />
  <path d="M 0 415.5297163512176 L 10 415.5297163512176 L 10 417.0297163512176 L 0 417.0297163512176 Z " stroke="none" fill-rule="evenodd" fill="#000000" fill-opacity="1" transform="matrix(1,0,0,1,5.05,13.314)" id="mark4 l" />
  <path d="M 0 399.51895803001696 L 25 399.51895803001696 L 25 401.01895803001696 L 0 401.01895803001696 Z " stroke="none" fill-rule="evenodd" fill="#000000" fill-opacity="1" transform="matrix(1,0,0,1,5.05,13.314)" id="mark5 l" />
  <path d="M 16.18 397.02095803001697 C 16.174666666666667 396.8476246966836, 16.173333333333332 396.7082913633503, 16.176 396.60295803001696 C 16.178666666666665 396.4976246966836, 16.181333333333335 396.3956246966836, 16.183999999999997 396.296958030017 L 17.264 396.296958030017 C 17.256 396.3742913633503, 17.25 396.4702913633503, 17.246 396.584958030017 C 17.241999999999997 396.69962469668366, 17.240666666666666 396.8102913633503, 17.241999999999997 396.916958030017 C 17.243333333333332 397.02362469668367, 17.246666666666666 397.1036246966836, 17.252 397.156958030017 C 17.262666666666668 397.276958030017, 17.297333333333334 397.37495803001696, 17.355999999999998 397.450958030017 C 17.414666666666665 397.526958030017, 17.497333333333334 397.580958030017, 17.604 397.61295803001696 L 17.604 398.50495803001695 C 17.110666666666663 398.46762469668363, 16.75333333333333 398.3329580300169, 16.532 398.10095803001695 C 16.310666666666666 397.868958030017, 16.19333333333333 397.50895803001697, 16.18 397.02095803001697 Z M 16.279999999999998 395.68495803001696 L 16.279999999999998 392.036958030017 L 17.348 392.036958030017 L 17.348 395.68495803001696 Z M 17.852 395.260958030017 L 17.852 394.50495803001695 C 17.929333333333332 394.464958030017, 18.014666666666667 394.43295803001695, 18.107999999999997 394.40895803001695 C 18.20133333333333 394.38495803001695, 18.301333333333332 394.372958030017, 18.407999999999998 394.37295803001695 C 18.773333333333333 394.372958030017, 19.047333333333334 394.4882913633503, 19.23 394.71895803001695 C 19.412666666666667 394.9496246966836, 19.514666666666663 395.26362469668356, 19.535999999999998 395.66095803001696 C 19.546666666666667 395.820958030017, 19.55333333333333 395.97962469668363, 19.555999999999997 396.13695803001696 C 19.558666666666664 396.2942913633503, 19.557333333333332 396.44762469668365, 19.552 396.596958030017 C 19.546666666666667 396.74629136335034, 19.538666666666668 396.8862913633503, 19.528 397.01695803001695 C 19.482666666666667 397.51562469668363, 19.353333333333335 397.8809580300169, 19.14 398.11295803001696 C 18.926666666666666 398.344958030017, 18.581333333333333 398.4756246966836, 18.104 398.50495803001695 L 18.104 397.61295803001696 C 18.21333333333333 397.5836246966836, 18.296 397.530958030017, 18.352 397.45495803001694 C 18.408 397.378958030017, 18.44 397.27962469668364, 18.448 397.156958030017 C 18.471999999999998 396.86629136335034, 18.485999999999997 396.604958030017, 18.49 396.37295803001695 C 18.494 396.140958030017, 18.485333333333333 395.9196246966836, 18.464 395.70895803001696 C 18.447999999999997 395.55429136335033, 18.396666666666665 395.4389580300169, 18.31 395.36295803001696 C 18.223333333333333 395.286958030017, 18.090666666666664 395.248958030017, 17.912 395.248958030017 C 17.901333333333334 395.248958030017, 17.890666666666668 395.2502913633503, 17.88 395.25295803001694 C 17.86933333333333 395.25562469668364, 17.86 395.2582913633503, 17.852 395.260958030017 Z M 17.852 392.96895803001695 L 17.852 392.036958030017 L 19.439999999999998 392.036958030017 L 19.439999999999998 392.96895803001695 Z M 21.944 398.43695803001697 L 21.944 392.036958030017 L 23.003999999999998 392.036958030017 L 23.003999999999998 398.43695803001697 Z " stroke="none" fill-rule="nonzero" fill="#000000" fill-opacity="1" transform="matrix(1,0,0,1,5.05,13.314)" id="text5 l" />
  <path d="M 0 383.5081997088163 L 10 383.5081997088163 L 10 385.0081997088163 L 0 385.0081997088163 Z " stroke="none" fill-rule="evenodd" fill="#000000" fill-opacity="1" transform="matrix(1,0,0,1,5.05,13.314)" id="mark6 l" />
  <path d="M 0 367.4974413876156 L 10 367.4974413876156 L 10 368.9974413876156 L 0 368.9974413876156 Z " stroke="none" fill-rule="evenodd" fill="#000000" fill-opacity="1" transform="matrix(1,0,0,1,5.05,13.314)" id="mark7 l" />
  <path d="M 0 351.4866830664149 L 10 351.4866830664149 L 10 352.9866830664149 L 0 352.9866830664149 Z " stroke="none" fill-rule="evenodd" fill="#000000" fill-opacity="1" transform="matrix(1,0,0,1,5.05,13.314)" id="mark8 l" />
  <path d="M 0 335.47592474521423 L 10 335.47592474521423 L 10 336.97592474521423 L 0 336.97592474521423 Z " stroke="none" fill-rule="evenodd" fill="#000000" fill-opacity="1" transform="matrix(1,0,0,1,5.05,13.314)" id="mark9 l" />
  <path d="M 0 319.46516642401355 L 25 319.46516642401355 L 25 320.96516642401355 L 0 320.96516642401355 Z " stroke="none" fill-rule="evenodd" fill="#000000" fill-opacity="1" transform="matrix(1,0,0,1,5.05,13.314)" id="mark10 l" />
  <path d="M 14.323999999999998 318.41516642401353 L 14.323999999999998 312.9711664240135 L 13.871999999999998 312.9711664240135 L 13.839999999999998 312.5911664240135 L 14.543999999999999 312.01516642401356 L 15.424 312.01516642401356 L 15.424 318.41516642401353 Z M 16.196 317.00316642401356 C 16.188000000000002 316.57383309068024, 16.182666666666666 316.15716642401355, 16.18 315.75316642401356 C 16.177333333333333 315.34916642401356, 16.177999999999997 314.95383309068023, 16.182 314.5671664240135 C 16.186 314.18049975734687, 16.190666666666665 313.7991664240135, 16.196 313.4231664240135 C 16.209333333333333 312.9831664240136, 16.334000000000003 312.6378330906802, 16.57 312.3871664240135 C 16.805999999999997 312.1364997573469, 17.142666666666663 311.99116642401356, 17.58 311.95116642401354 L 17.58 312.8391664240135 C 17.382666666666665 312.8951664240135, 17.281333333333333 313.02449975734686, 17.276 313.22716642401355 C 17.262666666666668 313.5978330906802, 17.253333333333334 313.9458330906802, 17.248 314.27116642401353 C 17.242666666666665 314.59649975734686, 17.24 314.9131664240135, 17.24 315.2211664240135 C 17.24 315.5291664240135, 17.242666666666665 315.84383309068016, 17.248 316.16516642401353 C 17.253333333333334 316.4864997573469, 17.262666666666668 316.8298330906802, 17.276 317.1951664240135 C 17.281333333333333 317.40316642401353, 17.382666666666665 317.53516642401354, 17.58 317.5911664240135 L 17.58 318.47916642401356 C 17.142666666666663 318.4391664240136, 16.805999999999997 318.2931664240135, 16.57 318.0411664240135 C 16.334000000000003 317.7891664240135, 16.209333333333333 317.44316642401355, 16.196 317.00316642401356 Z M 18.084 318.47916642401356 L 18.084 317.58716642401356 C 18.268 317.5338330906802, 18.366666666666667 317.4098330906802, 18.38 317.21516642401355 C 18.398666666666667 316.74849975734685, 18.410666666666668 316.2998330906802, 18.416 315.86916642401354 C 18.421333333333333 315.4384997573469, 18.421333333333333 315.0078330906802, 18.416 314.5771664240135 C 18.410666666666668 314.1464997573469, 18.398666666666667 313.6938330906802, 18.38 313.2191664240135 C 18.374666666666666 313.02449975734686, 18.276 312.8978330906802, 18.084 312.8391664240135 L 18.084 311.95116642401354 C 18.513333333333335 311.99116642401356, 18.846666666666668 312.1364997573469, 19.084 312.3871664240135 C 19.321333333333335 312.6378330906802, 19.445333333333334 312.9831664240136, 19.456 313.4231664240135 C 19.46666666666667 313.73783309068017, 19.474666666666668 314.04783309068023, 19.48 314.3531664240135 C 19.485333333333333 314.6584997573469, 19.488 314.9591664240135, 19.488 315.2551664240135 C 19.488 315.5511664240135, 19.485333333333333 315.84449975734685, 19.48 316.13516642401356 C 19.474666666666668 316.4258330906802, 19.46666666666667 316.71516642401355, 19.456 317.00316642401356 C 19.439999999999998 317.45383309068023, 19.311999999999998 317.8024997573469, 19.072 318.04916642401355 C 18.832 318.2958330906802, 18.502666666666666 318.4391664240136, 18.084 318.47916642401356 Z M 21.944 318.41516642401353 L 21.944 312.01516642401356 L 23.003999999999998 312.01516642401356 L 23.003999999999998 318.41516642401353 Z " stroke="none" fill-rule="nonzero" fill="#000000" fill-opacity="1" transform="matrix(1,0,0,1,5.05,13.314)" id="text10 l" />
  <path d="M 0 303.45440810281286 L 10 303.45440810281286 L 10 304.95440810281286 L 0 304.95440810281286 Z " stroke="none" fill-rule="evenodd" fill="#000000" fill-opacity="1" transform="matrix(1,0,0,1,5.05,13.314)" id="mark11 l" />
  <path d="M 0 287.4436497816122 L 10 287.4436497816122 L 10 288.9436497816122 L 0 288.9436497816122 Z " stroke="none" fill-rule="evenodd" fill="#000000" fill-opacity="1" transform="matrix(1,0,0,1,5.05,13.314)" id="mark12 l" />
  <path d="M 0 271.4328914604115 L 10 271.4328914604115 L 10 272.9328914604115 L 0 272.9328914604115 Z " stroke="none" fill-rule="evenodd" fill="#000000" fill-opacity="1" transform="matrix(1,0,0,1,5.05,13.314)" id="mark13 l" />
  <path d="M 0 255.4221331392108 L 10 255.4221331392108 L 10 256.9221331392108 L 0 256.9221331392108 Z " stroke="none" fill-rule="evenodd" fill="#000000" fill-opacity="1" transform="matrix(1,0,0,1,5.05,13.314)" id="mark14 l" />
  <path d="M 0 239.41137481801016 L 25 239.41137481801016 L 25 240.91137481801016 L 0 240.91137481801016 Z " stroke="none" fill-rule="evenodd" fill="#000000" fill-opacity="1" transform="matrix(1,0,0,1,5.05,13.314)" id="mark15 l" />
  <path d="M 14.331999999999999 238.32937481801017 L 14.331999999999999 232.88537481801018 L 13.879999999999999 232.88537481801018 L 13.847999999999999 232.50537481801015 L 14.552 231.92937481801016 L 15.432 231.92937481801016 L 15.432 238.32937481801017 Z M 16.18 236.91337481801017 C 16.174666666666667 236.74004148467685, 16.173333333333332 236.6007081513435, 16.176 236.49537481801016 C 16.178666666666665 236.39004148467683, 16.181333333333335 236.28804148467685, 16.183999999999997 236.18937481801018 L 17.264 236.18937481801018 C 17.256 236.2667081513435, 17.25 236.3627081513435, 17.246 236.47737481801016 C 17.241999999999997 236.59204148467683, 17.240666666666666 236.7027081513435, 17.241999999999997 236.80937481801016 C 17.243333333333332 236.9160414846768, 17.246666666666666 236.99604148467682, 17.252 237.04937481801016 C 17.262666666666668 237.16937481801017, 17.297333333333334 237.26737481801018, 17.355999999999998 237.34337481801018 C 17.414666666666665 237.41937481801017, 17.497333333333334 237.47337481801014, 17.604 237.50537481801015 L 17.604 238.39737481801018 C 17.110666666666663 238.36004148467683, 16.75333333333333 238.22537481801015, 16.532 237.99337481801015 C 16.310666666666666 237.76137481801015, 16.19333333333333 237.40137481801014, 16.18 236.91337481801017 Z M 16.279999999999998 235.57737481801016 L 16.279999999999998 231.92937481801016 L 17.348 231.92937481801016 L 17.348 235.57737481801016 Z M 17.852 235.15337481801018 L 17.852 234.39737481801018 C 17.929333333333332 234.35737481801016, 18.014666666666667 234.32537481801018, 18.107999999999997 234.30137481801017 C 18.20133333333333 234.27737481801017, 18.301333333333332 234.26537481801017, 18.407999999999998 234.26537481801017 C 18.773333333333333 234.26537481801017, 19.047333333333334 234.3807081513435, 19.23 234.61137481801018 C 19.412666666666667 234.84204148467686, 19.514666666666663 235.15604148467685, 19.535999999999998 235.55337481801016 C 19.546666666666667 235.71337481801015, 19.55333333333333 235.8720414846768, 19.555999999999997 236.02937481801015 C 19.558666666666664 236.1867081513435, 19.557333333333332 236.34004148467682, 19.552 236.48937481801016 C 19.546666666666667 236.6387081513435, 19.538666666666668 236.7787081513435, 19.528 236.90937481801018 C 19.482666666666667 237.40804148467686, 19.353333333333335 237.77337481801015, 19.14 238.00537481801015 C 18.926666666666666 238.23737481801015, 18.581333333333333 238.36804148467684, 18.104 238.39737481801018 L 18.104 237.50537481801015 C 18.21333333333333 237.47604148467684, 18.296 237.4233748180102, 18.352 237.34737481801017 C 18.408 237.27137481801014, 18.44 237.1720414846768, 18.448 237.04937481801016 C 18.471999999999998 236.7587081513435, 18.485999999999997 236.49737481801017, 18.49 236.26537481801017 C 18.494 236.03337481801017, 18.485333333333333 235.81204148467685, 18.464 235.60137481801016 C 18.447999999999997 235.4467081513435, 18.396666666666665 235.33137481801015, 18.31 235.25537481801015 C 18.223333333333333 235.17937481801016, 18.090666666666664 235.14137481801015, 17.912 235.14137481801018 C 17.901333333333334 235.14137481801015, 17.890666666666668 235.1427081513435, 17.88 235.14537481801017 C 17.86933333333333 235.14804148467684, 17.86 235.1507081513435, 17.852 235.15337481801018 Z M 17.852 232.86137481801018 L 17.852 231.92937481801016 L 19.439999999999998 231.92937481801016 L 19.439999999999998 232.86137481801018 Z M 21.944 238.32937481801017 L 21.944 231.92937481801016 L 23.003999999999998 231.92937481801016 L 23.003999999999998 238.32937481801017 Z " stroke="none" fill-rule="nonzero" fill="#000000" fill-opacity="1" transform="matrix(1,0,0,1,5.05,13.314)" id="text15 l" />
  <path d="M 0 223.40061649680945 L 10 223.40061649680945 L 10 224.90061649680945 L 0 224.90061649680945 Z " stroke="none" fill-rule="evenodd" fill="#000000" fill-opacity="1" transform="matrix(1,0,0,1,5.05,13.314)" id="mark16 l" />
  <path d="M 0 207.38985817560877 L 10 207.38985817560877 L 10 208.88985817560877 L 0 208.88985817560877 Z " stroke="none" fill-rule="evenodd" fill="#000000" fill-opacity="1" transform="matrix(1,0,0,1,5.05,13.314)" id="mark17 l" />
  <path d="M 0 191.37909985440814 L 10 191.37909985440814 L 10 192.87909985440814 L 0 192.87909985440814 Z " stroke="none" fill-rule="evenodd" fill="#000000" fill-opacity="1" transform="matrix(1,0,0,1,5.05,13.314)" id="mark18 l" />
  <path d="M 0 175.36834153320746 L 10 175.36834153320746 L 10 176.86834153320746 L 0 176.86834153320746 Z " stroke="none" fill-rule="evenodd" fill="#000000" fill-opacity="1" transform="matrix(1,0,0,1,5.05,13.314)" id="mark19 l" />
  <path d="M 0 159.35758321200677 L 25 159.35758321200677 L 25 160.85758321200677 L 0 160.85758321200677 Z " stroke="none" fill-rule="evenodd" fill="#000000" fill-opacity="1" transform="matrix(1,0,0,1,5.05,13.314)" id="mark20 l" />
  <path d="M 12.319999999999999 158.3075832120068 C 12.317333333333334 158.20891654534012, 12.315333333333331 158.12024987867346, 12.313999999999998 158.0415832120068 C 12.312666666666665 157.96291654534014, 12.311333333333334 157.88891654534012, 12.309999999999999 157.8195832120068 C 12.308666666666667 157.75024987867346, 12.308 157.67824987867345, 12.308 157.60358321200678 C 12.308 157.5289165453401, 12.308 157.44424987867347, 12.308 157.3495832120068 C 12.308 157.2549165453401, 12.309333333333335 157.14358321200677, 12.312 157.0155832120068 C 12.32 156.72224987867344, 12.37 156.46024987867344, 12.462 156.2295832120068 C 12.554 155.99891654534014, 12.687999999999999 155.79291654534012, 12.863999999999999 155.6115832120068 C 13.04 155.43024987867346, 13.257333333333333 155.26891654534012, 13.515999999999998 155.12758321200678 L 14.047999999999998 154.8395832120068 C 14.234666666666666 154.73824987867346, 14.354 154.61624987867344, 14.405999999999999 154.4735832120068 C 14.457999999999998 154.33091654534013, 14.488 154.19691654534012, 14.495999999999999 154.0715832120068 C 14.506666666666664 153.92491654534012, 14.512666666666664 153.76824987867346, 14.514 153.6015832120068 C 14.51533333333333 153.43491654534014, 14.511999999999997 153.27824987867348, 14.504 153.1315832120068 C 14.498666666666665 153.0275832120068, 14.468666666666666 152.9415832120068, 14.413999999999998 152.8735832120068 C 14.359333333333332 152.80558321200678, 14.279999999999998 152.75691654534012, 14.175999999999998 152.72758321200678 L 14.175999999999998 151.8395832120068 C 14.663999999999998 151.8715832120068, 15.014 152.00291654534013, 15.225999999999999 152.23358321200678 C 15.437999999999999 152.46424987867346, 15.554666666666666 152.82491654534013, 15.575999999999999 153.3155832120068 C 15.578666666666663 153.3795832120068, 15.580666666666666 153.44491654534013, 15.581999999999999 153.5115832120068 C 15.583333333333332 153.57824987867346, 15.584 153.6429165453401, 15.584 153.7055832120068 C 15.584 153.76824987867346, 15.583333333333332 153.83024987867344, 15.581999999999999 153.8915832120068 C 15.580666666666666 153.95291654534012, 15.578666666666663 154.01291654534012, 15.575999999999999 154.0715832120068 C 15.565333333333331 154.35691654534014, 15.512 154.6035832120068, 15.415999999999999 154.81158321200678 C 15.32 155.0195832120068, 15.19 155.19958321200681, 15.026 155.3515832120068 C 14.862 155.5035832120068, 14.672 155.63958321200678, 14.456 155.7595832120068 L 13.851999999999999 156.0875832120068 C 13.737333333333332 156.14891654534011, 13.647333333333332 156.23291654534012, 13.581999999999999 156.3395832120068 C 13.516666666666666 156.44624987867346, 13.469999999999999 156.5595832120068, 13.441999999999998 156.67958321200678 C 13.413999999999998 156.79958321200678, 13.399999999999999 156.9115832120068, 13.399999999999999 157.0155832120068 L 13.399999999999999 158.3075832120068 Z M 12.328 154.2675832120068 C 12.322666666666667 154.15024987867343, 12.318666666666665 154.03558321200677, 12.315999999999999 153.9235832120068 C 12.313333333333333 153.81158321200678, 12.311333333333334 153.7055832120068, 12.309999999999999 153.6055832120068 C 12.308666666666667 153.5055832120068, 12.309333333333335 153.40891654534013, 12.312 153.3155832120068 C 12.330666666666666 152.8275832120068, 12.447333333333333 152.46824987867348, 12.661999999999999 152.2375832120068 C 12.876666666666665 152.00691654534012, 13.213333333333331 151.87424987867345, 13.671999999999999 151.8395832120068 L 13.671999999999999 152.7315832120068 C 13.576 152.76091654534014, 13.505333333333333 152.8075832120068, 13.459999999999999 152.87158321200678 C 13.414666666666665 152.93558321200678, 13.390666666666664 153.01291654534012, 13.387999999999998 153.10358321200678 C 13.382666666666665 153.31158321200678, 13.379333333333333 153.50491654534014, 13.378 153.6835832120068 C 13.376666666666667 153.86224987867345, 13.381333333333334 154.05691654534013, 13.392 154.2675832120068 Z M 13.904 158.3075832120068 L 13.904 157.3755832120068 L 15.5 157.3755832120068 L 15.5 158.3075832120068 Z M 16.196 156.89558321200678 C 16.188000000000002 156.46624987867344, 16.182666666666666 156.04958321200678, 16.18 155.64558321200678 C 16.177333333333333 155.2415832120068, 16.177999999999997 154.84624987867346, 16.182 154.45958321200678 C 16.186 154.07291654534012, 16.190666666666665 153.6915832120068, 16.196 153.3155832120068 C 16.209333333333333 152.8755832120068, 16.334000000000003 152.5302498786735, 16.57 152.2795832120068 C 16.805999999999997 152.0289165453401, 17.142666666666663 151.88358321200678, 17.58 151.8435832120068 L 17.58 152.7315832120068 C 17.382666666666665 152.78758321200678, 17.281333333333333 152.91691654534014, 17.276 153.1195832120068 C 17.262666666666668 153.49024987867347, 17.253333333333334 153.83824987867345, 17.248 154.16358321200678 C 17.242666666666665 154.48891654534012, 17.24 154.80558321200678, 17.24 155.1135832120068 C 17.24 155.4215832120068, 17.242666666666665 155.73624987867345, 17.248 156.0575832120068 C 17.253333333333334 156.37891654534013, 17.262666666666668 156.72224987867344, 17.276 157.0875832120068 C 17.281333333333333 157.29558321200682, 17.382666666666665 157.4275832120068, 17.58 157.48358321200678 L 17.58 158.37158321200678 C 17.142666666666663 158.33158321200676, 16.805999999999997 158.18558321200678, 16.57 157.9335832120068 C 16.334000000000003 157.68158321200679, 16.209333333333333 157.33558321200678, 16.196 156.89558321200678 Z M 18.084 158.37158321200678 L 18.084 157.4795832120068 C 18.268 157.42624987867347, 18.366666666666667 157.30224987867348, 18.38 157.1075832120068 C 18.398666666666667 156.64091654534013, 18.410666666666668 156.19224987867346, 18.416 155.7615832120068 C 18.421333333333333 155.33091654534013, 18.421333333333333 154.90024987867346, 18.416 154.4695832120068 C 18.410666666666668 154.03891654534013, 18.398666666666667 153.58624987867347, 18.38 153.1115832120068 C 18.374666666666666 152.91691654534014, 18.276 152.79024987867348, 18.084 152.7315832120068 L 18.084 151.8435832120068 C 18.513333333333335 151.88358321200678, 18.846666666666668 152.0289165453401, 19.084 152.2795832120068 C 19.321333333333335 152.5302498786735, 19.445333333333334 152.8755832120068, 19.456 153.3155832120068 C 19.46666666666667 153.63024987867345, 19.474666666666668 153.94024987867346, 19.48 154.24558321200678 C 19.485333333333333 154.5509165453401, 19.488 154.85158321200677, 19.488 155.1475832120068 C 19.488 155.44358321200679, 19.485333333333333 155.7369165453401, 19.48 156.0275832120068 C 19.474666666666668 156.31824987867347, 19.46666666666667 156.6075832120068, 19.456 156.89558321200678 C 19.439999999999998 157.34624987867346, 19.311999999999998 157.69491654534013, 19.072 157.94158321200678 C 18.832 158.18824987867345, 18.502666666666666 158.33158321200676, 18.084 158.37158321200678 Z M 21.944 158.3075832120068 L 21.944 151.90758321200678 L 23.003999999999998 151.90758321200678 L 23.003999999999998 158.3075832120068 Z " stroke="none" fill-rule="nonzero" fill="#000000" fill-opacity="1" transform="matrix(1,0,0,1,5.05,13.314)" id="text20 l" />
  <path d="M 0 143.3468248908061 L 10 143.3468248908061 L 10 144.8468248908061 L 0 144.8468248908061 Z " stroke="none" fill-rule="evenodd" fill="#000000" fill-opacity="1" transform="matrix(1,0,0,1,5.05,13.314)" id="mark21 l" />
  <path d="M 0 127.3360665696054 L 10 127.3360665696054 L 10 128.8360665696054 L 0 128.8360665696054 Z " stroke="none" fill-rule="evenodd" fill="#000000" fill-opacity="1" transform="matrix(1,0,0,1,5.05,13.314)" id="mark22 l" />
  <path d="M 0 111.32530824840472 L 10 111.32530824840472 L 10 112.82530824840472 L 0 112.82530824840472 Z " stroke="none" fill-rule="evenodd" fill="#000000" fill-opacity="1" transform="matrix(1,0,0,1,5.05,13.314)" id="mark23 l" />
  <path d="M 0 95.31454992720404 L 10 95.31454992720404 L 10 96.81454992720404 L 0 96.81454992720404 Z " stroke="none" fill-rule="evenodd" fill="#000000" fill-opacity="1" transform="matrix(1,0,0,1,5.05,13.314)" id="mark24 l" />
  <path d="M 0 79.30379160600336 L 25 79.30379160600336 L 25 80.80379160600336 L 0 80.80379160600336 Z " stroke="none" fill-rule="evenodd" fill="#000000" fill-opacity="1" transform="matrix(1,0,0,1,5.05,13.314)" id="mark25 l" />
  <path d="M 12.328 78.25379160600336 C 12.325333333333333 78.1551249393367, 12.323333333333332 78.06645827267002, 12.322 77.98779160600336 C 12.320666666666666 77.90912493933669, 12.319333333333333 77.8351249393367, 12.318 77.76579160600336 C 12.316666666666666 77.69645827267003, 12.315999999999999 77.62445827267003, 12.316 77.54979160600337 C 12.315999999999999 77.4751249393367, 12.315999999999999 77.39045827267003, 12.316 77.29579160600336 C 12.315999999999999 77.2011249393367, 12.317333333333334 77.08979160600336, 12.32 76.96179160600336 C 12.328 76.66845827267002, 12.378 76.40645827267002, 12.47 76.17579160600336 C 12.562000000000001 75.9451249393367, 12.696 75.73912493933669, 12.872 75.55779160600336 C 13.048 75.37645827267002, 13.265333333333334 75.21512493933669, 13.524000000000001 75.07379160600335 L 14.056000000000001 74.78579160600336 C 14.242666666666668 74.68445827267003, 14.362000000000002 74.56245827267003, 14.414 74.41979160600336 C 14.466000000000001 74.27712493933669, 14.495999999999999 74.14312493933669, 14.504 74.01779160600336 C 14.514666666666667 73.8711249393367, 14.520666666666667 73.71445827267003, 14.522 73.54779160600336 C 14.523333333333333 73.38112493933669, 14.520000000000001 73.22445827267002, 14.512 73.07779160600336 C 14.506666666666666 72.97379160600336, 14.476666666666667 72.88779160600336, 14.422 72.81979160600336 C 14.367333333333335 72.75179160600337, 14.288 72.7031249393367, 14.184000000000001 72.67379160600336 L 14.184000000000001 71.78579160600336 C 14.672 71.81779160600335, 15.022000000000002 71.9491249393367, 15.234 72.17979160600336 C 15.446000000000002 72.41045827267003, 15.562666666666667 72.77112493933669, 15.584 73.26179160600336 C 15.586666666666668 73.32579160600335, 15.588666666666668 73.39112493933669, 15.59 73.45779160600335 C 15.591333333333335 73.52445827267003, 15.592000000000002 73.5891249393367, 15.592 73.65179160600336 C 15.592000000000002 73.71445827267003, 15.591333333333335 73.77645827267003, 15.59 73.83779160600336 C 15.588666666666668 73.8991249393367, 15.586666666666668 73.95912493933669, 15.584 74.01779160600336 C 15.573333333333332 74.30312493933668, 15.52 74.54979160600335, 15.424 74.75779160600337 C 15.328 74.96579160600336, 15.197999999999999 75.14579160600336, 15.033999999999999 75.29779160600336 C 14.87 75.44979160600336, 14.68 75.58579160600337, 14.464 75.70579160600336 L 13.86 76.03379160600336 C 13.745333333333335 76.0951249393367, 13.655333333333335 76.17912493933669, 13.59 76.28579160600336 C 13.524666666666668 76.39245827267003, 13.478000000000002 76.50579160600336, 13.45 76.62579160600336 C 13.422 76.74579160600337, 13.408 76.85779160600336, 13.408 76.96179160600336 L 13.408 78.25379160600336 Z M 12.336 74.21379160600335 C 12.330666666666666 74.09645827267003, 12.326666666666664 73.98179160600337, 12.324 73.86979160600336 C 12.321333333333332 73.75779160600335, 12.319333333333333 73.65179160600336, 12.318 73.55179160600336 C 12.316666666666666 73.45179160600335, 12.317333333333334 73.35512493933669, 12.32 73.26179160600336 C 12.338666666666668 72.77379160600336, 12.455333333333336 72.41445827267002, 12.67 72.18379160600335 C 12.884666666666668 71.95312493933669, 13.221333333333334 71.82045827267002, 13.68 71.78579160600336 L 13.68 72.67779160600337 C 13.584 72.7071249393367, 13.513333333333332 72.75379160600338, 13.468 72.81779160600337 C 13.422666666666668 72.88179160600336, 13.398666666666667 72.95912493933669, 13.396 73.04979160600337 C 13.390666666666666 73.25779160600337, 13.387333333333332 73.4511249393367, 13.386 73.62979160600337 C 13.384666666666666 73.80845827267004, 13.389333333333333 74.0031249393367, 13.4 74.21379160600335 Z M 13.911999999999999 78.25379160600336 L 13.911999999999999 77.32179160600336 L 15.508 77.32179160600336 L 15.508 78.25379160600336 Z M 16.18 76.83779160600336 C 16.174666666666667 76.66445827267003, 16.173333333333332 76.52512493933669, 16.176 76.41979160600336 C 16.178666666666665 76.31445827267002, 16.181333333333335 76.21245827267002, 16.183999999999997 76.11379160600336 L 17.264 76.11379160600336 C 17.256 76.19112493933669, 17.25 76.28712493933669, 17.246 76.40179160600336 C 17.241999999999997 76.51645827267002, 17.240666666666666 76.6271249393367, 17.241999999999997 76.73379160600336 C 17.243333333333332 76.84045827267003, 17.246666666666666 76.92045827267003, 17.252 76.97379160600336 C 17.262666666666668 77.09379160600336, 17.297333333333334 77.19179160600336, 17.355999999999998 77.26779160600336 C 17.414666666666665 77.34379160600336, 17.497333333333334 77.39779160600337, 17.604 77.42979160600336 L 17.604 78.32179160600336 C 17.110666666666663 78.28445827267004, 16.75333333333333 78.14979160600336, 16.532 77.91779160600336 C 16.310666666666666 77.68579160600336, 16.19333333333333 77.32579160600336, 16.18 76.83779160600336 Z M 16.279999999999998 75.50179160600337 L 16.279999999999998 71.85379160600336 L 17.348 71.85379160600336 L 17.348 75.50179160600337 Z M 17.852 75.07779160600336 L 17.852 74.32179160600336 C 17.929333333333332 74.28179160600335, 18.014666666666667 74.24979160600336, 18.107999999999997 74.22579160600336 C 18.20133333333333 74.20179160600335, 18.301333333333332 74.18979160600335, 18.407999999999998 74.18979160600335 C 18.773333333333333 74.18979160600335, 19.047333333333334 74.30512493933668, 19.23 74.53579160600336 C 19.412666666666667 74.76645827267004, 19.514666666666663 75.08045827267003, 19.535999999999998 75.47779160600336 C 19.546666666666667 75.63779160600336, 19.55333333333333 75.79645827267004, 19.555999999999997 75.95379160600336 C 19.558666666666664 76.11112493933669, 19.557333333333332 76.26445827267003, 19.552 76.41379160600336 C 19.546666666666667 76.56312493933669, 19.538666666666668 76.70312493933669, 19.528 76.83379160600336 C 19.482666666666667 77.33245827267002, 19.353333333333335 77.69779160600336, 19.14 77.92979160600336 C 18.926666666666666 78.16179160600336, 18.581333333333333 78.29245827267002, 18.104 78.32179160600336 L 18.104 77.42979160600336 C 18.21333333333333 77.40045827267004, 18.296 77.34779160600337, 18.352 77.27179160600336 C 18.408 77.19579160600335, 18.44 77.09645827267002, 18.448 76.97379160600336 C 18.471999999999998 76.6831249393367, 18.485999999999997 76.42179160600335, 18.49 76.18979160600335 C 18.494 75.95779160600335, 18.485333333333333 75.73645827267002, 18.464 75.52579160600337 C 18.447999999999997 75.3711249393367, 18.396666666666665 75.25579160600337, 18.31 75.17979160600336 C 18.223333333333333 75.10379160600336, 18.090666666666664 75.06579160600336, 17.912 75.06579160600336 C 17.901333333333334 75.06579160600336, 17.890666666666668 75.0671249393367, 17.88 75.06979160600336 C 17.86933333333333 75.07245827267002, 17.86 75.07512493933669, 17.852 75.07779160600336 Z M 17.852 72.78579160600336 L 17.852 71.85379160600336 L 19.439999999999998 71.85379160600336 L 19.439999999999998 72.78579160600336 Z M 21.944 78.25379160600336 L 21.944 71.85379160600336 L 23.003999999999998 71.85379160600336 L 23.003999999999998 78.25379160600336 Z " stroke="none" fill-rule="nonzero" fill="#000000" fill-opacity="1" transform="matrix(1,0,0,1,5.05,13.314)" id="text25 l" />
  <path d="M 0 63.293033284802675 L 10 63.293033284802675 L 10 64.79303328480268 L 0 64.79303328480268 Z " stroke="none" fill-rule="evenodd" fill="#000000" fill-opacity="1" transform="matrix(1,0,0,1,5.05,13.314)" id="mark26 l" />
  <path d="M 0 47.28227496360199 L 10 47.28227496360199 L 10 48.78227496360199 L 0 48.78227496360199 Z " stroke="none" fill-rule="evenodd" fill="#000000" fill-opacity="1" transform="matrix(1,0,0,1,5.05,13.314)" id="mark27 l" />
  <path d="M 0 31.27151664240131 L 10 31.27151664240131 L 10 32.77151664240131 L 0 32.77151664240131 Z " stroke="none" fill-rule="evenodd" fill="#000000" fill-opacity="1" transform="matrix(1,0,0,1,5.05,13.314)" id="mark28 l" />
  <path d="M 0 15.260758321200626 L 10 15.260758321200626 L 10 16.760758321200626 L 0 16.760758321200626 Z " stroke="none" fill-rule="evenodd" fill="#000000" fill-opacity="1" transform="matrix(1,0,0,1,5.05,13.314)" id="mark29 l" />
  <path d="M 0 -0.75 L 25 -0.75 L 25 0.75 L 0 0.75 Z " stroke="none" fill-rule="evenodd" fill="#000000" fill-opacity="1" transform="matrix(1,0,0,1,5.05,13.314)" id="mark30 l" />
  <path d="M 12.223999999999998 -3.2159999999999997 C 12.221333333333334 -3.317333333333333, 12.219333333333333 -3.4013333333333335, 12.218 -3.468 C 12.216666666666667 -3.5346666666666664, 12.216666666666667 -3.602666666666666, 12.218 -3.6719999999999997 C 12.219333333333333 -3.7413333333333334, 12.221333333333334 -3.8306666666666667, 12.223999999999998 -3.94 L 13.303999999999998 -3.94 L 13.303999999999998 -3.0759999999999996 C 13.303999999999998 -2.8386666666666667, 13.417333333333332 -2.6879999999999997, 13.643999999999998 -2.6239999999999997 L 13.643999999999998 -1.7319999999999998 C 13.155999999999999 -1.7693333333333332, 12.800666666666665 -1.904, 12.578 -2.1359999999999997 C 12.355333333333334 -2.368, 12.237333333333332 -2.7279999999999998, 12.223999999999998 -3.2159999999999997 Z M 12.292 -7.268 L 12.292 -8.2 L 15.536 -8.2 L 15.536 -7.268 Z M 14.143999999999998 -2.6199999999999997 C 14.367999999999999 -2.6759999999999997, 14.483999999999998 -2.826666666666666, 14.491999999999999 -3.072 C 14.497333333333334 -3.2746666666666666, 14.500666666666666 -3.4573333333333336, 14.501999999999999 -3.62 C 14.503333333333332 -3.7826666666666666, 14.498666666666665 -3.94, 14.488 -4.092 C 14.48 -4.2493333333333325, 14.431999999999999 -4.382666666666666, 14.344 -4.492 C 14.256 -4.601333333333333, 14.089333333333332 -4.653333333333332, 13.844 -4.648 L 13.096 -4.64 L 13.068 -5.532 L 14.027999999999999 -6.9159999999999995 L 15.216 -6.9159999999999995 L 14.248 -5.564 L 14.28 -5.564 C 14.712 -5.564, 15.028666666666666 -5.441333333333334, 15.229999999999999 -5.196 C 15.431333333333333 -4.950666666666666, 15.544 -4.573333333333332, 15.568 -4.064 C 15.57333333333333 -3.992, 15.576666666666664 -3.92, 15.578 -3.848 C 15.57933333333333 -3.776, 15.579999999999998 -3.705333333333333, 15.579999999999998 -3.6359999999999997 C 15.579999999999998 -3.5666666666666664, 15.57933333333333 -3.4973333333333336, 15.578 -3.428 C 15.576666666666664 -3.3586666666666662, 15.57333333333333 -3.2879999999999994, 15.568 -3.2159999999999997 C 15.549333333333333 -2.7199999999999998, 15.428666666666665 -2.3553333333333333, 15.206 -2.122 C 14.983333333333334 -1.8886666666666665, 14.630666666666666 -1.7586666666666664, 14.148 -1.7319999999999998 Z M 16.196 -3.2119999999999997 C 16.188000000000002 -3.641333333333333, 16.182666666666666 -4.058, 16.18 -4.462 C 16.177333333333333 -4.866, 16.177999999999997 -5.261333333333333, 16.182 -5.648 C 16.186 -6.034666666666666, 16.190666666666665 -6.416, 16.196 -6.792 C 16.209333333333333 -7.231999999999999, 16.334000000000003 -7.577333333333334, 16.57 -7.828 C 16.805999999999997 -8.078666666666667, 17.142666666666663 -8.224, 17.58 -8.264 L 17.58 -7.3759999999999994 C 17.382666666666665 -7.32, 17.281333333333333 -7.190666666666667, 17.276 -6.9879999999999995 C 17.262666666666668 -6.617333333333333, 17.253333333333334 -6.269333333333333, 17.248 -5.944 C 17.242666666666665 -5.618666666666666, 17.24 -5.302, 17.24 -4.994 C 17.24 -4.686, 17.242666666666665 -4.371333333333333, 17.248 -4.05 C 17.253333333333334 -3.7286666666666664, 17.262666666666668 -3.3853333333333326, 17.276 -3.0199999999999996 C 17.281333333333333 -2.812, 17.382666666666665 -2.6799999999999997, 17.58 -2.6239999999999997 L 17.58 -1.7359999999999998 C 17.142666666666663 -1.7759999999999998, 16.805999999999997 -1.9219999999999997, 16.57 -2.174 C 16.334000000000003 -2.4259999999999997, 16.209333333333333 -2.772, 16.196 -3.2119999999999997 Z M 18.084 -1.7359999999999998 L 18.084 -2.6279999999999997 C 18.268 -2.681333333333333, 18.366666666666667 -2.8053333333333335, 18.38 -3 C 18.398666666666667 -3.4666666666666663, 18.410666666666668 -3.915333333333333, 18.416 -4.346 C 18.421333333333333 -4.776666666666666, 18.421333333333333 -5.207333333333333, 18.416 -5.638 C 18.410666666666668 -6.068666666666666, 18.398666666666667 -6.521333333333333, 18.38 -6.9959999999999996 C 18.374666666666666 -7.190666666666667, 18.276 -7.317333333333334, 18.084 -7.3759999999999994 L 18.084 -8.264 C 18.513333333333335 -8.224, 18.846666666666668 -8.078666666666667, 19.084 -7.828 C 19.321333333333335 -7.577333333333334, 19.445333333333334 -7.231999999999999, 19.456 -6.792 C 19.46666666666667 -6.477333333333332, 19.474666666666668 -6.167333333333333, 19.48 -5.861999999999999 C 19.485333333333333 -5.556666666666667, 19.488 -5.256, 19.488 -4.96 C 19.488 -4.664, 19.485333333333333 -4.370666666666667, 19.48 -4.08 C 19.474666666666668 -3.7893333333333334, 19.46666666666667 -3.5, 19.456 -3.2119999999999997 C 19.439999999999998 -2.761333333333333, 19.311999999999998 -2.4126666666666665, 19.072 -2.166 C 18.832 -1.9193333333333331, 18.502666666666666 -1.7759999999999998, 18.084 -1.7359999999999998 Z M 21.944 -1.7999999999999998 L 21.944 -8.2 L 23.003999999999998 -8.2 L 23.003999999999998 -1.7999999999999998 Z " stroke="none" fill-rule="nonzero" fill="#000000" fill-opacity="1" transform="matrix(1,0,0,1,5.05,13.314)" id="text30 l" />
  <path d="M -5 -13.264 L 30 -13.264 L 30 471.0799913148196 L -5 471.0799913148196 Z " stroke="#FF0000" stroke-opacity="1" stroke-width="0.1" stroke-linecap="butt" stroke-linejoin="miter" fill="none" transform="matrix(1,0,0,1,5.05,13.314)" />
</svg>