<?xml version="1.0" encoding="UTF-8"?>
<svg xmlns:xlink="http://www.w3.org/1999/xlink" viewBox="0 0 40.099999999999994 107.01511279960678" version="1.1" style="font-synthesis: none;" width="40.099999999999994mm" height="107.01511279960678mm" xmlns="http://www.w3.org/2000/svg">
  <defs />
  <style>	</style>
  <path d="M 0 0 L 40.099999999999994 0 L 40.099999999999994 107.01511279960678 L 0 107.01511279960678 Z " stroke="none" fill-rule="nonzero" fill="#FFFFFF" fill-opacity="1" transform="matrix(1,0,0,1,0,0)" />
  <path d="M 0 86.16511279960679 L 10 86.16511279960679 L 10 87.66511279960679 L 0 87.66511279960679 Z " stroke="none" fill-rule="evenodd" fill="#000000" fill-opacity="1" transform="matrix(1,0,0,1,5.05,13.318000000000001)" id="mark2 dl" />
  <path d="M 0 79.47933489194472 L 10 79.47933489194472 L 10 80.97933489194472 L 0 80.97933489194472 Z " stroke="none" fill-rule="evenodd" fill="#000000" fill-opacity="1" transform="matrix(1,0,0,1,5.05,13.318000000000001)" id="mark3 dl" />
  <path d="M 0 72.79355698428266 L 10 72.79355698428266 L 10 74.29355698428266 L 0 74.29355698428266 Z " stroke="none" fill-rule="evenodd" fill="#000000" fill-opacity="1" transform="matrix(1,0,0,1,5.05,13.318000000000001)" id="mark4 dl" />
  <path d="M 0 66.1077790766206 L 30 66.1077790766206 L 30 67.6077790766206 L 0 67.6077790766206 Z " stroke="none" fill-rule="evenodd" fill="#000000" fill-opacity="1" transform="matrix(1,0,0,1,5.05,13.318000000000001)" id="mark5 dl" />
  <path d="M 17.212 63.60577907662061 C 17.206666666666667 63.43244574328727, 17.205333333333332 63.293112409953935, 17.208 63.1877790766206 C 17.210666666666665 63.082445743287266, 17.21333333333333 62.98044574328728, 17.215999999999998 62.8817790766206 L 18.296 62.8817790766206 C 18.287999999999997 62.95911240995393, 18.281999999999996 63.055112409953935, 18.278 63.16977907662061 C 18.274 63.28444574328727, 18.272666666666666 63.39511240995394, 18.273999999999997 63.5017790766206 C 18.275333333333332 63.60844574328726, 18.278666666666666 63.68844574328727, 18.284 63.7417790766206 C 18.294666666666664 63.8617790766206, 18.32933333333333 63.9597790766206, 18.387999999999998 64.0357790766206 C 18.446666666666665 64.11177907662059, 18.529333333333334 64.1657790766206, 18.636 64.1977790766206 L 18.636 65.0897790766206 C 18.142666666666667 65.05244574328727, 17.785333333333334 64.9177790766206, 17.564 64.6857790766206 C 17.342666666666666 64.4537790766206, 17.22533333333333 64.0937790766206, 17.212 63.60577907662061 Z M 17.311999999999998 62.2697790766206 L 17.311999999999998 58.621779076620605 L 18.38 58.621779076620605 L 18.38 62.2697790766206 Z M 18.884 61.8457790766206 L 18.884 61.0897790766206 C 18.961333333333332 61.0497790766206, 19.046666666666667 61.0177790766206, 19.14 60.993779076620605 C 19.23333333333333 60.9697790766206, 19.333333333333332 60.9577790766206, 19.439999999999998 60.957779076620604 C 19.805333333333333 60.9577790766206, 20.079333333333334 61.073112409953936, 20.262 61.3037790766206 C 20.444666666666667 61.534445743287264, 20.546666666666663 61.84844574328727, 20.567999999999998 62.24577907662061 C 20.578666666666667 62.405779076620604, 20.585333333333335 62.564445743287266, 20.588 62.72177907662061 C 20.590666666666667 62.87911240995393, 20.589333333333332 63.03244574328727, 20.584 63.1817790766206 C 20.578666666666667 63.33111240995394, 20.570666666666668 63.47111240995394, 20.56 63.6017790766206 C 20.514666666666663 64.10044574328728, 20.38533333333333 64.4657790766206, 20.171999999999997 64.6977790766206 C 19.958666666666666 64.9297790766206, 19.613333333333333 65.06044574328727, 19.136 65.0897790766206 L 19.136 64.1977790766206 C 19.24533333333333 64.16844574328726, 19.328 64.11577907662061, 19.384 64.0397790766206 C 19.44 63.963779076620604, 19.472 63.86444574328727, 19.48 63.7417790766206 C 19.503999999999998 63.451112409953936, 19.517999999999997 63.1897790766206, 19.522 62.957779076620604 C 19.526 62.725779076620604, 19.517333333333333 62.50444574328727, 19.496 62.2937790766206 C 19.479999999999997 62.13911240995394, 19.428666666666665 62.023779076620606, 19.342 61.947779076620606 C 19.255333333333333 61.871779076620605, 19.122666666666667 61.8337790766206, 18.944 61.8337790766206 C 18.93333333333333 61.8337790766206, 18.922666666666665 61.835112409953936, 18.912 61.837779076620606 C 18.901333333333334 61.840445743287276, 18.892 61.84311240995393, 18.884 61.8457790766206 Z M 18.884 59.5537790766206 L 18.884 58.621779076620605 L 20.471999999999998 58.621779076620605 L 20.471999999999998 59.5537790766206 Z M 22.904 63.8297790766206 C 22.896 63.67244574328727, 22.890666666666664 63.48644574328727, 22.887999999999998 63.271779076620604 C 22.88533333333333 63.05711240995394, 22.884 62.834445743287276, 22.884 62.603779076620604 C 22.884 62.37311240995393, 22.886 62.153112409953934, 22.89 61.9437790766206 C 22.894000000000002 61.73444574328727, 22.898666666666667 61.557779076620605, 22.904 61.41377907662061 C 22.922666666666665 60.9577790766206, 23.024666666666665 60.63244574328726, 23.21 60.4377790766206 C 23.395333333333333 60.24311240995394, 23.656 60.14577907662061, 23.992 60.145779076620606 C 24.128 60.14577907662061, 24.244 60.16044574328727, 24.34 60.1897790766206 C 24.436 60.21911240995394, 24.52133333333333 60.26177907662061, 24.596 60.3177790766206 L 24.596 60.9457790766206 C 24.54 60.929779076620605, 24.477333333333334 60.921779076620595, 24.408 60.9217790766206 C 24.266666666666666 60.921779076620595, 24.162 60.95311240995393, 24.094 61.0157790766206 C 24.026000000000003 61.078445743287276, 23.989333333333335 61.17244574328727, 23.983999999999998 61.2977790766206 C 23.968 61.583112409953934, 23.957333333333334 61.8777790766206, 23.951999999999998 62.1817790766206 C 23.946666666666665 62.4857790766206, 23.946666666666665 62.78577907662061, 23.951999999999998 63.081779076620606 C 23.957333333333334 63.377779076620605, 23.96666666666667 63.655112409953944, 23.98 63.91377907662061 C 23.988 64.0577790766206, 24.02466666666667 64.1617790766206, 24.09 64.2257790766206 C 24.15533333333333 64.28977907662059, 24.261333333333333 64.3217790766206, 24.408 64.3217790766206 C 24.479999999999997 64.3217790766206, 24.542666666666662 64.31377907662059, 24.596 64.2977790766206 L 24.596 64.9177790766206 C 24.518666666666668 64.9737790766206, 24.43 65.01777907662061, 24.33 65.04977907662061 C 24.23 65.0817790766206, 24.112000000000002 65.0977790766206, 23.976 65.0977790766206 C 23.634666666666664 65.0977790766206, 23.375999999999998 64.99911240995394, 23.2 64.8017790766206 C 23.024 64.60444574328727, 22.925333333333334 64.28044574328726, 22.904 63.8297790766206 Z M 25.084 65.0217790766206 L 25.084 58.621779076620605 L 26.164 58.621779076620605 L 26.164 65.0217790766206 Z M 26.944 65.0217790766206 L 26.944 58.621779076620605 L 28.003999999999998 58.621779076620605 L 28.003999999999998 65.0217790766206 Z " stroke="none" fill-rule="nonzero" fill="#000000" fill-opacity="1" transform="matrix(1,0,0,1,5.05,13.318000000000001)" id="text5 dl" />
  <path d="M 0 59.422001168958545 L 10 59.422001168958545 L 10 60.922001168958545 L 0 60.922001168958545 Z " stroke="none" fill-rule="evenodd" fill="#000000" fill-opacity="1" transform="matrix(1,0,0,1,5.05,13.318000000000001)" id="mark6 dl" />
  <path d="M 0 52.73622326129647 L 10 52.73622326129647 L 10 54.23622326129647 L 0 54.23622326129647 Z " stroke="none" fill-rule="evenodd" fill="#000000" fill-opacity="1" transform="matrix(1,0,0,1,5.05,13.318000000000001)" id="mark7 dl" />
  <path d="M 0 46.05044535363442 L 10 46.05044535363442 L 10 47.55044535363442 L 0 47.55044535363442 Z " stroke="none" fill-rule="evenodd" fill="#000000" fill-opacity="1" transform="matrix(1,0,0,1,5.05,13.318000000000001)" id="mark8 dl" />
  <path d="M 0 39.36466744597236 L 10 39.36466744597236 L 10 40.86466744597236 L 0 40.86466744597236 Z " stroke="none" fill-rule="evenodd" fill="#000000" fill-opacity="1" transform="matrix(1,0,0,1,5.05,13.318000000000001)" id="mark9 dl" />
  <path d="M 0 32.6788895383103 L 30 32.6788895383103 L 30 34.1788895383103 L 0 34.1788895383103 Z " stroke="none" fill-rule="evenodd" fill="#000000" fill-opacity="1" transform="matrix(1,0,0,1,5.05,13.318000000000001)" id="mark10 dl" />
  <path d="M 15.356 31.624889538310303 L 15.356 26.180889538310304 L 14.904 26.180889538310304 L 14.872 25.8008895383103 L 15.576 25.2248895383103 L 16.456 25.2248895383103 L 16.456 31.624889538310303 Z M 17.228 30.212889538310304 C 17.220000000000002 29.783556204976968, 17.214666666666666 29.366889538310303, 17.212 28.962889538310304 C 17.209333333333333 28.558889538310304, 17.21 28.16355620497697, 17.214 27.776889538310304 C 17.217999999999996 27.390222871643637, 17.222666666666665 27.0088895383103, 17.228 26.6328895383103 C 17.241333333333333 26.192889538310304, 17.366 25.847556204976968, 17.602 25.5968895383103 C 17.838 25.346222871643633, 18.174666666666667 25.2008895383103, 18.612 25.1608895383103 L 18.612 26.048889538310302 C 18.414666666666665 26.104889538310303, 18.313333333333333 26.234222871643638, 18.308 26.436889538310304 C 18.294666666666668 26.80755620497697, 18.285333333333334 27.155556204976968, 18.28 27.4808895383103 C 18.27466666666667 27.806222871643634, 18.272 28.122889538310304, 18.272 28.430889538310304 C 18.272 28.738889538310303, 18.27466666666667 29.05355620497697, 18.28 29.374889538310303 C 18.285333333333334 29.696222871643634, 18.294666666666668 30.039556204976968, 18.308 30.404889538310304 C 18.313333333333333 30.612889538310306, 18.414666666666665 30.744889538310304, 18.612 30.8008895383103 L 18.612 31.688889538310303 C 18.174666666666667 31.648889538310303, 17.838 31.502889538310306, 17.602 31.250889538310304 C 17.366 30.9988895383103, 17.241333333333333 30.652889538310305, 17.228 30.212889538310304 Z M 19.116 31.688889538310303 L 19.116 30.796889538310303 C 19.299999999999997 30.74355620497697, 19.398666666666664 30.61955620497697, 19.412 30.424889538310303 C 19.430666666666667 29.95822287164364, 19.442666666666668 29.509556204976974, 19.448 29.078889538310303 C 19.453333333333333 28.64822287164364, 19.453333333333333 28.217556204976972, 19.448 27.7868895383103 C 19.442666666666668 27.356222871643638, 19.430666666666667 26.90355620497697, 19.412 26.4288895383103 C 19.406666666666666 26.234222871643635, 19.308 26.107556204976966, 19.116 26.048889538310302 L 19.116 25.1608895383103 C 19.545333333333332 25.2008895383103, 19.878666666666664 25.346222871643633, 20.116 25.5968895383103 C 20.353333333333335 25.847556204976968, 20.477333333333334 26.192889538310304, 20.488 26.6328895383103 C 20.49866666666667 26.94755620497697, 20.506666666666668 27.257556204976968, 20.512 27.5628895383103 C 20.517333333333333 27.868222871643635, 20.52 28.168889538310303, 20.52 28.464889538310302 C 20.52 28.760889538310302, 20.517333333333333 29.05422287164363, 20.512 29.3448895383103 C 20.506666666666668 29.635556204976965, 20.49866666666667 29.924889538310303, 20.488 30.212889538310304 C 20.471999999999998 30.66355620497697, 20.343999999999998 31.012222871643637, 20.104 31.258889538310303 C 19.864 31.50555620497697, 19.534666666666666 31.648889538310303, 19.116 31.688889538310303 Z M 22.904 30.432889538310302 C 22.896 30.27555620497697, 22.890666666666664 30.08955620497697, 22.887999999999998 29.874889538310303 C 22.88533333333333 29.660222871643636, 22.884 29.43755620497697, 22.884 29.206889538310303 C 22.884 28.976222871643635, 22.886 28.756222871643637, 22.89 28.546889538310303 C 22.894000000000002 28.33755620497697, 22.898666666666667 28.160889538310304, 22.904 28.016889538310302 C 22.922666666666665 27.560889538310303, 23.024666666666665 27.23555620497697, 23.21 27.040889538310303 C 23.395333333333333 26.846222871643636, 23.656 26.7488895383103, 23.992 26.7488895383103 C 24.128 26.7488895383103, 24.244 26.76355620497697, 24.34 26.792889538310302 C 24.436 26.82222287164364, 24.52133333333333 26.8648895383103, 24.596 26.920889538310302 L 24.596 27.548889538310302 C 24.54 27.5328895383103, 24.477333333333334 27.524889538310305, 24.408 27.524889538310305 C 24.266666666666666 27.524889538310305, 24.162 27.556222871643634, 24.094 27.618889538310302 C 24.026000000000003 27.68155620497697, 23.989333333333335 27.775556204976972, 23.983999999999998 27.900889538310302 C 23.968 28.186222871643636, 23.957333333333334 28.480889538310304, 23.951999999999998 28.784889538310303 C 23.946666666666665 29.0888895383103, 23.946666666666665 29.388889538310302, 23.951999999999998 29.6848895383103 C 23.957333333333334 29.9808895383103, 23.96666666666667 30.25822287164364, 23.98 30.516889538310302 C 23.988 30.6608895383103, 24.02466666666667 30.7648895383103, 24.09 30.828889538310303 C 24.15533333333333 30.8928895383103, 24.261333333333333 30.924889538310303, 24.408 30.924889538310303 C 24.479999999999997 30.924889538310303, 24.542666666666662 30.9168895383103, 24.596 30.900889538310302 L 24.596 31.520889538310303 C 24.518666666666668 31.576889538310304, 24.43 31.6208895383103, 24.33 31.6528895383103 C 24.23 31.6848895383103, 24.112000000000002 31.7008895383103, 23.976 31.700889538310303 C 23.634666666666664 31.7008895383103, 23.375999999999998 31.602222871643633, 23.2 31.404889538310304 C 23.024 31.207556204976967, 22.925333333333334 30.88355620497697, 22.904 30.432889538310302 Z M 25.084 31.624889538310303 L 25.084 25.2248895383103 L 26.164 25.2248895383103 L 26.164 31.624889538310303 Z M 26.944 31.624889538310303 L 26.944 25.2248895383103 L 28.003999999999998 25.2248895383103 L 28.003999999999998 31.624889538310303 Z " stroke="none" fill-rule="nonzero" fill="#000000" fill-opacity="1" transform="matrix(1,0,0,1,5.05,13.318000000000001)" id="text10 dl" />
  <path d="M 0 25.993111630648244 L 10 25.993111630648244 L 10 27.493111630648244 L 0 27.493111630648244 Z " stroke="none" fill-rule="evenodd" fill="#000000" fill-opacity="1" transform="matrix(1,0,0,1,5.05,13.318000000000001)" id="mark11 dl" />
  <path d="M 0 19.307333722986186 L 10 19.307333722986186 L 10 20.807333722986186 L 0 20.807333722986186 Z " stroke="none" fill-rule="evenodd" fill="#000000" fill-opacity="1" transform="matrix(1,0,0,1,5.05,13.318000000000001)" id="mark12 dl" />
  <path d="M 0 12.621555815324115 L 10 12.621555815324115 L 10 14.121555815324115 L 0 14.121555815324115 Z " stroke="none" fill-rule="evenodd" fill="#000000" fill-opacity="1" transform="matrix(1,0,0,1,5.05,13.318000000000001)" id="mark13 dl" />
  <path d="M 0 5.935777907662043 L 10 5.935777907662043 L 10 7.435777907662043 L 0 7.435777907662043 Z " stroke="none" fill-rule="evenodd" fill="#000000" fill-opacity="1" transform="matrix(1,0,0,1,5.05,13.318000000000001)" id="mark14 dl" />
  <path d="M 0 -0.75 L 30 -0.75 L 30 0.75 L 0 0.75 Z " stroke="none" fill-rule="evenodd" fill="#000000" fill-opacity="1" transform="matrix(1,0,0,1,5.05,13.318000000000001)" id="mark15 dl" />
  <path d="M 15.363999999999999 -1.8359999999999999 L 15.363999999999999 -7.279999999999999 L 14.911999999999999 -7.279999999999999 L 14.879999999999999 -7.66 L 15.584 -8.236 L 16.464 -8.236 L 16.464 -1.8359999999999999 Z M 17.212 -3.252 C 17.206666666666667 -3.4253333333333327, 17.205333333333332 -3.5646666666666667, 17.208 -3.67 C 17.210666666666665 -3.775333333333333, 17.21333333333333 -3.8773333333333335, 17.215999999999998 -3.976 L 18.296 -3.976 C 18.287999999999997 -3.8986666666666663, 18.281999999999996 -3.802666666666666, 18.278 -3.6879999999999997 C 18.274 -3.5733333333333333, 18.272666666666666 -3.4626666666666663, 18.273999999999997 -3.356 C 18.275333333333332 -3.2493333333333334, 18.278666666666666 -3.1693333333333333, 18.284 -3.1159999999999997 C 18.294666666666664 -2.996, 18.32933333333333 -2.898, 18.387999999999998 -2.822 C 18.446666666666665 -2.746, 18.529333333333334 -2.6919999999999997, 18.636 -2.6599999999999997 L 18.636 -1.7679999999999998 C 18.142666666666667 -1.8053333333333332, 17.785333333333334 -1.94, 17.564 -2.1719999999999997 C 17.342666666666666 -2.404, 17.22533333333333 -2.764, 17.212 -3.252 Z M 17.311999999999998 -4.587999999999999 L 17.311999999999998 -8.236 L 18.38 -8.236 L 18.38 -4.587999999999999 Z M 18.884 -5.0120000000000005 L 18.884 -5.768 C 18.961333333333332 -5.808, 19.046666666666667 -5.84, 19.14 -5.864000000000001 C 19.23333333333333 -5.888000000000001, 19.333333333333332 -5.9, 19.439999999999998 -5.9 C 19.805333333333333 -5.9, 20.079333333333334 -5.784666666666667, 20.262 -5.554 C 20.444666666666667 -5.323333333333333, 20.546666666666663 -5.009333333333333, 20.567999999999998 -4.612 C 20.578666666666667 -4.452, 20.585333333333335 -4.293333333333333, 20.588 -4.135999999999999 C 20.590666666666667 -3.9786666666666664, 20.589333333333332 -3.8253333333333335, 20.584 -3.676 C 20.578666666666667 -3.526666666666667, 20.570666666666668 -3.3866666666666667, 20.56 -3.256 C 20.514666666666663 -2.7573333333333334, 20.38533333333333 -2.392, 20.171999999999997 -2.1599999999999997 C 19.958666666666666 -1.928, 19.613333333333333 -1.7973333333333332, 19.136 -1.7679999999999998 L 19.136 -2.6599999999999997 C 19.24533333333333 -2.689333333333333, 19.328 -2.7419999999999995, 19.384 -2.8179999999999996 C 19.44 -2.8939999999999997, 19.472 -2.993333333333333, 19.48 -3.1159999999999997 C 19.503999999999998 -3.4066666666666663, 19.517999999999997 -3.668, 19.522 -3.9 C 19.526 -4.132, 19.517333333333333 -4.353333333333333, 19.496 -4.564 C 19.479999999999997 -4.718666666666667, 19.428666666666665 -4.834, 19.342 -4.91 C 19.255333333333333 -4.986000000000001, 19.122666666666667 -5.024, 18.944 -5.024 C 18.93333333333333 -5.024, 18.922666666666665 -5.022666666666667, 18.912 -5.02 C 18.901333333333334 -5.017333333333333, 18.892 -5.014666666666667, 18.884 -5.0120000000000005 Z M 18.884 -7.304 L 18.884 -8.236 L 20.471999999999998 -8.236 L 20.471999999999998 -7.304 Z M 22.904 -3.0279999999999996 C 22.896 -3.185333333333333, 22.890666666666664 -3.3713333333333333, 22.887999999999998 -3.586 C 22.88533333333333 -3.8006666666666664, 22.884 -4.023333333333333, 22.884 -4.254 C 22.884 -4.484666666666667, 22.886 -4.704666666666666, 22.89 -4.914 C 22.894000000000002 -5.123333333333333, 22.898666666666667 -5.3, 22.904 -5.444 C 22.922666666666665 -5.9, 23.024666666666665 -6.225333333333333, 23.21 -6.42 C 23.395333333333333 -6.6146666666666665, 23.656 -6.712, 23.992 -6.712 C 24.128 -6.712, 24.244 -6.697333333333334, 24.34 -6.668000000000001 C 24.436 -6.638666666666667, 24.52133333333333 -6.596, 24.596 -6.539999999999999 L 24.596 -5.911999999999999 C 24.54 -5.927999999999999, 24.477333333333334 -5.936, 24.408 -5.936 C 24.266666666666666 -5.936, 24.162 -5.9046666666666665, 24.094 -5.8420000000000005 C 24.026000000000003 -5.779333333333333, 23.989333333333335 -5.6853333333333325, 23.983999999999998 -5.5600000000000005 C 23.968 -5.274666666666667, 23.957333333333334 -4.9799999999999995, 23.951999999999998 -4.676 C 23.946666666666665 -4.372, 23.946666666666665 -4.071999999999999, 23.951999999999998 -3.776 C 23.957333333333334 -3.48, 23.96666666666667 -3.2026666666666666, 23.98 -2.944 C 23.988 -2.8, 24.02466666666667 -2.6959999999999997, 24.09 -2.6319999999999997 C 24.15533333333333 -2.5679999999999996, 24.261333333333333 -2.5359999999999996, 24.408 -2.5359999999999996 C 24.479999999999997 -2.5359999999999996, 24.542666666666662 -2.5439999999999996, 24.596 -2.5599999999999996 L 24.596 -1.94 C 24.518666666666668 -1.884, 24.43 -1.8399999999999999, 24.33 -1.8079999999999998 C 24.23 -1.7759999999999998, 24.112000000000002 -1.7599999999999998, 23.976 -1.7599999999999998 C 23.634666666666664 -1.7599999999999998, 23.375999999999998 -1.8586666666666665, 23.2 -2.056 C 23.024 -2.253333333333333, 22.925333333333334 -2.577333333333333, 22.904 -3.0279999999999996 Z M 25.084 -1.8359999999999999 L 25.084 -8.236 L 26.164 -8.236 L 26.164 -1.8359999999999999 Z M 26.944 -1.8359999999999999 L 26.944 -8.236 L 28.003999999999998 -8.236 L 28.003999999999998 -1.8359999999999999 Z " stroke="none" fill-rule="nonzero" fill="#000000" fill-opacity="1" transform="matrix(1,0,0,1,5.05,13.318000000000001)" id="text15 dl" />
  <path d="M -5 -13.268 L 35 -13.268 L 35 93.64711279960679 L -5 93.64711279960679 Z " stroke="#FF0000" stroke-opacity="1" stroke-width="0.1" stroke-linecap="butt" stroke-linejoin="miter" fill="none" transform="matrix(1,0,0,1,5.05,13.318000000000001)" />
</svg>