<?xml version="1.0" encoding="UTF-8"?>
<svg xmlns:xlink="http://www.w3.org/1999/xlink" viewBox="0 0 35.1 371.2695934920299" version="1.1" style="font-synthesis: none;" width="35.1mm" height="371.2695934920299mm" xmlns="http://www.w3.org/2000/svg">
  <defs />
  <style>	</style>
  <path d="M 0 0 L 35.1 0 L 35.1 371.2695934920299 L 0 371.2695934920299 Z " stroke="none" fill-rule="nonzero" fill="#FFFFFF" fill-opacity="1" transform="matrix(1,0,0,1,0,0)" />
  <path d="M 0 350.3875934920299 L 10 350.3875934920299 L 10 351.8875934920299 L 0 351.8875934920299 Z " stroke="none" fill-rule="evenodd" fill="#000000" fill-opacity="1" transform="matrix(1,0,0,1,5.05,13.314)" id="mark1 l" />
  <path d="M 0 335.756860429862 L 10 335.756860429862 L 10 337.256860429862 L 0 337.256860429862 Z " stroke="none" fill-rule="evenodd" fill="#000000" fill-opacity="1" transform="matrix(1,0,0,1,5.05,13.314)" id="mark2 l" />
  <path d="M 0 321.1261273676941 L 10 321.1261273676941 L 10 322.6261273676941 L 0 322.6261273676941 Z " stroke="none" fill-rule="evenodd" fill="#000000" fill-opacity="1" transform="matrix(1,0,0,1,5.05,13.314)" id="mark3 l" />
  <path d="M 0 306.49539430552613 L 10 306.49539430552613 L 10 307.99539430552613 L 0 307.99539430552613 Z " stroke="none" fill-rule="evenodd" fill="#000000" fill-opacity="1" transform="matrix(1,0,0,1,5.05,13.314)" id="mark4 l" />
  <path d="M 0 291.8646612433582 L 25 291.8646612433582 L 25 293.3646612433582 L 0 293.3646612433582 Z " stroke="none" fill-rule="evenodd" fill="#000000" fill-opacity="1" transform="matrix(1,0,0,1,5.05,13.314)" id="mark5 l" />
  <path d="M 16.18 289.36666124335824 C 16.174666666666667 289.1933279100249, 16.173333333333332 289.0539945766916, 16.176 288.94866124335823 C 16.178666666666665 288.84332791002487, 16.181333333333335 288.7413279100249, 16.183999999999997 288.64266124335825 L 17.264 288.64266124335825 C 17.256 288.7199945766916, 17.25 288.8159945766916, 17.246 288.93066124335826 C 17.241999999999997 289.0453279100249, 17.240666666666666 289.15599457669157, 17.241999999999997 289.26266124335825 C 17.243333333333332 289.36932791002494, 17.246666666666666 289.4493279100249, 17.252 289.50266124335826 C 17.262666666666668 289.6226612433582, 17.297333333333334 289.7206612433582, 17.355999999999998 289.79666124335824 C 17.414666666666665 289.87266124335827, 17.497333333333334 289.92666124335824, 17.604 289.9586612433582 L 17.604 290.8506612433582 C 17.110666666666663 290.8133279100249, 16.75333333333333 290.67866124335825, 16.532 290.4466612433582 C 16.310666666666666 290.2146612433582, 16.19333333333333 289.85466124335824, 16.18 289.36666124335824 Z M 16.279999999999998 288.0306612433582 L 16.279999999999998 284.38266124335826 L 17.348 284.38266124335826 L 17.348 288.0306612433582 Z M 17.852 287.60666124335825 L 17.852 286.8506612433582 C 17.929333333333332 286.8106612433582, 18.014666666666667 286.7786612433582, 18.107999999999997 286.7546612433582 C 18.20133333333333 286.7306612433582, 18.301333333333332 286.7186612433582, 18.407999999999998 286.7186612433582 C 18.773333333333333 286.7186612433582, 19.047333333333334 286.83399457669157, 19.23 287.0646612433582 C 19.412666666666667 287.29532791002487, 19.514666666666663 287.6093279100249, 19.535999999999998 288.0066612433582 C 19.546666666666667 288.16666124335825, 19.55333333333333 288.3253279100249, 19.555999999999997 288.4826612433582 C 19.558666666666664 288.63999457669155, 19.557333333333332 288.7933279100249, 19.552 288.94266124335826 C 19.546666666666667 289.0919945766916, 19.538666666666668 289.2319945766916, 19.528 289.3626612433582 C 19.482666666666667 289.8613279100249, 19.353333333333335 290.2266612433582, 19.14 290.4586612433582 C 18.926666666666666 290.69066124335825, 18.581333333333333 290.8213279100249, 18.104 290.8506612433582 L 18.104 289.9586612433582 C 18.21333333333333 289.9293279100249, 18.296 289.8766612433582, 18.352 289.8006612433582 C 18.408 289.72466124335824, 18.44 289.6253279100249, 18.448 289.50266124335826 C 18.471999999999998 289.21199457669155, 18.485999999999997 288.95066124335824, 18.49 288.7186612433582 C 18.494 288.48666124335824, 18.485333333333333 288.2653279100249, 18.464 288.0546612433582 C 18.447999999999997 287.8999945766916, 18.396666666666665 287.78466124335824, 18.31 287.7086612433582 C 18.223333333333333 287.63266124335826, 18.090666666666664 287.59466124335825, 17.912 287.59466124335825 C 17.901333333333334 287.59466124335825, 17.890666666666668 287.59599457669157, 17.88 287.5986612433582 C 17.86933333333333 287.6013279100249, 17.86 287.60399457669155, 17.852 287.60666124335825 Z M 17.852 285.3146612433582 L 17.852 284.38266124335826 L 19.439999999999998 284.38266124335826 L 19.439999999999998 285.3146612433582 Z M 21.944 290.78266124335823 L 21.944 284.38266124335826 L 23.003999999999998 284.38266124335826 L 23.003999999999998 290.78266124335823 Z " stroke="none" fill-rule="nonzero" fill="#000000" fill-opacity="1" transform="matrix(1,0,0,1,5.05,13.314)" id="text5 l" />
  <path d="M 0 277.2339281811903 L 10 277.2339281811903 L 10 278.7339281811903 L 0 278.7339281811903 Z " stroke="none" fill-rule="evenodd" fill="#000000" fill-opacity="1" transform="matrix(1,0,0,1,5.05,13.314)" id="mark6 l" />
  <path d="M 0 262.6031951190224 L 10 262.6031951190224 L 10 264.1031951190224 L 0 264.1031951190224 Z " stroke="none" fill-rule="evenodd" fill="#000000" fill-opacity="1" transform="matrix(1,0,0,1,5.05,13.314)" id="mark7 l" />
  <path d="M 0 247.9724620568545 L 10 247.9724620568545 L 10 249.4724620568545 L 0 249.4724620568545 Z " stroke="none" fill-rule="evenodd" fill="#000000" fill-opacity="1" transform="matrix(1,0,0,1,5.05,13.314)" id="mark8 l" />
  <path d="M 0 233.3417289946866 L 10 233.3417289946866 L 10 234.8417289946866 L 0 234.8417289946866 Z " stroke="none" fill-rule="evenodd" fill="#000000" fill-opacity="1" transform="matrix(1,0,0,1,5.05,13.314)" id="mark9 l" />
  <path d="M 0 218.71099593251867 L 25 218.71099593251867 L 25 220.21099593251867 L 0 220.21099593251867 Z " stroke="none" fill-rule="evenodd" fill="#000000" fill-opacity="1" transform="matrix(1,0,0,1,5.05,13.314)" id="mark10 l" />
  <path d="M 14.323999999999998 217.6609959325187 L 14.323999999999998 212.2169959325187 L 13.871999999999998 212.2169959325187 L 13.839999999999998 211.83699593251868 L 14.543999999999999 211.26099593251868 L 15.424 211.26099593251868 L 15.424 217.6609959325187 Z M 16.196 216.24899593251868 C 16.188000000000002 215.81966259918534, 16.182666666666666 215.4029959325187, 16.18 214.99899593251868 C 16.177333333333333 214.5949959325187, 16.177999999999997 214.19966259918536, 16.182 213.81299593251867 C 16.186 213.42632926585202, 16.190666666666665 213.0449959325187, 16.196 212.6689959325187 C 16.209333333333333 212.22899593251867, 16.334000000000003 211.88366259918536, 16.57 211.6329959325187 C 16.805999999999997 211.38232926585204, 17.142666666666663 211.2369959325187, 17.58 211.1969959325187 L 17.58 212.0849959325187 C 17.382666666666665 212.1409959325187, 17.281333333333333 212.27032926585204, 17.276 212.4729959325187 C 17.262666666666668 212.84366259918536, 17.253333333333334 213.19166259918535, 17.248 213.51699593251868 C 17.242666666666665 213.84232926585202, 17.24 214.15899593251868, 17.24 214.4669959325187 C 17.24 214.77499593251866, 17.242666666666665 215.08966259918535, 17.248 215.4109959325187 C 17.253333333333334 215.73232926585203, 17.262666666666668 216.07566259918536, 17.276 216.4409959325187 C 17.281333333333333 216.6489959325187, 17.382666666666665 216.7809959325187, 17.58 216.83699593251868 L 17.58 217.72499593251868 C 17.142666666666663 217.6849959325187, 16.805999999999997 217.53899593251867, 16.57 217.2869959325187 C 16.334000000000003 217.03499593251865, 16.209333333333333 216.68899593251865, 16.196 216.24899593251868 Z M 18.084 217.72499593251868 L 18.084 216.83299593251868 C 18.268 216.77966259918537, 18.366666666666667 216.65566259918535, 18.38 216.4609959325187 C 18.398666666666667 215.994329265852, 18.410666666666668 215.54566259918533, 18.416 215.1149959325187 C 18.421333333333333 214.684329265852, 18.421333333333333 214.25366259918536, 18.416 213.8229959325187 C 18.410666666666668 213.39232926585203, 18.398666666666667 212.93966259918534, 18.38 212.4649959325187 C 18.374666666666666 212.270329265852, 18.276 212.14366259918535, 18.084 212.0849959325187 L 18.084 211.1969959325187 C 18.513333333333335 211.2369959325187, 18.846666666666668 211.38232926585204, 19.084 211.6329959325187 C 19.321333333333335 211.88366259918536, 19.445333333333334 212.22899593251867, 19.456 212.6689959325187 C 19.46666666666667 212.98366259918532, 19.474666666666668 213.29366259918532, 19.48 213.59899593251868 C 19.485333333333333 213.90432926585203, 19.488 214.20499593251867, 19.488 214.5009959325187 C 19.488 214.7969959325187, 19.485333333333333 215.090329265852, 19.48 215.3809959325187 C 19.474666666666668 215.67166259918537, 19.46666666666667 215.9609959325187, 19.456 216.24899593251868 C 19.439999999999998 216.69966259918533, 19.311999999999998 217.04832926585203, 19.072 217.29499593251867 C 18.832 217.54166259918537, 18.502666666666666 217.6849959325187, 18.084 217.72499593251868 Z M 21.944 217.6609959325187 L 21.944 211.26099593251868 L 23.003999999999998 211.26099593251868 L 23.003999999999998 217.6609959325187 Z " stroke="none" fill-rule="nonzero" fill="#000000" fill-opacity="1" transform="matrix(1,0,0,1,5.05,13.314)" id="text10 l" />
  <path d="M 0 204.08026287035077 L 10 204.08026287035077 L 10 205.58026287035077 L 0 205.58026287035077 Z " stroke="none" fill-rule="evenodd" fill="#000000" fill-opacity="1" transform="matrix(1,0,0,1,5.05,13.314)" id="mark11 l" />
  <path d="M 0 189.44952980818286 L 10 189.44952980818286 L 10 190.94952980818286 L 0 190.94952980818286 Z " stroke="none" fill-rule="evenodd" fill="#000000" fill-opacity="1" transform="matrix(1,0,0,1,5.05,13.314)" id="mark12 l" />
  <path d="M 0 174.81879674601495 L 10 174.81879674601495 L 10 176.31879674601495 L 0 176.31879674601495 Z " stroke="none" fill-rule="evenodd" fill="#000000" fill-opacity="1" transform="matrix(1,0,0,1,5.05,13.314)" id="mark13 l" />
  <path d="M 0 160.18806368384702 L 10 160.18806368384702 L 10 161.68806368384702 L 0 161.68806368384702 Z " stroke="none" fill-rule="evenodd" fill="#000000" fill-opacity="1" transform="matrix(1,0,0,1,5.05,13.314)" id="mark14 l" />
  <path d="M 0 145.5573306216791 L 25 145.5573306216791 L 25 147.0573306216791 L 0 147.0573306216791 Z " stroke="none" fill-rule="evenodd" fill="#000000" fill-opacity="1" transform="matrix(1,0,0,1,5.05,13.314)" id="mark15 l" />
  <path d="M 14.331999999999999 144.47533062167912 L 14.331999999999999 139.03133062167913 L 13.879999999999999 139.03133062167913 L 13.847999999999999 138.6513306216791 L 14.552 138.07533062167911 L 15.432 138.07533062167911 L 15.432 144.47533062167912 Z M 16.18 143.05933062167912 C 16.174666666666667 142.88599728834578, 16.173333333333332 142.74666395501245, 16.176 142.64133062167912 C 16.178666666666665 142.53599728834578, 16.181333333333335 142.43399728834578, 16.183999999999997 142.33533062167913 L 17.264 142.33533062167913 C 17.256 142.41266395501248, 17.25 142.50866395501245, 17.246 142.62333062167912 C 17.241999999999997 142.73799728834578, 17.240666666666666 142.84866395501246, 17.241999999999997 142.9553306216791 C 17.243333333333332 143.06199728834576, 17.246666666666666 143.14199728834578, 17.252 143.19533062167912 C 17.262666666666668 143.31533062167912, 17.297333333333334 143.41333062167914, 17.355999999999998 143.48933062167913 C 17.414666666666665 143.56533062167912, 17.497333333333334 143.6193306216791, 17.604 143.6513306216791 L 17.604 144.54333062167913 C 17.110666666666663 144.50599728834578, 16.75333333333333 144.3713306216791, 16.532 144.1393306216791 C 16.310666666666666 143.9073306216791, 16.19333333333333 143.54733062167912, 16.18 143.05933062167912 Z M 16.279999999999998 141.7233306216791 L 16.279999999999998 138.07533062167911 L 17.348 138.07533062167911 L 17.348 141.7233306216791 Z M 17.852 141.29933062167913 L 17.852 140.54333062167913 C 17.929333333333332 140.50333062167914, 18.014666666666667 140.47133062167913, 18.107999999999997 140.44733062167913 C 18.20133333333333 140.42333062167913, 18.301333333333332 140.41133062167913, 18.407999999999998 140.41133062167913 C 18.773333333333333 140.41133062167913, 19.047333333333334 140.52666395501245, 19.23 140.75733062167913 C 19.412666666666667 140.98799728834578, 19.514666666666663 141.30199728834577, 19.535999999999998 141.6993306216791 C 19.546666666666667 141.8593306216791, 19.55333333333333 142.01799728834578, 19.555999999999997 142.1753306216791 C 19.558666666666664 142.33266395501244, 19.557333333333332 142.4859972883458, 19.552 142.63533062167912 C 19.546666666666667 142.78466395501243, 19.538666666666668 142.92466395501245, 19.528 143.05533062167913 C 19.482666666666667 143.55399728834578, 19.353333333333335 143.9193306216791, 19.14 144.1513306216791 C 18.926666666666666 144.3833306216791, 18.581333333333333 144.5139972883458, 18.104 144.54333062167913 L 18.104 143.6513306216791 C 18.21333333333333 143.6219972883458, 18.296 143.56933062167911, 18.352 143.49333062167912 C 18.408 143.41733062167913, 18.44 143.3179972883458, 18.448 143.19533062167912 C 18.471999999999998 142.90466395501244, 18.485999999999997 142.64333062167913, 18.49 142.41133062167913 C 18.494 142.17933062167913, 18.485333333333333 141.95799728834578, 18.464 141.7473306216791 C 18.447999999999997 141.59266395501245, 18.396666666666665 141.4773306216791, 18.31 141.4013306216791 C 18.223333333333333 141.32533062167911, 18.090666666666664 141.28733062167913, 17.912 141.28733062167913 C 17.901333333333334 141.28733062167913, 17.890666666666668 141.28866395501245, 17.88 141.29133062167912 C 17.86933333333333 141.2939972883458, 17.86 141.29666395501246, 17.852 141.29933062167913 Z M 17.852 139.00733062167913 L 17.852 138.07533062167911 L 19.439999999999998 138.07533062167911 L 19.439999999999998 139.00733062167913 Z M 21.944 144.47533062167912 L 21.944 138.07533062167911 L 23.003999999999998 138.07533062167911 L 23.003999999999998 144.47533062167912 Z " stroke="none" fill-rule="nonzero" fill="#000000" fill-opacity="1" transform="matrix(1,0,0,1,5.05,13.314)" id="text15 l" />
  <path d="M 0 130.9265975595112 L 10 130.9265975595112 L 10 132.4265975595112 L 0 132.4265975595112 Z " stroke="none" fill-rule="evenodd" fill="#000000" fill-opacity="1" transform="matrix(1,0,0,1,5.05,13.314)" id="mark16 l" />
  <path d="M 0 116.2958644973433 L 10 116.2958644973433 L 10 117.7958644973433 L 0 117.7958644973433 Z " stroke="none" fill-rule="evenodd" fill="#000000" fill-opacity="1" transform="matrix(1,0,0,1,5.05,13.314)" id="mark17 l" />
  <path d="M 0 101.6651314351754 L 10 101.6651314351754 L 10 103.1651314351754 L 0 103.1651314351754 Z " stroke="none" fill-rule="evenodd" fill="#000000" fill-opacity="1" transform="matrix(1,0,0,1,5.05,13.314)" id="mark18 l" />
  <path d="M 0 87.03439837300749 L 10 87.03439837300749 L 10 88.53439837300749 L 0 88.53439837300749 Z " stroke="none" fill-rule="evenodd" fill="#000000" fill-opacity="1" transform="matrix(1,0,0,1,5.05,13.314)" id="mark19 l" />
  <path d="M 0 72.40366531083953 L 25 72.40366531083953 L 25 73.90366531083953 L 0 73.90366531083953 Z " stroke="none" fill-rule="evenodd" fill="#000000" fill-opacity="1" transform="matrix(1,0,0,1,5.05,13.314)" id="mark20 l" />
  <path d="M 12.319999999999999 71.35366531083953 C 12.317333333333334 71.25499864417287, 12.315333333333331 71.1663319775062, 12.313999999999998 71.08766531083953 C 12.312666666666665 71.00899864417286, 12.311333333333334 70.93499864417286, 12.309999999999999 70.86566531083953 C 12.308666666666667 70.7963319775062, 12.308 70.7243319775062, 12.308 70.64966531083954 C 12.308 70.57499864417287, 12.308 70.4903319775062, 12.308 70.39566531083953 C 12.308 70.30099864417286, 12.309333333333335 70.18966531083953, 12.312 70.06166531083953 C 12.32 69.7683319775062, 12.37 69.50633197750619, 12.462 69.27566531083953 C 12.554 69.04499864417286, 12.687999999999999 68.83899864417286, 12.863999999999999 68.65766531083953 C 13.04 68.47633197750619, 13.257333333333333 68.31499864417286, 13.515999999999998 68.17366531083952 L 14.047999999999998 67.88566531083953 C 14.234666666666666 67.7843319775062, 14.354 67.6623319775062, 14.405999999999999 67.51966531083953 C 14.457999999999998 67.37699864417286, 14.488 67.24299864417286, 14.495999999999999 67.11766531083953 C 14.506666666666664 66.97099864417287, 14.512666666666664 66.8143319775062, 14.514 66.64766531083953 C 14.51533333333333 66.48099864417286, 14.511999999999997 66.32433197750619, 14.504 66.17766531083953 C 14.498666666666665 66.07366531083953, 14.468666666666666 65.98766531083953, 14.413999999999998 65.91966531083953 C 14.359333333333332 65.85166531083954, 14.279999999999998 65.80299864417286, 14.175999999999998 65.77366531083953 L 14.175999999999998 64.88566531083953 C 14.663999999999998 64.91766531083952, 15.014 65.04899864417285, 15.225999999999999 65.27966531083953 C 15.437999999999999 65.51033197750621, 15.554666666666666 65.87099864417287, 15.575999999999999 66.36166531083953 C 15.578666666666663 66.42566531083953, 15.580666666666666 66.49099864417286, 15.581999999999999 66.55766531083952 C 15.583333333333332 66.6243319775062, 15.584 66.68899864417287, 15.584 66.75166531083953 C 15.584 66.8143319775062, 15.583333333333332 66.8763319775062, 15.581999999999999 66.93766531083953 C 15.580666666666666 66.99899864417287, 15.578666666666663 67.05899864417286, 15.575999999999999 67.11766531083953 C 15.565333333333331 67.40299864417285, 15.512 67.64966531083952, 15.415999999999999 67.85766531083954 C 15.32 68.06566531083953, 15.19 68.24566531083954, 15.026 68.39766531083953 C 14.862 68.54966531083954, 14.672 68.68566531083954, 14.456 68.80566531083953 L 13.851999999999999 69.13366531083953 C 13.737333333333332 69.19499864417287, 13.647333333333332 69.27899864417286, 13.581999999999999 69.38566531083953 C 13.516666666666666 69.4923319775062, 13.469999999999999 69.60566531083953, 13.441999999999998 69.72566531083953 C 13.413999999999998 69.84566531083954, 13.399999999999999 69.95766531083953, 13.399999999999999 70.06166531083953 L 13.399999999999999 71.35366531083953 Z M 12.328 67.31366531083953 C 12.322666666666667 67.19633197750619, 12.318666666666665 67.08166531083953, 12.315999999999999 66.96966531083953 C 12.313333333333333 66.85766531083954, 12.311333333333334 66.75166531083953, 12.309999999999999 66.65166531083953 C 12.308666666666667 66.55166531083952, 12.309333333333335 66.45499864417286, 12.312 66.36166531083953 C 12.330666666666666 65.87366531083953, 12.447333333333333 65.51433197750619, 12.661999999999999 65.28366531083952 C 12.876666666666665 65.05299864417286, 13.213333333333331 64.9203319775062, 13.671999999999999 64.88566531083953 L 13.671999999999999 65.77766531083954 C 13.576 65.80699864417286, 13.505333333333333 65.85366531083953, 13.459999999999999 65.91766531083954 C 13.414666666666665 65.98166531083953, 13.390666666666664 66.05899864417286, 13.387999999999998 66.14966531083954 C 13.382666666666665 66.35766531083954, 13.379333333333333 66.55099864417286, 13.378 66.72966531083954 C 13.376666666666667 66.90833197750621, 13.381333333333334 67.10299864417286, 13.392 67.31366531083953 Z M 13.904 71.35366531083953 L 13.904 70.42166531083953 L 15.5 70.42166531083953 L 15.5 71.35366531083953 Z M 16.196 69.94166531083953 C 16.188000000000002 69.5123319775062, 16.182666666666666 69.09566531083954, 16.18 68.69166531083953 C 16.177333333333333 68.28766531083953, 16.177999999999997 67.8923319775062, 16.182 67.50566531083953 C 16.186 67.11899864417286, 16.190666666666665 66.73766531083953, 16.196 66.36166531083953 C 16.209333333333333 65.92166531083953, 16.334000000000003 65.57633197750619, 16.57 65.32566531083953 C 16.805999999999997 65.07499864417287, 17.142666666666663 64.92966531083954, 17.58 64.88966531083953 L 17.58 65.77766531083954 C 17.382666666666665 65.83366531083954, 17.281333333333333 65.96299864417287, 17.276 66.16566531083953 C 17.262666666666668 66.5363319775062, 17.253333333333334 66.88433197750619, 17.248 67.20966531083953 C 17.242666666666665 67.53499864417286, 17.24 67.85166531083952, 17.24 68.15966531083953 C 17.24 68.46766531083954, 17.242666666666665 68.7823319775062, 17.248 69.10366531083953 C 17.253333333333334 69.42499864417286, 17.262666666666668 69.7683319775062, 17.276 70.13366531083953 C 17.281333333333333 70.34166531083953, 17.382666666666665 70.47366531083952, 17.58 70.52966531083953 L 17.58 71.41766531083952 C 17.142666666666663 71.37766531083953, 16.805999999999997 71.23166531083953, 16.57 70.97966531083954 C 16.334000000000003 70.72766531083954, 16.209333333333333 70.38166531083954, 16.196 69.94166531083953 Z M 18.084 71.41766531083952 L 18.084 70.52566531083953 C 18.268 70.4723319775062, 18.366666666666667 70.34833197750619, 18.38 70.15366531083953 C 18.398666666666667 69.68699864417286, 18.410666666666668 69.23833197750619, 18.416 68.80766531083952 C 18.421333333333333 68.37699864417287, 18.421333333333333 67.9463319775062, 18.416 67.51566531083954 C 18.410666666666668 67.08499864417287, 18.398666666666667 66.6323319775062, 18.38 66.15766531083953 C 18.374666666666666 65.96299864417287, 18.276 65.8363319775062, 18.084 65.77766531083954 L 18.084 64.88966531083953 C 18.513333333333335 64.92966531083954, 18.846666666666668 65.07499864417287, 19.084 65.32566531083953 C 19.321333333333335 65.57633197750619, 19.445333333333334 65.92166531083953, 19.456 66.36166531083953 C 19.46666666666667 66.6763319775062, 19.474666666666668 66.9863319775062, 19.48 67.29166531083953 C 19.485333333333333 67.59699864417287, 19.488 67.89766531083953, 19.488 68.19366531083953 C 19.488 68.48966531083954, 19.485333333333333 68.78299864417286, 19.48 69.07366531083953 C 19.474666666666668 69.3643319775062, 19.46666666666667 69.65366531083953, 19.456 69.94166531083953 C 19.439999999999998 70.39233197750619, 19.311999999999998 70.74099864417286, 19.072 70.98766531083953 C 18.832 71.2343319775062, 18.502666666666666 71.37766531083953, 18.084 71.41766531083952 Z M 21.944 71.35366531083953 L 21.944 64.95366531083953 L 23.003999999999998 64.95366531083953 L 23.003999999999998 71.35366531083953 Z " stroke="none" fill-rule="nonzero" fill="#000000" fill-opacity="1" transform="matrix(1,0,0,1,5.05,13.314)" id="text20 l" />
  <path d="M 0 57.77293224867162 L 10 57.77293224867162 L 10 59.27293224867162 L 0 59.27293224867162 Z " stroke="none" fill-rule="evenodd" fill="#000000" fill-opacity="1" transform="matrix(1,0,0,1,5.05,13.314)" id="mark21 l" />
  <path d="M 0 43.14219918650372 L 10 43.14219918650372 L 10 44.64219918650372 L 0 44.64219918650372 Z " stroke="none" fill-rule="evenodd" fill="#000000" fill-opacity="1" transform="matrix(1,0,0,1,5.05,13.314)" id="mark22 l" />
  <path d="M 0 28.51146612433581 L 10 28.51146612433581 L 10 30.01146612433581 L 0 30.01146612433581 Z " stroke="none" fill-rule="evenodd" fill="#000000" fill-opacity="1" transform="matrix(1,0,0,1,5.05,13.314)" id="mark23 l" />
  <path d="M 0 13.880733062167906 L 10 13.880733062167906 L 10 15.380733062167906 L 0 15.380733062167906 Z " stroke="none" fill-rule="evenodd" fill="#000000" fill-opacity="1" transform="matrix(1,0,0,1,5.05,13.314)" id="mark24 l" />
  <path d="M 0 -0.75 L 25 -0.75 L 25 0.75 L 0 0.75 Z " stroke="none" fill-rule="evenodd" fill="#000000" fill-opacity="1" transform="matrix(1,0,0,1,5.05,13.314)" id="mark25 l" />
  <path d="M 12.328 -1.7999999999999998 C 12.325333333333333 -1.8986666666666663, 12.323333333333332 -1.987333333333333, 12.322 -2.066 C 12.320666666666666 -2.1446666666666663, 12.319333333333333 -2.2186666666666666, 12.318 -2.288 C 12.316666666666666 -2.357333333333333, 12.315999999999999 -2.429333333333333, 12.316 -2.5039999999999996 C 12.315999999999999 -2.5786666666666664, 12.315999999999999 -2.663333333333333, 12.316 -2.758 C 12.315999999999999 -2.852666666666667, 12.317333333333334 -2.964, 12.32 -3.0919999999999996 C 12.328 -3.3853333333333335, 12.378 -3.647333333333333, 12.47 -3.8779999999999997 C 12.562000000000001 -4.108666666666667, 12.696 -4.314666666666667, 12.872 -4.4959999999999996 C 13.048 -4.677333333333333, 13.265333333333334 -4.838666666666667, 13.524000000000001 -4.98 L 14.056000000000001 -5.268 C 14.242666666666668 -5.3693333333333335, 14.362000000000002 -5.491333333333333, 14.414 -5.634 C 14.466000000000001 -5.776666666666667, 14.495999999999999 -5.910666666666667, 14.504 -6.036 C 14.514666666666667 -6.182666666666666, 14.520666666666667 -6.339333333333333, 14.522 -6.506 C 14.523333333333333 -6.672666666666667, 14.520000000000001 -6.829333333333334, 14.512 -6.976 C 14.506666666666666 -7.08, 14.476666666666667 -7.165999999999999, 14.422 -7.233999999999999 C 14.367333333333335 -7.302, 14.288 -7.350666666666666, 14.184000000000001 -7.38 L 14.184000000000001 -8.268 C 14.672 -8.236, 15.022000000000002 -8.104666666666667, 15.234 -7.874 C 15.446000000000002 -7.643333333333333, 15.562666666666667 -7.282666666666666, 15.584 -6.792 C 15.586666666666668 -6.728, 15.588666666666668 -6.6626666666666665, 15.59 -6.595999999999999 C 15.591333333333335 -6.529333333333334, 15.592000000000002 -6.464666666666666, 15.592 -6.402 C 15.592000000000002 -6.339333333333332, 15.591333333333335 -6.277333333333333, 15.59 -6.216 C 15.588666666666668 -6.1546666666666665, 15.586666666666668 -6.094666666666667, 15.584 -6.036 C 15.573333333333332 -5.750666666666667, 15.52 -5.504, 15.424 -5.295999999999999 C 15.328 -5.088, 15.197999999999999 -4.908, 15.033999999999999 -4.756 C 14.87 -4.604, 14.68 -4.468, 14.464 -4.348 L 13.86 -4.02 C 13.745333333333335 -3.9586666666666663, 13.655333333333335 -3.8746666666666663, 13.59 -3.768 C 13.524666666666668 -3.6613333333333333, 13.478000000000002 -3.548, 13.45 -3.428 C 13.422 -3.308, 13.408 -3.1959999999999997, 13.408 -3.0919999999999996 L 13.408 -1.7999999999999998 Z M 12.336 -5.84 C 12.330666666666666 -5.957333333333333, 12.326666666666664 -6.071999999999999, 12.324 -6.184 C 12.321333333333332 -6.295999999999999, 12.319333333333333 -6.401999999999999, 12.318 -6.502 C 12.316666666666666 -6.602, 12.317333333333334 -6.698666666666666, 12.32 -6.792 C 12.338666666666668 -7.279999999999999, 12.455333333333336 -7.639333333333333, 12.67 -7.87 C 12.884666666666668 -8.100666666666667, 13.221333333333334 -8.233333333333334, 13.68 -8.268 L 13.68 -7.3759999999999994 C 13.584 -7.346666666666666, 13.513333333333332 -7.3, 13.468 -7.236 C 13.422666666666668 -7.172, 13.398666666666667 -7.094666666666667, 13.396 -7.004 C 13.390666666666666 -6.795999999999999, 13.387333333333332 -6.602666666666666, 13.386 -6.424 C 13.384666666666666 -6.245333333333333, 13.389333333333333 -6.050666666666666, 13.4 -5.84 Z M 13.911999999999999 -1.7999999999999998 L 13.911999999999999 -2.7319999999999998 L 15.508 -2.7319999999999998 L 15.508 -1.7999999999999998 Z M 16.18 -3.2159999999999997 C 16.174666666666667 -3.389333333333333, 16.173333333333332 -3.528666666666667, 16.176 -3.634 C 16.178666666666665 -3.7393333333333336, 16.181333333333335 -3.841333333333333, 16.183999999999997 -3.94 L 17.264 -3.94 C 17.256 -3.8626666666666667, 17.25 -3.7666666666666666, 17.246 -3.6519999999999997 C 17.241999999999997 -3.5373333333333328, 17.240666666666666 -3.4266666666666667, 17.241999999999997 -3.32 C 17.243333333333332 -3.213333333333334, 17.246666666666666 -3.1333333333333337, 17.252 -3.08 C 17.262666666666668 -2.96, 17.297333333333334 -2.862, 17.355999999999998 -2.7859999999999996 C 17.414666666666665 -2.71, 17.497333333333334 -2.6559999999999997, 17.604 -2.6239999999999997 L 17.604 -1.7319999999999998 C 17.110666666666663 -1.7693333333333332, 16.75333333333333 -1.904, 16.532 -2.1359999999999997 C 16.310666666666666 -2.368, 16.19333333333333 -2.7279999999999998, 16.18 -3.2159999999999997 Z M 16.279999999999998 -4.552 L 16.279999999999998 -8.2 L 17.348 -8.2 L 17.348 -4.552 Z M 17.852 -4.976 L 17.852 -5.731999999999999 C 17.929333333333332 -5.771999999999999, 18.014666666666667 -5.804, 18.107999999999997 -5.828 C 18.20133333333333 -5.852, 18.301333333333332 -5.864, 18.407999999999998 -5.864 C 18.773333333333333 -5.864, 19.047333333333334 -5.748666666666667, 19.23 -5.518 C 19.412666666666667 -5.287333333333333, 19.514666666666663 -4.973333333333333, 19.535999999999998 -4.576 C 19.546666666666667 -4.416, 19.55333333333333 -4.257333333333333, 19.555999999999997 -4.1 C 19.558666666666664 -3.9426666666666668, 19.557333333333332 -3.7893333333333334, 19.552 -3.6399999999999997 C 19.546666666666667 -3.490666666666667, 19.538666666666668 -3.3506666666666667, 19.528 -3.2199999999999998 C 19.482666666666667 -2.721333333333333, 19.353333333333335 -2.356, 19.14 -2.1239999999999997 C 18.926666666666666 -1.892, 18.581333333333333 -1.7613333333333332, 18.104 -1.7319999999999998 L 18.104 -2.6239999999999997 C 18.21333333333333 -2.653333333333333, 18.296 -2.7059999999999995, 18.352 -2.782 C 18.408 -2.8579999999999997, 18.44 -2.957333333333333, 18.448 -3.08 C 18.471999999999998 -3.3706666666666667, 18.485999999999997 -3.6319999999999997, 18.49 -3.864 C 18.494 -4.096, 18.485333333333333 -4.317333333333333, 18.464 -4.5280000000000005 C 18.447999999999997 -4.682666666666667, 18.396666666666665 -4.798, 18.31 -4.874 C 18.223333333333333 -4.949999999999999, 18.090666666666664 -4.9879999999999995, 17.912 -4.9879999999999995 C 17.901333333333334 -4.9879999999999995, 17.890666666666668 -4.986666666666666, 17.88 -4.984 C 17.86933333333333 -4.981333333333334, 17.86 -4.978666666666667, 17.852 -4.976 Z M 17.852 -7.268 L 17.852 -8.2 L 19.439999999999998 -8.2 L 19.439999999999998 -7.268 Z M 21.944 -1.7999999999999998 L 21.944 -8.2 L 23.003999999999998 -8.2 L 23.003999999999998 -1.7999999999999998 Z " stroke="none" fill-rule="nonzero" fill="#000000" fill-opacity="1" transform="matrix(1,0,0,1,5.05,13.314)" id="text25 l" />
  <path d="M -5 -13.264 L 30 -13.264 L 30 357.9055934920299 L -5 357.9055934920299 Z " stroke="#FF0000" stroke-opacity="1" stroke-width="0.1" stroke-linecap="butt" stroke-linejoin="miter" fill="none" transform="matrix(1,0,0,1,5.05,13.314)" />
</svg>