<?xml version="1.0" encoding="UTF-8"?>
<svg xmlns:xlink="http://www.w3.org/1999/xlink" viewBox="0 0 35.1 282.7022883364958" version="1.1" style="font-synthesis: none;" width="35.1mm" height="282.7022883364958mm" xmlns="http://www.w3.org/2000/svg">
  <defs />
  <style>	</style>
  <path d="M 0 0 L 35.1 0 L 35.1 282.7022883364958 L 0 282.7022883364958 Z " stroke="none" fill-rule="nonzero" fill="#FFFFFF" fill-opacity="1" transform="matrix(1,0,0,1,0,0)" />
  <path d="M 0 261.8202883364958 L 10 261.8202883364958 L 10 263.3202883364958 L 0 263.3202883364958 Z " stroke="none" fill-rule="evenodd" fill="#000000" fill-opacity="1" transform="matrix(1,0,0,1,5.05,13.314)" id="mark1 l" />
  <path d="M 0 252.76614046282356 L 10 252.76614046282356 L 10 254.26614046282356 L 0 254.26614046282356 Z " stroke="none" fill-rule="evenodd" fill="#000000" fill-opacity="1" transform="matrix(1,0,0,1,5.05,13.314)" id="mark2 l" />
  <path d="M 0 243.7119925891513 L 10 243.7119925891513 L 10 245.2119925891513 L 0 245.2119925891513 Z " stroke="none" fill-rule="evenodd" fill="#000000" fill-opacity="1" transform="matrix(1,0,0,1,5.05,13.314)" id="mark3 l" />
  <path d="M 0 234.657844715479 L 10 234.657844715479 L 10 236.157844715479 L 0 236.157844715479 Z " stroke="none" fill-rule="evenodd" fill="#000000" fill-opacity="1" transform="matrix(1,0,0,1,5.05,13.314)" id="mark4 l" />
  <path d="M 0 225.60369684180674 L 25 225.60369684180674 L 25 227.10369684180674 L 0 227.10369684180674 Z " stroke="none" fill-rule="evenodd" fill="#000000" fill-opacity="1" transform="matrix(1,0,0,1,5.05,13.314)" id="mark5 l" />
  <path d="M 16.18 223.10569684180675 C 16.174666666666667 222.93236350847343, 16.173333333333332 222.79303017514007, 16.176 222.68769684180674 C 16.178666666666665 222.5823635084734, 16.181333333333335 222.48036350847343, 16.183999999999997 222.38169684180676 L 17.264 222.38169684180676 C 17.256 222.45903017514007, 17.25 222.55503017514008, 17.246 222.66969684180674 C 17.241999999999997 222.7843635084734, 17.240666666666666 222.89503017514005, 17.241999999999997 223.00169684180673 C 17.243333333333332 223.10836350847342, 17.246666666666666 223.1883635084734, 17.252 223.24169684180674 C 17.262666666666668 223.36169684180675, 17.297333333333334 223.45969684180676, 17.355999999999998 223.53569684180675 C 17.414666666666665 223.61169684180675, 17.497333333333334 223.66569684180672, 17.604 223.69769684180673 L 17.604 224.58969684180676 C 17.110666666666663 224.55236350847343, 16.75333333333333 224.41769684180673, 16.532 224.18569684180673 C 16.310666666666666 223.95369684180673, 16.19333333333333 223.59369684180677, 16.18 223.10569684180675 Z M 16.279999999999998 221.76969684180673 L 16.279999999999998 218.12169684180674 L 17.348 218.12169684180674 L 17.348 221.76969684180673 Z M 17.852 221.34569684180676 L 17.852 220.58969684180676 C 17.929333333333332 220.54969684180676, 18.014666666666667 220.51769684180675, 18.107999999999997 220.49369684180675 C 18.20133333333333 220.46969684180675, 18.301333333333332 220.45769684180675, 18.407999999999998 220.45769684180675 C 18.773333333333333 220.45769684180675, 19.047333333333334 220.5730301751401, 19.23 220.80369684180675 C 19.412666666666667 221.0343635084734, 19.514666666666663 221.34836350847343, 19.535999999999998 221.74569684180673 C 19.546666666666667 221.90569684180673, 19.55333333333333 222.06436350847343, 19.555999999999997 222.22169684180673 C 19.558666666666664 222.3790301751401, 19.557333333333332 222.5323635084734, 19.552 222.68169684180674 C 19.546666666666667 222.83103017514009, 19.538666666666668 222.97103017514007, 19.528 223.10169684180676 C 19.482666666666667 223.6003635084734, 19.353333333333335 223.96569684180673, 19.14 224.19769684180673 C 18.926666666666666 224.42969684180673, 18.581333333333333 224.56036350847342, 18.104 224.58969684180676 L 18.104 223.69769684180673 C 18.21333333333333 223.66836350847342, 18.296 223.61569684180677, 18.352 223.53969684180674 C 18.408 223.46369684180672, 18.44 223.3643635084734, 18.448 223.24169684180674 C 18.471999999999998 222.9510301751401, 18.485999999999997 222.68969684180672, 18.49 222.45769684180675 C 18.494 222.22569684180672, 18.485333333333333 222.0043635084734, 18.464 221.79369684180674 C 18.447999999999997 221.63903017514008, 18.396666666666665 221.52369684180672, 18.31 221.44769684180673 C 18.223333333333333 221.37169684180674, 18.090666666666664 221.33369684180678, 17.912 221.33369684180676 C 17.901333333333334 221.33369684180678, 17.890666666666668 221.3350301751401, 17.88 221.33769684180675 C 17.86933333333333 221.3403635084734, 17.86 221.3430301751401, 17.852 221.34569684180676 Z M 17.852 219.05369684180675 L 17.852 218.12169684180674 L 19.439999999999998 218.12169684180674 L 19.439999999999998 219.05369684180675 Z M 21.944 224.52169684180674 L 21.944 218.12169684180674 L 23.003999999999998 218.12169684180674 L 23.003999999999998 224.52169684180674 Z " stroke="none" fill-rule="nonzero" fill="#000000" fill-opacity="1" transform="matrix(1,0,0,1,5.05,13.314)" id="text5 l" />
  <path d="M 0 216.54954896813447 L 10 216.54954896813447 L 10 218.04954896813447 L 0 218.04954896813447 Z " stroke="none" fill-rule="evenodd" fill="#000000" fill-opacity="1" transform="matrix(1,0,0,1,5.05,13.314)" id="mark6 l" />
  <path d="M 0 207.4954010944622 L 10 207.4954010944622 L 10 208.9954010944622 L 0 208.9954010944622 Z " stroke="none" fill-rule="evenodd" fill="#000000" fill-opacity="1" transform="matrix(1,0,0,1,5.05,13.314)" id="mark7 l" />
  <path d="M 0 198.44125322078992 L 10 198.44125322078992 L 10 199.94125322078992 L 0 199.94125322078992 Z " stroke="none" fill-rule="evenodd" fill="#000000" fill-opacity="1" transform="matrix(1,0,0,1,5.05,13.314)" id="mark8 l" />
  <path d="M 0 189.38710534711765 L 10 189.38710534711765 L 10 190.88710534711765 L 0 190.88710534711765 Z " stroke="none" fill-rule="evenodd" fill="#000000" fill-opacity="1" transform="matrix(1,0,0,1,5.05,13.314)" id="mark9 l" />
  <path d="M 0 180.3329574734454 L 25 180.3329574734454 L 25 181.8329574734454 L 0 181.8329574734454 Z " stroke="none" fill-rule="evenodd" fill="#000000" fill-opacity="1" transform="matrix(1,0,0,1,5.05,13.314)" id="mark10 l" />
  <path d="M 14.323999999999998 179.2829574734454 L 14.323999999999998 173.83895747344542 L 13.871999999999998 173.83895747344542 L 13.839999999999998 173.4589574734454 L 14.543999999999999 172.8829574734454 L 15.424 172.8829574734454 L 15.424 179.2829574734454 Z M 16.196 177.8709574734454 C 16.188000000000002 177.44162414011208, 16.182666666666666 177.0249574734454, 16.18 176.6209574734454 C 16.177333333333333 176.2169574734454, 16.177999999999997 175.82162414011208, 16.182 175.4349574734454 C 16.186 175.04829080677874, 16.190666666666665 174.6669574734454, 16.196 174.29095747344542 C 16.209333333333333 173.85095747344542, 16.334000000000003 173.50562414011208, 16.57 173.25495747344542 C 16.805999999999997 173.00429080677876, 17.142666666666663 172.8589574734454, 17.58 172.8189574734454 L 17.58 173.7069574734454 C 17.382666666666665 173.76295747344543, 17.281333333333333 173.89229080677876, 17.276 174.09495747344542 C 17.262666666666668 174.46562414011208, 17.253333333333334 174.81362414011207, 17.248 175.1389574734454 C 17.242666666666665 175.46429080677873, 17.24 175.78095747344543, 17.24 176.08895747344542 C 17.24 176.3969574734454, 17.242666666666665 176.71162414011206, 17.248 177.0329574734454 C 17.253333333333334 177.35429080677875, 17.262666666666668 177.69762414011208, 17.276 178.0629574734454 C 17.281333333333333 178.2709574734454, 17.382666666666665 178.4029574734454, 17.58 178.4589574734454 L 17.58 179.3469574734454 C 17.142666666666663 179.3069574734454, 16.805999999999997 179.16095747344542, 16.57 178.9089574734454 C 16.334000000000003 178.6569574734454, 16.209333333333333 178.3109574734454, 16.196 177.8709574734454 Z M 18.084 179.3469574734454 L 18.084 178.4549574734454 C 18.268 178.4016241401121, 18.366666666666667 178.2776241401121, 18.38 178.08295747344542 C 18.398666666666667 177.61629080677875, 18.410666666666668 177.16762414011208, 18.416 176.73695747344541 C 18.421333333333333 176.30629080677875, 18.421333333333333 175.87562414011208, 18.416 175.4449574734454 C 18.410666666666668 175.01429080677875, 18.398666666666667 174.56162414011206, 18.38 174.0869574734454 C 18.374666666666666 173.89229080677873, 18.276 173.76562414011207, 18.084 173.7069574734454 L 18.084 172.8189574734454 C 18.513333333333335 172.8589574734454, 18.846666666666668 173.00429080677876, 19.084 173.25495747344542 C 19.321333333333335 173.50562414011208, 19.445333333333334 173.85095747344542, 19.456 174.29095747344542 C 19.46666666666667 174.60562414011207, 19.474666666666668 174.91562414011207, 19.48 175.2209574734454 C 19.485333333333333 175.52629080677872, 19.488 175.8269574734454, 19.488 176.1229574734454 C 19.488 176.4189574734454, 19.485333333333333 176.71229080677875, 19.48 177.0029574734454 C 19.474666666666668 177.29362414011206, 19.46666666666667 177.5829574734454, 19.456 177.8709574734454 C 19.439999999999998 178.32162414011208, 19.311999999999998 178.67029080677875, 19.072 178.9169574734454 C 18.832 179.16362414011206, 18.502666666666666 179.3069574734454, 18.084 179.3469574734454 Z M 21.944 179.2829574734454 L 21.944 172.8829574734454 L 23.003999999999998 172.8829574734454 L 23.003999999999998 179.2829574734454 Z " stroke="none" fill-rule="nonzero" fill="#000000" fill-opacity="1" transform="matrix(1,0,0,1,5.05,13.314)" id="text10 l" />
  <path d="M 0 171.27880959977313 L 10 171.27880959977313 L 10 172.77880959977313 L 0 172.77880959977313 Z " stroke="none" fill-rule="evenodd" fill="#000000" fill-opacity="1" transform="matrix(1,0,0,1,5.05,13.314)" id="mark11 l" />
  <path d="M 0 162.22466172610086 L 10 162.22466172610086 L 10 163.72466172610086 L 0 163.72466172610086 Z " stroke="none" fill-rule="evenodd" fill="#000000" fill-opacity="1" transform="matrix(1,0,0,1,5.05,13.314)" id="mark12 l" />
  <path d="M 0 153.1705138524286 L 10 153.1705138524286 L 10 154.6705138524286 L 0 154.6705138524286 Z " stroke="none" fill-rule="evenodd" fill="#000000" fill-opacity="1" transform="matrix(1,0,0,1,5.05,13.314)" id="mark13 l" />
  <path d="M 0 144.11636597875633 L 10 144.11636597875633 L 10 145.61636597875633 L 0 145.61636597875633 Z " stroke="none" fill-rule="evenodd" fill="#000000" fill-opacity="1" transform="matrix(1,0,0,1,5.05,13.314)" id="mark14 l" />
  <path d="M 0 135.06221810508404 L 25 135.06221810508404 L 25 136.56221810508404 L 0 136.56221810508404 Z " stroke="none" fill-rule="evenodd" fill="#000000" fill-opacity="1" transform="matrix(1,0,0,1,5.05,13.314)" id="mark15 l" />
  <path d="M 14.331999999999999 133.98021810508405 L 14.331999999999999 128.53621810508406 L 13.879999999999999 128.53621810508406 L 13.847999999999999 128.15621810508404 L 14.552 127.58021810508404 L 15.432 127.58021810508404 L 15.432 133.98021810508405 Z M 16.18 132.56421810508405 C 16.174666666666667 132.39088477175073, 16.173333333333332 132.25155143841738, 16.176 132.14621810508405 C 16.178666666666665 132.0408847717507, 16.181333333333335 131.93888477175074, 16.183999999999997 131.84021810508406 L 17.264 131.84021810508406 C 17.256 131.91755143841738, 17.25 132.01355143841738, 17.246 132.12821810508404 C 17.241999999999997 132.2428847717507, 17.240666666666666 132.35355143841736, 17.241999999999997 132.46021810508404 C 17.243333333333332 132.56688477175072, 17.246666666666666 132.6468847717507, 17.252 132.70021810508405 C 17.262666666666668 132.82021810508405, 17.297333333333334 132.91821810508407, 17.355999999999998 132.99421810508406 C 17.414666666666665 133.07021810508405, 17.497333333333334 133.12421810508403, 17.604 133.15621810508404 L 17.604 134.04821810508406 C 17.110666666666663 134.01088477175074, 16.75333333333333 133.87621810508404, 16.532 133.64421810508404 C 16.310666666666666 133.41221810508404, 16.19333333333333 133.05221810508405, 16.18 132.56421810508405 Z M 16.279999999999998 131.22821810508404 L 16.279999999999998 127.58021810508404 L 17.348 127.58021810508404 L 17.348 131.22821810508404 Z M 17.852 130.80421810508406 L 17.852 130.04821810508406 C 17.929333333333332 130.00821810508407, 18.014666666666667 129.97621810508406, 18.107999999999997 129.95221810508406 C 18.20133333333333 129.92821810508406, 18.301333333333332 129.91621810508406, 18.407999999999998 129.91621810508406 C 18.773333333333333 129.91621810508406, 19.047333333333334 130.0315514384174, 19.23 130.26221810508406 C 19.412666666666667 130.4928847717507, 19.514666666666663 130.80688477175073, 19.535999999999998 131.20421810508404 C 19.546666666666667 131.36421810508403, 19.55333333333333 131.5228847717507, 19.555999999999997 131.68021810508404 C 19.558666666666664 131.8375514384174, 19.557333333333332 131.99088477175073, 19.552 132.14021810508405 C 19.546666666666667 132.28955143841736, 19.538666666666668 132.42955143841738, 19.528 132.56021810508406 C 19.482666666666667 133.0588847717507, 19.353333333333335 133.42421810508404, 19.14 133.65621810508404 C 18.926666666666666 133.88821810508404, 18.581333333333333 134.01888477175072, 18.104 134.04821810508406 L 18.104 133.15621810508404 C 18.21333333333333 133.12688477175072, 18.296 133.07421810508404, 18.352 132.99821810508405 C 18.408 132.92221810508406, 18.44 132.82288477175072, 18.448 132.70021810508405 C 18.471999999999998 132.40955143841737, 18.485999999999997 132.14821810508403, 18.49 131.91621810508406 C 18.494 131.68421810508403, 18.485333333333333 131.4628847717507, 18.464 131.25221810508404 C 18.447999999999997 131.09755143841738, 18.396666666666665 130.98221810508403, 18.31 130.90621810508404 C 18.223333333333333 130.83021810508404, 18.090666666666664 130.79221810508406, 17.912 130.79221810508406 C 17.901333333333334 130.79221810508406, 17.890666666666668 130.7935514384174, 17.88 130.79621810508405 C 17.86933333333333 130.7988847717507, 17.86 130.8015514384174, 17.852 130.80421810508406 Z M 17.852 128.51221810508406 L 17.852 127.58021810508404 L 19.439999999999998 127.58021810508404 L 19.439999999999998 128.51221810508406 Z M 21.944 133.98021810508405 L 21.944 127.58021810508404 L 23.003999999999998 127.58021810508404 L 23.003999999999998 133.98021810508405 Z " stroke="none" fill-rule="nonzero" fill="#000000" fill-opacity="1" transform="matrix(1,0,0,1,5.05,13.314)" id="text15 l" />
  <path d="M 0 126.00807023141178 L 10 126.00807023141178 L 10 127.50807023141178 L 0 127.50807023141178 Z " stroke="none" fill-rule="evenodd" fill="#000000" fill-opacity="1" transform="matrix(1,0,0,1,5.05,13.314)" id="mark16 l" />
  <path d="M 0 116.95392235773951 L 10 116.95392235773951 L 10 118.45392235773951 L 0 118.45392235773951 Z " stroke="none" fill-rule="evenodd" fill="#000000" fill-opacity="1" transform="matrix(1,0,0,1,5.05,13.314)" id="mark17 l" />
  <path d="M 0 107.89977448406725 L 10 107.89977448406725 L 10 109.39977448406725 L 0 109.39977448406725 Z " stroke="none" fill-rule="evenodd" fill="#000000" fill-opacity="1" transform="matrix(1,0,0,1,5.05,13.314)" id="mark18 l" />
  <path d="M 0 98.84562661039499 L 10 98.84562661039499 L 10 100.34562661039499 L 0 100.34562661039499 Z " stroke="none" fill-rule="evenodd" fill="#000000" fill-opacity="1" transform="matrix(1,0,0,1,5.05,13.314)" id="mark19 l" />
  <path d="M 0 89.79147873672272 L 25 89.79147873672272 L 25 91.29147873672272 L 0 91.29147873672272 Z " stroke="none" fill-rule="evenodd" fill="#000000" fill-opacity="1" transform="matrix(1,0,0,1,5.05,13.314)" id="mark20 l" />
  <path d="M 12.319999999999999 88.74147873672273 C 12.317333333333334 88.64281207005607, 12.315333333333331 88.5541454033894, 12.313999999999998 88.47547873672272 C 12.312666666666665 88.39681207005606, 12.311333333333334 88.32281207005606, 12.309999999999999 88.25347873672273 C 12.308666666666667 88.1841454033894, 12.308 88.1121454033894, 12.308 88.03747873672273 C 12.308 87.96281207005606, 12.308 87.8781454033894, 12.308 87.78347873672273 C 12.308 87.68881207005606, 12.309333333333335 87.57747873672272, 12.312 87.44947873672272 C 12.32 87.15614540338939, 12.37 86.89414540338939, 12.462 86.66347873672272 C 12.554 86.43281207005606, 12.687999999999999 86.22681207005606, 12.863999999999999 86.04547873672273 C 13.04 85.86414540338939, 13.257333333333333 85.70281207005605, 13.515999999999998 85.56147873672272 L 14.047999999999998 85.27347873672272 C 14.234666666666666 85.17214540338938, 14.354 85.0501454033894, 14.405999999999999 84.90747873672272 C 14.457999999999998 84.76481207005605, 14.488 84.63081207005607, 14.495999999999999 84.50547873672272 C 14.506666666666664 84.35881207005605, 14.512666666666664 84.20214540338938, 14.514 84.03547873672272 C 14.51533333333333 83.86881207005607, 14.511999999999997 83.7121454033894, 14.504 83.56547873672272 C 14.498666666666665 83.46147873672274, 14.468666666666666 83.37547873672273, 14.413999999999998 83.30747873672273 C 14.359333333333332 83.23947873672273, 14.279999999999998 83.19081207005605, 14.175999999999998 83.16147873672273 L 14.175999999999998 82.27347873672272 C 14.663999999999998 82.30547873672273, 15.014 82.43681207005606, 15.225999999999999 82.66747873672273 C 15.437999999999999 82.89814540338939, 15.554666666666666 83.25881207005607, 15.575999999999999 83.74947873672272 C 15.578666666666663 83.81347873672273, 15.580666666666666 83.87881207005606, 15.581999999999999 83.94547873672272 C 15.583333333333332 84.01214540338938, 15.584 84.07681207005606, 15.584 84.13947873672272 C 15.584 84.2021454033894, 15.583333333333332 84.26414540338939, 15.581999999999999 84.32547873672273 C 15.580666666666666 84.38681207005607, 15.578666666666663 84.44681207005607, 15.575999999999999 84.50547873672272 C 15.565333333333331 84.79081207005606, 15.512 85.03747873672273, 15.415999999999999 85.24547873672273 C 15.32 85.45347873672273, 15.19 85.63347873672272, 15.026 85.78547873672272 C 14.862 85.93747873672272, 14.672 86.07347873672273, 14.456 86.19347873672272 L 13.851999999999999 86.52147873672273 C 13.737333333333332 86.58281207005606, 13.647333333333332 86.66681207005607, 13.581999999999999 86.77347873672272 C 13.516666666666666 86.88014540338938, 13.469999999999999 86.99347873672272, 13.441999999999998 87.11347873672273 C 13.413999999999998 87.23347873672273, 13.399999999999999 87.34547873672273, 13.399999999999999 87.44947873672272 L 13.399999999999999 88.74147873672273 Z M 12.328 84.70147873672272 C 12.322666666666667 84.5841454033894, 12.318666666666665 84.46947873672273, 12.315999999999999 84.35747873672273 C 12.313333333333333 84.24547873672272, 12.311333333333334 84.13947873672272, 12.309999999999999 84.03947873672273 C 12.308666666666667 83.93947873672272, 12.309333333333335 83.84281207005606, 12.312 83.74947873672272 C 12.330666666666666 83.26147873672272, 12.447333333333333 82.9021454033894, 12.661999999999999 82.67147873672272 C 12.876666666666665 82.44081207005607, 13.213333333333331 82.3081454033894, 13.671999999999999 82.27347873672272 L 13.671999999999999 83.16547873672273 C 13.576 83.19481207005606, 13.505333333333333 83.24147873672273, 13.459999999999999 83.30547873672273 C 13.414666666666665 83.36947873672273, 13.390666666666664 83.44681207005607, 13.387999999999998 83.53747873672273 C 13.382666666666665 83.74547873672273, 13.379333333333333 83.93881207005606, 13.378 84.11747873672273 C 13.376666666666667 84.2961454033894, 13.381333333333334 84.49081207005607, 13.392 84.70147873672272 Z M 13.904 88.74147873672273 L 13.904 87.80947873672272 L 15.5 87.80947873672272 L 15.5 88.74147873672273 Z M 16.196 87.32947873672272 C 16.188000000000002 86.90014540338939, 16.182666666666666 86.48347873672273, 16.18 86.07947873672272 C 16.177333333333333 85.67547873672272, 16.177999999999997 85.28014540338938, 16.182 84.89347873672273 C 16.186 84.50681207005607, 16.190666666666665 84.12547873672273, 16.196 83.74947873672272 C 16.209333333333333 83.30947873672272, 16.334000000000003 82.9641454033894, 16.57 82.71347873672272 C 16.805999999999997 82.46281207005606, 17.142666666666663 82.31747873672273, 17.58 82.27747873672273 L 17.58 83.16547873672273 C 17.382666666666665 83.22147873672273, 17.281333333333333 83.35081207005605, 17.276 83.55347873672272 C 17.262666666666668 83.92414540338939, 17.253333333333334 84.27214540338939, 17.248 84.59747873672272 C 17.242666666666665 84.92281207005605, 17.24 85.23947873672272, 17.24 85.54747873672272 C 17.24 85.85547873672273, 17.242666666666665 86.1701454033894, 17.248 86.49147873672273 C 17.253333333333334 86.81281207005605, 17.262666666666668 87.15614540338939, 17.276 87.52147873672273 C 17.281333333333333 87.72947873672273, 17.382666666666665 87.86147873672273, 17.58 87.91747873672273 L 17.58 88.80547873672272 C 17.142666666666663 88.76547873672273, 16.805999999999997 88.61947873672273, 16.57 88.36747873672273 C 16.334000000000003 88.11547873672274, 16.209333333333333 87.76947873672273, 16.196 87.32947873672272 Z M 18.084 88.80547873672272 L 18.084 87.91347873672272 C 18.268 87.8601454033894, 18.366666666666667 87.7361454033894, 18.38 87.54147873672272 C 18.398666666666667 87.07481207005605, 18.410666666666668 86.62614540338939, 18.416 86.19547873672272 C 18.421333333333333 85.76481207005605, 18.421333333333333 85.3341454033894, 18.416 84.90347873672273 C 18.410666666666668 84.47281207005607, 18.398666666666667 84.02014540338939, 18.38 83.54547873672273 C 18.374666666666666 83.35081207005607, 18.276 83.2241454033894, 18.084 83.16547873672273 L 18.084 82.27747873672273 C 18.513333333333335 82.31747873672273, 18.846666666666668 82.46281207005606, 19.084 82.71347873672272 C 19.321333333333335 82.9641454033894, 19.445333333333334 83.30947873672272, 19.456 83.74947873672272 C 19.46666666666667 84.06414540338939, 19.474666666666668 84.37414540338939, 19.48 84.67947873672273 C 19.485333333333333 84.98481207005607, 19.488 85.28547873672272, 19.488 85.58147873672273 C 19.488 85.87747873672274, 19.485333333333333 86.17081207005606, 19.48 86.46147873672273 C 19.474666666666668 86.75214540338939, 19.46666666666667 87.04147873672272, 19.456 87.32947873672272 C 19.439999999999998 87.78014540338938, 19.311999999999998 88.12881207005606, 19.072 88.37547873672273 C 18.832 88.6221454033894, 18.502666666666666 88.76547873672273, 18.084 88.80547873672272 Z M 21.944 88.74147873672273 L 21.944 82.34147873672272 L 23.003999999999998 82.34147873672272 L 23.003999999999998 88.74147873672273 Z " stroke="none" fill-rule="nonzero" fill="#000000" fill-opacity="1" transform="matrix(1,0,0,1,5.05,13.314)" id="text20 l" />
  <path d="M 0 80.73733086305043 L 10 80.73733086305043 L 10 82.23733086305043 L 0 82.23733086305043 Z " stroke="none" fill-rule="evenodd" fill="#000000" fill-opacity="1" transform="matrix(1,0,0,1,5.05,13.314)" id="mark21 l" />
  <path d="M 0 71.68318298937817 L 10 71.68318298937817 L 10 73.18318298937817 L 0 73.18318298937817 Z " stroke="none" fill-rule="evenodd" fill="#000000" fill-opacity="1" transform="matrix(1,0,0,1,5.05,13.314)" id="mark22 l" />
  <path d="M 0 62.6290351157059 L 10 62.6290351157059 L 10 64.1290351157059 L 0 64.1290351157059 Z " stroke="none" fill-rule="evenodd" fill="#000000" fill-opacity="1" transform="matrix(1,0,0,1,5.05,13.314)" id="mark23 l" />
  <path d="M 0 53.57488724203364 L 10 53.57488724203364 L 10 55.07488724203364 L 0 55.07488724203364 Z " stroke="none" fill-rule="evenodd" fill="#000000" fill-opacity="1" transform="matrix(1,0,0,1,5.05,13.314)" id="mark24 l" />
  <path d="M 0 44.520739368361376 L 25 44.520739368361376 L 25 46.020739368361376 L 0 46.020739368361376 Z " stroke="none" fill-rule="evenodd" fill="#000000" fill-opacity="1" transform="matrix(1,0,0,1,5.05,13.314)" id="mark25 l" />
  <path d="M 12.328 43.47073936836138 C 12.325333333333333 43.372072701694705, 12.323333333333332 43.283406035028044, 12.322 43.20473936836138 C 12.320666666666666 43.12607270169471, 12.319333333333333 43.05207270169471, 12.318 42.98273936836138 C 12.316666666666666 42.913406035028046, 12.315999999999999 42.841406035028044, 12.316 42.76673936836138 C 12.315999999999999 42.69207270169471, 12.315999999999999 42.60740603502805, 12.316 42.51273936836138 C 12.315999999999999 42.41807270169471, 12.317333333333334 42.30673936836138, 12.32 42.17873936836138 C 12.328 41.88540603502804, 12.378 41.62340603502804, 12.47 41.392739368361376 C 12.562000000000001 41.16207270169471, 12.696 40.956072701694715, 12.872 40.77473936836138 C 13.048 40.593406035028046, 13.265333333333334 40.43207270169471, 13.524000000000001 40.29073936836138 L 14.056000000000001 40.002739368361375 C 14.242666666666668 39.901406035028046, 14.362000000000002 39.779406035028046, 14.414 39.636739368361376 C 14.466000000000001 39.49407270169471, 14.495999999999999 39.36007270169471, 14.504 39.23473936836138 C 14.514666666666667 39.08807270169471, 14.520666666666667 38.93140603502804, 14.522 38.764739368361376 C 14.523333333333333 38.59807270169471, 14.520000000000001 38.441406035028045, 14.512 38.29473936836138 C 14.506666666666666 38.19073936836138, 14.476666666666667 38.10473936836138, 14.422 38.03673936836138 C 14.367333333333335 37.968739368361376, 14.288 37.92007270169471, 14.184000000000001 37.89073936836138 L 14.184000000000001 37.002739368361375 C 14.672 37.03473936836138, 15.022000000000002 37.16607270169471, 15.234 37.39673936836138 C 15.446000000000002 37.627406035028045, 15.562666666666667 37.98807270169471, 15.584 38.47873936836138 C 15.586666666666668 38.54273936836138, 15.588666666666668 38.60807270169471, 15.59 38.67473936836138 C 15.591333333333335 38.74140603502805, 15.592000000000002 38.80607270169471, 15.592 38.868739368361375 C 15.592000000000002 38.93140603502804, 15.591333333333335 38.993406035028045, 15.59 39.05473936836138 C 15.588666666666668 39.11607270169471, 15.586666666666668 39.176072701694714, 15.584 39.23473936836138 C 15.573333333333332 39.520072701694716, 15.52 39.76673936836138, 15.424 39.97473936836138 C 15.328 40.18273936836138, 15.197999999999999 40.36273936836138, 15.033999999999999 40.514739368361376 C 14.87 40.66673936836138, 14.68 40.80273936836137, 14.464 40.92273936836138 L 13.86 41.25073936836138 C 13.745333333333335 41.31207270169471, 13.655333333333335 41.39607270169471, 13.59 41.502739368361375 C 13.524666666666668 41.609406035028044, 13.478000000000002 41.72273936836138, 13.45 41.84273936836138 C 13.422 41.962739368361376, 13.408 42.07473936836138, 13.408 42.17873936836138 L 13.408 43.47073936836138 Z M 12.336 39.43073936836138 C 12.330666666666666 39.313406035028045, 12.326666666666664 39.19873936836138, 12.324 39.08673936836138 C 12.321333333333332 38.97473936836138, 12.319333333333333 38.86873936836138, 12.318 38.76873936836138 C 12.316666666666666 38.66873936836138, 12.317333333333334 38.57207270169471, 12.32 38.47873936836138 C 12.338666666666668 37.990739368361375, 12.455333333333336 37.63140603502804, 12.67 37.40073936836138 C 12.884666666666668 37.170072701694714, 13.221333333333334 37.03740603502805, 13.68 37.002739368361375 L 13.68 37.89473936836138 C 13.584 37.92407270169471, 13.513333333333332 37.97073936836138, 13.468 38.03473936836138 C 13.422666666666668 38.09873936836138, 13.398666666666667 38.17607270169471, 13.396 38.26673936836138 C 13.390666666666666 38.47473936836138, 13.387333333333332 38.66807270169471, 13.386 38.846739368361376 C 13.384666666666666 39.02540603502804, 13.389333333333333 39.22007270169471, 13.4 39.43073936836138 Z M 13.911999999999999 43.47073936836138 L 13.911999999999999 42.53873936836138 L 15.508 42.53873936836138 L 15.508 43.47073936836138 Z M 16.18 42.05473936836138 C 16.174666666666667 41.88140603502804, 16.173333333333332 41.74207270169471, 16.176 41.636739368361376 C 16.178666666666665 41.53140603502804, 16.181333333333335 41.429406035028045, 16.183999999999997 41.33073936836138 L 17.264 41.33073936836138 C 17.256 41.408072701694714, 17.25 41.50407270169471, 17.246 41.61873936836138 C 17.241999999999997 41.73340603502805, 17.240666666666666 41.844072701694714, 17.241999999999997 41.950739368361376 C 17.243333333333332 42.057406035028045, 17.246666666666666 42.13740603502804, 17.252 42.19073936836138 C 17.262666666666668 42.310739368361375, 17.297333333333334 42.40873936836138, 17.355999999999998 42.48473936836138 C 17.414666666666665 42.56073936836138, 17.497333333333334 42.61473936836138, 17.604 42.64673936836138 L 17.604 43.53873936836138 C 17.110666666666663 43.50140603502804, 16.75333333333333 43.36673936836138, 16.532 43.13473936836138 C 16.310666666666666 42.90273936836138, 16.19333333333333 42.54273936836138, 16.18 42.05473936836138 Z M 16.279999999999998 40.718739368361376 L 16.279999999999998 37.07073936836138 L 17.348 37.07073936836138 L 17.348 40.718739368361376 Z M 17.852 40.29473936836138 L 17.852 39.53873936836138 C 17.929333333333332 39.49873936836138, 18.014666666666667 39.46673936836138, 18.107999999999997 39.44273936836138 C 18.20133333333333 39.41873936836138, 18.301333333333332 39.40673936836138, 18.407999999999998 39.40673936836138 C 18.773333333333333 39.40673936836138, 19.047333333333334 39.52207270169471, 19.23 39.752739368361375 C 19.412666666666667 39.98340603502804, 19.514666666666663 40.29740603502805, 19.535999999999998 40.69473936836138 C 19.546666666666667 40.85473936836138, 19.55333333333333 41.01340603502804, 19.555999999999997 41.17073936836138 C 19.558666666666664 41.32807270169471, 19.557333333333332 41.481406035028044, 19.552 41.630739368361375 C 19.546666666666667 41.78007270169471, 19.538666666666668 41.920072701694714, 19.528 42.05073936836138 C 19.482666666666667 42.54940603502805, 19.353333333333335 42.91473936836138, 19.14 43.14673936836138 C 18.926666666666666 43.37873936836138, 18.581333333333333 43.50940603502805, 18.104 43.53873936836138 L 18.104 42.64673936836138 C 18.21333333333333 42.61740603502805, 18.296 42.56473936836138, 18.352 42.48873936836138 C 18.408 42.41273936836138, 18.44 42.313406035028045, 18.448 42.19073936836138 C 18.471999999999998 41.90007270169471, 18.485999999999997 41.63873936836138, 18.49 41.40673936836138 C 18.494 41.17473936836138, 18.485333333333333 40.953406035028046, 18.464 40.74273936836138 C 18.447999999999997 40.58807270169471, 18.396666666666665 40.47273936836138, 18.31 40.39673936836138 C 18.223333333333333 40.32073936836138, 18.090666666666664 40.282739368361376, 17.912 40.282739368361376 C 17.901333333333334 40.282739368361376, 17.890666666666668 40.28407270169471, 17.88 40.28673936836138 C 17.86933333333333 40.289406035028044, 17.86 40.29207270169471, 17.852 40.29473936836138 Z M 17.852 38.002739368361375 L 17.852 37.07073936836138 L 19.439999999999998 37.07073936836138 L 19.439999999999998 38.002739368361375 Z M 21.944 43.47073936836138 L 21.944 37.07073936836138 L 23.003999999999998 37.07073936836138 L 23.003999999999998 43.47073936836138 Z " stroke="none" fill-rule="nonzero" fill="#000000" fill-opacity="1" transform="matrix(1,0,0,1,5.05,13.314)" id="text25 l" />
  <path d="M 0 35.466591494689084 L 10 35.466591494689084 L 10 36.966591494689084 L 0 36.966591494689084 Z " stroke="none" fill-rule="evenodd" fill="#000000" fill-opacity="1" transform="matrix(1,0,0,1,5.05,13.314)" id="mark26 l" />
  <path d="M 0 26.41244362101682 L 10 26.41244362101682 L 10 27.91244362101682 L 0 27.91244362101682 Z " stroke="none" fill-rule="evenodd" fill="#000000" fill-opacity="1" transform="matrix(1,0,0,1,5.05,13.314)" id="mark27 l" />
  <path d="M 0 17.358295747344556 L 10 17.358295747344556 L 10 18.858295747344556 L 0 18.858295747344556 Z " stroke="none" fill-rule="evenodd" fill="#000000" fill-opacity="1" transform="matrix(1,0,0,1,5.05,13.314)" id="mark28 l" />
  <path d="M 0 8.304147873672264 L 10 8.304147873672264 L 10 9.804147873672264 L 0 9.804147873672264 Z " stroke="none" fill-rule="evenodd" fill="#000000" fill-opacity="1" transform="matrix(1,0,0,1,5.05,13.314)" id="mark29 l" />
  <path d="M 0 -0.75 L 25 -0.75 L 25 0.75 L 0 0.75 Z " stroke="none" fill-rule="evenodd" fill="#000000" fill-opacity="1" transform="matrix(1,0,0,1,5.05,13.314)" id="mark30 l" />
  <path d="M 12.223999999999998 -3.2159999999999997 C 12.221333333333334 -3.317333333333333, 12.219333333333333 -3.4013333333333335, 12.218 -3.468 C 12.216666666666667 -3.5346666666666664, 12.216666666666667 -3.602666666666666, 12.218 -3.6719999999999997 C 12.219333333333333 -3.7413333333333334, 12.221333333333334 -3.8306666666666667, 12.223999999999998 -3.94 L 13.303999999999998 -3.94 L 13.303999999999998 -3.0759999999999996 C 13.303999999999998 -2.8386666666666667, 13.417333333333332 -2.6879999999999997, 13.643999999999998 -2.6239999999999997 L 13.643999999999998 -1.7319999999999998 C 13.155999999999999 -1.7693333333333332, 12.800666666666665 -1.904, 12.578 -2.1359999999999997 C 12.355333333333334 -2.368, 12.237333333333332 -2.7279999999999998, 12.223999999999998 -3.2159999999999997 Z M 12.292 -7.268 L 12.292 -8.2 L 15.536 -8.2 L 15.536 -7.268 Z M 14.143999999999998 -2.6199999999999997 C 14.367999999999999 -2.6759999999999997, 14.483999999999998 -2.826666666666666, 14.491999999999999 -3.072 C 14.497333333333334 -3.2746666666666666, 14.500666666666666 -3.4573333333333336, 14.501999999999999 -3.62 C 14.503333333333332 -3.7826666666666666, 14.498666666666665 -3.94, 14.488 -4.092 C 14.48 -4.2493333333333325, 14.431999999999999 -4.382666666666666, 14.344 -4.492 C 14.256 -4.601333333333333, 14.089333333333332 -4.653333333333332, 13.844 -4.648 L 13.096 -4.64 L 13.068 -5.532 L 14.027999999999999 -6.9159999999999995 L 15.216 -6.9159999999999995 L 14.248 -5.564 L 14.28 -5.564 C 14.712 -5.564, 15.028666666666666 -5.441333333333334, 15.229999999999999 -5.196 C 15.431333333333333 -4.950666666666666, 15.544 -4.573333333333332, 15.568 -4.064 C 15.57333333333333 -3.992, 15.576666666666664 -3.92, 15.578 -3.848 C 15.57933333333333 -3.776, 15.579999999999998 -3.705333333333333, 15.579999999999998 -3.6359999999999997 C 15.579999999999998 -3.5666666666666664, 15.57933333333333 -3.4973333333333336, 15.578 -3.428 C 15.576666666666664 -3.3586666666666662, 15.57333333333333 -3.2879999999999994, 15.568 -3.2159999999999997 C 15.549333333333333 -2.7199999999999998, 15.428666666666665 -2.3553333333333333, 15.206 -2.122 C 14.983333333333334 -1.8886666666666665, 14.630666666666666 -1.7586666666666664, 14.148 -1.7319999999999998 Z M 16.196 -3.2119999999999997 C 16.188000000000002 -3.641333333333333, 16.182666666666666 -4.058, 16.18 -4.462 C 16.177333333333333 -4.866, 16.177999999999997 -5.261333333333333, 16.182 -5.648 C 16.186 -6.034666666666666, 16.190666666666665 -6.416, 16.196 -6.792 C 16.209333333333333 -7.231999999999999, 16.334000000000003 -7.577333333333334, 16.57 -7.828 C 16.805999999999997 -8.078666666666667, 17.142666666666663 -8.224, 17.58 -8.264 L 17.58 -7.3759999999999994 C 17.382666666666665 -7.32, 17.281333333333333 -7.190666666666667, 17.276 -6.9879999999999995 C 17.262666666666668 -6.617333333333333, 17.253333333333334 -6.269333333333333, 17.248 -5.944 C 17.242666666666665 -5.618666666666666, 17.24 -5.302, 17.24 -4.994 C 17.24 -4.686, 17.242666666666665 -4.371333333333333, 17.248 -4.05 C 17.253333333333334 -3.7286666666666664, 17.262666666666668 -3.3853333333333326, 17.276 -3.0199999999999996 C 17.281333333333333 -2.812, 17.382666666666665 -2.6799999999999997, 17.58 -2.6239999999999997 L 17.58 -1.7359999999999998 C 17.142666666666663 -1.7759999999999998, 16.805999999999997 -1.9219999999999997, 16.57 -2.174 C 16.334000000000003 -2.4259999999999997, 16.209333333333333 -2.772, 16.196 -3.2119999999999997 Z M 18.084 -1.7359999999999998 L 18.084 -2.6279999999999997 C 18.268 -2.681333333333333, 18.366666666666667 -2.8053333333333335, 18.38 -3 C 18.398666666666667 -3.4666666666666663, 18.410666666666668 -3.915333333333333, 18.416 -4.346 C 18.421333333333333 -4.776666666666666, 18.421333333333333 -5.207333333333333, 18.416 -5.638 C 18.410666666666668 -6.068666666666666, 18.398666666666667 -6.521333333333333, 18.38 -6.9959999999999996 C 18.374666666666666 -7.190666666666667, 18.276 -7.317333333333334, 18.084 -7.3759999999999994 L 18.084 -8.264 C 18.513333333333335 -8.224, 18.846666666666668 -8.078666666666667, 19.084 -7.828 C 19.321333333333335 -7.577333333333334, 19.445333333333334 -7.231999999999999, 19.456 -6.792 C 19.46666666666667 -6.477333333333332, 19.474666666666668 -6.167333333333333, 19.48 -5.861999999999999 C 19.485333333333333 -5.556666666666667, 19.488 -5.256, 19.488 -4.96 C 19.488 -4.664, 19.485333333333333 -4.370666666666667, 19.48 -4.08 C 19.474666666666668 -3.7893333333333334, 19.46666666666667 -3.5, 19.456 -3.2119999999999997 C 19.439999999999998 -2.761333333333333, 19.311999999999998 -2.4126666666666665, 19.072 -2.166 C 18.832 -1.9193333333333331, 18.502666666666666 -1.7759999999999998, 18.084 -1.7359999999999998 Z M 21.944 -1.7999999999999998 L 21.944 -8.2 L 23.003999999999998 -8.2 L 23.003999999999998 -1.7999999999999998 Z " stroke="none" fill-rule="nonzero" fill="#000000" fill-opacity="1" transform="matrix(1,0,0,1,5.05,13.314)" id="text30 l" />
  <path d="M -5 -13.264 L 30 -13.264 L 30 269.3382883364958 L -5 269.3382883364958 Z " stroke="#FF0000" stroke-opacity="1" stroke-width="0.1" stroke-linecap="butt" stroke-linejoin="miter" fill="none" transform="matrix(1,0,0,1,5.05,13.314)" />
</svg>