<?xml version="1.0" encoding="UTF-8"?>
<svg xmlns:xlink="http://www.w3.org/1999/xlink" viewBox="0 0 35.1 369.70782766693225" version="1.1" style="font-synthesis: none;" width="35.1mm" height="369.70782766693225mm" xmlns="http://www.w3.org/2000/svg">
  <defs />
  <style>	</style>
  <path d="M 0 0 L 35.1 0 L 35.1 369.70782766693225 L 0 369.70782766693225 Z " stroke="none" fill-rule="nonzero" fill="#FFFFFF" fill-opacity="1" transform="matrix(1,0,0,1,0,0)" />
  <path d="M 0 348.82582766693224 L 10 348.82582766693224 L 10 350.32582766693224 L 0 350.32582766693224 Z " stroke="none" fill-rule="evenodd" fill="#000000" fill-opacity="1" transform="matrix(1,0,0,1,5.05,13.314)" id="mark1 l" />
  <path d="M 0 336.77148878186557 L 10 336.77148878186557 L 10 338.27148878186557 L 0 338.27148878186557 Z " stroke="none" fill-rule="evenodd" fill="#000000" fill-opacity="1" transform="matrix(1,0,0,1,5.05,13.314)" id="mark2 l" />
  <path d="M 0 324.71714989679896 L 10 324.71714989679896 L 10 326.21714989679896 L 0 326.21714989679896 Z " stroke="none" fill-rule="evenodd" fill="#000000" fill-opacity="1" transform="matrix(1,0,0,1,5.05,13.314)" id="mark3 l" />
  <path d="M 0 312.66281101173234 L 10 312.66281101173234 L 10 314.16281101173234 L 0 314.16281101173234 Z " stroke="none" fill-rule="evenodd" fill="#000000" fill-opacity="1" transform="matrix(1,0,0,1,5.05,13.314)" id="mark4 l" />
  <path d="M 0 300.60847212666573 L 25 300.60847212666573 L 25 302.10847212666573 L 0 302.10847212666573 Z " stroke="none" fill-rule="evenodd" fill="#000000" fill-opacity="1" transform="matrix(1,0,0,1,5.05,13.314)" id="mark5 l" />
  <path d="M 16.18 298.11047212666574 C 16.174666666666667 297.9371387933324, 16.173333333333332 297.79780545999904, 16.176 297.69247212666573 C 16.178666666666665 297.58713879333243, 16.181333333333335 297.4851387933324, 16.183999999999997 297.38647212666575 L 17.264 297.38647212666575 C 17.256 297.4638054599991, 17.25 297.5598054599991, 17.246 297.67447212666576 C 17.241999999999997 297.7891387933324, 17.240666666666666 297.8998054599991, 17.241999999999997 298.00647212666576 C 17.243333333333332 298.1131387933324, 17.246666666666666 298.1931387933324, 17.252 298.24647212666576 C 17.262666666666668 298.3664721266657, 17.297333333333334 298.4644721266657, 17.355999999999998 298.54047212666575 C 17.414666666666665 298.6164721266657, 17.497333333333334 298.67047212666574, 17.604 298.7024721266657 L 17.604 299.5944721266657 C 17.110666666666663 299.5571387933324, 16.75333333333333 299.42247212666575, 16.532 299.1904721266657 C 16.310666666666666 298.9584721266657, 16.19333333333333 298.59847212666574, 16.18 298.11047212666574 Z M 16.279999999999998 296.7744721266657 L 16.279999999999998 293.12647212666576 L 17.348 293.12647212666576 L 17.348 296.7744721266657 Z M 17.852 296.35047212666575 L 17.852 295.5944721266657 C 17.929333333333332 295.5544721266657, 18.014666666666667 295.5224721266657, 18.107999999999997 295.4984721266657 C 18.20133333333333 295.4744721266657, 18.301333333333332 295.4624721266657, 18.407999999999998 295.4624721266657 C 18.773333333333333 295.4624721266657, 19.047333333333334 295.57780545999907, 19.23 295.8084721266657 C 19.412666666666667 296.03913879333237, 19.514666666666663 296.3531387933324, 19.535999999999998 296.7504721266657 C 19.546666666666667 296.91047212666575, 19.55333333333333 297.0691387933324, 19.555999999999997 297.2264721266657 C 19.558666666666664 297.38380545999905, 19.557333333333332 297.5371387933324, 19.552 297.68647212666576 C 19.546666666666667 297.8358054599991, 19.538666666666668 297.9758054599991, 19.528 298.1064721266657 C 19.482666666666667 298.6051387933324, 19.353333333333335 298.97047212666575, 19.14 299.2024721266657 C 18.926666666666666 299.4344721266657, 18.581333333333333 299.5651387933324, 18.104 299.5944721266657 L 18.104 298.7024721266657 C 18.21333333333333 298.6731387933324, 18.296 298.62047212666573, 18.352 298.5444721266657 C 18.408 298.4684721266657, 18.44 298.3691387933324, 18.448 298.24647212666576 C 18.471999999999998 297.95580545999906, 18.485999999999997 297.69447212666574, 18.49 297.4624721266657 C 18.494 297.23047212666575, 18.485333333333333 297.00913879333245, 18.464 296.79847212666573 C 18.447999999999997 296.64380545999904, 18.396666666666665 296.52847212666575, 18.31 296.4524721266657 C 18.223333333333333 296.37647212666576, 18.090666666666664 296.33847212666575, 17.912 296.33847212666575 C 17.901333333333334 296.33847212666575, 17.890666666666668 296.33980545999907, 17.88 296.3424721266657 C 17.86933333333333 296.3451387933324, 17.86 296.34780545999905, 17.852 296.35047212666575 Z M 17.852 294.0584721266657 L 17.852 293.12647212666576 L 19.439999999999998 293.12647212666576 L 19.439999999999998 294.0584721266657 Z M 21.944 299.52647212666574 L 21.944 293.12647212666576 L 23.003999999999998 293.12647212666576 L 23.003999999999998 299.52647212666574 Z " stroke="none" fill-rule="nonzero" fill="#000000" fill-opacity="1" transform="matrix(1,0,0,1,5.05,13.314)" id="text5 l" />
  <path d="M 0 288.55413324159906 L 10 288.55413324159906 L 10 290.05413324159906 L 0 290.05413324159906 Z " stroke="none" fill-rule="evenodd" fill="#000000" fill-opacity="1" transform="matrix(1,0,0,1,5.05,13.314)" id="mark6 l" />
  <path d="M 0 276.49979435653245 L 10 276.49979435653245 L 10 277.99979435653245 L 0 277.99979435653245 Z " stroke="none" fill-rule="evenodd" fill="#000000" fill-opacity="1" transform="matrix(1,0,0,1,5.05,13.314)" id="mark7 l" />
  <path d="M 0 264.44545547146583 L 10 264.44545547146583 L 10 265.94545547146583 L 0 265.94545547146583 Z " stroke="none" fill-rule="evenodd" fill="#000000" fill-opacity="1" transform="matrix(1,0,0,1,5.05,13.314)" id="mark8 l" />
  <path d="M 0 252.3911165863992 L 10 252.3911165863992 L 10 253.8911165863992 L 0 253.8911165863992 Z " stroke="none" fill-rule="evenodd" fill="#000000" fill-opacity="1" transform="matrix(1,0,0,1,5.05,13.314)" id="mark9 l" />
  <path d="M 0 240.33677770133255 L 25 240.33677770133255 L 25 241.83677770133255 L 0 241.83677770133255 Z " stroke="none" fill-rule="evenodd" fill="#000000" fill-opacity="1" transform="matrix(1,0,0,1,5.05,13.314)" id="mark10 l" />
  <path d="M 14.323999999999998 239.28677770133257 L 14.323999999999998 233.84277770133258 L 13.871999999999998 233.84277770133258 L 13.839999999999998 233.46277770133256 L 14.543999999999999 232.88677770133256 L 15.424 232.88677770133256 L 15.424 239.28677770133257 Z M 16.196 237.87477770133256 C 16.188000000000002 237.44544436799922, 16.182666666666666 237.02877770133256, 16.18 236.62477770133256 C 16.177333333333333 236.22077770133257, 16.177999999999997 235.82544436799924, 16.182 235.43877770133255 C 16.186 235.05211103466593, 16.190666666666665 234.67077770133258, 16.196 234.29477770133258 C 16.209333333333333 233.85477770133258, 16.334000000000003 233.50944436799927, 16.57 233.25877770133258 C 16.805999999999997 233.0081110346659, 17.142666666666663 232.86277770133256, 17.58 232.82277770133257 L 17.58 233.71077770133257 C 17.382666666666665 233.76677770133256, 17.281333333333333 233.89611103466592, 17.276 234.09877770133258 C 17.262666666666668 234.46944436799924, 17.253333333333334 234.8174443679992, 17.248 235.14277770133256 C 17.242666666666665 235.46811103466587, 17.24 235.78477770133256, 17.24 236.09277770133258 C 17.24 236.40077770133257, 17.242666666666665 236.71544436799923, 17.248 237.03677770133257 C 17.253333333333334 237.3581110346659, 17.262666666666668 237.70144436799922, 17.276 238.06677770133257 C 17.281333333333333 238.2747777013326, 17.382666666666665 238.40677770133257, 17.58 238.46277770133256 L 17.58 239.35077770133256 C 17.142666666666663 239.31077770133254, 16.805999999999997 239.16477770133255, 16.57 238.91277770133257 C 16.334000000000003 238.66077770133256, 16.209333333333333 238.31477770133256, 16.196 237.87477770133256 Z M 18.084 239.35077770133256 L 18.084 238.45877770133256 C 18.268 238.40544436799922, 18.366666666666667 238.28144436799926, 18.38 238.08677770133258 C 18.398666666666667 237.6201110346659, 18.410666666666668 237.17144436799924, 18.416 236.74077770133258 C 18.421333333333333 236.3101110346659, 18.421333333333333 235.8794443679992, 18.416 235.44877770133257 C 18.410666666666668 235.01811103466588, 18.398666666666667 234.56544436799925, 18.38 234.09077770133257 C 18.374666666666666 233.89611103466592, 18.276 233.76944436799926, 18.084 233.71077770133257 L 18.084 232.82277770133257 C 18.513333333333335 232.86277770133256, 18.846666666666668 233.0081110346659, 19.084 233.25877770133258 C 19.321333333333335 233.50944436799927, 19.445333333333334 233.85477770133258, 19.456 234.29477770133258 C 19.46666666666667 234.60944436799923, 19.474666666666668 234.91944436799923, 19.48 235.22477770133256 C 19.485333333333333 235.53011103466588, 19.488 235.83077770133258, 19.488 236.12677770133257 C 19.488 236.42277770133256, 19.485333333333333 236.7161110346659, 19.48 237.00677770133257 C 19.474666666666668 237.29744436799925, 19.46666666666667 237.58677770133258, 19.456 237.87477770133256 C 19.439999999999998 238.32544436799924, 19.311999999999998 238.67411103466588, 19.072 238.92077770133255 C 18.832 239.16744436799922, 18.502666666666666 239.31077770133254, 18.084 239.35077770133256 Z M 21.944 239.28677770133257 L 21.944 232.88677770133256 L 23.003999999999998 232.88677770133256 L 23.003999999999998 239.28677770133257 Z " stroke="none" fill-rule="nonzero" fill="#000000" fill-opacity="1" transform="matrix(1,0,0,1,5.05,13.314)" id="text10 l" />
  <path d="M 0 228.28243881626594 L 10 228.28243881626594 L 10 229.78243881626594 L 0 229.78243881626594 Z " stroke="none" fill-rule="evenodd" fill="#000000" fill-opacity="1" transform="matrix(1,0,0,1,5.05,13.314)" id="mark11 l" />
  <path d="M 0 216.2280999311993 L 10 216.2280999311993 L 10 217.7280999311993 L 0 217.7280999311993 Z " stroke="none" fill-rule="evenodd" fill="#000000" fill-opacity="1" transform="matrix(1,0,0,1,5.05,13.314)" id="mark12 l" />
  <path d="M 0 204.17376104613268 L 10 204.17376104613268 L 10 205.67376104613268 L 0 205.67376104613268 Z " stroke="none" fill-rule="evenodd" fill="#000000" fill-opacity="1" transform="matrix(1,0,0,1,5.05,13.314)" id="mark13 l" />
  <path d="M 0 192.11942216106604 L 10 192.11942216106604 L 10 193.61942216106604 L 0 193.61942216106604 Z " stroke="none" fill-rule="evenodd" fill="#000000" fill-opacity="1" transform="matrix(1,0,0,1,5.05,13.314)" id="mark14 l" />
  <path d="M 0 180.06508327599943 L 25 180.06508327599943 L 25 181.56508327599943 L 0 181.56508327599943 Z " stroke="none" fill-rule="evenodd" fill="#000000" fill-opacity="1" transform="matrix(1,0,0,1,5.05,13.314)" id="mark15 l" />
  <path d="M 14.331999999999999 178.98308327599943 L 14.331999999999999 173.53908327599945 L 13.879999999999999 173.53908327599945 L 13.847999999999999 173.15908327599942 L 14.552 172.58308327599943 L 15.432 172.58308327599943 L 15.432 178.98308327599943 Z M 16.18 177.56708327599944 C 16.174666666666667 177.39374994266612, 16.173333333333332 177.2544166093328, 16.176 177.14908327599943 C 16.178666666666665 177.04374994266612, 16.181333333333335 176.94174994266612, 16.183999999999997 176.84308327599945 L 17.264 176.84308327599945 C 17.256 176.92041660933276, 17.25 177.01641660933277, 17.246 177.13108327599943 C 17.241999999999997 177.2457499426661, 17.240666666666666 177.35641660933277, 17.241999999999997 177.46308327599942 C 17.243333333333332 177.56974994266608, 17.246666666666666 177.6497499426661, 17.252 177.70308327599943 C 17.262666666666668 177.82308327599944, 17.297333333333334 177.92108327599942, 17.355999999999998 177.99708327599944 C 17.414666666666665 178.0730832759994, 17.497333333333334 178.1270832759994, 17.604 178.15908327599942 L 17.604 179.05108327599945 C 17.110666666666663 179.0137499426661, 16.75333333333333 178.87908327599942, 16.532 178.64708327599942 C 16.310666666666666 178.41508327599942, 16.19333333333333 178.05508327599944, 16.18 177.56708327599944 Z M 16.279999999999998 176.23108327599942 L 16.279999999999998 172.58308327599943 L 17.348 172.58308327599943 L 17.348 176.23108327599942 Z M 17.852 175.80708327599945 L 17.852 175.05108327599945 C 17.929333333333332 175.01108327599945, 18.014666666666667 174.97908327599944, 18.107999999999997 174.95508327599944 C 18.20133333333333 174.93108327599944, 18.301333333333332 174.91908327599944, 18.407999999999998 174.91908327599944 C 18.773333333333333 174.91908327599944, 19.047333333333334 175.03441660933277, 19.23 175.26508327599944 C 19.412666666666667 175.4957499426661, 19.514666666666663 175.8097499426661, 19.535999999999998 176.20708327599942 C 19.546666666666667 176.36708327599942, 19.55333333333333 176.5257499426661, 19.555999999999997 176.68308327599942 C 19.558666666666664 176.84041660933278, 19.557333333333332 176.9937499426661, 19.552 177.14308327599943 C 19.546666666666667 177.29241660933275, 19.538666666666668 177.43241660933276, 19.528 177.56308327599945 C 19.482666666666667 178.0617499426661, 19.353333333333335 178.42708327599945, 19.14 178.65908327599942 C 18.926666666666666 178.89108327599945, 18.581333333333333 179.0217499426661, 18.104 179.05108327599945 L 18.104 178.15908327599942 C 18.21333333333333 178.1297499426661, 18.296 178.07708327599943, 18.352 178.00108327599943 C 18.408 177.92508327599944, 18.44 177.8257499426661, 18.448 177.70308327599943 C 18.471999999999998 177.41241660933275, 18.485999999999997 177.15108327599944, 18.49 176.91908327599944 C 18.494 176.68708327599944, 18.485333333333333 176.4657499426661, 18.464 176.25508327599943 C 18.447999999999997 176.10041660933274, 18.396666666666665 175.98508327599941, 18.31 175.90908327599942 C 18.223333333333333 175.83308327599943, 18.090666666666664 175.79508327599945, 17.912 175.79508327599945 C 17.901333333333334 175.79508327599945, 17.890666666666668 175.79641660933277, 17.88 175.79908327599944 C 17.86933333333333 175.8017499426661, 17.86 175.80441660933278, 17.852 175.80708327599945 Z M 17.852 173.51508327599944 L 17.852 172.58308327599943 L 19.439999999999998 172.58308327599943 L 19.439999999999998 173.51508327599944 Z M 21.944 178.98308327599943 L 21.944 172.58308327599943 L 23.003999999999998 172.58308327599943 L 23.003999999999998 178.98308327599943 Z " stroke="none" fill-rule="nonzero" fill="#000000" fill-opacity="1" transform="matrix(1,0,0,1,5.05,13.314)" id="text15 l" />
  <path d="M 0 168.01074439093279 L 10 168.01074439093279 L 10 169.51074439093279 L 0 169.51074439093279 Z " stroke="none" fill-rule="evenodd" fill="#000000" fill-opacity="1" transform="matrix(1,0,0,1,5.05,13.314)" id="mark16 l" />
  <path d="M 0 155.95640550586617 L 10 155.95640550586617 L 10 157.45640550586617 L 0 157.45640550586617 Z " stroke="none" fill-rule="evenodd" fill="#000000" fill-opacity="1" transform="matrix(1,0,0,1,5.05,13.314)" id="mark17 l" />
  <path d="M 0 143.90206662079953 L 10 143.90206662079953 L 10 145.40206662079953 L 0 145.40206662079953 Z " stroke="none" fill-rule="evenodd" fill="#000000" fill-opacity="1" transform="matrix(1,0,0,1,5.05,13.314)" id="mark18 l" />
  <path d="M 0 131.84772773573292 L 10 131.84772773573292 L 10 133.34772773573292 L 0 133.34772773573292 Z " stroke="none" fill-rule="evenodd" fill="#000000" fill-opacity="1" transform="matrix(1,0,0,1,5.05,13.314)" id="mark19 l" />
  <path d="M 0 119.79338885066628 L 25 119.79338885066628 L 25 121.29338885066628 L 0 121.29338885066628 Z " stroke="none" fill-rule="evenodd" fill="#000000" fill-opacity="1" transform="matrix(1,0,0,1,5.05,13.314)" id="mark20 l" />
  <path d="M 12.319999999999999 118.74338885066628 C 12.317333333333334 118.64472218399962, 12.315333333333331 118.55605551733295, 12.313999999999998 118.47738885066627 C 12.312666666666665 118.39872218399961, 12.311333333333334 118.32472218399961, 12.309999999999999 118.25538885066628 C 12.308666666666667 118.18605551733295, 12.308 118.11405551733296, 12.308 118.03938885066628 C 12.308 117.96472218399961, 12.308 117.88005551733295, 12.308 117.78538885066628 C 12.308 117.69072218399961, 12.309333333333335 117.57938885066628, 12.312 117.45138885066628 C 12.32 117.15805551733294, 12.37 116.89605551733294, 12.462 116.66538885066628 C 12.554 116.43472218399961, 12.687999999999999 116.22872218399962, 12.863999999999999 116.04738885066628 C 13.04 115.86605551733294, 13.257333333333333 115.7047221839996, 13.515999999999998 115.56338885066627 L 14.047999999999998 115.27538885066627 C 14.234666666666666 115.17405551733293, 14.354 115.05205551733295, 14.405999999999999 114.90938885066628 C 14.457999999999998 114.7667221839996, 14.488 114.63272218399962, 14.495999999999999 114.50738885066627 C 14.506666666666664 114.3607221839996, 14.512666666666664 114.20405551733293, 14.514 114.03738885066628 C 14.51533333333333 113.87072218399962, 14.511999999999997 113.71405551733295, 14.504 113.56738885066628 C 14.498666666666665 113.46338885066629, 14.468666666666666 113.37738885066628, 14.413999999999998 113.30938885066628 C 14.359333333333332 113.24138885066628, 14.279999999999998 113.1927221839996, 14.175999999999998 113.16338885066628 L 14.175999999999998 112.27538885066627 C 14.663999999999998 112.30738885066629, 15.014 112.4387221839996, 15.225999999999999 112.66938885066628 C 15.437999999999999 112.90005551733296, 15.554666666666666 113.26072218399962, 15.575999999999999 113.75138885066627 C 15.578666666666663 113.81538885066628, 15.580666666666666 113.88072218399961, 15.581999999999999 113.94738885066627 C 15.583333333333332 114.01405551733293, 15.584 114.07872218399962, 15.584 114.14138885066627 C 15.584 114.20405551733296, 15.583333333333332 114.26605551733294, 15.581999999999999 114.32738885066628 C 15.580666666666666 114.38872218399962, 15.578666666666663 114.44872218399962, 15.575999999999999 114.50738885066627 C 15.565333333333331 114.79272218399962, 15.512 115.03938885066628, 15.415999999999999 115.24738885066628 C 15.32 115.45538885066628, 15.19 115.63538885066629, 15.026 115.78738885066628 C 14.862 115.93938885066629, 14.672 116.07538885066629, 14.456 116.19538885066628 L 13.851999999999999 116.52338885066628 C 13.737333333333332 116.58472218399962, 13.647333333333332 116.66872218399962, 13.581999999999999 116.77538885066627 C 13.516666666666666 116.88205551733293, 13.469999999999999 116.99538885066627, 13.441999999999998 117.11538885066628 C 13.413999999999998 117.23538885066628, 13.399999999999999 117.34738885066628, 13.399999999999999 117.45138885066628 L 13.399999999999999 118.74338885066628 Z M 12.328 114.70338885066627 C 12.322666666666667 114.58605551733294, 12.318666666666665 114.47138885066627, 12.315999999999999 114.35938885066628 C 12.313333333333333 114.24738885066628, 12.311333333333334 114.14138885066629, 12.309999999999999 114.04138885066628 C 12.308666666666667 113.94138885066627, 12.309333333333335 113.84472218399961, 12.312 113.75138885066627 C 12.330666666666666 113.26338885066627, 12.447333333333333 112.90405551733295, 12.661999999999999 112.67338885066627 C 12.876666666666665 112.44272218399962, 13.213333333333331 112.31005551733296, 13.671999999999999 112.27538885066627 L 13.671999999999999 113.16738885066628 C 13.576 113.19672218399961, 13.505333333333333 113.24338885066628, 13.459999999999999 113.30738885066629 C 13.414666666666665 113.37138885066628, 13.390666666666664 113.44872218399962, 13.387999999999998 113.53938885066628 C 13.382666666666665 113.74738885066628, 13.379333333333333 113.94072218399961, 13.378 114.11938885066628 C 13.376666666666667 114.29805551733295, 13.381333333333334 114.4927221839996, 13.392 114.70338885066627 Z M 13.904 118.74338885066628 L 13.904 117.81138885066628 L 15.5 117.81138885066628 L 15.5 118.74338885066628 Z M 16.196 117.33138885066627 C 16.188000000000002 116.90205551733294, 16.182666666666666 116.48538885066628, 16.18 116.08138885066627 C 16.177333333333333 115.67738885066626, 16.177999999999997 115.28205551733294, 16.182 114.89538885066628 C 16.186 114.50872218399962, 16.190666666666665 114.12738885066628, 16.196 113.75138885066627 C 16.209333333333333 113.31138885066628, 16.334000000000003 112.96605551733293, 16.57 112.71538885066627 C 16.805999999999997 112.46472218399961, 17.142666666666663 112.31938885066629, 17.58 112.27938885066628 L 17.58 113.16738885066628 C 17.382666666666665 113.22338885066628, 17.281333333333333 113.35272218399962, 17.276 113.55538885066628 C 17.262666666666668 113.92605551733294, 17.253333333333334 114.27405551733293, 17.248 114.59938885066627 C 17.242666666666665 114.92472218399959, 17.24 115.24138885066627, 17.24 115.54938885066628 C 17.24 115.85738885066628, 17.242666666666665 116.17205551733295, 17.248 116.49338885066628 C 17.253333333333334 116.8147221839996, 17.262666666666668 117.15805551733294, 17.276 117.52338885066628 C 17.281333333333333 117.73138885066628, 17.382666666666665 117.86338885066627, 17.58 117.91938885066628 L 17.58 118.80738885066627 C 17.142666666666663 118.76738885066628, 16.805999999999997 118.62138885066628, 16.57 118.36938885066628 C 16.334000000000003 118.11738885066629, 16.209333333333333 117.77138885066628, 16.196 117.33138885066627 Z M 18.084 118.80738885066627 L 18.084 117.91538885066628 C 18.268 117.86205551733295, 18.366666666666667 117.73805551733295, 18.38 117.54338885066628 C 18.398666666666667 117.0767221839996, 18.410666666666668 116.62805551733294, 18.416 116.19738885066627 C 18.421333333333333 115.7667221839996, 18.421333333333333 115.33605551733294, 18.416 114.90538885066628 C 18.410666666666668 114.4747221839996, 18.398666666666667 114.02205551733294, 18.38 113.54738885066628 C 18.374666666666666 113.35272218399962, 18.276 113.22605551733295, 18.084 113.16738885066628 L 18.084 112.27938885066628 C 18.513333333333335 112.31938885066629, 18.846666666666668 112.46472218399961, 19.084 112.71538885066627 C 19.321333333333335 112.96605551733293, 19.445333333333334 113.31138885066628, 19.456 113.75138885066627 C 19.46666666666667 114.06605551733294, 19.474666666666668 114.37605551733294, 19.48 114.68138885066628 C 19.485333333333333 114.98672218399962, 19.488 115.28738885066628, 19.488 115.58338885066628 C 19.488 115.87938885066629, 19.485333333333333 116.17272218399961, 19.48 116.46338885066628 C 19.474666666666668 116.75405551733294, 19.46666666666667 117.04338885066628, 19.456 117.33138885066627 C 19.439999999999998 117.78205551733294, 19.311999999999998 118.13072218399961, 19.072 118.37738885066628 C 18.832 118.62405551733295, 18.502666666666666 118.76738885066628, 18.084 118.80738885066627 Z M 21.944 118.74338885066628 L 21.944 112.34338885066627 L 23.003999999999998 112.34338885066627 L 23.003999999999998 118.74338885066628 Z " stroke="none" fill-rule="nonzero" fill="#000000" fill-opacity="1" transform="matrix(1,0,0,1,5.05,13.314)" id="text20 l" />
  <path d="M 0 107.73904996559963 L 10 107.73904996559963 L 10 109.23904996559963 L 0 109.23904996559963 Z " stroke="none" fill-rule="evenodd" fill="#000000" fill-opacity="1" transform="matrix(1,0,0,1,5.05,13.314)" id="mark21 l" />
  <path d="M 0 95.68471108053302 L 10 95.68471108053302 L 10 97.18471108053302 L 0 97.18471108053302 Z " stroke="none" fill-rule="evenodd" fill="#000000" fill-opacity="1" transform="matrix(1,0,0,1,5.05,13.314)" id="mark22 l" />
  <path d="M 0 83.6303721954664 L 10 83.6303721954664 L 10 85.1303721954664 L 0 85.1303721954664 Z " stroke="none" fill-rule="evenodd" fill="#000000" fill-opacity="1" transform="matrix(1,0,0,1,5.05,13.314)" id="mark23 l" />
  <path d="M 0 71.57603331039974 L 10 71.57603331039974 L 10 73.07603331039974 L 0 73.07603331039974 Z " stroke="none" fill-rule="evenodd" fill="#000000" fill-opacity="1" transform="matrix(1,0,0,1,5.05,13.314)" id="mark24 l" />
  <path d="M 0 59.52169442533312 L 25 59.52169442533312 L 25 61.02169442533312 L 0 61.02169442533312 Z " stroke="none" fill-rule="evenodd" fill="#000000" fill-opacity="1" transform="matrix(1,0,0,1,5.05,13.314)" id="mark25 l" />
  <path d="M 12.328 58.471694425333126 C 12.325333333333333 58.37302775866646, 12.323333333333332 58.2843610919998, 12.322 58.20569442533313 C 12.320666666666666 58.12702775866646, 12.319333333333333 58.05302775866646, 12.318 57.98369442533313 C 12.316666666666666 57.914361091999794, 12.315999999999999 57.84236109199979, 12.316 57.767694425333126 C 12.315999999999999 57.69302775866646, 12.315999999999999 57.60836109199979, 12.316 57.51369442533313 C 12.315999999999999 57.41902775866646, 12.317333333333334 57.307694425333125, 12.32 57.179694425333125 C 12.328 56.886361091999795, 12.378 56.624361091999795, 12.47 56.39369442533312 C 12.562000000000001 56.16302775866646, 12.696 55.957027758666456, 12.872 55.77569442533313 C 13.048 55.59436109199979, 13.265333333333334 55.433027758666455, 13.524000000000001 55.29169442533313 L 14.056000000000001 55.00369442533312 C 14.242666666666668 54.90236109199979, 14.362000000000002 54.780361091999794, 14.414 54.63769442533312 C 14.466000000000001 54.49502775866645, 14.495999999999999 54.36102775866646, 14.504 54.23569442533313 C 14.514666666666667 54.08902775866646, 14.520666666666667 53.932361091999795, 14.522 53.76569442533312 C 14.523333333333333 53.59902775866645, 14.520000000000001 53.442361091999786, 14.512 53.295694425333124 C 14.506666666666666 53.191694425333125, 14.476666666666667 53.10569442533313, 14.422 53.03769442533313 C 14.367333333333335 52.96969442533313, 14.288 52.92102775866646, 14.184000000000001 52.89169442533313 L 14.184000000000001 52.00369442533312 C 14.672 52.03569442533312, 15.022000000000002 52.167027758666464, 15.234 52.39769442533313 C 15.446000000000002 52.62836109199979, 15.562666666666667 52.98902775866647, 15.584 53.47969442533313 C 15.586666666666668 53.54369442533313, 15.588666666666668 53.60902775866646, 15.59 53.67569442533313 C 15.591333333333335 53.7423610919998, 15.592000000000002 53.807027758666464, 15.592 53.86969442533312 C 15.592000000000002 53.932361091999795, 15.591333333333335 53.99436109199979, 15.59 54.05569442533313 C 15.588666666666668 54.11702775866647, 15.586666666666668 54.17702775866646, 15.584 54.23569442533313 C 15.573333333333332 54.52102775866646, 15.52 54.76769442533313, 15.424 54.975694425333124 C 15.328 55.18369442533313, 15.197999999999999 55.36369442533312, 15.033999999999999 55.51569442533312 C 14.87 55.667694425333124, 14.68 55.80369442533313, 14.464 55.923694425333125 L 13.86 56.25169442533313 C 13.745333333333335 56.313027758666465, 13.655333333333335 56.397027758666454, 13.59 56.50369442533312 C 13.524666666666668 56.61036109199979, 13.478000000000002 56.72369442533312, 13.45 56.843694425333126 C 13.422 56.96369442533313, 13.408 57.075694425333126, 13.408 57.179694425333125 L 13.408 58.471694425333126 Z M 12.336 54.43169442533313 C 12.330666666666666 54.314361091999785, 12.326666666666664 54.19969442533312, 12.324 54.087694425333126 C 12.321333333333332 53.97569442533313, 12.319333333333333 53.86969442533312, 12.318 53.76969442533313 C 12.316666666666666 53.66969442533312, 12.317333333333334 53.573027758666456, 12.32 53.47969442533313 C 12.338666666666668 52.99169442533312, 12.455333333333336 52.63236109199979, 12.67 52.401694425333126 C 12.884666666666668 52.17102775866646, 13.221333333333334 52.03836109199979, 13.68 52.00369442533312 L 13.68 52.895694425333126 C 13.584 52.92502775866646, 13.513333333333332 52.971694425333126, 13.468 53.035694425333126 C 13.422666666666668 53.099694425333126, 13.398666666666667 53.177027758666455, 13.396 53.267694425333126 C 13.390666666666666 53.47569442533313, 13.387333333333332 53.66902775866646, 13.386 53.847694425333124 C 13.384666666666666 54.02636109199979, 13.389333333333333 54.22102775866645, 13.4 54.43169442533313 Z M 13.911999999999999 58.471694425333126 L 13.911999999999999 57.539694425333124 L 15.508 57.539694425333124 L 15.508 58.471694425333126 Z M 16.18 57.05569442533313 C 16.174666666666667 56.8823610919998, 16.173333333333332 56.74302775866646, 16.176 56.63769442533312 C 16.178666666666665 56.532361091999796, 16.181333333333335 56.4303610919998, 16.183999999999997 56.331694425333126 L 17.264 56.331694425333126 C 17.256 56.409027758666454, 17.25 56.50502775866646, 17.246 56.61969442533313 C 17.241999999999997 56.7343610919998, 17.240666666666666 56.84502775866646, 17.241999999999997 56.95169442533312 C 17.243333333333332 57.05836109199979, 17.246666666666666 57.1383610919998, 17.252 57.191694425333125 C 17.262666666666668 57.31169442533313, 17.297333333333334 57.40969442533313, 17.355999999999998 57.48569442533313 C 17.414666666666665 57.56169442533313, 17.497333333333334 57.61569442533313, 17.604 57.64769442533313 L 17.604 58.539694425333124 C 17.110666666666663 58.502361091999795, 16.75333333333333 58.36769442533313, 16.532 58.13569442533313 C 16.310666666666666 57.90369442533313, 16.19333333333333 57.54369442533313, 16.18 57.05569442533313 Z M 16.279999999999998 55.719694425333124 L 16.279999999999998 52.07169442533313 L 17.348 52.07169442533313 L 17.348 55.719694425333124 Z M 17.852 55.295694425333124 L 17.852 54.539694425333124 C 17.929333333333332 54.49969442533313, 18.014666666666667 54.46769442533313, 18.107999999999997 54.44369442533313 C 18.20133333333333 54.41969442533313, 18.301333333333332 54.407694425333126, 18.407999999999998 54.407694425333126 C 18.773333333333333 54.407694425333126, 19.047333333333334 54.52302775866646, 19.23 54.75369442533312 C 19.412666666666667 54.984361091999794, 19.514666666666663 55.298361091999794, 19.535999999999998 55.69569442533313 C 19.546666666666667 55.85569442533313, 19.55333333333333 56.014361091999795, 19.555999999999997 56.17169442533313 C 19.558666666666664 56.32902775866646, 19.557333333333332 56.48236109199979, 19.552 56.63169442533312 C 19.546666666666667 56.781027758666454, 19.538666666666668 56.921027758666455, 19.528 57.051694425333125 C 19.482666666666667 57.55036109199979, 19.353333333333335 57.91569442533313, 19.14 58.14769442533313 C 18.926666666666666 58.37969442533313, 18.581333333333333 58.51036109199979, 18.104 58.539694425333124 L 18.104 57.64769442533313 C 18.21333333333333 57.61836109199979, 18.296 57.56569442533312, 18.352 57.48969442533313 C 18.408 57.41369442533312, 18.44 57.314361091999785, 18.448 57.191694425333125 C 18.471999999999998 56.90102775866646, 18.485999999999997 56.63969442533313, 18.49 56.407694425333126 C 18.494 56.175694425333134, 18.485333333333333 55.9543610919998, 18.464 55.743694425333125 C 18.447999999999997 55.58902775866646, 18.396666666666665 55.47369442533312, 18.31 55.39769442533313 C 18.223333333333333 55.32169442533312, 18.090666666666664 55.283694425333124, 17.912 55.283694425333124 C 17.901333333333334 55.283694425333124, 17.890666666666668 55.28502775866646, 17.88 55.28769442533313 C 17.86933333333333 55.2903610919998, 17.86 55.29302775866646, 17.852 55.295694425333124 Z M 17.852 53.00369442533312 L 17.852 52.07169442533313 L 19.439999999999998 52.07169442533313 L 19.439999999999998 53.00369442533312 Z M 21.944 58.471694425333126 L 21.944 52.07169442533313 L 23.003999999999998 52.07169442533313 L 23.003999999999998 58.471694425333126 Z " stroke="none" fill-rule="nonzero" fill="#000000" fill-opacity="1" transform="matrix(1,0,0,1,5.05,13.314)" id="text25 l" />
  <path d="M 0 47.46735554026651 L 10 47.46735554026651 L 10 48.96735554026651 L 0 48.96735554026651 Z " stroke="none" fill-rule="evenodd" fill="#000000" fill-opacity="1" transform="matrix(1,0,0,1,5.05,13.314)" id="mark26 l" />
  <path d="M 0 35.4130166551999 L 10 35.4130166551999 L 10 36.9130166551999 L 0 36.9130166551999 Z " stroke="none" fill-rule="evenodd" fill="#000000" fill-opacity="1" transform="matrix(1,0,0,1,5.05,13.314)" id="mark27 l" />
  <path d="M 0 23.358677770133227 L 10 23.358677770133227 L 10 24.858677770133227 L 0 24.858677770133227 Z " stroke="none" fill-rule="evenodd" fill="#000000" fill-opacity="1" transform="matrix(1,0,0,1,5.05,13.314)" id="mark28 l" />
  <path d="M 0 11.304338885066613 L 10 11.304338885066613 L 10 12.804338885066613 L 0 12.804338885066613 Z " stroke="none" fill-rule="evenodd" fill="#000000" fill-opacity="1" transform="matrix(1,0,0,1,5.05,13.314)" id="mark29 l" />
  <path d="M 0 -0.75 L 25 -0.75 L 25 0.75 L 0 0.75 Z " stroke="none" fill-rule="evenodd" fill="#000000" fill-opacity="1" transform="matrix(1,0,0,1,5.05,13.314)" id="mark30 l" />
  <path d="M 12.223999999999998 -3.2159999999999997 C 12.221333333333334 -3.317333333333333, 12.219333333333333 -3.4013333333333335, 12.218 -3.468 C 12.216666666666667 -3.5346666666666664, 12.216666666666667 -3.602666666666666, 12.218 -3.6719999999999997 C 12.219333333333333 -3.7413333333333334, 12.221333333333334 -3.8306666666666667, 12.223999999999998 -3.94 L 13.303999999999998 -3.94 L 13.303999999999998 -3.0759999999999996 C 13.303999999999998 -2.8386666666666667, 13.417333333333332 -2.6879999999999997, 13.643999999999998 -2.6239999999999997 L 13.643999999999998 -1.7319999999999998 C 13.155999999999999 -1.7693333333333332, 12.800666666666665 -1.904, 12.578 -2.1359999999999997 C 12.355333333333334 -2.368, 12.237333333333332 -2.7279999999999998, 12.223999999999998 -3.2159999999999997 Z M 12.292 -7.268 L 12.292 -8.2 L 15.536 -8.2 L 15.536 -7.268 Z M 14.143999999999998 -2.6199999999999997 C 14.367999999999999 -2.6759999999999997, 14.483999999999998 -2.826666666666666, 14.491999999999999 -3.072 C 14.497333333333334 -3.2746666666666666, 14.500666666666666 -3.4573333333333336, 14.501999999999999 -3.62 C 14.503333333333332 -3.7826666666666666, 14.498666666666665 -3.94, 14.488 -4.092 C 14.48 -4.2493333333333325, 14.431999999999999 -4.382666666666666, 14.344 -4.492 C 14.256 -4.601333333333333, 14.089333333333332 -4.653333333333332, 13.844 -4.648 L 13.096 -4.64 L 13.068 -5.532 L 14.027999999999999 -6.9159999999999995 L 15.216 -6.9159999999999995 L 14.248 -5.564 L 14.28 -5.564 C 14.712 -5.564, 15.028666666666666 -5.441333333333334, 15.229999999999999 -5.196 C 15.431333333333333 -4.950666666666666, 15.544 -4.573333333333332, 15.568 -4.064 C 15.57333333333333 -3.992, 15.576666666666664 -3.92, 15.578 -3.848 C 15.57933333333333 -3.776, 15.579999999999998 -3.705333333333333, 15.579999999999998 -3.6359999999999997 C 15.579999999999998 -3.5666666666666664, 15.57933333333333 -3.4973333333333336, 15.578 -3.428 C 15.576666666666664 -3.3586666666666662, 15.57333333333333 -3.2879999999999994, 15.568 -3.2159999999999997 C 15.549333333333333 -2.7199999999999998, 15.428666666666665 -2.3553333333333333, 15.206 -2.122 C 14.983333333333334 -1.8886666666666665, 14.630666666666666 -1.7586666666666664, 14.148 -1.7319999999999998 Z M 16.196 -3.2119999999999997 C 16.188000000000002 -3.641333333333333, 16.182666666666666 -4.058, 16.18 -4.462 C 16.177333333333333 -4.866, 16.177999999999997 -5.261333333333333, 16.182 -5.648 C 16.186 -6.034666666666666, 16.190666666666665 -6.416, 16.196 -6.792 C 16.209333333333333 -7.231999999999999, 16.334000000000003 -7.577333333333334, 16.57 -7.828 C 16.805999999999997 -8.078666666666667, 17.142666666666663 -8.224, 17.58 -8.264 L 17.58 -7.3759999999999994 C 17.382666666666665 -7.32, 17.281333333333333 -7.190666666666667, 17.276 -6.9879999999999995 C 17.262666666666668 -6.617333333333333, 17.253333333333334 -6.269333333333333, 17.248 -5.944 C 17.242666666666665 -5.618666666666666, 17.24 -5.302, 17.24 -4.994 C 17.24 -4.686, 17.242666666666665 -4.371333333333333, 17.248 -4.05 C 17.253333333333334 -3.7286666666666664, 17.262666666666668 -3.3853333333333326, 17.276 -3.0199999999999996 C 17.281333333333333 -2.812, 17.382666666666665 -2.6799999999999997, 17.58 -2.6239999999999997 L 17.58 -1.7359999999999998 C 17.142666666666663 -1.7759999999999998, 16.805999999999997 -1.9219999999999997, 16.57 -2.174 C 16.334000000000003 -2.4259999999999997, 16.209333333333333 -2.772, 16.196 -3.2119999999999997 Z M 18.084 -1.7359999999999998 L 18.084 -2.6279999999999997 C 18.268 -2.681333333333333, 18.366666666666667 -2.8053333333333335, 18.38 -3 C 18.398666666666667 -3.4666666666666663, 18.410666666666668 -3.915333333333333, 18.416 -4.346 C 18.421333333333333 -4.776666666666666, 18.421333333333333 -5.207333333333333, 18.416 -5.638 C 18.410666666666668 -6.068666666666666, 18.398666666666667 -6.521333333333333, 18.38 -6.9959999999999996 C 18.374666666666666 -7.190666666666667, 18.276 -7.317333333333334, 18.084 -7.3759999999999994 L 18.084 -8.264 C 18.513333333333335 -8.224, 18.846666666666668 -8.078666666666667, 19.084 -7.828 C 19.321333333333335 -7.577333333333334, 19.445333333333334 -7.231999999999999, 19.456 -6.792 C 19.46666666666667 -6.477333333333332, 19.474666666666668 -6.167333333333333, 19.48 -5.861999999999999 C 19.485333333333333 -5.556666666666667, 19.488 -5.256, 19.488 -4.96 C 19.488 -4.664, 19.485333333333333 -4.370666666666667, 19.48 -4.08 C 19.474666666666668 -3.7893333333333334, 19.46666666666667 -3.5, 19.456 -3.2119999999999997 C 19.439999999999998 -2.761333333333333, 19.311999999999998 -2.4126666666666665, 19.072 -2.166 C 18.832 -1.9193333333333331, 18.502666666666666 -1.7759999999999998, 18.084 -1.7359999999999998 Z M 21.944 -1.7999999999999998 L 21.944 -8.2 L 23.003999999999998 -8.2 L 23.003999999999998 -1.7999999999999998 Z " stroke="none" fill-rule="nonzero" fill="#000000" fill-opacity="1" transform="matrix(1,0,0,1,5.05,13.314)" id="text30 l" />
  <path d="M -5 -13.264 L 30 -13.264 L 30 356.3438276669322 L -5 356.3438276669322 Z " stroke="#FF0000" stroke-opacity="1" stroke-width="0.1" stroke-linecap="butt" stroke-linejoin="miter" fill="none" transform="matrix(1,0,0,1,5.05,13.314)" />
</svg>