<?xml version="1.0" encoding="UTF-8"?>
<svg xmlns:xlink="http://www.w3.org/1999/xlink" viewBox="0 0 35.1 392.857406227595" version="1.1" style="font-synthesis: none;" width="35.1mm" height="392.857406227595mm" xmlns="http://www.w3.org/2000/svg">
  <defs />
  <style>	</style>
  <path d="M 0 0 L 35.1 0 L 35.1 392.857406227595 L 0 392.857406227595 Z " stroke="none" fill-rule="nonzero" fill="#FFFFFF" fill-opacity="1" transform="matrix(1,0,0,1,0,0)" />
  <path d="M 0 371.975406227595 L 10 371.975406227595 L 10 373.475406227595 L 0 373.475406227595 Z " stroke="none" fill-rule="evenodd" fill="#000000" fill-opacity="1" transform="matrix(1,0,0,1,5.05,13.314)" id="mark1 l" />
  <path d="M 0 362.41834452945153 L 10 362.41834452945153 L 10 363.91834452945153 L 0 363.91834452945153 Z " stroke="none" fill-rule="evenodd" fill="#000000" fill-opacity="1" transform="matrix(1,0,0,1,5.05,13.314)" id="mark2 l" />
  <path d="M 0 352.8612828313081 L 10 352.8612828313081 L 10 354.3612828313081 L 0 354.3612828313081 Z " stroke="none" fill-rule="evenodd" fill="#000000" fill-opacity="1" transform="matrix(1,0,0,1,5.05,13.314)" id="mark3 l" />
  <path d="M 0 343.3042211331646 L 10 343.3042211331646 L 10 344.8042211331646 L 0 344.8042211331646 Z " stroke="none" fill-rule="evenodd" fill="#000000" fill-opacity="1" transform="matrix(1,0,0,1,5.05,13.314)" id="mark4 l" />
  <path d="M 0 333.74715943502116 L 25 333.74715943502116 L 25 335.24715943502116 L 0 335.24715943502116 Z " stroke="none" fill-rule="evenodd" fill="#000000" fill-opacity="1" transform="matrix(1,0,0,1,5.05,13.314)" id="mark5 l" />
  <path d="M 16.18 331.24915943502117 C 16.174666666666667 331.0758261016878, 16.173333333333332 330.9364927683545, 16.176 330.83115943502116 C 16.178666666666665 330.7258261016878, 16.181333333333335 330.6238261016878, 16.183999999999997 330.5251594350212 L 17.264 330.5251594350212 C 17.256 330.6024927683545, 17.25 330.6984927683545, 17.246 330.8131594350212 C 17.241999999999997 330.92782610168786, 17.240666666666666 331.0384927683545, 17.241999999999997 331.1451594350212 C 17.243333333333332 331.2518261016878, 17.246666666666666 331.33182610168785, 17.252 331.3851594350212 C 17.262666666666668 331.50515943502114, 17.297333333333334 331.60315943502115, 17.355999999999998 331.6791594350212 C 17.414666666666665 331.75515943502114, 17.497333333333334 331.8091594350211, 17.604 331.84115943502115 L 17.604 332.73315943502115 C 17.110666666666663 332.6958261016878, 16.75333333333333 332.5611594350212, 16.532 332.32915943502115 C 16.310666666666666 332.0971594350211, 16.19333333333333 331.73715943502117, 16.18 331.24915943502117 Z M 16.279999999999998 329.91315943502116 L 16.279999999999998 326.2651594350212 L 17.348 326.2651594350212 L 17.348 329.91315943502116 Z M 17.852 329.4891594350212 L 17.852 328.73315943502115 C 17.929333333333332 328.69315943502113, 18.014666666666667 328.66115943502115, 18.107999999999997 328.63715943502115 C 18.20133333333333 328.61315943502115, 18.301333333333332 328.60115943502115, 18.407999999999998 328.60115943502115 C 18.773333333333333 328.60115943502115, 19.047333333333334 328.7164927683545, 19.23 328.94715943502115 C 19.412666666666667 329.1778261016878, 19.514666666666663 329.4918261016878, 19.535999999999998 329.88915943502116 C 19.546666666666667 330.0491594350211, 19.55333333333333 330.20782610168783, 19.555999999999997 330.36515943502116 C 19.558666666666664 330.5224927683545, 19.557333333333332 330.6758261016878, 19.552 330.8251594350212 C 19.546666666666667 330.9744927683545, 19.538666666666668 331.11449276835447, 19.528 331.24515943502115 C 19.482666666666667 331.7438261016878, 19.353333333333335 332.1091594350211, 19.14 332.34115943502115 C 18.926666666666666 332.5731594350212, 18.581333333333333 332.7038261016878, 18.104 332.73315943502115 L 18.104 331.84115943502115 C 18.21333333333333 331.81182610168787, 18.296 331.75915943502116, 18.352 331.68315943502114 C 18.408 331.6071594350212, 18.44 331.50782610168784, 18.448 331.3851594350212 C 18.471999999999998 331.0944927683545, 18.485999999999997 330.8331594350212, 18.49 330.60115943502115 C 18.494 330.3691594350212, 18.485333333333333 330.1478261016878, 18.464 329.93715943502116 C 18.447999999999997 329.78249276835453, 18.396666666666665 329.6671594350212, 18.31 329.59115943502115 C 18.223333333333333 329.51515943502113, 18.090666666666664 329.4771594350212, 17.912 329.4771594350212 C 17.901333333333334 329.4771594350212, 17.890666666666668 329.4784927683545, 17.88 329.48115943502114 C 17.86933333333333 329.48382610168784, 17.86 329.48649276835454, 17.852 329.4891594350212 Z M 17.852 327.19715943502115 L 17.852 326.2651594350212 L 19.439999999999998 326.2651594350212 L 19.439999999999998 327.19715943502115 Z M 21.944 332.66515943502117 L 21.944 326.2651594350212 L 23.003999999999998 326.2651594350212 L 23.003999999999998 332.66515943502117 Z " stroke="none" fill-rule="nonzero" fill="#000000" fill-opacity="1" transform="matrix(1,0,0,1,5.05,13.314)" id="text5 l" />
  <path d="M 0 324.19009773687765 L 10 324.19009773687765 L 10 325.69009773687765 L 0 325.69009773687765 Z " stroke="none" fill-rule="evenodd" fill="#000000" fill-opacity="1" transform="matrix(1,0,0,1,5.05,13.314)" id="mark6 l" />
  <path d="M 0 314.6330360387342 L 10 314.6330360387342 L 10 316.1330360387342 L 0 316.1330360387342 Z " stroke="none" fill-rule="evenodd" fill="#000000" fill-opacity="1" transform="matrix(1,0,0,1,5.05,13.314)" id="mark7 l" />
  <path d="M 0 305.07597434059073 L 10 305.07597434059073 L 10 306.57597434059073 L 0 306.57597434059073 Z " stroke="none" fill-rule="evenodd" fill="#000000" fill-opacity="1" transform="matrix(1,0,0,1,5.05,13.314)" id="mark8 l" />
  <path d="M 0 295.5189126424473 L 10 295.5189126424473 L 10 297.0189126424473 L 0 297.0189126424473 Z " stroke="none" fill-rule="evenodd" fill="#000000" fill-opacity="1" transform="matrix(1,0,0,1,5.05,13.314)" id="mark9 l" />
  <path d="M 0 285.9618509443038 L 25 285.9618509443038 L 25 287.4618509443038 L 0 287.4618509443038 Z " stroke="none" fill-rule="evenodd" fill="#000000" fill-opacity="1" transform="matrix(1,0,0,1,5.05,13.314)" id="mark10 l" />
  <path d="M 14.323999999999998 284.9118509443038 L 14.323999999999998 279.4678509443038 L 13.871999999999998 279.4678509443038 L 13.839999999999998 279.0878509443038 L 14.543999999999999 278.51185094430383 L 15.424 278.51185094430383 L 15.424 284.9118509443038 Z M 16.196 283.49985094430383 C 16.188000000000002 283.07051761097046, 16.182666666666666 282.6538509443038, 16.18 282.24985094430383 C 16.177333333333333 281.84585094430383, 16.177999999999997 281.45051761097045, 16.182 281.0638509443038 C 16.186 280.67718427763714, 16.190666666666665 280.2958509443038, 16.196 279.9198509443038 C 16.209333333333333 279.4798509443038, 16.334000000000003 279.1345176109705, 16.57 278.8838509443038 C 16.805999999999997 278.63318427763716, 17.142666666666663 278.48785094430383, 17.58 278.4478509443038 L 17.58 279.3358509443038 C 17.382666666666665 279.39185094430377, 17.281333333333333 279.52118427763713, 17.276 279.7238509443038 C 17.262666666666668 280.09451761097046, 17.253333333333334 280.44251761097047, 17.248 280.7678509443038 C 17.242666666666665 281.09318427763714, 17.24 281.4098509443038, 17.24 281.7178509443038 C 17.24 282.0258509443038, 17.242666666666665 282.34051761097044, 17.248 282.6618509443038 C 17.253333333333334 282.9831842776372, 17.262666666666668 283.3265176109705, 17.276 283.6918509443038 C 17.281333333333333 283.8998509443038, 17.382666666666665 284.0318509443038, 17.58 284.0878509443038 L 17.58 284.97585094430383 C 17.142666666666663 284.9358509443038, 16.805999999999997 284.7898509443038, 16.57 284.5378509443038 C 16.334000000000003 284.2858509443038, 16.209333333333333 283.93985094430377, 16.196 283.49985094430383 Z M 18.084 284.97585094430383 L 18.084 284.08385094430383 C 18.268 284.0305176109705, 18.366666666666667 283.90651761097047, 18.38 283.7118509443038 C 18.398666666666667 283.2451842776372, 18.410666666666668 282.7965176109705, 18.416 282.3658509443038 C 18.421333333333333 281.9351842776371, 18.421333333333333 281.5045176109704, 18.416 281.0738509443038 C 18.410666666666668 280.64318427763715, 18.398666666666667 280.19051761097046, 18.38 279.7158509443038 C 18.374666666666666 279.52118427763713, 18.276 279.39451761097047, 18.084 279.3358509443038 L 18.084 278.4478509443038 C 18.513333333333335 278.48785094430383, 18.846666666666668 278.63318427763716, 19.084 278.8838509443038 C 19.321333333333335 279.1345176109705, 19.445333333333334 279.4798509443038, 19.456 279.9198509443038 C 19.46666666666667 280.2345176109705, 19.474666666666668 280.5445176109705, 19.48 280.8498509443038 C 19.485333333333333 281.15518427763715, 19.488 281.45585094430385, 19.488 281.7518509443038 C 19.488 282.04785094430383, 19.485333333333333 282.3411842776371, 19.48 282.63185094430384 C 19.474666666666668 282.9225176109705, 19.46666666666667 283.2118509443038, 19.456 283.49985094430383 C 19.439999999999998 283.95051761097045, 19.311999999999998 284.29918427763715, 19.072 284.5458509443038 C 18.832 284.7925176109705, 18.502666666666666 284.9358509443038, 18.084 284.97585094430383 Z M 21.944 284.9118509443038 L 21.944 278.51185094430383 L 23.003999999999998 278.51185094430383 L 23.003999999999998 284.9118509443038 Z " stroke="none" fill-rule="nonzero" fill="#000000" fill-opacity="1" transform="matrix(1,0,0,1,5.05,13.314)" id="text10 l" />
  <path d="M 0 276.40478924616036 L 10 276.40478924616036 L 10 277.90478924616036 L 0 277.90478924616036 Z " stroke="none" fill-rule="evenodd" fill="#000000" fill-opacity="1" transform="matrix(1,0,0,1,5.05,13.314)" id="mark11 l" />
  <path d="M 0 266.8477275480169 L 10 266.8477275480169 L 10 268.3477275480169 L 0 268.3477275480169 Z " stroke="none" fill-rule="evenodd" fill="#000000" fill-opacity="1" transform="matrix(1,0,0,1,5.05,13.314)" id="mark12 l" />
  <path d="M 0 257.29066584987345 L 10 257.29066584987345 L 10 258.79066584987345 L 0 258.79066584987345 Z " stroke="none" fill-rule="evenodd" fill="#000000" fill-opacity="1" transform="matrix(1,0,0,1,5.05,13.314)" id="mark13 l" />
  <path d="M 0 247.73360415173 L 10 247.73360415173 L 10 249.23360415173 L 0 249.23360415173 Z " stroke="none" fill-rule="evenodd" fill="#000000" fill-opacity="1" transform="matrix(1,0,0,1,5.05,13.314)" id="mark14 l" />
  <path d="M 0 238.17654245358653 L 25 238.17654245358653 L 25 239.67654245358653 L 0 239.67654245358653 Z " stroke="none" fill-rule="evenodd" fill="#000000" fill-opacity="1" transform="matrix(1,0,0,1,5.05,13.314)" id="mark15 l" />
  <path d="M 14.331999999999999 237.09454245358654 L 14.331999999999999 231.65054245358655 L 13.879999999999999 231.65054245358655 L 13.847999999999999 231.27054245358653 L 14.552 230.69454245358654 L 15.432 230.69454245358654 L 15.432 237.09454245358654 Z M 16.18 235.67854245358654 C 16.174666666666667 235.50520912025323, 16.173333333333332 235.3658757869199, 16.176 235.26054245358654 C 16.178666666666665 235.15520912025323, 16.181333333333335 235.05320912025323, 16.183999999999997 234.95454245358655 L 17.264 234.95454245358655 C 17.256 235.03187578691987, 17.25 235.12787578691984, 17.246 235.24254245358654 C 17.241999999999997 235.35720912025317, 17.240666666666666 235.46787578691988, 17.241999999999997 235.57454245358653 C 17.243333333333332 235.6812091202532, 17.246666666666666 235.7612091202532, 17.252 235.81454245358654 C 17.262666666666668 235.93454245358654, 17.297333333333334 236.03254245358653, 17.355999999999998 236.10854245358655 C 17.414666666666665 236.18454245358652, 17.497333333333334 236.23854245358655, 17.604 236.27054245358653 L 17.604 237.16254245358655 C 17.110666666666663 237.1252091202532, 16.75333333333333 236.99054245358656, 16.532 236.75854245358653 C 16.310666666666666 236.52654245358656, 16.19333333333333 236.16654245358654, 16.18 235.67854245358654 Z M 16.279999999999998 234.34254245358653 L 16.279999999999998 230.69454245358654 L 17.348 230.69454245358654 L 17.348 234.34254245358653 Z M 17.852 233.91854245358655 L 17.852 233.16254245358655 C 17.929333333333332 233.12254245358656, 18.014666666666667 233.09054245358655, 18.107999999999997 233.06654245358655 C 18.20133333333333 233.04254245358655, 18.301333333333332 233.03054245358655, 18.407999999999998 233.03054245358655 C 18.773333333333333 233.03054245358655, 19.047333333333334 233.14587578691987, 19.23 233.37654245358655 C 19.412666666666667 233.60720912025323, 19.514666666666663 233.9212091202532, 19.535999999999998 234.31854245358653 C 19.546666666666667 234.47854245358656, 19.55333333333333 234.6372091202532, 19.555999999999997 234.79454245358653 C 19.558666666666664 234.95187578691989, 19.557333333333332 235.10520912025322, 19.552 235.25454245358654 C 19.546666666666667 235.40387578691985, 19.538666666666668 235.54387578691984, 19.528 235.67454245358655 C 19.482666666666667 236.1732091202532, 19.353333333333335 236.53854245358656, 19.14 236.77054245358653 C 18.926666666666666 237.00254245358656, 18.581333333333333 237.13320912025324, 18.104 237.16254245358655 L 18.104 236.27054245358653 C 18.21333333333333 236.2412091202532, 18.296 236.18854245358654, 18.352 236.11254245358654 C 18.408 236.03654245358655, 18.44 235.93720912025321, 18.448 235.81454245358654 C 18.471999999999998 235.52387578691986, 18.485999999999997 235.26254245358655, 18.49 235.03054245358655 C 18.494 234.79854245358655, 18.485333333333333 234.5772091202532, 18.464 234.36654245358653 C 18.447999999999997 234.21187578691985, 18.396666666666665 234.09654245358655, 18.31 234.02054245358653 C 18.223333333333333 233.94454245358656, 18.090666666666664 233.90654245358655, 17.912 233.90654245358655 C 17.901333333333334 233.90654245358655, 17.890666666666668 233.90787578691987, 17.88 233.91054245358654 C 17.86933333333333 233.9132091202532, 17.86 233.91587578691986, 17.852 233.91854245358655 Z M 17.852 231.62654245358655 L 17.852 230.69454245358654 L 19.439999999999998 230.69454245358654 L 19.439999999999998 231.62654245358655 Z M 21.944 237.09454245358654 L 21.944 230.69454245358654 L 23.003999999999998 230.69454245358654 L 23.003999999999998 237.09454245358654 Z " stroke="none" fill-rule="nonzero" fill="#000000" fill-opacity="1" transform="matrix(1,0,0,1,5.05,13.314)" id="text15 l" />
  <path d="M 0 228.61948075544305 L 10 228.61948075544305 L 10 230.11948075544305 L 0 230.11948075544305 Z " stroke="none" fill-rule="evenodd" fill="#000000" fill-opacity="1" transform="matrix(1,0,0,1,5.05,13.314)" id="mark16 l" />
  <path d="M 0 219.0624190572996 L 10 219.0624190572996 L 10 220.5624190572996 L 0 220.5624190572996 Z " stroke="none" fill-rule="evenodd" fill="#000000" fill-opacity="1" transform="matrix(1,0,0,1,5.05,13.314)" id="mark17 l" />
  <path d="M 0 209.50535735915614 L 10 209.50535735915614 L 10 211.00535735915614 L 0 211.00535735915614 Z " stroke="none" fill-rule="evenodd" fill="#000000" fill-opacity="1" transform="matrix(1,0,0,1,5.05,13.314)" id="mark18 l" />
  <path d="M 0 199.94829566101268 L 10 199.94829566101268 L 10 201.44829566101268 L 0 201.44829566101268 Z " stroke="none" fill-rule="evenodd" fill="#000000" fill-opacity="1" transform="matrix(1,0,0,1,5.05,13.314)" id="mark19 l" />
  <path d="M 0 190.39123396286922 L 25 190.39123396286922 L 25 191.89123396286922 L 0 191.89123396286922 Z " stroke="none" fill-rule="evenodd" fill="#000000" fill-opacity="1" transform="matrix(1,0,0,1,5.05,13.314)" id="mark20 l" />
  <path d="M 12.319999999999999 189.34123396286924 C 12.317333333333334 189.2425672962026, 12.315333333333331 189.1539006295359, 12.313999999999998 189.07523396286925 C 12.312666666666665 188.99656729620258, 12.311333333333334 188.9225672962026, 12.309999999999999 188.85323396286924 C 12.308666666666667 188.78390062953588, 12.308 188.71190062953588, 12.308 188.63723396286923 C 12.308 188.5625672962026, 12.308 188.4779006295359, 12.308 188.38323396286924 C 12.308 188.2885672962026, 12.309333333333335 188.17723396286925, 12.312 188.04923396286924 C 12.32 187.75590062953592, 12.37 187.49390062953591, 12.462 187.26323396286924 C 12.554 187.03256729620256, 12.687999999999999 186.82656729620257, 12.863999999999999 186.64523396286924 C 13.04 186.4639006295359, 13.257333333333333 186.3025672962026, 13.515999999999998 186.16123396286923 L 14.047999999999998 185.87323396286925 C 14.234666666666666 185.7719006295359, 14.354 185.6499006295359, 14.405999999999999 185.50723396286924 C 14.457999999999998 185.36456729620258, 14.488 185.23056729620257, 14.495999999999999 185.10523396286925 C 14.506666666666664 184.95856729620257, 14.512666666666664 184.8019006295359, 14.514 184.63523396286925 C 14.51533333333333 184.4685672962026, 14.511999999999997 184.31190062953593, 14.504 184.16523396286925 C 14.498666666666665 184.06123396286924, 14.468666666666666 183.97523396286925, 14.413999999999998 183.90723396286924 C 14.359333333333332 183.83923396286923, 14.279999999999998 183.79056729620257, 14.175999999999998 183.76123396286923 L 14.175999999999998 182.87323396286925 C 14.663999999999998 182.90523396286926, 15.014 183.03656729620258, 15.225999999999999 183.26723396286923 C 15.437999999999999 183.4979006295359, 15.554666666666666 183.85856729620258, 15.575999999999999 184.34923396286925 C 15.578666666666663 184.41323396286924, 15.580666666666666 184.47856729620258, 15.581999999999999 184.54523396286925 C 15.583333333333332 184.6119006295359, 15.584 184.67656729620256, 15.584 184.73923396286924 C 15.584 184.8019006295359, 15.583333333333332 184.8639006295359, 15.581999999999999 184.92523396286924 C 15.580666666666666 184.98656729620257, 15.578666666666663 185.04656729620257, 15.575999999999999 185.10523396286925 C 15.565333333333331 185.3905672962026, 15.512 185.63723396286923, 15.415999999999999 185.84523396286923 C 15.32 186.05323396286923, 15.19 186.23323396286924, 15.026 186.38523396286925 C 14.862 186.53723396286924, 14.672 186.67323396286923, 14.456 186.79323396286924 L 13.851999999999999 187.12123396286924 C 13.737333333333332 187.1825672962026, 13.647333333333332 187.2665672962026, 13.581999999999999 187.37323396286925 C 13.516666666666666 187.4799006295359, 13.469999999999999 187.59323396286925, 13.441999999999998 187.71323396286925 C 13.413999999999998 187.83323396286926, 13.399999999999999 187.94523396286922, 13.399999999999999 188.04923396286924 L 13.399999999999999 189.34123396286924 Z M 12.328 185.30123396286925 C 12.322666666666667 185.1839006295359, 12.318666666666665 185.06923396286922, 12.315999999999999 184.95723396286922 C 12.313333333333333 184.84523396286923, 12.311333333333334 184.73923396286924, 12.309999999999999 184.63923396286924 C 12.308666666666667 184.53923396286925, 12.309333333333335 184.44256729620258, 12.312 184.34923396286925 C 12.330666666666666 183.86123396286925, 12.447333333333333 183.50190062953592, 12.661999999999999 183.27123396286925 C 12.876666666666665 183.04056729620257, 13.213333333333331 182.9079006295359, 13.671999999999999 182.87323396286925 L 13.671999999999999 183.76523396286925 C 13.576 183.79456729620256, 13.505333333333333 183.84123396286924, 13.459999999999999 183.90523396286923 C 13.414666666666665 183.96923396286923, 13.390666666666664 184.04656729620257, 13.387999999999998 184.13723396286923 C 13.382666666666665 184.34523396286926, 13.379333333333333 184.5385672962026, 13.378 184.71723396286924 C 13.376666666666667 184.8959006295359, 13.381333333333334 185.09056729620258, 13.392 185.30123396286925 Z M 13.904 189.34123396286924 L 13.904 188.40923396286925 L 15.5 188.40923396286925 L 15.5 189.34123396286924 Z M 16.196 187.92923396286923 C 16.188000000000002 187.4999006295359, 16.182666666666666 187.08323396286923, 16.18 186.67923396286923 C 16.177333333333333 186.27523396286924, 16.177999999999997 185.87990062953588, 16.182 185.49323396286923 C 16.186 185.10656729620257, 16.190666666666665 184.72523396286925, 16.196 184.34923396286925 C 16.209333333333333 183.90923396286925, 16.334000000000003 183.5639006295359, 16.57 183.31323396286925 C 16.805999999999997 183.0625672962026, 17.142666666666663 182.91723396286923, 17.58 182.87723396286924 L 17.58 183.76523396286925 C 17.382666666666665 183.82123396286926, 17.281333333333333 183.95056729620256, 17.276 184.15323396286925 C 17.262666666666668 184.5239006295359, 17.253333333333334 184.8719006295359, 17.248 185.19723396286923 C 17.242666666666665 185.52256729620257, 17.24 185.83923396286923, 17.24 186.14723396286925 C 17.24 186.45523396286924, 17.242666666666665 186.76990062953593, 17.248 187.09123396286924 C 17.253333333333334 187.41256729620255, 17.262666666666668 187.75590062953592, 17.276 188.12123396286924 C 17.281333333333333 188.32923396286924, 17.382666666666665 188.46123396286924, 17.58 188.51723396286923 L 17.58 189.40523396286923 C 17.142666666666663 189.36523396286924, 16.805999999999997 189.21923396286923, 16.57 188.96723396286924 C 16.334000000000003 188.71523396286923, 16.209333333333333 188.36923396286923, 16.196 187.92923396286923 Z M 18.084 189.40523396286923 L 18.084 188.51323396286924 C 18.268 188.45990062953592, 18.366666666666667 188.33590062953593, 18.38 188.14123396286925 C 18.398666666666667 187.67456729620258, 18.410666666666668 187.22590062953591, 18.416 186.79523396286925 C 18.421333333333333 186.36456729620258, 18.421333333333333 185.9339006295359, 18.416 185.50323396286925 C 18.410666666666668 185.07256729620258, 18.398666666666667 184.6199006295359, 18.38 184.14523396286924 C 18.374666666666666 183.95056729620256, 18.276 183.8239006295359, 18.084 183.76523396286925 L 18.084 182.87723396286924 C 18.513333333333335 182.91723396286923, 18.846666666666668 183.0625672962026, 19.084 183.31323396286925 C 19.321333333333335 183.5639006295359, 19.445333333333334 183.90923396286925, 19.456 184.34923396286925 C 19.46666666666667 184.6639006295359, 19.474666666666668 184.9739006295359, 19.48 185.27923396286923 C 19.485333333333333 185.58456729620255, 19.488 185.88523396286922, 19.488 186.18123396286924 C 19.488 186.47723396286924, 19.485333333333333 186.77056729620256, 19.48 187.06123396286924 C 19.474666666666668 187.35190062953592, 19.46666666666667 187.64123396286925, 19.456 187.92923396286923 C 19.439999999999998 188.3799006295359, 19.311999999999998 188.72856729620258, 19.072 188.97523396286923 C 18.832 189.2219006295359, 18.502666666666666 189.36523396286924, 18.084 189.40523396286923 Z M 21.944 189.34123396286924 L 21.944 182.94123396286923 L 23.003999999999998 182.94123396286923 L 23.003999999999998 189.34123396286924 Z " stroke="none" fill-rule="nonzero" fill="#000000" fill-opacity="1" transform="matrix(1,0,0,1,5.05,13.314)" id="text20 l" />
  <path d="M 0 180.83417226472577 L 10 180.83417226472577 L 10 182.33417226472577 L 0 182.33417226472577 Z " stroke="none" fill-rule="evenodd" fill="#000000" fill-opacity="1" transform="matrix(1,0,0,1,5.05,13.314)" id="mark21 l" />
  <path d="M 0 171.27711056658228 L 10 171.27711056658228 L 10 172.77711056658228 L 0 172.77711056658228 Z " stroke="none" fill-rule="evenodd" fill="#000000" fill-opacity="1" transform="matrix(1,0,0,1,5.05,13.314)" id="mark22 l" />
  <path d="M 0 161.72004886843882 L 10 161.72004886843882 L 10 163.22004886843882 L 0 163.22004886843882 Z " stroke="none" fill-rule="evenodd" fill="#000000" fill-opacity="1" transform="matrix(1,0,0,1,5.05,13.314)" id="mark23 l" />
  <path d="M 0 152.16298717029537 L 10 152.16298717029537 L 10 153.66298717029537 L 0 153.66298717029537 Z " stroke="none" fill-rule="evenodd" fill="#000000" fill-opacity="1" transform="matrix(1,0,0,1,5.05,13.314)" id="mark24 l" />
  <path d="M 0 142.6059254721519 L 25 142.6059254721519 L 25 144.1059254721519 L 0 144.1059254721519 Z " stroke="none" fill-rule="evenodd" fill="#000000" fill-opacity="1" transform="matrix(1,0,0,1,5.05,13.314)" id="mark25 l" />
  <path d="M 12.328 141.55592547215193 C 12.325333333333333 141.45725880548525, 12.323333333333332 141.3685921388186, 12.322 141.28992547215194 C 12.320666666666666 141.21125880548527, 12.319333333333333 141.13725880548526, 12.318 141.06792547215193 C 12.316666666666666 140.9985921388186, 12.315999999999999 140.9265921388186, 12.316 140.85192547215192 C 12.315999999999999 140.77725880548525, 12.315999999999999 140.69259213881858, 12.316 140.59792547215193 C 12.315999999999999 140.50325880548527, 12.317333333333334 140.39192547215194, 12.32 140.26392547215193 C 12.328 139.9705921388186, 12.378 139.7085921388186, 12.47 139.47792547215192 C 12.562000000000001 139.24725880548525, 12.696 139.04125880548526, 12.872 138.85992547215193 C 13.048 138.6785921388186, 13.265333333333334 138.51725880548526, 13.524000000000001 138.37592547215192 L 14.056000000000001 138.08792547215194 C 14.242666666666668 137.9865921388186, 14.362000000000002 137.86459213881858, 14.414 137.72192547215192 C 14.466000000000001 137.57925880548527, 14.495999999999999 137.44525880548525, 14.504 137.31992547215194 C 14.514666666666667 137.17325880548526, 14.520666666666667 137.01659213881862, 14.522 136.84992547215194 C 14.523333333333333 136.68325880548525, 14.520000000000001 136.52659213881861, 14.512 136.37992547215194 C 14.506666666666666 136.27592547215193, 14.476666666666667 136.18992547215194, 14.422 136.12192547215193 C 14.367333333333335 136.05392547215192, 14.288 136.00525880548525, 14.184000000000001 135.9759254721519 L 14.184000000000001 135.08792547215194 C 14.672 135.11992547215192, 15.022000000000002 135.25125880548526, 15.234 135.48192547215191 C 15.446000000000002 135.7125921388186, 15.562666666666667 136.07325880548527, 15.584 136.56392547215194 C 15.586666666666668 136.62792547215193, 15.588666666666668 136.69325880548527, 15.59 136.75992547215193 C 15.591333333333335 136.8265921388186, 15.592000000000002 136.89125880548525, 15.592 136.95392547215192 C 15.592000000000002 137.0165921388186, 15.591333333333335 137.07859213881858, 15.59 137.13992547215193 C 15.588666666666668 137.20125880548525, 15.586666666666668 137.26125880548526, 15.584 137.31992547215194 C 15.573333333333332 137.60525880548528, 15.52 137.85192547215192, 15.424 138.05992547215192 C 15.328 138.26792547215192, 15.197999999999999 138.44792547215192, 15.033999999999999 138.59992547215194 C 14.87 138.75192547215192, 14.68 138.88792547215192, 14.464 139.00792547215192 L 13.86 139.33592547215193 C 13.745333333333335 139.39725880548525, 13.655333333333335 139.48125880548525, 13.59 139.58792547215194 C 13.524666666666668 139.69459213881862, 13.478000000000002 139.80792547215194, 13.45 139.9279254721519 C 13.422 140.04792547215192, 13.408 140.1599254721519, 13.408 140.26392547215193 L 13.408 141.55592547215193 Z M 12.336 137.51592547215193 C 12.330666666666666 137.3985921388186, 12.326666666666664 137.28392547215194, 12.324 137.17192547215194 C 12.321333333333332 137.05992547215195, 12.319333333333333 136.95392547215192, 12.318 136.85392547215193 C 12.316666666666666 136.75392547215193, 12.317333333333334 136.65725880548527, 12.32 136.56392547215194 C 12.338666666666668 136.07592547215194, 12.455333333333336 135.7165921388186, 12.67 135.48592547215193 C 12.884666666666668 135.25525880548525, 13.221333333333334 135.12259213881862, 13.68 135.08792547215194 L 13.68 135.97992547215193 C 13.584 136.00925880548525, 13.513333333333332 136.0559254721519, 13.468 136.11992547215192 C 13.422666666666668 136.18392547215194, 13.398666666666667 136.26125880548526, 13.396 136.35192547215192 C 13.390666666666666 136.55992547215192, 13.387333333333332 136.75325880548525, 13.386 136.93192547215193 C 13.384666666666666 137.11059213881862, 13.389333333333333 137.30525880548527, 13.4 137.51592547215193 Z M 13.911999999999999 141.55592547215193 L 13.911999999999999 140.62392547215194 L 15.508 140.62392547215194 L 15.508 141.55592547215193 Z M 16.18 140.13992547215193 C 16.174666666666667 139.9665921388186, 16.173333333333332 139.82725880548526, 16.176 139.72192547215192 C 16.178666666666665 139.6165921388186, 16.181333333333335 139.5145921388186, 16.183999999999997 139.41592547215194 L 17.264 139.41592547215194 C 17.256 139.49325880548525, 17.25 139.58925880548526, 17.246 139.70392547215192 C 17.241999999999997 139.8185921388186, 17.240666666666666 139.92925880548526, 17.241999999999997 140.03592547215192 C 17.243333333333332 140.14259213881857, 17.246666666666666 140.22259213881858, 17.252 140.27592547215193 C 17.262666666666668 140.39592547215193, 17.297333333333334 140.49392547215194, 17.355999999999998 140.56992547215194 C 17.414666666666665 140.64592547215193, 17.497333333333334 140.6999254721519, 17.604 140.73192547215191 L 17.604 141.62392547215194 C 17.110666666666663 141.5865921388186, 16.75333333333333 141.4519254721519, 16.532 141.2199254721519 C 16.310666666666666 140.98792547215191, 16.19333333333333 140.62792547215193, 16.18 140.13992547215193 Z M 16.279999999999998 138.80392547215192 L 16.279999999999998 135.15592547215192 L 17.348 135.15592547215192 L 17.348 138.80392547215192 Z M 17.852 138.37992547215194 L 17.852 137.62392547215194 C 17.929333333333332 137.58392547215195, 18.014666666666667 137.55192547215194, 18.107999999999997 137.52792547215194 C 18.20133333333333 137.50392547215193, 18.301333333333332 137.49192547215193, 18.407999999999998 137.49192547215193 C 18.773333333333333 137.49192547215193, 19.047333333333334 137.60725880548526, 19.23 137.83792547215194 C 19.412666666666667 138.06859213881862, 19.514666666666663 138.3825921388186, 19.535999999999998 138.77992547215192 C 19.546666666666667 138.9399254721519, 19.55333333333333 139.0985921388186, 19.555999999999997 139.25592547215192 C 19.558666666666664 139.41325880548527, 19.557333333333332 139.56659213881858, 19.552 139.71592547215192 C 19.546666666666667 139.86525880548527, 19.538666666666668 140.00525880548525, 19.528 140.13592547215194 C 19.482666666666667 140.6345921388186, 19.353333333333335 140.99992547215192, 19.14 141.23192547215191 C 18.926666666666666 141.4639254721519, 18.581333333333333 141.5945921388186, 18.104 141.62392547215194 L 18.104 140.73192547215191 C 18.21333333333333 140.7025921388186, 18.296 140.64992547215195, 18.352 140.57392547215193 C 18.408 140.4979254721519, 18.44 140.39859213881857, 18.448 140.27592547215193 C 18.471999999999998 139.98525880548527, 18.485999999999997 139.72392547215193, 18.49 139.49192547215193 C 18.494 139.25992547215193, 18.485333333333333 139.0385921388186, 18.464 138.82792547215192 C 18.447999999999997 138.67325880548526, 18.396666666666665 138.5579254721519, 18.31 138.48192547215191 C 18.223333333333333 138.40592547215192, 18.090666666666664 138.36792547215194, 17.912 138.36792547215194 C 17.901333333333334 138.36792547215194, 17.890666666666668 138.36925880548526, 17.88 138.37192547215193 C 17.86933333333333 138.3745921388186, 17.86 138.37725880548527, 17.852 138.37992547215194 Z M 17.852 136.08792547215194 L 17.852 135.15592547215192 L 19.439999999999998 135.15592547215192 L 19.439999999999998 136.08792547215194 Z M 21.944 141.55592547215193 L 21.944 135.15592547215192 L 23.003999999999998 135.15592547215192 L 23.003999999999998 141.55592547215193 Z " stroke="none" fill-rule="nonzero" fill="#000000" fill-opacity="1" transform="matrix(1,0,0,1,5.05,13.314)" id="text25 l" />
  <path d="M 0 133.04886377400845 L 10 133.04886377400845 L 10 134.54886377400845 L 0 134.54886377400845 Z " stroke="none" fill-rule="evenodd" fill="#000000" fill-opacity="1" transform="matrix(1,0,0,1,5.05,13.314)" id="mark26 l" />
  <path d="M 0 123.491802075865 L 10 123.491802075865 L 10 124.991802075865 L 0 124.991802075865 Z " stroke="none" fill-rule="evenodd" fill="#000000" fill-opacity="1" transform="matrix(1,0,0,1,5.05,13.314)" id="mark27 l" />
  <path d="M 0 113.93474037772154 L 10 113.93474037772154 L 10 115.43474037772154 L 0 115.43474037772154 Z " stroke="none" fill-rule="evenodd" fill="#000000" fill-opacity="1" transform="matrix(1,0,0,1,5.05,13.314)" id="mark28 l" />
  <path d="M 0 104.37767867957808 L 10 104.37767867957808 L 10 105.87767867957808 L 0 105.87767867957808 Z " stroke="none" fill-rule="evenodd" fill="#000000" fill-opacity="1" transform="matrix(1,0,0,1,5.05,13.314)" id="mark29 l" />
  <path d="M 0 94.82061698143463 L 25 94.82061698143463 L 25 96.32061698143463 L 0 96.32061698143463 Z " stroke="none" fill-rule="evenodd" fill="#000000" fill-opacity="1" transform="matrix(1,0,0,1,5.05,13.314)" id="mark30 l" />
  <path d="M 12.223999999999998 92.35461698143463 C 12.221333333333334 92.2532836481013, 12.219333333333333 92.1692836481013, 12.218 92.10261698143462 C 12.216666666666667 92.03595031476796, 12.216666666666667 91.96795031476796, 12.218 91.89861698143463 C 12.219333333333333 91.8292836481013, 12.221333333333334 91.73995031476797, 12.223999999999998 91.63061698143463 L 13.303999999999998 91.63061698143463 L 13.303999999999998 92.49461698143463 C 13.303999999999998 92.73195031476796, 13.417333333333332 92.88261698143462, 13.643999999999998 92.94661698143463 L 13.643999999999998 93.83861698143463 C 13.155999999999999 93.8012836481013, 12.800666666666665 93.66661698143463, 12.578 93.43461698143463 C 12.355333333333334 93.20261698143463, 12.237333333333332 92.84261698143463, 12.223999999999998 92.35461698143463 Z M 12.292 88.30261698143462 L 12.292 87.37061698143462 L 15.536 87.37061698143462 L 15.536 88.30261698143462 Z M 14.143999999999998 92.95061698143464 C 14.367999999999999 92.89461698143464, 14.483999999999998 92.74395031476796, 14.491999999999999 92.49861698143462 C 14.497333333333334 92.29595031476796, 14.500666666666666 92.1132836481013, 14.501999999999999 91.95061698143464 C 14.503333333333332 91.78795031476795, 14.498666666666665 91.63061698143463, 14.488 91.47861698143463 C 14.48 91.32128364810129, 14.431999999999999 91.18795031476796, 14.344 91.07861698143464 C 14.256 90.9692836481013, 14.089333333333332 90.9172836481013, 13.844 90.92261698143463 L 13.096 90.93061698143462 L 13.068 90.03861698143463 L 14.027999999999999 88.65461698143463 L 15.216 88.65461698143463 L 14.248 90.00661698143463 L 14.28 90.00661698143463 C 14.712 90.00661698143463, 15.028666666666666 90.12928364810129, 15.229999999999999 90.37461698143463 C 15.431333333333333 90.61995031476796, 15.544 90.9972836481013, 15.568 91.50661698143463 C 15.57333333333333 91.57861698143464, 15.576666666666664 91.65061698143462, 15.578 91.72261698143463 C 15.57933333333333 91.79461698143463, 15.579999999999998 91.8652836481013, 15.579999999999998 91.93461698143463 C 15.579999999999998 92.00395031476796, 15.57933333333333 92.0732836481013, 15.578 92.14261698143463 C 15.576666666666664 92.21195031476796, 15.57333333333333 92.28261698143463, 15.568 92.35461698143463 C 15.549333333333333 92.85061698143463, 15.428666666666665 93.21528364810129, 15.206 93.44861698143463 C 14.983333333333334 93.68195031476796, 14.630666666666666 93.81195031476796, 14.148 93.83861698143463 Z M 16.196 92.35861698143462 C 16.188000000000002 91.92928364810129, 16.182666666666666 91.51261698143463, 16.18 91.10861698143462 C 16.177333333333333 90.70461698143463, 16.177999999999997 90.3092836481013, 16.182 89.92261698143463 C 16.186 89.53595031476796, 16.190666666666665 89.15461698143463, 16.196 88.77861698143462 C 16.209333333333333 88.33861698143463, 16.334000000000003 87.9932836481013, 16.57 87.74261698143462 C 16.805999999999997 87.49195031476796, 17.142666666666663 87.34661698143464, 17.58 87.30661698143463 L 17.58 88.19461698143463 C 17.382666666666665 88.25061698143463, 17.281333333333333 88.37995031476795, 17.276 88.58261698143463 C 17.262666666666668 88.95328364810129, 17.253333333333334 89.30128364810129, 17.248 89.62661698143462 C 17.242666666666665 89.95195031476796, 17.24 90.26861698143463, 17.24 90.57661698143463 C 17.24 90.88461698143462, 17.242666666666665 91.1992836481013, 17.248 91.52061698143463 C 17.253333333333334 91.84195031476796, 17.262666666666668 92.18528364810129, 17.276 92.55061698143463 C 17.281333333333333 92.75861698143463, 17.382666666666665 92.89061698143463, 17.58 92.94661698143463 L 17.58 93.83461698143462 C 17.142666666666663 93.79461698143463, 16.805999999999997 93.64861698143463, 16.57 93.39661698143463 C 16.334000000000003 93.14461698143464, 16.209333333333333 92.79861698143463, 16.196 92.35861698143462 Z M 18.084 93.83461698143462 L 18.084 92.94261698143463 C 18.268 92.8892836481013, 18.366666666666667 92.76528364810129, 18.38 92.57061698143463 C 18.398666666666667 92.10395031476796, 18.410666666666668 91.65528364810129, 18.416 91.22461698143462 C 18.421333333333333 90.79395031476797, 18.421333333333333 90.3632836481013, 18.416 89.93261698143463 C 18.410666666666668 89.50195031476797, 18.398666666666667 89.0492836481013, 18.38 88.57461698143463 C 18.374666666666666 88.37995031476797, 18.276 88.2532836481013, 18.084 88.19461698143463 L 18.084 87.30661698143463 C 18.513333333333335 87.34661698143464, 18.846666666666668 87.49195031476796, 19.084 87.74261698143462 C 19.321333333333335 87.9932836481013, 19.445333333333334 88.33861698143463, 19.456 88.77861698143462 C 19.46666666666667 89.0932836481013, 19.474666666666668 89.40328364810131, 19.48 89.70861698143463 C 19.485333333333333 90.01395031476795, 19.488 90.31461698143463, 19.488 90.61061698143463 C 19.488 90.90661698143464, 19.485333333333333 91.19995031476796, 19.48 91.49061698143463 C 19.474666666666668 91.7812836481013, 19.46666666666667 92.07061698143463, 19.456 92.35861698143462 C 19.439999999999998 92.80928364810129, 19.311999999999998 93.15795031476796, 19.072 93.40461698143463 C 18.832 93.6512836481013, 18.502666666666666 93.79461698143463, 18.084 93.83461698143462 Z M 21.944 93.77061698143463 L 21.944 87.37061698143462 L 23.003999999999998 87.37061698143462 L 23.003999999999998 93.77061698143463 Z " stroke="none" fill-rule="nonzero" fill="#000000" fill-opacity="1" transform="matrix(1,0,0,1,5.05,13.314)" id="text30 l" />
  <path d="M 0 85.26355528329111 L 10 85.26355528329111 L 10 86.76355528329111 L 0 86.76355528329111 Z " stroke="none" fill-rule="evenodd" fill="#000000" fill-opacity="1" transform="matrix(1,0,0,1,5.05,13.314)" id="mark31 l" />
  <path d="M 0 75.70649358514765 L 10 75.70649358514765 L 10 77.20649358514765 L 0 77.20649358514765 Z " stroke="none" fill-rule="evenodd" fill="#000000" fill-opacity="1" transform="matrix(1,0,0,1,5.05,13.314)" id="mark32 l" />
  <path d="M 0 66.1494318870042 L 10 66.1494318870042 L 10 67.6494318870042 L 0 67.6494318870042 Z " stroke="none" fill-rule="evenodd" fill="#000000" fill-opacity="1" transform="matrix(1,0,0,1,5.05,13.314)" id="mark33 l" />
  <path d="M 0 56.59237018886074 L 10 56.59237018886074 L 10 58.09237018886074 L 0 58.09237018886074 Z " stroke="none" fill-rule="evenodd" fill="#000000" fill-opacity="1" transform="matrix(1,0,0,1,5.05,13.314)" id="mark34 l" />
  <path d="M 0 47.035308490717284 L 25 47.035308490717284 L 25 48.535308490717284 L 0 48.535308490717284 Z " stroke="none" fill-rule="evenodd" fill="#000000" fill-opacity="1" transform="matrix(1,0,0,1,5.05,13.314)" id="mark35 l" />
  <path d="M 12.232 44.53730849071729 C 12.229333333333333 44.43597515738395, 12.227333333333334 44.351975157383954, 12.226 44.285308490717284 C 12.224666666666668 44.218641824050614, 12.224666666666668 44.150641824050616, 12.226 44.081308490717284 C 12.227333333333334 44.01197515738395, 12.229333333333333 43.922641824050615, 12.232 43.81330849071728 L 13.312 43.81330849071728 L 13.312 44.67730849071728 C 13.312 44.91464182405062, 13.425333333333333 45.065308490717285, 13.652 45.129308490717285 L 13.652 46.02130849071728 C 13.164 45.98397515738395, 12.808666666666667 45.849308490717284, 12.586 45.617308490717285 C 12.363333333333333 45.385308490717286, 12.245333333333335 45.025308490717286, 12.232 44.53730849071729 Z M 12.3 40.48530849071729 L 12.3 39.553308490717285 L 15.544 39.553308490717285 L 15.544 40.48530849071729 Z M 14.152000000000001 45.13330849071728 C 14.376000000000001 45.077308490717286, 14.492 44.92664182405062, 14.5 44.681308490717285 C 14.505333333333333 44.47864182405061, 14.508666666666667 44.29597515738395, 14.51 44.13330849071728 C 14.511333333333333 43.97064182405062, 14.506666666666668 43.81330849071728, 14.496 43.66130849071728 C 14.488 43.50397515738395, 14.440000000000001 43.370641824050615, 14.352 43.26130849071728 C 14.264 43.15197515738395, 14.097333333333335 43.09997515738395, 13.852 43.105308490717285 L 13.104 43.11330849071729 L 13.076 42.221308490717284 L 14.036 40.837308490717284 L 15.224 40.837308490717284 L 14.256 42.18930849071728 L 14.288 42.18930849071728 C 14.719999999999999 42.18930849071728, 15.036666666666665 42.31197515738395, 15.238 42.55730849071728 C 15.439333333333334 42.80264182405062, 15.552 43.17997515738395, 15.576 43.68930849071728 C 15.581333333333333 43.76130849071728, 15.584666666666667 43.833308490717286, 15.586 43.90530849071728 C 15.587333333333333 43.977308490717284, 15.588000000000001 44.04797515738395, 15.588000000000001 44.117308490717285 C 15.588000000000001 44.18664182405062, 15.587333333333333 44.25597515738395, 15.586 44.32530849071728 C 15.584666666666667 44.394641824050616, 15.581333333333333 44.465308490717284, 15.576 44.53730849071729 C 15.557333333333334 45.03330849071729, 15.436666666666667 45.397975157383954, 15.214 45.63130849071728 C 14.991333333333333 45.864641824050615, 14.638666666666666 45.99464182405062, 14.156 46.02130849071728 Z M 16.18 44.53730849071729 C 16.174666666666667 44.36397515738395, 16.173333333333332 44.224641824050615, 16.176 44.11930849071728 C 16.178666666666665 44.01397515738395, 16.181333333333335 43.91197515738395, 16.183999999999997 43.81330849071728 L 17.264 43.81330849071728 C 17.256 43.89064182405062, 17.25 43.986641824050615, 17.246 44.10130849071729 C 17.241999999999997 44.21597515738395, 17.240666666666666 44.32664182405061, 17.241999999999997 44.43330849071728 C 17.243333333333332 44.53997515738395, 17.246666666666666 44.61997515738395, 17.252 44.67330849071728 C 17.262666666666668 44.79330849071728, 17.297333333333334 44.891308490717286, 17.355999999999998 44.967308490717286 C 17.414666666666665 45.04330849071729, 17.497333333333334 45.09730849071728, 17.604 45.129308490717285 L 17.604 46.02130849071728 C 17.110666666666663 45.98397515738395, 16.75333333333333 45.849308490717284, 16.532 45.617308490717285 C 16.310666666666666 45.385308490717286, 16.19333333333333 45.025308490717286, 16.18 44.53730849071729 Z M 16.279999999999998 43.20130849071728 L 16.279999999999998 39.553308490717285 L 17.348 39.553308490717285 L 17.348 43.20130849071728 Z M 17.852 42.77730849071728 L 17.852 42.02130849071728 C 17.929333333333332 41.98130849071728, 18.014666666666667 41.949308490717286, 18.107999999999997 41.925308490717285 C 18.20133333333333 41.901308490717284, 18.301333333333332 41.88930849071728, 18.407999999999998 41.88930849071728 C 18.773333333333333 41.88930849071728, 19.047333333333334 42.004641824050616, 19.23 42.23530849071729 C 19.412666666666667 42.46597515738395, 19.514666666666663 42.779975157383944, 19.535999999999998 43.17730849071728 C 19.546666666666667 43.33730849071728, 19.55333333333333 43.49597515738395, 19.555999999999997 43.653308490717286 C 19.558666666666664 43.81064182405062, 19.557333333333332 43.96397515738395, 19.552 44.11330849071728 C 19.546666666666667 44.26264182405062, 19.538666666666668 44.40264182405062, 19.528 44.53330849071728 C 19.482666666666667 45.031975157383954, 19.353333333333335 45.397308490717286, 19.14 45.629308490717285 C 18.926666666666666 45.861308490717285, 18.581333333333333 45.99197515738395, 18.104 46.02130849071728 L 18.104 45.129308490717285 C 18.21333333333333 45.09997515738395, 18.296 45.047308490717285, 18.352 44.971308490717284 C 18.408 44.895308490717284, 18.44 44.79597515738395, 18.448 44.67330849071728 C 18.471999999999998 44.382641824050616, 18.485999999999997 44.12130849071728, 18.49 43.88930849071728 C 18.494 43.657308490717284, 18.485333333333333 43.43597515738395, 18.464 43.22530849071728 C 18.447999999999997 43.07064182405062, 18.396666666666665 42.955308490717286, 18.31 42.879308490717285 C 18.223333333333333 42.803308490717285, 18.090666666666664 42.76530849071728, 17.912 42.76530849071728 C 17.901333333333334 42.76530849071728, 17.890666666666668 42.766641824050616, 17.88 42.769308490717286 C 17.86933333333333 42.77197515738395, 17.86 42.77464182405062, 17.852 42.77730849071728 Z M 17.852 40.48530849071729 L 17.852 39.553308490717285 L 19.439999999999998 39.553308490717285 L 19.439999999999998 40.48530849071729 Z M 21.944 45.95330849071728 L 21.944 39.553308490717285 L 23.003999999999998 39.553308490717285 L 23.003999999999998 45.95330849071728 Z " stroke="none" fill-rule="nonzero" fill="#000000" fill-opacity="1" transform="matrix(1,0,0,1,5.05,13.314)" id="text35 l" />
  <path d="M 0 37.47824679257383 L 10 37.47824679257383 L 10 38.97824679257383 L 0 38.97824679257383 Z " stroke="none" fill-rule="evenodd" fill="#000000" fill-opacity="1" transform="matrix(1,0,0,1,5.05,13.314)" id="mark36 l" />
  <path d="M 0 27.92118509443037 L 10 27.92118509443037 L 10 29.42118509443037 L 0 29.42118509443037 Z " stroke="none" fill-rule="evenodd" fill="#000000" fill-opacity="1" transform="matrix(1,0,0,1,5.05,13.314)" id="mark37 l" />
  <path d="M 0 18.364123396286914 L 10 18.364123396286914 L 10 19.864123396286914 L 0 19.864123396286914 Z " stroke="none" fill-rule="evenodd" fill="#000000" fill-opacity="1" transform="matrix(1,0,0,1,5.05,13.314)" id="mark38 l" />
  <path d="M 0 8.807061698143457 L 10 8.807061698143457 L 10 10.307061698143457 L 0 10.307061698143457 Z " stroke="none" fill-rule="evenodd" fill="#000000" fill-opacity="1" transform="matrix(1,0,0,1,5.05,13.314)" id="mark39 l" />
  <path d="M 0 -0.75 L 25 -0.75 L 25 0.75 L 0 0.75 Z " stroke="none" fill-rule="evenodd" fill="#000000" fill-opacity="1" transform="matrix(1,0,0,1,5.05,13.314)" id="mark40 l" />
  <path d="M 11.739999999999998 -3.484 L 11.739999999999998 -4.359999999999999 L 12.455999999999998 -6.24 L 13.495999999999999 -6.24 L 12.771999999999998 -4.4079999999999995 L 13.171999999999997 -4.4079999999999995 L 13.171999999999997 -3.484 Z M 13.675999999999998 -1.7999999999999998 L 13.675999999999998 -8.2 L 14.683999999999997 -8.2 L 14.683999999999997 -1.7999999999999998 Z M 15.187999999999999 -3.484 L 15.187999999999999 -4.4079999999999995 L 15.655999999999999 -4.4079999999999995 L 15.655999999999999 -3.484 Z M 16.195999999999998 -3.2119999999999997 C 16.188 -3.641333333333333, 16.182666666666666 -4.058, 16.18 -4.462 C 16.177333333333333 -4.866, 16.177999999999997 -5.261333333333333, 16.182 -5.648 C 16.186 -6.034666666666666, 16.190666666666665 -6.416, 16.195999999999998 -6.792 C 16.20933333333333 -7.231999999999999, 16.333999999999996 -7.577333333333334, 16.569999999999997 -7.828 C 16.805999999999997 -8.078666666666667, 17.142666666666663 -8.224, 17.58 -8.264 L 17.58 -7.3759999999999994 C 17.382666666666665 -7.32, 17.281333333333333 -7.190666666666667, 17.275999999999996 -6.9879999999999995 C 17.262666666666664 -6.617333333333333, 17.25333333333333 -6.269333333333333, 17.247999999999998 -5.944 C 17.242666666666665 -5.618666666666666, 17.24 -5.302, 17.24 -4.994 C 17.24 -4.686, 17.242666666666665 -4.371333333333333, 17.247999999999998 -4.05 C 17.25333333333333 -3.7286666666666664, 17.262666666666664 -3.3853333333333326, 17.275999999999996 -3.0199999999999996 C 17.281333333333333 -2.812, 17.382666666666665 -2.6799999999999997, 17.58 -2.6239999999999997 L 17.58 -1.7359999999999998 C 17.142666666666663 -1.7759999999999998, 16.805999999999997 -1.9219999999999997, 16.569999999999997 -2.174 C 16.333999999999996 -2.4259999999999997, 16.20933333333333 -2.772, 16.195999999999998 -3.2119999999999997 Z M 18.084 -1.7359999999999998 L 18.084 -2.6279999999999997 C 18.268 -2.681333333333333, 18.366666666666667 -2.8053333333333335, 18.38 -3 C 18.398666666666664 -3.4666666666666663, 18.410666666666664 -3.915333333333333, 18.415999999999997 -4.346 C 18.42133333333333 -4.776666666666666, 18.42133333333333 -5.207333333333333, 18.415999999999997 -5.638 C 18.410666666666664 -6.068666666666666, 18.398666666666664 -6.521333333333333, 18.38 -6.9959999999999996 C 18.374666666666666 -7.190666666666667, 18.276 -7.317333333333334, 18.084 -7.3759999999999994 L 18.084 -8.264 C 18.513333333333332 -8.224, 18.846666666666664 -8.078666666666667, 19.083999999999996 -7.828 C 19.32133333333333 -7.577333333333334, 19.44533333333333 -7.231999999999999, 19.456 -6.792 C 19.466666666666665 -6.477333333333332, 19.474666666666664 -6.167333333333333, 19.479999999999997 -5.861999999999999 C 19.48533333333333 -5.556666666666667, 19.488 -5.256, 19.488 -4.96 C 19.488 -4.664, 19.48533333333333 -4.370666666666667, 19.479999999999997 -4.08 C 19.474666666666664 -3.7893333333333334, 19.466666666666665 -3.5, 19.456 -3.2119999999999997 C 19.439999999999998 -2.761333333333333, 19.311999999999998 -2.4126666666666665, 19.072 -2.166 C 18.831999999999997 -1.9193333333333331, 18.502666666666663 -1.7759999999999998, 18.084 -1.7359999999999998 Z M 21.944 -1.7999999999999998 L 21.944 -8.2 L 23.003999999999998 -8.2 L 23.003999999999998 -1.7999999999999998 Z " stroke="none" fill-rule="nonzero" fill="#000000" fill-opacity="1" transform="matrix(1,0,0,1,5.05,13.314)" id="text40 l" />
  <path d="M -5 -13.264 L 30 -13.264 L 30 379.49340622759496 L -5 379.49340622759496 Z " stroke="#FF0000" stroke-opacity="1" stroke-width="0.1" stroke-linecap="butt" stroke-linejoin="miter" fill="none" transform="matrix(1,0,0,1,5.05,13.314)" />
</svg>