<?xml version="1.0" encoding="UTF-8"?>
<svg xmlns:xlink="http://www.w3.org/1999/xlink" viewBox="0 0 35.1 359.66254526271007" version="1.1" style="font-synthesis: none;" width="35.1mm" height="359.66254526271007mm" xmlns="http://www.w3.org/2000/svg">
  <defs />
  <style>	</style>
  <path d="M 0 0 L 35.1 0 L 35.1 359.66254526271007 L 0 359.66254526271007 Z " stroke="none" fill-rule="nonzero" fill="#FFFFFF" fill-opacity="1" transform="matrix(1,0,0,1,0,0)" />
  <path d="M 0 338.78054526271006 L 10 338.78054526271006 L 10 340.28054526271006 L 0 340.28054526271006 Z " stroke="none" fill-rule="evenodd" fill="#000000" fill-opacity="1" transform="matrix(1,0,0,1,5.05,13.314)" id="mark1 l" />
  <path d="M 0 324.63343921009715 L 10 324.63343921009715 L 10 326.13343921009715 L 0 326.13343921009715 Z " stroke="none" fill-rule="evenodd" fill="#000000" fill-opacity="1" transform="matrix(1,0,0,1,5.05,13.314)" id="mark2 l" />
  <path d="M 0 310.48633315748424 L 10 310.48633315748424 L 10 311.98633315748424 L 0 311.98633315748424 Z " stroke="none" fill-rule="evenodd" fill="#000000" fill-opacity="1" transform="matrix(1,0,0,1,5.05,13.314)" id="mark3 l" />
  <path d="M 0 296.3392271048713 L 10 296.3392271048713 L 10 297.8392271048713 L 0 297.8392271048713 Z " stroke="none" fill-rule="evenodd" fill="#000000" fill-opacity="1" transform="matrix(1,0,0,1,5.05,13.314)" id="mark4 l" />
  <path d="M 0 282.19212105225836 L 25 282.19212105225836 L 25 283.69212105225836 L 0 283.69212105225836 Z " stroke="none" fill-rule="evenodd" fill="#000000" fill-opacity="1" transform="matrix(1,0,0,1,5.05,13.314)" id="mark5 l" />
  <path d="M 16.18 279.69412105225837 C 16.174666666666667 279.520787718925, 16.173333333333332 279.3814543855917, 16.176 279.27612105225836 C 16.178666666666665 279.170787718925, 16.181333333333335 279.068787718925, 16.183999999999997 278.9701210522584 L 17.264 278.9701210522584 C 17.256 279.04745438559166, 17.25 279.14345438559167, 17.246 279.2581210522584 C 17.241999999999997 279.372787718925, 17.240666666666666 279.4834543855917, 17.241999999999997 279.5901210522584 C 17.243333333333332 279.696787718925, 17.246666666666666 279.77678771892505, 17.252 279.8301210522584 C 17.262666666666668 279.95012105225834, 17.297333333333334 280.04812105225835, 17.355999999999998 280.1241210522584 C 17.414666666666665 280.20012105225834, 17.497333333333334 280.25412105225837, 17.604 280.28612105225835 L 17.604 281.17812105225835 C 17.110666666666663 281.140787718925, 16.75333333333333 281.0061210522584, 16.532 280.77412105225835 C 16.310666666666666 280.5421210522583, 16.19333333333333 280.18212105225837, 16.18 279.69412105225837 Z M 16.279999999999998 278.35812105225835 L 16.279999999999998 274.7101210522584 L 17.348 274.7101210522584 L 17.348 278.35812105225835 Z M 17.852 277.9341210522584 L 17.852 277.17812105225835 C 17.929333333333332 277.1381210522583, 18.014666666666667 277.10612105225835, 18.107999999999997 277.08212105225834 C 18.20133333333333 277.05812105225834, 18.301333333333332 277.04612105225834, 18.407999999999998 277.04612105225834 C 18.773333333333333 277.04612105225834, 19.047333333333334 277.1614543855917, 19.23 277.39212105225835 C 19.412666666666667 277.622787718925, 19.514666666666663 277.936787718925, 19.535999999999998 278.33412105225835 C 19.546666666666667 278.4941210522584, 19.55333333333333 278.652787718925, 19.555999999999997 278.81012105225835 C 19.558666666666664 278.9674543855917, 19.557333333333332 279.12078771892504, 19.552 279.2701210522584 C 19.546666666666667 279.41945438559173, 19.538666666666668 279.5594543855917, 19.528 279.69012105225835 C 19.482666666666667 280.188787718925, 19.353333333333335 280.5541210522583, 19.14 280.78612105225835 C 18.926666666666666 281.0181210522584, 18.581333333333333 281.14878771892506, 18.104 281.17812105225835 L 18.104 280.28612105225835 C 18.21333333333333 280.256787718925, 18.296 280.20412105225836, 18.352 280.12812105225834 C 18.408 280.05212105225837, 18.44 279.95278771892504, 18.448 279.8301210522584 C 18.471999999999998 279.5394543855917, 18.485999999999997 279.27812105225837, 18.49 279.04612105225834 C 18.494 278.8141210522584, 18.485333333333333 278.592787718925, 18.464 278.38212105225836 C 18.447999999999997 278.2274543855917, 18.396666666666665 278.1121210522584, 18.31 278.03612105225835 C 18.223333333333333 277.9601210522584, 18.090666666666664 277.9221210522584, 17.912 277.9221210522584 C 17.901333333333334 277.9221210522584, 17.890666666666668 277.9234543855917, 17.88 277.92612105225834 C 17.86933333333333 277.92878771892504, 17.86 277.9314543855917, 17.852 277.9341210522584 Z M 17.852 275.64212105225835 L 17.852 274.7101210522584 L 19.439999999999998 274.7101210522584 L 19.439999999999998 275.64212105225835 Z M 21.944 281.11012105225836 L 21.944 274.7101210522584 L 23.003999999999998 274.7101210522584 L 23.003999999999998 281.11012105225836 Z " stroke="none" fill-rule="nonzero" fill="#000000" fill-opacity="1" transform="matrix(1,0,0,1,5.05,13.314)" id="text5 l" />
  <path d="M 0 268.04501499964545 L 10 268.04501499964545 L 10 269.54501499964545 L 0 269.54501499964545 Z " stroke="none" fill-rule="evenodd" fill="#000000" fill-opacity="1" transform="matrix(1,0,0,1,5.05,13.314)" id="mark6 l" />
  <path d="M 0 253.89790894703253 L 10 253.89790894703253 L 10 255.39790894703253 L 0 255.39790894703253 Z " stroke="none" fill-rule="evenodd" fill="#000000" fill-opacity="1" transform="matrix(1,0,0,1,5.05,13.314)" id="mark7 l" />
  <path d="M 0 239.75080289441962 L 10 239.75080289441962 L 10 241.25080289441962 L 0 241.25080289441962 Z " stroke="none" fill-rule="evenodd" fill="#000000" fill-opacity="1" transform="matrix(1,0,0,1,5.05,13.314)" id="mark8 l" />
  <path d="M 0 225.6036968418067 L 10 225.6036968418067 L 10 227.1036968418067 L 0 227.1036968418067 Z " stroke="none" fill-rule="evenodd" fill="#000000" fill-opacity="1" transform="matrix(1,0,0,1,5.05,13.314)" id="mark9 l" />
  <path d="M 0 211.4565907891938 L 25 211.4565907891938 L 25 212.9565907891938 L 0 212.9565907891938 Z " stroke="none" fill-rule="evenodd" fill="#000000" fill-opacity="1" transform="matrix(1,0,0,1,5.05,13.314)" id="mark10 l" />
  <path d="M 14.323999999999998 210.4065907891938 L 14.323999999999998 204.96259078919383 L 13.871999999999998 204.96259078919383 L 13.839999999999998 204.5825907891938 L 14.543999999999999 204.0065907891938 L 15.424 204.0065907891938 L 15.424 210.4065907891938 Z M 16.196 208.9945907891938 C 16.188000000000002 208.56525745586046, 16.182666666666666 208.1485907891938, 16.18 207.7445907891938 C 16.177333333333333 207.3405907891938, 16.177999999999997 206.94525745586049, 16.182 206.5585907891938 C 16.186 206.17192412252717, 16.190666666666665 205.79059078919383, 16.196 205.41459078919382 C 16.209333333333333 204.97459078919383, 16.334000000000003 204.6292574558605, 16.57 204.37859078919382 C 16.805999999999997 204.12792412252713, 17.142666666666663 203.9825907891938, 17.58 203.94259078919382 L 17.58 204.83059078919382 C 17.382666666666665 204.8865907891938, 17.281333333333333 205.01592412252717, 17.276 205.21859078919383 C 17.262666666666668 205.5892574558605, 17.253333333333334 205.93725745586045, 17.248 206.2625907891938 C 17.242666666666665 206.5879241225271, 17.24 206.9045907891938, 17.24 207.21259078919383 C 17.24 207.52059078919382, 17.242666666666665 207.83525745586047, 17.248 208.1565907891938 C 17.253333333333334 208.47792412252716, 17.262666666666668 208.82125745586046, 17.276 209.18659078919381 C 17.281333333333333 209.39459078919384, 17.382666666666665 209.52659078919382, 17.58 209.5825907891938 L 17.58 210.4705907891938 C 17.142666666666663 210.4305907891938, 16.805999999999997 210.2845907891938, 16.57 210.03259078919382 C 16.334000000000003 209.7805907891938, 16.209333333333333 209.4345907891938, 16.196 208.9945907891938 Z M 18.084 210.4705907891938 L 18.084 209.5785907891938 C 18.268 209.52525745586047, 18.366666666666667 209.4012574558605, 18.38 209.20659078919383 C 18.398666666666667 208.73992412252716, 18.410666666666668 208.2912574558605, 18.416 207.86059078919382 C 18.421333333333333 207.42992412252715, 18.421333333333333 206.99925745586046, 18.416 206.56859078919382 C 18.410666666666668 206.13792412252712, 18.398666666666667 205.6852574558605, 18.38 205.21059078919382 C 18.374666666666666 205.01592412252717, 18.276 204.8892574558605, 18.084 204.83059078919382 L 18.084 203.94259078919382 C 18.513333333333335 203.9825907891938, 18.846666666666668 204.12792412252713, 19.084 204.37859078919382 C 19.321333333333335 204.6292574558605, 19.445333333333334 204.97459078919383, 19.456 205.41459078919382 C 19.46666666666667 205.72925745586048, 19.474666666666668 206.03925745586048, 19.48 206.3445907891938 C 19.485333333333333 206.64992412252712, 19.488 206.95059078919383, 19.488 207.24659078919382 C 19.488 207.5425907891938, 19.485333333333333 207.83592412252713, 19.48 208.1265907891938 C 19.474666666666668 208.4172574558605, 19.46666666666667 208.70659078919383, 19.456 208.9945907891938 C 19.439999999999998 209.44525745586049, 19.311999999999998 209.79392412252713, 19.072 210.0405907891938 C 18.832 210.28725745586047, 18.502666666666666 210.4305907891938, 18.084 210.4705907891938 Z M 21.944 210.4065907891938 L 21.944 204.0065907891938 L 23.003999999999998 204.0065907891938 L 23.003999999999998 210.4065907891938 Z " stroke="none" fill-rule="nonzero" fill="#000000" fill-opacity="1" transform="matrix(1,0,0,1,5.05,13.314)" id="text10 l" />
  <path d="M 0 197.30948473658088 L 10 197.30948473658088 L 10 198.80948473658088 L 0 198.80948473658088 Z " stroke="none" fill-rule="evenodd" fill="#000000" fill-opacity="1" transform="matrix(1,0,0,1,5.05,13.314)" id="mark11 l" />
  <path d="M 0 183.16237868396794 L 10 183.16237868396794 L 10 184.66237868396794 L 0 184.66237868396794 Z " stroke="none" fill-rule="evenodd" fill="#000000" fill-opacity="1" transform="matrix(1,0,0,1,5.05,13.314)" id="mark12 l" />
  <path d="M 0 169.01527263135503 L 10 169.01527263135503 L 10 170.51527263135503 L 0 170.51527263135503 Z " stroke="none" fill-rule="evenodd" fill="#000000" fill-opacity="1" transform="matrix(1,0,0,1,5.05,13.314)" id="mark13 l" />
  <path d="M 0 154.86816657874212 L 10 154.86816657874212 L 10 156.36816657874212 L 0 156.36816657874212 Z " stroke="none" fill-rule="evenodd" fill="#000000" fill-opacity="1" transform="matrix(1,0,0,1,5.05,13.314)" id="mark14 l" />
  <path d="M 0 140.7210605261292 L 25 140.7210605261292 L 25 142.2210605261292 L 0 142.2210605261292 Z " stroke="none" fill-rule="evenodd" fill="#000000" fill-opacity="1" transform="matrix(1,0,0,1,5.05,13.314)" id="mark15 l" />
  <path d="M 14.331999999999999 139.6390605261292 L 14.331999999999999 134.19506052612923 L 13.879999999999999 134.19506052612923 L 13.847999999999999 133.8150605261292 L 14.552 133.2390605261292 L 15.432 133.2390605261292 L 15.432 139.6390605261292 Z M 16.18 138.22306052612922 C 16.174666666666667 138.0497271927959, 16.173333333333332 137.91039385946254, 16.176 137.8050605261292 C 16.178666666666665 137.69972719279588, 16.181333333333335 137.5977271927959, 16.183999999999997 137.49906052612923 L 17.264 137.49906052612923 C 17.256 137.57639385946254, 17.25 137.67239385946255, 17.246 137.7870605261292 C 17.241999999999997 137.90172719279587, 17.240666666666666 138.01239385946252, 17.241999999999997 138.1190605261292 C 17.243333333333332 138.2257271927959, 17.246666666666666 138.30572719279587, 17.252 138.3590605261292 C 17.262666666666668 138.47906052612922, 17.297333333333334 138.57706052612923, 17.355999999999998 138.65306052612922 C 17.414666666666665 138.72906052612922, 17.497333333333334 138.7830605261292, 17.604 138.8150605261292 L 17.604 139.70706052612923 C 17.110666666666663 139.6697271927959, 16.75333333333333 139.5350605261292, 16.532 139.3030605261292 C 16.310666666666666 139.0710605261292, 16.19333333333333 138.71106052612922, 16.18 138.22306052612922 Z M 16.279999999999998 136.8870605261292 L 16.279999999999998 133.2390605261292 L 17.348 133.2390605261292 L 17.348 136.8870605261292 Z M 17.852 136.46306052612923 L 17.852 135.70706052612923 C 17.929333333333332 135.66706052612923, 18.014666666666667 135.63506052612922, 18.107999999999997 135.61106052612922 C 18.20133333333333 135.58706052612922, 18.301333333333332 135.57506052612922, 18.407999999999998 135.57506052612922 C 18.773333333333333 135.57506052612922, 19.047333333333334 135.69039385946257, 19.23 135.92106052612922 C 19.412666666666667 136.15172719279587, 19.514666666666663 136.4657271927959, 19.535999999999998 136.8630605261292 C 19.546666666666667 137.0230605261292, 19.55333333333333 137.18172719279588, 19.555999999999997 137.3390605261292 C 19.558666666666664 137.49639385946256, 19.557333333333332 137.6497271927959, 19.552 137.7990605261292 C 19.546666666666667 137.94839385946253, 19.538666666666668 138.08839385946254, 19.528 138.21906052612923 C 19.482666666666667 138.71772719279588, 19.353333333333335 139.0830605261292, 19.14 139.3150605261292 C 18.926666666666666 139.5470605261292, 18.581333333333333 139.67772719279589, 18.104 139.70706052612923 L 18.104 138.8150605261292 C 18.21333333333333 138.7857271927959, 18.296 138.7330605261292, 18.352 138.65706052612921 C 18.408 138.58106052612922, 18.44 138.4817271927959, 18.448 138.3590605261292 C 18.471999999999998 138.06839385946253, 18.485999999999997 137.8070605261292, 18.49 137.57506052612922 C 18.494 137.3430605261292, 18.485333333333333 137.12172719279587, 18.464 136.9110605261292 C 18.447999999999997 136.75639385946255, 18.396666666666665 136.6410605261292, 18.31 136.5650605261292 C 18.223333333333333 136.4890605261292, 18.090666666666664 136.45106052612923, 17.912 136.45106052612923 C 17.901333333333334 136.45106052612923, 17.890666666666668 136.45239385946257, 17.88 136.45506052612922 C 17.86933333333333 136.45772719279586, 17.86 136.46039385946256, 17.852 136.46306052612923 Z M 17.852 134.17106052612922 L 17.852 133.2390605261292 L 19.439999999999998 133.2390605261292 L 19.439999999999998 134.17106052612922 Z M 21.944 139.6390605261292 L 21.944 133.2390605261292 L 23.003999999999998 133.2390605261292 L 23.003999999999998 139.6390605261292 Z " stroke="none" fill-rule="nonzero" fill="#000000" fill-opacity="1" transform="matrix(1,0,0,1,5.05,13.314)" id="text15 l" />
  <path d="M 0 126.5739544735163 L 10 126.5739544735163 L 10 128.0739544735163 L 0 128.0739544735163 Z " stroke="none" fill-rule="evenodd" fill="#000000" fill-opacity="1" transform="matrix(1,0,0,1,5.05,13.314)" id="mark16 l" />
  <path d="M 0 112.42684842090335 L 10 112.42684842090335 L 10 113.92684842090335 L 0 113.92684842090335 Z " stroke="none" fill-rule="evenodd" fill="#000000" fill-opacity="1" transform="matrix(1,0,0,1,5.05,13.314)" id="mark17 l" />
  <path d="M 0 98.27974236829044 L 10 98.27974236829044 L 10 99.77974236829044 L 0 99.77974236829044 Z " stroke="none" fill-rule="evenodd" fill="#000000" fill-opacity="1" transform="matrix(1,0,0,1,5.05,13.314)" id="mark18 l" />
  <path d="M 0 84.13263631567753 L 10 84.13263631567753 L 10 85.63263631567753 L 0 85.63263631567753 Z " stroke="none" fill-rule="evenodd" fill="#000000" fill-opacity="1" transform="matrix(1,0,0,1,5.05,13.314)" id="mark19 l" />
  <path d="M 0 69.98553026306462 L 25 69.98553026306462 L 25 71.48553026306462 L 0 71.48553026306462 Z " stroke="none" fill-rule="evenodd" fill="#000000" fill-opacity="1" transform="matrix(1,0,0,1,5.05,13.314)" id="mark20 l" />
  <path d="M 12.319999999999999 68.93553026306462 C 12.317333333333334 68.83686359639796, 12.315333333333331 68.74819692973128, 12.313999999999998 68.66953026306462 C 12.312666666666665 68.59086359639795, 12.311333333333334 68.51686359639795, 12.309999999999999 68.44753026306462 C 12.308666666666667 68.37819692973129, 12.308 68.30619692973129, 12.308 68.23153026306463 C 12.308 68.15686359639795, 12.308 68.07219692973129, 12.308 67.97753026306462 C 12.308 67.88286359639795, 12.309333333333335 67.77153026306462, 12.312 67.64353026306462 C 12.32 67.35019692973128, 12.37 67.08819692973128, 12.462 66.85753026306462 C 12.554 66.62686359639795, 12.687999999999999 66.42086359639795, 12.863999999999999 66.23953026306462 C 13.04 66.05819692973128, 13.257333333333333 65.89686359639795, 13.515999999999998 65.75553026306461 L 14.047999999999998 65.46753026306462 C 14.234666666666666 65.36619692973129, 14.354 65.24419692973129, 14.405999999999999 65.10153026306462 C 14.457999999999998 64.95886359639795, 14.488 64.82486359639795, 14.495999999999999 64.69953026306462 C 14.506666666666664 64.55286359639796, 14.512666666666664 64.39619692973129, 14.514 64.22953026306462 C 14.51533333333333 64.06286359639795, 14.511999999999997 63.90619692973128, 14.504 63.75953026306462 C 14.498666666666665 63.65553026306462, 14.468666666666666 63.56953026306462, 14.413999999999998 63.50153026306462 C 14.359333333333332 63.433530263064625, 14.279999999999998 63.384863596397956, 14.175999999999998 63.35553026306462 L 14.175999999999998 62.46753026306462 C 14.663999999999998 62.499530263064614, 15.014 62.63086359639796, 15.225999999999999 62.86153026306462 C 15.437999999999999 63.09219692973129, 15.554666666666666 63.45286359639796, 15.575999999999999 63.94353026306462 C 15.578666666666663 64.00753026306462, 15.580666666666666 64.07286359639795, 15.581999999999999 64.13953026306461 C 15.583333333333332 64.20619692973129, 15.584 64.27086359639796, 15.584 64.33353026306462 C 15.584 64.39619692973129, 15.583333333333332 64.45819692973129, 15.581999999999999 64.51953026306462 C 15.580666666666666 64.58086359639796, 15.578666666666663 64.64086359639795, 15.575999999999999 64.69953026306462 C 15.565333333333331 64.98486359639794, 15.512 65.23153026306461, 15.415999999999999 65.43953026306463 C 15.32 65.64753026306462, 15.19 65.82753026306462, 15.026 65.97953026306462 C 14.862 66.13153026306462, 14.672 66.26753026306463, 14.456 66.38753026306462 L 13.851999999999999 66.71553026306462 C 13.737333333333332 66.77686359639796, 13.647333333333332 66.86086359639795, 13.581999999999999 66.96753026306462 C 13.516666666666666 67.07419692973129, 13.469999999999999 67.18753026306462, 13.441999999999998 67.30753026306462 C 13.413999999999998 67.42753026306463, 13.399999999999999 67.53953026306462, 13.399999999999999 67.64353026306462 L 13.399999999999999 68.93553026306462 Z M 12.328 64.89553026306461 C 12.322666666666667 64.7781969297313, 12.318666666666665 64.66353026306463, 12.315999999999999 64.55153026306462 C 12.313333333333333 64.43953026306461, 12.311333333333334 64.33353026306462, 12.309999999999999 64.23353026306462 C 12.308666666666667 64.13353026306461, 12.309333333333335 64.03686359639795, 12.312 63.94353026306462 C 12.330666666666666 63.45553026306462, 12.447333333333333 63.096196929731285, 12.661999999999999 62.86553026306462 C 12.876666666666665 62.634863596397956, 13.213333333333331 62.502196929731284, 13.671999999999999 62.46753026306462 L 13.671999999999999 63.35953026306462 C 13.576 63.388863596397954, 13.505333333333333 63.43553026306462, 13.459999999999999 63.49953026306462 C 13.414666666666665 63.56353026306462, 13.390666666666664 63.64086359639795, 13.387999999999998 63.73153026306462 C 13.382666666666665 63.939530263064626, 13.379333333333333 64.13286359639795, 13.378 64.31153026306463 C 13.376666666666667 64.4901969297313, 13.381333333333334 64.68486359639796, 13.392 64.89553026306461 Z M 13.904 68.93553026306462 L 13.904 68.00353026306462 L 15.5 68.00353026306462 L 15.5 68.93553026306462 Z M 16.196 67.52353026306461 C 16.188000000000002 67.09419692973128, 16.182666666666666 66.67753026306463, 16.18 66.27353026306461 C 16.177333333333333 65.86953026306462, 16.177999999999997 65.47419692973129, 16.182 65.08753026306462 C 16.186 64.70086359639795, 16.190666666666665 64.31953026306462, 16.196 63.94353026306462 C 16.209333333333333 63.50353026306462, 16.334000000000003 63.15819692973129, 16.57 62.90753026306462 C 16.805999999999997 62.656863596397955, 17.142666666666663 62.51153026306463, 17.58 62.47153026306462 L 17.58 63.35953026306462 C 17.382666666666665 63.415530263064625, 17.281333333333333 63.54486359639796, 17.276 63.74753026306462 C 17.262666666666668 64.11819692973128, 17.253333333333334 64.46619692973128, 17.248 64.79153026306462 C 17.242666666666665 65.11686359639795, 17.24 65.43353026306463, 17.24 65.74153026306462 C 17.24 66.04953026306461, 17.242666666666665 66.36419692973129, 17.248 66.68553026306462 C 17.253333333333334 67.00686359639795, 17.262666666666668 67.35019692973128, 17.276 67.71553026306462 C 17.281333333333333 67.92353026306462, 17.382666666666665 68.05553026306463, 17.58 68.11153026306462 L 17.58 68.99953026306461 C 17.142666666666663 68.95953026306462, 16.805999999999997 68.81353026306462, 16.57 68.56153026306463 C 16.334000000000003 68.30953026306463, 16.209333333333333 67.96353026306463, 16.196 67.52353026306461 Z M 18.084 68.99953026306461 L 18.084 68.10753026306462 C 18.268 68.05419692973129, 18.366666666666667 67.93019692973128, 18.38 67.73553026306462 C 18.398666666666667 67.26886359639795, 18.410666666666668 66.82019692973128, 18.416 66.38953026306461 C 18.421333333333333 65.95886359639796, 18.421333333333333 65.5281969297313, 18.416 65.09753026306463 C 18.410666666666668 64.66686359639796, 18.398666666666667 64.21419692973129, 18.38 63.73953026306462 C 18.374666666666666 63.54486359639795, 18.276 63.41819692973128, 18.084 63.35953026306462 L 18.084 62.47153026306462 C 18.513333333333335 62.51153026306463, 18.846666666666668 62.656863596397955, 19.084 62.90753026306462 C 19.321333333333335 63.15819692973129, 19.445333333333334 63.50353026306462, 19.456 63.94353026306462 C 19.46666666666667 64.2581969297313, 19.474666666666668 64.5681969297313, 19.48 64.87353026306462 C 19.485333333333333 65.17886359639795, 19.488 65.47953026306462, 19.488 65.77553026306462 C 19.488 66.07153026306463, 19.485333333333333 66.36486359639795, 19.48 66.65553026306462 C 19.474666666666668 66.94619692973129, 19.46666666666667 67.23553026306462, 19.456 67.52353026306461 C 19.439999999999998 67.97419692973128, 19.311999999999998 68.32286359639795, 19.072 68.56953026306462 C 18.832 68.81619692973129, 18.502666666666666 68.95953026306462, 18.084 68.99953026306461 Z M 21.944 68.93553026306462 L 21.944 62.53553026306462 L 23.003999999999998 62.53553026306462 L 23.003999999999998 68.93553026306462 Z " stroke="none" fill-rule="nonzero" fill="#000000" fill-opacity="1" transform="matrix(1,0,0,1,5.05,13.314)" id="text20 l" />
  <path d="M 0 55.838424210451706 L 10 55.838424210451706 L 10 57.338424210451706 L 0 57.338424210451706 Z " stroke="none" fill-rule="evenodd" fill="#000000" fill-opacity="1" transform="matrix(1,0,0,1,5.05,13.314)" id="mark21 l" />
  <path d="M 0 41.69131815783879 L 10 41.69131815783879 L 10 43.19131815783879 L 0 43.19131815783879 Z " stroke="none" fill-rule="evenodd" fill="#000000" fill-opacity="1" transform="matrix(1,0,0,1,5.05,13.314)" id="mark22 l" />
  <path d="M 0 27.54421210522588 L 10 27.54421210522588 L 10 29.04421210522588 L 0 29.04421210522588 Z " stroke="none" fill-rule="evenodd" fill="#000000" fill-opacity="1" transform="matrix(1,0,0,1,5.05,13.314)" id="mark23 l" />
  <path d="M 0 13.397106052612912 L 10 13.397106052612912 L 10 14.897106052612912 L 0 14.897106052612912 Z " stroke="none" fill-rule="evenodd" fill="#000000" fill-opacity="1" transform="matrix(1,0,0,1,5.05,13.314)" id="mark24 l" />
  <path d="M 0 -0.75 L 25 -0.75 L 25 0.75 L 0 0.75 Z " stroke="none" fill-rule="evenodd" fill="#000000" fill-opacity="1" transform="matrix(1,0,0,1,5.05,13.314)" id="mark25 l" />
  <path d="M 12.328 -1.7999999999999998 C 12.325333333333333 -1.8986666666666663, 12.323333333333332 -1.987333333333333, 12.322 -2.066 C 12.320666666666666 -2.1446666666666663, 12.319333333333333 -2.2186666666666666, 12.318 -2.288 C 12.316666666666666 -2.357333333333333, 12.315999999999999 -2.429333333333333, 12.316 -2.5039999999999996 C 12.315999999999999 -2.5786666666666664, 12.315999999999999 -2.663333333333333, 12.316 -2.758 C 12.315999999999999 -2.852666666666667, 12.317333333333334 -2.964, 12.32 -3.0919999999999996 C 12.328 -3.3853333333333335, 12.378 -3.647333333333333, 12.47 -3.8779999999999997 C 12.562000000000001 -4.108666666666667, 12.696 -4.314666666666667, 12.872 -4.4959999999999996 C 13.048 -4.677333333333333, 13.265333333333334 -4.838666666666667, 13.524000000000001 -4.98 L 14.056000000000001 -5.268 C 14.242666666666668 -5.3693333333333335, 14.362000000000002 -5.491333333333333, 14.414 -5.634 C 14.466000000000001 -5.776666666666667, 14.495999999999999 -5.910666666666667, 14.504 -6.036 C 14.514666666666667 -6.182666666666666, 14.520666666666667 -6.339333333333333, 14.522 -6.506 C 14.523333333333333 -6.672666666666667, 14.520000000000001 -6.829333333333334, 14.512 -6.976 C 14.506666666666666 -7.08, 14.476666666666667 -7.165999999999999, 14.422 -7.233999999999999 C 14.367333333333335 -7.302, 14.288 -7.350666666666666, 14.184000000000001 -7.38 L 14.184000000000001 -8.268 C 14.672 -8.236, 15.022000000000002 -8.104666666666667, 15.234 -7.874 C 15.446000000000002 -7.643333333333333, 15.562666666666667 -7.282666666666666, 15.584 -6.792 C 15.586666666666668 -6.728, 15.588666666666668 -6.6626666666666665, 15.59 -6.595999999999999 C 15.591333333333335 -6.529333333333334, 15.592000000000002 -6.464666666666666, 15.592 -6.402 C 15.592000000000002 -6.339333333333332, 15.591333333333335 -6.277333333333333, 15.59 -6.216 C 15.588666666666668 -6.1546666666666665, 15.586666666666668 -6.094666666666667, 15.584 -6.036 C 15.573333333333332 -5.750666666666667, 15.52 -5.504, 15.424 -5.295999999999999 C 15.328 -5.088, 15.197999999999999 -4.908, 15.033999999999999 -4.756 C 14.87 -4.604, 14.68 -4.468, 14.464 -4.348 L 13.86 -4.02 C 13.745333333333335 -3.9586666666666663, 13.655333333333335 -3.8746666666666663, 13.59 -3.768 C 13.524666666666668 -3.6613333333333333, 13.478000000000002 -3.548, 13.45 -3.428 C 13.422 -3.308, 13.408 -3.1959999999999997, 13.408 -3.0919999999999996 L 13.408 -1.7999999999999998 Z M 12.336 -5.84 C 12.330666666666666 -5.957333333333333, 12.326666666666664 -6.071999999999999, 12.324 -6.184 C 12.321333333333332 -6.295999999999999, 12.319333333333333 -6.401999999999999, 12.318 -6.502 C 12.316666666666666 -6.602, 12.317333333333334 -6.698666666666666, 12.32 -6.792 C 12.338666666666668 -7.279999999999999, 12.455333333333336 -7.639333333333333, 12.67 -7.87 C 12.884666666666668 -8.100666666666667, 13.221333333333334 -8.233333333333334, 13.68 -8.268 L 13.68 -7.3759999999999994 C 13.584 -7.346666666666666, 13.513333333333332 -7.3, 13.468 -7.236 C 13.422666666666668 -7.172, 13.398666666666667 -7.094666666666667, 13.396 -7.004 C 13.390666666666666 -6.795999999999999, 13.387333333333332 -6.602666666666666, 13.386 -6.424 C 13.384666666666666 -6.245333333333333, 13.389333333333333 -6.050666666666666, 13.4 -5.84 Z M 13.911999999999999 -1.7999999999999998 L 13.911999999999999 -2.7319999999999998 L 15.508 -2.7319999999999998 L 15.508 -1.7999999999999998 Z M 16.18 -3.2159999999999997 C 16.174666666666667 -3.389333333333333, 16.173333333333332 -3.528666666666667, 16.176 -3.634 C 16.178666666666665 -3.7393333333333336, 16.181333333333335 -3.841333333333333, 16.183999999999997 -3.94 L 17.264 -3.94 C 17.256 -3.8626666666666667, 17.25 -3.7666666666666666, 17.246 -3.6519999999999997 C 17.241999999999997 -3.5373333333333328, 17.240666666666666 -3.4266666666666667, 17.241999999999997 -3.32 C 17.243333333333332 -3.213333333333334, 17.246666666666666 -3.1333333333333337, 17.252 -3.08 C 17.262666666666668 -2.96, 17.297333333333334 -2.862, 17.355999999999998 -2.7859999999999996 C 17.414666666666665 -2.71, 17.497333333333334 -2.6559999999999997, 17.604 -2.6239999999999997 L 17.604 -1.7319999999999998 C 17.110666666666663 -1.7693333333333332, 16.75333333333333 -1.904, 16.532 -2.1359999999999997 C 16.310666666666666 -2.368, 16.19333333333333 -2.7279999999999998, 16.18 -3.2159999999999997 Z M 16.279999999999998 -4.552 L 16.279999999999998 -8.2 L 17.348 -8.2 L 17.348 -4.552 Z M 17.852 -4.976 L 17.852 -5.731999999999999 C 17.929333333333332 -5.771999999999999, 18.014666666666667 -5.804, 18.107999999999997 -5.828 C 18.20133333333333 -5.852, 18.301333333333332 -5.864, 18.407999999999998 -5.864 C 18.773333333333333 -5.864, 19.047333333333334 -5.748666666666667, 19.23 -5.518 C 19.412666666666667 -5.287333333333333, 19.514666666666663 -4.973333333333333, 19.535999999999998 -4.576 C 19.546666666666667 -4.416, 19.55333333333333 -4.257333333333333, 19.555999999999997 -4.1 C 19.558666666666664 -3.9426666666666668, 19.557333333333332 -3.7893333333333334, 19.552 -3.6399999999999997 C 19.546666666666667 -3.490666666666667, 19.538666666666668 -3.3506666666666667, 19.528 -3.2199999999999998 C 19.482666666666667 -2.721333333333333, 19.353333333333335 -2.356, 19.14 -2.1239999999999997 C 18.926666666666666 -1.892, 18.581333333333333 -1.7613333333333332, 18.104 -1.7319999999999998 L 18.104 -2.6239999999999997 C 18.21333333333333 -2.653333333333333, 18.296 -2.7059999999999995, 18.352 -2.782 C 18.408 -2.8579999999999997, 18.44 -2.957333333333333, 18.448 -3.08 C 18.471999999999998 -3.3706666666666667, 18.485999999999997 -3.6319999999999997, 18.49 -3.864 C 18.494 -4.096, 18.485333333333333 -4.317333333333333, 18.464 -4.5280000000000005 C 18.447999999999997 -4.682666666666667, 18.396666666666665 -4.798, 18.31 -4.874 C 18.223333333333333 -4.949999999999999, 18.090666666666664 -4.9879999999999995, 17.912 -4.9879999999999995 C 17.901333333333334 -4.9879999999999995, 17.890666666666668 -4.986666666666666, 17.88 -4.984 C 17.86933333333333 -4.981333333333334, 17.86 -4.978666666666667, 17.852 -4.976 Z M 17.852 -7.268 L 17.852 -8.2 L 19.439999999999998 -8.2 L 19.439999999999998 -7.268 Z M 21.944 -1.7999999999999998 L 21.944 -8.2 L 23.003999999999998 -8.2 L 23.003999999999998 -1.7999999999999998 Z " stroke="none" fill-rule="nonzero" fill="#000000" fill-opacity="1" transform="matrix(1,0,0,1,5.05,13.314)" id="text25 l" />
  <path d="M -5 -13.264 L 30 -13.264 L 30 346.29854526271004 L -5 346.29854526271004 Z " stroke="#FF0000" stroke-opacity="1" stroke-width="0.1" stroke-linecap="butt" stroke-linejoin="miter" fill="none" transform="matrix(1,0,0,1,5.05,13.314)" />
</svg>