<?xml version="1.0" encoding="UTF-8"?>
<svg xmlns:xlink="http://www.w3.org/1999/xlink" viewBox="0 0 35.1 482.67492027766076" version="1.1" style="font-synthesis: none;" width="35.1mm" height="482.67492027766076mm" xmlns="http://www.w3.org/2000/svg">
  <defs />
  <style>	</style>
  <path d="M 0 0 L 35.1 0 L 35.1 482.67492027766076 L 0 482.67492027766076 Z " stroke="none" fill-rule="nonzero" fill="#FFFFFF" fill-opacity="1" transform="matrix(1,0,0,1,0,0)" />
  <path d="M 0 461.7929202776607 L 10 461.7929202776607 L 10 463.2929202776607 L 0 463.2929202776607 Z " stroke="none" fill-rule="evenodd" fill="#000000" fill-opacity="1" transform="matrix(1,0,0,1,5.05,13.314)" id="mark1 l" />
  <path d="M 0 453.95320976448005 L 10 453.95320976448005 L 10 455.45320976448005 L 0 455.45320976448005 Z " stroke="none" fill-rule="evenodd" fill="#000000" fill-opacity="1" transform="matrix(1,0,0,1,5.05,13.314)" id="mark2 l" />
  <path d="M 0 446.11349925129934 L 10 446.11349925129934 L 10 447.61349925129934 L 0 447.61349925129934 Z " stroke="none" fill-rule="evenodd" fill="#000000" fill-opacity="1" transform="matrix(1,0,0,1,5.05,13.314)" id="mark3 l" />
  <path d="M 0 438.27378873811864 L 10 438.27378873811864 L 10 439.77378873811864 L 0 439.77378873811864 Z " stroke="none" fill-rule="evenodd" fill="#000000" fill-opacity="1" transform="matrix(1,0,0,1,5.05,13.314)" id="mark4 l" />
  <path d="M 0 430.43407822493793 L 25 430.43407822493793 L 25 431.93407822493793 L 0 431.93407822493793 Z " stroke="none" fill-rule="evenodd" fill="#000000" fill-opacity="1" transform="matrix(1,0,0,1,5.05,13.314)" id="mark5 l" />
  <path d="M 16.18 427.93607822493794 C 16.174666666666667 427.7627448916046, 16.173333333333332 427.6234115582713, 16.176 427.51807822493794 C 16.178666666666665 427.4127448916046, 16.181333333333335 427.3107448916046, 16.183999999999997 427.21207822493795 L 17.264 427.21207822493795 C 17.256 427.28941155827124, 17.25 427.38541155827124, 17.246 427.50007822493797 C 17.241999999999997 427.6147448916046, 17.240666666666666 427.7254115582713, 17.241999999999997 427.83207822493796 C 17.243333333333332 427.93874489160464, 17.246666666666666 428.0187448916046, 17.252 428.07207822493797 C 17.262666666666668 428.1920782249379, 17.297333333333334 428.29007822493793, 17.355999999999998 428.36607822493795 C 17.414666666666665 428.442078224938, 17.497333333333334 428.49607822493795, 17.604 428.52807822493793 L 17.604 429.4200782249379 C 17.110666666666663 429.3827448916046, 16.75333333333333 429.24807822493796, 16.532 429.0160782249379 C 16.310666666666666 428.7840782249379, 16.19333333333333 428.42407822493794, 16.18 427.93607822493794 Z M 16.279999999999998 426.60007822493793 L 16.279999999999998 422.95207822493796 L 17.348 422.95207822493796 L 17.348 426.60007822493793 Z M 17.852 426.17607822493795 L 17.852 425.4200782249379 C 17.929333333333332 425.3800782249379, 18.014666666666667 425.3480782249379, 18.107999999999997 425.3240782249379 C 18.20133333333333 425.3000782249379, 18.301333333333332 425.28807822493786, 18.407999999999998 425.2880782249379 C 18.773333333333333 425.28807822493786, 19.047333333333334 425.4034115582713, 19.23 425.6340782249379 C 19.412666666666667 425.8647448916046, 19.514666666666663 426.1787448916046, 19.535999999999998 426.57607822493793 C 19.546666666666667 426.73607822493796, 19.55333333333333 426.89474489160466, 19.555999999999997 427.05207822493793 C 19.558666666666664 427.2094115582713, 19.557333333333332 427.3627448916046, 19.552 427.51207822493797 C 19.546666666666667 427.6614115582713, 19.538666666666668 427.8014115582713, 19.528 427.9320782249379 C 19.482666666666667 428.4307448916046, 19.353333333333335 428.7960782249379, 19.14 429.02807822493793 C 18.926666666666666 429.26007822493796, 18.581333333333333 429.39074489160464, 18.104 429.4200782249379 L 18.104 428.52807822493793 C 18.21333333333333 428.4987448916046, 18.296 428.4460782249379, 18.352 428.3700782249379 C 18.408 428.29407822493795, 18.44 428.1947448916046, 18.448 428.07207822493797 C 18.471999999999998 427.78141155827126, 18.485999999999997 427.52007822493795, 18.49 427.2880782249379 C 18.494 427.056078224938, 18.485333333333333 426.8347448916046, 18.464 426.62407822493793 C 18.447999999999997 426.4694115582713, 18.396666666666665 426.35407822493795, 18.31 426.27807822493793 C 18.223333333333333 426.20207822493796, 18.090666666666664 426.16407822493795, 17.912 426.16407822493795 C 17.901333333333334 426.16407822493795, 17.890666666666668 426.16541155827133, 17.88 426.1680782249379 C 17.86933333333333 426.1707448916046, 17.86 426.17341155827125, 17.852 426.17607822493795 Z M 17.852 423.8840782249379 L 17.852 422.95207822493796 L 19.439999999999998 422.95207822493796 L 19.439999999999998 423.8840782249379 Z M 21.944 429.35207822493794 L 21.944 422.95207822493796 L 23.003999999999998 422.95207822493796 L 23.003999999999998 429.35207822493794 Z " stroke="none" fill-rule="nonzero" fill="#000000" fill-opacity="1" transform="matrix(1,0,0,1,5.05,13.314)" id="text5 l" />
  <path d="M 0 422.5943677117573 L 10 422.5943677117573 L 10 424.0943677117573 L 0 424.0943677117573 Z " stroke="none" fill-rule="evenodd" fill="#000000" fill-opacity="1" transform="matrix(1,0,0,1,5.05,13.314)" id="mark6 l" />
  <path d="M 0 414.7546571985766 L 10 414.7546571985766 L 10 416.2546571985766 L 0 416.2546571985766 Z " stroke="none" fill-rule="evenodd" fill="#000000" fill-opacity="1" transform="matrix(1,0,0,1,5.05,13.314)" id="mark7 l" />
  <path d="M 0 406.9149466853959 L 10 406.9149466853959 L 10 408.4149466853959 L 0 408.4149466853959 Z " stroke="none" fill-rule="evenodd" fill="#000000" fill-opacity="1" transform="matrix(1,0,0,1,5.05,13.314)" id="mark8 l" />
  <path d="M 0 399.07523617221517 L 10 399.07523617221517 L 10 400.57523617221517 L 0 400.57523617221517 Z " stroke="none" fill-rule="evenodd" fill="#000000" fill-opacity="1" transform="matrix(1,0,0,1,5.05,13.314)" id="mark9 l" />
  <path d="M 0 391.23552565903447 L 25 391.23552565903447 L 25 392.73552565903447 L 0 392.73552565903447 Z " stroke="none" fill-rule="evenodd" fill="#000000" fill-opacity="1" transform="matrix(1,0,0,1,5.05,13.314)" id="mark10 l" />
  <path d="M 14.323999999999998 390.18552565903445 L 14.323999999999998 384.74152565903444 L 13.871999999999998 384.74152565903444 L 13.839999999999998 384.36152565903444 L 14.543999999999999 383.7855256590345 L 15.424 383.7855256590345 L 15.424 390.18552565903445 Z M 16.196 388.7735256590345 C 16.188000000000002 388.3441923257011, 16.182666666666666 387.9275256590345, 16.18 387.5235256590345 C 16.177333333333333 387.1195256590345, 16.177999999999997 386.7241923257011, 16.182 386.33752565903444 C 16.186 385.9508589923678, 16.190666666666665 385.5695256590344, 16.196 385.19352565903444 C 16.209333333333333 384.7535256590345, 16.334000000000003 384.4081923257011, 16.57 384.15752565903443 C 16.805999999999997 383.9068589923678, 17.142666666666663 383.7615256590344, 17.58 383.72152565903446 L 17.58 384.60952565903443 C 17.382666666666665 384.6655256590344, 17.281333333333333 384.7948589923677, 17.276 384.99752565903447 C 17.262666666666668 385.3681923257011, 17.253333333333334 385.7161923257012, 17.248 386.04152565903445 C 17.242666666666665 386.36685899236784, 17.24 386.68352565903444, 17.24 386.99152565903444 C 17.24 387.29952565903443, 17.242666666666665 387.6141923257011, 17.248 387.93552565903445 C 17.253333333333334 388.2568589923678, 17.262666666666668 388.60019232570113, 17.276 388.9655256590344 C 17.281333333333333 389.17352565903445, 17.382666666666665 389.30552565903446, 17.58 389.36152565903444 L 17.58 390.2495256590345 C 17.142666666666663 390.2095256590345, 16.805999999999997 390.06352565903444, 16.57 389.81152565903443 C 16.334000000000003 389.5595256590344, 16.209333333333333 389.2135256590344, 16.196 388.7735256590345 Z M 18.084 390.2495256590345 L 18.084 389.3575256590345 C 18.268 389.30419232570114, 18.366666666666667 389.1801923257011, 18.38 388.98552565903447 C 18.398666666666667 388.51885899236777, 18.410666666666668 388.0701923257011, 18.416 387.63952565903446 C 18.421333333333333 387.2088589923678, 18.421333333333333 386.77819232570107, 18.416 386.34752565903443 C 18.410666666666668 385.9168589923678, 18.398666666666667 385.4641923257011, 18.38 384.9895256590344 C 18.374666666666666 384.7948589923678, 18.276 384.6681923257011, 18.084 384.60952565903443 L 18.084 383.72152565903446 C 18.513333333333335 383.7615256590344, 18.846666666666668 383.9068589923678, 19.084 384.15752565903443 C 19.321333333333335 384.4081923257011, 19.445333333333334 384.7535256590345, 19.456 385.19352565903444 C 19.46666666666667 385.5081923257011, 19.474666666666668 385.81819232570115, 19.48 386.12352565903444 C 19.485333333333333 386.42885899236785, 19.488 386.7295256590345, 19.488 387.02552565903443 C 19.488 387.3215256590345, 19.485333333333333 387.6148589923678, 19.48 387.9055256590345 C 19.474666666666668 388.1961923257011, 19.46666666666667 388.48552565903447, 19.456 388.7735256590345 C 19.439999999999998 389.2241923257011, 19.311999999999998 389.5728589923678, 19.072 389.81952565903447 C 18.832 390.06619232570114, 18.502666666666666 390.2095256590345, 18.084 390.2495256590345 Z M 21.944 390.18552565903445 L 21.944 383.7855256590345 L 23.003999999999998 383.7855256590345 L 23.003999999999998 390.18552565903445 Z " stroke="none" fill-rule="nonzero" fill="#000000" fill-opacity="1" transform="matrix(1,0,0,1,5.05,13.314)" id="text10 l" />
  <path d="M 0 383.3958151458538 L 10 383.3958151458538 L 10 384.8958151458538 L 0 384.8958151458538 Z " stroke="none" fill-rule="evenodd" fill="#000000" fill-opacity="1" transform="matrix(1,0,0,1,5.05,13.314)" id="mark11 l" />
  <path d="M 0 375.5561046326731 L 10 375.5561046326731 L 10 377.0561046326731 L 0 377.0561046326731 Z " stroke="none" fill-rule="evenodd" fill="#000000" fill-opacity="1" transform="matrix(1,0,0,1,5.05,13.314)" id="mark12 l" />
  <path d="M 0 367.7163941194924 L 10 367.7163941194924 L 10 369.2163941194924 L 0 369.2163941194924 Z " stroke="none" fill-rule="evenodd" fill="#000000" fill-opacity="1" transform="matrix(1,0,0,1,5.05,13.314)" id="mark13 l" />
  <path d="M 0 359.87668360631176 L 10 359.87668360631176 L 10 361.37668360631176 L 0 361.37668360631176 Z " stroke="none" fill-rule="evenodd" fill="#000000" fill-opacity="1" transform="matrix(1,0,0,1,5.05,13.314)" id="mark14 l" />
  <path d="M 0 352.03697309313105 L 25 352.03697309313105 L 25 353.53697309313105 L 0 353.53697309313105 Z " stroke="none" fill-rule="evenodd" fill="#000000" fill-opacity="1" transform="matrix(1,0,0,1,5.05,13.314)" id="mark15 l" />
  <path d="M 14.331999999999999 350.95497309313106 L 14.331999999999999 345.51097309313104 L 13.879999999999999 345.51097309313104 L 13.847999999999999 345.13097309313105 L 14.552 344.5549730931311 L 15.432 344.5549730931311 L 15.432 350.95497309313106 Z M 16.18 349.53897309313106 C 16.174666666666667 349.3656397597977, 16.173333333333332 349.2263064264644, 16.176 349.12097309313106 C 16.178666666666665 349.0156397597977, 16.181333333333335 348.9136397597977, 16.183999999999997 348.8149730931311 L 17.264 348.8149730931311 C 17.256 348.8923064264644, 17.25 348.9883064264644, 17.246 349.1029730931311 C 17.241999999999997 349.21763975979775, 17.240666666666666 349.3283064264644, 17.241999999999997 349.4349730931311 C 17.243333333333332 349.5416397597977, 17.246666666666666 349.62163975979774, 17.252 349.6749730931311 C 17.262666666666668 349.79497309313103, 17.297333333333334 349.89297309313105, 17.355999999999998 349.96897309313107 C 17.414666666666665 350.04497309313103, 17.497333333333334 350.098973093131, 17.604 350.13097309313105 L 17.604 351.02297309313104 C 17.110666666666663 350.9856397597977, 16.75333333333333 350.8509730931311, 16.532 350.61897309313105 C 16.310666666666666 350.386973093131, 16.19333333333333 350.02697309313106, 16.18 349.53897309313106 Z M 16.279999999999998 348.20297309313105 L 16.279999999999998 344.5549730931311 L 17.348 344.5549730931311 L 17.348 348.20297309313105 Z M 17.852 347.77897309313107 L 17.852 347.02297309313104 C 17.929333333333332 346.982973093131, 18.014666666666667 346.95097309313104, 18.107999999999997 346.92697309313104 C 18.20133333333333 346.90297309313104, 18.301333333333332 346.89097309313104, 18.407999999999998 346.89097309313104 C 18.773333333333333 346.89097309313104, 19.047333333333334 347.0063064264644, 19.23 347.23697309313104 C 19.412666666666667 347.4676397597977, 19.514666666666663 347.7816397597977, 19.535999999999998 348.17897309313105 C 19.546666666666667 348.338973093131, 19.55333333333333 348.4976397597977, 19.555999999999997 348.65497309313105 C 19.558666666666664 348.8123064264644, 19.557333333333332 348.9656397597977, 19.552 349.1149730931311 C 19.546666666666667 349.2643064264644, 19.538666666666668 349.40430642646436, 19.528 349.53497309313104 C 19.482666666666667 350.03363975979767, 19.353333333333335 350.398973093131, 19.14 350.63097309313105 C 18.926666666666666 350.8629730931311, 18.581333333333333 350.9936397597977, 18.104 351.02297309313104 L 18.104 350.13097309313105 C 18.21333333333333 350.10163975979776, 18.296 350.04897309313105, 18.352 349.97297309313103 C 18.408 349.89697309313107, 18.44 349.79763975979773, 18.448 349.6749730931311 C 18.471999999999998 349.3843064264644, 18.485999999999997 349.12297309313107, 18.49 348.89097309313104 C 18.494 348.65897309313107, 18.485333333333333 348.4376397597977, 18.464 348.22697309313105 C 18.447999999999997 348.0723064264644, 18.396666666666665 347.95697309313107, 18.31 347.88097309313105 C 18.223333333333333 347.804973093131, 18.090666666666664 347.76697309313107, 17.912 347.76697309313107 C 17.901333333333334 347.76697309313107, 17.890666666666668 347.7683064264644, 17.88 347.77097309313103 C 17.86933333333333 347.77363975979773, 17.86 347.77630642646443, 17.852 347.77897309313107 Z M 17.852 345.48697309313104 L 17.852 344.5549730931311 L 19.439999999999998 344.5549730931311 L 19.439999999999998 345.48697309313104 Z M 21.944 350.95497309313106 L 21.944 344.5549730931311 L 23.003999999999998 344.5549730931311 L 23.003999999999998 350.95497309313106 Z " stroke="none" fill-rule="nonzero" fill="#000000" fill-opacity="1" transform="matrix(1,0,0,1,5.05,13.314)" id="text15 l" />
  <path d="M 0 344.19726257995035 L 10 344.19726257995035 L 10 345.69726257995035 L 0 345.69726257995035 Z " stroke="none" fill-rule="evenodd" fill="#000000" fill-opacity="1" transform="matrix(1,0,0,1,5.05,13.314)" id="mark16 l" />
  <path d="M 0 336.3575520667697 L 10 336.3575520667697 L 10 337.8575520667697 L 0 337.8575520667697 Z " stroke="none" fill-rule="evenodd" fill="#000000" fill-opacity="1" transform="matrix(1,0,0,1,5.05,13.314)" id="mark17 l" />
  <path d="M 0 328.51784155358894 L 10 328.51784155358894 L 10 330.01784155358894 L 0 330.01784155358894 Z " stroke="none" fill-rule="evenodd" fill="#000000" fill-opacity="1" transform="matrix(1,0,0,1,5.05,13.314)" id="mark18 l" />
  <path d="M 0 320.6781310404083 L 10 320.6781310404083 L 10 322.1781310404083 L 0 322.1781310404083 Z " stroke="none" fill-rule="evenodd" fill="#000000" fill-opacity="1" transform="matrix(1,0,0,1,5.05,13.314)" id="mark19 l" />
  <path d="M 0 312.8384205272276 L 25 312.8384205272276 L 25 314.3384205272276 L 0 314.3384205272276 Z " stroke="none" fill-rule="evenodd" fill="#000000" fill-opacity="1" transform="matrix(1,0,0,1,5.05,13.314)" id="mark20 l" />
  <path d="M 12.319999999999999 311.7884205272276 C 12.317333333333334 311.68975386056087, 12.315333333333331 311.6010871938942, 12.313999999999998 311.52242052722755 C 12.312666666666665 311.4437538605609, 12.311333333333334 311.3697538605609, 12.309999999999999 311.3004205272276 C 12.308666666666667 311.23108719389427, 12.308 311.15908719389427, 12.308 311.08442052722756 C 12.308 311.0097538605609, 12.308 310.9250871938942, 12.308 310.83042052722755 C 12.308 310.73575386056086, 12.309333333333335 310.6244205272276, 12.312 310.4964205272276 C 12.32 310.20308719389425, 12.37 309.94108719389425, 12.462 309.7104205272276 C 12.554 309.47975386056095, 12.687999999999999 309.27375386056093, 12.863999999999999 309.09242052722755 C 13.04 308.9110871938942, 13.257333333333333 308.7497538605609, 13.515999999999998 308.60842052722757 L 14.047999999999998 308.32042052722755 C 14.234666666666666 308.2190871938942, 14.354 308.09708719389425, 14.405999999999999 307.95442052722757 C 14.457999999999998 307.8117538605609, 14.488 307.6777538605609, 14.495999999999999 307.5524205272276 C 14.506666666666664 307.4057538605609, 14.512666666666664 307.24908719389424, 14.514 307.08242052722755 C 14.51533333333333 306.91575386056087, 14.511999999999997 306.75908719389423, 14.504 306.6124205272276 C 14.498666666666665 306.5084205272276, 14.468666666666666 306.4224205272276, 14.413999999999998 306.35442052722755 C 14.359333333333332 306.28642052722756, 14.279999999999998 306.23775386056093, 14.175999999999998 306.2084205272276 L 14.175999999999998 305.32042052722755 C 14.663999999999998 305.35242052722754, 15.014 305.4837538605609, 15.225999999999999 305.71442052722756 C 15.437999999999999 305.9450871938942, 15.554666666666666 306.3057538605609, 15.575999999999999 306.79642052722755 C 15.578666666666663 306.8604205272276, 15.580666666666666 306.9257538605609, 15.581999999999999 306.9924205272276 C 15.583333333333332 307.05908719389424, 15.584 307.1237538605609, 15.584 307.1864205272276 C 15.584 307.24908719389424, 15.583333333333332 307.31108719389425, 15.581999999999999 307.3724205272276 C 15.580666666666666 307.4337538605609, 15.578666666666663 307.4937538605609, 15.575999999999999 307.5524205272276 C 15.565333333333331 307.8377538605609, 15.512 308.08442052722756, 15.415999999999999 308.2924205272276 C 15.32 308.50042052722756, 15.19 308.6804205272275, 15.026 308.83242052722755 C 14.862 308.9844205272276, 14.672 309.12042052722757, 14.456 309.24042052722757 L 13.851999999999999 309.56842052722754 C 13.737333333333332 309.6297538605609, 13.647333333333332 309.7137538605609, 13.581999999999999 309.82042052722755 C 13.516666666666666 309.92708719389424, 13.469999999999999 310.0404205272276, 13.441999999999998 310.1604205272276 C 13.413999999999998 310.2804205272276, 13.399999999999999 310.3924205272276, 13.399999999999999 310.4964205272276 L 13.399999999999999 311.7884205272276 Z M 12.328 307.74842052722755 C 12.322666666666667 307.63108719389425, 12.318666666666665 307.5164205272275, 12.315999999999999 307.40442052722756 C 12.313333333333333 307.2924205272276, 12.311333333333334 307.1864205272276, 12.309999999999999 307.0864205272276 C 12.308666666666667 306.98642052722755, 12.309333333333335 306.8897538605609, 12.312 306.79642052722755 C 12.330666666666666 306.30842052722755, 12.447333333333333 305.94908719389423, 12.661999999999999 305.7184205272276 C 12.876666666666665 305.48775386056093, 13.213333333333331 305.35508719389424, 13.671999999999999 305.32042052722755 L 13.671999999999999 306.21242052722755 C 13.576 306.24175386056095, 13.505333333333333 306.2884205272276, 13.459999999999999 306.3524205272276 C 13.414666666666665 306.4164205272276, 13.390666666666664 306.4937538605609, 13.387999999999998 306.58442052722756 C 13.382666666666665 306.7924205272276, 13.379333333333333 306.9857538605609, 13.378 307.16442052722755 C 13.376666666666667 307.34308719389423, 13.381333333333334 307.5377538605609, 13.392 307.74842052722755 Z M 13.904 311.7884205272276 L 13.904 310.85642052722756 L 15.5 310.85642052722756 L 15.5 311.7884205272276 Z M 16.196 310.3764205272276 C 16.188000000000002 309.9470871938943, 16.182666666666666 309.5304205272276, 16.18 309.1264205272276 C 16.177333333333333 308.7224205272276, 16.177999999999997 308.3270871938943, 16.182 307.94042052722756 C 16.186 307.5537538605609, 16.190666666666665 307.1724205272276, 16.196 306.79642052722755 C 16.209333333333333 306.35642052722756, 16.334000000000003 306.01108719389424, 16.57 305.76042052722755 C 16.805999999999997 305.50975386056086, 17.142666666666663 305.3644205272276, 17.58 305.3244205272276 L 17.58 306.21242052722755 C 17.382666666666665 306.2684205272276, 17.281333333333333 306.3977538605609, 17.276 306.6004205272276 C 17.262666666666668 306.9710871938942, 17.253333333333334 307.31908719389423, 17.248 307.64442052722757 C 17.242666666666665 307.9697538605609, 17.24 308.28642052722756, 17.24 308.59442052722756 C 17.24 308.90242052722755, 17.242666666666665 309.2170871938942, 17.248 309.5384205272276 C 17.253333333333334 309.85975386056094, 17.262666666666668 310.20308719389425, 17.276 310.56842052722754 C 17.281333333333333 310.7764205272275, 17.382666666666665 310.9084205272276, 17.58 310.96442052722756 L 17.58 311.8524205272276 C 17.142666666666663 311.8124205272276, 16.805999999999997 311.66642052722756, 16.57 311.41442052722755 C 16.334000000000003 311.16242052722754, 16.209333333333333 310.8164205272276, 16.196 310.3764205272276 Z M 18.084 311.8524205272276 L 18.084 310.9604205272276 C 18.268 310.9070871938942, 18.366666666666667 310.78308719389423, 18.38 310.5884205272276 C 18.398666666666667 310.12175386056094, 18.410666666666668 309.6730871938943, 18.416 309.2424205272276 C 18.421333333333333 308.8117538605609, 18.421333333333333 308.38108719389425, 18.416 307.95042052722755 C 18.410666666666668 307.5197538605609, 18.398666666666667 307.0670871938943, 18.38 306.59242052722755 C 18.374666666666666 306.3977538605609, 18.276 306.27108719389423, 18.084 306.21242052722755 L 18.084 305.3244205272276 C 18.513333333333335 305.3644205272276, 18.846666666666668 305.50975386056086, 19.084 305.76042052722755 C 19.321333333333335 306.01108719389424, 19.445333333333334 306.35642052722756, 19.456 306.79642052722755 C 19.46666666666667 307.11108719389426, 19.474666666666668 307.42108719389427, 19.48 307.72642052722756 C 19.485333333333333 308.0317538605609, 19.488 308.33242052722755, 19.488 308.62842052722755 C 19.488 308.92442052722754, 19.485333333333333 309.2177538605609, 19.48 309.5084205272276 C 19.474666666666668 309.79908719389425, 19.46666666666667 310.0884205272276, 19.456 310.3764205272276 C 19.439999999999998 310.8270871938943, 19.311999999999998 311.1757538605609, 19.072 311.4224205272276 C 18.832 311.66908719389426, 18.502666666666666 311.8124205272276, 18.084 311.8524205272276 Z M 21.944 311.7884205272276 L 21.944 305.3884205272276 L 23.003999999999998 305.3884205272276 L 23.003999999999998 311.7884205272276 Z " stroke="none" fill-rule="nonzero" fill="#000000" fill-opacity="1" transform="matrix(1,0,0,1,5.05,13.314)" id="text20 l" />
  <path d="M 0 304.9987100140469 L 10 304.9987100140469 L 10 306.4987100140469 L 0 306.4987100140469 Z " stroke="none" fill-rule="evenodd" fill="#000000" fill-opacity="1" transform="matrix(1,0,0,1,5.05,13.314)" id="mark21 l" />
  <path d="M 0 297.15899950086623 L 10 297.15899950086623 L 10 298.65899950086623 L 0 298.65899950086623 Z " stroke="none" fill-rule="evenodd" fill="#000000" fill-opacity="1" transform="matrix(1,0,0,1,5.05,13.314)" id="mark22 l" />
  <path d="M 0 289.3192889876855 L 10 289.3192889876855 L 10 290.8192889876855 L 0 290.8192889876855 Z " stroke="none" fill-rule="evenodd" fill="#000000" fill-opacity="1" transform="matrix(1,0,0,1,5.05,13.314)" id="mark23 l" />
  <path d="M 0 281.4795784745048 L 10 281.4795784745048 L 10 282.9795784745048 L 0 282.9795784745048 Z " stroke="none" fill-rule="evenodd" fill="#000000" fill-opacity="1" transform="matrix(1,0,0,1,5.05,13.314)" id="mark24 l" />
  <path d="M 0 273.63986796132417 L 25 273.63986796132417 L 25 275.13986796132417 L 0 275.13986796132417 Z " stroke="none" fill-rule="evenodd" fill="#000000" fill-opacity="1" transform="matrix(1,0,0,1,5.05,13.314)" id="mark25 l" />
  <path d="M 12.328 272.58986796132416 C 12.325333333333333 272.49120129465746, 12.323333333333332 272.4025346279908, 12.322 272.32386796132414 C 12.320666666666666 272.2452012946575, 12.319333333333333 272.17120129465746, 12.318 272.10186796132416 C 12.316666666666666 272.03253462799086, 12.315999999999999 271.96053462799085, 12.316 271.88586796132415 C 12.315999999999999 271.8112012946575, 12.315999999999999 271.7265346279908, 12.316 271.63186796132413 C 12.315999999999999 271.53720129465745, 12.317333333333334 271.4258679613241, 12.32 271.2978679613242 C 12.328 271.0045346279908, 12.378 270.74253462799084, 12.47 270.5118679613242 C 12.562000000000001 270.28120129465754, 12.696 270.0752012946575, 12.872 269.89386796132413 C 13.048 269.7125346279908, 13.265333333333334 269.55120129465746, 13.524000000000001 269.40986796132415 L 14.056000000000001 269.12186796132414 C 14.242666666666668 269.0205346279908, 14.362000000000002 268.89853462799084, 14.414 268.75586796132416 C 14.466000000000001 268.6132012946575, 14.495999999999999 268.4792012946575, 14.504 268.35386796132417 C 14.514666666666667 268.20720129465747, 14.520666666666667 268.0505346279908, 14.522 267.88386796132414 C 14.523333333333333 267.71720129465746, 14.520000000000001 267.5605346279908, 14.512 267.4138679613242 C 14.506666666666666 267.30986796132413, 14.476666666666667 267.2238679613241, 14.422 267.15586796132413 C 14.367333333333335 267.08786796132415, 14.288 267.0392012946575, 14.184000000000001 267.0098679613242 L 14.184000000000001 266.12186796132414 C 14.672 266.1538679613241, 15.022000000000002 266.2852012946575, 15.234 266.51586796132415 C 15.446000000000002 266.7465346279908, 15.562666666666667 267.10720129465744, 15.584 267.59786796132414 C 15.586666666666668 267.6618679613241, 15.588666666666668 267.72720129465745, 15.59 267.79386796132417 C 15.591333333333335 267.8605346279908, 15.592000000000002 267.9252012946575, 15.592 267.9878679613242 C 15.592000000000002 268.0505346279908, 15.591333333333335 268.11253462799084, 15.59 268.17386796132416 C 15.588666666666668 268.2352012946575, 15.586666666666668 268.2952012946575, 15.584 268.35386796132417 C 15.573333333333332 268.6392012946575, 15.52 268.88586796132415, 15.424 269.0938679613242 C 15.328 269.30186796132415, 15.197999999999999 269.48186796132416, 15.033999999999999 269.63386796132414 C 14.87 269.78586796132413, 14.68 269.92186796132415, 14.464 270.04186796132416 L 13.86 270.36986796132413 C 13.745333333333335 270.4312012946575, 13.655333333333335 270.5152012946575, 13.59 270.62186796132414 C 13.524666666666668 270.7285346279908, 13.478000000000002 270.84186796132417, 13.45 270.9618679613242 C 13.422 271.0818679613242, 13.408 271.19386796132414, 13.408 271.2978679613242 L 13.408 272.58986796132416 Z M 12.336 268.54986796132414 C 12.330666666666666 268.43253462799083, 12.326666666666664 268.31786796132417, 12.324 268.20586796132415 C 12.321333333333332 268.0938679613241, 12.319333333333333 267.9878679613241, 12.318 267.88786796132416 C 12.316666666666666 267.7878679613242, 12.317333333333334 267.6912012946575, 12.32 267.59786796132414 C 12.338666666666668 267.1098679613242, 12.455333333333336 266.7505346279909, 12.67 266.51986796132417 C 12.884666666666668 266.28920129465746, 13.221333333333334 266.1565346279908, 13.68 266.12186796132414 L 13.68 267.01386796132414 C 13.584 267.0432012946575, 13.513333333333332 267.08986796132416, 13.468 267.1538679613242 C 13.422666666666668 267.2178679613242, 13.398666666666667 267.2952012946575, 13.396 267.38586796132415 C 13.390666666666666 267.5938679613242, 13.387333333333332 267.7872012946575, 13.386 267.96586796132414 C 13.384666666666666 268.1445346279908, 13.389333333333333 268.33920129465747, 13.4 268.54986796132414 Z M 13.911999999999999 272.58986796132416 L 13.911999999999999 271.65786796132414 L 15.508 271.65786796132414 L 15.508 272.58986796132416 Z M 16.18 271.17386796132416 C 16.174666666666667 271.0005346279909, 16.173333333333332 270.8612012946575, 16.176 270.75586796132416 C 16.178666666666665 270.6505346279908, 16.181333333333335 270.5485346279908, 16.183999999999997 270.4498679613242 L 17.264 270.4498679613242 C 17.256 270.5272012946575, 17.25 270.6232012946575, 17.246 270.7378679613242 C 17.241999999999997 270.85253462799085, 17.240666666666666 270.9632012946575, 17.241999999999997 271.0698679613242 C 17.243333333333332 271.1765346279908, 17.246666666666666 271.25653462799085, 17.252 271.3098679613242 C 17.262666666666668 271.42986796132413, 17.297333333333334 271.52786796132415, 17.355999999999998 271.60386796132417 C 17.414666666666665 271.67986796132413, 17.497333333333334 271.73386796132417, 17.604 271.76586796132415 L 17.604 272.65786796132414 C 17.110666666666663 272.6205346279908, 16.75333333333333 272.4858679613242, 16.532 272.25386796132415 C 16.310666666666666 272.0218679613241, 16.19333333333333 271.6618679613241, 16.18 271.17386796132416 Z M 16.279999999999998 269.83786796132415 L 16.279999999999998 266.1898679613242 L 17.348 266.1898679613242 L 17.348 269.83786796132415 Z M 17.852 269.4138679613242 L 17.852 268.65786796132414 C 17.929333333333332 268.6178679613241, 18.014666666666667 268.58586796132414, 18.107999999999997 268.56186796132414 C 18.20133333333333 268.53786796132414, 18.301333333333332 268.52586796132414, 18.407999999999998 268.52586796132414 C 18.773333333333333 268.52586796132414, 19.047333333333334 268.64120129465744, 19.23 268.87186796132414 C 19.412666666666667 269.10253462799085, 19.514666666666663 269.4165346279908, 19.535999999999998 269.81386796132415 C 19.546666666666667 269.9738679613242, 19.55333333333333 270.1325346279908, 19.555999999999997 270.28986796132415 C 19.558666666666664 270.4472012946575, 19.557333333333332 270.60053462799084, 19.552 270.7498679613242 C 19.546666666666667 270.89920129465753, 19.538666666666668 271.0392012946575, 19.528 271.16986796132414 C 19.482666666666667 271.6685346279908, 19.353333333333335 272.0338679613241, 19.14 272.26586796132415 C 18.926666666666666 272.4978679613242, 18.581333333333333 272.6285346279908, 18.104 272.65786796132414 L 18.104 271.76586796132415 C 18.21333333333333 271.7365346279908, 18.296 271.68386796132415, 18.352 271.60786796132413 C 18.408 271.53186796132417, 18.44 271.43253462799083, 18.448 271.3098679613242 C 18.471999999999998 271.0192012946575, 18.485999999999997 270.7578679613241, 18.49 270.52586796132414 C 18.494 270.29386796132417, 18.485333333333333 270.0725346279908, 18.464 269.86186796132415 C 18.447999999999997 269.7072012946575, 18.396666666666665 269.59186796132417, 18.31 269.51586796132415 C 18.223333333333333 269.4398679613242, 18.090666666666664 269.40186796132417, 17.912 269.40186796132417 C 17.901333333333334 269.40186796132417, 17.890666666666668 269.4032012946575, 17.88 269.40586796132413 C 17.86933333333333 269.4085346279908, 17.86 269.4112012946575, 17.852 269.4138679613242 Z M 17.852 267.12186796132414 L 17.852 266.1898679613242 L 19.439999999999998 266.1898679613242 L 19.439999999999998 267.12186796132414 Z M 21.944 272.58986796132416 L 21.944 266.1898679613242 L 23.003999999999998 266.1898679613242 L 23.003999999999998 272.58986796132416 Z " stroke="none" fill-rule="nonzero" fill="#000000" fill-opacity="1" transform="matrix(1,0,0,1,5.05,13.314)" id="text25 l" />
  <path d="M 0 265.80015744814347 L 10 265.80015744814347 L 10 267.30015744814347 L 0 267.30015744814347 Z " stroke="none" fill-rule="evenodd" fill="#000000" fill-opacity="1" transform="matrix(1,0,0,1,5.05,13.314)" id="mark26 l" />
  <path d="M 0 257.96044693496276 L 10 257.96044693496276 L 10 259.46044693496276 L 0 259.46044693496276 Z " stroke="none" fill-rule="evenodd" fill="#000000" fill-opacity="1" transform="matrix(1,0,0,1,5.05,13.314)" id="mark27 l" />
  <path d="M 0 250.12073642178208 L 10 250.12073642178208 L 10 251.62073642178208 L 0 251.62073642178208 Z " stroke="none" fill-rule="evenodd" fill="#000000" fill-opacity="1" transform="matrix(1,0,0,1,5.05,13.314)" id="mark28 l" />
  <path d="M 0 242.28102590860138 L 10 242.28102590860138 L 10 243.78102590860138 L 0 243.78102590860138 Z " stroke="none" fill-rule="evenodd" fill="#000000" fill-opacity="1" transform="matrix(1,0,0,1,5.05,13.314)" id="mark29 l" />
  <path d="M 0 234.4413153954207 L 25 234.4413153954207 L 25 235.9413153954207 L 0 235.9413153954207 Z " stroke="none" fill-rule="evenodd" fill="#000000" fill-opacity="1" transform="matrix(1,0,0,1,5.05,13.314)" id="mark30 l" />
  <path d="M 12.223999999999998 231.97531539542072 C 12.221333333333334 231.87398206208738, 12.219333333333333 231.78998206208738, 12.218 231.7233153954207 C 12.216666666666667 231.65664872875405, 12.216666666666667 231.58864872875404, 12.218 231.51931539542073 C 12.219333333333333 231.44998206208737, 12.221333333333334 231.36064872875406, 12.223999999999998 231.25131539542073 L 13.303999999999998 231.25131539542073 L 13.303999999999998 232.1153153954207 C 13.303999999999998 232.35264872875405, 13.417333333333332 232.5033153954207, 13.643999999999998 232.5673153954207 L 13.643999999999998 233.45931539542073 C 13.155999999999999 233.4219820620874, 12.800666666666665 233.2873153954207, 12.578 233.0553153954207 C 12.355333333333334 232.8233153954207, 12.237333333333332 232.46331539542072, 12.223999999999998 231.97531539542072 Z M 12.292 227.92331539542073 L 12.292 226.9913153954207 L 15.536 226.9913153954207 L 15.536 227.92331539542073 Z M 14.143999999999998 232.57131539542073 C 14.367999999999999 232.5153153954207, 14.483999999999998 232.36464872875405, 14.491999999999999 232.11931539542073 C 14.497333333333334 231.91664872875407, 14.500666666666666 231.73398206208742, 14.501999999999999 231.57131539542073 C 14.503333333333332 231.4086487287541, 14.498666666666665 231.25131539542073, 14.488 231.09931539542072 C 14.48 230.9419820620874, 14.431999999999999 230.80864872875406, 14.344 230.6993153954207 C 14.256 230.58998206208736, 14.089333333333332 230.5379820620874, 13.844 230.5433153954207 L 13.096 230.55131539542072 L 13.068 229.65931539542072 L 14.027999999999999 228.2753153954207 L 15.216 228.2753153954207 L 14.248 229.6273153954207 L 14.28 229.6273153954207 C 14.712 229.6273153954207, 15.028666666666666 229.74998206208738, 15.229999999999999 229.99531539542073 C 15.431333333333333 230.24064872875405, 15.544 230.61798206208738, 15.568 231.1273153954207 C 15.57333333333333 231.1993153954207, 15.576666666666664 231.27131539542071, 15.578 231.34331539542072 C 15.57933333333333 231.41531539542072, 15.579999999999998 231.48598206208737, 15.579999999999998 231.5553153954207 C 15.579999999999998 231.62464872875404, 15.57933333333333 231.6939820620874, 15.578 231.7633153954207 C 15.576666666666664 231.83264872875407, 15.57333333333333 231.90331539542072, 15.568 231.97531539542072 C 15.549333333333333 232.47131539542073, 15.428666666666665 232.8359820620874, 15.206 233.06931539542072 C 14.983333333333334 233.30264872875404, 14.630666666666666 233.43264872875403, 14.148 233.45931539542073 Z M 16.196 231.9793153954207 C 16.188000000000002 231.5499820620874, 16.182666666666666 231.1333153954207, 16.18 230.7293153954207 C 16.177333333333333 230.32531539542072, 16.177999999999997 229.9299820620874, 16.182 229.5433153954207 C 16.186 229.15664872875402, 16.190666666666665 228.7753153954207, 16.196 228.39931539542073 C 16.209333333333333 227.95931539542073, 16.334000000000003 227.61398206208742, 16.57 227.36331539542073 C 16.805999999999997 227.11264872875404, 17.142666666666663 226.9673153954207, 17.58 226.92731539542072 L 17.58 227.81531539542073 C 17.382666666666665 227.8713153954207, 17.281333333333333 228.00064872875407, 17.276 228.20331539542073 C 17.262666666666668 228.5739820620874, 17.253333333333334 228.92198206208738, 17.248 229.2473153954207 C 17.242666666666665 229.57264872875405, 17.24 229.88931539542074, 17.24 230.19731539542073 C 17.24 230.50531539542072, 17.242666666666665 230.81998206208738, 17.248 231.14131539542072 C 17.253333333333334 231.46264872875406, 17.262666666666668 231.80598206208737, 17.276 232.17131539542072 C 17.281333333333333 232.37931539542075, 17.382666666666665 232.51131539542075, 17.58 232.5673153954207 L 17.58 233.4553153954207 C 17.142666666666663 233.4153153954207, 16.805999999999997 233.26931539542073, 16.57 233.01731539542072 C 16.334000000000003 232.7653153954207, 16.209333333333333 232.4193153954207, 16.196 231.9793153954207 Z M 18.084 233.4553153954207 L 18.084 232.56331539542072 C 18.268 232.5099820620874, 18.366666666666667 232.3859820620874, 18.38 232.19131539542073 C 18.398666666666667 231.72464872875406, 18.410666666666668 231.2759820620874, 18.416 230.84531539542073 C 18.421333333333333 230.41464872875406, 18.421333333333333 229.9839820620874, 18.416 229.55331539542073 C 18.410666666666668 229.12264872875406, 18.398666666666667 228.6699820620874, 18.38 228.19531539542072 C 18.374666666666666 228.00064872875407, 18.276 227.8739820620874, 18.084 227.81531539542073 L 18.084 226.92731539542072 C 18.513333333333335 226.9673153954207, 18.846666666666668 227.11264872875404, 19.084 227.36331539542073 C 19.321333333333335 227.61398206208742, 19.445333333333334 227.95931539542073, 19.456 228.39931539542073 C 19.46666666666667 228.71398206208738, 19.474666666666668 229.02398206208738, 19.48 229.3293153954207 C 19.485333333333333 229.63464872875403, 19.488 229.9353153954207, 19.488 230.23131539542072 C 19.488 230.52731539542071, 19.485333333333333 230.82064872875407, 19.48 231.11131539542072 C 19.474666666666668 231.40198206208737, 19.46666666666667 231.6913153954207, 19.456 231.9793153954207 C 19.439999999999998 232.4299820620874, 19.311999999999998 232.77864872875406, 19.072 233.0253153954207 C 18.832 233.27198206208737, 18.502666666666666 233.4153153954207, 18.084 233.4553153954207 Z M 21.944 233.39131539542072 L 21.944 226.9913153954207 L 23.003999999999998 226.9913153954207 L 23.003999999999998 233.39131539542072 Z " stroke="none" fill-rule="nonzero" fill="#000000" fill-opacity="1" transform="matrix(1,0,0,1,5.05,13.314)" id="text30 l" />
  <path d="M 0 226.60160488224 L 10 226.60160488224 L 10 228.10160488224 L 0 228.10160488224 Z " stroke="none" fill-rule="evenodd" fill="#000000" fill-opacity="1" transform="matrix(1,0,0,1,5.05,13.314)" id="mark31 l" />
  <path d="M 0 218.76189436905932 L 10 218.76189436905932 L 10 220.26189436905932 L 0 220.26189436905932 Z " stroke="none" fill-rule="evenodd" fill="#000000" fill-opacity="1" transform="matrix(1,0,0,1,5.05,13.314)" id="mark32 l" />
  <path d="M 0 210.92218385587864 L 10 210.92218385587864 L 10 212.42218385587864 L 0 212.42218385587864 Z " stroke="none" fill-rule="evenodd" fill="#000000" fill-opacity="1" transform="matrix(1,0,0,1,5.05,13.314)" id="mark33 l" />
  <path d="M 0 203.08247334269794 L 10 203.08247334269794 L 10 204.58247334269794 L 0 204.58247334269794 Z " stroke="none" fill-rule="evenodd" fill="#000000" fill-opacity="1" transform="matrix(1,0,0,1,5.05,13.314)" id="mark34 l" />
  <path d="M 0 195.24276282951723 L 25 195.24276282951723 L 25 196.74276282951723 L 0 196.74276282951723 Z " stroke="none" fill-rule="evenodd" fill="#000000" fill-opacity="1" transform="matrix(1,0,0,1,5.05,13.314)" id="mark35 l" />
  <path d="M 12.232 192.74476282951724 C 12.229333333333333 192.6434294961839, 12.227333333333334 192.5594294961839, 12.226 192.49276282951723 C 12.224666666666668 192.42609616285057, 12.224666666666668 192.3580961628506, 12.226 192.28876282951722 C 12.227333333333334 192.21942949618392, 12.229333333333333 192.13009616285058, 12.232 192.02076282951725 L 13.312 192.02076282951725 L 13.312 192.88476282951723 C 13.312 193.1220961628506, 13.425333333333333 193.27276282951726, 13.652 193.33676282951723 L 13.652 194.22876282951725 C 13.164 194.1914294961839, 12.808666666666667 194.05676282951725, 12.586 193.82476282951723 C 12.363333333333333 193.59276282951726, 12.245333333333335 193.23276282951724, 12.232 192.74476282951724 Z M 12.3 188.69276282951725 L 12.3 187.76076282951723 L 15.544 187.76076282951723 L 15.544 188.69276282951725 Z M 14.152000000000001 193.34076282951725 C 14.376000000000001 193.28476282951723, 14.492 193.13409616285057, 14.5 192.88876282951725 C 14.505333333333333 192.6860961628506, 14.508666666666667 192.5034294961839, 14.51 192.34076282951725 C 14.511333333333333 192.17809616285058, 14.506666666666668 192.02076282951725, 14.496 191.86876282951724 C 14.488 191.7114294961839, 14.440000000000001 191.57809616285058, 14.352 191.46876282951723 C 14.264 191.3594294961839, 14.097333333333335 191.30742949618391, 13.852 191.31276282951723 L 13.104 191.32076282951724 L 13.076 190.42876282951724 L 14.036 189.04476282951725 L 15.224 189.04476282951725 L 14.256 190.39676282951723 L 14.288 190.39676282951723 C 14.719999999999999 190.39676282951723, 15.036666666666665 190.5194294961839, 15.238 190.76476282951725 C 15.439333333333334 191.01009616285057, 15.552 191.38742949618393, 15.576 191.89676282951723 C 15.581333333333333 191.96876282951723, 15.584666666666667 192.04076282951723, 15.586 192.11276282951724 C 15.587333333333333 192.18476282951724, 15.588000000000001 192.25542949618392, 15.588000000000001 192.32476282951723 C 15.588000000000001 192.3940961628506, 15.587333333333333 192.4634294961839, 15.586 192.53276282951725 C 15.584666666666667 192.60209616285056, 15.581333333333333 192.67276282951724, 15.576 192.74476282951724 C 15.557333333333334 193.24076282951725, 15.436666666666667 193.60542949618392, 15.214 193.83876282951724 C 14.991333333333333 194.07209616285056, 14.638666666666666 194.20209616285058, 14.156 194.22876282951725 Z M 16.18 192.74476282951724 C 16.174666666666667 192.57142949618392, 16.173333333333332 192.4320961628506, 16.176 192.32676282951724 C 16.178666666666665 192.22142949618393, 16.181333333333335 192.11942949618393, 16.183999999999997 192.02076282951725 L 17.264 192.02076282951725 C 17.256 192.09809616285057, 17.25 192.19409616285054, 17.246 192.30876282951724 C 17.241999999999997 192.42342949618387, 17.240666666666666 192.53409616285057, 17.241999999999997 192.64076282951723 C 17.243333333333332 192.74742949618388, 17.246666666666666 192.8274294961839, 17.252 192.88076282951724 C 17.262666666666668 193.00076282951724, 17.297333333333334 193.09876282951723, 17.355999999999998 193.17476282951725 C 17.414666666666665 193.2507628295172, 17.497333333333334 193.30476282951724, 17.604 193.33676282951723 L 17.604 194.22876282951725 C 17.110666666666663 194.1914294961839, 16.75333333333333 194.05676282951725, 16.532 193.82476282951723 C 16.310666666666666 193.59276282951726, 16.19333333333333 193.23276282951724, 16.18 192.74476282951724 Z M 16.279999999999998 191.40876282951723 L 16.279999999999998 187.76076282951723 L 17.348 187.76076282951723 L 17.348 191.40876282951723 Z M 17.852 190.98476282951725 L 17.852 190.22876282951725 C 17.929333333333332 190.18876282951726, 18.014666666666667 190.15676282951725, 18.107999999999997 190.13276282951725 C 18.20133333333333 190.10876282951725, 18.301333333333332 190.09676282951725, 18.407999999999998 190.09676282951725 C 18.773333333333333 190.09676282951725, 19.047333333333334 190.21209616285057, 19.23 190.44276282951725 C 19.412666666666667 190.6734294961839, 19.514666666666663 190.9874294961839, 19.535999999999998 191.38476282951723 C 19.546666666666667 191.54476282951723, 19.55333333333333 191.7034294961839, 19.555999999999997 191.86076282951723 C 19.558666666666664 192.01809616285058, 19.557333333333332 192.17142949618392, 19.552 192.32076282951724 C 19.546666666666667 192.47009616285055, 19.538666666666668 192.61009616285054, 19.528 192.74076282951725 C 19.482666666666667 193.2394294961839, 19.353333333333335 193.60476282951726, 19.14 193.83676282951723 C 18.926666666666666 194.06876282951725, 18.581333333333333 194.19942949618394, 18.104 194.22876282951725 L 18.104 193.33676282951723 C 18.21333333333333 193.3074294961839, 18.296 193.25476282951723, 18.352 193.17876282951724 C 18.408 193.10276282951725, 18.44 193.0034294961839, 18.448 192.88076282951724 C 18.471999999999998 192.59009616285056, 18.485999999999997 192.32876282951725, 18.49 192.09676282951725 C 18.494 191.86476282951725, 18.485333333333333 191.6434294961839, 18.464 191.43276282951723 C 18.447999999999997 191.27809616285057, 18.396666666666665 191.16276282951722, 18.31 191.08676282951723 C 18.223333333333333 191.01076282951723, 18.090666666666664 190.97276282951725, 17.912 190.97276282951725 C 17.901333333333334 190.97276282951725, 17.890666666666668 190.97409616285057, 17.88 190.97676282951724 C 17.86933333333333 190.9794294961839, 17.86 190.98209616285058, 17.852 190.98476282951725 Z M 17.852 188.69276282951725 L 17.852 187.76076282951723 L 19.439999999999998 187.76076282951723 L 19.439999999999998 188.69276282951725 Z M 21.944 194.16076282951724 L 21.944 187.76076282951723 L 23.003999999999998 187.76076282951723 L 23.003999999999998 194.16076282951724 Z " stroke="none" fill-rule="nonzero" fill="#000000" fill-opacity="1" transform="matrix(1,0,0,1,5.05,13.314)" id="text35 l" />
  <path d="M 0 187.40305231633653 L 10 187.40305231633653 L 10 188.90305231633653 L 0 188.90305231633653 Z " stroke="none" fill-rule="evenodd" fill="#000000" fill-opacity="1" transform="matrix(1,0,0,1,5.05,13.314)" id="mark36 l" />
  <path d="M 0 179.56334180315588 L 10 179.56334180315588 L 10 181.06334180315588 L 0 181.06334180315588 Z " stroke="none" fill-rule="evenodd" fill="#000000" fill-opacity="1" transform="matrix(1,0,0,1,5.05,13.314)" id="mark37 l" />
  <path d="M 0 171.72363128997517 L 10 171.72363128997517 L 10 173.22363128997517 L 0 173.22363128997517 Z " stroke="none" fill-rule="evenodd" fill="#000000" fill-opacity="1" transform="matrix(1,0,0,1,5.05,13.314)" id="mark38 l" />
  <path d="M 0 163.88392077679447 L 10 163.88392077679447 L 10 165.38392077679447 L 0 165.38392077679447 Z " stroke="none" fill-rule="evenodd" fill="#000000" fill-opacity="1" transform="matrix(1,0,0,1,5.05,13.314)" id="mark39 l" />
  <path d="M 0 156.04421026361376 L 25 156.04421026361376 L 25 157.54421026361376 L 0 157.54421026361376 Z " stroke="none" fill-rule="evenodd" fill="#000000" fill-opacity="1" transform="matrix(1,0,0,1,5.05,13.314)" id="mark40 l" />
  <path d="M 11.739999999999998 153.31021026361378 L 11.739999999999998 152.43421026361378 L 12.455999999999998 150.55421026361378 L 13.495999999999999 150.55421026361378 L 12.771999999999998 152.38621026361378 L 13.171999999999997 152.38621026361378 L 13.171999999999997 153.31021026361378 Z M 13.675999999999998 154.99421026361378 L 13.675999999999998 148.59421026361377 L 14.683999999999997 148.59421026361377 L 14.683999999999997 154.99421026361378 Z M 15.187999999999999 153.31021026361378 L 15.187999999999999 152.38621026361378 L 15.655999999999999 152.38621026361378 L 15.655999999999999 153.31021026361378 Z M 16.195999999999998 153.58221026361377 C 16.188 153.15287693028043, 16.182666666666666 152.73621026361377, 16.18 152.33221026361377 C 16.177333333333333 151.92821026361378, 16.177999999999997 151.53287693028045, 16.182 151.14621026361377 C 16.186 150.7595435969471, 16.190666666666665 150.3782102636138, 16.195999999999998 150.0022102636138 C 16.20933333333333 149.5622102636138, 16.333999999999996 149.21687693028048, 16.569999999999997 148.9662102636138 C 16.805999999999997 148.7155435969471, 17.142666666666663 148.57021026361377, 17.58 148.53021026361378 L 17.58 149.4182102636138 C 17.382666666666665 149.47421026361377, 17.281333333333333 149.60354359694713, 17.275999999999996 149.8062102636138 C 17.262666666666664 150.17687693028046, 17.25333333333333 150.52487693028044, 17.247999999999998 150.85021026361377 C 17.242666666666665 151.1755435969471, 17.24 151.49221026361377, 17.24 151.8002102636138 C 17.24 152.10821026361378, 17.242666666666665 152.42287693028044, 17.247999999999998 152.74421026361378 C 17.25333333333333 153.06554359694712, 17.262666666666664 153.40887693028043, 17.275999999999996 153.77421026361378 C 17.281333333333333 153.9822102636138, 17.382666666666665 154.11421026361378, 17.58 154.17021026361377 L 17.58 155.05821026361377 C 17.142666666666663 155.01821026361375, 16.805999999999997 154.87221026361377, 16.569999999999997 154.62021026361379 C 16.333999999999996 154.36821026361378, 16.20933333333333 154.02221026361377, 16.195999999999998 153.58221026361377 Z M 18.084 155.05821026361377 L 18.084 154.16621026361378 C 18.268 154.11287693028046, 18.366666666666667 153.98887693028047, 18.38 153.7942102636138 C 18.398666666666664 153.32754359694712, 18.410666666666664 152.87887693028046, 18.415999999999997 152.4482102636138 C 18.42133333333333 152.01754359694712, 18.42133333333333 151.58687693028045, 18.415999999999997 151.1562102636138 C 18.410666666666664 150.72554359694712, 18.398666666666664 150.27287693028046, 18.38 149.79821026361378 C 18.374666666666666 149.60354359694713, 18.276 149.47687693028047, 18.084 149.4182102636138 L 18.084 148.53021026361378 C 18.513333333333332 148.57021026361377, 18.846666666666664 148.7155435969471, 19.083999999999996 148.9662102636138 C 19.32133333333333 149.21687693028048, 19.44533333333333 149.5622102636138, 19.456 150.0022102636138 C 19.466666666666665 150.31687693028044, 19.474666666666664 150.62687693028045, 19.479999999999997 150.93221026361377 C 19.48533333333333 151.2375435969471, 19.488 151.53821026361376, 19.488 151.83421026361378 C 19.488 152.13021026361378, 19.48533333333333 152.4235435969471, 19.479999999999997 152.71421026361378 C 19.474666666666664 153.00487693028046, 19.466666666666665 153.2942102636138, 19.456 153.58221026361377 C 19.439999999999998 154.03287693028045, 19.311999999999998 154.38154359694713, 19.072 154.62821026361377 C 18.831999999999997 154.87487693028044, 18.502666666666663 155.01821026361375, 18.084 155.05821026361377 Z M 21.944 154.99421026361378 L 21.944 148.59421026361377 L 23.003999999999998 148.59421026361377 L 23.003999999999998 154.99421026361378 Z " stroke="none" fill-rule="nonzero" fill="#000000" fill-opacity="1" transform="matrix(1,0,0,1,5.05,13.314)" id="text40 l" />
  <path d="M 0 148.20449975043311 L 10 148.20449975043311 L 10 149.70449975043311 L 0 149.70449975043311 Z " stroke="none" fill-rule="evenodd" fill="#000000" fill-opacity="1" transform="matrix(1,0,0,1,5.05,13.314)" id="mark41 l" />
  <path d="M 0 140.3647892372524 L 10 140.3647892372524 L 10 141.8647892372524 L 0 141.8647892372524 Z " stroke="none" fill-rule="evenodd" fill="#000000" fill-opacity="1" transform="matrix(1,0,0,1,5.05,13.314)" id="mark42 l" />
  <path d="M 0 132.5250787240717 L 10 132.5250787240717 L 10 134.0250787240717 L 0 134.0250787240717 Z " stroke="none" fill-rule="evenodd" fill="#000000" fill-opacity="1" transform="matrix(1,0,0,1,5.05,13.314)" id="mark43 l" />
  <path d="M 0 124.68536821089106 L 10 124.68536821089106 L 10 126.18536821089106 L 0 126.18536821089106 Z " stroke="none" fill-rule="evenodd" fill="#000000" fill-opacity="1" transform="matrix(1,0,0,1,5.05,13.314)" id="mark44 l" />
  <path d="M 0 116.84565769771035 L 25 116.84565769771035 L 25 118.34565769771035 L 0 118.34565769771035 Z " stroke="none" fill-rule="evenodd" fill="#000000" fill-opacity="1" transform="matrix(1,0,0,1,5.05,13.314)" id="mark45 l" />
  <path d="M 11.748 114.07965769771036 L 11.748 113.20365769771036 L 12.463999999999999 111.32365769771036 L 13.503999999999998 111.32365769771036 L 12.78 113.15565769771035 L 13.18 113.15565769771035 L 13.18 114.07965769771036 Z M 13.684 115.76365769771036 L 13.684 109.36365769771035 L 14.691999999999998 109.36365769771035 L 14.691999999999998 115.76365769771036 Z M 15.195999999999998 114.07965769771036 L 15.195999999999998 113.15565769771035 L 15.663999999999998 113.15565769771035 L 15.663999999999998 114.07965769771036 Z M 16.18 114.34765769771036 C 16.174666666666667 114.17432436437703, 16.173333333333332 114.03499103104369, 16.176 113.92965769771035 C 16.178666666666665 113.82432436437702, 16.181333333333335 113.72232436437702, 16.183999999999997 113.62365769771036 L 17.264 113.62365769771036 C 17.256 113.70099103104369, 17.25 113.79699103104369, 17.246 113.91165769771035 C 17.241999999999997 114.02632436437702, 17.240666666666666 114.13699103104369, 17.241999999999997 114.24365769771036 C 17.243333333333332 114.35032436437703, 17.246666666666666 114.43032436437703, 17.252 114.48365769771036 C 17.262666666666668 114.60365769771036, 17.297333333333334 114.70165769771036, 17.355999999999998 114.77765769771035 C 17.414666666666665 114.85365769771036, 17.497333333333334 114.90765769771036, 17.604 114.93965769771036 L 17.604 115.83165769771036 C 17.110666666666663 115.79432436437702, 16.75333333333333 115.65965769771036, 16.532 115.42765769771036 C 16.310666666666666 115.19565769771036, 16.19333333333333 114.83565769771036, 16.18 114.34765769771036 Z M 16.279999999999998 113.01165769771036 L 16.279999999999998 109.36365769771035 L 17.348 109.36365769771035 L 17.348 113.01165769771036 Z M 17.852 112.58765769771036 L 17.852 111.83165769771036 C 17.929333333333332 111.79165769771035, 18.014666666666667 111.75965769771034, 18.107999999999997 111.73565769771035 C 18.20133333333333 111.71165769771036, 18.301333333333332 111.69965769771036, 18.407999999999998 111.69965769771036 C 18.773333333333333 111.69965769771036, 19.047333333333334 111.81499103104369, 19.23 112.04565769771035 C 19.412666666666667 112.27632436437702, 19.514666666666663 112.59032436437703, 19.535999999999998 112.98765769771036 C 19.546666666666667 113.14765769771036, 19.55333333333333 113.30632436437702, 19.555999999999997 113.46365769771036 C 19.558666666666664 113.6209910310437, 19.557333333333332 113.77432436437702, 19.552 113.92365769771035 C 19.546666666666667 114.07299103104368, 19.538666666666668 114.21299103104369, 19.528 114.34365769771036 C 19.482666666666667 114.84232436437702, 19.353333333333335 115.20765769771035, 19.14 115.43965769771036 C 18.926666666666666 115.67165769771034, 18.581333333333333 115.80232436437703, 18.104 115.83165769771036 L 18.104 114.93965769771036 C 18.21333333333333 114.91032436437703, 18.296 114.85765769771037, 18.352 114.78165769771036 C 18.408 114.70565769771035, 18.44 114.60632436437702, 18.448 114.48365769771036 C 18.471999999999998 114.19299103104369, 18.485999999999997 113.93165769771036, 18.49 113.69965769771036 C 18.494 113.46765769771037, 18.485333333333333 113.24632436437702, 18.464 113.03565769771036 C 18.447999999999997 112.88099103104369, 18.396666666666665 112.76565769771037, 18.31 112.68965769771036 C 18.223333333333333 112.61365769771035, 18.090666666666664 112.57565769771034, 17.912 112.57565769771035 C 17.901333333333334 112.57565769771034, 17.890666666666668 112.57699103104369, 17.88 112.57965769771036 C 17.86933333333333 112.58232436437703, 17.86 112.5849910310437, 17.852 112.58765769771036 Z M 17.852 110.29565769771035 L 17.852 109.36365769771035 L 19.439999999999998 109.36365769771035 L 19.439999999999998 110.29565769771035 Z M 21.944 115.76365769771036 L 21.944 109.36365769771035 L 23.003999999999998 109.36365769771035 L 23.003999999999998 115.76365769771036 Z " stroke="none" fill-rule="nonzero" fill="#000000" fill-opacity="1" transform="matrix(1,0,0,1,5.05,13.314)" id="text45 l" />
  <path d="M 0 109.00594718452965 L 10 109.00594718452965 L 10 110.50594718452965 L 0 110.50594718452965 Z " stroke="none" fill-rule="evenodd" fill="#000000" fill-opacity="1" transform="matrix(1,0,0,1,5.05,13.314)" id="mark46 l" />
  <path d="M 0 101.16623667134894 L 10 101.16623667134894 L 10 102.66623667134894 L 0 102.66623667134894 Z " stroke="none" fill-rule="evenodd" fill="#000000" fill-opacity="1" transform="matrix(1,0,0,1,5.05,13.314)" id="mark47 l" />
  <path d="M 0 93.32652615816829 L 10 93.32652615816829 L 10 94.82652615816829 L 0 94.82652615816829 Z " stroke="none" fill-rule="evenodd" fill="#000000" fill-opacity="1" transform="matrix(1,0,0,1,5.05,13.314)" id="mark48 l" />
  <path d="M 0 85.48681564498759 L 10 85.48681564498759 L 10 86.98681564498759 L 0 86.98681564498759 Z " stroke="none" fill-rule="evenodd" fill="#000000" fill-opacity="1" transform="matrix(1,0,0,1,5.05,13.314)" id="mark49 l" />
  <path d="M 0 77.64710513180688 L 25 77.64710513180688 L 25 79.14710513180688 L 0 79.14710513180688 Z " stroke="none" fill-rule="evenodd" fill="#000000" fill-opacity="1" transform="matrix(1,0,0,1,5.05,13.314)" id="mark50 l" />
  <path d="M 12.204 75.18110513180689 C 12.198666666666668 75.00777179847356, 12.197333333333333 74.86843846514022, 12.2 74.76310513180688 C 12.202666666666667 74.65777179847355, 12.205333333333336 74.55577179847356, 12.208 74.45710513180688 L 13.288 74.45710513180688 C 13.280000000000001 74.53443846514023, 13.274000000000001 74.63043846514022, 13.27 74.74510513180688 C 13.265999999999998 74.85977179847355, 13.264666666666667 74.97043846514022, 13.266 75.07710513180689 C 13.267333333333333 75.18377179847356, 13.270666666666667 75.26377179847356, 13.276 75.31710513180688 C 13.286666666666665 75.43710513180689, 13.321333333333332 75.53510513180689, 13.379999999999999 75.61110513180688 C 13.438666666666666 75.68710513180689, 13.521333333333335 75.74110513180689, 13.628 75.77310513180689 L 13.628 76.66510513180688 C 13.134666666666668 76.62777179847355, 12.777333333333335 76.49310513180689, 12.556 76.26110513180689 C 12.334666666666667 76.02910513180689, 12.217333333333332 75.66910513180689, 12.204 75.18110513180689 Z M 12.304 73.84510513180689 L 12.304 70.19710513180688 L 13.372 70.19710513180688 L 13.372 73.84510513180689 Z M 13.876 73.42110513180688 L 13.876 72.66510513180688 C 13.953333333333333 72.62510513180688, 14.038666666666668 72.59310513180688, 14.132 72.56910513180688 C 14.225333333333333 72.54510513180688, 14.325333333333333 72.53310513180688, 14.432 72.53310513180688 C 14.797333333333334 72.53310513180688, 15.071333333333332 72.64843846514022, 15.254 72.87910513180688 C 15.436666666666667 73.10977179847355, 15.538666666666668 73.42377179847355, 15.56 73.82110513180689 C 15.570666666666668 73.98110513180688, 15.577333333333334 74.13977179847355, 15.58 74.29710513180689 C 15.582666666666666 74.45443846514021, 15.581333333333333 74.60777179847355, 15.576 74.75710513180688 C 15.570666666666666 74.90643846514021, 15.562666666666665 75.04643846514021, 15.552 75.17710513180688 C 15.506666666666668 75.67577179847355, 15.377333333333333 76.04110513180689, 15.164 76.27310513180689 C 14.950666666666667 76.50510513180689, 14.605333333333332 76.63577179847356, 14.128 76.66510513180688 L 14.128 75.77310513180689 C 14.237333333333334 75.74377179847356, 14.32 75.69110513180689, 14.376 75.61510513180689 C 14.432 75.53910513180688, 14.464 75.43977179847354, 14.472 75.31710513180688 C 14.495999999999999 75.02643846514022, 14.509999999999998 74.76510513180689, 14.514 74.53310513180688 C 14.518 74.30110513180688, 14.509333333333334 74.07977179847356, 14.488 73.86910513180689 C 14.472000000000001 73.71443846514023, 14.420666666666666 73.5991051318069, 14.334 73.52310513180689 C 14.247333333333334 73.44710513180688, 14.114666666666666 73.40910513180688, 13.936 73.40910513180688 C 13.925333333333333 73.40910513180688, 13.914666666666665 73.41043846514022, 13.904 73.41310513180689 C 13.893333333333334 73.41577179847354, 13.884 73.41843846514021, 13.876 73.42110513180688 Z M 13.876 71.12910513180688 L 13.876 70.19710513180688 L 15.464 70.19710513180688 L 15.464 71.12910513180688 Z M 16.196 75.18510513180688 C 16.188000000000002 74.75577179847355, 16.182666666666666 74.33910513180689, 16.18 73.93510513180688 C 16.177333333333333 73.53110513180688, 16.177999999999997 73.13577179847354, 16.182 72.74910513180689 C 16.186 72.36243846514023, 16.190666666666665 71.98110513180688, 16.196 71.60510513180688 C 16.209333333333333 71.16510513180688, 16.334000000000003 70.81977179847355, 16.57 70.56910513180688 C 16.805999999999997 70.31843846514022, 17.142666666666663 70.17310513180689, 17.58 70.13310513180689 L 17.58 71.02110513180689 C 17.382666666666665 71.07710513180689, 17.281333333333333 71.20643846514021, 17.276 71.40910513180688 C 17.262666666666668 71.77977179847355, 17.253333333333334 72.12777179847355, 17.248 72.45310513180688 C 17.242666666666665 72.77843846514021, 17.24 73.09510513180687, 17.24 73.40310513180688 C 17.24 73.71110513180689, 17.242666666666665 74.02577179847356, 17.248 74.34710513180688 C 17.253333333333334 74.66843846514021, 17.262666666666668 75.01177179847355, 17.276 75.37710513180689 C 17.281333333333333 75.58510513180688, 17.382666666666665 75.71710513180689, 17.58 75.77310513180689 L 17.58 76.66110513180688 C 17.142666666666663 76.62110513180689, 16.805999999999997 76.47510513180688, 16.57 76.22310513180689 C 16.334000000000003 75.9711051318069, 16.209333333333333 75.62510513180689, 16.196 75.18510513180688 Z M 18.084 76.66110513180688 L 18.084 75.76910513180688 C 18.268 75.71577179847355, 18.366666666666667 75.59177179847356, 18.38 75.39710513180688 C 18.398666666666667 74.93043846514021, 18.410666666666668 74.48177179847355, 18.416 74.05110513180688 C 18.421333333333333 73.62043846514021, 18.421333333333333 73.18977179847356, 18.416 72.75910513180689 C 18.410666666666668 72.32843846514022, 18.398666666666667 71.87577179847355, 18.38 71.40110513180689 C 18.374666666666666 71.20643846514022, 18.276 71.07977179847356, 18.084 71.02110513180689 L 18.084 70.13310513180689 C 18.513333333333335 70.17310513180689, 18.846666666666668 70.31843846514022, 19.084 70.56910513180688 C 19.321333333333335 70.81977179847355, 19.445333333333334 71.16510513180688, 19.456 71.60510513180688 C 19.46666666666667 71.91977179847355, 19.474666666666668 72.22977179847355, 19.48 72.53510513180689 C 19.485333333333333 72.84043846514022, 19.488 73.14110513180688, 19.488 73.43710513180689 C 19.488 73.7331051318069, 19.485333333333333 74.02643846514022, 19.48 74.31710513180688 C 19.474666666666668 74.60777179847355, 19.46666666666667 74.89710513180688, 19.456 75.18510513180688 C 19.439999999999998 75.63577179847354, 19.311999999999998 75.98443846514022, 19.072 76.23110513180688 C 18.832 76.47777179847355, 18.502666666666666 76.62110513180689, 18.084 76.66110513180688 Z M 21.944 76.59710513180688 L 21.944 70.19710513180688 L 23.003999999999998 70.19710513180688 L 23.003999999999998 76.59710513180688 Z " stroke="none" fill-rule="nonzero" fill="#000000" fill-opacity="1" transform="matrix(1,0,0,1,5.05,13.314)" id="text50 l" />
  <path d="M 0 69.80739461862618 L 10 69.80739461862618 L 10 71.30739461862618 L 0 71.30739461862618 Z " stroke="none" fill-rule="evenodd" fill="#000000" fill-opacity="1" transform="matrix(1,0,0,1,5.05,13.314)" id="mark51 l" />
  <path d="M 0 61.96768410544553 L 10 61.96768410544553 L 10 63.46768410544553 L 0 63.46768410544553 Z " stroke="none" fill-rule="evenodd" fill="#000000" fill-opacity="1" transform="matrix(1,0,0,1,5.05,13.314)" id="mark52 l" />
  <path d="M 0 54.12797359226482 L 10 54.12797359226482 L 10 55.62797359226482 L 0 55.62797359226482 Z " stroke="none" fill-rule="evenodd" fill="#000000" fill-opacity="1" transform="matrix(1,0,0,1,5.05,13.314)" id="mark53 l" />
  <path d="M 0 46.28826307908412 L 10 46.28826307908412 L 10 47.78826307908412 L 0 47.78826307908412 Z " stroke="none" fill-rule="evenodd" fill="#000000" fill-opacity="1" transform="matrix(1,0,0,1,5.05,13.314)" id="mark54 l" />
  <path d="M 0 38.44855256590341 L 25 38.44855256590341 L 25 39.94855256590341 L 0 39.94855256590341 Z " stroke="none" fill-rule="evenodd" fill="#000000" fill-opacity="1" transform="matrix(1,0,0,1,5.05,13.314)" id="mark55 l" />
  <path d="M 12.212 35.950552565903415 C 12.206666666666667 35.777219232570076, 12.205333333333332 35.63788589923674, 12.207999999999998 35.53255256590341 C 12.210666666666667 35.42721923257008, 12.213333333333335 35.32521923257008, 12.216 35.22655256590341 L 13.296 35.22655256590341 C 13.288 35.30388589923675, 13.282 35.39988589923675, 13.277999999999999 35.514552565903415 C 13.273999999999997 35.62921923257008, 13.272666666666666 35.73988589923675, 13.274 35.84655256590341 C 13.275333333333332 35.95321923257008, 13.278666666666666 36.033219232570076, 13.283999999999999 36.08655256590341 C 13.294666666666664 36.20655256590341, 13.32933333333333 36.304552565903414, 13.387999999999998 36.380552565903415 C 13.446666666666665 36.456552565903415, 13.529333333333334 36.51055256590341, 13.636 36.542552565903414 L 13.636 37.43455256590341 C 13.142666666666667 37.39721923257008, 12.785333333333334 37.26255256590341, 12.563999999999998 37.03055256590341 C 12.342666666666666 36.798552565903414, 12.225333333333332 36.438552565903414, 12.212 35.950552565903415 Z M 12.312 34.61455256590341 L 12.312 30.966552565903413 L 13.379999999999999 30.966552565903413 L 13.379999999999999 34.61455256590341 Z M 13.883999999999999 34.19055256590341 L 13.883999999999999 33.43455256590341 C 13.961333333333332 33.39455256590341, 14.046666666666667 33.362552565903414, 14.139999999999999 33.33855256590341 C 14.233333333333333 33.31455256590341, 14.333333333333332 33.30255256590341, 14.44 33.30255256590341 C 14.805333333333333 33.30255256590341, 15.07933333333333 33.41788589923675, 15.261999999999999 33.648552565903415 C 15.444666666666667 33.87921923257008, 15.546666666666667 34.19321923257008, 15.568 34.59055256590341 C 15.578666666666667 34.75055256590341, 15.585333333333333 34.90921923257008, 15.588 35.066552565903415 C 15.590666666666666 35.22388589923675, 15.589333333333332 35.37721923257008, 15.584 35.52655256590341 C 15.578666666666665 35.67588589923675, 15.570666666666664 35.81588589923675, 15.559999999999999 35.94655256590341 C 15.514666666666667 36.44521923257008, 15.385333333333332 36.810552565903414, 15.171999999999999 37.042552565903414 C 14.958666666666666 37.27455256590341, 14.613333333333332 37.405219232570076, 14.136 37.43455256590341 L 14.136 36.542552565903414 C 14.245333333333333 36.51321923257008, 14.328 36.46055256590341, 14.383999999999999 36.38455256590341 C 14.44 36.30855256590341, 14.472 36.20921923257008, 14.479999999999999 36.08655256590341 C 14.503999999999998 35.795885899236744, 14.517999999999997 35.53455256590341, 14.521999999999998 35.30255256590341 C 14.526 35.07055256590341, 14.517333333333333 34.84921923257008, 14.495999999999999 34.63855256590341 C 14.48 34.48388589923674, 14.428666666666665 34.368552565903414, 14.341999999999999 34.292552565903414 C 14.255333333333333 34.21655256590341, 14.122666666666666 34.17855256590341, 13.943999999999999 34.17855256590341 C 13.933333333333332 34.17855256590341, 13.922666666666665 34.179885899236744, 13.911999999999999 34.182552565903414 C 13.901333333333334 34.18521923257008, 13.892 34.18788589923675, 13.883999999999999 34.19055256590341 Z M 13.883999999999999 31.89855256590341 L 13.883999999999999 30.966552565903413 L 15.472 30.966552565903413 L 15.472 31.89855256590341 Z M 16.18 35.950552565903415 C 16.174666666666667 35.777219232570076, 16.173333333333332 35.63788589923674, 16.176 35.53255256590341 C 16.178666666666665 35.42721923257008, 16.181333333333335 35.32521923257008, 16.183999999999997 35.22655256590341 L 17.264 35.22655256590341 C 17.256 35.30388589923675, 17.25 35.39988589923675, 17.246 35.514552565903415 C 17.241999999999997 35.62921923257008, 17.240666666666666 35.73988589923675, 17.241999999999997 35.84655256590341 C 17.243333333333332 35.95321923257008, 17.246666666666666 36.033219232570076, 17.252 36.08655256590341 C 17.262666666666668 36.20655256590341, 17.297333333333334 36.304552565903414, 17.355999999999998 36.380552565903415 C 17.414666666666665 36.456552565903415, 17.497333333333334 36.51055256590341, 17.604 36.542552565903414 L 17.604 37.43455256590341 C 17.110666666666663 37.39721923257008, 16.75333333333333 37.26255256590341, 16.532 37.03055256590341 C 16.310666666666666 36.798552565903414, 16.19333333333333 36.438552565903414, 16.18 35.950552565903415 Z M 16.279999999999998 34.61455256590341 L 16.279999999999998 30.966552565903413 L 17.348 30.966552565903413 L 17.348 34.61455256590341 Z M 17.852 34.19055256590341 L 17.852 33.43455256590341 C 17.929333333333332 33.39455256590341, 18.014666666666667 33.362552565903414, 18.107999999999997 33.33855256590341 C 18.20133333333333 33.31455256590341, 18.301333333333332 33.30255256590341, 18.407999999999998 33.30255256590341 C 18.773333333333333 33.30255256590341, 19.047333333333334 33.41788589923675, 19.23 33.648552565903415 C 19.412666666666667 33.87921923257008, 19.514666666666663 34.19321923257008, 19.535999999999998 34.59055256590341 C 19.546666666666667 34.75055256590341, 19.55333333333333 34.90921923257008, 19.555999999999997 35.066552565903415 C 19.558666666666664 35.22388589923675, 19.557333333333332 35.37721923257008, 19.552 35.52655256590341 C 19.546666666666667 35.67588589923675, 19.538666666666668 35.81588589923675, 19.528 35.94655256590341 C 19.482666666666667 36.44521923257008, 19.353333333333335 36.810552565903414, 19.14 37.042552565903414 C 18.926666666666666 37.27455256590341, 18.581333333333333 37.405219232570076, 18.104 37.43455256590341 L 18.104 36.542552565903414 C 18.21333333333333 36.51321923257008, 18.296 36.46055256590341, 18.352 36.38455256590341 C 18.408 36.30855256590341, 18.44 36.20921923257008, 18.448 36.08655256590341 C 18.471999999999998 35.795885899236744, 18.485999999999997 35.53455256590341, 18.49 35.30255256590341 C 18.494 35.07055256590341, 18.485333333333333 34.84921923257008, 18.464 34.63855256590341 C 18.447999999999997 34.48388589923674, 18.396666666666665 34.368552565903414, 18.31 34.292552565903414 C 18.223333333333333 34.21655256590341, 18.090666666666664 34.17855256590341, 17.912 34.17855256590341 C 17.901333333333334 34.17855256590341, 17.890666666666668 34.179885899236744, 17.88 34.182552565903414 C 17.86933333333333 34.18521923257008, 17.86 34.18788589923675, 17.852 34.19055256590341 Z M 17.852 31.89855256590341 L 17.852 30.966552565903413 L 19.439999999999998 30.966552565903413 L 19.439999999999998 31.89855256590341 Z M 21.944 37.36655256590341 L 21.944 30.966552565903413 L 23.003999999999998 30.966552565903413 L 23.003999999999998 37.36655256590341 Z " stroke="none" fill-rule="nonzero" fill="#000000" fill-opacity="1" transform="matrix(1,0,0,1,5.05,13.314)" id="text55 l" />
  <path d="M 0 30.608842052722764 L 10 30.608842052722764 L 10 32.108842052722764 L 0 32.108842052722764 Z " stroke="none" fill-rule="evenodd" fill="#000000" fill-opacity="1" transform="matrix(1,0,0,1,5.05,13.314)" id="mark56 l" />
  <path d="M 0 22.76913153954206 L 10 22.76913153954206 L 10 24.26913153954206 L 0 24.26913153954206 Z " stroke="none" fill-rule="evenodd" fill="#000000" fill-opacity="1" transform="matrix(1,0,0,1,5.05,13.314)" id="mark57 l" />
  <path d="M 0 14.929421026361354 L 10 14.929421026361354 L 10 16.429421026361354 L 0 16.429421026361354 Z " stroke="none" fill-rule="evenodd" fill="#000000" fill-opacity="1" transform="matrix(1,0,0,1,5.05,13.314)" id="mark58 l" />
  <path d="M 0 7.089710513180648 L 10 7.089710513180648 L 10 8.589710513180648 L 0 8.589710513180648 Z " stroke="none" fill-rule="evenodd" fill="#000000" fill-opacity="1" transform="matrix(1,0,0,1,5.05,13.314)" id="mark59 l" />
  <path d="M 0 -0.75 L 25 -0.75 L 25 0.75 L 0 0.75 Z " stroke="none" fill-rule="evenodd" fill="#000000" fill-opacity="1" transform="matrix(1,0,0,1,5.05,13.314)" id="mark60 l" />
  <path d="M 12.264 -3.2159999999999997 C 12.261333333333333 -3.4799999999999995, 12.258 -3.7573333333333334, 12.254 -4.048 C 12.25 -4.338666666666667, 12.248 -4.637333333333333, 12.248 -4.944 C 12.248 -5.250666666666667, 12.249333333333333 -5.558666666666666, 12.251999999999999 -5.867999999999999 C 12.254666666666665 -6.1773333333333325, 12.258666666666667 -6.485333333333333, 12.264 -6.792 C 12.271999999999998 -7.256, 12.397333333333332 -7.6080000000000005, 12.639999999999999 -7.848 C 12.882666666666665 -8.088000000000001, 13.215999999999998 -8.226666666666667, 13.639999999999999 -8.264 L 13.639999999999999 -7.372 C 13.543999999999997 -7.347999999999999, 13.470666666666665 -7.303999999999999, 13.419999999999998 -7.239999999999999 C 13.369333333333332 -7.176, 13.343999999999998 -7.090666666666667, 13.344 -6.984 C 13.335999999999999 -6.496, 13.330666666666666 -6.029333333333334, 13.328 -5.584 C 13.325333333333333 -5.1386666666666665, 13.323999999999998 -4.705333333333334, 13.323999999999998 -4.284 C 13.323999999999998 -3.8626666666666667, 13.328 -3.4480000000000004, 13.335999999999999 -3.04 C 13.335999999999999 -2.9306666666666668, 13.363333333333333 -2.841333333333333, 13.418 -2.772 C 13.472666666666665 -2.7026666666666666, 13.549333333333333 -2.653333333333333, 13.648 -2.6239999999999997 L 13.648 -1.7319999999999998 C 13.159999999999998 -1.7639999999999998, 12.809333333333331 -1.896, 12.595999999999998 -2.1279999999999997 C 12.382666666666665 -2.36, 12.271999999999998 -2.7226666666666666, 12.264 -3.2159999999999997 Z M 13.812 -4.896 L 13.812 -5.64 C 13.894666666666666 -5.688, 13.987333333333332 -5.725333333333333, 14.09 -5.752 C 14.192666666666668 -5.778666666666666, 14.301333333333332 -5.792, 14.415999999999999 -5.792 C 14.84 -5.792, 15.134 -5.692666666666666, 15.297999999999998 -5.494 C 15.462 -5.295333333333334, 15.547999999999998 -4.964, 15.556 -4.5 C 15.561333333333334 -4.316000000000001, 15.564666666666666 -4.160666666666667, 15.565999999999999 -4.034 C 15.567333333333332 -3.907333333333333, 15.567333333333332 -3.7826666666666666, 15.565999999999999 -3.6599999999999997 C 15.564666666666666 -3.5373333333333337, 15.559999999999999 -3.389333333333333, 15.552 -3.2159999999999997 C 15.527999999999999 -2.7253333333333334, 15.408 -2.3626666666666667, 15.192 -2.1279999999999997 C 14.975999999999999 -1.893333333333333, 14.628 -1.7613333333333332, 14.148 -1.7319999999999998 L 14.148 -2.6159999999999997 C 14.251999999999999 -2.6453333333333333, 14.331333333333333 -2.6933333333333334, 14.386 -2.76 C 14.440666666666665 -2.826666666666666, 14.469333333333333 -2.913333333333333, 14.472 -3.0199999999999996 C 14.477333333333332 -3.174666666666666, 14.481333333333332 -3.313333333333333, 14.483999999999998 -3.436 C 14.486666666666666 -3.558666666666667, 14.489333333333335 -3.676, 14.491999999999999 -3.788 C 14.494666666666667 -3.9, 14.495333333333333 -4.011333333333333, 14.494 -4.122 C 14.492666666666667 -4.232666666666667, 14.489333333333333 -4.349333333333333, 14.483999999999998 -4.4719999999999995 C 14.481333333333332 -4.621333333333333, 14.429333333333332 -4.732, 14.328 -4.804 C 14.226666666666665 -4.876, 14.094666666666665 -4.912, 13.931999999999999 -4.912 C 13.913333333333334 -4.912, 13.894 -4.911333333333333, 13.873999999999999 -4.91 C 13.854 -4.908666666666667, 13.833333333333332 -4.904, 13.812 -4.896 Z M 14.44 -6.216 C 14.448 -6.309333333333333, 14.452666666666666 -6.391333333333333, 14.453999999999999 -6.462 C 14.455333333333332 -6.532666666666667, 14.454666666666665 -6.6080000000000005, 14.451999999999998 -6.688 C 14.449333333333332 -6.768000000000001, 14.445333333333334 -6.866666666666667, 14.44 -6.984 C 14.434666666666665 -7.082666666666666, 14.407999999999998 -7.165999999999999, 14.36 -7.233999999999999 C 14.311999999999998 -7.302, 14.238666666666665 -7.347999999999999, 14.139999999999999 -7.372 L 14.139999999999999 -8.26 C 14.577333333333332 -8.219999999999999, 14.911333333333332 -8.075333333333333, 15.142 -7.826 C 15.372666666666667 -7.576666666666666, 15.495999999999999 -7.2493333333333325, 15.511999999999999 -6.843999999999999 C 15.514666666666667 -6.777333333333333, 15.516666666666666 -6.7139999999999995, 15.517999999999999 -6.654 C 15.519333333333332 -6.594, 15.519333333333332 -6.53, 15.517999999999999 -6.462 C 15.516666666666666 -6.393999999999999, 15.514666666666667 -6.311999999999999, 15.511999999999999 -6.216 Z M 16.196 -3.2119999999999997 C 16.188000000000002 -3.641333333333333, 16.182666666666666 -4.058, 16.18 -4.462 C 16.177333333333333 -4.866, 16.177999999999997 -5.261333333333333, 16.182 -5.648 C 16.186 -6.034666666666666, 16.190666666666665 -6.416, 16.196 -6.792 C 16.209333333333333 -7.231999999999999, 16.334000000000003 -7.577333333333334, 16.57 -7.828 C 16.805999999999997 -8.078666666666667, 17.142666666666663 -8.224, 17.58 -8.264 L 17.58 -7.3759999999999994 C 17.382666666666665 -7.32, 17.281333333333333 -7.190666666666667, 17.276 -6.9879999999999995 C 17.262666666666668 -6.617333333333333, 17.253333333333334 -6.269333333333333, 17.248 -5.944 C 17.242666666666665 -5.618666666666666, 17.24 -5.302, 17.24 -4.994 C 17.24 -4.686, 17.242666666666665 -4.371333333333333, 17.248 -4.05 C 17.253333333333334 -3.7286666666666664, 17.262666666666668 -3.3853333333333326, 17.276 -3.0199999999999996 C 17.281333333333333 -2.812, 17.382666666666665 -2.6799999999999997, 17.58 -2.6239999999999997 L 17.58 -1.7359999999999998 C 17.142666666666663 -1.7759999999999998, 16.805999999999997 -1.9219999999999997, 16.57 -2.174 C 16.334000000000003 -2.4259999999999997, 16.209333333333333 -2.772, 16.196 -3.2119999999999997 Z M 18.084 -1.7359999999999998 L 18.084 -2.6279999999999997 C 18.268 -2.681333333333333, 18.366666666666667 -2.8053333333333335, 18.38 -3 C 18.398666666666667 -3.4666666666666663, 18.410666666666668 -3.915333333333333, 18.416 -4.346 C 18.421333333333333 -4.776666666666666, 18.421333333333333 -5.207333333333333, 18.416 -5.638 C 18.410666666666668 -6.068666666666666, 18.398666666666667 -6.521333333333333, 18.38 -6.9959999999999996 C 18.374666666666666 -7.190666666666667, 18.276 -7.317333333333334, 18.084 -7.3759999999999994 L 18.084 -8.264 C 18.513333333333335 -8.224, 18.846666666666668 -8.078666666666667, 19.084 -7.828 C 19.321333333333335 -7.577333333333334, 19.445333333333334 -7.231999999999999, 19.456 -6.792 C 19.46666666666667 -6.477333333333332, 19.474666666666668 -6.167333333333333, 19.48 -5.861999999999999 C 19.485333333333333 -5.556666666666667, 19.488 -5.256, 19.488 -4.96 C 19.488 -4.664, 19.485333333333333 -4.370666666666667, 19.48 -4.08 C 19.474666666666668 -3.7893333333333334, 19.46666666666667 -3.5, 19.456 -3.2119999999999997 C 19.439999999999998 -2.761333333333333, 19.311999999999998 -2.4126666666666665, 19.072 -2.166 C 18.832 -1.9193333333333331, 18.502666666666666 -1.7759999999999998, 18.084 -1.7359999999999998 Z M 21.944 -1.7999999999999998 L 21.944 -8.2 L 23.003999999999998 -8.2 L 23.003999999999998 -1.7999999999999998 Z " stroke="none" fill-rule="nonzero" fill="#000000" fill-opacity="1" transform="matrix(1,0,0,1,5.05,13.314)" id="text60 l" />
  <path d="M -5 -13.264 L 30 -13.264 L 30 469.3109202776607 L -5 469.3109202776607 Z " stroke="#FF0000" stroke-opacity="1" stroke-width="0.1" stroke-linecap="butt" stroke-linejoin="miter" fill="none" transform="matrix(1,0,0,1,5.05,13.314)" />
</svg>