<?xml version="1.0" encoding="UTF-8"?>
<svg xmlns:xlink="http://www.w3.org/1999/xlink" viewBox="0 0 37.099999999999994 165.28824997931216" version="1.1" style="font-synthesis: none;" width="37.099999999999994mm" height="165.28824997931213mm" xmlns="http://www.w3.org/2000/svg">
  <defs />
  <style>	</style>
  <path d="M 0 0 L 37.099999999999994 0 L 37.099999999999994 165.28824997931216 L 0 165.28824997931216 Z " stroke="none" fill-rule="nonzero" fill="#FFFFFF" fill-opacity="1" transform="matrix(1,0,0,1,0,0)" />
  <path d="M 0 144.3742499793121 L 10 144.3742499793121 L 10 145.8742499793121 L 0 145.8742499793121 Z " stroke="none" fill-rule="evenodd" fill="#000000" fill-opacity="1" transform="matrix(1,0,0,1,5.05,13.314)" id="mark1 l" />
  <path d="M 0 128.2493333149441 L 27 128.2493333149441 L 27 129.7493333149441 L 0 129.7493333149441 Z " stroke="none" fill-rule="evenodd" fill="#000000" fill-opacity="1" transform="matrix(1,0,0,1,5.05,13.314)" id="mark2 l" />
  <path d="M 18.296000000000003 127.2313333149441 C 18.293333333333337 127.13266664827744, 18.291333333333334 127.04399998161077, 18.290000000000003 126.96533331494409 C 18.288666666666668 126.88666664827743, 18.287333333333333 126.81266664827743, 18.286 126.7433333149441 C 18.28466666666667 126.67399998161076, 18.284000000000002 126.60199998161076, 18.284000000000002 126.5273333149441 C 18.284000000000002 126.45266664827744, 18.284000000000002 126.36799998161077, 18.284000000000002 126.2733333149441 C 18.284000000000002 126.17866664827743, 18.285333333333334 126.0673333149441, 18.288 125.9393333149441 C 18.296 125.64599998161076, 18.346000000000004 125.38399998161076, 18.438000000000002 125.15333331494409 C 18.53 124.92266664827743, 18.664 124.71666664827742, 18.840000000000003 124.5353333149441 C 19.016000000000005 124.35399998161077, 19.233333333333334 124.19266664827742, 19.492 124.05133331494409 L 20.024 123.76333331494409 C 20.21066666666667 123.66199998161076, 20.330000000000002 123.53999998161075, 20.382 123.39733331494409 C 20.434 123.25466664827744, 20.464000000000002 123.12066664827742, 20.472 122.99533331494409 C 20.48266666666667 122.84866664827743, 20.48866666666667 122.69199998161076, 20.490000000000002 122.52533331494409 C 20.491333333333333 122.35866664827742, 20.488 122.20199998161075, 20.48 122.0553333149441 C 20.474666666666668 121.9513333149441, 20.44466666666667 121.86533331494411, 20.39 121.7973333149441 C 20.33533333333333 121.72933331494409, 20.256 121.68066664827742, 20.152 121.6513333149441 L 20.152 120.76333331494409 C 20.64 120.79533331494409, 20.990000000000002 120.92666664827743, 21.202 121.1573333149441 C 21.414 121.38799998161076, 21.53066666666667 121.74866664827744, 21.552000000000003 122.23933331494409 C 21.55466666666667 122.3033333149441, 21.556666666666665 122.36866664827744, 21.558 122.4353333149441 C 21.559333333333335 122.50199998161077, 21.560000000000002 122.56666664827742, 21.560000000000002 122.62933331494409 C 21.560000000000002 122.69199998161076, 21.559333333333335 122.75399998161078, 21.558 122.8153333149441 C 21.556666666666665 122.87666664827742, 21.55466666666667 122.93666664827742, 21.552000000000003 122.99533331494409 C 21.541333333333334 123.28066664827745, 21.488000000000003 123.52733331494412, 21.392000000000003 123.7353333149441 C 21.296000000000003 123.94333331494411, 21.166000000000004 124.12333331494409, 21.002000000000002 124.27533331494409 C 20.838 124.4273333149441, 20.648 124.5633333149441, 20.432000000000002 124.6833333149441 L 19.828000000000003 125.0113333149441 C 19.713333333333335 125.07266664827742, 19.623333333333335 125.15666664827742, 19.558 125.26333331494409 C 19.49266666666667 125.36999998161076, 19.446 125.48333331494408, 19.418000000000003 125.6033333149441 C 19.39 125.72333331494409, 19.376 125.8353333149441, 19.376 125.9393333149441 L 19.376 127.2313333149441 Z M 18.304000000000002 123.19133331494409 C 18.29866666666667 123.07399998161077, 18.294666666666668 122.9593333149441, 18.292 122.8473333149441 C 18.289333333333335 122.73533331494409, 18.287333333333333 122.62933331494409, 18.286 122.5293333149441 C 18.28466666666667 122.4293333149441, 18.285333333333334 122.33266664827742, 18.288 122.23933331494409 C 18.30666666666667 121.75133331494409, 18.423333333333336 121.39199998161075, 18.638 121.1613333149441 C 18.852666666666668 120.93066664827742, 19.189333333333334 120.79799998161076, 19.648000000000003 120.76333331494409 L 19.648000000000003 121.6553333149441 C 19.552000000000003 121.68466664827743, 19.481333333333335 121.7313333149441, 19.436 121.79533331494409 C 19.390666666666668 121.85933331494408, 19.366666666666667 121.93666664827742, 19.364 122.0273333149441 C 19.358666666666668 122.23533331494411, 19.355333333333334 122.42866664827744, 19.354000000000003 122.6073333149441 C 19.352666666666668 122.78599998161076, 19.357333333333333 122.98066664827743, 19.368000000000002 123.19133331494409 Z M 19.880000000000003 127.2313333149441 L 19.880000000000003 126.29933331494409 L 21.476000000000003 126.29933331494409 L 21.476000000000003 127.2313333149441 Z M 23.944000000000003 127.2313333149441 L 23.944000000000003 120.83133331494409 L 25.004000000000005 120.83133331494409 L 25.004000000000005 127.2313333149441 Z " stroke="none" fill-rule="nonzero" fill="#000000" fill-opacity="1" transform="matrix(1,0,0,1,5.05,13.314)" id="text2 l" />
  <path d="M 0 112.12441665057608 L 10 112.12441665057608 L 10 113.62441665057608 L 0 113.62441665057608 Z " stroke="none" fill-rule="evenodd" fill="#000000" fill-opacity="1" transform="matrix(1,0,0,1,5.05,13.314)" id="mark3 l" />
  <path d="M 0 95.99949998620808 L 27 95.99949998620808 L 27 97.49949998620808 L 0 97.49949998620808 Z " stroke="none" fill-rule="evenodd" fill="#000000" fill-opacity="1" transform="matrix(1,0,0,1,5.05,13.314)" id="mark4 l" />
  <path d="M 17.716 93.26549998620808 L 17.716 92.38949998620808 L 18.432000000000002 90.50949998620808 L 19.472 90.50949998620808 L 18.748 92.34149998620808 L 19.148 92.34149998620808 L 19.148 93.26549998620808 Z M 19.652 94.94949998620808 L 19.652 88.54949998620808 L 20.66 88.54949998620808 L 20.66 94.94949998620808 Z M 21.164 93.26549998620808 L 21.164 92.34149998620808 L 21.632 92.34149998620808 L 21.632 93.26549998620808 Z M 23.944000000000003 94.94949998620808 L 23.944000000000003 88.54949998620808 L 25.004000000000005 88.54949998620808 L 25.004000000000005 94.94949998620808 Z " stroke="none" fill-rule="nonzero" fill="#000000" fill-opacity="1" transform="matrix(1,0,0,1,5.05,13.314)" id="text4 l" />
  <path d="M 0 79.87458332184006 L 10 79.87458332184006 L 10 81.37458332184006 L 0 81.37458332184006 Z " stroke="none" fill-rule="evenodd" fill="#000000" fill-opacity="1" transform="matrix(1,0,0,1,5.05,13.314)" id="mark5 l" />
  <path d="M 0 63.74966665747205 L 27 63.74966665747205 L 27 65.24966665747205 L 0 65.24966665747205 Z " stroke="none" fill-rule="evenodd" fill="#000000" fill-opacity="1" transform="matrix(1,0,0,1,5.05,13.314)" id="mark6 l" />
  <path d="M 18.240000000000002 61.283666657472054 C 18.237333333333336 61.01966665747205, 18.234 60.74233332413871, 18.23 60.45166665747205 C 18.226 60.16099999080538, 18.224 59.86233332413872, 18.224 59.55566665747205 C 18.224 59.24899999080539, 18.22533333333333 58.94099999080539, 18.228 58.63166665747205 C 18.23066666666667 58.32233332413872, 18.23466666666667 58.01433332413872, 18.240000000000002 57.70766665747205 C 18.248 57.24366665747205, 18.373333333333335 56.891666657472044, 18.616000000000003 56.65166665747205 C 18.858666666666668 56.411666657472054, 19.192 56.27299999080539, 19.616000000000003 56.23566665747205 L 19.616000000000003 57.12766665747205 C 19.520000000000003 57.15166665747205, 19.446666666666665 57.195666657472046, 19.396 57.25966665747205 C 19.345333333333336 57.323666657472046, 19.32 57.408999990805384, 19.32 57.51566665747205 C 19.312 58.00366665747205, 19.30666666666667 58.47033332413872, 19.304000000000002 58.91566665747205 C 19.301333333333336 59.36099999080538, 19.3 59.79433332413872, 19.3 60.21566665747205 C 19.3 60.636999990805386, 19.304000000000002 61.051666657472055, 19.312 61.45966665747205 C 19.312 61.56899999080538, 19.339333333333336 61.658333324138724, 19.394000000000002 61.72766665747205 C 19.448666666666668 61.79699999080539, 19.525333333333336 61.84633332413872, 19.624000000000002 61.87566665747205 L 19.624000000000002 62.76766665747205 C 19.136000000000003 62.73566665747205, 18.785333333333337 62.60366665747205, 18.572000000000003 62.37166665747205 C 18.358666666666668 62.13966665747205, 18.248 61.776999990805386, 18.240000000000002 61.283666657472054 Z M 19.788 59.60366665747205 L 19.788 58.85966665747205 C 19.87066666666667 58.811666657472045, 19.963333333333335 58.77433332413872, 20.066000000000003 58.74766665747205 C 20.16866666666667 58.72099999080538, 20.27733333333334 58.707666657472046, 20.392000000000003 58.70766665747205 C 20.816000000000003 58.707666657472046, 21.110000000000003 58.80699999080538, 21.274 59.00566665747205 C 21.438000000000002 59.204333324138716, 21.524000000000004 59.53566665747205, 21.532000000000004 59.99966665747205 C 21.537333333333336 60.183666657472045, 21.540666666666667 60.33899999080538, 21.542 60.46566665747205 C 21.543333333333337 60.59233332413872, 21.543333333333337 60.71699999080539, 21.542 60.83966665747205 C 21.540666666666667 60.96233332413871, 21.536 61.110333324138715, 21.528000000000002 61.283666657472054 C 21.504 61.774333324138716, 21.384 62.13699999080538, 21.168000000000003 62.37166665747205 C 20.952 62.60633332413872, 20.604000000000003 62.73833332413872, 20.124000000000002 62.76766665747205 L 20.124000000000002 61.88366665747205 C 20.228 61.85433332413872, 20.307333333333336 61.80633332413872, 20.362000000000002 61.73966665747205 C 20.416666666666668 61.67299999080538, 20.445333333333334 61.58633332413872, 20.448 61.47966665747205 C 20.453333333333337 61.32499999080538, 20.457333333333338 61.186333324138715, 20.46 61.06366665747205 C 20.46266666666667 60.94099999080538, 20.465333333333337 60.823666657472046, 20.468000000000004 60.71166665747205 C 20.47066666666667 60.599666657472056, 20.471333333333334 60.48833332413872, 20.470000000000002 60.37766665747205 C 20.46866666666667 60.26699999080539, 20.465333333333334 60.15033332413872, 20.46 60.027666657472054 C 20.457333333333338 59.878333324138715, 20.40533333333334 59.76766665747205, 20.304000000000002 59.69566665747205 C 20.202666666666666 59.62366665747205, 20.070666666666668 59.58766665747205, 19.908 59.58766665747205 C 19.889333333333337 59.58766665747205, 19.870000000000005 59.588333324138716, 19.85 59.58966665747205 C 19.83 59.590999990805386, 19.809333333333335 59.59566665747205, 19.788 59.60366665747205 Z M 20.416 58.283666657472054 C 20.424 58.19033332413872, 20.42866666666667 58.10833332413872, 20.43 58.03766665747205 C 20.431333333333335 57.966999990805384, 20.430666666666667 57.89166665747205, 20.428 57.81166665747205 C 20.425333333333334 57.73166665747205, 20.421333333333337 57.63299999080538, 20.416 57.51566665747205 C 20.410666666666668 57.41699999080539, 20.384 57.33366665747205, 20.336000000000002 57.26566665747205 C 20.288000000000004 57.197666657472055, 20.21466666666667 57.15166665747205, 20.116000000000003 57.12766665747205 L 20.116000000000003 56.23966665747205 C 20.553333333333335 56.27966665747205, 20.887333333333334 56.424333324138715, 21.118000000000002 56.673666657472054 C 21.34866666666667 56.92299999080538, 21.472 57.250333324138715, 21.488000000000003 57.655666657472054 C 21.49066666666667 57.72233332413872, 21.49266666666667 57.78566665747205, 21.494 57.84566665747205 C 21.495333333333335 57.90566665747205, 21.495333333333335 57.96966665747205, 21.494 58.03766665747205 C 21.49266666666667 58.10566665747205, 21.49066666666667 58.18766665747205, 21.488000000000003 58.283666657472054 Z M 23.944000000000003 62.69966665747205 L 23.944000000000003 56.29966665747205 L 25.004000000000005 56.29966665747205 L 25.004000000000005 62.69966665747205 Z " stroke="none" fill-rule="nonzero" fill="#000000" fill-opacity="1" transform="matrix(1,0,0,1,5.05,13.314)" id="text6 l" />
  <path d="M 0 47.62474999310403 L 10 47.62474999310403 L 10 49.12474999310403 L 0 49.12474999310403 Z " stroke="none" fill-rule="evenodd" fill="#000000" fill-opacity="1" transform="matrix(1,0,0,1,5.05,13.314)" id="mark7 l" />
  <path d="M 0 31.49983332873603 L 27 31.49983332873603 L 27 32.99983332873603 L 0 32.99983332873603 Z " stroke="none" fill-rule="evenodd" fill="#000000" fill-opacity="1" transform="matrix(1,0,0,1,5.05,13.314)" id="mark8 l" />
  <path d="M 18.220000000000002 29.03383332873603 C 18.217333333333336 28.9484999954027, 18.215333333333334 28.87183332873603, 18.214000000000002 28.80383332873603 C 18.212666666666667 28.735833328736028, 18.213333333333335 28.664499995402693, 18.216 28.58983332873603 C 18.218666666666667 28.515166662069362, 18.224 28.421833328736028, 18.232 28.30983332873603 C 18.258666666666667 28.029833328736032, 18.326666666666668 27.8084999954027, 18.436 27.645833328736032 C 18.545333333333332 27.483166662069365, 18.709333333333333 27.3564999954027, 18.928 27.26583332873603 L 18.928 27.10983332873603 C 18.773333333333333 27.056499995402696, 18.639333333333333 26.967166662069364, 18.526 26.84183332873603 C 18.412666666666667 26.716499995402696, 18.33866666666667 26.55783332873603, 18.304000000000002 26.36583332873603 C 18.29066666666667 26.272499995402697, 18.279333333333334 26.172499995402696, 18.27 26.06583332873603 C 18.260666666666665 25.959166662069364, 18.25466666666667 25.85383332873603, 18.252000000000002 25.74983332873603 C 18.249333333333336 25.645833328736032, 18.249333333333336 25.551166662069367, 18.252000000000002 25.465833328736032 C 18.27866666666667 24.9804999954027, 18.393333333333334 24.620499995402696, 18.596 24.38583332873603 C 18.79866666666667 24.151166662069365, 19.136000000000003 24.016499995402697, 19.608 23.98183332873603 L 19.608 24.87383332873603 C 19.504 24.90583332873603, 19.42666666666667 24.959166662069364, 19.376 25.03383332873603 C 19.325333333333333 25.108499995402696, 19.3 25.20583332873603, 19.3 25.32583332873603 C 19.297333333333334 25.40583332873603, 19.296 25.48183332873603, 19.296 25.55383332873603 C 19.296 25.62583332873603, 19.296 25.696499995402696, 19.296 25.76583332873603 C 19.296 25.835166662069362, 19.296 25.90583332873603, 19.296 25.977833328736033 C 19.296 26.049833328736028, 19.297333333333334 26.124499995402694, 19.3 26.20183332873603 C 19.3 26.321833328736027, 19.325333333333333 26.419833328736026, 19.376 26.49583332873603 C 19.42666666666667 26.571833328736027, 19.504 26.62583332873603, 19.608 26.657833328736032 L 19.608 27.73383332873603 C 19.501333333333335 27.76583332873603, 19.423333333333336 27.8204999954027, 19.374000000000002 27.89783332873603 C 19.32466666666667 27.975166662069363, 19.3 28.07383332873603, 19.3 28.19383332873603 C 19.297333333333334 28.359166662069363, 19.296 28.522499995402697, 19.296 28.68383332873603 C 19.296 28.84516666206936, 19.296 29.007166662069363, 19.296 29.16983332873603 C 19.298666666666666 29.287166662069364, 19.32466666666667 29.3844999954027, 19.374000000000002 29.46183332873603 C 19.423333333333336 29.539166662069363, 19.501333333333335 29.593833328736032, 19.608 29.62583332873603 L 19.608 30.51783332873603 C 19.122666666666667 30.483166662069365, 18.77466666666667 30.345833328736028, 18.564 30.10583332873603 C 18.353333333333335 29.86583332873603, 18.238666666666667 29.508499995402694, 18.220000000000002 29.03383332873603 Z M 20.108 30.51783332873603 L 20.108 29.62583332873603 C 20.214666666666666 29.593833328736032, 20.292666666666666 29.53983332873603, 20.342 29.46383332873603 C 20.391333333333332 29.38783332873603, 20.416 29.291166662069365, 20.416 29.17383332873603 C 20.418666666666667 29.059166662069366, 20.42 28.9484999954027, 20.42 28.84183332873603 C 20.42 28.73516666206936, 20.42 28.6284999954027, 20.42 28.52183332873603 C 20.42 28.41516666206936, 20.418666666666667 28.30583332873603, 20.416 28.19383332873603 C 20.413333333333334 27.95116666206936, 20.310666666666666 27.797833328736026, 20.108 27.73383332873603 L 20.108 26.657833328736032 C 20.313333333333333 26.596499995402695, 20.416 26.443166662069363, 20.416 26.19783332873603 C 20.416 26.05383332873603, 20.416666666666668 25.90783332873603, 20.418 25.75983332873603 C 20.419333333333334 25.61183332873603, 20.418666666666667 25.467166662069364, 20.416 25.32583332873603 C 20.416 25.208499995402697, 20.391333333333332 25.111833328736033, 20.342 25.035833328736032 C 20.292666666666666 24.959833328736032, 20.214666666666666 24.90583332873603, 20.108 24.87383332873603 L 20.108 23.98183332873603 C 20.566666666666666 24.016499995402697, 20.900666666666666 24.14983332873603, 21.11 24.38183332873603 C 21.319333333333333 24.613833328736032, 21.436 24.975166662069366, 21.46 25.465833328736032 C 21.465333333333334 25.548499995402697, 21.46666666666667 25.644499995402697, 21.464000000000002 25.75383332873603 C 21.461333333333336 25.86316666206936, 21.455333333333336 25.971833328736032, 21.446 26.07983332873603 C 21.436666666666667 26.187833328736026, 21.425333333333334 26.281833328736028, 21.412 26.36183332873603 C 21.377333333333333 26.556499995402696, 21.303333333333335 26.716499995402696, 21.19 26.84183332873603 C 21.076666666666668 26.967166662069364, 20.941333333333333 27.056499995402696, 20.784 27.10983332873603 L 20.784 27.273833328736032 C 20.983999999999998 27.364499995402696, 21.141333333333332 27.491166662069364, 21.256 27.65383332873603 C 21.37066666666667 27.816499995402697, 21.445333333333334 28.031166662069364, 21.48 28.29783332873603 C 21.496000000000002 28.452499995402697, 21.504 28.586499995402697, 21.504 28.69983332873603 C 21.504 28.813166662069364, 21.501333333333335 28.924499995402698, 21.496000000000002 29.03383332873603 C 21.469333333333335 29.5244999954027, 21.35066666666667 29.8864999954027, 21.14 30.119833328736032 C 20.929333333333332 30.353166662069363, 20.585333333333335 30.485833328736028, 20.108 30.51783332873603 Z M 23.944000000000003 30.44983332873603 L 23.944000000000003 24.049833328736028 L 25.004000000000005 24.049833328736028 L 25.004000000000005 30.44983332873603 Z " stroke="none" fill-rule="nonzero" fill="#000000" fill-opacity="1" transform="matrix(1,0,0,1,5.05,13.314)" id="text8 l" />
  <path d="M 0 15.374916664368016 L 10 15.374916664368016 L 10 16.874916664368016 L 0 16.874916664368016 Z " stroke="none" fill-rule="evenodd" fill="#000000" fill-opacity="1" transform="matrix(1,0,0,1,5.05,13.314)" id="mark9 l" />
  <path d="M 0 -0.75 L 27 -0.75 L 27 0.75 L 0 0.75 Z " stroke="none" fill-rule="evenodd" fill="#000000" fill-opacity="1" transform="matrix(1,0,0,1,5.05,13.314)" id="mark10 l" />
  <path d="M 16.323999999999998 -1.7999999999999998 L 16.323999999999998 -7.244 L 15.871999999999998 -7.244 L 15.839999999999998 -7.624 L 16.544 -8.2 L 17.424 -8.2 L 17.424 -1.7999999999999998 Z M 18.196 -3.2119999999999997 C 18.188000000000002 -3.641333333333333, 18.182666666666666 -4.058, 18.18 -4.462 C 18.177333333333333 -4.866, 18.177999999999997 -5.261333333333333, 18.182 -5.648 C 18.186 -6.034666666666666, 18.190666666666665 -6.416, 18.196 -6.792 C 18.209333333333333 -7.231999999999999, 18.334 -7.577333333333334, 18.57 -7.828 C 18.806 -8.078666666666667, 19.142666666666667 -8.224, 19.58 -8.264 L 19.58 -7.3759999999999994 C 19.382666666666665 -7.32, 19.281333333333333 -7.190666666666667, 19.276 -6.9879999999999995 C 19.262666666666668 -6.617333333333333, 19.253333333333334 -6.269333333333333, 19.248 -5.944 C 19.242666666666665 -5.618666666666666, 19.24 -5.302, 19.24 -4.994 C 19.24 -4.686, 19.242666666666665 -4.371333333333333, 19.248 -4.05 C 19.253333333333334 -3.7286666666666664, 19.262666666666668 -3.3853333333333326, 19.276 -3.0199999999999996 C 19.281333333333333 -2.812, 19.382666666666665 -2.6799999999999997, 19.58 -2.6239999999999997 L 19.58 -1.7359999999999998 C 19.142666666666667 -1.7759999999999998, 18.806 -1.9219999999999997, 18.57 -2.174 C 18.334 -2.4259999999999997, 18.209333333333333 -2.772, 18.196 -3.2119999999999997 Z M 20.084 -1.7359999999999998 L 20.084 -2.6279999999999997 C 20.268 -2.681333333333333, 20.366666666666667 -2.8053333333333335, 20.38 -3 C 20.398666666666667 -3.4666666666666663, 20.410666666666668 -3.915333333333333, 20.416 -4.346 C 20.421333333333333 -4.776666666666666, 20.421333333333333 -5.207333333333333, 20.416 -5.638 C 20.410666666666668 -6.068666666666666, 20.398666666666667 -6.521333333333333, 20.38 -6.9959999999999996 C 20.374666666666666 -7.190666666666667, 20.276 -7.317333333333334, 20.084 -7.3759999999999994 L 20.084 -8.264 C 20.513333333333335 -8.224, 20.846666666666668 -8.078666666666667, 21.084 -7.828 C 21.321333333333335 -7.577333333333334, 21.445333333333334 -7.231999999999999, 21.456 -6.792 C 21.46666666666667 -6.477333333333332, 21.474666666666668 -6.167333333333333, 21.48 -5.861999999999999 C 21.485333333333333 -5.556666666666667, 21.488 -5.256, 21.488 -4.96 C 21.488 -4.664, 21.485333333333333 -4.370666666666667, 21.48 -4.08 C 21.474666666666668 -3.7893333333333334, 21.46666666666667 -3.5, 21.456 -3.2119999999999997 C 21.439999999999998 -2.761333333333333, 21.311999999999998 -2.4126666666666665, 21.072 -2.166 C 20.832 -1.9193333333333331, 20.502666666666666 -1.7759999999999998, 20.084 -1.7359999999999998 Z M 23.944 -1.7999999999999998 L 23.944 -8.2 L 25.003999999999998 -8.2 L 25.003999999999998 -1.7999999999999998 Z " stroke="none" fill-rule="nonzero" fill="#000000" fill-opacity="1" transform="matrix(1,0,0,1,5.05,13.314)" id="text10 l" />
  <path d="M -5 -13.264 L 32 -13.264 L 32 151.92424997931212 L -5 151.92424997931212 Z " stroke="#FF0000" stroke-opacity="1" stroke-width="0.1" stroke-linecap="butt" stroke-linejoin="miter" fill="none" transform="matrix(1,0,0,1,5.05,13.314)" />
</svg>