<?xml version="1.0" encoding="utf-8"?>
<svg xmlns="http://www.w3.org/2000/svg" xmlns:xlink="http://www.w3.org/1999/xlink" version="1.1" width="35mm" height="474.27487mm" viewBox="0 0 35 474.27487">
  <defs />
  <style>svg { background: #ffffff; }</style>
  <rect id="cutLine" fill="none" stroke="red" stroke-width="0.05" width="35" height="474.27487" />
  <g id="scale" transform="translate(5, 5)">
    <rect id="mark_1" fill="Black" x="0" y="462.77487" width="10" height="1.5" />
    <rect id="mark_2" fill="Black" x="0" y="453.47437" width="10" height="1.5" />
    <rect id="mark_3" fill="Black" x="0" y="444.17386" width="10" height="1.5" />
    <rect id="mark_4" fill="Black" x="0" y="434.87335" width="10" height="1.5" />
    <rect id="mark_5" fill="Black" x="0" y="425.57285" width="25" height="1.5" />
    <path fill="Black" d="M 0.107421875 0 L 0.107421875 3.6484375 L 1.1757812 3.6484375 L 1.1757812 0 L 0.107421875 0 Z M 1.6796875 0 L 1.6796875 0.9316406 L 3.2675781 0.9316406 L 3.2675781 0 L 1.6796875 0 Z M 1.6796875 2.46875 L 1.6796875 3.2246094 Q 1.6914062 3.2207031, 1.7070312 3.2167969 Q 1.7246094 3.2128906, 1.7402344 3.2128906 Q 2.0078125 3.2128906, 2.1367188 3.3261719 Q 2.2675781 3.4394531, 2.2910156 3.671875 Q 2.3242188 3.9882812, 2.3183594 4.3359375 Q 2.3125 4.6835938, 2.2753906 5.1210938 Q 2.2636719 5.3046875, 2.1796875 5.419922 Q 2.0957031 5.533203, 1.9316406 5.576172 L 1.9316406 6.46875 Q 2.6484375 6.423828, 2.9667969 6.076172 Q 3.2871094 5.7285156, 3.3554688 4.9804688 Q 3.3710938 4.7851562, 3.3789062 4.560547 Q 3.3886719 4.3359375, 3.3828125 4.1015625 Q 3.3789062 3.8652344, 3.3632812 3.625 Q 3.3320312 3.0292969, 3.0566406 2.6835938 Q 2.7832031 2.3359375, 2.2363281 2.3359375 Q 2.0761719 2.3359375, 1.9355469 2.3730469 Q 1.7949219 2.4082031, 1.6796875 2.46875 Z M 0.00390625 4.5664062 Q 0 4.7246094, 0.0078125 4.984375 Q 0.02734375 5.716797, 0.359375 6.064453 Q 0.69140625 6.4121094, 1.4316406 6.46875 L 1.4316406 5.576172 Q 1.2714844 5.529297, 1.1835938 5.4160156 Q 1.0957031 5.3007812, 1.0800781 5.1210938 Q 1.0722656 5.0410156, 1.0703125 4.8808594 Q 1.0683594 4.720703, 1.0742188 4.548828 Q 1.0800781 4.376953, 1.0917969 4.2597656 L 0.01171875 4.2597656 Q 0.0078125 4.408203, 0.00390625 4.5664062 Z M 6.0683594 6.4003906 L 6.0683594 0 L 7.126953 0 L 7.126953 6.4003906 L 6.0683594 6.4003906 Z" transform="translate(15.873047, 418.52286)" />
    <rect id="mark_6" fill="Black" x="0" y="416.27234" width="10" height="1.5" />
    <rect id="mark_7" fill="Black" x="0" y="406.97183" width="10" height="1.5" />
    <rect id="mark_8" fill="Black" x="0" y="397.67133" width="10" height="1.5" />
    <rect id="mark_9" fill="Black" x="0" y="388.37082" width="10" height="1.5" />
    <rect id="mark_10" fill="Black" x="0" y="379.0703" width="25" height="1.5" />
    <path fill="Black" d="M 0.484375 1.0214844 L 0.484375 6.4648438 L 1.5839844 6.4648438 L 1.5839844 0.064453125 L 0.7050781 0.064453125 L 0 0.640625 L 0.033203125 1.0214844 L 0.484375 1.0214844 Z M 2.140625 3.8027344 Q 2.1445312 4.408203, 2.15625 5.0527344 Q 2.1777344 5.7128906, 2.53125 6.091797 Q 2.8847656 6.46875, 3.5410156 6.529297 L 3.5410156 5.640625 Q 3.2441406 5.5566406, 3.2363281 5.2441406 Q 3.2167969 4.6972656, 3.2089844 4.2148438 Q 3.2011719 3.7324219, 3.2011719 3.2714844 Q 3.2011719 2.8085938, 3.2089844 2.3203125 Q 3.2167969 1.8320312, 3.2363281 1.2773438 Q 3.2441406 0.97265625, 3.5410156 0.8886719 L 3.5410156 0 Q 2.8847656 0.060546875, 2.53125 0.4375 Q 2.1777344 0.8125, 2.15625 1.4726562 Q 2.1484375 2.0371094, 2.1425781 2.6171875 Q 2.1367188 3.1972656, 2.140625 3.8027344 Z M 4.044922 5.6367188 L 4.044922 6.529297 Q 4.671875 6.46875, 5.03125 6.0996094 Q 5.392578 5.7285156, 5.4160156 5.0527344 Q 5.4335938 4.6210938, 5.4414062 4.185547 Q 5.4492188 3.7480469, 5.4492188 3.3046875 Q 5.4492188 2.8613281, 5.4414062 2.4042969 Q 5.4335938 1.9453125, 5.4160156 1.4726562 Q 5.4003906 0.8125, 5.044922 0.4375 Q 4.689453 0.060546875, 4.044922 0 L 4.044922 0.8886719 Q 4.3320312 0.9765625, 4.3398438 1.2695312 Q 4.3691406 1.9804688, 4.376953 2.6269531 Q 4.3847656 3.2734375, 4.376953 3.9199219 Q 4.3691406 4.564453, 4.3398438 5.265625 Q 4.3203125 5.5566406, 4.044922 5.6367188 Z M 8.193359 6.4648438 L 8.193359 0.064453125 L 9.251953 0.064453125 L 9.251953 6.4648438 L 8.193359 6.4648438 Z" transform="translate(13.748047, 372.02032)" />
    <rect id="mark_11" fill="Black" x="0" y="369.7698" width="10" height="1.5" />
    <rect id="mark_12" fill="Black" x="0" y="360.4693" width="10" height="1.5" />
    <rect id="mark_13" fill="Black" x="0" y="351.1688" width="10" height="1.5" />
    <rect id="mark_14" fill="Black" x="0" y="341.8683" width="10" height="1.5" />
    <rect id="mark_15" fill="Black" x="0" y="332.56778" width="25" height="1.5" />
    <path fill="Black" d="M 0.484375 0.95703125 L 0.484375 6.4003906 L 1.5839844 6.4003906 L 1.5839844 0 L 0.7050781 0 L 0 0.5761719 L 0.033203125 0.95703125 L 0.484375 0.95703125 Z M 2.2324219 0 L 2.2324219 3.6484375 L 3.3007812 3.6484375 L 3.3007812 0 L 2.2324219 0 Z M 3.8046875 0 L 3.8046875 0.9316406 L 5.392578 0.9316406 L 5.392578 0 L 3.8046875 0 Z M 3.8046875 2.46875 L 3.8046875 3.2246094 Q 3.8164062 3.2207031, 3.8320312 3.2167969 Q 3.8496094 3.2128906, 3.8652344 3.2128906 Q 4.1328125 3.2128906, 4.2617188 3.3261719 Q 4.392578 3.4394531, 4.4160156 3.671875 Q 4.4492188 3.9882812, 4.4433594 4.3359375 Q 4.4375 4.6835938, 4.4003906 5.1210938 Q 4.388672 5.3046875, 4.3046875 5.419922 Q 4.220703 5.533203, 4.0566406 5.576172 L 4.0566406 6.46875 Q 4.7734375 6.423828, 5.091797 6.076172 Q 5.4121094 5.7285156, 5.4804688 4.9804688 Q 5.4960938 4.7851562, 5.5039062 4.560547 Q 5.513672 4.3359375, 5.5078125 4.1015625 Q 5.5039062 3.8652344, 5.4882812 3.625 Q 5.4570312 3.0292969, 5.1816406 2.6835938 Q 4.908203 2.3359375, 4.361328 2.3359375 Q 4.201172 2.3359375, 4.060547 2.3730469 Q 3.9199219 2.4082031, 3.8046875 2.46875 Z M 2.1289062 4.5664062 Q 2.125 4.7246094, 2.1328125 4.984375 Q 2.1523438 5.716797, 2.484375 6.064453 Q 2.8164062 6.4121094, 3.5566406 6.46875 L 3.5566406 5.576172 Q 3.3964844 5.529297, 3.3085938 5.4160156 Q 3.2207031 5.3007812, 3.2050781 5.1210938 Q 3.1972656 5.0410156, 3.1953125 4.8808594 Q 3.1933594 4.720703, 3.1992188 4.548828 Q 3.2050781 4.376953, 3.2167969 4.2597656 L 2.1367188 4.2597656 Q 2.1328125 4.408203, 2.1289062 4.5664062 Z M 8.193359 6.4003906 L 8.193359 0 L 9.251953 0 L 9.251953 6.4003906 L 8.193359 6.4003906 Z" transform="translate(13.748047, 325.5178)" />
    <rect id="mark_16" fill="Black" x="0" y="323.26727" width="10" height="1.5" />
    <rect id="mark_17" fill="Black" x="0" y="313.96677" width="10" height="1.5" />
    <rect id="mark_18" fill="Black" x="0" y="304.66623" width="10" height="1.5" />
    <rect id="mark_19" fill="Black" x="0" y="295.36572" width="10" height="1.5" />
    <rect id="mark_20" fill="Black" x="0" y="286.06522" width="25" height="1.5" />
    <path fill="Black" d="M 0.005859375 6.203125 Q 0.0078125 6.3203125, 0.01171875 6.46875 L 1.0917969 6.46875 L 1.0917969 5.1757812 Q 1.0917969 5.0214844, 1.1328125 4.841797 Q 1.1757812 4.6601562, 1.2734375 4.5 Q 1.3710938 4.3398438, 1.5429688 4.248047 L 2.1464844 3.9199219 Q 2.4707031 3.7402344, 2.7167969 3.5136719 Q 2.9628906 3.2851562, 3.1074219 2.9726562 Q 3.2519531 2.6601562, 3.2675781 2.2324219 Q 3.2714844 2.1445312, 3.2734375 2.0527344 Q 3.2753906 1.9609375, 3.2753906 1.8671875 Q 3.2753906 1.7734375, 3.2734375 1.6738281 Q 3.2714844 1.5722656, 3.2675781 1.4765625 Q 3.234375 0.7402344, 2.9160156 0.39453125 Q 2.5996094 0.048828125, 1.8671875 0 L 1.8671875 0.8886719 Q 2.0234375 0.93359375, 2.1054688 1.0351562 Q 2.1875 1.1367188, 2.1953125 1.2929688 Q 2.2070312 1.5136719, 2.2050781 1.7636719 Q 2.203125 2.0136719, 2.1875 2.2324219 Q 2.1757812 2.4199219, 2.0976562 2.6347656 Q 2.0195312 2.8496094, 1.7382812 3 L 1.2070312 3.2890625 Q 0.8183594 3.5, 0.5546875 3.7734375 Q 0.29101562 4.044922, 0.15234375 4.390625 Q 0.015625 4.736328, 0.00390625 5.1757812 Q 0 5.3691406, 0 5.5117188 L 0 5.765625 Q 0 5.876953, 0.001953125 5.9804688 Q 0.00390625 6.0839844, 0.005859375 6.203125 Z M 0.0078125 2.0839844 Q 0.01171875 2.2519531, 0.01953125 2.4296875 L 1.0839844 2.4296875 Q 1.0664062 2.1132812, 1.0683594 1.8457031 Q 1.0703125 1.5761719, 1.0800781 1.265625 Q 1.0839844 1.1289062, 1.1503906 1.0332031 Q 1.21875 0.9375, 1.3632812 0.8925781 L 1.3632812 0 Q 0.67578125 0.052734375, 0.35351562 0.3984375 Q 0.03125 0.7441406, 0.00390625 1.4765625 Q 0 1.6171875, 0.001953125 1.7675781 Q 0.00390625 1.9160156, 0.0078125 2.0839844 Z M 1.5957031 5.5371094 L 1.5957031 6.46875 L 3.1914062 6.46875 L 3.1914062 5.5371094 L 1.5957031 5.5371094 Z M 4.0390625 3.8066406 Q 4.0429688 4.4121094, 4.0546875 5.0566406 Q 4.076172 5.716797, 4.4296875 6.095703 Q 4.783203 6.4726562, 5.439453 6.533203 L 5.439453 5.6445312 Q 5.142578 5.560547, 5.1347656 5.248047 Q 5.1152344 4.701172, 5.107422 4.21875 Q 5.0996094 3.7363281, 5.0996094 3.2753906 Q 5.0996094 2.8125, 5.107422 2.3242188 Q 5.1152344 1.8359375, 5.1347656 1.28125 Q 5.142578 0.9765625, 5.439453 0.8925781 L 5.439453 0.00390625 Q 4.783203 0.064453125, 4.4296875 0.44140625 Q 4.076172 0.81640625, 4.0546875 1.4765625 Q 4.046875 2.0410156, 4.0410156 2.6210938 Q 4.0351562 3.2011719, 4.0390625 3.8066406 Z M 5.9433594 5.640625 L 5.9433594 6.533203 Q 6.5703125 6.4726562, 6.9296875 6.1035156 Q 7.2910156 5.732422, 7.314453 5.0566406 Q 7.3320312 4.625, 7.3398438 4.189453 Q 7.3476562 3.7519531, 7.3476562 3.3085938 Q 7.3476562 2.8652344, 7.3398438 2.4082031 Q 7.3320312 1.9492188, 7.314453 1.4765625 Q 7.298828 0.81640625, 6.9433594 0.44140625 Q 6.5878906 0.064453125, 5.9433594 0.00390625 L 5.9433594 0.8925781 Q 6.2304688 0.98046875, 6.2382812 1.2734375 Q 6.267578 1.984375, 6.2753906 2.6308594 Q 6.283203 3.2773438, 6.2753906 3.9238281 Q 6.267578 4.5683594, 6.2382812 5.2695312 Q 6.21875 5.560547, 5.9433594 5.640625 Z M 10.091797 6.46875 L 10.091797 0.068359375 L 11.150391 0.068359375 L 11.150391 6.46875 L 10.091797 6.46875 Z" transform="translate(11.849609, 279.01523)" />
    <rect id="mark_21" fill="Black" x="0" y="276.7647" width="10" height="1.5" />
    <rect id="mark_22" fill="Black" x="0" y="267.4642" width="10" height="1.5" />
    <rect id="mark_23" fill="Black" x="0" y="258.1637" width="10" height="1.5" />
    <rect id="mark_24" fill="Black" x="0" y="248.8632" width="10" height="1.5" />
    <rect id="mark_25" fill="Black" x="0" y="239.5627" width="25" height="1.5" />
    <path fill="Black" d="M 0.005859375 6.203125 Q 0.0078125 6.3203125, 0.01171875 6.46875 L 1.0917969 6.46875 L 1.0917969 5.1757812 Q 1.0917969 5.0214844, 1.1328125 4.841797 Q 1.1757812 4.6601562, 1.2734375 4.5 Q 1.3710938 4.3398438, 1.5429688 4.248047 L 2.1464844 3.9199219 Q 2.4707031 3.7402344, 2.7167969 3.5136719 Q 2.9628906 3.2851562, 3.1074219 2.9726562 Q 3.2519531 2.6601562, 3.2675781 2.2324219 Q 3.2714844 2.1445312, 3.2734375 2.0527344 Q 3.2753906 1.9609375, 3.2753906 1.8671875 Q 3.2753906 1.7734375, 3.2734375 1.6738281 Q 3.2714844 1.5722656, 3.2675781 1.4765625 Q 3.234375 0.7402344, 2.9160156 0.39453125 Q 2.5996094 0.048828125, 1.8671875 0 L 1.8671875 0.8886719 Q 2.0234375 0.93359375, 2.1054688 1.0351562 Q 2.1875 1.1367188, 2.1953125 1.2929688 Q 2.2070312 1.5136719, 2.2050781 1.7636719 Q 2.203125 2.0136719, 2.1875 2.2324219 Q 2.1757812 2.4199219, 2.0976562 2.6347656 Q 2.0195312 2.8496094, 1.7382812 3 L 1.2070312 3.2890625 Q 0.8183594 3.5, 0.5546875 3.7734375 Q 0.29101562 4.044922, 0.15234375 4.390625 Q 0.015625 4.736328, 0.00390625 5.1757812 Q 0 5.3691406, 0 5.5117188 L 0 5.765625 Q 0 5.876953, 0.001953125 5.9804688 Q 0.00390625 6.0839844, 0.005859375 6.203125 Z M 0.0078125 2.0839844 Q 0.01171875 2.2519531, 0.01953125 2.4296875 L 1.0839844 2.4296875 Q 1.0664062 2.1132812, 1.0683594 1.8457031 Q 1.0703125 1.5761719, 1.0800781 1.265625 Q 1.0839844 1.1289062, 1.1503906 1.0332031 Q 1.21875 0.9375, 1.3632812 0.8925781 L 1.3632812 0 Q 0.67578125 0.052734375, 0.35351562 0.3984375 Q 0.03125 0.7441406, 0.00390625 1.4765625 Q 0 1.6171875, 0.001953125 1.7675781 Q 0.00390625 1.9160156, 0.0078125 2.0839844 Z M 1.5957031 5.5371094 L 1.5957031 6.46875 L 3.1914062 6.46875 L 3.1914062 5.5371094 L 1.5957031 5.5371094 Z M 4.1308594 0.068359375 L 4.1308594 3.7167969 L 5.1992188 3.7167969 L 5.1992188 0.068359375 L 4.1308594 0.068359375 Z M 5.703125 0.068359375 L 5.703125 1 L 7.2910156 1 L 7.2910156 0.068359375 L 5.703125 0.068359375 Z M 5.703125 2.5371094 L 5.703125 3.2929688 Q 5.7148438 3.2890625, 5.7304688 3.2851562 Q 5.748047 3.28125, 5.763672 3.28125 Q 6.03125 3.28125, 6.1601562 3.3945312 Q 6.2910156 3.5078125, 6.314453 3.7402344 Q 6.3476562 4.0566406, 6.341797 4.404297 Q 6.3359375 4.751953, 6.298828 5.189453 Q 6.2871094 5.373047, 6.203125 5.4882812 Q 6.1191406 5.6015625, 5.955078 5.6445312 L 5.955078 6.5371094 Q 6.671875 6.4921875, 6.9902344 6.1445312 Q 7.310547 5.796875, 7.3789062 5.048828 Q 7.3945312 4.8535156, 7.4023438 4.6289062 Q 7.4121094 4.404297, 7.40625 4.169922 Q 7.4023438 3.9335938, 7.3867188 3.6933594 Q 7.3554688 3.0976562, 7.080078 2.7519531 Q 6.8066406 2.4042969, 6.2597656 2.4042969 Q 6.0996094 2.4042969, 5.9589844 2.4414062 Q 5.8183594 2.4765625, 5.703125 2.5371094 Z M 4.0273438 4.6347656 Q 4.0234375 4.7929688, 4.03125 5.0527344 Q 4.0507812 5.7851562, 4.3828125 6.1328125 Q 4.7148438 6.4804688, 5.455078 6.5371094 L 5.455078 5.6445312 Q 5.294922 5.5976562, 5.2070312 5.484375 Q 5.1191406 5.3691406, 5.1035156 5.189453 Q 5.095703 5.109375, 5.09375 4.9492188 Q 5.091797 4.7890625, 5.0976562 4.6171875 Q 5.1035156 4.4453125, 5.1152344 4.328125 L 4.0351562 4.328125 Q 4.03125 4.4765625, 4.0273438 4.6347656 Z M 10.091797 6.46875 L 10.091797 0.068359375 L 11.150391 0.068359375 L 11.150391 6.46875 L 10.091797 6.46875 Z" transform="translate(11.849609, 232.5127)" />
    <rect id="mark_26" fill="Black" x="0" y="230.26219" width="10" height="1.5" />
    <rect id="mark_27" fill="Black" x="0" y="220.96169" width="10" height="1.5" />
    <rect id="mark_28" fill="Black" x="0" y="211.66118" width="10" height="1.5" />
    <rect id="mark_29" fill="Black" x="0" y="202.36067" width="10" height="1.5" />
    <rect id="mark_30" fill="Black" x="0" y="193.06017" width="25" height="1.5" />
    <path fill="Black" d="M 0.076171875 0.064453125 L 0.076171875 0.99609375 L 3.3203125 0.99609375 L 3.3203125 0.064453125 L 0.076171875 0.064453125 Z M 2.2753906 5.1933594 Q 2.2636719 5.560547, 1.9277344 5.6445312 L 1.9316406 6.533203 Q 2.65625 6.4921875, 2.9902344 6.142578 Q 3.3242188 5.7929688, 3.3515625 5.048828 Q 3.359375 4.9414062, 3.3613281 4.8378906 Q 3.3632812 4.732422, 3.3632812 4.6289062 Q 3.3632812 4.5253906, 3.3613281 4.4179688 Q 3.359375 4.3085938, 3.3515625 4.201172 Q 3.3144531 3.4375, 3.0117188 3.0703125 Q 2.7109375 2.7011719, 2.0625 2.7011719 L 2.03125 2.7011719 L 3 1.3496094 L 1.8105469 1.3496094 L 0.8515625 2.7324219 L 0.87890625 3.625 L 1.6269531 3.6171875 Q 1.9960938 3.609375, 2.1269531 3.7734375 Q 2.2597656 3.9375, 2.2714844 4.171875 Q 2.2871094 4.4003906, 2.2851562 4.6445312 Q 2.2832031 4.888672, 2.2753906 5.1933594 Z M 0.001953125 4.796875 Q 0.00390625 4.8964844, 0.0078125 5.048828 Q 0.02734375 5.78125, 0.36132812 6.1289062 Q 0.6953125 6.4765625, 1.4277344 6.533203 L 1.4277344 5.640625 Q 1.0878906 5.544922, 1.0878906 5.189453 L 1.0878906 4.3242188 L 0.0078125 4.3242188 Q 0.00390625 4.4882812, 0.001953125 4.59375 Q 0 4.6972656, 0.001953125 4.796875 Z M 4.1152344 3.8027344 Q 4.1191406 4.408203, 4.1308594 5.0527344 Q 4.1523438 5.7128906, 4.5058594 6.091797 Q 4.859375 6.46875, 5.515625 6.529297 L 5.515625 5.640625 Q 5.21875 5.5566406, 5.2109375 5.2441406 Q 5.1914062 4.6972656, 5.1835938 4.2148438 Q 5.1757812 3.7324219, 5.1757812 3.2714844 Q 5.1757812 2.8085938, 5.1835938 2.3203125 Q 5.1914062 1.8320312, 5.2109375 1.2773438 Q 5.21875 0.97265625, 5.515625 0.8886719 L 5.515625 0 Q 4.859375 0.060546875, 4.5058594 0.4375 Q 4.1523438 0.8125, 4.1308594 1.4726562 Q 4.123047 2.0371094, 4.1171875 2.6171875 Q 4.111328 3.1972656, 4.1152344 3.8027344 Z M 6.0195312 5.6367188 L 6.0195312 6.529297 Q 6.6464844 6.46875, 7.0058594 6.0996094 Q 7.3671875 5.7285156, 7.390625 5.0527344 Q 7.408203 4.6210938, 7.4160156 4.185547 Q 7.423828 3.7480469, 7.423828 3.3046875 Q 7.423828 2.8613281, 7.4160156 2.4042969 Q 7.408203 1.9453125, 7.390625 1.4726562 Q 7.375 0.8125, 7.0195312 0.4375 Q 6.6640625 0.060546875, 6.0195312 0 L 6.0195312 0.8886719 Q 6.3066406 0.9765625, 6.314453 1.2695312 Q 6.34375 1.9804688, 6.3515625 2.6269531 Q 6.359375 3.2734375, 6.3515625 3.9199219 Q 6.34375 4.564453, 6.314453 5.265625 Q 6.294922 5.5566406, 6.0195312 5.6367188 Z M 10.167969 6.4648438 L 10.167969 0.064453125 L 11.2265625 0.064453125 L 11.2265625 6.4648438 L 10.167969 6.4648438 Z" transform="translate(11.7734375, 186.01016)" />
    <rect id="mark_31" fill="Black" x="0" y="183.75966" width="10" height="1.5" />
    <rect id="mark_32" fill="Black" x="0" y="174.45915" width="10" height="1.5" />
    <rect id="mark_33" fill="Black" x="0" y="165.15865" width="10" height="1.5" />
    <rect id="mark_34" fill="Black" x="0" y="155.85812" width="10" height="1.5" />
    <rect id="mark_35" fill="Black" x="0" y="146.55762" width="25" height="1.5" />
    <path fill="Black" d="M 0.076171875 0 L 0.076171875 0.9316406 L 3.3203125 0.9316406 L 3.3203125 0 L 0.076171875 0 Z M 2.2753906 5.1289062 Q 2.2636719 5.4960938, 1.9277344 5.580078 L 1.9316406 6.46875 Q 2.65625 6.4277344, 2.9902344 6.078125 Q 3.3242188 5.7285156, 3.3515625 4.984375 Q 3.359375 4.876953, 3.3613281 4.7734375 Q 3.3632812 4.6679688, 3.3632812 4.564453 Q 3.3632812 4.4609375, 3.3613281 4.3535156 Q 3.359375 4.2441406, 3.3515625 4.1367188 Q 3.3144531 3.3730469, 3.0117188 3.0058594 Q 2.7109375 2.6367188, 2.0625 2.6367188 L 2.03125 2.6367188 L 3 1.2851562 L 1.8105469 1.2851562 L 0.8515625 2.6679688 L 0.87890625 3.5605469 L 1.6269531 3.5527344 Q 1.9960938 3.5449219, 2.1269531 3.7089844 Q 2.2597656 3.8730469, 2.2714844 4.107422 Q 2.2871094 4.3359375, 2.2851562 4.580078 Q 2.2832031 4.8242188, 2.2753906 5.1289062 Z M 0.001953125 4.732422 Q 0.00390625 4.8320312, 0.0078125 4.984375 Q 0.02734375 5.716797, 0.36132812 6.064453 Q 0.6953125 6.4121094, 1.4277344 6.46875 L 1.4277344 5.576172 Q 1.0878906 5.4804688, 1.0878906 5.125 L 1.0878906 4.2597656 L 0.0078125 4.2597656 Q 0.00390625 4.423828, 0.001953125 4.529297 Q 0 4.6328125, 0.001953125 4.732422 Z M 4.2070312 0 L 4.2070312 3.6484375 L 5.2753906 3.6484375 L 5.2753906 0 L 4.2070312 0 Z M 5.779297 0 L 5.779297 0.9316406 L 7.3671875 0.9316406 L 7.3671875 0 L 5.779297 0 Z M 5.779297 2.46875 L 5.779297 3.2246094 Q 5.7910156 3.2207031, 5.8066406 3.2167969 Q 5.8242188 3.2128906, 5.8398438 3.2128906 Q 6.107422 3.2128906, 6.236328 3.3261719 Q 6.3671875 3.4394531, 6.390625 3.671875 Q 6.423828 3.9882812, 6.4179688 4.3359375 Q 6.4121094 4.6835938, 6.375 5.1210938 Q 6.3632812 5.3046875, 6.279297 5.419922 Q 6.1953125 5.533203, 6.03125 5.576172 L 6.03125 6.46875 Q 6.748047 6.423828, 7.0664062 6.076172 Q 7.3867188 5.7285156, 7.455078 4.9804688 Q 7.470703 4.7851562, 7.4785156 4.560547 Q 7.4882812 4.3359375, 7.482422 4.1015625 Q 7.4785156 3.8652344, 7.4628906 3.625 Q 7.4316406 3.0292969, 7.15625 2.6835938 Q 6.8828125 2.3359375, 6.3359375 2.3359375 Q 6.1757812 2.3359375, 6.0351562 2.3730469 Q 5.8945312 2.4082031, 5.779297 2.46875 Z M 4.1035156 4.5664062 Q 4.0996094 4.7246094, 4.107422 4.984375 Q 4.126953 5.716797, 4.4589844 6.064453 Q 4.7910156 6.4121094, 5.53125 6.46875 L 5.53125 5.576172 Q 5.3710938 5.529297, 5.283203 5.4160156 Q 5.1953125 5.3007812, 5.1796875 5.1210938 Q 5.171875 5.0410156, 5.169922 4.8808594 Q 5.1679688 4.720703, 5.173828 4.548828 Q 5.1796875 4.376953, 5.1914062 4.2597656 L 4.111328 4.2597656 Q 4.107422 4.408203, 4.1035156 4.5664062 Z M 10.167969 6.4003906 L 10.167969 0 L 11.2265625 0 L 11.2265625 6.4003906 L 10.167969 6.4003906 Z" transform="translate(11.7734375, 139.50761)" />
    <rect id="mark_36" fill="Black" x="0" y="137.25711" width="10" height="1.5" />
    <rect id="mark_37" fill="Black" x="0" y="127.956604" width="10" height="1.5" />
    <rect id="mark_38" fill="Black" x="0" y="118.6561" width="10" height="1.5" />
    <rect id="mark_39" fill="Black" x="0" y="109.35559" width="10" height="1.5" />
    <rect id="mark_40" fill="Black" x="0" y="100.055084" width="25" height="1.5" />
    <path fill="Black" d="M 1.9355469 0.064453125 L 1.9355469 6.4648438 L 2.9433594 6.4648438 L 2.9433594 0.064453125 L 1.9355469 0.064453125 Z M 0 3.9042969 L 0 4.78125 L 1.4316406 4.78125 L 1.4316406 3.8574219 L 1.03125 3.8574219 L 1.7558594 2.0253906 L 0.7167969 2.0253906 L 0 3.9042969 Z M 3.4472656 3.8574219 L 3.4472656 4.78125 L 3.9160156 4.78125 L 3.9160156 3.8574219 L 3.4472656 3.8574219 Z M 4.1679688 3.8027344 Q 4.171875 4.408203, 4.1835938 5.0527344 Q 4.205078 5.7128906, 4.5585938 6.091797 Q 4.9121094 6.46875, 5.5683594 6.529297 L 5.5683594 5.640625 Q 5.2714844 5.5566406, 5.263672 5.2441406 Q 5.2441406 4.6972656, 5.236328 4.2148438 Q 5.2285156 3.7324219, 5.2285156 3.2714844 Q 5.2285156 2.8085938, 5.236328 2.3203125 Q 5.2441406 1.8320312, 5.263672 1.2773438 Q 5.2714844 0.97265625, 5.5683594 0.8886719 L 5.5683594 0 Q 4.9121094 0.060546875, 4.5585938 0.4375 Q 4.205078 0.8125, 4.1835938 1.4726562 Q 4.1757812 2.0371094, 4.169922 2.6171875 Q 4.1640625 3.1972656, 4.1679688 3.8027344 Z M 6.0722656 5.6367188 L 6.0722656 6.529297 Q 6.6992188 6.46875, 7.0585938 6.0996094 Q 7.419922 5.7285156, 7.4433594 5.0527344 Q 7.4609375 4.6210938, 7.46875 4.185547 Q 7.4765625 3.7480469, 7.4765625 3.3046875 Q 7.4765625 2.8613281, 7.46875 2.4042969 Q 7.4609375 1.9453125, 7.4433594 1.4726562 Q 7.4277344 0.8125, 7.0722656 0.4375 Q 6.716797 0.060546875, 6.0722656 0 L 6.0722656 0.8886719 Q 6.359375 0.9765625, 6.3671875 1.2695312 Q 6.3964844 1.9804688, 6.404297 2.6269531 Q 6.4121094 3.2734375, 6.404297 3.9199219 Q 6.3964844 4.564453, 6.3671875 5.265625 Q 6.3476562 5.5566406, 6.0722656 5.6367188 Z M 10.220703 6.4648438 L 10.220703 0.064453125 L 11.279297 0.064453125 L 11.279297 6.4648438 L 10.220703 6.4648438 Z" transform="translate(11.720703, 93.00508)" />
    <rect id="mark_41" fill="Black" x="0" y="90.75458" width="10" height="1.5" />
    <rect id="mark_42" fill="Black" x="0" y="81.45406" width="10" height="1.5" />
    <rect id="mark_43" fill="Black" x="0" y="72.15356" width="10" height="1.5" />
    <rect id="mark_44" fill="Black" x="0" y="62.853046" width="10" height="1.5" />
    <rect id="mark_45" fill="Black" x="0" y="53.55254" width="25" height="1.5" />
    <path fill="Black" d="M 1.9355469 0 L 1.9355469 6.4003906 L 2.9433594 6.4003906 L 2.9433594 0 L 1.9355469 0 Z M 0 3.8398438 L 0 4.716797 L 1.4316406 4.716797 L 1.4316406 3.7929688 L 1.03125 3.7929688 L 1.7558594 1.9609375 L 0.7167969 1.9609375 L 0 3.8398438 Z M 3.4472656 3.7929688 L 3.4472656 4.716797 L 3.9160156 4.716797 L 3.9160156 3.7929688 L 3.4472656 3.7929688 Z M 4.2597656 0 L 4.2597656 3.6484375 L 5.328125 3.6484375 L 5.328125 0 L 4.2597656 0 Z M 5.8320312 0 L 5.8320312 0.9316406 L 7.419922 0.9316406 L 7.419922 0 L 5.8320312 0 Z M 5.8320312 2.46875 L 5.8320312 3.2246094 Q 5.84375 3.2207031, 5.859375 3.2167969 Q 5.876953 3.2128906, 5.892578 3.2128906 Q 6.1601562 3.2128906, 6.2890625 3.3261719 Q 6.419922 3.4394531, 6.4433594 3.671875 Q 6.4765625 3.9882812, 6.470703 4.3359375 Q 6.4648438 4.6835938, 6.4277344 5.1210938 Q 6.4160156 5.3046875, 6.3320312 5.419922 Q 6.248047 5.533203, 6.0839844 5.576172 L 6.0839844 6.46875 Q 6.8007812 6.423828, 7.1191406 6.076172 Q 7.439453 5.7285156, 7.5078125 4.9804688 Q 7.5234375 4.7851562, 7.53125 4.560547 Q 7.5410156 4.3359375, 7.5351562 4.1015625 Q 7.53125 3.8652344, 7.515625 3.625 Q 7.484375 3.0292969, 7.2089844 2.6835938 Q 6.935547 2.3359375, 6.388672 2.3359375 Q 6.2285156 2.3359375, 6.0878906 2.3730469 Q 5.9472656 2.4082031, 5.8320312 2.46875 Z M 4.15625 4.5664062 Q 4.1523438 4.7246094, 4.1601562 4.984375 Q 4.1796875 5.716797, 4.5117188 6.064453 Q 4.84375 6.4121094, 5.5839844 6.46875 L 5.5839844 5.576172 Q 5.423828 5.529297, 5.3359375 5.4160156 Q 5.248047 5.3007812, 5.232422 5.1210938 Q 5.2246094 5.0410156, 5.2226562 4.8808594 Q 5.220703 4.720703, 5.2265625 4.548828 Q 5.232422 4.376953, 5.2441406 4.2597656 L 4.1640625 4.2597656 Q 4.1601562 4.408203, 4.15625 4.5664062 Z M 10.220703 6.4003906 L 10.220703 0 L 11.279297 0 L 11.279297 6.4003906 L 10.220703 6.4003906 Z" transform="translate(11.720703, 46.50254)" />
    <rect id="mark_46" fill="Black" x="0" y="44.25203" width="10" height="1.5" />
    <rect id="mark_47" fill="Black" x="0" y="34.951523" width="10" height="1.5" />
    <rect id="mark_48" fill="Black" x="0" y="25.651016" width="10" height="1.5" />
    <rect id="mark_49" fill="Black" x="0" y="16.350508" width="10" height="1.5" />
    <rect id="mark_50" fill="Black" x="0" y="7.05" width="25" height="1.5" />
    <path fill="Black" d="M 0.107421875 0.064453125 L 0.107421875 3.7128906 L 1.1757812 3.7128906 L 1.1757812 0.064453125 L 0.107421875 0.064453125 Z M 1.6796875 0.064453125 L 1.6796875 0.99609375 L 3.2675781 0.99609375 L 3.2675781 0.064453125 L 1.6796875 0.064453125 Z M 1.6796875 2.5332031 L 1.6796875 3.2890625 Q 1.6914062 3.2851562, 1.7070312 3.28125 Q 1.7246094 3.2773438, 1.7402344 3.2773438 Q 2.0078125 3.2773438, 2.1367188 3.390625 Q 2.2675781 3.5039062, 2.2910156 3.7363281 Q 2.3242188 4.0527344, 2.3183594 4.4003906 Q 2.3125 4.748047, 2.2753906 5.185547 Q 2.2636719 5.3691406, 2.1796875 5.484375 Q 2.0957031 5.5976562, 1.9316406 5.640625 L 1.9316406 6.533203 Q 2.6484375 6.4882812, 2.9667969 6.140625 Q 3.2871094 5.7929688, 3.3554688 5.044922 Q 3.3710938 4.8496094, 3.3789062 4.625 Q 3.3886719 4.4003906, 3.3828125 4.1660156 Q 3.3789062 3.9296875, 3.3632812 3.6894531 Q 3.3320312 3.09375, 3.0566406 2.7480469 Q 2.7832031 2.4003906, 2.2363281 2.4003906 Q 2.0761719 2.4003906, 1.9355469 2.4375 Q 1.7949219 2.4726562, 1.6796875 2.5332031 Z M 0.00390625 4.6308594 Q 0 4.7890625, 0.0078125 5.048828 Q 0.02734375 5.78125, 0.359375 6.1289062 Q 0.69140625 6.4765625, 1.4316406 6.533203 L 1.4316406 5.640625 Q 1.2714844 5.59375, 1.1835938 5.4804688 Q 1.0957031 5.3652344, 1.0800781 5.185547 Q 1.0722656 5.1054688, 1.0703125 4.9453125 Q 1.0683594 4.7851562, 1.0742188 4.6132812 Q 1.0800781 4.4414062, 1.0917969 4.3242188 L 0.01171875 4.3242188 Q 0.0078125 4.4726562, 0.00390625 4.6308594 Z M 4.015625 3.8027344 Q 4.0195312 4.408203, 4.03125 5.0527344 Q 4.0527344 5.7128906, 4.40625 6.091797 Q 4.7597656 6.46875, 5.4160156 6.529297 L 5.4160156 5.640625 Q 5.1191406 5.5566406, 5.111328 5.2441406 Q 5.091797 4.6972656, 5.0839844 4.2148438 Q 5.076172 3.7324219, 5.076172 3.2714844 Q 5.076172 2.8085938, 5.0839844 2.3203125 Q 5.091797 1.8320312, 5.111328 1.2773438 Q 5.1191406 0.97265625, 5.4160156 0.8886719 L 5.4160156 0 Q 4.7597656 0.060546875, 4.40625 0.4375 Q 4.0527344 0.8125, 4.03125 1.4726562 Q 4.0234375 2.0371094, 4.017578 2.6171875 Q 4.0117188 3.1972656, 4.015625 3.8027344 Z M 5.919922 5.6367188 L 5.919922 6.529297 Q 6.546875 6.46875, 6.90625 6.0996094 Q 7.267578 5.7285156, 7.2910156 5.0527344 Q 7.3085938 4.6210938, 7.3164062 4.185547 Q 7.3242188 3.7480469, 7.3242188 3.3046875 Q 7.3242188 2.8613281, 7.3164062 2.4042969 Q 7.3085938 1.9453125, 7.2910156 1.4726562 Q 7.2753906 0.8125, 6.919922 0.4375 Q 6.564453 0.060546875, 5.919922 0 L 5.919922 0.8886719 Q 6.2070312 0.9765625, 6.2148438 1.2695312 Q 6.2441406 1.9804688, 6.251953 2.6269531 Q 6.2597656 3.2734375, 6.251953 3.9199219 Q 6.2441406 4.564453, 6.2148438 5.265625 Q 6.1953125 5.5566406, 5.919922 5.6367188 Z M 10.068359 6.4648438 L 10.068359 0.064453125 L 11.126953 0.064453125 L 11.126953 6.4648438 L 10.068359 6.4648438 Z" transform="translate(11.873047, 0)" />
  </g>
</svg>