<?xml version="1.0" encoding="UTF-8"?>
<svg xmlns:xlink="http://www.w3.org/1999/xlink" viewBox="0 0 35.1 463.005868585243" version="1.1" style="font-synthesis: none;" width="35.1mm" height="463.00586858524304mm" xmlns="http://www.w3.org/2000/svg">
  <defs />
  <style>	</style>
  <path d="M 0 0 L 35.1 0 L 35.1 463.005868585243 L 0 463.005868585243 Z " stroke="none" fill-rule="nonzero" fill="#FFFFFF" fill-opacity="1" transform="matrix(1,0,0,1,0,0)" />
  <path d="M 0 442.155868585243 L 10 442.155868585243 L 10 443.655868585243 L 0 443.655868585243 Z " stroke="none" fill-rule="evenodd" fill="#000000" fill-opacity="1" transform="matrix(1,0,0,1,5.05,13.314)" id="mark1 l" />
  <path d="M 0 433.9539080558867 L 10 433.9539080558867 L 10 435.4539080558867 L 0 435.4539080558867 Z " stroke="none" fill-rule="evenodd" fill="#000000" fill-opacity="1" transform="matrix(1,0,0,1,5.05,13.314)" id="mark2 l" />
  <path d="M 0 425.75194752653033 L 10 425.75194752653033 L 10 427.25194752653033 L 0 427.25194752653033 Z " stroke="none" fill-rule="evenodd" fill="#000000" fill-opacity="1" transform="matrix(1,0,0,1,5.05,13.314)" id="mark3 l" />
  <path d="M 0 417.54998699717396 L 10 417.54998699717396 L 10 419.04998699717396 L 0 419.04998699717396 Z " stroke="none" fill-rule="evenodd" fill="#000000" fill-opacity="1" transform="matrix(1,0,0,1,5.05,13.314)" id="mark4 l" />
  <path d="M 0 409.3480264678176 L 25 409.3480264678176 L 25 410.8480264678176 L 0 410.8480264678176 Z " stroke="none" fill-rule="evenodd" fill="#000000" fill-opacity="1" transform="matrix(1,0,0,1,5.05,13.314)" id="mark5 l" />
  <path d="M 16.18 406.8500264678176 C 16.174666666666667 406.67669313448425, 16.173333333333332 406.53735980115096, 16.176 406.4320264678176 C 16.178666666666665 406.32669313448423, 16.181333333333335 406.22469313448426, 16.183999999999997 406.1260264678176 L 17.264 406.1260264678176 C 17.256 406.2033598011509, 17.25 406.2993598011509, 17.246 406.4140264678176 C 17.241999999999997 406.52869313448423, 17.240666666666666 406.63935980115093, 17.241999999999997 406.7460264678176 C 17.243333333333332 406.85269313448424, 17.246666666666666 406.9326931344842, 17.252 406.9860264678176 C 17.262666666666668 407.1060264678176, 17.297333333333334 407.2040264678176, 17.355999999999998 407.2800264678176 C 17.414666666666665 407.35602646781757, 17.497333333333334 407.4100264678176, 17.604 407.4420264678176 L 17.604 408.3340264678176 C 17.110666666666663 408.29669313448426, 16.75333333333333 408.16202646781755, 16.532 407.9300264678176 C 16.310666666666666 407.6980264678176, 16.19333333333333 407.3380264678176, 16.18 406.8500264678176 Z M 16.279999999999998 405.5140264678176 L 16.279999999999998 401.8660264678176 L 17.348 401.8660264678176 L 17.348 405.5140264678176 Z M 17.852 405.0900264678176 L 17.852 404.3340264678176 C 17.929333333333332 404.2940264678176, 18.014666666666667 404.2620264678176, 18.107999999999997 404.2380264678176 C 18.20133333333333 404.2140264678176, 18.301333333333332 404.2020264678176, 18.407999999999998 404.2020264678176 C 18.773333333333333 404.2020264678176, 19.047333333333334 404.31735980115093, 19.23 404.5480264678176 C 19.412666666666667 404.77869313448423, 19.514666666666663 405.0926931344843, 19.535999999999998 405.4900264678176 C 19.546666666666667 405.6500264678176, 19.55333333333333 405.8086931344842, 19.555999999999997 405.9660264678176 C 19.558666666666664 406.12335980115085, 19.557333333333332 406.2766931344843, 19.552 406.4260264678176 C 19.546666666666667 406.57535980115097, 19.538666666666668 406.71535980115095, 19.528 406.8460264678176 C 19.482666666666667 407.34469313448426, 19.353333333333335 407.71002646781756, 19.14 407.9420264678176 C 18.926666666666666 408.1740264678176, 18.581333333333333 408.3046931344843, 18.104 408.3340264678176 L 18.104 407.4420264678176 C 18.21333333333333 407.41269313448424, 18.296 407.3600264678176, 18.352 407.28402646781757 C 18.408 407.2080264678176, 18.44 407.10869313448427, 18.448 406.9860264678176 C 18.471999999999998 406.69535980115097, 18.485999999999997 406.4340264678176, 18.49 406.2020264678176 C 18.494 405.97002646781755, 18.485333333333333 405.74869313448426, 18.464 405.5380264678176 C 18.447999999999997 405.38335980115096, 18.396666666666665 405.26802646781766, 18.31 405.1920264678176 C 18.223333333333333 405.1160264678176, 18.090666666666664 405.0780264678176, 17.912 405.0780264678176 C 17.901333333333334 405.0780264678176, 17.890666666666668 405.0793598011509, 17.88 405.08202646781757 C 17.86933333333333 405.08469313448427, 17.86 405.0873598011509, 17.852 405.0900264678176 Z M 17.852 402.7980264678176 L 17.852 401.8660264678176 L 19.439999999999998 401.8660264678176 L 19.439999999999998 402.7980264678176 Z M 21.944 408.2660264678176 L 21.944 401.8660264678176 L 23.003999999999998 401.8660264678176 L 23.003999999999998 408.2660264678176 Z " stroke="none" fill-rule="nonzero" fill="#000000" fill-opacity="1" transform="matrix(1,0,0,1,5.05,13.314)" id="text5 l" />
  <path d="M 0 401.1460659384613 L 10 401.1460659384613 L 10 402.6460659384613 L 0 402.6460659384613 Z " stroke="none" fill-rule="evenodd" fill="#000000" fill-opacity="1" transform="matrix(1,0,0,1,5.05,13.314)" id="mark6 l" />
  <path d="M 0 392.9441054091049 L 10 392.9441054091049 L 10 394.4441054091049 L 0 394.4441054091049 Z " stroke="none" fill-rule="evenodd" fill="#000000" fill-opacity="1" transform="matrix(1,0,0,1,5.05,13.314)" id="mark7 l" />
  <path d="M 0 384.7421448797486 L 10 384.7421448797486 L 10 386.2421448797486 L 0 386.2421448797486 Z " stroke="none" fill-rule="evenodd" fill="#000000" fill-opacity="1" transform="matrix(1,0,0,1,5.05,13.314)" id="mark8 l" />
  <path d="M 0 376.5401843503922 L 10 376.5401843503922 L 10 378.0401843503922 L 0 378.0401843503922 Z " stroke="none" fill-rule="evenodd" fill="#000000" fill-opacity="1" transform="matrix(1,0,0,1,5.05,13.314)" id="mark9 l" />
  <path d="M 0 368.33822382103585 L 25 368.33822382103585 L 25 369.83822382103585 L 0 369.83822382103585 Z " stroke="none" fill-rule="evenodd" fill="#000000" fill-opacity="1" transform="matrix(1,0,0,1,5.05,13.314)" id="mark10 l" />
  <path d="M 14.323999999999998 367.28822382103584 L 14.323999999999998 361.8442238210358 L 13.871999999999998 361.8442238210358 L 13.839999999999998 361.46422382103583 L 14.543999999999999 360.88822382103587 L 15.424 360.88822382103587 L 15.424 367.28822382103584 Z M 16.196 365.87622382103586 C 16.188000000000002 365.44689048770255, 16.182666666666666 365.03022382103586, 16.18 364.62622382103586 C 16.177333333333333 364.22222382103587, 16.177999999999997 363.82689048770254, 16.182 363.44022382103583 C 16.186 363.0535571543692, 16.190666666666665 362.67222382103586, 16.196 362.2962238210358 C 16.209333333333333 361.8562238210358, 16.334000000000003 361.5108904877025, 16.57 361.2602238210358 C 16.805999999999997 361.0095571543692, 17.142666666666663 360.8642238210358, 17.58 360.82422382103584 L 17.58 361.7122238210358 C 17.382666666666665 361.7682238210358, 17.281333333333333 361.89755715436917, 17.276 362.10022382103585 C 17.262666666666668 362.4708904877025, 17.253333333333334 362.8188904877025, 17.248 363.14422382103584 C 17.242666666666665 363.46955715436917, 17.24 363.78622382103583, 17.24 364.0942238210358 C 17.24 364.4022238210358, 17.242666666666665 364.71689048770247, 17.248 365.03822382103584 C 17.253333333333334 365.3595571543692, 17.262666666666668 365.7028904877025, 17.276 366.0682238210358 C 17.281333333333333 366.27622382103584, 17.382666666666665 366.4082238210358, 17.58 366.46422382103583 L 17.58 367.35222382103586 C 17.142666666666663 367.31222382103584, 16.805999999999997 367.1662238210358, 16.57 366.9142238210358 C 16.334000000000003 366.6622238210358, 16.209333333333333 366.31622382103586, 16.196 365.87622382103586 Z M 18.084 367.35222382103586 L 18.084 366.46022382103587 C 18.268 366.4068904877025, 18.366666666666667 366.2828904877025, 18.38 366.08822382103585 C 18.398666666666667 365.6215571543692, 18.410666666666668 365.17289048770255, 18.416 364.74222382103585 C 18.421333333333333 364.31155715436915, 18.421333333333333 363.8808904877025, 18.416 363.4502238210358 C 18.410666666666668 363.0195571543692, 18.398666666666667 362.5668904877025, 18.38 362.0922238210358 C 18.374666666666666 361.89755715436917, 18.276 361.7708904877025, 18.084 361.7122238210358 L 18.084 360.82422382103584 C 18.513333333333335 360.8642238210358, 18.846666666666668 361.0095571543692, 19.084 361.2602238210358 C 19.321333333333335 361.5108904877025, 19.445333333333334 361.8562238210358, 19.456 362.2962238210358 C 19.46666666666667 362.61089048770253, 19.474666666666668 362.92089048770254, 19.48 363.22622382103583 C 19.485333333333333 363.5315571543692, 19.488 363.8322238210358, 19.488 364.1282238210358 C 19.488 364.4242238210358, 19.485333333333333 364.71755715436916, 19.48 365.00822382103587 C 19.474666666666668 365.2988904877025, 19.46666666666667 365.58822382103585, 19.456 365.87622382103586 C 19.439999999999998 366.32689048770254, 19.311999999999998 366.6755571543692, 19.072 366.92222382103586 C 18.832 367.1688904877025, 18.502666666666666 367.31222382103584, 18.084 367.35222382103586 Z M 21.944 367.28822382103584 L 21.944 360.88822382103587 L 23.003999999999998 360.88822382103587 L 23.003999999999998 367.28822382103584 Z " stroke="none" fill-rule="nonzero" fill="#000000" fill-opacity="1" transform="matrix(1,0,0,1,5.05,13.314)" id="text10 l" />
  <path d="M 0 360.1362632916795 L 10 360.1362632916795 L 10 361.6362632916795 L 0 361.6362632916795 Z " stroke="none" fill-rule="evenodd" fill="#000000" fill-opacity="1" transform="matrix(1,0,0,1,5.05,13.314)" id="mark11 l" />
  <path d="M 0 351.93430276232317 L 10 351.93430276232317 L 10 353.43430276232317 L 0 353.43430276232317 Z " stroke="none" fill-rule="evenodd" fill="#000000" fill-opacity="1" transform="matrix(1,0,0,1,5.05,13.314)" id="mark12 l" />
  <path d="M 0 343.7323422329668 L 10 343.7323422329668 L 10 345.2323422329668 L 0 345.2323422329668 Z " stroke="none" fill-rule="evenodd" fill="#000000" fill-opacity="1" transform="matrix(1,0,0,1,5.05,13.314)" id="mark13 l" />
  <path d="M 0 335.53038170361043 L 10 335.53038170361043 L 10 337.03038170361043 L 0 337.03038170361043 Z " stroke="none" fill-rule="evenodd" fill="#000000" fill-opacity="1" transform="matrix(1,0,0,1,5.05,13.314)" id="mark14 l" />
  <path d="M 0 327.3284211742541 L 25 327.3284211742541 L 25 328.8284211742541 L 0 328.8284211742541 Z " stroke="none" fill-rule="evenodd" fill="#000000" fill-opacity="1" transform="matrix(1,0,0,1,5.05,13.314)" id="mark15 l" />
  <path d="M 14.331999999999999 326.2464211742541 L 14.331999999999999 320.8024211742541 L 13.879999999999999 320.8024211742541 L 13.847999999999999 320.4224211742541 L 14.552 319.84642117425415 L 15.432 319.84642117425415 L 15.432 326.2464211742541 Z M 16.18 324.8304211742541 C 16.174666666666667 324.6570878409208, 16.173333333333332 324.5177545075875, 16.176 324.4124211742541 C 16.178666666666665 324.30708784092076, 16.181333333333335 324.2050878409208, 16.183999999999997 324.10642117425414 L 17.264 324.10642117425414 C 17.256 324.1837545075875, 17.25 324.2797545075875, 17.246 324.39442117425415 C 17.241999999999997 324.5090878409208, 17.240666666666666 324.61975450758746, 17.241999999999997 324.72642117425414 C 17.243333333333332 324.8330878409208, 17.246666666666666 324.9130878409208, 17.252 324.96642117425415 C 17.262666666666668 325.0864211742541, 17.297333333333334 325.1844211742541, 17.355999999999998 325.26042117425413 C 17.414666666666665 325.33642117425416, 17.497333333333334 325.39042117425413, 17.604 325.4224211742541 L 17.604 326.3144211742541 C 17.110666666666663 326.2770878409208, 16.75333333333333 326.14242117425414, 16.532 325.9104211742541 C 16.310666666666666 325.6784211742541, 16.19333333333333 325.3184211742541, 16.18 324.8304211742541 Z M 16.279999999999998 323.4944211742541 L 16.279999999999998 319.84642117425415 L 17.348 319.84642117425415 L 17.348 323.4944211742541 Z M 17.852 323.07042117425414 L 17.852 322.3144211742541 C 17.929333333333332 322.2744211742541, 18.014666666666667 322.2424211742541, 18.107999999999997 322.2184211742541 C 18.20133333333333 322.1944211742541, 18.301333333333332 322.1824211742541, 18.407999999999998 322.1824211742541 C 18.773333333333333 322.1824211742541, 19.047333333333334 322.29775450758746, 19.23 322.5284211742541 C 19.412666666666667 322.75908784092076, 19.514666666666663 323.0730878409208, 19.535999999999998 323.4704211742541 C 19.546666666666667 323.63042117425414, 19.55333333333333 323.7890878409208, 19.555999999999997 323.9464211742541 C 19.558666666666664 324.10375450758744, 19.557333333333332 324.2570878409208, 19.552 324.40642117425415 C 19.546666666666667 324.5557545075875, 19.538666666666668 324.6957545075875, 19.528 324.8264211742541 C 19.482666666666667 325.3250878409208, 19.353333333333335 325.6904211742541, 19.14 325.9224211742541 C 18.926666666666666 326.15442117425414, 18.581333333333333 326.28508784092077, 18.104 326.3144211742541 L 18.104 325.4224211742541 C 18.21333333333333 325.39308784092077, 18.296 325.3404211742541, 18.352 325.2644211742541 C 18.408 325.18842117425413, 18.44 325.0890878409208, 18.448 324.96642117425415 C 18.471999999999998 324.67575450758744, 18.485999999999997 324.41442117425413, 18.49 324.1824211742541 C 18.494 323.95042117425413, 18.485333333333333 323.7290878409208, 18.464 323.5184211742541 C 18.447999999999997 323.3637545075875, 18.396666666666665 323.24842117425413, 18.31 323.1724211742541 C 18.223333333333333 323.09642117425415, 18.090666666666664 323.05842117425414, 17.912 323.05842117425414 C 17.901333333333334 323.05842117425414, 17.890666666666668 323.05975450758746, 17.88 323.0624211742541 C 17.86933333333333 323.0650878409208, 17.86 323.06775450758744, 17.852 323.07042117425414 Z M 17.852 320.7784211742541 L 17.852 319.84642117425415 L 19.439999999999998 319.84642117425415 L 19.439999999999998 320.7784211742541 Z M 21.944 326.2464211742541 L 21.944 319.84642117425415 L 23.003999999999998 319.84642117425415 L 23.003999999999998 326.2464211742541 Z " stroke="none" fill-rule="nonzero" fill="#000000" fill-opacity="1" transform="matrix(1,0,0,1,5.05,13.314)" id="text15 l" />
  <path d="M 0 319.12646064489775 L 10 319.12646064489775 L 10 320.62646064489775 L 0 320.62646064489775 Z " stroke="none" fill-rule="evenodd" fill="#000000" fill-opacity="1" transform="matrix(1,0,0,1,5.05,13.314)" id="mark16 l" />
  <path d="M 0 310.9245001155414 L 10 310.9245001155414 L 10 312.4245001155414 L 0 312.4245001155414 Z " stroke="none" fill-rule="evenodd" fill="#000000" fill-opacity="1" transform="matrix(1,0,0,1,5.05,13.314)" id="mark17 l" />
  <path d="M 0 302.722539586185 L 10 302.722539586185 L 10 304.222539586185 L 0 304.222539586185 Z " stroke="none" fill-rule="evenodd" fill="#000000" fill-opacity="1" transform="matrix(1,0,0,1,5.05,13.314)" id="mark18 l" />
  <path d="M 0 294.5205790568287 L 10 294.5205790568287 L 10 296.0205790568287 L 0 296.0205790568287 Z " stroke="none" fill-rule="evenodd" fill="#000000" fill-opacity="1" transform="matrix(1,0,0,1,5.05,13.314)" id="mark19 l" />
  <path d="M 0 286.3186185274723 L 25 286.3186185274723 L 25 287.8186185274723 L 0 287.8186185274723 Z " stroke="none" fill-rule="evenodd" fill="#000000" fill-opacity="1" transform="matrix(1,0,0,1,5.05,13.314)" id="mark20 l" />
  <path d="M 12.319999999999999 285.2686185274723 C 12.317333333333334 285.1699518608056, 12.315333333333331 285.08128519413896, 12.313999999999998 285.0026185274723 C 12.312666666666665 284.92395186080563, 12.311333333333334 284.8499518608056, 12.309999999999999 284.7806185274723 C 12.308666666666667 284.711285194139, 12.308 284.639285194139, 12.308 284.5646185274723 C 12.308 284.48995186080566, 12.308 284.40528519413897, 12.308 284.3106185274723 C 12.308 284.2159518608056, 12.309333333333335 284.1046185274723, 12.312 283.97661852747234 C 12.32 283.683285194139, 12.37 283.42128519413893, 12.462 283.19061852747234 C 12.554 282.95995186080563, 12.687999999999999 282.7539518608056, 12.863999999999999 282.5726185274723 C 13.04 282.39128519413896, 13.257333333333333 282.2299518608056, 13.515999999999998 282.0886185274723 L 14.047999999999998 281.8006185274723 C 14.234666666666666 281.69928519413895, 14.354 281.577285194139, 14.405999999999999 281.4346185274723 C 14.457999999999998 281.2919518608056, 14.488 281.1579518608056, 14.495999999999999 281.0326185274723 C 14.506666666666664 280.8859518608057, 14.512666666666664 280.729285194139, 14.514 280.5626185274723 C 14.51533333333333 280.3959518608056, 14.511999999999997 280.239285194139, 14.504 280.0926185274723 C 14.498666666666665 279.98861852747234, 14.468666666666666 279.9026185274723, 14.413999999999998 279.8346185274723 C 14.359333333333332 279.7666185274723, 14.279999999999998 279.71795186080567, 14.175999999999998 279.68861852747233 L 14.175999999999998 278.8006185274723 C 14.663999999999998 278.8326185274723, 15.014 278.96395186080565, 15.225999999999999 279.1946185274723 C 15.437999999999999 279.42528519413895, 15.554666666666666 279.78595186080565, 15.575999999999999 280.2766185274723 C 15.578666666666663 280.3406185274723, 15.580666666666666 280.40595186080566, 15.581999999999999 280.4726185274723 C 15.583333333333332 280.539285194139, 15.584 280.60395186080564, 15.584 280.66661852747234 C 15.584 280.729285194139, 15.583333333333332 280.791285194139, 15.581999999999999 280.8526185274723 C 15.580666666666666 280.91395186080564, 15.578666666666663 280.97395186080564, 15.575999999999999 281.0326185274723 C 15.565333333333331 281.3179518608057, 15.512 281.56461852747236, 15.415999999999999 281.77261852747233 C 15.32 281.9806185274723, 15.19 282.1606185274723, 15.026 282.3126185274723 C 14.862 282.4646185274723, 14.672 282.6006185274723, 14.456 282.7206185274723 L 13.851999999999999 283.0486185274723 C 13.737333333333332 283.10995186080567, 13.647333333333332 283.19395186080567, 13.581999999999999 283.3006185274723 C 13.516666666666666 283.407285194139, 13.469999999999999 283.5206185274723, 13.441999999999998 283.6406185274723 C 13.413999999999998 283.76061852747233, 13.399999999999999 283.87261852747235, 13.399999999999999 283.97661852747234 L 13.399999999999999 285.2686185274723 Z M 12.328 281.2286185274723 C 12.322666666666667 281.111285194139, 12.318666666666665 280.9966185274723, 12.315999999999999 280.8846185274723 C 12.313333333333333 280.7726185274723, 12.311333333333334 280.6666185274723, 12.309999999999999 280.5666185274723 C 12.308666666666667 280.46661852747235, 12.309333333333335 280.36995186080566, 12.312 280.2766185274723 C 12.330666666666666 279.7886185274723, 12.447333333333333 279.42928519413897, 12.661999999999999 279.1986185274723 C 12.876666666666665 278.96795186080567, 13.213333333333331 278.835285194139, 13.671999999999999 278.8006185274723 L 13.671999999999999 279.6926185274723 C 13.576 279.72195186080563, 13.505333333333333 279.7686185274723, 13.459999999999999 279.83261852747233 C 13.414666666666665 279.89661852747236, 13.390666666666664 279.97395186080564, 13.387999999999998 280.0646185274723 C 13.382666666666665 280.27261852747233, 13.379333333333333 280.46595186080566, 13.378 280.6446185274723 C 13.376666666666667 280.823285194139, 13.381333333333334 281.0179518608056, 13.392 281.2286185274723 Z M 13.904 285.2686185274723 L 13.904 284.3366185274723 L 15.5 284.3366185274723 L 15.5 285.2686185274723 Z M 16.196 283.85661852747234 C 16.188000000000002 283.427285194139, 16.182666666666666 283.01061852747233, 16.18 282.60661852747234 C 16.177333333333333 282.20261852747234, 16.177999999999997 281.807285194139, 16.182 281.4206185274723 C 16.186 281.03395186080564, 16.190666666666665 280.6526185274723, 16.196 280.2766185274723 C 16.209333333333333 279.8366185274723, 16.334000000000003 279.491285194139, 16.57 279.2406185274723 C 16.805999999999997 278.98995186080566, 17.142666666666663 278.84461852747233, 17.58 278.8046185274723 L 17.58 279.6926185274723 C 17.382666666666665 279.7486185274723, 17.281333333333333 279.87795186080564, 17.276 280.0806185274723 C 17.262666666666668 280.45128519413896, 17.253333333333334 280.799285194139, 17.248 281.1246185274723 C 17.242666666666665 281.44995186080564, 17.24 281.7666185274723, 17.24 282.0746185274723 C 17.24 282.3826185274723, 17.242666666666665 282.69728519413894, 17.248 283.0186185274723 C 17.253333333333334 283.3399518608057, 17.262666666666668 283.683285194139, 17.276 284.0486185274723 C 17.281333333333333 284.2566185274723, 17.382666666666665 284.3886185274723, 17.58 284.4446185274723 L 17.58 285.33261852747233 C 17.142666666666663 285.2926185274723, 16.805999999999997 285.14661852747236, 16.57 284.8946185274723 C 16.334000000000003 284.64261852747234, 16.209333333333333 284.29661852747233, 16.196 283.85661852747234 Z M 18.084 285.33261852747233 L 18.084 284.44061852747234 C 18.268 284.387285194139, 18.366666666666667 284.263285194139, 18.38 284.0686185274723 C 18.398666666666667 283.6019518608057, 18.410666666666668 283.153285194139, 18.416 282.7226185274723 C 18.421333333333333 282.2919518608056, 18.421333333333333 281.861285194139, 18.416 281.4306185274723 C 18.410666666666668 280.99995186080565, 18.398666666666667 280.54728519413896, 18.38 280.0726185274723 C 18.374666666666666 279.87795186080564, 18.276 279.751285194139, 18.084 279.6926185274723 L 18.084 278.8046185274723 C 18.513333333333335 278.84461852747233, 18.846666666666668 278.98995186080566, 19.084 279.2406185274723 C 19.321333333333335 279.491285194139, 19.445333333333334 279.8366185274723, 19.456 280.2766185274723 C 19.46666666666667 280.591285194139, 19.474666666666668 280.90128519413895, 19.48 281.2066185274723 C 19.485333333333333 281.51195186080565, 19.488 281.8126185274723, 19.488 282.1086185274723 C 19.488 282.4046185274723, 19.485333333333333 282.69795186080563, 19.48 282.98861852747234 C 19.474666666666668 283.279285194139, 19.46666666666667 283.5686185274723, 19.456 283.85661852747234 C 19.439999999999998 284.307285194139, 19.311999999999998 284.65595186080566, 19.072 284.9026185274723 C 18.832 285.149285194139, 18.502666666666666 285.2926185274723, 18.084 285.33261852747233 Z M 21.944 285.2686185274723 L 21.944 278.86861852747234 L 23.003999999999998 278.86861852747234 L 23.003999999999998 285.2686185274723 Z " stroke="none" fill-rule="nonzero" fill="#000000" fill-opacity="1" transform="matrix(1,0,0,1,5.05,13.314)" id="text20 l" />
  <path d="M 0 278.116657998116 L 10 278.116657998116 L 10 279.616657998116 L 0 279.616657998116 Z " stroke="none" fill-rule="evenodd" fill="#000000" fill-opacity="1" transform="matrix(1,0,0,1,5.05,13.314)" id="mark21 l" />
  <path d="M 0 269.91469746875964 L 10 269.91469746875964 L 10 271.41469746875964 L 0 271.41469746875964 Z " stroke="none" fill-rule="evenodd" fill="#000000" fill-opacity="1" transform="matrix(1,0,0,1,5.05,13.314)" id="mark22 l" />
  <path d="M 0 261.71273693940327 L 10 261.71273693940327 L 10 263.21273693940327 L 0 263.21273693940327 Z " stroke="none" fill-rule="evenodd" fill="#000000" fill-opacity="1" transform="matrix(1,0,0,1,5.05,13.314)" id="mark23 l" />
  <path d="M 0 253.51077641004693 L 10 253.51077641004693 L 10 255.01077641004693 L 0 255.01077641004693 Z " stroke="none" fill-rule="evenodd" fill="#000000" fill-opacity="1" transform="matrix(1,0,0,1,5.05,13.314)" id="mark24 l" />
  <path d="M 0 245.30881588069056 L 25 245.30881588069056 L 25 246.80881588069056 L 0 246.80881588069056 Z " stroke="none" fill-rule="evenodd" fill="#000000" fill-opacity="1" transform="matrix(1,0,0,1,5.05,13.314)" id="mark25 l" />
  <path d="M 12.328 244.25881588069058 C 12.325333333333333 244.16014921402393, 12.323333333333332 244.07148254735728, 12.322 243.99281588069059 C 12.320666666666666 243.91414921402395, 12.319333333333333 243.84014921402394, 12.318 243.77081588069058 C 12.316666666666666 243.70148254735722, 12.315999999999999 243.6294825473572, 12.316 243.55481588069057 C 12.315999999999999 243.48014921402392, 12.315999999999999 243.39548254735723, 12.316 243.30081588069058 C 12.315999999999999 243.20614921402392, 12.317333333333334 243.0948158806906, 12.32 242.96681588069058 C 12.328 242.67348254735725, 12.378 242.41148254735725, 12.47 242.18081588069057 C 12.562000000000001 241.9501492140239, 12.696 241.74414921402393, 12.872 241.56281588069058 C 13.048 241.38148254735728, 13.265333333333334 241.22014921402393, 13.524000000000001 241.07881588069057 L 14.056000000000001 240.7908158806906 C 14.242666666666668 240.68948254735724, 14.362000000000002 240.56748254735726, 14.414 240.42481588069057 C 14.466000000000001 240.2821492140239, 14.495999999999999 240.1481492140239, 14.504 240.0228158806906 C 14.514666666666667 239.8761492140239, 14.520666666666667 239.71948254735725, 14.522 239.5528158806906 C 14.523333333333333 239.38614921402393, 14.520000000000001 239.22948254735726, 14.512 239.0828158806906 C 14.506666666666666 238.97881588069058, 14.476666666666667 238.8928158806906, 14.422 238.82481588069058 C 14.367333333333335 238.75681588069057, 14.288 238.7081492140239, 14.184000000000001 238.67881588069056 L 14.184000000000001 237.7908158806906 C 14.672 237.8228158806906, 15.022000000000002 237.95414921402391, 15.234 238.18481588069056 C 15.446000000000002 238.41548254735721, 15.562666666666667 238.77614921402392, 15.584 239.2668158806906 C 15.586666666666668 239.33081588069058, 15.588666666666668 239.39614921402392, 15.59 239.46281588069058 C 15.591333333333335 239.52948254735725, 15.592000000000002 239.5941492140239, 15.592 239.65681588069057 C 15.592000000000002 239.71948254735725, 15.591333333333335 239.78148254735723, 15.59 239.84281588069058 C 15.588666666666668 239.9041492140239, 15.586666666666668 239.9641492140239, 15.584 240.0228158806906 C 15.573333333333332 240.30814921402393, 15.52 240.55481588069057, 15.424 240.76281588069057 C 15.328 240.97081588069057, 15.197999999999999 241.15081588069057, 15.033999999999999 241.3028158806906 C 14.87 241.45481588069055, 14.68 241.59081588069057, 14.464 241.71081588069057 L 13.86 242.03881588069058 C 13.745333333333335 242.10014921402393, 13.655333333333335 242.18414921402393, 13.59 242.2908158806906 C 13.524666666666668 242.39748254735724, 13.478000000000002 242.5108158806906, 13.45 242.6308158806906 C 13.422 242.7508158806906, 13.408 242.86281588069056, 13.408 242.96681588069058 L 13.408 244.25881588069058 Z M 12.336 240.21881588069058 C 12.330666666666666 240.10148254735725, 12.326666666666664 239.98681588069059, 12.324 239.87481588069056 C 12.321333333333332 239.7628158806906, 12.319333333333333 239.6568158806906, 12.318 239.55681588069058 C 12.316666666666666 239.45681588069056, 12.317333333333334 239.36014921402392, 12.32 239.2668158806906 C 12.338666666666668 238.77881588069062, 12.455333333333336 238.41948254735726, 12.67 238.18881588069058 C 12.884666666666668 237.9581492140239, 13.221333333333334 237.82548254735724, 13.68 237.7908158806906 L 13.68 238.68281588069058 C 13.584 238.7121492140239, 13.513333333333332 238.75881588069058, 13.468 238.82281588069057 C 13.422666666666668 238.88681588069056, 13.398666666666667 238.9641492140239, 13.396 239.05481588069057 C 13.390666666666666 239.2628158806906, 13.387333333333332 239.45614921402392, 13.386 239.63481588069058 C 13.384666666666666 239.81348254735724, 13.389333333333333 240.0081492140239, 13.4 240.21881588069058 Z M 13.911999999999999 244.25881588069058 L 13.911999999999999 243.3268158806906 L 15.508 243.3268158806906 L 15.508 244.25881588069058 Z M 16.18 242.84281588069058 C 16.174666666666667 242.66948254735726, 16.173333333333332 242.53014921402394, 16.176 242.42481588069057 C 16.178666666666665 242.31948254735727, 16.181333333333335 242.21748254735726, 16.183999999999997 242.1188158806906 L 17.264 242.1188158806906 C 17.256 242.1961492140239, 17.25 242.29214921402388, 17.246 242.40681588069057 C 17.241999999999997 242.5214825473572, 17.240666666666666 242.6321492140239, 17.241999999999997 242.73881588069057 C 17.243333333333332 242.84548254735722, 17.246666666666666 242.92548254735723, 17.252 242.97881588069058 C 17.262666666666668 243.09881588069058, 17.297333333333334 243.19681588069056, 17.355999999999998 243.2728158806906 C 17.414666666666665 243.34881588069055, 17.497333333333334 243.40281588069058, 17.604 243.43481588069056 L 17.604 244.3268158806906 C 17.110666666666663 244.28948254735724, 16.75333333333333 244.1548158806906, 16.532 243.92281588069056 C 16.310666666666666 243.6908158806906, 16.19333333333333 243.33081588069058, 16.18 242.84281588069058 Z M 16.279999999999998 241.50681588069057 L 16.279999999999998 237.85881588069057 L 17.348 237.85881588069057 L 17.348 241.50681588069057 Z M 17.852 241.0828158806906 L 17.852 240.3268158806906 C 17.929333333333332 240.2868158806906, 18.014666666666667 240.2548158806906, 18.107999999999997 240.23081588069059 C 18.20133333333333 240.20681588069058, 18.301333333333332 240.19481588069058, 18.407999999999998 240.19481588069058 C 18.773333333333333 240.19481588069058, 19.047333333333334 240.3101492140239, 19.23 240.5408158806906 C 19.412666666666667 240.77148254735727, 19.514666666666663 241.08548254735723, 19.535999999999998 241.48281588069057 C 19.546666666666667 241.6428158806906, 19.55333333333333 241.80148254735724, 19.555999999999997 241.95881588069057 C 19.558666666666664 242.11614921402392, 19.557333333333332 242.26948254735726, 19.552 242.41881588069057 C 19.546666666666667 242.5681492140239, 19.538666666666668 242.70814921402388, 19.528 242.8388158806906 C 19.482666666666667 243.33748254735724, 19.353333333333335 243.7028158806906, 19.14 243.93481588069056 C 18.926666666666666 244.1668158806906, 18.581333333333333 244.29748254735728, 18.104 244.3268158806906 L 18.104 243.43481588069056 C 18.21333333333333 243.40548254735722, 18.296 243.35281588069057, 18.352 243.27681588069058 C 18.408 243.20081588069058, 18.44 243.10148254735725, 18.448 242.97881588069058 C 18.471999999999998 242.6881492140239, 18.485999999999997 242.42681588069058, 18.49 242.19481588069058 C 18.494 241.96281588069058, 18.485333333333333 241.74148254735724, 18.464 241.53081588069057 C 18.447999999999997 241.37614921402388, 18.396666666666665 241.2608158806906, 18.31 241.18481588069056 C 18.223333333333333 241.1088158806906, 18.090666666666664 241.0708158806906, 17.912 241.0708158806906 C 17.901333333333334 241.0708158806906, 17.890666666666668 241.0721492140239, 17.88 241.07481588069058 C 17.86933333333333 241.07748254735725, 17.86 241.0801492140239, 17.852 241.0828158806906 Z M 17.852 238.7908158806906 L 17.852 237.85881588069057 L 19.439999999999998 237.85881588069057 L 19.439999999999998 238.7908158806906 Z M 21.944 244.25881588069058 L 21.944 237.85881588069057 L 23.003999999999998 237.85881588069057 L 23.003999999999998 244.25881588069058 Z " stroke="none" fill-rule="nonzero" fill="#000000" fill-opacity="1" transform="matrix(1,0,0,1,5.05,13.314)" id="text25 l" />
  <path d="M 0 237.10685535133422 L 10 237.10685535133422 L 10 238.60685535133422 L 0 238.60685535133422 Z " stroke="none" fill-rule="evenodd" fill="#000000" fill-opacity="1" transform="matrix(1,0,0,1,5.05,13.314)" id="mark26 l" />
  <path d="M 0 228.90489482197785 L 10 228.90489482197785 L 10 230.40489482197785 L 0 230.40489482197785 Z " stroke="none" fill-rule="evenodd" fill="#000000" fill-opacity="1" transform="matrix(1,0,0,1,5.05,13.314)" id="mark27 l" />
  <path d="M 0 220.7029342926215 L 10 220.7029342926215 L 10 222.2029342926215 L 0 222.2029342926215 Z " stroke="none" fill-rule="evenodd" fill="#000000" fill-opacity="1" transform="matrix(1,0,0,1,5.05,13.314)" id="mark28 l" />
  <path d="M 0 212.50097376326516 L 10 212.50097376326516 L 10 214.00097376326516 L 0 214.00097376326516 Z " stroke="none" fill-rule="evenodd" fill="#000000" fill-opacity="1" transform="matrix(1,0,0,1,5.05,13.314)" id="mark29 l" />
  <path d="M 0 204.2990132339088 L 25 204.2990132339088 L 25 205.7990132339088 L 0 205.7990132339088 Z " stroke="none" fill-rule="evenodd" fill="#000000" fill-opacity="1" transform="matrix(1,0,0,1,5.05,13.314)" id="mark30 l" />
  <path d="M 12.223999999999998 201.83301323390882 C 12.221333333333334 201.73167990057544, 12.219333333333333 201.64767990057544, 12.218 201.5810132339088 C 12.216666666666667 201.51434656724211, 12.216666666666667 201.44634656724213, 12.218 201.37701323390883 C 12.219333333333333 201.30767990057547, 12.221333333333334 201.21834656724212, 12.223999999999998 201.10901323390883 L 13.303999999999998 201.10901323390883 L 13.303999999999998 201.9730132339088 C 13.303999999999998 202.21034656724214, 13.417333333333332 202.3610132339088, 13.643999999999998 202.4250132339088 L 13.643999999999998 203.31701323390882 C 13.155999999999999 203.27967990057547, 12.800666666666665 203.1450132339088, 12.578 202.9130132339088 C 12.355333333333334 202.6810132339088, 12.237333333333332 202.3210132339088, 12.223999999999998 201.83301323390882 Z M 12.292 197.78101323390882 L 12.292 196.8490132339088 L 15.536 196.8490132339088 L 15.536 197.78101323390882 Z M 14.143999999999998 202.42901323390882 C 14.367999999999999 202.3730132339088, 14.483999999999998 202.22234656724214, 14.491999999999999 201.97701323390882 C 14.497333333333334 201.77434656724216, 14.500666666666666 201.59167990057549, 14.501999999999999 201.42901323390882 C 14.503333333333332 201.26634656724215, 14.498666666666665 201.1090132339088, 14.488 200.9570132339088 C 14.48 200.79967990057548, 14.431999999999999 200.66634656724216, 14.344 200.5570132339088 C 14.256 200.4476799005755, 14.089333333333332 200.3956799005755, 13.844 200.4010132339088 L 13.096 200.4090132339088 L 13.068 199.5170132339088 L 14.027999999999999 198.1330132339088 L 15.216 198.1330132339088 L 14.248 199.4850132339088 L 14.28 199.4850132339088 C 14.712 199.48501323390877, 15.028666666666666 199.60767990057548, 15.229999999999999 199.85301323390883 C 15.431333333333333 200.09834656724217, 15.544 200.47567990057547, 15.568 200.9850132339088 C 15.57333333333333 201.05701323390878, 15.576666666666664 201.12901323390878, 15.578 201.2010132339088 C 15.57933333333333 201.27301323390878, 15.579999999999998 201.34367990057547, 15.579999999999998 201.4130132339088 C 15.579999999999998 201.48234656724213, 15.57933333333333 201.55167990057546, 15.578 201.6210132339088 C 15.576666666666664 201.69034656724213, 15.57333333333333 201.76101323390878, 15.568 201.83301323390882 C 15.549333333333333 202.32901323390882, 15.428666666666665 202.6936799005755, 15.206 202.9270132339088 C 14.983333333333334 203.16034656724213, 14.630666666666666 203.29034656724215, 14.148 203.31701323390882 Z M 16.196 201.8370132339088 C 16.188000000000002 201.40767990057546, 16.182666666666666 200.9910132339088, 16.18 200.5870132339088 C 16.177333333333333 200.1830132339088, 16.177999999999997 199.78767990057548, 16.182 199.4010132339088 C 16.186 199.01434656724217, 16.190666666666665 198.63301323390883, 16.196 198.25701323390882 C 16.209333333333333 197.81701323390882, 16.334000000000003 197.4716799005755, 16.57 197.22101323390882 C 16.805999999999997 196.97034656724213, 17.142666666666663 196.8250132339088, 17.58 196.7850132339088 L 17.58 197.67301323390882 C 17.382666666666665 197.7290132339088, 17.281333333333333 197.85834656724217, 17.276 198.06101323390882 C 17.262666666666668 198.4316799005755, 17.253333333333334 198.77967990057545, 17.248 199.1050132339088 C 17.242666666666665 199.4303465672421, 17.24 199.7470132339088, 17.24 200.05501323390882 C 17.24 200.36301323390882, 17.242666666666665 200.67767990057547, 17.248 200.9990132339088 C 17.253333333333334 201.32034656724215, 17.262666666666668 201.66367990057546, 17.276 202.0290132339088 C 17.281333333333333 202.23701323390884, 17.382666666666665 202.36901323390882, 17.58 202.4250132339088 L 17.58 203.3130132339088 C 17.142666666666663 203.27301323390878, 16.805999999999997 203.1270132339088, 16.57 202.87501323390882 C 16.334000000000003 202.6230132339088, 16.209333333333333 202.2770132339088, 16.196 201.8370132339088 Z M 18.084 203.3130132339088 L 18.084 202.4210132339088 C 18.268 202.36767990057547, 18.366666666666667 202.2436799005755, 18.38 202.04901323390882 C 18.398666666666667 201.58234656724215, 18.410666666666668 201.1336799005755, 18.416 200.70301323390882 C 18.421333333333333 200.27234656724215, 18.421333333333333 199.84167990057546, 18.416 199.41101323390882 C 18.410666666666668 198.98034656724212, 18.398666666666667 198.5276799005755, 18.38 198.0530132339088 C 18.374666666666666 197.85834656724217, 18.276 197.7316799005755, 18.084 197.67301323390882 L 18.084 196.7850132339088 C 18.513333333333335 196.8250132339088, 18.846666666666668 196.97034656724213, 19.084 197.22101323390882 C 19.321333333333335 197.4716799005755, 19.445333333333334 197.81701323390882, 19.456 198.25701323390882 C 19.46666666666667 198.57167990057548, 19.474666666666668 198.88167990057548, 19.48 199.1870132339088 C 19.485333333333333 199.49234656724212, 19.488 199.79301323390882, 19.488 200.08901323390882 C 19.488 200.3850132339088, 19.485333333333333 200.67834656724213, 19.48 200.9690132339088 C 19.474666666666668 201.2596799005755, 19.46666666666667 201.54901323390882, 19.456 201.8370132339088 C 19.439999999999998 202.28767990057548, 19.311999999999998 202.63634656724213, 19.072 202.8830132339088 C 18.832 203.12967990057547, 18.502666666666666 203.27301323390878, 18.084 203.3130132339088 Z M 21.944 203.2490132339088 L 21.944 196.8490132339088 L 23.003999999999998 196.8490132339088 L 23.003999999999998 203.2490132339088 Z " stroke="none" fill-rule="nonzero" fill="#000000" fill-opacity="1" transform="matrix(1,0,0,1,5.05,13.314)" id="text30 l" />
  <path d="M 0 196.09705270455245 L 10 196.09705270455245 L 10 197.59705270455245 L 0 197.59705270455245 Z " stroke="none" fill-rule="evenodd" fill="#000000" fill-opacity="1" transform="matrix(1,0,0,1,5.05,13.314)" id="mark31 l" />
  <path d="M 0 187.8950921751961 L 10 187.8950921751961 L 10 189.3950921751961 L 0 189.3950921751961 Z " stroke="none" fill-rule="evenodd" fill="#000000" fill-opacity="1" transform="matrix(1,0,0,1,5.05,13.314)" id="mark32 l" />
  <path d="M 0 179.69313164583974 L 10 179.69313164583974 L 10 181.19313164583974 L 0 181.19313164583974 Z " stroke="none" fill-rule="evenodd" fill="#000000" fill-opacity="1" transform="matrix(1,0,0,1,5.05,13.314)" id="mark33 l" />
  <path d="M 0 171.49117111648337 L 10 171.49117111648337 L 10 172.99117111648337 L 0 172.99117111648337 Z " stroke="none" fill-rule="evenodd" fill="#000000" fill-opacity="1" transform="matrix(1,0,0,1,5.05,13.314)" id="mark34 l" />
  <path d="M 0 163.28921058712706 L 25 163.28921058712706 L 25 164.78921058712706 L 0 164.78921058712706 Z " stroke="none" fill-rule="evenodd" fill="#000000" fill-opacity="1" transform="matrix(1,0,0,1,5.05,13.314)" id="mark35 l" />
  <path d="M 12.232 160.79121058712707 C 12.229333333333333 160.68987725379372, 12.227333333333334 160.60587725379372, 12.226 160.53921058712706 C 12.224666666666668 160.4725439204604, 12.224666666666668 160.40454392046038, 12.226 160.33521058712705 C 12.227333333333334 160.26587725379372, 12.229333333333333 160.1765439204604, 12.232 160.06721058712708 L 13.312 160.06721058712708 L 13.312 160.93121058712705 C 13.312 161.1685439204604, 13.425333333333333 161.31921058712706, 13.652 161.38321058712705 L 13.652 162.27521058712708 C 13.164 162.23787725379373, 12.808666666666667 162.10321058712705, 12.586 161.87121058712705 C 12.363333333333333 161.63921058712705, 12.245333333333335 161.27921058712707, 12.232 160.79121058712707 Z M 12.3 156.73921058712708 L 12.3 155.80721058712706 L 15.544 155.80721058712706 L 15.544 156.73921058712708 Z M 14.152000000000001 161.38721058712707 C 14.376000000000001 161.3312105871271, 14.492 161.18054392046042, 14.5 160.93521058712707 C 14.505333333333333 160.7325439204604, 14.508666666666667 160.54987725379374, 14.51 160.38721058712707 C 14.511333333333333 160.2245439204604, 14.506666666666668 160.06721058712708, 14.496 159.91521058712706 C 14.488 159.75787725379374, 14.440000000000001 159.6245439204604, 14.352 159.51521058712706 C 14.264 159.40587725379373, 14.097333333333335 159.35387725379374, 13.852 159.35921058712705 L 13.104 159.36721058712706 L 13.076 158.47521058712707 L 14.036 157.09121058712708 L 15.224 157.09121058712708 L 14.256 158.44321058712706 L 14.288 158.44321058712706 C 14.719999999999999 158.44321058712706, 15.036666666666665 158.56587725379373, 15.238 158.81121058712708 C 15.439333333333334 159.0565439204604, 15.552 159.43387725379375, 15.576 159.94321058712706 C 15.581333333333333 160.01521058712706, 15.584666666666667 160.08721058712706, 15.586 160.15921058712706 C 15.587333333333333 160.23121058712707, 15.588000000000001 160.30187725379372, 15.588000000000001 160.37121058712705 C 15.588000000000001 160.44054392046039, 15.587333333333333 160.50987725379375, 15.586 160.57921058712708 C 15.584666666666667 160.6485439204604, 15.581333333333333 160.71921058712707, 15.576 160.79121058712707 C 15.557333333333334 161.28721058712705, 15.436666666666667 161.6518772537937, 15.214 161.88521058712706 C 14.991333333333333 162.1185439204604, 14.638666666666666 162.2485439204604, 14.156 162.27521058712708 Z M 16.18 160.79121058712707 C 16.174666666666667 160.61787725379372, 16.173333333333332 160.4785439204604, 16.176 160.37321058712706 C 16.178666666666665 160.26787725379373, 16.181333333333335 160.16587725379372, 16.183999999999997 160.06721058712708 L 17.264 160.06721058712708 C 17.256 160.14454392046042, 17.25 160.2405439204604, 17.246 160.35521058712706 C 17.241999999999997 160.46987725379373, 17.240666666666666 160.5805439204604, 17.241999999999997 160.68721058712705 C 17.243333333333332 160.7938772537937, 17.246666666666666 160.87387725379372, 17.252 160.92721058712706 C 17.262666666666668 161.04721058712707, 17.297333333333334 161.14521058712708, 17.355999999999998 161.22121058712708 C 17.414666666666665 161.29721058712707, 17.497333333333334 161.35121058712704, 17.604 161.38321058712705 L 17.604 162.27521058712708 C 17.110666666666663 162.23787725379373, 16.75333333333333 162.10321058712705, 16.532 161.87121058712705 C 16.310666666666666 161.63921058712705, 16.19333333333333 161.27921058712707, 16.18 160.79121058712707 Z M 16.279999999999998 159.45521058712706 L 16.279999999999998 155.80721058712706 L 17.348 155.80721058712706 L 17.348 159.45521058712706 Z M 17.852 159.03121058712708 L 17.852 158.27521058712708 C 17.929333333333332 158.23521058712709, 18.014666666666667 158.20321058712707, 18.107999999999997 158.17921058712707 C 18.20133333333333 158.15521058712707, 18.301333333333332 158.14321058712707, 18.407999999999998 158.14321058712707 C 18.773333333333333 158.14321058712707, 19.047333333333334 158.2585439204604, 19.23 158.48921058712708 C 19.412666666666667 158.71987725379373, 19.514666666666663 159.03387725379372, 19.535999999999998 159.43121058712705 C 19.546666666666667 159.59121058712705, 19.55333333333333 159.74987725379373, 19.555999999999997 159.90721058712705 C 19.558666666666664 160.06454392046038, 19.557333333333332 160.21787725379374, 19.552 160.36721058712706 C 19.546666666666667 160.51654392046038, 19.538666666666668 160.6565439204604, 19.528 160.78721058712708 C 19.482666666666667 161.28587725379373, 19.353333333333335 161.65121058712705, 19.14 161.88321058712705 C 18.926666666666666 162.11521058712705, 18.581333333333333 162.24587725379374, 18.104 162.27521058712708 L 18.104 161.38321058712705 C 18.21333333333333 161.35387725379374, 18.296 161.30121058712706, 18.352 161.22521058712707 C 18.408 161.14921058712707, 18.44 161.04987725379374, 18.448 160.92721058712706 C 18.471999999999998 160.63654392046038, 18.485999999999997 160.37521058712707, 18.49 160.14321058712707 C 18.494 159.91121058712707, 18.485333333333333 159.68987725379372, 18.464 159.47921058712706 C 18.447999999999997 159.3245439204604, 18.396666666666665 159.20921058712705, 18.31 159.13321058712705 C 18.223333333333333 159.05721058712706, 18.090666666666664 159.01921058712708, 17.912 159.01921058712708 C 17.901333333333334 159.01921058712708, 17.890666666666668 159.0205439204604, 17.88 159.02321058712707 C 17.86933333333333 159.02587725379374, 17.86 159.0285439204604, 17.852 159.03121058712708 Z M 17.852 156.73921058712708 L 17.852 155.80721058712706 L 19.439999999999998 155.80721058712706 L 19.439999999999998 156.73921058712708 Z M 21.944 162.20721058712707 L 21.944 155.80721058712706 L 23.003999999999998 155.80721058712706 L 23.003999999999998 162.20721058712707 Z " stroke="none" fill-rule="nonzero" fill="#000000" fill-opacity="1" transform="matrix(1,0,0,1,5.05,13.314)" id="text35 l" />
  <path d="M 0 155.0872500577707 L 10 155.0872500577707 L 10 156.5872500577707 L 0 156.5872500577707 Z " stroke="none" fill-rule="evenodd" fill="#000000" fill-opacity="1" transform="matrix(1,0,0,1,5.05,13.314)" id="mark36 l" />
  <path d="M 0 146.88528952841432 L 10 146.88528952841432 L 10 148.38528952841432 L 0 148.38528952841432 Z " stroke="none" fill-rule="evenodd" fill="#000000" fill-opacity="1" transform="matrix(1,0,0,1,5.05,13.314)" id="mark37 l" />
  <path d="M 0 138.683328999058 L 10 138.683328999058 L 10 140.183328999058 L 0 140.183328999058 Z " stroke="none" fill-rule="evenodd" fill="#000000" fill-opacity="1" transform="matrix(1,0,0,1,5.05,13.314)" id="mark38 l" />
  <path d="M 0 130.48136846970164 L 10 130.48136846970164 L 10 131.98136846970164 L 0 131.98136846970164 Z " stroke="none" fill-rule="evenodd" fill="#000000" fill-opacity="1" transform="matrix(1,0,0,1,5.05,13.314)" id="mark39 l" />
  <path d="M 0 122.27940794034527 L 25 122.27940794034527 L 25 123.77940794034527 L 0 123.77940794034527 Z " stroke="none" fill-rule="evenodd" fill="#000000" fill-opacity="1" transform="matrix(1,0,0,1,5.05,13.314)" id="mark40 l" />
  <path d="M 11.739999999999998 119.54540794034527 L 11.739999999999998 118.66940794034527 L 12.455999999999998 116.78940794034527 L 13.495999999999999 116.78940794034527 L 12.771999999999998 118.62140794034526 L 13.171999999999997 118.62140794034526 L 13.171999999999997 119.54540794034527 Z M 13.675999999999998 121.22940794034527 L 13.675999999999998 114.82940794034526 L 14.683999999999997 114.82940794034526 L 14.683999999999997 121.22940794034527 Z M 15.187999999999999 119.54540794034527 L 15.187999999999999 118.62140794034526 L 15.655999999999999 118.62140794034526 L 15.655999999999999 119.54540794034527 Z M 16.195999999999998 119.81740794034526 C 16.188 119.38807460701193, 16.182666666666666 118.97140794034527, 16.18 118.56740794034526 C 16.177333333333333 118.16340794034525, 16.177999999999997 117.76807460701193, 16.182 117.38140794034527 C 16.186 116.99474127367861, 16.190666666666665 116.61340794034527, 16.195999999999998 116.23740794034526 C 16.20933333333333 115.79740794034527, 16.333999999999996 115.45207460701192, 16.569999999999997 115.20140794034526 C 16.805999999999997 114.9507412736786, 17.142666666666663 114.80540794034528, 17.58 114.76540794034527 L 17.58 115.65340794034528 C 17.382666666666665 115.70940794034527, 17.281333333333333 115.83874127367861, 17.275999999999996 116.04140794034527 C 17.262666666666664 116.41207460701193, 17.25333333333333 116.76007460701192, 17.247999999999998 117.08540794034526 C 17.242666666666665 117.41074127367858, 17.24 117.72740794034526, 17.24 118.03540794034527 C 17.24 118.34340794034527, 17.242666666666665 118.65807460701194, 17.247999999999998 118.97940794034527 C 17.25333333333333 119.3007412736786, 17.262666666666664 119.64407460701193, 17.275999999999996 120.00940794034527 C 17.281333333333333 120.21740794034527, 17.382666666666665 120.34940794034526, 17.58 120.40540794034527 L 17.58 121.29340794034526 C 17.142666666666663 121.25340794034527, 16.805999999999997 121.10740794034527, 16.569999999999997 120.85540794034527 C 16.333999999999996 120.60340794034528, 16.20933333333333 120.25740794034527, 16.195999999999998 119.81740794034526 Z M 18.084 121.29340794034526 L 18.084 120.40140794034527 C 18.268 120.34807460701194, 18.366666666666667 120.22407460701194, 18.38 120.02940794034527 C 18.398666666666664 119.5627412736786, 18.410666666666664 119.11407460701193, 18.415999999999997 118.68340794034526 C 18.42133333333333 118.2527412736786, 18.42133333333333 117.82207460701193, 18.415999999999997 117.39140794034527 C 18.410666666666664 116.9607412736786, 18.398666666666664 116.50807460701193, 18.38 116.03340794034527 C 18.374666666666666 115.83874127367861, 18.276 115.71207460701194, 18.084 115.65340794034528 L 18.084 114.76540794034527 C 18.513333333333332 114.80540794034528, 18.846666666666664 114.9507412736786, 19.083999999999996 115.20140794034526 C 19.32133333333333 115.45207460701192, 19.44533333333333 115.79740794034527, 19.456 116.23740794034526 C 19.466666666666665 116.55207460701193, 19.474666666666664 116.86207460701193, 19.479999999999997 117.16740794034527 C 19.48533333333333 117.47274127367861, 19.488 117.77340794034527, 19.488 118.06940794034527 C 19.488 118.36540794034528, 19.48533333333333 118.6587412736786, 19.479999999999997 118.94940794034527 C 19.474666666666664 119.24007460701193, 19.466666666666665 119.52940794034527, 19.456 119.81740794034526 C 19.439999999999998 120.26807460701193, 19.311999999999998 120.6167412736786, 19.072 120.86340794034527 C 18.831999999999997 121.11007460701194, 18.502666666666663 121.25340794034527, 18.084 121.29340794034526 Z M 21.944 121.22940794034527 L 21.944 114.82940794034526 L 23.003999999999998 114.82940794034526 L 23.003999999999998 121.22940794034527 Z " stroke="none" fill-rule="nonzero" fill="#000000" fill-opacity="1" transform="matrix(1,0,0,1,5.05,13.314)" id="text40 l" />
  <path d="M 0 114.0774474109889 L 10 114.0774474109889 L 10 115.5774474109889 L 0 115.5774474109889 Z " stroke="none" fill-rule="evenodd" fill="#000000" fill-opacity="1" transform="matrix(1,0,0,1,5.05,13.314)" id="mark41 l" />
  <path d="M 0 105.87548688163258 L 10 105.87548688163258 L 10 107.37548688163258 L 0 107.37548688163258 Z " stroke="none" fill-rule="evenodd" fill="#000000" fill-opacity="1" transform="matrix(1,0,0,1,5.05,13.314)" id="mark42 l" />
  <path d="M 0 97.67352635227621 L 10 97.67352635227621 L 10 99.17352635227621 L 0 99.17352635227621 Z " stroke="none" fill-rule="evenodd" fill="#000000" fill-opacity="1" transform="matrix(1,0,0,1,5.05,13.314)" id="mark43 l" />
  <path d="M 0 89.47156582291984 L 10 89.47156582291984 L 10 90.97156582291984 L 0 90.97156582291984 Z " stroke="none" fill-rule="evenodd" fill="#000000" fill-opacity="1" transform="matrix(1,0,0,1,5.05,13.314)" id="mark44 l" />
  <path d="M 0 81.26960529356353 L 25 81.26960529356353 L 25 82.76960529356353 L 0 82.76960529356353 Z " stroke="none" fill-rule="evenodd" fill="#000000" fill-opacity="1" transform="matrix(1,0,0,1,5.05,13.314)" id="mark45 l" />
  <path d="M 11.748 78.50360529356354 L 11.748 77.62760529356353 L 12.463999999999999 75.74760529356354 L 13.503999999999998 75.74760529356354 L 12.78 77.57960529356353 L 13.18 77.57960529356353 L 13.18 78.50360529356354 Z M 13.684 80.18760529356354 L 13.684 73.78760529356353 L 14.691999999999998 73.78760529356353 L 14.691999999999998 80.18760529356354 Z M 15.195999999999998 78.50360529356354 L 15.195999999999998 77.57960529356353 L 15.663999999999998 77.57960529356353 L 15.663999999999998 78.50360529356354 Z M 16.18 78.77160529356354 C 16.174666666666667 78.5982719602302, 16.173333333333332 78.45893862689687, 16.176 78.35360529356353 C 16.178666666666665 78.2482719602302, 16.181333333333335 78.1462719602302, 16.183999999999997 78.04760529356354 L 17.264 78.04760529356354 C 17.256 78.12493862689686, 17.25 78.22093862689687, 17.246 78.33560529356353 C 17.241999999999997 78.4502719602302, 17.240666666666666 78.56093862689687, 17.241999999999997 78.66760529356354 C 17.243333333333332 78.77427196023021, 17.246666666666666 78.85427196023021, 17.252 78.90760529356353 C 17.262666666666668 79.02760529356354, 17.297333333333334 79.12560529356354, 17.355999999999998 79.20160529356353 C 17.414666666666665 79.27760529356354, 17.497333333333334 79.33160529356354, 17.604 79.36360529356354 L 17.604 80.25560529356353 C 17.110666666666663 80.2182719602302, 16.75333333333333 80.08360529356354, 16.532 79.85160529356354 C 16.310666666666666 79.61960529356354, 16.19333333333333 79.25960529356354, 16.18 78.77160529356354 Z M 16.279999999999998 77.43560529356354 L 16.279999999999998 73.78760529356353 L 17.348 73.78760529356353 L 17.348 77.43560529356354 Z M 17.852 77.01160529356353 L 17.852 76.25560529356353 C 17.929333333333332 76.21560529356353, 18.014666666666667 76.18360529356353, 18.107999999999997 76.15960529356353 C 18.20133333333333 76.13560529356354, 18.301333333333332 76.12360529356354, 18.407999999999998 76.12360529356354 C 18.773333333333333 76.12360529356354, 19.047333333333334 76.23893862689687, 19.23 76.46960529356353 C 19.412666666666667 76.7002719602302, 19.514666666666663 77.0142719602302, 19.535999999999998 77.41160529356354 C 19.546666666666667 77.57160529356354, 19.55333333333333 77.7302719602302, 19.555999999999997 77.88760529356354 C 19.558666666666664 78.04493862689688, 19.557333333333332 78.1982719602302, 19.552 78.34760529356353 C 19.546666666666667 78.49693862689686, 19.538666666666668 78.63693862689686, 19.528 78.76760529356353 C 19.482666666666667 79.2662719602302, 19.353333333333335 79.63160529356354, 19.14 79.86360529356354 C 18.926666666666666 80.09560529356354, 18.581333333333333 80.2262719602302, 18.104 80.25560529356353 L 18.104 79.36360529356354 C 18.21333333333333 79.33427196023021, 18.296 79.28160529356354, 18.352 79.20560529356354 C 18.408 79.12960529356353, 18.44 79.0302719602302, 18.448 78.90760529356353 C 18.471999999999998 78.61693862689687, 18.485999999999997 78.35560529356354, 18.49 78.12360529356354 C 18.494 77.89160529356353, 18.485333333333333 77.6702719602302, 18.464 77.45960529356354 C 18.447999999999997 77.30493862689687, 18.396666666666665 77.18960529356355, 18.31 77.11360529356354 C 18.223333333333333 77.03760529356353, 18.090666666666664 76.99960529356353, 17.912 76.99960529356353 C 17.901333333333334 76.99960529356353, 17.890666666666668 77.00093862689687, 17.88 77.00360529356354 C 17.86933333333333 77.0062719602302, 17.86 77.00893862689686, 17.852 77.01160529356353 Z M 17.852 74.71960529356353 L 17.852 73.78760529356353 L 19.439999999999998 73.78760529356353 L 19.439999999999998 74.71960529356353 Z M 21.944 80.18760529356354 L 21.944 73.78760529356353 L 23.003999999999998 73.78760529356353 L 23.003999999999998 80.18760529356354 Z " stroke="none" fill-rule="nonzero" fill="#000000" fill-opacity="1" transform="matrix(1,0,0,1,5.05,13.314)" id="text45 l" />
  <path d="M 0 73.06764476420716 L 10 73.06764476420716 L 10 74.56764476420716 L 0 74.56764476420716 Z " stroke="none" fill-rule="evenodd" fill="#000000" fill-opacity="1" transform="matrix(1,0,0,1,5.05,13.314)" id="mark46 l" />
  <path d="M 0 64.86568423485079 L 10 64.86568423485079 L 10 66.36568423485079 L 0 66.36568423485079 Z " stroke="none" fill-rule="evenodd" fill="#000000" fill-opacity="1" transform="matrix(1,0,0,1,5.05,13.314)" id="mark47 l" />
  <path d="M 0 56.663723705494476 L 10 56.663723705494476 L 10 58.163723705494476 L 0 58.163723705494476 Z " stroke="none" fill-rule="evenodd" fill="#000000" fill-opacity="1" transform="matrix(1,0,0,1,5.05,13.314)" id="mark48 l" />
  <path d="M 0 48.461763176138106 L 10 48.461763176138106 L 10 49.961763176138106 L 0 49.961763176138106 Z " stroke="none" fill-rule="evenodd" fill="#000000" fill-opacity="1" transform="matrix(1,0,0,1,5.05,13.314)" id="mark49 l" />
  <path d="M 0 40.259802646781736 L 25 40.259802646781736 L 25 41.759802646781736 L 0 41.759802646781736 Z " stroke="none" fill-rule="evenodd" fill="#000000" fill-opacity="1" transform="matrix(1,0,0,1,5.05,13.314)" id="mark50 l" />
  <path d="M 12.204 37.79380264678174 C 12.198666666666668 37.6204693134484, 12.197333333333333 37.48113598011507, 12.2 37.375802646781736 C 12.202666666666667 37.27046931344841, 12.205333333333336 37.16846931344841, 12.208 37.06980264678174 L 13.288 37.06980264678174 C 13.280000000000001 37.14713598011507, 13.274000000000001 37.24313598011507, 13.27 37.35780264678174 C 13.265999999999998 37.47246931344841, 13.264666666666667 37.583135980115074, 13.266 37.689802646781736 C 13.267333333333333 37.796469313448405, 13.270666666666667 37.8764693134484, 13.276 37.92980264678174 C 13.286666666666665 38.049802646781735, 13.321333333333332 38.14780264678174, 13.379999999999999 38.22380264678174 C 13.438666666666666 38.29980264678174, 13.521333333333335 38.35380264678174, 13.628 38.38580264678174 L 13.628 39.27780264678174 C 13.134666666666668 39.24046931344841, 12.777333333333335 39.10580264678174, 12.556 38.87380264678174 C 12.334666666666667 38.64180264678174, 12.217333333333332 38.28180264678174, 12.204 37.79380264678174 Z M 12.304 36.45780264678174 L 12.304 32.80980264678174 L 13.372 32.80980264678174 L 13.372 36.45780264678174 Z M 13.876 36.03380264678174 L 13.876 35.27780264678174 C 13.953333333333333 35.23780264678174, 14.038666666666668 35.20580264678174, 14.132 35.18180264678174 C 14.225333333333333 35.15780264678174, 14.325333333333333 35.14580264678174, 14.432 35.14580264678174 C 14.797333333333334 35.14580264678174, 15.071333333333332 35.26113598011507, 15.254 35.491802646781736 C 15.436666666666667 35.72246931344841, 15.538666666666668 36.03646931344841, 15.56 36.43380264678174 C 15.570666666666668 36.59380264678174, 15.577333333333334 36.75246931344841, 15.58 36.90980264678174 C 15.582666666666666 37.067135980115076, 15.581333333333333 37.220469313448405, 15.576 37.369802646781736 C 15.570666666666666 37.519135980115074, 15.562666666666665 37.659135980115074, 15.552 37.78980264678174 C 15.506666666666668 38.28846931344841, 15.377333333333333 38.65380264678174, 15.164 38.88580264678174 C 14.950666666666667 39.11780264678174, 14.605333333333332 39.2484693134484, 14.128 39.27780264678174 L 14.128 38.38580264678174 C 14.237333333333334 38.35646931344841, 14.32 38.30380264678174, 14.376 38.22780264678174 C 14.432 38.15180264678174, 14.464 38.052469313448405, 14.472 37.92980264678174 C 14.495999999999999 37.63913598011507, 14.509999999999998 37.37780264678174, 14.514 37.14580264678174 C 14.518 36.91380264678174, 14.509333333333334 36.692469313448406, 14.488 36.48180264678174 C 14.472000000000001 36.327135980115074, 14.420666666666666 36.21180264678174, 14.334 36.13580264678174 C 14.247333333333334 36.05980264678174, 14.114666666666666 36.02180264678174, 13.936 36.02180264678174 C 13.925333333333333 36.02180264678174, 13.914666666666665 36.02313598011507, 13.904 36.02580264678174 C 13.893333333333334 36.02846931344841, 13.884 36.031135980115074, 13.876 36.03380264678174 Z M 13.876 33.741802646781736 L 13.876 32.80980264678174 L 15.464 32.80980264678174 L 15.464 33.741802646781736 Z M 16.196 37.79780264678174 C 16.188000000000002 37.36846931344841, 16.182666666666666 36.95180264678174, 16.18 36.54780264678174 C 16.177333333333333 36.14380264678174, 16.177999999999997 35.74846931344841, 16.182 35.36180264678174 C 16.186 34.97513598011507, 16.190666666666665 34.59380264678174, 16.196 34.21780264678174 C 16.209333333333333 33.77780264678174, 16.334000000000003 33.43246931344841, 16.57 33.18180264678174 C 16.805999999999997 32.93113598011507, 17.142666666666663 32.78580264678175, 17.58 32.74580264678174 L 17.58 33.63380264678174 C 17.382666666666665 33.68980264678174, 17.281333333333333 33.81913598011507, 17.276 34.02180264678174 C 17.262666666666668 34.39246931344841, 17.253333333333334 34.74046931344841, 17.248 35.06580264678174 C 17.242666666666665 35.391135980115074, 17.24 35.70780264678174, 17.24 36.01580264678174 C 17.24 36.323802646781736, 17.242666666666665 36.638469313448404, 17.248 36.95980264678174 C 17.253333333333334 37.281135980115074, 17.262666666666668 37.62446931344841, 17.276 37.98980264678174 C 17.281333333333333 38.19780264678174, 17.382666666666665 38.32980264678174, 17.58 38.38580264678174 L 17.58 39.27380264678174 C 17.142666666666663 39.23380264678174, 16.805999999999997 39.08780264678174, 16.57 38.83580264678174 C 16.334000000000003 38.583802646781734, 16.209333333333333 38.23780264678174, 16.196 37.79780264678174 Z M 18.084 39.27380264678174 L 18.084 38.381802646781736 C 18.268 38.3284693134484, 18.366666666666667 38.2044693134484, 18.38 38.009802646781736 C 18.398666666666667 37.54313598011507, 18.410666666666668 37.09446931344841, 18.416 36.66380264678174 C 18.421333333333333 36.23313598011507, 18.421333333333333 35.802469313448405, 18.416 35.37180264678174 C 18.410666666666668 34.94113598011507, 18.398666666666667 34.488469313448405, 18.38 34.01380264678174 C 18.374666666666666 33.81913598011507, 18.276 33.692469313448406, 18.084 33.63380264678174 L 18.084 32.74580264678174 C 18.513333333333335 32.78580264678175, 18.846666666666668 32.93113598011507, 19.084 33.18180264678174 C 19.321333333333335 33.43246931344841, 19.445333333333334 33.77780264678174, 19.456 34.21780264678174 C 19.46666666666667 34.53246931344841, 19.474666666666668 34.84246931344841, 19.48 35.14780264678174 C 19.485333333333333 35.45313598011507, 19.488 35.75380264678174, 19.488 36.04980264678174 C 19.488 36.34580264678174, 19.485333333333333 36.63913598011507, 19.48 36.92980264678174 C 19.474666666666668 37.220469313448405, 19.46666666666667 37.509802646781736, 19.456 37.79780264678174 C 19.439999999999998 38.24846931344841, 19.311999999999998 38.59713598011508, 19.072 38.84380264678174 C 18.832 39.0904693134484, 18.502666666666666 39.23380264678174, 18.084 39.27380264678174 Z M 21.944 39.20980264678174 L 21.944 32.80980264678174 L 23.003999999999998 32.80980264678174 L 23.003999999999998 39.20980264678174 Z " stroke="none" fill-rule="nonzero" fill="#000000" fill-opacity="1" transform="matrix(1,0,0,1,5.05,13.314)" id="text50 l" />
  <path d="M 0 32.05784211742542 L 10 32.05784211742542 L 10 33.55784211742542 L 0 33.55784211742542 Z " stroke="none" fill-rule="evenodd" fill="#000000" fill-opacity="1" transform="matrix(1,0,0,1,5.05,13.314)" id="mark51 l" />
  <path d="M 0 23.855881588069053 L 10 23.855881588069053 L 10 25.355881588069053 L 0 25.355881588069053 Z " stroke="none" fill-rule="evenodd" fill="#000000" fill-opacity="1" transform="matrix(1,0,0,1,5.05,13.314)" id="mark52 l" />
  <path d="M 0 15.653921058712683 L 10 15.653921058712683 L 10 17.153921058712683 L 0 17.153921058712683 Z " stroke="none" fill-rule="evenodd" fill="#000000" fill-opacity="1" transform="matrix(1,0,0,1,5.05,13.314)" id="mark53 l" />
  <path d="M 0 7.451960529356313 L 10 7.451960529356313 L 10 8.951960529356313 L 0 8.951960529356313 Z " stroke="none" fill-rule="evenodd" fill="#000000" fill-opacity="1" transform="matrix(1,0,0,1,5.05,13.314)" id="mark54 l" />
  <path d="M 0 -0.75 L 25 -0.75 L 25 0.75 L 0 0.75 Z " stroke="none" fill-rule="evenodd" fill="#000000" fill-opacity="1" transform="matrix(1,0,0,1,5.05,13.314)" id="mark55 l" />
  <path d="M 12.212 -3.2479999999999998 C 12.206666666666667 -3.421333333333333, 12.205333333333332 -3.5606666666666666, 12.207999999999998 -3.666 C 12.210666666666667 -3.771333333333333, 12.213333333333335 -3.873333333333333, 12.216 -3.972 L 13.296 -3.972 C 13.288 -3.8946666666666667, 13.282 -3.7986666666666666, 13.277999999999999 -3.6839999999999997 C 13.273999999999997 -3.569333333333333, 13.272666666666666 -3.4586666666666663, 13.274 -3.352 C 13.275333333333332 -3.2453333333333334, 13.278666666666666 -3.1653333333333338, 13.283999999999999 -3.112 C 13.294666666666664 -2.992, 13.32933333333333 -2.8939999999999997, 13.387999999999998 -2.8179999999999996 C 13.446666666666665 -2.7419999999999995, 13.529333333333334 -2.6879999999999997, 13.636 -2.6559999999999997 L 13.636 -1.7639999999999998 C 13.142666666666667 -1.801333333333333, 12.785333333333334 -1.9359999999999997, 12.563999999999998 -2.1679999999999997 C 12.342666666666666 -2.4, 12.225333333333332 -2.76, 12.212 -3.2479999999999998 Z M 12.312 -4.584 L 12.312 -8.232 L 13.379999999999999 -8.232 L 13.379999999999999 -4.584 Z M 13.883999999999999 -5.008 L 13.883999999999999 -5.763999999999999 C 13.961333333333332 -5.804, 14.046666666666667 -5.836, 14.139999999999999 -5.86 C 14.233333333333333 -5.884, 14.333333333333332 -5.896, 14.44 -5.896 C 14.805333333333333 -5.896, 15.07933333333333 -5.780666666666667, 15.261999999999999 -5.55 C 15.444666666666667 -5.319333333333333, 15.546666666666667 -5.005333333333333, 15.568 -4.608 C 15.578666666666667 -4.448, 15.585333333333333 -4.289333333333333, 15.588 -4.132 C 15.590666666666666 -3.974666666666667, 15.589333333333332 -3.8213333333333335, 15.584 -3.6719999999999997 C 15.578666666666665 -3.522666666666667, 15.570666666666664 -3.3826666666666663, 15.559999999999999 -3.252 C 15.514666666666667 -2.753333333333333, 15.385333333333332 -2.388, 15.171999999999999 -2.1559999999999997 C 14.958666666666666 -1.9239999999999997, 14.613333333333332 -1.793333333333333, 14.136 -1.7639999999999998 L 14.136 -2.6559999999999997 C 14.245333333333333 -2.685333333333333, 14.328 -2.738, 14.383999999999999 -2.814 C 14.44 -2.89, 14.472 -2.9893333333333336, 14.479999999999999 -3.112 C 14.503999999999998 -3.4026666666666667, 14.517999999999997 -3.664, 14.521999999999998 -3.896 C 14.526 -4.128, 14.517333333333333 -4.349333333333333, 14.495999999999999 -4.5600000000000005 C 14.48 -4.714666666666667, 14.428666666666665 -4.83, 14.341999999999999 -4.906 C 14.255333333333333 -4.981999999999999, 14.122666666666666 -5.02, 13.943999999999999 -5.02 C 13.933333333333332 -5.02, 13.922666666666665 -5.018666666666666, 13.911999999999999 -5.016 C 13.901333333333334 -5.013333333333334, 13.892 -5.010666666666667, 13.883999999999999 -5.008 Z M 13.883999999999999 -7.3 L 13.883999999999999 -8.232 L 15.472 -8.232 L 15.472 -7.3 Z M 16.18 -3.2479999999999998 C 16.174666666666667 -3.421333333333333, 16.173333333333332 -3.5606666666666666, 16.176 -3.666 C 16.178666666666665 -3.771333333333333, 16.181333333333335 -3.873333333333333, 16.183999999999997 -3.972 L 17.264 -3.972 C 17.256 -3.8946666666666667, 17.25 -3.7986666666666666, 17.246 -3.6839999999999997 C 17.241999999999997 -3.569333333333333, 17.240666666666666 -3.4586666666666663, 17.241999999999997 -3.352 C 17.243333333333332 -3.2453333333333334, 17.246666666666666 -3.1653333333333338, 17.252 -3.112 C 17.262666666666668 -2.992, 17.297333333333334 -2.8939999999999997, 17.355999999999998 -2.8179999999999996 C 17.414666666666665 -2.7419999999999995, 17.497333333333334 -2.6879999999999997, 17.604 -2.6559999999999997 L 17.604 -1.7639999999999998 C 17.110666666666663 -1.801333333333333, 16.75333333333333 -1.9359999999999997, 16.532 -2.1679999999999997 C 16.310666666666666 -2.4, 16.19333333333333 -2.76, 16.18 -3.2479999999999998 Z M 16.279999999999998 -4.584 L 16.279999999999998 -8.232 L 17.348 -8.232 L 17.348 -4.584 Z M 17.852 -5.008 L 17.852 -5.763999999999999 C 17.929333333333332 -5.804, 18.014666666666667 -5.836, 18.107999999999997 -5.86 C 18.20133333333333 -5.884, 18.301333333333332 -5.896, 18.407999999999998 -5.896 C 18.773333333333333 -5.896, 19.047333333333334 -5.780666666666667, 19.23 -5.55 C 19.412666666666667 -5.319333333333333, 19.514666666666663 -5.005333333333333, 19.535999999999998 -4.608 C 19.546666666666667 -4.448, 19.55333333333333 -4.289333333333333, 19.555999999999997 -4.132 C 19.558666666666664 -3.974666666666667, 19.557333333333332 -3.8213333333333335, 19.552 -3.6719999999999997 C 19.546666666666667 -3.522666666666667, 19.538666666666668 -3.3826666666666663, 19.528 -3.252 C 19.482666666666667 -2.753333333333333, 19.353333333333335 -2.388, 19.14 -2.1559999999999997 C 18.926666666666666 -1.9239999999999997, 18.581333333333333 -1.793333333333333, 18.104 -1.7639999999999998 L 18.104 -2.6559999999999997 C 18.21333333333333 -2.685333333333333, 18.296 -2.738, 18.352 -2.814 C 18.408 -2.89, 18.44 -2.9893333333333336, 18.448 -3.112 C 18.471999999999998 -3.4026666666666667, 18.485999999999997 -3.664, 18.49 -3.896 C 18.494 -4.128, 18.485333333333333 -4.349333333333333, 18.464 -4.5600000000000005 C 18.447999999999997 -4.714666666666667, 18.396666666666665 -4.83, 18.31 -4.906 C 18.223333333333333 -4.981999999999999, 18.090666666666664 -5.02, 17.912 -5.02 C 17.901333333333334 -5.02, 17.890666666666668 -5.018666666666666, 17.88 -5.016 C 17.86933333333333 -5.013333333333334, 17.86 -5.010666666666667, 17.852 -5.008 Z M 17.852 -7.3 L 17.852 -8.232 L 19.439999999999998 -8.232 L 19.439999999999998 -7.3 Z M 21.944 -1.8319999999999999 L 21.944 -8.232 L 23.003999999999998 -8.232 L 23.003999999999998 -1.8319999999999999 Z " stroke="none" fill-rule="nonzero" fill="#000000" fill-opacity="1" transform="matrix(1,0,0,1,5.05,13.314)" id="text55 l" />
  <path d="M -5 -13.264 L 30 -13.264 L 30 449.641868585243 L -5 449.641868585243 Z " stroke="#FF0000" stroke-opacity="1" stroke-width="0.1" stroke-linecap="butt" stroke-linejoin="miter" fill="none" transform="matrix(1,0,0,1,5.05,13.314)" />
</svg>