<?xml version="1.0" encoding="UTF-8"?>
<svg xmlns:xlink="http://www.w3.org/1999/xlink" viewBox="0 0 35.1 288.92701499964545" version="1.1" style="font-synthesis: none;" width="35.1mm" height="288.92701499964545mm" xmlns="http://www.w3.org/2000/svg">
  <defs />
  <style>	</style>
  <path d="M 0 0 L 35.1 0 L 35.1 288.92701499964545 L 0 288.92701499964545 Z " stroke="none" fill-rule="nonzero" fill="#FFFFFF" fill-opacity="1" transform="matrix(1,0,0,1,0,0)" />
  <path d="M 0 268.04501499964545 L 10 268.04501499964545 L 10 269.54501499964545 L 0 269.54501499964545 Z " stroke="none" fill-rule="evenodd" fill="#000000" fill-opacity="1" transform="matrix(1,0,0,1,5.05,13.314)" id="mark1 l" />
  <path d="M 0 253.89790894703253 L 10 253.89790894703253 L 10 255.39790894703253 L 0 255.39790894703253 Z " stroke="none" fill-rule="evenodd" fill="#000000" fill-opacity="1" transform="matrix(1,0,0,1,5.05,13.314)" id="mark2 l" />
  <path d="M 0 239.7508028944196 L 10 239.7508028944196 L 10 241.2508028944196 L 0 241.2508028944196 Z " stroke="none" fill-rule="evenodd" fill="#000000" fill-opacity="1" transform="matrix(1,0,0,1,5.05,13.314)" id="mark3 l" />
  <path d="M 0 225.60369684180668 L 10 225.60369684180668 L 10 227.10369684180668 L 0 227.10369684180668 Z " stroke="none" fill-rule="evenodd" fill="#000000" fill-opacity="1" transform="matrix(1,0,0,1,5.05,13.314)" id="mark4 l" />
  <path d="M 0 211.45659078919377 L 25 211.45659078919377 L 25 212.95659078919377 L 0 212.95659078919377 Z " stroke="none" fill-rule="evenodd" fill="#000000" fill-opacity="1" transform="matrix(1,0,0,1,5.05,13.314)" id="mark5 l" />
  <path d="M 16.18 208.95859078919378 C 16.174666666666667 208.78525745586046, 16.173333333333332 208.6459241225271, 16.176 208.54059078919377 C 16.178666666666665 208.43525745586044, 16.181333333333335 208.33325745586046, 16.183999999999997 208.2345907891938 L 17.264 208.2345907891938 C 17.256 208.3119241225271, 17.25 208.4079241225271, 17.246 208.52259078919377 C 17.241999999999997 208.63725745586044, 17.240666666666666 208.7479241225271, 17.241999999999997 208.85459078919376 C 17.243333333333332 208.96125745586042, 17.246666666666666 209.04125745586043, 17.252 209.09459078919377 C 17.262666666666668 209.21459078919378, 17.297333333333334 209.3125907891938, 17.355999999999998 209.38859078919378 C 17.414666666666665 209.46459078919378, 17.497333333333334 209.51859078919375, 17.604 209.55059078919376 L 17.604 210.4425907891938 C 17.110666666666663 210.40525745586044, 16.75333333333333 210.27059078919376, 16.532 210.03859078919376 C 16.310666666666666 209.80659078919376, 16.19333333333333 209.44659078919375, 16.18 208.95859078919378 Z M 16.279999999999998 207.62259078919377 L 16.279999999999998 203.97459078919377 L 17.348 203.97459078919377 L 17.348 207.62259078919377 Z M 17.852 207.1985907891938 L 17.852 206.4425907891938 C 17.929333333333332 206.40259078919377, 18.014666666666667 206.37059078919378, 18.107999999999997 206.34659078919378 C 18.20133333333333 206.32259078919378, 18.301333333333332 206.31059078919378, 18.407999999999998 206.31059078919378 C 18.773333333333333 206.31059078919378, 19.047333333333334 206.4259241225271, 19.23 206.65659078919379 C 19.412666666666667 206.88725745586046, 19.514666666666663 207.20125745586046, 19.535999999999998 207.59859078919376 C 19.546666666666667 207.75859078919376, 19.55333333333333 207.9172574558604, 19.555999999999997 208.07459078919376 C 19.558666666666664 208.23192412252712, 19.557333333333332 208.38525745586043, 19.552 208.53459078919377 C 19.546666666666667 208.68392412252712, 19.538666666666668 208.8239241225271, 19.528 208.9545907891938 C 19.482666666666667 209.45325745586047, 19.353333333333335 209.81859078919376, 19.14 210.05059078919376 C 18.926666666666666 210.28259078919376, 18.581333333333333 210.41325745586045, 18.104 210.4425907891938 L 18.104 209.55059078919376 C 18.21333333333333 209.52125745586045, 18.296 209.4685907891938, 18.352 209.39259078919378 C 18.408 209.31659078919375, 18.44 209.21725745586042, 18.448 209.09459078919377 C 18.471999999999998 208.80392412252712, 18.485999999999997 208.54259078919378, 18.49 208.31059078919378 C 18.494 208.07859078919378, 18.485333333333333 207.85725745586046, 18.464 207.64659078919377 C 18.447999999999997 207.4919241225271, 18.396666666666665 207.37659078919376, 18.31 207.30059078919376 C 18.223333333333333 207.22459078919377, 18.090666666666664 207.18659078919376, 17.912 207.1865907891938 C 17.901333333333334 207.18659078919376, 17.890666666666668 207.1879241225271, 17.88 207.19059078919378 C 17.86933333333333 207.19325745586045, 17.86 207.19592412252712, 17.852 207.1985907891938 Z M 17.852 204.90659078919379 L 17.852 203.97459078919377 L 19.439999999999998 203.97459078919377 L 19.439999999999998 204.90659078919379 Z M 21.944 210.37459078919377 L 21.944 203.97459078919377 L 23.003999999999998 203.97459078919377 L 23.003999999999998 210.37459078919377 Z " stroke="none" fill-rule="nonzero" fill="#000000" fill-opacity="1" transform="matrix(1,0,0,1,5.05,13.314)" id="text5 l" />
  <path d="M 0 197.30948473658083 L 10 197.30948473658083 L 10 198.80948473658083 L 0 198.80948473658083 Z " stroke="none" fill-rule="evenodd" fill="#000000" fill-opacity="1" transform="matrix(1,0,0,1,5.05,13.314)" id="mark6 l" />
  <path d="M 0 183.16237868396792 L 10 183.16237868396792 L 10 184.66237868396792 L 0 184.66237868396792 Z " stroke="none" fill-rule="evenodd" fill="#000000" fill-opacity="1" transform="matrix(1,0,0,1,5.05,13.314)" id="mark7 l" />
  <path d="M 0 169.015272631355 L 10 169.015272631355 L 10 170.515272631355 L 0 170.515272631355 Z " stroke="none" fill-rule="evenodd" fill="#000000" fill-opacity="1" transform="matrix(1,0,0,1,5.05,13.314)" id="mark8 l" />
  <path d="M 0 154.8681665787421 L 10 154.8681665787421 L 10 156.3681665787421 L 0 156.3681665787421 Z " stroke="none" fill-rule="evenodd" fill="#000000" fill-opacity="1" transform="matrix(1,0,0,1,5.05,13.314)" id="mark9 l" />
  <path d="M 0 140.72106052612918 L 25 140.72106052612918 L 25 142.22106052612918 L 0 142.22106052612918 Z " stroke="none" fill-rule="evenodd" fill="#000000" fill-opacity="1" transform="matrix(1,0,0,1,5.05,13.314)" id="mark10 l" />
  <path d="M 14.323999999999998 139.6710605261292 L 14.323999999999998 134.2270605261292 L 13.871999999999998 134.2270605261292 L 13.839999999999998 133.84706052612918 L 14.543999999999999 133.2710605261292 L 15.424 133.2710605261292 L 15.424 139.6710605261292 Z M 16.196 138.2590605261292 C 16.188000000000002 137.82972719279584, 16.182666666666666 137.4130605261292, 16.18 137.0090605261292 C 16.177333333333333 136.6050605261292, 16.177999999999997 136.20972719279587, 16.182 135.82306052612918 C 16.186 135.43639385946253, 16.190666666666665 135.0550605261292, 16.196 134.6790605261292 C 16.209333333333333 134.2390605261292, 16.334000000000003 133.89372719279586, 16.57 133.6430605261292 C 16.805999999999997 133.39239385946254, 17.142666666666663 133.2470605261292, 17.58 133.2070605261292 L 17.58 134.0950605261292 C 17.382666666666665 134.1510605261292, 17.281333333333333 134.28039385946255, 17.276 134.4830605261292 C 17.262666666666668 134.85372719279587, 17.253333333333334 135.20172719279586, 17.248 135.5270605261292 C 17.242666666666665 135.85239385946252, 17.24 136.1690605261292, 17.24 136.4770605261292 C 17.24 136.7850605261292, 17.242666666666665 137.09972719279585, 17.248 137.4210605261292 C 17.253333333333334 137.74239385946254, 17.262666666666668 138.08572719279587, 17.276 138.4510605261292 C 17.281333333333333 138.6590605261292, 17.382666666666665 138.7910605261292, 17.58 138.84706052612918 L 17.58 139.7350605261292 C 17.142666666666663 139.6950605261292, 16.805999999999997 139.54906052612918, 16.57 139.2970605261292 C 16.334000000000003 139.0450605261292, 16.209333333333333 138.6990605261292, 16.196 138.2590605261292 Z M 18.084 139.7350605261292 L 18.084 138.8430605261292 C 18.268 138.78972719279585, 18.366666666666667 138.66572719279588, 18.38 138.4710605261292 C 18.398666666666667 138.00439385946254, 18.410666666666668 137.55572719279587, 18.416 137.1250605261292 C 18.421333333333333 136.69439385946254, 18.421333333333333 136.26372719279584, 18.416 135.8330605261292 C 18.410666666666668 135.4023938594625, 18.398666666666667 134.94972719279585, 18.38 134.4750605261292 C 18.374666666666666 134.28039385946252, 18.276 134.15372719279586, 18.084 134.0950605261292 L 18.084 133.2070605261292 C 18.513333333333335 133.2470605261292, 18.846666666666668 133.39239385946254, 19.084 133.6430605261292 C 19.321333333333335 133.89372719279586, 19.445333333333334 134.2390605261292, 19.456 134.6790605261292 C 19.46666666666667 134.99372719279586, 19.474666666666668 135.30372719279586, 19.48 135.60906052612918 C 19.485333333333333 135.9143938594625, 19.488 136.2150605261292, 19.488 136.5110605261292 C 19.488 136.8070605261292, 19.485333333333333 137.1003938594625, 19.48 137.3910605261292 C 19.474666666666668 137.68172719279588, 19.46666666666667 137.9710605261292, 19.456 138.2590605261292 C 19.439999999999998 138.70972719279587, 19.311999999999998 139.0583938594625, 19.072 139.30506052612918 C 18.832 139.55172719279585, 18.502666666666666 139.6950605261292, 18.084 139.7350605261292 Z M 21.944 139.6710605261292 L 21.944 133.2710605261292 L 23.003999999999998 133.2710605261292 L 23.003999999999998 139.6710605261292 Z " stroke="none" fill-rule="nonzero" fill="#000000" fill-opacity="1" transform="matrix(1,0,0,1,5.05,13.314)" id="text10 l" />
  <path d="M 0 126.57395447351627 L 10 126.57395447351627 L 10 128.07395447351627 L 0 128.07395447351627 Z " stroke="none" fill-rule="evenodd" fill="#000000" fill-opacity="1" transform="matrix(1,0,0,1,5.05,13.314)" id="mark11 l" />
  <path d="M 0 112.42684842090333 L 10 112.42684842090333 L 10 113.92684842090333 L 0 113.92684842090333 Z " stroke="none" fill-rule="evenodd" fill="#000000" fill-opacity="1" transform="matrix(1,0,0,1,5.05,13.314)" id="mark12 l" />
  <path d="M 0 98.27974236829041 L 10 98.27974236829041 L 10 99.77974236829041 L 0 99.77974236829041 Z " stroke="none" fill-rule="evenodd" fill="#000000" fill-opacity="1" transform="matrix(1,0,0,1,5.05,13.314)" id="mark13 l" />
  <path d="M 0 84.1326363156775 L 10 84.1326363156775 L 10 85.6326363156775 L 0 85.6326363156775 Z " stroke="none" fill-rule="evenodd" fill="#000000" fill-opacity="1" transform="matrix(1,0,0,1,5.05,13.314)" id="mark14 l" />
  <path d="M 0 69.98553026306459 L 25 69.98553026306459 L 25 71.48553026306459 L 0 71.48553026306459 Z " stroke="none" fill-rule="evenodd" fill="#000000" fill-opacity="1" transform="matrix(1,0,0,1,5.05,13.314)" id="mark15 l" />
  <path d="M 14.331999999999999 68.9035302630646 L 14.331999999999999 63.45953026306459 L 13.879999999999999 63.45953026306459 L 13.847999999999999 63.0795302630646 L 14.552 62.5035302630646 L 15.432 62.5035302630646 L 15.432 68.9035302630646 Z M 16.18 67.4875302630646 C 16.174666666666667 67.31419692973125, 16.173333333333332 67.17486359639793, 16.176 67.06953026306459 C 16.178666666666665 66.96419692973126, 16.181333333333335 66.86219692973125, 16.183999999999997 66.7635302630646 L 17.264 66.7635302630646 C 17.256 66.84086359639792, 17.25 66.93686359639793, 17.246 67.05153026306459 C 17.241999999999997 67.16619692973126, 17.240666666666666 67.27686359639793, 17.241999999999997 67.3835302630646 C 17.243333333333332 67.49019692973127, 17.246666666666666 67.57019692973125, 17.252 67.6235302630646 C 17.262666666666668 67.7435302630646, 17.297333333333334 67.8415302630646, 17.355999999999998 67.91753026306459 C 17.414666666666665 67.9935302630646, 17.497333333333334 68.0475302630646, 17.604 68.0795302630646 L 17.604 68.9715302630646 C 17.110666666666663 68.93419692973126, 16.75333333333333 68.7995302630646, 16.532 68.5675302630646 C 16.310666666666666 68.3355302630646, 16.19333333333333 67.9755302630646, 16.18 67.4875302630646 Z M 16.279999999999998 66.1515302630646 L 16.279999999999998 62.5035302630646 L 17.348 62.5035302630646 L 17.348 66.1515302630646 Z M 17.852 65.7275302630646 L 17.852 64.9715302630646 C 17.929333333333332 64.93153026306459, 18.014666666666667 64.89953026306459, 18.107999999999997 64.87553026306459 C 18.20133333333333 64.8515302630646, 18.301333333333332 64.8395302630646, 18.407999999999998 64.8395302630646 C 18.773333333333333 64.8395302630646, 19.047333333333334 64.95486359639793, 19.23 65.18553026306459 C 19.412666666666667 65.41619692973126, 19.514666666666663 65.73019692973126, 19.535999999999998 66.1275302630646 C 19.546666666666667 66.2875302630646, 19.55333333333333 66.44619692973126, 19.555999999999997 66.6035302630646 C 19.558666666666664 66.76086359639794, 19.557333333333332 66.91419692973128, 19.552 67.06353026306459 C 19.546666666666667 67.21286359639794, 19.538666666666668 67.35286359639792, 19.528 67.4835302630646 C 19.482666666666667 67.98219692973126, 19.353333333333335 68.3475302630646, 19.14 68.5795302630646 C 18.926666666666666 68.8115302630646, 18.581333333333333 68.94219692973127, 18.104 68.9715302630646 L 18.104 68.0795302630646 C 18.21333333333333 68.05019692973127, 18.296 67.99753026306459, 18.352 67.9215302630646 C 18.408 67.8455302630646, 18.44 67.74619692973127, 18.448 67.6235302630646 C 18.471999999999998 67.33286359639794, 18.485999999999997 67.0715302630646, 18.49 66.8395302630646 C 18.494 66.60753026306459, 18.485333333333333 66.38619692973126, 18.464 66.1755302630646 C 18.447999999999997 66.02086359639793, 18.396666666666665 65.9055302630646, 18.31 65.8295302630646 C 18.223333333333333 65.75353026306459, 18.090666666666664 65.7155302630646, 17.912 65.7155302630646 C 17.901333333333334 65.7155302630646, 17.890666666666668 65.71686359639793, 17.88 65.7195302630646 C 17.86933333333333 65.72219692973125, 17.86 65.72486359639792, 17.852 65.7275302630646 Z M 17.852 63.43553026306459 L 17.852 62.5035302630646 L 19.439999999999998 62.5035302630646 L 19.439999999999998 63.43553026306459 Z M 21.944 68.9035302630646 L 21.944 62.5035302630646 L 23.003999999999998 62.5035302630646 L 23.003999999999998 68.9035302630646 Z " stroke="none" fill-rule="nonzero" fill="#000000" fill-opacity="1" transform="matrix(1,0,0,1,5.05,13.314)" id="text15 l" />
  <path d="M 0 55.83842421045168 L 10 55.83842421045168 L 10 57.33842421045168 L 0 57.33842421045168 Z " stroke="none" fill-rule="evenodd" fill="#000000" fill-opacity="1" transform="matrix(1,0,0,1,5.05,13.314)" id="mark16 l" />
  <path d="M 0 41.69131815783874 L 10 41.69131815783874 L 10 43.19131815783874 L 0 43.19131815783874 Z " stroke="none" fill-rule="evenodd" fill="#000000" fill-opacity="1" transform="matrix(1,0,0,1,5.05,13.314)" id="mark17 l" />
  <path d="M 0 27.544212105225824 L 10 27.544212105225824 L 10 29.044212105225824 L 0 29.044212105225824 Z " stroke="none" fill-rule="evenodd" fill="#000000" fill-opacity="1" transform="matrix(1,0,0,1,5.05,13.314)" id="mark18 l" />
  <path d="M 0 13.397106052612912 L 10 13.397106052612912 L 10 14.897106052612912 L 0 14.897106052612912 Z " stroke="none" fill-rule="evenodd" fill="#000000" fill-opacity="1" transform="matrix(1,0,0,1,5.05,13.314)" id="mark19 l" />
  <path d="M 0 -0.75 L 25 -0.75 L 25 0.75 L 0 0.75 Z " stroke="none" fill-rule="evenodd" fill="#000000" fill-opacity="1" transform="matrix(1,0,0,1,5.05,13.314)" id="mark20 l" />
  <path d="M 12.319999999999999 -1.7999999999999998 C 12.317333333333334 -1.8986666666666663, 12.315333333333331 -1.987333333333333, 12.313999999999998 -2.066 C 12.312666666666665 -2.1446666666666663, 12.311333333333334 -2.2186666666666666, 12.309999999999999 -2.288 C 12.308666666666667 -2.357333333333333, 12.308 -2.429333333333333, 12.308 -2.5039999999999996 C 12.308 -2.5786666666666664, 12.308 -2.663333333333333, 12.308 -2.758 C 12.308 -2.852666666666667, 12.309333333333335 -2.964, 12.312 -3.0919999999999996 C 12.32 -3.3853333333333335, 12.37 -3.647333333333333, 12.462 -3.8779999999999997 C 12.554 -4.108666666666667, 12.687999999999999 -4.314666666666667, 12.863999999999999 -4.4959999999999996 C 13.04 -4.677333333333333, 13.257333333333333 -4.838666666666667, 13.515999999999998 -4.98 L 14.047999999999998 -5.268 C 14.234666666666666 -5.3693333333333335, 14.354 -5.491333333333333, 14.405999999999999 -5.634 C 14.457999999999998 -5.776666666666667, 14.488 -5.910666666666667, 14.495999999999999 -6.036 C 14.506666666666664 -6.182666666666666, 14.512666666666664 -6.339333333333333, 14.514 -6.506 C 14.51533333333333 -6.672666666666667, 14.511999999999997 -6.829333333333334, 14.504 -6.976 C 14.498666666666665 -7.08, 14.468666666666666 -7.165999999999999, 14.413999999999998 -7.233999999999999 C 14.359333333333332 -7.302, 14.279999999999998 -7.350666666666666, 14.175999999999998 -7.38 L 14.175999999999998 -8.268 C 14.663999999999998 -8.236, 15.014 -8.104666666666667, 15.225999999999999 -7.874 C 15.437999999999999 -7.643333333333333, 15.554666666666666 -7.282666666666666, 15.575999999999999 -6.792 C 15.578666666666663 -6.728, 15.580666666666666 -6.6626666666666665, 15.581999999999999 -6.595999999999999 C 15.583333333333332 -6.529333333333334, 15.584 -6.464666666666666, 15.584 -6.402 C 15.584 -6.339333333333332, 15.583333333333332 -6.277333333333333, 15.581999999999999 -6.216 C 15.580666666666666 -6.1546666666666665, 15.578666666666663 -6.094666666666667, 15.575999999999999 -6.036 C 15.565333333333331 -5.750666666666667, 15.512 -5.504, 15.415999999999999 -5.295999999999999 C 15.32 -5.088, 15.19 -4.908, 15.026 -4.756 C 14.862 -4.604, 14.672 -4.468, 14.456 -4.348 L 13.851999999999999 -4.02 C 13.737333333333332 -3.9586666666666663, 13.647333333333332 -3.8746666666666663, 13.581999999999999 -3.768 C 13.516666666666666 -3.6613333333333333, 13.469999999999999 -3.548, 13.441999999999998 -3.428 C 13.413999999999998 -3.308, 13.399999999999999 -3.1959999999999997, 13.399999999999999 -3.0919999999999996 L 13.399999999999999 -1.7999999999999998 Z M 12.328 -5.84 C 12.322666666666667 -5.957333333333333, 12.318666666666665 -6.071999999999999, 12.315999999999999 -6.184 C 12.313333333333333 -6.295999999999999, 12.311333333333334 -6.401999999999999, 12.309999999999999 -6.502 C 12.308666666666667 -6.602, 12.309333333333335 -6.698666666666666, 12.312 -6.792 C 12.330666666666666 -7.279999999999999, 12.447333333333333 -7.639333333333333, 12.661999999999999 -7.87 C 12.876666666666665 -8.100666666666667, 13.213333333333331 -8.233333333333334, 13.671999999999999 -8.268 L 13.671999999999999 -7.3759999999999994 C 13.576 -7.346666666666666, 13.505333333333333 -7.3, 13.459999999999999 -7.236 C 13.414666666666665 -7.172, 13.390666666666664 -7.094666666666667, 13.387999999999998 -7.004 C 13.382666666666665 -6.795999999999999, 13.379333333333333 -6.602666666666666, 13.378 -6.424 C 13.376666666666667 -6.245333333333333, 13.381333333333334 -6.050666666666666, 13.392 -5.84 Z M 13.904 -1.7999999999999998 L 13.904 -2.7319999999999998 L 15.5 -2.7319999999999998 L 15.5 -1.7999999999999998 Z M 16.196 -3.2119999999999997 C 16.188000000000002 -3.641333333333333, 16.182666666666666 -4.058, 16.18 -4.462 C 16.177333333333333 -4.866, 16.177999999999997 -5.261333333333333, 16.182 -5.648 C 16.186 -6.034666666666666, 16.190666666666665 -6.416, 16.196 -6.792 C 16.209333333333333 -7.231999999999999, 16.334000000000003 -7.577333333333334, 16.57 -7.828 C 16.805999999999997 -8.078666666666667, 17.142666666666663 -8.224, 17.58 -8.264 L 17.58 -7.3759999999999994 C 17.382666666666665 -7.32, 17.281333333333333 -7.190666666666667, 17.276 -6.9879999999999995 C 17.262666666666668 -6.617333333333333, 17.253333333333334 -6.269333333333333, 17.248 -5.944 C 17.242666666666665 -5.618666666666666, 17.24 -5.302, 17.24 -4.994 C 17.24 -4.686, 17.242666666666665 -4.371333333333333, 17.248 -4.05 C 17.253333333333334 -3.7286666666666664, 17.262666666666668 -3.3853333333333326, 17.276 -3.0199999999999996 C 17.281333333333333 -2.812, 17.382666666666665 -2.6799999999999997, 17.58 -2.6239999999999997 L 17.58 -1.7359999999999998 C 17.142666666666663 -1.7759999999999998, 16.805999999999997 -1.9219999999999997, 16.57 -2.174 C 16.334000000000003 -2.4259999999999997, 16.209333333333333 -2.772, 16.196 -3.2119999999999997 Z M 18.084 -1.7359999999999998 L 18.084 -2.6279999999999997 C 18.268 -2.681333333333333, 18.366666666666667 -2.8053333333333335, 18.38 -3 C 18.398666666666667 -3.4666666666666663, 18.410666666666668 -3.915333333333333, 18.416 -4.346 C 18.421333333333333 -4.776666666666666, 18.421333333333333 -5.207333333333333, 18.416 -5.638 C 18.410666666666668 -6.068666666666666, 18.398666666666667 -6.521333333333333, 18.38 -6.9959999999999996 C 18.374666666666666 -7.190666666666667, 18.276 -7.317333333333334, 18.084 -7.3759999999999994 L 18.084 -8.264 C 18.513333333333335 -8.224, 18.846666666666668 -8.078666666666667, 19.084 -7.828 C 19.321333333333335 -7.577333333333334, 19.445333333333334 -7.231999999999999, 19.456 -6.792 C 19.46666666666667 -6.477333333333332, 19.474666666666668 -6.167333333333333, 19.48 -5.861999999999999 C 19.485333333333333 -5.556666666666667, 19.488 -5.256, 19.488 -4.96 C 19.488 -4.664, 19.485333333333333 -4.370666666666667, 19.48 -4.08 C 19.474666666666668 -3.7893333333333334, 19.46666666666667 -3.5, 19.456 -3.2119999999999997 C 19.439999999999998 -2.761333333333333, 19.311999999999998 -2.4126666666666665, 19.072 -2.166 C 18.832 -1.9193333333333331, 18.502666666666666 -1.7759999999999998, 18.084 -1.7359999999999998 Z M 21.944 -1.7999999999999998 L 21.944 -8.2 L 23.003999999999998 -8.2 L 23.003999999999998 -1.7999999999999998 Z " stroke="none" fill-rule="nonzero" fill="#000000" fill-opacity="1" transform="matrix(1,0,0,1,5.05,13.314)" id="text20 l" />
  <path d="M -5 -13.264 L 30 -13.264 L 30 275.5630149996454 L -5 275.5630149996454 Z " stroke="#FF0000" stroke-opacity="1" stroke-width="0.1" stroke-linecap="butt" stroke-linejoin="miter" fill="none" transform="matrix(1,0,0,1,5.05,13.314)" />
</svg>