<?xml version="1.0" encoding="UTF-8"?>
<svg xmlns:xlink="http://www.w3.org/1999/xlink" viewBox="0 0 35.1 476.43901712973866" version="1.1" style="font-synthesis: none;" width="35.1mm" height="476.4390171297387mm" xmlns="http://www.w3.org/2000/svg">
  <defs />
  <style>	</style>
  <path d="M 0 0 L 35.1 0 L 35.1 476.43901712973866 L 0 476.43901712973866 Z " stroke="none" fill-rule="nonzero" fill="#FFFFFF" fill-opacity="1" transform="matrix(1,0,0,1,0,0)" />
  <path d="M 0 455.58901712973875 L 10 455.58901712973875 L 10 457.08901712973875 L 0 457.08901712973875 Z " stroke="none" fill-rule="evenodd" fill="#000000" fill-opacity="1" transform="matrix(1,0,0,1,5.05,13.314)" id="mark1 l" />
  <path d="M 0 442.16728133180527 L 10 442.16728133180527 L 10 443.66728133180527 L 0 443.66728133180527 Z " stroke="none" fill-rule="evenodd" fill="#000000" fill-opacity="1" transform="matrix(1,0,0,1,5.05,13.314)" id="mark2 l" />
  <path d="M 0 428.74554553387173 L 10 428.74554553387173 L 10 430.24554553387173 L 0 430.24554553387173 Z " stroke="none" fill-rule="evenodd" fill="#000000" fill-opacity="1" transform="matrix(1,0,0,1,5.05,13.314)" id="mark3 l" />
  <path d="M 0 415.32380973593826 L 10 415.32380973593826 L 10 416.82380973593826 L 0 416.82380973593826 Z " stroke="none" fill-rule="evenodd" fill="#000000" fill-opacity="1" transform="matrix(1,0,0,1,5.05,13.314)" id="mark4 l" />
  <path d="M 0 401.9020739380048 L 25 401.9020739380048 L 25 403.4020739380048 L 0 403.4020739380048 Z " stroke="none" fill-rule="evenodd" fill="#000000" fill-opacity="1" transform="matrix(1,0,0,1,5.05,13.314)" id="mark5 l" />
  <path d="M 16.18 399.4040739380048 C 16.174666666666667 399.2307406046715, 16.173333333333332 399.09140727133814, 16.176 398.9860739380048 C 16.178666666666665 398.8807406046714, 16.181333333333335 398.7787406046714, 16.183999999999997 398.6800739380048 L 17.264 398.6800739380048 C 17.256 398.75740727133814, 17.25 398.85340727133814, 17.246 398.9680739380048 C 17.241999999999997 399.08274060467147, 17.240666666666666 399.1934072713381, 17.241999999999997 399.3000739380048 C 17.243333333333332 399.4067406046714, 17.246666666666666 399.48674060467147, 17.252 399.5400739380048 C 17.262666666666668 399.66007393800476, 17.297333333333334 399.75807393800477, 17.355999999999998 399.8340739380048 C 17.414666666666665 399.91007393800476, 17.497333333333334 399.96407393800473, 17.604 399.99607393800477 L 17.604 400.88807393800477 C 17.110666666666663 400.8507406046714, 16.75333333333333 400.7160739380048, 16.532 400.48407393800477 C 16.310666666666666 400.25207393800474, 16.19333333333333 399.8920739380047, 16.18 399.4040739380048 Z M 16.279999999999998 398.0680739380048 L 16.279999999999998 394.4200739380048 L 17.348 394.4200739380048 L 17.348 398.0680739380048 Z M 17.852 397.6440739380048 L 17.852 396.88807393800477 C 17.929333333333332 396.84807393800475, 18.014666666666667 396.81607393800476, 18.107999999999997 396.79207393800476 C 18.20133333333333 396.76807393800476, 18.301333333333332 396.75607393800476, 18.407999999999998 396.75607393800476 C 18.773333333333333 396.75607393800476, 19.047333333333334 396.87140727133806, 19.23 397.10207393800476 C 19.412666666666667 397.33274060467147, 19.514666666666663 397.64674060467144, 19.535999999999998 398.0440739380048 C 19.546666666666667 398.20407393800474, 19.55333333333333 398.36274060467144, 19.555999999999997 398.52007393800477 C 19.558666666666664 398.6774072713381, 19.557333333333332 398.8307406046714, 19.552 398.9800739380048 C 19.546666666666667 399.1294072713381, 19.538666666666668 399.2694072713381, 19.528 399.40007393800477 C 19.482666666666667 399.8987406046714, 19.353333333333335 400.26407393800474, 19.14 400.49607393800477 C 18.926666666666666 400.7280739380048, 18.581333333333333 400.8587406046714, 18.104 400.88807393800477 L 18.104 399.99607393800477 C 18.21333333333333 399.9667406046715, 18.296 399.9140739380048, 18.352 399.83807393800475 C 18.408 399.7620739380048, 18.44 399.6627406046715, 18.448 399.5400739380048 C 18.471999999999998 399.2494072713381, 18.485999999999997 398.98807393800473, 18.49 398.75607393800476 C 18.494 398.5240739380048, 18.485333333333333 398.30274060467144, 18.464 398.0920739380048 C 18.447999999999997 397.93740727133815, 18.396666666666665 397.8220739380048, 18.31 397.74607393800477 C 18.223333333333333 397.67007393800475, 18.090666666666664 397.63207393800474, 17.912 397.6320739380048 C 17.901333333333334 397.63207393800474, 17.890666666666668 397.6334072713381, 17.88 397.63607393800476 C 17.86933333333333 397.6387406046714, 17.86 397.64140727133815, 17.852 397.6440739380048 Z M 17.852 395.35207393800476 L 17.852 394.4200739380048 L 19.439999999999998 394.4200739380048 L 19.439999999999998 395.35207393800476 Z M 21.944 400.8200739380048 L 21.944 394.4200739380048 L 23.003999999999998 394.4200739380048 L 23.003999999999998 400.8200739380048 Z " stroke="none" fill-rule="nonzero" fill="#000000" fill-opacity="1" transform="matrix(1,0,0,1,5.05,13.314)" id="text5 l" />
  <path d="M 0 388.4803381400713 L 10 388.4803381400713 L 10 389.9803381400713 L 0 389.9803381400713 Z " stroke="none" fill-rule="evenodd" fill="#000000" fill-opacity="1" transform="matrix(1,0,0,1,5.05,13.314)" id="mark6 l" />
  <path d="M 0 375.05860234213776 L 10 375.05860234213776 L 10 376.55860234213776 L 0 376.55860234213776 Z " stroke="none" fill-rule="evenodd" fill="#000000" fill-opacity="1" transform="matrix(1,0,0,1,5.05,13.314)" id="mark7 l" />
  <path d="M 0 361.6368665442043 L 10 361.6368665442043 L 10 363.1368665442043 L 0 363.1368665442043 Z " stroke="none" fill-rule="evenodd" fill="#000000" fill-opacity="1" transform="matrix(1,0,0,1,5.05,13.314)" id="mark8 l" />
  <path d="M 0 348.2151307462708 L 10 348.2151307462708 L 10 349.7151307462708 L 0 349.7151307462708 Z " stroke="none" fill-rule="evenodd" fill="#000000" fill-opacity="1" transform="matrix(1,0,0,1,5.05,13.314)" id="mark9 l" />
  <path d="M 0 334.7933949483373 L 25 334.7933949483373 L 25 336.2933949483373 L 0 336.2933949483373 Z " stroke="none" fill-rule="evenodd" fill="#000000" fill-opacity="1" transform="matrix(1,0,0,1,5.05,13.314)" id="mark10 l" />
  <path d="M 14.323999999999998 333.7433949483373 L 14.323999999999998 328.2993949483373 L 13.871999999999998 328.2993949483373 L 13.839999999999998 327.9193949483373 L 14.543999999999999 327.34339494833733 L 15.424 327.34339494833733 L 15.424 333.7433949483373 Z M 16.196 332.33139494833733 C 16.188000000000002 331.90206161500396, 16.182666666666666 331.48539494833733, 16.18 331.08139494833733 C 16.177333333333333 330.67739494833734, 16.177999999999997 330.28206161500395, 16.182 329.8953949483373 C 16.186 329.50872828167064, 16.190666666666665 329.1273949483373, 16.196 328.7513949483373 C 16.209333333333333 328.3113949483373, 16.334000000000003 327.966061615004, 16.57 327.7153949483373 C 16.805999999999997 327.46472828167066, 17.142666666666663 327.31939494833733, 17.58 327.2793949483373 L 17.58 328.1673949483373 C 17.382666666666665 328.2233949483373, 17.281333333333333 328.35272828167064, 17.276 328.5553949483373 C 17.262666666666668 328.92606161500396, 17.253333333333334 329.274061615004, 17.248 329.5993949483373 C 17.242666666666665 329.92472828167064, 17.24 330.2413949483373, 17.24 330.5493949483373 C 17.24 330.8573949483373, 17.242666666666665 331.17206161500394, 17.248 331.4933949483373 C 17.253333333333334 331.8147282816707, 17.262666666666668 332.158061615004, 17.276 332.5233949483373 C 17.281333333333333 332.7313949483373, 17.382666666666665 332.8633949483373, 17.58 332.9193949483373 L 17.58 333.80739494833733 C 17.142666666666663 333.7673949483373, 16.805999999999997 333.6213949483373, 16.57 333.3693949483373 C 16.334000000000003 333.1173949483373, 16.209333333333333 332.7713949483373, 16.196 332.33139494833733 Z M 18.084 333.80739494833733 L 18.084 332.91539494833734 C 18.268 332.862061615004, 18.366666666666667 332.73806161500397, 18.38 332.5433949483373 C 18.398666666666667 332.0767282816707, 18.410666666666668 331.628061615004, 18.416 331.1973949483373 C 18.421333333333333 330.7667282816706, 18.421333333333333 330.3360616150039, 18.416 329.9053949483373 C 18.410666666666668 329.47472828167065, 18.398666666666667 329.02206161500396, 18.38 328.5473949483373 C 18.374666666666666 328.35272828167064, 18.276 328.22606161500397, 18.084 328.1673949483373 L 18.084 327.2793949483373 C 18.513333333333335 327.31939494833733, 18.846666666666668 327.46472828167066, 19.084 327.7153949483373 C 19.321333333333335 327.966061615004, 19.445333333333334 328.3113949483373, 19.456 328.7513949483373 C 19.46666666666667 329.066061615004, 19.474666666666668 329.376061615004, 19.48 329.6813949483373 C 19.485333333333333 329.98672828167065, 19.488 330.28739494833735, 19.488 330.5833949483373 C 19.488 330.87939494833734, 19.485333333333333 331.17272828167063, 19.48 331.46339494833734 C 19.474666666666668 331.754061615004, 19.46666666666667 332.0433949483373, 19.456 332.33139494833733 C 19.439999999999998 332.78206161500395, 19.311999999999998 333.13072828167066, 19.072 333.3773949483373 C 18.832 333.624061615004, 18.502666666666666 333.7673949483373, 18.084 333.80739494833733 Z M 21.944 333.7433949483373 L 21.944 327.34339494833733 L 23.003999999999998 327.34339494833733 L 23.003999999999998 333.7433949483373 Z " stroke="none" fill-rule="nonzero" fill="#000000" fill-opacity="1" transform="matrix(1,0,0,1,5.05,13.314)" id="text10 l" />
  <path d="M 0 321.37165915040384 L 10 321.37165915040384 L 10 322.87165915040384 L 0 322.87165915040384 Z " stroke="none" fill-rule="evenodd" fill="#000000" fill-opacity="1" transform="matrix(1,0,0,1,5.05,13.314)" id="mark11 l" />
  <path d="M 0 307.94992335247036 L 10 307.94992335247036 L 10 309.44992335247036 L 0 309.44992335247036 Z " stroke="none" fill-rule="evenodd" fill="#000000" fill-opacity="1" transform="matrix(1,0,0,1,5.05,13.314)" id="mark12 l" />
  <path d="M 0 294.5281875545368 L 10 294.5281875545368 L 10 296.0281875545368 L 0 296.0281875545368 Z " stroke="none" fill-rule="evenodd" fill="#000000" fill-opacity="1" transform="matrix(1,0,0,1,5.05,13.314)" id="mark13 l" />
  <path d="M 0 281.10645175660335 L 10 281.10645175660335 L 10 282.60645175660335 L 0 282.60645175660335 Z " stroke="none" fill-rule="evenodd" fill="#000000" fill-opacity="1" transform="matrix(1,0,0,1,5.05,13.314)" id="mark14 l" />
  <path d="M 0 267.68471595866987 L 25 267.68471595866987 L 25 269.18471595866987 L 0 269.18471595866987 Z " stroke="none" fill-rule="evenodd" fill="#000000" fill-opacity="1" transform="matrix(1,0,0,1,5.05,13.314)" id="mark15 l" />
  <path d="M 14.331999999999999 266.6027159586699 L 14.331999999999999 261.15871595866986 L 13.879999999999999 261.15871595866986 L 13.847999999999999 260.77871595866986 L 14.552 260.2027159586699 L 15.432 260.2027159586699 L 15.432 266.6027159586699 Z M 16.18 265.1867159586699 C 16.174666666666667 265.01338262533653, 16.173333333333332 264.87404929200324, 16.176 264.7687159586699 C 16.178666666666665 264.6633826253365, 16.181333333333335 264.56138262533653, 16.183999999999997 264.4627159586699 L 17.264 264.4627159586699 C 17.256 264.54004929200323, 17.25 264.63604929200324, 17.246 264.7507159586699 C 17.241999999999997 264.86538262533657, 17.240666666666666 264.9760492920032, 17.241999999999997 265.0827159586699 C 17.243333333333332 265.1893826253365, 17.246666666666666 265.26938262533656, 17.252 265.3227159586699 C 17.262666666666668 265.44271595866985, 17.297333333333334 265.54071595866986, 17.355999999999998 265.6167159586699 C 17.414666666666665 265.69271595866985, 17.497333333333334 265.7467159586698, 17.604 265.77871595866986 L 17.604 266.67071595866986 C 17.110666666666663 266.63338262533654, 16.75333333333333 266.4987159586699, 16.532 266.26671595866986 C 16.310666666666666 266.03471595866984, 16.19333333333333 265.6747159586699, 16.18 265.1867159586699 Z M 16.279999999999998 263.85071595866987 L 16.279999999999998 260.2027159586699 L 17.348 260.2027159586699 L 17.348 263.85071595866987 Z M 17.852 263.4267159586699 L 17.852 262.67071595866986 C 17.929333333333332 262.63071595866984, 18.014666666666667 262.59871595866986, 18.107999999999997 262.57471595866986 C 18.20133333333333 262.55071595866985, 18.301333333333332 262.53871595866985, 18.407999999999998 262.53871595866985 C 18.773333333333333 262.53871595866985, 19.047333333333334 262.6540492920032, 19.23 262.88471595866986 C 19.412666666666667 263.1153826253365, 19.514666666666663 263.42938262533653, 19.535999999999998 263.82671595866987 C 19.546666666666667 263.98671595866983, 19.55333333333333 264.14538262533654, 19.555999999999997 264.30271595866986 C 19.558666666666664 264.4600492920032, 19.557333333333332 264.6133826253365, 19.552 264.7627159586699 C 19.546666666666667 264.9120492920032, 19.538666666666668 265.0520492920032, 19.528 265.18271595866986 C 19.482666666666667 265.6813826253365, 19.353333333333335 266.04671595866984, 19.14 266.27871595866986 C 18.926666666666666 266.5107159586699, 18.581333333333333 266.6413826253365, 18.104 266.67071595866986 L 18.104 265.77871595866986 C 18.21333333333333 265.7493826253366, 18.296 265.69671595866987, 18.352 265.62071595866985 C 18.408 265.5447159586699, 18.44 265.44538262533655, 18.448 265.3227159586699 C 18.471999999999998 265.0320492920032, 18.485999999999997 264.7707159586699, 18.49 264.53871595866985 C 18.494 264.3067159586699, 18.485333333333333 264.08538262533654, 18.464 263.87471595866987 C 18.447999999999997 263.72004929200324, 18.396666666666665 263.6047159586699, 18.31 263.52871595866986 C 18.223333333333333 263.45271595866984, 18.090666666666664 263.4147159586699, 17.912 263.4147159586699 C 17.901333333333334 263.4147159586699, 17.890666666666668 263.4160492920032, 17.88 263.41871595866985 C 17.86933333333333 263.42138262533655, 17.86 263.42404929200325, 17.852 263.4267159586699 Z M 17.852 261.13471595866986 L 17.852 260.2027159586699 L 19.439999999999998 260.2027159586699 L 19.439999999999998 261.13471595866986 Z M 21.944 266.6027159586699 L 21.944 260.2027159586699 L 23.003999999999998 260.2027159586699 L 23.003999999999998 266.6027159586699 Z " stroke="none" fill-rule="nonzero" fill="#000000" fill-opacity="1" transform="matrix(1,0,0,1,5.05,13.314)" id="text15 l" />
  <path d="M 0 254.26298016073636 L 10 254.26298016073636 L 10 255.76298016073636 L 0 255.76298016073636 Z " stroke="none" fill-rule="evenodd" fill="#000000" fill-opacity="1" transform="matrix(1,0,0,1,5.05,13.314)" id="mark16 l" />
  <path d="M 0 240.84124436280288 L 10 240.84124436280288 L 10 242.34124436280288 L 0 242.34124436280288 Z " stroke="none" fill-rule="evenodd" fill="#000000" fill-opacity="1" transform="matrix(1,0,0,1,5.05,13.314)" id="mark17 l" />
  <path d="M 0 227.41950856486937 L 10 227.41950856486937 L 10 228.91950856486937 L 0 228.91950856486937 Z " stroke="none" fill-rule="evenodd" fill="#000000" fill-opacity="1" transform="matrix(1,0,0,1,5.05,13.314)" id="mark18 l" />
  <path d="M 0 213.9977727669359 L 10 213.9977727669359 L 10 215.4977727669359 L 0 215.4977727669359 Z " stroke="none" fill-rule="evenodd" fill="#000000" fill-opacity="1" transform="matrix(1,0,0,1,5.05,13.314)" id="mark19 l" />
  <path d="M 0 200.57603696900242 L 25 200.57603696900242 L 25 202.07603696900242 L 0 202.07603696900242 Z " stroke="none" fill-rule="evenodd" fill="#000000" fill-opacity="1" transform="matrix(1,0,0,1,5.05,13.314)" id="mark20 l" />
  <path d="M 12.319999999999999 199.52603696900243 C 12.317333333333334 199.42737030233576, 12.315333333333331 199.3387036356691, 12.313999999999998 199.26003696900244 C 12.312666666666665 199.18137030233578, 12.311333333333334 199.10737030233577, 12.309999999999999 199.03803696900243 C 12.308666666666667 198.9687036356691, 12.308 198.8967036356691, 12.308 198.82203696900243 C 12.308 198.74737030233575, 12.308 198.66270363566912, 12.308 198.56803696900243 C 12.308 198.47337030233575, 12.309333333333335 198.36203696900242, 12.312 198.23403696900243 C 12.32 197.94070363566908, 12.37 197.67870363566908, 12.462 197.44803696900243 C 12.554 197.21737030233578, 12.687999999999999 197.01137030233576, 12.863999999999999 196.83003696900244 C 13.04 196.6487036356691, 13.257333333333333 196.48737030233576, 13.515999999999998 196.34603696900243 L 14.047999999999998 196.05803696900244 C 14.234666666666666 195.9567036356691, 14.354 195.8347036356691, 14.405999999999999 195.69203696900243 C 14.457999999999998 195.54937030233577, 14.488 195.41537030233576, 14.495999999999999 195.29003696900244 C 14.506666666666664 195.14337030233577, 14.512666666666664 194.9867036356691, 14.514 194.82003696900244 C 14.51533333333333 194.6533703023358, 14.511999999999997 194.49670363566912, 14.504 194.35003696900245 C 14.498666666666665 194.24603696900243, 14.468666666666666 194.16003696900242, 14.413999999999998 194.09203696900244 C 14.359333333333332 194.02403696900245, 14.279999999999998 193.97537030233576, 14.175999999999998 193.94603696900242 L 14.175999999999998 193.05803696900244 C 14.663999999999998 193.09003696900245, 15.014 193.2213703023358, 15.225999999999999 193.45203696900242 C 15.437999999999999 193.6827036356691, 15.554666666666666 194.04337030233575, 15.575999999999999 194.53403696900244 C 15.578666666666663 194.59803696900246, 15.580666666666666 194.66337030233578, 15.581999999999999 194.73003696900244 C 15.583333333333332 194.7967036356691, 15.584 194.86137030233579, 15.584 194.92403696900243 C 15.584 194.98670363566907, 15.583333333333332 195.04870363566909, 15.581999999999999 195.11003696900244 C 15.580666666666666 195.17137030233576, 15.578666666666663 195.23137030233576, 15.575999999999999 195.29003696900244 C 15.565333333333331 195.57537030233578, 15.512 195.82203696900245, 15.415999999999999 196.03003696900242 C 15.32 196.23803696900245, 15.19 196.41803696900246, 15.026 196.57003696900244 C 14.862 196.72203696900243, 14.672 196.8580369690024, 14.456 196.97803696900243 L 13.851999999999999 197.30603696900243 C 13.737333333333332 197.36737030233576, 13.647333333333332 197.45137030233576, 13.581999999999999 197.55803696900244 C 13.516666666666666 197.6647036356691, 13.469999999999999 197.77803696900241, 13.441999999999998 197.89803696900242 C 13.413999999999998 198.01803696900242, 13.399999999999999 198.13003696900245, 13.399999999999999 198.23403696900243 L 13.399999999999999 199.52603696900243 Z M 12.328 195.48603696900244 C 12.322666666666667 195.36870363566908, 12.318666666666665 195.2540369690024, 12.315999999999999 195.14203696900245 C 12.313333333333333 195.03003696900242, 12.311333333333334 194.92403696900243, 12.309999999999999 194.82403696900244 C 12.308666666666667 194.72403696900244, 12.309333333333335 194.62737030233575, 12.312 194.53403696900244 C 12.330666666666666 194.04603696900244, 12.447333333333333 193.68670363566912, 12.661999999999999 193.45603696900244 C 12.876666666666665 193.22537030233576, 13.213333333333331 193.0927036356691, 13.671999999999999 193.05803696900244 L 13.671999999999999 193.95003696900244 C 13.576 193.97937030233578, 13.505333333333333 194.02603696900243, 13.459999999999999 194.09003696900243 C 13.414666666666665 194.15403696900242, 13.390666666666664 194.23137030233573, 13.387999999999998 194.32203696900243 C 13.382666666666665 194.53003696900242, 13.379333333333333 194.72337030233578, 13.378 194.90203696900244 C 13.376666666666667 195.0807036356691, 13.381333333333334 195.27537030233577, 13.392 195.48603696900244 Z M 13.904 199.52603696900243 L 13.904 198.59403696900245 L 15.5 198.59403696900245 L 15.5 199.52603696900243 Z M 16.196 198.11403696900243 C 16.188000000000002 197.6847036356691, 16.182666666666666 197.26803696900242, 16.18 196.86403696900243 C 16.177333333333333 196.46003696900243, 16.177999999999997 196.0647036356691, 16.182 195.67803696900242 C 16.186 195.29137030233574, 16.190666666666665 194.91003696900242, 16.196 194.53403696900244 C 16.209333333333333 194.09403696900245, 16.334000000000003 193.74870363566913, 16.57 193.49803696900244 C 16.805999999999997 193.24737030233575, 17.142666666666663 193.10203696900243, 17.58 193.06203696900243 L 17.58 193.95003696900244 C 17.382666666666665 194.00603696900242, 17.281333333333333 194.1353703023358, 17.276 194.33803696900245 C 17.262666666666668 194.7087036356691, 17.253333333333334 195.0567036356691, 17.248 195.38203696900243 C 17.242666666666665 195.70737030233576, 17.24 196.02403696900245, 17.24 196.33203696900244 C 17.24 196.64003696900244, 17.242666666666665 196.9547036356691, 17.248 197.27603696900243 C 17.253333333333334 197.59737030233578, 17.262666666666668 197.94070363566908, 17.276 198.30603696900243 C 17.281333333333333 198.51403696900246, 17.382666666666665 198.64603696900247, 17.58 198.70203696900242 L 17.58 199.59003696900243 C 17.142666666666663 199.5500369690024, 16.805999999999997 199.40403696900245, 16.57 199.15203696900244 C 16.334000000000003 198.90003696900243, 16.209333333333333 198.55403696900242, 16.196 198.11403696900243 Z M 18.084 199.59003696900243 L 18.084 198.69803696900243 C 18.268 198.64470363566912, 18.366666666666667 198.52070363566912, 18.38 198.32603696900244 C 18.398666666666667 197.85937030233578, 18.410666666666668 197.4107036356691, 18.416 196.98003696900244 C 18.421333333333333 196.54937030233577, 18.421333333333333 196.1187036356691, 18.416 195.68803696900244 C 18.410666666666668 195.25737030233577, 18.398666666666667 194.8047036356691, 18.38 194.33003696900244 C 18.374666666666666 194.1353703023358, 18.276 194.00870363566912, 18.084 193.95003696900244 L 18.084 193.06203696900243 C 18.513333333333335 193.10203696900243, 18.846666666666668 193.24737030233575, 19.084 193.49803696900244 C 19.321333333333335 193.74870363566913, 19.445333333333334 194.09403696900245, 19.456 194.53403696900244 C 19.46666666666667 194.8487036356691, 19.474666666666668 195.1587036356691, 19.48 195.46403696900242 C 19.485333333333333 195.76937030233574, 19.488 196.07003696900242, 19.488 196.36603696900244 C 19.488 196.66203696900243, 19.485333333333333 196.95537030233578, 19.48 197.24603696900243 C 19.474666666666668 197.53670363566908, 19.46666666666667 197.82603696900242, 19.456 198.11403696900243 C 19.439999999999998 198.5647036356691, 19.311999999999998 198.91337030233578, 19.072 199.16003696900242 C 18.832 199.4067036356691, 18.502666666666666 199.5500369690024, 18.084 199.59003696900243 Z M 21.944 199.52603696900243 L 21.944 193.12603696900243 L 23.003999999999998 193.12603696900243 L 23.003999999999998 199.52603696900243 Z " stroke="none" fill-rule="nonzero" fill="#000000" fill-opacity="1" transform="matrix(1,0,0,1,5.05,13.314)" id="text20 l" />
  <path d="M 0 187.15430117106888 L 10 187.15430117106888 L 10 188.65430117106888 L 0 188.65430117106888 Z " stroke="none" fill-rule="evenodd" fill="#000000" fill-opacity="1" transform="matrix(1,0,0,1,5.05,13.314)" id="mark21 l" />
  <path d="M 0 173.7325653731354 L 10 173.7325653731354 L 10 175.2325653731354 L 0 175.2325653731354 Z " stroke="none" fill-rule="evenodd" fill="#000000" fill-opacity="1" transform="matrix(1,0,0,1,5.05,13.314)" id="mark22 l" />
  <path d="M 0 160.31082957520192 L 10 160.31082957520192 L 10 161.81082957520192 L 0 161.81082957520192 Z " stroke="none" fill-rule="evenodd" fill="#000000" fill-opacity="1" transform="matrix(1,0,0,1,5.05,13.314)" id="mark23 l" />
  <path d="M 0 146.88909377726844 L 10 146.88909377726844 L 10 148.38909377726844 L 0 148.38909377726844 Z " stroke="none" fill-rule="evenodd" fill="#000000" fill-opacity="1" transform="matrix(1,0,0,1,5.05,13.314)" id="mark24 l" />
  <path d="M 0 133.46735797933496 L 25 133.46735797933496 L 25 134.96735797933496 L 0 134.96735797933496 Z " stroke="none" fill-rule="evenodd" fill="#000000" fill-opacity="1" transform="matrix(1,0,0,1,5.05,13.314)" id="mark25 l" />
  <path d="M 12.328 132.41735797933498 C 12.325333333333333 132.3186913126683, 12.323333333333332 132.23002464600165, 12.322 132.151357979335 C 12.320666666666666 132.07269131266833, 12.319333333333333 131.9986913126683, 12.318 131.92935797933498 C 12.316666666666666 131.86002464600165, 12.315999999999999 131.78802464600165, 12.316 131.71335797933497 C 12.315999999999999 131.6386913126683, 12.315999999999999 131.55402464600164, 12.316 131.45935797933498 C 12.315999999999999 131.36469131266833, 12.317333333333334 131.253357979335, 12.32 131.12535797933498 C 12.328 130.83202464600166, 12.378 130.57002464600166, 12.47 130.33935797933498 C 12.562000000000001 130.1086913126683, 12.696 129.9026913126683, 12.872 129.72135797933498 C 13.048 129.54002464600165, 13.265333333333334 129.3786913126683, 13.524000000000001 129.23735797933497 L 14.056000000000001 128.949357979335 C 14.242666666666668 128.84802464600165, 14.362000000000002 128.72602464600163, 14.414 128.58335797933498 C 14.466000000000001 128.44069131266832, 14.495999999999999 128.3066913126683, 14.504 128.181357979335 C 14.514666666666667 128.03469131266831, 14.520666666666667 127.87802464600165, 14.522 127.71135797933498 C 14.523333333333333 127.5446913126683, 14.520000000000001 127.38802464600164, 14.512 127.24135797933498 C 14.506666666666666 127.13735797933498, 14.476666666666667 127.05135797933498, 14.422 126.98335797933498 C 14.367333333333335 126.91535797933498, 14.288 126.86669131266831, 14.184000000000001 126.83735797933498 L 14.184000000000001 125.94935797933498 C 14.672 125.98135797933497, 15.022000000000002 126.11269131266832, 15.234 126.34335797933498 C 15.446000000000002 126.57402464600165, 15.562666666666667 126.93469131266832, 15.584 127.42535797933498 C 15.586666666666668 127.48935797933498, 15.588666666666668 127.55469131266833, 15.59 127.62135797933499 C 15.591333333333335 127.68802464600165, 15.592000000000002 127.75269131266832, 15.592 127.81535797933498 C 15.592000000000002 127.87802464600165, 15.591333333333335 127.94002464600166, 15.59 128.00135797933498 C 15.588666666666668 128.0626913126683, 15.586666666666668 128.1226913126683, 15.584 128.181357979335 C 15.573333333333332 128.46669131266833, 15.52 128.71335797933497, 15.424 128.92135797933497 C 15.328 129.12935797933497, 15.197999999999999 129.30935797933498, 15.033999999999999 129.461357979335 C 14.87 129.61335797933498, 14.68 129.74935797933497, 14.464 129.86935797933498 L 13.86 130.19735797933498 C 13.745333333333335 130.2586913126683, 13.655333333333335 130.3426913126683, 13.59 130.449357979335 C 13.524666666666668 130.55602464600165, 13.478000000000002 130.66935797933496, 13.45 130.78935797933497 C 13.422 130.90935797933497, 13.408 131.02135797933497, 13.408 131.12535797933498 L 13.408 132.41735797933498 Z M 12.336 128.377357979335 C 12.330666666666666 128.26002464600165, 12.326666666666664 128.145357979335, 12.324 128.033357979335 C 12.321333333333332 127.921357979335, 12.319333333333333 127.81535797933499, 12.318 127.71535797933498 C 12.316666666666666 127.61535797933497, 12.317333333333334 127.5186913126683, 12.32 127.42535797933498 C 12.338666666666668 126.93735797933496, 12.455333333333336 126.57802464600164, 12.67 126.34735797933499 C 12.884666666666668 126.11669131266831, 13.221333333333334 125.98402464600164, 13.68 125.94935797933498 L 13.68 126.84135797933499 C 13.584 126.87069131266833, 13.513333333333332 126.91735797933498, 13.468 126.98135797933497 C 13.422666666666668 127.04535797933497, 13.398666666666667 127.12269131266831, 13.396 127.21335797933499 C 13.390666666666666 127.42135797933499, 13.387333333333332 127.61469131266833, 13.386 127.79335797933498 C 13.384666666666666 127.97202464600164, 13.389333333333333 128.16669131266832, 13.4 128.377357979335 Z M 13.911999999999999 132.41735797933498 L 13.911999999999999 131.485357979335 L 15.508 131.485357979335 L 15.508 132.41735797933498 Z M 16.18 131.00135797933498 C 16.174666666666667 130.82802464600167, 16.173333333333332 130.6886913126683, 16.176 130.58335797933498 C 16.178666666666665 130.47802464600164, 16.181333333333335 130.37602464600167, 16.183999999999997 130.277357979335 L 17.264 130.277357979335 C 17.256 130.3546913126683, 17.25 130.4506913126683, 17.246 130.56535797933498 C 17.241999999999997 130.68002464600164, 17.240666666666666 130.7906913126683, 17.241999999999997 130.89735797933497 C 17.243333333333332 131.00402464600165, 17.246666666666666 131.08402464600164, 17.252 131.13735797933498 C 17.262666666666668 131.25735797933498, 17.297333333333334 131.355357979335, 17.355999999999998 131.431357979335 C 17.414666666666665 131.50735797933498, 17.497333333333334 131.56135797933496, 17.604 131.59335797933497 L 17.604 132.485357979335 C 17.110666666666663 132.44802464600167, 16.75333333333333 132.31335797933497, 16.532 132.08135797933497 C 16.310666666666666 131.84935797933497, 16.19333333333333 131.48935797933498, 16.18 131.00135797933498 Z M 16.279999999999998 129.66535797933497 L 16.279999999999998 126.01735797933497 L 17.348 126.01735797933497 L 17.348 129.66535797933497 Z M 17.852 129.241357979335 L 17.852 128.485357979335 C 17.929333333333332 128.445357979335, 18.014666666666667 128.413357979335, 18.107999999999997 128.389357979335 C 18.20133333333333 128.365357979335, 18.301333333333332 128.353357979335, 18.407999999999998 128.353357979335 C 18.773333333333333 128.353357979335, 19.047333333333334 128.46869131266834, 19.23 128.699357979335 C 19.412666666666667 128.93002464600164, 19.514666666666663 129.24402464600166, 19.535999999999998 129.64135797933497 C 19.546666666666667 129.80135797933497, 19.55333333333333 129.96002464600164, 19.555999999999997 130.11735797933497 C 19.558666666666664 130.27469131266832, 19.557333333333332 130.42802464600166, 19.552 130.57735797933498 C 19.546666666666667 130.7266913126683, 19.538666666666668 130.8666913126683, 19.528 130.997357979335 C 19.482666666666667 131.49602464600164, 19.353333333333335 131.86135797933497, 19.14 132.09335797933497 C 18.926666666666666 132.32535797933497, 18.581333333333333 132.45602464600165, 18.104 132.485357979335 L 18.104 131.59335797933497 C 18.21333333333333 131.56402464600166, 18.296 131.51135797933497, 18.352 131.43535797933498 C 18.408 131.359357979335, 18.44 131.26002464600165, 18.448 131.13735797933498 C 18.471999999999998 130.8466913126683, 18.485999999999997 130.58535797933496, 18.49 130.353357979335 C 18.494 130.12135797933496, 18.485333333333333 129.90002464600164, 18.464 129.68935797933497 C 18.447999999999997 129.53469131266831, 18.396666666666665 129.41935797933496, 18.31 129.34335797933497 C 18.223333333333333 129.26735797933497, 18.090666666666664 129.229357979335, 17.912 129.229357979335 C 17.901333333333334 129.229357979335, 17.890666666666668 129.23069131266834, 17.88 129.23335797933498 C 17.86933333333333 129.23602464600162, 17.86 129.23869131266832, 17.852 129.241357979335 Z M 17.852 126.94935797933498 L 17.852 126.01735797933497 L 19.439999999999998 126.01735797933497 L 19.439999999999998 126.94935797933498 Z M 21.944 132.41735797933498 L 21.944 126.01735797933497 L 23.003999999999998 126.01735797933497 L 23.003999999999998 132.41735797933498 Z " stroke="none" fill-rule="nonzero" fill="#000000" fill-opacity="1" transform="matrix(1,0,0,1,5.05,13.314)" id="text25 l" />
  <path d="M 0 120.04562218140143 L 10 120.04562218140143 L 10 121.54562218140143 L 0 121.54562218140143 Z " stroke="none" fill-rule="evenodd" fill="#000000" fill-opacity="1" transform="matrix(1,0,0,1,5.05,13.314)" id="mark26 l" />
  <path d="M 0 106.62388638346795 L 10 106.62388638346795 L 10 108.12388638346795 L 0 108.12388638346795 Z " stroke="none" fill-rule="evenodd" fill="#000000" fill-opacity="1" transform="matrix(1,0,0,1,5.05,13.314)" id="mark27 l" />
  <path d="M 0 93.20215058553447 L 10 93.20215058553447 L 10 94.70215058553447 L 0 94.70215058553447 Z " stroke="none" fill-rule="evenodd" fill="#000000" fill-opacity="1" transform="matrix(1,0,0,1,5.05,13.314)" id="mark28 l" />
  <path d="M 0 79.78041478760099 L 10 79.78041478760099 L 10 81.28041478760099 L 0 81.28041478760099 Z " stroke="none" fill-rule="evenodd" fill="#000000" fill-opacity="1" transform="matrix(1,0,0,1,5.05,13.314)" id="mark29 l" />
  <path d="M 0 66.35867898966751 L 25 66.35867898966751 L 25 67.85867898966751 L 0 67.85867898966751 Z " stroke="none" fill-rule="evenodd" fill="#000000" fill-opacity="1" transform="matrix(1,0,0,1,5.05,13.314)" id="mark30 l" />
  <path d="M 12.223999999999998 63.892678989667516 C 12.221333333333334 63.79134565633419, 12.219333333333333 63.707345656334184, 12.218 63.640678989667514 C 12.216666666666667 63.574012323000844, 12.216666666666667 63.506012323000846, 12.218 63.43667898966751 C 12.219333333333333 63.36734565633418, 12.221333333333334 63.278012323000844, 12.223999999999998 63.16867898966751 L 13.303999999999998 63.16867898966751 L 13.303999999999998 64.03267898966752 C 13.303999999999998 64.27001232300084, 13.417333333333332 64.42067898966751, 13.643999999999998 64.48467898966751 L 13.643999999999998 65.37667898966751 C 13.155999999999999 65.33934565633417, 12.800666666666665 65.20467898966751, 12.578 64.97267898966751 C 12.355333333333334 64.74067898966751, 12.237333333333332 64.38067898966752, 12.223999999999998 63.892678989667516 Z M 12.292 59.84067898966751 L 12.292 58.908678989667514 L 15.536 58.908678989667514 L 15.536 59.84067898966751 Z M 14.143999999999998 64.48867898966752 C 14.367999999999999 64.43267898966752, 14.483999999999998 64.28201232300086, 14.491999999999999 64.03667898966751 C 14.497333333333334 63.83401232300084, 14.500666666666666 63.65134565633417, 14.501999999999999 63.48867898966751 C 14.503333333333332 63.32601232300084, 14.498666666666665 63.16867898966751, 14.488 63.01667898966751 C 14.48 62.859345656334185, 14.431999999999999 62.726012323000845, 14.344 62.61667898966751 C 14.256 62.50734565633418, 14.089333333333332 62.455345656334174, 13.844 62.460678989667514 L 13.096 62.46867898966751 L 13.068 61.57667898966751 L 14.027999999999999 60.19267898966751 L 15.216 60.19267898966751 L 14.248 61.54467898966751 L 14.28 61.54467898966751 C 14.712 61.54467898966751, 15.028666666666666 61.66734565633418, 15.229999999999999 61.91267898966751 C 15.431333333333333 62.15801232300085, 15.544 62.53534565633418, 15.568 63.04467898966751 C 15.57333333333333 63.11667898966751, 15.576666666666664 63.18867898966751, 15.578 63.26067898966751 C 15.57933333333333 63.332678989667514, 15.579999999999998 63.40334565633418, 15.579999999999998 63.472678989667514 C 15.579999999999998 63.54201232300085, 15.57933333333333 63.61134565633418, 15.578 63.68067898966751 C 15.576666666666664 63.750012323000846, 15.57333333333333 63.82067898966751, 15.568 63.892678989667516 C 15.549333333333333 64.38867898966751, 15.428666666666665 64.75334565633418, 15.206 64.98667898966751 C 14.983333333333334 65.22001232300084, 14.630666666666666 65.35001232300085, 14.148 65.37667898966751 Z M 16.196 63.896678989667514 C 16.188000000000002 63.46734565633419, 16.182666666666666 63.05067898966752, 16.18 62.646678989667514 C 16.177333333333333 62.24267898966751, 16.177999999999997 61.84734565633418, 16.182 61.460678989667514 C 16.186 61.07401232300085, 16.190666666666665 60.69267898966751, 16.196 60.316678989667516 C 16.209333333333333 59.87667898966751, 16.334000000000003 59.53134565633418, 16.57 59.280678989667514 C 16.805999999999997 59.03001232300085, 17.142666666666663 58.88467898966751, 17.58 58.844678989667514 L 17.58 59.73267898966751 C 17.382666666666665 59.78867898966752, 17.281333333333333 59.91801232300085, 17.276 60.12067898966751 C 17.262666666666668 60.491345656334175, 17.253333333333334 60.83934565633418, 17.248 61.164678989667514 C 17.242666666666665 61.49001232300085, 17.24 61.80667898966752, 17.24 62.11467898966751 C 17.24 62.42267898966752, 17.242666666666665 62.737345656334185, 17.248 63.05867898966751 C 17.253333333333334 63.38001232300084, 17.262666666666668 63.723345656334175, 17.276 64.08867898966751 C 17.281333333333333 64.29667898966751, 17.382666666666665 64.42867898966752, 17.58 64.48467898966751 L 17.58 65.3726789896675 C 17.142666666666663 65.33267898966751, 16.805999999999997 65.18667898966751, 16.57 64.93467898966752 C 16.334000000000003 64.68267898966752, 16.209333333333333 64.33667898966752, 16.196 63.896678989667514 Z M 18.084 65.3726789896675 L 18.084 64.48067898966751 C 18.268 64.42734565633418, 18.366666666666667 64.30334565633419, 18.38 64.10867898966751 C 18.398666666666667 63.64201232300085, 18.410666666666668 63.19334565633419, 18.416 62.76267898966751 C 18.421333333333333 62.33201232300085, 18.421333333333333 61.901345656334186, 18.416 61.47067898966751 C 18.410666666666668 61.04001232300085, 18.398666666666667 60.58734565633418, 18.38 60.112678989667515 C 18.374666666666666 59.91801232300085, 18.276 59.79134565633418, 18.084 59.73267898966751 L 18.084 58.844678989667514 C 18.513333333333335 58.88467898966751, 18.846666666666668 59.03001232300085, 19.084 59.280678989667514 C 19.321333333333335 59.53134565633418, 19.445333333333334 59.87667898966751, 19.456 60.316678989667516 C 19.46666666666667 60.631345656334176, 19.474666666666668 60.94134565633418, 19.48 61.246678989667515 C 19.485333333333333 61.55201232300085, 19.488 61.85267898966751, 19.488 62.148678989667516 C 19.488 62.44467898966751, 19.485333333333333 62.738012323000845, 19.48 63.02867898966751 C 19.474666666666668 63.31934565633418, 19.46666666666667 63.60867898966751, 19.456 63.896678989667514 C 19.439999999999998 64.34734565633418, 19.311999999999998 64.69601232300084, 19.072 64.94267898966751 C 18.832 65.18934565633418, 18.502666666666666 65.33267898966751, 18.084 65.3726789896675 Z M 21.944 65.30867898966751 L 21.944 58.908678989667514 L 23.003999999999998 58.908678989667514 L 23.003999999999998 65.30867898966751 Z " stroke="none" fill-rule="nonzero" fill="#000000" fill-opacity="1" transform="matrix(1,0,0,1,5.05,13.314)" id="text30 l" />
  <path d="M 0 52.936943191733974 L 10 52.936943191733974 L 10 54.436943191733974 L 0 54.436943191733974 Z " stroke="none" fill-rule="evenodd" fill="#000000" fill-opacity="1" transform="matrix(1,0,0,1,5.05,13.314)" id="mark31 l" />
  <path d="M 0 39.515207393800495 L 10 39.515207393800495 L 10 41.015207393800495 L 0 41.015207393800495 Z " stroke="none" fill-rule="evenodd" fill="#000000" fill-opacity="1" transform="matrix(1,0,0,1,5.05,13.314)" id="mark32 l" />
  <path d="M 0 26.093471595867015 L 10 26.093471595867015 L 10 27.593471595867015 L 0 27.593471595867015 Z " stroke="none" fill-rule="evenodd" fill="#000000" fill-opacity="1" transform="matrix(1,0,0,1,5.05,13.314)" id="mark33 l" />
  <path d="M 0 12.671735797933536 L 10 12.671735797933536 L 10 14.171735797933536 L 0 14.171735797933536 Z " stroke="none" fill-rule="evenodd" fill="#000000" fill-opacity="1" transform="matrix(1,0,0,1,5.05,13.314)" id="mark34 l" />
  <path d="M 0 -0.75 L 25 -0.75 L 25 0.75 L 0 0.75 Z " stroke="none" fill-rule="evenodd" fill="#000000" fill-opacity="1" transform="matrix(1,0,0,1,5.05,13.314)" id="mark35 l" />
  <path d="M 12.232 -3.2479999999999998 C 12.229333333333333 -3.349333333333333, 12.227333333333334 -3.4333333333333336, 12.226 -3.5 C 12.224666666666668 -3.5666666666666664, 12.224666666666668 -3.6346666666666665, 12.226 -3.7039999999999997 C 12.227333333333334 -3.773333333333333, 12.229333333333333 -3.8626666666666667, 12.232 -3.972 L 13.312 -3.972 L 13.312 -3.1079999999999997 C 13.312 -2.8706666666666663, 13.425333333333333 -2.7199999999999998, 13.652 -2.6559999999999997 L 13.652 -1.7639999999999998 C 13.164 -1.801333333333333, 12.808666666666667 -1.9359999999999997, 12.586 -2.1679999999999997 C 12.363333333333333 -2.4, 12.245333333333335 -2.76, 12.232 -3.2479999999999998 Z M 12.3 -7.3 L 12.3 -8.232 L 15.544 -8.232 L 15.544 -7.3 Z M 14.152000000000001 -2.6519999999999997 C 14.376000000000001 -2.7079999999999997, 14.492 -2.8586666666666662, 14.5 -3.104 C 14.505333333333333 -3.3066666666666666, 14.508666666666667 -3.489333333333333, 14.51 -3.652 C 14.511333333333333 -3.8146666666666667, 14.506666666666668 -3.9719999999999995, 14.496 -4.124 C 14.488 -4.2813333333333325, 14.440000000000001 -4.414666666666666, 14.352 -4.524 C 14.264 -4.633333333333333, 14.097333333333335 -4.685333333333333, 13.852 -4.68 L 13.104 -4.672 L 13.076 -5.564 L 14.036 -6.9479999999999995 L 15.224 -6.9479999999999995 L 14.256 -5.596 L 14.288 -5.596 C 14.719999999999999 -5.596, 15.036666666666665 -5.473333333333333, 15.238 -5.228 C 15.439333333333334 -4.982666666666667, 15.552 -4.605333333333333, 15.576 -4.096 C 15.581333333333333 -4.024, 15.584666666666667 -3.952, 15.586 -3.88 C 15.587333333333333 -3.808, 15.588000000000001 -3.737333333333333, 15.588000000000001 -3.6679999999999997 C 15.588000000000001 -3.5986666666666665, 15.587333333333333 -3.529333333333333, 15.586 -3.46 C 15.584666666666667 -3.3906666666666667, 15.581333333333333 -3.3200000000000003, 15.576 -3.2479999999999998 C 15.557333333333334 -2.752, 15.436666666666667 -2.3873333333333333, 15.214 -2.154 C 14.991333333333333 -1.9206666666666665, 14.638666666666666 -1.7906666666666666, 14.156 -1.7639999999999998 Z M 16.18 -3.2479999999999998 C 16.174666666666667 -3.421333333333333, 16.173333333333332 -3.5606666666666666, 16.176 -3.666 C 16.178666666666665 -3.771333333333333, 16.181333333333335 -3.873333333333333, 16.183999999999997 -3.972 L 17.264 -3.972 C 17.256 -3.8946666666666667, 17.25 -3.7986666666666666, 17.246 -3.6839999999999997 C 17.241999999999997 -3.569333333333333, 17.240666666666666 -3.4586666666666663, 17.241999999999997 -3.352 C 17.243333333333332 -3.2453333333333334, 17.246666666666666 -3.1653333333333338, 17.252 -3.112 C 17.262666666666668 -2.992, 17.297333333333334 -2.8939999999999997, 17.355999999999998 -2.8179999999999996 C 17.414666666666665 -2.7419999999999995, 17.497333333333334 -2.6879999999999997, 17.604 -2.6559999999999997 L 17.604 -1.7639999999999998 C 17.110666666666663 -1.801333333333333, 16.75333333333333 -1.9359999999999997, 16.532 -2.1679999999999997 C 16.310666666666666 -2.4, 16.19333333333333 -2.76, 16.18 -3.2479999999999998 Z M 16.279999999999998 -4.584 L 16.279999999999998 -8.232 L 17.348 -8.232 L 17.348 -4.584 Z M 17.852 -5.008 L 17.852 -5.763999999999999 C 17.929333333333332 -5.804, 18.014666666666667 -5.836, 18.107999999999997 -5.86 C 18.20133333333333 -5.884, 18.301333333333332 -5.896, 18.407999999999998 -5.896 C 18.773333333333333 -5.896, 19.047333333333334 -5.780666666666667, 19.23 -5.55 C 19.412666666666667 -5.319333333333333, 19.514666666666663 -5.005333333333333, 19.535999999999998 -4.608 C 19.546666666666667 -4.448, 19.55333333333333 -4.289333333333333, 19.555999999999997 -4.132 C 19.558666666666664 -3.974666666666667, 19.557333333333332 -3.8213333333333335, 19.552 -3.6719999999999997 C 19.546666666666667 -3.522666666666667, 19.538666666666668 -3.3826666666666663, 19.528 -3.252 C 19.482666666666667 -2.753333333333333, 19.353333333333335 -2.388, 19.14 -2.1559999999999997 C 18.926666666666666 -1.9239999999999997, 18.581333333333333 -1.793333333333333, 18.104 -1.7639999999999998 L 18.104 -2.6559999999999997 C 18.21333333333333 -2.685333333333333, 18.296 -2.738, 18.352 -2.814 C 18.408 -2.89, 18.44 -2.9893333333333336, 18.448 -3.112 C 18.471999999999998 -3.4026666666666667, 18.485999999999997 -3.664, 18.49 -3.896 C 18.494 -4.128, 18.485333333333333 -4.349333333333333, 18.464 -4.5600000000000005 C 18.447999999999997 -4.714666666666667, 18.396666666666665 -4.83, 18.31 -4.906 C 18.223333333333333 -4.981999999999999, 18.090666666666664 -5.02, 17.912 -5.02 C 17.901333333333334 -5.02, 17.890666666666668 -5.018666666666666, 17.88 -5.016 C 17.86933333333333 -5.013333333333334, 17.86 -5.010666666666667, 17.852 -5.008 Z M 17.852 -7.3 L 17.852 -8.232 L 19.439999999999998 -8.232 L 19.439999999999998 -7.3 Z M 21.944 -1.8319999999999999 L 21.944 -8.232 L 23.003999999999998 -8.232 L 23.003999999999998 -1.8319999999999999 Z " stroke="none" fill-rule="nonzero" fill="#000000" fill-opacity="1" transform="matrix(1,0,0,1,5.05,13.314)" id="text35 l" />
  <path d="M -5 -13.264 L 30 -13.264 L 30 463.0750171297387 L -5 463.0750171297387 Z " stroke="#FF0000" stroke-opacity="1" stroke-width="0.1" stroke-linecap="butt" stroke-linejoin="miter" fill="none" transform="matrix(1,0,0,1,5.05,13.314)" />
</svg>