<?xml version="1.0" encoding="UTF-8"?>
<svg xmlns:xlink="http://www.w3.org/1999/xlink" viewBox="0 0 35.1 402.15919123568835" version="1.1" style="font-synthesis: none;" width="35.1mm" height="402.1591912356884mm" xmlns="http://www.w3.org/2000/svg">
  <defs />
  <style>	</style>
  <path d="M 0 0 L 35.1 0 L 35.1 402.15919123568835 L 0 402.15919123568835 Z " stroke="none" fill-rule="nonzero" fill="#FFFFFF" fill-opacity="1" transform="matrix(1,0,0,1,0,0)" />
  <path d="M 0 381.3091912356884 L 10 381.3091912356884 L 10 382.8091912356884 L 0 382.8091912356884 Z " stroke="none" fill-rule="evenodd" fill="#000000" fill-opacity="1" transform="matrix(1,0,0,1,5.05,13.314)" id="mark1 l" />
  <path d="M 0 354.0192490045678 L 10 354.0192490045678 L 10 355.5192490045678 L 0 355.5192490045678 Z " stroke="none" fill-rule="evenodd" fill="#000000" fill-opacity="1" transform="matrix(1,0,0,1,5.05,13.314)" id="mark2 l" />
  <path d="M 0 326.7293067734472 L 10 326.7293067734472 L 10 328.2293067734472 L 0 328.2293067734472 Z " stroke="none" fill-rule="evenodd" fill="#000000" fill-opacity="1" transform="matrix(1,0,0,1,5.05,13.314)" id="mark3 l" />
  <path d="M 0 299.4393645423266 L 10 299.4393645423266 L 10 300.9393645423266 L 0 300.9393645423266 Z " stroke="none" fill-rule="evenodd" fill="#000000" fill-opacity="1" transform="matrix(1,0,0,1,5.05,13.314)" id="mark4 l" />
  <path d="M 0 272.14942231120597 L 25 272.14942231120597 L 25 273.64942231120597 L 0 273.64942231120597 Z " stroke="none" fill-rule="evenodd" fill="#000000" fill-opacity="1" transform="matrix(1,0,0,1,5.05,13.314)" id="mark5 l" />
  <path d="M 16.18 269.651422311206 C 16.174666666666667 269.47808897787263, 16.173333333333332 269.33875564453933, 16.176 269.23342231120597 C 16.178666666666665 269.1280889778726, 16.181333333333335 269.02608897787263, 16.183999999999997 268.927422311206 L 17.264 268.927422311206 C 17.256 269.00475564453933, 17.25 269.10075564453933, 17.246 269.215422311206 C 17.241999999999997 269.33008897787266, 17.240666666666666 269.4407556445393, 17.241999999999997 269.547422311206 C 17.243333333333332 269.6540889778726, 17.246666666666666 269.7340889778726, 17.252 269.787422311206 C 17.262666666666668 269.907422311206, 17.297333333333334 270.00542231120596, 17.355999999999998 270.081422311206 C 17.414666666666665 270.15742231120595, 17.497333333333334 270.211422311206, 17.604 270.24342231120596 L 17.604 271.13542231120596 C 17.110666666666663 271.09808897787264, 16.75333333333333 270.96342231120593, 16.532 270.73142231120596 C 16.310666666666666 270.499422311206, 16.19333333333333 270.139422311206, 16.18 269.651422311206 Z M 16.279999999999998 268.31542231120596 L 16.279999999999998 264.667422311206 L 17.348 264.667422311206 L 17.348 268.31542231120596 Z M 17.852 267.891422311206 L 17.852 267.13542231120596 C 17.929333333333332 267.095422311206, 18.014666666666667 267.06342231120595, 18.107999999999997 267.03942231120595 C 18.20133333333333 267.01542231120595, 18.301333333333332 267.00342231120595, 18.407999999999998 267.00342231120595 C 18.773333333333333 267.00342231120595, 19.047333333333334 267.1187556445393, 19.23 267.34942231120596 C 19.412666666666667 267.5800889778726, 19.514666666666663 267.8940889778726, 19.535999999999998 268.29142231120596 C 19.546666666666667 268.451422311206, 19.55333333333333 268.61008897787264, 19.555999999999997 268.76742231120596 C 19.558666666666664 268.9247556445393, 19.557333333333332 269.07808897787265, 19.552 269.227422311206 C 19.546666666666667 269.37675564453934, 19.538666666666668 269.51675564453933, 19.528 269.64742231120596 C 19.482666666666667 270.14608897787264, 19.353333333333335 270.51142231120593, 19.14 270.74342231120596 C 18.926666666666666 270.975422311206, 18.581333333333333 271.1060889778726, 18.104 271.13542231120596 L 18.104 270.24342231120596 C 18.21333333333333 270.2140889778726, 18.296 270.16142231120597, 18.352 270.08542231120595 C 18.408 270.009422311206, 18.44 269.91008897787265, 18.448 269.787422311206 C 18.471999999999998 269.49675564453935, 18.485999999999997 269.235422311206, 18.49 269.00342231120595 C 18.494 268.771422311206, 18.485333333333333 268.55008897787263, 18.464 268.33942231120596 C 18.447999999999997 268.18475564453934, 18.396666666666665 268.069422311206, 18.31 267.99342231120596 C 18.223333333333333 267.917422311206, 18.090666666666664 267.879422311206, 17.912 267.879422311206 C 17.901333333333334 267.879422311206, 17.890666666666668 267.8807556445393, 17.88 267.88342231120595 C 17.86933333333333 267.88608897787265, 17.86 267.8887556445393, 17.852 267.891422311206 Z M 17.852 265.59942231120596 L 17.852 264.667422311206 L 19.439999999999998 264.667422311206 L 19.439999999999998 265.59942231120596 Z M 21.944 271.067422311206 L 21.944 264.667422311206 L 23.003999999999998 264.667422311206 L 23.003999999999998 271.067422311206 Z " stroke="none" fill-rule="nonzero" fill="#000000" fill-opacity="1" transform="matrix(1,0,0,1,5.05,13.314)" id="text5 l" />
  <path d="M 0 244.8594800800854 L 10 244.8594800800854 L 10 246.3594800800854 L 0 246.3594800800854 Z " stroke="none" fill-rule="evenodd" fill="#000000" fill-opacity="1" transform="matrix(1,0,0,1,5.05,13.314)" id="mark6 l" />
  <path d="M 0 217.56953784896479 L 10 217.56953784896479 L 10 219.06953784896479 L 0 219.06953784896479 Z " stroke="none" fill-rule="evenodd" fill="#000000" fill-opacity="1" transform="matrix(1,0,0,1,5.05,13.314)" id="mark7 l" />
  <path d="M 0 190.2795956178442 L 10 190.2795956178442 L 10 191.7795956178442 L 0 191.7795956178442 Z " stroke="none" fill-rule="evenodd" fill="#000000" fill-opacity="1" transform="matrix(1,0,0,1,5.05,13.314)" id="mark8 l" />
  <path d="M 0 162.98965338672357 L 10 162.98965338672357 L 10 164.48965338672357 L 0 164.48965338672357 Z " stroke="none" fill-rule="evenodd" fill="#000000" fill-opacity="1" transform="matrix(1,0,0,1,5.05,13.314)" id="mark9 l" />
  <path d="M 0 135.69971115560298 L 25 135.69971115560298 L 25 137.19971115560298 L 0 137.19971115560298 Z " stroke="none" fill-rule="evenodd" fill="#000000" fill-opacity="1" transform="matrix(1,0,0,1,5.05,13.314)" id="mark10 l" />
  <path d="M 14.323999999999998 134.649711155603 L 14.323999999999998 129.205711155603 L 13.871999999999998 129.205711155603 L 13.839999999999998 128.825711155603 L 14.543999999999999 128.249711155603 L 15.424 128.249711155603 L 15.424 134.649711155603 Z M 16.196 133.237711155603 C 16.188000000000002 132.80837782226965, 16.182666666666666 132.391711155603, 16.18 131.987711155603 C 16.177333333333333 131.583711155603, 16.177999999999997 131.18837782226967, 16.182 130.801711155603 C 16.186 130.41504448893633, 16.190666666666665 130.03371115560302, 16.196 129.657711155603 C 16.209333333333333 129.217711155603, 16.334000000000003 128.8723778222697, 16.57 128.621711155603 C 16.805999999999997 128.37104448893632, 17.142666666666663 128.225711155603, 17.58 128.185711155603 L 17.58 129.073711155603 C 17.382666666666665 129.129711155603, 17.281333333333333 129.25904448893635, 17.276 129.461711155603 C 17.262666666666668 129.83237782226968, 17.253333333333334 130.18037782226966, 17.248 130.505711155603 C 17.242666666666665 130.83104448893633, 17.24 131.147711155603, 17.24 131.455711155603 C 17.24 131.763711155603, 17.242666666666665 132.07837782226966, 17.248 132.399711155603 C 17.253333333333334 132.72104448893634, 17.262666666666668 133.06437782226965, 17.276 133.429711155603 C 17.281333333333333 133.63771115560303, 17.382666666666665 133.769711155603, 17.58 133.825711155603 L 17.58 134.713711155603 C 17.142666666666663 134.67371115560297, 16.805999999999997 134.527711155603, 16.57 134.275711155603 C 16.334000000000003 134.023711155603, 16.209333333333333 133.677711155603, 16.196 133.237711155603 Z M 18.084 134.713711155603 L 18.084 133.821711155603 C 18.268 133.76837782226968, 18.366666666666667 133.6443778222697, 18.38 133.449711155603 C 18.398666666666667 132.98304448893634, 18.410666666666668 132.53437782226968, 18.416 132.103711155603 C 18.421333333333333 131.67304448893634, 18.421333333333333 131.24237782226967, 18.416 130.811711155603 C 18.410666666666668 130.38104448893634, 18.398666666666667 129.92837782226968, 18.38 129.453711155603 C 18.374666666666666 129.25904448893635, 18.276 129.1323778222697, 18.084 129.073711155603 L 18.084 128.185711155603 C 18.513333333333335 128.225711155603, 18.846666666666668 128.37104448893632, 19.084 128.621711155603 C 19.321333333333335 128.8723778222697, 19.445333333333334 129.217711155603, 19.456 129.657711155603 C 19.46666666666667 129.97237782226966, 19.474666666666668 130.28237782226967, 19.48 130.587711155603 C 19.485333333333333 130.8930444889363, 19.488 131.19371115560298, 19.488 131.489711155603 C 19.488 131.785711155603, 19.485333333333333 132.07904448893632, 19.48 132.369711155603 C 19.474666666666668 132.66037782226968, 19.46666666666667 132.949711155603, 19.456 133.237711155603 C 19.439999999999998 133.68837782226967, 19.311999999999998 134.03704448893635, 19.072 134.283711155603 C 18.832 134.53037782226966, 18.502666666666666 134.67371115560297, 18.084 134.713711155603 Z M 21.944 134.649711155603 L 21.944 128.249711155603 L 23.003999999999998 128.249711155603 L 23.003999999999998 134.649711155603 Z " stroke="none" fill-rule="nonzero" fill="#000000" fill-opacity="1" transform="matrix(1,0,0,1,5.05,13.314)" id="text10 l" />
  <path d="M 0 108.40976892448236 L 10 108.40976892448236 L 10 109.90976892448236 L 0 109.90976892448236 Z " stroke="none" fill-rule="evenodd" fill="#000000" fill-opacity="1" transform="matrix(1,0,0,1,5.05,13.314)" id="mark11 l" />
  <path d="M 0 81.1198266933618 L 10 81.1198266933618 L 10 82.6198266933618 L 0 82.6198266933618 Z " stroke="none" fill-rule="evenodd" fill="#000000" fill-opacity="1" transform="matrix(1,0,0,1,5.05,13.314)" id="mark12 l" />
  <path d="M 0 53.82988446224118 L 10 53.82988446224118 L 10 55.32988446224118 L 0 55.32988446224118 Z " stroke="none" fill-rule="evenodd" fill="#000000" fill-opacity="1" transform="matrix(1,0,0,1,5.05,13.314)" id="mark13 l" />
  <path d="M 0 26.539942231120563 L 10 26.539942231120563 L 10 28.039942231120563 L 0 28.039942231120563 Z " stroke="none" fill-rule="evenodd" fill="#000000" fill-opacity="1" transform="matrix(1,0,0,1,5.05,13.314)" id="mark14 l" />
  <path d="M 0 -0.75 L 25 -0.75 L 25 0.75 L 0 0.75 Z " stroke="none" fill-rule="evenodd" fill="#000000" fill-opacity="1" transform="matrix(1,0,0,1,5.05,13.314)" id="mark15 l" />
  <path d="M 14.331999999999999 -1.8319999999999999 L 14.331999999999999 -7.276 L 13.879999999999999 -7.276 L 13.847999999999999 -7.656 L 14.552 -8.232 L 15.432 -8.232 L 15.432 -1.8319999999999999 Z M 16.18 -3.2479999999999998 C 16.174666666666667 -3.421333333333333, 16.173333333333332 -3.5606666666666666, 16.176 -3.666 C 16.178666666666665 -3.771333333333333, 16.181333333333335 -3.873333333333333, 16.183999999999997 -3.972 L 17.264 -3.972 C 17.256 -3.8946666666666667, 17.25 -3.7986666666666666, 17.246 -3.6839999999999997 C 17.241999999999997 -3.569333333333333, 17.240666666666666 -3.4586666666666663, 17.241999999999997 -3.352 C 17.243333333333332 -3.2453333333333334, 17.246666666666666 -3.1653333333333338, 17.252 -3.112 C 17.262666666666668 -2.992, 17.297333333333334 -2.8939999999999997, 17.355999999999998 -2.8179999999999996 C 17.414666666666665 -2.7419999999999995, 17.497333333333334 -2.6879999999999997, 17.604 -2.6559999999999997 L 17.604 -1.7639999999999998 C 17.110666666666663 -1.801333333333333, 16.75333333333333 -1.9359999999999997, 16.532 -2.1679999999999997 C 16.310666666666666 -2.4, 16.19333333333333 -2.76, 16.18 -3.2479999999999998 Z M 16.279999999999998 -4.584 L 16.279999999999998 -8.232 L 17.348 -8.232 L 17.348 -4.584 Z M 17.852 -5.008 L 17.852 -5.763999999999999 C 17.929333333333332 -5.804, 18.014666666666667 -5.836, 18.107999999999997 -5.86 C 18.20133333333333 -5.884, 18.301333333333332 -5.896, 18.407999999999998 -5.896 C 18.773333333333333 -5.896, 19.047333333333334 -5.780666666666667, 19.23 -5.55 C 19.412666666666667 -5.319333333333333, 19.514666666666663 -5.005333333333333, 19.535999999999998 -4.608 C 19.546666666666667 -4.448, 19.55333333333333 -4.289333333333333, 19.555999999999997 -4.132 C 19.558666666666664 -3.974666666666667, 19.557333333333332 -3.8213333333333335, 19.552 -3.6719999999999997 C 19.546666666666667 -3.522666666666667, 19.538666666666668 -3.3826666666666663, 19.528 -3.252 C 19.482666666666667 -2.753333333333333, 19.353333333333335 -2.388, 19.14 -2.1559999999999997 C 18.926666666666666 -1.9239999999999997, 18.581333333333333 -1.793333333333333, 18.104 -1.7639999999999998 L 18.104 -2.6559999999999997 C 18.21333333333333 -2.685333333333333, 18.296 -2.738, 18.352 -2.814 C 18.408 -2.89, 18.44 -2.9893333333333336, 18.448 -3.112 C 18.471999999999998 -3.4026666666666667, 18.485999999999997 -3.664, 18.49 -3.896 C 18.494 -4.128, 18.485333333333333 -4.349333333333333, 18.464 -4.5600000000000005 C 18.447999999999997 -4.714666666666667, 18.396666666666665 -4.83, 18.31 -4.906 C 18.223333333333333 -4.981999999999999, 18.090666666666664 -5.02, 17.912 -5.02 C 17.901333333333334 -5.02, 17.890666666666668 -5.018666666666666, 17.88 -5.016 C 17.86933333333333 -5.013333333333334, 17.86 -5.010666666666667, 17.852 -5.008 Z M 17.852 -7.3 L 17.852 -8.232 L 19.439999999999998 -8.232 L 19.439999999999998 -7.3 Z M 21.944 -1.8319999999999999 L 21.944 -8.232 L 23.003999999999998 -8.232 L 23.003999999999998 -1.8319999999999999 Z " stroke="none" fill-rule="nonzero" fill="#000000" fill-opacity="1" transform="matrix(1,0,0,1,5.05,13.314)" id="text15 l" />
  <path d="M -5 -13.264 L 30 -13.264 L 30 388.7951912356884 L -5 388.7951912356884 Z " stroke="#FF0000" stroke-opacity="1" stroke-width="0.1" stroke-linecap="butt" stroke-linejoin="miter" fill="none" transform="matrix(1,0,0,1,5.05,13.314)" />
</svg>