<?xml version="1.0" encoding="UTF-8"?>
<svg xmlns:xlink="http://www.w3.org/1999/xlink" viewBox="0 0 35.1 301.89954981013796" version="1.1" style="font-synthesis: none;" width="35.1mm" height="301.89954981013796mm" xmlns="http://www.w3.org/2000/svg">
  <defs />
  <style>	</style>
  <path d="M 0 0 L 35.1 0 L 35.1 301.89954981013796 L 0 301.89954981013796 Z " stroke="none" fill-rule="nonzero" fill="#FFFFFF" fill-opacity="1" transform="matrix(1,0,0,1,0,0)" />
  <path d="M 0 281.01754981013795 L 10 281.01754981013795 L 10 282.51754981013795 L 0 282.51754981013795 Z " stroke="none" fill-rule="evenodd" fill="#000000" fill-opacity="1" transform="matrix(1,0,0,1,5.05,13.314)" id="mark1 l" />
  <path d="M 0 271.3014274028918 L 10 271.3014274028918 L 10 272.8014274028918 L 0 272.8014274028918 Z " stroke="none" fill-rule="evenodd" fill="#000000" fill-opacity="1" transform="matrix(1,0,0,1,5.05,13.314)" id="mark2 l" />
  <path d="M 0 261.5853049956457 L 10 261.5853049956457 L 10 263.0853049956457 L 0 263.0853049956457 Z " stroke="none" fill-rule="evenodd" fill="#000000" fill-opacity="1" transform="matrix(1,0,0,1,5.05,13.314)" id="mark3 l" />
  <path d="M 0 251.86918258839955 L 10 251.86918258839955 L 10 253.36918258839955 L 0 253.36918258839955 Z " stroke="none" fill-rule="evenodd" fill="#000000" fill-opacity="1" transform="matrix(1,0,0,1,5.05,13.314)" id="mark4 l" />
  <path d="M 0 242.1530601811534 L 25 242.1530601811534 L 25 243.6530601811534 L 0 243.6530601811534 Z " stroke="none" fill-rule="evenodd" fill="#000000" fill-opacity="1" transform="matrix(1,0,0,1,5.05,13.314)" id="mark5 l" />
  <path d="M 16.18 239.6550601811534 C 16.174666666666667 239.48172684782008, 16.173333333333332 239.34239351448673, 16.176 239.2370601811534 C 16.178666666666665 239.13172684782006, 16.181333333333335 239.0297268478201, 16.183999999999997 238.9310601811534 L 17.264 238.9310601811534 C 17.256 239.00839351448673, 17.25 239.10439351448673, 17.246 239.2190601811534 C 17.241999999999997 239.33372684782006, 17.240666666666666 239.44439351448673, 17.241999999999997 239.5510601811534 C 17.243333333333332 239.65772684782004, 17.246666666666666 239.73772684782006, 17.252 239.7910601811534 C 17.262666666666668 239.9110601811534, 17.297333333333334 240.00906018115342, 17.355999999999998 240.0850601811534 C 17.414666666666665 240.1610601811534, 17.497333333333334 240.21506018115338, 17.604 240.2470601811534 L 17.604 241.1390601811534 C 17.110666666666663 241.10172684782006, 16.75333333333333 240.96706018115339, 16.532 240.7350601811534 C 16.310666666666666 240.5030601811534, 16.19333333333333 240.14306018115337, 16.18 239.6550601811534 Z M 16.279999999999998 238.3190601811534 L 16.279999999999998 234.6710601811534 L 17.348 234.6710601811534 L 17.348 238.3190601811534 Z M 17.852 237.8950601811534 L 17.852 237.1390601811534 C 17.929333333333332 237.0990601811534, 18.014666666666667 237.0670601811534, 18.107999999999997 237.0430601811534 C 18.20133333333333 237.0190601811534, 18.301333333333332 237.0070601811534, 18.407999999999998 237.0070601811534 C 18.773333333333333 237.0070601811534, 19.047333333333334 237.12239351448673, 19.23 237.3530601811534 C 19.412666666666667 237.5837268478201, 19.514666666666663 237.89772684782008, 19.535999999999998 238.2950601811534 C 19.546666666666667 238.45506018115339, 19.55333333333333 238.61372684782003, 19.555999999999997 238.7710601811534 C 19.558666666666664 238.92839351448674, 19.557333333333332 239.08172684782005, 19.552 239.2310601811534 C 19.546666666666667 239.38039351448674, 19.538666666666668 239.52039351448673, 19.528 239.6510601811534 C 19.482666666666667 240.1497268478201, 19.353333333333335 240.5150601811534, 19.14 240.7470601811534 C 18.926666666666666 240.9790601811534, 18.581333333333333 241.10972684782007, 18.104 241.1390601811534 L 18.104 240.2470601811534 C 18.21333333333333 240.21772684782007, 18.296 240.16506018115342, 18.352 240.0890601811534 C 18.408 240.01306018115338, 18.44 239.91372684782004, 18.448 239.7910601811534 C 18.471999999999998 239.50039351448675, 18.485999999999997 239.2390601811534, 18.49 239.0070601811534 C 18.494 238.7750601811534, 18.485333333333333 238.5537268478201, 18.464 238.3430601811534 C 18.447999999999997 238.18839351448673, 18.396666666666665 238.07306018115338, 18.31 237.9970601811534 C 18.223333333333333 237.9210601811534, 18.090666666666664 237.88306018115338, 17.912 237.8830601811534 C 17.901333333333334 237.88306018115338, 17.890666666666668 237.88439351448673, 17.88 237.8870601811534 C 17.86933333333333 237.88972684782007, 17.86 237.89239351448674, 17.852 237.8950601811534 Z M 17.852 235.6030601811534 L 17.852 234.6710601811534 L 19.439999999999998 234.6710601811534 L 19.439999999999998 235.6030601811534 Z M 21.944 241.0710601811534 L 21.944 234.6710601811534 L 23.003999999999998 234.6710601811534 L 23.003999999999998 241.0710601811534 Z " stroke="none" fill-rule="nonzero" fill="#000000" fill-opacity="1" transform="matrix(1,0,0,1,5.05,13.314)" id="text5 l" />
  <path d="M 0 232.43693777390726 L 10 232.43693777390726 L 10 233.93693777390726 L 0 233.93693777390726 Z " stroke="none" fill-rule="evenodd" fill="#000000" fill-opacity="1" transform="matrix(1,0,0,1,5.05,13.314)" id="mark6 l" />
  <path d="M 0 222.72081536666113 L 10 222.72081536666113 L 10 224.22081536666113 L 0 224.22081536666113 Z " stroke="none" fill-rule="evenodd" fill="#000000" fill-opacity="1" transform="matrix(1,0,0,1,5.05,13.314)" id="mark7 l" />
  <path d="M 0 213.004692959415 L 10 213.004692959415 L 10 214.504692959415 L 0 214.504692959415 Z " stroke="none" fill-rule="evenodd" fill="#000000" fill-opacity="1" transform="matrix(1,0,0,1,5.05,13.314)" id="mark8 l" />
  <path d="M 0 203.28857055216886 L 10 203.28857055216886 L 10 204.78857055216886 L 0 204.78857055216886 Z " stroke="none" fill-rule="evenodd" fill="#000000" fill-opacity="1" transform="matrix(1,0,0,1,5.05,13.314)" id="mark9 l" />
  <path d="M 0 193.5724481449227 L 25 193.5724481449227 L 25 195.0724481449227 L 0 195.0724481449227 Z " stroke="none" fill-rule="evenodd" fill="#000000" fill-opacity="1" transform="matrix(1,0,0,1,5.05,13.314)" id="mark10 l" />
  <path d="M 14.323999999999998 192.52244814492272 L 14.323999999999998 187.07844814492273 L 13.871999999999998 187.07844814492273 L 13.839999999999998 186.6984481449227 L 14.543999999999999 186.1224481449227 L 15.424 186.1224481449227 L 15.424 192.52244814492272 Z M 16.196 191.1104481449227 C 16.188000000000002 190.68111481158937, 16.182666666666666 190.2644481449227, 16.18 189.8604481449227 C 16.177333333333333 189.45644814492272, 16.177999999999997 189.0611148115894, 16.182 188.6744481449227 C 16.186 188.28778147825605, 16.190666666666665 187.90644814492273, 16.196 187.53044814492273 C 16.209333333333333 187.09044814492273, 16.334000000000003 186.7451148115894, 16.57 186.49444814492273 C 16.805999999999997 186.24378147825607, 17.142666666666663 186.0984481449227, 17.58 186.05844814492272 L 17.58 186.94644814492273 C 17.382666666666665 187.00244814492274, 17.281333333333333 187.13178147825607, 17.276 187.33444814492273 C 17.262666666666668 187.7051148115894, 17.253333333333334 188.05311481158938, 17.248 188.37844814492271 C 17.242666666666665 188.70378147825605, 17.24 189.0204481449227, 17.24 189.32844814492273 C 17.24 189.63644814492272, 17.242666666666665 189.95111481158938, 17.248 190.27244814492272 C 17.253333333333334 190.59378147825606, 17.262666666666668 190.9371148115894, 17.276 191.30244814492272 C 17.281333333333333 191.51044814492272, 17.382666666666665 191.64244814492272, 17.58 191.6984481449227 L 17.58 192.5864481449227 C 17.142666666666663 192.5464481449227, 16.805999999999997 192.40044814492273, 16.57 192.14844814492272 C 16.334000000000003 191.89644814492272, 16.209333333333333 191.5504481449227, 16.196 191.1104481449227 Z M 18.084 192.5864481449227 L 18.084 191.69444814492272 C 18.268 191.64111481158938, 18.366666666666667 191.5171148115894, 18.38 191.32244814492273 C 18.398666666666667 190.85578147825606, 18.410666666666668 190.4071148115894, 18.416 189.97644814492273 C 18.421333333333333 189.54578147825606, 18.421333333333333 189.11511481158936, 18.416 188.68444814492273 C 18.410666666666668 188.25378147825603, 18.398666666666667 187.80111481158937, 18.38 187.32644814492272 C 18.374666666666666 187.13178147825604, 18.276 187.00511481158938, 18.084 186.94644814492273 L 18.084 186.05844814492272 C 18.513333333333335 186.0984481449227, 18.846666666666668 186.24378147825607, 19.084 186.49444814492273 C 19.321333333333335 186.7451148115894, 19.445333333333334 187.09044814492273, 19.456 187.53044814492273 C 19.46666666666667 187.84511481158938, 19.474666666666668 188.15511481158939, 19.48 188.4604481449227 C 19.485333333333333 188.76578147825603, 19.488 189.06644814492273, 19.488 189.36244814492272 C 19.488 189.65844814492272, 19.485333333333333 189.95178147825604, 19.48 190.24244814492272 C 19.474666666666668 190.5331148115894, 19.46666666666667 190.82244814492273, 19.456 191.1104481449227 C 19.439999999999998 191.5611148115894, 19.311999999999998 191.90978147825604, 19.072 192.1564481449227 C 18.832 192.40311481158938, 18.502666666666666 192.5464481449227, 18.084 192.5864481449227 Z M 21.944 192.52244814492272 L 21.944 186.1224481449227 L 23.003999999999998 186.1224481449227 L 23.003999999999998 192.52244814492272 Z " stroke="none" fill-rule="nonzero" fill="#000000" fill-opacity="1" transform="matrix(1,0,0,1,5.05,13.314)" id="text10 l" />
  <path d="M 0 183.85632573767657 L 10 183.85632573767657 L 10 185.35632573767657 L 0 185.35632573767657 Z " stroke="none" fill-rule="evenodd" fill="#000000" fill-opacity="1" transform="matrix(1,0,0,1,5.05,13.314)" id="mark11 l" />
  <path d="M 0 174.14020333043044 L 10 174.14020333043044 L 10 175.64020333043044 L 0 175.64020333043044 Z " stroke="none" fill-rule="evenodd" fill="#000000" fill-opacity="1" transform="matrix(1,0,0,1,5.05,13.314)" id="mark12 l" />
  <path d="M 0 164.4240809231843 L 10 164.4240809231843 L 10 165.9240809231843 L 0 165.9240809231843 Z " stroke="none" fill-rule="evenodd" fill="#000000" fill-opacity="1" transform="matrix(1,0,0,1,5.05,13.314)" id="mark13 l" />
  <path d="M 0 154.70795851593817 L 10 154.70795851593817 L 10 156.20795851593817 L 0 156.20795851593817 Z " stroke="none" fill-rule="evenodd" fill="#000000" fill-opacity="1" transform="matrix(1,0,0,1,5.05,13.314)" id="mark14 l" />
  <path d="M 0 144.99183610869204 L 25 144.99183610869204 L 25 146.49183610869204 L 0 146.49183610869204 Z " stroke="none" fill-rule="evenodd" fill="#000000" fill-opacity="1" transform="matrix(1,0,0,1,5.05,13.314)" id="mark15 l" />
  <path d="M 14.331999999999999 143.90983610869205 L 14.331999999999999 138.46583610869206 L 13.879999999999999 138.46583610869206 L 13.847999999999999 138.08583610869204 L 14.552 137.50983610869204 L 15.432 137.50983610869204 L 15.432 143.90983610869205 Z M 16.18 142.49383610869205 C 16.174666666666667 142.32050277535873, 16.173333333333332 142.1811694420254, 16.176 142.07583610869204 C 16.178666666666665 141.97050277535874, 16.181333333333335 141.86850277535873, 16.183999999999997 141.76983610869206 L 17.264 141.76983610869206 C 17.256 141.84716944202538, 17.25 141.94316944202538, 17.246 142.05783610869204 C 17.241999999999997 142.1725027753587, 17.240666666666666 142.28316944202538, 17.241999999999997 142.38983610869204 C 17.243333333333332 142.4965027753587, 17.246666666666666 142.5765027753587, 17.252 142.62983610869205 C 17.262666666666668 142.74983610869205, 17.297333333333334 142.84783610869204, 17.355999999999998 142.92383610869206 C 17.414666666666665 142.99983610869202, 17.497333333333334 143.05383610869202, 17.604 143.08583610869204 L 17.604 143.97783610869206 C 17.110666666666663 143.9405027753587, 16.75333333333333 143.80583610869203, 16.532 143.57383610869203 C 16.310666666666666 143.34183610869204, 16.19333333333333 142.98183610869205, 16.18 142.49383610869205 Z M 16.279999999999998 141.15783610869204 L 16.279999999999998 137.50983610869204 L 17.348 137.50983610869204 L 17.348 141.15783610869204 Z M 17.852 140.73383610869206 L 17.852 139.97783610869206 C 17.929333333333332 139.93783610869207, 18.014666666666667 139.90583610869206, 18.107999999999997 139.88183610869206 C 18.20133333333333 139.85783610869206, 18.301333333333332 139.84583610869205, 18.407999999999998 139.84583610869205 C 18.773333333333333 139.84583610869205, 19.047333333333334 139.96116944202538, 19.23 140.19183610869206 C 19.412666666666667 140.4225027753587, 19.514666666666663 140.7365027753587, 19.535999999999998 141.13383610869204 C 19.546666666666667 141.29383610869203, 19.55333333333333 141.4525027753587, 19.555999999999997 141.60983610869204 C 19.558666666666664 141.7671694420254, 19.557333333333332 141.92050277535873, 19.552 142.06983610869204 C 19.546666666666667 142.21916944202536, 19.538666666666668 142.35916944202538, 19.528 142.48983610869206 C 19.482666666666667 142.9885027753587, 19.353333333333335 143.35383610869206, 19.14 143.58583610869204 C 18.926666666666666 143.81783610869206, 18.581333333333333 143.94850277535872, 18.104 143.97783610869206 L 18.104 143.08583610869204 C 18.21333333333333 143.05650277535872, 18.296 143.00383610869204, 18.352 142.92783610869205 C 18.408 142.85183610869205, 18.44 142.75250277535872, 18.448 142.62983610869205 C 18.471999999999998 142.33916944202537, 18.485999999999997 142.07783610869205, 18.49 141.84583610869205 C 18.494 141.61383610869206, 18.485333333333333 141.3925027753587, 18.464 141.18183610869204 C 18.447999999999997 141.02716944202535, 18.396666666666665 140.91183610869203, 18.31 140.83583610869204 C 18.223333333333333 140.75983610869204, 18.090666666666664 140.72183610869206, 17.912 140.72183610869206 C 17.901333333333334 140.72183610869206, 17.890666666666668 140.72316944202538, 17.88 140.72583610869205 C 17.86933333333333 140.72850277535872, 17.86 140.7311694420254, 17.852 140.73383610869206 Z M 17.852 138.44183610869206 L 17.852 137.50983610869204 L 19.439999999999998 137.50983610869204 L 19.439999999999998 138.44183610869206 Z M 21.944 143.90983610869205 L 21.944 137.50983610869204 L 23.003999999999998 137.50983610869204 L 23.003999999999998 143.90983610869205 Z " stroke="none" fill-rule="nonzero" fill="#000000" fill-opacity="1" transform="matrix(1,0,0,1,5.05,13.314)" id="text15 l" />
  <path d="M 0 135.2757137014459 L 10 135.2757137014459 L 10 136.7757137014459 L 0 136.7757137014459 Z " stroke="none" fill-rule="evenodd" fill="#000000" fill-opacity="1" transform="matrix(1,0,0,1,5.05,13.314)" id="mark16 l" />
  <path d="M 0 125.55959129419978 L 10 125.55959129419978 L 10 127.05959129419978 L 0 127.05959129419978 Z " stroke="none" fill-rule="evenodd" fill="#000000" fill-opacity="1" transform="matrix(1,0,0,1,5.05,13.314)" id="mark17 l" />
  <path d="M 0 115.84346888695364 L 10 115.84346888695364 L 10 117.34346888695364 L 0 117.34346888695364 Z " stroke="none" fill-rule="evenodd" fill="#000000" fill-opacity="1" transform="matrix(1,0,0,1,5.05,13.314)" id="mark18 l" />
  <path d="M 0 106.12734647970748 L 10 106.12734647970748 L 10 107.62734647970748 L 0 107.62734647970748 Z " stroke="none" fill-rule="evenodd" fill="#000000" fill-opacity="1" transform="matrix(1,0,0,1,5.05,13.314)" id="mark19 l" />
  <path d="M 0 96.41122407246135 L 25 96.41122407246135 L 25 97.91122407246135 L 0 97.91122407246135 Z " stroke="none" fill-rule="evenodd" fill="#000000" fill-opacity="1" transform="matrix(1,0,0,1,5.05,13.314)" id="mark20 l" />
  <path d="M 12.319999999999999 95.36122407246135 C 12.317333333333334 95.2625574057947, 12.315333333333331 95.17389073912803, 12.313999999999998 95.09522407246135 C 12.312666666666665 95.01655740579469, 12.311333333333334 94.94255740579469, 12.309999999999999 94.87322407246135 C 12.308666666666667 94.80389073912802, 12.308 94.73189073912802, 12.308 94.65722407246136 C 12.308 94.58255740579469, 12.308 94.49789073912802, 12.308 94.40322407246136 C 12.308 94.30855740579469, 12.309333333333335 94.19722407246135, 12.312 94.06922407246135 C 12.32 93.77589073912802, 12.37 93.51389073912802, 12.462 93.28322407246135 C 12.554 93.05255740579469, 12.687999999999999 92.84655740579468, 12.863999999999999 92.66522407246136 C 13.04 92.48389073912801, 13.257333333333333 92.32255740579468, 13.515999999999998 92.18122407246135 L 14.047999999999998 91.89322407246135 C 14.234666666666666 91.79189073912802, 14.354 91.66989073912802, 14.405999999999999 91.52722407246135 C 14.457999999999998 91.38455740579468, 14.488 91.25055740579468, 14.495999999999999 91.12522407246135 C 14.506666666666664 90.97855740579469, 14.512666666666664 90.82189073912802, 14.514 90.65522407246135 C 14.51533333333333 90.48855740579468, 14.511999999999997 90.33189073912801, 14.504 90.18522407246135 C 14.498666666666665 90.08122407246135, 14.468666666666666 89.99522407246135, 14.413999999999998 89.92722407246136 C 14.359333333333332 89.85922407246136, 14.279999999999998 89.81055740579468, 14.175999999999998 89.78122407246136 L 14.175999999999998 88.89322407246135 C 14.663999999999998 88.92522407246135, 15.014 89.05655740579468, 15.225999999999999 89.28722407246136 C 15.437999999999999 89.51789073912803, 15.554666666666666 89.8785574057947, 15.575999999999999 90.36922407246135 C 15.578666666666663 90.43322407246136, 15.580666666666666 90.49855740579468, 15.581999999999999 90.56522407246135 C 15.583333333333332 90.63189073912802, 15.584 90.69655740579469, 15.584 90.75922407246135 C 15.584 90.82189073912802, 15.583333333333332 90.88389073912802, 15.581999999999999 90.94522407246136 C 15.580666666666666 91.0065574057947, 15.578666666666663 91.06655740579468, 15.575999999999999 91.12522407246135 C 15.565333333333331 91.41055740579468, 15.512 91.65722407246135, 15.415999999999999 91.86522407246136 C 15.32 92.07322407246136, 15.19 92.25322407246136, 15.026 92.40522407246135 C 14.862 92.55722407246137, 14.672 92.69322407246136, 14.456 92.81322407246135 L 13.851999999999999 93.14122407246136 C 13.737333333333332 93.20255740579469, 13.647333333333332 93.28655740579468, 13.581999999999999 93.39322407246135 C 13.516666666666666 93.49989073912802, 13.469999999999999 93.61322407246135, 13.441999999999998 93.73322407246135 C 13.413999999999998 93.85322407246136, 13.399999999999999 93.96522407246135, 13.399999999999999 94.06922407246135 L 13.399999999999999 95.36122407246135 Z M 12.328 91.32122407246135 C 12.322666666666667 91.20389073912801, 12.318666666666665 91.08922407246135, 12.315999999999999 90.97722407246135 C 12.313333333333333 90.86522407246136, 12.311333333333334 90.75922407246135, 12.309999999999999 90.65922407246136 C 12.308666666666667 90.55922407246135, 12.309333333333335 90.46255740579468, 12.312 90.36922407246135 C 12.330666666666666 89.88122407246135, 12.447333333333333 89.52189073912801, 12.661999999999999 89.29122407246135 C 12.876666666666665 89.06055740579468, 13.213333333333331 88.92789073912802, 13.671999999999999 88.89322407246135 L 13.671999999999999 89.78522407246136 C 13.576 89.81455740579469, 13.505333333333333 89.86122407246135, 13.459999999999999 89.92522407246136 C 13.414666666666665 89.98922407246135, 13.390666666666664 90.06655740579468, 13.387999999999998 90.15722407246136 C 13.382666666666665 90.36522407246136, 13.379333333333333 90.55855740579469, 13.378 90.73722407246136 C 13.376666666666667 90.91589073912803, 13.381333333333334 91.11055740579468, 13.392 91.32122407246135 Z M 13.904 95.36122407246135 L 13.904 94.42922407246135 L 15.5 94.42922407246135 L 15.5 95.36122407246135 Z M 16.196 93.94922407246135 C 16.188000000000002 93.51989073912802, 16.182666666666666 93.10322407246136, 16.18 92.69922407246135 C 16.177333333333333 92.29522407246135, 16.177999999999997 91.89989073912803, 16.182 91.51322407246136 C 16.186 91.12655740579468, 16.190666666666665 90.74522407246135, 16.196 90.36922407246135 C 16.209333333333333 89.92922407246135, 16.334000000000003 89.58389073912801, 16.57 89.33322407246135 C 16.805999999999997 89.08255740579469, 17.142666666666663 88.93722407246136, 17.58 88.89722407246136 L 17.58 89.78522407246136 C 17.382666666666665 89.84122407246136, 17.281333333333333 89.9705574057947, 17.276 90.17322407246135 C 17.262666666666668 90.54389073912802, 17.253333333333334 90.89189073912802, 17.248 91.21722407246135 C 17.242666666666665 91.54255740579468, 17.24 91.85922407246134, 17.24 92.16722407246135 C 17.24 92.47522407246136, 17.242666666666665 92.78989073912803, 17.248 93.11122407246135 C 17.253333333333334 93.43255740579468, 17.262666666666668 93.77589073912802, 17.276 94.14122407246136 C 17.281333333333333 94.34922407246135, 17.382666666666665 94.48122407246134, 17.58 94.53722407246136 L 17.58 95.42522407246135 C 17.142666666666663 95.38522407246136, 16.805999999999997 95.23922407246135, 16.57 94.98722407246136 C 16.334000000000003 94.73522407246136, 16.209333333333333 94.38922407246136, 16.196 93.94922407246135 Z M 18.084 95.42522407246135 L 18.084 94.53322407246135 C 18.268 94.47989073912802, 18.366666666666667 94.35589073912801, 18.38 94.16122407246135 C 18.398666666666667 93.69455740579468, 18.410666666666668 93.24589073912801, 18.416 92.81522407246135 C 18.421333333333333 92.3845574057947, 18.421333333333333 91.95389073912803, 18.416 91.52322407246136 C 18.410666666666668 91.0925574057947, 18.398666666666667 90.63989073912802, 18.38 90.16522407246136 C 18.374666666666666 89.9705574057947, 18.276 89.84389073912803, 18.084 89.78522407246136 L 18.084 88.89722407246136 C 18.513333333333335 88.93722407246136, 18.846666666666668 89.08255740579469, 19.084 89.33322407246135 C 19.321333333333335 89.58389073912801, 19.445333333333334 89.92922407246135, 19.456 90.36922407246135 C 19.46666666666667 90.68389073912802, 19.474666666666668 90.99389073912802, 19.48 91.29922407246136 C 19.485333333333333 91.6045574057947, 19.488 91.90522407246135, 19.488 92.20122407246136 C 19.488 92.49722407246136, 19.485333333333333 92.79055740579469, 19.48 93.08122407246135 C 19.474666666666668 93.37189073912802, 19.46666666666667 93.66122407246135, 19.456 93.94922407246135 C 19.439999999999998 94.39989073912801, 19.311999999999998 94.74855740579468, 19.072 94.99522407246135 C 18.832 95.24189073912802, 18.502666666666666 95.38522407246136, 18.084 95.42522407246135 Z M 21.944 95.36122407246135 L 21.944 88.96122407246135 L 23.003999999999998 88.96122407246135 L 23.003999999999998 95.36122407246135 Z " stroke="none" fill-rule="nonzero" fill="#000000" fill-opacity="1" transform="matrix(1,0,0,1,5.05,13.314)" id="text20 l" />
  <path d="M 0 86.69510166521522 L 10 86.69510166521522 L 10 88.19510166521522 L 0 88.19510166521522 Z " stroke="none" fill-rule="evenodd" fill="#000000" fill-opacity="1" transform="matrix(1,0,0,1,5.05,13.314)" id="mark21 l" />
  <path d="M 0 76.97897925796909 L 10 76.97897925796909 L 10 78.47897925796909 L 0 78.47897925796909 Z " stroke="none" fill-rule="evenodd" fill="#000000" fill-opacity="1" transform="matrix(1,0,0,1,5.05,13.314)" id="mark22 l" />
  <path d="M 0 67.26285685072295 L 10 67.26285685072295 L 10 68.76285685072295 L 0 68.76285685072295 Z " stroke="none" fill-rule="evenodd" fill="#000000" fill-opacity="1" transform="matrix(1,0,0,1,5.05,13.314)" id="mark23 l" />
  <path d="M 0 57.54673444347682 L 10 57.54673444347682 L 10 59.04673444347682 L 0 59.04673444347682 Z " stroke="none" fill-rule="evenodd" fill="#000000" fill-opacity="1" transform="matrix(1,0,0,1,5.05,13.314)" id="mark24 l" />
  <path d="M 0 47.83061203623069 L 25 47.83061203623069 L 25 49.33061203623069 L 0 49.33061203623069 Z " stroke="none" fill-rule="evenodd" fill="#000000" fill-opacity="1" transform="matrix(1,0,0,1,5.05,13.314)" id="mark25 l" />
  <path d="M 12.328 46.78061203623069 C 12.325333333333333 46.681945369564026, 12.323333333333332 46.59327870289736, 12.322 46.514612036230695 C 12.320666666666666 46.435945369564024, 12.319333333333333 46.361945369564026, 12.318 46.29261203623069 C 12.316666666666666 46.22327870289736, 12.315999999999999 46.15127870289736, 12.316 46.07661203623069 C 12.315999999999999 46.00194536956403, 12.315999999999999 45.917278702897356, 12.316 45.822612036230694 C 12.315999999999999 45.727945369564026, 12.317333333333334 45.61661203623069, 12.32 45.48861203623069 C 12.328 45.19527870289736, 12.378 44.93327870289736, 12.47 44.70261203623069 C 12.562000000000001 44.471945369564025, 12.696 44.26594536956403, 12.872 44.084612036230695 C 13.048 43.90327870289736, 13.265333333333334 43.74194536956402, 13.524000000000001 43.60061203623069 L 14.056000000000001 43.31261203623069 C 14.242666666666668 43.21127870289736, 14.362000000000002 43.08927870289736, 14.414 42.94661203623069 C 14.466000000000001 42.803945369564026, 14.495999999999999 42.669945369564026, 14.504 42.544612036230696 C 14.514666666666667 42.39794536956403, 14.520666666666667 42.241278702897354, 14.522 42.07461203623069 C 14.523333333333333 41.907945369564025, 14.520000000000001 41.75127870289736, 14.512 41.60461203623069 C 14.506666666666666 41.50061203623069, 14.476666666666667 41.41461203623069, 14.422 41.346612036230695 C 14.367333333333335 41.27861203623069, 14.288 41.22994536956403, 14.184000000000001 41.200612036230694 L 14.184000000000001 40.31261203623069 C 14.672 40.34461203623069, 15.022000000000002 40.47594536956403, 15.234 40.706612036230695 C 15.446000000000002 40.93727870289736, 15.562666666666667 41.297945369564026, 15.584 41.788612036230695 C 15.586666666666668 41.852612036230695, 15.588666666666668 41.91794536956402, 15.59 41.98461203623069 C 15.591333333333335 42.05127870289736, 15.592000000000002 42.115945369564024, 15.592 42.17861203623069 C 15.592000000000002 42.241278702897354, 15.591333333333335 42.30327870289736, 15.59 42.364612036230696 C 15.588666666666668 42.42594536956403, 15.586666666666668 42.48594536956403, 15.584 42.544612036230696 C 15.573333333333332 42.82994536956403, 15.52 43.07661203623069, 15.424 43.28461203623069 C 15.328 43.492612036230696, 15.197999999999999 43.67261203623069, 15.033999999999999 43.82461203623069 C 14.87 43.97661203623069, 14.68 44.11261203623069, 14.464 44.23261203623069 L 13.86 44.560612036230694 C 13.745333333333335 44.62194536956403, 13.655333333333335 44.70594536956403, 13.59 44.81261203623069 C 13.524666666666668 44.91927870289736, 13.478000000000002 45.03261203623069, 13.45 45.15261203623069 C 13.422 45.2726120362307, 13.408 45.38461203623069, 13.408 45.48861203623069 L 13.408 46.78061203623069 Z M 12.336 42.740612036230694 C 12.330666666666666 42.62327870289736, 12.326666666666664 42.50861203623069, 12.324 42.39661203623069 C 12.321333333333332 42.2846120362307, 12.319333333333333 42.178612036230696, 12.318 42.078612036230695 C 12.316666666666666 41.97861203623069, 12.317333333333334 41.88194536956402, 12.32 41.788612036230695 C 12.338666666666668 41.30061203623069, 12.455333333333336 40.94127870289736, 12.67 40.71061203623069 C 12.884666666666668 40.47994536956403, 13.221333333333334 40.34727870289736, 13.68 40.31261203623069 L 13.68 41.20461203623069 C 13.584 41.233945369564026, 13.513333333333332 41.28061203623069, 13.468 41.34461203623069 C 13.422666666666668 41.40861203623069, 13.398666666666667 41.48594536956402, 13.396 41.57661203623069 C 13.390666666666666 41.78461203623069, 13.387333333333332 41.977945369564026, 13.386 42.15661203623069 C 13.384666666666666 42.335278702897355, 13.389333333333333 42.529945369564025, 13.4 42.740612036230694 Z M 13.911999999999999 46.78061203623069 L 13.911999999999999 45.84861203623069 L 15.508 45.84861203623069 L 15.508 46.78061203623069 Z M 16.18 45.364612036230696 C 16.174666666666667 45.191278702897364, 16.173333333333332 45.051945369564024, 16.176 44.94661203623069 C 16.178666666666665 44.84127870289736, 16.181333333333335 44.73927870289736, 16.183999999999997 44.64061203623069 L 17.264 44.64061203623069 C 17.256 44.71794536956403, 17.25 44.813945369564024, 17.246 44.928612036230696 C 17.241999999999997 45.04327870289736, 17.240666666666666 45.15394536956403, 17.241999999999997 45.26061203623069 C 17.243333333333332 45.36727870289736, 17.246666666666666 45.447278702897364, 17.252 45.50061203623069 C 17.262666666666668 45.620612036230696, 17.297333333333334 45.718612036230695, 17.355999999999998 45.794612036230696 C 17.414666666666665 45.870612036230696, 17.497333333333334 45.9246120362307, 17.604 45.956612036230695 L 17.604 46.84861203623069 C 17.110666666666663 46.81127870289736, 16.75333333333333 46.67661203623069, 16.532 46.444612036230694 C 16.310666666666666 46.212612036230695, 16.19333333333333 45.852612036230695, 16.18 45.364612036230696 Z M 16.279999999999998 44.02861203623069 L 16.279999999999998 40.380612036230694 L 17.348 40.380612036230694 L 17.348 44.02861203623069 Z M 17.852 43.60461203623069 L 17.852 42.84861203623069 C 17.929333333333332 42.8086120362307, 18.014666666666667 42.776612036230695, 18.107999999999997 42.752612036230694 C 18.20133333333333 42.72861203623069, 18.301333333333332 42.71661203623069, 18.407999999999998 42.71661203623069 C 18.773333333333333 42.71661203623069, 19.047333333333334 42.831945369564025, 19.23 43.06261203623069 C 19.412666666666667 43.29327870289736, 19.514666666666663 43.60727870289736, 19.535999999999998 44.0046120362307 C 19.546666666666667 44.16461203623069, 19.55333333333333 44.32327870289736, 19.555999999999997 44.480612036230696 C 19.558666666666664 44.63794536956403, 19.557333333333332 44.79127870289736, 19.552 44.94061203623069 C 19.546666666666667 45.08994536956402, 19.538666666666668 45.22994536956402, 19.528 45.36061203623069 C 19.482666666666667 45.859278702897356, 19.353333333333335 46.224612036230695, 19.14 46.456612036230695 C 18.926666666666666 46.688612036230694, 18.581333333333333 46.81927870289736, 18.104 46.84861203623069 L 18.104 45.956612036230695 C 18.21333333333333 45.927278702897354, 18.296 45.87461203623069, 18.352 45.79861203623069 C 18.408 45.722612036230686, 18.44 45.62327870289735, 18.448 45.50061203623069 C 18.471999999999998 45.209945369564025, 18.485999999999997 44.94861203623069, 18.49 44.71661203623069 C 18.494 44.48461203623069, 18.485333333333333 44.26327870289736, 18.464 44.05261203623069 C 18.447999999999997 43.89794536956403, 18.396666666666665 43.78261203623069, 18.31 43.706612036230695 C 18.223333333333333 43.63061203623069, 18.090666666666664 43.59261203623069, 17.912 43.59261203623069 C 17.901333333333334 43.59261203623069, 17.890666666666668 43.593945369564025, 17.88 43.596612036230695 C 17.86933333333333 43.59927870289736, 17.86 43.60194536956403, 17.852 43.60461203623069 Z M 17.852 41.31261203623069 L 17.852 40.380612036230694 L 19.439999999999998 40.380612036230694 L 19.439999999999998 41.31261203623069 Z M 21.944 46.78061203623069 L 21.944 40.380612036230694 L 23.003999999999998 40.380612036230694 L 23.003999999999998 46.78061203623069 Z " stroke="none" fill-rule="nonzero" fill="#000000" fill-opacity="1" transform="matrix(1,0,0,1,5.05,13.314)" id="text25 l" />
  <path d="M 0 38.11448962898456 L 10 38.11448962898456 L 10 39.61448962898456 L 0 39.61448962898456 Z " stroke="none" fill-rule="evenodd" fill="#000000" fill-opacity="1" transform="matrix(1,0,0,1,5.05,13.314)" id="mark26 l" />
  <path d="M 0 28.398367221738397 L 10 28.398367221738397 L 10 29.898367221738397 L 0 29.898367221738397 Z " stroke="none" fill-rule="evenodd" fill="#000000" fill-opacity="1" transform="matrix(1,0,0,1,5.05,13.314)" id="mark27 l" />
  <path d="M 0 18.682244814492265 L 10 18.682244814492265 L 10 20.182244814492265 L 0 20.182244814492265 Z " stroke="none" fill-rule="evenodd" fill="#000000" fill-opacity="1" transform="matrix(1,0,0,1,5.05,13.314)" id="mark28 l" />
  <path d="M 0 8.966122407246132 L 10 8.966122407246132 L 10 10.466122407246132 L 0 10.466122407246132 Z " stroke="none" fill-rule="evenodd" fill="#000000" fill-opacity="1" transform="matrix(1,0,0,1,5.05,13.314)" id="mark29 l" />
  <path d="M 0 -0.75 L 25 -0.75 L 25 0.75 L 0 0.75 Z " stroke="none" fill-rule="evenodd" fill="#000000" fill-opacity="1" transform="matrix(1,0,0,1,5.05,13.314)" id="mark30 l" />
  <path d="M 12.223999999999998 -3.2159999999999997 C 12.221333333333334 -3.317333333333333, 12.219333333333333 -3.4013333333333335, 12.218 -3.468 C 12.216666666666667 -3.5346666666666664, 12.216666666666667 -3.602666666666666, 12.218 -3.6719999999999997 C 12.219333333333333 -3.7413333333333334, 12.221333333333334 -3.8306666666666667, 12.223999999999998 -3.94 L 13.303999999999998 -3.94 L 13.303999999999998 -3.0759999999999996 C 13.303999999999998 -2.8386666666666667, 13.417333333333332 -2.6879999999999997, 13.643999999999998 -2.6239999999999997 L 13.643999999999998 -1.7319999999999998 C 13.155999999999999 -1.7693333333333332, 12.800666666666665 -1.904, 12.578 -2.1359999999999997 C 12.355333333333334 -2.368, 12.237333333333332 -2.7279999999999998, 12.223999999999998 -3.2159999999999997 Z M 12.292 -7.268 L 12.292 -8.2 L 15.536 -8.2 L 15.536 -7.268 Z M 14.143999999999998 -2.6199999999999997 C 14.367999999999999 -2.6759999999999997, 14.483999999999998 -2.826666666666666, 14.491999999999999 -3.072 C 14.497333333333334 -3.2746666666666666, 14.500666666666666 -3.4573333333333336, 14.501999999999999 -3.62 C 14.503333333333332 -3.7826666666666666, 14.498666666666665 -3.94, 14.488 -4.092 C 14.48 -4.2493333333333325, 14.431999999999999 -4.382666666666666, 14.344 -4.492 C 14.256 -4.601333333333333, 14.089333333333332 -4.653333333333332, 13.844 -4.648 L 13.096 -4.64 L 13.068 -5.532 L 14.027999999999999 -6.9159999999999995 L 15.216 -6.9159999999999995 L 14.248 -5.564 L 14.28 -5.564 C 14.712 -5.564, 15.028666666666666 -5.441333333333334, 15.229999999999999 -5.196 C 15.431333333333333 -4.950666666666666, 15.544 -4.573333333333332, 15.568 -4.064 C 15.57333333333333 -3.992, 15.576666666666664 -3.92, 15.578 -3.848 C 15.57933333333333 -3.776, 15.579999999999998 -3.705333333333333, 15.579999999999998 -3.6359999999999997 C 15.579999999999998 -3.5666666666666664, 15.57933333333333 -3.4973333333333336, 15.578 -3.428 C 15.576666666666664 -3.3586666666666662, 15.57333333333333 -3.2879999999999994, 15.568 -3.2159999999999997 C 15.549333333333333 -2.7199999999999998, 15.428666666666665 -2.3553333333333333, 15.206 -2.122 C 14.983333333333334 -1.8886666666666665, 14.630666666666666 -1.7586666666666664, 14.148 -1.7319999999999998 Z M 16.196 -3.2119999999999997 C 16.188000000000002 -3.641333333333333, 16.182666666666666 -4.058, 16.18 -4.462 C 16.177333333333333 -4.866, 16.177999999999997 -5.261333333333333, 16.182 -5.648 C 16.186 -6.034666666666666, 16.190666666666665 -6.416, 16.196 -6.792 C 16.209333333333333 -7.231999999999999, 16.334000000000003 -7.577333333333334, 16.57 -7.828 C 16.805999999999997 -8.078666666666667, 17.142666666666663 -8.224, 17.58 -8.264 L 17.58 -7.3759999999999994 C 17.382666666666665 -7.32, 17.281333333333333 -7.190666666666667, 17.276 -6.9879999999999995 C 17.262666666666668 -6.617333333333333, 17.253333333333334 -6.269333333333333, 17.248 -5.944 C 17.242666666666665 -5.618666666666666, 17.24 -5.302, 17.24 -4.994 C 17.24 -4.686, 17.242666666666665 -4.371333333333333, 17.248 -4.05 C 17.253333333333334 -3.7286666666666664, 17.262666666666668 -3.3853333333333326, 17.276 -3.0199999999999996 C 17.281333333333333 -2.812, 17.382666666666665 -2.6799999999999997, 17.58 -2.6239999999999997 L 17.58 -1.7359999999999998 C 17.142666666666663 -1.7759999999999998, 16.805999999999997 -1.9219999999999997, 16.57 -2.174 C 16.334000000000003 -2.4259999999999997, 16.209333333333333 -2.772, 16.196 -3.2119999999999997 Z M 18.084 -1.7359999999999998 L 18.084 -2.6279999999999997 C 18.268 -2.681333333333333, 18.366666666666667 -2.8053333333333335, 18.38 -3 C 18.398666666666667 -3.4666666666666663, 18.410666666666668 -3.915333333333333, 18.416 -4.346 C 18.421333333333333 -4.776666666666666, 18.421333333333333 -5.207333333333333, 18.416 -5.638 C 18.410666666666668 -6.068666666666666, 18.398666666666667 -6.521333333333333, 18.38 -6.9959999999999996 C 18.374666666666666 -7.190666666666667, 18.276 -7.317333333333334, 18.084 -7.3759999999999994 L 18.084 -8.264 C 18.513333333333335 -8.224, 18.846666666666668 -8.078666666666667, 19.084 -7.828 C 19.321333333333335 -7.577333333333334, 19.445333333333334 -7.231999999999999, 19.456 -6.792 C 19.46666666666667 -6.477333333333332, 19.474666666666668 -6.167333333333333, 19.48 -5.861999999999999 C 19.485333333333333 -5.556666666666667, 19.488 -5.256, 19.488 -4.96 C 19.488 -4.664, 19.485333333333333 -4.370666666666667, 19.48 -4.08 C 19.474666666666668 -3.7893333333333334, 19.46666666666667 -3.5, 19.456 -3.2119999999999997 C 19.439999999999998 -2.761333333333333, 19.311999999999998 -2.4126666666666665, 19.072 -2.166 C 18.832 -1.9193333333333331, 18.502666666666666 -1.7759999999999998, 18.084 -1.7359999999999998 Z M 21.944 -1.7999999999999998 L 21.944 -8.2 L 23.003999999999998 -8.2 L 23.003999999999998 -1.7999999999999998 Z " stroke="none" fill-rule="nonzero" fill="#000000" fill-opacity="1" transform="matrix(1,0,0,1,5.05,13.314)" id="text30 l" />
  <path d="M -5 -13.264 L 30 -13.264 L 30 288.5355498101379 L -5 288.5355498101379 Z " stroke="#FF0000" stroke-opacity="1" stroke-width="0.1" stroke-linecap="butt" stroke-linejoin="miter" fill="none" transform="matrix(1,0,0,1,5.05,13.314)" />
</svg>