<?xml version="1.0" encoding="UTF-8"?>
<svg xmlns:xlink="http://www.w3.org/1999/xlink" viewBox="0 0 35.1 383.80631817681603" version="1.1" style="font-synthesis: none;" width="35.1mm" height="383.8063181768161mm" xmlns="http://www.w3.org/2000/svg">
  <defs />
  <style>	</style>
  <path d="M 0 0 L 35.1 0 L 35.1 383.80631817681603 L 0 383.80631817681603 Z " stroke="none" fill-rule="nonzero" fill="#FFFFFF" fill-opacity="1" transform="matrix(1,0,0,1,0,0)" />
  <path d="M 0 362.95631817681607 L 10 362.95631817681607 L 10 364.45631817681607 L 0 364.45631817681607 Z " stroke="none" fill-rule="evenodd" fill="#000000" fill-opacity="1" transform="matrix(1,0,0,1,5.05,13.314)" id="mark1 l" />
  <path d="M 0 352.2590735245568 L 10 352.2590735245568 L 10 353.7590735245568 L 0 353.7590735245568 Z " stroke="none" fill-rule="evenodd" fill="#000000" fill-opacity="1" transform="matrix(1,0,0,1,5.05,13.314)" id="mark2 l" />
  <path d="M 0 341.5618288722975 L 10 341.5618288722975 L 10 343.0618288722975 L 0 343.0618288722975 Z " stroke="none" fill-rule="evenodd" fill="#000000" fill-opacity="1" transform="matrix(1,0,0,1,5.05,13.314)" id="mark3 l" />
  <path d="M 0 330.8645842200382 L 10 330.8645842200382 L 10 332.3645842200382 L 0 332.3645842200382 Z " stroke="none" fill-rule="evenodd" fill="#000000" fill-opacity="1" transform="matrix(1,0,0,1,5.05,13.314)" id="mark4 l" />
  <path d="M 0 320.1673395677789 L 25 320.1673395677789 L 25 321.6673395677789 L 0 321.6673395677789 Z " stroke="none" fill-rule="evenodd" fill="#000000" fill-opacity="1" transform="matrix(1,0,0,1,5.05,13.314)" id="mark5 l" />
  <path d="M 16.18 317.66933956777893 C 16.174666666666667 317.4960062344456, 16.173333333333332 317.3566729011123, 16.176 317.2513395677789 C 16.178666666666665 317.14600623444557, 16.181333333333335 317.0440062344456, 16.183999999999997 316.94533956777894 L 17.264 316.94533956777894 C 17.256 317.0226729011123, 17.25 317.1186729011123, 17.246 317.23333956777896 C 17.241999999999997 317.3480062344456, 17.240666666666666 317.45867290111227, 17.241999999999997 317.56533956777895 C 17.243333333333332 317.6720062344456, 17.246666666666666 317.7520062344456, 17.252 317.80533956777896 C 17.262666666666668 317.9253395677789, 17.297333333333334 318.0233395677789, 17.355999999999998 318.09933956777894 C 17.414666666666665 318.1753395677789, 17.497333333333334 318.2293395677789, 17.604 318.2613395677789 L 17.604 319.1533395677789 C 17.110666666666663 319.1160062344456, 16.75333333333333 318.98133956777895, 16.532 318.7493395677789 C 16.310666666666666 318.5173395677789, 16.19333333333333 318.15733956777893, 16.18 317.66933956777893 Z M 16.279999999999998 316.3333395677789 L 16.279999999999998 312.68533956777895 L 17.348 312.68533956777895 L 17.348 316.3333395677789 Z M 17.852 315.90933956777894 L 17.852 315.1533395677789 C 17.929333333333332 315.1133395677789, 18.014666666666667 315.0813395677789, 18.107999999999997 315.0573395677789 C 18.20133333333333 315.0333395677789, 18.301333333333332 315.0213395677789, 18.407999999999998 315.0213395677789 C 18.773333333333333 315.0213395677789, 19.047333333333334 315.13667290111226, 19.23 315.3673395677789 C 19.412666666666667 315.59800623444556, 19.514666666666663 315.9120062344456, 19.535999999999998 316.3093395677789 C 19.546666666666667 316.4693395677789, 19.55333333333333 316.6280062344456, 19.555999999999997 316.7853395677789 C 19.558666666666664 316.94267290111225, 19.557333333333332 317.09600623444555, 19.552 317.24533956777896 C 19.546666666666667 317.39467290111224, 19.538666666666668 317.53467290111223, 19.528 317.6653395677789 C 19.482666666666667 318.16400623444554, 19.353333333333335 318.5293395677789, 19.14 318.7613395677789 C 18.926666666666666 318.99333956777895, 18.581333333333333 319.1240062344456, 18.104 319.1533395677789 L 18.104 318.2613395677789 C 18.21333333333333 318.23200623444563, 18.296 318.1793395677789, 18.352 318.1033395677789 C 18.408 318.02733956777894, 18.44 317.9280062344456, 18.448 317.80533956777896 C 18.471999999999998 317.51467290111225, 18.485999999999997 317.25333956777894, 18.49 317.0213395677789 C 18.494 316.78933956777894, 18.485333333333333 316.5680062344456, 18.464 316.3573395677789 C 18.447999999999997 316.2026729011123, 18.396666666666665 316.08733956777894, 18.31 316.0113395677789 C 18.223333333333333 315.9353395677789, 18.090666666666664 315.89733956777894, 17.912 315.89733956777894 C 17.901333333333334 315.89733956777894, 17.890666666666668 315.89867290111226, 17.88 315.9013395677789 C 17.86933333333333 315.9040062344456, 17.86 315.9066729011123, 17.852 315.90933956777894 Z M 17.852 313.6173395677789 L 17.852 312.68533956777895 L 19.439999999999998 312.68533956777895 L 19.439999999999998 313.6173395677789 Z M 21.944 319.08533956777893 L 21.944 312.68533956777895 L 23.003999999999998 312.68533956777895 L 23.003999999999998 319.08533956777893 Z " stroke="none" fill-rule="nonzero" fill="#000000" fill-opacity="1" transform="matrix(1,0,0,1,5.05,13.314)" id="text5 l" />
  <path d="M 0 309.4700949155196 L 10 309.4700949155196 L 10 310.9700949155196 L 0 310.9700949155196 Z " stroke="none" fill-rule="evenodd" fill="#000000" fill-opacity="1" transform="matrix(1,0,0,1,5.05,13.314)" id="mark6 l" />
  <path d="M 0 298.7728502632603 L 10 298.7728502632603 L 10 300.2728502632603 L 0 300.2728502632603 Z " stroke="none" fill-rule="evenodd" fill="#000000" fill-opacity="1" transform="matrix(1,0,0,1,5.05,13.314)" id="mark7 l" />
  <path d="M 0 288.07560561100104 L 10 288.07560561100104 L 10 289.57560561100104 L 0 289.57560561100104 Z " stroke="none" fill-rule="evenodd" fill="#000000" fill-opacity="1" transform="matrix(1,0,0,1,5.05,13.314)" id="mark8 l" />
  <path d="M 0 277.3783609587417 L 10 277.3783609587417 L 10 278.8783609587417 L 0 278.8783609587417 Z " stroke="none" fill-rule="evenodd" fill="#000000" fill-opacity="1" transform="matrix(1,0,0,1,5.05,13.314)" id="mark9 l" />
  <path d="M 0 266.6811163064824 L 25 266.6811163064824 L 25 268.1811163064824 L 0 268.1811163064824 Z " stroke="none" fill-rule="evenodd" fill="#000000" fill-opacity="1" transform="matrix(1,0,0,1,5.05,13.314)" id="mark10 l" />
  <path d="M 14.323999999999998 265.6311163064824 L 14.323999999999998 260.1871163064824 L 13.871999999999998 260.1871163064824 L 13.839999999999998 259.8071163064824 L 14.543999999999999 259.2311163064824 L 15.424 259.2311163064824 L 15.424 265.6311163064824 Z M 16.196 264.2191163064824 C 16.188000000000002 263.78978297314904, 16.182666666666666 263.3731163064824, 16.18 262.9691163064824 C 16.177333333333333 262.5651163064824, 16.177999999999997 262.16978297314904, 16.182 261.7831163064824 C 16.186 261.3964496398157, 16.190666666666665 261.0151163064824, 16.196 260.6391163064824 C 16.209333333333333 260.1991163064824, 16.334000000000003 259.85378297314907, 16.57 259.6031163064824 C 16.805999999999997 259.35244963981575, 17.142666666666663 259.2071163064824, 17.58 259.1671163064824 L 17.58 260.0551163064824 C 17.382666666666665 260.11111630648236, 17.281333333333333 260.2404496398157, 17.276 260.4431163064824 C 17.262666666666668 260.81378297314905, 17.253333333333334 261.16178297314906, 17.248 261.4871163064824 C 17.242666666666665 261.8124496398157, 17.24 262.1291163064824, 17.24 262.4371163064824 C 17.24 262.7451163064824, 17.242666666666665 263.059782973149, 17.248 263.3811163064824 C 17.253333333333334 263.70244963981577, 17.262666666666668 264.0457829731491, 17.276 264.41111630648237 C 17.281333333333333 264.6191163064824, 17.382666666666665 264.7511163064824, 17.58 264.8071163064824 L 17.58 265.6951163064824 C 17.142666666666663 265.6551163064824, 16.805999999999997 265.5091163064824, 16.57 265.2571163064824 C 16.334000000000003 265.00511630648236, 16.209333333333333 264.65911630648236, 16.196 264.2191163064824 Z M 18.084 265.6951163064824 L 18.084 264.8031163064824 C 18.268 264.7497829731491, 18.366666666666667 264.62578297314906, 18.38 264.4311163064824 C 18.398666666666667 263.96444963981577, 18.410666666666668 263.5157829731491, 18.416 263.0851163064824 C 18.421333333333333 262.6544496398157, 18.421333333333333 262.223782973149, 18.416 261.7931163064824 C 18.410666666666668 261.36244963981574, 18.398666666666667 260.90978297314905, 18.38 260.43511630648237 C 18.374666666666666 260.2404496398157, 18.276 260.11378297314906, 18.084 260.0551163064824 L 18.084 259.1671163064824 C 18.513333333333335 259.2071163064824, 18.846666666666668 259.35244963981575, 19.084 259.6031163064824 C 19.321333333333335 259.85378297314907, 19.445333333333334 260.1991163064824, 19.456 260.6391163064824 C 19.46666666666667 260.9537829731491, 19.474666666666668 261.2637829731491, 19.48 261.5691163064824 C 19.485333333333333 261.87444963981574, 19.488 262.17511630648244, 19.488 262.4711163064824 C 19.488 262.7671163064824, 19.485333333333333 263.0604496398157, 19.48 263.3511163064824 C 19.474666666666668 263.6417829731491, 19.46666666666667 263.9311163064824, 19.456 264.2191163064824 C 19.439999999999998 264.66978297314904, 19.311999999999998 265.01844963981574, 19.072 265.2651163064824 C 18.832 265.5117829731491, 18.502666666666666 265.6551163064824, 18.084 265.6951163064824 Z M 21.944 265.6311163064824 L 21.944 259.2311163064824 L 23.003999999999998 259.2311163064824 L 23.003999999999998 265.6311163064824 Z " stroke="none" fill-rule="nonzero" fill="#000000" fill-opacity="1" transform="matrix(1,0,0,1,5.05,13.314)" id="text10 l" />
  <path d="M 0 255.9838716542231 L 10 255.9838716542231 L 10 257.4838716542231 L 0 257.4838716542231 Z " stroke="none" fill-rule="evenodd" fill="#000000" fill-opacity="1" transform="matrix(1,0,0,1,5.05,13.314)" id="mark11 l" />
  <path d="M 0 245.28662700196384 L 10 245.28662700196384 L 10 246.78662700196384 L 0 246.78662700196384 Z " stroke="none" fill-rule="evenodd" fill="#000000" fill-opacity="1" transform="matrix(1,0,0,1,5.05,13.314)" id="mark12 l" />
  <path d="M 0 234.58938234970452 L 10 234.58938234970452 L 10 236.08938234970452 L 0 236.08938234970452 Z " stroke="none" fill-rule="evenodd" fill="#000000" fill-opacity="1" transform="matrix(1,0,0,1,5.05,13.314)" id="mark13 l" />
  <path d="M 0 223.89213769744524 L 10 223.89213769744524 L 10 225.39213769744524 L 0 225.39213769744524 Z " stroke="none" fill-rule="evenodd" fill="#000000" fill-opacity="1" transform="matrix(1,0,0,1,5.05,13.314)" id="mark14 l" />
  <path d="M 0 213.19489304518595 L 25 213.19489304518595 L 25 214.69489304518595 L 0 214.69489304518595 Z " stroke="none" fill-rule="evenodd" fill="#000000" fill-opacity="1" transform="matrix(1,0,0,1,5.05,13.314)" id="mark15 l" />
  <path d="M 14.331999999999999 212.11289304518596 L 14.331999999999999 206.66889304518597 L 13.879999999999999 206.66889304518597 L 13.847999999999999 206.28889304518594 L 14.552 205.71289304518595 L 15.432 205.71289304518595 L 15.432 212.11289304518596 Z M 16.18 210.69689304518596 C 16.174666666666667 210.52355971185264, 16.173333333333332 210.38422637851932, 16.176 210.27889304518595 C 16.178666666666665 210.17355971185265, 16.181333333333335 210.07155971185264, 16.183999999999997 209.97289304518597 L 17.264 209.97289304518597 C 17.256 210.05022637851928, 17.25 210.14622637851926, 17.246 210.26089304518595 C 17.241999999999997 210.3755597118526, 17.240666666666666 210.4862263785193, 17.241999999999997 210.59289304518595 C 17.243333333333332 210.6995597118526, 17.246666666666666 210.7795597118526, 17.252 210.83289304518595 C 17.262666666666668 210.95289304518596, 17.297333333333334 211.05089304518594, 17.355999999999998 211.12689304518597 C 17.414666666666665 211.20289304518593, 17.497333333333334 211.25689304518596, 17.604 211.28889304518594 L 17.604 212.18089304518597 C 17.110666666666663 212.14355971185262, 16.75333333333333 212.00889304518597, 16.532 211.77689304518594 C 16.310666666666666 211.54489304518597, 16.19333333333333 211.18489304518596, 16.18 210.69689304518596 Z M 16.279999999999998 209.36089304518595 L 16.279999999999998 205.71289304518595 L 17.348 205.71289304518595 L 17.348 209.36089304518595 Z M 17.852 208.93689304518597 L 17.852 208.18089304518597 C 17.929333333333332 208.14089304518598, 18.014666666666667 208.10889304518597, 18.107999999999997 208.08489304518596 C 18.20133333333333 208.06089304518596, 18.301333333333332 208.04889304518596, 18.407999999999998 208.04889304518596 C 18.773333333333333 208.04889304518596, 19.047333333333334 208.1642263785193, 19.23 208.39489304518597 C 19.412666666666667 208.62555971185265, 19.514666666666663 208.9395597118526, 19.535999999999998 209.33689304518595 C 19.546666666666667 209.49689304518597, 19.55333333333333 209.65555971185262, 19.555999999999997 209.81289304518594 C 19.558666666666664 209.9702263785193, 19.557333333333332 210.12355971185264, 19.552 210.27289304518595 C 19.546666666666667 210.42222637851927, 19.538666666666668 210.56222637851926, 19.528 210.69289304518597 C 19.482666666666667 211.19155971185262, 19.353333333333335 211.55689304518597, 19.14 211.78889304518594 C 18.926666666666666 212.02089304518597, 18.581333333333333 212.15155971185266, 18.104 212.18089304518597 L 18.104 211.28889304518594 C 18.21333333333333 211.2595597118526, 18.296 211.20689304518595, 18.352 211.13089304518596 C 18.408 211.05489304518596, 18.44 210.95555971185263, 18.448 210.83289304518595 C 18.471999999999998 210.54222637851927, 18.485999999999997 210.28089304518596, 18.49 210.04889304518596 C 18.494 209.81689304518596, 18.485333333333333 209.59555971185262, 18.464 209.38489304518595 C 18.447999999999997 209.23022637851926, 18.396666666666665 209.11489304518597, 18.31 209.03889304518594 C 18.223333333333333 208.96289304518598, 18.090666666666664 208.92489304518597, 17.912 208.92489304518597 C 17.901333333333334 208.92489304518597, 17.890666666666668 208.9262263785193, 17.88 208.92889304518596 C 17.86933333333333 208.93155971185263, 17.86 208.93422637851927, 17.852 208.93689304518597 Z M 17.852 206.64489304518597 L 17.852 205.71289304518595 L 19.439999999999998 205.71289304518595 L 19.439999999999998 206.64489304518597 Z M 21.944 212.11289304518596 L 21.944 205.71289304518595 L 23.003999999999998 205.71289304518595 L 23.003999999999998 212.11289304518596 Z " stroke="none" fill-rule="nonzero" fill="#000000" fill-opacity="1" transform="matrix(1,0,0,1,5.05,13.314)" id="text15 l" />
  <path d="M 0 202.49764839292664 L 10 202.49764839292664 L 10 203.99764839292664 L 0 203.99764839292664 Z " stroke="none" fill-rule="evenodd" fill="#000000" fill-opacity="1" transform="matrix(1,0,0,1,5.05,13.314)" id="mark16 l" />
  <path d="M 0 191.80040374066735 L 10 191.80040374066735 L 10 193.30040374066735 L 0 193.30040374066735 Z " stroke="none" fill-rule="evenodd" fill="#000000" fill-opacity="1" transform="matrix(1,0,0,1,5.05,13.314)" id="mark17 l" />
  <path d="M 0 181.10315908840806 L 10 181.10315908840806 L 10 182.60315908840806 L 0 182.60315908840806 Z " stroke="none" fill-rule="evenodd" fill="#000000" fill-opacity="1" transform="matrix(1,0,0,1,5.05,13.314)" id="mark18 l" />
  <path d="M 0 170.40591443614875 L 10 170.40591443614875 L 10 171.90591443614875 L 0 171.90591443614875 Z " stroke="none" fill-rule="evenodd" fill="#000000" fill-opacity="1" transform="matrix(1,0,0,1,5.05,13.314)" id="mark19 l" />
  <path d="M 0 159.70866978388946 L 25 159.70866978388946 L 25 161.20866978388946 L 0 161.20866978388946 Z " stroke="none" fill-rule="evenodd" fill="#000000" fill-opacity="1" transform="matrix(1,0,0,1,5.05,13.314)" id="mark20 l" />
  <path d="M 12.319999999999999 158.65866978388948 C 12.317333333333334 158.56000311722283, 12.315333333333331 158.47133645055615, 12.313999999999998 158.3926697838895 C 12.312666666666665 158.31400311722282, 12.311333333333334 158.24000311722284, 12.309999999999999 158.17066978388948 C 12.308666666666667 158.10133645055612, 12.308 158.02933645055612, 12.308 157.95466978388947 C 12.308 157.88000311722283, 12.308 157.79533645055614, 12.308 157.70066978388948 C 12.308 157.60600311722283, 12.309333333333335 157.4946697838895, 12.312 157.36666978388948 C 12.32 157.07333645055616, 12.37 156.81133645055615, 12.462 156.58066978388948 C 12.554 156.3500031172228, 12.687999999999999 156.1440031172228, 12.863999999999999 155.96266978388948 C 13.04 155.78133645055615, 13.257333333333333 155.62000311722284, 13.515999999999998 155.47866978388947 L 14.047999999999998 155.1906697838895 C 14.234666666666666 155.08933645055615, 14.354 154.96733645055613, 14.405999999999999 154.82466978388948 C 14.457999999999998 154.68200311722282, 14.488 154.5480031172228, 14.495999999999999 154.4226697838895 C 14.506666666666664 154.2760031172228, 14.512666666666664 154.11933645055615, 14.514 153.9526697838895 C 14.51533333333333 153.78600311722283, 14.511999999999997 153.62933645055617, 14.504 153.4826697838895 C 14.498666666666665 153.37866978388948, 14.468666666666666 153.2926697838895, 14.413999999999998 153.22466978388948 C 14.359333333333332 153.15666978388947, 14.279999999999998 153.1080031172228, 14.175999999999998 153.07866978388947 L 14.175999999999998 152.1906697838895 C 14.663999999999998 152.2226697838895, 15.014 152.35400311722282, 15.225999999999999 152.58466978388947 C 15.437999999999999 152.81533645055615, 15.554666666666666 153.17600311722282, 15.575999999999999 153.6666697838895 C 15.578666666666663 153.73066978388948, 15.580666666666666 153.79600311722282, 15.581999999999999 153.8626697838895 C 15.583333333333332 153.92933645055615, 15.584 153.9940031172228, 15.584 154.05666978388948 C 15.584 154.11933645055615, 15.583333333333332 154.18133645055613, 15.581999999999999 154.24266978388948 C 15.580666666666666 154.3040031172228, 15.578666666666663 154.3640031172228, 15.575999999999999 154.4226697838895 C 15.565333333333331 154.70800311722283, 15.512 154.95466978388947, 15.415999999999999 155.16266978388947 C 15.32 155.37066978388947, 15.19 155.55066978388948, 15.026 155.7026697838895 C 14.862 155.85466978388948, 14.672 155.99066978388947, 14.456 156.11066978388948 L 13.851999999999999 156.43866978388948 C 13.737333333333332 156.50000311722283, 13.647333333333332 156.58400311722284, 13.581999999999999 156.6906697838895 C 13.516666666666666 156.79733645055614, 13.469999999999999 156.9106697838895, 13.441999999999998 157.0306697838895 C 13.413999999999998 157.1506697838895, 13.399999999999999 157.26266978388946, 13.399999999999999 157.36666978388948 L 13.399999999999999 158.65866978388948 Z M 12.328 154.6186697838895 C 12.322666666666667 154.50133645055615, 12.318666666666665 154.38666978388946, 12.315999999999999 154.27466978388946 C 12.313333333333333 154.16266978388947, 12.311333333333334 154.05666978388948, 12.309999999999999 153.95666978388948 C 12.308666666666667 153.8566697838895, 12.309333333333335 153.76000311722282, 12.312 153.6666697838895 C 12.330666666666666 153.1786697838895, 12.447333333333333 152.81933645055616, 12.661999999999999 152.5886697838895 C 12.876666666666665 152.3580031172228, 13.213333333333331 152.22533645055614, 13.671999999999999 152.1906697838895 L 13.671999999999999 153.0826697838895 C 13.576 153.1120031172228, 13.505333333333333 153.15866978388948, 13.459999999999999 153.22266978388947 C 13.414666666666665 153.28666978388947, 13.390666666666664 153.3640031172228, 13.387999999999998 153.45466978388947 C 13.382666666666665 153.6626697838895, 13.379333333333333 153.85600311722283, 13.378 154.03466978388948 C 13.376666666666667 154.21333645055614, 13.381333333333334 154.40800311722282, 13.392 154.6186697838895 Z M 13.904 158.65866978388948 L 13.904 157.7266697838895 L 15.5 157.7266697838895 L 15.5 158.65866978388948 Z M 16.196 157.24666978388947 C 16.188000000000002 156.81733645055613, 16.182666666666666 156.40066978388947, 16.18 155.99666978388947 C 16.177333333333333 155.59266978388948, 16.177999999999997 155.19733645055612, 16.182 154.81066978388947 C 16.186 154.4240031172228, 16.190666666666665 154.0426697838895, 16.196 153.6666697838895 C 16.209333333333333 153.2266697838895, 16.334000000000003 152.88133645055615, 16.57 152.6306697838895 C 16.805999999999997 152.38000311722283, 17.142666666666663 152.23466978388947, 17.58 152.19466978388948 L 17.58 153.0826697838895 C 17.382666666666665 153.1386697838895, 17.281333333333333 153.2680031172228, 17.276 153.4706697838895 C 17.262666666666668 153.84133645055613, 17.253333333333334 154.18933645055614, 17.248 154.51466978388947 C 17.242666666666665 154.8400031172228, 17.24 155.15666978388947, 17.24 155.4646697838895 C 17.24 155.77266978388948, 17.242666666666665 156.08733645055617, 17.248 156.40866978388948 C 17.253333333333334 156.7300031172228, 17.262666666666668 157.07333645055616, 17.276 157.43866978388948 C 17.281333333333333 157.64666978388948, 17.382666666666665 157.77866978388948, 17.58 157.83466978388947 L 17.58 158.72266978388947 C 17.142666666666663 158.68266978388948, 16.805999999999997 158.53666978388947, 16.57 158.28466978388948 C 16.334000000000003 158.03266978388947, 16.209333333333333 157.68666978388947, 16.196 157.24666978388947 Z M 18.084 158.72266978388947 L 18.084 157.83066978388948 C 18.268 157.77733645055616, 18.366666666666667 157.65333645055617, 18.38 157.4586697838895 C 18.398666666666667 156.99200311722282, 18.410666666666668 156.54333645055615, 18.416 156.1126697838895 C 18.421333333333333 155.68200311722282, 18.421333333333333 155.25133645055615, 18.416 154.82066978388949 C 18.410666666666668 154.39000311722282, 18.398666666666667 153.93733645055613, 18.38 153.46266978388948 C 18.374666666666666 153.2680031172228, 18.276 153.14133645055614, 18.084 153.0826697838895 L 18.084 152.19466978388948 C 18.513333333333335 152.23466978388947, 18.846666666666668 152.38000311722283, 19.084 152.6306697838895 C 19.321333333333335 152.88133645055615, 19.445333333333334 153.2266697838895, 19.456 153.6666697838895 C 19.46666666666667 153.98133645055614, 19.474666666666668 154.29133645055614, 19.48 154.59666978388947 C 19.485333333333333 154.9020031172228, 19.488 155.20266978388946, 19.488 155.49866978388948 C 19.488 155.79466978388947, 19.485333333333333 156.0880031172228, 19.48 156.37866978388948 C 19.474666666666668 156.66933645055616, 19.46666666666667 156.9586697838895, 19.456 157.24666978388947 C 19.439999999999998 157.69733645055615, 19.311999999999998 158.04600311722282, 19.072 158.29266978388947 C 18.832 158.53933645055614, 18.502666666666666 158.68266978388948, 18.084 158.72266978388947 Z M 21.944 158.65866978388948 L 21.944 152.25866978388947 L 23.003999999999998 152.25866978388947 L 23.003999999999998 158.65866978388948 Z " stroke="none" fill-rule="nonzero" fill="#000000" fill-opacity="1" transform="matrix(1,0,0,1,5.05,13.314)" id="text20 l" />
  <path d="M 0 149.01142513163018 L 10 149.01142513163018 L 10 150.51142513163018 L 0 150.51142513163018 Z " stroke="none" fill-rule="evenodd" fill="#000000" fill-opacity="1" transform="matrix(1,0,0,1,5.05,13.314)" id="mark21 l" />
  <path d="M 0 138.31418047937086 L 10 138.31418047937086 L 10 139.81418047937086 L 0 139.81418047937086 Z " stroke="none" fill-rule="evenodd" fill="#000000" fill-opacity="1" transform="matrix(1,0,0,1,5.05,13.314)" id="mark22 l" />
  <path d="M 0 127.61693582711158 L 10 127.61693582711158 L 10 129.11693582711158 L 0 129.11693582711158 Z " stroke="none" fill-rule="evenodd" fill="#000000" fill-opacity="1" transform="matrix(1,0,0,1,5.05,13.314)" id="mark23 l" />
  <path d="M 0 116.91969117485229 L 10 116.91969117485229 L 10 118.41969117485229 L 0 118.41969117485229 Z " stroke="none" fill-rule="evenodd" fill="#000000" fill-opacity="1" transform="matrix(1,0,0,1,5.05,13.314)" id="mark24 l" />
  <path d="M 0 106.22244652259297 L 25 106.22244652259297 L 25 107.72244652259297 L 0 107.72244652259297 Z " stroke="none" fill-rule="evenodd" fill="#000000" fill-opacity="1" transform="matrix(1,0,0,1,5.05,13.314)" id="mark25 l" />
  <path d="M 12.328 105.17244652259298 C 12.325333333333333 105.07377985592632, 12.323333333333332 104.98511318925965, 12.322 104.90644652259297 C 12.320666666666666 104.82777985592631, 12.319333333333333 104.75377985592631, 12.318 104.68444652259298 C 12.316666666666666 104.61511318925965, 12.315999999999999 104.54311318925966, 12.316 104.46844652259298 C 12.315999999999999 104.39377985592631, 12.315999999999999 104.30911318925965, 12.316 104.21444652259298 C 12.315999999999999 104.11977985592631, 12.317333333333334 104.00844652259298, 12.32 103.88044652259298 C 12.328 103.58711318925964, 12.378 103.32511318925964, 12.47 103.09444652259297 C 12.562000000000001 102.86377985592631, 12.696 102.65777985592632, 12.872 102.47644652259298 C 13.048 102.29511318925964, 13.265333333333334 102.1337798559263, 13.524000000000001 101.99244652259297 L 14.056000000000001 101.70444652259297 C 14.242666666666668 101.60311318925963, 14.362000000000002 101.48111318925964, 14.414 101.33844652259297 C 14.466000000000001 101.1957798559263, 14.495999999999999 101.06177985592632, 14.504 100.93644652259297 C 14.514666666666667 100.7897798559263, 14.520666666666667 100.63311318925963, 14.522 100.46644652259297 C 14.523333333333333 100.29977985592632, 14.520000000000001 100.14311318925965, 14.512 99.99644652259298 C 14.506666666666666 99.89244652259299, 14.476666666666667 99.80644652259298, 14.422 99.73844652259298 C 14.367333333333335 99.67044652259298, 14.288 99.6217798559263, 14.184000000000001 99.59244652259298 L 14.184000000000001 98.70444652259297 C 14.672 98.73644652259298, 15.022000000000002 98.8677798559263, 15.234 99.09844652259298 C 15.446000000000002 99.32911318925966, 15.562666666666667 99.68977985592632, 15.584 100.18044652259297 C 15.586666666666668 100.24444652259298, 15.588666666666668 100.30977985592631, 15.59 100.37644652259297 C 15.591333333333335 100.44311318925963, 15.592000000000002 100.50777985592632, 15.592 100.57044652259297 C 15.592000000000002 100.63311318925966, 15.591333333333335 100.69511318925964, 15.59 100.75644652259298 C 15.588666666666668 100.81777985592632, 15.586666666666668 100.87777985592632, 15.584 100.93644652259297 C 15.573333333333332 101.22177985592631, 15.52 101.46844652259298, 15.424 101.67644652259298 C 15.328 101.88444652259298, 15.197999999999999 102.06444652259299, 15.033999999999999 102.21644652259297 C 14.87 102.36844652259299, 14.68 102.50444652259299, 14.464 102.62444652259298 L 13.86 102.95244652259298 C 13.745333333333335 103.01377985592632, 13.655333333333335 103.09777985592632, 13.59 103.20444652259297 C 13.524666666666668 103.31111318925963, 13.478000000000002 103.42444652259297, 13.45 103.54444652259298 C 13.422 103.66444652259298, 13.408 103.77644652259298, 13.408 103.88044652259298 L 13.408 105.17244652259298 Z M 12.336 101.13244652259297 C 12.330666666666666 101.01511318925964, 12.326666666666664 100.90044652259297, 12.324 100.78844652259298 C 12.321333333333332 100.67644652259298, 12.319333333333333 100.57044652259299, 12.318 100.47044652259298 C 12.316666666666666 100.37044652259297, 12.317333333333334 100.2737798559263, 12.32 100.18044652259297 C 12.338666666666668 99.69244652259297, 12.455333333333336 99.33311318925965, 12.67 99.10244652259297 C 12.884666666666668 98.87177985592632, 13.221333333333334 98.73911318925965, 13.68 98.70444652259297 L 13.68 99.59644652259298 C 13.584 99.62577985592631, 13.513333333333332 99.67244652259298, 13.468 99.73644652259298 C 13.422666666666668 99.80044652259298, 13.398666666666667 99.87777985592632, 13.396 99.96844652259298 C 13.390666666666666 100.17644652259298, 13.387333333333332 100.36977985592631, 13.386 100.54844652259298 C 13.384666666666666 100.72711318925965, 13.389333333333333 100.9217798559263, 13.4 101.13244652259297 Z M 13.911999999999999 105.17244652259298 L 13.911999999999999 104.24044652259298 L 15.508 104.24044652259298 L 15.508 105.17244652259298 Z M 16.18 103.75644652259298 C 16.174666666666667 103.58311318925965, 16.173333333333332 103.44377985592631, 16.176 103.33844652259297 C 16.178666666666665 103.23311318925964, 16.181333333333335 103.13111318925965, 16.183999999999997 103.03244652259298 L 17.264 103.03244652259298 C 17.256 103.10977985592632, 17.25 103.20577985592631, 17.246 103.32044652259297 C 17.241999999999997 103.43511318925964, 17.240666666666666 103.5457798559263, 17.241999999999997 103.65244652259298 C 17.243333333333332 103.75911318925964, 17.246666666666666 103.83911318925965, 17.252 103.89244652259298 C 17.262666666666668 104.01244652259297, 17.297333333333334 104.11044652259298, 17.355999999999998 104.18644652259297 C 17.414666666666665 104.26244652259297, 17.497333333333334 104.31644652259297, 17.604 104.34844652259298 L 17.604 105.24044652259298 C 17.110666666666663 105.20311318925964, 16.75333333333333 105.06844652259298, 16.532 104.83644652259298 C 16.310666666666666 104.60444652259298, 16.19333333333333 104.24444652259297, 16.18 103.75644652259298 Z M 16.279999999999998 102.42044652259298 L 16.279999999999998 98.77244652259297 L 17.348 98.77244652259297 L 17.348 102.42044652259298 Z M 17.852 101.99644652259298 L 17.852 101.24044652259298 C 17.929333333333332 101.20044652259298, 18.014666666666667 101.16844652259297, 18.107999999999997 101.14444652259297 C 18.20133333333333 101.12044652259297, 18.301333333333332 101.10844652259297, 18.407999999999998 101.10844652259297 C 18.773333333333333 101.10844652259297, 19.047333333333334 101.22377985592631, 19.23 101.45444652259297 C 19.412666666666667 101.68511318925964, 19.514666666666663 101.99911318925965, 19.535999999999998 102.39644652259298 C 19.546666666666667 102.55644652259298, 19.55333333333333 102.71511318925964, 19.555999999999997 102.87244652259298 C 19.558666666666664 103.02977985592631, 19.557333333333332 103.18311318925964, 19.552 103.33244652259297 C 19.546666666666667 103.4817798559263, 19.538666666666668 103.62177985592632, 19.528 103.75244652259298 C 19.482666666666667 104.25111318925966, 19.353333333333335 104.61644652259298, 19.14 104.84844652259298 C 18.926666666666666 105.08044652259298, 18.581333333333333 105.21111318925965, 18.104 105.24044652259298 L 18.104 104.34844652259298 C 18.21333333333333 104.31911318925964, 18.296 104.26644652259299, 18.352 104.19044652259298 C 18.408 104.11444652259297, 18.44 104.01511318925964, 18.448 103.89244652259298 C 18.471999999999998 103.60177985592631, 18.485999999999997 103.34044652259298, 18.49 103.10844652259297 C 18.494 102.87644652259297, 18.485333333333333 102.65511318925965, 18.464 102.44444652259298 C 18.447999999999997 102.28977985592633, 18.396666666666665 102.17444652259297, 18.31 102.09844652259298 C 18.223333333333333 102.02244652259299, 18.090666666666664 101.98444652259298, 17.912 101.98444652259298 C 17.901333333333334 101.98444652259298, 17.890666666666668 101.98577985592632, 17.88 101.98844652259298 C 17.86933333333333 101.99111318925964, 17.86 101.9937798559263, 17.852 101.99644652259298 Z M 17.852 99.70444652259297 L 17.852 98.77244652259297 L 19.439999999999998 98.77244652259297 L 19.439999999999998 99.70444652259297 Z M 21.944 105.17244652259298 L 21.944 98.77244652259297 L 23.003999999999998 98.77244652259297 L 23.003999999999998 105.17244652259298 Z " stroke="none" fill-rule="nonzero" fill="#000000" fill-opacity="1" transform="matrix(1,0,0,1,5.05,13.314)" id="text25 l" />
  <path d="M 0 95.52520187033366 L 10 95.52520187033366 L 10 97.02520187033366 L 0 97.02520187033366 Z " stroke="none" fill-rule="evenodd" fill="#000000" fill-opacity="1" transform="matrix(1,0,0,1,5.05,13.314)" id="mark26 l" />
  <path d="M 0 84.8279572180744 L 10 84.8279572180744 L 10 86.3279572180744 L 0 86.3279572180744 Z " stroke="none" fill-rule="evenodd" fill="#000000" fill-opacity="1" transform="matrix(1,0,0,1,5.05,13.314)" id="mark27 l" />
  <path d="M 0 74.13071256581509 L 10 74.13071256581509 L 10 75.63071256581509 L 0 75.63071256581509 Z " stroke="none" fill-rule="evenodd" fill="#000000" fill-opacity="1" transform="matrix(1,0,0,1,5.05,13.314)" id="mark28 l" />
  <path d="M 0 63.43346791355577 L 10 63.43346791355577 L 10 64.93346791355577 L 0 64.93346791355577 Z " stroke="none" fill-rule="evenodd" fill="#000000" fill-opacity="1" transform="matrix(1,0,0,1,5.05,13.314)" id="mark29 l" />
  <path d="M 0 52.736223261296516 L 25 52.736223261296516 L 25 54.236223261296516 L 0 54.236223261296516 Z " stroke="none" fill-rule="evenodd" fill="#000000" fill-opacity="1" transform="matrix(1,0,0,1,5.05,13.314)" id="mark30 l" />
  <path d="M 12.223999999999998 50.27022326129652 C 12.221333333333334 50.16888992796319, 12.219333333333333 50.08488992796319, 12.218 50.01822326129652 C 12.216666666666667 49.95155659462985, 12.216666666666667 49.88355659462985, 12.218 49.81422326129652 C 12.219333333333333 49.744889927963186, 12.221333333333334 49.65555659462986, 12.223999999999998 49.54622326129652 L 13.303999999999998 49.54622326129652 L 13.303999999999998 50.410223261296515 C 13.303999999999998 50.64755659462985, 13.417333333333332 50.79822326129651, 13.643999999999998 50.86222326129652 L 13.643999999999998 51.75422326129652 C 13.155999999999999 51.71688992796319, 12.800666666666665 51.58222326129652, 12.578 51.35022326129652 C 12.355333333333334 51.11822326129652, 12.237333333333332 50.75822326129652, 12.223999999999998 50.27022326129652 Z M 12.292 46.218223261296515 L 12.292 45.28622326129652 L 15.536 45.28622326129652 L 15.536 46.218223261296515 Z M 14.143999999999998 50.86622326129652 C 14.367999999999999 50.810223261296514, 14.483999999999998 50.65955659462985, 14.491999999999999 50.41422326129652 C 14.497333333333334 50.211556594629855, 14.500666666666666 50.02888992796319, 14.501999999999999 49.86622326129652 C 14.503333333333332 49.70355659462986, 14.498666666666665 49.54622326129652, 14.488 49.39422326129652 C 14.48 49.23688992796319, 14.431999999999999 49.10355659462985, 14.344 48.99422326129652 C 14.256 48.88488992796319, 14.089333333333332 48.83288992796318, 13.844 48.83822326129652 L 13.096 48.846223261296515 L 13.068 47.95422326129652 L 14.027999999999999 46.57022326129652 L 15.216 46.57022326129652 L 14.248 47.922223261296516 L 14.28 47.922223261296516 C 14.712 47.922223261296516, 15.028666666666666 48.04488992796318, 15.229999999999999 48.29022326129652 C 15.431333333333333 48.53555659462985, 15.544 48.91288992796318, 15.568 49.422223261296516 C 15.57333333333333 49.49422326129651, 15.576666666666664 49.566223261296514, 15.578 49.63822326129652 C 15.57933333333333 49.71022326129652, 15.579999999999998 49.78088992796319, 15.579999999999998 49.85022326129652 C 15.579999999999998 49.91955659462985, 15.57933333333333 49.988889927963186, 15.578 50.05822326129652 C 15.576666666666664 50.12755659462985, 15.57333333333333 50.19822326129652, 15.568 50.27022326129652 C 15.549333333333333 50.76622326129652, 15.428666666666665 51.13088992796318, 15.206 51.364223261296516 C 14.983333333333334 51.59755659462985, 14.630666666666666 51.72755659462985, 14.148 51.75422326129652 Z M 16.196 50.27422326129652 C 16.188000000000002 49.84488992796319, 16.182666666666666 49.42822326129652, 16.18 49.02422326129652 C 16.177333333333333 48.620223261296516, 16.177999999999997 48.22488992796319, 16.182 47.83822326129652 C 16.186 47.45155659462986, 16.190666666666665 47.07022326129652, 16.196 46.69422326129652 C 16.209333333333333 46.25422326129652, 16.334000000000003 45.90888992796319, 16.57 45.65822326129652 C 16.805999999999997 45.40755659462985, 17.142666666666663 45.26222326129652, 17.58 45.22222326129652 L 17.58 46.11022326129652 C 17.382666666666665 46.16622326129652, 17.281333333333333 46.29555659462985, 17.276 46.498223261296516 C 17.262666666666668 46.86888992796319, 17.253333333333334 47.21688992796319, 17.248 47.54222326129652 C 17.242666666666665 47.86755659462985, 17.24 48.184223261296516, 17.24 48.492223261296516 C 17.24 48.800223261296516, 17.242666666666665 49.11488992796318, 17.248 49.43622326129652 C 17.253333333333334 49.757556594629854, 17.262666666666668 50.10088992796319, 17.276 50.46622326129652 C 17.281333333333333 50.67422326129652, 17.382666666666665 50.80622326129652, 17.58 50.86222326129652 L 17.58 51.75022326129652 C 17.142666666666663 51.71022326129652, 16.805999999999997 51.56422326129652, 16.57 51.312223261296516 C 16.334000000000003 51.060223261296514, 16.209333333333333 50.71422326129652, 16.196 50.27422326129652 Z M 18.084 51.75022326129652 L 18.084 50.858223261296516 C 18.268 50.80488992796319, 18.366666666666667 50.68088992796318, 18.38 50.486223261296516 C 18.398666666666667 50.01955659462985, 18.410666666666668 49.57088992796319, 18.416 49.14022326129652 C 18.421333333333333 48.70955659462985, 18.421333333333333 48.278889927963185, 18.416 47.84822326129652 C 18.410666666666668 47.41755659462985, 18.398666666666667 46.964889927963185, 18.38 46.49022326129652 C 18.374666666666666 46.29555659462986, 18.276 46.168889927963185, 18.084 46.11022326129652 L 18.084 45.22222326129652 C 18.513333333333335 45.26222326129652, 18.846666666666668 45.40755659462985, 19.084 45.65822326129652 C 19.321333333333335 45.90888992796319, 19.445333333333334 46.25422326129652, 19.456 46.69422326129652 C 19.46666666666667 47.00888992796319, 19.474666666666668 47.318889927963184, 19.48 47.62422326129652 C 19.485333333333333 47.92955659462985, 19.488 48.230223261296516, 19.488 48.52622326129652 C 19.488 48.822223261296514, 19.485333333333333 49.11555659462985, 19.48 49.40622326129652 C 19.474666666666668 49.696889927963184, 19.46666666666667 49.986223261296516, 19.456 50.27422326129652 C 19.439999999999998 50.72488992796319, 19.311999999999998 51.073556594629856, 19.072 51.32022326129652 C 18.832 51.56688992796318, 18.502666666666666 51.71022326129652, 18.084 51.75022326129652 Z M 21.944 51.68622326129652 L 21.944 45.28622326129652 L 23.003999999999998 45.28622326129652 L 23.003999999999998 51.68622326129652 Z " stroke="none" fill-rule="nonzero" fill="#000000" fill-opacity="1" transform="matrix(1,0,0,1,5.05,13.314)" id="text30 l" />
  <path d="M 0 42.0389786090372 L 10 42.0389786090372 L 10 43.5389786090372 L 0 43.5389786090372 Z " stroke="none" fill-rule="evenodd" fill="#000000" fill-opacity="1" transform="matrix(1,0,0,1,5.05,13.314)" id="mark31 l" />
  <path d="M 0 31.341733956777887 L 10 31.341733956777887 L 10 32.84173395677789 L 0 32.84173395677789 Z " stroke="none" fill-rule="evenodd" fill="#000000" fill-opacity="1" transform="matrix(1,0,0,1,5.05,13.314)" id="mark32 l" />
  <path d="M 0 20.64448930451863 L 10 20.64448930451863 L 10 22.14448930451863 L 0 22.14448930451863 Z " stroke="none" fill-rule="evenodd" fill="#000000" fill-opacity="1" transform="matrix(1,0,0,1,5.05,13.314)" id="mark33 l" />
  <path d="M 0 9.947244652259315 L 10 9.947244652259315 L 10 11.447244652259315 L 0 11.447244652259315 Z " stroke="none" fill-rule="evenodd" fill="#000000" fill-opacity="1" transform="matrix(1,0,0,1,5.05,13.314)" id="mark34 l" />
  <path d="M 0 -0.75 L 25 -0.75 L 25 0.75 L 0 0.75 Z " stroke="none" fill-rule="evenodd" fill="#000000" fill-opacity="1" transform="matrix(1,0,0,1,5.05,13.314)" id="mark35 l" />
  <path d="M 12.232 -3.2479999999999998 C 12.229333333333333 -3.349333333333333, 12.227333333333334 -3.4333333333333336, 12.226 -3.5 C 12.224666666666668 -3.5666666666666664, 12.224666666666668 -3.6346666666666665, 12.226 -3.7039999999999997 C 12.227333333333334 -3.773333333333333, 12.229333333333333 -3.8626666666666667, 12.232 -3.972 L 13.312 -3.972 L 13.312 -3.1079999999999997 C 13.312 -2.8706666666666663, 13.425333333333333 -2.7199999999999998, 13.652 -2.6559999999999997 L 13.652 -1.7639999999999998 C 13.164 -1.801333333333333, 12.808666666666667 -1.9359999999999997, 12.586 -2.1679999999999997 C 12.363333333333333 -2.4, 12.245333333333335 -2.76, 12.232 -3.2479999999999998 Z M 12.3 -7.3 L 12.3 -8.232 L 15.544 -8.232 L 15.544 -7.3 Z M 14.152000000000001 -2.6519999999999997 C 14.376000000000001 -2.7079999999999997, 14.492 -2.8586666666666662, 14.5 -3.104 C 14.505333333333333 -3.3066666666666666, 14.508666666666667 -3.489333333333333, 14.51 -3.652 C 14.511333333333333 -3.8146666666666667, 14.506666666666668 -3.9719999999999995, 14.496 -4.124 C 14.488 -4.2813333333333325, 14.440000000000001 -4.414666666666666, 14.352 -4.524 C 14.264 -4.633333333333333, 14.097333333333335 -4.685333333333333, 13.852 -4.68 L 13.104 -4.672 L 13.076 -5.564 L 14.036 -6.9479999999999995 L 15.224 -6.9479999999999995 L 14.256 -5.596 L 14.288 -5.596 C 14.719999999999999 -5.596, 15.036666666666665 -5.473333333333333, 15.238 -5.228 C 15.439333333333334 -4.982666666666667, 15.552 -4.605333333333333, 15.576 -4.096 C 15.581333333333333 -4.024, 15.584666666666667 -3.952, 15.586 -3.88 C 15.587333333333333 -3.808, 15.588000000000001 -3.737333333333333, 15.588000000000001 -3.6679999999999997 C 15.588000000000001 -3.5986666666666665, 15.587333333333333 -3.529333333333333, 15.586 -3.46 C 15.584666666666667 -3.3906666666666667, 15.581333333333333 -3.3200000000000003, 15.576 -3.2479999999999998 C 15.557333333333334 -2.752, 15.436666666666667 -2.3873333333333333, 15.214 -2.154 C 14.991333333333333 -1.9206666666666665, 14.638666666666666 -1.7906666666666666, 14.156 -1.7639999999999998 Z M 16.18 -3.2479999999999998 C 16.174666666666667 -3.421333333333333, 16.173333333333332 -3.5606666666666666, 16.176 -3.666 C 16.178666666666665 -3.771333333333333, 16.181333333333335 -3.873333333333333, 16.183999999999997 -3.972 L 17.264 -3.972 C 17.256 -3.8946666666666667, 17.25 -3.7986666666666666, 17.246 -3.6839999999999997 C 17.241999999999997 -3.569333333333333, 17.240666666666666 -3.4586666666666663, 17.241999999999997 -3.352 C 17.243333333333332 -3.2453333333333334, 17.246666666666666 -3.1653333333333338, 17.252 -3.112 C 17.262666666666668 -2.992, 17.297333333333334 -2.8939999999999997, 17.355999999999998 -2.8179999999999996 C 17.414666666666665 -2.7419999999999995, 17.497333333333334 -2.6879999999999997, 17.604 -2.6559999999999997 L 17.604 -1.7639999999999998 C 17.110666666666663 -1.801333333333333, 16.75333333333333 -1.9359999999999997, 16.532 -2.1679999999999997 C 16.310666666666666 -2.4, 16.19333333333333 -2.76, 16.18 -3.2479999999999998 Z M 16.279999999999998 -4.584 L 16.279999999999998 -8.232 L 17.348 -8.232 L 17.348 -4.584 Z M 17.852 -5.008 L 17.852 -5.763999999999999 C 17.929333333333332 -5.804, 18.014666666666667 -5.836, 18.107999999999997 -5.86 C 18.20133333333333 -5.884, 18.301333333333332 -5.896, 18.407999999999998 -5.896 C 18.773333333333333 -5.896, 19.047333333333334 -5.780666666666667, 19.23 -5.55 C 19.412666666666667 -5.319333333333333, 19.514666666666663 -5.005333333333333, 19.535999999999998 -4.608 C 19.546666666666667 -4.448, 19.55333333333333 -4.289333333333333, 19.555999999999997 -4.132 C 19.558666666666664 -3.974666666666667, 19.557333333333332 -3.8213333333333335, 19.552 -3.6719999999999997 C 19.546666666666667 -3.522666666666667, 19.538666666666668 -3.3826666666666663, 19.528 -3.252 C 19.482666666666667 -2.753333333333333, 19.353333333333335 -2.388, 19.14 -2.1559999999999997 C 18.926666666666666 -1.9239999999999997, 18.581333333333333 -1.793333333333333, 18.104 -1.7639999999999998 L 18.104 -2.6559999999999997 C 18.21333333333333 -2.685333333333333, 18.296 -2.738, 18.352 -2.814 C 18.408 -2.89, 18.44 -2.9893333333333336, 18.448 -3.112 C 18.471999999999998 -3.4026666666666667, 18.485999999999997 -3.664, 18.49 -3.896 C 18.494 -4.128, 18.485333333333333 -4.349333333333333, 18.464 -4.5600000000000005 C 18.447999999999997 -4.714666666666667, 18.396666666666665 -4.83, 18.31 -4.906 C 18.223333333333333 -4.981999999999999, 18.090666666666664 -5.02, 17.912 -5.02 C 17.901333333333334 -5.02, 17.890666666666668 -5.018666666666666, 17.88 -5.016 C 17.86933333333333 -5.013333333333334, 17.86 -5.010666666666667, 17.852 -5.008 Z M 17.852 -7.3 L 17.852 -8.232 L 19.439999999999998 -8.232 L 19.439999999999998 -7.3 Z M 21.944 -1.8319999999999999 L 21.944 -8.232 L 23.003999999999998 -8.232 L 23.003999999999998 -1.8319999999999999 Z " stroke="none" fill-rule="nonzero" fill="#000000" fill-opacity="1" transform="matrix(1,0,0,1,5.05,13.314)" id="text35 l" />
  <path d="M -5 -13.264 L 30 -13.264 L 30 370.44231817681606 L -5 370.44231817681606 Z " stroke="#FF0000" stroke-opacity="1" stroke-width="0.1" stroke-linecap="butt" stroke-linejoin="miter" fill="none" transform="matrix(1,0,0,1,5.05,13.314)" />
</svg>