<?xml version="1.0" encoding="UTF-8"?>
<svg xmlns:xlink="http://www.w3.org/1999/xlink" viewBox="0 0 35.1 477.92741258331336" version="1.1" style="font-synthesis: none;" width="35.1mm" height="477.92741258331336mm" xmlns="http://www.w3.org/2000/svg">
  <defs />
  <style>	</style>
  <path d="M 0 0 L 35.1 0 L 35.1 477.92741258331336 L 0 477.92741258331336 Z " stroke="none" fill-rule="nonzero" fill="#FFFFFF" fill-opacity="1" transform="matrix(1,0,0,1,0,0)" />
  <path d="M 0 457.04541258331335 L 10 457.04541258331335 L 10 458.54541258331335 L 0 458.54541258331335 Z " stroke="none" fill-rule="evenodd" fill="#000000" fill-opacity="1" transform="matrix(1,0,0,1,5.05,13.314)" id="mark1 l" />
  <path d="M 0 441.2593638735439 L 10 441.2593638735439 L 10 442.7593638735439 L 0 442.7593638735439 Z " stroke="none" fill-rule="evenodd" fill="#000000" fill-opacity="1" transform="matrix(1,0,0,1,5.05,13.314)" id="mark2 l" />
  <path d="M 0 425.4733151637745 L 10 425.4733151637745 L 10 426.9733151637745 L 0 426.9733151637745 Z " stroke="none" fill-rule="evenodd" fill="#000000" fill-opacity="1" transform="matrix(1,0,0,1,5.05,13.314)" id="mark3 l" />
  <path d="M 0 409.68726645400506 L 10 409.68726645400506 L 10 411.18726645400506 L 0 411.18726645400506 Z " stroke="none" fill-rule="evenodd" fill="#000000" fill-opacity="1" transform="matrix(1,0,0,1,5.05,13.314)" id="mark4 l" />
  <path d="M 0 393.9012177442356 L 25 393.9012177442356 L 25 395.4012177442356 L 0 395.4012177442356 Z " stroke="none" fill-rule="evenodd" fill="#000000" fill-opacity="1" transform="matrix(1,0,0,1,5.05,13.314)" id="mark5 l" />
  <path d="M 16.18 391.40321774423563 C 16.174666666666667 391.2298844109023, 16.173333333333332 391.090551077569, 16.176 390.9852177442356 C 16.178666666666665 390.87988441090226, 16.181333333333335 390.7778844109023, 16.183999999999997 390.67921774423564 L 17.264 390.67921774423564 C 17.256 390.756551077569, 17.25 390.852551077569, 17.246 390.96721774423565 C 17.241999999999997 391.0818844109023, 17.240666666666666 391.19255107756896, 17.241999999999997 391.29921774423565 C 17.243333333333332 391.40588441090233, 17.246666666666666 391.48588441090226, 17.252 391.53921774423566 C 17.262666666666668 391.65921774423566, 17.297333333333334 391.7572177442356, 17.355999999999998 391.83321774423564 C 17.414666666666665 391.90921774423566, 17.497333333333334 391.96321774423564, 17.604 391.9952177442356 L 17.604 392.8872177442356 C 17.110666666666663 392.8498844109023, 16.75333333333333 392.7152177442356, 16.532 392.4832177442356 C 16.310666666666666 392.25121774423565, 16.19333333333333 391.89121774423563, 16.18 391.40321774423563 Z M 16.279999999999998 390.0672177442356 L 16.279999999999998 386.41921774423565 L 17.348 386.41921774423565 L 17.348 390.0672177442356 Z M 17.852 389.64321774423564 L 17.852 388.8872177442356 C 17.929333333333332 388.84721774423565, 18.014666666666667 388.8152177442356, 18.107999999999997 388.7912177442356 C 18.20133333333333 388.7672177442356, 18.301333333333332 388.75521774423567, 18.407999999999998 388.7552177442356 C 18.773333333333333 388.75521774423567, 19.047333333333334 388.87055107756896, 19.23 389.1012177442356 C 19.412666666666667 389.33188441090226, 19.514666666666663 389.6458844109022, 19.535999999999998 390.0432177442356 C 19.546666666666667 390.20321774423564, 19.55333333333333 390.3618844109023, 19.555999999999997 390.5192177442356 C 19.558666666666664 390.67655107756894, 19.557333333333332 390.8298844109023, 19.552 390.97921774423565 C 19.546666666666667 391.128551077569, 19.538666666666668 391.268551077569, 19.528 391.3992177442356 C 19.482666666666667 391.8978844109023, 19.353333333333335 392.2632177442356, 19.14 392.4952177442356 C 18.926666666666666 392.72721774423565, 18.581333333333333 392.8578844109023, 18.104 392.8872177442356 L 18.104 391.9952177442356 C 18.21333333333333 391.9658844109023, 18.296 391.9132177442357, 18.352 391.8372177442356 C 18.408 391.76121774423564, 18.44 391.6618844109023, 18.448 391.53921774423566 C 18.471999999999998 391.248551077569, 18.485999999999997 390.98721774423564, 18.49 390.7552177442356 C 18.494 390.52321774423564, 18.485333333333333 390.3018844109023, 18.464 390.0912177442356 C 18.447999999999997 389.936551077569, 18.396666666666665 389.8212177442356, 18.31 389.7452177442356 C 18.223333333333333 389.66921774423565, 18.090666666666664 389.63121774423564, 17.912 389.63121774423564 C 17.901333333333334 389.63121774423564, 17.890666666666668 389.63255107756896, 17.88 389.6352177442356 C 17.86933333333333 389.6378844109023, 17.86 389.64055107756894, 17.852 389.64321774423564 Z M 17.852 387.3512177442356 L 17.852 386.41921774423565 L 19.439999999999998 386.41921774423565 L 19.439999999999998 387.3512177442356 Z M 21.944 392.81921774423563 L 21.944 386.41921774423565 L 23.003999999999998 386.41921774423565 L 23.003999999999998 392.81921774423563 Z " stroke="none" fill-rule="nonzero" fill="#000000" fill-opacity="1" transform="matrix(1,0,0,1,5.05,13.314)" id="text5 l" />
  <path d="M 0 378.11516903446625 L 10 378.11516903446625 L 10 379.61516903446625 L 0 379.61516903446625 Z " stroke="none" fill-rule="evenodd" fill="#000000" fill-opacity="1" transform="matrix(1,0,0,1,5.05,13.314)" id="mark6 l" />
  <path d="M 0 362.3291203246968 L 10 362.3291203246968 L 10 363.8291203246968 L 0 363.8291203246968 Z " stroke="none" fill-rule="evenodd" fill="#000000" fill-opacity="1" transform="matrix(1,0,0,1,5.05,13.314)" id="mark7 l" />
  <path d="M 0 346.5430716149274 L 10 346.5430716149274 L 10 348.0430716149274 L 0 348.0430716149274 Z " stroke="none" fill-rule="evenodd" fill="#000000" fill-opacity="1" transform="matrix(1,0,0,1,5.05,13.314)" id="mark8 l" />
  <path d="M 0 330.75702290515795 L 10 330.75702290515795 L 10 332.25702290515795 L 0 332.25702290515795 Z " stroke="none" fill-rule="evenodd" fill="#000000" fill-opacity="1" transform="matrix(1,0,0,1,5.05,13.314)" id="mark9 l" />
  <path d="M 0 314.9709741953885 L 25 314.9709741953885 L 25 316.4709741953885 L 0 316.4709741953885 Z " stroke="none" fill-rule="evenodd" fill="#000000" fill-opacity="1" transform="matrix(1,0,0,1,5.05,13.314)" id="mark10 l" />
  <path d="M 14.323999999999998 313.9209741953885 L 14.323999999999998 308.4769741953885 L 13.871999999999998 308.4769741953885 L 13.839999999999998 308.0969741953885 L 14.543999999999999 307.52097419538853 L 15.424 307.52097419538853 L 15.424 313.9209741953885 Z M 16.196 312.50897419538853 C 16.188000000000002 312.07964086205516, 16.182666666666666 311.66297419538853, 16.18 311.25897419538853 C 16.177333333333333 310.85497419538854, 16.177999999999997 310.45964086205515, 16.182 310.0729741953885 C 16.186 309.68630752872184, 16.190666666666665 309.3049741953885, 16.196 308.9289741953885 C 16.209333333333333 308.4889741953885, 16.334000000000003 308.1436408620552, 16.57 307.8929741953885 C 16.805999999999997 307.64230752872186, 17.142666666666663 307.49697419538853, 17.58 307.4569741953885 L 17.58 308.3449741953885 C 17.382666666666665 308.40097419538847, 17.281333333333333 308.53030752872183, 17.276 308.7329741953885 C 17.262666666666668 309.10364086205516, 17.253333333333334 309.45164086205517, 17.248 309.7769741953885 C 17.242666666666665 310.10230752872184, 17.24 310.4189741953885, 17.24 310.7269741953885 C 17.24 311.0349741953885, 17.242666666666665 311.34964086205514, 17.248 311.6709741953885 C 17.253333333333334 311.9923075287219, 17.262666666666668 312.3356408620552, 17.276 312.7009741953885 C 17.281333333333333 312.9089741953885, 17.382666666666665 313.0409741953885, 17.58 313.0969741953885 L 17.58 313.98497419538853 C 17.142666666666663 313.9449741953885, 16.805999999999997 313.7989741953885, 16.57 313.5469741953885 C 16.334000000000003 313.2949741953885, 16.209333333333333 312.9489741953885, 16.196 312.50897419538853 Z M 18.084 313.98497419538853 L 18.084 313.09297419538854 C 18.268 313.0396408620552, 18.366666666666667 312.91564086205517, 18.38 312.7209741953885 C 18.398666666666667 312.2543075287219, 18.410666666666668 311.8056408620552, 18.416 311.3749741953885 C 18.421333333333333 310.9443075287218, 18.421333333333333 310.5136408620551, 18.416 310.0829741953885 C 18.410666666666668 309.65230752872185, 18.398666666666667 309.19964086205516, 18.38 308.7249741953885 C 18.374666666666666 308.53030752872183, 18.276 308.40364086205517, 18.084 308.3449741953885 L 18.084 307.4569741953885 C 18.513333333333335 307.49697419538853, 18.846666666666668 307.64230752872186, 19.084 307.8929741953885 C 19.321333333333335 308.1436408620552, 19.445333333333334 308.4889741953885, 19.456 308.9289741953885 C 19.46666666666667 309.2436408620552, 19.474666666666668 309.5536408620552, 19.48 309.8589741953885 C 19.485333333333333 310.16430752872185, 19.488 310.46497419538855, 19.488 310.7609741953885 C 19.488 311.05697419538853, 19.485333333333333 311.3503075287218, 19.48 311.64097419538854 C 19.474666666666668 311.9316408620552, 19.46666666666667 312.2209741953885, 19.456 312.50897419538853 C 19.439999999999998 312.95964086205515, 19.311999999999998 313.30830752872185, 19.072 313.5549741953885 C 18.832 313.8016408620552, 18.502666666666666 313.9449741953885, 18.084 313.98497419538853 Z M 21.944 313.9209741953885 L 21.944 307.52097419538853 L 23.003999999999998 307.52097419538853 L 23.003999999999998 313.9209741953885 Z " stroke="none" fill-rule="nonzero" fill="#000000" fill-opacity="1" transform="matrix(1,0,0,1,5.05,13.314)" id="text10 l" />
  <path d="M 0 299.1849254856191 L 10 299.1849254856191 L 10 300.6849254856191 L 0 300.6849254856191 Z " stroke="none" fill-rule="evenodd" fill="#000000" fill-opacity="1" transform="matrix(1,0,0,1,5.05,13.314)" id="mark11 l" />
  <path d="M 0 283.39887677584966 L 10 283.39887677584966 L 10 284.89887677584966 L 0 284.89887677584966 Z " stroke="none" fill-rule="evenodd" fill="#000000" fill-opacity="1" transform="matrix(1,0,0,1,5.05,13.314)" id="mark12 l" />
  <path d="M 0 267.6128280660803 L 10 267.6128280660803 L 10 269.1128280660803 L 0 269.1128280660803 Z " stroke="none" fill-rule="evenodd" fill="#000000" fill-opacity="1" transform="matrix(1,0,0,1,5.05,13.314)" id="mark13 l" />
  <path d="M 0 251.82677935631082 L 10 251.82677935631082 L 10 253.32677935631082 L 0 253.32677935631082 Z " stroke="none" fill-rule="evenodd" fill="#000000" fill-opacity="1" transform="matrix(1,0,0,1,5.05,13.314)" id="mark14 l" />
  <path d="M 0 236.0407306465414 L 25 236.0407306465414 L 25 237.5407306465414 L 0 237.5407306465414 Z " stroke="none" fill-rule="evenodd" fill="#000000" fill-opacity="1" transform="matrix(1,0,0,1,5.05,13.314)" id="mark15 l" />
  <path d="M 14.331999999999999 234.9587306465414 L 14.331999999999999 229.5147306465414 L 13.879999999999999 229.5147306465414 L 13.847999999999999 229.13473064654139 L 14.552 228.5587306465414 L 15.432 228.5587306465414 L 15.432 234.9587306465414 Z M 16.18 233.5427306465414 C 16.174666666666667 233.36939731320808, 16.173333333333332 233.23006397987473, 16.176 233.1247306465414 C 16.178666666666665 233.01939731320806, 16.181333333333335 232.91739731320808, 16.183999999999997 232.8187306465414 L 17.264 232.8187306465414 C 17.256 232.89606397987473, 17.25 232.99206397987473, 17.246 233.1067306465414 C 17.241999999999997 233.22139731320806, 17.240666666666666 233.33206397987473, 17.241999999999997 233.4387306465414 C 17.243333333333332 233.54539731320804, 17.246666666666666 233.62539731320805, 17.252 233.6787306465414 C 17.262666666666668 233.7987306465414, 17.297333333333334 233.8967306465414, 17.355999999999998 233.9727306465414 C 17.414666666666665 234.0487306465414, 17.497333333333334 234.10273064654137, 17.604 234.13473064654139 L 17.604 235.0267306465414 C 17.110666666666663 234.98939731320806, 16.75333333333333 234.85473064654138, 16.532 234.62273064654138 C 16.310666666666666 234.39073064654139, 16.19333333333333 234.03073064654137, 16.18 233.5427306465414 Z M 16.279999999999998 232.2067306465414 L 16.279999999999998 228.5587306465414 L 17.348 228.5587306465414 L 17.348 232.2067306465414 Z M 17.852 231.7827306465414 L 17.852 231.0267306465414 C 17.929333333333332 230.9867306465414, 18.014666666666667 230.9547306465414, 18.107999999999997 230.9307306465414 C 18.20133333333333 230.9067306465414, 18.301333333333332 230.8947306465414, 18.407999999999998 230.8947306465414 C 18.773333333333333 230.8947306465414, 19.047333333333334 231.01006397987473, 19.23 231.2407306465414 C 19.412666666666667 231.4713973132081, 19.514666666666663 231.78539731320808, 19.535999999999998 232.1827306465414 C 19.546666666666667 232.34273064654138, 19.55333333333333 232.50139731320803, 19.555999999999997 232.6587306465414 C 19.558666666666664 232.81606397987474, 19.557333333333332 232.96939731320805, 19.552 233.1187306465414 C 19.546666666666667 233.26806397987474, 19.538666666666668 233.40806397987473, 19.528 233.5387306465414 C 19.482666666666667 234.0373973132081, 19.353333333333335 234.4027306465414, 19.14 234.63473064654139 C 18.926666666666666 234.86673064654138, 18.581333333333333 234.99739731320807, 18.104 235.0267306465414 L 18.104 234.13473064654139 C 18.21333333333333 234.10539731320807, 18.296 234.05273064654142, 18.352 233.9767306465414 C 18.408 233.90073064654138, 18.44 233.80139731320804, 18.448 233.6787306465414 C 18.471999999999998 233.38806397987474, 18.485999999999997 233.1267306465414, 18.49 232.8947306465414 C 18.494 232.6627306465414, 18.485333333333333 232.44139731320809, 18.464 232.2307306465414 C 18.447999999999997 232.07606397987473, 18.396666666666665 231.96073064654138, 18.31 231.88473064654139 C 18.223333333333333 231.8087306465414, 18.090666666666664 231.77073064654138, 17.912 231.7707306465414 C 17.901333333333334 231.77073064654138, 17.890666666666668 231.77206397987473, 17.88 231.7747306465414 C 17.86933333333333 231.77739731320807, 17.86 231.78006397987474, 17.852 231.7827306465414 Z M 17.852 229.4907306465414 L 17.852 228.5587306465414 L 19.439999999999998 228.5587306465414 L 19.439999999999998 229.4907306465414 Z M 21.944 234.9587306465414 L 21.944 228.5587306465414 L 23.003999999999998 228.5587306465414 L 23.003999999999998 234.9587306465414 Z " stroke="none" fill-rule="nonzero" fill="#000000" fill-opacity="1" transform="matrix(1,0,0,1,5.05,13.314)" id="text15 l" />
  <path d="M 0 220.25468193677196 L 10 220.25468193677196 L 10 221.75468193677196 L 0 221.75468193677196 Z " stroke="none" fill-rule="evenodd" fill="#000000" fill-opacity="1" transform="matrix(1,0,0,1,5.05,13.314)" id="mark16 l" />
  <path d="M 0 204.46863322700256 L 10 204.46863322700256 L 10 205.96863322700256 L 0 205.96863322700256 Z " stroke="none" fill-rule="evenodd" fill="#000000" fill-opacity="1" transform="matrix(1,0,0,1,5.05,13.314)" id="mark17 l" />
  <path d="M 0 188.68258451723312 L 10 188.68258451723312 L 10 190.18258451723312 L 0 190.18258451723312 Z " stroke="none" fill-rule="evenodd" fill="#000000" fill-opacity="1" transform="matrix(1,0,0,1,5.05,13.314)" id="mark18 l" />
  <path d="M 0 172.8965358074637 L 10 172.8965358074637 L 10 174.3965358074637 L 0 174.3965358074637 Z " stroke="none" fill-rule="evenodd" fill="#000000" fill-opacity="1" transform="matrix(1,0,0,1,5.05,13.314)" id="mark19 l" />
  <path d="M 0 157.11048709769426 L 25 157.11048709769426 L 25 158.61048709769426 L 0 158.61048709769426 Z " stroke="none" fill-rule="evenodd" fill="#000000" fill-opacity="1" transform="matrix(1,0,0,1,5.05,13.314)" id="mark20 l" />
  <path d="M 12.319999999999999 156.06048709769428 C 12.317333333333334 155.9618204310276, 12.315333333333331 155.87315376436095, 12.313999999999998 155.7944870976943 C 12.312666666666665 155.71582043102762, 12.311333333333334 155.6418204310276, 12.309999999999999 155.57248709769428 C 12.308666666666667 155.50315376436095, 12.308 155.43115376436094, 12.308 155.35648709769427 C 12.308 155.2818204310276, 12.308 155.19715376436093, 12.308 155.10248709769428 C 12.308 155.00782043102762, 12.309333333333335 154.8964870976943, 12.312 154.76848709769428 C 12.32 154.47515376436095, 12.37 154.21315376436095, 12.462 153.98248709769427 C 12.554 153.7518204310276, 12.687999999999999 153.5458204310276, 12.863999999999999 153.36448709769428 C 13.04 153.18315376436095, 13.257333333333333 153.0218204310276, 13.515999999999998 152.88048709769427 L 14.047999999999998 152.5924870976943 C 14.234666666666666 152.49115376436094, 14.354 152.36915376436093, 14.405999999999999 152.22648709769427 C 14.457999999999998 152.08382043102762, 14.488 151.9498204310276, 14.495999999999999 151.8244870976943 C 14.506666666666664 151.6778204310276, 14.512666666666664 151.52115376436097, 14.514 151.3544870976943 C 14.51533333333333 151.1878204310276, 14.511999999999997 151.03115376436097, 14.504 150.8844870976943 C 14.498666666666665 150.78048709769428, 14.468666666666666 150.6944870976943, 14.413999999999998 150.62648709769428 C 14.359333333333332 150.55848709769427, 14.279999999999998 150.5098204310276, 14.175999999999998 150.48048709769427 L 14.175999999999998 149.5924870976943 C 14.663999999999998 149.62448709769427, 15.014 149.75582043102762, 15.225999999999999 149.98648709769427 C 15.437999999999999 150.21715376436094, 15.554666666666666 150.57782043102762, 15.575999999999999 151.0684870976943 C 15.578666666666663 151.13248709769428, 15.580666666666666 151.19782043102762, 15.581999999999999 151.26448709769429 C 15.583333333333332 151.33115376436095, 15.584 151.3958204310276, 15.584 151.45848709769427 C 15.584 151.52115376436095, 15.583333333333332 151.58315376436093, 15.581999999999999 151.64448709769428 C 15.580666666666666 151.7058204310276, 15.578666666666663 151.7658204310276, 15.575999999999999 151.8244870976943 C 15.565333333333331 152.10982043102763, 15.512 152.35648709769427, 15.415999999999999 152.56448709769427 C 15.32 152.77248709769427, 15.19 152.95248709769427, 15.026 153.1044870976943 C 14.862 153.25648709769428, 14.672 153.39248709769427, 14.456 153.51248709769428 L 13.851999999999999 153.84048709769428 C 13.737333333333332 153.9018204310276, 13.647333333333332 153.9858204310276, 13.581999999999999 154.0924870976943 C 13.516666666666666 154.19915376436097, 13.469999999999999 154.3124870976943, 13.441999999999998 154.43248709769426 C 13.413999999999998 154.55248709769427, 13.399999999999999 154.66448709769426, 13.399999999999999 154.76848709769428 L 13.399999999999999 156.06048709769428 Z M 12.328 152.02048709769429 C 12.322666666666667 151.90315376436095, 12.318666666666665 151.7884870976943, 12.315999999999999 151.6764870976943 C 12.313333333333333 151.5644870976943, 12.311333333333334 151.45848709769427, 12.309999999999999 151.35848709769428 C 12.308666666666667 151.25848709769429, 12.309333333333335 151.16182043102762, 12.312 151.0684870976943 C 12.330666666666666 150.5804870976943, 12.447333333333333 150.22115376436096, 12.661999999999999 149.99048709769428 C 12.876666666666665 149.7598204310276, 13.213333333333331 149.62715376436097, 13.671999999999999 149.5924870976943 L 13.671999999999999 150.48448709769428 C 13.576 150.5138204310276, 13.505333333333333 150.56048709769425, 13.459999999999999 150.62448709769427 C 13.414666666666665 150.6884870976943, 13.390666666666664 150.7658204310276, 13.387999999999998 150.85648709769427 C 13.382666666666665 151.06448709769427, 13.379333333333333 151.2578204310276, 13.378 151.43648709769428 C 13.376666666666667 151.61515376436097, 13.381333333333334 151.80982043102762, 13.392 152.02048709769429 Z M 13.904 156.06048709769428 L 13.904 155.1284870976943 L 15.5 155.1284870976943 L 15.5 156.06048709769428 Z M 16.196 154.64848709769427 C 16.188000000000002 154.21915376436093, 16.182666666666666 153.80248709769427, 16.18 153.39848709769427 C 16.177333333333333 152.99448709769428, 16.177999999999997 152.59915376436095, 16.182 152.21248709769426 C 16.186 151.8258204310276, 16.190666666666665 151.4444870976943, 16.196 151.0684870976943 C 16.209333333333333 150.6284870976943, 16.334000000000003 150.28315376436095, 16.57 150.0324870976943 C 16.805999999999997 149.78182043102763, 17.142666666666663 149.63648709769427, 17.58 149.59648709769428 L 17.58 150.48448709769428 C 17.382666666666665 150.5404870976943, 17.281333333333333 150.66982043102763, 17.276 150.8724870976943 C 17.262666666666668 151.24315376436095, 17.253333333333334 151.59115376436094, 17.248 151.91648709769427 C 17.242666666666665 152.2418204310276, 17.24 152.55848709769427, 17.24 152.8664870976943 C 17.24 153.17448709769428, 17.242666666666665 153.48915376436094, 17.248 153.81048709769428 C 17.253333333333334 154.13182043102762, 17.262666666666668 154.47515376436095, 17.276 154.84048709769428 C 17.281333333333333 155.04848709769428, 17.382666666666665 155.18048709769428, 17.58 155.23648709769427 L 17.58 156.12448709769427 C 17.142666666666663 156.08448709769428, 16.805999999999997 155.93848709769426, 16.57 155.68648709769428 C 16.334000000000003 155.43448709769427, 16.209333333333333 155.08848709769427, 16.196 154.64848709769427 Z M 18.084 156.12448709769427 L 18.084 155.23248709769427 C 18.268 155.17915376436093, 18.366666666666667 155.05515376436097, 18.38 154.8604870976943 C 18.398666666666667 154.39382043102762, 18.410666666666668 153.94515376436095, 18.416 153.51448709769429 C 18.421333333333333 153.08382043102762, 18.421333333333333 152.65315376436092, 18.416 152.22248709769428 C 18.410666666666668 151.7918204310276, 18.398666666666667 151.33915376436093, 18.38 150.86448709769428 C 18.374666666666666 150.6698204310276, 18.276 150.54315376436094, 18.084 150.48448709769428 L 18.084 149.59648709769428 C 18.513333333333335 149.63648709769427, 18.846666666666668 149.78182043102763, 19.084 150.0324870976943 C 19.321333333333335 150.28315376436095, 19.445333333333334 150.6284870976943, 19.456 151.0684870976943 C 19.46666666666667 151.38315376436094, 19.474666666666668 151.69315376436094, 19.48 151.99848709769427 C 19.485333333333333 152.3038204310276, 19.488 152.6044870976943, 19.488 152.90048709769428 C 19.488 153.19648709769427, 19.485333333333333 153.4898204310276, 19.48 153.78048709769428 C 19.474666666666668 154.07115376436096, 19.46666666666667 154.3604870976943, 19.456 154.64848709769427 C 19.439999999999998 155.09915376436095, 19.311999999999998 155.4478204310276, 19.072 155.69448709769426 C 18.832 155.94115376436093, 18.502666666666666 156.08448709769428, 18.084 156.12448709769427 Z M 21.944 156.06048709769428 L 21.944 149.66048709769427 L 23.003999999999998 149.66048709769427 L 23.003999999999998 156.06048709769428 Z " stroke="none" fill-rule="nonzero" fill="#000000" fill-opacity="1" transform="matrix(1,0,0,1,5.05,13.314)" id="text20 l" />
  <path d="M 0 141.32443838792483 L 10 141.32443838792483 L 10 142.82443838792483 L 0 142.82443838792483 Z " stroke="none" fill-rule="evenodd" fill="#000000" fill-opacity="1" transform="matrix(1,0,0,1,5.05,13.314)" id="mark21 l" />
  <path d="M 0 125.5383896781554 L 10 125.5383896781554 L 10 127.0383896781554 L 0 127.0383896781554 Z " stroke="none" fill-rule="evenodd" fill="#000000" fill-opacity="1" transform="matrix(1,0,0,1,5.05,13.314)" id="mark22 l" />
  <path d="M 0 109.75234096838602 L 10 109.75234096838602 L 10 111.25234096838602 L 0 111.25234096838602 Z " stroke="none" fill-rule="evenodd" fill="#000000" fill-opacity="1" transform="matrix(1,0,0,1,5.05,13.314)" id="mark23 l" />
  <path d="M 0 93.96629225861659 L 10 93.96629225861659 L 10 95.46629225861659 L 0 95.46629225861659 Z " stroke="none" fill-rule="evenodd" fill="#000000" fill-opacity="1" transform="matrix(1,0,0,1,5.05,13.314)" id="mark24 l" />
  <path d="M 0 78.18024354884716 L 25 78.18024354884716 L 25 79.68024354884716 L 0 79.68024354884716 Z " stroke="none" fill-rule="evenodd" fill="#000000" fill-opacity="1" transform="matrix(1,0,0,1,5.05,13.314)" id="mark25 l" />
  <path d="M 12.328 77.13024354884716 C 12.325333333333333 77.0315768821805, 12.323333333333332 76.94291021551382, 12.322 76.86424354884716 C 12.320666666666666 76.7855768821805, 12.319333333333333 76.7115768821805, 12.318 76.64224354884716 C 12.316666666666666 76.57291021551383, 12.315999999999999 76.50091021551383, 12.316 76.42624354884717 C 12.315999999999999 76.3515768821805, 12.315999999999999 76.26691021551383, 12.316 76.17224354884716 C 12.315999999999999 76.0775768821805, 12.317333333333334 75.96624354884716, 12.32 75.83824354884716 C 12.328 75.54491021551382, 12.378 75.28291021551382, 12.47 75.05224354884716 C 12.562000000000001 74.8215768821805, 12.696 74.61557688218049, 12.872 74.43424354884716 C 13.048 74.25291021551382, 13.265333333333334 74.09157688218049, 13.524000000000001 73.95024354884715 L 14.056000000000001 73.66224354884716 C 14.242666666666668 73.56091021551383, 14.362000000000002 73.43891021551383, 14.414 73.29624354884716 C 14.466000000000001 73.15357688218049, 14.495999999999999 73.01957688218049, 14.504 72.89424354884716 C 14.514666666666667 72.7475768821805, 14.520666666666667 72.59091021551383, 14.522 72.42424354884716 C 14.523333333333333 72.25757688218049, 14.520000000000001 72.10091021551382, 14.512 71.95424354884716 C 14.506666666666666 71.85024354884716, 14.476666666666667 71.76424354884716, 14.422 71.69624354884716 C 14.367333333333335 71.62824354884717, 14.288 71.5795768821805, 14.184000000000001 71.55024354884716 L 14.184000000000001 70.66224354884716 C 14.672 70.69424354884715, 15.022000000000002 70.8255768821805, 15.234 71.05624354884716 C 15.446000000000002 71.28691021551383, 15.562666666666667 71.64757688218049, 15.584 72.13824354884716 C 15.586666666666668 72.20224354884715, 15.588666666666668 72.26757688218049, 15.59 72.33424354884716 C 15.591333333333335 72.40091021551383, 15.592000000000002 72.4655768821805, 15.592 72.52824354884716 C 15.592000000000002 72.59091021551383, 15.591333333333335 72.65291021551383, 15.59 72.71424354884716 C 15.588666666666668 72.7755768821805, 15.586666666666668 72.83557688218049, 15.584 72.89424354884716 C 15.573333333333332 73.17957688218048, 15.52 73.42624354884715, 15.424 73.63424354884717 C 15.328 73.84224354884716, 15.197999999999999 74.02224354884716, 15.033999999999999 74.17424354884716 C 14.87 74.32624354884716, 14.68 74.46224354884717, 14.464 74.58224354884716 L 13.86 74.91024354884716 C 13.745333333333335 74.9715768821805, 13.655333333333335 75.05557688218049, 13.59 75.16224354884716 C 13.524666666666668 75.26891021551383, 13.478000000000002 75.38224354884716, 13.45 75.50224354884716 C 13.422 75.62224354884717, 13.408 75.73424354884716, 13.408 75.83824354884716 L 13.408 77.13024354884716 Z M 12.336 73.09024354884716 C 12.330666666666666 72.97291021551383, 12.326666666666664 72.85824354884717, 12.324 72.74624354884716 C 12.321333333333332 72.63424354884715, 12.319333333333333 72.52824354884716, 12.318 72.42824354884716 C 12.316666666666666 72.32824354884715, 12.317333333333334 72.23157688218049, 12.32 72.13824354884716 C 12.338666666666668 71.65024354884716, 12.455333333333336 71.29091021551382, 12.67 71.06024354884715 C 12.884666666666668 70.82957688218049, 13.221333333333334 70.69691021551382, 13.68 70.66224354884716 L 13.68 71.55424354884717 C 13.584 71.5835768821805, 13.513333333333332 71.63024354884718, 13.468 71.69424354884717 C 13.422666666666668 71.75824354884716, 13.398666666666667 71.83557688218049, 13.396 71.92624354884717 C 13.390666666666666 72.13424354884717, 13.387333333333332 72.3275768821805, 13.386 72.50624354884717 C 13.384666666666666 72.68491021551384, 13.389333333333333 72.8795768821805, 13.4 73.09024354884716 Z M 13.911999999999999 77.13024354884716 L 13.911999999999999 76.19824354884716 L 15.508 76.19824354884716 L 15.508 77.13024354884716 Z M 16.18 75.71424354884716 C 16.174666666666667 75.54091021551383, 16.173333333333332 75.40157688218049, 16.176 75.29624354884716 C 16.178666666666665 75.19091021551382, 16.181333333333335 75.08891021551382, 16.183999999999997 74.99024354884716 L 17.264 74.99024354884716 C 17.256 75.06757688218049, 17.25 75.1635768821805, 17.246 75.27824354884716 C 17.241999999999997 75.39291021551382, 17.240666666666666 75.5035768821805, 17.241999999999997 75.61024354884717 C 17.243333333333332 75.71691021551383, 17.246666666666666 75.79691021551383, 17.252 75.85024354884716 C 17.262666666666668 75.97024354884717, 17.297333333333334 76.06824354884716, 17.355999999999998 76.14424354884716 C 17.414666666666665 76.22024354884717, 17.497333333333334 76.27424354884717, 17.604 76.30624354884716 L 17.604 77.19824354884716 C 17.110666666666663 77.16091021551384, 16.75333333333333 77.02624354884716, 16.532 76.79424354884716 C 16.310666666666666 76.56224354884716, 16.19333333333333 76.20224354884716, 16.18 75.71424354884716 Z M 16.279999999999998 74.37824354884717 L 16.279999999999998 70.73024354884716 L 17.348 70.73024354884716 L 17.348 74.37824354884717 Z M 17.852 73.95424354884716 L 17.852 73.19824354884716 C 17.929333333333332 73.15824354884715, 18.014666666666667 73.12624354884716, 18.107999999999997 73.10224354884716 C 18.20133333333333 73.07824354884715, 18.301333333333332 73.06624354884715, 18.407999999999998 73.06624354884715 C 18.773333333333333 73.06624354884715, 19.047333333333334 73.18157688218048, 19.23 73.41224354884716 C 19.412666666666667 73.64291021551384, 19.514666666666663 73.95691021551383, 19.535999999999998 74.35424354884717 C 19.546666666666667 74.51424354884716, 19.55333333333333 74.67291021551384, 19.555999999999997 74.83024354884716 C 19.558666666666664 74.98757688218049, 19.557333333333332 75.14091021551383, 19.552 75.29024354884716 C 19.546666666666667 75.43957688218049, 19.538666666666668 75.57957688218049, 19.528 75.71024354884716 C 19.482666666666667 76.20891021551382, 19.353333333333335 76.57424354884716, 19.14 76.80624354884716 C 18.926666666666666 77.03824354884716, 18.581333333333333 77.16891021551382, 18.104 77.19824354884716 L 18.104 76.30624354884716 C 18.21333333333333 76.27691021551384, 18.296 76.22424354884717, 18.352 76.14824354884716 C 18.408 76.07224354884715, 18.44 75.97291021551382, 18.448 75.85024354884716 C 18.471999999999998 75.5595768821805, 18.485999999999997 75.29824354884715, 18.49 75.06624354884715 C 18.494 74.83424354884716, 18.485333333333333 74.61291021551382, 18.464 74.40224354884717 C 18.447999999999997 74.2475768821805, 18.396666666666665 74.13224354884717, 18.31 74.05624354884716 C 18.223333333333333 73.98024354884716, 18.090666666666664 73.94224354884716, 17.912 73.94224354884716 C 17.901333333333334 73.94224354884716, 17.890666666666668 73.9435768821805, 17.88 73.94624354884716 C 17.86933333333333 73.94891021551382, 17.86 73.95157688218049, 17.852 73.95424354884716 Z M 17.852 71.66224354884716 L 17.852 70.73024354884716 L 19.439999999999998 70.73024354884716 L 19.439999999999998 71.66224354884716 Z M 21.944 77.13024354884716 L 21.944 70.73024354884716 L 23.003999999999998 70.73024354884716 L 23.003999999999998 77.13024354884716 Z " stroke="none" fill-rule="nonzero" fill="#000000" fill-opacity="1" transform="matrix(1,0,0,1,5.05,13.314)" id="text25 l" />
  <path d="M 0 62.39419483907773 L 10 62.39419483907773 L 10 63.89419483907773 L 0 63.89419483907773 Z " stroke="none" fill-rule="evenodd" fill="#000000" fill-opacity="1" transform="matrix(1,0,0,1,5.05,13.314)" id="mark26 l" />
  <path d="M 0 46.608146129308295 L 10 46.608146129308295 L 10 48.108146129308295 L 0 48.108146129308295 Z " stroke="none" fill-rule="evenodd" fill="#000000" fill-opacity="1" transform="matrix(1,0,0,1,5.05,13.314)" id="mark27 l" />
  <path d="M 0 30.822097419538864 L 10 30.822097419538864 L 10 32.32209741953886 L 0 32.32209741953886 Z " stroke="none" fill-rule="evenodd" fill="#000000" fill-opacity="1" transform="matrix(1,0,0,1,5.05,13.314)" id="mark28 l" />
  <path d="M 0 15.036048709769432 L 10 15.036048709769432 L 10 16.53604870976943 L 0 16.53604870976943 Z " stroke="none" fill-rule="evenodd" fill="#000000" fill-opacity="1" transform="matrix(1,0,0,1,5.05,13.314)" id="mark29 l" />
  <path d="M 0 -0.75 L 25 -0.75 L 25 0.75 L 0 0.75 Z " stroke="none" fill-rule="evenodd" fill="#000000" fill-opacity="1" transform="matrix(1,0,0,1,5.05,13.314)" id="mark30 l" />
  <path d="M 12.223999999999998 -3.2159999999999997 C 12.221333333333334 -3.317333333333333, 12.219333333333333 -3.4013333333333335, 12.218 -3.468 C 12.216666666666667 -3.5346666666666664, 12.216666666666667 -3.602666666666666, 12.218 -3.6719999999999997 C 12.219333333333333 -3.7413333333333334, 12.221333333333334 -3.8306666666666667, 12.223999999999998 -3.94 L 13.303999999999998 -3.94 L 13.303999999999998 -3.0759999999999996 C 13.303999999999998 -2.8386666666666667, 13.417333333333332 -2.6879999999999997, 13.643999999999998 -2.6239999999999997 L 13.643999999999998 -1.7319999999999998 C 13.155999999999999 -1.7693333333333332, 12.800666666666665 -1.904, 12.578 -2.1359999999999997 C 12.355333333333334 -2.368, 12.237333333333332 -2.7279999999999998, 12.223999999999998 -3.2159999999999997 Z M 12.292 -7.268 L 12.292 -8.2 L 15.536 -8.2 L 15.536 -7.268 Z M 14.143999999999998 -2.6199999999999997 C 14.367999999999999 -2.6759999999999997, 14.483999999999998 -2.826666666666666, 14.491999999999999 -3.072 C 14.497333333333334 -3.2746666666666666, 14.500666666666666 -3.4573333333333336, 14.501999999999999 -3.62 C 14.503333333333332 -3.7826666666666666, 14.498666666666665 -3.94, 14.488 -4.092 C 14.48 -4.2493333333333325, 14.431999999999999 -4.382666666666666, 14.344 -4.492 C 14.256 -4.601333333333333, 14.089333333333332 -4.653333333333332, 13.844 -4.648 L 13.096 -4.64 L 13.068 -5.532 L 14.027999999999999 -6.9159999999999995 L 15.216 -6.9159999999999995 L 14.248 -5.564 L 14.28 -5.564 C 14.712 -5.564, 15.028666666666666 -5.441333333333334, 15.229999999999999 -5.196 C 15.431333333333333 -4.950666666666666, 15.544 -4.573333333333332, 15.568 -4.064 C 15.57333333333333 -3.992, 15.576666666666664 -3.92, 15.578 -3.848 C 15.57933333333333 -3.776, 15.579999999999998 -3.705333333333333, 15.579999999999998 -3.6359999999999997 C 15.579999999999998 -3.5666666666666664, 15.57933333333333 -3.4973333333333336, 15.578 -3.428 C 15.576666666666664 -3.3586666666666662, 15.57333333333333 -3.2879999999999994, 15.568 -3.2159999999999997 C 15.549333333333333 -2.7199999999999998, 15.428666666666665 -2.3553333333333333, 15.206 -2.122 C 14.983333333333334 -1.8886666666666665, 14.630666666666666 -1.7586666666666664, 14.148 -1.7319999999999998 Z M 16.196 -3.2119999999999997 C 16.188000000000002 -3.641333333333333, 16.182666666666666 -4.058, 16.18 -4.462 C 16.177333333333333 -4.866, 16.177999999999997 -5.261333333333333, 16.182 -5.648 C 16.186 -6.034666666666666, 16.190666666666665 -6.416, 16.196 -6.792 C 16.209333333333333 -7.231999999999999, 16.334000000000003 -7.577333333333334, 16.57 -7.828 C 16.805999999999997 -8.078666666666667, 17.142666666666663 -8.224, 17.58 -8.264 L 17.58 -7.3759999999999994 C 17.382666666666665 -7.32, 17.281333333333333 -7.190666666666667, 17.276 -6.9879999999999995 C 17.262666666666668 -6.617333333333333, 17.253333333333334 -6.269333333333333, 17.248 -5.944 C 17.242666666666665 -5.618666666666666, 17.24 -5.302, 17.24 -4.994 C 17.24 -4.686, 17.242666666666665 -4.371333333333333, 17.248 -4.05 C 17.253333333333334 -3.7286666666666664, 17.262666666666668 -3.3853333333333326, 17.276 -3.0199999999999996 C 17.281333333333333 -2.812, 17.382666666666665 -2.6799999999999997, 17.58 -2.6239999999999997 L 17.58 -1.7359999999999998 C 17.142666666666663 -1.7759999999999998, 16.805999999999997 -1.9219999999999997, 16.57 -2.174 C 16.334000000000003 -2.4259999999999997, 16.209333333333333 -2.772, 16.196 -3.2119999999999997 Z M 18.084 -1.7359999999999998 L 18.084 -2.6279999999999997 C 18.268 -2.681333333333333, 18.366666666666667 -2.8053333333333335, 18.38 -3 C 18.398666666666667 -3.4666666666666663, 18.410666666666668 -3.915333333333333, 18.416 -4.346 C 18.421333333333333 -4.776666666666666, 18.421333333333333 -5.207333333333333, 18.416 -5.638 C 18.410666666666668 -6.068666666666666, 18.398666666666667 -6.521333333333333, 18.38 -6.9959999999999996 C 18.374666666666666 -7.190666666666667, 18.276 -7.317333333333334, 18.084 -7.3759999999999994 L 18.084 -8.264 C 18.513333333333335 -8.224, 18.846666666666668 -8.078666666666667, 19.084 -7.828 C 19.321333333333335 -7.577333333333334, 19.445333333333334 -7.231999999999999, 19.456 -6.792 C 19.46666666666667 -6.477333333333332, 19.474666666666668 -6.167333333333333, 19.48 -5.861999999999999 C 19.485333333333333 -5.556666666666667, 19.488 -5.256, 19.488 -4.96 C 19.488 -4.664, 19.485333333333333 -4.370666666666667, 19.48 -4.08 C 19.474666666666668 -3.7893333333333334, 19.46666666666667 -3.5, 19.456 -3.2119999999999997 C 19.439999999999998 -2.761333333333333, 19.311999999999998 -2.4126666666666665, 19.072 -2.166 C 18.832 -1.9193333333333331, 18.502666666666666 -1.7759999999999998, 18.084 -1.7359999999999998 Z M 21.944 -1.7999999999999998 L 21.944 -8.2 L 23.003999999999998 -8.2 L 23.003999999999998 -1.7999999999999998 Z " stroke="none" fill-rule="nonzero" fill="#000000" fill-opacity="1" transform="matrix(1,0,0,1,5.05,13.314)" id="text30 l" />
  <path d="M -5 -13.264 L 30 -13.264 L 30 464.5634125833133 L -5 464.5634125833133 Z " stroke="#FF0000" stroke-opacity="1" stroke-width="0.1" stroke-linecap="butt" stroke-linejoin="miter" fill="none" transform="matrix(1,0,0,1,5.05,13.314)" />
</svg>