<?xml version="1.0" encoding="UTF-8"?>
<svg xmlns:xlink="http://www.w3.org/1999/xlink" viewBox="0 0 35.1 419.99572499293686" version="1.1" style="font-synthesis: none;" width="35.1mm" height="419.99572499293686mm" xmlns="http://www.w3.org/2000/svg">
  <defs />
  <style>	</style>
  <path d="M 0 0 L 35.1 0 L 35.1 419.99572499293686 L 0 419.99572499293686 Z " stroke="none" fill-rule="nonzero" fill="#FFFFFF" fill-opacity="1" transform="matrix(1,0,0,1,0,0)" />
  <path d="M 0 399.11372499293685 L 10 399.11372499293685 L 10 400.61372499293685 L 0 400.61372499293685 Z " stroke="none" fill-rule="evenodd" fill="#000000" fill-opacity="1" transform="matrix(1,0,0,1,5.05,13.314)" id="mark1 l" />
  <path d="M 0 390.95324080940753 L 10 390.95324080940753 L 10 392.45324080940753 L 0 392.45324080940753 Z " stroke="none" fill-rule="evenodd" fill="#000000" fill-opacity="1" transform="matrix(1,0,0,1,5.05,13.314)" id="mark2 l" />
  <path d="M 0 382.7927566258782 L 10 382.7927566258782 L 10 384.2927566258782 L 0 384.2927566258782 Z " stroke="none" fill-rule="evenodd" fill="#000000" fill-opacity="1" transform="matrix(1,0,0,1,5.05,13.314)" id="mark3 l" />
  <path d="M 0 374.6322724423489 L 10 374.6322724423489 L 10 376.1322724423489 L 0 376.1322724423489 Z " stroke="none" fill-rule="evenodd" fill="#000000" fill-opacity="1" transform="matrix(1,0,0,1,5.05,13.314)" id="mark4 l" />
  <path d="M 0 366.4717882588196 L 25 366.4717882588196 L 25 367.9717882588196 L 0 367.9717882588196 Z " stroke="none" fill-rule="evenodd" fill="#000000" fill-opacity="1" transform="matrix(1,0,0,1,5.05,13.314)" id="mark5 l" />
  <path d="M 16.18 363.9737882588196 C 16.174666666666667 363.80045492548624, 16.173333333333332 363.66112159215294, 16.176 363.5557882588196 C 16.178666666666665 363.4504549254862, 16.181333333333335 363.34845492548624, 16.183999999999997 363.2497882588196 L 17.264 363.2497882588196 C 17.256 363.32712159215293, 17.25 363.42312159215294, 17.246 363.5377882588196 C 17.241999999999997 363.65245492548627, 17.240666666666666 363.7631215921529, 17.241999999999997 363.8697882588196 C 17.243333333333332 363.9764549254862, 17.246666666666666 364.05645492548626, 17.252 364.1097882588196 C 17.262666666666668 364.22978825881955, 17.297333333333334 364.32778825881957, 17.355999999999998 364.4037882588196 C 17.414666666666665 364.47978825881955, 17.497333333333334 364.5337882588195, 17.604 364.56578825881957 L 17.604 365.45778825881956 C 17.110666666666663 365.42045492548624, 16.75333333333333 365.2857882588196, 16.532 365.05378825881957 C 16.310666666666666 364.82178825881954, 16.19333333333333 364.4617882588196, 16.18 363.9737882588196 Z M 16.279999999999998 362.63778825881957 L 16.279999999999998 358.9897882588196 L 17.348 358.9897882588196 L 17.348 362.63778825881957 Z M 17.852 362.2137882588196 L 17.852 361.45778825881956 C 17.929333333333332 361.41778825881954, 18.014666666666667 361.38578825881956, 18.107999999999997 361.36178825881956 C 18.20133333333333 361.33778825881956, 18.301333333333332 361.32578825881956, 18.407999999999998 361.32578825881956 C 18.773333333333333 361.32578825881956, 19.047333333333334 361.4411215921529, 19.23 361.67178825881956 C 19.412666666666667 361.9024549254862, 19.514666666666663 362.21645492548623, 19.535999999999998 362.61378825881957 C 19.546666666666667 362.77378825881954, 19.55333333333333 362.93245492548624, 19.555999999999997 363.08978825881957 C 19.558666666666664 363.2471215921529, 19.557333333333332 363.4004549254862, 19.552 363.5497882588196 C 19.546666666666667 363.6991215921529, 19.538666666666668 363.8391215921529, 19.528 363.96978825881956 C 19.482666666666667 364.4684549254862, 19.353333333333335 364.83378825881954, 19.14 365.06578825881957 C 18.926666666666666 365.2977882588196, 18.581333333333333 365.4284549254862, 18.104 365.45778825881956 L 18.104 364.56578825881957 C 18.21333333333333 364.5364549254863, 18.296 364.4837882588196, 18.352 364.40778825881955 C 18.408 364.3317882588196, 18.44 364.23245492548625, 18.448 364.1097882588196 C 18.471999999999998 363.8191215921529, 18.485999999999997 363.5577882588196, 18.49 363.32578825881956 C 18.494 363.0937882588196, 18.485333333333333 362.87245492548624, 18.464 362.66178825881957 C 18.447999999999997 362.50712159215294, 18.396666666666665 362.3917882588196, 18.31 362.31578825881957 C 18.223333333333333 362.23978825881954, 18.090666666666664 362.2017882588196, 17.912 362.2017882588196 C 17.901333333333334 362.2017882588196, 17.890666666666668 362.2031215921529, 17.88 362.20578825881955 C 17.86933333333333 362.20845492548625, 17.86 362.21112159215295, 17.852 362.2137882588196 Z M 17.852 359.92178825881956 L 17.852 358.9897882588196 L 19.439999999999998 358.9897882588196 L 19.439999999999998 359.92178825881956 Z M 21.944 365.3897882588196 L 21.944 358.9897882588196 L 23.003999999999998 358.9897882588196 L 23.003999999999998 365.3897882588196 Z " stroke="none" fill-rule="nonzero" fill="#000000" fill-opacity="1" transform="matrix(1,0,0,1,5.05,13.314)" id="text5 l" />
  <path d="M 0 358.31130407529025 L 10 358.31130407529025 L 10 359.81130407529025 L 0 359.81130407529025 Z " stroke="none" fill-rule="evenodd" fill="#000000" fill-opacity="1" transform="matrix(1,0,0,1,5.05,13.314)" id="mark6 l" />
  <path d="M 0 350.15081989176093 L 10 350.15081989176093 L 10 351.65081989176093 L 0 351.65081989176093 Z " stroke="none" fill-rule="evenodd" fill="#000000" fill-opacity="1" transform="matrix(1,0,0,1,5.05,13.314)" id="mark7 l" />
  <path d="M 0 341.99033570823156 L 10 341.99033570823156 L 10 343.49033570823156 L 0 343.49033570823156 Z " stroke="none" fill-rule="evenodd" fill="#000000" fill-opacity="1" transform="matrix(1,0,0,1,5.05,13.314)" id="mark8 l" />
  <path d="M 0 333.82985152470224 L 10 333.82985152470224 L 10 335.32985152470224 L 0 335.32985152470224 Z " stroke="none" fill-rule="evenodd" fill="#000000" fill-opacity="1" transform="matrix(1,0,0,1,5.05,13.314)" id="mark9 l" />
  <path d="M 0 325.6693673411729 L 25 325.6693673411729 L 25 327.1693673411729 L 0 327.1693673411729 Z " stroke="none" fill-rule="evenodd" fill="#000000" fill-opacity="1" transform="matrix(1,0,0,1,5.05,13.314)" id="mark10 l" />
  <path d="M 14.323999999999998 324.6193673411729 L 14.323999999999998 319.1753673411729 L 13.871999999999998 319.1753673411729 L 13.839999999999998 318.7953673411729 L 14.543999999999999 318.2193673411729 L 15.424 318.2193673411729 L 15.424 324.6193673411729 Z M 16.196 323.2073673411729 C 16.188000000000002 322.77803400783955, 16.182666666666666 322.3613673411729, 16.18 321.9573673411729 C 16.177333333333333 321.55336734117293, 16.177999999999997 321.15803400783955, 16.182 320.7713673411729 C 16.186 320.38470067450623, 16.190666666666665 320.0033673411729, 16.196 319.6273673411729 C 16.209333333333333 319.1873673411729, 16.334000000000003 318.8420340078396, 16.57 318.5913673411729 C 16.805999999999997 318.34070067450625, 17.142666666666663 318.1953673411729, 17.58 318.1553673411729 L 17.58 319.0433673411729 C 17.382666666666665 319.09936734117287, 17.281333333333333 319.22870067450623, 17.276 319.4313673411729 C 17.262666666666668 319.80203400783955, 17.253333333333334 320.15003400783957, 17.248 320.4753673411729 C 17.242666666666665 320.80070067450623, 17.24 321.1173673411729, 17.24 321.4253673411729 C 17.24 321.7333673411729, 17.242666666666665 322.04803400783953, 17.248 322.3693673411729 C 17.253333333333334 322.6907006745063, 17.262666666666668 323.0340340078396, 17.276 323.3993673411729 C 17.281333333333333 323.6073673411729, 17.382666666666665 323.7393673411729, 17.58 323.7953673411729 L 17.58 324.6833673411729 C 17.142666666666663 324.6433673411729, 16.805999999999997 324.4973673411729, 16.57 324.2453673411729 C 16.334000000000003 323.99336734117287, 16.209333333333333 323.64736734117287, 16.196 323.2073673411729 Z M 18.084 324.6833673411729 L 18.084 323.79136734117293 C 18.268 323.7380340078396, 18.366666666666667 323.61403400783956, 18.38 323.4193673411729 C 18.398666666666667 322.9527006745063, 18.410666666666668 322.5040340078396, 18.416 322.0733673411729 C 18.421333333333333 321.6427006745062, 18.421333333333333 321.2120340078395, 18.416 320.7813673411729 C 18.410666666666668 320.35070067450624, 18.398666666666667 319.89803400783956, 18.38 319.4233673411729 C 18.374666666666666 319.22870067450623, 18.276 319.10203400783956, 18.084 319.0433673411729 L 18.084 318.1553673411729 C 18.513333333333335 318.1953673411729, 18.846666666666668 318.34070067450625, 19.084 318.5913673411729 C 19.321333333333335 318.8420340078396, 19.445333333333334 319.1873673411729, 19.456 319.6273673411729 C 19.46666666666667 319.9420340078396, 19.474666666666668 320.2520340078396, 19.48 320.5573673411729 C 19.485333333333333 320.86270067450624, 19.488 321.16336734117294, 19.488 321.4593673411729 C 19.488 321.7553673411729, 19.485333333333333 322.0487006745062, 19.48 322.33936734117293 C 19.474666666666668 322.6300340078396, 19.46666666666667 322.9193673411729, 19.456 323.2073673411729 C 19.439999999999998 323.65803400783955, 19.311999999999998 324.00670067450625, 19.072 324.2533673411729 C 18.832 324.5000340078396, 18.502666666666666 324.6433673411729, 18.084 324.6833673411729 Z M 21.944 324.6193673411729 L 21.944 318.2193673411729 L 23.003999999999998 318.2193673411729 L 23.003999999999998 324.6193673411729 Z " stroke="none" fill-rule="nonzero" fill="#000000" fill-opacity="1" transform="matrix(1,0,0,1,5.05,13.314)" id="text10 l" />
  <path d="M 0 317.5088831576436 L 10 317.5088831576436 L 10 319.0088831576436 L 0 319.0088831576436 Z " stroke="none" fill-rule="evenodd" fill="#000000" fill-opacity="1" transform="matrix(1,0,0,1,5.05,13.314)" id="mark11 l" />
  <path d="M 0 309.3483989741143 L 10 309.3483989741143 L 10 310.8483989741143 L 0 310.8483989741143 Z " stroke="none" fill-rule="evenodd" fill="#000000" fill-opacity="1" transform="matrix(1,0,0,1,5.05,13.314)" id="mark12 l" />
  <path d="M 0 301.18791479058495 L 10 301.18791479058495 L 10 302.68791479058495 L 0 302.68791479058495 Z " stroke="none" fill-rule="evenodd" fill="#000000" fill-opacity="1" transform="matrix(1,0,0,1,5.05,13.314)" id="mark13 l" />
  <path d="M 0 293.02743060705563 L 10 293.02743060705563 L 10 294.52743060705563 L 0 294.52743060705563 Z " stroke="none" fill-rule="evenodd" fill="#000000" fill-opacity="1" transform="matrix(1,0,0,1,5.05,13.314)" id="mark14 l" />
  <path d="M 0 284.8669464235263 L 25 284.8669464235263 L 25 286.3669464235263 L 0 286.3669464235263 Z " stroke="none" fill-rule="evenodd" fill="#000000" fill-opacity="1" transform="matrix(1,0,0,1,5.05,13.314)" id="mark15 l" />
  <path d="M 14.331999999999999 283.7849464235263 L 14.331999999999999 278.3409464235263 L 13.879999999999999 278.3409464235263 L 13.847999999999999 277.9609464235263 L 14.552 277.38494642352634 L 15.432 277.38494642352634 L 15.432 283.7849464235263 Z M 16.18 282.3689464235263 C 16.174666666666667 282.195613090193, 16.173333333333332 282.0562797568597, 16.176 281.9509464235263 C 16.178666666666665 281.84561309019296, 16.181333333333335 281.743613090193, 16.183999999999997 281.64494642352633 L 17.264 281.64494642352633 C 17.256 281.7222797568596, 17.25 281.8182797568596, 17.246 281.93294642352635 C 17.241999999999997 282.04761309019295, 17.240666666666666 282.15827975685966, 17.241999999999997 282.26494642352634 C 17.243333333333332 282.37161309019297, 17.246666666666666 282.451613090193, 17.252 282.50494642352635 C 17.262666666666668 282.6249464235263, 17.297333333333334 282.7229464235263, 17.355999999999998 282.79894642352633 C 17.414666666666665 282.8749464235263, 17.497333333333334 282.9289464235263, 17.604 282.9609464235263 L 17.604 283.8529464235263 C 17.110666666666663 283.815613090193, 16.75333333333333 283.68094642352634, 16.532 283.4489464235263 C 16.310666666666666 283.2169464235263, 16.19333333333333 282.8569464235263, 16.18 282.3689464235263 Z M 16.279999999999998 281.0329464235263 L 16.279999999999998 277.38494642352634 L 17.348 277.38494642352634 L 17.348 281.0329464235263 Z M 17.852 280.60894642352633 L 17.852 279.8529464235263 C 17.929333333333332 279.8129464235263, 18.014666666666667 279.7809464235263, 18.107999999999997 279.7569464235263 C 18.20133333333333 279.7329464235263, 18.301333333333332 279.7209464235263, 18.407999999999998 279.7209464235263 C 18.773333333333333 279.7209464235263, 19.047333333333334 279.83627975685965, 19.23 280.0669464235263 C 19.412666666666667 280.29761309019295, 19.514666666666663 280.611613090193, 19.535999999999998 281.0089464235263 C 19.546666666666667 281.16894642352634, 19.55333333333333 281.327613090193, 19.555999999999997 281.4849464235263 C 19.558666666666664 281.64227975685964, 19.557333333333332 281.795613090193, 19.552 281.94494642352635 C 19.546666666666667 282.0942797568597, 19.538666666666668 282.2342797568597, 19.528 282.3649464235263 C 19.482666666666667 282.863613090193, 19.353333333333335 283.2289464235263, 19.14 283.4609464235263 C 18.926666666666666 283.69294642352634, 18.581333333333333 283.823613090193, 18.104 283.8529464235263 L 18.104 282.9609464235263 C 18.21333333333333 282.93161309019297, 18.296 282.8789464235263, 18.352 282.8029464235263 C 18.408 282.72694642352633, 18.44 282.627613090193, 18.448 282.50494642352635 C 18.471999999999998 282.21427975685964, 18.485999999999997 281.9529464235263, 18.49 281.7209464235263 C 18.494 281.48894642352633, 18.485333333333333 281.267613090193, 18.464 281.0569464235263 C 18.447999999999997 280.9022797568597, 18.396666666666665 280.78694642352633, 18.31 280.7109464235263 C 18.223333333333333 280.63494642352634, 18.090666666666664 280.59694642352633, 17.912 280.59694642352633 C 17.901333333333334 280.59694642352633, 17.890666666666668 280.59827975685965, 17.88 280.6009464235263 C 17.86933333333333 280.603613090193, 17.86 280.60627975685964, 17.852 280.60894642352633 Z M 17.852 278.3169464235263 L 17.852 277.38494642352634 L 19.439999999999998 277.38494642352634 L 19.439999999999998 278.3169464235263 Z M 21.944 283.7849464235263 L 21.944 277.38494642352634 L 23.003999999999998 277.38494642352634 L 23.003999999999998 283.7849464235263 Z " stroke="none" fill-rule="nonzero" fill="#000000" fill-opacity="1" transform="matrix(1,0,0,1,5.05,13.314)" id="text15 l" />
  <path d="M 0 276.706462239997 L 10 276.706462239997 L 10 278.206462239997 L 0 278.206462239997 Z " stroke="none" fill-rule="evenodd" fill="#000000" fill-opacity="1" transform="matrix(1,0,0,1,5.05,13.314)" id="mark16 l" />
  <path d="M 0 268.5459780564677 L 10 268.5459780564677 L 10 270.0459780564677 L 0 270.0459780564677 Z " stroke="none" fill-rule="evenodd" fill="#000000" fill-opacity="1" transform="matrix(1,0,0,1,5.05,13.314)" id="mark17 l" />
  <path d="M 0 260.38549387293835 L 10 260.38549387293835 L 10 261.88549387293835 L 0 261.88549387293835 Z " stroke="none" fill-rule="evenodd" fill="#000000" fill-opacity="1" transform="matrix(1,0,0,1,5.05,13.314)" id="mark18 l" />
  <path d="M 0 252.22500968940903 L 10 252.22500968940903 L 10 253.72500968940903 L 0 253.72500968940903 Z " stroke="none" fill-rule="evenodd" fill="#000000" fill-opacity="1" transform="matrix(1,0,0,1,5.05,13.314)" id="mark19 l" />
  <path d="M 0 244.06452550587971 L 25 244.06452550587971 L 25 245.56452550587971 L 0 245.56452550587971 Z " stroke="none" fill-rule="evenodd" fill="#000000" fill-opacity="1" transform="matrix(1,0,0,1,5.05,13.314)" id="mark20 l" />
  <path d="M 12.319999999999999 243.01452550587973 C 12.317333333333334 242.91585883921306, 12.315333333333331 242.8271921725464, 12.313999999999998 242.74852550587974 C 12.312666666666665 242.66985883921308, 12.311333333333334 242.59585883921307, 12.309999999999999 242.52652550587973 C 12.308666666666667 242.4571921725464, 12.308 242.3851921725464, 12.308 242.31052550587972 C 12.308 242.23585883921305, 12.308 242.15119217254642, 12.308 242.05652550587973 C 12.308 241.96185883921305, 12.309333333333335 241.85052550587972, 12.312 241.72252550587973 C 12.32 241.42919217254638, 12.37 241.16719217254638, 12.462 240.93652550587973 C 12.554 240.70585883921308, 12.687999999999999 240.49985883921306, 12.863999999999999 240.31852550587973 C 13.04 240.1371921725464, 13.257333333333333 239.97585883921306, 13.515999999999998 239.83452550587972 L 14.047999999999998 239.54652550587974 C 14.234666666666666 239.4451921725464, 14.354 239.32319217254638, 14.405999999999999 239.18052550587973 C 14.457999999999998 239.03785883921307, 14.488 238.90385883921306, 14.495999999999999 238.77852550587974 C 14.506666666666664 238.63185883921307, 14.512666666666664 238.47519217254643, 14.514 238.30852550587974 C 14.51533333333333 238.14185883921306, 14.511999999999997 237.98519217254642, 14.504 237.83852550587974 C 14.498666666666665 237.73452550587973, 14.468666666666666 237.64852550587975, 14.413999999999998 237.58052550587973 C 14.359333333333332 237.51252550587972, 14.279999999999998 237.46385883921306, 14.175999999999998 237.43452550587972 L 14.175999999999998 236.54652550587974 C 14.663999999999998 236.57852550587972, 15.014 236.70985883921307, 15.225999999999999 236.94052550587972 C 15.437999999999999 237.1711921725464, 15.554666666666666 237.53185883921307, 15.575999999999999 238.02252550587974 C 15.578666666666663 238.08652550587973, 15.580666666666666 238.15185883921305, 15.581999999999999 238.21852550587974 C 15.583333333333332 238.28519217254637, 15.584 238.34985883921306, 15.584 238.41252550587973 C 15.584 238.4751921725464, 15.583333333333332 238.53719217254638, 15.581999999999999 238.59852550587973 C 15.580666666666666 238.65985883921303, 15.578666666666663 238.71985883921303, 15.575999999999999 238.77852550587974 C 15.565333333333331 239.06385883921308, 15.512 239.31052550587975, 15.415999999999999 239.51852550587972 C 15.32 239.72652550587975, 15.19 239.90652550587976, 15.026 240.05852550587974 C 14.862 240.21052550587973, 14.672 240.34652550587975, 14.456 240.46652550587973 L 13.851999999999999 240.79452550587973 C 13.737333333333332 240.85585883921306, 13.647333333333332 240.93985883921306, 13.581999999999999 241.04652550587974 C 13.516666666666666 241.15319217254643, 13.469999999999999 241.26652550587974, 13.441999999999998 241.38652550587972 C 13.413999999999998 241.50652550587972, 13.399999999999999 241.61852550587975, 13.399999999999999 241.72252550587973 L 13.399999999999999 243.01452550587973 Z M 12.328 238.97452550587974 C 12.322666666666667 238.85719217254638, 12.318666666666665 238.7425255058797, 12.315999999999999 238.63052550587975 C 12.313333333333333 238.51852550587972, 12.311333333333334 238.41252550587973, 12.309999999999999 238.31252550587973 C 12.308666666666667 238.21252550587974, 12.309333333333335 238.11585883921308, 12.312 238.02252550587974 C 12.330666666666666 237.53452550587974, 12.447333333333333 237.17519217254642, 12.661999999999999 236.94452550587974 C 12.876666666666665 236.71385883921306, 13.213333333333331 236.58119217254642, 13.671999999999999 236.54652550587974 L 13.671999999999999 237.43852550587974 C 13.576 237.46785883921308, 13.505333333333333 237.5145255058797, 13.459999999999999 237.57852550587972 C 13.414666666666665 237.64252550587975, 13.390666666666664 237.7198588392131, 13.387999999999998 237.81052550587972 C 13.382666666666665 238.01852550587972, 13.379333333333333 238.21185883921305, 13.378 238.39052550587974 C 13.376666666666667 238.56919217254642, 13.381333333333334 238.76385883921307, 13.392 238.97452550587974 Z M 13.904 243.01452550587973 L 13.904 242.08252550587974 L 15.5 242.08252550587974 L 15.5 243.01452550587973 Z M 16.196 241.60252550587973 C 16.188000000000002 241.17319217254638, 16.182666666666666 240.75652550587972, 16.18 240.35252550587973 C 16.177333333333333 239.94852550587973, 16.177999999999997 239.5531921725464, 16.182 239.16652550587972 C 16.186 238.7798588392131, 16.190666666666665 238.39852550587975, 16.196 238.02252550587974 C 16.209333333333333 237.58252550587974, 16.334000000000003 237.23719217254643, 16.57 236.98652550587974 C 16.805999999999997 236.73585883921305, 17.142666666666663 236.59052550587973, 17.58 236.55052550587973 L 17.58 237.43852550587974 C 17.382666666666665 237.49452550587972, 17.281333333333333 237.62385883921309, 17.276 237.82652550587974 C 17.262666666666668 238.1971921725464, 17.253333333333334 238.54519217254636, 17.248 238.87052550587973 C 17.242666666666665 239.19585883921303, 17.24 239.51252550587972, 17.24 239.82052550587974 C 17.24 240.12852550587974, 17.242666666666665 240.4431921725464, 17.248 240.76452550587973 C 17.253333333333334 241.08585883921307, 17.262666666666668 241.42919217254638, 17.276 241.79452550587973 C 17.281333333333333 242.00252550587976, 17.382666666666665 242.13452550587974, 17.58 242.19052550587972 L 17.58 243.07852550587972 C 17.142666666666663 243.0385255058797, 16.805999999999997 242.89252550587972, 16.57 242.64052550587974 C 16.334000000000003 242.38852550587973, 16.209333333333333 242.04252550587972, 16.196 241.60252550587973 Z M 18.084 243.07852550587972 L 18.084 242.18652550587973 C 18.268 242.1331921725464, 18.366666666666667 242.00919217254642, 18.38 241.81452550587974 C 18.398666666666667 241.34785883921307, 18.410666666666668 240.8991921725464, 18.416 240.46852550587974 C 18.421333333333333 240.03785883921307, 18.421333333333333 239.60719217254638, 18.416 239.17652550587974 C 18.410666666666668 238.74585883921304, 18.398666666666667 238.2931921725464, 18.38 237.81852550587973 C 18.374666666666666 237.62385883921309, 18.276 237.49719217254642, 18.084 237.43852550587974 L 18.084 236.55052550587973 C 18.513333333333335 236.59052550587973, 18.846666666666668 236.73585883921305, 19.084 236.98652550587974 C 19.321333333333335 237.23719217254643, 19.445333333333334 237.58252550587974, 19.456 238.02252550587974 C 19.46666666666667 238.3371921725464, 19.474666666666668 238.6471921725464, 19.48 238.95252550587972 C 19.485333333333333 239.25785883921304, 19.488 239.55852550587974, 19.488 239.85452550587974 C 19.488 240.15052550587973, 19.485333333333333 240.44385883921305, 19.48 240.73452550587973 C 19.474666666666668 241.0251921725464, 19.46666666666667 241.31452550587974, 19.456 241.60252550587973 C 19.439999999999998 242.0531921725464, 19.311999999999998 242.40185883921305, 19.072 242.64852550587972 C 18.832 242.8951921725464, 18.502666666666666 243.0385255058797, 18.084 243.07852550587972 Z M 21.944 243.01452550587973 L 21.944 236.61452550587973 L 23.003999999999998 236.61452550587973 L 23.003999999999998 243.01452550587973 Z " stroke="none" fill-rule="nonzero" fill="#000000" fill-opacity="1" transform="matrix(1,0,0,1,5.05,13.314)" id="text20 l" />
  <path d="M 0 235.90404132235037 L 10 235.90404132235037 L 10 237.40404132235037 L 0 237.40404132235037 Z " stroke="none" fill-rule="evenodd" fill="#000000" fill-opacity="1" transform="matrix(1,0,0,1,5.05,13.314)" id="mark21 l" />
  <path d="M 0 227.74355713882105 L 10 227.74355713882105 L 10 229.24355713882105 L 0 229.24355713882105 Z " stroke="none" fill-rule="evenodd" fill="#000000" fill-opacity="1" transform="matrix(1,0,0,1,5.05,13.314)" id="mark22 l" />
  <path d="M 0 219.58307295529173 L 10 219.58307295529173 L 10 221.08307295529173 L 0 221.08307295529173 Z " stroke="none" fill-rule="evenodd" fill="#000000" fill-opacity="1" transform="matrix(1,0,0,1,5.05,13.314)" id="mark23 l" />
  <path d="M 0 211.4225887717624 L 10 211.4225887717624 L 10 212.9225887717624 L 0 212.9225887717624 Z " stroke="none" fill-rule="evenodd" fill="#000000" fill-opacity="1" transform="matrix(1,0,0,1,5.05,13.314)" id="mark24 l" />
  <path d="M 0 203.2621045882331 L 25 203.2621045882331 L 25 204.7621045882331 L 0 204.7621045882331 Z " stroke="none" fill-rule="evenodd" fill="#000000" fill-opacity="1" transform="matrix(1,0,0,1,5.05,13.314)" id="mark25 l" />
  <path d="M 12.328 202.2121045882331 C 12.325333333333333 202.11343792156643, 12.323333333333332 202.02477125489975, 12.322 201.9461045882331 C 12.320666666666666 201.86743792156642, 12.319333333333333 201.79343792156644, 12.318 201.7241045882331 C 12.316666666666666 201.65477125489977, 12.315999999999999 201.58277125489977, 12.316 201.5081045882331 C 12.315999999999999 201.43343792156642, 12.315999999999999 201.34877125489976, 12.316 201.2541045882331 C 12.315999999999999 201.15943792156645, 12.317333333333334 201.04810458823312, 12.32 200.9201045882331 C 12.328 200.62677125489978, 12.378 200.36477125489978, 12.47 200.1341045882331 C 12.562000000000001 199.90343792156642, 12.696 199.6974379215664, 12.872 199.5161045882331 C 13.048 199.33477125489975, 13.265333333333334 199.17343792156643, 13.524000000000001 199.0321045882331 L 14.056000000000001 198.7441045882331 C 14.242666666666668 198.6427712548998, 14.362000000000002 198.52077125489978, 14.414 198.3781045882331 C 14.466000000000001 198.23543792156642, 14.495999999999999 198.10143792156646, 14.504 197.9761045882331 C 14.514666666666667 197.82943792156647, 14.520666666666667 197.67277125489977, 14.522 197.50610458823311 C 14.523333333333333 197.33943792156646, 14.520000000000001 197.18277125489976, 14.512 197.03610458823312 C 14.506666666666666 196.93210458823313, 14.476666666666667 196.84610458823312, 14.422 196.7781045882331 C 14.367333333333335 196.7101045882331, 14.288 196.66143792156646, 14.184000000000001 196.6321045882331 L 14.184000000000001 195.7441045882331 C 14.672 195.77610458823312, 15.022000000000002 195.90743792156644, 15.234 196.1381045882331 C 15.446000000000002 196.36877125489974, 15.562666666666667 196.72943792156644, 15.584 197.2201045882331 C 15.586666666666668 197.2841045882331, 15.588666666666668 197.34943792156645, 15.59 197.4161045882331 C 15.591333333333335 197.48277125489977, 15.592000000000002 197.54743792156643, 15.592 197.6101045882331 C 15.592000000000002 197.67277125489977, 15.591333333333335 197.73477125489978, 15.59 197.7961045882331 C 15.588666666666668 197.85743792156643, 15.586666666666668 197.91743792156643, 15.584 197.9761045882331 C 15.573333333333332 198.26143792156643, 15.52 198.5081045882331, 15.424 198.7161045882331 C 15.328 198.9241045882331, 15.197999999999999 199.1041045882331, 15.033999999999999 199.25610458823311 C 14.87 199.4081045882331, 14.68 199.5441045882331, 14.464 199.6641045882331 L 13.86 199.9921045882331 C 13.745333333333335 200.05343792156646, 13.655333333333335 200.13743792156646, 13.59 200.2441045882331 C 13.524666666666668 200.35077125489977, 13.478000000000002 200.4641045882331, 13.45 200.58410458823312 C 13.422 200.7041045882331, 13.408 200.8161045882331, 13.408 200.9201045882331 L 13.408 202.2121045882331 Z M 12.336 198.1721045882331 C 12.330666666666666 198.05477125489978, 12.326666666666664 197.9401045882331, 12.324 197.8281045882331 C 12.321333333333332 197.71610458823312, 12.319333333333333 197.61010458823313, 12.318 197.5101045882331 C 12.316666666666666 197.41010458823308, 12.317333333333334 197.31343792156645, 12.32 197.2201045882331 C 12.338666666666668 196.73210458823308, 12.455333333333336 196.37277125489976, 12.67 196.1421045882331 C 12.884666666666668 195.91143792156646, 13.221333333333334 195.77877125489977, 13.68 195.7441045882331 L 13.68 196.6361045882331 C 13.584 196.66543792156642, 13.513333333333332 196.7121045882331, 13.468 196.7761045882331 C 13.422666666666668 196.8401045882331, 13.398666666666667 196.91743792156643, 13.396 197.0081045882331 C 13.390666666666666 197.2161045882331, 13.387333333333332 197.40943792156645, 13.386 197.5881045882331 C 13.384666666666666 197.76677125489977, 13.389333333333333 197.96143792156644, 13.4 198.1721045882331 Z M 13.911999999999999 202.2121045882331 L 13.911999999999999 201.28010458823312 L 15.508 201.28010458823312 L 15.508 202.2121045882331 Z M 16.18 200.7961045882331 C 16.174666666666667 200.62277125489976, 16.173333333333332 200.48343792156643, 16.176 200.3781045882331 C 16.178666666666665 200.27277125489977, 16.181333333333335 200.17077125489976, 16.183999999999997 200.07210458823312 L 17.264 200.07210458823312 C 17.256 200.14943792156646, 17.25 200.24543792156643, 17.246 200.3601045882331 C 17.241999999999997 200.47477125489976, 17.240666666666666 200.58543792156644, 17.241999999999997 200.6921045882331 C 17.243333333333332 200.79877125489975, 17.246666666666666 200.8787712548998, 17.252 200.9321045882331 C 17.262666666666668 201.05210458823314, 17.297333333333334 201.15010458823312, 17.355999999999998 201.2261045882331 C 17.414666666666665 201.3021045882331, 17.497333333333334 201.3561045882331, 17.604 201.3881045882331 L 17.604 202.28010458823312 C 17.110666666666663 202.24277125489976, 16.75333333333333 202.10810458823312, 16.532 201.8761045882331 C 16.310666666666666 201.64410458823312, 16.19333333333333 201.2841045882331, 16.18 200.7961045882331 Z M 16.279999999999998 199.4601045882331 L 16.279999999999998 195.8121045882331 L 17.348 195.8121045882331 L 17.348 199.4601045882331 Z M 17.852 199.03610458823312 L 17.852 198.28010458823312 C 17.929333333333332 198.24010458823312, 18.014666666666667 198.20810458823314, 18.107999999999997 198.1841045882331 C 18.20133333333333 198.16010458823314, 18.301333333333332 198.14810458823314, 18.407999999999998 198.1481045882331 C 18.773333333333333 198.14810458823314, 19.047333333333334 198.26343792156644, 19.23 198.4941045882331 C 19.412666666666667 198.72477125489974, 19.514666666666663 199.03877125489976, 19.535999999999998 199.4361045882331 C 19.546666666666667 199.59610458823312, 19.55333333333333 199.75477125489977, 19.555999999999997 199.9121045882331 C 19.558666666666664 200.06943792156642, 19.557333333333332 200.22277125489978, 19.552 200.3721045882331 C 19.546666666666667 200.52143792156642, 19.538666666666668 200.66143792156643, 19.528 200.79210458823312 C 19.482666666666667 201.29077125489977, 19.353333333333335 201.6561045882331, 19.14 201.8881045882331 C 18.926666666666666 202.1201045882331, 18.581333333333333 202.25077125489975, 18.104 202.28010458823312 L 18.104 201.3881045882331 C 18.21333333333333 201.35877125489975, 18.296 201.3061045882331, 18.352 201.2301045882331 C 18.408 201.1541045882331, 18.44 201.05477125489978, 18.448 200.9321045882331 C 18.471999999999998 200.64143792156642, 18.485999999999997 200.3801045882331, 18.49 200.1481045882331 C 18.494 199.9161045882331, 18.485333333333333 199.69477125489976, 18.464 199.4841045882331 C 18.447999999999997 199.32943792156644, 18.396666666666665 199.2141045882331, 18.31 199.1381045882331 C 18.223333333333333 199.06210458823313, 18.090666666666664 199.02410458823312, 17.912 199.02410458823312 C 17.901333333333334 199.02410458823312, 17.890666666666668 199.02543792156644, 17.88 199.0281045882331 C 17.86933333333333 199.03077125489978, 17.86 199.03343792156642, 17.852 199.03610458823312 Z M 17.852 196.7441045882331 L 17.852 195.8121045882331 L 19.439999999999998 195.8121045882331 L 19.439999999999998 196.7441045882331 Z M 21.944 202.2121045882331 L 21.944 195.8121045882331 L 23.003999999999998 195.8121045882331 L 23.003999999999998 202.2121045882331 Z " stroke="none" fill-rule="nonzero" fill="#000000" fill-opacity="1" transform="matrix(1,0,0,1,5.05,13.314)" id="text25 l" />
  <path d="M 0 195.10162040470377 L 10 195.10162040470377 L 10 196.60162040470377 L 0 196.60162040470377 Z " stroke="none" fill-rule="evenodd" fill="#000000" fill-opacity="1" transform="matrix(1,0,0,1,5.05,13.314)" id="mark26 l" />
  <path d="M 0 186.94113622117445 L 10 186.94113622117445 L 10 188.44113622117445 L 0 188.44113622117445 Z " stroke="none" fill-rule="evenodd" fill="#000000" fill-opacity="1" transform="matrix(1,0,0,1,5.05,13.314)" id="mark27 l" />
  <path d="M 0 178.78065203764513 L 10 178.78065203764513 L 10 180.28065203764513 L 0 180.28065203764513 Z " stroke="none" fill-rule="evenodd" fill="#000000" fill-opacity="1" transform="matrix(1,0,0,1,5.05,13.314)" id="mark28 l" />
  <path d="M 0 170.6201678541158 L 10 170.6201678541158 L 10 172.1201678541158 L 0 172.1201678541158 Z " stroke="none" fill-rule="evenodd" fill="#000000" fill-opacity="1" transform="matrix(1,0,0,1,5.05,13.314)" id="mark29 l" />
  <path d="M 0 162.45968367058646 L 25 162.45968367058646 L 25 163.95968367058646 L 0 163.95968367058646 Z " stroke="none" fill-rule="evenodd" fill="#000000" fill-opacity="1" transform="matrix(1,0,0,1,5.05,13.314)" id="mark30 l" />
  <path d="M 12.223999999999998 159.99368367058648 C 12.221333333333334 159.89235033725313, 12.219333333333333 159.80835033725313, 12.218 159.74168367058647 C 12.216666666666667 159.6750170039198, 12.216666666666667 159.60701700391982, 12.218 159.5376836705865 C 12.219333333333333 159.46835033725316, 12.221333333333334 159.3790170039198, 12.223999999999998 159.2696836705865 L 13.303999999999998 159.2696836705865 L 13.303999999999998 160.13368367058646 C 13.303999999999998 160.3710170039198, 13.417333333333332 160.52168367058647, 13.643999999999998 160.58568367058646 L 13.643999999999998 161.4776836705865 C 13.155999999999999 161.44035033725314, 12.800666666666665 161.30568367058646, 12.578 161.07368367058646 C 12.355333333333334 160.84168367058646, 12.237333333333332 160.48168367058648, 12.223999999999998 159.99368367058648 Z M 12.292 155.94168367058649 L 12.292 155.00968367058647 L 15.536 155.00968367058647 L 15.536 155.94168367058649 Z M 14.143999999999998 160.58968367058648 C 14.367999999999999 160.53368367058647, 14.483999999999998 160.3830170039198, 14.491999999999999 160.13768367058648 C 14.497333333333334 159.93501700391982, 14.500666666666666 159.75235033725315, 14.501999999999999 159.58968367058648 C 14.503333333333332 159.42701700391981, 14.498666666666665 159.26968367058646, 14.488 159.11768367058647 C 14.48 158.96035033725315, 14.431999999999999 158.82701700391982, 14.344 158.71768367058647 C 14.256 158.60835033725314, 14.089333333333332 158.55635033725315, 13.844 158.56168367058646 L 13.096 158.56968367058647 L 13.068 157.67768367058648 L 14.027999999999999 156.29368367058646 L 15.216 156.29368367058646 L 14.248 157.64568367058646 L 14.28 157.64568367058646 C 14.712 157.64568367058646, 15.028666666666666 157.76835033725314, 15.229999999999999 158.0136836705865 C 15.431333333333333 158.25901700391984, 15.544 158.63635033725313, 15.568 159.14568367058646 C 15.57333333333333 159.21768367058647, 15.576666666666664 159.28968367058647, 15.578 159.36168367058647 C 15.57933333333333 159.43368367058648, 15.579999999999998 159.50435033725313, 15.579999999999998 159.57368367058646 C 15.579999999999998 159.6430170039198, 15.57933333333333 159.71235033725313, 15.578 159.78168367058646 C 15.576666666666664 159.8510170039198, 15.57333333333333 159.92168367058648, 15.568 159.99368367058648 C 15.549333333333333 160.4896836705865, 15.428666666666665 160.85435033725315, 15.206 161.08768367058647 C 14.983333333333334 161.3210170039198, 14.630666666666666 161.45101700391982, 14.148 161.4776836705865 Z M 16.196 159.99768367058647 C 16.188000000000002 159.56835033725312, 16.182666666666666 159.15168367058646, 16.18 158.74768367058647 C 16.177333333333333 158.34368367058647, 16.177999999999997 157.94835033725315, 16.182 157.56168367058646 C 16.186 157.1750170039198, 16.190666666666665 156.7936836705865, 16.196 156.41768367058648 C 16.209333333333333 155.9776836705865, 16.334000000000003 155.63235033725314, 16.57 155.38168367058648 C 16.805999999999997 155.13101700391982, 17.142666666666663 154.98568367058647, 17.58 154.94568367058648 L 17.58 155.83368367058648 C 17.382666666666665 155.8896836705865, 17.281333333333333 156.01901700391983, 17.276 156.2216836705865 C 17.262666666666668 156.59235033725315, 17.253333333333334 156.94035033725314, 17.248 157.26568367058647 C 17.242666666666665 157.5910170039198, 17.24 157.90768367058647, 17.24 158.2156836705865 C 17.24 158.52368367058648, 17.242666666666665 158.83835033725313, 17.248 159.15968367058647 C 17.253333333333334 159.48101700391982, 17.262666666666668 159.82435033725315, 17.276 160.18968367058648 C 17.281333333333333 160.39768367058647, 17.382666666666665 160.52968367058648, 17.58 160.58568367058646 L 17.58 161.47368367058647 C 17.142666666666663 161.43368367058648, 16.805999999999997 161.28768367058646, 16.57 161.03568367058648 C 16.334000000000003 160.78368367058647, 16.209333333333333 160.43768367058647, 16.196 159.99768367058647 Z M 18.084 161.47368367058647 L 18.084 160.58168367058647 C 18.268 160.52835033725313, 18.366666666666667 160.40435033725316, 18.38 160.2096836705865 C 18.398666666666667 159.74301700391982, 18.410666666666668 159.29435033725315, 18.416 158.86368367058648 C 18.421333333333333 158.43301700391982, 18.421333333333333 158.00235033725312, 18.416 157.57168367058648 C 18.410666666666668 157.14101700391979, 18.398666666666667 156.68835033725313, 18.38 156.21368367058648 C 18.374666666666666 156.0190170039198, 18.276 155.89235033725313, 18.084 155.83368367058648 L 18.084 154.94568367058648 C 18.513333333333335 154.98568367058647, 18.846666666666668 155.13101700391982, 19.084 155.38168367058648 C 19.321333333333335 155.63235033725314, 19.445333333333334 155.9776836705865, 19.456 156.41768367058648 C 19.46666666666667 156.73235033725314, 19.474666666666668 157.04235033725314, 19.48 157.34768367058646 C 19.485333333333333 157.65301700391979, 19.488 157.95368367058649, 19.488 158.24968367058648 C 19.488 158.54568367058647, 19.485333333333333 158.8390170039198, 19.48 159.12968367058647 C 19.474666666666668 159.42035033725315, 19.46666666666667 159.7096836705865, 19.456 159.99768367058647 C 19.439999999999998 160.44835033725315, 19.311999999999998 160.7970170039198, 19.072 161.04368367058646 C 18.832 161.29035033725313, 18.502666666666666 161.43368367058648, 18.084 161.47368367058647 Z M 21.944 161.40968367058647 L 21.944 155.00968367058647 L 23.003999999999998 155.00968367058647 L 23.003999999999998 161.40968367058647 Z " stroke="none" fill-rule="nonzero" fill="#000000" fill-opacity="1" transform="matrix(1,0,0,1,5.05,13.314)" id="text30 l" />
  <path d="M 0 154.29919948705714 L 10 154.29919948705714 L 10 155.79919948705714 L 0 155.79919948705714 Z " stroke="none" fill-rule="evenodd" fill="#000000" fill-opacity="1" transform="matrix(1,0,0,1,5.05,13.314)" id="mark31 l" />
  <path d="M 0 146.13871530352782 L 10 146.13871530352782 L 10 147.63871530352782 L 0 147.63871530352782 Z " stroke="none" fill-rule="evenodd" fill="#000000" fill-opacity="1" transform="matrix(1,0,0,1,5.05,13.314)" id="mark32 l" />
  <path d="M 0 137.9782311199985 L 10 137.9782311199985 L 10 139.4782311199985 L 0 139.4782311199985 Z " stroke="none" fill-rule="evenodd" fill="#000000" fill-opacity="1" transform="matrix(1,0,0,1,5.05,13.314)" id="mark33 l" />
  <path d="M 0 129.81774693646918 L 10 129.81774693646918 L 10 131.31774693646918 L 0 131.31774693646918 Z " stroke="none" fill-rule="evenodd" fill="#000000" fill-opacity="1" transform="matrix(1,0,0,1,5.05,13.314)" id="mark34 l" />
  <path d="M 0 121.65726275293986 L 25 121.65726275293986 L 25 123.15726275293986 L 0 123.15726275293986 Z " stroke="none" fill-rule="evenodd" fill="#000000" fill-opacity="1" transform="matrix(1,0,0,1,5.05,13.314)" id="mark35 l" />
  <path d="M 12.232 119.15926275293987 C 12.229333333333333 119.05792941960652, 12.227333333333334 118.97392941960652, 12.226 118.90726275293986 C 12.224666666666668 118.8405960862732, 12.224666666666668 118.77259608627318, 12.226 118.70326275293986 C 12.227333333333334 118.63392941960652, 12.229333333333333 118.5445960862732, 12.232 118.43526275293986 L 13.312 118.43526275293986 L 13.312 119.29926275293987 C 13.312 119.53659608627319, 13.425333333333333 119.68726275293986, 13.652 119.75126275293987 L 13.652 120.64326275293986 C 13.164 120.60592941960653, 12.808666666666667 120.47126275293985, 12.586 120.23926275293987 C 12.363333333333333 120.00726275293985, 12.245333333333335 119.64726275293987, 12.232 119.15926275293987 Z M 12.3 115.10726275293986 L 12.3 114.17526275293986 L 15.544 114.17526275293986 L 15.544 115.10726275293986 Z M 14.152000000000001 119.75526275293987 C 14.376000000000001 119.69926275293986, 14.492 119.5485960862732, 14.5 119.30326275293986 C 14.505333333333333 119.10059608627321, 14.508666666666667 118.91792941960654, 14.51 118.75526275293987 C 14.511333333333333 118.5925960862732, 14.506666666666668 118.43526275293988, 14.496 118.28326275293986 C 14.488 118.12592941960654, 14.440000000000001 117.9925960862732, 14.352 117.88326275293986 C 14.264 117.77392941960653, 14.097333333333335 117.72192941960654, 13.852 117.72726275293986 L 13.104 117.73526275293986 L 13.076 116.84326275293986 L 14.036 115.45926275293986 L 15.224 115.45926275293986 L 14.256 116.81126275293987 L 14.288 116.81126275293987 C 14.719999999999999 116.81126275293987, 15.036666666666665 116.93392941960653, 15.238 117.17926275293986 C 15.439333333333334 117.4245960862732, 15.552 117.80192941960652, 15.576 118.31126275293987 C 15.581333333333333 118.38326275293986, 15.584666666666667 118.45526275293986, 15.586 118.52726275293986 C 15.587333333333333 118.59926275293986, 15.588000000000001 118.66992941960652, 15.588000000000001 118.73926275293987 C 15.588000000000001 118.80859608627318, 15.587333333333333 118.87792941960652, 15.586 118.94726275293986 C 15.584666666666667 119.01659608627318, 15.581333333333333 119.08726275293986, 15.576 119.15926275293987 C 15.557333333333334 119.65526275293988, 15.436666666666667 120.01992941960654, 15.214 120.25326275293986 C 14.991333333333333 120.48659608627321, 14.638666666666666 120.6165960862732, 14.156 120.64326275293986 Z M 16.18 119.15926275293987 C 16.174666666666667 118.98592941960652, 16.173333333333332 118.8465960862732, 16.176 118.74126275293986 C 16.178666666666665 118.63592941960653, 16.181333333333335 118.53392941960652, 16.183999999999997 118.43526275293986 L 17.264 118.43526275293986 C 17.256 118.51259608627319, 17.25 118.6085960862732, 17.246 118.72326275293986 C 17.241999999999997 118.83792941960652, 17.240666666666666 118.9485960862732, 17.241999999999997 119.05526275293987 C 17.243333333333332 119.16192941960654, 17.246666666666666 119.24192941960652, 17.252 119.29526275293986 C 17.262666666666668 119.41526275293987, 17.297333333333334 119.51326275293985, 17.355999999999998 119.58926275293986 C 17.414666666666665 119.66526275293987, 17.497333333333334 119.71926275293987, 17.604 119.75126275293987 L 17.604 120.64326275293986 C 17.110666666666663 120.60592941960653, 16.75333333333333 120.47126275293985, 16.532 120.23926275293987 C 16.310666666666666 120.00726275293985, 16.19333333333333 119.64726275293987, 16.18 119.15926275293987 Z M 16.279999999999998 117.82326275293987 L 16.279999999999998 114.17526275293986 L 17.348 114.17526275293986 L 17.348 117.82326275293987 Z M 17.852 117.39926275293986 L 17.852 116.64326275293986 C 17.929333333333332 116.60326275293986, 18.014666666666667 116.57126275293987, 18.107999999999997 116.54726275293986 C 18.20133333333333 116.52326275293987, 18.301333333333332 116.51126275293987, 18.407999999999998 116.51126275293987 C 18.773333333333333 116.51126275293987, 19.047333333333334 116.6265960862732, 19.23 116.85726275293986 C 19.412666666666667 117.08792941960652, 19.514666666666663 117.40192941960652, 19.535999999999998 117.79926275293987 C 19.546666666666667 117.95926275293985, 19.55333333333333 118.11792941960653, 19.555999999999997 118.27526275293987 C 19.558666666666664 118.43259608627321, 19.557333333333332 118.58592941960654, 19.552 118.73526275293986 C 19.546666666666667 118.8845960862732, 19.538666666666668 119.02459608627319, 19.528 119.15526275293986 C 19.482666666666667 119.65392941960653, 19.353333333333335 120.01926275293988, 19.14 120.25126275293987 C 18.926666666666666 120.48326275293988, 18.581333333333333 120.61392941960654, 18.104 120.64326275293986 L 18.104 119.75126275293987 C 18.21333333333333 119.72192941960654, 18.296 119.66926275293986, 18.352 119.59326275293986 C 18.408 119.51726275293987, 18.44 119.41792941960654, 18.448 119.29526275293986 C 18.471999999999998 119.00459608627321, 18.485999999999997 118.74326275293987, 18.49 118.51126275293987 C 18.494 118.27926275293987, 18.485333333333333 118.05792941960652, 18.464 117.84726275293987 C 18.447999999999997 117.6925960862732, 18.396666666666665 117.57726275293987, 18.31 117.50126275293987 C 18.223333333333333 117.42526275293986, 18.090666666666664 117.38726275293988, 17.912 117.38726275293986 C 17.901333333333334 117.38726275293988, 17.890666666666668 117.3885960862732, 17.88 117.39126275293987 C 17.86933333333333 117.39392941960654, 17.86 117.39659608627319, 17.852 117.39926275293986 Z M 17.852 115.10726275293986 L 17.852 114.17526275293986 L 19.439999999999998 114.17526275293986 L 19.439999999999998 115.10726275293986 Z M 21.944 120.57526275293986 L 21.944 114.17526275293986 L 23.003999999999998 114.17526275293986 L 23.003999999999998 120.57526275293986 Z " stroke="none" fill-rule="nonzero" fill="#000000" fill-opacity="1" transform="matrix(1,0,0,1,5.05,13.314)" id="text35 l" />
  <path d="M 0 113.49677856941054 L 10 113.49677856941054 L 10 114.99677856941054 L 0 114.99677856941054 Z " stroke="none" fill-rule="evenodd" fill="#000000" fill-opacity="1" transform="matrix(1,0,0,1,5.05,13.314)" id="mark36 l" />
  <path d="M 0 105.33629438588122 L 10 105.33629438588122 L 10 106.83629438588122 L 0 106.83629438588122 Z " stroke="none" fill-rule="evenodd" fill="#000000" fill-opacity="1" transform="matrix(1,0,0,1,5.05,13.314)" id="mark37 l" />
  <path d="M 0 97.1758102023519 L 10 97.1758102023519 L 10 98.6758102023519 L 0 98.6758102023519 Z " stroke="none" fill-rule="evenodd" fill="#000000" fill-opacity="1" transform="matrix(1,0,0,1,5.05,13.314)" id="mark38 l" />
  <path d="M 0 89.01532601882258 L 10 89.01532601882258 L 10 90.51532601882258 L 0 90.51532601882258 Z " stroke="none" fill-rule="evenodd" fill="#000000" fill-opacity="1" transform="matrix(1,0,0,1,5.05,13.314)" id="mark39 l" />
  <path d="M 0 80.85484183529326 L 25 80.85484183529326 L 25 82.35484183529326 L 0 82.35484183529326 Z " stroke="none" fill-rule="evenodd" fill="#000000" fill-opacity="1" transform="matrix(1,0,0,1,5.05,13.314)" id="mark40 l" />
  <path d="M 11.739999999999998 78.12084183529326 L 11.739999999999998 77.24484183529326 L 12.455999999999998 75.36484183529326 L 13.495999999999999 75.36484183529326 L 12.771999999999998 77.19684183529326 L 13.171999999999997 77.19684183529326 L 13.171999999999997 78.12084183529326 Z M 13.675999999999998 79.80484183529326 L 13.675999999999998 73.40484183529325 L 14.683999999999997 73.40484183529325 L 14.683999999999997 79.80484183529326 Z M 15.187999999999999 78.12084183529326 L 15.187999999999999 77.19684183529326 L 15.655999999999999 77.19684183529326 L 15.655999999999999 78.12084183529326 Z M 16.195999999999998 78.39284183529325 C 16.188 77.96350850195992, 16.182666666666666 77.54684183529326, 16.18 77.14284183529325 C 16.177333333333333 76.73884183529326, 16.177999999999997 76.34350850195993, 16.182 75.95684183529326 C 16.186 75.57017516862659, 16.190666666666665 75.18884183529326, 16.195999999999998 74.81284183529326 C 16.20933333333333 74.37284183529326, 16.333999999999996 74.02750850195993, 16.569999999999997 73.77684183529325 C 16.805999999999997 73.5261751686266, 17.142666666666663 73.38084183529327, 17.58 73.34084183529326 L 17.58 74.22884183529327 C 17.382666666666665 74.28484183529326, 17.281333333333333 74.41417516862658, 17.275999999999996 74.61684183529326 C 17.262666666666664 74.98750850195992, 17.25333333333333 75.33550850195992, 17.247999999999998 75.66084183529325 C 17.242666666666665 75.98617516862659, 17.24 76.30284183529326, 17.24 76.61084183529326 C 17.24 76.91884183529325, 17.242666666666665 77.23350850195993, 17.247999999999998 77.55484183529326 C 17.25333333333333 77.87617516862659, 17.262666666666664 78.21950850195992, 17.275999999999996 78.58484183529326 C 17.281333333333333 78.79284183529326, 17.382666666666665 78.92484183529326, 17.58 78.98084183529326 L 17.58 79.86884183529325 C 17.142666666666663 79.82884183529326, 16.805999999999997 79.68284183529326, 16.569999999999997 79.43084183529326 C 16.333999999999996 79.17884183529327, 16.20933333333333 78.83284183529327, 16.195999999999998 78.39284183529325 Z M 18.084 79.86884183529325 L 18.084 78.97684183529326 C 18.268 78.92350850195993, 18.366666666666667 78.79950850195992, 18.38 78.60484183529326 C 18.398666666666664 78.13817516862659, 18.410666666666664 77.68950850195992, 18.415999999999997 77.25884183529325 C 18.42133333333333 76.8281751686266, 18.42133333333333 76.39750850195993, 18.415999999999997 75.96684183529327 C 18.410666666666664 75.5361751686266, 18.398666666666664 75.08350850195993, 18.38 74.60884183529326 C 18.374666666666666 74.4141751686266, 18.276 74.28750850195993, 18.084 74.22884183529327 L 18.084 73.34084183529326 C 18.513333333333332 73.38084183529327, 18.846666666666664 73.5261751686266, 19.083999999999996 73.77684183529325 C 19.32133333333333 74.02750850195993, 19.44533333333333 74.37284183529326, 19.456 74.81284183529326 C 19.466666666666665 75.12750850195994, 19.474666666666664 75.43750850195994, 19.479999999999997 75.74284183529326 C 19.48533333333333 76.04817516862659, 19.488 76.34884183529326, 19.488 76.64484183529326 C 19.488 76.94084183529327, 19.48533333333333 77.23417516862659, 19.479999999999997 77.52484183529326 C 19.474666666666664 77.81550850195993, 19.466666666666665 78.10484183529326, 19.456 78.39284183529325 C 19.439999999999998 78.84350850195992, 19.311999999999998 79.19217516862659, 19.072 79.43884183529326 C 18.831999999999997 79.68550850195993, 18.502666666666663 79.82884183529326, 18.084 79.86884183529325 Z M 21.944 79.80484183529326 L 21.944 73.40484183529325 L 23.003999999999998 73.40484183529325 L 23.003999999999998 79.80484183529326 Z " stroke="none" fill-rule="nonzero" fill="#000000" fill-opacity="1" transform="matrix(1,0,0,1,5.05,13.314)" id="text40 l" />
  <path d="M 0 72.69435765176394 L 10 72.69435765176394 L 10 74.19435765176394 L 0 74.19435765176394 Z " stroke="none" fill-rule="evenodd" fill="#000000" fill-opacity="1" transform="matrix(1,0,0,1,5.05,13.314)" id="mark41 l" />
  <path d="M 0 64.53387346823456 L 10 64.53387346823456 L 10 66.03387346823456 L 0 66.03387346823456 Z " stroke="none" fill-rule="evenodd" fill="#000000" fill-opacity="1" transform="matrix(1,0,0,1,5.05,13.314)" id="mark42 l" />
  <path d="M 0 56.37338928470524 L 10 56.37338928470524 L 10 57.87338928470524 L 0 57.87338928470524 Z " stroke="none" fill-rule="evenodd" fill="#000000" fill-opacity="1" transform="matrix(1,0,0,1,5.05,13.314)" id="mark43 l" />
  <path d="M 0 48.21290510117592 L 10 48.21290510117592 L 10 49.71290510117592 L 0 49.71290510117592 Z " stroke="none" fill-rule="evenodd" fill="#000000" fill-opacity="1" transform="matrix(1,0,0,1,5.05,13.314)" id="mark44 l" />
  <path d="M 0 40.0524209176466 L 25 40.0524209176466 L 25 41.5524209176466 L 0 41.5524209176466 Z " stroke="none" fill-rule="evenodd" fill="#000000" fill-opacity="1" transform="matrix(1,0,0,1,5.05,13.314)" id="mark45 l" />
  <path d="M 11.748 37.2864209176466 L 11.748 36.4104209176466 L 12.463999999999999 34.5304209176466 L 13.503999999999998 34.5304209176466 L 12.78 36.3624209176466 L 13.18 36.3624209176466 L 13.18 37.2864209176466 Z M 13.684 38.9704209176466 L 13.684 32.5704209176466 L 14.691999999999998 32.5704209176466 L 14.691999999999998 38.9704209176466 Z M 15.195999999999998 37.2864209176466 L 15.195999999999998 36.3624209176466 L 15.663999999999998 36.3624209176466 L 15.663999999999998 37.2864209176466 Z M 16.18 37.5544209176466 C 16.174666666666667 37.38108758431326, 16.173333333333332 37.24175425097993, 16.176 37.136420917646596 C 16.178666666666665 37.03108758431327, 16.181333333333335 36.929087584313265, 16.183999999999997 36.8304209176466 L 17.264 36.8304209176466 C 17.256 36.907754250979934, 17.25 37.00375425097993, 17.246 37.1184209176466 C 17.241999999999997 37.23308758431327, 17.240666666666666 37.34375425097993, 17.241999999999997 37.450420917646596 C 17.243333333333332 37.557087584313265, 17.246666666666666 37.637087584313264, 17.252 37.6904209176466 C 17.262666666666668 37.810420917646596, 17.297333333333334 37.9084209176466, 17.355999999999998 37.9844209176466 C 17.414666666666665 38.0604209176466, 17.497333333333334 38.1144209176466, 17.604 38.1464209176466 L 17.604 39.0384209176466 C 17.110666666666663 39.00108758431327, 16.75333333333333 38.8664209176466, 16.532 38.6344209176466 C 16.310666666666666 38.4024209176466, 16.19333333333333 38.0424209176466, 16.18 37.5544209176466 Z M 16.279999999999998 36.2184209176466 L 16.279999999999998 32.5704209176466 L 17.348 32.5704209176466 L 17.348 36.2184209176466 Z M 17.852 35.7944209176466 L 17.852 35.0384209176466 C 17.929333333333332 34.9984209176466, 18.014666666666667 34.9664209176466, 18.107999999999997 34.9424209176466 C 18.20133333333333 34.9184209176466, 18.301333333333332 34.9064209176466, 18.407999999999998 34.9064209176466 C 18.773333333333333 34.9064209176466, 19.047333333333334 35.02175425097993, 19.23 35.2524209176466 C 19.412666666666667 35.48308758431327, 19.514666666666663 35.79708758431326, 19.535999999999998 36.194420917646596 C 19.546666666666667 36.35442091764659, 19.55333333333333 36.51308758431327, 19.555999999999997 36.6704209176466 C 19.558666666666664 36.827754250979936, 19.557333333333332 36.981087584313265, 19.552 37.130420917646596 C 19.546666666666667 37.279754250979934, 19.538666666666668 37.419754250979935, 19.528 37.5504209176466 C 19.482666666666667 38.04908758431327, 19.353333333333335 38.4144209176466, 19.14 38.6464209176466 C 18.926666666666666 38.8784209176466, 18.581333333333333 39.009087584313264, 18.104 39.0384209176466 L 18.104 38.1464209176466 C 18.21333333333333 38.11708758431327, 18.296 38.0644209176466, 18.352 37.9884209176466 C 18.408 37.9124209176466, 18.44 37.813087584313266, 18.448 37.6904209176466 C 18.471999999999998 37.39975425097993, 18.485999999999997 37.1384209176466, 18.49 36.9064209176466 C 18.494 36.6744209176466, 18.485333333333333 36.453087584313266, 18.464 36.2424209176466 C 18.447999999999997 36.087754250979934, 18.396666666666665 35.9724209176466, 18.31 35.8964209176466 C 18.223333333333333 35.8204209176466, 18.090666666666664 35.7824209176466, 17.912 35.7824209176466 C 17.901333333333334 35.7824209176466, 17.890666666666668 35.78375425097993, 17.88 35.7864209176466 C 17.86933333333333 35.789087584313265, 17.86 35.791754250979935, 17.852 35.7944209176466 Z M 17.852 33.5024209176466 L 17.852 32.5704209176466 L 19.439999999999998 32.5704209176466 L 19.439999999999998 33.5024209176466 Z M 21.944 38.9704209176466 L 21.944 32.5704209176466 L 23.003999999999998 32.5704209176466 L 23.003999999999998 38.9704209176466 Z " stroke="none" fill-rule="nonzero" fill="#000000" fill-opacity="1" transform="matrix(1,0,0,1,5.05,13.314)" id="text45 l" />
  <path d="M 0 31.89193673411728 L 10 31.89193673411728 L 10 33.39193673411728 L 0 33.39193673411728 Z " stroke="none" fill-rule="evenodd" fill="#000000" fill-opacity="1" transform="matrix(1,0,0,1,5.05,13.314)" id="mark46 l" />
  <path d="M 0 23.73145255058796 L 10 23.73145255058796 L 10 25.23145255058796 L 0 25.23145255058796 Z " stroke="none" fill-rule="evenodd" fill="#000000" fill-opacity="1" transform="matrix(1,0,0,1,5.05,13.314)" id="mark47 l" />
  <path d="M 0 15.57096836705864 L 10 15.57096836705864 L 10 17.07096836705864 L 0 17.07096836705864 Z " stroke="none" fill-rule="evenodd" fill="#000000" fill-opacity="1" transform="matrix(1,0,0,1,5.05,13.314)" id="mark48 l" />
  <path d="M 0 7.41048418352932 L 10 7.41048418352932 L 10 8.91048418352932 L 0 8.91048418352932 Z " stroke="none" fill-rule="evenodd" fill="#000000" fill-opacity="1" transform="matrix(1,0,0,1,5.05,13.314)" id="mark49 l" />
  <path d="M 0 -0.75 L 25 -0.75 L 25 0.75 L 0 0.75 Z " stroke="none" fill-rule="evenodd" fill="#000000" fill-opacity="1" transform="matrix(1,0,0,1,5.05,13.314)" id="mark50 l" />
  <path d="M 12.204 -3.2159999999999997 C 12.198666666666668 -3.389333333333333, 12.197333333333333 -3.528666666666667, 12.2 -3.634 C 12.202666666666667 -3.7393333333333336, 12.205333333333336 -3.841333333333333, 12.208 -3.94 L 13.288 -3.94 C 13.280000000000001 -3.8626666666666667, 13.274000000000001 -3.7666666666666666, 13.27 -3.6519999999999997 C 13.265999999999998 -3.5373333333333328, 13.264666666666667 -3.4266666666666667, 13.266 -3.32 C 13.267333333333333 -3.213333333333334, 13.270666666666667 -3.1333333333333337, 13.276 -3.08 C 13.286666666666665 -2.96, 13.321333333333332 -2.862, 13.379999999999999 -2.7859999999999996 C 13.438666666666666 -2.71, 13.521333333333335 -2.6559999999999997, 13.628 -2.6239999999999997 L 13.628 -1.7319999999999998 C 13.134666666666668 -1.7693333333333332, 12.777333333333335 -1.904, 12.556 -2.1359999999999997 C 12.334666666666667 -2.368, 12.217333333333332 -2.7279999999999998, 12.204 -3.2159999999999997 Z M 12.304 -4.552 L 12.304 -8.2 L 13.372 -8.2 L 13.372 -4.552 Z M 13.876 -4.976 L 13.876 -5.731999999999999 C 13.953333333333333 -5.771999999999999, 14.038666666666668 -5.804, 14.132 -5.828 C 14.225333333333333 -5.852, 14.325333333333333 -5.864, 14.432 -5.864 C 14.797333333333334 -5.864, 15.071333333333332 -5.748666666666667, 15.254 -5.518 C 15.436666666666667 -5.287333333333333, 15.538666666666668 -4.973333333333333, 15.56 -4.576 C 15.570666666666668 -4.416, 15.577333333333334 -4.257333333333333, 15.58 -4.1 C 15.582666666666666 -3.9426666666666668, 15.581333333333333 -3.7893333333333334, 15.576 -3.6399999999999997 C 15.570666666666666 -3.490666666666667, 15.562666666666665 -3.3506666666666667, 15.552 -3.2199999999999998 C 15.506666666666668 -2.721333333333333, 15.377333333333333 -2.356, 15.164 -2.1239999999999997 C 14.950666666666667 -1.892, 14.605333333333332 -1.7613333333333332, 14.128 -1.7319999999999998 L 14.128 -2.6239999999999997 C 14.237333333333334 -2.653333333333333, 14.32 -2.7059999999999995, 14.376 -2.782 C 14.432 -2.8579999999999997, 14.464 -2.957333333333333, 14.472 -3.08 C 14.495999999999999 -3.3706666666666667, 14.509999999999998 -3.6319999999999997, 14.514 -3.864 C 14.518 -4.096, 14.509333333333334 -4.317333333333333, 14.488 -4.5280000000000005 C 14.472000000000001 -4.682666666666667, 14.420666666666666 -4.798, 14.334 -4.874 C 14.247333333333334 -4.949999999999999, 14.114666666666666 -4.9879999999999995, 13.936 -4.9879999999999995 C 13.925333333333333 -4.9879999999999995, 13.914666666666665 -4.986666666666666, 13.904 -4.984 C 13.893333333333334 -4.981333333333334, 13.884 -4.978666666666667, 13.876 -4.976 Z M 13.876 -7.268 L 13.876 -8.2 L 15.464 -8.2 L 15.464 -7.268 Z M 16.196 -3.2119999999999997 C 16.188000000000002 -3.641333333333333, 16.182666666666666 -4.058, 16.18 -4.462 C 16.177333333333333 -4.866, 16.177999999999997 -5.261333333333333, 16.182 -5.648 C 16.186 -6.034666666666666, 16.190666666666665 -6.416, 16.196 -6.792 C 16.209333333333333 -7.231999999999999, 16.334000000000003 -7.577333333333334, 16.57 -7.828 C 16.805999999999997 -8.078666666666667, 17.142666666666663 -8.224, 17.58 -8.264 L 17.58 -7.3759999999999994 C 17.382666666666665 -7.32, 17.281333333333333 -7.190666666666667, 17.276 -6.9879999999999995 C 17.262666666666668 -6.617333333333333, 17.253333333333334 -6.269333333333333, 17.248 -5.944 C 17.242666666666665 -5.618666666666666, 17.24 -5.302, 17.24 -4.994 C 17.24 -4.686, 17.242666666666665 -4.371333333333333, 17.248 -4.05 C 17.253333333333334 -3.7286666666666664, 17.262666666666668 -3.3853333333333326, 17.276 -3.0199999999999996 C 17.281333333333333 -2.812, 17.382666666666665 -2.6799999999999997, 17.58 -2.6239999999999997 L 17.58 -1.7359999999999998 C 17.142666666666663 -1.7759999999999998, 16.805999999999997 -1.9219999999999997, 16.57 -2.174 C 16.334000000000003 -2.4259999999999997, 16.209333333333333 -2.772, 16.196 -3.2119999999999997 Z M 18.084 -1.7359999999999998 L 18.084 -2.6279999999999997 C 18.268 -2.681333333333333, 18.366666666666667 -2.8053333333333335, 18.38 -3 C 18.398666666666667 -3.4666666666666663, 18.410666666666668 -3.915333333333333, 18.416 -4.346 C 18.421333333333333 -4.776666666666666, 18.421333333333333 -5.207333333333333, 18.416 -5.638 C 18.410666666666668 -6.068666666666666, 18.398666666666667 -6.521333333333333, 18.38 -6.9959999999999996 C 18.374666666666666 -7.190666666666667, 18.276 -7.317333333333334, 18.084 -7.3759999999999994 L 18.084 -8.264 C 18.513333333333335 -8.224, 18.846666666666668 -8.078666666666667, 19.084 -7.828 C 19.321333333333335 -7.577333333333334, 19.445333333333334 -7.231999999999999, 19.456 -6.792 C 19.46666666666667 -6.477333333333332, 19.474666666666668 -6.167333333333333, 19.48 -5.861999999999999 C 19.485333333333333 -5.556666666666667, 19.488 -5.256, 19.488 -4.96 C 19.488 -4.664, 19.485333333333333 -4.370666666666667, 19.48 -4.08 C 19.474666666666668 -3.7893333333333334, 19.46666666666667 -3.5, 19.456 -3.2119999999999997 C 19.439999999999998 -2.761333333333333, 19.311999999999998 -2.4126666666666665, 19.072 -2.166 C 18.832 -1.9193333333333331, 18.502666666666666 -1.7759999999999998, 18.084 -1.7359999999999998 Z M 21.944 -1.7999999999999998 L 21.944 -8.2 L 23.003999999999998 -8.2 L 23.003999999999998 -1.7999999999999998 Z " stroke="none" fill-rule="nonzero" fill="#000000" fill-opacity="1" transform="matrix(1,0,0,1,5.05,13.314)" id="text50 l" />
  <path d="M -5 -13.264 L 30 -13.264 L 30 406.6317249929368 L -5 406.6317249929368 Z " stroke="#FF0000" stroke-opacity="1" stroke-width="0.1" stroke-linecap="butt" stroke-linejoin="miter" fill="none" transform="matrix(1,0,0,1,5.05,13.314)" />
</svg>