<?xml version="1.0" encoding="UTF-8"?>
<svg xmlns:xlink="http://www.w3.org/1999/xlink" viewBox="0 0 35.1 413.9903475923776" version="1.1" style="font-synthesis: none;" width="35.1mm" height="413.9903475923776mm" xmlns="http://www.w3.org/2000/svg">
  <defs />
  <style>	</style>
  <path d="M 0 0 L 35.1 0 L 35.1 413.9903475923776 L 0 413.9903475923776 Z " stroke="none" fill-rule="nonzero" fill="#FFFFFF" fill-opacity="1" transform="matrix(1,0,0,1,0,0)" />
  <path d="M 0 393.1083475923776 L 10 393.1083475923776 L 10 394.6083475923776 L 0 394.6083475923776 Z " stroke="none" fill-rule="evenodd" fill="#000000" fill-opacity="1" transform="matrix(1,0,0,1,5.05,13.314)" id="mark1 l" />
  <path d="M 0 385.07042213130865 L 10 385.07042213130865 L 10 386.57042213130865 L 0 386.57042213130865 Z " stroke="none" fill-rule="evenodd" fill="#000000" fill-opacity="1" transform="matrix(1,0,0,1,5.05,13.314)" id="mark2 l" />
  <path d="M 0 377.0324966702397 L 10 377.0324966702397 L 10 378.5324966702397 L 0 378.5324966702397 Z " stroke="none" fill-rule="evenodd" fill="#000000" fill-opacity="1" transform="matrix(1,0,0,1,5.05,13.314)" id="mark3 l" />
  <path d="M 0 368.9945712091708 L 10 368.9945712091708 L 10 370.4945712091708 L 0 370.4945712091708 Z " stroke="none" fill-rule="evenodd" fill="#000000" fill-opacity="1" transform="matrix(1,0,0,1,5.05,13.314)" id="mark4 l" />
  <path d="M 0 360.9566457481019 L 25 360.9566457481019 L 25 362.4566457481019 L 0 362.4566457481019 Z " stroke="none" fill-rule="evenodd" fill="#000000" fill-opacity="1" transform="matrix(1,0,0,1,5.05,13.314)" id="mark5 l" />
  <path d="M 16.18 358.4586457481019 C 16.174666666666667 358.28531241476855, 16.173333333333332 358.14597908143526, 16.176 358.0406457481019 C 16.178666666666665 357.93531241476853, 16.181333333333335 357.83331241476856, 16.183999999999997 357.7346457481019 L 17.264 357.7346457481019 C 17.256 357.81197908143525, 17.25 357.90797908143526, 17.246 358.0226457481019 C 17.241999999999997 358.1373124147686, 17.240666666666666 358.24797908143523, 17.241999999999997 358.3546457481019 C 17.243333333333332 358.4613124147686, 17.246666666666666 358.5413124147686, 17.252 358.5946457481019 C 17.262666666666668 358.7146457481019, 17.297333333333334 358.8126457481019, 17.355999999999998 358.8886457481019 C 17.414666666666665 358.96464574810193, 17.497333333333334 359.0186457481019, 17.604 359.0506457481019 L 17.604 359.9426457481019 C 17.110666666666663 359.90531241476856, 16.75333333333333 359.7706457481019, 16.532 359.5386457481019 C 16.310666666666666 359.30664574810186, 16.19333333333333 358.9466457481019, 16.18 358.4586457481019 Z M 16.279999999999998 357.1226457481019 L 16.279999999999998 353.4746457481019 L 17.348 353.4746457481019 L 17.348 357.1226457481019 Z M 17.852 356.6986457481019 L 17.852 355.9426457481019 C 17.929333333333332 355.90264574810186, 18.014666666666667 355.8706457481019, 18.107999999999997 355.8466457481019 C 18.20133333333333 355.8226457481019, 18.301333333333332 355.8106457481019, 18.407999999999998 355.8106457481019 C 18.773333333333333 355.8106457481019, 19.047333333333334 355.92597908143523, 19.23 356.1566457481019 C 19.412666666666667 356.38731241476853, 19.514666666666663 356.70131241476855, 19.535999999999998 357.0986457481019 C 19.546666666666667 357.2586457481019, 19.55333333333333 357.41731241476856, 19.555999999999997 357.5746457481019 C 19.558666666666664 357.7319790814352, 19.557333333333332 357.8853124147686, 19.552 358.0346457481019 C 19.546666666666667 358.18397908143527, 19.538666666666668 358.32397908143525, 19.528 358.4546457481019 C 19.482666666666667 358.95331241476856, 19.353333333333335 359.31864574810186, 19.14 359.5506457481019 C 18.926666666666666 359.7826457481019, 18.581333333333333 359.91331241476854, 18.104 359.9426457481019 L 18.104 359.0506457481019 C 18.21333333333333 359.02131241476854, 18.296 358.9686457481019, 18.352 358.89264574810187 C 18.408 358.8166457481019, 18.44 358.71731241476857, 18.448 358.5946457481019 C 18.471999999999998 358.3039790814352, 18.485999999999997 358.0426457481019, 18.49 357.8106457481019 C 18.494 357.5786457481019, 18.485333333333333 357.35731241476856, 18.464 357.1466457481019 C 18.447999999999997 356.99197908143526, 18.396666666666665 356.8766457481019, 18.31 356.8006457481019 C 18.223333333333333 356.7246457481019, 18.090666666666664 356.6866457481019, 17.912 356.6866457481019 C 17.901333333333334 356.6866457481019, 17.890666666666668 356.68797908143523, 17.88 356.6906457481019 C 17.86933333333333 356.69331241476857, 17.86 356.6959790814352, 17.852 356.6986457481019 Z M 17.852 354.4066457481019 L 17.852 353.4746457481019 L 19.439999999999998 353.4746457481019 L 19.439999999999998 354.4066457481019 Z M 21.944 359.8746457481019 L 21.944 353.4746457481019 L 23.003999999999998 353.4746457481019 L 23.003999999999998 359.8746457481019 Z " stroke="none" fill-rule="nonzero" fill="#000000" fill-opacity="1" transform="matrix(1,0,0,1,5.05,13.314)" id="text5 l" />
  <path d="M 0 352.91872028703295 L 10 352.91872028703295 L 10 354.41872028703295 L 0 354.41872028703295 Z " stroke="none" fill-rule="evenodd" fill="#000000" fill-opacity="1" transform="matrix(1,0,0,1,5.05,13.314)" id="mark6 l" />
  <path d="M 0 344.880794825964 L 10 344.880794825964 L 10 346.380794825964 L 0 346.380794825964 Z " stroke="none" fill-rule="evenodd" fill="#000000" fill-opacity="1" transform="matrix(1,0,0,1,5.05,13.314)" id="mark7 l" />
  <path d="M 0 336.8428693648951 L 10 336.8428693648951 L 10 338.3428693648951 L 0 338.3428693648951 Z " stroke="none" fill-rule="evenodd" fill="#000000" fill-opacity="1" transform="matrix(1,0,0,1,5.05,13.314)" id="mark8 l" />
  <path d="M 0 328.80494390382614 L 10 328.80494390382614 L 10 330.30494390382614 L 0 330.30494390382614 Z " stroke="none" fill-rule="evenodd" fill="#000000" fill-opacity="1" transform="matrix(1,0,0,1,5.05,13.314)" id="mark9 l" />
  <path d="M 0 320.7670184427572 L 25 320.7670184427572 L 25 322.2670184427572 L 0 322.2670184427572 Z " stroke="none" fill-rule="evenodd" fill="#000000" fill-opacity="1" transform="matrix(1,0,0,1,5.05,13.314)" id="mark10 l" />
  <path d="M 14.323999999999998 319.7170184427572 L 14.323999999999998 314.2730184427572 L 13.871999999999998 314.2730184427572 L 13.839999999999998 313.8930184427572 L 14.543999999999999 313.3170184427572 L 15.424 313.3170184427572 L 15.424 319.7170184427572 Z M 16.196 318.3050184427572 C 16.188000000000002 317.8756851094239, 16.182666666666666 317.4590184427572, 16.18 317.0550184427572 C 16.177333333333333 316.6510184427572, 16.177999999999997 316.2556851094239, 16.182 315.8690184427572 C 16.186 315.4823517760905, 16.190666666666665 315.1010184427572, 16.196 314.7250184427572 C 16.209333333333333 314.2850184427572, 16.334000000000003 313.93968510942386, 16.57 313.6890184427572 C 16.805999999999997 313.4383517760905, 17.142666666666663 313.2930184427572, 17.58 313.2530184427572 L 17.58 314.1410184427572 C 17.382666666666665 314.1970184427572, 17.281333333333333 314.3263517760905, 17.276 314.5290184427572 C 17.262666666666668 314.89968510942384, 17.253333333333334 315.24768510942386, 17.248 315.5730184427572 C 17.242666666666665 315.8983517760905, 17.24 316.2150184427572, 17.24 316.5230184427572 C 17.24 316.83101844275717, 17.242666666666665 317.1456851094238, 17.248 317.4670184427572 C 17.253333333333334 317.78835177609056, 17.262666666666668 318.13168510942387, 17.276 318.49701844275717 C 17.281333333333333 318.70501844275714, 17.382666666666665 318.8370184427572, 17.58 318.8930184427572 L 17.58 319.7810184427572 C 17.142666666666663 319.7410184427572, 16.805999999999997 319.5950184427572, 16.57 319.34301844275717 C 16.334000000000003 319.09101844275716, 16.209333333333333 318.7450184427572, 16.196 318.3050184427572 Z M 18.084 319.7810184427572 L 18.084 318.8890184427572 C 18.268 318.8356851094238, 18.366666666666667 318.71168510942385, 18.38 318.5170184427572 C 18.398666666666667 318.05035177609057, 18.410666666666668 317.6016851094239, 18.416 317.1710184427572 C 18.421333333333333 316.7403517760905, 18.421333333333333 316.30968510942387, 18.416 315.8790184427572 C 18.410666666666668 315.44835177609053, 18.398666666666667 314.9956851094239, 18.38 314.52101844275717 C 18.374666666666666 314.3263517760905, 18.276 314.19968510942385, 18.084 314.1410184427572 L 18.084 313.2530184427572 C 18.513333333333335 313.2930184427572, 18.846666666666668 313.4383517760905, 19.084 313.6890184427572 C 19.321333333333335 313.93968510942386, 19.445333333333334 314.2850184427572, 19.456 314.7250184427572 C 19.46666666666667 315.0396851094239, 19.474666666666668 315.3496851094239, 19.48 315.6550184427572 C 19.485333333333333 315.96035177609053, 19.488 316.2610184427572, 19.488 316.55701844275717 C 19.488 316.85301844275716, 19.485333333333333 317.1463517760905, 19.48 317.4370184427572 C 19.474666666666668 317.7276851094239, 19.46666666666667 318.0170184427572, 19.456 318.3050184427572 C 19.439999999999998 318.7556851094239, 19.311999999999998 319.10435177609054, 19.072 319.3510184427572 C 18.832 319.5976851094239, 18.502666666666666 319.7410184427572, 18.084 319.7810184427572 Z M 21.944 319.7170184427572 L 21.944 313.3170184427572 L 23.003999999999998 313.3170184427572 L 23.003999999999998 319.7170184427572 Z " stroke="none" fill-rule="nonzero" fill="#000000" fill-opacity="1" transform="matrix(1,0,0,1,5.05,13.314)" id="text10 l" />
  <path d="M 0 312.72909298168827 L 10 312.72909298168827 L 10 314.22909298168827 L 0 314.22909298168827 Z " stroke="none" fill-rule="evenodd" fill="#000000" fill-opacity="1" transform="matrix(1,0,0,1,5.05,13.314)" id="mark11 l" />
  <path d="M 0 304.6911675206194 L 10 304.6911675206194 L 10 306.1911675206194 L 0 306.1911675206194 Z " stroke="none" fill-rule="evenodd" fill="#000000" fill-opacity="1" transform="matrix(1,0,0,1,5.05,13.314)" id="mark12 l" />
  <path d="M 0 296.65324205955045 L 10 296.65324205955045 L 10 298.15324205955045 L 0 298.15324205955045 Z " stroke="none" fill-rule="evenodd" fill="#000000" fill-opacity="1" transform="matrix(1,0,0,1,5.05,13.314)" id="mark13 l" />
  <path d="M 0 288.6153165984815 L 10 288.6153165984815 L 10 290.1153165984815 L 0 290.1153165984815 Z " stroke="none" fill-rule="evenodd" fill="#000000" fill-opacity="1" transform="matrix(1,0,0,1,5.05,13.314)" id="mark14 l" />
  <path d="M 0 280.5773911374126 L 25 280.5773911374126 L 25 282.0773911374126 L 0 282.0773911374126 Z " stroke="none" fill-rule="evenodd" fill="#000000" fill-opacity="1" transform="matrix(1,0,0,1,5.05,13.314)" id="mark15 l" />
  <path d="M 14.331999999999999 279.4953911374126 L 14.331999999999999 274.05139113741257 L 13.879999999999999 274.05139113741257 L 13.847999999999999 273.67139113741257 L 14.552 273.0953911374126 L 15.432 273.0953911374126 L 15.432 279.4953911374126 Z M 16.18 278.0793911374126 C 16.174666666666667 277.9060578040793, 16.173333333333332 277.76672447074594, 16.176 277.6613911374126 C 16.178666666666665 277.5560578040792, 16.181333333333335 277.45405780407924, 16.183999999999997 277.3553911374126 L 17.264 277.3553911374126 C 17.256 277.43272447074594, 17.25 277.52872447074594, 17.246 277.6433911374126 C 17.241999999999997 277.7580578040793, 17.240666666666666 277.8687244707459, 17.241999999999997 277.9753911374126 C 17.243333333333332 278.0820578040792, 17.246666666666666 278.16205780407927, 17.252 278.2153911374126 C 17.262666666666668 278.33539113741256, 17.297333333333334 278.43339113741257, 17.355999999999998 278.5093911374126 C 17.414666666666665 278.58539113741256, 17.497333333333334 278.6393911374126, 17.604 278.67139113741257 L 17.604 279.56339113741257 C 17.110666666666663 279.52605780407924, 16.75333333333333 279.3913911374126, 16.532 279.15939113741257 C 16.310666666666666 278.92739113741254, 16.19333333333333 278.5673911374125, 16.18 278.0793911374126 Z M 16.279999999999998 276.7433911374126 L 16.279999999999998 273.0953911374126 L 17.348 273.0953911374126 L 17.348 276.7433911374126 Z M 17.852 276.3193911374126 L 17.852 275.56339113741257 C 17.929333333333332 275.52339113741255, 18.014666666666667 275.49139113741256, 18.107999999999997 275.46739113741256 C 18.20133333333333 275.44339113741256, 18.301333333333332 275.43139113741256, 18.407999999999998 275.43139113741256 C 18.773333333333333 275.43139113741256, 19.047333333333334 275.54672447074586, 19.23 275.77739113741256 C 19.412666666666667 276.0080578040793, 19.514666666666663 276.32205780407924, 19.535999999999998 276.7193911374126 C 19.546666666666667 276.8793911374126, 19.55333333333333 277.03805780407924, 19.555999999999997 277.19539113741257 C 19.558666666666664 277.3527244707459, 19.557333333333332 277.50605780407926, 19.552 277.6553911374126 C 19.546666666666667 277.80472447074595, 19.538666666666668 277.94472447074594, 19.528 278.07539113741257 C 19.482666666666667 278.57405780407925, 19.353333333333335 278.93939113741254, 19.14 279.17139113741257 C 18.926666666666666 279.4033911374126, 18.581333333333333 279.5340578040792, 18.104 279.56339113741257 L 18.104 278.67139113741257 C 18.21333333333333 278.64205780407923, 18.296 278.5893911374126, 18.352 278.51339113741255 C 18.408 278.4373911374126, 18.44 278.33805780407926, 18.448 278.2153911374126 C 18.471999999999998 277.9247244707459, 18.485999999999997 277.66339113741253, 18.49 277.43139113741256 C 18.494 277.1993911374126, 18.485333333333333 276.97805780407924, 18.464 276.7673911374126 C 18.447999999999997 276.61272447074595, 18.396666666666665 276.4973911374126, 18.31 276.42139113741257 C 18.223333333333333 276.3453911374126, 18.090666666666664 276.3073911374126, 17.912 276.3073911374126 C 17.901333333333334 276.3073911374126, 17.890666666666668 276.3087244707459, 17.88 276.31139113741256 C 17.86933333333333 276.3140578040792, 17.86 276.3167244707459, 17.852 276.3193911374126 Z M 17.852 274.02739113741256 L 17.852 273.0953911374126 L 19.439999999999998 273.0953911374126 L 19.439999999999998 274.02739113741256 Z M 21.944 279.4953911374126 L 21.944 273.0953911374126 L 23.003999999999998 273.0953911374126 L 23.003999999999998 279.4953911374126 Z " stroke="none" fill-rule="nonzero" fill="#000000" fill-opacity="1" transform="matrix(1,0,0,1,5.05,13.314)" id="text15 l" />
  <path d="M 0 272.53946567634364 L 10 272.53946567634364 L 10 274.03946567634364 L 0 274.03946567634364 Z " stroke="none" fill-rule="evenodd" fill="#000000" fill-opacity="1" transform="matrix(1,0,0,1,5.05,13.314)" id="mark16 l" />
  <path d="M 0 264.5015402152747 L 10 264.5015402152747 L 10 266.0015402152747 L 0 266.0015402152747 Z " stroke="none" fill-rule="evenodd" fill="#000000" fill-opacity="1" transform="matrix(1,0,0,1,5.05,13.314)" id="mark17 l" />
  <path d="M 0 256.46361475420576 L 10 256.46361475420576 L 10 257.96361475420576 L 0 257.96361475420576 Z " stroke="none" fill-rule="evenodd" fill="#000000" fill-opacity="1" transform="matrix(1,0,0,1,5.05,13.314)" id="mark18 l" />
  <path d="M 0 248.42568929313686 L 10 248.42568929313686 L 10 249.92568929313686 L 0 249.92568929313686 Z " stroke="none" fill-rule="evenodd" fill="#000000" fill-opacity="1" transform="matrix(1,0,0,1,5.05,13.314)" id="mark19 l" />
  <path d="M 0 240.38776383206792 L 25 240.38776383206792 L 25 241.88776383206792 L 0 241.88776383206792 Z " stroke="none" fill-rule="evenodd" fill="#000000" fill-opacity="1" transform="matrix(1,0,0,1,5.05,13.314)" id="mark20 l" />
  <path d="M 12.319999999999999 239.33776383206794 C 12.317333333333334 239.2390971654013, 12.315333333333331 239.15043049873464, 12.313999999999998 239.07176383206794 C 12.312666666666665 238.9930971654013, 12.311333333333334 238.9190971654013, 12.309999999999999 238.84976383206794 C 12.308666666666667 238.78043049873457, 12.308 238.70843049873457, 12.308 238.63376383206793 C 12.308 238.55909716540128, 12.308 238.4744304987346, 12.308 238.37976383206794 C 12.308 238.28509716540128, 12.309333333333335 238.17376383206795, 12.312 238.04576383206793 C 12.32 237.7524304987346, 12.37 237.4904304987346, 12.462 237.25976383206793 C 12.554 237.02909716540125, 12.687999999999999 236.8230971654013, 12.863999999999999 236.64176383206794 C 13.04 236.46043049873464, 13.257333333333333 236.2990971654013, 13.515999999999998 236.15776383206793 L 14.047999999999998 235.86976383206795 C 14.234666666666666 235.7684304987346, 14.354 235.64643049873462, 14.405999999999999 235.50376383206793 C 14.457999999999998 235.36109716540125, 14.488 235.22709716540126, 14.495999999999999 235.10176383206795 C 14.506666666666664 234.95509716540127, 14.512666666666664 234.7984304987346, 14.514 234.63176383206795 C 14.51533333333333 234.4650971654013, 14.511999999999997 234.30843049873462, 14.504 234.16176383206795 C 14.498666666666665 234.05776383206793, 14.468666666666666 233.97176383206795, 14.413999999999998 233.90376383206794 C 14.359333333333332 233.83576383206793, 14.279999999999998 233.78709716540126, 14.175999999999998 233.75776383206792 L 14.175999999999998 232.86976383206795 C 14.663999999999998 232.90176383206796, 15.014 233.03309716540127, 15.225999999999999 233.26376383206792 C 15.437999999999999 233.49443049873457, 15.554666666666666 233.85509716540128, 15.575999999999999 234.34576383206795 C 15.578666666666663 234.40976383206794, 15.580666666666666 234.47509716540128, 15.581999999999999 234.54176383206794 C 15.583333333333332 234.6084304987346, 15.584 234.67309716540126, 15.584 234.73576383206793 C 15.584 234.7984304987346, 15.583333333333332 234.8604304987346, 15.581999999999999 234.92176383206794 C 15.580666666666666 234.98309716540126, 15.578666666666663 235.04309716540126, 15.575999999999999 235.10176383206795 C 15.565333333333331 235.3870971654013, 15.512 235.63376383206793, 15.415999999999999 235.84176383206793 C 15.32 236.04976383206792, 15.19 236.22976383206793, 15.026 236.38176383206795 C 14.862 236.5337638320679, 14.672 236.66976383206793, 14.456 236.78976383206793 L 13.851999999999999 237.11776383206794 C 13.737333333333332 237.1790971654013, 13.647333333333332 237.2630971654013, 13.581999999999999 237.36976383206795 C 13.516666666666666 237.4764304987346, 13.469999999999999 237.58976383206794, 13.441999999999998 237.70976383206795 C 13.413999999999998 237.82976383206795, 13.399999999999999 237.94176383206792, 13.399999999999999 238.04576383206793 L 13.399999999999999 239.33776383206794 Z M 12.328 235.29776383206794 C 12.322666666666667 235.1804304987346, 12.318666666666665 235.06576383206794, 12.315999999999999 234.95376383206792 C 12.313333333333333 234.84176383206795, 12.311333333333334 234.73576383206796, 12.309999999999999 234.63576383206794 C 12.308666666666667 234.53576383206791, 12.309333333333335 234.43909716540128, 12.312 234.34576383206795 C 12.330666666666666 233.85776383206797, 12.447333333333333 233.49843049873462, 12.661999999999999 233.26776383206794 C 12.876666666666665 233.03709716540126, 13.213333333333331 232.9044304987346, 13.671999999999999 232.86976383206795 L 13.671999999999999 233.76176383206794 C 13.576 233.79109716540125, 13.505333333333333 233.83776383206794, 13.459999999999999 233.90176383206793 C 13.414666666666665 233.96576383206792, 13.390666666666664 234.04309716540126, 13.387999999999998 234.13376383206793 C 13.382666666666665 234.34176383206795, 13.379333333333333 234.53509716540128, 13.378 234.71376383206794 C 13.376666666666667 234.8924304987346, 13.381333333333334 235.08709716540125, 13.392 235.29776383206794 Z M 13.904 239.33776383206794 L 13.904 238.40576383206795 L 15.5 238.40576383206795 L 15.5 239.33776383206794 Z M 16.196 237.92576383206793 C 16.188000000000002 237.49643049873458, 16.182666666666666 237.07976383206793, 16.18 236.67576383206793 C 16.177333333333333 236.27176383206793, 16.177999999999997 235.87643049873458, 16.182 235.48976383206792 C 16.186 235.10309716540127, 16.190666666666665 234.72176383206795, 16.196 234.34576383206795 C 16.209333333333333 233.90576383206798, 16.334000000000003 233.5604304987346, 16.57 233.30976383206794 C 16.805999999999997 233.05909716540128, 17.142666666666663 232.91376383206796, 17.58 232.87376383206794 L 17.58 233.76176383206794 C 17.382666666666665 233.81776383206795, 17.281333333333333 233.94709716540126, 17.276 234.14976383206795 C 17.262666666666668 234.52043049873458, 17.253333333333334 234.8684304987346, 17.248 235.19376383206793 C 17.242666666666665 235.51909716540126, 17.24 235.83576383206793, 17.24 236.14376383206795 C 17.24 236.45176383206797, 17.242666666666665 236.76643049873462, 17.248 237.08776383206794 C 17.253333333333334 237.40909716540125, 17.262666666666668 237.7524304987346, 17.276 238.11776383206794 C 17.281333333333333 238.32576383206793, 17.382666666666665 238.45776383206794, 17.58 238.51376383206792 L 17.58 239.40176383206793 C 17.142666666666663 239.36176383206794, 16.805999999999997 239.21576383206792, 16.57 238.96376383206794 C 16.334000000000003 238.71176383206796, 16.209333333333333 238.36576383206796, 16.196 237.92576383206793 Z M 18.084 239.40176383206793 L 18.084 238.50976383206793 C 18.268 238.45643049873462, 18.366666666666667 238.33243049873462, 18.38 238.13776383206795 C 18.398666666666667 237.67109716540128, 18.410666666666668 237.2224304987346, 18.416 236.79176383206794 C 18.421333333333333 236.36109716540128, 18.421333333333333 235.9304304987346, 18.416 235.49976383206794 C 18.410666666666668 235.06909716540127, 18.398666666666667 234.6164304987346, 18.38 234.14176383206794 C 18.374666666666666 233.94709716540126, 18.276 233.8204304987346, 18.084 233.76176383206794 L 18.084 232.87376383206794 C 18.513333333333335 232.91376383206796, 18.846666666666668 233.05909716540128, 19.084 233.30976383206794 C 19.321333333333335 233.5604304987346, 19.445333333333334 233.90576383206798, 19.456 234.34576383206795 C 19.46666666666667 234.66043049873463, 19.474666666666668 234.9704304987346, 19.48 235.27576383206792 C 19.485333333333333 235.58109716540125, 19.488 235.88176383206792, 19.488 236.17776383206794 C 19.488 236.47376383206793, 19.485333333333333 236.76709716540125, 19.48 237.05776383206793 C 19.474666666666668 237.34843049873461, 19.46666666666667 237.63776383206795, 19.456 237.92576383206793 C 19.439999999999998 238.37643049873463, 19.311999999999998 238.72509716540128, 19.072 238.97176383206792 C 18.832 239.2184304987346, 18.502666666666666 239.36176383206794, 18.084 239.40176383206793 Z M 21.944 239.33776383206794 L 21.944 232.93776383206793 L 23.003999999999998 232.93776383206793 L 23.003999999999998 239.33776383206794 Z " stroke="none" fill-rule="nonzero" fill="#000000" fill-opacity="1" transform="matrix(1,0,0,1,5.05,13.314)" id="text20 l" />
  <path d="M 0 232.34983837099898 L 10 232.34983837099898 L 10 233.84983837099898 L 0 233.84983837099898 Z " stroke="none" fill-rule="evenodd" fill="#000000" fill-opacity="1" transform="matrix(1,0,0,1,5.05,13.314)" id="mark21 l" />
  <path d="M 0 224.31191290993007 L 10 224.31191290993007 L 10 225.81191290993007 L 0 225.81191290993007 Z " stroke="none" fill-rule="evenodd" fill="#000000" fill-opacity="1" transform="matrix(1,0,0,1,5.05,13.314)" id="mark22 l" />
  <path d="M 0 216.27398744886113 L 10 216.27398744886113 L 10 217.77398744886113 L 0 217.77398744886113 Z " stroke="none" fill-rule="evenodd" fill="#000000" fill-opacity="1" transform="matrix(1,0,0,1,5.05,13.314)" id="mark23 l" />
  <path d="M 0 208.2360619877922 L 10 208.2360619877922 L 10 209.7360619877922 L 0 209.7360619877922 Z " stroke="none" fill-rule="evenodd" fill="#000000" fill-opacity="1" transform="matrix(1,0,0,1,5.05,13.314)" id="mark24 l" />
  <path d="M 0 200.19813652672326 L 25 200.19813652672326 L 25 201.69813652672326 L 0 201.69813652672326 Z " stroke="none" fill-rule="evenodd" fill="#000000" fill-opacity="1" transform="matrix(1,0,0,1,5.05,13.314)" id="mark25 l" />
  <path d="M 12.328 199.14813652672328 C 12.325333333333333 199.0494698600566, 12.323333333333332 198.96080319338995, 12.322 198.8821365267233 C 12.320666666666666 198.80346986005662, 12.319333333333333 198.7294698600566, 12.318 198.66013652672328 C 12.316666666666666 198.59080319338995, 12.315999999999999 198.51880319338994, 12.316 198.44413652672327 C 12.315999999999999 198.3694698600566, 12.315999999999999 198.28480319338993, 12.316 198.19013652672328 C 12.315999999999999 198.09546986005662, 12.317333333333334 197.9841365267233, 12.32 197.85613652672328 C 12.328 197.56280319338995, 12.378 197.30080319338995, 12.47 197.07013652672327 C 12.562000000000001 196.8394698600566, 12.696 196.6334698600566, 12.872 196.45213652672328 C 13.048 196.27080319338995, 13.265333333333334 196.1094698600566, 13.524000000000001 195.96813652672327 L 14.056000000000001 195.6801365267233 C 14.242666666666668 195.57880319338994, 14.362000000000002 195.45680319338993, 14.414 195.31413652672327 C 14.466000000000001 195.17146986005662, 14.495999999999999 195.0374698600566, 14.504 194.9121365267233 C 14.514666666666667 194.7654698600566, 14.520666666666667 194.60880319338997, 14.522 194.4421365267233 C 14.523333333333333 194.2754698600566, 14.520000000000001 194.11880319338997, 14.512 193.9721365267233 C 14.506666666666666 193.86813652672328, 14.476666666666667 193.78213652672326, 14.422 193.71413652672328 C 14.367333333333335 193.6461365267233, 14.288 193.5974698600566, 14.184000000000001 193.56813652672326 L 14.184000000000001 192.6801365267233 C 14.672 192.71213652672327, 15.022000000000002 192.8434698600566, 15.234 193.07413652672327 C 15.446000000000002 193.30480319338994, 15.562666666666667 193.6654698600566, 15.584 194.1561365267233 C 15.586666666666668 194.2201365267233, 15.588666666666668 194.28546986005665, 15.59 194.35213652672329 C 15.591333333333335 194.41880319338998, 15.592000000000002 194.48346986005663, 15.592 194.54613652672327 C 15.592000000000002 194.60880319338992, 15.591333333333335 194.67080319338993, 15.59 194.73213652672328 C 15.588666666666668 194.79346986005663, 15.586666666666668 194.85346986005663, 15.584 194.9121365267233 C 15.573333333333332 195.19746986005663, 15.52 195.44413652672327, 15.424 195.65213652672327 C 15.328 195.86013652672327, 15.197999999999999 196.04013652672327, 15.033999999999999 196.1921365267233 C 14.87 196.34413652672328, 14.68 196.48013652672327, 14.464 196.60013652672328 L 13.86 196.92813652672328 C 13.745333333333335 196.9894698600566, 13.655333333333335 197.0734698600566, 13.59 197.1801365267233 C 13.524666666666668 197.28680319338997, 13.478000000000002 197.40013652672326, 13.45 197.52013652672326 C 13.422 197.64013652672327, 13.408 197.75213652672326, 13.408 197.85613652672328 L 13.408 199.14813652672328 Z M 12.336 195.10813652672329 C 12.330666666666666 194.99080319338995, 12.326666666666664 194.8761365267233, 12.324 194.7641365267233 C 12.321333333333332 194.6521365267233, 12.319333333333333 194.54613652672327, 12.318 194.44613652672328 C 12.316666666666666 194.34613652672328, 12.317333333333334 194.2494698600566, 12.32 194.1561365267233 C 12.338666666666668 193.6681365267233, 12.455333333333336 193.30880319338996, 12.67 193.07813652672328 C 12.884666666666668 192.8474698600566, 13.221333333333334 192.71480319338997, 13.68 192.6801365267233 L 13.68 193.57213652672328 C 13.584 193.6014698600566, 13.513333333333332 193.64813652672325, 13.468 193.71213652672327 C 13.422666666666668 193.7761365267233, 13.398666666666667 193.8534698600566, 13.396 193.94413652672327 C 13.390666666666666 194.15213652672327, 13.387333333333332 194.3454698600566, 13.386 194.52413652672328 C 13.384666666666666 194.70280319338997, 13.389333333333333 194.89746986005662, 13.4 195.10813652672329 Z M 13.911999999999999 199.14813652672328 L 13.911999999999999 198.2161365267233 L 15.508 198.2161365267233 L 15.508 199.14813652672328 Z M 16.18 197.73213652672328 C 16.174666666666667 197.55880319338996, 16.173333333333332 197.4194698600566, 16.176 197.31413652672327 C 16.178666666666665 197.20880319338994, 16.181333333333335 197.10680319338996, 16.183999999999997 197.0081365267233 L 17.264 197.0081365267233 C 17.256 197.0854698600566, 17.25 197.1814698600566, 17.246 197.29613652672327 C 17.241999999999997 197.41080319338994, 17.240666666666666 197.52146986005658, 17.241999999999997 197.62813652672327 C 17.243333333333332 197.73480319338995, 17.246666666666666 197.81480319338993, 17.252 197.86813652672328 C 17.262666666666668 197.98813652672328, 17.297333333333334 198.0861365267233, 17.355999999999998 198.1621365267233 C 17.414666666666665 198.23813652672328, 17.497333333333334 198.29213652672325, 17.604 198.32413652672327 L 17.604 199.2161365267233 C 17.110666666666663 199.17880319338997, 16.75333333333333 199.04413652672326, 16.532 198.81213652672326 C 16.310666666666666 198.58013652672327, 16.19333333333333 198.2201365267233, 16.18 197.73213652672328 Z M 16.279999999999998 196.39613652672327 L 16.279999999999998 192.74813652672327 L 17.348 192.74813652672327 L 17.348 196.39613652672327 Z M 17.852 195.9721365267233 L 17.852 195.2161365267233 C 17.929333333333332 195.1761365267233, 18.014666666666667 195.1441365267233, 18.107999999999997 195.1201365267233 C 18.20133333333333 195.09613652672328, 18.301333333333332 195.08413652672328, 18.407999999999998 195.08413652672328 C 18.773333333333333 195.08413652672328, 19.047333333333334 195.19946986005664, 19.23 195.4301365267233 C 19.412666666666667 195.66080319338994, 19.514666666666663 195.97480319338996, 19.535999999999998 196.37213652672327 C 19.546666666666667 196.53213652672326, 19.55333333333333 196.69080319338997, 19.555999999999997 196.84813652672327 C 19.558666666666664 197.00546986005662, 19.557333333333332 197.15880319338993, 19.552 197.30813652672327 C 19.546666666666667 197.45746986005662, 19.538666666666668 197.5974698600566, 19.528 197.7281365267233 C 19.482666666666667 198.22680319338994, 19.353333333333335 198.59213652672327, 19.14 198.82413652672327 C 18.926666666666666 199.05613652672326, 18.581333333333333 199.18680319338995, 18.104 199.2161365267233 L 18.104 198.32413652672327 C 18.21333333333333 198.29480319338995, 18.296 198.2421365267233, 18.352 198.16613652672328 C 18.408 198.09013652672326, 18.44 197.99080319338992, 18.448 197.86813652672328 C 18.471999999999998 197.57746986005662, 18.485999999999997 197.31613652672326, 18.49 197.08413652672328 C 18.494 196.85213652672326, 18.485333333333333 196.63080319338994, 18.464 196.42013652672327 C 18.447999999999997 196.2654698600566, 18.396666666666665 196.15013652672326, 18.31 196.07413652672327 C 18.223333333333333 195.99813652672327, 18.090666666666664 195.96013652672332, 17.912 195.9601365267233 C 17.901333333333334 195.96013652672332, 17.890666666666668 195.96146986005664, 17.88 195.96413652672328 C 17.86933333333333 195.96680319338992, 17.86 195.96946986005662, 17.852 195.9721365267233 Z M 17.852 193.6801365267233 L 17.852 192.74813652672327 L 19.439999999999998 192.74813652672327 L 19.439999999999998 193.6801365267233 Z M 21.944 199.14813652672328 L 21.944 192.74813652672327 L 23.003999999999998 192.74813652672327 L 23.003999999999998 199.14813652672328 Z " stroke="none" fill-rule="nonzero" fill="#000000" fill-opacity="1" transform="matrix(1,0,0,1,5.05,13.314)" id="text25 l" />
  <path d="M 0 192.16021106565435 L 10 192.16021106565435 L 10 193.66021106565435 L 0 193.66021106565435 Z " stroke="none" fill-rule="evenodd" fill="#000000" fill-opacity="1" transform="matrix(1,0,0,1,5.05,13.314)" id="mark26 l" />
  <path d="M 0 184.12228560458541 L 10 184.12228560458541 L 10 185.62228560458541 L 0 185.62228560458541 Z " stroke="none" fill-rule="evenodd" fill="#000000" fill-opacity="1" transform="matrix(1,0,0,1,5.05,13.314)" id="mark27 l" />
  <path d="M 0 176.08436014351648 L 10 176.08436014351648 L 10 177.58436014351648 L 0 177.58436014351648 Z " stroke="none" fill-rule="evenodd" fill="#000000" fill-opacity="1" transform="matrix(1,0,0,1,5.05,13.314)" id="mark28 l" />
  <path d="M 0 168.04643468244754 L 10 168.04643468244754 L 10 169.54643468244754 L 0 169.54643468244754 Z " stroke="none" fill-rule="evenodd" fill="#000000" fill-opacity="1" transform="matrix(1,0,0,1,5.05,13.314)" id="mark29 l" />
  <path d="M 0 160.00850922137863 L 25 160.00850922137863 L 25 161.50850922137863 L 0 161.50850922137863 Z " stroke="none" fill-rule="evenodd" fill="#000000" fill-opacity="1" transform="matrix(1,0,0,1,5.05,13.314)" id="mark30 l" />
  <path d="M 12.223999999999998 157.54250922137865 C 12.221333333333334 157.4411758880453, 12.219333333333333 157.3571758880453, 12.218 157.29050922137864 C 12.216666666666667 157.22384255471198, 12.216666666666667 157.155842554712, 12.218 157.08650922137866 C 12.219333333333333 157.01717588804533, 12.221333333333334 156.927842554712, 12.223999999999998 156.81850922137866 L 13.303999999999998 156.81850922137866 L 13.303999999999998 157.68250922137864 C 13.303999999999998 157.91984255471198, 13.417333333333332 158.07050922137864, 13.643999999999998 158.13450922137864 L 13.643999999999998 159.02650922137866 C 13.155999999999999 158.9891758880453, 12.800666666666665 158.85450922137863, 12.578 158.62250922137864 C 12.355333333333334 158.39050922137864, 12.237333333333332 158.03050922137865, 12.223999999999998 157.54250922137865 Z M 12.292 153.49050922137866 L 12.292 152.55850922137864 L 15.536 152.55850922137864 L 15.536 153.49050922137866 Z M 14.143999999999998 158.13850922137865 C 14.367999999999999 158.08250922137864, 14.483999999999998 157.93184255471198, 14.491999999999999 157.68650922137866 C 14.497333333333334 157.483842554712, 14.500666666666666 157.30117588804532, 14.501999999999999 157.13850922137865 C 14.503333333333332 156.975842554712, 14.498666666666665 156.81850922137863, 14.488 156.66650922137865 C 14.48 156.50917588804532, 14.431999999999999 156.375842554712, 14.344 156.26650922137864 C 14.256 156.15717588804532, 14.089333333333332 156.10517588804532, 13.844 156.11050922137863 L 13.096 156.11850922137864 L 13.068 155.22650922137865 L 14.027999999999999 153.84250922137863 L 15.216 153.84250922137863 L 14.248 155.19450922137864 L 14.28 155.19450922137864 C 14.712 155.19450922137864, 15.028666666666666 155.3171758880453, 15.229999999999999 155.56250922137866 C 15.431333333333333 155.807842554712, 15.544 156.1851758880453, 15.568 156.69450922137864 C 15.57333333333333 156.76650922137864, 15.576666666666664 156.83850922137864, 15.578 156.91050922137865 C 15.57933333333333 156.98250922137865, 15.579999999999998 157.0531758880453, 15.579999999999998 157.12250922137864 C 15.579999999999998 157.19184255471197, 15.57933333333333 157.2611758880453, 15.578 157.33050922137863 C 15.576666666666664 157.39984255471197, 15.57333333333333 157.47050922137865, 15.568 157.54250922137865 C 15.549333333333333 158.03850922137866, 15.428666666666665 158.40317588804533, 15.206 158.63650922137865 C 14.983333333333334 158.86984255471197, 14.630666666666666 158.999842554712, 14.148 159.02650922137866 Z M 16.196 157.54650922137864 C 16.188000000000002 157.1171758880453, 16.182666666666666 156.70050922137864, 16.18 156.29650922137864 C 16.177333333333333 155.89250922137865, 16.177999999999997 155.49717588804532, 16.182 155.11050922137863 C 16.186 154.72384255471198, 16.190666666666665 154.34250922137866, 16.196 153.96650922137866 C 16.209333333333333 153.52650922137866, 16.334000000000003 153.18117588804532, 16.57 152.93050922137866 C 16.805999999999997 152.679842554712, 17.142666666666663 152.53450922137864, 17.58 152.49450922137865 L 17.58 153.38250922137865 C 17.382666666666665 153.43850922137867, 17.281333333333333 153.567842554712, 17.276 153.77050922137866 C 17.262666666666668 154.14117588804532, 17.253333333333334 154.4891758880453, 17.248 154.81450922137864 C 17.242666666666665 155.13984255471198, 17.24 155.45650922137864, 17.24 155.76450922137866 C 17.24 156.07250922137865, 17.242666666666665 156.3871758880453, 17.248 156.70850922137865 C 17.253333333333334 157.029842554712, 17.262666666666668 157.37317588804532, 17.276 157.73850922137865 C 17.281333333333333 157.94650922137865, 17.382666666666665 158.07850922137865, 17.58 158.13450922137864 L 17.58 159.02250922137864 C 17.142666666666663 158.98250922137865, 16.805999999999997 158.83650922137863, 16.57 158.58450922137865 C 16.334000000000003 158.33250922137864, 16.209333333333333 157.98650922137864, 16.196 157.54650922137864 Z M 18.084 159.02250922137864 L 18.084 158.13050922137865 C 18.268 158.0771758880453, 18.366666666666667 157.95317588804534, 18.38 157.75850922137866 C 18.398666666666667 157.291842554712, 18.410666666666668 156.84317588804532, 18.416 156.41250922137866 C 18.421333333333333 155.981842554712, 18.421333333333333 155.5511758880453, 18.416 155.12050922137865 C 18.410666666666668 154.68984255471196, 18.398666666666667 154.2371758880453, 18.38 153.76250922137865 C 18.374666666666666 153.56784255471197, 18.276 153.4411758880453, 18.084 153.38250922137865 L 18.084 152.49450922137865 C 18.513333333333335 152.53450922137864, 18.846666666666668 152.679842554712, 19.084 152.93050922137866 C 19.321333333333335 153.18117588804532, 19.445333333333334 153.52650922137866, 19.456 153.96650922137866 C 19.46666666666667 154.2811758880453, 19.474666666666668 154.5911758880453, 19.48 154.89650922137864 C 19.485333333333333 155.20184255471196, 19.488 155.50250922137866, 19.488 155.79850922137865 C 19.488 156.09450922137864, 19.485333333333333 156.38784255471197, 19.48 156.67850922137865 C 19.474666666666668 156.96917588804533, 19.46666666666667 157.25850922137866, 19.456 157.54650922137864 C 19.439999999999998 157.99717588804532, 19.311999999999998 158.34584255471196, 19.072 158.59250922137863 C 18.832 158.8391758880453, 18.502666666666666 158.98250922137865, 18.084 159.02250922137864 Z M 21.944 158.95850922137865 L 21.944 152.55850922137864 L 23.003999999999998 152.55850922137864 L 23.003999999999998 158.95850922137865 Z " stroke="none" fill-rule="nonzero" fill="#000000" fill-opacity="1" transform="matrix(1,0,0,1,5.05,13.314)" id="text30 l" />
  <path d="M 0 151.9705837603097 L 10 151.9705837603097 L 10 153.4705837603097 L 0 153.4705837603097 Z " stroke="none" fill-rule="evenodd" fill="#000000" fill-opacity="1" transform="matrix(1,0,0,1,5.05,13.314)" id="mark31 l" />
  <path d="M 0 143.93265829924076 L 10 143.93265829924076 L 10 145.43265829924076 L 0 145.43265829924076 Z " stroke="none" fill-rule="evenodd" fill="#000000" fill-opacity="1" transform="matrix(1,0,0,1,5.05,13.314)" id="mark32 l" />
  <path d="M 0 135.89473283817182 L 10 135.89473283817182 L 10 137.39473283817182 L 0 137.39473283817182 Z " stroke="none" fill-rule="evenodd" fill="#000000" fill-opacity="1" transform="matrix(1,0,0,1,5.05,13.314)" id="mark33 l" />
  <path d="M 0 127.85680737710288 L 10 127.85680737710288 L 10 129.35680737710288 L 0 129.35680737710288 Z " stroke="none" fill-rule="evenodd" fill="#000000" fill-opacity="1" transform="matrix(1,0,0,1,5.05,13.314)" id="mark34 l" />
  <path d="M 0 119.818881916034 L 25 119.818881916034 L 25 121.318881916034 L 0 121.318881916034 Z " stroke="none" fill-rule="evenodd" fill="#000000" fill-opacity="1" transform="matrix(1,0,0,1,5.05,13.314)" id="mark35 l" />
  <path d="M 12.232 117.32088191603401 C 12.229333333333333 117.21954858270068, 12.227333333333334 117.13554858270068, 12.226 117.068881916034 C 12.224666666666668 117.00221524936734, 12.224666666666668 116.93421524936734, 12.226 116.86488191603401 C 12.227333333333334 116.79554858270068, 12.229333333333333 116.70621524936735, 12.232 116.59688191603401 L 13.312 116.59688191603401 L 13.312 117.46088191603401 C 13.312 117.69821524936734, 13.425333333333333 117.848881916034, 13.652 117.91288191603401 L 13.652 118.804881916034 C 13.164 118.76754858270067, 12.808666666666667 118.63288191603401, 12.586 118.40088191603401 C 12.363333333333333 118.16888191603401, 12.245333333333335 117.80888191603401, 12.232 117.32088191603401 Z M 12.3 113.268881916034 L 12.3 112.336881916034 L 15.544 112.336881916034 L 15.544 113.268881916034 Z M 14.152000000000001 117.91688191603401 C 14.376000000000001 117.86088191603402, 14.492 117.71021524936734, 14.5 117.464881916034 C 14.505333333333333 117.26221524936733, 14.508666666666667 117.07954858270068, 14.51 116.91688191603401 C 14.511333333333333 116.75421524936735, 14.506666666666668 116.59688191603401, 14.496 116.444881916034 C 14.488 116.28754858270067, 14.440000000000001 116.15421524936733, 14.352 116.044881916034 C 14.264 115.93554858270068, 14.097333333333335 115.88354858270068, 13.852 115.88888191603401 L 13.104 115.896881916034 L 13.076 115.00488191603401 L 14.036 113.62088191603401 L 15.224 113.62088191603401 L 14.256 114.97288191603401 L 14.288 114.97288191603401 C 14.719999999999999 114.97288191603403, 15.036666666666665 115.09554858270067, 15.238 115.34088191603401 C 15.439333333333334 115.58621524936734, 15.552 115.96354858270067, 15.576 116.47288191603401 C 15.581333333333333 116.544881916034, 15.584666666666667 116.616881916034, 15.586 116.688881916034 C 15.587333333333333 116.76088191603401, 15.588000000000001 116.83154858270068, 15.588000000000001 116.90088191603401 C 15.588000000000001 116.97021524936734, 15.587333333333333 117.03954858270068, 15.586 117.10888191603401 C 15.584666666666667 117.17821524936734, 15.581333333333333 117.24888191603401, 15.576 117.32088191603401 C 15.557333333333334 117.816881916034, 15.436666666666667 118.18154858270067, 15.214 118.414881916034 C 14.991333333333333 118.64821524936734, 14.638666666666666 118.77821524936735, 14.156 118.804881916034 Z M 16.18 117.32088191603401 C 16.174666666666667 117.14754858270068, 16.173333333333332 117.00821524936734, 16.176 116.902881916034 C 16.178666666666665 116.79754858270067, 16.181333333333335 116.69554858270067, 16.183999999999997 116.59688191603401 L 17.264 116.59688191603401 C 17.256 116.67421524936734, 17.25 116.77021524936734, 17.246 116.884881916034 C 17.241999999999997 116.99954858270067, 17.240666666666666 117.11021524936734, 17.241999999999997 117.21688191603401 C 17.243333333333332 117.32354858270068, 17.246666666666666 117.40354858270068, 17.252 117.456881916034 C 17.262666666666668 117.57688191603401, 17.297333333333334 117.67488191603401, 17.355999999999998 117.750881916034 C 17.414666666666665 117.82688191603401, 17.497333333333334 117.88088191603401, 17.604 117.91288191603401 L 17.604 118.804881916034 C 17.110666666666663 118.76754858270067, 16.75333333333333 118.63288191603401, 16.532 118.40088191603401 C 16.310666666666666 118.16888191603401, 16.19333333333333 117.80888191603401, 16.18 117.32088191603401 Z M 16.279999999999998 115.98488191603401 L 16.279999999999998 112.336881916034 L 17.348 112.336881916034 L 17.348 115.98488191603401 Z M 17.852 115.560881916034 L 17.852 114.804881916034 C 17.929333333333332 114.764881916034, 18.014666666666667 114.73288191603399, 18.107999999999997 114.708881916034 C 18.20133333333333 114.68488191603402, 18.301333333333332 114.67288191603402, 18.407999999999998 114.67288191603402 C 18.773333333333333 114.67288191603402, 19.047333333333334 114.78821524936734, 19.23 115.018881916034 C 19.412666666666667 115.24954858270067, 19.514666666666663 115.56354858270068, 19.535999999999998 115.96088191603401 C 19.546666666666667 116.12088191603401, 19.55333333333333 116.27954858270067, 19.555999999999997 116.43688191603401 C 19.558666666666664 116.59421524936735, 19.557333333333332 116.74754858270067, 19.552 116.896881916034 C 19.546666666666667 117.04621524936734, 19.538666666666668 117.18621524936734, 19.528 117.316881916034 C 19.482666666666667 117.81554858270067, 19.353333333333335 118.180881916034, 19.14 118.41288191603401 C 18.926666666666666 118.644881916034, 18.581333333333333 118.77554858270068, 18.104 118.804881916034 L 18.104 117.91288191603401 C 18.21333333333333 117.88354858270068, 18.296 117.83088191603402, 18.352 117.75488191603401 C 18.408 117.678881916034, 18.44 117.57954858270067, 18.448 117.456881916034 C 18.471999999999998 117.16621524936734, 18.485999999999997 116.90488191603401, 18.49 116.67288191603402 C 18.494 116.44088191603402, 18.485333333333333 116.21954858270067, 18.464 116.00888191603401 C 18.447999999999997 115.85421524936734, 18.396666666666665 115.73888191603402, 18.31 115.66288191603401 C 18.223333333333333 115.586881916034, 18.090666666666664 115.54888191603399, 17.912 115.548881916034 C 17.901333333333334 115.54888191603399, 17.890666666666668 115.55021524936734, 17.88 115.55288191603401 C 17.86933333333333 115.55554858270068, 17.86 115.55821524936735, 17.852 115.560881916034 Z M 17.852 113.268881916034 L 17.852 112.336881916034 L 19.439999999999998 112.336881916034 L 19.439999999999998 113.268881916034 Z M 21.944 118.73688191603401 L 21.944 112.336881916034 L 23.003999999999998 112.336881916034 L 23.003999999999998 118.73688191603401 Z " stroke="none" fill-rule="nonzero" fill="#000000" fill-opacity="1" transform="matrix(1,0,0,1,5.05,13.314)" id="text35 l" />
  <path d="M 0 111.78095645496506 L 10 111.78095645496506 L 10 113.28095645496506 L 0 113.28095645496506 Z " stroke="none" fill-rule="evenodd" fill="#000000" fill-opacity="1" transform="matrix(1,0,0,1,5.05,13.314)" id="mark36 l" />
  <path d="M 0 103.74303099389613 L 10 103.74303099389613 L 10 105.24303099389613 L 0 105.24303099389613 Z " stroke="none" fill-rule="evenodd" fill="#000000" fill-opacity="1" transform="matrix(1,0,0,1,5.05,13.314)" id="mark37 l" />
  <path d="M 0 95.70510553282719 L 10 95.70510553282719 L 10 97.20510553282719 L 0 97.20510553282719 Z " stroke="none" fill-rule="evenodd" fill="#000000" fill-opacity="1" transform="matrix(1,0,0,1,5.05,13.314)" id="mark38 l" />
  <path d="M 0 87.66718007175825 L 10 87.66718007175825 L 10 89.16718007175825 L 0 89.16718007175825 Z " stroke="none" fill-rule="evenodd" fill="#000000" fill-opacity="1" transform="matrix(1,0,0,1,5.05,13.314)" id="mark39 l" />
  <path d="M 0 79.62925461068932 L 25 79.62925461068932 L 25 81.12925461068932 L 0 81.12925461068932 Z " stroke="none" fill-rule="evenodd" fill="#000000" fill-opacity="1" transform="matrix(1,0,0,1,5.05,13.314)" id="mark40 l" />
  <path d="M 11.739999999999998 76.89525461068932 L 11.739999999999998 76.01925461068932 L 12.455999999999998 74.13925461068932 L 13.495999999999999 74.13925461068932 L 12.771999999999998 75.97125461068931 L 13.171999999999997 75.97125461068931 L 13.171999999999997 76.89525461068932 Z M 13.675999999999998 78.57925461068932 L 13.675999999999998 72.17925461068931 L 14.683999999999997 72.17925461068931 L 14.683999999999997 78.57925461068932 Z M 15.187999999999999 76.89525461068932 L 15.187999999999999 75.97125461068931 L 15.655999999999999 75.97125461068931 L 15.655999999999999 76.89525461068932 Z M 16.195999999999998 77.16725461068931 C 16.188 76.73792127735598, 16.182666666666666 76.32125461068932, 16.18 75.91725461068931 C 16.177333333333333 75.51325461068932, 16.177999999999997 75.11792127735599, 16.182 74.73125461068932 C 16.186 74.34458794402265, 16.190666666666665 73.96325461068932, 16.195999999999998 73.58725461068931 C 16.20933333333333 73.14725461068932, 16.333999999999996 72.80192127735597, 16.569999999999997 72.55125461068931 C 16.805999999999997 72.30058794402265, 17.142666666666663 72.15525461068933, 17.58 72.11525461068932 L 17.58 73.00325461068932 C 17.382666666666665 73.05925461068932, 17.281333333333333 73.18858794402266, 17.275999999999996 73.39125461068932 C 17.262666666666664 73.76192127735598, 17.25333333333333 74.10992127735598, 17.247999999999998 74.43525461068931 C 17.242666666666665 74.76058794402265, 17.24 75.07725461068931, 17.24 75.38525461068932 C 17.24 75.69325461068932, 17.242666666666665 76.00792127735599, 17.247999999999998 76.32925461068932 C 17.25333333333333 76.65058794402265, 17.262666666666664 76.99392127735598, 17.275999999999996 77.35925461068932 C 17.281333333333333 77.56725461068932, 17.382666666666665 77.69925461068931, 17.58 77.75525461068932 L 17.58 78.64325461068931 C 17.142666666666663 78.60325461068932, 16.805999999999997 78.45725461068932, 16.569999999999997 78.20525461068932 C 16.333999999999996 77.95325461068933, 16.20933333333333 77.60725461068932, 16.195999999999998 77.16725461068931 Z M 18.084 78.64325461068931 L 18.084 77.75125461068932 C 18.268 77.69792127735599, 18.366666666666667 77.57392127735598, 18.38 77.37925461068932 C 18.398666666666664 76.91258794402265, 18.410666666666664 76.46392127735598, 18.415999999999997 76.03325461068931 C 18.42133333333333 75.60258794402266, 18.42133333333333 75.17192127735599, 18.415999999999997 74.74125461068932 C 18.410666666666664 74.31058794402266, 18.398666666666664 73.85792127735598, 18.38 73.38325461068932 C 18.374666666666666 73.18858794402266, 18.276 73.06192127735599, 18.084 73.00325461068932 L 18.084 72.11525461068932 C 18.513333333333332 72.15525461068933, 18.846666666666664 72.30058794402265, 19.083999999999996 72.55125461068931 C 19.32133333333333 72.80192127735597, 19.44533333333333 73.14725461068932, 19.456 73.58725461068931 C 19.466666666666665 73.90192127735598, 19.474666666666664 74.21192127735598, 19.479999999999997 74.51725461068932 C 19.48533333333333 74.82258794402266, 19.488 75.12325461068932, 19.488 75.41925461068932 C 19.488 75.71525461068933, 19.48533333333333 76.00858794402265, 19.479999999999997 76.29925461068932 C 19.474666666666664 76.58992127735598, 19.466666666666665 76.87925461068932, 19.456 77.16725461068931 C 19.439999999999998 77.61792127735598, 19.311999999999998 77.96658794402265, 19.072 78.21325461068932 C 18.831999999999997 78.45992127735599, 18.502666666666663 78.60325461068932, 18.084 78.64325461068931 Z M 21.944 78.57925461068932 L 21.944 72.17925461068931 L 23.003999999999998 72.17925461068931 L 23.003999999999998 78.57925461068932 Z " stroke="none" fill-rule="nonzero" fill="#000000" fill-opacity="1" transform="matrix(1,0,0,1,5.05,13.314)" id="text40 l" />
  <path d="M 0 71.59132914962038 L 10 71.59132914962038 L 10 73.09132914962038 L 0 73.09132914962038 Z " stroke="none" fill-rule="evenodd" fill="#000000" fill-opacity="1" transform="matrix(1,0,0,1,5.05,13.314)" id="mark41 l" />
  <path d="M 0 63.55340368855144 L 10 63.55340368855144 L 10 65.05340368855144 L 0 65.05340368855144 Z " stroke="none" fill-rule="evenodd" fill="#000000" fill-opacity="1" transform="matrix(1,0,0,1,5.05,13.314)" id="mark42 l" />
  <path d="M 0 55.51547822748256 L 10 55.51547822748256 L 10 57.01547822748256 L 0 57.01547822748256 Z " stroke="none" fill-rule="evenodd" fill="#000000" fill-opacity="1" transform="matrix(1,0,0,1,5.05,13.314)" id="mark43 l" />
  <path d="M 0 47.47755276641362 L 10 47.47755276641362 L 10 48.97755276641362 L 0 48.97755276641362 Z " stroke="none" fill-rule="evenodd" fill="#000000" fill-opacity="1" transform="matrix(1,0,0,1,5.05,13.314)" id="mark44 l" />
  <path d="M 0 39.439627305344686 L 25 39.439627305344686 L 25 40.939627305344686 L 0 40.939627305344686 Z " stroke="none" fill-rule="evenodd" fill="#000000" fill-opacity="1" transform="matrix(1,0,0,1,5.05,13.314)" id="mark45 l" />
  <path d="M 11.748 36.67362730534469 L 11.748 35.79762730534468 L 12.463999999999999 33.91762730534469 L 13.503999999999998 33.91762730534469 L 12.78 35.74962730534469 L 13.18 35.74962730534469 L 13.18 36.67362730534469 Z M 13.684 38.357627305344685 L 13.684 31.957627305344687 L 14.691999999999998 31.957627305344687 L 14.691999999999998 38.357627305344685 Z M 15.195999999999998 36.67362730534469 L 15.195999999999998 35.74962730534469 L 15.663999999999998 35.74962730534469 L 15.663999999999998 36.67362730534469 Z M 16.18 36.94162730534469 C 16.174666666666667 36.76829397201135, 16.173333333333332 36.628960638678016, 16.176 36.52362730534468 C 16.178666666666665 36.418293972011355, 16.181333333333335 36.31629397201135, 16.183999999999997 36.217627305344685 L 17.264 36.217627305344685 C 17.256 36.29496063867802, 17.25 36.39096063867802, 17.246 36.50562730534469 C 17.241999999999997 36.62029397201135, 17.240666666666666 36.73096063867801, 17.241999999999997 36.83762730534468 C 17.243333333333332 36.94429397201135, 17.246666666666666 37.02429397201135, 17.252 37.077627305344684 C 17.262666666666668 37.19762730534468, 17.297333333333334 37.29562730534469, 17.355999999999998 37.37162730534469 C 17.414666666666665 37.44762730534469, 17.497333333333334 37.501627305344684, 17.604 37.53362730534469 L 17.604 38.42562730534468 C 17.110666666666663 38.388293972011354, 16.75333333333333 38.253627305344686, 16.532 38.02162730534469 C 16.310666666666666 37.78962730534469, 16.19333333333333 37.42962730534469, 16.18 36.94162730534469 Z M 16.279999999999998 35.60562730534468 L 16.279999999999998 31.957627305344687 L 17.348 31.957627305344687 L 17.348 35.60562730534468 Z M 17.852 35.18162730534468 L 17.852 34.42562730534468 C 17.929333333333332 34.385627305344684, 18.014666666666667 34.35362730534469, 18.107999999999997 34.32962730534469 C 18.20133333333333 34.305627305344686, 18.301333333333332 34.293627305344685, 18.407999999999998 34.293627305344685 C 18.773333333333333 34.293627305344685, 19.047333333333334 34.40896063867802, 19.23 34.63962730534469 C 19.412666666666667 34.87029397201135, 19.514666666666663 35.184293972011346, 19.535999999999998 35.58162730534468 C 19.546666666666667 35.74162730534468, 19.55333333333333 35.900293972011355, 19.555999999999997 36.05762730534469 C 19.558666666666664 36.21496063867802, 19.557333333333332 36.36829397201135, 19.552 36.51762730534468 C 19.546666666666667 36.66696063867802, 19.538666666666668 36.80696063867802, 19.528 36.937627305344684 C 19.482666666666667 37.436293972011356, 19.353333333333335 37.80162730534469, 19.14 38.03362730534469 C 18.926666666666666 38.26562730534469, 18.581333333333333 38.39629397201135, 18.104 38.42562730534468 L 18.104 37.53362730534469 C 18.21333333333333 37.504293972011354, 18.296 37.45162730534469, 18.352 37.375627305344686 C 18.408 37.299627305344686, 18.44 37.20029397201135, 18.448 37.077627305344684 C 18.471999999999998 36.78696063867802, 18.485999999999997 36.525627305344685, 18.49 36.293627305344685 C 18.494 36.061627305344686, 18.485333333333333 35.84029397201135, 18.464 35.629627305344684 C 18.447999999999997 35.47496063867802, 18.396666666666665 35.35962730534469, 18.31 35.28362730534469 C 18.223333333333333 35.20762730534469, 18.090666666666664 35.16962730534468, 17.912 35.16962730534468 C 17.901333333333334 35.16962730534468, 17.890666666666668 35.17096063867802, 17.88 35.17362730534469 C 17.86933333333333 35.17629397201135, 17.86 35.17896063867802, 17.852 35.18162730534468 Z M 17.852 32.88962730534469 L 17.852 31.957627305344687 L 19.439999999999998 31.957627305344687 L 19.439999999999998 32.88962730534469 Z M 21.944 38.357627305344685 L 21.944 31.957627305344687 L 23.003999999999998 31.957627305344687 L 23.003999999999998 38.357627305344685 Z " stroke="none" fill-rule="nonzero" fill="#000000" fill-opacity="1" transform="matrix(1,0,0,1,5.05,13.314)" id="text45 l" />
  <path d="M 0 31.40170184427575 L 10 31.40170184427575 L 10 32.90170184427575 L 0 32.90170184427575 Z " stroke="none" fill-rule="evenodd" fill="#000000" fill-opacity="1" transform="matrix(1,0,0,1,5.05,13.314)" id="mark46 l" />
  <path d="M 0 23.36377638320681 L 10 23.36377638320681 L 10 24.86377638320681 L 0 24.86377638320681 Z " stroke="none" fill-rule="evenodd" fill="#000000" fill-opacity="1" transform="matrix(1,0,0,1,5.05,13.314)" id="mark47 l" />
  <path d="M 0 15.325850922137874 L 10 15.325850922137874 L 10 16.825850922137874 L 0 16.825850922137874 Z " stroke="none" fill-rule="evenodd" fill="#000000" fill-opacity="1" transform="matrix(1,0,0,1,5.05,13.314)" id="mark48 l" />
  <path d="M 0 7.287925461068937 L 10 7.287925461068937 L 10 8.787925461068937 L 0 8.787925461068937 Z " stroke="none" fill-rule="evenodd" fill="#000000" fill-opacity="1" transform="matrix(1,0,0,1,5.05,13.314)" id="mark49 l" />
  <path d="M 0 -0.75 L 25 -0.75 L 25 0.75 L 0 0.75 Z " stroke="none" fill-rule="evenodd" fill="#000000" fill-opacity="1" transform="matrix(1,0,0,1,5.05,13.314)" id="mark50 l" />
  <path d="M 12.204 -3.2159999999999997 C 12.198666666666668 -3.389333333333333, 12.197333333333333 -3.528666666666667, 12.2 -3.634 C 12.202666666666667 -3.7393333333333336, 12.205333333333336 -3.841333333333333, 12.208 -3.94 L 13.288 -3.94 C 13.280000000000001 -3.8626666666666667, 13.274000000000001 -3.7666666666666666, 13.27 -3.6519999999999997 C 13.265999999999998 -3.5373333333333328, 13.264666666666667 -3.4266666666666667, 13.266 -3.32 C 13.267333333333333 -3.213333333333334, 13.270666666666667 -3.1333333333333337, 13.276 -3.08 C 13.286666666666665 -2.96, 13.321333333333332 -2.862, 13.379999999999999 -2.7859999999999996 C 13.438666666666666 -2.71, 13.521333333333335 -2.6559999999999997, 13.628 -2.6239999999999997 L 13.628 -1.7319999999999998 C 13.134666666666668 -1.7693333333333332, 12.777333333333335 -1.904, 12.556 -2.1359999999999997 C 12.334666666666667 -2.368, 12.217333333333332 -2.7279999999999998, 12.204 -3.2159999999999997 Z M 12.304 -4.552 L 12.304 -8.2 L 13.372 -8.2 L 13.372 -4.552 Z M 13.876 -4.976 L 13.876 -5.731999999999999 C 13.953333333333333 -5.771999999999999, 14.038666666666668 -5.804, 14.132 -5.828 C 14.225333333333333 -5.852, 14.325333333333333 -5.864, 14.432 -5.864 C 14.797333333333334 -5.864, 15.071333333333332 -5.748666666666667, 15.254 -5.518 C 15.436666666666667 -5.287333333333333, 15.538666666666668 -4.973333333333333, 15.56 -4.576 C 15.570666666666668 -4.416, 15.577333333333334 -4.257333333333333, 15.58 -4.1 C 15.582666666666666 -3.9426666666666668, 15.581333333333333 -3.7893333333333334, 15.576 -3.6399999999999997 C 15.570666666666666 -3.490666666666667, 15.562666666666665 -3.3506666666666667, 15.552 -3.2199999999999998 C 15.506666666666668 -2.721333333333333, 15.377333333333333 -2.356, 15.164 -2.1239999999999997 C 14.950666666666667 -1.892, 14.605333333333332 -1.7613333333333332, 14.128 -1.7319999999999998 L 14.128 -2.6239999999999997 C 14.237333333333334 -2.653333333333333, 14.32 -2.7059999999999995, 14.376 -2.782 C 14.432 -2.8579999999999997, 14.464 -2.957333333333333, 14.472 -3.08 C 14.495999999999999 -3.3706666666666667, 14.509999999999998 -3.6319999999999997, 14.514 -3.864 C 14.518 -4.096, 14.509333333333334 -4.317333333333333, 14.488 -4.5280000000000005 C 14.472000000000001 -4.682666666666667, 14.420666666666666 -4.798, 14.334 -4.874 C 14.247333333333334 -4.949999999999999, 14.114666666666666 -4.9879999999999995, 13.936 -4.9879999999999995 C 13.925333333333333 -4.9879999999999995, 13.914666666666665 -4.986666666666666, 13.904 -4.984 C 13.893333333333334 -4.981333333333334, 13.884 -4.978666666666667, 13.876 -4.976 Z M 13.876 -7.268 L 13.876 -8.2 L 15.464 -8.2 L 15.464 -7.268 Z M 16.196 -3.2119999999999997 C 16.188000000000002 -3.641333333333333, 16.182666666666666 -4.058, 16.18 -4.462 C 16.177333333333333 -4.866, 16.177999999999997 -5.261333333333333, 16.182 -5.648 C 16.186 -6.034666666666666, 16.190666666666665 -6.416, 16.196 -6.792 C 16.209333333333333 -7.231999999999999, 16.334000000000003 -7.577333333333334, 16.57 -7.828 C 16.805999999999997 -8.078666666666667, 17.142666666666663 -8.224, 17.58 -8.264 L 17.58 -7.3759999999999994 C 17.382666666666665 -7.32, 17.281333333333333 -7.190666666666667, 17.276 -6.9879999999999995 C 17.262666666666668 -6.617333333333333, 17.253333333333334 -6.269333333333333, 17.248 -5.944 C 17.242666666666665 -5.618666666666666, 17.24 -5.302, 17.24 -4.994 C 17.24 -4.686, 17.242666666666665 -4.371333333333333, 17.248 -4.05 C 17.253333333333334 -3.7286666666666664, 17.262666666666668 -3.3853333333333326, 17.276 -3.0199999999999996 C 17.281333333333333 -2.812, 17.382666666666665 -2.6799999999999997, 17.58 -2.6239999999999997 L 17.58 -1.7359999999999998 C 17.142666666666663 -1.7759999999999998, 16.805999999999997 -1.9219999999999997, 16.57 -2.174 C 16.334000000000003 -2.4259999999999997, 16.209333333333333 -2.772, 16.196 -3.2119999999999997 Z M 18.084 -1.7359999999999998 L 18.084 -2.6279999999999997 C 18.268 -2.681333333333333, 18.366666666666667 -2.8053333333333335, 18.38 -3 C 18.398666666666667 -3.4666666666666663, 18.410666666666668 -3.915333333333333, 18.416 -4.346 C 18.421333333333333 -4.776666666666666, 18.421333333333333 -5.207333333333333, 18.416 -5.638 C 18.410666666666668 -6.068666666666666, 18.398666666666667 -6.521333333333333, 18.38 -6.9959999999999996 C 18.374666666666666 -7.190666666666667, 18.276 -7.317333333333334, 18.084 -7.3759999999999994 L 18.084 -8.264 C 18.513333333333335 -8.224, 18.846666666666668 -8.078666666666667, 19.084 -7.828 C 19.321333333333335 -7.577333333333334, 19.445333333333334 -7.231999999999999, 19.456 -6.792 C 19.46666666666667 -6.477333333333332, 19.474666666666668 -6.167333333333333, 19.48 -5.861999999999999 C 19.485333333333333 -5.556666666666667, 19.488 -5.256, 19.488 -4.96 C 19.488 -4.664, 19.485333333333333 -4.370666666666667, 19.48 -4.08 C 19.474666666666668 -3.7893333333333334, 19.46666666666667 -3.5, 19.456 -3.2119999999999997 C 19.439999999999998 -2.761333333333333, 19.311999999999998 -2.4126666666666665, 19.072 -2.166 C 18.832 -1.9193333333333331, 18.502666666666666 -1.7759999999999998, 18.084 -1.7359999999999998 Z M 21.944 -1.7999999999999998 L 21.944 -8.2 L 23.003999999999998 -8.2 L 23.003999999999998 -1.7999999999999998 Z " stroke="none" fill-rule="nonzero" fill="#000000" fill-opacity="1" transform="matrix(1,0,0,1,5.05,13.314)" id="text50 l" />
  <path d="M -5 -13.264 L 30 -13.264 L 30 400.62634759237756 L -5 400.62634759237756 Z " stroke="#FF0000" stroke-opacity="1" stroke-width="0.1" stroke-linecap="butt" stroke-linejoin="miter" fill="none" transform="matrix(1,0,0,1,5.05,13.314)" />
</svg>