<?xml version="1.0" encoding="UTF-8"?>
<svg xmlns:xlink="http://www.w3.org/1999/xlink" viewBox="0 0 35.1 432.52926469509214" version="1.1" style="font-synthesis: none;" width="35.1mm" height="432.52926469509214mm" xmlns="http://www.w3.org/2000/svg">
  <defs />
  <style>	</style>
  <path d="M 0 0 L 35.1 0 L 35.1 432.52926469509214 L 0 432.52926469509214 Z " stroke="none" fill-rule="nonzero" fill="#FFFFFF" fill-opacity="1" transform="matrix(1,0,0,1,0,0)" />
  <path d="M 0 411.64726469509213 L 10 411.64726469509213 L 10 413.14726469509213 L 0 413.14726469509213 Z " stroke="none" fill-rule="evenodd" fill="#000000" fill-opacity="1" transform="matrix(1,0,0,1,5.05,13.314)" id="mark1 l" />
  <path d="M 0 401.07297585675644 L 10 401.07297585675644 L 10 402.57297585675644 L 0 402.57297585675644 Z " stroke="none" fill-rule="evenodd" fill="#000000" fill-opacity="1" transform="matrix(1,0,0,1,5.05,13.314)" id="mark2 l" />
  <path d="M 0 390.49868701842075 L 10 390.49868701842075 L 10 391.99868701842075 L 0 391.99868701842075 Z " stroke="none" fill-rule="evenodd" fill="#000000" fill-opacity="1" transform="matrix(1,0,0,1,5.05,13.314)" id="mark3 l" />
  <path d="M 0 379.92439818008506 L 10 379.92439818008506 L 10 381.42439818008506 L 0 381.42439818008506 Z " stroke="none" fill-rule="evenodd" fill="#000000" fill-opacity="1" transform="matrix(1,0,0,1,5.05,13.314)" id="mark4 l" />
  <path d="M 0 369.3501093417493 L 25 369.3501093417493 L 25 370.8501093417493 L 0 370.8501093417493 Z " stroke="none" fill-rule="evenodd" fill="#000000" fill-opacity="1" transform="matrix(1,0,0,1,5.05,13.314)" id="mark5 l" />
  <path d="M 16.18 366.8521093417493 C 16.174666666666667 366.678776008416, 16.173333333333332 366.5394426750827, 16.176 366.4341093417493 C 16.178666666666665 366.32877600841596, 16.181333333333335 366.226776008416, 16.183999999999997 366.12810934174934 L 17.264 366.12810934174934 C 17.256 366.2054426750826, 17.25 366.3014426750826, 17.246 366.41610934174935 C 17.241999999999997 366.53077600841596, 17.240666666666666 366.64144267508266, 17.241999999999997 366.74810934174934 C 17.243333333333332 366.85477600841597, 17.246666666666666 366.934776008416, 17.252 366.98810934174935 C 17.262666666666668 367.1081093417493, 17.297333333333334 367.2061093417493, 17.355999999999998 367.28210934174933 C 17.414666666666665 367.3581093417493, 17.497333333333334 367.41210934174933, 17.604 367.4441093417493 L 17.604 368.3361093417493 C 17.110666666666663 368.298776008416, 16.75333333333333 368.16410934174934, 16.532 367.9321093417493 C 16.310666666666666 367.7001093417493, 16.19333333333333 367.3401093417493, 16.18 366.8521093417493 Z M 16.279999999999998 365.5161093417493 L 16.279999999999998 361.86810934174935 L 17.348 361.86810934174935 L 17.348 365.5161093417493 Z M 17.852 365.09210934174934 L 17.852 364.3361093417493 C 17.929333333333332 364.2961093417493, 18.014666666666667 364.2641093417493, 18.107999999999997 364.2401093417493 C 18.20133333333333 364.2161093417493, 18.301333333333332 364.2041093417493, 18.407999999999998 364.2041093417493 C 18.773333333333333 364.2041093417493, 19.047333333333334 364.31944267508266, 19.23 364.5501093417493 C 19.412666666666667 364.78077600841596, 19.514666666666663 365.094776008416, 19.535999999999998 365.4921093417493 C 19.546666666666667 365.65210934174934, 19.55333333333333 365.810776008416, 19.555999999999997 365.9681093417493 C 19.558666666666664 366.12544267508264, 19.557333333333332 366.278776008416, 19.552 366.42810934174935 C 19.546666666666667 366.5774426750827, 19.538666666666668 366.7174426750827, 19.528 366.8481093417493 C 19.482666666666667 367.346776008416, 19.353333333333335 367.7121093417493, 19.14 367.9441093417493 C 18.926666666666666 368.17610934174934, 18.581333333333333 368.306776008416, 18.104 368.3361093417493 L 18.104 367.4441093417493 C 18.21333333333333 367.41477600841597, 18.296 367.3621093417493, 18.352 367.2861093417493 C 18.408 367.21010934174933, 18.44 367.110776008416, 18.448 366.98810934174935 C 18.471999999999998 366.69744267508264, 18.485999999999997 366.43610934174933, 18.49 366.2041093417493 C 18.494 365.97210934174933, 18.485333333333333 365.750776008416, 18.464 365.5401093417493 C 18.447999999999997 365.3854426750827, 18.396666666666665 365.27010934174933, 18.31 365.1941093417493 C 18.223333333333333 365.11810934174935, 18.090666666666664 365.08010934174933, 17.912 365.08010934174933 C 17.901333333333334 365.08010934174933, 17.890666666666668 365.08144267508266, 17.88 365.0841093417493 C 17.86933333333333 365.086776008416, 17.86 365.08944267508264, 17.852 365.09210934174934 Z M 17.852 362.8001093417493 L 17.852 361.86810934174935 L 19.439999999999998 361.86810934174935 L 19.439999999999998 362.8001093417493 Z M 21.944 368.2681093417493 L 21.944 361.86810934174935 L 23.003999999999998 361.86810934174935 L 23.003999999999998 368.2681093417493 Z " stroke="none" fill-rule="nonzero" fill="#000000" fill-opacity="1" transform="matrix(1,0,0,1,5.05,13.314)" id="text5 l" />
  <path d="M 0 358.7758205034137 L 10 358.7758205034137 L 10 360.2758205034137 L 0 360.2758205034137 Z " stroke="none" fill-rule="evenodd" fill="#000000" fill-opacity="1" transform="matrix(1,0,0,1,5.05,13.314)" id="mark6 l" />
  <path d="M 0 348.20153166507794 L 10 348.20153166507794 L 10 349.70153166507794 L 0 349.70153166507794 Z " stroke="none" fill-rule="evenodd" fill="#000000" fill-opacity="1" transform="matrix(1,0,0,1,5.05,13.314)" id="mark7 l" />
  <path d="M 0 337.62724282674225 L 10 337.62724282674225 L 10 339.12724282674225 L 0 339.12724282674225 Z " stroke="none" fill-rule="evenodd" fill="#000000" fill-opacity="1" transform="matrix(1,0,0,1,5.05,13.314)" id="mark8 l" />
  <path d="M 0 327.05295398840656 L 10 327.05295398840656 L 10 328.55295398840656 L 0 328.55295398840656 Z " stroke="none" fill-rule="evenodd" fill="#000000" fill-opacity="1" transform="matrix(1,0,0,1,5.05,13.314)" id="mark9 l" />
  <path d="M 0 316.47866515007087 L 25 316.47866515007087 L 25 317.97866515007087 L 0 317.97866515007087 Z " stroke="none" fill-rule="evenodd" fill="#000000" fill-opacity="1" transform="matrix(1,0,0,1,5.05,13.314)" id="mark10 l" />
  <path d="M 14.323999999999998 315.42866515007086 L 14.323999999999998 309.98466515007084 L 13.871999999999998 309.98466515007084 L 13.839999999999998 309.60466515007084 L 14.543999999999999 309.0286651500709 L 15.424 309.0286651500709 L 15.424 315.42866515007086 Z M 16.196 314.0166651500709 C 16.188000000000002 313.58733181673756, 16.182666666666666 313.1706651500709, 16.18 312.7666651500709 C 16.177333333333333 312.3626651500709, 16.177999999999997 311.96733181673756, 16.182 311.58066515007084 C 16.186 311.1939984834042, 16.190666666666665 310.81266515007087, 16.196 310.43666515007084 C 16.209333333333333 309.99666515007084, 16.334000000000003 309.6513318167375, 16.57 309.40066515007084 C 16.805999999999997 309.1499984834042, 17.142666666666663 309.0046651500709, 17.58 308.96466515007086 L 17.58 309.85266515007083 C 17.382666666666665 309.9086651500708, 17.281333333333333 310.0379984834042, 17.276 310.24066515007087 C 17.262666666666668 310.6113318167375, 17.253333333333334 310.9593318167375, 17.248 311.28466515007085 C 17.242666666666665 311.6099984834042, 17.24 311.92666515007085, 17.24 312.23466515007084 C 17.24 312.54266515007083, 17.242666666666665 312.8573318167375, 17.248 313.17866515007086 C 17.253333333333334 313.4999984834042, 17.262666666666668 313.84333181673753, 17.276 314.20866515007083 C 17.281333333333333 314.41666515007086, 17.382666666666665 314.54866515007086, 17.58 314.60466515007084 L 17.58 315.4926651500709 C 17.142666666666663 315.45266515007086, 16.805999999999997 315.3066651500709, 16.57 315.05466515007083 C 16.334000000000003 314.8026651500709, 16.209333333333333 314.4566651500709, 16.196 314.0166651500709 Z M 18.084 315.4926651500709 L 18.084 314.6006651500709 C 18.268 314.54733181673754, 18.366666666666667 314.4233318167375, 18.38 314.22866515007087 C 18.398666666666667 313.7619984834042, 18.410666666666668 313.31333181673756, 18.416 312.88266515007086 C 18.421333333333333 312.45199848340417, 18.421333333333333 312.02133181673753, 18.416 311.59066515007083 C 18.410666666666668 311.1599984834042, 18.398666666666667 310.7073318167375, 18.38 310.23266515007083 C 18.374666666666666 310.0379984834042, 18.276 309.9113318167375, 18.084 309.85266515007083 L 18.084 308.96466515007086 C 18.513333333333335 309.0046651500709, 18.846666666666668 309.1499984834042, 19.084 309.40066515007084 C 19.321333333333335 309.6513318167375, 19.445333333333334 309.99666515007084, 19.456 310.43666515007084 C 19.46666666666667 310.75133181673755, 19.474666666666668 311.0613318167375, 19.48 311.36666515007084 C 19.485333333333333 311.6719984834042, 19.488 311.97266515007084, 19.488 312.26866515007083 C 19.488 312.5646651500708, 19.485333333333333 312.8579984834042, 19.48 313.1486651500709 C 19.474666666666668 313.43933181673754, 19.46666666666667 313.72866515007087, 19.456 314.0166651500709 C 19.439999999999998 314.46733181673756, 19.311999999999998 314.8159984834042, 19.072 315.06266515007087 C 18.832 315.30933181673754, 18.502666666666666 315.45266515007086, 18.084 315.4926651500709 Z M 21.944 315.42866515007086 L 21.944 309.0286651500709 L 23.003999999999998 309.0286651500709 L 23.003999999999998 315.42866515007086 Z " stroke="none" fill-rule="nonzero" fill="#000000" fill-opacity="1" transform="matrix(1,0,0,1,5.05,13.314)" id="text10 l" />
  <path d="M 0 305.9043763117352 L 10 305.9043763117352 L 10 307.4043763117352 L 0 307.4043763117352 Z " stroke="none" fill-rule="evenodd" fill="#000000" fill-opacity="1" transform="matrix(1,0,0,1,5.05,13.314)" id="mark11 l" />
  <path d="M 0 295.3300874733995 L 10 295.3300874733995 L 10 296.8300874733995 L 0 296.8300874733995 Z " stroke="none" fill-rule="evenodd" fill="#000000" fill-opacity="1" transform="matrix(1,0,0,1,5.05,13.314)" id="mark12 l" />
  <path d="M 0 284.7557986350638 L 10 284.7557986350638 L 10 286.2557986350638 L 0 286.2557986350638 Z " stroke="none" fill-rule="evenodd" fill="#000000" fill-opacity="1" transform="matrix(1,0,0,1,5.05,13.314)" id="mark13 l" />
  <path d="M 0 274.18150979672805 L 10 274.18150979672805 L 10 275.68150979672805 L 0 275.68150979672805 Z " stroke="none" fill-rule="evenodd" fill="#000000" fill-opacity="1" transform="matrix(1,0,0,1,5.05,13.314)" id="mark14 l" />
  <path d="M 0 263.6072209583924 L 25 263.6072209583924 L 25 265.1072209583924 L 0 265.1072209583924 Z " stroke="none" fill-rule="evenodd" fill="#000000" fill-opacity="1" transform="matrix(1,0,0,1,5.05,13.314)" id="mark15 l" />
  <path d="M 14.331999999999999 262.5252209583924 L 14.331999999999999 257.0812209583924 L 13.879999999999999 257.0812209583924 L 13.847999999999999 256.7012209583924 L 14.552 256.12522095839245 L 15.432 256.12522095839245 L 15.432 262.5252209583924 Z M 16.18 261.1092209583924 C 16.174666666666667 260.9358876250591, 16.173333333333332 260.7965542917258, 16.176 260.6912209583924 C 16.178666666666665 260.58588762505906, 16.181333333333335 260.4838876250591, 16.183999999999997 260.38522095839244 L 17.264 260.38522095839244 C 17.256 260.4625542917258, 17.25 260.5585542917258, 17.246 260.67322095839245 C 17.241999999999997 260.7878876250591, 17.240666666666666 260.89855429172576, 17.241999999999997 261.00522095839244 C 17.243333333333332 261.1118876250591, 17.246666666666666 261.1918876250591, 17.252 261.24522095839245 C 17.262666666666668 261.3652209583924, 17.297333333333334 261.4632209583924, 17.355999999999998 261.53922095839243 C 17.414666666666665 261.61522095839246, 17.497333333333334 261.66922095839243, 17.604 261.7012209583924 L 17.604 262.5932209583924 C 17.110666666666663 262.5558876250591, 16.75333333333333 262.42122095839244, 16.532 262.1892209583924 C 16.310666666666666 261.9572209583924, 16.19333333333333 261.5972209583924, 16.18 261.1092209583924 Z M 16.279999999999998 259.7732209583924 L 16.279999999999998 256.12522095839245 L 17.348 256.12522095839245 L 17.348 259.7732209583924 Z M 17.852 259.34922095839244 L 17.852 258.5932209583924 C 17.929333333333332 258.5532209583924, 18.014666666666667 258.5212209583924, 18.107999999999997 258.4972209583924 C 18.20133333333333 258.4732209583924, 18.301333333333332 258.4612209583924, 18.407999999999998 258.4612209583924 C 18.773333333333333 258.4612209583924, 19.047333333333334 258.57655429172576, 19.23 258.8072209583924 C 19.412666666666667 259.03788762505906, 19.514666666666663 259.3518876250591, 19.535999999999998 259.7492209583924 C 19.546666666666667 259.90922095839244, 19.55333333333333 260.0678876250591, 19.555999999999997 260.2252209583924 C 19.558666666666664 260.38255429172574, 19.557333333333332 260.5358876250591, 19.552 260.68522095839245 C 19.546666666666667 260.8345542917258, 19.538666666666668 260.9745542917258, 19.528 261.1052209583924 C 19.482666666666667 261.6038876250591, 19.353333333333335 261.9692209583924, 19.14 262.2012209583924 C 18.926666666666666 262.43322095839244, 18.581333333333333 262.56388762505907, 18.104 262.5932209583924 L 18.104 261.7012209583924 C 18.21333333333333 261.67188762505907, 18.296 261.6192209583924, 18.352 261.5432209583924 C 18.408 261.46722095839243, 18.44 261.3678876250591, 18.448 261.24522095839245 C 18.471999999999998 260.95455429172574, 18.485999999999997 260.69322095839243, 18.49 260.4612209583924 C 18.494 260.22922095839243, 18.485333333333333 260.0078876250591, 18.464 259.7972209583924 C 18.447999999999997 259.6425542917258, 18.396666666666665 259.52722095839243, 18.31 259.4512209583924 C 18.223333333333333 259.37522095839245, 18.090666666666664 259.33722095839244, 17.912 259.33722095839244 C 17.901333333333334 259.33722095839244, 17.890666666666668 259.33855429172576, 17.88 259.3412209583924 C 17.86933333333333 259.3438876250591, 17.86 259.34655429172574, 17.852 259.34922095839244 Z M 17.852 257.0572209583924 L 17.852 256.12522095839245 L 19.439999999999998 256.12522095839245 L 19.439999999999998 257.0572209583924 Z M 21.944 262.5252209583924 L 21.944 256.12522095839245 L 23.003999999999998 256.12522095839245 L 23.003999999999998 262.5252209583924 Z " stroke="none" fill-rule="nonzero" fill="#000000" fill-opacity="1" transform="matrix(1,0,0,1,5.05,13.314)" id="text15 l" />
  <path d="M 0 253.0329321200567 L 10 253.0329321200567 L 10 254.5329321200567 L 0 254.5329321200567 Z " stroke="none" fill-rule="evenodd" fill="#000000" fill-opacity="1" transform="matrix(1,0,0,1,5.05,13.314)" id="mark16 l" />
  <path d="M 0 242.458643281721 L 10 242.458643281721 L 10 243.958643281721 L 0 243.958643281721 Z " stroke="none" fill-rule="evenodd" fill="#000000" fill-opacity="1" transform="matrix(1,0,0,1,5.05,13.314)" id="mark17 l" />
  <path d="M 0 231.88435444338532 L 10 231.88435444338532 L 10 233.38435444338532 L 0 233.38435444338532 Z " stroke="none" fill-rule="evenodd" fill="#000000" fill-opacity="1" transform="matrix(1,0,0,1,5.05,13.314)" id="mark18 l" />
  <path d="M 0 221.31006560504963 L 10 221.31006560504963 L 10 222.81006560504963 L 0 222.81006560504963 Z " stroke="none" fill-rule="evenodd" fill="#000000" fill-opacity="1" transform="matrix(1,0,0,1,5.05,13.314)" id="mark19 l" />
  <path d="M 0 210.7357767667139 L 25 210.7357767667139 L 25 212.2357767667139 L 0 212.2357767667139 Z " stroke="none" fill-rule="evenodd" fill="#000000" fill-opacity="1" transform="matrix(1,0,0,1,5.05,13.314)" id="mark20 l" />
  <path d="M 12.319999999999999 209.68577676671393 C 12.317333333333334 209.58711010004725, 12.315333333333331 209.4984434333806, 12.313999999999998 209.41977676671394 C 12.312666666666665 209.34111010004727, 12.311333333333334 209.26711010004726, 12.309999999999999 209.19777676671393 C 12.308666666666667 209.1284434333806, 12.308 209.0564434333806, 12.308 208.98177676671392 C 12.308 208.90711010004725, 12.308 208.8224434333806, 12.308 208.72777676671393 C 12.308 208.63311010004725, 12.309333333333335 208.5217767667139, 12.312 208.39377676671393 C 12.32 208.10044343338058, 12.37 207.83844343338058, 12.462 207.60777676671393 C 12.554 207.37711010004728, 12.687999999999999 207.17111010004726, 12.863999999999999 206.98977676671393 C 13.04 206.8084434333806, 13.257333333333333 206.64711010004726, 13.515999999999998 206.50577676671392 L 14.047999999999998 206.21777676671394 C 14.234666666666666 206.1164434333806, 14.354 205.99444343338058, 14.405999999999999 205.85177676671393 C 14.457999999999998 205.70911010004727, 14.488 205.57511010004725, 14.495999999999999 205.44977676671394 C 14.506666666666664 205.30311010004726, 14.512666666666664 205.1464434333806, 14.514 204.97977676671394 C 14.51533333333333 204.81311010004728, 14.511999999999997 204.65644343338062, 14.504 204.50977676671394 C 14.498666666666665 204.40577676671393, 14.468666666666666 204.31977676671391, 14.413999999999998 204.25177676671393 C 14.359333333333332 204.18377676671395, 14.279999999999998 204.13511010004726, 14.175999999999998 204.10577676671392 L 14.175999999999998 203.21777676671394 C 14.663999999999998 203.24977676671395, 15.014 203.3811101000473, 15.225999999999999 203.61177676671392 C 15.437999999999999 203.8424434333806, 15.554666666666666 204.20311010004724, 15.575999999999999 204.69377676671394 C 15.578666666666663 204.75777676671396, 15.580666666666666 204.82311010004727, 15.581999999999999 204.88977676671394 C 15.583333333333332 204.9564434333806, 15.584 205.02111010004728, 15.584 205.08377676671392 C 15.584 205.14644343338057, 15.583333333333332 205.20844343338058, 15.581999999999999 205.26977676671393 C 15.580666666666666 205.33111010004725, 15.578666666666663 205.39111010004726, 15.575999999999999 205.44977676671394 C 15.565333333333331 205.73511010004728, 15.512 205.98177676671395, 15.415999999999999 206.18977676671392 C 15.32 206.39777676671395, 15.19 206.57777676671395, 15.026 206.72977676671394 C 14.862 206.88177676671393, 14.672 207.0177767667139, 14.456 207.13777676671393 L 13.851999999999999 207.46577676671393 C 13.737333333333332 207.52711010004725, 13.647333333333332 207.61111010004726, 13.581999999999999 207.71777676671394 C 13.516666666666666 207.8244434333806, 13.469999999999999 207.9377767667139, 13.441999999999998 208.0577767667139 C 13.413999999999998 208.17777676671392, 13.399999999999999 208.28977676671394, 13.399999999999999 208.39377676671393 L 13.399999999999999 209.68577676671393 Z M 12.328 205.64577676671394 C 12.322666666666667 205.52844343338057, 12.318666666666665 205.4137767667139, 12.315999999999999 205.30177676671394 C 12.313333333333333 205.18977676671392, 12.311333333333334 205.08377676671392, 12.309999999999999 204.98377676671393 C 12.308666666666667 204.88377676671394, 12.309333333333335 204.78711010004724, 12.312 204.69377676671394 C 12.330666666666666 204.20577676671394, 12.447333333333333 203.8464434333806, 12.661999999999999 203.61577676671394 C 12.876666666666665 203.38511010004726, 13.213333333333331 203.2524434333806, 13.671999999999999 203.21777676671394 L 13.671999999999999 204.10977676671394 C 13.576 204.13911010004728, 13.505333333333333 204.18577676671393, 13.459999999999999 204.24977676671392 C 13.414666666666665 204.31377676671391, 13.390666666666664 204.39111010004723, 13.387999999999998 204.48177676671392 C 13.382666666666665 204.68977676671392, 13.379333333333333 204.88311010004728, 13.378 205.06177676671393 C 13.376666666666667 205.2404434333806, 13.381333333333334 205.43511010004727, 13.392 205.64577676671394 Z M 13.904 209.68577676671393 L 13.904 208.75377676671394 L 15.5 208.75377676671394 L 15.5 209.68577676671393 Z M 16.196 208.27377676671392 C 16.188000000000002 207.8444434333806, 16.182666666666666 207.42777676671392, 16.18 207.02377676671392 C 16.177333333333333 206.61977676671393, 16.177999999999997 206.2244434333806, 16.182 205.83777676671392 C 16.186 205.45111010004723, 16.190666666666665 205.06977676671391, 16.196 204.69377676671394 C 16.209333333333333 204.25377676671394, 16.334000000000003 203.90844343338063, 16.57 203.65777676671394 C 16.805999999999997 203.40711010004725, 17.142666666666663 203.26177676671392, 17.58 203.22177676671393 L 17.58 204.10977676671394 C 17.382666666666665 204.16577676671392, 17.281333333333333 204.29511010004728, 17.276 204.49777676671394 C 17.262666666666668 204.8684434333806, 17.253333333333334 205.2164434333806, 17.248 205.54177676671392 C 17.242666666666665 205.86711010004726, 17.24 206.18377676671395, 17.24 206.49177676671394 C 17.24 206.79977676671393, 17.242666666666665 207.1144434333806, 17.248 207.43577676671393 C 17.253333333333334 207.75711010004727, 17.262666666666668 208.10044343338058, 17.276 208.46577676671393 C 17.281333333333333 208.67377676671396, 17.382666666666665 208.80577676671396, 17.58 208.86177676671392 L 17.58 209.74977676671392 C 17.142666666666663 209.7097767667139, 16.805999999999997 209.56377676671394, 16.57 209.31177676671393 C 16.334000000000003 209.05977676671392, 16.209333333333333 208.71377676671392, 16.196 208.27377676671392 Z M 18.084 209.74977676671392 L 18.084 208.85777676671393 C 18.268 208.8044434333806, 18.366666666666667 208.68044343338062, 18.38 208.48577676671394 C 18.398666666666667 208.01911010004727, 18.410666666666668 207.5704434333806, 18.416 207.13977676671394 C 18.421333333333333 206.70911010004727, 18.421333333333333 206.2784434333806, 18.416 205.84777676671393 C 18.410666666666668 205.41711010004727, 18.398666666666667 204.9644434333806, 18.38 204.48977676671393 C 18.374666666666666 204.29511010004728, 18.276 204.16844343338062, 18.084 204.10977676671394 L 18.084 203.22177676671393 C 18.513333333333335 203.26177676671392, 18.846666666666668 203.40711010004725, 19.084 203.65777676671394 C 19.321333333333335 203.90844343338063, 19.445333333333334 204.25377676671394, 19.456 204.69377676671394 C 19.46666666666667 205.0084434333806, 19.474666666666668 205.3184434333806, 19.48 205.62377676671392 C 19.485333333333333 205.92911010004724, 19.488 206.2297767667139, 19.488 206.52577676671393 C 19.488 206.82177676671392, 19.485333333333333 207.11511010004727, 19.48 207.40577676671393 C 19.474666666666668 207.69644343338058, 19.46666666666667 207.9857767667139, 19.456 208.27377676671392 C 19.439999999999998 208.7244434333806, 19.311999999999998 209.07311010004727, 19.072 209.31977676671391 C 18.832 209.56644343338058, 18.502666666666666 209.7097767667139, 18.084 209.74977676671392 Z M 21.944 209.68577676671393 L 21.944 203.28577676671392 L 23.003999999999998 203.28577676671392 L 23.003999999999998 209.68577676671393 Z " stroke="none" fill-rule="nonzero" fill="#000000" fill-opacity="1" transform="matrix(1,0,0,1,5.05,13.314)" id="text20 l" />
  <path d="M 0 200.16148792837822 L 10 200.16148792837822 L 10 201.66148792837822 L 0 201.66148792837822 Z " stroke="none" fill-rule="evenodd" fill="#000000" fill-opacity="1" transform="matrix(1,0,0,1,5.05,13.314)" id="mark21 l" />
  <path d="M 0 189.58719909004253 L 10 189.58719909004253 L 10 191.08719909004253 L 0 191.08719909004253 Z " stroke="none" fill-rule="evenodd" fill="#000000" fill-opacity="1" transform="matrix(1,0,0,1,5.05,13.314)" id="mark22 l" />
  <path d="M 0 179.01291025170684 L 10 179.01291025170684 L 10 180.51291025170684 L 0 180.51291025170684 Z " stroke="none" fill-rule="evenodd" fill="#000000" fill-opacity="1" transform="matrix(1,0,0,1,5.05,13.314)" id="mark23 l" />
  <path d="M 0 168.43862141337115 L 10 168.43862141337115 L 10 169.93862141337115 L 0 169.93862141337115 Z " stroke="none" fill-rule="evenodd" fill="#000000" fill-opacity="1" transform="matrix(1,0,0,1,5.05,13.314)" id="mark24 l" />
  <path d="M 0 157.86433257503546 L 25 157.86433257503546 L 25 159.36433257503546 L 0 159.36433257503546 Z " stroke="none" fill-rule="evenodd" fill="#000000" fill-opacity="1" transform="matrix(1,0,0,1,5.05,13.314)" id="mark25 l" />
  <path d="M 12.328 156.81433257503548 C 12.325333333333333 156.7156659083688, 12.323333333333332 156.62699924170215, 12.322 156.5483325750355 C 12.320666666666666 156.46966590836882, 12.319333333333333 156.3956659083688, 12.318 156.32633257503548 C 12.316666666666666 156.25699924170215, 12.315999999999999 156.18499924170214, 12.316 156.11033257503547 C 12.315999999999999 156.0356659083688, 12.315999999999999 155.95099924170214, 12.316 155.85633257503548 C 12.315999999999999 155.76166590836883, 12.317333333333334 155.6503325750355, 12.32 155.52233257503548 C 12.328 155.22899924170216, 12.378 154.96699924170215, 12.47 154.73633257503548 C 12.562000000000001 154.5056659083688, 12.696 154.2996659083688, 12.872 154.11833257503548 C 13.048 153.93699924170215, 13.265333333333334 153.7756659083688, 13.524000000000001 153.63433257503547 L 14.056000000000001 153.3463325750355 C 14.242666666666668 153.24499924170215, 14.362000000000002 153.12299924170213, 14.414 152.98033257503548 C 14.466000000000001 152.83766590836882, 14.495999999999999 152.7036659083688, 14.504 152.5783325750355 C 14.514666666666667 152.4316659083688, 14.520666666666667 152.27499924170215, 14.522 152.1083325750355 C 14.523333333333333 151.94166590836883, 14.520000000000001 151.78499924170217, 14.512 151.6383325750355 C 14.506666666666666 151.53433257503548, 14.476666666666667 151.44833257503547, 14.422 151.38033257503548 C 14.367333333333335 151.3123325750355, 14.288 151.2636659083688, 14.184000000000001 151.23433257503547 L 14.184000000000001 150.3463325750355 C 14.672 150.3783325750355, 15.022000000000002 150.50966590836882, 15.234 150.74033257503547 C 15.446000000000002 150.97099924170215, 15.562666666666667 151.3316659083688, 15.584 151.8223325750355 C 15.586666666666668 151.8863325750355, 15.588666666666668 151.95166590836882, 15.59 152.0183325750355 C 15.591333333333335 152.08499924170215, 15.592000000000002 152.14966590836883, 15.592 152.21233257503548 C 15.592000000000002 152.27499924170212, 15.591333333333335 152.33699924170213, 15.59 152.39833257503548 C 15.588666666666668 152.4596659083688, 15.586666666666668 152.5196659083688, 15.584 152.5783325750355 C 15.573333333333332 152.86366590836883, 15.52 153.11033257503547, 15.424 153.31833257503547 C 15.328 153.52633257503547, 15.197999999999999 153.70633257503547, 15.033999999999999 153.8583325750355 C 14.87 154.01033257503548, 14.68 154.14633257503547, 14.464 154.26633257503548 L 13.86 154.59433257503548 C 13.745333333333335 154.6556659083688, 13.655333333333335 154.7396659083688, 13.59 154.8463325750355 C 13.524666666666668 154.95299924170214, 13.478000000000002 155.06633257503546, 13.45 155.18633257503546 C 13.422 155.30633257503547, 13.408 155.41833257503546, 13.408 155.52233257503548 L 13.408 156.81433257503548 Z M 12.336 152.7743325750355 C 12.330666666666666 152.65699924170215, 12.326666666666664 152.5423325750355, 12.324 152.4303325750355 C 12.321333333333332 152.3183325750355, 12.319333333333333 152.21233257503548, 12.318 152.11233257503548 C 12.316666666666666 152.0123325750355, 12.317333333333334 151.9156659083688, 12.32 151.8223325750355 C 12.338666666666668 151.3343325750355, 12.455333333333336 150.97499924170216, 12.67 150.7443325750355 C 12.884666666666668 150.5136659083688, 13.221333333333334 150.38099924170214, 13.68 150.3463325750355 L 13.68 151.23833257503549 C 13.584 151.2676659083688, 13.513333333333332 151.31433257503548, 13.468 151.37833257503547 C 13.422666666666668 151.44233257503546, 13.398666666666667 151.5196659083688, 13.396 151.61033257503547 C 13.390666666666666 151.81833257503547, 13.387333333333332 152.01166590836883, 13.386 152.19033257503548 C 13.384666666666666 152.36899924170214, 13.389333333333333 152.56366590836882, 13.4 152.7743325750355 Z M 13.911999999999999 156.81433257503548 L 13.911999999999999 155.8823325750355 L 15.508 155.8823325750355 L 15.508 156.81433257503548 Z M 16.18 155.39833257503548 C 16.174666666666667 155.22499924170216, 16.173333333333332 155.0856659083688, 16.176 154.98033257503548 C 16.178666666666665 154.87499924170214, 16.181333333333335 154.77299924170217, 16.183999999999997 154.6743325750355 L 17.264 154.6743325750355 C 17.256 154.7516659083688, 17.25 154.8476659083688, 17.246 154.96233257503548 C 17.241999999999997 155.07699924170214, 17.240666666666666 155.18766590836879, 17.241999999999997 155.29433257503547 C 17.243333333333332 155.40099924170215, 17.246666666666666 155.48099924170214, 17.252 155.53433257503548 C 17.262666666666668 155.65433257503548, 17.297333333333334 155.7523325750355, 17.355999999999998 155.8283325750355 C 17.414666666666665 155.90433257503548, 17.497333333333334 155.95833257503546, 17.604 155.99033257503547 L 17.604 156.8823325750355 C 17.110666666666663 156.84499924170217, 16.75333333333333 156.71033257503547, 16.532 156.47833257503547 C 16.310666666666666 156.24633257503547, 16.19333333333333 155.88633257503548, 16.18 155.39833257503548 Z M 16.279999999999998 154.06233257503547 L 16.279999999999998 150.41433257503547 L 17.348 150.41433257503547 L 17.348 154.06233257503547 Z M 17.852 153.6383325750355 L 17.852 152.8823325750355 C 17.929333333333332 152.8423325750355, 18.014666666666667 152.8103325750355, 18.107999999999997 152.7863325750355 C 18.20133333333333 152.7623325750355, 18.301333333333332 152.7503325750355, 18.407999999999998 152.7503325750355 C 18.773333333333333 152.7503325750355, 19.047333333333334 152.86566590836884, 19.23 153.0963325750355 C 19.412666666666667 153.32699924170214, 19.514666666666663 153.64099924170216, 19.535999999999998 154.03833257503547 C 19.546666666666667 154.19833257503547, 19.55333333333333 154.35699924170214, 19.555999999999997 154.51433257503547 C 19.558666666666664 154.67166590836882, 19.557333333333332 154.82499924170216, 19.552 154.97433257503548 C 19.546666666666667 155.1236659083688, 19.538666666666668 155.2636659083688, 19.528 155.3943325750355 C 19.482666666666667 155.89299924170214, 19.353333333333335 156.25833257503547, 19.14 156.49033257503547 C 18.926666666666666 156.72233257503547, 18.581333333333333 156.85299924170215, 18.104 156.8823325750355 L 18.104 155.99033257503547 C 18.21333333333333 155.96099924170215, 18.296 155.90833257503547, 18.352 155.83233257503548 C 18.408 155.7563325750355, 18.44 155.65699924170215, 18.448 155.53433257503548 C 18.471999999999998 155.2436659083688, 18.485999999999997 154.98233257503546, 18.49 154.7503325750355 C 18.494 154.51833257503546, 18.485333333333333 154.29699924170214, 18.464 154.08633257503547 C 18.447999999999997 153.9316659083688, 18.396666666666665 153.81633257503546, 18.31 153.74033257503547 C 18.223333333333333 153.66433257503547, 18.090666666666664 153.6263325750355, 17.912 153.6263325750355 C 17.901333333333334 153.6263325750355, 17.890666666666668 153.62766590836884, 17.88 153.63033257503548 C 17.86933333333333 153.63299924170212, 17.86 153.63566590836882, 17.852 153.6383325750355 Z M 17.852 151.3463325750355 L 17.852 150.41433257503547 L 19.439999999999998 150.41433257503547 L 19.439999999999998 151.3463325750355 Z M 21.944 156.81433257503548 L 21.944 150.41433257503547 L 23.003999999999998 150.41433257503547 L 23.003999999999998 156.81433257503548 Z " stroke="none" fill-rule="nonzero" fill="#000000" fill-opacity="1" transform="matrix(1,0,0,1,5.05,13.314)" id="text25 l" />
  <path d="M 0 147.29004373669977 L 10 147.29004373669977 L 10 148.79004373669977 L 0 148.79004373669977 Z " stroke="none" fill-rule="evenodd" fill="#000000" fill-opacity="1" transform="matrix(1,0,0,1,5.05,13.314)" id="mark26 l" />
  <path d="M 0 136.71575489836408 L 10 136.71575489836408 L 10 138.21575489836408 L 0 138.21575489836408 Z " stroke="none" fill-rule="evenodd" fill="#000000" fill-opacity="1" transform="matrix(1,0,0,1,5.05,13.314)" id="mark27 l" />
  <path d="M 0 126.14146606002834 L 10 126.14146606002834 L 10 127.64146606002834 L 0 127.64146606002834 Z " stroke="none" fill-rule="evenodd" fill="#000000" fill-opacity="1" transform="matrix(1,0,0,1,5.05,13.314)" id="mark28 l" />
  <path d="M 0 115.56717722169265 L 10 115.56717722169265 L 10 117.06717722169265 L 0 117.06717722169265 Z " stroke="none" fill-rule="evenodd" fill="#000000" fill-opacity="1" transform="matrix(1,0,0,1,5.05,13.314)" id="mark29 l" />
  <path d="M 0 104.99288838335696 L 25 104.99288838335696 L 25 106.49288838335696 L 0 106.49288838335696 Z " stroke="none" fill-rule="evenodd" fill="#000000" fill-opacity="1" transform="matrix(1,0,0,1,5.05,13.314)" id="mark30 l" />
  <path d="M 12.223999999999998 102.52688838335696 C 12.221333333333334 102.42555505002363, 12.219333333333333 102.34155505002363, 12.218 102.27488838335695 C 12.216666666666667 102.20822171669029, 12.216666666666667 102.14022171669029, 12.218 102.07088838335696 C 12.219333333333333 102.00155505002363, 12.221333333333334 101.91222171669028, 12.223999999999998 101.80288838335696 L 13.303999999999998 101.80288838335696 L 13.303999999999998 102.66688838335696 C 13.303999999999998 102.90422171669029, 13.417333333333332 103.05488838335695, 13.643999999999998 103.11888838335696 L 13.643999999999998 104.01088838335696 C 13.155999999999999 103.97355505002363, 12.800666666666665 103.83888838335696, 12.578 103.60688838335696 C 12.355333333333334 103.37488838335696, 12.237333333333332 103.01488838335696, 12.223999999999998 102.52688838335696 Z M 12.292 98.47488838335696 L 12.292 97.54288838335695 L 15.536 97.54288838335695 L 15.536 98.47488838335696 Z M 14.143999999999998 103.12288838335697 C 14.367999999999999 103.06688838335697, 14.483999999999998 102.9162217166903, 14.491999999999999 102.67088838335695 C 14.497333333333334 102.4682217166903, 14.500666666666666 102.28555505002362, 14.501999999999999 102.12288838335697 C 14.503333333333332 101.96022171669028, 14.498666666666665 101.80288838335696, 14.488 101.65088838335696 C 14.48 101.49355505002362, 14.431999999999999 101.36022171669029, 14.344 101.25088838335697 C 14.256 101.14155505002364, 14.089333333333332 101.08955505002363, 13.844 101.09488838335696 L 13.096 101.10288838335696 L 13.068 100.21088838335696 L 14.027999999999999 98.82688838335696 L 15.216 98.82688838335696 L 14.248 100.17888838335696 L 14.28 100.17888838335696 C 14.712 100.17888838335696, 15.028666666666666 100.30155505002364, 15.229999999999999 100.54688838335696 C 15.431333333333333 100.79222171669028, 15.544 101.16955505002363, 15.568 101.67888838335696 C 15.57333333333333 101.75088838335697, 15.576666666666664 101.82288838335695, 15.578 101.89488838335696 C 15.57933333333333 101.96688838335696, 15.579999999999998 102.03755505002363, 15.579999999999998 102.10688838335696 C 15.579999999999998 102.17622171669029, 15.57933333333333 102.24555505002363, 15.578 102.31488838335696 C 15.576666666666664 102.38422171669029, 15.57333333333333 102.45488838335696, 15.568 102.52688838335696 C 15.549333333333333 103.02288838335696, 15.428666666666665 103.38755505002362, 15.206 103.62088838335696 C 14.983333333333334 103.85422171669029, 14.630666666666666 103.98422171669029, 14.148 104.01088838335696 Z M 16.196 102.53088838335695 C 16.188000000000002 102.10155505002362, 16.182666666666666 101.68488838335696, 16.18 101.28088838335695 C 16.177333333333333 100.87688838335696, 16.177999999999997 100.48155505002362, 16.182 100.09488838335696 C 16.186 99.7082217166903, 16.190666666666665 99.32688838335696, 16.196 98.95088838335695 C 16.209333333333333 98.51088838335696, 16.334000000000003 98.16555505002363, 16.57 97.91488838335695 C 16.805999999999997 97.66422171669029, 17.142666666666663 97.51888838335697, 17.58 97.47888838335696 L 17.58 98.36688838335697 C 17.382666666666665 98.42288838335696, 17.281333333333333 98.55222171669028, 17.276 98.75488838335696 C 17.262666666666668 99.12555505002362, 17.253333333333334 99.47355505002362, 17.248 99.79888838335695 C 17.242666666666665 100.12422171669029, 17.24 100.44088838335696, 17.24 100.74888838335696 C 17.24 101.05688838335695, 17.242666666666665 101.37155505002363, 17.248 101.69288838335696 C 17.253333333333334 102.01422171669029, 17.262666666666668 102.35755505002362, 17.276 102.72288838335696 C 17.281333333333333 102.93088838335697, 17.382666666666665 103.06288838335696, 17.58 103.11888838335696 L 17.58 104.00688838335695 C 17.142666666666663 103.96688838335697, 16.805999999999997 103.82088838335696, 16.57 103.56888838335696 C 16.334000000000003 103.31688838335697, 16.209333333333333 102.97088838335696, 16.196 102.53088838335695 Z M 18.084 104.00688838335695 L 18.084 103.11488838335696 C 18.268 103.06155505002363, 18.366666666666667 102.93755505002363, 18.38 102.74288838335696 C 18.398666666666667 102.27622171669029, 18.410666666666668 101.82755505002362, 18.416 101.39688838335695 C 18.421333333333333 100.96622171669028, 18.421333333333333 100.53555505002363, 18.416 100.10488838335696 C 18.410666666666668 99.6742217166903, 18.398666666666667 99.22155505002362, 18.38 98.74688838335696 C 18.374666666666666 98.5522217166903, 18.276 98.42555505002363, 18.084 98.36688838335697 L 18.084 97.47888838335696 C 18.513333333333335 97.51888838335697, 18.846666666666668 97.66422171669029, 19.084 97.91488838335695 C 19.321333333333335 98.16555505002363, 19.445333333333334 98.51088838335696, 19.456 98.95088838335695 C 19.46666666666667 99.26555505002364, 19.474666666666668 99.57555505002364, 19.48 99.88088838335696 C 19.485333333333333 100.18622171669028, 19.488 100.48688838335696, 19.488 100.78288838335696 C 19.488 101.07888838335697, 19.485333333333333 101.37222171669029, 19.48 101.66288838335696 C 19.474666666666668 101.95355505002362, 19.46666666666667 102.24288838335696, 19.456 102.53088838335695 C 19.439999999999998 102.98155505002362, 19.311999999999998 103.33022171669029, 19.072 103.57688838335696 C 18.832 103.82355505002363, 18.502666666666666 103.96688838335697, 18.084 104.00688838335695 Z M 21.944 103.94288838335696 L 21.944 97.54288838335695 L 23.003999999999998 97.54288838335695 L 23.003999999999998 103.94288838335696 Z " stroke="none" fill-rule="nonzero" fill="#000000" fill-opacity="1" transform="matrix(1,0,0,1,5.05,13.314)" id="text30 l" />
  <path d="M 0 94.41859954502127 L 10 94.41859954502127 L 10 95.91859954502127 L 0 95.91859954502127 Z " stroke="none" fill-rule="evenodd" fill="#000000" fill-opacity="1" transform="matrix(1,0,0,1,5.05,13.314)" id="mark31 l" />
  <path d="M 0 83.84431070668558 L 10 83.84431070668558 L 10 85.34431070668558 L 0 85.34431070668558 Z " stroke="none" fill-rule="evenodd" fill="#000000" fill-opacity="1" transform="matrix(1,0,0,1,5.05,13.314)" id="mark32 l" />
  <path d="M 0 73.27002186834989 L 10 73.27002186834989 L 10 74.77002186834989 L 0 74.77002186834989 Z " stroke="none" fill-rule="evenodd" fill="#000000" fill-opacity="1" transform="matrix(1,0,0,1,5.05,13.314)" id="mark33 l" />
  <path d="M 0 62.695733030014196 L 10 62.695733030014196 L 10 64.1957330300142 L 0 64.1957330300142 Z " stroke="none" fill-rule="evenodd" fill="#000000" fill-opacity="1" transform="matrix(1,0,0,1,5.05,13.314)" id="mark34 l" />
  <path d="M 0 52.121444191678506 L 25 52.121444191678506 L 25 53.621444191678506 L 0 53.621444191678506 Z " stroke="none" fill-rule="evenodd" fill="#000000" fill-opacity="1" transform="matrix(1,0,0,1,5.05,13.314)" id="mark35 l" />
  <path d="M 12.232 49.62344419167851 C 12.229333333333333 49.52211085834517, 12.227333333333334 49.43811085834517, 12.226 49.371444191678506 C 12.224666666666668 49.30477752501184, 12.224666666666668 49.236777525011846, 12.226 49.167444191678506 C 12.227333333333334 49.09811085834518, 12.229333333333333 49.00877752501184, 12.232 48.899444191678505 L 13.312 48.899444191678505 L 13.312 49.7634441916785 C 13.312 50.000777525011834, 13.425333333333333 50.15144419167851, 13.652 50.21544419167851 L 13.652 51.1074441916785 C 13.164 51.070110858345174, 12.808666666666667 50.93544419167851, 12.586 50.70344419167851 C 12.363333333333333 50.471444191678515, 12.245333333333335 50.111444191678515, 12.232 49.62344419167851 Z M 12.3 45.57144419167851 L 12.3 44.63944419167851 L 15.544 44.63944419167851 L 15.544 45.57144419167851 Z M 14.152000000000001 50.219444191678505 C 14.376000000000001 50.1634441916785, 14.492 50.012777525011835, 14.5 49.76744419167851 C 14.505333333333333 49.56477752501184, 14.508666666666667 49.38211085834517, 14.51 49.219444191678505 C 14.511333333333333 49.05677752501184, 14.506666666666668 48.89944419167851, 14.496 48.747444191678504 C 14.488 48.59011085834517, 14.440000000000001 48.456777525011844, 14.352 48.347444191678505 C 14.264 48.238110858345166, 14.097333333333335 48.186110858345174, 13.852 48.19144419167851 L 13.104 48.19944419167851 L 13.076 47.307444191678506 L 14.036 45.923444191678506 L 15.224 45.923444191678506 L 14.256 47.2754441916785 L 14.288 47.2754441916785 C 14.719999999999999 47.2754441916785, 15.036666666666665 47.39811085834517, 15.238 47.643444191678505 C 15.439333333333334 47.88877752501184, 15.552 48.26611085834517, 15.576 48.7754441916785 C 15.581333333333333 48.847444191678505, 15.584666666666667 48.91944419167851, 15.586 48.991444191678504 C 15.587333333333333 49.063444191678514, 15.588000000000001 49.13411085834518, 15.588000000000001 49.20344419167851 C 15.588000000000001 49.27277752501185, 15.587333333333333 49.34211085834518, 15.586 49.411444191678505 C 15.584666666666667 49.480777525011845, 15.581333333333333 49.55144419167851, 15.576 49.62344419167851 C 15.557333333333334 50.11944419167851, 15.436666666666667 50.484110858345176, 15.214 50.7174441916785 C 14.991333333333333 50.950777525011844, 14.638666666666666 51.08077752501184, 14.156 51.1074441916785 Z M 16.18 49.62344419167851 C 16.174666666666667 49.45011085834517, 16.173333333333332 49.31077752501184, 16.176 49.2054441916785 C 16.178666666666665 49.100110858345175, 16.181333333333335 48.99811085834517, 16.183999999999997 48.899444191678505 L 17.264 48.899444191678505 C 17.256 48.97677752501184, 17.25 49.072777525011844, 17.246 49.18744419167851 C 17.241999999999997 49.30211085834517, 17.240666666666666 49.41277752501184, 17.241999999999997 49.5194441916785 C 17.243333333333332 49.62611085834517, 17.246666666666666 49.70611085834517, 17.252 49.759444191678504 C 17.262666666666668 49.8794441916785, 17.297333333333334 49.9774441916785, 17.355999999999998 50.05344419167851 C 17.414666666666665 50.1294441916785, 17.497333333333334 50.183444191678504, 17.604 50.21544419167851 L 17.604 51.1074441916785 C 17.110666666666663 51.070110858345174, 16.75333333333333 50.93544419167851, 16.532 50.70344419167851 C 16.310666666666666 50.471444191678515, 16.19333333333333 50.111444191678515, 16.18 49.62344419167851 Z M 16.279999999999998 48.2874441916785 L 16.279999999999998 44.63944419167851 L 17.348 44.63944419167851 L 17.348 48.2874441916785 Z M 17.852 47.863444191678504 L 17.852 47.1074441916785 C 17.929333333333332 47.067444191678504, 18.014666666666667 47.03544419167851, 18.107999999999997 47.01144419167851 C 18.20133333333333 46.987444191678506, 18.301333333333332 46.975444191678505, 18.407999999999998 46.975444191678505 C 18.773333333333333 46.975444191678505, 19.047333333333334 47.09077752501184, 19.23 47.32144419167851 C 19.412666666666667 47.55211085834517, 19.514666666666663 47.866110858345166, 19.535999999999998 48.2634441916785 C 19.546666666666667 48.423444191678506, 19.55333333333333 48.582110858345175, 19.555999999999997 48.73944419167851 C 19.558666666666664 48.89677752501184, 19.557333333333332 49.05011085834518, 19.552 49.1994441916785 C 19.546666666666667 49.34877752501184, 19.538666666666668 49.48877752501184, 19.528 49.619444191678504 C 19.482666666666667 50.118110858345176, 19.353333333333335 50.4834441916785, 19.14 50.71544419167851 C 18.926666666666666 50.9474441916785, 18.581333333333333 51.07811085834517, 18.104 51.1074441916785 L 18.104 50.21544419167851 C 18.21333333333333 50.186110858345174, 18.296 50.13344419167851, 18.352 50.057444191678506 C 18.408 49.981444191678506, 18.44 49.88211085834517, 18.448 49.759444191678504 C 18.471999999999998 49.468777525011845, 18.485999999999997 49.207444191678505, 18.49 48.975444191678505 C 18.494 48.743444191678506, 18.485333333333333 48.52211085834517, 18.464 48.311444191678504 C 18.447999999999997 48.15677752501183, 18.396666666666665 48.0414441916785, 18.31 47.96544419167851 C 18.223333333333333 47.88944419167851, 18.090666666666664 47.8514441916785, 17.912 47.8514441916785 C 17.901333333333334 47.8514441916785, 17.890666666666668 47.85277752501184, 17.88 47.85544419167851 C 17.86933333333333 47.85811085834517, 17.86 47.86077752501184, 17.852 47.863444191678504 Z M 17.852 45.57144419167851 L 17.852 44.63944419167851 L 19.439999999999998 44.63944419167851 L 19.439999999999998 45.57144419167851 Z M 21.944 51.039444191678506 L 21.944 44.63944419167851 L 23.003999999999998 44.63944419167851 L 23.003999999999998 51.039444191678506 Z " stroke="none" fill-rule="nonzero" fill="#000000" fill-opacity="1" transform="matrix(1,0,0,1,5.05,13.314)" id="text35 l" />
  <path d="M 0 41.547155353342816 L 10 41.547155353342816 L 10 43.047155353342816 L 0 43.047155353342816 Z " stroke="none" fill-rule="evenodd" fill="#000000" fill-opacity="1" transform="matrix(1,0,0,1,5.05,13.314)" id="mark36 l" />
  <path d="M 0 30.972866515007127 L 10 30.972866515007127 L 10 32.47286651500713 L 0 32.47286651500713 Z " stroke="none" fill-rule="evenodd" fill="#000000" fill-opacity="1" transform="matrix(1,0,0,1,5.05,13.314)" id="mark37 l" />
  <path d="M 0 20.398577676671437 L 10 20.398577676671437 L 10 21.898577676671437 L 0 21.898577676671437 Z " stroke="none" fill-rule="evenodd" fill="#000000" fill-opacity="1" transform="matrix(1,0,0,1,5.05,13.314)" id="mark38 l" />
  <path d="M 0 9.82428883833569 L 10 9.82428883833569 L 10 11.32428883833569 L 0 11.32428883833569 Z " stroke="none" fill-rule="evenodd" fill="#000000" fill-opacity="1" transform="matrix(1,0,0,1,5.05,13.314)" id="mark39 l" />
  <path d="M 0 -0.75 L 25 -0.75 L 25 0.75 L 0 0.75 Z " stroke="none" fill-rule="evenodd" fill="#000000" fill-opacity="1" transform="matrix(1,0,0,1,5.05,13.314)" id="mark40 l" />
  <path d="M 11.739999999999998 -3.484 L 11.739999999999998 -4.359999999999999 L 12.455999999999998 -6.24 L 13.495999999999999 -6.24 L 12.771999999999998 -4.4079999999999995 L 13.171999999999997 -4.4079999999999995 L 13.171999999999997 -3.484 Z M 13.675999999999998 -1.7999999999999998 L 13.675999999999998 -8.2 L 14.683999999999997 -8.2 L 14.683999999999997 -1.7999999999999998 Z M 15.187999999999999 -3.484 L 15.187999999999999 -4.4079999999999995 L 15.655999999999999 -4.4079999999999995 L 15.655999999999999 -3.484 Z M 16.195999999999998 -3.2119999999999997 C 16.188 -3.641333333333333, 16.182666666666666 -4.058, 16.18 -4.462 C 16.177333333333333 -4.866, 16.177999999999997 -5.261333333333333, 16.182 -5.648 C 16.186 -6.034666666666666, 16.190666666666665 -6.416, 16.195999999999998 -6.792 C 16.20933333333333 -7.231999999999999, 16.333999999999996 -7.577333333333334, 16.569999999999997 -7.828 C 16.805999999999997 -8.078666666666667, 17.142666666666663 -8.224, 17.58 -8.264 L 17.58 -7.3759999999999994 C 17.382666666666665 -7.32, 17.281333333333333 -7.190666666666667, 17.275999999999996 -6.9879999999999995 C 17.262666666666664 -6.617333333333333, 17.25333333333333 -6.269333333333333, 17.247999999999998 -5.944 C 17.242666666666665 -5.618666666666666, 17.24 -5.302, 17.24 -4.994 C 17.24 -4.686, 17.242666666666665 -4.371333333333333, 17.247999999999998 -4.05 C 17.25333333333333 -3.7286666666666664, 17.262666666666664 -3.3853333333333326, 17.275999999999996 -3.0199999999999996 C 17.281333333333333 -2.812, 17.382666666666665 -2.6799999999999997, 17.58 -2.6239999999999997 L 17.58 -1.7359999999999998 C 17.142666666666663 -1.7759999999999998, 16.805999999999997 -1.9219999999999997, 16.569999999999997 -2.174 C 16.333999999999996 -2.4259999999999997, 16.20933333333333 -2.772, 16.195999999999998 -3.2119999999999997 Z M 18.084 -1.7359999999999998 L 18.084 -2.6279999999999997 C 18.268 -2.681333333333333, 18.366666666666667 -2.8053333333333335, 18.38 -3 C 18.398666666666664 -3.4666666666666663, 18.410666666666664 -3.915333333333333, 18.415999999999997 -4.346 C 18.42133333333333 -4.776666666666666, 18.42133333333333 -5.207333333333333, 18.415999999999997 -5.638 C 18.410666666666664 -6.068666666666666, 18.398666666666664 -6.521333333333333, 18.38 -6.9959999999999996 C 18.374666666666666 -7.190666666666667, 18.276 -7.317333333333334, 18.084 -7.3759999999999994 L 18.084 -8.264 C 18.513333333333332 -8.224, 18.846666666666664 -8.078666666666667, 19.083999999999996 -7.828 C 19.32133333333333 -7.577333333333334, 19.44533333333333 -7.231999999999999, 19.456 -6.792 C 19.466666666666665 -6.477333333333332, 19.474666666666664 -6.167333333333333, 19.479999999999997 -5.861999999999999 C 19.48533333333333 -5.556666666666667, 19.488 -5.256, 19.488 -4.96 C 19.488 -4.664, 19.48533333333333 -4.370666666666667, 19.479999999999997 -4.08 C 19.474666666666664 -3.7893333333333334, 19.466666666666665 -3.5, 19.456 -3.2119999999999997 C 19.439999999999998 -2.761333333333333, 19.311999999999998 -2.4126666666666665, 19.072 -2.166 C 18.831999999999997 -1.9193333333333331, 18.502666666666663 -1.7759999999999998, 18.084 -1.7359999999999998 Z M 21.944 -1.7999999999999998 L 21.944 -8.2 L 23.003999999999998 -8.2 L 23.003999999999998 -1.7999999999999998 Z " stroke="none" fill-rule="nonzero" fill="#000000" fill-opacity="1" transform="matrix(1,0,0,1,5.05,13.314)" id="text40 l" />
  <path d="M -5 -13.264 L 30 -13.264 L 30 419.1652646950921 L -5 419.1652646950921 Z " stroke="#FF0000" stroke-opacity="1" stroke-width="0.1" stroke-linecap="butt" stroke-linejoin="miter" fill="none" transform="matrix(1,0,0,1,5.05,13.314)" />
</svg>