<?xml version="1.0" encoding="UTF-8"?>
<svg xmlns:xlink="http://www.w3.org/1999/xlink" viewBox="0 0 35.1 501.5265809569674" version="1.1" style="font-synthesis: none;" width="35.1mm" height="501.5265809569674mm" xmlns="http://www.w3.org/2000/svg">
  <defs />
  <style>	</style>
  <path d="M 0 0 L 35.1 0 L 35.1 501.5265809569674 L 0 501.5265809569674 Z " stroke="none" fill-rule="nonzero" fill="#FFFFFF" fill-opacity="1" transform="matrix(1,0,0,1,0,0)" />
  <path d="M 0 480.6445809569674 L 10 480.6445809569674 L 10 482.1445809569674 L 0 482.1445809569674 Z " stroke="none" fill-rule="evenodd" fill="#000000" fill-opacity="1" transform="matrix(1,0,0,1,5.05,13.314)" id="mark1 l" />
  <path d="M 0 470.82020175376397 L 10 470.82020175376397 L 10 472.32020175376397 L 0 472.32020175376397 Z " stroke="none" fill-rule="evenodd" fill="#000000" fill-opacity="1" transform="matrix(1,0,0,1,5.05,13.314)" id="mark2 l" />
  <path d="M 0 460.99582255056055 L 10 460.99582255056055 L 10 462.49582255056055 L 0 462.49582255056055 Z " stroke="none" fill-rule="evenodd" fill="#000000" fill-opacity="1" transform="matrix(1,0,0,1,5.05,13.314)" id="mark3 l" />
  <path d="M 0 451.1714433473571 L 10 451.1714433473571 L 10 452.6714433473571 L 0 452.6714433473571 Z " stroke="none" fill-rule="evenodd" fill="#000000" fill-opacity="1" transform="matrix(1,0,0,1,5.05,13.314)" id="mark4 l" />
  <path d="M 0 441.3470641441537 L 25 441.3470641441537 L 25 442.8470641441537 L 0 442.8470641441537 Z " stroke="none" fill-rule="evenodd" fill="#000000" fill-opacity="1" transform="matrix(1,0,0,1,5.05,13.314)" id="mark5 l" />
  <path d="M 16.18 438.8490641441537 C 16.174666666666667 438.67573081082037, 16.173333333333332 438.53639747748707, 16.176 438.4310641441537 C 16.178666666666665 438.32573081082035, 16.181333333333335 438.22373081082037, 16.183999999999997 438.1250641441537 L 17.264 438.1250641441537 C 17.256 438.20239747748707, 17.25 438.2983974774871, 17.246 438.41306414415374 C 17.241999999999997 438.5277308108204, 17.240666666666666 438.63839747748705, 17.241999999999997 438.74506414415373 C 17.243333333333332 438.8517308108204, 17.246666666666666 438.93173081082034, 17.252 438.98506414415374 C 17.262666666666668 439.10506414415374, 17.297333333333334 439.2030641441537, 17.355999999999998 439.2790641441537 C 17.414666666666665 439.35506414415374, 17.497333333333334 439.4090641441537, 17.604 439.4410641441537 L 17.604 440.3330641441537 C 17.110666666666663 440.2957308108204, 16.75333333333333 440.16106414415367, 16.532 439.9290641441537 C 16.310666666666666 439.6970641441537, 16.19333333333333 439.3370641441537, 16.18 438.8490641441537 Z M 16.279999999999998 437.5130641441537 L 16.279999999999998 433.86506414415373 L 17.348 433.86506414415373 L 17.348 437.5130641441537 Z M 17.852 437.0890641441537 L 17.852 436.3330641441537 C 17.929333333333332 436.29306414415373, 18.014666666666667 436.2610641441537, 18.107999999999997 436.2370641441537 C 18.20133333333333 436.2130641441537, 18.301333333333332 436.20106414415375, 18.407999999999998 436.2010641441537 C 18.773333333333333 436.20106414415375, 19.047333333333334 436.31639747748704, 19.23 436.5470641441537 C 19.412666666666667 436.77773081082034, 19.514666666666663 437.0917308108203, 19.535999999999998 437.4890641441537 C 19.546666666666667 437.6490641441537, 19.55333333333333 437.8077308108204, 19.555999999999997 437.9650641441537 C 19.558666666666664 438.122397477487, 19.557333333333332 438.2757308108204, 19.552 438.42506414415374 C 19.546666666666667 438.5743974774871, 19.538666666666668 438.71439747748707, 19.528 438.8450641441537 C 19.482666666666667 439.3437308108204, 19.353333333333335 439.7090641441537, 19.14 439.9410641441537 C 18.926666666666666 440.1730641441537, 18.581333333333333 440.30373081082035, 18.104 440.3330641441537 L 18.104 439.4410641441537 C 18.21333333333333 439.41173081082036, 18.296 439.35906414415376, 18.352 439.2830641441537 C 18.408 439.2070641441537, 18.44 439.1077308108204, 18.448 438.98506414415374 C 18.471999999999998 438.6943974774871, 18.485999999999997 438.4330641441537, 18.49 438.2010641441537 C 18.494 437.9690641441537, 18.485333333333333 437.74773081082037, 18.464 437.5370641441537 C 18.447999999999997 437.3823974774871, 18.396666666666665 437.26706414415366, 18.31 437.1910641441537 C 18.223333333333333 437.11506414415373, 18.090666666666664 437.0770641441537, 17.912 437.0770641441537 C 17.901333333333334 437.0770641441537, 17.890666666666668 437.07839747748704, 17.88 437.0810641441537 C 17.86933333333333 437.0837308108204, 17.86 437.086397477487, 17.852 437.0890641441537 Z M 17.852 434.7970641441537 L 17.852 433.86506414415373 L 19.439999999999998 433.86506414415373 L 19.439999999999998 434.7970641441537 Z M 21.944 440.2650641441537 L 21.944 433.86506414415373 L 23.003999999999998 433.86506414415373 L 23.003999999999998 440.2650641441537 Z " stroke="none" fill-rule="nonzero" fill="#000000" fill-opacity="1" transform="matrix(1,0,0,1,5.05,13.314)" id="text5 l" />
  <path d="M 0 431.5226849409503 L 10 431.5226849409503 L 10 433.0226849409503 L 0 433.0226849409503 Z " stroke="none" fill-rule="evenodd" fill="#000000" fill-opacity="1" transform="matrix(1,0,0,1,5.05,13.314)" id="mark6 l" />
  <path d="M 0 421.69830573774686 L 10 421.69830573774686 L 10 423.19830573774686 L 0 423.19830573774686 Z " stroke="none" fill-rule="evenodd" fill="#000000" fill-opacity="1" transform="matrix(1,0,0,1,5.05,13.314)" id="mark7 l" />
  <path d="M 0 411.87392653454344 L 10 411.87392653454344 L 10 413.37392653454344 L 0 413.37392653454344 Z " stroke="none" fill-rule="evenodd" fill="#000000" fill-opacity="1" transform="matrix(1,0,0,1,5.05,13.314)" id="mark8 l" />
  <path d="M 0 402.0495473313401 L 10 402.0495473313401 L 10 403.5495473313401 L 0 403.5495473313401 Z " stroke="none" fill-rule="evenodd" fill="#000000" fill-opacity="1" transform="matrix(1,0,0,1,5.05,13.314)" id="mark9 l" />
  <path d="M 0 392.22516812813666 L 25 392.22516812813666 L 25 393.72516812813666 L 0 393.72516812813666 Z " stroke="none" fill-rule="evenodd" fill="#000000" fill-opacity="1" transform="matrix(1,0,0,1,5.05,13.314)" id="mark10 l" />
  <path d="M 14.323999999999998 391.17516812813665 L 14.323999999999998 385.73116812813663 L 13.871999999999998 385.73116812813663 L 13.839999999999998 385.35116812813664 L 14.543999999999999 384.77516812813667 L 15.424 384.77516812813667 L 15.424 391.17516812813665 Z M 16.196 389.76316812813667 C 16.188000000000002 389.33383479480335, 16.182666666666666 388.9171681281367, 16.18 388.51316812813667 C 16.177333333333333 388.10916812813673, 16.177999999999997 387.71383479480335, 16.182 387.32716812813663 C 16.186 386.94050146147, 16.190666666666665 386.55916812813666, 16.196 386.18316812813663 C 16.209333333333333 385.74316812813663, 16.334000000000003 385.3978347948033, 16.57 385.1471681281366 C 16.805999999999997 384.89650146146994, 17.142666666666663 384.75116812813667, 17.58 384.71116812813665 L 17.58 385.5991681281366 C 17.382666666666665 385.65516812813667, 17.281333333333333 385.78450146147, 17.276 385.98716812813666 C 17.262666666666668 386.3578347948033, 17.253333333333334 386.7058347948033, 17.248 387.03116812813664 C 17.242666666666665 387.35650146147, 17.24 387.6731681281366, 17.24 387.98116812813663 C 17.24 388.28916812813657, 17.242666666666665 388.6038347948033, 17.248 388.92516812813665 C 17.253333333333334 389.24650146147, 17.262666666666668 389.5898347948033, 17.276 389.9551681281366 C 17.281333333333333 390.1631681281366, 17.382666666666665 390.29516812813665, 17.58 390.35116812813664 L 17.58 391.23916812813667 C 17.142666666666663 391.19916812813665, 16.805999999999997 391.0531681281367, 16.57 390.8011681281366 C 16.334000000000003 390.54916812813667, 16.209333333333333 390.20316812813667, 16.196 389.76316812813667 Z M 18.084 391.23916812813667 L 18.084 390.3471681281367 C 18.268 390.2938347948033, 18.366666666666667 390.16983479480325, 18.38 389.97516812813666 C 18.398666666666667 389.50850146147, 18.410666666666668 389.05983479480335, 18.416 388.62916812813666 C 18.421333333333333 388.19850146146996, 18.421333333333333 387.7678347948033, 18.416 387.3371681281366 C 18.410666666666668 386.90650146147, 18.398666666666667 386.45383479480336, 18.38 385.9791681281366 C 18.374666666666666 385.78450146147, 18.276 385.6578347948033, 18.084 385.5991681281366 L 18.084 384.71116812813665 C 18.513333333333335 384.75116812813667, 18.846666666666668 384.89650146146994, 19.084 385.1471681281366 C 19.321333333333335 385.3978347948033, 19.445333333333334 385.74316812813663, 19.456 386.18316812813663 C 19.46666666666667 386.49783479480334, 19.474666666666668 386.8078347948033, 19.48 387.11316812813664 C 19.485333333333333 387.41850146147, 19.488 387.71916812813663, 19.488 388.0151681281366 C 19.488 388.3111681281366, 19.485333333333333 388.60450146146997, 19.48 388.8951681281367 C 19.474666666666668 389.1858347948033, 19.46666666666667 389.47516812813666, 19.456 389.76316812813667 C 19.439999999999998 390.21383479480335, 19.311999999999998 390.56250146147, 19.072 390.80916812813666 C 18.832 391.05583479480333, 18.502666666666666 391.19916812813665, 18.084 391.23916812813667 Z M 21.944 391.17516812813665 L 21.944 384.77516812813667 L 23.003999999999998 384.77516812813667 L 23.003999999999998 391.17516812813665 Z " stroke="none" fill-rule="nonzero" fill="#000000" fill-opacity="1" transform="matrix(1,0,0,1,5.05,13.314)" id="text10 l" />
  <path d="M 0 382.40078892493324 L 10 382.40078892493324 L 10 383.90078892493324 L 0 383.90078892493324 Z " stroke="none" fill-rule="evenodd" fill="#000000" fill-opacity="1" transform="matrix(1,0,0,1,5.05,13.314)" id="mark11 l" />
  <path d="M 0 372.5764097217298 L 10 372.5764097217298 L 10 374.0764097217298 L 0 374.0764097217298 Z " stroke="none" fill-rule="evenodd" fill="#000000" fill-opacity="1" transform="matrix(1,0,0,1,5.05,13.314)" id="mark12 l" />
  <path d="M 0 362.7520305185264 L 10 362.7520305185264 L 10 364.2520305185264 L 0 364.2520305185264 Z " stroke="none" fill-rule="evenodd" fill="#000000" fill-opacity="1" transform="matrix(1,0,0,1,5.05,13.314)" id="mark13 l" />
  <path d="M 0 352.927651315323 L 10 352.927651315323 L 10 354.427651315323 L 0 354.427651315323 Z " stroke="none" fill-rule="evenodd" fill="#000000" fill-opacity="1" transform="matrix(1,0,0,1,5.05,13.314)" id="mark14 l" />
  <path d="M 0 343.10327211211956 L 25 343.10327211211956 L 25 344.60327211211956 L 0 344.60327211211956 Z " stroke="none" fill-rule="evenodd" fill="#000000" fill-opacity="1" transform="matrix(1,0,0,1,5.05,13.314)" id="mark15 l" />
  <path d="M 14.331999999999999 342.02127211211956 L 14.331999999999999 336.57727211211954 L 13.879999999999999 336.57727211211954 L 13.847999999999999 336.19727211211955 L 14.552 335.6212721121196 L 15.432 335.6212721121196 L 15.432 342.02127211211956 Z M 16.18 340.60527211211956 C 16.174666666666667 340.4319387787862, 16.173333333333332 340.29260544545286, 16.176 340.18727211211956 C 16.178666666666665 340.08193877878625, 16.181333333333335 339.9799387787862, 16.183999999999997 339.8812721121196 L 17.264 339.8812721121196 C 17.256 339.9586054454529, 17.25 340.0546054454529, 17.246 340.1692721121196 C 17.241999999999997 340.28393877878625, 17.240666666666666 340.3946054454529, 17.241999999999997 340.5012721121196 C 17.243333333333332 340.6079387787862, 17.246666666666666 340.68793877878625, 17.252 340.7412721121196 C 17.262666666666668 340.86127211211954, 17.297333333333334 340.95927211211955, 17.355999999999998 341.03527211211957 C 17.414666666666665 341.11127211211954, 17.497333333333334 341.16527211211957, 17.604 341.19727211211955 L 17.604 342.08927211211954 C 17.110666666666663 342.0519387787862, 16.75333333333333 341.9172721121196, 16.532 341.68527211211955 C 16.310666666666666 341.4532721121195, 16.19333333333333 341.09327211211956, 16.18 340.60527211211956 Z M 16.279999999999998 339.26927211211955 L 16.279999999999998 335.6212721121196 L 17.348 335.6212721121196 L 17.348 339.26927211211955 Z M 17.852 338.8452721121196 L 17.852 338.08927211211954 C 17.929333333333332 338.0492721121195, 18.014666666666667 338.01727211211954, 18.107999999999997 337.99327211211954 C 18.20133333333333 337.96927211211954, 18.301333333333332 337.95727211211954, 18.407999999999998 337.95727211211954 C 18.773333333333333 337.95727211211954, 19.047333333333334 338.0726054454529, 19.23 338.30327211211954 C 19.412666666666667 338.5339387787862, 19.514666666666663 338.8479387787862, 19.535999999999998 339.24527211211955 C 19.546666666666667 339.4052721121196, 19.55333333333333 339.5639387787862, 19.555999999999997 339.72127211211955 C 19.558666666666664 339.8786054454529, 19.557333333333332 340.03193877878624, 19.552 340.1812721121196 C 19.546666666666667 340.33060544545293, 19.538666666666668 340.4706054454529, 19.528 340.60127211211955 C 19.482666666666667 341.0999387787862, 19.353333333333335 341.4652721121196, 19.14 341.69727211211955 C 18.926666666666666 341.9292721121195, 18.581333333333333 342.0599387787862, 18.104 342.08927211211954 L 18.104 341.19727211211955 C 18.21333333333333 341.1679387787862, 18.296 341.11527211211956, 18.352 341.03927211211953 C 18.408 340.9632721121195, 18.44 340.86393877878623, 18.448 340.7412721121196 C 18.471999999999998 340.4506054454529, 18.485999999999997 340.18927211211957, 18.49 339.95727211211954 C 18.494 339.72527211211957, 18.485333333333333 339.5039387787863, 18.464 339.29327211211955 C 18.447999999999997 339.13860544545287, 18.396666666666665 339.02327211211957, 18.31 338.94727211211955 C 18.223333333333333 338.8712721121196, 18.090666666666664 338.8332721121196, 17.912 338.8332721121196 C 17.901333333333334 338.8332721121196, 17.890666666666668 338.8346054454529, 17.88 338.83727211211954 C 17.86933333333333 338.83993877878623, 17.86 338.8426054454529, 17.852 338.8452721121196 Z M 17.852 336.55327211211954 L 17.852 335.6212721121196 L 19.439999999999998 335.6212721121196 L 19.439999999999998 336.55327211211954 Z M 21.944 342.02127211211956 L 21.944 335.6212721121196 L 23.003999999999998 335.6212721121196 L 23.003999999999998 342.02127211211956 Z " stroke="none" fill-rule="nonzero" fill="#000000" fill-opacity="1" transform="matrix(1,0,0,1,5.05,13.314)" id="text15 l" />
  <path d="M 0 333.27889290891613 L 10 333.27889290891613 L 10 334.77889290891613 L 0 334.77889290891613 Z " stroke="none" fill-rule="evenodd" fill="#000000" fill-opacity="1" transform="matrix(1,0,0,1,5.05,13.314)" id="mark16 l" />
  <path d="M 0 323.4545137057127 L 10 323.4545137057127 L 10 324.9545137057127 L 0 324.9545137057127 Z " stroke="none" fill-rule="evenodd" fill="#000000" fill-opacity="1" transform="matrix(1,0,0,1,5.05,13.314)" id="mark17 l" />
  <path d="M 0 313.63013450250935 L 10 313.63013450250935 L 10 315.13013450250935 L 0 315.13013450250935 Z " stroke="none" fill-rule="evenodd" fill="#000000" fill-opacity="1" transform="matrix(1,0,0,1,5.05,13.314)" id="mark18 l" />
  <path d="M 0 303.80575529930593 L 10 303.80575529930593 L 10 305.30575529930593 L 0 305.30575529930593 Z " stroke="none" fill-rule="evenodd" fill="#000000" fill-opacity="1" transform="matrix(1,0,0,1,5.05,13.314)" id="mark19 l" />
  <path d="M 0 293.9813760961025 L 25 293.9813760961025 L 25 295.4813760961025 L 0 295.4813760961025 Z " stroke="none" fill-rule="evenodd" fill="#000000" fill-opacity="1" transform="matrix(1,0,0,1,5.05,13.314)" id="mark20 l" />
  <path d="M 12.319999999999999 292.9313760961025 C 12.317333333333334 292.8327094294358, 12.315333333333331 292.74404276276914, 12.313999999999998 292.6653760961025 C 12.312666666666665 292.5867094294358, 12.311333333333334 292.5127094294358, 12.309999999999999 292.4433760961025 C 12.308666666666667 292.3740427627692, 12.308 292.3020427627692, 12.308 292.2273760961025 C 12.308 292.15270942943584, 12.308 292.0680427627692, 12.308 291.97337609610247 C 12.308 291.87870942943584, 12.309333333333335 291.7673760961025, 12.312 291.6393760961025 C 12.32 291.3460427627692, 12.37 291.0840427627692, 12.462 290.8533760961025 C 12.554 290.6227094294359, 12.687999999999999 290.41670942943585, 12.863999999999999 290.23537609610247 C 13.04 290.05404276276914, 13.257333333333333 289.8927094294358, 13.515999999999998 289.7513760961025 L 14.047999999999998 289.4633760961025 C 14.234666666666666 289.36204276276914, 14.354 289.2400427627691, 14.405999999999999 289.0973760961025 C 14.457999999999998 288.95470942943587, 14.488 288.82070942943585, 14.495999999999999 288.6953760961025 C 14.506666666666664 288.5487094294358, 14.512666666666664 288.39204276276917, 14.514 288.2253760961025 C 14.51533333333333 288.0587094294358, 14.511999999999997 287.90204276276916, 14.504 287.7553760961025 C 14.498666666666665 287.6513760961025, 14.468666666666666 287.5653760961025, 14.413999999999998 287.49737609610247 C 14.359333333333332 287.4293760961025, 14.279999999999998 287.3807094294358, 14.175999999999998 287.3513760961025 L 14.175999999999998 286.4633760961025 C 14.663999999999998 286.49537609610246, 15.014 286.6267094294358, 15.225999999999999 286.8573760961025 C 15.437999999999999 287.0880427627692, 15.554666666666666 287.44870942943584, 15.575999999999999 287.9393760961025 C 15.578666666666663 288.0033760961025, 15.580666666666666 288.06870942943584, 15.581999999999999 288.1353760961025 C 15.583333333333332 288.20204276276917, 15.584 288.2667094294358, 15.584 288.3293760961025 C 15.584 288.39204276276917, 15.583333333333332 288.4540427627692, 15.581999999999999 288.5153760961025 C 15.580666666666666 288.5767094294358, 15.578666666666663 288.6367094294358, 15.575999999999999 288.6953760961025 C 15.565333333333331 288.9807094294358, 15.512 289.2273760961025, 15.415999999999999 289.4353760961025 C 15.32 289.6433760961025, 15.19 289.8233760961025, 15.026 289.9753760961025 C 14.862 290.12737609610247, 14.672 290.2633760961025, 14.456 290.3833760961025 L 13.851999999999999 290.71137609610247 C 13.737333333333332 290.77270942943585, 13.647333333333332 290.85670942943585, 13.581999999999999 290.9633760961025 C 13.516666666666666 291.07004276276916, 13.469999999999999 291.1833760961025, 13.441999999999998 291.3033760961025 C 13.413999999999998 291.4233760961025, 13.399999999999999 291.53537609610254, 13.399999999999999 291.6393760961025 L 13.399999999999999 292.9313760961025 Z M 12.328 288.8913760961025 C 12.322666666666667 288.7740427627691, 12.318666666666665 288.6593760961025, 12.315999999999999 288.5473760961025 C 12.313333333333333 288.43537609610246, 12.311333333333334 288.32937609610246, 12.309999999999999 288.2293760961025 C 12.308666666666667 288.12937609610253, 12.309333333333335 288.03270942943584, 12.312 287.9393760961025 C 12.330666666666666 287.4513760961025, 12.447333333333333 287.09204276276915, 12.661999999999999 286.8613760961025 C 12.876666666666665 286.63070942943585, 13.213333333333331 286.49804276276916, 13.671999999999999 286.4633760961025 L 13.671999999999999 287.3553760961025 C 13.576 287.3847094294358, 13.505333333333333 287.43137609610255, 13.459999999999999 287.4953760961025 C 13.414666666666665 287.5593760961025, 13.390666666666664 287.6367094294358, 13.387999999999998 287.7273760961025 C 13.382666666666665 287.9353760961025, 13.379333333333333 288.12870942943584, 13.378 288.3073760961025 C 13.376666666666667 288.48604276276916, 13.381333333333334 288.68070942943586, 13.392 288.8913760961025 Z M 13.904 292.9313760961025 L 13.904 291.9993760961025 L 15.5 291.9993760961025 L 15.5 292.9313760961025 Z M 16.196 291.5193760961025 C 16.188000000000002 291.0900427627692, 16.182666666666666 290.6733760961025, 16.18 290.2693760961025 C 16.177333333333333 289.8653760961025, 16.177999999999997 289.4700427627692, 16.182 289.0833760961025 C 16.186 288.6967094294358, 16.190666666666665 288.3153760961025, 16.196 287.9393760961025 C 16.209333333333333 287.4993760961025, 16.334000000000003 287.15404276276917, 16.57 286.9033760961025 C 16.805999999999997 286.65270942943584, 17.142666666666663 286.50737609610246, 17.58 286.4673760961025 L 17.58 287.3553760961025 C 17.382666666666665 287.41137609610246, 17.281333333333333 287.5407094294358, 17.276 287.7433760961025 C 17.262666666666668 288.11404276276915, 17.253333333333334 288.46204276276916, 17.248 288.7873760961025 C 17.242666666666665 289.1127094294358, 17.24 289.4293760961025, 17.24 289.7373760961025 C 17.24 290.0453760961025, 17.242666666666665 290.3600427627691, 17.248 290.6813760961025 C 17.253333333333334 291.00270942943587, 17.262666666666668 291.3460427627692, 17.276 291.71137609610247 C 17.281333333333333 291.9193760961025, 17.382666666666665 292.05137609610244, 17.58 292.1073760961025 L 17.58 292.9953760961025 C 17.142666666666663 292.9553760961025, 16.805999999999997 292.8093760961025, 16.57 292.5573760961025 C 16.334000000000003 292.30537609610246, 16.209333333333333 291.9593760961025, 16.196 291.5193760961025 Z M 18.084 292.9953760961025 L 18.084 292.1033760961025 C 18.268 292.0500427627692, 18.366666666666667 291.92604276276916, 18.38 291.7313760961025 C 18.398666666666667 291.26470942943587, 18.410666666666668 290.8160427627692, 18.416 290.3853760961025 C 18.421333333333333 289.9547094294358, 18.421333333333333 289.52404276276917, 18.416 289.0933760961025 C 18.410666666666668 288.66270942943584, 18.398666666666667 288.21004276276915, 18.38 287.73537609610247 C 18.374666666666666 287.5407094294358, 18.276 287.41404276276916, 18.084 287.3553760961025 L 18.084 286.4673760961025 C 18.513333333333335 286.50737609610246, 18.846666666666668 286.65270942943584, 19.084 286.9033760961025 C 19.321333333333335 287.15404276276917, 19.445333333333334 287.4993760961025, 19.456 287.9393760961025 C 19.46666666666667 288.2540427627692, 19.474666666666668 288.5640427627692, 19.48 288.8693760961025 C 19.485333333333333 289.17470942943584, 19.488 289.4753760961025, 19.488 289.7713760961025 C 19.488 290.06737609610246, 19.485333333333333 290.3607094294358, 19.48 290.6513760961025 C 19.474666666666668 290.9420427627692, 19.46666666666667 291.2313760961025, 19.456 291.5193760961025 C 19.439999999999998 291.9700427627692, 19.311999999999998 292.31870942943584, 19.072 292.5653760961025 C 18.832 292.8120427627692, 18.502666666666666 292.9553760961025, 18.084 292.9953760961025 Z M 21.944 292.9313760961025 L 21.944 286.5313760961025 L 23.003999999999998 286.5313760961025 L 23.003999999999998 292.9313760961025 Z " stroke="none" fill-rule="nonzero" fill="#000000" fill-opacity="1" transform="matrix(1,0,0,1,5.05,13.314)" id="text20 l" />
  <path d="M 0 284.1569968928991 L 10 284.1569968928991 L 10 285.6569968928991 L 0 285.6569968928991 Z " stroke="none" fill-rule="evenodd" fill="#000000" fill-opacity="1" transform="matrix(1,0,0,1,5.05,13.314)" id="mark21 l" />
  <path d="M 0 274.33261768969567 L 10 274.33261768969567 L 10 275.83261768969567 L 0 275.83261768969567 Z " stroke="none" fill-rule="evenodd" fill="#000000" fill-opacity="1" transform="matrix(1,0,0,1,5.05,13.314)" id="mark22 l" />
  <path d="M 0 264.50823848649225 L 10 264.50823848649225 L 10 266.00823848649225 L 0 266.00823848649225 Z " stroke="none" fill-rule="evenodd" fill="#000000" fill-opacity="1" transform="matrix(1,0,0,1,5.05,13.314)" id="mark23 l" />
  <path d="M 0 254.6838592832888 L 10 254.6838592832888 L 10 256.1838592832888 L 0 256.1838592832888 Z " stroke="none" fill-rule="evenodd" fill="#000000" fill-opacity="1" transform="matrix(1,0,0,1,5.05,13.314)" id="mark24 l" />
  <path d="M 0 244.8594800800854 L 25 244.8594800800854 L 25 246.3594800800854 L 0 246.3594800800854 Z " stroke="none" fill-rule="evenodd" fill="#000000" fill-opacity="1" transform="matrix(1,0,0,1,5.05,13.314)" id="mark25 l" />
  <path d="M 12.328 243.80948008008542 C 12.325333333333333 243.71081341341875, 12.323333333333332 243.6221467467521, 12.322 243.54348008008543 C 12.320666666666666 243.46481341341877, 12.319333333333333 243.39081341341875, 12.318 243.32148008008542 C 12.316666666666666 243.2521467467521, 12.315999999999999 243.1801467467521, 12.316 243.1054800800854 C 12.315999999999999 243.03081341341874, 12.315999999999999 242.94614674675208, 12.316 242.85148008008542 C 12.315999999999999 242.75681341341877, 12.317333333333334 242.64548008008543, 12.32 242.51748008008542 C 12.328 242.2241467467521, 12.378 241.9621467467521, 12.47 241.73148008008542 C 12.562000000000001 241.50081341341874, 12.696 241.29481341341875, 12.872 241.11348008008542 C 13.048 240.9321467467521, 13.265333333333334 240.77081341341875, 13.524000000000001 240.62948008008541 L 14.056000000000001 240.34148008008543 C 14.242666666666668 240.2401467467521, 14.362000000000002 240.11814674675207, 14.414 239.97548008008542 C 14.466000000000001 239.83281341341876, 14.495999999999999 239.69881341341875, 14.504 239.57348008008543 C 14.514666666666667 239.42681341341876, 14.520666666666667 239.27014674675212, 14.522 239.10348008008543 C 14.523333333333333 238.93681341341875, 14.520000000000001 238.7801467467521, 14.512 238.63348008008543 C 14.506666666666666 238.52948008008542, 14.476666666666667 238.4434800800854, 14.422 238.37548008008542 C 14.367333333333335 238.30748008008544, 14.288 238.25881341341875, 14.184000000000001 238.2294800800854 L 14.184000000000001 237.34148008008543 C 14.672 237.37348008008541, 15.022000000000002 237.50481341341873, 15.234 237.7354800800854 C 15.446000000000002 237.9661467467521, 15.562666666666667 238.32681341341873, 15.584 238.81748008008543 C 15.586666666666668 238.88148008008545, 15.588666666666668 238.9468134134188, 15.59 239.01348008008543 C 15.591333333333335 239.08014674675212, 15.592000000000002 239.14481341341877, 15.592 239.20748008008542 C 15.592000000000002 239.27014674675206, 15.591333333333335 239.33214674675207, 15.59 239.39348008008542 C 15.588666666666668 239.45481341341878, 15.586666666666668 239.51481341341878, 15.584 239.57348008008543 C 15.573333333333332 239.85881341341877, 15.52 240.1054800800854, 15.424 240.3134800800854 C 15.328 240.5214800800854, 15.197999999999999 240.70148008008542, 15.033999999999999 240.85348008008543 C 14.87 241.00548008008542, 14.68 241.14148008008542, 14.464 241.26148008008542 L 13.86 241.58948008008542 C 13.745333333333335 241.65081341341875, 13.655333333333335 241.73481341341875, 13.59 241.84148008008543 C 13.524666666666668 241.94814674675212, 13.478000000000002 242.0614800800854, 13.45 242.1814800800854 C 13.422 242.3014800800854, 13.408 242.4134800800854, 13.408 242.51748008008542 L 13.408 243.80948008008542 Z M 12.336 239.76948008008543 C 12.330666666666666 239.6521467467521, 12.326666666666664 239.53748008008543, 12.324 239.42548008008544 C 12.321333333333332 239.31348008008544, 12.319333333333333 239.20748008008542, 12.318 239.10748008008542 C 12.316666666666666 239.00748008008543, 12.317333333333334 238.91081341341874, 12.32 238.81748008008543 C 12.338666666666668 238.32948008008543, 12.455333333333336 237.9701467467521, 12.67 237.73948008008543 C 12.884666666666668 237.50881341341875, 13.221333333333334 237.3761467467521, 13.68 237.34148008008543 L 13.68 238.23348008008543 C 13.584 238.26281341341874, 13.513333333333332 238.3094800800854, 13.468 238.37348008008541 C 13.422666666666668 238.43748008008544, 13.398666666666667 238.51481341341875, 13.396 238.6054800800854 C 13.390666666666666 238.8134800800854, 13.387333333333332 239.00681341341874, 13.386 239.18548008008543 C 13.384666666666666 239.3641467467521, 13.389333333333333 239.55881341341876, 13.4 239.76948008008543 Z M 13.911999999999999 243.80948008008542 L 13.911999999999999 242.87748008008543 L 15.508 242.87748008008543 L 15.508 243.80948008008542 Z M 16.18 242.39348008008542 C 16.174666666666667 242.2201467467521, 16.173333333333332 242.08081341341875, 16.176 241.97548008008542 C 16.178666666666665 241.87014674675208, 16.181333333333335 241.7681467467521, 16.183999999999997 241.66948008008544 L 17.264 241.66948008008544 C 17.256 241.74681341341875, 17.25 241.84281341341875, 17.246 241.95748008008542 C 17.241999999999997 242.07214674675208, 17.240666666666666 242.18281341341873, 17.241999999999997 242.2894800800854 C 17.243333333333332 242.3961467467521, 17.246666666666666 242.47614674675208, 17.252 242.52948008008542 C 17.262666666666668 242.64948008008543, 17.297333333333334 242.74748008008544, 17.355999999999998 242.82348008008543 C 17.414666666666665 242.89948008008543, 17.497333333333334 242.9534800800854, 17.604 242.9854800800854 L 17.604 243.87748008008543 C 17.110666666666663 243.8401467467521, 16.75333333333333 243.7054800800854, 16.532 243.4734800800854 C 16.310666666666666 243.2414800800854, 16.19333333333333 242.88148008008545, 16.18 242.39348008008542 Z M 16.279999999999998 241.0574800800854 L 16.279999999999998 237.40948008008542 L 17.348 237.40948008008542 L 17.348 241.0574800800854 Z M 17.852 240.63348008008543 L 17.852 239.87748008008543 C 17.929333333333332 239.83748008008544, 18.014666666666667 239.80548008008543, 18.107999999999997 239.78148008008543 C 18.20133333333333 239.75748008008543, 18.301333333333332 239.74548008008543, 18.407999999999998 239.74548008008543 C 18.773333333333333 239.74548008008543, 19.047333333333334 239.86081341341878, 19.23 240.09148008008543 C 19.412666666666667 240.32214674675208, 19.514666666666663 240.6361467467521, 19.535999999999998 241.0334800800854 C 19.546666666666667 241.1934800800854, 19.55333333333333 241.3521467467521, 19.555999999999997 241.5094800800854 C 19.558666666666664 241.66681341341877, 19.557333333333332 241.82014674675207, 19.552 241.96948008008542 C 19.546666666666667 242.11881341341876, 19.538666666666668 242.25881341341875, 19.528 242.38948008008543 C 19.482666666666667 242.88814674675208, 19.353333333333335 243.2534800800854, 19.14 243.4854800800854 C 18.926666666666666 243.7174800800854, 18.581333333333333 243.8481467467521, 18.104 243.87748008008543 L 18.104 242.9854800800854 C 18.21333333333333 242.9561467467521, 18.296 242.90348008008544, 18.352 242.82748008008542 C 18.408 242.7514800800854, 18.44 242.65214674675207, 18.448 242.52948008008542 C 18.471999999999998 242.23881341341877, 18.485999999999997 241.9774800800854, 18.49 241.74548008008543 C 18.494 241.5134800800854, 18.485333333333333 241.29214674675208, 18.464 241.0814800800854 C 18.447999999999997 240.92681341341876, 18.396666666666665 240.8114800800854, 18.31 240.7354800800854 C 18.223333333333333 240.65948008008542, 18.090666666666664 240.62148008008546, 17.912 240.62148008008543 C 17.901333333333334 240.62148008008546, 17.890666666666668 240.62281341341878, 17.88 240.62548008008542 C 17.86933333333333 240.62814674675207, 17.86 240.63081341341876, 17.852 240.63348008008543 Z M 17.852 238.34148008008543 L 17.852 237.40948008008542 L 19.439999999999998 237.40948008008542 L 19.439999999999998 238.34148008008543 Z M 21.944 243.80948008008542 L 21.944 237.40948008008542 L 23.003999999999998 237.40948008008542 L 23.003999999999998 243.80948008008542 Z " stroke="none" fill-rule="nonzero" fill="#000000" fill-opacity="1" transform="matrix(1,0,0,1,5.05,13.314)" id="text25 l" />
  <path d="M 0 235.03510087688198 L 10 235.03510087688198 L 10 236.53510087688198 L 0 236.53510087688198 Z " stroke="none" fill-rule="evenodd" fill="#000000" fill-opacity="1" transform="matrix(1,0,0,1,5.05,13.314)" id="mark26 l" />
  <path d="M 0 225.21072167367856 L 10 225.21072167367856 L 10 226.71072167367856 L 0 226.71072167367856 Z " stroke="none" fill-rule="evenodd" fill="#000000" fill-opacity="1" transform="matrix(1,0,0,1,5.05,13.314)" id="mark27 l" />
  <path d="M 0 215.38634247047514 L 10 215.38634247047514 L 10 216.88634247047514 L 0 216.88634247047514 Z " stroke="none" fill-rule="evenodd" fill="#000000" fill-opacity="1" transform="matrix(1,0,0,1,5.05,13.314)" id="mark28 l" />
  <path d="M 0 205.56196326727172 L 10 205.56196326727172 L 10 207.06196326727172 L 0 207.06196326727172 Z " stroke="none" fill-rule="evenodd" fill="#000000" fill-opacity="1" transform="matrix(1,0,0,1,5.05,13.314)" id="mark29 l" />
  <path d="M 0 195.7375840640683 L 25 195.7375840640683 L 25 197.2375840640683 L 0 197.2375840640683 Z " stroke="none" fill-rule="evenodd" fill="#000000" fill-opacity="1" transform="matrix(1,0,0,1,5.05,13.314)" id="mark30 l" />
  <path d="M 12.223999999999998 193.27158406406832 C 12.221333333333334 193.17025073073495, 12.219333333333333 193.08625073073495, 12.218 193.0195840640683 C 12.216666666666667 192.95291739740162, 12.216666666666667 192.88491739740164, 12.218 192.81558406406833 C 12.219333333333333 192.74625073073497, 12.221333333333334 192.65691739740163, 12.223999999999998 192.54758406406833 L 13.303999999999998 192.54758406406833 L 13.303999999999998 193.4115840640683 C 13.303999999999998 193.64891739740165, 13.417333333333332 193.7995840640683, 13.643999999999998 193.8635840640683 L 13.643999999999998 194.75558406406833 C 13.155999999999999 194.71825073073498, 12.800666666666665 194.5835840640683, 12.578 194.3515840640683 C 12.355333333333334 194.1195840640683, 12.237333333333332 193.7595840640683, 12.223999999999998 193.27158406406832 Z M 12.292 189.21958406406833 L 12.292 188.2875840640683 L 15.536 188.2875840640683 L 15.536 189.21958406406833 Z M 14.143999999999998 193.86758406406832 C 14.367999999999999 193.8115840640683, 14.483999999999998 193.66091739740165, 14.491999999999999 193.41558406406833 C 14.497333333333334 193.21291739740167, 14.500666666666666 193.030250730735, 14.501999999999999 192.86758406406832 C 14.503333333333332 192.70491739740166, 14.498666666666665 192.5475840640683, 14.488 192.39558406406832 C 14.48 192.238250730735, 14.431999999999999 192.10491739740164, 14.344 191.9955840640683 C 14.256 191.886250730735, 14.089333333333332 191.834250730735, 13.844 191.8395840640683 L 13.096 191.84758406406831 L 13.068 190.95558406406832 L 14.027999999999999 189.5715840640683 L 15.216 189.5715840640683 L 14.248 190.9235840640683 L 14.28 190.9235840640683 C 14.712 190.9235840640683, 15.028666666666666 191.04625073073498, 15.229999999999999 191.29158406406833 C 15.431333333333333 191.53691739740165, 15.544 191.91425073073498, 15.568 192.4235840640683 C 15.57333333333333 192.49558406406828, 15.576666666666664 192.56758406406828, 15.578 192.63958406406832 C 15.57933333333333 192.7115840640683, 15.579999999999998 192.78225073073497, 15.579999999999998 192.8515840640683 C 15.579999999999998 192.92091739740164, 15.57933333333333 192.99025073073497, 15.578 193.0595840640683 C 15.576666666666664 193.12891739740164, 15.57333333333333 193.1995840640683, 15.568 193.27158406406832 C 15.549333333333333 193.76758406406833, 15.428666666666665 194.132250730735, 15.206 194.36558406406832 C 14.983333333333334 194.59891739740164, 14.630666666666666 194.72891739740166, 14.148 194.75558406406833 Z M 16.196 193.2755840640683 C 16.188000000000002 192.84625073073497, 16.182666666666666 192.4295840640683, 16.18 192.0255840640683 C 16.177333333333333 191.62158406406832, 16.177999999999997 191.226250730735, 16.182 190.8395840640683 C 16.186 190.45291739740165, 16.190666666666665 190.0715840640683, 16.196 189.69558406406833 C 16.209333333333333 189.25558406406833, 16.334000000000003 188.910250730735, 16.57 188.65958406406833 C 16.805999999999997 188.40891739740167, 17.142666666666663 188.2635840640683, 17.58 188.22358406406832 L 17.58 189.11158406406832 C 17.382666666666665 189.16758406406834, 17.281333333333333 189.29691739740167, 17.276 189.49958406406833 C 17.262666666666668 189.870250730735, 17.253333333333334 190.21825073073498, 17.248 190.5435840640683 C 17.242666666666665 190.86891739740165, 17.24 191.18558406406834, 17.24 191.49358406406833 C 17.24 191.80158406406832, 17.242666666666665 192.11625073073498, 17.248 192.43758406406832 C 17.253333333333334 192.75891739740166, 17.262666666666668 193.10225073073497, 17.276 193.46758406406832 C 17.281333333333333 193.67558406406835, 17.382666666666665 193.80758406406832, 17.58 193.8635840640683 L 17.58 194.7515840640683 C 17.142666666666663 194.7115840640683, 16.805999999999997 194.5655840640683, 16.57 194.31358406406832 C 16.334000000000003 194.0615840640683, 16.209333333333333 193.7155840640683, 16.196 193.2755840640683 Z M 18.084 194.7515840640683 L 18.084 193.85958406406832 C 18.268 193.80625073073497, 18.366666666666667 193.682250730735, 18.38 193.48758406406833 C 18.398666666666667 193.02091739740166, 18.410666666666668 192.572250730735, 18.416 192.14158406406833 C 18.421333333333333 191.71091739740166, 18.421333333333333 191.280250730735, 18.416 190.84958406406832 C 18.410666666666668 190.41891739740166, 18.398666666666667 189.96625073073497, 18.38 189.49158406406832 C 18.374666666666666 189.29691739740164, 18.276 189.17025073073498, 18.084 189.11158406406832 L 18.084 188.22358406406832 C 18.513333333333335 188.2635840640683, 18.846666666666668 188.40891739740167, 19.084 188.65958406406833 C 19.321333333333335 188.910250730735, 19.445333333333334 189.25558406406833, 19.456 189.69558406406833 C 19.46666666666667 190.01025073073498, 19.474666666666668 190.32025073073498, 19.48 190.6255840640683 C 19.485333333333333 190.93091739740163, 19.488 191.2315840640683, 19.488 191.52758406406832 C 19.488 191.8235840640683, 19.485333333333333 192.11691739740166, 19.48 192.40758406406832 C 19.474666666666668 192.698250730735, 19.46666666666667 192.98758406406833, 19.456 193.2755840640683 C 19.439999999999998 193.726250730735, 19.311999999999998 194.07491739740163, 19.072 194.3215840640683 C 18.832 194.56825073073497, 18.502666666666666 194.7115840640683, 18.084 194.7515840640683 Z M 21.944 194.68758406406832 L 21.944 188.2875840640683 L 23.003999999999998 188.2875840640683 L 23.003999999999998 194.68758406406832 Z " stroke="none" fill-rule="nonzero" fill="#000000" fill-opacity="1" transform="matrix(1,0,0,1,5.05,13.314)" id="text30 l" />
  <path d="M 0 185.91320486086488 L 10 185.91320486086488 L 10 187.41320486086488 L 0 187.41320486086488 Z " stroke="none" fill-rule="evenodd" fill="#000000" fill-opacity="1" transform="matrix(1,0,0,1,5.05,13.314)" id="mark31 l" />
  <path d="M 0 176.08882565766146 L 10 176.08882565766146 L 10 177.58882565766146 L 0 177.58882565766146 Z " stroke="none" fill-rule="evenodd" fill="#000000" fill-opacity="1" transform="matrix(1,0,0,1,5.05,13.314)" id="mark32 l" />
  <path d="M 0 166.26444645445804 L 10 166.26444645445804 L 10 167.76444645445804 L 0 167.76444645445804 Z " stroke="none" fill-rule="evenodd" fill="#000000" fill-opacity="1" transform="matrix(1,0,0,1,5.05,13.314)" id="mark33 l" />
  <path d="M 0 156.44006725125462 L 10 156.44006725125462 L 10 157.94006725125462 L 0 157.94006725125462 Z " stroke="none" fill-rule="evenodd" fill="#000000" fill-opacity="1" transform="matrix(1,0,0,1,5.05,13.314)" id="mark34 l" />
  <path d="M 0 146.6156880480512 L 25 146.6156880480512 L 25 148.1156880480512 L 0 148.1156880480512 Z " stroke="none" fill-rule="evenodd" fill="#000000" fill-opacity="1" transform="matrix(1,0,0,1,5.05,13.314)" id="mark35 l" />
  <path d="M 12.232 144.1176880480512 C 12.229333333333333 144.01635471471786, 12.227333333333334 143.93235471471786, 12.226 143.8656880480512 C 12.224666666666668 143.79902138138453, 12.224666666666668 143.73102138138452, 12.226 143.6616880480512 C 12.227333333333334 143.59235471471786, 12.229333333333333 143.50302138138454, 12.232 143.39368804805122 L 13.312 143.39368804805122 L 13.312 144.2576880480512 C 13.312 144.49502138138453, 13.425333333333333 144.6456880480512, 13.652 144.7096880480512 L 13.652 145.60168804805122 C 13.164 145.56435471471787, 12.808666666666667 145.4296880480512, 12.586 145.1976880480512 C 12.363333333333333 144.9656880480512, 12.245333333333335 144.6056880480512, 12.232 144.1176880480512 Z M 12.3 140.06568804805121 L 12.3 139.1336880480512 L 15.544 139.1336880480512 L 15.544 140.06568804805121 Z M 14.152000000000001 144.7136880480512 C 14.376000000000001 144.6576880480512, 14.492 144.50702138138453, 14.5 144.2616880480512 C 14.505333333333333 144.05902138138455, 14.508666666666667 143.87635471471788, 14.51 143.7136880480512 C 14.511333333333333 143.55102138138454, 14.506666666666668 143.39368804805122, 14.496 143.2416880480512 C 14.488 143.08435471471788, 14.440000000000001 142.95102138138452, 14.352 142.8416880480512 C 14.264 142.73235471471787, 14.097333333333335 142.68035471471788, 13.852 142.6856880480512 L 13.104 142.6936880480512 L 13.076 141.8016880480512 L 14.036 140.41768804805122 L 15.224 140.41768804805122 L 14.256 141.7696880480512 L 14.288 141.7696880480512 C 14.719999999999999 141.7696880480512, 15.036666666666665 141.89235471471787, 15.238 142.13768804805122 C 15.439333333333334 142.38302138138454, 15.552 142.76035471471786, 15.576 143.2696880480512 C 15.581333333333333 143.3416880480512, 15.584666666666667 143.4136880480512, 15.586 143.4856880480512 C 15.587333333333333 143.5576880480512, 15.588000000000001 143.62835471471786, 15.588000000000001 143.6976880480512 C 15.588000000000001 143.76702138138452, 15.587333333333333 143.83635471471786, 15.586 143.90568804805122 C 15.584666666666667 143.97502138138452, 15.581333333333333 144.0456880480512, 15.576 144.1176880480512 C 15.557333333333334 144.61368804805122, 15.436666666666667 144.97835471471788, 15.214 145.2116880480512 C 14.991333333333333 145.44502138138452, 14.638666666666666 145.57502138138454, 14.156 145.60168804805122 Z M 16.18 144.1176880480512 C 16.174666666666667 143.9443547147179, 16.173333333333332 143.80502138138456, 16.176 143.6996880480512 C 16.178666666666665 143.5943547147179, 16.181333333333335 143.4923547147179, 16.183999999999997 143.39368804805122 L 17.264 143.39368804805122 C 17.256 143.47102138138453, 17.25 143.56702138138454, 17.246 143.6816880480512 C 17.241999999999997 143.79635471471786, 17.240666666666666 143.90702138138454, 17.241999999999997 144.0136880480512 C 17.243333333333332 144.12035471471785, 17.246666666666666 144.20035471471786, 17.252 144.2536880480512 C 17.262666666666668 144.3736880480512, 17.297333333333334 144.4716880480512, 17.355999999999998 144.5476880480512 C 17.414666666666665 144.62368804805118, 17.497333333333334 144.67768804805118, 17.604 144.7096880480512 L 17.604 145.60168804805122 C 17.110666666666663 145.56435471471787, 16.75333333333333 145.4296880480512, 16.532 145.1976880480512 C 16.310666666666666 144.9656880480512, 16.19333333333333 144.6056880480512, 16.18 144.1176880480512 Z M 16.279999999999998 142.7816880480512 L 16.279999999999998 139.1336880480512 L 17.348 139.1336880480512 L 17.348 142.7816880480512 Z M 17.852 142.35768804805122 L 17.852 141.60168804805122 C 17.929333333333332 141.56168804805122, 18.014666666666667 141.5296880480512, 18.107999999999997 141.5056880480512 C 18.20133333333333 141.4816880480512, 18.301333333333332 141.4696880480512, 18.407999999999998 141.4696880480512 C 18.773333333333333 141.4696880480512, 19.047333333333334 141.58502138138454, 19.23 141.81568804805121 C 19.412666666666667 142.04635471471786, 19.514666666666663 142.36035471471786, 19.535999999999998 142.7576880480512 C 19.546666666666667 142.9176880480512, 19.55333333333333 143.07635471471787, 19.555999999999997 143.2336880480512 C 19.558666666666664 143.39102138138455, 19.557333333333332 143.54435471471788, 19.552 143.6936880480512 C 19.546666666666667 143.84302138138452, 19.538666666666668 143.98302138138453, 19.528 144.11368804805122 C 19.482666666666667 144.61235471471787, 19.353333333333335 144.97768804805122, 19.14 145.2096880480512 C 18.926666666666666 145.44168804805122, 18.581333333333333 145.57235471471787, 18.104 145.60168804805122 L 18.104 144.7096880480512 C 18.21333333333333 144.68035471471788, 18.296 144.6276880480512, 18.352 144.5516880480512 C 18.408 144.4756880480512, 18.44 144.37635471471788, 18.448 144.2536880480512 C 18.471999999999998 143.96302138138452, 18.485999999999997 143.7016880480512, 18.49 143.4696880480512 C 18.494 143.2376880480512, 18.485333333333333 143.01635471471786, 18.464 142.8056880480512 C 18.447999999999997 142.6510213813845, 18.396666666666665 142.53568804805118, 18.31 142.4596880480512 C 18.223333333333333 142.3836880480512, 18.090666666666664 142.34568804805122, 17.912 142.34568804805122 C 17.901333333333334 142.34568804805122, 17.890666666666668 142.34702138138454, 17.88 142.3496880480512 C 17.86933333333333 142.35235471471788, 17.86 142.35502138138455, 17.852 142.35768804805122 Z M 17.852 140.06568804805121 L 17.852 139.1336880480512 L 19.439999999999998 139.1336880480512 L 19.439999999999998 140.06568804805121 Z M 21.944 145.5336880480512 L 21.944 139.1336880480512 L 23.003999999999998 139.1336880480512 L 23.003999999999998 145.5336880480512 Z " stroke="none" fill-rule="nonzero" fill="#000000" fill-opacity="1" transform="matrix(1,0,0,1,5.05,13.314)" id="text35 l" />
  <path d="M 0 136.79130884484783 L 10 136.79130884484783 L 10 138.29130884484783 L 0 138.29130884484783 Z " stroke="none" fill-rule="evenodd" fill="#000000" fill-opacity="1" transform="matrix(1,0,0,1,5.05,13.314)" id="mark36 l" />
  <path d="M 0 126.96692964164441 L 10 126.96692964164441 L 10 128.4669296416444 L 0 128.4669296416444 Z " stroke="none" fill-rule="evenodd" fill="#000000" fill-opacity="1" transform="matrix(1,0,0,1,5.05,13.314)" id="mark37 l" />
  <path d="M 0 117.14255043844099 L 10 117.14255043844099 L 10 118.64255043844099 L 0 118.64255043844099 Z " stroke="none" fill-rule="evenodd" fill="#000000" fill-opacity="1" transform="matrix(1,0,0,1,5.05,13.314)" id="mark38 l" />
  <path d="M 0 107.31817123523757 L 10 107.31817123523757 L 10 108.81817123523757 L 0 108.81817123523757 Z " stroke="none" fill-rule="evenodd" fill="#000000" fill-opacity="1" transform="matrix(1,0,0,1,5.05,13.314)" id="mark39 l" />
  <path d="M 0 97.49379203203415 L 25 97.49379203203415 L 25 98.99379203203415 L 0 98.99379203203415 Z " stroke="none" fill-rule="evenodd" fill="#000000" fill-opacity="1" transform="matrix(1,0,0,1,5.05,13.314)" id="mark40 l" />
  <path d="M 11.739999999999998 94.75979203203416 L 11.739999999999998 93.88379203203415 L 12.455999999999998 92.00379203203416 L 13.495999999999999 92.00379203203416 L 12.771999999999998 93.83579203203415 L 13.171999999999997 93.83579203203415 L 13.171999999999997 94.75979203203416 Z M 13.675999999999998 96.44379203203415 L 13.675999999999998 90.04379203203415 L 14.683999999999997 90.04379203203415 L 14.683999999999997 96.44379203203415 Z M 15.187999999999999 94.75979203203416 L 15.187999999999999 93.83579203203415 L 15.655999999999999 93.83579203203415 L 15.655999999999999 94.75979203203416 Z M 16.195999999999998 95.03179203203415 C 16.188 94.60245869870081, 16.182666666666666 94.18579203203416, 16.18 93.78179203203415 C 16.177333333333333 93.37779203203415, 16.177999999999997 92.98245869870082, 16.182 92.59579203203415 C 16.186 92.20912536536748, 16.190666666666665 91.82779203203415, 16.195999999999998 91.45179203203415 C 16.20933333333333 91.01179203203415, 16.333999999999996 90.66645869870082, 16.569999999999997 90.41579203203415 C 16.805999999999997 90.16512536536749, 17.142666666666663 90.01979203203416, 17.58 89.97979203203415 L 17.58 90.86779203203416 C 17.382666666666665 90.92379203203416, 17.281333333333333 91.05312536536748, 17.275999999999996 91.25579203203415 C 17.262666666666664 91.62645869870082, 17.25333333333333 91.97445869870081, 17.247999999999998 92.29979203203415 C 17.242666666666665 92.62512536536748, 17.24 92.94179203203416, 17.24 93.24979203203415 C 17.24 93.55779203203414, 17.242666666666665 93.87245869870083, 17.247999999999998 94.19379203203415 C 17.25333333333333 94.51512536536748, 17.262666666666664 94.85845869870082, 17.275999999999996 95.22379203203415 C 17.281333333333333 95.43179203203415, 17.382666666666665 95.56379203203416, 17.58 95.61979203203416 L 17.58 96.50779203203415 C 17.142666666666663 96.46779203203415, 16.805999999999997 96.32179203203415, 16.569999999999997 96.06979203203416 C 16.333999999999996 95.81779203203416, 16.20933333333333 95.47179203203416, 16.195999999999998 95.03179203203415 Z M 18.084 96.50779203203415 L 18.084 95.61579203203415 C 18.268 95.56245869870082, 18.366666666666667 95.43845869870081, 18.38 95.24379203203415 C 18.398666666666664 94.77712536536748, 18.410666666666664 94.32845869870081, 18.415999999999997 93.89779203203415 C 18.42133333333333 93.4671253653675, 18.42133333333333 93.03645869870083, 18.415999999999997 92.60579203203416 C 18.410666666666664 92.17512536536749, 18.398666666666664 91.72245869870082, 18.38 91.24779203203416 C 18.374666666666666 91.05312536536749, 18.276 90.92645869870083, 18.084 90.86779203203416 L 18.084 89.97979203203415 C 18.513333333333332 90.01979203203416, 18.846666666666664 90.16512536536749, 19.083999999999996 90.41579203203415 C 19.32133333333333 90.66645869870082, 19.44533333333333 91.01179203203415, 19.456 91.45179203203415 C 19.466666666666665 91.76645869870083, 19.474666666666664 92.07645869870083, 19.479999999999997 92.38179203203416 C 19.48533333333333 92.68712536536748, 19.488 92.98779203203415, 19.488 93.28379203203416 C 19.488 93.57979203203416, 19.48533333333333 93.87312536536749, 19.479999999999997 94.16379203203415 C 19.474666666666664 94.45445869870082, 19.466666666666665 94.74379203203415, 19.456 95.03179203203415 C 19.439999999999998 95.48245869870081, 19.311999999999998 95.83112536536748, 19.072 96.07779203203415 C 18.831999999999997 96.32445869870082, 18.502666666666663 96.46779203203415, 18.084 96.50779203203415 Z M 21.944 96.44379203203415 L 21.944 90.04379203203415 L 23.003999999999998 90.04379203203415 L 23.003999999999998 96.44379203203415 Z " stroke="none" fill-rule="nonzero" fill="#000000" fill-opacity="1" transform="matrix(1,0,0,1,5.05,13.314)" id="text40 l" />
  <path d="M 0 87.66941282883073 L 10 87.66941282883073 L 10 89.16941282883073 L 0 89.16941282883073 Z " stroke="none" fill-rule="evenodd" fill="#000000" fill-opacity="1" transform="matrix(1,0,0,1,5.05,13.314)" id="mark41 l" />
  <path d="M 0 77.84503362562731 L 10 77.84503362562731 L 10 79.34503362562731 L 0 79.34503362562731 Z " stroke="none" fill-rule="evenodd" fill="#000000" fill-opacity="1" transform="matrix(1,0,0,1,5.05,13.314)" id="mark42 l" />
  <path d="M 0 68.02065442242389 L 10 68.02065442242389 L 10 69.52065442242389 L 0 69.52065442242389 Z " stroke="none" fill-rule="evenodd" fill="#000000" fill-opacity="1" transform="matrix(1,0,0,1,5.05,13.314)" id="mark43 l" />
  <path d="M 0 58.19627521922047 L 10 58.19627521922047 L 10 59.69627521922047 L 0 59.69627521922047 Z " stroke="none" fill-rule="evenodd" fill="#000000" fill-opacity="1" transform="matrix(1,0,0,1,5.05,13.314)" id="mark44 l" />
  <path d="M 0 48.37189601601705 L 25 48.37189601601705 L 25 49.87189601601705 L 0 49.87189601601705 Z " stroke="none" fill-rule="evenodd" fill="#000000" fill-opacity="1" transform="matrix(1,0,0,1,5.05,13.314)" id="mark45 l" />
  <path d="M 11.748 45.60589601601705 L 11.748 44.729896016017044 L 12.463999999999999 42.84989601601705 L 13.503999999999998 42.84989601601705 L 12.78 44.68189601601705 L 13.18 44.68189601601705 L 13.18 45.60589601601705 Z M 13.684 47.289896016017046 L 13.684 40.88989601601705 L 14.691999999999998 40.88989601601705 L 14.691999999999998 47.289896016017046 Z M 15.195999999999998 45.60589601601705 L 15.195999999999998 44.68189601601705 L 15.663999999999998 44.68189601601705 L 15.663999999999998 45.60589601601705 Z M 16.18 45.87389601601705 C 16.174666666666667 45.70056268268371, 16.173333333333332 45.56122934935038, 16.176 45.45589601601704 C 16.178666666666665 45.350562682683716, 16.181333333333335 45.24856268268371, 16.183999999999997 45.149896016017045 L 17.264 45.149896016017045 C 17.256 45.22722934935038, 17.25 45.32322934935038, 17.246 45.43789601601705 C 17.241999999999997 45.552562682683714, 17.240666666666666 45.663229349350374, 17.241999999999997 45.76989601601704 C 17.243333333333332 45.87656268268371, 17.246666666666666 45.95656268268371, 17.252 46.009896016017045 C 17.262666666666668 46.12989601601704, 17.297333333333334 46.22789601601705, 17.355999999999998 46.30389601601705 C 17.414666666666665 46.37989601601705, 17.497333333333334 46.433896016017044, 17.604 46.46589601601705 L 17.604 47.357896016017044 C 17.110666666666663 47.320562682683715, 16.75333333333333 47.18589601601705, 16.532 46.95389601601705 C 16.310666666666666 46.72189601601705, 16.19333333333333 46.36189601601705, 16.18 45.87389601601705 Z M 16.279999999999998 44.537896016017044 L 16.279999999999998 40.88989601601705 L 17.348 40.88989601601705 L 17.348 44.537896016017044 Z M 17.852 44.113896016017044 L 17.852 43.357896016017044 C 17.929333333333332 43.317896016017045, 18.014666666666667 43.28589601601705, 18.107999999999997 43.26189601601705 C 18.20133333333333 43.23789601601705, 18.301333333333332 43.225896016017046, 18.407999999999998 43.225896016017046 C 18.773333333333333 43.225896016017046, 19.047333333333334 43.34122934935038, 19.23 43.57189601601705 C 19.412666666666667 43.802562682683714, 19.514666666666663 44.11656268268371, 19.535999999999998 44.51389601601704 C 19.546666666666667 44.67389601601704, 19.55333333333333 44.832562682683715, 19.555999999999997 44.98989601601705 C 19.558666666666664 45.14722934935038, 19.557333333333332 45.30056268268371, 19.552 45.44989601601704 C 19.546666666666667 45.59922934935038, 19.538666666666668 45.73922934935038, 19.528 45.869896016017044 C 19.482666666666667 46.36856268268372, 19.353333333333335 46.73389601601705, 19.14 46.96589601601705 C 18.926666666666666 47.19789601601705, 18.581333333333333 47.32856268268371, 18.104 47.357896016017044 L 18.104 46.46589601601705 C 18.21333333333333 46.436562682683714, 18.296 46.38389601601705, 18.352 46.30789601601705 C 18.408 46.231896016017046, 18.44 46.13256268268371, 18.448 46.009896016017045 C 18.471999999999998 45.71922934935038, 18.485999999999997 45.457896016017045, 18.49 45.225896016017046 C 18.494 44.99389601601705, 18.485333333333333 44.77256268268371, 18.464 44.561896016017045 C 18.447999999999997 44.40722934935038, 18.396666666666665 44.29189601601705, 18.31 44.21589601601705 C 18.223333333333333 44.13989601601705, 18.090666666666664 44.101896016017044, 17.912 44.101896016017044 C 17.901333333333334 44.101896016017044, 17.890666666666668 44.10322934935038, 17.88 44.10589601601705 C 17.86933333333333 44.10856268268371, 17.86 44.11122934935038, 17.852 44.113896016017044 Z M 17.852 41.82189601601705 L 17.852 40.88989601601705 L 19.439999999999998 40.88989601601705 L 19.439999999999998 41.82189601601705 Z M 21.944 47.289896016017046 L 21.944 40.88989601601705 L 23.003999999999998 40.88989601601705 L 23.003999999999998 47.289896016017046 Z " stroke="none" fill-rule="nonzero" fill="#000000" fill-opacity="1" transform="matrix(1,0,0,1,5.05,13.314)" id="text45 l" />
  <path d="M 0 38.547516812813626 L 10 38.547516812813626 L 10 40.047516812813626 L 0 40.047516812813626 Z " stroke="none" fill-rule="evenodd" fill="#000000" fill-opacity="1" transform="matrix(1,0,0,1,5.05,13.314)" id="mark46 l" />
  <path d="M 0 28.723137609610205 L 10 28.723137609610205 L 10 30.223137609610205 L 0 30.223137609610205 Z " stroke="none" fill-rule="evenodd" fill="#000000" fill-opacity="1" transform="matrix(1,0,0,1,5.05,13.314)" id="mark47 l" />
  <path d="M 0 18.898758406406785 L 10 18.898758406406785 L 10 20.398758406406785 L 0 20.398758406406785 Z " stroke="none" fill-rule="evenodd" fill="#000000" fill-opacity="1" transform="matrix(1,0,0,1,5.05,13.314)" id="mark48 l" />
  <path d="M 0 9.074379203203364 L 10 9.074379203203364 L 10 10.574379203203364 L 0 10.574379203203364 Z " stroke="none" fill-rule="evenodd" fill="#000000" fill-opacity="1" transform="matrix(1,0,0,1,5.05,13.314)" id="mark49 l" />
  <path d="M 0 -0.75 L 25 -0.75 L 25 0.75 L 0 0.75 Z " stroke="none" fill-rule="evenodd" fill="#000000" fill-opacity="1" transform="matrix(1,0,0,1,5.05,13.314)" id="mark50 l" />
  <path d="M 12.204 -3.2159999999999997 C 12.198666666666668 -3.389333333333333, 12.197333333333333 -3.528666666666667, 12.2 -3.634 C 12.202666666666667 -3.7393333333333336, 12.205333333333336 -3.841333333333333, 12.208 -3.94 L 13.288 -3.94 C 13.280000000000001 -3.8626666666666667, 13.274000000000001 -3.7666666666666666, 13.27 -3.6519999999999997 C 13.265999999999998 -3.5373333333333328, 13.264666666666667 -3.4266666666666667, 13.266 -3.32 C 13.267333333333333 -3.213333333333334, 13.270666666666667 -3.1333333333333337, 13.276 -3.08 C 13.286666666666665 -2.96, 13.321333333333332 -2.862, 13.379999999999999 -2.7859999999999996 C 13.438666666666666 -2.71, 13.521333333333335 -2.6559999999999997, 13.628 -2.6239999999999997 L 13.628 -1.7319999999999998 C 13.134666666666668 -1.7693333333333332, 12.777333333333335 -1.904, 12.556 -2.1359999999999997 C 12.334666666666667 -2.368, 12.217333333333332 -2.7279999999999998, 12.204 -3.2159999999999997 Z M 12.304 -4.552 L 12.304 -8.2 L 13.372 -8.2 L 13.372 -4.552 Z M 13.876 -4.976 L 13.876 -5.731999999999999 C 13.953333333333333 -5.771999999999999, 14.038666666666668 -5.804, 14.132 -5.828 C 14.225333333333333 -5.852, 14.325333333333333 -5.864, 14.432 -5.864 C 14.797333333333334 -5.864, 15.071333333333332 -5.748666666666667, 15.254 -5.518 C 15.436666666666667 -5.287333333333333, 15.538666666666668 -4.973333333333333, 15.56 -4.576 C 15.570666666666668 -4.416, 15.577333333333334 -4.257333333333333, 15.58 -4.1 C 15.582666666666666 -3.9426666666666668, 15.581333333333333 -3.7893333333333334, 15.576 -3.6399999999999997 C 15.570666666666666 -3.490666666666667, 15.562666666666665 -3.3506666666666667, 15.552 -3.2199999999999998 C 15.506666666666668 -2.721333333333333, 15.377333333333333 -2.356, 15.164 -2.1239999999999997 C 14.950666666666667 -1.892, 14.605333333333332 -1.7613333333333332, 14.128 -1.7319999999999998 L 14.128 -2.6239999999999997 C 14.237333333333334 -2.653333333333333, 14.32 -2.7059999999999995, 14.376 -2.782 C 14.432 -2.8579999999999997, 14.464 -2.957333333333333, 14.472 -3.08 C 14.495999999999999 -3.3706666666666667, 14.509999999999998 -3.6319999999999997, 14.514 -3.864 C 14.518 -4.096, 14.509333333333334 -4.317333333333333, 14.488 -4.5280000000000005 C 14.472000000000001 -4.682666666666667, 14.420666666666666 -4.798, 14.334 -4.874 C 14.247333333333334 -4.949999999999999, 14.114666666666666 -4.9879999999999995, 13.936 -4.9879999999999995 C 13.925333333333333 -4.9879999999999995, 13.914666666666665 -4.986666666666666, 13.904 -4.984 C 13.893333333333334 -4.981333333333334, 13.884 -4.978666666666667, 13.876 -4.976 Z M 13.876 -7.268 L 13.876 -8.2 L 15.464 -8.2 L 15.464 -7.268 Z M 16.196 -3.2119999999999997 C 16.188000000000002 -3.641333333333333, 16.182666666666666 -4.058, 16.18 -4.462 C 16.177333333333333 -4.866, 16.177999999999997 -5.261333333333333, 16.182 -5.648 C 16.186 -6.034666666666666, 16.190666666666665 -6.416, 16.196 -6.792 C 16.209333333333333 -7.231999999999999, 16.334000000000003 -7.577333333333334, 16.57 -7.828 C 16.805999999999997 -8.078666666666667, 17.142666666666663 -8.224, 17.58 -8.264 L 17.58 -7.3759999999999994 C 17.382666666666665 -7.32, 17.281333333333333 -7.190666666666667, 17.276 -6.9879999999999995 C 17.262666666666668 -6.617333333333333, 17.253333333333334 -6.269333333333333, 17.248 -5.944 C 17.242666666666665 -5.618666666666666, 17.24 -5.302, 17.24 -4.994 C 17.24 -4.686, 17.242666666666665 -4.371333333333333, 17.248 -4.05 C 17.253333333333334 -3.7286666666666664, 17.262666666666668 -3.3853333333333326, 17.276 -3.0199999999999996 C 17.281333333333333 -2.812, 17.382666666666665 -2.6799999999999997, 17.58 -2.6239999999999997 L 17.58 -1.7359999999999998 C 17.142666666666663 -1.7759999999999998, 16.805999999999997 -1.9219999999999997, 16.57 -2.174 C 16.334000000000003 -2.4259999999999997, 16.209333333333333 -2.772, 16.196 -3.2119999999999997 Z M 18.084 -1.7359999999999998 L 18.084 -2.6279999999999997 C 18.268 -2.681333333333333, 18.366666666666667 -2.8053333333333335, 18.38 -3 C 18.398666666666667 -3.4666666666666663, 18.410666666666668 -3.915333333333333, 18.416 -4.346 C 18.421333333333333 -4.776666666666666, 18.421333333333333 -5.207333333333333, 18.416 -5.638 C 18.410666666666668 -6.068666666666666, 18.398666666666667 -6.521333333333333, 18.38 -6.9959999999999996 C 18.374666666666666 -7.190666666666667, 18.276 -7.317333333333334, 18.084 -7.3759999999999994 L 18.084 -8.264 C 18.513333333333335 -8.224, 18.846666666666668 -8.078666666666667, 19.084 -7.828 C 19.321333333333335 -7.577333333333334, 19.445333333333334 -7.231999999999999, 19.456 -6.792 C 19.46666666666667 -6.477333333333332, 19.474666666666668 -6.167333333333333, 19.48 -5.861999999999999 C 19.485333333333333 -5.556666666666667, 19.488 -5.256, 19.488 -4.96 C 19.488 -4.664, 19.485333333333333 -4.370666666666667, 19.48 -4.08 C 19.474666666666668 -3.7893333333333334, 19.46666666666667 -3.5, 19.456 -3.2119999999999997 C 19.439999999999998 -2.761333333333333, 19.311999999999998 -2.4126666666666665, 19.072 -2.166 C 18.832 -1.9193333333333331, 18.502666666666666 -1.7759999999999998, 18.084 -1.7359999999999998 Z M 21.944 -1.7999999999999998 L 21.944 -8.2 L 23.003999999999998 -8.2 L 23.003999999999998 -1.7999999999999998 Z " stroke="none" fill-rule="nonzero" fill="#000000" fill-opacity="1" transform="matrix(1,0,0,1,5.05,13.314)" id="text50 l" />
  <path d="M -5 -13.264 L 30 -13.264 L 30 488.16258095696736 L -5 488.16258095696736 Z " stroke="#FF0000" stroke-opacity="1" stroke-width="0.1" stroke-linecap="butt" stroke-linejoin="miter" fill="none" transform="matrix(1,0,0,1,5.05,13.314)" />
</svg>