<?xml version="1.0" encoding="UTF-8"?>
<svg xmlns:xlink="http://www.w3.org/1999/xlink" viewBox="0 0 35.1 430.3143648390728" version="1.1" style="font-synthesis: none;" width="35.1mm" height="430.3143648390728mm" xmlns="http://www.w3.org/2000/svg">
  <defs />
  <style>	</style>
  <path d="M 0 0 L 35.1 0 L 35.1 430.3143648390728 L 0 430.3143648390728 Z " stroke="none" fill-rule="nonzero" fill="#FFFFFF" fill-opacity="1" transform="matrix(1,0,0,1,0,0)" />
  <path d="M 0 409.4323648390728 L 10 409.4323648390728 L 10 410.9323648390728 L 0 410.9323648390728 Z " stroke="none" fill-rule="evenodd" fill="#000000" fill-opacity="1" transform="matrix(1,0,0,1,5.05,13.314)" id="mark1 l" />
  <path d="M 0 401.0612961688876 L 10 401.0612961688876 L 10 402.5612961688876 L 0 402.5612961688876 Z " stroke="none" fill-rule="evenodd" fill="#000000" fill-opacity="1" transform="matrix(1,0,0,1,5.05,13.314)" id="mark2 l" />
  <path d="M 0 392.6902274987025 L 10 392.6902274987025 L 10 394.1902274987025 L 0 394.1902274987025 Z " stroke="none" fill-rule="evenodd" fill="#000000" fill-opacity="1" transform="matrix(1,0,0,1,5.05,13.314)" id="mark3 l" />
  <path d="M 0 384.3191588285173 L 10 384.3191588285173 L 10 385.8191588285173 L 0 385.8191588285173 Z " stroke="none" fill-rule="evenodd" fill="#000000" fill-opacity="1" transform="matrix(1,0,0,1,5.05,13.314)" id="mark4 l" />
  <path d="M 0 375.94809015833215 L 25 375.94809015833215 L 25 377.44809015833215 L 0 377.44809015833215 Z " stroke="none" fill-rule="evenodd" fill="#000000" fill-opacity="1" transform="matrix(1,0,0,1,5.05,13.314)" id="mark5 l" />
  <path d="M 16.18 373.45009015833216 C 16.174666666666667 373.2767568249988, 16.173333333333332 373.13742349166546, 16.176 373.03209015833215 C 16.178666666666665 372.92675682499885, 16.181333333333335 372.8247568249988, 16.183999999999997 372.72609015833217 L 17.264 372.72609015833217 C 17.256 372.8034234916655, 17.25 372.8994234916655, 17.246 373.0140901583322 C 17.241999999999997 373.12875682499885, 17.240666666666666 373.2394234916655, 17.241999999999997 373.3460901583322 C 17.243333333333332 373.4527568249988, 17.246666666666666 373.53275682499884, 17.252 373.5860901583322 C 17.262666666666668 373.70609015833213, 17.297333333333334 373.80409015833214, 17.355999999999998 373.88009015833217 C 17.414666666666665 373.95609015833213, 17.497333333333334 374.01009015833216, 17.604 374.04209015833214 L 17.604 374.93409015833214 C 17.110666666666663 374.8967568249988, 16.75333333333333 374.76209015833217, 16.532 374.53009015833214 C 16.310666666666666 374.2980901583321, 16.19333333333333 373.93809015833216, 16.18 373.45009015833216 Z M 16.279999999999998 372.11409015833215 L 16.279999999999998 368.4660901583322 L 17.348 368.4660901583322 L 17.348 372.11409015833215 Z M 17.852 371.69009015833217 L 17.852 370.93409015833214 C 17.929333333333332 370.8940901583321, 18.014666666666667 370.86209015833214, 18.107999999999997 370.83809015833214 C 18.20133333333333 370.81409015833214, 18.301333333333332 370.80209015833213, 18.407999999999998 370.80209015833213 C 18.773333333333333 370.80209015833213, 19.047333333333334 370.9174234916655, 19.23 371.14809015833214 C 19.412666666666667 371.3787568249988, 19.514666666666663 371.6927568249988, 19.535999999999998 372.09009015833215 C 19.546666666666667 372.25009015833217, 19.55333333333333 372.4087568249988, 19.555999999999997 372.56609015833214 C 19.558666666666664 372.72342349166547, 19.557333333333332 372.87675682499884, 19.552 373.0260901583322 C 19.546666666666667 373.1754234916655, 19.538666666666668 373.3154234916655, 19.528 373.44609015833214 C 19.482666666666667 373.9447568249988, 19.353333333333335 374.3100901583322, 19.14 374.54209015833214 C 18.926666666666666 374.7740901583321, 18.581333333333333 374.9047568249988, 18.104 374.93409015833214 L 18.104 374.04209015833214 C 18.21333333333333 374.0127568249988, 18.296 373.96009015833215, 18.352 373.8840901583321 C 18.408 373.8080901583321, 18.44 373.70875682499883, 18.448 373.5860901583322 C 18.471999999999998 373.2954234916655, 18.485999999999997 373.03409015833216, 18.49 372.80209015833213 C 18.494 372.57009015833216, 18.485333333333333 372.3487568249989, 18.464 372.13809015833215 C 18.447999999999997 371.98342349166546, 18.396666666666665 371.86809015833217, 18.31 371.79209015833214 C 18.223333333333333 371.7160901583322, 18.090666666666664 371.67809015833217, 17.912 371.67809015833217 C 17.901333333333334 371.67809015833217, 17.890666666666668 371.6794234916655, 17.88 371.68209015833213 C 17.86933333333333 371.68475682499883, 17.86 371.68742349166547, 17.852 371.69009015833217 Z M 17.852 369.39809015833214 L 17.852 368.4660901583322 L 19.439999999999998 368.4660901583322 L 19.439999999999998 369.39809015833214 Z M 21.944 374.86609015833216 L 21.944 368.4660901583322 L 23.003999999999998 368.4660901583322 L 23.003999999999998 374.86609015833216 Z " stroke="none" fill-rule="nonzero" fill="#000000" fill-opacity="1" transform="matrix(1,0,0,1,5.05,13.314)" id="text5 l" />
  <path d="M 0 367.577021488147 L 10 367.577021488147 L 10 369.077021488147 L 0 369.077021488147 Z " stroke="none" fill-rule="evenodd" fill="#000000" fill-opacity="1" transform="matrix(1,0,0,1,5.05,13.314)" id="mark6 l" />
  <path d="M 0 359.2059528179618 L 10 359.2059528179618 L 10 360.7059528179618 L 0 360.7059528179618 Z " stroke="none" fill-rule="evenodd" fill="#000000" fill-opacity="1" transform="matrix(1,0,0,1,5.05,13.314)" id="mark7 l" />
  <path d="M 0 350.8348841477767 L 10 350.8348841477767 L 10 352.3348841477767 L 0 352.3348841477767 Z " stroke="none" fill-rule="evenodd" fill="#000000" fill-opacity="1" transform="matrix(1,0,0,1,5.05,13.314)" id="mark8 l" />
  <path d="M 0 342.46381547759154 L 10 342.46381547759154 L 10 343.96381547759154 L 0 343.96381547759154 Z " stroke="none" fill-rule="evenodd" fill="#000000" fill-opacity="1" transform="matrix(1,0,0,1,5.05,13.314)" id="mark9 l" />
  <path d="M 0 334.09274680740634 L 25 334.09274680740634 L 25 335.59274680740634 L 0 335.59274680740634 Z " stroke="none" fill-rule="evenodd" fill="#000000" fill-opacity="1" transform="matrix(1,0,0,1,5.05,13.314)" id="mark10 l" />
  <path d="M 14.323999999999998 333.04274680740633 L 14.323999999999998 327.5987468074063 L 13.871999999999998 327.5987468074063 L 13.839999999999998 327.2187468074063 L 14.543999999999999 326.64274680740635 L 15.424 326.64274680740635 L 15.424 333.04274680740633 Z M 16.196 331.63074680740635 C 16.188000000000002 331.20141347407304, 16.182666666666666 330.78474680740635, 16.18 330.38074680740635 C 16.177333333333333 329.97674680740636, 16.177999999999997 329.58141347407303, 16.182 329.1947468074063 C 16.186 328.80808014073966, 16.190666666666665 328.42674680740635, 16.196 328.0507468074063 C 16.209333333333333 327.6107468074063, 16.334000000000003 327.265413474073, 16.57 327.0147468074063 C 16.805999999999997 326.7640801407397, 17.142666666666663 326.6187468074063, 17.58 326.57874680740633 L 17.58 327.4667468074063 C 17.382666666666665 327.5227468074063, 17.281333333333333 327.65208014073966, 17.276 327.85474680740634 C 17.262666666666668 328.225413474073, 17.253333333333334 328.573413474073, 17.248 328.8987468074063 C 17.242666666666665 329.22408014073966, 17.24 329.5407468074063, 17.24 329.8487468074063 C 17.24 330.1567468074063, 17.242666666666665 330.47141347407296, 17.248 330.79274680740633 C 17.253333333333334 331.1140801407397, 17.262666666666668 331.457413474073, 17.276 331.8227468074063 C 17.281333333333333 332.03074680740633, 17.382666666666665 332.1627468074063, 17.58 332.2187468074063 L 17.58 333.10674680740635 C 17.142666666666663 333.06674680740633, 16.805999999999997 332.9207468074063, 16.57 332.6687468074063 C 16.334000000000003 332.4167468074063, 16.209333333333333 332.07074680740635, 16.196 331.63074680740635 Z M 18.084 333.10674680740635 L 18.084 332.21474680740636 C 18.268 332.161413474073, 18.366666666666667 332.037413474073, 18.38 331.84274680740634 C 18.398666666666667 331.3760801407397, 18.410666666666668 330.92741347407303, 18.416 330.49674680740634 C 18.421333333333333 330.06608014073964, 18.421333333333333 329.635413474073, 18.416 329.2047468074063 C 18.410666666666668 328.77408014073967, 18.398666666666667 328.321413474073, 18.38 327.8467468074063 C 18.374666666666666 327.65208014073966, 18.276 327.525413474073, 18.084 327.4667468074063 L 18.084 326.57874680740633 C 18.513333333333335 326.6187468074063, 18.846666666666668 326.7640801407397, 19.084 327.0147468074063 C 19.321333333333335 327.265413474073, 19.445333333333334 327.6107468074063, 19.456 328.0507468074063 C 19.46666666666667 328.365413474073, 19.474666666666668 328.675413474073, 19.48 328.9807468074063 C 19.485333333333333 329.28608014073967, 19.488 329.5867468074063, 19.488 329.8827468074063 C 19.488 330.1787468074063, 19.485333333333333 330.47208014073965, 19.48 330.76274680740636 C 19.474666666666668 331.053413474073, 19.46666666666667 331.34274680740634, 19.456 331.63074680740635 C 19.439999999999998 332.08141347407303, 19.311999999999998 332.4300801407397, 19.072 332.67674680740635 C 18.832 332.923413474073, 18.502666666666666 333.06674680740633, 18.084 333.10674680740635 Z M 21.944 333.04274680740633 L 21.944 326.64274680740635 L 23.003999999999998 326.64274680740635 L 23.003999999999998 333.04274680740633 Z " stroke="none" fill-rule="nonzero" fill="#000000" fill-opacity="1" transform="matrix(1,0,0,1,5.05,13.314)" id="text10 l" />
  <path d="M 0 325.7216781372212 L 10 325.7216781372212 L 10 327.2216781372212 L 0 327.2216781372212 Z " stroke="none" fill-rule="evenodd" fill="#000000" fill-opacity="1" transform="matrix(1,0,0,1,5.05,13.314)" id="mark11 l" />
  <path d="M 0 317.35060946703607 L 10 317.35060946703607 L 10 318.85060946703607 L 0 318.85060946703607 Z " stroke="none" fill-rule="evenodd" fill="#000000" fill-opacity="1" transform="matrix(1,0,0,1,5.05,13.314)" id="mark12 l" />
  <path d="M 0 308.97954079685087 L 10 308.97954079685087 L 10 310.47954079685087 L 0 310.47954079685087 Z " stroke="none" fill-rule="evenodd" fill="#000000" fill-opacity="1" transform="matrix(1,0,0,1,5.05,13.314)" id="mark13 l" />
  <path d="M 0 300.60847212666573 L 10 300.60847212666573 L 10 302.10847212666573 L 0 302.10847212666573 Z " stroke="none" fill-rule="evenodd" fill="#000000" fill-opacity="1" transform="matrix(1,0,0,1,5.05,13.314)" id="mark14 l" />
  <path d="M 0 292.2374034564806 L 25 292.2374034564806 L 25 293.7374034564806 L 0 293.7374034564806 Z " stroke="none" fill-rule="evenodd" fill="#000000" fill-opacity="1" transform="matrix(1,0,0,1,5.05,13.314)" id="mark15 l" />
  <path d="M 14.331999999999999 291.1554034564806 L 14.331999999999999 285.7114034564806 L 13.879999999999999 285.7114034564806 L 13.847999999999999 285.3314034564806 L 14.552 284.7554034564806 L 15.432 284.7554034564806 L 15.432 291.1554034564806 Z M 16.18 289.7394034564806 C 16.174666666666667 289.56607012314726, 16.173333333333332 289.42673678981396, 16.176 289.3214034564806 C 16.178666666666665 289.21607012314723, 16.181333333333335 289.11407012314726, 16.183999999999997 289.0154034564806 L 17.264 289.0154034564806 C 17.256 289.0927367898139, 17.25 289.1887367898139, 17.246 289.3034034564806 C 17.241999999999997 289.41807012314723, 17.240666666666666 289.52873678981393, 17.241999999999997 289.6354034564806 C 17.243333333333332 289.74207012314724, 17.246666666666666 289.8220701231473, 17.252 289.8754034564806 C 17.262666666666668 289.9954034564806, 17.297333333333334 290.0934034564806, 17.355999999999998 290.1694034564806 C 17.414666666666665 290.2454034564806, 17.497333333333334 290.2994034564806, 17.604 290.3314034564806 L 17.604 291.2234034564806 C 17.110666666666663 291.18607012314726, 16.75333333333333 291.0514034564806, 16.532 290.8194034564806 C 16.310666666666666 290.58740345648056, 16.19333333333333 290.2274034564806, 16.18 289.7394034564806 Z M 16.279999999999998 288.4034034564806 L 16.279999999999998 284.7554034564806 L 17.348 284.7554034564806 L 17.348 288.4034034564806 Z M 17.852 287.9794034564806 L 17.852 287.2234034564806 C 17.929333333333332 287.18340345648056, 18.014666666666667 287.1514034564806, 18.107999999999997 287.1274034564806 C 18.20133333333333 287.1034034564806, 18.301333333333332 287.0914034564806, 18.407999999999998 287.0914034564806 C 18.773333333333333 287.0914034564806, 19.047333333333334 287.20673678981393, 19.23 287.4374034564806 C 19.412666666666667 287.66807012314723, 19.514666666666663 287.98207012314725, 19.535999999999998 288.3794034564806 C 19.546666666666667 288.5394034564806, 19.55333333333333 288.69807012314726, 19.555999999999997 288.8554034564806 C 19.558666666666664 289.0127367898139, 19.557333333333332 289.1660701231473, 19.552 289.3154034564806 C 19.546666666666667 289.46473678981397, 19.538666666666668 289.60473678981396, 19.528 289.7354034564806 C 19.482666666666667 290.23407012314726, 19.353333333333335 290.59940345648056, 19.14 290.8314034564806 C 18.926666666666666 291.0634034564806, 18.581333333333333 291.1940701231473, 18.104 291.2234034564806 L 18.104 290.3314034564806 C 18.21333333333333 290.30207012314725, 18.296 290.2494034564806, 18.352 290.17340345648057 C 18.408 290.0974034564806, 18.44 289.9980701231473, 18.448 289.8754034564806 C 18.471999999999998 289.5847367898139, 18.485999999999997 289.3234034564806, 18.49 289.0914034564806 C 18.494 288.8594034564806, 18.485333333333333 288.63807012314726, 18.464 288.4274034564806 C 18.447999999999997 288.27273678981396, 18.396666666666665 288.1574034564806, 18.31 288.0814034564806 C 18.223333333333333 288.0054034564806, 18.090666666666664 287.9674034564806, 17.912 287.9674034564806 C 17.901333333333334 287.9674034564806, 17.890666666666668 287.96873678981393, 17.88 287.9714034564806 C 17.86933333333333 287.97407012314727, 17.86 287.9767367898139, 17.852 287.9794034564806 Z M 17.852 285.6874034564806 L 17.852 284.7554034564806 L 19.439999999999998 284.7554034564806 L 19.439999999999998 285.6874034564806 Z M 21.944 291.1554034564806 L 21.944 284.7554034564806 L 23.003999999999998 284.7554034564806 L 23.003999999999998 291.1554034564806 Z " stroke="none" fill-rule="nonzero" fill="#000000" fill-opacity="1" transform="matrix(1,0,0,1,5.05,13.314)" id="text15 l" />
  <path d="M 0 283.8663347862954 L 10 283.8663347862954 L 10 285.3663347862954 L 0 285.3663347862954 Z " stroke="none" fill-rule="evenodd" fill="#000000" fill-opacity="1" transform="matrix(1,0,0,1,5.05,13.314)" id="mark16 l" />
  <path d="M 0 275.49526611611026 L 10 275.49526611611026 L 10 276.99526611611026 L 0 276.99526611611026 Z " stroke="none" fill-rule="evenodd" fill="#000000" fill-opacity="1" transform="matrix(1,0,0,1,5.05,13.314)" id="mark17 l" />
  <path d="M 0 267.1241974459251 L 10 267.1241974459251 L 10 268.6241974459251 L 0 268.6241974459251 Z " stroke="none" fill-rule="evenodd" fill="#000000" fill-opacity="1" transform="matrix(1,0,0,1,5.05,13.314)" id="mark18 l" />
  <path d="M 0 258.7531287757399 L 10 258.7531287757399 L 10 260.2531287757399 L 0 260.2531287757399 Z " stroke="none" fill-rule="evenodd" fill="#000000" fill-opacity="1" transform="matrix(1,0,0,1,5.05,13.314)" id="mark19 l" />
  <path d="M 0 250.38206010555476 L 25 250.38206010555476 L 25 251.88206010555476 L 0 251.88206010555476 Z " stroke="none" fill-rule="evenodd" fill="#000000" fill-opacity="1" transform="matrix(1,0,0,1,5.05,13.314)" id="mark20 l" />
  <path d="M 12.319999999999999 249.33206010555477 C 12.317333333333334 249.2333934388881, 12.315333333333331 249.14472677222142, 12.313999999999998 249.06606010555478 C 12.312666666666665 248.9873934388881, 12.311333333333334 248.9133934388881, 12.309999999999999 248.84406010555477 C 12.308666666666667 248.77472677222144, 12.308 248.70272677222144, 12.308 248.62806010555477 C 12.308 248.5533934388881, 12.308 248.46872677222143, 12.308 248.37406010555478 C 12.308 248.27939343888812, 12.309333333333335 248.1680601055548, 12.312 248.04006010555477 C 12.32 247.74672677222145, 12.37 247.48472677222145, 12.462 247.25406010555477 C 12.554 247.0233934388881, 12.687999999999999 246.81739343888808, 12.863999999999999 246.63606010555478 C 13.04 246.45472677222142, 13.257333333333333 246.2933934388881, 13.515999999999998 246.15206010555477 L 14.047999999999998 245.86406010555478 C 14.234666666666666 245.76272677222147, 14.354 245.64072677222146, 14.405999999999999 245.49806010555477 C 14.457999999999998 245.3553934388881, 14.488 245.22139343888813, 14.495999999999999 245.09606010555478 C 14.506666666666664 244.94939343888814, 14.512666666666664 244.79272677222144, 14.514 244.62606010555479 C 14.51533333333333 244.45939343888813, 14.511999999999997 244.30272677222143, 14.504 244.1560601055548 C 14.498666666666665 244.0520601055548, 14.468666666666666 243.9660601055548, 14.413999999999998 243.89806010555478 C 14.359333333333332 243.83006010555476, 14.279999999999998 243.78139343888813, 14.175999999999998 243.75206010555476 L 14.175999999999998 242.86406010555478 C 14.663999999999998 242.8960601055548, 15.014 243.0273934388881, 15.225999999999999 243.25806010555476 C 15.437999999999999 243.4887267722214, 15.554666666666666 243.84939343888811, 15.575999999999999 244.34006010555478 C 15.578666666666663 244.40406010555478, 15.580666666666666 244.46939343888812, 15.581999999999999 244.53606010555478 C 15.583333333333332 244.60272677222144, 15.584 244.6673934388881, 15.584 244.73006010555477 C 15.584 244.79272677222144, 15.583333333333332 244.85472677222145, 15.581999999999999 244.91606010555478 C 15.580666666666666 244.9773934388881, 15.578666666666663 245.0373934388881, 15.575999999999999 245.09606010555478 C 15.565333333333331 245.3813934388881, 15.512 245.62806010555477, 15.415999999999999 245.83606010555476 C 15.32 246.04406010555476, 15.19 246.22406010555477, 15.026 246.37606010555479 C 14.862 246.52806010555477, 14.672 246.66406010555477, 14.456 246.78406010555477 L 13.851999999999999 247.11206010555478 C 13.737333333333332 247.17339343888813, 13.647333333333332 247.25739343888813, 13.581999999999999 247.36406010555478 C 13.516666666666666 247.47072677222144, 13.469999999999999 247.58406010555478, 13.441999999999998 247.7040601055548 C 13.413999999999998 247.82406010555476, 13.399999999999999 247.93606010555476, 13.399999999999999 248.04006010555477 L 13.399999999999999 249.33206010555477 Z M 12.328 245.29206010555478 C 12.322666666666667 245.17472677222145, 12.318666666666665 245.06006010555478, 12.315999999999999 244.94806010555476 C 12.313333333333333 244.8360601055548, 12.311333333333334 244.7300601055548, 12.309999999999999 244.63006010555478 C 12.308666666666667 244.53006010555475, 12.309333333333335 244.43339343888812, 12.312 244.34006010555478 C 12.330666666666666 243.85206010555476, 12.447333333333333 243.49272677222143, 12.661999999999999 243.26206010555478 C 12.876666666666665 243.03139343888813, 13.213333333333331 242.89872677222144, 13.671999999999999 242.86406010555478 L 13.671999999999999 243.75606010555478 C 13.576 243.7853934388881, 13.505333333333333 243.83206010555477, 13.459999999999999 243.89606010555477 C 13.414666666666665 243.96006010555476, 13.390666666666664 244.0373934388881, 13.387999999999998 244.12806010555477 C 13.382666666666665 244.33606010555476, 13.379333333333333 244.52939343888812, 13.378 244.70806010555478 C 13.376666666666667 244.88672677222144, 13.381333333333334 245.0813934388881, 13.392 245.29206010555478 Z M 13.904 249.33206010555477 L 13.904 248.4000601055548 L 15.5 248.4000601055548 L 15.5 249.33206010555477 Z M 16.196 247.92006010555477 C 16.188000000000002 247.49072677222142, 16.182666666666666 247.0740601055548, 16.18 246.67006010555477 C 16.177333333333333 246.2660601055548, 16.177999999999997 245.87072677222145, 16.182 245.48406010555476 C 16.186 245.0973934388881, 16.190666666666665 244.7160601055548, 16.196 244.34006010555478 C 16.209333333333333 243.90006010555476, 16.334000000000003 243.55472677222144, 16.57 243.30406010555478 C 16.805999999999997 243.05339343888812, 17.142666666666663 242.9080601055548, 17.58 242.86806010555478 L 17.58 243.75606010555478 C 17.382666666666665 243.8120601055548, 17.281333333333333 243.94139343888813, 17.276 244.1440601055548 C 17.262666666666668 244.51472677222145, 17.253333333333334 244.86272677222144, 17.248 245.18806010555477 C 17.242666666666665 245.5133934388881, 17.24 245.83006010555476, 17.24 246.13806010555479 C 17.24 246.44606010555475, 17.242666666666665 246.76072677222143, 17.248 247.08206010555477 C 17.253333333333334 247.40339343888812, 17.262666666666668 247.74672677222145, 17.276 248.11206010555478 C 17.281333333333333 248.32006010555477, 17.382666666666665 248.45206010555478, 17.58 248.50806010555476 L 17.58 249.39606010555477 C 17.142666666666663 249.35606010555477, 16.805999999999997 249.21006010555476, 16.57 248.95806010555478 C 16.334000000000003 248.70606010555474, 16.209333333333333 248.36006010555474, 16.196 247.92006010555477 Z M 18.084 249.39606010555477 L 18.084 248.50406010555477 C 18.268 248.45072677222146, 18.366666666666667 248.32672677222143, 18.38 248.13206010555479 C 18.398666666666667 247.6653934388881, 18.410666666666668 247.21672677222142, 18.416 246.78606010555478 C 18.421333333333333 246.3553934388881, 18.421333333333333 245.92472677222145, 18.416 245.49406010555478 C 18.410666666666668 245.0633934388881, 18.398666666666667 244.61072677222143, 18.38 244.13606010555478 C 18.374666666666666 243.9413934388881, 18.276 243.81472677222143, 18.084 243.75606010555478 L 18.084 242.86806010555478 C 18.513333333333335 242.9080601055548, 18.846666666666668 243.05339343888812, 19.084 243.30406010555478 C 19.321333333333335 243.55472677222144, 19.445333333333334 243.90006010555476, 19.456 244.34006010555478 C 19.46666666666667 244.6547267722214, 19.474666666666668 244.9647267722214, 19.48 245.27006010555476 C 19.485333333333333 245.5753934388881, 19.488 245.87606010555476, 19.488 246.17206010555478 C 19.488 246.4680601055548, 19.485333333333333 246.7613934388881, 19.48 247.05206010555477 C 19.474666666666668 247.34272677222145, 19.46666666666667 247.63206010555479, 19.456 247.92006010555477 C 19.439999999999998 248.37072677222142, 19.311999999999998 248.71939343888812, 19.072 248.96606010555476 C 18.832 249.21272677222146, 18.502666666666666 249.35606010555477, 18.084 249.39606010555477 Z M 21.944 249.33206010555477 L 21.944 242.93206010555477 L 23.003999999999998 242.93206010555477 L 23.003999999999998 249.33206010555477 Z " stroke="none" fill-rule="nonzero" fill="#000000" fill-opacity="1" transform="matrix(1,0,0,1,5.05,13.314)" id="text20 l" />
  <path d="M 0 242.01099143536962 L 10 242.01099143536962 L 10 243.51099143536962 L 0 243.51099143536962 Z " stroke="none" fill-rule="evenodd" fill="#000000" fill-opacity="1" transform="matrix(1,0,0,1,5.05,13.314)" id="mark21 l" />
  <path d="M 0 233.63992276518445 L 10 233.63992276518445 L 10 235.13992276518445 L 0 235.13992276518445 Z " stroke="none" fill-rule="evenodd" fill="#000000" fill-opacity="1" transform="matrix(1,0,0,1,5.05,13.314)" id="mark22 l" />
  <path d="M 0 225.26885409499928 L 10 225.26885409499928 L 10 226.76885409499928 L 0 226.76885409499928 Z " stroke="none" fill-rule="evenodd" fill="#000000" fill-opacity="1" transform="matrix(1,0,0,1,5.05,13.314)" id="mark23 l" />
  <path d="M 0 216.89778542481415 L 10 216.89778542481415 L 10 218.39778542481415 L 0 218.39778542481415 Z " stroke="none" fill-rule="evenodd" fill="#000000" fill-opacity="1" transform="matrix(1,0,0,1,5.05,13.314)" id="mark24 l" />
  <path d="M 0 208.52671675462898 L 25 208.52671675462898 L 25 210.02671675462898 L 0 210.02671675462898 Z " stroke="none" fill-rule="evenodd" fill="#000000" fill-opacity="1" transform="matrix(1,0,0,1,5.05,13.314)" id="mark25 l" />
  <path d="M 12.328 207.476716754629 C 12.325333333333333 207.37805008796232, 12.323333333333332 207.28938342129567, 12.322 207.210716754629 C 12.320666666666666 207.13205008796234, 12.319333333333333 207.05805008796233, 12.318 206.988716754629 C 12.316666666666666 206.91938342129566, 12.315999999999999 206.84738342129566, 12.316 206.772716754629 C 12.315999999999999 206.69805008796232, 12.315999999999999 206.61338342129568, 12.316 206.518716754629 C 12.315999999999999 206.4240500879623, 12.317333333333334 206.31271675462898, 12.32 206.184716754629 C 12.328 205.89138342129564, 12.378 205.62938342129564, 12.47 205.398716754629 C 12.562000000000001 205.16805008796234, 12.696 204.96205008796233, 12.872 204.780716754629 C 13.048 204.59938342129567, 13.265333333333334 204.43805008796232, 13.524000000000001 204.296716754629 L 14.056000000000001 204.008716754629 C 14.242666666666668 203.90738342129566, 14.362000000000002 203.78538342129565, 14.414 203.642716754629 C 14.466000000000001 203.50005008796234, 14.495999999999999 203.36605008796232, 14.504 203.240716754629 C 14.514666666666667 203.09405008796233, 14.520666666666667 202.9373834212957, 14.522 202.770716754629 C 14.523333333333333 202.60405008796232, 14.520000000000001 202.44738342129568, 14.512 202.300716754629 C 14.506666666666666 202.196716754629, 14.476666666666667 202.110716754629, 14.422 202.042716754629 C 14.367333333333335 201.974716754629, 14.288 201.92605008796232, 14.184000000000001 201.89671675462898 L 14.184000000000001 201.008716754629 C 14.672 201.040716754629, 15.022000000000002 201.17205008796233, 15.234 201.40271675462898 C 15.446000000000002 201.63338342129566, 15.562666666666667 201.99405008796234, 15.584 202.484716754629 C 15.586666666666668 202.548716754629, 15.588666666666668 202.6140500879623, 15.59 202.680716754629 C 15.591333333333335 202.74738342129564, 15.592000000000002 202.81205008796232, 15.592 202.874716754629 C 15.592000000000002 202.93738342129566, 15.591333333333335 202.99938342129565, 15.59 203.060716754629 C 15.588666666666668 203.1220500879623, 15.586666666666668 203.1820500879623, 15.584 203.240716754629 C 15.573333333333332 203.52605008796235, 15.52 203.77271675462902, 15.424 203.980716754629 C 15.328 204.188716754629, 15.197999999999999 204.36871675462902, 15.033999999999999 204.520716754629 C 14.87 204.672716754629, 14.68 204.80871675462902, 14.464 204.928716754629 L 13.86 205.256716754629 C 13.745333333333335 205.31805008796232, 13.655333333333335 205.40205008796232, 13.59 205.508716754629 C 13.524666666666668 205.6153834212957, 13.478000000000002 205.728716754629, 13.45 205.84871675462898 C 13.422 205.96871675462899, 13.408 206.080716754629, 13.408 206.184716754629 L 13.408 207.476716754629 Z M 12.336 203.436716754629 C 12.330666666666666 203.31938342129564, 12.326666666666664 203.20471675462898, 12.324 203.092716754629 C 12.321333333333332 202.980716754629, 12.319333333333333 202.874716754629, 12.318 202.774716754629 C 12.316666666666666 202.674716754629, 12.317333333333334 202.57805008796234, 12.32 202.484716754629 C 12.338666666666668 201.996716754629, 12.455333333333336 201.63738342129568, 12.67 201.406716754629 C 12.884666666666668 201.17605008796232, 13.221333333333334 201.0433834212957, 13.68 201.008716754629 L 13.68 201.900716754629 C 13.584 201.93005008796234, 13.513333333333332 201.97671675462897, 13.468 202.040716754629 C 13.422666666666668 202.104716754629, 13.398666666666667 202.18205008796235, 13.396 202.272716754629 C 13.390666666666666 202.480716754629, 13.387333333333332 202.6740500879623, 13.386 202.852716754629 C 13.384666666666666 203.0313834212957, 13.389333333333333 203.22605008796234, 13.4 203.436716754629 Z M 13.911999999999999 207.476716754629 L 13.911999999999999 206.544716754629 L 15.508 206.544716754629 L 15.508 207.476716754629 Z M 16.18 206.060716754629 C 16.174666666666667 205.88738342129568, 16.173333333333332 205.74805008796233, 16.176 205.642716754629 C 16.178666666666665 205.53738342129566, 16.181333333333335 205.43538342129568, 16.183999999999997 205.336716754629 L 17.264 205.336716754629 C 17.256 205.41405008796232, 17.25 205.51005008796233, 17.246 205.624716754629 C 17.241999999999997 205.73938342129566, 17.240666666666666 205.85005008796233, 17.241999999999997 205.95671675462899 C 17.243333333333332 206.06338342129564, 17.246666666666666 206.14338342129565, 17.252 206.196716754629 C 17.262666666666668 206.316716754629, 17.297333333333334 206.414716754629, 17.355999999999998 206.490716754629 C 17.414666666666665 206.566716754629, 17.497333333333334 206.62071675462897, 17.604 206.65271675462898 L 17.604 207.544716754629 C 17.110666666666663 207.50738342129566, 16.75333333333333 207.37271675462898, 16.532 207.14071675462898 C 16.310666666666666 206.90871675462898, 16.19333333333333 206.54871675462897, 16.18 206.060716754629 Z M 16.279999999999998 204.724716754629 L 16.279999999999998 201.076716754629 L 17.348 201.076716754629 L 17.348 204.724716754629 Z M 17.852 204.300716754629 L 17.852 203.544716754629 C 17.929333333333332 203.504716754629, 18.014666666666667 203.472716754629, 18.107999999999997 203.448716754629 C 18.20133333333333 203.424716754629, 18.301333333333332 203.412716754629, 18.407999999999998 203.412716754629 C 18.773333333333333 203.412716754629, 19.047333333333334 203.52805008796233, 19.23 203.758716754629 C 19.412666666666667 203.98938342129568, 19.514666666666663 204.30338342129568, 19.535999999999998 204.70071675462898 C 19.546666666666667 204.86071675462898, 19.55333333333333 205.01938342129563, 19.555999999999997 205.17671675462898 C 19.558666666666664 205.33405008796234, 19.557333333333332 205.48738342129565, 19.552 205.636716754629 C 19.546666666666667 205.78605008796234, 19.538666666666668 205.92605008796232, 19.528 206.056716754629 C 19.482666666666667 206.5553834212957, 19.353333333333335 206.92071675462898, 19.14 207.15271675462898 C 18.926666666666666 207.38471675462898, 18.581333333333333 207.51538342129567, 18.104 207.544716754629 L 18.104 206.65271675462898 C 18.21333333333333 206.62338342129567, 18.296 206.57071675462902, 18.352 206.494716754629 C 18.408 206.41871675462897, 18.44 206.31938342129564, 18.448 206.196716754629 C 18.471999999999998 205.90605008796234, 18.485999999999997 205.644716754629, 18.49 205.412716754629 C 18.494 205.180716754629, 18.485333333333333 204.95938342129568, 18.464 204.748716754629 C 18.447999999999997 204.59405008796233, 18.396666666666665 204.47871675462898, 18.31 204.40271675462898 C 18.223333333333333 204.326716754629, 18.090666666666664 204.28871675462898, 17.912 204.288716754629 C 17.901333333333334 204.28871675462898, 17.890666666666668 204.29005008796233, 17.88 204.292716754629 C 17.86933333333333 204.29538342129567, 17.86 204.29805008796234, 17.852 204.300716754629 Z M 17.852 202.008716754629 L 17.852 201.076716754629 L 19.439999999999998 201.076716754629 L 19.439999999999998 202.008716754629 Z M 21.944 207.476716754629 L 21.944 201.076716754629 L 23.003999999999998 201.076716754629 L 23.003999999999998 207.476716754629 Z " stroke="none" fill-rule="nonzero" fill="#000000" fill-opacity="1" transform="matrix(1,0,0,1,5.05,13.314)" id="text25 l" />
  <path d="M 0 200.1556480844438 L 10 200.1556480844438 L 10 201.6556480844438 L 0 201.6556480844438 Z " stroke="none" fill-rule="evenodd" fill="#000000" fill-opacity="1" transform="matrix(1,0,0,1,5.05,13.314)" id="mark26 l" />
  <path d="M 0 191.78457941425864 L 10 191.78457941425864 L 10 193.28457941425864 L 0 193.28457941425864 Z " stroke="none" fill-rule="evenodd" fill="#000000" fill-opacity="1" transform="matrix(1,0,0,1,5.05,13.314)" id="mark27 l" />
  <path d="M 0 183.4135107440735 L 10 183.4135107440735 L 10 184.9135107440735 L 0 184.9135107440735 Z " stroke="none" fill-rule="evenodd" fill="#000000" fill-opacity="1" transform="matrix(1,0,0,1,5.05,13.314)" id="mark28 l" />
  <path d="M 0 175.04244207388834 L 10 175.04244207388834 L 10 176.54244207388834 L 0 176.54244207388834 Z " stroke="none" fill-rule="evenodd" fill="#000000" fill-opacity="1" transform="matrix(1,0,0,1,5.05,13.314)" id="mark29 l" />
  <path d="M 0 166.67137340370317 L 25 166.67137340370317 L 25 168.17137340370317 L 0 168.17137340370317 Z " stroke="none" fill-rule="evenodd" fill="#000000" fill-opacity="1" transform="matrix(1,0,0,1,5.05,13.314)" id="mark30 l" />
  <path d="M 12.223999999999998 164.2053734037032 C 12.221333333333334 164.10404007036985, 12.219333333333333 164.02004007036984, 12.218 163.95337340370318 C 12.216666666666667 163.88670673703652, 12.216666666666667 163.81870673703654, 12.218 163.7493734037032 C 12.219333333333333 163.68004007036987, 12.221333333333334 163.59070673703653, 12.223999999999998 163.4813734037032 L 13.303999999999998 163.4813734037032 L 13.303999999999998 164.34537340370318 C 13.303999999999998 164.58270673703652, 13.417333333333332 164.73337340370318, 13.643999999999998 164.79737340370318 L 13.643999999999998 165.6893734037032 C 13.155999999999999 165.65204007036988, 12.800666666666665 165.51737340370317, 12.578 165.28537340370318 C 12.355333333333334 165.05337340370318, 12.237333333333332 164.6933734037032, 12.223999999999998 164.2053734037032 Z M 12.292 160.1533734037032 L 12.292 159.22137340370318 L 15.536 159.22137340370318 L 15.536 160.1533734037032 Z M 14.143999999999998 164.8013734037032 C 14.367999999999999 164.74537340370318, 14.483999999999998 164.59470673703652, 14.491999999999999 164.3493734037032 C 14.497333333333334 164.14670673703654, 14.500666666666666 163.96404007036986, 14.501999999999999 163.8013734037032 C 14.503333333333332 163.63870673703653, 14.498666666666665 163.4813734037032, 14.488 163.3293734037032 C 14.48 163.17204007036986, 14.431999999999999 163.03870673703653, 14.344 162.92937340370318 C 14.256 162.82004007036986, 14.089333333333332 162.76804007036986, 13.844 162.77337340370318 L 13.096 162.78137340370318 L 13.068 161.8893734037032 L 14.027999999999999 160.50537340370317 L 15.216 160.50537340370317 L 14.248 161.85737340370318 L 14.28 161.85737340370318 C 14.712 161.85737340370318, 15.028666666666666 161.98004007036985, 15.229999999999999 162.2253734037032 C 15.431333333333333 162.47070673703652, 15.544 162.84804007036985, 15.568 163.35737340370318 C 15.57333333333333 163.42937340370318, 15.576666666666664 163.50137340370318, 15.578 163.5733734037032 C 15.57933333333333 163.6453734037032, 15.579999999999998 163.71604007036984, 15.579999999999998 163.78537340370318 C 15.579999999999998 163.8547067370365, 15.57933333333333 163.92404007036987, 15.578 163.99337340370317 C 15.576666666666664 164.06270673703654, 15.57333333333333 164.1333734037032, 15.568 164.2053734037032 C 15.549333333333333 164.7013734037032, 15.428666666666665 165.06604007036987, 15.206 165.29937340370319 C 14.983333333333334 165.5327067370365, 14.630666666666666 165.6627067370365, 14.148 165.6893734037032 Z M 16.196 164.20937340370318 C 16.188000000000002 163.78004007036986, 16.182666666666666 163.36337340370318, 16.18 162.95937340370318 C 16.177333333333333 162.5553734037032, 16.177999999999997 162.16004007036986, 16.182 161.77337340370318 C 16.186 161.38670673703652, 16.190666666666665 161.00537340370317, 16.196 160.6293734037032 C 16.209333333333333 160.1893734037032, 16.334000000000003 159.84404007036986, 16.57 159.5933734037032 C 16.805999999999997 159.34270673703654, 17.142666666666663 159.19737340370318, 17.58 159.1573734037032 L 17.58 160.0453734037032 C 17.382666666666665 160.1013734037032, 17.281333333333333 160.23070673703654, 17.276 160.4333734037032 C 17.262666666666668 160.80404007036987, 17.253333333333334 161.15204007036985, 17.248 161.47737340370318 C 17.242666666666665 161.80270673703652, 17.24 162.1193734037032, 17.24 162.4273734037032 C 17.24 162.7353734037032, 17.242666666666665 163.05004007036985, 17.248 163.3713734037032 C 17.253333333333334 163.69270673703653, 17.262666666666668 164.03604007036986, 17.276 164.4013734037032 C 17.281333333333333 164.6093734037032, 17.382666666666665 164.7413734037032, 17.58 164.79737340370318 L 17.58 165.68537340370318 C 17.142666666666663 165.6453734037032, 16.805999999999997 165.4993734037032, 16.57 165.2473734037032 C 16.334000000000003 164.99537340370318, 16.209333333333333 164.64937340370318, 16.196 164.20937340370318 Z M 18.084 165.68537340370318 L 18.084 164.79337340370319 C 18.268 164.74004007036987, 18.366666666666667 164.61604007036988, 18.38 164.4213734037032 C 18.398666666666667 163.95470673703653, 18.410666666666668 163.50604007036986, 18.416 163.0753734037032 C 18.421333333333333 162.64470673703653, 18.421333333333333 162.21404007036986, 18.416 161.7833734037032 C 18.410666666666668 161.35270673703653, 18.398666666666667 160.90004007036984, 18.38 160.4253734037032 C 18.374666666666666 160.2307067370365, 18.276 160.10404007036985, 18.084 160.0453734037032 L 18.084 159.1573734037032 C 18.513333333333335 159.19737340370318, 18.846666666666668 159.34270673703654, 19.084 159.5933734037032 C 19.321333333333335 159.84404007036986, 19.445333333333334 160.1893734037032, 19.456 160.6293734037032 C 19.46666666666667 160.94404007036985, 19.474666666666668 161.25404007036985, 19.48 161.55937340370318 C 19.485333333333333 161.8647067370365, 19.488 162.16537340370317, 19.488 162.4613734037032 C 19.488 162.75737340370318, 19.485333333333333 163.05070673703653, 19.48 163.3413734037032 C 19.474666666666668 163.63204007036984, 19.46666666666667 163.92137340370317, 19.456 164.20937340370318 C 19.439999999999998 164.66004007036986, 19.311999999999998 165.00870673703653, 19.072 165.25537340370317 C 18.832 165.50204007036984, 18.502666666666666 165.6453734037032, 18.084 165.68537340370318 Z M 21.944 165.6213734037032 L 21.944 159.22137340370318 L 23.003999999999998 159.22137340370318 L 23.003999999999998 165.6213734037032 Z " stroke="none" fill-rule="nonzero" fill="#000000" fill-opacity="1" transform="matrix(1,0,0,1,5.05,13.314)" id="text30 l" />
  <path d="M 0 158.30030473351803 L 10 158.30030473351803 L 10 159.80030473351803 L 0 159.80030473351803 Z " stroke="none" fill-rule="evenodd" fill="#000000" fill-opacity="1" transform="matrix(1,0,0,1,5.05,13.314)" id="mark31 l" />
  <path d="M 0 149.92923606333284 L 10 149.92923606333284 L 10 151.42923606333284 L 0 151.42923606333284 Z " stroke="none" fill-rule="evenodd" fill="#000000" fill-opacity="1" transform="matrix(1,0,0,1,5.05,13.314)" id="mark32 l" />
  <path d="M 0 141.5581673931477 L 10 141.5581673931477 L 10 143.0581673931477 L 0 143.0581673931477 Z " stroke="none" fill-rule="evenodd" fill="#000000" fill-opacity="1" transform="matrix(1,0,0,1,5.05,13.314)" id="mark33 l" />
  <path d="M 0 133.18709872296256 L 10 133.18709872296256 L 10 134.68709872296256 L 0 134.68709872296256 Z " stroke="none" fill-rule="evenodd" fill="#000000" fill-opacity="1" transform="matrix(1,0,0,1,5.05,13.314)" id="mark34 l" />
  <path d="M 0 124.81603005277736 L 25 124.81603005277736 L 25 126.31603005277736 L 0 126.31603005277736 Z " stroke="none" fill-rule="evenodd" fill="#000000" fill-opacity="1" transform="matrix(1,0,0,1,5.05,13.314)" id="mark35 l" />
  <path d="M 12.232 122.31803005277737 C 12.229333333333333 122.21669671944404, 12.227333333333334 122.13269671944404, 12.226 122.06603005277736 C 12.224666666666668 121.9993633861107, 12.224666666666668 121.9313633861107, 12.226 121.86203005277737 C 12.227333333333334 121.79269671944404, 12.229333333333333 121.70336338611071, 12.232 121.59403005277737 L 13.312 121.59403005277737 L 13.312 122.45803005277737 C 13.312 122.6953633861107, 13.425333333333333 122.84603005277737, 13.652 122.91003005277737 L 13.652 123.80203005277737 C 13.164 123.76469671944403, 12.808666666666667 123.63003005277737, 12.586 123.39803005277737 C 12.363333333333333 123.16603005277737, 12.245333333333335 122.80603005277737, 12.232 122.31803005277737 Z M 12.3 118.26603005277737 L 12.3 117.33403005277736 L 15.544 117.33403005277736 L 15.544 118.26603005277737 Z M 14.152000000000001 122.91403005277738 C 14.376000000000001 122.85803005277738, 14.492 122.7073633861107, 14.5 122.46203005277737 C 14.505333333333333 122.25936338611069, 14.508666666666667 122.07669671944404, 14.51 121.91403005277738 C 14.511333333333333 121.75136338611071, 14.506666666666668 121.59403005277737, 14.496 121.44203005277737 C 14.488 121.28469671944403, 14.440000000000001 121.15136338611069, 14.352 121.04203005277736 C 14.264 120.93269671944404, 14.097333333333335 120.88069671944405, 13.852 120.88603005277737 L 13.104 120.89403005277737 L 13.076 120.00203005277737 L 14.036 118.61803005277737 L 15.224 118.61803005277737 L 14.256 119.97003005277737 L 14.288 119.97003005277737 C 14.719999999999999 119.97003005277739, 15.036666666666665 120.09269671944404, 15.238 120.33803005277737 C 15.439333333333334 120.5833633861107, 15.552 120.96069671944403, 15.576 121.47003005277737 C 15.581333333333333 121.54203005277736, 15.584666666666667 121.61403005277737, 15.586 121.68603005277737 C 15.587333333333333 121.75803005277737, 15.588000000000001 121.82869671944404, 15.588000000000001 121.89803005277737 C 15.588000000000001 121.9673633861107, 15.587333333333333 122.03669671944404, 15.586 122.10603005277737 C 15.584666666666667 122.1753633861107, 15.581333333333333 122.24603005277737, 15.576 122.31803005277737 C 15.557333333333334 122.81403005277737, 15.436666666666667 123.17869671944403, 15.214 123.41203005277737 C 14.991333333333333 123.6453633861107, 14.638666666666666 123.77536338611071, 14.156 123.80203005277737 Z M 16.18 122.31803005277737 C 16.174666666666667 122.14469671944404, 16.173333333333332 122.0053633861107, 16.176 121.90003005277737 C 16.178666666666665 121.79469671944403, 16.181333333333335 121.69269671944403, 16.183999999999997 121.59403005277737 L 17.264 121.59403005277737 C 17.256 121.6713633861107, 17.25 121.7673633861107, 17.246 121.88203005277737 C 17.241999999999997 121.99669671944403, 17.240666666666666 122.1073633861107, 17.241999999999997 122.21403005277737 C 17.243333333333332 122.32069671944404, 17.246666666666666 122.40069671944404, 17.252 122.45403005277737 C 17.262666666666668 122.57403005277737, 17.297333333333334 122.67203005277737, 17.355999999999998 122.74803005277737 C 17.414666666666665 122.82403005277737, 17.497333333333334 122.87803005277738, 17.604 122.91003005277737 L 17.604 123.80203005277737 C 17.110666666666663 123.76469671944403, 16.75333333333333 123.63003005277737, 16.532 123.39803005277737 C 16.310666666666666 123.16603005277737, 16.19333333333333 122.80603005277737, 16.18 122.31803005277737 Z M 16.279999999999998 120.98203005277738 L 16.279999999999998 117.33403005277736 L 17.348 117.33403005277736 L 17.348 120.98203005277738 Z M 17.852 120.55803005277737 L 17.852 119.80203005277737 C 17.929333333333332 119.76203005277736, 18.014666666666667 119.73003005277735, 18.107999999999997 119.70603005277736 C 18.20133333333333 119.68203005277738, 18.301333333333332 119.67003005277738, 18.407999999999998 119.67003005277738 C 18.773333333333333 119.67003005277738, 19.047333333333334 119.7853633861107, 19.23 120.01603005277737 C 19.412666666666667 120.24669671944403, 19.514666666666663 120.56069671944404, 19.535999999999998 120.95803005277737 C 19.546666666666667 121.11803005277737, 19.55333333333333 121.27669671944403, 19.555999999999997 121.43403005277737 C 19.558666666666664 121.59136338611071, 19.557333333333332 121.74469671944404, 19.552 121.89403005277737 C 19.546666666666667 122.0433633861107, 19.538666666666668 122.1833633861107, 19.528 122.31403005277737 C 19.482666666666667 122.81269671944403, 19.353333333333335 123.17803005277736, 19.14 123.41003005277737 C 18.926666666666666 123.64203005277736, 18.581333333333333 123.77269671944404, 18.104 123.80203005277737 L 18.104 122.91003005277737 C 18.21333333333333 122.88069671944405, 18.296 122.82803005277738, 18.352 122.75203005277737 C 18.408 122.67603005277736, 18.44 122.57669671944403, 18.448 122.45403005277737 C 18.471999999999998 122.1633633861107, 18.485999999999997 121.90203005277738, 18.49 121.67003005277738 C 18.494 121.43803005277738, 18.485333333333333 121.21669671944403, 18.464 121.00603005277738 C 18.447999999999997 120.8513633861107, 18.396666666666665 120.73603005277738, 18.31 120.66003005277737 C 18.223333333333333 120.58403005277736, 18.090666666666664 120.54603005277735, 17.912 120.54603005277737 C 17.901333333333334 120.54603005277735, 17.890666666666668 120.5473633861107, 17.88 120.55003005277737 C 17.86933333333333 120.55269671944404, 17.86 120.55536338611071, 17.852 120.55803005277737 Z M 17.852 118.26603005277737 L 17.852 117.33403005277736 L 19.439999999999998 117.33403005277736 L 19.439999999999998 118.26603005277737 Z M 21.944 123.73403005277737 L 21.944 117.33403005277736 L 23.003999999999998 117.33403005277736 L 23.003999999999998 123.73403005277737 Z " stroke="none" fill-rule="nonzero" fill="#000000" fill-opacity="1" transform="matrix(1,0,0,1,5.05,13.314)" id="text35 l" />
  <path d="M 0 116.44496138259223 L 10 116.44496138259223 L 10 117.94496138259223 L 0 117.94496138259223 Z " stroke="none" fill-rule="evenodd" fill="#000000" fill-opacity="1" transform="matrix(1,0,0,1,5.05,13.314)" id="mark36 l" />
  <path d="M 0 108.07389271240709 L 10 108.07389271240709 L 10 109.57389271240709 L 0 109.57389271240709 Z " stroke="none" fill-rule="evenodd" fill="#000000" fill-opacity="1" transform="matrix(1,0,0,1,5.05,13.314)" id="mark37 l" />
  <path d="M 0 99.70282404222189 L 10 99.70282404222189 L 10 101.20282404222189 L 0 101.20282404222189 Z " stroke="none" fill-rule="evenodd" fill="#000000" fill-opacity="1" transform="matrix(1,0,0,1,5.05,13.314)" id="mark38 l" />
  <path d="M 0 91.33175537203675 L 10 91.33175537203675 L 10 92.83175537203675 L 0 92.83175537203675 Z " stroke="none" fill-rule="evenodd" fill="#000000" fill-opacity="1" transform="matrix(1,0,0,1,5.05,13.314)" id="mark39 l" />
  <path d="M 0 82.96068670185156 L 25 82.96068670185156 L 25 84.46068670185156 L 0 84.46068670185156 Z " stroke="none" fill-rule="evenodd" fill="#000000" fill-opacity="1" transform="matrix(1,0,0,1,5.05,13.314)" id="mark40 l" />
  <path d="M 11.739999999999998 80.22668670185156 L 11.739999999999998 79.35068670185156 L 12.455999999999998 77.47068670185156 L 13.495999999999999 77.47068670185156 L 12.771999999999998 79.30268670185156 L 13.171999999999997 79.30268670185156 L 13.171999999999997 80.22668670185156 Z M 13.675999999999998 81.91068670185156 L 13.675999999999998 75.51068670185155 L 14.683999999999997 75.51068670185155 L 14.683999999999997 81.91068670185156 Z M 15.187999999999999 80.22668670185156 L 15.187999999999999 79.30268670185156 L 15.655999999999999 79.30268670185156 L 15.655999999999999 80.22668670185156 Z M 16.195999999999998 80.49868670185155 C 16.188 80.06935336851822, 16.182666666666666 79.65268670185156, 16.18 79.24868670185155 C 16.177333333333333 78.84468670185156, 16.177999999999997 78.44935336851823, 16.182 78.06268670185156 C 16.186 77.67602003518489, 16.190666666666665 77.29468670185156, 16.195999999999998 76.91868670185156 C 16.20933333333333 76.47868670185156, 16.333999999999996 76.13335336851821, 16.569999999999997 75.88268670185155 C 16.805999999999997 75.6320200351849, 17.142666666666663 75.48668670185157, 17.58 75.44668670185156 L 17.58 76.33468670185157 C 17.382666666666665 76.39068670185156, 17.281333333333333 76.5200200351849, 17.275999999999996 76.72268670185156 C 17.262666666666664 77.09335336851822, 17.25333333333333 77.44135336851822, 17.247999999999998 77.76668670185155 C 17.242666666666665 78.09202003518489, 17.24 78.40868670185155, 17.24 78.71668670185156 C 17.24 79.02468670185156, 17.242666666666665 79.33935336851823, 17.247999999999998 79.66068670185156 C 17.25333333333333 79.98202003518489, 17.262666666666664 80.32535336851822, 17.275999999999996 80.69068670185156 C 17.281333333333333 80.89868670185156, 17.382666666666665 81.03068670185155, 17.58 81.08668670185156 L 17.58 81.97468670185155 C 17.142666666666663 81.93468670185156, 16.805999999999997 81.78868670185156, 16.569999999999997 81.53668670185156 C 16.333999999999996 81.28468670185157, 16.20933333333333 80.93868670185157, 16.195999999999998 80.49868670185155 Z M 18.084 81.97468670185155 L 18.084 81.08268670185156 C 18.268 81.02935336851823, 18.366666666666667 80.90535336851822, 18.38 80.71068670185156 C 18.398666666666664 80.24402003518489, 18.410666666666664 79.79535336851822, 18.415999999999997 79.36468670185155 C 18.42133333333333 78.9340200351849, 18.42133333333333 78.50335336851823, 18.415999999999997 78.07268670185157 C 18.410666666666664 77.6420200351849, 18.398666666666664 77.18935336851823, 18.38 76.71468670185156 C 18.374666666666666 76.5200200351849, 18.276 76.39335336851823, 18.084 76.33468670185157 L 18.084 75.44668670185156 C 18.513333333333332 75.48668670185157, 18.846666666666664 75.6320200351849, 19.083999999999996 75.88268670185155 C 19.32133333333333 76.13335336851821, 19.44533333333333 76.47868670185156, 19.456 76.91868670185156 C 19.466666666666665 77.23335336851822, 19.474666666666664 77.54335336851823, 19.479999999999997 77.84868670185156 C 19.48533333333333 78.1540200351849, 19.488 78.45468670185156, 19.488 78.75068670185156 C 19.488 79.04668670185157, 19.48533333333333 79.34002003518489, 19.479999999999997 79.63068670185156 C 19.474666666666664 79.92135336851823, 19.466666666666665 80.21068670185156, 19.456 80.49868670185155 C 19.439999999999998 80.94935336851822, 19.311999999999998 81.29802003518489, 19.072 81.54468670185156 C 18.831999999999997 81.79135336851823, 18.502666666666663 81.93468670185156, 18.084 81.97468670185155 Z M 21.944 81.91068670185156 L 21.944 75.51068670185155 L 23.003999999999998 75.51068670185155 L 23.003999999999998 81.91068670185156 Z " stroke="none" fill-rule="nonzero" fill="#000000" fill-opacity="1" transform="matrix(1,0,0,1,5.05,13.314)" id="text40 l" />
  <path d="M 0 74.58961803166642 L 10 74.58961803166642 L 10 76.08961803166642 L 0 76.08961803166642 Z " stroke="none" fill-rule="evenodd" fill="#000000" fill-opacity="1" transform="matrix(1,0,0,1,5.05,13.314)" id="mark41 l" />
  <path d="M 0 66.21854936148128 L 10 66.21854936148128 L 10 67.71854936148128 L 0 67.71854936148128 Z " stroke="none" fill-rule="evenodd" fill="#000000" fill-opacity="1" transform="matrix(1,0,0,1,5.05,13.314)" id="mark42 l" />
  <path d="M 0 57.847480691296084 L 10 57.847480691296084 L 10 59.347480691296084 L 0 59.347480691296084 Z " stroke="none" fill-rule="evenodd" fill="#000000" fill-opacity="1" transform="matrix(1,0,0,1,5.05,13.314)" id="mark43 l" />
  <path d="M 0 49.476412021110946 L 10 49.476412021110946 L 10 50.976412021110946 L 0 50.976412021110946 Z " stroke="none" fill-rule="evenodd" fill="#000000" fill-opacity="1" transform="matrix(1,0,0,1,5.05,13.314)" id="mark44 l" />
  <path d="M 0 41.10534335092581 L 25 41.10534335092581 L 25 42.60534335092581 L 0 42.60534335092581 Z " stroke="none" fill-rule="evenodd" fill="#000000" fill-opacity="1" transform="matrix(1,0,0,1,5.05,13.314)" id="mark45 l" />
  <path d="M 11.748 38.33934335092581 L 11.748 37.463343350925804 L 12.463999999999999 35.58334335092581 L 13.503999999999998 35.58334335092581 L 12.78 37.41534335092581 L 13.18 37.41534335092581 L 13.18 38.33934335092581 Z M 13.684 40.023343350925806 L 13.684 33.62334335092581 L 14.691999999999998 33.62334335092581 L 14.691999999999998 40.023343350925806 Z M 15.195999999999998 38.33934335092581 L 15.195999999999998 37.41534335092581 L 15.663999999999998 37.41534335092581 L 15.663999999999998 38.33934335092581 Z M 16.18 38.60734335092581 C 16.174666666666667 38.43401001759247, 16.173333333333332 38.29467668425914, 16.176 38.1893433509258 C 16.178666666666665 38.084010017592476, 16.181333333333335 37.98201001759247, 16.183999999999997 37.883343350925806 L 17.264 37.883343350925806 C 17.256 37.96067668425914, 17.25 38.05667668425914, 17.246 38.17134335092581 C 17.241999999999997 38.286010017592474, 17.240666666666666 38.396676684259134, 17.241999999999997 38.5033433509258 C 17.243333333333332 38.61001001759247, 17.246666666666666 38.69001001759247, 17.252 38.743343350925805 C 17.262666666666668 38.8633433509258, 17.297333333333334 38.96134335092581, 17.355999999999998 39.03734335092581 C 17.414666666666665 39.11334335092581, 17.497333333333334 39.167343350925805, 17.604 39.19934335092581 L 17.604 40.091343350925804 C 17.110666666666663 40.054010017592475, 16.75333333333333 39.91934335092581, 16.532 39.68734335092581 C 16.310666666666666 39.45534335092581, 16.19333333333333 39.09534335092581, 16.18 38.60734335092581 Z M 16.279999999999998 37.271343350925804 L 16.279999999999998 33.62334335092581 L 17.348 33.62334335092581 L 17.348 37.271343350925804 Z M 17.852 36.847343350925804 L 17.852 36.091343350925804 C 17.929333333333332 36.051343350925805, 18.014666666666667 36.01934335092581, 18.107999999999997 35.99534335092581 C 18.20133333333333 35.97134335092581, 18.301333333333332 35.959343350925806, 18.407999999999998 35.959343350925806 C 18.773333333333333 35.959343350925806, 19.047333333333334 36.07467668425914, 19.23 36.30534335092581 C 19.412666666666667 36.536010017592474, 19.514666666666663 36.85001001759247, 19.535999999999998 37.2473433509258 C 19.546666666666667 37.4073433509258, 19.55333333333333 37.566010017592475, 19.555999999999997 37.72334335092581 C 19.558666666666664 37.88067668425914, 19.557333333333332 38.03401001759247, 19.552 38.1833433509258 C 19.546666666666667 38.33267668425914, 19.538666666666668 38.47267668425914, 19.528 38.603343350925805 C 19.482666666666667 39.10201001759248, 19.353333333333335 39.46734335092581, 19.14 39.69934335092581 C 18.926666666666666 39.93134335092581, 18.581333333333333 40.06201001759247, 18.104 40.091343350925804 L 18.104 39.19934335092581 C 18.21333333333333 39.170010017592475, 18.296 39.11734335092581, 18.352 39.04134335092581 C 18.408 38.96534335092581, 18.44 38.86601001759247, 18.448 38.743343350925805 C 18.471999999999998 38.45267668425914, 18.485999999999997 38.191343350925806, 18.49 37.959343350925806 C 18.494 37.72734335092581, 18.485333333333333 37.50601001759247, 18.464 37.295343350925805 C 18.447999999999997 37.14067668425914, 18.396666666666665 37.02534335092581, 18.31 36.94934335092581 C 18.223333333333333 36.87334335092581, 18.090666666666664 36.835343350925804, 17.912 36.835343350925804 C 17.901333333333334 36.835343350925804, 17.890666666666668 36.83667668425914, 17.88 36.83934335092581 C 17.86933333333333 36.84201001759247, 17.86 36.84467668425914, 17.852 36.847343350925804 Z M 17.852 34.55534335092581 L 17.852 33.62334335092581 L 19.439999999999998 33.62334335092581 L 19.439999999999998 34.55534335092581 Z M 21.944 40.023343350925806 L 21.944 33.62334335092581 L 23.003999999999998 33.62334335092581 L 23.003999999999998 40.023343350925806 Z " stroke="none" fill-rule="nonzero" fill="#000000" fill-opacity="1" transform="matrix(1,0,0,1,5.05,13.314)" id="text45 l" />
  <path d="M 0 32.73427468074061 L 10 32.73427468074061 L 10 34.23427468074061 L 0 34.23427468074061 Z " stroke="none" fill-rule="evenodd" fill="#000000" fill-opacity="1" transform="matrix(1,0,0,1,5.05,13.314)" id="mark46 l" />
  <path d="M 0 24.363206010555473 L 10 24.363206010555473 L 10 25.863206010555473 L 0 25.863206010555473 Z " stroke="none" fill-rule="evenodd" fill="#000000" fill-opacity="1" transform="matrix(1,0,0,1,5.05,13.314)" id="mark47 l" />
  <path d="M 0 15.992137340370334 L 10 15.992137340370334 L 10 17.492137340370334 L 0 17.492137340370334 Z " stroke="none" fill-rule="evenodd" fill="#000000" fill-opacity="1" transform="matrix(1,0,0,1,5.05,13.314)" id="mark48 l" />
  <path d="M 0 7.621068670185139 L 10 7.621068670185139 L 10 9.121068670185139 L 0 9.121068670185139 Z " stroke="none" fill-rule="evenodd" fill="#000000" fill-opacity="1" transform="matrix(1,0,0,1,5.05,13.314)" id="mark49 l" />
  <path d="M 0 -0.75 L 25 -0.75 L 25 0.75 L 0 0.75 Z " stroke="none" fill-rule="evenodd" fill="#000000" fill-opacity="1" transform="matrix(1,0,0,1,5.05,13.314)" id="mark50 l" />
  <path d="M 12.204 -3.2159999999999997 C 12.198666666666668 -3.389333333333333, 12.197333333333333 -3.528666666666667, 12.2 -3.634 C 12.202666666666667 -3.7393333333333336, 12.205333333333336 -3.841333333333333, 12.208 -3.94 L 13.288 -3.94 C 13.280000000000001 -3.8626666666666667, 13.274000000000001 -3.7666666666666666, 13.27 -3.6519999999999997 C 13.265999999999998 -3.5373333333333328, 13.264666666666667 -3.4266666666666667, 13.266 -3.32 C 13.267333333333333 -3.213333333333334, 13.270666666666667 -3.1333333333333337, 13.276 -3.08 C 13.286666666666665 -2.96, 13.321333333333332 -2.862, 13.379999999999999 -2.7859999999999996 C 13.438666666666666 -2.71, 13.521333333333335 -2.6559999999999997, 13.628 -2.6239999999999997 L 13.628 -1.7319999999999998 C 13.134666666666668 -1.7693333333333332, 12.777333333333335 -1.904, 12.556 -2.1359999999999997 C 12.334666666666667 -2.368, 12.217333333333332 -2.7279999999999998, 12.204 -3.2159999999999997 Z M 12.304 -4.552 L 12.304 -8.2 L 13.372 -8.2 L 13.372 -4.552 Z M 13.876 -4.976 L 13.876 -5.731999999999999 C 13.953333333333333 -5.771999999999999, 14.038666666666668 -5.804, 14.132 -5.828 C 14.225333333333333 -5.852, 14.325333333333333 -5.864, 14.432 -5.864 C 14.797333333333334 -5.864, 15.071333333333332 -5.748666666666667, 15.254 -5.518 C 15.436666666666667 -5.287333333333333, 15.538666666666668 -4.973333333333333, 15.56 -4.576 C 15.570666666666668 -4.416, 15.577333333333334 -4.257333333333333, 15.58 -4.1 C 15.582666666666666 -3.9426666666666668, 15.581333333333333 -3.7893333333333334, 15.576 -3.6399999999999997 C 15.570666666666666 -3.490666666666667, 15.562666666666665 -3.3506666666666667, 15.552 -3.2199999999999998 C 15.506666666666668 -2.721333333333333, 15.377333333333333 -2.356, 15.164 -2.1239999999999997 C 14.950666666666667 -1.892, 14.605333333333332 -1.7613333333333332, 14.128 -1.7319999999999998 L 14.128 -2.6239999999999997 C 14.237333333333334 -2.653333333333333, 14.32 -2.7059999999999995, 14.376 -2.782 C 14.432 -2.8579999999999997, 14.464 -2.957333333333333, 14.472 -3.08 C 14.495999999999999 -3.3706666666666667, 14.509999999999998 -3.6319999999999997, 14.514 -3.864 C 14.518 -4.096, 14.509333333333334 -4.317333333333333, 14.488 -4.5280000000000005 C 14.472000000000001 -4.682666666666667, 14.420666666666666 -4.798, 14.334 -4.874 C 14.247333333333334 -4.949999999999999, 14.114666666666666 -4.9879999999999995, 13.936 -4.9879999999999995 C 13.925333333333333 -4.9879999999999995, 13.914666666666665 -4.986666666666666, 13.904 -4.984 C 13.893333333333334 -4.981333333333334, 13.884 -4.978666666666667, 13.876 -4.976 Z M 13.876 -7.268 L 13.876 -8.2 L 15.464 -8.2 L 15.464 -7.268 Z M 16.196 -3.2119999999999997 C 16.188000000000002 -3.641333333333333, 16.182666666666666 -4.058, 16.18 -4.462 C 16.177333333333333 -4.866, 16.177999999999997 -5.261333333333333, 16.182 -5.648 C 16.186 -6.034666666666666, 16.190666666666665 -6.416, 16.196 -6.792 C 16.209333333333333 -7.231999999999999, 16.334000000000003 -7.577333333333334, 16.57 -7.828 C 16.805999999999997 -8.078666666666667, 17.142666666666663 -8.224, 17.58 -8.264 L 17.58 -7.3759999999999994 C 17.382666666666665 -7.32, 17.281333333333333 -7.190666666666667, 17.276 -6.9879999999999995 C 17.262666666666668 -6.617333333333333, 17.253333333333334 -6.269333333333333, 17.248 -5.944 C 17.242666666666665 -5.618666666666666, 17.24 -5.302, 17.24 -4.994 C 17.24 -4.686, 17.242666666666665 -4.371333333333333, 17.248 -4.05 C 17.253333333333334 -3.7286666666666664, 17.262666666666668 -3.3853333333333326, 17.276 -3.0199999999999996 C 17.281333333333333 -2.812, 17.382666666666665 -2.6799999999999997, 17.58 -2.6239999999999997 L 17.58 -1.7359999999999998 C 17.142666666666663 -1.7759999999999998, 16.805999999999997 -1.9219999999999997, 16.57 -2.174 C 16.334000000000003 -2.4259999999999997, 16.209333333333333 -2.772, 16.196 -3.2119999999999997 Z M 18.084 -1.7359999999999998 L 18.084 -2.6279999999999997 C 18.268 -2.681333333333333, 18.366666666666667 -2.8053333333333335, 18.38 -3 C 18.398666666666667 -3.4666666666666663, 18.410666666666668 -3.915333333333333, 18.416 -4.346 C 18.421333333333333 -4.776666666666666, 18.421333333333333 -5.207333333333333, 18.416 -5.638 C 18.410666666666668 -6.068666666666666, 18.398666666666667 -6.521333333333333, 18.38 -6.9959999999999996 C 18.374666666666666 -7.190666666666667, 18.276 -7.317333333333334, 18.084 -7.3759999999999994 L 18.084 -8.264 C 18.513333333333335 -8.224, 18.846666666666668 -8.078666666666667, 19.084 -7.828 C 19.321333333333335 -7.577333333333334, 19.445333333333334 -7.231999999999999, 19.456 -6.792 C 19.46666666666667 -6.477333333333332, 19.474666666666668 -6.167333333333333, 19.48 -5.861999999999999 C 19.485333333333333 -5.556666666666667, 19.488 -5.256, 19.488 -4.96 C 19.488 -4.664, 19.485333333333333 -4.370666666666667, 19.48 -4.08 C 19.474666666666668 -3.7893333333333334, 19.46666666666667 -3.5, 19.456 -3.2119999999999997 C 19.439999999999998 -2.761333333333333, 19.311999999999998 -2.4126666666666665, 19.072 -2.166 C 18.832 -1.9193333333333331, 18.502666666666666 -1.7759999999999998, 18.084 -1.7359999999999998 Z M 21.944 -1.7999999999999998 L 21.944 -8.2 L 23.003999999999998 -8.2 L 23.003999999999998 -1.7999999999999998 Z " stroke="none" fill-rule="nonzero" fill="#000000" fill-opacity="1" transform="matrix(1,0,0,1,5.05,13.314)" id="text50 l" />
  <path d="M -5 -13.264 L 30 -13.264 L 30 416.9503648390728 L -5 416.9503648390728 Z " stroke="#FF0000" stroke-opacity="1" stroke-width="0.1" stroke-linecap="butt" stroke-linejoin="miter" fill="none" transform="matrix(1,0,0,1,5.05,13.314)" />
</svg>