<?xml version="1.0" encoding="UTF-8"?>
<svg xmlns:xlink="http://www.w3.org/1999/xlink" viewBox="0 0 35.1 407.1968215994895" version="1.1" style="font-synthesis: none;" width="35.1mm" height="407.1968215994895mm" xmlns="http://www.w3.org/2000/svg">
  <defs />
  <style>	</style>
  <path d="M 0 0 L 35.1 0 L 35.1 407.1968215994895 L 0 407.1968215994895 Z " stroke="none" fill-rule="nonzero" fill="#FFFFFF" fill-opacity="1" transform="matrix(1,0,0,1,0,0)" />
  <path d="M 0 386.3148215994895 L 10 386.3148215994895 L 10 387.8148215994895 L 0 387.8148215994895 Z " stroke="none" fill-rule="evenodd" fill="#000000" fill-opacity="1" transform="matrix(1,0,0,1,5.05,13.314)" id="mark1 l" />
  <path d="M 0 365.9429888837269 L 10 365.9429888837269 L 10 367.4429888837269 L 0 367.4429888837269 Z " stroke="none" fill-rule="evenodd" fill="#000000" fill-opacity="1" transform="matrix(1,0,0,1,5.05,13.314)" id="mark2 l" />
  <path d="M 0 345.57115616796426 L 10 345.57115616796426 L 10 347.07115616796426 L 0 347.07115616796426 Z " stroke="none" fill-rule="evenodd" fill="#000000" fill-opacity="1" transform="matrix(1,0,0,1,5.05,13.314)" id="mark3 l" />
  <path d="M 0 325.19932345220167 L 10 325.19932345220167 L 10 326.69932345220167 L 0 326.69932345220167 Z " stroke="none" fill-rule="evenodd" fill="#000000" fill-opacity="1" transform="matrix(1,0,0,1,5.05,13.314)" id="mark4 l" />
  <path d="M 0 304.8274907364391 L 25 304.8274907364391 L 25 306.3274907364391 L 0 306.3274907364391 Z " stroke="none" fill-rule="evenodd" fill="#000000" fill-opacity="1" transform="matrix(1,0,0,1,5.05,13.314)" id="mark5 l" />
  <path d="M 16.18 302.3294907364391 C 16.174666666666667 302.15615740310574, 16.173333333333332 302.01682406977244, 16.176 301.9114907364391 C 16.178666666666665 301.8061574031057, 16.181333333333335 301.70415740310574, 16.183999999999997 301.6054907364391 L 17.264 301.6054907364391 C 17.256 301.68282406977244, 17.25 301.77882406977244, 17.246 301.8934907364391 C 17.241999999999997 302.00815740310577, 17.240666666666666 302.1188240697724, 17.241999999999997 302.2254907364391 C 17.243333333333332 302.3321574031057, 17.246666666666666 302.41215740310577, 17.252 302.4654907364391 C 17.262666666666668 302.58549073643906, 17.297333333333334 302.68349073643907, 17.355999999999998 302.7594907364391 C 17.414666666666665 302.83549073643906, 17.497333333333334 302.88949073643903, 17.604 302.92149073643907 L 17.604 303.81349073643906 C 17.110666666666663 303.77615740310574, 16.75333333333333 303.6414907364391, 16.532 303.40949073643907 C 16.310666666666666 303.17749073643904, 16.19333333333333 302.8174907364391, 16.18 302.3294907364391 Z M 16.279999999999998 300.99349073643907 L 16.279999999999998 297.3454907364391 L 17.348 297.3454907364391 L 17.348 300.99349073643907 Z M 17.852 300.5694907364391 L 17.852 299.81349073643906 C 17.929333333333332 299.77349073643904, 18.014666666666667 299.74149073643906, 18.107999999999997 299.71749073643906 C 18.20133333333333 299.69349073643906, 18.301333333333332 299.68149073643906, 18.407999999999998 299.68149073643906 C 18.773333333333333 299.68149073643906, 19.047333333333334 299.7968240697724, 19.23 300.02749073643906 C 19.412666666666667 300.2581574031057, 19.514666666666663 300.57215740310573, 19.535999999999998 300.96949073643907 C 19.546666666666667 301.12949073643904, 19.55333333333333 301.28815740310574, 19.555999999999997 301.44549073643907 C 19.558666666666664 301.6028240697724, 19.557333333333332 301.7561574031057, 19.552 301.9054907364391 C 19.546666666666667 302.0548240697724, 19.538666666666668 302.1948240697724, 19.528 302.32549073643906 C 19.482666666666667 302.8241574031057, 19.353333333333335 303.18949073643904, 19.14 303.42149073643907 C 18.926666666666666 303.6534907364391, 18.581333333333333 303.7841574031057, 18.104 303.81349073643906 L 18.104 302.92149073643907 C 18.21333333333333 302.8921574031058, 18.296 302.8394907364391, 18.352 302.76349073643905 C 18.408 302.6874907364391, 18.44 302.58815740310575, 18.448 302.4654907364391 C 18.471999999999998 302.1748240697724, 18.485999999999997 301.9134907364391, 18.49 301.68149073643906 C 18.494 301.4494907364391, 18.485333333333333 301.22815740310574, 18.464 301.0174907364391 C 18.447999999999997 300.86282406977244, 18.396666666666665 300.7474907364391, 18.31 300.67149073643907 C 18.223333333333333 300.59549073643905, 18.090666666666664 300.5574907364391, 17.912 300.5574907364391 C 17.901333333333334 300.5574907364391, 17.890666666666668 300.5588240697724, 17.88 300.56149073643905 C 17.86933333333333 300.56415740310575, 17.86 300.56682406977245, 17.852 300.5694907364391 Z M 17.852 298.27749073643906 L 17.852 297.3454907364391 L 19.439999999999998 297.3454907364391 L 19.439999999999998 298.27749073643906 Z M 21.944 303.7454907364391 L 21.944 297.3454907364391 L 23.003999999999998 297.3454907364391 L 23.003999999999998 303.7454907364391 Z " stroke="none" fill-rule="nonzero" fill="#000000" fill-opacity="1" transform="matrix(1,0,0,1,5.05,13.314)" id="text5 l" />
  <path d="M 0 284.4556580206765 L 10 284.4556580206765 L 10 285.9556580206765 L 0 285.9556580206765 Z " stroke="none" fill-rule="evenodd" fill="#000000" fill-opacity="1" transform="matrix(1,0,0,1,5.05,13.314)" id="mark6 l" />
  <path d="M 0 264.08382530491383 L 10 264.08382530491383 L 10 265.58382530491383 L 0 265.58382530491383 Z " stroke="none" fill-rule="evenodd" fill="#000000" fill-opacity="1" transform="matrix(1,0,0,1,5.05,13.314)" id="mark7 l" />
  <path d="M 0 243.71199258915127 L 10 243.71199258915127 L 10 245.21199258915127 L 0 245.21199258915127 Z " stroke="none" fill-rule="evenodd" fill="#000000" fill-opacity="1" transform="matrix(1,0,0,1,5.05,13.314)" id="mark8 l" />
  <path d="M 0 223.34015987338867 L 10 223.34015987338867 L 10 224.84015987338867 L 0 224.84015987338867 Z " stroke="none" fill-rule="evenodd" fill="#000000" fill-opacity="1" transform="matrix(1,0,0,1,5.05,13.314)" id="mark9 l" />
  <path d="M 0 202.96832715762605 L 25 202.96832715762605 L 25 204.46832715762605 L 0 204.46832715762605 Z " stroke="none" fill-rule="evenodd" fill="#000000" fill-opacity="1" transform="matrix(1,0,0,1,5.05,13.314)" id="mark10 l" />
  <path d="M 14.323999999999998 201.91832715762607 L 14.323999999999998 196.47432715762608 L 13.871999999999998 196.47432715762608 L 13.839999999999998 196.09432715762605 L 14.543999999999999 195.51832715762606 L 15.424 195.51832715762606 L 15.424 201.91832715762607 Z M 16.196 200.50632715762606 C 16.188000000000002 200.0769938242927, 16.182666666666666 199.66032715762606, 16.18 199.25632715762606 C 16.177333333333333 198.85232715762606, 16.177999999999997 198.45699382429274, 16.182 198.07032715762605 C 16.186 197.68366049095943, 16.190666666666665 197.30232715762608, 16.196 196.92632715762608 C 16.209333333333333 196.48632715762608, 16.334000000000003 196.14099382429276, 16.57 195.89032715762607 C 16.805999999999997 195.6396604909594, 17.142666666666663 195.49432715762606, 17.58 195.45432715762607 L 17.58 196.34232715762607 C 17.382666666666665 196.39832715762606, 17.281333333333333 196.52766049095942, 17.276 196.73032715762608 C 17.262666666666668 197.10099382429274, 17.253333333333334 197.4489938242927, 17.248 197.77432715762606 C 17.242666666666665 198.09966049095937, 17.24 198.41632715762606, 17.24 198.72432715762608 C 17.24 199.03232715762607, 17.242666666666665 199.34699382429272, 17.248 199.66832715762607 C 17.253333333333334 199.9896604909594, 17.262666666666668 200.3329938242927, 17.276 200.69832715762607 C 17.281333333333333 200.9063271576261, 17.382666666666665 201.03832715762607, 17.58 201.09432715762605 L 17.58 201.98232715762606 C 17.142666666666663 201.94232715762604, 16.805999999999997 201.79632715762605, 16.57 201.54432715762607 C 16.334000000000003 201.29232715762606, 16.209333333333333 200.94632715762606, 16.196 200.50632715762606 Z M 18.084 201.98232715762606 L 18.084 201.09032715762606 C 18.268 201.03699382429272, 18.366666666666667 200.91299382429276, 18.38 200.71832715762608 C 18.398666666666667 200.2516604909594, 18.410666666666668 199.80299382429274, 18.416 199.37232715762607 C 18.421333333333333 198.9416604909594, 18.421333333333333 198.5109938242927, 18.416 198.08032715762607 C 18.410666666666668 197.64966049095938, 18.398666666666667 197.19699382429275, 18.38 196.72232715762607 C 18.374666666666666 196.52766049095942, 18.276 196.40099382429275, 18.084 196.34232715762607 L 18.084 195.45432715762607 C 18.513333333333335 195.49432715762606, 18.846666666666668 195.6396604909594, 19.084 195.89032715762607 C 19.321333333333335 196.14099382429276, 19.445333333333334 196.48632715762608, 19.456 196.92632715762608 C 19.46666666666667 197.24099382429273, 19.474666666666668 197.55099382429273, 19.48 197.85632715762605 C 19.485333333333333 198.16166049095938, 19.488 198.46232715762608, 19.488 198.75832715762607 C 19.488 199.05432715762606, 19.485333333333333 199.34766049095938, 19.48 199.63832715762607 C 19.474666666666668 199.92899382429275, 19.46666666666667 200.21832715762608, 19.456 200.50632715762606 C 19.439999999999998 200.95699382429274, 19.311999999999998 201.30566049095938, 19.072 201.55232715762605 C 18.832 201.79899382429272, 18.502666666666666 201.94232715762604, 18.084 201.98232715762606 Z M 21.944 201.91832715762607 L 21.944 195.51832715762606 L 23.003999999999998 195.51832715762606 L 23.003999999999998 201.91832715762607 Z " stroke="none" fill-rule="nonzero" fill="#000000" fill-opacity="1" transform="matrix(1,0,0,1,5.05,13.314)" id="text10 l" />
  <path d="M 0 182.59649444186346 L 10 182.59649444186346 L 10 184.09649444186346 L 0 184.09649444186346 Z " stroke="none" fill-rule="evenodd" fill="#000000" fill-opacity="1" transform="matrix(1,0,0,1,5.05,13.314)" id="mark11 l" />
  <path d="M 0 162.22466172610083 L 10 162.22466172610083 L 10 163.72466172610083 L 0 163.72466172610083 Z " stroke="none" fill-rule="evenodd" fill="#000000" fill-opacity="1" transform="matrix(1,0,0,1,5.05,13.314)" id="mark12 l" />
  <path d="M 0 141.85282901033827 L 10 141.85282901033827 L 10 143.35282901033827 L 0 143.35282901033827 Z " stroke="none" fill-rule="evenodd" fill="#000000" fill-opacity="1" transform="matrix(1,0,0,1,5.05,13.314)" id="mark13 l" />
  <path d="M 0 121.48099629457562 L 10 121.48099629457562 L 10 122.98099629457562 L 0 122.98099629457562 Z " stroke="none" fill-rule="evenodd" fill="#000000" fill-opacity="1" transform="matrix(1,0,0,1,5.05,13.314)" id="mark14 l" />
  <path d="M 0 101.10916357881302 L 25 101.10916357881302 L 25 102.60916357881302 L 0 102.60916357881302 Z " stroke="none" fill-rule="evenodd" fill="#000000" fill-opacity="1" transform="matrix(1,0,0,1,5.05,13.314)" id="mark15 l" />
  <path d="M 14.331999999999999 100.02716357881303 L 14.331999999999999 94.58316357881303 L 13.879999999999999 94.58316357881303 L 13.847999999999999 94.20316357881303 L 14.552 93.62716357881303 L 15.432 93.62716357881303 L 15.432 100.02716357881303 Z M 16.18 98.61116357881303 C 16.174666666666667 98.43783024547969, 16.173333333333332 98.29849691214636, 16.176 98.19316357881303 C 16.178666666666665 98.0878302454797, 16.181333333333335 97.98583024547969, 16.183999999999997 97.88716357881303 L 17.264 97.88716357881303 C 17.256 97.96449691214636, 17.25 98.06049691214636, 17.246 98.17516357881303 C 17.241999999999997 98.28983024547969, 17.240666666666666 98.40049691214637, 17.241999999999997 98.50716357881304 C 17.243333333333332 98.6138302454797, 17.246666666666666 98.69383024547969, 17.252 98.74716357881303 C 17.262666666666668 98.86716357881303, 17.297333333333334 98.96516357881302, 17.355999999999998 99.04116357881303 C 17.414666666666665 99.11716357881303, 17.497333333333334 99.17116357881304, 17.604 99.20316357881303 L 17.604 100.09516357881303 C 17.110666666666663 100.05783024547969, 16.75333333333333 99.92316357881302, 16.532 99.69116357881303 C 16.310666666666666 99.45916357881302, 16.19333333333333 99.09916357881303, 16.18 98.61116357881303 Z M 16.279999999999998 97.27516357881304 L 16.279999999999998 93.62716357881303 L 17.348 93.62716357881303 L 17.348 97.27516357881304 Z M 17.852 96.85116357881303 L 17.852 96.09516357881303 C 17.929333333333332 96.05516357881302, 18.014666666666667 96.02316357881303, 18.107999999999997 95.99916357881303 C 18.20133333333333 95.97516357881304, 18.301333333333332 95.96316357881304, 18.407999999999998 95.96316357881304 C 18.773333333333333 95.96316357881304, 19.047333333333334 96.07849691214636, 19.23 96.30916357881303 C 19.412666666666667 96.53983024547969, 19.514666666666663 96.85383024547968, 19.535999999999998 97.25116357881303 C 19.546666666666667 97.41116357881302, 19.55333333333333 97.5698302454797, 19.555999999999997 97.72716357881303 C 19.558666666666664 97.88449691214637, 19.557333333333332 98.03783024547971, 19.552 98.18716357881303 C 19.546666666666667 98.33649691214637, 19.538666666666668 98.47649691214636, 19.528 98.60716357881303 C 19.482666666666667 99.1058302454797, 19.353333333333335 99.47116357881305, 19.14 99.70316357881303 C 18.926666666666666 99.93516357881305, 18.581333333333333 100.0658302454797, 18.104 100.09516357881303 L 18.104 99.20316357881303 C 18.21333333333333 99.1738302454797, 18.296 99.12116357881303, 18.352 99.04516357881303 C 18.408 98.96916357881304, 18.44 98.8698302454797, 18.448 98.74716357881303 C 18.471999999999998 98.45649691214638, 18.485999999999997 98.19516357881304, 18.49 97.96316357881304 C 18.494 97.73116357881304, 18.485333333333333 97.50983024547969, 18.464 97.29916357881304 C 18.447999999999997 97.14449691214637, 18.396666666666665 97.02916357881304, 18.31 96.95316357881303 C 18.223333333333333 96.87716357881303, 18.090666666666664 96.83916357881304, 17.912 96.83916357881303 C 17.901333333333334 96.83916357881304, 17.890666666666668 96.84049691214636, 17.88 96.84316357881303 C 17.86933333333333 96.8458302454797, 17.86 96.84849691214636, 17.852 96.85116357881303 Z M 17.852 94.55916357881303 L 17.852 93.62716357881303 L 19.439999999999998 93.62716357881303 L 19.439999999999998 94.55916357881303 Z M 21.944 100.02716357881303 L 21.944 93.62716357881303 L 23.003999999999998 93.62716357881303 L 23.003999999999998 100.02716357881303 Z " stroke="none" fill-rule="nonzero" fill="#000000" fill-opacity="1" transform="matrix(1,0,0,1,5.05,13.314)" id="text15 l" />
  <path d="M 0 80.73733086305043 L 10 80.73733086305043 L 10 82.23733086305043 L 0 82.23733086305043 Z " stroke="none" fill-rule="evenodd" fill="#000000" fill-opacity="1" transform="matrix(1,0,0,1,5.05,13.314)" id="mark16 l" />
  <path d="M 0 60.36549814728784 L 10 60.36549814728784 L 10 61.86549814728784 L 0 61.86549814728784 Z " stroke="none" fill-rule="evenodd" fill="#000000" fill-opacity="1" transform="matrix(1,0,0,1,5.05,13.314)" id="mark17 l" />
  <path d="M 0 39.993665431525244 L 10 39.993665431525244 L 10 41.493665431525244 L 0 41.493665431525244 Z " stroke="none" fill-rule="evenodd" fill="#000000" fill-opacity="1" transform="matrix(1,0,0,1,5.05,13.314)" id="mark18 l" />
  <path d="M 0 19.621832715762594 L 10 19.621832715762594 L 10 21.121832715762594 L 0 21.121832715762594 Z " stroke="none" fill-rule="evenodd" fill="#000000" fill-opacity="1" transform="matrix(1,0,0,1,5.05,13.314)" id="mark19 l" />
  <path d="M 0 -0.75 L 25 -0.75 L 25 0.75 L 0 0.75 Z " stroke="none" fill-rule="evenodd" fill="#000000" fill-opacity="1" transform="matrix(1,0,0,1,5.05,13.314)" id="mark20 l" />
  <path d="M 12.319999999999999 -1.7999999999999998 C 12.317333333333334 -1.8986666666666663, 12.315333333333331 -1.987333333333333, 12.313999999999998 -2.066 C 12.312666666666665 -2.1446666666666663, 12.311333333333334 -2.2186666666666666, 12.309999999999999 -2.288 C 12.308666666666667 -2.357333333333333, 12.308 -2.429333333333333, 12.308 -2.5039999999999996 C 12.308 -2.5786666666666664, 12.308 -2.663333333333333, 12.308 -2.758 C 12.308 -2.852666666666667, 12.309333333333335 -2.964, 12.312 -3.0919999999999996 C 12.32 -3.3853333333333335, 12.37 -3.647333333333333, 12.462 -3.8779999999999997 C 12.554 -4.108666666666667, 12.687999999999999 -4.314666666666667, 12.863999999999999 -4.4959999999999996 C 13.04 -4.677333333333333, 13.257333333333333 -4.838666666666667, 13.515999999999998 -4.98 L 14.047999999999998 -5.268 C 14.234666666666666 -5.3693333333333335, 14.354 -5.491333333333333, 14.405999999999999 -5.634 C 14.457999999999998 -5.776666666666667, 14.488 -5.910666666666667, 14.495999999999999 -6.036 C 14.506666666666664 -6.182666666666666, 14.512666666666664 -6.339333333333333, 14.514 -6.506 C 14.51533333333333 -6.672666666666667, 14.511999999999997 -6.829333333333334, 14.504 -6.976 C 14.498666666666665 -7.08, 14.468666666666666 -7.165999999999999, 14.413999999999998 -7.233999999999999 C 14.359333333333332 -7.302, 14.279999999999998 -7.350666666666666, 14.175999999999998 -7.38 L 14.175999999999998 -8.268 C 14.663999999999998 -8.236, 15.014 -8.104666666666667, 15.225999999999999 -7.874 C 15.437999999999999 -7.643333333333333, 15.554666666666666 -7.282666666666666, 15.575999999999999 -6.792 C 15.578666666666663 -6.728, 15.580666666666666 -6.6626666666666665, 15.581999999999999 -6.595999999999999 C 15.583333333333332 -6.529333333333334, 15.584 -6.464666666666666, 15.584 -6.402 C 15.584 -6.339333333333332, 15.583333333333332 -6.277333333333333, 15.581999999999999 -6.216 C 15.580666666666666 -6.1546666666666665, 15.578666666666663 -6.094666666666667, 15.575999999999999 -6.036 C 15.565333333333331 -5.750666666666667, 15.512 -5.504, 15.415999999999999 -5.295999999999999 C 15.32 -5.088, 15.19 -4.908, 15.026 -4.756 C 14.862 -4.604, 14.672 -4.468, 14.456 -4.348 L 13.851999999999999 -4.02 C 13.737333333333332 -3.9586666666666663, 13.647333333333332 -3.8746666666666663, 13.581999999999999 -3.768 C 13.516666666666666 -3.6613333333333333, 13.469999999999999 -3.548, 13.441999999999998 -3.428 C 13.413999999999998 -3.308, 13.399999999999999 -3.1959999999999997, 13.399999999999999 -3.0919999999999996 L 13.399999999999999 -1.7999999999999998 Z M 12.328 -5.84 C 12.322666666666667 -5.957333333333333, 12.318666666666665 -6.071999999999999, 12.315999999999999 -6.184 C 12.313333333333333 -6.295999999999999, 12.311333333333334 -6.401999999999999, 12.309999999999999 -6.502 C 12.308666666666667 -6.602, 12.309333333333335 -6.698666666666666, 12.312 -6.792 C 12.330666666666666 -7.279999999999999, 12.447333333333333 -7.639333333333333, 12.661999999999999 -7.87 C 12.876666666666665 -8.100666666666667, 13.213333333333331 -8.233333333333334, 13.671999999999999 -8.268 L 13.671999999999999 -7.3759999999999994 C 13.576 -7.346666666666666, 13.505333333333333 -7.3, 13.459999999999999 -7.236 C 13.414666666666665 -7.172, 13.390666666666664 -7.094666666666667, 13.387999999999998 -7.004 C 13.382666666666665 -6.795999999999999, 13.379333333333333 -6.602666666666666, 13.378 -6.424 C 13.376666666666667 -6.245333333333333, 13.381333333333334 -6.050666666666666, 13.392 -5.84 Z M 13.904 -1.7999999999999998 L 13.904 -2.7319999999999998 L 15.5 -2.7319999999999998 L 15.5 -1.7999999999999998 Z M 16.196 -3.2119999999999997 C 16.188000000000002 -3.641333333333333, 16.182666666666666 -4.058, 16.18 -4.462 C 16.177333333333333 -4.866, 16.177999999999997 -5.261333333333333, 16.182 -5.648 C 16.186 -6.034666666666666, 16.190666666666665 -6.416, 16.196 -6.792 C 16.209333333333333 -7.231999999999999, 16.334000000000003 -7.577333333333334, 16.57 -7.828 C 16.805999999999997 -8.078666666666667, 17.142666666666663 -8.224, 17.58 -8.264 L 17.58 -7.3759999999999994 C 17.382666666666665 -7.32, 17.281333333333333 -7.190666666666667, 17.276 -6.9879999999999995 C 17.262666666666668 -6.617333333333333, 17.253333333333334 -6.269333333333333, 17.248 -5.944 C 17.242666666666665 -5.618666666666666, 17.24 -5.302, 17.24 -4.994 C 17.24 -4.686, 17.242666666666665 -4.371333333333333, 17.248 -4.05 C 17.253333333333334 -3.7286666666666664, 17.262666666666668 -3.3853333333333326, 17.276 -3.0199999999999996 C 17.281333333333333 -2.812, 17.382666666666665 -2.6799999999999997, 17.58 -2.6239999999999997 L 17.58 -1.7359999999999998 C 17.142666666666663 -1.7759999999999998, 16.805999999999997 -1.9219999999999997, 16.57 -2.174 C 16.334000000000003 -2.4259999999999997, 16.209333333333333 -2.772, 16.196 -3.2119999999999997 Z M 18.084 -1.7359999999999998 L 18.084 -2.6279999999999997 C 18.268 -2.681333333333333, 18.366666666666667 -2.8053333333333335, 18.38 -3 C 18.398666666666667 -3.4666666666666663, 18.410666666666668 -3.915333333333333, 18.416 -4.346 C 18.421333333333333 -4.776666666666666, 18.421333333333333 -5.207333333333333, 18.416 -5.638 C 18.410666666666668 -6.068666666666666, 18.398666666666667 -6.521333333333333, 18.38 -6.9959999999999996 C 18.374666666666666 -7.190666666666667, 18.276 -7.317333333333334, 18.084 -7.3759999999999994 L 18.084 -8.264 C 18.513333333333335 -8.224, 18.846666666666668 -8.078666666666667, 19.084 -7.828 C 19.321333333333335 -7.577333333333334, 19.445333333333334 -7.231999999999999, 19.456 -6.792 C 19.46666666666667 -6.477333333333332, 19.474666666666668 -6.167333333333333, 19.48 -5.861999999999999 C 19.485333333333333 -5.556666666666667, 19.488 -5.256, 19.488 -4.96 C 19.488 -4.664, 19.485333333333333 -4.370666666666667, 19.48 -4.08 C 19.474666666666668 -3.7893333333333334, 19.46666666666667 -3.5, 19.456 -3.2119999999999997 C 19.439999999999998 -2.761333333333333, 19.311999999999998 -2.4126666666666665, 19.072 -2.166 C 18.832 -1.9193333333333331, 18.502666666666666 -1.7759999999999998, 18.084 -1.7359999999999998 Z M 21.944 -1.7999999999999998 L 21.944 -8.2 L 23.003999999999998 -8.2 L 23.003999999999998 -1.7999999999999998 Z " stroke="none" fill-rule="nonzero" fill="#000000" fill-opacity="1" transform="matrix(1,0,0,1,5.05,13.314)" id="text20 l" />
  <path d="M -5 -13.264 L 30 -13.264 L 30 393.8328215994895 L -5 393.8328215994895 Z " stroke="#FF0000" stroke-opacity="1" stroke-width="0.1" stroke-linecap="butt" stroke-linejoin="miter" fill="none" transform="matrix(1,0,0,1,5.05,13.314)" />
</svg>