<?xml version="1.0" encoding="UTF-8"?>
<svg xmlns:xlink="http://www.w3.org/1999/xlink" viewBox="0 0 35.1 391.10055871296106" version="1.1" style="font-synthesis: none;" width="35.1mm" height="391.10055871296106mm" xmlns="http://www.w3.org/2000/svg">
  <defs />
  <style>	</style>
  <path d="M 0 0 L 35.1 0 L 35.1 391.10055871296106 L 0 391.10055871296106 Z " stroke="none" fill-rule="nonzero" fill="#FFFFFF" fill-opacity="1" transform="matrix(1,0,0,1,0,0)" />
  <path d="M 0 370.21855871296106 L 10 370.21855871296106 L 10 371.71855871296106 L 0 371.71855871296106 Z " stroke="none" fill-rule="evenodd" fill="#000000" fill-opacity="1" transform="matrix(1,0,0,1,5.05,13.314)" id="mark1 l" />
  <path d="M 0 363.93095602291083 L 10 363.93095602291083 L 10 365.43095602291083 L 0 365.43095602291083 Z " stroke="none" fill-rule="evenodd" fill="#000000" fill-opacity="1" transform="matrix(1,0,0,1,5.05,13.314)" id="mark2 l" />
  <path d="M 0 357.64335333286067 L 10 357.64335333286067 L 10 359.14335333286067 L 0 359.14335333286067 Z " stroke="none" fill-rule="evenodd" fill="#000000" fill-opacity="1" transform="matrix(1,0,0,1,5.05,13.314)" id="mark3 l" />
  <path d="M 0 351.35575064281045 L 10 351.35575064281045 L 10 352.85575064281045 L 0 352.85575064281045 Z " stroke="none" fill-rule="evenodd" fill="#000000" fill-opacity="1" transform="matrix(1,0,0,1,5.05,13.314)" id="mark4 l" />
  <path d="M 0 345.0681479527603 L 25 345.0681479527603 L 25 346.5681479527603 L 0 346.5681479527603 Z " stroke="none" fill-rule="evenodd" fill="#000000" fill-opacity="1" transform="matrix(1,0,0,1,5.05,13.314)" id="mark5 l" />
  <path d="M 16.18 342.5701479527603 C 16.174666666666667 342.39681461942695, 16.173333333333332 342.2574812860936, 16.176 342.1521479527603 C 16.178666666666665 342.046814619427, 16.181333333333335 341.94481461942695, 16.183999999999997 341.8461479527603 L 17.264 341.8461479527603 C 17.256 341.92348128609365, 17.25 342.01948128609365, 17.246 342.1341479527603 C 17.241999999999997 342.248814619427, 17.240666666666666 342.3594812860936, 17.241999999999997 342.4661479527603 C 17.243333333333332 342.57281461942694, 17.246666666666666 342.652814619427, 17.252 342.7061479527603 C 17.262666666666668 342.82614795276027, 17.297333333333334 342.9241479527603, 17.355999999999998 343.0001479527603 C 17.414666666666665 343.07614795276027, 17.497333333333334 343.1301479527603, 17.604 343.1621479527603 L 17.604 344.0541479527603 C 17.110666666666663 344.01681461942695, 16.75333333333333 343.8821479527603, 16.532 343.6501479527603 C 16.310666666666666 343.41814795276025, 16.19333333333333 343.0581479527603, 16.18 342.5701479527603 Z M 16.279999999999998 341.2341479527603 L 16.279999999999998 337.5861479527603 L 17.348 337.5861479527603 L 17.348 341.2341479527603 Z M 17.852 340.8101479527603 L 17.852 340.0541479527603 C 17.929333333333332 340.01414795276025, 18.014666666666667 339.9821479527603, 18.107999999999997 339.95814795276027 C 18.20133333333333 339.93414795276027, 18.301333333333332 339.92214795276027, 18.407999999999998 339.92214795276027 C 18.773333333333333 339.92214795276027, 19.047333333333334 340.0374812860936, 19.23 340.2681479527603 C 19.412666666666667 340.4988146194269, 19.514666666666663 340.81281461942694, 19.535999999999998 341.2101479527603 C 19.546666666666667 341.3701479527603, 19.55333333333333 341.52881461942695, 19.555999999999997 341.6861479527603 C 19.558666666666664 341.8434812860936, 19.557333333333332 341.99681461942697, 19.552 342.1461479527603 C 19.546666666666667 342.29548128609366, 19.538666666666668 342.43548128609365, 19.528 342.5661479527603 C 19.482666666666667 343.06481461942695, 19.353333333333335 343.4301479527603, 19.14 343.6621479527603 C 18.926666666666666 343.89414795276025, 18.581333333333333 344.02481461942693, 18.104 344.0541479527603 L 18.104 343.1621479527603 C 18.21333333333333 343.13281461942694, 18.296 343.0801479527603, 18.352 343.00414795276026 C 18.408 342.92814795276024, 18.44 342.82881461942696, 18.448 342.7061479527603 C 18.471999999999998 342.4154812860936, 18.485999999999997 342.1541479527603, 18.49 341.92214795276027 C 18.494 341.6901479527603, 18.485333333333333 341.468814619427, 18.464 341.2581479527603 C 18.447999999999997 341.1034812860936, 18.396666666666665 340.9881479527603, 18.31 340.9121479527603 C 18.223333333333333 340.8361479527603, 18.090666666666664 340.7981479527603, 17.912 340.7981479527603 C 17.901333333333334 340.7981479527603, 17.890666666666668 340.7994812860936, 17.88 340.80214795276027 C 17.86933333333333 340.80481461942696, 17.86 340.8074812860936, 17.852 340.8101479527603 Z M 17.852 338.5181479527603 L 17.852 337.5861479527603 L 19.439999999999998 337.5861479527603 L 19.439999999999998 338.5181479527603 Z M 21.944 343.9861479527603 L 21.944 337.5861479527603 L 23.003999999999998 337.5861479527603 L 23.003999999999998 343.9861479527603 Z " stroke="none" fill-rule="nonzero" fill="#000000" fill-opacity="1" transform="matrix(1,0,0,1,5.05,13.314)" id="text5 l" />
  <path d="M 0 338.7805452627101 L 10 338.7805452627101 L 10 340.2805452627101 L 0 340.2805452627101 Z " stroke="none" fill-rule="evenodd" fill="#000000" fill-opacity="1" transform="matrix(1,0,0,1,5.05,13.314)" id="mark6 l" />
  <path d="M 0 332.4929425726599 L 10 332.4929425726599 L 10 333.9929425726599 L 0 333.9929425726599 Z " stroke="none" fill-rule="evenodd" fill="#000000" fill-opacity="1" transform="matrix(1,0,0,1,5.05,13.314)" id="mark7 l" />
  <path d="M 0 326.20533988260974 L 10 326.20533988260974 L 10 327.70533988260974 L 0 327.70533988260974 Z " stroke="none" fill-rule="evenodd" fill="#000000" fill-opacity="1" transform="matrix(1,0,0,1,5.05,13.314)" id="mark8 l" />
  <path d="M 0 319.9177371925595 L 10 319.9177371925595 L 10 321.4177371925595 L 0 321.4177371925595 Z " stroke="none" fill-rule="evenodd" fill="#000000" fill-opacity="1" transform="matrix(1,0,0,1,5.05,13.314)" id="mark9 l" />
  <path d="M 0 313.63013450250935 L 25 313.63013450250935 L 25 315.13013450250935 L 0 315.13013450250935 Z " stroke="none" fill-rule="evenodd" fill="#000000" fill-opacity="1" transform="matrix(1,0,0,1,5.05,13.314)" id="mark10 l" />
  <path d="M 14.323999999999998 312.58013450250934 L 14.323999999999998 307.1361345025093 L 13.871999999999998 307.1361345025093 L 13.839999999999998 306.7561345025093 L 14.543999999999999 306.18013450250936 L 15.424 306.18013450250936 L 15.424 312.58013450250934 Z M 16.196 311.16813450250936 C 16.188000000000002 310.738801169176, 16.182666666666666 310.32213450250936, 16.18 309.91813450250936 C 16.177333333333333 309.51413450250936, 16.177999999999997 309.118801169176, 16.182 308.7321345025093 C 16.186 308.34546783584267, 16.190666666666665 307.96413450250935, 16.196 307.5881345025093 C 16.209333333333333 307.1481345025093, 16.334000000000003 306.802801169176, 16.57 306.5521345025093 C 16.805999999999997 306.3014678358427, 17.142666666666663 306.15613450250936, 17.58 306.11613450250934 L 17.58 307.0041345025093 C 17.382666666666665 307.0601345025093, 17.281333333333333 307.18946783584266, 17.276 307.39213450250935 C 17.262666666666668 307.762801169176, 17.253333333333334 308.110801169176, 17.248 308.43613450250933 C 17.242666666666665 308.76146783584267, 17.24 309.07813450250933, 17.24 309.3861345025093 C 17.24 309.6941345025093, 17.242666666666665 310.00880116917597, 17.248 310.33013450250934 C 17.253333333333334 310.6514678358427, 17.262666666666668 310.994801169176, 17.276 311.3601345025093 C 17.281333333333333 311.56813450250934, 17.382666666666665 311.70013450250934, 17.58 311.7561345025093 L 17.58 312.64413450250936 C 17.142666666666663 312.60413450250934, 16.805999999999997 312.4581345025093, 16.57 312.2061345025093 C 16.334000000000003 311.9541345025093, 16.209333333333333 311.6081345025093, 16.196 311.16813450250936 Z M 18.084 312.64413450250936 L 18.084 311.75213450250936 C 18.268 311.698801169176, 18.366666666666667 311.574801169176, 18.38 311.38013450250935 C 18.398666666666667 310.9134678358427, 18.410666666666668 310.46480116917604, 18.416 310.03413450250935 C 18.421333333333333 309.60346783584265, 18.421333333333333 309.17280116917595, 18.416 308.7421345025093 C 18.410666666666668 308.3114678358427, 18.398666666666667 307.858801169176, 18.38 307.3841345025093 C 18.374666666666666 307.18946783584266, 18.276 307.062801169176, 18.084 307.0041345025093 L 18.084 306.11613450250934 C 18.513333333333335 306.15613450250936, 18.846666666666668 306.3014678358427, 19.084 306.5521345025093 C 19.321333333333335 306.802801169176, 19.445333333333334 307.1481345025093, 19.456 307.5881345025093 C 19.46666666666667 307.90280116917603, 19.474666666666668 308.21280116917603, 19.48 308.5181345025093 C 19.485333333333333 308.8234678358427, 19.488 309.1241345025094, 19.488 309.4201345025093 C 19.488 309.71613450250936, 19.485333333333333 310.00946783584266, 19.48 310.30013450250937 C 19.474666666666668 310.590801169176, 19.46666666666667 310.88013450250935, 19.456 311.16813450250936 C 19.439999999999998 311.618801169176, 19.311999999999998 311.9674678358427, 19.072 312.21413450250935 C 18.832 312.460801169176, 18.502666666666666 312.60413450250934, 18.084 312.64413450250936 Z M 21.944 312.58013450250934 L 21.944 306.18013450250936 L 23.003999999999998 306.18013450250936 L 23.003999999999998 312.58013450250934 Z " stroke="none" fill-rule="nonzero" fill="#000000" fill-opacity="1" transform="matrix(1,0,0,1,5.05,13.314)" id="text10 l" />
  <path d="M 0 307.34253181245913 L 10 307.34253181245913 L 10 308.84253181245913 L 0 308.84253181245913 Z " stroke="none" fill-rule="evenodd" fill="#000000" fill-opacity="1" transform="matrix(1,0,0,1,5.05,13.314)" id="mark11 l" />
  <path d="M 0 301.05492912240896 L 10 301.05492912240896 L 10 302.55492912240896 L 0 302.55492912240896 Z " stroke="none" fill-rule="evenodd" fill="#000000" fill-opacity="1" transform="matrix(1,0,0,1,5.05,13.314)" id="mark12 l" />
  <path d="M 0 294.7673264323588 L 10 294.7673264323588 L 10 296.2673264323588 L 0 296.2673264323588 Z " stroke="none" fill-rule="evenodd" fill="#000000" fill-opacity="1" transform="matrix(1,0,0,1,5.05,13.314)" id="mark13 l" />
  <path d="M 0 288.4797237423086 L 10 288.4797237423086 L 10 289.9797237423086 L 0 289.9797237423086 Z " stroke="none" fill-rule="evenodd" fill="#000000" fill-opacity="1" transform="matrix(1,0,0,1,5.05,13.314)" id="mark14 l" />
  <path d="M 0 282.1921210522584 L 25 282.1921210522584 L 25 283.6921210522584 L 0 283.6921210522584 Z " stroke="none" fill-rule="evenodd" fill="#000000" fill-opacity="1" transform="matrix(1,0,0,1,5.05,13.314)" id="mark15 l" />
  <path d="M 14.331999999999999 281.1101210522584 L 14.331999999999999 275.6661210522584 L 13.879999999999999 275.6661210522584 L 13.847999999999999 275.2861210522584 L 14.552 274.71012105225844 L 15.432 274.71012105225844 L 15.432 281.1101210522584 Z M 16.18 279.6941210522584 C 16.174666666666667 279.5207877189251, 16.173333333333332 279.3814543855918, 16.176 279.2761210522584 C 16.178666666666665 279.17078771892506, 16.181333333333335 279.0687877189251, 16.183999999999997 278.97012105225843 L 17.264 278.97012105225843 C 17.256 279.0474543855918, 17.25 279.1434543855918, 17.246 279.25812105225845 C 17.241999999999997 279.3727877189251, 17.240666666666666 279.48345438559176, 17.241999999999997 279.59012105225844 C 17.243333333333332 279.69678771892507, 17.246666666666666 279.7767877189251, 17.252 279.83012105225845 C 17.262666666666668 279.9501210522584, 17.297333333333334 280.0481210522584, 17.355999999999998 280.12412105225843 C 17.414666666666665 280.2001210522584, 17.497333333333334 280.25412105225837, 17.604 280.2861210522584 L 17.604 281.1781210522584 C 17.110666666666663 281.1407877189251, 16.75333333333333 281.00612105225844, 16.532 280.7741210522584 C 16.310666666666666 280.5421210522584, 16.19333333333333 280.1821210522584, 16.18 279.6941210522584 Z M 16.279999999999998 278.3581210522584 L 16.279999999999998 274.71012105225844 L 17.348 274.71012105225844 L 17.348 278.3581210522584 Z M 17.852 277.93412105225843 L 17.852 277.1781210522584 C 17.929333333333332 277.1381210522584, 18.014666666666667 277.1061210522584, 18.107999999999997 277.0821210522584 C 18.20133333333333 277.0581210522584, 18.301333333333332 277.0461210522584, 18.407999999999998 277.0461210522584 C 18.773333333333333 277.0461210522584, 19.047333333333334 277.16145438559175, 19.23 277.3921210522584 C 19.412666666666667 277.62278771892505, 19.514666666666663 277.9367877189251, 19.535999999999998 278.3341210522584 C 19.546666666666667 278.4941210522584, 19.55333333333333 278.6527877189251, 19.555999999999997 278.8101210522584 C 19.558666666666664 278.96745438559174, 19.557333333333332 279.12078771892504, 19.552 279.27012105225845 C 19.546666666666667 279.41945438559173, 19.538666666666668 279.5594543855917, 19.528 279.6901210522584 C 19.482666666666667 280.188787718925, 19.353333333333335 280.5541210522584, 19.14 280.7861210522584 C 18.926666666666666 281.01812105225844, 18.581333333333333 281.14878771892506, 18.104 281.1781210522584 L 18.104 280.2861210522584 C 18.21333333333333 280.2567877189251, 18.296 280.2041210522584, 18.352 280.1281210522584 C 18.408 280.0521210522584, 18.44 279.9527877189251, 18.448 279.83012105225845 C 18.471999999999998 279.53945438559174, 18.485999999999997 279.2781210522584, 18.49 279.0461210522584 C 18.494 278.81412105225843, 18.485333333333333 278.5927877189251, 18.464 278.3821210522584 C 18.447999999999997 278.2274543855918, 18.396666666666665 278.11212105225843, 18.31 278.0361210522584 C 18.223333333333333 277.9601210522584, 18.090666666666664 277.92212105225843, 17.912 277.92212105225843 C 17.901333333333334 277.92212105225843, 17.890666666666668 277.92345438559175, 17.88 277.9261210522584 C 17.86933333333333 277.9287877189251, 17.86 277.9314543855918, 17.852 277.93412105225843 Z M 17.852 275.6421210522584 L 17.852 274.71012105225844 L 19.439999999999998 274.71012105225844 L 19.439999999999998 275.6421210522584 Z M 21.944 281.1101210522584 L 21.944 274.71012105225844 L 23.003999999999998 274.71012105225844 L 23.003999999999998 281.1101210522584 Z " stroke="none" fill-rule="nonzero" fill="#000000" fill-opacity="1" transform="matrix(1,0,0,1,5.05,13.314)" id="text15 l" />
  <path d="M 0 275.90451836220825 L 10 275.90451836220825 L 10 277.40451836220825 L 0 277.40451836220825 Z " stroke="none" fill-rule="evenodd" fill="#000000" fill-opacity="1" transform="matrix(1,0,0,1,5.05,13.314)" id="mark16 l" />
  <path d="M 0 269.61691567215803 L 10 269.61691567215803 L 10 271.11691567215803 L 0 271.11691567215803 Z " stroke="none" fill-rule="evenodd" fill="#000000" fill-opacity="1" transform="matrix(1,0,0,1,5.05,13.314)" id="mark17 l" />
  <path d="M 0 263.32931298210787 L 10 263.32931298210787 L 10 264.82931298210787 L 0 264.82931298210787 Z " stroke="none" fill-rule="evenodd" fill="#000000" fill-opacity="1" transform="matrix(1,0,0,1,5.05,13.314)" id="mark18 l" />
  <path d="M 0 257.0417102920577 L 10 257.0417102920577 L 10 258.5417102920577 L 0 258.5417102920577 Z " stroke="none" fill-rule="evenodd" fill="#000000" fill-opacity="1" transform="matrix(1,0,0,1,5.05,13.314)" id="mark19 l" />
  <path d="M 0 250.75410760200748 L 25 250.75410760200748 L 25 252.25410760200748 L 0 252.25410760200748 Z " stroke="none" fill-rule="evenodd" fill="#000000" fill-opacity="1" transform="matrix(1,0,0,1,5.05,13.314)" id="mark20 l" />
  <path d="M 12.319999999999999 249.7041076020075 C 12.317333333333334 249.60544093534082, 12.315333333333331 249.51677426867417, 12.313999999999998 249.4381076020075 C 12.312666666666665 249.35944093534084, 12.311333333333334 249.28544093534083, 12.309999999999999 249.2161076020075 C 12.308666666666667 249.14677426867416, 12.308 249.07477426867416, 12.308 249.0001076020075 C 12.308 248.92544093534082, 12.308 248.84077426867418, 12.308 248.7461076020075 C 12.308 248.65144093534082, 12.309333333333335 248.54010760200748, 12.312 248.4121076020075 C 12.32 248.11877426867414, 12.37 247.85677426867414, 12.462 247.6261076020075 C 12.554 247.39544093534084, 12.687999999999999 247.18944093534083, 12.863999999999999 247.0081076020075 C 13.04 246.82677426867417, 13.257333333333333 246.66544093534083, 13.515999999999998 246.5241076020075 L 14.047999999999998 246.2361076020075 C 14.234666666666666 246.13477426867416, 14.354 246.01277426867415, 14.405999999999999 245.8701076020075 C 14.457999999999998 245.72744093534084, 14.488 245.59344093534082, 14.495999999999999 245.4681076020075 C 14.506666666666664 245.32144093534083, 14.512666666666664 245.16477426867417, 14.514 244.9981076020075 C 14.51533333333333 244.83144093534085, 14.511999999999997 244.67477426867418, 14.504 244.5281076020075 C 14.498666666666665 244.4241076020075, 14.468666666666666 244.33810760200748, 14.413999999999998 244.2701076020075 C 14.359333333333332 244.20210760200752, 14.279999999999998 244.15344093534083, 14.175999999999998 244.12410760200748 L 14.175999999999998 243.2361076020075 C 14.663999999999998 243.26810760200752, 15.014 243.39944093534086, 15.225999999999999 243.63010760200748 C 15.437999999999999 243.86077426867416, 15.554666666666666 244.2214409353408, 15.575999999999999 244.7121076020075 C 15.578666666666663 244.77610760200753, 15.580666666666666 244.84144093534084, 15.581999999999999 244.9081076020075 C 15.583333333333332 244.97477426867417, 15.584 245.03944093534085, 15.584 245.1021076020075 C 15.584 245.16477426867414, 15.583333333333332 245.22677426867415, 15.581999999999999 245.2881076020075 C 15.580666666666666 245.34944093534082, 15.578666666666663 245.40944093534083, 15.575999999999999 245.4681076020075 C 15.565333333333331 245.75344093534085, 15.512 246.00010760200752, 15.415999999999999 246.2081076020075 C 15.32 246.41610760200751, 15.19 246.59610760200752, 15.026 246.7481076020075 C 14.862 246.9001076020075, 14.672 247.03610760200746, 14.456 247.1561076020075 L 13.851999999999999 247.4841076020075 C 13.737333333333332 247.54544093534082, 13.647333333333332 247.62944093534082, 13.581999999999999 247.7361076020075 C 13.516666666666666 247.84277426867416, 13.469999999999999 247.95610760200748, 13.441999999999998 248.07610760200748 C 13.413999999999998 248.1961076020075, 13.399999999999999 248.3081076020075, 13.399999999999999 248.4121076020075 L 13.399999999999999 249.7041076020075 Z M 12.328 245.6641076020075 C 12.322666666666667 245.54677426867414, 12.318666666666665 245.43210760200748, 12.315999999999999 245.3201076020075 C 12.313333333333333 245.2081076020075, 12.311333333333334 245.1021076020075, 12.309999999999999 245.0021076020075 C 12.308666666666667 244.9021076020075, 12.309333333333335 244.8054409353408, 12.312 244.7121076020075 C 12.330666666666666 244.2241076020075, 12.447333333333333 243.86477426867418, 12.661999999999999 243.6341076020075 C 12.876666666666665 243.40344093534083, 13.213333333333331 243.27077426867416, 13.671999999999999 243.2361076020075 L 13.671999999999999 244.1281076020075 C 13.576 244.15744093534084, 13.505333333333333 244.2041076020075, 13.459999999999999 244.2681076020075 C 13.414666666666665 244.33210760200748, 13.390666666666664 244.4094409353408, 13.387999999999998 244.5001076020075 C 13.382666666666665 244.7081076020075, 13.379333333333333 244.90144093534084, 13.378 245.0801076020075 C 13.376666666666667 245.25877426867416, 13.381333333333334 245.45344093534084, 13.392 245.6641076020075 Z M 13.904 249.7041076020075 L 13.904 248.7721076020075 L 15.5 248.7721076020075 L 15.5 249.7041076020075 Z M 16.196 248.2921076020075 C 16.188000000000002 247.86277426867417, 16.182666666666666 247.4461076020075, 16.18 247.0421076020075 C 16.177333333333333 246.6381076020075, 16.177999999999997 246.24277426867417, 16.182 245.85610760200748 C 16.186 245.4694409353408, 16.190666666666665 245.08810760200748, 16.196 244.7121076020075 C 16.209333333333333 244.2721076020075, 16.334000000000003 243.9267742686742, 16.57 243.6761076020075 C 16.805999999999997 243.42544093534082, 17.142666666666663 243.2801076020075, 17.58 243.2401076020075 L 17.58 244.1281076020075 C 17.382666666666665 244.1841076020075, 17.281333333333333 244.31344093534085, 17.276 244.5161076020075 C 17.262666666666668 244.88677426867417, 17.253333333333334 245.23477426867416, 17.248 245.5601076020075 C 17.242666666666665 245.88544093534082, 17.24 246.20210760200752, 17.24 246.5101076020075 C 17.24 246.8181076020075, 17.242666666666665 247.13277426867415, 17.248 247.4541076020075 C 17.253333333333334 247.77544093534084, 17.262666666666668 248.11877426867414, 17.276 248.4841076020075 C 17.281333333333333 248.69210760200752, 17.382666666666665 248.82410760200753, 17.58 248.88010760200748 L 17.58 249.7681076020075 C 17.142666666666663 249.72810760200747, 16.805999999999997 249.5821076020075, 16.57 249.3301076020075 C 16.334000000000003 249.0781076020075, 16.209333333333333 248.7321076020075, 16.196 248.2921076020075 Z M 18.084 249.7681076020075 L 18.084 248.8761076020075 C 18.268 248.82277426867418, 18.366666666666667 248.69877426867419, 18.38 248.5041076020075 C 18.398666666666667 248.03744093534084, 18.410666666666668 247.58877426867417, 18.416 247.1581076020075 C 18.421333333333333 246.72744093534084, 18.421333333333333 246.29677426867417, 18.416 245.8661076020075 C 18.410666666666668 245.43544093534084, 18.398666666666667 244.98277426867418, 18.38 244.5081076020075 C 18.374666666666666 244.31344093534085, 18.276 244.18677426867418, 18.084 244.1281076020075 L 18.084 243.2401076020075 C 18.513333333333335 243.2801076020075, 18.846666666666668 243.42544093534082, 19.084 243.6761076020075 C 19.321333333333335 243.9267742686742, 19.445333333333334 244.2721076020075, 19.456 244.7121076020075 C 19.46666666666667 245.02677426867416, 19.474666666666668 245.33677426867416, 19.48 245.64210760200748 C 19.485333333333333 245.9474409353408, 19.488 246.24810760200748, 19.488 246.5441076020075 C 19.488 246.8401076020075, 19.485333333333333 247.13344093534084, 19.48 247.4241076020075 C 19.474666666666668 247.71477426867415, 19.46666666666667 248.00410760200748, 19.456 248.2921076020075 C 19.439999999999998 248.74277426867417, 19.311999999999998 249.09144093534084, 19.072 249.33810760200748 C 18.832 249.58477426867415, 18.502666666666666 249.72810760200747, 18.084 249.7681076020075 Z M 21.944 249.7041076020075 L 21.944 243.3041076020075 L 23.003999999999998 243.3041076020075 L 23.003999999999998 249.7041076020075 Z " stroke="none" fill-rule="nonzero" fill="#000000" fill-opacity="1" transform="matrix(1,0,0,1,5.05,13.314)" id="text20 l" />
  <path d="M 0 244.4665049119573 L 10 244.4665049119573 L 10 245.9665049119573 L 0 245.9665049119573 Z " stroke="none" fill-rule="evenodd" fill="#000000" fill-opacity="1" transform="matrix(1,0,0,1,5.05,13.314)" id="mark21 l" />
  <path d="M 0 238.1789022219071 L 10 238.1789022219071 L 10 239.6789022219071 L 0 239.6789022219071 Z " stroke="none" fill-rule="evenodd" fill="#000000" fill-opacity="1" transform="matrix(1,0,0,1,5.05,13.314)" id="mark22 l" />
  <path d="M 0 231.89129953185693 L 10 231.89129953185693 L 10 233.39129953185693 L 0 233.39129953185693 Z " stroke="none" fill-rule="evenodd" fill="#000000" fill-opacity="1" transform="matrix(1,0,0,1,5.05,13.314)" id="mark23 l" />
  <path d="M 0 225.60369684180674 L 10 225.60369684180674 L 10 227.10369684180674 L 0 227.10369684180674 Z " stroke="none" fill-rule="evenodd" fill="#000000" fill-opacity="1" transform="matrix(1,0,0,1,5.05,13.314)" id="mark24 l" />
  <path d="M 0 219.31609415175654 L 25 219.31609415175654 L 25 220.81609415175654 L 0 220.81609415175654 Z " stroke="none" fill-rule="evenodd" fill="#000000" fill-opacity="1" transform="matrix(1,0,0,1,5.05,13.314)" id="mark25 l" />
  <path d="M 12.328 218.26609415175656 C 12.325333333333333 218.1674274850899, 12.323333333333332 218.07876081842323, 12.322 218.00009415175657 C 12.320666666666666 217.9214274850899, 12.319333333333333 217.8474274850899, 12.318 217.77809415175656 C 12.316666666666666 217.70876081842323, 12.315999999999999 217.63676081842323, 12.316 217.56209415175655 C 12.315999999999999 217.48742748508988, 12.315999999999999 217.40276081842325, 12.316 217.30809415175656 C 12.315999999999999 217.21342748508988, 12.317333333333334 217.10209415175655, 12.32 216.97409415175656 C 12.328 216.6807608184232, 12.378 216.4187608184232, 12.47 216.18809415175656 C 12.562000000000001 215.9574274850899, 12.696 215.7514274850899, 12.872 215.57009415175656 C 13.048 215.38876081842324, 13.265333333333334 215.2274274850899, 13.524000000000001 215.08609415175655 L 14.056000000000001 214.79809415175657 C 14.242666666666668 214.69676081842323, 14.362000000000002 214.57476081842321, 14.414 214.43209415175656 C 14.466000000000001 214.2894274850899, 14.495999999999999 214.1554274850899, 14.504 214.03009415175657 C 14.514666666666667 213.8834274850899, 14.520666666666667 213.72676081842326, 14.522 213.56009415175657 C 14.523333333333333 213.3934274850899, 14.520000000000001 213.23676081842325, 14.512 213.09009415175657 C 14.506666666666666 212.98609415175656, 14.476666666666667 212.90009415175658, 14.422 212.83209415175656 C 14.367333333333335 212.76409415175655, 14.288 212.7154274850899, 14.184000000000001 212.68609415175655 L 14.184000000000001 211.79809415175657 C 14.672 211.83009415175655, 15.022000000000002 211.9614274850899, 15.234 212.19209415175655 C 15.446000000000002 212.42276081842323, 15.562666666666667 212.7834274850899, 15.584 213.27409415175657 C 15.586666666666668 213.33809415175656, 15.588666666666668 213.40342748508988, 15.59 213.47009415175657 C 15.591333333333335 213.5367608184232, 15.592000000000002 213.60142748508989, 15.592 213.66409415175656 C 15.592000000000002 213.72676081842323, 15.591333333333335 213.7887608184232, 15.59 213.85009415175656 C 15.588666666666668 213.91142748508986, 15.586666666666668 213.97142748508986, 15.584 214.03009415175657 C 15.573333333333332 214.3154274850899, 15.52 214.56209415175658, 15.424 214.77009415175655 C 15.328 214.97809415175658, 15.197999999999999 215.1580941517566, 15.033999999999999 215.31009415175657 C 14.87 215.46209415175656, 14.68 215.59809415175658, 14.464 215.71809415175656 L 13.86 216.04609415175656 C 13.745333333333335 216.1074274850899, 13.655333333333335 216.1914274850899, 13.59 216.29809415175657 C 13.524666666666668 216.40476081842326, 13.478000000000002 216.51809415175657, 13.45 216.63809415175655 C 13.422 216.75809415175655, 13.408 216.87009415175658, 13.408 216.97409415175656 L 13.408 218.26609415175656 Z M 12.336 214.22609415175657 C 12.330666666666666 214.1087608184232, 12.326666666666664 213.99409415175654, 12.324 213.88209415175658 C 12.321333333333332 213.77009415175655, 12.319333333333333 213.66409415175656, 12.318 213.56409415175656 C 12.316666666666666 213.46409415175657, 12.317333333333334 213.3674274850899, 12.32 213.27409415175657 C 12.338666666666668 212.78609415175657, 12.455333333333336 212.42676081842325, 12.67 212.19609415175657 C 12.884666666666668 211.9654274850899, 13.221333333333334 211.83276081842325, 13.68 211.79809415175657 L 13.68 212.69009415175657 C 13.584 212.7194274850899, 13.513333333333332 212.76609415175653, 13.468 212.83009415175655 C 13.422666666666668 212.89409415175658, 13.398666666666667 212.97142748508992, 13.396 213.06209415175655 C 13.390666666666666 213.27009415175655, 13.387333333333332 213.46342748508988, 13.386 213.64209415175657 C 13.384666666666666 213.82076081842325, 13.389333333333333 214.0154274850899, 13.4 214.22609415175657 Z M 13.911999999999999 218.26609415175656 L 13.911999999999999 217.33409415175657 L 15.508 217.33409415175657 L 15.508 218.26609415175656 Z M 16.18 216.85009415175656 C 16.174666666666667 216.67676081842325, 16.173333333333332 216.5374274850899, 16.176 216.43209415175656 C 16.178666666666665 216.32676081842322, 16.181333333333335 216.22476081842325, 16.183999999999997 216.12609415175658 L 17.264 216.12609415175658 C 17.256 216.2034274850899, 17.25 216.2994274850899, 17.246 216.41409415175656 C 17.241999999999997 216.52876081842322, 17.240666666666666 216.6394274850899, 17.241999999999997 216.74609415175655 C 17.243333333333332 216.8527608184232, 17.246666666666666 216.93276081842322, 17.252 216.98609415175656 C 17.262666666666668 217.10609415175657, 17.297333333333334 217.20409415175658, 17.355999999999998 217.28009415175657 C 17.414666666666665 217.35609415175657, 17.497333333333334 217.41009415175654, 17.604 217.44209415175655 L 17.604 218.33409415175657 C 17.110666666666663 218.29676081842322, 16.75333333333333 218.16209415175655, 16.532 217.93009415175655 C 16.310666666666666 217.69809415175655, 16.19333333333333 217.33809415175654, 16.18 216.85009415175656 Z M 16.279999999999998 215.51409415175655 L 16.279999999999998 211.86609415175656 L 17.348 211.86609415175656 L 17.348 215.51409415175655 Z M 17.852 215.09009415175657 L 17.852 214.33409415175657 C 17.929333333333332 214.29409415175655, 18.014666666666667 214.26209415175657, 18.107999999999997 214.23809415175657 C 18.20133333333333 214.21409415175657, 18.301333333333332 214.20209415175657, 18.407999999999998 214.20209415175657 C 18.773333333333333 214.20209415175657, 19.047333333333334 214.3174274850899, 19.23 214.54809415175657 C 19.412666666666667 214.77876081842325, 19.514666666666663 215.09276081842324, 19.535999999999998 215.49009415175655 C 19.546666666666667 215.65009415175655, 19.55333333333333 215.8087608184232, 19.555999999999997 215.96609415175655 C 19.558666666666664 216.1234274850899, 19.557333333333332 216.2767608184232, 19.552 216.42609415175656 C 19.546666666666667 216.5754274850899, 19.538666666666668 216.7154274850899, 19.528 216.84609415175657 C 19.482666666666667 217.34476081842325, 19.353333333333335 217.71009415175655, 19.14 217.94209415175655 C 18.926666666666666 218.17409415175655, 18.581333333333333 218.30476081842323, 18.104 218.33409415175657 L 18.104 217.44209415175655 C 18.21333333333333 217.41276081842324, 18.296 217.36009415175658, 18.352 217.28409415175656 C 18.408 217.20809415175654, 18.44 217.1087608184232, 18.448 216.98609415175656 C 18.471999999999998 216.6954274850899, 18.485999999999997 216.43409415175657, 18.49 216.20209415175657 C 18.494 215.97009415175657, 18.485333333333333 215.74876081842325, 18.464 215.53809415175655 C 18.447999999999997 215.3834274850899, 18.396666666666665 215.26809415175654, 18.31 215.19209415175655 C 18.223333333333333 215.11609415175656, 18.090666666666664 215.07809415175655, 17.912 215.07809415175657 C 17.901333333333334 215.07809415175655, 17.890666666666668 215.0794274850899, 17.88 215.08209415175656 C 17.86933333333333 215.08476081842323, 17.86 215.0874274850899, 17.852 215.09009415175657 Z M 17.852 212.79809415175657 L 17.852 211.86609415175656 L 19.439999999999998 211.86609415175656 L 19.439999999999998 212.79809415175657 Z M 21.944 218.26609415175656 L 21.944 211.86609415175656 L 23.003999999999998 211.86609415175656 L 23.003999999999998 218.26609415175656 Z " stroke="none" fill-rule="nonzero" fill="#000000" fill-opacity="1" transform="matrix(1,0,0,1,5.05,13.314)" id="text25 l" />
  <path d="M 0 213.02849146170635 L 10 213.02849146170635 L 10 214.52849146170635 L 0 214.52849146170635 Z " stroke="none" fill-rule="evenodd" fill="#000000" fill-opacity="1" transform="matrix(1,0,0,1,5.05,13.314)" id="mark26 l" />
  <path d="M 0 206.7408887716562 L 10 206.7408887716562 L 10 208.2408887716562 L 0 208.2408887716562 Z " stroke="none" fill-rule="evenodd" fill="#000000" fill-opacity="1" transform="matrix(1,0,0,1,5.05,13.314)" id="mark27 l" />
  <path d="M 0 200.453286081606 L 10 200.453286081606 L 10 201.953286081606 L 0 201.953286081606 Z " stroke="none" fill-rule="evenodd" fill="#000000" fill-opacity="1" transform="matrix(1,0,0,1,5.05,13.314)" id="mark28 l" />
  <path d="M 0 194.1656833915558 L 10 194.1656833915558 L 10 195.6656833915558 L 0 195.6656833915558 Z " stroke="none" fill-rule="evenodd" fill="#000000" fill-opacity="1" transform="matrix(1,0,0,1,5.05,13.314)" id="mark29 l" />
  <path d="M 0 187.8780807015056 L 25 187.8780807015056 L 25 189.3780807015056 L 0 189.3780807015056 Z " stroke="none" fill-rule="evenodd" fill="#000000" fill-opacity="1" transform="matrix(1,0,0,1,5.05,13.314)" id="mark30 l" />
  <path d="M 12.223999999999998 185.41208070150563 C 12.221333333333334 185.3107473681723, 12.219333333333333 185.22674736817228, 12.218 185.16008070150562 C 12.216666666666667 185.09341403483896, 12.216666666666667 185.02541403483895, 12.218 184.95608070150564 C 12.219333333333333 184.88674736817228, 12.221333333333334 184.79741403483897, 12.223999999999998 184.68808070150564 L 13.303999999999998 184.68808070150564 L 13.303999999999998 185.55208070150562 C 13.303999999999998 185.78941403483896, 13.417333333333332 185.94008070150562, 13.643999999999998 186.00408070150561 L 13.643999999999998 186.89608070150564 C 13.155999999999999 186.8587473681723, 12.800666666666665 186.7240807015056, 12.578 186.4920807015056 C 12.355333333333334 186.26008070150561, 12.237333333333332 185.90008070150563, 12.223999999999998 185.41208070150563 Z M 12.292 181.36008070150564 L 12.292 180.42808070150562 L 15.536 180.42808070150562 L 15.536 181.36008070150564 Z M 14.143999999999998 186.00808070150563 C 14.367999999999999 185.95208070150562, 14.483999999999998 185.80141403483896, 14.491999999999999 185.55608070150564 C 14.497333333333334 185.35341403483898, 14.500666666666666 185.1707473681723, 14.501999999999999 185.00808070150563 C 14.503333333333332 184.84541403483897, 14.498666666666665 184.68808070150564, 14.488 184.53608070150563 C 14.48 184.3787473681723, 14.431999999999999 184.24541403483897, 14.344 184.13608070150562 C 14.256 184.0267473681723, 14.089333333333332 183.9747473681723, 13.844 183.9800807015056 L 13.096 183.98808070150562 L 13.068 183.09608070150563 L 14.027999999999999 181.7120807015056 L 15.216 181.7120807015056 L 14.248 183.06408070150562 L 14.28 183.06408070150562 C 14.712 183.06408070150562, 15.028666666666666 183.1867473681723, 15.229999999999999 183.43208070150564 C 15.431333333333333 183.67741403483896, 15.544 184.0547473681723, 15.568 184.56408070150562 C 15.57333333333333 184.63608070150562, 15.576666666666664 184.70808070150562, 15.578 184.78008070150563 C 15.57933333333333 184.85208070150563, 15.579999999999998 184.92274736817228, 15.579999999999998 184.9920807015056 C 15.579999999999998 185.06141403483895, 15.57933333333333 185.13074736817228, 15.578 185.2000807015056 C 15.576666666666664 185.26941403483895, 15.57333333333333 185.34008070150563, 15.568 185.41208070150563 C 15.549333333333333 185.90808070150564, 15.428666666666665 186.2727473681723, 15.206 186.50608070150562 C 14.983333333333334 186.73941403483894, 14.630666666666666 186.86941403483897, 14.148 186.89608070150564 Z M 16.196 185.41608070150562 C 16.188000000000002 184.98674736817227, 16.182666666666666 184.57008070150562, 16.18 184.16608070150562 C 16.177333333333333 183.76208070150562, 16.177999999999997 183.3667473681723, 16.182 182.9800807015056 C 16.186 182.59341403483896, 16.190666666666665 182.21208070150564, 16.196 181.83608070150564 C 16.209333333333333 181.39608070150564, 16.334000000000003 181.05074736817232, 16.57 180.80008070150564 C 16.805999999999997 180.54941403483895, 17.142666666666663 180.40408070150562, 17.58 180.36408070150563 L 17.58 181.25208070150563 C 17.382666666666665 181.30808070150562, 17.281333333333333 181.43741403483898, 17.276 181.64008070150564 C 17.262666666666668 182.0107473681723, 17.253333333333334 182.3587473681723, 17.248 182.68408070150562 C 17.242666666666665 183.00941403483895, 17.24 183.32608070150562, 17.24 183.63408070150564 C 17.24 183.94208070150563, 17.242666666666665 184.25674736817228, 17.248 184.57808070150563 C 17.253333333333334 184.89941403483897, 17.262666666666668 185.24274736817227, 17.276 185.60808070150563 C 17.281333333333333 185.81608070150565, 17.382666666666665 185.94808070150563, 17.58 186.00408070150561 L 17.58 186.89208070150562 C 17.142666666666663 186.8520807015056, 16.805999999999997 186.7060807015056, 16.57 186.45408070150563 C 16.334000000000003 186.20208070150562, 16.209333333333333 185.85608070150562, 16.196 185.41608070150562 Z M 18.084 186.89208070150562 L 18.084 186.00008070150562 C 18.268 185.9467473681723, 18.366666666666667 185.82274736817232, 18.38 185.62808070150564 C 18.398666666666667 185.16141403483897, 18.410666666666668 184.7127473681723, 18.416 184.28208070150563 C 18.421333333333333 183.85141403483897, 18.421333333333333 183.4207473681723, 18.416 182.99008070150563 C 18.410666666666668 182.55941403483897, 18.398666666666667 182.1067473681723, 18.38 181.63208070150563 C 18.374666666666666 181.43741403483898, 18.276 181.31074736817231, 18.084 181.25208070150563 L 18.084 180.36408070150563 C 18.513333333333335 180.40408070150562, 18.846666666666668 180.54941403483895, 19.084 180.80008070150564 C 19.321333333333335 181.05074736817232, 19.445333333333334 181.39608070150564, 19.456 181.83608070150564 C 19.46666666666667 182.1507473681723, 19.474666666666668 182.4607473681723, 19.48 182.76608070150562 C 19.485333333333333 183.07141403483894, 19.488 183.3720807015056, 19.488 183.66808070150563 C 19.488 183.96408070150562, 19.485333333333333 184.25741403483894, 19.48 184.54808070150563 C 19.474666666666668 184.8387473681723, 19.46666666666667 185.12808070150564, 19.456 185.41608070150562 C 19.439999999999998 185.8667473681723, 19.311999999999998 186.21541403483897, 19.072 186.4620807015056 C 18.832 186.70874736817228, 18.502666666666666 186.8520807015056, 18.084 186.89208070150562 Z M 21.944 186.82808070150563 L 21.944 180.42808070150562 L 23.003999999999998 180.42808070150562 L 23.003999999999998 186.82808070150563 Z " stroke="none" fill-rule="nonzero" fill="#000000" fill-opacity="1" transform="matrix(1,0,0,1,5.05,13.314)" id="text30 l" />
  <path d="M 0 181.59047801145542 L 10 181.59047801145542 L 10 183.09047801145542 L 0 183.09047801145542 Z " stroke="none" fill-rule="evenodd" fill="#000000" fill-opacity="1" transform="matrix(1,0,0,1,5.05,13.314)" id="mark31 l" />
  <path d="M 0 175.30287532140525 L 10 175.30287532140525 L 10 176.80287532140525 L 0 176.80287532140525 Z " stroke="none" fill-rule="evenodd" fill="#000000" fill-opacity="1" transform="matrix(1,0,0,1,5.05,13.314)" id="mark32 l" />
  <path d="M 0 169.01527263135506 L 10 169.01527263135506 L 10 170.51527263135506 L 0 170.51527263135506 Z " stroke="none" fill-rule="evenodd" fill="#000000" fill-opacity="1" transform="matrix(1,0,0,1,5.05,13.314)" id="mark33 l" />
  <path d="M 0 162.72766994130487 L 10 162.72766994130487 L 10 164.22766994130487 L 0 164.22766994130487 Z " stroke="none" fill-rule="evenodd" fill="#000000" fill-opacity="1" transform="matrix(1,0,0,1,5.05,13.314)" id="mark34 l" />
  <path d="M 0 156.44006725125467 L 25 156.44006725125467 L 25 157.94006725125467 L 0 157.94006725125467 Z " stroke="none" fill-rule="evenodd" fill="#000000" fill-opacity="1" transform="matrix(1,0,0,1,5.05,13.314)" id="mark35 l" />
  <path d="M 12.232 153.94206725125468 C 12.229333333333333 153.84073391792134, 12.227333333333334 153.75673391792134, 12.226 153.69006725125467 C 12.224666666666668 153.623400584588, 12.224666666666668 153.555400584588, 12.226 153.48606725125467 C 12.227333333333334 153.41673391792133, 12.229333333333333 153.32740058458802, 12.232 153.2180672512547 L 13.312 153.2180672512547 L 13.312 154.08206725125467 C 13.312 154.319400584588, 13.425333333333333 154.47006725125468, 13.652 154.53406725125467 L 13.652 155.4260672512547 C 13.164 155.38873391792134, 12.808666666666667 155.25406725125467, 12.586 155.02206725125467 C 12.363333333333333 154.79006725125467, 12.245333333333335 154.43006725125468, 12.232 153.94206725125468 Z M 12.3 149.8900672512547 L 12.3 148.95806725125468 L 15.544 148.95806725125468 L 15.544 149.8900672512547 Z M 14.152000000000001 154.5380672512547 C 14.376000000000001 154.48206725125468, 14.492 154.331400584588, 14.5 154.0860672512547 C 14.505333333333333 153.88340058458803, 14.508666666666667 153.70073391792135, 14.51 153.5380672512547 C 14.511333333333333 153.37540058458802, 14.506666666666668 153.2180672512547, 14.496 153.06606725125468 C 14.488 152.90873391792135, 14.440000000000001 152.775400584588, 14.352 152.66606725125467 C 14.264 152.55673391792135, 14.097333333333335 152.50473391792136, 13.852 152.51006725125467 L 13.104 152.51806725125468 L 13.076 151.62606725125468 L 14.036 150.2420672512547 L 15.224 150.2420672512547 L 14.256 151.59406725125467 L 14.288 151.59406725125467 C 14.719999999999999 151.59406725125467, 15.036666666666665 151.71673391792135, 15.238 151.9620672512547 C 15.439333333333334 152.20740058458802, 15.552 152.58473391792134, 15.576 153.09406725125467 C 15.581333333333333 153.16606725125467, 15.584666666666667 153.23806725125468, 15.586 153.31006725125468 C 15.587333333333333 153.38206725125468, 15.588000000000001 153.45273391792134, 15.588000000000001 153.52206725125467 C 15.588000000000001 153.591400584588, 15.587333333333333 153.66073391792133, 15.586 153.7300672512547 C 15.584666666666667 153.799400584588, 15.581333333333333 153.87006725125468, 15.576 153.94206725125468 C 15.557333333333334 154.4380672512547, 15.436666666666667 154.80273391792136, 15.214 155.03606725125468 C 14.991333333333333 155.269400584588, 14.638666666666666 155.39940058458802, 14.156 155.4260672512547 Z M 16.18 153.94206725125468 C 16.174666666666667 153.76873391792137, 16.173333333333332 153.62940058458804, 16.176 153.52406725125468 C 16.178666666666665 153.41873391792137, 16.181333333333335 153.31673391792137, 16.183999999999997 153.2180672512547 L 17.264 153.2180672512547 C 17.256 153.295400584588, 17.25 153.391400584588, 17.246 153.50606725125468 C 17.241999999999997 153.62073391792134, 17.240666666666666 153.73140058458802, 17.241999999999997 153.83806725125467 C 17.243333333333332 153.94473391792133, 17.246666666666666 154.02473391792134, 17.252 154.07806725125468 C 17.262666666666668 154.19806725125468, 17.297333333333334 154.29606725125467, 17.355999999999998 154.3720672512547 C 17.414666666666665 154.44806725125466, 17.497333333333334 154.50206725125466, 17.604 154.53406725125467 L 17.604 155.4260672512547 C 17.110666666666663 155.38873391792134, 16.75333333333333 155.25406725125467, 16.532 155.02206725125467 C 16.310666666666666 154.79006725125467, 16.19333333333333 154.43006725125468, 16.18 153.94206725125468 Z M 16.279999999999998 152.60606725125467 L 16.279999999999998 148.95806725125468 L 17.348 148.95806725125468 L 17.348 152.60606725125467 Z M 17.852 152.1820672512547 L 17.852 151.4260672512547 C 17.929333333333332 151.3860672512547, 18.014666666666667 151.3540672512547, 18.107999999999997 151.3300672512547 C 18.20133333333333 151.3060672512547, 18.301333333333332 151.2940672512547, 18.407999999999998 151.2940672512547 C 18.773333333333333 151.2940672512547, 19.047333333333334 151.409400584588, 19.23 151.6400672512547 C 19.412666666666667 151.87073391792134, 19.514666666666663 152.18473391792133, 19.535999999999998 152.58206725125467 C 19.546666666666667 152.74206725125467, 19.55333333333333 152.90073391792134, 19.555999999999997 153.05806725125467 C 19.558666666666664 153.21540058458802, 19.557333333333332 153.36873391792136, 19.552 153.51806725125468 C 19.546666666666667 153.667400584588, 19.538666666666668 153.807400584588, 19.528 153.9380672512547 C 19.482666666666667 154.43673391792134, 19.353333333333335 154.8020672512547, 19.14 155.03406725125467 C 18.926666666666666 155.2660672512547, 18.581333333333333 155.39673391792135, 18.104 155.4260672512547 L 18.104 154.53406725125467 C 18.21333333333333 154.50473391792136, 18.296 154.45206725125468, 18.352 154.37606725125468 C 18.408 154.3000672512547, 18.44 154.20073391792135, 18.448 154.07806725125468 C 18.471999999999998 153.787400584588, 18.485999999999997 153.5260672512547, 18.49 153.2940672512547 C 18.494 153.0620672512547, 18.485333333333333 152.84073391792134, 18.464 152.63006725125467 C 18.447999999999997 152.475400584588, 18.396666666666665 152.36006725125466, 18.31 152.28406725125467 C 18.223333333333333 152.20806725125468, 18.090666666666664 152.1700672512547, 17.912 152.1700672512547 C 17.901333333333334 152.1700672512547, 17.890666666666668 152.171400584588, 17.88 152.17406725125468 C 17.86933333333333 152.17673391792135, 17.86 152.17940058458802, 17.852 152.1820672512547 Z M 17.852 149.8900672512547 L 17.852 148.95806725125468 L 19.439999999999998 148.95806725125468 L 19.439999999999998 149.8900672512547 Z M 21.944 155.35806725125468 L 21.944 148.95806725125468 L 23.003999999999998 148.95806725125468 L 23.003999999999998 155.35806725125468 Z " stroke="none" fill-rule="nonzero" fill="#000000" fill-opacity="1" transform="matrix(1,0,0,1,5.05,13.314)" id="text35 l" />
  <path d="M 0 150.15246456120448 L 10 150.15246456120448 L 10 151.65246456120448 L 0 151.65246456120448 Z " stroke="none" fill-rule="evenodd" fill="#000000" fill-opacity="1" transform="matrix(1,0,0,1,5.05,13.314)" id="mark36 l" />
  <path d="M 0 143.86486187115432 L 10 143.86486187115432 L 10 145.36486187115432 L 0 145.36486187115432 Z " stroke="none" fill-rule="evenodd" fill="#000000" fill-opacity="1" transform="matrix(1,0,0,1,5.05,13.314)" id="mark37 l" />
  <path d="M 0 137.57725918110413 L 10 137.57725918110413 L 10 139.07725918110413 L 0 139.07725918110413 Z " stroke="none" fill-rule="evenodd" fill="#000000" fill-opacity="1" transform="matrix(1,0,0,1,5.05,13.314)" id="mark38 l" />
  <path d="M 0 131.28965649105393 L 10 131.28965649105393 L 10 132.78965649105393 L 0 132.78965649105393 Z " stroke="none" fill-rule="evenodd" fill="#000000" fill-opacity="1" transform="matrix(1,0,0,1,5.05,13.314)" id="mark39 l" />
  <path d="M 0 125.00205380100374 L 25 125.00205380100374 L 25 126.50205380100374 L 0 126.50205380100374 Z " stroke="none" fill-rule="evenodd" fill="#000000" fill-opacity="1" transform="matrix(1,0,0,1,5.05,13.314)" id="mark40 l" />
  <path d="M 11.739999999999998 122.26805380100375 L 11.739999999999998 121.39205380100374 L 12.455999999999998 119.51205380100374 L 13.495999999999999 119.51205380100374 L 12.771999999999998 121.34405380100374 L 13.171999999999997 121.34405380100374 L 13.171999999999997 122.26805380100375 Z M 13.675999999999998 123.95205380100374 L 13.675999999999998 117.55205380100374 L 14.683999999999997 117.55205380100374 L 14.683999999999997 123.95205380100374 Z M 15.187999999999999 122.26805380100375 L 15.187999999999999 121.34405380100374 L 15.655999999999999 121.34405380100374 L 15.655999999999999 122.26805380100375 Z M 16.195999999999998 122.54005380100374 C 16.188 122.1107204676704, 16.182666666666666 121.69405380100375, 16.18 121.29005380100374 C 16.177333333333333 120.88605380100374, 16.177999999999997 120.4907204676704, 16.182 120.10405380100374 C 16.186 119.71738713433709, 16.190666666666665 119.33605380100374, 16.195999999999998 118.96005380100374 C 16.20933333333333 118.52005380100374, 16.333999999999996 118.17472046767041, 16.569999999999997 117.92405380100374 C 16.805999999999997 117.67338713433708, 17.142666666666663 117.52805380100375, 17.58 117.48805380100374 L 17.58 118.37605380100375 C 17.382666666666665 118.43205380100375, 17.281333333333333 118.56138713433707, 17.275999999999996 118.76405380100374 C 17.262666666666664 119.1347204676704, 17.25333333333333 119.4827204676704, 17.247999999999998 119.80805380100374 C 17.242666666666665 120.13338713433707, 17.24 120.45005380100375, 17.24 120.75805380100374 C 17.24 121.06605380100373, 17.242666666666665 121.38072046767041, 17.247999999999998 121.70205380100374 C 17.25333333333333 122.02338713433707, 17.262666666666664 122.3667204676704, 17.275999999999996 122.73205380100374 C 17.281333333333333 122.94005380100376, 17.382666666666665 123.07205380100375, 17.58 123.12805380100374 L 17.58 124.01605380100374 C 17.142666666666663 123.97605380100376, 16.805999999999997 123.83005380100374, 16.569999999999997 123.57805380100375 C 16.333999999999996 123.32605380100375, 16.20933333333333 122.98005380100375, 16.195999999999998 122.54005380100374 Z M 18.084 124.01605380100374 L 18.084 123.12405380100374 C 18.268 123.07072046767041, 18.366666666666667 122.94672046767042, 18.38 122.75205380100374 C 18.398666666666664 122.28538713433707, 18.410666666666664 121.8367204676704, 18.415999999999997 121.40605380100374 C 18.42133333333333 120.97538713433707, 18.42133333333333 120.54472046767042, 18.415999999999997 120.11405380100375 C 18.410666666666664 119.68338713433708, 18.398666666666664 119.23072046767041, 18.38 118.75605380100374 C 18.374666666666666 118.56138713433708, 18.276 118.43472046767042, 18.084 118.37605380100375 L 18.084 117.48805380100374 C 18.513333333333332 117.52805380100375, 18.846666666666664 117.67338713433708, 19.083999999999996 117.92405380100374 C 19.32133333333333 118.17472046767041, 19.44533333333333 118.52005380100374, 19.456 118.96005380100374 C 19.466666666666665 119.27472046767042, 19.474666666666664 119.58472046767042, 19.479999999999997 119.89005380100375 C 19.48533333333333 120.19538713433707, 19.488 120.49605380100374, 19.488 120.79205380100375 C 19.488 121.08805380100375, 19.48533333333333 121.38138713433707, 19.479999999999997 121.67205380100374 C 19.474666666666664 121.96272046767041, 19.466666666666665 122.25205380100374, 19.456 122.54005380100374 C 19.439999999999998 122.9907204676704, 19.311999999999998 123.33938713433707, 19.072 123.58605380100374 C 18.831999999999997 123.83272046767041, 18.502666666666663 123.97605380100376, 18.084 124.01605380100374 Z M 21.944 123.95205380100374 L 21.944 117.55205380100374 L 23.003999999999998 117.55205380100374 L 23.003999999999998 123.95205380100374 Z " stroke="none" fill-rule="nonzero" fill="#000000" fill-opacity="1" transform="matrix(1,0,0,1,5.05,13.314)" id="text40 l" />
  <path d="M 0 118.71445111095358 L 10 118.71445111095358 L 10 120.21445111095358 L 0 120.21445111095358 Z " stroke="none" fill-rule="evenodd" fill="#000000" fill-opacity="1" transform="matrix(1,0,0,1,5.05,13.314)" id="mark41 l" />
  <path d="M 0 112.42684842090335 L 10 112.42684842090335 L 10 113.92684842090335 L 0 113.92684842090335 Z " stroke="none" fill-rule="evenodd" fill="#000000" fill-opacity="1" transform="matrix(1,0,0,1,5.05,13.314)" id="mark42 l" />
  <path d="M 0 106.13924573085319 L 10 106.13924573085319 L 10 107.63924573085319 L 0 107.63924573085319 Z " stroke="none" fill-rule="evenodd" fill="#000000" fill-opacity="1" transform="matrix(1,0,0,1,5.05,13.314)" id="mark43 l" />
  <path d="M 0 99.85164304080297 L 10 99.85164304080297 L 10 101.35164304080297 L 0 101.35164304080297 Z " stroke="none" fill-rule="evenodd" fill="#000000" fill-opacity="1" transform="matrix(1,0,0,1,5.05,13.314)" id="mark44 l" />
  <path d="M 0 93.5640403507528 L 25 93.5640403507528 L 25 95.0640403507528 L 0 95.0640403507528 Z " stroke="none" fill-rule="evenodd" fill="#000000" fill-opacity="1" transform="matrix(1,0,0,1,5.05,13.314)" id="mark45 l" />
  <path d="M 11.748 90.79804035075281 L 11.748 89.92204035075281 L 12.463999999999999 88.04204035075281 L 13.503999999999998 88.04204035075281 L 12.78 89.87404035075281 L 13.18 89.87404035075281 L 13.18 90.79804035075281 Z M 13.684 92.48204035075281 L 13.684 86.0820403507528 L 14.691999999999998 86.0820403507528 L 14.691999999999998 92.48204035075281 Z M 15.195999999999998 90.79804035075281 L 15.195999999999998 89.87404035075281 L 15.663999999999998 89.87404035075281 L 15.663999999999998 90.79804035075281 Z M 16.18 91.06604035075281 C 16.174666666666667 90.89270701741948, 16.173333333333332 90.75337368408614, 16.176 90.64804035075281 C 16.178666666666665 90.54270701741947, 16.181333333333335 90.44070701741947, 16.183999999999997 90.34204035075281 L 17.264 90.34204035075281 C 17.256 90.41937368408614, 17.25 90.51537368408614, 17.246 90.63004035075281 C 17.241999999999997 90.74470701741947, 17.240666666666666 90.85537368408615, 17.241999999999997 90.96204035075282 C 17.243333333333332 91.06870701741948, 17.246666666666666 91.14870701741948, 17.252 91.20204035075281 C 17.262666666666668 91.32204035075281, 17.297333333333334 91.42004035075281, 17.355999999999998 91.4960403507528 C 17.414666666666665 91.57204035075281, 17.497333333333334 91.62604035075282, 17.604 91.65804035075281 L 17.604 92.55004035075281 C 17.110666666666663 92.51270701741947, 16.75333333333333 92.37804035075281, 16.532 92.14604035075281 C 16.310666666666666 91.91404035075281, 16.19333333333333 91.55404035075281, 16.18 91.06604035075281 Z M 16.279999999999998 89.73004035075282 L 16.279999999999998 86.0820403507528 L 17.348 86.0820403507528 L 17.348 89.73004035075282 Z M 17.852 89.30604035075281 L 17.852 88.55004035075281 C 17.929333333333332 88.5100403507528, 18.014666666666667 88.4780403507528, 18.107999999999997 88.4540403507528 C 18.20133333333333 88.43004035075282, 18.301333333333332 88.41804035075282, 18.407999999999998 88.41804035075282 C 18.773333333333333 88.41804035075282, 19.047333333333334 88.53337368408614, 19.23 88.76404035075281 C 19.412666666666667 88.99470701741947, 19.514666666666663 89.30870701741948, 19.535999999999998 89.70604035075282 C 19.546666666666667 89.86604035075281, 19.55333333333333 90.02470701741947, 19.555999999999997 90.18204035075281 C 19.558666666666664 90.33937368408615, 19.557333333333332 90.49270701741948, 19.552 90.64204035075281 C 19.546666666666667 90.79137368408614, 19.538666666666668 90.93137368408614, 19.528 91.06204035075281 C 19.482666666666667 91.56070701741947, 19.353333333333335 91.92604035075281, 19.14 92.15804035075281 C 18.926666666666666 92.39004035075281, 18.581333333333333 92.52070701741948, 18.104 92.55004035075281 L 18.104 91.65804035075281 C 18.21333333333333 91.62870701741949, 18.296 91.57604035075282, 18.352 91.50004035075281 C 18.408 91.4240403507528, 18.44 91.32470701741947, 18.448 91.20204035075281 C 18.471999999999998 90.91137368408614, 18.485999999999997 90.65004035075282, 18.49 90.41804035075282 C 18.494 90.18604035075282, 18.485333333333333 89.96470701741947, 18.464 89.75404035075282 C 18.447999999999997 89.59937368408615, 18.396666666666665 89.48404035075282, 18.31 89.40804035075281 C 18.223333333333333 89.3320403507528, 18.090666666666664 89.29404035075281, 17.912 89.29404035075281 C 17.901333333333334 89.29404035075281, 17.890666666666668 89.29537368408614, 17.88 89.29804035075281 C 17.86933333333333 89.30070701741948, 17.86 89.30337368408614, 17.852 89.30604035075281 Z M 17.852 87.01404035075281 L 17.852 86.0820403507528 L 19.439999999999998 86.0820403507528 L 19.439999999999998 87.01404035075281 Z M 21.944 92.48204035075281 L 21.944 86.0820403507528 L 23.003999999999998 86.0820403507528 L 23.003999999999998 92.48204035075281 Z " stroke="none" fill-rule="nonzero" fill="#000000" fill-opacity="1" transform="matrix(1,0,0,1,5.05,13.314)" id="text45 l" />
  <path d="M 0 87.27643766070264 L 10 87.27643766070264 L 10 88.77643766070264 L 0 88.77643766070264 Z " stroke="none" fill-rule="evenodd" fill="#000000" fill-opacity="1" transform="matrix(1,0,0,1,5.05,13.314)" id="mark46 l" />
  <path d="M 0 80.98883497065242 L 10 80.98883497065242 L 10 82.48883497065242 L 0 82.48883497065242 Z " stroke="none" fill-rule="evenodd" fill="#000000" fill-opacity="1" transform="matrix(1,0,0,1,5.05,13.314)" id="mark47 l" />
  <path d="M 0 74.70123228060226 L 10 74.70123228060226 L 10 76.20123228060226 L 0 76.20123228060226 Z " stroke="none" fill-rule="evenodd" fill="#000000" fill-opacity="1" transform="matrix(1,0,0,1,5.05,13.314)" id="mark48 l" />
  <path d="M 0 68.41362959055203 L 10 68.41362959055203 L 10 69.91362959055203 L 0 69.91362959055203 Z " stroke="none" fill-rule="evenodd" fill="#000000" fill-opacity="1" transform="matrix(1,0,0,1,5.05,13.314)" id="mark49 l" />
  <path d="M 0 62.12602690050187 L 25 62.12602690050187 L 25 63.62602690050187 L 0 63.62602690050187 Z " stroke="none" fill-rule="evenodd" fill="#000000" fill-opacity="1" transform="matrix(1,0,0,1,5.05,13.314)" id="mark50 l" />
  <path d="M 12.204 59.660026900501876 C 12.198666666666668 59.486693567168544, 12.197333333333333 59.347360233835204, 12.2 59.24202690050187 C 12.202666666666667 59.13669356716854, 12.205333333333336 59.034693567168546, 12.208 58.93602690050187 L 13.288 58.93602690050187 C 13.280000000000001 59.0133602338352, 13.274000000000001 59.109360233835204, 13.27 59.224026900501876 C 13.265999999999998 59.33869356716855, 13.264666666666667 59.44936023383521, 13.266 59.55602690050187 C 13.267333333333333 59.66269356716854, 13.270666666666667 59.742693567168544, 13.276 59.79602690050187 C 13.286666666666665 59.916026900501876, 13.321333333333332 60.014026900501875, 13.379999999999999 60.090026900501876 C 13.438666666666666 60.166026900501876, 13.521333333333335 60.22002690050188, 13.628 60.252026900501875 L 13.628 61.14402690050187 C 13.134666666666668 61.10669356716854, 12.777333333333335 60.972026900501874, 12.556 60.740026900501874 C 12.334666666666667 60.508026900501875, 12.217333333333332 60.148026900501876, 12.204 59.660026900501876 Z M 12.304 58.32402690050187 L 12.304 54.676026900501874 L 13.372 54.676026900501874 L 13.372 58.32402690050187 Z M 13.876 57.90002690050187 L 13.876 57.14402690050187 C 13.953333333333333 57.10402690050188, 14.038666666666668 57.072026900501875, 14.132 57.048026900501874 C 14.225333333333333 57.02402690050187, 14.325333333333333 57.01202690050187, 14.432 57.01202690050187 C 14.797333333333334 57.01202690050187, 15.071333333333332 57.127360233835205, 15.254 57.35802690050187 C 15.436666666666667 57.58869356716854, 15.538666666666668 57.90269356716854, 15.56 58.30002690050188 C 15.570666666666668 58.46002690050187, 15.577333333333334 58.61869356716854, 15.58 58.776026900501876 C 15.582666666666666 58.93336023383521, 15.581333333333333 59.08669356716854, 15.576 59.23602690050187 C 15.570666666666666 59.3853602338352, 15.562666666666665 59.5253602338352, 15.552 59.65602690050187 C 15.506666666666668 60.154693567168536, 15.377333333333333 60.520026900501875, 15.164 60.752026900501875 C 14.950666666666667 60.984026900501874, 14.605333333333332 61.11469356716854, 14.128 61.14402690050187 L 14.128 60.252026900501875 C 14.237333333333334 60.222693567168534, 14.32 60.17002690050187, 14.376 60.09402690050187 C 14.432 60.018026900501866, 14.464 59.91869356716853, 14.472 59.79602690050187 C 14.495999999999999 59.505360233835205, 14.509999999999998 59.24402690050188, 14.514 59.01202690050187 C 14.518 58.78002690050188, 14.509333333333334 58.55869356716855, 14.488 58.34802690050187 C 14.472000000000001 58.19336023383521, 14.420666666666666 58.07802690050187, 14.334 58.002026900501875 C 14.247333333333334 57.92602690050187, 14.114666666666666 57.88802690050187, 13.936 57.88802690050187 C 13.925333333333333 57.88802690050187, 13.914666666666665 57.889360233835205, 13.904 57.892026900501875 C 13.893333333333334 57.894693567168545, 13.884 57.89736023383521, 13.876 57.90002690050187 Z M 13.876 55.60802690050187 L 13.876 54.676026900501874 L 15.464 54.676026900501874 L 15.464 55.60802690050187 Z M 16.196 59.664026900501874 C 16.188000000000002 59.23469356716854, 16.182666666666666 58.81802690050188, 16.18 58.414026900501874 C 16.177333333333333 58.01002690050187, 16.177999999999997 57.614693567168544, 16.182 57.228026900501874 C 16.186 56.8413602338352, 16.190666666666665 56.46002690050187, 16.196 56.084026900501875 C 16.209333333333333 55.64402690050187, 16.334000000000003 55.29869356716854, 16.57 55.048026900501874 C 16.805999999999997 54.79736023383521, 17.142666666666663 54.65202690050188, 17.58 54.612026900501874 L 17.58 55.50002690050187 C 17.382666666666665 55.55602690050188, 17.281333333333333 55.68536023383521, 17.276 55.88802690050187 C 17.262666666666668 56.258693567168535, 17.253333333333334 56.606693567168534, 17.248 56.932026900501874 C 17.242666666666665 57.2573602338352, 17.24 57.57402690050187, 17.24 57.88202690050187 C 17.24 58.19002690050187, 17.242666666666665 58.50469356716854, 17.248 58.82602690050187 C 17.253333333333334 59.14736023383521, 17.262666666666668 59.49069356716854, 17.276 59.856026900501874 C 17.281333333333333 60.06402690050187, 17.382666666666665 60.19602690050188, 17.58 60.252026900501875 L 17.58 61.14002690050187 C 17.142666666666663 61.100026900501874, 16.805999999999997 60.95402690050187, 16.57 60.70202690050187 C 16.334000000000003 60.45002690050187, 16.209333333333333 60.10402690050187, 16.196 59.664026900501874 Z M 18.084 61.14002690050187 L 18.084 60.24802690050187 C 18.268 60.19469356716854, 18.366666666666667 60.07069356716853, 18.38 59.87602690050187 C 18.398666666666667 59.4093602338352, 18.410666666666668 58.96069356716854, 18.416 58.53002690050187 C 18.421333333333333 58.099360233835206, 18.421333333333333 57.66869356716854, 18.416 57.23802690050187 C 18.410666666666668 56.807360233835205, 18.398666666666667 56.35469356716854, 18.38 55.880026900501875 C 18.374666666666666 55.685360233835205, 18.276 55.55869356716853, 18.084 55.50002690050187 L 18.084 54.612026900501874 C 18.513333333333335 54.65202690050188, 18.846666666666668 54.79736023383521, 19.084 55.048026900501874 C 19.321333333333335 55.29869356716854, 19.445333333333334 55.64402690050187, 19.456 56.084026900501875 C 19.46666666666667 56.39869356716855, 19.474666666666668 56.708693567168545, 19.48 57.014026900501875 C 19.485333333333333 57.319360233835205, 19.488 57.62002690050187, 19.488 57.916026900501876 C 19.488 58.21202690050187, 19.485333333333333 58.505360233835205, 19.48 58.79602690050187 C 19.474666666666668 59.08669356716854, 19.46666666666667 59.37602690050187, 19.456 59.664026900501874 C 19.439999999999998 60.114693567168544, 19.311999999999998 60.46336023383521, 19.072 60.71002690050187 C 18.832 60.956693567168536, 18.502666666666666 61.100026900501874, 18.084 61.14002690050187 Z M 21.944 61.07602690050187 L 21.944 54.676026900501874 L 23.003999999999998 54.676026900501874 L 23.003999999999998 61.07602690050187 Z " stroke="none" fill-rule="nonzero" fill="#000000" fill-opacity="1" transform="matrix(1,0,0,1,5.05,13.314)" id="text50 l" />
  <path d="M 0 55.838424210451706 L 10 55.838424210451706 L 10 57.338424210451706 L 0 57.338424210451706 Z " stroke="none" fill-rule="evenodd" fill="#000000" fill-opacity="1" transform="matrix(1,0,0,1,5.05,13.314)" id="mark51 l" />
  <path d="M 0 49.550821520401485 L 10 49.550821520401485 L 10 51.050821520401485 L 0 51.050821520401485 Z " stroke="none" fill-rule="evenodd" fill="#000000" fill-opacity="1" transform="matrix(1,0,0,1,5.05,13.314)" id="mark52 l" />
  <path d="M 0 43.26321883035132 L 10 43.26321883035132 L 10 44.76321883035132 L 0 44.76321883035132 Z " stroke="none" fill-rule="evenodd" fill="#000000" fill-opacity="1" transform="matrix(1,0,0,1,5.05,13.314)" id="mark53 l" />
  <path d="M 0 36.975616140301156 L 10 36.975616140301156 L 10 38.475616140301156 L 0 38.475616140301156 Z " stroke="none" fill-rule="evenodd" fill="#000000" fill-opacity="1" transform="matrix(1,0,0,1,5.05,13.314)" id="mark54 l" />
  <path d="M 0 30.688013450250935 L 25 30.688013450250935 L 25 32.188013450250935 L 0 32.188013450250935 Z " stroke="none" fill-rule="evenodd" fill="#000000" fill-opacity="1" transform="matrix(1,0,0,1,5.05,13.314)" id="mark55 l" />
  <path d="M 12.212 28.190013450250934 C 12.206666666666667 28.016680116917602, 12.205333333333332 27.87734678358427, 12.207999999999998 27.772013450250935 C 12.210666666666667 27.6666801169176, 12.213333333333335 27.5646801169176, 12.216 27.466013450250934 L 13.296 27.466013450250934 C 13.288 27.543346783584266, 13.282 27.639346783584266, 13.277999999999999 27.754013450250934 C 13.273999999999997 27.868680116917602, 13.272666666666666 27.97934678358427, 13.274 28.086013450250935 C 13.275333333333332 28.1926801169176, 13.278666666666666 28.2726801169176, 13.283999999999999 28.326013450250933 C 13.294666666666664 28.44601345025093, 13.32933333333333 28.54401345025093, 13.387999999999998 28.620013450250934 C 13.446666666666665 28.69601345025093, 13.529333333333334 28.750013450250933, 13.636 28.782013450250933 L 13.636 29.674013450250936 C 13.142666666666667 29.636680116917603, 12.785333333333334 29.502013450250935, 12.563999999999998 29.270013450250936 C 12.342666666666666 29.038013450250936, 12.225333333333332 28.678013450250933, 12.212 28.190013450250934 Z M 12.312 26.854013450250935 L 12.312 23.206013450250936 L 13.379999999999999 23.206013450250936 L 13.379999999999999 26.854013450250935 Z M 13.883999999999999 26.430013450250932 L 13.883999999999999 25.674013450250936 C 13.961333333333332 25.634013450250933, 14.046666666666667 25.602013450250936, 14.139999999999999 25.578013450250936 C 14.233333333333333 25.554013450250935, 14.333333333333332 25.542013450250934, 14.44 25.542013450250934 C 14.805333333333333 25.542013450250934, 15.07933333333333 25.657346783584266, 15.261999999999999 25.888013450250934 C 15.444666666666667 26.118680116917602, 15.546666666666667 26.432680116917602, 15.568 26.830013450250934 C 15.578666666666667 26.990013450250935, 15.585333333333333 27.148680116917603, 15.588 27.306013450250934 C 15.590666666666666 27.46334678358427, 15.589333333333332 27.6166801169176, 15.584 27.766013450250934 C 15.578666666666665 27.91534678358427, 15.570666666666664 28.05534678358427, 15.559999999999999 28.186013450250933 C 15.514666666666667 28.684680116917598, 15.385333333333332 29.05001345025093, 15.171999999999999 29.282013450250933 C 14.958666666666666 29.514013450250935, 14.613333333333332 29.644680116917602, 14.136 29.674013450250936 L 14.136 28.782013450250933 C 14.245333333333333 28.752680116917603, 14.328 28.700013450250935, 14.383999999999999 28.624013450250935 C 14.44 28.548013450250934, 14.472 28.4486801169176, 14.479999999999999 28.326013450250933 C 14.503999999999998 28.035346783584266, 14.517999999999997 27.774013450250933, 14.521999999999998 27.542013450250934 C 14.526 27.310013450250935, 14.517333333333333 27.0886801169176, 14.495999999999999 26.878013450250933 C 14.48 26.72334678358427, 14.428666666666665 26.608013450250937, 14.341999999999999 26.532013450250936 C 14.255333333333333 26.456013450250936, 14.122666666666666 26.41801345025094, 13.943999999999999 26.418013450250935 C 13.933333333333332 26.41801345025094, 13.922666666666665 26.419346783584267, 13.911999999999999 26.422013450250933 C 13.901333333333334 26.4246801169176, 13.892 26.42734678358427, 13.883999999999999 26.430013450250932 Z M 13.883999999999999 24.138013450250934 L 13.883999999999999 23.206013450250936 L 15.472 23.206013450250936 L 15.472 24.138013450250934 Z M 16.18 28.190013450250934 C 16.174666666666667 28.016680116917602, 16.173333333333332 27.87734678358427, 16.176 27.772013450250935 C 16.178666666666665 27.6666801169176, 16.181333333333335 27.5646801169176, 16.183999999999997 27.466013450250934 L 17.264 27.466013450250934 C 17.256 27.543346783584266, 17.25 27.639346783584266, 17.246 27.754013450250934 C 17.241999999999997 27.868680116917602, 17.240666666666666 27.97934678358427, 17.241999999999997 28.086013450250935 C 17.243333333333332 28.1926801169176, 17.246666666666666 28.2726801169176, 17.252 28.326013450250933 C 17.262666666666668 28.44601345025093, 17.297333333333334 28.54401345025093, 17.355999999999998 28.620013450250934 C 17.414666666666665 28.69601345025093, 17.497333333333334 28.750013450250933, 17.604 28.782013450250933 L 17.604 29.674013450250936 C 17.110666666666663 29.636680116917603, 16.75333333333333 29.502013450250935, 16.532 29.270013450250936 C 16.310666666666666 29.038013450250936, 16.19333333333333 28.678013450250933, 16.18 28.190013450250934 Z M 16.279999999999998 26.854013450250935 L 16.279999999999998 23.206013450250936 L 17.348 23.206013450250936 L 17.348 26.854013450250935 Z M 17.852 26.430013450250932 L 17.852 25.674013450250936 C 17.929333333333332 25.634013450250933, 18.014666666666667 25.602013450250936, 18.107999999999997 25.578013450250936 C 18.20133333333333 25.554013450250935, 18.301333333333332 25.542013450250934, 18.407999999999998 25.542013450250934 C 18.773333333333333 25.542013450250934, 19.047333333333334 25.657346783584266, 19.23 25.888013450250934 C 19.412666666666667 26.118680116917602, 19.514666666666663 26.432680116917602, 19.535999999999998 26.830013450250934 C 19.546666666666667 26.990013450250935, 19.55333333333333 27.148680116917603, 19.555999999999997 27.306013450250934 C 19.558666666666664 27.46334678358427, 19.557333333333332 27.6166801169176, 19.552 27.766013450250934 C 19.546666666666667 27.91534678358427, 19.538666666666668 28.05534678358427, 19.528 28.186013450250933 C 19.482666666666667 28.684680116917598, 19.353333333333335 29.05001345025093, 19.14 29.282013450250933 C 18.926666666666666 29.514013450250935, 18.581333333333333 29.644680116917602, 18.104 29.674013450250936 L 18.104 28.782013450250933 C 18.21333333333333 28.752680116917603, 18.296 28.700013450250935, 18.352 28.624013450250935 C 18.408 28.548013450250934, 18.44 28.4486801169176, 18.448 28.326013450250933 C 18.471999999999998 28.035346783584266, 18.485999999999997 27.774013450250933, 18.49 27.542013450250934 C 18.494 27.310013450250935, 18.485333333333333 27.0886801169176, 18.464 26.878013450250933 C 18.447999999999997 26.72334678358427, 18.396666666666665 26.608013450250937, 18.31 26.532013450250936 C 18.223333333333333 26.456013450250936, 18.090666666666664 26.41801345025094, 17.912 26.418013450250935 C 17.901333333333334 26.41801345025094, 17.890666666666668 26.419346783584267, 17.88 26.422013450250933 C 17.86933333333333 26.4246801169176, 17.86 26.42734678358427, 17.852 26.430013450250932 Z M 17.852 24.138013450250934 L 17.852 23.206013450250936 L 19.439999999999998 23.206013450250936 L 19.439999999999998 24.138013450250934 Z M 21.944 29.606013450250934 L 21.944 23.206013450250936 L 23.003999999999998 23.206013450250936 L 23.003999999999998 29.606013450250934 Z " stroke="none" fill-rule="nonzero" fill="#000000" fill-opacity="1" transform="matrix(1,0,0,1,5.05,13.314)" id="text55 l" />
  <path d="M 0 24.40041076020077 L 10 24.40041076020077 L 10 25.90041076020077 L 0 25.90041076020077 Z " stroke="none" fill-rule="evenodd" fill="#000000" fill-opacity="1" transform="matrix(1,0,0,1,5.05,13.314)" id="mark56 l" />
  <path d="M 0 18.11280807015055 L 10 18.11280807015055 L 10 19.61280807015055 L 0 19.61280807015055 Z " stroke="none" fill-rule="evenodd" fill="#000000" fill-opacity="1" transform="matrix(1,0,0,1,5.05,13.314)" id="mark57 l" />
  <path d="M 0 11.825205380100385 L 10 11.825205380100385 L 10 13.325205380100385 L 0 13.325205380100385 Z " stroke="none" fill-rule="evenodd" fill="#000000" fill-opacity="1" transform="matrix(1,0,0,1,5.05,13.314)" id="mark58 l" />
  <path d="M 0 5.537602690050221 L 10 5.537602690050221 L 10 7.037602690050221 L 0 7.037602690050221 Z " stroke="none" fill-rule="evenodd" fill="#000000" fill-opacity="1" transform="matrix(1,0,0,1,5.05,13.314)" id="mark59 l" />
  <path d="M 0 -0.75 L 25 -0.75 L 25 0.75 L 0 0.75 Z " stroke="none" fill-rule="evenodd" fill="#000000" fill-opacity="1" transform="matrix(1,0,0,1,5.05,13.314)" id="mark60 l" />
  <path d="M 12.264 -3.2159999999999997 C 12.261333333333333 -3.4799999999999995, 12.258 -3.7573333333333334, 12.254 -4.048 C 12.25 -4.338666666666667, 12.248 -4.637333333333333, 12.248 -4.944 C 12.248 -5.250666666666667, 12.249333333333333 -5.558666666666666, 12.251999999999999 -5.867999999999999 C 12.254666666666665 -6.1773333333333325, 12.258666666666667 -6.485333333333333, 12.264 -6.792 C 12.271999999999998 -7.256, 12.397333333333332 -7.6080000000000005, 12.639999999999999 -7.848 C 12.882666666666665 -8.088000000000001, 13.215999999999998 -8.226666666666667, 13.639999999999999 -8.264 L 13.639999999999999 -7.372 C 13.543999999999997 -7.347999999999999, 13.470666666666665 -7.303999999999999, 13.419999999999998 -7.239999999999999 C 13.369333333333332 -7.176, 13.343999999999998 -7.090666666666667, 13.344 -6.984 C 13.335999999999999 -6.496, 13.330666666666666 -6.029333333333334, 13.328 -5.584 C 13.325333333333333 -5.1386666666666665, 13.323999999999998 -4.705333333333334, 13.323999999999998 -4.284 C 13.323999999999998 -3.8626666666666667, 13.328 -3.4480000000000004, 13.335999999999999 -3.04 C 13.335999999999999 -2.9306666666666668, 13.363333333333333 -2.841333333333333, 13.418 -2.772 C 13.472666666666665 -2.7026666666666666, 13.549333333333333 -2.653333333333333, 13.648 -2.6239999999999997 L 13.648 -1.7319999999999998 C 13.159999999999998 -1.7639999999999998, 12.809333333333331 -1.896, 12.595999999999998 -2.1279999999999997 C 12.382666666666665 -2.36, 12.271999999999998 -2.7226666666666666, 12.264 -3.2159999999999997 Z M 13.812 -4.896 L 13.812 -5.64 C 13.894666666666666 -5.688, 13.987333333333332 -5.725333333333333, 14.09 -5.752 C 14.192666666666668 -5.778666666666666, 14.301333333333332 -5.792, 14.415999999999999 -5.792 C 14.84 -5.792, 15.134 -5.692666666666666, 15.297999999999998 -5.494 C 15.462 -5.295333333333334, 15.547999999999998 -4.964, 15.556 -4.5 C 15.561333333333334 -4.316000000000001, 15.564666666666666 -4.160666666666667, 15.565999999999999 -4.034 C 15.567333333333332 -3.907333333333333, 15.567333333333332 -3.7826666666666666, 15.565999999999999 -3.6599999999999997 C 15.564666666666666 -3.5373333333333337, 15.559999999999999 -3.389333333333333, 15.552 -3.2159999999999997 C 15.527999999999999 -2.7253333333333334, 15.408 -2.3626666666666667, 15.192 -2.1279999999999997 C 14.975999999999999 -1.893333333333333, 14.628 -1.7613333333333332, 14.148 -1.7319999999999998 L 14.148 -2.6159999999999997 C 14.251999999999999 -2.6453333333333333, 14.331333333333333 -2.6933333333333334, 14.386 -2.76 C 14.440666666666665 -2.826666666666666, 14.469333333333333 -2.913333333333333, 14.472 -3.0199999999999996 C 14.477333333333332 -3.174666666666666, 14.481333333333332 -3.313333333333333, 14.483999999999998 -3.436 C 14.486666666666666 -3.558666666666667, 14.489333333333335 -3.676, 14.491999999999999 -3.788 C 14.494666666666667 -3.9, 14.495333333333333 -4.011333333333333, 14.494 -4.122 C 14.492666666666667 -4.232666666666667, 14.489333333333333 -4.349333333333333, 14.483999999999998 -4.4719999999999995 C 14.481333333333332 -4.621333333333333, 14.429333333333332 -4.732, 14.328 -4.804 C 14.226666666666665 -4.876, 14.094666666666665 -4.912, 13.931999999999999 -4.912 C 13.913333333333334 -4.912, 13.894 -4.911333333333333, 13.873999999999999 -4.91 C 13.854 -4.908666666666667, 13.833333333333332 -4.904, 13.812 -4.896 Z M 14.44 -6.216 C 14.448 -6.309333333333333, 14.452666666666666 -6.391333333333333, 14.453999999999999 -6.462 C 14.455333333333332 -6.532666666666667, 14.454666666666665 -6.6080000000000005, 14.451999999999998 -6.688 C 14.449333333333332 -6.768000000000001, 14.445333333333334 -6.866666666666667, 14.44 -6.984 C 14.434666666666665 -7.082666666666666, 14.407999999999998 -7.165999999999999, 14.36 -7.233999999999999 C 14.311999999999998 -7.302, 14.238666666666665 -7.347999999999999, 14.139999999999999 -7.372 L 14.139999999999999 -8.26 C 14.577333333333332 -8.219999999999999, 14.911333333333332 -8.075333333333333, 15.142 -7.826 C 15.372666666666667 -7.576666666666666, 15.495999999999999 -7.2493333333333325, 15.511999999999999 -6.843999999999999 C 15.514666666666667 -6.777333333333333, 15.516666666666666 -6.7139999999999995, 15.517999999999999 -6.654 C 15.519333333333332 -6.594, 15.519333333333332 -6.53, 15.517999999999999 -6.462 C 15.516666666666666 -6.393999999999999, 15.514666666666667 -6.311999999999999, 15.511999999999999 -6.216 Z M 16.196 -3.2119999999999997 C 16.188000000000002 -3.641333333333333, 16.182666666666666 -4.058, 16.18 -4.462 C 16.177333333333333 -4.866, 16.177999999999997 -5.261333333333333, 16.182 -5.648 C 16.186 -6.034666666666666, 16.190666666666665 -6.416, 16.196 -6.792 C 16.209333333333333 -7.231999999999999, 16.334000000000003 -7.577333333333334, 16.57 -7.828 C 16.805999999999997 -8.078666666666667, 17.142666666666663 -8.224, 17.58 -8.264 L 17.58 -7.3759999999999994 C 17.382666666666665 -7.32, 17.281333333333333 -7.190666666666667, 17.276 -6.9879999999999995 C 17.262666666666668 -6.617333333333333, 17.253333333333334 -6.269333333333333, 17.248 -5.944 C 17.242666666666665 -5.618666666666666, 17.24 -5.302, 17.24 -4.994 C 17.24 -4.686, 17.242666666666665 -4.371333333333333, 17.248 -4.05 C 17.253333333333334 -3.7286666666666664, 17.262666666666668 -3.3853333333333326, 17.276 -3.0199999999999996 C 17.281333333333333 -2.812, 17.382666666666665 -2.6799999999999997, 17.58 -2.6239999999999997 L 17.58 -1.7359999999999998 C 17.142666666666663 -1.7759999999999998, 16.805999999999997 -1.9219999999999997, 16.57 -2.174 C 16.334000000000003 -2.4259999999999997, 16.209333333333333 -2.772, 16.196 -3.2119999999999997 Z M 18.084 -1.7359999999999998 L 18.084 -2.6279999999999997 C 18.268 -2.681333333333333, 18.366666666666667 -2.8053333333333335, 18.38 -3 C 18.398666666666667 -3.4666666666666663, 18.410666666666668 -3.915333333333333, 18.416 -4.346 C 18.421333333333333 -4.776666666666666, 18.421333333333333 -5.207333333333333, 18.416 -5.638 C 18.410666666666668 -6.068666666666666, 18.398666666666667 -6.521333333333333, 18.38 -6.9959999999999996 C 18.374666666666666 -7.190666666666667, 18.276 -7.317333333333334, 18.084 -7.3759999999999994 L 18.084 -8.264 C 18.513333333333335 -8.224, 18.846666666666668 -8.078666666666667, 19.084 -7.828 C 19.321333333333335 -7.577333333333334, 19.445333333333334 -7.231999999999999, 19.456 -6.792 C 19.46666666666667 -6.477333333333332, 19.474666666666668 -6.167333333333333, 19.48 -5.861999999999999 C 19.485333333333333 -5.556666666666667, 19.488 -5.256, 19.488 -4.96 C 19.488 -4.664, 19.485333333333333 -4.370666666666667, 19.48 -4.08 C 19.474666666666668 -3.7893333333333334, 19.46666666666667 -3.5, 19.456 -3.2119999999999997 C 19.439999999999998 -2.761333333333333, 19.311999999999998 -2.4126666666666665, 19.072 -2.166 C 18.832 -1.9193333333333331, 18.502666666666666 -1.7759999999999998, 18.084 -1.7359999999999998 Z M 21.944 -1.7999999999999998 L 21.944 -8.2 L 23.003999999999998 -8.2 L 23.003999999999998 -1.7999999999999998 Z " stroke="none" fill-rule="nonzero" fill="#000000" fill-opacity="1" transform="matrix(1,0,0,1,5.05,13.314)" id="text60 l" />
  <path d="M -5 -13.264 L 30 -13.264 L 30 377.736558712961 L -5 377.736558712961 Z " stroke="#FF0000" stroke-opacity="1" stroke-width="0.1" stroke-linecap="butt" stroke-linejoin="miter" fill="none" transform="matrix(1,0,0,1,5.05,13.314)" />
</svg>