<?xml version="1.0" encoding="UTF-8"?>
<svg xmlns:xlink="http://www.w3.org/1999/xlink" viewBox="0 0 35.1 330.35209491551956" version="1.1" style="font-synthesis: none;" width="35.1mm" height="330.35209491551956mm" xmlns="http://www.w3.org/2000/svg">
  <defs />
  <style>	</style>
  <path d="M 0 0 L 35.1 0 L 35.1 330.35209491551956 L 0 330.35209491551956 Z " stroke="none" fill-rule="nonzero" fill="#FFFFFF" fill-opacity="1" transform="matrix(1,0,0,1,0,0)" />
  <path d="M 0 309.47009491551955 L 10 309.47009491551955 L 10 310.97009491551955 L 0 310.97009491551955 Z " stroke="none" fill-rule="evenodd" fill="#000000" fill-opacity="1" transform="matrix(1,0,0,1,5.05,13.314)" id="mark1 l" />
  <path d="M 0 298.7728502632603 L 10 298.7728502632603 L 10 300.2728502632603 L 0 300.2728502632603 Z " stroke="none" fill-rule="evenodd" fill="#000000" fill-opacity="1" transform="matrix(1,0,0,1,5.05,13.314)" id="mark2 l" />
  <path d="M 0 288.075605611001 L 10 288.075605611001 L 10 289.575605611001 L 0 289.575605611001 Z " stroke="none" fill-rule="evenodd" fill="#000000" fill-opacity="1" transform="matrix(1,0,0,1,5.05,13.314)" id="mark3 l" />
  <path d="M 0 277.37836095874167 L 10 277.37836095874167 L 10 278.87836095874167 L 0 278.87836095874167 Z " stroke="none" fill-rule="evenodd" fill="#000000" fill-opacity="1" transform="matrix(1,0,0,1,5.05,13.314)" id="mark4 l" />
  <path d="M 0 266.6811163064824 L 25 266.6811163064824 L 25 268.1811163064824 L 0 268.1811163064824 Z " stroke="none" fill-rule="evenodd" fill="#000000" fill-opacity="1" transform="matrix(1,0,0,1,5.05,13.314)" id="mark5 l" />
  <path d="M 16.18 264.1831163064824 C 16.174666666666667 264.0097829731491, 16.173333333333332 263.8704496398158, 16.176 263.7651163064824 C 16.178666666666665 263.65978297314905, 16.181333333333335 263.5577829731491, 16.183999999999997 263.45911630648243 L 17.264 263.45911630648243 C 17.256 263.5364496398157, 17.25 263.6324496398157, 17.246 263.74711630648244 C 17.241999999999997 263.86178297314905, 17.240666666666666 263.97244963981575, 17.241999999999997 264.07911630648243 C 17.243333333333332 264.18578297314906, 17.246666666666666 264.2657829731491, 17.252 264.31911630648244 C 17.262666666666668 264.4391163064824, 17.297333333333334 264.5371163064824, 17.355999999999998 264.6131163064824 C 17.414666666666665 264.6891163064824, 17.497333333333334 264.7431163064824, 17.604 264.7751163064824 L 17.604 265.6671163064824 C 17.110666666666663 265.6297829731491, 16.75333333333333 265.49511630648243, 16.532 265.2631163064824 C 16.310666666666666 265.0311163064824, 16.19333333333333 264.6711163064824, 16.18 264.1831163064824 Z M 16.279999999999998 262.8471163064824 L 16.279999999999998 259.19911630648244 L 17.348 259.19911630648244 L 17.348 262.8471163064824 Z M 17.852 262.4231163064824 L 17.852 261.6671163064824 C 17.929333333333332 261.6271163064824, 18.014666666666667 261.5951163064824, 18.107999999999997 261.5711163064824 C 18.20133333333333 261.5471163064824, 18.301333333333332 261.5351163064824, 18.407999999999998 261.5351163064824 C 18.773333333333333 261.5351163064824, 19.047333333333334 261.65044963981575, 19.23 261.8811163064824 C 19.412666666666667 262.11178297314905, 19.514666666666663 262.42578297314907, 19.535999999999998 262.8231163064824 C 19.546666666666667 262.98311630648243, 19.55333333333333 263.1417829731491, 19.555999999999997 263.2991163064824 C 19.558666666666664 263.45644963981573, 19.557333333333332 263.6097829731491, 19.552 263.75911630648244 C 19.546666666666667 263.9084496398158, 19.538666666666668 264.0484496398158, 19.528 264.1791163064824 C 19.482666666666667 264.6777829731491, 19.353333333333335 265.0431163064824, 19.14 265.2751163064824 C 18.926666666666666 265.50711630648243, 18.581333333333333 265.6377829731491, 18.104 265.6671163064824 L 18.104 264.7751163064824 C 18.21333333333333 264.74578297314906, 18.296 264.6931163064824, 18.352 264.6171163064824 C 18.408 264.5411163064824, 18.44 264.4417829731491, 18.448 264.31911630648244 C 18.471999999999998 264.02844963981573, 18.485999999999997 263.7671163064824, 18.49 263.5351163064824 C 18.494 263.3031163064824, 18.485333333333333 263.0817829731491, 18.464 262.8711163064824 C 18.447999999999997 262.7164496398158, 18.396666666666665 262.6011163064824, 18.31 262.5251163064824 C 18.223333333333333 262.44911630648244, 18.090666666666664 262.4111163064824, 17.912 262.4111163064824 C 17.901333333333334 262.4111163064824, 17.890666666666668 262.41244963981575, 17.88 262.4151163064824 C 17.86933333333333 262.4177829731491, 17.86 262.42044963981573, 17.852 262.4231163064824 Z M 17.852 260.1311163064824 L 17.852 259.19911630648244 L 19.439999999999998 259.19911630648244 L 19.439999999999998 260.1311163064824 Z M 21.944 265.5991163064824 L 21.944 259.19911630648244 L 23.003999999999998 259.19911630648244 L 23.003999999999998 265.5991163064824 Z " stroke="none" fill-rule="nonzero" fill="#000000" fill-opacity="1" transform="matrix(1,0,0,1,5.05,13.314)" id="text5 l" />
  <path d="M 0 255.9838716542231 L 10 255.9838716542231 L 10 257.4838716542231 L 0 257.4838716542231 Z " stroke="none" fill-rule="evenodd" fill="#000000" fill-opacity="1" transform="matrix(1,0,0,1,5.05,13.314)" id="mark6 l" />
  <path d="M 0 245.28662700196378 L 10 245.28662700196378 L 10 246.78662700196378 L 0 246.78662700196378 Z " stroke="none" fill-rule="evenodd" fill="#000000" fill-opacity="1" transform="matrix(1,0,0,1,5.05,13.314)" id="mark7 l" />
  <path d="M 0 234.5893823497045 L 10 234.5893823497045 L 10 236.0893823497045 L 0 236.0893823497045 Z " stroke="none" fill-rule="evenodd" fill="#000000" fill-opacity="1" transform="matrix(1,0,0,1,5.05,13.314)" id="mark8 l" />
  <path d="M 0 223.8921376974452 L 10 223.8921376974452 L 10 225.3921376974452 L 0 225.3921376974452 Z " stroke="none" fill-rule="evenodd" fill="#000000" fill-opacity="1" transform="matrix(1,0,0,1,5.05,13.314)" id="mark9 l" />
  <path d="M 0 213.1948930451859 L 25 213.1948930451859 L 25 214.6948930451859 L 0 214.6948930451859 Z " stroke="none" fill-rule="evenodd" fill="#000000" fill-opacity="1" transform="matrix(1,0,0,1,5.05,13.314)" id="mark10 l" />
  <path d="M 14.323999999999998 212.1448930451859 L 14.323999999999998 206.70089304518592 L 13.871999999999998 206.70089304518592 L 13.839999999999998 206.3208930451859 L 14.543999999999999 205.7448930451859 L 15.424 205.7448930451859 L 15.424 212.1448930451859 Z M 16.196 210.7328930451859 C 16.188000000000002 210.30355971185259, 16.182666666666666 209.8868930451859, 16.18 209.4828930451859 C 16.177333333333333 209.0788930451859, 16.177999999999997 208.68355971185258, 16.182 208.2968930451859 C 16.186 207.9102263785192, 16.190666666666665 207.5288930451859, 16.196 207.15289304518592 C 16.209333333333333 206.71289304518592, 16.334000000000003 206.3675597118526, 16.57 206.11689304518592 C 16.805999999999997 205.86622637851923, 17.142666666666663 205.7208930451859, 17.58 205.6808930451859 L 17.58 206.56889304518592 C 17.382666666666665 206.6248930451859, 17.281333333333333 206.75422637851926, 17.276 206.95689304518592 C 17.262666666666668 207.3275597118526, 17.253333333333334 207.67555971185257, 17.248 208.0008930451859 C 17.242666666666665 208.32622637851924, 17.24 208.64289304518593, 17.24 208.95089304518592 C 17.24 209.2588930451859, 17.242666666666665 209.57355971185257, 17.248 209.8948930451859 C 17.253333333333334 210.21622637851925, 17.262666666666668 210.55955971185256, 17.276 210.9248930451859 C 17.281333333333333 211.13289304518594, 17.382666666666665 211.26489304518594, 17.58 211.3208930451859 L 17.58 212.2088930451859 C 17.142666666666663 212.16889304518588, 16.805999999999997 212.02289304518592, 16.57 211.77089304518591 C 16.334000000000003 211.5188930451859, 16.209333333333333 211.1728930451859, 16.196 210.7328930451859 Z M 18.084 212.2088930451859 L 18.084 211.3168930451859 C 18.268 211.2635597118526, 18.366666666666667 211.1395597118526, 18.38 210.94489304518592 C 18.398666666666667 210.47822637851925, 18.410666666666668 210.02955971185258, 18.416 209.59889304518592 C 18.421333333333333 209.16822637851925, 18.421333333333333 208.73755971185258, 18.416 208.30689304518592 C 18.410666666666668 207.87622637851925, 18.398666666666667 207.4235597118526, 18.38 206.9488930451859 C 18.374666666666666 206.75422637851926, 18.276 206.6275597118526, 18.084 206.56889304518592 L 18.084 205.6808930451859 C 18.513333333333335 205.7208930451859, 18.846666666666668 205.86622637851923, 19.084 206.11689304518592 C 19.321333333333335 206.3675597118526, 19.445333333333334 206.71289304518592, 19.456 207.15289304518592 C 19.46666666666667 207.46755971185257, 19.474666666666668 207.77755971185258, 19.48 208.0828930451859 C 19.485333333333333 208.38822637851922, 19.488 208.6888930451859, 19.488 208.9848930451859 C 19.488 209.2808930451859, 19.485333333333333 209.57422637851926, 19.48 209.8648930451859 C 19.474666666666668 210.15555971185256, 19.46666666666667 210.4448930451859, 19.456 210.7328930451859 C 19.439999999999998 211.18355971185258, 19.311999999999998 211.53222637851925, 19.072 211.7788930451859 C 18.832 212.02555971185257, 18.502666666666666 212.16889304518588, 18.084 212.2088930451859 Z M 21.944 212.1448930451859 L 21.944 205.7448930451859 L 23.003999999999998 205.7448930451859 L 23.003999999999998 212.1448930451859 Z " stroke="none" fill-rule="nonzero" fill="#000000" fill-opacity="1" transform="matrix(1,0,0,1,5.05,13.314)" id="text10 l" />
  <path d="M 0 202.4976483929266 L 10 202.4976483929266 L 10 203.9976483929266 L 0 203.9976483929266 Z " stroke="none" fill-rule="evenodd" fill="#000000" fill-opacity="1" transform="matrix(1,0,0,1,5.05,13.314)" id="mark11 l" />
  <path d="M 0 191.80040374066732 L 10 191.80040374066732 L 10 193.30040374066732 L 0 193.30040374066732 Z " stroke="none" fill-rule="evenodd" fill="#000000" fill-opacity="1" transform="matrix(1,0,0,1,5.05,13.314)" id="mark12 l" />
  <path d="M 0 181.103159088408 L 10 181.103159088408 L 10 182.603159088408 L 0 182.603159088408 Z " stroke="none" fill-rule="evenodd" fill="#000000" fill-opacity="1" transform="matrix(1,0,0,1,5.05,13.314)" id="mark13 l" />
  <path d="M 0 170.40591443614872 L 10 170.40591443614872 L 10 171.90591443614872 L 0 171.90591443614872 Z " stroke="none" fill-rule="evenodd" fill="#000000" fill-opacity="1" transform="matrix(1,0,0,1,5.05,13.314)" id="mark14 l" />
  <path d="M 0 159.70866978388943 L 25 159.70866978388943 L 25 161.20866978388943 L 0 161.20866978388943 Z " stroke="none" fill-rule="evenodd" fill="#000000" fill-opacity="1" transform="matrix(1,0,0,1,5.05,13.314)" id="mark15 l" />
  <path d="M 14.331999999999999 158.62666978388944 L 14.331999999999999 153.18266978388945 L 13.879999999999999 153.18266978388945 L 13.847999999999999 152.80266978388943 L 14.552 152.22666978388943 L 15.432 152.22666978388943 L 15.432 158.62666978388944 Z M 16.18 157.21066978388944 C 16.174666666666667 157.03733645055613, 16.173333333333332 156.8980031172228, 16.176 156.79266978388944 C 16.178666666666665 156.68733645055613, 16.181333333333335 156.58533645055613, 16.183999999999997 156.48666978388945 L 17.264 156.48666978388945 C 17.256 156.56400311722277, 17.25 156.66000311722277, 17.246 156.77466978388944 C 17.241999999999997 156.8893364505561, 17.240666666666666 157.00000311722278, 17.241999999999997 157.10666978388943 C 17.243333333333332 157.21333645055608, 17.246666666666666 157.2933364505561, 17.252 157.34666978388944 C 17.262666666666668 157.46666978388944, 17.297333333333334 157.56466978388943, 17.355999999999998 157.64066978388945 C 17.414666666666665 157.71666978388942, 17.497333333333334 157.77066978388942, 17.604 157.80266978388943 L 17.604 158.69466978388945 C 17.110666666666663 158.6573364505561, 16.75333333333333 158.52266978388943, 16.532 158.29066978388943 C 16.310666666666666 158.05866978388943, 16.19333333333333 157.69866978388944, 16.18 157.21066978388944 Z M 16.279999999999998 155.87466978388943 L 16.279999999999998 152.22666978388943 L 17.348 152.22666978388943 L 17.348 155.87466978388943 Z M 17.852 155.45066978388945 L 17.852 154.69466978388945 C 17.929333333333332 154.65466978388946, 18.014666666666667 154.62266978388945, 18.107999999999997 154.59866978388945 C 18.20133333333333 154.57466978388945, 18.301333333333332 154.56266978388945, 18.407999999999998 154.56266978388945 C 18.773333333333333 154.56266978388945, 19.047333333333334 154.67800311722277, 19.23 154.90866978388945 C 19.412666666666667 155.1393364505561, 19.514666666666663 155.4533364505561, 19.535999999999998 155.85066978388943 C 19.546666666666667 156.01066978388943, 19.55333333333333 156.1693364505561, 19.555999999999997 156.32666978388943 C 19.558666666666664 156.48400311722278, 19.557333333333332 156.63733645055612, 19.552 156.78666978388944 C 19.546666666666667 156.93600311722275, 19.538666666666668 157.07600311722277, 19.528 157.20666978388945 C 19.482666666666667 157.7053364505561, 19.353333333333335 158.07066978388946, 19.14 158.30266978388943 C 18.926666666666666 158.53466978388946, 18.581333333333333 158.6653364505561, 18.104 158.69466978388945 L 18.104 157.80266978388943 C 18.21333333333333 157.77333645055612, 18.296 157.72066978388943, 18.352 157.64466978388944 C 18.408 157.56866978388945, 18.44 157.4693364505561, 18.448 157.34666978388944 C 18.471999999999998 157.05600311722276, 18.485999999999997 156.79466978388945, 18.49 156.56266978388945 C 18.494 156.33066978388945, 18.485333333333333 156.1093364505561, 18.464 155.89866978388943 C 18.447999999999997 155.74400311722275, 18.396666666666665 155.62866978388942, 18.31 155.55266978388943 C 18.223333333333333 155.47666978388943, 18.090666666666664 155.43866978388945, 17.912 155.43866978388945 C 17.901333333333334 155.43866978388945, 17.890666666666668 155.44000311722277, 17.88 155.44266978388944 C 17.86933333333333 155.4453364505561, 17.86 155.44800311722278, 17.852 155.45066978388945 Z M 17.852 153.15866978388945 L 17.852 152.22666978388943 L 19.439999999999998 152.22666978388943 L 19.439999999999998 153.15866978388945 Z M 21.944 158.62666978388944 L 21.944 152.22666978388943 L 23.003999999999998 152.22666978388943 L 23.003999999999998 158.62666978388944 Z " stroke="none" fill-rule="nonzero" fill="#000000" fill-opacity="1" transform="matrix(1,0,0,1,5.05,13.314)" id="text15 l" />
  <path d="M 0 149.01142513163012 L 10 149.01142513163012 L 10 150.51142513163012 L 0 150.51142513163012 Z " stroke="none" fill-rule="evenodd" fill="#000000" fill-opacity="1" transform="matrix(1,0,0,1,5.05,13.314)" id="mark16 l" />
  <path d="M 0 138.31418047937083 L 10 138.31418047937083 L 10 139.81418047937083 L 0 139.81418047937083 Z " stroke="none" fill-rule="evenodd" fill="#000000" fill-opacity="1" transform="matrix(1,0,0,1,5.05,13.314)" id="mark17 l" />
  <path d="M 0 127.61693582711155 L 10 127.61693582711155 L 10 129.11693582711155 L 0 129.11693582711155 Z " stroke="none" fill-rule="evenodd" fill="#000000" fill-opacity="1" transform="matrix(1,0,0,1,5.05,13.314)" id="mark18 l" />
  <path d="M 0 116.91969117485223 L 10 116.91969117485223 L 10 118.41969117485223 L 0 118.41969117485223 Z " stroke="none" fill-rule="evenodd" fill="#000000" fill-opacity="1" transform="matrix(1,0,0,1,5.05,13.314)" id="mark19 l" />
  <path d="M 0 106.22244652259295 L 25 106.22244652259295 L 25 107.72244652259295 L 0 107.72244652259295 Z " stroke="none" fill-rule="evenodd" fill="#000000" fill-opacity="1" transform="matrix(1,0,0,1,5.05,13.314)" id="mark20 l" />
  <path d="M 12.319999999999999 105.17244652259295 C 12.317333333333334 105.07377985592629, 12.315333333333331 104.98511318925961, 12.313999999999998 104.90644652259294 C 12.312666666666665 104.82777985592628, 12.311333333333334 104.7537798559263, 12.309999999999999 104.68444652259295 C 12.308666666666667 104.61511318925963, 12.308 104.54311318925963, 12.308 104.46844652259296 C 12.308 104.39377985592628, 12.308 104.30911318925962, 12.308 104.21444652259295 C 12.308 104.11977985592628, 12.309333333333335 104.00844652259295, 12.312 103.88044652259295 C 12.32 103.58711318925961, 12.37 103.32511318925961, 12.462 103.09444652259295 C 12.554 102.86377985592628, 12.687999999999999 102.65777985592626, 12.863999999999999 102.47644652259295 C 13.04 102.29511318925961, 13.257333333333333 102.13377985592629, 13.515999999999998 101.99244652259294 L 14.047999999999998 101.70444652259295 C 14.234666666666666 101.6031131892596, 14.354 101.48111318925962, 14.405999999999999 101.33844652259295 C 14.457999999999998 101.19577985592628, 14.488 101.06177985592629, 14.495999999999999 100.93644652259295 C 14.506666666666664 100.78977985592627, 14.512666666666664 100.6331131892596, 14.514 100.46644652259295 C 14.51533333333333 100.29977985592629, 14.511999999999997 100.14311318925962, 14.504 99.99644652259295 C 14.498666666666665 99.89244652259296, 14.468666666666666 99.80644652259295, 14.413999999999998 99.73844652259295 C 14.359333333333332 99.67044652259295, 14.279999999999998 99.62177985592629, 14.175999999999998 99.59244652259295 L 14.175999999999998 98.70444652259295 C 14.663999999999998 98.73644652259296, 15.014 98.86777985592629, 15.225999999999999 99.09844652259295 C 15.437999999999999 99.32911318925962, 15.554666666666666 99.68977985592628, 15.575999999999999 100.18044652259294 C 15.578666666666663 100.24444652259294, 15.580666666666666 100.30977985592628, 15.581999999999999 100.37644652259294 C 15.583333333333332 100.4431131892596, 15.584 100.50777985592629, 15.584 100.57044652259295 C 15.584 100.6331131892596, 15.583333333333332 100.69511318925962, 15.581999999999999 100.75644652259295 C 15.580666666666666 100.81777985592629, 15.578666666666663 100.87777985592629, 15.575999999999999 100.93644652259295 C 15.565333333333331 101.22177985592629, 15.512 101.46844652259296, 15.415999999999999 101.67644652259295 C 15.32 101.88444652259295, 15.19 102.06444652259295, 15.026 102.21644652259295 C 14.862 102.36844652259295, 14.672 102.50444652259296, 14.456 102.62444652259295 L 13.851999999999999 102.95244652259295 C 13.737333333333332 103.01377985592629, 13.647333333333332 103.09777985592629, 13.581999999999999 103.20444652259295 C 13.516666666666666 103.3111131892596, 13.469999999999999 103.42444652259294, 13.441999999999998 103.54444652259295 C 13.413999999999998 103.66444652259295, 13.399999999999999 103.77644652259295, 13.399999999999999 103.88044652259295 L 13.399999999999999 105.17244652259295 Z M 12.328 101.13244652259294 C 12.322666666666667 101.01511318925962, 12.318666666666665 100.90044652259296, 12.315999999999999 100.78844652259295 C 12.313333333333333 100.67644652259294, 12.311333333333334 100.57044652259293, 12.309999999999999 100.47044652259295 C 12.308666666666667 100.37044652259294, 12.309333333333335 100.27377985592628, 12.312 100.18044652259294 C 12.330666666666666 99.69244652259295, 12.447333333333333 99.33311318925962, 12.661999999999999 99.10244652259294 C 12.876666666666665 98.87177985592629, 13.213333333333331 98.73911318925963, 13.671999999999999 98.70444652259295 L 13.671999999999999 99.59644652259296 C 13.576 99.62577985592628, 13.505333333333333 99.67244652259296, 13.459999999999999 99.73644652259296 C 13.414666666666665 99.80044652259295, 13.390666666666664 99.87777985592629, 13.387999999999998 99.96844652259296 C 13.382666666666665 100.17644652259295, 13.379333333333333 100.36977985592628, 13.378 100.54844652259295 C 13.376666666666667 100.72711318925963, 13.381333333333334 100.92177985592629, 13.392 101.13244652259294 Z M 13.904 105.17244652259295 L 13.904 104.24044652259295 L 15.5 104.24044652259295 L 15.5 105.17244652259295 Z M 16.196 103.76044652259294 C 16.188000000000002 103.33111318925961, 16.182666666666666 102.91444652259295, 16.18 102.51044652259294 C 16.177333333333333 102.10644652259295, 16.177999999999997 101.7111131892596, 16.182 101.32444652259295 C 16.186 100.9377798559263, 16.190666666666665 100.55644652259295, 16.196 100.18044652259294 C 16.209333333333333 99.74044652259295, 16.334000000000003 99.39511318925962, 16.57 99.14444652259294 C 16.805999999999997 98.89377985592628, 17.142666666666663 98.74844652259296, 17.58 98.70844652259295 L 17.58 99.59644652259296 C 17.382666666666665 99.65244652259295, 17.281333333333333 99.78177985592627, 17.276 99.98444652259295 C 17.262666666666668 100.35511318925961, 17.253333333333334 100.70311318925961, 17.248 101.02844652259294 C 17.242666666666665 101.35377985592628, 17.24 101.67044652259295, 17.24 101.97844652259295 C 17.24 102.28644652259294, 17.242666666666665 102.60111318925962, 17.248 102.92244652259295 C 17.253333333333334 103.24377985592628, 17.262666666666668 103.58711318925961, 17.276 103.95244652259295 C 17.281333333333333 104.16044652259296, 17.382666666666665 104.29244652259295, 17.58 104.34844652259295 L 17.58 105.23644652259294 C 17.142666666666663 105.19644652259296, 16.805999999999997 105.05044652259295, 16.57 104.79844652259295 C 16.334000000000003 104.54644652259296, 16.209333333333333 104.20044652259296, 16.196 103.76044652259294 Z M 18.084 105.23644652259294 L 18.084 104.34444652259295 C 18.268 104.29111318925962, 18.366666666666667 104.16711318925962, 18.38 103.97244652259295 C 18.398666666666667 103.50577985592628, 18.410666666666668 103.05711318925961, 18.416 102.62644652259294 C 18.421333333333333 102.19577985592628, 18.421333333333333 101.76511318925962, 18.416 101.33444652259296 C 18.410666666666668 100.90377985592629, 18.398666666666667 100.45111318925962, 18.38 99.97644652259295 C 18.374666666666666 99.78177985592629, 18.276 99.65511318925962, 18.084 99.59644652259296 L 18.084 98.70844652259295 C 18.513333333333335 98.74844652259296, 18.846666666666668 98.89377985592628, 19.084 99.14444652259294 C 19.321333333333335 99.39511318925962, 19.445333333333334 99.74044652259295, 19.456 100.18044652259294 C 19.46666666666667 100.49511318925963, 19.474666666666668 100.80511318925963, 19.48 101.11044652259295 C 19.485333333333333 101.41577985592627, 19.488 101.71644652259295, 19.488 102.01244652259295 C 19.488 102.30844652259296, 19.485333333333333 102.60177985592628, 19.48 102.89244652259295 C 19.474666666666668 103.18311318925961, 19.46666666666667 103.47244652259295, 19.456 103.76044652259294 C 19.439999999999998 104.2111131892596, 19.311999999999998 104.55977985592628, 19.072 104.80644652259295 C 18.832 105.05311318925962, 18.502666666666666 105.19644652259296, 18.084 105.23644652259294 Z M 21.944 105.17244652259295 L 21.944 98.77244652259294 L 23.003999999999998 98.77244652259294 L 23.003999999999998 105.17244652259295 Z " stroke="none" fill-rule="nonzero" fill="#000000" fill-opacity="1" transform="matrix(1,0,0,1,5.05,13.314)" id="text20 l" />
  <path d="M 0 95.52520187033366 L 10 95.52520187033366 L 10 97.02520187033366 L 0 97.02520187033366 Z " stroke="none" fill-rule="evenodd" fill="#000000" fill-opacity="1" transform="matrix(1,0,0,1,5.05,13.314)" id="mark21 l" />
  <path d="M 0 84.82795721807435 L 10 84.82795721807435 L 10 86.32795721807435 L 0 86.32795721807435 Z " stroke="none" fill-rule="evenodd" fill="#000000" fill-opacity="1" transform="matrix(1,0,0,1,5.05,13.314)" id="mark22 l" />
  <path d="M 0 74.13071256581506 L 10 74.13071256581506 L 10 75.63071256581506 L 0 75.63071256581506 Z " stroke="none" fill-rule="evenodd" fill="#000000" fill-opacity="1" transform="matrix(1,0,0,1,5.05,13.314)" id="mark23 l" />
  <path d="M 0 63.43346791355577 L 10 63.43346791355577 L 10 64.93346791355577 L 0 64.93346791355577 Z " stroke="none" fill-rule="evenodd" fill="#000000" fill-opacity="1" transform="matrix(1,0,0,1,5.05,13.314)" id="mark24 l" />
  <path d="M 0 52.73622326129646 L 25 52.73622326129646 L 25 54.23622326129646 L 0 54.23622326129646 Z " stroke="none" fill-rule="evenodd" fill="#000000" fill-opacity="1" transform="matrix(1,0,0,1,5.05,13.314)" id="mark25 l" />
  <path d="M 12.328 51.68622326129646 C 12.325333333333333 51.58755659462979, 12.323333333333332 51.49888992796312, 12.322 51.420223261296464 C 12.320666666666666 51.34155659462979, 12.319333333333333 51.267556594629795, 12.318 51.19822326129646 C 12.316666666666666 51.12888992796313, 12.315999999999999 51.05688992796313, 12.316 50.98222326129646 C 12.315999999999999 50.907556594629796, 12.315999999999999 50.82288992796313, 12.316 50.72822326129646 C 12.315999999999999 50.633556594629795, 12.317333333333334 50.52222326129646, 12.32 50.39422326129646 C 12.328 50.100889927963124, 12.378 49.83888992796312, 12.47 49.60822326129646 C 12.562000000000001 49.377556594629795, 12.696 49.1715565946298, 12.872 48.990223261296464 C 13.048 48.80888992796313, 13.265333333333334 48.64755659462979, 13.524000000000001 48.50622326129646 L 14.056000000000001 48.21822326129646 C 14.242666666666668 48.11688992796313, 14.362000000000002 47.99488992796313, 14.414 47.85222326129646 C 14.466000000000001 47.70955659462979, 14.495999999999999 47.575556594629795, 14.504 47.450223261296465 C 14.514666666666667 47.3035565946298, 14.520666666666667 47.14688992796313, 14.522 46.98022326129646 C 14.523333333333333 46.81355659462979, 14.520000000000001 46.65688992796312, 14.512 46.51022326129646 C 14.506666666666666 46.40622326129646, 14.476666666666667 46.32022326129646, 14.422 46.252223261296464 C 14.367333333333335 46.18422326129647, 14.288 46.1355565946298, 14.184000000000001 46.10622326129646 L 14.184000000000001 45.21822326129646 C 14.672 45.250223261296455, 15.022000000000002 45.38155659462979, 15.234 45.612223261296464 C 15.446000000000002 45.84288992796313, 15.562666666666667 46.203556594629795, 15.584 46.694223261296464 C 15.586666666666668 46.758223261296465, 15.588666666666668 46.82355659462979, 15.59 46.89022326129646 C 15.591333333333335 46.95688992796313, 15.592000000000002 47.0215565946298, 15.592 47.08422326129646 C 15.592000000000002 47.14688992796313, 15.591333333333335 47.20888992796313, 15.59 47.270223261296465 C 15.588666666666668 47.331556594629795, 15.586666666666668 47.3915565946298, 15.584 47.450223261296465 C 15.573333333333332 47.7355565946298, 15.52 47.98222326129646, 15.424 48.19022326129646 C 15.328 48.398223261296465, 15.197999999999999 48.57822326129646, 15.033999999999999 48.73022326129646 C 14.87 48.88222326129646, 14.68 49.018223261296455, 14.464 49.13822326129646 L 13.86 49.46622326129646 C 13.745333333333335 49.5275565946298, 13.655333333333335 49.611556594629796, 13.59 49.71822326129646 C 13.524666666666668 49.82488992796313, 13.478000000000002 49.93822326129646, 13.45 50.05822326129646 C 13.422 50.178223261296466, 13.408 50.29022326129646, 13.408 50.39422326129646 L 13.408 51.68622326129646 Z M 12.336 47.64622326129646 C 12.330666666666666 47.52888992796313, 12.326666666666664 47.41422326129646, 12.324 47.30222326129646 C 12.321333333333332 47.19022326129646, 12.319333333333333 47.08422326129646, 12.318 46.984223261296464 C 12.316666666666666 46.884223261296455, 12.317333333333334 46.78755659462979, 12.32 46.694223261296464 C 12.338666666666668 46.20622326129646, 12.455333333333336 45.846889927963126, 12.67 45.61622326129646 C 12.884666666666668 45.3855565946298, 13.221333333333334 45.252889927963125, 13.68 45.21822326129646 L 13.68 46.11022326129646 C 13.584 46.139556594629795, 13.513333333333332 46.18622326129646, 13.468 46.25022326129646 C 13.422666666666668 46.31422326129646, 13.398666666666667 46.39155659462979, 13.396 46.48222326129646 C 13.390666666666666 46.69022326129646, 13.387333333333332 46.883556594629795, 13.386 47.06222326129646 C 13.384666666666666 47.240889927963124, 13.389333333333333 47.435556594629794, 13.4 47.64622326129646 Z M 13.911999999999999 51.68622326129646 L 13.911999999999999 50.75422326129646 L 15.508 50.75422326129646 L 15.508 51.68622326129646 Z M 16.18 50.270223261296465 C 16.174666666666667 50.09688992796313, 16.173333333333332 49.95755659462979, 16.176 49.85222326129646 C 16.178666666666665 49.746889927963124, 16.181333333333335 49.64488992796313, 16.183999999999997 49.54622326129646 L 17.264 49.54622326129646 C 17.256 49.6235565946298, 17.25 49.71955659462979, 17.246 49.834223261296465 C 17.241999999999997 49.94888992796312, 17.240666666666666 50.0595565946298, 17.241999999999997 50.16622326129646 C 17.243333333333332 50.272889927963135, 17.246666666666666 50.35288992796313, 17.252 50.40622326129646 C 17.262666666666668 50.526223261296465, 17.297333333333334 50.624223261296464, 17.355999999999998 50.700223261296465 C 17.414666666666665 50.776223261296465, 17.497333333333334 50.83022326129647, 17.604 50.862223261296464 L 17.604 51.75422326129646 C 17.110666666666663 51.71688992796312, 16.75333333333333 51.58222326129646, 16.532 51.35022326129646 C 16.310666666666666 51.118223261296464, 16.19333333333333 50.758223261296465, 16.18 50.270223261296465 Z M 16.279999999999998 48.93422326129646 L 16.279999999999998 45.28622326129646 L 17.348 45.28622326129646 L 17.348 48.93422326129646 Z M 17.852 48.51022326129646 L 17.852 47.75422326129646 C 17.929333333333332 47.71422326129646, 18.014666666666667 47.682223261296464, 18.107999999999997 47.65822326129646 C 18.20133333333333 47.63422326129646, 18.301333333333332 47.62222326129646, 18.407999999999998 47.62222326129646 C 18.773333333333333 47.62222326129646, 19.047333333333334 47.737556594629794, 19.23 47.96822326129646 C 19.412666666666667 48.19888992796312, 19.514666666666663 48.51288992796313, 19.535999999999998 48.910223261296466 C 19.546666666666667 49.07022326129646, 19.55333333333333 49.228889927963124, 19.555999999999997 49.386223261296465 C 19.558666666666664 49.54355659462979, 19.557333333333332 49.69688992796313, 19.552 49.84622326129646 C 19.546666666666667 49.99555659462979, 19.538666666666668 50.13555659462979, 19.528 50.26622326129646 C 19.482666666666667 50.764889927963125, 19.353333333333335 51.130223261296464, 19.14 51.362223261296464 C 18.926666666666666 51.59422326129646, 18.581333333333333 51.72488992796313, 18.104 51.75422326129646 L 18.104 50.862223261296464 C 18.21333333333333 50.83288992796312, 18.296 50.780223261296456, 18.352 50.70422326129646 C 18.408 50.628223261296455, 18.44 50.52888992796312, 18.448 50.40622326129646 C 18.471999999999998 50.115556594629794, 18.485999999999997 49.854223261296454, 18.49 49.62222326129646 C 18.494 49.390223261296455, 18.485333333333333 49.16888992796312, 18.464 48.95822326129646 C 18.447999999999997 48.8035565946298, 18.396666666666665 48.68822326129646, 18.31 48.612223261296464 C 18.223333333333333 48.536223261296456, 18.090666666666664 48.49822326129646, 17.912 48.49822326129646 C 17.901333333333334 48.49822326129646, 17.890666666666668 48.499556594629794, 17.88 48.502223261296464 C 17.86933333333333 48.50488992796313, 17.86 48.50755659462979, 17.852 48.51022326129646 Z M 17.852 46.21822326129646 L 17.852 45.28622326129646 L 19.439999999999998 45.28622326129646 L 19.439999999999998 46.21822326129646 Z M 21.944 51.68622326129646 L 21.944 45.28622326129646 L 23.003999999999998 45.28622326129646 L 23.003999999999998 51.68622326129646 Z " stroke="none" fill-rule="nonzero" fill="#000000" fill-opacity="1" transform="matrix(1,0,0,1,5.05,13.314)" id="text25 l" />
  <path d="M 0 42.038978609037144 L 10 42.038978609037144 L 10 43.538978609037144 L 0 43.538978609037144 Z " stroke="none" fill-rule="evenodd" fill="#000000" fill-opacity="1" transform="matrix(1,0,0,1,5.05,13.314)" id="mark26 l" />
  <path d="M 0 31.341733956777887 L 10 31.341733956777887 L 10 32.84173395677789 L 0 32.84173395677789 Z " stroke="none" fill-rule="evenodd" fill="#000000" fill-opacity="1" transform="matrix(1,0,0,1,5.05,13.314)" id="mark27 l" />
  <path d="M 0 20.644489304518572 L 10 20.644489304518572 L 10 22.144489304518572 L 0 22.144489304518572 Z " stroke="none" fill-rule="evenodd" fill="#000000" fill-opacity="1" transform="matrix(1,0,0,1,5.05,13.314)" id="mark28 l" />
  <path d="M 0 9.947244652259258 L 10 9.947244652259258 L 10 11.447244652259258 L 0 11.447244652259258 Z " stroke="none" fill-rule="evenodd" fill="#000000" fill-opacity="1" transform="matrix(1,0,0,1,5.05,13.314)" id="mark29 l" />
  <path d="M 0 -0.75 L 25 -0.75 L 25 0.75 L 0 0.75 Z " stroke="none" fill-rule="evenodd" fill="#000000" fill-opacity="1" transform="matrix(1,0,0,1,5.05,13.314)" id="mark30 l" />
  <path d="M 12.223999999999998 -3.2159999999999997 C 12.221333333333334 -3.317333333333333, 12.219333333333333 -3.4013333333333335, 12.218 -3.468 C 12.216666666666667 -3.5346666666666664, 12.216666666666667 -3.602666666666666, 12.218 -3.6719999999999997 C 12.219333333333333 -3.7413333333333334, 12.221333333333334 -3.8306666666666667, 12.223999999999998 -3.94 L 13.303999999999998 -3.94 L 13.303999999999998 -3.0759999999999996 C 13.303999999999998 -2.8386666666666667, 13.417333333333332 -2.6879999999999997, 13.643999999999998 -2.6239999999999997 L 13.643999999999998 -1.7319999999999998 C 13.155999999999999 -1.7693333333333332, 12.800666666666665 -1.904, 12.578 -2.1359999999999997 C 12.355333333333334 -2.368, 12.237333333333332 -2.7279999999999998, 12.223999999999998 -3.2159999999999997 Z M 12.292 -7.268 L 12.292 -8.2 L 15.536 -8.2 L 15.536 -7.268 Z M 14.143999999999998 -2.6199999999999997 C 14.367999999999999 -2.6759999999999997, 14.483999999999998 -2.826666666666666, 14.491999999999999 -3.072 C 14.497333333333334 -3.2746666666666666, 14.500666666666666 -3.4573333333333336, 14.501999999999999 -3.62 C 14.503333333333332 -3.7826666666666666, 14.498666666666665 -3.94, 14.488 -4.092 C 14.48 -4.2493333333333325, 14.431999999999999 -4.382666666666666, 14.344 -4.492 C 14.256 -4.601333333333333, 14.089333333333332 -4.653333333333332, 13.844 -4.648 L 13.096 -4.64 L 13.068 -5.532 L 14.027999999999999 -6.9159999999999995 L 15.216 -6.9159999999999995 L 14.248 -5.564 L 14.28 -5.564 C 14.712 -5.564, 15.028666666666666 -5.441333333333334, 15.229999999999999 -5.196 C 15.431333333333333 -4.950666666666666, 15.544 -4.573333333333332, 15.568 -4.064 C 15.57333333333333 -3.992, 15.576666666666664 -3.92, 15.578 -3.848 C 15.57933333333333 -3.776, 15.579999999999998 -3.705333333333333, 15.579999999999998 -3.6359999999999997 C 15.579999999999998 -3.5666666666666664, 15.57933333333333 -3.4973333333333336, 15.578 -3.428 C 15.576666666666664 -3.3586666666666662, 15.57333333333333 -3.2879999999999994, 15.568 -3.2159999999999997 C 15.549333333333333 -2.7199999999999998, 15.428666666666665 -2.3553333333333333, 15.206 -2.122 C 14.983333333333334 -1.8886666666666665, 14.630666666666666 -1.7586666666666664, 14.148 -1.7319999999999998 Z M 16.196 -3.2119999999999997 C 16.188000000000002 -3.641333333333333, 16.182666666666666 -4.058, 16.18 -4.462 C 16.177333333333333 -4.866, 16.177999999999997 -5.261333333333333, 16.182 -5.648 C 16.186 -6.034666666666666, 16.190666666666665 -6.416, 16.196 -6.792 C 16.209333333333333 -7.231999999999999, 16.334000000000003 -7.577333333333334, 16.57 -7.828 C 16.805999999999997 -8.078666666666667, 17.142666666666663 -8.224, 17.58 -8.264 L 17.58 -7.3759999999999994 C 17.382666666666665 -7.32, 17.281333333333333 -7.190666666666667, 17.276 -6.9879999999999995 C 17.262666666666668 -6.617333333333333, 17.253333333333334 -6.269333333333333, 17.248 -5.944 C 17.242666666666665 -5.618666666666666, 17.24 -5.302, 17.24 -4.994 C 17.24 -4.686, 17.242666666666665 -4.371333333333333, 17.248 -4.05 C 17.253333333333334 -3.7286666666666664, 17.262666666666668 -3.3853333333333326, 17.276 -3.0199999999999996 C 17.281333333333333 -2.812, 17.382666666666665 -2.6799999999999997, 17.58 -2.6239999999999997 L 17.58 -1.7359999999999998 C 17.142666666666663 -1.7759999999999998, 16.805999999999997 -1.9219999999999997, 16.57 -2.174 C 16.334000000000003 -2.4259999999999997, 16.209333333333333 -2.772, 16.196 -3.2119999999999997 Z M 18.084 -1.7359999999999998 L 18.084 -2.6279999999999997 C 18.268 -2.681333333333333, 18.366666666666667 -2.8053333333333335, 18.38 -3 C 18.398666666666667 -3.4666666666666663, 18.410666666666668 -3.915333333333333, 18.416 -4.346 C 18.421333333333333 -4.776666666666666, 18.421333333333333 -5.207333333333333, 18.416 -5.638 C 18.410666666666668 -6.068666666666666, 18.398666666666667 -6.521333333333333, 18.38 -6.9959999999999996 C 18.374666666666666 -7.190666666666667, 18.276 -7.317333333333334, 18.084 -7.3759999999999994 L 18.084 -8.264 C 18.513333333333335 -8.224, 18.846666666666668 -8.078666666666667, 19.084 -7.828 C 19.321333333333335 -7.577333333333334, 19.445333333333334 -7.231999999999999, 19.456 -6.792 C 19.46666666666667 -6.477333333333332, 19.474666666666668 -6.167333333333333, 19.48 -5.861999999999999 C 19.485333333333333 -5.556666666666667, 19.488 -5.256, 19.488 -4.96 C 19.488 -4.664, 19.485333333333333 -4.370666666666667, 19.48 -4.08 C 19.474666666666668 -3.7893333333333334, 19.46666666666667 -3.5, 19.456 -3.2119999999999997 C 19.439999999999998 -2.761333333333333, 19.311999999999998 -2.4126666666666665, 19.072 -2.166 C 18.832 -1.9193333333333331, 18.502666666666666 -1.7759999999999998, 18.084 -1.7359999999999998 Z M 21.944 -1.7999999999999998 L 21.944 -8.2 L 23.003999999999998 -8.2 L 23.003999999999998 -1.7999999999999998 Z " stroke="none" fill-rule="nonzero" fill="#000000" fill-opacity="1" transform="matrix(1,0,0,1,5.05,13.314)" id="text30 l" />
  <path d="M -5 -13.264 L 30 -13.264 L 30 316.9880949155195 L -5 316.9880949155195 Z " stroke="#FF0000" stroke-opacity="1" stroke-width="0.1" stroke-linecap="butt" stroke-linejoin="miter" fill="none" transform="matrix(1,0,0,1,5.05,13.314)" />
</svg>