<?xml version="1.0" encoding="UTF-8"?>
<svg xmlns:xlink="http://www.w3.org/1999/xlink" viewBox="0 0 40.099999999999994 66.87206490863862" version="1.1" style="font-synthesis: none;" width="40.099999999999994mm" height="66.87206490863862mm" xmlns="http://www.w3.org/2000/svg">
  <defs />
  <style>	</style>
  <path d="M 0 0 L 40.099999999999994 0 L 40.099999999999994 66.87206490863862 L 0 66.87206490863862 Z " stroke="none" fill-rule="nonzero" fill="#FFFFFF" fill-opacity="1" transform="matrix(1,0,0,1,0,0)" />
  <path d="M 0 46.122064908638635 L 8 46.122064908638635 L 8 47.42206490863863 L 0 47.42206490863863 Z " stroke="none" fill-rule="evenodd" fill="#000000" fill-opacity="1" transform="matrix(1,0,0,1,5.05,13.314000000000002)" id="mark20 ml" />
  <path d="M 0 40.92516880767879 L 8 40.92516880767879 L 8 42.225168807678784 L 0 42.225168807678784 Z " stroke="none" fill-rule="evenodd" fill="#000000" fill-opacity="1" transform="matrix(1,0,0,1,5.05,13.314000000000002)" id="mark40 ml" />
  <path d="M 0 35.72827270671894 L 8 35.72827270671894 L 8 37.02827270671894 L 0 37.02827270671894 Z " stroke="none" fill-rule="evenodd" fill="#000000" fill-opacity="1" transform="matrix(1,0,0,1,5.05,13.314000000000002)" id="mark60 ml" />
  <path d="M 0 30.53137660575909 L 8 30.53137660575909 L 8 31.83137660575909 L 0 31.83137660575909 Z " stroke="none" fill-rule="evenodd" fill="#000000" fill-opacity="1" transform="matrix(1,0,0,1,5.05,13.314000000000002)" id="mark80 ml" />
  <path d="M 0 25.33448050479924 L 30 25.33448050479924 L 30 26.634480504799242 L 0 26.634480504799242 Z " stroke="none" fill-rule="evenodd" fill="#000000" fill-opacity="1" transform="matrix(1,0,0,1,5.05,13.314000000000002)" id="mark100 ml" />
  <path d="M 9.291999999999996 24.18448050479924 L 9.291999999999996 18.74048050479924 L 8.839999999999996 18.74048050479924 L 8.807999999999996 18.36048050479924 L 9.511999999999997 17.78448050479924 L 10.391999999999998 17.78448050479924 L 10.391999999999998 24.18448050479924 Z M 11.163999999999996 22.77248050479924 C 11.155999999999995 22.343147171465905, 11.150666666666663 21.92648050479924, 11.147999999999996 21.52248050479924 C 11.14533333333333 21.11848050479924, 11.145999999999997 20.723147171465907, 11.149999999999997 20.33648050479924 C 11.153999999999996 19.949813838132574, 11.158666666666663 19.56848050479924, 11.163999999999996 19.19248050479924 C 11.17733333333333 18.752480504799237, 11.301999999999996 18.407147171465905, 11.537999999999997 18.15648050479924 C 11.773999999999996 17.905813838132573, 12.110666666666663 17.76048050479924, 12.547999999999996 17.72048050479924 L 12.547999999999996 18.60848050479924 C 12.350666666666662 18.66448050479924, 12.249333333333329 18.79381383813257, 12.243999999999996 18.99648050479924 C 12.230666666666664 19.36714717146591, 12.22133333333333 19.715147171465908, 12.215999999999996 20.04048050479924 C 12.210666666666661 20.365813838132574, 12.207999999999995 20.68248050479924, 12.207999999999997 20.99048050479924 C 12.207999999999995 21.29848050479924, 12.210666666666661 21.613147171465908, 12.215999999999996 21.93448050479924 C 12.22133333333333 22.25581383813257, 12.230666666666664 22.599147171465905, 12.243999999999996 22.96448050479924 C 12.249333333333329 23.17248050479924, 12.350666666666662 23.304480504799237, 12.547999999999996 23.360480504799238 L 12.547999999999996 24.24848050479924 C 12.110666666666663 24.20848050479924, 11.773999999999996 24.06248050479924, 11.537999999999997 23.81048050479924 C 11.301999999999996 23.558480504799242, 11.17733333333333 23.21248050479924, 11.163999999999996 22.77248050479924 Z M 13.051999999999996 24.24848050479924 L 13.051999999999996 23.35648050479924 C 13.235999999999995 23.303147171465906, 13.334666666666662 23.179147171465907, 13.347999999999995 22.98448050479924 C 13.366666666666662 22.517813838132575, 13.378666666666662 22.069147171465907, 13.383999999999997 21.63848050479924 C 13.38933333333333 21.207813838132573, 13.38933333333333 20.777147171465906, 13.383999999999997 20.34648050479924 C 13.378666666666662 19.91581383813257, 13.366666666666662 19.463147171465906, 13.347999999999995 18.98848050479924 C 13.342666666666663 18.793813838132575, 13.243999999999996 18.667147171465906, 13.051999999999996 18.60848050479924 L 13.051999999999996 17.72048050479924 C 13.48133333333333 17.76048050479924, 13.814666666666664 17.905813838132573, 14.051999999999996 18.15648050479924 C 14.289333333333328 18.407147171465905, 14.41333333333333 18.752480504799237, 14.423999999999996 19.19248050479924 C 14.434666666666661 19.507147171465906, 14.442666666666662 19.81714717146591, 14.447999999999997 20.122480504799242 C 14.45333333333333 20.427813838132575, 14.455999999999996 20.72848050479924, 14.455999999999996 21.02448050479924 C 14.455999999999996 21.32048050479924, 14.45333333333333 21.61381383813257, 14.447999999999997 21.90448050479924 C 14.442666666666662 22.195147171465905, 14.434666666666661 22.48448050479924, 14.423999999999996 22.77248050479924 C 14.407999999999998 23.223147171465907, 14.279999999999998 23.571813838132574, 14.039999999999996 23.81848050479924 C 13.799999999999997 24.065147171465906, 13.470666666666663 24.20848050479924, 13.051999999999996 24.24848050479924 Z M 15.139999999999995 22.77248050479924 C 15.131999999999994 22.343147171465905, 15.126666666666662 21.92648050479924, 15.123999999999995 21.52248050479924 C 15.121333333333329 21.11848050479924, 15.121999999999996 20.723147171465907, 15.125999999999996 20.33648050479924 C 15.129999999999995 19.949813838132574, 15.134666666666662 19.56848050479924, 15.139999999999995 19.19248050479924 C 15.153333333333329 18.752480504799237, 15.277999999999995 18.407147171465905, 15.513999999999996 18.15648050479924 C 15.749999999999996 17.905813838132573, 16.086666666666662 17.76048050479924, 16.523999999999994 17.72048050479924 L 16.523999999999994 18.60848050479924 C 16.32666666666666 18.66448050479924, 16.225333333333328 18.79381383813257, 16.219999999999995 18.99648050479924 C 16.206666666666663 19.36714717146591, 16.19733333333333 19.715147171465908, 16.191999999999997 20.04048050479924 C 16.18666666666666 20.365813838132574, 16.183999999999994 20.68248050479924, 16.183999999999994 20.99048050479924 C 16.183999999999994 21.29848050479924, 16.18666666666666 21.613147171465908, 16.191999999999997 21.93448050479924 C 16.19733333333333 22.25581383813257, 16.206666666666663 22.599147171465905, 16.219999999999995 22.96448050479924 C 16.225333333333328 23.17248050479924, 16.32666666666666 23.304480504799237, 16.523999999999994 23.360480504799238 L 16.523999999999994 24.24848050479924 C 16.086666666666662 24.20848050479924, 15.749999999999996 24.06248050479924, 15.513999999999996 23.81048050479924 C 15.277999999999995 23.558480504799242, 15.153333333333329 23.21248050479924, 15.139999999999995 22.77248050479924 Z M 17.027999999999995 24.24848050479924 L 17.027999999999995 23.35648050479924 C 17.211999999999996 23.303147171465906, 17.310666666666663 23.179147171465907, 17.323999999999995 22.98448050479924 C 17.342666666666663 22.517813838132575, 17.354666666666663 22.069147171465907, 17.359999999999996 21.63848050479924 C 17.36533333333333 21.207813838132573, 17.36533333333333 20.777147171465906, 17.359999999999996 20.34648050479924 C 17.354666666666663 19.91581383813257, 17.342666666666663 19.463147171465906, 17.323999999999995 18.98848050479924 C 17.31866666666666 18.793813838132575, 17.219999999999995 18.667147171465906, 17.027999999999995 18.60848050479924 L 17.027999999999995 17.72048050479924 C 17.45733333333333 17.76048050479924, 17.790666666666663 17.905813838132573, 18.027999999999995 18.15648050479924 C 18.26533333333333 18.407147171465905, 18.38933333333333 18.752480504799237, 18.399999999999995 19.19248050479924 C 18.410666666666664 19.507147171465906, 18.418666666666663 19.81714717146591, 18.423999999999996 20.122480504799242 C 18.42933333333333 20.427813838132575, 18.431999999999995 20.72848050479924, 18.431999999999995 21.02448050479924 C 18.431999999999995 21.32048050479924, 18.42933333333333 21.61381383813257, 18.423999999999996 21.90448050479924 C 18.418666666666663 22.195147171465905, 18.410666666666664 22.48448050479924, 18.399999999999995 22.77248050479924 C 18.383999999999993 23.223147171465907, 18.255999999999993 23.571813838132574, 18.015999999999995 23.81848050479924 C 17.775999999999996 24.065147171465906, 17.446666666666662 24.20848050479924, 17.027999999999995 24.24848050479924 Z M 20.887999999999995 24.18448050479924 L 20.887999999999995 19.38448050479924 L 21.955999999999996 19.38448050479924 L 21.955999999999996 24.18448050479924 Z M 25.111999999999995 24.18448050479924 L 25.111999999999995 20.48448050479924 C 25.111999999999995 20.34314717146591, 25.073999999999995 20.241147171465908, 24.997999999999994 20.17848050479924 C 24.921999999999993 20.11581383813257, 24.818666666666658 20.084480504799238, 24.687999999999995 20.084480504799238 C 24.647999999999996 20.084480504799238, 24.61466666666666 20.088480504799236, 24.587999999999994 20.09648050479924 L 24.587999999999994 19.46448050479924 C 24.662666666666663 19.41648050479924, 24.745333333333328 19.37848050479924, 24.835999999999995 19.35048050479924 C 24.926666666666662 19.322480504799238, 25.029333333333327 19.30848050479924, 25.143999999999995 19.30848050479924 C 25.471999999999994 19.30848050479924, 25.725999999999996 19.406480504799237, 25.905999999999995 19.60248050479924 C 26.085999999999995 19.79848050479924, 26.175999999999995 20.123147171465906, 26.175999999999995 20.57648050479924 L 26.175999999999995 24.18448050479924 Z M 23.015999999999995 24.18448050479924 L 23.015999999999995 20.48448050479924 C 23.015999999999995 20.34848050479924, 22.981999999999992 20.247813838132572, 22.913999999999994 20.18248050479924 C 22.845999999999997 20.117147171465906, 22.74266666666666 20.084480504799238, 22.603999999999996 20.084480504799238 C 22.579999999999995 20.084480504799238, 22.55533333333333 20.085147171465906, 22.529999999999994 20.08648050479924 C 22.504666666666658 20.087813838132572, 22.479999999999993 20.09248050479924, 22.455999999999996 20.10048050479924 L 22.455999999999996 19.48448050479924 C 22.527999999999995 19.425813838132573, 22.61066666666666 19.381813838132572, 22.703999999999994 19.35248050479924 C 22.797333333333327 19.323147171465905, 22.911999999999995 19.30848050479924, 23.047999999999995 19.30848050479924 C 23.375999999999994 19.30848050479924, 23.63133333333333 19.406480504799237, 23.813999999999997 19.60248050479924 C 23.996666666666663 19.79848050479924, 24.087999999999994 20.123147171465906, 24.087999999999994 20.57648050479924 L 24.087999999999994 24.18448050479924 Z M 26.943999999999996 24.18448050479924 L 26.943999999999996 17.78448050479924 L 28.003999999999998 17.78448050479924 L 28.003999999999998 24.18448050479924 Z " stroke="none" fill-rule="nonzero" fill="#000000" fill-opacity="1" transform="matrix(1,0,0,1,5.05,13.314000000000002)" id="text100 ml" />
  <path d="M 0 20.137584403839394 L 8 20.137584403839394 L 8 21.437584403839395 L 0 21.437584403839395 Z " stroke="none" fill-rule="evenodd" fill="#000000" fill-opacity="1" transform="matrix(1,0,0,1,5.05,13.314000000000002)" id="mark120 ml" />
  <path d="M 0 14.940688302879535 L 8 14.940688302879535 L 8 16.240688302879533 L 0 16.240688302879533 Z " stroke="none" fill-rule="evenodd" fill="#000000" fill-opacity="1" transform="matrix(1,0,0,1,5.05,13.314000000000002)" id="mark140 ml" />
  <path d="M 0 9.743792201919694 L 8 9.743792201919694 L 8 11.043792201919695 L 0 11.043792201919695 Z " stroke="none" fill-rule="evenodd" fill="#000000" fill-opacity="1" transform="matrix(1,0,0,1,5.05,13.314000000000002)" id="mark160 ml" />
  <path d="M 0 4.546896100959854 L 8 4.546896100959854 L 8 5.846896100959854 L 0 5.846896100959854 Z " stroke="none" fill-rule="evenodd" fill="#000000" fill-opacity="1" transform="matrix(1,0,0,1,5.05,13.314000000000002)" id="mark180 ml" />
  <path d="M 0 -0.65 L 30 -0.65 L 30 0.65 L 0 0.65 Z " stroke="none" fill-rule="evenodd" fill="#000000" fill-opacity="1" transform="matrix(1,0,0,1,5.05,13.314000000000002)" id="mark200 ml" />
  <path d="M 7.2879999999999985 -1.7999999999999998 C 7.285333333333332 -1.8986666666666663, 7.283333333333331 -1.987333333333333, 7.281999999999998 -2.066 C 7.280666666666665 -2.1446666666666663, 7.279333333333332 -2.2186666666666666, 7.277999999999998 -2.288 C 7.276666666666665 -2.357333333333333, 7.275999999999998 -2.429333333333333, 7.275999999999998 -2.5039999999999996 C 7.275999999999998 -2.5786666666666664, 7.275999999999998 -2.663333333333333, 7.275999999999998 -2.758 C 7.275999999999998 -2.852666666666667, 7.277333333333331 -2.964, 7.2799999999999985 -3.0919999999999996 C 7.2879999999999985 -3.3853333333333335, 7.337999999999997 -3.647333333333333, 7.429999999999998 -3.8779999999999997 C 7.5219999999999985 -4.108666666666667, 7.655999999999998 -4.314666666666667, 7.831999999999998 -4.4959999999999996 C 8.008 -4.677333333333333, 8.225333333333332 -4.838666666666667, 8.483999999999998 -4.98 L 9.015999999999998 -5.268 C 9.202666666666666 -5.3693333333333335, 9.322 -5.491333333333333, 9.373999999999999 -5.634 C 9.425999999999998 -5.776666666666667, 9.455999999999998 -5.910666666666667, 9.463999999999999 -6.036 C 9.474666666666666 -6.182666666666666, 9.480666666666666 -6.339333333333333, 9.482 -6.506 C 9.483333333333333 -6.672666666666667, 9.479999999999999 -6.829333333333334, 9.471999999999998 -6.976 C 9.466666666666665 -7.08, 9.436666666666664 -7.165999999999999, 9.381999999999998 -7.233999999999999 C 9.327333333333332 -7.302, 9.247999999999998 -7.350666666666666, 9.143999999999998 -7.38 L 9.143999999999998 -8.268 C 9.631999999999998 -8.236, 9.982 -8.104666666666667, 10.193999999999999 -7.874 C 10.405999999999999 -7.643333333333333, 10.522666666666666 -7.282666666666666, 10.543999999999999 -6.792 C 10.546666666666665 -6.728, 10.548666666666666 -6.6626666666666665, 10.549999999999997 -6.595999999999999 C 10.551333333333332 -6.529333333333334, 10.551999999999998 -6.464666666666666, 10.551999999999998 -6.402 C 10.551999999999998 -6.339333333333332, 10.551333333333332 -6.277333333333333, 10.549999999999997 -6.216 C 10.548666666666666 -6.1546666666666665, 10.546666666666665 -6.094666666666667, 10.543999999999999 -6.036 C 10.533333333333331 -5.750666666666667, 10.479999999999999 -5.504, 10.383999999999999 -5.295999999999999 C 10.287999999999998 -5.088, 10.157999999999998 -4.908, 9.993999999999998 -4.756 C 9.829999999999998 -4.604, 9.639999999999997 -4.468, 9.423999999999998 -4.348 L 8.819999999999999 -4.02 C 8.705333333333332 -3.9586666666666663, 8.61533333333333 -3.8746666666666663, 8.549999999999997 -3.768 C 8.484666666666664 -3.6613333333333333, 8.437999999999999 -3.548, 8.409999999999998 -3.428 C 8.381999999999998 -3.308, 8.367999999999999 -3.1959999999999997, 8.367999999999999 -3.0919999999999996 L 8.367999999999999 -1.7999999999999998 Z M 7.2959999999999985 -5.84 C 7.290666666666665 -5.957333333333333, 7.286666666666665 -6.071999999999999, 7.283999999999998 -6.184 C 7.2813333333333325 -6.295999999999999, 7.279333333333332 -6.401999999999999, 7.277999999999998 -6.502 C 7.276666666666665 -6.602, 7.277333333333331 -6.698666666666666, 7.2799999999999985 -6.792 C 7.298666666666666 -7.279999999999999, 7.415333333333331 -7.639333333333333, 7.629999999999998 -7.87 C 7.844666666666665 -8.100666666666667, 8.181333333333331 -8.233333333333334, 8.639999999999999 -8.268 L 8.639999999999999 -7.3759999999999994 C 8.543999999999999 -7.346666666666666, 8.473333333333331 -7.3, 8.427999999999997 -7.236 C 8.382666666666664 -7.172, 8.358666666666664 -7.094666666666667, 8.355999999999998 -7.004 C 8.350666666666665 -6.795999999999999, 8.347333333333331 -6.602666666666666, 8.345999999999998 -6.424 C 8.344666666666665 -6.245333333333333, 8.34933333333333 -6.050666666666666, 8.359999999999998 -5.84 Z M 8.871999999999998 -1.7999999999999998 L 8.871999999999998 -2.7319999999999998 L 10.467999999999998 -2.7319999999999998 L 10.467999999999998 -1.7999999999999998 Z M 11.163999999999998 -3.2119999999999997 C 11.155999999999997 -3.641333333333333, 11.150666666666664 -4.058, 11.147999999999998 -4.462 C 11.145333333333332 -4.866, 11.145999999999999 -5.261333333333333, 11.149999999999999 -5.648 C 11.153999999999998 -6.034666666666666, 11.158666666666665 -6.416, 11.163999999999998 -6.792 C 11.177333333333332 -7.231999999999999, 11.301999999999998 -7.577333333333334, 11.537999999999998 -7.828 C 11.773999999999997 -8.078666666666667, 12.110666666666663 -8.224, 12.547999999999998 -8.264 L 12.547999999999998 -7.3759999999999994 C 12.350666666666665 -7.32, 12.249333333333333 -7.190666666666667, 12.243999999999998 -6.9879999999999995 C 12.230666666666664 -6.617333333333333, 12.221333333333332 -6.269333333333333, 12.215999999999998 -5.944 C 12.210666666666665 -5.618666666666666, 12.207999999999998 -5.302, 12.207999999999998 -4.994 C 12.207999999999998 -4.686, 12.210666666666665 -4.371333333333333, 12.215999999999998 -4.05 C 12.221333333333332 -3.7286666666666664, 12.230666666666664 -3.3853333333333326, 12.243999999999998 -3.0199999999999996 C 12.249333333333333 -2.812, 12.350666666666665 -2.6799999999999997, 12.547999999999998 -2.6239999999999997 L 12.547999999999998 -1.7359999999999998 C 12.110666666666663 -1.7759999999999998, 11.773999999999997 -1.9219999999999997, 11.537999999999998 -2.174 C 11.301999999999998 -2.4259999999999997, 11.177333333333332 -2.772, 11.163999999999998 -3.2119999999999997 Z M 13.051999999999998 -1.7359999999999998 L 13.051999999999998 -2.6279999999999997 C 13.235999999999997 -2.681333333333333, 13.334666666666664 -2.8053333333333335, 13.347999999999999 -3 C 13.366666666666664 -3.4666666666666663, 13.378666666666664 -3.915333333333333, 13.383999999999999 -4.346 C 13.389333333333333 -4.776666666666666, 13.389333333333333 -5.207333333333333, 13.383999999999999 -5.638 C 13.378666666666664 -6.068666666666666, 13.366666666666664 -6.521333333333333, 13.347999999999999 -6.9959999999999996 C 13.342666666666666 -7.190666666666667, 13.244 -7.317333333333334, 13.051999999999998 -7.3759999999999994 L 13.051999999999998 -8.264 C 13.481333333333332 -8.224, 13.814666666666664 -8.078666666666667, 14.051999999999998 -7.828 C 14.289333333333332 -7.577333333333334, 14.41333333333333 -7.231999999999999, 14.423999999999998 -6.792 C 14.434666666666665 -6.477333333333332, 14.442666666666664 -6.167333333333333, 14.447999999999999 -5.861999999999999 C 14.453333333333333 -5.556666666666667, 14.456 -5.256, 14.455999999999998 -4.96 C 14.456 -4.664, 14.453333333333333 -4.370666666666667, 14.447999999999999 -4.08 C 14.442666666666664 -3.7893333333333334, 14.434666666666665 -3.5, 14.423999999999998 -3.2119999999999997 C 14.407999999999998 -2.761333333333333, 14.28 -2.4126666666666665, 14.04 -2.166 C 13.799999999999999 -1.9193333333333331, 13.470666666666666 -1.7759999999999998, 13.051999999999998 -1.7359999999999998 Z M 15.139999999999999 -3.2119999999999997 C 15.131999999999998 -3.641333333333333, 15.126666666666665 -4.058, 15.123999999999999 -4.462 C 15.121333333333332 -4.866, 15.122 -5.261333333333333, 15.126 -5.648 C 15.129999999999999 -6.034666666666666, 15.134666666666664 -6.416, 15.139999999999999 -6.792 C 15.153333333333332 -7.231999999999999, 15.277999999999999 -7.577333333333334, 15.514 -7.828 C 15.749999999999998 -8.078666666666667, 16.086666666666666 -8.224, 16.523999999999997 -8.264 L 16.523999999999997 -7.3759999999999994 C 16.326666666666664 -7.32, 16.22533333333333 -7.190666666666667, 16.22 -6.9879999999999995 C 16.206666666666663 -6.617333333333333, 16.197333333333333 -6.269333333333333, 16.192 -5.944 C 16.186666666666664 -5.618666666666666, 16.183999999999997 -5.302, 16.183999999999997 -4.994 C 16.183999999999997 -4.686, 16.186666666666664 -4.371333333333333, 16.192 -4.05 C 16.197333333333333 -3.7286666666666664, 16.206666666666663 -3.3853333333333326, 16.22 -3.0199999999999996 C 16.22533333333333 -2.812, 16.326666666666664 -2.6799999999999997, 16.523999999999997 -2.6239999999999997 L 16.523999999999997 -1.7359999999999998 C 16.086666666666666 -1.7759999999999998, 15.749999999999998 -1.9219999999999997, 15.514 -2.174 C 15.277999999999999 -2.4259999999999997, 15.153333333333332 -2.772, 15.139999999999999 -3.2119999999999997 Z M 17.028 -1.7359999999999998 L 17.028 -2.6279999999999997 C 17.212 -2.681333333333333, 17.310666666666666 -2.8053333333333335, 17.323999999999998 -3 C 17.342666666666666 -3.4666666666666663, 17.354666666666667 -3.915333333333333, 17.36 -4.346 C 17.365333333333332 -4.776666666666666, 17.365333333333332 -5.207333333333333, 17.36 -5.638 C 17.354666666666667 -6.068666666666666, 17.342666666666666 -6.521333333333333, 17.323999999999998 -6.9959999999999996 C 17.318666666666665 -7.190666666666667, 17.22 -7.317333333333334, 17.028 -7.3759999999999994 L 17.028 -8.264 C 17.45733333333333 -8.224, 17.790666666666663 -8.078666666666667, 18.028 -7.828 C 18.265333333333334 -7.577333333333334, 18.389333333333333 -7.231999999999999, 18.4 -6.792 C 18.410666666666664 -6.477333333333332, 18.418666666666667 -6.167333333333333, 18.424 -5.861999999999999 C 18.429333333333332 -5.556666666666667, 18.432 -5.256, 18.432 -4.96 C 18.432 -4.664, 18.429333333333332 -4.370666666666667, 18.424 -4.08 C 18.418666666666667 -3.7893333333333334, 18.410666666666664 -3.5, 18.4 -3.2119999999999997 C 18.384 -2.761333333333333, 18.256 -2.4126666666666665, 18.016 -2.166 C 17.775999999999996 -1.9193333333333331, 17.446666666666665 -1.7759999999999998, 17.028 -1.7359999999999998 Z M 20.887999999999998 -1.7999999999999998 L 20.887999999999998 -6.6 L 21.956 -6.6 L 21.956 -1.7999999999999998 Z M 25.112 -1.7999999999999998 L 25.112 -5.5 C 25.112000000000002 -5.641333333333333, 25.073999999999998 -5.743333333333333, 24.997999999999998 -5.806 C 24.921999999999997 -5.868666666666666, 24.818666666666665 -5.8999999999999995, 24.688 -5.8999999999999995 C 24.648 -5.8999999999999995, 24.614666666666665 -5.896, 24.587999999999997 -5.888 L 24.587999999999997 -6.52 C 24.662666666666667 -6.568, 24.74533333333333 -6.606, 24.836 -6.6339999999999995 C 24.926666666666666 -6.662, 25.029333333333334 -6.676, 25.144 -6.676 C 25.472 -6.676, 25.726 -6.578, 25.906 -6.382000000000001 C 26.086 -6.186, 26.176000000000002 -5.861333333333333, 26.176 -5.4079999999999995 L 26.176 -1.7999999999999998 Z M 23.016 -1.7999999999999998 L 23.016 -5.5 C 23.016 -5.636, 22.982 -5.736666666666666, 22.913999999999998 -5.802 C 22.845999999999997 -5.867333333333333, 22.742666666666665 -5.8999999999999995, 22.604 -5.8999999999999995 C 22.58 -5.8999999999999995, 22.55533333333333 -5.899333333333333, 22.529999999999998 -5.898 C 22.504666666666665 -5.8966666666666665, 22.479999999999997 -5.8919999999999995, 22.456 -5.8839999999999995 L 22.456 -6.5 C 22.528 -6.558666666666667, 22.610666666666667 -6.602666666666668, 22.704 -6.632000000000001 C 22.79733333333333 -6.661333333333333, 22.912 -6.676, 23.048 -6.676 C 23.375999999999998 -6.676, 23.631333333333334 -6.578, 23.814 -6.382000000000001 C 23.996666666666663 -6.186, 24.087999999999994 -5.861333333333333, 24.087999999999997 -5.4079999999999995 L 24.087999999999997 -1.7999999999999998 Z M 26.944 -1.7999999999999998 L 26.944 -8.2 L 28.003999999999998 -8.2 L 28.003999999999998 -1.7999999999999998 Z " stroke="none" fill-rule="nonzero" fill="#000000" fill-opacity="1" transform="matrix(1,0,0,1,5.05,13.314000000000002)" id="text200 ml" />
  <path d="M -5 -13.264000000000001 L 35 -13.264000000000001 L 35 53.50806490863862 L -5 53.50806490863862 Z " stroke="#FF0000" stroke-opacity="1" stroke-width="0.1" stroke-linecap="butt" stroke-linejoin="miter" fill="none" transform="matrix(1,0,0,1,5.05,13.314000000000002)" />
</svg>