<?xml version="1.0" encoding="UTF-8"?>
<svg xmlns:xlink="http://www.w3.org/1999/xlink" viewBox="0 0 35.1 483.33788683576955" version="1.1" style="font-synthesis: none;" width="35.1mm" height="483.33788683576955mm" xmlns="http://www.w3.org/2000/svg">
  <defs />
  <style>	</style>
  <path d="M 0 0 L 35.1 0 L 35.1 483.33788683576955 L 0 483.33788683576955 Z " stroke="none" fill-rule="nonzero" fill="#FFFFFF" fill-opacity="1" transform="matrix(1,0,0,1,0,0)" />
  <path d="M 0 462.45588683576955 L 10 462.45588683576955 L 10 463.95588683576955 L 0 463.95588683576955 Z " stroke="none" fill-rule="evenodd" fill="#000000" fill-opacity="1" transform="matrix(1,0,0,1,5.05,13.314)" id="mark1 l" />
  <path d="M 0 453.0027054717743 L 10 453.0027054717743 L 10 454.5027054717743 L 0 454.5027054717743 Z " stroke="none" fill-rule="evenodd" fill="#000000" fill-opacity="1" transform="matrix(1,0,0,1,5.05,13.314)" id="mark2 l" />
  <path d="M 0 443.549524107779 L 10 443.549524107779 L 10 445.049524107779 L 0 445.049524107779 Z " stroke="none" fill-rule="evenodd" fill="#000000" fill-opacity="1" transform="matrix(1,0,0,1,5.05,13.314)" id="mark3 l" />
  <path d="M 0 434.0963427437837 L 10 434.0963427437837 L 10 435.5963427437837 L 0 435.5963427437837 Z " stroke="none" fill-rule="evenodd" fill="#000000" fill-opacity="1" transform="matrix(1,0,0,1,5.05,13.314)" id="mark4 l" />
  <path d="M 0 424.6431613797884 L 25 424.6431613797884 L 25 426.1431613797884 L 0 426.1431613797884 Z " stroke="none" fill-rule="evenodd" fill="#000000" fill-opacity="1" transform="matrix(1,0,0,1,5.05,13.314)" id="mark5 l" />
  <path d="M 16.18 422.1451613797884 C 16.174666666666667 421.97182804645513, 16.173333333333332 421.8324947131218, 16.176 421.7271613797884 C 16.178666666666665 421.62182804645505, 16.181333333333335 421.519828046455, 16.183999999999997 421.42116137978843 L 17.264 421.42116137978843 C 17.256 421.4984947131218, 17.25 421.5944947131218, 17.246 421.70916137978844 C 17.241999999999997 421.8238280464551, 17.240666666666666 421.93449471312175, 17.241999999999997 422.04116137978843 C 17.243333333333332 422.14782804645506, 17.246666666666666 422.2278280464551, 17.252 422.28116137978844 C 17.262666666666668 422.4011613797884, 17.297333333333334 422.4991613797884, 17.355999999999998 422.5751613797884 C 17.414666666666665 422.6511613797884, 17.497333333333334 422.70516137978836, 17.604 422.7371613797884 L 17.604 423.6291613797884 C 17.110666666666663 423.591828046455, 16.75333333333333 423.45716137978843, 16.532 423.2251613797884 C 16.310666666666666 422.9931613797884, 16.19333333333333 422.63316137978836, 16.18 422.1451613797884 Z M 16.279999999999998 420.8091613797884 L 16.279999999999998 417.16116137978844 L 17.348 417.16116137978844 L 17.348 420.8091613797884 Z M 17.852 420.3851613797884 L 17.852 419.6291613797884 C 17.929333333333332 419.5891613797884, 18.014666666666667 419.5571613797884, 18.107999999999997 419.5331613797884 C 18.20133333333333 419.5091613797884, 18.301333333333332 419.4971613797884, 18.407999999999998 419.4971613797884 C 18.773333333333333 419.4971613797884, 19.047333333333334 419.6124947131217, 19.23 419.8431613797884 C 19.412666666666667 420.0738280464551, 19.514666666666663 420.38782804645507, 19.535999999999998 420.7851613797884 C 19.546666666666667 420.9451613797884, 19.55333333333333 421.1038280464551, 19.555999999999997 421.2611613797884 C 19.558666666666664 421.41849471312173, 19.557333333333332 421.57182804645504, 19.552 421.72116137978844 C 19.546666666666667 421.87049471312173, 19.538666666666668 422.0104947131217, 19.528 422.1411613797884 C 19.482666666666667 422.639828046455, 19.353333333333335 423.0051613797884, 19.14 423.2371613797884 C 18.926666666666666 423.46916137978843, 18.581333333333333 423.59982804645506, 18.104 423.6291613797884 L 18.104 422.7371613797884 C 18.21333333333333 422.7078280464551, 18.296 422.6551613797884, 18.352 422.5791613797884 C 18.408 422.5031613797884, 18.44 422.40382804645515, 18.448 422.28116137978844 C 18.471999999999998 421.99049471312173, 18.485999999999997 421.72916137978837, 18.49 421.4971613797884 C 18.494 421.2651613797884, 18.485333333333333 421.0438280464551, 18.464 420.8331613797884 C 18.447999999999997 420.6784947131218, 18.396666666666665 420.5631613797884, 18.31 420.4871613797884 C 18.223333333333333 420.4111613797884, 18.090666666666664 420.37316137978837, 17.912 420.3731613797884 C 17.901333333333334 420.37316137978837, 17.890666666666668 420.37449471312175, 17.88 420.3771613797884 C 17.86933333333333 420.37982804645503, 17.86 420.3824947131218, 17.852 420.3851613797884 Z M 17.852 418.0931613797884 L 17.852 417.16116137978844 L 19.439999999999998 417.16116137978844 L 19.439999999999998 418.0931613797884 Z M 21.944 423.5611613797884 L 21.944 417.16116137978844 L 23.003999999999998 417.16116137978844 L 23.003999999999998 423.5611613797884 Z " stroke="none" fill-rule="nonzero" fill="#000000" fill-opacity="1" transform="matrix(1,0,0,1,5.05,13.314)" id="text5 l" />
  <path d="M 0 415.1899800157931 L 10 415.1899800157931 L 10 416.6899800157931 L 0 416.6899800157931 Z " stroke="none" fill-rule="evenodd" fill="#000000" fill-opacity="1" transform="matrix(1,0,0,1,5.05,13.314)" id="mark6 l" />
  <path d="M 0 405.7367986517978 L 10 405.7367986517978 L 10 407.2367986517978 L 0 407.2367986517978 Z " stroke="none" fill-rule="evenodd" fill="#000000" fill-opacity="1" transform="matrix(1,0,0,1,5.05,13.314)" id="mark7 l" />
  <path d="M 0 396.2836172878025 L 10 396.2836172878025 L 10 397.7836172878025 L 0 397.7836172878025 Z " stroke="none" fill-rule="evenodd" fill="#000000" fill-opacity="1" transform="matrix(1,0,0,1,5.05,13.314)" id="mark8 l" />
  <path d="M 0 386.8304359238072 L 10 386.8304359238072 L 10 388.3304359238072 L 0 388.3304359238072 Z " stroke="none" fill-rule="evenodd" fill="#000000" fill-opacity="1" transform="matrix(1,0,0,1,5.05,13.314)" id="mark9 l" />
  <path d="M 0 377.3772545598119 L 25 377.3772545598119 L 25 378.8772545598119 L 0 378.8772545598119 Z " stroke="none" fill-rule="evenodd" fill="#000000" fill-opacity="1" transform="matrix(1,0,0,1,5.05,13.314)" id="mark10 l" />
  <path d="M 14.323999999999998 376.3272545598119 L 14.323999999999998 370.88325455981186 L 13.871999999999998 370.88325455981186 L 13.839999999999998 370.50325455981186 L 14.543999999999999 369.9272545598119 L 15.424 369.9272545598119 L 15.424 376.3272545598119 Z M 16.196 374.9152545598119 C 16.188000000000002 374.4859212264786, 16.182666666666666 374.0692545598119, 16.18 373.6652545598119 C 16.177333333333333 373.2612545598119, 16.177999999999997 372.8659212264786, 16.182 372.47925455981186 C 16.186 372.0925878931452, 16.190666666666665 371.7112545598119, 16.196 371.33525455981186 C 16.209333333333333 370.89525455981186, 16.334000000000003 370.54992122647855, 16.57 370.29925455981186 C 16.805999999999997 370.0485878931452, 17.142666666666663 369.9032545598119, 17.58 369.8632545598119 L 17.58 370.75125455981185 C 17.382666666666665 370.80725455981184, 17.281333333333333 370.9365878931452, 17.276 371.1392545598119 C 17.262666666666668 371.5099212264786, 17.253333333333334 371.85792122647854, 17.248 372.18325455981187 C 17.242666666666665 372.5085878931452, 17.24 372.82525455981187, 17.24 373.13325455981186 C 17.24 373.44125455981185, 17.242666666666665 373.75592122647856, 17.248 374.0772545598119 C 17.253333333333334 374.3985878931452, 17.262666666666668 374.74192122647855, 17.276 375.10725455981185 C 17.281333333333333 375.3152545598119, 17.382666666666665 375.4472545598119, 17.58 375.50325455981186 L 17.58 376.3912545598119 C 17.142666666666663 376.3512545598119, 16.805999999999997 376.20525455981186, 16.57 375.95325455981185 C 16.334000000000003 375.70125455981184, 16.209333333333333 375.3552545598119, 16.196 374.9152545598119 Z M 18.084 376.3912545598119 L 18.084 375.4992545598119 C 18.268 375.44592122647856, 18.366666666666667 375.32192122647854, 18.38 375.1272545598119 C 18.398666666666667 374.66058789314525, 18.410666666666668 374.2119212264786, 18.416 373.7812545598119 C 18.421333333333333 373.3505878931452, 18.421333333333333 372.91992122647855, 18.416 372.48925455981185 C 18.410666666666668 372.0585878931452, 18.398666666666667 371.60592122647853, 18.38 371.13125455981185 C 18.374666666666666 370.9365878931452, 18.276 370.80992122647854, 18.084 370.75125455981185 L 18.084 369.8632545598119 C 18.513333333333335 369.9032545598119, 18.846666666666668 370.0485878931452, 19.084 370.29925455981186 C 19.321333333333335 370.54992122647855, 19.445333333333334 370.89525455981186, 19.456 371.33525455981186 C 19.46666666666667 371.64992122647857, 19.474666666666668 371.95992122647857, 19.48 372.26525455981186 C 19.485333333333333 372.5705878931452, 19.488 372.87125455981186, 19.488 373.16725455981185 C 19.488 373.46325455981184, 19.485333333333333 373.75658789314525, 19.48 374.0472545598119 C 19.474666666666668 374.33792122647856, 19.46666666666667 374.6272545598119, 19.456 374.9152545598119 C 19.439999999999998 375.3659212264786, 19.311999999999998 375.7145878931452, 19.072 375.9612545598119 C 18.832 376.20792122647856, 18.502666666666666 376.3512545598119, 18.084 376.3912545598119 Z M 21.944 376.3272545598119 L 21.944 369.9272545598119 L 23.003999999999998 369.9272545598119 L 23.003999999999998 376.3272545598119 Z " stroke="none" fill-rule="nonzero" fill="#000000" fill-opacity="1" transform="matrix(1,0,0,1,5.05,13.314)" id="text10 l" />
  <path d="M 0 367.9240731958166 L 10 367.9240731958166 L 10 369.4240731958166 L 0 369.4240731958166 Z " stroke="none" fill-rule="evenodd" fill="#000000" fill-opacity="1" transform="matrix(1,0,0,1,5.05,13.314)" id="mark11 l" />
  <path d="M 0 358.4708918318213 L 10 358.4708918318213 L 10 359.9708918318213 L 0 359.9708918318213 Z " stroke="none" fill-rule="evenodd" fill="#000000" fill-opacity="1" transform="matrix(1,0,0,1,5.05,13.314)" id="mark12 l" />
  <path d="M 0 349.017710467826 L 10 349.017710467826 L 10 350.517710467826 L 0 350.517710467826 Z " stroke="none" fill-rule="evenodd" fill="#000000" fill-opacity="1" transform="matrix(1,0,0,1,5.05,13.314)" id="mark13 l" />
  <path d="M 0 339.5645291038307 L 10 339.5645291038307 L 10 341.0645291038307 L 0 341.0645291038307 Z " stroke="none" fill-rule="evenodd" fill="#000000" fill-opacity="1" transform="matrix(1,0,0,1,5.05,13.314)" id="mark14 l" />
  <path d="M 0 330.1113477398354 L 25 330.1113477398354 L 25 331.6113477398354 L 0 331.6113477398354 Z " stroke="none" fill-rule="evenodd" fill="#000000" fill-opacity="1" transform="matrix(1,0,0,1,5.05,13.314)" id="mark15 l" />
  <path d="M 14.331999999999999 329.02934773983543 L 14.331999999999999 323.5853477398354 L 13.879999999999999 323.5853477398354 L 13.847999999999999 323.2053477398354 L 14.552 322.62934773983545 L 15.432 322.62934773983545 L 15.432 329.02934773983543 Z M 16.18 327.61334773983543 C 16.174666666666667 327.4400144065021, 16.173333333333332 327.3006810731688, 16.176 327.1953477398354 C 16.178666666666665 327.09001440650206, 16.181333333333335 326.9880144065021, 16.183999999999997 326.88934773983544 L 17.264 326.88934773983544 C 17.256 326.9666810731688, 17.25 327.0626810731688, 17.246 327.17734773983545 C 17.241999999999997 327.2920144065021, 17.240666666666666 327.40268107316876, 17.241999999999997 327.50934773983545 C 17.243333333333332 327.61601440650213, 17.246666666666666 327.6960144065021, 17.252 327.74934773983546 C 17.262666666666668 327.8693477398354, 17.297333333333334 327.9673477398354, 17.355999999999998 328.04334773983544 C 17.414666666666665 328.11934773983546, 17.497333333333334 328.17334773983544, 17.604 328.2053477398354 L 17.604 329.0973477398354 C 17.110666666666663 329.0600144065021, 16.75333333333333 328.92534773983544, 16.532 328.6933477398354 C 16.310666666666666 328.4613477398354, 16.19333333333333 328.10134773983543, 16.18 327.61334773983543 Z M 16.279999999999998 326.2773477398354 L 16.279999999999998 322.62934773983545 L 17.348 322.62934773983545 L 17.348 326.2773477398354 Z M 17.852 325.85334773983544 L 17.852 325.0973477398354 C 17.929333333333332 325.0573477398354, 18.014666666666667 325.0253477398354, 18.107999999999997 325.0013477398354 C 18.20133333333333 324.9773477398354, 18.301333333333332 324.9653477398354, 18.407999999999998 324.9653477398354 C 18.773333333333333 324.9653477398354, 19.047333333333334 325.08068107316876, 19.23 325.3113477398354 C 19.412666666666667 325.54201440650206, 19.514666666666663 325.8560144065021, 19.535999999999998 326.2533477398354 C 19.546666666666667 326.41334773983544, 19.55333333333333 326.5720144065021, 19.555999999999997 326.7293477398354 C 19.558666666666664 326.88668107316875, 19.557333333333332 327.0400144065021, 19.552 327.18934773983545 C 19.546666666666667 327.3386810731688, 19.538666666666668 327.4786810731688, 19.528 327.6093477398354 C 19.482666666666667 328.1080144065021, 19.353333333333335 328.4733477398354, 19.14 328.7053477398354 C 18.926666666666666 328.93734773983545, 18.581333333333333 329.0680144065021, 18.104 329.0973477398354 L 18.104 328.2053477398354 C 18.21333333333333 328.1760144065021, 18.296 328.1233477398354, 18.352 328.0473477398354 C 18.408 327.97134773983544, 18.44 327.8720144065021, 18.448 327.74934773983546 C 18.471999999999998 327.45868107316875, 18.485999999999997 327.19734773983544, 18.49 326.9653477398354 C 18.494 326.73334773983544, 18.485333333333333 326.5120144065021, 18.464 326.3013477398354 C 18.447999999999997 326.1466810731688, 18.396666666666665 326.03134773983544, 18.31 325.9553477398354 C 18.223333333333333 325.87934773983545, 18.090666666666664 325.84134773983544, 17.912 325.84134773983544 C 17.901333333333334 325.84134773983544, 17.890666666666668 325.84268107316876, 17.88 325.8453477398354 C 17.86933333333333 325.8480144065021, 17.86 325.85068107316874, 17.852 325.85334773983544 Z M 17.852 323.5613477398354 L 17.852 322.62934773983545 L 19.439999999999998 322.62934773983545 L 19.439999999999998 323.5613477398354 Z M 21.944 329.02934773983543 L 21.944 322.62934773983545 L 23.003999999999998 322.62934773983545 L 23.003999999999998 329.02934773983543 Z " stroke="none" fill-rule="nonzero" fill="#000000" fill-opacity="1" transform="matrix(1,0,0,1,5.05,13.314)" id="text15 l" />
  <path d="M 0 320.6581663758401 L 10 320.6581663758401 L 10 322.1581663758401 L 0 322.1581663758401 Z " stroke="none" fill-rule="evenodd" fill="#000000" fill-opacity="1" transform="matrix(1,0,0,1,5.05,13.314)" id="mark16 l" />
  <path d="M 0 311.2049850118448 L 10 311.2049850118448 L 10 312.7049850118448 L 0 312.7049850118448 Z " stroke="none" fill-rule="evenodd" fill="#000000" fill-opacity="1" transform="matrix(1,0,0,1,5.05,13.314)" id="mark17 l" />
  <path d="M 0 301.75180364784956 L 10 301.75180364784956 L 10 303.25180364784956 L 0 303.25180364784956 Z " stroke="none" fill-rule="evenodd" fill="#000000" fill-opacity="1" transform="matrix(1,0,0,1,5.05,13.314)" id="mark18 l" />
  <path d="M 0 292.29862228385423 L 10 292.29862228385423 L 10 293.79862228385423 L 0 293.79862228385423 Z " stroke="none" fill-rule="evenodd" fill="#000000" fill-opacity="1" transform="matrix(1,0,0,1,5.05,13.314)" id="mark19 l" />
  <path d="M 0 282.8454409198589 L 25 282.8454409198589 L 25 284.3454409198589 L 0 284.3454409198589 Z " stroke="none" fill-rule="evenodd" fill="#000000" fill-opacity="1" transform="matrix(1,0,0,1,5.05,13.314)" id="mark20 l" />
  <path d="M 12.319999999999999 281.7954409198589 C 12.317333333333334 281.6967742531922, 12.315333333333331 281.60810758652553, 12.313999999999998 281.52944091985887 C 12.312666666666665 281.4507742531922, 12.311333333333334 281.37677425319225, 12.309999999999999 281.3074409198589 C 12.308666666666667 281.23810758652553, 12.308 281.1661075865255, 12.308 281.0914409198589 C 12.308 281.01677425319224, 12.308 280.93210758652555, 12.308 280.83744091985886 C 12.308 280.7427742531922, 12.309333333333335 280.6314409198589, 12.312 280.5034409198589 C 12.32 280.21010758652557, 12.37 279.94810758652557, 12.462 279.7174409198589 C 12.554 279.48677425319227, 12.687999999999999 279.28077425319225, 12.863999999999999 279.09944091985886 C 13.04 278.91810758652554, 13.257333333333333 278.75677425319225, 13.515999999999998 278.6154409198589 L 14.047999999999998 278.3274409198589 C 14.234666666666666 278.2261075865256, 14.354 278.1041075865256, 14.405999999999999 277.9614409198589 C 14.457999999999998 277.8187742531922, 14.488 277.68477425319224, 14.495999999999999 277.5594409198589 C 14.506666666666664 277.4127742531922, 14.512666666666664 277.25610758652556, 14.514 277.0894409198589 C 14.51533333333333 276.9227742531922, 14.511999999999997 276.76610758652555, 14.504 276.6194409198589 C 14.498666666666665 276.5154409198589, 14.468666666666666 276.4294409198589, 14.413999999999998 276.36144091985886 C 14.359333333333332 276.2934409198589, 14.279999999999998 276.24477425319225, 14.175999999999998 276.2154409198589 L 14.175999999999998 275.3274409198589 C 14.663999999999998 275.3594409198589, 15.014 275.4907742531922, 15.225999999999999 275.7214409198589 C 15.437999999999999 275.9521075865255, 15.554666666666666 276.31277425319223, 15.575999999999999 276.8034409198589 C 15.578666666666663 276.8674409198589, 15.580666666666666 276.93277425319224, 15.581999999999999 276.9994409198589 C 15.583333333333332 277.06610758652556, 15.584 277.1307742531922, 15.584 277.1934409198589 C 15.584 277.25610758652556, 15.583333333333332 277.31810758652557, 15.581999999999999 277.3794409198589 C 15.580666666666666 277.4407742531922, 15.578666666666663 277.5007742531922, 15.575999999999999 277.5594409198589 C 15.565333333333331 277.8447742531922, 15.512 278.0914409198589, 15.415999999999999 278.2994409198589 C 15.32 278.5074409198589, 15.19 278.6874409198589, 15.026 278.8394409198589 C 14.862 278.99144091985886, 14.672 279.1274409198589, 14.456 279.2474409198589 L 13.851999999999999 279.57544091985886 C 13.737333333333332 279.63677425319224, 13.647333333333332 279.7207742531922, 13.581999999999999 279.8274409198589 C 13.516666666666666 279.93410758652556, 13.469999999999999 280.0474409198589, 13.441999999999998 280.1674409198589 C 13.413999999999998 280.2874409198589, 13.399999999999999 280.39944091985893, 13.399999999999999 280.5034409198589 L 13.399999999999999 281.7954409198589 Z M 12.328 277.75544091985887 C 12.322666666666667 277.63810758652556, 12.318666666666665 277.5234409198589, 12.315999999999999 277.4114409198589 C 12.313333333333333 277.29944091985885, 12.311333333333334 277.19344091985886, 12.309999999999999 277.0934409198589 C 12.308666666666667 276.9934409198589, 12.309333333333335 276.89677425319223, 12.312 276.8034409198589 C 12.330666666666666 276.3154409198589, 12.447333333333333 275.95610758652555, 12.661999999999999 275.7254409198589 C 12.876666666666665 275.49477425319225, 13.213333333333331 275.36210758652555, 13.671999999999999 275.3274409198589 L 13.671999999999999 276.21944091985887 C 13.576 276.2487742531922, 13.505333333333333 276.2954409198589, 13.459999999999999 276.3594409198589 C 13.414666666666665 276.42344091985893, 13.390666666666664 276.5007742531923, 13.387999999999998 276.5914409198589 C 13.382666666666665 276.79944091985885, 13.379333333333333 276.99277425319224, 13.378 277.17144091985887 C 13.376666666666667 277.35010758652555, 13.381333333333334 277.5447742531922, 13.392 277.75544091985887 Z M 13.904 281.7954409198589 L 13.904 280.8634409198589 L 15.5 280.8634409198589 L 15.5 281.7954409198589 Z M 16.196 280.3834409198589 C 16.188000000000002 279.95410758652554, 16.182666666666666 279.5374409198589, 16.18 279.1334409198589 C 16.177333333333333 278.7294409198589, 16.177999999999997 278.33410758652553, 16.182 277.9474409198589 C 16.186 277.5607742531922, 16.190666666666665 277.1794409198589, 16.196 276.8034409198589 C 16.209333333333333 276.3634409198589, 16.334000000000003 276.01810758652556, 16.57 275.76744091985887 C 16.805999999999997 275.51677425319224, 17.142666666666663 275.3714409198589, 17.58 275.3314409198589 L 17.58 276.21944091985887 C 17.382666666666665 276.27544091985885, 17.281333333333333 276.4047742531922, 17.276 276.6074409198589 C 17.262666666666668 276.97810758652554, 17.253333333333334 277.32610758652555, 17.248 277.6514409198589 C 17.242666666666665 277.9767742531922, 17.24 278.2934409198589, 17.24 278.6014409198589 C 17.24 278.90944091985887, 17.242666666666665 279.2241075865255, 17.248 279.5454409198589 C 17.253333333333334 279.86677425319226, 17.262666666666668 280.21010758652557, 17.276 280.57544091985886 C 17.281333333333333 280.7834409198589, 17.382666666666665 280.9154409198589, 17.58 280.9714409198589 L 17.58 281.8594409198589 C 17.142666666666663 281.8194409198589, 16.805999999999997 281.6734409198589, 16.57 281.42144091985887 C 16.334000000000003 281.16944091985886, 16.209333333333333 280.82344091985885, 16.196 280.3834409198589 Z M 18.084 281.8594409198589 L 18.084 280.9674409198589 C 18.268 280.9141075865256, 18.366666666666667 280.79010758652555, 18.38 280.5954409198589 C 18.398666666666667 280.12877425319226, 18.410666666666668 279.6801075865256, 18.416 279.2494409198589 C 18.421333333333333 278.8187742531922, 18.421333333333333 278.3881075865255, 18.416 277.95744091985887 C 18.410666666666668 277.52677425319223, 18.398666666666667 277.07410758652554, 18.38 276.59944091985886 C 18.374666666666666 276.4047742531922, 18.276 276.27810758652555, 18.084 276.21944091985887 L 18.084 275.3314409198589 C 18.513333333333335 275.3714409198589, 18.846666666666668 275.51677425319224, 19.084 275.76744091985887 C 19.321333333333335 276.01810758652556, 19.445333333333334 276.3634409198589, 19.456 276.8034409198589 C 19.46666666666667 277.1181075865256, 19.474666666666668 277.4281075865256, 19.48 277.7334409198589 C 19.485333333333333 278.03877425319223, 19.488 278.33944091985893, 19.488 278.63544091985887 C 19.488 278.9314409198589, 19.485333333333333 279.2247742531922, 19.48 279.5154409198589 C 19.474666666666668 279.80610758652557, 19.46666666666667 280.0954409198589, 19.456 280.3834409198589 C 19.439999999999998 280.83410758652553, 19.311999999999998 281.18277425319224, 19.072 281.4294409198589 C 18.832 281.6761075865256, 18.502666666666666 281.8194409198589, 18.084 281.8594409198589 Z M 21.944 281.7954409198589 L 21.944 275.3954409198589 L 23.003999999999998 275.3954409198589 L 23.003999999999998 281.7954409198589 Z " stroke="none" fill-rule="nonzero" fill="#000000" fill-opacity="1" transform="matrix(1,0,0,1,5.05,13.314)" id="text20 l" />
  <path d="M 0 273.39225955586363 L 10 273.39225955586363 L 10 274.89225955586363 L 0 274.89225955586363 Z " stroke="none" fill-rule="evenodd" fill="#000000" fill-opacity="1" transform="matrix(1,0,0,1,5.05,13.314)" id="mark21 l" />
  <path d="M 0 263.93907819186836 L 10 263.93907819186836 L 10 265.43907819186836 L 0 265.43907819186836 Z " stroke="none" fill-rule="evenodd" fill="#000000" fill-opacity="1" transform="matrix(1,0,0,1,5.05,13.314)" id="mark22 l" />
  <path d="M 0 254.48589682787303 L 10 254.48589682787303 L 10 255.98589682787303 L 0 255.98589682787303 Z " stroke="none" fill-rule="evenodd" fill="#000000" fill-opacity="1" transform="matrix(1,0,0,1,5.05,13.314)" id="mark23 l" />
  <path d="M 0 245.03271546387774 L 10 245.03271546387774 L 10 246.53271546387774 L 0 246.53271546387774 Z " stroke="none" fill-rule="evenodd" fill="#000000" fill-opacity="1" transform="matrix(1,0,0,1,5.05,13.314)" id="mark24 l" />
  <path d="M 0 235.57953409988244 L 25 235.57953409988244 L 25 237.07953409988244 L 0 237.07953409988244 Z " stroke="none" fill-rule="evenodd" fill="#000000" fill-opacity="1" transform="matrix(1,0,0,1,5.05,13.314)" id="mark25 l" />
  <path d="M 12.328 234.52953409988245 C 12.325333333333333 234.43086743321578, 12.323333333333332 234.34220076654913, 12.322 234.26353409988246 C 12.320666666666666 234.1848674332158, 12.319333333333333 234.1108674332158, 12.318 234.04153409988245 C 12.316666666666666 233.97220076654912, 12.315999999999999 233.90020076654912, 12.316 233.82553409988245 C 12.315999999999999 233.75086743321577, 12.315999999999999 233.66620076654914, 12.316 233.57153409988246 C 12.315999999999999 233.47686743321577, 12.317333333333334 233.36553409988244, 12.32 233.23753409988245 C 12.328 232.9442007665491, 12.378 232.6822007665491, 12.47 232.45153409988245 C 12.562000000000001 232.2208674332158, 12.696 232.01486743321578, 12.872 231.83353409988246 C 13.048 231.65220076654913, 13.265333333333334 231.49086743321578, 13.524000000000001 231.34953409988245 L 14.056000000000001 231.06153409988246 C 14.242666666666668 230.96020076654912, 14.362000000000002 230.8382007665491, 14.414 230.69553409988245 C 14.466000000000001 230.5528674332158, 14.495999999999999 230.41886743321578, 14.504 230.29353409988246 C 14.514666666666667 230.1468674332158, 14.520666666666667 229.99020076654912, 14.522 229.82353409988247 C 14.523333333333333 229.6568674332158, 14.520000000000001 229.50020076654914, 14.512 229.35353409988247 C 14.506666666666666 229.24953409988245, 14.476666666666667 229.16353409988244, 14.422 229.09553409988246 C 14.367333333333335 229.02753409988247, 14.288 228.97886743321578, 14.184000000000001 228.94953409988244 L 14.184000000000001 228.06153409988246 C 14.672 228.09353409988248, 15.022000000000002 228.22486743321582, 15.234 228.45553409988244 C 15.446000000000002 228.68620076654912, 15.562666666666667 229.04686743321577, 15.584 229.53753409988246 C 15.586666666666668 229.60153409988249, 15.588666666666668 229.6668674332158, 15.59 229.73353409988246 C 15.591333333333335 229.80020076654912, 15.592000000000002 229.8648674332158, 15.592 229.92753409988245 C 15.592000000000002 229.9902007665491, 15.591333333333335 230.0522007665491, 15.59 230.11353409988246 C 15.588666666666668 230.17486743321578, 15.586666666666668 230.23486743321578, 15.584 230.29353409988246 C 15.573333333333332 230.5788674332158, 15.52 230.82553409988247, 15.424 231.03353409988244 C 15.328 231.24153409988247, 15.197999999999999 231.42153409988248, 15.033999999999999 231.57353409988247 C 14.87 231.72553409988245, 14.68 231.86153409988242, 14.464 231.98153409988245 L 13.86 232.30953409988246 C 13.745333333333335 232.37086743321578, 13.655333333333335 232.45486743321578, 13.59 232.56153409988246 C 13.524666666666668 232.66820076654912, 13.478000000000002 232.78153409988244, 13.45 232.90153409988244 C 13.422 233.02153409988244, 13.408 233.13353409988247, 13.408 233.23753409988245 L 13.408 234.52953409988245 Z M 12.336 230.48953409988246 C 12.330666666666666 230.3722007665491, 12.326666666666664 230.25753409988243, 12.324 230.14553409988247 C 12.321333333333332 230.03353409988244, 12.319333333333333 229.92753409988245, 12.318 229.82753409988246 C 12.316666666666666 229.72753409988246, 12.317333333333334 229.63086743321577, 12.32 229.53753409988246 C 12.338666666666668 229.04953409988246, 12.455333333333336 228.69020076654914, 12.67 228.45953409988246 C 12.884666666666668 228.22886743321578, 13.221333333333334 228.09620076654912, 13.68 228.06153409988246 L 13.68 228.95353409988246 C 13.584 228.9828674332158, 13.513333333333332 229.02953409988245, 13.468 229.09353409988245 C 13.422666666666668 229.15753409988244, 13.398666666666667 229.23486743321575, 13.396 229.32553409988245 C 13.390666666666666 229.53353409988244, 13.387333333333332 229.7268674332158, 13.386 229.90553409988246 C 13.384666666666666 230.08420076654912, 13.389333333333333 230.2788674332158, 13.4 230.48953409988246 Z M 13.911999999999999 234.52953409988245 L 13.911999999999999 233.59753409988247 L 15.508 233.59753409988247 L 15.508 234.52953409988245 Z M 16.18 233.11353409988246 C 16.174666666666667 232.94020076654914, 16.173333333333332 232.80086743321579, 16.176 232.69553409988245 C 16.178666666666665 232.59020076654912, 16.181333333333335 232.48820076654914, 16.183999999999997 232.38953409988247 L 17.264 232.38953409988247 C 17.256 232.46686743321578, 17.25 232.56286743321579, 17.246 232.67753409988245 C 17.241999999999997 232.79220076654912, 17.240666666666666 232.90286743321576, 17.241999999999997 233.00953409988244 C 17.243333333333332 233.11620076654913, 17.246666666666666 233.1962007665491, 17.252 233.24953409988245 C 17.262666666666668 233.36953409988246, 17.297333333333334 233.46753409988247, 17.355999999999998 233.54353409988246 C 17.414666666666665 233.61953409988246, 17.497333333333334 233.67353409988243, 17.604 233.70553409988244 L 17.604 234.59753409988247 C 17.110666666666663 234.56020076654914, 16.75333333333333 234.42553409988244, 16.532 234.19353409988244 C 16.310666666666666 233.96153409988244, 16.19333333333333 233.60153409988246, 16.18 233.11353409988246 Z M 16.279999999999998 231.77753409988244 L 16.279999999999998 228.12953409988245 L 17.348 228.12953409988245 L 17.348 231.77753409988244 Z M 17.852 231.35353409988247 L 17.852 230.59753409988247 C 17.929333333333332 230.55753409988245, 18.014666666666667 230.52553409988246, 18.107999999999997 230.50153409988246 C 18.20133333333333 230.47753409988246, 18.301333333333332 230.46553409988246, 18.407999999999998 230.46553409988246 C 18.773333333333333 230.46553409988246, 19.047333333333334 230.58086743321581, 19.23 230.81153409988246 C 19.412666666666667 231.04220076654912, 19.514666666666663 231.35620076654914, 19.535999999999998 231.75353409988244 C 19.546666666666667 231.91353409988244, 19.55333333333333 232.07220076654912, 19.555999999999997 232.22953409988244 C 19.558666666666664 232.3868674332158, 19.557333333333332 232.54020076654913, 19.552 232.68953409988245 C 19.546666666666667 232.83886743321577, 19.538666666666668 232.97886743321578, 19.528 233.10953409988247 C 19.482666666666667 233.60820076654915, 19.353333333333335 233.97353409988244, 19.14 234.20553409988244 C 18.926666666666666 234.43753409988244, 18.581333333333333 234.56820076654913, 18.104 234.59753409988247 L 18.104 233.70553409988244 C 18.21333333333333 233.67620076654913, 18.296 233.62353409988245, 18.352 233.54753409988245 C 18.408 233.47153409988246, 18.44 233.37220076654913, 18.448 233.24953409988245 C 18.471999999999998 232.95886743321577, 18.485999999999997 232.69753409988243, 18.49 232.46553409988246 C 18.494 232.23353409988243, 18.485333333333333 232.01220076654909, 18.464 231.80153409988245 C 18.447999999999997 231.6468674332158, 18.396666666666665 231.53153409988244, 18.31 231.45553409988244 C 18.223333333333333 231.37953409988245, 18.090666666666664 231.34153409988247, 17.912 231.34153409988247 C 17.901333333333334 231.34153409988247, 17.890666666666668 231.34286743321582, 17.88 231.34553409988246 C 17.86933333333333 231.3482007665491, 17.86 231.3508674332158, 17.852 231.35353409988247 Z M 17.852 229.06153409988246 L 17.852 228.12953409988245 L 19.439999999999998 228.12953409988245 L 19.439999999999998 229.06153409988246 Z M 21.944 234.52953409988245 L 21.944 228.12953409988245 L 23.003999999999998 228.12953409988245 L 23.003999999999998 234.52953409988245 Z " stroke="none" fill-rule="nonzero" fill="#000000" fill-opacity="1" transform="matrix(1,0,0,1,5.05,13.314)" id="text25 l" />
  <path d="M 0 226.12635273588714 L 10 226.12635273588714 L 10 227.62635273588714 L 0 227.62635273588714 Z " stroke="none" fill-rule="evenodd" fill="#000000" fill-opacity="1" transform="matrix(1,0,0,1,5.05,13.314)" id="mark26 l" />
  <path d="M 0 216.67317137189184 L 10 216.67317137189184 L 10 218.17317137189184 L 0 218.17317137189184 Z " stroke="none" fill-rule="evenodd" fill="#000000" fill-opacity="1" transform="matrix(1,0,0,1,5.05,13.314)" id="mark27 l" />
  <path d="M 0 207.2199900078965 L 10 207.2199900078965 L 10 208.7199900078965 L 0 208.7199900078965 Z " stroke="none" fill-rule="evenodd" fill="#000000" fill-opacity="1" transform="matrix(1,0,0,1,5.05,13.314)" id="mark28 l" />
  <path d="M 0 197.76680864390124 L 10 197.76680864390124 L 10 199.26680864390124 L 0 199.26680864390124 Z " stroke="none" fill-rule="evenodd" fill="#000000" fill-opacity="1" transform="matrix(1,0,0,1,5.05,13.314)" id="mark29 l" />
  <path d="M 0 188.31362727990592 L 25 188.31362727990592 L 25 189.81362727990592 L 0 189.81362727990592 Z " stroke="none" fill-rule="evenodd" fill="#000000" fill-opacity="1" transform="matrix(1,0,0,1,5.05,13.314)" id="mark30 l" />
  <path d="M 12.223999999999998 185.84762727990594 C 12.221333333333334 185.7462939465726, 12.219333333333333 185.6622939465726, 12.218 185.59562727990593 C 12.216666666666667 185.52896061323926, 12.216666666666667 185.46096061323928, 12.218 185.39162727990595 C 12.219333333333333 185.32229394657261, 12.221333333333334 185.23296061323927, 12.223999999999998 185.12362727990595 L 13.303999999999998 185.12362727990595 L 13.303999999999998 185.98762727990592 C 13.303999999999998 186.22496061323926, 13.417333333333332 186.37562727990593, 13.643999999999998 186.43962727990592 L 13.643999999999998 187.33162727990594 C 13.155999999999999 187.29429394657262, 12.800666666666665 187.15962727990592, 12.578 186.92762727990592 C 12.355333333333334 186.69562727990592, 12.237333333333332 186.33562727990594, 12.223999999999998 185.84762727990594 Z M 12.292 181.79562727990594 L 12.292 180.86362727990593 L 15.536 180.86362727990593 L 15.536 181.79562727990594 Z M 14.143999999999998 186.44362727990594 C 14.367999999999999 186.38762727990593, 14.483999999999998 186.23696061323926, 14.491999999999999 185.99162727990594 C 14.497333333333334 185.78896061323928, 14.500666666666666 185.6062939465726, 14.501999999999999 185.44362727990594 C 14.503333333333332 185.28096061323927, 14.498666666666665 185.12362727990595, 14.488 184.97162727990593 C 14.48 184.8142939465726, 14.431999999999999 184.68096061323928, 14.344 184.57162727990593 C 14.256 184.4622939465726, 14.089333333333332 184.4102939465726, 13.844 184.41562727990592 L 13.096 184.42362727990593 L 13.068 183.53162727990593 L 14.027999999999999 182.14762727990592 L 15.216 182.14762727990592 L 14.248 183.49962727990592 L 14.28 183.49962727990592 C 14.712 183.49962727990592, 15.028666666666666 183.6222939465726, 15.229999999999999 183.86762727990595 C 15.431333333333333 184.11296061323927, 15.544 184.4902939465726, 15.568 184.99962727990592 C 15.57333333333333 185.07162727990593, 15.576666666666664 185.14362727990593, 15.578 185.21562727990593 C 15.57933333333333 185.28762727990593, 15.579999999999998 185.3582939465726, 15.579999999999998 185.42762727990592 C 15.579999999999998 185.49696061323925, 15.57933333333333 185.5662939465726, 15.578 185.63562727990592 C 15.576666666666664 185.70496061323928, 15.57333333333333 185.77562727990593, 15.568 185.84762727990594 C 15.549333333333333 186.34362727990595, 15.428666666666665 186.7082939465726, 15.206 186.94162727990593 C 14.983333333333334 187.17496061323925, 14.630666666666666 187.30496061323925, 14.148 187.33162727990594 Z M 16.196 185.85162727990593 C 16.188000000000002 185.4222939465726, 16.182666666666666 185.00562727990592, 16.18 184.60162727990593 C 16.177333333333333 184.19762727990593, 16.177999999999997 183.8022939465726, 16.182 183.41562727990592 C 16.186 183.02896061323926, 16.190666666666665 182.64762727990592, 16.196 182.27162727990594 C 16.209333333333333 181.83162727990594, 16.334000000000003 181.4862939465726, 16.57 181.23562727990594 C 16.805999999999997 180.98496061323928, 17.142666666666663 180.83962727990593, 17.58 180.79962727990593 L 17.58 181.68762727990594 C 17.382666666666665 181.74362727990595, 17.281333333333333 181.8729606132393, 17.276 182.07562727990594 C 17.262666666666668 182.4462939465726, 17.253333333333334 182.7942939465726, 17.248 183.11962727990593 C 17.242666666666665 183.44496061323926, 17.24 183.76162727990595, 17.24 184.06962727990594 C 17.24 184.37762727990594, 17.242666666666665 184.6922939465726, 17.248 185.01362727990593 C 17.253333333333334 185.33496061323928, 17.262666666666668 185.6782939465726, 17.276 186.04362727990593 C 17.281333333333333 186.25162727990593, 17.382666666666665 186.38362727990594, 17.58 186.43962727990592 L 17.58 187.32762727990593 C 17.142666666666663 187.28762727990593, 16.805999999999997 187.14162727990595, 16.57 186.88962727990594 C 16.334000000000003 186.63762727990593, 16.209333333333333 186.29162727990592, 16.196 185.85162727990593 Z M 18.084 187.32762727990593 L 18.084 186.43562727990593 C 18.268 186.38229394657262, 18.366666666666667 186.25829394657262, 18.38 186.06362727990594 C 18.398666666666667 185.59696061323928, 18.410666666666668 185.1482939465726, 18.416 184.71762727990594 C 18.421333333333333 184.28696061323927, 18.421333333333333 183.8562939465726, 18.416 183.42562727990594 C 18.410666666666668 182.99496061323927, 18.398666666666667 182.54229394657258, 18.38 182.06762727990593 C 18.374666666666666 181.87296061323926, 18.276 181.7462939465726, 18.084 181.68762727990594 L 18.084 180.79962727990593 C 18.513333333333335 180.83962727990593, 18.846666666666668 180.98496061323928, 19.084 181.23562727990594 C 19.321333333333335 181.4862939465726, 19.445333333333334 181.83162727990594, 19.456 182.27162727990594 C 19.46666666666667 182.5862939465726, 19.474666666666668 182.8962939465726, 19.48 183.20162727990592 C 19.485333333333333 183.50696061323924, 19.488 183.80762727990592, 19.488 184.10362727990594 C 19.488 184.39962727990593, 19.485333333333333 184.69296061323928, 19.48 184.98362727990593 C 19.474666666666668 185.27429394657258, 19.46666666666667 185.56362727990592, 19.456 185.85162727990593 C 19.439999999999998 186.3022939465726, 19.311999999999998 186.65096061323928, 19.072 186.89762727990592 C 18.832 187.1442939465726, 18.502666666666666 187.28762727990593, 18.084 187.32762727990593 Z M 21.944 187.26362727990593 L 21.944 180.86362727990593 L 23.003999999999998 180.86362727990593 L 23.003999999999998 187.26362727990593 Z " stroke="none" fill-rule="nonzero" fill="#000000" fill-opacity="1" transform="matrix(1,0,0,1,5.05,13.314)" id="text30 l" />
  <path d="M 0 178.86044591591065 L 10 178.86044591591065 L 10 180.36044591591065 L 0 180.36044591591065 Z " stroke="none" fill-rule="evenodd" fill="#000000" fill-opacity="1" transform="matrix(1,0,0,1,5.05,13.314)" id="mark31 l" />
  <path d="M 0 169.40726455191532 L 10 169.40726455191532 L 10 170.90726455191532 L 0 170.90726455191532 Z " stroke="none" fill-rule="evenodd" fill="#000000" fill-opacity="1" transform="matrix(1,0,0,1,5.05,13.314)" id="mark32 l" />
  <path d="M 0 159.95408318792005 L 10 159.95408318792005 L 10 161.45408318792005 L 0 161.45408318792005 Z " stroke="none" fill-rule="evenodd" fill="#000000" fill-opacity="1" transform="matrix(1,0,0,1,5.05,13.314)" id="mark33 l" />
  <path d="M 0 150.50090182392478 L 10 150.50090182392478 L 10 152.00090182392478 L 0 152.00090182392478 Z " stroke="none" fill-rule="evenodd" fill="#000000" fill-opacity="1" transform="matrix(1,0,0,1,5.05,13.314)" id="mark34 l" />
  <path d="M 0 141.04772045992945 L 25 141.04772045992945 L 25 142.54772045992945 L 0 142.54772045992945 Z " stroke="none" fill-rule="evenodd" fill="#000000" fill-opacity="1" transform="matrix(1,0,0,1,5.05,13.314)" id="mark35 l" />
  <path d="M 12.232 138.54972045992946 C 12.229333333333333 138.44838712659612, 12.227333333333334 138.3643871265961, 12.226 138.29772045992945 C 12.224666666666668 138.2310537932628, 12.224666666666668 138.16305379326278, 12.226 138.09372045992944 C 12.227333333333334 138.0243871265961, 12.229333333333333 137.9350537932628, 12.232 137.82572045992947 L 13.312 137.82572045992947 L 13.312 138.68972045992945 C 13.312 138.9270537932628, 13.425333333333333 139.07772045992945, 13.652 139.14172045992945 L 13.652 140.03372045992947 C 13.164 139.99638712659612, 12.808666666666667 139.86172045992944, 12.586 139.62972045992944 C 12.363333333333333 139.39772045992945, 12.245333333333335 139.03772045992946, 12.232 138.54972045992946 Z M 12.3 134.49772045992947 L 12.3 133.56572045992945 L 15.544 133.56572045992945 L 15.544 134.49772045992947 Z M 14.152000000000001 139.14572045992946 C 14.376000000000001 139.08972045992945, 14.492 138.9390537932628, 14.5 138.69372045992947 C 14.505333333333333 138.4910537932628, 14.508666666666667 138.30838712659613, 14.51 138.14572045992946 C 14.511333333333333 137.9830537932628, 14.506666666666668 137.82572045992947, 14.496 137.67372045992946 C 14.488 137.51638712659613, 14.440000000000001 137.38305379326277, 14.352 137.27372045992945 C 14.264 137.16438712659613, 14.097333333333335 137.11238712659613, 13.852 137.11772045992944 L 13.104 137.12572045992945 L 13.076 136.23372045992946 L 14.036 134.84972045992947 L 15.224 134.84972045992947 L 14.256 136.20172045992945 L 14.288 136.20172045992945 C 14.719999999999999 136.20172045992945, 15.036666666666665 136.32438712659612, 15.238 136.56972045992947 C 15.439333333333334 136.8150537932628, 15.552 137.19238712659612, 15.576 137.70172045992945 C 15.581333333333333 137.77372045992945, 15.584666666666667 137.84572045992945, 15.586 137.91772045992946 C 15.587333333333333 137.98972045992946, 15.588000000000001 138.0603871265961, 15.588000000000001 138.12972045992944 C 15.588000000000001 138.19905379326278, 15.587333333333333 138.2683871265961, 15.586 138.33772045992947 C 15.584666666666667 138.40705379326278, 15.581333333333333 138.47772045992946, 15.576 138.54972045992946 C 15.557333333333334 139.04572045992947, 15.436666666666667 139.41038712659613, 15.214 139.64372045992945 C 14.991333333333333 139.87705379326277, 14.638666666666666 140.0070537932628, 14.156 140.03372045992947 Z M 16.18 138.54972045992946 C 16.174666666666667 138.37638712659614, 16.173333333333332 138.23705379326282, 16.176 138.13172045992945 C 16.178666666666665 138.02638712659615, 16.181333333333335 137.92438712659614, 16.183999999999997 137.82572045992947 L 17.264 137.82572045992947 C 17.256 137.90305379326279, 17.25 137.9990537932628, 17.246 138.11372045992945 C 17.241999999999997 138.22838712659612, 17.240666666666666 138.3390537932628, 17.241999999999997 138.44572045992945 C 17.243333333333332 138.5523871265961, 17.246666666666666 138.63238712659611, 17.252 138.68572045992946 C 17.262666666666668 138.80572045992946, 17.297333333333334 138.90372045992945, 17.355999999999998 138.97972045992947 C 17.414666666666665 139.05572045992943, 17.497333333333334 139.10972045992943, 17.604 139.14172045992945 L 17.604 140.03372045992947 C 17.110666666666663 139.99638712659612, 16.75333333333333 139.86172045992944, 16.532 139.62972045992944 C 16.310666666666666 139.39772045992945, 16.19333333333333 139.03772045992946, 16.18 138.54972045992946 Z M 16.279999999999998 137.21372045992945 L 16.279999999999998 133.56572045992945 L 17.348 133.56572045992945 L 17.348 137.21372045992945 Z M 17.852 136.78972045992947 L 17.852 136.03372045992947 C 17.929333333333332 135.99372045992948, 18.014666666666667 135.96172045992947, 18.107999999999997 135.93772045992947 C 18.20133333333333 135.91372045992946, 18.301333333333332 135.90172045992946, 18.407999999999998 135.90172045992946 C 18.773333333333333 135.90172045992946, 19.047333333333334 136.0170537932628, 19.23 136.24772045992947 C 19.412666666666667 136.47838712659612, 19.514666666666663 136.7923871265961, 19.535999999999998 137.18972045992945 C 19.546666666666667 137.34972045992944, 19.55333333333333 137.50838712659612, 19.555999999999997 137.66572045992945 C 19.558666666666664 137.8230537932628, 19.557333333333332 137.97638712659614, 19.552 138.12572045992945 C 19.546666666666667 138.27505379326277, 19.538666666666668 138.41505379326279, 19.528 138.54572045992947 C 19.482666666666667 139.04438712659612, 19.353333333333335 139.40972045992947, 19.14 139.64172045992945 C 18.926666666666666 139.87372045992947, 18.581333333333333 140.00438712659613, 18.104 140.03372045992947 L 18.104 139.14172045992945 C 18.21333333333333 139.11238712659613, 18.296 139.05972045992945, 18.352 138.98372045992946 C 18.408 138.90772045992946, 18.44 138.80838712659613, 18.448 138.68572045992946 C 18.471999999999998 138.39505379326278, 18.485999999999997 138.13372045992946, 18.49 137.90172045992946 C 18.494 137.66972045992947, 18.485333333333333 137.44838712659612, 18.464 137.23772045992945 C 18.447999999999997 137.08305379326276, 18.396666666666665 136.96772045992944, 18.31 136.89172045992945 C 18.223333333333333 136.81572045992945, 18.090666666666664 136.77772045992947, 17.912 136.77772045992947 C 17.901333333333334 136.77772045992947, 17.890666666666668 136.7790537932628, 17.88 136.78172045992946 C 17.86933333333333 136.78438712659613, 17.86 136.7870537932628, 17.852 136.78972045992947 Z M 17.852 134.49772045992947 L 17.852 133.56572045992945 L 19.439999999999998 133.56572045992945 L 19.439999999999998 134.49772045992947 Z M 21.944 139.96572045992946 L 21.944 133.56572045992945 L 23.003999999999998 133.56572045992945 L 23.003999999999998 139.96572045992946 Z " stroke="none" fill-rule="nonzero" fill="#000000" fill-opacity="1" transform="matrix(1,0,0,1,5.05,13.314)" id="text35 l" />
  <path d="M 0 131.59453909593418 L 10 131.59453909593418 L 10 133.09453909593418 L 0 133.09453909593418 Z " stroke="none" fill-rule="evenodd" fill="#000000" fill-opacity="1" transform="matrix(1,0,0,1,5.05,13.314)" id="mark36 l" />
  <path d="M 0 122.14135773193885 L 10 122.14135773193885 L 10 123.64135773193885 L 0 123.64135773193885 Z " stroke="none" fill-rule="evenodd" fill="#000000" fill-opacity="1" transform="matrix(1,0,0,1,5.05,13.314)" id="mark37 l" />
  <path d="M 0 112.68817636794358 L 10 112.68817636794358 L 10 114.18817636794358 L 0 114.18817636794358 Z " stroke="none" fill-rule="evenodd" fill="#000000" fill-opacity="1" transform="matrix(1,0,0,1,5.05,13.314)" id="mark38 l" />
  <path d="M 0 103.23499500394826 L 10 103.23499500394826 L 10 104.73499500394826 L 0 104.73499500394826 Z " stroke="none" fill-rule="evenodd" fill="#000000" fill-opacity="1" transform="matrix(1,0,0,1,5.05,13.314)" id="mark39 l" />
  <path d="M 0 93.78181363995299 L 25 93.78181363995299 L 25 95.28181363995299 L 0 95.28181363995299 Z " stroke="none" fill-rule="evenodd" fill="#000000" fill-opacity="1" transform="matrix(1,0,0,1,5.05,13.314)" id="mark40 l" />
  <path d="M 11.739999999999998 91.04781363995299 L 11.739999999999998 90.17181363995299 L 12.455999999999998 88.29181363995299 L 13.495999999999999 88.29181363995299 L 12.771999999999998 90.12381363995298 L 13.171999999999997 90.12381363995298 L 13.171999999999997 91.04781363995299 Z M 13.675999999999998 92.73181363995299 L 13.675999999999998 86.33181363995298 L 14.683999999999997 86.33181363995298 L 14.683999999999997 92.73181363995299 Z M 15.187999999999999 91.04781363995299 L 15.187999999999999 90.12381363995298 L 15.655999999999999 90.12381363995298 L 15.655999999999999 91.04781363995299 Z M 16.195999999999998 91.31981363995298 C 16.188 90.89048030661965, 16.182666666666666 90.473813639953, 16.18 90.06981363995298 C 16.177333333333333 89.66581363995299, 16.177999999999997 89.27048030661965, 16.182 88.88381363995299 C 16.186 88.49714697328633, 16.190666666666665 88.11581363995299, 16.195999999999998 87.73981363995298 C 16.20933333333333 87.29981363995299, 16.333999999999996 86.95448030661966, 16.569999999999997 86.70381363995298 C 16.805999999999997 86.45314697328632, 17.142666666666663 86.307813639953, 17.58 86.26781363995299 L 17.58 87.155813639953 C 17.382666666666665 87.211813639953, 17.281333333333333 87.34114697328631, 17.275999999999996 87.54381363995299 C 17.262666666666664 87.91448030661965, 17.25333333333333 88.26248030661965, 17.247999999999998 88.58781363995298 C 17.242666666666665 88.91314697328632, 17.24 89.22981363995298, 17.24 89.53781363995299 C 17.24 89.845813639953, 17.242666666666665 90.16048030661966, 17.247999999999998 90.48181363995299 C 17.25333333333333 90.80314697328632, 17.262666666666664 91.14648030661965, 17.275999999999996 91.51181363995299 C 17.281333333333333 91.71981363995299, 17.382666666666665 91.851813639953, 17.58 91.90781363995299 L 17.58 92.79581363995298 C 17.142666666666663 92.75581363995299, 16.805999999999997 92.60981363995299, 16.569999999999997 92.357813639953 C 16.333999999999996 92.105813639953, 16.20933333333333 91.759813639953, 16.195999999999998 91.31981363995298 Z M 18.084 92.79581363995298 L 18.084 91.90381363995299 C 18.268 91.85048030661966, 18.366666666666667 91.72648030661966, 18.38 91.53181363995299 C 18.398666666666664 91.06514697328632, 18.410666666666664 90.61648030661965, 18.415999999999997 90.18581363995298 C 18.42133333333333 89.75514697328632, 18.42133333333333 89.32448030661966, 18.415999999999997 88.893813639953 C 18.410666666666664 88.46314697328633, 18.398666666666664 88.01048030661966, 18.38 87.53581363995299 C 18.374666666666666 87.34114697328633, 18.276 87.21448030661966, 18.084 87.155813639953 L 18.084 86.26781363995299 C 18.513333333333332 86.307813639953, 18.846666666666664 86.45314697328632, 19.083999999999996 86.70381363995298 C 19.32133333333333 86.95448030661966, 19.44533333333333 87.29981363995299, 19.456 87.73981363995298 C 19.466666666666665 88.05448030661965, 19.474666666666664 88.36448030661965, 19.479999999999997 88.66981363995299 C 19.48533333333333 88.97514697328633, 19.488 89.27581363995299, 19.488 89.57181363995299 C 19.488 89.867813639953, 19.48533333333333 90.16114697328632, 19.479999999999997 90.45181363995299 C 19.474666666666664 90.74248030661965, 19.466666666666665 91.03181363995299, 19.456 91.31981363995298 C 19.439999999999998 91.77048030661965, 19.311999999999998 92.11914697328632, 19.072 92.36581363995299 C 18.831999999999997 92.61248030661966, 18.502666666666663 92.75581363995299, 18.084 92.79581363995298 Z M 21.944 92.73181363995299 L 21.944 86.33181363995298 L 23.003999999999998 86.33181363995298 L 23.003999999999998 92.73181363995299 Z " stroke="none" fill-rule="nonzero" fill="#000000" fill-opacity="1" transform="matrix(1,0,0,1,5.05,13.314)" id="text40 l" />
  <path d="M 0 84.32863227595766 L 10 84.32863227595766 L 10 85.82863227595766 L 0 85.82863227595766 Z " stroke="none" fill-rule="evenodd" fill="#000000" fill-opacity="1" transform="matrix(1,0,0,1,5.05,13.314)" id="mark41 l" />
  <path d="M 0 74.87545091196239 L 10 74.87545091196239 L 10 76.37545091196239 L 0 76.37545091196239 Z " stroke="none" fill-rule="evenodd" fill="#000000" fill-opacity="1" transform="matrix(1,0,0,1,5.05,13.314)" id="mark42 l" />
  <path d="M 0 65.42226954796706 L 10 65.42226954796706 L 10 66.92226954796706 L 0 66.92226954796706 Z " stroke="none" fill-rule="evenodd" fill="#000000" fill-opacity="1" transform="matrix(1,0,0,1,5.05,13.314)" id="mark43 l" />
  <path d="M 0 55.96908818397179 L 10 55.96908818397179 L 10 57.46908818397179 L 0 57.46908818397179 Z " stroke="none" fill-rule="evenodd" fill="#000000" fill-opacity="1" transform="matrix(1,0,0,1,5.05,13.314)" id="mark44 l" />
  <path d="M 0 46.515906819976465 L 25 46.515906819976465 L 25 48.015906819976465 L 0 48.015906819976465 Z " stroke="none" fill-rule="evenodd" fill="#000000" fill-opacity="1" transform="matrix(1,0,0,1,5.05,13.314)" id="mark45 l" />
  <path d="M 11.748 43.74990681997647 L 11.748 42.87390681997646 L 12.463999999999999 40.993906819976466 L 13.503999999999998 40.993906819976466 L 12.78 42.82590681997647 L 13.18 42.82590681997647 L 13.18 43.74990681997647 Z M 13.684 45.433906819976464 L 13.684 39.033906819976465 L 14.691999999999998 39.033906819976465 L 14.691999999999998 45.433906819976464 Z M 15.195999999999998 43.74990681997647 L 15.195999999999998 42.82590681997647 L 15.663999999999998 42.82590681997647 L 15.663999999999998 43.74990681997647 Z M 16.18 44.01790681997647 C 16.174666666666667 43.84457348664313, 16.173333333333332 43.705240153309795, 16.176 43.59990681997646 C 16.178666666666665 43.494573486643134, 16.181333333333335 43.39257348664313, 16.183999999999997 43.29390681997646 L 17.264 43.29390681997646 C 17.256 43.3712401533098, 17.25 43.4672401533098, 17.246 43.58190681997647 C 17.241999999999997 43.69657348664313, 17.240666666666666 43.8072401533098, 17.241999999999997 43.91390681997646 C 17.243333333333332 44.02057348664313, 17.246666666666666 44.10057348664313, 17.252 44.15390681997646 C 17.262666666666668 44.27390681997646, 17.297333333333334 44.371906819976466, 17.355999999999998 44.44790681997647 C 17.414666666666665 44.52390681997647, 17.497333333333334 44.57790681997646, 17.604 44.609906819976466 L 17.604 45.50190681997646 C 17.110666666666663 45.46457348664313, 16.75333333333333 45.329906819976465, 16.532 45.097906819976465 C 16.310666666666666 44.865906819976466, 16.19333333333333 44.50590681997647, 16.18 44.01790681997647 Z M 16.279999999999998 42.68190681997646 L 16.279999999999998 39.033906819976465 L 17.348 39.033906819976465 L 17.348 42.68190681997646 Z M 17.852 42.25790681997646 L 17.852 41.50190681997646 C 17.929333333333332 41.46190681997646, 18.014666666666667 41.429906819976466, 18.107999999999997 41.405906819976465 C 18.20133333333333 41.381906819976464, 18.301333333333332 41.369906819976464, 18.407999999999998 41.369906819976464 C 18.773333333333333 41.369906819976464, 19.047333333333334 41.4852401533098, 19.23 41.71590681997647 C 19.412666666666667 41.94657348664313, 19.514666666666663 42.26057348664313, 19.535999999999998 42.65790681997646 C 19.546666666666667 42.817906819976464, 19.55333333333333 42.97657348664313, 19.555999999999997 43.13390681997647 C 19.558666666666664 43.2912401533098, 19.557333333333332 43.44457348664313, 19.552 43.59390681997646 C 19.546666666666667 43.7432401533098, 19.538666666666668 43.8832401533098, 19.528 44.01390681997646 C 19.482666666666667 44.512573486643134, 19.353333333333335 44.87790681997647, 19.14 45.109906819976466 C 18.926666666666666 45.341906819976465, 18.581333333333333 45.47257348664313, 18.104 45.50190681997646 L 18.104 44.609906819976466 C 18.21333333333333 44.58057348664313, 18.296 44.527906819976465, 18.352 44.451906819976465 C 18.408 44.375906819976464, 18.44 44.27657348664313, 18.448 44.15390681997646 C 18.471999999999998 43.863240153309796, 18.485999999999997 43.60190681997646, 18.49 43.369906819976464 C 18.494 43.137906819976465, 18.485333333333333 42.91657348664313, 18.464 42.70590681997646 C 18.447999999999997 42.55124015330979, 18.396666666666665 42.435906819976466, 18.31 42.359906819976466 C 18.223333333333333 42.283906819976465, 18.090666666666664 42.24590681997646, 17.912 42.24590681997646 C 17.901333333333334 42.24590681997646, 17.890666666666668 42.2472401533098, 17.88 42.24990681997647 C 17.86933333333333 42.25257348664313, 17.86 42.2552401533098, 17.852 42.25790681997646 Z M 17.852 39.96590681997647 L 17.852 39.033906819976465 L 19.439999999999998 39.033906819976465 L 19.439999999999998 39.96590681997647 Z M 21.944 45.433906819976464 L 21.944 39.033906819976465 L 23.003999999999998 39.033906819976465 L 23.003999999999998 45.433906819976464 Z " stroke="none" fill-rule="nonzero" fill="#000000" fill-opacity="1" transform="matrix(1,0,0,1,5.05,13.314)" id="text45 l" />
  <path d="M 0 37.062725455981195 L 10 37.062725455981195 L 10 38.562725455981195 L 0 38.562725455981195 Z " stroke="none" fill-rule="evenodd" fill="#000000" fill-opacity="1" transform="matrix(1,0,0,1,5.05,13.314)" id="mark46 l" />
  <path d="M 0 27.609544091985867 L 10 27.609544091985867 L 10 29.109544091985867 L 0 29.109544091985867 Z " stroke="none" fill-rule="evenodd" fill="#000000" fill-opacity="1" transform="matrix(1,0,0,1,5.05,13.314)" id="mark47 l" />
  <path d="M 0 18.156362727990597 L 10 18.156362727990597 L 10 19.656362727990597 L 0 19.656362727990597 Z " stroke="none" fill-rule="evenodd" fill="#000000" fill-opacity="1" transform="matrix(1,0,0,1,5.05,13.314)" id="mark48 l" />
  <path d="M 0 8.70318136399527 L 10 8.70318136399527 L 10 10.20318136399527 L 0 10.20318136399527 Z " stroke="none" fill-rule="evenodd" fill="#000000" fill-opacity="1" transform="matrix(1,0,0,1,5.05,13.314)" id="mark49 l" />
  <path d="M 0 -0.75 L 25 -0.75 L 25 0.75 L 0 0.75 Z " stroke="none" fill-rule="evenodd" fill="#000000" fill-opacity="1" transform="matrix(1,0,0,1,5.05,13.314)" id="mark50 l" />
  <path d="M 12.204 -3.2159999999999997 C 12.198666666666668 -3.389333333333333, 12.197333333333333 -3.528666666666667, 12.2 -3.634 C 12.202666666666667 -3.7393333333333336, 12.205333333333336 -3.841333333333333, 12.208 -3.94 L 13.288 -3.94 C 13.280000000000001 -3.8626666666666667, 13.274000000000001 -3.7666666666666666, 13.27 -3.6519999999999997 C 13.265999999999998 -3.5373333333333328, 13.264666666666667 -3.4266666666666667, 13.266 -3.32 C 13.267333333333333 -3.213333333333334, 13.270666666666667 -3.1333333333333337, 13.276 -3.08 C 13.286666666666665 -2.96, 13.321333333333332 -2.862, 13.379999999999999 -2.7859999999999996 C 13.438666666666666 -2.71, 13.521333333333335 -2.6559999999999997, 13.628 -2.6239999999999997 L 13.628 -1.7319999999999998 C 13.134666666666668 -1.7693333333333332, 12.777333333333335 -1.904, 12.556 -2.1359999999999997 C 12.334666666666667 -2.368, 12.217333333333332 -2.7279999999999998, 12.204 -3.2159999999999997 Z M 12.304 -4.552 L 12.304 -8.2 L 13.372 -8.2 L 13.372 -4.552 Z M 13.876 -4.976 L 13.876 -5.731999999999999 C 13.953333333333333 -5.771999999999999, 14.038666666666668 -5.804, 14.132 -5.828 C 14.225333333333333 -5.852, 14.325333333333333 -5.864, 14.432 -5.864 C 14.797333333333334 -5.864, 15.071333333333332 -5.748666666666667, 15.254 -5.518 C 15.436666666666667 -5.287333333333333, 15.538666666666668 -4.973333333333333, 15.56 -4.576 C 15.570666666666668 -4.416, 15.577333333333334 -4.257333333333333, 15.58 -4.1 C 15.582666666666666 -3.9426666666666668, 15.581333333333333 -3.7893333333333334, 15.576 -3.6399999999999997 C 15.570666666666666 -3.490666666666667, 15.562666666666665 -3.3506666666666667, 15.552 -3.2199999999999998 C 15.506666666666668 -2.721333333333333, 15.377333333333333 -2.356, 15.164 -2.1239999999999997 C 14.950666666666667 -1.892, 14.605333333333332 -1.7613333333333332, 14.128 -1.7319999999999998 L 14.128 -2.6239999999999997 C 14.237333333333334 -2.653333333333333, 14.32 -2.7059999999999995, 14.376 -2.782 C 14.432 -2.8579999999999997, 14.464 -2.957333333333333, 14.472 -3.08 C 14.495999999999999 -3.3706666666666667, 14.509999999999998 -3.6319999999999997, 14.514 -3.864 C 14.518 -4.096, 14.509333333333334 -4.317333333333333, 14.488 -4.5280000000000005 C 14.472000000000001 -4.682666666666667, 14.420666666666666 -4.798, 14.334 -4.874 C 14.247333333333334 -4.949999999999999, 14.114666666666666 -4.9879999999999995, 13.936 -4.9879999999999995 C 13.925333333333333 -4.9879999999999995, 13.914666666666665 -4.986666666666666, 13.904 -4.984 C 13.893333333333334 -4.981333333333334, 13.884 -4.978666666666667, 13.876 -4.976 Z M 13.876 -7.268 L 13.876 -8.2 L 15.464 -8.2 L 15.464 -7.268 Z M 16.196 -3.2119999999999997 C 16.188000000000002 -3.641333333333333, 16.182666666666666 -4.058, 16.18 -4.462 C 16.177333333333333 -4.866, 16.177999999999997 -5.261333333333333, 16.182 -5.648 C 16.186 -6.034666666666666, 16.190666666666665 -6.416, 16.196 -6.792 C 16.209333333333333 -7.231999999999999, 16.334000000000003 -7.577333333333334, 16.57 -7.828 C 16.805999999999997 -8.078666666666667, 17.142666666666663 -8.224, 17.58 -8.264 L 17.58 -7.3759999999999994 C 17.382666666666665 -7.32, 17.281333333333333 -7.190666666666667, 17.276 -6.9879999999999995 C 17.262666666666668 -6.617333333333333, 17.253333333333334 -6.269333333333333, 17.248 -5.944 C 17.242666666666665 -5.618666666666666, 17.24 -5.302, 17.24 -4.994 C 17.24 -4.686, 17.242666666666665 -4.371333333333333, 17.248 -4.05 C 17.253333333333334 -3.7286666666666664, 17.262666666666668 -3.3853333333333326, 17.276 -3.0199999999999996 C 17.281333333333333 -2.812, 17.382666666666665 -2.6799999999999997, 17.58 -2.6239999999999997 L 17.58 -1.7359999999999998 C 17.142666666666663 -1.7759999999999998, 16.805999999999997 -1.9219999999999997, 16.57 -2.174 C 16.334000000000003 -2.4259999999999997, 16.209333333333333 -2.772, 16.196 -3.2119999999999997 Z M 18.084 -1.7359999999999998 L 18.084 -2.6279999999999997 C 18.268 -2.681333333333333, 18.366666666666667 -2.8053333333333335, 18.38 -3 C 18.398666666666667 -3.4666666666666663, 18.410666666666668 -3.915333333333333, 18.416 -4.346 C 18.421333333333333 -4.776666666666666, 18.421333333333333 -5.207333333333333, 18.416 -5.638 C 18.410666666666668 -6.068666666666666, 18.398666666666667 -6.521333333333333, 18.38 -6.9959999999999996 C 18.374666666666666 -7.190666666666667, 18.276 -7.317333333333334, 18.084 -7.3759999999999994 L 18.084 -8.264 C 18.513333333333335 -8.224, 18.846666666666668 -8.078666666666667, 19.084 -7.828 C 19.321333333333335 -7.577333333333334, 19.445333333333334 -7.231999999999999, 19.456 -6.792 C 19.46666666666667 -6.477333333333332, 19.474666666666668 -6.167333333333333, 19.48 -5.861999999999999 C 19.485333333333333 -5.556666666666667, 19.488 -5.256, 19.488 -4.96 C 19.488 -4.664, 19.485333333333333 -4.370666666666667, 19.48 -4.08 C 19.474666666666668 -3.7893333333333334, 19.46666666666667 -3.5, 19.456 -3.2119999999999997 C 19.439999999999998 -2.761333333333333, 19.311999999999998 -2.4126666666666665, 19.072 -2.166 C 18.832 -1.9193333333333331, 18.502666666666666 -1.7759999999999998, 18.084 -1.7359999999999998 Z M 21.944 -1.7999999999999998 L 21.944 -8.2 L 23.003999999999998 -8.2 L 23.003999999999998 -1.7999999999999998 Z " stroke="none" fill-rule="nonzero" fill="#000000" fill-opacity="1" transform="matrix(1,0,0,1,5.05,13.314)" id="text50 l" />
  <path d="M -5 -13.264 L 30 -13.264 L 30 469.9738868357695 L -5 469.9738868357695 Z " stroke="#FF0000" stroke-opacity="1" stroke-width="0.1" stroke-linecap="butt" stroke-linejoin="miter" fill="none" transform="matrix(1,0,0,1,5.05,13.314)" />
</svg>