<?xml version="1.0" encoding="UTF-8"?>
<svg xmlns:xlink="http://www.w3.org/1999/xlink" viewBox="0 0 35.1 444.4232588028695" version="1.1" style="font-synthesis: none;" width="35.1mm" height="444.4232588028695mm" xmlns="http://www.w3.org/2000/svg">
  <defs />
  <style>	</style>
  <path d="M 0 0 L 35.1 0 L 35.1 444.4232588028695 L 0 444.4232588028695 Z " stroke="none" fill-rule="nonzero" fill="#FFFFFF" fill-opacity="1" transform="matrix(1,0,0,1,0,0)" />
  <path d="M 0 423.5412588028695 L 10 423.5412588028695 L 10 425.0412588028695 L 0 425.0412588028695 Z " stroke="none" fill-rule="evenodd" fill="#000000" fill-opacity="1" transform="matrix(1,0,0,1,5.05,13.314)" id="mark1 l" />
  <path d="M 0 408.9105257407016 L 10 408.9105257407016 L 10 410.4105257407016 L 0 410.4105257407016 Z " stroke="none" fill-rule="evenodd" fill="#000000" fill-opacity="1" transform="matrix(1,0,0,1,5.05,13.314)" id="mark2 l" />
  <path d="M 0 394.2797926785337 L 10 394.2797926785337 L 10 395.7797926785337 L 0 395.7797926785337 Z " stroke="none" fill-rule="evenodd" fill="#000000" fill-opacity="1" transform="matrix(1,0,0,1,5.05,13.314)" id="mark3 l" />
  <path d="M 0 379.6490596163658 L 10 379.6490596163658 L 10 381.1490596163658 L 0 381.1490596163658 Z " stroke="none" fill-rule="evenodd" fill="#000000" fill-opacity="1" transform="matrix(1,0,0,1,5.05,13.314)" id="mark4 l" />
  <path d="M 0 365.0183265541978 L 25 365.0183265541978 L 25 366.5183265541978 L 0 366.5183265541978 Z " stroke="none" fill-rule="evenodd" fill="#000000" fill-opacity="1" transform="matrix(1,0,0,1,5.05,13.314)" id="mark5 l" />
  <path d="M 16.18 362.5203265541978 C 16.174666666666667 362.3469932208645, 16.173333333333332 362.2076598875311, 16.176 362.1023265541978 C 16.178666666666665 361.9969932208645, 16.181333333333335 361.8949932208645, 16.183999999999997 361.79632655419783 L 17.264 361.79632655419783 C 17.256 361.8736598875312, 17.25 361.9696598875312, 17.246 362.08432655419784 C 17.241999999999997 362.1989932208645, 17.240666666666666 362.30965988753115, 17.241999999999997 362.41632655419784 C 17.243333333333332 362.52299322086446, 17.246666666666666 362.6029932208645, 17.252 362.65632655419785 C 17.262666666666668 362.7763265541978, 17.297333333333334 362.8743265541978, 17.355999999999998 362.95032655419783 C 17.414666666666665 363.0263265541978, 17.497333333333334 363.0803265541978, 17.604 363.1123265541978 L 17.604 364.0043265541978 C 17.110666666666663 363.9669932208645, 16.75333333333333 363.83232655419783, 16.532 363.6003265541978 C 16.310666666666666 363.3683265541978, 16.19333333333333 363.0083265541978, 16.18 362.5203265541978 Z M 16.279999999999998 361.1843265541978 L 16.279999999999998 357.53632655419784 L 17.348 357.53632655419784 L 17.348 361.1843265541978 Z M 17.852 360.76032655419783 L 17.852 360.0043265541978 C 17.929333333333332 359.9643265541978, 18.014666666666667 359.9323265541978, 18.107999999999997 359.9083265541978 C 18.20133333333333 359.8843265541978, 18.301333333333332 359.8723265541978, 18.407999999999998 359.8723265541978 C 18.773333333333333 359.8723265541978, 19.047333333333334 359.98765988753115, 19.23 360.2183265541978 C 19.412666666666667 360.44899322086445, 19.514666666666663 360.7629932208645, 19.535999999999998 361.1603265541978 C 19.546666666666667 361.32032655419783, 19.55333333333333 361.4789932208645, 19.555999999999997 361.6363265541978 C 19.558666666666664 361.79365988753113, 19.557333333333332 361.9469932208645, 19.552 362.09632655419784 C 19.546666666666667 362.2456598875312, 19.538666666666668 362.3856598875312, 19.528 362.5163265541978 C 19.482666666666667 363.0149932208645, 19.353333333333335 363.38032655419784, 19.14 363.6123265541978 C 18.926666666666666 363.8443265541978, 18.581333333333333 363.97499322086446, 18.104 364.0043265541978 L 18.104 363.1123265541978 C 18.21333333333333 363.08299322086447, 18.296 363.0303265541978, 18.352 362.9543265541978 C 18.408 362.87832655419777, 18.44 362.7789932208645, 18.448 362.65632655419785 C 18.471999999999998 362.36565988753114, 18.485999999999997 362.1043265541978, 18.49 361.8723265541978 C 18.494 361.6403265541978, 18.485333333333333 361.41899322086454, 18.464 361.2083265541978 C 18.447999999999997 361.0536598875311, 18.396666666666665 360.93832655419783, 18.31 360.8623265541978 C 18.223333333333333 360.78632655419784, 18.090666666666664 360.74832655419783, 17.912 360.74832655419783 C 17.901333333333334 360.74832655419783, 17.890666666666668 360.74965988753115, 17.88 360.7523265541978 C 17.86933333333333 360.7549932208645, 17.86 360.75765988753113, 17.852 360.76032655419783 Z M 17.852 358.4683265541978 L 17.852 357.53632655419784 L 19.439999999999998 357.53632655419784 L 19.439999999999998 358.4683265541978 Z M 21.944 363.9363265541978 L 21.944 357.53632655419784 L 23.003999999999998 357.53632655419784 L 23.003999999999998 363.9363265541978 Z " stroke="none" fill-rule="nonzero" fill="#000000" fill-opacity="1" transform="matrix(1,0,0,1,5.05,13.314)" id="text5 l" />
  <path d="M 0 350.3875934920299 L 10 350.3875934920299 L 10 351.8875934920299 L 0 351.8875934920299 Z " stroke="none" fill-rule="evenodd" fill="#000000" fill-opacity="1" transform="matrix(1,0,0,1,5.05,13.314)" id="mark6 l" />
  <path d="M 0 335.756860429862 L 10 335.756860429862 L 10 337.256860429862 L 0 337.256860429862 Z " stroke="none" fill-rule="evenodd" fill="#000000" fill-opacity="1" transform="matrix(1,0,0,1,5.05,13.314)" id="mark7 l" />
  <path d="M 0 321.1261273676941 L 10 321.1261273676941 L 10 322.6261273676941 L 0 322.6261273676941 Z " stroke="none" fill-rule="evenodd" fill="#000000" fill-opacity="1" transform="matrix(1,0,0,1,5.05,13.314)" id="mark8 l" />
  <path d="M 0 306.4953943055262 L 10 306.4953943055262 L 10 307.9953943055262 L 0 307.9953943055262 Z " stroke="none" fill-rule="evenodd" fill="#000000" fill-opacity="1" transform="matrix(1,0,0,1,5.05,13.314)" id="mark9 l" />
  <path d="M 0 291.8646612433582 L 25 291.8646612433582 L 25 293.3646612433582 L 0 293.3646612433582 Z " stroke="none" fill-rule="evenodd" fill="#000000" fill-opacity="1" transform="matrix(1,0,0,1,5.05,13.314)" id="mark10 l" />
  <path d="M 14.323999999999998 290.8146612433582 L 14.323999999999998 285.3706612433582 L 13.871999999999998 285.3706612433582 L 13.839999999999998 284.9906612433582 L 14.543999999999999 284.41466124335824 L 15.424 284.41466124335824 L 15.424 290.8146612433582 Z M 16.196 289.40266124335824 C 16.188000000000002 288.9733279100249, 16.182666666666666 288.55666124335823, 16.18 288.15266124335824 C 16.177333333333333 287.74866124335824, 16.177999999999997 287.3533279100249, 16.182 286.9666612433582 C 16.186 286.57999457669155, 16.190666666666665 286.19866124335823, 16.196 285.8226612433582 C 16.209333333333333 285.3826612433582, 16.334000000000003 285.0373279100249, 16.57 284.7866612433582 C 16.805999999999997 284.53599457669156, 17.142666666666663 284.3906612433582, 17.58 284.3506612433582 L 17.58 285.2386612433582 C 17.382666666666665 285.2946612433582, 17.281333333333333 285.42399457669154, 17.276 285.6266612433582 C 17.262666666666668 285.99732791002486, 17.253333333333334 286.3453279100249, 17.248 286.6706612433582 C 17.242666666666665 286.99599457669154, 17.24 287.3126612433582, 17.24 287.6206612433582 C 17.24 287.9286612433582, 17.242666666666665 288.24332791002485, 17.248 288.5646612433582 C 17.253333333333334 288.8859945766916, 17.262666666666668 289.2293279100249, 17.276 289.5946612433582 C 17.281333333333333 289.8026612433582, 17.382666666666665 289.93466124335816, 17.58 289.9906612433582 L 17.58 290.87866124335824 C 17.142666666666663 290.8386612433582, 16.805999999999997 290.6926612433582, 16.57 290.4406612433582 C 16.334000000000003 290.1886612433582, 16.209333333333333 289.84266124335824, 16.196 289.40266124335824 Z M 18.084 290.87866124335824 L 18.084 289.98666124335824 C 18.268 289.9333279100249, 18.366666666666667 289.8093279100249, 18.38 289.6146612433582 C 18.398666666666667 289.1479945766916, 18.410666666666668 288.6993279100249, 18.416 288.2686612433582 C 18.421333333333333 287.83799457669153, 18.421333333333333 287.4073279100249, 18.416 286.9766612433582 C 18.410666666666668 286.54599457669156, 18.398666666666667 286.09332791002487, 18.38 285.6186612433582 C 18.374666666666666 285.42399457669154, 18.276 285.2973279100249, 18.084 285.2386612433582 L 18.084 284.3506612433582 C 18.513333333333335 284.3906612433582, 18.846666666666668 284.53599457669156, 19.084 284.7866612433582 C 19.321333333333335 285.0373279100249, 19.445333333333334 285.3826612433582, 19.456 285.8226612433582 C 19.46666666666667 286.1373279100249, 19.474666666666668 286.4473279100249, 19.48 286.7526612433582 C 19.485333333333333 287.05799457669156, 19.488 287.3586612433582, 19.488 287.6546612433582 C 19.488 287.9506612433582, 19.485333333333333 288.24399457669153, 19.48 288.53466124335824 C 19.474666666666668 288.8253279100249, 19.46666666666667 289.1146612433582, 19.456 289.40266124335824 C 19.439999999999998 289.8533279100249, 19.311999999999998 290.20199457669156, 19.072 290.44866124335823 C 18.832 290.6953279100249, 18.502666666666666 290.8386612433582, 18.084 290.87866124335824 Z M 21.944 290.8146612433582 L 21.944 284.41466124335824 L 23.003999999999998 284.41466124335824 L 23.003999999999998 290.8146612433582 Z " stroke="none" fill-rule="nonzero" fill="#000000" fill-opacity="1" transform="matrix(1,0,0,1,5.05,13.314)" id="text10 l" />
  <path d="M 0 277.2339281811903 L 10 277.2339281811903 L 10 278.7339281811903 L 0 278.7339281811903 Z " stroke="none" fill-rule="evenodd" fill="#000000" fill-opacity="1" transform="matrix(1,0,0,1,5.05,13.314)" id="mark11 l" />
  <path d="M 0 262.6031951190224 L 10 262.6031951190224 L 10 264.1031951190224 L 0 264.1031951190224 Z " stroke="none" fill-rule="evenodd" fill="#000000" fill-opacity="1" transform="matrix(1,0,0,1,5.05,13.314)" id="mark12 l" />
  <path d="M 0 247.97246205685454 L 10 247.97246205685454 L 10 249.47246205685454 L 0 249.47246205685454 Z " stroke="none" fill-rule="evenodd" fill="#000000" fill-opacity="1" transform="matrix(1,0,0,1,5.05,13.314)" id="mark13 l" />
  <path d="M 0 233.3417289946866 L 10 233.3417289946866 L 10 234.8417289946866 L 0 234.8417289946866 Z " stroke="none" fill-rule="evenodd" fill="#000000" fill-opacity="1" transform="matrix(1,0,0,1,5.05,13.314)" id="mark14 l" />
  <path d="M 0 218.7109959325187 L 25 218.7109959325187 L 25 220.2109959325187 L 0 220.2109959325187 Z " stroke="none" fill-rule="evenodd" fill="#000000" fill-opacity="1" transform="matrix(1,0,0,1,5.05,13.314)" id="mark15 l" />
  <path d="M 14.331999999999999 217.6289959325187 L 14.331999999999999 212.18499593251872 L 13.879999999999999 212.18499593251872 L 13.847999999999999 211.8049959325187 L 14.552 211.2289959325187 L 15.432 211.2289959325187 L 15.432 217.6289959325187 Z M 16.18 216.2129959325187 C 16.174666666666667 216.0396625991854, 16.173333333333332 215.90032926585206, 16.176 215.7949959325187 C 16.178666666666665 215.6896625991854, 16.181333333333335 215.5876625991854, 16.183999999999997 215.48899593251872 L 17.264 215.48899593251872 C 17.256 215.56632926585203, 17.25 215.662329265852, 17.246 215.7769959325187 C 17.241999999999997 215.89166259918534, 17.240666666666666 216.00232926585204, 17.241999999999997 216.1089959325187 C 17.243333333333332 216.21566259918535, 17.246666666666666 216.29566259918536, 17.252 216.3489959325187 C 17.262666666666668 216.4689959325187, 17.297333333333334 216.5669959325187, 17.355999999999998 216.64299593251872 C 17.414666666666665 216.71899593251868, 17.497333333333334 216.7729959325187, 17.604 216.8049959325187 L 17.604 217.69699593251872 C 17.110666666666663 217.65966259918537, 16.75333333333333 217.52499593251872, 16.532 217.2929959325187 C 16.310666666666666 217.06099593251872, 16.19333333333333 216.7009959325187, 16.18 216.2129959325187 Z M 16.279999999999998 214.8769959325187 L 16.279999999999998 211.2289959325187 L 17.348 211.2289959325187 L 17.348 214.8769959325187 Z M 17.852 214.45299593251872 L 17.852 213.69699593251872 C 17.929333333333332 213.65699593251873, 18.014666666666667 213.62499593251871, 18.107999999999997 213.6009959325187 C 18.20133333333333 213.5769959325187, 18.301333333333332 213.5649959325187, 18.407999999999998 213.5649959325187 C 18.773333333333333 213.5649959325187, 19.047333333333334 213.68032926585204, 19.23 213.91099593251872 C 19.412666666666667 214.1416625991854, 19.514666666666663 214.45566259918536, 19.535999999999998 214.8529959325187 C 19.546666666666667 215.01299593251872, 19.55333333333333 215.17166259918537, 19.555999999999997 215.3289959325187 C 19.558666666666664 215.48632926585205, 19.557333333333332 215.63966259918539, 19.552 215.7889959325187 C 19.546666666666667 215.93832926585202, 19.538666666666668 216.078329265852, 19.528 216.20899593251872 C 19.482666666666667 216.70766259918537, 19.353333333333335 217.07299593251872, 19.14 217.3049959325187 C 18.926666666666666 217.53699593251872, 18.581333333333333 217.6676625991854, 18.104 217.69699593251872 L 18.104 216.8049959325187 C 18.21333333333333 216.77566259918535, 18.296 216.7229959325187, 18.352 216.6469959325187 C 18.408 216.5709959325187, 18.44 216.47166259918538, 18.448 216.3489959325187 C 18.471999999999998 216.05832926585202, 18.485999999999997 215.7969959325187, 18.49 215.5649959325187 C 18.494 215.3329959325187, 18.485333333333333 215.11166259918537, 18.464 214.9009959325187 C 18.447999999999997 214.746329265852, 18.396666666666665 214.63099593251872, 18.31 214.5549959325187 C 18.223333333333333 214.47899593251873, 18.090666666666664 214.44099593251872, 17.912 214.44099593251872 C 17.901333333333334 214.44099593251872, 17.890666666666668 214.44232926585204, 17.88 214.4449959325187 C 17.86933333333333 214.44766259918538, 17.86 214.45032926585202, 17.852 214.45299593251872 Z M 17.852 212.16099593251872 L 17.852 211.2289959325187 L 19.439999999999998 211.2289959325187 L 19.439999999999998 212.16099593251872 Z M 21.944 217.6289959325187 L 21.944 211.2289959325187 L 23.003999999999998 211.2289959325187 L 23.003999999999998 217.6289959325187 Z " stroke="none" fill-rule="nonzero" fill="#000000" fill-opacity="1" transform="matrix(1,0,0,1,5.05,13.314)" id="text15 l" />
  <path d="M 0 204.0802628703508 L 10 204.0802628703508 L 10 205.5802628703508 L 0 205.5802628703508 Z " stroke="none" fill-rule="evenodd" fill="#000000" fill-opacity="1" transform="matrix(1,0,0,1,5.05,13.314)" id="mark16 l" />
  <path d="M 0 189.4495298081829 L 10 189.4495298081829 L 10 190.9495298081829 L 0 190.9495298081829 Z " stroke="none" fill-rule="evenodd" fill="#000000" fill-opacity="1" transform="matrix(1,0,0,1,5.05,13.314)" id="mark17 l" />
  <path d="M 0 174.81879674601498 L 10 174.81879674601498 L 10 176.31879674601498 L 0 176.31879674601498 Z " stroke="none" fill-rule="evenodd" fill="#000000" fill-opacity="1" transform="matrix(1,0,0,1,5.05,13.314)" id="mark18 l" />
  <path d="M 0 160.18806368384708 L 10 160.18806368384708 L 10 161.68806368384708 L 0 161.68806368384708 Z " stroke="none" fill-rule="evenodd" fill="#000000" fill-opacity="1" transform="matrix(1,0,0,1,5.05,13.314)" id="mark19 l" />
  <path d="M 0 145.5573306216791 L 25 145.5573306216791 L 25 147.0573306216791 L 0 147.0573306216791 Z " stroke="none" fill-rule="evenodd" fill="#000000" fill-opacity="1" transform="matrix(1,0,0,1,5.05,13.314)" id="mark20 l" />
  <path d="M 12.319999999999999 144.50733062167913 C 12.317333333333334 144.40866395501246, 12.315333333333331 144.3199972883458, 12.313999999999998 144.24133062167914 C 12.312666666666665 144.16266395501248, 12.311333333333334 144.08866395501246, 12.309999999999999 144.01933062167913 C 12.308666666666667 143.9499972883458, 12.308 143.8779972883458, 12.308 143.80333062167912 C 12.308 143.72866395501245, 12.308 143.6439972883458, 12.308 143.54933062167913 C 12.308 143.45466395501248, 12.309333333333335 143.34333062167914, 12.312 143.21533062167913 C 12.32 142.9219972883458, 12.37 142.6599972883458, 12.462 142.42933062167913 C 12.554 142.19866395501245, 12.687999999999999 141.99266395501246, 12.863999999999999 141.81133062167913 C 13.04 141.6299972883458, 13.257333333333333 141.46866395501246, 13.515999999999998 141.32733062167912 L 14.047999999999998 141.03933062167914 C 14.234666666666666 140.9379972883458, 14.354 140.81599728834578, 14.405999999999999 140.67333062167913 C 14.457999999999998 140.53066395501247, 14.488 140.39666395501246, 14.495999999999999 140.27133062167914 C 14.506666666666664 140.12466395501247, 14.512666666666664 139.9679972883458, 14.514 139.80133062167914 C 14.51533333333333 139.63466395501248, 14.511999999999997 139.47799728834582, 14.504 139.33133062167914 C 14.498666666666665 139.22733062167913, 14.468666666666666 139.14133062167912, 14.413999999999998 139.07333062167913 C 14.359333333333332 139.00533062167915, 14.279999999999998 138.95666395501246, 14.175999999999998 138.92733062167912 L 14.175999999999998 138.03933062167914 C 14.663999999999998 138.07133062167915, 15.014 138.20266395501247, 15.225999999999999 138.43333062167912 C 15.437999999999999 138.6639972883458, 15.554666666666666 139.02466395501244, 15.575999999999999 139.51533062167914 C 15.578666666666663 139.57933062167916, 15.580666666666666 139.64466395501248, 15.581999999999999 139.71133062167914 C 15.583333333333332 139.7779972883458, 15.584 139.84266395501248, 15.584 139.90533062167913 C 15.584 139.96799728834577, 15.583333333333332 140.02999728834578, 15.581999999999999 140.09133062167913 C 15.580666666666666 140.15266395501246, 15.578666666666663 140.21266395501246, 15.575999999999999 140.27133062167914 C 15.565333333333331 140.55666395501248, 15.512 140.80333062167912, 15.415999999999999 141.01133062167912 C 15.32 141.21933062167912, 15.19 141.39933062167913, 15.026 141.55133062167914 C 14.862 141.70333062167913, 14.672 141.83933062167912, 14.456 141.95933062167913 L 13.851999999999999 142.28733062167913 C 13.737333333333332 142.34866395501246, 13.647333333333332 142.43266395501246, 13.581999999999999 142.53933062167914 C 13.516666666666666 142.6459972883458, 13.469999999999999 142.7593306216791, 13.441999999999998 142.87933062167912 C 13.413999999999998 142.99933062167912, 13.399999999999999 143.11133062167912, 13.399999999999999 143.21533062167913 L 13.399999999999999 144.50733062167913 Z M 12.328 140.46733062167914 C 12.322666666666667 140.3499972883458, 12.318666666666665 140.23533062167914, 12.315999999999999 140.12333062167914 C 12.313333333333333 140.01133062167915, 12.311333333333334 139.90533062167913, 12.309999999999999 139.80533062167913 C 12.308666666666667 139.70533062167914, 12.309333333333335 139.60866395501245, 12.312 139.51533062167914 C 12.330666666666666 139.02733062167914, 12.447333333333333 138.66799728834582, 12.661999999999999 138.43733062167914 C 12.876666666666665 138.20666395501246, 13.213333333333331 138.0739972883458, 13.671999999999999 138.03933062167914 L 13.671999999999999 138.93133062167914 C 13.576 138.96066395501245, 13.505333333333333 139.00733062167913, 13.459999999999999 139.07133062167912 C 13.414666666666665 139.13533062167912, 13.390666666666664 139.21266395501246, 13.387999999999998 139.30333062167912 C 13.382666666666665 139.51133062167912, 13.379333333333333 139.70466395501248, 13.378 139.88333062167914 C 13.376666666666667 140.0619972883458, 13.381333333333334 140.25666395501247, 13.392 140.46733062167914 Z M 13.904 144.50733062167913 L 13.904 143.57533062167914 L 15.5 143.57533062167914 L 15.5 144.50733062167913 Z M 16.196 143.09533062167912 C 16.188000000000002 142.6659972883458, 16.182666666666666 142.24933062167912, 16.18 141.84533062167912 C 16.177333333333333 141.44133062167913, 16.177999999999997 141.0459972883458, 16.182 140.65933062167912 C 16.186 140.27266395501246, 16.190666666666665 139.89133062167912, 16.196 139.51533062167914 C 16.209333333333333 139.07533062167914, 16.334000000000003 138.7299972883458, 16.57 138.47933062167914 C 16.805999999999997 138.22866395501248, 17.142666666666663 138.08333062167912, 17.58 138.04333062167913 L 17.58 138.93133062167914 C 17.382666666666665 138.98733062167915, 17.281333333333333 139.11666395501248, 17.276 139.31933062167914 C 17.262666666666668 139.6899972883458, 17.253333333333334 140.0379972883458, 17.248 140.36333062167913 C 17.242666666666665 140.68866395501246, 17.24 141.00533062167915, 17.24 141.31333062167914 C 17.24 141.62133062167914, 17.242666666666665 141.9359972883458, 17.248 142.25733062167913 C 17.253333333333334 142.57866395501247, 17.262666666666668 142.9219972883458, 17.276 143.28733062167913 C 17.281333333333333 143.49533062167913, 17.382666666666665 143.62733062167914, 17.58 143.68333062167912 L 17.58 144.57133062167912 C 17.142666666666663 144.53133062167913, 16.805999999999997 144.38533062167915, 16.57 144.13333062167914 C 16.334000000000003 143.88133062167913, 16.209333333333333 143.53533062167912, 16.196 143.09533062167912 Z M 18.084 144.57133062167912 L 18.084 143.67933062167913 C 18.268 143.62599728834581, 18.366666666666667 143.50199728834582, 18.38 143.30733062167914 C 18.398666666666667 142.84066395501247, 18.410666666666668 142.3919972883458, 18.416 141.96133062167914 C 18.421333333333333 141.53066395501247, 18.421333333333333 141.0999972883458, 18.416 140.66933062167914 C 18.410666666666668 140.23866395501247, 18.398666666666667 139.78599728834578, 18.38 139.31133062167913 C 18.374666666666666 139.11666395501246, 18.276 138.9899972883458, 18.084 138.93133062167914 L 18.084 138.04333062167913 C 18.513333333333335 138.08333062167912, 18.846666666666668 138.22866395501248, 19.084 138.47933062167914 C 19.321333333333335 138.7299972883458, 19.445333333333334 139.07533062167914, 19.456 139.51533062167914 C 19.46666666666667 139.8299972883458, 19.474666666666668 140.1399972883458, 19.48 140.44533062167912 C 19.485333333333333 140.75066395501244, 19.488 141.0513306216791, 19.488 141.34733062167913 C 19.488 141.64333062167913, 19.485333333333333 141.93666395501248, 19.48 142.22733062167913 C 19.474666666666668 142.51799728834578, 19.46666666666667 142.8073306216791, 19.456 143.09533062167912 C 19.439999999999998 143.5459972883458, 19.311999999999998 143.89466395501248, 19.072 144.14133062167912 C 18.832 144.3879972883458, 18.502666666666666 144.53133062167913, 18.084 144.57133062167912 Z M 21.944 144.50733062167913 L 21.944 138.10733062167913 L 23.003999999999998 138.10733062167913 L 23.003999999999998 144.50733062167913 Z " stroke="none" fill-rule="nonzero" fill="#000000" fill-opacity="1" transform="matrix(1,0,0,1,5.05,13.314)" id="text20 l" />
  <path d="M 0 130.9265975595112 L 10 130.9265975595112 L 10 132.4265975595112 L 0 132.4265975595112 Z " stroke="none" fill-rule="evenodd" fill="#000000" fill-opacity="1" transform="matrix(1,0,0,1,5.05,13.314)" id="mark21 l" />
  <path d="M 0 116.2958644973433 L 10 116.2958644973433 L 10 117.7958644973433 L 0 117.7958644973433 Z " stroke="none" fill-rule="evenodd" fill="#000000" fill-opacity="1" transform="matrix(1,0,0,1,5.05,13.314)" id="mark22 l" />
  <path d="M 0 101.6651314351754 L 10 101.6651314351754 L 10 103.1651314351754 L 0 103.1651314351754 Z " stroke="none" fill-rule="evenodd" fill="#000000" fill-opacity="1" transform="matrix(1,0,0,1,5.05,13.314)" id="mark23 l" />
  <path d="M 0 87.03439837300749 L 10 87.03439837300749 L 10 88.53439837300749 L 0 88.53439837300749 Z " stroke="none" fill-rule="evenodd" fill="#000000" fill-opacity="1" transform="matrix(1,0,0,1,5.05,13.314)" id="mark24 l" />
  <path d="M 0 72.40366531083959 L 25 72.40366531083959 L 25 73.90366531083959 L 0 73.90366531083959 Z " stroke="none" fill-rule="evenodd" fill="#000000" fill-opacity="1" transform="matrix(1,0,0,1,5.05,13.314)" id="mark25 l" />
  <path d="M 12.328 71.35366531083959 C 12.325333333333333 71.25499864417293, 12.323333333333332 71.16633197750626, 12.322 71.08766531083958 C 12.320666666666666 71.00899864417292, 12.319333333333333 70.93499864417292, 12.318 70.86566531083959 C 12.316666666666666 70.79633197750626, 12.315999999999999 70.72433197750627, 12.316 70.6496653108396 C 12.315999999999999 70.57499864417292, 12.315999999999999 70.49033197750626, 12.316 70.39566531083959 C 12.315999999999999 70.30099864417292, 12.317333333333334 70.18966531083959, 12.32 70.06166531083959 C 12.328 69.76833197750625, 12.378 69.50633197750625, 12.47 69.27566531083959 C 12.562000000000001 69.04499864417292, 12.696 68.83899864417292, 12.872 68.65766531083959 C 13.048 68.47633197750625, 13.265333333333334 68.31499864417292, 13.524000000000001 68.17366531083958 L 14.056000000000001 67.88566531083958 C 14.242666666666668 67.78433197750624, 14.362000000000002 67.66233197750626, 14.414 67.51966531083959 C 14.466000000000001 67.37699864417291, 14.495999999999999 67.24299864417293, 14.504 67.11766531083958 C 14.514666666666667 66.97099864417291, 14.520666666666667 66.81433197750624, 14.522 66.64766531083959 C 14.523333333333333 66.48099864417293, 14.520000000000001 66.32433197750626, 14.512 66.17766531083959 C 14.506666666666666 66.0736653108396, 14.476666666666667 65.98766531083959, 14.422 65.91966531083959 C 14.367333333333335 65.85166531083959, 14.288 65.80299864417292, 14.184000000000001 65.77366531083959 L 14.184000000000001 64.88566531083958 C 14.672 64.9176653108396, 15.022000000000002 65.04899864417293, 15.234 65.27966531083959 C 15.446000000000002 65.51033197750625, 15.562666666666667 65.87099864417293, 15.584 66.36166531083958 C 15.586666666666668 66.42566531083959, 15.588666666666668 66.49099864417292, 15.59 66.55766531083958 C 15.591333333333335 66.62433197750624, 15.592000000000002 66.68899864417293, 15.592 66.75166531083958 C 15.592000000000002 66.81433197750626, 15.591333333333335 66.87633197750625, 15.59 66.93766531083959 C 15.588666666666668 66.99899864417293, 15.586666666666668 67.05899864417293, 15.584 67.11766531083958 C 15.573333333333332 67.40299864417292, 15.52 67.6496653108396, 15.424 67.8576653108396 C 15.328 68.06566531083959, 15.197999999999999 68.24566531083958, 15.033999999999999 68.39766531083959 C 14.87 68.54966531083959, 14.68 68.6856653108396, 14.464 68.80566531083959 L 13.86 69.13366531083959 C 13.745333333333335 69.19499864417293, 13.655333333333335 69.27899864417293, 13.59 69.38566531083958 C 13.524666666666668 69.49233197750624, 13.478000000000002 69.60566531083958, 13.45 69.72566531083959 C 13.422 69.84566531083959, 13.408 69.95766531083959, 13.408 70.06166531083959 L 13.408 71.35366531083959 Z M 12.336 67.31366531083958 C 12.330666666666666 67.19633197750626, 12.326666666666664 67.0816653108396, 12.324 66.96966531083959 C 12.321333333333332 66.85766531083958, 12.319333333333333 66.75166531083958, 12.318 66.65166531083959 C 12.316666666666666 66.55166531083958, 12.317333333333334 66.45499864417292, 12.32 66.36166531083958 C 12.338666666666668 65.87366531083958, 12.455333333333336 65.51433197750626, 12.67 65.28366531083958 C 12.884666666666668 65.05299864417293, 13.221333333333334 64.92033197750627, 13.68 64.88566531083958 L 13.68 65.7776653108396 C 13.584 65.80699864417292, 13.513333333333332 65.85366531083959, 13.468 65.9176653108396 C 13.422666666666668 65.98166531083959, 13.398666666666667 66.05899864417293, 13.396 66.1496653108396 C 13.390666666666666 66.3576653108396, 13.387333333333332 66.55099864417292, 13.386 66.7296653108396 C 13.384666666666666 66.90833197750626, 13.389333333333333 67.10299864417293, 13.4 67.31366531083958 Z M 13.911999999999999 71.35366531083959 L 13.911999999999999 70.42166531083959 L 15.508 70.42166531083959 L 15.508 71.35366531083959 Z M 16.18 69.93766531083959 C 16.174666666666667 69.76433197750626, 16.173333333333332 69.62499864417292, 16.176 69.51966531083959 C 16.178666666666665 69.41433197750625, 16.181333333333335 69.31233197750626, 16.183999999999997 69.21366531083959 L 17.264 69.21366531083959 C 17.256 69.29099864417293, 17.25 69.38699864417292, 17.246 69.50166531083958 C 17.241999999999997 69.61633197750625, 17.240666666666666 69.72699864417292, 17.241999999999997 69.83366531083959 C 17.243333333333332 69.94033197750626, 17.246666666666666 70.02033197750626, 17.252 70.07366531083959 C 17.262666666666668 70.19366531083959, 17.297333333333334 70.29166531083959, 17.355999999999998 70.36766531083958 C 17.414666666666665 70.44366531083959, 17.497333333333334 70.4976653108396, 17.604 70.52966531083959 L 17.604 71.42166531083959 C 17.110666666666663 71.38433197750625, 16.75333333333333 71.24966531083959, 16.532 71.01766531083959 C 16.310666666666666 70.78566531083959, 16.19333333333333 70.42566531083959, 16.18 69.93766531083959 Z M 16.279999999999998 68.60166531083959 L 16.279999999999998 64.95366531083958 L 17.348 64.95366531083958 L 17.348 68.60166531083959 Z M 17.852 68.17766531083959 L 17.852 67.42166531083959 C 17.929333333333332 67.38166531083958, 18.014666666666667 67.34966531083958, 18.107999999999997 67.32566531083958 C 18.20133333333333 67.30166531083958, 18.301333333333332 67.28966531083958, 18.407999999999998 67.28966531083958 C 18.773333333333333 67.28966531083958, 19.047333333333334 67.40499864417292, 19.23 67.63566531083958 C 19.412666666666667 67.86633197750625, 19.514666666666663 68.18033197750626, 19.535999999999998 68.57766531083959 C 19.546666666666667 68.73766531083959, 19.55333333333333 68.89633197750625, 19.555999999999997 69.05366531083959 C 19.558666666666664 69.21099864417292, 19.557333333333332 69.36433197750625, 19.552 69.51366531083958 C 19.546666666666667 69.66299864417292, 19.538666666666668 69.80299864417292, 19.528 69.93366531083959 C 19.482666666666667 70.43233197750625, 19.353333333333335 70.79766531083959, 19.14 71.02966531083959 C 18.926666666666666 71.26166531083959, 18.581333333333333 71.39233197750626, 18.104 71.42166531083959 L 18.104 70.52966531083959 C 18.21333333333333 70.50033197750626, 18.296 70.4476653108396, 18.352 70.37166531083959 C 18.408 70.29566531083958, 18.44 70.19633197750625, 18.448 70.07366531083959 C 18.471999999999998 69.78299864417292, 18.485999999999997 69.5216653108396, 18.49 69.28966531083958 C 18.494 69.05766531083958, 18.485333333333333 68.83633197750626, 18.464 68.6256653108396 C 18.447999999999997 68.47099864417294, 18.396666666666665 68.3556653108396, 18.31 68.27966531083959 C 18.223333333333333 68.20366531083958, 18.090666666666664 68.16566531083959, 17.912 68.16566531083959 C 17.901333333333334 68.16566531083959, 17.890666666666668 68.16699864417292, 17.88 68.16966531083959 C 17.86933333333333 68.17233197750625, 17.86 68.17499864417292, 17.852 68.17766531083959 Z M 17.852 65.88566531083958 L 17.852 64.95366531083958 L 19.439999999999998 64.95366531083958 L 19.439999999999998 65.88566531083958 Z M 21.944 71.35366531083959 L 21.944 64.95366531083958 L 23.003999999999998 64.95366531083958 L 23.003999999999998 71.35366531083959 Z " stroke="none" fill-rule="nonzero" fill="#000000" fill-opacity="1" transform="matrix(1,0,0,1,5.05,13.314)" id="text25 l" />
  <path d="M 0 57.77293224867168 L 10 57.77293224867168 L 10 59.27293224867168 L 0 59.27293224867168 Z " stroke="none" fill-rule="evenodd" fill="#000000" fill-opacity="1" transform="matrix(1,0,0,1,5.05,13.314)" id="mark26 l" />
  <path d="M 0 43.142199186503774 L 10 43.142199186503774 L 10 44.642199186503774 L 0 44.642199186503774 Z " stroke="none" fill-rule="evenodd" fill="#000000" fill-opacity="1" transform="matrix(1,0,0,1,5.05,13.314)" id="mark27 l" />
  <path d="M 0 28.51146612433581 L 10 28.51146612433581 L 10 30.01146612433581 L 0 30.01146612433581 Z " stroke="none" fill-rule="evenodd" fill="#000000" fill-opacity="1" transform="matrix(1,0,0,1,5.05,13.314)" id="mark28 l" />
  <path d="M 0 13.880733062167906 L 10 13.880733062167906 L 10 15.380733062167906 L 0 15.380733062167906 Z " stroke="none" fill-rule="evenodd" fill="#000000" fill-opacity="1" transform="matrix(1,0,0,1,5.05,13.314)" id="mark29 l" />
  <path d="M 0 -0.75 L 25 -0.75 L 25 0.75 L 0 0.75 Z " stroke="none" fill-rule="evenodd" fill="#000000" fill-opacity="1" transform="matrix(1,0,0,1,5.05,13.314)" id="mark30 l" />
  <path d="M 12.223999999999998 -3.2159999999999997 C 12.221333333333334 -3.317333333333333, 12.219333333333333 -3.4013333333333335, 12.218 -3.468 C 12.216666666666667 -3.5346666666666664, 12.216666666666667 -3.602666666666666, 12.218 -3.6719999999999997 C 12.219333333333333 -3.7413333333333334, 12.221333333333334 -3.8306666666666667, 12.223999999999998 -3.94 L 13.303999999999998 -3.94 L 13.303999999999998 -3.0759999999999996 C 13.303999999999998 -2.8386666666666667, 13.417333333333332 -2.6879999999999997, 13.643999999999998 -2.6239999999999997 L 13.643999999999998 -1.7319999999999998 C 13.155999999999999 -1.7693333333333332, 12.800666666666665 -1.904, 12.578 -2.1359999999999997 C 12.355333333333334 -2.368, 12.237333333333332 -2.7279999999999998, 12.223999999999998 -3.2159999999999997 Z M 12.292 -7.268 L 12.292 -8.2 L 15.536 -8.2 L 15.536 -7.268 Z M 14.143999999999998 -2.6199999999999997 C 14.367999999999999 -2.6759999999999997, 14.483999999999998 -2.826666666666666, 14.491999999999999 -3.072 C 14.497333333333334 -3.2746666666666666, 14.500666666666666 -3.4573333333333336, 14.501999999999999 -3.62 C 14.503333333333332 -3.7826666666666666, 14.498666666666665 -3.94, 14.488 -4.092 C 14.48 -4.2493333333333325, 14.431999999999999 -4.382666666666666, 14.344 -4.492 C 14.256 -4.601333333333333, 14.089333333333332 -4.653333333333332, 13.844 -4.648 L 13.096 -4.64 L 13.068 -5.532 L 14.027999999999999 -6.9159999999999995 L 15.216 -6.9159999999999995 L 14.248 -5.564 L 14.28 -5.564 C 14.712 -5.564, 15.028666666666666 -5.441333333333334, 15.229999999999999 -5.196 C 15.431333333333333 -4.950666666666666, 15.544 -4.573333333333332, 15.568 -4.064 C 15.57333333333333 -3.992, 15.576666666666664 -3.92, 15.578 -3.848 C 15.57933333333333 -3.776, 15.579999999999998 -3.705333333333333, 15.579999999999998 -3.6359999999999997 C 15.579999999999998 -3.5666666666666664, 15.57933333333333 -3.4973333333333336, 15.578 -3.428 C 15.576666666666664 -3.3586666666666662, 15.57333333333333 -3.2879999999999994, 15.568 -3.2159999999999997 C 15.549333333333333 -2.7199999999999998, 15.428666666666665 -2.3553333333333333, 15.206 -2.122 C 14.983333333333334 -1.8886666666666665, 14.630666666666666 -1.7586666666666664, 14.148 -1.7319999999999998 Z M 16.196 -3.2119999999999997 C 16.188000000000002 -3.641333333333333, 16.182666666666666 -4.058, 16.18 -4.462 C 16.177333333333333 -4.866, 16.177999999999997 -5.261333333333333, 16.182 -5.648 C 16.186 -6.034666666666666, 16.190666666666665 -6.416, 16.196 -6.792 C 16.209333333333333 -7.231999999999999, 16.334000000000003 -7.577333333333334, 16.57 -7.828 C 16.805999999999997 -8.078666666666667, 17.142666666666663 -8.224, 17.58 -8.264 L 17.58 -7.3759999999999994 C 17.382666666666665 -7.32, 17.281333333333333 -7.190666666666667, 17.276 -6.9879999999999995 C 17.262666666666668 -6.617333333333333, 17.253333333333334 -6.269333333333333, 17.248 -5.944 C 17.242666666666665 -5.618666666666666, 17.24 -5.302, 17.24 -4.994 C 17.24 -4.686, 17.242666666666665 -4.371333333333333, 17.248 -4.05 C 17.253333333333334 -3.7286666666666664, 17.262666666666668 -3.3853333333333326, 17.276 -3.0199999999999996 C 17.281333333333333 -2.812, 17.382666666666665 -2.6799999999999997, 17.58 -2.6239999999999997 L 17.58 -1.7359999999999998 C 17.142666666666663 -1.7759999999999998, 16.805999999999997 -1.9219999999999997, 16.57 -2.174 C 16.334000000000003 -2.4259999999999997, 16.209333333333333 -2.772, 16.196 -3.2119999999999997 Z M 18.084 -1.7359999999999998 L 18.084 -2.6279999999999997 C 18.268 -2.681333333333333, 18.366666666666667 -2.8053333333333335, 18.38 -3 C 18.398666666666667 -3.4666666666666663, 18.410666666666668 -3.915333333333333, 18.416 -4.346 C 18.421333333333333 -4.776666666666666, 18.421333333333333 -5.207333333333333, 18.416 -5.638 C 18.410666666666668 -6.068666666666666, 18.398666666666667 -6.521333333333333, 18.38 -6.9959999999999996 C 18.374666666666666 -7.190666666666667, 18.276 -7.317333333333334, 18.084 -7.3759999999999994 L 18.084 -8.264 C 18.513333333333335 -8.224, 18.846666666666668 -8.078666666666667, 19.084 -7.828 C 19.321333333333335 -7.577333333333334, 19.445333333333334 -7.231999999999999, 19.456 -6.792 C 19.46666666666667 -6.477333333333332, 19.474666666666668 -6.167333333333333, 19.48 -5.861999999999999 C 19.485333333333333 -5.556666666666667, 19.488 -5.256, 19.488 -4.96 C 19.488 -4.664, 19.485333333333333 -4.370666666666667, 19.48 -4.08 C 19.474666666666668 -3.7893333333333334, 19.46666666666667 -3.5, 19.456 -3.2119999999999997 C 19.439999999999998 -2.761333333333333, 19.311999999999998 -2.4126666666666665, 19.072 -2.166 C 18.832 -1.9193333333333331, 18.502666666666666 -1.7759999999999998, 18.084 -1.7359999999999998 Z M 21.944 -1.7999999999999998 L 21.944 -8.2 L 23.003999999999998 -8.2 L 23.003999999999998 -1.7999999999999998 Z " stroke="none" fill-rule="nonzero" fill="#000000" fill-opacity="1" transform="matrix(1,0,0,1,5.05,13.314)" id="text30 l" />
  <path d="M -5 -13.264 L 30 -13.264 L 30 431.05925880286946 L -5 431.05925880286946 Z " stroke="#FF0000" stroke-opacity="1" stroke-width="0.1" stroke-linecap="butt" stroke-linejoin="miter" fill="none" transform="matrix(1,0,0,1,5.05,13.314)" />
</svg>