<?xml version="1.0" encoding="UTF-8"?>
<svg xmlns:xlink="http://www.w3.org/1999/xlink" viewBox="0 0 35.1 431.63221897765646" version="1.1" style="font-synthesis: none;" width="35.1mm" height="431.63221897765646mm" xmlns="http://www.w3.org/2000/svg">
  <defs />
  <style>	</style>
  <path d="M 0 0 L 35.1 0 L 35.1 431.63221897765646 L 0 431.63221897765646 Z " stroke="none" fill-rule="nonzero" fill="#FFFFFF" fill-opacity="1" transform="matrix(1,0,0,1,0,0)" />
  <path d="M 0 410.75021897765646 L 10 410.75021897765646 L 10 412.25021897765646 L 0 412.25021897765646 Z " stroke="none" fill-rule="evenodd" fill="#000000" fill-opacity="1" transform="matrix(1,0,0,1,5.05,13.314)" id="mark1 l" />
  <path d="M 0 404.32052805613057 L 10 404.32052805613057 L 10 405.82052805613057 L 0 405.82052805613057 Z " stroke="none" fill-rule="evenodd" fill="#000000" fill-opacity="1" transform="matrix(1,0,0,1,5.05,13.314)" id="mark2 l" />
  <path d="M 0 397.8908371346047 L 10 397.8908371346047 L 10 399.3908371346047 L 0 399.3908371346047 Z " stroke="none" fill-rule="evenodd" fill="#000000" fill-opacity="1" transform="matrix(1,0,0,1,5.05,13.314)" id="mark3 l" />
  <path d="M 0 391.4611462130788 L 10 391.4611462130788 L 10 392.9611462130788 L 0 392.9611462130788 Z " stroke="none" fill-rule="evenodd" fill="#000000" fill-opacity="1" transform="matrix(1,0,0,1,5.05,13.314)" id="mark4 l" />
  <path d="M 0 385.03145529155296 L 25 385.03145529155296 L 25 386.53145529155296 L 0 386.53145529155296 Z " stroke="none" fill-rule="evenodd" fill="#000000" fill-opacity="1" transform="matrix(1,0,0,1,5.05,13.314)" id="mark5 l" />
  <path d="M 16.18 382.53345529155297 C 16.174666666666667 382.3601219582197, 16.173333333333332 382.2207886248863, 16.176 382.11545529155296 C 16.178666666666665 382.0101219582196, 16.181333333333335 381.9081219582196, 16.183999999999997 381.809455291553 L 17.264 381.809455291553 C 17.256 381.8867886248863, 17.25 381.9827886248863, 17.246 382.097455291553 C 17.241999999999997 382.21212195821965, 17.240666666666666 382.3227886248863, 17.241999999999997 382.429455291553 C 17.243333333333332 382.5361219582196, 17.246666666666666 382.61612195821965, 17.252 382.669455291553 C 17.262666666666668 382.78945529155294, 17.297333333333334 382.88745529155295, 17.355999999999998 382.963455291553 C 17.414666666666665 383.03945529155294, 17.497333333333334 383.09345529155297, 17.604 383.12545529155295 L 17.604 384.01745529155295 C 17.110666666666663 383.9801219582196, 16.75333333333333 383.845455291553, 16.532 383.61345529155295 C 16.310666666666666 383.3814552915529, 16.19333333333333 383.0214552915529, 16.18 382.53345529155297 Z M 16.279999999999998 381.19745529155296 L 16.279999999999998 377.549455291553 L 17.348 377.549455291553 L 17.348 381.19745529155296 Z M 17.852 380.773455291553 L 17.852 380.01745529155295 C 17.929333333333332 379.97745529155293, 18.014666666666667 379.94545529155295, 18.107999999999997 379.92145529155295 C 18.20133333333333 379.89745529155294, 18.301333333333332 379.88545529155294, 18.407999999999998 379.88545529155294 C 18.773333333333333 379.88545529155294, 19.047333333333334 380.00078862488624, 19.23 380.23145529155295 C 19.412666666666667 380.46212195821965, 19.514666666666663 380.7761219582196, 19.535999999999998 381.17345529155295 C 19.546666666666667 381.333455291553, 19.55333333333333 381.4921219582196, 19.555999999999997 381.64945529155295 C 19.558666666666664 381.8067886248863, 19.557333333333332 381.96012195821964, 19.552 382.109455291553 C 19.546666666666667 382.25878862488634, 19.538666666666668 382.3987886248863, 19.528 382.52945529155295 C 19.482666666666667 383.02812195821963, 19.353333333333335 383.3934552915529, 19.14 383.62545529155295 C 18.926666666666666 383.857455291553, 18.581333333333333 383.9881219582196, 18.104 384.01745529155295 L 18.104 383.12545529155295 C 18.21333333333333 383.0961219582196, 18.296 383.04345529155296, 18.352 382.96745529155294 C 18.408 382.891455291553, 18.44 382.79212195821964, 18.448 382.669455291553 C 18.471999999999998 382.3787886248863, 18.485999999999997 382.1174552915529, 18.49 381.88545529155294 C 18.494 381.653455291553, 18.485333333333333 381.4321219582196, 18.464 381.22145529155296 C 18.447999999999997 381.0667886248863, 18.396666666666665 380.951455291553, 18.31 380.87545529155295 C 18.223333333333333 380.799455291553, 18.090666666666664 380.761455291553, 17.912 380.761455291553 C 17.901333333333334 380.761455291553, 17.890666666666668 380.7627886248863, 17.88 380.76545529155294 C 17.86933333333333 380.7681219582196, 17.86 380.7707886248863, 17.852 380.773455291553 Z M 17.852 378.48145529155295 L 17.852 377.549455291553 L 19.439999999999998 377.549455291553 L 19.439999999999998 378.48145529155295 Z M 21.944 383.94945529155297 L 21.944 377.549455291553 L 23.003999999999998 377.549455291553 L 23.003999999999998 383.94945529155297 Z " stroke="none" fill-rule="nonzero" fill="#000000" fill-opacity="1" transform="matrix(1,0,0,1,5.05,13.314)" id="text5 l" />
  <path d="M 0 378.60176437002707 L 10 378.60176437002707 L 10 380.10176437002707 L 0 380.10176437002707 Z " stroke="none" fill-rule="evenodd" fill="#000000" fill-opacity="1" transform="matrix(1,0,0,1,5.05,13.314)" id="mark6 l" />
  <path d="M 0 372.1720734485012 L 10 372.1720734485012 L 10 373.6720734485012 L 0 373.6720734485012 Z " stroke="none" fill-rule="evenodd" fill="#000000" fill-opacity="1" transform="matrix(1,0,0,1,5.05,13.314)" id="mark7 l" />
  <path d="M 0 365.7423825269753 L 10 365.7423825269753 L 10 367.2423825269753 L 0 367.2423825269753 Z " stroke="none" fill-rule="evenodd" fill="#000000" fill-opacity="1" transform="matrix(1,0,0,1,5.05,13.314)" id="mark8 l" />
  <path d="M 0 359.3126916054494 L 10 359.3126916054494 L 10 360.8126916054494 L 0 360.8126916054494 Z " stroke="none" fill-rule="evenodd" fill="#000000" fill-opacity="1" transform="matrix(1,0,0,1,5.05,13.314)" id="mark9 l" />
  <path d="M 0 352.8830006839235 L 25 352.8830006839235 L 25 354.3830006839235 L 0 354.3830006839235 Z " stroke="none" fill-rule="evenodd" fill="#000000" fill-opacity="1" transform="matrix(1,0,0,1,5.05,13.314)" id="mark10 l" />
  <path d="M 14.323999999999998 351.8330006839235 L 14.323999999999998 346.3890006839235 L 13.871999999999998 346.3890006839235 L 13.839999999999998 346.0090006839235 L 14.543999999999999 345.4330006839235 L 15.424 345.4330006839235 L 15.424 351.8330006839235 Z M 16.196 350.4210006839235 C 16.188000000000002 349.9916673505902, 16.182666666666666 349.5750006839235, 16.18 349.1710006839235 C 16.177333333333333 348.7670006839235, 16.177999999999997 348.3716673505902, 16.182 347.9850006839235 C 16.186 347.59833401725683, 16.190666666666665 347.2170006839235, 16.196 346.8410006839235 C 16.209333333333333 346.4010006839235, 16.334000000000003 346.05566735059017, 16.57 345.8050006839235 C 16.805999999999997 345.5543340172568, 17.142666666666663 345.4090006839235, 17.58 345.3690006839235 L 17.58 346.2570006839235 C 17.382666666666665 346.3130006839235, 17.281333333333333 346.4423340172568, 17.276 346.6450006839235 C 17.262666666666668 347.01566735059015, 17.253333333333334 347.36366735059016, 17.248 347.6890006839235 C 17.242666666666665 348.01433401725683, 17.24 348.3310006839235, 17.24 348.6390006839235 C 17.24 348.9470006839235, 17.242666666666665 349.26166735059013, 17.248 349.5830006839235 C 17.253333333333334 349.9043340172569, 17.262666666666668 350.2476673505902, 17.276 350.6130006839235 C 17.281333333333333 350.82100068392344, 17.382666666666665 350.9530006839235, 17.58 351.0090006839235 L 17.58 351.8970006839235 C 17.142666666666663 351.8570006839235, 16.805999999999997 351.7110006839235, 16.57 351.4590006839235 C 16.334000000000003 351.20700068392347, 16.209333333333333 350.8610006839235, 16.196 350.4210006839235 Z M 18.084 351.8970006839235 L 18.084 351.0050006839235 C 18.268 350.9516673505901, 18.366666666666667 350.82766735059016, 18.38 350.6330006839235 C 18.398666666666667 350.1663340172569, 18.410666666666668 349.7176673505902, 18.416 349.2870006839235 C 18.421333333333333 348.8563340172568, 18.421333333333333 348.4256673505902, 18.416 347.9950006839235 C 18.410666666666668 347.56433401725684, 18.398666666666667 347.1116673505902, 18.38 346.6370006839235 C 18.374666666666666 346.4423340172568, 18.276 346.31566735059016, 18.084 346.2570006839235 L 18.084 345.3690006839235 C 18.513333333333335 345.4090006839235, 18.846666666666668 345.5543340172568, 19.084 345.8050006839235 C 19.321333333333335 346.05566735059017, 19.445333333333334 346.4010006839235, 19.456 346.8410006839235 C 19.46666666666667 347.1556673505902, 19.474666666666668 347.4656673505902, 19.48 347.7710006839235 C 19.485333333333333 348.07633401725684, 19.488 348.3770006839235, 19.488 348.6730006839235 C 19.488 348.96900068392347, 19.485333333333333 349.2623340172568, 19.48 349.5530006839235 C 19.474666666666668 349.8436673505902, 19.46666666666667 350.1330006839235, 19.456 350.4210006839235 C 19.439999999999998 350.8716673505902, 19.311999999999998 351.22033401725685, 19.072 351.4670006839235 C 18.832 351.7136673505902, 18.502666666666666 351.8570006839235, 18.084 351.8970006839235 Z M 21.944 351.8330006839235 L 21.944 345.4330006839235 L 23.003999999999998 345.4330006839235 L 23.003999999999998 351.8330006839235 Z " stroke="none" fill-rule="nonzero" fill="#000000" fill-opacity="1" transform="matrix(1,0,0,1,5.05,13.314)" id="text10 l" />
  <path d="M 0 346.4533097623976 L 10 346.4533097623976 L 10 347.9533097623976 L 0 347.9533097623976 Z " stroke="none" fill-rule="evenodd" fill="#000000" fill-opacity="1" transform="matrix(1,0,0,1,5.05,13.314)" id="mark11 l" />
  <path d="M 0 340.0236188408718 L 10 340.0236188408718 L 10 341.5236188408718 L 0 341.5236188408718 Z " stroke="none" fill-rule="evenodd" fill="#000000" fill-opacity="1" transform="matrix(1,0,0,1,5.05,13.314)" id="mark12 l" />
  <path d="M 0 333.5939279193459 L 10 333.5939279193459 L 10 335.0939279193459 L 0 335.0939279193459 Z " stroke="none" fill-rule="evenodd" fill="#000000" fill-opacity="1" transform="matrix(1,0,0,1,5.05,13.314)" id="mark13 l" />
  <path d="M 0 327.16423699782 L 10 327.16423699782 L 10 328.66423699782 L 0 328.66423699782 Z " stroke="none" fill-rule="evenodd" fill="#000000" fill-opacity="1" transform="matrix(1,0,0,1,5.05,13.314)" id="mark14 l" />
  <path d="M 0 320.7345460762941 L 25 320.7345460762941 L 25 322.2345460762941 L 0 322.2345460762941 Z " stroke="none" fill-rule="evenodd" fill="#000000" fill-opacity="1" transform="matrix(1,0,0,1,5.05,13.314)" id="mark15 l" />
  <path d="M 14.331999999999999 319.65254607629413 L 14.331999999999999 314.2085460762941 L 13.879999999999999 314.2085460762941 L 13.847999999999999 313.8285460762941 L 14.552 313.25254607629415 L 15.432 313.25254607629415 L 15.432 319.65254607629413 Z M 16.18 318.23654607629413 C 16.174666666666667 318.0632127429608, 16.173333333333332 317.9238794096275, 16.176 317.8185460762941 C 16.178666666666665 317.71321274296076, 16.181333333333335 317.6112127429608, 16.183999999999997 317.51254607629414 L 17.264 317.51254607629414 C 17.256 317.5898794096275, 17.25 317.6858794096275, 17.246 317.80054607629415 C 17.241999999999997 317.9152127429608, 17.240666666666666 318.02587940962746, 17.241999999999997 318.13254607629415 C 17.243333333333332 318.23921274296083, 17.246666666666666 318.3192127429608, 17.252 318.37254607629416 C 17.262666666666668 318.4925460762941, 17.297333333333334 318.5905460762941, 17.355999999999998 318.66654607629414 C 17.414666666666665 318.74254607629416, 17.497333333333334 318.79654607629413, 17.604 318.8285460762941 L 17.604 319.7205460762941 C 17.110666666666663 319.6832127429608, 16.75333333333333 319.54854607629414, 16.532 319.3165460762941 C 16.310666666666666 319.0845460762941, 16.19333333333333 318.72454607629413, 16.18 318.23654607629413 Z M 16.279999999999998 316.9005460762941 L 16.279999999999998 313.25254607629415 L 17.348 313.25254607629415 L 17.348 316.9005460762941 Z M 17.852 316.47654607629414 L 17.852 315.7205460762941 C 17.929333333333332 315.6805460762941, 18.014666666666667 315.6485460762941, 18.107999999999997 315.6245460762941 C 18.20133333333333 315.6005460762941, 18.301333333333332 315.5885460762941, 18.407999999999998 315.5885460762941 C 18.773333333333333 315.5885460762941, 19.047333333333334 315.70387940962746, 19.23 315.9345460762941 C 19.412666666666667 316.16521274296076, 19.514666666666663 316.4792127429608, 19.535999999999998 316.8765460762941 C 19.546666666666667 317.03654607629414, 19.55333333333333 317.1952127429608, 19.555999999999997 317.3525460762941 C 19.558666666666664 317.50987940962744, 19.557333333333332 317.6632127429608, 19.552 317.81254607629415 C 19.546666666666667 317.9618794096275, 19.538666666666668 318.1018794096275, 19.528 318.2325460762941 C 19.482666666666667 318.7312127429608, 19.353333333333335 319.0965460762941, 19.14 319.3285460762941 C 18.926666666666666 319.56054607629414, 18.581333333333333 319.6912127429608, 18.104 319.7205460762941 L 18.104 318.8285460762941 C 18.21333333333333 318.7992127429608, 18.296 318.7465460762941, 18.352 318.6705460762941 C 18.408 318.59454607629414, 18.44 318.4952127429608, 18.448 318.37254607629416 C 18.471999999999998 318.08187940962745, 18.485999999999997 317.82054607629414, 18.49 317.5885460762941 C 18.494 317.35654607629414, 18.485333333333333 317.1352127429608, 18.464 316.9245460762941 C 18.447999999999997 316.7698794096275, 18.396666666666665 316.65454607629414, 18.31 316.5785460762941 C 18.223333333333333 316.50254607629415, 18.090666666666664 316.46454607629414, 17.912 316.46454607629414 C 17.901333333333334 316.46454607629414, 17.890666666666668 316.46587940962746, 17.88 316.4685460762941 C 17.86933333333333 316.4712127429608, 17.86 316.47387940962744, 17.852 316.47654607629414 Z M 17.852 314.1845460762941 L 17.852 313.25254607629415 L 19.439999999999998 313.25254607629415 L 19.439999999999998 314.1845460762941 Z M 21.944 319.65254607629413 L 21.944 313.25254607629415 L 23.003999999999998 313.25254607629415 L 23.003999999999998 319.65254607629413 Z " stroke="none" fill-rule="nonzero" fill="#000000" fill-opacity="1" transform="matrix(1,0,0,1,5.05,13.314)" id="text15 l" />
  <path d="M 0 314.30485515476823 L 10 314.30485515476823 L 10 315.80485515476823 L 0 315.80485515476823 Z " stroke="none" fill-rule="evenodd" fill="#000000" fill-opacity="1" transform="matrix(1,0,0,1,5.05,13.314)" id="mark16 l" />
  <path d="M 0 307.87516423324234 L 10 307.87516423324234 L 10 309.37516423324234 L 0 309.37516423324234 Z " stroke="none" fill-rule="evenodd" fill="#000000" fill-opacity="1" transform="matrix(1,0,0,1,5.05,13.314)" id="mark17 l" />
  <path d="M 0 301.44547331171646 L 10 301.44547331171646 L 10 302.94547331171646 L 0 302.94547331171646 Z " stroke="none" fill-rule="evenodd" fill="#000000" fill-opacity="1" transform="matrix(1,0,0,1,5.05,13.314)" id="mark18 l" />
  <path d="M 0 295.01578239019057 L 10 295.01578239019057 L 10 296.51578239019057 L 0 296.51578239019057 Z " stroke="none" fill-rule="evenodd" fill="#000000" fill-opacity="1" transform="matrix(1,0,0,1,5.05,13.314)" id="mark19 l" />
  <path d="M 0 288.5860914686647 L 25 288.5860914686647 L 25 290.0860914686647 L 0 290.0860914686647 Z " stroke="none" fill-rule="evenodd" fill="#000000" fill-opacity="1" transform="matrix(1,0,0,1,5.05,13.314)" id="mark20 l" />
  <path d="M 12.319999999999999 287.53609146866467 C 12.317333333333334 287.43742480199796, 12.315333333333331 287.3487581353313, 12.313999999999998 287.27009146866465 C 12.312666666666665 287.191424801998, 12.311333333333334 287.11742480199797, 12.309999999999999 287.04809146866467 C 12.308666666666667 286.97875813533136, 12.308 286.90675813533136, 12.308 286.83209146866466 C 12.308 286.757424801998, 12.308 286.6727581353313, 12.308 286.57809146866464 C 12.308 286.48342480199796, 12.309333333333335 286.3720914686646, 12.312 286.2440914686647 C 12.32 285.9507581353313, 12.37 285.68875813533134, 12.462 285.4580914686647 C 12.554 285.22742480199804, 12.687999999999999 285.021424801998, 12.863999999999999 284.84009146866464 C 13.04 284.6587581353313, 13.257333333333333 284.49742480199797, 13.515999999999998 284.35609146866466 L 14.047999999999998 284.06809146866465 C 14.234666666666666 283.9667581353313, 14.354 283.84475813533135, 14.405999999999999 283.70209146866466 C 14.457999999999998 283.559424801998, 14.488 283.425424801998, 14.495999999999999 283.3000914686647 C 14.506666666666664 283.15342480199797, 14.512666666666664 282.99675813533133, 14.514 282.83009146866465 C 14.51533333333333 282.66342480199796, 14.511999999999997 282.5067581353313, 14.504 282.3600914686647 C 14.498666666666665 282.25609146866464, 14.468666666666666 282.1700914686646, 14.413999999999998 282.10209146866464 C 14.359333333333332 282.03409146866466, 14.279999999999998 281.985424801998, 14.175999999999998 281.9560914686647 L 14.175999999999998 281.06809146866465 C 14.663999999999998 281.10009146866463, 15.014 281.231424801998, 15.225999999999999 281.46209146866465 C 15.437999999999999 281.6927581353313, 15.554666666666666 282.05342480199795, 15.575999999999999 282.54409146866465 C 15.578666666666663 282.6080914686646, 15.580666666666666 282.67342480199795, 15.581999999999999 282.7400914686647 C 15.583333333333332 282.8067581353313, 15.584 282.871424801998, 15.584 282.9340914686647 C 15.584 282.99675813533133, 15.583333333333332 283.05875813533135, 15.581999999999999 283.12009146866467 C 15.580666666666666 283.181424801998, 15.578666666666663 283.241424801998, 15.575999999999999 283.3000914686647 C 15.565333333333331 283.585424801998, 15.512 283.83209146866466, 15.415999999999999 284.0400914686647 C 15.32 284.24809146866465, 15.19 284.42809146866466, 15.026 284.58009146866465 C 14.862 284.73209146866463, 14.672 284.86809146866466, 14.456 284.98809146866466 L 13.851999999999999 285.31609146866464 C 13.737333333333332 285.377424801998, 13.647333333333332 285.461424801998, 13.581999999999999 285.56809146866465 C 13.516666666666666 285.67475813533133, 13.469999999999999 285.7880914686647, 13.441999999999998 285.9080914686647 C 13.413999999999998 286.0280914686647, 13.399999999999999 286.14009146866465, 13.399999999999999 286.2440914686647 L 13.399999999999999 287.53609146866467 Z M 12.328 283.49609146866464 C 12.322666666666667 283.37875813533134, 12.318666666666665 283.2640914686647, 12.315999999999999 283.15209146866465 C 12.313333333333333 283.0400914686646, 12.311333333333334 282.93409146866463, 12.309999999999999 282.83409146866467 C 12.308666666666667 282.7340914686647, 12.309333333333335 282.637424801998, 12.312 282.54409146866465 C 12.330666666666666 282.0560914686647, 12.447333333333333 281.6967581353314, 12.661999999999999 281.4660914686647 C 12.876666666666665 281.23542480199797, 13.213333333333331 281.1027581353313, 13.671999999999999 281.06809146866465 L 13.671999999999999 281.96009146866464 C 13.576 281.989424801998, 13.505333333333333 282.03609146866467, 13.459999999999999 282.1000914686647 C 13.414666666666665 282.1640914686647, 13.390666666666664 282.241424801998, 13.387999999999998 282.33209146866466 C 13.382666666666665 282.5400914686647, 13.379333333333333 282.733424801998, 13.378 282.91209146866464 C 13.376666666666667 283.0907581353313, 13.381333333333334 283.285424801998, 13.392 283.49609146866464 Z M 13.904 287.53609146866467 L 13.904 286.60409146866465 L 15.5 286.60409146866465 L 15.5 287.53609146866467 Z M 16.196 286.1240914686647 C 16.188000000000002 285.69475813533137, 16.182666666666666 285.2780914686647, 16.18 284.8740914686647 C 16.177333333333333 284.4700914686647, 16.177999999999997 284.07475813533136, 16.182 283.68809146866465 C 16.186 283.301424801998, 16.190666666666665 282.9200914686646, 16.196 282.54409146866465 C 16.209333333333333 282.1040914686647, 16.334000000000003 281.75875813533133, 16.57 281.50809146866465 C 16.805999999999997 281.257424801998, 17.142666666666663 281.1120914686647, 17.58 281.07209146866467 L 17.58 281.96009146866464 C 17.382666666666665 282.0160914686646, 17.281333333333333 282.145424801998, 17.276 282.3480914686647 C 17.262666666666668 282.7187581353313, 17.253333333333334 283.0667581353313, 17.248 283.39209146866466 C 17.242666666666665 283.717424801998, 17.24 284.03409146866466, 17.24 284.34209146866465 C 17.24 284.65009146866464, 17.242666666666665 284.9647581353313, 17.248 285.28609146866467 C 17.253333333333334 285.60742480199804, 17.262666666666668 285.95075813533134, 17.276 286.31609146866464 C 17.281333333333333 286.52409146866466, 17.382666666666665 286.65609146866467, 17.58 286.71209146866465 L 17.58 287.6000914686647 C 17.142666666666663 287.5600914686647, 16.805999999999997 287.41409146866465, 16.57 287.16209146866464 C 16.334000000000003 286.91009146866463, 16.209333333333333 286.5640914686647, 16.196 286.1240914686647 Z M 18.084 287.6000914686647 L 18.084 286.7080914686647 C 18.268 286.65475813533135, 18.366666666666667 286.5307581353313, 18.38 286.3360914686647 C 18.398666666666667 285.869424801998, 18.410666666666668 285.4207581353313, 18.416 284.9900914686647 C 18.421333333333333 284.55942480199803, 18.421333333333333 284.12875813533134, 18.416 283.69809146866464 C 18.410666666666668 283.267424801998, 18.398666666666667 282.8147581353313, 18.38 282.34009146866464 C 18.374666666666666 282.145424801998, 18.276 282.0187581353313, 18.084 281.96009146866464 L 18.084 281.07209146866467 C 18.513333333333335 281.1120914686647, 18.846666666666668 281.257424801998, 19.084 281.50809146866465 C 19.321333333333335 281.75875813533133, 19.445333333333334 282.1040914686647, 19.456 282.54409146866465 C 19.46666666666667 282.8587581353313, 19.474666666666668 283.16875813533136, 19.48 283.47409146866465 C 19.485333333333333 283.779424801998, 19.488 284.08009146866465, 19.488 284.37609146866464 C 19.488 284.67209146866463, 19.485333333333333 284.965424801998, 19.48 285.2560914686647 C 19.474666666666668 285.54675813533134, 19.46666666666667 285.8360914686647, 19.456 286.1240914686647 C 19.439999999999998 286.57475813533136, 19.311999999999998 286.923424801998, 19.072 287.1700914686647 C 18.832 287.41675813533135, 18.502666666666666 287.5600914686647, 18.084 287.6000914686647 Z M 21.944 287.53609146866467 L 21.944 281.1360914686647 L 23.003999999999998 281.1360914686647 L 23.003999999999998 287.53609146866467 Z " stroke="none" fill-rule="nonzero" fill="#000000" fill-opacity="1" transform="matrix(1,0,0,1,5.05,13.314)" id="text20 l" />
  <path d="M 0 282.1564005471388 L 10 282.1564005471388 L 10 283.6564005471388 L 0 283.6564005471388 Z " stroke="none" fill-rule="evenodd" fill="#000000" fill-opacity="1" transform="matrix(1,0,0,1,5.05,13.314)" id="mark21 l" />
  <path d="M 0 275.7267096256129 L 10 275.7267096256129 L 10 277.2267096256129 L 0 277.2267096256129 Z " stroke="none" fill-rule="evenodd" fill="#000000" fill-opacity="1" transform="matrix(1,0,0,1,5.05,13.314)" id="mark22 l" />
  <path d="M 0 269.29701870408707 L 10 269.29701870408707 L 10 270.79701870408707 L 0 270.79701870408707 Z " stroke="none" fill-rule="evenodd" fill="#000000" fill-opacity="1" transform="matrix(1,0,0,1,5.05,13.314)" id="mark23 l" />
  <path d="M 0 262.8673277825612 L 10 262.8673277825612 L 10 264.3673277825612 L 0 264.3673277825612 Z " stroke="none" fill-rule="evenodd" fill="#000000" fill-opacity="1" transform="matrix(1,0,0,1,5.05,13.314)" id="mark24 l" />
  <path d="M 0 256.4376368610353 L 25 256.4376368610353 L 25 257.9376368610353 L 0 257.9376368610353 Z " stroke="none" fill-rule="evenodd" fill="#000000" fill-opacity="1" transform="matrix(1,0,0,1,5.05,13.314)" id="mark25 l" />
  <path d="M 12.328 255.3876368610353 C 12.325333333333333 255.28897019436863, 12.323333333333332 255.20030352770198, 12.322 255.1216368610353 C 12.320666666666666 255.04297019436865, 12.319333333333333 254.96897019436864, 12.318 254.8996368610353 C 12.316666666666666 254.83030352770197, 12.315999999999999 254.75830352770197, 12.316 254.6836368610353 C 12.315999999999999 254.60897019436862, 12.315999999999999 254.52430352770196, 12.316 254.4296368610353 C 12.315999999999999 254.33497019436865, 12.317333333333334 254.22363686103532, 12.32 254.0956368610353 C 12.328 253.80230352770198, 12.378 253.54030352770198, 12.47 253.3096368610353 C 12.562000000000001 253.07897019436862, 12.696 252.87297019436863, 12.872 252.6916368610353 C 13.048 252.51030352770198, 13.265333333333334 252.34897019436863, 13.524000000000001 252.2076368610353 L 14.056000000000001 251.91963686103531 C 14.242666666666668 251.81830352770197, 14.362000000000002 251.69630352770196, 14.414 251.5536368610353 C 14.466000000000001 251.41097019436864, 14.495999999999999 251.27697019436863, 14.504 251.1516368610353 C 14.514666666666667 251.00497019436864, 14.520666666666667 250.848303527702, 14.522 250.68163686103532 C 14.523333333333333 250.51497019436863, 14.520000000000001 250.358303527702, 14.512 250.21163686103532 C 14.506666666666666 250.1076368610353, 14.476666666666667 250.0216368610353, 14.422 249.9536368610353 C 14.367333333333335 249.88563686103532, 14.288 249.83697019436863, 14.184000000000001 249.8076368610353 L 14.184000000000001 248.91963686103531 C 14.672 248.9516368610353, 15.022000000000002 249.0829701943686, 15.234 249.3136368610353 C 15.446000000000002 249.54430352770197, 15.562666666666667 249.90497019436862, 15.584 250.3956368610353 C 15.586666666666668 250.45963686103534, 15.588666666666668 250.52497019436868, 15.59 250.5916368610353 C 15.591333333333335 250.658303527702, 15.592000000000002 250.72297019436866, 15.592 250.7856368610353 C 15.592000000000002 250.84830352770194, 15.591333333333335 250.91030352770196, 15.59 250.9716368610353 C 15.588666666666668 251.03297019436866, 15.586666666666668 251.09297019436866, 15.584 251.1516368610353 C 15.573333333333332 251.43697019436866, 15.52 251.6836368610353, 15.424 251.8916368610353 C 15.328 252.0996368610353, 15.197999999999999 252.2796368610353, 15.033999999999999 252.43163686103532 C 14.87 252.5836368610353, 14.68 252.7196368610353, 14.464 252.8396368610353 L 13.86 253.1676368610353 C 13.745333333333335 253.22897019436863, 13.655333333333335 253.31297019436863, 13.59 253.41963686103531 C 13.524666666666668 253.526303527702, 13.478000000000002 253.63963686103529, 13.45 253.7596368610353 C 13.422 253.8796368610353, 13.408 253.9916368610353, 13.408 254.0956368610353 L 13.408 255.3876368610353 Z M 12.336 251.3476368610353 C 12.330666666666666 251.23030352770198, 12.326666666666664 251.1156368610353, 12.324 251.00363686103532 C 12.321333333333332 250.89163686103532, 12.319333333333333 250.7856368610353, 12.318 250.6856368610353 C 12.316666666666666 250.5856368610353, 12.317333333333334 250.48897019436862, 12.32 250.3956368610353 C 12.338666666666668 249.90763686103531, 12.455333333333336 249.548303527702, 12.67 249.3176368610353 C 12.884666666666668 249.08697019436863, 13.221333333333334 248.954303527702, 13.68 248.91963686103531 L 13.68 249.8116368610353 C 13.584 249.84097019436862, 13.513333333333332 249.88763686103528, 13.468 249.9516368610353 C 13.422666666666668 250.01563686103532, 13.398666666666667 250.09297019436863, 13.396 250.1836368610353 C 13.390666666666666 250.3916368610353, 13.387333333333332 250.58497019436862, 13.386 250.7636368610353 C 13.384666666666666 250.942303527702, 13.389333333333333 251.13697019436864, 13.4 251.3476368610353 Z M 13.911999999999999 255.3876368610353 L 13.911999999999999 254.45563686103532 L 15.508 254.45563686103532 L 15.508 255.3876368610353 Z M 16.18 253.9716368610353 C 16.174666666666667 253.798303527702, 16.173333333333332 253.65897019436864, 16.176 253.5536368610353 C 16.178666666666665 253.44830352770197, 16.181333333333335 253.346303527702, 16.183999999999997 253.24763686103532 L 17.264 253.24763686103532 C 17.256 253.32497019436863, 17.25 253.42097019436864, 17.246 253.5356368610353 C 17.241999999999997 253.65030352770196, 17.240666666666666 253.7609701943686, 17.241999999999997 253.8676368610353 C 17.243333333333332 253.97430352770198, 17.246666666666666 254.05430352770196, 17.252 254.1076368610353 C 17.262666666666668 254.2276368610353, 17.297333333333334 254.32563686103532, 17.355999999999998 254.4016368610353 C 17.414666666666665 254.4776368610353, 17.497333333333334 254.53163686103528, 17.604 254.5636368610353 L 17.604 255.45563686103532 C 17.110666666666663 255.418303527702, 16.75333333333333 255.2836368610353, 16.532 255.0516368610353 C 16.310666666666666 254.8196368610353, 16.19333333333333 254.45963686103534, 16.18 253.9716368610353 Z M 16.279999999999998 252.6356368610353 L 16.279999999999998 248.9876368610353 L 17.348 248.9876368610353 L 17.348 252.6356368610353 Z M 17.852 252.21163686103532 L 17.852 251.45563686103532 C 17.929333333333332 251.41563686103532, 18.014666666666667 251.3836368610353, 18.107999999999997 251.3596368610353 C 18.20133333333333 251.3356368610353, 18.301333333333332 251.3236368610353, 18.407999999999998 251.3236368610353 C 18.773333333333333 251.3236368610353, 19.047333333333334 251.43897019436866, 19.23 251.66963686103531 C 19.412666666666667 251.90030352770196, 19.514666666666663 252.214303527702, 19.535999999999998 252.6116368610353 C 19.546666666666667 252.7716368610353, 19.55333333333333 252.930303527702, 19.555999999999997 253.0876368610353 C 19.558666666666664 253.24497019436865, 19.557333333333332 253.39830352770196, 19.552 253.5476368610353 C 19.546666666666667 253.69697019436865, 19.538666666666668 253.83697019436863, 19.528 253.96763686103532 C 19.482666666666667 254.46630352770197, 19.353333333333335 254.8316368610353, 19.14 255.0636368610353 C 18.926666666666666 255.2956368610353, 18.581333333333333 255.42630352770198, 18.104 255.45563686103532 L 18.104 254.5636368610353 C 18.21333333333333 254.53430352770198, 18.296 254.48163686103533, 18.352 254.4056368610353 C 18.408 254.32963686103528, 18.44 254.23030352770195, 18.448 254.1076368610353 C 18.471999999999998 253.81697019436865, 18.485999999999997 253.55563686103528, 18.49 253.3236368610353 C 18.494 253.09163686103528, 18.485333333333333 252.87030352770196, 18.464 252.6596368610353 C 18.447999999999997 252.50497019436864, 18.396666666666665 252.38963686103529, 18.31 252.3136368610353 C 18.223333333333333 252.2376368610353, 18.090666666666664 252.19963686103534, 17.912 252.19963686103532 C 17.901333333333334 252.19963686103534, 17.890666666666668 252.20097019436867, 17.88 252.2036368610353 C 17.86933333333333 252.20630352770195, 17.86 252.20897019436865, 17.852 252.21163686103532 Z M 17.852 249.91963686103531 L 17.852 248.9876368610353 L 19.439999999999998 248.9876368610353 L 19.439999999999998 249.91963686103531 Z M 21.944 255.3876368610353 L 21.944 248.9876368610353 L 23.003999999999998 248.9876368610353 L 23.003999999999998 255.3876368610353 Z " stroke="none" fill-rule="nonzero" fill="#000000" fill-opacity="1" transform="matrix(1,0,0,1,5.05,13.314)" id="text25 l" />
  <path d="M 0 250.0079459395094 L 10 250.0079459395094 L 10 251.5079459395094 L 0 251.5079459395094 Z " stroke="none" fill-rule="evenodd" fill="#000000" fill-opacity="1" transform="matrix(1,0,0,1,5.05,13.314)" id="mark26 l" />
  <path d="M 0 243.57825501798354 L 10 243.57825501798354 L 10 245.07825501798354 L 0 245.07825501798354 Z " stroke="none" fill-rule="evenodd" fill="#000000" fill-opacity="1" transform="matrix(1,0,0,1,5.05,13.314)" id="mark27 l" />
  <path d="M 0 237.14856409645765 L 10 237.14856409645765 L 10 238.64856409645765 L 0 238.64856409645765 Z " stroke="none" fill-rule="evenodd" fill="#000000" fill-opacity="1" transform="matrix(1,0,0,1,5.05,13.314)" id="mark28 l" />
  <path d="M 0 230.71887317493176 L 10 230.71887317493176 L 10 232.21887317493176 L 0 232.21887317493176 Z " stroke="none" fill-rule="evenodd" fill="#000000" fill-opacity="1" transform="matrix(1,0,0,1,5.05,13.314)" id="mark29 l" />
  <path d="M 0 224.28918225340587 L 25 224.28918225340587 L 25 225.78918225340587 L 0 225.78918225340587 Z " stroke="none" fill-rule="evenodd" fill="#000000" fill-opacity="1" transform="matrix(1,0,0,1,5.05,13.314)" id="mark30 l" />
  <path d="M 12.223999999999998 221.8231822534059 C 12.221333333333334 221.72184892007255, 12.219333333333333 221.63784892007254, 12.218 221.57118225340588 C 12.216666666666667 221.50451558673922, 12.216666666666667 221.43651558673923, 12.218 221.36718225340587 C 12.219333333333333 221.29784892007257, 12.221333333333334 221.20851558673922, 12.223999999999998 221.0991822534059 L 13.303999999999998 221.0991822534059 L 13.303999999999998 221.96318225340588 C 13.303999999999998 222.20051558673924, 13.417333333333332 222.3511822534059, 13.643999999999998 222.41518225340587 L 13.643999999999998 223.3071822534059 C 13.155999999999999 223.26984892007255, 12.800666666666665 223.1351822534059, 12.578 222.90318225340587 C 12.355333333333334 222.6711822534059, 12.237333333333332 222.3111822534059, 12.223999999999998 221.8231822534059 Z M 12.292 217.7711822534059 L 12.292 216.83918225340588 L 15.536 216.83918225340588 L 15.536 217.7711822534059 Z M 14.143999999999998 222.4191822534059 C 14.367999999999999 222.36318225340588, 14.483999999999998 222.21251558673922, 14.491999999999999 221.9671822534059 C 14.497333333333334 221.76451558673924, 14.500666666666666 221.58184892007256, 14.501999999999999 221.4191822534059 C 14.503333333333332 221.25651558673923, 14.498666666666665 221.0991822534059, 14.488 220.94718225340588 C 14.48 220.78984892007256, 14.431999999999999 220.6565155867392, 14.344 220.54718225340588 C 14.256 220.43784892007255, 14.089333333333332 220.38584892007253, 13.844 220.39118225340587 L 13.096 220.39918225340588 L 13.068 219.5071822534059 L 14.027999999999999 218.1231822534059 L 15.216 218.1231822534059 L 14.248 219.47518225340588 L 14.28 219.47518225340588 C 14.712 219.47518225340588, 15.028666666666666 219.59784892007255, 15.229999999999999 219.8431822534059 C 15.431333333333333 220.08851558673922, 15.544 220.46584892007255, 15.568 220.97518225340588 C 15.57333333333333 221.04718225340588, 15.576666666666664 221.11918225340588, 15.578 221.19118225340588 C 15.57933333333333 221.2631822534059, 15.579999999999998 221.33384892007257, 15.579999999999998 221.40318225340587 C 15.579999999999998 221.47251558673923, 15.57933333333333 221.54184892007254, 15.578 221.6111822534059 C 15.576666666666664 221.6805155867392, 15.57333333333333 221.7511822534059, 15.568 221.8231822534059 C 15.549333333333333 222.3191822534059, 15.428666666666665 222.68384892007256, 15.206 222.91718225340588 C 14.983333333333334 223.1505155867392, 14.630666666666666 223.28051558673923, 14.148 223.3071822534059 Z M 16.196 221.82718225340588 C 16.188000000000002 221.39784892007253, 16.182666666666666 220.98118225340588, 16.18 220.57718225340588 C 16.177333333333333 220.17318225340588, 16.177999999999997 219.77784892007253, 16.182 219.39118225340587 C 16.186 219.00451558673922, 16.190666666666665 218.6231822534059, 16.196 218.2471822534059 C 16.209333333333333 217.80718225340593, 16.334000000000003 217.46184892007255, 16.57 217.2111822534059 C 16.805999999999997 216.96051558673923, 17.142666666666663 216.8151822534059, 17.58 216.7751822534059 L 17.58 217.6631822534059 C 17.382666666666665 217.7191822534059, 17.281333333333333 217.8485155867392, 17.276 218.0511822534059 C 17.262666666666668 218.42184892007253, 17.253333333333334 218.76984892007255, 17.248 219.09518225340588 C 17.242666666666665 219.4205155867392, 17.24 219.73718225340588, 17.24 220.0451822534059 C 17.24 220.35318225340592, 17.242666666666665 220.66784892007257, 17.248 220.9891822534059 C 17.253333333333334 221.3105155867392, 17.262666666666668 221.65384892007256, 17.276 222.0191822534059 C 17.281333333333333 222.22718225340589, 17.382666666666665 222.3591822534059, 17.58 222.41518225340587 L 17.58 223.30318225340588 C 17.142666666666663 223.2631822534059, 16.805999999999997 223.11718225340587, 16.57 222.8651822534059 C 16.334000000000003 222.6131822534059, 16.209333333333333 222.2671822534059, 16.196 221.82718225340588 Z M 18.084 223.30318225340588 L 18.084 222.41118225340588 C 18.268 222.35784892007257, 18.366666666666667 222.23384892007257, 18.38 222.0391822534059 C 18.398666666666667 221.57251558673923, 18.410666666666668 221.12384892007256, 18.416 220.6931822534059 C 18.421333333333333 220.26251558673923, 18.421333333333333 219.83184892007256, 18.416 219.4011822534059 C 18.410666666666668 218.97051558673923, 18.398666666666667 218.51784892007254, 18.38 218.0431822534059 C 18.374666666666666 217.8485155867392, 18.276 217.72184892007255, 18.084 217.6631822534059 L 18.084 216.7751822534059 C 18.513333333333335 216.8151822534059, 18.846666666666668 216.96051558673923, 19.084 217.2111822534059 C 19.321333333333335 217.46184892007255, 19.445333333333334 217.80718225340593, 19.456 218.2471822534059 C 19.46666666666667 218.56184892007258, 19.474666666666668 218.87184892007255, 19.48 219.17718225340587 C 19.485333333333333 219.4825155867392, 19.488 219.78318225340587, 19.488 220.0791822534059 C 19.488 220.37518225340588, 19.485333333333333 220.6685155867392, 19.48 220.95918225340588 C 19.474666666666668 221.24984892007257, 19.46666666666667 221.5391822534059, 19.456 221.82718225340588 C 19.439999999999998 222.27784892007259, 19.311999999999998 222.62651558673923, 19.072 222.87318225340587 C 18.832 223.11984892007254, 18.502666666666666 223.2631822534059, 18.084 223.30318225340588 Z M 21.944 223.2391822534059 L 21.944 216.83918225340588 L 23.003999999999998 216.83918225340588 L 23.003999999999998 223.2391822534059 Z " stroke="none" fill-rule="nonzero" fill="#000000" fill-opacity="1" transform="matrix(1,0,0,1,5.05,13.314)" id="text30 l" />
  <path d="M 0 217.85949133188 L 10 217.85949133188 L 10 219.35949133188 L 0 219.35949133188 Z " stroke="none" fill-rule="evenodd" fill="#000000" fill-opacity="1" transform="matrix(1,0,0,1,5.05,13.314)" id="mark31 l" />
  <path d="M 0 211.42980041035412 L 10 211.42980041035412 L 10 212.92980041035412 L 0 212.92980041035412 Z " stroke="none" fill-rule="evenodd" fill="#000000" fill-opacity="1" transform="matrix(1,0,0,1,5.05,13.314)" id="mark32 l" />
  <path d="M 0 205.00010948882823 L 10 205.00010948882823 L 10 206.50010948882823 L 0 206.50010948882823 Z " stroke="none" fill-rule="evenodd" fill="#000000" fill-opacity="1" transform="matrix(1,0,0,1,5.05,13.314)" id="mark33 l" />
  <path d="M 0 198.57041856730234 L 10 198.57041856730234 L 10 200.07041856730234 L 0 200.07041856730234 Z " stroke="none" fill-rule="evenodd" fill="#000000" fill-opacity="1" transform="matrix(1,0,0,1,5.05,13.314)" id="mark34 l" />
  <path d="M 0 192.14072764577648 L 25 192.14072764577648 L 25 193.64072764577648 L 0 193.64072764577648 Z " stroke="none" fill-rule="evenodd" fill="#000000" fill-opacity="1" transform="matrix(1,0,0,1,5.05,13.314)" id="mark35 l" />
  <path d="M 12.232 189.6427276457765 C 12.229333333333333 189.54139431244315, 12.227333333333334 189.45739431244314, 12.226 189.39072764577648 C 12.224666666666668 189.32406097910982, 12.224666666666668 189.2560609791098, 12.226 189.1867276457765 C 12.227333333333334 189.11739431244314, 12.229333333333333 189.02806097910982, 12.232 188.9187276457765 L 13.312 188.9187276457765 L 13.312 189.78272764577648 C 13.312 190.02006097910981, 13.425333333333333 190.17072764577648, 13.652 190.23472764577647 L 13.652 191.1267276457765 C 13.164 191.08939431244315, 12.808666666666667 190.95472764577647, 12.586 190.72272764577647 C 12.363333333333333 190.49072764577647, 12.245333333333335 190.1307276457765, 12.232 189.6427276457765 Z M 12.3 185.5907276457765 L 12.3 184.65872764577648 L 15.544 184.65872764577648 L 15.544 185.5907276457765 Z M 14.152000000000001 190.2387276457765 C 14.376000000000001 190.18272764577648, 14.492 190.03206097910981, 14.5 189.7867276457765 C 14.505333333333333 189.58406097910984, 14.508666666666667 189.40139431244316, 14.51 189.2387276457765 C 14.511333333333333 189.07606097910983, 14.506666666666668 188.9187276457765, 14.496 188.76672764577648 C 14.488 188.60939431244316, 14.440000000000001 188.47606097910983, 14.352 188.36672764577648 C 14.264 188.25739431244315, 14.097333333333335 188.20539431244316, 13.852 188.21072764577647 L 13.104 188.21872764577648 L 13.076 187.3267276457765 L 14.036 185.94272764577647 L 15.224 185.94272764577647 L 14.256 187.29472764577648 L 14.288 187.29472764577648 C 14.719999999999999 187.29472764577648, 15.036666666666665 187.41739431244315, 15.238 187.6627276457765 C 15.439333333333334 187.90806097910982, 15.552 188.28539431244315, 15.576 188.79472764577648 C 15.581333333333333 188.86672764577648, 15.584666666666667 188.93872764577648, 15.586 189.01072764577648 C 15.587333333333333 189.0827276457765, 15.588000000000001 189.15339431244314, 15.588000000000001 189.22272764577647 C 15.588000000000001 189.2920609791098, 15.587333333333333 189.36139431244314, 15.586 189.43072764577647 C 15.584666666666667 189.5000609791098, 15.581333333333333 189.5707276457765, 15.576 189.6427276457765 C 15.557333333333334 190.1387276457765, 15.436666666666667 190.50339431244316, 15.214 190.73672764577648 C 14.991333333333333 190.9700609791098, 14.638666666666666 191.10006097910983, 14.156 191.1267276457765 Z M 16.18 189.6427276457765 C 16.174666666666667 189.46939431244317, 16.173333333333332 189.33006097910982, 16.176 189.22472764577648 C 16.178666666666665 189.11939431244315, 16.181333333333335 189.01739431244317, 16.183999999999997 188.9187276457765 L 17.264 188.9187276457765 C 17.256 188.9960609791098, 17.25 189.09206097910982, 17.246 189.20672764577648 C 17.241999999999997 189.32139431244315, 17.240666666666666 189.43206097910982, 17.241999999999997 189.53872764577648 C 17.243333333333332 189.64539431244313, 17.246666666666666 189.72539431244314, 17.252 189.77872764577648 C 17.262666666666668 189.8987276457765, 17.297333333333334 189.9967276457765, 17.355999999999998 190.0727276457765 C 17.414666666666665 190.1487276457765, 17.497333333333334 190.20272764577646, 17.604 190.23472764577647 L 17.604 191.1267276457765 C 17.110666666666663 191.08939431244315, 16.75333333333333 190.95472764577647, 16.532 190.72272764577647 C 16.310666666666666 190.49072764577647, 16.19333333333333 190.1307276457765, 16.18 189.6427276457765 Z M 16.279999999999998 188.30672764577648 L 16.279999999999998 184.65872764577648 L 17.348 184.65872764577648 L 17.348 188.30672764577648 Z M 17.852 187.8827276457765 L 17.852 187.1267276457765 C 17.929333333333332 187.08672764577648, 18.014666666666667 187.0547276457765, 18.107999999999997 187.0307276457765 C 18.20133333333333 187.0067276457765, 18.301333333333332 186.9947276457765, 18.407999999999998 186.9947276457765 C 18.773333333333333 186.9947276457765, 19.047333333333334 187.11006097910982, 19.23 187.3407276457765 C 19.412666666666667 187.57139431244318, 19.514666666666663 187.88539431244317, 19.535999999999998 188.28272764577648 C 19.546666666666667 188.44272764577647, 19.55333333333333 188.60139431244315, 19.555999999999997 188.75872764577647 C 19.558666666666664 188.91606097910983, 19.557333333333332 189.06939431244317, 19.552 189.21872764577648 C 19.546666666666667 189.3680609791098, 19.538666666666668 189.5080609791098, 19.528 189.6387276457765 C 19.482666666666667 190.13739431244318, 19.353333333333335 190.50272764577647, 19.14 190.73472764577647 C 18.926666666666666 190.96672764577647, 18.581333333333333 191.09739431244316, 18.104 191.1267276457765 L 18.104 190.23472764577647 C 18.21333333333333 190.20539431244316, 18.296 190.15272764577648, 18.352 190.0767276457765 C 18.408 190.0007276457765, 18.44 189.90139431244316, 18.448 189.77872764577648 C 18.471999999999998 189.4880609791098, 18.485999999999997 189.2267276457765, 18.49 188.9947276457765 C 18.494 188.7627276457765, 18.485333333333333 188.54139431244315, 18.464 188.33072764577648 C 18.447999999999997 188.17606097910982, 18.396666666666665 188.06072764577647, 18.31 187.98472764577647 C 18.223333333333333 187.90872764577648, 18.090666666666664 187.8707276457765, 17.912 187.8707276457765 C 17.901333333333334 187.8707276457765, 17.890666666666668 187.87206097910982, 17.88 187.8747276457765 C 17.86933333333333 187.87739431244316, 17.86 187.88006097910983, 17.852 187.8827276457765 Z M 17.852 185.5907276457765 L 17.852 184.65872764577648 L 19.439999999999998 184.65872764577648 L 19.439999999999998 185.5907276457765 Z M 21.944 191.0587276457765 L 21.944 184.65872764577648 L 23.003999999999998 184.65872764577648 L 23.003999999999998 191.0587276457765 Z " stroke="none" fill-rule="nonzero" fill="#000000" fill-opacity="1" transform="matrix(1,0,0,1,5.05,13.314)" id="text35 l" />
  <path d="M 0 185.7110367242506 L 10 185.7110367242506 L 10 187.2110367242506 L 0 187.2110367242506 Z " stroke="none" fill-rule="evenodd" fill="#000000" fill-opacity="1" transform="matrix(1,0,0,1,5.05,13.314)" id="mark36 l" />
  <path d="M 0 179.2813458027247 L 10 179.2813458027247 L 10 180.7813458027247 L 0 180.7813458027247 Z " stroke="none" fill-rule="evenodd" fill="#000000" fill-opacity="1" transform="matrix(1,0,0,1,5.05,13.314)" id="mark37 l" />
  <path d="M 0 172.8516548811988 L 10 172.8516548811988 L 10 174.3516548811988 L 0 174.3516548811988 Z " stroke="none" fill-rule="evenodd" fill="#000000" fill-opacity="1" transform="matrix(1,0,0,1,5.05,13.314)" id="mark38 l" />
  <path d="M 0 166.42196395967295 L 10 166.42196395967295 L 10 167.92196395967295 L 0 167.92196395967295 Z " stroke="none" fill-rule="evenodd" fill="#000000" fill-opacity="1" transform="matrix(1,0,0,1,5.05,13.314)" id="mark39 l" />
  <path d="M 0 159.99227303814706 L 25 159.99227303814706 L 25 161.49227303814706 L 0 161.49227303814706 Z " stroke="none" fill-rule="evenodd" fill="#000000" fill-opacity="1" transform="matrix(1,0,0,1,5.05,13.314)" id="mark40 l" />
  <path d="M 11.739999999999998 157.25827303814708 L 11.739999999999998 156.38227303814708 L 12.455999999999998 154.50227303814708 L 13.495999999999999 154.50227303814708 L 12.771999999999998 156.33427303814707 L 13.171999999999997 156.33427303814707 L 13.171999999999997 157.25827303814708 Z M 13.675999999999998 158.94227303814708 L 13.675999999999998 152.54227303814707 L 14.683999999999997 152.54227303814707 L 14.683999999999997 158.94227303814708 Z M 15.187999999999999 157.25827303814708 L 15.187999999999999 156.33427303814707 L 15.655999999999999 156.33427303814707 L 15.655999999999999 157.25827303814708 Z M 16.195999999999998 157.53027303814707 C 16.188 157.10093970481375, 16.182666666666666 156.68427303814707, 16.18 156.28027303814707 C 16.177333333333333 155.87627303814708, 16.177999999999997 155.48093970481375, 16.182 155.09427303814707 C 16.186 154.7076063714804, 16.190666666666665 154.32627303814706, 16.195999999999998 153.9502730381471 C 16.20933333333333 153.5102730381471, 16.333999999999996 153.16493970481375, 16.569999999999997 152.9142730381471 C 16.805999999999997 152.66360637148043, 17.142666666666663 152.51827303814707, 17.58 152.47827303814708 L 17.58 153.36627303814709 C 17.382666666666665 153.4222730381471, 17.281333333333333 153.55160637148043, 17.275999999999996 153.7542730381471 C 17.262666666666664 154.12493970481376, 17.25333333333333 154.47293970481374, 17.247999999999998 154.79827303814707 C 17.242666666666665 155.1236063714804, 17.24 155.4402730381471, 17.24 155.7482730381471 C 17.24 156.05627303814708, 17.242666666666665 156.37093970481374, 17.247999999999998 156.69227303814708 C 17.25333333333333 157.01360637148042, 17.262666666666664 157.35693970481375, 17.275999999999996 157.72227303814708 C 17.281333333333333 157.93027303814708, 17.382666666666665 158.06227303814708, 17.58 158.11827303814707 L 17.58 159.00627303814707 C 17.142666666666663 158.96627303814708, 16.805999999999997 158.8202730381471, 16.569999999999997 158.56827303814708 C 16.333999999999996 158.31627303814707, 16.20933333333333 157.97027303814707, 16.195999999999998 157.53027303814707 Z M 18.084 159.00627303814707 L 18.084 158.11427303814708 C 18.268 158.06093970481376, 18.366666666666667 157.93693970481377, 18.38 157.7422730381471 C 18.398666666666664 157.27560637148042, 18.410666666666664 156.82693970481375, 18.415999999999997 156.3962730381471 C 18.42133333333333 155.96560637148042, 18.42133333333333 155.53493970481375, 18.415999999999997 155.10427303814708 C 18.410666666666664 154.67360637148042, 18.398666666666664 154.22093970481373, 18.38 153.74627303814708 C 18.374666666666666 153.5516063714804, 18.276 153.42493970481374, 18.084 153.36627303814709 L 18.084 152.47827303814708 C 18.513333333333332 152.51827303814707, 18.846666666666664 152.66360637148043, 19.083999999999996 152.9142730381471 C 19.32133333333333 153.16493970481375, 19.44533333333333 153.5102730381471, 19.456 153.9502730381471 C 19.466666666666665 154.26493970481374, 19.474666666666664 154.57493970481374, 19.479999999999997 154.88027303814707 C 19.48533333333333 155.1856063714804, 19.488 155.48627303814706, 19.488 155.78227303814708 C 19.488 156.07827303814707, 19.48533333333333 156.37160637148042, 19.479999999999997 156.66227303814708 C 19.474666666666664 156.95293970481373, 19.466666666666665 157.24227303814706, 19.456 157.53027303814707 C 19.439999999999998 157.98093970481375, 19.311999999999998 158.32960637148042, 19.072 158.57627303814706 C 18.831999999999997 158.82293970481373, 18.502666666666663 158.96627303814708, 18.084 159.00627303814707 Z M 21.944 158.94227303814708 L 21.944 152.54227303814707 L 23.003999999999998 152.54227303814707 L 23.003999999999998 158.94227303814708 Z " stroke="none" fill-rule="nonzero" fill="#000000" fill-opacity="1" transform="matrix(1,0,0,1,5.05,13.314)" id="text40 l" />
  <path d="M 0 153.56258211662117 L 10 153.56258211662117 L 10 155.06258211662117 L 0 155.06258211662117 Z " stroke="none" fill-rule="evenodd" fill="#000000" fill-opacity="1" transform="matrix(1,0,0,1,5.05,13.314)" id="mark41 l" />
  <path d="M 0 147.13289119509528 L 10 147.13289119509528 L 10 148.63289119509528 L 0 148.63289119509528 Z " stroke="none" fill-rule="evenodd" fill="#000000" fill-opacity="1" transform="matrix(1,0,0,1,5.05,13.314)" id="mark42 l" />
  <path d="M 0 140.7032002735694 L 10 140.7032002735694 L 10 142.2032002735694 L 0 142.2032002735694 Z " stroke="none" fill-rule="evenodd" fill="#000000" fill-opacity="1" transform="matrix(1,0,0,1,5.05,13.314)" id="mark43 l" />
  <path d="M 0 134.2735093520435 L 10 134.2735093520435 L 10 135.7735093520435 L 0 135.7735093520435 Z " stroke="none" fill-rule="evenodd" fill="#000000" fill-opacity="1" transform="matrix(1,0,0,1,5.05,13.314)" id="mark44 l" />
  <path d="M 0 127.84381843051767 L 25 127.84381843051767 L 25 129.34381843051767 L 0 129.34381843051767 Z " stroke="none" fill-rule="evenodd" fill="#000000" fill-opacity="1" transform="matrix(1,0,0,1,5.05,13.314)" id="mark45 l" />
  <path d="M 11.748 125.07781843051768 L 11.748 124.20181843051768 L 12.463999999999999 122.32181843051768 L 13.503999999999998 122.32181843051768 L 12.78 124.15381843051767 L 13.18 124.15381843051767 L 13.18 125.07781843051768 Z M 13.684 126.76181843051768 L 13.684 120.36181843051767 L 14.691999999999998 120.36181843051767 L 14.691999999999998 126.76181843051768 Z M 15.195999999999998 125.07781843051768 L 15.195999999999998 124.15381843051767 L 15.663999999999998 124.15381843051767 L 15.663999999999998 125.07781843051768 Z M 16.18 125.34581843051768 C 16.174666666666667 125.17248509718435, 16.173333333333332 125.03315176385101, 16.176 124.92781843051768 C 16.178666666666665 124.82248509718434, 16.181333333333335 124.72048509718434, 16.183999999999997 124.62181843051768 L 17.264 124.62181843051768 C 17.256 124.699151763851, 17.25 124.79515176385101, 17.246 124.90981843051767 C 17.241999999999997 125.02448509718434, 17.240666666666666 125.13515176385101, 17.241999999999997 125.24181843051768 C 17.243333333333332 125.34848509718435, 17.246666666666666 125.42848509718435, 17.252 125.48181843051768 C 17.262666666666668 125.60181843051768, 17.297333333333334 125.69981843051768, 17.355999999999998 125.77581843051767 C 17.414666666666665 125.85181843051768, 17.497333333333334 125.90581843051768, 17.604 125.93781843051768 L 17.604 126.82981843051768 C 17.110666666666663 126.79248509718434, 16.75333333333333 126.65781843051768, 16.532 126.42581843051768 C 16.310666666666666 126.19381843051768, 16.19333333333333 125.83381843051768, 16.18 125.34581843051768 Z M 16.279999999999998 124.00981843051768 L 16.279999999999998 120.36181843051767 L 17.348 120.36181843051767 L 17.348 124.00981843051768 Z M 17.852 123.58581843051768 L 17.852 122.82981843051768 C 17.929333333333332 122.78981843051767, 18.014666666666667 122.75781843051766, 18.107999999999997 122.73381843051767 C 18.20133333333333 122.70981843051769, 18.301333333333332 122.69781843051769, 18.407999999999998 122.69781843051769 C 18.773333333333333 122.69781843051769, 19.047333333333334 122.81315176385101, 19.23 123.04381843051767 C 19.412666666666667 123.27448509718434, 19.514666666666663 123.58848509718435, 19.535999999999998 123.98581843051768 C 19.546666666666667 124.14581843051768, 19.55333333333333 124.30448509718434, 19.555999999999997 124.46181843051768 C 19.558666666666664 124.61915176385102, 19.557333333333332 124.77248509718434, 19.552 124.92181843051767 C 19.546666666666667 125.071151763851, 19.538666666666668 125.211151763851, 19.528 125.34181843051768 C 19.482666666666667 125.84048509718434, 19.353333333333335 126.20581843051767, 19.14 126.43781843051768 C 18.926666666666666 126.66981843051767, 18.581333333333333 126.80048509718435, 18.104 126.82981843051768 L 18.104 125.93781843051768 C 18.21333333333333 125.90848509718435, 18.296 125.85581843051769, 18.352 125.77981843051768 C 18.408 125.70381843051767, 18.44 125.60448509718434, 18.448 125.48181843051768 C 18.471999999999998 125.19115176385101, 18.485999999999997 124.92981843051768, 18.49 124.69781843051769 C 18.494 124.46581843051769, 18.485333333333333 124.24448509718434, 18.464 124.03381843051768 C 18.447999999999997 123.87915176385101, 18.396666666666665 123.76381843051769, 18.31 123.68781843051768 C 18.223333333333333 123.61181843051767, 18.090666666666664 123.57381843051766, 17.912 123.57381843051768 C 17.901333333333334 123.57381843051766, 17.890666666666668 123.57515176385101, 17.88 123.57781843051768 C 17.86933333333333 123.58048509718435, 17.86 123.58315176385102, 17.852 123.58581843051768 Z M 17.852 121.29381843051767 L 17.852 120.36181843051767 L 19.439999999999998 120.36181843051767 L 19.439999999999998 121.29381843051767 Z M 21.944 126.76181843051768 L 21.944 120.36181843051767 L 23.003999999999998 120.36181843051767 L 23.003999999999998 126.76181843051768 Z " stroke="none" fill-rule="nonzero" fill="#000000" fill-opacity="1" transform="matrix(1,0,0,1,5.05,13.314)" id="text45 l" />
  <path d="M 0 121.41412750899178 L 10 121.41412750899178 L 10 122.91412750899178 L 0 122.91412750899178 Z " stroke="none" fill-rule="evenodd" fill="#000000" fill-opacity="1" transform="matrix(1,0,0,1,5.05,13.314)" id="mark46 l" />
  <path d="M 0 114.9844365874659 L 10 114.9844365874659 L 10 116.4844365874659 L 0 116.4844365874659 Z " stroke="none" fill-rule="evenodd" fill="#000000" fill-opacity="1" transform="matrix(1,0,0,1,5.05,13.314)" id="mark47 l" />
  <path d="M 0 108.55474566594 L 10 108.55474566594 L 10 110.05474566594 L 0 110.05474566594 Z " stroke="none" fill-rule="evenodd" fill="#000000" fill-opacity="1" transform="matrix(1,0,0,1,5.05,13.314)" id="mark48 l" />
  <path d="M 0 102.12505474441411 L 10 102.12505474441411 L 10 103.62505474441411 L 0 103.62505474441411 Z " stroke="none" fill-rule="evenodd" fill="#000000" fill-opacity="1" transform="matrix(1,0,0,1,5.05,13.314)" id="mark49 l" />
  <path d="M 0 95.69536382288823 L 25 95.69536382288823 L 25 97.19536382288823 L 0 97.19536382288823 Z " stroke="none" fill-rule="evenodd" fill="#000000" fill-opacity="1" transform="matrix(1,0,0,1,5.05,13.314)" id="mark50 l" />
  <path d="M 12.204 93.22936382288823 C 12.198666666666668 93.0560304895549, 12.197333333333333 92.91669715622156, 12.2 92.81136382288823 C 12.202666666666667 92.70603048955489, 12.205333333333336 92.60403048955489, 12.208 92.50536382288823 L 13.288 92.50536382288823 C 13.280000000000001 92.58269715622156, 13.274000000000001 92.67869715622156, 13.27 92.79336382288822 C 13.265999999999998 92.90803048955489, 13.264666666666667 93.01869715622156, 13.266 93.12536382288823 C 13.267333333333333 93.2320304895549, 13.270666666666667 93.3120304895549, 13.276 93.36536382288823 C 13.286666666666665 93.48536382288823, 13.321333333333332 93.58336382288823, 13.379999999999999 93.65936382288822 C 13.438666666666666 93.73536382288823, 13.521333333333335 93.78936382288823, 13.628 93.82136382288823 L 13.628 94.71336382288823 C 13.134666666666668 94.6760304895549, 12.777333333333335 94.54136382288823, 12.556 94.30936382288823 C 12.334666666666667 94.07736382288823, 12.217333333333332 93.71736382288823, 12.204 93.22936382288823 Z M 12.304 91.89336382288823 L 12.304 88.24536382288822 L 13.372 88.24536382288822 L 13.372 91.89336382288823 Z M 13.876 91.46936382288823 L 13.876 90.71336382288823 C 13.953333333333333 90.67336382288822, 14.038666666666668 90.64136382288822, 14.132 90.61736382288822 C 14.225333333333333 90.59336382288822, 14.325333333333333 90.58136382288822, 14.432 90.58136382288822 C 14.797333333333334 90.58136382288822, 15.071333333333332 90.69669715622155, 15.254 90.92736382288822 C 15.436666666666667 91.1580304895549, 15.538666666666668 91.4720304895549, 15.56 91.86936382288823 C 15.570666666666668 92.02936382288823, 15.577333333333334 92.1880304895549, 15.58 92.34536382288823 C 15.582666666666666 92.50269715622156, 15.581333333333333 92.6560304895549, 15.576 92.80536382288822 C 15.570666666666666 92.95469715622156, 15.562666666666665 93.09469715622156, 15.552 93.22536382288823 C 15.506666666666668 93.72403048955489, 15.377333333333333 94.08936382288823, 15.164 94.32136382288823 C 14.950666666666667 94.55336382288823, 14.605333333333332 94.68403048955489, 14.128 94.71336382288823 L 14.128 93.82136382288823 C 14.237333333333334 93.7920304895549, 14.32 93.73936382288824, 14.376 93.66336382288823 C 14.432 93.58736382288822, 14.464 93.48803048955489, 14.472 93.36536382288823 C 14.495999999999999 93.07469715622156, 14.509999999999998 92.81336382288822, 14.514 92.58136382288822 C 14.518 92.34936382288822, 14.509333333333334 92.12803048955489, 14.488 91.91736382288823 C 14.472000000000001 91.76269715622156, 14.420666666666666 91.64736382288824, 14.334 91.57136382288823 C 14.247333333333334 91.49536382288822, 14.114666666666666 91.45736382288823, 13.936 91.45736382288823 C 13.925333333333333 91.45736382288823, 13.914666666666665 91.45869715622156, 13.904 91.46136382288823 C 13.893333333333334 91.46403048955489, 13.884 91.46669715622156, 13.876 91.46936382288823 Z M 13.876 89.17736382288822 L 13.876 88.24536382288822 L 15.464 88.24536382288822 L 15.464 89.17736382288822 Z M 16.196 93.23336382288822 C 16.188000000000002 92.80403048955489, 16.182666666666666 92.38736382288823, 16.18 91.98336382288822 C 16.177333333333333 91.57936382288823, 16.177999999999997 91.1840304895549, 16.182 90.79736382288823 C 16.186 90.41069715622156, 16.190666666666665 90.02936382288823, 16.196 89.65336382288822 C 16.209333333333333 89.21336382288823, 16.334000000000003 88.8680304895549, 16.57 88.61736382288822 C 16.805999999999997 88.36669715622156, 17.142666666666663 88.22136382288824, 17.58 88.18136382288823 L 17.58 89.06936382288823 C 17.382666666666665 89.12536382288823, 17.281333333333333 89.25469715622155, 17.276 89.45736382288823 C 17.262666666666668 89.82803048955489, 17.253333333333334 90.17603048955489, 17.248 90.50136382288822 C 17.242666666666665 90.82669715622156, 17.24 91.14336382288823, 17.24 91.45136382288823 C 17.24 91.75936382288822, 17.242666666666665 92.0740304895549, 17.248 92.39536382288823 C 17.253333333333334 92.71669715622156, 17.262666666666668 93.06003048955489, 17.276 93.42536382288823 C 17.281333333333333 93.63336382288823, 17.382666666666665 93.76536382288823, 17.58 93.82136382288823 L 17.58 94.70936382288822 C 17.142666666666663 94.66936382288823, 16.805999999999997 94.52336382288823, 16.57 94.27136382288823 C 16.334000000000003 94.01936382288824, 16.209333333333333 93.67336382288823, 16.196 93.23336382288822 Z M 18.084 94.70936382288822 L 18.084 93.81736382288823 C 18.268 93.7640304895549, 18.366666666666667 93.64003048955489, 18.38 93.44536382288823 C 18.398666666666667 92.97869715622156, 18.410666666666668 92.53003048955489, 18.416 92.09936382288822 C 18.421333333333333 91.66869715622157, 18.421333333333333 91.2380304895549, 18.416 90.80736382288823 C 18.410666666666668 90.37669715622157, 18.398666666666667 89.9240304895549, 18.38 89.44936382288823 C 18.374666666666666 89.25469715622157, 18.276 89.1280304895549, 18.084 89.06936382288823 L 18.084 88.18136382288823 C 18.513333333333335 88.22136382288824, 18.846666666666668 88.36669715622156, 19.084 88.61736382288822 C 19.321333333333335 88.8680304895549, 19.445333333333334 89.21336382288823, 19.456 89.65336382288822 C 19.46666666666667 89.9680304895549, 19.474666666666668 90.27803048955491, 19.48 90.58336382288823 C 19.485333333333333 90.88869715622155, 19.488 91.18936382288823, 19.488 91.48536382288823 C 19.488 91.78136382288824, 19.485333333333333 92.07469715622156, 19.48 92.36536382288823 C 19.474666666666668 92.6560304895549, 19.46666666666667 92.94536382288823, 19.456 93.23336382288822 C 19.439999999999998 93.68403048955489, 19.311999999999998 94.03269715622156, 19.072 94.27936382288823 C 18.832 94.5260304895549, 18.502666666666666 94.66936382288823, 18.084 94.70936382288822 Z M 21.944 94.64536382288823 L 21.944 88.24536382288822 L 23.003999999999998 88.24536382288822 L 23.003999999999998 94.64536382288823 Z " stroke="none" fill-rule="nonzero" fill="#000000" fill-opacity="1" transform="matrix(1,0,0,1,5.05,13.314)" id="text50 l" />
  <path d="M 0 89.26567290136234 L 10 89.26567290136234 L 10 90.76567290136234 L 0 90.76567290136234 Z " stroke="none" fill-rule="evenodd" fill="#000000" fill-opacity="1" transform="matrix(1,0,0,1,5.05,13.314)" id="mark51 l" />
  <path d="M 0 82.83598197983645 L 10 82.83598197983645 L 10 84.33598197983645 L 0 84.33598197983645 Z " stroke="none" fill-rule="evenodd" fill="#000000" fill-opacity="1" transform="matrix(1,0,0,1,5.05,13.314)" id="mark52 l" />
  <path d="M 0 76.40629105831061 L 10 76.40629105831061 L 10 77.90629105831061 L 0 77.90629105831061 Z " stroke="none" fill-rule="evenodd" fill="#000000" fill-opacity="1" transform="matrix(1,0,0,1,5.05,13.314)" id="mark53 l" />
  <path d="M 0 69.97660013678473 L 10 69.97660013678473 L 10 71.47660013678473 L 0 71.47660013678473 Z " stroke="none" fill-rule="evenodd" fill="#000000" fill-opacity="1" transform="matrix(1,0,0,1,5.05,13.314)" id="mark54 l" />
  <path d="M 0 63.546909215258836 L 25 63.546909215258836 L 25 65.04690921525884 L 0 65.04690921525884 Z " stroke="none" fill-rule="evenodd" fill="#000000" fill-opacity="1" transform="matrix(1,0,0,1,5.05,13.314)" id="mark55 l" />
  <path d="M 12.212 61.04890921525884 C 12.206666666666667 60.8755758819255, 12.205333333333332 60.73624254859216, 12.207999999999998 60.63090921525883 C 12.210666666666667 60.525575881925505, 12.213333333333335 60.4235758819255, 12.216 60.324909215258835 L 13.296 60.324909215258835 C 13.288 60.40224254859217, 13.282 60.49824254859217, 13.277999999999999 60.61290921525884 C 13.273999999999997 60.7275758819255, 13.272666666666666 60.83824254859216, 13.274 60.94490921525883 C 13.275333333333332 61.0515758819255, 13.278666666666666 61.1315758819255, 13.283999999999999 61.184909215258834 C 13.294666666666664 61.30490921525883, 13.32933333333333 61.40290921525883, 13.387999999999998 61.47890921525884 C 13.446666666666665 61.55490921525883, 13.529333333333334 61.608909215258834, 13.636 61.64090921525884 L 13.636 62.53290921525883 C 13.142666666666667 62.495575881925504, 12.785333333333334 62.360909215258836, 12.563999999999998 62.12890921525884 C 12.342666666666666 61.89690921525884, 12.225333333333332 61.53690921525884, 12.212 61.04890921525884 Z M 12.312 59.71290921525883 L 12.312 56.06490921525884 L 13.379999999999999 56.06490921525884 L 13.379999999999999 59.71290921525883 Z M 13.883999999999999 59.28890921525883 L 13.883999999999999 58.53290921525883 C 13.961333333333332 58.492909215258834, 14.046666666666667 58.46090921525884, 14.139999999999999 58.43690921525884 C 14.233333333333333 58.412909215258836, 14.333333333333332 58.400909215258835, 14.44 58.400909215258835 C 14.805333333333333 58.400909215258835, 15.07933333333333 58.51624254859217, 15.261999999999999 58.74690921525884 C 15.444666666666667 58.9775758819255, 15.546666666666667 59.291575881925496, 15.568 59.68890921525883 C 15.578666666666667 59.84890921525883, 15.585333333333333 60.007575881925504, 15.588 60.16490921525884 C 15.590666666666666 60.32224254859217, 15.589333333333332 60.4755758819255, 15.584 60.62490921525883 C 15.578666666666665 60.77424254859217, 15.570666666666664 60.91424254859217, 15.559999999999999 61.04490921525883 C 15.514666666666667 61.543575881925506, 15.385333333333332 61.908909215258845, 15.171999999999999 62.14090921525884 C 14.958666666666666 62.372909215258844, 14.613333333333332 62.5035758819255, 14.136 62.53290921525883 L 14.136 61.64090921525884 C 14.245333333333333 61.6115758819255, 14.328 61.558909215258836, 14.383999999999999 61.482909215258836 C 14.44 61.406909215258835, 14.472 61.3075758819255, 14.479999999999999 61.184909215258834 C 14.503999999999998 60.89424254859217, 14.517999999999997 60.632909215258834, 14.521999999999998 60.400909215258835 C 14.526 60.168909215258836, 14.517333333333333 59.9475758819255, 14.495999999999999 59.736909215258834 C 14.48 59.58224254859217, 14.428666666666665 59.46690921525884, 14.341999999999999 59.39090921525884 C 14.255333333333333 59.31490921525884, 14.122666666666666 59.27690921525884, 13.943999999999999 59.27690921525883 C 13.933333333333332 59.27690921525884, 13.922666666666665 59.278242548592175, 13.911999999999999 59.28090921525884 C 13.901333333333334 59.2835758819255, 13.892 59.28624254859217, 13.883999999999999 59.28890921525883 Z M 13.883999999999999 56.99690921525884 L 13.883999999999999 56.06490921525884 L 15.472 56.06490921525884 L 15.472 56.99690921525884 Z M 16.18 61.04890921525884 C 16.174666666666667 60.8755758819255, 16.173333333333332 60.73624254859216, 16.176 60.63090921525883 C 16.178666666666665 60.525575881925505, 16.181333333333335 60.4235758819255, 16.183999999999997 60.324909215258835 L 17.264 60.324909215258835 C 17.256 60.40224254859217, 17.25 60.49824254859217, 17.246 60.61290921525884 C 17.241999999999997 60.7275758819255, 17.240666666666666 60.83824254859216, 17.241999999999997 60.94490921525883 C 17.243333333333332 61.0515758819255, 17.246666666666666 61.1315758819255, 17.252 61.184909215258834 C 17.262666666666668 61.30490921525883, 17.297333333333334 61.40290921525883, 17.355999999999998 61.47890921525884 C 17.414666666666665 61.55490921525883, 17.497333333333334 61.608909215258834, 17.604 61.64090921525884 L 17.604 62.53290921525883 C 17.110666666666663 62.495575881925504, 16.75333333333333 62.360909215258836, 16.532 62.12890921525884 C 16.310666666666666 61.89690921525884, 16.19333333333333 61.53690921525884, 16.18 61.04890921525884 Z M 16.279999999999998 59.71290921525883 L 16.279999999999998 56.06490921525884 L 17.348 56.06490921525884 L 17.348 59.71290921525883 Z M 17.852 59.28890921525883 L 17.852 58.53290921525883 C 17.929333333333332 58.492909215258834, 18.014666666666667 58.46090921525884, 18.107999999999997 58.43690921525884 C 18.20133333333333 58.412909215258836, 18.301333333333332 58.400909215258835, 18.407999999999998 58.400909215258835 C 18.773333333333333 58.400909215258835, 19.047333333333334 58.51624254859217, 19.23 58.74690921525884 C 19.412666666666667 58.9775758819255, 19.514666666666663 59.291575881925496, 19.535999999999998 59.68890921525883 C 19.546666666666667 59.84890921525883, 19.55333333333333 60.007575881925504, 19.555999999999997 60.16490921525884 C 19.558666666666664 60.32224254859217, 19.557333333333332 60.4755758819255, 19.552 60.62490921525883 C 19.546666666666667 60.77424254859217, 19.538666666666668 60.91424254859217, 19.528 61.04490921525883 C 19.482666666666667 61.543575881925506, 19.353333333333335 61.908909215258845, 19.14 62.14090921525884 C 18.926666666666666 62.372909215258844, 18.581333333333333 62.5035758819255, 18.104 62.53290921525883 L 18.104 61.64090921525884 C 18.21333333333333 61.6115758819255, 18.296 61.558909215258836, 18.352 61.482909215258836 C 18.408 61.406909215258835, 18.44 61.3075758819255, 18.448 61.184909215258834 C 18.471999999999998 60.89424254859217, 18.485999999999997 60.632909215258834, 18.49 60.400909215258835 C 18.494 60.168909215258836, 18.485333333333333 59.9475758819255, 18.464 59.736909215258834 C 18.447999999999997 59.58224254859217, 18.396666666666665 59.46690921525884, 18.31 59.39090921525884 C 18.223333333333333 59.31490921525884, 18.090666666666664 59.27690921525884, 17.912 59.27690921525883 C 17.901333333333334 59.27690921525884, 17.890666666666668 59.278242548592175, 17.88 59.28090921525884 C 17.86933333333333 59.2835758819255, 17.86 59.28624254859217, 17.852 59.28890921525883 Z M 17.852 56.99690921525884 L 17.852 56.06490921525884 L 19.439999999999998 56.06490921525884 L 19.439999999999998 56.99690921525884 Z M 21.944 62.464909215258835 L 21.944 56.06490921525884 L 23.003999999999998 56.06490921525884 L 23.003999999999998 62.464909215258835 Z " stroke="none" fill-rule="nonzero" fill="#000000" fill-opacity="1" transform="matrix(1,0,0,1,5.05,13.314)" id="text55 l" />
  <path d="M 0 57.11721829373295 L 10 57.11721829373295 L 10 58.61721829373295 L 0 58.61721829373295 Z " stroke="none" fill-rule="evenodd" fill="#000000" fill-opacity="1" transform="matrix(1,0,0,1,5.05,13.314)" id="mark56 l" />
  <path d="M 0 50.68752737220706 L 10 50.68752737220706 L 10 52.18752737220706 L 0 52.18752737220706 Z " stroke="none" fill-rule="evenodd" fill="#000000" fill-opacity="1" transform="matrix(1,0,0,1,5.05,13.314)" id="mark57 l" />
  <path d="M 0 44.25783645068117 L 10 44.25783645068117 L 10 45.75783645068117 L 0 45.75783645068117 Z " stroke="none" fill-rule="evenodd" fill="#000000" fill-opacity="1" transform="matrix(1,0,0,1,5.05,13.314)" id="mark58 l" />
  <path d="M 0 37.82814552915528 L 10 37.82814552915528 L 10 39.32814552915528 L 0 39.32814552915528 Z " stroke="none" fill-rule="evenodd" fill="#000000" fill-opacity="1" transform="matrix(1,0,0,1,5.05,13.314)" id="mark59 l" />
  <path d="M 0 31.39845460762939 L 25 31.39845460762939 L 25 32.89845460762939 L 0 32.89845460762939 Z " stroke="none" fill-rule="evenodd" fill="#000000" fill-opacity="1" transform="matrix(1,0,0,1,5.05,13.314)" id="mark60 l" />
  <path d="M 12.264 28.93245460762939 C 12.261333333333333 28.668454607629386, 12.258 28.391121274296054, 12.254 28.100454607629388 C 12.25 27.80978794096272, 12.248 27.511121274296052, 12.248 27.204454607629387 C 12.248 26.897787940962722, 12.249333333333333 26.589787940962722, 12.251999999999999 26.280454607629387 C 12.254666666666665 25.971121274296053, 12.258666666666667 25.663121274296053, 12.264 25.356454607629388 C 12.271999999999998 24.89245460762939, 12.397333333333332 24.54045460762939, 12.639999999999999 24.30045460762939 C 12.882666666666665 24.06045460762939, 13.215999999999998 23.92178794096272, 13.639999999999999 23.884454607629387 L 13.639999999999999 24.77645460762939 C 13.543999999999997 24.80045460762939, 13.470666666666665 24.84445460762939, 13.419999999999998 24.908454607629388 C 13.369333333333332 24.972454607629388, 13.343999999999998 25.05778794096272, 13.344 25.164454607629388 C 13.335999999999999 25.652454607629387, 13.330666666666666 26.119121274296056, 13.328 26.56445460762939 C 13.325333333333333 27.009787940962724, 13.323999999999998 27.443121274296054, 13.323999999999998 27.86445460762939 C 13.323999999999998 28.28578794096272, 13.328 28.70045460762939, 13.335999999999999 29.10845460762939 C 13.335999999999999 29.217787940962722, 13.363333333333333 29.30712127429605, 13.418 29.376454607629388 C 13.472666666666665 29.445787940962724, 13.549333333333333 29.495121274296054, 13.648 29.524454607629387 L 13.648 30.41645460762939 C 13.159999999999998 30.384454607629387, 12.809333333333331 30.25245460762939, 12.595999999999998 30.02045460762939 C 12.382666666666665 29.78845460762939, 12.271999999999998 29.42578794096272, 12.264 28.93245460762939 Z M 13.812 27.25245460762939 L 13.812 26.50845460762939 C 13.894666666666666 26.460454607629387, 13.987333333333332 26.423121274296058, 14.09 26.396454607629387 C 14.192666666666668 26.369787940962723, 14.301333333333332 26.356454607629388, 14.415999999999999 26.356454607629388 C 14.84 26.356454607629388, 15.134 26.455787940962722, 15.297999999999998 26.65445460762939 C 15.462 26.853121274296054, 15.547999999999998 27.184454607629387, 15.556 27.64845460762939 C 15.561333333333334 27.83245460762939, 15.564666666666666 27.987787940962725, 15.565999999999999 28.11445460762939 C 15.567333333333332 28.241121274296056, 15.567333333333332 28.36578794096272, 15.565999999999999 28.48845460762939 C 15.564666666666666 28.611121274296053, 15.559999999999999 28.759121274296056, 15.552 28.93245460762939 C 15.527999999999999 29.423121274296058, 15.408 29.785787940962724, 15.192 30.02045460762939 C 14.975999999999999 30.255121274296055, 14.628 30.387121274296057, 14.148 30.41645460762939 L 14.148 29.53245460762939 C 14.251999999999999 29.503121274296056, 14.331333333333333 29.455121274296054, 14.386 29.388454607629388 C 14.440666666666665 29.32178794096272, 14.469333333333333 29.235121274296056, 14.472 29.12845460762939 C 14.477333333333332 28.973787940962723, 14.481333333333332 28.835121274296053, 14.483999999999998 28.71245460762939 C 14.486666666666666 28.589787940962722, 14.489333333333335 28.472454607629388, 14.491999999999999 28.36045460762939 C 14.494666666666667 28.24845460762939, 14.495333333333333 28.137121274296057, 14.494 28.02645460762939 C 14.492666666666667 27.915787940962723, 14.489333333333333 27.799121274296056, 14.483999999999998 27.67645460762939 C 14.481333333333332 27.527121274296057, 14.429333333333332 27.41645460762939, 14.328 27.344454607629388 C 14.226666666666665 27.272454607629392, 14.094666666666665 27.23645460762939, 13.931999999999999 27.23645460762939 C 13.913333333333334 27.23645460762939, 13.894 27.237121274296058, 13.873999999999999 27.23845460762939 C 13.854 27.23978794096272, 13.833333333333332 27.244454607629386, 13.812 27.25245460762939 Z M 14.44 25.93245460762939 C 14.448 25.839121274296055, 14.452666666666666 25.757121274296054, 14.453999999999999 25.68645460762939 C 14.455333333333332 25.615787940962722, 14.454666666666665 25.540454607629385, 14.451999999999998 25.460454607629387 C 14.449333333333332 25.38045460762939, 14.445333333333334 25.281787940962722, 14.44 25.164454607629388 C 14.434666666666665 25.06578794096272, 14.407999999999998 24.982454607629386, 14.36 24.914454607629388 C 14.311999999999998 24.84645460762939, 14.238666666666665 24.80045460762939, 14.139999999999999 24.77645460762939 L 14.139999999999999 23.888454607629388 C 14.577333333333332 23.928454607629387, 14.911333333333332 24.073121274296057, 15.142 24.32245460762939 C 15.372666666666667 24.57178794096272, 15.495999999999999 24.899121274296057, 15.511999999999999 25.30445460762939 C 15.514666666666667 25.37112127429606, 15.516666666666666 25.43445460762939, 15.517999999999999 25.49445460762939 C 15.519333333333332 25.55445460762939, 15.519333333333332 25.61845460762939, 15.517999999999999 25.68645460762939 C 15.516666666666666 25.75445460762939, 15.514666666666667 25.836454607629392, 15.511999999999999 25.93245460762939 Z M 16.196 28.93645460762939 C 16.188000000000002 28.507121274296054, 16.182666666666666 28.09045460762939, 16.18 27.68645460762939 C 16.177333333333333 27.28245460762939, 16.177999999999997 26.887121274296057, 16.182 26.50045460762939 C 16.186 26.113787940962723, 16.190666666666665 25.732454607629386, 16.196 25.356454607629388 C 16.209333333333333 24.91645460762939, 16.334000000000003 24.571121274296054, 16.57 24.320454607629387 C 16.805999999999997 24.069787940962723, 17.142666666666663 23.92445460762939, 17.58 23.884454607629387 L 17.58 24.77245460762939 C 17.382666666666665 24.82845460762939, 17.281333333333333 24.957787940962724, 17.276 25.16045460762939 C 17.262666666666668 25.531121274296055, 17.253333333333334 25.879121274296054, 17.248 26.204454607629387 C 17.242666666666665 26.52978794096272, 17.24 26.84645460762939, 17.24 27.15445460762939 C 17.24 27.46245460762939, 17.242666666666665 27.777121274296057, 17.248 28.09845460762939 C 17.253333333333334 28.41978794096272, 17.262666666666668 28.763121274296054, 17.276 29.12845460762939 C 17.281333333333333 29.336454607629392, 17.382666666666665 29.46845460762939, 17.58 29.524454607629387 L 17.58 30.41245460762939 C 17.142666666666663 30.37245460762939, 16.805999999999997 30.226454607629393, 16.57 29.97445460762939 C 16.334000000000003 29.722454607629388, 16.209333333333333 29.37645460762939, 16.196 28.93645460762939 Z M 18.084 30.41245460762939 L 18.084 29.52045460762939 C 18.268 29.467121274296055, 18.366666666666667 29.343121274296056, 18.38 29.14845460762939 C 18.398666666666667 28.681787940962725, 18.410666666666668 28.23312127429606, 18.416 27.80245460762939 C 18.421333333333333 27.371787940962726, 18.421333333333333 26.94112127429606, 18.416 26.510454607629388 C 18.410666666666668 26.079787940962724, 18.398666666666667 25.627121274296055, 18.38 25.152454607629387 C 18.374666666666666 24.95778794096272, 18.276 24.831121274296052, 18.084 24.77245460762939 L 18.084 23.884454607629387 C 18.513333333333335 23.92445460762939, 18.846666666666668 24.069787940962723, 19.084 24.320454607629387 C 19.321333333333335 24.571121274296054, 19.445333333333334 24.91645460762939, 19.456 25.356454607629388 C 19.46666666666667 25.671121274296056, 19.474666666666668 25.981121274296054, 19.48 26.286454607629388 C 19.485333333333333 26.59178794096272, 19.488 26.89245460762939, 19.488 27.18845460762939 C 19.488 27.484454607629388, 19.485333333333333 27.777787940962718, 19.48 28.068454607629388 C 19.474666666666668 28.35912127429605, 19.46666666666667 28.64845460762939, 19.456 28.93645460762939 C 19.439999999999998 29.387121274296057, 19.311999999999998 29.735787940962723, 19.072 29.98245460762939 C 18.832 30.229121274296055, 18.502666666666666 30.37245460762939, 18.084 30.41245460762939 Z M 21.944 30.34845460762939 L 21.944 23.948454607629387 L 23.003999999999998 23.948454607629387 L 23.003999999999998 30.34845460762939 Z " stroke="none" fill-rule="nonzero" fill="#000000" fill-opacity="1" transform="matrix(1,0,0,1,5.05,13.314)" id="text60 l" />
  <path d="M 0 24.968763686103557 L 10 24.968763686103557 L 10 26.468763686103557 L 0 26.468763686103557 Z " stroke="none" fill-rule="evenodd" fill="#000000" fill-opacity="1" transform="matrix(1,0,0,1,5.05,13.314)" id="mark61 l" />
  <path d="M 0 18.539072764577668 L 10 18.539072764577668 L 10 20.039072764577668 L 0 20.039072764577668 Z " stroke="none" fill-rule="evenodd" fill="#000000" fill-opacity="1" transform="matrix(1,0,0,1,5.05,13.314)" id="mark62 l" />
  <path d="M 0 12.109381843051779 L 10 12.109381843051779 L 10 13.609381843051779 L 0 13.609381843051779 Z " stroke="none" fill-rule="evenodd" fill="#000000" fill-opacity="1" transform="matrix(1,0,0,1,5.05,13.314)" id="mark63 l" />
  <path d="M 0 5.679690921525889 L 10 5.679690921525889 L 10 7.179690921525889 L 0 7.179690921525889 Z " stroke="none" fill-rule="evenodd" fill="#000000" fill-opacity="1" transform="matrix(1,0,0,1,5.05,13.314)" id="mark64 l" />
  <path d="M 0 -0.75 L 25 -0.75 L 25 0.75 L 0 0.75 Z " stroke="none" fill-rule="evenodd" fill="#000000" fill-opacity="1" transform="matrix(1,0,0,1,5.05,13.314)" id="mark65 l" />
  <path d="M 12.272 -3.2159999999999997 C 12.269333333333332 -3.4799999999999995, 12.266 -3.7573333333333334, 12.262 -4.048 C 12.258000000000001 -4.338666666666667, 12.256 -4.637333333333333, 12.256 -4.944 C 12.256 -5.250666666666667, 12.257333333333335 -5.558666666666666, 12.26 -5.867999999999999 C 12.262666666666668 -6.1773333333333325, 12.266666666666666 -6.485333333333333, 12.272 -6.792 C 12.280000000000001 -7.256, 12.405333333333335 -7.6080000000000005, 12.648 -7.848 C 12.890666666666668 -8.088000000000001, 13.224 -8.226666666666667, 13.648 -8.264 L 13.648 -7.372 C 13.552 -7.347999999999999, 13.478666666666665 -7.303999999999999, 13.428 -7.239999999999999 C 13.377333333333333 -7.176, 13.352 -7.090666666666667, 13.352 -6.984 C 13.344 -6.496, 13.338666666666665 -6.029333333333334, 13.336 -5.584 C 13.333333333333332 -5.1386666666666665, 13.332 -4.705333333333334, 13.332 -4.284 C 13.332 -3.8626666666666667, 13.335999999999999 -3.4480000000000004, 13.344 -3.04 C 13.343999999999998 -2.9306666666666668, 13.371333333333332 -2.841333333333333, 13.426 -2.772 C 13.480666666666666 -2.7026666666666666, 13.557333333333332 -2.653333333333333, 13.656 -2.6239999999999997 L 13.656 -1.7319999999999998 C 13.168 -1.7639999999999998, 12.817333333333334 -1.896, 12.604 -2.1279999999999997 C 12.390666666666668 -2.36, 12.280000000000001 -2.7226666666666666, 12.272 -3.2159999999999997 Z M 13.82 -4.896 L 13.82 -5.64 C 13.902666666666665 -5.688, 13.995333333333331 -5.725333333333333, 14.097999999999999 -5.752 C 14.200666666666667 -5.778666666666666, 14.309333333333333 -5.792, 14.424 -5.792 C 14.848 -5.792, 15.142000000000001 -5.692666666666666, 15.306000000000001 -5.494 C 15.47 -5.295333333333334, 15.556000000000001 -4.964, 15.564 -4.5 C 15.569333333333333 -4.316000000000001, 15.572666666666667 -4.160666666666667, 15.574 -4.034 C 15.575333333333333 -3.907333333333333, 15.575333333333333 -3.7826666666666666, 15.574 -3.6599999999999997 C 15.572666666666667 -3.5373333333333337, 15.567999999999998 -3.389333333333333, 15.56 -3.2159999999999997 C 15.536000000000001 -2.7253333333333334, 15.416 -2.3626666666666667, 15.2 -2.1279999999999997 C 14.984 -1.893333333333333, 14.636 -1.7613333333333332, 14.156 -1.7319999999999998 L 14.156 -2.6159999999999997 C 14.259999999999998 -2.6453333333333333, 14.339333333333332 -2.6933333333333334, 14.394 -2.76 C 14.448666666666666 -2.826666666666666, 14.477333333333334 -2.913333333333333, 14.48 -3.0199999999999996 C 14.485333333333333 -3.174666666666666, 14.489333333333335 -3.313333333333333, 14.492 -3.436 C 14.494666666666667 -3.558666666666667, 14.497333333333334 -3.676, 14.5 -3.788 C 14.502666666666666 -3.9, 14.503333333333332 -4.011333333333333, 14.501999999999999 -4.122 C 14.500666666666666 -4.232666666666667, 14.497333333333334 -4.349333333333333, 14.492 -4.4719999999999995 C 14.489333333333335 -4.621333333333333, 14.437333333333335 -4.732, 14.336 -4.804 C 14.234666666666666 -4.876, 14.102666666666666 -4.912, 13.94 -4.912 C 13.921333333333333 -4.912, 13.902000000000001 -4.911333333333333, 13.882 -4.91 C 13.862000000000002 -4.908666666666667, 13.841333333333335 -4.904, 13.82 -4.896 Z M 14.448 -6.216 C 14.456 -6.309333333333333, 14.460666666666668 -6.391333333333333, 14.462 -6.462 C 14.463333333333335 -6.532666666666667, 14.462666666666667 -6.6080000000000005, 14.46 -6.688 C 14.457333333333333 -6.768000000000001, 14.453333333333333 -6.866666666666667, 14.448 -6.984 C 14.442666666666668 -7.082666666666666, 14.416 -7.165999999999999, 14.368 -7.233999999999999 C 14.32 -7.302, 14.246666666666666 -7.347999999999999, 14.148 -7.372 L 14.148 -8.26 C 14.585333333333335 -8.219999999999999, 14.919333333333334 -8.075333333333333, 15.15 -7.826 C 15.380666666666666 -7.576666666666666, 15.504000000000001 -7.2493333333333325, 15.52 -6.843999999999999 C 15.522666666666666 -6.777333333333333, 15.524666666666668 -6.7139999999999995, 15.526 -6.654 C 15.527333333333335 -6.594, 15.527333333333335 -6.53, 15.526 -6.462 C 15.524666666666668 -6.393999999999999, 15.522666666666666 -6.311999999999999, 15.52 -6.216 Z M 16.18 -3.2159999999999997 C 16.174666666666667 -3.389333333333333, 16.173333333333332 -3.528666666666667, 16.176 -3.634 C 16.178666666666665 -3.7393333333333336, 16.181333333333335 -3.841333333333333, 16.183999999999997 -3.94 L 17.264 -3.94 C 17.256 -3.8626666666666667, 17.25 -3.7666666666666666, 17.246 -3.6519999999999997 C 17.241999999999997 -3.5373333333333328, 17.240666666666666 -3.4266666666666667, 17.241999999999997 -3.32 C 17.243333333333332 -3.213333333333334, 17.246666666666666 -3.1333333333333337, 17.252 -3.08 C 17.262666666666668 -2.96, 17.297333333333334 -2.862, 17.355999999999998 -2.7859999999999996 C 17.414666666666665 -2.71, 17.497333333333334 -2.6559999999999997, 17.604 -2.6239999999999997 L 17.604 -1.7319999999999998 C 17.110666666666663 -1.7693333333333332, 16.75333333333333 -1.904, 16.532 -2.1359999999999997 C 16.310666666666666 -2.368, 16.19333333333333 -2.7279999999999998, 16.18 -3.2159999999999997 Z M 16.279999999999998 -4.552 L 16.279999999999998 -8.2 L 17.348 -8.2 L 17.348 -4.552 Z M 17.852 -4.976 L 17.852 -5.731999999999999 C 17.929333333333332 -5.771999999999999, 18.014666666666667 -5.804, 18.107999999999997 -5.828 C 18.20133333333333 -5.852, 18.301333333333332 -5.864, 18.407999999999998 -5.864 C 18.773333333333333 -5.864, 19.047333333333334 -5.748666666666667, 19.23 -5.518 C 19.412666666666667 -5.287333333333333, 19.514666666666663 -4.973333333333333, 19.535999999999998 -4.576 C 19.546666666666667 -4.416, 19.55333333333333 -4.257333333333333, 19.555999999999997 -4.1 C 19.558666666666664 -3.9426666666666668, 19.557333333333332 -3.7893333333333334, 19.552 -3.6399999999999997 C 19.546666666666667 -3.490666666666667, 19.538666666666668 -3.3506666666666667, 19.528 -3.2199999999999998 C 19.482666666666667 -2.721333333333333, 19.353333333333335 -2.356, 19.14 -2.1239999999999997 C 18.926666666666666 -1.892, 18.581333333333333 -1.7613333333333332, 18.104 -1.7319999999999998 L 18.104 -2.6239999999999997 C 18.21333333333333 -2.653333333333333, 18.296 -2.7059999999999995, 18.352 -2.782 C 18.408 -2.8579999999999997, 18.44 -2.957333333333333, 18.448 -3.08 C 18.471999999999998 -3.3706666666666667, 18.485999999999997 -3.6319999999999997, 18.49 -3.864 C 18.494 -4.096, 18.485333333333333 -4.317333333333333, 18.464 -4.5280000000000005 C 18.447999999999997 -4.682666666666667, 18.396666666666665 -4.798, 18.31 -4.874 C 18.223333333333333 -4.949999999999999, 18.090666666666664 -4.9879999999999995, 17.912 -4.9879999999999995 C 17.901333333333334 -4.9879999999999995, 17.890666666666668 -4.986666666666666, 17.88 -4.984 C 17.86933333333333 -4.981333333333334, 17.86 -4.978666666666667, 17.852 -4.976 Z M 17.852 -7.268 L 17.852 -8.2 L 19.439999999999998 -8.2 L 19.439999999999998 -7.268 Z M 21.944 -1.7999999999999998 L 21.944 -8.2 L 23.003999999999998 -8.2 L 23.003999999999998 -1.7999999999999998 Z " stroke="none" fill-rule="nonzero" fill="#000000" fill-opacity="1" transform="matrix(1,0,0,1,5.05,13.314)" id="text65 l" />
  <path d="M -5 -13.264 L 30 -13.264 L 30 418.26821897765643 L -5 418.26821897765643 Z " stroke="#FF0000" stroke-opacity="1" stroke-width="0.1" stroke-linecap="butt" stroke-linejoin="miter" fill="none" transform="matrix(1,0,0,1,5.05,13.314)" />
</svg>