<?xml version="1.0" encoding="UTF-8"?>
<svg xmlns:xlink="http://www.w3.org/1999/xlink" viewBox="0 0 35.1 321.5519738556712" version="1.1" style="font-synthesis: none;" width="35.1mm" height="321.5519738556712mm" xmlns="http://www.w3.org/2000/svg">
  <defs />
  <style>	</style>
  <path d="M 0 0 L 35.1 0 L 35.1 321.5519738556712 L 0 321.5519738556712 Z " stroke="none" fill-rule="nonzero" fill="#FFFFFF" fill-opacity="1" transform="matrix(1,0,0,1,0,0)" />
  <path d="M 0 300.6699738556712 L 10 300.6699738556712 L 10 302.1699738556712 L 0 302.1699738556712 Z " stroke="none" fill-rule="evenodd" fill="#000000" fill-opacity="1" transform="matrix(1,0,0,1,5.05,13.314)" id="mark1 l" />
  <path d="M 0 290.2761816537515 L 10 290.2761816537515 L 10 291.7761816537515 L 0 291.7761816537515 Z " stroke="none" fill-rule="evenodd" fill="#000000" fill-opacity="1" transform="matrix(1,0,0,1,5.05,13.314)" id="mark2 l" />
  <path d="M 0 279.8823894518318 L 10 279.8823894518318 L 10 281.3823894518318 L 0 281.3823894518318 Z " stroke="none" fill-rule="evenodd" fill="#000000" fill-opacity="1" transform="matrix(1,0,0,1,5.05,13.314)" id="mark3 l" />
  <path d="M 0 269.4885972499121 L 10 269.4885972499121 L 10 270.9885972499121 L 0 270.9885972499121 Z " stroke="none" fill-rule="evenodd" fill="#000000" fill-opacity="1" transform="matrix(1,0,0,1,5.05,13.314)" id="mark4 l" />
  <path d="M 0 259.0948050479924 L 25 259.0948050479924 L 25 260.5948050479924 L 0 260.5948050479924 Z " stroke="none" fill-rule="evenodd" fill="#000000" fill-opacity="1" transform="matrix(1,0,0,1,5.05,13.314)" id="mark5 l" />
  <path d="M 16.18 256.5968050479924 C 16.174666666666667 256.42347171465906, 16.173333333333332 256.28413838132576, 16.176 256.1788050479924 C 16.178666666666665 256.07347171465904, 16.181333333333335 255.97147171465906, 16.183999999999997 255.87280504799241 L 17.264 255.87280504799241 C 17.256 255.95013838132576, 17.25 256.04613838132576, 17.246 256.1608050479924 C 17.241999999999997 256.2754717146591, 17.240666666666666 256.38613838132574, 17.241999999999997 256.4928050479924 C 17.243333333333332 256.5994717146591, 17.246666666666666 256.6794717146591, 17.252 256.73280504799243 C 17.262666666666668 256.8528050479924, 17.297333333333334 256.9508050479924, 17.355999999999998 257.0268050479924 C 17.414666666666665 257.10280504799243, 17.497333333333334 257.1568050479924, 17.604 257.1888050479924 L 17.604 258.0808050479924 C 17.110666666666663 258.04347171465906, 16.75333333333333 257.9088050479924, 16.532 257.6768050479924 C 16.310666666666666 257.44480504799236, 16.19333333333333 257.0848050479924, 16.18 256.5968050479924 Z M 16.279999999999998 255.2608050479924 L 16.279999999999998 251.6128050479924 L 17.348 251.6128050479924 L 17.348 255.2608050479924 Z M 17.852 254.8368050479924 L 17.852 254.0808050479924 C 17.929333333333332 254.04080504799242, 18.014666666666667 254.00880504799244, 18.107999999999997 253.9848050479924 C 18.20133333333333 253.96080504799244, 18.301333333333332 253.94880504799244, 18.407999999999998 253.9488050479924 C 18.773333333333333 253.94880504799244, 19.047333333333334 254.06413838132573, 19.23 254.2948050479924 C 19.412666666666667 254.52547171465903, 19.514666666666663 254.83947171465906, 19.535999999999998 255.2368050479924 C 19.546666666666667 255.39680504799242, 19.55333333333333 255.55547171465906, 19.555999999999997 255.7128050479924 C 19.558666666666664 255.87013838132572, 19.557333333333332 256.0234717146591, 19.552 256.1728050479924 C 19.546666666666667 256.3221383813258, 19.538666666666668 256.46213838132576, 19.528 256.5928050479924 C 19.482666666666667 257.09147171465906, 19.353333333333335 257.45680504799236, 19.14 257.6888050479924 C 18.926666666666666 257.9208050479924, 18.581333333333333 258.05147171465904, 18.104 258.0808050479924 L 18.104 257.1888050479924 C 18.21333333333333 257.15947171465905, 18.296 257.1068050479924, 18.352 257.0308050479924 C 18.408 256.9548050479924, 18.44 256.8554717146591, 18.448 256.73280504799243 C 18.471999999999998 256.4421383813257, 18.485999999999997 256.1808050479924, 18.49 255.9488050479924 C 18.494 255.7168050479924, 18.485333333333333 255.49547171465906, 18.464 255.2848050479924 C 18.447999999999997 255.13013838132574, 18.396666666666665 255.0148050479924, 18.31 254.9388050479924 C 18.223333333333333 254.86280504799242, 18.090666666666664 254.8248050479924, 17.912 254.8248050479924 C 17.901333333333334 254.8248050479924, 17.890666666666668 254.82613838132573, 17.88 254.8288050479924 C 17.86933333333333 254.83147171465907, 17.86 254.83413838132572, 17.852 254.8368050479924 Z M 17.852 252.5448050479924 L 17.852 251.6128050479924 L 19.439999999999998 251.6128050479924 L 19.439999999999998 252.5448050479924 Z M 21.944 258.0128050479924 L 21.944 251.6128050479924 L 23.003999999999998 251.6128050479924 L 23.003999999999998 258.0128050479924 Z " stroke="none" fill-rule="nonzero" fill="#000000" fill-opacity="1" transform="matrix(1,0,0,1,5.05,13.314)" id="text5 l" />
  <path d="M 0 248.70101284607273 L 10 248.70101284607273 L 10 250.20101284607273 L 0 250.20101284607273 Z " stroke="none" fill-rule="evenodd" fill="#000000" fill-opacity="1" transform="matrix(1,0,0,1,5.05,13.314)" id="mark6 l" />
  <path d="M 0 238.307220644153 L 10 238.307220644153 L 10 239.807220644153 L 0 239.807220644153 Z " stroke="none" fill-rule="evenodd" fill="#000000" fill-opacity="1" transform="matrix(1,0,0,1,5.05,13.314)" id="mark7 l" />
  <path d="M 0 227.91342844223334 L 10 227.91342844223334 L 10 229.41342844223334 L 0 229.41342844223334 Z " stroke="none" fill-rule="evenodd" fill="#000000" fill-opacity="1" transform="matrix(1,0,0,1,5.05,13.314)" id="mark8 l" />
  <path d="M 0 217.51963624031362 L 10 217.51963624031362 L 10 219.01963624031362 L 0 219.01963624031362 Z " stroke="none" fill-rule="evenodd" fill="#000000" fill-opacity="1" transform="matrix(1,0,0,1,5.05,13.314)" id="mark9 l" />
  <path d="M 0 207.12584403839395 L 25 207.12584403839395 L 25 208.62584403839395 L 0 208.62584403839395 Z " stroke="none" fill-rule="evenodd" fill="#000000" fill-opacity="1" transform="matrix(1,0,0,1,5.05,13.314)" id="mark10 l" />
  <path d="M 14.323999999999998 206.07584403839397 L 14.323999999999998 200.63184403839398 L 13.871999999999998 200.63184403839398 L 13.839999999999998 200.25184403839395 L 14.543999999999999 199.67584403839396 L 15.424 199.67584403839396 L 15.424 206.07584403839397 Z M 16.196 204.66384403839396 C 16.188000000000002 204.23451070506061, 16.182666666666666 203.81784403839396, 16.18 203.41384403839396 C 16.177333333333333 203.00984403839396, 16.177999999999997 202.61451070506064, 16.182 202.22784403839395 C 16.186 201.84117737172733, 16.190666666666665 201.45984403839398, 16.196 201.08384403839398 C 16.209333333333333 200.64384403839398, 16.334000000000003 200.29851070506066, 16.57 200.04784403839398 C 16.805999999999997 199.7971773717273, 17.142666666666663 199.65184403839396, 17.58 199.61184403839397 L 17.58 200.49984403839397 C 17.382666666666665 200.55584403839396, 17.281333333333333 200.68517737172732, 17.276 200.88784403839398 C 17.262666666666668 201.25851070506064, 17.253333333333334 201.6065107050606, 17.248 201.93184403839396 C 17.242666666666665 202.25717737172727, 17.24 202.57384403839396, 17.24 202.88184403839398 C 17.24 203.18984403839397, 17.242666666666665 203.50451070506062, 17.248 203.82584403839397 C 17.253333333333334 204.1471773717273, 17.262666666666668 204.49051070506061, 17.276 204.85584403839397 C 17.281333333333333 205.063844038394, 17.382666666666665 205.19584403839397, 17.58 205.25184403839395 L 17.58 206.13984403839396 C 17.142666666666663 206.09984403839394, 16.805999999999997 205.95384403839395, 16.57 205.70184403839397 C 16.334000000000003 205.44984403839396, 16.209333333333333 205.10384403839396, 16.196 204.66384403839396 Z M 18.084 206.13984403839396 L 18.084 205.24784403839396 C 18.268 205.19451070506062, 18.366666666666667 205.07051070506066, 18.38 204.87584403839398 C 18.398666666666667 204.4091773717273, 18.410666666666668 203.96051070506064, 18.416 203.52984403839397 C 18.421333333333333 203.0991773717273, 18.421333333333333 202.6685107050606, 18.416 202.23784403839397 C 18.410666666666668 201.80717737172728, 18.398666666666667 201.35451070506065, 18.38 200.87984403839397 C 18.374666666666666 200.68517737172732, 18.276 200.55851070506066, 18.084 200.49984403839397 L 18.084 199.61184403839397 C 18.513333333333335 199.65184403839396, 18.846666666666668 199.7971773717273, 19.084 200.04784403839398 C 19.321333333333335 200.29851070506066, 19.445333333333334 200.64384403839398, 19.456 201.08384403839398 C 19.46666666666667 201.39851070506063, 19.474666666666668 201.70851070506063, 19.48 202.01384403839396 C 19.485333333333333 202.31917737172728, 19.488 202.61984403839398, 19.488 202.91584403839397 C 19.488 203.21184403839396, 19.485333333333333 203.50517737172729, 19.48 203.79584403839397 C 19.474666666666668 204.08651070506065, 19.46666666666667 204.37584403839398, 19.456 204.66384403839396 C 19.439999999999998 205.11451070506064, 19.311999999999998 205.46317737172728, 19.072 205.70984403839395 C 18.832 205.95651070506062, 18.502666666666666 206.09984403839394, 18.084 206.13984403839396 Z M 21.944 206.07584403839397 L 21.944 199.67584403839396 L 23.003999999999998 199.67584403839396 L 23.003999999999998 206.07584403839397 Z " stroke="none" fill-rule="nonzero" fill="#000000" fill-opacity="1" transform="matrix(1,0,0,1,5.05,13.314)" id="text10 l" />
  <path d="M 0 196.73205183647423 L 10 196.73205183647423 L 10 198.23205183647423 L 0 198.23205183647423 Z " stroke="none" fill-rule="evenodd" fill="#000000" fill-opacity="1" transform="matrix(1,0,0,1,5.05,13.314)" id="mark11 l" />
  <path d="M 0 186.33825963455456 L 10 186.33825963455456 L 10 187.83825963455456 L 0 187.83825963455456 Z " stroke="none" fill-rule="evenodd" fill="#000000" fill-opacity="1" transform="matrix(1,0,0,1,5.05,13.314)" id="mark12 l" />
  <path d="M 0 175.94446743263484 L 10 175.94446743263484 L 10 177.44446743263484 L 0 177.44446743263484 Z " stroke="none" fill-rule="evenodd" fill="#000000" fill-opacity="1" transform="matrix(1,0,0,1,5.05,13.314)" id="mark13 l" />
  <path d="M 0 165.55067523071514 L 10 165.55067523071514 L 10 167.05067523071514 L 0 167.05067523071514 Z " stroke="none" fill-rule="evenodd" fill="#000000" fill-opacity="1" transform="matrix(1,0,0,1,5.05,13.314)" id="mark14 l" />
  <path d="M 0 155.15688302879545 L 25 155.15688302879545 L 25 156.65688302879545 L 0 156.65688302879545 Z " stroke="none" fill-rule="evenodd" fill="#000000" fill-opacity="1" transform="matrix(1,0,0,1,5.05,13.314)" id="mark15 l" />
  <path d="M 14.331999999999999 154.07488302879545 L 14.331999999999999 148.63088302879547 L 13.879999999999999 148.63088302879547 L 13.847999999999999 148.25088302879544 L 14.552 147.67488302879545 L 15.432 147.67488302879545 L 15.432 154.07488302879545 Z M 16.18 152.65888302879546 C 16.174666666666667 152.4855496954621, 16.173333333333332 152.34621636212879, 16.176 152.24088302879545 C 16.178666666666665 152.13554969546212, 16.181333333333335 152.0335496954621, 16.183999999999997 151.93488302879547 L 17.264 151.93488302879547 C 17.256 152.0122163621288, 17.25 152.1082163621288, 17.246 152.22288302879545 C 17.241999999999997 152.33754969546212, 17.240666666666666 152.4482163621288, 17.241999999999997 152.55488302879544 C 17.243333333333332 152.6615496954621, 17.246666666666666 152.7415496954621, 17.252 152.79488302879545 C 17.262666666666668 152.91488302879546, 17.297333333333334 153.01288302879547, 17.355999999999998 153.08888302879546 C 17.414666666666665 153.16488302879546, 17.497333333333334 153.21888302879543, 17.604 153.25088302879544 L 17.604 154.14288302879547 C 17.110666666666663 154.10554969546212, 16.75333333333333 153.97088302879544, 16.532 153.73888302879544 C 16.310666666666666 153.50688302879544, 16.19333333333333 153.14688302879546, 16.18 152.65888302879546 Z M 16.279999999999998 151.32288302879545 L 16.279999999999998 147.67488302879545 L 17.348 147.67488302879545 L 17.348 151.32288302879545 Z M 17.852 150.89888302879547 L 17.852 150.14288302879547 C 17.929333333333332 150.10288302879547, 18.014666666666667 150.07088302879546, 18.107999999999997 150.04688302879546 C 18.20133333333333 150.02288302879546, 18.301333333333332 150.01088302879546, 18.407999999999998 150.01088302879546 C 18.773333333333333 150.01088302879546, 19.047333333333334 150.1262163621288, 19.23 150.35688302879547 C 19.412666666666667 150.58754969546212, 19.514666666666663 150.9015496954621, 19.535999999999998 151.29888302879544 C 19.546666666666667 151.45888302879544, 19.55333333333333 151.61754969546212, 19.555999999999997 151.77488302879544 C 19.558666666666664 151.93221636212877, 19.557333333333332 152.08554969546213, 19.552 152.23488302879545 C 19.546666666666667 152.38421636212877, 19.538666666666668 152.52421636212878, 19.528 152.65488302879547 C 19.482666666666667 153.15354969546212, 19.353333333333335 153.51888302879544, 19.14 153.75088302879544 C 18.926666666666666 153.98288302879544, 18.581333333333333 154.11354969546213, 18.104 154.14288302879547 L 18.104 153.25088302879544 C 18.21333333333333 153.22154969546213, 18.296 153.16888302879545, 18.352 153.09288302879546 C 18.408 153.01688302879546, 18.44 152.91754969546213, 18.448 152.79488302879545 C 18.471999999999998 152.50421636212877, 18.485999999999997 152.24288302879546, 18.49 152.01088302879546 C 18.494 151.77888302879546, 18.485333333333333 151.55754969546211, 18.464 151.34688302879545 C 18.447999999999997 151.1922163621288, 18.396666666666665 151.07688302879544, 18.31 151.00088302879544 C 18.223333333333333 150.92488302879545, 18.090666666666664 150.88688302879547, 17.912 150.88688302879547 C 17.901333333333334 150.88688302879547, 17.890666666666668 150.8882163621288, 17.88 150.89088302879546 C 17.86933333333333 150.89354969546213, 17.86 150.8962163621288, 17.852 150.89888302879547 Z M 17.852 148.60688302879547 L 17.852 147.67488302879545 L 19.439999999999998 147.67488302879545 L 19.439999999999998 148.60688302879547 Z M 21.944 154.07488302879545 L 21.944 147.67488302879545 L 23.003999999999998 147.67488302879545 L 23.003999999999998 154.07488302879545 Z " stroke="none" fill-rule="nonzero" fill="#000000" fill-opacity="1" transform="matrix(1,0,0,1,5.05,13.314)" id="text15 l" />
  <path d="M 0 144.76309082687575 L 10 144.76309082687575 L 10 146.26309082687575 L 0 146.26309082687575 Z " stroke="none" fill-rule="evenodd" fill="#000000" fill-opacity="1" transform="matrix(1,0,0,1,5.05,13.314)" id="mark16 l" />
  <path d="M 0 134.36929862495606 L 10 134.36929862495606 L 10 135.86929862495606 L 0 135.86929862495606 Z " stroke="none" fill-rule="evenodd" fill="#000000" fill-opacity="1" transform="matrix(1,0,0,1,5.05,13.314)" id="mark17 l" />
  <path d="M 0 123.97550642303636 L 10 123.97550642303636 L 10 125.47550642303636 L 0 125.47550642303636 Z " stroke="none" fill-rule="evenodd" fill="#000000" fill-opacity="1" transform="matrix(1,0,0,1,5.05,13.314)" id="mark18 l" />
  <path d="M 0 113.58171422111667 L 10 113.58171422111667 L 10 115.08171422111667 L 0 115.08171422111667 Z " stroke="none" fill-rule="evenodd" fill="#000000" fill-opacity="1" transform="matrix(1,0,0,1,5.05,13.314)" id="mark19 l" />
  <path d="M 0 103.18792201919698 L 25 103.18792201919698 L 25 104.68792201919698 L 0 104.68792201919698 Z " stroke="none" fill-rule="evenodd" fill="#000000" fill-opacity="1" transform="matrix(1,0,0,1,5.05,13.314)" id="mark20 l" />
  <path d="M 12.319999999999999 102.13792201919698 C 12.317333333333334 102.03925535253032, 12.315333333333331 101.95058868586365, 12.313999999999998 101.87192201919697 C 12.312666666666665 101.79325535253031, 12.311333333333334 101.71925535253031, 12.309999999999999 101.64992201919698 C 12.308666666666667 101.58058868586365, 12.308 101.50858868586366, 12.308 101.43392201919698 C 12.308 101.35925535253031, 12.308 101.27458868586365, 12.308 101.17992201919698 C 12.308 101.08525535253031, 12.309333333333335 100.97392201919698, 12.312 100.84592201919698 C 12.32 100.55258868586364, 12.37 100.29058868586364, 12.462 100.05992201919697 C 12.554 99.82925535253031, 12.687999999999999 99.62325535253032, 12.863999999999999 99.44192201919698 C 13.04 99.26058868586364, 13.257333333333333 99.0992553525303, 13.515999999999998 98.95792201919697 L 14.047999999999998 98.66992201919697 C 14.234666666666666 98.56858868586363, 14.354 98.44658868586365, 14.405999999999999 98.30392201919697 C 14.457999999999998 98.1612553525303, 14.488 98.02725535253032, 14.495999999999999 97.90192201919697 C 14.506666666666664 97.7552553525303, 14.512666666666664 97.59858868586363, 14.514 97.43192201919697 C 14.51533333333333 97.26525535253032, 14.511999999999997 97.10858868586365, 14.504 96.96192201919698 C 14.498666666666665 96.85792201919699, 14.468666666666666 96.77192201919698, 14.413999999999998 96.70392201919698 C 14.359333333333332 96.63592201919698, 14.279999999999998 96.5872553525303, 14.175999999999998 96.55792201919698 L 14.175999999999998 95.66992201919697 C 14.663999999999998 95.70192201919697, 15.014 95.8332553525303, 15.225999999999999 96.06392201919698 C 15.437999999999999 96.29458868586366, 15.554666666666666 96.65525535253032, 15.575999999999999 97.14592201919697 C 15.578666666666663 97.20992201919698, 15.580666666666666 97.27525535253031, 15.581999999999999 97.34192201919697 C 15.583333333333332 97.40858868586363, 15.584 97.47325535253032, 15.584 97.53592201919697 C 15.584 97.59858868586366, 15.583333333333332 97.66058868586364, 15.581999999999999 97.72192201919698 C 15.580666666666666 97.78325535253032, 15.578666666666663 97.84325535253032, 15.575999999999999 97.90192201919697 C 15.565333333333331 98.18725535253031, 15.512 98.43392201919698, 15.415999999999999 98.64192201919698 C 15.32 98.84992201919698, 15.19 99.02992201919699, 15.026 99.18192201919697 C 14.862 99.33392201919699, 14.672 99.46992201919699, 14.456 99.58992201919698 L 13.851999999999999 99.91792201919698 C 13.737333333333332 99.97925535253032, 13.647333333333332 100.06325535253032, 13.581999999999999 100.16992201919697 C 13.516666666666666 100.27658868586363, 13.469999999999999 100.38992201919697, 13.441999999999998 100.50992201919698 C 13.413999999999998 100.62992201919698, 13.399999999999999 100.74192201919698, 13.399999999999999 100.84592201919698 L 13.399999999999999 102.13792201919698 Z M 12.328 98.09792201919697 C 12.322666666666667 97.98058868586364, 12.318666666666665 97.86592201919697, 12.315999999999999 97.75392201919698 C 12.313333333333333 97.64192201919698, 12.311333333333334 97.53592201919699, 12.309999999999999 97.43592201919698 C 12.308666666666667 97.33592201919697, 12.309333333333335 97.23925535253031, 12.312 97.14592201919697 C 12.330666666666666 96.65792201919697, 12.447333333333333 96.29858868586365, 12.661999999999999 96.06792201919697 C 12.876666666666665 95.83725535253032, 13.213333333333331 95.70458868586364, 13.671999999999999 95.66992201919697 L 13.671999999999999 96.56192201919698 C 13.576 96.59125535253031, 13.505333333333333 96.63792201919698, 13.459999999999999 96.70192201919699 C 13.414666666666665 96.76592201919698, 13.390666666666664 96.84325535253032, 13.387999999999998 96.93392201919698 C 13.382666666666665 97.14192201919698, 13.379333333333333 97.33525535253031, 13.378 97.51392201919698 C 13.376666666666667 97.69258868586365, 13.381333333333334 97.8872553525303, 13.392 98.09792201919697 Z M 13.904 102.13792201919698 L 13.904 101.20592201919698 L 15.5 101.20592201919698 L 15.5 102.13792201919698 Z M 16.196 100.72592201919697 C 16.188000000000002 100.29658868586364, 16.182666666666666 99.87992201919698, 16.18 99.47592201919697 C 16.177333333333333 99.07192201919696, 16.177999999999997 98.67658868586363, 16.182 98.28992201919698 C 16.186 97.90325535253032, 16.190666666666665 97.52192201919698, 16.196 97.14592201919697 C 16.209333333333333 96.70592201919698, 16.334000000000003 96.36058868586363, 16.57 96.10992201919697 C 16.805999999999997 95.85925535253031, 17.142666666666663 95.71392201919699, 17.58 95.67392201919698 L 17.58 96.56192201919698 C 17.382666666666665 96.61792201919698, 17.281333333333333 96.74725535253032, 17.276 96.94992201919698 C 17.262666666666668 97.32058868586364, 17.253333333333334 97.66858868586363, 17.248 97.99392201919697 C 17.242666666666665 98.31925535253029, 17.24 98.63592201919697, 17.24 98.94392201919698 C 17.24 99.25192201919698, 17.242666666666665 99.56658868586365, 17.248 99.88792201919698 C 17.253333333333334 100.2092553525303, 17.262666666666668 100.55258868586364, 17.276 100.91792201919698 C 17.281333333333333 101.12592201919698, 17.382666666666665 101.25792201919697, 17.58 101.31392201919698 L 17.58 102.20192201919697 C 17.142666666666663 102.16192201919698, 16.805999999999997 102.01592201919698, 16.57 101.76392201919698 C 16.334000000000003 101.51192201919699, 16.209333333333333 101.16592201919698, 16.196 100.72592201919697 Z M 18.084 102.20192201919697 L 18.084 101.30992201919697 C 18.268 101.25658868586365, 18.366666666666667 101.13258868586365, 18.38 100.93792201919698 C 18.398666666666667 100.4712553525303, 18.410666666666668 100.02258868586364, 18.416 99.59192201919697 C 18.421333333333333 99.1612553525303, 18.421333333333333 98.73058868586364, 18.416 98.29992201919698 C 18.410666666666668 97.8692553525303, 18.398666666666667 97.41658868586364, 18.38 96.94192201919698 C 18.374666666666666 96.74725535253032, 18.276 96.62058868586365, 18.084 96.56192201919698 L 18.084 95.67392201919698 C 18.513333333333335 95.71392201919699, 18.846666666666668 95.85925535253031, 19.084 96.10992201919697 C 19.321333333333335 96.36058868586363, 19.445333333333334 96.70592201919698, 19.456 97.14592201919697 C 19.46666666666667 97.46058868586364, 19.474666666666668 97.77058868586364, 19.48 98.07592201919698 C 19.485333333333333 98.38125535253032, 19.488 98.68192201919697, 19.488 98.97792201919698 C 19.488 99.27392201919699, 19.485333333333333 99.56725535253031, 19.48 99.85792201919698 C 19.474666666666668 100.14858868586364, 19.46666666666667 100.43792201919698, 19.456 100.72592201919697 C 19.439999999999998 101.17658868586363, 19.311999999999998 101.52525535253031, 19.072 101.77192201919698 C 18.832 102.01858868586365, 18.502666666666666 102.16192201919698, 18.084 102.20192201919697 Z M 21.944 102.13792201919698 L 21.944 95.73792201919697 L 23.003999999999998 95.73792201919697 L 23.003999999999998 102.13792201919698 Z " stroke="none" fill-rule="nonzero" fill="#000000" fill-opacity="1" transform="matrix(1,0,0,1,5.05,13.314)" id="text20 l" />
  <path d="M 0 92.79412981727728 L 10 92.79412981727728 L 10 94.29412981727728 L 0 94.29412981727728 Z " stroke="none" fill-rule="evenodd" fill="#000000" fill-opacity="1" transform="matrix(1,0,0,1,5.05,13.314)" id="mark21 l" />
  <path d="M 0 82.40033761535759 L 10 82.40033761535759 L 10 83.90033761535759 L 0 83.90033761535759 Z " stroke="none" fill-rule="evenodd" fill="#000000" fill-opacity="1" transform="matrix(1,0,0,1,5.05,13.314)" id="mark22 l" />
  <path d="M 0 72.00654541343789 L 10 72.00654541343789 L 10 73.50654541343789 L 0 73.50654541343789 Z " stroke="none" fill-rule="evenodd" fill="#000000" fill-opacity="1" transform="matrix(1,0,0,1,5.05,13.314)" id="mark23 l" />
  <path d="M 0 61.612753211518196 L 10 61.612753211518196 L 10 63.112753211518196 L 0 63.112753211518196 Z " stroke="none" fill-rule="evenodd" fill="#000000" fill-opacity="1" transform="matrix(1,0,0,1,5.05,13.314)" id="mark24 l" />
  <path d="M 0 51.2189610095985 L 25 51.2189610095985 L 25 52.7189610095985 L 0 52.7189610095985 Z " stroke="none" fill-rule="evenodd" fill="#000000" fill-opacity="1" transform="matrix(1,0,0,1,5.05,13.314)" id="mark25 l" />
  <path d="M 12.328 50.168961009598505 C 12.325333333333333 50.07029434293183, 12.323333333333332 49.98162767626516, 12.322 49.902961009598506 C 12.320666666666666 49.824294342931836, 12.319333333333333 49.75029434293184, 12.318 49.680961009598505 C 12.316666666666666 49.61162767626517, 12.315999999999999 49.53962767626517, 12.316 49.464961009598504 C 12.315999999999999 49.39029434293184, 12.315999999999999 49.305627676265175, 12.316 49.210961009598506 C 12.315999999999999 49.11629434293184, 12.317333333333334 49.0049610095985, 12.32 48.8769610095985 C 12.328 48.583627676265166, 12.378 48.321627676265166, 12.47 48.0909610095985 C 12.562000000000001 47.86029434293184, 12.696 47.654294342931834, 12.872 47.47296100959851 C 13.048 47.291627676265165, 13.265333333333334 47.13029434293183, 13.524000000000001 46.988961009598505 L 14.056000000000001 46.7009610095985 C 14.242666666666668 46.59962767626517, 14.362000000000002 46.47762767626517, 14.414 46.3349610095985 C 14.466000000000001 46.19229434293183, 14.495999999999999 46.05829434293184, 14.504 45.93296100959851 C 14.514666666666667 45.78629434293184, 14.520666666666667 45.62962767626517, 14.522 45.4629610095985 C 14.523333333333333 45.29629434293183, 14.520000000000001 45.139627676265164, 14.512 44.9929610095985 C 14.506666666666666 44.8889610095985, 14.476666666666667 44.802961009598505, 14.422 44.73496100959851 C 14.367333333333335 44.66696100959851, 14.288 44.61829434293184, 14.184000000000001 44.588961009598506 L 14.184000000000001 43.7009610095985 C 14.672 43.7329610095985, 15.022000000000002 43.864294342931835, 15.234 44.09496100959851 C 15.446000000000002 44.32562767626517, 15.562666666666667 44.68629434293184, 15.584 45.17696100959851 C 15.586666666666668 45.24096100959851, 15.588666666666668 45.306294342931835, 15.59 45.372961009598505 C 15.591333333333335 45.439627676265175, 15.592000000000002 45.50429434293184, 15.592 45.5669610095985 C 15.592000000000002 45.62962767626517, 15.591333333333335 45.69162767626517, 15.59 45.75296100959851 C 15.588666666666668 45.81429434293184, 15.586666666666668 45.87429434293184, 15.584 45.93296100959851 C 15.573333333333332 46.21829434293184, 15.52 46.464961009598504, 15.424 46.6729610095985 C 15.328 46.88096100959851, 15.197999999999999 47.06096100959851, 15.033999999999999 47.2129610095985 C 14.87 47.3649610095985, 14.68 47.500961009598505, 14.464 47.6209610095985 L 13.86 47.948961009598506 C 13.745333333333335 48.01029434293184, 13.655333333333335 48.09429434293184, 13.59 48.2009610095985 C 13.524666666666668 48.30762767626517, 13.478000000000002 48.4209610095985, 13.45 48.540961009598504 C 13.422 48.66096100959851, 13.408 48.772961009598504, 13.408 48.8769610095985 L 13.408 50.168961009598505 Z M 12.336 46.128961009598505 C 12.330666666666666 46.01162767626517, 12.326666666666664 45.896961009598506, 12.324 45.784961009598504 C 12.321333333333332 45.6729610095985, 12.319333333333333 45.5669610095985, 12.318 45.466961009598506 C 12.316666666666666 45.3669610095985, 12.317333333333334 45.270294342931834, 12.32 45.17696100959851 C 12.338666666666668 44.6889610095985, 12.455333333333336 44.32962767626517, 12.67 44.098961009598504 C 12.884666666666668 43.86829434293184, 13.221333333333334 43.73562767626517, 13.68 43.7009610095985 L 13.68 44.592961009598504 C 13.584 44.62229434293184, 13.513333333333332 44.668961009598505, 13.468 44.732961009598505 C 13.422666666666668 44.796961009598505, 13.398666666666667 44.87429434293183, 13.396 44.964961009598504 C 13.390666666666666 45.1729610095985, 13.387333333333332 45.36629434293184, 13.386 45.5449610095985 C 13.384666666666666 45.72362767626517, 13.389333333333333 45.91829434293184, 13.4 46.128961009598505 Z M 13.911999999999999 50.168961009598505 L 13.911999999999999 49.2369610095985 L 15.508 49.2369610095985 L 15.508 50.168961009598505 Z M 16.18 48.75296100959851 C 16.174666666666667 48.579627676265176, 16.173333333333332 48.440294342931836, 16.176 48.3349610095985 C 16.178666666666665 48.22962767626517, 16.181333333333335 48.12762767626517, 16.183999999999997 48.028961009598504 L 17.264 48.028961009598504 C 17.256 48.10629434293184, 17.25 48.202294342931836, 17.246 48.31696100959851 C 17.241999999999997 48.431627676265165, 17.240666666666666 48.54229434293184, 17.241999999999997 48.6489610095985 C 17.243333333333332 48.75562767626518, 17.246666666666666 48.835627676265176, 17.252 48.8889610095985 C 17.262666666666668 49.00896100959851, 17.297333333333334 49.10696100959851, 17.355999999999998 49.18296100959851 C 17.414666666666665 49.25896100959851, 17.497333333333334 49.31296100959851, 17.604 49.34496100959851 L 17.604 50.2369610095985 C 17.110666666666663 50.199627676265166, 16.75333333333333 50.064961009598505, 16.532 49.832961009598506 C 16.310666666666666 49.60096100959851, 16.19333333333333 49.24096100959851, 16.18 48.75296100959851 Z M 16.279999999999998 47.4169610095985 L 16.279999999999998 43.768961009598506 L 17.348 43.768961009598506 L 17.348 47.4169610095985 Z M 17.852 46.9929610095985 L 17.852 46.2369610095985 C 17.929333333333332 46.1969610095985, 18.014666666666667 46.16496100959851, 18.107999999999997 46.140961009598506 C 18.20133333333333 46.116961009598505, 18.301333333333332 46.104961009598505, 18.407999999999998 46.104961009598505 C 18.773333333333333 46.104961009598505, 19.047333333333334 46.22029434293184, 19.23 46.4509610095985 C 19.412666666666667 46.68162767626517, 19.514666666666663 46.99562767626517, 19.535999999999998 47.39296100959851 C 19.546666666666667 47.552961009598505, 19.55333333333333 47.711627676265174, 19.555999999999997 47.86896100959851 C 19.558666666666664 48.026294342931834, 19.557333333333332 48.17962767626517, 19.552 48.3289610095985 C 19.546666666666667 48.47829434293183, 19.538666666666668 48.61829434293183, 19.528 48.7489610095985 C 19.482666666666667 49.24762767626517, 19.353333333333335 49.61296100959851, 19.14 49.84496100959851 C 18.926666666666666 50.076961009598506, 18.581333333333333 50.207627676265176, 18.104 50.2369610095985 L 18.104 49.34496100959851 C 18.21333333333333 49.315627676265166, 18.296 49.2629610095985, 18.352 49.186961009598505 C 18.408 49.1109610095985, 18.44 49.011627676265164, 18.448 48.8889610095985 C 18.471999999999998 48.59829434293184, 18.485999999999997 48.3369610095985, 18.49 48.104961009598505 C 18.494 47.872961009598505, 18.485333333333333 47.65162767626517, 18.464 47.4409610095985 C 18.447999999999997 47.28629434293184, 18.396666666666665 47.17096100959851, 18.31 47.09496100959851 C 18.223333333333333 47.018961009598506, 18.090666666666664 46.9809610095985, 17.912 46.9809610095985 C 17.901333333333334 46.9809610095985, 17.890666666666668 46.98229434293184, 17.88 46.98496100959851 C 17.86933333333333 46.98762767626518, 17.86 46.99029434293184, 17.852 46.9929610095985 Z M 17.852 44.7009610095985 L 17.852 43.768961009598506 L 19.439999999999998 43.768961009598506 L 19.439999999999998 44.7009610095985 Z M 21.944 50.168961009598505 L 21.944 43.768961009598506 L 23.003999999999998 43.768961009598506 L 23.003999999999998 50.168961009598505 Z " stroke="none" fill-rule="nonzero" fill="#000000" fill-opacity="1" transform="matrix(1,0,0,1,5.05,13.314)" id="text25 l" />
  <path d="M 0 40.82516880767878 L 10 40.82516880767878 L 10 42.32516880767878 L 0 42.32516880767878 Z " stroke="none" fill-rule="evenodd" fill="#000000" fill-opacity="1" transform="matrix(1,0,0,1,5.05,13.314)" id="mark26 l" />
  <path d="M 0 30.431376605759112 L 10 30.431376605759112 L 10 31.931376605759112 L 0 31.931376605759112 Z " stroke="none" fill-rule="evenodd" fill="#000000" fill-opacity="1" transform="matrix(1,0,0,1,5.05,13.314)" id="mark27 l" />
  <path d="M 0 20.03758440383939 L 10 20.03758440383939 L 10 21.53758440383939 L 0 21.53758440383939 Z " stroke="none" fill-rule="evenodd" fill="#000000" fill-opacity="1" transform="matrix(1,0,0,1,5.05,13.314)" id="mark28 l" />
  <path d="M 0 9.643792201919723 L 10 9.643792201919723 L 10 11.143792201919723 L 0 11.143792201919723 Z " stroke="none" fill-rule="evenodd" fill="#000000" fill-opacity="1" transform="matrix(1,0,0,1,5.05,13.314)" id="mark29 l" />
  <path d="M 0 -0.75 L 25 -0.75 L 25 0.75 L 0 0.75 Z " stroke="none" fill-rule="evenodd" fill="#000000" fill-opacity="1" transform="matrix(1,0,0,1,5.05,13.314)" id="mark30 l" />
  <path d="M 12.223999999999998 -3.2159999999999997 C 12.221333333333334 -3.317333333333333, 12.219333333333333 -3.4013333333333335, 12.218 -3.468 C 12.216666666666667 -3.5346666666666664, 12.216666666666667 -3.602666666666666, 12.218 -3.6719999999999997 C 12.219333333333333 -3.7413333333333334, 12.221333333333334 -3.8306666666666667, 12.223999999999998 -3.94 L 13.303999999999998 -3.94 L 13.303999999999998 -3.0759999999999996 C 13.303999999999998 -2.8386666666666667, 13.417333333333332 -2.6879999999999997, 13.643999999999998 -2.6239999999999997 L 13.643999999999998 -1.7319999999999998 C 13.155999999999999 -1.7693333333333332, 12.800666666666665 -1.904, 12.578 -2.1359999999999997 C 12.355333333333334 -2.368, 12.237333333333332 -2.7279999999999998, 12.223999999999998 -3.2159999999999997 Z M 12.292 -7.268 L 12.292 -8.2 L 15.536 -8.2 L 15.536 -7.268 Z M 14.143999999999998 -2.6199999999999997 C 14.367999999999999 -2.6759999999999997, 14.483999999999998 -2.826666666666666, 14.491999999999999 -3.072 C 14.497333333333334 -3.2746666666666666, 14.500666666666666 -3.4573333333333336, 14.501999999999999 -3.62 C 14.503333333333332 -3.7826666666666666, 14.498666666666665 -3.94, 14.488 -4.092 C 14.48 -4.2493333333333325, 14.431999999999999 -4.382666666666666, 14.344 -4.492 C 14.256 -4.601333333333333, 14.089333333333332 -4.653333333333332, 13.844 -4.648 L 13.096 -4.64 L 13.068 -5.532 L 14.027999999999999 -6.9159999999999995 L 15.216 -6.9159999999999995 L 14.248 -5.564 L 14.28 -5.564 C 14.712 -5.564, 15.028666666666666 -5.441333333333334, 15.229999999999999 -5.196 C 15.431333333333333 -4.950666666666666, 15.544 -4.573333333333332, 15.568 -4.064 C 15.57333333333333 -3.992, 15.576666666666664 -3.92, 15.578 -3.848 C 15.57933333333333 -3.776, 15.579999999999998 -3.705333333333333, 15.579999999999998 -3.6359999999999997 C 15.579999999999998 -3.5666666666666664, 15.57933333333333 -3.4973333333333336, 15.578 -3.428 C 15.576666666666664 -3.3586666666666662, 15.57333333333333 -3.2879999999999994, 15.568 -3.2159999999999997 C 15.549333333333333 -2.7199999999999998, 15.428666666666665 -2.3553333333333333, 15.206 -2.122 C 14.983333333333334 -1.8886666666666665, 14.630666666666666 -1.7586666666666664, 14.148 -1.7319999999999998 Z M 16.196 -3.2119999999999997 C 16.188000000000002 -3.641333333333333, 16.182666666666666 -4.058, 16.18 -4.462 C 16.177333333333333 -4.866, 16.177999999999997 -5.261333333333333, 16.182 -5.648 C 16.186 -6.034666666666666, 16.190666666666665 -6.416, 16.196 -6.792 C 16.209333333333333 -7.231999999999999, 16.334000000000003 -7.577333333333334, 16.57 -7.828 C 16.805999999999997 -8.078666666666667, 17.142666666666663 -8.224, 17.58 -8.264 L 17.58 -7.3759999999999994 C 17.382666666666665 -7.32, 17.281333333333333 -7.190666666666667, 17.276 -6.9879999999999995 C 17.262666666666668 -6.617333333333333, 17.253333333333334 -6.269333333333333, 17.248 -5.944 C 17.242666666666665 -5.618666666666666, 17.24 -5.302, 17.24 -4.994 C 17.24 -4.686, 17.242666666666665 -4.371333333333333, 17.248 -4.05 C 17.253333333333334 -3.7286666666666664, 17.262666666666668 -3.3853333333333326, 17.276 -3.0199999999999996 C 17.281333333333333 -2.812, 17.382666666666665 -2.6799999999999997, 17.58 -2.6239999999999997 L 17.58 -1.7359999999999998 C 17.142666666666663 -1.7759999999999998, 16.805999999999997 -1.9219999999999997, 16.57 -2.174 C 16.334000000000003 -2.4259999999999997, 16.209333333333333 -2.772, 16.196 -3.2119999999999997 Z M 18.084 -1.7359999999999998 L 18.084 -2.6279999999999997 C 18.268 -2.681333333333333, 18.366666666666667 -2.8053333333333335, 18.38 -3 C 18.398666666666667 -3.4666666666666663, 18.410666666666668 -3.915333333333333, 18.416 -4.346 C 18.421333333333333 -4.776666666666666, 18.421333333333333 -5.207333333333333, 18.416 -5.638 C 18.410666666666668 -6.068666666666666, 18.398666666666667 -6.521333333333333, 18.38 -6.9959999999999996 C 18.374666666666666 -7.190666666666667, 18.276 -7.317333333333334, 18.084 -7.3759999999999994 L 18.084 -8.264 C 18.513333333333335 -8.224, 18.846666666666668 -8.078666666666667, 19.084 -7.828 C 19.321333333333335 -7.577333333333334, 19.445333333333334 -7.231999999999999, 19.456 -6.792 C 19.46666666666667 -6.477333333333332, 19.474666666666668 -6.167333333333333, 19.48 -5.861999999999999 C 19.485333333333333 -5.556666666666667, 19.488 -5.256, 19.488 -4.96 C 19.488 -4.664, 19.485333333333333 -4.370666666666667, 19.48 -4.08 C 19.474666666666668 -3.7893333333333334, 19.46666666666667 -3.5, 19.456 -3.2119999999999997 C 19.439999999999998 -2.761333333333333, 19.311999999999998 -2.4126666666666665, 19.072 -2.166 C 18.832 -1.9193333333333331, 18.502666666666666 -1.7759999999999998, 18.084 -1.7359999999999998 Z M 21.944 -1.7999999999999998 L 21.944 -8.2 L 23.003999999999998 -8.2 L 23.003999999999998 -1.7999999999999998 Z " stroke="none" fill-rule="nonzero" fill="#000000" fill-opacity="1" transform="matrix(1,0,0,1,5.05,13.314)" id="text30 l" />
  <path d="M -5 -13.264 L 30 -13.264 L 30 308.18797385567115 L -5 308.18797385567115 Z " stroke="#FF0000" stroke-opacity="1" stroke-width="0.1" stroke-linecap="butt" stroke-linejoin="miter" fill="none" transform="matrix(1,0,0,1,5.05,13.314)" />
</svg>