<?xml version="1.0" encoding="UTF-8"?>
<svg xmlns:xlink="http://www.w3.org/1999/xlink" viewBox="0 0 35.1 467.056684844706" version="1.1" style="font-synthesis: none;" width="35.1mm" height="467.056684844706mm" xmlns="http://www.w3.org/2000/svg">
  <defs />
  <style>	</style>
  <path d="M 0 0 L 35.1 0 L 35.1 467.056684844706 L 0 467.056684844706 Z " stroke="none" fill-rule="nonzero" fill="#FFFFFF" fill-opacity="1" transform="matrix(1,0,0,1,0,0)" />
  <path d="M 0 446.17468484470606 L 10 446.17468484470606 L 10 447.67468484470606 L 0 447.67468484470606 Z " stroke="none" fill-rule="evenodd" fill="#000000" fill-opacity="1" transform="matrix(1,0,0,1,5.05,13.314)" id="mark1 l" />
  <path d="M 0 439.19148664400757 L 10 439.19148664400757 L 10 440.69148664400757 L 0 440.69148664400757 Z " stroke="none" fill-rule="evenodd" fill="#000000" fill-opacity="1" transform="matrix(1,0,0,1,5.05,13.314)" id="mark2 l" />
  <path d="M 0 432.208288443309 L 10 432.208288443309 L 10 433.708288443309 L 0 433.708288443309 Z " stroke="none" fill-rule="evenodd" fill="#000000" fill-opacity="1" transform="matrix(1,0,0,1,5.05,13.314)" id="mark3 l" />
  <path d="M 0 425.22509024261046 L 10 425.22509024261046 L 10 426.72509024261046 L 0 426.72509024261046 Z " stroke="none" fill-rule="evenodd" fill="#000000" fill-opacity="1" transform="matrix(1,0,0,1,5.05,13.314)" id="mark4 l" />
  <path d="M 0 418.24189204191197 L 25 418.24189204191197 L 25 419.74189204191197 L 0 419.74189204191197 Z " stroke="none" fill-rule="evenodd" fill="#000000" fill-opacity="1" transform="matrix(1,0,0,1,5.05,13.314)" id="mark5 l" />
  <path d="M 16.18 415.743892041912 C 16.174666666666667 415.5705587085787, 16.173333333333332 415.4312253752453, 16.176 415.32589204191197 C 16.178666666666665 415.22055870857866, 16.181333333333335 415.1185587085787, 16.183999999999997 415.019892041912 L 17.264 415.019892041912 C 17.256 415.09722537524533, 17.25 415.19322537524533, 17.246 415.307892041912 C 17.241999999999997 415.42255870857866, 17.240666666666666 415.53322537524525, 17.241999999999997 415.639892041912 C 17.243333333333332 415.7465587085786, 17.246666666666666 415.82655870857866, 17.252 415.879892041912 C 17.262666666666668 415.99989204191195, 17.297333333333334 416.0978920419119, 17.355999999999998 416.173892041912 C 17.414666666666665 416.24989204191195, 17.497333333333334 416.303892041912, 17.604 416.33589204191196 L 17.604 417.22789204191196 C 17.110666666666663 417.1905587085787, 16.75333333333333 417.055892041912, 16.532 416.82389204191196 C 16.310666666666666 416.59189204191193, 16.19333333333333 416.2318920419119, 16.18 415.743892041912 Z M 16.279999999999998 414.40789204191196 L 16.279999999999998 410.759892041912 L 17.348 410.759892041912 L 17.348 414.40789204191196 Z M 17.852 413.983892041912 L 17.852 413.22789204191196 C 17.929333333333332 413.18789204191194, 18.014666666666667 413.1558920419119, 18.107999999999997 413.13189204191195 C 18.20133333333333 413.1078920419119, 18.301333333333332 413.09589204191195, 18.407999999999998 413.09589204191195 C 18.773333333333333 413.09589204191195, 19.047333333333334 413.21122537524525, 19.23 413.44189204191196 C 19.412666666666667 413.67255870857866, 19.514666666666663 413.9865587085786, 19.535999999999998 414.38389204191196 C 19.546666666666667 414.543892041912, 19.55333333333333 414.70255870857864, 19.555999999999997 414.85989204191196 C 19.558666666666664 415.0172253752453, 19.557333333333332 415.17055870857865, 19.552 415.319892041912 C 19.546666666666667 415.46922537524534, 19.538666666666668 415.60922537524533, 19.528 415.73989204191196 C 19.482666666666667 416.23855870857864, 19.353333333333335 416.603892041912, 19.14 416.83589204191196 C 18.926666666666666 417.06789204191193, 18.581333333333333 417.1985587085786, 18.104 417.22789204191196 L 18.104 416.33589204191196 C 18.21333333333333 416.3065587085786, 18.296 416.25389204191197, 18.352 416.17789204191195 C 18.408 416.1018920419119, 18.44 416.00255870857865, 18.448 415.879892041912 C 18.471999999999998 415.5892253752453, 18.485999999999997 415.3278920419119, 18.49 415.09589204191195 C 18.494 414.863892041912, 18.485333333333333 414.6425587085787, 18.464 414.43189204191196 C 18.447999999999997 414.2772253752453, 18.396666666666665 414.161892041912, 18.31 414.08589204191196 C 18.223333333333333 414.009892041912, 18.090666666666664 413.97189204191204, 17.912 413.971892041912 C 17.901333333333334 413.97189204191204, 17.890666666666668 413.9732253752453, 17.88 413.97589204191195 C 17.86933333333333 413.9785587085786, 17.86 413.9812253752453, 17.852 413.983892041912 Z M 17.852 411.69189204191196 L 17.852 410.759892041912 L 19.439999999999998 410.759892041912 L 19.439999999999998 411.69189204191196 Z M 21.944 417.159892041912 L 21.944 410.759892041912 L 23.003999999999998 410.759892041912 L 23.003999999999998 417.159892041912 Z " stroke="none" fill-rule="nonzero" fill="#000000" fill-opacity="1" transform="matrix(1,0,0,1,5.05,13.314)" id="text5 l" />
  <path d="M 0 411.2586938412134 L 10 411.2586938412134 L 10 412.7586938412134 L 0 412.7586938412134 Z " stroke="none" fill-rule="evenodd" fill="#000000" fill-opacity="1" transform="matrix(1,0,0,1,5.05,13.314)" id="mark6 l" />
  <path d="M 0 404.2754956405149 L 10 404.2754956405149 L 10 405.7754956405149 L 0 405.7754956405149 Z " stroke="none" fill-rule="evenodd" fill="#000000" fill-opacity="1" transform="matrix(1,0,0,1,5.05,13.314)" id="mark7 l" />
  <path d="M 0 397.29229743981637 L 10 397.29229743981637 L 10 398.79229743981637 L 0 398.79229743981637 Z " stroke="none" fill-rule="evenodd" fill="#000000" fill-opacity="1" transform="matrix(1,0,0,1,5.05,13.314)" id="mark8 l" />
  <path d="M 0 390.3090992391178 L 10 390.3090992391178 L 10 391.8090992391178 L 0 391.8090992391178 Z " stroke="none" fill-rule="evenodd" fill="#000000" fill-opacity="1" transform="matrix(1,0,0,1,5.05,13.314)" id="mark9 l" />
  <path d="M 0 383.32590103841926 L 25 383.32590103841926 L 25 384.82590103841926 L 0 384.82590103841926 Z " stroke="none" fill-rule="evenodd" fill="#000000" fill-opacity="1" transform="matrix(1,0,0,1,5.05,13.314)" id="mark10 l" />
  <path d="M 14.323999999999998 382.27590103841925 L 14.323999999999998 376.83190103841923 L 13.871999999999998 376.83190103841923 L 13.839999999999998 376.45190103841924 L 14.543999999999999 375.8759010384193 L 15.424 375.8759010384193 L 15.424 382.27590103841925 Z M 16.196 380.86390103841927 C 16.188000000000002 380.4345677050859, 16.182666666666666 380.01790103841927, 16.18 379.61390103841927 C 16.177333333333333 379.2099010384193, 16.177999999999997 378.8145677050859, 16.182 378.42790103841924 C 16.186 378.0412343717526, 16.190666666666665 377.65990103841926, 16.196 377.28390103841923 C 16.209333333333333 376.84390103841923, 16.334000000000003 376.4985677050859, 16.57 376.24790103841923 C 16.805999999999997 375.9972343717526, 17.142666666666663 375.85190103841927, 17.58 375.81190103841925 L 17.58 376.6999010384192 C 17.382666666666665 376.7559010384192, 17.281333333333333 376.8852343717526, 17.276 377.08790103841926 C 17.262666666666668 377.4585677050859, 17.253333333333334 377.8065677050859, 17.248 378.13190103841924 C 17.242666666666665 378.4572343717526, 17.24 378.77390103841924, 17.24 379.08190103841923 C 17.24 379.3899010384192, 17.242666666666665 379.7045677050859, 17.248 380.02590103841925 C 17.253333333333334 380.3472343717526, 17.262666666666668 380.6905677050859, 17.276 381.0559010384192 C 17.281333333333333 381.26390103841925, 17.382666666666665 381.39590103841925, 17.58 381.45190103841924 L 17.58 382.33990103841927 C 17.142666666666663 382.29990103841925, 16.805999999999997 382.15390103841924, 16.57 381.9019010384192 C 16.334000000000003 381.6499010384192, 16.209333333333333 381.3039010384192, 16.196 380.86390103841927 Z M 18.084 382.33990103841927 L 18.084 381.4479010384193 C 18.268 381.39456770508593, 18.366666666666667 381.2705677050859, 18.38 381.07590103841926 C 18.398666666666667 380.6092343717526, 18.410666666666668 380.16056770508595, 18.416 379.72990103841926 C 18.421333333333333 379.29923437175256, 18.421333333333333 378.86856770508587, 18.416 378.4379010384192 C 18.410666666666668 378.0072343717526, 18.398666666666667 377.5545677050859, 18.38 377.0799010384192 C 18.374666666666666 376.8852343717526, 18.276 376.7585677050859, 18.084 376.6999010384192 L 18.084 375.81190103841925 C 18.513333333333335 375.85190103841927, 18.846666666666668 375.9972343717526, 19.084 376.24790103841923 C 19.321333333333335 376.4985677050859, 19.445333333333334 376.84390103841923, 19.456 377.28390103841923 C 19.46666666666667 377.59856770508594, 19.474666666666668 377.90856770508594, 19.48 378.21390103841924 C 19.485333333333333 378.5192343717526, 19.488 378.8199010384193, 19.488 379.1159010384192 C 19.488 379.4119010384193, 19.485333333333333 379.70523437175257, 19.48 379.9959010384193 C 19.474666666666668 380.28656770508593, 19.46666666666667 380.57590103841926, 19.456 380.86390103841927 C 19.439999999999998 381.3145677050859, 19.311999999999998 381.6632343717526, 19.072 381.90990103841926 C 18.832 382.15656770508593, 18.502666666666666 382.29990103841925, 18.084 382.33990103841927 Z M 21.944 382.27590103841925 L 21.944 375.8759010384193 L 23.003999999999998 375.8759010384193 L 23.003999999999998 382.27590103841925 Z " stroke="none" fill-rule="nonzero" fill="#000000" fill-opacity="1" transform="matrix(1,0,0,1,5.05,13.314)" id="text10 l" />
  <path d="M 0 376.34270283772076 L 10 376.34270283772076 L 10 377.84270283772076 L 0 377.84270283772076 Z " stroke="none" fill-rule="evenodd" fill="#000000" fill-opacity="1" transform="matrix(1,0,0,1,5.05,13.314)" id="mark11 l" />
  <path d="M 0 369.3595046370222 L 10 369.3595046370222 L 10 370.8595046370222 L 0 370.8595046370222 Z " stroke="none" fill-rule="evenodd" fill="#000000" fill-opacity="1" transform="matrix(1,0,0,1,5.05,13.314)" id="mark12 l" />
  <path d="M 0 362.3763064363237 L 10 362.3763064363237 L 10 363.8763064363237 L 0 363.8763064363237 Z " stroke="none" fill-rule="evenodd" fill="#000000" fill-opacity="1" transform="matrix(1,0,0,1,5.05,13.314)" id="mark13 l" />
  <path d="M 0 355.39310823562516 L 10 355.39310823562516 L 10 356.89310823562516 L 0 356.89310823562516 Z " stroke="none" fill-rule="evenodd" fill="#000000" fill-opacity="1" transform="matrix(1,0,0,1,5.05,13.314)" id="mark14 l" />
  <path d="M 0 348.4099100349266 L 25 348.4099100349266 L 25 349.9099100349266 L 0 349.9099100349266 Z " stroke="none" fill-rule="evenodd" fill="#000000" fill-opacity="1" transform="matrix(1,0,0,1,5.05,13.314)" id="mark15 l" />
  <path d="M 14.331999999999999 347.3279100349266 L 14.331999999999999 341.8839100349266 L 13.879999999999999 341.8839100349266 L 13.847999999999999 341.5039100349266 L 14.552 340.92791003492664 L 15.432 340.92791003492664 L 15.432 347.3279100349266 Z M 16.18 345.9119100349266 C 16.174666666666667 345.7385767015933, 16.173333333333332 345.59924336826, 16.176 345.4939100349266 C 16.178666666666665 345.38857670159325, 16.181333333333335 345.2865767015933, 16.183999999999997 345.18791003492663 L 17.264 345.18791003492663 C 17.256 345.2652433682599, 17.25 345.3612433682599, 17.246 345.47591003492664 C 17.241999999999997 345.59057670159325, 17.240666666666666 345.70124336825995, 17.241999999999997 345.80791003492664 C 17.243333333333332 345.91457670159326, 17.246666666666666 345.9945767015933, 17.252 346.04791003492664 C 17.262666666666668 346.1679100349266, 17.297333333333334 346.2659100349266, 17.355999999999998 346.3419100349266 C 17.414666666666665 346.4179100349266, 17.497333333333334 346.4719100349266, 17.604 346.5039100349266 L 17.604 347.3959100349266 C 17.110666666666663 347.3585767015933, 16.75333333333333 347.22391003492663, 16.532 346.9919100349266 C 16.310666666666666 346.7599100349266, 16.19333333333333 346.3999100349266, 16.18 345.9119100349266 Z M 16.279999999999998 344.5759100349266 L 16.279999999999998 340.92791003492664 L 17.348 340.92791003492664 L 17.348 344.5759100349266 Z M 17.852 344.15191003492663 L 17.852 343.3959100349266 C 17.929333333333332 343.3559100349266, 18.014666666666667 343.3239100349266, 18.107999999999997 343.2999100349266 C 18.20133333333333 343.2759100349266, 18.301333333333332 343.2639100349266, 18.407999999999998 343.2639100349266 C 18.773333333333333 343.2639100349266, 19.047333333333334 343.37924336825995, 19.23 343.6099100349266 C 19.412666666666667 343.84057670159325, 19.514666666666663 344.15457670159327, 19.535999999999998 344.5519100349266 C 19.546666666666667 344.71191003492663, 19.55333333333333 344.8705767015933, 19.555999999999997 345.0279100349266 C 19.558666666666664 345.18524336825993, 19.557333333333332 345.3385767015933, 19.552 345.48791003492664 C 19.546666666666667 345.63724336826, 19.538666666666668 345.77724336826, 19.528 345.9079100349266 C 19.482666666666667 346.4065767015933, 19.353333333333335 346.7719100349266, 19.14 347.0039100349266 C 18.926666666666666 347.23591003492663, 18.581333333333333 347.3665767015933, 18.104 347.3959100349266 L 18.104 346.5039100349266 C 18.21333333333333 346.47457670159326, 18.296 346.4219100349266, 18.352 346.3459100349266 C 18.408 346.2699100349266, 18.44 346.1705767015933, 18.448 346.04791003492664 C 18.471999999999998 345.75724336825994, 18.485999999999997 345.4959100349266, 18.49 345.2639100349266 C 18.494 345.0319100349266, 18.485333333333333 344.8105767015933, 18.464 344.5999100349266 C 18.447999999999997 344.44524336826, 18.396666666666665 344.3299100349266, 18.31 344.2539100349266 C 18.223333333333333 344.17791003492664, 18.090666666666664 344.13991003492663, 17.912 344.13991003492663 C 17.901333333333334 344.13991003492663, 17.890666666666668 344.14124336825995, 17.88 344.1439100349266 C 17.86933333333333 344.1465767015933, 17.86 344.14924336825993, 17.852 344.15191003492663 Z M 17.852 341.8599100349266 L 17.852 340.92791003492664 L 19.439999999999998 340.92791003492664 L 19.439999999999998 341.8599100349266 Z M 21.944 347.3279100349266 L 21.944 340.92791003492664 L 23.003999999999998 340.92791003492664 L 23.003999999999998 347.3279100349266 Z " stroke="none" fill-rule="nonzero" fill="#000000" fill-opacity="1" transform="matrix(1,0,0,1,5.05,13.314)" id="text15 l" />
  <path d="M 0 341.42671183422806 L 10 341.42671183422806 L 10 342.92671183422806 L 0 342.92671183422806 Z " stroke="none" fill-rule="evenodd" fill="#000000" fill-opacity="1" transform="matrix(1,0,0,1,5.05,13.314)" id="mark16 l" />
  <path d="M 0 334.44351363352956 L 10 334.44351363352956 L 10 335.94351363352956 L 0 335.94351363352956 Z " stroke="none" fill-rule="evenodd" fill="#000000" fill-opacity="1" transform="matrix(1,0,0,1,5.05,13.314)" id="mark17 l" />
  <path d="M 0 327.460315432831 L 10 327.460315432831 L 10 328.960315432831 L 0 328.960315432831 Z " stroke="none" fill-rule="evenodd" fill="#000000" fill-opacity="1" transform="matrix(1,0,0,1,5.05,13.314)" id="mark18 l" />
  <path d="M 0 320.4771172321325 L 10 320.4771172321325 L 10 321.9771172321325 L 0 321.9771172321325 Z " stroke="none" fill-rule="evenodd" fill="#000000" fill-opacity="1" transform="matrix(1,0,0,1,5.05,13.314)" id="mark19 l" />
  <path d="M 0 313.49391903143396 L 25 313.49391903143396 L 25 314.99391903143396 L 0 314.99391903143396 Z " stroke="none" fill-rule="evenodd" fill="#000000" fill-opacity="1" transform="matrix(1,0,0,1,5.05,13.314)" id="mark20 l" />
  <path d="M 12.319999999999999 312.44391903143395 C 12.317333333333334 312.34525236476725, 12.315333333333331 312.2565856981006, 12.313999999999998 312.17791903143393 C 12.312666666666665 312.09925236476727, 12.311333333333334 312.0252523647673, 12.309999999999999 311.95591903143395 C 12.308666666666667 311.8865856981006, 12.308 311.8145856981006, 12.308 311.73991903143394 C 12.308 311.6652523647673, 12.308 311.5805856981006, 12.308 311.4859190314339 C 12.308 311.39125236476724, 12.309333333333335 311.27991903143396, 12.312 311.151919031434 C 12.32 310.8585856981006, 12.37 310.5965856981006, 12.462 310.365919031434 C 12.554 310.1352523647673, 12.687999999999999 309.9292523647673, 12.863999999999999 309.7479190314339 C 13.04 309.5665856981006, 13.257333333333333 309.4052523647673, 13.515999999999998 309.26391903143394 L 14.047999999999998 308.97591903143393 C 14.234666666666666 308.87458569810065, 14.354 308.75258569810063, 14.405999999999999 308.60991903143395 C 14.457999999999998 308.46725236476726, 14.488 308.3332523647673, 14.495999999999999 308.20791903143396 C 14.506666666666664 308.06125236476726, 14.512666666666664 307.9045856981006, 14.514 307.73791903143393 C 14.51533333333333 307.57125236476725, 14.511999999999997 307.4145856981006, 14.504 307.26791903143396 C 14.498666666666665 307.163919031434, 14.468666666666666 307.07791903143396, 14.413999999999998 307.0099190314339 C 14.359333333333332 306.94191903143394, 14.279999999999998 306.8932523647673, 14.175999999999998 306.86391903143397 L 14.175999999999998 305.97591903143393 C 14.663999999999998 306.00791903143397, 15.014 306.1392523647673, 15.225999999999999 306.36991903143394 C 15.437999999999999 306.6005856981006, 15.554666666666666 306.9612523647673, 15.575999999999999 307.45191903143393 C 15.578666666666663 307.51591903143395, 15.580666666666666 307.5812523647673, 15.581999999999999 307.64791903143396 C 15.583333333333332 307.7145856981006, 15.584 307.7792523647673, 15.584 307.841919031434 C 15.584 307.9045856981006, 15.583333333333332 307.96658569810063, 15.581999999999999 308.02791903143395 C 15.580666666666666 308.0892523647673, 15.578666666666663 308.1492523647673, 15.575999999999999 308.20791903143396 C 15.565333333333331 308.4932523647673, 15.512 308.73991903143394, 15.415999999999999 308.94791903143397 C 15.32 309.15591903143394, 15.19 309.33591903143395, 15.026 309.48791903143393 C 14.862 309.6399190314339, 14.672 309.77591903143394, 14.456 309.89591903143395 L 13.851999999999999 310.2239190314339 C 13.737333333333332 310.2852523647673, 13.647333333333332 310.36925236476725, 13.581999999999999 310.47591903143393 C 13.516666666666666 310.5825856981006, 13.469999999999999 310.69591903143396, 13.441999999999998 310.81591903143396 C 13.413999999999998 310.93591903143397, 13.399999999999999 311.047919031434, 13.399999999999999 311.151919031434 L 13.399999999999999 312.44391903143395 Z M 12.328 308.40391903143393 C 12.322666666666667 308.2865856981006, 12.318666666666665 308.17191903143396, 12.315999999999999 308.05991903143394 C 12.313333333333333 307.9479190314339, 12.311333333333334 307.8419190314339, 12.309999999999999 307.74191903143395 C 12.308666666666667 307.641919031434, 12.309333333333335 307.5452523647673, 12.312 307.45191903143393 C 12.330666666666666 306.96391903143393, 12.447333333333333 306.6045856981006, 12.661999999999999 306.37391903143396 C 12.876666666666665 306.1432523647673, 13.213333333333331 306.0105856981006, 13.671999999999999 305.97591903143393 L 13.671999999999999 306.8679190314339 C 13.576 306.89725236476727, 13.505333333333333 306.94391903143395, 13.459999999999999 307.00791903143397 C 13.414666666666665 307.071919031434, 13.390666666666664 307.14925236476734, 13.387999999999998 307.23991903143394 C 13.382666666666665 307.4479190314339, 13.379333333333333 307.6412523647673, 13.378 307.8199190314339 C 13.376666666666667 307.9985856981006, 13.381333333333334 308.19325236476726, 13.392 308.40391903143393 Z M 13.904 312.44391903143395 L 13.904 311.51191903143393 L 15.5 311.51191903143393 L 15.5 312.44391903143395 Z M 16.196 311.031919031434 C 16.188000000000002 310.6025856981006, 16.182666666666666 310.18591903143397, 16.18 309.781919031434 C 16.177333333333333 309.377919031434, 16.177999999999997 308.9825856981006, 16.182 308.59591903143394 C 16.186 308.2092523647673, 16.190666666666665 307.82791903143396, 16.196 307.45191903143393 C 16.209333333333333 307.01191903143393, 16.334000000000003 306.6665856981006, 16.57 306.41591903143393 C 16.805999999999997 306.1652523647673, 17.142666666666663 306.019919031434, 17.58 305.97991903143395 L 17.58 306.8679190314339 C 17.382666666666665 306.9239190314339, 17.281333333333333 307.0532523647673, 17.276 307.25591903143396 C 17.262666666666668 307.6265856981006, 17.253333333333334 307.9745856981006, 17.248 308.29991903143394 C 17.242666666666665 308.6252523647673, 17.24 308.94191903143394, 17.24 309.24991903143393 C 17.24 309.5579190314339, 17.242666666666665 309.8725856981006, 17.248 310.19391903143395 C 17.253333333333334 310.5152523647673, 17.262666666666668 310.8585856981006, 17.276 311.2239190314339 C 17.281333333333333 311.43191903143395, 17.382666666666665 311.56391903143395, 17.58 311.61991903143394 L 17.58 312.50791903143397 C 17.142666666666663 312.46791903143395, 16.805999999999997 312.32191903143394, 16.57 312.0699190314339 C 16.334000000000003 311.8179190314339, 16.209333333333333 311.4719190314339, 16.196 311.031919031434 Z M 18.084 312.50791903143397 L 18.084 311.615919031434 C 18.268 311.56258569810063, 18.366666666666667 311.4385856981006, 18.38 311.24391903143396 C 18.398666666666667 310.7772523647673, 18.410666666666668 310.32858569810065, 18.416 309.89791903143396 C 18.421333333333333 309.46725236476726, 18.421333333333333 309.03658569810057, 18.416 308.6059190314339 C 18.410666666666668 308.1752523647673, 18.398666666666667 307.7225856981006, 18.38 307.2479190314339 C 18.374666666666666 307.0532523647673, 18.276 306.9265856981006, 18.084 306.8679190314339 L 18.084 305.97991903143395 C 18.513333333333335 306.019919031434, 18.846666666666668 306.1652523647673, 19.084 306.41591903143393 C 19.321333333333335 306.6665856981006, 19.445333333333334 307.01191903143393, 19.456 307.45191903143393 C 19.46666666666667 307.76658569810064, 19.474666666666668 308.07658569810064, 19.48 308.38191903143394 C 19.485333333333333 308.6872523647673, 19.488 308.987919031434, 19.488 309.2839190314339 C 19.488 309.579919031434, 19.485333333333333 309.87325236476727, 19.48 310.163919031434 C 19.474666666666668 310.45458569810063, 19.46666666666667 310.74391903143396, 19.456 311.031919031434 C 19.439999999999998 311.4825856981006, 19.311999999999998 311.8312523647673, 19.072 312.07791903143396 C 18.832 312.32458569810063, 18.502666666666666 312.46791903143395, 18.084 312.50791903143397 Z M 21.944 312.44391903143395 L 21.944 306.043919031434 L 23.003999999999998 306.043919031434 L 23.003999999999998 312.44391903143395 Z " stroke="none" fill-rule="nonzero" fill="#000000" fill-opacity="1" transform="matrix(1,0,0,1,5.05,13.314)" id="text20 l" />
  <path d="M 0 306.5107208307354 L 10 306.5107208307354 L 10 308.0107208307354 L 0 308.0107208307354 Z " stroke="none" fill-rule="evenodd" fill="#000000" fill-opacity="1" transform="matrix(1,0,0,1,5.05,13.314)" id="mark21 l" />
  <path d="M 0 299.52752263003686 L 10 299.52752263003686 L 10 301.02752263003686 L 0 301.02752263003686 Z " stroke="none" fill-rule="evenodd" fill="#000000" fill-opacity="1" transform="matrix(1,0,0,1,5.05,13.314)" id="mark22 l" />
  <path d="M 0 292.54432442933836 L 10 292.54432442933836 L 10 294.04432442933836 L 0 294.04432442933836 Z " stroke="none" fill-rule="evenodd" fill="#000000" fill-opacity="1" transform="matrix(1,0,0,1,5.05,13.314)" id="mark23 l" />
  <path d="M 0 285.56112622863986 L 10 285.56112622863986 L 10 287.06112622863986 L 0 287.06112622863986 Z " stroke="none" fill-rule="evenodd" fill="#000000" fill-opacity="1" transform="matrix(1,0,0,1,5.05,13.314)" id="mark24 l" />
  <path d="M 0 278.5779280279413 L 25 278.5779280279413 L 25 280.0779280279413 L 0 280.0779280279413 Z " stroke="none" fill-rule="evenodd" fill="#000000" fill-opacity="1" transform="matrix(1,0,0,1,5.05,13.314)" id="mark25 l" />
  <path d="M 12.328 277.5279280279413 C 12.325333333333333 277.4292613612746, 12.323333333333332 277.34059469460794, 12.322 277.2619280279413 C 12.320666666666666 277.1832613612746, 12.319333333333333 277.10926136127466, 12.318 277.0399280279413 C 12.316666666666666 276.97059469460794, 12.315999999999999 276.89859469460794, 12.316 276.8239280279413 C 12.315999999999999 276.74926136127465, 12.315999999999999 276.66459469460796, 12.316 276.5699280279413 C 12.315999999999999 276.4752613612746, 12.317333333333334 276.3639280279413, 12.32 276.2359280279413 C 12.328 275.942594694608, 12.378 275.680594694608, 12.47 275.4499280279413 C 12.562000000000001 275.2192613612747, 12.696 275.01326136127466, 12.872 274.8319280279413 C 13.048 274.65059469460795, 13.265333333333334 274.48926136127466, 13.524000000000001 274.3479280279413 L 14.056000000000001 274.0599280279413 C 14.242666666666668 273.958594694608, 14.362000000000002 273.836594694608, 14.414 273.6939280279413 C 14.466000000000001 273.5512613612746, 14.495999999999999 273.41726136127465, 14.504 273.2919280279413 C 14.514666666666667 273.1452613612746, 14.520666666666667 272.98859469460797, 14.522 272.8219280279413 C 14.523333333333333 272.6552613612746, 14.520000000000001 272.49859469460796, 14.512 272.3519280279413 C 14.506666666666666 272.2479280279413, 14.476666666666667 272.1619280279413, 14.422 272.0939280279413 C 14.367333333333335 272.0259280279413, 14.288 271.97726136127466, 14.184000000000001 271.9479280279413 L 14.184000000000001 271.0599280279413 C 14.672 271.0919280279413, 15.022000000000002 271.22326136127464, 15.234 271.4539280279413 C 15.446000000000002 271.68459469460794, 15.562666666666667 272.04526136127464, 15.584 272.5359280279413 C 15.586666666666668 272.5999280279413, 15.588666666666668 272.66526136127464, 15.59 272.7319280279413 C 15.591333333333335 272.79859469460797, 15.592000000000002 272.8632613612746, 15.592 272.9259280279413 C 15.592000000000002 272.98859469460797, 15.591333333333335 273.050594694608, 15.59 273.1119280279413 C 15.588666666666668 273.1732613612746, 15.586666666666668 273.23326136127463, 15.584 273.2919280279413 C 15.573333333333332 273.5772613612746, 15.52 273.8239280279413, 15.424 274.0319280279413 C 15.328 274.2399280279413, 15.197999999999999 274.4199280279413, 15.033999999999999 274.5719280279413 C 14.87 274.72392802794127, 14.68 274.8599280279413, 14.464 274.9799280279413 L 13.86 275.3079280279413 C 13.745333333333335 275.36926136127465, 13.655333333333335 275.4532613612746, 13.59 275.5599280279413 C 13.524666666666668 275.66659469460797, 13.478000000000002 275.7799280279413, 13.45 275.8999280279413 C 13.422 276.0199280279413, 13.408 276.13192802794134, 13.408 276.2359280279413 L 13.408 277.5279280279413 Z M 12.336 273.4879280279413 C 12.330666666666666 273.370594694608, 12.326666666666664 273.2559280279413, 12.324 273.1439280279413 C 12.321333333333332 273.03192802794126, 12.319333333333333 272.92592802794127, 12.318 272.8259280279413 C 12.316666666666666 272.72592802794134, 12.317333333333334 272.62926136127464, 12.32 272.5359280279413 C 12.338666666666668 272.0479280279413, 12.455333333333336 271.68859469460796, 12.67 271.4579280279413 C 12.884666666666668 271.22726136127466, 13.221333333333334 271.09459469460796, 13.68 271.0599280279413 L 13.68 271.9519280279413 C 13.584 271.9812613612746, 13.513333333333332 272.0279280279413, 13.468 272.0919280279413 C 13.422666666666668 272.15592802794134, 13.398666666666667 272.2332613612747, 13.396 272.3239280279413 C 13.390666666666666 272.53192802794126, 13.387333333333332 272.72526136127465, 13.386 272.9039280279413 C 13.384666666666666 273.08259469460796, 13.389333333333333 273.2772613612746, 13.4 273.4879280279413 Z M 13.911999999999999 277.5279280279413 L 13.911999999999999 276.5959280279413 L 15.508 276.5959280279413 L 15.508 277.5279280279413 Z M 16.18 276.1119280279413 C 16.174666666666667 275.93859469460796, 16.173333333333332 275.7992613612746, 16.176 275.6939280279413 C 16.178666666666665 275.588594694608, 16.181333333333335 275.48659469460796, 16.183999999999997 275.3879280279413 L 17.264 275.3879280279413 C 17.256 275.46526136127466, 17.25 275.56126136127466, 17.246 275.6759280279413 C 17.241999999999997 275.790594694608, 17.240666666666666 275.90126136127463, 17.241999999999997 276.0079280279413 C 17.243333333333332 276.11459469460794, 17.246666666666666 276.194594694608, 17.252 276.2479280279413 C 17.262666666666668 276.3679280279413, 17.297333333333334 276.4659280279413, 17.355999999999998 276.5419280279413 C 17.414666666666665 276.6179280279413, 17.497333333333334 276.6719280279413, 17.604 276.7039280279413 L 17.604 277.5959280279413 C 17.110666666666663 277.55859469460796, 16.75333333333333 277.4239280279413, 16.532 277.1919280279413 C 16.310666666666666 276.95992802794126, 16.19333333333333 276.5999280279413, 16.18 276.1119280279413 Z M 16.279999999999998 274.7759280279413 L 16.279999999999998 271.1279280279413 L 17.348 271.1279280279413 L 17.348 274.7759280279413 Z M 17.852 274.3519280279413 L 17.852 273.5959280279413 C 17.929333333333332 273.55592802794126, 18.014666666666667 273.5239280279413, 18.107999999999997 273.4999280279413 C 18.20133333333333 273.4759280279413, 18.301333333333332 273.4639280279413, 18.407999999999998 273.4639280279413 C 18.773333333333333 273.4639280279413, 19.047333333333334 273.57926136127463, 19.23 273.8099280279413 C 19.412666666666667 274.04059469460793, 19.514666666666663 274.35459469460795, 19.535999999999998 274.7519280279413 C 19.546666666666667 274.9119280279413, 19.55333333333333 275.07059469460796, 19.555999999999997 275.2279280279413 C 19.558666666666664 275.3852613612746, 19.557333333333332 275.538594694608, 19.552 275.6879280279413 C 19.546666666666667 275.83726136127467, 19.538666666666668 275.97726136127466, 19.528 276.1079280279413 C 19.482666666666667 276.60659469460796, 19.353333333333335 276.9719280279413, 19.14 277.2039280279413 C 18.926666666666666 277.43592802794126, 18.581333333333333 277.56659469460794, 18.104 277.5959280279413 L 18.104 276.7039280279413 C 18.21333333333333 276.67459469460795, 18.296 276.6219280279413, 18.352 276.5459280279413 C 18.408 276.46992802794125, 18.44 276.370594694608, 18.448 276.2479280279413 C 18.471999999999998 275.9572613612746, 18.485999999999997 275.6959280279413, 18.49 275.4639280279413 C 18.494 275.2319280279413, 18.485333333333333 275.010594694608, 18.464 274.7999280279413 C 18.447999999999997 274.6452613612746, 18.396666666666665 274.5299280279413, 18.31 274.4539280279413 C 18.223333333333333 274.3779280279413, 18.090666666666664 274.3399280279413, 17.912 274.3399280279413 C 17.901333333333334 274.3399280279413, 17.890666666666668 274.34126136127463, 17.88 274.3439280279413 C 17.86933333333333 274.346594694608, 17.86 274.3492613612746, 17.852 274.3519280279413 Z M 17.852 272.0599280279413 L 17.852 271.1279280279413 L 19.439999999999998 271.1279280279413 L 19.439999999999998 272.0599280279413 Z M 21.944 277.5279280279413 L 21.944 271.1279280279413 L 23.003999999999998 271.1279280279413 L 23.003999999999998 277.5279280279413 Z " stroke="none" fill-rule="nonzero" fill="#000000" fill-opacity="1" transform="matrix(1,0,0,1,5.05,13.314)" id="text25 l" />
  <path d="M 0 271.59472982724276 L 10 271.59472982724276 L 10 273.09472982724276 L 0 273.09472982724276 Z " stroke="none" fill-rule="evenodd" fill="#000000" fill-opacity="1" transform="matrix(1,0,0,1,5.05,13.314)" id="mark26 l" />
  <path d="M 0 264.6115316265442 L 10 264.6115316265442 L 10 266.1115316265442 L 0 266.1115316265442 Z " stroke="none" fill-rule="evenodd" fill="#000000" fill-opacity="1" transform="matrix(1,0,0,1,5.05,13.314)" id="mark27 l" />
  <path d="M 0 257.6283334258457 L 10 257.6283334258457 L 10 259.1283334258457 L 0 259.1283334258457 Z " stroke="none" fill-rule="evenodd" fill="#000000" fill-opacity="1" transform="matrix(1,0,0,1,5.05,13.314)" id="mark28 l" />
  <path d="M 0 250.64513522514716 L 10 250.64513522514716 L 10 252.14513522514716 L 0 252.14513522514716 Z " stroke="none" fill-rule="evenodd" fill="#000000" fill-opacity="1" transform="matrix(1,0,0,1,5.05,13.314)" id="mark29 l" />
  <path d="M 0 243.66193702444863 L 25 243.66193702444863 L 25 245.16193702444863 L 0 245.16193702444863 Z " stroke="none" fill-rule="evenodd" fill="#000000" fill-opacity="1" transform="matrix(1,0,0,1,5.05,13.314)" id="mark30 l" />
  <path d="M 12.223999999999998 241.19593702444865 C 12.221333333333334 241.0946036911153, 12.219333333333333 241.0106036911153, 12.218 240.94393702444864 C 12.216666666666667 240.87727035778198, 12.216666666666667 240.809270357782, 12.218 240.73993702444864 C 12.219333333333333 240.67060369111533, 12.221333333333334 240.581270357782, 12.223999999999998 240.47193702444866 L 13.303999999999998 240.47193702444866 L 13.303999999999998 241.33593702444864 C 13.303999999999998 241.573270357782, 13.417333333333332 241.72393702444867, 13.643999999999998 241.78793702444864 L 13.643999999999998 242.67993702444866 C 13.155999999999999 242.6426036911153, 12.800666666666665 242.50793702444867, 12.578 242.27593702444864 C 12.355333333333334 242.04393702444867, 12.237333333333332 241.68393702444865, 12.223999999999998 241.19593702444865 Z M 12.292 237.14393702444866 L 12.292 236.21193702444864 L 15.536 236.21193702444864 L 15.536 237.14393702444866 Z M 14.143999999999998 241.79193702444866 C 14.367999999999999 241.73593702444867, 14.483999999999998 241.585270357782, 14.491999999999999 241.33993702444866 C 14.497333333333334 241.13727035778197, 14.500666666666666 240.95460369111532, 14.501999999999999 240.79193702444866 C 14.503333333333332 240.629270357782, 14.498666666666665 240.47193702444866, 14.488 240.31993702444865 C 14.48 240.16260369111535, 14.431999999999999 240.029270357782, 14.344 239.91993702444864 C 14.256 239.81060369111532, 14.089333333333332 239.7586036911153, 13.844 239.76393702444864 L 13.096 239.77193702444865 L 13.068 238.87993702444865 L 14.027999999999999 237.49593702444866 L 15.216 237.49593702444866 L 14.248 238.84793702444864 L 14.28 238.84793702444864 C 14.712 238.84793702444864, 15.028666666666666 238.97060369111534, 15.229999999999999 239.21593702444866 C 15.431333333333333 239.46127035778198, 15.544 239.83860369111534, 15.568 240.34793702444864 C 15.57333333333333 240.41993702444864, 15.576666666666664 240.49193702444865, 15.578 240.56393702444865 C 15.57933333333333 240.63593702444865, 15.579999999999998 240.70660369111533, 15.579999999999998 240.77593702444864 C 15.579999999999998 240.845270357782, 15.57933333333333 240.91460369111533, 15.578 240.98393702444866 C 15.576666666666664 241.053270357782, 15.57333333333333 241.12393702444865, 15.568 241.19593702444865 C 15.549333333333333 241.69193702444863, 15.428666666666665 242.0566036911153, 15.206 242.28993702444865 C 14.983333333333334 242.523270357782, 14.630666666666666 242.653270357782, 14.148 242.67993702444866 Z M 16.196 241.19993702444864 C 16.188000000000002 240.7706036911153, 16.182666666666666 240.35393702444867, 16.18 239.94993702444864 C 16.177333333333333 239.54593702444868, 16.177999999999997 239.15060369111532, 16.182 238.76393702444864 C 16.186 238.37727035778198, 16.190666666666665 237.99593702444866, 16.196 237.61993702444866 C 16.209333333333333 237.17993702444863, 16.334000000000003 236.83460369111532, 16.57 236.58393702444866 C 16.805999999999997 236.333270357782, 17.142666666666663 236.18793702444867, 17.58 236.14793702444865 L 17.58 237.03593702444866 C 17.382666666666665 237.09193702444867, 17.281333333333333 237.221270357782, 17.276 237.42393702444866 C 17.262666666666668 237.79460369111533, 17.253333333333334 238.1426036911153, 17.248 238.46793702444864 C 17.242666666666665 238.79327035778198, 17.24 239.10993702444864, 17.24 239.41793702444866 C 17.24 239.72593702444863, 17.242666666666665 240.0406036911153, 17.248 240.36193702444865 C 17.253333333333334 240.683270357782, 17.262666666666668 241.02660369111533, 17.276 241.39193702444865 C 17.281333333333333 241.59993702444865, 17.382666666666665 241.73193702444865, 17.58 241.78793702444864 L 17.58 242.67593702444864 C 17.142666666666663 242.63593702444865, 16.805999999999997 242.48993702444864, 16.57 242.23793702444866 C 16.334000000000003 241.98593702444862, 16.209333333333333 241.6399370244486, 16.196 241.19993702444864 Z M 18.084 242.67593702444864 L 18.084 241.78393702444865 C 18.268 241.73060369111533, 18.366666666666667 241.6066036911153, 18.38 241.41193702444866 C 18.398666666666667 240.94527035778196, 18.410666666666668 240.4966036911153, 18.416 240.06593702444866 C 18.421333333333333 239.63527035778196, 18.421333333333333 239.20460369111532, 18.416 238.77393702444866 C 18.410666666666668 238.343270357782, 18.398666666666667 237.8906036911153, 18.38 237.41593702444865 C 18.374666666666666 237.22127035778198, 18.276 237.0946036911153, 18.084 237.03593702444866 L 18.084 236.14793702444865 C 18.513333333333335 236.18793702444867, 18.846666666666668 236.333270357782, 19.084 236.58393702444866 C 19.321333333333335 236.83460369111532, 19.445333333333334 237.17993702444863, 19.456 237.61993702444866 C 19.46666666666667 237.93460369111529, 19.474666666666668 238.2446036911153, 19.48 238.54993702444864 C 19.485333333333333 238.855270357782, 19.488 239.15593702444863, 19.488 239.45193702444865 C 19.488 239.74793702444867, 19.485333333333333 240.04127035778197, 19.48 240.33193702444865 C 19.474666666666668 240.62260369111533, 19.46666666666667 240.91193702444866, 19.456 241.19993702444864 C 19.439999999999998 241.6506036911153, 19.311999999999998 241.999270357782, 19.072 242.24593702444864 C 18.832 242.49260369111533, 18.502666666666666 242.63593702444865, 18.084 242.67593702444864 Z M 21.944 242.61193702444865 L 21.944 236.21193702444864 L 23.003999999999998 236.21193702444864 L 23.003999999999998 242.61193702444865 Z " stroke="none" fill-rule="nonzero" fill="#000000" fill-opacity="1" transform="matrix(1,0,0,1,5.05,13.314)" id="text30 l" />
  <path d="M 0 236.6787388237501 L 10 236.6787388237501 L 10 238.1787388237501 L 0 238.1787388237501 Z " stroke="none" fill-rule="evenodd" fill="#000000" fill-opacity="1" transform="matrix(1,0,0,1,5.05,13.314)" id="mark31 l" />
  <path d="M 0 229.69554062305156 L 10 229.69554062305156 L 10 231.19554062305156 L 0 231.19554062305156 Z " stroke="none" fill-rule="evenodd" fill="#000000" fill-opacity="1" transform="matrix(1,0,0,1,5.05,13.314)" id="mark32 l" />
  <path d="M 0 222.71234242235303 L 10 222.71234242235303 L 10 224.21234242235303 L 0 224.21234242235303 Z " stroke="none" fill-rule="evenodd" fill="#000000" fill-opacity="1" transform="matrix(1,0,0,1,5.05,13.314)" id="mark33 l" />
  <path d="M 0 215.7291442216545 L 10 215.7291442216545 L 10 217.2291442216545 L 0 217.2291442216545 Z " stroke="none" fill-rule="evenodd" fill="#000000" fill-opacity="1" transform="matrix(1,0,0,1,5.05,13.314)" id="mark34 l" />
  <path d="M 0 208.74594602095596 L 25 208.74594602095596 L 25 210.24594602095596 L 0 210.24594602095596 Z " stroke="none" fill-rule="evenodd" fill="#000000" fill-opacity="1" transform="matrix(1,0,0,1,5.05,13.314)" id="mark35 l" />
  <path d="M 12.232 206.24794602095596 C 12.229333333333333 206.14661268762262, 12.227333333333334 206.06261268762262, 12.226 205.99594602095596 C 12.224666666666668 205.9292793542893, 12.224666666666668 205.8612793542893, 12.226 205.79194602095595 C 12.227333333333334 205.72261268762264, 12.229333333333333 205.6332793542893, 12.232 205.52394602095598 L 13.312 205.52394602095598 L 13.312 206.38794602095595 C 13.312 206.62527935428932, 13.425333333333333 206.77594602095598, 13.652 206.83994602095595 L 13.652 207.73194602095597 C 13.164 207.69461268762262, 12.808666666666667 207.55994602095598, 12.586 207.32794602095595 C 12.363333333333333 207.09594602095598, 12.245333333333335 206.73594602095596, 12.232 206.24794602095596 Z M 12.3 202.19594602095597 L 12.3 201.26394602095596 L 15.544 201.26394602095596 L 15.544 202.19594602095597 Z M 14.152000000000001 206.84394602095597 C 14.376000000000001 206.78794602095599, 14.492 206.63727935428932, 14.5 206.39194602095597 C 14.505333333333333 206.18927935428928, 14.508666666666667 206.00661268762263, 14.51 205.84394602095597 C 14.511333333333333 205.6812793542893, 14.506666666666668 205.52394602095598, 14.496 205.37194602095596 C 14.488 205.21461268762266, 14.440000000000001 205.0812793542893, 14.352 204.97194602095595 C 14.264 204.86261268762263, 14.097333333333335 204.8106126876226, 13.852 204.81594602095595 L 13.104 204.82394602095596 L 13.076 203.93194602095596 L 14.036 202.54794602095598 L 15.224 202.54794602095598 L 14.256 203.89994602095595 L 14.288 203.89994602095595 C 14.719999999999999 203.89994602095595, 15.036666666666665 204.02261268762265, 15.238 204.26794602095597 C 15.439333333333334 204.5132793542893, 15.552 204.89061268762265, 15.576 205.39994602095595 C 15.581333333333333 205.47194602095595, 15.584666666666667 205.54394602095596, 15.586 205.61594602095596 C 15.587333333333333 205.68794602095596, 15.588000000000001 205.75861268762264, 15.588000000000001 205.82794602095595 C 15.588000000000001 205.8972793542893, 15.587333333333333 205.96661268762264, 15.586 206.03594602095598 C 15.584666666666667 206.1052793542893, 15.581333333333333 206.17594602095596, 15.576 206.24794602095596 C 15.557333333333334 206.74394602095595, 15.436666666666667 207.1086126876226, 15.214 207.34194602095596 C 14.991333333333333 207.5752793542893, 14.638666666666666 207.7052793542893, 14.156 207.73194602095597 Z M 16.18 206.24794602095596 C 16.174666666666667 206.07461268762262, 16.173333333333332 205.9352793542893, 16.176 205.82994602095596 C 16.178666666666665 205.72461268762262, 16.181333333333335 205.62261268762262, 16.183999999999997 205.52394602095598 L 17.264 205.52394602095598 C 17.256 205.60127935428932, 17.25 205.6972793542893, 17.246 205.81194602095596 C 17.241999999999997 205.92661268762262, 17.240666666666666 206.0372793542893, 17.241999999999997 206.14394602095595 C 17.243333333333332 206.2506126876226, 17.246666666666666 206.33061268762265, 17.252 206.38394602095596 C 17.262666666666668 206.503946020956, 17.297333333333334 206.60194602095598, 17.355999999999998 206.67794602095597 C 17.414666666666665 206.75394602095596, 17.497333333333334 206.80794602095597, 17.604 206.83994602095595 L 17.604 207.73194602095597 C 17.110666666666663 207.69461268762262, 16.75333333333333 207.55994602095598, 16.532 207.32794602095595 C 16.310666666666666 207.09594602095598, 16.19333333333333 206.73594602095596, 16.18 206.24794602095596 Z M 16.279999999999998 204.91194602095595 L 16.279999999999998 201.26394602095596 L 17.348 201.26394602095596 L 17.348 204.91194602095595 Z M 17.852 204.48794602095597 L 17.852 203.73194602095597 C 17.929333333333332 203.69194602095598, 18.014666666666667 203.659946020956, 18.107999999999997 203.63594602095597 C 18.20133333333333 203.611946020956, 18.301333333333332 203.599946020956, 18.407999999999998 203.59994602095597 C 18.773333333333333 203.599946020956, 19.047333333333334 203.7152793542893, 19.23 203.94594602095597 C 19.412666666666667 204.1766126876226, 19.514666666666663 204.49061268762262, 19.535999999999998 204.88794602095595 C 19.546666666666667 205.04794602095598, 19.55333333333333 205.20661268762262, 19.555999999999997 205.36394602095595 C 19.558666666666664 205.52127935428928, 19.557333333333332 205.67461268762264, 19.552 205.82394602095596 C 19.546666666666667 205.97327935428928, 19.538666666666668 206.1132793542893, 19.528 206.24394602095597 C 19.482666666666667 206.74261268762262, 19.353333333333335 207.10794602095595, 19.14 207.33994602095595 C 18.926666666666666 207.57194602095595, 18.581333333333333 207.7026126876226, 18.104 207.73194602095597 L 18.104 206.83994602095595 C 18.21333333333333 206.8106126876226, 18.296 206.75794602095596, 18.352 206.68194602095596 C 18.408 206.60594602095597, 18.44 206.50661268762263, 18.448 206.38394602095596 C 18.471999999999998 206.09327935428928, 18.485999999999997 205.83194602095597, 18.49 205.59994602095597 C 18.494 205.36794602095597, 18.485333333333333 205.14661268762262, 18.464 204.93594602095595 C 18.447999999999997 204.7812793542893, 18.396666666666665 204.66594602095597, 18.31 204.58994602095595 C 18.223333333333333 204.51394602095598, 18.090666666666664 204.47594602095597, 17.912 204.47594602095597 C 17.901333333333334 204.47594602095597, 17.890666666666668 204.4772793542893, 17.88 204.47994602095596 C 17.86933333333333 204.48261268762263, 17.86 204.48527935428928, 17.852 204.48794602095597 Z M 17.852 202.19594602095597 L 17.852 201.26394602095596 L 19.439999999999998 201.26394602095596 L 19.439999999999998 202.19594602095597 Z M 21.944 207.66394602095596 L 21.944 201.26394602095596 L 23.003999999999998 201.26394602095596 L 23.003999999999998 207.66394602095596 Z " stroke="none" fill-rule="nonzero" fill="#000000" fill-opacity="1" transform="matrix(1,0,0,1,5.05,13.314)" id="text35 l" />
  <path d="M 0 201.76274782025743 L 10 201.76274782025743 L 10 203.26274782025743 L 0 203.26274782025743 Z " stroke="none" fill-rule="evenodd" fill="#000000" fill-opacity="1" transform="matrix(1,0,0,1,5.05,13.314)" id="mark36 l" />
  <path d="M 0 194.7795496195589 L 10 194.7795496195589 L 10 196.2795496195589 L 0 196.2795496195589 Z " stroke="none" fill-rule="evenodd" fill="#000000" fill-opacity="1" transform="matrix(1,0,0,1,5.05,13.314)" id="mark37 l" />
  <path d="M 0 187.79635141886035 L 10 187.79635141886035 L 10 189.29635141886035 L 0 189.29635141886035 Z " stroke="none" fill-rule="evenodd" fill="#000000" fill-opacity="1" transform="matrix(1,0,0,1,5.05,13.314)" id="mark38 l" />
  <path d="M 0 180.81315321816186 L 10 180.81315321816186 L 10 182.31315321816186 L 0 182.31315321816186 Z " stroke="none" fill-rule="evenodd" fill="#000000" fill-opacity="1" transform="matrix(1,0,0,1,5.05,13.314)" id="mark39 l" />
  <path d="M 0 173.8299550174633 L 25 173.8299550174633 L 25 175.3299550174633 L 0 175.3299550174633 Z " stroke="none" fill-rule="evenodd" fill="#000000" fill-opacity="1" transform="matrix(1,0,0,1,5.05,13.314)" id="mark40 l" />
  <path d="M 11.739999999999998 171.09595501746333 L 11.739999999999998 170.21995501746332 L 12.455999999999998 168.33995501746332 L 13.495999999999999 168.33995501746332 L 12.771999999999998 170.17195501746332 L 13.171999999999997 170.17195501746332 L 13.171999999999997 171.09595501746333 Z M 13.675999999999998 172.77995501746332 L 13.675999999999998 166.37995501746332 L 14.683999999999997 166.37995501746332 L 14.683999999999997 172.77995501746332 Z M 15.187999999999999 171.09595501746333 L 15.187999999999999 170.17195501746332 L 15.655999999999999 170.17195501746332 L 15.655999999999999 171.09595501746333 Z M 16.195999999999998 171.36795501746332 C 16.188 170.93862168412997, 16.182666666666666 170.5219550174633, 16.18 170.11795501746332 C 16.177333333333333 169.71395501746332, 16.177999999999997 169.31862168413, 16.182 168.9319550174633 C 16.186 168.54528835079665, 16.190666666666665 168.16395501746334, 16.195999999999998 167.78795501746333 C 16.20933333333333 167.34795501746333, 16.333999999999996 167.00262168413, 16.569999999999997 166.75195501746333 C 16.805999999999997 166.50128835079667, 17.142666666666663 166.35595501746332, 17.58 166.31595501746332 L 17.58 167.20395501746333 C 17.382666666666665 167.25995501746334, 17.281333333333333 167.38928835079668, 17.275999999999996 167.59195501746333 C 17.262666666666664 167.96262168413, 17.25333333333333 168.31062168412998, 17.247999999999998 168.63595501746332 C 17.242666666666665 168.96128835079665, 17.24 169.2779550174633, 17.24 169.58595501746333 C 17.24 169.89395501746333, 17.242666666666665 170.20862168412998, 17.247999999999998 170.52995501746332 C 17.25333333333333 170.85128835079666, 17.262666666666664 171.19462168413, 17.275999999999996 171.55995501746332 C 17.281333333333333 171.76795501746332, 17.382666666666665 171.89995501746333, 17.58 171.9559550174633 L 17.58 172.84395501746332 C 17.142666666666663 172.80395501746332, 16.805999999999997 172.6579550174633, 16.569999999999997 172.40595501746333 C 16.333999999999996 172.15395501746332, 16.20933333333333 171.8079550174633, 16.195999999999998 171.36795501746332 Z M 18.084 172.84395501746332 L 18.084 171.95195501746332 C 18.268 171.89862168412998, 18.366666666666667 171.77462168413, 18.38 171.57995501746333 C 18.398666666666664 171.11328835079667, 18.410666666666664 170.66462168413, 18.415999999999997 170.23395501746333 C 18.42133333333333 169.80328835079666, 18.42133333333333 169.37262168412997, 18.415999999999997 168.94195501746333 C 18.410666666666664 168.51128835079663, 18.398666666666664 168.05862168412997, 18.38 167.58395501746332 C 18.374666666666666 167.38928835079665, 18.276 167.26262168412998, 18.084 167.20395501746333 L 18.084 166.31595501746332 C 18.513333333333332 166.35595501746332, 18.846666666666664 166.50128835079667, 19.083999999999996 166.75195501746333 C 19.32133333333333 167.00262168413, 19.44533333333333 167.34795501746333, 19.456 167.78795501746333 C 19.466666666666665 168.10262168412999, 19.474666666666664 168.41262168413, 19.479999999999997 168.7179550174633 C 19.48533333333333 169.02328835079663, 19.488 169.32395501746333, 19.488 169.61995501746333 C 19.488 169.91595501746332, 19.48533333333333 170.20928835079664, 19.479999999999997 170.49995501746332 C 19.474666666666664 170.79062168413, 19.466666666666665 171.07995501746333, 19.456 171.36795501746332 C 19.439999999999998 171.81862168413, 19.311999999999998 172.16728835079664, 19.072 172.4139550174633 C 18.831999999999997 172.66062168412998, 18.502666666666663 172.80395501746332, 18.084 172.84395501746332 Z M 21.944 172.77995501746332 L 21.944 166.37995501746332 L 23.003999999999998 166.37995501746332 L 23.003999999999998 172.77995501746332 Z " stroke="none" fill-rule="nonzero" fill="#000000" fill-opacity="1" transform="matrix(1,0,0,1,5.05,13.314)" id="text40 l" />
  <path d="M 0 166.84675681676475 L 10 166.84675681676475 L 10 168.34675681676475 L 0 168.34675681676475 Z " stroke="none" fill-rule="evenodd" fill="#000000" fill-opacity="1" transform="matrix(1,0,0,1,5.05,13.314)" id="mark41 l" />
  <path d="M 0 159.86355861606626 L 10 159.86355861606626 L 10 161.36355861606626 L 0 161.36355861606626 Z " stroke="none" fill-rule="evenodd" fill="#000000" fill-opacity="1" transform="matrix(1,0,0,1,5.05,13.314)" id="mark42 l" />
  <path d="M 0 152.8803604153677 L 10 152.8803604153677 L 10 154.3803604153677 L 0 154.3803604153677 Z " stroke="none" fill-rule="evenodd" fill="#000000" fill-opacity="1" transform="matrix(1,0,0,1,5.05,13.314)" id="mark43 l" />
  <path d="M 0 145.89716221466915 L 10 145.89716221466915 L 10 147.39716221466915 L 0 147.39716221466915 Z " stroke="none" fill-rule="evenodd" fill="#000000" fill-opacity="1" transform="matrix(1,0,0,1,5.05,13.314)" id="mark44 l" />
  <path d="M 0 138.91396401397066 L 25 138.91396401397066 L 25 140.41396401397066 L 0 140.41396401397066 Z " stroke="none" fill-rule="evenodd" fill="#000000" fill-opacity="1" transform="matrix(1,0,0,1,5.05,13.314)" id="mark45 l" />
  <path d="M 11.748 136.14796401397066 L 11.748 135.27196401397066 L 12.463999999999999 133.39196401397066 L 13.503999999999998 133.39196401397066 L 12.78 135.22396401397066 L 13.18 135.22396401397066 L 13.18 136.14796401397066 Z M 13.684 137.83196401397066 L 13.684 131.43196401397066 L 14.691999999999998 131.43196401397066 L 14.691999999999998 137.83196401397066 Z M 15.195999999999998 136.14796401397066 L 15.195999999999998 135.22396401397066 L 15.663999999999998 135.22396401397066 L 15.663999999999998 136.14796401397066 Z M 16.18 136.41596401397067 C 16.174666666666667 136.24263068063735, 16.173333333333332 136.10329734730402, 16.176 135.99796401397066 C 16.178666666666665 135.89263068063735, 16.181333333333335 135.79063068063735, 16.183999999999997 135.69196401397068 L 17.264 135.69196401397068 C 17.256 135.769297347304, 17.25 135.865297347304, 17.246 135.97996401397066 C 17.241999999999997 136.09463068063732, 17.240666666666666 136.205297347304, 17.241999999999997 136.31196401397065 C 17.243333333333332 136.4186306806373, 17.246666666666666 136.49863068063732, 17.252 136.55196401397066 C 17.262666666666668 136.67196401397067, 17.297333333333334 136.76996401397065, 17.355999999999998 136.84596401397067 C 17.414666666666665 136.92196401397064, 17.497333333333334 136.97596401397064, 17.604 137.00796401397065 L 17.604 137.89996401397067 C 17.110666666666663 137.86263068063732, 16.75333333333333 137.72796401397065, 16.532 137.49596401397065 C 16.310666666666666 137.26396401397065, 16.19333333333333 136.90396401397066, 16.18 136.41596401397067 Z M 16.279999999999998 135.07996401397065 L 16.279999999999998 131.43196401397066 L 17.348 131.43196401397066 L 17.348 135.07996401397065 Z M 17.852 134.65596401397067 L 17.852 133.89996401397067 C 17.929333333333332 133.85996401397068, 18.014666666666667 133.82796401397067, 18.107999999999997 133.80396401397067 C 18.20133333333333 133.77996401397067, 18.301333333333332 133.76796401397067, 18.407999999999998 133.76796401397067 C 18.773333333333333 133.76796401397067, 19.047333333333334 133.883297347304, 19.23 134.11396401397067 C 19.412666666666667 134.34463068063732, 19.514666666666663 134.65863068063732, 19.535999999999998 135.05596401397065 C 19.546666666666667 135.21596401397065, 19.55333333333333 135.37463068063732, 19.555999999999997 135.53196401397065 C 19.558666666666664 135.689297347304, 19.557333333333332 135.84263068063734, 19.552 135.99196401397066 C 19.546666666666667 136.14129734730398, 19.538666666666668 136.281297347304, 19.528 136.41196401397067 C 19.482666666666667 136.91063068063733, 19.353333333333335 137.27596401397068, 19.14 137.50796401397065 C 18.926666666666666 137.73996401397068, 18.581333333333333 137.87063068063733, 18.104 137.89996401397067 L 18.104 137.00796401397065 C 18.21333333333333 136.97863068063734, 18.296 136.92596401397066, 18.352 136.84996401397066 C 18.408 136.77396401397067, 18.44 136.67463068063734, 18.448 136.55196401397066 C 18.471999999999998 136.26129734730398, 18.485999999999997 135.99996401397067, 18.49 135.76796401397067 C 18.494 135.53596401397067, 18.485333333333333 135.31463068063732, 18.464 135.10396401397065 C 18.447999999999997 134.94929734730397, 18.396666666666665 134.83396401397064, 18.31 134.75796401397065 C 18.223333333333333 134.68196401397066, 18.090666666666664 134.64396401397067, 17.912 134.64396401397067 C 17.901333333333334 134.64396401397067, 17.890666666666668 134.645297347304, 17.88 134.64796401397066 C 17.86933333333333 134.65063068063733, 17.86 134.653297347304, 17.852 134.65596401397067 Z M 17.852 132.36396401397067 L 17.852 131.43196401397066 L 19.439999999999998 131.43196401397066 L 19.439999999999998 132.36396401397067 Z M 21.944 137.83196401397066 L 21.944 131.43196401397066 L 23.003999999999998 131.43196401397066 L 23.003999999999998 137.83196401397066 Z " stroke="none" fill-rule="nonzero" fill="#000000" fill-opacity="1" transform="matrix(1,0,0,1,5.05,13.314)" id="text45 l" />
  <path d="M 0 131.9307658132721 L 10 131.9307658132721 L 10 133.4307658132721 L 0 133.4307658132721 Z " stroke="none" fill-rule="evenodd" fill="#000000" fill-opacity="1" transform="matrix(1,0,0,1,5.05,13.314)" id="mark46 l" />
  <path d="M 0 124.94756761257355 L 10 124.94756761257355 L 10 126.44756761257355 L 0 126.44756761257355 Z " stroke="none" fill-rule="evenodd" fill="#000000" fill-opacity="1" transform="matrix(1,0,0,1,5.05,13.314)" id="mark47 l" />
  <path d="M 0 117.96436941187505 L 10 117.96436941187505 L 10 119.46436941187505 L 0 119.46436941187505 Z " stroke="none" fill-rule="evenodd" fill="#000000" fill-opacity="1" transform="matrix(1,0,0,1,5.05,13.314)" id="mark48 l" />
  <path d="M 0 110.9811712111765 L 10 110.9811712111765 L 10 112.4811712111765 L 0 112.4811712111765 Z " stroke="none" fill-rule="evenodd" fill="#000000" fill-opacity="1" transform="matrix(1,0,0,1,5.05,13.314)" id="mark49 l" />
  <path d="M 0 103.99797301047795 L 25 103.99797301047795 L 25 105.49797301047795 L 0 105.49797301047795 Z " stroke="none" fill-rule="evenodd" fill="#000000" fill-opacity="1" transform="matrix(1,0,0,1,5.05,13.314)" id="mark50 l" />
  <path d="M 12.204 101.53197301047796 C 12.198666666666668 101.35863967714462, 12.197333333333333 101.21930634381127, 12.2 101.11397301047795 C 12.202666666666667 101.0086396771446, 12.205333333333336 100.90663967714461, 12.208 100.80797301047795 L 13.288 100.80797301047795 C 13.280000000000001 100.88530634381128, 13.274000000000001 100.98130634381127, 13.27 101.09597301047795 C 13.265999999999998 101.2106396771446, 13.264666666666667 101.32130634381127, 13.266 101.42797301047796 C 13.267333333333333 101.53463967714461, 13.270666666666667 101.61463967714462, 13.276 101.66797301047795 C 13.286666666666665 101.78797301047797, 13.321333333333332 101.88597301047795, 13.379999999999999 101.96197301047795 C 13.438666666666666 102.03797301047794, 13.521333333333335 102.09197301047794, 13.628 102.12397301047795 L 13.628 103.01597301047795 C 13.134666666666668 102.97863967714463, 12.777333333333335 102.84397301047795, 12.556 102.61197301047795 C 12.334666666666667 102.37997301047795, 12.217333333333332 102.01997301047797, 12.204 101.53197301047796 Z M 12.304 100.19597301047796 L 12.304 96.54797301047795 L 13.372 96.54797301047795 L 13.372 100.19597301047796 Z M 13.876 99.77197301047795 L 13.876 99.01597301047795 C 13.953333333333333 98.97597301047796, 14.038666666666668 98.94397301047795, 14.132 98.91997301047795 C 14.225333333333333 98.89597301047795, 14.325333333333333 98.88397301047794, 14.432 98.88397301047794 C 14.797333333333334 98.88397301047794, 15.071333333333332 98.99930634381127, 15.254 99.22997301047795 C 15.436666666666667 99.46063967714463, 15.538666666666668 99.77463967714462, 15.56 100.17197301047796 C 15.570666666666668 100.33197301047795, 15.577333333333334 100.49063967714463, 15.58 100.64797301047795 C 15.582666666666666 100.80530634381128, 15.581333333333333 100.95863967714462, 15.576 101.10797301047795 C 15.570666666666666 101.25730634381128, 15.562666666666665 101.3973063438113, 15.552 101.52797301047795 C 15.506666666666668 102.02663967714463, 15.377333333333333 102.39197301047795, 15.164 102.62397301047795 C 14.950666666666667 102.85597301047795, 14.605333333333332 102.98663967714461, 14.128 103.01597301047795 L 14.128 102.12397301047795 C 14.237333333333334 102.09463967714461, 14.32 102.04197301047796, 14.376 101.96597301047795 C 14.432 101.88997301047795, 14.464 101.79063967714461, 14.472 101.66797301047795 C 14.495999999999999 101.37730634381128, 14.509999999999998 101.11597301047794, 14.514 100.88397301047794 C 14.518 100.65197301047795, 14.509333333333334 100.43063967714461, 14.488 100.21997301047796 C 14.472000000000001 100.06530634381129, 14.420666666666666 99.94997301047795, 14.334 99.87397301047795 C 14.247333333333334 99.79797301047796, 14.114666666666666 99.75997301047795, 13.936 99.75997301047795 C 13.925333333333333 99.75997301047795, 13.914666666666665 99.76130634381128, 13.904 99.76397301047795 C 13.893333333333334 99.76663967714461, 13.884 99.76930634381128, 13.876 99.77197301047795 Z M 13.876 97.47997301047795 L 13.876 96.54797301047795 L 15.464 96.54797301047795 L 15.464 97.47997301047795 Z M 16.196 101.53597301047795 C 16.188000000000002 101.10663967714461, 16.182666666666666 100.68997301047796, 16.18 100.28597301047795 C 16.177333333333333 99.88197301047796, 16.177999999999997 99.48663967714462, 16.182 99.09997301047795 C 16.186 98.71330634381128, 16.190666666666665 98.33197301047795, 16.196 97.95597301047795 C 16.209333333333333 97.51597301047795, 16.334000000000003 97.1706396771446, 16.57 96.91997301047795 C 16.805999999999997 96.66930634381129, 17.142666666666663 96.52397301047796, 17.58 96.48397301047795 L 17.58 97.37197301047796 C 17.382666666666665 97.42797301047796, 17.281333333333333 97.55730634381129, 17.276 97.75997301047795 C 17.262666666666668 98.13063967714461, 17.253333333333334 98.47863967714463, 17.248 98.80397301047795 C 17.242666666666665 99.1293063438113, 17.24 99.44597301047796, 17.24 99.75397301047795 C 17.24 100.06197301047794, 17.242666666666665 100.37663967714462, 17.248 100.69797301047795 C 17.253333333333334 101.01930634381128, 17.262666666666668 101.36263967714461, 17.276 101.72797301047795 C 17.281333333333333 101.93597301047794, 17.382666666666665 102.06797301047794, 17.58 102.12397301047795 L 17.58 103.01197301047794 C 17.142666666666663 102.97197301047794, 16.805999999999997 102.82597301047795, 16.57 102.57397301047796 C 16.334000000000003 102.32197301047796, 16.209333333333333 101.97597301047796, 16.196 101.53597301047795 Z M 18.084 103.01197301047794 L 18.084 102.11997301047795 C 18.268 102.06663967714462, 18.366666666666667 101.94263967714461, 18.38 101.74797301047795 C 18.398666666666667 101.28130634381128, 18.410666666666668 100.83263967714461, 18.416 100.40197301047795 C 18.421333333333333 99.97130634381129, 18.421333333333333 99.54063967714464, 18.416 99.10997301047796 C 18.410666666666668 98.6793063438113, 18.398666666666667 98.22663967714462, 18.38 97.75197301047795 C 18.374666666666666 97.55730634381129, 18.276 97.43063967714463, 18.084 97.37197301047796 L 18.084 96.48397301047795 C 18.513333333333335 96.52397301047796, 18.846666666666668 96.66930634381129, 19.084 96.91997301047795 C 19.321333333333335 97.1706396771446, 19.445333333333334 97.51597301047795, 19.456 97.95597301047795 C 19.46666666666667 98.27063967714463, 19.474666666666668 98.58063967714463, 19.48 98.88597301047795 C 19.485333333333333 99.19130634381128, 19.488 99.49197301047795, 19.488 99.78797301047796 C 19.488 100.08397301047796, 19.485333333333333 100.37730634381128, 19.48 100.66797301047795 C 19.474666666666668 100.95863967714462, 19.46666666666667 101.24797301047795, 19.456 101.53597301047795 C 19.439999999999998 101.98663967714461, 19.311999999999998 102.33530634381128, 19.072 102.58197301047795 C 18.832 102.82863967714462, 18.502666666666666 102.97197301047794, 18.084 103.01197301047794 Z M 21.944 102.94797301047795 L 21.944 96.54797301047795 L 23.003999999999998 96.54797301047795 L 23.003999999999998 102.94797301047795 Z " stroke="none" fill-rule="nonzero" fill="#000000" fill-opacity="1" transform="matrix(1,0,0,1,5.05,13.314)" id="text50 l" />
  <path d="M 0 97.01477480977945 L 10 97.01477480977945 L 10 98.51477480977945 L 0 98.51477480977945 Z " stroke="none" fill-rule="evenodd" fill="#000000" fill-opacity="1" transform="matrix(1,0,0,1,5.05,13.314)" id="mark51 l" />
  <path d="M 0 90.0315766090809 L 10 90.0315766090809 L 10 91.5315766090809 L 0 91.5315766090809 Z " stroke="none" fill-rule="evenodd" fill="#000000" fill-opacity="1" transform="matrix(1,0,0,1,5.05,13.314)" id="mark52 l" />
  <path d="M 0 83.0483784083824 L 10 83.0483784083824 L 10 84.5483784083824 L 0 84.5483784083824 Z " stroke="none" fill-rule="evenodd" fill="#000000" fill-opacity="1" transform="matrix(1,0,0,1,5.05,13.314)" id="mark53 l" />
  <path d="M 0 76.06518020768385 L 10 76.06518020768385 L 10 77.56518020768385 L 0 77.56518020768385 Z " stroke="none" fill-rule="evenodd" fill="#000000" fill-opacity="1" transform="matrix(1,0,0,1,5.05,13.314)" id="mark54 l" />
  <path d="M 0 69.0819820069853 L 25 69.0819820069853 L 25 70.5819820069853 L 0 70.5819820069853 Z " stroke="none" fill-rule="evenodd" fill="#000000" fill-opacity="1" transform="matrix(1,0,0,1,5.05,13.314)" id="mark55 l" />
  <path d="M 12.212 66.58398200698531 C 12.206666666666667 66.41064867365198, 12.205333333333332 66.27131534031864, 12.207999999999998 66.1659820069853 C 12.210666666666667 66.06064867365197, 12.213333333333335 65.95864867365196, 12.216 65.8599820069853 L 13.296 65.8599820069853 C 13.288 65.93731534031863, 13.282 66.03331534031864, 13.277999999999999 66.1479820069853 C 13.273999999999997 66.26264867365197, 13.272666666666666 66.37331534031864, 13.274 66.47998200698531 C 13.275333333333332 66.58664867365198, 13.278666666666666 66.66664867365198, 13.283999999999999 66.7199820069853 C 13.294666666666664 66.83998200698531, 13.32933333333333 66.93798200698531, 13.387999999999998 67.0139820069853 C 13.446666666666665 67.08998200698531, 13.529333333333334 67.14398200698531, 13.636 67.17598200698531 L 13.636 68.0679820069853 C 13.142666666666667 68.03064867365197, 12.785333333333334 67.8959820069853, 12.563999999999998 67.66398200698531 C 12.342666666666666 67.43198200698531, 12.225333333333332 67.07198200698531, 12.212 66.58398200698531 Z M 12.312 65.24798200698531 L 12.312 61.59998200698531 L 13.379999999999999 61.59998200698531 L 13.379999999999999 65.24798200698531 Z M 13.883999999999999 64.8239820069853 L 13.883999999999999 64.0679820069853 C 13.961333333333332 64.0279820069853, 14.046666666666667 63.9959820069853, 14.139999999999999 63.97198200698531 C 14.233333333333333 63.94798200698531, 14.333333333333332 63.93598200698531, 14.44 63.935982006985306 C 14.805333333333333 63.93598200698531, 15.07933333333333 64.05131534031864, 15.261999999999999 64.2819820069853 C 15.444666666666667 64.51264867365197, 15.546666666666667 64.82664867365197, 15.568 65.22398200698531 C 15.578666666666667 65.3839820069853, 15.585333333333333 65.54264867365197, 15.588 65.69998200698531 C 15.590666666666666 65.85731534031865, 15.589333333333332 66.01064867365197, 15.584 66.1599820069853 C 15.578666666666665 66.30931534031863, 15.570666666666664 66.44931534031863, 15.559999999999999 66.5799820069853 C 15.514666666666667 67.07864867365197, 15.385333333333332 67.44398200698531, 15.171999999999999 67.67598200698531 C 14.958666666666666 67.9079820069853, 14.613333333333332 68.03864867365198, 14.136 68.0679820069853 L 14.136 67.17598200698531 C 14.245333333333333 67.14664867365198, 14.328 67.09398200698531, 14.383999999999999 67.0179820069853 C 14.44 66.9419820069853, 14.472 66.84264867365196, 14.479999999999999 66.7199820069853 C 14.503999999999998 66.42931534031864, 14.517999999999997 66.16798200698531, 14.521999999999998 65.93598200698531 C 14.526 65.70398200698531, 14.517333333333333 65.48264867365197, 14.495999999999999 65.27198200698531 C 14.48 65.11731534031864, 14.428666666666665 65.00198200698532, 14.341999999999999 64.92598200698531 C 14.255333333333333 64.8499820069853, 14.122666666666666 64.8119820069853, 13.943999999999999 64.8119820069853 C 13.933333333333332 64.8119820069853, 13.922666666666665 64.81331534031864, 13.911999999999999 64.81598200698531 C 13.901333333333334 64.81864867365198, 13.892 64.82131534031863, 13.883999999999999 64.8239820069853 Z M 13.883999999999999 62.5319820069853 L 13.883999999999999 61.59998200698531 L 15.472 61.59998200698531 L 15.472 62.5319820069853 Z M 16.18 66.58398200698531 C 16.174666666666667 66.41064867365198, 16.173333333333332 66.27131534031864, 16.176 66.1659820069853 C 16.178666666666665 66.06064867365197, 16.181333333333335 65.95864867365196, 16.183999999999997 65.8599820069853 L 17.264 65.8599820069853 C 17.256 65.93731534031863, 17.25 66.03331534031864, 17.246 66.1479820069853 C 17.241999999999997 66.26264867365197, 17.240666666666666 66.37331534031864, 17.241999999999997 66.47998200698531 C 17.243333333333332 66.58664867365198, 17.246666666666666 66.66664867365198, 17.252 66.7199820069853 C 17.262666666666668 66.83998200698531, 17.297333333333334 66.93798200698531, 17.355999999999998 67.0139820069853 C 17.414666666666665 67.08998200698531, 17.497333333333334 67.14398200698531, 17.604 67.17598200698531 L 17.604 68.0679820069853 C 17.110666666666663 68.03064867365197, 16.75333333333333 67.8959820069853, 16.532 67.66398200698531 C 16.310666666666666 67.43198200698531, 16.19333333333333 67.07198200698531, 16.18 66.58398200698531 Z M 16.279999999999998 65.24798200698531 L 16.279999999999998 61.59998200698531 L 17.348 61.59998200698531 L 17.348 65.24798200698531 Z M 17.852 64.8239820069853 L 17.852 64.0679820069853 C 17.929333333333332 64.0279820069853, 18.014666666666667 63.9959820069853, 18.107999999999997 63.97198200698531 C 18.20133333333333 63.94798200698531, 18.301333333333332 63.93598200698531, 18.407999999999998 63.935982006985306 C 18.773333333333333 63.93598200698531, 19.047333333333334 64.05131534031864, 19.23 64.2819820069853 C 19.412666666666667 64.51264867365197, 19.514666666666663 64.82664867365197, 19.535999999999998 65.22398200698531 C 19.546666666666667 65.3839820069853, 19.55333333333333 65.54264867365197, 19.555999999999997 65.69998200698531 C 19.558666666666664 65.85731534031865, 19.557333333333332 66.01064867365197, 19.552 66.1599820069853 C 19.546666666666667 66.30931534031863, 19.538666666666668 66.44931534031863, 19.528 66.5799820069853 C 19.482666666666667 67.07864867365197, 19.353333333333335 67.44398200698531, 19.14 67.67598200698531 C 18.926666666666666 67.9079820069853, 18.581333333333333 68.03864867365198, 18.104 68.0679820069853 L 18.104 67.17598200698531 C 18.21333333333333 67.14664867365198, 18.296 67.09398200698531, 18.352 67.0179820069853 C 18.408 66.9419820069853, 18.44 66.84264867365196, 18.448 66.7199820069853 C 18.471999999999998 66.42931534031864, 18.485999999999997 66.16798200698531, 18.49 65.93598200698531 C 18.494 65.70398200698531, 18.485333333333333 65.48264867365197, 18.464 65.27198200698531 C 18.447999999999997 65.11731534031864, 18.396666666666665 65.00198200698532, 18.31 64.92598200698531 C 18.223333333333333 64.8499820069853, 18.090666666666664 64.8119820069853, 17.912 64.8119820069853 C 17.901333333333334 64.8119820069853, 17.890666666666668 64.81331534031864, 17.88 64.81598200698531 C 17.86933333333333 64.81864867365198, 17.86 64.82131534031863, 17.852 64.8239820069853 Z M 17.852 62.5319820069853 L 17.852 61.59998200698531 L 19.439999999999998 61.59998200698531 L 19.439999999999998 62.5319820069853 Z M 21.944 67.9999820069853 L 21.944 61.59998200698531 L 23.003999999999998 61.59998200698531 L 23.003999999999998 67.9999820069853 Z " stroke="none" fill-rule="nonzero" fill="#000000" fill-opacity="1" transform="matrix(1,0,0,1,5.05,13.314)" id="text55 l" />
  <path d="M 0 62.098783806286804 L 10 62.098783806286804 L 10 63.598783806286804 L 0 63.598783806286804 Z " stroke="none" fill-rule="evenodd" fill="#000000" fill-opacity="1" transform="matrix(1,0,0,1,5.05,13.314)" id="mark56 l" />
  <path d="M 0 55.11558560558825 L 10 55.11558560558825 L 10 56.61558560558825 L 0 56.61558560558825 Z " stroke="none" fill-rule="evenodd" fill="#000000" fill-opacity="1" transform="matrix(1,0,0,1,5.05,13.314)" id="mark57 l" />
  <path d="M 0 48.1323874048897 L 10 48.1323874048897 L 10 49.6323874048897 L 0 49.6323874048897 Z " stroke="none" fill-rule="evenodd" fill="#000000" fill-opacity="1" transform="matrix(1,0,0,1,5.05,13.314)" id="mark58 l" />
  <path d="M 0 41.1491892041912 L 10 41.1491892041912 L 10 42.6491892041912 L 0 42.6491892041912 Z " stroke="none" fill-rule="evenodd" fill="#000000" fill-opacity="1" transform="matrix(1,0,0,1,5.05,13.314)" id="mark59 l" />
  <path d="M 0 34.16599100349265 L 25 34.16599100349265 L 25 35.66599100349265 L 0 35.66599100349265 Z " stroke="none" fill-rule="evenodd" fill="#000000" fill-opacity="1" transform="matrix(1,0,0,1,5.05,13.314)" id="mark60 l" />
  <path d="M 12.264 31.699991003492652 C 12.261333333333333 31.435991003492653, 12.258 31.15865767015932, 12.254 30.86799100349265 C 12.25 30.57732433682599, 12.248 30.27865767015932, 12.248 29.971991003492654 C 12.248 29.66532433682599, 12.249333333333333 29.35732433682599, 12.251999999999999 29.047991003492655 C 12.254666666666665 28.73865767015932, 12.258666666666667 28.43065767015932, 12.264 28.12399100349265 C 12.271999999999998 27.659991003492653, 12.397333333333332 27.307991003492653, 12.639999999999999 27.06799100349265 C 12.882666666666665 26.827991003492652, 13.215999999999998 26.689324336825987, 13.639999999999999 26.651991003492654 L 13.639999999999999 27.543991003492653 C 13.543999999999997 27.56799100349265, 13.470666666666665 27.611991003492655, 13.419999999999998 27.675991003492655 C 13.369333333333332 27.739991003492655, 13.343999999999998 27.825324336825986, 13.344 27.93199100349265 C 13.335999999999999 28.419991003492655, 13.330666666666666 28.886657670159323, 13.328 29.331991003492654 C 13.325333333333333 29.777324336825984, 13.323999999999998 30.21065767015932, 13.323999999999998 30.63199100349265 C 13.323999999999998 31.053324336825987, 13.328 31.467991003492653, 13.335999999999999 31.875991003492654 C 13.335999999999999 31.985324336825986, 13.363333333333333 32.07465767015932, 13.418 32.14399100349265 C 13.472666666666665 32.213324336825984, 13.549333333333333 32.26265767015932, 13.648 32.291991003492654 L 13.648 33.18399100349265 C 13.159999999999998 33.151991003492654, 12.809333333333331 33.01999100349265, 12.595999999999998 32.78799100349265 C 12.382666666666665 32.55599100349265, 12.271999999999998 32.19332433682598, 12.264 31.699991003492652 Z M 13.812 30.019991003492652 L 13.812 29.275991003492653 C 13.894666666666666 29.227991003492654, 13.987333333333332 29.19065767015932, 14.09 29.163991003492654 C 14.192666666666668 29.137324336825987, 14.301333333333332 29.123991003492655, 14.415999999999999 29.12399100349265 C 14.84 29.123991003492655, 15.134 29.22332433682599, 15.297999999999998 29.421991003492654 C 15.462 29.620657670159318, 15.547999999999998 29.95199100349265, 15.556 30.415991003492653 C 15.561333333333334 30.599991003492654, 15.564666666666666 30.755324336825986, 15.565999999999999 30.88199100349265 C 15.567333333333332 31.008657670159316, 15.567333333333332 31.133324336825986, 15.565999999999999 31.255991003492653 C 15.564666666666666 31.37865767015932, 15.559999999999999 31.52665767015932, 15.552 31.699991003492652 C 15.527999999999999 32.19065767015932, 15.408 32.55332433682598, 15.192 32.78799100349265 C 14.975999999999999 33.02265767015932, 14.628 33.15465767015932, 14.148 33.18399100349265 L 14.148 32.29999100349265 C 14.251999999999999 32.27065767015932, 14.331333333333333 32.22265767015932, 14.386 32.15599100349265 C 14.440666666666665 32.08932433682598, 14.469333333333333 32.002657670159316, 14.472 31.895991003492654 C 14.477333333333332 31.74132433682599, 14.481333333333332 31.602657670159324, 14.483999999999998 31.479991003492653 C 14.486666666666666 31.35732433682599, 14.489333333333335 31.239991003492655, 14.491999999999999 31.127991003492653 C 14.494666666666667 31.01599100349265, 14.495333333333333 30.90465767015932, 14.494 30.793991003492653 C 14.492666666666667 30.683324336825986, 14.489333333333333 30.56665767015932, 14.483999999999998 30.443991003492652 C 14.481333333333332 30.294657670159317, 14.429333333333332 30.18399100349265, 14.328 30.11199100349265 C 14.226666666666665 30.039991003492652, 14.094666666666665 30.00399100349265, 13.931999999999999 30.00399100349265 C 13.913333333333334 30.00399100349265, 13.894 30.004657670159318, 13.873999999999999 30.005991003492653 C 13.854 30.007324336825988, 13.833333333333332 30.011991003492653, 13.812 30.019991003492652 Z M 14.44 28.699991003492652 C 14.448 28.60665767015932, 14.452666666666666 28.52465767015932, 14.453999999999999 28.453991003492654 C 14.455333333333332 28.383324336825986, 14.454666666666665 28.307991003492653, 14.451999999999998 28.227991003492654 C 14.449333333333332 28.147991003492656, 14.445333333333334 28.049324336825986, 14.44 27.93199100349265 C 14.434666666666665 27.833324336825985, 14.407999999999998 27.749991003492653, 14.36 27.681991003492655 C 14.311999999999998 27.613991003492654, 14.238666666666665 27.56799100349265, 14.139999999999999 27.543991003492653 L 14.139999999999999 26.65599100349265 C 14.577333333333332 26.69599100349265, 14.911333333333332 26.840657670159317, 15.142 27.089991003492653 C 15.372666666666667 27.33932433682598, 15.495999999999999 27.666657670159317, 15.511999999999999 28.071991003492652 C 15.514666666666667 28.13865767015932, 15.516666666666666 28.20199100349265, 15.517999999999999 28.261991003492653 C 15.519333333333332 28.321991003492656, 15.519333333333332 28.385991003492656, 15.517999999999999 28.453991003492654 C 15.516666666666666 28.52199100349265, 15.514666666666667 28.603991003492652, 15.511999999999999 28.699991003492652 Z M 16.196 31.703991003492654 C 16.188000000000002 31.27465767015932, 16.182666666666666 30.857991003492653, 16.18 30.453991003492654 C 16.177333333333333 30.049991003492654, 16.177999999999997 29.65465767015932, 16.182 29.267991003492654 C 16.186 28.881324336825987, 16.190666666666665 28.499991003492653, 16.196 28.12399100349265 C 16.209333333333333 27.68399100349265, 16.334000000000003 27.338657670159318, 16.57 27.087991003492654 C 16.805999999999997 26.837324336825986, 17.142666666666663 26.691991003492653, 17.58 26.651991003492654 L 17.58 27.539991003492652 C 17.382666666666665 27.595991003492653, 17.281333333333333 27.725324336825985, 17.276 27.927991003492654 C 17.262666666666668 28.298657670159322, 17.253333333333334 28.64665767015932, 17.248 28.971991003492654 C 17.242666666666665 29.297324336825987, 17.24 29.613991003492654, 17.24 29.921991003492654 C 17.24 30.229991003492653, 17.242666666666665 30.544657670159317, 17.248 30.865991003492653 C 17.253333333333334 31.187324336825988, 17.262666666666668 31.53065767015932, 17.276 31.895991003492654 C 17.281333333333333 32.10399100349265, 17.382666666666665 32.23599100349265, 17.58 32.291991003492654 L 17.58 33.17999100349265 C 17.142666666666663 33.13999100349265, 16.805999999999997 32.99399100349265, 16.57 32.74199100349265 C 16.334000000000003 32.48999100349265, 16.209333333333333 32.14399100349265, 16.196 31.703991003492654 Z M 18.084 33.17999100349265 L 18.084 32.28799100349265 C 18.268 32.234657670159315, 18.366666666666667 32.11065767015932, 18.38 31.915991003492653 C 18.398666666666667 31.44932433682599, 18.410666666666668 31.00065767015932, 18.416 30.569991003492653 C 18.421333333333333 30.139324336825986, 18.421333333333333 29.70865767015932, 18.416 29.27799100349265 C 18.410666666666668 28.847324336825984, 18.398666666666667 28.39465767015932, 18.38 27.919991003492655 C 18.374666666666666 27.725324336825985, 18.276 27.59865767015932, 18.084 27.539991003492652 L 18.084 26.651991003492654 C 18.513333333333335 26.691991003492653, 18.846666666666668 26.837324336825986, 19.084 27.087991003492654 C 19.321333333333335 27.338657670159318, 19.445333333333334 27.68399100349265, 19.456 28.12399100349265 C 19.46666666666667 28.43865767015932, 19.474666666666668 28.748657670159318, 19.48 29.053991003492655 C 19.485333333333333 29.359324336825985, 19.488 29.659991003492653, 19.488 29.955991003492652 C 19.488 30.251991003492652, 19.485333333333333 30.545324336825985, 19.48 30.83599100349265 C 19.474666666666668 31.126657670159318, 19.46666666666667 31.41599100349265, 19.456 31.703991003492654 C 19.439999999999998 32.154657670159324, 19.311999999999998 32.50332433682599, 19.072 32.74999100349265 C 18.832 32.996657670159316, 18.502666666666666 33.13999100349265, 18.084 33.17999100349265 Z M 21.944 33.11599100349265 L 21.944 26.715991003492654 L 23.003999999999998 26.715991003492654 L 23.003999999999998 33.11599100349265 Z " stroke="none" fill-rule="nonzero" fill="#000000" fill-opacity="1" transform="matrix(1,0,0,1,5.05,13.314)" id="text60 l" />
  <path d="M 0 27.182792802794097 L 10 27.182792802794097 L 10 28.682792802794097 L 0 28.682792802794097 Z " stroke="none" fill-rule="evenodd" fill="#000000" fill-opacity="1" transform="matrix(1,0,0,1,5.05,13.314)" id="mark61 l" />
  <path d="M 0 20.1995946020956 L 10 20.1995946020956 L 10 21.6995946020956 L 0 21.6995946020956 Z " stroke="none" fill-rule="evenodd" fill="#000000" fill-opacity="1" transform="matrix(1,0,0,1,5.05,13.314)" id="mark62 l" />
  <path d="M 0 13.216396401397049 L 10 13.216396401397049 L 10 14.716396401397049 L 0 14.716396401397049 Z " stroke="none" fill-rule="evenodd" fill="#000000" fill-opacity="1" transform="matrix(1,0,0,1,5.05,13.314)" id="mark63 l" />
  <path d="M 0 6.233198200698496 L 10 6.233198200698496 L 10 7.733198200698496 L 0 7.733198200698496 Z " stroke="none" fill-rule="evenodd" fill="#000000" fill-opacity="1" transform="matrix(1,0,0,1,5.05,13.314)" id="mark64 l" />
  <path d="M 0 -0.75 L 25 -0.75 L 25 0.75 L 0 0.75 Z " stroke="none" fill-rule="evenodd" fill="#000000" fill-opacity="1" transform="matrix(1,0,0,1,5.05,13.314)" id="mark65 l" />
  <path d="M 12.272 -3.2159999999999997 C 12.269333333333332 -3.4799999999999995, 12.266 -3.7573333333333334, 12.262 -4.048 C 12.258000000000001 -4.338666666666667, 12.256 -4.637333333333333, 12.256 -4.944 C 12.256 -5.250666666666667, 12.257333333333335 -5.558666666666666, 12.26 -5.867999999999999 C 12.262666666666668 -6.1773333333333325, 12.266666666666666 -6.485333333333333, 12.272 -6.792 C 12.280000000000001 -7.256, 12.405333333333335 -7.6080000000000005, 12.648 -7.848 C 12.890666666666668 -8.088000000000001, 13.224 -8.226666666666667, 13.648 -8.264 L 13.648 -7.372 C 13.552 -7.347999999999999, 13.478666666666665 -7.303999999999999, 13.428 -7.239999999999999 C 13.377333333333333 -7.176, 13.352 -7.090666666666667, 13.352 -6.984 C 13.344 -6.496, 13.338666666666665 -6.029333333333334, 13.336 -5.584 C 13.333333333333332 -5.1386666666666665, 13.332 -4.705333333333334, 13.332 -4.284 C 13.332 -3.8626666666666667, 13.335999999999999 -3.4480000000000004, 13.344 -3.04 C 13.343999999999998 -2.9306666666666668, 13.371333333333332 -2.841333333333333, 13.426 -2.772 C 13.480666666666666 -2.7026666666666666, 13.557333333333332 -2.653333333333333, 13.656 -2.6239999999999997 L 13.656 -1.7319999999999998 C 13.168 -1.7639999999999998, 12.817333333333334 -1.896, 12.604 -2.1279999999999997 C 12.390666666666668 -2.36, 12.280000000000001 -2.7226666666666666, 12.272 -3.2159999999999997 Z M 13.82 -4.896 L 13.82 -5.64 C 13.902666666666665 -5.688, 13.995333333333331 -5.725333333333333, 14.097999999999999 -5.752 C 14.200666666666667 -5.778666666666666, 14.309333333333333 -5.792, 14.424 -5.792 C 14.848 -5.792, 15.142000000000001 -5.692666666666666, 15.306000000000001 -5.494 C 15.47 -5.295333333333334, 15.556000000000001 -4.964, 15.564 -4.5 C 15.569333333333333 -4.316000000000001, 15.572666666666667 -4.160666666666667, 15.574 -4.034 C 15.575333333333333 -3.907333333333333, 15.575333333333333 -3.7826666666666666, 15.574 -3.6599999999999997 C 15.572666666666667 -3.5373333333333337, 15.567999999999998 -3.389333333333333, 15.56 -3.2159999999999997 C 15.536000000000001 -2.7253333333333334, 15.416 -2.3626666666666667, 15.2 -2.1279999999999997 C 14.984 -1.893333333333333, 14.636 -1.7613333333333332, 14.156 -1.7319999999999998 L 14.156 -2.6159999999999997 C 14.259999999999998 -2.6453333333333333, 14.339333333333332 -2.6933333333333334, 14.394 -2.76 C 14.448666666666666 -2.826666666666666, 14.477333333333334 -2.913333333333333, 14.48 -3.0199999999999996 C 14.485333333333333 -3.174666666666666, 14.489333333333335 -3.313333333333333, 14.492 -3.436 C 14.494666666666667 -3.558666666666667, 14.497333333333334 -3.676, 14.5 -3.788 C 14.502666666666666 -3.9, 14.503333333333332 -4.011333333333333, 14.501999999999999 -4.122 C 14.500666666666666 -4.232666666666667, 14.497333333333334 -4.349333333333333, 14.492 -4.4719999999999995 C 14.489333333333335 -4.621333333333333, 14.437333333333335 -4.732, 14.336 -4.804 C 14.234666666666666 -4.876, 14.102666666666666 -4.912, 13.94 -4.912 C 13.921333333333333 -4.912, 13.902000000000001 -4.911333333333333, 13.882 -4.91 C 13.862000000000002 -4.908666666666667, 13.841333333333335 -4.904, 13.82 -4.896 Z M 14.448 -6.216 C 14.456 -6.309333333333333, 14.460666666666668 -6.391333333333333, 14.462 -6.462 C 14.463333333333335 -6.532666666666667, 14.462666666666667 -6.6080000000000005, 14.46 -6.688 C 14.457333333333333 -6.768000000000001, 14.453333333333333 -6.866666666666667, 14.448 -6.984 C 14.442666666666668 -7.082666666666666, 14.416 -7.165999999999999, 14.368 -7.233999999999999 C 14.32 -7.302, 14.246666666666666 -7.347999999999999, 14.148 -7.372 L 14.148 -8.26 C 14.585333333333335 -8.219999999999999, 14.919333333333334 -8.075333333333333, 15.15 -7.826 C 15.380666666666666 -7.576666666666666, 15.504000000000001 -7.2493333333333325, 15.52 -6.843999999999999 C 15.522666666666666 -6.777333333333333, 15.524666666666668 -6.7139999999999995, 15.526 -6.654 C 15.527333333333335 -6.594, 15.527333333333335 -6.53, 15.526 -6.462 C 15.524666666666668 -6.393999999999999, 15.522666666666666 -6.311999999999999, 15.52 -6.216 Z M 16.18 -3.2159999999999997 C 16.174666666666667 -3.389333333333333, 16.173333333333332 -3.528666666666667, 16.176 -3.634 C 16.178666666666665 -3.7393333333333336, 16.181333333333335 -3.841333333333333, 16.183999999999997 -3.94 L 17.264 -3.94 C 17.256 -3.8626666666666667, 17.25 -3.7666666666666666, 17.246 -3.6519999999999997 C 17.241999999999997 -3.5373333333333328, 17.240666666666666 -3.4266666666666667, 17.241999999999997 -3.32 C 17.243333333333332 -3.213333333333334, 17.246666666666666 -3.1333333333333337, 17.252 -3.08 C 17.262666666666668 -2.96, 17.297333333333334 -2.862, 17.355999999999998 -2.7859999999999996 C 17.414666666666665 -2.71, 17.497333333333334 -2.6559999999999997, 17.604 -2.6239999999999997 L 17.604 -1.7319999999999998 C 17.110666666666663 -1.7693333333333332, 16.75333333333333 -1.904, 16.532 -2.1359999999999997 C 16.310666666666666 -2.368, 16.19333333333333 -2.7279999999999998, 16.18 -3.2159999999999997 Z M 16.279999999999998 -4.552 L 16.279999999999998 -8.2 L 17.348 -8.2 L 17.348 -4.552 Z M 17.852 -4.976 L 17.852 -5.731999999999999 C 17.929333333333332 -5.771999999999999, 18.014666666666667 -5.804, 18.107999999999997 -5.828 C 18.20133333333333 -5.852, 18.301333333333332 -5.864, 18.407999999999998 -5.864 C 18.773333333333333 -5.864, 19.047333333333334 -5.748666666666667, 19.23 -5.518 C 19.412666666666667 -5.287333333333333, 19.514666666666663 -4.973333333333333, 19.535999999999998 -4.576 C 19.546666666666667 -4.416, 19.55333333333333 -4.257333333333333, 19.555999999999997 -4.1 C 19.558666666666664 -3.9426666666666668, 19.557333333333332 -3.7893333333333334, 19.552 -3.6399999999999997 C 19.546666666666667 -3.490666666666667, 19.538666666666668 -3.3506666666666667, 19.528 -3.2199999999999998 C 19.482666666666667 -2.721333333333333, 19.353333333333335 -2.356, 19.14 -2.1239999999999997 C 18.926666666666666 -1.892, 18.581333333333333 -1.7613333333333332, 18.104 -1.7319999999999998 L 18.104 -2.6239999999999997 C 18.21333333333333 -2.653333333333333, 18.296 -2.7059999999999995, 18.352 -2.782 C 18.408 -2.8579999999999997, 18.44 -2.957333333333333, 18.448 -3.08 C 18.471999999999998 -3.3706666666666667, 18.485999999999997 -3.6319999999999997, 18.49 -3.864 C 18.494 -4.096, 18.485333333333333 -4.317333333333333, 18.464 -4.5280000000000005 C 18.447999999999997 -4.682666666666667, 18.396666666666665 -4.798, 18.31 -4.874 C 18.223333333333333 -4.949999999999999, 18.090666666666664 -4.9879999999999995, 17.912 -4.9879999999999995 C 17.901333333333334 -4.9879999999999995, 17.890666666666668 -4.986666666666666, 17.88 -4.984 C 17.86933333333333 -4.981333333333334, 17.86 -4.978666666666667, 17.852 -4.976 Z M 17.852 -7.268 L 17.852 -8.2 L 19.439999999999998 -8.2 L 19.439999999999998 -7.268 Z M 21.944 -1.7999999999999998 L 21.944 -8.2 L 23.003999999999998 -8.2 L 23.003999999999998 -1.7999999999999998 Z " stroke="none" fill-rule="nonzero" fill="#000000" fill-opacity="1" transform="matrix(1,0,0,1,5.05,13.314)" id="text65 l" />
  <path d="M -5 -13.264 L 30 -13.264 L 30 453.692684844706 L -5 453.692684844706 Z " stroke="#FF0000" stroke-opacity="1" stroke-width="0.1" stroke-linecap="butt" stroke-linejoin="miter" fill="none" transform="matrix(1,0,0,1,5.05,13.314)" />
</svg>