<?xml version="1.0" encoding="UTF-8"?>
<svg xmlns:xlink="http://www.w3.org/1999/xlink" viewBox="0 0 35.1 330.48413902919594" version="1.1" style="font-synthesis: none;" width="35.1mm" height="330.48413902919594mm" xmlns="http://www.w3.org/2000/svg">
  <defs />
  <style>	</style>
  <path d="M 0 0 L 35.1 0 L 35.1 330.48413902919594 L 0 330.48413902919594 Z " stroke="none" fill-rule="nonzero" fill="#FFFFFF" fill-opacity="1" transform="matrix(1,0,0,1,0,0)" />
  <path d="M 0 309.60213902919594 L 10 309.60213902919594 L 10 311.10213902919594 L 0 311.10213902919594 Z " stroke="none" fill-rule="evenodd" fill="#000000" fill-opacity="1" transform="matrix(1,0,0,1,5.05,13.314)" id="mark1 l" />
  <path d="M 0 301.6443918746012 L 10 301.6443918746012 L 10 303.1443918746012 L 0 303.1443918746012 Z " stroke="none" fill-rule="evenodd" fill="#000000" fill-opacity="1" transform="matrix(1,0,0,1,5.05,13.314)" id="mark2 l" />
  <path d="M 0 293.68664472000637 L 10 293.68664472000637 L 10 295.18664472000637 L 0 295.18664472000637 Z " stroke="none" fill-rule="evenodd" fill="#000000" fill-opacity="1" transform="matrix(1,0,0,1,5.05,13.314)" id="mark3 l" />
  <path d="M 0 285.7288975654116 L 10 285.7288975654116 L 10 287.2288975654116 L 0 287.2288975654116 Z " stroke="none" fill-rule="evenodd" fill="#000000" fill-opacity="1" transform="matrix(1,0,0,1,5.05,13.314)" id="mark4 l" />
  <path d="M 0 277.77115041081686 L 25 277.77115041081686 L 25 279.27115041081686 L 0 279.27115041081686 Z " stroke="none" fill-rule="evenodd" fill="#000000" fill-opacity="1" transform="matrix(1,0,0,1,5.05,13.314)" id="mark5 l" />
  <path d="M 16.18 275.27315041081687 C 16.174666666666667 275.0998170774835, 16.173333333333332 274.9604837441502, 16.176 274.85515041081686 C 16.178666666666665 274.7498170774835, 16.181333333333335 274.6478170774835, 16.183999999999997 274.5491504108169 L 17.264 274.5491504108169 C 17.256 274.6264837441502, 17.25 274.7224837441502, 17.246 274.8371504108169 C 17.241999999999997 274.95181707748355, 17.240666666666666 275.0624837441502, 17.241999999999997 275.1691504108169 C 17.243333333333332 275.2758170774835, 17.246666666666666 275.3558170774835, 17.252 275.4091504108169 C 17.262666666666668 275.5291504108169, 17.297333333333334 275.62715041081685, 17.355999999999998 275.7031504108169 C 17.414666666666665 275.77915041081684, 17.497333333333334 275.83315041081687, 17.604 275.86515041081685 L 17.604 276.75715041081685 C 17.110666666666663 276.7198170774835, 16.75333333333333 276.5851504108168, 16.532 276.35315041081685 C 16.310666666666666 276.1211504108169, 16.19333333333333 275.76115041081687, 16.18 275.27315041081687 Z M 16.279999999999998 273.93715041081686 L 16.279999999999998 270.2891504108169 L 17.348 270.2891504108169 L 17.348 273.93715041081686 Z M 17.852 273.5131504108169 L 17.852 272.75715041081685 C 17.929333333333332 272.7171504108169, 18.014666666666667 272.68515041081685, 18.107999999999997 272.66115041081684 C 18.20133333333333 272.63715041081684, 18.301333333333332 272.62515041081684, 18.407999999999998 272.62515041081684 C 18.773333333333333 272.62515041081684, 19.047333333333334 272.7404837441502, 19.23 272.97115041081685 C 19.412666666666667 273.2018170774835, 19.514666666666663 273.5158170774835, 19.535999999999998 273.91315041081685 C 19.546666666666667 274.0731504108169, 19.55333333333333 274.2318170774835, 19.555999999999997 274.38915041081685 C 19.558666666666664 274.5464837441502, 19.557333333333332 274.69981707748354, 19.552 274.8491504108169 C 19.546666666666667 274.99848374415023, 19.538666666666668 275.1384837441502, 19.528 275.26915041081685 C 19.482666666666667 275.7678170774835, 19.353333333333335 276.1331504108168, 19.14 276.36515041081685 C 18.926666666666666 276.5971504108169, 18.581333333333333 276.7278170774835, 18.104 276.75715041081685 L 18.104 275.86515041081685 C 18.21333333333333 275.8358170774835, 18.296 275.78315041081686, 18.352 275.70715041081684 C 18.408 275.6311504108169, 18.44 275.53181707748354, 18.448 275.4091504108169 C 18.471999999999998 275.11848374415024, 18.485999999999997 274.85715041081687, 18.49 274.62515041081684 C 18.494 274.3931504108169, 18.485333333333333 274.1718170774835, 18.464 273.96115041081686 C 18.447999999999997 273.8064837441502, 18.396666666666665 273.6911504108169, 18.31 273.61515041081685 C 18.223333333333333 273.5391504108169, 18.090666666666664 273.5011504108169, 17.912 273.5011504108169 C 17.901333333333334 273.5011504108169, 17.890666666666668 273.5024837441502, 17.88 273.50515041081684 C 17.86933333333333 273.50781707748354, 17.86 273.5104837441502, 17.852 273.5131504108169 Z M 17.852 271.22115041081685 L 17.852 270.2891504108169 L 19.439999999999998 270.2891504108169 L 19.439999999999998 271.22115041081685 Z M 21.944 276.68915041081686 L 21.944 270.2891504108169 L 23.003999999999998 270.2891504108169 L 23.003999999999998 276.68915041081686 Z " stroke="none" fill-rule="nonzero" fill="#000000" fill-opacity="1" transform="matrix(1,0,0,1,5.05,13.314)" id="text5 l" />
  <path d="M 0 269.8134032562221 L 10 269.8134032562221 L 10 271.3134032562221 L 0 271.3134032562221 Z " stroke="none" fill-rule="evenodd" fill="#000000" fill-opacity="1" transform="matrix(1,0,0,1,5.05,13.314)" id="mark6 l" />
  <path d="M 0 261.85565610162735 L 10 261.85565610162735 L 10 263.35565610162735 L 0 263.35565610162735 Z " stroke="none" fill-rule="evenodd" fill="#000000" fill-opacity="1" transform="matrix(1,0,0,1,5.05,13.314)" id="mark7 l" />
  <path d="M 0 253.89790894703256 L 10 253.89790894703256 L 10 255.39790894703256 L 0 255.39790894703256 Z " stroke="none" fill-rule="evenodd" fill="#000000" fill-opacity="1" transform="matrix(1,0,0,1,5.05,13.314)" id="mark8 l" />
  <path d="M 0 245.94016179243778 L 10 245.94016179243778 L 10 247.44016179243778 L 0 247.44016179243778 Z " stroke="none" fill-rule="evenodd" fill="#000000" fill-opacity="1" transform="matrix(1,0,0,1,5.05,13.314)" id="mark9 l" />
  <path d="M 0 237.98241463784302 L 25 237.98241463784302 L 25 239.48241463784302 L 0 239.48241463784302 Z " stroke="none" fill-rule="evenodd" fill="#000000" fill-opacity="1" transform="matrix(1,0,0,1,5.05,13.314)" id="mark10 l" />
  <path d="M 14.323999999999998 236.93241463784304 L 14.323999999999998 231.48841463784305 L 13.871999999999998 231.48841463784305 L 13.839999999999998 231.10841463784303 L 14.543999999999999 230.53241463784303 L 15.424 230.53241463784303 L 15.424 236.93241463784304 Z M 16.196 235.52041463784303 C 16.188000000000002 235.09108130450971, 16.182666666666666 234.67441463784303, 16.18 234.27041463784303 C 16.177333333333333 233.86641463784304, 16.177999999999997 233.4710813045097, 16.182 233.08441463784303 C 16.186 232.69774797117637, 16.190666666666665 232.31641463784302, 16.196 231.94041463784305 C 16.209333333333333 231.50041463784305, 16.334000000000003 231.1550813045097, 16.57 230.90441463784305 C 16.805999999999997 230.6537479711764, 17.142666666666663 230.50841463784303, 17.58 230.46841463784304 L 17.58 231.35641463784305 C 17.382666666666665 231.41241463784306, 17.281333333333333 231.5417479711764, 17.276 231.74441463784305 C 17.262666666666668 232.11508130450972, 17.253333333333334 232.46308130450973, 17.248 232.78841463784303 C 17.242666666666665 233.1137479711764, 17.24 233.43041463784306, 17.24 233.73841463784305 C 17.24 234.04641463784304, 17.242666666666665 234.3610813045097, 17.248 234.68241463784304 C 17.253333333333334 235.00374797117638, 17.262666666666668 235.34708130450971, 17.276 235.71241463784304 C 17.281333333333333 235.92041463784304, 17.382666666666665 236.05241463784301, 17.58 236.10841463784303 L 17.58 236.99641463784303 C 17.142666666666663 236.95641463784304, 16.805999999999997 236.81041463784305, 16.57 236.55841463784304 C 16.334000000000003 236.30641463784303, 16.209333333333333 235.96041463784303, 16.196 235.52041463784303 Z M 18.084 236.99641463784303 L 18.084 236.10441463784304 C 18.268 236.0510813045097, 18.366666666666667 235.92708130450973, 18.38 235.73241463784305 C 18.398666666666667 235.26574797117638, 18.410666666666668 234.8170813045097, 18.416 234.38641463784305 C 18.421333333333333 233.95574797117638, 18.421333333333333 233.52508130450968, 18.416 233.09441463784304 C 18.410666666666668 232.66374797117635, 18.398666666666667 232.2110813045097, 18.38 231.73641463784304 C 18.374666666666666 231.54174797117636, 18.276 231.4150813045097, 18.084 231.35641463784305 L 18.084 230.46841463784304 C 18.513333333333335 230.50841463784303, 18.846666666666668 230.6537479711764, 19.084 230.90441463784305 C 19.321333333333335 231.1550813045097, 19.445333333333334 231.50041463784305, 19.456 231.94041463784305 C 19.46666666666667 232.2550813045097, 19.474666666666668 232.5650813045097, 19.48 232.87041463784303 C 19.485333333333333 233.17574797117635, 19.488 233.47641463784305, 19.488 233.77241463784304 C 19.488 234.06841463784303, 19.485333333333333 234.36174797117638, 19.48 234.65241463784304 C 19.474666666666668 234.9430813045097, 19.46666666666667 235.23241463784302, 19.456 235.52041463784303 C 19.439999999999998 235.9710813045097, 19.311999999999998 236.31974797117635, 19.072 236.56641463784302 C 18.832 236.8130813045097, 18.502666666666666 236.95641463784304, 18.084 236.99641463784303 Z M 21.944 236.93241463784304 L 21.944 230.53241463784303 L 23.003999999999998 230.53241463784303 L 23.003999999999998 236.93241463784304 Z " stroke="none" fill-rule="nonzero" fill="#000000" fill-opacity="1" transform="matrix(1,0,0,1,5.05,13.314)" id="text10 l" />
  <path d="M 0 230.02466748324827 L 10 230.02466748324827 L 10 231.52466748324827 L 0 231.52466748324827 Z " stroke="none" fill-rule="evenodd" fill="#000000" fill-opacity="1" transform="matrix(1,0,0,1,5.05,13.314)" id="mark11 l" />
  <path d="M 0 222.0669203286535 L 10 222.0669203286535 L 10 223.5669203286535 L 0 223.5669203286535 Z " stroke="none" fill-rule="evenodd" fill="#000000" fill-opacity="1" transform="matrix(1,0,0,1,5.05,13.314)" id="mark12 l" />
  <path d="M 0 214.10917317405872 L 10 214.10917317405872 L 10 215.60917317405872 L 0 215.60917317405872 Z " stroke="none" fill-rule="evenodd" fill="#000000" fill-opacity="1" transform="matrix(1,0,0,1,5.05,13.314)" id="mark13 l" />
  <path d="M 0 206.15142601946394 L 10 206.15142601946394 L 10 207.65142601946394 L 0 207.65142601946394 Z " stroke="none" fill-rule="evenodd" fill="#000000" fill-opacity="1" transform="matrix(1,0,0,1,5.05,13.314)" id="mark14 l" />
  <path d="M 0 198.19367886486918 L 25 198.19367886486918 L 25 199.69367886486918 L 0 199.69367886486918 Z " stroke="none" fill-rule="evenodd" fill="#000000" fill-opacity="1" transform="matrix(1,0,0,1,5.05,13.314)" id="mark15 l" />
  <path d="M 14.331999999999999 197.1116788648692 L 14.331999999999999 191.6676788648692 L 13.879999999999999 191.6676788648692 L 13.847999999999999 191.28767886486918 L 14.552 190.71167886486919 L 15.432 190.71167886486919 L 15.432 197.1116788648692 Z M 16.18 195.6956788648692 C 16.174666666666667 195.52234553153585, 16.173333333333332 195.38301219820255, 16.176 195.2776788648692 C 16.178666666666665 195.17234553153588, 16.181333333333335 195.07034553153585, 16.183999999999997 194.9716788648692 L 17.264 194.9716788648692 C 17.256 195.04901219820255, 17.25 195.14501219820255, 17.246 195.2596788648692 C 17.241999999999997 195.37434553153588, 17.240666666666666 195.48501219820253, 17.241999999999997 195.59167886486918 C 17.243333333333332 195.69834553153584, 17.246666666666666 195.77834553153582, 17.252 195.8316788648692 C 17.262666666666668 195.95167886486917, 17.297333333333334 196.04967886486918, 17.355999999999998 196.1256788648692 C 17.414666666666665 196.20167886486917, 17.497333333333334 196.25567886486917, 17.604 196.28767886486918 L 17.604 197.1796788648692 C 17.110666666666663 197.14234553153585, 16.75333333333333 197.00767886486918, 16.532 196.77567886486918 C 16.310666666666666 196.54367886486918, 16.19333333333333 196.1836788648692, 16.18 195.6956788648692 Z M 16.279999999999998 194.35967886486918 L 16.279999999999998 190.71167886486919 L 17.348 190.71167886486919 L 17.348 194.35967886486918 Z M 17.852 193.9356788648692 L 17.852 193.1796788648692 C 17.929333333333332 193.1396788648692, 18.014666666666667 193.10767886486917, 18.107999999999997 193.0836788648692 C 18.20133333333333 193.05967886486917, 18.301333333333332 193.04767886486917, 18.407999999999998 193.0476788648692 C 18.773333333333333 193.04767886486917, 19.047333333333334 193.16301219820252, 19.23 193.3936788648692 C 19.412666666666667 193.62434553153585, 19.514666666666663 193.93834553153584, 19.535999999999998 194.33567886486918 C 19.546666666666667 194.49567886486918, 19.55333333333333 194.65434553153585, 19.555999999999997 194.81167886486918 C 19.558666666666664 194.9690121982025, 19.557333333333332 195.12234553153587, 19.552 195.2716788648692 C 19.546666666666667 195.4210121982025, 19.538666666666668 195.56101219820255, 19.528 195.6916788648692 C 19.482666666666667 196.19034553153585, 19.353333333333335 196.5556788648692, 19.14 196.78767886486918 C 18.926666666666666 197.0196788648692, 18.581333333333333 197.15034553153586, 18.104 197.1796788648692 L 18.104 196.28767886486918 C 18.21333333333333 196.25834553153587, 18.296 196.20567886486918, 18.352 196.1296788648692 C 18.408 196.0536788648692, 18.44 195.95434553153586, 18.448 195.8316788648692 C 18.471999999999998 195.5410121982025, 18.485999999999997 195.2796788648692, 18.49 195.0476788648692 C 18.494 194.8156788648692, 18.485333333333333 194.59434553153585, 18.464 194.38367886486918 C 18.447999999999997 194.2290121982025, 18.396666666666665 194.11367886486917, 18.31 194.03767886486918 C 18.223333333333333 193.96167886486919, 18.090666666666664 193.9236788648692, 17.912 193.9236788648692 C 17.901333333333334 193.9236788648692, 17.890666666666668 193.92501219820252, 17.88 193.9276788648692 C 17.86933333333333 193.93034553153586, 17.86 193.93301219820253, 17.852 193.9356788648692 Z M 17.852 191.6436788648692 L 17.852 190.71167886486919 L 19.439999999999998 190.71167886486919 L 19.439999999999998 191.6436788648692 Z M 21.944 197.1116788648692 L 21.944 190.71167886486919 L 23.003999999999998 190.71167886486919 L 23.003999999999998 197.1116788648692 Z " stroke="none" fill-rule="nonzero" fill="#000000" fill-opacity="1" transform="matrix(1,0,0,1,5.05,13.314)" id="text15 l" />
  <path d="M 0 190.23593171027443 L 10 190.23593171027443 L 10 191.73593171027443 L 0 191.73593171027443 Z " stroke="none" fill-rule="evenodd" fill="#000000" fill-opacity="1" transform="matrix(1,0,0,1,5.05,13.314)" id="mark16 l" />
  <path d="M 0 182.27818455567964 L 10 182.27818455567964 L 10 183.77818455567964 L 0 183.77818455567964 Z " stroke="none" fill-rule="evenodd" fill="#000000" fill-opacity="1" transform="matrix(1,0,0,1,5.05,13.314)" id="mark17 l" />
  <path d="M 0 174.3204374010849 L 10 174.3204374010849 L 10 175.8204374010849 L 0 175.8204374010849 Z " stroke="none" fill-rule="evenodd" fill="#000000" fill-opacity="1" transform="matrix(1,0,0,1,5.05,13.314)" id="mark18 l" />
  <path d="M 0 166.36269024649013 L 10 166.36269024649013 L 10 167.86269024649013 L 0 167.86269024649013 Z " stroke="none" fill-rule="evenodd" fill="#000000" fill-opacity="1" transform="matrix(1,0,0,1,5.05,13.314)" id="mark19 l" />
  <path d="M 0 158.40494309189535 L 25 158.40494309189535 L 25 159.90494309189535 L 0 159.90494309189535 Z " stroke="none" fill-rule="evenodd" fill="#000000" fill-opacity="1" transform="matrix(1,0,0,1,5.05,13.314)" id="mark20 l" />
  <path d="M 12.319999999999999 157.35494309189536 C 12.317333333333334 157.2562764252287, 12.315333333333331 157.16760975856204, 12.313999999999998 157.08894309189537 C 12.312666666666665 157.0102764252287, 12.311333333333334 156.9362764252287, 12.309999999999999 156.86694309189537 C 12.308666666666667 156.79760975856203, 12.308 156.72560975856203, 12.308 156.65094309189536 C 12.308 156.57627642522868, 12.308 156.49160975856205, 12.308 156.39694309189537 C 12.308 156.30227642522868, 12.309333333333335 156.19094309189535, 12.312 156.06294309189536 C 12.32 155.769609758562, 12.37 155.507609758562, 12.462 155.27694309189536 C 12.554 155.0462764252287, 12.687999999999999 154.8402764252287, 12.863999999999999 154.65894309189537 C 13.04 154.47760975856204, 13.257333333333333 154.3162764252287, 13.515999999999998 154.17494309189536 L 14.047999999999998 153.88694309189538 C 14.234666666666666 153.78560975856203, 14.354 153.66360975856202, 14.405999999999999 153.52094309189536 C 14.457999999999998 153.3782764252287, 14.488 153.2442764252287, 14.495999999999999 153.11894309189537 C 14.506666666666664 152.9722764252287, 14.512666666666664 152.81560975856203, 14.514 152.64894309189538 C 14.51533333333333 152.48227642522872, 14.511999999999997 152.32560975856205, 14.504 152.17894309189538 C 14.498666666666665 152.07494309189536, 14.468666666666666 151.98894309189538, 14.413999999999998 151.92094309189537 C 14.359333333333332 151.85294309189536, 14.279999999999998 151.8042764252287, 14.175999999999998 151.77494309189535 L 14.175999999999998 150.88694309189538 C 14.663999999999998 150.9189430918954, 15.014 151.0502764252287, 15.225999999999999 151.28094309189535 C 15.437999999999999 151.51160975856203, 15.554666666666666 151.8722764252287, 15.575999999999999 152.36294309189537 C 15.578666666666663 152.42694309189537, 15.580666666666666 152.4922764252287, 15.581999999999999 152.55894309189537 C 15.583333333333332 152.62560975856204, 15.584 152.6902764252287, 15.584 152.75294309189536 C 15.584 152.81560975856203, 15.583333333333332 152.87760975856202, 15.581999999999999 152.93894309189537 C 15.580666666666666 153.0002764252287, 15.578666666666663 153.0602764252287, 15.575999999999999 153.11894309189537 C 15.565333333333331 153.40427642522872, 15.512 153.65094309189539, 15.415999999999999 153.85894309189536 C 15.32 154.06694309189538, 15.19 154.2469430918954, 15.026 154.39894309189538 C 14.862 154.55094309189536, 14.672 154.68694309189536, 14.456 154.80694309189536 L 13.851999999999999 155.13494309189537 C 13.737333333333332 155.1962764252287, 13.647333333333332 155.2802764252287, 13.581999999999999 155.38694309189538 C 13.516666666666666 155.49360975856203, 13.469999999999999 155.60694309189537, 13.441999999999998 155.72694309189535 C 13.413999999999998 155.84694309189535, 13.399999999999999 155.95894309189538, 13.399999999999999 156.06294309189536 L 13.399999999999999 157.35494309189536 Z M 12.328 153.31494309189537 C 12.322666666666667 153.197609758562, 12.318666666666665 153.08294309189534, 12.315999999999999 152.97094309189538 C 12.313333333333333 152.85894309189536, 12.311333333333334 152.75294309189536, 12.309999999999999 152.65294309189537 C 12.308666666666667 152.55294309189537, 12.309333333333335 152.4562764252287, 12.312 152.36294309189537 C 12.330666666666666 151.87494309189537, 12.447333333333333 151.51560975856205, 12.661999999999999 151.28494309189537 C 12.876666666666665 151.0542764252287, 13.213333333333331 150.92160975856203, 13.671999999999999 150.88694309189538 L 13.671999999999999 151.77894309189537 C 13.576 151.8082764252287, 13.505333333333333 151.85494309189536, 13.459999999999999 151.91894309189536 C 13.414666666666665 151.98294309189535, 13.390666666666664 152.0602764252287, 13.387999999999998 152.15094309189536 C 13.382666666666665 152.35894309189536, 13.379333333333333 152.5522764252287, 13.378 152.73094309189537 C 13.376666666666667 152.90960975856203, 13.381333333333334 153.1042764252287, 13.392 153.31494309189537 Z M 13.904 157.35494309189536 L 13.904 156.42294309189538 L 15.5 156.42294309189538 L 15.5 157.35494309189536 Z M 16.196 155.94294309189536 C 16.188000000000002 155.513609758562, 16.182666666666666 155.09694309189535, 16.18 154.69294309189536 C 16.177333333333333 154.28894309189536, 16.177999999999997 153.89360975856204, 16.182 153.50694309189535 C 16.186 153.1202764252287, 16.190666666666665 152.73894309189538, 16.196 152.36294309189537 C 16.209333333333333 151.92294309189538, 16.334000000000003 151.57760975856206, 16.57 151.32694309189537 C 16.805999999999997 151.07627642522868, 17.142666666666663 150.93094309189536, 17.58 150.89094309189537 L 17.58 151.77894309189537 C 17.382666666666665 151.83494309189535, 17.281333333333333 151.96427642522872, 17.276 152.16694309189538 C 17.262666666666668 152.53760975856204, 17.253333333333334 152.88560975856203, 17.248 153.21094309189536 C 17.242666666666665 153.5362764252287, 17.24 153.85294309189536, 17.24 154.16094309189538 C 17.24 154.46894309189537, 17.242666666666665 154.78360975856202, 17.248 155.10494309189536 C 17.253333333333334 155.4262764252287, 17.262666666666668 155.769609758562, 17.276 156.13494309189537 C 17.281333333333333 156.3429430918954, 17.382666666666665 156.47494309189537, 17.58 156.53094309189535 L 17.58 157.41894309189536 C 17.142666666666663 157.37894309189534, 16.805999999999997 157.23294309189535, 16.57 156.98094309189537 C 16.334000000000003 156.72894309189536, 16.209333333333333 156.38294309189536, 16.196 155.94294309189536 Z M 18.084 157.41894309189536 L 18.084 156.52694309189536 C 18.268 156.47360975856205, 18.366666666666667 156.34960975856205, 18.38 156.15494309189538 C 18.398666666666667 155.6882764252287, 18.410666666666668 155.23960975856204, 18.416 154.80894309189537 C 18.421333333333333 154.3782764252287, 18.421333333333333 153.94760975856204, 18.416 153.51694309189537 C 18.410666666666668 153.0862764252287, 18.398666666666667 152.63360975856205, 18.38 152.15894309189537 C 18.374666666666666 151.96427642522872, 18.276 151.83760975856205, 18.084 151.77894309189537 L 18.084 150.89094309189537 C 18.513333333333335 150.93094309189536, 18.846666666666668 151.07627642522868, 19.084 151.32694309189537 C 19.321333333333335 151.57760975856206, 19.445333333333334 151.92294309189538, 19.456 152.36294309189537 C 19.46666666666667 152.67760975856203, 19.474666666666668 152.98760975856203, 19.48 153.29294309189535 C 19.485333333333333 153.59827642522868, 19.488 153.89894309189535, 19.488 154.19494309189537 C 19.488 154.49094309189536, 19.485333333333333 154.78427642522868, 19.48 155.07494309189536 C 19.474666666666668 155.36560975856204, 19.46666666666667 155.65494309189538, 19.456 155.94294309189536 C 19.439999999999998 156.39360975856204, 19.311999999999998 156.7422764252287, 19.072 156.98894309189535 C 18.832 157.23560975856202, 18.502666666666666 157.37894309189534, 18.084 157.41894309189536 Z M 21.944 157.35494309189536 L 21.944 150.95494309189536 L 23.003999999999998 150.95494309189536 L 23.003999999999998 157.35494309189536 Z " stroke="none" fill-rule="nonzero" fill="#000000" fill-opacity="1" transform="matrix(1,0,0,1,5.05,13.314)" id="text20 l" />
  <path d="M 0 150.4471959373006 L 10 150.4471959373006 L 10 151.9471959373006 L 0 151.9471959373006 Z " stroke="none" fill-rule="evenodd" fill="#000000" fill-opacity="1" transform="matrix(1,0,0,1,5.05,13.314)" id="mark21 l" />
  <path d="M 0 142.48944878270584 L 10 142.48944878270584 L 10 143.98944878270584 L 0 143.98944878270584 Z " stroke="none" fill-rule="evenodd" fill="#000000" fill-opacity="1" transform="matrix(1,0,0,1,5.05,13.314)" id="mark22 l" />
  <path d="M 0 134.53170162811105 L 10 134.53170162811105 L 10 136.03170162811105 L 0 136.03170162811105 Z " stroke="none" fill-rule="evenodd" fill="#000000" fill-opacity="1" transform="matrix(1,0,0,1,5.05,13.314)" id="mark23 l" />
  <path d="M 0 126.5739544735163 L 10 126.5739544735163 L 10 128.0739544735163 L 0 128.0739544735163 Z " stroke="none" fill-rule="evenodd" fill="#000000" fill-opacity="1" transform="matrix(1,0,0,1,5.05,13.314)" id="mark24 l" />
  <path d="M 0 118.61620731892151 L 25 118.61620731892151 L 25 120.11620731892151 L 0 120.11620731892151 Z " stroke="none" fill-rule="evenodd" fill="#000000" fill-opacity="1" transform="matrix(1,0,0,1,5.05,13.314)" id="mark25 l" />
  <path d="M 12.328 117.56620731892151 C 12.325333333333333 117.46754065225485, 12.323333333333332 117.37887398558817, 12.322 117.30020731892151 C 12.320666666666666 117.22154065225484, 12.319333333333333 117.14754065225483, 12.318 117.07820731892151 C 12.316666666666666 117.00887398558817, 12.315999999999999 116.93687398558818, 12.316 116.86220731892152 C 12.315999999999999 116.78754065225485, 12.315999999999999 116.70287398558818, 12.316 116.60820731892152 C 12.315999999999999 116.51354065225485, 12.317333333333334 116.40220731892151, 12.32 116.27420731892151 C 12.328 115.98087398558818, 12.378 115.71887398558817, 12.47 115.48820731892151 C 12.562000000000001 115.25754065225485, 12.696 115.05154065225484, 12.872 114.87020731892152 C 13.048 114.68887398558817, 13.265333333333334 114.52754065225483, 13.524000000000001 114.3862073189215 L 14.056000000000001 114.09820731892151 C 14.242666666666668 113.99687398558818, 14.362000000000002 113.87487398558818, 14.414 113.73220731892151 C 14.466000000000001 113.58954065225484, 14.495999999999999 113.45554065225484, 14.504 113.33020731892151 C 14.514666666666667 113.18354065225485, 14.520666666666667 113.02687398558818, 14.522 112.86020731892151 C 14.523333333333333 112.69354065225484, 14.520000000000001 112.53687398558817, 14.512 112.39020731892151 C 14.506666666666666 112.28620731892151, 14.476666666666667 112.20020731892151, 14.422 112.13220731892152 C 14.367333333333335 112.06420731892152, 14.288 112.01554065225486, 14.184000000000001 111.98620731892152 L 14.184000000000001 111.09820731892151 C 14.672 111.1302073189215, 15.022000000000002 111.26154065225484, 15.234 111.49220731892152 C 15.446000000000002 111.7228739855882, 15.562666666666667 112.08354065225484, 15.584 112.57420731892151 C 15.586666666666668 112.6382073189215, 15.588666666666668 112.70354065225484, 15.59 112.7702073189215 C 15.591333333333335 112.83687398558818, 15.592000000000002 112.90154065225485, 15.592 112.96420731892151 C 15.592000000000002 113.02687398558818, 15.591333333333335 113.08887398558818, 15.59 113.15020731892152 C 15.588666666666668 113.21154065225485, 15.586666666666668 113.27154065225484, 15.584 113.33020731892151 C 15.573333333333332 113.61554065225484, 15.52 113.8622073189215, 15.424 114.07020731892152 C 15.328 114.27820731892152, 15.197999999999999 114.45820731892152, 15.033999999999999 114.61020731892151 C 14.87 114.76220731892153, 14.68 114.89820731892152, 14.464 115.01820731892151 L 13.86 115.34620731892151 C 13.745333333333335 115.40754065225485, 13.655333333333335 115.49154065225484, 13.59 115.59820731892151 C 13.524666666666668 115.70487398558818, 13.478000000000002 115.81820731892151, 13.45 115.93820731892151 C 13.422 116.05820731892152, 13.408 116.17020731892151, 13.408 116.27420731892151 L 13.408 117.56620731892151 Z M 12.336 113.52620731892151 C 12.330666666666666 113.40887398558817, 12.326666666666664 113.29420731892151, 12.324 113.18220731892151 C 12.321333333333332 113.07020731892152, 12.319333333333333 112.96420731892151, 12.318 112.86420731892152 C 12.316666666666666 112.7642073189215, 12.317333333333334 112.66754065225484, 12.32 112.57420731892151 C 12.338666666666668 112.08620731892151, 12.455333333333336 111.72687398558817, 12.67 111.4962073189215 C 12.884666666666668 111.26554065225484, 13.221333333333334 111.13287398558818, 13.68 111.09820731892151 L 13.68 111.99020731892152 C 13.584 112.01954065225485, 13.513333333333332 112.06620731892153, 13.468 112.13020731892152 C 13.422666666666668 112.19420731892151, 13.398666666666667 112.27154065225484, 13.396 112.36220731892152 C 13.390666666666666 112.57020731892152, 13.387333333333332 112.76354065225485, 13.386 112.94220731892152 C 13.384666666666666 113.12087398558819, 13.389333333333333 113.31554065225484, 13.4 113.52620731892151 Z M 13.911999999999999 117.56620731892151 L 13.911999999999999 116.63420731892151 L 15.508 116.63420731892151 L 15.508 117.56620731892151 Z M 16.18 116.15020731892152 C 16.174666666666667 115.97687398558818, 16.173333333333332 115.83754065225483, 16.176 115.73220731892151 C 16.178666666666665 115.62687398558816, 16.181333333333335 115.52487398558817, 16.183999999999997 115.42620731892151 L 17.264 115.42620731892151 C 17.256 115.50354065225484, 17.25 115.59954065225483, 17.246 115.71420731892151 C 17.241999999999997 115.82887398558816, 17.240666666666666 115.93954065225483, 17.241999999999997 116.04620731892152 C 17.243333333333332 116.15287398558817, 17.246666666666666 116.23287398558818, 17.252 116.28620731892151 C 17.262666666666668 116.40620731892153, 17.297333333333334 116.50420731892152, 17.355999999999998 116.58020731892151 C 17.414666666666665 116.6562073189215, 17.497333333333334 116.7102073189215, 17.604 116.74220731892152 L 17.604 117.63420731892151 C 17.110666666666663 117.59687398558819, 16.75333333333333 117.46220731892151, 16.532 117.23020731892152 C 16.310666666666666 116.99820731892152, 16.19333333333333 116.63820731892153, 16.18 116.15020731892152 Z M 16.279999999999998 114.81420731892152 L 16.279999999999998 111.16620731892151 L 17.348 111.16620731892151 L 17.348 114.81420731892152 Z M 17.852 114.39020731892151 L 17.852 113.63420731892151 C 17.929333333333332 113.59420731892152, 18.014666666666667 113.56220731892151, 18.107999999999997 113.53820731892151 C 18.20133333333333 113.5142073189215, 18.301333333333332 113.5022073189215, 18.407999999999998 113.5022073189215 C 18.773333333333333 113.5022073189215, 19.047333333333334 113.61754065225483, 19.23 113.84820731892151 C 19.412666666666667 114.07887398558819, 19.514666666666663 114.39287398558818, 19.535999999999998 114.79020731892152 C 19.546666666666667 114.95020731892151, 19.55333333333333 115.10887398558819, 19.555999999999997 115.26620731892152 C 19.558666666666664 115.42354065225484, 19.557333333333332 115.57687398558818, 19.552 115.72620731892151 C 19.546666666666667 115.87554065225484, 19.538666666666668 116.01554065225486, 19.528 116.14620731892151 C 19.482666666666667 116.64487398558819, 19.353333333333335 117.01020731892152, 19.14 117.24220731892152 C 18.926666666666666 117.47420731892151, 18.581333333333333 117.60487398558817, 18.104 117.63420731892151 L 18.104 116.74220731892152 C 18.21333333333333 116.71287398558817, 18.296 116.66020731892152, 18.352 116.58420731892151 C 18.408 116.5082073189215, 18.44 116.40887398558817, 18.448 116.28620731892151 C 18.471999999999998 115.99554065225485, 18.485999999999997 115.7342073189215, 18.49 115.5022073189215 C 18.494 115.2702073189215, 18.485333333333333 115.04887398558817, 18.464 114.83820731892152 C 18.447999999999997 114.68354065225485, 18.396666666666665 114.56820731892151, 18.31 114.49220731892152 C 18.223333333333333 114.41620731892152, 18.090666666666664 114.37820731892151, 17.912 114.37820731892151 C 17.901333333333334 114.37820731892151, 17.890666666666668 114.37954065225485, 17.88 114.38220731892152 C 17.86933333333333 114.38487398558817, 17.86 114.38754065225484, 17.852 114.39020731892151 Z M 17.852 112.09820731892151 L 17.852 111.16620731892151 L 19.439999999999998 111.16620731892151 L 19.439999999999998 112.09820731892151 Z M 21.944 117.56620731892151 L 21.944 111.16620731892151 L 23.003999999999998 111.16620731892151 L 23.003999999999998 117.56620731892151 Z " stroke="none" fill-rule="nonzero" fill="#000000" fill-opacity="1" transform="matrix(1,0,0,1,5.05,13.314)" id="text25 l" />
  <path d="M 0 110.65846016432675 L 10 110.65846016432675 L 10 112.15846016432675 L 0 112.15846016432675 Z " stroke="none" fill-rule="evenodd" fill="#000000" fill-opacity="1" transform="matrix(1,0,0,1,5.05,13.314)" id="mark26 l" />
  <path d="M 0 102.700713009732 L 10 102.700713009732 L 10 104.200713009732 L 0 104.200713009732 Z " stroke="none" fill-rule="evenodd" fill="#000000" fill-opacity="1" transform="matrix(1,0,0,1,5.05,13.314)" id="mark27 l" />
  <path d="M 0 94.74296585513721 L 10 94.74296585513721 L 10 96.24296585513721 L 0 96.24296585513721 Z " stroke="none" fill-rule="evenodd" fill="#000000" fill-opacity="1" transform="matrix(1,0,0,1,5.05,13.314)" id="mark28 l" />
  <path d="M 0 86.78521870054246 L 10 86.78521870054246 L 10 88.28521870054246 L 0 88.28521870054246 Z " stroke="none" fill-rule="evenodd" fill="#000000" fill-opacity="1" transform="matrix(1,0,0,1,5.05,13.314)" id="mark29 l" />
  <path d="M 0 78.82747154594767 L 25 78.82747154594767 L 25 80.32747154594767 L 0 80.32747154594767 Z " stroke="none" fill-rule="evenodd" fill="#000000" fill-opacity="1" transform="matrix(1,0,0,1,5.05,13.314)" id="mark30 l" />
  <path d="M 12.223999999999998 76.36147154594768 C 12.221333333333334 76.26013821261435, 12.219333333333333 76.17613821261435, 12.218 76.10947154594767 C 12.216666666666667 76.04280487928101, 12.216666666666667 75.97480487928101, 12.218 75.90547154594768 C 12.219333333333333 75.83613821261434, 12.221333333333334 75.746804879281, 12.223999999999998 75.63747154594768 L 13.303999999999998 75.63747154594768 L 13.303999999999998 76.50147154594768 C 13.303999999999998 76.738804879281, 13.417333333333332 76.88947154594767, 13.643999999999998 76.95347154594768 L 13.643999999999998 77.84547154594767 C 13.155999999999999 77.80813821261434, 12.800666666666665 77.67347154594768, 12.578 77.44147154594768 C 12.355333333333334 77.20947154594768, 12.237333333333332 76.84947154594768, 12.223999999999998 76.36147154594768 Z M 12.292 72.30947154594767 L 12.292 71.37747154594767 L 15.536 71.37747154594767 L 15.536 72.30947154594767 Z M 14.143999999999998 76.95747154594768 C 14.367999999999999 76.90147154594769, 14.483999999999998 76.75080487928102, 14.491999999999999 76.50547154594767 C 14.497333333333334 76.30280487928101, 14.500666666666666 76.12013821261435, 14.501999999999999 75.95747154594768 C 14.503333333333332 75.794804879281, 14.498666666666665 75.63747154594768, 14.488 75.48547154594768 C 14.48 75.32813821261433, 14.431999999999999 75.19480487928101, 14.344 75.08547154594768 C 14.256 74.97613821261436, 14.089333333333332 74.92413821261435, 13.844 74.92947154594768 L 13.096 74.93747154594767 L 13.068 74.04547154594768 L 14.027999999999999 72.66147154594768 L 15.216 72.66147154594768 L 14.248 74.01347154594768 L 14.28 74.01347154594768 C 14.712 74.01347154594768, 15.028666666666666 74.13613821261436, 15.229999999999999 74.38147154594768 C 15.431333333333333 74.626804879281, 15.544 75.00413821261434, 15.568 75.51347154594768 C 15.57333333333333 75.58547154594767, 15.576666666666664 75.65747154594767, 15.578 75.72947154594767 C 15.57933333333333 75.80147154594768, 15.579999999999998 75.87213821261435, 15.579999999999998 75.94147154594768 C 15.579999999999998 76.01080487928101, 15.57933333333333 76.08013821261434, 15.578 76.14947154594768 C 15.576666666666664 76.21880487928101, 15.57333333333333 76.28947154594768, 15.568 76.36147154594768 C 15.549333333333333 76.85747154594767, 15.428666666666665 77.22213821261434, 15.206 77.45547154594767 C 14.983333333333334 77.68880487928101, 14.630666666666666 77.81880487928102, 14.148 77.84547154594767 Z M 16.196 76.36547154594767 C 16.188000000000002 75.93613821261434, 16.182666666666666 75.51947154594768, 16.18 75.11547154594767 C 16.177333333333333 74.71147154594767, 16.177999999999997 74.31613821261433, 16.182 73.92947154594768 C 16.186 73.54280487928102, 16.190666666666665 73.16147154594768, 16.196 72.78547154594767 C 16.209333333333333 72.34547154594767, 16.334000000000003 72.00013821261435, 16.57 71.74947154594767 C 16.805999999999997 71.49880487928101, 17.142666666666663 71.35347154594768, 17.58 71.31347154594768 L 17.58 72.20147154594768 C 17.382666666666665 72.25747154594768, 17.281333333333333 72.386804879281, 17.276 72.58947154594767 C 17.262666666666668 72.96013821261434, 17.253333333333334 73.30813821261434, 17.248 73.63347154594767 C 17.242666666666665 73.958804879281, 17.24 74.27547154594767, 17.24 74.58347154594767 C 17.24 74.89147154594768, 17.242666666666665 75.20613821261435, 17.248 75.52747154594768 C 17.253333333333334 75.848804879281, 17.262666666666668 76.19213821261434, 17.276 76.55747154594768 C 17.281333333333333 76.76547154594768, 17.382666666666665 76.89747154594768, 17.58 76.95347154594768 L 17.58 77.84147154594767 C 17.142666666666663 77.80147154594768, 16.805999999999997 77.65547154594768, 16.57 77.40347154594768 C 16.334000000000003 77.15147154594769, 16.209333333333333 76.80547154594768, 16.196 76.36547154594767 Z M 18.084 77.84147154594767 L 18.084 76.94947154594767 C 18.268 76.89613821261435, 18.366666666666667 76.77213821261435, 18.38 76.57747154594767 C 18.398666666666667 76.110804879281, 18.410666666666668 75.66213821261434, 18.416 75.23147154594767 C 18.421333333333333 74.800804879281, 18.421333333333333 74.37013821261435, 18.416 73.93947154594768 C 18.410666666666668 73.50880487928102, 18.398666666666667 73.05613821261434, 18.38 72.58147154594768 C 18.374666666666666 72.38680487928102, 18.276 72.26013821261435, 18.084 72.20147154594768 L 18.084 71.31347154594768 C 18.513333333333335 71.35347154594768, 18.846666666666668 71.49880487928101, 19.084 71.74947154594767 C 19.321333333333335 72.00013821261435, 19.445333333333334 72.34547154594767, 19.456 72.78547154594767 C 19.46666666666667 73.10013821261434, 19.474666666666668 73.41013821261434, 19.48 73.71547154594768 C 19.485333333333333 74.02080487928102, 19.488 74.32147154594767, 19.488 74.61747154594768 C 19.488 74.91347154594769, 19.485333333333333 75.20680487928101, 19.48 75.49747154594768 C 19.474666666666668 75.78813821261434, 19.46666666666667 76.07747154594767, 19.456 76.36547154594767 C 19.439999999999998 76.81613821261433, 19.311999999999998 77.16480487928101, 19.072 77.41147154594768 C 18.832 77.65813821261435, 18.502666666666666 77.80147154594768, 18.084 77.84147154594767 Z M 21.944 77.77747154594768 L 21.944 71.37747154594767 L 23.003999999999998 71.37747154594767 L 23.003999999999998 77.77747154594768 Z " stroke="none" fill-rule="nonzero" fill="#000000" fill-opacity="1" transform="matrix(1,0,0,1,5.05,13.314)" id="text30 l" />
  <path d="M 0 70.86972439135292 L 10 70.86972439135292 L 10 72.36972439135292 L 0 72.36972439135292 Z " stroke="none" fill-rule="evenodd" fill="#000000" fill-opacity="1" transform="matrix(1,0,0,1,5.05,13.314)" id="mark31 l" />
  <path d="M 0 62.91197723675816 L 10 62.91197723675816 L 10 64.41197723675816 L 0 64.41197723675816 Z " stroke="none" fill-rule="evenodd" fill="#000000" fill-opacity="1" transform="matrix(1,0,0,1,5.05,13.314)" id="mark32 l" />
  <path d="M 0 54.954230082163406 L 10 54.954230082163406 L 10 56.454230082163406 L 0 56.454230082163406 Z " stroke="none" fill-rule="evenodd" fill="#000000" fill-opacity="1" transform="matrix(1,0,0,1,5.05,13.314)" id="mark33 l" />
  <path d="M 0 46.99648292756859 L 10 46.99648292756859 L 10 48.49648292756859 L 0 48.49648292756859 Z " stroke="none" fill-rule="evenodd" fill="#000000" fill-opacity="1" transform="matrix(1,0,0,1,5.05,13.314)" id="mark34 l" />
  <path d="M 0 39.03873577297384 L 25 39.03873577297384 L 25 40.53873577297384 L 0 40.53873577297384 Z " stroke="none" fill-rule="evenodd" fill="#000000" fill-opacity="1" transform="matrix(1,0,0,1,5.05,13.314)" id="mark35 l" />
  <path d="M 12.232 36.54073577297384 C 12.229333333333333 36.4394024396405, 12.227333333333334 36.35540243964051, 12.226 36.28873577297384 C 12.224666666666668 36.22206910630717, 12.224666666666668 36.15406910630717, 12.226 36.084735772973836 C 12.227333333333334 36.0154024396405, 12.229333333333333 35.92606910630717, 12.232 35.816735772973836 L 13.312 35.816735772973836 L 13.312 36.68073577297383 C 13.312 36.91806910630717, 13.425333333333333 37.06873577297384, 13.652 37.13273577297384 L 13.652 38.024735772973834 C 13.164 37.987402439640505, 12.808666666666667 37.85273577297384, 12.586 37.62073577297384 C 12.363333333333333 37.38873577297384, 12.245333333333335 37.02873577297384, 12.232 36.54073577297384 Z M 12.3 32.48873577297384 L 12.3 31.556735772973838 L 15.544 31.556735772973838 L 15.544 32.48873577297384 Z M 14.152000000000001 37.136735772973836 C 14.376000000000001 37.08073577297384, 14.492 36.93006910630717, 14.5 36.68473577297384 C 14.505333333333333 36.482069106307165, 14.508666666666667 36.2994024396405, 14.51 36.136735772973836 C 14.511333333333333 35.97406910630717, 14.506666666666668 35.816735772973836, 14.496 35.664735772973835 C 14.488 35.5074024396405, 14.440000000000001 35.37406910630717, 14.352 35.264735772973836 C 14.264 35.155402439640504, 14.097333333333335 35.103402439640504, 13.852 35.10873577297384 L 13.104 35.11673577297384 L 13.076 34.22473577297384 L 14.036 32.84073577297384 L 15.224 32.84073577297384 L 14.256 34.19273577297383 L 14.288 34.19273577297383 C 14.719999999999999 34.19273577297383, 15.036666666666665 34.3154024396405, 15.238 34.560735772973835 C 15.439333333333334 34.80606910630717, 15.552 35.1834024396405, 15.576 35.69273577297383 C 15.581333333333333 35.764735772973836, 15.584666666666667 35.83673577297384, 15.586 35.908735772973834 C 15.587333333333333 35.98073577297384, 15.588000000000001 36.051402439640505, 15.588000000000001 36.12073577297384 C 15.588000000000001 36.19006910630717, 15.587333333333333 36.2594024396405, 15.586 36.328735772973836 C 15.584666666666667 36.39806910630717, 15.581333333333333 36.46873577297384, 15.576 36.54073577297384 C 15.557333333333334 37.03673577297384, 15.436666666666667 37.401402439640506, 15.214 37.63473577297383 C 14.991333333333333 37.86806910630717, 14.638666666666666 37.99806910630717, 14.156 38.024735772973834 Z M 16.18 36.54073577297384 C 16.174666666666667 36.3674024396405, 16.173333333333332 36.22806910630717, 16.176 36.12273577297383 C 16.178666666666665 36.017402439640506, 16.181333333333335 35.9154024396405, 16.183999999999997 35.816735772973836 L 17.264 35.816735772973836 C 17.256 35.89406910630717, 17.25 35.99006910630717, 17.246 36.10473577297384 C 17.241999999999997 36.219402439640504, 17.240666666666666 36.330069106307164, 17.241999999999997 36.43673577297383 C 17.243333333333332 36.5434024396405, 17.246666666666666 36.6234024396405, 17.252 36.676735772973835 C 17.262666666666668 36.79673577297383, 17.297333333333334 36.89473577297384, 17.355999999999998 36.97073577297384 C 17.414666666666665 37.04673577297384, 17.497333333333334 37.100735772973835, 17.604 37.13273577297384 L 17.604 38.024735772973834 C 17.110666666666663 37.987402439640505, 16.75333333333333 37.85273577297384, 16.532 37.62073577297384 C 16.310666666666666 37.38873577297384, 16.19333333333333 37.02873577297384, 16.18 36.54073577297384 Z M 16.279999999999998 35.204735772973834 L 16.279999999999998 31.556735772973838 L 17.348 31.556735772973838 L 17.348 35.204735772973834 Z M 17.852 34.780735772973834 L 17.852 34.024735772973834 C 17.929333333333332 33.984735772973835, 18.014666666666667 33.95273577297384, 18.107999999999997 33.92873577297384 C 18.20133333333333 33.90473577297384, 18.301333333333332 33.892735772973836, 18.407999999999998 33.892735772973836 C 18.773333333333333 33.892735772973836, 19.047333333333334 34.00806910630717, 19.23 34.23873577297384 C 19.412666666666667 34.469402439640504, 19.514666666666663 34.7834024396405, 19.535999999999998 35.18073577297383 C 19.546666666666667 35.34073577297383, 19.55333333333333 35.499402439640505, 19.555999999999997 35.65673577297384 C 19.558666666666664 35.81406910630717, 19.557333333333332 35.9674024396405, 19.552 36.11673577297383 C 19.546666666666667 36.26606910630717, 19.538666666666668 36.40606910630717, 19.528 36.536735772973834 C 19.482666666666667 37.03540243964051, 19.353333333333335 37.40073577297384, 19.14 37.63273577297384 C 18.926666666666666 37.86473577297384, 18.581333333333333 37.9954024396405, 18.104 38.024735772973834 L 18.104 37.13273577297384 C 18.21333333333333 37.103402439640504, 18.296 37.05073577297384, 18.352 36.97473577297384 C 18.408 36.898735772973836, 18.44 36.7994024396405, 18.448 36.676735772973835 C 18.471999999999998 36.38606910630717, 18.485999999999997 36.124735772973835, 18.49 35.892735772973836 C 18.494 35.66073577297384, 18.485333333333333 35.4394024396405, 18.464 35.228735772973835 C 18.447999999999997 35.07406910630717, 18.396666666666665 34.95873577297384, 18.31 34.88273577297384 C 18.223333333333333 34.80673577297384, 18.090666666666664 34.768735772973834, 17.912 34.768735772973834 C 17.901333333333334 34.768735772973834, 17.890666666666668 34.77006910630717, 17.88 34.77273577297384 C 17.86933333333333 34.7754024396405, 17.86 34.77806910630717, 17.852 34.780735772973834 Z M 17.852 32.48873577297384 L 17.852 31.556735772973838 L 19.439999999999998 31.556735772973838 L 19.439999999999998 32.48873577297384 Z M 21.944 37.956735772973836 L 21.944 31.556735772973838 L 23.003999999999998 31.556735772973838 L 23.003999999999998 37.956735772973836 Z " stroke="none" fill-rule="nonzero" fill="#000000" fill-opacity="1" transform="matrix(1,0,0,1,5.05,13.314)" id="text35 l" />
  <path d="M 0 31.08098861837908 L 10 31.08098861837908 L 10 32.58098861837908 L 0 32.58098861837908 Z " stroke="none" fill-rule="evenodd" fill="#000000" fill-opacity="1" transform="matrix(1,0,0,1,5.05,13.314)" id="mark36 l" />
  <path d="M 0 23.123241463784325 L 10 23.123241463784325 L 10 24.623241463784325 L 0 24.623241463784325 Z " stroke="none" fill-rule="evenodd" fill="#000000" fill-opacity="1" transform="matrix(1,0,0,1,5.05,13.314)" id="mark37 l" />
  <path d="M 0 15.165494309189569 L 10 15.165494309189569 L 10 16.66549430918957 L 0 16.66549430918957 Z " stroke="none" fill-rule="evenodd" fill="#000000" fill-opacity="1" transform="matrix(1,0,0,1,5.05,13.314)" id="mark38 l" />
  <path d="M 0 7.207747154594813 L 10 7.207747154594813 L 10 8.707747154594813 L 0 8.707747154594813 Z " stroke="none" fill-rule="evenodd" fill="#000000" fill-opacity="1" transform="matrix(1,0,0,1,5.05,13.314)" id="mark39 l" />
  <path d="M 0 -0.75 L 25 -0.75 L 25 0.75 L 0 0.75 Z " stroke="none" fill-rule="evenodd" fill="#000000" fill-opacity="1" transform="matrix(1,0,0,1,5.05,13.314)" id="mark40 l" />
  <path d="M 11.739999999999998 -3.484 L 11.739999999999998 -4.359999999999999 L 12.455999999999998 -6.24 L 13.495999999999999 -6.24 L 12.771999999999998 -4.4079999999999995 L 13.171999999999997 -4.4079999999999995 L 13.171999999999997 -3.484 Z M 13.675999999999998 -1.7999999999999998 L 13.675999999999998 -8.2 L 14.683999999999997 -8.2 L 14.683999999999997 -1.7999999999999998 Z M 15.187999999999999 -3.484 L 15.187999999999999 -4.4079999999999995 L 15.655999999999999 -4.4079999999999995 L 15.655999999999999 -3.484 Z M 16.195999999999998 -3.2119999999999997 C 16.188 -3.641333333333333, 16.182666666666666 -4.058, 16.18 -4.462 C 16.177333333333333 -4.866, 16.177999999999997 -5.261333333333333, 16.182 -5.648 C 16.186 -6.034666666666666, 16.190666666666665 -6.416, 16.195999999999998 -6.792 C 16.20933333333333 -7.231999999999999, 16.333999999999996 -7.577333333333334, 16.569999999999997 -7.828 C 16.805999999999997 -8.078666666666667, 17.142666666666663 -8.224, 17.58 -8.264 L 17.58 -7.3759999999999994 C 17.382666666666665 -7.32, 17.281333333333333 -7.190666666666667, 17.275999999999996 -6.9879999999999995 C 17.262666666666664 -6.617333333333333, 17.25333333333333 -6.269333333333333, 17.247999999999998 -5.944 C 17.242666666666665 -5.618666666666666, 17.24 -5.302, 17.24 -4.994 C 17.24 -4.686, 17.242666666666665 -4.371333333333333, 17.247999999999998 -4.05 C 17.25333333333333 -3.7286666666666664, 17.262666666666664 -3.3853333333333326, 17.275999999999996 -3.0199999999999996 C 17.281333333333333 -2.812, 17.382666666666665 -2.6799999999999997, 17.58 -2.6239999999999997 L 17.58 -1.7359999999999998 C 17.142666666666663 -1.7759999999999998, 16.805999999999997 -1.9219999999999997, 16.569999999999997 -2.174 C 16.333999999999996 -2.4259999999999997, 16.20933333333333 -2.772, 16.195999999999998 -3.2119999999999997 Z M 18.084 -1.7359999999999998 L 18.084 -2.6279999999999997 C 18.268 -2.681333333333333, 18.366666666666667 -2.8053333333333335, 18.38 -3 C 18.398666666666664 -3.4666666666666663, 18.410666666666664 -3.915333333333333, 18.415999999999997 -4.346 C 18.42133333333333 -4.776666666666666, 18.42133333333333 -5.207333333333333, 18.415999999999997 -5.638 C 18.410666666666664 -6.068666666666666, 18.398666666666664 -6.521333333333333, 18.38 -6.9959999999999996 C 18.374666666666666 -7.190666666666667, 18.276 -7.317333333333334, 18.084 -7.3759999999999994 L 18.084 -8.264 C 18.513333333333332 -8.224, 18.846666666666664 -8.078666666666667, 19.083999999999996 -7.828 C 19.32133333333333 -7.577333333333334, 19.44533333333333 -7.231999999999999, 19.456 -6.792 C 19.466666666666665 -6.477333333333332, 19.474666666666664 -6.167333333333333, 19.479999999999997 -5.861999999999999 C 19.48533333333333 -5.556666666666667, 19.488 -5.256, 19.488 -4.96 C 19.488 -4.664, 19.48533333333333 -4.370666666666667, 19.479999999999997 -4.08 C 19.474666666666664 -3.7893333333333334, 19.466666666666665 -3.5, 19.456 -3.2119999999999997 C 19.439999999999998 -2.761333333333333, 19.311999999999998 -2.4126666666666665, 19.072 -2.166 C 18.831999999999997 -1.9193333333333331, 18.502666666666663 -1.7759999999999998, 18.084 -1.7359999999999998 Z M 21.944 -1.7999999999999998 L 21.944 -8.2 L 23.003999999999998 -8.2 L 23.003999999999998 -1.7999999999999998 Z " stroke="none" fill-rule="nonzero" fill="#000000" fill-opacity="1" transform="matrix(1,0,0,1,5.05,13.314)" id="text40 l" />
  <path d="M -5 -13.264 L 30 -13.264 L 30 317.1201390291959 L -5 317.1201390291959 Z " stroke="#FF0000" stroke-opacity="1" stroke-width="0.1" stroke-linecap="butt" stroke-linejoin="miter" fill="none" transform="matrix(1,0,0,1,5.05,13.314)" />
</svg>