<?xml version="1.0" encoding="utf-8"?>
<svg xmlns="http://www.w3.org/2000/svg" xmlns:xlink="http://www.w3.org/1999/xlink" version="1.1" width="37mm" height="163.67426mm" viewBox="0 0 37 163.67426">
  <defs />
  <style>svg { background: #ffffff; }</style>
  <rect id="cutLine" fill="none" stroke="red" stroke-width="0.05" width="37" height="163.67426" />
  <g id="scale" transform="translate(5, 5)">
    <rect id="mark_1" fill="Black" x="0" y="152.17426" width="10" height="1.5" />
    <rect id="mark_2" fill="Black" x="0" y="136.04933" width="27" height="1.5" />
    <path fill="Black" d="M 0.005859375 6.203125 Q 0.0078125 6.3203125, 0.01171875 6.46875 L 1.0917969 6.46875 L 1.0917969 5.1757812 Q 1.0917969 5.0214844, 1.1328125 4.841797 Q 1.1757812 4.6601562, 1.2734375 4.5 Q 1.3710938 4.3398438, 1.5429688 4.248047 L 2.1464844 3.9199219 Q 2.4707031 3.7402344, 2.7167969 3.5136719 Q 2.9628906 3.2851562, 3.1074219 2.9726562 Q 3.2519531 2.6601562, 3.2675781 2.2324219 Q 3.2714844 2.1445312, 3.2734375 2.0527344 Q 3.2753906 1.9609375, 3.2753906 1.8671875 Q 3.2753906 1.7734375, 3.2734375 1.6738281 Q 3.2714844 1.5722656, 3.2675781 1.4765625 Q 3.234375 0.7402344, 2.9160156 0.39453125 Q 2.5996094 0.048828125, 1.8671875 0 L 1.8671875 0.8886719 Q 2.0234375 0.93359375, 2.1054688 1.0351562 Q 2.1875 1.1367188, 2.1953125 1.2929688 Q 2.2070312 1.5136719, 2.2050781 1.7636719 Q 2.203125 2.0136719, 2.1875 2.2324219 Q 2.1757812 2.4199219, 2.0976562 2.6347656 Q 2.0195312 2.8496094, 1.7382812 3 L 1.2070312 3.2890625 Q 0.8183594 3.5, 0.5546875 3.7734375 Q 0.29101562 4.044922, 0.15234375 4.390625 Q 0.015625 4.736328, 0.00390625 5.1757812 Q 0 5.3691406, 0 5.5117188 L 0 5.765625 Q 0 5.876953, 0.001953125 5.9804688 Q 0.00390625 6.0839844, 0.005859375 6.203125 Z M 0.0078125 2.0839844 Q 0.01171875 2.2519531, 0.01953125 2.4296875 L 1.0839844 2.4296875 Q 1.0664062 2.1132812, 1.0683594 1.8457031 Q 1.0703125 1.5761719, 1.0800781 1.265625 Q 1.0839844 1.1289062, 1.1503906 1.0332031 Q 1.21875 0.9375, 1.3632812 0.8925781 L 1.3632812 0 Q 0.67578125 0.052734375, 0.35351562 0.3984375 Q 0.03125 0.7441406, 0.00390625 1.4765625 Q 0 1.6171875, 0.001953125 1.7675781 Q 0.00390625 1.9160156, 0.0078125 2.0839844 Z M 1.5957031 5.5371094 L 1.5957031 6.46875 L 3.1914062 6.46875 L 3.1914062 5.5371094 L 1.5957031 5.5371094 Z M 6.091797 6.46875 L 6.091797 0.068359375 L 7.1503906 0.068359375 L 7.1503906 6.46875 L 6.091797 6.46875 Z" transform="translate(17.84961, 128.99933)" />
    <rect id="mark_3" fill="Black" x="0" y="119.92442" width="10" height="1.5" />
    <rect id="mark_4" fill="Black" x="0" y="103.7995" width="27" height="1.5" />
    <path fill="Black" d="M 1.9355469 0 L 1.9355469 6.4003906 L 2.9433594 6.4003906 L 2.9433594 0 L 1.9355469 0 Z M 0 3.8398438 L 0 4.716797 L 1.4316406 4.716797 L 1.4316406 3.7929688 L 1.03125 3.7929688 L 1.7558594 1.9609375 L 0.7167969 1.9609375 L 0 3.8398438 Z M 3.4472656 3.7929688 L 3.4472656 4.716797 L 3.9160156 4.716797 L 3.9160156 3.7929688 L 3.4472656 3.7929688 Z M 6.220703 6.4003906 L 6.220703 0 L 7.279297 0 L 7.279297 6.4003906 L 6.220703 6.4003906 Z" transform="translate(17.720703, 96.7495)" />
    <rect id="mark_5" fill="Black" x="0" y="87.67458" width="10" height="1.5" />
    <rect id="mark_6" fill="Black" x="0" y="71.54967" width="27" height="1.5" />
    <path fill="Black" d="M 0.005859375 4.216797 Q 0.01171875 4.6523438, 0.015625 5.048828 Q 0.02734375 5.7890625, 0.34765625 6.1367188 Q 0.66796875 6.484375, 1.4003906 6.533203 L 1.4003906 5.640625 Q 1.2519531 5.5976562, 1.1699219 5.4941406 Q 1.0878906 5.388672, 1.0878906 5.2246094 Q 1.0761719 4.6132812, 1.0761719 3.9824219 Q 1.0761719 3.3496094, 1.0800781 2.6816406 Q 1.0839844 2.0136719, 1.0957031 1.28125 Q 1.0957031 1.1210938, 1.171875 1.0253906 Q 1.2480469 0.9296875, 1.3925781 0.8925781 L 1.3925781 0 Q 0.7558594 0.056640625, 0.390625 0.41796875 Q 0.02734375 0.77734375, 0.015625 1.4726562 Q 0.0078125 1.9335938, 0.00390625 2.3984375 Q 0 2.8613281, 0 3.3222656 Q 0 3.78125, 0.005859375 4.216797 Z M 2.2050781 1.8027344 Q 2.203125 1.9082031, 2.1914062 2.0488281 L 3.2636719 2.0488281 Q 3.2675781 1.9042969, 3.2695312 1.8027344 Q 3.2714844 1.7011719, 3.2695312 1.6113281 Q 3.2675781 1.5214844, 3.2636719 1.4199219 Q 3.2402344 0.8125, 2.8945312 0.43945312 Q 2.5488281 0.064453125, 1.8925781 0.00390625 L 1.8925781 0.8925781 Q 2.0410156 0.9296875, 2.1113281 1.03125 Q 2.1835938 1.1328125, 2.1914062 1.28125 Q 2.1992188 1.4570312, 2.203125 1.578125 Q 2.2089844 1.6972656, 2.2050781 1.8027344 Z M 1.5644531 2.625 L 1.5644531 3.3691406 Q 1.5957031 3.3574219, 1.625 3.3554688 Q 1.65625 3.3535156, 1.6835938 3.3535156 Q 1.9277344 3.3535156, 2.0800781 3.4609375 Q 2.2324219 3.5683594, 2.2363281 3.7929688 Q 2.2441406 3.9765625, 2.2460938 4.142578 Q 2.2480469 4.3085938, 2.2441406 4.4765625 Q 2.2402344 4.6445312, 2.2363281 4.830078 Q 2.2324219 5.013672, 2.2246094 5.2441406 Q 2.2207031 5.404297, 2.1386719 5.5058594 Q 2.0566406 5.6054688, 1.9003906 5.6484375 L 1.9003906 6.533203 Q 2.6191406 6.4882812, 2.9433594 6.1367188 Q 3.2675781 5.7851562, 3.3046875 5.048828 Q 3.3164062 4.7890625, 3.3183594 4.6054688 Q 3.3203125 4.419922, 3.3183594 4.2304688 Q 3.3164062 4.0410156, 3.3085938 3.765625 Q 3.296875 3.0683594, 3.0507812 2.7714844 Q 2.8046875 2.4726562, 2.1679688 2.4726562 Q 1.9960938 2.4726562, 1.8417969 2.5136719 Q 1.6875 2.5527344, 1.5644531 2.625 Z M 6.0566406 6.4648438 L 6.0566406 0.064453125 L 7.1152344 0.064453125 L 7.1152344 6.4648438 L 6.0566406 6.4648438 Z" transform="translate(17.884766, 64.49967)" />
    <rect id="mark_7" fill="Black" x="0" y="55.424747" width="10" height="1.5" />
    <rect id="mark_8" fill="Black" x="0" y="39.299835" width="27" height="1.5" />
    <path fill="Black" d="M 0.001953125 4.8222656 Q 0.00390625 4.923828, 0.0078125 5.0527344 Q 0.03515625 5.765625, 0.3515625 6.125 Q 0.66796875 6.484375, 1.3964844 6.5371094 L 1.3964844 5.6445312 Q 1.2363281 5.5976562, 1.1621094 5.482422 Q 1.0878906 5.3652344, 1.0839844 5.189453 L 1.0839844 4.703125 Q 1.0839844 4.4609375, 1.0878906 4.2128906 Q 1.0878906 4.033203, 1.1621094 3.9179688 Q 1.2363281 3.8007812, 1.3964844 3.7519531 L 1.3964844 2.6757812 Q 1.2402344 2.6289062, 1.1640625 2.515625 Q 1.0878906 2.4003906, 1.0878906 2.2207031 Q 1.0839844 2.1054688, 1.0839844 1.9980469 L 1.0839844 1.5742188 Q 1.0839844 1.4648438, 1.0878906 1.3457031 Q 1.0878906 1.1640625, 1.1640625 1.0527344 Q 1.2402344 0.94140625, 1.3964844 0.8925781 L 1.3964844 0 Q 0.6875 0.052734375, 0.3828125 0.40429688 Q 0.080078125 0.7558594, 0.0390625 1.484375 Q 0.03515625 1.6132812, 0.0390625 1.7695312 Q 0.04296875 1.9238281, 0.056640625 2.0839844 Q 0.072265625 2.2441406, 0.091796875 2.3847656 Q 0.14453125 2.671875, 0.31445312 2.8613281 Q 0.484375 3.0488281, 0.71484375 3.1289062 L 0.71484375 3.2851562 Q 0.38671875 3.4199219, 0.22265625 3.6640625 Q 0.060546875 3.9082031, 0.01953125 4.328125 Q 0.0078125 4.4960938, 0.00390625 4.609375 Q 0 4.720703, 0.001953125 4.8222656 Z M 1.8964844 5.6445312 L 1.8964844 6.5371094 Q 2.6113281 6.4882812, 2.9277344 6.138672 Q 3.2441406 5.7890625, 3.2832031 5.0527344 Q 3.2910156 4.888672, 3.2910156 4.71875 Q 3.2910156 4.548828, 3.2675781 4.3164062 Q 3.2148438 3.9160156, 3.0429688 3.6738281 Q 2.8710938 3.4296875, 2.5722656 3.2929688 L 2.5722656 3.1289062 Q 2.8066406 3.0488281, 2.9765625 2.8613281 Q 3.1484375 2.671875, 3.1992188 2.3808594 Q 3.21875 2.2597656, 3.2324219 2.0996094 Q 3.2480469 1.9375, 3.2519531 1.7734375 Q 3.2558594 1.609375, 3.2480469 1.484375 Q 3.2109375 0.7480469, 2.8964844 0.40039062 Q 2.5839844 0.052734375, 1.8964844 0 L 1.8964844 0.8925781 Q 2.0546875 0.94140625, 2.1289062 1.0546875 Q 2.203125 1.1679688, 2.203125 1.3457031 Q 2.2070312 1.5566406, 2.2050781 1.7792969 Q 2.203125 2, 2.203125 2.2167969 Q 2.203125 2.5839844, 1.8964844 2.6757812 L 1.8964844 3.7519531 Q 2.1992188 3.8496094, 2.203125 4.2128906 Q 2.2070312 4.3808594, 2.2070312 4.5410156 L 2.2070312 4.861328 Q 2.2070312 5.0214844, 2.203125 5.1933594 Q 2.203125 5.3691406, 2.1289062 5.484375 Q 2.0546875 5.5976562, 1.8964844 5.6445312 Z M 6.076172 6.46875 L 6.076172 0.068359375 L 7.1347656 0.068359375 L 7.1347656 6.46875 L 6.076172 6.46875 Z" transform="translate(17.865234, 32.249832)" />
    <rect id="mark_9" fill="Black" x="0" y="23.174917" width="10" height="1.5" />
    <rect id="mark_10" fill="Black" x="0" y="7.05" width="27" height="1.5" />
    <path fill="Black" d="M 0.484375 1.0214844 L 0.484375 6.4648438 L 1.5839844 6.4648438 L 1.5839844 0.064453125 L 0.7050781 0.064453125 L 0 0.640625 L 0.033203125 1.0214844 L 0.484375 1.0214844 Z M 2.140625 3.8027344 Q 2.1445312 4.408203, 2.15625 5.0527344 Q 2.1777344 5.7128906, 2.53125 6.091797 Q 2.8847656 6.46875, 3.5410156 6.529297 L 3.5410156 5.640625 Q 3.2441406 5.5566406, 3.2363281 5.2441406 Q 3.2167969 4.6972656, 3.2089844 4.2148438 Q 3.2011719 3.7324219, 3.2011719 3.2714844 Q 3.2011719 2.8085938, 3.2089844 2.3203125 Q 3.2167969 1.8320312, 3.2363281 1.2773438 Q 3.2441406 0.97265625, 3.5410156 0.8886719 L 3.5410156 0 Q 2.8847656 0.060546875, 2.53125 0.4375 Q 2.1777344 0.8125, 2.15625 1.4726562 Q 2.1484375 2.0371094, 2.1425781 2.6171875 Q 2.1367188 3.1972656, 2.140625 3.8027344 Z M 4.044922 5.6367188 L 4.044922 6.529297 Q 4.671875 6.46875, 5.03125 6.0996094 Q 5.392578 5.7285156, 5.4160156 5.0527344 Q 5.4335938 4.6210938, 5.4414062 4.185547 Q 5.4492188 3.7480469, 5.4492188 3.3046875 Q 5.4492188 2.8613281, 5.4414062 2.4042969 Q 5.4335938 1.9453125, 5.4160156 1.4726562 Q 5.4003906 0.8125, 5.044922 0.4375 Q 4.689453 0.060546875, 4.044922 0 L 4.044922 0.8886719 Q 4.3320312 0.9765625, 4.3398438 1.2695312 Q 4.3691406 1.9804688, 4.376953 2.6269531 Q 4.3847656 3.2734375, 4.376953 3.9199219 Q 4.3691406 4.564453, 4.3398438 5.265625 Q 4.3203125 5.5566406, 4.044922 5.6367188 Z M 8.193359 6.4648438 L 8.193359 0.064453125 L 9.251953 0.064453125 L 9.251953 6.4648438 L 8.193359 6.4648438 Z" transform="translate(15.748047, 0)" />
  </g>
</svg>