<?xml version="1.0" encoding="UTF-8"?>
<svg xmlns:xlink="http://www.w3.org/1999/xlink" viewBox="0 0 35.1 280.5462239049274" version="1.1" style="font-synthesis: none;" width="35.1mm" height="280.5462239049274mm" xmlns="http://www.w3.org/2000/svg">
  <defs />
  <style>	</style>
  <path d="M 0 0 L 35.1 0 L 35.1 280.5462239049274 L 0 280.5462239049274 Z " stroke="none" fill-rule="nonzero" fill="#FFFFFF" fill-opacity="1" transform="matrix(1,0,0,1,0,0)" />
  <path d="M 0 259.6642239049274 L 10 259.6642239049274 L 10 261.1642239049274 L 0 261.1642239049274 Z " stroke="none" fill-rule="evenodd" fill="#000000" fill-opacity="1" transform="matrix(1,0,0,1,5.05,13.314)" id="mark2 l" />
  <path d="M 0 250.36371590832283 L 10 250.36371590832283 L 10 251.86371590832283 L 0 251.86371590832283 Z " stroke="none" fill-rule="evenodd" fill="#000000" fill-opacity="1" transform="matrix(1,0,0,1,5.05,13.314)" id="mark3 l" />
  <path d="M 0 241.06320791171828 L 10 241.06320791171828 L 10 242.56320791171828 L 0 242.56320791171828 Z " stroke="none" fill-rule="evenodd" fill="#000000" fill-opacity="1" transform="matrix(1,0,0,1,5.05,13.314)" id="mark4 l" />
  <path d="M 0 231.76269991511373 L 25 231.76269991511373 L 25 233.26269991511373 L 0 233.26269991511373 Z " stroke="none" fill-rule="evenodd" fill="#000000" fill-opacity="1" transform="matrix(1,0,0,1,5.05,13.314)" id="mark5 l" />
  <path d="M 16.18 229.26469991511374 C 16.174666666666667 229.09136658178042, 16.173333333333332 228.9520332484471, 16.176 228.84669991511373 C 16.178666666666665 228.74136658178043, 16.181333333333335 228.63936658178042, 16.183999999999997 228.54069991511375 L 17.264 228.54069991511375 C 17.256 228.61803324844706, 17.25 228.71403324844704, 17.246 228.82869991511373 C 17.241999999999997 228.94336658178037, 17.240666666666666 229.05403324844707, 17.241999999999997 229.16069991511372 C 17.243333333333332 229.26736658178038, 17.246666666666666 229.3473665817804, 17.252 229.40069991511373 C 17.262666666666668 229.52069991511374, 17.297333333333334 229.61869991511372, 17.355999999999998 229.69469991511374 C 17.414666666666665 229.7706999151137, 17.497333333333334 229.82469991511374, 17.604 229.85669991511372 L 17.604 230.74869991511375 C 17.110666666666663 230.7113665817804, 16.75333333333333 230.57669991511375, 16.532 230.34469991511372 C 16.310666666666666 230.11269991511375, 16.19333333333333 229.75269991511374, 16.18 229.26469991511374 Z M 16.279999999999998 227.92869991511373 L 16.279999999999998 224.28069991511373 L 17.348 224.28069991511373 L 17.348 227.92869991511373 Z M 17.852 227.50469991511375 L 17.852 226.74869991511375 C 17.929333333333332 226.70869991511375, 18.014666666666667 226.67669991511374, 18.107999999999997 226.65269991511374 C 18.20133333333333 226.62869991511374, 18.301333333333332 226.61669991511374, 18.407999999999998 226.61669991511374 C 18.773333333333333 226.61669991511374, 19.047333333333334 226.73203324844707, 19.23 226.96269991511375 C 19.412666666666667 227.19336658178042, 19.514666666666663 227.5073665817804, 19.535999999999998 227.90469991511372 C 19.546666666666667 228.06469991511375, 19.55333333333333 228.2233665817804, 19.555999999999997 228.38069991511372 C 19.558666666666664 228.53803324844708, 19.557333333333332 228.69136658178041, 19.552 228.84069991511373 C 19.546666666666667 228.99003324844705, 19.538666666666668 229.13003324844703, 19.528 229.26069991511375 C 19.482666666666667 229.7593665817804, 19.353333333333335 230.12469991511375, 19.14 230.35669991511372 C 18.926666666666666 230.58869991511375, 18.581333333333333 230.71936658178043, 18.104 230.74869991511375 L 18.104 229.85669991511372 C 18.21333333333333 229.82736658178038, 18.296 229.77469991511373, 18.352 229.69869991511374 C 18.408 229.62269991511374, 18.44 229.5233665817804, 18.448 229.40069991511373 C 18.471999999999998 229.11003324844705, 18.485999999999997 228.84869991511374, 18.49 228.61669991511374 C 18.494 228.38469991511374, 18.485333333333333 228.1633665817804, 18.464 227.95269991511373 C 18.447999999999997 227.79803324844704, 18.396666666666665 227.68269991511374, 18.31 227.60669991511372 C 18.223333333333333 227.53069991511376, 18.090666666666664 227.49269991511375, 17.912 227.49269991511375 C 17.901333333333334 227.49269991511375, 17.890666666666668 227.49403324844707, 17.88 227.49669991511374 C 17.86933333333333 227.4993665817804, 17.86 227.50203324844705, 17.852 227.50469991511375 Z M 17.852 225.21269991511375 L 17.852 224.28069991511373 L 19.439999999999998 224.28069991511373 L 19.439999999999998 225.21269991511375 Z M 21.944 230.68069991511373 L 21.944 224.28069991511373 L 23.003999999999998 224.28069991511373 L 23.003999999999998 230.68069991511373 Z " stroke="none" fill-rule="nonzero" fill="#000000" fill-opacity="1" transform="matrix(1,0,0,1,5.05,13.314)" id="text5 l" />
  <path d="M 0 222.46219191850918 L 10 222.46219191850918 L 10 223.96219191850918 L 0 223.96219191850918 Z " stroke="none" fill-rule="evenodd" fill="#000000" fill-opacity="1" transform="matrix(1,0,0,1,5.05,13.314)" id="mark6 l" />
  <path d="M 0 213.16168392190463 L 10 213.16168392190463 L 10 214.66168392190463 L 0 214.66168392190463 Z " stroke="none" fill-rule="evenodd" fill="#000000" fill-opacity="1" transform="matrix(1,0,0,1,5.05,13.314)" id="mark7 l" />
  <path d="M 0 203.86117592530007 L 10 203.86117592530007 L 10 205.36117592530007 L 0 205.36117592530007 Z " stroke="none" fill-rule="evenodd" fill="#000000" fill-opacity="1" transform="matrix(1,0,0,1,5.05,13.314)" id="mark8 l" />
  <path d="M 0 194.56066792869552 L 10 194.56066792869552 L 10 196.06066792869552 L 0 196.06066792869552 Z " stroke="none" fill-rule="evenodd" fill="#000000" fill-opacity="1" transform="matrix(1,0,0,1,5.05,13.314)" id="mark9 l" />
  <path d="M 0 185.260159932091 L 25 185.260159932091 L 25 186.760159932091 L 0 186.760159932091 Z " stroke="none" fill-rule="evenodd" fill="#000000" fill-opacity="1" transform="matrix(1,0,0,1,5.05,13.314)" id="mark10 l" />
  <path d="M 14.323999999999998 184.21015993209102 L 14.323999999999998 178.76615993209103 L 13.871999999999998 178.76615993209103 L 13.839999999999998 178.386159932091 L 14.543999999999999 177.810159932091 L 15.424 177.810159932091 L 15.424 184.21015993209102 Z M 16.196 182.798159932091 C 16.188000000000002 182.36882659875766, 16.182666666666666 181.952159932091, 16.18 181.548159932091 C 16.177333333333333 181.14415993209101, 16.177999999999997 180.7488265987577, 16.182 180.362159932091 C 16.186 179.97549326542435, 16.190666666666665 179.59415993209103, 16.196 179.21815993209103 C 16.209333333333333 178.77815993209103, 16.334000000000003 178.43282659875769, 16.57 178.18215993209103 C 16.805999999999997 177.93149326542436, 17.142666666666663 177.786159932091, 17.58 177.74615993209102 L 17.58 178.63415993209102 C 17.382666666666665 178.69015993209103, 17.281333333333333 178.81949326542437, 17.276 179.02215993209103 C 17.262666666666668 179.3928265987577, 17.253333333333334 179.74082659875768, 17.248 180.066159932091 C 17.242666666666665 180.39149326542434, 17.24 180.708159932091, 17.24 181.01615993209103 C 17.24 181.32415993209102, 17.242666666666665 181.63882659875767, 17.248 181.96015993209102 C 17.253333333333334 182.28149326542436, 17.262666666666668 182.6248265987577, 17.276 182.99015993209102 C 17.281333333333333 183.19815993209102, 17.382666666666665 183.33015993209102, 17.58 183.386159932091 L 17.58 184.274159932091 C 17.142666666666663 184.23415993209102, 16.805999999999997 184.088159932091, 16.57 183.83615993209102 C 16.334000000000003 183.584159932091, 16.209333333333333 183.238159932091, 16.196 182.798159932091 Z M 18.084 184.274159932091 L 18.084 183.382159932091 C 18.268 183.3288265987577, 18.366666666666667 183.20482659875768, 18.38 183.01015993209103 C 18.398666666666667 182.54349326542433, 18.410666666666668 182.09482659875766, 18.416 181.66415993209102 C 18.421333333333333 181.23349326542433, 18.421333333333333 180.8028265987577, 18.416 180.37215993209102 C 18.410666666666668 179.94149326542436, 18.398666666666667 179.48882659875767, 18.38 179.01415993209102 C 18.374666666666666 178.81949326542434, 18.276 178.69282659875768, 18.084 178.63415993209102 L 18.084 177.74615993209102 C 18.513333333333335 177.786159932091, 18.846666666666668 177.93149326542436, 19.084 178.18215993209103 C 19.321333333333335 178.43282659875769, 19.445333333333334 178.77815993209103, 19.456 179.21815993209103 C 19.46666666666667 179.53282659875768, 19.474666666666668 179.84282659875765, 19.48 180.148159932091 C 19.485333333333333 180.45349326542436, 19.488 180.754159932091, 19.488 181.05015993209102 C 19.488 181.346159932091, 19.485333333333333 181.63949326542433, 19.48 181.93015993209102 C 19.474666666666668 182.2208265987577, 19.46666666666667 182.51015993209103, 19.456 182.798159932091 C 19.439999999999998 183.2488265987577, 19.311999999999998 183.59749326542436, 19.072 183.844159932091 C 18.832 184.09082659875767, 18.502666666666666 184.23415993209102, 18.084 184.274159932091 Z M 21.944 184.21015993209102 L 21.944 177.810159932091 L 23.003999999999998 177.810159932091 L 23.003999999999998 184.21015993209102 Z " stroke="none" fill-rule="nonzero" fill="#000000" fill-opacity="1" transform="matrix(1,0,0,1,5.05,13.314)" id="text10 l" />
  <path d="M 0 175.95965193548645 L 10 175.95965193548645 L 10 177.45965193548645 L 0 177.45965193548645 Z " stroke="none" fill-rule="evenodd" fill="#000000" fill-opacity="1" transform="matrix(1,0,0,1,5.05,13.314)" id="mark11 l" />
  <path d="M 0 166.6591439388819 L 10 166.6591439388819 L 10 168.1591439388819 L 0 168.1591439388819 Z " stroke="none" fill-rule="evenodd" fill="#000000" fill-opacity="1" transform="matrix(1,0,0,1,5.05,13.314)" id="mark12 l" />
  <path d="M 0 157.35863594227735 L 10 157.35863594227735 L 10 158.85863594227735 L 0 158.85863594227735 Z " stroke="none" fill-rule="evenodd" fill="#000000" fill-opacity="1" transform="matrix(1,0,0,1,5.05,13.314)" id="mark13 l" />
  <path d="M 0 148.0581279456728 L 10 148.0581279456728 L 10 149.5581279456728 L 0 149.5581279456728 Z " stroke="none" fill-rule="evenodd" fill="#000000" fill-opacity="1" transform="matrix(1,0,0,1,5.05,13.314)" id="mark14 l" />
  <path d="M 0 138.75761994906824 L 25 138.75761994906824 L 25 140.25761994906824 L 0 140.25761994906824 Z " stroke="none" fill-rule="evenodd" fill="#000000" fill-opacity="1" transform="matrix(1,0,0,1,5.05,13.314)" id="mark15 l" />
  <path d="M 14.331999999999999 137.67561994906825 L 14.331999999999999 132.23161994906826 L 13.879999999999999 132.23161994906826 L 13.847999999999999 131.85161994906824 L 14.552 131.27561994906824 L 15.432 131.27561994906824 L 15.432 137.67561994906825 Z M 16.18 136.25961994906825 C 16.174666666666667 136.08628661573493, 16.173333333333332 135.94695328240158, 16.176 135.84161994906825 C 16.178666666666665 135.7362866157349, 16.181333333333335 135.63428661573494, 16.183999999999997 135.53561994906826 L 17.264 135.53561994906826 C 17.256 135.61295328240158, 17.25 135.70895328240158, 17.246 135.82361994906825 C 17.241999999999997 135.9382866157349, 17.240666666666666 136.04895328240158, 17.241999999999997 136.15561994906824 C 17.243333333333332 136.2622866157349, 17.246666666666666 136.3422866157349, 17.252 136.39561994906825 C 17.262666666666668 136.51561994906825, 17.297333333333334 136.61361994906827, 17.355999999999998 136.68961994906826 C 17.414666666666665 136.76561994906825, 17.497333333333334 136.81961994906823, 17.604 136.85161994906824 L 17.604 137.74361994906826 C 17.110666666666663 137.7062866157349, 16.75333333333333 137.57161994906824, 16.532 137.33961994906824 C 16.310666666666666 137.10761994906824, 16.19333333333333 136.74761994906825, 16.18 136.25961994906825 Z M 16.279999999999998 134.92361994906824 L 16.279999999999998 131.27561994906824 L 17.348 131.27561994906824 L 17.348 134.92361994906824 Z M 17.852 134.49961994906826 L 17.852 133.74361994906826 C 17.929333333333332 133.70361994906824, 18.014666666666667 133.67161994906826, 18.107999999999997 133.64761994906826 C 18.20133333333333 133.62361994906826, 18.301333333333332 133.61161994906826, 18.407999999999998 133.61161994906826 C 18.773333333333333 133.61161994906826, 19.047333333333334 133.72695328240158, 19.23 133.95761994906826 C 19.412666666666667 134.18828661573494, 19.514666666666663 134.50228661573493, 19.535999999999998 134.89961994906824 C 19.546666666666667 135.05961994906824, 19.55333333333333 135.2182866157349, 19.555999999999997 135.37561994906824 C 19.558666666666664 135.5329532824016, 19.557333333333332 135.68628661573493, 19.552 135.83561994906825 C 19.546666666666667 135.98495328240156, 19.538666666666668 136.12495328240158, 19.528 136.25561994906826 C 19.482666666666667 136.75428661573494, 19.353333333333335 137.11961994906824, 19.14 137.35161994906824 C 18.926666666666666 137.58361994906824, 18.581333333333333 137.71428661573492, 18.104 137.74361994906826 L 18.104 136.85161994906824 C 18.21333333333333 136.82228661573492, 18.296 136.76961994906824, 18.352 136.69361994906825 C 18.408 136.61761994906826, 18.44 136.51828661573492, 18.448 136.39561994906825 C 18.471999999999998 136.10495328240157, 18.485999999999997 135.84361994906826, 18.49 135.61161994906826 C 18.494 135.37961994906826, 18.485333333333333 135.1582866157349, 18.464 134.94761994906824 C 18.447999999999997 134.79295328240158, 18.396666666666665 134.67761994906823, 18.31 134.60161994906824 C 18.223333333333333 134.52561994906824, 18.090666666666664 134.48761994906826, 17.912 134.48761994906826 C 17.901333333333334 134.48761994906826, 17.890666666666668 134.48895328240158, 17.88 134.49161994906825 C 17.86933333333333 134.49428661573492, 17.86 134.4969532824016, 17.852 134.49961994906826 Z M 17.852 132.20761994906826 L 17.852 131.27561994906824 L 19.439999999999998 131.27561994906824 L 19.439999999999998 132.20761994906826 Z M 21.944 137.67561994906825 L 21.944 131.27561994906824 L 23.003999999999998 131.27561994906824 L 23.003999999999998 137.67561994906825 Z " stroke="none" fill-rule="nonzero" fill="#000000" fill-opacity="1" transform="matrix(1,0,0,1,5.05,13.314)" id="text15 l" />
  <path d="M 0 129.4571119524637 L 10 129.4571119524637 L 10 130.9571119524637 L 0 130.9571119524637 Z " stroke="none" fill-rule="evenodd" fill="#000000" fill-opacity="1" transform="matrix(1,0,0,1,5.05,13.314)" id="mark16 l" />
  <path d="M 0 120.15660395585914 L 10 120.15660395585914 L 10 121.65660395585914 L 0 121.65660395585914 Z " stroke="none" fill-rule="evenodd" fill="#000000" fill-opacity="1" transform="matrix(1,0,0,1,5.05,13.314)" id="mark17 l" />
  <path d="M 0 110.85609595925459 L 10 110.85609595925459 L 10 112.35609595925459 L 0 112.35609595925459 Z " stroke="none" fill-rule="evenodd" fill="#000000" fill-opacity="1" transform="matrix(1,0,0,1,5.05,13.314)" id="mark18 l" />
  <path d="M 0 101.55558796265004 L 10 101.55558796265004 L 10 103.05558796265004 L 0 103.05558796265004 Z " stroke="none" fill-rule="evenodd" fill="#000000" fill-opacity="1" transform="matrix(1,0,0,1,5.05,13.314)" id="mark19 l" />
  <path d="M 0 92.25507996604551 L 25 92.25507996604551 L 25 93.75507996604551 L 0 93.75507996604551 Z " stroke="none" fill-rule="evenodd" fill="#000000" fill-opacity="1" transform="matrix(1,0,0,1,5.05,13.314)" id="mark20 l" />
  <path d="M 12.319999999999999 91.20507996604552 C 12.317333333333334 91.10641329937886, 12.315333333333331 91.01774663271219, 12.313999999999998 90.93907996604551 C 12.312666666666665 90.86041329937885, 12.311333333333334 90.78641329937885, 12.309999999999999 90.71707996604552 C 12.308666666666667 90.64774663271218, 12.308 90.5757466327122, 12.308 90.50107996604552 C 12.308 90.42641329937885, 12.308 90.34174663271219, 12.308 90.24707996604552 C 12.308 90.15241329937885, 12.309333333333335 90.04107996604552, 12.312 89.91307996604552 C 12.32 89.61974663271218, 12.37 89.35774663271218, 12.462 89.12707996604551 C 12.554 88.89641329937885, 12.687999999999999 88.69041329937885, 12.863999999999999 88.50907996604552 C 13.04 88.32774663271218, 13.257333333333333 88.16641329937885, 13.515999999999998 88.02507996604551 L 14.047999999999998 87.73707996604551 C 14.234666666666666 87.63574663271217, 14.354 87.51374663271218, 14.405999999999999 87.37107996604551 C 14.457999999999998 87.22841329937884, 14.488 87.09441329937886, 14.495999999999999 86.96907996604551 C 14.506666666666664 86.82241329937884, 14.512666666666664 86.66574663271217, 14.514 86.49907996604551 C 14.51533333333333 86.33241329937886, 14.511999999999997 86.17574663271219, 14.504 86.02907996604551 C 14.498666666666665 85.92507996604553, 14.468666666666666 85.83907996604552, 14.413999999999998 85.77107996604552 C 14.359333333333332 85.70307996604552, 14.279999999999998 85.65441329937885, 14.175999999999998 85.62507996604552 L 14.175999999999998 84.73707996604551 C 14.663999999999998 84.76907996604552, 15.014 84.90041329937885, 15.225999999999999 85.13107996604552 C 15.437999999999999 85.36174663271218, 15.554666666666666 85.72241329937886, 15.575999999999999 86.21307996604551 C 15.578666666666663 86.27707996604552, 15.580666666666666 86.34241329937885, 15.581999999999999 86.40907996604551 C 15.583333333333332 86.47574663271217, 15.584 86.54041329937886, 15.584 86.60307996604551 C 15.584 86.66574663271219, 15.583333333333332 86.72774663271218, 15.581999999999999 86.78907996604552 C 15.580666666666666 86.85041329937886, 15.578666666666663 86.91041329937886, 15.575999999999999 86.96907996604551 C 15.565333333333331 87.25441329937885, 15.512 87.50107996604552, 15.415999999999999 87.70907996604552 C 15.32 87.91707996604552, 15.19 88.09707996604551, 15.026 88.24907996604551 C 14.862 88.40107996604551, 14.672 88.53707996604552, 14.456 88.65707996604552 L 13.851999999999999 88.98507996604552 C 13.737333333333332 89.04641329937886, 13.647333333333332 89.13041329937886, 13.581999999999999 89.23707996604551 C 13.516666666666666 89.34374663271217, 13.469999999999999 89.45707996604551, 13.441999999999998 89.57707996604552 C 13.413999999999998 89.69707996604552, 13.399999999999999 89.80907996604552, 13.399999999999999 89.91307996604552 L 13.399999999999999 91.20507996604552 Z M 12.328 87.16507996604551 C 12.322666666666667 87.04774663271219, 12.318666666666665 86.93307996604553, 12.315999999999999 86.82107996604552 C 12.313333333333333 86.70907996604551, 12.311333333333334 86.60307996604551, 12.309999999999999 86.50307996604552 C 12.308666666666667 86.40307996604551, 12.309333333333335 86.30641329937885, 12.312 86.21307996604551 C 12.330666666666666 85.72507996604551, 12.447333333333333 85.36574663271219, 12.661999999999999 85.13507996604551 C 12.876666666666665 84.90441329937886, 13.213333333333331 84.7717466327122, 13.671999999999999 84.73707996604551 L 13.671999999999999 85.62907996604552 C 13.576 85.65841329937885, 13.505333333333333 85.70507996604552, 13.459999999999999 85.76907996604552 C 13.414666666666665 85.83307996604552, 13.390666666666664 85.91041329937886, 13.387999999999998 86.00107996604552 C 13.382666666666665 86.20907996604552, 13.379333333333333 86.40241329937885, 13.378 86.58107996604552 C 13.376666666666667 86.7597466327122, 13.381333333333334 86.95441329937886, 13.392 87.16507996604551 Z M 13.904 91.20507996604552 L 13.904 90.27307996604551 L 15.5 90.27307996604551 L 15.5 91.20507996604552 Z M 16.196 89.79307996604551 C 16.188000000000002 89.36374663271218, 16.182666666666666 88.94707996604552, 16.18 88.54307996604551 C 16.177333333333333 88.13907996604551, 16.177999999999997 87.74374663271217, 16.182 87.35707996604552 C 16.186 86.97041329937886, 16.190666666666665 86.58907996604552, 16.196 86.21307996604551 C 16.209333333333333 85.77307996604551, 16.334000000000003 85.42774663271219, 16.57 85.17707996604551 C 16.805999999999997 84.92641329937885, 17.142666666666663 84.78107996604552, 17.58 84.74107996604552 L 17.58 85.62907996604552 C 17.382666666666665 85.68507996604552, 17.281333333333333 85.81441329937884, 17.276 86.01707996604551 C 17.262666666666668 86.38774663271218, 17.253333333333334 86.73574663271218, 17.248 87.06107996604551 C 17.242666666666665 87.38641329937884, 17.24 87.70307996604551, 17.24 88.01107996604551 C 17.24 88.31907996604552, 17.242666666666665 88.63374663271219, 17.248 88.95507996604552 C 17.253333333333334 89.27641329937885, 17.262666666666668 89.61974663271218, 17.276 89.98507996604552 C 17.281333333333333 90.19307996604552, 17.382666666666665 90.32507996604552, 17.58 90.38107996604552 L 17.58 91.26907996604551 C 17.142666666666663 91.22907996604552, 16.805999999999997 91.08307996604552, 16.57 90.83107996604552 C 16.334000000000003 90.57907996604553, 16.209333333333333 90.23307996604552, 16.196 89.79307996604551 Z M 18.084 91.26907996604551 L 18.084 90.37707996604551 C 18.268 90.32374663271219, 18.366666666666667 90.19974663271219, 18.38 90.00507996604551 C 18.398666666666667 89.53841329937885, 18.410666666666668 89.08974663271218, 18.416 88.65907996604551 C 18.421333333333333 88.22841329937884, 18.421333333333333 87.79774663271219, 18.416 87.36707996604552 C 18.410666666666668 86.93641329937886, 18.398666666666667 86.48374663271218, 18.38 86.00907996604552 C 18.374666666666666 85.81441329937886, 18.276 85.68774663271219, 18.084 85.62907996604552 L 18.084 84.74107996604552 C 18.513333333333335 84.78107996604552, 18.846666666666668 84.92641329937885, 19.084 85.17707996604551 C 19.321333333333335 85.42774663271219, 19.445333333333334 85.77307996604551, 19.456 86.21307996604551 C 19.46666666666667 86.52774663271218, 19.474666666666668 86.83774663271218, 19.48 87.14307996604552 C 19.485333333333333 87.44841329937886, 19.488 87.74907996604551, 19.488 88.04507996604552 C 19.488 88.34107996604553, 19.485333333333333 88.63441329937885, 19.48 88.92507996604552 C 19.474666666666668 89.21574663271218, 19.46666666666667 89.50507996604551, 19.456 89.79307996604551 C 19.439999999999998 90.24374663271217, 19.311999999999998 90.59241329937885, 19.072 90.83907996604552 C 18.832 91.08574663271219, 18.502666666666666 91.22907996604552, 18.084 91.26907996604551 Z M 21.944 91.20507996604552 L 21.944 84.80507996604551 L 23.003999999999998 84.80507996604551 L 23.003999999999998 91.20507996604552 Z " stroke="none" fill-rule="nonzero" fill="#000000" fill-opacity="1" transform="matrix(1,0,0,1,5.05,13.314)" id="text20 l" />
  <path d="M 0 82.95457196944096 L 10 82.95457196944096 L 10 84.45457196944096 L 0 84.45457196944096 Z " stroke="none" fill-rule="evenodd" fill="#000000" fill-opacity="1" transform="matrix(1,0,0,1,5.05,13.314)" id="mark21 l" />
  <path d="M 0 73.65406397283641 L 10 73.65406397283641 L 10 75.15406397283641 L 0 75.15406397283641 Z " stroke="none" fill-rule="evenodd" fill="#000000" fill-opacity="1" transform="matrix(1,0,0,1,5.05,13.314)" id="mark22 l" />
  <path d="M 0 64.35355597623186 L 10 64.35355597623186 L 10 65.85355597623186 L 0 65.85355597623186 Z " stroke="none" fill-rule="evenodd" fill="#000000" fill-opacity="1" transform="matrix(1,0,0,1,5.05,13.314)" id="mark23 l" />
  <path d="M 0 55.05304797962731 L 10 55.05304797962731 L 10 56.55304797962731 L 0 56.55304797962731 Z " stroke="none" fill-rule="evenodd" fill="#000000" fill-opacity="1" transform="matrix(1,0,0,1,5.05,13.314)" id="mark24 l" />
  <path d="M 0 45.75253998302276 L 25 45.75253998302276 L 25 47.25253998302276 L 0 47.25253998302276 Z " stroke="none" fill-rule="evenodd" fill="#000000" fill-opacity="1" transform="matrix(1,0,0,1,5.05,13.314)" id="mark25 l" />
  <path d="M 12.328 44.70253998302276 C 12.325333333333333 44.60387331635609, 12.323333333333332 44.515206649689425, 12.322 44.43653998302276 C 12.320666666666666 44.35787331635609, 12.319333333333333 44.28387331635609, 12.318 44.21453998302276 C 12.316666666666666 44.14520664968943, 12.315999999999999 44.073206649689425, 12.316 43.99853998302276 C 12.315999999999999 43.923873316356094, 12.315999999999999 43.83920664968942, 12.316 43.74453998302276 C 12.315999999999999 43.64987331635609, 12.317333333333334 43.53853998302276, 12.32 43.41053998302276 C 12.328 43.11720664968943, 12.378 42.85520664968943, 12.47 42.62453998302276 C 12.562000000000001 42.39387331635609, 12.696 42.18787331635609, 12.872 42.00653998302276 C 13.048 41.82520664968942, 13.265333333333334 41.66387331635609, 13.524000000000001 41.52253998302276 L 14.056000000000001 41.234539983022756 C 14.242666666666668 41.13320664968943, 14.362000000000002 41.01120664968943, 14.414 40.86853998302276 C 14.466000000000001 40.725873316356086, 14.495999999999999 40.59187331635609, 14.504 40.46653998302276 C 14.514666666666667 40.319873316356095, 14.520666666666667 40.16320664968943, 14.522 39.99653998302276 C 14.523333333333333 39.829873316356085, 14.520000000000001 39.67320664968942, 14.512 39.52653998302276 C 14.506666666666666 39.42253998302276, 14.476666666666667 39.33653998302276, 14.422 39.26853998302276 C 14.367333333333335 39.200539983022765, 14.288 39.151873316356095, 14.184000000000001 39.12253998302276 L 14.184000000000001 38.234539983022756 C 14.672 38.26653998302275, 15.022000000000002 38.39787331635609, 15.234 38.62853998302276 C 15.446000000000002 38.859206649689426, 15.562666666666667 39.21987331635609, 15.584 39.71053998302276 C 15.586666666666668 39.77453998302276, 15.588666666666668 39.83987331635609, 15.59 39.90653998302276 C 15.591333333333335 39.97320664968943, 15.592000000000002 40.0378733163561, 15.592 40.100539983022756 C 15.592000000000002 40.16320664968943, 15.591333333333335 40.225206649689426, 15.59 40.28653998302276 C 15.588666666666668 40.34787331635609, 15.586666666666668 40.407873316356095, 15.584 40.46653998302276 C 15.573333333333332 40.7518733163561, 15.52 40.99853998302276, 15.424 41.20653998302276 C 15.328 41.41453998302276, 15.197999999999999 41.59453998302276, 15.033999999999999 41.74653998302276 C 14.87 41.89853998302276, 14.68 42.03453998302276, 14.464 42.15453998302276 L 13.86 42.48253998302276 C 13.745333333333335 42.54387331635609, 13.655333333333335 42.62787331635609, 13.59 42.734539983022756 C 13.524666666666668 42.841206649689425, 13.478000000000002 42.95453998302276, 13.45 43.07453998302276 C 13.422 43.19453998302276, 13.408 43.30653998302276, 13.408 43.41053998302276 L 13.408 44.70253998302276 Z M 12.336 40.66253998302276 C 12.330666666666666 40.545206649689426, 12.326666666666664 40.43053998302276, 12.324 40.31853998302276 C 12.321333333333332 40.20653998302276, 12.319333333333333 40.100539983022756, 12.318 40.00053998302276 C 12.316666666666666 39.90053998302275, 12.317333333333334 39.80387331635609, 12.32 39.71053998302276 C 12.338666666666668 39.222539983022756, 12.455333333333336 38.863206649689424, 12.67 38.63253998302276 C 12.884666666666668 38.401873316356095, 13.221333333333334 38.26920664968942, 13.68 38.234539983022756 L 13.68 39.12653998302276 C 13.584 39.15587331635609, 13.513333333333332 39.20253998302276, 13.468 39.26653998302276 C 13.422666666666668 39.33053998302276, 13.398666666666667 39.40787331635609, 13.396 39.49853998302276 C 13.390666666666666 39.70653998302276, 13.387333333333332 39.89987331635609, 13.386 40.07853998302276 C 13.384666666666666 40.25720664968942, 13.389333333333333 40.45187331635609, 13.4 40.66253998302276 Z M 13.911999999999999 44.70253998302276 L 13.911999999999999 43.77053998302276 L 15.508 43.77053998302276 L 15.508 44.70253998302276 Z M 16.18 43.28653998302276 C 16.174666666666667 43.113206649689424, 16.173333333333332 42.97387331635609, 16.176 42.86853998302276 C 16.178666666666665 42.76320664968943, 16.181333333333335 42.66120664968943, 16.183999999999997 42.56253998302276 L 17.264 42.56253998302276 C 17.256 42.63987331635609, 17.25 42.73587331635609, 17.246 42.85053998302276 C 17.241999999999997 42.96520664968943, 17.240666666666666 43.075873316356095, 17.241999999999997 43.18253998302276 C 17.243333333333332 43.289206649689426, 17.246666666666666 43.369206649689424, 17.252 43.42253998302276 C 17.262666666666668 43.542539983022756, 17.297333333333334 43.64053998302276, 17.355999999999998 43.71653998302276 C 17.414666666666665 43.79253998302276, 17.497333333333334 43.84653998302276, 17.604 43.87853998302276 L 17.604 44.77053998302276 C 17.110666666666663 44.73320664968943, 16.75333333333333 44.59853998302276, 16.532 44.36653998302276 C 16.310666666666666 44.13453998302276, 16.19333333333333 43.77453998302276, 16.18 43.28653998302276 Z M 16.279999999999998 41.95053998302276 L 16.279999999999998 38.30253998302276 L 17.348 38.30253998302276 L 17.348 41.95053998302276 Z M 17.852 41.52653998302276 L 17.852 40.77053998302276 C 17.929333333333332 40.73053998302276, 18.014666666666667 40.69853998302276, 18.107999999999997 40.67453998302276 C 18.20133333333333 40.65053998302276, 18.301333333333332 40.63853998302276, 18.407999999999998 40.63853998302276 C 18.773333333333333 40.63853998302276, 19.047333333333334 40.75387331635609, 19.23 40.984539983022756 C 19.412666666666667 41.21520664968943, 19.514666666666663 41.52920664968943, 19.535999999999998 41.926539983022764 C 19.546666666666667 42.08653998302276, 19.55333333333333 42.24520664968943, 19.555999999999997 42.40253998302276 C 19.558666666666664 42.5598733163561, 19.557333333333332 42.713206649689425, 19.552 42.86253998302276 C 19.546666666666667 43.011873316356095, 19.538666666666668 43.151873316356095, 19.528 43.28253998302276 C 19.482666666666667 43.78120664968943, 19.353333333333335 44.14653998302276, 19.14 44.37853998302276 C 18.926666666666666 44.61053998302276, 18.581333333333333 44.741206649689424, 18.104 44.77053998302276 L 18.104 43.87853998302276 C 18.21333333333333 43.84920664968943, 18.296 43.79653998302276, 18.352 43.72053998302276 C 18.408 43.64453998302276, 18.44 43.545206649689426, 18.448 43.42253998302276 C 18.471999999999998 43.13187331635609, 18.485999999999997 42.87053998302276, 18.49 42.63853998302276 C 18.494 42.40653998302276, 18.485333333333333 42.18520664968943, 18.464 41.97453998302276 C 18.447999999999997 41.819873316356095, 18.396666666666665 41.70453998302276, 18.31 41.62853998302276 C 18.223333333333333 41.55253998302276, 18.090666666666664 41.51453998302276, 17.912 41.51453998302276 C 17.901333333333334 41.51453998302276, 17.890666666666668 41.51587331635609, 17.88 41.51853998302276 C 17.86933333333333 41.52120664968943, 17.86 41.523873316356095, 17.852 41.52653998302276 Z M 17.852 39.234539983022756 L 17.852 38.30253998302276 L 19.439999999999998 38.30253998302276 L 19.439999999999998 39.234539983022756 Z M 21.944 44.70253998302276 L 21.944 38.30253998302276 L 23.003999999999998 38.30253998302276 L 23.003999999999998 44.70253998302276 Z " stroke="none" fill-rule="nonzero" fill="#000000" fill-opacity="1" transform="matrix(1,0,0,1,5.05,13.314)" id="text25 l" />
  <path d="M 0 36.452031986418206 L 10 36.452031986418206 L 10 37.952031986418206 L 0 37.952031986418206 Z " stroke="none" fill-rule="evenodd" fill="#000000" fill-opacity="1" transform="matrix(1,0,0,1,5.05,13.314)" id="mark26 l" />
  <path d="M 0 27.151523989813654 L 10 27.151523989813654 L 10 28.651523989813654 L 0 28.651523989813654 Z " stroke="none" fill-rule="evenodd" fill="#000000" fill-opacity="1" transform="matrix(1,0,0,1,5.05,13.314)" id="mark27 l" />
  <path d="M 0 17.851015993209103 L 10 17.851015993209103 L 10 19.351015993209103 L 0 19.351015993209103 Z " stroke="none" fill-rule="evenodd" fill="#000000" fill-opacity="1" transform="matrix(1,0,0,1,5.05,13.314)" id="mark28 l" />
  <path d="M 0 8.550507996604551 L 10 8.550507996604551 L 10 10.050507996604551 L 0 10.050507996604551 Z " stroke="none" fill-rule="evenodd" fill="#000000" fill-opacity="1" transform="matrix(1,0,0,1,5.05,13.314)" id="mark29 l" />
  <path d="M 0 -0.75 L 25 -0.75 L 25 0.75 L 0 0.75 Z " stroke="none" fill-rule="evenodd" fill="#000000" fill-opacity="1" transform="matrix(1,0,0,1,5.05,13.314)" id="mark30 l" />
  <path d="M 12.223999999999998 -3.2159999999999997 C 12.221333333333334 -3.317333333333333, 12.219333333333333 -3.4013333333333335, 12.218 -3.468 C 12.216666666666667 -3.5346666666666664, 12.216666666666667 -3.602666666666666, 12.218 -3.6719999999999997 C 12.219333333333333 -3.7413333333333334, 12.221333333333334 -3.8306666666666667, 12.223999999999998 -3.94 L 13.303999999999998 -3.94 L 13.303999999999998 -3.0759999999999996 C 13.303999999999998 -2.8386666666666667, 13.417333333333332 -2.6879999999999997, 13.643999999999998 -2.6239999999999997 L 13.643999999999998 -1.7319999999999998 C 13.155999999999999 -1.7693333333333332, 12.800666666666665 -1.904, 12.578 -2.1359999999999997 C 12.355333333333334 -2.368, 12.237333333333332 -2.7279999999999998, 12.223999999999998 -3.2159999999999997 Z M 12.292 -7.268 L 12.292 -8.2 L 15.536 -8.2 L 15.536 -7.268 Z M 14.143999999999998 -2.6199999999999997 C 14.367999999999999 -2.6759999999999997, 14.483999999999998 -2.826666666666666, 14.491999999999999 -3.072 C 14.497333333333334 -3.2746666666666666, 14.500666666666666 -3.4573333333333336, 14.501999999999999 -3.62 C 14.503333333333332 -3.7826666666666666, 14.498666666666665 -3.94, 14.488 -4.092 C 14.48 -4.2493333333333325, 14.431999999999999 -4.382666666666666, 14.344 -4.492 C 14.256 -4.601333333333333, 14.089333333333332 -4.653333333333332, 13.844 -4.648 L 13.096 -4.64 L 13.068 -5.532 L 14.027999999999999 -6.9159999999999995 L 15.216 -6.9159999999999995 L 14.248 -5.564 L 14.28 -5.564 C 14.712 -5.564, 15.028666666666666 -5.441333333333334, 15.229999999999999 -5.196 C 15.431333333333333 -4.950666666666666, 15.544 -4.573333333333332, 15.568 -4.064 C 15.57333333333333 -3.992, 15.576666666666664 -3.92, 15.578 -3.848 C 15.57933333333333 -3.776, 15.579999999999998 -3.705333333333333, 15.579999999999998 -3.6359999999999997 C 15.579999999999998 -3.5666666666666664, 15.57933333333333 -3.4973333333333336, 15.578 -3.428 C 15.576666666666664 -3.3586666666666662, 15.57333333333333 -3.2879999999999994, 15.568 -3.2159999999999997 C 15.549333333333333 -2.7199999999999998, 15.428666666666665 -2.3553333333333333, 15.206 -2.122 C 14.983333333333334 -1.8886666666666665, 14.630666666666666 -1.7586666666666664, 14.148 -1.7319999999999998 Z M 16.196 -3.2119999999999997 C 16.188000000000002 -3.641333333333333, 16.182666666666666 -4.058, 16.18 -4.462 C 16.177333333333333 -4.866, 16.177999999999997 -5.261333333333333, 16.182 -5.648 C 16.186 -6.034666666666666, 16.190666666666665 -6.416, 16.196 -6.792 C 16.209333333333333 -7.231999999999999, 16.334000000000003 -7.577333333333334, 16.57 -7.828 C 16.805999999999997 -8.078666666666667, 17.142666666666663 -8.224, 17.58 -8.264 L 17.58 -7.3759999999999994 C 17.382666666666665 -7.32, 17.281333333333333 -7.190666666666667, 17.276 -6.9879999999999995 C 17.262666666666668 -6.617333333333333, 17.253333333333334 -6.269333333333333, 17.248 -5.944 C 17.242666666666665 -5.618666666666666, 17.24 -5.302, 17.24 -4.994 C 17.24 -4.686, 17.242666666666665 -4.371333333333333, 17.248 -4.05 C 17.253333333333334 -3.7286666666666664, 17.262666666666668 -3.3853333333333326, 17.276 -3.0199999999999996 C 17.281333333333333 -2.812, 17.382666666666665 -2.6799999999999997, 17.58 -2.6239999999999997 L 17.58 -1.7359999999999998 C 17.142666666666663 -1.7759999999999998, 16.805999999999997 -1.9219999999999997, 16.57 -2.174 C 16.334000000000003 -2.4259999999999997, 16.209333333333333 -2.772, 16.196 -3.2119999999999997 Z M 18.084 -1.7359999999999998 L 18.084 -2.6279999999999997 C 18.268 -2.681333333333333, 18.366666666666667 -2.8053333333333335, 18.38 -3 C 18.398666666666667 -3.4666666666666663, 18.410666666666668 -3.915333333333333, 18.416 -4.346 C 18.421333333333333 -4.776666666666666, 18.421333333333333 -5.207333333333333, 18.416 -5.638 C 18.410666666666668 -6.068666666666666, 18.398666666666667 -6.521333333333333, 18.38 -6.9959999999999996 C 18.374666666666666 -7.190666666666667, 18.276 -7.317333333333334, 18.084 -7.3759999999999994 L 18.084 -8.264 C 18.513333333333335 -8.224, 18.846666666666668 -8.078666666666667, 19.084 -7.828 C 19.321333333333335 -7.577333333333334, 19.445333333333334 -7.231999999999999, 19.456 -6.792 C 19.46666666666667 -6.477333333333332, 19.474666666666668 -6.167333333333333, 19.48 -5.861999999999999 C 19.485333333333333 -5.556666666666667, 19.488 -5.256, 19.488 -4.96 C 19.488 -4.664, 19.485333333333333 -4.370666666666667, 19.48 -4.08 C 19.474666666666668 -3.7893333333333334, 19.46666666666667 -3.5, 19.456 -3.2119999999999997 C 19.439999999999998 -2.761333333333333, 19.311999999999998 -2.4126666666666665, 19.072 -2.166 C 18.832 -1.9193333333333331, 18.502666666666666 -1.7759999999999998, 18.084 -1.7359999999999998 Z M 21.944 -1.7999999999999998 L 21.944 -8.2 L 23.003999999999998 -8.2 L 23.003999999999998 -1.7999999999999998 Z " stroke="none" fill-rule="nonzero" fill="#000000" fill-opacity="1" transform="matrix(1,0,0,1,5.05,13.314)" id="text30 l" />
  <path d="M -5 -13.264 L 30 -13.264 L 30 267.18222390492735 L -5 267.18222390492735 Z " stroke="#FF0000" stroke-opacity="1" stroke-width="0.1" stroke-linecap="butt" stroke-linejoin="miter" fill="none" transform="matrix(1,0,0,1,5.05,13.314)" />
</svg>