<?xml version="1.0" encoding="UTF-8"?>
<svg xmlns:xlink="http://www.w3.org/1999/xlink" viewBox="0 0 34.1 354.1288929089161" version="1.1" style="font-synthesis: none;" width="34.1mm" height="354.12889290891616mm" xmlns="http://www.w3.org/2000/svg">
  <defs />
  <style>	</style>
  <path d="M 0 0 L 34.1 0 L 34.1 354.1288929089161 L 0 354.1288929089161 Z " stroke="none" fill-rule="nonzero" fill="#FFFFFF" fill-opacity="1" transform="matrix(1,0,0,1,0,0)" />
  <path d="M 0 333.2788929089162 L 10 333.2788929089162 L 10 334.7788929089162 L 0 334.7788929089162 Z " stroke="none" fill-rule="evenodd" fill="#000000" fill-opacity="1" transform="matrix(1,0,0,1,5.05,13.314)" id="mark1 l" />
  <path d="M 0 323.45451370571277 L 10 323.45451370571277 L 10 324.95451370571277 L 0 324.95451370571277 Z " stroke="none" fill-rule="evenodd" fill="#000000" fill-opacity="1" transform="matrix(1,0,0,1,5.05,13.314)" id="mark2 l" />
  <path d="M 0 313.63013450250935 L 10 313.63013450250935 L 10 315.13013450250935 L 0 315.13013450250935 Z " stroke="none" fill-rule="evenodd" fill="#000000" fill-opacity="1" transform="matrix(1,0,0,1,5.05,13.314)" id="mark3 l" />
  <path d="M 0 303.80575529930593 L 10 303.80575529930593 L 10 305.30575529930593 L 0 305.30575529930593 Z " stroke="none" fill-rule="evenodd" fill="#000000" fill-opacity="1" transform="matrix(1,0,0,1,5.05,13.314)" id="mark4 l" />
  <path d="M 0 293.9813760961025 L 24 293.9813760961025 L 24 295.4813760961025 L 0 295.4813760961025 Z " stroke="none" fill-rule="evenodd" fill="#000000" fill-opacity="1" transform="matrix(1,0,0,1,5.05,13.314)" id="mark5 l" />
  <path d="M 15.180000000000001 291.4833760961025 C 15.174666666666667 291.31004276276917, 15.173333333333332 291.1707094294359, 15.176 291.0653760961025 C 15.178666666666668 290.96004276276915, 15.181333333333335 290.8580427627692, 15.184000000000001 290.7593760961025 L 16.264 290.7593760961025 C 16.256 290.83670942943587, 16.250000000000004 290.9327094294359, 16.246000000000002 291.04737609610254 C 16.242 291.1620427627692, 16.24066666666667 291.27270942943585, 16.242 291.37937609610253 C 16.243333333333332 291.4860427627692, 16.246666666666666 291.5660427627692, 16.252000000000002 291.61937609610254 C 16.262666666666668 291.7393760961025, 16.297333333333334 291.8373760961025, 16.356 291.9133760961025 C 16.41466666666667 291.98937609610255, 16.497333333333337 292.0433760961025, 16.604 292.0753760961025 L 16.604 292.9673760961025 C 16.110666666666667 292.9300427627692, 15.753333333333334 292.79537609610253, 15.532 292.5633760961025 C 15.310666666666668 292.3313760961025, 15.193333333333335 291.9713760961025, 15.180000000000001 291.4833760961025 Z M 15.280000000000001 290.1473760961025 L 15.280000000000001 286.49937609610254 L 16.348 286.49937609610254 L 16.348 290.1473760961025 Z M 16.852 289.7233760961025 L 16.852 288.9673760961025 C 16.929333333333332 288.9273760961025, 17.014666666666667 288.8953760961025, 17.108 288.8713760961025 C 17.201333333333334 288.8473760961025, 17.301333333333332 288.8353760961025, 17.408 288.8353760961025 C 17.773333333333333 288.8353760961025, 18.047333333333334 288.95070942943585, 18.23 289.1813760961025 C 18.412666666666667 289.41204276276915, 18.514666666666667 289.72604276276917, 18.536 290.1233760961025 C 18.546666666666667 290.28337609610253, 18.553333333333335 290.4420427627692, 18.556 290.5993760961025 C 18.558666666666667 290.75670942943583, 18.557333333333336 290.9100427627692, 18.552 291.05937609610254 C 18.546666666666667 291.2087094294359, 18.538666666666668 291.34870942943587, 18.528000000000002 291.4793760961025 C 18.482666666666667 291.9780427627692, 18.35333333333333 292.3433760961025, 18.14 292.5753760961025 C 17.92666666666667 292.80737609610253, 17.581333333333333 292.93804276276916, 17.104 292.9673760961025 L 17.104 292.0753760961025 C 17.213333333333335 292.04604276276916, 17.296 291.9933760961025, 17.352 291.9173760961025 C 17.408 291.8413760961025, 17.44 291.7420427627692, 17.448 291.61937609610254 C 17.472 291.32870942943583, 17.486 291.0673760961025, 17.490000000000002 290.8353760961025 C 17.494000000000003 290.6033760961025, 17.485333333333337 290.3820427627692, 17.464000000000002 290.1713760961025 C 17.448 290.0167094294359, 17.39666666666667 289.9013760961025, 17.310000000000002 289.8253760961025 C 17.223333333333333 289.74937609610254, 17.090666666666667 289.7113760961025, 16.912 289.7113760961025 C 16.901333333333334 289.7113760961025, 16.890666666666668 289.71270942943585, 16.880000000000003 289.7153760961025 C 16.869333333333334 289.7180427627692, 16.86 289.72070942943583, 16.852 289.7233760961025 Z M 16.852 287.4313760961025 L 16.852 286.49937609610254 L 18.44 286.49937609610254 L 18.44 287.4313760961025 Z M 20.944000000000003 292.8993760961025 L 20.944000000000003 286.49937609610254 L 22.004000000000005 286.49937609610254 L 22.004000000000005 292.8993760961025 Z " stroke="none" fill-rule="nonzero" fill="#000000" fill-opacity="1" transform="matrix(1,0,0,1,5.05,13.314)" id="text5 l" />
  <path d="M 0 284.1569968928991 L 10 284.1569968928991 L 10 285.6569968928991 L 0 285.6569968928991 Z " stroke="none" fill-rule="evenodd" fill="#000000" fill-opacity="1" transform="matrix(1,0,0,1,5.05,13.314)" id="mark6 l" />
  <path d="M 0 274.33261768969567 L 10 274.33261768969567 L 10 275.83261768969567 L 0 275.83261768969567 Z " stroke="none" fill-rule="evenodd" fill="#000000" fill-opacity="1" transform="matrix(1,0,0,1,5.05,13.314)" id="mark7 l" />
  <path d="M 0 264.50823848649225 L 10 264.50823848649225 L 10 266.00823848649225 L 0 266.00823848649225 Z " stroke="none" fill-rule="evenodd" fill="#000000" fill-opacity="1" transform="matrix(1,0,0,1,5.05,13.314)" id="mark8 l" />
  <path d="M 0 254.68385928328888 L 10 254.68385928328888 L 10 256.1838592832889 L 0 256.1838592832889 Z " stroke="none" fill-rule="evenodd" fill="#000000" fill-opacity="1" transform="matrix(1,0,0,1,5.05,13.314)" id="mark9 l" />
  <path d="M 0 244.85948008008546 L 24 244.85948008008546 L 24 246.35948008008546 L 0 246.35948008008546 Z " stroke="none" fill-rule="evenodd" fill="#000000" fill-opacity="1" transform="matrix(1,0,0,1,5.05,13.314)" id="mark10 l" />
  <path d="M 13.323999999999998 243.80948008008548 L 13.323999999999998 238.3654800800855 L 12.871999999999998 238.3654800800855 L 12.839999999999998 237.98548008008547 L 13.543999999999999 237.40948008008547 L 14.424 237.40948008008547 L 14.424 243.80948008008548 Z M 15.196 242.39748008008547 C 15.187999999999999 241.96814674675215, 15.182666666666666 241.55148008008547, 15.18 241.14748008008547 C 15.177333333333333 240.74348008008548, 15.178 240.34814674675215, 15.182 239.96148008008547 C 15.186 239.57481341341878, 15.190666666666667 239.19348008008546, 15.196 238.8174800800855 C 15.209333333333333 238.3774800800855, 15.334 238.03214674675218, 15.57 237.7814800800855 C 15.806000000000001 237.5308134134188, 16.142666666666667 237.38548008008547, 16.58 237.34548008008548 L 16.58 238.23348008008549 C 16.382666666666665 238.28948008008547, 16.281333333333333 238.41881341341883, 16.276 238.6214800800855 C 16.262666666666668 238.99214674675216, 16.253333333333334 239.34014674675214, 16.248 239.66548008008547 C 16.242666666666665 239.9908134134188, 16.24 240.3074800800855, 16.24 240.6154800800855 C 16.24 240.92348008008548, 16.242666666666665 241.23814674675214, 16.248 241.55948008008548 C 16.253333333333334 241.88081341341882, 16.262666666666668 242.22414674675213, 16.276 242.58948008008548 C 16.281333333333333 242.7974800800855, 16.382666666666665 242.9294800800855, 16.58 242.98548008008547 L 16.58 243.87348008008547 C 16.142666666666667 243.83348008008545, 15.806000000000001 243.6874800800855, 15.57 243.43548008008548 C 15.334 243.18348008008547, 15.209333333333333 242.83748008008547, 15.196 242.39748008008547 Z M 17.084 243.87348008008547 L 17.084 242.98148008008548 C 17.268 242.92814674675216, 17.366666666666667 242.80414674675217, 17.38 242.6094800800855 C 17.398666666666667 242.14281341341882, 17.410666666666668 241.69414674675215, 17.416 241.2634800800855 C 17.421333333333333 240.83281341341882, 17.421333333333333 240.40214674675215, 17.416 239.97148008008548 C 17.410666666666668 239.54081341341882, 17.398666666666667 239.08814674675216, 17.38 238.61348008008548 C 17.374666666666666 238.41881341341883, 17.276 238.29214674675217, 17.084 238.23348008008549 L 17.084 237.34548008008548 C 17.513333333333335 237.38548008008547, 17.846666666666668 237.5308134134188, 18.084 237.7814800800855 C 18.321333333333335 238.03214674675218, 18.445333333333334 238.3774800800855, 18.456 238.8174800800855 C 18.46666666666667 239.13214674675214, 18.474666666666668 239.44214674675214, 18.48 239.74748008008547 C 18.485333333333333 240.0528134134188, 18.488 240.35348008008546, 18.488 240.64948008008548 C 18.488 240.94548008008547, 18.485333333333333 241.23881341341882, 18.48 241.52948008008548 C 18.474666666666668 241.82014674675213, 18.46666666666667 242.10948008008546, 18.456 242.39748008008547 C 18.439999999999998 242.84814674675215, 18.311999999999998 243.19681341341882, 18.072 243.44348008008546 C 17.832 243.69014674675213, 17.502666666666666 243.83348008008545, 17.084 243.87348008008547 Z M 20.944 243.80948008008548 L 20.944 237.40948008008547 L 22.003999999999998 237.40948008008547 L 22.003999999999998 243.80948008008548 Z " stroke="none" fill-rule="nonzero" fill="#000000" fill-opacity="1" transform="matrix(1,0,0,1,5.05,13.314)" id="text10 l" />
  <path d="M 0 235.03510087688204 L 10 235.03510087688204 L 10 236.53510087688204 L 0 236.53510087688204 Z " stroke="none" fill-rule="evenodd" fill="#000000" fill-opacity="1" transform="matrix(1,0,0,1,5.05,13.314)" id="mark11 l" />
  <path d="M 0 225.21072167367862 L 10 225.21072167367862 L 10 226.71072167367862 L 0 226.71072167367862 Z " stroke="none" fill-rule="evenodd" fill="#000000" fill-opacity="1" transform="matrix(1,0,0,1,5.05,13.314)" id="mark12 l" />
  <path d="M 0 215.3863424704752 L 10 215.3863424704752 L 10 216.8863424704752 L 0 216.8863424704752 Z " stroke="none" fill-rule="evenodd" fill="#000000" fill-opacity="1" transform="matrix(1,0,0,1,5.05,13.314)" id="mark13 l" />
  <path d="M 0 205.56196326727178 L 10 205.56196326727178 L 10 207.06196326727178 L 0 207.06196326727178 Z " stroke="none" fill-rule="evenodd" fill="#000000" fill-opacity="1" transform="matrix(1,0,0,1,5.05,13.314)" id="mark14 l" />
  <path d="M 0 195.73758406406836 L 24 195.73758406406836 L 24 197.23758406406836 L 0 197.23758406406836 Z " stroke="none" fill-rule="evenodd" fill="#000000" fill-opacity="1" transform="matrix(1,0,0,1,5.05,13.314)" id="mark15 l" />
  <path d="M 13.331999999999999 194.65558406406836 L 13.331999999999999 189.21158406406838 L 12.879999999999999 189.21158406406838 L 12.847999999999999 188.83158406406835 L 13.552 188.25558406406836 L 14.432 188.25558406406836 L 14.432 194.65558406406836 Z M 15.18 193.23958406406837 C 15.174666666666667 193.06625073073502, 15.173333333333332 192.92691739740172, 15.175999999999998 192.82158406406836 C 15.178666666666665 192.71625073073506, 15.181333333333331 192.61425073073502, 15.184 192.51558406406838 L 16.264 192.51558406406838 C 16.256 192.59291739740172, 16.25 192.68891739740172, 16.246 192.80358406406836 C 16.241999999999997 192.91825073073505, 16.240666666666666 193.0289173974017, 16.241999999999997 193.13558406406835 C 16.243333333333332 193.242250730735, 16.246666666666666 193.322250730735, 16.252 193.37558406406836 C 16.262666666666668 193.49558406406834, 16.297333333333334 193.59358406406835, 16.355999999999998 193.66958406406837 C 16.414666666666665 193.74558406406834, 16.49733333333333 193.79958406406834, 16.604 193.83158406406835 L 16.604 194.72358406406838 C 16.110666666666667 194.68625073073503, 15.75333333333333 194.55158406406835, 15.531999999999998 194.31958406406835 C 15.310666666666666 194.08758406406835, 15.193333333333332 193.72758406406837, 15.18 193.23958406406837 Z M 15.28 191.90358406406835 L 15.28 188.25558406406836 L 16.348 188.25558406406836 L 16.348 191.90358406406835 Z M 16.852 191.47958406406838 L 16.852 190.72358406406838 C 16.929333333333332 190.68358406406838, 17.014666666666663 190.65158406406837, 17.107999999999997 190.62758406406837 C 17.20133333333333 190.60358406406837, 17.301333333333332 190.59158406406837, 17.407999999999998 190.59158406406837 C 17.773333333333333 190.59158406406837, 18.047333333333334 190.7069173974017, 18.23 190.93758406406837 C 18.412666666666667 191.16825073073502, 18.514666666666663 191.48225073073502, 18.535999999999998 191.87958406406835 C 18.546666666666667 192.03958406406835, 18.553333333333335 192.19825073073503, 18.555999999999997 192.35558406406835 C 18.558666666666667 192.51291739740168, 18.557333333333332 192.66625073073504, 18.552 192.81558406406836 C 18.546666666666667 192.96491739740168, 18.538666666666668 193.10491739740172, 18.528 193.23558406406838 C 18.482666666666667 193.73425073073503, 18.35333333333333 194.09958406406838, 18.14 194.33158406406835 C 17.92666666666667 194.56358406406838, 17.581333333333333 194.69425073073504, 17.104 194.72358406406838 L 17.104 193.83158406406835 C 17.213333333333335 193.80225073073504, 17.296 193.74958406406836, 17.352 193.67358406406836 C 17.408 193.59758406406837, 17.44 193.49825073073504, 17.448 193.37558406406836 C 17.471999999999998 193.08491739740168, 17.485999999999997 192.82358406406837, 17.49 192.59158406406837 C 17.494 192.35958406406837, 17.485333333333333 192.13825073073502, 17.464 191.92758406406836 C 17.447999999999997 191.7729173974017, 17.396666666666665 191.65758406406837, 17.31 191.58158406406835 C 17.223333333333333 191.5055840640684, 17.090666666666667 191.46758406406838, 16.912 191.46758406406838 C 16.901333333333334 191.46758406406838, 16.890666666666668 191.4689173974017, 16.88 191.47158406406837 C 16.86933333333333 191.47425073073504, 16.86 191.47691739740168, 16.852 191.47958406406838 Z M 16.852 189.18758406406837 L 16.852 188.25558406406836 L 18.439999999999998 188.25558406406836 L 18.439999999999998 189.18758406406837 Z M 20.944 194.65558406406836 L 20.944 188.25558406406836 L 22.003999999999998 188.25558406406836 L 22.003999999999998 194.65558406406836 Z " stroke="none" fill-rule="nonzero" fill="#000000" fill-opacity="1" transform="matrix(1,0,0,1,5.05,13.314)" id="text15 l" />
  <path d="M 0 185.91320486086494 L 10 185.91320486086494 L 10 187.41320486086494 L 0 187.41320486086494 Z " stroke="none" fill-rule="evenodd" fill="#000000" fill-opacity="1" transform="matrix(1,0,0,1,5.05,13.314)" id="mark16 l" />
  <path d="M 0 176.08882565766152 L 10 176.08882565766152 L 10 177.58882565766152 L 0 177.58882565766152 Z " stroke="none" fill-rule="evenodd" fill="#000000" fill-opacity="1" transform="matrix(1,0,0,1,5.05,13.314)" id="mark17 l" />
  <path d="M 0 166.26444645445812 L 10 166.26444645445812 L 10 167.76444645445812 L 0 167.76444645445812 Z " stroke="none" fill-rule="evenodd" fill="#000000" fill-opacity="1" transform="matrix(1,0,0,1,5.05,13.314)" id="mark18 l" />
  <path d="M 0 156.4400672512547 L 10 156.4400672512547 L 10 157.9400672512547 L 0 157.9400672512547 Z " stroke="none" fill-rule="evenodd" fill="#000000" fill-opacity="1" transform="matrix(1,0,0,1,5.05,13.314)" id="mark19 l" />
  <path d="M 0 146.61568804805128 L 24 146.61568804805128 L 24 148.11568804805128 L 0 148.11568804805128 Z " stroke="none" fill-rule="evenodd" fill="#000000" fill-opacity="1" transform="matrix(1,0,0,1,5.05,13.314)" id="mark20 l" />
  <path d="M 11.319999999999999 145.5656880480513 C 11.317333333333332 145.46702138138463, 11.315333333333331 145.37835471471797, 11.313999999999998 145.2996880480513 C 11.312666666666665 145.22102138138465, 11.311333333333334 145.14702138138463, 11.309999999999999 145.0776880480513 C 11.308666666666667 145.00835471471797, 11.308 144.93635471471796, 11.308 144.8616880480513 C 11.308 144.78702138138462, 11.308 144.70235471471796, 11.308 144.6076880480513 C 11.308 144.51302138138465, 11.309333333333333 144.4016880480513, 11.312 144.2736880480513 C 11.32 143.98035471471798, 11.37 143.71835471471798, 11.462 143.4876880480513 C 11.554 143.25702138138462, 11.687999999999999 143.05102138138463, 11.863999999999999 142.8696880480513 C 12.04 142.68835471471797, 12.257333333333332 142.52702138138463, 12.515999999999998 142.3856880480513 L 13.047999999999998 142.0976880480513 C 13.234666666666666 141.99635471471797, 13.354 141.87435471471795, 13.405999999999999 141.7316880480513 C 13.457999999999998 141.58902138138464, 13.488 141.45502138138465, 13.495999999999999 141.3296880480513 C 13.506666666666664 141.18302138138466, 13.512666666666664 141.02635471471797, 13.514 140.8596880480513 C 13.51533333333333 140.69302138138465, 13.511999999999999 140.53635471471796, 13.504 140.3896880480513 C 13.498666666666665 140.28568804805133, 13.468666666666664 140.1996880480513, 13.413999999999998 140.1316880480513 C 13.359333333333332 140.0636880480513, 13.28 140.01502138138463, 13.175999999999998 139.9856880480513 L 13.175999999999998 139.0976880480513 C 13.664 139.12968804805132, 14.014 139.26102138138464, 14.225999999999999 139.4916880480513 C 14.437999999999999 139.72235471471797, 14.554666666666666 140.08302138138464, 14.575999999999999 140.5736880480513 C 14.578666666666665 140.6376880480513, 14.580666666666666 140.70302138138464, 14.581999999999999 140.7696880480513 C 14.583333333333332 140.83635471471797, 14.584 140.90102138138462, 14.584 140.9636880480513 C 14.584 141.02635471471797, 14.583333333333332 141.08835471471798, 14.581999999999999 141.1496880480513 C 14.580666666666666 141.21102138138463, 14.578666666666665 141.27102138138463, 14.575999999999999 141.3296880480513 C 14.565333333333331 141.61502138138462, 14.511999999999997 141.8616880480513, 14.415999999999999 142.0696880480513 C 14.319999999999997 142.2776880480513, 14.189999999999998 142.4576880480513, 14.026 142.6096880480513 C 13.861999999999998 142.7616880480513, 13.671999999999999 142.8976880480513, 13.456 143.0176880480513 L 12.851999999999999 143.3456880480513 C 12.737333333333332 143.40702138138465, 12.647333333333332 143.49102138138466, 12.581999999999999 143.5976880480513 C 12.516666666666666 143.70435471471797, 12.469999999999999 143.8176880480513, 12.441999999999998 143.9376880480513 C 12.413999999999998 144.0576880480513, 12.399999999999999 144.16968804805128, 12.399999999999999 144.2736880480513 L 12.399999999999999 145.5656880480513 Z M 11.328 141.5256880480513 C 11.322666666666667 141.40835471471797, 11.318666666666665 141.29368804805128, 11.315999999999999 141.18168804805129 C 11.313333333333333 141.0696880480513, 11.311333333333334 140.9636880480513, 11.309999999999999 140.8636880480513 C 11.308666666666667 140.7636880480513, 11.309333333333333 140.66702138138464, 11.312 140.5736880480513 C 11.330666666666666 140.0856880480513, 11.447333333333333 139.72635471471796, 11.661999999999999 139.4956880480513 C 11.876666666666665 139.26502138138466, 12.213333333333331 139.13235471471796, 12.671999999999999 139.0976880480513 L 12.671999999999999 139.9896880480513 C 12.575999999999997 140.01902138138462, 12.505333333333333 140.0656880480513, 12.459999999999999 140.1296880480513 C 12.414666666666665 140.19368804805129, 12.390666666666664 140.27102138138463, 12.387999999999998 140.3616880480513 C 12.382666666666665 140.5696880480513, 12.379333333333332 140.76302138138465, 12.378 140.9416880480513 C 12.376666666666665 141.12035471471796, 12.381333333333332 141.31502138138464, 12.392 141.5256880480513 Z M 12.904 145.5656880480513 L 12.904 144.6336880480513 L 14.5 144.6336880480513 L 14.5 145.5656880480513 Z M 15.196 144.1536880480513 C 15.187999999999999 143.72435471471795, 15.182666666666666 143.3076880480513, 15.18 142.9036880480513 C 15.177333333333333 142.4996880480513, 15.178 142.10435471471797, 15.182 141.7176880480513 C 15.186 141.33102138138463, 15.190666666666667 140.9496880480513, 15.196 140.5736880480513 C 15.209333333333333 140.1336880480513, 15.334 139.78835471471797, 15.57 139.5376880480513 C 15.806000000000001 139.28702138138465, 16.142666666666667 139.1416880480513, 16.58 139.1016880480513 L 16.58 139.9896880480513 C 16.382666666666665 140.04568804805132, 16.281333333333333 140.17502138138465, 16.276 140.3776880480513 C 16.262666666666668 140.74835471471798, 16.253333333333334 141.09635471471796, 16.248 141.4216880480513 C 16.242666666666665 141.74702138138463, 16.24 142.0636880480513, 16.24 142.3716880480513 C 16.24 142.6796880480513, 16.242666666666665 142.99435471471796, 16.248 143.3156880480513 C 16.253333333333334 143.63702138138464, 16.262666666666668 143.98035471471798, 16.276 144.3456880480513 C 16.281333333333333 144.5536880480513, 16.382666666666665 144.6856880480513, 16.58 144.7416880480513 L 16.58 145.6296880480513 C 16.142666666666667 145.5896880480513, 15.806000000000001 145.44368804805129, 15.57 145.1916880480513 C 15.334 144.9396880480513, 15.209333333333333 144.5936880480513, 15.196 144.1536880480513 Z M 17.084 145.6296880480513 L 17.084 144.7376880480513 C 17.268 144.68435471471798, 17.366666666666667 144.56035471471796, 17.38 144.3656880480513 C 17.398666666666667 143.8990213813846, 17.410666666666668 143.45035471471795, 17.416 143.0196880480513 C 17.421333333333333 142.5890213813846, 17.421333333333333 142.15835471471797, 17.416 141.7276880480513 C 17.410666666666668 141.29702138138464, 17.398666666666667 140.84435471471795, 17.38 140.3696880480513 C 17.374666666666666 140.17502138138462, 17.276 140.04835471471796, 17.084 139.9896880480513 L 17.084 139.1016880480513 C 17.513333333333335 139.1416880480513, 17.846666666666668 139.28702138138465, 18.084 139.5376880480513 C 18.321333333333335 139.78835471471797, 18.445333333333334 140.1336880480513, 18.456 140.5736880480513 C 18.46666666666667 140.88835471471796, 18.474666666666668 141.19835471471794, 18.48 141.5036880480513 C 18.485333333333333 141.80902138138464, 18.488 142.10968804805128, 18.488 142.4056880480513 C 18.488 142.7016880480513, 18.485333333333333 142.99502138138462, 18.48 143.2856880480513 C 18.474666666666668 143.57635471471798, 18.46666666666667 143.8656880480513, 18.456 144.1536880480513 C 18.439999999999998 144.60435471471797, 18.311999999999998 144.95302138138464, 18.072 145.19968804805129 C 17.832 145.44635471471796, 17.502666666666666 145.5896880480513, 17.084 145.6296880480513 Z M 20.944 145.5656880480513 L 20.944 139.1656880480513 L 22.003999999999998 139.1656880480513 L 22.003999999999998 145.5656880480513 Z " stroke="none" fill-rule="nonzero" fill="#000000" fill-opacity="1" transform="matrix(1,0,0,1,5.05,13.314)" id="text20 l" />
  <path d="M 0 136.79130884484786 L 10 136.79130884484786 L 10 138.29130884484786 L 0 138.29130884484786 Z " stroke="none" fill-rule="evenodd" fill="#000000" fill-opacity="1" transform="matrix(1,0,0,1,5.05,13.314)" id="mark21 l" />
  <path d="M 0 126.96692964164444 L 10 126.96692964164444 L 10 128.46692964164444 L 0 128.46692964164444 Z " stroke="none" fill-rule="evenodd" fill="#000000" fill-opacity="1" transform="matrix(1,0,0,1,5.05,13.314)" id="mark22 l" />
  <path d="M 0 117.14255043844102 L 10 117.14255043844102 L 10 118.64255043844102 L 0 118.64255043844102 Z " stroke="none" fill-rule="evenodd" fill="#000000" fill-opacity="1" transform="matrix(1,0,0,1,5.05,13.314)" id="mark23 l" />
  <path d="M 0 107.3181712352376 L 10 107.3181712352376 L 10 108.8181712352376 L 0 108.8181712352376 Z " stroke="none" fill-rule="evenodd" fill="#000000" fill-opacity="1" transform="matrix(1,0,0,1,5.05,13.314)" id="mark24 l" />
  <path d="M 0 97.49379203203421 L 24 97.49379203203421 L 24 98.99379203203421 L 0 98.99379203203421 Z " stroke="none" fill-rule="evenodd" fill="#000000" fill-opacity="1" transform="matrix(1,0,0,1,5.05,13.314)" id="mark25 l" />
  <path d="M 11.328 96.44379203203421 C 11.325333333333333 96.34512536536755, 11.323333333333332 96.25645869870087, 11.322 96.1777920320342 C 11.320666666666666 96.09912536536754, 11.319333333333333 96.02512536536754, 11.318 95.95579203203421 C 11.316666666666666 95.88645869870088, 11.316 95.81445869870088, 11.316 95.73979203203422 C 11.316 95.66512536536754, 11.316 95.58045869870088, 11.316 95.48579203203421 C 11.316 95.39112536536754, 11.317333333333334 95.27979203203421, 11.32 95.15179203203421 C 11.328 94.85845869870087, 11.378 94.59645869870087, 11.47 94.36579203203421 C 11.562000000000001 94.13512536536754, 11.696 93.92912536536754, 11.872 93.74779203203421 C 12.047999999999998 93.56645869870087, 12.265333333333333 93.40512536536754, 12.524000000000001 93.2637920320342 L 13.056000000000001 92.9757920320342 C 13.242666666666667 92.87445869870088, 13.361999999999998 92.75245869870088, 13.414 92.6097920320342 C 13.466000000000001 92.46712536536754, 13.496 92.33312536536754, 13.504 92.2077920320342 C 13.514666666666667 92.06112536536754, 13.520666666666667 91.90445869870088, 13.522 91.7377920320342 C 13.523333333333333 91.57112536536754, 13.52 91.41445869870087, 13.512 91.26779203203421 C 13.506666666666668 91.16379203203421, 13.476666666666667 91.07779203203421, 13.422 91.00979203203421 C 13.367333333333333 90.94179203203421, 13.288 90.89312536536754, 13.184000000000001 90.86379203203421 L 13.184000000000001 89.9757920320342 C 13.672 90.0077920320342, 14.021999999999998 90.13912536536753, 14.234 90.36979203203421 C 14.445999999999998 90.60045869870089, 14.562666666666665 90.96112536536755, 14.584 91.4517920320342 C 14.586666666666666 91.51579203203421, 14.588666666666667 91.58112536536754, 14.59 91.6477920320342 C 14.591333333333333 91.71445869870088, 14.591999999999999 91.77912536536755, 14.592 91.8417920320342 C 14.591999999999999 91.90445869870088, 14.591333333333333 91.96645869870088, 14.59 92.02779203203421 C 14.588666666666667 92.08912536536755, 14.586666666666666 92.14912536536754, 14.584 92.2077920320342 C 14.573333333333334 92.49312536536753, 14.52 92.7397920320342, 14.424 92.94779203203422 C 14.328 93.15579203203421, 14.198 93.33579203203422, 14.033999999999999 93.4877920320342 C 13.870000000000001 93.63979203203422, 13.68 93.77579203203422, 13.464 93.89579203203421 L 12.86 94.22379203203421 C 12.745333333333335 94.28512536536755, 12.655333333333335 94.36912536536754, 12.59 94.4757920320342 C 12.524666666666668 94.58245869870088, 12.478000000000002 94.6957920320342, 12.45 94.81579203203421 C 12.422 94.93579203203421, 12.408000000000001 95.04779203203421, 12.408 95.15179203203421 L 12.408 96.44379203203421 Z M 11.336 92.4037920320342 C 11.330666666666666 92.28645869870087, 11.326666666666666 92.1717920320342, 11.324 92.05979203203421 C 11.321333333333333 91.94779203203422, 11.319333333333333 91.8417920320342, 11.318 91.74179203203421 C 11.316666666666666 91.6417920320342, 11.317333333333334 91.54512536536754, 11.32 91.4517920320342 C 11.338666666666668 90.9637920320342, 11.455333333333334 90.60445869870087, 11.67 90.3737920320342 C 11.884666666666668 90.14312536536754, 12.221333333333334 90.01045869870087, 12.68 89.9757920320342 L 12.68 90.86779203203422 C 12.584 90.89712536536754, 12.513333333333332 90.94379203203421, 12.468 91.00779203203422 C 12.422666666666668 91.07179203203421, 12.398666666666667 91.14912536536754, 12.396 91.23979203203422 C 12.390666666666668 91.44779203203422, 12.387333333333334 91.64112536536754, 12.386 91.81979203203421 C 12.384666666666668 91.99845869870089, 12.389333333333333 92.19312536536754, 12.4 92.4037920320342 Z M 12.911999999999999 96.44379203203421 L 12.911999999999999 95.51179203203421 L 14.508 95.51179203203421 L 14.508 96.44379203203421 Z M 15.18 95.02779203203421 C 15.174666666666667 94.85445869870088, 15.173333333333332 94.71512536536754, 15.175999999999998 94.6097920320342 C 15.178666666666665 94.50445869870087, 15.181333333333331 94.40245869870087, 15.184 94.30379203203421 L 16.264 94.30379203203421 C 16.256 94.38112536536754, 16.25 94.47712536536754, 16.246 94.5917920320342 C 16.241999999999997 94.70645869870087, 16.240666666666666 94.81712536536753, 16.241999999999997 94.92379203203421 C 16.243333333333332 95.03045869870087, 16.246666666666666 95.11045869870088, 16.252 95.16379203203421 C 16.262666666666668 95.28379203203421, 16.297333333333334 95.38179203203421, 16.355999999999998 95.4577920320342 C 16.414666666666665 95.5337920320342, 16.49733333333333 95.5877920320342, 16.604 95.61979203203421 L 16.604 96.51179203203421 C 16.110666666666667 96.47445869870089, 15.75333333333333 96.33979203203421, 15.531999999999998 96.10779203203421 C 15.310666666666666 95.87579203203421, 15.193333333333332 95.51579203203421, 15.18 95.02779203203421 Z M 15.28 93.69179203203421 L 15.28 90.0437920320342 L 16.348 90.0437920320342 L 16.348 93.69179203203421 Z M 16.852 93.26779203203421 L 16.852 92.51179203203421 C 16.929333333333332 92.47179203203422, 17.014666666666663 92.4397920320342, 17.107999999999997 92.4157920320342 C 17.20133333333333 92.3917920320342, 17.301333333333332 92.3797920320342, 17.407999999999998 92.3797920320342 C 17.773333333333333 92.3797920320342, 18.047333333333334 92.49512536536754, 18.23 92.7257920320342 C 18.412666666666667 92.95645869870087, 18.514666666666663 93.27045869870088, 18.535999999999998 93.66779203203421 C 18.546666666666667 93.82779203203421, 18.553333333333335 93.98645869870087, 18.555999999999997 94.14379203203421 C 18.558666666666667 94.30112536536754, 18.557333333333332 94.45445869870088, 18.552 94.6037920320342 C 18.546666666666667 94.75312536536754, 18.538666666666668 94.89312536536755, 18.528 95.02379203203421 C 18.482666666666667 95.52245869870089, 18.35333333333333 95.88779203203421, 18.14 96.11979203203421 C 17.92666666666667 96.35179203203421, 17.581333333333333 96.48245869870087, 17.104 96.51179203203421 L 17.104 95.61979203203421 C 17.213333333333335 95.59045869870087, 17.296 95.53779203203422, 17.352 95.46179203203421 C 17.408 95.3857920320342, 17.44 95.28645869870087, 17.448 95.16379203203421 C 17.471999999999998 94.87312536536754, 17.485999999999997 94.61179203203422, 17.49 94.3797920320342 C 17.494 94.1477920320342, 17.485333333333333 93.92645869870087, 17.464 93.71579203203422 C 17.447999999999997 93.56112536536754, 17.396666666666665 93.4457920320342, 17.31 93.36979203203421 C 17.223333333333333 93.29379203203422, 17.090666666666667 93.25579203203421, 16.912 93.25579203203421 C 16.901333333333334 93.25579203203421, 16.890666666666668 93.25712536536754, 16.88 93.25979203203421 C 16.86933333333333 93.26245869870087, 16.86 93.26512536536754, 16.852 93.26779203203421 Z M 16.852 90.9757920320342 L 16.852 90.0437920320342 L 18.439999999999998 90.0437920320342 L 18.439999999999998 90.9757920320342 Z M 20.944 96.44379203203421 L 20.944 90.0437920320342 L 22.003999999999998 90.0437920320342 L 22.003999999999998 96.44379203203421 Z " stroke="none" fill-rule="nonzero" fill="#000000" fill-opacity="1" transform="matrix(1,0,0,1,5.05,13.314)" id="text25 l" />
  <path d="M 0 87.66941282883079 L 10 87.66941282883079 L 10 89.16941282883079 L 0 89.16941282883079 Z " stroke="none" fill-rule="evenodd" fill="#000000" fill-opacity="1" transform="matrix(1,0,0,1,5.05,13.314)" id="mark26 l" />
  <path d="M 0 77.84503362562737 L 10 77.84503362562737 L 10 79.34503362562737 L 0 79.34503362562737 Z " stroke="none" fill-rule="evenodd" fill="#000000" fill-opacity="1" transform="matrix(1,0,0,1,5.05,13.314)" id="mark27 l" />
  <path d="M 0 68.02065442242395 L 10 68.02065442242395 L 10 69.52065442242395 L 0 69.52065442242395 Z " stroke="none" fill-rule="evenodd" fill="#000000" fill-opacity="1" transform="matrix(1,0,0,1,5.05,13.314)" id="mark28 l" />
  <path d="M 0 58.196275219220524 L 10 58.196275219220524 L 10 59.696275219220524 L 0 59.696275219220524 Z " stroke="none" fill-rule="evenodd" fill="#000000" fill-opacity="1" transform="matrix(1,0,0,1,5.05,13.314)" id="mark29 l" />
  <path d="M 0 48.371896016017104 L 24 48.371896016017104 L 24 49.871896016017104 L 0 49.871896016017104 Z " stroke="none" fill-rule="evenodd" fill="#000000" fill-opacity="1" transform="matrix(1,0,0,1,5.05,13.314)" id="mark30 l" />
  <path d="M 11.223999999999998 45.90589601601711 C 11.221333333333332 45.80456268268377, 11.219333333333333 45.72056268268378, 11.218 45.65389601601711 C 11.216666666666667 45.58722934935044, 11.216666666666667 45.51922934935044, 11.218 45.44989601601711 C 11.219333333333333 45.380562682683774, 11.221333333333332 45.29122934935044, 11.223999999999998 45.181896016017106 L 12.303999999999998 45.181896016017106 L 12.303999999999998 46.0458960160171 C 12.303999999999998 46.283229349350435, 12.417333333333332 46.43389601601711, 12.643999999999998 46.49789601601711 L 12.643999999999998 47.389896016017104 C 12.155999999999999 47.35256268268377, 11.800666666666666 47.21789601601711, 11.578 46.98589601601711 C 11.355333333333332 46.75389601601711, 11.237333333333332 46.39389601601711, 11.223999999999998 45.90589601601711 Z M 11.292 41.8538960160171 L 11.292 40.92189601601711 L 14.536 40.92189601601711 L 14.536 41.8538960160171 Z M 13.143999999999998 46.501896016017106 C 13.367999999999999 46.4458960160171, 13.483999999999998 46.295229349350436, 13.491999999999999 46.04989601601711 C 13.497333333333334 45.84722934935044, 13.500666666666667 45.66456268268377, 13.501999999999999 45.501896016017106 C 13.503333333333334 45.33922934935044, 13.498666666666665 45.181896016017106, 13.488 45.029896016017105 C 13.48 44.87256268268377, 13.431999999999999 44.73922934935044, 13.344 44.629896016017106 C 13.256 44.520562682683774, 13.089333333333332 44.468562682683775, 12.844 44.47389601601711 L 12.096 44.4818960160171 L 12.068 43.58989601601711 L 13.027999999999999 42.20589601601711 L 14.216 42.20589601601711 L 13.248 43.557896016017104 L 13.28 43.557896016017104 C 13.712 43.557896016017104, 14.028666666666666 43.68056268268377, 14.229999999999999 43.925896016017106 C 14.431333333333335 44.17122934935044, 14.544 44.54856268268377, 14.568 45.057896016017104 C 14.573333333333332 45.129896016017106, 14.576666666666664 45.20189601601711, 14.578 45.273896016017105 C 14.57933333333333 45.34589601601711, 14.579999999999998 45.416562682683775, 14.579999999999998 45.48589601601711 C 14.579999999999998 45.55522934935044, 14.57933333333333 45.624562682683774, 14.578 45.693896016017106 C 14.576666666666664 45.76322934935044, 14.573333333333332 45.83389601601711, 14.568 45.90589601601711 C 14.549333333333333 46.40189601601711, 14.428666666666667 46.76656268268378, 14.206 46.999896016017104 C 13.983333333333333 47.23322934935044, 13.630666666666666 47.36322934935043, 13.148 47.389896016017104 Z M 15.196 45.90989601601711 C 15.187999999999999 45.480562682683775, 15.182666666666666 45.06389601601711, 15.18 44.65989601601711 C 15.177333333333333 44.255896016017104, 15.178 43.86056268268377, 15.182 43.47389601601711 C 15.186 43.087229349350444, 15.190666666666667 42.70589601601711, 15.196 42.32989601601711 C 15.209333333333333 41.889896016017104, 15.334 41.544562682683775, 15.57 41.29389601601711 C 15.806000000000001 41.04322934935044, 16.142666666666667 40.89789601601711, 16.58 40.85789601601711 L 16.58 41.745896016017106 C 16.382666666666665 41.80189601601711, 16.281333333333333 41.93122934935044, 16.276 42.133896016017104 C 16.262666666666668 42.504562682683776, 16.253333333333334 42.852562682683775, 16.248 43.17789601601711 C 16.242666666666665 43.50322934935044, 16.24 43.81989601601711, 16.24 44.127896016017104 C 16.24 44.43589601601711, 16.242666666666665 44.75056268268378, 16.248 45.07189601601711 C 16.253333333333334 45.393229349350435, 16.262666666666668 45.73656268268377, 16.276 46.10189601601711 C 16.281333333333333 46.309896016017106, 16.382666666666665 46.441896016017104, 16.58 46.49789601601711 L 16.58 47.38589601601711 C 16.142666666666667 47.34589601601711, 15.806000000000001 47.19989601601711, 15.57 46.947896016017104 C 15.334 46.6958960160171, 15.209333333333333 46.349896016017105, 15.196 45.90989601601711 Z M 17.084 47.38589601601711 L 17.084 46.4938960160171 C 17.268 46.44056268268377, 17.366666666666667 46.316562682683774, 17.38 46.121896016017104 C 17.398666666666667 45.65522934935044, 17.410666666666668 45.206562682683774, 17.416 44.77589601601711 C 17.421333333333333 44.34522934935044, 17.421333333333333 43.91456268268377, 17.416 43.483896016017106 C 17.410666666666668 43.05322934935044, 17.398666666666667 42.60056268268377, 17.38 42.12589601601711 C 17.374666666666666 41.931229349350446, 17.276 41.80456268268377, 17.084 41.745896016017106 L 17.084 40.85789601601711 C 17.513333333333335 40.89789601601711, 17.846666666666668 41.04322934935044, 18.084 41.29389601601711 C 18.321333333333335 41.544562682683775, 18.445333333333334 41.889896016017104, 18.456 42.32989601601711 C 18.46666666666667 42.64456268268378, 18.474666666666668 42.95456268268377, 18.48 43.25989601601711 C 18.485333333333333 43.565229349350446, 18.488 43.86589601601711, 18.488 44.16189601601711 C 18.488 44.45789601601711, 18.485333333333333 44.75122934935044, 18.48 45.041896016017105 C 18.474666666666668 45.33256268268377, 18.46666666666667 45.621896016017104, 18.456 45.90989601601711 C 18.439999999999998 46.36056268268378, 18.311999999999998 46.70922934935044, 18.072 46.95589601601711 C 17.832 47.20256268268378, 17.502666666666666 47.34589601601711, 17.084 47.38589601601711 Z M 20.944 47.32189601601711 L 20.944 40.92189601601711 L 22.003999999999998 40.92189601601711 L 22.003999999999998 47.32189601601711 Z " stroke="none" fill-rule="nonzero" fill="#000000" fill-opacity="1" transform="matrix(1,0,0,1,5.05,13.314)" id="text30 l" />
  <path d="M 0 38.54751681281368 L 10 38.54751681281368 L 10 40.04751681281368 L 0 40.04751681281368 Z " stroke="none" fill-rule="evenodd" fill="#000000" fill-opacity="1" transform="matrix(1,0,0,1,5.05,13.314)" id="mark31 l" />
  <path d="M 0 28.723137609610262 L 10 28.723137609610262 L 10 30.223137609610262 L 0 30.223137609610262 Z " stroke="none" fill-rule="evenodd" fill="#000000" fill-opacity="1" transform="matrix(1,0,0,1,5.05,13.314)" id="mark32 l" />
  <path d="M 0 18.89875840640684 L 10 18.89875840640684 L 10 20.39875840640684 L 0 20.39875840640684 Z " stroke="none" fill-rule="evenodd" fill="#000000" fill-opacity="1" transform="matrix(1,0,0,1,5.05,13.314)" id="mark33 l" />
  <path d="M 0 9.07437920320342 L 10 9.07437920320342 L 10 10.57437920320342 L 0 10.57437920320342 Z " stroke="none" fill-rule="evenodd" fill="#000000" fill-opacity="1" transform="matrix(1,0,0,1,5.05,13.314)" id="mark34 l" />
  <path d="M 0 -0.75 L 24 -0.75 L 24 0.75 L 0 0.75 Z " stroke="none" fill-rule="evenodd" fill="#000000" fill-opacity="1" transform="matrix(1,0,0,1,5.05,13.314)" id="mark35 l" />
  <path d="M 11.232 -3.2479999999999998 C 11.229333333333333 -3.349333333333333, 11.227333333333334 -3.4333333333333336, 11.226 -3.5 C 11.224666666666668 -3.5666666666666664, 11.224666666666668 -3.6346666666666665, 11.226 -3.7039999999999997 C 11.227333333333334 -3.773333333333333, 11.229333333333333 -3.8626666666666667, 11.232 -3.972 L 12.312 -3.972 L 12.312 -3.1079999999999997 C 12.312000000000001 -2.8706666666666663, 12.425333333333334 -2.7199999999999998, 12.652 -2.6559999999999997 L 12.652 -1.7639999999999998 C 12.164 -1.801333333333333, 11.808666666666667 -1.9359999999999997, 11.586 -2.1679999999999997 C 11.363333333333333 -2.4, 11.245333333333335 -2.76, 11.232 -3.2479999999999998 Z M 11.3 -7.3 L 11.3 -8.232 L 14.544 -8.232 L 14.544 -7.3 Z M 13.152000000000001 -2.6519999999999997 C 13.376 -2.7079999999999997, 13.491999999999999 -2.8586666666666662, 13.5 -3.104 C 13.505333333333333 -3.3066666666666666, 13.508666666666667 -3.489333333333333, 13.51 -3.652 C 13.511333333333333 -3.8146666666666667, 13.506666666666668 -3.9719999999999995, 13.496 -4.124 C 13.488 -4.2813333333333325, 13.44 -4.414666666666666, 13.352 -4.524 C 13.264000000000001 -4.633333333333333, 13.097333333333335 -4.685333333333333, 12.852 -4.68 L 12.104 -4.672 L 12.076 -5.564 L 13.036 -6.9479999999999995 L 14.224 -6.9479999999999995 L 13.256 -5.596 L 13.288 -5.596 C 13.719999999999999 -5.596, 14.036666666666665 -5.473333333333333, 14.238 -5.228 C 14.439333333333334 -4.982666666666667, 14.552 -4.605333333333333, 14.576 -4.096 C 14.581333333333333 -4.024, 14.584666666666667 -3.952, 14.586 -3.88 C 14.587333333333333 -3.808, 14.588000000000001 -3.737333333333333, 14.588000000000001 -3.6679999999999997 C 14.588000000000001 -3.5986666666666665, 14.587333333333333 -3.529333333333333, 14.586 -3.46 C 14.584666666666667 -3.3906666666666667, 14.581333333333333 -3.3200000000000003, 14.576 -3.2479999999999998 C 14.557333333333332 -2.752, 14.436666666666667 -2.3873333333333333, 14.214 -2.154 C 13.991333333333333 -1.9206666666666665, 13.638666666666666 -1.7906666666666666, 13.156 -1.7639999999999998 Z M 15.18 -3.2479999999999998 C 15.174666666666667 -3.421333333333333, 15.173333333333332 -3.5606666666666666, 15.175999999999998 -3.666 C 15.178666666666665 -3.771333333333333, 15.181333333333331 -3.873333333333333, 15.184 -3.972 L 16.264 -3.972 C 16.256 -3.8946666666666667, 16.25 -3.7986666666666666, 16.246 -3.6839999999999997 C 16.241999999999997 -3.569333333333333, 16.240666666666666 -3.4586666666666663, 16.241999999999997 -3.352 C 16.243333333333332 -3.2453333333333334, 16.246666666666666 -3.1653333333333338, 16.252 -3.112 C 16.262666666666668 -2.992, 16.297333333333334 -2.8939999999999997, 16.355999999999998 -2.8179999999999996 C 16.414666666666665 -2.7419999999999995, 16.49733333333333 -2.6879999999999997, 16.604 -2.6559999999999997 L 16.604 -1.7639999999999998 C 16.110666666666667 -1.801333333333333, 15.75333333333333 -1.9359999999999997, 15.531999999999998 -2.1679999999999997 C 15.310666666666666 -2.4, 15.193333333333332 -2.76, 15.18 -3.2479999999999998 Z M 15.28 -4.584 L 15.28 -8.232 L 16.348 -8.232 L 16.348 -4.584 Z M 16.852 -5.008 L 16.852 -5.763999999999999 C 16.929333333333332 -5.804, 17.014666666666663 -5.836, 17.107999999999997 -5.86 C 17.20133333333333 -5.884, 17.301333333333332 -5.896, 17.407999999999998 -5.896 C 17.773333333333333 -5.896, 18.047333333333334 -5.780666666666667, 18.23 -5.55 C 18.412666666666667 -5.319333333333333, 18.514666666666663 -5.005333333333333, 18.535999999999998 -4.608 C 18.546666666666667 -4.448, 18.553333333333335 -4.289333333333333, 18.555999999999997 -4.132 C 18.558666666666667 -3.974666666666667, 18.557333333333332 -3.8213333333333335, 18.552 -3.6719999999999997 C 18.546666666666667 -3.522666666666667, 18.538666666666668 -3.3826666666666663, 18.528 -3.252 C 18.482666666666667 -2.753333333333333, 18.35333333333333 -2.388, 18.14 -2.1559999999999997 C 17.92666666666667 -1.9239999999999997, 17.581333333333333 -1.793333333333333, 17.104 -1.7639999999999998 L 17.104 -2.6559999999999997 C 17.213333333333335 -2.685333333333333, 17.296 -2.738, 17.352 -2.814 C 17.408 -2.89, 17.44 -2.9893333333333336, 17.448 -3.112 C 17.471999999999998 -3.4026666666666667, 17.485999999999997 -3.664, 17.49 -3.896 C 17.494 -4.128, 17.485333333333333 -4.349333333333333, 17.464 -4.5600000000000005 C 17.447999999999997 -4.714666666666667, 17.396666666666665 -4.83, 17.31 -4.906 C 17.223333333333333 -4.981999999999999, 17.090666666666667 -5.02, 16.912 -5.02 C 16.901333333333334 -5.02, 16.890666666666668 -5.018666666666666, 16.88 -5.016 C 16.86933333333333 -5.013333333333334, 16.86 -5.010666666666667, 16.852 -5.008 Z M 16.852 -7.3 L 16.852 -8.232 L 18.439999999999998 -8.232 L 18.439999999999998 -7.3 Z M 20.944 -1.8319999999999999 L 20.944 -8.232 L 22.003999999999998 -8.232 L 22.003999999999998 -1.8319999999999999 Z " stroke="none" fill-rule="nonzero" fill="#000000" fill-opacity="1" transform="matrix(1,0,0,1,5.05,13.314)" id="text35 l" />
  <path d="M -5 -13.264 L 29 -13.264 L 29 340.7648929089161 L -5 340.7648929089161 Z " stroke="#FF0000" stroke-opacity="1" stroke-width="0.1" stroke-linecap="butt" stroke-linejoin="miter" fill="none" transform="matrix(1,0,0,1,5.05,13.314)" />
</svg>