<?xml version="1.0" encoding="UTF-8"?>
<svg xmlns:xlink="http://www.w3.org/1999/xlink" viewBox="0 0 35.1 441.03763462319426" version="1.1" style="font-synthesis: none;" width="35.1mm" height="441.03763462319426mm" xmlns="http://www.w3.org/2000/svg">
  <defs />
  <style>	</style>
  <path d="M 0 0 L 35.1 0 L 35.1 441.03763462319426 L 0 441.03763462319426 Z " stroke="none" fill-rule="nonzero" fill="#FFFFFF" fill-opacity="1" transform="matrix(1,0,0,1,0,0)" />
  <path d="M 0 420.1556346231943 L 10 420.1556346231943 L 10 421.6556346231943 L 0 421.6556346231943 Z " stroke="none" fill-rule="evenodd" fill="#000000" fill-opacity="1" transform="matrix(1,0,0,1,5.05,13.314)" id="mark1 l" />
  <path d="M 0 411.56572371251684 L 10 411.56572371251684 L 10 413.06572371251684 L 0 413.06572371251684 Z " stroke="none" fill-rule="evenodd" fill="#000000" fill-opacity="1" transform="matrix(1,0,0,1,5.05,13.314)" id="mark2 l" />
  <path d="M 0 402.9758128018394 L 10 402.9758128018394 L 10 404.4758128018394 L 0 404.4758128018394 Z " stroke="none" fill-rule="evenodd" fill="#000000" fill-opacity="1" transform="matrix(1,0,0,1,5.05,13.314)" id="mark3 l" />
  <path d="M 0 394.385901891162 L 10 394.385901891162 L 10 395.885901891162 L 0 395.885901891162 Z " stroke="none" fill-rule="evenodd" fill="#000000" fill-opacity="1" transform="matrix(1,0,0,1,5.05,13.314)" id="mark4 l" />
  <path d="M 0 385.7959909804846 L 25 385.7959909804846 L 25 387.2959909804846 L 0 387.2959909804846 Z " stroke="none" fill-rule="evenodd" fill="#000000" fill-opacity="1" transform="matrix(1,0,0,1,5.05,13.314)" id="mark5 l" />
  <path d="M 16.18 383.2979909804846 C 16.174666666666667 383.12465764715125, 16.173333333333332 382.98532431381796, 16.176 382.8799909804846 C 16.178666666666665 382.77465764715123, 16.181333333333335 382.67265764715125, 16.183999999999997 382.5739909804846 L 17.264 382.5739909804846 C 17.256 382.6513243138179, 17.25 382.7473243138179, 17.246 382.8619909804846 C 17.241999999999997 382.9766576471512, 17.240666666666666 383.08732431381793, 17.241999999999997 383.1939909804846 C 17.243333333333332 383.30065764715124, 17.246666666666666 383.3806576471513, 17.252 383.4339909804846 C 17.262666666666668 383.55399098048457, 17.297333333333334 383.6519909804846, 17.355999999999998 383.7279909804846 C 17.414666666666665 383.80399098048457, 17.497333333333334 383.8579909804846, 17.604 383.8899909804846 L 17.604 384.7819909804846 C 17.110666666666663 384.74465764715126, 16.75333333333333 384.60999098048455, 16.532 384.3779909804846 C 16.310666666666666 384.1459909804846, 16.19333333333333 383.7859909804846, 16.18 383.2979909804846 Z M 16.279999999999998 381.9619909804846 L 16.279999999999998 378.3139909804846 L 17.348 378.3139909804846 L 17.348 381.9619909804846 Z M 17.852 381.5379909804846 L 17.852 380.7819909804846 C 17.929333333333332 380.74199098048456, 18.014666666666667 380.7099909804846, 18.107999999999997 380.6859909804846 C 18.20133333333333 380.6619909804846, 18.301333333333332 380.6499909804846, 18.407999999999998 380.6499909804846 C 18.773333333333333 380.6499909804846, 19.047333333333334 380.7653243138179, 19.23 380.9959909804846 C 19.412666666666667 381.2266576471512, 19.514666666666663 381.54065764715125, 19.535999999999998 381.9379909804846 C 19.546666666666667 382.0979909804846, 19.55333333333333 382.25665764715126, 19.555999999999997 382.4139909804846 C 19.558666666666664 382.5713243138179, 19.557333333333332 382.7246576471513, 19.552 382.8739909804846 C 19.546666666666667 383.02332431381797, 19.538666666666668 383.16332431381795, 19.528 383.2939909804846 C 19.482666666666667 383.79265764715126, 19.353333333333335 384.15799098048456, 19.14 384.3899909804846 C 18.926666666666666 384.6219909804846, 18.581333333333333 384.75265764715124, 18.104 384.7819909804846 L 18.104 383.8899909804846 C 18.21333333333333 383.86065764715124, 18.296 383.8079909804846, 18.352 383.73199098048457 C 18.408 383.6559909804846, 18.44 383.55665764715127, 18.448 383.4339909804846 C 18.471999999999998 383.1433243138179, 18.485999999999997 382.8819909804846, 18.49 382.6499909804846 C 18.494 382.4179909804846, 18.485333333333333 382.19665764715126, 18.464 381.9859909804846 C 18.447999999999997 381.83132431381796, 18.396666666666665 381.7159909804846, 18.31 381.6399909804846 C 18.223333333333333 381.5639909804846, 18.090666666666664 381.5259909804846, 17.912 381.5259909804846 C 17.901333333333334 381.5259909804846, 17.890666666666668 381.5273243138179, 17.88 381.52999098048457 C 17.86933333333333 381.53265764715127, 17.86 381.5353243138179, 17.852 381.5379909804846 Z M 17.852 379.2459909804846 L 17.852 378.3139909804846 L 19.439999999999998 378.3139909804846 L 19.439999999999998 379.2459909804846 Z M 21.944 384.7139909804846 L 21.944 378.3139909804846 L 23.003999999999998 378.3139909804846 L 23.003999999999998 384.7139909804846 Z " stroke="none" fill-rule="nonzero" fill="#000000" fill-opacity="1" transform="matrix(1,0,0,1,5.05,13.314)" id="text5 l" />
  <path d="M 0 377.2060800698071 L 10 377.2060800698071 L 10 378.7060800698071 L 0 378.7060800698071 Z " stroke="none" fill-rule="evenodd" fill="#000000" fill-opacity="1" transform="matrix(1,0,0,1,5.05,13.314)" id="mark6 l" />
  <path d="M 0 368.6161691591297 L 10 368.6161691591297 L 10 370.1161691591297 L 0 370.1161691591297 Z " stroke="none" fill-rule="evenodd" fill="#000000" fill-opacity="1" transform="matrix(1,0,0,1,5.05,13.314)" id="mark7 l" />
  <path d="M 0 360.0262582484523 L 10 360.0262582484523 L 10 361.5262582484523 L 0 361.5262582484523 Z " stroke="none" fill-rule="evenodd" fill="#000000" fill-opacity="1" transform="matrix(1,0,0,1,5.05,13.314)" id="mark8 l" />
  <path d="M 0 351.4363473377748 L 10 351.4363473377748 L 10 352.9363473377748 L 0 352.9363473377748 Z " stroke="none" fill-rule="evenodd" fill="#000000" fill-opacity="1" transform="matrix(1,0,0,1,5.05,13.314)" id="mark9 l" />
  <path d="M 0 342.8464364270974 L 25 342.8464364270974 L 25 344.3464364270974 L 0 344.3464364270974 Z " stroke="none" fill-rule="evenodd" fill="#000000" fill-opacity="1" transform="matrix(1,0,0,1,5.05,13.314)" id="mark10 l" />
  <path d="M 14.323999999999998 341.7964364270974 L 14.323999999999998 336.35243642709736 L 13.871999999999998 336.35243642709736 L 13.839999999999998 335.97243642709736 L 14.543999999999999 335.3964364270974 L 15.424 335.3964364270974 L 15.424 341.7964364270974 Z M 16.196 340.3844364270974 C 16.188000000000002 339.9551030937641, 16.182666666666666 339.5384364270974, 16.18 339.1344364270974 C 16.177333333333333 338.7304364270974, 16.177999999999997 338.3351030937641, 16.182 337.94843642709736 C 16.186 337.5617697604307, 16.190666666666665 337.1804364270974, 16.196 336.80443642709736 C 16.209333333333333 336.36443642709736, 16.334000000000003 336.01910309376404, 16.57 335.76843642709736 C 16.805999999999997 335.5177697604307, 17.142666666666663 335.37243642709734, 17.58 335.3324364270974 L 17.58 336.22043642709735 C 17.382666666666665 336.27643642709734, 17.281333333333333 336.4057697604307, 17.276 336.6084364270974 C 17.262666666666668 336.979103093764, 17.253333333333334 337.32710309376404, 17.248 337.65243642709737 C 17.242666666666665 337.9777697604307, 17.24 338.29443642709737, 17.24 338.60243642709736 C 17.24 338.91043642709735, 17.242666666666665 339.225103093764, 17.248 339.5464364270974 C 17.253333333333334 339.86776976043075, 17.262666666666668 340.21110309376405, 17.276 340.57643642709735 C 17.281333333333333 340.7844364270974, 17.382666666666665 340.9164364270973, 17.58 340.97243642709736 L 17.58 341.8604364270974 C 17.142666666666663 341.8204364270974, 16.805999999999997 341.67443642709736, 16.57 341.42243642709735 C 16.334000000000003 341.17043642709734, 16.209333333333333 340.8244364270974, 16.196 340.3844364270974 Z M 18.084 341.8604364270974 L 18.084 340.9684364270974 C 18.268 340.91510309376406, 18.366666666666667 340.79110309376404, 18.38 340.5964364270974 C 18.398666666666667 340.12976976043075, 18.410666666666668 339.6811030937641, 18.416 339.2504364270974 C 18.421333333333333 338.8197697604307, 18.421333333333333 338.38910309376405, 18.416 337.95843642709735 C 18.410666666666668 337.5277697604307, 18.398666666666667 337.075103093764, 18.38 336.60043642709735 C 18.374666666666666 336.4057697604307, 18.276 336.27910309376404, 18.084 336.22043642709735 L 18.084 335.3324364270974 C 18.513333333333335 335.37243642709734, 18.846666666666668 335.5177697604307, 19.084 335.76843642709736 C 19.321333333333335 336.01910309376404, 19.445333333333334 336.36443642709736, 19.456 336.80443642709736 C 19.46666666666667 337.11910309376407, 19.474666666666668 337.42910309376407, 19.48 337.73443642709736 C 19.485333333333333 338.0397697604307, 19.488 338.34043642709736, 19.488 338.63643642709735 C 19.488 338.93243642709734, 19.485333333333333 339.2257697604307, 19.48 339.5164364270974 C 19.474666666666668 339.80710309376406, 19.46666666666667 340.0964364270974, 19.456 340.3844364270974 C 19.439999999999998 340.8351030937641, 19.311999999999998 341.1837697604307, 19.072 341.4304364270974 C 18.832 341.67710309376406, 18.502666666666666 341.8204364270974, 18.084 341.8604364270974 Z M 21.944 341.7964364270974 L 21.944 335.3964364270974 L 23.003999999999998 335.3964364270974 L 23.003999999999998 341.7964364270974 Z " stroke="none" fill-rule="nonzero" fill="#000000" fill-opacity="1" transform="matrix(1,0,0,1,5.05,13.314)" id="text10 l" />
  <path d="M 0 334.25652551641997 L 10 334.25652551641997 L 10 335.75652551641997 L 0 335.75652551641997 Z " stroke="none" fill-rule="evenodd" fill="#000000" fill-opacity="1" transform="matrix(1,0,0,1,5.05,13.314)" id="mark11 l" />
  <path d="M 0 325.66661460574255 L 10 325.66661460574255 L 10 327.16661460574255 L 0 327.16661460574255 Z " stroke="none" fill-rule="evenodd" fill="#000000" fill-opacity="1" transform="matrix(1,0,0,1,5.05,13.314)" id="mark12 l" />
  <path d="M 0 317.0767036950651 L 10 317.0767036950651 L 10 318.5767036950651 L 0 318.5767036950651 Z " stroke="none" fill-rule="evenodd" fill="#000000" fill-opacity="1" transform="matrix(1,0,0,1,5.05,13.314)" id="mark13 l" />
  <path d="M 0 308.48679278438766 L 10 308.48679278438766 L 10 309.98679278438766 L 0 309.98679278438766 Z " stroke="none" fill-rule="evenodd" fill="#000000" fill-opacity="1" transform="matrix(1,0,0,1,5.05,13.314)" id="mark14 l" />
  <path d="M 0 299.8968818737102 L 25 299.8968818737102 L 25 301.3968818737102 L 0 301.3968818737102 Z " stroke="none" fill-rule="evenodd" fill="#000000" fill-opacity="1" transform="matrix(1,0,0,1,5.05,13.314)" id="mark15 l" />
  <path d="M 14.331999999999999 298.8148818737102 L 14.331999999999999 293.3708818737102 L 13.879999999999999 293.3708818737102 L 13.847999999999999 292.9908818737102 L 14.552 292.4148818737102 L 15.432 292.4148818737102 L 15.432 298.8148818737102 Z M 16.18 297.3988818737102 C 16.174666666666667 297.22554854037685, 16.173333333333332 297.08621520704355, 16.176 296.9808818737102 C 16.178666666666665 296.8755485403768, 16.181333333333335 296.77354854037685, 16.183999999999997 296.6748818737102 L 17.264 296.6748818737102 C 17.256 296.75221520704355, 17.25 296.84821520704355, 17.246 296.9628818737102 C 17.241999999999997 297.0775485403769, 17.240666666666666 297.1882152070435, 17.241999999999997 297.2948818737102 C 17.243333333333332 297.40154854037684, 17.246666666666666 297.4815485403768, 17.252 297.5348818737102 C 17.262666666666668 297.6548818737102, 17.297333333333334 297.7528818737102, 17.355999999999998 297.8288818737102 C 17.414666666666665 297.90488187371017, 17.497333333333334 297.9588818737102, 17.604 297.9908818737102 L 17.604 298.8828818737102 C 17.110666666666663 298.84554854037685, 16.75333333333333 298.71088187371015, 16.532 298.4788818737102 C 16.310666666666666 298.2468818737102, 16.19333333333333 297.8868818737102, 16.18 297.3988818737102 Z M 16.279999999999998 296.0628818737102 L 16.279999999999998 292.4148818737102 L 17.348 292.4148818737102 L 17.348 296.0628818737102 Z M 17.852 295.6388818737102 L 17.852 294.8828818737102 C 17.929333333333332 294.8428818737102, 18.014666666666667 294.8108818737102, 18.107999999999997 294.7868818737102 C 18.20133333333333 294.76288187371017, 18.301333333333332 294.75088187371017, 18.407999999999998 294.75088187371017 C 18.773333333333333 294.75088187371017, 19.047333333333334 294.8662152070435, 19.23 295.0968818737102 C 19.412666666666667 295.3275485403768, 19.514666666666663 295.64154854037685, 19.535999999999998 296.0388818737102 C 19.546666666666667 296.1988818737102, 19.55333333333333 296.35754854037685, 19.555999999999997 296.5148818737102 C 19.558666666666664 296.6722152070435, 19.557333333333332 296.8255485403769, 19.552 296.9748818737102 C 19.546666666666667 297.12421520704356, 19.538666666666668 297.26421520704355, 19.528 297.3948818737102 C 19.482666666666667 297.89354854037686, 19.353333333333335 298.25888187371015, 19.14 298.4908818737102 C 18.926666666666666 298.7228818737102, 18.581333333333333 298.85354854037683, 18.104 298.8828818737102 L 18.104 297.9908818737102 C 18.21333333333333 297.96154854037684, 18.296 297.9088818737102, 18.352 297.83288187371016 C 18.408 297.7568818737102, 18.44 297.65754854037687, 18.448 297.5348818737102 C 18.471999999999998 297.24421520704357, 18.485999999999997 296.9828818737102, 18.49 296.75088187371017 C 18.494 296.5188818737102, 18.485333333333333 296.29754854037685, 18.464 296.0868818737102 C 18.447999999999997 295.93221520704355, 18.396666666666665 295.8168818737102, 18.31 295.7408818737102 C 18.223333333333333 295.6648818737102, 18.090666666666664 295.6268818737102, 17.912 295.6268818737102 C 17.901333333333334 295.6268818737102, 17.890666666666668 295.6282152070435, 17.88 295.63088187371017 C 17.86933333333333 295.63354854037686, 17.86 295.6362152070435, 17.852 295.6388818737102 Z M 17.852 293.3468818737102 L 17.852 292.4148818737102 L 19.439999999999998 292.4148818737102 L 19.439999999999998 293.3468818737102 Z M 21.944 298.8148818737102 L 21.944 292.4148818737102 L 23.003999999999998 292.4148818737102 L 23.003999999999998 298.8148818737102 Z " stroke="none" fill-rule="nonzero" fill="#000000" fill-opacity="1" transform="matrix(1,0,0,1,5.05,13.314)" id="text15 l" />
  <path d="M 0 291.30697096303277 L 10 291.30697096303277 L 10 292.80697096303277 L 0 292.80697096303277 Z " stroke="none" fill-rule="evenodd" fill="#000000" fill-opacity="1" transform="matrix(1,0,0,1,5.05,13.314)" id="mark16 l" />
  <path d="M 0 282.71706005235535 L 10 282.71706005235535 L 10 284.21706005235535 L 0 284.21706005235535 Z " stroke="none" fill-rule="evenodd" fill="#000000" fill-opacity="1" transform="matrix(1,0,0,1,5.05,13.314)" id="mark17 l" />
  <path d="M 0 274.12714914167793 L 10 274.12714914167793 L 10 275.62714914167793 L 0 275.62714914167793 Z " stroke="none" fill-rule="evenodd" fill="#000000" fill-opacity="1" transform="matrix(1,0,0,1,5.05,13.314)" id="mark18 l" />
  <path d="M 0 265.5372382310005 L 10 265.5372382310005 L 10 267.0372382310005 L 0 267.0372382310005 Z " stroke="none" fill-rule="evenodd" fill="#000000" fill-opacity="1" transform="matrix(1,0,0,1,5.05,13.314)" id="mark19 l" />
  <path d="M 0 256.94732732032304 L 25 256.94732732032304 L 25 258.44732732032304 L 0 258.44732732032304 Z " stroke="none" fill-rule="evenodd" fill="#000000" fill-opacity="1" transform="matrix(1,0,0,1,5.05,13.314)" id="mark20 l" />
  <path d="M 12.319999999999999 255.89732732032306 C 12.317333333333334 255.79866065365638, 12.315333333333331 255.70999398698973, 12.313999999999998 255.63132732032307 C 12.312666666666665 255.5526606536564, 12.311333333333334 255.4786606536564, 12.309999999999999 255.40932732032306 C 12.308666666666667 255.33999398698973, 12.308 255.26799398698972, 12.308 255.19332732032305 C 12.308 255.11866065365638, 12.308 255.0339939869897, 12.308 254.93932732032306 C 12.308 254.8446606536564, 12.309333333333335 254.73332732032307, 12.312 254.60532732032306 C 12.32 254.31199398698973, 12.37 254.04999398698973, 12.462 253.81932732032305 C 12.554 253.58866065365638, 12.687999999999999 253.3826606536564, 12.863999999999999 253.20132732032306 C 13.04 253.01999398698973, 13.257333333333333 252.8586606536564, 13.515999999999998 252.71732732032305 L 14.047999999999998 252.42932732032307 C 14.234666666666666 252.32799398698972, 14.354 252.2059939869897, 14.405999999999999 252.06332732032305 C 14.457999999999998 251.9206606536564, 14.488 251.78666065365638, 14.495999999999999 251.66132732032307 C 14.506666666666664 251.5146606536564, 14.512666666666664 251.35799398698975, 14.514 251.19132732032307 C 14.51533333333333 251.02466065365638, 14.511999999999997 250.86799398698975, 14.504 250.72132732032307 C 14.498666666666665 250.61732732032306, 14.468666666666666 250.53132732032304, 14.413999999999998 250.46332732032306 C 14.359333333333332 250.39532732032308, 14.279999999999998 250.3466606536564, 14.175999999999998 250.31732732032305 L 14.175999999999998 249.42932732032307 C 14.663999999999998 249.46132732032305, 15.014 249.59266065365637, 15.225999999999999 249.82332732032305 C 15.437999999999999 250.05399398698972, 15.554666666666666 250.41466065365637, 15.575999999999999 250.90532732032307 C 15.578666666666663 250.9693273203231, 15.580666666666666 251.03466065365643, 15.581999999999999 251.10132732032307 C 15.583333333333332 251.16799398698976, 15.584 251.2326606536564, 15.584 251.29532732032305 C 15.584 251.3579939869897, 15.583333333333332 251.4199939869897, 15.581999999999999 251.48132732032306 C 15.580666666666666 251.5426606536564, 15.578666666666663 251.60266065365641, 15.575999999999999 251.66132732032307 C 15.565333333333331 251.9466606536564, 15.512 252.19332732032305, 15.415999999999999 252.40132732032305 C 15.32 252.60932732032305, 15.19 252.78932732032305, 15.026 252.94132732032307 C 14.862 253.09332732032306, 14.672 253.22932732032305, 14.456 253.34932732032306 L 13.851999999999999 253.67732732032306 C 13.737333333333332 253.73866065365638, 13.647333333333332 253.82266065365638, 13.581999999999999 253.92932732032307 C 13.516666666666666 254.03599398698975, 13.469999999999999 254.14932732032304, 13.441999999999998 254.26932732032304 C 13.413999999999998 254.38932732032305, 13.399999999999999 254.50132732032304, 13.399999999999999 254.60532732032306 L 13.399999999999999 255.89732732032306 Z M 12.328 251.85732732032307 C 12.322666666666667 251.73999398698973, 12.318666666666665 251.62532732032307, 12.315999999999999 251.51332732032307 C 12.313333333333333 251.40132732032308, 12.311333333333334 251.29532732032305, 12.309999999999999 251.19532732032306 C 12.308666666666667 251.09532732032307, 12.309333333333335 250.99866065365637, 12.312 250.90532732032307 C 12.330666666666666 250.41732732032307, 12.447333333333333 250.05799398698974, 12.661999999999999 249.82732732032306 C 12.876666666666665 249.5966606536564, 13.213333333333331 249.46399398698975, 13.671999999999999 249.42932732032307 L 13.671999999999999 250.32132732032306 C 13.576 250.35066065365638, 13.505333333333333 250.39732732032303, 13.459999999999999 250.46132732032305 C 13.414666666666665 250.52532732032307, 13.390666666666664 250.6026606536564, 13.387999999999998 250.69332732032305 C 13.382666666666665 250.90132732032305, 13.379333333333333 251.09466065365638, 13.378 251.27332732032306 C 13.376666666666667 251.45199398698975, 13.381333333333334 251.6466606536564, 13.392 251.85732732032307 Z M 13.904 255.89732732032306 L 13.904 254.96532732032307 L 15.5 254.96532732032307 L 15.5 255.89732732032306 Z M 16.196 254.48532732032305 C 16.188000000000002 254.05599398698973, 16.182666666666666 253.63932732032305, 16.18 253.23532732032305 C 16.177333333333333 252.83132732032306, 16.177999999999997 252.43599398698973, 16.182 252.04932732032304 C 16.186 251.6626606536564, 16.190666666666665 251.28132732032304, 16.196 250.90532732032307 C 16.209333333333333 250.46532732032307, 16.334000000000003 250.11999398698973, 16.57 249.86932732032307 C 16.805999999999997 249.6186606536564, 17.142666666666663 249.47332732032305, 17.58 249.43332732032306 L 17.58 250.32132732032306 C 17.382666666666665 250.37732732032308, 17.281333333333333 250.5066606536564, 17.276 250.70932732032307 C 17.262666666666668 251.07999398698973, 17.253333333333334 251.42799398698975, 17.248 251.75332732032305 C 17.242666666666665 252.0786606536564, 17.24 252.39532732032308, 17.24 252.70332732032307 C 17.24 253.01132732032306, 17.242666666666665 253.32599398698972, 17.248 253.64732732032306 C 17.253333333333334 253.9686606536564, 17.262666666666668 254.31199398698973, 17.276 254.67732732032306 C 17.281333333333333 254.88532732032306, 17.382666666666665 255.01732732032303, 17.58 255.07332732032305 L 17.58 255.96132732032305 C 17.142666666666663 255.92132732032306, 16.805999999999997 255.77532732032307, 16.57 255.52332732032306 C 16.334000000000003 255.27132732032305, 16.209333333333333 254.92532732032305, 16.196 254.48532732032305 Z M 18.084 255.96132732032305 L 18.084 255.06932732032305 C 18.268 255.0159939869897, 18.366666666666667 254.89199398698975, 18.38 254.69732732032307 C 18.398666666666667 254.2306606536564, 18.410666666666668 253.78199398698973, 18.416 253.35132732032307 C 18.421333333333333 252.9206606536564, 18.421333333333333 252.4899939869897, 18.416 252.05932732032306 C 18.410666666666668 251.62866065365637, 18.398666666666667 251.1759939869897, 18.38 250.70132732032306 C 18.374666666666666 250.50666065365638, 18.276 250.37999398698972, 18.084 250.32132732032306 L 18.084 249.43332732032306 C 18.513333333333335 249.47332732032305, 18.846666666666668 249.6186606536564, 19.084 249.86932732032307 C 19.321333333333335 250.11999398698973, 19.445333333333334 250.46532732032307, 19.456 250.90532732032307 C 19.46666666666667 251.21999398698972, 19.474666666666668 251.52999398698972, 19.48 251.83532732032305 C 19.485333333333333 252.14066065365637, 19.488 252.44132732032307, 19.488 252.73732732032306 C 19.488 253.03332732032305, 19.485333333333333 253.3266606536564, 19.48 253.61732732032306 C 19.474666666666668 253.9079939869897, 19.46666666666667 254.19732732032304, 19.456 254.48532732032305 C 19.439999999999998 254.93599398698973, 19.311999999999998 255.28466065365637, 19.072 255.53132732032304 C 18.832 255.7779939869897, 18.502666666666666 255.92132732032306, 18.084 255.96132732032305 Z M 21.944 255.89732732032306 L 21.944 249.49732732032305 L 23.003999999999998 249.49732732032305 L 23.003999999999998 255.89732732032306 Z " stroke="none" fill-rule="nonzero" fill="#000000" fill-opacity="1" transform="matrix(1,0,0,1,5.05,13.314)" id="text20 l" />
  <path d="M 0 248.35741640964562 L 10 248.35741640964562 L 10 249.85741640964562 L 0 249.85741640964562 Z " stroke="none" fill-rule="evenodd" fill="#000000" fill-opacity="1" transform="matrix(1,0,0,1,5.05,13.314)" id="mark21 l" />
  <path d="M 0 239.76750549896818 L 10 239.76750549896818 L 10 241.26750549896818 L 0 241.26750549896818 Z " stroke="none" fill-rule="evenodd" fill="#000000" fill-opacity="1" transform="matrix(1,0,0,1,5.05,13.314)" id="mark22 l" />
  <path d="M 0 231.17759458829076 L 10 231.17759458829076 L 10 232.67759458829076 L 0 232.67759458829076 Z " stroke="none" fill-rule="evenodd" fill="#000000" fill-opacity="1" transform="matrix(1,0,0,1,5.05,13.314)" id="mark23 l" />
  <path d="M 0 222.5876836776133 L 10 222.5876836776133 L 10 224.0876836776133 L 0 224.0876836776133 Z " stroke="none" fill-rule="evenodd" fill="#000000" fill-opacity="1" transform="matrix(1,0,0,1,5.05,13.314)" id="mark24 l" />
  <path d="M 0 213.99777276693587 L 25 213.99777276693587 L 25 215.49777276693587 L 0 215.49777276693587 Z " stroke="none" fill-rule="evenodd" fill="#000000" fill-opacity="1" transform="matrix(1,0,0,1,5.05,13.314)" id="mark25 l" />
  <path d="M 12.328 212.94777276693588 C 12.325333333333333 212.84910610026924, 12.323333333333332 212.76043943360258, 12.322 212.6817727669359 C 12.320666666666666 212.60310610026926, 12.319333333333333 212.52910610026925, 12.318 212.45977276693588 C 12.316666666666666 212.39043943360252, 12.315999999999999 212.31843943360252, 12.316 212.24377276693588 C 12.315999999999999 212.16910610026923, 12.315999999999999 212.08443943360254, 12.316 211.98977276693589 C 12.315999999999999 211.89510610026923, 12.317333333333334 211.7837727669359, 12.32 211.65577276693588 C 12.328 211.36243943360256, 12.378 211.10043943360256, 12.47 210.86977276693588 C 12.562000000000001 210.6391061002692, 12.696 210.43310610026924, 12.872 210.2517727669359 C 13.048 210.0704394336026, 13.265333333333334 209.90910610026924, 13.524000000000001 209.76777276693588 L 14.056000000000001 209.4797727669359 C 14.242666666666668 209.37843943360255, 14.362000000000002 209.25643943360257, 14.414 209.11377276693588 C 14.466000000000001 208.9711061002692, 14.495999999999999 208.8371061002692, 14.504 208.7117727669359 C 14.514666666666667 208.56510610026922, 14.520666666666667 208.40843943360255, 14.522 208.2417727669359 C 14.523333333333333 208.07510610026924, 14.520000000000001 207.91843943360257, 14.512 207.7717727669359 C 14.506666666666666 207.66777276693588, 14.476666666666667 207.5817727669359, 14.422 207.5137727669359 C 14.367333333333335 207.44577276693587, 14.288 207.3971061002692, 14.184000000000001 207.36777276693587 L 14.184000000000001 206.4797727669359 C 14.672 206.5117727669359, 15.022000000000002 206.64310610026922, 15.234 206.87377276693587 C 15.446000000000002 207.10443943360252, 15.562666666666667 207.46510610026922, 15.584 207.9557727669359 C 15.586666666666668 208.0197727669359, 15.588666666666668 208.08510610026923, 15.59 208.1517727669359 C 15.591333333333335 208.21843943360255, 15.592000000000002 208.2831061002692, 15.592 208.34577276693588 C 15.592000000000002 208.40843943360255, 15.591333333333335 208.47043943360254, 15.59 208.5317727669359 C 15.588666666666668 208.5931061002692, 15.586666666666668 208.6531061002692, 15.584 208.7117727669359 C 15.573333333333332 208.99710610026924, 15.52 209.24377276693588, 15.424 209.45177276693587 C 15.328 209.65977276693587, 15.197999999999999 209.83977276693588, 15.033999999999999 209.9917727669359 C 14.87 210.14377276693585, 14.68 210.27977276693588, 14.464 210.39977276693588 L 13.86 210.72777276693589 C 13.745333333333335 210.78910610026924, 13.655333333333335 210.87310610026924, 13.59 210.9797727669359 C 13.524666666666668 211.08643943360255, 13.478000000000002 211.1997727669359, 13.45 211.3197727669359 C 13.422 211.4397727669359, 13.408 211.55177276693587, 13.408 211.65577276693588 L 13.408 212.94777276693588 Z M 12.336 208.9077727669359 C 12.330666666666666 208.79043943360256, 12.326666666666664 208.6757727669359, 12.324 208.56377276693587 C 12.321333333333332 208.4517727669359, 12.319333333333333 208.3457727669359, 12.318 208.2457727669359 C 12.316666666666666 208.14577276693586, 12.317333333333334 208.04910610026923, 12.32 207.9557727669359 C 12.338666666666668 207.46777276693592, 12.455333333333336 207.10843943360257, 12.67 206.8777727669359 C 12.884666666666668 206.6471061002692, 13.221333333333334 206.51443943360255, 13.68 206.4797727669359 L 13.68 207.3717727669359 C 13.584 207.4011061002692, 13.513333333333332 207.44777276693588, 13.468 207.51177276693588 C 13.422666666666668 207.57577276693587, 13.398666666666667 207.6531061002692, 13.396 207.74377276693588 C 13.390666666666666 207.9517727669359, 13.387333333333332 208.14510610026923, 13.386 208.3237727669359 C 13.384666666666666 208.50243943360255, 13.389333333333333 208.6971061002692, 13.4 208.9077727669359 Z M 13.911999999999999 212.94777276693588 L 13.911999999999999 212.0157727669359 L 15.508 212.0157727669359 L 15.508 212.94777276693588 Z M 16.18 211.5317727669359 C 16.174666666666667 211.35843943360257, 16.173333333333332 211.21910610026924, 16.176 211.11377276693588 C 16.178666666666665 211.00843943360258, 16.181333333333335 210.90643943360257, 16.183999999999997 210.8077727669359 L 17.264 210.8077727669359 C 17.256 210.8851061002692, 17.25 210.9811061002692, 17.246 211.09577276693588 C 17.241999999999997 211.21043943360252, 17.240666666666666 211.32110610026922, 17.241999999999997 211.42777276693587 C 17.243333333333332 211.53443943360253, 17.246666666666666 211.61443943360254, 17.252 211.66777276693588 C 17.262666666666668 211.7877727669359, 17.297333333333334 211.88577276693587, 17.355999999999998 211.9617727669359 C 17.414666666666665 212.03777276693586, 17.497333333333334 212.0917727669359, 17.604 212.12377276693587 L 17.604 213.0157727669359 C 17.110666666666663 212.97843943360255, 16.75333333333333 212.8437727669359, 16.532 212.61177276693587 C 16.310666666666666 212.3797727669359, 16.19333333333333 212.0197727669359, 16.18 211.5317727669359 Z M 16.279999999999998 210.19577276693587 L 16.279999999999998 206.54777276693588 L 17.348 206.54777276693588 L 17.348 210.19577276693587 Z M 17.852 209.7717727669359 L 17.852 209.0157727669359 C 17.929333333333332 208.9757727669359, 18.014666666666667 208.9437727669359, 18.107999999999997 208.9197727669359 C 18.20133333333333 208.8957727669359, 18.301333333333332 208.8837727669359, 18.407999999999998 208.8837727669359 C 18.773333333333333 208.8837727669359, 19.047333333333334 208.99910610026922, 19.23 209.2297727669359 C 19.412666666666667 209.46043943360257, 19.514666666666663 209.77443943360254, 19.535999999999998 210.17177276693587 C 19.546666666666667 210.3317727669359, 19.55333333333333 210.49043943360255, 19.555999999999997 210.64777276693587 C 19.558666666666664 210.80510610026923, 19.557333333333332 210.95843943360256, 19.552 211.10777276693588 C 19.546666666666667 211.2571061002692, 19.538666666666668 211.39710610026918, 19.528 211.5277727669359 C 19.482666666666667 212.02643943360255, 19.353333333333335 212.3917727669359, 19.14 212.62377276693587 C 18.926666666666666 212.8557727669359, 18.581333333333333 212.98643943360258, 18.104 213.0157727669359 L 18.104 212.12377276693587 C 18.21333333333333 212.09443943360253, 18.296 212.04177276693588, 18.352 211.96577276693588 C 18.408 211.8897727669359, 18.44 211.79043943360256, 18.448 211.66777276693588 C 18.471999999999998 211.3771061002692, 18.485999999999997 211.1157727669359, 18.49 210.8837727669359 C 18.494 210.6517727669359, 18.485333333333333 210.43043943360254, 18.464 210.21977276693588 C 18.447999999999997 210.0651061002692, 18.396666666666665 209.9497727669359, 18.31 209.87377276693587 C 18.223333333333333 209.7977727669359, 18.090666666666664 209.7597727669359, 17.912 209.7597727669359 C 17.901333333333334 209.7597727669359, 17.890666666666668 209.76110610026922, 17.88 209.7637727669359 C 17.86933333333333 209.76643943360256, 17.86 209.7691061002692, 17.852 209.7717727669359 Z M 17.852 207.4797727669359 L 17.852 206.54777276693588 L 19.439999999999998 206.54777276693588 L 19.439999999999998 207.4797727669359 Z M 21.944 212.94777276693588 L 21.944 206.54777276693588 L 23.003999999999998 206.54777276693588 L 23.003999999999998 212.94777276693588 Z " stroke="none" fill-rule="nonzero" fill="#000000" fill-opacity="1" transform="matrix(1,0,0,1,5.05,13.314)" id="text25 l" />
  <path d="M 0 205.40786185625845 L 10 205.40786185625845 L 10 206.90786185625845 L 0 206.90786185625845 Z " stroke="none" fill-rule="evenodd" fill="#000000" fill-opacity="1" transform="matrix(1,0,0,1,5.05,13.314)" id="mark26 l" />
  <path d="M 0 196.817950945581 L 10 196.817950945581 L 10 198.317950945581 L 0 198.317950945581 Z " stroke="none" fill-rule="evenodd" fill="#000000" fill-opacity="1" transform="matrix(1,0,0,1,5.05,13.314)" id="mark27 l" />
  <path d="M 0 188.2280400349036 L 10 188.2280400349036 L 10 189.7280400349036 L 0 189.7280400349036 Z " stroke="none" fill-rule="evenodd" fill="#000000" fill-opacity="1" transform="matrix(1,0,0,1,5.05,13.314)" id="mark28 l" />
  <path d="M 0 179.63812912422614 L 10 179.63812912422614 L 10 181.13812912422614 L 0 181.13812912422614 Z " stroke="none" fill-rule="evenodd" fill="#000000" fill-opacity="1" transform="matrix(1,0,0,1,5.05,13.314)" id="mark29 l" />
  <path d="M 0 171.0482182135487 L 25 171.0482182135487 L 25 172.5482182135487 L 0 172.5482182135487 Z " stroke="none" fill-rule="evenodd" fill="#000000" fill-opacity="1" transform="matrix(1,0,0,1,5.05,13.314)" id="mark30 l" />
  <path d="M 12.223999999999998 168.5822182135487 C 12.221333333333334 168.48088488021537, 12.219333333333333 168.39688488021537, 12.218 168.3302182135487 C 12.216666666666667 168.26355154688204, 12.216666666666667 168.19555154688206, 12.218 168.12621821354873 C 12.219333333333333 168.0568848802154, 12.221333333333334 167.96755154688205, 12.223999999999998 167.85821821354872 L 13.303999999999998 167.85821821354872 L 13.303999999999998 168.7222182135487 C 13.303999999999998 168.95955154688204, 13.417333333333332 169.1102182135487, 13.643999999999998 169.1742182135487 L 13.643999999999998 170.06621821354872 C 13.155999999999999 170.0288848802154, 12.800666666666665 169.8942182135487, 12.578 169.6622182135487 C 12.355333333333334 169.4302182135487, 12.237333333333332 169.0702182135487, 12.223999999999998 168.5822182135487 Z M 12.292 164.53021821354872 L 12.292 163.5982182135487 L 15.536 163.5982182135487 L 15.536 164.53021821354872 Z M 14.143999999999998 169.17821821354872 C 14.367999999999999 169.1222182135487, 14.483999999999998 168.97155154688204, 14.491999999999999 168.72621821354872 C 14.497333333333334 168.52355154688206, 14.500666666666666 168.34088488021538, 14.501999999999999 168.17821821354872 C 14.503333333333332 168.01555154688205, 14.498666666666665 167.85821821354872, 14.488 167.7062182135487 C 14.48 167.54888488021538, 14.431999999999999 167.41555154688206, 14.344 167.3062182135487 C 14.256 167.19688488021538, 14.089333333333332 167.1448848802154, 13.844 167.1502182135487 L 13.096 167.1582182135487 L 13.068 166.2662182135487 L 14.027999999999999 164.8822182135487 L 15.216 164.8822182135487 L 14.248 166.2342182135487 L 14.28 166.2342182135487 C 14.712 166.2342182135487, 15.028666666666666 166.35688488021538, 15.229999999999999 166.60221821354872 C 15.431333333333333 166.84755154688204, 15.544 167.22488488021537, 15.568 167.7342182135487 C 15.57333333333333 167.8062182135487, 15.576666666666664 167.8782182135487, 15.578 167.9502182135487 C 15.57933333333333 168.0222182135487, 15.579999999999998 168.09288488021537, 15.579999999999998 168.1622182135487 C 15.579999999999998 168.23155154688203, 15.57933333333333 168.3008848802154, 15.578 168.3702182135487 C 15.576666666666664 168.43955154688206, 15.57333333333333 168.5102182135487, 15.568 168.5822182135487 C 15.549333333333333 169.07821821354872, 15.428666666666665 169.4428848802154, 15.206 169.6762182135487 C 14.983333333333334 169.90955154688203, 14.630666666666666 170.03955154688202, 14.148 170.06621821354872 Z M 16.196 168.5862182135487 C 16.188000000000002 168.1568848802154, 16.182666666666666 167.7402182135487, 16.18 167.3362182135487 C 16.177333333333333 166.9322182135487, 16.177999999999997 166.53688488021538, 16.182 166.1502182135487 C 16.186 165.76355154688204, 16.190666666666665 165.3822182135487, 16.196 165.00621821354872 C 16.209333333333333 164.56621821354872, 16.334000000000003 164.22088488021538, 16.57 163.97021821354872 C 16.805999999999997 163.71955154688206, 17.142666666666663 163.5742182135487, 17.58 163.5342182135487 L 17.58 164.42221821354872 C 17.382666666666665 164.47821821354873, 17.281333333333333 164.60755154688206, 17.276 164.81021821354872 C 17.262666666666668 165.1808848802154, 17.253333333333334 165.52888488021537, 17.248 165.8542182135487 C 17.242666666666665 166.17955154688204, 17.24 166.49621821354873, 17.24 166.80421821354872 C 17.24 167.11221821354872, 17.242666666666665 167.42688488021537, 17.248 167.7482182135487 C 17.253333333333334 168.06955154688205, 17.262666666666668 168.4128848802154, 17.276 168.7782182135487 C 17.281333333333333 168.9862182135487, 17.382666666666665 169.11821821354872, 17.58 169.1742182135487 L 17.58 170.0622182135487 C 17.142666666666663 170.0222182135487, 16.805999999999997 169.87621821354873, 16.57 169.62421821354872 C 16.334000000000003 169.3722182135487, 16.209333333333333 169.0262182135487, 16.196 168.5862182135487 Z M 18.084 170.0622182135487 L 18.084 169.1702182135487 C 18.268 169.1168848802154, 18.366666666666667 168.9928848802154, 18.38 168.79821821354872 C 18.398666666666667 168.33155154688205, 18.410666666666668 167.88288488021539, 18.416 167.45221821354872 C 18.421333333333333 167.02155154688205, 18.421333333333333 166.59088488021538, 18.416 166.16021821354872 C 18.410666666666668 165.72955154688205, 18.398666666666667 165.27688488021536, 18.38 164.8022182135487 C 18.374666666666666 164.60755154688204, 18.276 164.48088488021537, 18.084 164.42221821354872 L 18.084 163.5342182135487 C 18.513333333333335 163.5742182135487, 18.846666666666668 163.71955154688206, 19.084 163.97021821354872 C 19.321333333333335 164.22088488021538, 19.445333333333334 164.56621821354872, 19.456 165.00621821354872 C 19.46666666666667 165.32088488021537, 19.474666666666668 165.63088488021538, 19.48 165.9362182135487 C 19.485333333333333 166.24155154688202, 19.488 166.5422182135487, 19.488 166.8382182135487 C 19.488 167.1342182135487, 19.485333333333333 167.42755154688206, 19.48 167.7182182135487 C 19.474666666666668 168.00888488021536, 19.46666666666667 168.2982182135487, 19.456 168.5862182135487 C 19.439999999999998 169.03688488021538, 19.311999999999998 169.38555154688206, 19.072 169.6322182135487 C 18.832 169.87888488021537, 18.502666666666666 170.0222182135487, 18.084 170.0622182135487 Z M 21.944 169.9982182135487 L 21.944 163.5982182135487 L 23.003999999999998 163.5982182135487 L 23.003999999999998 169.9982182135487 Z " stroke="none" fill-rule="nonzero" fill="#000000" fill-opacity="1" transform="matrix(1,0,0,1,5.05,13.314)" id="text30 l" />
  <path d="M 0 162.45830730287128 L 10 162.45830730287128 L 10 163.95830730287128 L 0 163.95830730287128 Z " stroke="none" fill-rule="evenodd" fill="#000000" fill-opacity="1" transform="matrix(1,0,0,1,5.05,13.314)" id="mark31 l" />
  <path d="M 0 153.86839639219386 L 10 153.86839639219386 L 10 155.36839639219386 L 0 155.36839639219386 Z " stroke="none" fill-rule="evenodd" fill="#000000" fill-opacity="1" transform="matrix(1,0,0,1,5.05,13.314)" id="mark32 l" />
  <path d="M 0 145.27848548151638 L 10 145.27848548151638 L 10 146.77848548151638 L 0 146.77848548151638 Z " stroke="none" fill-rule="evenodd" fill="#000000" fill-opacity="1" transform="matrix(1,0,0,1,5.05,13.314)" id="mark33 l" />
  <path d="M 0 136.68857457083897 L 10 136.68857457083897 L 10 138.18857457083897 L 0 138.18857457083897 Z " stroke="none" fill-rule="evenodd" fill="#000000" fill-opacity="1" transform="matrix(1,0,0,1,5.05,13.314)" id="mark34 l" />
  <path d="M 0 128.09866366016155 L 25 128.09866366016155 L 25 129.59866366016155 L 0 129.59866366016155 Z " stroke="none" fill-rule="evenodd" fill="#000000" fill-opacity="1" transform="matrix(1,0,0,1,5.05,13.314)" id="mark35 l" />
  <path d="M 12.232 125.60066366016156 C 12.229333333333333 125.49933032682823, 12.227333333333334 125.41533032682823, 12.226 125.34866366016155 C 12.224666666666668 125.28199699349489, 12.224666666666668 125.21399699349489, 12.226 125.14466366016156 C 12.227333333333334 125.07533032682822, 12.229333333333333 124.9859969934949, 12.232 124.87666366016155 L 13.312 124.87666366016155 L 13.312 125.74066366016156 C 13.312 125.97799699349488, 13.425333333333333 126.12866366016155, 13.652 126.19266366016156 L 13.652 127.08466366016155 C 13.164 127.04733032682822, 12.808666666666667 126.91266366016156, 12.586 126.68066366016156 C 12.363333333333333 126.44866366016156, 12.245333333333335 126.08866366016156, 12.232 125.60066366016156 Z M 12.3 121.54866366016155 L 12.3 120.61666366016155 L 15.544 120.61666366016155 L 15.544 121.54866366016155 Z M 14.152000000000001 126.19666366016156 C 14.376000000000001 126.14066366016156, 14.492 125.98999699349488, 14.5 125.74466366016155 C 14.505333333333333 125.54199699349488, 14.508666666666667 125.35933032682823, 14.51 125.19666366016156 C 14.511333333333333 125.0339969934949, 14.506666666666668 124.87666366016155, 14.496 124.72466366016155 C 14.488 124.56733032682821, 14.440000000000001 124.43399699349487, 14.352 124.32466366016155 C 14.264 124.21533032682822, 14.097333333333335 124.16333032682823, 13.852 124.16866366016156 L 13.104 124.17666366016155 L 13.076 123.28466366016156 L 14.036 121.90066366016156 L 15.224 121.90066366016156 L 14.256 123.25266366016156 L 14.288 123.25266366016156 C 14.719999999999999 123.25266366016157, 15.036666666666665 123.37533032682822, 15.238 123.62066366016155 C 15.439333333333334 123.86599699349489, 15.552 124.24333032682821, 15.576 124.75266366016156 C 15.581333333333333 124.82466366016155, 15.584666666666667 124.89666366016155, 15.586 124.96866366016155 C 15.587333333333333 125.04066366016156, 15.588000000000001 125.11133032682822, 15.588000000000001 125.18066366016156 C 15.588000000000001 125.24999699349489, 15.587333333333333 125.31933032682822, 15.586 125.38866366016155 C 15.584666666666667 125.45799699349489, 15.581333333333333 125.52866366016156, 15.576 125.60066366016156 C 15.557333333333334 126.09666366016155, 15.436666666666667 126.46133032682822, 15.214 126.69466366016155 C 14.991333333333333 126.92799699349489, 14.638666666666666 127.0579969934949, 14.156 127.08466366016155 Z M 16.18 125.60066366016156 C 16.174666666666667 125.42733032682823, 16.173333333333332 125.28799699349489, 16.176 125.18266366016155 C 16.178666666666665 125.07733032682822, 16.181333333333335 124.97533032682821, 16.183999999999997 124.87666366016155 L 17.264 124.87666366016155 C 17.256 124.95399699349488, 17.25 125.04999699349489, 17.246 125.16466366016155 C 17.241999999999997 125.27933032682822, 17.240666666666666 125.38999699349489, 17.241999999999997 125.49666366016156 C 17.243333333333332 125.60333032682823, 17.246666666666666 125.68333032682823, 17.252 125.73666366016155 C 17.262666666666668 125.85666366016156, 17.297333333333334 125.95466366016156, 17.355999999999998 126.03066366016155 C 17.414666666666665 126.10666366016156, 17.497333333333334 126.16066366016156, 17.604 126.19266366016156 L 17.604 127.08466366016155 C 17.110666666666663 127.04733032682822, 16.75333333333333 126.91266366016156, 16.532 126.68066366016156 C 16.310666666666666 126.44866366016156, 16.19333333333333 126.08866366016156, 16.18 125.60066366016156 Z M 16.279999999999998 124.26466366016156 L 16.279999999999998 120.61666366016155 L 17.348 120.61666366016155 L 17.348 124.26466366016156 Z M 17.852 123.84066366016155 L 17.852 123.08466366016155 C 17.929333333333332 123.04466366016155, 18.014666666666667 123.01266366016154, 18.107999999999997 122.98866366016155 C 18.20133333333333 122.96466366016156, 18.301333333333332 122.95266366016156, 18.407999999999998 122.95266366016156 C 18.773333333333333 122.95266366016156, 19.047333333333334 123.06799699349489, 19.23 123.29866366016155 C 19.412666666666667 123.52933032682822, 19.514666666666663 123.84333032682822, 19.535999999999998 124.24066366016156 C 19.546666666666667 124.40066366016156, 19.55333333333333 124.55933032682822, 19.555999999999997 124.71666366016156 C 19.558666666666664 124.8739969934949, 19.557333333333332 125.02733032682822, 19.552 125.17666366016155 C 19.546666666666667 125.32599699349488, 19.538666666666668 125.46599699349488, 19.528 125.59666366016155 C 19.482666666666667 126.09533032682822, 19.353333333333335 126.46066366016154, 19.14 126.69266366016156 C 18.926666666666666 126.92466366016154, 18.581333333333333 127.05533032682823, 18.104 127.08466366016155 L 18.104 126.19266366016156 C 18.21333333333333 126.16333032682823, 18.296 126.11066366016156, 18.352 126.03466366016156 C 18.408 125.95866366016155, 18.44 125.85933032682821, 18.448 125.73666366016155 C 18.471999999999998 125.44599699349489, 18.485999999999997 125.18466366016156, 18.49 124.95266366016156 C 18.494 124.72066366016156, 18.485333333333333 124.49933032682821, 18.464 124.28866366016156 C 18.447999999999997 124.13399699349489, 18.396666666666665 124.01866366016156, 18.31 123.94266366016156 C 18.223333333333333 123.86666366016155, 18.090666666666664 123.82866366016154, 17.912 123.82866366016155 C 17.901333333333334 123.82866366016154, 17.890666666666668 123.82999699349489, 17.88 123.83266366016156 C 17.86933333333333 123.83533032682823, 17.86 123.8379969934949, 17.852 123.84066366016155 Z M 17.852 121.54866366016155 L 17.852 120.61666366016155 L 19.439999999999998 120.61666366016155 L 19.439999999999998 121.54866366016155 Z M 21.944 127.01666366016156 L 21.944 120.61666366016155 L 23.003999999999998 120.61666366016155 L 23.003999999999998 127.01666366016156 Z " stroke="none" fill-rule="nonzero" fill="#000000" fill-opacity="1" transform="matrix(1,0,0,1,5.05,13.314)" id="text35 l" />
  <path d="M 0 119.50875274948407 L 10 119.50875274948407 L 10 121.00875274948407 L 0 121.00875274948407 Z " stroke="none" fill-rule="evenodd" fill="#000000" fill-opacity="1" transform="matrix(1,0,0,1,5.05,13.314)" id="mark36 l" />
  <path d="M 0 110.91884183880666 L 10 110.91884183880666 L 10 112.41884183880666 L 0 112.41884183880666 Z " stroke="none" fill-rule="evenodd" fill="#000000" fill-opacity="1" transform="matrix(1,0,0,1,5.05,13.314)" id="mark37 l" />
  <path d="M 0 102.32893092812924 L 10 102.32893092812924 L 10 103.82893092812924 L 0 103.82893092812924 Z " stroke="none" fill-rule="evenodd" fill="#000000" fill-opacity="1" transform="matrix(1,0,0,1,5.05,13.314)" id="mark38 l" />
  <path d="M 0 93.73902001745182 L 10 93.73902001745182 L 10 95.23902001745182 L 0 95.23902001745182 Z " stroke="none" fill-rule="evenodd" fill="#000000" fill-opacity="1" transform="matrix(1,0,0,1,5.05,13.314)" id="mark39 l" />
  <path d="M 0 85.14910910677435 L 25 85.14910910677435 L 25 86.64910910677435 L 0 86.64910910677435 Z " stroke="none" fill-rule="evenodd" fill="#000000" fill-opacity="1" transform="matrix(1,0,0,1,5.05,13.314)" id="mark40 l" />
  <path d="M 11.739999999999998 82.41510910677435 L 11.739999999999998 81.53910910677435 L 12.455999999999998 79.65910910677435 L 13.495999999999999 79.65910910677435 L 12.771999999999998 81.49110910677435 L 13.171999999999997 81.49110910677435 L 13.171999999999997 82.41510910677435 Z M 13.675999999999998 84.09910910677435 L 13.675999999999998 77.69910910677434 L 14.683999999999997 77.69910910677434 L 14.683999999999997 84.09910910677435 Z M 15.187999999999999 82.41510910677435 L 15.187999999999999 81.49110910677435 L 15.655999999999999 81.49110910677435 L 15.655999999999999 82.41510910677435 Z M 16.195999999999998 82.68710910677434 C 16.188 82.25777577344101, 16.182666666666666 81.84110910677435, 16.18 81.43710910677434 C 16.177333333333333 81.03310910677435, 16.177999999999997 80.63777577344102, 16.182 80.25110910677435 C 16.186 79.86444244010768, 16.190666666666665 79.48310910677435, 16.195999999999998 79.10710910677435 C 16.20933333333333 78.66710910677435, 16.333999999999996 78.32177577344102, 16.569999999999997 78.07110910677434 C 16.805999999999997 77.82044244010768, 17.142666666666663 77.67510910677436, 17.58 77.63510910677435 L 17.58 78.52310910677436 C 17.382666666666665 78.57910910677435, 17.281333333333333 78.70844244010767, 17.275999999999996 78.91110910677435 C 17.262666666666664 79.28177577344101, 17.25333333333333 79.62977577344101, 17.247999999999998 79.95510910677434 C 17.242666666666665 80.28044244010768, 17.24 80.59710910677435, 17.24 80.90510910677435 C 17.24 81.21310910677434, 17.242666666666665 81.52777577344102, 17.247999999999998 81.84910910677435 C 17.25333333333333 82.17044244010768, 17.262666666666664 82.51377577344101, 17.275999999999996 82.87910910677435 C 17.281333333333333 83.08710910677435, 17.382666666666665 83.21910910677435, 17.58 83.27510910677435 L 17.58 84.16310910677434 C 17.142666666666663 84.12310910677435, 16.805999999999997 83.97710910677435, 16.569999999999997 83.72510910677435 C 16.333999999999996 83.47310910677436, 16.20933333333333 83.12710910677436, 16.195999999999998 82.68710910677434 Z M 18.084 84.16310910677434 L 18.084 83.27110910677435 C 18.268 83.21777577344102, 18.366666666666667 83.09377577344101, 18.38 82.89910910677435 C 18.398666666666664 82.43244244010768, 18.410666666666664 81.98377577344101, 18.415999999999997 81.55310910677434 C 18.42133333333333 81.12244244010769, 18.42133333333333 80.69177577344102, 18.415999999999997 80.26110910677436 C 18.410666666666664 79.83044244010769, 18.398666666666664 79.37777577344102, 18.38 78.90310910677435 C 18.374666666666666 78.70844244010769, 18.276 78.58177577344102, 18.084 78.52310910677436 L 18.084 77.63510910677435 C 18.513333333333332 77.67510910677436, 18.846666666666664 77.82044244010768, 19.083999999999996 78.07110910677434 C 19.32133333333333 78.32177577344102, 19.44533333333333 78.66710910677435, 19.456 79.10710910677435 C 19.466666666666665 79.42177577344103, 19.474666666666664 79.73177577344103, 19.479999999999997 80.03710910677435 C 19.48533333333333 80.34244244010767, 19.488 80.64310910677435, 19.488 80.93910910677435 C 19.488 81.23510910677436, 19.48533333333333 81.52844244010768, 19.479999999999997 81.81910910677435 C 19.474666666666664 82.10977577344102, 19.466666666666665 82.39910910677435, 19.456 82.68710910677434 C 19.439999999999998 83.137775773441, 19.311999999999998 83.48644244010768, 19.072 83.73310910677435 C 18.831999999999997 83.97977577344102, 18.502666666666663 84.12310910677435, 18.084 84.16310910677434 Z M 21.944 84.09910910677435 L 21.944 77.69910910677434 L 23.003999999999998 77.69910910677434 L 23.003999999999998 84.09910910677435 Z " stroke="none" fill-rule="nonzero" fill="#000000" fill-opacity="1" transform="matrix(1,0,0,1,5.05,13.314)" id="text40 l" />
  <path d="M 0 76.55919819609693 L 10 76.55919819609693 L 10 78.05919819609693 L 0 78.05919819609693 Z " stroke="none" fill-rule="evenodd" fill="#000000" fill-opacity="1" transform="matrix(1,0,0,1,5.05,13.314)" id="mark41 l" />
  <path d="M 0 67.96928728541951 L 10 67.96928728541951 L 10 69.46928728541951 L 0 69.46928728541951 Z " stroke="none" fill-rule="evenodd" fill="#000000" fill-opacity="1" transform="matrix(1,0,0,1,5.05,13.314)" id="mark42 l" />
  <path d="M 0 59.37937637474204 L 10 59.37937637474204 L 10 60.87937637474204 L 0 60.87937637474204 Z " stroke="none" fill-rule="evenodd" fill="#000000" fill-opacity="1" transform="matrix(1,0,0,1,5.05,13.314)" id="mark43 l" />
  <path d="M 0 50.78946546406462 L 10 50.78946546406462 L 10 52.28946546406462 L 0 52.28946546406462 Z " stroke="none" fill-rule="evenodd" fill="#000000" fill-opacity="1" transform="matrix(1,0,0,1,5.05,13.314)" id="mark44 l" />
  <path d="M 0 42.1995545533872 L 25 42.1995545533872 L 25 43.6995545533872 L 0 43.6995545533872 Z " stroke="none" fill-rule="evenodd" fill="#000000" fill-opacity="1" transform="matrix(1,0,0,1,5.05,13.314)" id="mark45 l" />
  <path d="M 11.748 39.433554553387204 L 11.748 38.5575545533872 L 12.463999999999999 36.6775545533872 L 13.503999999999998 36.6775545533872 L 12.78 38.509554553387204 L 13.18 38.509554553387204 L 13.18 39.433554553387204 Z M 13.684 41.1175545533872 L 13.684 34.7175545533872 L 14.691999999999998 34.7175545533872 L 14.691999999999998 41.1175545533872 Z M 15.195999999999998 39.433554553387204 L 15.195999999999998 38.509554553387204 L 15.663999999999998 38.509554553387204 L 15.663999999999998 39.433554553387204 Z M 16.18 39.701554553387204 C 16.174666666666667 39.528221220053865, 16.173333333333332 39.38888788672053, 16.176 39.2835545533872 C 16.178666666666665 39.17822122005387, 16.181333333333335 39.07622122005387, 16.183999999999997 38.9775545533872 L 17.264 38.9775545533872 C 17.256 39.054887886720536, 17.25 39.15088788672054, 17.246 39.265554553387204 C 17.241999999999997 39.38022122005387, 17.240666666666666 39.490887886720536, 17.241999999999997 39.5975545533872 C 17.243333333333332 39.70422122005387, 17.246666666666666 39.784221220053865, 17.252 39.8375545533872 C 17.262666666666668 39.9575545533872, 17.297333333333334 40.0555545533872, 17.355999999999998 40.131554553387204 C 17.414666666666665 40.207554553387205, 17.497333333333334 40.2615545533872, 17.604 40.2935545533872 L 17.604 41.1855545533872 C 17.110666666666663 41.14822122005387, 16.75333333333333 41.0135545533872, 16.532 40.7815545533872 C 16.310666666666666 40.5495545533872, 16.19333333333333 40.189554553387204, 16.18 39.701554553387204 Z M 16.279999999999998 38.3655545533872 L 16.279999999999998 34.7175545533872 L 17.348 34.7175545533872 L 17.348 38.3655545533872 Z M 17.852 37.9415545533872 L 17.852 37.1855545533872 C 17.929333333333332 37.1455545533872, 18.014666666666667 37.1135545533872, 18.107999999999997 37.0895545533872 C 18.20133333333333 37.0655545533872, 18.301333333333332 37.0535545533872, 18.407999999999998 37.0535545533872 C 18.773333333333333 37.0535545533872, 19.047333333333334 37.16888788672054, 19.23 37.399554553387205 C 19.412666666666667 37.63022122005387, 19.514666666666663 37.94422122005387, 19.535999999999998 38.3415545533872 C 19.546666666666667 38.5015545533872, 19.55333333333333 38.66022122005387, 19.555999999999997 38.817554553387204 C 19.558666666666664 38.97488788672054, 19.557333333333332 39.12822122005387, 19.552 39.2775545533872 C 19.546666666666667 39.426887886720536, 19.538666666666668 39.56688788672054, 19.528 39.6975545533872 C 19.482666666666667 40.19622122005387, 19.353333333333335 40.561554553387204, 19.14 40.7935545533872 C 18.926666666666666 41.0255545533872, 18.581333333333333 41.156221220053865, 18.104 41.1855545533872 L 18.104 40.2935545533872 C 18.21333333333333 40.26422122005387, 18.296 40.2115545533872, 18.352 40.1355545533872 C 18.408 40.0595545533872, 18.44 39.96022122005387, 18.448 39.8375545533872 C 18.471999999999998 39.54688788672053, 18.485999999999997 39.2855545533872, 18.49 39.0535545533872 C 18.494 38.8215545533872, 18.485333333333333 38.60022122005387, 18.464 38.3895545533872 C 18.447999999999997 38.23488788672053, 18.396666666666665 38.119554553387204, 18.31 38.0435545533872 C 18.223333333333333 37.9675545533872, 18.090666666666664 37.9295545533872, 17.912 37.9295545533872 C 17.901333333333334 37.9295545533872, 17.890666666666668 37.930887886720534, 17.88 37.933554553387204 C 17.86933333333333 37.936221220053866, 17.86 37.938887886720536, 17.852 37.9415545533872 Z M 17.852 35.649554553387205 L 17.852 34.7175545533872 L 19.439999999999998 34.7175545533872 L 19.439999999999998 35.649554553387205 Z M 21.944 41.1175545533872 L 21.944 34.7175545533872 L 23.003999999999998 34.7175545533872 L 23.003999999999998 41.1175545533872 Z " stroke="none" fill-rule="nonzero" fill="#000000" fill-opacity="1" transform="matrix(1,0,0,1,5.05,13.314)" id="text45 l" />
  <path d="M 0 33.609643642709784 L 10 33.609643642709784 L 10 35.109643642709784 L 0 35.109643642709784 Z " stroke="none" fill-rule="evenodd" fill="#000000" fill-opacity="1" transform="matrix(1,0,0,1,5.05,13.314)" id="mark46 l" />
  <path d="M 0 25.01973273203231 L 10 25.01973273203231 L 10 26.51973273203231 L 0 26.51973273203231 Z " stroke="none" fill-rule="evenodd" fill="#000000" fill-opacity="1" transform="matrix(1,0,0,1,5.05,13.314)" id="mark47 l" />
  <path d="M 0 16.429821821354892 L 10 16.429821821354892 L 10 17.929821821354892 L 0 17.929821821354892 Z " stroke="none" fill-rule="evenodd" fill="#000000" fill-opacity="1" transform="matrix(1,0,0,1,5.05,13.314)" id="mark48 l" />
  <path d="M 0 7.8399109106774745 L 10 7.8399109106774745 L 10 9.339910910677474 L 0 9.339910910677474 Z " stroke="none" fill-rule="evenodd" fill="#000000" fill-opacity="1" transform="matrix(1,0,0,1,5.05,13.314)" id="mark49 l" />
  <path d="M 0 -0.75 L 25 -0.75 L 25 0.75 L 0 0.75 Z " stroke="none" fill-rule="evenodd" fill="#000000" fill-opacity="1" transform="matrix(1,0,0,1,5.05,13.314)" id="mark50 l" />
  <path d="M 12.204 -3.2159999999999997 C 12.198666666666668 -3.389333333333333, 12.197333333333333 -3.528666666666667, 12.2 -3.634 C 12.202666666666667 -3.7393333333333336, 12.205333333333336 -3.841333333333333, 12.208 -3.94 L 13.288 -3.94 C 13.280000000000001 -3.8626666666666667, 13.274000000000001 -3.7666666666666666, 13.27 -3.6519999999999997 C 13.265999999999998 -3.5373333333333328, 13.264666666666667 -3.4266666666666667, 13.266 -3.32 C 13.267333333333333 -3.213333333333334, 13.270666666666667 -3.1333333333333337, 13.276 -3.08 C 13.286666666666665 -2.96, 13.321333333333332 -2.862, 13.379999999999999 -2.7859999999999996 C 13.438666666666666 -2.71, 13.521333333333335 -2.6559999999999997, 13.628 -2.6239999999999997 L 13.628 -1.7319999999999998 C 13.134666666666668 -1.7693333333333332, 12.777333333333335 -1.904, 12.556 -2.1359999999999997 C 12.334666666666667 -2.368, 12.217333333333332 -2.7279999999999998, 12.204 -3.2159999999999997 Z M 12.304 -4.552 L 12.304 -8.2 L 13.372 -8.2 L 13.372 -4.552 Z M 13.876 -4.976 L 13.876 -5.731999999999999 C 13.953333333333333 -5.771999999999999, 14.038666666666668 -5.804, 14.132 -5.828 C 14.225333333333333 -5.852, 14.325333333333333 -5.864, 14.432 -5.864 C 14.797333333333334 -5.864, 15.071333333333332 -5.748666666666667, 15.254 -5.518 C 15.436666666666667 -5.287333333333333, 15.538666666666668 -4.973333333333333, 15.56 -4.576 C 15.570666666666668 -4.416, 15.577333333333334 -4.257333333333333, 15.58 -4.1 C 15.582666666666666 -3.9426666666666668, 15.581333333333333 -3.7893333333333334, 15.576 -3.6399999999999997 C 15.570666666666666 -3.490666666666667, 15.562666666666665 -3.3506666666666667, 15.552 -3.2199999999999998 C 15.506666666666668 -2.721333333333333, 15.377333333333333 -2.356, 15.164 -2.1239999999999997 C 14.950666666666667 -1.892, 14.605333333333332 -1.7613333333333332, 14.128 -1.7319999999999998 L 14.128 -2.6239999999999997 C 14.237333333333334 -2.653333333333333, 14.32 -2.7059999999999995, 14.376 -2.782 C 14.432 -2.8579999999999997, 14.464 -2.957333333333333, 14.472 -3.08 C 14.495999999999999 -3.3706666666666667, 14.509999999999998 -3.6319999999999997, 14.514 -3.864 C 14.518 -4.096, 14.509333333333334 -4.317333333333333, 14.488 -4.5280000000000005 C 14.472000000000001 -4.682666666666667, 14.420666666666666 -4.798, 14.334 -4.874 C 14.247333333333334 -4.949999999999999, 14.114666666666666 -4.9879999999999995, 13.936 -4.9879999999999995 C 13.925333333333333 -4.9879999999999995, 13.914666666666665 -4.986666666666666, 13.904 -4.984 C 13.893333333333334 -4.981333333333334, 13.884 -4.978666666666667, 13.876 -4.976 Z M 13.876 -7.268 L 13.876 -8.2 L 15.464 -8.2 L 15.464 -7.268 Z M 16.196 -3.2119999999999997 C 16.188000000000002 -3.641333333333333, 16.182666666666666 -4.058, 16.18 -4.462 C 16.177333333333333 -4.866, 16.177999999999997 -5.261333333333333, 16.182 -5.648 C 16.186 -6.034666666666666, 16.190666666666665 -6.416, 16.196 -6.792 C 16.209333333333333 -7.231999999999999, 16.334000000000003 -7.577333333333334, 16.57 -7.828 C 16.805999999999997 -8.078666666666667, 17.142666666666663 -8.224, 17.58 -8.264 L 17.58 -7.3759999999999994 C 17.382666666666665 -7.32, 17.281333333333333 -7.190666666666667, 17.276 -6.9879999999999995 C 17.262666666666668 -6.617333333333333, 17.253333333333334 -6.269333333333333, 17.248 -5.944 C 17.242666666666665 -5.618666666666666, 17.24 -5.302, 17.24 -4.994 C 17.24 -4.686, 17.242666666666665 -4.371333333333333, 17.248 -4.05 C 17.253333333333334 -3.7286666666666664, 17.262666666666668 -3.3853333333333326, 17.276 -3.0199999999999996 C 17.281333333333333 -2.812, 17.382666666666665 -2.6799999999999997, 17.58 -2.6239999999999997 L 17.58 -1.7359999999999998 C 17.142666666666663 -1.7759999999999998, 16.805999999999997 -1.9219999999999997, 16.57 -2.174 C 16.334000000000003 -2.4259999999999997, 16.209333333333333 -2.772, 16.196 -3.2119999999999997 Z M 18.084 -1.7359999999999998 L 18.084 -2.6279999999999997 C 18.268 -2.681333333333333, 18.366666666666667 -2.8053333333333335, 18.38 -3 C 18.398666666666667 -3.4666666666666663, 18.410666666666668 -3.915333333333333, 18.416 -4.346 C 18.421333333333333 -4.776666666666666, 18.421333333333333 -5.207333333333333, 18.416 -5.638 C 18.410666666666668 -6.068666666666666, 18.398666666666667 -6.521333333333333, 18.38 -6.9959999999999996 C 18.374666666666666 -7.190666666666667, 18.276 -7.317333333333334, 18.084 -7.3759999999999994 L 18.084 -8.264 C 18.513333333333335 -8.224, 18.846666666666668 -8.078666666666667, 19.084 -7.828 C 19.321333333333335 -7.577333333333334, 19.445333333333334 -7.231999999999999, 19.456 -6.792 C 19.46666666666667 -6.477333333333332, 19.474666666666668 -6.167333333333333, 19.48 -5.861999999999999 C 19.485333333333333 -5.556666666666667, 19.488 -5.256, 19.488 -4.96 C 19.488 -4.664, 19.485333333333333 -4.370666666666667, 19.48 -4.08 C 19.474666666666668 -3.7893333333333334, 19.46666666666667 -3.5, 19.456 -3.2119999999999997 C 19.439999999999998 -2.761333333333333, 19.311999999999998 -2.4126666666666665, 19.072 -2.166 C 18.832 -1.9193333333333331, 18.502666666666666 -1.7759999999999998, 18.084 -1.7359999999999998 Z M 21.944 -1.7999999999999998 L 21.944 -8.2 L 23.003999999999998 -8.2 L 23.003999999999998 -1.7999999999999998 Z " stroke="none" fill-rule="nonzero" fill="#000000" fill-opacity="1" transform="matrix(1,0,0,1,5.05,13.314)" id="text50 l" />
  <path d="M -5 -13.264 L 30 -13.264 L 30 427.67363462319423 L -5 427.67363462319423 Z " stroke="#FF0000" stroke-opacity="1" stroke-width="0.1" stroke-linecap="butt" stroke-linejoin="miter" fill="none" transform="matrix(1,0,0,1,5.05,13.314)" />
</svg>