<?xml version="1.0" encoding="UTF-8"?>
<svg xmlns:xlink="http://www.w3.org/1999/xlink" viewBox="0 0 35.1 322.31297655990574" version="1.1" style="font-synthesis: none;" width="35.1mm" height="322.31297655990574mm" xmlns="http://www.w3.org/2000/svg">
  <defs />
  <style>	</style>
  <path d="M 0 0 L 35.1 0 L 35.1 322.31297655990574 L 0 322.31297655990574 Z " stroke="none" fill-rule="nonzero" fill="#FFFFFF" fill-opacity="1" transform="matrix(1,0,0,1,0,0)" />
  <path d="M 0 301.43097655990573 L 10 301.43097655990573 L 10 302.93097655990573 L 0 302.93097655990573 Z " stroke="none" fill-rule="evenodd" fill="#000000" fill-opacity="1" transform="matrix(1,0,0,1,5.05,13.314)" id="mark1 l" />
  <path d="M 0 288.84010253657635 L 10 288.84010253657635 L 10 290.34010253657635 L 0 290.34010253657635 Z " stroke="none" fill-rule="evenodd" fill="#000000" fill-opacity="1" transform="matrix(1,0,0,1,5.05,13.314)" id="mark2 l" />
  <path d="M 0 276.249228513247 L 10 276.249228513247 L 10 277.749228513247 L 0 277.749228513247 Z " stroke="none" fill-rule="evenodd" fill="#000000" fill-opacity="1" transform="matrix(1,0,0,1,5.05,13.314)" id="mark3 l" />
  <path d="M 0 263.65835448991754 L 10 263.65835448991754 L 10 265.15835448991754 L 0 265.15835448991754 Z " stroke="none" fill-rule="evenodd" fill="#000000" fill-opacity="1" transform="matrix(1,0,0,1,5.05,13.314)" id="mark4 l" />
  <path d="M 0 251.06748046658814 L 25 251.06748046658814 L 25 252.56748046658814 L 0 252.56748046658814 Z " stroke="none" fill-rule="evenodd" fill="#000000" fill-opacity="1" transform="matrix(1,0,0,1,5.05,13.314)" id="mark5 l" />
  <path d="M 16.18 248.56948046658815 C 16.174666666666667 248.39614713325483, 16.173333333333332 248.25681379992147, 16.176 248.15148046658814 C 16.178666666666665 248.0461471332548, 16.181333333333335 247.94414713325483, 16.183999999999997 247.84548046658816 L 17.264 247.84548046658816 C 17.256 247.92281379992147, 17.25 248.01881379992147, 17.246 248.13348046658814 C 17.241999999999997 248.2481471332548, 17.240666666666666 248.35881379992148, 17.241999999999997 248.46548046658813 C 17.243333333333332 248.5721471332548, 17.246666666666666 248.6521471332548, 17.252 248.70548046658814 C 17.262666666666668 248.82548046658815, 17.297333333333334 248.92348046658816, 17.355999999999998 248.99948046658815 C 17.414666666666665 249.07548046658815, 17.497333333333334 249.12948046658812, 17.604 249.16148046658813 L 17.604 250.05348046658816 C 17.110666666666663 250.0161471332548, 16.75333333333333 249.88148046658813, 16.532 249.64948046658813 C 16.310666666666666 249.41748046658813, 16.19333333333333 249.05748046658812, 16.18 248.56948046658815 Z M 16.279999999999998 247.23348046658813 L 16.279999999999998 243.58548046658814 L 17.348 243.58548046658814 L 17.348 247.23348046658813 Z M 17.852 246.80948046658816 L 17.852 246.05348046658816 C 17.929333333333332 246.01348046658813, 18.014666666666667 245.98148046658815, 18.107999999999997 245.95748046658815 C 18.20133333333333 245.93348046658815, 18.301333333333332 245.92148046658815, 18.407999999999998 245.92148046658815 C 18.773333333333333 245.92148046658815, 19.047333333333334 246.03681379992148, 19.23 246.26748046658815 C 19.412666666666667 246.49814713325483, 19.514666666666663 246.81214713325483, 19.535999999999998 247.20948046658813 C 19.546666666666667 247.36948046658813, 19.55333333333333 247.52814713325478, 19.555999999999997 247.68548046658813 C 19.558666666666664 247.8428137999215, 19.557333333333332 247.9961471332548, 19.552 248.14548046658814 C 19.546666666666667 248.29481379992149, 19.538666666666668 248.43481379992147, 19.528 248.56548046658816 C 19.482666666666667 249.06414713325483, 19.353333333333335 249.42948046658813, 19.14 249.66148046658813 C 18.926666666666666 249.89348046658813, 18.581333333333333 250.02414713325481, 18.104 250.05348046658816 L 18.104 249.16148046658813 C 18.21333333333333 249.13214713325482, 18.296 249.07948046658817, 18.352 249.00348046658814 C 18.408 248.92748046658812, 18.44 248.8281471332548, 18.448 248.70548046658814 C 18.471999999999998 248.4148137999215, 18.485999999999997 248.15348046658815, 18.49 247.92148046658815 C 18.494 247.68948046658815, 18.485333333333333 247.46814713325483, 18.464 247.25748046658813 C 18.447999999999997 247.10281379992148, 18.396666666666665 246.98748046658812, 18.31 246.91148046658813 C 18.223333333333333 246.83548046658814, 18.090666666666664 246.79748046658813, 17.912 246.79748046658815 C 17.901333333333334 246.79748046658813, 17.890666666666668 246.79881379992148, 17.88 246.80148046658815 C 17.86933333333333 246.80414713325482, 17.86 246.80681379992149, 17.852 246.80948046658816 Z M 17.852 244.51748046658815 L 17.852 243.58548046658814 L 19.439999999999998 243.58548046658814 L 19.439999999999998 244.51748046658815 Z M 21.944 249.98548046658814 L 21.944 243.58548046658814 L 23.003999999999998 243.58548046658814 L 23.003999999999998 249.98548046658814 Z " stroke="none" fill-rule="nonzero" fill="#000000" fill-opacity="1" transform="matrix(1,0,0,1,5.05,13.314)" id="text5 l" />
  <path d="M 0 238.47660644325873 L 10 238.47660644325873 L 10 239.97660644325873 L 0 239.97660644325873 Z " stroke="none" fill-rule="evenodd" fill="#000000" fill-opacity="1" transform="matrix(1,0,0,1,5.05,13.314)" id="mark6 l" />
  <path d="M 0 225.88573241992933 L 10 225.88573241992933 L 10 227.38573241992933 L 0 227.38573241992933 Z " stroke="none" fill-rule="evenodd" fill="#000000" fill-opacity="1" transform="matrix(1,0,0,1,5.05,13.314)" id="mark7 l" />
  <path d="M 0 213.29485839659992 L 10 213.29485839659992 L 10 214.79485839659992 L 0 214.79485839659992 Z " stroke="none" fill-rule="evenodd" fill="#000000" fill-opacity="1" transform="matrix(1,0,0,1,5.05,13.314)" id="mark8 l" />
  <path d="M 0 200.70398437327052 L 10 200.70398437327052 L 10 202.20398437327052 L 0 202.20398437327052 Z " stroke="none" fill-rule="evenodd" fill="#000000" fill-opacity="1" transform="matrix(1,0,0,1,5.05,13.314)" id="mark9 l" />
  <path d="M 0 188.1131103499411 L 25 188.1131103499411 L 25 189.6131103499411 L 0 189.6131103499411 Z " stroke="none" fill-rule="evenodd" fill="#000000" fill-opacity="1" transform="matrix(1,0,0,1,5.05,13.314)" id="mark10 l" />
  <path d="M 14.323999999999998 187.06311034994113 L 14.323999999999998 181.61911034994114 L 13.871999999999998 181.61911034994114 L 13.839999999999998 181.23911034994111 L 14.543999999999999 180.66311034994112 L 15.424 180.66311034994112 L 15.424 187.06311034994113 Z M 16.196 185.65111034994112 C 16.188000000000002 185.2217770166078, 16.182666666666666 184.80511034994112, 16.18 184.40111034994112 C 16.177333333333333 183.99711034994112, 16.177999999999997 183.6017770166078, 16.182 183.2151103499411 C 16.186 182.82844368327446, 16.190666666666665 182.4471103499411, 16.196 182.07111034994114 C 16.209333333333333 181.63111034994114, 16.334000000000003 181.2857770166078, 16.57 181.03511034994114 C 16.805999999999997 180.78444368327447, 17.142666666666663 180.63911034994112, 17.58 180.59911034994113 L 17.58 181.48711034994113 C 17.382666666666665 181.54311034994114, 17.281333333333333 181.67244368327448, 17.276 181.87511034994114 C 17.262666666666668 182.2457770166078, 17.253333333333334 182.5937770166078, 17.248 182.91911034994112 C 17.242666666666665 183.24444368327445, 17.24 183.56111034994115, 17.24 183.86911034994114 C 17.24 184.17711034994113, 17.242666666666665 184.49177701660778, 17.248 184.81311034994113 C 17.253333333333334 185.13444368327447, 17.262666666666668 185.4777770166078, 17.276 185.84311034994113 C 17.281333333333333 186.05111034994113, 17.382666666666665 186.18311034994113, 17.58 186.23911034994111 L 17.58 187.12711034994112 C 17.142666666666663 187.08711034994113, 16.805999999999997 186.94111034994114, 16.57 186.68911034994113 C 16.334000000000003 186.43711034994112, 16.209333333333333 186.09111034994112, 16.196 185.65111034994112 Z M 18.084 187.12711034994112 L 18.084 186.23511034994112 C 18.268 186.1817770166078, 18.366666666666667 186.05777701660782, 18.38 185.86311034994114 C 18.398666666666667 185.39644368327447, 18.410666666666668 184.9477770166078, 18.416 184.51711034994113 C 18.421333333333333 184.08644368327447, 18.421333333333333 183.6557770166078, 18.416 183.22511034994113 C 18.410666666666668 182.79444368327447, 18.398666666666667 182.34177701660778, 18.38 181.86711034994113 C 18.374666666666666 181.67244368327445, 18.276 181.5457770166078, 18.084 181.48711034994113 L 18.084 180.59911034994113 C 18.513333333333335 180.63911034994112, 18.846666666666668 180.78444368327447, 19.084 181.03511034994114 C 19.321333333333335 181.2857770166078, 19.445333333333334 181.63111034994114, 19.456 182.07111034994114 C 19.46666666666667 182.3857770166078, 19.474666666666668 182.6957770166078, 19.48 183.00111034994111 C 19.485333333333333 183.30644368327444, 19.488 183.6071103499411, 19.488 183.90311034994113 C 19.488 184.19911034994112, 19.485333333333333 184.49244368327447, 19.48 184.78311034994113 C 19.474666666666668 185.07377701660778, 19.46666666666667 185.3631103499411, 19.456 185.65111034994112 C 19.439999999999998 186.1017770166078, 19.311999999999998 186.45044368327447, 19.072 186.6971103499411 C 18.832 186.94377701660778, 18.502666666666666 187.08711034994113, 18.084 187.12711034994112 Z M 21.944 187.06311034994113 L 21.944 180.66311034994112 L 23.003999999999998 180.66311034994112 L 23.003999999999998 187.06311034994113 Z " stroke="none" fill-rule="nonzero" fill="#000000" fill-opacity="1" transform="matrix(1,0,0,1,5.05,13.314)" id="text10 l" />
  <path d="M 0 175.5222363266117 L 10 175.5222363266117 L 10 177.0222363266117 L 0 177.0222363266117 Z " stroke="none" fill-rule="evenodd" fill="#000000" fill-opacity="1" transform="matrix(1,0,0,1,5.05,13.314)" id="mark11 l" />
  <path d="M 0 162.9313623032823 L 10 162.9313623032823 L 10 164.4313623032823 L 0 164.4313623032823 Z " stroke="none" fill-rule="evenodd" fill="#000000" fill-opacity="1" transform="matrix(1,0,0,1,5.05,13.314)" id="mark12 l" />
  <path d="M 0 150.3404882799529 L 10 150.3404882799529 L 10 151.8404882799529 L 0 151.8404882799529 Z " stroke="none" fill-rule="evenodd" fill="#000000" fill-opacity="1" transform="matrix(1,0,0,1,5.05,13.314)" id="mark13 l" />
  <path d="M 0 137.7496142566235 L 10 137.7496142566235 L 10 139.2496142566235 L 0 139.2496142566235 Z " stroke="none" fill-rule="evenodd" fill="#000000" fill-opacity="1" transform="matrix(1,0,0,1,5.05,13.314)" id="mark14 l" />
  <path d="M 0 125.15874023329408 L 25 125.15874023329408 L 25 126.65874023329408 L 0 126.65874023329408 Z " stroke="none" fill-rule="evenodd" fill="#000000" fill-opacity="1" transform="matrix(1,0,0,1,5.05,13.314)" id="mark15 l" />
  <path d="M 14.331999999999999 124.07674023329409 L 14.331999999999999 118.63274023329409 L 13.879999999999999 118.63274023329409 L 13.847999999999999 118.25274023329409 L 14.552 117.67674023329408 L 15.432 117.67674023329408 L 15.432 124.07674023329409 Z M 16.18 122.66074023329409 C 16.174666666666667 122.48740689996075, 16.173333333333332 122.34807356662742, 16.176 122.24274023329409 C 16.178666666666665 122.13740689996075, 16.181333333333335 122.03540689996075, 16.183999999999997 121.93674023329409 L 17.264 121.93674023329409 C 17.256 122.01407356662742, 17.25 122.11007356662742, 17.246 122.22474023329409 C 17.241999999999997 122.33940689996075, 17.240666666666666 122.45007356662742, 17.241999999999997 122.5567402332941 C 17.243333333333332 122.66340689996076, 17.246666666666666 122.74340689996075, 17.252 122.79674023329409 C 17.262666666666668 122.91674023329409, 17.297333333333334 123.01474023329408, 17.355999999999998 123.09074023329408 C 17.414666666666665 123.16674023329409, 17.497333333333334 123.2207402332941, 17.604 123.25274023329409 L 17.604 124.14474023329409 C 17.110666666666663 124.10740689996075, 16.75333333333333 123.97274023329408, 16.532 123.74074023329409 C 16.310666666666666 123.50874023329408, 16.19333333333333 123.14874023329409, 16.18 122.66074023329409 Z M 16.279999999999998 121.3247402332941 L 16.279999999999998 117.67674023329408 L 17.348 117.67674023329408 L 17.348 121.3247402332941 Z M 17.852 120.90074023329409 L 17.852 120.14474023329409 C 17.929333333333332 120.10474023329408, 18.014666666666667 120.0727402332941, 18.107999999999997 120.04874023329408 C 18.20133333333333 120.0247402332941, 18.301333333333332 120.0127402332941, 18.407999999999998 120.0127402332941 C 18.773333333333333 120.0127402332941, 19.047333333333334 120.12807356662742, 19.23 120.35874023329409 C 19.412666666666667 120.58940689996075, 19.514666666666663 120.90340689996074, 19.535999999999998 121.30074023329409 C 19.546666666666667 121.46074023329408, 19.55333333333333 121.61940689996075, 19.555999999999997 121.77674023329409 C 19.558666666666664 121.93407356662743, 19.557333333333332 122.08740689996077, 19.552 122.23674023329409 C 19.546666666666667 122.38607356662743, 19.538666666666668 122.52607356662742, 19.528 122.65674023329409 C 19.482666666666667 123.15540689996075, 19.353333333333335 123.5207402332941, 19.14 123.75274023329409 C 18.926666666666666 123.9847402332941, 18.581333333333333 124.11540689996076, 18.104 124.14474023329409 L 18.104 123.25274023329409 C 18.21333333333333 123.22340689996076, 18.296 123.17074023329408, 18.352 123.09474023329409 C 18.408 123.0187402332941, 18.44 122.91940689996076, 18.448 122.79674023329409 C 18.471999999999998 122.50607356662744, 18.485999999999997 122.2447402332941, 18.49 122.0127402332941 C 18.494 121.7807402332941, 18.485333333333333 121.55940689996075, 18.464 121.3487402332941 C 18.447999999999997 121.19407356662742, 18.396666666666665 121.0787402332941, 18.31 121.00274023329409 C 18.223333333333333 120.92674023329408, 18.090666666666664 120.8887402332941, 17.912 120.88874023329409 C 17.901333333333334 120.8887402332941, 17.890666666666668 120.89007356662742, 17.88 120.89274023329409 C 17.86933333333333 120.89540689996076, 17.86 120.89807356662742, 17.852 120.90074023329409 Z M 17.852 118.60874023329409 L 17.852 117.67674023329408 L 19.439999999999998 117.67674023329408 L 19.439999999999998 118.60874023329409 Z M 21.944 124.07674023329409 L 21.944 117.67674023329408 L 23.003999999999998 117.67674023329408 L 23.003999999999998 124.07674023329409 Z " stroke="none" fill-rule="nonzero" fill="#000000" fill-opacity="1" transform="matrix(1,0,0,1,5.05,13.314)" id="text15 l" />
  <path d="M 0 112.56786620996468 L 10 112.56786620996468 L 10 114.06786620996468 L 0 114.06786620996468 Z " stroke="none" fill-rule="evenodd" fill="#000000" fill-opacity="1" transform="matrix(1,0,0,1,5.05,13.314)" id="mark16 l" />
  <path d="M 0 99.97699218663527 L 10 99.97699218663527 L 10 101.47699218663527 L 0 101.47699218663527 Z " stroke="none" fill-rule="evenodd" fill="#000000" fill-opacity="1" transform="matrix(1,0,0,1,5.05,13.314)" id="mark17 l" />
  <path d="M 0 87.38611816330587 L 10 87.38611816330587 L 10 88.88611816330587 L 0 88.88611816330587 Z " stroke="none" fill-rule="evenodd" fill="#000000" fill-opacity="1" transform="matrix(1,0,0,1,5.05,13.314)" id="mark18 l" />
  <path d="M 0 74.79524413997646 L 10 74.79524413997646 L 10 76.29524413997646 L 0 76.29524413997646 Z " stroke="none" fill-rule="evenodd" fill="#000000" fill-opacity="1" transform="matrix(1,0,0,1,5.05,13.314)" id="mark19 l" />
  <path d="M 0 62.204370116647056 L 25 62.204370116647056 L 25 63.704370116647056 L 0 63.704370116647056 Z " stroke="none" fill-rule="evenodd" fill="#000000" fill-opacity="1" transform="matrix(1,0,0,1,5.05,13.314)" id="mark20 l" />
  <path d="M 12.319999999999999 61.15437011664706 C 12.317333333333334 61.055703449980385, 12.315333333333331 60.967036783313716, 12.313999999999998 60.88837011664706 C 12.312666666666665 60.80970344998039, 12.311333333333334 60.73570344998039, 12.309999999999999 60.66637011664706 C 12.308666666666667 60.597036783313726, 12.308 60.52503678331372, 12.308 60.45037011664706 C 12.308 60.37570344998039, 12.308 60.29103678331373, 12.308 60.19637011664706 C 12.308 60.10170344998039, 12.309333333333335 59.99037011664706, 12.312 59.86237011664706 C 12.32 59.56903678331372, 12.37 59.30703678331372, 12.462 59.076370116647055 C 12.554 58.84570344998039, 12.687999999999999 58.639703449980395, 12.863999999999999 58.45837011664706 C 13.04 58.277036783313726, 13.257333333333333 58.11570344998039, 13.515999999999998 57.97437011664706 L 14.047999999999998 57.686370116647055 C 14.234666666666666 57.585036783313726, 14.354 57.463036783313726, 14.405999999999999 57.320370116647055 C 14.457999999999998 57.17770344998039, 14.488 57.0437034499804, 14.495999999999999 56.91837011664706 C 14.506666666666664 56.77170344998039, 14.512666666666664 56.61503678331372, 14.514 56.448370116647055 C 14.51533333333333 56.28170344998039, 14.511999999999997 56.125036783313725, 14.504 55.978370116647056 C 14.498666666666665 55.87437011664706, 14.468666666666666 55.78837011664706, 14.413999999999998 55.72037011664706 C 14.359333333333332 55.652370116647056, 14.279999999999998 55.60370344998039, 14.175999999999998 55.57437011664706 L 14.175999999999998 54.686370116647055 C 14.663999999999998 54.71837011664706, 15.014 54.849703449980396, 15.225999999999999 55.08037011664706 C 15.437999999999999 55.311036783313725, 15.554666666666666 55.671703449980384, 15.575999999999999 56.16237011664706 C 15.578666666666663 56.22637011664706, 15.580666666666666 56.29170344998039, 15.581999999999999 56.35837011664706 C 15.583333333333332 56.42503678331373, 15.584 56.48970344998039, 15.584 56.552370116647054 C 15.584 56.61503678331372, 15.583333333333332 56.677036783313724, 15.581999999999999 56.73837011664706 C 15.580666666666666 56.7997034499804, 15.578666666666663 56.8597034499804, 15.575999999999999 56.91837011664706 C 15.565333333333331 57.203703449980395, 15.512 57.45037011664705, 15.415999999999999 57.658370116647056 C 15.32 57.86637011664706, 15.19 58.046370116647054, 15.026 58.198370116647055 C 14.862 58.350370116647056, 14.672 58.48637011664705, 14.456 58.60637011664706 L 13.851999999999999 58.93437011664706 C 13.737333333333332 58.9957034499804, 13.647333333333332 59.07970344998039, 13.581999999999999 59.186370116647055 C 13.516666666666666 59.293036783313724, 13.469999999999999 59.406370116647054, 13.441999999999998 59.52637011664706 C 13.413999999999998 59.64637011664706, 13.399999999999999 59.75837011664706, 13.399999999999999 59.86237011664706 L 13.399999999999999 61.15437011664706 Z M 12.328 57.11437011664706 C 12.322666666666667 56.997036783313725, 12.318666666666665 56.88237011664705, 12.315999999999999 56.77037011664706 C 12.313333333333333 56.65837011664706, 12.311333333333334 56.55237011664706, 12.309999999999999 56.45237011664706 C 12.308666666666667 56.35237011664706, 12.309333333333335 56.25570344998039, 12.312 56.16237011664706 C 12.330666666666666 55.674370116647054, 12.447333333333333 55.31503678331373, 12.661999999999999 55.08437011664706 C 12.876666666666665 54.8537034499804, 13.213333333333331 54.72103678331373, 13.671999999999999 54.686370116647055 L 13.671999999999999 55.57837011664706 C 13.576 55.60770344998039, 13.505333333333333 55.65437011664706, 13.459999999999999 55.71837011664706 C 13.414666666666665 55.78237011664706, 13.390666666666664 55.85970344998039, 13.387999999999998 55.95037011664706 C 13.382666666666665 56.15837011664705, 13.379333333333333 56.35170344998039, 13.378 56.530370116647056 C 13.376666666666667 56.70903678331372, 13.381333333333334 56.90370344998039, 13.392 57.11437011664706 Z M 13.904 61.15437011664706 L 13.904 60.222370116647056 L 15.5 60.222370116647056 L 15.5 61.15437011664706 Z M 16.196 59.74237011664706 C 16.188000000000002 59.313036783313734, 16.182666666666666 58.89637011664706, 16.18 58.49237011664706 C 16.177333333333333 58.088370116647056, 16.177999999999997 57.69303678331372, 16.182 57.30637011664706 C 16.186 56.919703449980396, 16.190666666666665 56.53837011664706, 16.196 56.16237011664706 C 16.209333333333333 55.722370116647056, 16.334000000000003 55.37703678331373, 16.57 55.12637011664706 C 16.805999999999997 54.87570344998039, 17.142666666666663 54.73037011664706, 17.58 54.69037011664706 L 17.58 55.57837011664706 C 17.382666666666665 55.63437011664706, 17.281333333333333 55.7637034499804, 17.276 55.966370116647056 C 17.262666666666668 56.33703678331372, 17.253333333333334 56.68503678331373, 17.248 57.01037011664706 C 17.242666666666665 57.33570344998039, 17.24 57.65237011664706, 17.24 57.960370116647056 C 17.24 58.26837011664706, 17.242666666666665 58.58303678331373, 17.248 58.90437011664706 C 17.253333333333334 59.22570344998039, 17.262666666666668 59.56903678331372, 17.276 59.93437011664706 C 17.281333333333333 60.14237011664706, 17.382666666666665 60.27437011664706, 17.58 60.33037011664706 L 17.58 61.21837011664706 C 17.142666666666663 61.17837011664706, 16.805999999999997 61.03237011664706, 16.57 60.780370116647056 C 16.334000000000003 60.528370116647054, 16.209333333333333 60.182370116647064, 16.196 59.74237011664706 Z M 18.084 61.21837011664706 L 18.084 60.326370116647055 C 18.268 60.27303678331373, 18.366666666666667 60.149036783313726, 18.38 59.954370116647056 C 18.398666666666667 59.487703449980394, 18.410666666666668 59.03903678331373, 18.416 58.60837011664706 C 18.421333333333333 58.1777034499804, 18.421333333333333 57.74703678331373, 18.416 57.31637011664706 C 18.410666666666668 56.8857034499804, 18.398666666666667 56.433036783313725, 18.38 55.95837011664706 C 18.374666666666666 55.7637034499804, 18.276 55.637036783313725, 18.084 55.57837011664706 L 18.084 54.69037011664706 C 18.513333333333335 54.73037011664706, 18.846666666666668 54.87570344998039, 19.084 55.12637011664706 C 19.321333333333335 55.37703678331373, 19.445333333333334 55.722370116647056, 19.456 56.16237011664706 C 19.46666666666667 56.47703678331372, 19.474666666666668 56.787036783313724, 19.48 57.09237011664706 C 19.485333333333333 57.3977034499804, 19.488 57.698370116647055, 19.488 57.99437011664706 C 19.488 58.290370116647054, 19.485333333333333 58.58370344998039, 19.48 58.87437011664706 C 19.474666666666668 59.165036783313724, 19.46666666666667 59.454370116647056, 19.456 59.74237011664706 C 19.439999999999998 60.19303678331373, 19.311999999999998 60.54170344998039, 19.072 60.78837011664706 C 18.832 61.03503678331373, 18.502666666666666 61.17837011664706, 18.084 61.21837011664706 Z M 21.944 61.15437011664706 L 21.944 54.75437011664706 L 23.003999999999998 54.75437011664706 L 23.003999999999998 61.15437011664706 Z " stroke="none" fill-rule="nonzero" fill="#000000" fill-opacity="1" transform="matrix(1,0,0,1,5.05,13.314)" id="text20 l" />
  <path d="M 0 49.61349609331762 L 10 49.61349609331762 L 10 51.11349609331762 L 0 51.11349609331762 Z " stroke="none" fill-rule="evenodd" fill="#000000" fill-opacity="1" transform="matrix(1,0,0,1,5.05,13.314)" id="mark21 l" />
  <path d="M 0 37.022622069988245 L 10 37.022622069988245 L 10 38.522622069988245 L 0 38.522622069988245 Z " stroke="none" fill-rule="evenodd" fill="#000000" fill-opacity="1" transform="matrix(1,0,0,1,5.05,13.314)" id="mark22 l" />
  <path d="M 0 24.43174804665881 L 10 24.43174804665881 L 10 25.93174804665881 L 0 25.93174804665881 Z " stroke="none" fill-rule="evenodd" fill="#000000" fill-opacity="1" transform="matrix(1,0,0,1,5.05,13.314)" id="mark23 l" />
  <path d="M 0 11.840874023329434 L 10 11.840874023329434 L 10 13.340874023329434 L 0 13.340874023329434 Z " stroke="none" fill-rule="evenodd" fill="#000000" fill-opacity="1" transform="matrix(1,0,0,1,5.05,13.314)" id="mark24 l" />
  <path d="M 0 -0.75 L 25 -0.75 L 25 0.75 L 0 0.75 Z " stroke="none" fill-rule="evenodd" fill="#000000" fill-opacity="1" transform="matrix(1,0,0,1,5.05,13.314)" id="mark25 l" />
  <path d="M 12.328 -1.7999999999999998 C 12.325333333333333 -1.8986666666666663, 12.323333333333332 -1.987333333333333, 12.322 -2.066 C 12.320666666666666 -2.1446666666666663, 12.319333333333333 -2.2186666666666666, 12.318 -2.288 C 12.316666666666666 -2.357333333333333, 12.315999999999999 -2.429333333333333, 12.316 -2.5039999999999996 C 12.315999999999999 -2.5786666666666664, 12.315999999999999 -2.663333333333333, 12.316 -2.758 C 12.315999999999999 -2.852666666666667, 12.317333333333334 -2.964, 12.32 -3.0919999999999996 C 12.328 -3.3853333333333335, 12.378 -3.647333333333333, 12.47 -3.8779999999999997 C 12.562000000000001 -4.108666666666667, 12.696 -4.314666666666667, 12.872 -4.4959999999999996 C 13.048 -4.677333333333333, 13.265333333333334 -4.838666666666667, 13.524000000000001 -4.98 L 14.056000000000001 -5.268 C 14.242666666666668 -5.3693333333333335, 14.362000000000002 -5.491333333333333, 14.414 -5.634 C 14.466000000000001 -5.776666666666667, 14.495999999999999 -5.910666666666667, 14.504 -6.036 C 14.514666666666667 -6.182666666666666, 14.520666666666667 -6.339333333333333, 14.522 -6.506 C 14.523333333333333 -6.672666666666667, 14.520000000000001 -6.829333333333334, 14.512 -6.976 C 14.506666666666666 -7.08, 14.476666666666667 -7.165999999999999, 14.422 -7.233999999999999 C 14.367333333333335 -7.302, 14.288 -7.350666666666666, 14.184000000000001 -7.38 L 14.184000000000001 -8.268 C 14.672 -8.236, 15.022000000000002 -8.104666666666667, 15.234 -7.874 C 15.446000000000002 -7.643333333333333, 15.562666666666667 -7.282666666666666, 15.584 -6.792 C 15.586666666666668 -6.728, 15.588666666666668 -6.6626666666666665, 15.59 -6.595999999999999 C 15.591333333333335 -6.529333333333334, 15.592000000000002 -6.464666666666666, 15.592 -6.402 C 15.592000000000002 -6.339333333333332, 15.591333333333335 -6.277333333333333, 15.59 -6.216 C 15.588666666666668 -6.1546666666666665, 15.586666666666668 -6.094666666666667, 15.584 -6.036 C 15.573333333333332 -5.750666666666667, 15.52 -5.504, 15.424 -5.295999999999999 C 15.328 -5.088, 15.197999999999999 -4.908, 15.033999999999999 -4.756 C 14.87 -4.604, 14.68 -4.468, 14.464 -4.348 L 13.86 -4.02 C 13.745333333333335 -3.9586666666666663, 13.655333333333335 -3.8746666666666663, 13.59 -3.768 C 13.524666666666668 -3.6613333333333333, 13.478000000000002 -3.548, 13.45 -3.428 C 13.422 -3.308, 13.408 -3.1959999999999997, 13.408 -3.0919999999999996 L 13.408 -1.7999999999999998 Z M 12.336 -5.84 C 12.330666666666666 -5.957333333333333, 12.326666666666664 -6.071999999999999, 12.324 -6.184 C 12.321333333333332 -6.295999999999999, 12.319333333333333 -6.401999999999999, 12.318 -6.502 C 12.316666666666666 -6.602, 12.317333333333334 -6.698666666666666, 12.32 -6.792 C 12.338666666666668 -7.279999999999999, 12.455333333333336 -7.639333333333333, 12.67 -7.87 C 12.884666666666668 -8.100666666666667, 13.221333333333334 -8.233333333333334, 13.68 -8.268 L 13.68 -7.3759999999999994 C 13.584 -7.346666666666666, 13.513333333333332 -7.3, 13.468 -7.236 C 13.422666666666668 -7.172, 13.398666666666667 -7.094666666666667, 13.396 -7.004 C 13.390666666666666 -6.795999999999999, 13.387333333333332 -6.602666666666666, 13.386 -6.424 C 13.384666666666666 -6.245333333333333, 13.389333333333333 -6.050666666666666, 13.4 -5.84 Z M 13.911999999999999 -1.7999999999999998 L 13.911999999999999 -2.7319999999999998 L 15.508 -2.7319999999999998 L 15.508 -1.7999999999999998 Z M 16.18 -3.2159999999999997 C 16.174666666666667 -3.389333333333333, 16.173333333333332 -3.528666666666667, 16.176 -3.634 C 16.178666666666665 -3.7393333333333336, 16.181333333333335 -3.841333333333333, 16.183999999999997 -3.94 L 17.264 -3.94 C 17.256 -3.8626666666666667, 17.25 -3.7666666666666666, 17.246 -3.6519999999999997 C 17.241999999999997 -3.5373333333333328, 17.240666666666666 -3.4266666666666667, 17.241999999999997 -3.32 C 17.243333333333332 -3.213333333333334, 17.246666666666666 -3.1333333333333337, 17.252 -3.08 C 17.262666666666668 -2.96, 17.297333333333334 -2.862, 17.355999999999998 -2.7859999999999996 C 17.414666666666665 -2.71, 17.497333333333334 -2.6559999999999997, 17.604 -2.6239999999999997 L 17.604 -1.7319999999999998 C 17.110666666666663 -1.7693333333333332, 16.75333333333333 -1.904, 16.532 -2.1359999999999997 C 16.310666666666666 -2.368, 16.19333333333333 -2.7279999999999998, 16.18 -3.2159999999999997 Z M 16.279999999999998 -4.552 L 16.279999999999998 -8.2 L 17.348 -8.2 L 17.348 -4.552 Z M 17.852 -4.976 L 17.852 -5.731999999999999 C 17.929333333333332 -5.771999999999999, 18.014666666666667 -5.804, 18.107999999999997 -5.828 C 18.20133333333333 -5.852, 18.301333333333332 -5.864, 18.407999999999998 -5.864 C 18.773333333333333 -5.864, 19.047333333333334 -5.748666666666667, 19.23 -5.518 C 19.412666666666667 -5.287333333333333, 19.514666666666663 -4.973333333333333, 19.535999999999998 -4.576 C 19.546666666666667 -4.416, 19.55333333333333 -4.257333333333333, 19.555999999999997 -4.1 C 19.558666666666664 -3.9426666666666668, 19.557333333333332 -3.7893333333333334, 19.552 -3.6399999999999997 C 19.546666666666667 -3.490666666666667, 19.538666666666668 -3.3506666666666667, 19.528 -3.2199999999999998 C 19.482666666666667 -2.721333333333333, 19.353333333333335 -2.356, 19.14 -2.1239999999999997 C 18.926666666666666 -1.892, 18.581333333333333 -1.7613333333333332, 18.104 -1.7319999999999998 L 18.104 -2.6239999999999997 C 18.21333333333333 -2.653333333333333, 18.296 -2.7059999999999995, 18.352 -2.782 C 18.408 -2.8579999999999997, 18.44 -2.957333333333333, 18.448 -3.08 C 18.471999999999998 -3.3706666666666667, 18.485999999999997 -3.6319999999999997, 18.49 -3.864 C 18.494 -4.096, 18.485333333333333 -4.317333333333333, 18.464 -4.5280000000000005 C 18.447999999999997 -4.682666666666667, 18.396666666666665 -4.798, 18.31 -4.874 C 18.223333333333333 -4.949999999999999, 18.090666666666664 -4.9879999999999995, 17.912 -4.9879999999999995 C 17.901333333333334 -4.9879999999999995, 17.890666666666668 -4.986666666666666, 17.88 -4.984 C 17.86933333333333 -4.981333333333334, 17.86 -4.978666666666667, 17.852 -4.976 Z M 17.852 -7.268 L 17.852 -8.2 L 19.439999999999998 -8.2 L 19.439999999999998 -7.268 Z M 21.944 -1.7999999999999998 L 21.944 -8.2 L 23.003999999999998 -8.2 L 23.003999999999998 -1.7999999999999998 Z " stroke="none" fill-rule="nonzero" fill="#000000" fill-opacity="1" transform="matrix(1,0,0,1,5.05,13.314)" id="text25 l" />
  <path d="M -5 -13.264 L 30 -13.264 L 30 308.9489765599057 L -5 308.9489765599057 Z " stroke="#FF0000" stroke-opacity="1" stroke-width="0.1" stroke-linecap="butt" stroke-linejoin="miter" fill="none" transform="matrix(1,0,0,1,5.05,13.314)" />
</svg>