<?xml version="1.0" encoding="UTF-8"?>
<svg xmlns:xlink="http://www.w3.org/1999/xlink" viewBox="0 0 35.1 285.3786048634719" version="1.1" style="font-synthesis: none;" width="35.1mm" height="285.3786048634719mm" xmlns="http://www.w3.org/2000/svg">
  <defs />
  <style>	</style>
  <path d="M 0 0 L 35.1 0 L 35.1 285.3786048634719 L 0 285.3786048634719 Z " stroke="none" fill-rule="nonzero" fill="#FFFFFF" fill-opacity="1" transform="matrix(1,0,0,1,0,0)" />
  <path d="M 0 264.4966048634719 L 10 264.4966048634719 L 10 265.9966048634719 L 0 265.9966048634719 Z " stroke="none" fill-rule="evenodd" fill="#000000" fill-opacity="1" transform="matrix(1,0,0,1,5.05,13.314)" id="mark1 l" />
  <path d="M 0 250.53625723907862 L 10 250.53625723907862 L 10 252.03625723907862 L 0 252.03625723907862 Z " stroke="none" fill-rule="evenodd" fill="#000000" fill-opacity="1" transform="matrix(1,0,0,1,5.05,13.314)" id="mark2 l" />
  <path d="M 0 236.57590961468534 L 10 236.57590961468534 L 10 238.07590961468534 L 0 238.07590961468534 Z " stroke="none" fill-rule="evenodd" fill="#000000" fill-opacity="1" transform="matrix(1,0,0,1,5.05,13.314)" id="mark3 l" />
  <path d="M 0 222.6155619902921 L 10 222.6155619902921 L 10 224.1155619902921 L 0 224.1155619902921 Z " stroke="none" fill-rule="evenodd" fill="#000000" fill-opacity="1" transform="matrix(1,0,0,1,5.05,13.314)" id="mark4 l" />
  <path d="M 0 208.65521436589884 L 25 208.65521436589884 L 25 210.15521436589884 L 0 210.15521436589884 Z " stroke="none" fill-rule="evenodd" fill="#000000" fill-opacity="1" transform="matrix(1,0,0,1,5.05,13.314)" id="mark5 l" />
  <path d="M 16.18 206.15721436589885 C 16.174666666666667 205.98388103256553, 16.173333333333332 205.84454769923218, 16.176 205.73921436589885 C 16.178666666666665 205.6338810325655, 16.181333333333335 205.53188103256554, 16.183999999999997 205.43321436589886 L 17.264 205.43321436589886 C 17.256 205.51054769923218, 17.25 205.60654769923218, 17.246 205.72121436589885 C 17.241999999999997 205.8358810325655, 17.240666666666666 205.94654769923218, 17.241999999999997 206.05321436589884 C 17.243333333333332 206.1598810325655, 17.246666666666666 206.2398810325655, 17.252 206.29321436589885 C 17.262666666666668 206.41321436589885, 17.297333333333334 206.51121436589887, 17.355999999999998 206.58721436589886 C 17.414666666666665 206.66321436589885, 17.497333333333334 206.71721436589883, 17.604 206.74921436589884 L 17.604 207.64121436589886 C 17.110666666666663 207.6038810325655, 16.75333333333333 207.46921436589884, 16.532 207.23721436589884 C 16.310666666666666 207.00521436589884, 16.19333333333333 206.64521436589882, 16.18 206.15721436589885 Z M 16.279999999999998 204.82121436589884 L 16.279999999999998 201.17321436589884 L 17.348 201.17321436589884 L 17.348 204.82121436589884 Z M 17.852 204.39721436589886 L 17.852 203.64121436589886 C 17.929333333333332 203.60121436589884, 18.014666666666667 203.56921436589886, 18.107999999999997 203.54521436589886 C 18.20133333333333 203.52121436589886, 18.301333333333332 203.50921436589886, 18.407999999999998 203.50921436589886 C 18.773333333333333 203.50921436589886, 19.047333333333334 203.62454769923218, 19.23 203.85521436589886 C 19.412666666666667 204.08588103256554, 19.514666666666663 204.39988103256553, 19.535999999999998 204.79721436589884 C 19.546666666666667 204.95721436589884, 19.55333333333333 205.11588103256548, 19.555999999999997 205.27321436589884 C 19.558666666666664 205.4305476992322, 19.557333333333332 205.5838810325655, 19.552 205.73321436589885 C 19.546666666666667 205.8825476992322, 19.538666666666668 206.02254769923218, 19.528 206.15321436589886 C 19.482666666666667 206.65188103256554, 19.353333333333335 207.01721436589884, 19.14 207.24921436589884 C 18.926666666666666 207.48121436589884, 18.581333333333333 207.61188103256552, 18.104 207.64121436589886 L 18.104 206.74921436589884 C 18.21333333333333 206.71988103256552, 18.296 206.66721436589887, 18.352 206.59121436589885 C 18.408 206.51521436589883, 18.44 206.4158810325655, 18.448 206.29321436589885 C 18.471999999999998 206.0025476992322, 18.485999999999997 205.74121436589886, 18.49 205.50921436589886 C 18.494 205.27721436589886, 18.485333333333333 205.05588103256554, 18.464 204.84521436589884 C 18.447999999999997 204.69054769923218, 18.396666666666665 204.57521436589883, 18.31 204.49921436589884 C 18.223333333333333 204.42321436589884, 18.090666666666664 204.38521436589883, 17.912 204.38521436589886 C 17.901333333333334 204.38521436589883, 17.890666666666668 204.38654769923218, 17.88 204.38921436589885 C 17.86933333333333 204.39188103256552, 17.86 204.3945476992322, 17.852 204.39721436589886 Z M 17.852 202.10521436589886 L 17.852 201.17321436589884 L 19.439999999999998 201.17321436589884 L 19.439999999999998 202.10521436589886 Z M 21.944 207.57321436589885 L 21.944 201.17321436589884 L 23.003999999999998 201.17321436589884 L 23.003999999999998 207.57321436589885 Z " stroke="none" fill-rule="nonzero" fill="#000000" fill-opacity="1" transform="matrix(1,0,0,1,5.05,13.314)" id="text5 l" />
  <path d="M 0 194.69486674150556 L 10 194.69486674150556 L 10 196.19486674150556 L 0 196.19486674150556 Z " stroke="none" fill-rule="evenodd" fill="#000000" fill-opacity="1" transform="matrix(1,0,0,1,5.05,13.314)" id="mark6 l" />
  <path d="M 0 180.7345191171123 L 10 180.7345191171123 L 10 182.2345191171123 L 0 182.2345191171123 Z " stroke="none" fill-rule="evenodd" fill="#000000" fill-opacity="1" transform="matrix(1,0,0,1,5.05,13.314)" id="mark7 l" />
  <path d="M 0 166.77417149271906 L 10 166.77417149271906 L 10 168.27417149271906 L 0 168.27417149271906 Z " stroke="none" fill-rule="evenodd" fill="#000000" fill-opacity="1" transform="matrix(1,0,0,1,5.05,13.314)" id="mark8 l" />
  <path d="M 0 152.8138238683258 L 10 152.8138238683258 L 10 154.3138238683258 L 0 154.3138238683258 Z " stroke="none" fill-rule="evenodd" fill="#000000" fill-opacity="1" transform="matrix(1,0,0,1,5.05,13.314)" id="mark9 l" />
  <path d="M 0 138.85347624393256 L 25 138.85347624393256 L 25 140.35347624393256 L 0 140.35347624393256 Z " stroke="none" fill-rule="evenodd" fill="#000000" fill-opacity="1" transform="matrix(1,0,0,1,5.05,13.314)" id="mark10 l" />
  <path d="M 14.323999999999998 137.80347624393258 L 14.323999999999998 132.3594762439326 L 13.871999999999998 132.3594762439326 L 13.839999999999998 131.97947624393257 L 14.543999999999999 131.40347624393257 L 15.424 131.40347624393257 L 15.424 137.80347624393258 Z M 16.196 136.39147624393257 C 16.188000000000002 135.96214291059925, 16.182666666666666 135.54547624393257, 16.18 135.14147624393257 C 16.177333333333333 134.73747624393258, 16.177999999999997 134.34214291059925, 16.182 133.95547624393257 C 16.186 133.5688095772659, 16.190666666666665 133.18747624393257, 16.196 132.8114762439326 C 16.209333333333333 132.3714762439326, 16.334000000000003 132.02614291059925, 16.57 131.7754762439326 C 16.805999999999997 131.52480957726593, 17.142666666666663 131.37947624393257, 17.58 131.33947624393258 L 17.58 132.22747624393259 C 17.382666666666665 132.2834762439326, 17.281333333333333 132.41280957726593, 17.276 132.6154762439326 C 17.262666666666668 132.98614291059926, 17.253333333333334 133.33414291059924, 17.248 133.65947624393257 C 17.242666666666665 133.9848095772659, 17.24 134.3014762439326, 17.24 134.6094762439326 C 17.24 134.91747624393258, 17.242666666666665 135.23214291059924, 17.248 135.55347624393258 C 17.253333333333334 135.87480957726592, 17.262666666666668 136.21814291059925, 17.276 136.58347624393258 C 17.281333333333333 136.79147624393258, 17.382666666666665 136.92347624393258, 17.58 136.97947624393257 L 17.58 137.86747624393257 C 17.142666666666663 137.82747624393258, 16.805999999999997 137.6814762439326, 16.57 137.42947624393258 C 16.334000000000003 137.17747624393257, 16.209333333333333 136.83147624393257, 16.196 136.39147624393257 Z M 18.084 137.86747624393257 L 18.084 136.97547624393258 C 18.268 136.92214291059926, 18.366666666666667 136.79814291059927, 18.38 136.6034762439326 C 18.398666666666667 136.13680957726592, 18.410666666666668 135.68814291059925, 18.416 135.2574762439326 C 18.421333333333333 134.82680957726592, 18.421333333333333 134.39614291059925, 18.416 133.96547624393259 C 18.410666666666668 133.53480957726592, 18.398666666666667 133.08214291059923, 18.38 132.60747624393258 C 18.374666666666666 132.4128095772659, 18.276 132.28614291059924, 18.084 132.22747624393259 L 18.084 131.33947624393258 C 18.513333333333335 131.37947624393257, 18.846666666666668 131.52480957726593, 19.084 131.7754762439326 C 19.321333333333335 132.02614291059925, 19.445333333333334 132.3714762439326, 19.456 132.8114762439326 C 19.46666666666667 133.12614291059924, 19.474666666666668 133.43614291059924, 19.48 133.74147624393257 C 19.485333333333333 134.0468095772659, 19.488 134.34747624393256, 19.488 134.64347624393258 C 19.488 134.93947624393257, 19.485333333333333 135.23280957726593, 19.48 135.52347624393258 C 19.474666666666668 135.81414291059923, 19.46666666666667 136.10347624393256, 19.456 136.39147624393257 C 19.439999999999998 136.84214291059925, 19.311999999999998 137.19080957726592, 19.072 137.43747624393257 C 18.832 137.68414291059923, 18.502666666666666 137.82747624393258, 18.084 137.86747624393257 Z M 21.944 137.80347624393258 L 21.944 131.40347624393257 L 23.003999999999998 131.40347624393257 L 23.003999999999998 137.80347624393258 Z " stroke="none" fill-rule="nonzero" fill="#000000" fill-opacity="1" transform="matrix(1,0,0,1,5.05,13.314)" id="text10 l" />
  <path d="M 0 124.89312861953928 L 10 124.89312861953928 L 10 126.39312861953928 L 0 126.39312861953928 Z " stroke="none" fill-rule="evenodd" fill="#000000" fill-opacity="1" transform="matrix(1,0,0,1,5.05,13.314)" id="mark11 l" />
  <path d="M 0 110.93278099514603 L 10 110.93278099514603 L 10 112.43278099514603 L 0 112.43278099514603 Z " stroke="none" fill-rule="evenodd" fill="#000000" fill-opacity="1" transform="matrix(1,0,0,1,5.05,13.314)" id="mark12 l" />
  <path d="M 0 96.97243337075278 L 10 96.97243337075278 L 10 98.47243337075278 L 0 98.47243337075278 Z " stroke="none" fill-rule="evenodd" fill="#000000" fill-opacity="1" transform="matrix(1,0,0,1,5.05,13.314)" id="mark13 l" />
  <path d="M 0 83.01208574635953 L 10 83.01208574635953 L 10 84.51208574635953 L 0 84.51208574635953 Z " stroke="none" fill-rule="evenodd" fill="#000000" fill-opacity="1" transform="matrix(1,0,0,1,5.05,13.314)" id="mark14 l" />
  <path d="M 0 69.05173812196625 L 25 69.05173812196625 L 25 70.55173812196625 L 0 70.55173812196625 Z " stroke="none" fill-rule="evenodd" fill="#000000" fill-opacity="1" transform="matrix(1,0,0,1,5.05,13.314)" id="mark15 l" />
  <path d="M 14.331999999999999 67.96973812196626 L 14.331999999999999 62.525738121966256 L 13.879999999999999 62.525738121966256 L 13.847999999999999 62.14573812196626 L 14.552 61.56973812196626 L 15.432 61.56973812196626 L 15.432 67.96973812196626 Z M 16.18 66.55373812196626 C 16.174666666666667 66.38040478863292, 16.173333333333332 66.24107145529959, 16.176 66.13573812196626 C 16.178666666666665 66.03040478863292, 16.181333333333335 65.92840478863292, 16.183999999999997 65.82973812196626 L 17.264 65.82973812196626 C 17.256 65.90707145529959, 17.25 66.00307145529959, 17.246 66.11773812196625 C 17.241999999999997 66.23240478863292, 17.240666666666666 66.3430714552996, 17.241999999999997 66.44973812196626 C 17.243333333333332 66.55640478863293, 17.246666666666666 66.63640478863292, 17.252 66.68973812196626 C 17.262666666666668 66.80973812196626, 17.297333333333334 66.90773812196626, 17.355999999999998 66.98373812196625 C 17.414666666666665 67.05973812196626, 17.497333333333334 67.11373812196626, 17.604 67.14573812196626 L 17.604 68.03773812196626 C 17.110666666666663 68.00040478863292, 16.75333333333333 67.86573812196626, 16.532 67.63373812196626 C 16.310666666666666 67.40173812196626, 16.19333333333333 67.04173812196626, 16.18 66.55373812196626 Z M 16.279999999999998 65.21773812196626 L 16.279999999999998 61.56973812196626 L 17.348 61.56973812196626 L 17.348 65.21773812196626 Z M 17.852 64.79373812196626 L 17.852 64.03773812196626 C 17.929333333333332 63.99773812196626, 18.014666666666667 63.965738121966254, 18.107999999999997 63.94173812196626 C 18.20133333333333 63.91773812196625, 18.301333333333332 63.90573812196625, 18.407999999999998 63.90573812196626 C 18.773333333333333 63.90573812196625, 19.047333333333334 64.02107145529959, 19.23 64.25173812196626 C 19.412666666666667 64.48240478863292, 19.514666666666663 64.79640478863293, 19.535999999999998 65.19373812196626 C 19.546666666666667 65.35373812196626, 19.55333333333333 65.51240478863292, 19.555999999999997 65.66973812196626 C 19.558666666666664 65.8270714552996, 19.557333333333332 65.98040478863294, 19.552 66.12973812196626 C 19.546666666666667 66.2790714552996, 19.538666666666668 66.41907145529959, 19.528 66.54973812196626 C 19.482666666666667 67.04840478863292, 19.353333333333335 67.41373812196626, 19.14 67.64573812196626 C 18.926666666666666 67.87773812196626, 18.581333333333333 68.00840478863293, 18.104 68.03773812196626 L 18.104 67.14573812196626 C 18.21333333333333 67.11640478863293, 18.296 67.06373812196625, 18.352 66.98773812196626 C 18.408 66.91173812196627, 18.44 66.81240478863293, 18.448 66.68973812196626 C 18.471999999999998 66.3990714552996, 18.485999999999997 66.13773812196627, 18.49 65.90573812196627 C 18.494 65.67373812196625, 18.485333333333333 65.45240478863292, 18.464 65.24173812196626 C 18.447999999999997 65.0870714552996, 18.396666666666665 64.97173812196627, 18.31 64.89573812196626 C 18.223333333333333 64.81973812196625, 18.090666666666664 64.78173812196626, 17.912 64.78173812196626 C 17.901333333333334 64.78173812196626, 17.890666666666668 64.78307145529959, 17.88 64.78573812196626 C 17.86933333333333 64.78840478863292, 17.86 64.79107145529959, 17.852 64.79373812196626 Z M 17.852 62.501738121966255 L 17.852 61.56973812196626 L 19.439999999999998 61.56973812196626 L 19.439999999999998 62.501738121966255 Z M 21.944 67.96973812196626 L 21.944 61.56973812196626 L 23.003999999999998 61.56973812196626 L 23.003999999999998 67.96973812196626 Z " stroke="none" fill-rule="nonzero" fill="#000000" fill-opacity="1" transform="matrix(1,0,0,1,5.05,13.314)" id="text15 l" />
  <path d="M 0 55.091390497573 L 10 55.091390497573 L 10 56.591390497573 L 0 56.591390497573 Z " stroke="none" fill-rule="evenodd" fill="#000000" fill-opacity="1" transform="matrix(1,0,0,1,5.05,13.314)" id="mark16 l" />
  <path d="M 0 41.13104287317975 L 10 41.13104287317975 L 10 42.63104287317975 L 0 42.63104287317975 Z " stroke="none" fill-rule="evenodd" fill="#000000" fill-opacity="1" transform="matrix(1,0,0,1,5.05,13.314)" id="mark17 l" />
  <path d="M 0 27.1706952487865 L 10 27.1706952487865 L 10 28.6706952487865 L 0 28.6706952487865 Z " stroke="none" fill-rule="evenodd" fill="#000000" fill-opacity="1" transform="matrix(1,0,0,1,5.05,13.314)" id="mark18 l" />
  <path d="M 0 13.21034762439325 L 10 13.21034762439325 L 10 14.71034762439325 L 0 14.71034762439325 Z " stroke="none" fill-rule="evenodd" fill="#000000" fill-opacity="1" transform="matrix(1,0,0,1,5.05,13.314)" id="mark19 l" />
  <path d="M 0 -0.75 L 25 -0.75 L 25 0.75 L 0 0.75 Z " stroke="none" fill-rule="evenodd" fill="#000000" fill-opacity="1" transform="matrix(1,0,0,1,5.05,13.314)" id="mark20 l" />
  <path d="M 12.319999999999999 -1.7999999999999998 C 12.317333333333334 -1.8986666666666663, 12.315333333333331 -1.987333333333333, 12.313999999999998 -2.066 C 12.312666666666665 -2.1446666666666663, 12.311333333333334 -2.2186666666666666, 12.309999999999999 -2.288 C 12.308666666666667 -2.357333333333333, 12.308 -2.429333333333333, 12.308 -2.5039999999999996 C 12.308 -2.5786666666666664, 12.308 -2.663333333333333, 12.308 -2.758 C 12.308 -2.852666666666667, 12.309333333333335 -2.964, 12.312 -3.0919999999999996 C 12.32 -3.3853333333333335, 12.37 -3.647333333333333, 12.462 -3.8779999999999997 C 12.554 -4.108666666666667, 12.687999999999999 -4.314666666666667, 12.863999999999999 -4.4959999999999996 C 13.04 -4.677333333333333, 13.257333333333333 -4.838666666666667, 13.515999999999998 -4.98 L 14.047999999999998 -5.268 C 14.234666666666666 -5.3693333333333335, 14.354 -5.491333333333333, 14.405999999999999 -5.634 C 14.457999999999998 -5.776666666666667, 14.488 -5.910666666666667, 14.495999999999999 -6.036 C 14.506666666666664 -6.182666666666666, 14.512666666666664 -6.339333333333333, 14.514 -6.506 C 14.51533333333333 -6.672666666666667, 14.511999999999997 -6.829333333333334, 14.504 -6.976 C 14.498666666666665 -7.08, 14.468666666666666 -7.165999999999999, 14.413999999999998 -7.233999999999999 C 14.359333333333332 -7.302, 14.279999999999998 -7.350666666666666, 14.175999999999998 -7.38 L 14.175999999999998 -8.268 C 14.663999999999998 -8.236, 15.014 -8.104666666666667, 15.225999999999999 -7.874 C 15.437999999999999 -7.643333333333333, 15.554666666666666 -7.282666666666666, 15.575999999999999 -6.792 C 15.578666666666663 -6.728, 15.580666666666666 -6.6626666666666665, 15.581999999999999 -6.595999999999999 C 15.583333333333332 -6.529333333333334, 15.584 -6.464666666666666, 15.584 -6.402 C 15.584 -6.339333333333332, 15.583333333333332 -6.277333333333333, 15.581999999999999 -6.216 C 15.580666666666666 -6.1546666666666665, 15.578666666666663 -6.094666666666667, 15.575999999999999 -6.036 C 15.565333333333331 -5.750666666666667, 15.512 -5.504, 15.415999999999999 -5.295999999999999 C 15.32 -5.088, 15.19 -4.908, 15.026 -4.756 C 14.862 -4.604, 14.672 -4.468, 14.456 -4.348 L 13.851999999999999 -4.02 C 13.737333333333332 -3.9586666666666663, 13.647333333333332 -3.8746666666666663, 13.581999999999999 -3.768 C 13.516666666666666 -3.6613333333333333, 13.469999999999999 -3.548, 13.441999999999998 -3.428 C 13.413999999999998 -3.308, 13.399999999999999 -3.1959999999999997, 13.399999999999999 -3.0919999999999996 L 13.399999999999999 -1.7999999999999998 Z M 12.328 -5.84 C 12.322666666666667 -5.957333333333333, 12.318666666666665 -6.071999999999999, 12.315999999999999 -6.184 C 12.313333333333333 -6.295999999999999, 12.311333333333334 -6.401999999999999, 12.309999999999999 -6.502 C 12.308666666666667 -6.602, 12.309333333333335 -6.698666666666666, 12.312 -6.792 C 12.330666666666666 -7.279999999999999, 12.447333333333333 -7.639333333333333, 12.661999999999999 -7.87 C 12.876666666666665 -8.100666666666667, 13.213333333333331 -8.233333333333334, 13.671999999999999 -8.268 L 13.671999999999999 -7.3759999999999994 C 13.576 -7.346666666666666, 13.505333333333333 -7.3, 13.459999999999999 -7.236 C 13.414666666666665 -7.172, 13.390666666666664 -7.094666666666667, 13.387999999999998 -7.004 C 13.382666666666665 -6.795999999999999, 13.379333333333333 -6.602666666666666, 13.378 -6.424 C 13.376666666666667 -6.245333333333333, 13.381333333333334 -6.050666666666666, 13.392 -5.84 Z M 13.904 -1.7999999999999998 L 13.904 -2.7319999999999998 L 15.5 -2.7319999999999998 L 15.5 -1.7999999999999998 Z M 16.196 -3.2119999999999997 C 16.188000000000002 -3.641333333333333, 16.182666666666666 -4.058, 16.18 -4.462 C 16.177333333333333 -4.866, 16.177999999999997 -5.261333333333333, 16.182 -5.648 C 16.186 -6.034666666666666, 16.190666666666665 -6.416, 16.196 -6.792 C 16.209333333333333 -7.231999999999999, 16.334000000000003 -7.577333333333334, 16.57 -7.828 C 16.805999999999997 -8.078666666666667, 17.142666666666663 -8.224, 17.58 -8.264 L 17.58 -7.3759999999999994 C 17.382666666666665 -7.32, 17.281333333333333 -7.190666666666667, 17.276 -6.9879999999999995 C 17.262666666666668 -6.617333333333333, 17.253333333333334 -6.269333333333333, 17.248 -5.944 C 17.242666666666665 -5.618666666666666, 17.24 -5.302, 17.24 -4.994 C 17.24 -4.686, 17.242666666666665 -4.371333333333333, 17.248 -4.05 C 17.253333333333334 -3.7286666666666664, 17.262666666666668 -3.3853333333333326, 17.276 -3.0199999999999996 C 17.281333333333333 -2.812, 17.382666666666665 -2.6799999999999997, 17.58 -2.6239999999999997 L 17.58 -1.7359999999999998 C 17.142666666666663 -1.7759999999999998, 16.805999999999997 -1.9219999999999997, 16.57 -2.174 C 16.334000000000003 -2.4259999999999997, 16.209333333333333 -2.772, 16.196 -3.2119999999999997 Z M 18.084 -1.7359999999999998 L 18.084 -2.6279999999999997 C 18.268 -2.681333333333333, 18.366666666666667 -2.8053333333333335, 18.38 -3 C 18.398666666666667 -3.4666666666666663, 18.410666666666668 -3.915333333333333, 18.416 -4.346 C 18.421333333333333 -4.776666666666666, 18.421333333333333 -5.207333333333333, 18.416 -5.638 C 18.410666666666668 -6.068666666666666, 18.398666666666667 -6.521333333333333, 18.38 -6.9959999999999996 C 18.374666666666666 -7.190666666666667, 18.276 -7.317333333333334, 18.084 -7.3759999999999994 L 18.084 -8.264 C 18.513333333333335 -8.224, 18.846666666666668 -8.078666666666667, 19.084 -7.828 C 19.321333333333335 -7.577333333333334, 19.445333333333334 -7.231999999999999, 19.456 -6.792 C 19.46666666666667 -6.477333333333332, 19.474666666666668 -6.167333333333333, 19.48 -5.861999999999999 C 19.485333333333333 -5.556666666666667, 19.488 -5.256, 19.488 -4.96 C 19.488 -4.664, 19.485333333333333 -4.370666666666667, 19.48 -4.08 C 19.474666666666668 -3.7893333333333334, 19.46666666666667 -3.5, 19.456 -3.2119999999999997 C 19.439999999999998 -2.761333333333333, 19.311999999999998 -2.4126666666666665, 19.072 -2.166 C 18.832 -1.9193333333333331, 18.502666666666666 -1.7759999999999998, 18.084 -1.7359999999999998 Z M 21.944 -1.7999999999999998 L 21.944 -8.2 L 23.003999999999998 -8.2 L 23.003999999999998 -1.7999999999999998 Z " stroke="none" fill-rule="nonzero" fill="#000000" fill-opacity="1" transform="matrix(1,0,0,1,5.05,13.314)" id="text20 l" />
  <path d="M -5 -13.264 L 30 -13.264 L 30 272.01460486347185 L -5 272.01460486347185 Z " stroke="#FF0000" stroke-opacity="1" stroke-width="0.1" stroke-linecap="butt" stroke-linejoin="miter" fill="none" transform="matrix(1,0,0,1,5.05,13.314)" />
</svg>