<?xml version="1.0" encoding="utf-8"?>
<svg xmlns="http://www.w3.org/2000/svg" xmlns:xlink="http://www.w3.org/1999/xlink" version="1.1" width="35mm" height="250.86574mm" viewBox="0 0 35 250.86574">
  <defs />
  <style>svg { background: #ffffff; }</style>
  <rect id="cutLine" fill="none" stroke="red" stroke-width="0.05" width="35" height="250.86574" />
  <g id="scale" transform="translate(5, 5)">
    <rect id="mark_1" fill="Black" x="0" y="239.36574" width="10" height="1.5" />
    <rect id="mark_2" fill="Black" x="0" y="222.77176" width="10" height="1.5" />
    <rect id="mark_3" fill="Black" x="0" y="206.17776" width="10" height="1.5" />
    <rect id="mark_4" fill="Black" x="0" y="189.58379" width="10" height="1.5" />
    <rect id="mark_5" fill="Black" x="0" y="172.9898" width="25" height="1.5" />
    <path fill="Black" d="M 0.107421875 0 L 0.107421875 3.6484375 L 1.1757812 3.6484375 L 1.1757812 0 L 0.107421875 0 Z M 1.6796875 0 L 1.6796875 0.9316406 L 3.2675781 0.9316406 L 3.2675781 0 L 1.6796875 0 Z M 1.6796875 2.46875 L 1.6796875 3.2246094 Q 1.6914062 3.2207031, 1.7070312 3.2167969 Q 1.7246094 3.2128906, 1.7402344 3.2128906 Q 2.0078125 3.2128906, 2.1367188 3.3261719 Q 2.2675781 3.4394531, 2.2910156 3.671875 Q 2.3242188 3.9882812, 2.3183594 4.3359375 Q 2.3125 4.6835938, 2.2753906 5.1210938 Q 2.2636719 5.3046875, 2.1796875 5.419922 Q 2.0957031 5.533203, 1.9316406 5.576172 L 1.9316406 6.46875 Q 2.6484375 6.423828, 2.9667969 6.076172 Q 3.2871094 5.7285156, 3.3554688 4.9804688 Q 3.3710938 4.7851562, 3.3789062 4.560547 Q 3.3886719 4.3359375, 3.3828125 4.1015625 Q 3.3789062 3.8652344, 3.3632812 3.625 Q 3.3320312 3.0292969, 3.0566406 2.6835938 Q 2.7832031 2.3359375, 2.2363281 2.3359375 Q 2.0761719 2.3359375, 1.9355469 2.3730469 Q 1.7949219 2.4082031, 1.6796875 2.46875 Z M 0.00390625 4.5664062 Q 0 4.7246094, 0.0078125 4.984375 Q 0.02734375 5.716797, 0.359375 6.064453 Q 0.69140625 6.4121094, 1.4316406 6.46875 L 1.4316406 5.576172 Q 1.2714844 5.529297, 1.1835938 5.4160156 Q 1.0957031 5.3007812, 1.0800781 5.1210938 Q 1.0722656 5.0410156, 1.0703125 4.8808594 Q 1.0683594 4.720703, 1.0742188 4.548828 Q 1.0800781 4.376953, 1.0917969 4.2597656 L 0.01171875 4.2597656 Q 0.0078125 4.408203, 0.00390625 4.5664062 Z M 6.0683594 6.4003906 L 6.0683594 0 L 7.126953 0 L 7.126953 6.4003906 L 6.0683594 6.4003906 Z" transform="translate(15.873047, 165.9398)" />
    <rect id="mark_6" fill="Black" x="0" y="156.39583" width="10" height="1.5" />
    <rect id="mark_7" fill="Black" x="0" y="139.80185" width="10" height="1.5" />
    <rect id="mark_8" fill="Black" x="0" y="123.20787" width="10" height="1.5" />
    <rect id="mark_9" fill="Black" x="0" y="106.613884" width="10" height="1.5" />
    <rect id="mark_10" fill="Black" x="0" y="90.019905" width="25" height="1.5" />
    <path fill="Black" d="M 0.484375 1.0214844 L 0.484375 6.4648438 L 1.5839844 6.4648438 L 1.5839844 0.064453125 L 0.7050781 0.064453125 L 0 0.640625 L 0.033203125 1.0214844 L 0.484375 1.0214844 Z M 2.140625 3.8027344 Q 2.1445312 4.408203, 2.15625 5.0527344 Q 2.1777344 5.7128906, 2.53125 6.091797 Q 2.8847656 6.46875, 3.5410156 6.529297 L 3.5410156 5.640625 Q 3.2441406 5.5566406, 3.2363281 5.2441406 Q 3.2167969 4.6972656, 3.2089844 4.2148438 Q 3.2011719 3.7324219, 3.2011719 3.2714844 Q 3.2011719 2.8085938, 3.2089844 2.3203125 Q 3.2167969 1.8320312, 3.2363281 1.2773438 Q 3.2441406 0.97265625, 3.5410156 0.8886719 L 3.5410156 0 Q 2.8847656 0.060546875, 2.53125 0.4375 Q 2.1777344 0.8125, 2.15625 1.4726562 Q 2.1484375 2.0371094, 2.1425781 2.6171875 Q 2.1367188 3.1972656, 2.140625 3.8027344 Z M 4.044922 5.6367188 L 4.044922 6.529297 Q 4.671875 6.46875, 5.03125 6.0996094 Q 5.392578 5.7285156, 5.4160156 5.0527344 Q 5.4335938 4.6210938, 5.4414062 4.185547 Q 5.4492188 3.7480469, 5.4492188 3.3046875 Q 5.4492188 2.8613281, 5.4414062 2.4042969 Q 5.4335938 1.9453125, 5.4160156 1.4726562 Q 5.4003906 0.8125, 5.044922 0.4375 Q 4.689453 0.060546875, 4.044922 0 L 4.044922 0.8886719 Q 4.3320312 0.9765625, 4.3398438 1.2695312 Q 4.3691406 1.9804688, 4.376953 2.6269531 Q 4.3847656 3.2734375, 4.376953 3.9199219 Q 4.3691406 4.564453, 4.3398438 5.265625 Q 4.3203125 5.5566406, 4.044922 5.6367188 Z M 8.193359 6.4648438 L 8.193359 0.064453125 L 9.251953 0.064453125 L 9.251953 6.4648438 L 8.193359 6.4648438 Z" transform="translate(13.748047, 82.9699)" />
    <rect id="mark_11" fill="Black" x="0" y="73.42593" width="10" height="1.5" />
    <rect id="mark_12" fill="Black" x="0" y="56.83194" width="10" height="1.5" />
    <rect id="mark_13" fill="Black" x="0" y="40.23796" width="10" height="1.5" />
    <rect id="mark_14" fill="Black" x="0" y="23.643982" width="10" height="1.5" />
    <rect id="mark_15" fill="Black" x="0" y="7.05" width="25" height="1.5" />
    <path fill="Black" d="M 0.484375 0.95703125 L 0.484375 6.4003906 L 1.5839844 6.4003906 L 1.5839844 0 L 0.7050781 0 L 0 0.5761719 L 0.033203125 0.95703125 L 0.484375 0.95703125 Z M 2.2324219 0 L 2.2324219 3.6484375 L 3.3007812 3.6484375 L 3.3007812 0 L 2.2324219 0 Z M 3.8046875 0 L 3.8046875 0.9316406 L 5.392578 0.9316406 L 5.392578 0 L 3.8046875 0 Z M 3.8046875 2.46875 L 3.8046875 3.2246094 Q 3.8164062 3.2207031, 3.8320312 3.2167969 Q 3.8496094 3.2128906, 3.8652344 3.2128906 Q 4.1328125 3.2128906, 4.2617188 3.3261719 Q 4.392578 3.4394531, 4.4160156 3.671875 Q 4.4492188 3.9882812, 4.4433594 4.3359375 Q 4.4375 4.6835938, 4.4003906 5.1210938 Q 4.388672 5.3046875, 4.3046875 5.419922 Q 4.220703 5.533203, 4.0566406 5.576172 L 4.0566406 6.46875 Q 4.7734375 6.423828, 5.091797 6.076172 Q 5.4121094 5.7285156, 5.4804688 4.9804688 Q 5.4960938 4.7851562, 5.5039062 4.560547 Q 5.513672 4.3359375, 5.5078125 4.1015625 Q 5.5039062 3.8652344, 5.4882812 3.625 Q 5.4570312 3.0292969, 5.1816406 2.6835938 Q 4.908203 2.3359375, 4.361328 2.3359375 Q 4.201172 2.3359375, 4.060547 2.3730469 Q 3.9199219 2.4082031, 3.8046875 2.46875 Z M 2.1289062 4.5664062 Q 2.125 4.7246094, 2.1328125 4.984375 Q 2.1523438 5.716797, 2.484375 6.064453 Q 2.8164062 6.4121094, 3.5566406 6.46875 L 3.5566406 5.576172 Q 3.3964844 5.529297, 3.3085938 5.4160156 Q 3.2207031 5.3007812, 3.2050781 5.1210938 Q 3.1972656 5.0410156, 3.1953125 4.8808594 Q 3.1933594 4.720703, 3.1992188 4.548828 Q 3.2050781 4.376953, 3.2167969 4.2597656 L 2.1367188 4.2597656 Q 2.1328125 4.408203, 2.1289062 4.5664062 Z M 8.193359 6.4003906 L 8.193359 0 L 9.251953 0 L 9.251953 6.4003906 L 8.193359 6.4003906 Z" transform="translate(13.748047, 0)" />
  </g>
</svg>