<?xml version="1.0" encoding="UTF-8"?>
<svg xmlns:xlink="http://www.w3.org/1999/xlink" viewBox="0 0 35.1 407.57576146711517" version="1.1" style="font-synthesis: none;" width="35.1mm" height="407.57576146711517mm" xmlns="http://www.w3.org/2000/svg">
  <defs />
  <style>	</style>
  <path d="M 0 0 L 35.1 0 L 35.1 407.57576146711517 L 0 407.57576146711517 Z " stroke="none" fill-rule="nonzero" fill="#FFFFFF" fill-opacity="1" transform="matrix(1,0,0,1,0,0)" />
  <path d="M 0 386.69376146711517 L 10 386.69376146711517 L 10 388.19376146711517 L 0 388.19376146711517 Z " stroke="none" fill-rule="evenodd" fill="#000000" fill-opacity="1" transform="matrix(1,0,0,1,5.05,13.314)" id="mark1 l" />
  <path d="M 0 376.75930604488144 L 10 376.75930604488144 L 10 378.25930604488144 L 0 378.25930604488144 Z " stroke="none" fill-rule="evenodd" fill="#000000" fill-opacity="1" transform="matrix(1,0,0,1,5.05,13.314)" id="mark2 l" />
  <path d="M 0 366.8248506226477 L 10 366.8248506226477 L 10 368.3248506226477 L 0 368.3248506226477 Z " stroke="none" fill-rule="evenodd" fill="#000000" fill-opacity="1" transform="matrix(1,0,0,1,5.05,13.314)" id="mark3 l" />
  <path d="M 0 356.890395200414 L 10 356.890395200414 L 10 358.390395200414 L 0 358.390395200414 Z " stroke="none" fill-rule="evenodd" fill="#000000" fill-opacity="1" transform="matrix(1,0,0,1,5.05,13.314)" id="mark4 l" />
  <path d="M 0 346.95593977818027 L 25 346.95593977818027 L 25 348.45593977818027 L 0 348.45593977818027 Z " stroke="none" fill-rule="evenodd" fill="#000000" fill-opacity="1" transform="matrix(1,0,0,1,5.05,13.314)" id="mark5 l" />
  <path d="M 16.18 344.4579397781803 C 16.174666666666667 344.284606444847, 16.173333333333332 344.14527311151363, 16.176 344.03993977818027 C 16.178666666666665 343.9346064448469, 16.181333333333335 343.83260644484693, 16.183999999999997 343.7339397781803 L 17.264 343.7339397781803 C 17.256 343.81127311151363, 17.25 343.90727311151363, 17.246 344.0219397781803 C 17.241999999999997 344.13660644484696, 17.240666666666666 344.2472731115136, 17.241999999999997 344.3539397781803 C 17.243333333333332 344.4606064448469, 17.246666666666666 344.54060644484696, 17.252 344.5939397781803 C 17.262666666666668 344.71393977818025, 17.297333333333334 344.81193977818026, 17.355999999999998 344.8879397781803 C 17.414666666666665 344.96393977818025, 17.497333333333334 345.0179397781803, 17.604 345.04993977818026 L 17.604 345.94193977818026 C 17.110666666666663 345.90460644484693, 16.75333333333333 345.7699397781803, 16.532 345.53793977818026 C 16.310666666666666 345.30593977818023, 16.19333333333333 344.9459397781802, 16.18 344.4579397781803 Z M 16.279999999999998 343.12193977818026 L 16.279999999999998 339.4739397781803 L 17.348 339.4739397781803 L 17.348 343.12193977818026 Z M 17.852 342.6979397781803 L 17.852 341.94193977818026 C 17.929333333333332 341.90193977818024, 18.014666666666667 341.86993977818025, 18.107999999999997 341.84593977818025 C 18.20133333333333 341.82193977818025, 18.301333333333332 341.80993977818025, 18.407999999999998 341.80993977818025 C 18.773333333333333 341.80993977818025, 19.047333333333334 341.92527311151355, 19.23 342.15593977818025 C 19.412666666666667 342.38660644484696, 19.514666666666663 342.7006064448469, 19.535999999999998 343.09793977818026 C 19.546666666666667 343.2579397781803, 19.55333333333333 343.41660644484693, 19.555999999999997 343.57393977818026 C 19.558666666666664 343.7312731115136, 19.557333333333332 343.88460644484695, 19.552 344.0339397781803 C 19.546666666666667 344.18327311151364, 19.538666666666668 344.32327311151363, 19.528 344.45393977818026 C 19.482666666666667 344.95260644484694, 19.353333333333335 345.31793977818023, 19.14 345.54993977818026 C 18.926666666666666 345.7819397781803, 18.581333333333333 345.9126064448469, 18.104 345.94193977818026 L 18.104 345.04993977818026 C 18.21333333333333 345.0206064448469, 18.296 344.96793977818027, 18.352 344.89193977818024 C 18.408 344.8159397781803, 18.44 344.71660644484695, 18.448 344.5939397781803 C 18.471999999999998 344.3032731115136, 18.485999999999997 344.0419397781802, 18.49 343.80993977818025 C 18.494 343.5779397781803, 18.485333333333333 343.35660644484693, 18.464 343.14593977818026 C 18.447999999999997 342.99127311151364, 18.396666666666665 342.8759397781803, 18.31 342.79993977818026 C 18.223333333333333 342.7239397781803, 18.090666666666664 342.6859397781803, 17.912 342.6859397781803 C 17.901333333333334 342.6859397781803, 17.890666666666668 342.6872731115136, 17.88 342.68993977818025 C 17.86933333333333 342.6926064448469, 17.86 342.6952731115136, 17.852 342.6979397781803 Z M 17.852 340.40593977818025 L 17.852 339.4739397781803 L 19.439999999999998 339.4739397781803 L 19.439999999999998 340.40593977818025 Z M 21.944 345.8739397781803 L 21.944 339.4739397781803 L 23.003999999999998 339.4739397781803 L 23.003999999999998 345.8739397781803 Z " stroke="none" fill-rule="nonzero" fill="#000000" fill-opacity="1" transform="matrix(1,0,0,1,5.05,13.314)" id="text5 l" />
  <path d="M 0 337.02148435594654 L 10 337.02148435594654 L 10 338.52148435594654 L 0 338.52148435594654 Z " stroke="none" fill-rule="evenodd" fill="#000000" fill-opacity="1" transform="matrix(1,0,0,1,5.05,13.314)" id="mark6 l" />
  <path d="M 0 327.0870289337129 L 10 327.0870289337129 L 10 328.5870289337129 L 0 328.5870289337129 Z " stroke="none" fill-rule="evenodd" fill="#000000" fill-opacity="1" transform="matrix(1,0,0,1,5.05,13.314)" id="mark7 l" />
  <path d="M 0 317.1525735114791 L 10 317.1525735114791 L 10 318.6525735114791 L 0 318.6525735114791 Z " stroke="none" fill-rule="evenodd" fill="#000000" fill-opacity="1" transform="matrix(1,0,0,1,5.05,13.314)" id="mark8 l" />
  <path d="M 0 307.2181180892454 L 10 307.2181180892454 L 10 308.7181180892454 L 0 308.7181180892454 Z " stroke="none" fill-rule="evenodd" fill="#000000" fill-opacity="1" transform="matrix(1,0,0,1,5.05,13.314)" id="mark9 l" />
  <path d="M 0 297.28366266701164 L 25 297.28366266701164 L 25 298.78366266701164 L 0 298.78366266701164 Z " stroke="none" fill-rule="evenodd" fill="#000000" fill-opacity="1" transform="matrix(1,0,0,1,5.05,13.314)" id="mark10 l" />
  <path d="M 14.323999999999998 296.23366266701163 L 14.323999999999998 290.7896626670116 L 13.871999999999998 290.7896626670116 L 13.839999999999998 290.4096626670116 L 14.543999999999999 289.83366266701165 L 15.424 289.83366266701165 L 15.424 296.23366266701163 Z M 16.196 294.82166266701165 C 16.188000000000002 294.39232933367833, 16.182666666666666 293.97566266701165, 16.18 293.57166266701165 C 16.177333333333333 293.16766266701165, 16.177999999999997 292.77232933367833, 16.182 292.3856626670116 C 16.186 291.99899600034496, 16.190666666666665 291.61766266701164, 16.196 291.2416626670116 C 16.209333333333333 290.8016626670116, 16.334000000000003 290.4563293336783, 16.57 290.2056626670116 C 16.805999999999997 289.954996000345, 17.142666666666663 289.8096626670116, 17.58 289.76966266701163 L 17.58 290.6576626670116 C 17.382666666666665 290.7136626670116, 17.281333333333333 290.84299600034495, 17.276 291.04566266701164 C 17.262666666666668 291.4163293336783, 17.253333333333334 291.7643293336783, 17.248 292.0896626670116 C 17.242666666666665 292.41499600034496, 17.24 292.7316626670116, 17.24 293.0396626670116 C 17.24 293.3476626670116, 17.242666666666665 293.66232933367826, 17.248 293.98366266701163 C 17.253333333333334 294.304996000345, 17.262666666666668 294.6483293336783, 17.276 295.0136626670116 C 17.281333333333333 295.2216626670116, 17.382666666666665 295.3536626670116, 17.58 295.4096626670116 L 17.58 296.29766266701165 C 17.142666666666663 296.25766266701163, 16.805999999999997 296.1116626670116, 16.57 295.8596626670116 C 16.334000000000003 295.6076626670116, 16.209333333333333 295.26166266701165, 16.196 294.82166266701165 Z M 18.084 296.29766266701165 L 18.084 295.40566266701165 C 18.268 295.3523293336783, 18.366666666666667 295.2283293336783, 18.38 295.03366266701164 C 18.398666666666667 294.566996000345, 18.410666666666668 294.11832933367833, 18.416 293.68766266701164 C 18.421333333333333 293.25699600034494, 18.421333333333333 292.8263293336783, 18.416 292.3956626670116 C 18.410666666666668 291.96499600034497, 18.398666666666667 291.5123293336783, 18.38 291.0376626670116 C 18.374666666666666 290.84299600034495, 18.276 290.7163293336783, 18.084 290.6576626670116 L 18.084 289.76966266701163 C 18.513333333333335 289.8096626670116, 18.846666666666668 289.954996000345, 19.084 290.2056626670116 C 19.321333333333335 290.4563293336783, 19.445333333333334 290.8016626670116, 19.456 291.2416626670116 C 19.46666666666667 291.5563293336783, 19.474666666666668 291.8663293336783, 19.48 292.1716626670116 C 19.485333333333333 292.47699600034497, 19.488 292.7776626670116, 19.488 293.0736626670116 C 19.488 293.3696626670116, 19.485333333333333 293.66299600034495, 19.48 293.95366266701166 C 19.474666666666668 294.2443293336783, 19.46666666666667 294.53366266701164, 19.456 294.82166266701165 C 19.439999999999998 295.27232933367833, 19.311999999999998 295.620996000345, 19.072 295.86766266701164 C 18.832 296.1143293336783, 18.502666666666666 296.25766266701163, 18.084 296.29766266701165 Z M 21.944 296.23366266701163 L 21.944 289.83366266701165 L 23.003999999999998 289.83366266701165 L 23.003999999999998 296.23366266701163 Z " stroke="none" fill-rule="nonzero" fill="#000000" fill-opacity="1" transform="matrix(1,0,0,1,5.05,13.314)" id="text10 l" />
  <path d="M 0 287.349207244778 L 10 287.349207244778 L 10 288.849207244778 L 0 288.849207244778 Z " stroke="none" fill-rule="evenodd" fill="#000000" fill-opacity="1" transform="matrix(1,0,0,1,5.05,13.314)" id="mark11 l" />
  <path d="M 0 277.41475182254425 L 10 277.41475182254425 L 10 278.91475182254425 L 0 278.91475182254425 Z " stroke="none" fill-rule="evenodd" fill="#000000" fill-opacity="1" transform="matrix(1,0,0,1,5.05,13.314)" id="mark12 l" />
  <path d="M 0 267.4802964003105 L 10 267.4802964003105 L 10 268.9802964003105 L 0 268.9802964003105 Z " stroke="none" fill-rule="evenodd" fill="#000000" fill-opacity="1" transform="matrix(1,0,0,1,5.05,13.314)" id="mark13 l" />
  <path d="M 0 257.5458409780768 L 10 257.5458409780768 L 10 259.0458409780768 L 0 259.0458409780768 Z " stroke="none" fill-rule="evenodd" fill="#000000" fill-opacity="1" transform="matrix(1,0,0,1,5.05,13.314)" id="mark14 l" />
  <path d="M 0 247.61138555584307 L 25 247.61138555584307 L 25 249.11138555584307 L 0 249.11138555584307 Z " stroke="none" fill-rule="evenodd" fill="#000000" fill-opacity="1" transform="matrix(1,0,0,1,5.05,13.314)" id="mark15 l" />
  <path d="M 14.331999999999999 246.52938555584308 L 14.331999999999999 241.0853855558431 L 13.879999999999999 241.0853855558431 L 13.847999999999999 240.70538555584307 L 14.552 240.12938555584307 L 15.432 240.12938555584307 L 15.432 246.52938555584308 Z M 16.18 245.11338555584308 C 16.174666666666667 244.94005222250973, 16.173333333333332 244.8007188891764, 16.176 244.69538555584307 C 16.178666666666665 244.59005222250974, 16.181333333333335 244.48805222250974, 16.183999999999997 244.3893855558431 L 17.264 244.3893855558431 C 17.256 244.46671888917643, 17.25 244.5627188891764, 17.246 244.67738555584307 C 17.241999999999997 244.79205222250974, 17.240666666666666 244.9027188891764, 17.241999999999997 245.00938555584307 C 17.243333333333332 245.11605222250972, 17.246666666666666 245.19605222250976, 17.252 245.24938555584308 C 17.262666666666668 245.3693855558431, 17.297333333333334 245.4673855558431, 17.355999999999998 245.5433855558431 C 17.414666666666665 245.61938555584308, 17.497333333333334 245.67338555584308, 17.604 245.70538555584307 L 17.604 246.5973855558431 C 17.110666666666663 246.56005222250974, 16.75333333333333 246.4253855558431, 16.532 246.19338555584307 C 16.310666666666666 245.9613855558431, 16.19333333333333 245.60138555584308, 16.18 245.11338555584308 Z M 16.279999999999998 243.77738555584307 L 16.279999999999998 240.12938555584307 L 17.348 240.12938555584307 L 17.348 243.77738555584307 Z M 17.852 243.3533855558431 L 17.852 242.5973855558431 C 17.929333333333332 242.5573855558431, 18.014666666666667 242.52538555584312, 18.107999999999997 242.5013855558431 C 18.20133333333333 242.4773855558431, 18.301333333333332 242.4653855558431, 18.407999999999998 242.46538555584308 C 18.773333333333333 242.4653855558431, 19.047333333333334 242.5807188891764, 19.23 242.8113855558431 C 19.412666666666667 243.0420522225097, 19.514666666666663 243.35605222250973, 19.535999999999998 243.75338555584307 C 19.546666666666667 243.9133855558431, 19.55333333333333 244.07205222250974, 19.555999999999997 244.22938555584307 C 19.558666666666664 244.3867188891764, 19.557333333333332 244.54005222250976, 19.552 244.68938555584307 C 19.546666666666667 244.8387188891764, 19.538666666666668 244.9787188891764, 19.528 245.1093855558431 C 19.482666666666667 245.60805222250974, 19.353333333333335 245.97338555584307, 19.14 246.20538555584307 C 18.926666666666666 246.43738555584306, 18.581333333333333 246.56805222250972, 18.104 246.5973855558431 L 18.104 245.70538555584307 C 18.21333333333333 245.67605222250972, 18.296 245.62338555584307, 18.352 245.54738555584308 C 18.408 245.47138555584309, 18.44 245.37205222250975, 18.448 245.24938555584308 C 18.471999999999998 244.9587188891764, 18.485999999999997 244.69738555584308, 18.49 244.46538555584308 C 18.494 244.23338555584309, 18.485333333333333 244.01205222250974, 18.464 243.80138555584307 C 18.447999999999997 243.6467188891764, 18.396666666666665 243.5313855558431, 18.31 243.45538555584307 C 18.223333333333333 243.3793855558431, 18.090666666666664 243.3413855558431, 17.912 243.3413855558431 C 17.901333333333334 243.3413855558431, 17.890666666666668 243.3427188891764, 17.88 243.34538555584308 C 17.86933333333333 243.34805222250975, 17.86 243.3507188891764, 17.852 243.3533855558431 Z M 17.852 241.0613855558431 L 17.852 240.12938555584307 L 19.439999999999998 240.12938555584307 L 19.439999999999998 241.0613855558431 Z M 21.944 246.52938555584308 L 21.944 240.12938555584307 L 23.003999999999998 240.12938555584307 L 23.003999999999998 246.52938555584308 Z " stroke="none" fill-rule="nonzero" fill="#000000" fill-opacity="1" transform="matrix(1,0,0,1,5.05,13.314)" id="text15 l" />
  <path d="M 0 237.67693013360935 L 10 237.67693013360935 L 10 239.17693013360935 L 0 239.17693013360935 Z " stroke="none" fill-rule="evenodd" fill="#000000" fill-opacity="1" transform="matrix(1,0,0,1,5.05,13.314)" id="mark16 l" />
  <path d="M 0 227.74247471137562 L 10 227.74247471137562 L 10 229.24247471137562 L 0 229.24247471137562 Z " stroke="none" fill-rule="evenodd" fill="#000000" fill-opacity="1" transform="matrix(1,0,0,1,5.05,13.314)" id="mark17 l" />
  <path d="M 0 217.8080192891419 L 10 217.8080192891419 L 10 219.3080192891419 L 0 219.3080192891419 Z " stroke="none" fill-rule="evenodd" fill="#000000" fill-opacity="1" transform="matrix(1,0,0,1,5.05,13.314)" id="mark18 l" />
  <path d="M 0 207.87356386690817 L 10 207.87356386690817 L 10 209.37356386690817 L 0 209.37356386690817 Z " stroke="none" fill-rule="evenodd" fill="#000000" fill-opacity="1" transform="matrix(1,0,0,1,5.05,13.314)" id="mark19 l" />
  <path d="M 0 197.93910844467445 L 25 197.93910844467445 L 25 199.43910844467445 L 0 199.43910844467445 Z " stroke="none" fill-rule="evenodd" fill="#000000" fill-opacity="1" transform="matrix(1,0,0,1,5.05,13.314)" id="mark20 l" />
  <path d="M 12.319999999999999 196.88910844467446 C 12.317333333333334 196.7904417780078, 12.315333333333331 196.70177511134114, 12.313999999999998 196.62310844467447 C 12.312666666666665 196.5444417780078, 12.311333333333334 196.4704417780078, 12.309999999999999 196.40110844467446 C 12.308666666666667 196.33177511134113, 12.308 196.25977511134113, 12.308 196.18510844467446 C 12.308 196.11044177800778, 12.308 196.02577511134112, 12.308 195.93110844467446 C 12.308 195.8364417780078, 12.309333333333335 195.72510844467448, 12.312 195.59710844467446 C 12.32 195.30377511134114, 12.37 195.04177511134114, 12.462 194.81110844467446 C 12.554 194.58044177800778, 12.687999999999999 194.3744417780078, 12.863999999999999 194.19310844467446 C 13.04 194.01177511134114, 13.257333333333333 193.8504417780078, 13.515999999999998 193.70910844467446 L 14.047999999999998 193.42110844467447 C 14.234666666666666 193.31977511134113, 14.354 193.19777511134112, 14.405999999999999 193.05510844467446 C 14.457999999999998 192.9124417780078, 14.488 192.7784417780078, 14.495999999999999 192.65310844467447 C 14.506666666666664 192.5064417780078, 14.512666666666664 192.34977511134116, 14.514 192.18310844467447 C 14.51533333333333 192.01644177800782, 14.511999999999997 191.85977511134115, 14.504 191.71310844467448 C 14.498666666666665 191.60910844467446, 14.468666666666666 191.52310844467448, 14.413999999999998 191.45510844467447 C 14.359333333333332 191.38710844467445, 14.279999999999998 191.3384417780078, 14.175999999999998 191.30910844467445 L 14.175999999999998 190.42110844467447 C 14.663999999999998 190.45310844467448, 15.014 190.5844417780078, 15.225999999999999 190.81510844467445 C 15.437999999999999 191.04577511134113, 15.554666666666666 191.4064417780078, 15.575999999999999 191.89710844467447 C 15.578666666666663 191.96110844467447, 15.580666666666666 192.0264417780078, 15.581999999999999 192.09310844467447 C 15.583333333333332 192.15977511134116, 15.584 192.22444177800782, 15.584 192.28710844467446 C 15.584 192.3497751113411, 15.583333333333332 192.41177511134111, 15.581999999999999 192.47310844467447 C 15.580666666666666 192.53444177800782, 15.578666666666663 192.59444177800782, 15.575999999999999 192.65310844467447 C 15.565333333333331 192.9384417780078, 15.512 193.18510844467446, 15.415999999999999 193.39310844467445 C 15.32 193.60110844467445, 15.19 193.78110844467446, 15.026 193.93310844467447 C 14.862 194.08510844467446, 14.672 194.22110844467446, 14.456 194.34110844467446 L 13.851999999999999 194.66910844467446 C 13.737333333333332 194.7304417780078, 13.647333333333332 194.8144417780078, 13.581999999999999 194.92110844467447 C 13.516666666666666 195.02777511134116, 13.469999999999999 195.14110844467444, 13.441999999999998 195.26110844467445 C 13.413999999999998 195.38110844467445, 13.399999999999999 195.49310844467445, 13.399999999999999 195.59710844467446 L 13.399999999999999 196.88910844467446 Z M 12.328 192.84910844467447 C 12.322666666666667 192.73177511134114, 12.318666666666665 192.61710844467447, 12.315999999999999 192.50510844467448 C 12.313333333333333 192.39310844467448, 12.311333333333334 192.28710844467446, 12.309999999999999 192.18710844467446 C 12.308666666666667 192.08710844467447, 12.309333333333335 191.9904417780078, 12.312 191.89710844467447 C 12.330666666666666 191.40910844467447, 12.447333333333333 191.04977511134115, 12.661999999999999 190.81910844467447 C 12.876666666666665 190.5884417780078, 13.213333333333331 190.45577511134113, 13.671999999999999 190.42110844467447 L 13.671999999999999 191.31310844467447 C 13.576 191.3424417780078, 13.505333333333333 191.38910844467446, 13.459999999999999 191.45310844467446 C 13.414666666666665 191.51710844467445, 13.390666666666664 191.5944417780078, 13.387999999999998 191.68510844467446 C 13.382666666666665 191.89310844467445, 13.379333333333333 192.0864417780078, 13.378 192.26510844467447 C 13.376666666666667 192.44377511134115, 13.381333333333334 192.6384417780078, 13.392 192.84910844467447 Z M 13.904 196.88910844467446 L 13.904 195.95710844467447 L 15.5 195.95710844467447 L 15.5 196.88910844467446 Z M 16.196 195.47710844467446 C 16.188000000000002 195.04777511134114, 16.182666666666666 194.63110844467445, 16.18 194.22710844467446 C 16.177333333333333 193.82310844467446, 16.177999999999997 193.42777511134113, 16.182 193.04110844467445 C 16.186 192.6544417780078, 16.190666666666665 192.27310844467448, 16.196 191.89710844467447 C 16.209333333333333 191.45710844467447, 16.334000000000003 191.11177511134116, 16.57 190.86110844467447 C 16.805999999999997 190.61044177800778, 17.142666666666663 190.46510844467446, 17.58 190.42510844467446 L 17.58 191.31310844467447 C 17.382666666666665 191.36910844467445, 17.281333333333333 191.49844177800782, 17.276 191.70110844467447 C 17.262666666666668 192.07177511134114, 17.253333333333334 192.41977511134115, 17.248 192.74510844467446 C 17.242666666666665 193.07044177800782, 17.24 193.38710844467448, 17.24 193.69510844467447 C 17.24 194.00310844467447, 17.242666666666665 194.31777511134112, 17.248 194.63910844467446 C 17.253333333333334 194.9604417780078, 17.262666666666668 195.30377511134114, 17.276 195.66910844467446 C 17.281333333333333 195.87710844467446, 17.382666666666665 196.00910844467444, 17.58 196.06510844467445 L 17.58 196.95310844467446 C 17.142666666666663 196.91310844467446, 16.805999999999997 196.76710844467448, 16.57 196.51510844467447 C 16.334000000000003 196.26310844467446, 16.209333333333333 195.91710844467445, 16.196 195.47710844467446 Z M 18.084 196.95310844467446 L 18.084 196.06110844467446 C 18.268 196.00777511134112, 18.366666666666667 195.88377511134115, 18.38 195.68910844467447 C 18.398666666666667 195.2224417780078, 18.410666666666668 194.77377511134114, 18.416 194.34310844467447 C 18.421333333333333 193.9124417780078, 18.421333333333333 193.4817751113411, 18.416 193.05110844467447 C 18.410666666666668 192.62044177800777, 18.398666666666667 192.16777511134111, 18.38 191.69310844467446 C 18.374666666666666 191.49844177800782, 18.276 191.37177511134115, 18.084 191.31310844467447 L 18.084 190.42510844467446 C 18.513333333333335 190.46510844467446, 18.846666666666668 190.61044177800778, 19.084 190.86110844467447 C 19.321333333333335 191.11177511134116, 19.445333333333334 191.45710844467447, 19.456 191.89710844467447 C 19.46666666666667 192.21177511134113, 19.474666666666668 192.52177511134113, 19.48 192.82710844467445 C 19.485333333333333 193.13244177800777, 19.488 193.43310844467447, 19.488 193.72910844467447 C 19.488 194.02510844467446, 19.485333333333333 194.3184417780078, 19.48 194.60910844467446 C 19.474666666666668 194.8997751113411, 19.46666666666667 195.18910844467445, 19.456 195.47710844467446 C 19.439999999999998 195.92777511134113, 19.311999999999998 196.27644177800778, 19.072 196.52310844467445 C 18.832 196.76977511134112, 18.502666666666666 196.91310844467446, 18.084 196.95310844467446 Z M 21.944 196.88910844467446 L 21.944 190.48910844467446 L 23.003999999999998 190.48910844467446 L 23.003999999999998 196.88910844467446 Z " stroke="none" fill-rule="nonzero" fill="#000000" fill-opacity="1" transform="matrix(1,0,0,1,5.05,13.314)" id="text20 l" />
  <path d="M 0 188.00465302244072 L 10 188.00465302244072 L 10 189.50465302244072 L 0 189.50465302244072 Z " stroke="none" fill-rule="evenodd" fill="#000000" fill-opacity="1" transform="matrix(1,0,0,1,5.05,13.314)" id="mark21 l" />
  <path d="M 0 178.07019760020702 L 10 178.07019760020702 L 10 179.57019760020702 L 0 179.57019760020702 Z " stroke="none" fill-rule="evenodd" fill="#000000" fill-opacity="1" transform="matrix(1,0,0,1,5.05,13.314)" id="mark22 l" />
  <path d="M 0 168.1357421779733 L 10 168.1357421779733 L 10 169.6357421779733 L 0 169.6357421779733 Z " stroke="none" fill-rule="evenodd" fill="#000000" fill-opacity="1" transform="matrix(1,0,0,1,5.05,13.314)" id="mark23 l" />
  <path d="M 0 158.20128675573957 L 10 158.20128675573957 L 10 159.70128675573957 L 0 159.70128675573957 Z " stroke="none" fill-rule="evenodd" fill="#000000" fill-opacity="1" transform="matrix(1,0,0,1,5.05,13.314)" id="mark24 l" />
  <path d="M 0 148.26683133350585 L 25 148.26683133350585 L 25 149.76683133350585 L 0 149.76683133350585 Z " stroke="none" fill-rule="evenodd" fill="#000000" fill-opacity="1" transform="matrix(1,0,0,1,5.05,13.314)" id="mark25 l" />
  <path d="M 12.328 147.21683133350587 C 12.325333333333333 147.1181646668392, 12.323333333333332 147.02949800017254, 12.322 146.95083133350587 C 12.320666666666666 146.8721646668392, 12.319333333333333 146.7981646668392, 12.318 146.72883133350587 C 12.316666666666666 146.65949800017253, 12.315999999999999 146.58749800017253, 12.316 146.51283133350586 C 12.315999999999999 146.43816466683919, 12.315999999999999 146.35349800017252, 12.316 146.25883133350587 C 12.315999999999999 146.1641646668392, 12.317333333333334 146.05283133350588, 12.32 145.92483133350586 C 12.328 145.63149800017254, 12.378 145.36949800017254, 12.47 145.13883133350586 C 12.562000000000001 144.90816466683918, 12.696 144.7021646668392, 12.872 144.52083133350587 C 13.048 144.33949800017254, 13.265333333333334 144.1781646668392, 13.524000000000001 144.03683133350586 L 14.056000000000001 143.74883133350588 C 14.242666666666668 143.64749800017253, 14.362000000000002 143.52549800017252, 14.414 143.38283133350586 C 14.466000000000001 143.2401646668392, 14.495999999999999 143.10616466683922, 14.504 142.98083133350588 C 14.514666666666667 142.83416466683923, 14.520666666666667 142.67749800017253, 14.522 142.51083133350588 C 14.523333333333333 142.34416466683922, 14.520000000000001 142.18749800017252, 14.512 142.04083133350588 C 14.506666666666666 141.9368313335059, 14.476666666666667 141.85083133350588, 14.422 141.78283133350587 C 14.367333333333335 141.71483133350586, 14.288 141.6661646668392, 14.184000000000001 141.63683133350585 L 14.184000000000001 140.74883133350588 C 14.672 140.7808313335059, 15.022000000000002 140.9121646668392, 15.234 141.14283133350585 C 15.446000000000002 141.37349800017253, 15.562666666666667 141.7341646668392, 15.584 142.22483133350588 C 15.586666666666668 142.28883133350587, 15.588666666666668 142.3541646668392, 15.59 142.42083133350587 C 15.591333333333335 142.48749800017254, 15.592000000000002 142.5521646668392, 15.592 142.61483133350586 C 15.592000000000002 142.67749800017253, 15.591333333333335 142.73949800017255, 15.59 142.80083133350587 C 15.588666666666668 142.8621646668392, 15.586666666666668 142.9221646668392, 15.584 142.98083133350588 C 15.573333333333332 143.2661646668392, 15.52 143.51283133350586, 15.424 143.72083133350586 C 15.328 143.92883133350585, 15.197999999999999 144.10883133350586, 15.033999999999999 144.26083133350588 C 14.87 144.41283133350586, 14.68 144.54883133350586, 14.464 144.66883133350586 L 13.86 144.99683133350587 C 13.745333333333335 145.05816466683922, 13.655333333333335 145.14216466683922, 13.59 145.24883133350588 C 13.524666666666668 145.35549800017253, 13.478000000000002 145.46883133350588, 13.45 145.58883133350588 C 13.422 145.70883133350586, 13.408 145.82083133350585, 13.408 145.92483133350586 L 13.408 147.21683133350587 Z M 12.336 143.17683133350587 C 12.330666666666666 143.05949800017254, 12.326666666666664 142.94483133350585, 12.324 142.83283133350585 C 12.321333333333332 142.72083133350586, 12.319333333333333 142.61483133350586, 12.318 142.51483133350587 C 12.316666666666666 142.41483133350587, 12.317333333333334 142.3181646668392, 12.32 142.22483133350588 C 12.338666666666668 141.73683133350588, 12.455333333333336 141.37749800017252, 12.67 141.14683133350587 C 12.884666666666668 140.91616466683922, 13.221333333333334 140.78349800017253, 13.68 140.74883133350588 L 13.68 141.64083133350587 C 13.584 141.67016466683918, 13.513333333333332 141.71683133350587, 13.468 141.78083133350586 C 13.422666666666668 141.84483133350585, 13.398666666666667 141.9221646668392, 13.396 142.01283133350586 C 13.390666666666666 142.22083133350586, 13.387333333333332 142.4141646668392, 13.386 142.59283133350587 C 13.384666666666666 142.77149800017253, 13.389333333333333 142.9661646668392, 13.4 143.17683133350587 Z M 13.911999999999999 147.21683133350587 L 13.911999999999999 146.28483133350588 L 15.508 146.28483133350588 L 15.508 147.21683133350587 Z M 16.18 145.80083133350587 C 16.174666666666667 145.62749800017252, 16.173333333333332 145.4881646668392, 16.176 145.38283133350586 C 16.178666666666665 145.27749800017253, 16.181333333333335 145.17549800017252, 16.183999999999997 145.07683133350588 L 17.264 145.07683133350588 C 17.256 145.15416466683922, 17.25 145.2501646668392, 17.246 145.36483133350586 C 17.241999999999997 145.47949800017253, 17.240666666666666 145.5901646668392, 17.241999999999997 145.69683133350586 C 17.243333333333332 145.8034980001725, 17.246666666666666 145.88349800017252, 17.252 145.93683133350586 C 17.262666666666668 146.05683133350587, 17.297333333333334 146.15483133350588, 17.355999999999998 146.23083133350588 C 17.414666666666665 146.30683133350587, 17.497333333333334 146.36083133350584, 17.604 146.39283133350585 L 17.604 147.28483133350588 C 17.110666666666663 147.24749800017253, 16.75333333333333 147.11283133350585, 16.532 146.88083133350585 C 16.310666666666666 146.64883133350585, 16.19333333333333 146.28883133350587, 16.18 145.80083133350587 Z M 16.279999999999998 144.46483133350586 L 16.279999999999998 140.81683133350586 L 17.348 140.81683133350586 L 17.348 144.46483133350586 Z M 17.852 144.04083133350588 L 17.852 143.28483133350588 C 17.929333333333332 143.24483133350589, 18.014666666666667 143.21283133350587, 18.107999999999997 143.18883133350587 C 18.20133333333333 143.16483133350587, 18.301333333333332 143.15283133350587, 18.407999999999998 143.15283133350587 C 18.773333333333333 143.15283133350587, 19.047333333333334 143.2681646668392, 19.23 143.49883133350588 C 19.412666666666667 143.72949800017253, 19.514666666666663 144.04349800017252, 19.535999999999998 144.44083133350586 C 19.546666666666667 144.60083133350585, 19.55333333333333 144.75949800017253, 19.555999999999997 144.91683133350585 C 19.558666666666664 145.07416466683918, 19.557333333333332 145.22749800017255, 19.552 145.37683133350586 C 19.546666666666667 145.52616466683918, 19.538666666666668 145.6661646668392, 19.528 145.79683133350588 C 19.482666666666667 146.29549800017253, 19.353333333333335 146.66083133350585, 19.14 146.89283133350585 C 18.926666666666666 147.12483133350585, 18.581333333333333 147.25549800017254, 18.104 147.28483133350588 L 18.104 146.39283133350585 C 18.21333333333333 146.36349800017254, 18.296 146.31083133350586, 18.352 146.23483133350587 C 18.408 146.15883133350587, 18.44 146.05949800017254, 18.448 145.93683133350586 C 18.471999999999998 145.64616466683918, 18.485999999999997 145.38483133350587, 18.49 145.15283133350587 C 18.494 144.92083133350587, 18.485333333333333 144.69949800017253, 18.464 144.48883133350586 C 18.447999999999997 144.3341646668392, 18.396666666666665 144.21883133350585, 18.31 144.14283133350585 C 18.223333333333333 144.06683133350586, 18.090666666666664 144.02883133350588, 17.912 144.02883133350588 C 17.901333333333334 144.02883133350588, 17.890666666666668 144.0301646668392, 17.88 144.03283133350587 C 17.86933333333333 144.03549800017254, 17.86 144.0381646668392, 17.852 144.04083133350588 Z M 17.852 141.74883133350588 L 17.852 140.81683133350586 L 19.439999999999998 140.81683133350586 L 19.439999999999998 141.74883133350588 Z M 21.944 147.21683133350587 L 21.944 140.81683133350586 L 23.003999999999998 140.81683133350586 L 23.003999999999998 147.21683133350587 Z " stroke="none" fill-rule="nonzero" fill="#000000" fill-opacity="1" transform="matrix(1,0,0,1,5.05,13.314)" id="text25 l" />
  <path d="M 0 138.33237591127215 L 10 138.33237591127215 L 10 139.83237591127215 L 0 139.83237591127215 Z " stroke="none" fill-rule="evenodd" fill="#000000" fill-opacity="1" transform="matrix(1,0,0,1,5.05,13.314)" id="mark26 l" />
  <path d="M 0 128.39792048903843 L 10 128.39792048903843 L 10 129.89792048903843 L 0 129.89792048903843 Z " stroke="none" fill-rule="evenodd" fill="#000000" fill-opacity="1" transform="matrix(1,0,0,1,5.05,13.314)" id="mark27 l" />
  <path d="M 0 118.4634650668047 L 10 118.4634650668047 L 10 119.9634650668047 L 0 119.9634650668047 Z " stroke="none" fill-rule="evenodd" fill="#000000" fill-opacity="1" transform="matrix(1,0,0,1,5.05,13.314)" id="mark28 l" />
  <path d="M 0 108.52900964457098 L 10 108.52900964457098 L 10 110.02900964457098 L 0 110.02900964457098 Z " stroke="none" fill-rule="evenodd" fill="#000000" fill-opacity="1" transform="matrix(1,0,0,1,5.05,13.314)" id="mark29 l" />
  <path d="M 0 98.59455422233725 L 25 98.59455422233725 L 25 100.09455422233725 L 0 100.09455422233725 Z " stroke="none" fill-rule="evenodd" fill="#000000" fill-opacity="1" transform="matrix(1,0,0,1,5.05,13.314)" id="mark30 l" />
  <path d="M 12.223999999999998 96.12855422233726 C 12.221333333333334 96.02722088900393, 12.219333333333333 95.94322088900392, 12.218 95.87655422233725 C 12.216666666666667 95.80988755567058, 12.216666666666667 95.74188755567059, 12.218 95.67255422233725 C 12.219333333333333 95.60322088900392, 12.221333333333334 95.51388755567059, 12.223999999999998 95.40455422233725 L 13.303999999999998 95.40455422233725 L 13.303999999999998 96.26855422233726 C 13.303999999999998 96.50588755567058, 13.417333333333332 96.65655422233725, 13.643999999999998 96.72055422233726 L 13.643999999999998 97.61255422233725 C 13.155999999999999 97.57522088900393, 12.800666666666665 97.44055422233725, 12.578 97.20855422233726 C 12.355333333333334 96.97655422233726, 12.237333333333332 96.61655422233726, 12.223999999999998 96.12855422233726 Z M 12.292 92.07655422233725 L 12.292 91.14455422233725 L 15.536 91.14455422233725 L 15.536 92.07655422233725 Z M 14.143999999999998 96.72455422233726 C 14.367999999999999 96.66855422233726, 14.483999999999998 96.5178875556706, 14.491999999999999 96.27255422233725 C 14.497333333333334 96.06988755567059, 14.500666666666666 95.88722088900393, 14.501999999999999 95.72455422233726 C 14.503333333333332 95.56188755567058, 14.498666666666665 95.40455422233725, 14.488 95.25255422233725 C 14.48 95.09522088900391, 14.431999999999999 94.96188755567059, 14.344 94.85255422233726 C 14.256 94.74322088900392, 14.089333333333332 94.69122088900392, 13.844 94.69655422233726 L 13.096 94.70455422233725 L 13.068 93.81255422233725 L 14.027999999999999 92.42855422233725 L 15.216 92.42855422233725 L 14.248 93.78055422233726 L 14.28 93.78055422233726 C 14.712 93.78055422233726, 15.028666666666666 93.90322088900392, 15.229999999999999 94.14855422233725 C 15.431333333333333 94.39388755567059, 15.544 94.77122088900391, 15.568 95.28055422233726 C 15.57333333333333 95.35255422233725, 15.576666666666664 95.42455422233725, 15.578 95.49655422233725 C 15.57933333333333 95.56855422233726, 15.579999999999998 95.63922088900392, 15.579999999999998 95.70855422233726 C 15.579999999999998 95.77788755567059, 15.57933333333333 95.84722088900392, 15.578 95.91655422233725 C 15.576666666666664 95.98588755567059, 15.57333333333333 96.05655422233725, 15.568 96.12855422233726 C 15.549333333333333 96.62455422233725, 15.428666666666665 96.98922088900392, 15.206 97.22255422233725 C 14.983333333333334 97.45588755567059, 14.630666666666666 97.58588755567058, 14.148 97.61255422233725 Z M 16.196 96.13255422233725 C 16.188000000000002 95.70322088900392, 16.182666666666666 95.28655422233726, 16.18 94.88255422233725 C 16.177333333333333 94.47855422233725, 16.177999999999997 94.08322088900393, 16.182 93.69655422233726 C 16.186 93.30988755567058, 16.190666666666665 92.92855422233725, 16.196 92.55255422233725 C 16.209333333333333 92.11255422233725, 16.334000000000003 91.76722088900391, 16.57 91.51655422233725 C 16.805999999999997 91.26588755567059, 17.142666666666663 91.12055422233726, 17.58 91.08055422233726 L 17.58 91.96855422233726 C 17.382666666666665 92.02455422233726, 17.281333333333333 92.1538875556706, 17.276 92.35655422233725 C 17.262666666666668 92.72722088900392, 17.253333333333334 93.07522088900392, 17.248 93.40055422233725 C 17.242666666666665 93.72588755567058, 17.24 94.04255422233724, 17.24 94.35055422233725 C 17.24 94.65855422233726, 17.242666666666665 94.97322088900393, 17.248 95.29455422233725 C 17.253333333333334 95.61588755567058, 17.262666666666668 95.95922088900392, 17.276 96.32455422233726 C 17.281333333333333 96.53255422233727, 17.382666666666665 96.66455422233726, 17.58 96.72055422233726 L 17.58 97.60855422233725 C 17.142666666666663 97.56855422233727, 16.805999999999997 97.42255422233725, 16.57 97.17055422233726 C 16.334000000000003 96.91855422233726, 16.209333333333333 96.57255422233726, 16.196 96.13255422233725 Z M 18.084 97.60855422233725 L 18.084 96.71655422233725 C 18.268 96.66322088900392, 18.366666666666667 96.53922088900393, 18.38 96.34455422233725 C 18.398666666666667 95.87788755567058, 18.410666666666668 95.42922088900391, 18.416 94.99855422233725 C 18.421333333333333 94.5678875556706, 18.421333333333333 94.13722088900393, 18.416 93.70655422233726 C 18.410666666666668 93.2758875556706, 18.398666666666667 92.82322088900392, 18.38 92.34855422233726 C 18.374666666666666 92.1538875556706, 18.276 92.02722088900393, 18.084 91.96855422233726 L 18.084 91.08055422233726 C 18.513333333333335 91.12055422233726, 18.846666666666668 91.26588755567059, 19.084 91.51655422233725 C 19.321333333333335 91.76722088900391, 19.445333333333334 92.11255422233725, 19.456 92.55255422233725 C 19.46666666666667 92.86722088900392, 19.474666666666668 93.17722088900392, 19.48 93.48255422233726 C 19.485333333333333 93.7878875556706, 19.488 94.08855422233725, 19.488 94.38455422233726 C 19.488 94.68055422233726, 19.485333333333333 94.97388755567059, 19.48 95.26455422233725 C 19.474666666666668 95.55522088900392, 19.46666666666667 95.84455422233725, 19.456 96.13255422233725 C 19.439999999999998 96.58322088900391, 19.311999999999998 96.93188755567058, 19.072 97.17855422233725 C 18.832 97.42522088900392, 18.502666666666666 97.56855422233727, 18.084 97.60855422233725 Z M 21.944 97.54455422233725 L 21.944 91.14455422233725 L 23.003999999999998 91.14455422233725 L 23.003999999999998 97.54455422233725 Z " stroke="none" fill-rule="nonzero" fill="#000000" fill-opacity="1" transform="matrix(1,0,0,1,5.05,13.314)" id="text30 l" />
  <path d="M 0 88.66009880010353 L 10 88.66009880010353 L 10 90.16009880010353 L 0 90.16009880010353 Z " stroke="none" fill-rule="evenodd" fill="#000000" fill-opacity="1" transform="matrix(1,0,0,1,5.05,13.314)" id="mark31 l" />
  <path d="M 0 78.7256433778698 L 10 78.7256433778698 L 10 80.2256433778698 L 0 80.2256433778698 Z " stroke="none" fill-rule="evenodd" fill="#000000" fill-opacity="1" transform="matrix(1,0,0,1,5.05,13.314)" id="mark32 l" />
  <path d="M 0 68.79118795563608 L 10 68.79118795563608 L 10 70.29118795563608 L 0 70.29118795563608 Z " stroke="none" fill-rule="evenodd" fill="#000000" fill-opacity="1" transform="matrix(1,0,0,1,5.05,13.314)" id="mark33 l" />
  <path d="M 0 58.85673253340235 L 10 58.85673253340235 L 10 60.35673253340235 L 0 60.35673253340235 Z " stroke="none" fill-rule="evenodd" fill="#000000" fill-opacity="1" transform="matrix(1,0,0,1,5.05,13.314)" id="mark34 l" />
  <path d="M 0 48.922277111168626 L 25 48.922277111168626 L 25 50.422277111168626 L 0 50.422277111168626 Z " stroke="none" fill-rule="evenodd" fill="#000000" fill-opacity="1" transform="matrix(1,0,0,1,5.05,13.314)" id="mark35 l" />
  <path d="M 12.232 46.42427711116863 C 12.229333333333333 46.32294377783529, 12.227333333333334 46.238943777835296, 12.226 46.172277111168626 C 12.224666666666668 46.105610444501956, 12.224666666666668 46.03761044450196, 12.226 45.968277111168625 C 12.227333333333334 45.89894377783529, 12.229333333333333 45.809610444501956, 12.232 45.700277111168624 L 13.312 45.700277111168624 L 13.312 46.56427711116862 C 13.312 46.801610444501954, 13.425333333333333 46.95227711116863, 13.652 47.01627711116863 L 13.652 47.90827711116862 C 13.164 47.87094377783529, 12.808666666666667 47.736277111168626, 12.586 47.504277111168626 C 12.363333333333333 47.27227711116863, 12.245333333333335 46.91227711116863, 12.232 46.42427711116863 Z M 12.3 42.37227711116863 L 12.3 41.440277111168626 L 15.544 41.440277111168626 L 15.544 42.37227711116863 Z M 14.152000000000001 47.020277111168625 C 14.376000000000001 46.96427711116862, 14.492 46.813610444501954, 14.5 46.56827711116863 C 14.505333333333333 46.36561044450196, 14.508666666666667 46.18294377783529, 14.51 46.020277111168625 C 14.511333333333333 45.85761044450196, 14.506666666666668 45.700277111168624, 14.496 45.54827711116862 C 14.488 45.39094377783529, 14.440000000000001 45.257610444501964, 14.352 45.148277111168625 C 14.264 45.038943777835286, 14.097333333333335 44.98694377783529, 13.852 44.992277111168626 L 13.104 45.00027711116863 L 13.076 44.108277111168626 L 14.036 42.724277111168625 L 15.224 42.724277111168625 L 14.256 44.07627711116862 L 14.288 44.07627711116862 C 14.719999999999999 44.07627711116862, 15.036666666666665 44.19894377783529, 15.238 44.444277111168624 C 15.439333333333334 44.68961044450196, 15.552 45.06694377783529, 15.576 45.57627711116862 C 15.581333333333333 45.648277111168625, 15.584666666666667 45.72027711116863, 15.586 45.79227711116862 C 15.587333333333333 45.864277111168626, 15.588000000000001 45.934943777835294, 15.588000000000001 46.004277111168626 C 15.588000000000001 46.07361044450196, 15.587333333333333 46.14294377783529, 15.586 46.212277111168625 C 15.584666666666667 46.28161044450196, 15.581333333333333 46.352277111168625, 15.576 46.42427711116863 C 15.557333333333334 46.92027711116863, 15.436666666666667 47.284943777835295, 15.214 47.51827711116862 C 14.991333333333333 47.75161044450196, 14.638666666666666 47.88161044450196, 14.156 47.90827711116862 Z M 16.18 46.42427711116863 C 16.174666666666667 46.25094377783529, 16.173333333333332 46.111610444501956, 16.176 46.00627711116862 C 16.178666666666665 45.900943777835295, 16.181333333333335 45.79894377783529, 16.183999999999997 45.700277111168624 L 17.264 45.700277111168624 C 17.256 45.77761044450196, 17.25 45.87361044450196, 17.246 45.98827711116863 C 17.241999999999997 46.10294377783529, 17.240666666666666 46.21361044450196, 17.241999999999997 46.32027711116862 C 17.243333333333332 46.42694377783529, 17.246666666666666 46.50694377783529, 17.252 46.560277111168624 C 17.262666666666668 46.68027711116862, 17.297333333333334 46.77827711116863, 17.355999999999998 46.85427711116863 C 17.414666666666665 46.93027711116863, 17.497333333333334 46.98427711116862, 17.604 47.01627711116863 L 17.604 47.90827711116862 C 17.110666666666663 47.87094377783529, 16.75333333333333 47.736277111168626, 16.532 47.504277111168626 C 16.310666666666666 47.27227711116863, 16.19333333333333 46.91227711116863, 16.18 46.42427711116863 Z M 16.279999999999998 45.08827711116862 L 16.279999999999998 41.440277111168626 L 17.348 41.440277111168626 L 17.348 45.08827711116862 Z M 17.852 44.66427711116862 L 17.852 43.90827711116862 C 17.929333333333332 43.868277111168624, 18.014666666666667 43.83627711116863, 18.107999999999997 43.812277111168626 C 18.20133333333333 43.788277111168625, 18.301333333333332 43.776277111168625, 18.407999999999998 43.776277111168625 C 18.773333333333333 43.776277111168625, 19.047333333333334 43.891610444501964, 19.23 44.12227711116863 C 19.412666666666667 44.35294377783529, 19.514666666666663 44.66694377783529, 19.535999999999998 45.06427711116862 C 19.546666666666667 45.224277111168625, 19.55333333333333 45.382943777835294, 19.555999999999997 45.54027711116863 C 19.558666666666664 45.69761044450196, 19.557333333333332 45.85094377783529, 19.552 46.00027711116862 C 19.546666666666667 46.14961044450196, 19.538666666666668 46.28961044450196, 19.528 46.42027711116862 C 19.482666666666667 46.918943777835295, 19.353333333333335 47.28427711116863, 19.14 47.51627711116863 C 18.926666666666666 47.748277111168626, 18.581333333333333 47.87894377783529, 18.104 47.90827711116862 L 18.104 47.01627711116863 C 18.21333333333333 46.98694377783529, 18.296 46.934277111168626, 18.352 46.858277111168626 C 18.408 46.782277111168625, 18.44 46.68294377783529, 18.448 46.560277111168624 C 18.471999999999998 46.26961044450196, 18.485999999999997 46.008277111168624, 18.49 45.776277111168625 C 18.494 45.544277111168626, 18.485333333333333 45.32294377783529, 18.464 45.11227711116862 C 18.447999999999997 44.95761044450195, 18.396666666666665 44.84227711116863, 18.31 44.76627711116863 C 18.223333333333333 44.690277111168626, 18.090666666666664 44.65227711116862, 17.912 44.65227711116862 C 17.901333333333334 44.65227711116862, 17.890666666666668 44.65361044450196, 17.88 44.65627711116863 C 17.86933333333333 44.65894377783529, 17.86 44.66161044450196, 17.852 44.66427711116862 Z M 17.852 42.37227711116863 L 17.852 41.440277111168626 L 19.439999999999998 41.440277111168626 L 19.439999999999998 42.37227711116863 Z M 21.944 47.840277111168625 L 21.944 41.440277111168626 L 23.003999999999998 41.440277111168626 L 23.003999999999998 47.840277111168625 Z " stroke="none" fill-rule="nonzero" fill="#000000" fill-opacity="1" transform="matrix(1,0,0,1,5.05,13.314)" id="text35 l" />
  <path d="M 0 38.9878216889349 L 10 38.9878216889349 L 10 40.4878216889349 L 0 40.4878216889349 Z " stroke="none" fill-rule="evenodd" fill="#000000" fill-opacity="1" transform="matrix(1,0,0,1,5.05,13.314)" id="mark36 l" />
  <path d="M 0 29.053366266701175 L 10 29.053366266701175 L 10 30.553366266701175 L 0 30.553366266701175 Z " stroke="none" fill-rule="evenodd" fill="#000000" fill-opacity="1" transform="matrix(1,0,0,1,5.05,13.314)" id="mark37 l" />
  <path d="M 0 19.11891084446745 L 10 19.11891084446745 L 10 20.61891084446745 L 0 20.61891084446745 Z " stroke="none" fill-rule="evenodd" fill="#000000" fill-opacity="1" transform="matrix(1,0,0,1,5.05,13.314)" id="mark38 l" />
  <path d="M 0 9.184455422233725 L 10 9.184455422233725 L 10 10.684455422233725 L 0 10.684455422233725 Z " stroke="none" fill-rule="evenodd" fill="#000000" fill-opacity="1" transform="matrix(1,0,0,1,5.05,13.314)" id="mark39 l" />
  <path d="M 0 -0.75 L 25 -0.75 L 25 0.75 L 0 0.75 Z " stroke="none" fill-rule="evenodd" fill="#000000" fill-opacity="1" transform="matrix(1,0,0,1,5.05,13.314)" id="mark40 l" />
  <path d="M 11.739999999999998 -3.484 L 11.739999999999998 -4.359999999999999 L 12.455999999999998 -6.24 L 13.495999999999999 -6.24 L 12.771999999999998 -4.4079999999999995 L 13.171999999999997 -4.4079999999999995 L 13.171999999999997 -3.484 Z M 13.675999999999998 -1.7999999999999998 L 13.675999999999998 -8.2 L 14.683999999999997 -8.2 L 14.683999999999997 -1.7999999999999998 Z M 15.187999999999999 -3.484 L 15.187999999999999 -4.4079999999999995 L 15.655999999999999 -4.4079999999999995 L 15.655999999999999 -3.484 Z M 16.195999999999998 -3.2119999999999997 C 16.188 -3.641333333333333, 16.182666666666666 -4.058, 16.18 -4.462 C 16.177333333333333 -4.866, 16.177999999999997 -5.261333333333333, 16.182 -5.648 C 16.186 -6.034666666666666, 16.190666666666665 -6.416, 16.195999999999998 -6.792 C 16.20933333333333 -7.231999999999999, 16.333999999999996 -7.577333333333334, 16.569999999999997 -7.828 C 16.805999999999997 -8.078666666666667, 17.142666666666663 -8.224, 17.58 -8.264 L 17.58 -7.3759999999999994 C 17.382666666666665 -7.32, 17.281333333333333 -7.190666666666667, 17.275999999999996 -6.9879999999999995 C 17.262666666666664 -6.617333333333333, 17.25333333333333 -6.269333333333333, 17.247999999999998 -5.944 C 17.242666666666665 -5.618666666666666, 17.24 -5.302, 17.24 -4.994 C 17.24 -4.686, 17.242666666666665 -4.371333333333333, 17.247999999999998 -4.05 C 17.25333333333333 -3.7286666666666664, 17.262666666666664 -3.3853333333333326, 17.275999999999996 -3.0199999999999996 C 17.281333333333333 -2.812, 17.382666666666665 -2.6799999999999997, 17.58 -2.6239999999999997 L 17.58 -1.7359999999999998 C 17.142666666666663 -1.7759999999999998, 16.805999999999997 -1.9219999999999997, 16.569999999999997 -2.174 C 16.333999999999996 -2.4259999999999997, 16.20933333333333 -2.772, 16.195999999999998 -3.2119999999999997 Z M 18.084 -1.7359999999999998 L 18.084 -2.6279999999999997 C 18.268 -2.681333333333333, 18.366666666666667 -2.8053333333333335, 18.38 -3 C 18.398666666666664 -3.4666666666666663, 18.410666666666664 -3.915333333333333, 18.415999999999997 -4.346 C 18.42133333333333 -4.776666666666666, 18.42133333333333 -5.207333333333333, 18.415999999999997 -5.638 C 18.410666666666664 -6.068666666666666, 18.398666666666664 -6.521333333333333, 18.38 -6.9959999999999996 C 18.374666666666666 -7.190666666666667, 18.276 -7.317333333333334, 18.084 -7.3759999999999994 L 18.084 -8.264 C 18.513333333333332 -8.224, 18.846666666666664 -8.078666666666667, 19.083999999999996 -7.828 C 19.32133333333333 -7.577333333333334, 19.44533333333333 -7.231999999999999, 19.456 -6.792 C 19.466666666666665 -6.477333333333332, 19.474666666666664 -6.167333333333333, 19.479999999999997 -5.861999999999999 C 19.48533333333333 -5.556666666666667, 19.488 -5.256, 19.488 -4.96 C 19.488 -4.664, 19.48533333333333 -4.370666666666667, 19.479999999999997 -4.08 C 19.474666666666664 -3.7893333333333334, 19.466666666666665 -3.5, 19.456 -3.2119999999999997 C 19.439999999999998 -2.761333333333333, 19.311999999999998 -2.4126666666666665, 19.072 -2.166 C 18.831999999999997 -1.9193333333333331, 18.502666666666663 -1.7759999999999998, 18.084 -1.7359999999999998 Z M 21.944 -1.7999999999999998 L 21.944 -8.2 L 23.003999999999998 -8.2 L 23.003999999999998 -1.7999999999999998 Z " stroke="none" fill-rule="nonzero" fill="#000000" fill-opacity="1" transform="matrix(1,0,0,1,5.05,13.314)" id="text40 l" />
  <path d="M -5 -13.264 L 30 -13.264 L 30 394.21176146711514 L -5 394.21176146711514 Z " stroke="#FF0000" stroke-opacity="1" stroke-width="0.1" stroke-linecap="butt" stroke-linejoin="miter" fill="none" transform="matrix(1,0,0,1,5.05,13.314)" />
</svg>