<?xml version="1.0" encoding="UTF-8"?>
<svg xmlns:xlink="http://www.w3.org/1999/xlink" viewBox="0 0 35.1 403.28278892493324" version="1.1" style="font-synthesis: none;" width="35.1mm" height="403.28278892493324mm" xmlns="http://www.w3.org/2000/svg">
  <defs />
  <style>	</style>
  <path d="M 0 0 L 35.1 0 L 35.1 403.28278892493324 L 0 403.28278892493324 Z " stroke="none" fill-rule="nonzero" fill="#FFFFFF" fill-opacity="1" transform="matrix(1,0,0,1,0,0)" />
  <path d="M 0 382.40078892493324 L 10 382.40078892493324 L 10 383.90078892493324 L 0 383.90078892493324 Z " stroke="none" fill-rule="evenodd" fill="#000000" fill-opacity="1" transform="matrix(1,0,0,1,5.05,13.314)" id="mark1 l" />
  <path d="M 0 372.5764097217298 L 10 372.5764097217298 L 10 374.0764097217298 L 0 374.0764097217298 Z " stroke="none" fill-rule="evenodd" fill="#000000" fill-opacity="1" transform="matrix(1,0,0,1,5.05,13.314)" id="mark2 l" />
  <path d="M 0 362.7520305185264 L 10 362.7520305185264 L 10 364.2520305185264 L 0 364.2520305185264 Z " stroke="none" fill-rule="evenodd" fill="#000000" fill-opacity="1" transform="matrix(1,0,0,1,5.05,13.314)" id="mark3 l" />
  <path d="M 0 352.927651315323 L 10 352.927651315323 L 10 354.427651315323 L 0 354.427651315323 Z " stroke="none" fill-rule="evenodd" fill="#000000" fill-opacity="1" transform="matrix(1,0,0,1,5.05,13.314)" id="mark4 l" />
  <path d="M 0 343.10327211211956 L 25 343.10327211211956 L 25 344.60327211211956 L 0 344.60327211211956 Z " stroke="none" fill-rule="evenodd" fill="#000000" fill-opacity="1" transform="matrix(1,0,0,1,5.05,13.314)" id="mark5 l" />
  <path d="M 16.18 340.60527211211956 C 16.174666666666667 340.4319387787862, 16.173333333333332 340.29260544545286, 16.176 340.18727211211956 C 16.178666666666665 340.08193877878625, 16.181333333333335 339.9799387787862, 16.183999999999997 339.8812721121196 L 17.264 339.8812721121196 C 17.256 339.9586054454529, 17.25 340.0546054454529, 17.246 340.1692721121196 C 17.241999999999997 340.28393877878625, 17.240666666666666 340.3946054454529, 17.241999999999997 340.5012721121196 C 17.243333333333332 340.6079387787862, 17.246666666666666 340.68793877878625, 17.252 340.7412721121196 C 17.262666666666668 340.86127211211954, 17.297333333333334 340.95927211211955, 17.355999999999998 341.03527211211957 C 17.414666666666665 341.11127211211954, 17.497333333333334 341.16527211211957, 17.604 341.19727211211955 L 17.604 342.08927211211954 C 17.110666666666663 342.0519387787862, 16.75333333333333 341.9172721121196, 16.532 341.68527211211955 C 16.310666666666666 341.4532721121195, 16.19333333333333 341.09327211211956, 16.18 340.60527211211956 Z M 16.279999999999998 339.26927211211955 L 16.279999999999998 335.6212721121196 L 17.348 335.6212721121196 L 17.348 339.26927211211955 Z M 17.852 338.8452721121196 L 17.852 338.08927211211954 C 17.929333333333332 338.0492721121195, 18.014666666666667 338.01727211211954, 18.107999999999997 337.99327211211954 C 18.20133333333333 337.96927211211954, 18.301333333333332 337.95727211211954, 18.407999999999998 337.95727211211954 C 18.773333333333333 337.95727211211954, 19.047333333333334 338.0726054454529, 19.23 338.30327211211954 C 19.412666666666667 338.5339387787862, 19.514666666666663 338.8479387787862, 19.535999999999998 339.24527211211955 C 19.546666666666667 339.4052721121196, 19.55333333333333 339.5639387787862, 19.555999999999997 339.72127211211955 C 19.558666666666664 339.8786054454529, 19.557333333333332 340.03193877878624, 19.552 340.1812721121196 C 19.546666666666667 340.33060544545293, 19.538666666666668 340.4706054454529, 19.528 340.60127211211955 C 19.482666666666667 341.0999387787862, 19.353333333333335 341.4652721121196, 19.14 341.69727211211955 C 18.926666666666666 341.9292721121195, 18.581333333333333 342.0599387787862, 18.104 342.08927211211954 L 18.104 341.19727211211955 C 18.21333333333333 341.1679387787862, 18.296 341.11527211211956, 18.352 341.03927211211953 C 18.408 340.9632721121195, 18.44 340.86393877878623, 18.448 340.7412721121196 C 18.471999999999998 340.4506054454529, 18.485999999999997 340.18927211211957, 18.49 339.95727211211954 C 18.494 339.72527211211957, 18.485333333333333 339.5039387787863, 18.464 339.29327211211955 C 18.447999999999997 339.13860544545287, 18.396666666666665 339.02327211211957, 18.31 338.94727211211955 C 18.223333333333333 338.8712721121196, 18.090666666666664 338.8332721121196, 17.912 338.8332721121196 C 17.901333333333334 338.8332721121196, 17.890666666666668 338.8346054454529, 17.88 338.83727211211954 C 17.86933333333333 338.83993877878623, 17.86 338.8426054454529, 17.852 338.8452721121196 Z M 17.852 336.55327211211954 L 17.852 335.6212721121196 L 19.439999999999998 335.6212721121196 L 19.439999999999998 336.55327211211954 Z M 21.944 342.02127211211956 L 21.944 335.6212721121196 L 23.003999999999998 335.6212721121196 L 23.003999999999998 342.02127211211956 Z " stroke="none" fill-rule="nonzero" fill="#000000" fill-opacity="1" transform="matrix(1,0,0,1,5.05,13.314)" id="text5 l" />
  <path d="M 0 333.27889290891613 L 10 333.27889290891613 L 10 334.77889290891613 L 0 334.77889290891613 Z " stroke="none" fill-rule="evenodd" fill="#000000" fill-opacity="1" transform="matrix(1,0,0,1,5.05,13.314)" id="mark6 l" />
  <path d="M 0 323.45451370571277 L 10 323.45451370571277 L 10 324.95451370571277 L 0 324.95451370571277 Z " stroke="none" fill-rule="evenodd" fill="#000000" fill-opacity="1" transform="matrix(1,0,0,1,5.05,13.314)" id="mark7 l" />
  <path d="M 0 313.63013450250935 L 10 313.63013450250935 L 10 315.13013450250935 L 0 315.13013450250935 Z " stroke="none" fill-rule="evenodd" fill="#000000" fill-opacity="1" transform="matrix(1,0,0,1,5.05,13.314)" id="mark8 l" />
  <path d="M 0 303.80575529930593 L 10 303.80575529930593 L 10 305.30575529930593 L 0 305.30575529930593 Z " stroke="none" fill-rule="evenodd" fill="#000000" fill-opacity="1" transform="matrix(1,0,0,1,5.05,13.314)" id="mark9 l" />
  <path d="M 0 293.9813760961025 L 25 293.9813760961025 L 25 295.4813760961025 L 0 295.4813760961025 Z " stroke="none" fill-rule="evenodd" fill="#000000" fill-opacity="1" transform="matrix(1,0,0,1,5.05,13.314)" id="mark10 l" />
  <path d="M 14.323999999999998 292.9313760961025 L 14.323999999999998 287.4873760961025 L 13.871999999999998 287.4873760961025 L 13.839999999999998 287.1073760961025 L 14.543999999999999 286.5313760961025 L 15.424 286.5313760961025 L 15.424 292.9313760961025 Z M 16.196 291.5193760961025 C 16.188000000000002 291.0900427627692, 16.182666666666666 290.6733760961025, 16.18 290.2693760961025 C 16.177333333333333 289.8653760961025, 16.177999999999997 289.4700427627692, 16.182 289.0833760961025 C 16.186 288.6967094294358, 16.190666666666665 288.3153760961025, 16.196 287.9393760961025 C 16.209333333333333 287.4993760961025, 16.334000000000003 287.15404276276917, 16.57 286.9033760961025 C 16.805999999999997 286.65270942943584, 17.142666666666663 286.50737609610246, 17.58 286.4673760961025 L 17.58 287.3553760961025 C 17.382666666666665 287.41137609610246, 17.281333333333333 287.5407094294358, 17.276 287.7433760961025 C 17.262666666666668 288.11404276276915, 17.253333333333334 288.46204276276916, 17.248 288.7873760961025 C 17.242666666666665 289.1127094294358, 17.24 289.4293760961025, 17.24 289.7373760961025 C 17.24 290.0453760961025, 17.242666666666665 290.3600427627691, 17.248 290.6813760961025 C 17.253333333333334 291.00270942943587, 17.262666666666668 291.3460427627692, 17.276 291.71137609610247 C 17.281333333333333 291.9193760961025, 17.382666666666665 292.05137609610244, 17.58 292.1073760961025 L 17.58 292.9953760961025 C 17.142666666666663 292.9553760961025, 16.805999999999997 292.8093760961025, 16.57 292.5573760961025 C 16.334000000000003 292.30537609610246, 16.209333333333333 291.9593760961025, 16.196 291.5193760961025 Z M 18.084 292.9953760961025 L 18.084 292.1033760961025 C 18.268 292.0500427627692, 18.366666666666667 291.92604276276916, 18.38 291.7313760961025 C 18.398666666666667 291.26470942943587, 18.410666666666668 290.8160427627692, 18.416 290.3853760961025 C 18.421333333333333 289.9547094294358, 18.421333333333333 289.52404276276917, 18.416 289.0933760961025 C 18.410666666666668 288.66270942943584, 18.398666666666667 288.21004276276915, 18.38 287.73537609610247 C 18.374666666666666 287.5407094294358, 18.276 287.41404276276916, 18.084 287.3553760961025 L 18.084 286.4673760961025 C 18.513333333333335 286.50737609610246, 18.846666666666668 286.65270942943584, 19.084 286.9033760961025 C 19.321333333333335 287.15404276276917, 19.445333333333334 287.4993760961025, 19.456 287.9393760961025 C 19.46666666666667 288.2540427627692, 19.474666666666668 288.5640427627692, 19.48 288.8693760961025 C 19.485333333333333 289.17470942943584, 19.488 289.4753760961025, 19.488 289.7713760961025 C 19.488 290.06737609610246, 19.485333333333333 290.3607094294358, 19.48 290.6513760961025 C 19.474666666666668 290.9420427627692, 19.46666666666667 291.2313760961025, 19.456 291.5193760961025 C 19.439999999999998 291.9700427627692, 19.311999999999998 292.31870942943584, 19.072 292.5653760961025 C 18.832 292.8120427627692, 18.502666666666666 292.9553760961025, 18.084 292.9953760961025 Z M 21.944 292.9313760961025 L 21.944 286.5313760961025 L 23.003999999999998 286.5313760961025 L 23.003999999999998 292.9313760961025 Z " stroke="none" fill-rule="nonzero" fill="#000000" fill-opacity="1" transform="matrix(1,0,0,1,5.05,13.314)" id="text10 l" />
  <path d="M 0 284.1569968928991 L 10 284.1569968928991 L 10 285.6569968928991 L 0 285.6569968928991 Z " stroke="none" fill-rule="evenodd" fill="#000000" fill-opacity="1" transform="matrix(1,0,0,1,5.05,13.314)" id="mark11 l" />
  <path d="M 0 274.33261768969567 L 10 274.33261768969567 L 10 275.83261768969567 L 0 275.83261768969567 Z " stroke="none" fill-rule="evenodd" fill="#000000" fill-opacity="1" transform="matrix(1,0,0,1,5.05,13.314)" id="mark12 l" />
  <path d="M 0 264.50823848649225 L 10 264.50823848649225 L 10 266.00823848649225 L 0 266.00823848649225 Z " stroke="none" fill-rule="evenodd" fill="#000000" fill-opacity="1" transform="matrix(1,0,0,1,5.05,13.314)" id="mark13 l" />
  <path d="M 0 254.68385928328883 L 10 254.68385928328883 L 10 256.1838592832888 L 0 256.1838592832888 Z " stroke="none" fill-rule="evenodd" fill="#000000" fill-opacity="1" transform="matrix(1,0,0,1,5.05,13.314)" id="mark14 l" />
  <path d="M 0 244.8594800800854 L 25 244.8594800800854 L 25 246.3594800800854 L 0 246.3594800800854 Z " stroke="none" fill-rule="evenodd" fill="#000000" fill-opacity="1" transform="matrix(1,0,0,1,5.05,13.314)" id="mark15 l" />
  <path d="M 14.331999999999999 243.7774800800854 L 14.331999999999999 238.33348008008542 L 13.879999999999999 238.33348008008542 L 13.847999999999999 237.9534800800854 L 14.552 237.3774800800854 L 15.432 237.3774800800854 L 15.432 243.7774800800854 Z M 16.18 242.3614800800854 C 16.174666666666667 242.18814674675207, 16.173333333333332 242.04881341341877, 16.176 241.9434800800854 C 16.178666666666665 241.8381467467521, 16.181333333333335 241.73614674675207, 16.183999999999997 241.63748008008542 L 17.264 241.63748008008542 C 17.256 241.71481341341877, 17.25 241.81081341341877, 17.246 241.9254800800854 C 17.241999999999997 242.0401467467521, 17.240666666666666 242.15081341341875, 17.241999999999997 242.2574800800854 C 17.243333333333332 242.36414674675206, 17.246666666666666 242.44414674675204, 17.252 242.4974800800854 C 17.262666666666668 242.6174800800854, 17.297333333333334 242.7154800800854, 17.355999999999998 242.79148008008542 C 17.414666666666665 242.8674800800854, 17.497333333333334 242.9214800800854, 17.604 242.9534800800854 L 17.604 243.84548008008542 C 17.110666666666663 243.80814674675207, 16.75333333333333 243.6734800800854, 16.532 243.4414800800854 C 16.310666666666666 243.2094800800854, 16.19333333333333 242.8494800800854, 16.18 242.3614800800854 Z M 16.279999999999998 241.0254800800854 L 16.279999999999998 237.3774800800854 L 17.348 237.3774800800854 L 17.348 241.0254800800854 Z M 17.852 240.60148008008542 L 17.852 239.84548008008542 C 17.929333333333332 239.80548008008543, 18.014666666666667 239.7734800800854, 18.107999999999997 239.74948008008542 C 18.20133333333333 239.7254800800854, 18.301333333333332 239.7134800800854, 18.407999999999998 239.71348008008542 C 18.773333333333333 239.7134800800854, 19.047333333333334 239.82881341341874, 19.23 240.05948008008542 C 19.412666666666667 240.29014674675207, 19.514666666666663 240.60414674675206, 19.535999999999998 241.0014800800854 C 19.546666666666667 241.1614800800854, 19.55333333333333 241.32014674675207, 19.555999999999997 241.4774800800854 C 19.558666666666664 241.63481341341873, 19.557333333333332 241.7881467467521, 19.552 241.9374800800854 C 19.546666666666667 242.08681341341872, 19.538666666666668 242.22681341341877, 19.528 242.35748008008542 C 19.482666666666667 242.85614674675207, 19.353333333333335 243.22148008008543, 19.14 243.4534800800854 C 18.926666666666666 243.68548008008543, 18.581333333333333 243.81614674675208, 18.104 243.84548008008542 L 18.104 242.9534800800854 C 18.21333333333333 242.9241467467521, 18.296 242.8714800800854, 18.352 242.7954800800854 C 18.408 242.71948008008542, 18.44 242.62014674675208, 18.448 242.4974800800854 C 18.471999999999998 242.20681341341873, 18.485999999999997 241.94548008008542, 18.49 241.71348008008542 C 18.494 241.48148008008542, 18.485333333333333 241.26014674675207, 18.464 241.0494800800854 C 18.447999999999997 240.89481341341872, 18.396666666666665 240.7794800800854, 18.31 240.7034800800854 C 18.223333333333333 240.6274800800854, 18.090666666666664 240.58948008008542, 17.912 240.58948008008542 C 17.901333333333334 240.58948008008542, 17.890666666666668 240.59081341341874, 17.88 240.5934800800854 C 17.86933333333333 240.59614674675208, 17.86 240.59881341341875, 17.852 240.60148008008542 Z M 17.852 238.30948008008542 L 17.852 237.3774800800854 L 19.439999999999998 237.3774800800854 L 19.439999999999998 238.30948008008542 Z M 21.944 243.7774800800854 L 21.944 237.3774800800854 L 23.003999999999998 237.3774800800854 L 23.003999999999998 243.7774800800854 Z " stroke="none" fill-rule="nonzero" fill="#000000" fill-opacity="1" transform="matrix(1,0,0,1,5.05,13.314)" id="text15 l" />
  <path d="M 0 235.03510087688198 L 10 235.03510087688198 L 10 236.53510087688198 L 0 236.53510087688198 Z " stroke="none" fill-rule="evenodd" fill="#000000" fill-opacity="1" transform="matrix(1,0,0,1,5.05,13.314)" id="mark16 l" />
  <path d="M 0 225.21072167367856 L 10 225.21072167367856 L 10 226.71072167367856 L 0 226.71072167367856 Z " stroke="none" fill-rule="evenodd" fill="#000000" fill-opacity="1" transform="matrix(1,0,0,1,5.05,13.314)" id="mark17 l" />
  <path d="M 0 215.38634247047517 L 10 215.38634247047517 L 10 216.88634247047517 L 0 216.88634247047517 Z " stroke="none" fill-rule="evenodd" fill="#000000" fill-opacity="1" transform="matrix(1,0,0,1,5.05,13.314)" id="mark18 l" />
  <path d="M 0 205.56196326727175 L 10 205.56196326727175 L 10 207.06196326727175 L 0 207.06196326727175 Z " stroke="none" fill-rule="evenodd" fill="#000000" fill-opacity="1" transform="matrix(1,0,0,1,5.05,13.314)" id="mark19 l" />
  <path d="M 0 195.73758406406833 L 25 195.73758406406833 L 25 197.23758406406833 L 0 197.23758406406833 Z " stroke="none" fill-rule="evenodd" fill="#000000" fill-opacity="1" transform="matrix(1,0,0,1,5.05,13.314)" id="mark20 l" />
  <path d="M 12.319999999999999 194.68758406406835 C 12.317333333333334 194.5889173974017, 12.315333333333331 194.50025073073505, 12.313999999999998 194.42158406406836 C 12.312666666666665 194.34291739740172, 12.311333333333334 194.2689173974017, 12.309999999999999 194.19958406406835 C 12.308666666666667 194.13025073073499, 12.308 194.05825073073498, 12.308 193.98358406406834 C 12.308 193.9089173974017, 12.308 193.824250730735, 12.308 193.72958406406835 C 12.308 193.6349173974017, 12.309333333333335 193.52358406406836, 12.312 193.39558406406834 C 12.32 193.10225073073502, 12.37 192.84025073073502, 12.462 192.60958406406834 C 12.554 192.37891739740166, 12.687999999999999 192.17291739740168, 12.863999999999999 191.99158406406835 C 13.04 191.81025073073502, 13.257333333333333 191.64891739740168, 13.515999999999998 191.50758406406834 L 14.047999999999998 191.21958406406836 C 14.234666666666666 191.118250730735, 14.354 190.996250730735, 14.405999999999999 190.85358406406834 C 14.457999999999998 190.7109173974017, 14.488 190.5769173974017, 14.495999999999999 190.45158406406836 C 14.506666666666664 190.3049173974017, 14.512666666666664 190.14825073073501, 14.514 189.98158406406836 C 14.51533333333333 189.8149173974017, 14.511999999999997 189.658250730735, 14.504 189.51158406406836 C 14.498666666666665 189.40758406406837, 14.468666666666666 189.32158406406836, 14.413999999999998 189.25358406406835 C 14.359333333333332 189.18558406406834, 14.279999999999998 189.13691739740167, 14.175999999999998 189.10758406406833 L 14.175999999999998 188.21958406406836 C 14.663999999999998 188.25158406406837, 15.014 188.38291739740168, 15.225999999999999 188.61358406406833 C 15.437999999999999 188.844250730735, 15.554666666666666 189.2049173974017, 15.575999999999999 189.69558406406836 C 15.578666666666663 189.75958406406835, 15.580666666666666 189.8249173974017, 15.581999999999999 189.89158406406835 C 15.583333333333332 189.95825073073502, 15.584 190.02291739740167, 15.584 190.08558406406834 C 15.584 190.14825073073501, 15.583333333333332 190.21025073073503, 15.581999999999999 190.27158406406835 C 15.580666666666666 190.33291739740167, 15.578666666666663 190.39291739740167, 15.575999999999999 190.45158406406836 C 15.565333333333331 190.73691739740167, 15.512 190.98358406406834, 15.415999999999999 191.19158406406834 C 15.32 191.39958406406834, 15.19 191.57958406406834, 15.026 191.73158406406836 C 14.862 191.88358406406834, 14.672 192.01958406406834, 14.456 192.13958406406834 L 13.851999999999999 192.46758406406835 C 13.737333333333332 192.5289173974017, 13.647333333333332 192.6129173974017, 13.581999999999999 192.71958406406836 C 13.516666666666666 192.826250730735, 13.469999999999999 192.93958406406836, 13.441999999999998 193.05958406406836 C 13.413999999999998 193.17958406406837, 13.399999999999999 193.29158406406833, 13.399999999999999 193.39558406406834 L 13.399999999999999 194.68758406406835 Z M 12.328 190.64758406406835 C 12.322666666666667 190.53025073073502, 12.318666666666665 190.41558406406833, 12.315999999999999 190.30358406406833 C 12.313333333333333 190.19158406406834, 12.311333333333334 190.08558406406834, 12.309999999999999 189.98558406406835 C 12.308666666666667 189.88558406406835, 12.309333333333335 189.7889173974017, 12.312 189.69558406406836 C 12.330666666666666 189.20758406406836, 12.447333333333333 188.848250730735, 12.661999999999999 188.61758406406835 C 12.876666666666665 188.3869173974017, 13.213333333333331 188.254250730735, 13.671999999999999 188.21958406406836 L 13.671999999999999 189.11158406406835 C 13.576 189.14091739740167, 13.505333333333333 189.18758406406835, 13.459999999999999 189.25158406406834 C 13.414666666666665 189.31558406406833, 13.390666666666664 189.39291739740167, 13.387999999999998 189.48358406406834 C 13.382666666666665 189.69158406406834, 13.379333333333333 189.8849173974017, 13.378 190.06358406406835 C 13.376666666666667 190.242250730735, 13.381333333333334 190.4369173974017, 13.392 190.64758406406835 Z M 13.904 194.68758406406835 L 13.904 193.75558406406836 L 15.5 193.75558406406836 L 15.5 194.68758406406835 Z M 16.196 193.27558406406834 C 16.188000000000002 192.846250730735, 16.182666666666666 192.42958406406834, 16.18 192.02558406406834 C 16.177333333333333 191.62158406406834, 16.177999999999997 191.22625073073502, 16.182 190.83958406406833 C 16.186 190.45291739740168, 16.190666666666665 190.07158406406836, 16.196 189.69558406406836 C 16.209333333333333 189.25558406406836, 16.334000000000003 188.91025073073502, 16.57 188.65958406406835 C 16.805999999999997 188.4089173974017, 17.142666666666663 188.26358406406834, 17.58 188.22358406406835 L 17.58 189.11158406406835 C 17.382666666666665 189.16758406406836, 17.281333333333333 189.2969173974017, 17.276 189.49958406406836 C 17.262666666666668 189.87025073073502, 17.253333333333334 190.218250730735, 17.248 190.54358406406834 C 17.242666666666665 190.86891739740167, 17.24 191.18558406406834, 17.24 191.49358406406836 C 17.24 191.80158406406835, 17.242666666666665 192.116250730735, 17.248 192.43758406406835 C 17.253333333333334 192.75891739740166, 17.262666666666668 193.10225073073502, 17.276 193.46758406406835 C 17.281333333333333 193.67558406406835, 17.382666666666665 193.80758406406835, 17.58 193.86358406406833 L 17.58 194.75158406406834 C 17.142666666666663 194.71158406406835, 16.805999999999997 194.56558406406833, 16.57 194.31358406406835 C 16.334000000000003 194.06158406406837, 16.209333333333333 193.71558406406837, 16.196 193.27558406406834 Z M 18.084 194.75158406406834 L 18.084 193.85958406406834 C 18.268 193.80625073073503, 18.366666666666667 193.68225073073503, 18.38 193.48758406406836 C 18.398666666666667 193.0209173974017, 18.410666666666668 192.57225073073502, 18.416 192.14158406406835 C 18.421333333333333 191.71091739740166, 18.421333333333333 191.28025073073502, 18.416 190.84958406406835 C 18.410666666666668 190.41891739740169, 18.398666666666667 189.966250730735, 18.38 189.49158406406835 C 18.374666666666666 189.29691739740167, 18.276 189.170250730735, 18.084 189.11158406406835 L 18.084 188.22358406406835 C 18.513333333333335 188.26358406406834, 18.846666666666668 188.4089173974017, 19.084 188.65958406406835 C 19.321333333333335 188.91025073073502, 19.445333333333334 189.25558406406836, 19.456 189.69558406406836 C 19.46666666666667 190.010250730735, 19.474666666666668 190.32025073073498, 19.48 190.62558406406833 C 19.485333333333333 190.93091739740169, 19.488 191.23158406406833, 19.488 191.52758406406835 C 19.488 191.82358406406834, 19.485333333333333 192.11691739740166, 19.48 192.40758406406835 C 19.474666666666668 192.69825073073503, 19.46666666666667 192.98758406406836, 19.456 193.27558406406834 C 19.439999999999998 193.72625073073505, 19.311999999999998 194.0749173974017, 19.072 194.32158406406833 C 18.832 194.568250730735, 18.502666666666666 194.71158406406835, 18.084 194.75158406406834 Z M 21.944 194.68758406406835 L 21.944 188.28758406406834 L 23.003999999999998 188.28758406406834 L 23.003999999999998 194.68758406406835 Z " stroke="none" fill-rule="nonzero" fill="#000000" fill-opacity="1" transform="matrix(1,0,0,1,5.05,13.314)" id="text20 l" />
  <path d="M 0 185.9132048608649 L 10 185.9132048608649 L 10 187.4132048608649 L 0 187.4132048608649 Z " stroke="none" fill-rule="evenodd" fill="#000000" fill-opacity="1" transform="matrix(1,0,0,1,5.05,13.314)" id="mark21 l" />
  <path d="M 0 176.0888256576615 L 10 176.0888256576615 L 10 177.5888256576615 L 0 177.5888256576615 Z " stroke="none" fill-rule="evenodd" fill="#000000" fill-opacity="1" transform="matrix(1,0,0,1,5.05,13.314)" id="mark22 l" />
  <path d="M 0 166.26444645445807 L 10 166.26444645445807 L 10 167.76444645445807 L 0 167.76444645445807 Z " stroke="none" fill-rule="evenodd" fill="#000000" fill-opacity="1" transform="matrix(1,0,0,1,5.05,13.314)" id="mark23 l" />
  <path d="M 0 156.44006725125465 L 10 156.44006725125465 L 10 157.94006725125465 L 0 157.94006725125465 Z " stroke="none" fill-rule="evenodd" fill="#000000" fill-opacity="1" transform="matrix(1,0,0,1,5.05,13.314)" id="mark24 l" />
  <path d="M 0 146.61568804805125 L 25 146.61568804805125 L 25 148.11568804805125 L 0 148.11568804805125 Z " stroke="none" fill-rule="evenodd" fill="#000000" fill-opacity="1" transform="matrix(1,0,0,1,5.05,13.314)" id="mark25 l" />
  <path d="M 12.328 145.56568804805127 C 12.325333333333333 145.4670213813846, 12.323333333333332 145.37835471471794, 12.322 145.29968804805128 C 12.320666666666666 145.22102138138462, 12.319333333333333 145.1470213813846, 12.318 145.07768804805127 C 12.316666666666666 145.00835471471794, 12.315999999999999 144.93635471471794, 12.316 144.86168804805126 C 12.315999999999999 144.7870213813846, 12.315999999999999 144.70235471471793, 12.316 144.60768804805127 C 12.315999999999999 144.51302138138462, 12.317333333333334 144.40168804805128, 12.32 144.27368804805127 C 12.328 143.98035471471795, 12.378 143.71835471471795, 12.47 143.48768804805127 C 12.562000000000001 143.2570213813846, 12.696 143.0510213813846, 12.872 142.86968804805127 C 13.048 142.68835471471795, 13.265333333333334 142.5270213813846, 13.524000000000001 142.38568804805126 L 14.056000000000001 142.09768804805128 C 14.242666666666668 141.99635471471794, 14.362000000000002 141.87435471471792, 14.414 141.73168804805127 C 14.466000000000001 141.5890213813846, 14.495999999999999 141.4550213813846, 14.504 141.32968804805128 C 14.514666666666667 141.1830213813846, 14.520666666666667 141.02635471471794, 14.522 140.85968804805128 C 14.523333333333333 140.69302138138463, 14.520000000000001 140.53635471471796, 14.512 140.38968804805128 C 14.506666666666666 140.28568804805127, 14.476666666666667 140.19968804805126, 14.422 140.13168804805127 C 14.367333333333335 140.0636880480513, 14.288 140.0150213813846, 14.184000000000001 139.98568804805126 L 14.184000000000001 139.09768804805128 C 14.672 139.1296880480513, 15.022000000000002 139.2610213813846, 15.234 139.49168804805126 C 15.446000000000002 139.72235471471794, 15.562666666666667 140.08302138138458, 15.584 140.57368804805128 C 15.586666666666668 140.6376880480513, 15.588666666666668 140.70302138138462, 15.59 140.76968804805128 C 15.591333333333335 140.83635471471794, 15.592000000000002 140.90102138138462, 15.592 140.96368804805127 C 15.592000000000002 141.0263547147179, 15.591333333333335 141.08835471471792, 15.59 141.14968804805127 C 15.588666666666668 141.2110213813846, 15.586666666666668 141.2710213813846, 15.584 141.32968804805128 C 15.573333333333332 141.61502138138462, 15.52 141.86168804805126, 15.424 142.06968804805126 C 15.328 142.27768804805126, 15.197999999999999 142.45768804805127, 15.033999999999999 142.60968804805128 C 14.87 142.76168804805127, 14.68 142.89768804805126, 14.464 143.01768804805127 L 13.86 143.34568804805127 C 13.745333333333335 143.4070213813846, 13.655333333333335 143.4910213813846, 13.59 143.59768804805128 C 13.524666666666668 143.70435471471794, 13.478000000000002 143.81768804805125, 13.45 143.93768804805126 C 13.422 144.05768804805126, 13.408 144.16968804805126, 13.408 144.27368804805127 L 13.408 145.56568804805127 Z M 12.336 141.52568804805128 C 12.330666666666666 141.40835471471794, 12.326666666666664 141.29368804805128, 12.324 141.18168804805129 C 12.321333333333332 141.0696880480513, 12.319333333333333 140.96368804805127, 12.318 140.86368804805127 C 12.316666666666666 140.76368804805128, 12.317333333333334 140.6670213813846, 12.32 140.57368804805128 C 12.338666666666668 140.08568804805128, 12.455333333333336 139.72635471471796, 12.67 139.49568804805128 C 12.884666666666668 139.2650213813846, 13.221333333333334 139.13235471471793, 13.68 139.09768804805128 L 13.68 139.98968804805128 C 13.584 140.0190213813846, 13.513333333333332 140.06568804805127, 13.468 140.12968804805126 C 13.422666666666668 140.19368804805126, 13.398666666666667 140.2710213813846, 13.396 140.36168804805126 C 13.390666666666666 140.56968804805126, 13.387333333333332 140.76302138138462, 13.386 140.94168804805128 C 13.384666666666666 141.12035471471793, 13.389333333333333 141.3150213813846, 13.4 141.52568804805128 Z M 13.911999999999999 145.56568804805127 L 13.911999999999999 144.63368804805128 L 15.508 144.63368804805128 L 15.508 145.56568804805127 Z M 16.18 144.14968804805127 C 16.174666666666667 143.97635471471796, 16.173333333333332 143.8370213813846, 16.176 143.73168804805127 C 16.178666666666665 143.62635471471793, 16.181333333333335 143.52435471471796, 16.183999999999997 143.42568804805128 L 17.264 143.42568804805128 C 17.256 143.5030213813846, 17.25 143.5990213813846, 17.246 143.71368804805127 C 17.241999999999997 143.82835471471793, 17.240666666666666 143.93902138138458, 17.241999999999997 144.04568804805126 C 17.243333333333332 144.15235471471794, 17.246666666666666 144.23235471471793, 17.252 144.28568804805127 C 17.262666666666668 144.40568804805127, 17.297333333333334 144.5036880480513, 17.355999999999998 144.57968804805128 C 17.414666666666665 144.65568804805127, 17.497333333333334 144.70968804805125, 17.604 144.74168804805126 L 17.604 145.63368804805128 C 17.110666666666663 145.59635471471796, 16.75333333333333 145.46168804805126, 16.532 145.22968804805126 C 16.310666666666666 144.99768804805126, 16.19333333333333 144.63768804805127, 16.18 144.14968804805127 Z M 16.279999999999998 142.81368804805126 L 16.279999999999998 139.16568804805127 L 17.348 139.16568804805127 L 17.348 142.81368804805126 Z M 17.852 142.38968804805128 L 17.852 141.63368804805128 C 17.929333333333332 141.5936880480513, 18.014666666666667 141.56168804805128, 18.107999999999997 141.53768804805128 C 18.20133333333333 141.51368804805128, 18.301333333333332 141.50168804805128, 18.407999999999998 141.50168804805128 C 18.773333333333333 141.50168804805128, 19.047333333333334 141.61702138138463, 19.23 141.84768804805128 C 19.412666666666667 142.07835471471793, 19.514666666666663 142.39235471471795, 19.535999999999998 142.78968804805126 C 19.546666666666667 142.94968804805126, 19.55333333333333 143.10835471471793, 19.555999999999997 143.26568804805126 C 19.558666666666664 143.42302138138461, 19.557333333333332 143.57635471471795, 19.552 143.72568804805127 C 19.546666666666667 143.87502138138458, 19.538666666666668 144.0150213813846, 19.528 144.14568804805128 C 19.482666666666667 144.64435471471793, 19.353333333333335 145.00968804805126, 19.14 145.24168804805126 C 18.926666666666666 145.47368804805126, 18.581333333333333 145.60435471471794, 18.104 145.63368804805128 L 18.104 144.74168804805126 C 18.21333333333333 144.71235471471795, 18.296 144.65968804805127, 18.352 144.58368804805127 C 18.408 144.50768804805128, 18.44 144.40835471471794, 18.448 144.28568804805127 C 18.471999999999998 143.9950213813846, 18.485999999999997 143.73368804805125, 18.49 143.50168804805128 C 18.494 143.26968804805125, 18.485333333333333 143.04835471471793, 18.464 142.83768804805126 C 18.447999999999997 142.6830213813846, 18.396666666666665 142.56768804805125, 18.31 142.49168804805126 C 18.223333333333333 142.41568804805127, 18.090666666666664 142.37768804805128, 17.912 142.37768804805128 C 17.901333333333334 142.37768804805128, 17.890666666666668 142.37902138138463, 17.88 142.38168804805127 C 17.86933333333333 142.38435471471792, 17.86 142.3870213813846, 17.852 142.38968804805128 Z M 17.852 140.09768804805128 L 17.852 139.16568804805127 L 19.439999999999998 139.16568804805127 L 19.439999999999998 140.09768804805128 Z M 21.944 145.56568804805127 L 21.944 139.16568804805127 L 23.003999999999998 139.16568804805127 L 23.003999999999998 145.56568804805127 Z " stroke="none" fill-rule="nonzero" fill="#000000" fill-opacity="1" transform="matrix(1,0,0,1,5.05,13.314)" id="text25 l" />
  <path d="M 0 136.79130884484783 L 10 136.79130884484783 L 10 138.29130884484783 L 0 138.29130884484783 Z " stroke="none" fill-rule="evenodd" fill="#000000" fill-opacity="1" transform="matrix(1,0,0,1,5.05,13.314)" id="mark26 l" />
  <path d="M 0 126.96692964164441 L 10 126.96692964164441 L 10 128.4669296416444 L 0 128.4669296416444 Z " stroke="none" fill-rule="evenodd" fill="#000000" fill-opacity="1" transform="matrix(1,0,0,1,5.05,13.314)" id="mark27 l" />
  <path d="M 0 117.14255043844099 L 10 117.14255043844099 L 10 118.64255043844099 L 0 118.64255043844099 Z " stroke="none" fill-rule="evenodd" fill="#000000" fill-opacity="1" transform="matrix(1,0,0,1,5.05,13.314)" id="mark28 l" />
  <path d="M 0 107.31817123523757 L 10 107.31817123523757 L 10 108.81817123523757 L 0 108.81817123523757 Z " stroke="none" fill-rule="evenodd" fill="#000000" fill-opacity="1" transform="matrix(1,0,0,1,5.05,13.314)" id="mark29 l" />
  <path d="M 0 97.49379203203415 L 25 97.49379203203415 L 25 98.99379203203415 L 0 98.99379203203415 Z " stroke="none" fill-rule="evenodd" fill="#000000" fill-opacity="1" transform="matrix(1,0,0,1,5.05,13.314)" id="mark30 l" />
  <path d="M 12.223999999999998 95.02779203203416 C 12.221333333333334 94.92645869870083, 12.219333333333333 94.84245869870082, 12.218 94.77579203203415 C 12.216666666666667 94.70912536536748, 12.216666666666667 94.64112536536749, 12.218 94.57179203203415 C 12.219333333333333 94.50245869870082, 12.221333333333334 94.41312536536749, 12.223999999999998 94.30379203203415 L 13.303999999999998 94.30379203203415 L 13.303999999999998 95.16779203203416 C 13.303999999999998 95.40512536536748, 13.417333333333332 95.55579203203415, 13.643999999999998 95.61979203203416 L 13.643999999999998 96.51179203203415 C 13.155999999999999 96.47445869870081, 12.800666666666665 96.33979203203415, 12.578 96.10779203203415 C 12.355333333333334 95.87579203203416, 12.237333333333332 95.51579203203416, 12.223999999999998 95.02779203203416 Z M 12.292 90.97579203203415 L 12.292 90.04379203203415 L 15.536 90.04379203203415 L 15.536 90.97579203203415 Z M 14.143999999999998 95.62379203203416 C 14.367999999999999 95.56779203203416, 14.483999999999998 95.41712536536748, 14.491999999999999 95.17179203203415 C 14.497333333333334 94.96912536536749, 14.500666666666666 94.78645869870083, 14.501999999999999 94.62379203203416 C 14.503333333333332 94.46112536536748, 14.498666666666665 94.30379203203415, 14.488 94.15179203203415 C 14.48 93.99445869870081, 14.431999999999999 93.86112536536749, 14.344 93.75179203203416 C 14.256 93.64245869870082, 14.089333333333332 93.59045869870083, 13.844 93.59579203203415 L 13.096 93.60379203203415 L 13.068 92.71179203203415 L 14.027999999999999 91.32779203203415 L 15.216 91.32779203203415 L 14.248 92.67979203203416 L 14.28 92.67979203203416 C 14.712 92.67979203203416, 15.028666666666666 92.80245869870082, 15.229999999999999 93.04779203203415 C 15.431333333333333 93.29312536536749, 15.544 93.67045869870083, 15.568 94.17979203203416 C 15.57333333333333 94.25179203203416, 15.576666666666664 94.32379203203415, 15.578 94.39579203203415 C 15.57933333333333 94.46779203203415, 15.579999999999998 94.53845869870082, 15.579999999999998 94.60779203203415 C 15.579999999999998 94.67712536536749, 15.57933333333333 94.74645869870082, 15.578 94.81579203203415 C 15.576666666666664 94.88512536536749, 15.57333333333333 94.95579203203415, 15.568 95.02779203203416 C 15.549333333333333 95.52379203203415, 15.428666666666665 95.88845869870082, 15.206 96.12179203203415 C 14.983333333333334 96.35512536536748, 14.630666666666666 96.4851253653675, 14.148 96.51179203203415 Z M 16.196 95.03179203203415 C 16.188000000000002 94.60245869870081, 16.182666666666666 94.18579203203416, 16.18 93.78179203203415 C 16.177333333333333 93.37779203203415, 16.177999999999997 92.98245869870082, 16.182 92.59579203203415 C 16.186 92.20912536536748, 16.190666666666665 91.82779203203415, 16.196 91.45179203203415 C 16.209333333333333 91.01179203203415, 16.334000000000003 90.66645869870082, 16.57 90.41579203203415 C 16.805999999999997 90.16512536536749, 17.142666666666663 90.01979203203416, 17.58 89.97979203203415 L 17.58 90.86779203203416 C 17.382666666666665 90.92379203203416, 17.281333333333333 91.05312536536748, 17.276 91.25579203203415 C 17.262666666666668 91.62645869870082, 17.253333333333334 91.97445869870081, 17.248 92.29979203203415 C 17.242666666666665 92.62512536536748, 17.24 92.94179203203416, 17.24 93.24979203203415 C 17.24 93.55779203203414, 17.242666666666665 93.87245869870083, 17.248 94.19379203203415 C 17.253333333333334 94.51512536536748, 17.262666666666668 94.85845869870082, 17.276 95.22379203203415 C 17.281333333333333 95.43179203203415, 17.382666666666665 95.56379203203416, 17.58 95.61979203203416 L 17.58 96.50779203203415 C 17.142666666666663 96.46779203203415, 16.805999999999997 96.32179203203415, 16.57 96.06979203203416 C 16.334000000000003 95.81779203203416, 16.209333333333333 95.47179203203416, 16.196 95.03179203203415 Z M 18.084 96.50779203203415 L 18.084 95.61579203203415 C 18.268 95.56245869870082, 18.366666666666667 95.43845869870081, 18.38 95.24379203203415 C 18.398666666666667 94.77712536536748, 18.410666666666668 94.32845869870081, 18.416 93.89779203203415 C 18.421333333333333 93.4671253653675, 18.421333333333333 93.03645869870083, 18.416 92.60579203203416 C 18.410666666666668 92.17512536536749, 18.398666666666667 91.72245869870082, 18.38 91.24779203203416 C 18.374666666666666 91.05312536536749, 18.276 90.92645869870083, 18.084 90.86779203203416 L 18.084 89.97979203203415 C 18.513333333333335 90.01979203203416, 18.846666666666668 90.16512536536749, 19.084 90.41579203203415 C 19.321333333333335 90.66645869870082, 19.445333333333334 91.01179203203415, 19.456 91.45179203203415 C 19.46666666666667 91.76645869870083, 19.474666666666668 92.07645869870083, 19.48 92.38179203203416 C 19.485333333333333 92.68712536536748, 19.488 92.98779203203415, 19.488 93.28379203203416 C 19.488 93.57979203203416, 19.485333333333333 93.87312536536749, 19.48 94.16379203203415 C 19.474666666666668 94.45445869870082, 19.46666666666667 94.74379203203415, 19.456 95.03179203203415 C 19.439999999999998 95.48245869870081, 19.311999999999998 95.83112536536748, 19.072 96.07779203203415 C 18.832 96.32445869870082, 18.502666666666666 96.46779203203415, 18.084 96.50779203203415 Z M 21.944 96.44379203203415 L 21.944 90.04379203203415 L 23.003999999999998 90.04379203203415 L 23.003999999999998 96.44379203203415 Z " stroke="none" fill-rule="nonzero" fill="#000000" fill-opacity="1" transform="matrix(1,0,0,1,5.05,13.314)" id="text30 l" />
  <path d="M 0 87.66941282883073 L 10 87.66941282883073 L 10 89.16941282883073 L 0 89.16941282883073 Z " stroke="none" fill-rule="evenodd" fill="#000000" fill-opacity="1" transform="matrix(1,0,0,1,5.05,13.314)" id="mark31 l" />
  <path d="M 0 77.84503362562731 L 10 77.84503362562731 L 10 79.34503362562731 L 0 79.34503362562731 Z " stroke="none" fill-rule="evenodd" fill="#000000" fill-opacity="1" transform="matrix(1,0,0,1,5.05,13.314)" id="mark32 l" />
  <path d="M 0 68.02065442242389 L 10 68.02065442242389 L 10 69.52065442242389 L 0 69.52065442242389 Z " stroke="none" fill-rule="evenodd" fill="#000000" fill-opacity="1" transform="matrix(1,0,0,1,5.05,13.314)" id="mark33 l" />
  <path d="M 0 58.19627521922047 L 10 58.19627521922047 L 10 59.69627521922047 L 0 59.69627521922047 Z " stroke="none" fill-rule="evenodd" fill="#000000" fill-opacity="1" transform="matrix(1,0,0,1,5.05,13.314)" id="mark34 l" />
  <path d="M 0 48.37189601601705 L 25 48.37189601601705 L 25 49.87189601601705 L 0 49.87189601601705 Z " stroke="none" fill-rule="evenodd" fill="#000000" fill-opacity="1" transform="matrix(1,0,0,1,5.05,13.314)" id="mark35 l" />
  <path d="M 12.232 45.87389601601705 C 12.229333333333333 45.77256268268371, 12.227333333333334 45.68856268268372, 12.226 45.62189601601705 C 12.224666666666668 45.55522934935038, 12.224666666666668 45.48722934935038, 12.226 45.417896016017046 C 12.227333333333334 45.34856268268371, 12.229333333333333 45.25922934935038, 12.232 45.149896016017045 L 13.312 45.149896016017045 L 13.312 46.01389601601704 C 13.312 46.25122934935038, 13.425333333333333 46.40189601601705, 13.652 46.46589601601705 L 13.652 47.357896016017044 C 13.164 47.320562682683715, 12.808666666666667 47.18589601601705, 12.586 46.95389601601705 C 12.363333333333333 46.72189601601705, 12.245333333333335 46.36189601601705, 12.232 45.87389601601705 Z M 12.3 41.82189601601705 L 12.3 40.88989601601705 L 15.544 40.88989601601705 L 15.544 41.82189601601705 Z M 14.152000000000001 46.469896016017046 C 14.376000000000001 46.41389601601705, 14.492 46.26322934935038, 14.5 46.01789601601705 C 14.505333333333333 45.815229349350375, 14.508666666666667 45.63256268268371, 14.51 45.469896016017046 C 14.511333333333333 45.30722934935038, 14.506666666666668 45.149896016017045, 14.496 44.997896016017044 C 14.488 44.84056268268371, 14.440000000000001 44.70722934935038, 14.352 44.597896016017046 C 14.264 44.488562682683714, 14.097333333333335 44.436562682683714, 13.852 44.44189601601705 L 13.104 44.44989601601705 L 13.076 43.55789601601705 L 14.036 42.173896016017046 L 15.224 42.173896016017046 L 14.256 43.52589601601704 L 14.288 43.52589601601704 C 14.719999999999999 43.52589601601704, 15.036666666666665 43.64856268268371, 15.238 43.893896016017045 C 15.439333333333334 44.13922934935038, 15.552 44.51656268268371, 15.576 45.02589601601704 C 15.581333333333333 45.097896016017046, 15.584666666666667 45.16989601601705, 15.586 45.241896016017044 C 15.587333333333333 45.31389601601705, 15.588000000000001 45.384562682683715, 15.588000000000001 45.45389601601705 C 15.588000000000001 45.52322934935038, 15.587333333333333 45.59256268268371, 15.586 45.661896016017046 C 15.584666666666667 45.73122934935038, 15.581333333333333 45.80189601601705, 15.576 45.87389601601705 C 15.557333333333334 46.36989601601705, 15.436666666666667 46.734562682683716, 15.214 46.96789601601704 C 14.991333333333333 47.20122934935038, 14.638666666666666 47.33122934935038, 14.156 47.357896016017044 Z M 16.18 45.87389601601705 C 16.174666666666667 45.70056268268371, 16.173333333333332 45.56122934935038, 16.176 45.45589601601704 C 16.178666666666665 45.350562682683716, 16.181333333333335 45.24856268268371, 16.183999999999997 45.149896016017045 L 17.264 45.149896016017045 C 17.256 45.22722934935038, 17.25 45.32322934935038, 17.246 45.43789601601705 C 17.241999999999997 45.552562682683714, 17.240666666666666 45.663229349350374, 17.241999999999997 45.76989601601704 C 17.243333333333332 45.87656268268371, 17.246666666666666 45.95656268268371, 17.252 46.009896016017045 C 17.262666666666668 46.12989601601704, 17.297333333333334 46.22789601601705, 17.355999999999998 46.30389601601705 C 17.414666666666665 46.37989601601705, 17.497333333333334 46.433896016017044, 17.604 46.46589601601705 L 17.604 47.357896016017044 C 17.110666666666663 47.320562682683715, 16.75333333333333 47.18589601601705, 16.532 46.95389601601705 C 16.310666666666666 46.72189601601705, 16.19333333333333 46.36189601601705, 16.18 45.87389601601705 Z M 16.279999999999998 44.537896016017044 L 16.279999999999998 40.88989601601705 L 17.348 40.88989601601705 L 17.348 44.537896016017044 Z M 17.852 44.113896016017044 L 17.852 43.357896016017044 C 17.929333333333332 43.317896016017045, 18.014666666666667 43.28589601601705, 18.107999999999997 43.26189601601705 C 18.20133333333333 43.23789601601705, 18.301333333333332 43.225896016017046, 18.407999999999998 43.225896016017046 C 18.773333333333333 43.225896016017046, 19.047333333333334 43.34122934935038, 19.23 43.57189601601705 C 19.412666666666667 43.802562682683714, 19.514666666666663 44.11656268268371, 19.535999999999998 44.51389601601704 C 19.546666666666667 44.67389601601704, 19.55333333333333 44.832562682683715, 19.555999999999997 44.98989601601705 C 19.558666666666664 45.14722934935038, 19.557333333333332 45.30056268268371, 19.552 45.44989601601704 C 19.546666666666667 45.59922934935038, 19.538666666666668 45.73922934935038, 19.528 45.869896016017044 C 19.482666666666667 46.36856268268372, 19.353333333333335 46.73389601601705, 19.14 46.96589601601705 C 18.926666666666666 47.19789601601705, 18.581333333333333 47.32856268268371, 18.104 47.357896016017044 L 18.104 46.46589601601705 C 18.21333333333333 46.436562682683714, 18.296 46.38389601601705, 18.352 46.30789601601705 C 18.408 46.231896016017046, 18.44 46.13256268268371, 18.448 46.009896016017045 C 18.471999999999998 45.71922934935038, 18.485999999999997 45.457896016017045, 18.49 45.225896016017046 C 18.494 44.99389601601705, 18.485333333333333 44.77256268268371, 18.464 44.561896016017045 C 18.447999999999997 44.40722934935038, 18.396666666666665 44.29189601601705, 18.31 44.21589601601705 C 18.223333333333333 44.13989601601705, 18.090666666666664 44.101896016017044, 17.912 44.101896016017044 C 17.901333333333334 44.101896016017044, 17.890666666666668 44.10322934935038, 17.88 44.10589601601705 C 17.86933333333333 44.10856268268371, 17.86 44.11122934935038, 17.852 44.113896016017044 Z M 17.852 41.82189601601705 L 17.852 40.88989601601705 L 19.439999999999998 40.88989601601705 L 19.439999999999998 41.82189601601705 Z M 21.944 47.289896016017046 L 21.944 40.88989601601705 L 23.003999999999998 40.88989601601705 L 23.003999999999998 47.289896016017046 Z " stroke="none" fill-rule="nonzero" fill="#000000" fill-opacity="1" transform="matrix(1,0,0,1,5.05,13.314)" id="text35 l" />
  <path d="M 0 38.54751681281368 L 10 38.54751681281368 L 10 40.04751681281368 L 0 40.04751681281368 Z " stroke="none" fill-rule="evenodd" fill="#000000" fill-opacity="1" transform="matrix(1,0,0,1,5.05,13.314)" id="mark36 l" />
  <path d="M 0 28.723137609610262 L 10 28.723137609610262 L 10 30.223137609610262 L 0 30.223137609610262 Z " stroke="none" fill-rule="evenodd" fill="#000000" fill-opacity="1" transform="matrix(1,0,0,1,5.05,13.314)" id="mark37 l" />
  <path d="M 0 18.89875840640684 L 10 18.89875840640684 L 10 20.39875840640684 L 0 20.39875840640684 Z " stroke="none" fill-rule="evenodd" fill="#000000" fill-opacity="1" transform="matrix(1,0,0,1,5.05,13.314)" id="mark38 l" />
  <path d="M 0 9.07437920320342 L 10 9.07437920320342 L 10 10.57437920320342 L 0 10.57437920320342 Z " stroke="none" fill-rule="evenodd" fill="#000000" fill-opacity="1" transform="matrix(1,0,0,1,5.05,13.314)" id="mark39 l" />
  <path d="M 0 -0.75 L 25 -0.75 L 25 0.75 L 0 0.75 Z " stroke="none" fill-rule="evenodd" fill="#000000" fill-opacity="1" transform="matrix(1,0,0,1,5.05,13.314)" id="mark40 l" />
  <path d="M 11.739999999999998 -3.484 L 11.739999999999998 -4.359999999999999 L 12.455999999999998 -6.24 L 13.495999999999999 -6.24 L 12.771999999999998 -4.4079999999999995 L 13.171999999999997 -4.4079999999999995 L 13.171999999999997 -3.484 Z M 13.675999999999998 -1.7999999999999998 L 13.675999999999998 -8.2 L 14.683999999999997 -8.2 L 14.683999999999997 -1.7999999999999998 Z M 15.187999999999999 -3.484 L 15.187999999999999 -4.4079999999999995 L 15.655999999999999 -4.4079999999999995 L 15.655999999999999 -3.484 Z M 16.195999999999998 -3.2119999999999997 C 16.188 -3.641333333333333, 16.182666666666666 -4.058, 16.18 -4.462 C 16.177333333333333 -4.866, 16.177999999999997 -5.261333333333333, 16.182 -5.648 C 16.186 -6.034666666666666, 16.190666666666665 -6.416, 16.195999999999998 -6.792 C 16.20933333333333 -7.231999999999999, 16.333999999999996 -7.577333333333334, 16.569999999999997 -7.828 C 16.805999999999997 -8.078666666666667, 17.142666666666663 -8.224, 17.58 -8.264 L 17.58 -7.3759999999999994 C 17.382666666666665 -7.32, 17.281333333333333 -7.190666666666667, 17.275999999999996 -6.9879999999999995 C 17.262666666666664 -6.617333333333333, 17.25333333333333 -6.269333333333333, 17.247999999999998 -5.944 C 17.242666666666665 -5.618666666666666, 17.24 -5.302, 17.24 -4.994 C 17.24 -4.686, 17.242666666666665 -4.371333333333333, 17.247999999999998 -4.05 C 17.25333333333333 -3.7286666666666664, 17.262666666666664 -3.3853333333333326, 17.275999999999996 -3.0199999999999996 C 17.281333333333333 -2.812, 17.382666666666665 -2.6799999999999997, 17.58 -2.6239999999999997 L 17.58 -1.7359999999999998 C 17.142666666666663 -1.7759999999999998, 16.805999999999997 -1.9219999999999997, 16.569999999999997 -2.174 C 16.333999999999996 -2.4259999999999997, 16.20933333333333 -2.772, 16.195999999999998 -3.2119999999999997 Z M 18.084 -1.7359999999999998 L 18.084 -2.6279999999999997 C 18.268 -2.681333333333333, 18.366666666666667 -2.8053333333333335, 18.38 -3 C 18.398666666666664 -3.4666666666666663, 18.410666666666664 -3.915333333333333, 18.415999999999997 -4.346 C 18.42133333333333 -4.776666666666666, 18.42133333333333 -5.207333333333333, 18.415999999999997 -5.638 C 18.410666666666664 -6.068666666666666, 18.398666666666664 -6.521333333333333, 18.38 -6.9959999999999996 C 18.374666666666666 -7.190666666666667, 18.276 -7.317333333333334, 18.084 -7.3759999999999994 L 18.084 -8.264 C 18.513333333333332 -8.224, 18.846666666666664 -8.078666666666667, 19.083999999999996 -7.828 C 19.32133333333333 -7.577333333333334, 19.44533333333333 -7.231999999999999, 19.456 -6.792 C 19.466666666666665 -6.477333333333332, 19.474666666666664 -6.167333333333333, 19.479999999999997 -5.861999999999999 C 19.48533333333333 -5.556666666666667, 19.488 -5.256, 19.488 -4.96 C 19.488 -4.664, 19.48533333333333 -4.370666666666667, 19.479999999999997 -4.08 C 19.474666666666664 -3.7893333333333334, 19.466666666666665 -3.5, 19.456 -3.2119999999999997 C 19.439999999999998 -2.761333333333333, 19.311999999999998 -2.4126666666666665, 19.072 -2.166 C 18.831999999999997 -1.9193333333333331, 18.502666666666663 -1.7759999999999998, 18.084 -1.7359999999999998 Z M 21.944 -1.7999999999999998 L 21.944 -8.2 L 23.003999999999998 -8.2 L 23.003999999999998 -1.7999999999999998 Z " stroke="none" fill-rule="nonzero" fill="#000000" fill-opacity="1" transform="matrix(1,0,0,1,5.05,13.314)" id="text40 l" />
  <path d="M -5 -13.264 L 30 -13.264 L 30 389.9187889249332 L -5 389.9187889249332 Z " stroke="#FF0000" stroke-opacity="1" stroke-width="0.1" stroke-linecap="butt" stroke-linejoin="miter" fill="none" transform="matrix(1,0,0,1,5.05,13.314)" />
</svg>