<?xml version="1.0" encoding="UTF-8"?>
<svg xmlns:xlink="http://www.w3.org/1999/xlink" viewBox="0 0 35.1 317.0654914834198" version="1.1" style="font-synthesis: none;" width="35.1mm" height="317.06549148341986mm" xmlns="http://www.w3.org/2000/svg">
  <defs />
  <style>	</style>
  <path d="M 0 0 L 35.1 0 L 35.1 317.0654914834198 L 0 317.0654914834198 Z " stroke="none" fill-rule="nonzero" fill="#FFFFFF" fill-opacity="1" transform="matrix(1,0,0,1,0,0)" />
  <path d="M 0 296.2154914834199 L 10 296.2154914834199 L 10 297.7154914834199 L 0 297.7154914834199 Z " stroke="none" fill-rule="evenodd" fill="#000000" fill-opacity="1" transform="matrix(1,0,0,1,5.05,13.314)" id="mark1 l" />
  <path d="M 0 275.0036706631756 L 10 275.0036706631756 L 10 276.5036706631756 L 0 276.5036706631756 Z " stroke="none" fill-rule="evenodd" fill="#000000" fill-opacity="1" transform="matrix(1,0,0,1,5.05,13.314)" id="mark2 l" />
  <path d="M 0 253.79184984293133 L 10 253.79184984293133 L 10 255.29184984293133 L 0 255.29184984293133 Z " stroke="none" fill-rule="evenodd" fill="#000000" fill-opacity="1" transform="matrix(1,0,0,1,5.05,13.314)" id="mark3 l" />
  <path d="M 0 232.58002902268706 L 10 232.58002902268706 L 10 234.08002902268706 L 0 234.08002902268706 Z " stroke="none" fill-rule="evenodd" fill="#000000" fill-opacity="1" transform="matrix(1,0,0,1,5.05,13.314)" id="mark4 l" />
  <path d="M 0 211.36820820244276 L 25 211.36820820244276 L 25 212.86820820244276 L 0 212.86820820244276 Z " stroke="none" fill-rule="evenodd" fill="#000000" fill-opacity="1" transform="matrix(1,0,0,1,5.05,13.314)" id="mark5 l" />
  <path d="M 16.18 208.87020820244277 C 16.174666666666667 208.69687486910945, 16.173333333333332 208.55754153577612, 16.176 208.45220820244276 C 16.178666666666665 208.34687486910946, 16.181333333333335 208.24487486910945, 16.183999999999997 208.14620820244278 L 17.264 208.14620820244278 C 17.256 208.2235415357761, 17.25 208.31954153577607, 17.246 208.43420820244276 C 17.241999999999997 208.5488748691094, 17.240666666666666 208.6595415357761, 17.241999999999997 208.76620820244275 C 17.243333333333332 208.8728748691094, 17.246666666666666 208.95287486910942, 17.252 209.00620820244276 C 17.262666666666668 209.12620820244277, 17.297333333333334 209.22420820244275, 17.355999999999998 209.30020820244278 C 17.414666666666665 209.37620820244274, 17.497333333333334 209.43020820244277, 17.604 209.46220820244275 L 17.604 210.35420820244278 C 17.110666666666663 210.31687486910943, 16.75333333333333 210.18220820244278, 16.532 209.95020820244275 C 16.310666666666666 209.71820820244278, 16.19333333333333 209.35820820244277, 16.18 208.87020820244277 Z M 16.279999999999998 207.53420820244276 L 16.279999999999998 203.88620820244276 L 17.348 203.88620820244276 L 17.348 207.53420820244276 Z M 17.852 207.11020820244278 L 17.852 206.35420820244278 C 17.929333333333332 206.31420820244279, 18.014666666666667 206.28220820244277, 18.107999999999997 206.25820820244277 C 18.20133333333333 206.23420820244277, 18.301333333333332 206.22220820244277, 18.407999999999998 206.22220820244277 C 18.773333333333333 206.22220820244277, 19.047333333333334 206.3375415357761, 19.23 206.56820820244278 C 19.412666666666667 206.79887486910945, 19.514666666666663 207.11287486910942, 19.535999999999998 207.51020820244275 C 19.546666666666667 207.67020820244278, 19.55333333333333 207.82887486910943, 19.555999999999997 207.98620820244275 C 19.558666666666664 208.1435415357761, 19.557333333333332 208.29687486910944, 19.552 208.44620820244276 C 19.546666666666667 208.59554153577608, 19.538666666666668 208.73554153577606, 19.528 208.86620820244278 C 19.482666666666667 209.36487486910943, 19.353333333333335 209.73020820244278, 19.14 209.96220820244275 C 18.926666666666666 210.19420820244278, 18.581333333333333 210.32487486910946, 18.104 210.35420820244278 L 18.104 209.46220820244275 C 18.21333333333333 209.4328748691094, 18.296 209.38020820244276, 18.352 209.30420820244277 C 18.408 209.22820820244277, 18.44 209.12887486910944, 18.448 209.00620820244276 C 18.471999999999998 208.71554153577608, 18.485999999999997 208.45420820244277, 18.49 208.22220820244277 C 18.494 207.99020820244277, 18.485333333333333 207.76887486910942, 18.464 207.55820820244276 C 18.447999999999997 207.40354153577607, 18.396666666666665 207.28820820244277, 18.31 207.21220820244275 C 18.223333333333333 207.1362082024428, 18.090666666666664 207.09820820244278, 17.912 207.09820820244278 C 17.901333333333334 207.09820820244278, 17.890666666666668 207.0995415357761, 17.88 207.10220820244277 C 17.86933333333333 207.10487486910944, 17.86 207.10754153577608, 17.852 207.11020820244278 Z M 17.852 204.81820820244278 L 17.852 203.88620820244276 L 19.439999999999998 203.88620820244276 L 19.439999999999998 204.81820820244278 Z M 21.944 210.28620820244277 L 21.944 203.88620820244276 L 23.003999999999998 203.88620820244276 L 23.003999999999998 210.28620820244277 Z " stroke="none" fill-rule="nonzero" fill="#000000" fill-opacity="1" transform="matrix(1,0,0,1,5.05,13.314)" id="text5 l" />
  <path d="M 0 190.1563873821985 L 10 190.1563873821985 L 10 191.6563873821985 L 0 191.6563873821985 Z " stroke="none" fill-rule="evenodd" fill="#000000" fill-opacity="1" transform="matrix(1,0,0,1,5.05,13.314)" id="mark6 l" />
  <path d="M 0 168.94456656195422 L 10 168.94456656195422 L 10 170.44456656195422 L 0 170.44456656195422 Z " stroke="none" fill-rule="evenodd" fill="#000000" fill-opacity="1" transform="matrix(1,0,0,1,5.05,13.314)" id="mark7 l" />
  <path d="M 0 147.73274574170995 L 10 147.73274574170995 L 10 149.23274574170995 L 0 149.23274574170995 Z " stroke="none" fill-rule="evenodd" fill="#000000" fill-opacity="1" transform="matrix(1,0,0,1,5.05,13.314)" id="mark8 l" />
  <path d="M 0 126.52092492146568 L 10 126.52092492146568 L 10 128.02092492146568 L 0 128.02092492146568 Z " stroke="none" fill-rule="evenodd" fill="#000000" fill-opacity="1" transform="matrix(1,0,0,1,5.05,13.314)" id="mark9 l" />
  <path d="M 0 105.30910410122138 L 25 105.30910410122138 L 25 106.80910410122138 L 0 106.80910410122138 Z " stroke="none" fill-rule="evenodd" fill="#000000" fill-opacity="1" transform="matrix(1,0,0,1,5.05,13.314)" id="mark10 l" />
  <path d="M 14.323999999999998 104.25910410122138 L 14.323999999999998 98.81510410122138 L 13.871999999999998 98.81510410122138 L 13.839999999999998 98.43510410122138 L 14.543999999999999 97.85910410122138 L 15.424 97.85910410122138 L 15.424 104.25910410122138 Z M 16.196 102.84710410122138 C 16.188000000000002 102.41777076788804, 16.182666666666666 102.00110410122139, 16.18 101.59710410122138 C 16.177333333333333 101.19310410122137, 16.177999999999997 100.79777076788804, 16.182 100.41110410122138 C 16.186 100.02443743455473, 16.190666666666665 99.64310410122138, 16.196 99.26710410122138 C 16.209333333333333 98.82710410122138, 16.334000000000003 98.48177076788804, 16.57 98.23110410122138 C 16.805999999999997 97.98043743455472, 17.142666666666663 97.83510410122139, 17.58 97.79510410122138 L 17.58 98.68310410122139 C 17.382666666666665 98.73910410122139, 17.281333333333333 98.86843743455472, 17.276 99.07110410122138 C 17.262666666666668 99.44177076788804, 17.253333333333334 99.78977076788803, 17.248 100.11510410122138 C 17.242666666666665 100.4404374345547, 17.24 100.75710410122137, 17.24 101.06510410122138 C 17.24 101.37310410122139, 17.242666666666665 101.68777076788805, 17.248 102.00910410122138 C 17.253333333333334 102.33043743455471, 17.262666666666668 102.67377076788804, 17.276 103.03910410122138 C 17.281333333333333 103.24710410122138, 17.382666666666665 103.37910410122137, 17.58 103.43510410122138 L 17.58 104.32310410122138 C 17.142666666666663 104.28310410122138, 16.805999999999997 104.13710410122138, 16.57 103.88510410122139 C 16.334000000000003 103.63310410122139, 16.209333333333333 103.28710410122139, 16.196 102.84710410122138 Z M 18.084 104.32310410122138 L 18.084 103.43110410122138 C 18.268 103.37777076788805, 18.366666666666667 103.25377076788806, 18.38 103.05910410122138 C 18.398666666666667 102.59243743455471, 18.410666666666668 102.14377076788804, 18.416 101.71310410122138 C 18.421333333333333 101.28243743455471, 18.421333333333333 100.85177076788804, 18.416 100.42110410122139 C 18.410666666666668 99.9904374345547, 18.398666666666667 99.53777076788805, 18.38 99.06310410122138 C 18.374666666666666 98.86843743455472, 18.276 98.74177076788806, 18.084 98.68310410122139 L 18.084 97.79510410122138 C 18.513333333333335 97.83510410122139, 18.846666666666668 97.98043743455472, 19.084 98.23110410122138 C 19.321333333333335 98.48177076788804, 19.445333333333334 98.82710410122138, 19.456 99.26710410122138 C 19.46666666666667 99.58177076788805, 19.474666666666668 99.89177076788805, 19.48 100.19710410122138 C 19.485333333333333 100.50243743455472, 19.488 100.80310410122138, 19.488 101.09910410122139 C 19.488 101.39510410122139, 19.485333333333333 101.68843743455471, 19.48 101.97910410122138 C 19.474666666666668 102.26977076788805, 19.46666666666667 102.55910410122138, 19.456 102.84710410122138 C 19.439999999999998 103.29777076788804, 19.311999999999998 103.64643743455471, 19.072 103.89310410122138 C 18.832 104.13977076788805, 18.502666666666666 104.28310410122138, 18.084 104.32310410122138 Z M 21.944 104.25910410122138 L 21.944 97.85910410122138 L 23.003999999999998 97.85910410122138 L 23.003999999999998 104.25910410122138 Z " stroke="none" fill-rule="nonzero" fill="#000000" fill-opacity="1" transform="matrix(1,0,0,1,5.05,13.314)" id="text10 l" />
  <path d="M 0 84.09728328097711 L 10 84.09728328097711 L 10 85.59728328097711 L 0 85.59728328097711 Z " stroke="none" fill-rule="evenodd" fill="#000000" fill-opacity="1" transform="matrix(1,0,0,1,5.05,13.314)" id="mark11 l" />
  <path d="M 0 62.88546246073284 L 10 62.88546246073284 L 10 64.38546246073284 L 0 64.38546246073284 Z " stroke="none" fill-rule="evenodd" fill="#000000" fill-opacity="1" transform="matrix(1,0,0,1,5.05,13.314)" id="mark12 l" />
  <path d="M 0 41.67364164048854 L 10 41.67364164048854 L 10 43.17364164048854 L 0 43.17364164048854 Z " stroke="none" fill-rule="evenodd" fill="#000000" fill-opacity="1" transform="matrix(1,0,0,1,5.05,13.314)" id="mark13 l" />
  <path d="M 0 20.46182082024427 L 10 20.46182082024427 L 10 21.96182082024427 L 0 21.96182082024427 Z " stroke="none" fill-rule="evenodd" fill="#000000" fill-opacity="1" transform="matrix(1,0,0,1,5.05,13.314)" id="mark14 l" />
  <path d="M 0 -0.75 L 25 -0.75 L 25 0.75 L 0 0.75 Z " stroke="none" fill-rule="evenodd" fill="#000000" fill-opacity="1" transform="matrix(1,0,0,1,5.05,13.314)" id="mark15 l" />
  <path d="M 14.331999999999999 -1.8319999999999999 L 14.331999999999999 -7.276 L 13.879999999999999 -7.276 L 13.847999999999999 -7.656 L 14.552 -8.232 L 15.432 -8.232 L 15.432 -1.8319999999999999 Z M 16.18 -3.2479999999999998 C 16.174666666666667 -3.421333333333333, 16.173333333333332 -3.5606666666666666, 16.176 -3.666 C 16.178666666666665 -3.771333333333333, 16.181333333333335 -3.873333333333333, 16.183999999999997 -3.972 L 17.264 -3.972 C 17.256 -3.8946666666666667, 17.25 -3.7986666666666666, 17.246 -3.6839999999999997 C 17.241999999999997 -3.569333333333333, 17.240666666666666 -3.4586666666666663, 17.241999999999997 -3.352 C 17.243333333333332 -3.2453333333333334, 17.246666666666666 -3.1653333333333338, 17.252 -3.112 C 17.262666666666668 -2.992, 17.297333333333334 -2.8939999999999997, 17.355999999999998 -2.8179999999999996 C 17.414666666666665 -2.7419999999999995, 17.497333333333334 -2.6879999999999997, 17.604 -2.6559999999999997 L 17.604 -1.7639999999999998 C 17.110666666666663 -1.801333333333333, 16.75333333333333 -1.9359999999999997, 16.532 -2.1679999999999997 C 16.310666666666666 -2.4, 16.19333333333333 -2.76, 16.18 -3.2479999999999998 Z M 16.279999999999998 -4.584 L 16.279999999999998 -8.232 L 17.348 -8.232 L 17.348 -4.584 Z M 17.852 -5.008 L 17.852 -5.763999999999999 C 17.929333333333332 -5.804, 18.014666666666667 -5.836, 18.107999999999997 -5.86 C 18.20133333333333 -5.884, 18.301333333333332 -5.896, 18.407999999999998 -5.896 C 18.773333333333333 -5.896, 19.047333333333334 -5.780666666666667, 19.23 -5.55 C 19.412666666666667 -5.319333333333333, 19.514666666666663 -5.005333333333333, 19.535999999999998 -4.608 C 19.546666666666667 -4.448, 19.55333333333333 -4.289333333333333, 19.555999999999997 -4.132 C 19.558666666666664 -3.974666666666667, 19.557333333333332 -3.8213333333333335, 19.552 -3.6719999999999997 C 19.546666666666667 -3.522666666666667, 19.538666666666668 -3.3826666666666663, 19.528 -3.252 C 19.482666666666667 -2.753333333333333, 19.353333333333335 -2.388, 19.14 -2.1559999999999997 C 18.926666666666666 -1.9239999999999997, 18.581333333333333 -1.793333333333333, 18.104 -1.7639999999999998 L 18.104 -2.6559999999999997 C 18.21333333333333 -2.685333333333333, 18.296 -2.738, 18.352 -2.814 C 18.408 -2.89, 18.44 -2.9893333333333336, 18.448 -3.112 C 18.471999999999998 -3.4026666666666667, 18.485999999999997 -3.664, 18.49 -3.896 C 18.494 -4.128, 18.485333333333333 -4.349333333333333, 18.464 -4.5600000000000005 C 18.447999999999997 -4.714666666666667, 18.396666666666665 -4.83, 18.31 -4.906 C 18.223333333333333 -4.981999999999999, 18.090666666666664 -5.02, 17.912 -5.02 C 17.901333333333334 -5.02, 17.890666666666668 -5.018666666666666, 17.88 -5.016 C 17.86933333333333 -5.013333333333334, 17.86 -5.010666666666667, 17.852 -5.008 Z M 17.852 -7.3 L 17.852 -8.232 L 19.439999999999998 -8.232 L 19.439999999999998 -7.3 Z M 21.944 -1.8319999999999999 L 21.944 -8.232 L 23.003999999999998 -8.232 L 23.003999999999998 -1.8319999999999999 Z " stroke="none" fill-rule="nonzero" fill="#000000" fill-opacity="1" transform="matrix(1,0,0,1,5.05,13.314)" id="text15 l" />
  <path d="M -5 -13.264 L 30 -13.264 L 30 303.70149148341983 L -5 303.70149148341983 Z " stroke="#FF0000" stroke-opacity="1" stroke-width="0.1" stroke-linecap="butt" stroke-linejoin="miter" fill="none" transform="matrix(1,0,0,1,5.05,13.314)" />
</svg>