<?xml version="1.0" encoding="UTF-8"?>
<svg xmlns:xlink="http://www.w3.org/1999/xlink" viewBox="0 0 35.1 338.11065841460885" version="1.1" style="font-synthesis: none;" width="35.1mm" height="338.11065841460885mm" xmlns="http://www.w3.org/2000/svg">
  <defs />
  <style>	</style>
  <path d="M 0 0 L 35.1 0 L 35.1 338.11065841460885 L 0 338.11065841460885 Z " stroke="none" fill-rule="nonzero" fill="#FFFFFF" fill-opacity="1" transform="matrix(1,0,0,1,0,0)" />
  <path d="M 0 317.22865841460884 L 10 317.22865841460884 L 10 318.72865841460884 L 0 318.72865841460884 Z " stroke="none" fill-rule="evenodd" fill="#000000" fill-opacity="1" transform="matrix(1,0,0,1,5.05,13.314)" id="mark1 l" />
  <path d="M 0 303.97954764733345 L 10 303.97954764733345 L 10 305.47954764733345 L 0 305.47954764733345 Z " stroke="none" fill-rule="evenodd" fill="#000000" fill-opacity="1" transform="matrix(1,0,0,1,5.05,13.314)" id="mark2 l" />
  <path d="M 0 290.7304368800581 L 10 290.7304368800581 L 10 292.2304368800581 L 0 292.2304368800581 Z " stroke="none" fill-rule="evenodd" fill="#000000" fill-opacity="1" transform="matrix(1,0,0,1,5.05,13.314)" id="mark3 l" />
  <path d="M 0 277.4813261127827 L 10 277.4813261127827 L 10 278.9813261127827 L 0 278.9813261127827 Z " stroke="none" fill-rule="evenodd" fill="#000000" fill-opacity="1" transform="matrix(1,0,0,1,5.05,13.314)" id="mark4 l" />
  <path d="M 0 264.23221534550737 L 25 264.23221534550737 L 25 265.73221534550737 L 0 265.73221534550737 Z " stroke="none" fill-rule="evenodd" fill="#000000" fill-opacity="1" transform="matrix(1,0,0,1,5.05,13.314)" id="mark5 l" />
  <path d="M 16.18 261.7342153455074 C 16.174666666666667 261.56088201217403, 16.173333333333332 261.42154867884074, 16.176 261.3162153455074 C 16.178666666666665 261.210882012174, 16.181333333333335 261.10888201217404, 16.183999999999997 261.0102153455074 L 17.264 261.0102153455074 C 17.256 261.0875486788407, 17.25 261.1835486788407, 17.246 261.2982153455074 C 17.241999999999997 261.412882012174, 17.240666666666666 261.5235486788407, 17.241999999999997 261.6302153455074 C 17.243333333333332 261.736882012174, 17.246666666666666 261.81688201217406, 17.252 261.8702153455074 C 17.262666666666668 261.99021534550735, 17.297333333333334 262.08821534550736, 17.355999999999998 262.1642153455074 C 17.414666666666665 262.24021534550735, 17.497333333333334 262.2942153455074, 17.604 262.32621534550736 L 17.604 263.21821534550736 C 17.110666666666663 263.18088201217404, 16.75333333333333 263.0462153455074, 16.532 262.81421534550736 C 16.310666666666666 262.58221534550734, 16.19333333333333 262.2222153455074, 16.18 261.7342153455074 Z M 16.279999999999998 260.39821534550737 L 16.279999999999998 256.7502153455074 L 17.348 256.7502153455074 L 17.348 260.39821534550737 Z M 17.852 259.9742153455074 L 17.852 259.21821534550736 C 17.929333333333332 259.17821534550734, 18.014666666666667 259.14621534550736, 18.107999999999997 259.12221534550736 C 18.20133333333333 259.09821534550736, 18.301333333333332 259.08621534550736, 18.407999999999998 259.08621534550736 C 18.773333333333333 259.08621534550736, 19.047333333333334 259.2015486788407, 19.23 259.43221534550736 C 19.412666666666667 259.662882012174, 19.514666666666663 259.97688201217403, 19.535999999999998 260.37421534550737 C 19.546666666666667 260.5342153455074, 19.55333333333333 260.69288201217404, 19.555999999999997 260.85021534550737 C 19.558666666666664 261.0075486788407, 19.557333333333332 261.16088201217406, 19.552 261.3102153455074 C 19.546666666666667 261.45954867884075, 19.538666666666668 261.59954867884073, 19.528 261.73021534550736 C 19.482666666666667 262.22888201217404, 19.353333333333335 262.59421534550734, 19.14 262.82621534550736 C 18.926666666666666 263.0582153455074, 18.581333333333333 263.1888820121741, 18.104 263.21821534550736 L 18.104 262.32621534550736 C 18.21333333333333 262.296882012174, 18.296 262.24421534550737, 18.352 262.16821534550735 C 18.408 262.0922153455074, 18.44 261.99288201217405, 18.448 261.8702153455074 C 18.471999999999998 261.5795486788407, 18.485999999999997 261.3182153455074, 18.49 261.08621534550736 C 18.494 260.8542153455074, 18.485333333333333 260.63288201217404, 18.464 260.42221534550737 C 18.447999999999997 260.26754867884074, 18.396666666666665 260.1522153455074, 18.31 260.07621534550736 C 18.223333333333333 260.0002153455074, 18.090666666666664 259.9622153455074, 17.912 259.9622153455074 C 17.901333333333334 259.9622153455074, 17.890666666666668 259.9635486788407, 17.88 259.96621534550735 C 17.86933333333333 259.96888201217405, 17.86 259.9715486788407, 17.852 259.9742153455074 Z M 17.852 257.68221534550736 L 17.852 256.7502153455074 L 19.439999999999998 256.7502153455074 L 19.439999999999998 257.68221534550736 Z M 21.944 263.1502153455074 L 21.944 256.7502153455074 L 23.003999999999998 256.7502153455074 L 23.003999999999998 263.1502153455074 Z " stroke="none" fill-rule="nonzero" fill="#000000" fill-opacity="1" transform="matrix(1,0,0,1,5.05,13.314)" id="text5 l" />
  <path d="M 0 250.98310457823197 L 10 250.98310457823197 L 10 252.48310457823197 L 0 252.48310457823197 Z " stroke="none" fill-rule="evenodd" fill="#000000" fill-opacity="1" transform="matrix(1,0,0,1,5.05,13.314)" id="mark6 l" />
  <path d="M 0 237.73399381095663 L 10 237.73399381095663 L 10 239.23399381095663 L 0 239.23399381095663 Z " stroke="none" fill-rule="evenodd" fill="#000000" fill-opacity="1" transform="matrix(1,0,0,1,5.05,13.314)" id="mark7 l" />
  <path d="M 0 224.48488304368124 L 10 224.48488304368124 L 10 225.98488304368124 L 0 225.98488304368124 Z " stroke="none" fill-rule="evenodd" fill="#000000" fill-opacity="1" transform="matrix(1,0,0,1,5.05,13.314)" id="mark8 l" />
  <path d="M 0 211.2357722764059 L 10 211.2357722764059 L 10 212.7357722764059 L 0 212.7357722764059 Z " stroke="none" fill-rule="evenodd" fill="#000000" fill-opacity="1" transform="matrix(1,0,0,1,5.05,13.314)" id="mark9 l" />
  <path d="M 0 197.98666150913053 L 25 197.98666150913053 L 25 199.48666150913053 L 0 199.48666150913053 Z " stroke="none" fill-rule="evenodd" fill="#000000" fill-opacity="1" transform="matrix(1,0,0,1,5.05,13.314)" id="mark10 l" />
  <path d="M 14.323999999999998 196.93666150913054 L 14.323999999999998 191.49266150913056 L 13.871999999999998 191.49266150913056 L 13.839999999999998 191.11266150913053 L 14.543999999999999 190.53666150913054 L 15.424 190.53666150913054 L 15.424 196.93666150913054 Z M 16.196 195.52466150913054 C 16.188000000000002 195.0953281757972, 16.182666666666666 194.67866150913056, 16.18 194.27466150913054 C 16.177333333333333 193.87066150913057, 16.177999999999997 193.47532817579722, 16.182 193.08866150913053 C 16.186 192.70199484246388, 16.190666666666665 192.32066150913056, 16.196 191.94466150913055 C 16.209333333333333 191.50466150913056, 16.334000000000003 191.1593281757972, 16.57 190.90866150913055 C 16.805999999999997 190.6579948424639, 17.142666666666663 190.51266150913054, 17.58 190.47266150913055 L 17.58 191.36066150913055 C 17.382666666666665 191.41666150913056, 17.281333333333333 191.54599484246387, 17.276 191.74866150913056 C 17.262666666666668 192.11932817579722, 17.253333333333334 192.4673281757972, 17.248 192.79266150913054 C 17.242666666666665 193.11799484246387, 17.24 193.43466150913054, 17.24 193.74266150913056 C 17.24 194.05066150913052, 17.242666666666665 194.3653281757972, 17.248 194.68666150913054 C 17.253333333333334 195.0079948424639, 17.262666666666668 195.35132817579722, 17.276 195.71666150913055 C 17.281333333333333 195.92466150913054, 17.382666666666665 196.05666150913055, 17.58 196.11266150913053 L 17.58 197.00066150913054 C 17.142666666666663 196.96066150913055, 16.805999999999997 196.81466150913053, 16.57 196.56266150913055 C 16.334000000000003 196.3106615091305, 16.209333333333333 195.9646615091305, 16.196 195.52466150913054 Z M 18.084 197.00066150913054 L 18.084 196.10866150913054 C 18.268 196.05532817579723, 18.366666666666667 195.9313281757972, 18.38 195.73666150913056 C 18.398666666666667 195.26999484246386, 18.410666666666668 194.8213281757972, 18.416 194.39066150913055 C 18.421333333333333 193.95999484246386, 18.421333333333333 193.52932817579722, 18.416 193.09866150913055 C 18.410666666666668 192.66799484246388, 18.398666666666667 192.2153281757972, 18.38 191.74066150913055 C 18.374666666666666 191.54599484246387, 18.276 191.4193281757972, 18.084 191.36066150913055 L 18.084 190.47266150913055 C 18.513333333333335 190.51266150913054, 18.846666666666668 190.6579948424639, 19.084 190.90866150913055 C 19.321333333333335 191.1593281757972, 19.445333333333334 191.50466150913056, 19.456 191.94466150913055 C 19.46666666666667 192.2593281757972, 19.474666666666668 192.56932817579718, 19.48 192.87466150913053 C 19.485333333333333 193.17999484246388, 19.488 193.48066150913053, 19.488 193.77666150913055 C 19.488 194.07266150913057, 19.485333333333333 194.36599484246386, 19.48 194.65666150913054 C 19.474666666666668 194.94732817579722, 19.46666666666667 195.23666150913056, 19.456 195.52466150913054 C 19.439999999999998 195.9753281757972, 19.311999999999998 196.3239948424639, 19.072 196.57066150913053 C 18.832 196.81732817579723, 18.502666666666666 196.96066150913055, 18.084 197.00066150913054 Z M 21.944 196.93666150913054 L 21.944 190.53666150913054 L 23.003999999999998 190.53666150913054 L 23.003999999999998 196.93666150913054 Z " stroke="none" fill-rule="nonzero" fill="#000000" fill-opacity="1" transform="matrix(1,0,0,1,5.05,13.314)" id="text10 l" />
  <path d="M 0 184.73755074185516 L 10 184.73755074185516 L 10 186.23755074185516 L 0 186.23755074185516 Z " stroke="none" fill-rule="evenodd" fill="#000000" fill-opacity="1" transform="matrix(1,0,0,1,5.05,13.314)" id="mark11 l" />
  <path d="M 0 171.4884399745798 L 10 171.4884399745798 L 10 172.9884399745798 L 0 172.9884399745798 Z " stroke="none" fill-rule="evenodd" fill="#000000" fill-opacity="1" transform="matrix(1,0,0,1,5.05,13.314)" id="mark12 l" />
  <path d="M 0 158.23932920730442 L 10 158.23932920730442 L 10 159.73932920730442 L 0 159.73932920730442 Z " stroke="none" fill-rule="evenodd" fill="#000000" fill-opacity="1" transform="matrix(1,0,0,1,5.05,13.314)" id="mark13 l" />
  <path d="M 0 144.99021844002905 L 10 144.99021844002905 L 10 146.49021844002905 L 0 146.49021844002905 Z " stroke="none" fill-rule="evenodd" fill="#000000" fill-opacity="1" transform="matrix(1,0,0,1,5.05,13.314)" id="mark14 l" />
  <path d="M 0 131.74110767275369 L 25 131.74110767275369 L 25 133.24110767275369 L 0 133.24110767275369 Z " stroke="none" fill-rule="evenodd" fill="#000000" fill-opacity="1" transform="matrix(1,0,0,1,5.05,13.314)" id="mark15 l" />
  <path d="M 14.331999999999999 130.6591076727537 L 14.331999999999999 125.21510767275369 L 13.879999999999999 125.21510767275369 L 13.847999999999999 124.8351076727537 L 14.552 124.25910767275369 L 15.432 124.25910767275369 L 15.432 130.6591076727537 Z M 16.18 129.2431076727537 C 16.174666666666667 129.06977433942038, 16.173333333333332 128.93044100608705, 16.176 128.8251076727537 C 16.178666666666665 128.71977433942038, 16.181333333333335 128.61777433942038, 16.183999999999997 128.5191076727537 L 17.264 128.5191076727537 C 17.256 128.59644100608702, 17.25 128.69244100608702, 17.246 128.8071076727537 C 17.241999999999997 128.92177433942035, 17.240666666666666 129.03244100608703, 17.241999999999997 129.13910767275368 C 17.243333333333332 129.24577433942034, 17.246666666666666 129.32577433942035, 17.252 129.3791076727537 C 17.262666666666668 129.4991076727537, 17.297333333333334 129.59710767275368, 17.355999999999998 129.6731076727537 C 17.414666666666665 129.74910767275367, 17.497333333333334 129.80310767275367, 17.604 129.83510767275368 L 17.604 130.7271076727537 C 17.110666666666663 130.68977433942035, 16.75333333333333 130.55510767275368, 16.532 130.32310767275368 C 16.310666666666666 130.09110767275368, 16.19333333333333 129.7311076727537, 16.18 129.2431076727537 Z M 16.279999999999998 127.9071076727537 L 16.279999999999998 124.25910767275369 L 17.348 124.25910767275369 L 17.348 127.9071076727537 Z M 17.852 127.48310767275369 L 17.852 126.72710767275369 C 17.929333333333332 126.68710767275368, 18.014666666666667 126.6551076727537, 18.107999999999997 126.63110767275369 C 18.20133333333333 126.6071076727537, 18.301333333333332 126.5951076727537, 18.407999999999998 126.5951076727537 C 18.773333333333333 126.5951076727537, 19.047333333333334 126.71044100608702, 19.23 126.94110767275369 C 19.412666666666667 127.17177433942035, 19.514666666666663 127.48577433942035, 19.535999999999998 127.8831076727537 C 19.546666666666667 128.04310767275368, 19.55333333333333 128.20177433942035, 19.555999999999997 128.35910767275368 C 19.558666666666664 128.51644100608704, 19.557333333333332 128.66977433942037, 19.552 128.8191076727537 C 19.546666666666667 128.968441006087, 19.538666666666668 129.10844100608702, 19.528 129.2391076727537 C 19.482666666666667 129.73777433942035, 19.353333333333335 130.1031076727537, 19.14 130.33510767275368 C 18.926666666666666 130.5671076727537, 18.581333333333333 130.69777433942036, 18.104 130.7271076727537 L 18.104 129.83510767275368 C 18.21333333333333 129.80577433942037, 18.296 129.75310767275369, 18.352 129.6771076727537 C 18.408 129.6011076727537, 18.44 129.50177433942036, 18.448 129.3791076727537 C 18.471999999999998 129.088441006087, 18.485999999999997 128.8271076727537, 18.49 128.5951076727537 C 18.494 128.3631076727537, 18.485333333333333 128.14177433942035, 18.464 127.9311076727537 C 18.447999999999997 127.77644100608703, 18.396666666666665 127.6611076727537, 18.31 127.5851076727537 C 18.223333333333333 127.50910767275369, 18.090666666666664 127.4711076727537, 17.912 127.47110767275369 C 17.901333333333334 127.4711076727537, 17.890666666666668 127.47244100608702, 17.88 127.4751076727537 C 17.86933333333333 127.47777433942036, 17.86 127.48044100608702, 17.852 127.48310767275369 Z M 17.852 125.19110767275369 L 17.852 124.25910767275369 L 19.439999999999998 124.25910767275369 L 19.439999999999998 125.19110767275369 Z M 21.944 130.6591076727537 L 21.944 124.25910767275369 L 23.003999999999998 124.25910767275369 L 23.003999999999998 130.6591076727537 Z " stroke="none" fill-rule="nonzero" fill="#000000" fill-opacity="1" transform="matrix(1,0,0,1,5.05,13.314)" id="text15 l" />
  <path d="M 0 118.49199690547832 L 10 118.49199690547832 L 10 119.99199690547832 L 0 119.99199690547832 Z " stroke="none" fill-rule="evenodd" fill="#000000" fill-opacity="1" transform="matrix(1,0,0,1,5.05,13.314)" id="mark16 l" />
  <path d="M 0 105.24288613820295 L 10 105.24288613820295 L 10 106.74288613820295 L 0 106.74288613820295 Z " stroke="none" fill-rule="evenodd" fill="#000000" fill-opacity="1" transform="matrix(1,0,0,1,5.05,13.314)" id="mark17 l" />
  <path d="M 0 91.99377537092758 L 10 91.99377537092758 L 10 93.49377537092758 L 0 93.49377537092758 Z " stroke="none" fill-rule="evenodd" fill="#000000" fill-opacity="1" transform="matrix(1,0,0,1,5.05,13.314)" id="mark18 l" />
  <path d="M 0 78.74466460365221 L 10 78.74466460365221 L 10 80.24466460365221 L 0 80.24466460365221 Z " stroke="none" fill-rule="evenodd" fill="#000000" fill-opacity="1" transform="matrix(1,0,0,1,5.05,13.314)" id="mark19 l" />
  <path d="M 0 65.49555383637687 L 25 65.49555383637687 L 25 66.99555383637687 L 0 66.99555383637687 Z " stroke="none" fill-rule="evenodd" fill="#000000" fill-opacity="1" transform="matrix(1,0,0,1,5.05,13.314)" id="mark20 l" />
  <path d="M 12.319999999999999 64.44555383637687 C 12.317333333333334 64.34688716971021, 12.315333333333331 64.25822050304353, 12.313999999999998 64.17955383637687 C 12.312666666666665 64.1008871697102, 12.311333333333334 64.0268871697102, 12.309999999999999 63.957553836376874 C 12.308666666666667 63.88822050304354, 12.308 63.81622050304354, 12.308 63.74155383637687 C 12.308 63.66688716971021, 12.308 63.58222050304354, 12.308 63.487553836376875 C 12.308 63.39288716971021, 12.309333333333335 63.28155383637687, 12.312 63.15355383637687 C 12.32 62.86022050304354, 12.37 62.59822050304354, 12.462 62.36755383637687 C 12.554 62.13688716971021, 12.687999999999999 61.9308871697102, 12.863999999999999 61.749553836376876 C 13.04 61.568220503043534, 13.257333333333333 61.4068871697102, 13.515999999999998 61.265553836376874 L 14.047999999999998 60.97755383637687 C 14.234666666666666 60.87622050304354, 14.354 60.75422050304354, 14.405999999999999 60.61155383637687 C 14.457999999999998 60.4688871697102, 14.488 60.33488716971021, 14.495999999999999 60.20955383637688 C 14.506666666666664 60.06288716971021, 14.512666666666664 59.90622050304354, 14.514 59.73955383637687 C 14.51533333333333 59.5728871697102, 14.511999999999997 59.41622050304353, 14.504 59.26955383637687 C 14.498666666666665 59.16555383637687, 14.468666666666666 59.079553836376874, 14.413999999999998 59.011553836376876 C 14.359333333333332 58.94355383637688, 14.279999999999998 58.89488716971021, 14.175999999999998 58.865553836376876 L 14.175999999999998 57.97755383637687 C 14.663999999999998 58.00955383637687, 15.014 58.14088716971021, 15.225999999999999 58.371553836376876 C 15.437999999999999 58.60222050304354, 15.554666666666666 58.962887169710214, 15.575999999999999 59.45355383637688 C 15.578666666666663 59.51755383637688, 15.580666666666666 59.582887169710204, 15.581999999999999 59.649553836376874 C 15.583333333333332 59.716220503043544, 15.584 59.78088716971021, 15.584 59.84355383637687 C 15.584 59.90622050304354, 15.583333333333332 59.96822050304354, 15.581999999999999 60.02955383637688 C 15.580666666666666 60.090887169710214, 15.578666666666663 60.15088716971021, 15.575999999999999 60.20955383637688 C 15.565333333333331 60.49488716971021, 15.512 60.74155383637688, 15.415999999999999 60.94955383637687 C 15.32 61.15755383637688, 15.19 61.33755383637687, 15.026 61.48955383637687 C 14.862 61.64155383637687, 14.672 61.777553836376875, 14.456 61.89755383637687 L 13.851999999999999 62.225553836376875 C 13.737333333333332 62.28688716971021, 13.647333333333332 62.3708871697102, 13.581999999999999 62.47755383637687 C 13.516666666666666 62.58422050304354, 13.469999999999999 62.69755383637687, 13.441999999999998 62.817553836376874 C 13.413999999999998 62.93755383637688, 13.399999999999999 63.04955383637687, 13.399999999999999 63.15355383637687 L 13.399999999999999 64.44555383637687 Z M 12.328 60.405553836376875 C 12.322666666666667 60.28822050304353, 12.318666666666665 60.17355383637687, 12.315999999999999 60.06155383637687 C 12.313333333333333 59.94955383637688, 12.311333333333334 59.84355383637687, 12.309999999999999 59.743553836376876 C 12.308666666666667 59.64355383637687, 12.309333333333335 59.5468871697102, 12.312 59.45355383637688 C 12.330666666666666 58.96555383637687, 12.447333333333333 58.60622050304354, 12.661999999999999 58.375553836376874 C 12.876666666666665 58.14488716971021, 13.213333333333331 58.01222050304354, 13.671999999999999 57.97755383637687 L 13.671999999999999 58.86955383637687 C 13.576 58.89888716971021, 13.505333333333333 58.945553836376874, 13.459999999999999 59.009553836376874 C 13.414666666666665 59.073553836376874, 13.390666666666664 59.1508871697102, 13.387999999999998 59.24155383637687 C 13.382666666666665 59.44955383637688, 13.379333333333333 59.64288716971021, 13.378 59.82155383637687 C 13.376666666666667 60.000220503043536, 13.381333333333334 60.1948871697102, 13.392 60.405553836376875 Z M 13.904 64.44555383637687 L 13.904 63.51355383637687 L 15.5 63.51355383637687 L 15.5 64.44555383637687 Z M 16.196 63.033553836376875 C 16.188000000000002 62.60422050304354, 16.182666666666666 62.18755383637688, 16.18 61.783553836376875 C 16.177333333333333 61.37955383637687, 16.177999999999997 60.984220503043545, 16.182 60.597553836376875 C 16.186 60.210887169710205, 16.190666666666665 59.829553836376874, 16.196 59.45355383637688 C 16.209333333333333 59.01355383637687, 16.334000000000003 58.66822050304354, 16.57 58.417553836376875 C 16.805999999999997 58.16688716971021, 17.142666666666663 58.02155383637688, 17.58 57.981553836376875 L 17.58 58.86955383637687 C 17.382666666666665 58.92555383637688, 17.281333333333333 59.05488716971021, 17.276 59.25755383637687 C 17.262666666666668 59.628220503043536, 17.253333333333334 59.976220503043535, 17.248 60.301553836376875 C 17.242666666666665 60.6268871697102, 17.24 60.94355383637687, 17.24 61.25155383637687 C 17.24 61.55955383637687, 17.242666666666665 61.87422050304354, 17.248 62.195553836376874 C 17.253333333333334 62.51688716971021, 17.262666666666668 62.86022050304354, 17.276 63.225553836376875 C 17.281333333333333 63.43355383637687, 17.382666666666665 63.56555383637688, 17.58 63.621553836376876 L 17.58 64.50955383637687 C 17.142666666666663 64.46955383637687, 16.805999999999997 64.32355383637687, 16.57 64.07155383637688 C 16.334000000000003 63.81955383637687, 16.209333333333333 63.47355383637687, 16.196 63.033553836376875 Z M 18.084 64.50955383637687 L 18.084 63.61755383637687 C 18.268 63.56422050304354, 18.366666666666667 63.440220503043534, 18.38 63.24555383637687 C 18.398666666666667 62.7788871697102, 18.410666666666668 62.33022050304354, 18.416 61.899553836376874 C 18.421333333333333 61.46888716971021, 18.421333333333333 61.03822050304354, 18.416 60.60755383637687 C 18.410666666666668 60.176887169710206, 18.398666666666667 59.72422050304354, 18.38 59.249553836376876 C 18.374666666666666 59.054887169710206, 18.276 58.92822050304353, 18.084 58.86955383637687 L 18.084 57.981553836376875 C 18.513333333333335 58.02155383637688, 18.846666666666668 58.16688716971021, 19.084 58.417553836376875 C 19.321333333333335 58.66822050304354, 19.445333333333334 59.01355383637687, 19.456 59.45355383637688 C 19.46666666666667 59.76822050304355, 19.474666666666668 60.078220503043546, 19.48 60.383553836376876 C 19.485333333333333 60.688887169710206, 19.488 60.98955383637687, 19.488 61.28555383637688 C 19.488 61.58155383637687, 19.485333333333333 61.874887169710206, 19.48 62.16555383637687 C 19.474666666666668 62.45622050304354, 19.46666666666667 62.74555383637687, 19.456 63.033553836376875 C 19.439999999999998 63.484220503043545, 19.311999999999998 63.83288716971021, 19.072 64.07955383637687 C 18.832 64.32622050304354, 18.502666666666666 64.46955383637687, 18.084 64.50955383637687 Z M 21.944 64.44555383637687 L 21.944 58.045553836376875 L 23.003999999999998 58.045553836376875 L 23.003999999999998 64.44555383637687 Z " stroke="none" fill-rule="nonzero" fill="#000000" fill-opacity="1" transform="matrix(1,0,0,1,5.05,13.314)" id="text20 l" />
  <path d="M 0 52.246443069101474 L 10 52.246443069101474 L 10 53.746443069101474 L 0 53.746443069101474 Z " stroke="none" fill-rule="evenodd" fill="#000000" fill-opacity="1" transform="matrix(1,0,0,1,5.05,13.314)" id="mark21 l" />
  <path d="M 0 38.997332301826134 L 10 38.997332301826134 L 10 40.497332301826134 L 0 40.497332301826134 Z " stroke="none" fill-rule="evenodd" fill="#000000" fill-opacity="1" transform="matrix(1,0,0,1,5.05,13.314)" id="mark22 l" />
  <path d="M 0 25.748221534550737 L 10 25.748221534550737 L 10 27.248221534550737 L 0 27.248221534550737 Z " stroke="none" fill-rule="evenodd" fill="#000000" fill-opacity="1" transform="matrix(1,0,0,1,5.05,13.314)" id="mark23 l" />
  <path d="M 0 12.499110767275397 L 10 12.499110767275397 L 10 13.999110767275397 L 0 13.999110767275397 Z " stroke="none" fill-rule="evenodd" fill="#000000" fill-opacity="1" transform="matrix(1,0,0,1,5.05,13.314)" id="mark24 l" />
  <path d="M 0 -0.75 L 25 -0.75 L 25 0.75 L 0 0.75 Z " stroke="none" fill-rule="evenodd" fill="#000000" fill-opacity="1" transform="matrix(1,0,0,1,5.05,13.314)" id="mark25 l" />
  <path d="M 12.328 -1.7999999999999998 C 12.325333333333333 -1.8986666666666663, 12.323333333333332 -1.987333333333333, 12.322 -2.066 C 12.320666666666666 -2.1446666666666663, 12.319333333333333 -2.2186666666666666, 12.318 -2.288 C 12.316666666666666 -2.357333333333333, 12.315999999999999 -2.429333333333333, 12.316 -2.5039999999999996 C 12.315999999999999 -2.5786666666666664, 12.315999999999999 -2.663333333333333, 12.316 -2.758 C 12.315999999999999 -2.852666666666667, 12.317333333333334 -2.964, 12.32 -3.0919999999999996 C 12.328 -3.3853333333333335, 12.378 -3.647333333333333, 12.47 -3.8779999999999997 C 12.562000000000001 -4.108666666666667, 12.696 -4.314666666666667, 12.872 -4.4959999999999996 C 13.048 -4.677333333333333, 13.265333333333334 -4.838666666666667, 13.524000000000001 -4.98 L 14.056000000000001 -5.268 C 14.242666666666668 -5.3693333333333335, 14.362000000000002 -5.491333333333333, 14.414 -5.634 C 14.466000000000001 -5.776666666666667, 14.495999999999999 -5.910666666666667, 14.504 -6.036 C 14.514666666666667 -6.182666666666666, 14.520666666666667 -6.339333333333333, 14.522 -6.506 C 14.523333333333333 -6.672666666666667, 14.520000000000001 -6.829333333333334, 14.512 -6.976 C 14.506666666666666 -7.08, 14.476666666666667 -7.165999999999999, 14.422 -7.233999999999999 C 14.367333333333335 -7.302, 14.288 -7.350666666666666, 14.184000000000001 -7.38 L 14.184000000000001 -8.268 C 14.672 -8.236, 15.022000000000002 -8.104666666666667, 15.234 -7.874 C 15.446000000000002 -7.643333333333333, 15.562666666666667 -7.282666666666666, 15.584 -6.792 C 15.586666666666668 -6.728, 15.588666666666668 -6.6626666666666665, 15.59 -6.595999999999999 C 15.591333333333335 -6.529333333333334, 15.592000000000002 -6.464666666666666, 15.592 -6.402 C 15.592000000000002 -6.339333333333332, 15.591333333333335 -6.277333333333333, 15.59 -6.216 C 15.588666666666668 -6.1546666666666665, 15.586666666666668 -6.094666666666667, 15.584 -6.036 C 15.573333333333332 -5.750666666666667, 15.52 -5.504, 15.424 -5.295999999999999 C 15.328 -5.088, 15.197999999999999 -4.908, 15.033999999999999 -4.756 C 14.87 -4.604, 14.68 -4.468, 14.464 -4.348 L 13.86 -4.02 C 13.745333333333335 -3.9586666666666663, 13.655333333333335 -3.8746666666666663, 13.59 -3.768 C 13.524666666666668 -3.6613333333333333, 13.478000000000002 -3.548, 13.45 -3.428 C 13.422 -3.308, 13.408 -3.1959999999999997, 13.408 -3.0919999999999996 L 13.408 -1.7999999999999998 Z M 12.336 -5.84 C 12.330666666666666 -5.957333333333333, 12.326666666666664 -6.071999999999999, 12.324 -6.184 C 12.321333333333332 -6.295999999999999, 12.319333333333333 -6.401999999999999, 12.318 -6.502 C 12.316666666666666 -6.602, 12.317333333333334 -6.698666666666666, 12.32 -6.792 C 12.338666666666668 -7.279999999999999, 12.455333333333336 -7.639333333333333, 12.67 -7.87 C 12.884666666666668 -8.100666666666667, 13.221333333333334 -8.233333333333334, 13.68 -8.268 L 13.68 -7.3759999999999994 C 13.584 -7.346666666666666, 13.513333333333332 -7.3, 13.468 -7.236 C 13.422666666666668 -7.172, 13.398666666666667 -7.094666666666667, 13.396 -7.004 C 13.390666666666666 -6.795999999999999, 13.387333333333332 -6.602666666666666, 13.386 -6.424 C 13.384666666666666 -6.245333333333333, 13.389333333333333 -6.050666666666666, 13.4 -5.84 Z M 13.911999999999999 -1.7999999999999998 L 13.911999999999999 -2.7319999999999998 L 15.508 -2.7319999999999998 L 15.508 -1.7999999999999998 Z M 16.18 -3.2159999999999997 C 16.174666666666667 -3.389333333333333, 16.173333333333332 -3.528666666666667, 16.176 -3.634 C 16.178666666666665 -3.7393333333333336, 16.181333333333335 -3.841333333333333, 16.183999999999997 -3.94 L 17.264 -3.94 C 17.256 -3.8626666666666667, 17.25 -3.7666666666666666, 17.246 -3.6519999999999997 C 17.241999999999997 -3.5373333333333328, 17.240666666666666 -3.4266666666666667, 17.241999999999997 -3.32 C 17.243333333333332 -3.213333333333334, 17.246666666666666 -3.1333333333333337, 17.252 -3.08 C 17.262666666666668 -2.96, 17.297333333333334 -2.862, 17.355999999999998 -2.7859999999999996 C 17.414666666666665 -2.71, 17.497333333333334 -2.6559999999999997, 17.604 -2.6239999999999997 L 17.604 -1.7319999999999998 C 17.110666666666663 -1.7693333333333332, 16.75333333333333 -1.904, 16.532 -2.1359999999999997 C 16.310666666666666 -2.368, 16.19333333333333 -2.7279999999999998, 16.18 -3.2159999999999997 Z M 16.279999999999998 -4.552 L 16.279999999999998 -8.2 L 17.348 -8.2 L 17.348 -4.552 Z M 17.852 -4.976 L 17.852 -5.731999999999999 C 17.929333333333332 -5.771999999999999, 18.014666666666667 -5.804, 18.107999999999997 -5.828 C 18.20133333333333 -5.852, 18.301333333333332 -5.864, 18.407999999999998 -5.864 C 18.773333333333333 -5.864, 19.047333333333334 -5.748666666666667, 19.23 -5.518 C 19.412666666666667 -5.287333333333333, 19.514666666666663 -4.973333333333333, 19.535999999999998 -4.576 C 19.546666666666667 -4.416, 19.55333333333333 -4.257333333333333, 19.555999999999997 -4.1 C 19.558666666666664 -3.9426666666666668, 19.557333333333332 -3.7893333333333334, 19.552 -3.6399999999999997 C 19.546666666666667 -3.490666666666667, 19.538666666666668 -3.3506666666666667, 19.528 -3.2199999999999998 C 19.482666666666667 -2.721333333333333, 19.353333333333335 -2.356, 19.14 -2.1239999999999997 C 18.926666666666666 -1.892, 18.581333333333333 -1.7613333333333332, 18.104 -1.7319999999999998 L 18.104 -2.6239999999999997 C 18.21333333333333 -2.653333333333333, 18.296 -2.7059999999999995, 18.352 -2.782 C 18.408 -2.8579999999999997, 18.44 -2.957333333333333, 18.448 -3.08 C 18.471999999999998 -3.3706666666666667, 18.485999999999997 -3.6319999999999997, 18.49 -3.864 C 18.494 -4.096, 18.485333333333333 -4.317333333333333, 18.464 -4.5280000000000005 C 18.447999999999997 -4.682666666666667, 18.396666666666665 -4.798, 18.31 -4.874 C 18.223333333333333 -4.949999999999999, 18.090666666666664 -4.9879999999999995, 17.912 -4.9879999999999995 C 17.901333333333334 -4.9879999999999995, 17.890666666666668 -4.986666666666666, 17.88 -4.984 C 17.86933333333333 -4.981333333333334, 17.86 -4.978666666666667, 17.852 -4.976 Z M 17.852 -7.268 L 17.852 -8.2 L 19.439999999999998 -8.2 L 19.439999999999998 -7.268 Z M 21.944 -1.7999999999999998 L 21.944 -8.2 L 23.003999999999998 -8.2 L 23.003999999999998 -1.7999999999999998 Z " stroke="none" fill-rule="nonzero" fill="#000000" fill-opacity="1" transform="matrix(1,0,0,1,5.05,13.314)" id="text25 l" />
  <path d="M -5 -13.264 L 30 -13.264 L 30 324.7466584146088 L -5 324.7466584146088 Z " stroke="#FF0000" stroke-opacity="1" stroke-width="0.1" stroke-linecap="butt" stroke-linejoin="miter" fill="none" transform="matrix(1,0,0,1,5.05,13.314)" />
</svg>