<?xml version="1.0" encoding="UTF-8"?>
<svg xmlns:xlink="http://www.w3.org/1999/xlink" viewBox="0 0 35.1 453.9765856134629" version="1.1" style="font-synthesis: none;" width="35.1mm" height="453.9765856134629mm" xmlns="http://www.w3.org/2000/svg">
  <defs />
  <style>	</style>
  <path d="M 0 0 L 35.1 0 L 35.1 453.9765856134629 L 0 453.9765856134629 Z " stroke="none" fill-rule="nonzero" fill="#FFFFFF" fill-opacity="1" transform="matrix(1,0,0,1,0,0)" />
  <path d="M 0 433.0945856134629 L 10 433.0945856134629 L 10 434.5945856134629 L 0 434.5945856134629 Z " stroke="none" fill-rule="evenodd" fill="#000000" fill-opacity="1" transform="matrix(1,0,0,1,5.05,13.314)" id="mark1 l" />
  <path d="M 0 426.8069829234127 L 10 426.8069829234127 L 10 428.3069829234127 L 0 428.3069829234127 Z " stroke="none" fill-rule="evenodd" fill="#000000" fill-opacity="1" transform="matrix(1,0,0,1,5.05,13.314)" id="mark2 l" />
  <path d="M 0 420.51938023336254 L 10 420.51938023336254 L 10 422.01938023336254 L 0 422.01938023336254 Z " stroke="none" fill-rule="evenodd" fill="#000000" fill-opacity="1" transform="matrix(1,0,0,1,5.05,13.314)" id="mark3 l" />
  <path d="M 0 414.2317775433123 L 10 414.2317775433123 L 10 415.7317775433123 L 0 415.7317775433123 Z " stroke="none" fill-rule="evenodd" fill="#000000" fill-opacity="1" transform="matrix(1,0,0,1,5.05,13.314)" id="mark4 l" />
  <path d="M 0 407.94417485326215 L 25 407.94417485326215 L 25 409.44417485326215 L 0 409.44417485326215 Z " stroke="none" fill-rule="evenodd" fill="#000000" fill-opacity="1" transform="matrix(1,0,0,1,5.05,13.314)" id="mark5 l" />
  <path d="M 16.18 405.44617485326216 C 16.174666666666667 405.2728415199288, 16.173333333333332 405.13350818659546, 16.176 405.02817485326216 C 16.178666666666665 404.92284151992885, 16.181333333333335 404.8208415199288, 16.183999999999997 404.7221748532622 L 17.264 404.7221748532622 C 17.256 404.7995081865955, 17.25 404.8955081865955, 17.246 405.0101748532622 C 17.241999999999997 405.12484151992885, 17.240666666666666 405.23550818659555, 17.241999999999997 405.3421748532622 C 17.243333333333332 405.4488415199288, 17.246666666666666 405.52884151992885, 17.252 405.5821748532622 C 17.262666666666668 405.70217485326214, 17.297333333333334 405.8001748532622, 17.355999999999998 405.87617485326217 C 17.414666666666665 405.95217485326214, 17.497333333333334 406.0061748532621, 17.604 406.03817485326215 L 17.604 406.93017485326214 C 17.110666666666663 406.8928415199288, 16.75333333333333 406.7581748532622, 16.532 406.52617485326215 C 16.310666666666666 406.2941748532621, 16.19333333333333 405.93417485326216, 16.18 405.44617485326216 Z M 16.279999999999998 404.11017485326215 L 16.279999999999998 400.4621748532622 L 17.348 400.4621748532622 L 17.348 404.11017485326215 Z M 17.852 403.6861748532622 L 17.852 402.93017485326214 C 17.929333333333332 402.8901748532621, 18.014666666666667 402.8581748532622, 18.107999999999997 402.83417485326214 C 18.20133333333333 402.8101748532622, 18.301333333333332 402.79817485326214, 18.407999999999998 402.79817485326214 C 18.773333333333333 402.79817485326214, 19.047333333333334 402.9135081865955, 19.23 403.14417485326214 C 19.412666666666667 403.3748415199288, 19.514666666666663 403.6888415199288, 19.535999999999998 404.08617485326215 C 19.546666666666667 404.2461748532621, 19.55333333333333 404.4048415199288, 19.555999999999997 404.56217485326215 C 19.558666666666664 404.7195081865955, 19.557333333333332 404.8728415199288, 19.552 405.0221748532622 C 19.546666666666667 405.1715081865955, 19.538666666666668 405.31150818659546, 19.528 405.44217485326215 C 19.482666666666667 405.94084151992877, 19.353333333333335 406.3061748532622, 19.14 406.53817485326215 C 18.926666666666666 406.7701748532621, 18.581333333333333 406.9008415199288, 18.104 406.93017485326214 L 18.104 406.03817485326215 C 18.21333333333333 406.00884151992886, 18.296 405.95617485326216, 18.352 405.88017485326213 C 18.408 405.8041748532621, 18.44 405.7048415199288, 18.448 405.5821748532622 C 18.471999999999998 405.2915081865955, 18.485999999999997 405.03017485326217, 18.49 404.79817485326214 C 18.494 404.56617485326217, 18.485333333333333 404.3448415199289, 18.464 404.13417485326215 C 18.447999999999997 403.97950818659547, 18.396666666666665 403.86417485326217, 18.31 403.78817485326215 C 18.223333333333333 403.7121748532621, 18.090666666666664 403.6741748532622, 17.912 403.6741748532622 C 17.901333333333334 403.6741748532622, 17.890666666666668 403.6755081865955, 17.88 403.67817485326214 C 17.86933333333333 403.68084151992883, 17.86 403.68350818659553, 17.852 403.6861748532622 Z M 17.852 401.39417485326214 L 17.852 400.4621748532622 L 19.439999999999998 400.4621748532622 L 19.439999999999998 401.39417485326214 Z M 21.944 406.86217485326216 L 21.944 400.4621748532622 L 23.003999999999998 400.4621748532622 L 23.003999999999998 406.86217485326216 Z " stroke="none" fill-rule="nonzero" fill="#000000" fill-opacity="1" transform="matrix(1,0,0,1,5.05,13.314)" id="text5 l" />
  <path d="M 0 401.656572163212 L 10 401.656572163212 L 10 403.156572163212 L 0 403.156572163212 Z " stroke="none" fill-rule="evenodd" fill="#000000" fill-opacity="1" transform="matrix(1,0,0,1,5.05,13.314)" id="mark6 l" />
  <path d="M 0 395.36896947316177 L 10 395.36896947316177 L 10 396.86896947316177 L 0 396.86896947316177 Z " stroke="none" fill-rule="evenodd" fill="#000000" fill-opacity="1" transform="matrix(1,0,0,1,5.05,13.314)" id="mark7 l" />
  <path d="M 0 389.0813667831116 L 10 389.0813667831116 L 10 390.5813667831116 L 0 390.5813667831116 Z " stroke="none" fill-rule="evenodd" fill="#000000" fill-opacity="1" transform="matrix(1,0,0,1,5.05,13.314)" id="mark8 l" />
  <path d="M 0 382.7937640930614 L 10 382.7937640930614 L 10 384.2937640930614 L 0 384.2937640930614 Z " stroke="none" fill-rule="evenodd" fill="#000000" fill-opacity="1" transform="matrix(1,0,0,1,5.05,13.314)" id="mark9 l" />
  <path d="M 0 376.5061614030112 L 25 376.5061614030112 L 25 378.0061614030112 L 0 378.0061614030112 Z " stroke="none" fill-rule="evenodd" fill="#000000" fill-opacity="1" transform="matrix(1,0,0,1,5.05,13.314)" id="mark10 l" />
  <path d="M 14.323999999999998 375.4561614030112 L 14.323999999999998 370.0121614030112 L 13.871999999999998 370.0121614030112 L 13.839999999999998 369.6321614030112 L 14.543999999999999 369.05616140301123 L 15.424 369.05616140301123 L 15.424 375.4561614030112 Z M 16.196 374.04416140301123 C 16.188000000000002 373.6148280696779, 16.182666666666666 373.1981614030112, 16.18 372.79416140301123 C 16.177333333333333 372.39016140301123, 16.177999999999997 371.9948280696779, 16.182 371.6081614030112 C 16.186 371.22149473634454, 16.190666666666665 370.84016140301117, 16.196 370.4641614030112 C 16.209333333333333 370.02416140301125, 16.334000000000003 369.6788280696779, 16.57 369.4281614030112 C 16.805999999999997 369.17749473634456, 17.142666666666663 369.03216140301123, 17.58 368.9921614030112 L 17.58 369.8801614030112 C 17.382666666666665 369.93616140301117, 17.281333333333333 370.06549473634453, 17.276 370.2681614030112 C 17.262666666666668 370.63882806967786, 17.253333333333334 370.98682806967787, 17.248 371.3121614030112 C 17.242666666666665 371.63749473634454, 17.24 371.9541614030112, 17.24 372.2621614030112 C 17.24 372.5701614030112, 17.242666666666665 372.88482806967784, 17.248 373.2061614030112 C 17.253333333333334 373.5274947363446, 17.262666666666668 373.8708280696779, 17.276 374.2361614030112 C 17.281333333333333 374.4441614030112, 17.382666666666665 374.5761614030112, 17.58 374.6321614030112 L 17.58 375.52016140301123 C 17.142666666666663 375.48016140301127, 16.805999999999997 375.3341614030112, 16.57 375.0821614030112 C 16.334000000000003 374.8301614030112, 16.209333333333333 374.4841614030112, 16.196 374.04416140301123 Z M 18.084 375.52016140301123 L 18.084 374.62816140301123 C 18.268 374.5748280696779, 18.366666666666667 374.45082806967787, 18.38 374.2561614030112 C 18.398666666666667 373.7894947363445, 18.410666666666668 373.34082806967785, 18.416 372.9101614030112 C 18.421333333333333 372.4794947363446, 18.421333333333333 372.0488280696779, 18.416 371.6181614030112 C 18.410666666666668 371.18749473634455, 18.398666666666667 370.73482806967786, 18.38 370.2601614030112 C 18.374666666666666 370.06549473634453, 18.276 369.93882806967787, 18.084 369.8801614030112 L 18.084 368.9921614030112 C 18.513333333333335 369.03216140301123, 18.846666666666668 369.17749473634456, 19.084 369.4281614030112 C 19.321333333333335 369.6788280696779, 19.445333333333334 370.02416140301125, 19.456 370.4641614030112 C 19.46666666666667 370.77882806967784, 19.474666666666668 371.0888280696779, 19.48 371.3941614030112 C 19.485333333333333 371.69949473634455, 19.488 372.0001614030112, 19.488 372.2961614030112 C 19.488 372.5921614030112, 19.485333333333333 372.8854947363445, 19.48 373.17616140301124 C 19.474666666666668 373.4668280696779, 19.46666666666667 373.7561614030112, 19.456 374.04416140301123 C 19.439999999999998 374.4948280696779, 19.311999999999998 374.84349473634455, 19.072 375.0901614030112 C 18.832 375.3368280696779, 18.502666666666666 375.48016140301127, 18.084 375.52016140301123 Z M 21.944 375.4561614030112 L 21.944 369.05616140301123 L 23.003999999999998 369.05616140301123 L 23.003999999999998 375.4561614030112 Z " stroke="none" fill-rule="nonzero" fill="#000000" fill-opacity="1" transform="matrix(1,0,0,1,5.05,13.314)" id="text10 l" />
  <path d="M 0 370.218558712961 L 10 370.218558712961 L 10 371.718558712961 L 0 371.718558712961 Z " stroke="none" fill-rule="evenodd" fill="#000000" fill-opacity="1" transform="matrix(1,0,0,1,5.05,13.314)" id="mark11 l" />
  <path d="M 0 363.93095602291083 L 10 363.93095602291083 L 10 365.43095602291083 L 0 365.43095602291083 Z " stroke="none" fill-rule="evenodd" fill="#000000" fill-opacity="1" transform="matrix(1,0,0,1,5.05,13.314)" id="mark12 l" />
  <path d="M 0 357.64335333286067 L 10 357.64335333286067 L 10 359.14335333286067 L 0 359.14335333286067 Z " stroke="none" fill-rule="evenodd" fill="#000000" fill-opacity="1" transform="matrix(1,0,0,1,5.05,13.314)" id="mark13 l" />
  <path d="M 0 351.35575064281045 L 10 351.35575064281045 L 10 352.85575064281045 L 0 352.85575064281045 Z " stroke="none" fill-rule="evenodd" fill="#000000" fill-opacity="1" transform="matrix(1,0,0,1,5.05,13.314)" id="mark14 l" />
  <path d="M 0 345.0681479527603 L 25 345.0681479527603 L 25 346.5681479527603 L 0 346.5681479527603 Z " stroke="none" fill-rule="evenodd" fill="#000000" fill-opacity="1" transform="matrix(1,0,0,1,5.05,13.314)" id="mark15 l" />
  <path d="M 14.331999999999999 343.9861479527603 L 14.331999999999999 338.5421479527603 L 13.879999999999999 338.5421479527603 L 13.847999999999999 338.1621479527603 L 14.552 337.5861479527603 L 15.432 337.5861479527603 L 15.432 343.9861479527603 Z M 16.18 342.5701479527603 C 16.174666666666667 342.39681461942695, 16.173333333333332 342.2574812860936, 16.176 342.1521479527603 C 16.178666666666665 342.046814619427, 16.181333333333335 341.94481461942695, 16.183999999999997 341.8461479527603 L 17.264 341.8461479527603 C 17.256 341.92348128609365, 17.25 342.01948128609365, 17.246 342.1341479527603 C 17.241999999999997 342.248814619427, 17.240666666666666 342.3594812860936, 17.241999999999997 342.4661479527603 C 17.243333333333332 342.57281461942694, 17.246666666666666 342.652814619427, 17.252 342.7061479527603 C 17.262666666666668 342.82614795276027, 17.297333333333334 342.9241479527603, 17.355999999999998 343.0001479527603 C 17.414666666666665 343.07614795276027, 17.497333333333334 343.1301479527603, 17.604 343.1621479527603 L 17.604 344.0541479527603 C 17.110666666666663 344.01681461942695, 16.75333333333333 343.8821479527603, 16.532 343.6501479527603 C 16.310666666666666 343.41814795276025, 16.19333333333333 343.0581479527603, 16.18 342.5701479527603 Z M 16.279999999999998 341.2341479527603 L 16.279999999999998 337.5861479527603 L 17.348 337.5861479527603 L 17.348 341.2341479527603 Z M 17.852 340.8101479527603 L 17.852 340.0541479527603 C 17.929333333333332 340.01414795276025, 18.014666666666667 339.9821479527603, 18.107999999999997 339.95814795276027 C 18.20133333333333 339.93414795276027, 18.301333333333332 339.92214795276027, 18.407999999999998 339.92214795276027 C 18.773333333333333 339.92214795276027, 19.047333333333334 340.0374812860936, 19.23 340.2681479527603 C 19.412666666666667 340.4988146194269, 19.514666666666663 340.81281461942694, 19.535999999999998 341.2101479527603 C 19.546666666666667 341.3701479527603, 19.55333333333333 341.52881461942695, 19.555999999999997 341.6861479527603 C 19.558666666666664 341.8434812860936, 19.557333333333332 341.99681461942697, 19.552 342.1461479527603 C 19.546666666666667 342.29548128609366, 19.538666666666668 342.43548128609365, 19.528 342.5661479527603 C 19.482666666666667 343.06481461942695, 19.353333333333335 343.4301479527603, 19.14 343.6621479527603 C 18.926666666666666 343.89414795276025, 18.581333333333333 344.02481461942693, 18.104 344.0541479527603 L 18.104 343.1621479527603 C 18.21333333333333 343.13281461942694, 18.296 343.0801479527603, 18.352 343.00414795276026 C 18.408 342.92814795276024, 18.44 342.82881461942696, 18.448 342.7061479527603 C 18.471999999999998 342.4154812860936, 18.485999999999997 342.1541479527603, 18.49 341.92214795276027 C 18.494 341.6901479527603, 18.485333333333333 341.468814619427, 18.464 341.2581479527603 C 18.447999999999997 341.1034812860936, 18.396666666666665 340.9881479527603, 18.31 340.9121479527603 C 18.223333333333333 340.8361479527603, 18.090666666666664 340.7981479527603, 17.912 340.7981479527603 C 17.901333333333334 340.7981479527603, 17.890666666666668 340.7994812860936, 17.88 340.80214795276027 C 17.86933333333333 340.80481461942696, 17.86 340.8074812860936, 17.852 340.8101479527603 Z M 17.852 338.5181479527603 L 17.852 337.5861479527603 L 19.439999999999998 337.5861479527603 L 19.439999999999998 338.5181479527603 Z M 21.944 343.9861479527603 L 21.944 337.5861479527603 L 23.003999999999998 337.5861479527603 L 23.003999999999998 343.9861479527603 Z " stroke="none" fill-rule="nonzero" fill="#000000" fill-opacity="1" transform="matrix(1,0,0,1,5.05,13.314)" id="text15 l" />
  <path d="M 0 338.7805452627101 L 10 338.7805452627101 L 10 340.2805452627101 L 0 340.2805452627101 Z " stroke="none" fill-rule="evenodd" fill="#000000" fill-opacity="1" transform="matrix(1,0,0,1,5.05,13.314)" id="mark16 l" />
  <path d="M 0 332.4929425726599 L 10 332.4929425726599 L 10 333.9929425726599 L 0 333.9929425726599 Z " stroke="none" fill-rule="evenodd" fill="#000000" fill-opacity="1" transform="matrix(1,0,0,1,5.05,13.314)" id="mark17 l" />
  <path d="M 0 326.20533988260974 L 10 326.20533988260974 L 10 327.70533988260974 L 0 327.70533988260974 Z " stroke="none" fill-rule="evenodd" fill="#000000" fill-opacity="1" transform="matrix(1,0,0,1,5.05,13.314)" id="mark18 l" />
  <path d="M 0 319.91773719255957 L 10 319.91773719255957 L 10 321.41773719255957 L 0 321.41773719255957 Z " stroke="none" fill-rule="evenodd" fill="#000000" fill-opacity="1" transform="matrix(1,0,0,1,5.05,13.314)" id="mark19 l" />
  <path d="M 0 313.63013450250935 L 25 313.63013450250935 L 25 315.13013450250935 L 0 315.13013450250935 Z " stroke="none" fill-rule="evenodd" fill="#000000" fill-opacity="1" transform="matrix(1,0,0,1,5.05,13.314)" id="mark20 l" />
  <path d="M 12.319999999999999 312.58013450250934 C 12.317333333333334 312.48146783584264, 12.315333333333331 312.392801169176, 12.313999999999998 312.3141345025093 C 12.312666666666665 312.23546783584266, 12.311333333333334 312.1614678358427, 12.309999999999999 312.09213450250934 C 12.308666666666667 312.022801169176, 12.308 311.950801169176, 12.308 311.87613450250933 C 12.308 311.8014678358427, 12.308 311.716801169176, 12.308 311.6221345025093 C 12.308 311.52746783584263, 12.309333333333335 311.41613450250935, 12.312 311.28813450250937 C 12.32 310.994801169176, 12.37 310.732801169176, 12.462 310.50213450250936 C 12.554 310.2714678358427, 12.687999999999999 310.0654678358427, 12.863999999999999 309.8841345025093 C 13.04 309.702801169176, 13.257333333333333 309.5414678358427, 13.515999999999998 309.40013450250933 L 14.047999999999998 309.1121345025093 C 14.234666666666666 309.01080116917603, 14.354 308.888801169176, 14.405999999999999 308.74613450250934 C 14.457999999999998 308.60346783584265, 14.488 308.4694678358427, 14.495999999999999 308.34413450250935 C 14.506666666666664 308.19746783584264, 14.512666666666664 308.040801169176, 14.514 307.8741345025093 C 14.51533333333333 307.70746783584264, 14.511999999999997 307.550801169176, 14.504 307.40413450250935 C 14.498666666666665 307.30013450250937, 14.468666666666666 307.21413450250935, 14.413999999999998 307.1461345025093 C 14.359333333333332 307.07813450250933, 14.279999999999998 307.0294678358427, 14.175999999999998 307.00013450250935 L 14.175999999999998 306.1121345025093 C 14.663999999999998 306.14413450250936, 15.014 306.2754678358427, 15.225999999999999 306.5061345025093 C 15.437999999999999 306.736801169176, 15.554666666666666 307.0974678358427, 15.575999999999999 307.5881345025093 C 15.578666666666663 307.65213450250934, 15.580666666666666 307.7174678358427, 15.581999999999999 307.78413450250935 C 15.583333333333332 307.850801169176, 15.584 307.91546783584266, 15.584 307.97813450250936 C 15.584 308.040801169176, 15.583333333333332 308.102801169176, 15.581999999999999 308.16413450250934 C 15.580666666666666 308.22546783584266, 15.578666666666663 308.28546783584267, 15.575999999999999 308.34413450250935 C 15.565333333333331 308.62946783584266, 15.512 308.87613450250933, 15.415999999999999 309.08413450250936 C 15.32 309.2921345025093, 15.19 309.47213450250933, 15.026 309.6241345025093 C 14.862 309.7761345025093, 14.672 309.91213450250933, 14.456 310.03213450250934 L 13.851999999999999 310.3601345025093 C 13.737333333333332 310.4214678358427, 13.647333333333332 310.50546783584264, 13.581999999999999 310.6121345025093 C 13.516666666666666 310.718801169176, 13.469999999999999 310.83213450250935, 13.441999999999998 310.95213450250935 C 13.413999999999998 311.07213450250936, 13.399999999999999 311.1841345025094, 13.399999999999999 311.28813450250937 L 13.399999999999999 312.58013450250934 Z M 12.328 308.5401345025093 C 12.322666666666667 308.422801169176, 12.318666666666665 308.30813450250935, 12.315999999999999 308.1961345025093 C 12.313333333333333 308.0841345025093, 12.311333333333334 307.9781345025093, 12.309999999999999 307.87813450250934 C 12.308666666666667 307.7781345025094, 12.309333333333335 307.6814678358427, 12.312 307.5881345025093 C 12.330666666666666 307.1001345025093, 12.447333333333333 306.740801169176, 12.661999999999999 306.51013450250935 C 12.876666666666665 306.2794678358427, 13.213333333333331 306.146801169176, 13.671999999999999 306.1121345025093 L 13.671999999999999 307.0041345025093 C 13.576 307.03346783584266, 13.505333333333333 307.08013450250934, 13.459999999999999 307.14413450250936 C 13.414666666666665 307.2081345025094, 13.390666666666664 307.2854678358427, 13.387999999999998 307.37613450250933 C 13.382666666666665 307.5841345025093, 13.379333333333333 307.7774678358427, 13.378 307.9561345025093 C 13.376666666666667 308.134801169176, 13.381333333333334 308.32946783584265, 13.392 308.5401345025093 Z M 13.904 312.58013450250934 L 13.904 311.6481345025093 L 15.5 311.6481345025093 L 15.5 312.58013450250934 Z M 16.196 311.16813450250936 C 16.188000000000002 310.738801169176, 16.182666666666666 310.32213450250936, 16.18 309.91813450250936 C 16.177333333333333 309.51413450250936, 16.177999999999997 309.118801169176, 16.182 308.7321345025093 C 16.186 308.34546783584267, 16.190666666666665 307.96413450250935, 16.196 307.5881345025093 C 16.209333333333333 307.1481345025093, 16.334000000000003 306.802801169176, 16.57 306.5521345025093 C 16.805999999999997 306.3014678358427, 17.142666666666663 306.15613450250936, 17.58 306.11613450250934 L 17.58 307.0041345025093 C 17.382666666666665 307.0601345025093, 17.281333333333333 307.18946783584266, 17.276 307.39213450250935 C 17.262666666666668 307.762801169176, 17.253333333333334 308.110801169176, 17.248 308.43613450250933 C 17.242666666666665 308.76146783584267, 17.24 309.07813450250933, 17.24 309.3861345025093 C 17.24 309.6941345025093, 17.242666666666665 310.00880116917597, 17.248 310.33013450250934 C 17.253333333333334 310.6514678358427, 17.262666666666668 310.994801169176, 17.276 311.3601345025093 C 17.281333333333333 311.56813450250934, 17.382666666666665 311.70013450250934, 17.58 311.7561345025093 L 17.58 312.64413450250936 C 17.142666666666663 312.60413450250934, 16.805999999999997 312.4581345025093, 16.57 312.2061345025093 C 16.334000000000003 311.9541345025093, 16.209333333333333 311.6081345025093, 16.196 311.16813450250936 Z M 18.084 312.64413450250936 L 18.084 311.75213450250936 C 18.268 311.698801169176, 18.366666666666667 311.574801169176, 18.38 311.38013450250935 C 18.398666666666667 310.9134678358427, 18.410666666666668 310.46480116917604, 18.416 310.03413450250935 C 18.421333333333333 309.60346783584265, 18.421333333333333 309.17280116917595, 18.416 308.7421345025093 C 18.410666666666668 308.3114678358427, 18.398666666666667 307.858801169176, 18.38 307.3841345025093 C 18.374666666666666 307.18946783584266, 18.276 307.062801169176, 18.084 307.0041345025093 L 18.084 306.11613450250934 C 18.513333333333335 306.15613450250936, 18.846666666666668 306.3014678358427, 19.084 306.5521345025093 C 19.321333333333335 306.802801169176, 19.445333333333334 307.1481345025093, 19.456 307.5881345025093 C 19.46666666666667 307.90280116917603, 19.474666666666668 308.21280116917603, 19.48 308.5181345025093 C 19.485333333333333 308.8234678358427, 19.488 309.1241345025094, 19.488 309.4201345025093 C 19.488 309.71613450250936, 19.485333333333333 310.00946783584266, 19.48 310.30013450250937 C 19.474666666666668 310.590801169176, 19.46666666666667 310.88013450250935, 19.456 311.16813450250936 C 19.439999999999998 311.618801169176, 19.311999999999998 311.9674678358427, 19.072 312.21413450250935 C 18.832 312.460801169176, 18.502666666666666 312.60413450250934, 18.084 312.64413450250936 Z M 21.944 312.58013450250934 L 21.944 306.18013450250936 L 23.003999999999998 306.18013450250936 L 23.003999999999998 312.58013450250934 Z " stroke="none" fill-rule="nonzero" fill="#000000" fill-opacity="1" transform="matrix(1,0,0,1,5.05,13.314)" id="text20 l" />
  <path d="M 0 307.34253181245913 L 10 307.34253181245913 L 10 308.84253181245913 L 0 308.84253181245913 Z " stroke="none" fill-rule="evenodd" fill="#000000" fill-opacity="1" transform="matrix(1,0,0,1,5.05,13.314)" id="mark21 l" />
  <path d="M 0 301.05492912240896 L 10 301.05492912240896 L 10 302.55492912240896 L 0 302.55492912240896 Z " stroke="none" fill-rule="evenodd" fill="#000000" fill-opacity="1" transform="matrix(1,0,0,1,5.05,13.314)" id="mark22 l" />
  <path d="M 0 294.7673264323588 L 10 294.7673264323588 L 10 296.2673264323588 L 0 296.2673264323588 Z " stroke="none" fill-rule="evenodd" fill="#000000" fill-opacity="1" transform="matrix(1,0,0,1,5.05,13.314)" id="mark23 l" />
  <path d="M 0 288.4797237423086 L 10 288.4797237423086 L 10 289.9797237423086 L 0 289.9797237423086 Z " stroke="none" fill-rule="evenodd" fill="#000000" fill-opacity="1" transform="matrix(1,0,0,1,5.05,13.314)" id="mark24 l" />
  <path d="M 0 282.1921210522584 L 25 282.1921210522584 L 25 283.6921210522584 L 0 283.6921210522584 Z " stroke="none" fill-rule="evenodd" fill="#000000" fill-opacity="1" transform="matrix(1,0,0,1,5.05,13.314)" id="mark25 l" />
  <path d="M 12.328 281.1421210522584 C 12.325333333333333 281.0434543855917, 12.323333333333332 280.95478771892505, 12.322 280.8761210522584 C 12.320666666666666 280.7974543855917, 12.319333333333333 280.7234543855917, 12.318 280.6541210522584 C 12.316666666666666 280.5847877189251, 12.315999999999999 280.5127877189251, 12.316 280.4381210522584 C 12.315999999999999 280.36345438559175, 12.315999999999999 280.27878771892506, 12.316 280.1841210522584 C 12.315999999999999 280.0894543855917, 12.317333333333334 279.9781210522584, 12.32 279.85012105225843 C 12.328 279.5567877189251, 12.378 279.294787718925, 12.47 279.06412105225843 C 12.562000000000001 278.8334543855917, 12.696 278.6274543855917, 12.872 278.4461210522584 C 13.048 278.26478771892505, 13.265333333333334 278.1034543855917, 13.524000000000001 277.9621210522584 L 14.056000000000001 277.6741210522584 C 14.242666666666668 277.57278771892504, 14.362000000000002 277.4507877189251, 14.414 277.3081210522584 C 14.466000000000001 277.1654543855917, 14.495999999999999 277.0314543855917, 14.504 276.9061210522584 C 14.514666666666667 276.75945438559177, 14.520666666666667 276.6027877189251, 14.522 276.4361210522584 C 14.523333333333333 276.2694543855917, 14.520000000000001 276.11278771892506, 14.512 275.9661210522584 C 14.506666666666666 275.86212105225843, 14.476666666666667 275.7761210522584, 14.422 275.7081210522584 C 14.367333333333335 275.6401210522584, 14.288 275.59145438559176, 14.184000000000001 275.5621210522584 L 14.184000000000001 274.6741210522584 C 14.672 274.70612105225837, 15.022000000000002 274.83745438559174, 15.234 275.0681210522584 C 15.446000000000002 275.29878771892504, 15.562666666666667 275.65945438559174, 15.584 276.1501210522584 C 15.586666666666668 276.2141210522584, 15.588666666666668 276.27945438559175, 15.59 276.3461210522584 C 15.591333333333335 276.4127877189251, 15.592000000000002 276.4774543855917, 15.592 276.5401210522584 C 15.592000000000002 276.6027877189251, 15.591333333333335 276.6647877189251, 15.59 276.7261210522584 C 15.588666666666668 276.78745438559173, 15.586666666666668 276.84745438559173, 15.584 276.9061210522584 C 15.573333333333332 277.1914543855918, 15.52 277.43812105225845, 15.424 277.6461210522584 C 15.328 277.8541210522584, 15.197999999999999 278.0341210522584, 15.033999999999999 278.1861210522584 C 14.87 278.3381210522584, 14.68 278.4741210522584, 14.464 278.5941210522584 L 13.86 278.9221210522584 C 13.745333333333335 278.98345438559176, 13.655333333333335 279.06745438559176, 13.59 279.1741210522584 C 13.524666666666668 279.28078771892507, 13.478000000000002 279.3941210522584, 13.45 279.5141210522584 C 13.422 279.6341210522584, 13.408 279.74612105225845, 13.408 279.85012105225843 L 13.408 281.1421210522584 Z M 12.336 277.1021210522584 C 12.330666666666666 276.9847877189251, 12.326666666666664 276.8701210522584, 12.324 276.7581210522584 C 12.321333333333332 276.64612105225837, 12.319333333333333 276.54012105225837, 12.318 276.4401210522584 C 12.316666666666666 276.34012105225844, 12.317333333333334 276.24345438559175, 12.32 276.1501210522584 C 12.338666666666668 275.6621210522584, 12.455333333333336 275.30278771892506, 12.67 275.0721210522584 C 12.884666666666668 274.84145438559176, 13.221333333333334 274.70878771892507, 13.68 274.6741210522584 L 13.68 275.5661210522584 C 13.584 275.5954543855917, 13.513333333333332 275.6421210522584, 13.468 275.7061210522584 C 13.422666666666668 275.77012105225845, 13.398666666666667 275.84745438559173, 13.396 275.9381210522584 C 13.390666666666666 276.1461210522584, 13.387333333333332 276.33945438559175, 13.386 276.5181210522584 C 13.384666666666666 276.69678771892507, 13.389333333333333 276.8914543855917, 13.4 277.1021210522584 Z M 13.911999999999999 281.1421210522584 L 13.911999999999999 280.2101210522584 L 15.508 280.2101210522584 L 15.508 281.1421210522584 Z M 16.18 279.7261210522584 C 16.174666666666667 279.55278771892506, 16.173333333333332 279.41345438559176, 16.176 279.3081210522584 C 16.178666666666665 279.20278771892504, 16.181333333333335 279.10078771892506, 16.183999999999997 279.0021210522584 L 17.264 279.0021210522584 C 17.256 279.0794543855917, 17.25 279.1754543855917, 17.246 279.2901210522584 C 17.241999999999997 279.40478771892504, 17.240666666666666 279.51545438559174, 17.241999999999997 279.6221210522584 C 17.243333333333332 279.72878771892505, 17.246666666666666 279.8087877189251, 17.252 279.86212105225843 C 17.262666666666668 279.9821210522584, 17.297333333333334 280.0801210522584, 17.355999999999998 280.1561210522584 C 17.414666666666665 280.2321210522584, 17.497333333333334 280.2861210522584, 17.604 280.3181210522584 L 17.604 281.2101210522584 C 17.110666666666663 281.17278771892506, 16.75333333333333 281.0381210522584, 16.532 280.8061210522584 C 16.310666666666666 280.57412105225836, 16.19333333333333 280.2141210522584, 16.18 279.7261210522584 Z M 16.279999999999998 278.3901210522584 L 16.279999999999998 274.7421210522584 L 17.348 274.7421210522584 L 17.348 278.3901210522584 Z M 17.852 277.9661210522584 L 17.852 277.2101210522584 C 17.929333333333332 277.17012105225837, 18.014666666666667 277.1381210522584, 18.107999999999997 277.1141210522584 C 18.20133333333333 277.0901210522584, 18.301333333333332 277.0781210522584, 18.407999999999998 277.0781210522584 C 18.773333333333333 277.0781210522584, 19.047333333333334 277.19345438559174, 19.23 277.4241210522584 C 19.412666666666667 277.65478771892504, 19.514666666666663 277.96878771892506, 19.535999999999998 278.3661210522584 C 19.546666666666667 278.5261210522584, 19.55333333333333 278.68478771892507, 19.555999999999997 278.8421210522584 C 19.558666666666664 278.9994543855917, 19.557333333333332 279.1527877189251, 19.552 279.3021210522584 C 19.546666666666667 279.4514543855918, 19.538666666666668 279.59145438559176, 19.528 279.7221210522584 C 19.482666666666667 280.22078771892507, 19.353333333333335 280.58612105225836, 19.14 280.8181210522584 C 18.926666666666666 281.0501210522584, 18.581333333333333 281.1807877189251, 18.104 281.2101210522584 L 18.104 280.3181210522584 C 18.21333333333333 280.28878771892505, 18.296 280.2361210522584, 18.352 280.1601210522584 C 18.408 280.0841210522584, 18.44 279.9847877189251, 18.448 279.86212105225843 C 18.471999999999998 279.5714543855917, 18.485999999999997 279.3101210522584, 18.49 279.0781210522584 C 18.494 278.8461210522584, 18.485333333333333 278.62478771892506, 18.464 278.4141210522584 C 18.447999999999997 278.25945438559177, 18.396666666666665 278.1441210522584, 18.31 278.0681210522584 C 18.223333333333333 277.9921210522584, 18.090666666666664 277.9541210522584, 17.912 277.9541210522584 C 17.901333333333334 277.9541210522584, 17.890666666666668 277.95545438559174, 17.88 277.9581210522584 C 17.86933333333333 277.9607877189251, 17.86 277.9634543855917, 17.852 277.9661210522584 Z M 17.852 275.6741210522584 L 17.852 274.7421210522584 L 19.439999999999998 274.7421210522584 L 19.439999999999998 275.6741210522584 Z M 21.944 281.1421210522584 L 21.944 274.7421210522584 L 23.003999999999998 274.7421210522584 L 23.003999999999998 281.1421210522584 Z " stroke="none" fill-rule="nonzero" fill="#000000" fill-opacity="1" transform="matrix(1,0,0,1,5.05,13.314)" id="text25 l" />
  <path d="M 0 275.90451836220825 L 10 275.90451836220825 L 10 277.40451836220825 L 0 277.40451836220825 Z " stroke="none" fill-rule="evenodd" fill="#000000" fill-opacity="1" transform="matrix(1,0,0,1,5.05,13.314)" id="mark26 l" />
  <path d="M 0 269.61691567215803 L 10 269.61691567215803 L 10 271.11691567215803 L 0 271.11691567215803 Z " stroke="none" fill-rule="evenodd" fill="#000000" fill-opacity="1" transform="matrix(1,0,0,1,5.05,13.314)" id="mark27 l" />
  <path d="M 0 263.32931298210787 L 10 263.32931298210787 L 10 264.82931298210787 L 0 264.82931298210787 Z " stroke="none" fill-rule="evenodd" fill="#000000" fill-opacity="1" transform="matrix(1,0,0,1,5.05,13.314)" id="mark28 l" />
  <path d="M 0 257.0417102920577 L 10 257.0417102920577 L 10 258.5417102920577 L 0 258.5417102920577 Z " stroke="none" fill-rule="evenodd" fill="#000000" fill-opacity="1" transform="matrix(1,0,0,1,5.05,13.314)" id="mark29 l" />
  <path d="M 0 250.75410760200748 L 25 250.75410760200748 L 25 252.25410760200748 L 0 252.25410760200748 Z " stroke="none" fill-rule="evenodd" fill="#000000" fill-opacity="1" transform="matrix(1,0,0,1,5.05,13.314)" id="mark30 l" />
  <path d="M 12.223999999999998 248.2881076020075 C 12.221333333333334 248.18677426867416, 12.219333333333333 248.10277426867415, 12.218 248.0361076020075 C 12.216666666666667 247.96944093534083, 12.216666666666667 247.90144093534082, 12.218 247.8321076020075 C 12.219333333333333 247.76277426867415, 12.221333333333334 247.67344093534084, 12.223999999999998 247.5641076020075 L 13.303999999999998 247.5641076020075 L 13.303999999999998 248.4281076020075 C 13.303999999999998 248.66544093534083, 13.417333333333332 248.8161076020075, 13.643999999999998 248.88010760200748 L 13.643999999999998 249.7721076020075 C 13.155999999999999 249.7347742686742, 12.800666666666665 249.60010760200748, 12.578 249.36810760200748 C 12.355333333333334 249.13610760200748, 12.237333333333332 248.7761076020075, 12.223999999999998 248.2881076020075 Z M 12.292 244.2361076020075 L 12.292 243.3041076020075 L 15.536 243.3041076020075 L 15.536 244.2361076020075 Z M 14.143999999999998 248.8841076020075 C 14.367999999999999 248.8281076020075, 14.483999999999998 248.67744093534083, 14.491999999999999 248.4321076020075 C 14.497333333333334 248.22944093534085, 14.500666666666666 248.0467742686742, 14.501999999999999 247.8841076020075 C 14.503333333333332 247.72144093534087, 14.498666666666665 247.5641076020075, 14.488 247.4121076020075 C 14.48 247.25477426867417, 14.431999999999999 247.12144093534084, 14.344 247.0121076020075 C 14.256 246.90277426867414, 14.089333333333332 246.85077426867417, 13.844 246.85610760200748 L 13.096 246.8641076020075 L 13.068 245.9721076020075 L 14.027999999999999 244.58810760200748 L 15.216 244.58810760200748 L 14.248 245.9401076020075 L 14.28 245.9401076020075 C 14.712 245.9401076020075, 15.028666666666666 246.06277426867416, 15.229999999999999 246.3081076020075 C 15.431333333333333 246.55344093534083, 15.544 246.93077426867416, 15.568 247.4401076020075 C 15.57333333333333 247.5121076020075, 15.576666666666664 247.5841076020075, 15.578 247.6561076020075 C 15.57933333333333 247.7281076020075, 15.579999999999998 247.79877426867415, 15.579999999999998 247.86810760200748 C 15.579999999999998 247.93744093534082, 15.57933333333333 248.00677426867418, 15.578 248.07610760200748 C 15.576666666666664 248.14544093534084, 15.57333333333333 248.2161076020075, 15.568 248.2881076020075 C 15.549333333333333 248.7841076020075, 15.428666666666665 249.14877426867417, 15.206 249.3821076020075 C 14.983333333333334 249.6154409353408, 14.630666666666666 249.7454409353408, 14.148 249.7721076020075 Z M 16.196 248.2921076020075 C 16.188000000000002 247.86277426867417, 16.182666666666666 247.4461076020075, 16.18 247.0421076020075 C 16.177333333333333 246.6381076020075, 16.177999999999997 246.24277426867417, 16.182 245.85610760200748 C 16.186 245.4694409353408, 16.190666666666665 245.08810760200748, 16.196 244.7121076020075 C 16.209333333333333 244.2721076020075, 16.334000000000003 243.9267742686742, 16.57 243.6761076020075 C 16.805999999999997 243.42544093534082, 17.142666666666663 243.2801076020075, 17.58 243.2401076020075 L 17.58 244.1281076020075 C 17.382666666666665 244.1841076020075, 17.281333333333333 244.31344093534085, 17.276 244.5161076020075 C 17.262666666666668 244.88677426867417, 17.253333333333334 245.23477426867416, 17.248 245.5601076020075 C 17.242666666666665 245.88544093534082, 17.24 246.20210760200752, 17.24 246.5101076020075 C 17.24 246.8181076020075, 17.242666666666665 247.13277426867415, 17.248 247.4541076020075 C 17.253333333333334 247.77544093534084, 17.262666666666668 248.11877426867414, 17.276 248.4841076020075 C 17.281333333333333 248.69210760200752, 17.382666666666665 248.82410760200753, 17.58 248.88010760200748 L 17.58 249.7681076020075 C 17.142666666666663 249.72810760200747, 16.805999999999997 249.5821076020075, 16.57 249.3301076020075 C 16.334000000000003 249.0781076020075, 16.209333333333333 248.7321076020075, 16.196 248.2921076020075 Z M 18.084 249.7681076020075 L 18.084 248.8761076020075 C 18.268 248.82277426867418, 18.366666666666667 248.69877426867419, 18.38 248.5041076020075 C 18.398666666666667 248.03744093534084, 18.410666666666668 247.58877426867417, 18.416 247.1581076020075 C 18.421333333333333 246.72744093534084, 18.421333333333333 246.29677426867417, 18.416 245.8661076020075 C 18.410666666666668 245.43544093534084, 18.398666666666667 244.98277426867418, 18.38 244.5081076020075 C 18.374666666666666 244.31344093534085, 18.276 244.18677426867418, 18.084 244.1281076020075 L 18.084 243.2401076020075 C 18.513333333333335 243.2801076020075, 18.846666666666668 243.42544093534082, 19.084 243.6761076020075 C 19.321333333333335 243.9267742686742, 19.445333333333334 244.2721076020075, 19.456 244.7121076020075 C 19.46666666666667 245.02677426867416, 19.474666666666668 245.33677426867416, 19.48 245.64210760200748 C 19.485333333333333 245.9474409353408, 19.488 246.24810760200748, 19.488 246.5441076020075 C 19.488 246.8401076020075, 19.485333333333333 247.13344093534084, 19.48 247.4241076020075 C 19.474666666666668 247.71477426867415, 19.46666666666667 248.00410760200748, 19.456 248.2921076020075 C 19.439999999999998 248.74277426867417, 19.311999999999998 249.09144093534084, 19.072 249.33810760200748 C 18.832 249.58477426867415, 18.502666666666666 249.72810760200747, 18.084 249.7681076020075 Z M 21.944 249.7041076020075 L 21.944 243.3041076020075 L 23.003999999999998 243.3041076020075 L 23.003999999999998 249.7041076020075 Z " stroke="none" fill-rule="nonzero" fill="#000000" fill-opacity="1" transform="matrix(1,0,0,1,5.05,13.314)" id="text30 l" />
  <path d="M 0 244.4665049119573 L 10 244.4665049119573 L 10 245.9665049119573 L 0 245.9665049119573 Z " stroke="none" fill-rule="evenodd" fill="#000000" fill-opacity="1" transform="matrix(1,0,0,1,5.05,13.314)" id="mark31 l" />
  <path d="M 0 238.17890222190712 L 10 238.17890222190712 L 10 239.67890222190712 L 0 239.67890222190712 Z " stroke="none" fill-rule="evenodd" fill="#000000" fill-opacity="1" transform="matrix(1,0,0,1,5.05,13.314)" id="mark32 l" />
  <path d="M 0 231.89129953185693 L 10 231.89129953185693 L 10 233.39129953185693 L 0 233.39129953185693 Z " stroke="none" fill-rule="evenodd" fill="#000000" fill-opacity="1" transform="matrix(1,0,0,1,5.05,13.314)" id="mark33 l" />
  <path d="M 0 225.60369684180674 L 10 225.60369684180674 L 10 227.10369684180674 L 0 227.10369684180674 Z " stroke="none" fill-rule="evenodd" fill="#000000" fill-opacity="1" transform="matrix(1,0,0,1,5.05,13.314)" id="mark34 l" />
  <path d="M 0 219.31609415175654 L 25 219.31609415175654 L 25 220.81609415175654 L 0 220.81609415175654 Z " stroke="none" fill-rule="evenodd" fill="#000000" fill-opacity="1" transform="matrix(1,0,0,1,5.05,13.314)" id="mark35 l" />
  <path d="M 12.232 216.81809415175655 C 12.229333333333333 216.7167608184232, 12.227333333333334 216.6327608184232, 12.226 216.56609415175654 C 12.224666666666668 216.49942748508988, 12.224666666666668 216.4314274850899, 12.226 216.36209415175654 C 12.227333333333334 216.29276081842323, 12.229333333333333 216.2034274850899, 12.232 216.09409415175656 L 13.312 216.09409415175656 L 13.312 216.95809415175654 C 13.312 217.1954274850899, 13.425333333333333 217.34609415175657, 13.652 217.41009415175654 L 13.652 218.30209415175656 C 13.164 218.2647608184232, 12.808666666666667 218.13009415175657, 12.586 217.89809415175654 C 12.363333333333333 217.66609415175657, 12.245333333333335 217.30609415175655, 12.232 216.81809415175655 Z M 12.3 212.76609415175656 L 12.3 211.83409415175655 L 15.544 211.83409415175655 L 15.544 212.76609415175656 Z M 14.152000000000001 217.41409415175656 C 14.376000000000001 217.35809415175655, 14.492 217.20742748508988, 14.5 216.96209415175656 C 14.505333333333333 216.7594274850899, 14.508666666666667 216.57676081842322, 14.51 216.41409415175656 C 14.511333333333333 216.2514274850899, 14.506666666666668 216.09409415175656, 14.496 215.94209415175655 C 14.488 215.78476081842322, 14.440000000000001 215.65142748508987, 14.352 215.54209415175654 C 14.264 215.43276081842322, 14.097333333333335 215.3807608184232, 13.852 215.38609415175654 L 13.104 215.39409415175655 L 13.076 214.50209415175655 L 14.036 213.11809415175657 L 15.224 213.11809415175657 L 14.256 214.47009415175654 L 14.288 214.47009415175654 C 14.719999999999999 214.47009415175654, 15.036666666666665 214.59276081842322, 15.238 214.83809415175656 C 15.439333333333334 215.08342748508989, 15.552 215.4607608184232, 15.576 215.97009415175654 C 15.581333333333333 216.04209415175654, 15.584666666666667 216.11409415175655, 15.586 216.18609415175655 C 15.587333333333333 216.25809415175655, 15.588000000000001 216.32876081842323, 15.588000000000001 216.39809415175654 C 15.588000000000001 216.4674274850899, 15.587333333333333 216.5367608184232, 15.586 216.60609415175657 C 15.584666666666667 216.67542748508987, 15.581333333333333 216.74609415175655, 15.576 216.81809415175655 C 15.557333333333334 217.31409415175656, 15.436666666666667 217.67876081842323, 15.214 217.91209415175655 C 14.991333333333333 218.14542748508987, 14.638666666666666 218.2754274850899, 14.156 218.30209415175656 Z M 16.18 216.81809415175655 C 16.174666666666667 216.64476081842324, 16.173333333333332 216.5054274850899, 16.176 216.40009415175655 C 16.178666666666665 216.29476081842324, 16.181333333333335 216.19276081842324, 16.183999999999997 216.09409415175656 L 17.264 216.09409415175656 C 17.256 216.17142748508988, 17.25 216.26742748508985, 17.246 216.38209415175655 C 17.241999999999997 216.49676081842318, 17.240666666666666 216.6074274850899, 17.241999999999997 216.71409415175654 C 17.243333333333332 216.8207608184232, 17.246666666666666 216.9007608184232, 17.252 216.95409415175655 C 17.262666666666668 217.07409415175655, 17.297333333333334 217.17209415175654, 17.355999999999998 217.24809415175656 C 17.414666666666665 217.32409415175653, 17.497333333333334 217.37809415175656, 17.604 217.41009415175654 L 17.604 218.30209415175656 C 17.110666666666663 218.2647608184232, 16.75333333333333 218.13009415175657, 16.532 217.89809415175654 C 16.310666666666666 217.66609415175657, 16.19333333333333 217.30609415175655, 16.18 216.81809415175655 Z M 16.279999999999998 215.48209415175654 L 16.279999999999998 211.83409415175655 L 17.348 211.83409415175655 L 17.348 215.48209415175654 Z M 17.852 215.05809415175656 L 17.852 214.30209415175656 C 17.929333333333332 214.26209415175657, 18.014666666666667 214.23009415175656, 18.107999999999997 214.20609415175656 C 18.20133333333333 214.18209415175656, 18.301333333333332 214.17009415175656, 18.407999999999998 214.17009415175656 C 18.773333333333333 214.17009415175656, 19.047333333333334 214.28542748508988, 19.23 214.51609415175656 C 19.412666666666667 214.74676081842324, 19.514666666666663 215.0607608184232, 19.535999999999998 215.45809415175654 C 19.546666666666667 215.61809415175657, 19.55333333333333 215.7767608184232, 19.555999999999997 215.93409415175654 C 19.558666666666664 216.0914274850899, 19.557333333333332 216.24476081842323, 19.552 216.39409415175655 C 19.546666666666667 216.54342748508986, 19.538666666666668 216.68342748508985, 19.528 216.81409415175656 C 19.482666666666667 217.31276081842321, 19.353333333333335 217.67809415175657, 19.14 217.91009415175654 C 18.926666666666666 218.14209415175657, 18.581333333333333 218.27276081842325, 18.104 218.30209415175656 L 18.104 217.41009415175654 C 18.21333333333333 217.3807608184232, 18.296 217.32809415175655, 18.352 217.25209415175655 C 18.408 217.17609415175656, 18.44 217.07676081842322, 18.448 216.95409415175655 C 18.471999999999998 216.66342748508987, 18.485999999999997 216.40209415175656, 18.49 216.17009415175656 C 18.494 215.93809415175656, 18.485333333333333 215.7167608184232, 18.464 215.50609415175654 C 18.447999999999997 215.35142748508986, 18.396666666666665 215.23609415175656, 18.31 215.16009415175654 C 18.223333333333333 215.08409415175657, 18.090666666666664 215.04609415175656, 17.912 215.04609415175656 C 17.901333333333334 215.04609415175656, 17.890666666666668 215.04742748508988, 17.88 215.05009415175655 C 17.86933333333333 215.05276081842322, 17.86 215.05542748508987, 17.852 215.05809415175656 Z M 17.852 212.76609415175656 L 17.852 211.83409415175655 L 19.439999999999998 211.83409415175655 L 19.439999999999998 212.76609415175656 Z M 21.944 218.23409415175655 L 21.944 211.83409415175655 L 23.003999999999998 211.83409415175655 L 23.003999999999998 218.23409415175655 Z " stroke="none" fill-rule="nonzero" fill="#000000" fill-opacity="1" transform="matrix(1,0,0,1,5.05,13.314)" id="text35 l" />
  <path d="M 0 213.02849146170635 L 10 213.02849146170635 L 10 214.52849146170635 L 0 214.52849146170635 Z " stroke="none" fill-rule="evenodd" fill="#000000" fill-opacity="1" transform="matrix(1,0,0,1,5.05,13.314)" id="mark36 l" />
  <path d="M 0 206.7408887716562 L 10 206.7408887716562 L 10 208.2408887716562 L 0 208.2408887716562 Z " stroke="none" fill-rule="evenodd" fill="#000000" fill-opacity="1" transform="matrix(1,0,0,1,5.05,13.314)" id="mark37 l" />
  <path d="M 0 200.453286081606 L 10 200.453286081606 L 10 201.953286081606 L 0 201.953286081606 Z " stroke="none" fill-rule="evenodd" fill="#000000" fill-opacity="1" transform="matrix(1,0,0,1,5.05,13.314)" id="mark38 l" />
  <path d="M 0 194.1656833915558 L 10 194.1656833915558 L 10 195.6656833915558 L 0 195.6656833915558 Z " stroke="none" fill-rule="evenodd" fill="#000000" fill-opacity="1" transform="matrix(1,0,0,1,5.05,13.314)" id="mark39 l" />
  <path d="M 0 187.8780807015056 L 25 187.8780807015056 L 25 189.3780807015056 L 0 189.3780807015056 Z " stroke="none" fill-rule="evenodd" fill="#000000" fill-opacity="1" transform="matrix(1,0,0,1,5.05,13.314)" id="mark40 l" />
  <path d="M 11.739999999999998 185.14408070150563 L 11.739999999999998 184.26808070150562 L 12.455999999999998 182.38808070150563 L 13.495999999999999 182.38808070150563 L 12.771999999999998 184.22008070150562 L 13.171999999999997 184.22008070150562 L 13.171999999999997 185.14408070150563 Z M 13.675999999999998 186.82808070150563 L 13.675999999999998 180.42808070150562 L 14.683999999999997 180.42808070150562 L 14.683999999999997 186.82808070150563 Z M 15.187999999999999 185.14408070150563 L 15.187999999999999 184.22008070150562 L 15.655999999999999 184.22008070150562 L 15.655999999999999 185.14408070150563 Z M 16.195999999999998 185.41608070150562 C 16.188 184.98674736817227, 16.182666666666666 184.57008070150562, 16.18 184.16608070150562 C 16.177333333333333 183.76208070150562, 16.177999999999997 183.3667473681723, 16.182 182.9800807015056 C 16.186 182.59341403483896, 16.190666666666665 182.21208070150564, 16.195999999999998 181.83608070150564 C 16.20933333333333 181.39608070150564, 16.333999999999996 181.05074736817232, 16.569999999999997 180.80008070150564 C 16.805999999999997 180.54941403483895, 17.142666666666663 180.40408070150562, 17.58 180.36408070150563 L 17.58 181.25208070150563 C 17.382666666666665 181.30808070150562, 17.281333333333333 181.43741403483898, 17.275999999999996 181.64008070150564 C 17.262666666666664 182.0107473681723, 17.25333333333333 182.3587473681723, 17.247999999999998 182.68408070150562 C 17.242666666666665 183.00941403483895, 17.24 183.32608070150562, 17.24 183.63408070150564 C 17.24 183.94208070150563, 17.242666666666665 184.25674736817228, 17.247999999999998 184.57808070150563 C 17.25333333333333 184.89941403483897, 17.262666666666664 185.24274736817227, 17.275999999999996 185.60808070150563 C 17.281333333333333 185.81608070150565, 17.382666666666665 185.94808070150563, 17.58 186.00408070150561 L 17.58 186.89208070150562 C 17.142666666666663 186.8520807015056, 16.805999999999997 186.7060807015056, 16.569999999999997 186.45408070150563 C 16.333999999999996 186.20208070150562, 16.20933333333333 185.85608070150562, 16.195999999999998 185.41608070150562 Z M 18.084 186.89208070150562 L 18.084 186.00008070150562 C 18.268 185.9467473681723, 18.366666666666667 185.82274736817232, 18.38 185.62808070150564 C 18.398666666666664 185.16141403483897, 18.410666666666664 184.7127473681723, 18.415999999999997 184.28208070150563 C 18.42133333333333 183.85141403483897, 18.42133333333333 183.4207473681723, 18.415999999999997 182.99008070150563 C 18.410666666666664 182.55941403483897, 18.398666666666664 182.1067473681723, 18.38 181.63208070150563 C 18.374666666666666 181.43741403483898, 18.276 181.31074736817231, 18.084 181.25208070150563 L 18.084 180.36408070150563 C 18.513333333333332 180.40408070150562, 18.846666666666664 180.54941403483895, 19.083999999999996 180.80008070150564 C 19.32133333333333 181.05074736817232, 19.44533333333333 181.39608070150564, 19.456 181.83608070150564 C 19.466666666666665 182.1507473681723, 19.474666666666664 182.4607473681723, 19.479999999999997 182.76608070150562 C 19.48533333333333 183.07141403483894, 19.488 183.3720807015056, 19.488 183.66808070150563 C 19.488 183.96408070150562, 19.48533333333333 184.25741403483894, 19.479999999999997 184.54808070150563 C 19.474666666666664 184.8387473681723, 19.466666666666665 185.12808070150564, 19.456 185.41608070150562 C 19.439999999999998 185.8667473681723, 19.311999999999998 186.21541403483897, 19.072 186.4620807015056 C 18.831999999999997 186.70874736817228, 18.502666666666663 186.8520807015056, 18.084 186.89208070150562 Z M 21.944 186.82808070150563 L 21.944 180.42808070150562 L 23.003999999999998 180.42808070150562 L 23.003999999999998 186.82808070150563 Z " stroke="none" fill-rule="nonzero" fill="#000000" fill-opacity="1" transform="matrix(1,0,0,1,5.05,13.314)" id="text40 l" />
  <path d="M 0 181.59047801145545 L 10 181.59047801145545 L 10 183.09047801145545 L 0 183.09047801145545 Z " stroke="none" fill-rule="evenodd" fill="#000000" fill-opacity="1" transform="matrix(1,0,0,1,5.05,13.314)" id="mark41 l" />
  <path d="M 0 175.30287532140522 L 10 175.30287532140522 L 10 176.80287532140522 L 0 176.80287532140522 Z " stroke="none" fill-rule="evenodd" fill="#000000" fill-opacity="1" transform="matrix(1,0,0,1,5.05,13.314)" id="mark42 l" />
  <path d="M 0 169.01527263135506 L 10 169.01527263135506 L 10 170.51527263135506 L 0 170.51527263135506 Z " stroke="none" fill-rule="evenodd" fill="#000000" fill-opacity="1" transform="matrix(1,0,0,1,5.05,13.314)" id="mark43 l" />
  <path d="M 0 162.72766994130484 L 10 162.72766994130484 L 10 164.22766994130484 L 0 164.22766994130484 Z " stroke="none" fill-rule="evenodd" fill="#000000" fill-opacity="1" transform="matrix(1,0,0,1,5.05,13.314)" id="mark44 l" />
  <path d="M 0 156.44006725125467 L 25 156.44006725125467 L 25 157.94006725125467 L 0 157.94006725125467 Z " stroke="none" fill-rule="evenodd" fill="#000000" fill-opacity="1" transform="matrix(1,0,0,1,5.05,13.314)" id="mark45 l" />
  <path d="M 11.748 153.67406725125468 L 11.748 152.79806725125468 L 12.463999999999999 150.91806725125468 L 13.503999999999998 150.91806725125468 L 12.78 152.75006725125468 L 13.18 152.75006725125468 L 13.18 153.67406725125468 Z M 13.684 155.35806725125468 L 13.684 148.95806725125468 L 14.691999999999998 148.95806725125468 L 14.691999999999998 155.35806725125468 Z M 15.195999999999998 153.67406725125468 L 15.195999999999998 152.75006725125468 L 15.663999999999998 152.75006725125468 L 15.663999999999998 153.67406725125468 Z M 16.18 153.94206725125468 C 16.174666666666667 153.76873391792137, 16.173333333333332 153.62940058458804, 16.176 153.52406725125468 C 16.178666666666665 153.41873391792137, 16.181333333333335 153.31673391792137, 16.183999999999997 153.2180672512547 L 17.264 153.2180672512547 C 17.256 153.295400584588, 17.25 153.391400584588, 17.246 153.50606725125468 C 17.241999999999997 153.62073391792134, 17.240666666666666 153.73140058458802, 17.241999999999997 153.83806725125467 C 17.243333333333332 153.94473391792133, 17.246666666666666 154.02473391792134, 17.252 154.07806725125468 C 17.262666666666668 154.19806725125468, 17.297333333333334 154.29606725125467, 17.355999999999998 154.3720672512547 C 17.414666666666665 154.44806725125466, 17.497333333333334 154.50206725125466, 17.604 154.53406725125467 L 17.604 155.4260672512547 C 17.110666666666663 155.38873391792134, 16.75333333333333 155.25406725125467, 16.532 155.02206725125467 C 16.310666666666666 154.79006725125467, 16.19333333333333 154.43006725125468, 16.18 153.94206725125468 Z M 16.279999999999998 152.60606725125467 L 16.279999999999998 148.95806725125468 L 17.348 148.95806725125468 L 17.348 152.60606725125467 Z M 17.852 152.1820672512547 L 17.852 151.4260672512547 C 17.929333333333332 151.3860672512547, 18.014666666666667 151.3540672512547, 18.107999999999997 151.3300672512547 C 18.20133333333333 151.3060672512547, 18.301333333333332 151.2940672512547, 18.407999999999998 151.2940672512547 C 18.773333333333333 151.2940672512547, 19.047333333333334 151.409400584588, 19.23 151.6400672512547 C 19.412666666666667 151.87073391792134, 19.514666666666663 152.18473391792133, 19.535999999999998 152.58206725125467 C 19.546666666666667 152.74206725125467, 19.55333333333333 152.90073391792134, 19.555999999999997 153.05806725125467 C 19.558666666666664 153.21540058458802, 19.557333333333332 153.36873391792136, 19.552 153.51806725125468 C 19.546666666666667 153.667400584588, 19.538666666666668 153.807400584588, 19.528 153.9380672512547 C 19.482666666666667 154.43673391792134, 19.353333333333335 154.8020672512547, 19.14 155.03406725125467 C 18.926666666666666 155.2660672512547, 18.581333333333333 155.39673391792135, 18.104 155.4260672512547 L 18.104 154.53406725125467 C 18.21333333333333 154.50473391792136, 18.296 154.45206725125468, 18.352 154.37606725125468 C 18.408 154.3000672512547, 18.44 154.20073391792135, 18.448 154.07806725125468 C 18.471999999999998 153.787400584588, 18.485999999999997 153.5260672512547, 18.49 153.2940672512547 C 18.494 153.0620672512547, 18.485333333333333 152.84073391792134, 18.464 152.63006725125467 C 18.447999999999997 152.475400584588, 18.396666666666665 152.36006725125466, 18.31 152.28406725125467 C 18.223333333333333 152.20806725125468, 18.090666666666664 152.1700672512547, 17.912 152.1700672512547 C 17.901333333333334 152.1700672512547, 17.890666666666668 152.171400584588, 17.88 152.17406725125468 C 17.86933333333333 152.17673391792135, 17.86 152.17940058458802, 17.852 152.1820672512547 Z M 17.852 149.8900672512547 L 17.852 148.95806725125468 L 19.439999999999998 148.95806725125468 L 19.439999999999998 149.8900672512547 Z M 21.944 155.35806725125468 L 21.944 148.95806725125468 L 23.003999999999998 148.95806725125468 L 23.003999999999998 155.35806725125468 Z " stroke="none" fill-rule="nonzero" fill="#000000" fill-opacity="1" transform="matrix(1,0,0,1,5.05,13.314)" id="text45 l" />
  <path d="M 0 150.1524645612045 L 10 150.1524645612045 L 10 151.6524645612045 L 0 151.6524645612045 Z " stroke="none" fill-rule="evenodd" fill="#000000" fill-opacity="1" transform="matrix(1,0,0,1,5.05,13.314)" id="mark46 l" />
  <path d="M 0 143.8648618711543 L 10 143.8648618711543 L 10 145.3648618711543 L 0 145.3648618711543 Z " stroke="none" fill-rule="evenodd" fill="#000000" fill-opacity="1" transform="matrix(1,0,0,1,5.05,13.314)" id="mark47 l" />
  <path d="M 0 137.57725918110413 L 10 137.57725918110413 L 10 139.07725918110413 L 0 139.07725918110413 Z " stroke="none" fill-rule="evenodd" fill="#000000" fill-opacity="1" transform="matrix(1,0,0,1,5.05,13.314)" id="mark48 l" />
  <path d="M 0 131.2896564910539 L 10 131.2896564910539 L 10 132.7896564910539 L 0 132.7896564910539 Z " stroke="none" fill-rule="evenodd" fill="#000000" fill-opacity="1" transform="matrix(1,0,0,1,5.05,13.314)" id="mark49 l" />
  <path d="M 0 125.00205380100374 L 25 125.00205380100374 L 25 126.50205380100374 L 0 126.50205380100374 Z " stroke="none" fill-rule="evenodd" fill="#000000" fill-opacity="1" transform="matrix(1,0,0,1,5.05,13.314)" id="mark50 l" />
  <path d="M 12.204 122.53605380100375 C 12.198666666666668 122.36272046767041, 12.197333333333333 122.22338713433709, 12.2 122.11805380100374 C 12.202666666666667 122.01272046767042, 12.205333333333336 121.91072046767042, 12.208 121.81205380100374 L 13.288 121.81205380100374 C 13.280000000000001 121.88938713433708, 13.274000000000001 121.98538713433709, 13.27 122.10005380100374 C 13.265999999999998 122.21472046767042, 13.264666666666667 122.32538713433708, 13.266 122.43205380100375 C 13.267333333333333 122.53872046767042, 13.270666666666667 122.61872046767041, 13.276 122.67205380100374 C 13.286666666666665 122.79205380100375, 13.321333333333332 122.89005380100375, 13.379999999999999 122.96605380100374 C 13.438666666666666 123.04205380100375, 13.521333333333335 123.09605380100375, 13.628 123.12805380100374 L 13.628 124.02005380100374 C 13.134666666666668 123.98272046767042, 12.777333333333335 123.84805380100374, 12.556 123.61605380100374 C 12.334666666666667 123.38405380100374, 12.217333333333332 123.02405380100375, 12.204 122.53605380100375 Z M 12.304 121.20005380100375 L 12.304 117.55205380100374 L 13.372 117.55205380100374 L 13.372 121.20005380100375 Z M 13.876 120.77605380100374 L 13.876 120.02005380100374 C 13.953333333333333 119.98005380100373, 14.038666666666668 119.94805380100374, 14.132 119.92405380100374 C 14.225333333333333 119.90005380100374, 14.325333333333333 119.88805380100374, 14.432 119.88805380100374 C 14.797333333333334 119.88805380100374, 15.071333333333332 120.00338713433706, 15.254 120.23405380100374 C 15.436666666666667 120.46472046767042, 15.538666666666668 120.77872046767041, 15.56 121.17605380100375 C 15.570666666666668 121.33605380100374, 15.577333333333334 121.49472046767042, 15.58 121.65205380100375 C 15.582666666666666 121.80938713433707, 15.581333333333333 121.96272046767041, 15.576 122.11205380100374 C 15.570666666666666 122.26138713433707, 15.562666666666665 122.40138713433707, 15.552 122.53205380100374 C 15.506666666666668 123.0307204676704, 15.377333333333333 123.39605380100375, 15.164 123.62805380100374 C 14.950666666666667 123.86005380100374, 14.605333333333332 123.9907204676704, 14.128 124.02005380100374 L 14.128 123.12805380100374 C 14.237333333333334 123.09872046767042, 14.32 123.04605380100375, 14.376 122.97005380100374 C 14.432 122.89405380100374, 14.464 122.7947204676704, 14.472 122.67205380100374 C 14.495999999999999 122.38138713433707, 14.509999999999998 122.12005380100373, 14.514 121.88805380100374 C 14.518 121.65605380100374, 14.509333333333334 121.43472046767042, 14.488 121.22405380100375 C 14.472000000000001 121.06938713433709, 14.420666666666666 120.95405380100375, 14.334 120.87805380100374 C 14.247333333333334 120.80205380100374, 14.114666666666666 120.76405380100374, 13.936 120.76405380100374 C 13.925333333333333 120.76405380100374, 13.914666666666665 120.76538713433706, 13.904 120.76805380100375 C 13.893333333333334 120.7707204676704, 13.884 120.77338713433707, 13.876 120.77605380100374 Z M 13.876 118.48405380100374 L 13.876 117.55205380100374 L 15.464 117.55205380100374 L 15.464 118.48405380100374 Z M 16.196 122.54005380100374 C 16.188000000000002 122.1107204676704, 16.182666666666666 121.69405380100375, 16.18 121.29005380100374 C 16.177333333333333 120.88605380100374, 16.177999999999997 120.4907204676704, 16.182 120.10405380100374 C 16.186 119.71738713433709, 16.190666666666665 119.33605380100374, 16.196 118.96005380100374 C 16.209333333333333 118.52005380100374, 16.334000000000003 118.17472046767041, 16.57 117.92405380100374 C 16.805999999999997 117.67338713433708, 17.142666666666663 117.52805380100375, 17.58 117.48805380100374 L 17.58 118.37605380100375 C 17.382666666666665 118.43205380100375, 17.281333333333333 118.56138713433707, 17.276 118.76405380100374 C 17.262666666666668 119.1347204676704, 17.253333333333334 119.4827204676704, 17.248 119.80805380100374 C 17.242666666666665 120.13338713433707, 17.24 120.45005380100375, 17.24 120.75805380100374 C 17.24 121.06605380100373, 17.242666666666665 121.38072046767041, 17.248 121.70205380100374 C 17.253333333333334 122.02338713433707, 17.262666666666668 122.3667204676704, 17.276 122.73205380100374 C 17.281333333333333 122.94005380100376, 17.382666666666665 123.07205380100375, 17.58 123.12805380100374 L 17.58 124.01605380100374 C 17.142666666666663 123.97605380100376, 16.805999999999997 123.83005380100374, 16.57 123.57805380100375 C 16.334000000000003 123.32605380100375, 16.209333333333333 122.98005380100375, 16.196 122.54005380100374 Z M 18.084 124.01605380100374 L 18.084 123.12405380100374 C 18.268 123.07072046767041, 18.366666666666667 122.94672046767042, 18.38 122.75205380100374 C 18.398666666666667 122.28538713433707, 18.410666666666668 121.8367204676704, 18.416 121.40605380100374 C 18.421333333333333 120.97538713433707, 18.421333333333333 120.54472046767042, 18.416 120.11405380100375 C 18.410666666666668 119.68338713433708, 18.398666666666667 119.23072046767041, 18.38 118.75605380100374 C 18.374666666666666 118.56138713433708, 18.276 118.43472046767042, 18.084 118.37605380100375 L 18.084 117.48805380100374 C 18.513333333333335 117.52805380100375, 18.846666666666668 117.67338713433708, 19.084 117.92405380100374 C 19.321333333333335 118.17472046767041, 19.445333333333334 118.52005380100374, 19.456 118.96005380100374 C 19.46666666666667 119.27472046767042, 19.474666666666668 119.58472046767042, 19.48 119.89005380100375 C 19.485333333333333 120.19538713433707, 19.488 120.49605380100374, 19.488 120.79205380100375 C 19.488 121.08805380100375, 19.485333333333333 121.38138713433707, 19.48 121.67205380100374 C 19.474666666666668 121.96272046767041, 19.46666666666667 122.25205380100374, 19.456 122.54005380100374 C 19.439999999999998 122.9907204676704, 19.311999999999998 123.33938713433707, 19.072 123.58605380100374 C 18.832 123.83272046767041, 18.502666666666666 123.97605380100376, 18.084 124.01605380100374 Z M 21.944 123.95205380100374 L 21.944 117.55205380100374 L 23.003999999999998 117.55205380100374 L 23.003999999999998 123.95205380100374 Z " stroke="none" fill-rule="nonzero" fill="#000000" fill-opacity="1" transform="matrix(1,0,0,1,5.05,13.314)" id="text50 l" />
  <path d="M 0 118.71445111095358 L 10 118.71445111095358 L 10 120.21445111095358 L 0 120.21445111095358 Z " stroke="none" fill-rule="evenodd" fill="#000000" fill-opacity="1" transform="matrix(1,0,0,1,5.05,13.314)" id="mark51 l" />
  <path d="M 0 112.42684842090335 L 10 112.42684842090335 L 10 113.92684842090335 L 0 113.92684842090335 Z " stroke="none" fill-rule="evenodd" fill="#000000" fill-opacity="1" transform="matrix(1,0,0,1,5.05,13.314)" id="mark52 l" />
  <path d="M 0 106.13924573085319 L 10 106.13924573085319 L 10 107.63924573085319 L 0 107.63924573085319 Z " stroke="none" fill-rule="evenodd" fill="#000000" fill-opacity="1" transform="matrix(1,0,0,1,5.05,13.314)" id="mark53 l" />
  <path d="M 0 99.85164304080303 L 10 99.85164304080303 L 10 101.35164304080303 L 0 101.35164304080303 Z " stroke="none" fill-rule="evenodd" fill="#000000" fill-opacity="1" transform="matrix(1,0,0,1,5.05,13.314)" id="mark54 l" />
  <path d="M 0 93.5640403507528 L 25 93.5640403507528 L 25 95.0640403507528 L 0 95.0640403507528 Z " stroke="none" fill-rule="evenodd" fill="#000000" fill-opacity="1" transform="matrix(1,0,0,1,5.05,13.314)" id="mark55 l" />
  <path d="M 12.212 91.06604035075281 C 12.206666666666667 90.89270701741948, 12.205333333333332 90.75337368408614, 12.207999999999998 90.64804035075281 C 12.210666666666667 90.54270701741947, 12.213333333333335 90.44070701741947, 12.216 90.34204035075281 L 13.296 90.34204035075281 C 13.288 90.41937368408614, 13.282 90.51537368408614, 13.277999999999999 90.63004035075281 C 13.273999999999997 90.74470701741947, 13.272666666666666 90.85537368408615, 13.274 90.96204035075282 C 13.275333333333332 91.06870701741948, 13.278666666666666 91.14870701741948, 13.283999999999999 91.20204035075281 C 13.294666666666664 91.32204035075281, 13.32933333333333 91.42004035075281, 13.387999999999998 91.4960403507528 C 13.446666666666665 91.57204035075281, 13.529333333333334 91.62604035075282, 13.636 91.65804035075281 L 13.636 92.55004035075281 C 13.142666666666667 92.51270701741947, 12.785333333333334 92.37804035075281, 12.563999999999998 92.14604035075281 C 12.342666666666666 91.91404035075281, 12.225333333333332 91.55404035075281, 12.212 91.06604035075281 Z M 12.312 89.73004035075282 L 12.312 86.0820403507528 L 13.379999999999999 86.0820403507528 L 13.379999999999999 89.73004035075282 Z M 13.883999999999999 89.30604035075281 L 13.883999999999999 88.55004035075281 C 13.961333333333332 88.5100403507528, 14.046666666666667 88.4780403507528, 14.139999999999999 88.4540403507528 C 14.233333333333333 88.43004035075282, 14.333333333333332 88.41804035075282, 14.44 88.41804035075282 C 14.805333333333333 88.41804035075282, 15.07933333333333 88.53337368408614, 15.261999999999999 88.76404035075281 C 15.444666666666667 88.99470701741947, 15.546666666666667 89.30870701741948, 15.568 89.70604035075282 C 15.578666666666667 89.86604035075281, 15.585333333333333 90.02470701741947, 15.588 90.18204035075281 C 15.590666666666666 90.33937368408615, 15.589333333333332 90.49270701741948, 15.584 90.64204035075281 C 15.578666666666665 90.79137368408614, 15.570666666666664 90.93137368408614, 15.559999999999999 91.06204035075281 C 15.514666666666667 91.56070701741947, 15.385333333333332 91.92604035075281, 15.171999999999999 92.15804035075281 C 14.958666666666666 92.39004035075281, 14.613333333333332 92.52070701741948, 14.136 92.55004035075281 L 14.136 91.65804035075281 C 14.245333333333333 91.62870701741949, 14.328 91.57604035075282, 14.383999999999999 91.50004035075281 C 14.44 91.4240403507528, 14.472 91.32470701741947, 14.479999999999999 91.20204035075281 C 14.503999999999998 90.91137368408614, 14.517999999999997 90.65004035075282, 14.521999999999998 90.41804035075282 C 14.526 90.18604035075282, 14.517333333333333 89.96470701741947, 14.495999999999999 89.75404035075282 C 14.48 89.59937368408615, 14.428666666666665 89.48404035075282, 14.341999999999999 89.40804035075281 C 14.255333333333333 89.3320403507528, 14.122666666666666 89.29404035075281, 13.943999999999999 89.29404035075281 C 13.933333333333332 89.29404035075281, 13.922666666666665 89.29537368408614, 13.911999999999999 89.29804035075281 C 13.901333333333334 89.30070701741948, 13.892 89.30337368408614, 13.883999999999999 89.30604035075281 Z M 13.883999999999999 87.01404035075281 L 13.883999999999999 86.0820403507528 L 15.472 86.0820403507528 L 15.472 87.01404035075281 Z M 16.18 91.06604035075281 C 16.174666666666667 90.89270701741948, 16.173333333333332 90.75337368408614, 16.176 90.64804035075281 C 16.178666666666665 90.54270701741947, 16.181333333333335 90.44070701741947, 16.183999999999997 90.34204035075281 L 17.264 90.34204035075281 C 17.256 90.41937368408614, 17.25 90.51537368408614, 17.246 90.63004035075281 C 17.241999999999997 90.74470701741947, 17.240666666666666 90.85537368408615, 17.241999999999997 90.96204035075282 C 17.243333333333332 91.06870701741948, 17.246666666666666 91.14870701741948, 17.252 91.20204035075281 C 17.262666666666668 91.32204035075281, 17.297333333333334 91.42004035075281, 17.355999999999998 91.4960403507528 C 17.414666666666665 91.57204035075281, 17.497333333333334 91.62604035075282, 17.604 91.65804035075281 L 17.604 92.55004035075281 C 17.110666666666663 92.51270701741947, 16.75333333333333 92.37804035075281, 16.532 92.14604035075281 C 16.310666666666666 91.91404035075281, 16.19333333333333 91.55404035075281, 16.18 91.06604035075281 Z M 16.279999999999998 89.73004035075282 L 16.279999999999998 86.0820403507528 L 17.348 86.0820403507528 L 17.348 89.73004035075282 Z M 17.852 89.30604035075281 L 17.852 88.55004035075281 C 17.929333333333332 88.5100403507528, 18.014666666666667 88.4780403507528, 18.107999999999997 88.4540403507528 C 18.20133333333333 88.43004035075282, 18.301333333333332 88.41804035075282, 18.407999999999998 88.41804035075282 C 18.773333333333333 88.41804035075282, 19.047333333333334 88.53337368408614, 19.23 88.76404035075281 C 19.412666666666667 88.99470701741947, 19.514666666666663 89.30870701741948, 19.535999999999998 89.70604035075282 C 19.546666666666667 89.86604035075281, 19.55333333333333 90.02470701741947, 19.555999999999997 90.18204035075281 C 19.558666666666664 90.33937368408615, 19.557333333333332 90.49270701741948, 19.552 90.64204035075281 C 19.546666666666667 90.79137368408614, 19.538666666666668 90.93137368408614, 19.528 91.06204035075281 C 19.482666666666667 91.56070701741947, 19.353333333333335 91.92604035075281, 19.14 92.15804035075281 C 18.926666666666666 92.39004035075281, 18.581333333333333 92.52070701741948, 18.104 92.55004035075281 L 18.104 91.65804035075281 C 18.21333333333333 91.62870701741949, 18.296 91.57604035075282, 18.352 91.50004035075281 C 18.408 91.4240403507528, 18.44 91.32470701741947, 18.448 91.20204035075281 C 18.471999999999998 90.91137368408614, 18.485999999999997 90.65004035075282, 18.49 90.41804035075282 C 18.494 90.18604035075282, 18.485333333333333 89.96470701741947, 18.464 89.75404035075282 C 18.447999999999997 89.59937368408615, 18.396666666666665 89.48404035075282, 18.31 89.40804035075281 C 18.223333333333333 89.3320403507528, 18.090666666666664 89.29404035075281, 17.912 89.29404035075281 C 17.901333333333334 89.29404035075281, 17.890666666666668 89.29537368408614, 17.88 89.29804035075281 C 17.86933333333333 89.30070701741948, 17.86 89.30337368408614, 17.852 89.30604035075281 Z M 17.852 87.01404035075281 L 17.852 86.0820403507528 L 19.439999999999998 86.0820403507528 L 19.439999999999998 87.01404035075281 Z M 21.944 92.48204035075281 L 21.944 86.0820403507528 L 23.003999999999998 86.0820403507528 L 23.003999999999998 92.48204035075281 Z " stroke="none" fill-rule="nonzero" fill="#000000" fill-opacity="1" transform="matrix(1,0,0,1,5.05,13.314)" id="text55 l" />
  <path d="M 0 87.27643766070264 L 10 87.27643766070264 L 10 88.77643766070264 L 0 88.77643766070264 Z " stroke="none" fill-rule="evenodd" fill="#000000" fill-opacity="1" transform="matrix(1,0,0,1,5.05,13.314)" id="mark56 l" />
  <path d="M 0 80.98883497065242 L 10 80.98883497065242 L 10 82.48883497065242 L 0 82.48883497065242 Z " stroke="none" fill-rule="evenodd" fill="#000000" fill-opacity="1" transform="matrix(1,0,0,1,5.05,13.314)" id="mark57 l" />
  <path d="M 0 74.70123228060226 L 10 74.70123228060226 L 10 76.20123228060226 L 0 76.20123228060226 Z " stroke="none" fill-rule="evenodd" fill="#000000" fill-opacity="1" transform="matrix(1,0,0,1,5.05,13.314)" id="mark58 l" />
  <path d="M 0 68.41362959055209 L 10 68.41362959055209 L 10 69.91362959055209 L 0 69.91362959055209 Z " stroke="none" fill-rule="evenodd" fill="#000000" fill-opacity="1" transform="matrix(1,0,0,1,5.05,13.314)" id="mark59 l" />
  <path d="M 0 62.12602690050187 L 25 62.12602690050187 L 25 63.62602690050187 L 0 63.62602690050187 Z " stroke="none" fill-rule="evenodd" fill="#000000" fill-opacity="1" transform="matrix(1,0,0,1,5.05,13.314)" id="mark60 l" />
  <path d="M 12.264 59.660026900501876 C 12.261333333333333 59.39602690050188, 12.258 59.11869356716854, 12.254 58.828026900501875 C 12.25 58.53736023383521, 12.248 58.23869356716854, 12.248 57.932026900501874 C 12.248 57.62536023383521, 12.249333333333333 57.3173602338352, 12.251999999999999 57.008026900501875 C 12.254666666666665 56.69869356716855, 12.258666666666667 56.39069356716854, 12.264 56.084026900501875 C 12.271999999999998 55.62002690050187, 12.397333333333332 55.268026900501866, 12.639999999999999 55.02802690050187 C 12.882666666666665 54.788026900501876, 13.215999999999998 54.64936023383521, 13.639999999999999 54.612026900501874 L 13.639999999999999 55.50402690050187 C 13.543999999999997 55.52802690050187, 13.470666666666665 55.572026900501875, 13.419999999999998 55.636026900501875 C 13.369333333333332 55.700026900501875, 13.343999999999998 55.785360233835206, 13.344 55.892026900501875 C 13.335999999999999 56.380026900501875, 13.330666666666666 56.84669356716854, 13.328 57.292026900501874 C 13.325333333333333 57.737360233835204, 13.323999999999998 58.17069356716854, 13.323999999999998 58.59202690050187 C 13.323999999999998 59.013360233835215, 13.328 59.42802690050188, 13.335999999999999 59.83602690050187 C 13.335999999999999 59.9453602338352, 13.363333333333333 60.03469356716853, 13.418 60.10402690050187 C 13.472666666666665 60.1733602338352, 13.549333333333333 60.222693567168534, 13.648 60.252026900501875 L 13.648 61.14402690050187 C 13.159999999999998 61.112026900501874, 12.809333333333331 60.98002690050187, 12.595999999999998 60.74802690050187 C 12.382666666666665 60.51602690050187, 12.271999999999998 60.1533602338352, 12.264 59.660026900501876 Z M 13.812 57.98002690050187 L 13.812 57.23602690050187 C 13.894666666666666 57.188026900501875, 13.987333333333332 57.150693567168545, 14.09 57.124026900501875 C 14.192666666666668 57.097360233835204, 14.301333333333332 57.084026900501875, 14.415999999999999 57.084026900501875 C 14.84 57.084026900501875, 15.134 57.1833602338352, 15.297999999999998 57.38202690050187 C 15.462 57.58069356716854, 15.547999999999998 57.91202690050187, 15.556 58.37602690050187 C 15.561333333333334 58.56002690050187, 15.564666666666666 58.715360233835206, 15.565999999999999 58.84202690050187 C 15.567333333333332 58.96869356716854, 15.567333333333332 59.09336023383521, 15.565999999999999 59.21602690050187 C 15.564666666666666 59.338693567168534, 15.559999999999999 59.486693567168544, 15.552 59.660026900501876 C 15.527999999999999 60.150693567168545, 15.408 60.5133602338352, 15.192 60.74802690050187 C 14.975999999999999 60.98269356716854, 14.628 61.11469356716854, 14.148 61.14402690050187 L 14.148 60.26002690050187 C 14.251999999999999 60.230693567168544, 14.331333333333333 60.18269356716854, 14.386 60.11602690050187 C 14.440666666666665 60.0493602338352, 14.469333333333333 59.962693567168536, 14.472 59.856026900501874 C 14.477333333333332 59.70136023383521, 14.481333333333332 59.56269356716854, 14.483999999999998 59.44002690050187 C 14.486666666666666 59.3173602338352, 14.489333333333335 59.200026900501875, 14.491999999999999 59.08802690050187 C 14.494666666666667 58.97602690050187, 14.495333333333333 58.86469356716854, 14.494 58.75402690050187 C 14.492666666666667 58.6433602338352, 14.489333333333333 58.526693567168536, 14.483999999999998 58.404026900501876 C 14.481333333333332 58.254693567168545, 14.429333333333332 58.14402690050187, 14.328 58.072026900501875 C 14.226666666666665 58.00002690050188, 14.094666666666665 57.96402690050188, 13.931999999999999 57.96402690050187 C 13.913333333333334 57.96402690050188, 13.894 57.96469356716854, 13.873999999999999 57.96602690050187 C 13.854 57.96736023383521, 13.833333333333332 57.972026900501874, 13.812 57.98002690050187 Z M 14.44 56.660026900501876 C 14.448 56.56669356716854, 14.452666666666666 56.48469356716855, 14.453999999999999 56.414026900501874 C 14.455333333333332 56.34336023383521, 14.454666666666665 56.26802690050188, 14.451999999999998 56.188026900501875 C 14.449333333333332 56.10802690050187, 14.445333333333334 56.00936023383521, 14.44 55.892026900501875 C 14.434666666666665 55.7933602338352, 14.407999999999998 55.71002690050187, 14.36 55.642026900501875 C 14.311999999999998 55.57402690050188, 14.238666666666665 55.52802690050187, 14.139999999999999 55.50402690050187 L 14.139999999999999 54.61602690050187 C 14.577333333333332 54.65602690050187, 14.911333333333332 54.80069356716854, 15.142 55.05002690050188 C 15.372666666666667 55.2993602338352, 15.495999999999999 55.626693567168545, 15.511999999999999 56.032026900501876 C 15.514666666666667 56.09869356716854, 15.516666666666666 56.16202690050187, 15.517999999999999 56.222026900501874 C 15.519333333333332 56.282026900501876, 15.519333333333332 56.34602690050187, 15.517999999999999 56.414026900501874 C 15.516666666666666 56.48202690050188, 15.514666666666667 56.56402690050187, 15.511999999999999 56.660026900501876 Z M 16.196 59.664026900501874 C 16.188000000000002 59.23469356716854, 16.182666666666666 58.81802690050188, 16.18 58.414026900501874 C 16.177333333333333 58.01002690050187, 16.177999999999997 57.614693567168544, 16.182 57.228026900501874 C 16.186 56.8413602338352, 16.190666666666665 56.46002690050187, 16.196 56.084026900501875 C 16.209333333333333 55.64402690050187, 16.334000000000003 55.29869356716854, 16.57 55.048026900501874 C 16.805999999999997 54.79736023383521, 17.142666666666663 54.65202690050188, 17.58 54.612026900501874 L 17.58 55.50002690050187 C 17.382666666666665 55.55602690050188, 17.281333333333333 55.68536023383521, 17.276 55.88802690050187 C 17.262666666666668 56.258693567168535, 17.253333333333334 56.606693567168534, 17.248 56.932026900501874 C 17.242666666666665 57.2573602338352, 17.24 57.57402690050187, 17.24 57.88202690050187 C 17.24 58.19002690050187, 17.242666666666665 58.50469356716854, 17.248 58.82602690050187 C 17.253333333333334 59.14736023383521, 17.262666666666668 59.49069356716854, 17.276 59.856026900501874 C 17.281333333333333 60.06402690050187, 17.382666666666665 60.19602690050188, 17.58 60.252026900501875 L 17.58 61.14002690050187 C 17.142666666666663 61.100026900501874, 16.805999999999997 60.95402690050187, 16.57 60.70202690050187 C 16.334000000000003 60.45002690050187, 16.209333333333333 60.10402690050187, 16.196 59.664026900501874 Z M 18.084 61.14002690050187 L 18.084 60.24802690050187 C 18.268 60.19469356716854, 18.366666666666667 60.07069356716853, 18.38 59.87602690050187 C 18.398666666666667 59.4093602338352, 18.410666666666668 58.96069356716854, 18.416 58.53002690050187 C 18.421333333333333 58.099360233835206, 18.421333333333333 57.66869356716854, 18.416 57.23802690050187 C 18.410666666666668 56.807360233835205, 18.398666666666667 56.35469356716854, 18.38 55.880026900501875 C 18.374666666666666 55.685360233835205, 18.276 55.55869356716853, 18.084 55.50002690050187 L 18.084 54.612026900501874 C 18.513333333333335 54.65202690050188, 18.846666666666668 54.79736023383521, 19.084 55.048026900501874 C 19.321333333333335 55.29869356716854, 19.445333333333334 55.64402690050187, 19.456 56.084026900501875 C 19.46666666666667 56.39869356716855, 19.474666666666668 56.708693567168545, 19.48 57.014026900501875 C 19.485333333333333 57.319360233835205, 19.488 57.62002690050187, 19.488 57.916026900501876 C 19.488 58.21202690050187, 19.485333333333333 58.505360233835205, 19.48 58.79602690050187 C 19.474666666666668 59.08669356716854, 19.46666666666667 59.37602690050187, 19.456 59.664026900501874 C 19.439999999999998 60.114693567168544, 19.311999999999998 60.46336023383521, 19.072 60.71002690050187 C 18.832 60.956693567168536, 18.502666666666666 61.100026900501874, 18.084 61.14002690050187 Z M 21.944 61.07602690050187 L 21.944 54.676026900501874 L 23.003999999999998 54.676026900501874 L 23.003999999999998 61.07602690050187 Z " stroke="none" fill-rule="nonzero" fill="#000000" fill-opacity="1" transform="matrix(1,0,0,1,5.05,13.314)" id="text60 l" />
  <path d="M 0 55.838424210451706 L 10 55.838424210451706 L 10 57.338424210451706 L 0 57.338424210451706 Z " stroke="none" fill-rule="evenodd" fill="#000000" fill-opacity="1" transform="matrix(1,0,0,1,5.05,13.314)" id="mark61 l" />
  <path d="M 0 49.550821520401485 L 10 49.550821520401485 L 10 51.050821520401485 L 0 51.050821520401485 Z " stroke="none" fill-rule="evenodd" fill="#000000" fill-opacity="1" transform="matrix(1,0,0,1,5.05,13.314)" id="mark62 l" />
  <path d="M 0 43.26321883035132 L 10 43.26321883035132 L 10 44.76321883035132 L 0 44.76321883035132 Z " stroke="none" fill-rule="evenodd" fill="#000000" fill-opacity="1" transform="matrix(1,0,0,1,5.05,13.314)" id="mark63 l" />
  <path d="M 0 36.975616140301156 L 10 36.975616140301156 L 10 38.475616140301156 L 0 38.475616140301156 Z " stroke="none" fill-rule="evenodd" fill="#000000" fill-opacity="1" transform="matrix(1,0,0,1,5.05,13.314)" id="mark64 l" />
  <path d="M 0 30.688013450250935 L 25 30.688013450250935 L 25 32.188013450250935 L 0 32.188013450250935 Z " stroke="none" fill-rule="evenodd" fill="#000000" fill-opacity="1" transform="matrix(1,0,0,1,5.05,13.314)" id="mark65 l" />
  <path d="M 12.272 28.222013450250934 C 12.269333333333332 27.95801345025093, 12.266 27.6806801169176, 12.262 27.390013450250933 C 12.258000000000001 27.099346783584267, 12.256 26.800680116917597, 12.256 26.494013450250932 C 12.256 26.187346783584267, 12.257333333333335 25.879346783584268, 12.26 25.570013450250933 C 12.262666666666668 25.260680116917598, 12.266666666666666 24.9526801169176, 12.272 24.646013450250933 C 12.280000000000001 24.182013450250935, 12.405333333333335 23.830013450250934, 12.648 23.590013450250936 C 12.890666666666668 23.350013450250934, 13.224 23.21134678358427, 13.648 23.174013450250932 L 13.648 24.066013450250935 C 13.552 24.090013450250936, 13.478666666666665 24.134013450250933, 13.428 24.198013450250933 C 13.377333333333333 24.262013450250933, 13.352 24.347346783584264, 13.352 24.454013450250933 C 13.344 24.942013450250933, 13.338666666666665 25.4086801169176, 13.336 25.854013450250935 C 13.333333333333332 26.29934678358427, 13.332 26.732680116917603, 13.332 27.154013450250936 C 13.332 27.57534678358427, 13.335999999999999 27.990013450250935, 13.344 28.398013450250936 C 13.343999999999998 28.507346783584268, 13.371333333333332 28.596680116917604, 13.426 28.666013450250933 C 13.480666666666666 28.73534678358427, 13.557333333333332 28.7846801169176, 13.656 28.814013450250933 L 13.656 29.706013450250936 C 13.168 29.674013450250932, 12.817333333333334 29.542013450250934, 12.604 29.310013450250935 C 12.390666666666668 29.078013450250936, 12.280000000000001 28.715346783584266, 12.272 28.222013450250934 Z M 13.82 26.542013450250934 L 13.82 25.798013450250934 C 13.902666666666665 25.750013450250933, 13.995333333333331 25.7126801169176, 14.097999999999999 25.686013450250933 C 14.200666666666667 25.659346783584265, 14.309333333333333 25.646013450250933, 14.424 25.646013450250933 C 14.848 25.646013450250933, 15.142000000000001 25.745346783584267, 15.306000000000001 25.944013450250935 C 15.47 26.142680116917603, 15.556000000000001 26.474013450250936, 15.564 26.938013450250935 C 15.569333333333333 27.122013450250932, 15.572666666666667 27.27734678358427, 15.574 27.404013450250936 C 15.575333333333333 27.5306801169176, 15.575333333333333 27.65534678358427, 15.574 27.778013450250935 C 15.572666666666667 27.900680116917606, 15.567999999999998 28.048680116917602, 15.56 28.222013450250934 C 15.536000000000001 28.712680116917603, 15.416 29.075346783584266, 15.2 29.310013450250935 C 14.984 29.544680116917604, 14.636 29.676680116917602, 14.156 29.706013450250936 L 14.156 28.822013450250935 C 14.259999999999998 28.7926801169176, 14.339333333333332 28.7446801169176, 14.394 28.678013450250933 C 14.448666666666666 28.611346783584267, 14.477333333333334 28.5246801169176, 14.48 28.418013450250935 C 14.485333333333333 28.263346783584268, 14.489333333333335 28.124680116917602, 14.492 28.002013450250935 C 14.494666666666667 27.879346783584268, 14.497333333333334 27.762013450250933, 14.5 27.650013450250935 C 14.502666666666666 27.538013450250936, 14.503333333333332 27.426680116917602, 14.501999999999999 27.316013450250935 C 14.500666666666666 27.205346783584268, 14.497333333333334 27.0886801169176, 14.492 26.966013450250934 C 14.489333333333335 26.816680116917603, 14.437333333333335 26.706013450250936, 14.336 26.634013450250933 C 14.234666666666666 26.562013450250937, 14.102666666666666 26.526013450250936, 13.94 26.526013450250936 C 13.921333333333333 26.526013450250936, 13.902000000000001 26.526680116917603, 13.882 26.528013450250935 C 13.862000000000002 26.529346783584266, 13.841333333333335 26.534013450250935, 13.82 26.542013450250934 Z M 14.448 25.222013450250934 C 14.456 25.1286801169176, 14.460666666666668 25.0466801169176, 14.462 24.976013450250935 C 14.463333333333335 24.905346783584264, 14.462666666666667 24.83001345025093, 14.46 24.750013450250933 C 14.457333333333333 24.670013450250934, 14.453333333333333 24.571346783584268, 14.448 24.454013450250933 C 14.442666666666668 24.355346783584267, 14.416 24.272013450250935, 14.368 24.204013450250933 C 14.32 24.136013450250935, 14.246666666666666 24.090013450250936, 14.148 24.066013450250935 L 14.148 23.178013450250933 C 14.585333333333335 23.218013450250933, 14.919333333333334 23.362680116917602, 15.15 23.612013450250934 C 15.380666666666666 23.861346783584267, 15.504000000000001 24.188680116917602, 15.52 24.594013450250934 C 15.522666666666666 24.660680116917604, 15.524666666666668 24.724013450250936, 15.526 24.784013450250935 C 15.527333333333335 24.844013450250934, 15.527333333333335 24.908013450250934, 15.526 24.976013450250935 C 15.524666666666668 25.044013450250937, 15.522666666666666 25.126013450250937, 15.52 25.222013450250934 Z M 16.18 28.222013450250934 C 16.174666666666667 28.048680116917602, 16.173333333333332 27.90934678358427, 16.176 27.804013450250935 C 16.178666666666665 27.6986801169176, 16.181333333333335 27.596680116917604, 16.183999999999997 27.498013450250934 L 17.264 27.498013450250934 C 17.256 27.575346783584266, 17.25 27.67134678358427, 17.246 27.786013450250934 C 17.241999999999997 27.9006801169176, 17.240666666666666 28.011346783584266, 17.241999999999997 28.118013450250935 C 17.243333333333332 28.224680116917604, 17.246666666666666 28.304680116917602, 17.252 28.358013450250933 C 17.262666666666668 28.478013450250934, 17.297333333333334 28.576013450250933, 17.355999999999998 28.652013450250934 C 17.414666666666665 28.728013450250934, 17.497333333333334 28.782013450250936, 17.604 28.814013450250933 L 17.604 29.706013450250936 C 17.110666666666663 29.6686801169176, 16.75333333333333 29.53401345025093, 16.532 29.302013450250936 C 16.310666666666666 29.070013450250933, 16.19333333333333 28.710013450250933, 16.18 28.222013450250934 Z M 16.279999999999998 26.886013450250935 L 16.279999999999998 23.238013450250932 L 17.348 23.238013450250932 L 17.348 26.886013450250935 Z M 17.852 26.462013450250936 L 17.852 25.706013450250936 C 17.929333333333332 25.666013450250933, 18.014666666666667 25.634013450250933, 18.107999999999997 25.610013450250932 C 18.20133333333333 25.58601345025093, 18.301333333333332 25.574013450250934, 18.407999999999998 25.574013450250934 C 18.773333333333333 25.574013450250934, 19.047333333333334 25.68934678358427, 19.23 25.920013450250934 C 19.412666666666667 26.1506801169176, 19.514666666666663 26.4646801169176, 19.535999999999998 26.862013450250934 C 19.546666666666667 27.02201345025093, 19.55333333333333 27.1806801169176, 19.555999999999997 27.338013450250934 C 19.558666666666664 27.495346783584267, 19.557333333333332 27.6486801169176, 19.552 27.798013450250934 C 19.546666666666667 27.94734678358427, 19.538666666666668 28.08734678358427, 19.528 28.218013450250936 C 19.482666666666667 28.7166801169176, 19.353333333333335 29.082013450250933, 19.14 29.314013450250933 C 18.926666666666666 29.546013450250936, 18.581333333333333 29.676680116917602, 18.104 29.706013450250936 L 18.104 28.814013450250933 C 18.21333333333333 28.7846801169176, 18.296 28.732013450250932, 18.352 28.656013450250935 C 18.408 28.58001345025093, 18.44 28.480680116917597, 18.448 28.358013450250933 C 18.471999999999998 28.067346783584263, 18.485999999999997 27.80601345025093, 18.49 27.574013450250934 C 18.494 27.34201345025093, 18.485333333333333 27.120680116917598, 18.464 26.910013450250933 C 18.447999999999997 26.755346783584265, 18.396666666666665 26.640013450250933, 18.31 26.564013450250933 C 18.223333333333333 26.488013450250932, 18.090666666666664 26.450013450250935, 17.912 26.450013450250935 C 17.901333333333334 26.450013450250935, 17.890666666666668 26.451346783584267, 17.88 26.454013450250933 C 17.86933333333333 26.4566801169176, 17.86 26.459346783584266, 17.852 26.462013450250936 Z M 17.852 24.170013450250934 L 17.852 23.238013450250932 L 19.439999999999998 23.238013450250932 L 19.439999999999998 24.170013450250934 Z M 21.944 29.638013450250934 L 21.944 23.238013450250932 L 23.003999999999998 23.238013450250932 L 23.003999999999998 29.638013450250934 Z " stroke="none" fill-rule="nonzero" fill="#000000" fill-opacity="1" transform="matrix(1,0,0,1,5.05,13.314)" id="text65 l" />
  <path d="M 0 24.40041076020077 L 10 24.40041076020077 L 10 25.90041076020077 L 0 25.90041076020077 Z " stroke="none" fill-rule="evenodd" fill="#000000" fill-opacity="1" transform="matrix(1,0,0,1,5.05,13.314)" id="mark66 l" />
  <path d="M 0 18.11280807015055 L 10 18.11280807015055 L 10 19.61280807015055 L 0 19.61280807015055 Z " stroke="none" fill-rule="evenodd" fill="#000000" fill-opacity="1" transform="matrix(1,0,0,1,5.05,13.314)" id="mark67 l" />
  <path d="M 0 11.825205380100385 L 10 11.825205380100385 L 10 13.325205380100385 L 0 13.325205380100385 Z " stroke="none" fill-rule="evenodd" fill="#000000" fill-opacity="1" transform="matrix(1,0,0,1,5.05,13.314)" id="mark68 l" />
  <path d="M 0 5.537602690050221 L 10 5.537602690050221 L 10 7.037602690050221 L 0 7.037602690050221 Z " stroke="none" fill-rule="evenodd" fill="#000000" fill-opacity="1" transform="matrix(1,0,0,1,5.05,13.314)" id="mark69 l" />
  <path d="M 0 -0.75 L 25 -0.75 L 25 0.75 L 0 0.75 Z " stroke="none" fill-rule="evenodd" fill="#000000" fill-opacity="1" transform="matrix(1,0,0,1,5.05,13.314)" id="mark70 l" />
  <path d="M 12.331999999999999 -7.268 L 12.331999999999999 -8.2 L 15.691999999999998 -8.2 L 15.691999999999998 -7.268 Z M 12.783999999999999 -1.7999999999999998 L 14.471999999999998 -6.8759999999999994 L 15.559999999999999 -6.8759999999999994 L 13.899999999999999 -1.7999999999999998 Z M 16.195999999999998 -3.2119999999999997 C 16.188 -3.641333333333333, 16.182666666666666 -4.058, 16.18 -4.462 C 16.177333333333333 -4.866, 16.177999999999997 -5.261333333333333, 16.182 -5.648 C 16.186 -6.034666666666666, 16.190666666666665 -6.416, 16.195999999999998 -6.792 C 16.20933333333333 -7.231999999999999, 16.333999999999996 -7.577333333333334, 16.569999999999997 -7.828 C 16.805999999999997 -8.078666666666667, 17.142666666666663 -8.224, 17.58 -8.264 L 17.58 -7.3759999999999994 C 17.382666666666665 -7.32, 17.281333333333333 -7.190666666666667, 17.275999999999996 -6.9879999999999995 C 17.262666666666664 -6.617333333333333, 17.25333333333333 -6.269333333333333, 17.247999999999998 -5.944 C 17.242666666666665 -5.618666666666666, 17.24 -5.302, 17.24 -4.994 C 17.24 -4.686, 17.242666666666665 -4.371333333333333, 17.247999999999998 -4.05 C 17.25333333333333 -3.7286666666666664, 17.262666666666664 -3.3853333333333326, 17.275999999999996 -3.0199999999999996 C 17.281333333333333 -2.812, 17.382666666666665 -2.6799999999999997, 17.58 -2.6239999999999997 L 17.58 -1.7359999999999998 C 17.142666666666663 -1.7759999999999998, 16.805999999999997 -1.9219999999999997, 16.569999999999997 -2.174 C 16.333999999999996 -2.4259999999999997, 16.20933333333333 -2.772, 16.195999999999998 -3.2119999999999997 Z M 18.084 -1.7359999999999998 L 18.084 -2.6279999999999997 C 18.268 -2.681333333333333, 18.366666666666667 -2.8053333333333335, 18.38 -3 C 18.398666666666664 -3.4666666666666663, 18.410666666666664 -3.915333333333333, 18.415999999999997 -4.346 C 18.42133333333333 -4.776666666666666, 18.42133333333333 -5.207333333333333, 18.415999999999997 -5.638 C 18.410666666666664 -6.068666666666666, 18.398666666666664 -6.521333333333333, 18.38 -6.9959999999999996 C 18.374666666666666 -7.190666666666667, 18.276 -7.317333333333334, 18.084 -7.3759999999999994 L 18.084 -8.264 C 18.513333333333332 -8.224, 18.846666666666664 -8.078666666666667, 19.083999999999996 -7.828 C 19.32133333333333 -7.577333333333334, 19.44533333333333 -7.231999999999999, 19.456 -6.792 C 19.466666666666665 -6.477333333333332, 19.474666666666664 -6.167333333333333, 19.479999999999997 -5.861999999999999 C 19.48533333333333 -5.556666666666667, 19.488 -5.256, 19.488 -4.96 C 19.488 -4.664, 19.48533333333333 -4.370666666666667, 19.479999999999997 -4.08 C 19.474666666666664 -3.7893333333333334, 19.466666666666665 -3.5, 19.456 -3.2119999999999997 C 19.439999999999998 -2.761333333333333, 19.311999999999998 -2.4126666666666665, 19.072 -2.166 C 18.831999999999997 -1.9193333333333331, 18.502666666666663 -1.7759999999999998, 18.084 -1.7359999999999998 Z M 21.944 -1.7999999999999998 L 21.944 -8.2 L 23.003999999999998 -8.2 L 23.003999999999998 -1.7999999999999998 Z " stroke="none" fill-rule="nonzero" fill="#000000" fill-opacity="1" transform="matrix(1,0,0,1,5.05,13.314)" id="text70 l" />
  <path d="M -5 -13.264 L 30 -13.264 L 30 440.61258561346284 L -5 440.61258561346284 Z " stroke="#FF0000" stroke-opacity="1" stroke-width="0.1" stroke-linecap="butt" stroke-linejoin="miter" fill="none" transform="matrix(1,0,0,1,5.05,13.314)" />
</svg>