<?xml version="1.0" encoding="UTF-8"?>
<svg xmlns:xlink="http://www.w3.org/1999/xlink" viewBox="0 0 40.099999999999994 66.87206490863862" version="1.1" style="font-synthesis: none;" width="40.099999999999994mm" height="66.87206490863862mm" xmlns="http://www.w3.org/2000/svg">
  <defs />
  <style>	</style>
  <path d="M 0 0 L 40.099999999999994 0 L 40.099999999999994 66.87206490863862 L 0 66.87206490863862 Z " stroke="none" fill-rule="nonzero" fill="#FFFFFF" fill-opacity="1" transform="matrix(1,0,0,1,0,0)" />
  <path d="M 0 46.122064908638635 L 8 46.122064908638635 L 8 47.42206490863863 L 0 47.42206490863863 Z " stroke="none" fill-rule="evenodd" fill="#000000" fill-opacity="1" transform="matrix(1,0,0,1,5.05,13.314000000000002)" id="mark20 ml" />
  <path d="M 0 40.92516880767879 L 8 40.92516880767879 L 8 42.225168807678784 L 0 42.225168807678784 Z " stroke="none" fill-rule="evenodd" fill="#000000" fill-opacity="1" transform="matrix(1,0,0,1,5.05,13.314000000000002)" id="mark40 ml" />
  <path d="M 0 35.72827270671894 L 8 35.72827270671894 L 8 37.02827270671894 L 0 37.02827270671894 Z " stroke="none" fill-rule="evenodd" fill="#000000" fill-opacity="1" transform="matrix(1,0,0,1,5.05,13.314000000000002)" id="mark60 ml" />
  <path d="M 0 30.53137660575909 L 8 30.53137660575909 L 8 31.83137660575909 L 0 31.83137660575909 Z " stroke="none" fill-rule="evenodd" fill="#000000" fill-opacity="1" transform="matrix(1,0,0,1,5.05,13.314000000000002)" id="mark80 ml" />
  <path d="M 0 25.33448050479924 L 25 25.33448050479924 L 25 26.634480504799242 L 0 26.634480504799242 Z " stroke="none" fill-rule="evenodd" fill="#000000" fill-opacity="1" transform="matrix(1,0,0,1,5.05,13.314000000000002)" id="mark100 ml" />
  <path d="M 11.291999999999996 24.18448050479924 L 11.291999999999996 18.74048050479924 L 10.839999999999996 18.74048050479924 L 10.807999999999996 18.36048050479924 L 11.511999999999997 17.78448050479924 L 12.391999999999998 17.78448050479924 L 12.391999999999998 24.18448050479924 Z M 13.163999999999996 22.77248050479924 C 13.155999999999995 22.343147171465905, 13.150666666666663 21.92648050479924, 13.147999999999996 21.52248050479924 C 13.14533333333333 21.11848050479924, 13.145999999999997 20.723147171465907, 13.149999999999997 20.33648050479924 C 13.153999999999996 19.949813838132574, 13.158666666666665 19.56848050479924, 13.163999999999996 19.19248050479924 C 13.17733333333333 18.752480504799237, 13.301999999999996 18.407147171465905, 13.537999999999997 18.15648050479924 C 13.773999999999997 17.905813838132573, 14.110666666666663 17.76048050479924, 14.547999999999996 17.72048050479924 L 14.547999999999996 18.60848050479924 C 14.350666666666662 18.66448050479924, 14.249333333333329 18.79381383813257, 14.243999999999996 18.99648050479924 C 14.230666666666664 19.36714717146591, 14.22133333333333 19.715147171465908, 14.215999999999996 20.04048050479924 C 14.210666666666663 20.365813838132574, 14.207999999999997 20.68248050479924, 14.207999999999997 20.99048050479924 C 14.207999999999997 21.29848050479924, 14.210666666666663 21.613147171465908, 14.215999999999996 21.93448050479924 C 14.22133333333333 22.25581383813257, 14.230666666666664 22.599147171465905, 14.243999999999996 22.96448050479924 C 14.249333333333329 23.17248050479924, 14.350666666666662 23.304480504799237, 14.547999999999996 23.360480504799238 L 14.547999999999996 24.24848050479924 C 14.110666666666663 24.20848050479924, 13.773999999999997 24.06248050479924, 13.537999999999997 23.81048050479924 C 13.301999999999996 23.558480504799242, 13.17733333333333 23.21248050479924, 13.163999999999996 22.77248050479924 Z M 15.051999999999996 24.24848050479924 L 15.051999999999996 23.35648050479924 C 15.235999999999997 23.303147171465906, 15.334666666666664 23.179147171465907, 15.347999999999995 22.98448050479924 C 15.366666666666664 22.517813838132575, 15.378666666666664 22.069147171465907, 15.383999999999997 21.63848050479924 C 15.38933333333333 21.207813838132573, 15.38933333333333 20.777147171465906, 15.383999999999997 20.34648050479924 C 15.378666666666664 19.91581383813257, 15.366666666666664 19.463147171465906, 15.347999999999995 18.98848050479924 C 15.342666666666663 18.793813838132575, 15.243999999999996 18.667147171465906, 15.051999999999996 18.60848050479924 L 15.051999999999996 17.72048050479924 C 15.481333333333328 17.76048050479924, 15.814666666666662 17.905813838132573, 16.051999999999996 18.15648050479924 C 16.28933333333333 18.407147171465905, 16.41333333333333 18.752480504799237, 16.423999999999996 19.19248050479924 C 16.434666666666665 19.507147171465906, 16.442666666666664 19.81714717146591, 16.447999999999997 20.122480504799242 C 16.45333333333333 20.427813838132575, 16.455999999999996 20.72848050479924, 16.455999999999996 21.02448050479924 C 16.455999999999996 21.32048050479924, 16.45333333333333 21.61381383813257, 16.447999999999997 21.90448050479924 C 16.442666666666664 22.195147171465905, 16.434666666666665 22.48448050479924, 16.423999999999996 22.77248050479924 C 16.407999999999994 23.223147171465907, 16.279999999999994 23.571813838132574, 16.039999999999996 23.81848050479924 C 15.799999999999997 24.065147171465906, 15.470666666666663 24.20848050479924, 15.051999999999996 24.24848050479924 Z M 17.139999999999997 22.77248050479924 C 17.131999999999998 22.343147171465905, 17.126666666666665 21.92648050479924, 17.123999999999995 21.52248050479924 C 17.121333333333325 21.11848050479924, 17.121999999999993 20.723147171465907, 17.125999999999994 20.33648050479924 C 17.129999999999995 19.949813838132574, 17.13466666666666 19.56848050479924, 17.139999999999997 19.19248050479924 C 17.15333333333333 18.752480504799237, 17.277999999999995 18.407147171465905, 17.513999999999996 18.15648050479924 C 17.749999999999996 17.905813838132573, 18.086666666666662 17.76048050479924, 18.523999999999994 17.72048050479924 L 18.523999999999994 18.60848050479924 C 18.32666666666666 18.66448050479924, 18.225333333333328 18.79381383813257, 18.219999999999995 18.99648050479924 C 18.206666666666663 19.36714717146591, 18.19733333333333 19.715147171465908, 18.191999999999997 20.04048050479924 C 18.18666666666666 20.365813838132574, 18.183999999999994 20.68248050479924, 18.183999999999994 20.99048050479924 C 18.183999999999994 21.29848050479924, 18.18666666666666 21.613147171465908, 18.191999999999997 21.93448050479924 C 18.19733333333333 22.25581383813257, 18.206666666666663 22.599147171465905, 18.219999999999995 22.96448050479924 C 18.225333333333328 23.17248050479924, 18.32666666666666 23.304480504799237, 18.523999999999994 23.360480504799238 L 18.523999999999994 24.24848050479924 C 18.086666666666662 24.20848050479924, 17.749999999999996 24.06248050479924, 17.513999999999996 23.81048050479924 C 17.277999999999995 23.558480504799242, 17.15333333333333 23.21248050479924, 17.139999999999997 22.77248050479924 Z M 19.027999999999995 24.24848050479924 L 19.027999999999995 23.35648050479924 C 19.211999999999996 23.303147171465906, 19.310666666666663 23.179147171465907, 19.323999999999995 22.98448050479924 C 19.342666666666663 22.517813838132575, 19.354666666666663 22.069147171465907, 19.359999999999996 21.63848050479924 C 19.36533333333333 21.207813838132573, 19.36533333333333 20.777147171465906, 19.359999999999996 20.34648050479924 C 19.354666666666663 19.91581383813257, 19.342666666666663 19.463147171465906, 19.323999999999995 18.98848050479924 C 19.31866666666666 18.793813838132575, 19.219999999999995 18.667147171465906, 19.027999999999995 18.60848050479924 L 19.027999999999995 17.72048050479924 C 19.45733333333333 17.76048050479924, 19.790666666666663 17.905813838132573, 20.027999999999995 18.15648050479924 C 20.26533333333333 18.407147171465905, 20.38933333333333 18.752480504799237, 20.399999999999995 19.19248050479924 C 20.410666666666664 19.507147171465906, 20.418666666666663 19.81714717146591, 20.423999999999996 20.122480504799242 C 20.42933333333333 20.427813838132575, 20.431999999999995 20.72848050479924, 20.431999999999995 21.02448050479924 C 20.431999999999995 21.32048050479924, 20.42933333333333 21.61381383813257, 20.423999999999996 21.90448050479924 C 20.418666666666663 22.195147171465905, 20.410666666666664 22.48448050479924, 20.399999999999995 22.77248050479924 C 20.383999999999993 23.223147171465907, 20.255999999999993 23.571813838132574, 20.015999999999995 23.81848050479924 C 19.775999999999996 24.065147171465906, 19.446666666666662 24.20848050479924, 19.027999999999995 24.24848050479924 Z M 22.887999999999995 24.18448050479924 L 22.887999999999995 19.38448050479924 L 23.955999999999996 19.38448050479924 L 23.955999999999996 24.18448050479924 Z M 27.111999999999995 24.18448050479924 L 27.111999999999995 20.48448050479924 C 27.111999999999995 20.34314717146591, 27.07399999999999 20.241147171465908, 26.997999999999994 20.17848050479924 C 26.92199999999999 20.11581383813257, 26.818666666666658 20.084480504799238, 26.687999999999995 20.084480504799238 C 26.647999999999996 20.084480504799238, 26.614666666666658 20.088480504799236, 26.587999999999994 20.09648050479924 L 26.587999999999994 19.46448050479924 C 26.66266666666666 19.41648050479924, 26.745333333333328 19.37848050479924, 26.835999999999995 19.35048050479924 C 26.926666666666662 19.322480504799238, 27.029333333333327 19.30848050479924, 27.143999999999995 19.30848050479924 C 27.471999999999994 19.30848050479924, 27.725999999999992 19.406480504799237, 27.905999999999995 19.60248050479924 C 28.08599999999999 19.79848050479924, 28.175999999999995 20.123147171465906, 28.175999999999995 20.57648050479924 L 28.175999999999995 24.18448050479924 Z M 25.015999999999995 24.18448050479924 L 25.015999999999995 20.48448050479924 C 25.015999999999995 20.34848050479924, 24.981999999999992 20.247813838132572, 24.913999999999994 20.18248050479924 C 24.845999999999997 20.117147171465906, 24.742666666666665 20.084480504799238, 24.603999999999996 20.084480504799238 C 24.58 20.084480504799238, 24.55533333333333 20.085147171465906, 24.529999999999994 20.08648050479924 C 24.504666666666658 20.087813838132572, 24.479999999999997 20.09248050479924, 24.455999999999996 20.10048050479924 L 24.455999999999996 19.48448050479924 C 24.528 19.425813838132573, 24.61066666666666 19.381813838132572, 24.703999999999994 19.35248050479924 C 24.797333333333327 19.323147171465905, 24.911999999999992 19.30848050479924, 25.047999999999995 19.30848050479924 C 25.375999999999998 19.30848050479924, 25.63133333333333 19.406480504799237, 25.813999999999997 19.60248050479924 C 25.996666666666663 19.79848050479924, 26.087999999999994 20.123147171465906, 26.087999999999994 20.57648050479924 L 26.087999999999994 24.18448050479924 Z M 28.943999999999996 24.18448050479924 L 28.943999999999996 17.78448050479924 L 30.003999999999998 17.78448050479924 L 30.003999999999998 24.18448050479924 Z " stroke="none" fill-rule="nonzero" fill="#000000" fill-opacity="1" transform="matrix(1,0,0,1,5.05,13.314000000000002)" id="text100 ml" />
  <path d="M 0 20.137584403839394 L 8 20.137584403839394 L 8 21.437584403839395 L 0 21.437584403839395 Z " stroke="none" fill-rule="evenodd" fill="#000000" fill-opacity="1" transform="matrix(1,0,0,1,5.05,13.314000000000002)" id="mark120 ml" />
  <path d="M 0 14.940688302879535 L 8 14.940688302879535 L 8 16.240688302879533 L 0 16.240688302879533 Z " stroke="none" fill-rule="evenodd" fill="#000000" fill-opacity="1" transform="matrix(1,0,0,1,5.05,13.314000000000002)" id="mark140 ml" />
  <path d="M 0 9.743792201919694 L 8 9.743792201919694 L 8 11.043792201919695 L 0 11.043792201919695 Z " stroke="none" fill-rule="evenodd" fill="#000000" fill-opacity="1" transform="matrix(1,0,0,1,5.05,13.314000000000002)" id="mark160 ml" />
  <path d="M 0 4.546896100959854 L 8 4.546896100959854 L 8 5.846896100959854 L 0 5.846896100959854 Z " stroke="none" fill-rule="evenodd" fill="#000000" fill-opacity="1" transform="matrix(1,0,0,1,5.05,13.314000000000002)" id="mark180 ml" />
  <path d="M 0 -0.65 L 25 -0.65 L 25 0.65 L 0 0.65 Z " stroke="none" fill-rule="evenodd" fill="#000000" fill-opacity="1" transform="matrix(1,0,0,1,5.05,13.314000000000002)" id="mark200 ml" />
  <path d="M 9.287999999999998 -1.7999999999999998 C 9.285333333333332 -1.8986666666666663, 9.283333333333331 -1.987333333333333, 9.281999999999998 -2.066 C 9.280666666666665 -2.1446666666666663, 9.279333333333334 -2.2186666666666666, 9.277999999999999 -2.288 C 9.276666666666667 -2.357333333333333, 9.276 -2.429333333333333, 9.276 -2.5039999999999996 C 9.276 -2.5786666666666664, 9.276 -2.663333333333333, 9.276 -2.758 C 9.276 -2.852666666666667, 9.277333333333333 -2.964, 9.28 -3.0919999999999996 C 9.288 -3.3853333333333335, 9.338 -3.647333333333333, 9.43 -3.8779999999999997 C 9.522 -4.108666666666667, 9.655999999999999 -4.314666666666667, 9.831999999999999 -4.4959999999999996 C 10.008 -4.677333333333333, 10.225333333333333 -4.838666666666667, 10.483999999999998 -4.98 L 11.015999999999998 -5.268 C 11.202666666666666 -5.3693333333333335, 11.322 -5.491333333333333, 11.373999999999999 -5.634 C 11.425999999999998 -5.776666666666667, 11.455999999999998 -5.910666666666667, 11.463999999999999 -6.036 C 11.474666666666666 -6.182666666666666, 11.480666666666666 -6.339333333333333, 11.482 -6.506 C 11.483333333333333 -6.672666666666667, 11.479999999999999 -6.829333333333334, 11.472 -6.976 C 11.466666666666665 -7.08, 11.436666666666666 -7.165999999999999, 11.381999999999998 -7.233999999999999 C 11.327333333333332 -7.302, 11.247999999999998 -7.350666666666666, 11.143999999999998 -7.38 L 11.143999999999998 -8.268 C 11.631999999999998 -8.236, 11.982 -8.104666666666667, 12.193999999999999 -7.874 C 12.405999999999999 -7.643333333333333, 12.522666666666666 -7.282666666666666, 12.543999999999999 -6.792 C 12.546666666666665 -6.728, 12.548666666666666 -6.6626666666666665, 12.549999999999999 -6.595999999999999 C 12.551333333333332 -6.529333333333334, 12.552 -6.464666666666666, 12.552 -6.402 C 12.552 -6.339333333333332, 12.551333333333332 -6.277333333333333, 12.549999999999999 -6.216 C 12.548666666666666 -6.1546666666666665, 12.546666666666665 -6.094666666666667, 12.543999999999999 -6.036 C 12.533333333333331 -5.750666666666667, 12.479999999999997 -5.504, 12.383999999999999 -5.295999999999999 C 12.287999999999997 -5.088, 12.157999999999998 -4.908, 11.994 -4.756 C 11.83 -4.604, 11.64 -4.468, 11.424 -4.348 L 10.819999999999999 -4.02 C 10.705333333333332 -3.9586666666666663, 10.615333333333332 -3.8746666666666663, 10.549999999999999 -3.768 C 10.484666666666666 -3.6613333333333333, 10.437999999999999 -3.548, 10.409999999999998 -3.428 C 10.381999999999998 -3.308, 10.367999999999999 -3.1959999999999997, 10.367999999999999 -3.0919999999999996 L 10.367999999999999 -1.7999999999999998 Z M 9.296 -5.84 C 9.290666666666667 -5.957333333333333, 9.286666666666665 -6.071999999999999, 9.283999999999999 -6.184 C 9.281333333333333 -6.295999999999999, 9.279333333333334 -6.401999999999999, 9.277999999999999 -6.502 C 9.276666666666667 -6.602, 9.277333333333333 -6.698666666666666, 9.28 -6.792 C 9.298666666666666 -7.279999999999999, 9.415333333333333 -7.639333333333333, 9.629999999999999 -7.87 C 9.844666666666665 -8.100666666666667, 10.181333333333331 -8.233333333333334, 10.639999999999999 -8.268 L 10.639999999999999 -7.3759999999999994 C 10.543999999999999 -7.346666666666666, 10.473333333333333 -7.3, 10.427999999999999 -7.236 C 10.382666666666665 -7.172, 10.358666666666666 -7.094666666666667, 10.355999999999998 -7.004 C 10.350666666666665 -6.795999999999999, 10.347333333333333 -6.602666666666666, 10.346 -6.424 C 10.344666666666667 -6.245333333333333, 10.349333333333334 -6.050666666666666, 10.36 -5.84 Z M 10.872 -1.7999999999999998 L 10.872 -2.7319999999999998 L 12.468 -2.7319999999999998 L 12.468 -1.7999999999999998 Z M 13.164 -3.2119999999999997 C 13.155999999999999 -3.641333333333333, 13.150666666666666 -4.058, 13.148 -4.462 C 13.145333333333333 -4.866, 13.146 -5.261333333333333, 13.15 -5.648 C 13.154 -6.034666666666666, 13.158666666666667 -6.416, 13.164 -6.792 C 13.177333333333333 -7.231999999999999, 13.302 -7.577333333333334, 13.538 -7.828 C 13.774000000000001 -8.078666666666667, 14.110666666666667 -8.224, 14.548 -8.264 L 14.548 -7.3759999999999994 C 14.350666666666665 -7.32, 14.249333333333333 -7.190666666666667, 14.244 -6.9879999999999995 C 14.230666666666668 -6.617333333333333, 14.221333333333334 -6.269333333333333, 14.216 -5.944 C 14.210666666666665 -5.618666666666666, 14.207999999999998 -5.302, 14.208 -4.994 C 14.207999999999998 -4.686, 14.210666666666665 -4.371333333333333, 14.216 -4.05 C 14.221333333333334 -3.7286666666666664, 14.230666666666668 -3.3853333333333326, 14.244 -3.0199999999999996 C 14.249333333333333 -2.812, 14.350666666666665 -2.6799999999999997, 14.548 -2.6239999999999997 L 14.548 -1.7359999999999998 C 14.110666666666667 -1.7759999999999998, 13.774000000000001 -1.9219999999999997, 13.538 -2.174 C 13.302 -2.4259999999999997, 13.177333333333333 -2.772, 13.164 -3.2119999999999997 Z M 15.052 -1.7359999999999998 L 15.052 -2.6279999999999997 C 15.235999999999999 -2.681333333333333, 15.334666666666665 -2.8053333333333335, 15.347999999999999 -3 C 15.366666666666665 -3.4666666666666663, 15.378666666666666 -3.915333333333333, 15.384 -4.346 C 15.389333333333333 -4.776666666666666, 15.389333333333333 -5.207333333333333, 15.384 -5.638 C 15.378666666666666 -6.068666666666666, 15.366666666666665 -6.521333333333333, 15.347999999999999 -6.9959999999999996 C 15.342666666666666 -7.190666666666667, 15.244 -7.317333333333334, 15.052 -7.3759999999999994 L 15.052 -8.264 C 15.481333333333334 -8.224, 15.814666666666668 -8.078666666666667, 16.052 -7.828 C 16.289333333333335 -7.577333333333334, 16.413333333333334 -7.231999999999999, 16.424 -6.792 C 16.43466666666667 -6.477333333333332, 16.442666666666668 -6.167333333333333, 16.448 -5.861999999999999 C 16.453333333333333 -5.556666666666667, 16.456 -5.256, 16.456 -4.96 C 16.456 -4.664, 16.453333333333333 -4.370666666666667, 16.448 -4.08 C 16.442666666666668 -3.7893333333333334, 16.43466666666667 -3.5, 16.424 -3.2119999999999997 C 16.407999999999998 -2.761333333333333, 16.279999999999998 -2.4126666666666665, 16.04 -2.166 C 15.8 -1.9193333333333331, 15.470666666666666 -1.7759999999999998, 15.052 -1.7359999999999998 Z M 17.14 -3.2119999999999997 C 17.132 -3.641333333333333, 17.126666666666665 -4.058, 17.124 -4.462 C 17.121333333333332 -4.866, 17.122 -5.261333333333333, 17.125999999999998 -5.648 C 17.129999999999995 -6.034666666666666, 17.134666666666664 -6.416, 17.14 -6.792 C 17.153333333333332 -7.231999999999999, 17.278 -7.577333333333334, 17.514 -7.828 C 17.75 -8.078666666666667, 18.086666666666666 -8.224, 18.523999999999997 -8.264 L 18.523999999999997 -7.3759999999999994 C 18.326666666666664 -7.32, 18.22533333333333 -7.190666666666667, 18.22 -6.9879999999999995 C 18.206666666666667 -6.617333333333333, 18.197333333333333 -6.269333333333333, 18.192 -5.944 C 18.186666666666667 -5.618666666666666, 18.183999999999997 -5.302, 18.183999999999997 -4.994 C 18.183999999999997 -4.686, 18.186666666666667 -4.371333333333333, 18.192 -4.05 C 18.197333333333333 -3.7286666666666664, 18.206666666666667 -3.3853333333333326, 18.22 -3.0199999999999996 C 18.22533333333333 -2.812, 18.326666666666664 -2.6799999999999997, 18.523999999999997 -2.6239999999999997 L 18.523999999999997 -1.7359999999999998 C 18.086666666666666 -1.7759999999999998, 17.75 -1.9219999999999997, 17.514 -2.174 C 17.278 -2.4259999999999997, 17.153333333333332 -2.772, 17.14 -3.2119999999999997 Z M 19.028 -1.7359999999999998 L 19.028 -2.6279999999999997 C 19.211999999999996 -2.681333333333333, 19.310666666666663 -2.8053333333333335, 19.323999999999998 -3 C 19.342666666666666 -3.4666666666666663, 19.354666666666667 -3.915333333333333, 19.36 -4.346 C 19.365333333333332 -4.776666666666666, 19.365333333333332 -5.207333333333333, 19.36 -5.638 C 19.354666666666667 -6.068666666666666, 19.342666666666666 -6.521333333333333, 19.323999999999998 -6.9959999999999996 C 19.318666666666665 -7.190666666666667, 19.22 -7.317333333333334, 19.028 -7.3759999999999994 L 19.028 -8.264 C 19.45733333333333 -8.224, 19.790666666666663 -8.078666666666667, 20.028 -7.828 C 20.265333333333334 -7.577333333333334, 20.389333333333333 -7.231999999999999, 20.4 -6.792 C 20.410666666666668 -6.477333333333332, 20.418666666666667 -6.167333333333333, 20.424 -5.861999999999999 C 20.429333333333332 -5.556666666666667, 20.432 -5.256, 20.432 -4.96 C 20.432 -4.664, 20.429333333333332 -4.370666666666667, 20.424 -4.08 C 20.418666666666667 -3.7893333333333334, 20.410666666666668 -3.5, 20.4 -3.2119999999999997 C 20.383999999999997 -2.761333333333333, 20.255999999999997 -2.4126666666666665, 20.016 -2.166 C 19.776 -1.9193333333333331, 19.446666666666665 -1.7759999999999998, 19.028 -1.7359999999999998 Z M 22.887999999999998 -1.7999999999999998 L 22.887999999999998 -6.6 L 23.956 -6.6 L 23.956 -1.7999999999999998 Z M 27.112 -1.7999999999999998 L 27.112 -5.5 C 27.112 -5.641333333333333, 27.073999999999998 -5.743333333333333, 26.997999999999998 -5.806 C 26.922 -5.868666666666666, 26.818666666666665 -5.8999999999999995, 26.688 -5.8999999999999995 C 26.647999999999996 -5.8999999999999995, 26.614666666666665 -5.896, 26.587999999999997 -5.888 L 26.587999999999997 -6.52 C 26.662666666666667 -6.568, 26.745333333333335 -6.606, 26.836 -6.6339999999999995 C 26.926666666666662 -6.662, 27.029333333333334 -6.676, 27.144 -6.676 C 27.472 -6.676, 27.726 -6.578, 27.906 -6.382000000000001 C 28.086 -6.186, 28.176 -5.861333333333333, 28.176 -5.4079999999999995 L 28.176 -1.7999999999999998 Z M 25.016 -1.7999999999999998 L 25.016 -5.5 C 25.016 -5.636, 24.982 -5.736666666666666, 24.913999999999998 -5.802 C 24.845999999999997 -5.867333333333333, 24.742666666666665 -5.8999999999999995, 24.604 -5.8999999999999995 C 24.58 -5.8999999999999995, 24.55533333333333 -5.899333333333333, 24.529999999999998 -5.898 C 24.504666666666665 -5.8966666666666665, 24.479999999999997 -5.8919999999999995, 24.456 -5.8839999999999995 L 24.456 -6.5 C 24.528 -6.558666666666667, 24.610666666666667 -6.602666666666668, 24.704 -6.632000000000001 C 24.797333333333334 -6.661333333333333, 24.912 -6.676, 25.048 -6.676 C 25.375999999999998 -6.676, 25.631333333333334 -6.578, 25.814 -6.382000000000001 C 25.996666666666666 -6.186, 26.088 -5.861333333333333, 26.087999999999997 -5.4079999999999995 L 26.087999999999997 -1.7999999999999998 Z M 28.944 -1.7999999999999998 L 28.944 -8.2 L 30.003999999999998 -8.2 L 30.003999999999998 -1.7999999999999998 Z " stroke="none" fill-rule="nonzero" fill="#000000" fill-opacity="1" transform="matrix(1,0,0,1,5.05,13.314000000000002)" id="text200 ml" />
  <path d="M -5 -13.264000000000001 L 35 -13.264000000000001 L 35 53.50806490863862 L -5 53.50806490863862 Z " stroke="#FF0000" stroke-opacity="1" stroke-width="0.1" stroke-linecap="butt" stroke-linejoin="miter" fill="none" transform="matrix(1,0,0,1,5.05,13.314000000000002)" />
</svg>