<?xml version="1.0" encoding="utf-8"?>
<svg xmlns="http://www.w3.org/2000/svg" xmlns:xlink="http://www.w3.org/1999/xlink" version="1.1" width="60mm" height="452.27484mm" viewBox="0 0 60 452.27484">
  <defs />
  <style>svg { background: #ffffff; }</style>
  <rect id="cutLine" fill="none" stroke="red" stroke-width="0.05" width="60" height="452.27484" />
  <g id="scale" transform="translate(5, 5)">
    <rect id="mark_10" fill="Black" x="0" y="439.77484" width="50" height="2.5" />
    <path fill="Black" d="M 0.9082031 1.9152832 L 0.9082031 12.121582 L 2.9699707 12.121582 L 2.9699707 0.12084961 L 1.3220215 0.12084961 L 0 1.2011719 L 0.06225586 1.9152832 L 0.9082031 1.9152832 Z M 4.263672 7.130127 Q 4.270996 8.265381, 4.2929688 9.473877 Q 4.333252 10.71167, 4.9960938 11.422119 Q 5.6589355 12.128906, 6.8894043 12.242432 L 6.8894043 10.576172 Q 6.3327637 10.418701, 6.318115 9.832764 Q 6.281494 8.807373, 6.2668457 7.902832 Q 6.2521973 6.998291, 6.2521973 6.134033 Q 6.2521973 5.2661133, 6.2668457 4.350586 Q 6.281494 3.4350586, 6.318115 2.3950195 Q 6.3327637 1.8237305, 6.8894043 1.6662598 L 6.8894043 0 Q 5.6589355 0.11352539, 4.9960938 0.8203125 Q 4.333252 1.5234375, 4.2929688 2.7612305 Q 4.2783203 3.81958, 4.267334 4.9072266 Q 4.2563477 5.994873, 4.263672 7.130127 Z M 7.8342285 10.568848 L 7.8342285 12.242432 Q 9.009766 12.128906, 9.683594 11.436768 Q 10.361084 10.740967, 10.405029 9.473877 Q 10.437988 8.664551, 10.452637 7.8479004 Q 10.467285 7.027588, 10.467285 6.196289 Q 10.467285 5.36499, 10.452637 4.5080566 Q 10.437988 3.647461, 10.405029 2.7612305 Q 10.375732 1.5234375, 9.7092285 0.8203125 Q 9.042725 0.11352539, 7.8342285 0 L 7.8342285 1.6662598 Q 8.372559 1.8310547, 8.387207 2.380371 Q 8.442139 3.713379, 8.456787 4.925537 Q 8.471436 6.1376953, 8.456787 7.3498535 Q 8.442139 8.55835, 8.387207 9.873047 Q 8.350586 10.418701, 7.8342285 10.568848 Z M 14.362549 12.121582 L 14.362549 0.12084961 L 16.347412 0.12084961 L 16.347412 12.121582 L 14.362549 12.121582 Z" transform="translate(31.652588, 425.77484)" />
    <rect id="mark_15" fill="Black" x="0" y="427.75204" width="20" height="1.5" />
    <rect id="mark_20" fill="Black" x="0" y="414.72925" width="50" height="2.5" />
    <path fill="Black" d="M 0.010986328 11.630859 Q 0.0146484375 11.850586, 0.021972656 12.128906 L 2.0471191 12.128906 L 2.0471191 9.70459 Q 2.0471191 9.415283, 2.1240234 9.078369 Q 2.2045898 8.737793, 2.3876953 8.4375 Q 2.5708008 8.137207, 2.8930664 7.965088 L 4.024658 7.3498535 Q 4.6325684 7.0129395, 5.093994 6.588135 Q 5.55542 6.159668, 5.826416 5.5737305 Q 6.097412 4.987793, 6.126709 4.185791 Q 6.134033 4.020996, 6.1376953 3.848877 Q 6.1413574 3.6767578, 6.1413574 3.5009766 Q 6.1413574 3.3251953, 6.1376953 3.1384277 Q 6.134033 2.947998, 6.126709 2.7685547 Q 6.064453 1.3879395, 5.4675293 0.7397461 Q 4.8742676 0.091552734, 3.5009766 0 L 3.5009766 1.6662598 Q 3.7939453 1.7504883, 3.947754 1.940918 Q 4.1015625 2.1313477, 4.116211 2.4243164 Q 4.1381836 2.8381348, 4.1345215 3.3068848 Q 4.1308594 3.7756348, 4.1015625 4.185791 Q 4.07959 4.5373535, 3.9331055 4.9401855 Q 3.786621 5.3430176, 3.2592773 5.625 L 2.2631836 6.166992 Q 1.5344238 6.5625, 1.0400391 7.0751953 Q 0.5456543 7.5842285, 0.28564453 8.232422 Q 0.029296875 8.880615, 0.0073242188 9.70459 Q 0 10.067139, 0 10.334473 L 0 10.810547 Q 0 11.019287, 0.0036621094 11.213379 Q 0.0073242188 11.407471, 0.010986328 11.630859 Z M 0.0146484375 3.9074707 Q 0.021972656 4.222412, 0.036621094 4.555664 L 2.0324707 4.555664 Q 1.9995117 3.9624023, 2.0031738 3.4606934 Q 2.006836 2.9553223, 2.0251465 2.3730469 Q 2.0324707 2.1166992, 2.1569824 1.9372559 Q 2.2851562 1.7578125, 2.5561523 1.673584 L 2.5561523 0 Q 1.2670898 0.09887695, 0.6628418 0.7470703 Q 0.05859375 1.3952637, 0.0073242188 2.7685547 Q 0 3.0322266, 0.0036621094 3.314209 Q 0.0073242188 3.5925293, 0.0146484375 3.9074707 Z M 2.9919434 10.38208 L 2.9919434 12.128906 L 5.9838867 12.128906 L 5.9838867 10.38208 L 2.9919434 10.38208 Z M 7.073242 7.137451 Q 7.0805664 8.272705, 7.102539 9.481201 Q 7.1428223 10.718994, 7.805664 11.429443 Q 8.468506 12.13623, 9.698975 12.249756 L 9.698975 10.583496 Q 9.142334 10.426025, 9.127686 9.840088 Q 9.091064 8.814697, 9.076416 7.9101562 Q 9.061768 7.005615, 9.061768 6.1413574 Q 9.061768 5.2734375, 9.076416 4.35791 Q 9.091064 3.4423828, 9.127686 2.4023438 Q 9.142334 1.8310547, 9.698975 1.673584 L 9.698975 0.0073242188 Q 8.468506 0.12084961, 7.805664 0.8276367 Q 7.1428223 1.5307617, 7.102539 2.7685547 Q 7.0878906 3.8269043, 7.0769043 4.914551 Q 7.065918 6.0021973, 7.073242 7.137451 Z M 10.643799 10.576172 L 10.643799 12.249756 Q 11.819336 12.13623, 12.493164 11.444092 Q 13.170654 10.748291, 13.2146 9.481201 Q 13.247559 8.671875, 13.262207 7.8552246 Q 13.276855 7.034912, 13.276855 6.2036133 Q 13.276855 5.3723145, 13.262207 4.515381 Q 13.247559 3.6547852, 13.2146 2.7685547 Q 13.185303 1.5307617, 12.518799 0.8276367 Q 11.852295 0.12084961, 10.643799 0.0073242188 L 10.643799 1.673584 Q 11.182129 1.8383789, 11.196777 2.3876953 Q 11.251709 3.7207031, 11.266357 4.9328613 Q 11.281006 6.1450195, 11.266357 7.3571777 Q 11.251709 8.565674, 11.196777 9.880371 Q 11.160156 10.426025, 10.643799 10.576172 Z M 17.17212 12.128906 L 17.17212 0.12817383 L 19.156982 0.12817383 L 19.156982 12.128906 L 17.17212 12.128906 Z" transform="translate(28.843018, 400.72925)" />
    <rect id="mark_25" fill="Black" x="0" y="402.70645" width="20" height="1.5" />
    <rect id="mark_30" fill="Black" x="0" y="389.6837" width="50" height="2.5" />
    <path fill="Black" d="M 0.14282227 0.12084961 L 0.14282227 1.8676758 L 6.225586 1.8676758 L 6.225586 0.12084961 L 0.14282227 0.12084961 Z M 4.2663574 9.737549 Q 4.244385 10.426025, 3.614502 10.583496 L 3.6218262 12.249756 Q 4.9804688 12.172852, 5.6066895 11.517334 Q 6.23291 10.861816, 6.2841797 9.466553 Q 6.298828 9.265137, 6.30249 9.071045 Q 6.3061523 8.873291, 6.3061523 8.679199 Q 6.3061523 8.485107, 6.30249 8.283691 Q 6.298828 8.078613, 6.2841797 7.8771973 Q 6.2145996 6.4453125, 5.6469727 5.756836 Q 5.083008 5.0646973, 3.8671875 5.0646973 L 3.8085938 5.0646973 L 5.625 2.5305176 L 3.3947754 2.5305176 L 1.5966797 5.123291 L 1.6479492 6.796875 L 3.050537 6.7822266 Q 3.7426758 6.767578, 3.988037 7.0751953 Q 4.2370605 7.3828125, 4.259033 7.8222656 Q 4.28833 8.250732, 4.284668 8.708496 Q 4.281006 9.16626, 4.2663574 9.737549 Z M 0.0036621094 8.994141 Q 0.0073242188 9.180908, 0.0146484375 9.466553 Q 0.05126953 10.839844, 0.67749023 11.491699 Q 1.3037109 12.143555, 2.677002 12.249756 L 2.677002 10.576172 Q 2.039795 10.3967285, 2.039795 9.730225 L 2.039795 8.10791 L 0.0146484375 8.10791 Q 0.0073242188 8.415527, 0.0036621094 8.613281 Q 0 8.807373, 0.0036621094 8.994141 Z M 7.2160645 7.130127 Q 7.2233887 8.265381, 7.2453613 9.473877 Q 7.2856445 10.71167, 7.9484863 11.422119 Q 8.611328 12.128906, 9.841797 12.242432 L 9.841797 10.576172 Q 9.285156 10.418701, 9.270508 9.832764 Q 9.233887 8.807373, 9.219238 7.902832 Q 9.20459 6.998291, 9.20459 6.134033 Q 9.20459 5.2661133, 9.219238 4.350586 Q 9.233887 3.4350586, 9.270508 2.3950195 Q 9.285156 1.8237305, 9.841797 1.6662598 L 9.841797 0 Q 8.611328 0.11352539, 7.9484863 0.8203125 Q 7.2856445 1.5234375, 7.2453613 2.7612305 Q 7.230713 3.81958, 7.2197266 4.9072266 Q 7.20874 5.994873, 7.2160645 7.130127 Z M 10.786621 10.568848 L 10.786621 12.242432 Q 11.962158 12.128906, 12.635986 11.436768 Q 13.313477 10.740967, 13.357422 9.473877 Q 13.390381 8.664551, 13.405029 7.8479004 Q 13.419678 7.027588, 13.419678 6.196289 Q 13.419678 5.36499, 13.405029 4.5080566 Q 13.390381 3.647461, 13.357422 2.7612305 Q 13.328125 1.5234375, 12.661621 0.8203125 Q 11.995117 0.11352539, 10.786621 0 L 10.786621 1.6662598 Q 11.324951 1.8310547, 11.3396 2.380371 Q 11.394531 3.713379, 11.40918 4.925537 Q 11.423828 6.1376953, 11.40918 7.3498535 Q 11.394531 8.55835, 11.3396 9.873047 Q 11.3029785 10.418701, 10.786621 10.568848 Z M 17.314941 12.121582 L 17.314941 0.12084961 L 19.299805 0.12084961 L 19.299805 12.121582 L 17.314941 12.121582 Z" transform="translate(28.700195, 375.6837)" />
    <rect id="mark_35" fill="Black" x="0" y="377.6609" width="20" height="1.5" />
    <rect id="mark_40" fill="Black" x="0" y="364.6381" width="50" height="2.5" />
    <path fill="Black" d="M 3.6291504 0.12084961 L 3.6291504 12.121582 L 5.518799 12.121582 L 5.518799 0.12084961 L 3.6291504 0.12084961 Z M 0 7.3205566 L 0 8.964844 L 2.6843262 8.964844 L 2.6843262 7.232666 L 1.9335938 7.232666 L 3.2922363 3.7976074 L 1.3439941 3.7976074 L 0 7.3205566 Z M 6.463623 7.232666 L 6.463623 8.964844 L 7.3425293 8.964844 L 7.3425293 7.232666 L 6.463623 7.232666 Z M 8.314941 7.130127 Q 8.322266 8.265381, 8.344238 9.473877 Q 8.3845215 10.71167, 9.047363 11.422119 Q 9.710205 12.128906, 10.940674 12.242432 L 10.940674 10.576172 Q 10.384033 10.418701, 10.369385 9.832764 Q 10.332764 8.807373, 10.318115 7.902832 Q 10.303467 6.998291, 10.303467 6.134033 Q 10.303467 5.2661133, 10.318115 4.350586 Q 10.332764 3.4350586, 10.369385 2.3950195 Q 10.384033 1.8237305, 10.940674 1.6662598 L 10.940674 0 Q 9.710205 0.11352539, 9.047363 0.8203125 Q 8.3845215 1.5234375, 8.344238 2.7612305 Q 8.32959 3.81958, 8.3186035 4.9072266 Q 8.307617 5.994873, 8.314941 7.130127 Z M 11.885498 10.568848 L 11.885498 12.242432 Q 13.061035 12.128906, 13.734863 11.436768 Q 14.4123535 10.740967, 14.456299 9.473877 Q 14.489258 8.664551, 14.503906 7.8479004 Q 14.518555 7.027588, 14.518555 6.196289 Q 14.518555 5.36499, 14.503906 4.5080566 Q 14.489258 3.647461, 14.456299 2.7612305 Q 14.427002 1.5234375, 13.760498 0.8203125 Q 13.093994 0.11352539, 11.885498 0 L 11.885498 1.6662598 Q 12.423828 1.8310547, 12.438477 2.380371 Q 12.493408 3.713379, 12.508057 4.925537 Q 12.522705 6.1376953, 12.508057 7.3498535 Q 12.493408 8.55835, 12.438477 9.873047 Q 12.401855 10.418701, 11.885498 10.568848 Z M 18.413818 12.121582 L 18.413818 0.12084961 L 20.398682 0.12084961 L 20.398682 12.121582 L 18.413818 12.121582 Z" transform="translate(27.601318, 350.6381)" />
    <rect id="mark_45" fill="Black" x="0" y="352.6153" width="20" height="1.5" />
    <rect id="mark_50" fill="Black" x="0" y="339.59253" width="50" height="2.5" />
    <path fill="Black" d="M 0.20141602 0.12084961 L 0.20141602 6.96167 L 2.2045898 6.96167 L 2.2045898 0.12084961 L 0.20141602 0.12084961 Z M 3.149414 0.12084961 L 3.149414 1.8676758 L 6.126709 1.8676758 L 6.126709 0.12084961 L 3.149414 0.12084961 Z M 3.149414 4.749756 L 3.149414 6.166992 Q 3.1713867 6.159668, 3.2006836 6.1523438 Q 3.2336426 6.1450195, 3.2629395 6.1450195 Q 3.7646484 6.1450195, 4.0063477 6.357422 Q 4.251709 6.569824, 4.2956543 7.005615 Q 4.35791 7.598877, 4.346924 8.250732 Q 4.3359375 8.902588, 4.2663574 9.7229 Q 4.244385 10.067139, 4.086914 10.283203 Q 3.9294434 10.495605, 3.6218262 10.576172 L 3.6218262 12.249756 Q 4.9658203 12.165527, 5.562744 11.513672 Q 6.16333 10.861816, 6.291504 9.4592285 Q 6.320801 9.093018, 6.335449 8.671875 Q 6.35376 8.250732, 6.3427734 7.8112793 Q 6.335449 7.368164, 6.3061523 6.9177246 Q 6.2475586 5.8007812, 5.731201 5.152588 Q 5.218506 4.5007324, 4.193115 4.5007324 Q 3.8928223 4.5007324, 3.6291504 4.5703125 Q 3.3654785 4.6362305, 3.149414 4.749756 Z M 0.0073242188 8.682861 Q 0 8.979492, 0.0146484375 9.466553 Q 0.05126953 10.839844, 0.6738281 11.491699 Q 1.2963867 12.143555, 2.6843262 12.249756 L 2.6843262 10.576172 Q 2.3840332 10.488281, 2.2192383 10.275879 Q 2.0544434 10.059814, 2.0251465 9.7229 Q 2.010498 9.572754, 2.006836 9.272461 Q 2.0031738 8.972168, 2.0141602 8.649902 Q 2.0251465 8.327637, 2.0471191 8.10791 L 0.021972656 8.10791 Q 0.0146484375 8.38623, 0.0073242188 8.682861 Z M 7.029297 7.130127 Q 7.036621 8.265381, 7.0585938 9.473877 Q 7.098877 10.71167, 7.7617188 11.422119 Q 8.424561 12.128906, 9.655029 12.242432 L 9.655029 10.576172 Q 9.098389 10.418701, 9.08374 9.832764 Q 9.047119 8.807373, 9.032471 7.902832 Q 9.017822 6.998291, 9.017822 6.134033 Q 9.017822 5.2661133, 9.032471 4.350586 Q 9.047119 3.4350586, 9.08374 2.3950195 Q 9.098389 1.8237305, 9.655029 1.6662598 L 9.655029 0 Q 8.424561 0.11352539, 7.7617188 0.8203125 Q 7.098877 1.5234375, 7.0585938 2.7612305 Q 7.0439453 3.81958, 7.032959 4.9072266 Q 7.0219727 5.994873, 7.029297 7.130127 Z M 10.5998535 10.568848 L 10.5998535 12.242432 Q 11.775391 12.128906, 12.449219 11.436768 Q 13.126709 10.740967, 13.170654 9.473877 Q 13.203613 8.664551, 13.218262 7.8479004 Q 13.23291 7.027588, 13.23291 6.196289 Q 13.23291 5.36499, 13.218262 4.5080566 Q 13.203613 3.647461, 13.170654 2.7612305 Q 13.141357 1.5234375, 12.4748535 0.8203125 Q 11.80835 0.11352539, 10.5998535 0 L 10.5998535 1.6662598 Q 11.138184 1.8310547, 11.152832 2.380371 Q 11.207764 3.713379, 11.222412 4.925537 Q 11.237061 6.1376953, 11.222412 7.3498535 Q 11.207764 8.55835, 11.152832 9.873047 Q 11.116211 10.418701, 10.5998535 10.568848 Z M 17.128174 12.121582 L 17.128174 0.12084961 L 19.113037 0.12084961 L 19.113037 12.121582 L 17.128174 12.121582 Z" transform="translate(28.886963, 325.59253)" />
    <rect id="mark_55" fill="Black" x="0" y="327.56973" width="20" height="1.5" />
    <rect id="mark_60" fill="Black" x="0" y="314.54694" width="50" height="2.5" />
    <path fill="Black" d="M 0.010986328 7.906494 Q 0.021972656 8.723145, 0.029296875 9.466553 Q 0.05126953 10.854492, 0.65185547 11.506348 Q 1.2524414 12.158203, 2.6257324 12.249756 L 2.6257324 10.576172 Q 2.347412 10.495605, 2.1936035 10.301514 Q 2.039795 10.10376, 2.039795 9.796143 Q 2.0178223 8.649902, 2.0178223 7.467041 Q 2.0178223 6.2805176, 2.0251465 5.028076 Q 2.0324707 3.7756348, 2.0544434 2.4023438 Q 2.0544434 2.1020508, 2.1972656 1.9226074 Q 2.340088 1.7431641, 2.611084 1.673584 L 2.611084 0 Q 1.4172363 0.10620117, 0.7324219 0.7836914 Q 0.05126953 1.4575195, 0.029296875 2.7612305 Q 0.0146484375 3.6254883, 0.0073242188 4.4970703 Q 0 5.36499, 0 6.229248 Q 0 7.0898438, 0.010986328 7.906494 Z M 4.1345215 3.380127 Q 4.1308594 3.5778809, 4.1088867 3.8415527 L 6.119385 3.8415527 Q 6.126709 3.5705566, 6.130371 3.380127 Q 6.134033 3.1896973, 6.130371 3.0212402 Q 6.126709 2.8527832, 6.119385 2.6623535 Q 6.0754395 1.5234375, 5.427246 0.8239746 Q 4.7790527 0.12084961, 3.548584 0.0073242188 L 3.548584 1.673584 Q 3.8269043 1.7431641, 3.9587402 1.9335938 Q 4.0942383 2.1240234, 4.1088867 2.4023438 Q 4.123535 2.7319336, 4.1308594 2.9589844 Q 4.1418457 3.182373, 4.1345215 3.380127 Z M 2.9333496 4.921875 L 2.9333496 6.3171387 Q 2.9919434 6.295166, 3.046875 6.291504 Q 3.1054688 6.287842, 3.1567383 6.287842 Q 3.614502 6.287842, 3.9001465 6.489258 Q 4.185791 6.690674, 4.193115 7.1118164 Q 4.2077637 7.4560547, 4.211426 7.767334 Q 4.215088 8.078613, 4.2077637 8.393555 Q 4.2004395 8.708496, 4.193115 9.0563965 Q 4.185791 9.400635, 4.1711426 9.832764 Q 4.1638184 10.133057, 4.01001 10.323486 Q 3.8562012 10.510254, 3.5632324 10.59082 L 3.5632324 12.249756 Q 4.9108887 12.165527, 5.518799 11.506348 Q 6.126709 10.847168, 6.196289 9.466553 Q 6.2182617 8.979492, 6.221924 8.635254 Q 6.225586 8.2873535, 6.221924 7.932129 Q 6.2182617 7.5769043, 6.2036133 7.060547 Q 6.1816406 5.753174, 5.720215 5.196533 Q 5.258789 4.6362305, 4.0649414 4.6362305 Q 3.7426758 4.6362305, 3.4533691 4.713135 Q 3.1640625 4.786377, 2.9333496 4.921875 Z M 7.007324 7.130127 Q 7.0146484 8.265381, 7.036621 9.473877 Q 7.0769043 10.71167, 7.739746 11.422119 Q 8.402588 12.128906, 9.633057 12.242432 L 9.633057 10.576172 Q 9.076416 10.418701, 9.061768 9.832764 Q 9.0251465 8.807373, 9.010498 7.902832 Q 8.99585 6.998291, 8.99585 6.134033 Q 8.99585 5.2661133, 9.010498 4.350586 Q 9.0251465 3.4350586, 9.061768 2.3950195 Q 9.076416 1.8237305, 9.633057 1.6662598 L 9.633057 0 Q 8.402588 0.11352539, 7.739746 0.8203125 Q 7.0769043 1.5234375, 7.036621 2.7612305 Q 7.0219727 3.81958, 7.0109863 4.9072266 Q 7 5.994873, 7.007324 7.130127 Z M 10.577881 10.568848 L 10.577881 12.242432 Q 11.753418 12.128906, 12.427246 11.436768 Q 13.104736 10.740967, 13.148682 9.473877 Q 13.181641 8.664551, 13.196289 7.8479004 Q 13.2109375 7.027588, 13.2109375 6.196289 Q 13.2109375 5.36499, 13.196289 4.5080566 Q 13.181641 3.647461, 13.148682 2.7612305 Q 13.119385 1.5234375, 12.452881 0.8203125 Q 11.786377 0.11352539, 10.577881 0 L 10.577881 1.6662598 Q 11.116211 1.8310547, 11.130859 2.380371 Q 11.185791 3.713379, 11.200439 4.925537 Q 11.215088 6.1376953, 11.200439 7.3498535 Q 11.185791 8.55835, 11.130859 9.873047 Q 11.094238 10.418701, 10.577881 10.568848 Z M 17.106201 12.121582 L 17.106201 0.12084961 L 19.091064 0.12084961 L 19.091064 12.121582 L 17.106201 12.121582 Z" transform="translate(28.908936, 300.54694)" />
    <rect id="mark_65" fill="Black" x="0" y="302.52414" width="20" height="1.5" />
    <rect id="mark_70" fill="Black" x="0" y="289.50137" width="50" height="2.5" />
    <path fill="Black" d="M 0 0.12084961 L 0 1.8676758 L 6.30249 1.8676758 L 6.30249 0.12084961 L 0 0.12084961 Z M 4.013672 2.6037598 L 0.8496094 12.121582 L 2.9406738 12.121582 L 6.053467 2.6037598 L 4.013672 2.6037598 Z M 7.435791 7.130127 Q 7.443115 8.265381, 7.465088 9.473877 Q 7.505371 10.71167, 8.168213 11.422119 Q 8.831055 12.128906, 10.061523 12.242432 L 10.061523 10.576172 Q 9.504883 10.418701, 9.490234 9.832764 Q 9.453613 8.807373, 9.438965 7.902832 Q 9.424316 6.998291, 9.424316 6.134033 Q 9.424316 5.2661133, 9.438965 4.350586 Q 9.453613 3.4350586, 9.490234 2.3950195 Q 9.504883 1.8237305, 10.061523 1.6662598 L 10.061523 0 Q 8.831055 0.11352539, 8.168213 0.8203125 Q 7.505371 1.5234375, 7.465088 2.7612305 Q 7.4504395 3.81958, 7.439453 4.9072266 Q 7.428467 5.994873, 7.435791 7.130127 Z M 11.006348 10.568848 L 11.006348 12.242432 Q 12.181885 12.128906, 12.855713 11.436768 Q 13.533203 10.740967, 13.577148 9.473877 Q 13.610107 8.664551, 13.624756 7.8479004 Q 13.639404 7.027588, 13.639404 6.196289 Q 13.639404 5.36499, 13.624756 4.5080566 Q 13.610107 3.647461, 13.577148 2.7612305 Q 13.547852 1.5234375, 12.881348 0.8203125 Q 12.214844 0.11352539, 11.006348 0 L 11.006348 1.6662598 Q 11.544678 1.8310547, 11.559326 2.380371 Q 11.614258 3.713379, 11.628906 4.925537 Q 11.643555 6.1376953, 11.628906 7.3498535 Q 11.614258 8.55835, 11.559326 9.873047 Q 11.522705 10.418701, 11.006348 10.568848 Z M 17.534668 12.121582 L 17.534668 0.12084961 L 19.519531 0.12084961 L 19.519531 12.121582 L 17.534668 12.121582 Z" transform="translate(28.480469, 275.50137)" />
    <rect id="mark_75" fill="Black" x="0" y="277.47858" width="20" height="1.5" />
    <rect id="mark_80" fill="Black" x="0" y="264.45578" width="50" height="2.5" />
    <path fill="Black" d="M 0.0036621094 9.041748 Q 0.0073242188 9.232178, 0.0146484375 9.473877 Q 0.06591797 10.810547, 0.6591797 11.484375 Q 1.2524414 12.158203, 2.6184082 12.25708 L 2.6184082 10.583496 Q 2.3181152 10.495605, 2.178955 10.279541 Q 2.039795 10.059814, 2.0324707 9.730225 L 2.0324707 8.818359 Q 2.0324707 8.364258, 2.039795 7.89917 Q 2.039795 7.562256, 2.178955 7.3461914 Q 2.3181152 7.126465, 2.6184082 7.034912 L 2.6184082 5.01709 Q 2.3254395 4.929199, 2.1826172 4.716797 Q 2.039795 4.5007324, 2.039795 4.1638184 Q 2.0324707 3.947754, 2.0324707 3.746338 L 2.0324707 2.9516602 Q 2.0324707 2.746582, 2.039795 2.5231934 Q 2.039795 2.1826172, 2.1826172 1.973877 Q 2.3254395 1.7651367, 2.6184082 1.673584 L 2.6184082 0 Q 1.2890625 0.09887695, 0.71777344 0.75805664 Q 0.15014648 1.4172363, 0.07324219 2.7832031 Q 0.06591797 3.0249023, 0.07324219 3.317871 Q 0.080566406 3.6071777, 0.10620117 3.9074707 Q 0.13549805 4.2077637, 0.17211914 4.4714355 Q 0.2709961 5.0097656, 0.5895996 5.36499 Q 0.9082031 5.7165527, 1.340332 5.866699 L 1.340332 6.159668 Q 0.72509766 6.4123535, 0.41748047 6.870117 Q 0.11352539 7.327881, 0.036621094 8.115234 Q 0.0146484375 8.430176, 0.0073242188 8.642578 Q 0 8.851318, 0.0036621094 9.041748 Z M 3.5559082 10.583496 L 3.5559082 12.25708 Q 4.89624 12.165527, 5.489502 11.51001 Q 6.0827637 10.854492, 6.156006 9.473877 Q 6.1706543 9.16626, 6.1706543 8.847656 Q 6.1706543 8.529053, 6.126709 8.093262 Q 6.027832 7.3425293, 5.7055664 6.8884277 Q 5.383301 6.430664, 4.822998 6.1743164 L 4.822998 5.866699 Q 5.262451 5.7165527, 5.5810547 5.36499 Q 5.9033203 5.0097656, 5.998535 4.4641113 Q 6.0351562 4.2370605, 6.060791 3.9367676 Q 6.090088 3.6328125, 6.097412 3.3251953 Q 6.1047363 3.0175781, 6.090088 2.7832031 Q 6.020508 1.4025879, 5.430908 0.7507324 Q 4.8449707 0.09887695, 3.5559082 0 L 3.5559082 1.673584 Q 3.852539 1.7651367, 3.9916992 1.9775391 Q 4.1308594 2.1899414, 4.1308594 2.5231934 Q 4.1381836 2.9187012, 4.1345215 3.3361816 Q 4.1308594 3.75, 4.1308594 4.156494 Q 4.1308594 4.8449707, 3.5559082 5.01709 L 3.5559082 7.034912 Q 4.123535 7.2180176, 4.1308594 7.89917 Q 4.1381836 8.214111, 4.1381836 8.514404 L 4.1381836 9.11499 Q 4.1381836 9.415283, 4.1308594 9.737549 Q 4.1308594 10.067139, 3.9916992 10.283203 Q 3.852539 10.495605, 3.5559082 10.583496 Z M 7.0439453 7.137451 Q 7.0512695 8.272705, 7.073242 9.481201 Q 7.1135254 10.718994, 7.776367 11.429443 Q 8.439209 12.13623, 9.669678 12.249756 L 9.669678 10.583496 Q 9.113037 10.426025, 9.098389 9.840088 Q 9.061768 8.814697, 9.047119 7.9101562 Q 9.032471 7.005615, 9.032471 6.1413574 Q 9.032471 5.2734375, 9.047119 4.35791 Q 9.061768 3.4423828, 9.098389 2.4023438 Q 9.113037 1.8310547, 9.669678 1.673584 L 9.669678 0.0073242188 Q 8.439209 0.12084961, 7.776367 0.8276367 Q 7.1135254 1.5307617, 7.073242 2.7685547 Q 7.0585938 3.8269043, 7.0476074 4.914551 Q 7.036621 6.0021973, 7.0439453 7.137451 Z M 10.614502 10.576172 L 10.614502 12.249756 Q 11.790039 12.13623, 12.463867 11.444092 Q 13.141357 10.748291, 13.185303 9.481201 Q 13.218262 8.671875, 13.23291 7.8552246 Q 13.247559 7.034912, 13.247559 6.2036133 Q 13.247559 5.3723145, 13.23291 4.515381 Q 13.218262 3.6547852, 13.185303 2.7685547 Q 13.156006 1.5307617, 12.489502 0.8276367 Q 11.822998 0.12084961, 10.614502 0.0073242188 L 10.614502 1.673584 Q 11.152832 1.8383789, 11.16748 2.3876953 Q 11.222412 3.7207031, 11.237061 4.9328613 Q 11.251709 6.1450195, 11.237061 7.3571777 Q 11.222412 8.565674, 11.16748 9.880371 Q 11.130859 10.426025, 10.614502 10.576172 Z M 17.142822 12.128906 L 17.142822 0.12817383 L 19.127686 0.12817383 L 19.127686 12.128906 L 17.142822 12.128906 Z" transform="translate(28.872314, 250.45578)" />
    <rect id="mark_85" fill="Black" x="0" y="252.433" width="20" height="1.5" />
    <rect id="mark_90" fill="Black" x="0" y="239.4102" width="50" height="2.5" />
    <path fill="Black" d="M 0.0036621094 4.2993164 Q 0.0073242188 4.658203, 0.0073242188 5.093994 Q 0.0073242188 5.994873, 0.33325195 6.558838 Q 0.6628418 7.1191406, 1.1938477 7.3754883 Q 1.7248535 7.628174, 2.340088 7.628174 Q 2.611084 7.628174, 2.8527832 7.573242 Q 3.0981445 7.5183105, 3.284912 7.426758 L 3.284912 5.965576 Q 3.2556152 5.9729004, 3.215332 5.9765625 Q 3.1750488 5.9802246, 3.1274414 5.9802246 Q 2.647705 5.9802246, 2.34375 5.7788086 Q 2.039795 5.5737305, 2.0251465 5.1782227 Q 2.0178223 4.9804688, 2.0214844 4.5703125 Q 2.0251465 4.156494, 2.0288086 3.6914062 Q 2.0324707 3.2263184, 2.0361328 2.8674316 Q 2.039795 2.5048828, 2.039795 2.4169922 Q 2.039795 1.8164062, 2.647705 1.6662598 L 2.647705 0 Q 1.307373 0.091552734, 0.6921387 0.7434082 Q 0.0769043 1.3952637, 0.0146484375 2.775879 Q 0.0073242188 2.911377, 0.0036621094 3.1347656 Q 0 3.3544922, 0 3.647461 Q 0 3.9404297, 0.0036621094 4.2993164 Z M 3.585205 10.59082 L 3.585205 12.25708 Q 4.9072266 12.180176, 5.5334473 11.52832 Q 6.159668 10.876465, 6.1816406 9.481201 Q 6.2036133 8.342285, 6.2145996 7.335205 Q 6.225586 6.324463, 6.2182617 5.2368164 Q 6.2109375 4.14917, 6.1816406 2.775879 Q 6.1523438 1.3952637, 5.55542 0.736084 Q 4.958496 0.0769043, 3.585205 0 L 3.585205 1.6662598 Q 3.8562012 1.7504883, 4.01001 1.9299316 Q 4.1638184 2.109375, 4.1638184 2.3876953 Q 4.178467 3.5632324, 4.185791 4.5080566 Q 4.193115 5.452881, 4.1967773 6.298828 Q 4.2004395 7.1411133, 4.193115 7.9907227 Q 4.185791 8.83667, 4.1711426 9.818115 Q 4.1711426 10.147705, 4.013672 10.341797 Q 3.8562012 10.532227, 3.585205 10.59082 Z M 0.21240234 9.155273 L 0.21240234 9.481201 Q 0.21240234 10.83252, 0.7873535 11.484375 Q 1.3659668 12.13623, 2.647705 12.242432 L 2.647705 10.539551 Q 2.4389648 10.440674, 2.340088 10.268555 Q 2.244873 10.096436, 2.2302246 9.832764 Q 2.211914 9.44458, 2.2192383 9.111328 Q 2.2302246 8.778076, 2.2375488 8.408203 L 0.22705078 8.408203 Q 0.21972656 8.580322, 0.21606445 8.778076 Q 0.21240234 8.972168, 0.21240234 9.155273 Z M 7.1208496 7.130127 Q 7.128174 8.265381, 7.1501465 9.473877 Q 7.1904297 10.71167, 7.8532715 11.422119 Q 8.516113 12.128906, 9.746582 12.242432 L 9.746582 10.576172 Q 9.189941 10.418701, 9.175293 9.832764 Q 9.138672 8.807373, 9.124023 7.902832 Q 9.109375 6.998291, 9.109375 6.134033 Q 9.109375 5.2661133, 9.124023 4.350586 Q 9.138672 3.4350586, 9.175293 2.3950195 Q 9.189941 1.8237305, 9.746582 1.6662598 L 9.746582 0 Q 8.516113 0.11352539, 7.8532715 0.8203125 Q 7.1904297 1.5234375, 7.1501465 2.7612305 Q 7.135498 3.81958, 7.1245117 4.9072266 Q 7.1135254 5.994873, 7.1208496 7.130127 Z M 10.691406 10.568848 L 10.691406 12.242432 Q 11.866943 12.128906, 12.5407715 11.436768 Q 13.218262 10.740967, 13.262207 9.473877 Q 13.295166 8.664551, 13.309814 7.8479004 Q 13.324463 7.027588, 13.324463 6.196289 Q 13.324463 5.36499, 13.309814 4.5080566 Q 13.295166 3.647461, 13.262207 2.7612305 Q 13.23291 1.5234375, 12.566406 0.8203125 Q 11.899902 0.11352539, 10.691406 0 L 10.691406 1.6662598 Q 11.229736 1.8310547, 11.244385 2.380371 Q 11.299316 3.713379, 11.313965 4.925537 Q 11.328613 6.1376953, 11.313965 7.3498535 Q 11.299316 8.55835, 11.244385 9.873047 Q 11.207764 10.418701, 10.691406 10.568848 Z M 17.219727 12.121582 L 17.219727 0.12084961 L 19.20459 0.12084961 L 19.20459 12.121582 L 17.219727 12.121582 Z" transform="translate(28.79541, 225.4102)" />
    <rect id="mark_95" fill="Black" x="0" y="227.38742" width="20" height="1.5" />
    <rect id="mark_100" fill="Black" x="0" y="214.36462" width="50" height="2.5" />
    <path fill="Black" d="M 0.9082031 1.9152832 L 0.9082031 12.121582 L 2.9699707 12.121582 L 2.9699707 0.12084961 L 1.3220215 0.12084961 L 0 1.2011719 L 0.06225586 1.9152832 L 0.9082031 1.9152832 Z M 4.263672 7.130127 Q 4.270996 8.265381, 4.2929688 9.473877 Q 4.333252 10.71167, 4.9960938 11.422119 Q 5.6589355 12.128906, 6.8894043 12.242432 L 6.8894043 10.576172 Q 6.3327637 10.418701, 6.318115 9.832764 Q 6.281494 8.807373, 6.2668457 7.902832 Q 6.2521973 6.998291, 6.2521973 6.134033 Q 6.2521973 5.2661133, 6.2668457 4.350586 Q 6.281494 3.4350586, 6.318115 2.3950195 Q 6.3327637 1.8237305, 6.8894043 1.6662598 L 6.8894043 0 Q 5.6589355 0.11352539, 4.9960938 0.8203125 Q 4.333252 1.5234375, 4.2929688 2.7612305 Q 4.2783203 3.81958, 4.267334 4.9072266 Q 4.2563477 5.994873, 4.263672 7.130127 Z M 7.8342285 10.568848 L 7.8342285 12.242432 Q 9.009766 12.128906, 9.683594 11.436768 Q 10.361084 10.740967, 10.405029 9.473877 Q 10.437988 8.664551, 10.452637 7.8479004 Q 10.467285 7.027588, 10.467285 6.196289 Q 10.467285 5.36499, 10.452637 4.5080566 Q 10.437988 3.647461, 10.405029 2.7612305 Q 10.375732 1.5234375, 9.7092285 0.8203125 Q 9.042725 0.11352539, 7.8342285 0 L 7.8342285 1.6662598 Q 8.372559 1.8310547, 8.387207 2.380371 Q 8.442139 3.713379, 8.456787 4.925537 Q 8.471436 6.1376953, 8.456787 7.3498535 Q 8.442139 8.55835, 8.387207 9.873047 Q 8.350586 10.418701, 7.8342285 10.568848 Z M 11.263672 7.130127 Q 11.270996 8.265381, 11.292969 9.473877 Q 11.333252 10.71167, 11.996094 11.422119 Q 12.658936 12.128906, 13.889404 12.242432 L 13.889404 10.576172 Q 13.332764 10.418701, 13.318115 9.832764 Q 13.281494 8.807373, 13.266846 7.902832 Q 13.252197 6.998291, 13.252197 6.134033 Q 13.252197 5.2661133, 13.266846 4.350586 Q 13.281494 3.4350586, 13.318115 2.3950195 Q 13.332764 1.8237305, 13.889404 1.6662598 L 13.889404 0 Q 12.658936 0.11352539, 11.996094 0.8203125 Q 11.333252 1.5234375, 11.292969 2.7612305 Q 11.27832 3.81958, 11.267334 4.9072266 Q 11.256348 5.994873, 11.263672 7.130127 Z M 14.8342285 10.568848 L 14.8342285 12.242432 Q 16.009766 12.128906, 16.683594 11.436768 Q 17.361084 10.740967, 17.40503 9.473877 Q 17.437988 8.664551, 17.452637 7.8479004 Q 17.467285 7.027588, 17.467285 6.196289 Q 17.467285 5.36499, 17.452637 4.5080566 Q 17.437988 3.647461, 17.40503 2.7612305 Q 17.375732 1.5234375, 16.709229 0.8203125 Q 16.042725 0.11352539, 14.8342285 0 L 14.8342285 1.6662598 Q 15.372559 1.8310547, 15.387207 2.380371 Q 15.442139 3.713379, 15.456787 4.925537 Q 15.471436 6.1376953, 15.456787 7.3498535 Q 15.442139 8.55835, 15.387207 9.873047 Q 15.350586 10.418701, 14.8342285 10.568848 Z M 21.362549 12.121582 L 21.362549 0.12084961 L 23.347412 0.12084961 L 23.347412 12.121582 L 21.362549 12.121582 Z" transform="translate(24.652588, 200.36462)" />
    <rect id="mark_105" fill="Black" x="0" y="202.34184" width="20" height="1.5" />
    <rect id="mark_110" fill="Black" x="0" y="189.31905" width="50" height="2.5" />
    <path fill="Black" d="M 0.9082031 1.9152832 L 0.9082031 12.121582 L 2.9699707 12.121582 L 2.9699707 0.12084961 L 1.3220215 0.12084961 L 0 1.2011719 L 0.06225586 1.9152832 L 0.9082031 1.9152832 Z M 4.908203 1.9152832 L 4.908203 12.121582 L 6.9699707 12.121582 L 6.9699707 0.12084961 L 5.3220215 0.12084961 L 4 1.2011719 L 4.062256 1.9152832 L 4.908203 1.9152832 Z M 8.263672 7.130127 Q 8.270996 8.265381, 8.292969 9.473877 Q 8.333252 10.71167, 8.996094 11.422119 Q 9.658936 12.128906, 10.889404 12.242432 L 10.889404 10.576172 Q 10.332764 10.418701, 10.318115 9.832764 Q 10.281494 8.807373, 10.266846 7.902832 Q 10.252197 6.998291, 10.252197 6.134033 Q 10.252197 5.2661133, 10.266846 4.350586 Q 10.281494 3.4350586, 10.318115 2.3950195 Q 10.332764 1.8237305, 10.889404 1.6662598 L 10.889404 0 Q 9.658936 0.11352539, 8.996094 0.8203125 Q 8.333252 1.5234375, 8.292969 2.7612305 Q 8.27832 3.81958, 8.267334 4.9072266 Q 8.256348 5.994873, 8.263672 7.130127 Z M 11.8342285 10.568848 L 11.8342285 12.242432 Q 13.009766 12.128906, 13.683594 11.436768 Q 14.361084 10.740967, 14.405029 9.473877 Q 14.437988 8.664551, 14.452637 7.8479004 Q 14.467285 7.027588, 14.467285 6.196289 Q 14.467285 5.36499, 14.452637 4.5080566 Q 14.437988 3.647461, 14.405029 2.7612305 Q 14.375732 1.5234375, 13.7092285 0.8203125 Q 13.042725 0.11352539, 11.8342285 0 L 11.8342285 1.6662598 Q 12.372559 1.8310547, 12.387207 2.380371 Q 12.442139 3.713379, 12.456787 4.925537 Q 12.471436 6.1376953, 12.456787 7.3498535 Q 12.442139 8.55835, 12.387207 9.873047 Q 12.350586 10.418701, 11.8342285 10.568848 Z M 18.362549 12.121582 L 18.362549 0.12084961 L 20.347412 0.12084961 L 20.347412 12.121582 L 18.362549 12.121582 Z" transform="translate(27.652588, 175.31905)" />
    <rect id="mark_115" fill="Black" x="0" y="177.29626" width="20" height="1.5" />
    <rect id="mark_120" fill="Black" x="0" y="164.27347" width="50" height="2.5" />
    <path fill="Black" d="M 0.9082031 1.9226074 L 0.9082031 12.128906 L 2.9699707 12.128906 L 2.9699707 0.12817383 L 1.3220215 0.12817383 L 0 1.2084961 L 0.06225586 1.9226074 L 0.9082031 1.9226074 Z M 4.201416 11.630859 Q 4.205078 11.850586, 4.2124023 12.128906 L 6.237549 12.128906 L 6.237549 9.70459 Q 6.237549 9.415283, 6.314453 9.078369 Q 6.3950195 8.737793, 6.578125 8.4375 Q 6.7612305 8.137207, 7.083496 7.965088 L 8.215088 7.3498535 Q 8.822998 7.0129395, 9.284424 6.588135 Q 9.74585 6.159668, 10.016846 5.5737305 Q 10.287842 4.987793, 10.317139 4.185791 Q 10.324463 4.020996, 10.328125 3.848877 Q 10.331787 3.6767578, 10.331787 3.5009766 Q 10.331787 3.3251953, 10.328125 3.1384277 Q 10.324463 2.947998, 10.317139 2.7685547 Q 10.254883 1.3879395, 9.657959 0.7397461 Q 9.064697 0.091552734, 7.6914062 0 L 7.6914062 1.6662598 Q 7.984375 1.7504883, 8.138184 1.940918 Q 8.291992 2.1313477, 8.306641 2.4243164 Q 8.328613 2.8381348, 8.324951 3.3068848 Q 8.321289 3.7756348, 8.291992 4.185791 Q 8.27002 4.5373535, 8.123535 4.9401855 Q 7.977051 5.3430176, 7.449707 5.625 L 6.4536133 6.166992 Q 5.7248535 6.5625, 5.2304688 7.0751953 Q 4.736084 7.5842285, 4.476074 8.232422 Q 4.2197266 8.880615, 4.197754 9.70459 Q 4.1904297 10.067139, 4.1904297 10.334473 L 4.1904297 10.810547 Q 4.1904297 11.019287, 4.194092 11.213379 Q 4.197754 11.407471, 4.201416 11.630859 Z M 4.205078 3.9074707 Q 4.2124023 4.222412, 4.227051 4.555664 L 6.2229004 4.555664 Q 6.1899414 3.9624023, 6.1936035 3.4606934 Q 6.1972656 2.9553223, 6.215576 2.3730469 Q 6.2229004 2.1166992, 6.347412 1.9372559 Q 6.475586 1.7578125, 6.746582 1.673584 L 6.746582 0 Q 5.4575195 0.09887695, 4.8532715 0.7470703 Q 4.2490234 1.3952637, 4.197754 2.7685547 Q 4.1904297 3.0322266, 4.194092 3.314209 Q 4.197754 3.5925293, 4.205078 3.9074707 Z M 7.182373 10.38208 L 7.182373 12.128906 L 10.174316 12.128906 L 10.174316 10.38208 L 7.182373 10.38208 Z M 11.263672 7.137451 Q 11.270996 8.272705, 11.292969 9.481201 Q 11.333252 10.718994, 11.996094 11.429443 Q 12.658936 12.13623, 13.889404 12.249756 L 13.889404 10.583496 Q 13.332764 10.426025, 13.318115 9.840088 Q 13.281494 8.814697, 13.266846 7.9101562 Q 13.252197 7.005615, 13.252197 6.1413574 Q 13.252197 5.2734375, 13.266846 4.35791 Q 13.281494 3.4423828, 13.318115 2.4023438 Q 13.332764 1.8310547, 13.889404 1.673584 L 13.889404 0.0073242188 Q 12.658936 0.12084961, 11.996094 0.8276367 Q 11.333252 1.5307617, 11.292969 2.7685547 Q 11.27832 3.8269043, 11.267334 4.914551 Q 11.256348 6.0021973, 11.263672 7.137451 Z M 14.8342285 10.576172 L 14.8342285 12.249756 Q 16.009766 12.13623, 16.683594 11.444092 Q 17.361084 10.748291, 17.40503 9.481201 Q 17.437988 8.671875, 17.452637 7.8552246 Q 17.467285 7.034912, 17.467285 6.2036133 Q 17.467285 5.3723145, 17.452637 4.515381 Q 17.437988 3.6547852, 17.40503 2.7685547 Q 17.375732 1.5307617, 16.709229 0.8276367 Q 16.042725 0.12084961, 14.8342285 0.0073242188 L 14.8342285 1.673584 Q 15.372559 1.8383789, 15.387207 2.3876953 Q 15.442139 3.7207031, 15.456787 4.9328613 Q 15.471436 6.1450195, 15.456787 7.3571777 Q 15.442139 8.565674, 15.387207 9.880371 Q 15.350586 10.426025, 14.8342285 10.576172 Z M 21.362549 12.128906 L 21.362549 0.12817383 L 23.347412 0.12817383 L 23.347412 12.128906 L 21.362549 12.128906 Z" transform="translate(24.652588, 150.27347)" />
    <rect id="mark_125" fill="Black" x="0" y="152.25069" width="20" height="1.5" />
    <rect id="mark_130" fill="Black" x="0" y="139.22789" width="50" height="2.5" />
    <path fill="Black" d="M 0.9082031 1.9152832 L 0.9082031 12.121582 L 2.9699707 12.121582 L 2.9699707 0.12084961 L 1.3220215 0.12084961 L 0 1.2011719 L 0.06225586 1.9152832 L 0.9082031 1.9152832 Z M 4.1904297 0.12084961 L 4.1904297 1.8676758 L 10.273193 1.8676758 L 10.273193 0.12084961 L 4.1904297 0.12084961 Z M 8.313965 9.737549 Q 8.291992 10.426025, 7.6621094 10.583496 L 7.6694336 12.249756 Q 9.028076 12.172852, 9.654297 11.517334 Q 10.280518 10.861816, 10.331787 9.466553 Q 10.346436 9.265137, 10.350098 9.071045 Q 10.35376 8.873291, 10.35376 8.679199 Q 10.35376 8.485107, 10.350098 8.283691 Q 10.346436 8.078613, 10.331787 7.8771973 Q 10.262207 6.4453125, 9.69458 5.756836 Q 9.130615 5.0646973, 7.914795 5.0646973 L 7.856201 5.0646973 L 9.672607 2.5305176 L 7.442383 2.5305176 L 5.644287 5.123291 L 5.6955566 6.796875 L 7.0981445 6.7822266 Q 7.790283 6.767578, 8.035645 7.0751953 Q 8.284668 7.3828125, 8.306641 7.8222656 Q 8.3359375 8.250732, 8.332275 8.708496 Q 8.328613 9.16626, 8.313965 9.737549 Z M 4.0512695 8.994141 Q 4.0549316 9.180908, 4.062256 9.466553 Q 4.098877 10.839844, 4.7250977 11.491699 Q 5.3513184 12.143555, 6.7246094 12.249756 L 6.7246094 10.576172 Q 6.0874023 10.3967285, 6.0874023 9.730225 L 6.0874023 8.10791 L 4.062256 8.10791 Q 4.0549316 8.415527, 4.0512695 8.613281 Q 4.0476074 8.807373, 4.0512695 8.994141 Z M 11.263672 7.130127 Q 11.270996 8.265381, 11.292969 9.473877 Q 11.333252 10.71167, 11.996094 11.422119 Q 12.658936 12.128906, 13.889404 12.242432 L 13.889404 10.576172 Q 13.332764 10.418701, 13.318115 9.832764 Q 13.281494 8.807373, 13.266846 7.902832 Q 13.252197 6.998291, 13.252197 6.134033 Q 13.252197 5.2661133, 13.266846 4.350586 Q 13.281494 3.4350586, 13.318115 2.3950195 Q 13.332764 1.8237305, 13.889404 1.6662598 L 13.889404 0 Q 12.658936 0.11352539, 11.996094 0.8203125 Q 11.333252 1.5234375, 11.292969 2.7612305 Q 11.27832 3.81958, 11.267334 4.9072266 Q 11.256348 5.994873, 11.263672 7.130127 Z M 14.8342285 10.568848 L 14.8342285 12.242432 Q 16.009766 12.128906, 16.683594 11.436768 Q 17.361084 10.740967, 17.40503 9.473877 Q 17.437988 8.664551, 17.452637 7.8479004 Q 17.467285 7.027588, 17.467285 6.196289 Q 17.467285 5.36499, 17.452637 4.5080566 Q 17.437988 3.647461, 17.40503 2.7612305 Q 17.375732 1.5234375, 16.709229 0.8203125 Q 16.042725 0.11352539, 14.8342285 0 L 14.8342285 1.6662598 Q 15.372559 1.8310547, 15.387207 2.380371 Q 15.442139 3.713379, 15.456787 4.925537 Q 15.471436 6.1376953, 15.456787 7.3498535 Q 15.442139 8.55835, 15.387207 9.873047 Q 15.350586 10.418701, 14.8342285 10.568848 Z M 21.362549 12.121582 L 21.362549 0.12084961 L 23.347412 0.12084961 L 23.347412 12.121582 L 21.362549 12.121582 Z" transform="translate(24.652588, 125.22789)" />
    <rect id="mark_135" fill="Black" x="0" y="127.2051" width="20" height="1.5" />
    <rect id="mark_140" fill="Black" x="0" y="114.18231" width="50" height="2.5" />
    <path fill="Black" d="M 0.9082031 1.9152832 L 0.9082031 12.121582 L 2.9699707 12.121582 L 2.9699707 0.12084961 L 1.3220215 0.12084961 L 0 1.2011719 L 0.06225586 1.9152832 L 0.9082031 1.9152832 Z M 7.577881 0.12084961 L 7.577881 12.121582 L 9.467529 12.121582 L 9.467529 0.12084961 L 7.577881 0.12084961 Z M 3.9487305 7.3205566 L 3.9487305 8.964844 L 6.6330566 8.964844 L 6.6330566 7.232666 L 5.882324 7.232666 L 7.240967 3.7976074 L 5.2927246 3.7976074 L 3.9487305 7.3205566 Z M 10.4123535 7.232666 L 10.4123535 8.964844 L 11.29126 8.964844 L 11.29126 7.232666 L 10.4123535 7.232666 Z M 12.263672 7.130127 Q 12.270996 8.265381, 12.292969 9.473877 Q 12.333252 10.71167, 12.996094 11.422119 Q 13.658936 12.128906, 14.889404 12.242432 L 14.889404 10.576172 Q 14.332764 10.418701, 14.318115 9.832764 Q 14.281494 8.807373, 14.266846 7.902832 Q 14.252197 6.998291, 14.252197 6.134033 Q 14.252197 5.2661133, 14.266846 4.350586 Q 14.281494 3.4350586, 14.318115 2.3950195 Q 14.332764 1.8237305, 14.889404 1.6662598 L 14.889404 0 Q 13.658936 0.11352539, 12.996094 0.8203125 Q 12.333252 1.5234375, 12.292969 2.7612305 Q 12.27832 3.81958, 12.267334 4.9072266 Q 12.256348 5.994873, 12.263672 7.130127 Z M 15.8342285 10.568848 L 15.8342285 12.242432 Q 17.009766 12.128906, 17.683594 11.436768 Q 18.361084 10.740967, 18.40503 9.473877 Q 18.437988 8.664551, 18.452637 7.8479004 Q 18.467285 7.027588, 18.467285 6.196289 Q 18.467285 5.36499, 18.452637 4.5080566 Q 18.437988 3.647461, 18.40503 2.7612305 Q 18.375732 1.5234375, 17.709229 0.8203125 Q 17.042725 0.11352539, 15.8342285 0 L 15.8342285 1.6662598 Q 16.372559 1.8310547, 16.387207 2.380371 Q 16.442139 3.713379, 16.456787 4.925537 Q 16.471436 6.1376953, 16.456787 7.3498535 Q 16.442139 8.55835, 16.387207 9.873047 Q 16.350586 10.418701, 15.8342285 10.568848 Z M 22.362549 12.121582 L 22.362549 0.12084961 L 24.347412 0.12084961 L 24.347412 12.121582 L 22.362549 12.121582 Z" transform="translate(23.652588, 100.18231)" />
    <rect id="mark_145" fill="Black" x="0" y="102.15952" width="20" height="1.5" />
    <rect id="mark_150" fill="Black" x="0" y="89.136734" width="50" height="2.5" />
    <path fill="Black" d="M 0.9082031 1.9152832 L 0.9082031 12.121582 L 2.9699707 12.121582 L 2.9699707 0.12084961 L 1.3220215 0.12084961 L 0 1.2011719 L 0.06225586 1.9152832 L 0.9082031 1.9152832 Z M 4.435791 0.12084961 L 4.435791 6.96167 L 6.438965 6.96167 L 6.438965 0.12084961 L 4.435791 0.12084961 Z M 7.383789 0.12084961 L 7.383789 1.8676758 L 10.361084 1.8676758 L 10.361084 0.12084961 L 7.383789 0.12084961 Z M 7.383789 4.749756 L 7.383789 6.166992 Q 7.4057617 6.159668, 7.4350586 6.1523438 Q 7.4680176 6.1450195, 7.4973145 6.1450195 Q 7.9990234 6.1450195, 8.240723 6.357422 Q 8.486084 6.569824, 8.530029 7.005615 Q 8.592285 7.598877, 8.581299 8.250732 Q 8.5703125 8.902588, 8.500732 9.7229 Q 8.47876 10.067139, 8.321289 10.283203 Q 8.163818 10.495605, 7.856201 10.576172 L 7.856201 12.249756 Q 9.200195 12.165527, 9.797119 11.513672 Q 10.397705 10.861816, 10.525879 9.4592285 Q 10.555176 9.093018, 10.569824 8.671875 Q 10.588135 8.250732, 10.577148 7.8112793 Q 10.569824 7.368164, 10.540527 6.9177246 Q 10.481934 5.8007812, 9.965576 5.152588 Q 9.452881 4.5007324, 8.42749 4.5007324 Q 8.127197 4.5007324, 7.8635254 4.5703125 Q 7.5998535 4.6362305, 7.383789 4.749756 Z M 4.241699 8.682861 Q 4.234375 8.979492, 4.2490234 9.466553 Q 4.2856445 10.839844, 4.908203 11.491699 Q 5.5307617 12.143555, 6.918701 12.249756 L 6.918701 10.576172 Q 6.618408 10.488281, 6.4536133 10.275879 Q 6.2888184 10.059814, 6.2595215 9.7229 Q 6.244873 9.572754, 6.241211 9.272461 Q 6.237549 8.972168, 6.248535 8.649902 Q 6.2595215 8.327637, 6.281494 8.10791 L 4.2563477 8.10791 Q 4.2490234 8.38623, 4.241699 8.682861 Z M 11.263672 7.130127 Q 11.270996 8.265381, 11.292969 9.473877 Q 11.333252 10.71167, 11.996094 11.422119 Q 12.658936 12.128906, 13.889404 12.242432 L 13.889404 10.576172 Q 13.332764 10.418701, 13.318115 9.832764 Q 13.281494 8.807373, 13.266846 7.902832 Q 13.252197 6.998291, 13.252197 6.134033 Q 13.252197 5.2661133, 13.266846 4.350586 Q 13.281494 3.4350586, 13.318115 2.3950195 Q 13.332764 1.8237305, 13.889404 1.6662598 L 13.889404 0 Q 12.658936 0.11352539, 11.996094 0.8203125 Q 11.333252 1.5234375, 11.292969 2.7612305 Q 11.27832 3.81958, 11.267334 4.9072266 Q 11.256348 5.994873, 11.263672 7.130127 Z M 14.8342285 10.568848 L 14.8342285 12.242432 Q 16.009766 12.128906, 16.683594 11.436768 Q 17.361084 10.740967, 17.40503 9.473877 Q 17.437988 8.664551, 17.452637 7.8479004 Q 17.467285 7.027588, 17.467285 6.196289 Q 17.467285 5.36499, 17.452637 4.5080566 Q 17.437988 3.647461, 17.40503 2.7612305 Q 17.375732 1.5234375, 16.709229 0.8203125 Q 16.042725 0.11352539, 14.8342285 0 L 14.8342285 1.6662598 Q 15.372559 1.8310547, 15.387207 2.380371 Q 15.442139 3.713379, 15.456787 4.925537 Q 15.471436 6.1376953, 15.456787 7.3498535 Q 15.442139 8.55835, 15.387207 9.873047 Q 15.350586 10.418701, 14.8342285 10.568848 Z M 21.362549 12.121582 L 21.362549 0.12084961 L 23.347412 0.12084961 L 23.347412 12.121582 L 21.362549 12.121582 Z" transform="translate(24.652588, 75.136734)" />
    <rect id="mark_155" fill="Black" x="0" y="77.113945" width="20" height="1.5" />
    <rect id="mark_160" fill="Black" x="0" y="64.091156" width="50" height="2.5" />
    <path fill="Black" d="M 0.9082031 1.9152832 L 0.9082031 12.121582 L 2.9699707 12.121582 L 2.9699707 0.12084961 L 1.3220215 0.12084961 L 0 1.2011719 L 0.06225586 1.9152832 L 0.9082031 1.9152832 Z M 4.267334 7.906494 Q 4.2783203 8.723145, 4.2856445 9.466553 Q 4.307617 10.854492, 4.908203 11.506348 Q 5.508789 12.158203, 6.88208 12.249756 L 6.88208 10.576172 Q 6.60376 10.495605, 6.449951 10.301514 Q 6.2961426 10.10376, 6.2961426 9.796143 Q 6.27417 8.649902, 6.27417 7.467041 Q 6.27417 6.2805176, 6.281494 5.028076 Q 6.2888184 3.7756348, 6.310791 2.4023438 Q 6.310791 2.1020508, 6.4536133 1.9226074 Q 6.5964355 1.7431641, 6.8674316 1.673584 L 6.8674316 0 Q 5.673584 0.10620117, 4.9887695 0.7836914 Q 4.307617 1.4575195, 4.2856445 2.7612305 Q 4.270996 3.6254883, 4.263672 4.4970703 Q 4.2563477 5.36499, 4.2563477 6.229248 Q 4.2563477 7.0898438, 4.267334 7.906494 Z M 8.390869 3.380127 Q 8.387207 3.5778809, 8.365234 3.8415527 L 10.375732 3.8415527 Q 10.383057 3.5705566, 10.386719 3.380127 Q 10.390381 3.1896973, 10.386719 3.0212402 Q 10.383057 2.8527832, 10.375732 2.6623535 Q 10.331787 1.5234375, 9.683594 0.8239746 Q 9.0354 0.12084961, 7.8049316 0.0073242188 L 7.8049316 1.673584 Q 8.083252 1.7431641, 8.215088 1.9335938 Q 8.350586 2.1240234, 8.365234 2.4023438 Q 8.379883 2.7319336, 8.387207 2.9589844 Q 8.398193 3.182373, 8.390869 3.380127 Z M 7.1896973 4.921875 L 7.1896973 6.3171387 Q 7.248291 6.295166, 7.3032227 6.291504 Q 7.3618164 6.287842, 7.413086 6.287842 Q 7.8708496 6.287842, 8.156494 6.489258 Q 8.442139 6.690674, 8.449463 7.1118164 Q 8.464111 7.4560547, 8.467773 7.767334 Q 8.471436 8.078613, 8.464111 8.393555 Q 8.456787 8.708496, 8.449463 9.0563965 Q 8.442139 9.400635, 8.42749 9.832764 Q 8.420166 10.133057, 8.266357 10.323486 Q 8.112549 10.510254, 7.81958 10.59082 L 7.81958 12.249756 Q 9.167236 12.165527, 9.7751465 11.506348 Q 10.383057 10.847168, 10.452637 9.466553 Q 10.474609 8.979492, 10.4782715 8.635254 Q 10.481934 8.2873535, 10.4782715 7.932129 Q 10.474609 7.5769043, 10.459961 7.060547 Q 10.437988 5.753174, 9.9765625 5.196533 Q 9.515137 4.6362305, 8.321289 4.6362305 Q 7.9990234 4.6362305, 7.709717 4.713135 Q 7.42041 4.786377, 7.1896973 4.921875 Z M 11.263672 7.130127 Q 11.270996 8.265381, 11.292969 9.473877 Q 11.333252 10.71167, 11.996094 11.422119 Q 12.658936 12.128906, 13.889404 12.242432 L 13.889404 10.576172 Q 13.332764 10.418701, 13.318115 9.832764 Q 13.281494 8.807373, 13.266846 7.902832 Q 13.252197 6.998291, 13.252197 6.134033 Q 13.252197 5.2661133, 13.266846 4.350586 Q 13.281494 3.4350586, 13.318115 2.3950195 Q 13.332764 1.8237305, 13.889404 1.6662598 L 13.889404 0 Q 12.658936 0.11352539, 11.996094 0.8203125 Q 11.333252 1.5234375, 11.292969 2.7612305 Q 11.27832 3.81958, 11.267334 4.9072266 Q 11.256348 5.994873, 11.263672 7.130127 Z M 14.8342285 10.568848 L 14.8342285 12.242432 Q 16.009766 12.128906, 16.683594 11.436768 Q 17.361084 10.740967, 17.40503 9.473877 Q 17.437988 8.664551, 17.452637 7.8479004 Q 17.467285 7.027588, 17.467285 6.196289 Q 17.467285 5.36499, 17.452637 4.5080566 Q 17.437988 3.647461, 17.40503 2.7612305 Q 17.375732 1.5234375, 16.709229 0.8203125 Q 16.042725 0.11352539, 14.8342285 0 L 14.8342285 1.6662598 Q 15.372559 1.8310547, 15.387207 2.380371 Q 15.442139 3.713379, 15.456787 4.925537 Q 15.471436 6.1376953, 15.456787 7.3498535 Q 15.442139 8.55835, 15.387207 9.873047 Q 15.350586 10.418701, 14.8342285 10.568848 Z M 21.362549 12.121582 L 21.362549 0.12084961 L 23.347412 0.12084961 L 23.347412 12.121582 L 21.362549 12.121582 Z" transform="translate(24.652588, 50.091156)" />
    <rect id="mark_165" fill="Black" x="0" y="52.068367" width="20" height="1.5" />
    <rect id="mark_170" fill="Black" x="0" y="39.045578" width="50" height="2.5" />
    <path fill="Black" d="M 0.9082031 1.9152832 L 0.9082031 12.121582 L 2.9699707 12.121582 L 2.9699707 0.12084961 L 1.3220215 0.12084961 L 0 1.2011719 L 0.06225586 1.9152832 L 0.9082031 1.9152832 Z M 3.8278809 0.12084961 L 3.8278809 1.8676758 L 10.130371 1.8676758 L 10.130371 0.12084961 L 3.8278809 0.12084961 Z M 7.8415527 2.6037598 L 4.67749 12.121582 L 6.7685547 12.121582 L 9.881348 2.6037598 L 7.8415527 2.6037598 Z M 11.263672 7.130127 Q 11.270996 8.265381, 11.292969 9.473877 Q 11.333252 10.71167, 11.996094 11.422119 Q 12.658936 12.128906, 13.889404 12.242432 L 13.889404 10.576172 Q 13.332764 10.418701, 13.318115 9.832764 Q 13.281494 8.807373, 13.266846 7.902832 Q 13.252197 6.998291, 13.252197 6.134033 Q 13.252197 5.2661133, 13.266846 4.350586 Q 13.281494 3.4350586, 13.318115 2.3950195 Q 13.332764 1.8237305, 13.889404 1.6662598 L 13.889404 0 Q 12.658936 0.11352539, 11.996094 0.8203125 Q 11.333252 1.5234375, 11.292969 2.7612305 Q 11.27832 3.81958, 11.267334 4.9072266 Q 11.256348 5.994873, 11.263672 7.130127 Z M 14.8342285 10.568848 L 14.8342285 12.242432 Q 16.009766 12.128906, 16.683594 11.436768 Q 17.361084 10.740967, 17.40503 9.473877 Q 17.437988 8.664551, 17.452637 7.8479004 Q 17.467285 7.027588, 17.467285 6.196289 Q 17.467285 5.36499, 17.452637 4.5080566 Q 17.437988 3.647461, 17.40503 2.7612305 Q 17.375732 1.5234375, 16.709229 0.8203125 Q 16.042725 0.11352539, 14.8342285 0 L 14.8342285 1.6662598 Q 15.372559 1.8310547, 15.387207 2.380371 Q 15.442139 3.713379, 15.456787 4.925537 Q 15.471436 6.1376953, 15.456787 7.3498535 Q 15.442139 8.55835, 15.387207 9.873047 Q 15.350586 10.418701, 14.8342285 10.568848 Z M 21.362549 12.121582 L 21.362549 0.12084961 L 23.347412 0.12084961 L 23.347412 12.121582 L 21.362549 12.121582 Z" transform="translate(24.652588, 25.045578)" />
    <rect id="mark_175" fill="Black" x="0" y="27.022789" width="20" height="1.5" />
    <rect id="mark_180" fill="Black" x="0" y="14" width="50" height="2.5" />
    <path fill="Black" d="M 0.9082031 1.9226074 L 0.9082031 12.128906 L 2.9699707 12.128906 L 2.9699707 0.12817383 L 1.3220215 0.12817383 L 0 1.2084961 L 0.06225586 1.9226074 L 0.9082031 1.9226074 Z M 4.2233887 9.041748 Q 4.227051 9.232178, 4.234375 9.473877 Q 4.2856445 10.810547, 4.8789062 11.484375 Q 5.472168 12.158203, 6.838135 12.25708 L 6.838135 10.583496 Q 6.537842 10.495605, 6.3986816 10.279541 Q 6.2595215 10.059814, 6.2521973 9.730225 L 6.2521973 8.818359 Q 6.2521973 8.364258, 6.2595215 7.89917 Q 6.2595215 7.562256, 6.3986816 7.3461914 Q 6.537842 7.126465, 6.838135 7.034912 L 6.838135 5.01709 Q 6.545166 4.929199, 6.4023438 4.716797 Q 6.2595215 4.5007324, 6.2595215 4.1638184 Q 6.2521973 3.947754, 6.2521973 3.746338 L 6.2521973 2.9516602 Q 6.2521973 2.746582, 6.2595215 2.5231934 Q 6.2595215 2.1826172, 6.4023438 1.973877 Q 6.545166 1.7651367, 6.838135 1.673584 L 6.838135 0 Q 5.508789 0.09887695, 4.9375 0.75805664 Q 4.369873 1.4172363, 4.2929688 2.7832031 Q 4.2856445 3.0249023, 4.2929688 3.317871 Q 4.300293 3.6071777, 4.3259277 3.9074707 Q 4.3552246 4.2077637, 4.3918457 4.4714355 Q 4.4907227 5.0097656, 4.809326 5.36499 Q 5.1279297 5.7165527, 5.5600586 5.866699 L 5.5600586 6.159668 Q 4.944824 6.4123535, 4.637207 6.870117 Q 4.333252 7.327881, 4.2563477 8.115234 Q 4.234375 8.430176, 4.227051 8.642578 Q 4.2197266 8.851318, 4.2233887 9.041748 Z M 7.775635 10.583496 L 7.775635 12.25708 Q 9.115967 12.165527, 9.7092285 11.51001 Q 10.30249 10.854492, 10.375732 9.473877 Q 10.390381 9.16626, 10.390381 8.847656 Q 10.390381 8.529053, 10.346436 8.093262 Q 10.247559 7.3425293, 9.925293 6.8884277 Q 9.603027 6.430664, 9.042725 6.1743164 L 9.042725 5.866699 Q 9.482178 5.7165527, 9.800781 5.36499 Q 10.123047 5.0097656, 10.218262 4.4641113 Q 10.254883 4.2370605, 10.280518 3.9367676 Q 10.309814 3.6328125, 10.317139 3.3251953 Q 10.324463 3.0175781, 10.309814 2.7832031 Q 10.240234 1.4025879, 9.650635 0.7507324 Q 9.064697 0.09887695, 7.775635 0 L 7.775635 1.673584 Q 8.072266 1.7651367, 8.211426 1.9775391 Q 8.350586 2.1899414, 8.350586 2.5231934 Q 8.35791 2.9187012, 8.354248 3.3361816 Q 8.350586 3.75, 8.350586 4.156494 Q 8.350586 4.8449707, 7.775635 5.01709 L 7.775635 7.034912 Q 8.343262 7.2180176, 8.350586 7.89917 Q 8.35791 8.214111, 8.35791 8.514404 L 8.35791 9.11499 Q 8.35791 9.415283, 8.350586 9.737549 Q 8.350586 10.067139, 8.211426 10.283203 Q 8.072266 10.495605, 7.775635 10.583496 Z M 11.263672 7.137451 Q 11.270996 8.272705, 11.292969 9.481201 Q 11.333252 10.718994, 11.996094 11.429443 Q 12.658936 12.13623, 13.889404 12.249756 L 13.889404 10.583496 Q 13.332764 10.426025, 13.318115 9.840088 Q 13.281494 8.814697, 13.266846 7.9101562 Q 13.252197 7.005615, 13.252197 6.1413574 Q 13.252197 5.2734375, 13.266846 4.35791 Q 13.281494 3.4423828, 13.318115 2.4023438 Q 13.332764 1.8310547, 13.889404 1.673584 L 13.889404 0.0073242188 Q 12.658936 0.12084961, 11.996094 0.8276367 Q 11.333252 1.5307617, 11.292969 2.7685547 Q 11.27832 3.8269043, 11.267334 4.914551 Q 11.256348 6.0021973, 11.263672 7.137451 Z M 14.8342285 10.576172 L 14.8342285 12.249756 Q 16.009766 12.13623, 16.683594 11.444092 Q 17.361084 10.748291, 17.40503 9.481201 Q 17.437988 8.671875, 17.452637 7.8552246 Q 17.467285 7.034912, 17.467285 6.2036133 Q 17.467285 5.3723145, 17.452637 4.515381 Q 17.437988 3.6547852, 17.40503 2.7685547 Q 17.375732 1.5307617, 16.709229 0.8276367 Q 16.042725 0.12084961, 14.8342285 0.0073242188 L 14.8342285 1.673584 Q 15.372559 1.8383789, 15.387207 2.3876953 Q 15.442139 3.7207031, 15.456787 4.9328613 Q 15.471436 6.1450195, 15.456787 7.3571777 Q 15.442139 8.565674, 15.387207 9.880371 Q 15.350586 10.426025, 14.8342285 10.576172 Z M 21.362549 12.128906 L 21.362549 0.12817383 L 23.347412 0.12817383 L 23.347412 12.128906 L 21.362549 12.128906 Z" transform="translate(24.652588, 0)" />
  </g>
</svg>