<?xml version="1.0" encoding="UTF-8"?>
<svg xmlns:xlink="http://www.w3.org/1999/xlink" viewBox="0 0 35.1 410.0616105751436" version="1.1" style="font-synthesis: none;" width="35.1mm" height="410.0616105751436mm" xmlns="http://www.w3.org/2000/svg">
  <defs />
  <style>	</style>
  <path d="M 0 0 L 35.1 0 L 35.1 410.0616105751436 L 0 410.0616105751436 Z " stroke="none" fill-rule="nonzero" fill="#FFFFFF" fill-opacity="1" transform="matrix(1,0,0,1,0,0)" />
  <path d="M 0 389.1796105751436 L 10 389.1796105751436 L 10 390.6796105751436 L 0 390.6796105751436 Z " stroke="none" fill-rule="evenodd" fill="#000000" fill-opacity="1" transform="matrix(1,0,0,1,5.05,13.314)" id="mark1 l" />
  <path d="M 0 381.22186342054886 L 10 381.22186342054886 L 10 382.72186342054886 L 0 382.72186342054886 Z " stroke="none" fill-rule="evenodd" fill="#000000" fill-opacity="1" transform="matrix(1,0,0,1,5.05,13.314)" id="mark2 l" />
  <path d="M 0 373.26411626595404 L 10 373.26411626595404 L 10 374.76411626595404 L 0 374.76411626595404 Z " stroke="none" fill-rule="evenodd" fill="#000000" fill-opacity="1" transform="matrix(1,0,0,1,5.05,13.314)" id="mark3 l" />
  <path d="M 0 365.3063691113593 L 10 365.3063691113593 L 10 366.8063691113593 L 0 366.8063691113593 Z " stroke="none" fill-rule="evenodd" fill="#000000" fill-opacity="1" transform="matrix(1,0,0,1,5.05,13.314)" id="mark4 l" />
  <path d="M 0 357.34862195676453 L 25 357.34862195676453 L 25 358.84862195676453 L 0 358.84862195676453 Z " stroke="none" fill-rule="evenodd" fill="#000000" fill-opacity="1" transform="matrix(1,0,0,1,5.05,13.314)" id="mark5 l" />
  <path d="M 16.18 354.85062195676454 C 16.174666666666667 354.6772886234312, 16.173333333333332 354.5379552900979, 16.176 354.43262195676454 C 16.178666666666665 354.3272886234312, 16.181333333333335 354.2252886234312, 16.183999999999997 354.12662195676455 L 17.264 354.12662195676455 C 17.256 354.2039552900979, 17.25 354.2999552900979, 17.246 354.41462195676456 C 17.241999999999997 354.5292886234312, 17.240666666666666 354.6399552900979, 17.241999999999997 354.74662195676456 C 17.243333333333332 354.8532886234312, 17.246666666666666 354.93328862343117, 17.252 354.98662195676457 C 17.262666666666668 355.10662195676457, 17.297333333333334 355.2046219567645, 17.355999999999998 355.28062195676455 C 17.414666666666665 355.3566219567645, 17.497333333333334 355.41062195676454, 17.604 355.4426219567645 L 17.604 356.3346219567645 C 17.110666666666663 356.2972886234312, 16.75333333333333 356.1626219567645, 16.532 355.9306219567645 C 16.310666666666666 355.69862195676455, 16.19333333333333 355.33862195676454, 16.18 354.85062195676454 Z M 16.279999999999998 353.51462195676453 L 16.279999999999998 349.86662195676456 L 17.348 349.86662195676456 L 17.348 353.51462195676453 Z M 17.852 353.09062195676455 L 17.852 352.3346219567645 C 17.929333333333332 352.29462195676456, 18.014666666666667 352.2626219567645, 18.107999999999997 352.2386219567645 C 18.20133333333333 352.2146219567645, 18.301333333333332 352.2026219567645, 18.407999999999998 352.2026219567645 C 18.773333333333333 352.2026219567645, 19.047333333333334 352.31795529009787, 19.23 352.5486219567645 C 19.412666666666667 352.77928862343117, 19.514666666666663 353.0932886234312, 19.535999999999998 353.4906219567645 C 19.546666666666667 353.65062195676455, 19.55333333333333 353.8092886234312, 19.555999999999997 353.9666219567645 C 19.558666666666664 354.12395529009785, 19.557333333333332 354.2772886234312, 19.552 354.42662195676456 C 19.546666666666667 354.5759552900979, 19.538666666666668 354.7159552900979, 19.528 354.8466219567645 C 19.482666666666667 355.3452886234312, 19.353333333333335 355.7106219567645, 19.14 355.9426219567645 C 18.926666666666666 356.17462195676455, 18.581333333333333 356.3052886234312, 18.104 356.3346219567645 L 18.104 355.4426219567645 C 18.21333333333333 355.4132886234312, 18.296 355.36062195676453, 18.352 355.2846219567645 C 18.408 355.20862195676455, 18.44 355.1092886234312, 18.448 354.98662195676457 C 18.471999999999998 354.6959552900979, 18.485999999999997 354.43462195676454, 18.49 354.2026219567645 C 18.494 353.97062195676455, 18.485333333333333 353.7492886234312, 18.464 353.53862195676453 C 18.447999999999997 353.3839552900979, 18.396666666666665 353.26862195676455, 18.31 353.1926219567645 C 18.223333333333333 353.11662195676456, 18.090666666666664 353.07862195676455, 17.912 353.07862195676455 C 17.901333333333334 353.07862195676455, 17.890666666666668 353.07995529009787, 17.88 353.0826219567645 C 17.86933333333333 353.0852886234312, 17.86 353.08795529009785, 17.852 353.09062195676455 Z M 17.852 350.7986219567645 L 17.852 349.86662195676456 L 19.439999999999998 349.86662195676456 L 19.439999999999998 350.7986219567645 Z M 21.944 356.26662195676454 L 21.944 349.86662195676456 L 23.003999999999998 349.86662195676456 L 23.003999999999998 356.26662195676454 Z " stroke="none" fill-rule="nonzero" fill="#000000" fill-opacity="1" transform="matrix(1,0,0,1,5.05,13.314)" id="text5 l" />
  <path d="M 0 349.3908748021698 L 10 349.3908748021698 L 10 350.8908748021698 L 0 350.8908748021698 Z " stroke="none" fill-rule="evenodd" fill="#000000" fill-opacity="1" transform="matrix(1,0,0,1,5.05,13.314)" id="mark6 l" />
  <path d="M 0 341.433127647575 L 10 341.433127647575 L 10 342.933127647575 L 0 342.933127647575 Z " stroke="none" fill-rule="evenodd" fill="#000000" fill-opacity="1" transform="matrix(1,0,0,1,5.05,13.314)" id="mark7 l" />
  <path d="M 0 333.4753804929802 L 10 333.4753804929802 L 10 334.9753804929802 L 0 334.9753804929802 Z " stroke="none" fill-rule="evenodd" fill="#000000" fill-opacity="1" transform="matrix(1,0,0,1,5.05,13.314)" id="mark8 l" />
  <path d="M 0 325.51763333838545 L 10 325.51763333838545 L 10 327.01763333838545 L 0 327.01763333838545 Z " stroke="none" fill-rule="evenodd" fill="#000000" fill-opacity="1" transform="matrix(1,0,0,1,5.05,13.314)" id="mark9 l" />
  <path d="M 0 317.5598861837907 L 25 317.5598861837907 L 25 319.0598861837907 L 0 319.0598861837907 Z " stroke="none" fill-rule="evenodd" fill="#000000" fill-opacity="1" transform="matrix(1,0,0,1,5.05,13.314)" id="mark10 l" />
  <path d="M 14.323999999999998 316.5098861837907 L 14.323999999999998 311.06588618379067 L 13.871999999999998 311.06588618379067 L 13.839999999999998 310.68588618379067 L 14.543999999999999 310.1098861837907 L 15.424 310.1098861837907 L 15.424 316.5098861837907 Z M 16.196 315.0978861837907 C 16.188000000000002 314.6685528504574, 16.182666666666666 314.2518861837907, 16.18 313.8478861837907 C 16.177333333333333 313.4438861837907, 16.177999999999997 313.0485528504574, 16.182 312.66188618379067 C 16.186 312.275219517124, 16.190666666666665 311.89388618379064, 16.196 311.51788618379067 C 16.209333333333333 311.0778861837907, 16.334000000000003 310.73255285045735, 16.57 310.48188618379066 C 16.805999999999997 310.23121951712403, 17.142666666666663 310.0858861837907, 17.58 310.0458861837907 L 17.58 310.93388618379066 C 17.382666666666665 310.98988618379065, 17.281333333333333 311.119219517124, 17.276 311.3218861837907 C 17.262666666666668 311.69255285045733, 17.253333333333334 312.04055285045735, 17.248 312.3658861837907 C 17.242666666666665 312.691219517124, 17.24 313.0078861837907, 17.24 313.31588618379067 C 17.24 313.62388618379066, 17.242666666666665 313.9385528504573, 17.248 314.2598861837907 C 17.253333333333334 314.58121951712405, 17.262666666666668 314.92455285045736, 17.276 315.28988618379066 C 17.281333333333333 315.4978861837907, 17.382666666666665 315.6298861837907, 17.58 315.68588618379067 L 17.58 316.5738861837907 C 17.142666666666663 316.53388618379074, 16.805999999999997 316.38788618379067, 16.57 316.13588618379066 C 16.334000000000003 315.88388618379065, 16.209333333333333 315.5378861837907, 16.196 315.0978861837907 Z M 18.084 316.5738861837907 L 18.084 315.6818861837907 C 18.268 315.62855285045737, 18.366666666666667 315.50455285045734, 18.38 315.3098861837907 C 18.398666666666667 314.843219517124, 18.410666666666668 314.39455285045733, 18.416 313.9638861837907 C 18.421333333333333 313.53321951712405, 18.421333333333333 313.10255285045736, 18.416 312.67188618379066 C 18.410666666666668 312.241219517124, 18.398666666666667 311.78855285045734, 18.38 311.31388618379066 C 18.374666666666666 311.119219517124, 18.276 310.99255285045734, 18.084 310.93388618379066 L 18.084 310.0458861837907 C 18.513333333333335 310.0858861837907, 18.846666666666668 310.23121951712403, 19.084 310.48188618379066 C 19.321333333333335 310.73255285045735, 19.445333333333334 311.0778861837907, 19.456 311.51788618379067 C 19.46666666666667 311.8325528504573, 19.474666666666668 312.1425528504574, 19.48 312.4478861837907 C 19.485333333333333 312.753219517124, 19.488 313.05388618379067, 19.488 313.34988618379066 C 19.488 313.64588618379065, 19.485333333333333 313.939219517124, 19.48 314.2298861837907 C 19.474666666666668 314.52055285045736, 19.46666666666667 314.8098861837907, 19.456 315.0978861837907 C 19.439999999999998 315.5485528504574, 19.311999999999998 315.89721951712403, 19.072 316.1438861837907 C 18.832 316.39055285045737, 18.502666666666666 316.53388618379074, 18.084 316.5738861837907 Z M 21.944 316.5098861837907 L 21.944 310.1098861837907 L 23.003999999999998 310.1098861837907 L 23.003999999999998 316.5098861837907 Z " stroke="none" fill-rule="nonzero" fill="#000000" fill-opacity="1" transform="matrix(1,0,0,1,5.05,13.314)" id="text10 l" />
  <path d="M 0 309.60213902919594 L 10 309.60213902919594 L 10 311.10213902919594 L 0 311.10213902919594 Z " stroke="none" fill-rule="evenodd" fill="#000000" fill-opacity="1" transform="matrix(1,0,0,1,5.05,13.314)" id="mark11 l" />
  <path d="M 0 301.6443918746012 L 10 301.6443918746012 L 10 303.1443918746012 L 0 303.1443918746012 Z " stroke="none" fill-rule="evenodd" fill="#000000" fill-opacity="1" transform="matrix(1,0,0,1,5.05,13.314)" id="mark12 l" />
  <path d="M 0 293.68664472000637 L 10 293.68664472000637 L 10 295.18664472000637 L 0 295.18664472000637 Z " stroke="none" fill-rule="evenodd" fill="#000000" fill-opacity="1" transform="matrix(1,0,0,1,5.05,13.314)" id="mark13 l" />
  <path d="M 0 285.7288975654116 L 10 285.7288975654116 L 10 287.2288975654116 L 0 287.2288975654116 Z " stroke="none" fill-rule="evenodd" fill="#000000" fill-opacity="1" transform="matrix(1,0,0,1,5.05,13.314)" id="mark14 l" />
  <path d="M 0 277.77115041081686 L 25 277.77115041081686 L 25 279.27115041081686 L 0 279.27115041081686 Z " stroke="none" fill-rule="evenodd" fill="#000000" fill-opacity="1" transform="matrix(1,0,0,1,5.05,13.314)" id="mark15 l" />
  <path d="M 14.331999999999999 276.68915041081686 L 14.331999999999999 271.24515041081685 L 13.879999999999999 271.24515041081685 L 13.847999999999999 270.86515041081685 L 14.552 270.2891504108169 L 15.432 270.2891504108169 L 15.432 276.68915041081686 Z M 16.18 275.27315041081687 C 16.174666666666667 275.0998170774835, 16.173333333333332 274.9604837441502, 16.176 274.85515041081686 C 16.178666666666665 274.7498170774835, 16.181333333333335 274.6478170774835, 16.183999999999997 274.5491504108169 L 17.264 274.5491504108169 C 17.256 274.6264837441502, 17.25 274.7224837441502, 17.246 274.8371504108169 C 17.241999999999997 274.95181707748355, 17.240666666666666 275.0624837441502, 17.241999999999997 275.1691504108169 C 17.243333333333332 275.2758170774835, 17.246666666666666 275.3558170774835, 17.252 275.4091504108169 C 17.262666666666668 275.5291504108169, 17.297333333333334 275.62715041081685, 17.355999999999998 275.7031504108169 C 17.414666666666665 275.77915041081684, 17.497333333333334 275.83315041081687, 17.604 275.86515041081685 L 17.604 276.75715041081685 C 17.110666666666663 276.7198170774835, 16.75333333333333 276.5851504108168, 16.532 276.35315041081685 C 16.310666666666666 276.1211504108169, 16.19333333333333 275.76115041081687, 16.18 275.27315041081687 Z M 16.279999999999998 273.93715041081686 L 16.279999999999998 270.2891504108169 L 17.348 270.2891504108169 L 17.348 273.93715041081686 Z M 17.852 273.5131504108169 L 17.852 272.75715041081685 C 17.929333333333332 272.7171504108169, 18.014666666666667 272.68515041081685, 18.107999999999997 272.66115041081684 C 18.20133333333333 272.63715041081684, 18.301333333333332 272.62515041081684, 18.407999999999998 272.62515041081684 C 18.773333333333333 272.62515041081684, 19.047333333333334 272.7404837441502, 19.23 272.97115041081685 C 19.412666666666667 273.2018170774835, 19.514666666666663 273.5158170774835, 19.535999999999998 273.91315041081685 C 19.546666666666667 274.0731504108169, 19.55333333333333 274.2318170774835, 19.555999999999997 274.38915041081685 C 19.558666666666664 274.5464837441502, 19.557333333333332 274.69981707748354, 19.552 274.8491504108169 C 19.546666666666667 274.99848374415023, 19.538666666666668 275.1384837441502, 19.528 275.26915041081685 C 19.482666666666667 275.7678170774835, 19.353333333333335 276.1331504108168, 19.14 276.36515041081685 C 18.926666666666666 276.5971504108169, 18.581333333333333 276.7278170774835, 18.104 276.75715041081685 L 18.104 275.86515041081685 C 18.21333333333333 275.8358170774835, 18.296 275.78315041081686, 18.352 275.70715041081684 C 18.408 275.6311504108169, 18.44 275.53181707748354, 18.448 275.4091504108169 C 18.471999999999998 275.11848374415024, 18.485999999999997 274.85715041081687, 18.49 274.62515041081684 C 18.494 274.3931504108169, 18.485333333333333 274.1718170774835, 18.464 273.96115041081686 C 18.447999999999997 273.8064837441502, 18.396666666666665 273.6911504108169, 18.31 273.61515041081685 C 18.223333333333333 273.5391504108169, 18.090666666666664 273.5011504108169, 17.912 273.5011504108169 C 17.901333333333334 273.5011504108169, 17.890666666666668 273.5024837441502, 17.88 273.50515041081684 C 17.86933333333333 273.50781707748354, 17.86 273.5104837441502, 17.852 273.5131504108169 Z M 17.852 271.22115041081685 L 17.852 270.2891504108169 L 19.439999999999998 270.2891504108169 L 19.439999999999998 271.22115041081685 Z M 21.944 276.68915041081686 L 21.944 270.2891504108169 L 23.003999999999998 270.2891504108169 L 23.003999999999998 276.68915041081686 Z " stroke="none" fill-rule="nonzero" fill="#000000" fill-opacity="1" transform="matrix(1,0,0,1,5.05,13.314)" id="text15 l" />
  <path d="M 0 269.8134032562221 L 10 269.8134032562221 L 10 271.3134032562221 L 0 271.3134032562221 Z " stroke="none" fill-rule="evenodd" fill="#000000" fill-opacity="1" transform="matrix(1,0,0,1,5.05,13.314)" id="mark16 l" />
  <path d="M 0 261.85565610162735 L 10 261.85565610162735 L 10 263.35565610162735 L 0 263.35565610162735 Z " stroke="none" fill-rule="evenodd" fill="#000000" fill-opacity="1" transform="matrix(1,0,0,1,5.05,13.314)" id="mark17 l" />
  <path d="M 0 253.89790894703256 L 10 253.89790894703256 L 10 255.39790894703256 L 0 255.39790894703256 Z " stroke="none" fill-rule="evenodd" fill="#000000" fill-opacity="1" transform="matrix(1,0,0,1,5.05,13.314)" id="mark18 l" />
  <path d="M 0 245.9401617924378 L 10 245.9401617924378 L 10 247.4401617924378 L 0 247.4401617924378 Z " stroke="none" fill-rule="evenodd" fill="#000000" fill-opacity="1" transform="matrix(1,0,0,1,5.05,13.314)" id="mark19 l" />
  <path d="M 0 237.98241463784302 L 25 237.98241463784302 L 25 239.48241463784302 L 0 239.48241463784302 Z " stroke="none" fill-rule="evenodd" fill="#000000" fill-opacity="1" transform="matrix(1,0,0,1,5.05,13.314)" id="mark20 l" />
  <path d="M 12.319999999999999 236.93241463784304 C 12.317333333333334 236.83374797117636, 12.315333333333331 236.7450813045097, 12.313999999999998 236.66641463784305 C 12.312666666666665 236.58774797117638, 12.311333333333334 236.51374797117637, 12.309999999999999 236.44441463784304 C 12.308666666666667 236.3750813045097, 12.308 236.3030813045097, 12.308 236.22841463784303 C 12.308 236.15374797117636, 12.308 236.0690813045097, 12.308 235.97441463784304 C 12.308 235.87974797117639, 12.309333333333335 235.76841463784305, 12.312 235.64041463784304 C 12.32 235.34708130450971, 12.37 235.0850813045097, 12.462 234.85441463784304 C 12.554 234.62374797117636, 12.687999999999999 234.41774797117637, 12.863999999999999 234.23641463784304 C 13.04 234.0550813045097, 13.257333333333333 233.89374797117637, 13.515999999999998 233.75241463784303 L 14.047999999999998 233.46441463784305 C 14.234666666666666 233.3630813045097, 14.354 233.2410813045097, 14.405999999999999 233.09841463784304 C 14.457999999999998 232.95574797117638, 14.488 232.82174797117636, 14.495999999999999 232.69641463784305 C 14.506666666666664 232.54974797117637, 14.512666666666664 232.39308130450974, 14.514 232.22641463784305 C 14.51533333333333 232.05974797117636, 14.511999999999997 231.90308130450973, 14.504 231.75641463784305 C 14.498666666666665 231.65241463784304, 14.468666666666666 231.56641463784302, 14.413999999999998 231.49841463784304 C 14.359333333333332 231.43041463784306, 14.279999999999998 231.38174797117637, 14.175999999999998 231.35241463784303 L 14.175999999999998 230.46441463784305 C 14.663999999999998 230.49641463784303, 15.014 230.62774797117635, 15.225999999999999 230.85841463784303 C 15.437999999999999 231.0890813045097, 15.554666666666666 231.44974797117635, 15.575999999999999 231.94041463784305 C 15.578666666666663 232.00441463784307, 15.580666666666666 232.0697479711764, 15.581999999999999 232.13641463784305 C 15.583333333333332 232.20308130450974, 15.584 232.2677479711764, 15.584 232.33041463784303 C 15.584 232.39308130450968, 15.583333333333332 232.4550813045097, 15.581999999999999 232.51641463784304 C 15.580666666666666 232.5777479711764, 15.578666666666663 232.6377479711764, 15.575999999999999 232.69641463784305 C 15.565333333333331 232.9817479711764, 15.512 233.22841463784303, 15.415999999999999 233.43641463784303 C 15.32 233.64441463784303, 15.19 233.82441463784303, 15.026 233.97641463784305 C 14.862 234.12841463784304, 14.672 234.26441463784303, 14.456 234.38441463784304 L 13.851999999999999 234.71241463784304 C 13.737333333333332 234.77374797117636, 13.647333333333332 234.85774797117637, 13.581999999999999 234.96441463784305 C 13.516666666666666 235.07108130450973, 13.469999999999999 235.18441463784302, 13.441999999999998 235.30441463784302 C 13.413999999999998 235.42441463784303, 13.399999999999999 235.53641463784302, 13.399999999999999 235.64041463784304 L 13.399999999999999 236.93241463784304 Z M 12.328 232.89241463784305 C 12.322666666666667 232.7750813045097, 12.318666666666665 232.66041463784305, 12.315999999999999 232.54841463784305 C 12.313333333333333 232.43641463784306, 12.311333333333334 232.33041463784303, 12.309999999999999 232.23041463784304 C 12.308666666666667 232.13041463784305, 12.309333333333335 232.03374797117635, 12.312 231.94041463784305 C 12.330666666666666 231.45241463784305, 12.447333333333333 231.09308130450972, 12.661999999999999 230.86241463784305 C 12.876666666666665 230.63174797117637, 13.213333333333331 230.49908130450973, 13.671999999999999 230.46441463784305 L 13.671999999999999 231.35641463784305 C 13.576 231.38574797117636, 13.505333333333333 231.432414637843, 13.459999999999999 231.49641463784303 C 13.414666666666665 231.56041463784305, 13.390666666666664 231.63774797117637, 13.387999999999998 231.72841463784303 C 13.382666666666665 231.93641463784303, 13.379333333333333 232.12974797117636, 13.378 232.30841463784304 C 13.376666666666667 232.48708130450973, 13.381333333333334 232.68174797117638, 13.392 232.89241463784305 Z M 13.904 236.93241463784304 L 13.904 236.00041463784305 L 15.5 236.00041463784305 L 15.5 236.93241463784304 Z M 16.196 235.52041463784303 C 16.188000000000002 235.09108130450971, 16.182666666666666 234.67441463784303, 16.18 234.27041463784303 C 16.177333333333333 233.86641463784304, 16.177999999999997 233.4710813045097, 16.182 233.08441463784303 C 16.186 232.69774797117637, 16.190666666666665 232.31641463784302, 16.196 231.94041463784305 C 16.209333333333333 231.50041463784305, 16.334000000000003 231.1550813045097, 16.57 230.90441463784305 C 16.805999999999997 230.6537479711764, 17.142666666666663 230.50841463784303, 17.58 230.46841463784304 L 17.58 231.35641463784305 C 17.382666666666665 231.41241463784306, 17.281333333333333 231.5417479711764, 17.276 231.74441463784305 C 17.262666666666668 232.11508130450972, 17.253333333333334 232.46308130450973, 17.248 232.78841463784303 C 17.242666666666665 233.1137479711764, 17.24 233.43041463784306, 17.24 233.73841463784305 C 17.24 234.04641463784304, 17.242666666666665 234.3610813045097, 17.248 234.68241463784304 C 17.253333333333334 235.00374797117638, 17.262666666666668 235.34708130450971, 17.276 235.71241463784304 C 17.281333333333333 235.92041463784304, 17.382666666666665 236.05241463784301, 17.58 236.10841463784303 L 17.58 236.99641463784303 C 17.142666666666663 236.95641463784304, 16.805999999999997 236.81041463784305, 16.57 236.55841463784304 C 16.334000000000003 236.30641463784303, 16.209333333333333 235.96041463784303, 16.196 235.52041463784303 Z M 18.084 236.99641463784303 L 18.084 236.10441463784304 C 18.268 236.0510813045097, 18.366666666666667 235.92708130450973, 18.38 235.73241463784305 C 18.398666666666667 235.26574797117638, 18.410666666666668 234.8170813045097, 18.416 234.38641463784305 C 18.421333333333333 233.95574797117638, 18.421333333333333 233.52508130450968, 18.416 233.09441463784304 C 18.410666666666668 232.66374797117635, 18.398666666666667 232.2110813045097, 18.38 231.73641463784304 C 18.374666666666666 231.54174797117636, 18.276 231.4150813045097, 18.084 231.35641463784305 L 18.084 230.46841463784304 C 18.513333333333335 230.50841463784303, 18.846666666666668 230.6537479711764, 19.084 230.90441463784305 C 19.321333333333335 231.1550813045097, 19.445333333333334 231.50041463784305, 19.456 231.94041463784305 C 19.46666666666667 232.2550813045097, 19.474666666666668 232.5650813045097, 19.48 232.87041463784303 C 19.485333333333333 233.17574797117635, 19.488 233.47641463784305, 19.488 233.77241463784304 C 19.488 234.06841463784303, 19.485333333333333 234.36174797117638, 19.48 234.65241463784304 C 19.474666666666668 234.9430813045097, 19.46666666666667 235.23241463784302, 19.456 235.52041463784303 C 19.439999999999998 235.9710813045097, 19.311999999999998 236.31974797117635, 19.072 236.56641463784302 C 18.832 236.8130813045097, 18.502666666666666 236.95641463784304, 18.084 236.99641463784303 Z M 21.944 236.93241463784304 L 21.944 230.53241463784303 L 23.003999999999998 230.53241463784303 L 23.003999999999998 236.93241463784304 Z " stroke="none" fill-rule="nonzero" fill="#000000" fill-opacity="1" transform="matrix(1,0,0,1,5.05,13.314)" id="text20 l" />
  <path d="M 0 230.02466748324827 L 10 230.02466748324827 L 10 231.52466748324827 L 0 231.52466748324827 Z " stroke="none" fill-rule="evenodd" fill="#000000" fill-opacity="1" transform="matrix(1,0,0,1,5.05,13.314)" id="mark21 l" />
  <path d="M 0 222.0669203286535 L 10 222.0669203286535 L 10 223.5669203286535 L 0 223.5669203286535 Z " stroke="none" fill-rule="evenodd" fill="#000000" fill-opacity="1" transform="matrix(1,0,0,1,5.05,13.314)" id="mark22 l" />
  <path d="M 0 214.10917317405872 L 10 214.10917317405872 L 10 215.60917317405872 L 0 215.60917317405872 Z " stroke="none" fill-rule="evenodd" fill="#000000" fill-opacity="1" transform="matrix(1,0,0,1,5.05,13.314)" id="mark23 l" />
  <path d="M 0 206.15142601946397 L 10 206.15142601946397 L 10 207.65142601946397 L 0 207.65142601946397 Z " stroke="none" fill-rule="evenodd" fill="#000000" fill-opacity="1" transform="matrix(1,0,0,1,5.05,13.314)" id="mark24 l" />
  <path d="M 0 198.19367886486918 L 25 198.19367886486918 L 25 199.69367886486918 L 0 199.69367886486918 Z " stroke="none" fill-rule="evenodd" fill="#000000" fill-opacity="1" transform="matrix(1,0,0,1,5.05,13.314)" id="mark25 l" />
  <path d="M 12.328 197.1436788648692 C 12.325333333333333 197.04501219820253, 12.323333333333332 196.95634553153587, 12.322 196.8776788648692 C 12.320666666666666 196.79901219820255, 12.319333333333333 196.72501219820253, 12.318 196.6556788648692 C 12.316666666666666 196.58634553153587, 12.315999999999999 196.51434553153587, 12.316 196.4396788648692 C 12.315999999999999 196.36501219820252, 12.315999999999999 196.28034553153586, 12.316 196.1856788648692 C 12.315999999999999 196.09101219820255, 12.317333333333334 195.97967886486921, 12.32 195.8516788648692 C 12.328 195.55834553153588, 12.378 195.29634553153588, 12.47 195.0656788648692 C 12.562000000000001 194.83501219820252, 12.696 194.62901219820253, 12.872 194.4476788648692 C 13.048 194.26634553153588, 13.265333333333334 194.10501219820253, 13.524000000000001 193.9636788648692 L 14.056000000000001 193.6756788648692 C 14.242666666666668 193.57434553153587, 14.362000000000002 193.45234553153585, 14.414 193.3096788648692 C 14.466000000000001 193.16701219820254, 14.495999999999999 193.03301219820253, 14.504 192.9076788648692 C 14.514666666666667 192.76101219820254, 14.520666666666667 192.6043455315359, 14.522 192.4376788648692 C 14.523333333333333 192.27101219820253, 14.520000000000001 192.11434553153586, 14.512 191.9676788648692 C 14.506666666666666 191.8636788648692, 14.476666666666667 191.77767886486922, 14.422 191.7096788648692 C 14.367333333333335 191.6416788648692, 14.288 191.59301219820253, 14.184000000000001 191.5636788648692 L 14.184000000000001 190.6756788648692 C 14.672 190.70767886486922, 15.022000000000002 190.83901219820254, 15.234 191.0696788648692 C 15.446000000000002 191.30034553153587, 15.562666666666667 191.6610121982025, 15.584 192.1516788648692 C 15.586666666666668 192.21567886486923, 15.588666666666668 192.28101219820257, 15.59 192.3476788648692 C 15.591333333333335 192.4143455315359, 15.592000000000002 192.47901219820255, 15.592 192.5416788648692 C 15.592000000000002 192.60434553153584, 15.591333333333335 192.66634553153585, 15.59 192.7276788648692 C 15.588666666666668 192.78901219820256, 15.586666666666668 192.84901219820256, 15.584 192.9076788648692 C 15.573333333333332 193.19301219820255, 15.52 193.4396788648692, 15.424 193.6476788648692 C 15.328 193.8556788648692, 15.197999999999999 194.0356788648692, 15.033999999999999 194.1876788648692 C 14.87 194.3396788648692, 14.68 194.4756788648692, 14.464 194.5956788648692 L 13.86 194.9236788648692 C 13.745333333333335 194.98501219820253, 13.655333333333335 195.06901219820253, 13.59 195.1756788648692 C 13.524666666666668 195.2823455315359, 13.478000000000002 195.39567886486918, 13.45 195.5156788648692 C 13.422 195.6356788648692, 13.408 195.7476788648692, 13.408 195.8516788648692 L 13.408 197.1436788648692 Z M 12.336 193.1036788648692 C 12.330666666666666 192.98634553153587, 12.326666666666664 192.8716788648692, 12.324 192.75967886486922 C 12.321333333333332 192.64767886486922, 12.319333333333333 192.5416788648692, 12.318 192.4416788648692 C 12.316666666666666 192.3416788648692, 12.317333333333334 192.24501219820252, 12.32 192.1516788648692 C 12.338666666666668 191.6636788648692, 12.455333333333336 191.3043455315359, 12.67 191.0736788648692 C 12.884666666666668 190.84301219820253, 13.221333333333334 190.71034553153586, 13.68 190.6756788648692 L 13.68 191.5676788648692 C 13.584 191.59701219820255, 13.513333333333332 191.6436788648692, 13.468 191.7076788648692 C 13.422666666666668 191.7716788648692, 13.398666666666667 191.84901219820253, 13.396 191.9396788648692 C 13.390666666666666 192.1476788648692, 13.387333333333332 192.34101219820252, 13.386 192.5196788648692 C 13.384666666666666 192.6983455315359, 13.389333333333333 192.89301219820254, 13.4 193.1036788648692 Z M 13.911999999999999 197.1436788648692 L 13.911999999999999 196.2116788648692 L 15.508 196.2116788648692 L 15.508 197.1436788648692 Z M 16.18 195.7276788648692 C 16.174666666666667 195.5543455315359, 16.173333333333332 195.41501219820253, 16.176 195.3096788648692 C 16.178666666666665 195.20434553153586, 16.181333333333335 195.1023455315359, 16.183999999999997 195.00367886486922 L 17.264 195.00367886486922 C 17.256 195.08101219820253, 17.25 195.17701219820253, 17.246 195.2916788648692 C 17.241999999999997 195.40634553153586, 17.240666666666666 195.5170121982025, 17.241999999999997 195.6236788648692 C 17.243333333333332 195.73034553153587, 17.246666666666666 195.81034553153586, 17.252 195.8636788648692 C 17.262666666666668 195.9836788648692, 17.297333333333334 196.08167886486922, 17.355999999999998 196.1576788648692 C 17.414666666666665 196.2336788648692, 17.497333333333334 196.28767886486918, 17.604 196.3196788648692 L 17.604 197.2116788648692 C 17.110666666666663 197.1743455315359, 16.75333333333333 197.0396788648692, 16.532 196.8076788648692 C 16.310666666666666 196.5756788648692, 16.19333333333333 196.21567886486923, 16.18 195.7276788648692 Z M 16.279999999999998 194.3916788648692 L 16.279999999999998 190.7436788648692 L 17.348 190.7436788648692 L 17.348 194.3916788648692 Z M 17.852 193.9676788648692 L 17.852 193.2116788648692 C 17.929333333333332 193.17167886486922, 18.014666666666667 193.1396788648692, 18.107999999999997 193.1156788648692 C 18.20133333333333 193.0916788648692, 18.301333333333332 193.0796788648692, 18.407999999999998 193.0796788648692 C 18.773333333333333 193.0796788648692, 19.047333333333334 193.19501219820256, 19.23 193.4256788648692 C 19.412666666666667 193.65634553153586, 19.514666666666663 193.97034553153588, 19.535999999999998 194.3676788648692 C 19.546666666666667 194.5276788648692, 19.55333333333333 194.6863455315359, 19.555999999999997 194.8436788648692 C 19.558666666666664 195.00101219820255, 19.557333333333332 195.15434553153585, 19.552 195.3036788648692 C 19.546666666666667 195.45301219820254, 19.538666666666668 195.59301219820253, 19.528 195.7236788648692 C 19.482666666666667 196.22234553153586, 19.353333333333335 196.5876788648692, 19.14 196.8196788648692 C 18.926666666666666 197.0516788648692, 18.581333333333333 197.18234553153587, 18.104 197.2116788648692 L 18.104 196.3196788648692 C 18.21333333333333 196.29034553153588, 18.296 196.23767886486922, 18.352 196.1616788648692 C 18.408 196.08567886486918, 18.44 195.98634553153585, 18.448 195.8636788648692 C 18.471999999999998 195.57301219820255, 18.485999999999997 195.31167886486918, 18.49 195.0796788648692 C 18.494 194.84767886486918, 18.485333333333333 194.62634553153586, 18.464 194.4156788648692 C 18.447999999999997 194.26101219820254, 18.396666666666665 194.14567886486918, 18.31 194.0696788648692 C 18.223333333333333 193.9936788648692, 18.090666666666664 193.95567886486924, 17.912 193.9556788648692 C 17.901333333333334 193.95567886486924, 17.890666666666668 193.95701219820256, 17.88 193.9596788648692 C 17.86933333333333 193.96234553153585, 17.86 193.96501219820254, 17.852 193.9676788648692 Z M 17.852 191.6756788648692 L 17.852 190.7436788648692 L 19.439999999999998 190.7436788648692 L 19.439999999999998 191.6756788648692 Z M 21.944 197.1436788648692 L 21.944 190.7436788648692 L 23.003999999999998 190.7436788648692 L 23.003999999999998 197.1436788648692 Z " stroke="none" fill-rule="nonzero" fill="#000000" fill-opacity="1" transform="matrix(1,0,0,1,5.05,13.314)" id="text25 l" />
  <path d="M 0 190.23593171027443 L 10 190.23593171027443 L 10 191.73593171027443 L 0 191.73593171027443 Z " stroke="none" fill-rule="evenodd" fill="#000000" fill-opacity="1" transform="matrix(1,0,0,1,5.05,13.314)" id="mark26 l" />
  <path d="M 0 182.27818455567967 L 10 182.27818455567967 L 10 183.77818455567967 L 0 183.77818455567967 Z " stroke="none" fill-rule="evenodd" fill="#000000" fill-opacity="1" transform="matrix(1,0,0,1,5.05,13.314)" id="mark27 l" />
  <path d="M 0 174.3204374010849 L 10 174.3204374010849 L 10 175.8204374010849 L 0 175.8204374010849 Z " stroke="none" fill-rule="evenodd" fill="#000000" fill-opacity="1" transform="matrix(1,0,0,1,5.05,13.314)" id="mark28 l" />
  <path d="M 0 166.36269024649013 L 10 166.36269024649013 L 10 167.86269024649013 L 0 167.86269024649013 Z " stroke="none" fill-rule="evenodd" fill="#000000" fill-opacity="1" transform="matrix(1,0,0,1,5.05,13.314)" id="mark29 l" />
  <path d="M 0 158.40494309189535 L 25 158.40494309189535 L 25 159.90494309189535 L 0 159.90494309189535 Z " stroke="none" fill-rule="evenodd" fill="#000000" fill-opacity="1" transform="matrix(1,0,0,1,5.05,13.314)" id="mark30 l" />
  <path d="M 12.223999999999998 155.93894309189537 C 12.221333333333334 155.83760975856202, 12.219333333333333 155.75360975856202, 12.218 155.68694309189536 C 12.216666666666667 155.6202764252287, 12.216666666666667 155.55227642522868, 12.218 155.48294309189538 C 12.219333333333333 155.41360975856202, 12.221333333333334 155.3242764252287, 12.223999999999998 155.21494309189538 L 13.303999999999998 155.21494309189538 L 13.303999999999998 156.07894309189535 C 13.303999999999998 156.3162764252287, 13.417333333333332 156.46694309189536, 13.643999999999998 156.53094309189535 L 13.643999999999998 157.42294309189538 C 13.155999999999999 157.38560975856203, 12.800666666666665 157.25094309189535, 12.578 157.01894309189535 C 12.355333333333334 156.78694309189535, 12.237333333333332 156.42694309189537, 12.223999999999998 155.93894309189537 Z M 12.292 151.88694309189538 L 12.292 150.95494309189536 L 15.536 150.95494309189536 L 15.536 151.88694309189538 Z M 14.143999999999998 156.53494309189537 C 14.367999999999999 156.47894309189536, 14.483999999999998 156.3282764252287, 14.491999999999999 156.08294309189537 C 14.497333333333334 155.88027642522871, 14.500666666666666 155.69760975856204, 14.501999999999999 155.53494309189537 C 14.503333333333332 155.3722764252287, 14.498666666666665 155.21494309189538, 14.488 155.06294309189536 C 14.48 154.90560975856204, 14.431999999999999 154.7722764252287, 14.344 154.66294309189536 C 14.256 154.55360975856203, 14.089333333333332 154.50160975856204, 13.844 154.50694309189535 L 13.096 154.51494309189536 L 13.068 153.62294309189537 L 14.027999999999999 152.23894309189535 L 15.216 152.23894309189535 L 14.248 153.59094309189535 L 14.28 153.59094309189535 C 14.712 153.59094309189535, 15.028666666666666 153.71360975856203, 15.229999999999999 153.95894309189538 C 15.431333333333333 154.2042764252287, 15.544 154.58160975856202, 15.568 155.09094309189535 C 15.57333333333333 155.16294309189536, 15.576666666666664 155.23494309189536, 15.578 155.30694309189536 C 15.57933333333333 155.37894309189537, 15.579999999999998 155.44960975856202, 15.579999999999998 155.51894309189535 C 15.579999999999998 155.58827642522868, 15.57933333333333 155.65760975856202, 15.578 155.72694309189535 C 15.576666666666664 155.79627642522868, 15.57333333333333 155.86694309189537, 15.568 155.93894309189537 C 15.549333333333333 156.43494309189538, 15.428666666666665 156.79960975856204, 15.206 157.03294309189536 C 14.983333333333334 157.26627642522868, 14.630666666666666 157.3962764252287, 14.148 157.42294309189538 Z M 16.196 155.94294309189536 C 16.188000000000002 155.513609758562, 16.182666666666666 155.09694309189535, 16.18 154.69294309189536 C 16.177333333333333 154.28894309189536, 16.177999999999997 153.89360975856204, 16.182 153.50694309189535 C 16.186 153.1202764252287, 16.190666666666665 152.73894309189538, 16.196 152.36294309189537 C 16.209333333333333 151.92294309189538, 16.334000000000003 151.57760975856206, 16.57 151.32694309189537 C 16.805999999999997 151.07627642522868, 17.142666666666663 150.93094309189536, 17.58 150.89094309189537 L 17.58 151.77894309189537 C 17.382666666666665 151.83494309189535, 17.281333333333333 151.96427642522872, 17.276 152.16694309189538 C 17.262666666666668 152.53760975856204, 17.253333333333334 152.88560975856203, 17.248 153.21094309189536 C 17.242666666666665 153.5362764252287, 17.24 153.85294309189536, 17.24 154.16094309189538 C 17.24 154.46894309189537, 17.242666666666665 154.78360975856202, 17.248 155.10494309189536 C 17.253333333333334 155.4262764252287, 17.262666666666668 155.769609758562, 17.276 156.13494309189537 C 17.281333333333333 156.3429430918954, 17.382666666666665 156.47494309189537, 17.58 156.53094309189535 L 17.58 157.41894309189536 C 17.142666666666663 157.37894309189534, 16.805999999999997 157.23294309189535, 16.57 156.98094309189537 C 16.334000000000003 156.72894309189536, 16.209333333333333 156.38294309189536, 16.196 155.94294309189536 Z M 18.084 157.41894309189536 L 18.084 156.52694309189536 C 18.268 156.47360975856205, 18.366666666666667 156.34960975856205, 18.38 156.15494309189538 C 18.398666666666667 155.6882764252287, 18.410666666666668 155.23960975856204, 18.416 154.80894309189537 C 18.421333333333333 154.3782764252287, 18.421333333333333 153.94760975856204, 18.416 153.51694309189537 C 18.410666666666668 153.0862764252287, 18.398666666666667 152.63360975856205, 18.38 152.15894309189537 C 18.374666666666666 151.96427642522872, 18.276 151.83760975856205, 18.084 151.77894309189537 L 18.084 150.89094309189537 C 18.513333333333335 150.93094309189536, 18.846666666666668 151.07627642522868, 19.084 151.32694309189537 C 19.321333333333335 151.57760975856206, 19.445333333333334 151.92294309189538, 19.456 152.36294309189537 C 19.46666666666667 152.67760975856203, 19.474666666666668 152.98760975856203, 19.48 153.29294309189535 C 19.485333333333333 153.59827642522868, 19.488 153.89894309189535, 19.488 154.19494309189537 C 19.488 154.49094309189536, 19.485333333333333 154.78427642522868, 19.48 155.07494309189536 C 19.474666666666668 155.36560975856204, 19.46666666666667 155.65494309189538, 19.456 155.94294309189536 C 19.439999999999998 156.39360975856204, 19.311999999999998 156.7422764252287, 19.072 156.98894309189535 C 18.832 157.23560975856202, 18.502666666666666 157.37894309189534, 18.084 157.41894309189536 Z M 21.944 157.35494309189536 L 21.944 150.95494309189536 L 23.003999999999998 150.95494309189536 L 23.003999999999998 157.35494309189536 Z " stroke="none" fill-rule="nonzero" fill="#000000" fill-opacity="1" transform="matrix(1,0,0,1,5.05,13.314)" id="text30 l" />
  <path d="M 0 150.4471959373006 L 10 150.4471959373006 L 10 151.9471959373006 L 0 151.9471959373006 Z " stroke="none" fill-rule="evenodd" fill="#000000" fill-opacity="1" transform="matrix(1,0,0,1,5.05,13.314)" id="mark31 l" />
  <path d="M 0 142.48944878270584 L 10 142.48944878270584 L 10 143.98944878270584 L 0 143.98944878270584 Z " stroke="none" fill-rule="evenodd" fill="#000000" fill-opacity="1" transform="matrix(1,0,0,1,5.05,13.314)" id="mark32 l" />
  <path d="M 0 134.53170162811108 L 10 134.53170162811108 L 10 136.03170162811108 L 0 136.03170162811108 Z " stroke="none" fill-rule="evenodd" fill="#000000" fill-opacity="1" transform="matrix(1,0,0,1,5.05,13.314)" id="mark33 l" />
  <path d="M 0 126.57395447351627 L 10 126.57395447351627 L 10 128.07395447351627 L 0 128.07395447351627 Z " stroke="none" fill-rule="evenodd" fill="#000000" fill-opacity="1" transform="matrix(1,0,0,1,5.05,13.314)" id="mark34 l" />
  <path d="M 0 118.61620731892151 L 25 118.61620731892151 L 25 120.11620731892151 L 0 120.11620731892151 Z " stroke="none" fill-rule="evenodd" fill="#000000" fill-opacity="1" transform="matrix(1,0,0,1,5.05,13.314)" id="mark35 l" />
  <path d="M 12.232 116.11820731892152 C 12.229333333333333 116.01687398558818, 12.227333333333334 115.93287398558817, 12.226 115.86620731892151 C 12.224666666666668 115.79954065225485, 12.224666666666668 115.73154065225486, 12.226 115.66220731892152 C 12.227333333333334 115.5928739855882, 12.229333333333333 115.50354065225486, 12.232 115.39420731892152 L 13.312 115.39420731892152 L 13.312 116.25820731892152 C 13.312 116.49554065225485, 13.425333333333333 116.64620731892151, 13.652 116.71020731892152 L 13.652 117.60220731892151 C 13.164 117.56487398558818, 12.808666666666667 117.43020731892153, 12.586 117.19820731892152 C 12.363333333333333 116.96620731892153, 12.245333333333335 116.60620731892152, 12.232 116.11820731892152 Z M 12.3 112.06620731892151 L 12.3 111.13420731892151 L 15.544 111.13420731892151 L 15.544 112.06620731892151 Z M 14.152000000000001 116.71420731892152 C 14.376000000000001 116.65820731892151, 14.492 116.50754065225485, 14.5 116.26220731892151 C 14.505333333333333 116.05954065225485, 14.508666666666667 115.87687398558819, 14.51 115.71420731892152 C 14.511333333333333 115.55154065225486, 14.506666666666668 115.39420731892153, 14.496 115.24220731892152 C 14.488 115.08487398558819, 14.440000000000001 114.95154065225483, 14.352 114.84220731892151 C 14.264 114.73287398558818, 14.097333333333335 114.68087398558819, 13.852 114.68620731892152 L 13.104 114.69420731892151 L 13.076 113.80220731892152 L 14.036 112.41820731892152 L 15.224 112.41820731892152 L 14.256 113.77020731892152 L 14.288 113.77020731892152 C 14.719999999999999 113.7702073189215, 15.036666666666665 113.89287398558818, 15.238 114.13820731892152 C 15.439333333333334 114.38354065225485, 15.552 114.76087398558818, 15.576 115.27020731892152 C 15.581333333333333 115.34220731892151, 15.584666666666667 115.41420731892151, 15.586 115.48620731892152 C 15.587333333333333 115.55820731892152, 15.588000000000001 115.6288739855882, 15.588000000000001 115.69820731892152 C 15.588000000000001 115.76754065225487, 15.587333333333333 115.8368739855882, 15.586 115.90620731892152 C 15.584666666666667 115.97554065225486, 15.581333333333333 116.04620731892152, 15.576 116.11820731892152 C 15.557333333333334 116.61420731892153, 15.436666666666667 116.9788739855882, 15.214 117.21220731892151 C 14.991333333333333 117.44554065225486, 14.638666666666666 117.57554065225486, 14.156 117.60220731892151 Z M 16.18 116.11820731892152 C 16.174666666666667 115.94487398558817, 16.173333333333332 115.80554065225485, 16.176 115.70020731892151 C 16.178666666666665 115.59487398558818, 16.181333333333335 115.49287398558818, 16.183999999999997 115.39420731892152 L 17.264 115.39420731892152 C 17.256 115.47154065225484, 17.25 115.56754065225485, 17.246 115.68220731892151 C 17.241999999999997 115.79687398558818, 17.240666666666666 115.90754065225485, 17.241999999999997 116.01420731892152 C 17.243333333333332 116.12087398558819, 17.246666666666666 116.20087398558817, 17.252 116.25420731892152 C 17.262666666666668 116.37420731892152, 17.297333333333334 116.47220731892153, 17.355999999999998 116.54820731892151 C 17.414666666666665 116.62420731892152, 17.497333333333334 116.67820731892152, 17.604 116.71020731892152 L 17.604 117.60220731892151 C 17.110666666666663 117.56487398558818, 16.75333333333333 117.43020731892153, 16.532 117.19820731892152 C 16.310666666666666 116.96620731892153, 16.19333333333333 116.60620731892152, 16.18 116.11820731892152 Z M 16.279999999999998 114.78220731892152 L 16.279999999999998 111.13420731892151 L 17.348 111.13420731892151 L 17.348 114.78220731892152 Z M 17.852 114.35820731892152 L 17.852 113.60220731892151 C 17.929333333333332 113.56220731892151, 18.014666666666667 113.53020731892151, 18.107999999999997 113.50620731892151 C 18.20133333333333 113.48220731892152, 18.301333333333332 113.47020731892152, 18.407999999999998 113.47020731892152 C 18.773333333333333 113.47020731892152, 19.047333333333334 113.58554065225485, 19.23 113.81620731892151 C 19.412666666666667 114.04687398558818, 19.514666666666663 114.3608739855882, 19.535999999999998 114.75820731892152 C 19.546666666666667 114.91820731892153, 19.55333333333333 115.07687398558818, 19.555999999999997 115.23420731892152 C 19.558666666666664 115.39154065225486, 19.557333333333332 115.5448739855882, 19.552 115.69420731892151 C 19.546666666666667 115.84354065225486, 19.538666666666668 115.98354065225485, 19.528 116.11420731892152 C 19.482666666666667 116.61287398558818, 19.353333333333335 116.97820731892152, 19.14 117.21020731892152 C 18.926666666666666 117.44220731892152, 18.581333333333333 117.57287398558819, 18.104 117.60220731892151 L 18.104 116.71020731892152 C 18.21333333333333 116.68087398558819, 18.296 116.62820731892151, 18.352 116.55220731892152 C 18.408 116.47620731892152, 18.44 116.37687398558819, 18.448 116.25420731892152 C 18.471999999999998 115.96354065225486, 18.485999999999997 115.70220731892152, 18.49 115.47020731892152 C 18.494 115.23820731892151, 18.485333333333333 115.01687398558818, 18.464 114.80620731892152 C 18.447999999999997 114.65154065225485, 18.396666666666665 114.53620731892153, 18.31 114.46020731892152 C 18.223333333333333 114.38420731892151, 18.090666666666664 114.34620731892151, 17.912 114.34620731892151 C 17.901333333333334 114.34620731892151, 17.890666666666668 114.34754065225485, 17.88 114.35020731892152 C 17.86933333333333 114.35287398558818, 17.86 114.35554065225483, 17.852 114.35820731892152 Z M 17.852 112.06620731892151 L 17.852 111.13420731892151 L 19.439999999999998 111.13420731892151 L 19.439999999999998 112.06620731892151 Z M 21.944 117.53420731892152 L 21.944 111.13420731892151 L 23.003999999999998 111.13420731892151 L 23.003999999999998 117.53420731892152 Z " stroke="none" fill-rule="nonzero" fill="#000000" fill-opacity="1" transform="matrix(1,0,0,1,5.05,13.314)" id="text35 l" />
  <path d="M 0 110.65846016432675 L 10 110.65846016432675 L 10 112.15846016432675 L 0 112.15846016432675 Z " stroke="none" fill-rule="evenodd" fill="#000000" fill-opacity="1" transform="matrix(1,0,0,1,5.05,13.314)" id="mark36 l" />
  <path d="M 0 102.700713009732 L 10 102.700713009732 L 10 104.200713009732 L 0 104.200713009732 Z " stroke="none" fill-rule="evenodd" fill="#000000" fill-opacity="1" transform="matrix(1,0,0,1,5.05,13.314)" id="mark37 l" />
  <path d="M 0 94.74296585513724 L 10 94.74296585513724 L 10 96.24296585513724 L 0 96.24296585513724 Z " stroke="none" fill-rule="evenodd" fill="#000000" fill-opacity="1" transform="matrix(1,0,0,1,5.05,13.314)" id="mark38 l" />
  <path d="M 0 86.78521870054249 L 10 86.78521870054249 L 10 88.28521870054249 L 0 88.28521870054249 Z " stroke="none" fill-rule="evenodd" fill="#000000" fill-opacity="1" transform="matrix(1,0,0,1,5.05,13.314)" id="mark39 l" />
  <path d="M 0 78.82747154594767 L 25 78.82747154594767 L 25 80.32747154594767 L 0 80.32747154594767 Z " stroke="none" fill-rule="evenodd" fill="#000000" fill-opacity="1" transform="matrix(1,0,0,1,5.05,13.314)" id="mark40 l" />
  <path d="M 11.739999999999998 76.09347154594768 L 11.739999999999998 75.21747154594767 L 12.455999999999998 73.33747154594768 L 13.495999999999999 73.33747154594768 L 12.771999999999998 75.16947154594767 L 13.171999999999997 75.16947154594767 L 13.171999999999997 76.09347154594768 Z M 13.675999999999998 77.77747154594768 L 13.675999999999998 71.37747154594767 L 14.683999999999997 71.37747154594767 L 14.683999999999997 77.77747154594768 Z M 15.187999999999999 76.09347154594768 L 15.187999999999999 75.16947154594767 L 15.655999999999999 75.16947154594767 L 15.655999999999999 76.09347154594768 Z M 16.195999999999998 76.36547154594767 C 16.188 75.93613821261434, 16.182666666666666 75.51947154594768, 16.18 75.11547154594767 C 16.177333333333333 74.71147154594767, 16.177999999999997 74.31613821261433, 16.182 73.92947154594768 C 16.186 73.54280487928102, 16.190666666666665 73.16147154594768, 16.195999999999998 72.78547154594767 C 16.20933333333333 72.34547154594767, 16.333999999999996 72.00013821261435, 16.569999999999997 71.74947154594767 C 16.805999999999997 71.49880487928101, 17.142666666666663 71.35347154594768, 17.58 71.31347154594768 L 17.58 72.20147154594768 C 17.382666666666665 72.25747154594768, 17.281333333333333 72.386804879281, 17.275999999999996 72.58947154594767 C 17.262666666666664 72.96013821261434, 17.25333333333333 73.30813821261434, 17.247999999999998 73.63347154594767 C 17.242666666666665 73.958804879281, 17.24 74.27547154594767, 17.24 74.58347154594767 C 17.24 74.89147154594768, 17.242666666666665 75.20613821261435, 17.247999999999998 75.52747154594768 C 17.25333333333333 75.848804879281, 17.262666666666664 76.19213821261434, 17.275999999999996 76.55747154594768 C 17.281333333333333 76.76547154594768, 17.382666666666665 76.89747154594768, 17.58 76.95347154594768 L 17.58 77.84147154594767 C 17.142666666666663 77.80147154594768, 16.805999999999997 77.65547154594768, 16.569999999999997 77.40347154594768 C 16.333999999999996 77.15147154594769, 16.20933333333333 76.80547154594768, 16.195999999999998 76.36547154594767 Z M 18.084 77.84147154594767 L 18.084 76.94947154594767 C 18.268 76.89613821261435, 18.366666666666667 76.77213821261435, 18.38 76.57747154594767 C 18.398666666666664 76.110804879281, 18.410666666666664 75.66213821261434, 18.415999999999997 75.23147154594767 C 18.42133333333333 74.800804879281, 18.42133333333333 74.37013821261435, 18.415999999999997 73.93947154594768 C 18.410666666666664 73.50880487928102, 18.398666666666664 73.05613821261434, 18.38 72.58147154594768 C 18.374666666666666 72.38680487928102, 18.276 72.26013821261435, 18.084 72.20147154594768 L 18.084 71.31347154594768 C 18.513333333333332 71.35347154594768, 18.846666666666664 71.49880487928101, 19.083999999999996 71.74947154594767 C 19.32133333333333 72.00013821261435, 19.44533333333333 72.34547154594767, 19.456 72.78547154594767 C 19.466666666666665 73.10013821261434, 19.474666666666664 73.41013821261434, 19.479999999999997 73.71547154594768 C 19.48533333333333 74.02080487928102, 19.488 74.32147154594767, 19.488 74.61747154594768 C 19.488 74.91347154594769, 19.48533333333333 75.20680487928101, 19.479999999999997 75.49747154594768 C 19.474666666666664 75.78813821261434, 19.466666666666665 76.07747154594767, 19.456 76.36547154594767 C 19.439999999999998 76.81613821261433, 19.311999999999998 77.16480487928101, 19.072 77.41147154594768 C 18.831999999999997 77.65813821261435, 18.502666666666663 77.80147154594768, 18.084 77.84147154594767 Z M 21.944 77.77747154594768 L 21.944 71.37747154594767 L 23.003999999999998 71.37747154594767 L 23.003999999999998 77.77747154594768 Z " stroke="none" fill-rule="nonzero" fill="#000000" fill-opacity="1" transform="matrix(1,0,0,1,5.05,13.314)" id="text40 l" />
  <path d="M 0 70.86972439135292 L 10 70.86972439135292 L 10 72.36972439135292 L 0 72.36972439135292 Z " stroke="none" fill-rule="evenodd" fill="#000000" fill-opacity="1" transform="matrix(1,0,0,1,5.05,13.314)" id="mark41 l" />
  <path d="M 0 62.91197723675816 L 10 62.91197723675816 L 10 64.41197723675816 L 0 64.41197723675816 Z " stroke="none" fill-rule="evenodd" fill="#000000" fill-opacity="1" transform="matrix(1,0,0,1,5.05,13.314)" id="mark42 l" />
  <path d="M 0 54.954230082163406 L 10 54.954230082163406 L 10 56.454230082163406 L 0 56.454230082163406 Z " stroke="none" fill-rule="evenodd" fill="#000000" fill-opacity="1" transform="matrix(1,0,0,1,5.05,13.314)" id="mark43 l" />
  <path d="M 0 46.99648292756865 L 10 46.99648292756865 L 10 48.49648292756865 L 0 48.49648292756865 Z " stroke="none" fill-rule="evenodd" fill="#000000" fill-opacity="1" transform="matrix(1,0,0,1,5.05,13.314)" id="mark44 l" />
  <path d="M 0 39.03873577297384 L 25 39.03873577297384 L 25 40.53873577297384 L 0 40.53873577297384 Z " stroke="none" fill-rule="evenodd" fill="#000000" fill-opacity="1" transform="matrix(1,0,0,1,5.05,13.314)" id="mark45 l" />
  <path d="M 11.748 36.27273577297384 L 11.748 35.396735772973834 L 12.463999999999999 33.51673577297384 L 13.503999999999998 33.51673577297384 L 12.78 35.34873577297384 L 13.18 35.34873577297384 L 13.18 36.27273577297384 Z M 13.684 37.956735772973836 L 13.684 31.556735772973838 L 14.691999999999998 31.556735772973838 L 14.691999999999998 37.956735772973836 Z M 15.195999999999998 36.27273577297384 L 15.195999999999998 35.34873577297384 L 15.663999999999998 35.34873577297384 L 15.663999999999998 36.27273577297384 Z M 16.18 36.54073577297384 C 16.174666666666667 36.3674024396405, 16.173333333333332 36.22806910630717, 16.176 36.12273577297383 C 16.178666666666665 36.017402439640506, 16.181333333333335 35.9154024396405, 16.183999999999997 35.816735772973836 L 17.264 35.816735772973836 C 17.256 35.89406910630717, 17.25 35.99006910630717, 17.246 36.10473577297384 C 17.241999999999997 36.219402439640504, 17.240666666666666 36.330069106307164, 17.241999999999997 36.43673577297383 C 17.243333333333332 36.5434024396405, 17.246666666666666 36.6234024396405, 17.252 36.676735772973835 C 17.262666666666668 36.79673577297383, 17.297333333333334 36.89473577297384, 17.355999999999998 36.97073577297384 C 17.414666666666665 37.04673577297384, 17.497333333333334 37.100735772973835, 17.604 37.13273577297384 L 17.604 38.024735772973834 C 17.110666666666663 37.987402439640505, 16.75333333333333 37.85273577297384, 16.532 37.62073577297384 C 16.310666666666666 37.38873577297384, 16.19333333333333 37.02873577297384, 16.18 36.54073577297384 Z M 16.279999999999998 35.204735772973834 L 16.279999999999998 31.556735772973838 L 17.348 31.556735772973838 L 17.348 35.204735772973834 Z M 17.852 34.780735772973834 L 17.852 34.024735772973834 C 17.929333333333332 33.984735772973835, 18.014666666666667 33.95273577297384, 18.107999999999997 33.92873577297384 C 18.20133333333333 33.90473577297384, 18.301333333333332 33.892735772973836, 18.407999999999998 33.892735772973836 C 18.773333333333333 33.892735772973836, 19.047333333333334 34.00806910630717, 19.23 34.23873577297384 C 19.412666666666667 34.469402439640504, 19.514666666666663 34.7834024396405, 19.535999999999998 35.18073577297383 C 19.546666666666667 35.34073577297383, 19.55333333333333 35.499402439640505, 19.555999999999997 35.65673577297384 C 19.558666666666664 35.81406910630717, 19.557333333333332 35.9674024396405, 19.552 36.11673577297383 C 19.546666666666667 36.26606910630717, 19.538666666666668 36.40606910630717, 19.528 36.536735772973834 C 19.482666666666667 37.03540243964051, 19.353333333333335 37.40073577297384, 19.14 37.63273577297384 C 18.926666666666666 37.86473577297384, 18.581333333333333 37.9954024396405, 18.104 38.024735772973834 L 18.104 37.13273577297384 C 18.21333333333333 37.103402439640504, 18.296 37.05073577297384, 18.352 36.97473577297384 C 18.408 36.898735772973836, 18.44 36.7994024396405, 18.448 36.676735772973835 C 18.471999999999998 36.38606910630717, 18.485999999999997 36.124735772973835, 18.49 35.892735772973836 C 18.494 35.66073577297384, 18.485333333333333 35.4394024396405, 18.464 35.228735772973835 C 18.447999999999997 35.07406910630717, 18.396666666666665 34.95873577297384, 18.31 34.88273577297384 C 18.223333333333333 34.80673577297384, 18.090666666666664 34.768735772973834, 17.912 34.768735772973834 C 17.901333333333334 34.768735772973834, 17.890666666666668 34.77006910630717, 17.88 34.77273577297384 C 17.86933333333333 34.7754024396405, 17.86 34.77806910630717, 17.852 34.780735772973834 Z M 17.852 32.48873577297384 L 17.852 31.556735772973838 L 19.439999999999998 31.556735772973838 L 19.439999999999998 32.48873577297384 Z M 21.944 37.956735772973836 L 21.944 31.556735772973838 L 23.003999999999998 31.556735772973838 L 23.003999999999998 37.956735772973836 Z " stroke="none" fill-rule="nonzero" fill="#000000" fill-opacity="1" transform="matrix(1,0,0,1,5.05,13.314)" id="text45 l" />
  <path d="M 0 31.08098861837908 L 10 31.08098861837908 L 10 32.58098861837908 L 0 32.58098861837908 Z " stroke="none" fill-rule="evenodd" fill="#000000" fill-opacity="1" transform="matrix(1,0,0,1,5.05,13.314)" id="mark46 l" />
  <path d="M 0 23.123241463784325 L 10 23.123241463784325 L 10 24.623241463784325 L 0 24.623241463784325 Z " stroke="none" fill-rule="evenodd" fill="#000000" fill-opacity="1" transform="matrix(1,0,0,1,5.05,13.314)" id="mark47 l" />
  <path d="M 0 15.165494309189569 L 10 15.165494309189569 L 10 16.66549430918957 L 0 16.66549430918957 Z " stroke="none" fill-rule="evenodd" fill="#000000" fill-opacity="1" transform="matrix(1,0,0,1,5.05,13.314)" id="mark48 l" />
  <path d="M 0 7.207747154594813 L 10 7.207747154594813 L 10 8.707747154594813 L 0 8.707747154594813 Z " stroke="none" fill-rule="evenodd" fill="#000000" fill-opacity="1" transform="matrix(1,0,0,1,5.05,13.314)" id="mark49 l" />
  <path d="M 0 -0.75 L 25 -0.75 L 25 0.75 L 0 0.75 Z " stroke="none" fill-rule="evenodd" fill="#000000" fill-opacity="1" transform="matrix(1,0,0,1,5.05,13.314)" id="mark50 l" />
  <path d="M 12.204 -3.2159999999999997 C 12.198666666666668 -3.389333333333333, 12.197333333333333 -3.528666666666667, 12.2 -3.634 C 12.202666666666667 -3.7393333333333336, 12.205333333333336 -3.841333333333333, 12.208 -3.94 L 13.288 -3.94 C 13.280000000000001 -3.8626666666666667, 13.274000000000001 -3.7666666666666666, 13.27 -3.6519999999999997 C 13.265999999999998 -3.5373333333333328, 13.264666666666667 -3.4266666666666667, 13.266 -3.32 C 13.267333333333333 -3.213333333333334, 13.270666666666667 -3.1333333333333337, 13.276 -3.08 C 13.286666666666665 -2.96, 13.321333333333332 -2.862, 13.379999999999999 -2.7859999999999996 C 13.438666666666666 -2.71, 13.521333333333335 -2.6559999999999997, 13.628 -2.6239999999999997 L 13.628 -1.7319999999999998 C 13.134666666666668 -1.7693333333333332, 12.777333333333335 -1.904, 12.556 -2.1359999999999997 C 12.334666666666667 -2.368, 12.217333333333332 -2.7279999999999998, 12.204 -3.2159999999999997 Z M 12.304 -4.552 L 12.304 -8.2 L 13.372 -8.2 L 13.372 -4.552 Z M 13.876 -4.976 L 13.876 -5.731999999999999 C 13.953333333333333 -5.771999999999999, 14.038666666666668 -5.804, 14.132 -5.828 C 14.225333333333333 -5.852, 14.325333333333333 -5.864, 14.432 -5.864 C 14.797333333333334 -5.864, 15.071333333333332 -5.748666666666667, 15.254 -5.518 C 15.436666666666667 -5.287333333333333, 15.538666666666668 -4.973333333333333, 15.56 -4.576 C 15.570666666666668 -4.416, 15.577333333333334 -4.257333333333333, 15.58 -4.1 C 15.582666666666666 -3.9426666666666668, 15.581333333333333 -3.7893333333333334, 15.576 -3.6399999999999997 C 15.570666666666666 -3.490666666666667, 15.562666666666665 -3.3506666666666667, 15.552 -3.2199999999999998 C 15.506666666666668 -2.721333333333333, 15.377333333333333 -2.356, 15.164 -2.1239999999999997 C 14.950666666666667 -1.892, 14.605333333333332 -1.7613333333333332, 14.128 -1.7319999999999998 L 14.128 -2.6239999999999997 C 14.237333333333334 -2.653333333333333, 14.32 -2.7059999999999995, 14.376 -2.782 C 14.432 -2.8579999999999997, 14.464 -2.957333333333333, 14.472 -3.08 C 14.495999999999999 -3.3706666666666667, 14.509999999999998 -3.6319999999999997, 14.514 -3.864 C 14.518 -4.096, 14.509333333333334 -4.317333333333333, 14.488 -4.5280000000000005 C 14.472000000000001 -4.682666666666667, 14.420666666666666 -4.798, 14.334 -4.874 C 14.247333333333334 -4.949999999999999, 14.114666666666666 -4.9879999999999995, 13.936 -4.9879999999999995 C 13.925333333333333 -4.9879999999999995, 13.914666666666665 -4.986666666666666, 13.904 -4.984 C 13.893333333333334 -4.981333333333334, 13.884 -4.978666666666667, 13.876 -4.976 Z M 13.876 -7.268 L 13.876 -8.2 L 15.464 -8.2 L 15.464 -7.268 Z M 16.196 -3.2119999999999997 C 16.188000000000002 -3.641333333333333, 16.182666666666666 -4.058, 16.18 -4.462 C 16.177333333333333 -4.866, 16.177999999999997 -5.261333333333333, 16.182 -5.648 C 16.186 -6.034666666666666, 16.190666666666665 -6.416, 16.196 -6.792 C 16.209333333333333 -7.231999999999999, 16.334000000000003 -7.577333333333334, 16.57 -7.828 C 16.805999999999997 -8.078666666666667, 17.142666666666663 -8.224, 17.58 -8.264 L 17.58 -7.3759999999999994 C 17.382666666666665 -7.32, 17.281333333333333 -7.190666666666667, 17.276 -6.9879999999999995 C 17.262666666666668 -6.617333333333333, 17.253333333333334 -6.269333333333333, 17.248 -5.944 C 17.242666666666665 -5.618666666666666, 17.24 -5.302, 17.24 -4.994 C 17.24 -4.686, 17.242666666666665 -4.371333333333333, 17.248 -4.05 C 17.253333333333334 -3.7286666666666664, 17.262666666666668 -3.3853333333333326, 17.276 -3.0199999999999996 C 17.281333333333333 -2.812, 17.382666666666665 -2.6799999999999997, 17.58 -2.6239999999999997 L 17.58 -1.7359999999999998 C 17.142666666666663 -1.7759999999999998, 16.805999999999997 -1.9219999999999997, 16.57 -2.174 C 16.334000000000003 -2.4259999999999997, 16.209333333333333 -2.772, 16.196 -3.2119999999999997 Z M 18.084 -1.7359999999999998 L 18.084 -2.6279999999999997 C 18.268 -2.681333333333333, 18.366666666666667 -2.8053333333333335, 18.38 -3 C 18.398666666666667 -3.4666666666666663, 18.410666666666668 -3.915333333333333, 18.416 -4.346 C 18.421333333333333 -4.776666666666666, 18.421333333333333 -5.207333333333333, 18.416 -5.638 C 18.410666666666668 -6.068666666666666, 18.398666666666667 -6.521333333333333, 18.38 -6.9959999999999996 C 18.374666666666666 -7.190666666666667, 18.276 -7.317333333333334, 18.084 -7.3759999999999994 L 18.084 -8.264 C 18.513333333333335 -8.224, 18.846666666666668 -8.078666666666667, 19.084 -7.828 C 19.321333333333335 -7.577333333333334, 19.445333333333334 -7.231999999999999, 19.456 -6.792 C 19.46666666666667 -6.477333333333332, 19.474666666666668 -6.167333333333333, 19.48 -5.861999999999999 C 19.485333333333333 -5.556666666666667, 19.488 -5.256, 19.488 -4.96 C 19.488 -4.664, 19.485333333333333 -4.370666666666667, 19.48 -4.08 C 19.474666666666668 -3.7893333333333334, 19.46666666666667 -3.5, 19.456 -3.2119999999999997 C 19.439999999999998 -2.761333333333333, 19.311999999999998 -2.4126666666666665, 19.072 -2.166 C 18.832 -1.9193333333333331, 18.502666666666666 -1.7759999999999998, 18.084 -1.7359999999999998 Z M 21.944 -1.7999999999999998 L 21.944 -8.2 L 23.003999999999998 -8.2 L 23.003999999999998 -1.7999999999999998 Z " stroke="none" fill-rule="nonzero" fill="#000000" fill-opacity="1" transform="matrix(1,0,0,1,5.05,13.314)" id="text50 l" />
  <path d="M -5 -13.264 L 30 -13.264 L 30 396.6976105751436 L -5 396.6976105751436 Z " stroke="#FF0000" stroke-opacity="1" stroke-width="0.1" stroke-linecap="butt" stroke-linejoin="miter" fill="none" transform="matrix(1,0,0,1,5.05,13.314)" />
</svg>