<?xml version="1.0" encoding="UTF-8"?>
<svg xmlns:xlink="http://www.w3.org/1999/xlink" viewBox="0 0 35.1 489.63908212109135" version="1.1" style="font-synthesis: none;" width="35.1mm" height="489.63908212109135mm" xmlns="http://www.w3.org/2000/svg">
  <defs />
  <style>	</style>
  <path d="M 0 0 L 35.1 0 L 35.1 489.63908212109135 L 0 489.63908212109135 Z " stroke="none" fill-rule="nonzero" fill="#FFFFFF" fill-opacity="1" transform="matrix(1,0,0,1,0,0)" />
  <path d="M 0 468.7570821210913 L 10 468.7570821210913 L 10 470.2570821210913 L 0 470.2570821210913 Z " stroke="none" fill-rule="evenodd" fill="#000000" fill-opacity="1" transform="matrix(1,0,0,1,5.05,13.314)" id="mark1 l" />
  <path d="M 0 460.79933496649653 L 10 460.79933496649653 L 10 462.29933496649653 L 0 462.29933496649653 Z " stroke="none" fill-rule="evenodd" fill="#000000" fill-opacity="1" transform="matrix(1,0,0,1,5.05,13.314)" id="mark2 l" />
  <path d="M 0 452.8415878119017 L 10 452.8415878119017 L 10 454.3415878119017 L 0 454.3415878119017 Z " stroke="none" fill-rule="evenodd" fill="#000000" fill-opacity="1" transform="matrix(1,0,0,1,5.05,13.314)" id="mark3 l" />
  <path d="M 0 444.88384065730696 L 10 444.88384065730696 L 10 446.38384065730696 L 0 446.38384065730696 Z " stroke="none" fill-rule="evenodd" fill="#000000" fill-opacity="1" transform="matrix(1,0,0,1,5.05,13.314)" id="mark4 l" />
  <path d="M 0 436.9260935027122 L 25 436.9260935027122 L 25 438.4260935027122 L 0 438.4260935027122 Z " stroke="none" fill-rule="evenodd" fill="#000000" fill-opacity="1" transform="matrix(1,0,0,1,5.05,13.314)" id="mark5 l" />
  <path d="M 16.18 434.4280935027122 C 16.174666666666667 434.25476016937887, 16.173333333333332 434.1154268360456, 16.176 434.0100935027122 C 16.178666666666665 433.90476016937885, 16.181333333333335 433.80276016937887, 16.183999999999997 433.7040935027122 L 17.264 433.7040935027122 C 17.256 433.7814268360455, 17.25 433.8774268360455, 17.246 433.99209350271224 C 17.241999999999997 434.10676016937884, 17.240666666666666 434.21742683604555, 17.241999999999997 434.32409350271223 C 17.243333333333332 434.4307601693789, 17.246666666666666 434.5107601693789, 17.252 434.56409350271224 C 17.262666666666668 434.6840935027122, 17.297333333333334 434.7820935027122, 17.355999999999998 434.8580935027122 C 17.414666666666665 434.93409350271224, 17.497333333333334 434.9880935027122, 17.604 435.0200935027122 L 17.604 435.9120935027122 C 17.110666666666663 435.8747601693789, 16.75333333333333 435.7400935027122, 16.532 435.5080935027122 C 16.310666666666666 435.2760935027122, 16.19333333333333 434.9160935027122, 16.18 434.4280935027122 Z M 16.279999999999998 433.0920935027122 L 16.279999999999998 429.44409350271224 L 17.348 429.44409350271224 L 17.348 433.0920935027122 Z M 17.852 432.6680935027122 L 17.852 431.9120935027122 C 17.929333333333332 431.8720935027122, 18.014666666666667 431.8400935027122, 18.107999999999997 431.8160935027122 C 18.20133333333333 431.7920935027122, 18.301333333333332 431.78009350271213, 18.407999999999998 431.7800935027122 C 18.773333333333333 431.78009350271213, 19.047333333333334 431.89542683604554, 19.23 432.1260935027122 C 19.412666666666667 432.35676016937884, 19.514666666666663 432.67076016937887, 19.535999999999998 433.0680935027122 C 19.546666666666667 433.2280935027122, 19.55333333333333 433.38676016937893, 19.555999999999997 433.5440935027122 C 19.558666666666664 433.7014268360456, 19.557333333333332 433.8547601693789, 19.552 434.00409350271224 C 19.546666666666667 434.1534268360456, 19.538666666666668 434.29342683604557, 19.528 434.4240935027122 C 19.482666666666667 434.9227601693789, 19.353333333333335 435.2880935027122, 19.14 435.5200935027122 C 18.926666666666666 435.7520935027122, 18.581333333333333 435.8827601693789, 18.104 435.9120935027122 L 18.104 435.0200935027122 C 18.21333333333333 434.99076016937886, 18.296 434.93809350271215, 18.352 434.8620935027122 C 18.408 434.7860935027122, 18.44 434.6867601693789, 18.448 434.56409350271224 C 18.471999999999998 434.27342683604553, 18.485999999999997 434.0120935027122, 18.49 433.7800935027122 C 18.494 433.5480935027123, 18.485333333333333 433.3267601693789, 18.464 433.1160935027122 C 18.447999999999997 432.9614268360456, 18.396666666666665 432.8460935027122, 18.31 432.7700935027122 C 18.223333333333333 432.69409350271224, 18.090666666666664 432.6560935027122, 17.912 432.6560935027122 C 17.901333333333334 432.6560935027122, 17.890666666666668 432.6574268360456, 17.88 432.6600935027122 C 17.86933333333333 432.6627601693789, 17.86 432.6654268360455, 17.852 432.6680935027122 Z M 17.852 430.3760935027122 L 17.852 429.44409350271224 L 19.439999999999998 429.44409350271224 L 19.439999999999998 430.3760935027122 Z M 21.944 435.8440935027122 L 21.944 429.44409350271224 L 23.003999999999998 429.44409350271224 L 23.003999999999998 435.8440935027122 Z " stroke="none" fill-rule="nonzero" fill="#000000" fill-opacity="1" transform="matrix(1,0,0,1,5.05,13.314)" id="text5 l" />
  <path d="M 0 428.96834634811745 L 10 428.96834634811745 L 10 430.46834634811745 L 0 430.46834634811745 Z " stroke="none" fill-rule="evenodd" fill="#000000" fill-opacity="1" transform="matrix(1,0,0,1,5.05,13.314)" id="mark6 l" />
  <path d="M 0 421.0105991935227 L 10 421.0105991935227 L 10 422.5105991935227 L 0 422.5105991935227 Z " stroke="none" fill-rule="evenodd" fill="#000000" fill-opacity="1" transform="matrix(1,0,0,1,5.05,13.314)" id="mark7 l" />
  <path d="M 0 413.0528520389279 L 10 413.0528520389279 L 10 414.5528520389279 L 0 414.5528520389279 Z " stroke="none" fill-rule="evenodd" fill="#000000" fill-opacity="1" transform="matrix(1,0,0,1,5.05,13.314)" id="mark8 l" />
  <path d="M 0 405.0951048843331 L 10 405.0951048843331 L 10 406.5951048843331 L 0 406.5951048843331 Z " stroke="none" fill-rule="evenodd" fill="#000000" fill-opacity="1" transform="matrix(1,0,0,1,5.05,13.314)" id="mark9 l" />
  <path d="M 0 397.13735772973837 L 25 397.13735772973837 L 25 398.63735772973837 L 0 398.63735772973837 Z " stroke="none" fill-rule="evenodd" fill="#000000" fill-opacity="1" transform="matrix(1,0,0,1,5.05,13.314)" id="mark10 l" />
  <path d="M 14.323999999999998 396.08735772973836 L 14.323999999999998 390.64335772973834 L 13.871999999999998 390.64335772973834 L 13.839999999999998 390.26335772973835 L 14.543999999999999 389.6873577297384 L 15.424 389.6873577297384 L 15.424 396.08735772973836 Z M 16.196 394.6753577297384 C 16.188000000000002 394.246024396405, 16.182666666666666 393.8293577297384, 16.18 393.4253577297384 C 16.177333333333333 393.0213577297384, 16.177999999999997 392.626024396405, 16.182 392.23935772973834 C 16.186 391.8526910630717, 16.190666666666665 391.4713577297384, 16.196 391.09535772973834 C 16.209333333333333 390.65535772973834, 16.334000000000003 390.31002439640497, 16.57 390.05935772973834 C 16.805999999999997 389.8086910630717, 17.142666666666663 389.6633577297383, 17.58 389.62335772973836 L 17.58 390.51135772973834 C 17.382666666666665 390.5673577297383, 17.281333333333333 390.69669106307174, 17.276 390.89935772973837 C 17.262666666666668 391.270024396405, 17.253333333333334 391.618024396405, 17.248 391.94335772973835 C 17.242666666666665 392.2686910630717, 17.24 392.58535772973835, 17.24 392.89335772973834 C 17.24 393.20135772973833, 17.242666666666665 393.516024396405, 17.248 393.83735772973836 C 17.253333333333334 394.15869106307173, 17.262666666666668 394.502024396405, 17.276 394.86735772973833 C 17.281333333333333 395.07535772973836, 17.382666666666665 395.2073577297383, 17.58 395.26335772973835 L 17.58 396.1513577297384 C 17.142666666666663 396.11135772973836, 16.805999999999997 395.96535772973834, 16.57 395.71335772973833 C 16.334000000000003 395.4613577297383, 16.209333333333333 395.1153577297383, 16.196 394.6753577297384 Z M 18.084 396.1513577297384 L 18.084 395.2593577297384 C 18.268 395.20602439640504, 18.366666666666667 395.082024396405, 18.38 394.88735772973837 C 18.398666666666667 394.42069106307173, 18.410666666666668 393.97202439640506, 18.416 393.54135772973837 C 18.421333333333333 393.11069106307167, 18.421333333333333 392.680024396405, 18.416 392.24935772973834 C 18.410666666666668 391.8186910630717, 18.398666666666667 391.366024396405, 18.38 390.89135772973833 C 18.374666666666666 390.6966910630716, 18.276 390.57002439640496, 18.084 390.51135772973834 L 18.084 389.62335772973836 C 18.513333333333335 389.6633577297383, 18.846666666666668 389.8086910630717, 19.084 390.05935772973834 C 19.321333333333335 390.31002439640497, 19.445333333333334 390.65535772973834, 19.456 391.09535772973834 C 19.46666666666667 391.41002439640505, 19.474666666666668 391.72002439640505, 19.48 392.02535772973835 C 19.485333333333333 392.3306910630717, 19.488 392.6313577297384, 19.488 392.92735772973833 C 19.488 393.2233577297384, 19.485333333333333 393.5166910630717, 19.48 393.8073577297384 C 19.474666666666668 394.0980243964051, 19.46666666666667 394.38735772973837, 19.456 394.6753577297384 C 19.439999999999998 395.126024396405, 19.311999999999998 395.47469106307165, 19.072 395.7213577297384 C 18.832 395.968024396405, 18.502666666666666 396.11135772973836, 18.084 396.1513577297384 Z M 21.944 396.08735772973836 L 21.944 389.6873577297384 L 23.003999999999998 389.6873577297384 L 23.003999999999998 396.08735772973836 Z " stroke="none" fill-rule="nonzero" fill="#000000" fill-opacity="1" transform="matrix(1,0,0,1,5.05,13.314)" id="text10 l" />
  <path d="M 0 389.1796105751436 L 10 389.1796105751436 L 10 390.6796105751436 L 0 390.6796105751436 Z " stroke="none" fill-rule="evenodd" fill="#000000" fill-opacity="1" transform="matrix(1,0,0,1,5.05,13.314)" id="mark11 l" />
  <path d="M 0 381.22186342054886 L 10 381.22186342054886 L 10 382.72186342054886 L 0 382.72186342054886 Z " stroke="none" fill-rule="evenodd" fill="#000000" fill-opacity="1" transform="matrix(1,0,0,1,5.05,13.314)" id="mark12 l" />
  <path d="M 0 373.26411626595404 L 10 373.26411626595404 L 10 374.76411626595404 L 0 374.76411626595404 Z " stroke="none" fill-rule="evenodd" fill="#000000" fill-opacity="1" transform="matrix(1,0,0,1,5.05,13.314)" id="mark13 l" />
  <path d="M 0 365.3063691113593 L 10 365.3063691113593 L 10 366.8063691113593 L 0 366.8063691113593 Z " stroke="none" fill-rule="evenodd" fill="#000000" fill-opacity="1" transform="matrix(1,0,0,1,5.05,13.314)" id="mark14 l" />
  <path d="M 0 357.34862195676453 L 25 357.34862195676453 L 25 358.84862195676453 L 0 358.84862195676453 Z " stroke="none" fill-rule="evenodd" fill="#000000" fill-opacity="1" transform="matrix(1,0,0,1,5.05,13.314)" id="mark15 l" />
  <path d="M 14.331999999999999 356.26662195676454 L 14.331999999999999 350.8226219567645 L 13.879999999999999 350.8226219567645 L 13.847999999999999 350.4426219567645 L 14.552 349.86662195676456 L 15.432 349.86662195676456 L 15.432 356.26662195676454 Z M 16.18 354.85062195676454 C 16.174666666666667 354.6772886234312, 16.173333333333332 354.5379552900979, 16.176 354.43262195676454 C 16.178666666666665 354.3272886234312, 16.181333333333335 354.2252886234312, 16.183999999999997 354.12662195676455 L 17.264 354.12662195676455 C 17.256 354.2039552900979, 17.25 354.2999552900979, 17.246 354.41462195676456 C 17.241999999999997 354.5292886234312, 17.240666666666666 354.6399552900979, 17.241999999999997 354.74662195676456 C 17.243333333333332 354.8532886234312, 17.246666666666666 354.93328862343117, 17.252 354.98662195676457 C 17.262666666666668 355.10662195676457, 17.297333333333334 355.2046219567645, 17.355999999999998 355.28062195676455 C 17.414666666666665 355.3566219567645, 17.497333333333334 355.41062195676454, 17.604 355.4426219567645 L 17.604 356.3346219567645 C 17.110666666666663 356.2972886234312, 16.75333333333333 356.1626219567645, 16.532 355.9306219567645 C 16.310666666666666 355.69862195676455, 16.19333333333333 355.33862195676454, 16.18 354.85062195676454 Z M 16.279999999999998 353.51462195676453 L 16.279999999999998 349.86662195676456 L 17.348 349.86662195676456 L 17.348 353.51462195676453 Z M 17.852 353.09062195676455 L 17.852 352.3346219567645 C 17.929333333333332 352.29462195676456, 18.014666666666667 352.2626219567645, 18.107999999999997 352.2386219567645 C 18.20133333333333 352.2146219567645, 18.301333333333332 352.2026219567645, 18.407999999999998 352.2026219567645 C 18.773333333333333 352.2026219567645, 19.047333333333334 352.31795529009787, 19.23 352.5486219567645 C 19.412666666666667 352.77928862343117, 19.514666666666663 353.0932886234312, 19.535999999999998 353.4906219567645 C 19.546666666666667 353.65062195676455, 19.55333333333333 353.8092886234312, 19.555999999999997 353.9666219567645 C 19.558666666666664 354.12395529009785, 19.557333333333332 354.2772886234312, 19.552 354.42662195676456 C 19.546666666666667 354.5759552900979, 19.538666666666668 354.7159552900979, 19.528 354.8466219567645 C 19.482666666666667 355.3452886234312, 19.353333333333335 355.7106219567645, 19.14 355.9426219567645 C 18.926666666666666 356.17462195676455, 18.581333333333333 356.3052886234312, 18.104 356.3346219567645 L 18.104 355.4426219567645 C 18.21333333333333 355.4132886234312, 18.296 355.36062195676453, 18.352 355.2846219567645 C 18.408 355.20862195676455, 18.44 355.1092886234312, 18.448 354.98662195676457 C 18.471999999999998 354.6959552900979, 18.485999999999997 354.43462195676454, 18.49 354.2026219567645 C 18.494 353.97062195676455, 18.485333333333333 353.7492886234312, 18.464 353.53862195676453 C 18.447999999999997 353.3839552900979, 18.396666666666665 353.26862195676455, 18.31 353.1926219567645 C 18.223333333333333 353.11662195676456, 18.090666666666664 353.07862195676455, 17.912 353.07862195676455 C 17.901333333333334 353.07862195676455, 17.890666666666668 353.07995529009787, 17.88 353.0826219567645 C 17.86933333333333 353.0852886234312, 17.86 353.08795529009785, 17.852 353.09062195676455 Z M 17.852 350.7986219567645 L 17.852 349.86662195676456 L 19.439999999999998 349.86662195676456 L 19.439999999999998 350.7986219567645 Z M 21.944 356.26662195676454 L 21.944 349.86662195676456 L 23.003999999999998 349.86662195676456 L 23.003999999999998 356.26662195676454 Z " stroke="none" fill-rule="nonzero" fill="#000000" fill-opacity="1" transform="matrix(1,0,0,1,5.05,13.314)" id="text15 l" />
  <path d="M 0 349.3908748021698 L 10 349.3908748021698 L 10 350.8908748021698 L 0 350.8908748021698 Z " stroke="none" fill-rule="evenodd" fill="#000000" fill-opacity="1" transform="matrix(1,0,0,1,5.05,13.314)" id="mark16 l" />
  <path d="M 0 341.433127647575 L 10 341.433127647575 L 10 342.933127647575 L 0 342.933127647575 Z " stroke="none" fill-rule="evenodd" fill="#000000" fill-opacity="1" transform="matrix(1,0,0,1,5.05,13.314)" id="mark17 l" />
  <path d="M 0 333.4753804929802 L 10 333.4753804929802 L 10 334.9753804929802 L 0 334.9753804929802 Z " stroke="none" fill-rule="evenodd" fill="#000000" fill-opacity="1" transform="matrix(1,0,0,1,5.05,13.314)" id="mark18 l" />
  <path d="M 0 325.5176333383855 L 10 325.5176333383855 L 10 327.0176333383855 L 0 327.0176333383855 Z " stroke="none" fill-rule="evenodd" fill="#000000" fill-opacity="1" transform="matrix(1,0,0,1,5.05,13.314)" id="mark19 l" />
  <path d="M 0 317.5598861837907 L 25 317.5598861837907 L 25 319.0598861837907 L 0 319.0598861837907 Z " stroke="none" fill-rule="evenodd" fill="#000000" fill-opacity="1" transform="matrix(1,0,0,1,5.05,13.314)" id="mark20 l" />
  <path d="M 12.319999999999999 316.5098861837907 C 12.317333333333334 316.411219517124, 12.315333333333331 316.3225528504573, 12.313999999999998 316.24388618379066 C 12.312666666666665 316.165219517124, 12.311333333333334 316.091219517124, 12.309999999999999 316.0218861837907 C 12.308666666666667 315.9525528504574, 12.308 315.8805528504574, 12.308 315.8058861837907 C 12.308 315.73121951712403, 12.308 315.64655285045734, 12.308 315.55188618379066 C 12.308 315.457219517124, 12.309333333333335 315.34588618379064, 12.312 315.2178861837907 C 12.32 314.9245528504573, 12.37 314.66255285045736, 12.462 314.4318861837907 C 12.554 314.20121951712406, 12.687999999999999 313.99521951712404, 12.863999999999999 313.81388618379066 C 13.04 313.63255285045733, 13.257333333333333 313.471219517124, 13.515999999999998 313.3298861837907 L 14.047999999999998 313.04188618379067 C 14.234666666666666 312.9405528504573, 14.354 312.81855285045737, 14.405999999999999 312.6758861837907 C 14.457999999999998 312.533219517124, 14.488 312.39921951712404, 14.495999999999999 312.2738861837907 C 14.506666666666664 312.127219517124, 14.512666666666664 311.97055285045735, 14.514 311.80388618379067 C 14.51533333333333 311.637219517124, 14.511999999999997 311.48055285045734, 14.504 311.3338861837907 C 14.498666666666665 311.22988618379065, 14.468666666666666 311.14388618379064, 14.413999999999998 311.07588618379066 C 14.359333333333332 311.0078861837907, 14.279999999999998 310.95921951712404, 14.175999999999998 310.9298861837907 L 14.175999999999998 310.04188618379067 C 14.663999999999998 310.07388618379065, 15.014 310.205219517124, 15.225999999999999 310.43588618379067 C 15.437999999999999 310.6665528504573, 15.554666666666666 311.02721951712397, 15.575999999999999 311.51788618379067 C 15.578666666666663 311.58188618379063, 15.580666666666666 311.647219517124, 15.581999999999999 311.7138861837907 C 15.583333333333332 311.7805528504573, 15.584 311.845219517124, 15.584 311.9078861837907 C 15.584 311.97055285045735, 15.583333333333332 312.03255285045736, 15.581999999999999 312.0938861837907 C 15.580666666666666 312.155219517124, 15.578666666666663 312.215219517124, 15.575999999999999 312.2738861837907 C 15.565333333333331 312.559219517124, 15.512 312.8058861837907, 15.415999999999999 313.0138861837907 C 15.32 313.2218861837907, 15.19 313.4018861837907, 15.026 313.55388618379067 C 14.862 313.70588618379065, 14.672 313.8418861837907, 14.456 313.9618861837907 L 13.851999999999999 314.28988618379066 C 13.737333333333332 314.35121951712404, 13.647333333333332 314.43521951712404, 13.581999999999999 314.54188618379067 C 13.516666666666666 314.64855285045735, 13.469999999999999 314.7618861837907, 13.441999999999998 314.8818861837907 C 13.413999999999998 315.0018861837907, 13.399999999999999 315.11388618379067, 13.399999999999999 315.2178861837907 L 13.399999999999999 316.5098861837907 Z M 12.328 312.46988618379066 C 12.322666666666667 312.35255285045736, 12.318666666666665 312.2378861837907, 12.315999999999999 312.12588618379067 C 12.313333333333333 312.01388618379065, 12.311333333333334 311.90788618379065, 12.309999999999999 311.8078861837907 C 12.308666666666667 311.7078861837907, 12.309333333333335 311.611219517124, 12.312 311.51788618379067 C 12.330666666666666 311.0298861837907, 12.447333333333333 310.6705528504574, 12.661999999999999 310.4398861837907 C 12.876666666666665 310.209219517124, 13.213333333333331 310.07655285045735, 13.671999999999999 310.04188618379067 L 13.671999999999999 310.93388618379066 C 13.576 310.963219517124, 13.505333333333333 311.0098861837907, 13.459999999999999 311.0738861837907 C 13.414666666666665 311.1378861837907, 13.390666666666664 311.215219517124, 13.387999999999998 311.3058861837907 C 13.382666666666665 311.5138861837907, 13.379333333333333 311.70721951712403, 13.378 311.88588618379066 C 13.376666666666667 312.06455285045735, 13.381333333333334 312.259219517124, 13.392 312.46988618379066 Z M 13.904 316.5098861837907 L 13.904 315.57788618379067 L 15.5 315.57788618379067 L 15.5 316.5098861837907 Z M 16.196 315.0978861837907 C 16.188000000000002 314.6685528504574, 16.182666666666666 314.2518861837907, 16.18 313.8478861837907 C 16.177333333333333 313.4438861837907, 16.177999999999997 313.0485528504574, 16.182 312.66188618379067 C 16.186 312.275219517124, 16.190666666666665 311.89388618379064, 16.196 311.51788618379067 C 16.209333333333333 311.0778861837907, 16.334000000000003 310.73255285045735, 16.57 310.48188618379066 C 16.805999999999997 310.23121951712403, 17.142666666666663 310.0858861837907, 17.58 310.0458861837907 L 17.58 310.93388618379066 C 17.382666666666665 310.98988618379065, 17.281333333333333 311.119219517124, 17.276 311.3218861837907 C 17.262666666666668 311.69255285045733, 17.253333333333334 312.04055285045735, 17.248 312.3658861837907 C 17.242666666666665 312.691219517124, 17.24 313.0078861837907, 17.24 313.31588618379067 C 17.24 313.62388618379066, 17.242666666666665 313.9385528504573, 17.248 314.2598861837907 C 17.253333333333334 314.58121951712405, 17.262666666666668 314.92455285045736, 17.276 315.28988618379066 C 17.281333333333333 315.4978861837907, 17.382666666666665 315.6298861837907, 17.58 315.68588618379067 L 17.58 316.5738861837907 C 17.142666666666663 316.53388618379074, 16.805999999999997 316.38788618379067, 16.57 316.13588618379066 C 16.334000000000003 315.88388618379065, 16.209333333333333 315.5378861837907, 16.196 315.0978861837907 Z M 18.084 316.5738861837907 L 18.084 315.6818861837907 C 18.268 315.62855285045737, 18.366666666666667 315.50455285045734, 18.38 315.3098861837907 C 18.398666666666667 314.843219517124, 18.410666666666668 314.39455285045733, 18.416 313.9638861837907 C 18.421333333333333 313.53321951712405, 18.421333333333333 313.10255285045736, 18.416 312.67188618379066 C 18.410666666666668 312.241219517124, 18.398666666666667 311.78855285045734, 18.38 311.31388618379066 C 18.374666666666666 311.119219517124, 18.276 310.99255285045734, 18.084 310.93388618379066 L 18.084 310.0458861837907 C 18.513333333333335 310.0858861837907, 18.846666666666668 310.23121951712403, 19.084 310.48188618379066 C 19.321333333333335 310.73255285045735, 19.445333333333334 311.0778861837907, 19.456 311.51788618379067 C 19.46666666666667 311.8325528504573, 19.474666666666668 312.1425528504574, 19.48 312.4478861837907 C 19.485333333333333 312.753219517124, 19.488 313.05388618379067, 19.488 313.34988618379066 C 19.488 313.64588618379065, 19.485333333333333 313.939219517124, 19.48 314.2298861837907 C 19.474666666666668 314.52055285045736, 19.46666666666667 314.8098861837907, 19.456 315.0978861837907 C 19.439999999999998 315.5485528504574, 19.311999999999998 315.89721951712403, 19.072 316.1438861837907 C 18.832 316.39055285045737, 18.502666666666666 316.53388618379074, 18.084 316.5738861837907 Z M 21.944 316.5098861837907 L 21.944 310.1098861837907 L 23.003999999999998 310.1098861837907 L 23.003999999999998 316.5098861837907 Z " stroke="none" fill-rule="nonzero" fill="#000000" fill-opacity="1" transform="matrix(1,0,0,1,5.05,13.314)" id="text20 l" />
  <path d="M 0 309.60213902919594 L 10 309.60213902919594 L 10 311.10213902919594 L 0 311.10213902919594 Z " stroke="none" fill-rule="evenodd" fill="#000000" fill-opacity="1" transform="matrix(1,0,0,1,5.05,13.314)" id="mark21 l" />
  <path d="M 0 301.6443918746012 L 10 301.6443918746012 L 10 303.1443918746012 L 0 303.1443918746012 Z " stroke="none" fill-rule="evenodd" fill="#000000" fill-opacity="1" transform="matrix(1,0,0,1,5.05,13.314)" id="mark22 l" />
  <path d="M 0 293.68664472000637 L 10 293.68664472000637 L 10 295.18664472000637 L 0 295.18664472000637 Z " stroke="none" fill-rule="evenodd" fill="#000000" fill-opacity="1" transform="matrix(1,0,0,1,5.05,13.314)" id="mark23 l" />
  <path d="M 0 285.72889756541167 L 10 285.72889756541167 L 10 287.22889756541167 L 0 287.22889756541167 Z " stroke="none" fill-rule="evenodd" fill="#000000" fill-opacity="1" transform="matrix(1,0,0,1,5.05,13.314)" id="mark24 l" />
  <path d="M 0 277.77115041081686 L 25 277.77115041081686 L 25 279.27115041081686 L 0 279.27115041081686 Z " stroke="none" fill-rule="evenodd" fill="#000000" fill-opacity="1" transform="matrix(1,0,0,1,5.05,13.314)" id="mark25 l" />
  <path d="M 12.328 276.72115041081685 C 12.325333333333333 276.62248374415014, 12.323333333333332 276.5338170774835, 12.322 276.4551504108168 C 12.320666666666666 276.37648374415016, 12.319333333333333 276.30248374415015, 12.318 276.23315041081685 C 12.316666666666666 276.16381707748354, 12.315999999999999 276.09181707748354, 12.316 276.01715041081684 C 12.315999999999999 275.9424837441502, 12.315999999999999 275.8578170774835, 12.316 275.7631504108168 C 12.315999999999999 275.66848374415014, 12.317333333333334 275.5571504108168, 12.32 275.4291504108169 C 12.328 275.13581707748347, 12.378 274.8738170774835, 12.47 274.6431504108169 C 12.562000000000001 274.4124837441502, 12.696 274.2064837441502, 12.872 274.0251504108168 C 13.048 273.8438170774835, 13.265333333333334 273.68248374415015, 13.524000000000001 273.54115041081684 L 14.056000000000001 273.25315041081683 C 14.242666666666668 273.1518170774835, 14.362000000000002 273.02981707748353, 14.414 272.88715041081684 C 14.466000000000001 272.74448374415016, 14.495999999999999 272.6104837441502, 14.504 272.48515041081686 C 14.514666666666667 272.33848374415015, 14.520666666666667 272.1818170774835, 14.522 272.01515041081683 C 14.523333333333333 271.84848374415014, 14.520000000000001 271.6918170774835, 14.512 271.54515041081686 C 14.506666666666666 271.4411504108168, 14.476666666666667 271.3551504108168, 14.422 271.2871504108168 C 14.367333333333335 271.21915041081684, 14.288 271.1704837441502, 14.184000000000001 271.14115041081686 L 14.184000000000001 270.25315041081683 C 14.672 270.2851504108168, 15.022000000000002 270.4164837441502, 15.234 270.64715041081683 C 15.446000000000002 270.8778170774835, 15.562666666666667 271.23848374415013, 15.584 271.7291504108168 C 15.586666666666668 271.7931504108168, 15.588666666666668 271.85848374415013, 15.59 271.92515041081685 C 15.591333333333335 271.99181707748346, 15.592000000000002 272.05648374415017, 15.592 272.11915041081687 C 15.592000000000002 272.1818170774835, 15.591333333333335 272.2438170774835, 15.59 272.30515041081685 C 15.588666666666668 272.3664837441502, 15.586666666666668 272.4264837441502, 15.584 272.48515041081686 C 15.573333333333332 272.77048374415017, 15.52 273.01715041081684, 15.424 273.22515041081687 C 15.328 273.43315041081684, 15.197999999999999 273.61315041081684, 15.033999999999999 273.76515041081683 C 14.87 273.9171504108168, 14.68 274.05315041081684, 14.464 274.17315041081685 L 13.86 274.5011504108168 C 13.745333333333335 274.5624837441502, 13.655333333333335 274.6464837441502, 13.59 274.75315041081683 C 13.524666666666668 274.8598170774835, 13.478000000000002 274.97315041081686, 13.45 275.09315041081686 C 13.422 275.21315041081687, 13.408 275.32515041081683, 13.408 275.4291504108169 L 13.408 276.72115041081685 Z M 12.336 272.6811504108168 C 12.330666666666666 272.5638170774835, 12.326666666666664 272.44915041081686, 12.324 272.33715041081683 C 12.321333333333332 272.2251504108168, 12.319333333333333 272.1191504108168, 12.318 272.01915041081685 C 12.316666666666666 271.9191504108169, 12.317333333333334 271.8224837441502, 12.32 271.7291504108168 C 12.338666666666668 271.2411504108169, 12.455333333333336 270.88181707748356, 12.67 270.65115041081685 C 12.884666666666668 270.42048374415015, 13.221333333333334 270.2878170774835, 13.68 270.25315041081683 L 13.68 271.1451504108168 C 13.584 271.17448374415017, 13.513333333333332 271.22115041081685, 13.468 271.28515041081687 C 13.422666666666668 271.3491504108169, 13.398666666666667 271.4264837441502, 13.396 271.51715041081684 C 13.390666666666666 271.72515041081687, 13.387333333333332 271.9184837441502, 13.386 272.0971504108168 C 13.384666666666666 272.2758170774835, 13.389333333333333 272.47048374415016, 13.4 272.6811504108168 Z M 13.911999999999999 276.72115041081685 L 13.911999999999999 275.78915041081683 L 15.508 275.78915041081683 L 15.508 276.72115041081685 Z M 16.18 275.30515041081685 C 16.174666666666667 275.13181707748356, 16.173333333333332 274.9924837441502, 16.176 274.88715041081684 C 16.178666666666665 274.7818170774835, 16.181333333333335 274.6798170774835, 16.183999999999997 274.58115041081686 L 17.264 274.58115041081686 C 17.256 274.6584837441502, 17.25 274.7544837441502, 17.246 274.86915041081687 C 17.241999999999997 274.98381707748354, 17.240666666666666 275.0944837441502, 17.241999999999997 275.20115041081687 C 17.243333333333332 275.3078170774835, 17.246666666666666 275.38781707748353, 17.252 275.4411504108169 C 17.262666666666668 275.5611504108168, 17.297333333333334 275.65915041081684, 17.355999999999998 275.73515041081686 C 17.414666666666665 275.8111504108168, 17.497333333333334 275.86515041081685, 17.604 275.89715041081683 L 17.604 276.78915041081683 C 17.110666666666663 276.7518170774835, 16.75333333333333 276.61715041081686, 16.532 276.38515041081683 C 16.310666666666666 276.1531504108168, 16.19333333333333 275.7931504108168, 16.18 275.30515041081685 Z M 16.279999999999998 273.96915041081684 L 16.279999999999998 270.32115041081687 L 17.348 270.32115041081687 L 17.348 273.96915041081684 Z M 17.852 273.54515041081686 L 17.852 272.78915041081683 C 17.929333333333332 272.7491504108168, 18.014666666666667 272.7171504108168, 18.107999999999997 272.6931504108168 C 18.20133333333333 272.6691504108168, 18.301333333333332 272.6571504108168, 18.407999999999998 272.6571504108168 C 18.773333333333333 272.6571504108168, 19.047333333333334 272.7724837441501, 19.23 273.00315041081683 C 19.412666666666667 273.23381707748354, 19.514666666666663 273.5478170774835, 19.535999999999998 273.94515041081684 C 19.546666666666667 274.10515041081686, 19.55333333333333 274.2638170774835, 19.555999999999997 274.42115041081684 C 19.558666666666664 274.57848374415016, 19.557333333333332 274.7318170774835, 19.552 274.8811504108169 C 19.546666666666667 275.0304837441502, 19.538666666666668 275.1704837441502, 19.528 275.30115041081683 C 19.482666666666667 275.7998170774835, 19.353333333333335 276.1651504108168, 19.14 276.39715041081683 C 18.926666666666666 276.62915041081686, 18.581333333333333 276.7598170774835, 18.104 276.78915041081683 L 18.104 275.89715041081683 C 18.21333333333333 275.8678170774835, 18.296 275.81515041081684, 18.352 275.7391504108168 C 18.408 275.66315041081685, 18.44 275.5638170774835, 18.448 275.4411504108169 C 18.471999999999998 275.15048374415016, 18.485999999999997 274.8891504108168, 18.49 274.6571504108168 C 18.494 274.42515041081685, 18.485333333333333 274.2038170774835, 18.464 273.99315041081684 C 18.447999999999997 273.8384837441502, 18.396666666666665 273.72315041081686, 18.31 273.64715041081683 C 18.223333333333333 273.57115041081687, 18.090666666666664 273.53315041081686, 17.912 273.53315041081686 C 17.901333333333334 273.53315041081686, 17.890666666666668 273.5344837441502, 17.88 273.5371504108168 C 17.86933333333333 273.53981707748346, 17.86 273.54248374415016, 17.852 273.54515041081686 Z M 17.852 271.25315041081683 L 17.852 270.32115041081687 L 19.439999999999998 270.32115041081687 L 19.439999999999998 271.25315041081683 Z M 21.944 276.72115041081685 L 21.944 270.32115041081687 L 23.003999999999998 270.32115041081687 L 23.003999999999998 276.72115041081685 Z " stroke="none" fill-rule="nonzero" fill="#000000" fill-opacity="1" transform="matrix(1,0,0,1,5.05,13.314)" id="text25 l" />
  <path d="M 0 269.8134032562221 L 10 269.8134032562221 L 10 271.3134032562221 L 0 271.3134032562221 Z " stroke="none" fill-rule="evenodd" fill="#000000" fill-opacity="1" transform="matrix(1,0,0,1,5.05,13.314)" id="mark26 l" />
  <path d="M 0 261.85565610162735 L 10 261.85565610162735 L 10 263.35565610162735 L 0 263.35565610162735 Z " stroke="none" fill-rule="evenodd" fill="#000000" fill-opacity="1" transform="matrix(1,0,0,1,5.05,13.314)" id="mark27 l" />
  <path d="M 0 253.89790894703256 L 10 253.89790894703256 L 10 255.39790894703256 L 0 255.39790894703256 Z " stroke="none" fill-rule="evenodd" fill="#000000" fill-opacity="1" transform="matrix(1,0,0,1,5.05,13.314)" id="mark28 l" />
  <path d="M 0 245.9401617924378 L 10 245.9401617924378 L 10 247.4401617924378 L 0 247.4401617924378 Z " stroke="none" fill-rule="evenodd" fill="#000000" fill-opacity="1" transform="matrix(1,0,0,1,5.05,13.314)" id="mark29 l" />
  <path d="M 0 237.98241463784302 L 25 237.98241463784302 L 25 239.48241463784302 L 0 239.48241463784302 Z " stroke="none" fill-rule="evenodd" fill="#000000" fill-opacity="1" transform="matrix(1,0,0,1,5.05,13.314)" id="mark30 l" />
  <path d="M 12.223999999999998 235.51641463784304 C 12.221333333333334 235.41508130450973, 12.219333333333333 235.33108130450972, 12.218 235.26441463784303 C 12.216666666666667 235.1977479711764, 12.216666666666667 235.12974797117639, 12.218 235.06041463784305 C 12.219333333333333 234.99108130450972, 12.221333333333334 234.9017479711764, 12.223999999999998 234.79241463784305 L 13.303999999999998 234.79241463784305 L 13.303999999999998 235.65641463784303 C 13.303999999999998 235.89374797117637, 13.417333333333332 236.04441463784303, 13.643999999999998 236.10841463784303 L 13.643999999999998 237.00041463784305 C 13.155999999999999 236.96308130450973, 12.800666666666665 236.82841463784303, 12.578 236.59641463784303 C 12.355333333333334 236.36441463784303, 12.237333333333332 236.00441463784307, 12.223999999999998 235.51641463784304 Z M 12.292 231.46441463784305 L 12.292 230.53241463784303 L 15.536 230.53241463784303 L 15.536 231.46441463784305 Z M 14.143999999999998 236.11241463784305 C 14.367999999999999 236.05641463784303, 14.483999999999998 235.90574797117637, 14.491999999999999 235.66041463784305 C 14.497333333333334 235.4577479711764, 14.500666666666666 235.27508130450968, 14.501999999999999 235.11241463784305 C 14.503333333333332 234.94974797117635, 14.498666666666665 234.79241463784302, 14.488 234.64041463784304 C 14.48 234.4830813045097, 14.431999999999999 234.34974797117638, 14.344 234.24041463784303 C 14.256 234.1310813045097, 14.089333333333332 234.0790813045097, 13.844 234.08441463784303 L 13.096 234.09241463784304 L 13.068 233.20041463784304 L 14.027999999999999 231.81641463784302 L 15.216 231.81641463784302 L 14.248 233.16841463784303 L 14.28 233.16841463784303 C 14.712 233.16841463784306, 15.028666666666666 233.2910813045097, 15.229999999999999 233.53641463784305 C 15.431333333333333 233.7817479711764, 15.544 234.1590813045097, 15.568 234.66841463784303 C 15.57333333333333 234.74041463784306, 15.576666666666664 234.81241463784306, 15.578 234.88441463784304 C 15.57933333333333 234.95641463784307, 15.579999999999998 235.0270813045097, 15.579999999999998 235.09641463784303 C 15.579999999999998 235.16574797117636, 15.57933333333333 235.23508130450972, 15.578 235.30441463784302 C 15.576666666666664 235.37374797117639, 15.57333333333333 235.44441463784307, 15.568 235.51641463784304 C 15.549333333333333 236.01241463784305, 15.428666666666665 236.37708130450972, 15.206 236.61041463784304 C 14.983333333333334 236.84374797117636, 14.630666666666666 236.97374797117635, 14.148 237.00041463784305 Z M 16.196 235.52041463784303 C 16.188000000000002 235.09108130450971, 16.182666666666666 234.67441463784303, 16.18 234.27041463784303 C 16.177333333333333 233.86641463784304, 16.177999999999997 233.4710813045097, 16.182 233.08441463784303 C 16.186 232.69774797117637, 16.190666666666665 232.31641463784302, 16.196 231.94041463784305 C 16.209333333333333 231.50041463784305, 16.334000000000003 231.1550813045097, 16.57 230.90441463784305 C 16.805999999999997 230.6537479711764, 17.142666666666663 230.50841463784303, 17.58 230.46841463784304 L 17.58 231.35641463784305 C 17.382666666666665 231.41241463784306, 17.281333333333333 231.5417479711764, 17.276 231.74441463784305 C 17.262666666666668 232.11508130450972, 17.253333333333334 232.46308130450973, 17.248 232.78841463784303 C 17.242666666666665 233.1137479711764, 17.24 233.43041463784306, 17.24 233.73841463784305 C 17.24 234.04641463784304, 17.242666666666665 234.3610813045097, 17.248 234.68241463784304 C 17.253333333333334 235.00374797117638, 17.262666666666668 235.34708130450971, 17.276 235.71241463784304 C 17.281333333333333 235.92041463784304, 17.382666666666665 236.05241463784301, 17.58 236.10841463784303 L 17.58 236.99641463784303 C 17.142666666666663 236.95641463784304, 16.805999999999997 236.81041463784305, 16.57 236.55841463784304 C 16.334000000000003 236.30641463784303, 16.209333333333333 235.96041463784303, 16.196 235.52041463784303 Z M 18.084 236.99641463784303 L 18.084 236.10441463784304 C 18.268 236.0510813045097, 18.366666666666667 235.92708130450973, 18.38 235.73241463784305 C 18.398666666666667 235.26574797117638, 18.410666666666668 234.8170813045097, 18.416 234.38641463784305 C 18.421333333333333 233.95574797117638, 18.421333333333333 233.52508130450968, 18.416 233.09441463784304 C 18.410666666666668 232.66374797117635, 18.398666666666667 232.2110813045097, 18.38 231.73641463784304 C 18.374666666666666 231.54174797117636, 18.276 231.4150813045097, 18.084 231.35641463784305 L 18.084 230.46841463784304 C 18.513333333333335 230.50841463784303, 18.846666666666668 230.6537479711764, 19.084 230.90441463784305 C 19.321333333333335 231.1550813045097, 19.445333333333334 231.50041463784305, 19.456 231.94041463784305 C 19.46666666666667 232.2550813045097, 19.474666666666668 232.5650813045097, 19.48 232.87041463784303 C 19.485333333333333 233.17574797117635, 19.488 233.47641463784305, 19.488 233.77241463784304 C 19.488 234.06841463784303, 19.485333333333333 234.36174797117638, 19.48 234.65241463784304 C 19.474666666666668 234.9430813045097, 19.46666666666667 235.23241463784302, 19.456 235.52041463784303 C 19.439999999999998 235.9710813045097, 19.311999999999998 236.31974797117635, 19.072 236.56641463784302 C 18.832 236.8130813045097, 18.502666666666666 236.95641463784304, 18.084 236.99641463784303 Z M 21.944 236.93241463784304 L 21.944 230.53241463784303 L 23.003999999999998 230.53241463784303 L 23.003999999999998 236.93241463784304 Z " stroke="none" fill-rule="nonzero" fill="#000000" fill-opacity="1" transform="matrix(1,0,0,1,5.05,13.314)" id="text30 l" />
  <path d="M 0 230.02466748324827 L 10 230.02466748324827 L 10 231.52466748324827 L 0 231.52466748324827 Z " stroke="none" fill-rule="evenodd" fill="#000000" fill-opacity="1" transform="matrix(1,0,0,1,5.05,13.314)" id="mark31 l" />
  <path d="M 0 222.0669203286535 L 10 222.0669203286535 L 10 223.5669203286535 L 0 223.5669203286535 Z " stroke="none" fill-rule="evenodd" fill="#000000" fill-opacity="1" transform="matrix(1,0,0,1,5.05,13.314)" id="mark32 l" />
  <path d="M 0 214.10917317405875 L 10 214.10917317405875 L 10 215.60917317405875 L 0 215.60917317405875 Z " stroke="none" fill-rule="evenodd" fill="#000000" fill-opacity="1" transform="matrix(1,0,0,1,5.05,13.314)" id="mark33 l" />
  <path d="M 0 206.15142601946394 L 10 206.15142601946394 L 10 207.65142601946394 L 0 207.65142601946394 Z " stroke="none" fill-rule="evenodd" fill="#000000" fill-opacity="1" transform="matrix(1,0,0,1,5.05,13.314)" id="mark34 l" />
  <path d="M 0 198.19367886486918 L 25 198.19367886486918 L 25 199.69367886486918 L 0 199.69367886486918 Z " stroke="none" fill-rule="evenodd" fill="#000000" fill-opacity="1" transform="matrix(1,0,0,1,5.05,13.314)" id="mark35 l" />
  <path d="M 12.232 195.6956788648692 C 12.229333333333333 195.59434553153585, 12.227333333333334 195.51034553153585, 12.226 195.44367886486918 C 12.224666666666668 195.37701219820252, 12.224666666666668 195.3090121982025, 12.226 195.23967886486918 C 12.227333333333334 195.17034553153584, 12.229333333333333 195.08101219820253, 12.232 194.9716788648692 L 13.312 194.9716788648692 L 13.312 195.83567886486918 C 13.312 196.07301219820252, 13.425333333333333 196.22367886486919, 13.652 196.28767886486918 L 13.652 197.1796788648692 C 13.164 197.14234553153585, 12.808666666666667 197.00767886486918, 12.586 196.77567886486918 C 12.363333333333333 196.54367886486918, 12.245333333333335 196.1836788648692, 12.232 195.6956788648692 Z M 12.3 191.6436788648692 L 12.3 190.71167886486919 L 15.544 190.71167886486919 L 15.544 191.6436788648692 Z M 14.152000000000001 196.2916788648692 C 14.376000000000001 196.23567886486921, 14.492 196.08501219820255, 14.5 195.8396788648692 C 14.505333333333333 195.6370121982025, 14.508666666666667 195.45434553153586, 14.51 195.2916788648692 C 14.511333333333333 195.12901219820253, 14.506666666666668 194.9716788648692, 14.496 194.8196788648692 C 14.488 194.66234553153583, 14.440000000000001 194.5290121982025, 14.352 194.41967886486918 C 14.264 194.31034553153586, 14.097333333333335 194.25834553153587, 13.852 194.26367886486918 L 13.104 194.2716788648692 L 13.076 193.3796788648692 L 14.036 191.9956788648692 L 15.224 191.9956788648692 L 14.256 193.34767886486918 L 14.288 193.34767886486918 C 14.719999999999999 193.34767886486918, 15.036666666666665 193.47034553153583, 15.238 193.7156788648692 C 15.439333333333334 193.96101219820252, 15.552 194.33834553153588, 15.576 194.84767886486918 C 15.581333333333333 194.91967886486918, 15.584666666666667 194.9916788648692, 15.586 195.0636788648692 C 15.587333333333333 195.1356788648692, 15.588000000000001 195.20634553153585, 15.588000000000001 195.27567886486918 C 15.588000000000001 195.3450121982025, 15.587333333333333 195.41434553153584, 15.586 195.4836788648692 C 15.584666666666667 195.5530121982025, 15.581333333333333 195.6236788648692, 15.576 195.6956788648692 C 15.557333333333334 196.19167886486917, 15.436666666666667 196.55634553153584, 15.214 196.7896788648692 C 14.991333333333333 197.02301219820254, 14.638666666666666 197.15301219820253, 14.156 197.1796788648692 Z M 16.18 195.6956788648692 C 16.174666666666667 195.52234553153585, 16.173333333333332 195.38301219820255, 16.176 195.2776788648692 C 16.178666666666665 195.17234553153588, 16.181333333333335 195.07034553153585, 16.183999999999997 194.9716788648692 L 17.264 194.9716788648692 C 17.256 195.04901219820255, 17.25 195.14501219820255, 17.246 195.2596788648692 C 17.241999999999997 195.37434553153588, 17.240666666666666 195.48501219820253, 17.241999999999997 195.59167886486918 C 17.243333333333332 195.69834553153584, 17.246666666666666 195.77834553153582, 17.252 195.8316788648692 C 17.262666666666668 195.95167886486917, 17.297333333333334 196.04967886486918, 17.355999999999998 196.1256788648692 C 17.414666666666665 196.20167886486917, 17.497333333333334 196.25567886486917, 17.604 196.28767886486918 L 17.604 197.1796788648692 C 17.110666666666663 197.14234553153585, 16.75333333333333 197.00767886486918, 16.532 196.77567886486918 C 16.310666666666666 196.54367886486918, 16.19333333333333 196.1836788648692, 16.18 195.6956788648692 Z M 16.279999999999998 194.35967886486918 L 16.279999999999998 190.71167886486919 L 17.348 190.71167886486919 L 17.348 194.35967886486918 Z M 17.852 193.9356788648692 L 17.852 193.1796788648692 C 17.929333333333332 193.1396788648692, 18.014666666666667 193.10767886486917, 18.107999999999997 193.0836788648692 C 18.20133333333333 193.05967886486917, 18.301333333333332 193.04767886486917, 18.407999999999998 193.0476788648692 C 18.773333333333333 193.04767886486917, 19.047333333333334 193.16301219820252, 19.23 193.3936788648692 C 19.412666666666667 193.62434553153585, 19.514666666666663 193.93834553153584, 19.535999999999998 194.33567886486918 C 19.546666666666667 194.49567886486918, 19.55333333333333 194.65434553153585, 19.555999999999997 194.81167886486918 C 19.558666666666664 194.9690121982025, 19.557333333333332 195.12234553153587, 19.552 195.2716788648692 C 19.546666666666667 195.4210121982025, 19.538666666666668 195.56101219820255, 19.528 195.6916788648692 C 19.482666666666667 196.19034553153585, 19.353333333333335 196.5556788648692, 19.14 196.78767886486918 C 18.926666666666666 197.0196788648692, 18.581333333333333 197.15034553153586, 18.104 197.1796788648692 L 18.104 196.28767886486918 C 18.21333333333333 196.25834553153587, 18.296 196.20567886486918, 18.352 196.1296788648692 C 18.408 196.0536788648692, 18.44 195.95434553153586, 18.448 195.8316788648692 C 18.471999999999998 195.5410121982025, 18.485999999999997 195.2796788648692, 18.49 195.0476788648692 C 18.494 194.8156788648692, 18.485333333333333 194.59434553153585, 18.464 194.38367886486918 C 18.447999999999997 194.2290121982025, 18.396666666666665 194.11367886486917, 18.31 194.03767886486918 C 18.223333333333333 193.96167886486919, 18.090666666666664 193.9236788648692, 17.912 193.9236788648692 C 17.901333333333334 193.9236788648692, 17.890666666666668 193.92501219820252, 17.88 193.9276788648692 C 17.86933333333333 193.93034553153586, 17.86 193.93301219820253, 17.852 193.9356788648692 Z M 17.852 191.6436788648692 L 17.852 190.71167886486919 L 19.439999999999998 190.71167886486919 L 19.439999999999998 191.6436788648692 Z M 21.944 197.1116788648692 L 21.944 190.71167886486919 L 23.003999999999998 190.71167886486919 L 23.003999999999998 197.1116788648692 Z " stroke="none" fill-rule="nonzero" fill="#000000" fill-opacity="1" transform="matrix(1,0,0,1,5.05,13.314)" id="text35 l" />
  <path d="M 0 190.23593171027443 L 10 190.23593171027443 L 10 191.73593171027443 L 0 191.73593171027443 Z " stroke="none" fill-rule="evenodd" fill="#000000" fill-opacity="1" transform="matrix(1,0,0,1,5.05,13.314)" id="mark36 l" />
  <path d="M 0 182.27818455567967 L 10 182.27818455567967 L 10 183.77818455567967 L 0 183.77818455567967 Z " stroke="none" fill-rule="evenodd" fill="#000000" fill-opacity="1" transform="matrix(1,0,0,1,5.05,13.314)" id="mark37 l" />
  <path d="M 0 174.32043740108492 L 10 174.32043740108492 L 10 175.82043740108492 L 0 175.82043740108492 Z " stroke="none" fill-rule="evenodd" fill="#000000" fill-opacity="1" transform="matrix(1,0,0,1,5.05,13.314)" id="mark38 l" />
  <path d="M 0 166.36269024649016 L 10 166.36269024649016 L 10 167.86269024649016 L 0 167.86269024649016 Z " stroke="none" fill-rule="evenodd" fill="#000000" fill-opacity="1" transform="matrix(1,0,0,1,5.05,13.314)" id="mark39 l" />
  <path d="M 0 158.40494309189535 L 25 158.40494309189535 L 25 159.90494309189535 L 0 159.90494309189535 Z " stroke="none" fill-rule="evenodd" fill="#000000" fill-opacity="1" transform="matrix(1,0,0,1,5.05,13.314)" id="mark40 l" />
  <path d="M 11.739999999999998 155.67094309189537 L 11.739999999999998 154.79494309189536 L 12.455999999999998 152.91494309189537 L 13.495999999999999 152.91494309189537 L 12.771999999999998 154.74694309189536 L 13.171999999999997 154.74694309189536 L 13.171999999999997 155.67094309189537 Z M 13.675999999999998 157.35494309189536 L 13.675999999999998 150.95494309189536 L 14.683999999999997 150.95494309189536 L 14.683999999999997 157.35494309189536 Z M 15.187999999999999 155.67094309189537 L 15.187999999999999 154.74694309189536 L 15.655999999999999 154.74694309189536 L 15.655999999999999 155.67094309189537 Z M 16.195999999999998 155.94294309189536 C 16.188 155.513609758562, 16.182666666666666 155.09694309189535, 16.18 154.69294309189536 C 16.177333333333333 154.28894309189536, 16.177999999999997 153.89360975856204, 16.182 153.50694309189535 C 16.186 153.1202764252287, 16.190666666666665 152.73894309189538, 16.195999999999998 152.36294309189537 C 16.20933333333333 151.92294309189538, 16.333999999999996 151.57760975856206, 16.569999999999997 151.32694309189537 C 16.805999999999997 151.07627642522868, 17.142666666666663 150.93094309189536, 17.58 150.89094309189537 L 17.58 151.77894309189537 C 17.382666666666665 151.83494309189535, 17.281333333333333 151.96427642522872, 17.275999999999996 152.16694309189538 C 17.262666666666664 152.53760975856204, 17.25333333333333 152.88560975856203, 17.247999999999998 153.21094309189536 C 17.242666666666665 153.5362764252287, 17.24 153.85294309189536, 17.24 154.16094309189538 C 17.24 154.46894309189537, 17.242666666666665 154.78360975856202, 17.247999999999998 155.10494309189536 C 17.25333333333333 155.4262764252287, 17.262666666666664 155.769609758562, 17.275999999999996 156.13494309189537 C 17.281333333333333 156.3429430918954, 17.382666666666665 156.47494309189537, 17.58 156.53094309189535 L 17.58 157.41894309189536 C 17.142666666666663 157.37894309189534, 16.805999999999997 157.23294309189535, 16.569999999999997 156.98094309189537 C 16.333999999999996 156.72894309189536, 16.20933333333333 156.38294309189536, 16.195999999999998 155.94294309189536 Z M 18.084 157.41894309189536 L 18.084 156.52694309189536 C 18.268 156.47360975856205, 18.366666666666667 156.34960975856205, 18.38 156.15494309189538 C 18.398666666666664 155.6882764252287, 18.410666666666664 155.23960975856204, 18.415999999999997 154.80894309189537 C 18.42133333333333 154.3782764252287, 18.42133333333333 153.94760975856204, 18.415999999999997 153.51694309189537 C 18.410666666666664 153.0862764252287, 18.398666666666664 152.63360975856205, 18.38 152.15894309189537 C 18.374666666666666 151.96427642522872, 18.276 151.83760975856205, 18.084 151.77894309189537 L 18.084 150.89094309189537 C 18.513333333333332 150.93094309189536, 18.846666666666664 151.07627642522868, 19.083999999999996 151.32694309189537 C 19.32133333333333 151.57760975856206, 19.44533333333333 151.92294309189538, 19.456 152.36294309189537 C 19.466666666666665 152.67760975856203, 19.474666666666664 152.98760975856203, 19.479999999999997 153.29294309189535 C 19.48533333333333 153.59827642522868, 19.488 153.89894309189535, 19.488 154.19494309189537 C 19.488 154.49094309189536, 19.48533333333333 154.78427642522868, 19.479999999999997 155.07494309189536 C 19.474666666666664 155.36560975856204, 19.466666666666665 155.65494309189538, 19.456 155.94294309189536 C 19.439999999999998 156.39360975856204, 19.311999999999998 156.7422764252287, 19.072 156.98894309189535 C 18.831999999999997 157.23560975856202, 18.502666666666663 157.37894309189534, 18.084 157.41894309189536 Z M 21.944 157.35494309189536 L 21.944 150.95494309189536 L 23.003999999999998 150.95494309189536 L 23.003999999999998 157.35494309189536 Z " stroke="none" fill-rule="nonzero" fill="#000000" fill-opacity="1" transform="matrix(1,0,0,1,5.05,13.314)" id="text40 l" />
  <path d="M 0 150.4471959373006 L 10 150.4471959373006 L 10 151.9471959373006 L 0 151.9471959373006 Z " stroke="none" fill-rule="evenodd" fill="#000000" fill-opacity="1" transform="matrix(1,0,0,1,5.05,13.314)" id="mark41 l" />
  <path d="M 0 142.48944878270584 L 10 142.48944878270584 L 10 143.98944878270584 L 0 143.98944878270584 Z " stroke="none" fill-rule="evenodd" fill="#000000" fill-opacity="1" transform="matrix(1,0,0,1,5.05,13.314)" id="mark42 l" />
  <path d="M 0 134.53170162811108 L 10 134.53170162811108 L 10 136.03170162811108 L 0 136.03170162811108 Z " stroke="none" fill-rule="evenodd" fill="#000000" fill-opacity="1" transform="matrix(1,0,0,1,5.05,13.314)" id="mark43 l" />
  <path d="M 0 126.57395447351632 L 10 126.57395447351632 L 10 128.07395447351632 L 0 128.07395447351632 Z " stroke="none" fill-rule="evenodd" fill="#000000" fill-opacity="1" transform="matrix(1,0,0,1,5.05,13.314)" id="mark44 l" />
  <path d="M 0 118.61620731892151 L 25 118.61620731892151 L 25 120.11620731892151 L 0 120.11620731892151 Z " stroke="none" fill-rule="evenodd" fill="#000000" fill-opacity="1" transform="matrix(1,0,0,1,5.05,13.314)" id="mark45 l" />
  <path d="M 11.748 115.85020731892152 L 11.748 114.97420731892151 L 12.463999999999999 113.09420731892152 L 13.503999999999998 113.09420731892152 L 12.78 114.92620731892151 L 13.18 114.92620731892151 L 13.18 115.85020731892152 Z M 13.684 117.53420731892152 L 13.684 111.13420731892151 L 14.691999999999998 111.13420731892151 L 14.691999999999998 117.53420731892152 Z M 15.195999999999998 115.85020731892152 L 15.195999999999998 114.92620731892151 L 15.663999999999998 114.92620731892151 L 15.663999999999998 115.85020731892152 Z M 16.18 116.11820731892152 C 16.174666666666667 115.94487398558817, 16.173333333333332 115.80554065225485, 16.176 115.70020731892151 C 16.178666666666665 115.59487398558818, 16.181333333333335 115.49287398558818, 16.183999999999997 115.39420731892152 L 17.264 115.39420731892152 C 17.256 115.47154065225484, 17.25 115.56754065225485, 17.246 115.68220731892151 C 17.241999999999997 115.79687398558818, 17.240666666666666 115.90754065225485, 17.241999999999997 116.01420731892152 C 17.243333333333332 116.12087398558819, 17.246666666666666 116.20087398558817, 17.252 116.25420731892152 C 17.262666666666668 116.37420731892152, 17.297333333333334 116.47220731892153, 17.355999999999998 116.54820731892151 C 17.414666666666665 116.62420731892152, 17.497333333333334 116.67820731892152, 17.604 116.71020731892152 L 17.604 117.60220731892151 C 17.110666666666663 117.56487398558818, 16.75333333333333 117.43020731892153, 16.532 117.19820731892152 C 16.310666666666666 116.96620731892153, 16.19333333333333 116.60620731892152, 16.18 116.11820731892152 Z M 16.279999999999998 114.78220731892152 L 16.279999999999998 111.13420731892151 L 17.348 111.13420731892151 L 17.348 114.78220731892152 Z M 17.852 114.35820731892152 L 17.852 113.60220731892151 C 17.929333333333332 113.56220731892151, 18.014666666666667 113.53020731892151, 18.107999999999997 113.50620731892151 C 18.20133333333333 113.48220731892152, 18.301333333333332 113.47020731892152, 18.407999999999998 113.47020731892152 C 18.773333333333333 113.47020731892152, 19.047333333333334 113.58554065225485, 19.23 113.81620731892151 C 19.412666666666667 114.04687398558818, 19.514666666666663 114.3608739855882, 19.535999999999998 114.75820731892152 C 19.546666666666667 114.91820731892153, 19.55333333333333 115.07687398558818, 19.555999999999997 115.23420731892152 C 19.558666666666664 115.39154065225486, 19.557333333333332 115.5448739855882, 19.552 115.69420731892151 C 19.546666666666667 115.84354065225486, 19.538666666666668 115.98354065225485, 19.528 116.11420731892152 C 19.482666666666667 116.61287398558818, 19.353333333333335 116.97820731892152, 19.14 117.21020731892152 C 18.926666666666666 117.44220731892152, 18.581333333333333 117.57287398558819, 18.104 117.60220731892151 L 18.104 116.71020731892152 C 18.21333333333333 116.68087398558819, 18.296 116.62820731892151, 18.352 116.55220731892152 C 18.408 116.47620731892152, 18.44 116.37687398558819, 18.448 116.25420731892152 C 18.471999999999998 115.96354065225486, 18.485999999999997 115.70220731892152, 18.49 115.47020731892152 C 18.494 115.23820731892151, 18.485333333333333 115.01687398558818, 18.464 114.80620731892152 C 18.447999999999997 114.65154065225485, 18.396666666666665 114.53620731892153, 18.31 114.46020731892152 C 18.223333333333333 114.38420731892151, 18.090666666666664 114.34620731892151, 17.912 114.34620731892151 C 17.901333333333334 114.34620731892151, 17.890666666666668 114.34754065225485, 17.88 114.35020731892152 C 17.86933333333333 114.35287398558818, 17.86 114.35554065225483, 17.852 114.35820731892152 Z M 17.852 112.06620731892151 L 17.852 111.13420731892151 L 19.439999999999998 111.13420731892151 L 19.439999999999998 112.06620731892151 Z M 21.944 117.53420731892152 L 21.944 111.13420731892151 L 23.003999999999998 111.13420731892151 L 23.003999999999998 117.53420731892152 Z " stroke="none" fill-rule="nonzero" fill="#000000" fill-opacity="1" transform="matrix(1,0,0,1,5.05,13.314)" id="text45 l" />
  <path d="M 0 110.65846016432675 L 10 110.65846016432675 L 10 112.15846016432675 L 0 112.15846016432675 Z " stroke="none" fill-rule="evenodd" fill="#000000" fill-opacity="1" transform="matrix(1,0,0,1,5.05,13.314)" id="mark46 l" />
  <path d="M 0 102.700713009732 L 10 102.700713009732 L 10 104.200713009732 L 0 104.200713009732 Z " stroke="none" fill-rule="evenodd" fill="#000000" fill-opacity="1" transform="matrix(1,0,0,1,5.05,13.314)" id="mark47 l" />
  <path d="M 0 94.74296585513724 L 10 94.74296585513724 L 10 96.24296585513724 L 0 96.24296585513724 Z " stroke="none" fill-rule="evenodd" fill="#000000" fill-opacity="1" transform="matrix(1,0,0,1,5.05,13.314)" id="mark48 l" />
  <path d="M 0 86.78521870054249 L 10 86.78521870054249 L 10 88.28521870054249 L 0 88.28521870054249 Z " stroke="none" fill-rule="evenodd" fill="#000000" fill-opacity="1" transform="matrix(1,0,0,1,5.05,13.314)" id="mark49 l" />
  <path d="M 0 78.82747154594767 L 25 78.82747154594767 L 25 80.32747154594767 L 0 80.32747154594767 Z " stroke="none" fill-rule="evenodd" fill="#000000" fill-opacity="1" transform="matrix(1,0,0,1,5.05,13.314)" id="mark50 l" />
  <path d="M 12.204 76.36147154594768 C 12.198666666666668 76.18813821261435, 12.197333333333333 76.04880487928101, 12.2 75.94347154594767 C 12.202666666666667 75.83813821261434, 12.205333333333336 75.73613821261435, 12.208 75.63747154594768 L 13.288 75.63747154594768 C 13.280000000000001 75.71480487928102, 13.274000000000001 75.81080487928101, 13.27 75.92547154594767 C 13.265999999999998 76.04013821261434, 13.264666666666667 76.15080487928101, 13.266 76.25747154594768 C 13.267333333333333 76.36413821261435, 13.270666666666667 76.44413821261435, 13.276 76.49747154594768 C 13.286666666666665 76.61747154594768, 13.321333333333332 76.71547154594768, 13.379999999999999 76.79147154594767 C 13.438666666666666 76.86747154594768, 13.521333333333335 76.92147154594768, 13.628 76.95347154594768 L 13.628 77.84547154594767 C 13.134666666666668 77.80813821261434, 12.777333333333335 77.67347154594768, 12.556 77.44147154594768 C 12.334666666666667 77.20947154594768, 12.217333333333332 76.84947154594768, 12.204 76.36147154594768 Z M 12.304 75.02547154594768 L 12.304 71.37747154594767 L 13.372 71.37747154594767 L 13.372 75.02547154594768 Z M 13.876 74.60147154594767 L 13.876 73.84547154594767 C 13.953333333333333 73.80547154594767, 14.038666666666668 73.77347154594767, 14.132 73.74947154594767 C 14.225333333333333 73.72547154594767, 14.325333333333333 73.71347154594767, 14.432 73.71347154594767 C 14.797333333333334 73.71347154594767, 15.071333333333332 73.82880487928101, 15.254 74.05947154594767 C 15.436666666666667 74.29013821261434, 15.538666666666668 74.60413821261434, 15.56 75.00147154594768 C 15.570666666666668 75.16147154594768, 15.577333333333334 75.32013821261434, 15.58 75.47747154594768 C 15.582666666666666 75.634804879281, 15.581333333333333 75.78813821261434, 15.576 75.93747154594767 C 15.570666666666666 76.086804879281, 15.562666666666665 76.226804879281, 15.552 76.35747154594767 C 15.506666666666668 76.85613821261434, 15.377333333333333 77.22147154594768, 15.164 77.45347154594768 C 14.950666666666667 77.68547154594768, 14.605333333333332 77.81613821261435, 14.128 77.84547154594767 L 14.128 76.95347154594768 C 14.237333333333334 76.92413821261435, 14.32 76.87147154594768, 14.376 76.79547154594768 C 14.432 76.71947154594767, 14.464 76.62013821261434, 14.472 76.49747154594768 C 14.495999999999999 76.20680487928101, 14.509999999999998 75.94547154594768, 14.514 75.71347154594767 C 14.518 75.48147154594767, 14.509333333333334 75.26013821261435, 14.488 75.04947154594768 C 14.472000000000001 74.89480487928103, 14.420666666666666 74.77947154594769, 14.334 74.70347154594768 C 14.247333333333334 74.62747154594767, 14.114666666666666 74.58947154594767, 13.936 74.58947154594767 C 13.925333333333333 74.58947154594767, 13.914666666666665 74.59080487928101, 13.904 74.59347154594768 C 13.893333333333334 74.59613821261433, 13.884 74.598804879281, 13.876 74.60147154594767 Z M 13.876 72.30947154594767 L 13.876 71.37747154594767 L 15.464 71.37747154594767 L 15.464 72.30947154594767 Z M 16.196 76.36547154594767 C 16.188000000000002 75.93613821261434, 16.182666666666666 75.51947154594768, 16.18 75.11547154594767 C 16.177333333333333 74.71147154594767, 16.177999999999997 74.31613821261433, 16.182 73.92947154594768 C 16.186 73.54280487928102, 16.190666666666665 73.16147154594768, 16.196 72.78547154594767 C 16.209333333333333 72.34547154594767, 16.334000000000003 72.00013821261435, 16.57 71.74947154594767 C 16.805999999999997 71.49880487928101, 17.142666666666663 71.35347154594768, 17.58 71.31347154594768 L 17.58 72.20147154594768 C 17.382666666666665 72.25747154594768, 17.281333333333333 72.386804879281, 17.276 72.58947154594767 C 17.262666666666668 72.96013821261434, 17.253333333333334 73.30813821261434, 17.248 73.63347154594767 C 17.242666666666665 73.958804879281, 17.24 74.27547154594767, 17.24 74.58347154594767 C 17.24 74.89147154594768, 17.242666666666665 75.20613821261435, 17.248 75.52747154594768 C 17.253333333333334 75.848804879281, 17.262666666666668 76.19213821261434, 17.276 76.55747154594768 C 17.281333333333333 76.76547154594768, 17.382666666666665 76.89747154594768, 17.58 76.95347154594768 L 17.58 77.84147154594767 C 17.142666666666663 77.80147154594768, 16.805999999999997 77.65547154594768, 16.57 77.40347154594768 C 16.334000000000003 77.15147154594769, 16.209333333333333 76.80547154594768, 16.196 76.36547154594767 Z M 18.084 77.84147154594767 L 18.084 76.94947154594767 C 18.268 76.89613821261435, 18.366666666666667 76.77213821261435, 18.38 76.57747154594767 C 18.398666666666667 76.110804879281, 18.410666666666668 75.66213821261434, 18.416 75.23147154594767 C 18.421333333333333 74.800804879281, 18.421333333333333 74.37013821261435, 18.416 73.93947154594768 C 18.410666666666668 73.50880487928102, 18.398666666666667 73.05613821261434, 18.38 72.58147154594768 C 18.374666666666666 72.38680487928102, 18.276 72.26013821261435, 18.084 72.20147154594768 L 18.084 71.31347154594768 C 18.513333333333335 71.35347154594768, 18.846666666666668 71.49880487928101, 19.084 71.74947154594767 C 19.321333333333335 72.00013821261435, 19.445333333333334 72.34547154594767, 19.456 72.78547154594767 C 19.46666666666667 73.10013821261434, 19.474666666666668 73.41013821261434, 19.48 73.71547154594768 C 19.485333333333333 74.02080487928102, 19.488 74.32147154594767, 19.488 74.61747154594768 C 19.488 74.91347154594769, 19.485333333333333 75.20680487928101, 19.48 75.49747154594768 C 19.474666666666668 75.78813821261434, 19.46666666666667 76.07747154594767, 19.456 76.36547154594767 C 19.439999999999998 76.81613821261433, 19.311999999999998 77.16480487928101, 19.072 77.41147154594768 C 18.832 77.65813821261435, 18.502666666666666 77.80147154594768, 18.084 77.84147154594767 Z M 21.944 77.77747154594768 L 21.944 71.37747154594767 L 23.003999999999998 71.37747154594767 L 23.003999999999998 77.77747154594768 Z " stroke="none" fill-rule="nonzero" fill="#000000" fill-opacity="1" transform="matrix(1,0,0,1,5.05,13.314)" id="text50 l" />
  <path d="M 0 70.86972439135292 L 10 70.86972439135292 L 10 72.36972439135292 L 0 72.36972439135292 Z " stroke="none" fill-rule="evenodd" fill="#000000" fill-opacity="1" transform="matrix(1,0,0,1,5.05,13.314)" id="mark51 l" />
  <path d="M 0 62.91197723675816 L 10 62.91197723675816 L 10 64.41197723675816 L 0 64.41197723675816 Z " stroke="none" fill-rule="evenodd" fill="#000000" fill-opacity="1" transform="matrix(1,0,0,1,5.05,13.314)" id="mark52 l" />
  <path d="M 0 54.954230082163406 L 10 54.954230082163406 L 10 56.454230082163406 L 0 56.454230082163406 Z " stroke="none" fill-rule="evenodd" fill="#000000" fill-opacity="1" transform="matrix(1,0,0,1,5.05,13.314)" id="mark53 l" />
  <path d="M 0 46.99648292756865 L 10 46.99648292756865 L 10 48.49648292756865 L 0 48.49648292756865 Z " stroke="none" fill-rule="evenodd" fill="#000000" fill-opacity="1" transform="matrix(1,0,0,1,5.05,13.314)" id="mark54 l" />
  <path d="M 0 39.03873577297384 L 25 39.03873577297384 L 25 40.53873577297384 L 0 40.53873577297384 Z " stroke="none" fill-rule="evenodd" fill="#000000" fill-opacity="1" transform="matrix(1,0,0,1,5.05,13.314)" id="mark55 l" />
  <path d="M 12.212 36.54073577297384 C 12.206666666666667 36.3674024396405, 12.205333333333332 36.22806910630717, 12.207999999999998 36.12273577297383 C 12.210666666666667 36.017402439640506, 12.213333333333335 35.9154024396405, 12.216 35.816735772973836 L 13.296 35.816735772973836 C 13.288 35.89406910630717, 13.282 35.99006910630717, 13.277999999999999 36.10473577297384 C 13.273999999999997 36.219402439640504, 13.272666666666666 36.330069106307164, 13.274 36.43673577297383 C 13.275333333333332 36.5434024396405, 13.278666666666666 36.6234024396405, 13.283999999999999 36.676735772973835 C 13.294666666666664 36.79673577297383, 13.32933333333333 36.89473577297384, 13.387999999999998 36.97073577297384 C 13.446666666666665 37.04673577297384, 13.529333333333334 37.100735772973835, 13.636 37.13273577297384 L 13.636 38.024735772973834 C 13.142666666666667 37.987402439640505, 12.785333333333334 37.85273577297384, 12.563999999999998 37.62073577297384 C 12.342666666666666 37.38873577297384, 12.225333333333332 37.02873577297384, 12.212 36.54073577297384 Z M 12.312 35.204735772973834 L 12.312 31.556735772973838 L 13.379999999999999 31.556735772973838 L 13.379999999999999 35.204735772973834 Z M 13.883999999999999 34.780735772973834 L 13.883999999999999 34.024735772973834 C 13.961333333333332 33.984735772973835, 14.046666666666667 33.95273577297384, 14.139999999999999 33.92873577297384 C 14.233333333333333 33.90473577297384, 14.333333333333332 33.892735772973836, 14.44 33.892735772973836 C 14.805333333333333 33.892735772973836, 15.07933333333333 34.00806910630717, 15.261999999999999 34.23873577297384 C 15.444666666666667 34.469402439640504, 15.546666666666667 34.7834024396405, 15.568 35.18073577297383 C 15.578666666666667 35.34073577297383, 15.585333333333333 35.499402439640505, 15.588 35.65673577297384 C 15.590666666666666 35.81406910630717, 15.589333333333332 35.9674024396405, 15.584 36.11673577297383 C 15.578666666666665 36.26606910630717, 15.570666666666664 36.40606910630717, 15.559999999999999 36.536735772973834 C 15.514666666666667 37.03540243964051, 15.385333333333332 37.40073577297384, 15.171999999999999 37.63273577297384 C 14.958666666666666 37.86473577297384, 14.613333333333332 37.9954024396405, 14.136 38.024735772973834 L 14.136 37.13273577297384 C 14.245333333333333 37.103402439640504, 14.328 37.05073577297384, 14.383999999999999 36.97473577297384 C 14.44 36.898735772973836, 14.472 36.7994024396405, 14.479999999999999 36.676735772973835 C 14.503999999999998 36.38606910630717, 14.517999999999997 36.124735772973835, 14.521999999999998 35.892735772973836 C 14.526 35.66073577297384, 14.517333333333333 35.4394024396405, 14.495999999999999 35.228735772973835 C 14.48 35.07406910630717, 14.428666666666665 34.95873577297384, 14.341999999999999 34.88273577297384 C 14.255333333333333 34.80673577297384, 14.122666666666666 34.768735772973834, 13.943999999999999 34.768735772973834 C 13.933333333333332 34.768735772973834, 13.922666666666665 34.77006910630717, 13.911999999999999 34.77273577297384 C 13.901333333333334 34.7754024396405, 13.892 34.77806910630717, 13.883999999999999 34.780735772973834 Z M 13.883999999999999 32.48873577297384 L 13.883999999999999 31.556735772973838 L 15.472 31.556735772973838 L 15.472 32.48873577297384 Z M 16.18 36.54073577297384 C 16.174666666666667 36.3674024396405, 16.173333333333332 36.22806910630717, 16.176 36.12273577297383 C 16.178666666666665 36.017402439640506, 16.181333333333335 35.9154024396405, 16.183999999999997 35.816735772973836 L 17.264 35.816735772973836 C 17.256 35.89406910630717, 17.25 35.99006910630717, 17.246 36.10473577297384 C 17.241999999999997 36.219402439640504, 17.240666666666666 36.330069106307164, 17.241999999999997 36.43673577297383 C 17.243333333333332 36.5434024396405, 17.246666666666666 36.6234024396405, 17.252 36.676735772973835 C 17.262666666666668 36.79673577297383, 17.297333333333334 36.89473577297384, 17.355999999999998 36.97073577297384 C 17.414666666666665 37.04673577297384, 17.497333333333334 37.100735772973835, 17.604 37.13273577297384 L 17.604 38.024735772973834 C 17.110666666666663 37.987402439640505, 16.75333333333333 37.85273577297384, 16.532 37.62073577297384 C 16.310666666666666 37.38873577297384, 16.19333333333333 37.02873577297384, 16.18 36.54073577297384 Z M 16.279999999999998 35.204735772973834 L 16.279999999999998 31.556735772973838 L 17.348 31.556735772973838 L 17.348 35.204735772973834 Z M 17.852 34.780735772973834 L 17.852 34.024735772973834 C 17.929333333333332 33.984735772973835, 18.014666666666667 33.95273577297384, 18.107999999999997 33.92873577297384 C 18.20133333333333 33.90473577297384, 18.301333333333332 33.892735772973836, 18.407999999999998 33.892735772973836 C 18.773333333333333 33.892735772973836, 19.047333333333334 34.00806910630717, 19.23 34.23873577297384 C 19.412666666666667 34.469402439640504, 19.514666666666663 34.7834024396405, 19.535999999999998 35.18073577297383 C 19.546666666666667 35.34073577297383, 19.55333333333333 35.499402439640505, 19.555999999999997 35.65673577297384 C 19.558666666666664 35.81406910630717, 19.557333333333332 35.9674024396405, 19.552 36.11673577297383 C 19.546666666666667 36.26606910630717, 19.538666666666668 36.40606910630717, 19.528 36.536735772973834 C 19.482666666666667 37.03540243964051, 19.353333333333335 37.40073577297384, 19.14 37.63273577297384 C 18.926666666666666 37.86473577297384, 18.581333333333333 37.9954024396405, 18.104 38.024735772973834 L 18.104 37.13273577297384 C 18.21333333333333 37.103402439640504, 18.296 37.05073577297384, 18.352 36.97473577297384 C 18.408 36.898735772973836, 18.44 36.7994024396405, 18.448 36.676735772973835 C 18.471999999999998 36.38606910630717, 18.485999999999997 36.124735772973835, 18.49 35.892735772973836 C 18.494 35.66073577297384, 18.485333333333333 35.4394024396405, 18.464 35.228735772973835 C 18.447999999999997 35.07406910630717, 18.396666666666665 34.95873577297384, 18.31 34.88273577297384 C 18.223333333333333 34.80673577297384, 18.090666666666664 34.768735772973834, 17.912 34.768735772973834 C 17.901333333333334 34.768735772973834, 17.890666666666668 34.77006910630717, 17.88 34.77273577297384 C 17.86933333333333 34.7754024396405, 17.86 34.77806910630717, 17.852 34.780735772973834 Z M 17.852 32.48873577297384 L 17.852 31.556735772973838 L 19.439999999999998 31.556735772973838 L 19.439999999999998 32.48873577297384 Z M 21.944 37.956735772973836 L 21.944 31.556735772973838 L 23.003999999999998 31.556735772973838 L 23.003999999999998 37.956735772973836 Z " stroke="none" fill-rule="nonzero" fill="#000000" fill-opacity="1" transform="matrix(1,0,0,1,5.05,13.314)" id="text55 l" />
  <path d="M 0 31.08098861837908 L 10 31.08098861837908 L 10 32.58098861837908 L 0 32.58098861837908 Z " stroke="none" fill-rule="evenodd" fill="#000000" fill-opacity="1" transform="matrix(1,0,0,1,5.05,13.314)" id="mark56 l" />
  <path d="M 0 23.123241463784325 L 10 23.123241463784325 L 10 24.623241463784325 L 0 24.623241463784325 Z " stroke="none" fill-rule="evenodd" fill="#000000" fill-opacity="1" transform="matrix(1,0,0,1,5.05,13.314)" id="mark57 l" />
  <path d="M 0 15.165494309189569 L 10 15.165494309189569 L 10 16.66549430918957 L 0 16.66549430918957 Z " stroke="none" fill-rule="evenodd" fill="#000000" fill-opacity="1" transform="matrix(1,0,0,1,5.05,13.314)" id="mark58 l" />
  <path d="M 0 7.207747154594813 L 10 7.207747154594813 L 10 8.707747154594813 L 0 8.707747154594813 Z " stroke="none" fill-rule="evenodd" fill="#000000" fill-opacity="1" transform="matrix(1,0,0,1,5.05,13.314)" id="mark59 l" />
  <path d="M 0 -0.75 L 25 -0.75 L 25 0.75 L 0 0.75 Z " stroke="none" fill-rule="evenodd" fill="#000000" fill-opacity="1" transform="matrix(1,0,0,1,5.05,13.314)" id="mark60 l" />
  <path d="M 12.264 -3.2159999999999997 C 12.261333333333333 -3.4799999999999995, 12.258 -3.7573333333333334, 12.254 -4.048 C 12.25 -4.338666666666667, 12.248 -4.637333333333333, 12.248 -4.944 C 12.248 -5.250666666666667, 12.249333333333333 -5.558666666666666, 12.251999999999999 -5.867999999999999 C 12.254666666666665 -6.1773333333333325, 12.258666666666667 -6.485333333333333, 12.264 -6.792 C 12.271999999999998 -7.256, 12.397333333333332 -7.6080000000000005, 12.639999999999999 -7.848 C 12.882666666666665 -8.088000000000001, 13.215999999999998 -8.226666666666667, 13.639999999999999 -8.264 L 13.639999999999999 -7.372 C 13.543999999999997 -7.347999999999999, 13.470666666666665 -7.303999999999999, 13.419999999999998 -7.239999999999999 C 13.369333333333332 -7.176, 13.343999999999998 -7.090666666666667, 13.344 -6.984 C 13.335999999999999 -6.496, 13.330666666666666 -6.029333333333334, 13.328 -5.584 C 13.325333333333333 -5.1386666666666665, 13.323999999999998 -4.705333333333334, 13.323999999999998 -4.284 C 13.323999999999998 -3.8626666666666667, 13.328 -3.4480000000000004, 13.335999999999999 -3.04 C 13.335999999999999 -2.9306666666666668, 13.363333333333333 -2.841333333333333, 13.418 -2.772 C 13.472666666666665 -2.7026666666666666, 13.549333333333333 -2.653333333333333, 13.648 -2.6239999999999997 L 13.648 -1.7319999999999998 C 13.159999999999998 -1.7639999999999998, 12.809333333333331 -1.896, 12.595999999999998 -2.1279999999999997 C 12.382666666666665 -2.36, 12.271999999999998 -2.7226666666666666, 12.264 -3.2159999999999997 Z M 13.812 -4.896 L 13.812 -5.64 C 13.894666666666666 -5.688, 13.987333333333332 -5.725333333333333, 14.09 -5.752 C 14.192666666666668 -5.778666666666666, 14.301333333333332 -5.792, 14.415999999999999 -5.792 C 14.84 -5.792, 15.134 -5.692666666666666, 15.297999999999998 -5.494 C 15.462 -5.295333333333334, 15.547999999999998 -4.964, 15.556 -4.5 C 15.561333333333334 -4.316000000000001, 15.564666666666666 -4.160666666666667, 15.565999999999999 -4.034 C 15.567333333333332 -3.907333333333333, 15.567333333333332 -3.7826666666666666, 15.565999999999999 -3.6599999999999997 C 15.564666666666666 -3.5373333333333337, 15.559999999999999 -3.389333333333333, 15.552 -3.2159999999999997 C 15.527999999999999 -2.7253333333333334, 15.408 -2.3626666666666667, 15.192 -2.1279999999999997 C 14.975999999999999 -1.893333333333333, 14.628 -1.7613333333333332, 14.148 -1.7319999999999998 L 14.148 -2.6159999999999997 C 14.251999999999999 -2.6453333333333333, 14.331333333333333 -2.6933333333333334, 14.386 -2.76 C 14.440666666666665 -2.826666666666666, 14.469333333333333 -2.913333333333333, 14.472 -3.0199999999999996 C 14.477333333333332 -3.174666666666666, 14.481333333333332 -3.313333333333333, 14.483999999999998 -3.436 C 14.486666666666666 -3.558666666666667, 14.489333333333335 -3.676, 14.491999999999999 -3.788 C 14.494666666666667 -3.9, 14.495333333333333 -4.011333333333333, 14.494 -4.122 C 14.492666666666667 -4.232666666666667, 14.489333333333333 -4.349333333333333, 14.483999999999998 -4.4719999999999995 C 14.481333333333332 -4.621333333333333, 14.429333333333332 -4.732, 14.328 -4.804 C 14.226666666666665 -4.876, 14.094666666666665 -4.912, 13.931999999999999 -4.912 C 13.913333333333334 -4.912, 13.894 -4.911333333333333, 13.873999999999999 -4.91 C 13.854 -4.908666666666667, 13.833333333333332 -4.904, 13.812 -4.896 Z M 14.44 -6.216 C 14.448 -6.309333333333333, 14.452666666666666 -6.391333333333333, 14.453999999999999 -6.462 C 14.455333333333332 -6.532666666666667, 14.454666666666665 -6.6080000000000005, 14.451999999999998 -6.688 C 14.449333333333332 -6.768000000000001, 14.445333333333334 -6.866666666666667, 14.44 -6.984 C 14.434666666666665 -7.082666666666666, 14.407999999999998 -7.165999999999999, 14.36 -7.233999999999999 C 14.311999999999998 -7.302, 14.238666666666665 -7.347999999999999, 14.139999999999999 -7.372 L 14.139999999999999 -8.26 C 14.577333333333332 -8.219999999999999, 14.911333333333332 -8.075333333333333, 15.142 -7.826 C 15.372666666666667 -7.576666666666666, 15.495999999999999 -7.2493333333333325, 15.511999999999999 -6.843999999999999 C 15.514666666666667 -6.777333333333333, 15.516666666666666 -6.7139999999999995, 15.517999999999999 -6.654 C 15.519333333333332 -6.594, 15.519333333333332 -6.53, 15.517999999999999 -6.462 C 15.516666666666666 -6.393999999999999, 15.514666666666667 -6.311999999999999, 15.511999999999999 -6.216 Z M 16.196 -3.2119999999999997 C 16.188000000000002 -3.641333333333333, 16.182666666666666 -4.058, 16.18 -4.462 C 16.177333333333333 -4.866, 16.177999999999997 -5.261333333333333, 16.182 -5.648 C 16.186 -6.034666666666666, 16.190666666666665 -6.416, 16.196 -6.792 C 16.209333333333333 -7.231999999999999, 16.334000000000003 -7.577333333333334, 16.57 -7.828 C 16.805999999999997 -8.078666666666667, 17.142666666666663 -8.224, 17.58 -8.264 L 17.58 -7.3759999999999994 C 17.382666666666665 -7.32, 17.281333333333333 -7.190666666666667, 17.276 -6.9879999999999995 C 17.262666666666668 -6.617333333333333, 17.253333333333334 -6.269333333333333, 17.248 -5.944 C 17.242666666666665 -5.618666666666666, 17.24 -5.302, 17.24 -4.994 C 17.24 -4.686, 17.242666666666665 -4.371333333333333, 17.248 -4.05 C 17.253333333333334 -3.7286666666666664, 17.262666666666668 -3.3853333333333326, 17.276 -3.0199999999999996 C 17.281333333333333 -2.812, 17.382666666666665 -2.6799999999999997, 17.58 -2.6239999999999997 L 17.58 -1.7359999999999998 C 17.142666666666663 -1.7759999999999998, 16.805999999999997 -1.9219999999999997, 16.57 -2.174 C 16.334000000000003 -2.4259999999999997, 16.209333333333333 -2.772, 16.196 -3.2119999999999997 Z M 18.084 -1.7359999999999998 L 18.084 -2.6279999999999997 C 18.268 -2.681333333333333, 18.366666666666667 -2.8053333333333335, 18.38 -3 C 18.398666666666667 -3.4666666666666663, 18.410666666666668 -3.915333333333333, 18.416 -4.346 C 18.421333333333333 -4.776666666666666, 18.421333333333333 -5.207333333333333, 18.416 -5.638 C 18.410666666666668 -6.068666666666666, 18.398666666666667 -6.521333333333333, 18.38 -6.9959999999999996 C 18.374666666666666 -7.190666666666667, 18.276 -7.317333333333334, 18.084 -7.3759999999999994 L 18.084 -8.264 C 18.513333333333335 -8.224, 18.846666666666668 -8.078666666666667, 19.084 -7.828 C 19.321333333333335 -7.577333333333334, 19.445333333333334 -7.231999999999999, 19.456 -6.792 C 19.46666666666667 -6.477333333333332, 19.474666666666668 -6.167333333333333, 19.48 -5.861999999999999 C 19.485333333333333 -5.556666666666667, 19.488 -5.256, 19.488 -4.96 C 19.488 -4.664, 19.485333333333333 -4.370666666666667, 19.48 -4.08 C 19.474666666666668 -3.7893333333333334, 19.46666666666667 -3.5, 19.456 -3.2119999999999997 C 19.439999999999998 -2.761333333333333, 19.311999999999998 -2.4126666666666665, 19.072 -2.166 C 18.832 -1.9193333333333331, 18.502666666666666 -1.7759999999999998, 18.084 -1.7359999999999998 Z M 21.944 -1.7999999999999998 L 21.944 -8.2 L 23.003999999999998 -8.2 L 23.003999999999998 -1.7999999999999998 Z " stroke="none" fill-rule="nonzero" fill="#000000" fill-opacity="1" transform="matrix(1,0,0,1,5.05,13.314)" id="text60 l" />
  <path d="M -5 -13.264 L 30 -13.264 L 30 476.2750821210913 L -5 476.2750821210913 Z " stroke="#FF0000" stroke-opacity="1" stroke-width="0.1" stroke-linecap="butt" stroke-linejoin="miter" fill="none" transform="matrix(1,0,0,1,5.05,13.314)" />
</svg>