<?xml version="1.0" encoding="UTF-8"?>
<svg xmlns:xlink="http://www.w3.org/1999/xlink" viewBox="0 0 35.1 339.47813179512593" version="1.1" style="font-synthesis: none;" width="35.1mm" height="339.47813179512593mm" xmlns="http://www.w3.org/2000/svg">
  <defs />
  <style>	</style>
  <path d="M 0 0 L 35.1 0 L 35.1 339.47813179512593 L 0 339.47813179512593 Z " stroke="none" fill-rule="nonzero" fill="#FFFFFF" fill-opacity="1" transform="matrix(1,0,0,1,0,0)" />
  <path d="M 0 318.5961317951259 L 10 318.5961317951259 L 10 320.0961317951259 L 0 320.0961317951259 Z " stroke="none" fill-rule="evenodd" fill="#000000" fill-opacity="1" transform="matrix(1,0,0,1,5.05,13.314)" id="mark1 l" />
  <path d="M 0 312.07886379930704 L 10 312.07886379930704 L 10 313.57886379930704 L 0 313.57886379930704 Z " stroke="none" fill-rule="evenodd" fill="#000000" fill-opacity="1" transform="matrix(1,0,0,1,5.05,13.314)" id="mark2 l" />
  <path d="M 0 305.5615958034881 L 10 305.5615958034881 L 10 307.0615958034881 L 0 307.0615958034881 Z " stroke="none" fill-rule="evenodd" fill="#000000" fill-opacity="1" transform="matrix(1,0,0,1,5.05,13.314)" id="mark3 l" />
  <path d="M 0 299.0443278076692 L 10 299.0443278076692 L 10 300.5443278076692 L 0 300.5443278076692 Z " stroke="none" fill-rule="evenodd" fill="#000000" fill-opacity="1" transform="matrix(1,0,0,1,5.05,13.314)" id="mark4 l" />
  <path d="M 0 292.52705981185034 L 25 292.52705981185034 L 25 294.02705981185034 L 0 294.02705981185034 Z " stroke="none" fill-rule="evenodd" fill="#000000" fill-opacity="1" transform="matrix(1,0,0,1,5.05,13.314)" id="mark5 l" />
  <path d="M 16.18 290.02905981185035 C 16.174666666666667 289.855726478517, 16.173333333333332 289.7163931451837, 16.176 289.61105981185034 C 16.178666666666665 289.505726478517, 16.181333333333335 289.403726478517, 16.183999999999997 289.30505981185036 L 17.264 289.30505981185036 C 17.256 289.3823931451837, 17.25 289.4783931451837, 17.246 289.59305981185037 C 17.241999999999997 289.70772647851703, 17.240666666666666 289.8183931451837, 17.241999999999997 289.92505981185036 C 17.243333333333332 290.03172647851704, 17.246666666666666 290.111726478517, 17.252 290.16505981185037 C 17.262666666666668 290.2850598118503, 17.297333333333334 290.38305981185033, 17.355999999999998 290.45905981185035 C 17.414666666666665 290.5350598118504, 17.497333333333334 290.58905981185035, 17.604 290.62105981185033 L 17.604 291.5130598118503 C 17.110666666666663 291.475726478517, 16.75333333333333 291.34105981185036, 16.532 291.10905981185033 C 16.310666666666666 290.8770598118503, 16.19333333333333 290.51705981185034, 16.18 290.02905981185035 Z M 16.279999999999998 288.69305981185033 L 16.279999999999998 285.04505981185036 L 17.348 285.04505981185036 L 17.348 288.69305981185033 Z M 17.852 288.26905981185035 L 17.852 287.5130598118503 C 17.929333333333332 287.4730598118503, 18.014666666666667 287.4410598118503, 18.107999999999997 287.4170598118503 C 18.20133333333333 287.3930598118503, 18.301333333333332 287.3810598118503, 18.407999999999998 287.3810598118503 C 18.773333333333333 287.3810598118503, 19.047333333333334 287.4963931451837, 19.23 287.7270598118503 C 19.412666666666667 287.957726478517, 19.514666666666663 288.271726478517, 19.535999999999998 288.66905981185033 C 19.546666666666667 288.82905981185036, 19.55333333333333 288.987726478517, 19.555999999999997 289.14505981185033 C 19.558666666666664 289.30239314518366, 19.557333333333332 289.455726478517, 19.552 289.60505981185037 C 19.546666666666667 289.7543931451837, 19.538666666666668 289.8943931451837, 19.528 290.0250598118503 C 19.482666666666667 290.523726478517, 19.353333333333335 290.8890598118503, 19.14 291.12105981185033 C 18.926666666666666 291.35305981185036, 18.581333333333333 291.483726478517, 18.104 291.5130598118503 L 18.104 290.62105981185033 C 18.21333333333333 290.591726478517, 18.296 290.53905981185034, 18.352 290.4630598118503 C 18.408 290.38705981185035, 18.44 290.287726478517, 18.448 290.16505981185037 C 18.471999999999998 289.87439314518366, 18.485999999999997 289.61305981185035, 18.49 289.3810598118503 C 18.494 289.14905981185035, 18.485333333333333 288.927726478517, 18.464 288.71705981185033 C 18.447999999999997 288.5623931451837, 18.396666666666665 288.44705981185035, 18.31 288.37105981185033 C 18.223333333333333 288.29505981185036, 18.090666666666664 288.25705981185035, 17.912 288.25705981185035 C 17.901333333333334 288.25705981185035, 17.890666666666668 288.2583931451837, 17.88 288.2610598118503 C 17.86933333333333 288.263726478517, 17.86 288.26639314518366, 17.852 288.26905981185035 Z M 17.852 285.9770598118503 L 17.852 285.04505981185036 L 19.439999999999998 285.04505981185036 L 19.439999999999998 285.9770598118503 Z M 21.944 291.44505981185034 L 21.944 285.04505981185036 L 23.003999999999998 285.04505981185036 L 23.003999999999998 291.44505981185034 Z " stroke="none" fill-rule="nonzero" fill="#000000" fill-opacity="1" transform="matrix(1,0,0,1,5.05,13.314)" id="text5 l" />
  <path d="M 0 286.00979181603145 L 10 286.00979181603145 L 10 287.50979181603145 L 0 287.50979181603145 Z " stroke="none" fill-rule="evenodd" fill="#000000" fill-opacity="1" transform="matrix(1,0,0,1,5.05,13.314)" id="mark6 l" />
  <path d="M 0 279.49252382021257 L 10 279.49252382021257 L 10 280.99252382021257 L 0 280.99252382021257 Z " stroke="none" fill-rule="evenodd" fill="#000000" fill-opacity="1" transform="matrix(1,0,0,1,5.05,13.314)" id="mark7 l" />
  <path d="M 0 272.9752558243936 L 10 272.9752558243936 L 10 274.4752558243936 L 0 274.4752558243936 Z " stroke="none" fill-rule="evenodd" fill="#000000" fill-opacity="1" transform="matrix(1,0,0,1,5.05,13.314)" id="mark8 l" />
  <path d="M 0 266.45798782857474 L 10 266.45798782857474 L 10 267.95798782857474 L 0 267.95798782857474 Z " stroke="none" fill-rule="evenodd" fill="#000000" fill-opacity="1" transform="matrix(1,0,0,1,5.05,13.314)" id="mark9 l" />
  <path d="M 0 259.94071983275586 L 25 259.94071983275586 L 25 261.44071983275586 L 0 261.44071983275586 Z " stroke="none" fill-rule="evenodd" fill="#000000" fill-opacity="1" transform="matrix(1,0,0,1,5.05,13.314)" id="mark10 l" />
  <path d="M 14.323999999999998 258.89071983275585 L 14.323999999999998 253.44671983275586 L 13.871999999999998 253.44671983275586 L 13.839999999999998 253.06671983275584 L 14.543999999999999 252.49071983275584 L 15.424 252.49071983275584 L 15.424 258.89071983275585 Z M 16.196 257.47871983275587 C 16.188000000000002 257.04938649942255, 16.182666666666666 256.63271983275587, 16.18 256.22871983275587 C 16.177333333333333 255.82471983275587, 16.177999999999997 255.4293864994225, 16.182 255.04271983275584 C 16.186 254.65605316608918, 16.190666666666665 254.27471983275586, 16.196 253.89871983275586 C 16.209333333333333 253.4587198327559, 16.334000000000003 253.11338649942252, 16.57 252.86271983275586 C 16.805999999999997 252.6120531660892, 17.142666666666663 252.46671983275587, 17.58 252.42671983275585 L 17.58 253.31471983275586 C 17.382666666666665 253.37071983275587, 17.281333333333333 253.50005316608917, 17.276 253.70271983275586 C 17.262666666666668 254.0733864994225, 17.253333333333334 254.4213864994225, 17.248 254.74671983275584 C 17.242666666666665 255.07205316608918, 17.24 255.38871983275584, 17.24 255.69671983275586 C 17.24 256.0047198327558, 17.242666666666665 256.3193864994225, 17.248 256.64071983275585 C 17.253333333333334 256.9620531660892, 17.262666666666668 257.3053864994225, 17.276 257.6707198327558 C 17.281333333333333 257.87871983275585, 17.382666666666665 258.01071983275585, 17.58 258.06671983275584 L 17.58 258.95471983275587 C 17.142666666666663 258.91471983275585, 16.805999999999997 258.7687198327559, 16.57 258.5167198327558 C 16.334000000000003 258.2647198327559, 16.209333333333333 257.91871983275587, 16.196 257.47871983275587 Z M 18.084 258.95471983275587 L 18.084 258.0627198327559 C 18.268 258.00938649942253, 18.366666666666667 257.8853864994225, 18.38 257.69071983275586 C 18.398666666666667 257.2240531660892, 18.410666666666668 256.77538649942255, 18.416 256.34471983275586 C 18.421333333333333 255.9140531660892, 18.421333333333333 255.48338649942252, 18.416 255.05271983275586 C 18.410666666666668 254.6220531660892, 18.398666666666667 254.1693864994225, 18.38 253.69471983275585 C 18.374666666666666 253.50005316608917, 18.276 253.3733864994225, 18.084 253.31471983275586 L 18.084 252.42671983275585 C 18.513333333333335 252.46671983275587, 18.846666666666668 252.6120531660892, 19.084 252.86271983275586 C 19.321333333333335 253.11338649942252, 19.445333333333334 253.4587198327559, 19.456 253.89871983275586 C 19.46666666666667 254.21338649942254, 19.474666666666668 254.52338649942251, 19.48 254.82871983275584 C 19.485333333333333 255.13405316608916, 19.488 255.43471983275583, 19.488 255.73071983275585 C 19.488 256.0267198327558, 19.485333333333333 256.32005316608917, 19.48 256.6107198327559 C 19.474666666666668 256.90138649942253, 19.46666666666667 257.19071983275586, 19.456 257.47871983275587 C 19.439999999999998 257.92938649942255, 19.311999999999998 258.2780531660892, 19.072 258.52471983275586 C 18.832 258.77138649942253, 18.502666666666666 258.91471983275585, 18.084 258.95471983275587 Z M 21.944 258.89071983275585 L 21.944 252.49071983275584 L 23.003999999999998 252.49071983275584 L 23.003999999999998 258.89071983275585 Z " stroke="none" fill-rule="nonzero" fill="#000000" fill-opacity="1" transform="matrix(1,0,0,1,5.05,13.314)" id="text10 l" />
  <path d="M 0 253.42345183693698 L 10 253.42345183693698 L 10 254.92345183693698 L 0 254.92345183693698 Z " stroke="none" fill-rule="evenodd" fill="#000000" fill-opacity="1" transform="matrix(1,0,0,1,5.05,13.314)" id="mark11 l" />
  <path d="M 0 246.90618384111806 L 10 246.90618384111806 L 10 248.40618384111806 L 0 248.40618384111806 Z " stroke="none" fill-rule="evenodd" fill="#000000" fill-opacity="1" transform="matrix(1,0,0,1,5.05,13.314)" id="mark12 l" />
  <path d="M 0 240.38891584529915 L 10 240.38891584529915 L 10 241.88891584529915 L 0 241.88891584529915 Z " stroke="none" fill-rule="evenodd" fill="#000000" fill-opacity="1" transform="matrix(1,0,0,1,5.05,13.314)" id="mark13 l" />
  <path d="M 0 233.87164784948027 L 10 233.87164784948027 L 10 235.37164784948027 L 0 235.37164784948027 Z " stroke="none" fill-rule="evenodd" fill="#000000" fill-opacity="1" transform="matrix(1,0,0,1,5.05,13.314)" id="mark14 l" />
  <path d="M 0 227.35437985366138 L 25 227.35437985366138 L 25 228.85437985366138 L 0 228.85437985366138 Z " stroke="none" fill-rule="evenodd" fill="#000000" fill-opacity="1" transform="matrix(1,0,0,1,5.05,13.314)" id="mark15 l" />
  <path d="M 14.331999999999999 226.2723798536614 L 14.331999999999999 220.8283798536614 L 13.879999999999999 220.8283798536614 L 13.847999999999999 220.44837985366138 L 14.552 219.87237985366139 L 15.432 219.87237985366139 L 15.432 226.2723798536614 Z M 16.18 224.8563798536614 C 16.174666666666667 224.68304652032808, 16.173333333333332 224.54371318699475, 16.176 224.4383798536614 C 16.178666666666665 224.33304652032808, 16.181333333333335 224.23104652032808, 16.183999999999997 224.1323798536614 L 17.264 224.1323798536614 C 17.256 224.20971318699472, 17.25 224.3057131869947, 17.246 224.4203798536614 C 17.241999999999997 224.53504652032802, 17.240666666666666 224.64571318699473, 17.241999999999997 224.75237985366138 C 17.243333333333332 224.85904652032804, 17.246666666666666 224.93904652032805, 17.252 224.9923798536614 C 17.262666666666668 225.1123798536614, 17.297333333333334 225.21037985366138, 17.355999999999998 225.2863798536614 C 17.414666666666665 225.36237985366137, 17.497333333333334 225.4163798536614, 17.604 225.44837985366138 L 17.604 226.3403798536614 C 17.110666666666663 226.30304652032805, 16.75333333333333 226.1683798536614, 16.532 225.93637985366138 C 16.310666666666666 225.7043798536614, 16.19333333333333 225.3443798536614, 16.18 224.8563798536614 Z M 16.279999999999998 223.52037985366138 L 16.279999999999998 219.87237985366139 L 17.348 219.87237985366139 L 17.348 223.52037985366138 Z M 17.852 223.0963798536614 L 17.852 222.3403798536614 C 17.929333333333332 222.3003798536614, 18.014666666666667 222.2683798536614, 18.107999999999997 222.2443798536614 C 18.20133333333333 222.2203798536614, 18.301333333333332 222.2083798536614, 18.407999999999998 222.2083798536614 C 18.773333333333333 222.2083798536614, 19.047333333333334 222.32371318699472, 19.23 222.5543798536614 C 19.412666666666667 222.78504652032808, 19.514666666666663 223.09904652032805, 19.535999999999998 223.49637985366138 C 19.546666666666667 223.6563798536614, 19.55333333333333 223.81504652032805, 19.555999999999997 223.97237985366138 C 19.558666666666664 224.12971318699473, 19.557333333333332 224.28304652032807, 19.552 224.4323798536614 C 19.546666666666667 224.5817131869947, 19.538666666666668 224.7217131869947, 19.528 224.8523798536614 C 19.482666666666667 225.35104652032805, 19.353333333333335 225.7163798536614, 19.14 225.94837985366138 C 18.926666666666666 226.1803798536614, 18.581333333333333 226.3110465203281, 18.104 226.3403798536614 L 18.104 225.44837985366138 C 18.21333333333333 225.41904652032804, 18.296 225.36637985366139, 18.352 225.2903798536614 C 18.408 225.2143798536614, 18.44 225.11504652032806, 18.448 224.9923798536614 C 18.471999999999998 224.7017131869947, 18.485999999999997 224.4403798536614, 18.49 224.2083798536614 C 18.494 223.9763798536614, 18.485333333333333 223.75504652032805, 18.464 223.54437985366138 C 18.447999999999997 223.3897131869947, 18.396666666666665 223.2743798536614, 18.31 223.19837985366138 C 18.223333333333333 223.1223798536614, 18.090666666666664 223.0843798536614, 17.912 223.0843798536614 C 17.901333333333334 223.0843798536614, 17.890666666666668 223.08571318699472, 17.88 223.0883798536614 C 17.86933333333333 223.09104652032806, 17.86 223.0937131869947, 17.852 223.0963798536614 Z M 17.852 220.8043798536614 L 17.852 219.87237985366139 L 19.439999999999998 219.87237985366139 L 19.439999999999998 220.8043798536614 Z M 21.944 226.2723798536614 L 21.944 219.87237985366139 L 23.003999999999998 219.87237985366139 L 23.003999999999998 226.2723798536614 Z " stroke="none" fill-rule="nonzero" fill="#000000" fill-opacity="1" transform="matrix(1,0,0,1,5.05,13.314)" id="text15 l" />
  <path d="M 0 220.83711185784247 L 10 220.83711185784247 L 10 222.33711185784247 L 0 222.33711185784247 Z " stroke="none" fill-rule="evenodd" fill="#000000" fill-opacity="1" transform="matrix(1,0,0,1,5.05,13.314)" id="mark16 l" />
  <path d="M 0 214.31984386202356 L 10 214.31984386202356 L 10 215.81984386202356 L 0 215.81984386202356 Z " stroke="none" fill-rule="evenodd" fill="#000000" fill-opacity="1" transform="matrix(1,0,0,1,5.05,13.314)" id="mark17 l" />
  <path d="M 0 207.80257586620468 L 10 207.80257586620468 L 10 209.30257586620468 L 0 209.30257586620468 Z " stroke="none" fill-rule="evenodd" fill="#000000" fill-opacity="1" transform="matrix(1,0,0,1,5.05,13.314)" id="mark18 l" />
  <path d="M 0 201.2853078703858 L 10 201.2853078703858 L 10 202.7853078703858 L 0 202.7853078703858 Z " stroke="none" fill-rule="evenodd" fill="#000000" fill-opacity="1" transform="matrix(1,0,0,1,5.05,13.314)" id="mark19 l" />
  <path d="M 0 194.76803987456688 L 25 194.76803987456688 L 25 196.26803987456688 L 0 196.26803987456688 Z " stroke="none" fill-rule="evenodd" fill="#000000" fill-opacity="1" transform="matrix(1,0,0,1,5.05,13.314)" id="mark20 l" />
  <path d="M 12.319999999999999 193.7180398745669 C 12.317333333333334 193.61937320790025, 12.315333333333331 193.53070654123357, 12.313999999999998 193.4520398745669 C 12.312666666666665 193.37337320790024, 12.311333333333334 193.29937320790026, 12.309999999999999 193.2300398745669 C 12.308666666666667 193.16070654123354, 12.308 193.08870654123353, 12.308 193.0140398745669 C 12.308 192.93937320790025, 12.308 192.85470654123355, 12.308 192.7600398745669 C 12.308 192.66537320790025, 12.309333333333335 192.5540398745669, 12.312 192.4260398745669 C 12.32 192.13270654123357, 12.37 191.87070654123357, 12.462 191.6400398745669 C 12.554 191.40937320790022, 12.687999999999999 191.20337320790023, 12.863999999999999 191.0220398745669 C 13.04 190.84070654123357, 13.257333333333333 190.67937320790023, 13.515999999999998 190.5380398745669 L 14.047999999999998 190.2500398745669 C 14.234666666666666 190.14870654123357, 14.354 190.02670654123358, 14.405999999999999 189.8840398745669 C 14.457999999999998 189.7413732079002, 14.488 189.60737320790022, 14.495999999999999 189.4820398745669 C 14.506666666666664 189.33537320790023, 14.512666666666664 189.17870654123357, 14.514 189.0120398745669 C 14.51533333333333 188.84537320790025, 14.511999999999997 188.68870654123359, 14.504 188.5420398745669 C 14.498666666666665 188.4380398745669, 14.468666666666666 188.3520398745669, 14.413999999999998 188.2840398745669 C 14.359333333333332 188.2160398745669, 14.279999999999998 188.16737320790023, 14.175999999999998 188.13803987456689 L 14.175999999999998 187.2500398745669 C 14.663999999999998 187.28203987456692, 15.014 187.41337320790024, 15.225999999999999 187.6440398745669 C 15.437999999999999 187.87470654123354, 15.554666666666666 188.23537320790024, 15.575999999999999 188.7260398745669 C 15.578666666666663 188.7900398745669, 15.580666666666666 188.85537320790024, 15.581999999999999 188.9220398745669 C 15.583333333333332 188.98870654123357, 15.584 189.05337320790022, 15.584 189.1160398745669 C 15.584 189.17870654123357, 15.583333333333332 189.24070654123355, 15.581999999999999 189.3020398745669 C 15.580666666666666 189.36337320790022, 15.578666666666663 189.42337320790023, 15.575999999999999 189.4820398745669 C 15.565333333333331 189.76737320790025, 15.512 190.0140398745669, 15.415999999999999 190.2220398745669 C 15.32 190.4300398745669, 15.19 190.6100398745669, 15.026 190.7620398745669 C 14.862 190.9140398745669, 14.672 191.0500398745669, 14.456 191.1700398745669 L 13.851999999999999 191.4980398745669 C 13.737333333333332 191.55937320790025, 13.647333333333332 191.64337320790025, 13.581999999999999 191.7500398745669 C 13.516666666666666 191.85670654123356, 13.469999999999999 191.9700398745669, 13.441999999999998 192.0900398745669 C 13.413999999999998 192.21003987456692, 13.399999999999999 192.32203987456688, 13.399999999999999 192.4260398745669 L 13.399999999999999 193.7180398745669 Z M 12.328 189.6780398745669 C 12.322666666666667 189.56070654123357, 12.318666666666665 189.4460398745669, 12.315999999999999 189.33403987456688 C 12.313333333333333 189.22203987456692, 12.311333333333334 189.11603987456692, 12.309999999999999 189.0160398745669 C 12.308666666666667 188.91603987456688, 12.309333333333335 188.81937320790024, 12.312 188.7260398745669 C 12.330666666666666 188.2380398745669, 12.447333333333333 187.87870654123358, 12.661999999999999 187.6480398745669 C 12.876666666666665 187.41737320790023, 13.213333333333331 187.28470654123356, 13.671999999999999 187.2500398745669 L 13.671999999999999 188.1420398745669 C 13.576 188.17137320790022, 13.505333333333333 188.2180398745669, 13.459999999999999 188.2820398745669 C 13.414666666666665 188.34603987456688, 13.390666666666664 188.42337320790023, 13.387999999999998 188.5140398745669 C 13.382666666666665 188.7220398745669, 13.379333333333333 188.91537320790025, 13.378 189.0940398745669 C 13.376666666666667 189.27270654123356, 13.381333333333334 189.46737320790024, 13.392 189.6780398745669 Z M 13.904 193.7180398745669 L 13.904 192.7860398745669 L 15.5 192.7860398745669 L 15.5 193.7180398745669 Z M 16.196 192.3060398745669 C 16.188000000000002 191.87670654123355, 16.182666666666666 191.4600398745669, 16.18 191.0560398745669 C 16.177333333333333 190.6520398745669, 16.177999999999997 190.25670654123357, 16.182 189.87003987456688 C 16.186 189.48337320790023, 16.190666666666665 189.1020398745669, 16.196 188.7260398745669 C 16.209333333333333 188.2860398745669, 16.334000000000003 187.94070654123357, 16.57 187.6900398745669 C 16.805999999999997 187.43937320790025, 17.142666666666663 187.29403987456692, 17.58 187.2540398745669 L 17.58 188.1420398745669 C 17.382666666666665 188.19803987456692, 17.281333333333333 188.32737320790025, 17.276 188.5300398745669 C 17.262666666666668 188.90070654123357, 17.253333333333334 189.24870654123356, 17.248 189.5740398745669 C 17.242666666666665 189.89937320790023, 17.24 190.2160398745669, 17.24 190.5240398745669 C 17.24 190.8320398745669, 17.242666666666665 191.14670654123356, 17.248 191.4680398745669 C 17.253333333333334 191.78937320790024, 17.262666666666668 192.13270654123357, 17.276 192.4980398745669 C 17.281333333333333 192.7060398745669, 17.382666666666665 192.8380398745669, 17.58 192.8940398745669 L 17.58 193.7820398745669 C 17.142666666666663 193.7420398745669, 16.805999999999997 193.59603987456688, 16.57 193.3440398745669 C 16.334000000000003 193.0920398745669, 16.209333333333333 192.7460398745669, 16.196 192.3060398745669 Z M 18.084 193.7820398745669 L 18.084 192.8900398745669 C 18.268 192.83670654123358, 18.366666666666667 192.71270654123356, 18.38 192.5180398745669 C 18.398666666666667 192.0513732079002, 18.410666666666668 191.60270654123357, 18.416 191.1720398745669 C 18.421333333333333 190.74137320790024, 18.421333333333333 190.31070654123357, 18.416 189.8800398745669 C 18.410666666666668 189.44937320790024, 18.398666666666667 188.99670654123355, 18.38 188.5220398745669 C 18.374666666666666 188.32737320790022, 18.276 188.20070654123356, 18.084 188.1420398745669 L 18.084 187.2540398745669 C 18.513333333333335 187.29403987456692, 18.846666666666668 187.43937320790025, 19.084 187.6900398745669 C 19.321333333333335 187.94070654123357, 19.445333333333334 188.2860398745669, 19.456 188.7260398745669 C 19.46666666666667 189.04070654123356, 19.474666666666668 189.35070654123356, 19.48 189.6560398745669 C 19.485333333333333 189.9613732079002, 19.488 190.26203987456688, 19.488 190.5580398745669 C 19.488 190.8540398745669, 19.485333333333333 191.14737320790022, 19.48 191.4380398745669 C 19.474666666666668 191.72870654123358, 19.46666666666667 192.0180398745669, 19.456 192.3060398745669 C 19.439999999999998 192.75670654123357, 19.311999999999998 193.10537320790024, 19.072 193.35203987456688 C 18.832 193.59870654123353, 18.502666666666666 193.7420398745669, 18.084 193.7820398745669 Z M 21.944 193.7180398745669 L 21.944 187.3180398745669 L 23.003999999999998 187.3180398745669 L 23.003999999999998 193.7180398745669 Z " stroke="none" fill-rule="nonzero" fill="#000000" fill-opacity="1" transform="matrix(1,0,0,1,5.05,13.314)" id="text20 l" />
  <path d="M 0 188.250771878748 L 10 188.250771878748 L 10 189.750771878748 L 0 189.750771878748 Z " stroke="none" fill-rule="evenodd" fill="#000000" fill-opacity="1" transform="matrix(1,0,0,1,5.05,13.314)" id="mark21 l" />
  <path d="M 0 181.7335038829291 L 10 181.7335038829291 L 10 183.2335038829291 L 0 183.2335038829291 Z " stroke="none" fill-rule="evenodd" fill="#000000" fill-opacity="1" transform="matrix(1,0,0,1,5.05,13.314)" id="mark22 l" />
  <path d="M 0 175.2162358871102 L 10 175.2162358871102 L 10 176.7162358871102 L 0 176.7162358871102 Z " stroke="none" fill-rule="evenodd" fill="#000000" fill-opacity="1" transform="matrix(1,0,0,1,5.05,13.314)" id="mark23 l" />
  <path d="M 0 168.69896789129132 L 10 168.69896789129132 L 10 170.19896789129132 L 0 170.19896789129132 Z " stroke="none" fill-rule="evenodd" fill="#000000" fill-opacity="1" transform="matrix(1,0,0,1,5.05,13.314)" id="mark24 l" />
  <path d="M 0 162.1816998954724 L 25 162.1816998954724 L 25 163.6816998954724 L 0 163.6816998954724 Z " stroke="none" fill-rule="evenodd" fill="#000000" fill-opacity="1" transform="matrix(1,0,0,1,5.05,13.314)" id="mark25 l" />
  <path d="M 12.328 161.13169989547242 C 12.325333333333333 161.03303322880575, 12.323333333333332 160.9443665621391, 12.322 160.86569989547243 C 12.320666666666666 160.78703322880577, 12.319333333333333 160.71303322880576, 12.318 160.64369989547242 C 12.316666666666666 160.5743665621391, 12.315999999999999 160.5023665621391, 12.316 160.42769989547241 C 12.315999999999999 160.35303322880574, 12.315999999999999 160.26836656213908, 12.316 160.17369989547242 C 12.315999999999999 160.07903322880577, 12.317333333333334 159.96769989547244, 12.32 159.83969989547242 C 12.328 159.5463665621391, 12.378 159.2843665621391, 12.47 159.05369989547242 C 12.562000000000001 158.82303322880574, 12.696 158.61703322880575, 12.872 158.43569989547242 C 13.048 158.2543665621391, 13.265333333333334 158.09303322880575, 13.524000000000001 157.95169989547242 L 14.056000000000001 157.66369989547243 C 14.242666666666668 157.5623665621391, 14.362000000000002 157.44036656213908, 14.414 157.29769989547242 C 14.466000000000001 157.15503322880576, 14.495999999999999 157.02103322880578, 14.504 156.89569989547243 C 14.514666666666667 156.74903322880579, 14.520666666666667 156.5923665621391, 14.522 156.42569989547243 C 14.523333333333333 156.25903322880578, 14.520000000000001 156.10236656213908, 14.512 155.95569989547243 C 14.506666666666666 155.85169989547245, 14.476666666666667 155.76569989547244, 14.422 155.69769989547243 C 14.367333333333335 155.6296998954724, 14.288 155.58103322880575, 14.184000000000001 155.5516998954724 L 14.184000000000001 154.66369989547243 C 14.672 154.69569989547244, 15.022000000000002 154.82703322880576, 15.234 155.0576998954724 C 15.446000000000002 155.2883665621391, 15.562666666666667 155.64903322880576, 15.584 156.13969989547243 C 15.586666666666668 156.20369989547243, 15.588666666666668 156.26903322880577, 15.59 156.33569989547243 C 15.591333333333335 156.4023665621391, 15.592000000000002 156.46703322880575, 15.592 156.52969989547242 C 15.592000000000002 156.5923665621391, 15.591333333333335 156.6543665621391, 15.59 156.71569989547243 C 15.588666666666668 156.77703322880575, 15.586666666666668 156.83703322880575, 15.584 156.89569989547243 C 15.573333333333332 157.18103322880575, 15.52 157.42769989547241, 15.424 157.6356998954724 C 15.328 157.8436998954724, 15.197999999999999 158.02369989547242, 15.033999999999999 158.17569989547243 C 14.87 158.32769989547242, 14.68 158.46369989547242, 14.464 158.58369989547242 L 13.86 158.91169989547242 C 13.745333333333335 158.97303322880578, 13.655333333333335 159.05703322880578, 13.59 159.16369989547243 C 13.524666666666668 159.2703665621391, 13.478000000000002 159.38369989547243, 13.45 159.50369989547244 C 13.422 159.6236998954724, 13.408 159.7356998954724, 13.408 159.83969989547242 L 13.408 161.13169989547242 Z M 12.336 157.09169989547243 C 12.330666666666666 156.9743665621391, 12.326666666666664 156.8596998954724, 12.324 156.7476998954724 C 12.321333333333332 156.6356998954724, 12.319333333333333 156.52969989547242, 12.318 156.42969989547242 C 12.316666666666666 156.32969989547243, 12.317333333333334 156.23303322880577, 12.32 156.13969989547243 C 12.338666666666668 155.65169989547243, 12.455333333333336 155.29236656213908, 12.67 155.06169989547243 C 12.884666666666668 154.83103322880578, 13.221333333333334 154.69836656213909, 13.68 154.66369989547243 L 13.68 155.55569989547243 C 13.584 155.58503322880574, 13.513333333333332 155.63169989547242, 13.468 155.69569989547242 C 13.422666666666668 155.7596998954724, 13.398666666666667 155.83703322880575, 13.396 155.92769989547241 C 13.390666666666666 156.1356998954724, 13.387333333333332 156.32903322880577, 13.386 156.50769989547243 C 13.384666666666666 156.68636656213909, 13.389333333333333 156.88103322880576, 13.4 157.09169989547243 Z M 13.911999999999999 161.13169989547242 L 13.911999999999999 160.19969989547243 L 15.508 160.19969989547243 L 15.508 161.13169989547242 Z M 16.18 159.71569989547243 C 16.174666666666667 159.54236656213908, 16.173333333333332 159.40303322880575, 16.176 159.29769989547242 C 16.178666666666665 159.19236656213909, 16.181333333333335 159.09036656213908, 16.183999999999997 158.99169989547244 L 17.264 158.99169989547244 C 17.256 159.06903322880578, 17.25 159.16503322880575, 17.246 159.27969989547242 C 17.241999999999997 159.39436656213908, 17.240666666666666 159.50503322880576, 17.241999999999997 159.6116998954724 C 17.243333333333332 159.71836656213907, 17.246666666666666 159.79836656213908, 17.252 159.85169989547242 C 17.262666666666668 159.97169989547243, 17.297333333333334 160.06969989547244, 17.355999999999998 160.14569989547243 C 17.414666666666665 160.22169989547243, 17.497333333333334 160.2756998954724, 17.604 160.3076998954724 L 17.604 161.19969989547243 C 17.110666666666663 161.16236656213908, 16.75333333333333 161.0276998954724, 16.532 160.7956998954724 C 16.310666666666666 160.5636998954724, 16.19333333333333 160.20369989547243, 16.18 159.71569989547243 Z M 16.279999999999998 158.3796998954724 L 16.279999999999998 154.73169989547242 L 17.348 154.73169989547242 L 17.348 158.3796998954724 Z M 17.852 157.95569989547243 L 17.852 157.19969989547243 C 17.929333333333332 157.15969989547244, 18.014666666666667 157.12769989547243, 18.107999999999997 157.10369989547243 C 18.20133333333333 157.07969989547243, 18.301333333333332 157.06769989547243, 18.407999999999998 157.06769989547243 C 18.773333333333333 157.06769989547243, 19.047333333333334 157.18303322880575, 19.23 157.41369989547243 C 19.412666666666667 157.64436656213908, 19.514666666666663 157.95836656213908, 19.535999999999998 158.3556998954724 C 19.546666666666667 158.5156998954724, 19.55333333333333 158.67436656213908, 19.555999999999997 158.8316998954724 C 19.558666666666664 158.98903322880574, 19.557333333333332 159.1423665621391, 19.552 159.29169989547242 C 19.546666666666667 159.44103322880574, 19.538666666666668 159.58103322880575, 19.528 159.71169989547244 C 19.482666666666667 160.2103665621391, 19.353333333333335 160.5756998954724, 19.14 160.8076998954724 C 18.926666666666666 161.0396998954724, 18.581333333333333 161.1703665621391, 18.104 161.19969989547243 L 18.104 160.3076998954724 C 18.21333333333333 160.2783665621391, 18.296 160.22569989547242, 18.352 160.14969989547242 C 18.408 160.07369989547243, 18.44 159.9743665621391, 18.448 159.85169989547242 C 18.471999999999998 159.56103322880574, 18.485999999999997 159.29969989547243, 18.49 159.06769989547243 C 18.494 158.83569989547243, 18.485333333333333 158.61436656213908, 18.464 158.4036998954724 C 18.447999999999997 158.24903322880576, 18.396666666666665 158.1336998954724, 18.31 158.0576998954724 C 18.223333333333333 157.98169989547242, 18.090666666666664 157.94369989547243, 17.912 157.94369989547243 C 17.901333333333334 157.94369989547243, 17.890666666666668 157.94503322880576, 17.88 157.94769989547243 C 17.86933333333333 157.9503665621391, 17.86 157.95303322880577, 17.852 157.95569989547243 Z M 17.852 155.66369989547243 L 17.852 154.73169989547242 L 19.439999999999998 154.73169989547242 L 19.439999999999998 155.66369989547243 Z M 21.944 161.13169989547242 L 21.944 154.73169989547242 L 23.003999999999998 154.73169989547242 L 23.003999999999998 161.13169989547242 Z " stroke="none" fill-rule="nonzero" fill="#000000" fill-opacity="1" transform="matrix(1,0,0,1,5.05,13.314)" id="text25 l" />
  <path d="M 0 155.66443189965352 L 10 155.66443189965352 L 10 157.16443189965352 L 0 157.16443189965352 Z " stroke="none" fill-rule="evenodd" fill="#000000" fill-opacity="1" transform="matrix(1,0,0,1,5.05,13.314)" id="mark26 l" />
  <path d="M 0 149.1471639038346 L 10 149.1471639038346 L 10 150.6471639038346 L 0 150.6471639038346 Z " stroke="none" fill-rule="evenodd" fill="#000000" fill-opacity="1" transform="matrix(1,0,0,1,5.05,13.314)" id="mark27 l" />
  <path d="M 0 142.62989590801573 L 10 142.62989590801573 L 10 144.12989590801573 L 0 144.12989590801573 Z " stroke="none" fill-rule="evenodd" fill="#000000" fill-opacity="1" transform="matrix(1,0,0,1,5.05,13.314)" id="mark28 l" />
  <path d="M 0 136.11262791219684 L 10 136.11262791219684 L 10 137.61262791219684 L 0 137.61262791219684 Z " stroke="none" fill-rule="evenodd" fill="#000000" fill-opacity="1" transform="matrix(1,0,0,1,5.05,13.314)" id="mark29 l" />
  <path d="M 0 129.59535991637793 L 25 129.59535991637793 L 25 131.09535991637793 L 0 131.09535991637793 Z " stroke="none" fill-rule="evenodd" fill="#000000" fill-opacity="1" transform="matrix(1,0,0,1,5.05,13.314)" id="mark30 l" />
  <path d="M 12.223999999999998 127.12935991637795 C 12.221333333333334 127.0280265830446, 12.219333333333333 126.9440265830446, 12.218 126.87735991637794 C 12.216666666666667 126.81069324971128, 12.216666666666667 126.74269324971127, 12.218 126.67335991637795 C 12.219333333333333 126.6040265830446, 12.221333333333334 126.51469324971129, 12.223999999999998 126.40535991637795 L 13.303999999999998 126.40535991637795 L 13.303999999999998 127.26935991637795 C 13.303999999999998 127.50669324971128, 13.417333333333332 127.65735991637794, 13.643999999999998 127.72135991637795 L 13.643999999999998 128.61335991637796 C 13.155999999999999 128.5760265830446, 12.800666666666665 128.44135991637793, 12.578 128.20935991637793 C 12.355333333333334 127.97735991637794, 12.237333333333332 127.61735991637795, 12.223999999999998 127.12935991637795 Z M 12.292 123.07735991637794 L 12.292 122.14535991637794 L 15.536 122.14535991637794 L 15.536 123.07735991637794 Z M 14.143999999999998 127.72535991637795 C 14.367999999999999 127.66935991637794, 14.483999999999998 127.51869324971128, 14.491999999999999 127.27335991637794 C 14.497333333333334 127.0706932497113, 14.500666666666666 126.88802658304462, 14.501999999999999 126.72535991637795 C 14.503333333333332 126.56269324971129, 14.498666666666665 126.40535991637796, 14.488 126.25335991637795 C 14.48 126.09602658304462, 14.431999999999999 125.96269324971128, 14.344 125.85335991637794 C 14.256 125.74402658304462, 14.089333333333332 125.69202658304462, 13.844 125.69735991637795 L 13.096 125.70535991637794 L 13.068 124.81335991637795 L 14.027999999999999 123.42935991637795 L 15.216 123.42935991637795 L 14.248 124.78135991637795 L 14.28 124.78135991637795 C 14.712 124.78135991637795, 15.028666666666666 124.90402658304461, 15.229999999999999 125.14935991637795 C 15.431333333333333 125.39469324971128, 15.544 125.7720265830446, 15.568 126.28135991637795 C 15.57333333333333 126.35335991637794, 15.576666666666664 126.42535991637794, 15.578 126.49735991637795 C 15.57933333333333 126.56935991637795, 15.579999999999998 126.6400265830446, 15.579999999999998 126.70935991637795 C 15.579999999999998 126.77869324971127, 15.57933333333333 126.8480265830446, 15.578 126.91735991637795 C 15.576666666666664 126.98669324971127, 15.57333333333333 127.05735991637795, 15.568 127.12935991637795 C 15.549333333333333 127.62535991637796, 15.428666666666665 127.99002658304462, 15.206 128.22335991637794 C 14.983333333333334 128.45669324971126, 14.630666666666666 128.5866932497113, 14.148 128.61335991637796 Z M 16.196 127.13335991637794 C 16.188000000000002 126.70402658304462, 16.182666666666666 126.28735991637794, 16.18 125.88335991637794 C 16.177333333333333 125.47935991637794, 16.177999999999997 125.08402658304462, 16.182 124.69735991637795 C 16.186 124.31069324971128, 16.190666666666665 123.92935991637795, 16.196 123.55335991637794 C 16.209333333333333 123.11335991637795, 16.334000000000003 122.76802658304462, 16.57 122.51735991637794 C 16.805999999999997 122.26669324971127, 17.142666666666663 122.12135991637794, 17.58 122.08135991637795 L 17.58 122.96935991637795 C 17.382666666666665 123.02535991637795, 17.281333333333333 123.15469324971127, 17.276 123.35735991637794 C 17.262666666666668 123.7280265830446, 17.253333333333334 124.07602658304461, 17.248 124.40135991637794 C 17.242666666666665 124.72669324971127, 17.24 125.04335991637794, 17.24 125.35135991637794 C 17.24 125.65935991637795, 17.242666666666665 125.97402658304462, 17.248 126.29535991637795 C 17.253333333333334 126.61669324971128, 17.262666666666668 126.96002658304461, 17.276 127.32535991637795 C 17.281333333333333 127.53335991637795, 17.382666666666665 127.66535991637795, 17.58 127.72135991637795 L 17.58 128.60935991637794 C 17.142666666666663 128.56935991637795, 16.805999999999997 128.42335991637793, 16.57 128.17135991637795 C 16.334000000000003 127.91935991637794, 16.209333333333333 127.57335991637794, 16.196 127.13335991637794 Z M 18.084 128.60935991637794 L 18.084 127.71735991637794 C 18.268 127.6640265830446, 18.366666666666667 127.54002658304461, 18.38 127.34535991637794 C 18.398666666666667 126.87869324971129, 18.410666666666668 126.43002658304462, 18.416 125.99935991637794 C 18.421333333333333 125.56869324971129, 18.421333333333333 125.13802658304462, 18.416 124.70735991637795 C 18.410666666666668 124.27669324971129, 18.398666666666667 123.82402658304461, 18.38 123.34935991637795 C 18.374666666666666 123.15469324971129, 18.276 123.02802658304462, 18.084 122.96935991637795 L 18.084 122.08135991637795 C 18.513333333333335 122.12135991637794, 18.846666666666668 122.26669324971127, 19.084 122.51735991637794 C 19.321333333333335 122.76802658304462, 19.445333333333334 123.11335991637795, 19.456 123.55335991637794 C 19.46666666666667 123.86802658304461, 19.474666666666668 124.17802658304461, 19.48 124.48335991637795 C 19.485333333333333 124.78869324971129, 19.488 125.08935991637796, 19.488 125.38535991637795 C 19.488 125.68135991637794, 19.485333333333333 125.9746932497113, 19.48 126.26535991637795 C 19.474666666666668 126.55602658304463, 19.46666666666667 126.84535991637796, 19.456 127.13335991637794 C 19.439999999999998 127.58402658304462, 19.311999999999998 127.93269324971126, 19.072 128.17935991637793 C 18.832 128.4260265830446, 18.502666666666666 128.56935991637795, 18.084 128.60935991637794 Z M 21.944 128.54535991637795 L 21.944 122.14535991637794 L 23.003999999999998 122.14535991637794 L 23.003999999999998 128.54535991637795 Z " stroke="none" fill-rule="nonzero" fill="#000000" fill-opacity="1" transform="matrix(1,0,0,1,5.05,13.314)" id="text30 l" />
  <path d="M 0 123.07809192055905 L 10 123.07809192055905 L 10 124.57809192055905 L 0 124.57809192055905 Z " stroke="none" fill-rule="evenodd" fill="#000000" fill-opacity="1" transform="matrix(1,0,0,1,5.05,13.314)" id="mark31 l" />
  <path d="M 0 116.56082392474013 L 10 116.56082392474013 L 10 118.06082392474013 L 0 118.06082392474013 Z " stroke="none" fill-rule="evenodd" fill="#000000" fill-opacity="1" transform="matrix(1,0,0,1,5.05,13.314)" id="mark32 l" />
  <path d="M 0 110.04355592892125 L 10 110.04355592892125 L 10 111.54355592892125 L 0 111.54355592892125 Z " stroke="none" fill-rule="evenodd" fill="#000000" fill-opacity="1" transform="matrix(1,0,0,1,5.05,13.314)" id="mark33 l" />
  <path d="M 0 103.52628793310234 L 10 103.52628793310234 L 10 105.02628793310234 L 0 105.02628793310234 Z " stroke="none" fill-rule="evenodd" fill="#000000" fill-opacity="1" transform="matrix(1,0,0,1,5.05,13.314)" id="mark34 l" />
  <path d="M 0 97.00901993728345 L 25 97.00901993728345 L 25 98.50901993728345 L 0 98.50901993728345 Z " stroke="none" fill-rule="evenodd" fill="#000000" fill-opacity="1" transform="matrix(1,0,0,1,5.05,13.314)" id="mark35 l" />
  <path d="M 12.232 94.51101993728346 C 12.229333333333333 94.40968660395012, 12.227333333333334 94.32568660395012, 12.226 94.25901993728345 C 12.224666666666668 94.19235327061679, 12.224666666666668 94.1243532706168, 12.226 94.05501993728346 C 12.227333333333334 93.98568660395013, 12.229333333333333 93.8963532706168, 12.232 93.78701993728346 L 13.312 93.78701993728346 L 13.312 94.65101993728346 C 13.312 94.88835327061679, 13.425333333333333 95.03901993728346, 13.652 95.10301993728346 L 13.652 95.99501993728346 C 13.164 95.95768660395012, 12.808666666666667 95.82301993728346, 12.586 95.59101993728346 C 12.363333333333333 95.35901993728346, 12.245333333333335 94.99901993728346, 12.232 94.51101993728346 Z M 12.3 90.45901993728346 L 12.3 89.52701993728346 L 15.544 89.52701993728346 L 15.544 90.45901993728346 Z M 14.152000000000001 95.10701993728347 C 14.376000000000001 95.05101993728346, 14.492 94.90035327061679, 14.5 94.65501993728346 C 14.505333333333333 94.4523532706168, 14.508666666666667 94.26968660395013, 14.51 94.10701993728347 C 14.511333333333333 93.9443532706168, 14.506666666666668 93.78701993728347, 14.496 93.63501993728346 C 14.488 93.47768660395013, 14.440000000000001 93.34435327061679, 14.352 93.23501993728345 C 14.264 93.12568660395013, 14.097333333333335 93.07368660395014, 13.852 93.07901993728346 L 13.104 93.08701993728346 L 13.076 92.19501993728346 L 14.036 90.81101993728346 L 15.224 90.81101993728346 L 14.256 92.16301993728347 L 14.288 92.16301993728347 C 14.719999999999999 92.16301993728347, 15.036666666666665 92.28568660395013, 15.238 92.53101993728346 C 15.439333333333334 92.7763532706168, 15.552 93.15368660395012, 15.576 93.66301993728347 C 15.581333333333333 93.73501993728345, 15.584666666666667 93.80701993728346, 15.586 93.87901993728346 C 15.587333333333333 93.95101993728346, 15.588000000000001 94.02168660395013, 15.588000000000001 94.09101993728346 C 15.588000000000001 94.1603532706168, 15.587333333333333 94.22968660395013, 15.586 94.29901993728346 C 15.584666666666667 94.3683532706168, 15.581333333333333 94.43901993728346, 15.576 94.51101993728346 C 15.557333333333334 95.00701993728347, 15.436666666666667 95.37168660395014, 15.214 95.60501993728346 C 14.991333333333333 95.8383532706168, 14.638666666666666 95.9683532706168, 14.156 95.99501993728346 Z M 16.18 94.51101993728346 C 16.174666666666667 94.33768660395012, 16.173333333333332 94.19835327061679, 16.176 94.09301993728346 C 16.178666666666665 93.98768660395012, 16.181333333333335 93.88568660395012, 16.183999999999997 93.78701993728346 L 17.264 93.78701993728346 C 17.256 93.86435327061679, 17.25 93.96035327061679, 17.246 94.07501993728346 C 17.241999999999997 94.18968660395012, 17.240666666666666 94.3003532706168, 17.241999999999997 94.40701993728347 C 17.243333333333332 94.51368660395013, 17.246666666666666 94.59368660395012, 17.252 94.64701993728346 C 17.262666666666668 94.76701993728346, 17.297333333333334 94.86501993728346, 17.355999999999998 94.94101993728346 C 17.414666666666665 95.01701993728346, 17.497333333333334 95.07101993728347, 17.604 95.10301993728346 L 17.604 95.99501993728346 C 17.110666666666663 95.95768660395012, 16.75333333333333 95.82301993728346, 16.532 95.59101993728346 C 16.310666666666666 95.35901993728346, 16.19333333333333 94.99901993728346, 16.18 94.51101993728346 Z M 16.279999999999998 93.17501993728347 L 16.279999999999998 89.52701993728346 L 17.348 89.52701993728346 L 17.348 93.17501993728347 Z M 17.852 92.75101993728346 L 17.852 91.99501993728346 C 17.929333333333332 91.95501993728345, 18.014666666666667 91.92301993728346, 18.107999999999997 91.89901993728346 C 18.20133333333333 91.87501993728347, 18.301333333333332 91.86301993728347, 18.407999999999998 91.86301993728347 C 18.773333333333333 91.86301993728347, 19.047333333333334 91.9783532706168, 19.23 92.20901993728346 C 19.412666666666667 92.43968660395012, 19.514666666666663 92.75368660395013, 19.535999999999998 93.15101993728346 C 19.546666666666667 93.31101993728346, 19.55333333333333 93.46968660395012, 19.555999999999997 93.62701993728346 C 19.558666666666664 93.7843532706168, 19.557333333333332 93.93768660395014, 19.552 94.08701993728346 C 19.546666666666667 94.2363532706168, 19.538666666666668 94.37635327061679, 19.528 94.50701993728346 C 19.482666666666667 95.00568660395012, 19.353333333333335 95.37101993728346, 19.14 95.60301993728346 C 18.926666666666666 95.83501993728346, 18.581333333333333 95.96568660395013, 18.104 95.99501993728346 L 18.104 95.10301993728346 C 18.21333333333333 95.07368660395014, 18.296 95.02101993728346, 18.352 94.94501993728346 C 18.408 94.86901993728347, 18.44 94.76968660395013, 18.448 94.64701993728346 C 18.471999999999998 94.35635327061681, 18.485999999999997 94.09501993728347, 18.49 93.86301993728347 C 18.494 93.63101993728345, 18.485333333333333 93.40968660395012, 18.464 93.19901993728347 C 18.447999999999997 93.0443532706168, 18.396666666666665 92.92901993728347, 18.31 92.85301993728346 C 18.223333333333333 92.77701993728346, 18.090666666666664 92.73901993728346, 17.912 92.73901993728346 C 17.901333333333334 92.73901993728346, 17.890666666666668 92.7403532706168, 17.88 92.74301993728346 C 17.86933333333333 92.74568660395012, 17.86 92.74835327061679, 17.852 92.75101993728346 Z M 17.852 90.45901993728346 L 17.852 89.52701993728346 L 19.439999999999998 89.52701993728346 L 19.439999999999998 90.45901993728346 Z M 21.944 95.92701993728346 L 21.944 89.52701993728346 L 23.003999999999998 89.52701993728346 L 23.003999999999998 95.92701993728346 Z " stroke="none" fill-rule="nonzero" fill="#000000" fill-opacity="1" transform="matrix(1,0,0,1,5.05,13.314)" id="text35 l" />
  <path d="M 0 90.49175194146457 L 10 90.49175194146457 L 10 91.99175194146457 L 0 91.99175194146457 Z " stroke="none" fill-rule="evenodd" fill="#000000" fill-opacity="1" transform="matrix(1,0,0,1,5.05,13.314)" id="mark36 l" />
  <path d="M 0 83.97448394564566 L 10 83.97448394564566 L 10 85.47448394564566 L 0 85.47448394564566 Z " stroke="none" fill-rule="evenodd" fill="#000000" fill-opacity="1" transform="matrix(1,0,0,1,5.05,13.314)" id="mark37 l" />
  <path d="M 0 77.45721594982678 L 10 77.45721594982678 L 10 78.95721594982678 L 0 78.95721594982678 Z " stroke="none" fill-rule="evenodd" fill="#000000" fill-opacity="1" transform="matrix(1,0,0,1,5.05,13.314)" id="mark38 l" />
  <path d="M 0 70.93994795400786 L 10 70.93994795400786 L 10 72.43994795400786 L 0 72.43994795400786 Z " stroke="none" fill-rule="evenodd" fill="#000000" fill-opacity="1" transform="matrix(1,0,0,1,5.05,13.314)" id="mark39 l" />
  <path d="M 0 64.42267995818895 L 25 64.42267995818895 L 25 65.92267995818895 L 0 65.92267995818895 Z " stroke="none" fill-rule="evenodd" fill="#000000" fill-opacity="1" transform="matrix(1,0,0,1,5.05,13.314)" id="mark40 l" />
  <path d="M 11.739999999999998 61.688679958188956 L 11.739999999999998 60.81267995818895 L 12.455999999999998 58.932679958188956 L 13.495999999999999 58.932679958188956 L 12.771999999999998 60.76467995818896 L 13.171999999999997 60.76467995818896 L 13.171999999999997 61.688679958188956 Z M 13.675999999999998 63.372679958188954 L 13.675999999999998 56.972679958188955 L 14.683999999999997 56.972679958188955 L 14.683999999999997 63.372679958188954 Z M 15.187999999999999 61.688679958188956 L 15.187999999999999 60.76467995818896 L 15.655999999999999 60.76467995818896 L 15.655999999999999 61.688679958188956 Z M 16.195999999999998 61.960679958188955 C 16.188 61.531346624855615, 16.182666666666666 61.11467995818896, 16.18 60.710679958188955 C 16.177333333333333 60.30667995818895, 16.177999999999997 59.911346624855625, 16.182 59.524679958188955 C 16.186 59.138013291522284, 16.190666666666665 58.756679958188954, 16.195999999999998 58.380679958188956 C 16.20933333333333 57.94067995818895, 16.333999999999996 57.59534662485562, 16.569999999999997 57.344679958188955 C 16.805999999999997 57.09401329152229, 17.142666666666663 56.94867995818896, 17.58 56.908679958188955 L 17.58 57.79667995818895 C 17.382666666666665 57.85267995818896, 17.281333333333333 57.982013291522286, 17.275999999999996 58.18467995818895 C 17.262666666666664 58.55534662485562, 17.25333333333333 58.90334662485563, 17.247999999999998 59.228679958188955 C 17.242666666666665 59.554013291522296, 17.24 59.87067995818896, 17.24 60.17867995818895 C 17.24 60.48667995818896, 17.242666666666665 60.801346624855626, 17.247999999999998 61.122679958188954 C 17.25333333333333 61.44401329152228, 17.262666666666664 61.787346624855616, 17.275999999999996 62.152679958188955 C 17.281333333333333 62.36067995818895, 17.382666666666665 62.49267995818895, 17.58 62.548679958188956 L 17.58 63.436679958188954 C 17.142666666666663 63.396679958188955, 16.805999999999997 63.250679958188954, 16.569999999999997 62.99867995818895 C 16.333999999999996 62.74667995818895, 16.20933333333333 62.400679958188945, 16.195999999999998 61.960679958188955 Z M 18.084 63.436679958188954 L 18.084 62.54467995818895 C 18.268 62.491346624855616, 18.366666666666667 62.367346624855614, 18.38 62.17267995818895 C 18.398666666666664 61.70601329152228, 18.410666666666664 61.257346624855614, 18.415999999999997 60.826679958188954 C 18.42133333333333 60.39601329152228, 18.42133333333333 59.96534662485561, 18.415999999999997 59.53467995818895 C 18.410666666666664 59.10401329152228, 18.398666666666664 58.65134662485562, 18.38 58.176679958188956 C 18.374666666666666 57.98201329152229, 18.276 57.85534662485563, 18.084 57.79667995818895 L 18.084 56.908679958188955 C 18.513333333333332 56.94867995818896, 18.846666666666664 57.09401329152229, 19.083999999999996 57.344679958188955 C 19.32133333333333 57.59534662485562, 19.44533333333333 57.94067995818895, 19.456 58.380679958188956 C 19.466666666666665 58.695346624855624, 19.474666666666664 59.00534662485562, 19.479999999999997 59.310679958188956 C 19.48533333333333 59.61601329152229, 19.488 59.91667995818896, 19.488 60.21267995818896 C 19.488 60.50867995818896, 19.48533333333333 60.802013291522286, 19.479999999999997 61.09267995818895 C 19.474666666666664 61.38334662485562, 19.466666666666665 61.67267995818895, 19.456 61.960679958188955 C 19.439999999999998 62.411346624855625, 19.311999999999998 62.760013291522284, 19.072 63.006679958188954 C 18.831999999999997 63.253346624855624, 18.502666666666663 63.396679958188955, 18.084 63.436679958188954 Z M 21.944 63.372679958188954 L 21.944 56.972679958188955 L 23.003999999999998 56.972679958188955 L 23.003999999999998 63.372679958188954 Z " stroke="none" fill-rule="nonzero" fill="#000000" fill-opacity="1" transform="matrix(1,0,0,1,5.05,13.314)" id="text40 l" />
  <path d="M 0 57.90541196237007 L 10 57.90541196237007 L 10 59.40541196237007 L 0 59.40541196237007 Z " stroke="none" fill-rule="evenodd" fill="#000000" fill-opacity="1" transform="matrix(1,0,0,1,5.05,13.314)" id="mark41 l" />
  <path d="M 0 51.38814396655118 L 10 51.38814396655118 L 10 52.88814396655118 L 0 52.88814396655118 Z " stroke="none" fill-rule="evenodd" fill="#000000" fill-opacity="1" transform="matrix(1,0,0,1,5.05,13.314)" id="mark42 l" />
  <path d="M 0 44.8708759707323 L 10 44.8708759707323 L 10 46.3708759707323 L 0 46.3708759707323 Z " stroke="none" fill-rule="evenodd" fill="#000000" fill-opacity="1" transform="matrix(1,0,0,1,5.05,13.314)" id="mark43 l" />
  <path d="M 0 38.353607974913416 L 10 38.353607974913416 L 10 39.853607974913416 L 0 39.853607974913416 Z " stroke="none" fill-rule="evenodd" fill="#000000" fill-opacity="1" transform="matrix(1,0,0,1,5.05,13.314)" id="mark44 l" />
  <path d="M 0 31.836339979094475 L 25 31.836339979094475 L 25 33.336339979094475 L 0 33.336339979094475 Z " stroke="none" fill-rule="evenodd" fill="#000000" fill-opacity="1" transform="matrix(1,0,0,1,5.05,13.314)" id="mark45 l" />
  <path d="M 11.748 29.070339979094474 L 11.748 28.194339979094476 L 12.463999999999999 26.314339979094473 L 13.503999999999998 26.314339979094473 L 12.78 28.146339979094474 L 13.18 28.146339979094474 L 13.18 29.070339979094474 Z M 13.684 30.754339979094475 L 13.684 24.354339979094476 L 14.691999999999998 24.354339979094476 L 14.691999999999998 30.754339979094475 Z M 15.195999999999998 29.070339979094474 L 15.195999999999998 28.146339979094474 L 15.663999999999998 28.146339979094474 L 15.663999999999998 29.070339979094474 Z M 16.18 29.338339979094474 C 16.174666666666667 29.16500664576114, 16.173333333333332 29.025673312427806, 16.176 28.920339979094475 C 16.178666666666665 28.815006645761137, 16.181333333333335 28.71300664576114, 16.183999999999997 28.614339979094474 L 17.264 28.614339979094474 C 17.256 28.69167331242781, 17.25 28.787673312427806, 17.246 28.902339979094474 C 17.241999999999997 29.017006645761143, 17.240666666666666 29.12767331242781, 17.241999999999997 29.234339979094475 C 17.243333333333332 29.34100664576114, 17.246666666666666 29.421006645761143, 17.252 29.474339979094474 C 17.262666666666668 29.594339979094475, 17.297333333333334 29.692339979094477, 17.355999999999998 29.768339979094474 C 17.414666666666665 29.844339979094478, 17.497333333333334 29.898339979094473, 17.604 29.930339979094473 L 17.604 30.822339979094476 C 17.110666666666663 30.785006645761143, 16.75333333333333 30.650339979094475, 16.532 30.418339979094476 C 16.310666666666666 30.186339979094473, 16.19333333333333 29.82633997909447, 16.18 29.338339979094474 Z M 16.279999999999998 28.002339979094476 L 16.279999999999998 24.354339979094476 L 17.348 24.354339979094476 L 17.348 28.002339979094476 Z M 17.852 27.578339979094473 L 17.852 26.822339979094476 C 17.929333333333332 26.782339979094473, 18.014666666666667 26.750339979094477, 18.107999999999997 26.726339979094476 C 18.20133333333333 26.702339979094475, 18.301333333333332 26.690339979094475, 18.407999999999998 26.690339979094475 C 18.773333333333333 26.690339979094475, 19.047333333333334 26.805673312427807, 19.23 27.036339979094475 C 19.412666666666667 27.267006645761143, 19.514666666666663 27.581006645761143, 19.535999999999998 27.978339979094475 C 19.546666666666667 28.138339979094475, 19.55333333333333 28.29700664576114, 19.555999999999997 28.454339979094474 C 19.558666666666664 28.611673312427808, 19.557333333333332 28.76500664576114, 19.552 28.914339979094475 C 19.546666666666667 29.06367331242781, 19.538666666666668 29.203673312427807, 19.528 29.334339979094473 C 19.482666666666667 29.83300664576114, 19.353333333333335 30.198339979094477, 19.14 30.430339979094473 C 18.926666666666666 30.662339979094476, 18.581333333333333 30.79300664576114, 18.104 30.822339979094476 L 18.104 29.930339979094473 C 18.21333333333333 29.901006645761143, 18.296 29.848339979094476, 18.352 29.772339979094475 C 18.408 29.696339979094475, 18.44 29.59700664576114, 18.448 29.474339979094474 C 18.471999999999998 29.183673312427807, 18.485999999999997 28.922339979094474, 18.49 28.690339979094475 C 18.494 28.458339979094475, 18.485333333333333 28.23700664576114, 18.464 28.026339979094473 C 18.447999999999997 27.871673312427806, 18.396666666666665 27.756339979094474, 18.31 27.680339979094477 C 18.223333333333333 27.604339979094476, 18.090666666666664 27.566339979094476, 17.912 27.566339979094476 C 17.901333333333334 27.566339979094476, 17.890666666666668 27.567673312427807, 17.88 27.570339979094474 C 17.86933333333333 27.57300664576114, 17.86 27.57567331242781, 17.852 27.578339979094473 Z M 17.852 25.286339979094475 L 17.852 24.354339979094476 L 19.439999999999998 24.354339979094476 L 19.439999999999998 25.286339979094475 Z M 21.944 30.754339979094475 L 21.944 24.354339979094476 L 23.003999999999998 24.354339979094476 L 23.003999999999998 30.754339979094475 Z " stroke="none" fill-rule="nonzero" fill="#000000" fill-opacity="1" transform="matrix(1,0,0,1,5.05,13.314)" id="text45 l" />
  <path d="M 0 25.31907198327559 L 10 25.31907198327559 L 10 26.81907198327559 L 0 26.81907198327559 Z " stroke="none" fill-rule="evenodd" fill="#000000" fill-opacity="1" transform="matrix(1,0,0,1,5.05,13.314)" id="mark46 l" />
  <path d="M 0 18.801803987456708 L 10 18.801803987456708 L 10 20.301803987456708 L 0 20.301803987456708 Z " stroke="none" fill-rule="evenodd" fill="#000000" fill-opacity="1" transform="matrix(1,0,0,1,5.05,13.314)" id="mark47 l" />
  <path d="M 0 12.284535991637824 L 10 12.284535991637824 L 10 13.784535991637824 L 0 13.784535991637824 Z " stroke="none" fill-rule="evenodd" fill="#000000" fill-opacity="1" transform="matrix(1,0,0,1,5.05,13.314)" id="mark48 l" />
  <path d="M 0 5.767267995818884 L 10 5.767267995818884 L 10 7.267267995818884 L 0 7.267267995818884 Z " stroke="none" fill-rule="evenodd" fill="#000000" fill-opacity="1" transform="matrix(1,0,0,1,5.05,13.314)" id="mark49 l" />
  <path d="M 0 -0.75 L 25 -0.75 L 25 0.75 L 0 0.75 Z " stroke="none" fill-rule="evenodd" fill="#000000" fill-opacity="1" transform="matrix(1,0,0,1,5.05,13.314)" id="mark50 l" />
  <path d="M 12.204 -3.2159999999999997 C 12.198666666666668 -3.389333333333333, 12.197333333333333 -3.528666666666667, 12.2 -3.634 C 12.202666666666667 -3.7393333333333336, 12.205333333333336 -3.841333333333333, 12.208 -3.94 L 13.288 -3.94 C 13.280000000000001 -3.8626666666666667, 13.274000000000001 -3.7666666666666666, 13.27 -3.6519999999999997 C 13.265999999999998 -3.5373333333333328, 13.264666666666667 -3.4266666666666667, 13.266 -3.32 C 13.267333333333333 -3.213333333333334, 13.270666666666667 -3.1333333333333337, 13.276 -3.08 C 13.286666666666665 -2.96, 13.321333333333332 -2.862, 13.379999999999999 -2.7859999999999996 C 13.438666666666666 -2.71, 13.521333333333335 -2.6559999999999997, 13.628 -2.6239999999999997 L 13.628 -1.7319999999999998 C 13.134666666666668 -1.7693333333333332, 12.777333333333335 -1.904, 12.556 -2.1359999999999997 C 12.334666666666667 -2.368, 12.217333333333332 -2.7279999999999998, 12.204 -3.2159999999999997 Z M 12.304 -4.552 L 12.304 -8.2 L 13.372 -8.2 L 13.372 -4.552 Z M 13.876 -4.976 L 13.876 -5.731999999999999 C 13.953333333333333 -5.771999999999999, 14.038666666666668 -5.804, 14.132 -5.828 C 14.225333333333333 -5.852, 14.325333333333333 -5.864, 14.432 -5.864 C 14.797333333333334 -5.864, 15.071333333333332 -5.748666666666667, 15.254 -5.518 C 15.436666666666667 -5.287333333333333, 15.538666666666668 -4.973333333333333, 15.56 -4.576 C 15.570666666666668 -4.416, 15.577333333333334 -4.257333333333333, 15.58 -4.1 C 15.582666666666666 -3.9426666666666668, 15.581333333333333 -3.7893333333333334, 15.576 -3.6399999999999997 C 15.570666666666666 -3.490666666666667, 15.562666666666665 -3.3506666666666667, 15.552 -3.2199999999999998 C 15.506666666666668 -2.721333333333333, 15.377333333333333 -2.356, 15.164 -2.1239999999999997 C 14.950666666666667 -1.892, 14.605333333333332 -1.7613333333333332, 14.128 -1.7319999999999998 L 14.128 -2.6239999999999997 C 14.237333333333334 -2.653333333333333, 14.32 -2.7059999999999995, 14.376 -2.782 C 14.432 -2.8579999999999997, 14.464 -2.957333333333333, 14.472 -3.08 C 14.495999999999999 -3.3706666666666667, 14.509999999999998 -3.6319999999999997, 14.514 -3.864 C 14.518 -4.096, 14.509333333333334 -4.317333333333333, 14.488 -4.5280000000000005 C 14.472000000000001 -4.682666666666667, 14.420666666666666 -4.798, 14.334 -4.874 C 14.247333333333334 -4.949999999999999, 14.114666666666666 -4.9879999999999995, 13.936 -4.9879999999999995 C 13.925333333333333 -4.9879999999999995, 13.914666666666665 -4.986666666666666, 13.904 -4.984 C 13.893333333333334 -4.981333333333334, 13.884 -4.978666666666667, 13.876 -4.976 Z M 13.876 -7.268 L 13.876 -8.2 L 15.464 -8.2 L 15.464 -7.268 Z M 16.196 -3.2119999999999997 C 16.188000000000002 -3.641333333333333, 16.182666666666666 -4.058, 16.18 -4.462 C 16.177333333333333 -4.866, 16.177999999999997 -5.261333333333333, 16.182 -5.648 C 16.186 -6.034666666666666, 16.190666666666665 -6.416, 16.196 -6.792 C 16.209333333333333 -7.231999999999999, 16.334000000000003 -7.577333333333334, 16.57 -7.828 C 16.805999999999997 -8.078666666666667, 17.142666666666663 -8.224, 17.58 -8.264 L 17.58 -7.3759999999999994 C 17.382666666666665 -7.32, 17.281333333333333 -7.190666666666667, 17.276 -6.9879999999999995 C 17.262666666666668 -6.617333333333333, 17.253333333333334 -6.269333333333333, 17.248 -5.944 C 17.242666666666665 -5.618666666666666, 17.24 -5.302, 17.24 -4.994 C 17.24 -4.686, 17.242666666666665 -4.371333333333333, 17.248 -4.05 C 17.253333333333334 -3.7286666666666664, 17.262666666666668 -3.3853333333333326, 17.276 -3.0199999999999996 C 17.281333333333333 -2.812, 17.382666666666665 -2.6799999999999997, 17.58 -2.6239999999999997 L 17.58 -1.7359999999999998 C 17.142666666666663 -1.7759999999999998, 16.805999999999997 -1.9219999999999997, 16.57 -2.174 C 16.334000000000003 -2.4259999999999997, 16.209333333333333 -2.772, 16.196 -3.2119999999999997 Z M 18.084 -1.7359999999999998 L 18.084 -2.6279999999999997 C 18.268 -2.681333333333333, 18.366666666666667 -2.8053333333333335, 18.38 -3 C 18.398666666666667 -3.4666666666666663, 18.410666666666668 -3.915333333333333, 18.416 -4.346 C 18.421333333333333 -4.776666666666666, 18.421333333333333 -5.207333333333333, 18.416 -5.638 C 18.410666666666668 -6.068666666666666, 18.398666666666667 -6.521333333333333, 18.38 -6.9959999999999996 C 18.374666666666666 -7.190666666666667, 18.276 -7.317333333333334, 18.084 -7.3759999999999994 L 18.084 -8.264 C 18.513333333333335 -8.224, 18.846666666666668 -8.078666666666667, 19.084 -7.828 C 19.321333333333335 -7.577333333333334, 19.445333333333334 -7.231999999999999, 19.456 -6.792 C 19.46666666666667 -6.477333333333332, 19.474666666666668 -6.167333333333333, 19.48 -5.861999999999999 C 19.485333333333333 -5.556666666666667, 19.488 -5.256, 19.488 -4.96 C 19.488 -4.664, 19.485333333333333 -4.370666666666667, 19.48 -4.08 C 19.474666666666668 -3.7893333333333334, 19.46666666666667 -3.5, 19.456 -3.2119999999999997 C 19.439999999999998 -2.761333333333333, 19.311999999999998 -2.4126666666666665, 19.072 -2.166 C 18.832 -1.9193333333333331, 18.502666666666666 -1.7759999999999998, 18.084 -1.7359999999999998 Z M 21.944 -1.7999999999999998 L 21.944 -8.2 L 23.003999999999998 -8.2 L 23.003999999999998 -1.7999999999999998 Z " stroke="none" fill-rule="nonzero" fill="#000000" fill-opacity="1" transform="matrix(1,0,0,1,5.05,13.314)" id="text50 l" />
  <path d="M -5 -13.264 L 30 -13.264 L 30 326.1141317951259 L -5 326.1141317951259 Z " stroke="#FF0000" stroke-opacity="1" stroke-width="0.1" stroke-linecap="butt" stroke-linejoin="miter" fill="none" transform="matrix(1,0,0,1,5.05,13.314)" />
</svg>