<?xml version="1.0" encoding="UTF-8"?>
<svg xmlns:xlink="http://www.w3.org/1999/xlink" viewBox="0 0 35.1 360.20050674230237" version="1.1" style="font-synthesis: none;" width="35.1mm" height="360.20050674230237mm" xmlns="http://www.w3.org/2000/svg">
  <defs />
  <style>	</style>
  <path d="M 0 0 L 35.1 0 L 35.1 360.20050674230237 L 0 360.20050674230237 Z " stroke="none" fill-rule="nonzero" fill="#FFFFFF" fill-opacity="1" transform="matrix(1,0,0,1,0,0)" />
  <path d="M 0 339.31850674230236 L 10 339.31850674230236 L 10 340.81850674230236 L 0 340.81850674230236 Z " stroke="none" fill-rule="evenodd" fill="#000000" fill-opacity="1" transform="matrix(1,0,0,1,5.05,13.314)" id="mark1 l" />
  <path d="M 0 333.5546337466701 L 10 333.5546337466701 L 10 335.0546337466701 L 0 335.0546337466701 Z " stroke="none" fill-rule="evenodd" fill="#000000" fill-opacity="1" transform="matrix(1,0,0,1,5.05,13.314)" id="mark2 l" />
  <path d="M 0 327.7907607510379 L 10 327.7907607510379 L 10 329.2907607510379 L 0 329.2907607510379 Z " stroke="none" fill-rule="evenodd" fill="#000000" fill-opacity="1" transform="matrix(1,0,0,1,5.05,13.314)" id="mark3 l" />
  <path d="M 0 322.02688775540565 L 10 322.02688775540565 L 10 323.52688775540565 L 0 323.52688775540565 Z " stroke="none" fill-rule="evenodd" fill="#000000" fill-opacity="1" transform="matrix(1,0,0,1,5.05,13.314)" id="mark4 l" />
  <path d="M 0 316.2630147597734 L 25 316.2630147597734 L 25 317.7630147597734 L 0 317.7630147597734 Z " stroke="none" fill-rule="evenodd" fill="#000000" fill-opacity="1" transform="matrix(1,0,0,1,5.05,13.314)" id="mark5 l" />
  <path d="M 16.18 313.7650147597734 C 16.174666666666667 313.5916814264401, 16.173333333333332 313.45234809310676, 16.176 313.3470147597734 C 16.178666666666665 313.24168142644004, 16.181333333333335 313.13968142644006, 16.183999999999997 313.0410147597734 L 17.264 313.0410147597734 C 17.256 313.11834809310676, 17.25 313.21434809310676, 17.246 313.32901475977343 C 17.241999999999997 313.4436814264401, 17.240666666666666 313.55434809310674, 17.241999999999997 313.6610147597734 C 17.243333333333332 313.76768142644005, 17.246666666666666 313.8476814264401, 17.252 313.90101475977343 C 17.262666666666668 314.0210147597734, 17.297333333333334 314.1190147597734, 17.355999999999998 314.1950147597734 C 17.414666666666665 314.2710147597734, 17.497333333333334 314.3250147597734, 17.604 314.3570147597734 L 17.604 315.2490147597734 C 17.110666666666663 315.21168142644007, 16.75333333333333 315.0770147597734, 16.532 314.8450147597734 C 16.310666666666666 314.61301475977336, 16.19333333333333 314.25301475977335, 16.18 313.7650147597734 Z M 16.279999999999998 312.4290147597734 L 16.279999999999998 308.7810147597734 L 17.348 308.7810147597734 L 17.348 312.4290147597734 Z M 17.852 312.0050147597734 L 17.852 311.2490147597734 C 17.929333333333332 311.20901475977337, 18.014666666666667 311.1770147597734, 18.107999999999997 311.1530147597734 C 18.20133333333333 311.1290147597734, 18.301333333333332 311.1170147597734, 18.407999999999998 311.1170147597734 C 18.773333333333333 311.1170147597734, 19.047333333333334 311.2323480931067, 19.23 311.4630147597734 C 19.412666666666667 311.6936814264401, 19.514666666666663 312.00768142644006, 19.535999999999998 312.4050147597734 C 19.546666666666667 312.5650147597734, 19.55333333333333 312.72368142644007, 19.555999999999997 312.8810147597734 C 19.558666666666664 313.0383480931067, 19.557333333333332 313.1916814264401, 19.552 313.34101475977343 C 19.546666666666667 313.4903480931068, 19.538666666666668 313.63034809310676, 19.528 313.7610147597734 C 19.482666666666667 314.25968142644007, 19.353333333333335 314.62501475977336, 19.14 314.8570147597734 C 18.926666666666666 315.0890147597734, 18.581333333333333 315.21968142644005, 18.104 315.2490147597734 L 18.104 314.3570147597734 C 18.21333333333333 314.32768142644005, 18.296 314.2750147597734, 18.352 314.1990147597734 C 18.408 314.1230147597734, 18.44 314.0236814264401, 18.448 313.90101475977343 C 18.471999999999998 313.6103480931067, 18.485999999999997 313.34901475977335, 18.49 313.1170147597734 C 18.494 312.8850147597734, 18.485333333333333 312.66368142644006, 18.464 312.4530147597734 C 18.447999999999997 312.29834809310677, 18.396666666666665 312.1830147597734, 18.31 312.1070147597734 C 18.223333333333333 312.0310147597734, 18.090666666666664 311.9930147597734, 17.912 311.9930147597734 C 17.901333333333334 311.9930147597734, 17.890666666666668 311.99434809310674, 17.88 311.9970147597734 C 17.86933333333333 311.99968142644, 17.86 312.0023480931067, 17.852 312.0050147597734 Z M 17.852 309.7130147597734 L 17.852 308.7810147597734 L 19.439999999999998 308.7810147597734 L 19.439999999999998 309.7130147597734 Z M 21.944 315.1810147597734 L 21.944 308.7810147597734 L 23.003999999999998 308.7810147597734 L 23.003999999999998 315.1810147597734 Z " stroke="none" fill-rule="nonzero" fill="#000000" fill-opacity="1" transform="matrix(1,0,0,1,5.05,13.314)" id="text5 l" />
  <path d="M 0 310.49914176414114 L 10 310.49914176414114 L 10 311.99914176414114 L 0 311.99914176414114 Z " stroke="none" fill-rule="evenodd" fill="#000000" fill-opacity="1" transform="matrix(1,0,0,1,5.05,13.314)" id="mark6 l" />
  <path d="M 0 304.7352687685089 L 10 304.7352687685089 L 10 306.2352687685089 L 0 306.2352687685089 Z " stroke="none" fill-rule="evenodd" fill="#000000" fill-opacity="1" transform="matrix(1,0,0,1,5.05,13.314)" id="mark7 l" />
  <path d="M 0 298.9713957728767 L 10 298.9713957728767 L 10 300.4713957728767 L 0 300.4713957728767 Z " stroke="none" fill-rule="evenodd" fill="#000000" fill-opacity="1" transform="matrix(1,0,0,1,5.05,13.314)" id="mark8 l" />
  <path d="M 0 293.20752277724444 L 10 293.20752277724444 L 10 294.70752277724444 L 0 294.70752277724444 Z " stroke="none" fill-rule="evenodd" fill="#000000" fill-opacity="1" transform="matrix(1,0,0,1,5.05,13.314)" id="mark9 l" />
  <path d="M 0 287.4436497816122 L 25 287.4436497816122 L 25 288.9436497816122 L 0 288.9436497816122 Z " stroke="none" fill-rule="evenodd" fill="#000000" fill-opacity="1" transform="matrix(1,0,0,1,5.05,13.314)" id="mark10 l" />
  <path d="M 14.323999999999998 286.39364978161217 L 14.323999999999998 280.94964978161215 L 13.871999999999998 280.94964978161215 L 13.839999999999998 280.56964978161216 L 14.543999999999999 279.9936497816122 L 15.424 279.9936497816122 L 15.424 286.39364978161217 Z M 16.196 284.9816497816122 C 16.188000000000002 284.5523164482789, 16.182666666666666 284.1356497816122, 16.18 283.7316497816122 C 16.177333333333333 283.3276497816122, 16.177999999999997 282.93231644827887, 16.182 282.54564978161216 C 16.186 282.1589831149455, 16.190666666666665 281.7776497816122, 16.196 281.40164978161215 C 16.209333333333333 280.96164978161215, 16.334000000000003 280.61631644827884, 16.57 280.36564978161215 C 16.805999999999997 280.1149831149455, 17.142666666666663 279.96964978161213, 17.58 279.92964978161217 L 17.58 280.81764978161215 C 17.382666666666665 280.87364978161213, 17.281333333333333 281.0029831149455, 17.276 281.2056497816122 C 17.262666666666668 281.5763164482788, 17.253333333333334 281.92431644827883, 17.248 282.24964978161216 C 17.242666666666665 282.5749831149455, 17.24 282.89164978161216, 17.24 283.19964978161215 C 17.24 283.50764978161214, 17.242666666666665 283.8223164482788, 17.248 284.14364978161217 C 17.253333333333334 284.46498311494554, 17.262666666666668 284.80831644827884, 17.276 285.17364978161214 C 17.281333333333333 285.38164978161217, 17.382666666666665 285.5136497816121, 17.58 285.56964978161216 L 17.58 286.4576497816122 C 17.142666666666663 286.41764978161217, 16.805999999999997 286.27164978161215, 16.57 286.01964978161215 C 16.334000000000003 285.76764978161214, 16.209333333333333 285.4216497816122, 16.196 284.9816497816122 Z M 18.084 286.4576497816122 L 18.084 285.5656497816122 C 18.268 285.51231644827885, 18.366666666666667 285.38831644827883, 18.38 285.1936497816122 C 18.398666666666667 284.72698311494554, 18.410666666666668 284.2783164482789, 18.416 283.8476497816122 C 18.421333333333333 283.4169831149455, 18.421333333333333 282.98631644827884, 18.416 282.55564978161215 C 18.410666666666668 282.1249831149455, 18.398666666666667 281.6723164482788, 18.38 281.19764978161214 C 18.374666666666666 281.0029831149455, 18.276 280.8763164482788, 18.084 280.81764978161215 L 18.084 279.92964978161217 C 18.513333333333335 279.96964978161213, 18.846666666666668 280.1149831149455, 19.084 280.36564978161215 C 19.321333333333335 280.61631644827884, 19.445333333333334 280.96164978161215, 19.456 281.40164978161215 C 19.46666666666667 281.71631644827886, 19.474666666666668 282.02631644827886, 19.48 282.33164978161216 C 19.485333333333333 282.6369831149455, 19.488 282.93764978161215, 19.488 283.23364978161214 C 19.488 283.52964978161214, 19.485333333333333 283.8229831149455, 19.48 284.1136497816122 C 19.474666666666668 284.40431644827885, 19.46666666666667 284.6936497816122, 19.456 284.9816497816122 C 19.439999999999998 285.43231644827887, 19.311999999999998 285.7809831149455, 19.072 286.0276497816122 C 18.832 286.27431644827885, 18.502666666666666 286.41764978161217, 18.084 286.4576497816122 Z M 21.944 286.39364978161217 L 21.944 279.9936497816122 L 23.003999999999998 279.9936497816122 L 23.003999999999998 286.39364978161217 Z " stroke="none" fill-rule="nonzero" fill="#000000" fill-opacity="1" transform="matrix(1,0,0,1,5.05,13.314)" id="text10 l" />
  <path d="M 0 281.6797767859799 L 10 281.6797767859799 L 10 283.1797767859799 L 0 283.1797767859799 Z " stroke="none" fill-rule="evenodd" fill="#000000" fill-opacity="1" transform="matrix(1,0,0,1,5.05,13.314)" id="mark11 l" />
  <path d="M 0 275.91590379034767 L 10 275.91590379034767 L 10 277.41590379034767 L 0 277.41590379034767 Z " stroke="none" fill-rule="evenodd" fill="#000000" fill-opacity="1" transform="matrix(1,0,0,1,5.05,13.314)" id="mark12 l" />
  <path d="M 0 270.1520307947154 L 10 270.1520307947154 L 10 271.6520307947154 L 0 271.6520307947154 Z " stroke="none" fill-rule="evenodd" fill="#000000" fill-opacity="1" transform="matrix(1,0,0,1,5.05,13.314)" id="mark13 l" />
  <path d="M 0 264.3881577990832 L 10 264.3881577990832 L 10 265.8881577990832 L 0 265.8881577990832 Z " stroke="none" fill-rule="evenodd" fill="#000000" fill-opacity="1" transform="matrix(1,0,0,1,5.05,13.314)" id="mark14 l" />
  <path d="M 0 258.62428480345096 L 25 258.62428480345096 L 25 260.12428480345096 L 0 260.12428480345096 Z " stroke="none" fill-rule="evenodd" fill="#000000" fill-opacity="1" transform="matrix(1,0,0,1,5.05,13.314)" id="mark15 l" />
  <path d="M 14.331999999999999 257.54228480345097 L 14.331999999999999 252.09828480345098 L 13.879999999999999 252.09828480345098 L 13.847999999999999 251.71828480345096 L 14.552 251.14228480345096 L 15.432 251.14228480345096 L 15.432 257.54228480345097 Z M 16.18 256.126284803451 C 16.174666666666667 255.95295147011763, 16.173333333333332 255.81361813678433, 16.176 255.70828480345097 C 16.178666666666665 255.60295147011766, 16.181333333333335 255.50095147011763, 16.183999999999997 255.40228480345098 L 17.264 255.40228480345098 C 17.256 255.47961813678432, 17.25 255.57561813678433, 17.246 255.69028480345096 C 17.241999999999997 255.80495147011766, 17.240666666666666 255.9156181367843, 17.241999999999997 256.022284803451 C 17.243333333333332 256.1289514701176, 17.246666666666666 256.20895147011765, 17.252 256.262284803451 C 17.262666666666668 256.38228480345094, 17.297333333333334 256.48028480345096, 17.355999999999998 256.556284803451 C 17.414666666666665 256.63228480345094, 17.497333333333334 256.6862848034509, 17.604 256.71828480345096 L 17.604 257.61028480345095 C 17.110666666666663 257.57295147011763, 16.75333333333333 257.438284803451, 16.532 257.20628480345096 C 16.310666666666666 256.9742848034509, 16.19333333333333 256.61428480345097, 16.18 256.126284803451 Z M 16.279999999999998 254.79028480345096 L 16.279999999999998 251.14228480345096 L 17.348 251.14228480345096 L 17.348 254.79028480345096 Z M 17.852 254.36628480345098 L 17.852 253.61028480345098 C 17.929333333333332 253.570284803451, 18.014666666666667 253.53828480345095, 18.107999999999997 253.51428480345098 C 18.20133333333333 253.49028480345095, 18.301333333333332 253.47828480345095, 18.407999999999998 253.47828480345098 C 18.773333333333333 253.47828480345095, 19.047333333333334 253.5936181367843, 19.23 253.82428480345098 C 19.412666666666667 254.05495147011763, 19.514666666666663 254.36895147011762, 19.535999999999998 254.76628480345096 C 19.546666666666667 254.92628480345095, 19.55333333333333 255.08495147011763, 19.555999999999997 255.24228480345096 C 19.558666666666664 255.39961813678428, 19.557333333333332 255.55295147011765, 19.552 255.70228480345097 C 19.546666666666667 255.85161813678428, 19.538666666666668 255.9916181367843, 19.528 256.12228480345095 C 19.482666666666667 256.6209514701176, 19.353333333333335 256.9862848034509, 19.14 257.21828480345096 C 18.926666666666666 257.450284803451, 18.581333333333333 257.5809514701176, 18.104 257.61028480345095 L 18.104 256.71828480345096 C 18.21333333333333 256.6889514701177, 18.296 256.63628480345096, 18.352 256.56028480345094 C 18.408 256.484284803451, 18.44 256.38495147011764, 18.448 256.262284803451 C 18.471999999999998 255.97161813678431, 18.485999999999997 255.71028480345097, 18.49 255.47828480345098 C 18.494 255.24628480345098, 18.485333333333333 255.02495147011763, 18.464 254.81428480345096 C 18.447999999999997 254.65961813678427, 18.396666666666665 254.54428480345095, 18.31 254.46828480345096 C 18.223333333333333 254.39228480345096, 18.090666666666664 254.35428480345098, 17.912 254.35428480345098 C 17.901333333333334 254.35428480345098, 17.890666666666668 254.3556181367843, 17.88 254.35828480345097 C 17.86933333333333 254.36095147011764, 17.86 254.3636181367843, 17.852 254.36628480345098 Z M 17.852 252.07428480345098 L 17.852 251.14228480345096 L 19.439999999999998 251.14228480345096 L 19.439999999999998 252.07428480345098 Z M 21.944 257.54228480345097 L 21.944 251.14228480345096 L 23.003999999999998 251.14228480345096 L 23.003999999999998 257.54228480345097 Z " stroke="none" fill-rule="nonzero" fill="#000000" fill-opacity="1" transform="matrix(1,0,0,1,5.05,13.314)" id="text15 l" />
  <path d="M 0 252.8604118078187 L 10 252.8604118078187 L 10 254.3604118078187 L 0 254.3604118078187 Z " stroke="none" fill-rule="evenodd" fill="#000000" fill-opacity="1" transform="matrix(1,0,0,1,5.05,13.314)" id="mark16 l" />
  <path d="M 0 247.09653881218645 L 10 247.09653881218645 L 10 248.59653881218645 L 0 248.59653881218645 Z " stroke="none" fill-rule="evenodd" fill="#000000" fill-opacity="1" transform="matrix(1,0,0,1,5.05,13.314)" id="mark17 l" />
  <path d="M 0 241.33266581655423 L 10 241.33266581655423 L 10 242.83266581655423 L 0 242.83266581655423 Z " stroke="none" fill-rule="evenodd" fill="#000000" fill-opacity="1" transform="matrix(1,0,0,1,5.05,13.314)" id="mark18 l" />
  <path d="M 0 235.568792820922 L 10 235.568792820922 L 10 237.068792820922 L 0 237.068792820922 Z " stroke="none" fill-rule="evenodd" fill="#000000" fill-opacity="1" transform="matrix(1,0,0,1,5.05,13.314)" id="mark19 l" />
  <path d="M 0 229.80491982528974 L 25 229.80491982528974 L 25 231.30491982528974 L 0 231.30491982528974 Z " stroke="none" fill-rule="evenodd" fill="#000000" fill-opacity="1" transform="matrix(1,0,0,1,5.05,13.314)" id="mark20 l" />
  <path d="M 12.319999999999999 228.75491982528976 C 12.317333333333334 228.6562531586231, 12.315333333333331 228.56758649195643, 12.313999999999998 228.48891982528977 C 12.312666666666665 228.4102531586231, 12.311333333333334 228.3362531586231, 12.309999999999999 228.26691982528976 C 12.308666666666667 228.19758649195643, 12.308 228.12558649195643, 12.308 228.05091982528975 C 12.308 227.97625315862308, 12.308 227.89158649195645, 12.308 227.79691982528976 C 12.308 227.70225315862308, 12.309333333333335 227.59091982528975, 12.312 227.46291982528976 C 12.32 227.1695864919564, 12.37 226.9075864919564, 12.462 226.67691982528976 C 12.554 226.4462531586231, 12.687999999999999 226.2402531586231, 12.863999999999999 226.05891982528976 C 13.04 225.87758649195644, 13.257333333333333 225.7162531586231, 13.515999999999998 225.57491982528975 L 14.047999999999998 225.28691982528977 C 14.234666666666666 225.18558649195643, 14.354 225.0635864919564, 14.405999999999999 224.92091982528976 C 14.457999999999998 224.7782531586231, 14.488 224.6442531586231, 14.495999999999999 224.51891982528977 C 14.506666666666664 224.3722531586231, 14.512666666666664 224.21558649195646, 14.514 224.04891982528977 C 14.51533333333333 223.8822531586231, 14.511999999999997 223.72558649195645, 14.504 223.57891982528977 C 14.498666666666665 223.47491982528976, 14.468666666666666 223.38891982528978, 14.413999999999998 223.32091982528976 C 14.359333333333332 223.25291982528975, 14.279999999999998 223.2042531586231, 14.175999999999998 223.17491982528975 L 14.175999999999998 222.28691982528977 C 14.663999999999998 222.31891982528975, 15.014 222.4502531586231, 15.225999999999999 222.68091982528975 C 15.437999999999999 222.91158649195643, 15.554666666666666 223.2722531586231, 15.575999999999999 223.76291982528977 C 15.578666666666663 223.82691982528976, 15.580666666666666 223.89225315862308, 15.581999999999999 223.95891982528977 C 15.583333333333332 224.0255864919564, 15.584 224.09025315862309, 15.584 224.15291982528976 C 15.584 224.21558649195643, 15.583333333333332 224.2775864919564, 15.581999999999999 224.33891982528976 C 15.580666666666666 224.40025315862306, 15.578666666666663 224.46025315862306, 15.575999999999999 224.51891982528977 C 15.565333333333331 224.8042531586231, 15.512 225.05091982528978, 15.415999999999999 225.25891982528975 C 15.32 225.46691982528978, 15.19 225.64691982528979, 15.026 225.79891982528977 C 14.862 225.95091982528976, 14.672 226.08691982528978, 14.456 226.20691982528976 L 13.851999999999999 226.53491982528976 C 13.737333333333332 226.59625315862309, 13.647333333333332 226.6802531586231, 13.581999999999999 226.78691982528977 C 13.516666666666666 226.89358649195646, 13.469999999999999 227.00691982528977, 13.441999999999998 227.12691982528975 C 13.413999999999998 227.24691982528975, 13.399999999999999 227.35891982528977, 13.399999999999999 227.46291982528976 L 13.399999999999999 228.75491982528976 Z M 12.328 224.71491982528977 C 12.322666666666667 224.5975864919564, 12.318666666666665 224.48291982528974, 12.315999999999999 224.37091982528977 C 12.313333333333333 224.25891982528975, 12.311333333333334 224.15291982528976, 12.309999999999999 224.05291982528976 C 12.308666666666667 223.95291982528977, 12.309333333333335 223.8562531586231, 12.312 223.76291982528977 C 12.330666666666666 223.27491982528977, 12.447333333333333 222.91558649195645, 12.661999999999999 222.68491982528977 C 12.876666666666665 222.4542531586231, 13.213333333333331 222.32158649195645, 13.671999999999999 222.28691982528977 L 13.671999999999999 223.17891982528977 C 13.576 223.2082531586231, 13.505333333333333 223.25491982528973, 13.459999999999999 223.31891982528975 C 13.414666666666665 223.38291982528978, 13.390666666666664 223.46025315862312, 13.387999999999998 223.55091982528975 C 13.382666666666665 223.75891982528975, 13.379333333333333 223.95225315862308, 13.378 224.13091982528977 C 13.376666666666667 224.30958649195645, 13.381333333333334 224.5042531586231, 13.392 224.71491982528977 Z M 13.904 228.75491982528976 L 13.904 227.82291982528977 L 15.5 227.82291982528977 L 15.5 228.75491982528976 Z M 16.196 227.34291982528975 C 16.188000000000002 226.9135864919564, 16.182666666666666 226.49691982528975, 16.18 226.09291982528975 C 16.177333333333333 225.68891982528976, 16.177999999999997 225.29358649195643, 16.182 224.90691982528975 C 16.186 224.52025315862312, 16.190666666666665 224.13891982528978, 16.196 223.76291982528977 C 16.209333333333333 223.32291982528977, 16.334000000000003 222.97758649195646, 16.57 222.72691982528977 C 16.805999999999997 222.47625315862308, 17.142666666666663 222.33091982528975, 17.58 222.29091982528976 L 17.58 223.17891982528977 C 17.382666666666665 223.23491982528975, 17.281333333333333 223.36425315862311, 17.276 223.56691982528977 C 17.262666666666668 223.93758649195644, 17.253333333333334 224.2855864919564, 17.248 224.61091982528976 C 17.242666666666665 224.93625315862306, 17.24 225.25291982528975, 17.24 225.56091982528977 C 17.24 225.86891982528977, 17.242666666666665 226.18358649195642, 17.248 226.50491982528976 C 17.253333333333334 226.8262531586231, 17.262666666666668 227.1695864919564, 17.276 227.53491982528976 C 17.281333333333333 227.7429198252898, 17.382666666666665 227.87491982528977, 17.58 227.93091982528975 L 17.58 228.81891982528975 C 17.142666666666663 228.77891982528973, 16.805999999999997 228.63291982528975, 16.57 228.38091982528977 C 16.334000000000003 228.12891982528976, 16.209333333333333 227.78291982528975, 16.196 227.34291982528975 Z M 18.084 228.81891982528975 L 18.084 227.92691982528976 C 18.268 227.87358649195642, 18.366666666666667 227.74958649195645, 18.38 227.55491982528977 C 18.398666666666667 227.0882531586231, 18.410666666666668 226.63958649195644, 18.416 226.20891982528977 C 18.421333333333333 225.7782531586231, 18.421333333333333 225.3475864919564, 18.416 224.91691982528977 C 18.410666666666668 224.48625315862307, 18.398666666666667 224.03358649195644, 18.38 223.55891982528976 C 18.374666666666666 223.36425315862311, 18.276 223.23758649195645, 18.084 223.17891982528977 L 18.084 222.29091982528976 C 18.513333333333335 222.33091982528975, 18.846666666666668 222.47625315862308, 19.084 222.72691982528977 C 19.321333333333335 222.97758649195646, 19.445333333333334 223.32291982528977, 19.456 223.76291982528977 C 19.46666666666667 224.07758649195642, 19.474666666666668 224.38758649195643, 19.48 224.69291982528975 C 19.485333333333333 224.99825315862307, 19.488 225.29891982528977, 19.488 225.59491982528976 C 19.488 225.89091982528976, 19.485333333333333 226.18425315862308, 19.48 226.47491982528976 C 19.474666666666668 226.76558649195644, 19.46666666666667 227.05491982528977, 19.456 227.34291982528975 C 19.439999999999998 227.79358649195643, 19.311999999999998 228.14225315862308, 19.072 228.38891982528975 C 18.832 228.63558649195642, 18.502666666666666 228.77891982528973, 18.084 228.81891982528975 Z M 21.944 228.75491982528976 L 21.944 222.35491982528976 L 23.003999999999998 222.35491982528976 L 23.003999999999998 228.75491982528976 Z " stroke="none" fill-rule="nonzero" fill="#000000" fill-opacity="1" transform="matrix(1,0,0,1,5.05,13.314)" id="text20 l" />
  <path d="M 0 224.0410468296575 L 10 224.0410468296575 L 10 225.5410468296575 L 0 225.5410468296575 Z " stroke="none" fill-rule="evenodd" fill="#000000" fill-opacity="1" transform="matrix(1,0,0,1,5.05,13.314)" id="mark21 l" />
  <path d="M 0 218.27717383402523 L 10 218.27717383402523 L 10 219.77717383402523 L 0 219.77717383402523 Z " stroke="none" fill-rule="evenodd" fill="#000000" fill-opacity="1" transform="matrix(1,0,0,1,5.05,13.314)" id="mark22 l" />
  <path d="M 0 212.513300838393 L 10 212.513300838393 L 10 214.013300838393 L 0 214.013300838393 Z " stroke="none" fill-rule="evenodd" fill="#000000" fill-opacity="1" transform="matrix(1,0,0,1,5.05,13.314)" id="mark23 l" />
  <path d="M 0 206.74942784276075 L 10 206.74942784276075 L 10 208.24942784276075 L 0 208.24942784276075 Z " stroke="none" fill-rule="evenodd" fill="#000000" fill-opacity="1" transform="matrix(1,0,0,1,5.05,13.314)" id="mark24 l" />
  <path d="M 0 200.98555484712853 L 25 200.98555484712853 L 25 202.48555484712853 L 0 202.48555484712853 Z " stroke="none" fill-rule="evenodd" fill="#000000" fill-opacity="1" transform="matrix(1,0,0,1,5.05,13.314)" id="mark25 l" />
  <path d="M 12.328 199.93555484712854 C 12.325333333333333 199.83688818046187, 12.323333333333332 199.74822151379522, 12.322 199.66955484712855 C 12.320666666666666 199.5908881804619, 12.319333333333333 199.51688818046188, 12.318 199.44755484712854 C 12.316666666666666 199.3782215137952, 12.315999999999999 199.3062215137952, 12.316 199.23155484712854 C 12.315999999999999 199.15688818046186, 12.315999999999999 199.07222151379523, 12.316 198.97755484712854 C 12.315999999999999 198.88288818046186, 12.317333333333334 198.77155484712853, 12.32 198.64355484712854 C 12.328 198.3502215137952, 12.378 198.0882215137952, 12.47 197.85755484712854 C 12.562000000000001 197.6268881804619, 12.696 197.42088818046187, 12.872 197.23955484712855 C 13.048 197.05822151379522, 13.265333333333334 196.89688818046187, 13.524000000000001 196.75555484712854 L 14.056000000000001 196.46755484712855 C 14.242666666666668 196.3662215137952, 14.362000000000002 196.2442215137952, 14.414 196.10155484712854 C 14.466000000000001 195.95888818046188, 14.495999999999999 195.82488818046187, 14.504 195.69955484712855 C 14.514666666666667 195.55288818046188, 14.520666666666667 195.3962215137952, 14.522 195.22955484712855 C 14.523333333333333 195.0628881804619, 14.520000000000001 194.90622151379523, 14.512 194.75955484712856 C 14.506666666666666 194.65555484712854, 14.476666666666667 194.56955484712853, 14.422 194.50155484712855 C 14.367333333333335 194.43355484712856, 14.288 194.38488818046187, 14.184000000000001 194.35555484712853 L 14.184000000000001 193.46755484712855 C 14.672 193.49955484712856, 15.022000000000002 193.6308881804619, 15.234 193.86155484712853 C 15.446000000000002 194.0922215137952, 15.562666666666667 194.45288818046185, 15.584 194.94355484712855 C 15.586666666666668 195.00755484712857, 15.588666666666668 195.0728881804619, 15.59 195.13955484712855 C 15.591333333333335 195.2062215137952, 15.592000000000002 195.2708881804619, 15.592 195.33355484712854 C 15.592000000000002 195.39622151379518, 15.591333333333335 195.4582215137952, 15.59 195.51955484712855 C 15.588666666666668 195.58088818046187, 15.586666666666668 195.64088818046187, 15.584 195.69955484712855 C 15.573333333333332 195.9848881804619, 15.52 196.23155484712856, 15.424 196.43955484712853 C 15.328 196.64755484712856, 15.197999999999999 196.82755484712857, 15.033999999999999 196.97955484712855 C 14.87 197.13155484712854, 14.68 197.2675548471285, 14.464 197.38755484712854 L 13.86 197.71555484712854 C 13.745333333333335 197.77688818046187, 13.655333333333335 197.86088818046187, 13.59 197.96755484712855 C 13.524666666666668 198.0742215137952, 13.478000000000002 198.18755484712852, 13.45 198.30755484712853 C 13.422 198.42755484712853, 13.408 198.53955484712856, 13.408 198.64355484712854 L 13.408 199.93555484712854 Z M 12.336 195.89555484712855 C 12.330666666666666 195.7782215137952, 12.326666666666664 195.66355484712852, 12.324 195.55155484712856 C 12.321333333333332 195.43955484712853, 12.319333333333333 195.33355484712854, 12.318 195.23355484712854 C 12.316666666666666 195.13355484712855, 12.317333333333334 195.03688818046186, 12.32 194.94355484712855 C 12.338666666666668 194.45555484712855, 12.455333333333336 194.09622151379523, 12.67 193.86555484712855 C 12.884666666666668 193.63488818046187, 13.221333333333334 193.5022215137952, 13.68 193.46755484712855 L 13.68 194.35955484712855 C 13.584 194.3888881804619, 13.513333333333332 194.43555484712854, 13.468 194.49955484712854 C 13.422666666666668 194.56355484712853, 13.398666666666667 194.64088818046184, 13.396 194.73155484712854 C 13.390666666666666 194.93955484712853, 13.387333333333332 195.1328881804619, 13.386 195.31155484712855 C 13.384666666666666 195.4902215137952, 13.389333333333333 195.68488818046188, 13.4 195.89555484712855 Z M 13.911999999999999 199.93555484712854 L 13.911999999999999 199.00355484712856 L 15.508 199.00355484712856 L 15.508 199.93555484712854 Z M 16.18 198.51955484712855 C 16.174666666666667 198.34622151379523, 16.173333333333332 198.20688818046187, 16.176 198.10155484712854 C 16.178666666666665 197.9962215137952, 16.181333333333335 197.89422151379523, 16.183999999999997 197.79555484712856 L 17.264 197.79555484712856 C 17.256 197.87288818046187, 17.25 197.96888818046187, 17.246 198.08355484712854 C 17.241999999999997 198.1982215137952, 17.240666666666666 198.30888818046185, 17.241999999999997 198.41555484712853 C 17.243333333333332 198.52222151379522, 17.246666666666666 198.6022215137952, 17.252 198.65555484712854 C 17.262666666666668 198.77555484712855, 17.297333333333334 198.87355484712856, 17.355999999999998 198.94955484712855 C 17.414666666666665 199.02555484712855, 17.497333333333334 199.07955484712852, 17.604 199.11155484712853 L 17.604 200.00355484712856 C 17.110666666666663 199.96622151379523, 16.75333333333333 199.83155484712853, 16.532 199.59955484712853 C 16.310666666666666 199.36755484712853, 16.19333333333333 199.00755484712855, 16.18 198.51955484712855 Z M 16.279999999999998 197.18355484712853 L 16.279999999999998 193.53555484712854 L 17.348 193.53555484712854 L 17.348 197.18355484712853 Z M 17.852 196.75955484712856 L 17.852 196.00355484712856 C 17.929333333333332 195.96355484712853, 18.014666666666667 195.93155484712855, 18.107999999999997 195.90755484712855 C 18.20133333333333 195.88355484712855, 18.301333333333332 195.87155484712855, 18.407999999999998 195.87155484712855 C 18.773333333333333 195.87155484712855, 19.047333333333334 195.9868881804619, 19.23 196.21755484712855 C 19.412666666666667 196.4482215137952, 19.514666666666663 196.76222151379523, 19.535999999999998 197.15955484712853 C 19.546666666666667 197.31955484712853, 19.55333333333333 197.4782215137952, 19.555999999999997 197.63555484712853 C 19.558666666666664 197.7928881804619, 19.557333333333332 197.94622151379522, 19.552 198.09555484712854 C 19.546666666666667 198.24488818046186, 19.538666666666668 198.38488818046187, 19.528 198.51555484712856 C 19.482666666666667 199.01422151379523, 19.353333333333335 199.37955484712853, 19.14 199.61155484712853 C 18.926666666666666 199.84355484712853, 18.581333333333333 199.97422151379521, 18.104 200.00355484712856 L 18.104 199.11155484712853 C 18.21333333333333 199.08222151379522, 18.296 199.02955484712854, 18.352 198.95355484712854 C 18.408 198.87755484712855, 18.44 198.77822151379522, 18.448 198.65555484712854 C 18.471999999999998 198.36488818046186, 18.485999999999997 198.10355484712852, 18.49 197.87155484712855 C 18.494 197.63955484712852, 18.485333333333333 197.41822151379517, 18.464 197.20755484712853 C 18.447999999999997 197.05288818046188, 18.396666666666665 196.93755484712852, 18.31 196.86155484712853 C 18.223333333333333 196.78555484712854, 18.090666666666664 196.74755484712855, 17.912 196.74755484712855 C 17.901333333333334 196.74755484712855, 17.890666666666668 196.7488881804619, 17.88 196.75155484712855 C 17.86933333333333 196.7542215137952, 17.86 196.75688818046189, 17.852 196.75955484712856 Z M 17.852 194.46755484712855 L 17.852 193.53555484712854 L 19.439999999999998 193.53555484712854 L 19.439999999999998 194.46755484712855 Z M 21.944 199.93555484712854 L 21.944 193.53555484712854 L 23.003999999999998 193.53555484712854 L 23.003999999999998 199.93555484712854 Z " stroke="none" fill-rule="nonzero" fill="#000000" fill-opacity="1" transform="matrix(1,0,0,1,5.05,13.314)" id="text25 l" />
  <path d="M 0 195.22168185149627 L 10 195.22168185149627 L 10 196.72168185149627 L 0 196.72168185149627 Z " stroke="none" fill-rule="evenodd" fill="#000000" fill-opacity="1" transform="matrix(1,0,0,1,5.05,13.314)" id="mark26 l" />
  <path d="M 0 189.45780885586404 L 10 189.45780885586404 L 10 190.95780885586404 L 0 190.95780885586404 Z " stroke="none" fill-rule="evenodd" fill="#000000" fill-opacity="1" transform="matrix(1,0,0,1,5.05,13.314)" id="mark27 l" />
  <path d="M 0 183.6939358602318 L 10 183.6939358602318 L 10 185.1939358602318 L 0 185.1939358602318 Z " stroke="none" fill-rule="evenodd" fill="#000000" fill-opacity="1" transform="matrix(1,0,0,1,5.05,13.314)" id="mark28 l" />
  <path d="M 0 177.93006286459953 L 10 177.93006286459953 L 10 179.43006286459953 L 0 179.43006286459953 Z " stroke="none" fill-rule="evenodd" fill="#000000" fill-opacity="1" transform="matrix(1,0,0,1,5.05,13.314)" id="mark29 l" />
  <path d="M 0 172.1661898689673 L 25 172.1661898689673 L 25 173.6661898689673 L 0 173.6661898689673 Z " stroke="none" fill-rule="evenodd" fill="#000000" fill-opacity="1" transform="matrix(1,0,0,1,5.05,13.314)" id="mark30 l" />
  <path d="M 12.223999999999998 169.70018986896733 C 12.221333333333334 169.59885653563398, 12.219333333333333 169.51485653563398, 12.218 169.44818986896732 C 12.216666666666667 169.38152320230066, 12.216666666666667 169.31352320230064, 12.218 169.24418986896734 C 12.219333333333333 169.17485653563398, 12.221333333333334 169.08552320230066, 12.223999999999998 168.97618986896734 L 13.303999999999998 168.97618986896734 L 13.303999999999998 169.84018986896731 C 13.303999999999998 170.07752320230065, 13.417333333333332 170.22818986896732, 13.643999999999998 170.2921898689673 L 13.643999999999998 171.18418986896734 C 13.155999999999999 171.146856535634, 12.800666666666665 171.0121898689673, 12.578 170.7801898689673 C 12.355333333333334 170.5481898689673, 12.237333333333332 170.18818986896733, 12.223999999999998 169.70018986896733 Z M 12.292 165.64818986896734 L 12.292 164.71618986896732 L 15.536 164.71618986896732 L 15.536 165.64818986896734 Z M 14.143999999999998 170.29618986896733 C 14.367999999999999 170.24018986896732, 14.483999999999998 170.08952320230065, 14.491999999999999 169.84418986896733 C 14.497333333333334 169.64152320230068, 14.500666666666666 169.458856535634, 14.501999999999999 169.29618986896733 C 14.503333333333332 169.13352320230067, 14.498666666666665 168.97618986896734, 14.488 168.82418986896732 C 14.48 168.666856535634, 14.431999999999999 168.53352320230067, 14.344 168.42418986896732 C 14.256 168.314856535634, 14.089333333333332 168.262856535634, 13.844 168.2681898689673 L 13.096 168.27618986896732 L 13.068 167.38418986896733 L 14.027999999999999 166.0001898689673 L 15.216 166.0001898689673 L 14.248 167.35218986896732 L 14.28 167.35218986896732 C 14.712 167.35218986896732, 15.028666666666666 167.474856535634, 15.229999999999999 167.72018986896734 C 15.431333333333333 167.96552320230066, 15.544 168.34285653563398, 15.568 168.85218986896732 C 15.57333333333333 168.92418986896732, 15.576666666666664 168.99618986896732, 15.578 169.06818986896732 C 15.57933333333333 169.14018986896733, 15.579999999999998 169.21085653563398, 15.579999999999998 169.2801898689673 C 15.579999999999998 169.34952320230065, 15.57933333333333 169.41885653563398, 15.578 169.4881898689673 C 15.576666666666664 169.55752320230064, 15.57333333333333 169.62818986896733, 15.568 169.70018986896733 C 15.549333333333333 170.19618986896734, 15.428666666666665 170.560856535634, 15.206 170.79418986896732 C 14.983333333333334 171.02752320230064, 14.630666666666666 171.15752320230067, 14.148 171.18418986896734 Z M 16.196 169.70418986896732 C 16.188000000000002 169.27485653563397, 16.182666666666666 168.85818986896732, 16.18 168.45418986896732 C 16.177333333333333 168.05018986896732, 16.177999999999997 167.654856535634, 16.182 167.2681898689673 C 16.186 166.88152320230066, 16.190666666666665 166.50018986896734, 16.196 166.12418986896733 C 16.209333333333333 165.68418986896734, 16.334000000000003 165.33885653563402, 16.57 165.08818986896733 C 16.805999999999997 164.83752320230064, 17.142666666666663 164.69218986896732, 17.58 164.65218986896733 L 17.58 165.54018986896733 C 17.382666666666665 165.59618986896731, 17.281333333333333 165.72552320230068, 17.276 165.92818986896734 C 17.262666666666668 166.298856535634, 17.253333333333334 166.646856535634, 17.248 166.97218986896732 C 17.242666666666665 167.29752320230065, 17.24 167.61418986896732, 17.24 167.92218986896734 C 17.24 168.23018986896733, 17.242666666666665 168.54485653563398, 17.248 168.86618986896733 C 17.253333333333334 169.18752320230067, 17.262666666666668 169.53085653563397, 17.276 169.89618986896733 C 17.281333333333333 170.10418986896735, 17.382666666666665 170.23618986896733, 17.58 170.2921898689673 L 17.58 171.18018986896732 C 17.142666666666663 171.1401898689673, 16.805999999999997 170.9941898689673, 16.57 170.74218986896733 C 16.334000000000003 170.49018986896732, 16.209333333333333 170.14418986896732, 16.196 169.70418986896732 Z M 18.084 171.18018986896732 L 18.084 170.28818986896732 C 18.268 170.234856535634, 18.366666666666667 170.110856535634, 18.38 169.91618986896734 C 18.398666666666667 169.44952320230067, 18.410666666666668 169.000856535634, 18.416 168.57018986896733 C 18.421333333333333 168.13952320230067, 18.421333333333333 167.708856535634, 18.416 167.27818986896733 C 18.410666666666668 166.84752320230066, 18.398666666666667 166.394856535634, 18.38 165.92018986896733 C 18.374666666666666 165.72552320230068, 18.276 165.598856535634, 18.084 165.54018986896733 L 18.084 164.65218986896733 C 18.513333333333335 164.69218986896732, 18.846666666666668 164.83752320230064, 19.084 165.08818986896733 C 19.321333333333335 165.33885653563402, 19.445333333333334 165.68418986896734, 19.456 166.12418986896733 C 19.46666666666667 166.438856535634, 19.474666666666668 166.748856535634, 19.48 167.0541898689673 C 19.485333333333333 167.35952320230064, 19.488 167.6601898689673, 19.488 167.95618986896733 C 19.488 168.25218986896732, 19.485333333333333 168.54552320230064, 19.48 168.83618986896732 C 19.474666666666668 169.126856535634, 19.46666666666667 169.41618986896734, 19.456 169.70418986896732 C 19.439999999999998 170.154856535634, 19.311999999999998 170.50352320230067, 19.072 170.7501898689673 C 18.832 170.99685653563398, 18.502666666666666 171.1401898689673, 18.084 171.18018986896732 Z M 21.944 171.11618986896733 L 21.944 164.71618986896732 L 23.003999999999998 164.71618986896732 L 23.003999999999998 171.11618986896733 Z " stroke="none" fill-rule="nonzero" fill="#000000" fill-opacity="1" transform="matrix(1,0,0,1,5.05,13.314)" id="text30 l" />
  <path d="M 0 166.40231687333505 L 10 166.40231687333505 L 10 167.90231687333505 L 0 167.90231687333505 Z " stroke="none" fill-rule="evenodd" fill="#000000" fill-opacity="1" transform="matrix(1,0,0,1,5.05,13.314)" id="mark31 l" />
  <path d="M 0 160.6384438777028 L 10 160.6384438777028 L 10 162.1384438777028 L 0 162.1384438777028 Z " stroke="none" fill-rule="evenodd" fill="#000000" fill-opacity="1" transform="matrix(1,0,0,1,5.05,13.314)" id="mark32 l" />
  <path d="M 0 154.87457088207057 L 10 154.87457088207057 L 10 156.37457088207057 L 0 156.37457088207057 Z " stroke="none" fill-rule="evenodd" fill="#000000" fill-opacity="1" transform="matrix(1,0,0,1,5.05,13.314)" id="mark33 l" />
  <path d="M 0 149.11069788643832 L 10 149.11069788643832 L 10 150.61069788643832 L 0 150.61069788643832 Z " stroke="none" fill-rule="evenodd" fill="#000000" fill-opacity="1" transform="matrix(1,0,0,1,5.05,13.314)" id="mark34 l" />
  <path d="M 0 143.3468248908061 L 25 143.3468248908061 L 25 144.8468248908061 L 0 144.8468248908061 Z " stroke="none" fill-rule="evenodd" fill="#000000" fill-opacity="1" transform="matrix(1,0,0,1,5.05,13.314)" id="mark35 l" />
  <path d="M 12.232 140.8488248908061 C 12.229333333333333 140.74749155747276, 12.227333333333334 140.66349155747275, 12.226 140.5968248908061 C 12.224666666666668 140.53015822413943, 12.224666666666668 140.46215822413942, 12.226 140.39282489080608 C 12.227333333333334 140.32349155747275, 12.229333333333333 140.23415822413943, 12.232 140.1248248908061 L 13.312 140.1248248908061 L 13.312 140.9888248908061 C 13.312 141.22615822413943, 13.425333333333333 141.3768248908061, 13.652 141.44082489080608 L 13.652 142.3328248908061 C 13.164 142.29549155747276, 12.808666666666667 142.16082489080608, 12.586 141.92882489080608 C 12.363333333333333 141.69682489080608, 12.245333333333335 141.3368248908061, 12.232 140.8488248908061 Z M 12.3 136.7968248908061 L 12.3 135.8648248908061 L 15.544 135.8648248908061 L 15.544 136.7968248908061 Z M 14.152000000000001 141.4448248908061 C 14.376000000000001 141.38882489080612, 14.492 141.23815822413945, 14.5 140.9928248908061 C 14.505333333333333 140.79015822413942, 14.508666666666667 140.60749155747277, 14.51 140.4448248908061 C 14.511333333333333 140.28215822413944, 14.506666666666668 140.1248248908061, 14.496 139.9728248908061 C 14.488 139.81549155747277, 14.440000000000001 139.68215822413944, 14.352 139.5728248908061 C 14.264 139.46349155747276, 14.097333333333335 139.41149155747277, 13.852 139.41682489080608 L 13.104 139.4248248908061 L 13.076 138.5328248908061 L 14.036 137.1488248908061 L 15.224 137.1488248908061 L 14.256 138.5008248908061 L 14.288 138.5008248908061 C 14.719999999999999 138.5008248908061, 15.036666666666665 138.62349155747276, 15.238 138.8688248908061 C 15.439333333333334 139.11415822413943, 15.552 139.49149155747278, 15.576 140.0008248908061 C 15.581333333333333 140.0728248908061, 15.584666666666667 140.1448248908061, 15.586 140.2168248908061 C 15.587333333333333 140.2888248908061, 15.588000000000001 140.35949155747275, 15.588000000000001 140.42882489080608 C 15.588000000000001 140.49815822413942, 15.587333333333333 140.56749155747278, 15.586 140.6368248908061 C 15.584666666666667 140.70615822413944, 15.581333333333333 140.7768248908061, 15.576 140.8488248908061 C 15.557333333333334 141.34482489080608, 15.436666666666667 141.70949155747275, 15.214 141.9428248908061 C 14.991333333333333 142.17615822413944, 14.638666666666666 142.30615822413944, 14.156 142.3328248908061 Z M 16.18 140.8488248908061 C 16.174666666666667 140.67549155747275, 16.173333333333332 140.53615822413943, 16.176 140.4308248908061 C 16.178666666666665 140.32549155747276, 16.181333333333335 140.22349155747276, 16.183999999999997 140.1248248908061 L 17.264 140.1248248908061 C 17.256 140.20215822413945, 17.25 140.29815822413943, 17.246 140.4128248908061 C 17.241999999999997 140.52749155747276, 17.240666666666666 140.63815822413943, 17.241999999999997 140.7448248908061 C 17.243333333333332 140.85149155747274, 17.246666666666666 140.93149155747275, 17.252 140.9848248908061 C 17.262666666666668 141.1048248908061, 17.297333333333334 141.2028248908061, 17.355999999999998 141.2788248908061 C 17.414666666666665 141.3548248908061, 17.497333333333334 141.40882489080607, 17.604 141.44082489080608 L 17.604 142.3328248908061 C 17.110666666666663 142.29549155747276, 16.75333333333333 142.16082489080608, 16.532 141.92882489080608 C 16.310666666666666 141.69682489080608, 16.19333333333333 141.3368248908061, 16.18 140.8488248908061 Z M 16.279999999999998 139.5128248908061 L 16.279999999999998 135.8648248908061 L 17.348 135.8648248908061 L 17.348 139.5128248908061 Z M 17.852 139.0888248908061 L 17.852 138.3328248908061 C 17.929333333333332 138.29282489080612, 18.014666666666667 138.2608248908061, 18.107999999999997 138.2368248908061 C 18.20133333333333 138.2128248908061, 18.301333333333332 138.2008248908061, 18.407999999999998 138.2008248908061 C 18.773333333333333 138.2008248908061, 19.047333333333334 138.31615822413943, 19.23 138.5468248908061 C 19.412666666666667 138.77749155747276, 19.514666666666663 139.09149155747275, 19.535999999999998 139.4888248908061 C 19.546666666666667 139.64882489080608, 19.55333333333333 139.80749155747276, 19.555999999999997 139.96482489080609 C 19.558666666666664 140.1221582241394, 19.557333333333332 140.27549155747278, 19.552 140.4248248908061 C 19.546666666666667 140.5741582241394, 19.538666666666668 140.71415822413942, 19.528 140.8448248908061 C 19.482666666666667 141.34349155747276, 19.353333333333335 141.70882489080608, 19.14 141.94082489080608 C 18.926666666666666 142.17282489080608, 18.581333333333333 142.30349155747277, 18.104 142.3328248908061 L 18.104 141.44082489080608 C 18.21333333333333 141.41149155747277, 18.296 141.3588248908061, 18.352 141.2828248908061 C 18.408 141.2068248908061, 18.44 141.10749155747277, 18.448 140.9848248908061 C 18.471999999999998 140.69415822413941, 18.485999999999997 140.4328248908061, 18.49 140.2008248908061 C 18.494 139.9688248908061, 18.485333333333333 139.74749155747276, 18.464 139.5368248908061 C 18.447999999999997 139.38215822413943, 18.396666666666665 139.26682489080608, 18.31 139.19082489080608 C 18.223333333333333 139.1148248908061, 18.090666666666664 139.0768248908061, 17.912 139.0768248908061 C 17.901333333333334 139.0768248908061, 17.890666666666668 139.07815822413943, 17.88 139.0808248908061 C 17.86933333333333 139.08349155747277, 17.86 139.08615822413944, 17.852 139.0888248908061 Z M 17.852 136.7968248908061 L 17.852 135.8648248908061 L 19.439999999999998 135.8648248908061 L 19.439999999999998 136.7968248908061 Z M 21.944 142.2648248908061 L 21.944 135.8648248908061 L 23.003999999999998 135.8648248908061 L 23.003999999999998 142.2648248908061 Z " stroke="none" fill-rule="nonzero" fill="#000000" fill-opacity="1" transform="matrix(1,0,0,1,5.05,13.314)" id="text35 l" />
  <path d="M 0 137.58295189517384 L 10 137.58295189517384 L 10 139.08295189517384 L 0 139.08295189517384 Z " stroke="none" fill-rule="evenodd" fill="#000000" fill-opacity="1" transform="matrix(1,0,0,1,5.05,13.314)" id="mark36 l" />
  <path d="M 0 131.81907889954158 L 10 131.81907889954158 L 10 133.31907889954158 L 0 133.31907889954158 Z " stroke="none" fill-rule="evenodd" fill="#000000" fill-opacity="1" transform="matrix(1,0,0,1,5.05,13.314)" id="mark37 l" />
  <path d="M 0 126.05520590390935 L 10 126.05520590390935 L 10 127.55520590390935 L 0 127.55520590390935 Z " stroke="none" fill-rule="evenodd" fill="#000000" fill-opacity="1" transform="matrix(1,0,0,1,5.05,13.314)" id="mark38 l" />
  <path d="M 0 120.2913329082771 L 10 120.2913329082771 L 10 121.7913329082771 L 0 121.7913329082771 Z " stroke="none" fill-rule="evenodd" fill="#000000" fill-opacity="1" transform="matrix(1,0,0,1,5.05,13.314)" id="mark39 l" />
  <path d="M 0 114.52745991264487 L 25 114.52745991264487 L 25 116.02745991264487 L 0 116.02745991264487 Z " stroke="none" fill-rule="evenodd" fill="#000000" fill-opacity="1" transform="matrix(1,0,0,1,5.05,13.314)" id="mark40 l" />
  <path d="M 11.739999999999998 111.79345991264488 L 11.739999999999998 110.91745991264487 L 12.455999999999998 109.03745991264488 L 13.495999999999999 109.03745991264488 L 12.771999999999998 110.86945991264487 L 13.171999999999997 110.86945991264487 L 13.171999999999997 111.79345991264488 Z M 13.675999999999998 113.47745991264487 L 13.675999999999998 107.07745991264487 L 14.683999999999997 107.07745991264487 L 14.683999999999997 113.47745991264487 Z M 15.187999999999999 111.79345991264488 L 15.187999999999999 110.86945991264487 L 15.655999999999999 110.86945991264487 L 15.655999999999999 111.79345991264488 Z M 16.195999999999998 112.06545991264487 C 16.188 111.63612657931154, 16.182666666666666 111.21945991264488, 16.18 110.81545991264487 C 16.177333333333333 110.41145991264486, 16.177999999999997 110.01612657931153, 16.182 109.62945991264488 C 16.186 109.24279324597822, 16.190666666666665 108.86145991264488, 16.195999999999998 108.48545991264487 C 16.20933333333333 108.04545991264487, 16.333999999999996 107.70012657931153, 16.569999999999997 107.44945991264487 C 16.805999999999997 107.19879324597821, 17.142666666666663 107.05345991264488, 17.58 107.01345991264488 L 17.58 107.90145991264488 C 17.382666666666665 107.95745991264488, 17.281333333333333 108.08679324597821, 17.275999999999996 108.28945991264487 C 17.262666666666664 108.66012657931154, 17.25333333333333 109.00812657931152, 17.247999999999998 109.33345991264487 C 17.242666666666665 109.65879324597819, 17.24 109.97545991264487, 17.24 110.28345991264487 C 17.24 110.59145991264488, 17.242666666666665 110.90612657931155, 17.247999999999998 111.22745991264487 C 17.25333333333333 111.5487932459782, 17.262666666666664 111.89212657931154, 17.275999999999996 112.25745991264488 C 17.281333333333333 112.46545991264487, 17.382666666666665 112.59745991264487, 17.58 112.65345991264488 L 17.58 113.54145991264487 C 17.142666666666663 113.50145991264488, 16.805999999999997 113.35545991264487, 16.569999999999997 113.10345991264488 C 16.333999999999996 112.85145991264488, 16.20933333333333 112.50545991264488, 16.195999999999998 112.06545991264487 Z M 18.084 113.54145991264487 L 18.084 112.64945991264487 C 18.268 112.59612657931154, 18.366666666666667 112.47212657931155, 18.38 112.27745991264487 C 18.398666666666664 111.8107932459782, 18.410666666666664 111.36212657931154, 18.415999999999997 110.93145991264487 C 18.42133333333333 110.5007932459782, 18.42133333333333 110.07012657931153, 18.415999999999997 109.63945991264488 C 18.410666666666664 109.2087932459782, 18.398666666666664 108.75612657931154, 18.38 108.28145991264488 C 18.374666666666666 108.08679324597821, 18.276 107.96012657931155, 18.084 107.90145991264488 L 18.084 107.01345991264488 C 18.513333333333332 107.05345991264488, 18.846666666666664 107.19879324597821, 19.083999999999996 107.44945991264487 C 19.32133333333333 107.70012657931153, 19.44533333333333 108.04545991264487, 19.456 108.48545991264487 C 19.466666666666665 108.80012657931154, 19.474666666666664 109.11012657931154, 19.479999999999997 109.41545991264488 C 19.48533333333333 109.72079324597821, 19.488 110.02145991264487, 19.488 110.31745991264488 C 19.488 110.61345991264488, 19.48533333333333 110.9067932459782, 19.479999999999997 111.19745991264487 C 19.474666666666664 111.48812657931154, 19.466666666666665 111.77745991264487, 19.456 112.06545991264487 C 19.439999999999998 112.51612657931153, 19.311999999999998 112.8647932459782, 19.072 113.11145991264488 C 18.831999999999997 113.35812657931154, 18.502666666666663 113.50145991264488, 18.084 113.54145991264487 Z M 21.944 113.47745991264487 L 21.944 107.07745991264487 L 23.003999999999998 107.07745991264487 L 23.003999999999998 113.47745991264487 Z " stroke="none" fill-rule="nonzero" fill="#000000" fill-opacity="1" transform="matrix(1,0,0,1,5.05,13.314)" id="text40 l" />
  <path d="M 0 108.76358691701262 L 10 108.76358691701262 L 10 110.26358691701262 L 0 110.26358691701262 Z " stroke="none" fill-rule="evenodd" fill="#000000" fill-opacity="1" transform="matrix(1,0,0,1,5.05,13.314)" id="mark41 l" />
  <path d="M 0 102.99971392138036 L 10 102.99971392138036 L 10 104.49971392138036 L 0 104.49971392138036 Z " stroke="none" fill-rule="evenodd" fill="#000000" fill-opacity="1" transform="matrix(1,0,0,1,5.05,13.314)" id="mark42 l" />
  <path d="M 0 97.23584092574814 L 10 97.23584092574814 L 10 98.73584092574814 L 0 98.73584092574814 Z " stroke="none" fill-rule="evenodd" fill="#000000" fill-opacity="1" transform="matrix(1,0,0,1,5.05,13.314)" id="mark43 l" />
  <path d="M 0 91.47196793011588 L 10 91.47196793011588 L 10 92.97196793011588 L 0 92.97196793011588 Z " stroke="none" fill-rule="evenodd" fill="#000000" fill-opacity="1" transform="matrix(1,0,0,1,5.05,13.314)" id="mark44 l" />
  <path d="M 0 85.70809493448365 L 25 85.70809493448365 L 25 87.20809493448365 L 0 87.20809493448365 Z " stroke="none" fill-rule="evenodd" fill="#000000" fill-opacity="1" transform="matrix(1,0,0,1,5.05,13.314)" id="mark45 l" />
  <path d="M 11.748 82.94209493448366 L 11.748 82.06609493448366 L 12.463999999999999 80.18609493448366 L 13.503999999999998 80.18609493448366 L 12.78 82.01809493448366 L 13.18 82.01809493448366 L 13.18 82.94209493448366 Z M 13.684 84.62609493448366 L 13.684 78.22609493448365 L 14.691999999999998 78.22609493448365 L 14.691999999999998 84.62609493448366 Z M 15.195999999999998 82.94209493448366 L 15.195999999999998 82.01809493448366 L 15.663999999999998 82.01809493448366 L 15.663999999999998 82.94209493448366 Z M 16.18 83.21009493448366 C 16.174666666666667 83.03676160115033, 16.173333333333332 82.89742826781699, 16.176 82.79209493448366 C 16.178666666666665 82.68676160115032, 16.181333333333335 82.58476160115032, 16.183999999999997 82.48609493448366 L 17.264 82.48609493448366 C 17.256 82.56342826781699, 17.25 82.65942826781699, 17.246 82.77409493448366 C 17.241999999999997 82.88876160115032, 17.240666666666666 82.999428267817, 17.241999999999997 83.10609493448366 C 17.243333333333332 83.21276160115033, 17.246666666666666 83.29276160115033, 17.252 83.34609493448366 C 17.262666666666668 83.46609493448366, 17.297333333333334 83.56409493448366, 17.355999999999998 83.64009493448366 C 17.414666666666665 83.71609493448366, 17.497333333333334 83.77009493448367, 17.604 83.80209493448366 L 17.604 84.69409493448366 C 17.110666666666663 84.65676160115032, 16.75333333333333 84.52209493448366, 16.532 84.29009493448366 C 16.310666666666666 84.05809493448366, 16.19333333333333 83.69809493448366, 16.18 83.21009493448366 Z M 16.279999999999998 81.87409493448367 L 16.279999999999998 78.22609493448365 L 17.348 78.22609493448365 L 17.348 81.87409493448367 Z M 17.852 81.45009493448366 L 17.852 80.69409493448366 C 17.929333333333332 80.65409493448365, 18.014666666666667 80.62209493448366, 18.107999999999997 80.59809493448365 C 18.20133333333333 80.57409493448367, 18.301333333333332 80.56209493448367, 18.407999999999998 80.56209493448367 C 18.773333333333333 80.56209493448367, 19.047333333333334 80.67742826781699, 19.23 80.90809493448366 C 19.412666666666667 81.13876160115032, 19.514666666666663 81.45276160115033, 19.535999999999998 81.85009493448366 C 19.546666666666667 82.01009493448366, 19.55333333333333 82.16876160115032, 19.555999999999997 82.32609493448366 C 19.558666666666664 82.483428267817, 19.557333333333332 82.63676160115033, 19.552 82.78609493448366 C 19.546666666666667 82.93542826781699, 19.538666666666668 83.07542826781699, 19.528 83.20609493448366 C 19.482666666666667 83.70476160115032, 19.353333333333335 84.07009493448366, 19.14 84.30209493448366 C 18.926666666666666 84.53409493448366, 18.581333333333333 84.66476160115033, 18.104 84.69409493448366 L 18.104 83.80209493448366 C 18.21333333333333 83.77276160115034, 18.296 83.72009493448367, 18.352 83.64409493448366 C 18.408 83.56809493448365, 18.44 83.46876160115032, 18.448 83.34609493448366 C 18.471999999999998 83.05542826781699, 18.485999999999997 82.79409493448367, 18.49 82.56209493448367 C 18.494 82.33009493448367, 18.485333333333333 82.10876160115032, 18.464 81.89809493448367 C 18.447999999999997 81.743428267817, 18.396666666666665 81.62809493448367, 18.31 81.55209493448366 C 18.223333333333333 81.47609493448365, 18.090666666666664 81.43809493448366, 17.912 81.43809493448366 C 17.901333333333334 81.43809493448366, 17.890666666666668 81.439428267817, 17.88 81.44209493448366 C 17.86933333333333 81.44476160115033, 17.86 81.44742826781699, 17.852 81.45009493448366 Z M 17.852 79.15809493448366 L 17.852 78.22609493448365 L 19.439999999999998 78.22609493448365 L 19.439999999999998 79.15809493448366 Z M 21.944 84.62609493448366 L 21.944 78.22609493448365 L 23.003999999999998 78.22609493448365 L 23.003999999999998 84.62609493448366 Z " stroke="none" fill-rule="nonzero" fill="#000000" fill-opacity="1" transform="matrix(1,0,0,1,5.05,13.314)" id="text45 l" />
  <path d="M 0 79.9442219388514 L 10 79.9442219388514 L 10 81.4442219388514 L 0 81.4442219388514 Z " stroke="none" fill-rule="evenodd" fill="#000000" fill-opacity="1" transform="matrix(1,0,0,1,5.05,13.314)" id="mark46 l" />
  <path d="M 0 74.18034894321914 L 10 74.18034894321914 L 10 75.68034894321914 L 0 75.68034894321914 Z " stroke="none" fill-rule="evenodd" fill="#000000" fill-opacity="1" transform="matrix(1,0,0,1,5.05,13.314)" id="mark47 l" />
  <path d="M 0 68.41647594758689 L 10 68.41647594758689 L 10 69.91647594758689 L 0 69.91647594758689 Z " stroke="none" fill-rule="evenodd" fill="#000000" fill-opacity="1" transform="matrix(1,0,0,1,5.05,13.314)" id="mark48 l" />
  <path d="M 0 62.65260295195469 L 10 62.65260295195469 L 10 64.15260295195469 L 0 64.15260295195469 Z " stroke="none" fill-rule="evenodd" fill="#000000" fill-opacity="1" transform="matrix(1,0,0,1,5.05,13.314)" id="mark49 l" />
  <path d="M 0 56.888729956322436 L 25 56.888729956322436 L 25 58.388729956322436 L 0 58.388729956322436 Z " stroke="none" fill-rule="evenodd" fill="#000000" fill-opacity="1" transform="matrix(1,0,0,1,5.05,13.314)" id="mark50 l" />
  <path d="M 12.204 54.42272995632244 C 12.198666666666668 54.2493966229891, 12.197333333333333 54.11006328965577, 12.2 54.004729956322436 C 12.202666666666667 53.8993966229891, 12.205333333333336 53.79739662298911, 12.208 53.69872995632244 L 13.288 53.69872995632244 C 13.280000000000001 53.77606328965577, 13.274000000000001 53.87206328965577, 13.27 53.98672995632244 C 13.265999999999998 54.10139662298911, 13.264666666666667 54.212063289655774, 13.266 54.318729956322436 C 13.267333333333333 54.4253966229891, 13.270666666666667 54.5053966229891, 13.276 54.55872995632244 C 13.286666666666665 54.678729956322435, 13.321333333333332 54.77672995632244, 13.379999999999999 54.85272995632244 C 13.438666666666666 54.92872995632244, 13.521333333333335 54.98272995632244, 13.628 55.01472995632244 L 13.628 55.90672995632244 C 13.134666666666668 55.8693966229891, 12.777333333333335 55.73472995632244, 12.556 55.50272995632244 C 12.334666666666667 55.27072995632244, 12.217333333333332 54.91072995632244, 12.204 54.42272995632244 Z M 12.304 53.086729956322436 L 12.304 49.43872995632244 L 13.372 49.43872995632244 L 13.372 53.086729956322436 Z M 13.876 52.66272995632244 L 13.876 51.90672995632244 C 13.953333333333333 51.86672995632244, 14.038666666666668 51.834729956322434, 14.132 51.81072995632244 C 14.225333333333333 51.78672995632243, 14.325333333333333 51.77472995632243, 14.432 51.77472995632244 C 14.797333333333334 51.77472995632243, 15.071333333333332 51.89006328965577, 15.254 52.120729956322435 C 15.436666666666667 52.3513966229891, 15.538666666666668 52.66539662298911, 15.56 53.06272995632244 C 15.570666666666668 53.22272995632244, 15.577333333333334 53.3813966229891, 15.58 53.53872995632244 C 15.582666666666666 53.69606328965577, 15.581333333333333 53.849396622989104, 15.576 53.998729956322435 C 15.570666666666666 54.148063289655774, 15.562666666666665 54.288063289655774, 15.552 54.41872995632244 C 15.506666666666668 54.91739662298911, 15.377333333333333 55.28272995632244, 15.164 55.51472995632244 C 14.950666666666667 55.74672995632244, 14.605333333333332 55.87739662298911, 14.128 55.90672995632244 L 14.128 55.01472995632244 C 14.237333333333334 54.98539662298911, 14.32 54.93272995632244, 14.376 54.85672995632244 C 14.432 54.78072995632244, 14.464 54.681396622989105, 14.472 54.55872995632244 C 14.495999999999999 54.26806328965577, 14.509999999999998 54.00672995632244, 14.514 53.77472995632244 C 14.518 53.54272995632244, 14.509333333333334 53.321396622989106, 14.488 53.11072995632244 C 14.472000000000001 52.95606328965577, 14.420666666666666 52.84072995632244, 14.334 52.76472995632244 C 14.247333333333334 52.68872995632244, 14.114666666666666 52.65072995632244, 13.936 52.65072995632244 C 13.925333333333333 52.65072995632244, 13.914666666666665 52.65206328965577, 13.904 52.65472995632244 C 13.893333333333334 52.65739662298911, 13.884 52.66006328965577, 13.876 52.66272995632244 Z M 13.876 50.370729956322435 L 13.876 49.43872995632244 L 15.464 49.43872995632244 L 15.464 50.370729956322435 Z M 16.196 54.42672995632244 C 16.188000000000002 53.9973966229891, 16.182666666666666 53.58072995632244, 16.18 53.17672995632244 C 16.177333333333333 52.772729956322436, 16.177999999999997 52.37739662298911, 16.182 51.99072995632244 C 16.186 51.60406328965577, 16.190666666666665 51.22272995632244, 16.196 50.84672995632244 C 16.209333333333333 50.40672995632244, 16.334000000000003 50.06139662298911, 16.57 49.81072995632244 C 16.805999999999997 49.56006328965577, 17.142666666666663 49.41472995632245, 17.58 49.37472995632244 L 17.58 50.26272995632244 C 17.382666666666665 50.31872995632244, 17.281333333333333 50.44806328965577, 17.276 50.65072995632244 C 17.262666666666668 51.02139662298911, 17.253333333333334 51.369396622989115, 17.248 51.69472995632244 C 17.242666666666665 52.02006328965578, 17.24 52.33672995632244, 17.24 52.644729956322436 C 17.24 52.95272995632244, 17.242666666666665 53.26739662298911, 17.248 53.58872995632244 C 17.253333333333334 53.91006328965577, 17.262666666666668 54.2533966229891, 17.276 54.61872995632244 C 17.281333333333333 54.82672995632244, 17.382666666666665 54.958729956322436, 17.58 55.01472995632244 L 17.58 55.90272995632244 C 17.142666666666663 55.86272995632244, 16.805999999999997 55.71672995632244, 16.57 55.46472995632244 C 16.334000000000003 55.212729956322434, 16.209333333333333 54.86672995632243, 16.196 54.42672995632244 Z M 18.084 55.90272995632244 L 18.084 55.010729956322436 C 18.268 54.9573966229891, 18.366666666666667 54.8333966229891, 18.38 54.638729956322436 C 18.398666666666667 54.17206328965577, 18.410666666666668 53.7233966229891, 18.416 53.29272995632244 C 18.421333333333333 52.862063289655765, 18.421333333333333 52.4313966229891, 18.416 52.00072995632244 C 18.410666666666668 51.570063289655764, 18.398666666666667 51.117396622989105, 18.38 50.64272995632244 C 18.374666666666666 50.44806328965578, 18.276 50.32139662298911, 18.084 50.26272995632244 L 18.084 49.37472995632244 C 18.513333333333335 49.41472995632245, 18.846666666666668 49.56006328965577, 19.084 49.81072995632244 C 19.321333333333335 50.06139662298911, 19.445333333333334 50.40672995632244, 19.456 50.84672995632244 C 19.46666666666667 51.16139662298911, 19.474666666666668 51.471396622989104, 19.48 51.77672995632244 C 19.485333333333333 52.08206328965578, 19.488 52.38272995632244, 19.488 52.67872995632244 C 19.488 52.97472995632244, 19.485333333333333 53.26806328965577, 19.48 53.55872995632244 C 19.474666666666668 53.849396622989104, 19.46666666666667 54.138729956322436, 19.456 54.42672995632244 C 19.439999999999998 54.87739662298911, 19.311999999999998 55.22606328965577, 19.072 55.47272995632244 C 18.832 55.71939662298911, 18.502666666666666 55.86272995632244, 18.084 55.90272995632244 Z M 21.944 55.83872995632244 L 21.944 49.43872995632244 L 23.003999999999998 49.43872995632244 L 23.003999999999998 55.83872995632244 Z " stroke="none" fill-rule="nonzero" fill="#000000" fill-opacity="1" transform="matrix(1,0,0,1,5.05,13.314)" id="text50 l" />
  <path d="M 0 51.12485696069018 L 10 51.12485696069018 L 10 52.62485696069018 L 0 52.62485696069018 Z " stroke="none" fill-rule="evenodd" fill="#000000" fill-opacity="1" transform="matrix(1,0,0,1,5.05,13.314)" id="mark51 l" />
  <path d="M 0 45.360983965057926 L 10 45.360983965057926 L 10 46.860983965057926 L 0 46.860983965057926 Z " stroke="none" fill-rule="evenodd" fill="#000000" fill-opacity="1" transform="matrix(1,0,0,1,5.05,13.314)" id="mark52 l" />
  <path d="M 0 39.59711096942567 L 10 39.59711096942567 L 10 41.09711096942567 L 0 41.09711096942567 Z " stroke="none" fill-rule="evenodd" fill="#000000" fill-opacity="1" transform="matrix(1,0,0,1,5.05,13.314)" id="mark53 l" />
  <path d="M 0 33.83323797379347 L 10 33.83323797379347 L 10 35.33323797379347 L 0 35.33323797379347 Z " stroke="none" fill-rule="evenodd" fill="#000000" fill-opacity="1" transform="matrix(1,0,0,1,5.05,13.314)" id="mark54 l" />
  <path d="M 0 28.069364978161218 L 25 28.069364978161218 L 25 29.569364978161218 L 0 29.569364978161218 Z " stroke="none" fill-rule="evenodd" fill="#000000" fill-opacity="1" transform="matrix(1,0,0,1,5.05,13.314)" id="mark55 l" />
  <path d="M 12.212 25.571364978161217 C 12.206666666666667 25.39803164482788, 12.205333333333332 25.25869831149455, 12.207999999999998 25.153364978161218 C 12.210666666666667 25.04803164482788, 12.213333333333335 24.946031644827883, 12.216 24.847364978161217 L 13.296 24.847364978161217 C 13.288 24.924698311494552, 13.282 25.02069831149455, 13.277999999999999 25.135364978161217 C 13.273999999999997 25.250031644827885, 13.272666666666666 25.360698311494552, 13.274 25.467364978161218 C 13.275333333333332 25.574031644827883, 13.278666666666666 25.654031644827885, 13.283999999999999 25.707364978161216 C 13.294666666666664 25.827364978161217, 13.32933333333333 25.92536497816122, 13.387999999999998 26.001364978161217 C 13.446666666666665 26.07736497816122, 13.529333333333334 26.131364978161216, 13.636 26.163364978161216 L 13.636 27.05536497816122 C 13.142666666666667 27.018031644827886, 12.785333333333334 26.883364978161218, 12.563999999999998 26.65136497816122 C 12.342666666666666 26.419364978161216, 12.225333333333332 26.059364978161213, 12.212 25.571364978161217 Z M 12.312 24.23536497816122 L 12.312 20.58736497816122 L 13.379999999999999 20.58736497816122 L 13.379999999999999 24.23536497816122 Z M 13.883999999999999 23.811364978161215 L 13.883999999999999 23.05536497816122 C 13.961333333333332 23.015364978161216, 14.046666666666667 22.983364978161216, 14.139999999999999 22.95936497816122 C 14.233333333333333 22.935364978161218, 14.333333333333332 22.923364978161217, 14.44 22.923364978161217 C 14.805333333333333 22.923364978161217, 15.07933333333333 23.03869831149455, 15.261999999999999 23.269364978161217 C 15.444666666666667 23.500031644827885, 15.546666666666667 23.814031644827885, 15.568 24.211364978161217 C 15.578666666666667 24.371364978161218, 15.585333333333333 24.530031644827883, 15.588 24.687364978161217 C 15.590666666666666 24.84469831149455, 15.589333333333332 24.998031644827883, 15.584 25.147364978161217 C 15.578666666666665 25.296698311494552, 15.570666666666664 25.43669831149455, 15.559999999999999 25.567364978161216 C 15.514666666666667 26.066031644827884, 15.385333333333332 26.43136497816122, 15.171999999999999 26.663364978161216 C 14.958666666666666 26.89536497816122, 14.613333333333332 27.02603164482788, 14.136 27.05536497816122 L 14.136 26.163364978161216 C 14.245333333333333 26.134031644827886, 14.328 26.08136497816122, 14.383999999999999 26.005364978161218 C 14.44 25.929364978161217, 14.472 25.830031644827883, 14.479999999999999 25.707364978161216 C 14.503999999999998 25.41669831149455, 14.517999999999997 25.155364978161217, 14.521999999999998 24.923364978161217 C 14.526 24.691364978161218, 14.517333333333333 24.470031644827884, 14.495999999999999 24.259364978161216 C 14.48 24.10469831149455, 14.428666666666665 23.989364978161216, 14.341999999999999 23.91336497816122 C 14.255333333333333 23.83736497816122, 14.122666666666666 23.79936497816122, 13.943999999999999 23.79936497816122 C 13.933333333333332 23.79936497816122, 13.922666666666665 23.80069831149455, 13.911999999999999 23.803364978161216 C 13.901333333333334 23.806031644827883, 13.892 23.80869831149455, 13.883999999999999 23.811364978161215 Z M 13.883999999999999 21.519364978161217 L 13.883999999999999 20.58736497816122 L 15.472 20.58736497816122 L 15.472 21.519364978161217 Z M 16.18 25.571364978161217 C 16.174666666666667 25.39803164482788, 16.173333333333332 25.25869831149455, 16.176 25.153364978161218 C 16.178666666666665 25.04803164482788, 16.181333333333335 24.946031644827883, 16.183999999999997 24.847364978161217 L 17.264 24.847364978161217 C 17.256 24.924698311494552, 17.25 25.02069831149455, 17.246 25.135364978161217 C 17.241999999999997 25.250031644827885, 17.240666666666666 25.360698311494552, 17.241999999999997 25.467364978161218 C 17.243333333333332 25.574031644827883, 17.246666666666666 25.654031644827885, 17.252 25.707364978161216 C 17.262666666666668 25.827364978161217, 17.297333333333334 25.92536497816122, 17.355999999999998 26.001364978161217 C 17.414666666666665 26.07736497816122, 17.497333333333334 26.131364978161216, 17.604 26.163364978161216 L 17.604 27.05536497816122 C 17.110666666666663 27.018031644827886, 16.75333333333333 26.883364978161218, 16.532 26.65136497816122 C 16.310666666666666 26.419364978161216, 16.19333333333333 26.059364978161213, 16.18 25.571364978161217 Z M 16.279999999999998 24.23536497816122 L 16.279999999999998 20.58736497816122 L 17.348 20.58736497816122 L 17.348 24.23536497816122 Z M 17.852 23.811364978161215 L 17.852 23.05536497816122 C 17.929333333333332 23.015364978161216, 18.014666666666667 22.983364978161216, 18.107999999999997 22.95936497816122 C 18.20133333333333 22.935364978161218, 18.301333333333332 22.923364978161217, 18.407999999999998 22.923364978161217 C 18.773333333333333 22.923364978161217, 19.047333333333334 23.03869831149455, 19.23 23.269364978161217 C 19.412666666666667 23.500031644827885, 19.514666666666663 23.814031644827885, 19.535999999999998 24.211364978161217 C 19.546666666666667 24.371364978161218, 19.55333333333333 24.530031644827883, 19.555999999999997 24.687364978161217 C 19.558666666666664 24.84469831149455, 19.557333333333332 24.998031644827883, 19.552 25.147364978161217 C 19.546666666666667 25.296698311494552, 19.538666666666668 25.43669831149455, 19.528 25.567364978161216 C 19.482666666666667 26.066031644827884, 19.353333333333335 26.43136497816122, 19.14 26.663364978161216 C 18.926666666666666 26.89536497816122, 18.581333333333333 27.02603164482788, 18.104 27.05536497816122 L 18.104 26.163364978161216 C 18.21333333333333 26.134031644827886, 18.296 26.08136497816122, 18.352 26.005364978161218 C 18.408 25.929364978161217, 18.44 25.830031644827883, 18.448 25.707364978161216 C 18.471999999999998 25.41669831149455, 18.485999999999997 25.155364978161217, 18.49 24.923364978161217 C 18.494 24.691364978161218, 18.485333333333333 24.470031644827884, 18.464 24.259364978161216 C 18.447999999999997 24.10469831149455, 18.396666666666665 23.989364978161216, 18.31 23.91336497816122 C 18.223333333333333 23.83736497816122, 18.090666666666664 23.79936497816122, 17.912 23.79936497816122 C 17.901333333333334 23.79936497816122, 17.890666666666668 23.80069831149455, 17.88 23.803364978161216 C 17.86933333333333 23.806031644827883, 17.86 23.80869831149455, 17.852 23.811364978161215 Z M 17.852 21.519364978161217 L 17.852 20.58736497816122 L 19.439999999999998 20.58736497816122 L 19.439999999999998 21.519364978161217 Z M 21.944 26.987364978161217 L 21.944 20.58736497816122 L 23.003999999999998 20.58736497816122 L 23.003999999999998 26.987364978161217 Z " stroke="none" fill-rule="nonzero" fill="#000000" fill-opacity="1" transform="matrix(1,0,0,1,5.05,13.314)" id="text55 l" />
  <path d="M 0 22.305491982528963 L 10 22.305491982528963 L 10 23.805491982528963 L 0 23.805491982528963 Z " stroke="none" fill-rule="evenodd" fill="#000000" fill-opacity="1" transform="matrix(1,0,0,1,5.05,13.314)" id="mark56 l" />
  <path d="M 0 16.541618986896708 L 10 16.541618986896708 L 10 18.041618986896708 L 0 18.041618986896708 Z " stroke="none" fill-rule="evenodd" fill="#000000" fill-opacity="1" transform="matrix(1,0,0,1,5.05,13.314)" id="mark57 l" />
  <path d="M 0 10.777745991264453 L 10 10.777745991264453 L 10 12.277745991264453 L 0 12.277745991264453 Z " stroke="none" fill-rule="evenodd" fill="#000000" fill-opacity="1" transform="matrix(1,0,0,1,5.05,13.314)" id="mark58 l" />
  <path d="M 0 5.013872995632198 L 10 5.013872995632198 L 10 6.513872995632198 L 0 6.513872995632198 Z " stroke="none" fill-rule="evenodd" fill="#000000" fill-opacity="1" transform="matrix(1,0,0,1,5.05,13.314)" id="mark59 l" />
  <path d="M 0 -0.75 L 25 -0.75 L 25 0.75 L 0 0.75 Z " stroke="none" fill-rule="evenodd" fill="#000000" fill-opacity="1" transform="matrix(1,0,0,1,5.05,13.314)" id="mark60 l" />
  <path d="M 12.264 -3.2159999999999997 C 12.261333333333333 -3.4799999999999995, 12.258 -3.7573333333333334, 12.254 -4.048 C 12.25 -4.338666666666667, 12.248 -4.637333333333333, 12.248 -4.944 C 12.248 -5.250666666666667, 12.249333333333333 -5.558666666666666, 12.251999999999999 -5.867999999999999 C 12.254666666666665 -6.1773333333333325, 12.258666666666667 -6.485333333333333, 12.264 -6.792 C 12.271999999999998 -7.256, 12.397333333333332 -7.6080000000000005, 12.639999999999999 -7.848 C 12.882666666666665 -8.088000000000001, 13.215999999999998 -8.226666666666667, 13.639999999999999 -8.264 L 13.639999999999999 -7.372 C 13.543999999999997 -7.347999999999999, 13.470666666666665 -7.303999999999999, 13.419999999999998 -7.239999999999999 C 13.369333333333332 -7.176, 13.343999999999998 -7.090666666666667, 13.344 -6.984 C 13.335999999999999 -6.496, 13.330666666666666 -6.029333333333334, 13.328 -5.584 C 13.325333333333333 -5.1386666666666665, 13.323999999999998 -4.705333333333334, 13.323999999999998 -4.284 C 13.323999999999998 -3.8626666666666667, 13.328 -3.4480000000000004, 13.335999999999999 -3.04 C 13.335999999999999 -2.9306666666666668, 13.363333333333333 -2.841333333333333, 13.418 -2.772 C 13.472666666666665 -2.7026666666666666, 13.549333333333333 -2.653333333333333, 13.648 -2.6239999999999997 L 13.648 -1.7319999999999998 C 13.159999999999998 -1.7639999999999998, 12.809333333333331 -1.896, 12.595999999999998 -2.1279999999999997 C 12.382666666666665 -2.36, 12.271999999999998 -2.7226666666666666, 12.264 -3.2159999999999997 Z M 13.812 -4.896 L 13.812 -5.64 C 13.894666666666666 -5.688, 13.987333333333332 -5.725333333333333, 14.09 -5.752 C 14.192666666666668 -5.778666666666666, 14.301333333333332 -5.792, 14.415999999999999 -5.792 C 14.84 -5.792, 15.134 -5.692666666666666, 15.297999999999998 -5.494 C 15.462 -5.295333333333334, 15.547999999999998 -4.964, 15.556 -4.5 C 15.561333333333334 -4.316000000000001, 15.564666666666666 -4.160666666666667, 15.565999999999999 -4.034 C 15.567333333333332 -3.907333333333333, 15.567333333333332 -3.7826666666666666, 15.565999999999999 -3.6599999999999997 C 15.564666666666666 -3.5373333333333337, 15.559999999999999 -3.389333333333333, 15.552 -3.2159999999999997 C 15.527999999999999 -2.7253333333333334, 15.408 -2.3626666666666667, 15.192 -2.1279999999999997 C 14.975999999999999 -1.893333333333333, 14.628 -1.7613333333333332, 14.148 -1.7319999999999998 L 14.148 -2.6159999999999997 C 14.251999999999999 -2.6453333333333333, 14.331333333333333 -2.6933333333333334, 14.386 -2.76 C 14.440666666666665 -2.826666666666666, 14.469333333333333 -2.913333333333333, 14.472 -3.0199999999999996 C 14.477333333333332 -3.174666666666666, 14.481333333333332 -3.313333333333333, 14.483999999999998 -3.436 C 14.486666666666666 -3.558666666666667, 14.489333333333335 -3.676, 14.491999999999999 -3.788 C 14.494666666666667 -3.9, 14.495333333333333 -4.011333333333333, 14.494 -4.122 C 14.492666666666667 -4.232666666666667, 14.489333333333333 -4.349333333333333, 14.483999999999998 -4.4719999999999995 C 14.481333333333332 -4.621333333333333, 14.429333333333332 -4.732, 14.328 -4.804 C 14.226666666666665 -4.876, 14.094666666666665 -4.912, 13.931999999999999 -4.912 C 13.913333333333334 -4.912, 13.894 -4.911333333333333, 13.873999999999999 -4.91 C 13.854 -4.908666666666667, 13.833333333333332 -4.904, 13.812 -4.896 Z M 14.44 -6.216 C 14.448 -6.309333333333333, 14.452666666666666 -6.391333333333333, 14.453999999999999 -6.462 C 14.455333333333332 -6.532666666666667, 14.454666666666665 -6.6080000000000005, 14.451999999999998 -6.688 C 14.449333333333332 -6.768000000000001, 14.445333333333334 -6.866666666666667, 14.44 -6.984 C 14.434666666666665 -7.082666666666666, 14.407999999999998 -7.165999999999999, 14.36 -7.233999999999999 C 14.311999999999998 -7.302, 14.238666666666665 -7.347999999999999, 14.139999999999999 -7.372 L 14.139999999999999 -8.26 C 14.577333333333332 -8.219999999999999, 14.911333333333332 -8.075333333333333, 15.142 -7.826 C 15.372666666666667 -7.576666666666666, 15.495999999999999 -7.2493333333333325, 15.511999999999999 -6.843999999999999 C 15.514666666666667 -6.777333333333333, 15.516666666666666 -6.7139999999999995, 15.517999999999999 -6.654 C 15.519333333333332 -6.594, 15.519333333333332 -6.53, 15.517999999999999 -6.462 C 15.516666666666666 -6.393999999999999, 15.514666666666667 -6.311999999999999, 15.511999999999999 -6.216 Z M 16.196 -3.2119999999999997 C 16.188000000000002 -3.641333333333333, 16.182666666666666 -4.058, 16.18 -4.462 C 16.177333333333333 -4.866, 16.177999999999997 -5.261333333333333, 16.182 -5.648 C 16.186 -6.034666666666666, 16.190666666666665 -6.416, 16.196 -6.792 C 16.209333333333333 -7.231999999999999, 16.334000000000003 -7.577333333333334, 16.57 -7.828 C 16.805999999999997 -8.078666666666667, 17.142666666666663 -8.224, 17.58 -8.264 L 17.58 -7.3759999999999994 C 17.382666666666665 -7.32, 17.281333333333333 -7.190666666666667, 17.276 -6.9879999999999995 C 17.262666666666668 -6.617333333333333, 17.253333333333334 -6.269333333333333, 17.248 -5.944 C 17.242666666666665 -5.618666666666666, 17.24 -5.302, 17.24 -4.994 C 17.24 -4.686, 17.242666666666665 -4.371333333333333, 17.248 -4.05 C 17.253333333333334 -3.7286666666666664, 17.262666666666668 -3.3853333333333326, 17.276 -3.0199999999999996 C 17.281333333333333 -2.812, 17.382666666666665 -2.6799999999999997, 17.58 -2.6239999999999997 L 17.58 -1.7359999999999998 C 17.142666666666663 -1.7759999999999998, 16.805999999999997 -1.9219999999999997, 16.57 -2.174 C 16.334000000000003 -2.4259999999999997, 16.209333333333333 -2.772, 16.196 -3.2119999999999997 Z M 18.084 -1.7359999999999998 L 18.084 -2.6279999999999997 C 18.268 -2.681333333333333, 18.366666666666667 -2.8053333333333335, 18.38 -3 C 18.398666666666667 -3.4666666666666663, 18.410666666666668 -3.915333333333333, 18.416 -4.346 C 18.421333333333333 -4.776666666666666, 18.421333333333333 -5.207333333333333, 18.416 -5.638 C 18.410666666666668 -6.068666666666666, 18.398666666666667 -6.521333333333333, 18.38 -6.9959999999999996 C 18.374666666666666 -7.190666666666667, 18.276 -7.317333333333334, 18.084 -7.3759999999999994 L 18.084 -8.264 C 18.513333333333335 -8.224, 18.846666666666668 -8.078666666666667, 19.084 -7.828 C 19.321333333333335 -7.577333333333334, 19.445333333333334 -7.231999999999999, 19.456 -6.792 C 19.46666666666667 -6.477333333333332, 19.474666666666668 -6.167333333333333, 19.48 -5.861999999999999 C 19.485333333333333 -5.556666666666667, 19.488 -5.256, 19.488 -4.96 C 19.488 -4.664, 19.485333333333333 -4.370666666666667, 19.48 -4.08 C 19.474666666666668 -3.7893333333333334, 19.46666666666667 -3.5, 19.456 -3.2119999999999997 C 19.439999999999998 -2.761333333333333, 19.311999999999998 -2.4126666666666665, 19.072 -2.166 C 18.832 -1.9193333333333331, 18.502666666666666 -1.7759999999999998, 18.084 -1.7359999999999998 Z M 21.944 -1.7999999999999998 L 21.944 -8.2 L 23.003999999999998 -8.2 L 23.003999999999998 -1.7999999999999998 Z " stroke="none" fill-rule="nonzero" fill="#000000" fill-opacity="1" transform="matrix(1,0,0,1,5.05,13.314)" id="text60 l" />
  <path d="M -5 -13.264 L 30 -13.264 L 30 346.83650674230233 L -5 346.83650674230233 Z " stroke="#FF0000" stroke-opacity="1" stroke-width="0.1" stroke-linecap="butt" stroke-linejoin="miter" fill="none" transform="matrix(1,0,0,1,5.05,13.314)" />
</svg>