<?xml version="1.0" encoding="UTF-8"?>
<svg xmlns:xlink="http://www.w3.org/1999/xlink" viewBox="0 0 35.1 483.95518917658137" version="1.1" style="font-synthesis: none;" width="35.1mm" height="483.9551891765814mm" xmlns="http://www.w3.org/2000/svg">
  <defs />
  <style>	</style>
  <path d="M 0 0 L 35.1 0 L 35.1 483.95518917658137 L 0 483.95518917658137 Z " stroke="none" fill-rule="nonzero" fill="#FFFFFF" fill-opacity="1" transform="matrix(1,0,0,1,0,0)" />
  <path d="M 0 463.10518917658146 L 10 463.10518917658146 L 10 464.60518917658146 L 0 464.60518917658146 Z " stroke="none" fill-rule="evenodd" fill="#000000" fill-opacity="1" transform="matrix(1,0,0,1,5.05,13.314)" id="mark1 l" />
  <path d="M 0 454.515278265904 L 10 454.515278265904 L 10 456.015278265904 L 0 456.015278265904 Z " stroke="none" fill-rule="evenodd" fill="#000000" fill-opacity="1" transform="matrix(1,0,0,1,5.05,13.314)" id="mark2 l" />
  <path d="M 0 445.92536735522657 L 10 445.92536735522657 L 10 447.42536735522657 L 0 447.42536735522657 Z " stroke="none" fill-rule="evenodd" fill="#000000" fill-opacity="1" transform="matrix(1,0,0,1,5.05,13.314)" id="mark3 l" />
  <path d="M 0 437.33545644454915 L 10 437.33545644454915 L 10 438.83545644454915 L 0 438.83545644454915 Z " stroke="none" fill-rule="evenodd" fill="#000000" fill-opacity="1" transform="matrix(1,0,0,1,5.05,13.314)" id="mark4 l" />
  <path d="M 0 428.7455455338717 L 25 428.7455455338717 L 25 430.2455455338717 L 0 430.2455455338717 Z " stroke="none" fill-rule="evenodd" fill="#000000" fill-opacity="1" transform="matrix(1,0,0,1,5.05,13.314)" id="mark5 l" />
  <path d="M 16.18 426.2475455338717 C 16.174666666666667 426.07421220053834, 16.173333333333332 425.93487886720504, 16.176 425.8295455338717 C 16.178666666666665 425.7242122005383, 16.181333333333335 425.62221220053834, 16.183999999999997 425.5235455338717 L 17.264 425.5235455338717 C 17.256 425.600878867205, 17.25 425.696878867205, 17.246 425.8115455338717 C 17.241999999999997 425.9262122005383, 17.240666666666666 426.036878867205, 17.241999999999997 426.1435455338717 C 17.243333333333332 426.25021220053833, 17.246666666666666 426.3302122005383, 17.252 426.3835455338717 C 17.262666666666668 426.5035455338717, 17.297333333333334 426.6015455338717, 17.355999999999998 426.6775455338717 C 17.414666666666665 426.75354553387166, 17.497333333333334 426.8075455338717, 17.604 426.83954553387167 L 17.604 427.73154553387167 C 17.110666666666663 427.69421220053835, 16.75333333333333 427.55954553387164, 16.532 427.32754553387167 C 16.310666666666666 427.0955455338717, 16.19333333333333 426.7355455338717, 16.18 426.2475455338717 Z M 16.279999999999998 424.9115455338717 L 16.279999999999998 421.2635455338717 L 17.348 421.2635455338717 L 17.348 424.9115455338717 Z M 17.852 424.4875455338717 L 17.852 423.73154553387167 C 17.929333333333332 423.6915455338717, 18.014666666666667 423.65954553387166, 18.107999999999997 423.63554553387166 C 18.20133333333333 423.61154553387166, 18.301333333333332 423.59954553387166, 18.407999999999998 423.59954553387166 C 18.773333333333333 423.59954553387166, 19.047333333333334 423.714878867205, 19.23 423.94554553387167 C 19.412666666666667 424.1762122005383, 19.514666666666663 424.4902122005384, 19.535999999999998 424.8875455338717 C 19.546666666666667 425.0475455338717, 19.55333333333333 425.2062122005383, 19.555999999999997 425.3635455338717 C 19.558666666666664 425.52087886720494, 19.557333333333332 425.67421220053836, 19.552 425.8235455338717 C 19.546666666666667 425.97287886720505, 19.538666666666668 426.11287886720504, 19.528 426.24354553387167 C 19.482666666666667 426.74221220053835, 19.353333333333335 427.10754553387164, 19.14 427.33954553387167 C 18.926666666666666 427.5715455338717, 18.581333333333333 427.7022122005384, 18.104 427.73154553387167 L 18.104 426.83954553387167 C 18.21333333333333 426.81021220053833, 18.296 426.7575455338717, 18.352 426.68154553387166 C 18.408 426.6055455338717, 18.44 426.50621220053836, 18.448 426.3835455338717 C 18.471999999999998 426.09287886720506, 18.485999999999997 425.8315455338717, 18.49 425.59954553387166 C 18.494 425.36754553387163, 18.485333333333333 425.14621220053834, 18.464 424.9355455338717 C 18.447999999999997 424.78087886720505, 18.396666666666665 424.66554553387175, 18.31 424.58954553387167 C 18.223333333333333 424.5135455338717, 18.090666666666664 424.4755455338717, 17.912 424.4755455338717 C 17.901333333333334 424.4755455338717, 17.890666666666668 424.47687886720496, 17.88 424.47954553387166 C 17.86933333333333 424.48221220053836, 17.86 424.484878867205, 17.852 424.4875455338717 Z M 17.852 422.19554553387167 L 17.852 421.2635455338717 L 19.439999999999998 421.2635455338717 L 19.439999999999998 422.19554553387167 Z M 21.944 427.6635455338717 L 21.944 421.2635455338717 L 23.003999999999998 421.2635455338717 L 23.003999999999998 427.6635455338717 Z " stroke="none" fill-rule="nonzero" fill="#000000" fill-opacity="1" transform="matrix(1,0,0,1,5.05,13.314)" id="text5 l" />
  <path d="M 0 420.15563462319426 L 10 420.15563462319426 L 10 421.65563462319426 L 0 421.65563462319426 Z " stroke="none" fill-rule="evenodd" fill="#000000" fill-opacity="1" transform="matrix(1,0,0,1,5.05,13.314)" id="mark6 l" />
  <path d="M 0 411.56572371251684 L 10 411.56572371251684 L 10 413.06572371251684 L 0 413.06572371251684 Z " stroke="none" fill-rule="evenodd" fill="#000000" fill-opacity="1" transform="matrix(1,0,0,1,5.05,13.314)" id="mark7 l" />
  <path d="M 0 402.9758128018394 L 10 402.9758128018394 L 10 404.4758128018394 L 0 404.4758128018394 Z " stroke="none" fill-rule="evenodd" fill="#000000" fill-opacity="1" transform="matrix(1,0,0,1,5.05,13.314)" id="mark8 l" />
  <path d="M 0 394.38590189116195 L 10 394.38590189116195 L 10 395.88590189116195 L 0 395.88590189116195 Z " stroke="none" fill-rule="evenodd" fill="#000000" fill-opacity="1" transform="matrix(1,0,0,1,5.05,13.314)" id="mark9 l" />
  <path d="M 0 385.79599098048453 L 25 385.79599098048453 L 25 387.29599098048453 L 0 387.29599098048453 Z " stroke="none" fill-rule="evenodd" fill="#000000" fill-opacity="1" transform="matrix(1,0,0,1,5.05,13.314)" id="mark10 l" />
  <path d="M 14.323999999999998 384.7459909804845 L 14.323999999999998 379.3019909804845 L 13.871999999999998 379.3019909804845 L 13.839999999999998 378.9219909804845 L 14.543999999999999 378.34599098048454 L 15.424 378.34599098048454 L 15.424 384.7459909804845 Z M 16.196 383.33399098048454 C 16.188000000000002 382.9046576471512, 16.182666666666666 382.48799098048454, 16.18 382.08399098048454 C 16.177333333333333 381.67999098048455, 16.177999999999997 381.2846576471512, 16.182 380.8979909804845 C 16.186 380.51132431381785, 16.190666666666665 380.12999098048454, 16.196 379.7539909804845 C 16.209333333333333 379.3139909804845, 16.334000000000003 378.9686576471512, 16.57 378.7179909804845 C 16.805999999999997 378.4673243138178, 17.142666666666663 378.32199098048454, 17.58 378.2819909804845 L 17.58 379.1699909804845 C 17.382666666666665 379.22599098048454, 17.281333333333333 379.35532431381785, 17.276 379.55799098048453 C 17.262666666666668 379.92865764715117, 17.253333333333334 380.2766576471512, 17.248 380.6019909804845 C 17.242666666666665 380.92732431381785, 17.24 381.2439909804845, 17.24 381.5519909804845 C 17.24 381.8599909804845, 17.242666666666665 382.17465764715115, 17.248 382.4959909804845 C 17.253333333333334 382.8173243138179, 17.262666666666668 383.1606576471512, 17.276 383.5259909804845 C 17.281333333333333 383.73399098048446, 17.382666666666665 383.8659909804845, 17.58 383.9219909804845 L 17.58 384.80999098048454 C 17.142666666666663 384.7699909804845, 16.805999999999997 384.62399098048456, 16.57 384.3719909804845 C 16.334000000000003 384.11999098048454, 16.209333333333333 383.77399098048454, 16.196 383.33399098048454 Z M 18.084 384.80999098048454 L 18.084 383.91799098048455 C 18.268 383.86465764715115, 18.366666666666667 383.7406576471512, 18.38 383.54599098048453 C 18.398666666666667 383.0793243138179, 18.410666666666668 382.6306576471512, 18.416 382.19999098048453 C 18.421333333333333 381.76932431381783, 18.421333333333333 381.3386576471512, 18.416 380.9079909804845 C 18.410666666666668 380.47732431381786, 18.398666666666667 380.02465764715123, 18.38 379.5499909804845 C 18.374666666666666 379.35532431381785, 18.276 379.2286576471512, 18.084 379.1699909804845 L 18.084 378.2819909804845 C 18.513333333333335 378.32199098048454, 18.846666666666668 378.4673243138178, 19.084 378.7179909804845 C 19.321333333333335 378.9686576471512, 19.445333333333334 379.3139909804845, 19.456 379.7539909804845 C 19.46666666666667 380.0686576471512, 19.474666666666668 380.3786576471512, 19.48 380.6839909804845 C 19.485333333333333 380.98932431381786, 19.488 381.2899909804845, 19.488 381.5859909804845 C 19.488 381.8819909804845, 19.485333333333333 382.17532431381784, 19.48 382.46599098048455 C 19.474666666666668 382.7566576471512, 19.46666666666667 383.04599098048453, 19.456 383.33399098048454 C 19.439999999999998 383.7846576471512, 19.311999999999998 384.13332431381787, 19.072 384.37999098048454 C 18.832 384.6266576471512, 18.502666666666666 384.7699909804845, 18.084 384.80999098048454 Z M 21.944 384.7459909804845 L 21.944 378.34599098048454 L 23.003999999999998 378.34599098048454 L 23.003999999999998 384.7459909804845 Z " stroke="none" fill-rule="nonzero" fill="#000000" fill-opacity="1" transform="matrix(1,0,0,1,5.05,13.314)" id="text10 l" />
  <path d="M 0 377.2060800698071 L 10 377.2060800698071 L 10 378.7060800698071 L 0 378.7060800698071 Z " stroke="none" fill-rule="evenodd" fill="#000000" fill-opacity="1" transform="matrix(1,0,0,1,5.05,13.314)" id="mark11 l" />
  <path d="M 0 368.61616915912964 L 10 368.61616915912964 L 10 370.11616915912964 L 0 370.11616915912964 Z " stroke="none" fill-rule="evenodd" fill="#000000" fill-opacity="1" transform="matrix(1,0,0,1,5.05,13.314)" id="mark12 l" />
  <path d="M 0 360.0262582484522 L 10 360.0262582484522 L 10 361.5262582484522 L 0 361.5262582484522 Z " stroke="none" fill-rule="evenodd" fill="#000000" fill-opacity="1" transform="matrix(1,0,0,1,5.05,13.314)" id="mark13 l" />
  <path d="M 0 351.4363473377748 L 10 351.4363473377748 L 10 352.9363473377748 L 0 352.9363473377748 Z " stroke="none" fill-rule="evenodd" fill="#000000" fill-opacity="1" transform="matrix(1,0,0,1,5.05,13.314)" id="mark14 l" />
  <path d="M 0 342.8464364270974 L 25 342.8464364270974 L 25 344.3464364270974 L 0 344.3464364270974 Z " stroke="none" fill-rule="evenodd" fill="#000000" fill-opacity="1" transform="matrix(1,0,0,1,5.05,13.314)" id="mark15 l" />
  <path d="M 14.331999999999999 341.7644364270974 L 14.331999999999999 336.3204364270974 L 13.879999999999999 336.3204364270974 L 13.847999999999999 335.9404364270974 L 14.552 335.3644364270974 L 15.432 335.3644364270974 L 15.432 341.7644364270974 Z M 16.18 340.3484364270974 C 16.174666666666667 340.17510309376405, 16.173333333333332 340.03576976043075, 16.176 339.9304364270974 C 16.178666666666665 339.825103093764, 16.181333333333335 339.72310309376405, 16.183999999999997 339.6244364270974 L 17.264 339.6244364270974 C 17.256 339.70176976043075, 17.25 339.79776976043075, 17.246 339.9124364270974 C 17.241999999999997 340.0271030937641, 17.240666666666666 340.13776976043073, 17.241999999999997 340.2444364270974 C 17.243333333333332 340.3511030937641, 17.246666666666666 340.4311030937641, 17.252 340.4844364270974 C 17.262666666666668 340.60443642709737, 17.297333333333334 340.7024364270974, 17.355999999999998 340.7784364270974 C 17.414666666666665 340.8544364270974, 17.497333333333334 340.9084364270974, 17.604 340.9404364270974 L 17.604 341.8324364270974 C 17.110666666666663 341.79510309376406, 16.75333333333333 341.6604364270974, 16.532 341.4284364270974 C 16.310666666666666 341.19643642709735, 16.19333333333333 340.8364364270974, 16.18 340.3484364270974 Z M 16.279999999999998 339.0124364270974 L 16.279999999999998 335.3644364270974 L 17.348 335.3644364270974 L 17.348 339.0124364270974 Z M 17.852 338.5884364270974 L 17.852 337.8324364270974 C 17.929333333333332 337.79243642709736, 18.014666666666667 337.7604364270974, 18.107999999999997 337.7364364270974 C 18.20133333333333 337.7124364270974, 18.301333333333332 337.7004364270974, 18.407999999999998 337.7004364270974 C 18.773333333333333 337.7004364270974, 19.047333333333334 337.8157697604307, 19.23 338.0464364270974 C 19.412666666666667 338.277103093764, 19.514666666666663 338.59110309376405, 19.535999999999998 338.9884364270974 C 19.546666666666667 339.1484364270974, 19.55333333333333 339.30710309376406, 19.555999999999997 339.4644364270974 C 19.558666666666664 339.6217697604307, 19.557333333333332 339.7751030937641, 19.552 339.9244364270974 C 19.546666666666667 340.07376976043076, 19.538666666666668 340.21376976043075, 19.528 340.3444364270974 C 19.482666666666667 340.84310309376406, 19.353333333333335 341.20843642709735, 19.14 341.4404364270974 C 18.926666666666666 341.6724364270974, 18.581333333333333 341.80310309376404, 18.104 341.8324364270974 L 18.104 340.9404364270974 C 18.21333333333333 340.91110309376404, 18.296 340.8584364270974, 18.352 340.78243642709737 C 18.408 340.7064364270974, 18.44 340.60710309376407, 18.448 340.4844364270974 C 18.471999999999998 340.1937697604307, 18.485999999999997 339.9324364270974, 18.49 339.7004364270974 C 18.494 339.4684364270974, 18.485333333333333 339.24710309376405, 18.464 339.0364364270974 C 18.447999999999997 338.88176976043076, 18.396666666666665 338.7664364270974, 18.31 338.6904364270974 C 18.223333333333333 338.6144364270974, 18.090666666666664 338.5764364270974, 17.912 338.5764364270974 C 17.901333333333334 338.5764364270974, 17.890666666666668 338.5777697604307, 17.88 338.58043642709737 C 17.86933333333333 338.58310309376407, 17.86 338.5857697604307, 17.852 338.5884364270974 Z M 17.852 336.2964364270974 L 17.852 335.3644364270974 L 19.439999999999998 335.3644364270974 L 19.439999999999998 336.2964364270974 Z M 21.944 341.7644364270974 L 21.944 335.3644364270974 L 23.003999999999998 335.3644364270974 L 23.003999999999998 341.7644364270974 Z " stroke="none" fill-rule="nonzero" fill="#000000" fill-opacity="1" transform="matrix(1,0,0,1,5.05,13.314)" id="text15 l" />
  <path d="M 0 334.25652551641997 L 10 334.25652551641997 L 10 335.75652551641997 L 0 335.75652551641997 Z " stroke="none" fill-rule="evenodd" fill="#000000" fill-opacity="1" transform="matrix(1,0,0,1,5.05,13.314)" id="mark16 l" />
  <path d="M 0 325.6666146057425 L 10 325.6666146057425 L 10 327.1666146057425 L 0 327.1666146057425 Z " stroke="none" fill-rule="evenodd" fill="#000000" fill-opacity="1" transform="matrix(1,0,0,1,5.05,13.314)" id="mark17 l" />
  <path d="M 0 317.076703695065 L 10 317.076703695065 L 10 318.576703695065 L 0 318.576703695065 Z " stroke="none" fill-rule="evenodd" fill="#000000" fill-opacity="1" transform="matrix(1,0,0,1,5.05,13.314)" id="mark18 l" />
  <path d="M 0 308.4867927843876 L 10 308.4867927843876 L 10 309.9867927843876 L 0 309.9867927843876 Z " stroke="none" fill-rule="evenodd" fill="#000000" fill-opacity="1" transform="matrix(1,0,0,1,5.05,13.314)" id="mark19 l" />
  <path d="M 0 299.8968818737102 L 25 299.8968818737102 L 25 301.3968818737102 L 0 301.3968818737102 Z " stroke="none" fill-rule="evenodd" fill="#000000" fill-opacity="1" transform="matrix(1,0,0,1,5.05,13.314)" id="mark20 l" />
  <path d="M 12.319999999999999 298.8468818737102 C 12.317333333333334 298.7482152070435, 12.315333333333331 298.6595485403768, 12.313999999999998 298.58088187371015 C 12.312666666666665 298.5022152070435, 12.311333333333334 298.4282152070435, 12.309999999999999 298.3588818737102 C 12.308666666666667 298.28954854037687, 12.308 298.21754854037687, 12.308 298.14288187371017 C 12.308 298.0682152070435, 12.308 297.98354854037683, 12.308 297.88888187371015 C 12.308 297.79421520704346, 12.309333333333335 297.68288187371013, 12.312 297.5548818737102 C 12.32 297.2615485403768, 12.37 296.99954854037685, 12.462 296.7688818737102 C 12.554 296.53821520704355, 12.687999999999999 296.33221520704353, 12.863999999999999 296.15088187371015 C 13.04 295.9695485403768, 13.257333333333333 295.8082152070435, 13.515999999999998 295.66688187371017 L 14.047999999999998 295.37888187371016 C 14.234666666666666 295.2775485403768, 14.354 295.15554854037686, 14.405999999999999 295.01288187371017 C 14.457999999999998 294.8702152070435, 14.488 294.73621520704353, 14.495999999999999 294.6108818737102 C 14.506666666666664 294.4642152070435, 14.512666666666664 294.30754854037684, 14.514 294.14088187371016 C 14.51533333333333 293.97421520704347, 14.511999999999997 293.81754854037683, 14.504 293.6708818737102 C 14.498666666666665 293.56688187371014, 14.468666666666666 293.48088187371013, 14.413999999999998 293.41288187371015 C 14.359333333333332 293.34488187371016, 14.279999999999998 293.29621520704353, 14.175999999999998 293.2668818737102 L 14.175999999999998 292.37888187371016 C 14.663999999999998 292.41088187371014, 15.014 292.5422152070435, 15.225999999999999 292.77288187371016 C 15.437999999999999 293.0035485403768, 15.554666666666666 293.36421520704346, 15.575999999999999 293.85488187371016 C 15.578666666666663 293.9188818737101, 15.580666666666666 293.98421520704346, 15.581999999999999 294.0508818737102 C 15.583333333333332 294.1175485403768, 15.584 294.1822152070435, 15.584 294.2448818737102 C 15.584 294.30754854037684, 15.583333333333332 294.36954854037685, 15.581999999999999 294.4308818737102 C 15.580666666666666 294.4922152070435, 15.578666666666663 294.5522152070435, 15.575999999999999 294.6108818737102 C 15.565333333333331 294.8962152070435, 15.512 295.14288187371017, 15.415999999999999 295.3508818737102 C 15.32 295.55888187371016, 15.19 295.73888187371017, 15.026 295.89088187371016 C 14.862 296.04288187371014, 14.672 296.17888187371017, 14.456 296.2988818737102 L 13.851999999999999 296.62688187371015 C 13.737333333333332 296.6882152070435, 13.647333333333332 296.77221520704353, 13.581999999999999 296.87888187371016 C 13.516666666666666 296.98554854037684, 13.469999999999999 297.0988818737102, 13.441999999999998 297.2188818737102 C 13.413999999999998 297.3388818737102, 13.399999999999999 297.45088187371016, 13.399999999999999 297.5548818737102 L 13.399999999999999 298.8468818737102 Z M 12.328 294.80688187371015 C 12.322666666666667 294.68954854037685, 12.318666666666665 294.5748818737102, 12.315999999999999 294.46288187371016 C 12.313333333333333 294.35088187371014, 12.311333333333334 294.24488187371014, 12.309999999999999 294.1448818737102 C 12.308666666666667 294.0448818737102, 12.309333333333335 293.9482152070435, 12.312 293.85488187371016 C 12.330666666666666 293.3668818737102, 12.447333333333333 293.0075485403769, 12.661999999999999 292.7768818737102 C 12.876666666666665 292.5462152070435, 13.213333333333331 292.41354854037684, 13.671999999999999 292.37888187371016 L 13.671999999999999 293.27088187371015 C 13.576 293.3002152070435, 13.505333333333333 293.3468818737102, 13.459999999999999 293.4108818737102 C 13.414666666666665 293.4748818737102, 13.390666666666664 293.5522152070435, 13.387999999999998 293.64288187371017 C 13.382666666666665 293.8508818737102, 13.379333333333333 294.0442152070435, 13.378 294.22288187371015 C 13.376666666666667 294.40154854037684, 13.381333333333334 294.5962152070435, 13.392 294.80688187371015 Z M 13.904 298.8468818737102 L 13.904 297.91488187371016 L 15.5 297.91488187371016 L 15.5 298.8468818737102 Z M 16.196 297.4348818737102 C 16.188000000000002 297.0055485403769, 16.182666666666666 296.5888818737102, 16.18 296.1848818737102 C 16.177333333333333 295.7808818737102, 16.177999999999997 295.3855485403769, 16.182 294.99888187371016 C 16.186 294.6122152070435, 16.190666666666665 294.23088187371013, 16.196 293.85488187371016 C 16.209333333333333 293.4148818737102, 16.334000000000003 293.06954854037684, 16.57 292.81888187371015 C 16.805999999999997 292.5682152070435, 17.142666666666663 292.4228818737102, 17.58 292.3828818737102 L 17.58 293.27088187371015 C 17.382666666666665 293.32688187371014, 17.281333333333333 293.4562152070435, 17.276 293.6588818737102 C 17.262666666666668 294.0295485403768, 17.253333333333334 294.37754854037684, 17.248 294.70288187371017 C 17.242666666666665 295.0282152070435, 17.24 295.34488187371016, 17.24 295.65288187371016 C 17.24 295.96088187371015, 17.242666666666665 296.2755485403768, 17.248 296.5968818737102 C 17.253333333333334 296.91821520704354, 17.262666666666668 297.26154854037685, 17.276 297.62688187371015 C 17.281333333333333 297.8348818737102, 17.382666666666665 297.9668818737102, 17.58 298.02288187371016 L 17.58 298.9108818737102 C 17.142666666666663 298.87088187371023, 16.805999999999997 298.72488187371016, 16.57 298.47288187371015 C 16.334000000000003 298.22088187371014, 16.209333333333333 297.8748818737102, 16.196 297.4348818737102 Z M 18.084 298.9108818737102 L 18.084 298.0188818737102 C 18.268 297.96554854037686, 18.366666666666667 297.84154854037683, 18.38 297.6468818737102 C 18.398666666666667 297.1802152070435, 18.410666666666668 296.7315485403768, 18.416 296.3008818737102 C 18.421333333333333 295.87021520704354, 18.421333333333333 295.43954854037685, 18.416 295.00888187371015 C 18.410666666666668 294.5782152070435, 18.398666666666667 294.1255485403768, 18.38 293.65088187371015 C 18.374666666666666 293.4562152070435, 18.276 293.32954854037683, 18.084 293.27088187371015 L 18.084 292.3828818737102 C 18.513333333333335 292.4228818737102, 18.846666666666668 292.5682152070435, 19.084 292.81888187371015 C 19.321333333333335 293.06954854037684, 19.445333333333334 293.4148818737102, 19.456 293.85488187371016 C 19.46666666666667 294.1695485403768, 19.474666666666668 294.47954854037687, 19.48 294.78488187371016 C 19.485333333333333 295.0902152070435, 19.488 295.39088187371016, 19.488 295.68688187371015 C 19.488 295.98288187371014, 19.485333333333333 296.2762152070435, 19.48 296.5668818737102 C 19.474666666666668 296.85754854037685, 19.46666666666667 297.1468818737102, 19.456 297.4348818737102 C 19.439999999999998 297.8855485403769, 19.311999999999998 298.2342152070435, 19.072 298.4808818737102 C 18.832 298.72754854037686, 18.502666666666666 298.87088187371023, 18.084 298.9108818737102 Z M 21.944 298.8468818737102 L 21.944 292.4468818737102 L 23.003999999999998 292.4468818737102 L 23.003999999999998 298.8468818737102 Z " stroke="none" fill-rule="nonzero" fill="#000000" fill-opacity="1" transform="matrix(1,0,0,1,5.05,13.314)" id="text20 l" />
  <path d="M 0 291.30697096303277 L 10 291.30697096303277 L 10 292.80697096303277 L 0 292.80697096303277 Z " stroke="none" fill-rule="evenodd" fill="#000000" fill-opacity="1" transform="matrix(1,0,0,1,5.05,13.314)" id="mark21 l" />
  <path d="M 0 282.71706005235535 L 10 282.71706005235535 L 10 284.21706005235535 L 0 284.21706005235535 Z " stroke="none" fill-rule="evenodd" fill="#000000" fill-opacity="1" transform="matrix(1,0,0,1,5.05,13.314)" id="mark22 l" />
  <path d="M 0 274.12714914167793 L 10 274.12714914167793 L 10 275.62714914167793 L 0 275.62714914167793 Z " stroke="none" fill-rule="evenodd" fill="#000000" fill-opacity="1" transform="matrix(1,0,0,1,5.05,13.314)" id="mark23 l" />
  <path d="M 0 265.53723823100046 L 10 265.53723823100046 L 10 267.03723823100046 L 0 267.03723823100046 Z " stroke="none" fill-rule="evenodd" fill="#000000" fill-opacity="1" transform="matrix(1,0,0,1,5.05,13.314)" id="mark24 l" />
  <path d="M 0 256.947327320323 L 25 256.947327320323 L 25 258.447327320323 L 0 258.447327320323 Z " stroke="none" fill-rule="evenodd" fill="#000000" fill-opacity="1" transform="matrix(1,0,0,1,5.05,13.314)" id="mark25 l" />
  <path d="M 12.328 255.897327320323 C 12.325333333333333 255.79866065365633, 12.323333333333332 255.70999398698967, 12.322 255.631327320323 C 12.320666666666666 255.55266065365635, 12.319333333333333 255.47866065365633, 12.318 255.409327320323 C 12.316666666666666 255.33999398698967, 12.315999999999999 255.26799398698967, 12.316 255.193327320323 C 12.315999999999999 255.11866065365632, 12.315999999999999 255.03399398698969, 12.316 254.939327320323 C 12.315999999999999 254.84466065365632, 12.317333333333334 254.73332732032299, 12.32 254.605327320323 C 12.328 254.31199398698965, 12.378 254.04999398698965, 12.47 253.819327320323 C 12.562000000000001 253.58866065365635, 12.696 253.38266065365633, 12.872 253.201327320323 C 13.048 253.01999398698968, 13.265333333333334 252.85866065365633, 13.524000000000001 252.717327320323 L 14.056000000000001 252.429327320323 C 14.242666666666668 252.32799398698967, 14.362000000000002 252.20599398698965, 14.414 252.063327320323 C 14.466000000000001 251.92066065365634, 14.495999999999999 251.78666065365633, 14.504 251.661327320323 C 14.514666666666667 251.51466065365634, 14.520666666666667 251.3579939869897, 14.522 251.191327320323 C 14.523333333333333 251.02466065365633, 14.520000000000001 250.8679939869897, 14.512 250.721327320323 C 14.506666666666666 250.617327320323, 14.476666666666667 250.53132732032302, 14.422 250.463327320323 C 14.367333333333335 250.395327320323, 14.288 250.34666065365633, 14.184000000000001 250.317327320323 L 14.184000000000001 249.429327320323 C 14.672 249.461327320323, 15.022000000000002 249.59266065365634, 15.234 249.823327320323 C 15.446000000000002 250.05399398698967, 15.562666666666667 250.41466065365634, 15.584 250.905327320323 C 15.586666666666668 250.969327320323, 15.588666666666668 251.03466065365632, 15.59 251.101327320323 C 15.591333333333335 251.16799398698964, 15.592000000000002 251.23266065365632, 15.592 251.295327320323 C 15.592000000000002 251.35799398698967, 15.591333333333335 251.41999398698965, 15.59 251.481327320323 C 15.588666666666668 251.5426606536563, 15.586666666666668 251.6026606536563, 15.584 251.661327320323 C 15.573333333333332 251.94666065365635, 15.52 252.19332732032302, 15.424 252.401327320323 C 15.328 252.60932732032302, 15.197999999999999 252.78932732032303, 15.033999999999999 252.941327320323 C 14.87 253.093327320323, 14.68 253.22932732032302, 14.464 253.349327320323 L 13.86 253.677327320323 C 13.745333333333335 253.73866065365632, 13.655333333333335 253.82266065365633, 13.59 253.929327320323 C 13.524666666666668 254.0359939869897, 13.478000000000002 254.149327320323, 13.45 254.269327320323 C 13.422 254.389327320323, 13.408 254.501327320323, 13.408 254.605327320323 L 13.408 255.897327320323 Z M 12.336 251.857327320323 C 12.330666666666666 251.73999398698965, 12.326666666666664 251.62532732032298, 12.324 251.51332732032301 C 12.321333333333332 251.401327320323, 12.319333333333333 251.295327320323, 12.318 251.195327320323 C 12.316666666666666 251.095327320323, 12.317333333333334 250.99866065365634, 12.32 250.905327320323 C 12.338666666666668 250.417327320323, 12.455333333333336 250.0579939869897, 12.67 249.827327320323 C 12.884666666666668 249.59666065365633, 13.221333333333334 249.4639939869897, 13.68 249.429327320323 L 13.68 250.321327320323 C 13.584 250.35066065365635, 13.513333333333332 250.39732732032297, 13.468 250.461327320323 C 13.422666666666668 250.52532732032302, 13.398666666666667 250.60266065365636, 13.396 250.693327320323 C 13.390666666666666 250.901327320323, 13.387333333333332 251.09466065365632, 13.386 251.273327320323 C 13.384666666666666 251.4519939869897, 13.389333333333333 251.64666065365634, 13.4 251.857327320323 Z M 13.911999999999999 255.897327320323 L 13.911999999999999 254.965327320323 L 15.508 254.965327320323 L 15.508 255.897327320323 Z M 16.18 254.481327320323 C 16.174666666666667 254.3079939869897, 16.173333333333332 254.16866065365633, 16.176 254.063327320323 C 16.178666666666665 253.95799398698966, 16.181333333333335 253.8559939869897, 16.183999999999997 253.75732732032301 L 17.264 253.75732732032301 C 17.256 253.83466065365633, 17.25 253.93066065365633, 17.246 254.045327320323 C 17.241999999999997 254.15999398698966, 17.240666666666666 254.27066065365634, 17.241999999999997 254.377327320323 C 17.243333333333332 254.48399398698965, 17.246666666666666 254.56399398698966, 17.252 254.617327320323 C 17.262666666666668 254.737327320323, 17.297333333333334 254.83532732032302, 17.355999999999998 254.911327320323 C 17.414666666666665 254.987327320323, 17.497333333333334 255.04132732032298, 17.604 255.073327320323 L 17.604 255.965327320323 C 17.110666666666663 255.92799398698966, 16.75333333333333 255.793327320323, 16.532 255.561327320323 C 16.310666666666666 255.329327320323, 16.19333333333333 254.96932732032298, 16.18 254.481327320323 Z M 16.279999999999998 253.145327320323 L 16.279999999999998 249.497327320323 L 17.348 249.497327320323 L 17.348 253.145327320323 Z M 17.852 252.721327320323 L 17.852 251.965327320323 C 17.929333333333332 251.925327320323, 18.014666666666667 251.893327320323, 18.107999999999997 251.869327320323 C 18.20133333333333 251.845327320323, 18.301333333333332 251.833327320323, 18.407999999999998 251.833327320323 C 18.773333333333333 251.833327320323, 19.047333333333334 251.94866065365633, 19.23 252.179327320323 C 19.412666666666667 252.4099939869897, 19.514666666666663 252.72399398698968, 19.535999999999998 253.121327320323 C 19.546666666666667 253.281327320323, 19.55333333333333 253.43999398698963, 19.555999999999997 253.597327320323 C 19.558666666666664 253.75466065365634, 19.557333333333332 253.90799398698965, 19.552 254.057327320323 C 19.546666666666667 254.20666065365634, 19.538666666666668 254.34666065365633, 19.528 254.477327320323 C 19.482666666666667 254.9759939869897, 19.353333333333335 255.341327320323, 19.14 255.573327320323 C 18.926666666666666 255.805327320323, 18.581333333333333 255.93599398698967, 18.104 255.965327320323 L 18.104 255.073327320323 C 18.21333333333333 255.04399398698968, 18.296 254.99132732032302, 18.352 254.915327320323 C 18.408 254.83932732032298, 18.44 254.73999398698965, 18.448 254.617327320323 C 18.471999999999998 254.32666065365635, 18.485999999999997 254.065327320323, 18.49 253.833327320323 C 18.494 253.601327320323, 18.485333333333333 253.3799939869897, 18.464 253.169327320323 C 18.447999999999997 253.01466065365634, 18.396666666666665 252.89932732032298, 18.31 252.823327320323 C 18.223333333333333 252.747327320323, 18.090666666666664 252.70932732032298, 17.912 252.709327320323 C 17.901333333333334 252.70932732032298, 17.890666666666668 252.71066065365633, 17.88 252.713327320323 C 17.86933333333333 252.71599398698967, 17.86 252.71866065365634, 17.852 252.721327320323 Z M 17.852 250.429327320323 L 17.852 249.497327320323 L 19.439999999999998 249.497327320323 L 19.439999999999998 250.429327320323 Z M 21.944 255.897327320323 L 21.944 249.497327320323 L 23.003999999999998 249.497327320323 L 23.003999999999998 255.897327320323 Z " stroke="none" fill-rule="nonzero" fill="#000000" fill-opacity="1" transform="matrix(1,0,0,1,5.05,13.314)" id="text25 l" />
  <path d="M 0 248.3574164096456 L 10 248.3574164096456 L 10 249.8574164096456 L 0 249.8574164096456 Z " stroke="none" fill-rule="evenodd" fill="#000000" fill-opacity="1" transform="matrix(1,0,0,1,5.05,13.314)" id="mark26 l" />
  <path d="M 0 239.76750549896815 L 10 239.76750549896815 L 10 241.26750549896815 L 0 241.26750549896815 Z " stroke="none" fill-rule="evenodd" fill="#000000" fill-opacity="1" transform="matrix(1,0,0,1,5.05,13.314)" id="mark27 l" />
  <path d="M 0 231.17759458829073 L 10 231.17759458829073 L 10 232.67759458829073 L 0 232.67759458829073 Z " stroke="none" fill-rule="evenodd" fill="#000000" fill-opacity="1" transform="matrix(1,0,0,1,5.05,13.314)" id="mark28 l" />
  <path d="M 0 222.58768367761328 L 10 222.58768367761328 L 10 224.08768367761328 L 0 224.08768367761328 Z " stroke="none" fill-rule="evenodd" fill="#000000" fill-opacity="1" transform="matrix(1,0,0,1,5.05,13.314)" id="mark29 l" />
  <path d="M 0 213.99777276693584 L 25 213.99777276693584 L 25 215.49777276693584 L 0 215.49777276693584 Z " stroke="none" fill-rule="evenodd" fill="#000000" fill-opacity="1" transform="matrix(1,0,0,1,5.05,13.314)" id="mark30 l" />
  <path d="M 12.223999999999998 211.53177276693586 C 12.221333333333334 211.4304394336025, 12.219333333333333 211.34643943360248, 12.218 211.27977276693585 C 12.216666666666667 211.21310610026916, 12.216666666666667 211.14510610026917, 12.218 211.07577276693587 C 12.219333333333333 211.0064394336025, 12.221333333333334 210.91710610026917, 12.223999999999998 210.80777276693587 L 13.303999999999998 210.80777276693587 L 13.303999999999998 211.67177276693585 C 13.303999999999998 211.90910610026918, 13.417333333333332 212.05977276693585, 13.643999999999998 212.12377276693584 L 13.643999999999998 213.01577276693587 C 13.155999999999999 212.97843943360252, 12.800666666666665 212.84377276693584, 12.578 212.61177276693584 C 12.355333333333334 212.37977276693584, 12.237333333333332 212.01977276693583, 12.223999999999998 211.53177276693586 Z M 12.292 207.47977276693587 L 12.292 206.54777276693585 L 15.536 206.54777276693585 L 15.536 207.47977276693587 Z M 14.143999999999998 212.12777276693586 C 14.367999999999999 212.07177276693585, 14.483999999999998 211.92110610026918, 14.491999999999999 211.67577276693586 C 14.497333333333334 211.4731061002692, 14.500666666666666 211.29043943360253, 14.501999999999999 211.12777276693586 C 14.503333333333332 210.9651061002692, 14.498666666666665 210.80777276693584, 14.488 210.65577276693585 C 14.48 210.49843943360253, 14.431999999999999 210.3651061002692, 14.344 210.25577276693585 C 14.256 210.14643943360255, 14.089333333333332 210.09443943360253, 13.844 210.09977276693584 L 13.096 210.10777276693585 L 13.068 209.21577276693586 L 14.027999999999999 207.83177276693584 L 15.216 207.83177276693584 L 14.248 209.18377276693585 L 14.28 209.18377276693585 C 14.712 209.18377276693582, 15.028666666666666 209.30643943360252, 15.229999999999999 209.55177276693587 C 15.431333333333333 209.79710610026922, 15.544 210.17443943360252, 15.568 210.68377276693585 C 15.57333333333333 210.75577276693582, 15.576666666666664 210.82777276693582, 15.578 210.89977276693585 C 15.57933333333333 210.97177276693583, 15.579999999999998 211.0424394336025, 15.579999999999998 211.11177276693584 C 15.579999999999998 211.18110610026918, 15.57933333333333 211.2504394336025, 15.578 211.31977276693584 C 15.576666666666664 211.38910610026917, 15.57333333333333 211.45977276693583, 15.568 211.53177276693586 C 15.549333333333333 212.02777276693587, 15.428666666666665 212.39243943360253, 15.206 212.62577276693585 C 14.983333333333334 212.85910610026917, 14.630666666666666 212.9891061002692, 14.148 213.01577276693587 Z M 16.196 211.53577276693585 C 16.188000000000002 211.1064394336025, 16.182666666666666 210.68977276693585, 16.18 210.28577276693585 C 16.177333333333333 209.88177276693585, 16.177999999999997 209.48643943360253, 16.182 209.09977276693584 C 16.186 208.71310610026921, 16.190666666666665 208.33177276693587, 16.196 207.95577276693587 C 16.209333333333333 207.51577276693587, 16.334000000000003 207.17043943360255, 16.57 206.91977276693586 C 16.805999999999997 206.66910610026918, 17.142666666666663 206.52377276693585, 17.58 206.48377276693586 L 17.58 207.37177276693586 C 17.382666666666665 207.42777276693585, 17.281333333333333 207.5571061002692, 17.276 207.75977276693587 C 17.262666666666668 208.13043943360253, 17.253333333333334 208.4784394336025, 17.248 208.80377276693585 C 17.242666666666665 209.12910610026915, 17.24 209.44577276693585, 17.24 209.75377276693587 C 17.24 210.06177276693586, 17.242666666666665 210.3764394336025, 17.248 210.69777276693586 C 17.253333333333334 211.0191061002692, 17.262666666666668 211.3624394336025, 17.276 211.72777276693586 C 17.281333333333333 211.93577276693588, 17.382666666666665 212.06777276693586, 17.58 212.12377276693584 L 17.58 213.01177276693585 C 17.142666666666663 212.97177276693583, 16.805999999999997 212.82577276693584, 16.57 212.57377276693586 C 16.334000000000003 212.32177276693585, 16.209333333333333 211.97577276693585, 16.196 211.53577276693585 Z M 18.084 213.01177276693585 L 18.084 212.11977276693585 C 18.268 212.0664394336025, 18.366666666666667 211.94243943360254, 18.38 211.74777276693587 C 18.398666666666667 211.2811061002692, 18.410666666666668 210.83243943360253, 18.416 210.40177276693586 C 18.421333333333333 209.9711061002692, 18.421333333333333 209.5404394336025, 18.416 209.10977276693586 C 18.410666666666668 208.67910610026917, 18.398666666666667 208.22643943360254, 18.38 207.75177276693586 C 18.374666666666666 207.5571061002692, 18.276 207.43043943360254, 18.084 207.37177276693586 L 18.084 206.48377276693586 C 18.513333333333335 206.52377276693585, 18.846666666666668 206.66910610026918, 19.084 206.91977276693586 C 19.321333333333335 207.17043943360255, 19.445333333333334 207.51577276693587, 19.456 207.95577276693587 C 19.46666666666667 208.27043943360252, 19.474666666666668 208.58043943360252, 19.48 208.88577276693584 C 19.485333333333333 209.19110610026917, 19.488 209.49177276693587, 19.488 209.78777276693586 C 19.488 210.08377276693585, 19.485333333333333 210.37710610026917, 19.48 210.66777276693585 C 19.474666666666668 210.95843943360254, 19.46666666666667 211.24777276693587, 19.456 211.53577276693585 C 19.439999999999998 211.98643943360253, 19.311999999999998 212.33510610026917, 19.072 212.58177276693584 C 18.832 212.8284394336025, 18.502666666666666 212.97177276693583, 18.084 213.01177276693585 Z M 21.944 212.94777276693586 L 21.944 206.54777276693585 L 23.003999999999998 206.54777276693585 L 23.003999999999998 212.94777276693586 Z " stroke="none" fill-rule="nonzero" fill="#000000" fill-opacity="1" transform="matrix(1,0,0,1,5.05,13.314)" id="text30 l" />
  <path d="M 0 205.40786185625842 L 10 205.40786185625842 L 10 206.90786185625842 L 0 206.90786185625842 Z " stroke="none" fill-rule="evenodd" fill="#000000" fill-opacity="1" transform="matrix(1,0,0,1,5.05,13.314)" id="mark31 l" />
  <path d="M 0 196.817950945581 L 10 196.817950945581 L 10 198.317950945581 L 0 198.317950945581 Z " stroke="none" fill-rule="evenodd" fill="#000000" fill-opacity="1" transform="matrix(1,0,0,1,5.05,13.314)" id="mark32 l" />
  <path d="M 0 188.22804003490353 L 10 188.22804003490353 L 10 189.72804003490353 L 0 189.72804003490353 Z " stroke="none" fill-rule="evenodd" fill="#000000" fill-opacity="1" transform="matrix(1,0,0,1,5.05,13.314)" id="mark33 l" />
  <path d="M 0 179.6381291242261 L 10 179.6381291242261 L 10 181.1381291242261 L 0 181.1381291242261 Z " stroke="none" fill-rule="evenodd" fill="#000000" fill-opacity="1" transform="matrix(1,0,0,1,5.05,13.314)" id="mark34 l" />
  <path d="M 0 171.0482182135487 L 25 171.0482182135487 L 25 172.5482182135487 L 0 172.5482182135487 Z " stroke="none" fill-rule="evenodd" fill="#000000" fill-opacity="1" transform="matrix(1,0,0,1,5.05,13.314)" id="mark35 l" />
  <path d="M 12.232 168.5502182135487 C 12.229333333333333 168.44888488021536, 12.227333333333334 168.36488488021536, 12.226 168.2982182135487 C 12.224666666666668 168.23155154688203, 12.224666666666668 168.16355154688202, 12.226 168.0942182135487 C 12.227333333333334 168.02488488021535, 12.229333333333333 167.93555154688204, 12.232 167.8262182135487 L 13.312 167.8262182135487 L 13.312 168.6902182135487 C 13.312 168.92755154688203, 13.425333333333333 169.0782182135487, 13.652 169.1422182135487 L 13.652 170.0342182135487 C 13.164 169.99688488021536, 12.808666666666667 169.8622182135487, 12.586 169.6302182135487 C 12.363333333333333 169.3982182135487, 12.245333333333335 169.0382182135487, 12.232 168.5502182135487 Z M 12.3 164.4982182135487 L 12.3 163.5662182135487 L 15.544 163.5662182135487 L 15.544 164.4982182135487 Z M 14.152000000000001 169.1462182135487 C 14.376000000000001 169.09021821354872, 14.492 168.93955154688206, 14.5 168.6942182135487 C 14.505333333333333 168.49155154688202, 14.508666666666667 168.30888488021537, 14.51 168.1462182135487 C 14.511333333333333 167.98355154688204, 14.506666666666668 167.8262182135487, 14.496 167.6742182135487 C 14.488 167.51688488021537, 14.440000000000001 167.38355154688205, 14.352 167.2742182135487 C 14.264 167.16488488021537, 14.097333333333335 167.11288488021538, 13.852 167.1182182135487 L 13.104 167.1262182135487 L 13.076 166.2342182135487 L 14.036 164.85021821354871 L 15.224 164.85021821354871 L 14.256 166.2022182135487 L 14.288 166.2022182135487 C 14.719999999999999 166.2022182135487, 15.036666666666665 166.32488488021536, 15.238 166.5702182135487 C 15.439333333333334 166.81555154688203, 15.552 167.1928848802154, 15.576 167.7022182135487 C 15.581333333333333 167.7742182135487, 15.584666666666667 167.8462182135487, 15.586 167.9182182135487 C 15.587333333333333 167.9902182135487, 15.588000000000001 168.06088488021535, 15.588000000000001 168.1302182135487 C 15.588000000000001 168.19955154688202, 15.587333333333333 168.26888488021538, 15.586 168.3382182135487 C 15.584666666666667 168.40755154688205, 15.581333333333333 168.4782182135487, 15.576 168.5502182135487 C 15.557333333333334 169.04621821354868, 15.436666666666667 169.41088488021535, 15.214 169.6442182135487 C 14.991333333333333 169.87755154688205, 14.638666666666666 170.00755154688204, 14.156 170.0342182135487 Z M 16.18 168.5502182135487 C 16.174666666666667 168.37688488021536, 16.173333333333332 168.23755154688203, 16.176 168.1322182135487 C 16.178666666666665 168.02688488021536, 16.181333333333335 167.92488488021536, 16.183999999999997 167.8262182135487 L 17.264 167.8262182135487 C 17.256 167.90355154688206, 17.25 167.99955154688203, 17.246 168.1142182135487 C 17.241999999999997 168.22888488021536, 17.240666666666666 168.33955154688203, 17.241999999999997 168.4462182135487 C 17.243333333333332 168.55288488021534, 17.246666666666666 168.63288488021536, 17.252 168.6862182135487 C 17.262666666666668 168.8062182135487, 17.297333333333334 168.90421821354872, 17.355999999999998 168.9802182135487 C 17.414666666666665 169.0562182135487, 17.497333333333334 169.11021821354868, 17.604 169.1422182135487 L 17.604 170.0342182135487 C 17.110666666666663 169.99688488021536, 16.75333333333333 169.8622182135487, 16.532 169.6302182135487 C 16.310666666666666 169.3982182135487, 16.19333333333333 169.0382182135487, 16.18 168.5502182135487 Z M 16.279999999999998 167.2142182135487 L 16.279999999999998 163.5662182135487 L 17.348 163.5662182135487 L 17.348 167.2142182135487 Z M 17.852 166.7902182135487 L 17.852 166.0342182135487 C 17.929333333333332 165.99421821354872, 18.014666666666667 165.9622182135487, 18.107999999999997 165.9382182135487 C 18.20133333333333 165.9142182135487, 18.301333333333332 165.9022182135487, 18.407999999999998 165.9022182135487 C 18.773333333333333 165.9022182135487, 19.047333333333334 166.01755154688203, 19.23 166.2482182135487 C 19.412666666666667 166.47888488021536, 19.514666666666663 166.79288488021535, 19.535999999999998 167.1902182135487 C 19.546666666666667 167.3502182135487, 19.55333333333333 167.50888488021536, 19.555999999999997 167.6662182135487 C 19.558666666666664 167.82355154688202, 19.557333333333332 167.97688488021538, 19.552 168.1262182135487 C 19.546666666666667 168.275551546882, 19.538666666666668 168.41555154688203, 19.528 168.5462182135487 C 19.482666666666667 169.04488488021536, 19.353333333333335 169.4102182135487, 19.14 169.6422182135487 C 18.926666666666666 169.8742182135487, 18.581333333333333 170.00488488021537, 18.104 170.0342182135487 L 18.104 169.1422182135487 C 18.21333333333333 169.11288488021538, 18.296 169.0602182135487, 18.352 168.9842182135487 C 18.408 168.9082182135487, 18.44 168.80888488021537, 18.448 168.6862182135487 C 18.471999999999998 168.39555154688202, 18.485999999999997 168.1342182135487, 18.49 167.9022182135487 C 18.494 167.6702182135487, 18.485333333333333 167.44888488021536, 18.464 167.2382182135487 C 18.447999999999997 167.08355154688203, 18.396666666666665 166.96821821354868, 18.31 166.8922182135487 C 18.223333333333333 166.8162182135487, 18.090666666666664 166.7782182135487, 17.912 166.7782182135487 C 17.901333333333334 166.7782182135487, 17.890666666666668 166.77955154688203, 17.88 166.7822182135487 C 17.86933333333333 166.78488488021537, 17.86 166.78755154688204, 17.852 166.7902182135487 Z M 17.852 164.4982182135487 L 17.852 163.5662182135487 L 19.439999999999998 163.5662182135487 L 19.439999999999998 164.4982182135487 Z M 21.944 169.9662182135487 L 21.944 163.5662182135487 L 23.003999999999998 163.5662182135487 L 23.003999999999998 169.9662182135487 Z " stroke="none" fill-rule="nonzero" fill="#000000" fill-opacity="1" transform="matrix(1,0,0,1,5.05,13.314)" id="text35 l" />
  <path d="M 0 162.45830730287122 L 10 162.45830730287122 L 10 163.95830730287122 L 0 163.95830730287122 Z " stroke="none" fill-rule="evenodd" fill="#000000" fill-opacity="1" transform="matrix(1,0,0,1,5.05,13.314)" id="mark36 l" />
  <path d="M 0 153.8683963921938 L 10 153.8683963921938 L 10 155.3683963921938 L 0 155.3683963921938 Z " stroke="none" fill-rule="evenodd" fill="#000000" fill-opacity="1" transform="matrix(1,0,0,1,5.05,13.314)" id="mark37 l" />
  <path d="M 0 145.27848548151638 L 10 145.27848548151638 L 10 146.77848548151638 L 0 146.77848548151638 Z " stroke="none" fill-rule="evenodd" fill="#000000" fill-opacity="1" transform="matrix(1,0,0,1,5.05,13.314)" id="mark38 l" />
  <path d="M 0 136.68857457083897 L 10 136.68857457083897 L 10 138.18857457083897 L 0 138.18857457083897 Z " stroke="none" fill-rule="evenodd" fill="#000000" fill-opacity="1" transform="matrix(1,0,0,1,5.05,13.314)" id="mark39 l" />
  <path d="M 0 128.0986636601615 L 25 128.0986636601615 L 25 129.5986636601615 L 0 129.5986636601615 Z " stroke="none" fill-rule="evenodd" fill="#000000" fill-opacity="1" transform="matrix(1,0,0,1,5.05,13.314)" id="mark40 l" />
  <path d="M 11.739999999999998 125.3646636601615 L 11.739999999999998 124.48866366016149 L 12.455999999999998 122.6086636601615 L 13.495999999999999 122.6086636601615 L 12.771999999999998 124.44066366016149 L 13.171999999999997 124.44066366016149 L 13.171999999999997 125.3646636601615 Z M 13.675999999999998 127.0486636601615 L 13.675999999999998 120.64866366016149 L 14.683999999999997 120.64866366016149 L 14.683999999999997 127.0486636601615 Z M 15.187999999999999 125.3646636601615 L 15.187999999999999 124.44066366016149 L 15.655999999999999 124.44066366016149 L 15.655999999999999 125.3646636601615 Z M 16.195999999999998 125.63666366016149 C 16.188 125.20733032682816, 16.182666666666666 124.7906636601615, 16.18 124.38666366016149 C 16.177333333333333 123.98266366016148, 16.177999999999997 123.58733032682815, 16.182 123.2006636601615 C 16.186 122.81399699349484, 16.190666666666665 122.4326636601615, 16.195999999999998 122.05666366016149 C 16.20933333333333 121.61666366016149, 16.333999999999996 121.27133032682815, 16.569999999999997 121.02066366016149 C 16.805999999999997 120.76999699349483, 17.142666666666663 120.6246636601615, 17.58 120.5846636601615 L 17.58 121.4726636601615 C 17.382666666666665 121.5286636601615, 17.281333333333333 121.65799699349483, 17.275999999999996 121.86066366016149 C 17.262666666666664 122.23133032682816, 17.25333333333333 122.57933032682814, 17.247999999999998 122.90466366016149 C 17.242666666666665 123.22999699349481, 17.24 123.54666366016149, 17.24 123.85466366016149 C 17.24 124.1626636601615, 17.242666666666665 124.47733032682817, 17.247999999999998 124.7986636601615 C 17.25333333333333 125.11999699349482, 17.262666666666664 125.46333032682816, 17.275999999999996 125.8286636601615 C 17.281333333333333 126.0366636601615, 17.382666666666665 126.16866366016149, 17.58 126.2246636601615 L 17.58 127.11266366016149 C 17.142666666666663 127.0726636601615, 16.805999999999997 126.9266636601615, 16.569999999999997 126.6746636601615 C 16.333999999999996 126.4226636601615, 16.20933333333333 126.0766636601615, 16.195999999999998 125.63666366016149 Z M 18.084 127.11266366016149 L 18.084 126.22066366016149 C 18.268 126.16733032682816, 18.366666666666667 126.04333032682817, 18.38 125.84866366016149 C 18.398666666666664 125.38199699349482, 18.410666666666664 124.93333032682816, 18.415999999999997 124.50266366016149 C 18.42133333333333 124.07199699349482, 18.42133333333333 123.64133032682815, 18.415999999999997 123.2106636601615 C 18.410666666666664 122.77999699349482, 18.398666666666664 122.32733032682816, 18.38 121.8526636601615 C 18.374666666666666 121.65799699349483, 18.276 121.53133032682817, 18.084 121.4726636601615 L 18.084 120.5846636601615 C 18.513333333333332 120.6246636601615, 18.846666666666664 120.76999699349483, 19.083999999999996 121.02066366016149 C 19.32133333333333 121.27133032682815, 19.44533333333333 121.61666366016149, 19.456 122.05666366016149 C 19.466666666666665 122.37133032682816, 19.474666666666664 122.68133032682816, 19.479999999999997 122.9866636601615 C 19.48533333333333 123.29199699349483, 19.488 123.59266366016149, 19.488 123.8886636601615 C 19.488 124.1846636601615, 19.48533333333333 124.47799699349483, 19.479999999999997 124.7686636601615 C 19.474666666666664 125.05933032682816, 19.466666666666665 125.34866366016149, 19.456 125.63666366016149 C 19.439999999999998 126.08733032682815, 19.311999999999998 126.43599699349483, 19.072 126.6826636601615 C 18.831999999999997 126.92933032682816, 18.502666666666663 127.0726636601615, 18.084 127.11266366016149 Z M 21.944 127.0486636601615 L 21.944 120.64866366016149 L 23.003999999999998 120.64866366016149 L 23.003999999999998 127.0486636601615 Z " stroke="none" fill-rule="nonzero" fill="#000000" fill-opacity="1" transform="matrix(1,0,0,1,5.05,13.314)" id="text40 l" />
  <path d="M 0 119.50875274948407 L 10 119.50875274948407 L 10 121.00875274948407 L 0 121.00875274948407 Z " stroke="none" fill-rule="evenodd" fill="#000000" fill-opacity="1" transform="matrix(1,0,0,1,5.05,13.314)" id="mark41 l" />
  <path d="M 0 110.91884183880666 L 10 110.91884183880666 L 10 112.41884183880666 L 0 112.41884183880666 Z " stroke="none" fill-rule="evenodd" fill="#000000" fill-opacity="1" transform="matrix(1,0,0,1,5.05,13.314)" id="mark42 l" />
  <path d="M 0 102.32893092812918 L 10 102.32893092812918 L 10 103.82893092812918 L 0 103.82893092812918 Z " stroke="none" fill-rule="evenodd" fill="#000000" fill-opacity="1" transform="matrix(1,0,0,1,5.05,13.314)" id="mark43 l" />
  <path d="M 0 93.73902001745176 L 10 93.73902001745176 L 10 95.23902001745176 L 0 95.23902001745176 Z " stroke="none" fill-rule="evenodd" fill="#000000" fill-opacity="1" transform="matrix(1,0,0,1,5.05,13.314)" id="mark44 l" />
  <path d="M 0 85.14910910677435 L 25 85.14910910677435 L 25 86.64910910677435 L 0 86.64910910677435 Z " stroke="none" fill-rule="evenodd" fill="#000000" fill-opacity="1" transform="matrix(1,0,0,1,5.05,13.314)" id="mark45 l" />
  <path d="M 11.748 82.38310910677436 L 11.748 81.50710910677435 L 12.463999999999999 79.62710910677436 L 13.503999999999998 79.62710910677436 L 12.78 81.45910910677435 L 13.18 81.45910910677435 L 13.18 82.38310910677436 Z M 13.684 84.06710910677435 L 13.684 77.66710910677435 L 14.691999999999998 77.66710910677435 L 14.691999999999998 84.06710910677435 Z M 15.195999999999998 82.38310910677436 L 15.195999999999998 81.45910910677435 L 15.663999999999998 81.45910910677435 L 15.663999999999998 82.38310910677436 Z M 16.18 82.65110910677436 C 16.174666666666667 82.47777577344102, 16.173333333333332 82.33844244010768, 16.176 82.23310910677435 C 16.178666666666665 82.12777577344102, 16.181333333333335 82.02577577344101, 16.183999999999997 81.92710910677435 L 17.264 81.92710910677435 C 17.256 82.00444244010768, 17.25 82.10044244010768, 17.246 82.21510910677435 C 17.241999999999997 82.32977577344101, 17.240666666666666 82.44044244010769, 17.241999999999997 82.54710910677436 C 17.243333333333332 82.65377577344103, 17.246666666666666 82.73377577344102, 17.252 82.78710910677435 C 17.262666666666668 82.90710910677436, 17.297333333333334 83.00510910677436, 17.355999999999998 83.08110910677435 C 17.414666666666665 83.15710910677436, 17.497333333333334 83.21110910677436, 17.604 83.24310910677436 L 17.604 84.13510910677435 C 17.110666666666663 84.09777577344101, 16.75333333333333 83.96310910677435, 16.532 83.73110910677435 C 16.310666666666666 83.49910910677436, 16.19333333333333 83.13910910677436, 16.18 82.65110910677436 Z M 16.279999999999998 81.31510910677436 L 16.279999999999998 77.66710910677435 L 17.348 77.66710910677435 L 17.348 81.31510910677436 Z M 17.852 80.89110910677435 L 17.852 80.13510910677435 C 17.929333333333332 80.09510910677434, 18.014666666666667 80.06310910677435, 18.107999999999997 80.03910910677435 C 18.20133333333333 80.01510910677436, 18.301333333333332 80.00310910677436, 18.407999999999998 80.00310910677436 C 18.773333333333333 80.00310910677436, 19.047333333333334 80.11844244010769, 19.23 80.34910910677435 C 19.412666666666667 80.57977577344101, 19.514666666666663 80.89377577344102, 19.535999999999998 81.29110910677436 C 19.546666666666667 81.45110910677435, 19.55333333333333 81.60977577344102, 19.555999999999997 81.76710910677436 C 19.558666666666664 81.9244424401077, 19.557333333333332 82.07777577344102, 19.552 82.22710910677435 C 19.546666666666667 82.37644244010768, 19.538666666666668 82.51644244010768, 19.528 82.64710910677435 C 19.482666666666667 83.14577577344102, 19.353333333333335 83.51110910677436, 19.14 83.74310910677436 C 18.926666666666666 83.97510910677435, 18.581333333333333 84.10577577344102, 18.104 84.13510910677435 L 18.104 83.24310910677436 C 18.21333333333333 83.21377577344103, 18.296 83.16110910677436, 18.352 83.08510910677435 C 18.408 83.00910910677435, 18.44 82.90977577344101, 18.448 82.78710910677435 C 18.471999999999998 82.49644244010769, 18.485999999999997 82.23510910677436, 18.49 82.00310910677436 C 18.494 81.77110910677435, 18.485333333333333 81.54977577344101, 18.464 81.33910910677436 C 18.447999999999997 81.18444244010769, 18.396666666666665 81.06910910677436, 18.31 80.99310910677436 C 18.223333333333333 80.91710910677435, 18.090666666666664 80.87910910677435, 17.912 80.87910910677435 C 17.901333333333334 80.87910910677435, 17.890666666666668 80.88044244010769, 17.88 80.88310910677436 C 17.86933333333333 80.88577577344101, 17.86 80.88844244010768, 17.852 80.89110910677435 Z M 17.852 78.59910910677435 L 17.852 77.66710910677435 L 19.439999999999998 77.66710910677435 L 19.439999999999998 78.59910910677435 Z M 21.944 84.06710910677435 L 21.944 77.66710910677435 L 23.003999999999998 77.66710910677435 L 23.003999999999998 84.06710910677435 Z " stroke="none" fill-rule="nonzero" fill="#000000" fill-opacity="1" transform="matrix(1,0,0,1,5.05,13.314)" id="text45 l" />
  <path d="M 0 76.55919819609693 L 10 76.55919819609693 L 10 78.05919819609693 L 0 78.05919819609693 Z " stroke="none" fill-rule="evenodd" fill="#000000" fill-opacity="1" transform="matrix(1,0,0,1,5.05,13.314)" id="mark46 l" />
  <path d="M 0 67.96928728541945 L 10 67.96928728541945 L 10 69.46928728541945 L 0 69.46928728541945 Z " stroke="none" fill-rule="evenodd" fill="#000000" fill-opacity="1" transform="matrix(1,0,0,1,5.05,13.314)" id="mark47 l" />
  <path d="M 0 59.37937637474204 L 10 59.37937637474204 L 10 60.87937637474204 L 0 60.87937637474204 Z " stroke="none" fill-rule="evenodd" fill="#000000" fill-opacity="1" transform="matrix(1,0,0,1,5.05,13.314)" id="mark48 l" />
  <path d="M 0 50.78946546406462 L 10 50.78946546406462 L 10 52.28946546406462 L 0 52.28946546406462 Z " stroke="none" fill-rule="evenodd" fill="#000000" fill-opacity="1" transform="matrix(1,0,0,1,5.05,13.314)" id="mark49 l" />
  <path d="M 0 42.199554553387145 L 25 42.199554553387145 L 25 43.699554553387145 L 0 43.699554553387145 Z " stroke="none" fill-rule="evenodd" fill="#000000" fill-opacity="1" transform="matrix(1,0,0,1,5.05,13.314)" id="mark50 l" />
  <path d="M 12.204 39.73355455338715 C 12.198666666666668 39.56022122005381, 12.197333333333333 39.42088788672048, 12.2 39.315554553387145 C 12.202666666666667 39.21022122005382, 12.205333333333336 39.10822122005382, 12.208 39.00955455338715 L 13.288 39.00955455338715 C 13.280000000000001 39.086887886720476, 13.274000000000001 39.18288788672048, 13.27 39.29755455338715 C 13.265999999999998 39.412221220053816, 13.264666666666667 39.52288788672048, 13.266 39.629554553387145 C 13.267333333333333 39.736221220053814, 13.270666666666667 39.81622122005381, 13.276 39.86955455338715 C 13.286666666666665 39.989554553387144, 13.321333333333332 40.08755455338715, 13.379999999999999 40.16355455338715 C 13.438666666666666 40.23955455338715, 13.521333333333335 40.293554553387146, 13.628 40.32555455338715 L 13.628 41.217554553387146 C 13.134666666666668 41.18022122005382, 12.777333333333335 41.04555455338715, 12.556 40.81355455338715 C 12.334666666666667 40.58155455338715, 12.217333333333332 40.22155455338715, 12.204 39.73355455338715 Z M 12.304 38.397554553387145 L 12.304 34.74955455338715 L 13.372 34.74955455338715 L 13.372 38.397554553387145 Z M 13.876 37.973554553387146 L 13.876 37.217554553387146 C 13.953333333333333 37.17755455338715, 14.038666666666668 37.14555455338715, 14.132 37.12155455338715 C 14.225333333333333 37.09755455338715, 14.325333333333333 37.08555455338715, 14.432 37.08555455338715 C 14.797333333333334 37.08555455338715, 15.071333333333332 37.20088788672048, 15.254 37.431554553387144 C 15.436666666666667 37.662221220053816, 15.538666666666668 37.976221220053816, 15.56 38.37355455338715 C 15.570666666666668 38.53355455338715, 15.577333333333334 38.69222122005382, 15.58 38.84955455338715 C 15.582666666666666 39.006887886720484, 15.581333333333333 39.16022122005381, 15.576 39.309554553387144 C 15.570666666666666 39.45888788672048, 15.562666666666665 39.59888788672048, 15.552 39.729554553387146 C 15.506666666666668 40.22822122005382, 15.377333333333333 40.59355455338715, 15.164 40.82555455338715 C 14.950666666666667 41.05755455338715, 14.605333333333332 41.18822122005381, 14.128 41.217554553387146 L 14.128 40.32555455338715 C 14.237333333333334 40.296221220053816, 14.32 40.24355455338715, 14.376 40.16755455338715 C 14.432 40.09155455338715, 14.464 39.992221220053814, 14.472 39.86955455338715 C 14.495999999999999 39.57888788672048, 14.509999999999998 39.31755455338715, 14.514 39.08555455338715 C 14.518 38.85355455338715, 14.509333333333334 38.632221220053815, 14.488 38.421554553387146 C 14.472000000000001 38.26688788672048, 14.420666666666666 38.15155455338715, 14.334 38.07555455338715 C 14.247333333333334 37.99955455338715, 14.114666666666666 37.961554553387145, 13.936 37.961554553387145 C 13.925333333333333 37.961554553387145, 13.914666666666665 37.96288788672048, 13.904 37.96555455338715 C 13.893333333333334 37.96822122005382, 13.884 37.97088788672048, 13.876 37.973554553387146 Z M 13.876 35.681554553387144 L 13.876 34.74955455338715 L 15.464 34.74955455338715 L 15.464 35.681554553387144 Z M 16.196 39.73755455338715 C 16.188000000000002 39.30822122005382, 16.182666666666666 38.89155455338715, 16.18 38.48755455338715 C 16.177333333333333 38.083554553387145, 16.177999999999997 37.68822122005382, 16.182 37.30155455338715 C 16.186 36.91488788672048, 16.190666666666665 36.53355455338715, 16.196 36.15755455338715 C 16.209333333333333 35.717554553387146, 16.334000000000003 35.37222122005382, 16.57 35.12155455338715 C 16.805999999999997 34.87088788672048, 17.142666666666663 34.725554553387155, 17.58 34.68555455338715 L 17.58 35.57355455338715 C 17.382666666666665 35.62955455338715, 17.281333333333333 35.75888788672048, 17.276 35.961554553387145 C 17.262666666666668 36.33222122005382, 17.253333333333334 36.68022122005382, 17.248 37.00555455338715 C 17.242666666666665 37.33088788672048, 17.24 37.647554553387145, 17.24 37.955554553387145 C 17.24 38.263554553387145, 17.242666666666665 38.57822122005381, 17.248 38.89955455338715 C 17.253333333333334 39.22088788672048, 17.262666666666668 39.56422122005382, 17.276 39.92955455338715 C 17.281333333333333 40.13755455338715, 17.382666666666665 40.269554553387145, 17.58 40.32555455338715 L 17.58 41.21355455338715 C 17.142666666666663 41.17355455338715, 16.805999999999997 41.02755455338715, 16.57 40.775554553387146 C 16.334000000000003 40.52355455338714, 16.209333333333333 40.17755455338715, 16.196 39.73755455338715 Z M 18.084 41.21355455338715 L 18.084 40.321554553387145 C 18.268 40.26822122005381, 18.366666666666667 40.14422122005381, 18.38 39.949554553387145 C 18.398666666666667 39.482887886720476, 18.410666666666668 39.034221220053816, 18.416 38.60355455338715 C 18.421333333333333 38.17288788672048, 18.421333333333333 37.742221220053814, 18.416 37.31155455338715 C 18.410666666666668 36.88088788672048, 18.398666666666667 36.428221220053814, 18.38 35.95355455338715 C 18.374666666666666 35.75888788672048, 18.276 35.632221220053815, 18.084 35.57355455338715 L 18.084 34.68555455338715 C 18.513333333333335 34.725554553387155, 18.846666666666668 34.87088788672048, 19.084 35.12155455338715 C 19.321333333333335 35.37222122005382, 19.445333333333334 35.717554553387146, 19.456 36.15755455338715 C 19.46666666666667 36.47222122005382, 19.474666666666668 36.78222122005382, 19.48 37.08755455338715 C 19.485333333333333 37.39288788672048, 19.488 37.69355455338715, 19.488 37.98955455338715 C 19.488 38.28555455338715, 19.485333333333333 38.57888788672048, 19.48 38.86955455338715 C 19.474666666666668 39.16022122005381, 19.46666666666667 39.449554553387145, 19.456 39.73755455338715 C 19.439999999999998 40.18822122005382, 19.311999999999998 40.536887886720486, 19.072 40.78355455338715 C 18.832 41.03022122005381, 18.502666666666666 41.17355455338715, 18.084 41.21355455338715 Z M 21.944 41.14955455338715 L 21.944 34.74955455338715 L 23.003999999999998 34.74955455338715 L 23.003999999999998 41.14955455338715 Z " stroke="none" fill-rule="nonzero" fill="#000000" fill-opacity="1" transform="matrix(1,0,0,1,5.05,13.314)" id="text50 l" />
  <path d="M 0 33.60964364270973 L 10 33.60964364270973 L 10 35.10964364270973 L 0 35.10964364270973 Z " stroke="none" fill-rule="evenodd" fill="#000000" fill-opacity="1" transform="matrix(1,0,0,1,5.05,13.314)" id="mark51 l" />
  <path d="M 0 25.01973273203231 L 10 25.01973273203231 L 10 26.51973273203231 L 0 26.51973273203231 Z " stroke="none" fill-rule="evenodd" fill="#000000" fill-opacity="1" transform="matrix(1,0,0,1,5.05,13.314)" id="mark52 l" />
  <path d="M 0 16.429821821354892 L 10 16.429821821354892 L 10 17.929821821354892 L 0 17.929821821354892 Z " stroke="none" fill-rule="evenodd" fill="#000000" fill-opacity="1" transform="matrix(1,0,0,1,5.05,13.314)" id="mark53 l" />
  <path d="M 0 7.839910910677418 L 10 7.839910910677418 L 10 9.339910910677418 L 0 9.339910910677418 Z " stroke="none" fill-rule="evenodd" fill="#000000" fill-opacity="1" transform="matrix(1,0,0,1,5.05,13.314)" id="mark54 l" />
  <path d="M 0 -0.75 L 25 -0.75 L 25 0.75 L 0 0.75 Z " stroke="none" fill-rule="evenodd" fill="#000000" fill-opacity="1" transform="matrix(1,0,0,1,5.05,13.314)" id="mark55 l" />
  <path d="M 12.212 -3.2479999999999998 C 12.206666666666667 -3.421333333333333, 12.205333333333332 -3.5606666666666666, 12.207999999999998 -3.666 C 12.210666666666667 -3.771333333333333, 12.213333333333335 -3.873333333333333, 12.216 -3.972 L 13.296 -3.972 C 13.288 -3.8946666666666667, 13.282 -3.7986666666666666, 13.277999999999999 -3.6839999999999997 C 13.273999999999997 -3.569333333333333, 13.272666666666666 -3.4586666666666663, 13.274 -3.352 C 13.275333333333332 -3.2453333333333334, 13.278666666666666 -3.1653333333333338, 13.283999999999999 -3.112 C 13.294666666666664 -2.992, 13.32933333333333 -2.8939999999999997, 13.387999999999998 -2.8179999999999996 C 13.446666666666665 -2.7419999999999995, 13.529333333333334 -2.6879999999999997, 13.636 -2.6559999999999997 L 13.636 -1.7639999999999998 C 13.142666666666667 -1.801333333333333, 12.785333333333334 -1.9359999999999997, 12.563999999999998 -2.1679999999999997 C 12.342666666666666 -2.4, 12.225333333333332 -2.76, 12.212 -3.2479999999999998 Z M 12.312 -4.584 L 12.312 -8.232 L 13.379999999999999 -8.232 L 13.379999999999999 -4.584 Z M 13.883999999999999 -5.008 L 13.883999999999999 -5.763999999999999 C 13.961333333333332 -5.804, 14.046666666666667 -5.836, 14.139999999999999 -5.86 C 14.233333333333333 -5.884, 14.333333333333332 -5.896, 14.44 -5.896 C 14.805333333333333 -5.896, 15.07933333333333 -5.780666666666667, 15.261999999999999 -5.55 C 15.444666666666667 -5.319333333333333, 15.546666666666667 -5.005333333333333, 15.568 -4.608 C 15.578666666666667 -4.448, 15.585333333333333 -4.289333333333333, 15.588 -4.132 C 15.590666666666666 -3.974666666666667, 15.589333333333332 -3.8213333333333335, 15.584 -3.6719999999999997 C 15.578666666666665 -3.522666666666667, 15.570666666666664 -3.3826666666666663, 15.559999999999999 -3.252 C 15.514666666666667 -2.753333333333333, 15.385333333333332 -2.388, 15.171999999999999 -2.1559999999999997 C 14.958666666666666 -1.9239999999999997, 14.613333333333332 -1.793333333333333, 14.136 -1.7639999999999998 L 14.136 -2.6559999999999997 C 14.245333333333333 -2.685333333333333, 14.328 -2.738, 14.383999999999999 -2.814 C 14.44 -2.89, 14.472 -2.9893333333333336, 14.479999999999999 -3.112 C 14.503999999999998 -3.4026666666666667, 14.517999999999997 -3.664, 14.521999999999998 -3.896 C 14.526 -4.128, 14.517333333333333 -4.349333333333333, 14.495999999999999 -4.5600000000000005 C 14.48 -4.714666666666667, 14.428666666666665 -4.83, 14.341999999999999 -4.906 C 14.255333333333333 -4.981999999999999, 14.122666666666666 -5.02, 13.943999999999999 -5.02 C 13.933333333333332 -5.02, 13.922666666666665 -5.018666666666666, 13.911999999999999 -5.016 C 13.901333333333334 -5.013333333333334, 13.892 -5.010666666666667, 13.883999999999999 -5.008 Z M 13.883999999999999 -7.3 L 13.883999999999999 -8.232 L 15.472 -8.232 L 15.472 -7.3 Z M 16.18 -3.2479999999999998 C 16.174666666666667 -3.421333333333333, 16.173333333333332 -3.5606666666666666, 16.176 -3.666 C 16.178666666666665 -3.771333333333333, 16.181333333333335 -3.873333333333333, 16.183999999999997 -3.972 L 17.264 -3.972 C 17.256 -3.8946666666666667, 17.25 -3.7986666666666666, 17.246 -3.6839999999999997 C 17.241999999999997 -3.569333333333333, 17.240666666666666 -3.4586666666666663, 17.241999999999997 -3.352 C 17.243333333333332 -3.2453333333333334, 17.246666666666666 -3.1653333333333338, 17.252 -3.112 C 17.262666666666668 -2.992, 17.297333333333334 -2.8939999999999997, 17.355999999999998 -2.8179999999999996 C 17.414666666666665 -2.7419999999999995, 17.497333333333334 -2.6879999999999997, 17.604 -2.6559999999999997 L 17.604 -1.7639999999999998 C 17.110666666666663 -1.801333333333333, 16.75333333333333 -1.9359999999999997, 16.532 -2.1679999999999997 C 16.310666666666666 -2.4, 16.19333333333333 -2.76, 16.18 -3.2479999999999998 Z M 16.279999999999998 -4.584 L 16.279999999999998 -8.232 L 17.348 -8.232 L 17.348 -4.584 Z M 17.852 -5.008 L 17.852 -5.763999999999999 C 17.929333333333332 -5.804, 18.014666666666667 -5.836, 18.107999999999997 -5.86 C 18.20133333333333 -5.884, 18.301333333333332 -5.896, 18.407999999999998 -5.896 C 18.773333333333333 -5.896, 19.047333333333334 -5.780666666666667, 19.23 -5.55 C 19.412666666666667 -5.319333333333333, 19.514666666666663 -5.005333333333333, 19.535999999999998 -4.608 C 19.546666666666667 -4.448, 19.55333333333333 -4.289333333333333, 19.555999999999997 -4.132 C 19.558666666666664 -3.974666666666667, 19.557333333333332 -3.8213333333333335, 19.552 -3.6719999999999997 C 19.546666666666667 -3.522666666666667, 19.538666666666668 -3.3826666666666663, 19.528 -3.252 C 19.482666666666667 -2.753333333333333, 19.353333333333335 -2.388, 19.14 -2.1559999999999997 C 18.926666666666666 -1.9239999999999997, 18.581333333333333 -1.793333333333333, 18.104 -1.7639999999999998 L 18.104 -2.6559999999999997 C 18.21333333333333 -2.685333333333333, 18.296 -2.738, 18.352 -2.814 C 18.408 -2.89, 18.44 -2.9893333333333336, 18.448 -3.112 C 18.471999999999998 -3.4026666666666667, 18.485999999999997 -3.664, 18.49 -3.896 C 18.494 -4.128, 18.485333333333333 -4.349333333333333, 18.464 -4.5600000000000005 C 18.447999999999997 -4.714666666666667, 18.396666666666665 -4.83, 18.31 -4.906 C 18.223333333333333 -4.981999999999999, 18.090666666666664 -5.02, 17.912 -5.02 C 17.901333333333334 -5.02, 17.890666666666668 -5.018666666666666, 17.88 -5.016 C 17.86933333333333 -5.013333333333334, 17.86 -5.010666666666667, 17.852 -5.008 Z M 17.852 -7.3 L 17.852 -8.232 L 19.439999999999998 -8.232 L 19.439999999999998 -7.3 Z M 21.944 -1.8319999999999999 L 21.944 -8.232 L 23.003999999999998 -8.232 L 23.003999999999998 -1.8319999999999999 Z " stroke="none" fill-rule="nonzero" fill="#000000" fill-opacity="1" transform="matrix(1,0,0,1,5.05,13.314)" id="text55 l" />
  <path d="M -5 -13.264 L 30 -13.264 L 30 470.5911891765814 L -5 470.5911891765814 Z " stroke="#FF0000" stroke-opacity="1" stroke-width="0.1" stroke-linecap="butt" stroke-linejoin="miter" fill="none" transform="matrix(1,0,0,1,5.05,13.314)" />
</svg>