<?xml version="1.0" encoding="UTF-8"?>
<svg xmlns:xlink="http://www.w3.org/1999/xlink" viewBox="0 0 35.1 501.10160578883915" version="1.1" style="font-synthesis: none;" width="35.1mm" height="501.1016057888392mm" xmlns="http://www.w3.org/2000/svg">
  <defs />
  <style>	</style>
  <path d="M 0 0 L 35.1 0 L 35.1 501.10160578883915 L 0 501.10160578883915 Z " stroke="none" fill-rule="nonzero" fill="#FFFFFF" fill-opacity="1" transform="matrix(1,0,0,1,0,0)" />
  <path d="M 0 480.25160578883924 L 10 480.25160578883924 L 10 481.75160578883924 L 0 481.75160578883924 Z " stroke="none" fill-rule="evenodd" fill="#000000" fill-opacity="1" transform="matrix(1,0,0,1,5.05,13.314)" id="mark1 l" />
  <path d="M 0 466.10449973622633 L 10 466.10449973622633 L 10 467.60449973622633 L 0 467.60449973622633 Z " stroke="none" fill-rule="evenodd" fill="#000000" fill-opacity="1" transform="matrix(1,0,0,1,5.05,13.314)" id="mark2 l" />
  <path d="M 0 451.9573936836134 L 10 451.9573936836134 L 10 453.4573936836134 L 0 453.4573936836134 Z " stroke="none" fill-rule="evenodd" fill="#000000" fill-opacity="1" transform="matrix(1,0,0,1,5.05,13.314)" id="mark3 l" />
  <path d="M 0 437.8102876310005 L 10 437.8102876310005 L 10 439.3102876310005 L 0 439.3102876310005 Z " stroke="none" fill-rule="evenodd" fill="#000000" fill-opacity="1" transform="matrix(1,0,0,1,5.05,13.314)" id="mark4 l" />
  <path d="M 0 423.6631815783876 L 25 423.6631815783876 L 25 425.1631815783876 L 0 425.1631815783876 Z " stroke="none" fill-rule="evenodd" fill="#000000" fill-opacity="1" transform="matrix(1,0,0,1,5.05,13.314)" id="mark5 l" />
  <path d="M 16.18 421.1651815783876 C 16.174666666666667 420.99184824505426, 16.173333333333332 420.85251491172096, 16.176 420.7471815783876 C 16.178666666666665 420.64184824505423, 16.181333333333335 420.53984824505426, 16.183999999999997 420.4411815783876 L 17.264 420.4411815783876 C 17.256 420.5185149117209, 17.25 420.6145149117209, 17.246 420.7291815783876 C 17.241999999999997 420.84384824505423, 17.240666666666666 420.95451491172093, 17.241999999999997 421.0611815783876 C 17.243333333333332 421.16784824505424, 17.246666666666666 421.24784824505423, 17.252 421.3011815783876 C 17.262666666666668 421.42118157838763, 17.297333333333334 421.5191815783876, 17.355999999999998 421.5951815783876 C 17.414666666666665 421.6711815783876, 17.497333333333334 421.7251815783876, 17.604 421.7571815783876 L 17.604 422.6491815783876 C 17.110666666666663 422.61184824505426, 16.75333333333333 422.47718157838756, 16.532 422.2451815783876 C 16.310666666666666 422.0131815783876, 16.19333333333333 421.6531815783876, 16.18 421.1651815783876 Z M 16.279999999999998 419.8291815783876 L 16.279999999999998 416.1811815783876 L 17.348 416.1811815783876 L 17.348 419.8291815783876 Z M 17.852 419.4051815783876 L 17.852 418.6491815783876 C 17.929333333333332 418.6091815783876, 18.014666666666667 418.5771815783876, 18.107999999999997 418.5531815783876 C 18.20133333333333 418.5291815783876, 18.301333333333332 418.5171815783876, 18.407999999999998 418.5171815783876 C 18.773333333333333 418.5171815783876, 19.047333333333334 418.63251491172093, 19.23 418.8631815783876 C 19.412666666666667 419.09384824505423, 19.514666666666663 419.4078482450543, 19.535999999999998 419.8051815783876 C 19.546666666666667 419.9651815783876, 19.55333333333333 420.1238482450542, 19.555999999999997 420.2811815783876 C 19.558666666666664 420.43851491172086, 19.557333333333332 420.5918482450543, 19.552 420.7411815783876 C 19.546666666666667 420.89051491172097, 19.538666666666668 421.03051491172096, 19.528 421.1611815783876 C 19.482666666666667 421.65984824505426, 19.353333333333335 422.02518157838756, 19.14 422.2571815783876 C 18.926666666666666 422.4891815783876, 18.581333333333333 422.6198482450543, 18.104 422.6491815783876 L 18.104 421.7571815783876 C 18.21333333333333 421.72784824505425, 18.296 421.6751815783876, 18.352 421.5991815783876 C 18.408 421.5231815783876, 18.44 421.4238482450543, 18.448 421.3011815783876 C 18.471999999999998 421.010514911721, 18.485999999999997 420.7491815783876, 18.49 420.5171815783876 C 18.494 420.28518157838755, 18.485333333333333 420.06384824505426, 18.464 419.8531815783876 C 18.447999999999997 419.69851491172096, 18.396666666666665 419.58318157838767, 18.31 419.5071815783876 C 18.223333333333333 419.4311815783876, 18.090666666666664 419.3931815783876, 17.912 419.3931815783876 C 17.901333333333334 419.3931815783876, 17.890666666666668 419.3945149117209, 17.88 419.3971815783876 C 17.86933333333333 419.3998482450543, 17.86 419.4025149117209, 17.852 419.4051815783876 Z M 17.852 417.1131815783876 L 17.852 416.1811815783876 L 19.439999999999998 416.1811815783876 L 19.439999999999998 417.1131815783876 Z M 21.944 422.5811815783876 L 21.944 416.1811815783876 L 23.003999999999998 416.1811815783876 L 23.003999999999998 422.5811815783876 Z " stroke="none" fill-rule="nonzero" fill="#000000" fill-opacity="1" transform="matrix(1,0,0,1,5.05,13.314)" id="text5 l" />
  <path d="M 0 409.5160755257746 L 10 409.5160755257746 L 10 411.0160755257746 L 0 411.0160755257746 Z " stroke="none" fill-rule="evenodd" fill="#000000" fill-opacity="1" transform="matrix(1,0,0,1,5.05,13.314)" id="mark6 l" />
  <path d="M 0 395.3689694731617 L 10 395.3689694731617 L 10 396.8689694731617 L 0 396.8689694731617 Z " stroke="none" fill-rule="evenodd" fill="#000000" fill-opacity="1" transform="matrix(1,0,0,1,5.05,13.314)" id="mark7 l" />
  <path d="M 0 381.2218634205488 L 10 381.2218634205488 L 10 382.7218634205488 L 0 382.7218634205488 Z " stroke="none" fill-rule="evenodd" fill="#000000" fill-opacity="1" transform="matrix(1,0,0,1,5.05,13.314)" id="mark8 l" />
  <path d="M 0 367.0747573679359 L 10 367.0747573679359 L 10 368.5747573679359 L 0 368.5747573679359 Z " stroke="none" fill-rule="evenodd" fill="#000000" fill-opacity="1" transform="matrix(1,0,0,1,5.05,13.314)" id="mark9 l" />
  <path d="M 0 352.927651315323 L 25 352.927651315323 L 25 354.427651315323 L 0 354.427651315323 Z " stroke="none" fill-rule="evenodd" fill="#000000" fill-opacity="1" transform="matrix(1,0,0,1,5.05,13.314)" id="mark10 l" />
  <path d="M 14.323999999999998 351.87765131532296 L 14.323999999999998 346.43365131532295 L 13.871999999999998 346.43365131532295 L 13.839999999999998 346.05365131532295 L 14.543999999999999 345.477651315323 L 15.424 345.477651315323 L 15.424 351.87765131532296 Z M 16.196 350.465651315323 C 16.188000000000002 350.03631798198967, 16.182666666666666 349.619651315323, 16.18 349.215651315323 C 16.177333333333333 348.811651315323, 16.177999999999997 348.41631798198966, 16.182 348.02965131532295 C 16.186 347.6429846486563, 16.190666666666665 347.261651315323, 16.196 346.88565131532295 C 16.209333333333333 346.44565131532295, 16.334000000000003 346.10031798198963, 16.57 345.84965131532294 C 16.805999999999997 345.5989846486563, 17.142666666666663 345.453651315323, 17.58 345.41365131532297 L 17.58 346.30165131532294 C 17.382666666666665 346.3576513153229, 17.281333333333333 346.4869846486563, 17.276 346.689651315323 C 17.262666666666668 347.0603179819896, 17.253333333333334 347.4083179819896, 17.248 347.73365131532296 C 17.242666666666665 348.0589846486563, 17.24 348.37565131532295, 17.24 348.68365131532295 C 17.24 348.99165131532294, 17.242666666666665 349.3063179819896, 17.248 349.62765131532296 C 17.253333333333334 349.94898464865634, 17.262666666666668 350.29231798198964, 17.276 350.65765131532294 C 17.281333333333333 350.86565131532296, 17.382666666666665 350.99765131532297, 17.58 351.05365131532295 L 17.58 351.941651315323 C 17.142666666666663 351.90165131532297, 16.805999999999997 351.755651315323, 16.57 351.50365131532294 C 16.334000000000003 351.251651315323, 16.209333333333333 350.905651315323, 16.196 350.465651315323 Z M 18.084 351.941651315323 L 18.084 351.049651315323 C 18.268 350.99631798198965, 18.366666666666667 350.8723179819896, 18.38 350.677651315323 C 18.398666666666667 350.21098464865634, 18.410666666666668 349.76231798198967, 18.416 349.331651315323 C 18.421333333333333 348.9009846486563, 18.421333333333333 348.47031798198964, 18.416 348.03965131532294 C 18.410666666666668 347.6089846486563, 18.398666666666667 347.1563179819896, 18.38 346.68165131532294 C 18.374666666666666 346.4869846486563, 18.276 346.3603179819896, 18.084 346.30165131532294 L 18.084 345.41365131532297 C 18.513333333333335 345.453651315323, 18.846666666666668 345.5989846486563, 19.084 345.84965131532294 C 19.321333333333335 346.10031798198963, 19.445333333333334 346.44565131532295, 19.456 346.88565131532295 C 19.46666666666667 347.20031798198966, 19.474666666666668 347.5103179819896, 19.48 347.81565131532295 C 19.485333333333333 348.1209846486563, 19.488 348.42165131532295, 19.488 348.71765131532294 C 19.488 349.01365131532293, 19.485333333333333 349.3069846486563, 19.48 349.597651315323 C 19.474666666666668 349.88831798198964, 19.46666666666667 350.177651315323, 19.456 350.465651315323 C 19.439999999999998 350.91631798198966, 19.311999999999998 351.2649846486563, 19.072 351.511651315323 C 18.832 351.75831798198965, 18.502666666666666 351.90165131532297, 18.084 351.941651315323 Z M 21.944 351.87765131532296 L 21.944 345.477651315323 L 23.003999999999998 345.477651315323 L 23.003999999999998 351.87765131532296 Z " stroke="none" fill-rule="nonzero" fill="#000000" fill-opacity="1" transform="matrix(1,0,0,1,5.05,13.314)" id="text10 l" />
  <path d="M 0 338.78054526271006 L 10 338.78054526271006 L 10 340.28054526271006 L 0 340.28054526271006 Z " stroke="none" fill-rule="evenodd" fill="#000000" fill-opacity="1" transform="matrix(1,0,0,1,5.05,13.314)" id="mark11 l" />
  <path d="M 0 324.6334392100971 L 10 324.6334392100971 L 10 326.1334392100971 L 0 326.1334392100971 Z " stroke="none" fill-rule="evenodd" fill="#000000" fill-opacity="1" transform="matrix(1,0,0,1,5.05,13.314)" id="mark12 l" />
  <path d="M 0 310.4863331574842 L 10 310.4863331574842 L 10 311.9863331574842 L 0 311.9863331574842 Z " stroke="none" fill-rule="evenodd" fill="#000000" fill-opacity="1" transform="matrix(1,0,0,1,5.05,13.314)" id="mark13 l" />
  <path d="M 0 296.33922710487127 L 10 296.33922710487127 L 10 297.83922710487127 L 0 297.83922710487127 Z " stroke="none" fill-rule="evenodd" fill="#000000" fill-opacity="1" transform="matrix(1,0,0,1,5.05,13.314)" id="mark14 l" />
  <path d="M 0 282.19212105225836 L 25 282.19212105225836 L 25 283.69212105225836 L 0 283.69212105225836 Z " stroke="none" fill-rule="evenodd" fill="#000000" fill-opacity="1" transform="matrix(1,0,0,1,5.05,13.314)" id="mark15 l" />
  <path d="M 14.331999999999999 281.11012105225836 L 14.331999999999999 275.66612105225835 L 13.879999999999999 275.66612105225835 L 13.847999999999999 275.28612105225835 L 14.552 274.7101210522584 L 15.432 274.7101210522584 L 15.432 281.11012105225836 Z M 16.18 279.69412105225837 C 16.174666666666667 279.520787718925, 16.173333333333332 279.3814543855917, 16.176 279.27612105225836 C 16.178666666666665 279.170787718925, 16.181333333333335 279.068787718925, 16.183999999999997 278.9701210522584 L 17.264 278.9701210522584 C 17.256 279.04745438559166, 17.25 279.14345438559167, 17.246 279.2581210522584 C 17.241999999999997 279.372787718925, 17.240666666666666 279.4834543855917, 17.241999999999997 279.5901210522584 C 17.243333333333332 279.696787718925, 17.246666666666666 279.77678771892505, 17.252 279.8301210522584 C 17.262666666666668 279.95012105225834, 17.297333333333334 280.04812105225835, 17.355999999999998 280.1241210522584 C 17.414666666666665 280.20012105225834, 17.497333333333334 280.25412105225837, 17.604 280.28612105225835 L 17.604 281.17812105225835 C 17.110666666666663 281.140787718925, 16.75333333333333 281.0061210522584, 16.532 280.77412105225835 C 16.310666666666666 280.5421210522583, 16.19333333333333 280.18212105225837, 16.18 279.69412105225837 Z M 16.279999999999998 278.35812105225835 L 16.279999999999998 274.7101210522584 L 17.348 274.7101210522584 L 17.348 278.35812105225835 Z M 17.852 277.9341210522584 L 17.852 277.17812105225835 C 17.929333333333332 277.1381210522583, 18.014666666666667 277.10612105225835, 18.107999999999997 277.08212105225834 C 18.20133333333333 277.05812105225834, 18.301333333333332 277.04612105225834, 18.407999999999998 277.04612105225834 C 18.773333333333333 277.04612105225834, 19.047333333333334 277.1614543855917, 19.23 277.39212105225835 C 19.412666666666667 277.622787718925, 19.514666666666663 277.936787718925, 19.535999999999998 278.33412105225835 C 19.546666666666667 278.4941210522584, 19.55333333333333 278.652787718925, 19.555999999999997 278.81012105225835 C 19.558666666666664 278.9674543855917, 19.557333333333332 279.12078771892504, 19.552 279.2701210522584 C 19.546666666666667 279.41945438559173, 19.538666666666668 279.5594543855917, 19.528 279.69012105225835 C 19.482666666666667 280.188787718925, 19.353333333333335 280.5541210522583, 19.14 280.78612105225835 C 18.926666666666666 281.0181210522584, 18.581333333333333 281.14878771892506, 18.104 281.17812105225835 L 18.104 280.28612105225835 C 18.21333333333333 280.256787718925, 18.296 280.20412105225836, 18.352 280.12812105225834 C 18.408 280.05212105225837, 18.44 279.95278771892504, 18.448 279.8301210522584 C 18.471999999999998 279.5394543855917, 18.485999999999997 279.27812105225837, 18.49 279.04612105225834 C 18.494 278.8141210522584, 18.485333333333333 278.592787718925, 18.464 278.38212105225836 C 18.447999999999997 278.2274543855917, 18.396666666666665 278.1121210522584, 18.31 278.03612105225835 C 18.223333333333333 277.9601210522584, 18.090666666666664 277.9221210522584, 17.912 277.9221210522584 C 17.901333333333334 277.9221210522584, 17.890666666666668 277.9234543855917, 17.88 277.92612105225834 C 17.86933333333333 277.92878771892504, 17.86 277.9314543855917, 17.852 277.9341210522584 Z M 17.852 275.64212105225835 L 17.852 274.7101210522584 L 19.439999999999998 274.7101210522584 L 19.439999999999998 275.64212105225835 Z M 21.944 281.11012105225836 L 21.944 274.7101210522584 L 23.003999999999998 274.7101210522584 L 23.003999999999998 281.11012105225836 Z " stroke="none" fill-rule="nonzero" fill="#000000" fill-opacity="1" transform="matrix(1,0,0,1,5.05,13.314)" id="text15 l" />
  <path d="M 0 268.04501499964545 L 10 268.04501499964545 L 10 269.54501499964545 L 0 269.54501499964545 Z " stroke="none" fill-rule="evenodd" fill="#000000" fill-opacity="1" transform="matrix(1,0,0,1,5.05,13.314)" id="mark16 l" />
  <path d="M 0 253.89790894703253 L 10 253.89790894703253 L 10 255.39790894703253 L 0 255.39790894703253 Z " stroke="none" fill-rule="evenodd" fill="#000000" fill-opacity="1" transform="matrix(1,0,0,1,5.05,13.314)" id="mark17 l" />
  <path d="M 0 239.75080289441962 L 10 239.75080289441962 L 10 241.25080289441962 L 0 241.25080289441962 Z " stroke="none" fill-rule="evenodd" fill="#000000" fill-opacity="1" transform="matrix(1,0,0,1,5.05,13.314)" id="mark18 l" />
  <path d="M 0 225.6036968418067 L 10 225.6036968418067 L 10 227.1036968418067 L 0 227.1036968418067 Z " stroke="none" fill-rule="evenodd" fill="#000000" fill-opacity="1" transform="matrix(1,0,0,1,5.05,13.314)" id="mark19 l" />
  <path d="M 0 211.4565907891938 L 25 211.4565907891938 L 25 212.9565907891938 L 0 212.9565907891938 Z " stroke="none" fill-rule="evenodd" fill="#000000" fill-opacity="1" transform="matrix(1,0,0,1,5.05,13.314)" id="mark20 l" />
  <path d="M 12.319999999999999 210.4065907891938 C 12.317333333333334 210.30792412252714, 12.315333333333331 210.2192574558605, 12.313999999999998 210.14059078919382 C 12.312666666666665 210.06192412252716, 12.311333333333334 209.98792412252715, 12.309999999999999 209.91859078919381 C 12.308666666666667 209.84925745586048, 12.308 209.77725745586048, 12.308 209.7025907891938 C 12.308 209.62792412252713, 12.308 209.5432574558605, 12.308 209.44859078919382 C 12.308 209.35392412252713, 12.309333333333335 209.2425907891938, 12.312 209.1145907891938 C 12.32 208.82125745586046, 12.37 208.55925745586046, 12.462 208.3285907891938 C 12.554 208.09792412252716, 12.687999999999999 207.89192412252714, 12.863999999999999 207.71059078919382 C 13.04 207.5292574558605, 13.257333333333333 207.36792412252714, 13.515999999999998 207.2265907891938 L 14.047999999999998 206.93859078919382 C 14.234666666666666 206.83725745586048, 14.354 206.71525745586047, 14.405999999999999 206.5725907891938 C 14.457999999999998 206.42992412252715, 14.488 206.29592412252714, 14.495999999999999 206.17059078919382 C 14.506666666666664 206.02392412252715, 14.512666666666664 205.8672574558605, 14.514 205.70059078919383 C 14.51533333333333 205.53392412252714, 14.511999999999997 205.3772574558605, 14.504 205.23059078919383 C 14.498666666666665 205.1265907891938, 14.468666666666666 205.04059078919383, 14.413999999999998 204.97259078919382 C 14.359333333333332 204.9045907891938, 14.279999999999998 204.85592412252714, 14.175999999999998 204.8265907891938 L 14.175999999999998 203.93859078919382 C 14.663999999999998 203.9705907891938, 15.014 204.10192412252715, 15.225999999999999 204.3325907891938 C 15.437999999999999 204.56325745586048, 15.554666666666666 204.92392412252715, 15.575999999999999 205.41459078919382 C 15.578666666666663 205.47859078919382, 15.580666666666666 205.54392412252713, 15.581999999999999 205.61059078919382 C 15.583333333333332 205.67725745586046, 15.584 205.74192412252714, 15.584 205.8045907891938 C 15.584 205.86725745586048, 15.583333333333332 205.92925745586047, 15.581999999999999 205.99059078919382 C 15.580666666666666 206.0519241225271, 15.578666666666663 206.1119241225271, 15.575999999999999 206.17059078919382 C 15.565333333333331 206.45592412252716, 15.512 206.70259078919383, 15.415999999999999 206.9105907891938 C 15.32 207.11859078919383, 15.19 207.29859078919384, 15.026 207.45059078919383 C 14.862 207.6025907891938, 14.672 207.73859078919384, 14.456 207.8585907891938 L 13.851999999999999 208.18659078919381 C 13.737333333333332 208.24792412252714, 13.647333333333332 208.33192412252714, 13.581999999999999 208.43859078919382 C 13.516666666666666 208.5452574558605, 13.469999999999999 208.65859078919382, 13.441999999999998 208.7785907891938 C 13.413999999999998 208.8985907891938, 13.399999999999999 209.01059078919383, 13.399999999999999 209.1145907891938 L 13.399999999999999 210.4065907891938 Z M 12.328 206.36659078919382 C 12.322666666666667 206.24925745586046, 12.318666666666665 206.1345907891938, 12.315999999999999 206.02259078919383 C 12.313333333333333 205.9105907891938, 12.311333333333334 205.8045907891938, 12.309999999999999 205.70459078919382 C 12.308666666666667 205.60459078919382, 12.309333333333335 205.50792412252716, 12.312 205.41459078919382 C 12.330666666666666 204.92659078919382, 12.447333333333333 204.5672574558605, 12.661999999999999 204.33659078919382 C 12.876666666666665 204.10592412252714, 13.213333333333331 203.9732574558605, 13.671999999999999 203.93859078919382 L 13.671999999999999 204.83059078919382 C 13.576 204.85992412252716, 13.505333333333333 204.90659078919379, 13.459999999999999 204.9705907891938 C 13.414666666666665 205.03459078919383, 13.390666666666664 205.11192412252717, 13.387999999999998 205.2025907891938 C 13.382666666666665 205.4105907891938, 13.379333333333333 205.60392412252713, 13.378 205.78259078919382 C 13.376666666666667 205.9612574558605, 13.381333333333334 206.15592412252715, 13.392 206.36659078919382 Z M 13.904 210.4065907891938 L 13.904 209.47459078919383 L 15.5 209.47459078919383 L 15.5 210.4065907891938 Z M 16.196 208.9945907891938 C 16.188000000000002 208.56525745586046, 16.182666666666666 208.1485907891938, 16.18 207.7445907891938 C 16.177333333333333 207.3405907891938, 16.177999999999997 206.94525745586049, 16.182 206.5585907891938 C 16.186 206.17192412252717, 16.190666666666665 205.79059078919383, 16.196 205.41459078919382 C 16.209333333333333 204.97459078919383, 16.334000000000003 204.6292574558605, 16.57 204.37859078919382 C 16.805999999999997 204.12792412252713, 17.142666666666663 203.9825907891938, 17.58 203.94259078919382 L 17.58 204.83059078919382 C 17.382666666666665 204.8865907891938, 17.281333333333333 205.01592412252717, 17.276 205.21859078919383 C 17.262666666666668 205.5892574558605, 17.253333333333334 205.93725745586045, 17.248 206.2625907891938 C 17.242666666666665 206.5879241225271, 17.24 206.9045907891938, 17.24 207.21259078919383 C 17.24 207.52059078919382, 17.242666666666665 207.83525745586047, 17.248 208.1565907891938 C 17.253333333333334 208.47792412252716, 17.262666666666668 208.82125745586046, 17.276 209.18659078919381 C 17.281333333333333 209.39459078919384, 17.382666666666665 209.52659078919382, 17.58 209.5825907891938 L 17.58 210.4705907891938 C 17.142666666666663 210.4305907891938, 16.805999999999997 210.2845907891938, 16.57 210.03259078919382 C 16.334000000000003 209.7805907891938, 16.209333333333333 209.4345907891938, 16.196 208.9945907891938 Z M 18.084 210.4705907891938 L 18.084 209.5785907891938 C 18.268 209.52525745586047, 18.366666666666667 209.4012574558605, 18.38 209.20659078919383 C 18.398666666666667 208.73992412252716, 18.410666666666668 208.2912574558605, 18.416 207.86059078919382 C 18.421333333333333 207.42992412252715, 18.421333333333333 206.99925745586046, 18.416 206.56859078919382 C 18.410666666666668 206.13792412252712, 18.398666666666667 205.6852574558605, 18.38 205.21059078919382 C 18.374666666666666 205.01592412252717, 18.276 204.8892574558605, 18.084 204.83059078919382 L 18.084 203.94259078919382 C 18.513333333333335 203.9825907891938, 18.846666666666668 204.12792412252713, 19.084 204.37859078919382 C 19.321333333333335 204.6292574558605, 19.445333333333334 204.97459078919383, 19.456 205.41459078919382 C 19.46666666666667 205.72925745586048, 19.474666666666668 206.03925745586048, 19.48 206.3445907891938 C 19.485333333333333 206.64992412252712, 19.488 206.95059078919383, 19.488 207.24659078919382 C 19.488 207.5425907891938, 19.485333333333333 207.83592412252713, 19.48 208.1265907891938 C 19.474666666666668 208.4172574558605, 19.46666666666667 208.70659078919383, 19.456 208.9945907891938 C 19.439999999999998 209.44525745586049, 19.311999999999998 209.79392412252713, 19.072 210.0405907891938 C 18.832 210.28725745586047, 18.502666666666666 210.4305907891938, 18.084 210.4705907891938 Z M 21.944 210.4065907891938 L 21.944 204.0065907891938 L 23.003999999999998 204.0065907891938 L 23.003999999999998 210.4065907891938 Z " stroke="none" fill-rule="nonzero" fill="#000000" fill-opacity="1" transform="matrix(1,0,0,1,5.05,13.314)" id="text20 l" />
  <path d="M 0 197.30948473658088 L 10 197.30948473658088 L 10 198.80948473658088 L 0 198.80948473658088 Z " stroke="none" fill-rule="evenodd" fill="#000000" fill-opacity="1" transform="matrix(1,0,0,1,5.05,13.314)" id="mark21 l" />
  <path d="M 0 183.16237868396797 L 10 183.16237868396797 L 10 184.66237868396797 L 0 184.66237868396797 Z " stroke="none" fill-rule="evenodd" fill="#000000" fill-opacity="1" transform="matrix(1,0,0,1,5.05,13.314)" id="mark22 l" />
  <path d="M 0 169.01527263135506 L 10 169.01527263135506 L 10 170.51527263135506 L 0 170.51527263135506 Z " stroke="none" fill-rule="evenodd" fill="#000000" fill-opacity="1" transform="matrix(1,0,0,1,5.05,13.314)" id="mark23 l" />
  <path d="M 0 154.8681665787421 L 10 154.8681665787421 L 10 156.3681665787421 L 0 156.3681665787421 Z " stroke="none" fill-rule="evenodd" fill="#000000" fill-opacity="1" transform="matrix(1,0,0,1,5.05,13.314)" id="mark24 l" />
  <path d="M 0 140.72106052612918 L 25 140.72106052612918 L 25 142.22106052612918 L 0 142.22106052612918 Z " stroke="none" fill-rule="evenodd" fill="#000000" fill-opacity="1" transform="matrix(1,0,0,1,5.05,13.314)" id="mark25 l" />
  <path d="M 12.328 139.6710605261292 C 12.325333333333333 139.57239385946252, 12.323333333333332 139.48372719279587, 12.322 139.4050605261292 C 12.320666666666666 139.32639385946254, 12.319333333333333 139.25239385946253, 12.318 139.1830605261292 C 12.316666666666666 139.11372719279586, 12.315999999999999 139.04172719279586, 12.316 138.9670605261292 C 12.315999999999999 138.89239385946252, 12.315999999999999 138.80772719279585, 12.316 138.7130605261292 C 12.315999999999999 138.61839385946254, 12.317333333333334 138.5070605261292, 12.32 138.3790605261292 C 12.328 138.08572719279587, 12.378 137.82372719279587, 12.47 137.5930605261292 C 12.562000000000001 137.36239385946251, 12.696 137.15639385946253, 12.872 136.9750605261292 C 13.048 136.79372719279587, 13.265333333333334 136.63239385946252, 13.524000000000001 136.4910605261292 L 14.056000000000001 136.2030605261292 C 14.242666666666668 136.10172719279586, 14.362000000000002 135.97972719279585, 14.414 135.8370605261292 C 14.466000000000001 135.69439385946254, 14.495999999999999 135.56039385946252, 14.504 135.4350605261292 C 14.514666666666667 135.28839385946253, 14.520666666666667 135.1317271927959, 14.522 134.9650605261292 C 14.523333333333333 134.79839385946252, 14.520000000000001 134.64172719279588, 14.512 134.4950605261292 C 14.506666666666666 134.3910605261292, 14.476666666666667 134.3050605261292, 14.422 134.2370605261292 C 14.367333333333335 134.1690605261292, 14.288 134.12039385946252, 14.184000000000001 134.09106052612918 L 14.184000000000001 133.2030605261292 C 14.672 133.2350605261292, 15.022000000000002 133.36639385946253, 15.234 133.59706052612918 C 15.446000000000002 133.82772719279586, 15.562666666666667 134.18839385946254, 15.584 134.6790605261292 C 15.586666666666668 134.7430605261292, 15.588666666666668 134.80839385946254, 15.59 134.8750605261292 C 15.591333333333335 134.94172719279587, 15.592000000000002 135.00639385946252, 15.592 135.0690605261292 C 15.592000000000002 135.13172719279586, 15.591333333333335 135.19372719279585, 15.59 135.2550605261292 C 15.588666666666668 135.31639385946252, 15.586666666666668 135.37639385946252, 15.584 135.4350605261292 C 15.573333333333332 135.72039385946255, 15.52 135.9670605261292, 15.424 136.1750605261292 C 15.328 136.38306052612919, 15.197999999999999 136.5630605261292, 15.033999999999999 136.7150605261292 C 14.87 136.8670605261292, 14.68 137.0030605261292, 14.464 137.1230605261292 L 13.86 137.4510605261292 C 13.745333333333335 137.51239385946252, 13.655333333333335 137.59639385946252, 13.59 137.7030605261292 C 13.524666666666668 137.8097271927959, 13.478000000000002 137.9230605261292, 13.45 138.04306052612918 C 13.422 138.1630605261292, 13.408 138.27506052612918, 13.408 138.3790605261292 L 13.408 139.6710605261292 Z M 12.336 135.6310605261292 C 12.330666666666666 135.51372719279587, 12.326666666666664 135.3990605261292, 12.324 135.2870605261292 C 12.321333333333332 135.17506052612922, 12.319333333333333 135.0690605261292, 12.318 134.9690605261292 C 12.316666666666666 134.8690605261292, 12.317333333333334 134.77239385946254, 12.32 134.6790605261292 C 12.338666666666668 134.1910605261292, 12.455333333333336 133.83172719279588, 12.67 133.6010605261292 C 12.884666666666668 133.37039385946252, 13.221333333333334 133.2377271927959, 13.68 133.2030605261292 L 13.68 134.0950605261292 C 13.584 134.12439385946251, 13.513333333333332 134.17106052612917, 13.468 134.2350605261292 C 13.422666666666668 134.2990605261292, 13.398666666666667 134.37639385946252, 13.396 134.4670605261292 C 13.390666666666666 134.6750605261292, 13.387333333333332 134.86839385946251, 13.386 135.0470605261292 C 13.384666666666666 135.2257271927959, 13.389333333333333 135.42039385946254, 13.4 135.6310605261292 Z M 13.911999999999999 139.6710605261292 L 13.911999999999999 138.7390605261292 L 15.508 138.7390605261292 L 15.508 139.6710605261292 Z M 16.18 138.2550605261292 C 16.174666666666667 138.08172719279588, 16.173333333333332 137.94239385946253, 16.176 137.8370605261292 C 16.178666666666665 137.73172719279586, 16.181333333333335 137.62972719279588, 16.183999999999997 137.5310605261292 L 17.264 137.5310605261292 C 17.256 137.60839385946252, 17.25 137.70439385946253, 17.246 137.8190605261292 C 17.241999999999997 137.93372719279586, 17.240666666666666 138.04439385946253, 17.241999999999997 138.15106052612919 C 17.243333333333332 138.25772719279584, 17.246666666666666 138.33772719279585, 17.252 138.3910605261292 C 17.262666666666668 138.5110605261292, 17.297333333333334 138.6090605261292, 17.355999999999998 138.6850605261292 C 17.414666666666665 138.7610605261292, 17.497333333333334 138.81506052612917, 17.604 138.84706052612918 L 17.604 139.7390605261292 C 17.110666666666663 139.70172719279586, 16.75333333333333 139.56706052612918, 16.532 139.33506052612918 C 16.310666666666666 139.10306052612918, 16.19333333333333 138.7430605261292, 16.18 138.2550605261292 Z M 16.279999999999998 136.9190605261292 L 16.279999999999998 133.2710605261292 L 17.348 133.2710605261292 L 17.348 136.9190605261292 Z M 17.852 136.4950605261292 L 17.852 135.7390605261292 C 17.929333333333332 135.69906052612922, 18.014666666666667 135.6670605261292, 18.107999999999997 135.6430605261292 C 18.20133333333333 135.6190605261292, 18.301333333333332 135.6070605261292, 18.407999999999998 135.6070605261292 C 18.773333333333333 135.6070605261292, 19.047333333333334 135.72239385946253, 19.23 135.9530605261292 C 19.412666666666667 136.18372719279589, 19.514666666666663 136.49772719279588, 19.535999999999998 136.89506052612919 C 19.546666666666667 137.05506052612918, 19.55333333333333 137.21372719279586, 19.555999999999997 137.37106052612918 C 19.558666666666664 137.52839385946254, 19.557333333333332 137.68172719279585, 19.552 137.8310605261292 C 19.546666666666667 137.98039385946254, 19.538666666666668 138.12039385946252, 19.528 138.2510605261292 C 19.482666666666667 138.74972719279586, 19.353333333333335 139.11506052612918, 19.14 139.34706052612918 C 18.926666666666666 139.57906052612918, 18.581333333333333 139.70972719279587, 18.104 139.7390605261292 L 18.104 138.84706052612918 C 18.21333333333333 138.81772719279587, 18.296 138.76506052612922, 18.352 138.6890605261292 C 18.408 138.61306052612917, 18.44 138.51372719279584, 18.448 138.3910605261292 C 18.471999999999998 138.10039385946254, 18.485999999999997 137.8390605261292, 18.49 137.6070605261292 C 18.494 137.3750605261292, 18.485333333333333 137.15372719279586, 18.464 136.9430605261292 C 18.447999999999997 136.78839385946253, 18.396666666666665 136.67306052612918, 18.31 136.59706052612918 C 18.223333333333333 136.5210605261292, 18.090666666666664 136.4830605261292, 17.912 136.4830605261292 C 17.901333333333334 136.4830605261292, 17.890666666666668 136.48439385946253, 17.88 136.4870605261292 C 17.86933333333333 136.48972719279587, 17.86 136.49239385946254, 17.852 136.4950605261292 Z M 17.852 134.2030605261292 L 17.852 133.2710605261292 L 19.439999999999998 133.2710605261292 L 19.439999999999998 134.2030605261292 Z M 21.944 139.6710605261292 L 21.944 133.2710605261292 L 23.003999999999998 133.2710605261292 L 23.003999999999998 139.6710605261292 Z " stroke="none" fill-rule="nonzero" fill="#000000" fill-opacity="1" transform="matrix(1,0,0,1,5.05,13.314)" id="text25 l" />
  <path d="M 0 126.57395447351627 L 10 126.57395447351627 L 10 128.07395447351627 L 0 128.07395447351627 Z " stroke="none" fill-rule="evenodd" fill="#000000" fill-opacity="1" transform="matrix(1,0,0,1,5.05,13.314)" id="mark26 l" />
  <path d="M 0 112.42684842090335 L 10 112.42684842090335 L 10 113.92684842090335 L 0 113.92684842090335 Z " stroke="none" fill-rule="evenodd" fill="#000000" fill-opacity="1" transform="matrix(1,0,0,1,5.05,13.314)" id="mark27 l" />
  <path d="M 0 98.27974236829044 L 10 98.27974236829044 L 10 99.77974236829044 L 0 99.77974236829044 Z " stroke="none" fill-rule="evenodd" fill="#000000" fill-opacity="1" transform="matrix(1,0,0,1,5.05,13.314)" id="mark28 l" />
  <path d="M 0 84.13263631567753 L 10 84.13263631567753 L 10 85.63263631567753 L 0 85.63263631567753 Z " stroke="none" fill-rule="evenodd" fill="#000000" fill-opacity="1" transform="matrix(1,0,0,1,5.05,13.314)" id="mark29 l" />
  <path d="M 0 69.98553026306462 L 25 69.98553026306462 L 25 71.48553026306462 L 0 71.48553026306462 Z " stroke="none" fill-rule="evenodd" fill="#000000" fill-opacity="1" transform="matrix(1,0,0,1,5.05,13.314)" id="mark30 l" />
  <path d="M 12.223999999999998 67.51953026306462 C 12.221333333333334 67.4181969297313, 12.219333333333333 67.33419692973129, 12.218 67.26753026306461 C 12.216666666666667 67.20086359639795, 12.216666666666667 67.13286359639795, 12.218 67.06353026306462 C 12.219333333333333 66.99419692973129, 12.221333333333334 66.90486359639796, 12.223999999999998 66.79553026306462 L 13.303999999999998 66.79553026306462 L 13.303999999999998 67.65953026306462 C 13.303999999999998 67.89686359639795, 13.417333333333332 68.04753026306462, 13.643999999999998 68.11153026306462 L 13.643999999999998 69.00353026306462 C 13.155999999999999 68.9661969297313, 12.800666666666665 68.83153026306462, 12.578 68.59953026306462 C 12.355333333333334 68.36753026306462, 12.237333333333332 68.00753026306462, 12.223999999999998 67.51953026306462 Z M 12.292 63.46753026306462 L 12.292 62.53553026306462 L 15.536 62.53553026306462 L 15.536 63.46753026306462 Z M 14.143999999999998 68.11553026306463 C 14.367999999999999 68.05953026306463, 14.483999999999998 67.90886359639795, 14.491999999999999 67.66353026306462 C 14.497333333333334 67.46086359639796, 14.500666666666666 67.2781969297313, 14.501999999999999 67.11553026306463 C 14.503333333333332 66.95286359639795, 14.498666666666665 66.79553026306462, 14.488 66.64353026306462 C 14.48 66.48619692973128, 14.431999999999999 66.35286359639795, 14.344 66.24353026306463 C 14.256 66.13419692973129, 14.089333333333332 66.0821969297313, 13.844 66.08753026306462 L 13.096 66.09553026306462 L 13.068 65.20353026306462 L 14.027999999999999 63.81953026306462 L 15.216 63.81953026306462 L 14.248 65.17153026306462 L 14.28 65.17153026306462 C 14.712 65.17153026306462, 15.028666666666666 65.29419692973129, 15.229999999999999 65.53953026306462 C 15.431333333333333 65.78486359639795, 15.544 66.1621969297313, 15.568 66.67153026306462 C 15.57333333333333 66.74353026306463, 15.576666666666664 66.81553026306462, 15.578 66.88753026306462 C 15.57933333333333 66.95953026306462, 15.579999999999998 67.03019692973129, 15.579999999999998 67.09953026306462 C 15.579999999999998 67.16886359639796, 15.57933333333333 67.23819692973129, 15.578 67.30753026306462 C 15.576666666666664 67.37686359639795, 15.57333333333333 67.44753026306462, 15.568 67.51953026306462 C 15.549333333333333 68.01553026306462, 15.428666666666665 68.38019692973128, 15.206 68.61353026306462 C 14.983333333333334 68.84686359639795, 14.630666666666666 68.97686359639795, 14.148 69.00353026306462 Z M 16.196 67.52353026306461 C 16.188000000000002 67.09419692973128, 16.182666666666666 66.67753026306463, 16.18 66.27353026306461 C 16.177333333333333 65.86953026306462, 16.177999999999997 65.47419692973129, 16.182 65.08753026306462 C 16.186 64.70086359639795, 16.190666666666665 64.31953026306462, 16.196 63.94353026306462 C 16.209333333333333 63.50353026306462, 16.334000000000003 63.15819692973129, 16.57 62.90753026306462 C 16.805999999999997 62.656863596397955, 17.142666666666663 62.51153026306463, 17.58 62.47153026306462 L 17.58 63.35953026306462 C 17.382666666666665 63.415530263064625, 17.281333333333333 63.54486359639796, 17.276 63.74753026306462 C 17.262666666666668 64.11819692973128, 17.253333333333334 64.46619692973128, 17.248 64.79153026306462 C 17.242666666666665 65.11686359639795, 17.24 65.43353026306463, 17.24 65.74153026306462 C 17.24 66.04953026306461, 17.242666666666665 66.36419692973129, 17.248 66.68553026306462 C 17.253333333333334 67.00686359639795, 17.262666666666668 67.35019692973128, 17.276 67.71553026306462 C 17.281333333333333 67.92353026306462, 17.382666666666665 68.05553026306463, 17.58 68.11153026306462 L 17.58 68.99953026306461 C 17.142666666666663 68.95953026306462, 16.805999999999997 68.81353026306462, 16.57 68.56153026306463 C 16.334000000000003 68.30953026306463, 16.209333333333333 67.96353026306463, 16.196 67.52353026306461 Z M 18.084 68.99953026306461 L 18.084 68.10753026306462 C 18.268 68.05419692973129, 18.366666666666667 67.93019692973128, 18.38 67.73553026306462 C 18.398666666666667 67.26886359639795, 18.410666666666668 66.82019692973128, 18.416 66.38953026306461 C 18.421333333333333 65.95886359639796, 18.421333333333333 65.5281969297313, 18.416 65.09753026306463 C 18.410666666666668 64.66686359639796, 18.398666666666667 64.21419692973129, 18.38 63.73953026306462 C 18.374666666666666 63.54486359639795, 18.276 63.41819692973128, 18.084 63.35953026306462 L 18.084 62.47153026306462 C 18.513333333333335 62.51153026306463, 18.846666666666668 62.656863596397955, 19.084 62.90753026306462 C 19.321333333333335 63.15819692973129, 19.445333333333334 63.50353026306462, 19.456 63.94353026306462 C 19.46666666666667 64.2581969297313, 19.474666666666668 64.5681969297313, 19.48 64.87353026306462 C 19.485333333333333 65.17886359639795, 19.488 65.47953026306462, 19.488 65.77553026306462 C 19.488 66.07153026306463, 19.485333333333333 66.36486359639795, 19.48 66.65553026306462 C 19.474666666666668 66.94619692973129, 19.46666666666667 67.23553026306462, 19.456 67.52353026306461 C 19.439999999999998 67.97419692973128, 19.311999999999998 68.32286359639795, 19.072 68.56953026306462 C 18.832 68.81619692973129, 18.502666666666666 68.95953026306462, 18.084 68.99953026306461 Z M 21.944 68.93553026306462 L 21.944 62.53553026306462 L 23.003999999999998 62.53553026306462 L 23.003999999999998 68.93553026306462 Z " stroke="none" fill-rule="nonzero" fill="#000000" fill-opacity="1" transform="matrix(1,0,0,1,5.05,13.314)" id="text30 l" />
  <path d="M 0 55.838424210451706 L 10 55.838424210451706 L 10 57.338424210451706 L 0 57.338424210451706 Z " stroke="none" fill-rule="evenodd" fill="#000000" fill-opacity="1" transform="matrix(1,0,0,1,5.05,13.314)" id="mark31 l" />
  <path d="M 0 41.69131815783879 L 10 41.69131815783879 L 10 43.19131815783879 L 0 43.19131815783879 Z " stroke="none" fill-rule="evenodd" fill="#000000" fill-opacity="1" transform="matrix(1,0,0,1,5.05,13.314)" id="mark32 l" />
  <path d="M 0 27.54421210522588 L 10 27.54421210522588 L 10 29.04421210522588 L 0 29.04421210522588 Z " stroke="none" fill-rule="evenodd" fill="#000000" fill-opacity="1" transform="matrix(1,0,0,1,5.05,13.314)" id="mark33 l" />
  <path d="M 0 13.397106052612912 L 10 13.397106052612912 L 10 14.897106052612912 L 0 14.897106052612912 Z " stroke="none" fill-rule="evenodd" fill="#000000" fill-opacity="1" transform="matrix(1,0,0,1,5.05,13.314)" id="mark34 l" />
  <path d="M 0 -0.75 L 25 -0.75 L 25 0.75 L 0 0.75 Z " stroke="none" fill-rule="evenodd" fill="#000000" fill-opacity="1" transform="matrix(1,0,0,1,5.05,13.314)" id="mark35 l" />
  <path d="M 12.232 -3.2479999999999998 C 12.229333333333333 -3.349333333333333, 12.227333333333334 -3.4333333333333336, 12.226 -3.5 C 12.224666666666668 -3.5666666666666664, 12.224666666666668 -3.6346666666666665, 12.226 -3.7039999999999997 C 12.227333333333334 -3.773333333333333, 12.229333333333333 -3.8626666666666667, 12.232 -3.972 L 13.312 -3.972 L 13.312 -3.1079999999999997 C 13.312 -2.8706666666666663, 13.425333333333333 -2.7199999999999998, 13.652 -2.6559999999999997 L 13.652 -1.7639999999999998 C 13.164 -1.801333333333333, 12.808666666666667 -1.9359999999999997, 12.586 -2.1679999999999997 C 12.363333333333333 -2.4, 12.245333333333335 -2.76, 12.232 -3.2479999999999998 Z M 12.3 -7.3 L 12.3 -8.232 L 15.544 -8.232 L 15.544 -7.3 Z M 14.152000000000001 -2.6519999999999997 C 14.376000000000001 -2.7079999999999997, 14.492 -2.8586666666666662, 14.5 -3.104 C 14.505333333333333 -3.3066666666666666, 14.508666666666667 -3.489333333333333, 14.51 -3.652 C 14.511333333333333 -3.8146666666666667, 14.506666666666668 -3.9719999999999995, 14.496 -4.124 C 14.488 -4.2813333333333325, 14.440000000000001 -4.414666666666666, 14.352 -4.524 C 14.264 -4.633333333333333, 14.097333333333335 -4.685333333333333, 13.852 -4.68 L 13.104 -4.672 L 13.076 -5.564 L 14.036 -6.9479999999999995 L 15.224 -6.9479999999999995 L 14.256 -5.596 L 14.288 -5.596 C 14.719999999999999 -5.596, 15.036666666666665 -5.473333333333333, 15.238 -5.228 C 15.439333333333334 -4.982666666666667, 15.552 -4.605333333333333, 15.576 -4.096 C 15.581333333333333 -4.024, 15.584666666666667 -3.952, 15.586 -3.88 C 15.587333333333333 -3.808, 15.588000000000001 -3.737333333333333, 15.588000000000001 -3.6679999999999997 C 15.588000000000001 -3.5986666666666665, 15.587333333333333 -3.529333333333333, 15.586 -3.46 C 15.584666666666667 -3.3906666666666667, 15.581333333333333 -3.3200000000000003, 15.576 -3.2479999999999998 C 15.557333333333334 -2.752, 15.436666666666667 -2.3873333333333333, 15.214 -2.154 C 14.991333333333333 -1.9206666666666665, 14.638666666666666 -1.7906666666666666, 14.156 -1.7639999999999998 Z M 16.18 -3.2479999999999998 C 16.174666666666667 -3.421333333333333, 16.173333333333332 -3.5606666666666666, 16.176 -3.666 C 16.178666666666665 -3.771333333333333, 16.181333333333335 -3.873333333333333, 16.183999999999997 -3.972 L 17.264 -3.972 C 17.256 -3.8946666666666667, 17.25 -3.7986666666666666, 17.246 -3.6839999999999997 C 17.241999999999997 -3.569333333333333, 17.240666666666666 -3.4586666666666663, 17.241999999999997 -3.352 C 17.243333333333332 -3.2453333333333334, 17.246666666666666 -3.1653333333333338, 17.252 -3.112 C 17.262666666666668 -2.992, 17.297333333333334 -2.8939999999999997, 17.355999999999998 -2.8179999999999996 C 17.414666666666665 -2.7419999999999995, 17.497333333333334 -2.6879999999999997, 17.604 -2.6559999999999997 L 17.604 -1.7639999999999998 C 17.110666666666663 -1.801333333333333, 16.75333333333333 -1.9359999999999997, 16.532 -2.1679999999999997 C 16.310666666666666 -2.4, 16.19333333333333 -2.76, 16.18 -3.2479999999999998 Z M 16.279999999999998 -4.584 L 16.279999999999998 -8.232 L 17.348 -8.232 L 17.348 -4.584 Z M 17.852 -5.008 L 17.852 -5.763999999999999 C 17.929333333333332 -5.804, 18.014666666666667 -5.836, 18.107999999999997 -5.86 C 18.20133333333333 -5.884, 18.301333333333332 -5.896, 18.407999999999998 -5.896 C 18.773333333333333 -5.896, 19.047333333333334 -5.780666666666667, 19.23 -5.55 C 19.412666666666667 -5.319333333333333, 19.514666666666663 -5.005333333333333, 19.535999999999998 -4.608 C 19.546666666666667 -4.448, 19.55333333333333 -4.289333333333333, 19.555999999999997 -4.132 C 19.558666666666664 -3.974666666666667, 19.557333333333332 -3.8213333333333335, 19.552 -3.6719999999999997 C 19.546666666666667 -3.522666666666667, 19.538666666666668 -3.3826666666666663, 19.528 -3.252 C 19.482666666666667 -2.753333333333333, 19.353333333333335 -2.388, 19.14 -2.1559999999999997 C 18.926666666666666 -1.9239999999999997, 18.581333333333333 -1.793333333333333, 18.104 -1.7639999999999998 L 18.104 -2.6559999999999997 C 18.21333333333333 -2.685333333333333, 18.296 -2.738, 18.352 -2.814 C 18.408 -2.89, 18.44 -2.9893333333333336, 18.448 -3.112 C 18.471999999999998 -3.4026666666666667, 18.485999999999997 -3.664, 18.49 -3.896 C 18.494 -4.128, 18.485333333333333 -4.349333333333333, 18.464 -4.5600000000000005 C 18.447999999999997 -4.714666666666667, 18.396666666666665 -4.83, 18.31 -4.906 C 18.223333333333333 -4.981999999999999, 18.090666666666664 -5.02, 17.912 -5.02 C 17.901333333333334 -5.02, 17.890666666666668 -5.018666666666666, 17.88 -5.016 C 17.86933333333333 -5.013333333333334, 17.86 -5.010666666666667, 17.852 -5.008 Z M 17.852 -7.3 L 17.852 -8.232 L 19.439999999999998 -8.232 L 19.439999999999998 -7.3 Z M 21.944 -1.8319999999999999 L 21.944 -8.232 L 23.003999999999998 -8.232 L 23.003999999999998 -1.8319999999999999 Z " stroke="none" fill-rule="nonzero" fill="#000000" fill-opacity="1" transform="matrix(1,0,0,1,5.05,13.314)" id="text35 l" />
  <path d="M -5 -13.264 L 30 -13.264 L 30 487.7376057888392 L -5 487.7376057888392 Z " stroke="#FF0000" stroke-opacity="1" stroke-width="0.1" stroke-linecap="butt" stroke-linejoin="miter" fill="none" transform="matrix(1,0,0,1,5.05,13.314)" />
</svg>