<?xml version="1.0" encoding="UTF-8"?>
<svg xmlns:xlink="http://www.w3.org/1999/xlink" viewBox="0 0 35.1 456.33736852399784" version="1.1" style="font-synthesis: none;" width="35.1mm" height="456.3373685239979mm" xmlns="http://www.w3.org/2000/svg">
  <defs />
  <style>	</style>
  <path d="M 0 0 L 35.1 0 L 35.1 456.33736852399784 L 0 456.33736852399784 Z " stroke="none" fill-rule="nonzero" fill="#FFFFFF" fill-opacity="1" transform="matrix(1,0,0,1,0,0)" />
  <path d="M 0 435.48736852399793 L 10 435.48736852399793 L 10 436.98736852399793 L 0 436.98736852399793 Z " stroke="none" fill-rule="evenodd" fill="#000000" fill-opacity="1" transform="matrix(1,0,0,1,5.05,13.314)" id="mark1 l" />
  <path d="M 0 427.40889873651645 L 10 427.40889873651645 L 10 428.90889873651645 L 0 428.90889873651645 Z " stroke="none" fill-rule="evenodd" fill="#000000" fill-opacity="1" transform="matrix(1,0,0,1,5.05,13.314)" id="mark2 l" />
  <path d="M 0 419.330428949035 L 10 419.330428949035 L 10 420.830428949035 L 0 420.830428949035 Z " stroke="none" fill-rule="evenodd" fill="#000000" fill-opacity="1" transform="matrix(1,0,0,1,5.05,13.314)" id="mark3 l" />
  <path d="M 0 411.2519591615536 L 10 411.2519591615536 L 10 412.7519591615536 L 0 412.7519591615536 Z " stroke="none" fill-rule="evenodd" fill="#000000" fill-opacity="1" transform="matrix(1,0,0,1,5.05,13.314)" id="mark4 l" />
  <path d="M 0 403.1734893740721 L 25 403.1734893740721 L 25 404.6734893740721 L 0 404.6734893740721 Z " stroke="none" fill-rule="evenodd" fill="#000000" fill-opacity="1" transform="matrix(1,0,0,1,5.05,13.314)" id="mark5 l" />
  <path d="M 16.18 400.67548937407213 C 16.174666666666667 400.5021560407388, 16.173333333333332 400.3628227074055, 16.176 400.2574893740721 C 16.178666666666665 400.15215604073876, 16.181333333333335 400.0501560407388, 16.183999999999997 399.95148937407214 L 17.264 399.95148937407214 C 17.256 400.0288227074054, 17.25 400.12482270740543, 17.246 400.23948937407215 C 17.241999999999997 400.35415604073876, 17.240666666666666 400.46482270740546, 17.241999999999997 400.57148937407214 C 17.243333333333332 400.6781560407388, 17.246666666666666 400.7581560407388, 17.252 400.81148937407215 C 17.262666666666668 400.9314893740721, 17.297333333333334 401.0294893740721, 17.355999999999998 401.10548937407214 C 17.414666666666665 401.18148937407216, 17.497333333333334 401.23548937407213, 17.604 401.2674893740721 L 17.604 402.1594893740721 C 17.110666666666663 402.1221560407388, 16.75333333333333 401.98748937407214, 16.532 401.7554893740721 C 16.310666666666666 401.5234893740721, 16.19333333333333 401.1634893740721, 16.18 400.67548937407213 Z M 16.279999999999998 399.3394893740721 L 16.279999999999998 395.69148937407215 L 17.348 395.69148937407215 L 17.348 399.3394893740721 Z M 17.852 398.91548937407214 L 17.852 398.1594893740721 C 17.929333333333332 398.1194893740721, 18.014666666666667 398.0874893740721, 18.107999999999997 398.0634893740721 C 18.20133333333333 398.0394893740721, 18.301333333333332 398.02748937407205, 18.407999999999998 398.0274893740721 C 18.773333333333333 398.02748937407205, 19.047333333333334 398.14282270740546, 19.23 398.3734893740721 C 19.412666666666667 398.60415604073876, 19.514666666666663 398.9181560407388, 19.535999999999998 399.3154893740721 C 19.546666666666667 399.47548937407214, 19.55333333333333 399.63415604073884, 19.555999999999997 399.7914893740721 C 19.558666666666664 399.9488227074055, 19.557333333333332 400.1021560407388, 19.552 400.25148937407215 C 19.546666666666667 400.4008227074055, 19.538666666666668 400.5408227074055, 19.528 400.6714893740721 C 19.482666666666667 401.1701560407388, 19.353333333333335 401.5354893740721, 19.14 401.7674893740721 C 18.926666666666666 401.99948937407214, 18.581333333333333 402.1301560407388, 18.104 402.1594893740721 L 18.104 401.2674893740721 C 18.21333333333333 401.2381560407388, 18.296 401.18548937407206, 18.352 401.1094893740721 C 18.408 401.03348937407213, 18.44 400.9341560407388, 18.448 400.81148937407215 C 18.471999999999998 400.52082270740544, 18.485999999999997 400.25948937407213, 18.49 400.0274893740721 C 18.494 399.7954893740722, 18.485333333333333 399.5741560407388, 18.464 399.3634893740721 C 18.447999999999997 399.2088227074055, 18.396666666666665 399.09348937407213, 18.31 399.0174893740721 C 18.223333333333333 398.94148937407215, 18.090666666666664 398.90348937407214, 17.912 398.90348937407214 C 17.901333333333334 398.90348937407214, 17.890666666666668 398.9048227074055, 17.88 398.9074893740721 C 17.86933333333333 398.9101560407388, 17.86 398.91282270740544, 17.852 398.91548937407214 Z M 17.852 396.6234893740721 L 17.852 395.69148937407215 L 19.439999999999998 395.69148937407215 L 19.439999999999998 396.6234893740721 Z M 21.944 402.0914893740721 L 21.944 395.69148937407215 L 23.003999999999998 395.69148937407215 L 23.003999999999998 402.0914893740721 Z " stroke="none" fill-rule="nonzero" fill="#000000" fill-opacity="1" transform="matrix(1,0,0,1,5.05,13.314)" id="text5 l" />
  <path d="M 0 395.0950195865907 L 10 395.0950195865907 L 10 396.5950195865907 L 0 396.5950195865907 Z " stroke="none" fill-rule="evenodd" fill="#000000" fill-opacity="1" transform="matrix(1,0,0,1,5.05,13.314)" id="mark6 l" />
  <path d="M 0 387.01654979910927 L 10 387.01654979910927 L 10 388.51654979910927 L 0 388.51654979910927 Z " stroke="none" fill-rule="evenodd" fill="#000000" fill-opacity="1" transform="matrix(1,0,0,1,5.05,13.314)" id="mark7 l" />
  <path d="M 0 378.9380800116278 L 10 378.9380800116278 L 10 380.4380800116278 L 0 380.4380800116278 Z " stroke="none" fill-rule="evenodd" fill="#000000" fill-opacity="1" transform="matrix(1,0,0,1,5.05,13.314)" id="mark8 l" />
  <path d="M 0 370.85961022414637 L 10 370.85961022414637 L 10 372.35961022414637 L 0 372.35961022414637 Z " stroke="none" fill-rule="evenodd" fill="#000000" fill-opacity="1" transform="matrix(1,0,0,1,5.05,13.314)" id="mark9 l" />
  <path d="M 0 362.78114043666494 L 25 362.78114043666494 L 25 364.28114043666494 L 0 364.28114043666494 Z " stroke="none" fill-rule="evenodd" fill="#000000" fill-opacity="1" transform="matrix(1,0,0,1,5.05,13.314)" id="mark10 l" />
  <path d="M 14.323999999999998 361.73114043666493 L 14.323999999999998 356.2871404366649 L 13.871999999999998 356.2871404366649 L 13.839999999999998 355.9071404366649 L 14.543999999999999 355.33114043666495 L 15.424 355.33114043666495 L 15.424 361.73114043666493 Z M 16.196 360.31914043666495 C 16.188000000000002 359.88980710333163, 16.182666666666666 359.47314043666495, 16.18 359.06914043666495 C 16.177333333333333 358.66514043666496, 16.177999999999997 358.26980710333163, 16.182 357.8831404366649 C 16.186 357.49647376999826, 16.190666666666665 357.1151404366649, 16.196 356.7391404366649 C 16.209333333333333 356.29914043666497, 16.334000000000003 355.9538071033316, 16.57 355.7031404366649 C 16.805999999999997 355.4524737699983, 17.142666666666663 355.30714043666495, 17.58 355.26714043666493 L 17.58 356.1551404366649 C 17.382666666666665 356.2111404366649, 17.281333333333333 356.34047376999825, 17.276 356.54314043666494 C 17.262666666666668 356.9138071033316, 17.253333333333334 357.2618071033316, 17.248 357.5871404366649 C 17.242666666666665 357.91247376999826, 17.24 358.2291404366649, 17.24 358.5371404366649 C 17.24 358.8451404366649, 17.242666666666665 359.15980710333156, 17.248 359.48114043666493 C 17.253333333333334 359.8024737699983, 17.262666666666668 360.1458071033316, 17.276 360.5111404366649 C 17.281333333333333 360.71914043666493, 17.382666666666665 360.85114043666493, 17.58 360.9071404366649 L 17.58 361.79514043666495 C 17.142666666666663 361.755140436665, 16.805999999999997 361.6091404366649, 16.57 361.3571404366649 C 16.334000000000003 361.1051404366649, 16.209333333333333 360.75914043666495, 16.196 360.31914043666495 Z M 18.084 361.79514043666495 L 18.084 360.90314043666496 C 18.268 360.8498071033316, 18.366666666666667 360.7258071033316, 18.38 360.53114043666494 C 18.398666666666667 360.06447376999824, 18.410666666666668 359.6158071033316, 18.416 359.18514043666494 C 18.421333333333333 358.7544737699983, 18.421333333333333 358.3238071033316, 18.416 357.8931404366649 C 18.410666666666668 357.46247376999827, 18.398666666666667 357.0098071033316, 18.38 356.5351404366649 C 18.374666666666666 356.34047376999825, 18.276 356.2138071033316, 18.084 356.1551404366649 L 18.084 355.26714043666493 C 18.513333333333335 355.30714043666495, 18.846666666666668 355.4524737699983, 19.084 355.7031404366649 C 19.321333333333335 355.9538071033316, 19.445333333333334 356.29914043666497, 19.456 356.7391404366649 C 19.46666666666667 357.05380710333156, 19.474666666666668 357.3638071033316, 19.48 357.6691404366649 C 19.485333333333333 357.97447376999827, 19.488 358.2751404366649, 19.488 358.5711404366649 C 19.488 358.8671404366649, 19.485333333333333 359.16047376999825, 19.48 359.45114043666496 C 19.474666666666668 359.7418071033316, 19.46666666666667 360.03114043666494, 19.456 360.31914043666495 C 19.439999999999998 360.76980710333163, 19.311999999999998 361.1184737699983, 19.072 361.36514043666494 C 18.832 361.6118071033316, 18.502666666666666 361.755140436665, 18.084 361.79514043666495 Z M 21.944 361.73114043666493 L 21.944 355.33114043666495 L 23.003999999999998 355.33114043666495 L 23.003999999999998 361.73114043666493 Z " stroke="none" fill-rule="nonzero" fill="#000000" fill-opacity="1" transform="matrix(1,0,0,1,5.05,13.314)" id="text10 l" />
  <path d="M 0 354.70267064918346 L 10 354.70267064918346 L 10 356.20267064918346 L 0 356.20267064918346 Z " stroke="none" fill-rule="evenodd" fill="#000000" fill-opacity="1" transform="matrix(1,0,0,1,5.05,13.314)" id="mark11 l" />
  <path d="M 0 346.62420086170204 L 10 346.62420086170204 L 10 348.12420086170204 L 0 348.12420086170204 Z " stroke="none" fill-rule="evenodd" fill="#000000" fill-opacity="1" transform="matrix(1,0,0,1,5.05,13.314)" id="mark12 l" />
  <path d="M 0 338.5457310742206 L 10 338.5457310742206 L 10 340.0457310742206 L 0 340.0457310742206 Z " stroke="none" fill-rule="evenodd" fill="#000000" fill-opacity="1" transform="matrix(1,0,0,1,5.05,13.314)" id="mark13 l" />
  <path d="M 0 330.46726128673913 L 10 330.46726128673913 L 10 331.96726128673913 L 0 331.96726128673913 Z " stroke="none" fill-rule="evenodd" fill="#000000" fill-opacity="1" transform="matrix(1,0,0,1,5.05,13.314)" id="mark14 l" />
  <path d="M 0 322.3887914992577 L 25 322.3887914992577 L 25 323.8887914992577 L 0 323.8887914992577 Z " stroke="none" fill-rule="evenodd" fill="#000000" fill-opacity="1" transform="matrix(1,0,0,1,5.05,13.314)" id="mark15 l" />
  <path d="M 14.331999999999999 321.3067914992577 L 14.331999999999999 315.8627914992577 L 13.879999999999999 315.8627914992577 L 13.847999999999999 315.4827914992577 L 14.552 314.90679149925774 L 15.432 314.90679149925774 L 15.432 321.3067914992577 Z M 16.18 319.8907914992577 C 16.174666666666667 319.7174581659244, 16.173333333333332 319.5781248325911, 16.176 319.4727914992577 C 16.178666666666665 319.36745816592435, 16.181333333333335 319.2654581659244, 16.183999999999997 319.1667914992577 L 17.264 319.1667914992577 C 17.256 319.24412483259107, 17.25 319.3401248325911, 17.246 319.45479149925774 C 17.241999999999997 319.5694581659244, 17.240666666666666 319.68012483259105, 17.241999999999997 319.78679149925773 C 17.243333333333332 319.89345816592436, 17.246666666666666 319.9734581659244, 17.252 320.02679149925774 C 17.262666666666668 320.1467914992577, 17.297333333333334 320.2447914992577, 17.355999999999998 320.3207914992577 C 17.414666666666665 320.3967914992577, 17.497333333333334 320.4507914992577, 17.604 320.4827914992577 L 17.604 321.3747914992577 C 17.110666666666663 321.3374581659244, 16.75333333333333 321.2027914992577, 16.532 320.9707914992577 C 16.310666666666666 320.7387914992577, 16.19333333333333 320.37879149925766, 16.18 319.8907914992577 Z M 16.279999999999998 318.5547914992577 L 16.279999999999998 314.90679149925774 L 17.348 314.90679149925774 L 17.348 318.5547914992577 Z M 17.852 318.1307914992577 L 17.852 317.3747914992577 C 17.929333333333332 317.3347914992577, 18.014666666666667 317.3027914992577, 18.107999999999997 317.2787914992577 C 18.20133333333333 317.2547914992577, 18.301333333333332 317.2427914992577, 18.407999999999998 317.2427914992577 C 18.773333333333333 317.2427914992577, 19.047333333333334 317.358124832591, 19.23 317.5887914992577 C 19.412666666666667 317.8194581659244, 19.514666666666663 318.13345816592437, 19.535999999999998 318.5307914992577 C 19.546666666666667 318.6907914992577, 19.55333333333333 318.8494581659244, 19.555999999999997 319.0067914992577 C 19.558666666666664 319.164124832591, 19.557333333333332 319.3174581659244, 19.552 319.46679149925774 C 19.546666666666667 319.6161248325911, 19.538666666666668 319.75612483259107, 19.528 319.8867914992577 C 19.482666666666667 320.3854581659244, 19.353333333333335 320.7507914992577, 19.14 320.9827914992577 C 18.926666666666666 321.21479149925773, 18.581333333333333 321.34545816592436, 18.104 321.3747914992577 L 18.104 320.4827914992577 C 18.21333333333333 320.45345816592436, 18.296 320.4007914992577, 18.352 320.3247914992577 C 18.408 320.2487914992577, 18.44 320.1494581659244, 18.448 320.02679149925774 C 18.471999999999998 319.73612483259103, 18.485999999999997 319.47479149925766, 18.49 319.2427914992577 C 18.494 319.0107914992577, 18.485333333333333 318.7894581659244, 18.464 318.5787914992577 C 18.447999999999997 318.4241248325911, 18.396666666666665 318.3087914992577, 18.31 318.2327914992577 C 18.223333333333333 318.15679149925774, 18.090666666666664 318.1187914992577, 17.912 318.1187914992577 C 17.901333333333334 318.1187914992577, 17.890666666666668 318.12012483259105, 17.88 318.1227914992577 C 17.86933333333333 318.12545816592433, 17.86 318.128124832591, 17.852 318.1307914992577 Z M 17.852 315.8387914992577 L 17.852 314.90679149925774 L 19.439999999999998 314.90679149925774 L 19.439999999999998 315.8387914992577 Z M 21.944 321.3067914992577 L 21.944 314.90679149925774 L 23.003999999999998 314.90679149925774 L 23.003999999999998 321.3067914992577 Z " stroke="none" fill-rule="nonzero" fill="#000000" fill-opacity="1" transform="matrix(1,0,0,1,5.05,13.314)" id="text15 l" />
  <path d="M 0 314.3103217117763 L 10 314.3103217117763 L 10 315.8103217117763 L 0 315.8103217117763 Z " stroke="none" fill-rule="evenodd" fill="#000000" fill-opacity="1" transform="matrix(1,0,0,1,5.05,13.314)" id="mark16 l" />
  <path d="M 0 306.2318519242948 L 10 306.2318519242948 L 10 307.7318519242948 L 0 307.7318519242948 Z " stroke="none" fill-rule="evenodd" fill="#000000" fill-opacity="1" transform="matrix(1,0,0,1,5.05,13.314)" id="mark17 l" />
  <path d="M 0 298.1533821368134 L 10 298.1533821368134 L 10 299.6533821368134 L 0 299.6533821368134 Z " stroke="none" fill-rule="evenodd" fill="#000000" fill-opacity="1" transform="matrix(1,0,0,1,5.05,13.314)" id="mark18 l" />
  <path d="M 0 290.07491234933195 L 10 290.07491234933195 L 10 291.57491234933195 L 0 291.57491234933195 Z " stroke="none" fill-rule="evenodd" fill="#000000" fill-opacity="1" transform="matrix(1,0,0,1,5.05,13.314)" id="mark19 l" />
  <path d="M 0 281.9964425618505 L 25 281.9964425618505 L 25 283.4964425618505 L 0 283.4964425618505 Z " stroke="none" fill-rule="evenodd" fill="#000000" fill-opacity="1" transform="matrix(1,0,0,1,5.05,13.314)" id="mark20 l" />
  <path d="M 12.319999999999999 280.94644256185046 C 12.317333333333334 280.84777589518376, 12.315333333333331 280.7591092285171, 12.313999999999998 280.68044256185044 C 12.312666666666665 280.6017758951838, 12.311333333333334 280.52777589518377, 12.309999999999999 280.45844256185046 C 12.308666666666667 280.38910922851716, 12.308 280.31710922851715, 12.308 280.24244256185045 C 12.308 280.1677758951838, 12.308 280.0831092285172, 12.308 279.98844256185043 C 12.308 279.8937758951838, 12.309333333333335 279.7824425618505, 12.312 279.6544425618505 C 12.32 279.36110922851714, 12.37 279.09910922851714, 12.462 278.8684425618505 C 12.554 278.63777589518384, 12.687999999999999 278.4317758951838, 12.863999999999999 278.25044256185043 C 13.04 278.0691092285171, 13.257333333333333 277.90777589518376, 13.515999999999998 277.76644256185045 L 14.047999999999998 277.47844256185044 C 14.234666666666666 277.3771092285171, 14.354 277.2551092285171, 14.405999999999999 277.11244256185046 C 14.457999999999998 276.96977589518383, 14.488 276.8357758951838, 14.495999999999999 276.71044256185047 C 14.506666666666664 276.56377589518377, 14.512666666666664 276.40710922851713, 14.514 276.24044256185044 C 14.51533333333333 276.07377589518376, 14.511999999999997 275.9171092285171, 14.504 275.7704425618505 C 14.498666666666665 275.6664425618505, 14.468666666666666 275.5804425618505, 14.413999999999998 275.51244256185043 C 14.359333333333332 275.44444256185045, 14.279999999999998 275.39577589518376, 14.175999999999998 275.3664425618505 L 14.175999999999998 274.47844256185044 C 14.663999999999998 274.5104425618504, 15.014 274.64177589518374, 15.225999999999999 274.87244256185045 C 15.437999999999999 275.10310922851716, 15.554666666666666 275.4637758951838, 15.575999999999999 275.95444256185044 C 15.578666666666663 276.01844256185046, 15.580666666666666 276.0837758951838, 15.581999999999999 276.15044256185047 C 15.583333333333332 276.21710922851713, 15.584 276.2817758951838, 15.584 276.3444425618505 C 15.584 276.40710922851713, 15.583333333333332 276.46910922851714, 15.581999999999999 276.53044256185046 C 15.580666666666666 276.5917758951838, 15.578666666666663 276.6517758951838, 15.575999999999999 276.71044256185047 C 15.565333333333331 276.9957758951838, 15.512 277.24244256185045, 15.415999999999999 277.4504425618505 C 15.32 277.65844256185045, 15.19 277.83844256185046, 15.026 277.99044256185044 C 14.862 278.14244256185043, 14.672 278.27844256185045, 14.456 278.39844256185046 L 13.851999999999999 278.72644256185043 C 13.737333333333332 278.7877758951838, 13.647333333333332 278.8717758951838, 13.581999999999999 278.97844256185044 C 13.516666666666666 279.0851092285171, 13.469999999999999 279.19844256185047, 13.441999999999998 279.3184425618505 C 13.413999999999998 279.4384425618505, 13.399999999999999 279.5504425618505, 13.399999999999999 279.6544425618505 L 13.399999999999999 280.94644256185046 Z M 12.328 276.90644256185044 C 12.322666666666667 276.7891092285171, 12.318666666666665 276.67444256185047, 12.315999999999999 276.56244256185045 C 12.313333333333333 276.4504425618504, 12.311333333333334 276.3444425618504, 12.309999999999999 276.24444256185046 C 12.308666666666667 276.1444425618505, 12.309333333333335 276.0477758951838, 12.312 275.95444256185044 C 12.330666666666666 275.46644256185044, 12.447333333333333 275.1071092285171, 12.661999999999999 274.87644256185047 C 12.876666666666665 274.6457758951838, 13.213333333333331 274.5131092285171, 13.671999999999999 274.47844256185044 L 13.671999999999999 275.37044256185044 C 13.576 275.3997758951838, 13.505333333333333 275.4464425618505, 13.459999999999999 275.5104425618505 C 13.414666666666665 275.57444256185045, 13.390666666666664 275.6517758951838, 13.387999999999998 275.74244256185045 C 13.382666666666665 275.9504425618505, 13.379333333333333 276.1437758951838, 13.378 276.32244256185044 C 13.376666666666667 276.5011092285171, 13.381333333333334 276.69577589518383, 13.392 276.90644256185044 Z M 13.904 280.94644256185046 L 13.904 280.01444256185044 L 15.5 280.01444256185044 L 15.5 280.94644256185046 Z M 16.196 279.5344425618505 C 16.188000000000002 279.10510922851716, 16.182666666666666 278.6884425618505, 16.18 278.2844425618505 C 16.177333333333333 277.8804425618505, 16.177999999999997 277.48510922851716, 16.182 277.09844256185045 C 16.186 276.7117758951838, 16.190666666666665 276.3304425618505, 16.196 275.95444256185044 C 16.209333333333333 275.51444256185044, 16.334000000000003 275.16910922851713, 16.57 274.91844256185044 C 16.805999999999997 274.6677758951838, 17.142666666666663 274.5224425618504, 17.58 274.48244256185046 L 17.58 275.37044256185044 C 17.382666666666665 275.4264425618504, 17.281333333333333 275.5557758951838, 17.276 275.7584425618505 C 17.262666666666668 276.1291092285171, 17.253333333333334 276.4771092285171, 17.248 276.80244256185046 C 17.242666666666665 277.1277758951838, 17.24 277.44444256185045, 17.24 277.75244256185044 C 17.24 278.06044256185044, 17.242666666666665 278.3751092285171, 17.248 278.69644256185046 C 17.253333333333334 279.01777589518383, 17.262666666666668 279.36110922851714, 17.276 279.72644256185043 C 17.281333333333333 279.93444256185046, 17.382666666666665 280.0664425618504, 17.58 280.12244256185045 L 17.58 281.0104425618505 C 17.142666666666663 280.97044256185046, 16.805999999999997 280.82444256185045, 16.57 280.57244256185044 C 16.334000000000003 280.3204425618504, 16.209333333333333 279.9744425618505, 16.196 279.5344425618505 Z M 18.084 281.0104425618505 L 18.084 280.1184425618505 C 18.268 280.06510922851714, 18.366666666666667 279.9411092285171, 18.38 279.7464425618505 C 18.398666666666667 279.27977589518383, 18.410666666666668 278.83110922851716, 18.416 278.40044256185047 C 18.421333333333333 277.9697758951838, 18.421333333333333 277.53910922851713, 18.416 277.10844256185044 C 18.410666666666668 276.6777758951838, 18.398666666666667 276.2251092285171, 18.38 275.75044256185043 C 18.374666666666666 275.5557758951838, 18.276 275.4291092285171, 18.084 275.37044256185044 L 18.084 274.48244256185046 C 18.513333333333335 274.5224425618504, 18.846666666666668 274.6677758951838, 19.084 274.91844256185044 C 19.321333333333335 275.16910922851713, 19.445333333333334 275.51444256185044, 19.456 275.95444256185044 C 19.46666666666667 276.26910922851715, 19.474666666666668 276.57910922851715, 19.48 276.88444256185045 C 19.485333333333333 277.1897758951838, 19.488 277.49044256185044, 19.488 277.78644256185044 C 19.488 278.0824425618504, 19.485333333333333 278.3757758951838, 19.48 278.6664425618505 C 19.474666666666668 278.95710922851714, 19.46666666666667 279.2464425618505, 19.456 279.5344425618505 C 19.439999999999998 279.98510922851716, 19.311999999999998 280.3337758951838, 19.072 280.5804425618505 C 18.832 280.82710922851714, 18.502666666666666 280.97044256185046, 18.084 281.0104425618505 Z M 21.944 280.94644256185046 L 21.944 274.5464425618505 L 23.003999999999998 274.5464425618505 L 23.003999999999998 280.94644256185046 Z " stroke="none" fill-rule="nonzero" fill="#000000" fill-opacity="1" transform="matrix(1,0,0,1,5.05,13.314)" id="text20 l" />
  <path d="M 0 273.91797277436905 L 10 273.91797277436905 L 10 275.41797277436905 L 0 275.41797277436905 Z " stroke="none" fill-rule="evenodd" fill="#000000" fill-opacity="1" transform="matrix(1,0,0,1,5.05,13.314)" id="mark21 l" />
  <path d="M 0 265.8395029868876 L 10 265.8395029868876 L 10 267.3395029868876 L 0 267.3395029868876 Z " stroke="none" fill-rule="evenodd" fill="#000000" fill-opacity="1" transform="matrix(1,0,0,1,5.05,13.314)" id="mark22 l" />
  <path d="M 0 257.76103319940614 L 10 257.76103319940614 L 10 259.26103319940614 L 0 259.26103319940614 Z " stroke="none" fill-rule="evenodd" fill="#000000" fill-opacity="1" transform="matrix(1,0,0,1,5.05,13.314)" id="mark23 l" />
  <path d="M 0 249.68256341192472 L 10 249.68256341192472 L 10 251.18256341192472 L 0 251.18256341192472 Z " stroke="none" fill-rule="evenodd" fill="#000000" fill-opacity="1" transform="matrix(1,0,0,1,5.05,13.314)" id="mark24 l" />
  <path d="M 0 241.60409362444327 L 25 241.60409362444327 L 25 243.10409362444327 L 0 243.10409362444327 Z " stroke="none" fill-rule="evenodd" fill="#000000" fill-opacity="1" transform="matrix(1,0,0,1,5.05,13.314)" id="mark25 l" />
  <path d="M 12.328 240.55409362444328 C 12.325333333333333 240.45542695777664, 12.323333333333332 240.36676029110996, 12.322 240.2880936244433 C 12.320666666666666 240.20942695777663, 12.319333333333333 240.13542695777664, 12.318 240.06609362444328 C 12.316666666666666 239.99676029110992, 12.315999999999999 239.92476029110992, 12.316 239.85009362444328 C 12.315999999999999 239.77542695777663, 12.315999999999999 239.69076029110994, 12.316 239.59609362444328 C 12.315999999999999 239.50142695777663, 12.317333333333334 239.3900936244433, 12.32 239.26209362444328 C 12.328 238.96876029110996, 12.378 238.70676029110996, 12.47 238.47609362444328 C 12.562000000000001 238.2454269577766, 12.696 238.0394269577766, 12.872 237.85809362444328 C 13.048 237.67676029110996, 13.265333333333334 237.51542695777664, 13.524000000000001 237.37409362444328 L 14.056000000000001 237.0860936244433 C 14.242666666666668 236.98476029110992, 14.362000000000002 236.86276029110994, 14.414 236.72009362444328 C 14.466000000000001 236.57742695777662, 14.495999999999999 236.44342695777664, 14.504 236.3180936244433 C 14.514666666666667 236.17142695777665, 14.520666666666667 236.01476029110995, 14.522 235.8480936244433 C 14.523333333333333 235.68142695777664, 14.520000000000001 235.52476029110994, 14.512 235.3780936244433 C 14.506666666666666 235.2740936244433, 14.476666666666667 235.1880936244433, 14.422 235.12009362444329 C 14.367333333333335 235.05209362444327, 14.288 235.00342695777658, 14.184000000000001 234.97409362444327 L 14.184000000000001 234.0860936244433 C 14.672 234.1180936244433, 15.022000000000002 234.24942695777662, 15.234 234.48009362444327 C 15.446000000000002 234.71076029110995, 15.562666666666667 235.07142695777662, 15.584 235.5620936244433 C 15.586666666666668 235.62609362444329, 15.588666666666668 235.69142695777663, 15.59 235.7580936244433 C 15.591333333333335 235.82476029110995, 15.592000000000002 235.8894269577766, 15.592 235.95209362444328 C 15.592000000000002 236.01476029110995, 15.591333333333335 236.07676029110996, 15.59 236.1380936244433 C 15.588666666666668 236.1994269577766, 15.586666666666668 236.2594269577766, 15.584 236.3180936244433 C 15.573333333333332 236.6034269577766, 15.52 236.85009362444328, 15.424 237.05809362444327 C 15.328 237.26609362444327, 15.197999999999999 237.44609362444328, 15.033999999999999 237.5980936244433 C 14.87 237.7500936244433, 14.68 237.88609362444328, 14.464 238.00609362444328 L 13.86 238.33409362444328 C 13.745333333333335 238.39542695777664, 13.655333333333335 238.47942695777664, 13.59 238.5860936244433 C 13.524666666666668 238.69276029110995, 13.478000000000002 238.8060936244433, 13.45 238.9260936244433 C 13.422 239.0460936244433, 13.408 239.15809362444327, 13.408 239.26209362444328 L 13.408 240.55409362444328 Z M 12.336 236.5140936244433 C 12.330666666666666 236.39676029110996, 12.326666666666664 236.28209362444326, 12.324 236.17009362444327 C 12.321333333333332 236.05809362444327, 12.319333333333333 235.95209362444328, 12.318 235.85209362444328 C 12.316666666666666 235.7520936244433, 12.317333333333334 235.65542695777663, 12.32 235.5620936244433 C 12.338666666666668 235.0740936244433, 12.455333333333336 234.71476029110994, 12.67 234.4840936244433 C 12.884666666666668 234.25342695777664, 13.221333333333334 234.12076029110995, 13.68 234.0860936244433 L 13.68 234.9780936244433 C 13.584 235.0074269577766, 13.513333333333332 235.05409362444328, 13.468 235.11809362444328 C 13.422666666666668 235.18209362444327, 13.398666666666667 235.2594269577766, 13.396 235.35009362444328 C 13.390666666666666 235.5580936244433, 13.387333333333332 235.75142695777663, 13.386 235.9300936244433 C 13.384666666666666 236.10876029110995, 13.389333333333333 236.30342695777665, 13.4 236.5140936244433 Z M 13.911999999999999 240.55409362444328 L 13.911999999999999 239.6220936244433 L 15.508 239.6220936244433 L 15.508 240.55409362444328 Z M 16.18 239.1380936244433 C 16.174666666666667 238.96476029110994, 16.173333333333332 238.82542695777664, 16.176 238.72009362444328 C 16.178666666666665 238.61476029110997, 16.181333333333335 238.51276029110994, 16.183999999999997 238.4140936244433 L 17.264 238.4140936244433 C 17.256 238.49142695777664, 17.25 238.58742695777664, 17.246 238.70209362444328 C 17.241999999999997 238.81676029110997, 17.240666666666666 238.92742695777662, 17.241999999999997 239.03409362444327 C 17.243333333333332 239.14076029110993, 17.246666666666666 239.2207602911099, 17.252 239.27409362444328 C 17.262666666666668 239.39409362444326, 17.297333333333334 239.49209362444327, 17.355999999999998 239.5680936244433 C 17.414666666666665 239.64409362444326, 17.497333333333334 239.69809362444326, 17.604 239.73009362444327 L 17.604 240.6220936244433 C 17.110666666666663 240.58476029110994, 16.75333333333333 240.45009362444327, 16.532 240.21809362444327 C 16.310666666666666 239.98609362444327, 16.19333333333333 239.62609362444329, 16.18 239.1380936244433 Z M 16.279999999999998 237.80209362444327 L 16.279999999999998 234.15409362444328 L 17.348 234.15409362444328 L 17.348 237.80209362444327 Z M 17.852 237.3780936244433 L 17.852 236.6220936244433 C 17.929333333333332 236.5820936244433, 18.014666666666667 236.55009362444326, 18.107999999999997 236.5260936244433 C 18.20133333333333 236.50209362444326, 18.301333333333332 236.49009362444326, 18.407999999999998 236.4900936244433 C 18.773333333333333 236.49009362444326, 19.047333333333334 236.60542695777661, 19.23 236.8360936244433 C 19.412666666666667 237.06676029110994, 19.514666666666663 237.38076029110994, 19.535999999999998 237.77809362444327 C 19.546666666666667 237.93809362444327, 19.55333333333333 238.09676029110994, 19.555999999999997 238.25409362444327 C 19.558666666666664 238.4114269577766, 19.557333333333332 238.56476029110996, 19.552 238.71409362444328 C 19.546666666666667 238.8634269577766, 19.538666666666668 239.00342695777664, 19.528 239.1340936244433 C 19.482666666666667 239.63276029110995, 19.353333333333335 239.9980936244433, 19.14 240.23009362444327 C 18.926666666666666 240.4620936244433, 18.581333333333333 240.59276029110995, 18.104 240.6220936244433 L 18.104 239.73009362444327 C 18.21333333333333 239.70076029110996, 18.296 239.64809362444328, 18.352 239.57209362444328 C 18.408 239.4960936244433, 18.44 239.39676029110996, 18.448 239.27409362444328 C 18.471999999999998 238.9834269577766, 18.485999999999997 238.7220936244433, 18.49 238.4900936244433 C 18.494 238.2580936244433, 18.485333333333333 238.03676029110994, 18.464 237.82609362444327 C 18.447999999999997 237.6714269577766, 18.396666666666665 237.55609362444326, 18.31 237.48009362444327 C 18.223333333333333 237.40409362444328, 18.090666666666664 237.3660936244433, 17.912 237.3660936244433 C 17.901333333333334 237.3660936244433, 17.890666666666668 237.36742695777662, 17.88 237.37009362444329 C 17.86933333333333 237.37276029110996, 17.86 237.37542695777663, 17.852 237.3780936244433 Z M 17.852 235.0860936244433 L 17.852 234.15409362444328 L 19.439999999999998 234.15409362444328 L 19.439999999999998 235.0860936244433 Z M 21.944 240.55409362444328 L 21.944 234.15409362444328 L 23.003999999999998 234.15409362444328 L 23.003999999999998 240.55409362444328 Z " stroke="none" fill-rule="nonzero" fill="#000000" fill-opacity="1" transform="matrix(1,0,0,1,5.05,13.314)" id="text25 l" />
  <path d="M 0 233.52562383696184 L 10 233.52562383696184 L 10 235.02562383696184 L 0 235.02562383696184 Z " stroke="none" fill-rule="evenodd" fill="#000000" fill-opacity="1" transform="matrix(1,0,0,1,5.05,13.314)" id="mark26 l" />
  <path d="M 0 225.4471540494804 L 10 225.4471540494804 L 10 226.9471540494804 L 0 226.9471540494804 Z " stroke="none" fill-rule="evenodd" fill="#000000" fill-opacity="1" transform="matrix(1,0,0,1,5.05,13.314)" id="mark27 l" />
  <path d="M 0 217.36868426199894 L 10 217.36868426199894 L 10 218.86868426199894 L 0 218.86868426199894 Z " stroke="none" fill-rule="evenodd" fill="#000000" fill-opacity="1" transform="matrix(1,0,0,1,5.05,13.314)" id="mark28 l" />
  <path d="M 0 209.2902144745175 L 10 209.2902144745175 L 10 210.7902144745175 L 0 210.7902144745175 Z " stroke="none" fill-rule="evenodd" fill="#000000" fill-opacity="1" transform="matrix(1,0,0,1,5.05,13.314)" id="mark29 l" />
  <path d="M 0 201.21174468703606 L 25 201.21174468703606 L 25 202.71174468703606 L 0 202.71174468703606 Z " stroke="none" fill-rule="evenodd" fill="#000000" fill-opacity="1" transform="matrix(1,0,0,1,5.05,13.314)" id="mark30 l" />
  <path d="M 12.223999999999998 198.74574468703608 C 12.221333333333334 198.64441135370276, 12.219333333333333 198.56041135370276, 12.218 198.49374468703607 C 12.216666666666667 198.42707802036944, 12.216666666666667 198.35907802036942, 12.218 198.2897446870361 C 12.219333333333333 198.22041135370276, 12.221333333333334 198.13107802036944, 12.223999999999998 198.0217446870361 L 13.303999999999998 198.0217446870361 L 13.303999999999998 198.88574468703607 C 13.303999999999998 199.1230780203694, 13.417333333333332 199.27374468703607, 13.643999999999998 199.33774468703606 L 13.643999999999998 200.2297446870361 C 13.155999999999999 200.19241135370277, 12.800666666666665 200.05774468703606, 12.578 199.82574468703606 C 12.355333333333334 199.59374468703606, 12.237333333333332 199.2337446870361, 12.223999999999998 198.74574468703608 Z M 12.292 194.6937446870361 L 12.292 193.76174468703607 L 15.536 193.76174468703607 L 15.536 194.6937446870361 Z M 14.143999999999998 199.34174468703608 C 14.367999999999999 199.28574468703607, 14.483999999999998 199.1350780203694, 14.491999999999999 198.88974468703609 C 14.497333333333334 198.68707802036943, 14.500666666666666 198.50441135370272, 14.501999999999999 198.34174468703608 C 14.503333333333332 198.1790780203694, 14.498666666666665 198.02174468703606, 14.488 197.86974468703607 C 14.48 197.71241135370275, 14.431999999999999 197.57907802036942, 14.344 197.46974468703607 C 14.256 197.36041135370274, 14.089333333333332 197.30841135370275, 13.844 197.31374468703606 L 13.096 197.32174468703607 L 13.068 196.42974468703608 L 14.027999999999999 195.04574468703606 L 15.216 195.04574468703606 L 14.248 196.39774468703607 L 14.28 196.39774468703607 C 14.712 196.3977446870361, 15.028666666666666 196.52041135370274, 15.229999999999999 196.7657446870361 C 15.431333333333333 197.01107802036944, 15.544 197.38841135370274, 15.568 197.89774468703607 C 15.57333333333333 197.9697446870361, 15.576666666666664 198.0417446870361, 15.578 198.11374468703607 C 15.57933333333333 198.1857446870361, 15.579999999999998 198.25641135370273, 15.579999999999998 198.32574468703606 C 15.579999999999998 198.3950780203694, 15.57933333333333 198.46441135370276, 15.578 198.53374468703606 C 15.576666666666664 198.60307802036942, 15.57333333333333 198.6737446870361, 15.568 198.74574468703608 C 15.549333333333333 199.2417446870361, 15.428666666666665 199.60641135370275, 15.206 199.83974468703607 C 14.983333333333334 200.0730780203694, 14.630666666666666 200.2030780203694, 14.148 200.2297446870361 Z M 16.196 198.74974468703607 C 16.188000000000002 198.32041135370275, 16.182666666666666 197.90374468703607, 16.18 197.49974468703607 C 16.177333333333333 197.09574468703607, 16.177999999999997 196.70041135370275, 16.182 196.31374468703606 C 16.186 195.9270780203694, 16.190666666666665 195.54574468703606, 16.196 195.1697446870361 C 16.209333333333333 194.7297446870361, 16.334000000000003 194.38441135370275, 16.57 194.13374468703608 C 16.805999999999997 193.88307802036942, 17.142666666666663 193.73774468703607, 17.58 193.69774468703608 L 17.58 194.58574468703608 C 17.382666666666665 194.6417446870361, 17.281333333333333 194.77107802036943, 17.276 194.9737446870361 C 17.262666666666668 195.34441135370275, 17.253333333333334 195.69241135370277, 17.248 196.01774468703607 C 17.242666666666665 196.34307802036943, 17.24 196.6597446870361, 17.24 196.9677446870361 C 17.24 197.27574468703608, 17.242666666666665 197.59041135370273, 17.248 197.91174468703608 C 17.253333333333334 198.23307802036942, 17.262666666666668 198.57641135370275, 17.276 198.94174468703608 C 17.281333333333333 199.14974468703608, 17.382666666666665 199.28174468703605, 17.58 199.33774468703606 L 17.58 200.22574468703607 C 17.142666666666663 200.18574468703608, 16.805999999999997 200.0397446870361, 16.57 199.78774468703608 C 16.334000000000003 199.53574468703607, 16.209333333333333 199.18974468703607, 16.196 198.74974468703607 Z M 18.084 200.22574468703607 L 18.084 199.33374468703607 C 18.268 199.28041135370273, 18.366666666666667 199.15641135370277, 18.38 198.9617446870361 C 18.398666666666667 198.49507802036942, 18.410666666666668 198.04641135370275, 18.416 197.61574468703608 C 18.421333333333333 197.18507802036942, 18.421333333333333 196.75441135370272, 18.416 196.32374468703608 C 18.410666666666668 195.8930780203694, 18.398666666666667 195.44041135370273, 18.38 194.96574468703608 C 18.374666666666666 194.7710780203694, 18.276 194.64441135370274, 18.084 194.58574468703608 L 18.084 193.69774468703608 C 18.513333333333335 193.73774468703607, 18.846666666666668 193.88307802036942, 19.084 194.13374468703608 C 19.321333333333335 194.38441135370275, 19.445333333333334 194.7297446870361, 19.456 195.1697446870361 C 19.46666666666667 195.48441135370274, 19.474666666666668 195.79441135370274, 19.48 196.09974468703606 C 19.485333333333333 196.4050780203694, 19.488 196.7057446870361, 19.488 197.00174468703608 C 19.488 197.29774468703607, 19.485333333333333 197.59107802036942, 19.48 197.88174468703608 C 19.474666666666668 198.17241135370273, 19.46666666666667 198.46174468703606, 19.456 198.74974468703607 C 19.439999999999998 199.20041135370275, 19.311999999999998 199.5490780203694, 19.072 199.79574468703606 C 18.832 200.04241135370273, 18.502666666666666 200.18574468703608, 18.084 200.22574468703607 Z M 21.944 200.16174468703608 L 21.944 193.76174468703607 L 23.003999999999998 193.76174468703607 L 23.003999999999998 200.16174468703608 Z " stroke="none" fill-rule="nonzero" fill="#000000" fill-opacity="1" transform="matrix(1,0,0,1,5.05,13.314)" id="text30 l" />
  <path d="M 0 193.1332748995546 L 10 193.1332748995546 L 10 194.6332748995546 L 0 194.6332748995546 Z " stroke="none" fill-rule="evenodd" fill="#000000" fill-opacity="1" transform="matrix(1,0,0,1,5.05,13.314)" id="mark31 l" />
  <path d="M 0 185.05480511207315 L 10 185.05480511207315 L 10 186.55480511207315 L 0 186.55480511207315 Z " stroke="none" fill-rule="evenodd" fill="#000000" fill-opacity="1" transform="matrix(1,0,0,1,5.05,13.314)" id="mark32 l" />
  <path d="M 0 176.97633532459173 L 10 176.97633532459173 L 10 178.47633532459173 L 0 178.47633532459173 Z " stroke="none" fill-rule="evenodd" fill="#000000" fill-opacity="1" transform="matrix(1,0,0,1,5.05,13.314)" id="mark33 l" />
  <path d="M 0 168.8978655371103 L 10 168.8978655371103 L 10 170.3978655371103 L 0 170.3978655371103 Z " stroke="none" fill-rule="evenodd" fill="#000000" fill-opacity="1" transform="matrix(1,0,0,1,5.05,13.314)" id="mark34 l" />
  <path d="M 0 160.81939574962882 L 25 160.81939574962882 L 25 162.31939574962882 L 0 162.31939574962882 Z " stroke="none" fill-rule="evenodd" fill="#000000" fill-opacity="1" transform="matrix(1,0,0,1,5.05,13.314)" id="mark35 l" />
  <path d="M 12.232 158.32139574962883 C 12.229333333333333 158.2200624162955, 12.227333333333334 158.1360624162955, 12.226 158.06939574962882 C 12.224666666666668 158.00272908296216, 12.224666666666668 157.93472908296215, 12.226 157.86539574962882 C 12.227333333333334 157.79606241629548, 12.229333333333333 157.70672908296217, 12.232 157.59739574962884 L 13.312 157.59739574962884 L 13.312 158.46139574962882 C 13.312 158.69872908296216, 13.425333333333333 158.84939574962883, 13.652 158.91339574962882 L 13.652 159.80539574962884 C 13.164 159.7680624162955, 12.808666666666667 159.63339574962882, 12.586 159.40139574962882 C 12.363333333333333 159.16939574962882, 12.245333333333335 158.80939574962883, 12.232 158.32139574962883 Z M 12.3 154.26939574962884 L 12.3 153.33739574962883 L 15.544 153.33739574962883 L 15.544 154.26939574962884 Z M 14.152000000000001 158.91739574962884 C 14.376000000000001 158.86139574962885, 14.492 158.7107290829622, 14.5 158.46539574962884 C 14.505333333333333 158.26272908296215, 14.508666666666667 158.0800624162955, 14.51 157.91739574962884 C 14.511333333333333 157.75472908296217, 14.506666666666668 157.59739574962884, 14.496 157.44539574962883 C 14.488 157.2880624162955, 14.440000000000001 157.15472908296218, 14.352 157.04539574962882 C 14.264 156.9360624162955, 14.097333333333335 156.8840624162955, 13.852 156.88939574962882 L 13.104 156.89739574962883 L 13.076 156.00539574962883 L 14.036 154.62139574962885 L 15.224 154.62139574962885 L 14.256 155.97339574962882 L 14.288 155.97339574962882 C 14.719999999999999 155.97339574962882, 15.036666666666665 156.0960624162955, 15.238 156.34139574962884 C 15.439333333333334 156.58672908296217, 15.552 156.96406241629552, 15.576 157.47339574962882 C 15.581333333333333 157.54539574962882, 15.584666666666667 157.61739574962883, 15.586 157.68939574962883 C 15.587333333333333 157.76139574962883, 15.588000000000001 157.83206241629549, 15.588000000000001 157.90139574962882 C 15.588000000000001 157.97072908296215, 15.587333333333333 158.0400624162955, 15.586 158.10939574962885 C 15.584666666666667 158.17872908296218, 15.581333333333333 158.24939574962883, 15.576 158.32139574962883 C 15.557333333333334 158.81739574962882, 15.436666666666667 159.18206241629548, 15.214 159.41539574962883 C 14.991333333333333 159.64872908296218, 14.638666666666666 159.77872908296217, 14.156 159.80539574962884 Z M 16.18 158.32139574962883 C 16.174666666666667 158.1480624162955, 16.173333333333332 158.00872908296216, 16.176 157.90339574962883 C 16.178666666666665 157.7980624162955, 16.181333333333335 157.6960624162955, 16.183999999999997 157.59739574962884 L 17.264 157.59739574962884 C 17.256 157.6747290829622, 17.25 157.77072908296216, 17.246 157.88539574962883 C 17.241999999999997 158.0000624162955, 17.240666666666666 158.11072908296217, 17.241999999999997 158.21739574962882 C 17.243333333333332 158.32406241629548, 17.246666666666666 158.4040624162955, 17.252 158.45739574962883 C 17.262666666666668 158.57739574962883, 17.297333333333334 158.67539574962885, 17.355999999999998 158.75139574962884 C 17.414666666666665 158.82739574962883, 17.497333333333334 158.8813957496288, 17.604 158.91339574962882 L 17.604 159.80539574962884 C 17.110666666666663 159.7680624162955, 16.75333333333333 159.63339574962882, 16.532 159.40139574962882 C 16.310666666666666 159.16939574962882, 16.19333333333333 158.80939574962883, 16.18 158.32139574962883 Z M 16.279999999999998 156.98539574962882 L 16.279999999999998 153.33739574962883 L 17.348 153.33739574962883 L 17.348 156.98539574962882 Z M 17.852 156.56139574962884 L 17.852 155.80539574962884 C 17.929333333333332 155.76539574962885, 18.014666666666667 155.73339574962884, 18.107999999999997 155.70939574962884 C 18.20133333333333 155.68539574962884, 18.301333333333332 155.67339574962884, 18.407999999999998 155.67339574962884 C 18.773333333333333 155.67339574962884, 19.047333333333334 155.78872908296216, 19.23 156.01939574962884 C 19.412666666666667 156.2500624162955, 19.514666666666663 156.56406241629549, 19.535999999999998 156.96139574962882 C 19.546666666666667 157.12139574962882, 19.55333333333333 157.2800624162955, 19.555999999999997 157.43739574962882 C 19.558666666666664 157.59472908296215, 19.557333333333332 157.7480624162955, 19.552 157.89739574962883 C 19.546666666666667 158.04672908296214, 19.538666666666668 158.18672908296216, 19.528 158.31739574962884 C 19.482666666666667 158.8160624162955, 19.353333333333335 159.18139574962882, 19.14 159.41339574962882 C 18.926666666666666 159.64539574962882, 18.581333333333333 159.7760624162955, 18.104 159.80539574962884 L 18.104 158.91339574962882 C 18.21333333333333 158.8840624162955, 18.296 158.83139574962883, 18.352 158.75539574962883 C 18.408 158.67939574962884, 18.44 158.5800624162955, 18.448 158.45739574962883 C 18.471999999999998 158.16672908296215, 18.485999999999997 157.90539574962884, 18.49 157.67339574962884 C 18.494 157.44139574962884, 18.485333333333333 157.2200624162955, 18.464 157.00939574962882 C 18.447999999999997 156.85472908296217, 18.396666666666665 156.7393957496288, 18.31 156.66339574962882 C 18.223333333333333 156.58739574962883, 18.090666666666664 156.54939574962884, 17.912 156.54939574962884 C 17.901333333333334 156.54939574962884, 17.890666666666668 156.55072908296216, 17.88 156.55339574962883 C 17.86933333333333 156.5560624162955, 17.86 156.55872908296217, 17.852 156.56139574962884 Z M 17.852 154.26939574962884 L 17.852 153.33739574962883 L 19.439999999999998 153.33739574962883 L 19.439999999999998 154.26939574962884 Z M 21.944 159.73739574962883 L 21.944 153.33739574962883 L 23.003999999999998 153.33739574962883 L 23.003999999999998 159.73739574962883 Z " stroke="none" fill-rule="nonzero" fill="#000000" fill-opacity="1" transform="matrix(1,0,0,1,5.05,13.314)" id="text35 l" />
  <path d="M 0 152.7409259621474 L 10 152.7409259621474 L 10 154.2409259621474 L 0 154.2409259621474 Z " stroke="none" fill-rule="evenodd" fill="#000000" fill-opacity="1" transform="matrix(1,0,0,1,5.05,13.314)" id="mark36 l" />
  <path d="M 0 144.66245617466598 L 10 144.66245617466598 L 10 146.16245617466598 L 0 146.16245617466598 Z " stroke="none" fill-rule="evenodd" fill="#000000" fill-opacity="1" transform="matrix(1,0,0,1,5.05,13.314)" id="mark37 l" />
  <path d="M 0 136.5839863871845 L 10 136.5839863871845 L 10 138.0839863871845 L 0 138.0839863871845 Z " stroke="none" fill-rule="evenodd" fill="#000000" fill-opacity="1" transform="matrix(1,0,0,1,5.05,13.314)" id="mark38 l" />
  <path d="M 0 128.50551659970307 L 10 128.50551659970307 L 10 130.00551659970307 L 0 130.00551659970307 Z " stroke="none" fill-rule="evenodd" fill="#000000" fill-opacity="1" transform="matrix(1,0,0,1,5.05,13.314)" id="mark39 l" />
  <path d="M 0 120.42704681222165 L 25 120.42704681222165 L 25 121.92704681222165 L 0 121.92704681222165 Z " stroke="none" fill-rule="evenodd" fill="#000000" fill-opacity="1" transform="matrix(1,0,0,1,5.05,13.314)" id="mark40 l" />
  <path d="M 11.739999999999998 117.69304681222165 L 11.739999999999998 116.81704681222165 L 12.455999999999998 114.93704681222165 L 13.495999999999999 114.93704681222165 L 12.771999999999998 116.76904681222165 L 13.171999999999997 116.76904681222165 L 13.171999999999997 117.69304681222165 Z M 13.675999999999998 119.37704681222165 L 13.675999999999998 112.97704681222164 L 14.683999999999997 112.97704681222164 L 14.683999999999997 119.37704681222165 Z M 15.187999999999999 117.69304681222165 L 15.187999999999999 116.76904681222165 L 15.655999999999999 116.76904681222165 L 15.655999999999999 117.69304681222165 Z M 16.195999999999998 117.96504681222164 C 16.188 117.53571347888831, 16.182666666666666 117.11904681222165, 16.18 116.71504681222164 C 16.177333333333333 116.31104681222165, 16.177999999999997 115.9157134788883, 16.182 115.52904681222165 C 16.186 115.142380145555, 16.190666666666665 114.76104681222165, 16.195999999999998 114.38504681222165 C 16.20933333333333 113.94504681222165, 16.333999999999996 113.59971347888832, 16.569999999999997 113.34904681222164 C 16.805999999999997 113.09838014555498, 17.142666666666663 112.95304681222166, 17.58 112.91304681222165 L 17.58 113.80104681222166 C 17.382666666666665 113.85704681222165, 17.281333333333333 113.98638014555497, 17.275999999999996 114.18904681222165 C 17.262666666666664 114.55971347888831, 17.25333333333333 114.90771347888831, 17.247999999999998 115.23304681222164 C 17.242666666666665 115.55838014555498, 17.24 115.87504681222165, 17.24 116.18304681222165 C 17.24 116.49104681222164, 17.242666666666665 116.80571347888832, 17.247999999999998 117.12704681222165 C 17.25333333333333 117.44838014555498, 17.262666666666664 117.79171347888831, 17.275999999999996 118.15704681222165 C 17.281333333333333 118.36504681222166, 17.382666666666665 118.49704681222165, 17.58 118.55304681222165 L 17.58 119.44104681222164 C 17.142666666666663 119.40104681222167, 16.805999999999997 119.25504681222165, 16.569999999999997 119.00304681222165 C 16.333999999999996 118.75104681222166, 16.20933333333333 118.40504681222166, 16.195999999999998 117.96504681222164 Z M 18.084 119.44104681222164 L 18.084 118.54904681222165 C 18.268 118.49571347888832, 18.366666666666667 118.37171347888832, 18.38 118.17704681222165 C 18.398666666666664 117.71038014555498, 18.410666666666664 117.26171347888831, 18.415999999999997 116.83104681222164 C 18.42133333333333 116.40038014555498, 18.42133333333333 115.96971347888832, 18.415999999999997 115.53904681222166 C 18.410666666666664 115.10838014555499, 18.398666666666664 114.65571347888832, 18.38 114.18104681222165 C 18.374666666666666 113.98638014555499, 18.276 113.85971347888832, 18.084 113.80104681222166 L 18.084 112.91304681222165 C 18.513333333333332 112.95304681222166, 18.846666666666664 113.09838014555498, 19.083999999999996 113.34904681222164 C 19.32133333333333 113.59971347888832, 19.44533333333333 113.94504681222165, 19.456 114.38504681222165 C 19.466666666666665 114.69971347888833, 19.474666666666664 115.00971347888833, 19.479999999999997 115.31504681222165 C 19.48533333333333 115.62038014555498, 19.488 115.92104681222165, 19.488 116.21704681222165 C 19.488 116.51304681222166, 19.48533333333333 116.80638014555498, 19.479999999999997 117.09704681222165 C 19.474666666666664 117.38771347888832, 19.466666666666665 117.67704681222165, 19.456 117.96504681222164 C 19.439999999999998 118.4157134788883, 19.311999999999998 118.76438014555498, 19.072 119.01104681222165 C 18.831999999999997 119.25771347888832, 18.502666666666663 119.40104681222167, 18.084 119.44104681222164 Z M 21.944 119.37704681222165 L 21.944 112.97704681222164 L 23.003999999999998 112.97704681222164 L 23.003999999999998 119.37704681222165 Z " stroke="none" fill-rule="nonzero" fill="#000000" fill-opacity="1" transform="matrix(1,0,0,1,5.05,13.314)" id="text40 l" />
  <path d="M 0 112.34857702474017 L 10 112.34857702474017 L 10 113.84857702474017 L 0 113.84857702474017 Z " stroke="none" fill-rule="evenodd" fill="#000000" fill-opacity="1" transform="matrix(1,0,0,1,5.05,13.314)" id="mark41 l" />
  <path d="M 0 104.27010723725874 L 10 104.27010723725874 L 10 105.77010723725874 L 0 105.77010723725874 Z " stroke="none" fill-rule="evenodd" fill="#000000" fill-opacity="1" transform="matrix(1,0,0,1,5.05,13.314)" id="mark42 l" />
  <path d="M 0 96.19163744977732 L 10 96.19163744977732 L 10 97.69163744977732 L 0 97.69163744977732 Z " stroke="none" fill-rule="evenodd" fill="#000000" fill-opacity="1" transform="matrix(1,0,0,1,5.05,13.314)" id="mark43 l" />
  <path d="M 0 88.11316766229584 L 10 88.11316766229584 L 10 89.61316766229584 L 0 89.61316766229584 Z " stroke="none" fill-rule="evenodd" fill="#000000" fill-opacity="1" transform="matrix(1,0,0,1,5.05,13.314)" id="mark44 l" />
  <path d="M 0 80.03469787481441 L 25 80.03469787481441 L 25 81.53469787481441 L 0 81.53469787481441 Z " stroke="none" fill-rule="evenodd" fill="#000000" fill-opacity="1" transform="matrix(1,0,0,1,5.05,13.314)" id="mark45 l" />
  <path d="M 11.748 77.26869787481442 L 11.748 76.39269787481442 L 12.463999999999999 74.51269787481442 L 13.503999999999998 74.51269787481442 L 12.78 76.34469787481441 L 13.18 76.34469787481441 L 13.18 77.26869787481442 Z M 13.684 78.95269787481442 L 13.684 72.55269787481441 L 14.691999999999998 72.55269787481441 L 14.691999999999998 78.95269787481442 Z M 15.195999999999998 77.26869787481442 L 15.195999999999998 76.34469787481441 L 15.663999999999998 76.34469787481441 L 15.663999999999998 77.26869787481442 Z M 16.18 77.53669787481442 C 16.174666666666667 77.36336454148109, 16.173333333333332 77.22403120814775, 16.176 77.11869787481442 C 16.178666666666665 77.01336454148108, 16.181333333333335 76.91136454148108, 16.183999999999997 76.81269787481442 L 17.264 76.81269787481442 C 17.256 76.89003120814775, 17.25 76.98603120814775, 17.246 77.10069787481441 C 17.241999999999997 77.21536454148108, 17.240666666666666 77.32603120814775, 17.241999999999997 77.43269787481442 C 17.243333333333332 77.53936454148109, 17.246666666666666 77.61936454148109, 17.252 77.67269787481442 C 17.262666666666668 77.79269787481442, 17.297333333333334 77.89069787481442, 17.355999999999998 77.96669787481441 C 17.414666666666665 78.04269787481442, 17.497333333333334 78.09669787481442, 17.604 78.12869787481442 L 17.604 79.02069787481442 C 17.110666666666663 78.98336454148108, 16.75333333333333 78.84869787481442, 16.532 78.61669787481442 C 16.310666666666666 78.38469787481442, 16.19333333333333 78.02469787481442, 16.18 77.53669787481442 Z M 16.279999999999998 76.20069787481442 L 16.279999999999998 72.55269787481441 L 17.348 72.55269787481441 L 17.348 76.20069787481442 Z M 17.852 75.77669787481442 L 17.852 75.02069787481442 C 17.929333333333332 74.98069787481441, 18.014666666666667 74.94869787481441, 18.107999999999997 74.92469787481441 C 18.20133333333333 74.90069787481443, 18.301333333333332 74.88869787481443, 18.407999999999998 74.88869787481443 C 18.773333333333333 74.88869787481443, 19.047333333333334 75.00403120814775, 19.23 75.23469787481442 C 19.412666666666667 75.46536454148108, 19.514666666666663 75.77936454148109, 19.535999999999998 76.17669787481442 C 19.546666666666667 76.33669787481442, 19.55333333333333 76.49536454148108, 19.555999999999997 76.65269787481442 C 19.558666666666664 76.81003120814776, 19.557333333333332 76.96336454148108, 19.552 77.11269787481442 C 19.546666666666667 77.26203120814775, 19.538666666666668 77.40203120814775, 19.528 77.53269787481442 C 19.482666666666667 78.03136454148108, 19.353333333333335 78.39669787481442, 19.14 78.62869787481442 C 18.926666666666666 78.86069787481442, 18.581333333333333 78.99136454148109, 18.104 79.02069787481442 L 18.104 78.12869787481442 C 18.21333333333333 78.0993645414811, 18.296 78.04669787481443, 18.352 77.97069787481442 C 18.408 77.89469787481441, 18.44 77.79536454148108, 18.448 77.67269787481442 C 18.471999999999998 77.38203120814775, 18.485999999999997 77.12069787481443, 18.49 76.88869787481443 C 18.494 76.65669787481441, 18.485333333333333 76.43536454148108, 18.464 76.22469787481442 C 18.447999999999997 76.07003120814775, 18.396666666666665 75.95469787481443, 18.31 75.87869787481442 C 18.223333333333333 75.80269787481441, 18.090666666666664 75.76469787481442, 17.912 75.76469787481442 C 17.901333333333334 75.76469787481442, 17.890666666666668 75.76603120814775, 17.88 75.76869787481442 C 17.86933333333333 75.77136454148108, 17.86 75.77403120814775, 17.852 75.77669787481442 Z M 17.852 73.48469787481442 L 17.852 72.55269787481441 L 19.439999999999998 72.55269787481441 L 19.439999999999998 73.48469787481442 Z M 21.944 78.95269787481442 L 21.944 72.55269787481441 L 23.003999999999998 72.55269787481441 L 23.003999999999998 78.95269787481442 Z " stroke="none" fill-rule="nonzero" fill="#000000" fill-opacity="1" transform="matrix(1,0,0,1,5.05,13.314)" id="text45 l" />
  <path d="M 0 71.95622808733299 L 10 71.95622808733299 L 10 73.45622808733299 L 0 73.45622808733299 Z " stroke="none" fill-rule="evenodd" fill="#000000" fill-opacity="1" transform="matrix(1,0,0,1,5.05,13.314)" id="mark46 l" />
  <path d="M 0 63.87775829985151 L 10 63.87775829985151 L 10 65.37775829985151 L 0 65.37775829985151 Z " stroke="none" fill-rule="evenodd" fill="#000000" fill-opacity="1" transform="matrix(1,0,0,1,5.05,13.314)" id="mark47 l" />
  <path d="M 0 55.79928851237008 L 10 55.79928851237008 L 10 57.29928851237008 L 0 57.29928851237008 Z " stroke="none" fill-rule="evenodd" fill="#000000" fill-opacity="1" transform="matrix(1,0,0,1,5.05,13.314)" id="mark48 l" />
  <path d="M 0 47.72081872488866 L 10 47.72081872488866 L 10 49.22081872488866 L 0 49.22081872488866 Z " stroke="none" fill-rule="evenodd" fill="#000000" fill-opacity="1" transform="matrix(1,0,0,1,5.05,13.314)" id="mark49 l" />
  <path d="M 0 39.64234893740718 L 25 39.64234893740718 L 25 41.14234893740718 L 0 41.14234893740718 Z " stroke="none" fill-rule="evenodd" fill="#000000" fill-opacity="1" transform="matrix(1,0,0,1,5.05,13.314)" id="mark50 l" />
  <path d="M 12.204 37.176348937407184 C 12.198666666666668 37.003015604073845, 12.197333333333333 36.86368227074051, 12.2 36.75834893740718 C 12.202666666666667 36.65301560407385, 12.205333333333336 36.551015604073854, 12.208 36.45234893740718 L 13.288 36.45234893740718 C 13.280000000000001 36.52968227074051, 13.274000000000001 36.62568227074051, 13.27 36.740348937407184 C 13.265999999999998 36.85501560407385, 13.264666666666667 36.965682270740515, 13.266 37.07234893740718 C 13.267333333333333 37.17901560407385, 13.270666666666667 37.259015604073845, 13.276 37.31234893740718 C 13.286666666666665 37.43234893740718, 13.321333333333332 37.53034893740718, 13.379999999999999 37.60634893740718 C 13.438666666666666 37.682348937407184, 13.521333333333335 37.73634893740718, 13.628 37.76834893740718 L 13.628 38.66034893740718 C 13.134666666666668 38.62301560407385, 12.777333333333335 38.48834893740718, 12.556 38.25634893740718 C 12.334666666666667 38.02434893740718, 12.217333333333332 37.66434893740718, 12.204 37.176348937407184 Z M 12.304 35.84034893740718 L 12.304 32.19234893740718 L 13.372 32.19234893740718 L 13.372 35.84034893740718 Z M 13.876 35.41634893740718 L 13.876 34.66034893740718 C 13.953333333333333 34.62034893740718, 14.038666666666668 34.58834893740718, 14.132 34.56434893740718 C 14.225333333333333 34.54034893740718, 14.325333333333333 34.52834893740718, 14.432 34.52834893740718 C 14.797333333333334 34.52834893740718, 15.071333333333332 34.64368227074051, 15.254 34.87434893740718 C 15.436666666666667 35.10501560407385, 15.538666666666668 35.41901560407385, 15.56 35.816348937407184 C 15.570666666666668 35.97634893740718, 15.577333333333334 36.13501560407385, 15.58 36.29234893740718 C 15.582666666666666 36.44968227074052, 15.581333333333333 36.603015604073846, 15.576 36.75234893740718 C 15.570666666666666 36.901682270740515, 15.562666666666665 37.041682270740516, 15.552 37.17234893740718 C 15.506666666666668 37.67101560407385, 15.377333333333333 38.03634893740718, 15.164 38.26834893740718 C 14.950666666666667 38.50034893740718, 14.605333333333332 38.631015604073845, 14.128 38.66034893740718 L 14.128 37.76834893740718 C 14.237333333333334 37.73901560407385, 14.32 37.68634893740718, 14.376 37.61034893740718 C 14.432 37.53434893740718, 14.464 37.43501560407385, 14.472 37.31234893740718 C 14.495999999999999 37.02168227074051, 14.509999999999998 36.76034893740718, 14.514 36.52834893740718 C 14.518 36.29634893740718, 14.509333333333334 36.07501560407385, 14.488 35.86434893740718 C 14.472000000000001 35.709682270740515, 14.420666666666666 35.59434893740718, 14.334 35.51834893740718 C 14.247333333333334 35.44234893740718, 14.114666666666666 35.40434893740718, 13.936 35.40434893740718 C 13.925333333333333 35.40434893740718, 13.914666666666665 35.40568227074051, 13.904 35.40834893740718 C 13.893333333333334 35.41101560407385, 13.884 35.413682270740516, 13.876 35.41634893740718 Z M 13.876 33.12434893740718 L 13.876 32.19234893740718 L 15.464 32.19234893740718 L 15.464 33.12434893740718 Z M 16.196 37.18034893740718 C 16.188000000000002 36.75101560407385, 16.182666666666666 36.334348937407185, 16.18 35.93034893740718 C 16.177333333333333 35.52634893740718, 16.177999999999997 35.13101560407385, 16.182 34.74434893740718 C 16.186 34.35768227074051, 16.190666666666665 33.97634893740718, 16.196 33.60034893740718 C 16.209333333333333 33.16034893740718, 16.334000000000003 32.81501560407385, 16.57 32.56434893740718 C 16.805999999999997 32.313682270740514, 17.142666666666663 32.16834893740719, 17.58 32.12834893740718 L 17.58 33.01634893740718 C 17.382666666666665 33.072348937407185, 17.281333333333333 33.20168227074051, 17.276 33.40434893740718 C 17.262666666666668 33.77501560407385, 17.253333333333334 34.12301560407385, 17.248 34.44834893740718 C 17.242666666666665 34.773682270740515, 17.24 35.09034893740718, 17.24 35.39834893740718 C 17.24 35.70634893740718, 17.242666666666665 36.021015604073845, 17.248 36.34234893740718 C 17.253333333333334 36.663682270740516, 17.262666666666668 37.00701560407385, 17.276 37.37234893740718 C 17.281333333333333 37.58034893740718, 17.382666666666665 37.71234893740718, 17.58 37.76834893740718 L 17.58 38.65634893740718 C 17.142666666666663 38.61634893740718, 16.805999999999997 38.47034893740718, 16.57 38.21834893740718 C 16.334000000000003 37.966348937407176, 16.209333333333333 37.62034893740718, 16.196 37.18034893740718 Z M 18.084 38.65634893740718 L 18.084 37.76434893740718 C 18.268 37.71101560407384, 18.366666666666667 37.58701560407384, 18.38 37.39234893740718 C 18.398666666666667 36.92568227074051, 18.410666666666668 36.47701560407385, 18.416 36.04634893740718 C 18.421333333333333 35.615682270740514, 18.421333333333333 35.18501560407385, 18.416 34.75434893740718 C 18.410666666666668 34.32368227074051, 18.398666666666667 33.87101560407385, 18.38 33.39634893740718 C 18.374666666666666 33.20168227074051, 18.276 33.07501560407385, 18.084 33.01634893740718 L 18.084 32.12834893740718 C 18.513333333333335 32.16834893740719, 18.846666666666668 32.313682270740514, 19.084 32.56434893740718 C 19.321333333333335 32.81501560407385, 19.445333333333334 33.16034893740718, 19.456 33.60034893740718 C 19.46666666666667 33.91501560407385, 19.474666666666668 34.22501560407385, 19.48 34.53034893740718 C 19.485333333333333 34.83568227074051, 19.488 35.136348937407185, 19.488 35.432348937407184 C 19.488 35.72834893740718, 19.485333333333333 36.02168227074051, 19.48 36.31234893740718 C 19.474666666666668 36.603015604073846, 19.46666666666667 36.89234893740718, 19.456 37.18034893740718 C 19.439999999999998 37.63101560407385, 19.311999999999998 37.97968227074052, 19.072 38.22634893740718 C 18.832 38.473015604073844, 18.502666666666666 38.61634893740718, 18.084 38.65634893740718 Z M 21.944 38.59234893740718 L 21.944 32.19234893740718 L 23.003999999999998 32.19234893740718 L 23.003999999999998 38.59234893740718 Z " stroke="none" fill-rule="nonzero" fill="#000000" fill-opacity="1" transform="matrix(1,0,0,1,5.05,13.314)" id="text50 l" />
  <path d="M 0 31.563879149925754 L 10 31.563879149925754 L 10 33.063879149925754 L 0 33.063879149925754 Z " stroke="none" fill-rule="evenodd" fill="#000000" fill-opacity="1" transform="matrix(1,0,0,1,5.05,13.314)" id="mark51 l" />
  <path d="M 0 23.48540936244433 L 10 23.48540936244433 L 10 24.98540936244433 L 0 24.98540936244433 Z " stroke="none" fill-rule="evenodd" fill="#000000" fill-opacity="1" transform="matrix(1,0,0,1,5.05,13.314)" id="mark52 l" />
  <path d="M 0 15.406939574962848 L 10 15.406939574962848 L 10 16.90693957496285 L 0 16.90693957496285 Z " stroke="none" fill-rule="evenodd" fill="#000000" fill-opacity="1" transform="matrix(1,0,0,1,5.05,13.314)" id="mark53 l" />
  <path d="M 0 7.328469787481424 L 10 7.328469787481424 L 10 8.828469787481424 L 0 8.828469787481424 Z " stroke="none" fill-rule="evenodd" fill="#000000" fill-opacity="1" transform="matrix(1,0,0,1,5.05,13.314)" id="mark54 l" />
  <path d="M 0 -0.75 L 25 -0.75 L 25 0.75 L 0 0.75 Z " stroke="none" fill-rule="evenodd" fill="#000000" fill-opacity="1" transform="matrix(1,0,0,1,5.05,13.314)" id="mark55 l" />
  <path d="M 12.212 -3.2479999999999998 C 12.206666666666667 -3.421333333333333, 12.205333333333332 -3.5606666666666666, 12.207999999999998 -3.666 C 12.210666666666667 -3.771333333333333, 12.213333333333335 -3.873333333333333, 12.216 -3.972 L 13.296 -3.972 C 13.288 -3.8946666666666667, 13.282 -3.7986666666666666, 13.277999999999999 -3.6839999999999997 C 13.273999999999997 -3.569333333333333, 13.272666666666666 -3.4586666666666663, 13.274 -3.352 C 13.275333333333332 -3.2453333333333334, 13.278666666666666 -3.1653333333333338, 13.283999999999999 -3.112 C 13.294666666666664 -2.992, 13.32933333333333 -2.8939999999999997, 13.387999999999998 -2.8179999999999996 C 13.446666666666665 -2.7419999999999995, 13.529333333333334 -2.6879999999999997, 13.636 -2.6559999999999997 L 13.636 -1.7639999999999998 C 13.142666666666667 -1.801333333333333, 12.785333333333334 -1.9359999999999997, 12.563999999999998 -2.1679999999999997 C 12.342666666666666 -2.4, 12.225333333333332 -2.76, 12.212 -3.2479999999999998 Z M 12.312 -4.584 L 12.312 -8.232 L 13.379999999999999 -8.232 L 13.379999999999999 -4.584 Z M 13.883999999999999 -5.008 L 13.883999999999999 -5.763999999999999 C 13.961333333333332 -5.804, 14.046666666666667 -5.836, 14.139999999999999 -5.86 C 14.233333333333333 -5.884, 14.333333333333332 -5.896, 14.44 -5.896 C 14.805333333333333 -5.896, 15.07933333333333 -5.780666666666667, 15.261999999999999 -5.55 C 15.444666666666667 -5.319333333333333, 15.546666666666667 -5.005333333333333, 15.568 -4.608 C 15.578666666666667 -4.448, 15.585333333333333 -4.289333333333333, 15.588 -4.132 C 15.590666666666666 -3.974666666666667, 15.589333333333332 -3.8213333333333335, 15.584 -3.6719999999999997 C 15.578666666666665 -3.522666666666667, 15.570666666666664 -3.3826666666666663, 15.559999999999999 -3.252 C 15.514666666666667 -2.753333333333333, 15.385333333333332 -2.388, 15.171999999999999 -2.1559999999999997 C 14.958666666666666 -1.9239999999999997, 14.613333333333332 -1.793333333333333, 14.136 -1.7639999999999998 L 14.136 -2.6559999999999997 C 14.245333333333333 -2.685333333333333, 14.328 -2.738, 14.383999999999999 -2.814 C 14.44 -2.89, 14.472 -2.9893333333333336, 14.479999999999999 -3.112 C 14.503999999999998 -3.4026666666666667, 14.517999999999997 -3.664, 14.521999999999998 -3.896 C 14.526 -4.128, 14.517333333333333 -4.349333333333333, 14.495999999999999 -4.5600000000000005 C 14.48 -4.714666666666667, 14.428666666666665 -4.83, 14.341999999999999 -4.906 C 14.255333333333333 -4.981999999999999, 14.122666666666666 -5.02, 13.943999999999999 -5.02 C 13.933333333333332 -5.02, 13.922666666666665 -5.018666666666666, 13.911999999999999 -5.016 C 13.901333333333334 -5.013333333333334, 13.892 -5.010666666666667, 13.883999999999999 -5.008 Z M 13.883999999999999 -7.3 L 13.883999999999999 -8.232 L 15.472 -8.232 L 15.472 -7.3 Z M 16.18 -3.2479999999999998 C 16.174666666666667 -3.421333333333333, 16.173333333333332 -3.5606666666666666, 16.176 -3.666 C 16.178666666666665 -3.771333333333333, 16.181333333333335 -3.873333333333333, 16.183999999999997 -3.972 L 17.264 -3.972 C 17.256 -3.8946666666666667, 17.25 -3.7986666666666666, 17.246 -3.6839999999999997 C 17.241999999999997 -3.569333333333333, 17.240666666666666 -3.4586666666666663, 17.241999999999997 -3.352 C 17.243333333333332 -3.2453333333333334, 17.246666666666666 -3.1653333333333338, 17.252 -3.112 C 17.262666666666668 -2.992, 17.297333333333334 -2.8939999999999997, 17.355999999999998 -2.8179999999999996 C 17.414666666666665 -2.7419999999999995, 17.497333333333334 -2.6879999999999997, 17.604 -2.6559999999999997 L 17.604 -1.7639999999999998 C 17.110666666666663 -1.801333333333333, 16.75333333333333 -1.9359999999999997, 16.532 -2.1679999999999997 C 16.310666666666666 -2.4, 16.19333333333333 -2.76, 16.18 -3.2479999999999998 Z M 16.279999999999998 -4.584 L 16.279999999999998 -8.232 L 17.348 -8.232 L 17.348 -4.584 Z M 17.852 -5.008 L 17.852 -5.763999999999999 C 17.929333333333332 -5.804, 18.014666666666667 -5.836, 18.107999999999997 -5.86 C 18.20133333333333 -5.884, 18.301333333333332 -5.896, 18.407999999999998 -5.896 C 18.773333333333333 -5.896, 19.047333333333334 -5.780666666666667, 19.23 -5.55 C 19.412666666666667 -5.319333333333333, 19.514666666666663 -5.005333333333333, 19.535999999999998 -4.608 C 19.546666666666667 -4.448, 19.55333333333333 -4.289333333333333, 19.555999999999997 -4.132 C 19.558666666666664 -3.974666666666667, 19.557333333333332 -3.8213333333333335, 19.552 -3.6719999999999997 C 19.546666666666667 -3.522666666666667, 19.538666666666668 -3.3826666666666663, 19.528 -3.252 C 19.482666666666667 -2.753333333333333, 19.353333333333335 -2.388, 19.14 -2.1559999999999997 C 18.926666666666666 -1.9239999999999997, 18.581333333333333 -1.793333333333333, 18.104 -1.7639999999999998 L 18.104 -2.6559999999999997 C 18.21333333333333 -2.685333333333333, 18.296 -2.738, 18.352 -2.814 C 18.408 -2.89, 18.44 -2.9893333333333336, 18.448 -3.112 C 18.471999999999998 -3.4026666666666667, 18.485999999999997 -3.664, 18.49 -3.896 C 18.494 -4.128, 18.485333333333333 -4.349333333333333, 18.464 -4.5600000000000005 C 18.447999999999997 -4.714666666666667, 18.396666666666665 -4.83, 18.31 -4.906 C 18.223333333333333 -4.981999999999999, 18.090666666666664 -5.02, 17.912 -5.02 C 17.901333333333334 -5.02, 17.890666666666668 -5.018666666666666, 17.88 -5.016 C 17.86933333333333 -5.013333333333334, 17.86 -5.010666666666667, 17.852 -5.008 Z M 17.852 -7.3 L 17.852 -8.232 L 19.439999999999998 -8.232 L 19.439999999999998 -7.3 Z M 21.944 -1.8319999999999999 L 21.944 -8.232 L 23.003999999999998 -8.232 L 23.003999999999998 -1.8319999999999999 Z " stroke="none" fill-rule="nonzero" fill="#000000" fill-opacity="1" transform="matrix(1,0,0,1,5.05,13.314)" id="text55 l" />
  <path d="M -5 -13.264 L 30 -13.264 L 30 442.97336852399786 L -5 442.97336852399786 Z " stroke="#FF0000" stroke-opacity="1" stroke-width="0.1" stroke-linecap="butt" stroke-linejoin="miter" fill="none" transform="matrix(1,0,0,1,5.05,13.314)" />
</svg>