<?xml version="1.0" encoding="UTF-8"?>
<svg xmlns:xlink="http://www.w3.org/1999/xlink" viewBox="0 0 31.209999999999997 301.9399968928991" version="1.1" style="font-synthesis: none;" width="31.209999999999997mm" height="301.9399968928991mm" xmlns="http://www.w3.org/2000/svg">
  <defs />
  <style>	</style>
  <path d="M 0 0 L 31.209999999999997 0 L 31.209999999999997 301.9399968928991 L 0 301.9399968928991 Z " stroke="none" fill-rule="nonzero" fill="#FFFFFF" fill-opacity="0" transform="matrix(1,0,0,1,0,0)" />
  <path d="M 0 284.4069968928991 L 7 284.4069968928991 L 7 285.4069968928991 L 0 285.4069968928991 Z " stroke="none" fill-rule="evenodd" fill="#000000" fill-opacity="1" transform="matrix(1,0,0,1,3.6049999999999995,8.264)" id="mark1 l" />
  <path d="M 0 274.58261768969567 L 7 274.58261768969567 L 7 275.58261768969567 L 0 275.58261768969567 Z " stroke="none" fill-rule="evenodd" fill="#000000" fill-opacity="1" transform="matrix(1,0,0,1,3.6049999999999995,8.264)" id="mark2 l" />
  <path d="M 0 264.75823848649225 L 7 264.75823848649225 L 7 265.75823848649225 L 0 265.75823848649225 Z " stroke="none" fill-rule="evenodd" fill="#000000" fill-opacity="1" transform="matrix(1,0,0,1,3.6049999999999995,8.264)" id="mark3 l" />
  <path d="M 0 254.93385928328883 L 7 254.93385928328883 L 7 255.93385928328883 L 0 255.93385928328883 Z " stroke="none" fill-rule="evenodd" fill="#000000" fill-opacity="1" transform="matrix(1,0,0,1,3.6049999999999995,8.264)" id="mark4 l" />
  <path d="M 0 244.98448008008543 L 24 244.98448008008543 L 24 246.23448008008543 L 0 246.23448008008543 Z " stroke="none" fill-rule="evenodd" fill="#000000" fill-opacity="1" transform="matrix(1,0,0,1,3.6049999999999995,8.264)" id="mark5 l" />
  <path d="M 15.180000000000001 242.36148008008544 C 15.174666666666667 242.18814674675212, 15.173333333333332 242.04881341341877, 15.176 241.94348008008544 C 15.178666666666668 241.8381467467521, 15.181333333333335 241.73614674675213, 15.184000000000001 241.63748008008545 L 16.264 241.63748008008545 C 16.256 241.71481341341877, 16.250000000000004 241.81081341341877, 16.246000000000002 241.92548008008544 C 16.242 242.0401467467521, 16.24066666666667 242.15081341341875, 16.242 242.25748008008543 C 16.243333333333332 242.3641467467521, 16.246666666666666 242.4441467467521, 16.252000000000002 242.49748008008544 C 16.262666666666668 242.61748008008544, 16.297333333333334 242.71548008008546, 16.356 242.79148008008545 C 16.41466666666667 242.86748008008544, 16.497333333333337 242.92148008008542, 16.604 242.95348008008543 L 16.604 243.84548008008545 C 16.110666666666667 243.80814674675213, 15.753333333333334 243.67348008008543, 15.532 243.44148008008543 C 15.310666666666668 243.20948008008543, 15.193333333333335 242.84948008008544, 15.180000000000001 242.36148008008544 Z M 15.280000000000001 241.02548008008543 L 15.280000000000001 237.37748008008543 L 16.348 237.37748008008543 L 16.348 241.02548008008543 Z M 16.852 240.60148008008545 L 16.852 239.84548008008545 C 16.929333333333332 239.80548008008543, 17.014666666666667 239.77348008008545, 17.108 239.74948008008545 C 17.201333333333334 239.72548008008545, 17.301333333333332 239.71348008008545, 17.408 239.71348008008545 C 17.773333333333333 239.71348008008545, 18.047333333333334 239.8288134134188, 18.23 240.05948008008545 C 18.412666666666667 240.2901467467521, 18.514666666666667 240.60414674675212, 18.536 241.00148008008543 C 18.546666666666667 241.16148008008543, 18.553333333333335 241.3201467467521, 18.556 241.47748008008543 C 18.558666666666667 241.63481341341878, 18.557333333333336 241.78814674675212, 18.552 241.93748008008544 C 18.546666666666667 242.08681341341875, 18.538666666666668 242.22681341341877, 18.528000000000002 242.35748008008545 C 18.482666666666667 242.85614674675213, 18.35333333333333 243.22148008008543, 18.14 243.45348008008543 C 17.92666666666667 243.68548008008543, 17.581333333333333 243.8161467467521, 17.104 243.84548008008545 L 17.104 242.95348008008543 C 17.213333333333335 242.92414674675211, 17.296 242.87148008008543, 17.352 242.79548008008544 C 17.408 242.71948008008545, 17.44 242.6201467467521, 17.448 242.49748008008544 C 17.472 242.20681341341876, 17.486 241.94548008008542, 17.490000000000002 241.71348008008545 C 17.494000000000003 241.48148008008542, 17.485333333333337 241.26014674675207, 17.464000000000002 241.04948008008543 C 17.448 240.89481341341877, 17.39666666666667 240.77948008008542, 17.310000000000002 240.70348008008543 C 17.223333333333333 240.62748008008543, 17.090666666666667 240.58948008008545, 16.912 240.58948008008545 C 16.901333333333334 240.58948008008545, 16.890666666666668 240.5908134134188, 16.880000000000003 240.59348008008544 C 16.869333333333334 240.59614674675208, 16.86 240.59881341341878, 16.852 240.60148008008545 Z M 16.852 238.30948008008545 L 16.852 237.37748008008543 L 18.44 237.37748008008543 L 18.44 238.30948008008545 Z M 20.944000000000003 243.77748008008544 L 20.944000000000003 237.37748008008543 L 22.004000000000005 237.37748008008543 L 22.004000000000005 243.77748008008544 Z " stroke="none" fill-rule="nonzero" fill="#000000" fill-opacity="1" transform="matrix(1,0,0,1,3.6049999999999995,8.264)" id="text5 l" />
  <path d="M 0 235.285100876882 L 7 235.285100876882 L 7 236.285100876882 L 0 236.285100876882 Z " stroke="none" fill-rule="evenodd" fill="#000000" fill-opacity="1" transform="matrix(1,0,0,1,3.6049999999999995,8.264)" id="mark6 l" />
  <path d="M 0 225.4607216736786 L 7 225.4607216736786 L 7 226.4607216736786 L 0 226.4607216736786 Z " stroke="none" fill-rule="evenodd" fill="#000000" fill-opacity="1" transform="matrix(1,0,0,1,3.6049999999999995,8.264)" id="mark7 l" />
  <path d="M 0 215.63634247047517 L 7 215.63634247047517 L 7 216.63634247047517 L 0 216.63634247047517 Z " stroke="none" fill-rule="evenodd" fill="#000000" fill-opacity="1" transform="matrix(1,0,0,1,3.6049999999999995,8.264)" id="mark8 l" />
  <path d="M 0 205.81196326727178 L 7 205.81196326727178 L 7 206.81196326727178 L 0 206.81196326727178 Z " stroke="none" fill-rule="evenodd" fill="#000000" fill-opacity="1" transform="matrix(1,0,0,1,3.6049999999999995,8.264)" id="mark9 l" />
  <path d="M 0 195.86258406406836 L 24 195.86258406406836 L 24 197.11258406406836 L 0 197.11258406406836 Z " stroke="none" fill-rule="evenodd" fill="#000000" fill-opacity="1" transform="matrix(1,0,0,1,3.6049999999999995,8.264)" id="mark10 l" />
  <path d="M 13.323999999999998 194.68758406406837 L 13.323999999999998 189.2435840640684 L 12.871999999999998 189.2435840640684 L 12.839999999999998 188.86358406406836 L 13.543999999999999 188.28758406406837 L 14.424 188.28758406406837 L 14.424 194.68758406406837 Z M 15.196 193.27558406406837 C 15.187999999999999 192.84625073073505, 15.182666666666666 192.42958406406837, 15.18 192.02558406406837 C 15.177333333333333 191.62158406406837, 15.178 191.22625073073505, 15.182 190.83958406406836 C 15.186 190.4529173974017, 15.190666666666667 190.0715840640684, 15.196 189.69558406406838 C 15.209333333333333 189.2555840640684, 15.334 188.91025073073507, 15.57 188.65958406406838 C 15.806000000000001 188.4089173974017, 16.142666666666667 188.26358406406837, 16.58 188.22358406406838 L 16.58 189.11158406406838 C 16.382666666666665 189.16758406406836, 16.281333333333333 189.29691739740173, 16.276 189.4995840640684 C 16.262666666666668 189.87025073073505, 16.253333333333334 190.21825073073504, 16.248 190.54358406406837 C 16.242666666666665 190.8689173974017, 16.24 191.18558406406837, 16.24 191.4935840640684 C 16.24 191.80158406406838, 16.242666666666665 192.11625073073503, 16.248 192.43758406406837 C 16.253333333333334 192.75891739740172, 16.262666666666668 193.10225073073505, 16.276 193.46758406406838 C 16.281333333333333 193.67558406406837, 16.382666666666665 193.80758406406835, 16.58 193.86358406406836 L 16.58 194.75158406406837 C 16.142666666666667 194.71158406406838, 15.806000000000001 194.5655840640684, 15.57 194.31358406406838 C 15.334 194.06158406406837, 15.209333333333333 193.71558406406837, 15.196 193.27558406406837 Z M 17.084 194.75158406406837 L 17.084 193.85958406406837 C 17.268 193.80625073073503, 17.366666666666667 193.68225073073506, 17.38 193.4875840640684 C 17.398666666666667 193.02091739740172, 17.410666666666668 192.57225073073505, 17.416 192.14158406406838 C 17.421333333333333 191.71091739740172, 17.421333333333333 191.28025073073505, 17.416 190.84958406406838 C 17.410666666666668 190.4189173974017, 17.398666666666667 189.96625073073506, 17.38 189.49158406406838 C 17.374666666666666 189.29691739740173, 17.276 189.17025073073506, 17.084 189.11158406406838 L 17.084 188.22358406406838 C 17.513333333333335 188.26358406406837, 17.846666666666668 188.4089173974017, 18.084 188.65958406406838 C 18.321333333333335 188.91025073073507, 18.445333333333334 189.2555840640684, 18.456 189.69558406406838 C 18.46666666666667 190.01025073073504, 18.474666666666668 190.32025073073504, 18.48 190.62558406406836 C 18.485333333333333 190.93091739740169, 18.488 191.23158406406836, 18.488 191.52758406406838 C 18.488 191.82358406406837, 18.485333333333333 192.1169173974017, 18.48 192.40758406406837 C 18.474666666666668 192.69825073073503, 18.46666666666667 192.98758406406836, 18.456 193.27558406406837 C 18.439999999999998 193.72625073073505, 18.311999999999998 194.0749173974017, 18.072 194.32158406406836 C 17.832 194.56825073073503, 17.502666666666666 194.71158406406838, 17.084 194.75158406406837 Z M 20.944 194.68758406406837 L 20.944 188.28758406406837 L 22.003999999999998 188.28758406406837 L 22.003999999999998 194.68758406406837 Z " stroke="none" fill-rule="nonzero" fill="#000000" fill-opacity="1" transform="matrix(1,0,0,1,3.6049999999999995,8.264)" id="text10 l" />
  <path d="M 0 186.16320486086494 L 7 186.16320486086494 L 7 187.16320486086494 L 0 187.16320486086494 Z " stroke="none" fill-rule="evenodd" fill="#000000" fill-opacity="1" transform="matrix(1,0,0,1,3.6049999999999995,8.264)" id="mark11 l" />
  <path d="M 0 176.33882565766152 L 7 176.33882565766152 L 7 177.33882565766152 L 0 177.33882565766152 Z " stroke="none" fill-rule="evenodd" fill="#000000" fill-opacity="1" transform="matrix(1,0,0,1,3.6049999999999995,8.264)" id="mark12 l" />
  <path d="M 0 166.5144464544581 L 7 166.5144464544581 L 7 167.5144464544581 L 0 167.5144464544581 Z " stroke="none" fill-rule="evenodd" fill="#000000" fill-opacity="1" transform="matrix(1,0,0,1,3.6049999999999995,8.264)" id="mark13 l" />
  <path d="M 0 156.69006725125467 L 7 156.69006725125467 L 7 157.69006725125467 L 0 157.69006725125467 Z " stroke="none" fill-rule="evenodd" fill="#000000" fill-opacity="1" transform="matrix(1,0,0,1,3.6049999999999995,8.264)" id="mark14 l" />
  <path d="M 0 146.74068804805125 L 24 146.74068804805125 L 24 147.99068804805125 L 0 147.99068804805125 Z " stroke="none" fill-rule="evenodd" fill="#000000" fill-opacity="1" transform="matrix(1,0,0,1,3.6049999999999995,8.264)" id="mark15 l" />
  <path d="M 13.331999999999999 145.53368804805126 L 13.331999999999999 140.08968804805127 L 12.879999999999999 140.08968804805127 L 12.847999999999999 139.70968804805125 L 13.552 139.13368804805125 L 14.432 139.13368804805125 L 14.432 145.53368804805126 Z M 15.18 144.11768804805126 C 15.174666666666667 143.94435471471792, 15.173333333333332 143.8050213813846, 15.175999999999998 143.69968804805126 C 15.178666666666665 143.59435471471792, 15.181333333333331 143.49235471471792, 15.184 143.39368804805127 L 16.264 143.39368804805127 C 16.256 143.47102138138462, 16.25 143.5670213813846, 16.246 143.68168804805126 C 16.241999999999997 143.79635471471792, 16.240666666666666 143.9070213813846, 16.241999999999997 144.01368804805125 C 16.243333333333332 144.1203547147179, 16.246666666666666 144.20035471471792, 16.252 144.25368804805126 C 16.262666666666668 144.37368804805126, 16.297333333333334 144.47168804805128, 16.355999999999998 144.54768804805127 C 16.414666666666665 144.62368804805126, 16.49733333333333 144.67768804805124, 16.604 144.70968804805125 L 16.604 145.60168804805127 C 16.110666666666667 145.56435471471792, 15.75333333333333 145.42968804805125, 15.531999999999998 145.19768804805125 C 15.310666666666666 144.96568804805125, 15.193333333333332 144.60568804805126, 15.18 144.11768804805126 Z M 15.28 142.78168804805125 L 15.28 139.13368804805125 L 16.348 139.13368804805125 L 16.348 142.78168804805125 Z M 16.852 142.35768804805127 L 16.852 141.60168804805127 C 16.929333333333332 141.56168804805128, 17.014666666666663 141.52968804805127, 17.107999999999997 141.50568804805127 C 17.20133333333333 141.48168804805127, 17.301333333333332 141.46968804805127, 17.407999999999998 141.46968804805127 C 17.773333333333333 141.46968804805127, 18.047333333333334 141.5850213813846, 18.23 141.81568804805127 C 18.412666666666667 142.04635471471792, 18.514666666666663 142.36035471471791, 18.535999999999998 142.75768804805125 C 18.546666666666667 142.91768804805125, 18.553333333333335 143.07635471471792, 18.555999999999997 143.23368804805125 C 18.558666666666667 143.39102138138458, 18.557333333333332 143.54435471471794, 18.552 143.69368804805126 C 18.546666666666667 143.84302138138457, 18.538666666666668 143.9830213813846, 18.528 144.11368804805127 C 18.482666666666667 144.61235471471792, 18.35333333333333 144.97768804805125, 18.14 145.20968804805125 C 17.92666666666667 145.44168804805125, 17.581333333333333 145.57235471471793, 17.104 145.60168804805127 L 17.104 144.70968804805125 C 17.213333333333335 144.68035471471794, 17.296 144.62768804805125, 17.352 144.55168804805126 C 17.408 144.47568804805127, 17.44 144.37635471471793, 17.448 144.25368804805126 C 17.471999999999998 143.96302138138458, 17.485999999999997 143.70168804805127, 17.49 143.46968804805127 C 17.494 143.23768804805127, 17.485333333333333 143.01635471471792, 17.464 142.80568804805125 C 17.447999999999997 142.6510213813846, 17.396666666666665 142.53568804805124, 17.31 142.45968804805125 C 17.223333333333333 142.38368804805125, 17.090666666666667 142.34568804805127, 16.912 142.34568804805127 C 16.901333333333334 142.34568804805127, 16.890666666666668 142.3470213813846, 16.88 142.34968804805126 C 16.86933333333333 142.35235471471793, 16.86 142.3550213813846, 16.852 142.35768804805127 Z M 16.852 140.06568804805127 L 16.852 139.13368804805125 L 18.439999999999998 139.13368804805125 L 18.439999999999998 140.06568804805127 Z M 20.944 145.53368804805126 L 20.944 139.13368804805125 L 22.003999999999998 139.13368804805125 L 22.003999999999998 145.53368804805126 Z " stroke="none" fill-rule="nonzero" fill="#000000" fill-opacity="1" transform="matrix(1,0,0,1,3.6049999999999995,8.264)" id="text15 l" />
  <path d="M 0 137.04130884484783 L 7 137.04130884484783 L 7 138.04130884484783 L 0 138.04130884484783 Z " stroke="none" fill-rule="evenodd" fill="#000000" fill-opacity="1" transform="matrix(1,0,0,1,3.6049999999999995,8.264)" id="mark16 l" />
  <path d="M 0 127.21692964164441 L 7 127.21692964164441 L 7 128.2169296416444 L 0 128.2169296416444 Z " stroke="none" fill-rule="evenodd" fill="#000000" fill-opacity="1" transform="matrix(1,0,0,1,3.6049999999999995,8.264)" id="mark17 l" />
  <path d="M 0 117.39255043844102 L 7 117.39255043844102 L 7 118.39255043844102 L 0 118.39255043844102 Z " stroke="none" fill-rule="evenodd" fill="#000000" fill-opacity="1" transform="matrix(1,0,0,1,3.6049999999999995,8.264)" id="mark18 l" />
  <path d="M 0 107.5681712352376 L 7 107.5681712352376 L 7 108.5681712352376 L 0 108.5681712352376 Z " stroke="none" fill-rule="evenodd" fill="#000000" fill-opacity="1" transform="matrix(1,0,0,1,3.6049999999999995,8.264)" id="mark19 l" />
  <path d="M 0 97.61879203203418 L 24 97.61879203203418 L 24 98.86879203203418 L 0 98.86879203203418 Z " stroke="none" fill-rule="evenodd" fill="#000000" fill-opacity="1" transform="matrix(1,0,0,1,3.6049999999999995,8.264)" id="mark20 l" />
  <path d="M 11.319999999999999 96.44379203203418 C 11.317333333333332 96.34512536536752, 11.315333333333331 96.25645869870084, 11.313999999999998 96.17779203203418 C 11.312666666666665 96.09912536536751, 11.311333333333334 96.02512536536751, 11.309999999999999 95.95579203203418 C 11.308666666666667 95.88645869870085, 11.308 95.81445869870086, 11.308 95.73979203203419 C 11.308 95.66512536536752, 11.308 95.58045869870085, 11.308 95.48579203203418 C 11.308 95.39112536536751, 11.309333333333333 95.27979203203418, 11.312 95.15179203203418 C 11.32 94.85845869870084, 11.37 94.59645869870084, 11.462 94.36579203203418 C 11.554 94.13512536536751, 11.687999999999999 93.92912536536751, 11.863999999999999 93.74779203203418 C 12.04 93.56645869870084, 12.257333333333332 93.40512536536751, 12.515999999999998 93.26379203203417 L 13.047999999999998 92.97579203203418 C 13.234666666666666 92.87445869870083, 13.354 92.75245869870085, 13.405999999999999 92.60979203203418 C 13.457999999999998 92.46712536536751, 13.488 92.33312536536752, 13.495999999999999 92.20779203203418 C 13.506666666666664 92.0611253653675, 13.512666666666664 91.90445869870084, 13.514 91.73779203203418 C 13.51533333333333 91.57112536536752, 13.511999999999999 91.41445869870086, 13.504 91.26779203203418 C 13.498666666666665 91.1637920320342, 13.468666666666664 91.07779203203418, 13.413999999999998 91.00979203203418 C 13.359333333333332 90.94179203203419, 13.28 90.89312536536751, 13.175999999999998 90.86379203203418 L 13.175999999999998 89.97579203203418 C 13.664 90.00779203203419, 14.014 90.13912536536752, 14.225999999999999 90.36979203203418 C 14.437999999999999 90.60045869870085, 14.554666666666666 90.96112536536752, 14.575999999999999 91.45179203203418 C 14.578666666666665 91.51579203203418, 14.580666666666666 91.58112536536751, 14.581999999999999 91.64779203203418 C 14.583333333333332 91.71445869870084, 14.584 91.77912536536752, 14.584 91.84179203203418 C 14.584 91.90445869870085, 14.583333333333332 91.96645869870085, 14.581999999999999 92.02779203203418 C 14.580666666666666 92.08912536536752, 14.578666666666665 92.14912536536752, 14.575999999999999 92.20779203203418 C 14.565333333333331 92.49312536536752, 14.511999999999997 92.73979203203419, 14.415999999999999 92.94779203203419 C 14.319999999999997 93.15579203203419, 14.189999999999998 93.33579203203418, 14.026 93.48779203203418 C 13.861999999999998 93.63979203203418, 13.671999999999999 93.77579203203419, 13.456 93.89579203203418 L 12.851999999999999 94.22379203203418 C 12.737333333333332 94.28512536536752, 12.647333333333332 94.36912536536752, 12.581999999999999 94.47579203203418 C 12.516666666666666 94.58245869870083, 12.469999999999999 94.69579203203418, 12.441999999999998 94.81579203203418 C 12.413999999999998 94.93579203203419, 12.399999999999999 95.04779203203418, 12.399999999999999 95.15179203203418 L 12.399999999999999 96.44379203203418 Z M 11.328 92.40379203203418 C 11.322666666666667 92.28645869870086, 11.318666666666665 92.17179203203419, 11.315999999999999 92.05979203203418 C 11.313333333333333 91.94779203203417, 11.311333333333334 91.84179203203418, 11.309999999999999 91.74179203203418 C 11.308666666666667 91.64179203203418, 11.309333333333333 91.54512536536751, 11.312 91.45179203203418 C 11.330666666666666 90.96379203203418, 11.447333333333333 90.60445869870085, 11.661999999999999 90.37379203203417 C 11.876666666666665 90.14312536536752, 12.213333333333331 90.01045869870086, 12.671999999999999 89.97579203203418 L 12.671999999999999 90.86779203203419 C 12.575999999999997 90.89712536536751, 12.505333333333333 90.94379203203418, 12.459999999999999 91.00779203203419 C 12.414666666666665 91.07179203203418, 12.390666666666664 91.14912536536752, 12.387999999999998 91.23979203203419 C 12.382666666666665 91.44779203203419, 12.379333333333332 91.64112536536751, 12.378 91.81979203203419 C 12.376666666666665 91.99845869870086, 12.381333333333332 92.19312536536752, 12.392 92.40379203203418 Z M 12.904 96.44379203203418 L 12.904 95.51179203203418 L 14.5 95.51179203203418 L 14.5 96.44379203203418 Z M 15.196 95.03179203203418 C 15.187999999999999 94.60245869870084, 15.182666666666666 94.18579203203419, 15.18 93.78179203203418 C 15.177333333333333 93.37779203203418, 15.178 92.98245869870084, 15.182 92.59579203203418 C 15.186 92.20912536536753, 15.190666666666667 91.82779203203418, 15.196 91.45179203203418 C 15.209333333333333 91.01179203203418, 15.334 90.66645869870085, 15.57 90.41579203203418 C 15.806000000000001 90.16512536536752, 16.142666666666667 90.01979203203419, 16.58 89.97979203203418 L 16.58 90.86779203203419 C 16.382666666666665 90.92379203203419, 16.281333333333333 91.0531253653675, 16.276 91.25579203203418 C 16.262666666666668 91.62645869870084, 16.253333333333334 91.97445869870084, 16.248 92.29979203203418 C 16.242666666666665 92.62512536536751, 16.24 92.94179203203417, 16.24 93.24979203203418 C 16.24 93.55779203203419, 16.242666666666665 93.87245869870085, 16.248 94.19379203203418 C 16.253333333333334 94.51512536536751, 16.262666666666668 94.85845869870084, 16.276 95.22379203203418 C 16.281333333333333 95.43179203203418, 16.382666666666665 95.56379203203419, 16.58 95.61979203203418 L 16.58 96.50779203203417 C 16.142666666666667 96.46779203203417, 15.806000000000001 96.32179203203418, 15.57 96.06979203203419 C 15.334 95.81779203203419, 15.209333333333333 95.47179203203419, 15.196 95.03179203203418 Z M 17.084 96.50779203203417 L 17.084 95.61579203203418 C 17.268 95.56245869870085, 17.366666666666667 95.43845869870086, 17.38 95.24379203203418 C 17.398666666666667 94.77712536536751, 17.410666666666668 94.32845869870084, 17.416 93.89779203203418 C 17.421333333333333 93.46712536536751, 17.421333333333333 93.03645869870086, 17.416 92.60579203203419 C 17.410666666666668 92.17512536536752, 17.398666666666667 91.72245869870085, 17.38 91.24779203203418 C 17.374666666666666 91.05312536536752, 17.276 90.92645869870086, 17.084 90.86779203203419 L 17.084 89.97979203203418 C 17.513333333333335 90.01979203203419, 17.846666666666668 90.16512536536752, 18.084 90.41579203203418 C 18.321333333333335 90.66645869870085, 18.445333333333334 91.01179203203418, 18.456 91.45179203203418 C 18.46666666666667 91.76645869870084, 18.474666666666668 92.07645869870085, 18.48 92.38179203203418 C 18.485333333333333 92.68712536536752, 18.488 92.98779203203418, 18.488 93.28379203203419 C 18.488 93.57979203203419, 18.485333333333333 93.87312536536751, 18.48 94.16379203203418 C 18.474666666666668 94.45445869870085, 18.46666666666667 94.74379203203418, 18.456 95.03179203203418 C 18.439999999999998 95.48245869870084, 18.311999999999998 95.83112536536751, 18.072 96.07779203203418 C 17.832 96.32445869870085, 17.502666666666666 96.46779203203417, 17.084 96.50779203203417 Z M 20.944 96.44379203203418 L 20.944 90.04379203203418 L 22.003999999999998 90.04379203203418 L 22.003999999999998 96.44379203203418 Z " stroke="none" fill-rule="nonzero" fill="#000000" fill-opacity="1" transform="matrix(1,0,0,1,3.6049999999999995,8.264)" id="text20 l" />
  <path d="M 0 87.91941282883076 L 7 87.91941282883076 L 7 88.91941282883076 L 0 88.91941282883076 Z " stroke="none" fill-rule="evenodd" fill="#000000" fill-opacity="1" transform="matrix(1,0,0,1,3.6049999999999995,8.264)" id="mark21 l" />
  <path d="M 0 78.09503362562734 L 7 78.09503362562734 L 7 79.09503362562734 L 0 79.09503362562734 Z " stroke="none" fill-rule="evenodd" fill="#000000" fill-opacity="1" transform="matrix(1,0,0,1,3.6049999999999995,8.264)" id="mark22 l" />
  <path d="M 0 68.27065442242392 L 7 68.27065442242392 L 7 69.27065442242392 L 0 69.27065442242392 Z " stroke="none" fill-rule="evenodd" fill="#000000" fill-opacity="1" transform="matrix(1,0,0,1,3.6049999999999995,8.264)" id="mark23 l" />
  <path d="M 0 58.446275219220496 L 7 58.446275219220496 L 7 59.446275219220496 L 0 59.446275219220496 Z " stroke="none" fill-rule="evenodd" fill="#000000" fill-opacity="1" transform="matrix(1,0,0,1,3.6049999999999995,8.264)" id="mark24 l" />
  <path d="M 0 48.496896016017104 L 24 48.496896016017104 L 24 49.746896016017104 L 0 49.746896016017104 Z " stroke="none" fill-rule="evenodd" fill="#000000" fill-opacity="1" transform="matrix(1,0,0,1,3.6049999999999995,8.264)" id="mark25 l" />
  <path d="M 11.328 47.32189601601711 C 11.325333333333333 47.22322934935043, 11.323333333333332 47.13456268268377, 11.322 47.05589601601711 C 11.320666666666666 46.97722934935044, 11.319333333333333 46.90322934935044, 11.318 46.83389601601711 C 11.316666666666666 46.764562682683774, 11.316 46.69256268268377, 11.316 46.617896016017106 C 11.316 46.54322934935044, 11.316 46.45856268268378, 11.316 46.36389601601711 C 11.316 46.26922934935044, 11.317333333333334 46.157896016017105, 11.32 46.029896016017105 C 11.328 45.73656268268377, 11.378 45.47456268268377, 11.47 45.2438960160171 C 11.562000000000001 45.01322934935044, 11.696 44.80722934935044, 11.872 44.62589601601711 C 12.047999999999998 44.444562682683774, 12.265333333333333 44.283229349350435, 12.524000000000001 44.14189601601711 L 13.056000000000001 43.8538960160171 C 13.242666666666667 43.752562682683774, 13.361999999999998 43.630562682683774, 13.414 43.4878960160171 C 13.466000000000001 43.34522934935044, 13.496 43.21122934935044, 13.504 43.08589601601711 C 13.514666666666667 42.93922934935044, 13.520666666666667 42.78256268268377, 13.522 42.6158960160171 C 13.523333333333333 42.44922934935044, 13.52 42.29256268268377, 13.512 42.145896016017105 C 13.506666666666668 42.041896016017105, 13.476666666666667 41.95589601601711, 13.422 41.88789601601711 C 13.367333333333333 41.819896016017104, 13.288 41.771229349350435, 13.184000000000001 41.74189601601711 L 13.184000000000001 40.8538960160171 C 13.672 40.88589601601711, 14.021999999999998 41.01722934935044, 14.234 41.24789601601711 C 14.445999999999998 41.47856268268377, 14.562666666666665 41.83922934935044, 14.584 42.32989601601711 C 14.586666666666666 42.39389601601711, 14.588666666666667 42.45922934935044, 14.59 42.52589601601711 C 14.591333333333333 42.59256268268378, 14.591999999999999 42.65722934935044, 14.592 42.7198960160171 C 14.591999999999999 42.78256268268377, 14.591333333333333 42.84456268268377, 14.59 42.90589601601711 C 14.588666666666667 42.96722934935044, 14.586666666666666 43.02722934935044, 14.584 43.08589601601711 C 14.573333333333334 43.37122934935044, 14.52 43.617896016017106, 14.424 43.825896016017104 C 14.328 44.03389601601711, 14.198 44.21389601601711, 14.033999999999999 44.3658960160171 C 13.870000000000001 44.517896016017104, 13.68 44.6538960160171, 13.464 44.773896016017105 L 12.86 45.10189601601711 C 12.745333333333335 45.16322934935044, 12.655333333333335 45.24722934935044, 12.59 45.3538960160171 C 12.524666666666668 45.46056268268377, 12.478000000000002 45.57389601601711, 12.45 45.693896016017106 C 12.422 45.813896016017104, 12.408000000000001 45.925896016017106, 12.408 46.029896016017105 L 12.408 47.32189601601711 Z M 11.336 43.28189601601711 C 11.330666666666666 43.16456268268377, 11.326666666666666 43.04989601601711, 11.324 42.937896016017106 C 11.321333333333333 42.825896016017104, 11.319333333333333 42.71989601601711, 11.318 42.61989601601711 C 11.316666666666666 42.51989601601711, 11.317333333333334 42.423229349350436, 11.32 42.32989601601711 C 11.338666666666668 41.8418960160171, 11.455333333333334 41.48256268268377, 11.67 41.251896016017106 C 11.884666666666668 41.02122934935044, 12.221333333333334 40.88856268268378, 12.68 40.8538960160171 L 12.68 41.745896016017106 C 12.584 41.77522934935044, 12.513333333333332 41.82189601601711, 12.468 41.88589601601711 C 12.422666666666668 41.94989601601711, 12.398666666666667 42.027229349350435, 12.396 42.117896016017106 C 12.390666666666668 42.325896016017104, 12.387333333333334 42.51922934935044, 12.386 42.697896016017104 C 12.384666666666668 42.87656268268377, 12.389333333333333 43.07122934935044, 12.4 43.28189601601711 Z M 12.911999999999999 47.32189601601711 L 12.911999999999999 46.389896016017104 L 14.508 46.389896016017104 L 14.508 47.32189601601711 Z M 15.18 45.90589601601711 C 15.174666666666667 45.73256268268377, 15.173333333333332 45.59322934935044, 15.175999999999998 45.4878960160171 C 15.178666666666665 45.38256268268377, 15.181333333333331 45.28056268268377, 15.184 45.181896016017106 L 16.264 45.181896016017106 C 16.256 45.25922934935044, 16.25 45.35522934935044, 16.246 45.46989601601711 C 16.241999999999997 45.584562682683774, 16.240666666666666 45.69522934935044, 16.241999999999997 45.8018960160171 C 16.243333333333332 45.90856268268377, 16.246666666666666 45.98856268268377, 16.252 46.041896016017105 C 16.262666666666668 46.1618960160171, 16.297333333333334 46.25989601601711, 16.355999999999998 46.33589601601711 C 16.414666666666665 46.41189601601711, 16.49733333333333 46.465896016017105, 16.604 46.49789601601711 L 16.604 47.389896016017104 C 16.110666666666667 47.35256268268377, 15.75333333333333 47.21789601601711, 15.531999999999998 46.98589601601711 C 15.310666666666666 46.75389601601711, 15.193333333333332 46.39389601601711, 15.18 45.90589601601711 Z M 15.28 44.569896016017104 L 15.28 40.92189601601711 L 16.348 40.92189601601711 L 16.348 44.569896016017104 Z M 16.852 44.145896016017105 L 16.852 43.389896016017104 C 16.929333333333332 43.349896016017105, 17.014666666666663 43.31789601601711, 17.107999999999997 43.29389601601711 C 17.20133333333333 43.26989601601711, 17.301333333333332 43.257896016017106, 17.407999999999998 43.257896016017106 C 17.773333333333333 43.257896016017106, 18.047333333333334 43.37322934935044, 18.23 43.6038960160171 C 18.412666666666667 43.83456268268377, 18.514666666666663 44.148562682683774, 18.535999999999998 44.54589601601711 C 18.546666666666667 44.70589601601711, 18.553333333333335 44.86456268268377, 18.555999999999997 45.02189601601711 C 18.558666666666667 45.179229349350436, 18.557333333333332 45.33256268268377, 18.552 45.4818960160171 C 18.546666666666667 45.63122934935044, 18.538666666666668 45.77122934935044, 18.528 45.901896016017105 C 18.482666666666667 46.40056268268378, 18.35333333333333 46.76589601601711, 18.14 46.99789601601711 C 17.92666666666667 47.22989601601711, 17.581333333333333 47.36056268268378, 17.104 47.389896016017104 L 17.104 46.49789601601711 C 17.213333333333335 46.468562682683775, 17.296 46.41589601601711, 17.352 46.33989601601711 C 17.408 46.26389601601711, 17.44 46.16456268268377, 17.448 46.041896016017105 C 17.471999999999998 45.75122934935044, 17.485999999999997 45.489896016017106, 17.49 45.257896016017106 C 17.494 45.02589601601711, 17.485333333333333 44.80456268268377, 17.464 44.593896016017105 C 17.447999999999997 44.43922934935044, 17.396666666666665 44.32389601601711, 17.31 44.24789601601711 C 17.223333333333333 44.17189601601711, 17.090666666666667 44.133896016017104, 16.912 44.133896016017104 C 16.901333333333334 44.133896016017104, 16.890666666666668 44.13522934935044, 16.88 44.13789601601711 C 16.86933333333333 44.14056268268377, 16.86 44.143229349350435, 16.852 44.145896016017105 Z M 16.852 41.8538960160171 L 16.852 40.92189601601711 L 18.439999999999998 40.92189601601711 L 18.439999999999998 41.8538960160171 Z M 20.944 47.32189601601711 L 20.944 40.92189601601711 L 22.003999999999998 40.92189601601711 L 22.003999999999998 47.32189601601711 Z " stroke="none" fill-rule="nonzero" fill="#000000" fill-opacity="1" transform="matrix(1,0,0,1,3.6049999999999995,8.264)" id="text25 l" />
  <path d="M 0 38.79751681281368 L 7 38.79751681281368 L 7 39.79751681281368 L 0 39.79751681281368 Z " stroke="none" fill-rule="evenodd" fill="#000000" fill-opacity="1" transform="matrix(1,0,0,1,3.6049999999999995,8.264)" id="mark26 l" />
  <path d="M 0 28.973137609610262 L 7 28.973137609610262 L 7 29.973137609610262 L 0 29.973137609610262 Z " stroke="none" fill-rule="evenodd" fill="#000000" fill-opacity="1" transform="matrix(1,0,0,1,3.6049999999999995,8.264)" id="mark27 l" />
  <path d="M 0 19.14875840640684 L 7 19.14875840640684 L 7 20.14875840640684 L 0 20.14875840640684 Z " stroke="none" fill-rule="evenodd" fill="#000000" fill-opacity="1" transform="matrix(1,0,0,1,3.6049999999999995,8.264)" id="mark28 l" />
  <path d="M 0 9.32437920320342 L 7 9.32437920320342 L 7 10.32437920320342 L 0 10.32437920320342 Z " stroke="none" fill-rule="evenodd" fill="#000000" fill-opacity="1" transform="matrix(1,0,0,1,3.6049999999999995,8.264)" id="mark29 l" />
  <path d="M 0 -0.625 L 24 -0.625 L 24 0.625 L 0 0.625 Z " stroke="none" fill-rule="evenodd" fill="#000000" fill-opacity="1" transform="matrix(1,0,0,1,3.6049999999999995,8.264)" id="mark30 l" />
  <path d="M 11.223999999999998 -3.2159999999999997 C 11.221333333333332 -3.317333333333333, 11.219333333333333 -3.4013333333333335, 11.218 -3.468 C 11.216666666666667 -3.5346666666666664, 11.216666666666667 -3.602666666666666, 11.218 -3.6719999999999997 C 11.219333333333333 -3.7413333333333334, 11.221333333333332 -3.8306666666666667, 11.223999999999998 -3.94 L 12.303999999999998 -3.94 L 12.303999999999998 -3.0759999999999996 C 12.303999999999998 -2.8386666666666667, 12.417333333333332 -2.6879999999999997, 12.643999999999998 -2.6239999999999997 L 12.643999999999998 -1.7319999999999998 C 12.155999999999999 -1.7693333333333332, 11.800666666666666 -1.904, 11.578 -2.1359999999999997 C 11.355333333333332 -2.368, 11.237333333333332 -2.7279999999999998, 11.223999999999998 -3.2159999999999997 Z M 11.292 -7.268 L 11.292 -8.2 L 14.536 -8.2 L 14.536 -7.268 Z M 13.143999999999998 -2.6199999999999997 C 13.367999999999999 -2.6759999999999997, 13.483999999999998 -2.826666666666666, 13.491999999999999 -3.072 C 13.497333333333334 -3.2746666666666666, 13.500666666666667 -3.4573333333333336, 13.501999999999999 -3.62 C 13.503333333333334 -3.7826666666666666, 13.498666666666665 -3.94, 13.488 -4.092 C 13.48 -4.2493333333333325, 13.431999999999999 -4.382666666666666, 13.344 -4.492 C 13.256 -4.601333333333333, 13.089333333333332 -4.653333333333332, 12.844 -4.648 L 12.096 -4.64 L 12.068 -5.532 L 13.027999999999999 -6.9159999999999995 L 14.216 -6.9159999999999995 L 13.248 -5.564 L 13.28 -5.564 C 13.712 -5.564, 14.028666666666666 -5.441333333333334, 14.229999999999999 -5.196 C 14.431333333333335 -4.950666666666666, 14.544 -4.573333333333332, 14.568 -4.064 C 14.573333333333332 -3.992, 14.576666666666664 -3.92, 14.578 -3.848 C 14.57933333333333 -3.776, 14.579999999999998 -3.705333333333333, 14.579999999999998 -3.6359999999999997 C 14.579999999999998 -3.5666666666666664, 14.57933333333333 -3.4973333333333336, 14.578 -3.428 C 14.576666666666664 -3.3586666666666662, 14.573333333333332 -3.2879999999999994, 14.568 -3.2159999999999997 C 14.549333333333333 -2.7199999999999998, 14.428666666666667 -2.3553333333333333, 14.206 -2.122 C 13.983333333333333 -1.8886666666666665, 13.630666666666666 -1.7586666666666664, 13.148 -1.7319999999999998 Z M 15.196 -3.2119999999999997 C 15.187999999999999 -3.641333333333333, 15.182666666666666 -4.058, 15.18 -4.462 C 15.177333333333333 -4.866, 15.178 -5.261333333333333, 15.182 -5.648 C 15.186 -6.034666666666666, 15.190666666666667 -6.416, 15.196 -6.792 C 15.209333333333333 -7.231999999999999, 15.334 -7.577333333333334, 15.57 -7.828 C 15.806000000000001 -8.078666666666667, 16.142666666666667 -8.224, 16.58 -8.264 L 16.58 -7.3759999999999994 C 16.382666666666665 -7.32, 16.281333333333333 -7.190666666666667, 16.276 -6.9879999999999995 C 16.262666666666668 -6.617333333333333, 16.253333333333334 -6.269333333333333, 16.248 -5.944 C 16.242666666666665 -5.618666666666666, 16.24 -5.302, 16.24 -4.994 C 16.24 -4.686, 16.242666666666665 -4.371333333333333, 16.248 -4.05 C 16.253333333333334 -3.7286666666666664, 16.262666666666668 -3.3853333333333326, 16.276 -3.0199999999999996 C 16.281333333333333 -2.812, 16.382666666666665 -2.6799999999999997, 16.58 -2.6239999999999997 L 16.58 -1.7359999999999998 C 16.142666666666667 -1.7759999999999998, 15.806000000000001 -1.9219999999999997, 15.57 -2.174 C 15.334 -2.4259999999999997, 15.209333333333333 -2.772, 15.196 -3.2119999999999997 Z M 17.084 -1.7359999999999998 L 17.084 -2.6279999999999997 C 17.268 -2.681333333333333, 17.366666666666667 -2.8053333333333335, 17.38 -3 C 17.398666666666667 -3.4666666666666663, 17.410666666666668 -3.915333333333333, 17.416 -4.346 C 17.421333333333333 -4.776666666666666, 17.421333333333333 -5.207333333333333, 17.416 -5.638 C 17.410666666666668 -6.068666666666666, 17.398666666666667 -6.521333333333333, 17.38 -6.9959999999999996 C 17.374666666666666 -7.190666666666667, 17.276 -7.317333333333334, 17.084 -7.3759999999999994 L 17.084 -8.264 C 17.513333333333335 -8.224, 17.846666666666668 -8.078666666666667, 18.084 -7.828 C 18.321333333333335 -7.577333333333334, 18.445333333333334 -7.231999999999999, 18.456 -6.792 C 18.46666666666667 -6.477333333333332, 18.474666666666668 -6.167333333333333, 18.48 -5.861999999999999 C 18.485333333333333 -5.556666666666667, 18.488 -5.256, 18.488 -4.96 C 18.488 -4.664, 18.485333333333333 -4.370666666666667, 18.48 -4.08 C 18.474666666666668 -3.7893333333333334, 18.46666666666667 -3.5, 18.456 -3.2119999999999997 C 18.439999999999998 -2.761333333333333, 18.311999999999998 -2.4126666666666665, 18.072 -2.166 C 17.832 -1.9193333333333331, 17.502666666666666 -1.7759999999999998, 17.084 -1.7359999999999998 Z M 20.944 -1.7999999999999998 L 20.944 -8.2 L 22.003999999999998 -8.2 L 22.003999999999998 -1.7999999999999998 Z " stroke="none" fill-rule="nonzero" fill="#000000" fill-opacity="1" transform="matrix(1,0,0,1,3.6049999999999995,8.264)" id="text30 l" />
  <path d="M 0 0 L 31.2 0 L 31.2 300.8709968928991 L 0 300.8709968928991 Z " stroke="#000000" stroke-opacity="1" stroke-width="0.01" stroke-linecap="butt" stroke-linejoin="miter" fill="none" transform="matrix(1,0,0,1,0.004999999999999893,1.064)" />
</svg>