<?xml version="1.0" encoding="UTF-8"?>
<svg xmlns:xlink="http://www.w3.org/1999/xlink" viewBox="0 0 35.1 456.3826356361353" version="1.1" style="font-synthesis: none;" width="35.1mm" height="456.3826356361354mm" xmlns="http://www.w3.org/2000/svg">
  <defs />
  <style>	</style>
  <path d="M 0 0 L 35.1 0 L 35.1 456.3826356361353 L 0 456.3826356361353 Z " stroke="none" fill-rule="nonzero" fill="#FFFFFF" fill-opacity="1" transform="matrix(1,0,0,1,0,0)" />
  <path d="M 0 435.5326356361354 L 10 435.5326356361354 L 10 437.0326356361354 L 0 437.0326356361354 Z " stroke="none" fill-rule="evenodd" fill="#000000" fill-opacity="1" transform="matrix(1,0,0,1,5.05,13.314)" id="mark1 l" />
  <path d="M 0 422.7007934115432 L 10 422.7007934115432 L 10 424.2007934115432 L 0 424.2007934115432 Z " stroke="none" fill-rule="evenodd" fill="#000000" fill-opacity="1" transform="matrix(1,0,0,1,5.05,13.314)" id="mark2 l" />
  <path d="M 0 409.868951186951 L 10 409.868951186951 L 10 411.368951186951 L 0 411.368951186951 Z " stroke="none" fill-rule="evenodd" fill="#000000" fill-opacity="1" transform="matrix(1,0,0,1,5.05,13.314)" id="mark3 l" />
  <path d="M 0 397.03710896235873 L 10 397.03710896235873 L 10 398.53710896235873 L 0 398.53710896235873 Z " stroke="none" fill-rule="evenodd" fill="#000000" fill-opacity="1" transform="matrix(1,0,0,1,5.05,13.314)" id="mark4 l" />
  <path d="M 0 384.2052667377665 L 25 384.2052667377665 L 25 385.7052667377665 L 0 385.7052667377665 Z " stroke="none" fill-rule="evenodd" fill="#000000" fill-opacity="1" transform="matrix(1,0,0,1,5.05,13.314)" id="mark5 l" />
  <path d="M 16.18 381.70726673776653 C 16.174666666666667 381.53393340443324, 16.173333333333332 381.3946000710999, 16.176 381.2892667377665 C 16.178666666666665 381.18393340443316, 16.181333333333335 381.0819334044332, 16.183999999999997 380.98326673776654 L 17.264 380.98326673776654 C 17.256 381.0606000710999, 17.25 381.1566000710999, 17.246 381.27126673776655 C 17.241999999999997 381.3859334044332, 17.240666666666666 381.49660007109986, 17.241999999999997 381.60326673776655 C 17.243333333333332 381.7099334044332, 17.246666666666666 381.7899334044332, 17.252 381.84326673776656 C 17.262666666666668 381.9632667377665, 17.297333333333334 382.0612667377665, 17.355999999999998 382.13726673776654 C 17.414666666666665 382.2132667377665, 17.497333333333334 382.26726673776653, 17.604 382.2992667377665 L 17.604 383.1912667377665 C 17.110666666666663 383.1539334044332, 16.75333333333333 383.01926673776654, 16.532 382.7872667377665 C 16.310666666666666 382.5552667377665, 16.19333333333333 382.1952667377665, 16.18 381.70726673776653 Z M 16.279999999999998 380.3712667377665 L 16.279999999999998 376.72326673776655 L 17.348 376.72326673776655 L 17.348 380.3712667377665 Z M 17.852 379.94726673776654 L 17.852 379.1912667377665 C 17.929333333333332 379.1512667377665, 18.014666666666667 379.1192667377665, 18.107999999999997 379.0952667377665 C 18.20133333333333 379.0712667377665, 18.301333333333332 379.0592667377665, 18.407999999999998 379.0592667377665 C 18.773333333333333 379.0592667377665, 19.047333333333334 379.1746000710998, 19.23 379.4052667377665 C 19.412666666666667 379.6359334044332, 19.514666666666663 379.9499334044332, 19.535999999999998 380.3472667377665 C 19.546666666666667 380.50726673776654, 19.55333333333333 380.6659334044332, 19.555999999999997 380.8232667377665 C 19.558666666666664 380.98060007109984, 19.557333333333332 381.1339334044332, 19.552 381.28326673776655 C 19.546666666666667 381.4326000710999, 19.538666666666668 381.5726000710999, 19.528 381.7032667377665 C 19.482666666666667 382.2019334044332, 19.353333333333335 382.5672667377665, 19.14 382.7992667377665 C 18.926666666666666 383.03126673776654, 18.581333333333333 383.16193340443317, 18.104 383.1912667377665 L 18.104 382.2992667377665 C 18.21333333333333 382.2699334044332, 18.296 382.2172667377665, 18.352 382.1412667377665 C 18.408 382.06526673776654, 18.44 381.9659334044332, 18.448 381.84326673776656 C 18.471999999999998 381.55260007109985, 18.485999999999997 381.2912667377665, 18.49 381.0592667377665 C 18.494 380.82726673776654, 18.485333333333333 380.6059334044332, 18.464 380.3952667377665 C 18.447999999999997 380.2406000710999, 18.396666666666665 380.12526673776654, 18.31 380.0492667377665 C 18.223333333333333 379.97326673776655, 18.090666666666664 379.93526673776654, 17.912 379.93526673776654 C 17.901333333333334 379.93526673776654, 17.890666666666668 379.93660007109986, 17.88 379.9392667377665 C 17.86933333333333 379.94193340443314, 17.86 379.94460007109984, 17.852 379.94726673776654 Z M 17.852 377.6552667377665 L 17.852 376.72326673776655 L 19.439999999999998 376.72326673776655 L 19.439999999999998 377.6552667377665 Z M 21.944 383.1232667377665 L 21.944 376.72326673776655 L 23.003999999999998 376.72326673776655 L 23.003999999999998 383.1232667377665 Z " stroke="none" fill-rule="nonzero" fill="#000000" fill-opacity="1" transform="matrix(1,0,0,1,5.05,13.314)" id="text5 l" />
  <path d="M 0 371.3734245131743 L 10 371.3734245131743 L 10 372.8734245131743 L 0 372.8734245131743 Z " stroke="none" fill-rule="evenodd" fill="#000000" fill-opacity="1" transform="matrix(1,0,0,1,5.05,13.314)" id="mark6 l" />
  <path d="M 0 358.5415822885821 L 10 358.5415822885821 L 10 360.0415822885821 L 0 360.0415822885821 Z " stroke="none" fill-rule="evenodd" fill="#000000" fill-opacity="1" transform="matrix(1,0,0,1,5.05,13.314)" id="mark7 l" />
  <path d="M 0 345.7097400639899 L 10 345.7097400639899 L 10 347.2097400639899 L 0 347.2097400639899 Z " stroke="none" fill-rule="evenodd" fill="#000000" fill-opacity="1" transform="matrix(1,0,0,1,5.05,13.314)" id="mark8 l" />
  <path d="M 0 332.87789783939763 L 10 332.87789783939763 L 10 334.37789783939763 L 0 334.37789783939763 Z " stroke="none" fill-rule="evenodd" fill="#000000" fill-opacity="1" transform="matrix(1,0,0,1,5.05,13.314)" id="mark9 l" />
  <path d="M 0 320.0460556148055 L 25 320.0460556148055 L 25 321.5460556148055 L 0 321.5460556148055 Z " stroke="none" fill-rule="evenodd" fill="#000000" fill-opacity="1" transform="matrix(1,0,0,1,5.05,13.314)" id="mark10 l" />
  <path d="M 14.323999999999998 318.99605561480547 L 14.323999999999998 313.55205561480545 L 13.871999999999998 313.55205561480545 L 13.839999999999998 313.17205561480546 L 14.543999999999999 312.5960556148055 L 15.424 312.5960556148055 L 15.424 318.99605561480547 Z M 16.196 317.5840556148055 C 16.188000000000002 317.1547222814722, 16.182666666666666 316.7380556148055, 16.18 316.3340556148055 C 16.177333333333333 315.9300556148055, 16.177999999999997 315.53472228147217, 16.182 315.14805561480546 C 16.186 314.7613889481388, 16.190666666666665 314.3800556148054, 16.196 314.00405561480545 C 16.209333333333333 313.5640556148055, 16.334000000000003 313.21872228147214, 16.57 312.96805561480545 C 16.805999999999997 312.7173889481388, 17.142666666666663 312.5720556148055, 17.58 312.5320556148055 L 17.58 313.42005561480545 C 17.382666666666665 313.47605561480543, 17.281333333333333 313.6053889481388, 17.276 313.8080556148055 C 17.262666666666668 314.1787222814721, 17.253333333333334 314.52672228147213, 17.248 314.85205561480547 C 17.242666666666665 315.1773889481388, 17.24 315.49405561480546, 17.24 315.80205561480545 C 17.24 316.11005561480545, 17.242666666666665 316.4247222814721, 17.248 316.74605561480547 C 17.253333333333334 317.06738894813884, 17.262666666666668 317.41072228147215, 17.276 317.77605561480544 C 17.281333333333333 317.98405561480547, 17.382666666666665 318.1160556148055, 17.58 318.17205561480546 L 17.58 319.0600556148055 C 17.142666666666663 319.0200556148055, 16.805999999999997 318.87405561480546, 16.57 318.62205561480545 C 16.334000000000003 318.37005561480544, 16.209333333333333 318.0240556148055, 16.196 317.5840556148055 Z M 18.084 319.0600556148055 L 18.084 318.1680556148055 C 18.268 318.11472228147215, 18.366666666666667 317.99072228147213, 18.38 317.7960556148055 C 18.398666666666667 317.3293889481388, 18.410666666666668 316.8807222814721, 18.416 316.4500556148055 C 18.421333333333333 316.01938894813884, 18.421333333333333 315.58872228147214, 18.416 315.15805561480545 C 18.410666666666668 314.7273889481388, 18.398666666666667 314.2747222814721, 18.38 313.80005561480544 C 18.374666666666666 313.6053889481388, 18.276 313.47872228147213, 18.084 313.42005561480545 L 18.084 312.5320556148055 C 18.513333333333335 312.5720556148055, 18.846666666666668 312.7173889481388, 19.084 312.96805561480545 C 19.321333333333335 313.21872228147214, 19.445333333333334 313.5640556148055, 19.456 314.00405561480545 C 19.46666666666667 314.3187222814721, 19.474666666666668 314.62872228147216, 19.48 314.93405561480546 C 19.485333333333333 315.2393889481388, 19.488 315.54005561480545, 19.488 315.83605561480545 C 19.488 316.13205561480544, 19.485333333333333 316.4253889481388, 19.48 316.7160556148055 C 19.474666666666668 317.00672228147215, 19.46666666666667 317.2960556148055, 19.456 317.5840556148055 C 19.439999999999998 318.03472228147217, 19.311999999999998 318.3833889481388, 19.072 318.6300556148055 C 18.832 318.87672228147215, 18.502666666666666 319.0200556148055, 18.084 319.0600556148055 Z M 21.944 318.99605561480547 L 21.944 312.5960556148055 L 23.003999999999998 312.5960556148055 L 23.003999999999998 318.99605561480547 Z " stroke="none" fill-rule="nonzero" fill="#000000" fill-opacity="1" transform="matrix(1,0,0,1,5.05,13.314)" id="text10 l" />
  <path d="M 0 307.2142133902132 L 10 307.2142133902132 L 10 308.7142133902132 L 0 308.7142133902132 Z " stroke="none" fill-rule="evenodd" fill="#000000" fill-opacity="1" transform="matrix(1,0,0,1,5.05,13.314)" id="mark11 l" />
  <path d="M 0 294.382371165621 L 10 294.382371165621 L 10 295.882371165621 L 0 295.882371165621 Z " stroke="none" fill-rule="evenodd" fill="#000000" fill-opacity="1" transform="matrix(1,0,0,1,5.05,13.314)" id="mark12 l" />
  <path d="M 0 281.5505289410288 L 10 281.5505289410288 L 10 283.0505289410288 L 0 283.0505289410288 Z " stroke="none" fill-rule="evenodd" fill="#000000" fill-opacity="1" transform="matrix(1,0,0,1,5.05,13.314)" id="mark13 l" />
  <path d="M 0 268.71868671643654 L 10 268.71868671643654 L 10 270.21868671643654 L 0 270.21868671643654 Z " stroke="none" fill-rule="evenodd" fill="#000000" fill-opacity="1" transform="matrix(1,0,0,1,5.05,13.314)" id="mark14 l" />
  <path d="M 0 255.88684449184439 L 25 255.88684449184439 L 25 257.3868444918444 L 0 257.3868444918444 Z " stroke="none" fill-rule="evenodd" fill="#000000" fill-opacity="1" transform="matrix(1,0,0,1,5.05,13.314)" id="mark15 l" />
  <path d="M 14.331999999999999 254.8048444918444 L 14.331999999999999 249.3608444918444 L 13.879999999999999 249.3608444918444 L 13.847999999999999 248.98084449184438 L 14.552 248.4048444918444 L 15.432 248.4048444918444 L 15.432 254.8048444918444 Z M 16.18 253.3888444918444 C 16.174666666666667 253.21551115851105, 16.173333333333332 253.07617782517775, 16.176 252.9708444918444 C 16.178666666666665 252.86551115851108, 16.181333333333335 252.76351115851105, 16.183999999999997 252.6648444918444 L 17.264 252.6648444918444 C 17.256 252.74217782517775, 17.25 252.83817782517775, 17.246 252.9528444918444 C 17.241999999999997 253.06751115851108, 17.240666666666666 253.17817782517773, 17.241999999999997 253.28484449184438 C 17.243333333333332 253.39151115851104, 17.246666666666666 253.47151115851102, 17.252 253.5248444918444 C 17.262666666666668 253.64484449184437, 17.297333333333334 253.74284449184438, 17.355999999999998 253.8188444918444 C 17.414666666666665 253.89484449184437, 17.497333333333334 253.94884449184437, 17.604 253.98084449184438 L 17.604 254.8728444918444 C 17.110666666666663 254.83551115851105, 16.75333333333333 254.70084449184438, 16.532 254.46884449184438 C 16.310666666666666 254.23684449184438, 16.19333333333333 253.8768444918444, 16.18 253.3888444918444 Z M 16.279999999999998 252.05284449184438 L 16.279999999999998 248.4048444918444 L 17.348 248.4048444918444 L 17.348 252.05284449184438 Z M 17.852 251.6288444918444 L 17.852 250.8728444918444 C 17.929333333333332 250.8328444918444, 18.014666666666667 250.80084449184437, 18.107999999999997 250.7768444918444 C 18.20133333333333 250.75284449184437, 18.301333333333332 250.74084449184437, 18.407999999999998 250.7408444918444 C 18.773333333333333 250.74084449184437, 19.047333333333334 250.85617782517772, 19.23 251.0868444918444 C 19.412666666666667 251.31751115851105, 19.514666666666663 251.63151115851105, 19.535999999999998 252.02884449184438 C 19.546666666666667 252.18884449184438, 19.55333333333333 252.34751115851105, 19.555999999999997 252.50484449184438 C 19.558666666666664 252.6621778251777, 19.557333333333332 252.81551115851107, 19.552 252.9648444918444 C 19.546666666666667 253.1141778251777, 19.538666666666668 253.25417782517775, 19.528 253.3848444918444 C 19.482666666666667 253.88351115851106, 19.353333333333335 254.2488444918444, 19.14 254.48084449184438 C 18.926666666666666 254.7128444918444, 18.581333333333333 254.84351115851106, 18.104 254.8728444918444 L 18.104 253.98084449184438 C 18.21333333333333 253.95151115851107, 18.296 253.8988444918444, 18.352 253.8228444918444 C 18.408 253.7468444918444, 18.44 253.64751115851107, 18.448 253.5248444918444 C 18.471999999999998 253.2341778251777, 18.485999999999997 252.9728444918444, 18.49 252.7408444918444 C 18.494 252.5088444918444, 18.485333333333333 252.28751115851105, 18.464 252.07684449184438 C 18.447999999999997 251.9221778251777, 18.396666666666665 251.80684449184437, 18.31 251.73084449184438 C 18.223333333333333 251.6548444918444, 18.090666666666664 251.6168444918444, 17.912 251.6168444918444 C 17.901333333333334 251.6168444918444, 17.890666666666668 251.61817782517772, 17.88 251.6208444918444 C 17.86933333333333 251.62351115851106, 17.86 251.62617782517773, 17.852 251.6288444918444 Z M 17.852 249.3368444918444 L 17.852 248.4048444918444 L 19.439999999999998 248.4048444918444 L 19.439999999999998 249.3368444918444 Z M 21.944 254.8048444918444 L 21.944 248.4048444918444 L 23.003999999999998 248.4048444918444 L 23.003999999999998 254.8048444918444 Z " stroke="none" fill-rule="nonzero" fill="#000000" fill-opacity="1" transform="matrix(1,0,0,1,5.05,13.314)" id="text15 l" />
  <path d="M 0 243.05500226725215 L 10 243.05500226725215 L 10 244.55500226725215 L 0 244.55500226725215 Z " stroke="none" fill-rule="evenodd" fill="#000000" fill-opacity="1" transform="matrix(1,0,0,1,5.05,13.314)" id="mark16 l" />
  <path d="M 0 230.2231600426599 L 10 230.2231600426599 L 10 231.7231600426599 L 0 231.7231600426599 Z " stroke="none" fill-rule="evenodd" fill="#000000" fill-opacity="1" transform="matrix(1,0,0,1,5.05,13.314)" id="mark17 l" />
  <path d="M 0 217.3913178180677 L 10 217.3913178180677 L 10 218.8913178180677 L 0 218.8913178180677 Z " stroke="none" fill-rule="evenodd" fill="#000000" fill-opacity="1" transform="matrix(1,0,0,1,5.05,13.314)" id="mark18 l" />
  <path d="M 0 204.5594755934755 L 10 204.5594755934755 L 10 206.0594755934755 L 0 206.0594755934755 Z " stroke="none" fill-rule="evenodd" fill="#000000" fill-opacity="1" transform="matrix(1,0,0,1,5.05,13.314)" id="mark19 l" />
  <path d="M 0 191.7276333688833 L 25 191.7276333688833 L 25 193.2276333688833 L 0 193.2276333688833 Z " stroke="none" fill-rule="evenodd" fill="#000000" fill-opacity="1" transform="matrix(1,0,0,1,5.05,13.314)" id="mark20 l" />
  <path d="M 12.319999999999999 190.6776333688833 C 12.317333333333334 190.57896670221663, 12.315333333333331 190.49030003554998, 12.313999999999998 190.41163336888332 C 12.312666666666665 190.33296670221665, 12.311333333333334 190.25896670221664, 12.309999999999999 190.1896333688833 C 12.308666666666667 190.12030003554997, 12.308 190.04830003554997, 12.308 189.9736333688833 C 12.308 189.89896670221663, 12.308 189.81430003555, 12.308 189.7196333688833 C 12.308 189.62496670221662, 12.309333333333335 189.5136333688833, 12.312 189.3856333688833 C 12.32 189.09230003554995, 12.37 188.83030003554995, 12.462 188.5996333688833 C 12.554 188.36896670221665, 12.687999999999999 188.16296670221664, 12.863999999999999 187.9816333688833 C 13.04 187.80030003554998, 13.257333333333333 187.63896670221663, 13.515999999999998 187.4976333688833 L 14.047999999999998 187.20963336888332 C 14.234666666666666 187.10830003554997, 14.354 186.98630003554996, 14.405999999999999 186.8436333688833 C 14.457999999999998 186.70096670221665, 14.488 186.56696670221663, 14.495999999999999 186.44163336888332 C 14.506666666666664 186.29496670221664, 14.512666666666664 186.13830003554997, 14.514 185.97163336888332 C 14.51533333333333 185.80496670221666, 14.511999999999997 185.64830003555, 14.504 185.50163336888332 C 14.498666666666665 185.3976333688833, 14.468666666666666 185.31163336888332, 14.413999999999998 185.2436333688833 C 14.359333333333332 185.1756333688833, 14.279999999999998 185.12696670221663, 14.175999999999998 185.0976333688833 L 14.175999999999998 184.20963336888332 C 14.663999999999998 184.24163336888333, 15.014 184.37296670221664, 15.225999999999999 184.6036333688833 C 15.437999999999999 184.83430003554997, 15.554666666666666 185.19496670221665, 15.575999999999999 185.68563336888332 C 15.578666666666663 185.7496333688833, 15.580666666666666 185.81496670221665, 15.581999999999999 185.8816333688833 C 15.583333333333332 185.94830003554998, 15.584 186.01296670221663, 15.584 186.0756333688833 C 15.584 186.13830003554997, 15.583333333333332 186.20030003554996, 15.581999999999999 186.2616333688833 C 15.580666666666666 186.32296670221663, 15.578666666666663 186.38296670221663, 15.575999999999999 186.44163336888332 C 15.565333333333331 186.72696670221666, 15.512 186.97363336888333, 15.415999999999999 187.1816333688833 C 15.32 187.38963336888332, 15.19 187.56963336888333, 15.026 187.72163336888332 C 14.862 187.8736333688833, 14.672 188.0096333688833, 14.456 188.1296333688833 L 13.851999999999999 188.4576333688833 C 13.737333333333332 188.51896670221663, 13.647333333333332 188.60296670221663, 13.581999999999999 188.70963336888332 C 13.516666666666666 188.81630003554997, 13.469999999999999 188.92963336888332, 13.441999999999998 189.0496333688833 C 13.413999999999998 189.1696333688833, 13.399999999999999 189.28163336888332, 13.399999999999999 189.3856333688833 L 13.399999999999999 190.6776333688833 Z M 12.328 186.63763336888331 C 12.322666666666667 186.52030003554995, 12.318666666666665 186.4056333688833, 12.315999999999999 186.29363336888332 C 12.313333333333333 186.1816333688833, 12.311333333333334 186.0756333688833, 12.309999999999999 185.9756333688833 C 12.308666666666667 185.8756333688833, 12.309333333333335 185.77896670221665, 12.312 185.68563336888332 C 12.330666666666666 185.19763336888332, 12.447333333333333 184.83830003555, 12.661999999999999 184.6076333688833 C 12.876666666666665 184.37696670221663, 13.213333333333331 184.24430003554997, 13.671999999999999 184.20963336888332 L 13.671999999999999 185.1016333688833 C 13.576 185.13096670221665, 13.505333333333333 185.1776333688833, 13.459999999999999 185.2416333688833 C 13.414666666666665 185.3056333688833, 13.390666666666664 185.38296670221663, 13.387999999999998 185.4736333688833 C 13.382666666666665 185.6816333688833, 13.379333333333333 185.87496670221665, 13.378 186.0536333688833 C 13.376666666666667 186.23230003554997, 13.381333333333334 186.42696670221665, 13.392 186.63763336888331 Z M 13.904 190.6776333688833 L 13.904 189.74563336888332 L 15.5 189.74563336888332 L 15.5 190.6776333688833 Z M 16.196 189.2656333688833 C 16.188000000000002 188.83630003554995, 16.182666666666666 188.4196333688833, 16.18 188.0156333688833 C 16.177333333333333 187.6116333688833, 16.177999999999997 187.21630003554998, 16.182 186.8296333688833 C 16.186 186.44296670221664, 16.190666666666665 186.06163336888332, 16.196 185.68563336888332 C 16.209333333333333 185.24563336888332, 16.334000000000003 184.90030003555, 16.57 184.64963336888331 C 16.805999999999997 184.39896670221663, 17.142666666666663 184.2536333688833, 17.58 184.2136333688833 L 17.58 185.1016333688833 C 17.382666666666665 185.1576333688833, 17.281333333333333 185.28696670221666, 17.276 185.48963336888332 C 17.262666666666668 185.86030003554998, 17.253333333333334 186.20830003554997, 17.248 186.5336333688833 C 17.242666666666665 186.85896670221663, 17.24 187.1756333688833, 17.24 187.48363336888332 C 17.24 187.7916333688833, 17.242666666666665 188.10630003554996, 17.248 188.4276333688833 C 17.253333333333334 188.74896670221665, 17.262666666666668 189.09230003554995, 17.276 189.4576333688833 C 17.281333333333333 189.66563336888333, 17.382666666666665 189.7976333688833, 17.58 189.8536333688833 L 17.58 190.7416333688833 C 17.142666666666663 190.70163336888328, 16.805999999999997 190.5556333688833, 16.57 190.3036333688833 C 16.334000000000003 190.0516333688833, 16.209333333333333 189.7056333688833, 16.196 189.2656333688833 Z M 18.084 190.7416333688833 L 18.084 189.8496333688833 C 18.268 189.79630003555, 18.366666666666667 189.67230003555, 18.38 189.47763336888332 C 18.398666666666667 189.01096670221665, 18.410666666666668 188.56230003554998, 18.416 188.1316333688833 C 18.421333333333333 187.70096670221665, 18.421333333333333 187.27030003554998, 18.416 186.8396333688833 C 18.410666666666668 186.40896670221665, 18.398666666666667 185.95630003555, 18.38 185.4816333688833 C 18.374666666666666 185.28696670221666, 18.276 185.16030003555, 18.084 185.1016333688833 L 18.084 184.2136333688833 C 18.513333333333335 184.2536333688833, 18.846666666666668 184.39896670221663, 19.084 184.64963336888331 C 19.321333333333335 184.90030003555, 19.445333333333334 185.24563336888332, 19.456 185.68563336888332 C 19.46666666666667 186.00030003554997, 19.474666666666668 186.31030003554997, 19.48 186.6156333688833 C 19.485333333333333 186.92096670221662, 19.488 187.2216333688833, 19.488 187.5176333688833 C 19.488 187.8136333688833, 19.485333333333333 188.10696670221662, 19.48 188.3976333688833 C 19.474666666666668 188.68830003555, 19.46666666666667 188.97763336888332, 19.456 189.2656333688833 C 19.439999999999998 189.71630003554998, 19.311999999999998 190.06496670221665, 19.072 190.3116333688833 C 18.832 190.55830003554996, 18.502666666666666 190.70163336888328, 18.084 190.7416333688833 Z M 21.944 190.6776333688833 L 21.944 184.2776333688833 L 23.003999999999998 184.2776333688833 L 23.003999999999998 190.6776333688833 Z " stroke="none" fill-rule="nonzero" fill="#000000" fill-opacity="1" transform="matrix(1,0,0,1,5.05,13.314)" id="text20 l" />
  <path d="M 0 178.89579114429108 L 10 178.89579114429108 L 10 180.39579114429108 L 0 180.39579114429108 Z " stroke="none" fill-rule="evenodd" fill="#000000" fill-opacity="1" transform="matrix(1,0,0,1,5.05,13.314)" id="mark21 l" />
  <path d="M 0 166.06394891969882 L 10 166.06394891969882 L 10 167.56394891969882 L 0 167.56394891969882 Z " stroke="none" fill-rule="evenodd" fill="#000000" fill-opacity="1" transform="matrix(1,0,0,1,5.05,13.314)" id="mark22 l" />
  <path d="M 0 153.2321066951066 L 10 153.2321066951066 L 10 154.7321066951066 L 0 154.7321066951066 Z " stroke="none" fill-rule="evenodd" fill="#000000" fill-opacity="1" transform="matrix(1,0,0,1,5.05,13.314)" id="mark23 l" />
  <path d="M 0 140.4002644705144 L 10 140.4002644705144 L 10 141.9002644705144 L 0 141.9002644705144 Z " stroke="none" fill-rule="evenodd" fill="#000000" fill-opacity="1" transform="matrix(1,0,0,1,5.05,13.314)" id="mark24 l" />
  <path d="M 0 127.56842224592219 L 25 127.56842224592219 L 25 129.0684222459222 L 0 129.0684222459222 Z " stroke="none" fill-rule="evenodd" fill="#000000" fill-opacity="1" transform="matrix(1,0,0,1,5.05,13.314)" id="mark25 l" />
  <path d="M 12.328 126.5184222459222 C 12.325333333333333 126.41975557925554, 12.323333333333332 126.33108891258885, 12.322 126.25242224592219 C 12.320666666666666 126.17375557925553, 12.319333333333333 126.09975557925551, 12.318 126.0304222459222 C 12.316666666666666 125.96108891258885, 12.315999999999999 125.88908891258886, 12.316 125.8144222459222 C 12.315999999999999 125.73975557925553, 12.315999999999999 125.65508891258887, 12.316 125.5604222459222 C 12.315999999999999 125.46575557925553, 12.317333333333334 125.3544222459222, 12.32 125.2264222459222 C 12.328 124.93308891258886, 12.378 124.67108891258886, 12.47 124.44042224592219 C 12.562000000000001 124.20975557925553, 12.696 124.00375557925553, 12.872 123.8224222459222 C 13.048 123.64108891258886, 13.265333333333334 123.47975557925551, 13.524000000000001 123.33842224592219 L 14.056000000000001 123.05042224592219 C 14.242666666666668 122.94908891258886, 14.362000000000002 122.82708891258886, 14.414 122.68442224592219 C 14.466000000000001 122.54175557925552, 14.495999999999999 122.40775557925552, 14.504 122.28242224592219 C 14.514666666666667 122.13575557925553, 14.520666666666667 121.97908891258886, 14.522 121.81242224592219 C 14.523333333333333 121.64575557925552, 14.520000000000001 121.48908891258885, 14.512 121.3424222459222 C 14.506666666666666 121.2384222459222, 14.476666666666667 121.1524222459222, 14.422 121.0844222459222 C 14.367333333333335 121.0164222459222, 14.288 120.96775557925554, 14.184000000000001 120.9384222459222 L 14.184000000000001 120.05042224592219 C 14.672 120.08242224592219, 15.022000000000002 120.21375557925552, 15.234 120.4444222459222 C 15.446000000000002 120.67508891258888, 15.562666666666667 121.03575557925552, 15.584 121.52642224592219 C 15.586666666666668 121.59042224592218, 15.588666666666668 121.65575557925553, 15.59 121.72242224592219 C 15.591333333333335 121.78908891258887, 15.592000000000002 121.85375557925553, 15.592 121.91642224592219 C 15.592000000000002 121.97908891258886, 15.591333333333335 122.04108891258886, 15.59 122.1024222459222 C 15.588666666666668 122.16375557925554, 15.586666666666668 122.22375557925552, 15.584 122.28242224592219 C 15.573333333333332 122.56775557925552, 15.52 122.81442224592219, 15.424 123.0224222459222 C 15.328 123.2304222459222, 15.197999999999999 123.4104222459222, 15.033999999999999 123.56242224592219 C 14.87 123.71442224592221, 14.68 123.8504222459222, 14.464 123.9704222459222 L 13.86 124.2984222459222 C 13.745333333333335 124.35975557925553, 13.655333333333335 124.44375557925552, 13.59 124.55042224592219 C 13.524666666666668 124.65708891258886, 13.478000000000002 124.77042224592219, 13.45 124.8904222459222 C 13.422 125.0104222459222, 13.408 125.1224222459222, 13.408 125.2264222459222 L 13.408 126.5184222459222 Z M 12.336 122.47842224592219 C 12.330666666666666 122.36108891258885, 12.326666666666664 122.24642224592219, 12.324 122.1344222459222 C 12.321333333333332 122.0224222459222, 12.319333333333333 121.91642224592219, 12.318 121.8164222459222 C 12.316666666666666 121.71642224592219, 12.317333333333334 121.61975557925552, 12.32 121.52642224592219 C 12.338666666666668 121.03842224592219, 12.455333333333336 120.67908891258885, 12.67 120.44842224592219 C 12.884666666666668 120.21775557925552, 13.221333333333334 120.08508891258886, 13.68 120.05042224592219 L 13.68 120.9424222459222 C 13.584 120.97175557925553, 13.513333333333332 121.01842224592221, 13.468 121.0824222459222 C 13.422666666666668 121.1464222459222, 13.398666666666667 121.22375557925552, 13.396 121.3144222459222 C 13.390666666666666 121.5224222459222, 13.387333333333332 121.71575557925553, 13.386 121.8944222459222 C 13.384666666666666 122.07308891258887, 13.389333333333333 122.26775557925552, 13.4 122.47842224592219 Z M 13.911999999999999 126.5184222459222 L 13.911999999999999 125.5864222459222 L 15.508 125.5864222459222 L 15.508 126.5184222459222 Z M 16.18 125.1024222459222 C 16.174666666666667 124.92908891258887, 16.173333333333332 124.78975557925551, 16.176 124.68442224592219 C 16.178666666666665 124.57908891258884, 16.181333333333335 124.47708891258885, 16.183999999999997 124.3784222459222 L 17.264 124.3784222459222 C 17.256 124.45575557925552, 17.25 124.55175557925551, 17.246 124.66642224592219 C 17.241999999999997 124.78108891258884, 17.240666666666666 124.89175557925552, 17.241999999999997 124.9984222459222 C 17.243333333333332 125.10508891258885, 17.246666666666666 125.18508891258887, 17.252 125.2384222459222 C 17.262666666666668 125.35842224592221, 17.297333333333334 125.4564222459222, 17.355999999999998 125.53242224592219 C 17.414666666666665 125.60842224592218, 17.497333333333334 125.66242224592219, 17.604 125.6944222459222 L 17.604 126.5864222459222 C 17.110666666666663 126.54908891258887, 16.75333333333333 126.4144222459222, 16.532 126.1824222459222 C 16.310666666666666 125.9504222459222, 16.19333333333333 125.59042224592221, 16.18 125.1024222459222 Z M 16.279999999999998 123.7664222459222 L 16.279999999999998 120.11842224592219 L 17.348 120.11842224592219 L 17.348 123.7664222459222 Z M 17.852 123.3424222459222 L 17.852 122.5864222459222 C 17.929333333333332 122.5464222459222, 18.014666666666667 122.51442224592219, 18.107999999999997 122.49042224592219 C 18.20133333333333 122.46642224592219, 18.301333333333332 122.45442224592219, 18.407999999999998 122.45442224592219 C 18.773333333333333 122.45442224592219, 19.047333333333334 122.56975557925551, 19.23 122.80042224592219 C 19.412666666666667 123.03108891258887, 19.514666666666663 123.34508891258886, 19.535999999999998 123.7424222459222 C 19.546666666666667 123.9024222459222, 19.55333333333333 124.06108891258887, 19.555999999999997 124.2184222459222 C 19.558666666666664 124.37575557925553, 19.557333333333332 124.52908891258886, 19.552 124.67842224592219 C 19.546666666666667 124.82775557925552, 19.538666666666668 124.96775557925554, 19.528 125.0984222459222 C 19.482666666666667 125.59708891258887, 19.353333333333335 125.9624222459222, 19.14 126.1944222459222 C 18.926666666666666 126.4264222459222, 18.581333333333333 126.55708891258885, 18.104 126.5864222459222 L 18.104 125.6944222459222 C 18.21333333333333 125.66508891258886, 18.296 125.6124222459222, 18.352 125.5364222459222 C 18.408 125.46042224592219, 18.44 125.36108891258885, 18.448 125.2384222459222 C 18.471999999999998 124.94775557925553, 18.485999999999997 124.68642224592219, 18.49 124.45442224592219 C 18.494 124.22242224592219, 18.485333333333333 124.00108891258886, 18.464 123.7904222459222 C 18.447999999999997 123.63575557925553, 18.396666666666665 123.52042224592219, 18.31 123.4444222459222 C 18.223333333333333 123.3684222459222, 18.090666666666664 123.3304222459222, 17.912 123.3304222459222 C 17.901333333333334 123.3304222459222, 17.890666666666668 123.33175557925553, 17.88 123.3344222459222 C 17.86933333333333 123.33708891258885, 17.86 123.33975557925552, 17.852 123.3424222459222 Z M 17.852 121.05042224592219 L 17.852 120.11842224592219 L 19.439999999999998 120.11842224592219 L 19.439999999999998 121.05042224592219 Z M 21.944 126.5184222459222 L 21.944 120.11842224592219 L 23.003999999999998 120.11842224592219 L 23.003999999999998 126.5184222459222 Z " stroke="none" fill-rule="nonzero" fill="#000000" fill-opacity="1" transform="matrix(1,0,0,1,5.05,13.314)" id="text25 l" />
  <path d="M 0 114.73658002132998 L 10 114.73658002132998 L 10 116.23658002132998 L 0 116.23658002132998 Z " stroke="none" fill-rule="evenodd" fill="#000000" fill-opacity="1" transform="matrix(1,0,0,1,5.05,13.314)" id="mark26 l" />
  <path d="M 0 101.90473779673778 L 10 101.90473779673778 L 10 103.40473779673778 L 0 103.40473779673778 Z " stroke="none" fill-rule="evenodd" fill="#000000" fill-opacity="1" transform="matrix(1,0,0,1,5.05,13.314)" id="mark27 l" />
  <path d="M 0 89.07289557214551 L 10 89.07289557214551 L 10 90.57289557214551 L 0 90.57289557214551 Z " stroke="none" fill-rule="evenodd" fill="#000000" fill-opacity="1" transform="matrix(1,0,0,1,5.05,13.314)" id="mark28 l" />
  <path d="M 0 76.2410533475533 L 10 76.2410533475533 L 10 77.7410533475533 L 0 77.7410533475533 Z " stroke="none" fill-rule="evenodd" fill="#000000" fill-opacity="1" transform="matrix(1,0,0,1,5.05,13.314)" id="mark29 l" />
  <path d="M 0 63.409211122961096 L 25 63.409211122961096 L 25 64.9092111229611 L 0 64.9092111229611 Z " stroke="none" fill-rule="evenodd" fill="#000000" fill-opacity="1" transform="matrix(1,0,0,1,5.05,13.314)" id="mark30 l" />
  <path d="M 12.223999999999998 60.9432111229611 C 12.221333333333334 60.84187778962777, 12.219333333333333 60.75787778962777, 12.218 60.6912111229611 C 12.216666666666667 60.62454445629443, 12.216666666666667 60.55654445629443, 12.218 60.4872111229611 C 12.219333333333333 60.41787778962777, 12.221333333333334 60.32854445629443, 12.223999999999998 60.2192111229611 L 13.303999999999998 60.2192111229611 L 13.303999999999998 61.083211122961096 C 13.303999999999998 61.32054445629443, 13.417333333333332 61.471211122961094, 13.643999999999998 61.5352111229611 L 13.643999999999998 62.4272111229611 C 13.155999999999999 62.38987778962776, 12.800666666666665 62.2552111229611, 12.578 62.0232111229611 C 12.355333333333334 61.7912111229611, 12.237333333333332 61.4312111229611, 12.223999999999998 60.9432111229611 Z M 12.292 56.891211122961096 L 12.292 55.9592111229611 L 15.536 55.9592111229611 L 15.536 56.891211122961096 Z M 14.143999999999998 61.5392111229611 C 14.367999999999999 61.483211122961094, 14.483999999999998 61.33254445629443, 14.491999999999999 61.0872111229611 C 14.497333333333334 60.884544456294435, 14.500666666666666 60.70187778962776, 14.501999999999999 60.5392111229611 C 14.503333333333332 60.376544456294425, 14.498666666666665 60.2192111229611, 14.488 60.0672111229611 C 14.48 59.90987778962777, 14.431999999999999 59.77654445629443, 14.344 59.6672111229611 C 14.256 59.55787778962777, 14.089333333333332 59.50587778962776, 13.844 59.5112111229611 L 13.096 59.519211122961096 L 13.068 58.6272111229611 L 14.027999999999999 57.2432111229611 L 15.216 57.2432111229611 L 14.248 58.595211122961096 L 14.28 58.595211122961096 C 14.712 58.595211122961096, 15.028666666666666 58.717877789627764, 15.229999999999999 58.9632111229611 C 15.431333333333333 59.20854445629443, 15.544 59.585877789627766, 15.568 60.095211122961096 C 15.57333333333333 60.1672111229611, 15.576666666666664 60.239211122961095, 15.578 60.3112111229611 C 15.57933333333333 60.3832111229611, 15.579999999999998 60.45387778962777, 15.579999999999998 60.5232111229611 C 15.579999999999998 60.59254445629443, 15.57933333333333 60.661877789627766, 15.578 60.7312111229611 C 15.576666666666664 60.80054445629443, 15.57333333333333 60.8712111229611, 15.568 60.9432111229611 C 15.549333333333333 61.4392111229611, 15.428666666666665 61.80387778962776, 15.206 62.0372111229611 C 14.983333333333334 62.27054445629443, 14.630666666666666 62.400544456294426, 14.148 62.4272111229611 Z M 16.196 60.9472111229611 C 16.188000000000002 60.517877789627775, 16.182666666666666 60.101211122961104, 16.18 59.6972111229611 C 16.177333333333333 59.2932111229611, 16.177999999999997 58.89787778962776, 16.182 58.5112111229611 C 16.186 58.12454445629444, 16.190666666666665 57.7432111229611, 16.196 57.3672111229611 C 16.209333333333333 56.9272111229611, 16.334000000000003 56.58187778962777, 16.57 56.3312111229611 C 16.805999999999997 56.08054445629443, 17.142666666666663 55.9352111229611, 17.58 55.8952111229611 L 17.58 56.7832111229611 C 17.382666666666665 56.8392111229611, 17.281333333333333 56.96854445629444, 17.276 57.1712111229611 C 17.262666666666668 57.54187778962776, 17.253333333333334 57.88987778962777, 17.248 58.2152111229611 C 17.242666666666665 58.540544456294434, 17.24 58.857211122961104, 17.24 59.1652111229611 C 17.24 59.473211122961104, 17.242666666666665 59.78787778962777, 17.248 60.1092111229611 C 17.253333333333334 60.43054445629443, 17.262666666666668 60.77387778962776, 17.276 61.1392111229611 C 17.281333333333333 61.3472111229611, 17.382666666666665 61.479211122961104, 17.58 61.5352111229611 L 17.58 62.4232111229611 C 17.142666666666663 62.3832111229611, 16.805999999999997 62.2372111229611, 16.57 61.9852111229611 C 16.334000000000003 61.733211122961094, 16.209333333333333 61.387211122961105, 16.196 60.9472111229611 Z M 18.084 62.4232111229611 L 18.084 61.531211122961096 C 18.268 61.47787778962777, 18.366666666666667 61.35387778962777, 18.38 61.159211122961096 C 18.398666666666667 60.692544456294435, 18.410666666666668 60.243877789627774, 18.416 59.8132111229611 C 18.421333333333333 59.38254445629444, 18.421333333333333 58.95187778962777, 18.416 58.5212111229611 C 18.410666666666668 58.09054445629444, 18.398666666666667 57.637877789627765, 18.38 57.1632111229611 C 18.374666666666666 56.96854445629444, 18.276 56.841877789627766, 18.084 56.7832111229611 L 18.084 55.8952111229611 C 18.513333333333335 55.9352111229611, 18.846666666666668 56.08054445629443, 19.084 56.3312111229611 C 19.321333333333335 56.58187778962777, 19.445333333333334 56.9272111229611, 19.456 57.3672111229611 C 19.46666666666667 57.68187778962776, 19.474666666666668 57.991877789627765, 19.48 58.2972111229611 C 19.485333333333333 58.60254445629444, 19.488 58.903211122961096, 19.488 59.1992111229611 C 19.488 59.495211122961095, 19.485333333333333 59.78854445629443, 19.48 60.0792111229611 C 19.474666666666668 60.369877789627765, 19.46666666666667 60.659211122961096, 19.456 60.9472111229611 C 19.439999999999998 61.39787778962777, 19.311999999999998 61.74654445629443, 19.072 61.9932111229611 C 18.832 62.23987778962777, 18.502666666666666 62.3832111229611, 18.084 62.4232111229611 Z M 21.944 62.3592111229611 L 21.944 55.9592111229611 L 23.003999999999998 55.9592111229611 L 23.003999999999998 62.3592111229611 Z " stroke="none" fill-rule="nonzero" fill="#000000" fill-opacity="1" transform="matrix(1,0,0,1,5.05,13.314)" id="text30 l" />
  <path d="M 0 50.57736889836889 L 10 50.57736889836889 L 10 52.07736889836889 L 0 52.07736889836889 Z " stroke="none" fill-rule="evenodd" fill="#000000" fill-opacity="1" transform="matrix(1,0,0,1,5.05,13.314)" id="mark31 l" />
  <path d="M 0 37.74552667377668 L 10 37.74552667377668 L 10 39.24552667377668 L 0 39.24552667377668 Z " stroke="none" fill-rule="evenodd" fill="#000000" fill-opacity="1" transform="matrix(1,0,0,1,5.05,13.314)" id="mark32 l" />
  <path d="M 0 24.913684449184473 L 10 24.913684449184473 L 10 26.413684449184473 L 0 26.413684449184473 Z " stroke="none" fill-rule="evenodd" fill="#000000" fill-opacity="1" transform="matrix(1,0,0,1,5.05,13.314)" id="mark33 l" />
  <path d="M 0 12.081842224592208 L 10 12.081842224592208 L 10 13.581842224592208 L 0 13.581842224592208 Z " stroke="none" fill-rule="evenodd" fill="#000000" fill-opacity="1" transform="matrix(1,0,0,1,5.05,13.314)" id="mark34 l" />
  <path d="M 0 -0.75 L 25 -0.75 L 25 0.75 L 0 0.75 Z " stroke="none" fill-rule="evenodd" fill="#000000" fill-opacity="1" transform="matrix(1,0,0,1,5.05,13.314)" id="mark35 l" />
  <path d="M 12.232 -3.2479999999999998 C 12.229333333333333 -3.349333333333333, 12.227333333333334 -3.4333333333333336, 12.226 -3.5 C 12.224666666666668 -3.5666666666666664, 12.224666666666668 -3.6346666666666665, 12.226 -3.7039999999999997 C 12.227333333333334 -3.773333333333333, 12.229333333333333 -3.8626666666666667, 12.232 -3.972 L 13.312 -3.972 L 13.312 -3.1079999999999997 C 13.312 -2.8706666666666663, 13.425333333333333 -2.7199999999999998, 13.652 -2.6559999999999997 L 13.652 -1.7639999999999998 C 13.164 -1.801333333333333, 12.808666666666667 -1.9359999999999997, 12.586 -2.1679999999999997 C 12.363333333333333 -2.4, 12.245333333333335 -2.76, 12.232 -3.2479999999999998 Z M 12.3 -7.3 L 12.3 -8.232 L 15.544 -8.232 L 15.544 -7.3 Z M 14.152000000000001 -2.6519999999999997 C 14.376000000000001 -2.7079999999999997, 14.492 -2.8586666666666662, 14.5 -3.104 C 14.505333333333333 -3.3066666666666666, 14.508666666666667 -3.489333333333333, 14.51 -3.652 C 14.511333333333333 -3.8146666666666667, 14.506666666666668 -3.9719999999999995, 14.496 -4.124 C 14.488 -4.2813333333333325, 14.440000000000001 -4.414666666666666, 14.352 -4.524 C 14.264 -4.633333333333333, 14.097333333333335 -4.685333333333333, 13.852 -4.68 L 13.104 -4.672 L 13.076 -5.564 L 14.036 -6.9479999999999995 L 15.224 -6.9479999999999995 L 14.256 -5.596 L 14.288 -5.596 C 14.719999999999999 -5.596, 15.036666666666665 -5.473333333333333, 15.238 -5.228 C 15.439333333333334 -4.982666666666667, 15.552 -4.605333333333333, 15.576 -4.096 C 15.581333333333333 -4.024, 15.584666666666667 -3.952, 15.586 -3.88 C 15.587333333333333 -3.808, 15.588000000000001 -3.737333333333333, 15.588000000000001 -3.6679999999999997 C 15.588000000000001 -3.5986666666666665, 15.587333333333333 -3.529333333333333, 15.586 -3.46 C 15.584666666666667 -3.3906666666666667, 15.581333333333333 -3.3200000000000003, 15.576 -3.2479999999999998 C 15.557333333333334 -2.752, 15.436666666666667 -2.3873333333333333, 15.214 -2.154 C 14.991333333333333 -1.9206666666666665, 14.638666666666666 -1.7906666666666666, 14.156 -1.7639999999999998 Z M 16.18 -3.2479999999999998 C 16.174666666666667 -3.421333333333333, 16.173333333333332 -3.5606666666666666, 16.176 -3.666 C 16.178666666666665 -3.771333333333333, 16.181333333333335 -3.873333333333333, 16.183999999999997 -3.972 L 17.264 -3.972 C 17.256 -3.8946666666666667, 17.25 -3.7986666666666666, 17.246 -3.6839999999999997 C 17.241999999999997 -3.569333333333333, 17.240666666666666 -3.4586666666666663, 17.241999999999997 -3.352 C 17.243333333333332 -3.2453333333333334, 17.246666666666666 -3.1653333333333338, 17.252 -3.112 C 17.262666666666668 -2.992, 17.297333333333334 -2.8939999999999997, 17.355999999999998 -2.8179999999999996 C 17.414666666666665 -2.7419999999999995, 17.497333333333334 -2.6879999999999997, 17.604 -2.6559999999999997 L 17.604 -1.7639999999999998 C 17.110666666666663 -1.801333333333333, 16.75333333333333 -1.9359999999999997, 16.532 -2.1679999999999997 C 16.310666666666666 -2.4, 16.19333333333333 -2.76, 16.18 -3.2479999999999998 Z M 16.279999999999998 -4.584 L 16.279999999999998 -8.232 L 17.348 -8.232 L 17.348 -4.584 Z M 17.852 -5.008 L 17.852 -5.763999999999999 C 17.929333333333332 -5.804, 18.014666666666667 -5.836, 18.107999999999997 -5.86 C 18.20133333333333 -5.884, 18.301333333333332 -5.896, 18.407999999999998 -5.896 C 18.773333333333333 -5.896, 19.047333333333334 -5.780666666666667, 19.23 -5.55 C 19.412666666666667 -5.319333333333333, 19.514666666666663 -5.005333333333333, 19.535999999999998 -4.608 C 19.546666666666667 -4.448, 19.55333333333333 -4.289333333333333, 19.555999999999997 -4.132 C 19.558666666666664 -3.974666666666667, 19.557333333333332 -3.8213333333333335, 19.552 -3.6719999999999997 C 19.546666666666667 -3.522666666666667, 19.538666666666668 -3.3826666666666663, 19.528 -3.252 C 19.482666666666667 -2.753333333333333, 19.353333333333335 -2.388, 19.14 -2.1559999999999997 C 18.926666666666666 -1.9239999999999997, 18.581333333333333 -1.793333333333333, 18.104 -1.7639999999999998 L 18.104 -2.6559999999999997 C 18.21333333333333 -2.685333333333333, 18.296 -2.738, 18.352 -2.814 C 18.408 -2.89, 18.44 -2.9893333333333336, 18.448 -3.112 C 18.471999999999998 -3.4026666666666667, 18.485999999999997 -3.664, 18.49 -3.896 C 18.494 -4.128, 18.485333333333333 -4.349333333333333, 18.464 -4.5600000000000005 C 18.447999999999997 -4.714666666666667, 18.396666666666665 -4.83, 18.31 -4.906 C 18.223333333333333 -4.981999999999999, 18.090666666666664 -5.02, 17.912 -5.02 C 17.901333333333334 -5.02, 17.890666666666668 -5.018666666666666, 17.88 -5.016 C 17.86933333333333 -5.013333333333334, 17.86 -5.010666666666667, 17.852 -5.008 Z M 17.852 -7.3 L 17.852 -8.232 L 19.439999999999998 -8.232 L 19.439999999999998 -7.3 Z M 21.944 -1.8319999999999999 L 21.944 -8.232 L 23.003999999999998 -8.232 L 23.003999999999998 -1.8319999999999999 Z " stroke="none" fill-rule="nonzero" fill="#000000" fill-opacity="1" transform="matrix(1,0,0,1,5.05,13.314)" id="text35 l" />
  <path d="M -5 -13.264 L 30 -13.264 L 30 443.01863563613534 L -5 443.01863563613534 Z " stroke="#FF0000" stroke-opacity="1" stroke-width="0.1" stroke-linecap="butt" stroke-linejoin="miter" fill="none" transform="matrix(1,0,0,1,5.05,13.314)" />
</svg>