<?xml version="1.0" encoding="UTF-8"?>
<svg xmlns:xlink="http://www.w3.org/1999/xlink" viewBox="0 0 35.1 398.0560800698071" version="1.1" style="font-synthesis: none;" width="35.1mm" height="398.05608006980714mm" xmlns="http://www.w3.org/2000/svg">
  <defs />
  <style>	</style>
  <path d="M 0 0 L 35.1 0 L 35.1 398.0560800698071 L 0 398.0560800698071 Z " stroke="none" fill-rule="nonzero" fill="#FFFFFF" fill-opacity="1" transform="matrix(1,0,0,1,0,0)" />
  <path d="M 0 377.2060800698071 L 10 377.2060800698071 L 10 378.7060800698071 L 0 378.7060800698071 Z " stroke="none" fill-rule="evenodd" fill="#000000" fill-opacity="1" transform="matrix(1,0,0,1,5.05,13.314)" id="mark1 l" />
  <path d="M 0 368.61616915912964 L 10 368.61616915912964 L 10 370.11616915912964 L 0 370.11616915912964 Z " stroke="none" fill-rule="evenodd" fill="#000000" fill-opacity="1" transform="matrix(1,0,0,1,5.05,13.314)" id="mark2 l" />
  <path d="M 0 360.0262582484522 L 10 360.0262582484522 L 10 361.5262582484522 L 0 361.5262582484522 Z " stroke="none" fill-rule="evenodd" fill="#000000" fill-opacity="1" transform="matrix(1,0,0,1,5.05,13.314)" id="mark3 l" />
  <path d="M 0 351.4363473377748 L 10 351.4363473377748 L 10 352.9363473377748 L 0 352.9363473377748 Z " stroke="none" fill-rule="evenodd" fill="#000000" fill-opacity="1" transform="matrix(1,0,0,1,5.05,13.314)" id="mark4 l" />
  <path d="M 0 342.8464364270974 L 25 342.8464364270974 L 25 344.3464364270974 L 0 344.3464364270974 Z " stroke="none" fill-rule="evenodd" fill="#000000" fill-opacity="1" transform="matrix(1,0,0,1,5.05,13.314)" id="mark5 l" />
  <path d="M 16.18 340.3484364270974 C 16.174666666666667 340.17510309376405, 16.173333333333332 340.03576976043075, 16.176 339.9304364270974 C 16.178666666666665 339.825103093764, 16.181333333333335 339.72310309376405, 16.183999999999997 339.6244364270974 L 17.264 339.6244364270974 C 17.256 339.70176976043075, 17.25 339.79776976043075, 17.246 339.9124364270974 C 17.241999999999997 340.0271030937641, 17.240666666666666 340.13776976043073, 17.241999999999997 340.2444364270974 C 17.243333333333332 340.3511030937641, 17.246666666666666 340.4311030937641, 17.252 340.4844364270974 C 17.262666666666668 340.60443642709737, 17.297333333333334 340.7024364270974, 17.355999999999998 340.7784364270974 C 17.414666666666665 340.8544364270974, 17.497333333333334 340.9084364270974, 17.604 340.9404364270974 L 17.604 341.8324364270974 C 17.110666666666663 341.79510309376406, 16.75333333333333 341.6604364270974, 16.532 341.4284364270974 C 16.310666666666666 341.19643642709735, 16.19333333333333 340.8364364270974, 16.18 340.3484364270974 Z M 16.279999999999998 339.0124364270974 L 16.279999999999998 335.3644364270974 L 17.348 335.3644364270974 L 17.348 339.0124364270974 Z M 17.852 338.5884364270974 L 17.852 337.8324364270974 C 17.929333333333332 337.79243642709736, 18.014666666666667 337.7604364270974, 18.107999999999997 337.7364364270974 C 18.20133333333333 337.7124364270974, 18.301333333333332 337.7004364270974, 18.407999999999998 337.7004364270974 C 18.773333333333333 337.7004364270974, 19.047333333333334 337.8157697604307, 19.23 338.0464364270974 C 19.412666666666667 338.277103093764, 19.514666666666663 338.59110309376405, 19.535999999999998 338.9884364270974 C 19.546666666666667 339.1484364270974, 19.55333333333333 339.30710309376406, 19.555999999999997 339.4644364270974 C 19.558666666666664 339.6217697604307, 19.557333333333332 339.7751030937641, 19.552 339.9244364270974 C 19.546666666666667 340.07376976043076, 19.538666666666668 340.21376976043075, 19.528 340.3444364270974 C 19.482666666666667 340.84310309376406, 19.353333333333335 341.20843642709735, 19.14 341.4404364270974 C 18.926666666666666 341.6724364270974, 18.581333333333333 341.80310309376404, 18.104 341.8324364270974 L 18.104 340.9404364270974 C 18.21333333333333 340.91110309376404, 18.296 340.8584364270974, 18.352 340.78243642709737 C 18.408 340.7064364270974, 18.44 340.60710309376407, 18.448 340.4844364270974 C 18.471999999999998 340.1937697604307, 18.485999999999997 339.9324364270974, 18.49 339.7004364270974 C 18.494 339.4684364270974, 18.485333333333333 339.24710309376405, 18.464 339.0364364270974 C 18.447999999999997 338.88176976043076, 18.396666666666665 338.7664364270974, 18.31 338.6904364270974 C 18.223333333333333 338.6144364270974, 18.090666666666664 338.5764364270974, 17.912 338.5764364270974 C 17.901333333333334 338.5764364270974, 17.890666666666668 338.5777697604307, 17.88 338.58043642709737 C 17.86933333333333 338.58310309376407, 17.86 338.5857697604307, 17.852 338.5884364270974 Z M 17.852 336.2964364270974 L 17.852 335.3644364270974 L 19.439999999999998 335.3644364270974 L 19.439999999999998 336.2964364270974 Z M 21.944 341.7644364270974 L 21.944 335.3644364270974 L 23.003999999999998 335.3644364270974 L 23.003999999999998 341.7644364270974 Z " stroke="none" fill-rule="nonzero" fill="#000000" fill-opacity="1" transform="matrix(1,0,0,1,5.05,13.314)" id="text5 l" />
  <path d="M 0 334.2565255164199 L 10 334.2565255164199 L 10 335.7565255164199 L 0 335.7565255164199 Z " stroke="none" fill-rule="evenodd" fill="#000000" fill-opacity="1" transform="matrix(1,0,0,1,5.05,13.314)" id="mark6 l" />
  <path d="M 0 325.6666146057425 L 10 325.6666146057425 L 10 327.1666146057425 L 0 327.1666146057425 Z " stroke="none" fill-rule="evenodd" fill="#000000" fill-opacity="1" transform="matrix(1,0,0,1,5.05,13.314)" id="mark7 l" />
  <path d="M 0 317.0767036950651 L 10 317.0767036950651 L 10 318.5767036950651 L 0 318.5767036950651 Z " stroke="none" fill-rule="evenodd" fill="#000000" fill-opacity="1" transform="matrix(1,0,0,1,5.05,13.314)" id="mark8 l" />
  <path d="M 0 308.4867927843876 L 10 308.4867927843876 L 10 309.9867927843876 L 0 309.9867927843876 Z " stroke="none" fill-rule="evenodd" fill="#000000" fill-opacity="1" transform="matrix(1,0,0,1,5.05,13.314)" id="mark9 l" />
  <path d="M 0 299.8968818737102 L 25 299.8968818737102 L 25 301.3968818737102 L 0 301.3968818737102 Z " stroke="none" fill-rule="evenodd" fill="#000000" fill-opacity="1" transform="matrix(1,0,0,1,5.05,13.314)" id="mark10 l" />
  <path d="M 14.323999999999998 298.8468818737102 L 14.323999999999998 293.40288187371016 L 13.871999999999998 293.40288187371016 L 13.839999999999998 293.02288187371016 L 14.543999999999999 292.4468818737102 L 15.424 292.4468818737102 L 15.424 298.8468818737102 Z M 16.196 297.4348818737102 C 16.188000000000002 297.0055485403769, 16.182666666666666 296.5888818737102, 16.18 296.1848818737102 C 16.177333333333333 295.7808818737102, 16.177999999999997 295.3855485403769, 16.182 294.99888187371016 C 16.186 294.6122152070435, 16.190666666666665 294.23088187371013, 16.196 293.85488187371016 C 16.209333333333333 293.4148818737102, 16.334000000000003 293.06954854037684, 16.57 292.81888187371015 C 16.805999999999997 292.5682152070435, 17.142666666666663 292.4228818737102, 17.58 292.3828818737102 L 17.58 293.27088187371015 C 17.382666666666665 293.32688187371014, 17.281333333333333 293.4562152070435, 17.276 293.6588818737102 C 17.262666666666668 294.0295485403768, 17.253333333333334 294.37754854037684, 17.248 294.70288187371017 C 17.242666666666665 295.0282152070435, 17.24 295.34488187371016, 17.24 295.65288187371016 C 17.24 295.96088187371015, 17.242666666666665 296.2755485403768, 17.248 296.5968818737102 C 17.253333333333334 296.91821520704354, 17.262666666666668 297.26154854037685, 17.276 297.62688187371015 C 17.281333333333333 297.8348818737102, 17.382666666666665 297.9668818737102, 17.58 298.02288187371016 L 17.58 298.9108818737102 C 17.142666666666663 298.87088187371023, 16.805999999999997 298.72488187371016, 16.57 298.47288187371015 C 16.334000000000003 298.22088187371014, 16.209333333333333 297.8748818737102, 16.196 297.4348818737102 Z M 18.084 298.9108818737102 L 18.084 298.0188818737102 C 18.268 297.96554854037686, 18.366666666666667 297.84154854037683, 18.38 297.6468818737102 C 18.398666666666667 297.1802152070435, 18.410666666666668 296.7315485403768, 18.416 296.3008818737102 C 18.421333333333333 295.87021520704354, 18.421333333333333 295.43954854037685, 18.416 295.00888187371015 C 18.410666666666668 294.5782152070435, 18.398666666666667 294.1255485403768, 18.38 293.65088187371015 C 18.374666666666666 293.4562152070435, 18.276 293.32954854037683, 18.084 293.27088187371015 L 18.084 292.3828818737102 C 18.513333333333335 292.4228818737102, 18.846666666666668 292.5682152070435, 19.084 292.81888187371015 C 19.321333333333335 293.06954854037684, 19.445333333333334 293.4148818737102, 19.456 293.85488187371016 C 19.46666666666667 294.1695485403768, 19.474666666666668 294.47954854037687, 19.48 294.78488187371016 C 19.485333333333333 295.0902152070435, 19.488 295.39088187371016, 19.488 295.68688187371015 C 19.488 295.98288187371014, 19.485333333333333 296.2762152070435, 19.48 296.5668818737102 C 19.474666666666668 296.85754854037685, 19.46666666666667 297.1468818737102, 19.456 297.4348818737102 C 19.439999999999998 297.8855485403769, 19.311999999999998 298.2342152070435, 19.072 298.4808818737102 C 18.832 298.72754854037686, 18.502666666666666 298.87088187371023, 18.084 298.9108818737102 Z M 21.944 298.8468818737102 L 21.944 292.4468818737102 L 23.003999999999998 292.4468818737102 L 23.003999999999998 298.8468818737102 Z " stroke="none" fill-rule="nonzero" fill="#000000" fill-opacity="1" transform="matrix(1,0,0,1,5.05,13.314)" id="text10 l" />
  <path d="M 0 291.30697096303277 L 10 291.30697096303277 L 10 292.80697096303277 L 0 292.80697096303277 Z " stroke="none" fill-rule="evenodd" fill="#000000" fill-opacity="1" transform="matrix(1,0,0,1,5.05,13.314)" id="mark11 l" />
  <path d="M 0 282.71706005235535 L 10 282.71706005235535 L 10 284.21706005235535 L 0 284.21706005235535 Z " stroke="none" fill-rule="evenodd" fill="#000000" fill-opacity="1" transform="matrix(1,0,0,1,5.05,13.314)" id="mark12 l" />
  <path d="M 0 274.1271491416779 L 10 274.1271491416779 L 10 275.6271491416779 L 0 275.6271491416779 Z " stroke="none" fill-rule="evenodd" fill="#000000" fill-opacity="1" transform="matrix(1,0,0,1,5.05,13.314)" id="mark13 l" />
  <path d="M 0 265.53723823100046 L 10 265.53723823100046 L 10 267.03723823100046 L 0 267.03723823100046 Z " stroke="none" fill-rule="evenodd" fill="#000000" fill-opacity="1" transform="matrix(1,0,0,1,5.05,13.314)" id="mark14 l" />
  <path d="M 0 256.947327320323 L 25 256.947327320323 L 25 258.447327320323 L 0 258.447327320323 Z " stroke="none" fill-rule="evenodd" fill="#000000" fill-opacity="1" transform="matrix(1,0,0,1,5.05,13.314)" id="mark15 l" />
  <path d="M 14.331999999999999 255.865327320323 L 14.331999999999999 250.421327320323 L 13.879999999999999 250.421327320323 L 13.847999999999999 250.04132732032298 L 14.552 249.46532732032298 L 15.432 249.46532732032298 L 15.432 255.865327320323 Z M 16.18 254.449327320323 C 16.174666666666667 254.27599398698968, 16.173333333333332 254.13666065365635, 16.176 254.031327320323 C 16.178666666666665 253.92599398698968, 16.181333333333335 253.82399398698968, 16.183999999999997 253.725327320323 L 17.264 253.725327320323 C 17.256 253.80266065365632, 17.25 253.8986606536563, 17.246 254.013327320323 C 17.241999999999997 254.12799398698962, 17.240666666666666 254.23866065365632, 17.241999999999997 254.34532732032298 C 17.243333333333332 254.45199398698963, 17.246666666666666 254.53199398698965, 17.252 254.585327320323 C 17.262666666666668 254.705327320323, 17.297333333333334 254.80332732032298, 17.355999999999998 254.879327320323 C 17.414666666666665 254.95532732032297, 17.497333333333334 255.009327320323, 17.604 255.04132732032298 L 17.604 255.933327320323 C 17.110666666666663 255.89599398698965, 16.75333333333333 255.761327320323, 16.532 255.52932732032298 C 16.310666666666666 255.297327320323, 16.19333333333333 254.937327320323, 16.18 254.449327320323 Z M 16.279999999999998 253.11332732032298 L 16.279999999999998 249.46532732032298 L 17.348 249.46532732032298 L 17.348 253.11332732032298 Z M 17.852 252.689327320323 L 17.852 251.933327320323 C 17.929333333333332 251.893327320323, 18.014666666666667 251.861327320323, 18.107999999999997 251.837327320323 C 18.20133333333333 251.813327320323, 18.301333333333332 251.801327320323, 18.407999999999998 251.801327320323 C 18.773333333333333 251.801327320323, 19.047333333333334 251.91666065365632, 19.23 252.147327320323 C 19.412666666666667 252.37799398698968, 19.514666666666663 252.69199398698964, 19.535999999999998 253.08932732032298 C 19.546666666666667 253.249327320323, 19.55333333333333 253.40799398698965, 19.555999999999997 253.56532732032298 C 19.558666666666664 253.72266065365633, 19.557333333333332 253.87599398698967, 19.552 254.025327320323 C 19.546666666666667 254.1746606536563, 19.538666666666668 254.3146606536563, 19.528 254.445327320323 C 19.482666666666667 254.94399398698965, 19.353333333333335 255.309327320323, 19.14 255.54132732032298 C 18.926666666666666 255.773327320323, 18.581333333333333 255.9039939869897, 18.104 255.933327320323 L 18.104 255.04132732032298 C 18.21333333333333 255.01199398698964, 18.296 254.95932732032298, 18.352 254.883327320323 C 18.408 254.807327320323, 18.44 254.70799398698966, 18.448 254.585327320323 C 18.471999999999998 254.2946606536563, 18.485999999999997 254.033327320323, 18.49 253.801327320323 C 18.494 253.569327320323, 18.485333333333333 253.34799398698965, 18.464 253.13732732032298 C 18.447999999999997 252.9826606536563, 18.396666666666665 252.867327320323, 18.31 252.79132732032298 C 18.223333333333333 252.715327320323, 18.090666666666664 252.677327320323, 17.912 252.677327320323 C 17.901333333333334 252.677327320323, 17.890666666666668 252.67866065365632, 17.88 252.681327320323 C 17.86933333333333 252.68399398698966, 17.86 252.6866606536563, 17.852 252.689327320323 Z M 17.852 250.397327320323 L 17.852 249.46532732032298 L 19.439999999999998 249.46532732032298 L 19.439999999999998 250.397327320323 Z M 21.944 255.865327320323 L 21.944 249.46532732032298 L 23.003999999999998 249.46532732032298 L 23.003999999999998 255.865327320323 Z " stroke="none" fill-rule="nonzero" fill="#000000" fill-opacity="1" transform="matrix(1,0,0,1,5.05,13.314)" id="text15 l" />
  <path d="M 0 248.3574164096456 L 10 248.3574164096456 L 10 249.8574164096456 L 0 249.8574164096456 Z " stroke="none" fill-rule="evenodd" fill="#000000" fill-opacity="1" transform="matrix(1,0,0,1,5.05,13.314)" id="mark16 l" />
  <path d="M 0 239.76750549896815 L 10 239.76750549896815 L 10 241.26750549896815 L 0 241.26750549896815 Z " stroke="none" fill-rule="evenodd" fill="#000000" fill-opacity="1" transform="matrix(1,0,0,1,5.05,13.314)" id="mark17 l" />
  <path d="M 0 231.1775945882907 L 10 231.1775945882907 L 10 232.6775945882907 L 0 232.6775945882907 Z " stroke="none" fill-rule="evenodd" fill="#000000" fill-opacity="1" transform="matrix(1,0,0,1,5.05,13.314)" id="mark18 l" />
  <path d="M 0 222.58768367761328 L 10 222.58768367761328 L 10 224.08768367761328 L 0 224.08768367761328 Z " stroke="none" fill-rule="evenodd" fill="#000000" fill-opacity="1" transform="matrix(1,0,0,1,5.05,13.314)" id="mark19 l" />
  <path d="M 0 213.99777276693584 L 25 213.99777276693584 L 25 215.49777276693584 L 0 215.49777276693584 Z " stroke="none" fill-rule="evenodd" fill="#000000" fill-opacity="1" transform="matrix(1,0,0,1,5.05,13.314)" id="mark20 l" />
  <path d="M 12.319999999999999 212.94777276693586 C 12.317333333333334 212.84910610026918, 12.315333333333331 212.76043943360253, 12.313999999999998 212.68177276693586 C 12.312666666666665 212.6031061002692, 12.311333333333334 212.5291061002692, 12.309999999999999 212.45977276693586 C 12.308666666666667 212.39043943360252, 12.308 212.31843943360252, 12.308 212.24377276693585 C 12.308 212.16910610026918, 12.308 212.08443943360254, 12.308 211.98977276693586 C 12.308 211.89510610026917, 12.309333333333335 211.78377276693584, 12.312 211.65577276693585 C 12.32 211.3624394336025, 12.37 211.1004394336025, 12.462 210.86977276693585 C 12.554 210.6391061002692, 12.687999999999999 210.43310610026919, 12.863999999999999 210.25177276693586 C 13.04 210.07043943360253, 13.257333333333333 209.90910610026918, 13.515999999999998 209.76777276693585 L 14.047999999999998 209.47977276693587 C 14.234666666666666 209.37843943360252, 14.354 209.2564394336025, 14.405999999999999 209.11377276693585 C 14.457999999999998 208.9711061002692, 14.488 208.83710610026918, 14.495999999999999 208.71177276693587 C 14.506666666666664 208.5651061002692, 14.512666666666664 208.40843943360255, 14.514 208.24177276693587 C 14.51533333333333 208.07510610026918, 14.511999999999997 207.91843943360254, 14.504 207.77177276693587 C 14.498666666666665 207.66777276693585, 14.468666666666666 207.58177276693587, 14.413999999999998 207.51377276693586 C 14.359333333333332 207.44577276693585, 14.279999999999998 207.39710610026918, 14.175999999999998 207.36777276693584 L 14.175999999999998 206.47977276693587 C 14.663999999999998 206.51177276693585, 15.014 206.6431061002692, 15.225999999999999 206.87377276693584 C 15.437999999999999 207.10443943360252, 15.554666666666666 207.4651061002692, 15.575999999999999 207.95577276693587 C 15.578666666666663 208.01977276693586, 15.580666666666666 208.08510610026917, 15.581999999999999 208.15177276693586 C 15.583333333333332 208.2184394336025, 15.584 208.28310610026918, 15.584 208.34577276693585 C 15.584 208.40843943360252, 15.583333333333332 208.4704394336025, 15.581999999999999 208.53177276693586 C 15.580666666666666 208.59310610026915, 15.578666666666663 208.65310610026916, 15.575999999999999 208.71177276693587 C 15.565333333333331 208.9971061002692, 15.512 209.24377276693588, 15.415999999999999 209.45177276693585 C 15.32 209.65977276693587, 15.19 209.83977276693588, 15.026 209.99177276693587 C 14.862 210.14377276693585, 14.672 210.27977276693588, 14.456 210.39977276693585 L 13.851999999999999 210.72777276693586 C 13.737333333333332 210.78910610026918, 13.647333333333332 210.87310610026918, 13.581999999999999 210.97977276693587 C 13.516666666666666 211.08643943360255, 13.469999999999999 211.19977276693587, 13.441999999999998 211.31977276693584 C 13.413999999999998 211.43977276693585, 13.399999999999999 211.55177276693587, 13.399999999999999 211.65577276693585 L 13.399999999999999 212.94777276693586 Z M 12.328 208.90777276693586 C 12.322666666666667 208.7904394336025, 12.318666666666665 208.67577276693584, 12.315999999999999 208.56377276693587 C 12.313333333333333 208.45177276693585, 12.311333333333334 208.34577276693585, 12.309999999999999 208.24577276693586 C 12.308666666666667 208.14577276693586, 12.309333333333335 208.0491061002692, 12.312 207.95577276693587 C 12.330666666666666 207.46777276693587, 12.447333333333333 207.10843943360254, 12.661999999999999 206.87777276693586 C 12.876666666666665 206.64710610026918, 13.213333333333331 206.51443943360255, 13.671999999999999 206.47977276693587 L 13.671999999999999 207.37177276693586 C 13.576 207.4011061002692, 13.505333333333333 207.44777276693583, 13.459999999999999 207.51177276693585 C 13.414666666666665 207.57577276693587, 13.390666666666664 207.6531061002692, 13.387999999999998 207.74377276693585 C 13.382666666666665 207.95177276693585, 13.379333333333333 208.14510610026917, 13.378 208.32377276693586 C 13.376666666666667 208.50243943360255, 13.381333333333334 208.6971061002692, 13.392 208.90777276693586 Z M 13.904 212.94777276693586 L 13.904 212.01577276693587 L 15.5 212.01577276693587 L 15.5 212.94777276693586 Z M 16.196 211.53577276693585 C 16.188000000000002 211.1064394336025, 16.182666666666666 210.68977276693585, 16.18 210.28577276693585 C 16.177333333333333 209.88177276693585, 16.177999999999997 209.48643943360253, 16.182 209.09977276693584 C 16.186 208.71310610026921, 16.190666666666665 208.33177276693587, 16.196 207.95577276693587 C 16.209333333333333 207.51577276693587, 16.334000000000003 207.17043943360255, 16.57 206.91977276693586 C 16.805999999999997 206.66910610026918, 17.142666666666663 206.52377276693585, 17.58 206.48377276693586 L 17.58 207.37177276693586 C 17.382666666666665 207.42777276693585, 17.281333333333333 207.5571061002692, 17.276 207.75977276693587 C 17.262666666666668 208.13043943360253, 17.253333333333334 208.4784394336025, 17.248 208.80377276693585 C 17.242666666666665 209.12910610026915, 17.24 209.44577276693585, 17.24 209.75377276693587 C 17.24 210.06177276693586, 17.242666666666665 210.3764394336025, 17.248 210.69777276693586 C 17.253333333333334 211.0191061002692, 17.262666666666668 211.3624394336025, 17.276 211.72777276693586 C 17.281333333333333 211.93577276693588, 17.382666666666665 212.06777276693586, 17.58 212.12377276693584 L 17.58 213.01177276693585 C 17.142666666666663 212.97177276693583, 16.805999999999997 212.82577276693584, 16.57 212.57377276693586 C 16.334000000000003 212.32177276693585, 16.209333333333333 211.97577276693585, 16.196 211.53577276693585 Z M 18.084 213.01177276693585 L 18.084 212.11977276693585 C 18.268 212.0664394336025, 18.366666666666667 211.94243943360254, 18.38 211.74777276693587 C 18.398666666666667 211.2811061002692, 18.410666666666668 210.83243943360253, 18.416 210.40177276693586 C 18.421333333333333 209.9711061002692, 18.421333333333333 209.5404394336025, 18.416 209.10977276693586 C 18.410666666666668 208.67910610026917, 18.398666666666667 208.22643943360254, 18.38 207.75177276693586 C 18.374666666666666 207.5571061002692, 18.276 207.43043943360254, 18.084 207.37177276693586 L 18.084 206.48377276693586 C 18.513333333333335 206.52377276693585, 18.846666666666668 206.66910610026918, 19.084 206.91977276693586 C 19.321333333333335 207.17043943360255, 19.445333333333334 207.51577276693587, 19.456 207.95577276693587 C 19.46666666666667 208.27043943360252, 19.474666666666668 208.58043943360252, 19.48 208.88577276693584 C 19.485333333333333 209.19110610026917, 19.488 209.49177276693587, 19.488 209.78777276693586 C 19.488 210.08377276693585, 19.485333333333333 210.37710610026917, 19.48 210.66777276693585 C 19.474666666666668 210.95843943360254, 19.46666666666667 211.24777276693587, 19.456 211.53577276693585 C 19.439999999999998 211.98643943360253, 19.311999999999998 212.33510610026917, 19.072 212.58177276693584 C 18.832 212.8284394336025, 18.502666666666666 212.97177276693583, 18.084 213.01177276693585 Z M 21.944 212.94777276693586 L 21.944 206.54777276693585 L 23.003999999999998 206.54777276693585 L 23.003999999999998 212.94777276693586 Z " stroke="none" fill-rule="nonzero" fill="#000000" fill-opacity="1" transform="matrix(1,0,0,1,5.05,13.314)" id="text20 l" />
  <path d="M 0 205.40786185625842 L 10 205.40786185625842 L 10 206.90786185625842 L 0 206.90786185625842 Z " stroke="none" fill-rule="evenodd" fill="#000000" fill-opacity="1" transform="matrix(1,0,0,1,5.05,13.314)" id="mark21 l" />
  <path d="M 0 196.81795094558098 L 10 196.81795094558098 L 10 198.31795094558098 L 0 198.31795094558098 Z " stroke="none" fill-rule="evenodd" fill="#000000" fill-opacity="1" transform="matrix(1,0,0,1,5.05,13.314)" id="mark22 l" />
  <path d="M 0 188.22804003490356 L 10 188.22804003490356 L 10 189.72804003490356 L 0 189.72804003490356 Z " stroke="none" fill-rule="evenodd" fill="#000000" fill-opacity="1" transform="matrix(1,0,0,1,5.05,13.314)" id="mark23 l" />
  <path d="M 0 179.6381291242261 L 10 179.6381291242261 L 10 181.1381291242261 L 0 181.1381291242261 Z " stroke="none" fill-rule="evenodd" fill="#000000" fill-opacity="1" transform="matrix(1,0,0,1,5.05,13.314)" id="mark24 l" />
  <path d="M 0 171.04821821354867 L 25 171.04821821354867 L 25 172.54821821354867 L 0 172.54821821354867 Z " stroke="none" fill-rule="evenodd" fill="#000000" fill-opacity="1" transform="matrix(1,0,0,1,5.05,13.314)" id="mark25 l" />
  <path d="M 12.328 169.99821821354868 C 12.325333333333333 169.89955154688204, 12.323333333333332 169.81088488021535, 12.322 169.7322182135487 C 12.320666666666666 169.65355154688203, 12.319333333333333 169.57955154688204, 12.318 169.51021821354868 C 12.316666666666666 169.44088488021532, 12.315999999999999 169.36888488021532, 12.316 169.29421821354867 C 12.315999999999999 169.21955154688203, 12.315999999999999 169.13488488021534, 12.316 169.04021821354868 C 12.315999999999999 168.94555154688203, 12.317333333333334 168.8342182135487, 12.32 168.70621821354868 C 12.328 168.41288488021536, 12.378 168.15088488021536, 12.47 167.92021821354868 C 12.562000000000001 167.689551546882, 12.696 167.483551546882, 12.872 167.30221821354868 C 13.048 167.12088488021536, 13.265333333333334 166.95955154688204, 13.524000000000001 166.81821821354868 L 14.056000000000001 166.5302182135487 C 14.242666666666668 166.42888488021535, 14.362000000000002 166.30688488021534, 14.414 166.16421821354868 C 14.466000000000001 166.02155154688202, 14.495999999999999 165.887551546882, 14.504 165.7622182135487 C 14.514666666666667 165.61555154688202, 14.520666666666667 165.45888488021535, 14.522 165.2922182135487 C 14.523333333333333 165.12555154688204, 14.520000000000001 164.96888488021537, 14.512 164.8222182135487 C 14.506666666666666 164.71821821354868, 14.476666666666667 164.6322182135487, 14.422 164.56421821354868 C 14.367333333333335 164.49621821354867, 14.288 164.447551546882, 14.184000000000001 164.41821821354867 L 14.184000000000001 163.5302182135487 C 14.672 163.5622182135487, 15.022000000000002 163.69355154688202, 15.234 163.92421821354867 C 15.446000000000002 164.15488488021535, 15.562666666666667 164.51555154688202, 15.584 165.0062182135487 C 15.586666666666668 165.07021821354869, 15.588666666666668 165.13555154688203, 15.59 165.2022182135487 C 15.591333333333335 165.26888488021535, 15.592000000000002 165.333551546882, 15.592 165.39621821354868 C 15.592000000000002 165.45888488021535, 15.591333333333335 165.52088488021533, 15.59 165.58221821354869 C 15.588666666666668 165.643551546882, 15.586666666666668 165.703551546882, 15.584 165.7622182135487 C 15.573333333333332 166.04755154688203, 15.52 166.29421821354867, 15.424 166.50221821354867 C 15.328 166.71021821354867, 15.197999999999999 166.89021821354868, 15.033999999999999 167.0422182135487 C 14.87 167.19421821354868, 14.68 167.33021821354868, 14.464 167.45021821354868 L 13.86 167.77821821354868 C 13.745333333333335 167.83955154688203, 13.655333333333335 167.92355154688204, 13.59 168.0302182135487 C 13.524666666666668 168.13688488021535, 13.478000000000002 168.2502182135487, 13.45 168.3702182135487 C 13.422 168.4902182135487, 13.408 168.60221821354867, 13.408 168.70621821354868 L 13.408 169.99821821354868 Z M 12.336 165.9582182135487 C 12.330666666666666 165.84088488021536, 12.326666666666664 165.72621821354866, 12.324 165.61421821354867 C 12.321333333333332 165.50221821354867, 12.319333333333333 165.39621821354868, 12.318 165.29621821354868 C 12.316666666666666 165.1962182135487, 12.317333333333334 165.09955154688203, 12.32 165.0062182135487 C 12.338666666666668 164.5182182135487, 12.455333333333336 164.15888488021537, 12.67 163.9282182135487 C 12.884666666666668 163.697551546882, 13.221333333333334 163.56488488021535, 13.68 163.5302182135487 L 13.68 164.4222182135487 C 13.584 164.451551546882, 13.513333333333332 164.49821821354868, 13.468 164.56221821354868 C 13.422666666666668 164.62621821354867, 13.398666666666667 164.703551546882, 13.396 164.79421821354867 C 13.390666666666666 165.0022182135487, 13.387333333333332 165.19555154688203, 13.386 165.3742182135487 C 13.384666666666666 165.55288488021534, 13.389333333333333 165.74755154688202, 13.4 165.9582182135487 Z M 13.911999999999999 169.99821821354868 L 13.911999999999999 169.0662182135487 L 15.508 169.0662182135487 L 15.508 169.99821821354868 Z M 16.18 168.58221821354869 C 16.174666666666667 168.40888488021537, 16.173333333333332 168.26955154688204, 16.176 168.16421821354868 C 16.178666666666665 168.05888488021537, 16.181333333333335 167.95688488021537, 16.183999999999997 167.8582182135487 L 17.264 167.8582182135487 C 17.256 167.935551546882, 17.25 168.031551546882, 17.246 168.14621821354868 C 17.241999999999997 168.26088488021534, 17.240666666666666 168.37155154688202, 17.241999999999997 168.47821821354867 C 17.243333333333332 168.58488488021533, 17.246666666666666 168.66488488021534, 17.252 168.71821821354868 C 17.262666666666668 168.83821821354869, 17.297333333333334 168.93621821354867, 17.355999999999998 169.0122182135487 C 17.414666666666665 169.08821821354866, 17.497333333333334 169.14221821354866, 17.604 169.17421821354867 L 17.604 170.0662182135487 C 17.110666666666663 170.02888488021534, 16.75333333333333 169.89421821354867, 16.532 169.66221821354867 C 16.310666666666666 169.43021821354867, 16.19333333333333 169.07021821354869, 16.18 168.58221821354869 Z M 16.279999999999998 167.24621821354867 L 16.279999999999998 163.59821821354868 L 17.348 163.59821821354868 L 17.348 167.24621821354867 Z M 17.852 166.8222182135487 L 17.852 166.0662182135487 C 17.929333333333332 166.0262182135487, 18.014666666666667 165.9942182135487, 18.107999999999997 165.9702182135487 C 18.20133333333333 165.9462182135487, 18.301333333333332 165.9342182135487, 18.407999999999998 165.9342182135487 C 18.773333333333333 165.9342182135487, 19.047333333333334 166.04955154688201, 19.23 166.2802182135487 C 19.412666666666667 166.51088488021534, 19.514666666666663 166.82488488021534, 19.535999999999998 167.22221821354867 C 19.546666666666667 167.38221821354867, 19.55333333333333 167.54088488021534, 19.555999999999997 167.69821821354867 C 19.558666666666664 167.85555154688203, 19.557333333333332 168.00888488021536, 19.552 168.15821821354868 C 19.546666666666667 168.307551546882, 19.538666666666668 168.447551546882, 19.528 168.5782182135487 C 19.482666666666667 169.07688488021535, 19.353333333333335 169.4422182135487, 19.14 169.67421821354867 C 18.926666666666666 169.9062182135487, 18.581333333333333 170.03688488021535, 18.104 170.0662182135487 L 18.104 169.17421821354867 C 18.21333333333333 169.14488488021536, 18.296 169.09221821354868, 18.352 169.01621821354868 C 18.408 168.9402182135487, 18.44 168.84088488021536, 18.448 168.71821821354868 C 18.471999999999998 168.427551546882, 18.485999999999997 168.1662182135487, 18.49 167.9342182135487 C 18.494 167.7022182135487, 18.485333333333333 167.48088488021534, 18.464 167.27021821354867 C 18.447999999999997 167.115551546882, 18.396666666666665 167.00021821354866, 18.31 166.92421821354867 C 18.223333333333333 166.84821821354868, 18.090666666666664 166.8102182135487, 17.912 166.8102182135487 C 17.901333333333334 166.8102182135487, 17.890666666666668 166.81155154688201, 17.88 166.81421821354868 C 17.86933333333333 166.81688488021535, 17.86 166.81955154688202, 17.852 166.8222182135487 Z M 17.852 164.5302182135487 L 17.852 163.59821821354868 L 19.439999999999998 163.59821821354868 L 19.439999999999998 164.5302182135487 Z M 21.944 169.99821821354868 L 21.944 163.59821821354868 L 23.003999999999998 163.59821821354868 L 23.003999999999998 169.99821821354868 Z " stroke="none" fill-rule="nonzero" fill="#000000" fill-opacity="1" transform="matrix(1,0,0,1,5.05,13.314)" id="text25 l" />
  <path d="M 0 162.45830730287125 L 10 162.45830730287125 L 10 163.95830730287125 L 0 163.95830730287125 Z " stroke="none" fill-rule="evenodd" fill="#000000" fill-opacity="1" transform="matrix(1,0,0,1,5.05,13.314)" id="mark26 l" />
  <path d="M 0 153.8683963921938 L 10 153.8683963921938 L 10 155.3683963921938 L 0 155.3683963921938 Z " stroke="none" fill-rule="evenodd" fill="#000000" fill-opacity="1" transform="matrix(1,0,0,1,5.05,13.314)" id="mark27 l" />
  <path d="M 0 145.27848548151638 L 10 145.27848548151638 L 10 146.77848548151638 L 0 146.77848548151638 Z " stroke="none" fill-rule="evenodd" fill="#000000" fill-opacity="1" transform="matrix(1,0,0,1,5.05,13.314)" id="mark28 l" />
  <path d="M 0 136.68857457083894 L 10 136.68857457083894 L 10 138.18857457083894 L 0 138.18857457083894 Z " stroke="none" fill-rule="evenodd" fill="#000000" fill-opacity="1" transform="matrix(1,0,0,1,5.05,13.314)" id="mark29 l" />
  <path d="M 0 128.0986636601615 L 25 128.0986636601615 L 25 129.5986636601615 L 0 129.5986636601615 Z " stroke="none" fill-rule="evenodd" fill="#000000" fill-opacity="1" transform="matrix(1,0,0,1,5.05,13.314)" id="mark30 l" />
  <path d="M 12.223999999999998 125.6326636601615 C 12.221333333333334 125.53133032682817, 12.219333333333333 125.44733032682817, 12.218 125.38066366016149 C 12.216666666666667 125.31399699349481, 12.216666666666667 125.24599699349483, 12.218 125.1766636601615 C 12.219333333333333 125.10733032682816, 12.221333333333334 125.01799699349482, 12.223999999999998 124.9086636601615 L 13.303999999999998 124.9086636601615 L 13.303999999999998 125.7726636601615 C 13.303999999999998 126.00999699349484, 13.417333333333332 126.1606636601615, 13.643999999999998 126.2246636601615 L 13.643999999999998 127.11666366016149 C 13.155999999999999 127.07933032682816, 12.800666666666665 126.9446636601615, 12.578 126.7126636601615 C 12.355333333333334 126.4806636601615, 12.237333333333332 126.12066366016148, 12.223999999999998 125.6326636601615 Z M 12.292 121.58066366016149 L 12.292 120.64866366016149 L 15.536 120.64866366016149 L 15.536 121.58066366016149 Z M 14.143999999999998 126.2286636601615 C 14.367999999999999 126.1726636601615, 14.483999999999998 126.02199699349484, 14.491999999999999 125.77666366016149 C 14.497333333333334 125.57399699349483, 14.500666666666666 125.39133032682818, 14.501999999999999 125.2286636601615 C 14.503333333333332 125.06599699349482, 14.498666666666665 124.9086636601615, 14.488 124.7566636601615 C 14.48 124.59933032682815, 14.431999999999999 124.46599699349483, 14.344 124.3566636601615 C 14.256 124.24733032682818, 14.089333333333332 124.19533032682816, 13.844 124.2006636601615 L 13.096 124.20866366016149 L 13.068 123.3166636601615 L 14.027999999999999 121.9326636601615 L 15.216 121.9326636601615 L 14.248 123.2846636601615 L 14.28 123.2846636601615 C 14.712 123.2846636601615, 15.028666666666666 123.40733032682817, 15.229999999999999 123.6526636601615 C 15.431333333333333 123.89799699349481, 15.544 124.27533032682815, 15.568 124.7846636601615 C 15.57333333333333 124.85666366016149, 15.576666666666664 124.92866366016148, 15.578 125.00066366016149 C 15.57933333333333 125.07266366016148, 15.579999999999998 125.14333032682816, 15.579999999999998 125.2126636601615 C 15.579999999999998 125.28199699349483, 15.57933333333333 125.35133032682816, 15.578 125.4206636601615 C 15.576666666666664 125.48999699349483, 15.57333333333333 125.56066366016148, 15.568 125.6326636601615 C 15.549333333333333 126.1286636601615, 15.428666666666665 126.49333032682816, 15.206 126.72666366016149 C 14.983333333333334 126.95999699349483, 14.630666666666666 127.08999699349484, 14.148 127.11666366016149 Z M 16.196 125.63666366016149 C 16.188000000000002 125.20733032682816, 16.182666666666666 124.7906636601615, 16.18 124.38666366016149 C 16.177333333333333 123.98266366016148, 16.177999999999997 123.58733032682815, 16.182 123.2006636601615 C 16.186 122.81399699349484, 16.190666666666665 122.4326636601615, 16.196 122.05666366016149 C 16.209333333333333 121.61666366016149, 16.334000000000003 121.27133032682815, 16.57 121.02066366016149 C 16.805999999999997 120.76999699349483, 17.142666666666663 120.6246636601615, 17.58 120.5846636601615 L 17.58 121.4726636601615 C 17.382666666666665 121.5286636601615, 17.281333333333333 121.65799699349483, 17.276 121.86066366016149 C 17.262666666666668 122.23133032682816, 17.253333333333334 122.57933032682814, 17.248 122.90466366016149 C 17.242666666666665 123.22999699349481, 17.24 123.54666366016149, 17.24 123.85466366016149 C 17.24 124.1626636601615, 17.242666666666665 124.47733032682817, 17.248 124.7986636601615 C 17.253333333333334 125.11999699349482, 17.262666666666668 125.46333032682816, 17.276 125.8286636601615 C 17.281333333333333 126.0366636601615, 17.382666666666665 126.16866366016149, 17.58 126.2246636601615 L 17.58 127.11266366016149 C 17.142666666666663 127.0726636601615, 16.805999999999997 126.9266636601615, 16.57 126.6746636601615 C 16.334000000000003 126.4226636601615, 16.209333333333333 126.0766636601615, 16.196 125.63666366016149 Z M 18.084 127.11266366016149 L 18.084 126.22066366016149 C 18.268 126.16733032682816, 18.366666666666667 126.04333032682817, 18.38 125.84866366016149 C 18.398666666666667 125.38199699349482, 18.410666666666668 124.93333032682816, 18.416 124.50266366016149 C 18.421333333333333 124.07199699349482, 18.421333333333333 123.64133032682815, 18.416 123.2106636601615 C 18.410666666666668 122.77999699349482, 18.398666666666667 122.32733032682816, 18.38 121.8526636601615 C 18.374666666666666 121.65799699349483, 18.276 121.53133032682817, 18.084 121.4726636601615 L 18.084 120.5846636601615 C 18.513333333333335 120.6246636601615, 18.846666666666668 120.76999699349483, 19.084 121.02066366016149 C 19.321333333333335 121.27133032682815, 19.445333333333334 121.61666366016149, 19.456 122.05666366016149 C 19.46666666666667 122.37133032682816, 19.474666666666668 122.68133032682816, 19.48 122.9866636601615 C 19.485333333333333 123.29199699349483, 19.488 123.59266366016149, 19.488 123.8886636601615 C 19.488 124.1846636601615, 19.485333333333333 124.47799699349483, 19.48 124.7686636601615 C 19.474666666666668 125.05933032682816, 19.46666666666667 125.34866366016149, 19.456 125.63666366016149 C 19.439999999999998 126.08733032682815, 19.311999999999998 126.43599699349483, 19.072 126.6826636601615 C 18.832 126.92933032682816, 18.502666666666666 127.0726636601615, 18.084 127.11266366016149 Z M 21.944 127.0486636601615 L 21.944 120.64866366016149 L 23.003999999999998 120.64866366016149 L 23.003999999999998 127.0486636601615 Z " stroke="none" fill-rule="nonzero" fill="#000000" fill-opacity="1" transform="matrix(1,0,0,1,5.05,13.314)" id="text30 l" />
  <path d="M 0 119.50875274948407 L 10 119.50875274948407 L 10 121.00875274948407 L 0 121.00875274948407 Z " stroke="none" fill-rule="evenodd" fill="#000000" fill-opacity="1" transform="matrix(1,0,0,1,5.05,13.314)" id="mark31 l" />
  <path d="M 0 110.91884183880666 L 10 110.91884183880666 L 10 112.41884183880666 L 0 112.41884183880666 Z " stroke="none" fill-rule="evenodd" fill="#000000" fill-opacity="1" transform="matrix(1,0,0,1,5.05,13.314)" id="mark32 l" />
  <path d="M 0 102.32893092812918 L 10 102.32893092812918 L 10 103.82893092812918 L 0 103.82893092812918 Z " stroke="none" fill-rule="evenodd" fill="#000000" fill-opacity="1" transform="matrix(1,0,0,1,5.05,13.314)" id="mark33 l" />
  <path d="M 0 93.73902001745176 L 10 93.73902001745176 L 10 95.23902001745176 L 0 95.23902001745176 Z " stroke="none" fill-rule="evenodd" fill="#000000" fill-opacity="1" transform="matrix(1,0,0,1,5.05,13.314)" id="mark34 l" />
  <path d="M 0 85.14910910677435 L 25 85.14910910677435 L 25 86.64910910677435 L 0 86.64910910677435 Z " stroke="none" fill-rule="evenodd" fill="#000000" fill-opacity="1" transform="matrix(1,0,0,1,5.05,13.314)" id="mark35 l" />
  <path d="M 12.232 82.65110910677436 C 12.229333333333333 82.54977577344103, 12.227333333333334 82.46577577344102, 12.226 82.39910910677435 C 12.224666666666668 82.33244244010768, 12.224666666666668 82.26444244010769, 12.226 82.19510910677435 C 12.227333333333334 82.12577577344102, 12.229333333333333 82.03644244010769, 12.232 81.92710910677435 L 13.312 81.92710910677435 L 13.312 82.79110910677436 C 13.312 83.02844244010768, 13.425333333333333 83.17910910677435, 13.652 83.24310910677436 L 13.652 84.13510910677435 C 13.164 84.09777577344101, 12.808666666666667 83.96310910677435, 12.586 83.73110910677435 C 12.363333333333333 83.49910910677436, 12.245333333333335 83.13910910677436, 12.232 82.65110910677436 Z M 12.3 78.59910910677435 L 12.3 77.66710910677435 L 15.544 77.66710910677435 L 15.544 78.59910910677435 Z M 14.152000000000001 83.24710910677436 C 14.376000000000001 83.19110910677436, 14.492 83.04044244010768, 14.5 82.79510910677435 C 14.505333333333333 82.59244244010769, 14.508666666666667 82.40977577344103, 14.51 82.24710910677436 C 14.511333333333333 82.0844424401077, 14.506666666666668 81.92710910677435, 14.496 81.77510910677435 C 14.488 81.61777577344101, 14.440000000000001 81.48444244010767, 14.352 81.37510910677435 C 14.264 81.26577577344102, 14.097333333333335 81.21377577344103, 13.852 81.21910910677435 L 13.104 81.22710910677435 L 13.076 80.33510910677435 L 14.036 78.95110910677435 L 15.224 78.95110910677435 L 14.256 80.30310910677436 L 14.288 80.30310910677436 C 14.719999999999999 80.30310910677436, 15.036666666666665 80.42577577344102, 15.238 80.67110910677435 C 15.439333333333334 80.91644244010769, 15.552 81.29377577344101, 15.576 81.80310910677436 C 15.581333333333333 81.87510910677435, 15.584666666666667 81.94710910677435, 15.586 82.01910910677435 C 15.587333333333333 82.09110910677435, 15.588000000000001 82.16177577344102, 15.588000000000001 82.23110910677435 C 15.588000000000001 82.30044244010769, 15.587333333333333 82.36977577344102, 15.586 82.43910910677435 C 15.584666666666667 82.50844244010769, 15.581333333333333 82.57910910677435, 15.576 82.65110910677436 C 15.557333333333334 83.14710910677435, 15.436666666666667 83.51177577344102, 15.214 83.74510910677435 C 14.991333333333333 83.97844244010768, 14.638666666666666 84.1084424401077, 14.156 84.13510910677435 Z M 16.18 82.65110910677436 C 16.174666666666667 82.47777577344102, 16.173333333333332 82.33844244010768, 16.176 82.23310910677435 C 16.178666666666665 82.12777577344102, 16.181333333333335 82.02577577344101, 16.183999999999997 81.92710910677435 L 17.264 81.92710910677435 C 17.256 82.00444244010768, 17.25 82.10044244010768, 17.246 82.21510910677435 C 17.241999999999997 82.32977577344101, 17.240666666666666 82.44044244010769, 17.241999999999997 82.54710910677436 C 17.243333333333332 82.65377577344103, 17.246666666666666 82.73377577344102, 17.252 82.78710910677435 C 17.262666666666668 82.90710910677436, 17.297333333333334 83.00510910677436, 17.355999999999998 83.08110910677435 C 17.414666666666665 83.15710910677436, 17.497333333333334 83.21110910677436, 17.604 83.24310910677436 L 17.604 84.13510910677435 C 17.110666666666663 84.09777577344101, 16.75333333333333 83.96310910677435, 16.532 83.73110910677435 C 16.310666666666666 83.49910910677436, 16.19333333333333 83.13910910677436, 16.18 82.65110910677436 Z M 16.279999999999998 81.31510910677436 L 16.279999999999998 77.66710910677435 L 17.348 77.66710910677435 L 17.348 81.31510910677436 Z M 17.852 80.89110910677435 L 17.852 80.13510910677435 C 17.929333333333332 80.09510910677434, 18.014666666666667 80.06310910677435, 18.107999999999997 80.03910910677435 C 18.20133333333333 80.01510910677436, 18.301333333333332 80.00310910677436, 18.407999999999998 80.00310910677436 C 18.773333333333333 80.00310910677436, 19.047333333333334 80.11844244010769, 19.23 80.34910910677435 C 19.412666666666667 80.57977577344101, 19.514666666666663 80.89377577344102, 19.535999999999998 81.29110910677436 C 19.546666666666667 81.45110910677435, 19.55333333333333 81.60977577344102, 19.555999999999997 81.76710910677436 C 19.558666666666664 81.9244424401077, 19.557333333333332 82.07777577344102, 19.552 82.22710910677435 C 19.546666666666667 82.37644244010768, 19.538666666666668 82.51644244010768, 19.528 82.64710910677435 C 19.482666666666667 83.14577577344102, 19.353333333333335 83.51110910677436, 19.14 83.74310910677436 C 18.926666666666666 83.97510910677435, 18.581333333333333 84.10577577344102, 18.104 84.13510910677435 L 18.104 83.24310910677436 C 18.21333333333333 83.21377577344103, 18.296 83.16110910677436, 18.352 83.08510910677435 C 18.408 83.00910910677435, 18.44 82.90977577344101, 18.448 82.78710910677435 C 18.471999999999998 82.49644244010769, 18.485999999999997 82.23510910677436, 18.49 82.00310910677436 C 18.494 81.77110910677435, 18.485333333333333 81.54977577344101, 18.464 81.33910910677436 C 18.447999999999997 81.18444244010769, 18.396666666666665 81.06910910677436, 18.31 80.99310910677436 C 18.223333333333333 80.91710910677435, 18.090666666666664 80.87910910677435, 17.912 80.87910910677435 C 17.901333333333334 80.87910910677435, 17.890666666666668 80.88044244010769, 17.88 80.88310910677436 C 17.86933333333333 80.88577577344101, 17.86 80.88844244010768, 17.852 80.89110910677435 Z M 17.852 78.59910910677435 L 17.852 77.66710910677435 L 19.439999999999998 77.66710910677435 L 19.439999999999998 78.59910910677435 Z M 21.944 84.06710910677435 L 21.944 77.66710910677435 L 23.003999999999998 77.66710910677435 L 23.003999999999998 84.06710910677435 Z " stroke="none" fill-rule="nonzero" fill="#000000" fill-opacity="1" transform="matrix(1,0,0,1,5.05,13.314)" id="text35 l" />
  <path d="M 0 76.55919819609687 L 10 76.55919819609687 L 10 78.05919819609687 L 0 78.05919819609687 Z " stroke="none" fill-rule="evenodd" fill="#000000" fill-opacity="1" transform="matrix(1,0,0,1,5.05,13.314)" id="mark36 l" />
  <path d="M 0 67.96928728541945 L 10 67.96928728541945 L 10 69.46928728541945 L 0 69.46928728541945 Z " stroke="none" fill-rule="evenodd" fill="#000000" fill-opacity="1" transform="matrix(1,0,0,1,5.05,13.314)" id="mark37 l" />
  <path d="M 0 59.37937637474204 L 10 59.37937637474204 L 10 60.87937637474204 L 0 60.87937637474204 Z " stroke="none" fill-rule="evenodd" fill="#000000" fill-opacity="1" transform="matrix(1,0,0,1,5.05,13.314)" id="mark38 l" />
  <path d="M 0 50.78946546406462 L 10 50.78946546406462 L 10 52.28946546406462 L 0 52.28946546406462 Z " stroke="none" fill-rule="evenodd" fill="#000000" fill-opacity="1" transform="matrix(1,0,0,1,5.05,13.314)" id="mark39 l" />
  <path d="M 0 42.199554553387145 L 25 42.199554553387145 L 25 43.699554553387145 L 0 43.699554553387145 Z " stroke="none" fill-rule="evenodd" fill="#000000" fill-opacity="1" transform="matrix(1,0,0,1,5.05,13.314)" id="mark40 l" />
  <path d="M 11.739999999999998 39.46555455338715 L 11.739999999999998 38.589554553387146 L 12.455999999999998 36.70955455338715 L 13.495999999999999 36.70955455338715 L 12.771999999999998 38.54155455338715 L 13.171999999999997 38.54155455338715 L 13.171999999999997 39.46555455338715 Z M 13.675999999999998 41.14955455338715 L 13.675999999999998 34.74955455338715 L 14.683999999999997 34.74955455338715 L 14.683999999999997 41.14955455338715 Z M 15.187999999999999 39.46555455338715 L 15.187999999999999 38.54155455338715 L 15.655999999999999 38.54155455338715 L 15.655999999999999 39.46555455338715 Z M 16.195999999999998 39.73755455338715 C 16.188 39.30822122005382, 16.182666666666666 38.89155455338715, 16.18 38.48755455338715 C 16.177333333333333 38.083554553387145, 16.177999999999997 37.68822122005382, 16.182 37.30155455338715 C 16.186 36.91488788672048, 16.190666666666665 36.53355455338715, 16.195999999999998 36.15755455338715 C 16.20933333333333 35.717554553387146, 16.333999999999996 35.37222122005382, 16.569999999999997 35.12155455338715 C 16.805999999999997 34.87088788672048, 17.142666666666663 34.725554553387155, 17.58 34.68555455338715 L 17.58 35.57355455338715 C 17.382666666666665 35.62955455338715, 17.281333333333333 35.75888788672048, 17.275999999999996 35.961554553387145 C 17.262666666666664 36.33222122005382, 17.25333333333333 36.68022122005382, 17.247999999999998 37.00555455338715 C 17.242666666666665 37.33088788672048, 17.24 37.647554553387145, 17.24 37.955554553387145 C 17.24 38.263554553387145, 17.242666666666665 38.57822122005381, 17.247999999999998 38.89955455338715 C 17.25333333333333 39.22088788672048, 17.262666666666664 39.56422122005382, 17.275999999999996 39.92955455338715 C 17.281333333333333 40.13755455338715, 17.382666666666665 40.269554553387145, 17.58 40.32555455338715 L 17.58 41.21355455338715 C 17.142666666666663 41.17355455338715, 16.805999999999997 41.02755455338715, 16.569999999999997 40.775554553387146 C 16.333999999999996 40.52355455338714, 16.20933333333333 40.17755455338715, 16.195999999999998 39.73755455338715 Z M 18.084 41.21355455338715 L 18.084 40.321554553387145 C 18.268 40.26822122005381, 18.366666666666667 40.14422122005381, 18.38 39.949554553387145 C 18.398666666666664 39.482887886720476, 18.410666666666664 39.034221220053816, 18.415999999999997 38.60355455338715 C 18.42133333333333 38.17288788672048, 18.42133333333333 37.742221220053814, 18.415999999999997 37.31155455338715 C 18.410666666666664 36.88088788672048, 18.398666666666664 36.428221220053814, 18.38 35.95355455338715 C 18.374666666666666 35.75888788672048, 18.276 35.632221220053815, 18.084 35.57355455338715 L 18.084 34.68555455338715 C 18.513333333333332 34.725554553387155, 18.846666666666664 34.87088788672048, 19.083999999999996 35.12155455338715 C 19.32133333333333 35.37222122005382, 19.44533333333333 35.717554553387146, 19.456 36.15755455338715 C 19.466666666666665 36.47222122005382, 19.474666666666664 36.78222122005382, 19.479999999999997 37.08755455338715 C 19.48533333333333 37.39288788672048, 19.488 37.69355455338715, 19.488 37.98955455338715 C 19.488 38.28555455338715, 19.48533333333333 38.57888788672048, 19.479999999999997 38.86955455338715 C 19.474666666666664 39.16022122005381, 19.466666666666665 39.449554553387145, 19.456 39.73755455338715 C 19.439999999999998 40.18822122005382, 19.311999999999998 40.536887886720486, 19.072 40.78355455338715 C 18.831999999999997 41.03022122005381, 18.502666666666663 41.17355455338715, 18.084 41.21355455338715 Z M 21.944 41.14955455338715 L 21.944 34.74955455338715 L 23.003999999999998 34.74955455338715 L 23.003999999999998 41.14955455338715 Z " stroke="none" fill-rule="nonzero" fill="#000000" fill-opacity="1" transform="matrix(1,0,0,1,5.05,13.314)" id="text40 l" />
  <path d="M 0 33.60964364270973 L 10 33.60964364270973 L 10 35.10964364270973 L 0 35.10964364270973 Z " stroke="none" fill-rule="evenodd" fill="#000000" fill-opacity="1" transform="matrix(1,0,0,1,5.05,13.314)" id="mark41 l" />
  <path d="M 0 25.01973273203231 L 10 25.01973273203231 L 10 26.51973273203231 L 0 26.51973273203231 Z " stroke="none" fill-rule="evenodd" fill="#000000" fill-opacity="1" transform="matrix(1,0,0,1,5.05,13.314)" id="mark42 l" />
  <path d="M 0 16.429821821354835 L 10 16.429821821354835 L 10 17.929821821354835 L 0 17.929821821354835 Z " stroke="none" fill-rule="evenodd" fill="#000000" fill-opacity="1" transform="matrix(1,0,0,1,5.05,13.314)" id="mark43 l" />
  <path d="M 0 7.839910910677418 L 10 7.839910910677418 L 10 9.339910910677418 L 0 9.339910910677418 Z " stroke="none" fill-rule="evenodd" fill="#000000" fill-opacity="1" transform="matrix(1,0,0,1,5.05,13.314)" id="mark44 l" />
  <path d="M 0 -0.75 L 25 -0.75 L 25 0.75 L 0 0.75 Z " stroke="none" fill-rule="evenodd" fill="#000000" fill-opacity="1" transform="matrix(1,0,0,1,5.05,13.314)" id="mark45 l" />
  <path d="M 11.748 -3.516 L 11.748 -4.3919999999999995 L 12.463999999999999 -6.272 L 13.503999999999998 -6.272 L 12.78 -4.4399999999999995 L 13.18 -4.4399999999999995 L 13.18 -3.516 Z M 13.684 -1.8319999999999999 L 13.684 -8.232 L 14.691999999999998 -8.232 L 14.691999999999998 -1.8319999999999999 Z M 15.195999999999998 -3.516 L 15.195999999999998 -4.4399999999999995 L 15.663999999999998 -4.4399999999999995 L 15.663999999999998 -3.516 Z M 16.18 -3.2479999999999998 C 16.174666666666667 -3.421333333333333, 16.173333333333332 -3.5606666666666666, 16.176 -3.666 C 16.178666666666665 -3.771333333333333, 16.181333333333335 -3.873333333333333, 16.183999999999997 -3.972 L 17.264 -3.972 C 17.256 -3.8946666666666667, 17.25 -3.7986666666666666, 17.246 -3.6839999999999997 C 17.241999999999997 -3.569333333333333, 17.240666666666666 -3.4586666666666663, 17.241999999999997 -3.352 C 17.243333333333332 -3.2453333333333334, 17.246666666666666 -3.1653333333333338, 17.252 -3.112 C 17.262666666666668 -2.992, 17.297333333333334 -2.8939999999999997, 17.355999999999998 -2.8179999999999996 C 17.414666666666665 -2.7419999999999995, 17.497333333333334 -2.6879999999999997, 17.604 -2.6559999999999997 L 17.604 -1.7639999999999998 C 17.110666666666663 -1.801333333333333, 16.75333333333333 -1.9359999999999997, 16.532 -2.1679999999999997 C 16.310666666666666 -2.4, 16.19333333333333 -2.76, 16.18 -3.2479999999999998 Z M 16.279999999999998 -4.584 L 16.279999999999998 -8.232 L 17.348 -8.232 L 17.348 -4.584 Z M 17.852 -5.008 L 17.852 -5.763999999999999 C 17.929333333333332 -5.804, 18.014666666666667 -5.836, 18.107999999999997 -5.86 C 18.20133333333333 -5.884, 18.301333333333332 -5.896, 18.407999999999998 -5.896 C 18.773333333333333 -5.896, 19.047333333333334 -5.780666666666667, 19.23 -5.55 C 19.412666666666667 -5.319333333333333, 19.514666666666663 -5.005333333333333, 19.535999999999998 -4.608 C 19.546666666666667 -4.448, 19.55333333333333 -4.289333333333333, 19.555999999999997 -4.132 C 19.558666666666664 -3.974666666666667, 19.557333333333332 -3.8213333333333335, 19.552 -3.6719999999999997 C 19.546666666666667 -3.522666666666667, 19.538666666666668 -3.3826666666666663, 19.528 -3.252 C 19.482666666666667 -2.753333333333333, 19.353333333333335 -2.388, 19.14 -2.1559999999999997 C 18.926666666666666 -1.9239999999999997, 18.581333333333333 -1.793333333333333, 18.104 -1.7639999999999998 L 18.104 -2.6559999999999997 C 18.21333333333333 -2.685333333333333, 18.296 -2.738, 18.352 -2.814 C 18.408 -2.89, 18.44 -2.9893333333333336, 18.448 -3.112 C 18.471999999999998 -3.4026666666666667, 18.485999999999997 -3.664, 18.49 -3.896 C 18.494 -4.128, 18.485333333333333 -4.349333333333333, 18.464 -4.5600000000000005 C 18.447999999999997 -4.714666666666667, 18.396666666666665 -4.83, 18.31 -4.906 C 18.223333333333333 -4.981999999999999, 18.090666666666664 -5.02, 17.912 -5.02 C 17.901333333333334 -5.02, 17.890666666666668 -5.018666666666666, 17.88 -5.016 C 17.86933333333333 -5.013333333333334, 17.86 -5.010666666666667, 17.852 -5.008 Z M 17.852 -7.3 L 17.852 -8.232 L 19.439999999999998 -8.232 L 19.439999999999998 -7.3 Z M 21.944 -1.8319999999999999 L 21.944 -8.232 L 23.003999999999998 -8.232 L 23.003999999999998 -1.8319999999999999 Z " stroke="none" fill-rule="nonzero" fill="#000000" fill-opacity="1" transform="matrix(1,0,0,1,5.05,13.314)" id="text45 l" />
  <path d="M -5 -13.264 L 30 -13.264 L 30 384.6920800698071 L -5 384.6920800698071 Z " stroke="#FF0000" stroke-opacity="1" stroke-width="0.1" stroke-linecap="butt" stroke-linejoin="miter" fill="none" transform="matrix(1,0,0,1,5.05,13.314)" />
</svg>