<?xml version="1.0" encoding="UTF-8"?>
<svg xmlns:xlink="http://www.w3.org/1999/xlink" viewBox="0 0 35.1 77.99921829373294" version="1.1" style="font-synthesis: none;" width="35.1mm" height="77.99921829373295mm" xmlns="http://www.w3.org/2000/svg">
  <defs />
  <style>	</style>
  <path d="M 0 0 L 35.1 0 L 35.1 77.99921829373294 L 0 77.99921829373294 Z " stroke="none" fill-rule="nonzero" fill="#FFFFFF" fill-opacity="1" transform="matrix(1,0,0,1,0,0)" />
  <path d="M 0 57.11721829373294 L 10 57.11721829373294 L 10 58.61721829373294 L 0 58.61721829373294 Z " stroke="none" fill-rule="evenodd" fill="#000000" fill-opacity="1" transform="matrix(1,0,0,1,5.05,13.314)" id="mark1 l" />
  <path d="M 0 50.68752737220706 L 10 50.68752737220706 L 10 52.18752737220706 L 0 52.18752737220706 Z " stroke="none" fill-rule="evenodd" fill="#000000" fill-opacity="1" transform="matrix(1,0,0,1,5.05,13.314)" id="mark2 l" />
  <path d="M 0 44.257836450681175 L 10 44.257836450681175 L 10 45.757836450681175 L 0 45.757836450681175 Z " stroke="none" fill-rule="evenodd" fill="#000000" fill-opacity="1" transform="matrix(1,0,0,1,5.05,13.314)" id="mark3 l" />
  <path d="M 0 37.82814552915529 L 10 37.82814552915529 L 10 39.32814552915529 L 0 39.32814552915529 Z " stroke="none" fill-rule="evenodd" fill="#000000" fill-opacity="1" transform="matrix(1,0,0,1,5.05,13.314)" id="mark4 l" />
  <path d="M 0 31.39845460762941 L 25 31.39845460762941 L 25 32.89845460762941 L 0 32.89845460762941 Z " stroke="none" fill-rule="evenodd" fill="#000000" fill-opacity="1" transform="matrix(1,0,0,1,5.05,13.314)" id="mark5 l" />
  <path d="M 16.18 28.90045460762941 C 16.174666666666667 28.72712127429608, 16.173333333333332 28.587787940962748, 16.176 28.48245460762941 C 16.178666666666665 28.37712127429608, 16.181333333333335 28.275121274296076, 16.183999999999997 28.17645460762941 L 17.264 28.17645460762941 C 17.256 28.253787940962745, 17.25 28.34978794096274, 17.246 28.46445460762941 C 17.241999999999997 28.579121274296078, 17.240666666666666 28.689787940962745, 17.241999999999997 28.79645460762941 C 17.243333333333332 28.903121274296076, 17.246666666666666 28.983121274296074, 17.252 29.03645460762941 C 17.262666666666668 29.156454607629406, 17.297333333333334 29.25445460762941, 17.355999999999998 29.33045460762941 C 17.414666666666665 29.40645460762941, 17.497333333333334 29.46045460762941, 17.604 29.49245460762941 L 17.604 30.38445460762941 C 17.110666666666663 30.34712127429608, 16.75333333333333 30.21245460762941, 16.532 29.98045460762941 C 16.310666666666666 29.748454607629412, 16.19333333333333 29.388454607629413, 16.18 28.90045460762941 Z M 16.279999999999998 27.56445460762941 L 16.279999999999998 23.91645460762941 L 17.348 23.91645460762941 L 17.348 27.56445460762941 Z M 17.852 27.140454607629408 L 17.852 26.38445460762941 C 17.929333333333332 26.34445460762941, 18.014666666666667 26.31245460762941, 18.107999999999997 26.28845460762941 C 18.20133333333333 26.26445460762941, 18.301333333333332 26.25245460762941, 18.407999999999998 26.25245460762941 C 18.773333333333333 26.25245460762941, 19.047333333333334 26.367787940962742, 19.23 26.59845460762941 C 19.412666666666667 26.829121274296078, 19.514666666666663 27.143121274296078, 19.535999999999998 27.54045460762941 C 19.546666666666667 27.70045460762941, 19.55333333333333 27.859121274296072, 19.555999999999997 28.01645460762941 C 19.558666666666664 28.17378794096274, 19.557333333333332 28.327121274296076, 19.552 28.47645460762941 C 19.546666666666667 28.625787940962745, 19.538666666666668 28.765787940962745, 19.528 28.89645460762941 C 19.482666666666667 29.395121274296073, 19.353333333333335 29.76045460762941, 19.14 29.99245460762941 C 18.926666666666666 30.22445460762941, 18.581333333333333 30.35512127429608, 18.104 30.38445460762941 L 18.104 29.49245460762941 C 18.21333333333333 29.46312127429608, 18.296 29.41045460762941, 18.352 29.33445460762941 C 18.408 29.25845460762941, 18.44 29.159121274296076, 18.448 29.03645460762941 C 18.471999999999998 28.745787940962742, 18.485999999999997 28.48445460762941, 18.49 28.25245460762941 C 18.494 28.02045460762941, 18.485333333333333 27.799121274296077, 18.464 27.58845460762941 C 18.447999999999997 27.433787940962745, 18.396666666666665 27.318454607629413, 18.31 27.242454607629412 C 18.223333333333333 27.16645460762941, 18.090666666666664 27.128454607629408, 17.912 27.12845460762941 C 17.901333333333334 27.128454607629408, 17.890666666666668 27.129787940962743, 17.88 27.13245460762941 C 17.86933333333333 27.135121274296075, 17.86 27.137787940962742, 17.852 27.140454607629408 Z M 17.852 24.84845460762941 L 17.852 23.91645460762941 L 19.439999999999998 23.91645460762941 L 19.439999999999998 24.84845460762941 Z M 21.944 30.31645460762941 L 21.944 23.91645460762941 L 23.003999999999998 23.91645460762941 L 23.003999999999998 30.31645460762941 Z " stroke="none" fill-rule="nonzero" fill="#000000" fill-opacity="1" transform="matrix(1,0,0,1,5.05,13.314)" id="text5 l" />
  <path d="M 0 24.96876368610353 L 10 24.96876368610353 L 10 26.46876368610353 L 0 26.46876368610353 Z " stroke="none" fill-rule="evenodd" fill="#000000" fill-opacity="1" transform="matrix(1,0,0,1,5.05,13.314)" id="mark6 l" />
  <path d="M 0 18.539072764577647 L 10 18.539072764577647 L 10 20.039072764577647 L 0 20.039072764577647 Z " stroke="none" fill-rule="evenodd" fill="#000000" fill-opacity="1" transform="matrix(1,0,0,1,5.05,13.314)" id="mark7 l" />
  <path d="M 0 12.109381843051764 L 10 12.109381843051764 L 10 13.609381843051764 L 0 13.609381843051764 Z " stroke="none" fill-rule="evenodd" fill="#000000" fill-opacity="1" transform="matrix(1,0,0,1,5.05,13.314)" id="mark8 l" />
  <path d="M 0 5.679690921525882 L 10 5.679690921525882 L 10 7.179690921525882 L 0 7.179690921525882 Z " stroke="none" fill-rule="evenodd" fill="#000000" fill-opacity="1" transform="matrix(1,0,0,1,5.05,13.314)" id="mark9 l" />
  <path d="M 0 -0.75 L 25 -0.75 L 25 0.75 L 0 0.75 Z " stroke="none" fill-rule="evenodd" fill="#000000" fill-opacity="1" transform="matrix(1,0,0,1,5.05,13.314)" id="mark10 l" />
  <path d="M 14.323999999999998 -1.7999999999999998 L 14.323999999999998 -7.244 L 13.871999999999998 -7.244 L 13.839999999999998 -7.624 L 14.543999999999999 -8.2 L 15.424 -8.2 L 15.424 -1.7999999999999998 Z M 16.196 -3.2119999999999997 C 16.188000000000002 -3.641333333333333, 16.182666666666666 -4.058, 16.18 -4.462 C 16.177333333333333 -4.866, 16.177999999999997 -5.261333333333333, 16.182 -5.648 C 16.186 -6.034666666666666, 16.190666666666665 -6.416, 16.196 -6.792 C 16.209333333333333 -7.231999999999999, 16.334000000000003 -7.577333333333334, 16.57 -7.828 C 16.805999999999997 -8.078666666666667, 17.142666666666663 -8.224, 17.58 -8.264 L 17.58 -7.3759999999999994 C 17.382666666666665 -7.32, 17.281333333333333 -7.190666666666667, 17.276 -6.9879999999999995 C 17.262666666666668 -6.617333333333333, 17.253333333333334 -6.269333333333333, 17.248 -5.944 C 17.242666666666665 -5.618666666666666, 17.24 -5.302, 17.24 -4.994 C 17.24 -4.686, 17.242666666666665 -4.371333333333333, 17.248 -4.05 C 17.253333333333334 -3.7286666666666664, 17.262666666666668 -3.3853333333333326, 17.276 -3.0199999999999996 C 17.281333333333333 -2.812, 17.382666666666665 -2.6799999999999997, 17.58 -2.6239999999999997 L 17.58 -1.7359999999999998 C 17.142666666666663 -1.7759999999999998, 16.805999999999997 -1.9219999999999997, 16.57 -2.174 C 16.334000000000003 -2.4259999999999997, 16.209333333333333 -2.772, 16.196 -3.2119999999999997 Z M 18.084 -1.7359999999999998 L 18.084 -2.6279999999999997 C 18.268 -2.681333333333333, 18.366666666666667 -2.8053333333333335, 18.38 -3 C 18.398666666666667 -3.4666666666666663, 18.410666666666668 -3.915333333333333, 18.416 -4.346 C 18.421333333333333 -4.776666666666666, 18.421333333333333 -5.207333333333333, 18.416 -5.638 C 18.410666666666668 -6.068666666666666, 18.398666666666667 -6.521333333333333, 18.38 -6.9959999999999996 C 18.374666666666666 -7.190666666666667, 18.276 -7.317333333333334, 18.084 -7.3759999999999994 L 18.084 -8.264 C 18.513333333333335 -8.224, 18.846666666666668 -8.078666666666667, 19.084 -7.828 C 19.321333333333335 -7.577333333333334, 19.445333333333334 -7.231999999999999, 19.456 -6.792 C 19.46666666666667 -6.477333333333332, 19.474666666666668 -6.167333333333333, 19.48 -5.861999999999999 C 19.485333333333333 -5.556666666666667, 19.488 -5.256, 19.488 -4.96 C 19.488 -4.664, 19.485333333333333 -4.370666666666667, 19.48 -4.08 C 19.474666666666668 -3.7893333333333334, 19.46666666666667 -3.5, 19.456 -3.2119999999999997 C 19.439999999999998 -2.761333333333333, 19.311999999999998 -2.4126666666666665, 19.072 -2.166 C 18.832 -1.9193333333333331, 18.502666666666666 -1.7759999999999998, 18.084 -1.7359999999999998 Z M 21.944 -1.7999999999999998 L 21.944 -8.2 L 23.003999999999998 -8.2 L 23.003999999999998 -1.7999999999999998 Z " stroke="none" fill-rule="nonzero" fill="#000000" fill-opacity="1" transform="matrix(1,0,0,1,5.05,13.314)" id="text10 l" />
  <path d="M -5 -13.264 L 30 -13.264 L 30 64.63521829373295 L -5 64.63521829373295 Z " stroke="#FF0000" stroke-opacity="1" stroke-width="0.1" stroke-linecap="butt" stroke-linejoin="miter" fill="none" transform="matrix(1,0,0,1,5.05,13.314)" />
</svg>