<?xml version="1.0" encoding="UTF-8"?>
<svg xmlns:xlink="http://www.w3.org/1999/xlink" viewBox="0 0 35.1 373.809651315323" version="1.1" style="font-synthesis: none;" width="35.1mm" height="373.809651315323mm" xmlns="http://www.w3.org/2000/svg">
  <defs />
  <style>	</style>
  <path d="M 0 0 L 35.1 0 L 35.1 373.809651315323 L 0 373.809651315323 Z " stroke="none" fill-rule="nonzero" fill="#FFFFFF" fill-opacity="1" transform="matrix(1,0,0,1,0,0)" />
  <path d="M 0 352.927651315323 L 10 352.927651315323 L 10 354.427651315323 L 0 354.427651315323 Z " stroke="none" fill-rule="evenodd" fill="#000000" fill-opacity="1" transform="matrix(1,0,0,1,5.05,13.314)" id="mark1 l" />
  <path d="M 0 345.70974006398984 L 10 345.70974006398984 L 10 347.20974006398984 L 0 347.20974006398984 Z " stroke="none" fill-rule="evenodd" fill="#000000" fill-opacity="1" transform="matrix(1,0,0,1,5.05,13.314)" id="mark2 l" />
  <path d="M 0 338.49182881265676 L 10 338.49182881265676 L 10 339.99182881265676 L 0 339.99182881265676 Z " stroke="none" fill-rule="evenodd" fill="#000000" fill-opacity="1" transform="matrix(1,0,0,1,5.05,13.314)" id="mark3 l" />
  <path d="M 0 331.27391756132363 L 10 331.27391756132363 L 10 332.77391756132363 L 0 332.77391756132363 Z " stroke="none" fill-rule="evenodd" fill="#000000" fill-opacity="1" transform="matrix(1,0,0,1,5.05,13.314)" id="mark4 l" />
  <path d="M 0 324.0560063099905 L 25 324.0560063099905 L 25 325.5560063099905 L 0 325.5560063099905 Z " stroke="none" fill-rule="evenodd" fill="#000000" fill-opacity="1" transform="matrix(1,0,0,1,5.05,13.314)" id="mark5 l" />
  <path d="M 16.18 321.5580063099905 C 16.174666666666667 321.38467297665716, 16.173333333333332 321.24533964332386, 16.176 321.1400063099905 C 16.178666666666665 321.03467297665713, 16.181333333333335 320.93267297665716, 16.183999999999997 320.8340063099905 L 17.264 320.8340063099905 C 17.256 320.9113396433238, 17.25 321.0073396433238, 17.246 321.1220063099905 C 17.241999999999997 321.23667297665713, 17.240666666666666 321.34733964332383, 17.241999999999997 321.4540063099905 C 17.243333333333332 321.56067297665714, 17.246666666666666 321.6406729766572, 17.252 321.6940063099905 C 17.262666666666668 321.8140063099905, 17.297333333333334 321.9120063099905, 17.355999999999998 321.9880063099905 C 17.414666666666665 322.0640063099905, 17.497333333333334 322.1180063099905, 17.604 322.1500063099905 L 17.604 323.0420063099905 C 17.110666666666663 323.00467297665716, 16.75333333333333 322.8700063099905, 16.532 322.6380063099905 C 16.310666666666666 322.40600630999046, 16.19333333333333 322.0460063099905, 16.18 321.5580063099905 Z M 16.279999999999998 320.2220063099905 L 16.279999999999998 316.5740063099905 L 17.348 316.5740063099905 L 17.348 320.2220063099905 Z M 17.852 319.7980063099905 L 17.852 319.0420063099905 C 17.929333333333332 319.00200630999046, 18.014666666666667 318.9700063099905, 18.107999999999997 318.9460063099905 C 18.20133333333333 318.9220063099905, 18.301333333333332 318.9100063099905, 18.407999999999998 318.9100063099905 C 18.773333333333333 318.9100063099905, 19.047333333333334 319.02533964332383, 19.23 319.2560063099905 C 19.412666666666667 319.48667297665713, 19.514666666666663 319.80067297665715, 19.535999999999998 320.1980063099905 C 19.546666666666667 320.3580063099905, 19.55333333333333 320.51667297665716, 19.555999999999997 320.6740063099905 C 19.558666666666664 320.8313396433238, 19.557333333333332 320.9846729766572, 19.552 321.1340063099905 C 19.546666666666667 321.28333964332387, 19.538666666666668 321.42333964332386, 19.528 321.5540063099905 C 19.482666666666667 322.05267297665716, 19.353333333333335 322.41800630999046, 19.14 322.6500063099905 C 18.926666666666666 322.8820063099905, 18.581333333333333 323.0126729766572, 18.104 323.0420063099905 L 18.104 322.1500063099905 C 18.21333333333333 322.12067297665715, 18.296 322.0680063099905, 18.352 321.9920063099905 C 18.408 321.9160063099905, 18.44 321.8166729766572, 18.448 321.6940063099905 C 18.471999999999998 321.4033396433238, 18.485999999999997 321.1420063099905, 18.49 320.9100063099905 C 18.494 320.6780063099905, 18.485333333333333 320.45667297665716, 18.464 320.2460063099905 C 18.447999999999997 320.09133964332386, 18.396666666666665 319.9760063099905, 18.31 319.9000063099905 C 18.223333333333333 319.8240063099905, 18.090666666666664 319.7860063099905, 17.912 319.7860063099905 C 17.901333333333334 319.7860063099905, 17.890666666666668 319.78733964332383, 17.88 319.7900063099905 C 17.86933333333333 319.7926729766572, 17.86 319.7953396433238, 17.852 319.7980063099905 Z M 17.852 317.5060063099905 L 17.852 316.5740063099905 L 19.439999999999998 316.5740063099905 L 19.439999999999998 317.5060063099905 Z M 21.944 322.9740063099905 L 21.944 316.5740063099905 L 23.003999999999998 316.5740063099905 L 23.003999999999998 322.9740063099905 Z " stroke="none" fill-rule="nonzero" fill="#000000" fill-opacity="1" transform="matrix(1,0,0,1,5.05,13.314)" id="text5 l" />
  <path d="M 0 316.83809505865736 L 10 316.83809505865736 L 10 318.33809505865736 L 0 318.33809505865736 Z " stroke="none" fill-rule="evenodd" fill="#000000" fill-opacity="1" transform="matrix(1,0,0,1,5.05,13.314)" id="mark6 l" />
  <path d="M 0 309.6201838073242 L 10 309.6201838073242 L 10 311.1201838073242 L 0 311.1201838073242 Z " stroke="none" fill-rule="evenodd" fill="#000000" fill-opacity="1" transform="matrix(1,0,0,1,5.05,13.314)" id="mark7 l" />
  <path d="M 0 302.40227255599115 L 10 302.40227255599115 L 10 303.90227255599115 L 0 303.90227255599115 Z " stroke="none" fill-rule="evenodd" fill="#000000" fill-opacity="1" transform="matrix(1,0,0,1,5.05,13.314)" id="mark8 l" />
  <path d="M 0 295.184361304658 L 10 295.184361304658 L 10 296.684361304658 L 0 296.684361304658 Z " stroke="none" fill-rule="evenodd" fill="#000000" fill-opacity="1" transform="matrix(1,0,0,1,5.05,13.314)" id="mark9 l" />
  <path d="M 0 287.9664500533249 L 25 287.9664500533249 L 25 289.4664500533249 L 0 289.4664500533249 Z " stroke="none" fill-rule="evenodd" fill="#000000" fill-opacity="1" transform="matrix(1,0,0,1,5.05,13.314)" id="mark10 l" />
  <path d="M 14.323999999999998 286.91645005332487 L 14.323999999999998 281.47245005332485 L 13.871999999999998 281.47245005332485 L 13.839999999999998 281.09245005332485 L 14.543999999999999 280.5164500533249 L 15.424 280.5164500533249 L 15.424 286.91645005332487 Z M 16.196 285.5044500533249 C 16.188000000000002 285.07511671999157, 16.182666666666666 284.6584500533249, 16.18 284.2544500533249 C 16.177333333333333 283.8504500533249, 16.177999999999997 283.45511671999157, 16.182 283.06845005332485 C 16.186 282.6817833866582, 16.190666666666665 282.3004500533249, 16.196 281.92445005332485 C 16.209333333333333 281.48445005332485, 16.334000000000003 281.13911671999153, 16.57 280.88845005332485 C 16.805999999999997 280.6377833866582, 17.142666666666663 280.4924500533249, 17.58 280.45245005332487 L 17.58 281.34045005332484 C 17.382666666666665 281.3964500533248, 17.281333333333333 281.5257833866582, 17.276 281.7284500533249 C 17.262666666666668 282.09911671999157, 17.253333333333334 282.4471167199915, 17.248 282.77245005332486 C 17.242666666666665 283.0977833866582, 17.24 283.41445005332486, 17.24 283.72245005332485 C 17.24 284.03045005332484, 17.242666666666665 284.34511671999155, 17.248 284.66645005332487 C 17.253333333333334 284.9877833866582, 17.262666666666668 285.33111671999154, 17.276 285.69645005332484 C 17.281333333333333 285.90445005332487, 17.382666666666665 286.03645005332487, 17.58 286.09245005332485 L 17.58 286.9804500533249 C 17.142666666666663 286.94045005332487, 16.805999999999997 286.79445005332485, 16.57 286.54245005332484 C 16.334000000000003 286.29045005332483, 16.209333333333333 285.9444500533249, 16.196 285.5044500533249 Z M 18.084 286.9804500533249 L 18.084 286.0884500533249 C 18.268 286.03511671999155, 18.366666666666667 285.9111167199915, 18.38 285.7164500533249 C 18.398666666666667 285.24978338665824, 18.410666666666668 284.80111671999157, 18.416 284.3704500533249 C 18.421333333333333 283.9397833866582, 18.421333333333333 283.50911671999154, 18.416 283.07845005332484 C 18.410666666666668 282.6477833866582, 18.398666666666667 282.1951167199915, 18.38 281.72045005332484 C 18.374666666666666 281.5257833866582, 18.276 281.3991167199915, 18.084 281.34045005332484 L 18.084 280.45245005332487 C 18.513333333333335 280.4924500533249, 18.846666666666668 280.6377833866582, 19.084 280.88845005332485 C 19.321333333333335 281.13911671999153, 19.445333333333334 281.48445005332485, 19.456 281.92445005332485 C 19.46666666666667 282.23911671999156, 19.474666666666668 282.54911671999156, 19.48 282.85445005332485 C 19.485333333333333 283.1597833866582, 19.488 283.46045005332485, 19.488 283.75645005332484 C 19.488 284.05245005332483, 19.485333333333333 284.34578338665824, 19.48 284.6364500533249 C 19.474666666666668 284.92711671999155, 19.46666666666667 285.2164500533249, 19.456 285.5044500533249 C 19.439999999999998 285.95511671999157, 19.311999999999998 286.3037833866582, 19.072 286.5504500533249 C 18.832 286.79711671999155, 18.502666666666666 286.94045005332487, 18.084 286.9804500533249 Z M 21.944 286.91645005332487 L 21.944 280.5164500533249 L 23.003999999999998 280.5164500533249 L 23.003999999999998 286.91645005332487 Z " stroke="none" fill-rule="nonzero" fill="#000000" fill-opacity="1" transform="matrix(1,0,0,1,5.05,13.314)" id="text10 l" />
  <path d="M 0 280.7485388019918 L 10 280.7485388019918 L 10 282.2485388019918 L 0 282.2485388019918 Z " stroke="none" fill-rule="evenodd" fill="#000000" fill-opacity="1" transform="matrix(1,0,0,1,5.05,13.314)" id="mark11 l" />
  <path d="M 0 273.53062755065866 L 10 273.53062755065866 L 10 275.03062755065866 L 0 275.03062755065866 Z " stroke="none" fill-rule="evenodd" fill="#000000" fill-opacity="1" transform="matrix(1,0,0,1,5.05,13.314)" id="mark12 l" />
  <path d="M 0 266.31271629932553 L 10 266.31271629932553 L 10 267.81271629932553 L 0 267.81271629932553 Z " stroke="none" fill-rule="evenodd" fill="#000000" fill-opacity="1" transform="matrix(1,0,0,1,5.05,13.314)" id="mark13 l" />
  <path d="M 0 259.0948050479924 L 10 259.0948050479924 L 10 260.5948050479924 L 0 260.5948050479924 Z " stroke="none" fill-rule="evenodd" fill="#000000" fill-opacity="1" transform="matrix(1,0,0,1,5.05,13.314)" id="mark14 l" />
  <path d="M 0 251.87689379665926 L 25 251.87689379665926 L 25 253.37689379665926 L 0 253.37689379665926 Z " stroke="none" fill-rule="evenodd" fill="#000000" fill-opacity="1" transform="matrix(1,0,0,1,5.05,13.314)" id="mark15 l" />
  <path d="M 14.331999999999999 250.79489379665927 L 14.331999999999999 245.35089379665928 L 13.879999999999999 245.35089379665928 L 13.847999999999999 244.97089379665925 L 14.552 244.39489379665926 L 15.432 244.39489379665926 L 15.432 250.79489379665927 Z M 16.18 249.37889379665927 C 16.174666666666667 249.20556046332595, 16.173333333333332 249.06622712999263, 16.176 248.96089379665926 C 16.178666666666665 248.85556046332596, 16.181333333333335 248.75356046332595, 16.183999999999997 248.65489379665928 L 17.264 248.65489379665928 C 17.256 248.7322271299926, 17.25 248.82822712999257, 17.246 248.94289379665926 C 17.241999999999997 249.0575604633259, 17.240666666666666 249.1682271299926, 17.241999999999997 249.27489379665926 C 17.243333333333332 249.3815604633259, 17.246666666666666 249.46156046332592, 17.252 249.51489379665927 C 17.262666666666668 249.63489379665927, 17.297333333333334 249.73289379665925, 17.355999999999998 249.80889379665928 C 17.414666666666665 249.88489379665924, 17.497333333333334 249.93889379665927, 17.604 249.97089379665925 L 17.604 250.86289379665928 C 17.110666666666663 250.82556046332593, 16.75333333333333 250.69089379665928, 16.532 250.45889379665925 C 16.310666666666666 250.22689379665928, 16.19333333333333 249.86689379665927, 16.18 249.37889379665927 Z M 16.279999999999998 248.04289379665926 L 16.279999999999998 244.39489379665926 L 17.348 244.39489379665926 L 17.348 248.04289379665926 Z M 17.852 247.61889379665928 L 17.852 246.86289379665928 C 17.929333333333332 246.8228937966593, 18.014666666666667 246.79089379665928, 18.107999999999997 246.76689379665928 C 18.20133333333333 246.74289379665927, 18.301333333333332 246.73089379665927, 18.407999999999998 246.73089379665927 C 18.773333333333333 246.73089379665927, 19.047333333333334 246.8462271299926, 19.23 247.07689379665928 C 19.412666666666667 247.30756046332596, 19.514666666666663 247.62156046332592, 19.535999999999998 248.01889379665926 C 19.546666666666667 248.17889379665928, 19.55333333333333 248.33756046332593, 19.555999999999997 248.49489379665926 C 19.558666666666664 248.6522271299926, 19.557333333333332 248.80556046332595, 19.552 248.95489379665926 C 19.546666666666667 249.10422712999258, 19.538666666666668 249.24422712999257, 19.528 249.37489379665928 C 19.482666666666667 249.87356046332593, 19.353333333333335 250.23889379665928, 19.14 250.47089379665925 C 18.926666666666666 250.70289379665928, 18.581333333333333 250.83356046332597, 18.104 250.86289379665928 L 18.104 249.97089379665925 C 18.21333333333333 249.9415604633259, 18.296 249.88889379665926, 18.352 249.81289379665927 C 18.408 249.73689379665927, 18.44 249.63756046332594, 18.448 249.51489379665927 C 18.471999999999998 249.22422712999258, 18.485999999999997 248.96289379665927, 18.49 248.73089379665927 C 18.494 248.49889379665927, 18.485333333333333 248.27756046332593, 18.464 248.06689379665926 C 18.447999999999997 247.91222712999257, 18.396666666666665 247.79689379665928, 18.31 247.72089379665925 C 18.223333333333333 247.6448937966593, 18.090666666666664 247.60689379665928, 17.912 247.60689379665928 C 17.901333333333334 247.60689379665928, 17.890666666666668 247.6082271299926, 17.88 247.61089379665927 C 17.86933333333333 247.61356046332594, 17.86 247.61622712999258, 17.852 247.61889379665928 Z M 17.852 245.32689379665928 L 17.852 244.39489379665926 L 19.439999999999998 244.39489379665926 L 19.439999999999998 245.32689379665928 Z M 21.944 250.79489379665927 L 21.944 244.39489379665926 L 23.003999999999998 244.39489379665926 L 23.003999999999998 250.79489379665927 Z " stroke="none" fill-rule="nonzero" fill="#000000" fill-opacity="1" transform="matrix(1,0,0,1,5.05,13.314)" id="text15 l" />
  <path d="M 0 244.65898254532615 L 10 244.65898254532615 L 10 246.15898254532615 L 0 246.15898254532615 Z " stroke="none" fill-rule="evenodd" fill="#000000" fill-opacity="1" transform="matrix(1,0,0,1,5.05,13.314)" id="mark16 l" />
  <path d="M 0 237.44107129399305 L 10 237.44107129399305 L 10 238.94107129399305 L 0 238.94107129399305 Z " stroke="none" fill-rule="evenodd" fill="#000000" fill-opacity="1" transform="matrix(1,0,0,1,5.05,13.314)" id="mark17 l" />
  <path d="M 0 230.2231600426599 L 10 230.2231600426599 L 10 231.7231600426599 L 0 231.7231600426599 Z " stroke="none" fill-rule="evenodd" fill="#000000" fill-opacity="1" transform="matrix(1,0,0,1,5.05,13.314)" id="mark18 l" />
  <path d="M 0 223.00524879132678 L 10 223.00524879132678 L 10 224.50524879132678 L 0 224.50524879132678 Z " stroke="none" fill-rule="evenodd" fill="#000000" fill-opacity="1" transform="matrix(1,0,0,1,5.05,13.314)" id="mark19 l" />
  <path d="M 0 215.78733753999367 L 25 215.78733753999367 L 25 217.28733753999367 L 0 217.28733753999367 Z " stroke="none" fill-rule="evenodd" fill="#000000" fill-opacity="1" transform="matrix(1,0,0,1,5.05,13.314)" id="mark20 l" />
  <path d="M 12.319999999999999 214.7373375399937 C 12.317333333333334 214.63867087332704, 12.315333333333331 214.5500042066604, 12.313999999999998 214.4713375399937 C 12.312666666666665 214.39267087332706, 12.311333333333334 214.31867087332705, 12.309999999999999 214.2493375399937 C 12.308666666666667 214.18000420666033, 12.308 214.10800420666033, 12.308 214.03333753999368 C 12.308 213.95867087332704, 12.308 213.87400420666035, 12.308 213.7793375399937 C 12.308 213.68467087332704, 12.309333333333335 213.5733375399937, 12.312 213.4453375399937 C 12.32 213.15200420666037, 12.37 212.89000420666036, 12.462 212.6593375399937 C 12.554 212.428670873327, 12.687999999999999 212.22267087332705, 12.863999999999999 212.0413375399937 C 13.04 211.8600042066604, 13.257333333333333 211.69867087332705, 13.515999999999998 211.55733753999368 L 14.047999999999998 211.2693375399937 C 14.234666666666666 211.16800420666036, 14.354 211.04600420666037, 14.405999999999999 210.9033375399937 C 14.457999999999998 210.760670873327, 14.488 210.62667087332701, 14.495999999999999 210.5013375399937 C 14.506666666666664 210.35467087332702, 14.512666666666664 210.19800420666036, 14.514 210.0313375399937 C 14.51533333333333 209.86467087332704, 14.511999999999997 209.70800420666038, 14.504 209.5613375399937 C 14.498666666666665 209.4573375399937, 14.468666666666666 209.3713375399937, 14.413999999999998 209.3033375399937 C 14.359333333333332 209.23533753999368, 14.279999999999998 209.18667087332702, 14.175999999999998 209.15733753999368 L 14.175999999999998 208.2693375399937 C 14.663999999999998 208.3013375399937, 15.014 208.43267087332703, 15.225999999999999 208.66333753999368 C 15.437999999999999 208.89400420666033, 15.554666666666666 209.25467087332703, 15.575999999999999 209.7453375399937 C 15.578666666666663 209.8093375399937, 15.580666666666666 209.87467087332703, 15.581999999999999 209.9413375399937 C 15.583333333333332 210.00800420666036, 15.584 210.072670873327, 15.584 210.13533753999369 C 15.584 210.19800420666036, 15.583333333333332 210.26000420666034, 15.581999999999999 210.3213375399937 C 15.580666666666666 210.38267087332702, 15.578666666666663 210.44267087332702, 15.575999999999999 210.5013375399937 C 15.565333333333331 210.78667087332704, 15.512 211.03333753999368, 15.415999999999999 211.24133753999368 C 15.32 211.44933753999368, 15.19 211.62933753999368, 15.026 211.7813375399937 C 14.862 211.93333753999366, 14.672 212.06933753999368, 14.456 212.1893375399937 L 13.851999999999999 212.5173375399937 C 13.737333333333332 212.57867087332704, 13.647333333333332 212.66267087332704, 13.581999999999999 212.7693375399937 C 13.516666666666666 212.87600420666035, 13.469999999999999 212.9893375399937, 13.441999999999998 213.1093375399937 C 13.413999999999998 213.2293375399937, 13.399999999999999 213.34133753999367, 13.399999999999999 213.4453375399937 L 13.399999999999999 214.7373375399937 Z M 12.328 210.6973375399937 C 12.322666666666667 210.58000420666036, 12.318666666666665 210.4653375399937, 12.315999999999999 210.35333753999367 C 12.313333333333333 210.2413375399937, 12.311333333333334 210.1353375399937, 12.309999999999999 210.0353375399937 C 12.308666666666667 209.93533753999367, 12.309333333333335 209.83867087332703, 12.312 209.7453375399937 C 12.330666666666666 209.25733753999373, 12.447333333333333 208.89800420666037, 12.661999999999999 208.6673375399937 C 12.876666666666665 208.43667087332702, 13.213333333333331 208.30400420666035, 13.671999999999999 208.2693375399937 L 13.671999999999999 209.1613375399937 C 13.576 209.190670873327, 13.505333333333333 209.2373375399937, 13.459999999999999 209.30133753999368 C 13.414666666666665 209.36533753999367, 13.390666666666664 209.44267087332702, 13.387999999999998 209.53333753999368 C 13.382666666666665 209.7413375399937, 13.379333333333333 209.93467087332704, 13.378 210.1133375399937 C 13.376666666666667 210.29200420666035, 13.381333333333334 210.486670873327, 13.392 210.6973375399937 Z M 13.904 214.7373375399937 L 13.904 213.8053375399937 L 15.5 213.8053375399937 L 15.5 214.7373375399937 Z M 16.196 213.32533753999368 C 16.188000000000002 212.89600420666034, 16.182666666666666 212.47933753999368, 16.18 212.07533753999368 C 16.177333333333333 211.6713375399937, 16.177999999999997 211.27600420666033, 16.182 210.88933753999368 C 16.186 210.50267087332702, 16.190666666666665 210.1213375399937, 16.196 209.7453375399937 C 16.209333333333333 209.30533753999373, 16.334000000000003 208.96000420666036, 16.57 208.7093375399937 C 16.805999999999997 208.45867087332704, 17.142666666666663 208.3133375399937, 17.58 208.2733375399937 L 17.58 209.1613375399937 C 17.382666666666665 209.2173375399937, 17.281333333333333 209.346670873327, 17.276 209.5493375399937 C 17.262666666666668 209.92000420666034, 17.253333333333334 210.26800420666035, 17.248 210.59333753999368 C 17.242666666666665 210.91867087332702, 17.24 211.23533753999368, 17.24 211.5433375399937 C 17.24 211.85133753999372, 17.242666666666665 212.16600420666038, 17.248 212.4873375399937 C 17.253333333333334 212.808670873327, 17.262666666666668 213.15200420666037, 17.276 213.5173375399937 C 17.281333333333333 213.7253375399937, 17.382666666666665 213.8573375399937, 17.58 213.91333753999368 L 17.58 214.80133753999368 C 17.142666666666663 214.7613375399937, 16.805999999999997 214.61533753999367, 16.57 214.3633375399937 C 16.334000000000003 214.1113375399937, 16.209333333333333 213.7653375399937, 16.196 213.32533753999368 Z M 18.084 214.80133753999368 L 18.084 213.9093375399937 C 18.268 213.85600420666037, 18.366666666666667 213.73200420666038, 18.38 213.5373375399937 C 18.398666666666667 213.07067087332703, 18.410666666666668 212.62200420666036, 18.416 212.1913375399937 C 18.421333333333333 211.76067087332703, 18.421333333333333 211.33000420666036, 18.416 210.8993375399937 C 18.410666666666668 210.46867087332703, 18.398666666666667 210.01600420666034, 18.38 209.5413375399937 C 18.374666666666666 209.346670873327, 18.276 209.22000420666035, 18.084 209.1613375399937 L 18.084 208.2733375399937 C 18.513333333333335 208.3133375399937, 18.846666666666668 208.45867087332704, 19.084 208.7093375399937 C 19.321333333333335 208.96000420666036, 19.445333333333334 209.30533753999373, 19.456 209.7453375399937 C 19.46666666666667 210.06000420666038, 19.474666666666668 210.37000420666035, 19.48 210.67533753999368 C 19.485333333333333 210.980670873327, 19.488 211.28133753999367, 19.488 211.5773375399937 C 19.488 211.87333753999368, 19.485333333333333 212.166670873327, 19.48 212.4573375399937 C 19.474666666666668 212.74800420666037, 19.46666666666667 213.0373375399937, 19.456 213.32533753999368 C 19.439999999999998 213.7760042066604, 19.311999999999998 214.12467087332703, 19.072 214.37133753999368 C 18.832 214.61800420666034, 18.502666666666666 214.7613375399937, 18.084 214.80133753999368 Z M 21.944 214.7373375399937 L 21.944 208.33733753999368 L 23.003999999999998 208.33733753999368 L 23.003999999999998 214.7373375399937 Z " stroke="none" fill-rule="nonzero" fill="#000000" fill-opacity="1" transform="matrix(1,0,0,1,5.05,13.314)" id="text20 l" />
  <path d="M 0 208.56942628866054 L 10 208.56942628866054 L 10 210.06942628866054 L 0 210.06942628866054 Z " stroke="none" fill-rule="evenodd" fill="#000000" fill-opacity="1" transform="matrix(1,0,0,1,5.05,13.314)" id="mark21 l" />
  <path d="M 0 201.35151503732743 L 10 201.35151503732743 L 10 202.85151503732743 L 0 202.85151503732743 Z " stroke="none" fill-rule="evenodd" fill="#000000" fill-opacity="1" transform="matrix(1,0,0,1,5.05,13.314)" id="mark22 l" />
  <path d="M 0 194.1336037859943 L 10 194.1336037859943 L 10 195.6336037859943 L 0 195.6336037859943 Z " stroke="none" fill-rule="evenodd" fill="#000000" fill-opacity="1" transform="matrix(1,0,0,1,5.05,13.314)" id="mark23 l" />
  <path d="M 0 186.9156925346612 L 10 186.9156925346612 L 10 188.4156925346612 L 0 188.4156925346612 Z " stroke="none" fill-rule="evenodd" fill="#000000" fill-opacity="1" transform="matrix(1,0,0,1,5.05,13.314)" id="mark24 l" />
  <path d="M 0 179.69778128332806 L 25 179.69778128332806 L 25 181.19778128332806 L 0 181.19778128332806 Z " stroke="none" fill-rule="evenodd" fill="#000000" fill-opacity="1" transform="matrix(1,0,0,1,5.05,13.314)" id="mark25 l" />
  <path d="M 12.328 178.64778128332807 C 12.325333333333333 178.5491146166614, 12.323333333333332 178.46044794999474, 12.322 178.38178128332808 C 12.320666666666666 178.30311461666142, 12.319333333333333 178.2291146166614, 12.318 178.15978128332807 C 12.316666666666666 178.09044794999474, 12.315999999999999 178.01844794999474, 12.316 177.94378128332806 C 12.315999999999999 177.8691146166614, 12.315999999999999 177.78444794999473, 12.316 177.68978128332807 C 12.315999999999999 177.59511461666142, 12.317333333333334 177.48378128332809, 12.32 177.35578128332807 C 12.328 177.06244794999475, 12.378 176.80044794999475, 12.47 176.56978128332807 C 12.562000000000001 176.3391146166614, 12.696 176.1331146166614, 12.872 175.95178128332807 C 13.048 175.77044794999475, 13.265333333333334 175.6091146166614, 13.524000000000001 175.46778128332807 L 14.056000000000001 175.17978128332808 C 14.242666666666668 175.07844794999474, 14.362000000000002 174.95644794999473, 14.414 174.81378128332807 C 14.466000000000001 174.6711146166614, 14.495999999999999 174.53711461666143, 14.504 174.41178128332808 C 14.514666666666667 174.26511461666144, 14.520666666666667 174.10844794999474, 14.522 173.94178128332808 C 14.523333333333333 173.77511461666143, 14.520000000000001 173.61844794999473, 14.512 173.47178128332808 C 14.506666666666666 173.3677812833281, 14.476666666666667 173.2817812833281, 14.422 173.21378128332807 C 14.367333333333335 173.14578128332806, 14.288 173.0971146166614, 14.184000000000001 173.06778128332806 L 14.184000000000001 172.17978128332808 C 14.672 172.2117812833281, 15.022000000000002 172.3431146166614, 15.234 172.57378128332806 C 15.446000000000002 172.80444794999474, 15.562666666666667 173.1651146166614, 15.584 173.65578128332808 C 15.586666666666668 173.71978128332808, 15.588666666666668 173.78511461666142, 15.59 173.85178128332808 C 15.591333333333335 173.91844794999474, 15.592000000000002 173.9831146166614, 15.592 174.04578128332807 C 15.592000000000002 174.10844794999474, 15.591333333333335 174.17044794999475, 15.59 174.23178128332808 C 15.588666666666668 174.2931146166614, 15.586666666666668 174.3531146166614, 15.584 174.41178128332808 C 15.573333333333332 174.6971146166614, 15.52 174.94378128332806, 15.424 175.15178128332806 C 15.328 175.35978128332806, 15.197999999999999 175.53978128332807, 15.033999999999999 175.69178128332808 C 14.87 175.84378128332807, 14.68 175.97978128332807, 14.464 176.09978128332807 L 13.86 176.42778128332807 C 13.745333333333335 176.48911461666142, 13.655333333333335 176.57311461666143, 13.59 176.67978128332808 C 13.524666666666668 176.78644794999474, 13.478000000000002 176.89978128332808, 13.45 177.0197812833281 C 13.422 177.13978128332806, 13.408 177.25178128332806, 13.408 177.35578128332807 L 13.408 178.64778128332807 Z M 12.336 174.60778128332808 C 12.330666666666666 174.49044794999475, 12.326666666666664 174.37578128332805, 12.324 174.26378128332806 C 12.321333333333332 174.15178128332806, 12.319333333333333 174.04578128332807, 12.318 173.94578128332807 C 12.316666666666666 173.84578128332808, 12.317333333333334 173.74911461666142, 12.32 173.65578128332808 C 12.338666666666668 173.16778128332808, 12.455333333333336 172.80844794999473, 12.67 172.57778128332808 C 12.884666666666668 172.34711461666143, 13.221333333333334 172.21444794999474, 13.68 172.17978128332808 L 13.68 173.07178128332808 C 13.584 173.1011146166614, 13.513333333333332 173.14778128332807, 13.468 173.21178128332807 C 13.422666666666668 173.27578128332806, 13.398666666666667 173.3531146166614, 13.396 173.44378128332806 C 13.390666666666666 173.65178128332806, 13.387333333333332 173.84511461666142, 13.386 174.02378128332808 C 13.384666666666666 174.20244794999473, 13.389333333333333 174.3971146166614, 13.4 174.60778128332808 Z M 13.911999999999999 178.64778128332807 L 13.911999999999999 177.71578128332808 L 15.508 177.71578128332808 L 15.508 178.64778128332807 Z M 16.18 177.23178128332808 C 16.174666666666667 177.05844794999473, 16.173333333333332 176.9191146166614, 16.176 176.81378128332807 C 16.178666666666665 176.70844794999473, 16.181333333333335 176.60644794999473, 16.183999999999997 176.5077812833281 L 17.264 176.5077812833281 C 17.256 176.58511461666143, 17.25 176.6811146166614, 17.246 176.79578128332807 C 17.241999999999997 176.91044794999473, 17.240666666666666 177.0211146166614, 17.241999999999997 177.12778128332806 C 17.243333333333332 177.23444794999472, 17.246666666666666 177.31444794999473, 17.252 177.36778128332807 C 17.262666666666668 177.48778128332808, 17.297333333333334 177.5857812833281, 17.355999999999998 177.66178128332808 C 17.414666666666665 177.73778128332808, 17.497333333333334 177.79178128332805, 17.604 177.82378128332806 L 17.604 178.71578128332808 C 17.110666666666663 178.67844794999473, 16.75333333333333 178.54378128332806, 16.532 178.31178128332806 C 16.310666666666666 178.07978128332806, 16.19333333333333 177.71978128332808, 16.18 177.23178128332808 Z M 16.279999999999998 175.89578128332806 L 16.279999999999998 172.24778128332807 L 17.348 172.24778128332807 L 17.348 175.89578128332806 Z M 17.852 175.47178128332808 L 17.852 174.71578128332808 C 17.929333333333332 174.6757812833281, 18.014666666666667 174.64378128332808, 18.107999999999997 174.61978128332808 C 18.20133333333333 174.59578128332808, 18.301333333333332 174.58378128332808, 18.407999999999998 174.58378128332808 C 18.773333333333333 174.58378128332808, 19.047333333333334 174.6991146166614, 19.23 174.92978128332808 C 19.412666666666667 175.16044794999473, 19.514666666666663 175.47444794999473, 19.535999999999998 175.87178128332806 C 19.546666666666667 176.03178128332806, 19.55333333333333 176.19044794999473, 19.555999999999997 176.34778128332806 C 19.558666666666664 176.5051146166614, 19.557333333333332 176.65844794999475, 19.552 176.80778128332807 C 19.546666666666667 176.95711461666139, 19.538666666666668 177.0971146166614, 19.528 177.22778128332808 C 19.482666666666667 177.72644794999474, 19.353333333333335 178.09178128332806, 19.14 178.32378128332806 C 18.926666666666666 178.55578128332806, 18.581333333333333 178.68644794999474, 18.104 178.71578128332808 L 18.104 177.82378128332806 C 18.21333333333333 177.79444794999475, 18.296 177.74178128332807, 18.352 177.66578128332807 C 18.408 177.58978128332808, 18.44 177.49044794999475, 18.448 177.36778128332807 C 18.471999999999998 177.0771146166614, 18.485999999999997 176.81578128332808, 18.49 176.58378128332808 C 18.494 176.35178128332808, 18.485333333333333 176.13044794999473, 18.464 175.91978128332806 C 18.447999999999997 175.7651146166614, 18.396666666666665 175.64978128332805, 18.31 175.57378128332806 C 18.223333333333333 175.49778128332807, 18.090666666666664 175.45978128332808, 17.912 175.45978128332808 C 17.901333333333334 175.45978128332808, 17.890666666666668 175.4611146166614, 17.88 175.46378128332807 C 17.86933333333333 175.46644794999474, 17.86 175.46911461666141, 17.852 175.47178128332808 Z M 17.852 173.17978128332808 L 17.852 172.24778128332807 L 19.439999999999998 172.24778128332807 L 19.439999999999998 173.17978128332808 Z M 21.944 178.64778128332807 L 21.944 172.24778128332807 L 23.003999999999998 172.24778128332807 L 23.003999999999998 178.64778128332807 Z " stroke="none" fill-rule="nonzero" fill="#000000" fill-opacity="1" transform="matrix(1,0,0,1,5.05,13.314)" id="text25 l" />
  <path d="M 0 172.47987003199492 L 10 172.47987003199492 L 10 173.97987003199492 L 0 173.97987003199492 Z " stroke="none" fill-rule="evenodd" fill="#000000" fill-opacity="1" transform="matrix(1,0,0,1,5.05,13.314)" id="mark26 l" />
  <path d="M 0 165.26195878066181 L 10 165.26195878066181 L 10 166.76195878066181 L 0 166.76195878066181 Z " stroke="none" fill-rule="evenodd" fill="#000000" fill-opacity="1" transform="matrix(1,0,0,1,5.05,13.314)" id="mark27 l" />
  <path d="M 0 158.04404752932868 L 10 158.04404752932868 L 10 159.54404752932868 L 0 159.54404752932868 Z " stroke="none" fill-rule="evenodd" fill="#000000" fill-opacity="1" transform="matrix(1,0,0,1,5.05,13.314)" id="mark28 l" />
  <path d="M 0 150.82613627799557 L 10 150.82613627799557 L 10 152.32613627799557 L 0 152.32613627799557 Z " stroke="none" fill-rule="evenodd" fill="#000000" fill-opacity="1" transform="matrix(1,0,0,1,5.05,13.314)" id="mark29 l" />
  <path d="M 0 143.60822502666244 L 25 143.60822502666244 L 25 145.10822502666244 L 0 145.10822502666244 Z " stroke="none" fill-rule="evenodd" fill="#000000" fill-opacity="1" transform="matrix(1,0,0,1,5.05,13.314)" id="mark30 l" />
  <path d="M 12.223999999999998 141.14222502666246 C 12.221333333333334 141.04089169332912, 12.219333333333333 140.9568916933291, 12.218 140.89022502666245 C 12.216666666666667 140.8235583599958, 12.216666666666667 140.75555835999577, 12.218 140.68622502666244 C 12.219333333333333 140.6168916933291, 12.221333333333334 140.5275583599958, 12.223999999999998 140.41822502666247 L 13.303999999999998 140.41822502666247 L 13.303999999999998 141.28222502666245 C 13.303999999999998 141.51955835999578, 13.417333333333332 141.67022502666245, 13.643999999999998 141.73422502666244 L 13.643999999999998 142.62622502666247 C 13.155999999999999 142.58889169332912, 12.800666666666665 142.45422502666244, 12.578 142.22222502666244 C 12.355333333333334 141.99022502666244, 12.237333333333332 141.63022502666246, 12.223999999999998 141.14222502666246 Z M 12.292 137.09022502666247 L 12.292 136.15822502666245 L 15.536 136.15822502666245 L 15.536 137.09022502666247 Z M 14.143999999999998 141.73822502666246 C 14.367999999999999 141.68222502666248, 14.483999999999998 141.5315583599958, 14.491999999999999 141.28622502666246 C 14.497333333333334 141.08355835999578, 14.500666666666666 140.90089169332913, 14.501999999999999 140.73822502666246 C 14.503333333333332 140.5755583599958, 14.498666666666665 140.41822502666247, 14.488 140.26622502666245 C 14.48 140.10889169332913, 14.431999999999999 139.9755583599958, 14.344 139.86622502666245 C 14.256 139.75689169332912, 14.089333333333332 139.70489169332913, 13.844 139.71022502666244 L 13.096 139.71822502666245 L 13.068 138.82622502666246 L 14.027999999999999 137.44222502666247 L 15.216 137.44222502666247 L 14.248 138.79422502666245 L 14.28 138.79422502666245 C 14.712 138.79422502666245, 15.028666666666666 138.91689169332912, 15.229999999999999 139.16222502666247 C 15.431333333333333 139.4075583599958, 15.544 139.78489169332914, 15.568 140.29422502666245 C 15.57333333333333 140.36622502666245, 15.576666666666664 140.43822502666245, 15.578 140.51022502666245 C 15.57933333333333 140.58222502666246, 15.579999999999998 140.6528916933291, 15.579999999999998 140.72222502666244 C 15.579999999999998 140.79155835999578, 15.57933333333333 140.86089169332914, 15.578 140.93022502666247 C 15.576666666666664 140.9995583599958, 15.57333333333333 141.07022502666246, 15.568 141.14222502666246 C 15.549333333333333 141.63822502666244, 15.428666666666665 142.0028916933291, 15.206 142.23622502666245 C 14.983333333333334 142.4695583599958, 14.630666666666666 142.5995583599958, 14.148 142.62622502666247 Z M 16.196 141.14622502666245 C 16.188000000000002 140.7168916933291, 16.182666666666666 140.30022502666245, 16.18 139.89622502666245 C 16.177333333333333 139.49222502666245, 16.177999999999997 139.09689169332913, 16.182 138.71022502666244 C 16.186 138.3235583599958, 16.190666666666665 137.94222502666247, 16.196 137.56622502666247 C 16.209333333333333 137.12622502666247, 16.334000000000003 136.78089169332912, 16.57 136.53022502666246 C 16.805999999999997 136.2795583599958, 17.142666666666663 136.13422502666245, 17.58 136.09422502666246 L 17.58 136.98222502666246 C 17.382666666666665 137.03822502666247, 17.281333333333333 137.1675583599958, 17.276 137.37022502666247 C 17.262666666666668 137.74089169332913, 17.253333333333334 138.08889169332912, 17.248 138.41422502666245 C 17.242666666666665 138.73955835999578, 17.24 139.05622502666245, 17.24 139.36422502666247 C 17.24 139.67222502666246, 17.242666666666665 139.9868916933291, 17.248 140.30822502666246 C 17.253333333333334 140.6295583599958, 17.262666666666668 140.97289169332913, 17.276 141.33822502666246 C 17.281333333333333 141.54622502666246, 17.382666666666665 141.67822502666246, 17.58 141.73422502666244 L 17.58 142.62222502666245 C 17.142666666666663 142.58222502666246, 16.805999999999997 142.43622502666244, 16.57 142.18422502666246 C 16.334000000000003 141.93222502666245, 16.209333333333333 141.58622502666245, 16.196 141.14622502666245 Z M 18.084 142.62222502666245 L 18.084 141.73022502666245 C 18.268 141.67689169332914, 18.366666666666667 141.55289169332912, 18.38 141.35822502666247 C 18.398666666666667 140.89155835999577, 18.410666666666668 140.4428916933291, 18.416 140.01222502666246 C 18.421333333333333 139.58155835999577, 18.421333333333333 139.15089169332913, 18.416 138.72022502666246 C 18.410666666666668 138.2895583599958, 18.398666666666667 137.8368916933291, 18.38 137.36222502666246 C 18.374666666666666 137.16755835999578, 18.276 137.04089169332912, 18.084 136.98222502666246 L 18.084 136.09422502666246 C 18.513333333333335 136.13422502666245, 18.846666666666668 136.2795583599958, 19.084 136.53022502666246 C 19.321333333333335 136.78089169332912, 19.445333333333334 137.12622502666247, 19.456 137.56622502666247 C 19.46666666666667 137.88089169332912, 19.474666666666668 138.1908916933291, 19.48 138.49622502666244 C 19.485333333333333 138.8015583599958, 19.488 139.10222502666244, 19.488 139.39822502666246 C 19.488 139.69422502666245, 19.485333333333333 139.98755835999577, 19.48 140.27822502666245 C 19.474666666666668 140.56889169332914, 19.46666666666667 140.85822502666247, 19.456 141.14622502666245 C 19.439999999999998 141.59689169332913, 19.311999999999998 141.9455583599958, 19.072 142.19222502666244 C 18.832 142.4388916933291, 18.502666666666666 142.58222502666246, 18.084 142.62222502666245 Z M 21.944 142.55822502666246 L 21.944 136.15822502666245 L 23.003999999999998 136.15822502666245 L 23.003999999999998 142.55822502666246 Z " stroke="none" fill-rule="nonzero" fill="#000000" fill-opacity="1" transform="matrix(1,0,0,1,5.05,13.314)" id="text30 l" />
  <path d="M 0 136.39031377532933 L 10 136.39031377532933 L 10 137.89031377532933 L 0 137.89031377532933 Z " stroke="none" fill-rule="evenodd" fill="#000000" fill-opacity="1" transform="matrix(1,0,0,1,5.05,13.314)" id="mark31 l" />
  <path d="M 0 129.1724025239962 L 10 129.1724025239962 L 10 130.6724025239962 L 0 130.6724025239962 Z " stroke="none" fill-rule="evenodd" fill="#000000" fill-opacity="1" transform="matrix(1,0,0,1,5.05,13.314)" id="mark32 l" />
  <path d="M 0 121.95449127266306 L 10 121.95449127266306 L 10 123.45449127266306 L 0 123.45449127266306 Z " stroke="none" fill-rule="evenodd" fill="#000000" fill-opacity="1" transform="matrix(1,0,0,1,5.05,13.314)" id="mark33 l" />
  <path d="M 0 114.73658002132996 L 10 114.73658002132996 L 10 116.23658002132996 L 0 116.23658002132996 Z " stroke="none" fill-rule="evenodd" fill="#000000" fill-opacity="1" transform="matrix(1,0,0,1,5.05,13.314)" id="mark34 l" />
  <path d="M 0 107.51866876999682 L 25 107.51866876999682 L 25 109.01866876999682 L 0 109.01866876999682 Z " stroke="none" fill-rule="evenodd" fill="#000000" fill-opacity="1" transform="matrix(1,0,0,1,5.05,13.314)" id="mark35 l" />
  <path d="M 12.232 105.02066876999683 C 12.229333333333333 104.91933543666349, 12.227333333333334 104.83533543666348, 12.226 104.76866876999682 C 12.224666666666668 104.70200210333016, 12.224666666666668 104.63400210333015, 12.226 104.56466876999683 C 12.227333333333334 104.49533543666348, 12.229333333333333 104.40600210333017, 12.232 104.29666876999683 L 13.312 104.29666876999683 L 13.312 105.16066876999683 C 13.312 105.39800210333016, 13.425333333333333 105.54866876999682, 13.652 105.61266876999683 L 13.652 106.50466876999683 C 13.164 106.46733543666349, 12.808666666666667 106.33266876999681, 12.586 106.10066876999683 C 12.363333333333333 105.86866876999682, 12.245333333333335 105.50866876999683, 12.232 105.02066876999683 Z M 12.3 100.96866876999682 L 12.3 100.03666876999682 L 15.544 100.03666876999682 L 15.544 100.96866876999682 Z M 14.152000000000001 105.61666876999683 C 14.376000000000001 105.56066876999682, 14.492 105.41000210333016, 14.5 105.16466876999682 C 14.505333333333333 104.96200210333018, 14.508666666666667 104.7793354366635, 14.51 104.61666876999683 C 14.511333333333333 104.45400210333017, 14.506666666666668 104.29666876999684, 14.496 104.14466876999683 C 14.488 103.9873354366635, 14.440000000000001 103.85400210333016, 14.352 103.74466876999682 C 14.264 103.6353354366635, 14.097333333333335 103.5833354366635, 13.852 103.58866876999683 L 13.104 103.59666876999682 L 13.076 102.70466876999683 L 14.036 101.32066876999683 L 15.224 101.32066876999683 L 14.256 102.67266876999683 L 14.288 102.67266876999683 C 14.719999999999999 102.67266876999683, 15.036666666666665 102.79533543666349, 15.238 103.04066876999683 C 15.439333333333334 103.28600210333016, 15.552 103.66333543666349, 15.576 104.17266876999683 C 15.581333333333333 104.24466876999682, 15.584666666666667 104.31666876999682, 15.586 104.38866876999683 C 15.587333333333333 104.46066876999683, 15.588000000000001 104.53133543666348, 15.588000000000001 104.60066876999683 C 15.588000000000001 104.67000210333015, 15.587333333333333 104.73933543666348, 15.586 104.80866876999683 C 15.584666666666667 104.87800210333015, 15.581333333333333 104.94866876999683, 15.576 105.02066876999683 C 15.557333333333334 105.51666876999684, 15.436666666666667 105.8813354366635, 15.214 106.11466876999683 C 14.991333333333333 106.34800210333017, 14.638666666666666 106.47800210333017, 14.156 106.50466876999683 Z M 16.18 105.02066876999683 C 16.174666666666667 104.84733543666349, 16.173333333333332 104.70800210333016, 16.176 104.60266876999682 C 16.178666666666665 104.49733543666349, 16.181333333333335 104.39533543666349, 16.183999999999997 104.29666876999683 L 17.264 104.29666876999683 C 17.256 104.37400210333016, 17.25 104.47000210333016, 17.246 104.58466876999682 C 17.241999999999997 104.69933543666349, 17.240666666666666 104.81000210333016, 17.241999999999997 104.91666876999683 C 17.243333333333332 105.0233354366635, 17.246666666666666 105.10333543666349, 17.252 105.15666876999683 C 17.262666666666668 105.27666876999683, 17.297333333333334 105.37466876999682, 17.355999999999998 105.45066876999682 C 17.414666666666665 105.52666876999683, 17.497333333333334 105.58066876999683, 17.604 105.61266876999683 L 17.604 106.50466876999683 C 17.110666666666663 106.46733543666349, 16.75333333333333 106.33266876999681, 16.532 106.10066876999683 C 16.310666666666666 105.86866876999682, 16.19333333333333 105.50866876999683, 16.18 105.02066876999683 Z M 16.279999999999998 103.68466876999683 L 16.279999999999998 100.03666876999682 L 17.348 100.03666876999682 L 17.348 103.68466876999683 Z M 17.852 103.26066876999683 L 17.852 102.50466876999683 C 17.929333333333332 102.46466876999682, 18.014666666666667 102.43266876999684, 18.107999999999997 102.40866876999682 C 18.20133333333333 102.38466876999684, 18.301333333333332 102.37266876999684, 18.407999999999998 102.37266876999684 C 18.773333333333333 102.37266876999684, 19.047333333333334 102.48800210333016, 19.23 102.71866876999682 C 19.412666666666667 102.94933543666349, 19.514666666666663 103.26333543666348, 19.535999999999998 103.66066876999683 C 19.546666666666667 103.82066876999681, 19.55333333333333 103.97933543666349, 19.555999999999997 104.13666876999683 C 19.558666666666664 104.29400210333017, 19.557333333333332 104.44733543666351, 19.552 104.59666876999682 C 19.546666666666667 104.74600210333017, 19.538666666666668 104.88600210333016, 19.528 105.01666876999683 C 19.482666666666667 105.51533543666349, 19.353333333333335 105.88066876999684, 19.14 106.11266876999683 C 18.926666666666666 106.34466876999684, 18.581333333333333 106.4753354366635, 18.104 106.50466876999683 L 18.104 105.61266876999683 C 18.21333333333333 105.5833354366635, 18.296 105.53066876999682, 18.352 105.45466876999683 C 18.408 105.37866876999684, 18.44 105.2793354366635, 18.448 105.15666876999683 C 18.471999999999998 104.86600210333017, 18.485999999999997 104.60466876999683, 18.49 104.37266876999684 C 18.494 104.14066876999684, 18.485333333333333 103.91933543666349, 18.464 103.70866876999683 C 18.447999999999997 103.55400210333016, 18.396666666666665 103.43866876999684, 18.31 103.36266876999683 C 18.223333333333333 103.28666876999682, 18.090666666666664 103.24866876999684, 17.912 103.24866876999683 C 17.901333333333334 103.24866876999684, 17.890666666666668 103.25000210333016, 17.88 103.25266876999683 C 17.86933333333333 103.2553354366635, 17.86 103.25800210333016, 17.852 103.26066876999683 Z M 17.852 100.96866876999682 L 17.852 100.03666876999682 L 19.439999999999998 100.03666876999682 L 19.439999999999998 100.96866876999682 Z M 21.944 106.43666876999683 L 21.944 100.03666876999682 L 23.003999999999998 100.03666876999682 L 23.003999999999998 106.43666876999683 Z " stroke="none" fill-rule="nonzero" fill="#000000" fill-opacity="1" transform="matrix(1,0,0,1,5.05,13.314)" id="text35 l" />
  <path d="M 0 100.30075751866372 L 10 100.30075751866372 L 10 101.80075751866372 L 0 101.80075751866372 Z " stroke="none" fill-rule="evenodd" fill="#000000" fill-opacity="1" transform="matrix(1,0,0,1,5.05,13.314)" id="mark36 l" />
  <path d="M 0 93.08284626733058 L 10 93.08284626733058 L 10 94.58284626733058 L 0 94.58284626733058 Z " stroke="none" fill-rule="evenodd" fill="#000000" fill-opacity="1" transform="matrix(1,0,0,1,5.05,13.314)" id="mark37 l" />
  <path d="M 0 85.86493501599745 L 10 85.86493501599745 L 10 87.36493501599745 L 0 87.36493501599745 Z " stroke="none" fill-rule="evenodd" fill="#000000" fill-opacity="1" transform="matrix(1,0,0,1,5.05,13.314)" id="mark38 l" />
  <path d="M 0 78.64702376466437 L 10 78.64702376466437 L 10 80.14702376466437 L 0 80.14702376466437 Z " stroke="none" fill-rule="evenodd" fill="#000000" fill-opacity="1" transform="matrix(1,0,0,1,5.05,13.314)" id="mark39 l" />
  <path d="M 0 71.42911251333123 L 25 71.42911251333123 L 25 72.92911251333123 L 0 72.92911251333123 Z " stroke="none" fill-rule="evenodd" fill="#000000" fill-opacity="1" transform="matrix(1,0,0,1,5.05,13.314)" id="mark40 l" />
  <path d="M 11.739999999999998 68.69511251333124 L 11.739999999999998 67.81911251333123 L 12.455999999999998 65.93911251333124 L 13.495999999999999 65.93911251333124 L 12.771999999999998 67.77111251333123 L 13.171999999999997 67.77111251333123 L 13.171999999999997 68.69511251333124 Z M 13.675999999999998 70.37911251333124 L 13.675999999999998 63.97911251333124 L 14.683999999999997 63.97911251333124 L 14.683999999999997 70.37911251333124 Z M 15.187999999999999 68.69511251333124 L 15.187999999999999 67.77111251333123 L 15.655999999999999 67.77111251333123 L 15.655999999999999 68.69511251333124 Z M 16.195999999999998 68.96711251333123 C 16.188 68.5377791799979, 16.182666666666666 68.12111251333124, 16.18 67.71711251333123 C 16.177333333333333 67.31311251333123, 16.177999999999997 66.9177791799979, 16.182 66.53111251333124 C 16.186 66.14444584666458, 16.190666666666665 65.76311251333124, 16.195999999999998 65.38711251333123 C 16.20933333333333 64.94711251333123, 16.333999999999996 64.6017791799979, 16.569999999999997 64.35111251333123 C 16.805999999999997 64.10044584666457, 17.142666666666663 63.95511251333124, 17.58 63.91511251333124 L 17.58 64.80311251333124 C 17.382666666666665 64.85911251333124, 17.281333333333333 64.98844584666456, 17.275999999999996 65.19111251333123 C 17.262666666666664 65.5617791799979, 17.25333333333333 65.9097791799979, 17.247999999999998 66.23511251333123 C 17.242666666666665 66.56044584666456, 17.24 66.87711251333123, 17.24 67.18511251333123 C 17.24 67.49311251333124, 17.242666666666665 67.80777917999791, 17.247999999999998 68.12911251333124 C 17.25333333333333 68.45044584666456, 17.262666666666664 68.7937791799979, 17.275999999999996 69.15911251333124 C 17.281333333333333 69.36711251333124, 17.382666666666665 69.49911251333124, 17.58 69.55511251333124 L 17.58 70.44311251333123 C 17.142666666666663 70.40311251333124, 16.805999999999997 70.25711251333124, 16.569999999999997 70.00511251333124 C 16.333999999999996 69.75311251333125, 16.20933333333333 69.40711251333124, 16.195999999999998 68.96711251333123 Z M 18.084 70.44311251333123 L 18.084 69.55111251333123 C 18.268 69.4977791799979, 18.366666666666667 69.37377917999791, 18.38 69.17911251333123 C 18.398666666666664 68.71244584666456, 18.410666666666664 68.2637791799979, 18.415999999999997 67.83311251333123 C 18.42133333333333 67.40244584666456, 18.42133333333333 66.97177917999791, 18.415999999999997 66.54111251333124 C 18.410666666666664 66.11044584666458, 18.398666666666664 65.6577791799979, 18.38 65.18311251333124 C 18.374666666666666 64.98844584666458, 18.276 64.86177917999791, 18.084 64.80311251333124 L 18.084 63.91511251333124 C 18.513333333333332 63.95511251333124, 18.846666666666664 64.10044584666457, 19.083999999999996 64.35111251333123 C 19.32133333333333 64.6017791799979, 19.44533333333333 64.94711251333123, 19.456 65.38711251333123 C 19.466666666666665 65.7017791799979, 19.474666666666664 66.0117791799979, 19.479999999999997 66.31711251333124 C 19.48533333333333 66.62244584666458, 19.488 66.92311251333123, 19.488 67.21911251333124 C 19.488 67.51511251333125, 19.48533333333333 67.80844584666457, 19.479999999999997 68.09911251333124 C 19.474666666666664 68.3897791799979, 19.466666666666665 68.67911251333123, 19.456 68.96711251333123 C 19.439999999999998 69.4177791799979, 19.311999999999998 69.76644584666457, 19.072 70.01311251333124 C 18.831999999999997 70.2597791799979, 18.502666666666663 70.40311251333124, 18.084 70.44311251333123 Z M 21.944 70.37911251333124 L 21.944 63.97911251333124 L 23.003999999999998 63.97911251333124 L 23.003999999999998 70.37911251333124 Z " stroke="none" fill-rule="nonzero" fill="#000000" fill-opacity="1" transform="matrix(1,0,0,1,5.05,13.314)" id="text40 l" />
  <path d="M 0 64.2112012619981 L 10 64.2112012619981 L 10 65.7112012619981 L 0 65.7112012619981 Z " stroke="none" fill-rule="evenodd" fill="#000000" fill-opacity="1" transform="matrix(1,0,0,1,5.05,13.314)" id="mark41 l" />
  <path d="M 0 56.993290010664964 L 10 56.993290010664964 L 10 58.493290010664964 L 0 58.493290010664964 Z " stroke="none" fill-rule="evenodd" fill="#000000" fill-opacity="1" transform="matrix(1,0,0,1,5.05,13.314)" id="mark42 l" />
  <path d="M 0 49.77537875933183 L 10 49.77537875933183 L 10 51.27537875933183 L 0 51.27537875933183 Z " stroke="none" fill-rule="evenodd" fill="#000000" fill-opacity="1" transform="matrix(1,0,0,1,5.05,13.314)" id="mark43 l" />
  <path d="M 0 42.55746750799875 L 10 42.55746750799875 L 10 44.05746750799875 L 0 44.05746750799875 Z " stroke="none" fill-rule="evenodd" fill="#000000" fill-opacity="1" transform="matrix(1,0,0,1,5.05,13.314)" id="mark44 l" />
  <path d="M 0 35.33955625666562 L 25 35.33955625666562 L 25 36.83955625666562 L 0 36.83955625666562 Z " stroke="none" fill-rule="evenodd" fill="#000000" fill-opacity="1" transform="matrix(1,0,0,1,5.05,13.314)" id="mark45 l" />
  <path d="M 11.748 32.57355625666562 L 11.748 31.697556256665617 L 12.463999999999999 29.817556256665615 L 13.503999999999998 29.817556256665615 L 12.78 31.649556256665615 L 13.18 31.649556256665615 L 13.18 32.57355625666562 Z M 13.684 34.257556256665616 L 13.684 27.857556256665617 L 14.691999999999998 27.857556256665617 L 14.691999999999998 34.257556256665616 Z M 15.195999999999998 32.57355625666562 L 15.195999999999998 31.649556256665615 L 15.663999999999998 31.649556256665615 L 15.663999999999998 32.57355625666562 Z M 16.18 32.84155625666562 C 16.174666666666667 32.66822292333228, 16.173333333333332 32.52888958999895, 16.176 32.42355625666561 C 16.178666666666665 32.318222923332286, 16.181333333333335 32.21622292333228, 16.183999999999997 32.117556256665615 L 17.264 32.117556256665615 C 17.256 32.19488958999895, 17.25 32.29088958999895, 17.246 32.40555625666562 C 17.241999999999997 32.520222923332284, 17.240666666666666 32.630889589998944, 17.241999999999997 32.73755625666561 C 17.243333333333332 32.84422292333228, 17.246666666666666 32.92422292333228, 17.252 32.977556256665615 C 17.262666666666668 33.09755625666561, 17.297333333333334 33.19555625666562, 17.355999999999998 33.27155625666562 C 17.414666666666665 33.34755625666562, 17.497333333333334 33.401556256665614, 17.604 33.43355625666562 L 17.604 34.325556256665614 C 17.110666666666663 34.288222923332285, 16.75333333333333 34.15355625666562, 16.532 33.92155625666562 C 16.310666666666666 33.68955625666562, 16.19333333333333 33.32955625666562, 16.18 32.84155625666562 Z M 16.279999999999998 31.505556256665617 L 16.279999999999998 27.857556256665617 L 17.348 27.857556256665617 L 17.348 31.505556256665617 Z M 17.852 31.081556256665614 L 17.852 30.325556256665617 C 17.929333333333332 30.285556256665615, 18.014666666666667 30.253556256665615, 18.107999999999997 30.229556256665617 C 18.20133333333333 30.205556256665616, 18.301333333333332 30.193556256665616, 18.407999999999998 30.193556256665616 C 18.773333333333333 30.193556256665616, 19.047333333333334 30.308889589998948, 19.23 30.539556256665616 C 19.412666666666667 30.770222923332284, 19.514666666666663 31.084222923332284, 19.535999999999998 31.481556256665616 C 19.546666666666667 31.641556256665616, 19.55333333333333 31.800222923332278, 19.555999999999997 31.957556256665615 C 19.558666666666664 32.114889589998945, 19.557333333333332 32.26822292333228, 19.552 32.41755625666561 C 19.546666666666667 32.56688958999895, 19.538666666666668 32.70688958999895, 19.528 32.837556256665614 C 19.482666666666667 33.336222923332286, 19.353333333333335 33.70155625666562, 19.14 33.93355625666562 C 18.926666666666666 34.16555625666562, 18.581333333333333 34.29622292333228, 18.104 34.325556256665614 L 18.104 33.43355625666562 C 18.21333333333333 33.404222923332284, 18.296 33.35155625666562, 18.352 33.27555625666562 C 18.408 33.199556256665616, 18.44 33.10022292333228, 18.448 32.977556256665615 C 18.471999999999998 32.68688958999895, 18.485999999999997 32.425556256665615, 18.49 32.193556256665616 C 18.494 31.961556256665617, 18.485333333333333 31.740222923332283, 18.464 31.529556256665614 C 18.447999999999997 31.37488958999895, 18.396666666666665 31.25955625666562, 18.31 31.183556256665618 C 18.223333333333333 31.107556256665617, 18.090666666666664 31.069556256665614, 17.912 31.069556256665617 C 17.901333333333334 31.069556256665614, 17.890666666666668 31.07088958999895, 17.88 31.073556256665615 C 17.86933333333333 31.07622292333228, 17.86 31.078889589998948, 17.852 31.081556256665614 Z M 17.852 28.789556256665616 L 17.852 27.857556256665617 L 19.439999999999998 27.857556256665617 L 19.439999999999998 28.789556256665616 Z M 21.944 34.257556256665616 L 21.944 27.857556256665617 L 23.003999999999998 27.857556256665617 L 23.003999999999998 34.257556256665616 Z " stroke="none" fill-rule="nonzero" fill="#000000" fill-opacity="1" transform="matrix(1,0,0,1,5.05,13.314)" id="text45 l" />
  <path d="M 0 28.121645005332482 L 10 28.121645005332482 L 10 29.621645005332482 L 0 29.621645005332482 Z " stroke="none" fill-rule="evenodd" fill="#000000" fill-opacity="1" transform="matrix(1,0,0,1,5.05,13.314)" id="mark46 l" />
  <path d="M 0 20.903733753999347 L 10 20.903733753999347 L 10 22.403733753999347 L 0 22.403733753999347 Z " stroke="none" fill-rule="evenodd" fill="#000000" fill-opacity="1" transform="matrix(1,0,0,1,5.05,13.314)" id="mark47 l" />
  <path d="M 0 13.68582250266627 L 10 13.68582250266627 L 10 15.18582250266627 L 0 15.18582250266627 Z " stroke="none" fill-rule="evenodd" fill="#000000" fill-opacity="1" transform="matrix(1,0,0,1,5.05,13.314)" id="mark48 l" />
  <path d="M 0 6.467911251333135 L 10 6.467911251333135 L 10 7.967911251333135 L 0 7.967911251333135 Z " stroke="none" fill-rule="evenodd" fill="#000000" fill-opacity="1" transform="matrix(1,0,0,1,5.05,13.314)" id="mark49 l" />
  <path d="M 0 -0.75 L 25 -0.75 L 25 0.75 L 0 0.75 Z " stroke="none" fill-rule="evenodd" fill="#000000" fill-opacity="1" transform="matrix(1,0,0,1,5.05,13.314)" id="mark50 l" />
  <path d="M 12.204 -3.2159999999999997 C 12.198666666666668 -3.389333333333333, 12.197333333333333 -3.528666666666667, 12.2 -3.634 C 12.202666666666667 -3.7393333333333336, 12.205333333333336 -3.841333333333333, 12.208 -3.94 L 13.288 -3.94 C 13.280000000000001 -3.8626666666666667, 13.274000000000001 -3.7666666666666666, 13.27 -3.6519999999999997 C 13.265999999999998 -3.5373333333333328, 13.264666666666667 -3.4266666666666667, 13.266 -3.32 C 13.267333333333333 -3.213333333333334, 13.270666666666667 -3.1333333333333337, 13.276 -3.08 C 13.286666666666665 -2.96, 13.321333333333332 -2.862, 13.379999999999999 -2.7859999999999996 C 13.438666666666666 -2.71, 13.521333333333335 -2.6559999999999997, 13.628 -2.6239999999999997 L 13.628 -1.7319999999999998 C 13.134666666666668 -1.7693333333333332, 12.777333333333335 -1.904, 12.556 -2.1359999999999997 C 12.334666666666667 -2.368, 12.217333333333332 -2.7279999999999998, 12.204 -3.2159999999999997 Z M 12.304 -4.552 L 12.304 -8.2 L 13.372 -8.2 L 13.372 -4.552 Z M 13.876 -4.976 L 13.876 -5.731999999999999 C 13.953333333333333 -5.771999999999999, 14.038666666666668 -5.804, 14.132 -5.828 C 14.225333333333333 -5.852, 14.325333333333333 -5.864, 14.432 -5.864 C 14.797333333333334 -5.864, 15.071333333333332 -5.748666666666667, 15.254 -5.518 C 15.436666666666667 -5.287333333333333, 15.538666666666668 -4.973333333333333, 15.56 -4.576 C 15.570666666666668 -4.416, 15.577333333333334 -4.257333333333333, 15.58 -4.1 C 15.582666666666666 -3.9426666666666668, 15.581333333333333 -3.7893333333333334, 15.576 -3.6399999999999997 C 15.570666666666666 -3.490666666666667, 15.562666666666665 -3.3506666666666667, 15.552 -3.2199999999999998 C 15.506666666666668 -2.721333333333333, 15.377333333333333 -2.356, 15.164 -2.1239999999999997 C 14.950666666666667 -1.892, 14.605333333333332 -1.7613333333333332, 14.128 -1.7319999999999998 L 14.128 -2.6239999999999997 C 14.237333333333334 -2.653333333333333, 14.32 -2.7059999999999995, 14.376 -2.782 C 14.432 -2.8579999999999997, 14.464 -2.957333333333333, 14.472 -3.08 C 14.495999999999999 -3.3706666666666667, 14.509999999999998 -3.6319999999999997, 14.514 -3.864 C 14.518 -4.096, 14.509333333333334 -4.317333333333333, 14.488 -4.5280000000000005 C 14.472000000000001 -4.682666666666667, 14.420666666666666 -4.798, 14.334 -4.874 C 14.247333333333334 -4.949999999999999, 14.114666666666666 -4.9879999999999995, 13.936 -4.9879999999999995 C 13.925333333333333 -4.9879999999999995, 13.914666666666665 -4.986666666666666, 13.904 -4.984 C 13.893333333333334 -4.981333333333334, 13.884 -4.978666666666667, 13.876 -4.976 Z M 13.876 -7.268 L 13.876 -8.2 L 15.464 -8.2 L 15.464 -7.268 Z M 16.196 -3.2119999999999997 C 16.188000000000002 -3.641333333333333, 16.182666666666666 -4.058, 16.18 -4.462 C 16.177333333333333 -4.866, 16.177999999999997 -5.261333333333333, 16.182 -5.648 C 16.186 -6.034666666666666, 16.190666666666665 -6.416, 16.196 -6.792 C 16.209333333333333 -7.231999999999999, 16.334000000000003 -7.577333333333334, 16.57 -7.828 C 16.805999999999997 -8.078666666666667, 17.142666666666663 -8.224, 17.58 -8.264 L 17.58 -7.3759999999999994 C 17.382666666666665 -7.32, 17.281333333333333 -7.190666666666667, 17.276 -6.9879999999999995 C 17.262666666666668 -6.617333333333333, 17.253333333333334 -6.269333333333333, 17.248 -5.944 C 17.242666666666665 -5.618666666666666, 17.24 -5.302, 17.24 -4.994 C 17.24 -4.686, 17.242666666666665 -4.371333333333333, 17.248 -4.05 C 17.253333333333334 -3.7286666666666664, 17.262666666666668 -3.3853333333333326, 17.276 -3.0199999999999996 C 17.281333333333333 -2.812, 17.382666666666665 -2.6799999999999997, 17.58 -2.6239999999999997 L 17.58 -1.7359999999999998 C 17.142666666666663 -1.7759999999999998, 16.805999999999997 -1.9219999999999997, 16.57 -2.174 C 16.334000000000003 -2.4259999999999997, 16.209333333333333 -2.772, 16.196 -3.2119999999999997 Z M 18.084 -1.7359999999999998 L 18.084 -2.6279999999999997 C 18.268 -2.681333333333333, 18.366666666666667 -2.8053333333333335, 18.38 -3 C 18.398666666666667 -3.4666666666666663, 18.410666666666668 -3.915333333333333, 18.416 -4.346 C 18.421333333333333 -4.776666666666666, 18.421333333333333 -5.207333333333333, 18.416 -5.638 C 18.410666666666668 -6.068666666666666, 18.398666666666667 -6.521333333333333, 18.38 -6.9959999999999996 C 18.374666666666666 -7.190666666666667, 18.276 -7.317333333333334, 18.084 -7.3759999999999994 L 18.084 -8.264 C 18.513333333333335 -8.224, 18.846666666666668 -8.078666666666667, 19.084 -7.828 C 19.321333333333335 -7.577333333333334, 19.445333333333334 -7.231999999999999, 19.456 -6.792 C 19.46666666666667 -6.477333333333332, 19.474666666666668 -6.167333333333333, 19.48 -5.861999999999999 C 19.485333333333333 -5.556666666666667, 19.488 -5.256, 19.488 -4.96 C 19.488 -4.664, 19.485333333333333 -4.370666666666667, 19.48 -4.08 C 19.474666666666668 -3.7893333333333334, 19.46666666666667 -3.5, 19.456 -3.2119999999999997 C 19.439999999999998 -2.761333333333333, 19.311999999999998 -2.4126666666666665, 19.072 -2.166 C 18.832 -1.9193333333333331, 18.502666666666666 -1.7759999999999998, 18.084 -1.7359999999999998 Z M 21.944 -1.7999999999999998 L 21.944 -8.2 L 23.003999999999998 -8.2 L 23.003999999999998 -1.7999999999999998 Z " stroke="none" fill-rule="nonzero" fill="#000000" fill-opacity="1" transform="matrix(1,0,0,1,5.05,13.314)" id="text50 l" />
  <path d="M -5 -13.264 L 30 -13.264 L 30 360.44565131532295 L -5 360.44565131532295 Z " stroke="#FF0000" stroke-opacity="1" stroke-width="0.1" stroke-linecap="butt" stroke-linejoin="miter" fill="none" transform="matrix(1,0,0,1,5.05,13.314)" />
</svg>