<?xml version="1.0" encoding="UTF-8"?>
<svg xmlns:xlink="http://www.w3.org/1999/xlink" viewBox="0 0 35.1 165.25624997931214" version="1.1" style="font-synthesis: none;" width="35.1mm" height="165.25624997931212mm" xmlns="http://www.w3.org/2000/svg">
  <defs />
  <style>	</style>
  <path d="M 0 0 L 35.1 0 L 35.1 165.25624997931214 L 0 165.25624997931214 Z " stroke="none" fill-rule="nonzero" fill="#FFFFFF" fill-opacity="1" transform="matrix(1,0,0,1,0,0)" />
  <path d="M 0 144.3742499793121 L 10 144.3742499793121 L 10 145.8742499793121 L 0 145.8742499793121 Z " stroke="none" fill-rule="evenodd" fill="#000000" fill-opacity="1" transform="matrix(1,0,0,1,5.05,13.314)" id="mark1 l" />
  <path d="M 0 128.2493333149441 L 10 128.2493333149441 L 10 129.7493333149441 L 0 129.7493333149441 Z " stroke="none" fill-rule="evenodd" fill="#000000" fill-opacity="1" transform="matrix(1,0,0,1,5.05,13.314)" id="mark2 l" />
  <path d="M 0 112.12441665057608 L 10 112.12441665057608 L 10 113.62441665057608 L 0 113.62441665057608 Z " stroke="none" fill-rule="evenodd" fill="#000000" fill-opacity="1" transform="matrix(1,0,0,1,5.05,13.314)" id="mark3 l" />
  <path d="M 0 95.99949998620808 L 10 95.99949998620808 L 10 97.49949998620808 L 0 97.49949998620808 Z " stroke="none" fill-rule="evenodd" fill="#000000" fill-opacity="1" transform="matrix(1,0,0,1,5.05,13.314)" id="mark4 l" />
  <path d="M 0 79.87458332184006 L 25 79.87458332184006 L 25 81.37458332184006 L 0 81.37458332184006 Z " stroke="none" fill-rule="evenodd" fill="#000000" fill-opacity="1" transform="matrix(1,0,0,1,5.05,13.314)" id="mark5 l" />
  <path d="M 16.18 77.37658332184007 C 16.174666666666667 77.20324998850674, 16.173333333333332 77.0639166551734, 16.176 76.95858332184007 C 16.178666666666665 76.85324998850673, 16.181333333333335 76.75124998850673, 16.183999999999997 76.65258332184007 L 17.264 76.65258332184007 C 17.256 76.7299166551734, 17.25 76.8259166551734, 17.246 76.94058332184007 C 17.241999999999997 77.05524998850673, 17.240666666666666 77.16591665517339, 17.241999999999997 77.27258332184007 C 17.243333333333332 77.37924998850673, 17.246666666666666 77.45924998850674, 17.252 77.51258332184007 C 17.262666666666668 77.63258332184007, 17.297333333333334 77.73058332184007, 17.355999999999998 77.80658332184007 C 17.414666666666665 77.88258332184006, 17.497333333333334 77.93658332184006, 17.604 77.96858332184007 L 17.604 78.86058332184007 C 17.110666666666663 78.82324998850673, 16.75333333333333 78.68858332184007, 16.532 78.45658332184007 C 16.310666666666666 78.22458332184007, 16.19333333333333 77.86458332184007, 16.18 77.37658332184007 Z M 16.279999999999998 76.04058332184007 L 16.279999999999998 72.39258332184006 L 17.348 72.39258332184006 L 17.348 76.04058332184007 Z M 17.852 75.61658332184007 L 17.852 74.86058332184007 C 17.929333333333332 74.82058332184008, 18.014666666666667 74.78858332184006, 18.107999999999997 74.76458332184006 C 18.20133333333333 74.74058332184006, 18.301333333333332 74.72858332184006, 18.407999999999998 74.72858332184006 C 18.773333333333333 74.72858332184006, 19.047333333333334 74.8439166551734, 19.23 75.07458332184007 C 19.412666666666667 75.30524998850673, 19.514666666666663 75.61924998850674, 19.535999999999998 76.01658332184007 C 19.546666666666667 76.17658332184007, 19.55333333333333 76.33524998850673, 19.555999999999997 76.49258332184007 C 19.558666666666664 76.6499166551734, 19.557333333333332 76.80324998850674, 19.552 76.95258332184007 C 19.546666666666667 77.1019166551734, 19.538666666666668 77.24191665517341, 19.528 77.37258332184007 C 19.482666666666667 77.87124998850675, 19.353333333333335 78.23658332184007, 19.14 78.46858332184007 C 18.926666666666666 78.70058332184007, 18.581333333333333 78.83124998850674, 18.104 78.86058332184007 L 18.104 77.96858332184007 C 18.21333333333333 77.93924998850673, 18.296 77.88658332184008, 18.352 77.81058332184007 C 18.408 77.73458332184006, 18.44 77.63524998850673, 18.448 77.51258332184007 C 18.471999999999998 77.2219166551734, 18.485999999999997 76.96058332184008, 18.49 76.72858332184006 C 18.494 76.49658332184006, 18.485333333333333 76.27524998850673, 18.464 76.06458332184008 C 18.447999999999997 75.9099166551734, 18.396666666666665 75.79458332184007, 18.31 75.71858332184007 C 18.223333333333333 75.64258332184008, 18.090666666666664 75.60458332184007, 17.912 75.60458332184007 C 17.901333333333334 75.60458332184007, 17.890666666666668 75.6059166551734, 17.88 75.60858332184007 C 17.86933333333333 75.61124998850673, 17.86 75.6139166551734, 17.852 75.61658332184007 Z M 17.852 73.32458332184007 L 17.852 72.39258332184006 L 19.439999999999998 72.39258332184006 L 19.439999999999998 73.32458332184007 Z M 21.944 78.79258332184007 L 21.944 72.39258332184006 L 23.003999999999998 72.39258332184006 L 23.003999999999998 78.79258332184007 Z " stroke="none" fill-rule="nonzero" fill="#000000" fill-opacity="1" transform="matrix(1,0,0,1,5.05,13.314)" id="text5 l" />
  <path d="M 0 63.74966665747205 L 10 63.74966665747205 L 10 65.24966665747205 L 0 65.24966665747205 Z " stroke="none" fill-rule="evenodd" fill="#000000" fill-opacity="1" transform="matrix(1,0,0,1,5.05,13.314)" id="mark6 l" />
  <path d="M 0 47.62474999310403 L 10 47.62474999310403 L 10 49.12474999310403 L 0 49.12474999310403 Z " stroke="none" fill-rule="evenodd" fill="#000000" fill-opacity="1" transform="matrix(1,0,0,1,5.05,13.314)" id="mark7 l" />
  <path d="M 0 31.49983332873603 L 10 31.49983332873603 L 10 32.99983332873603 L 0 32.99983332873603 Z " stroke="none" fill-rule="evenodd" fill="#000000" fill-opacity="1" transform="matrix(1,0,0,1,5.05,13.314)" id="mark8 l" />
  <path d="M 0 15.374916664368016 L 10 15.374916664368016 L 10 16.874916664368016 L 0 16.874916664368016 Z " stroke="none" fill-rule="evenodd" fill="#000000" fill-opacity="1" transform="matrix(1,0,0,1,5.05,13.314)" id="mark9 l" />
  <path d="M 0 -0.75 L 25 -0.75 L 25 0.75 L 0 0.75 Z " stroke="none" fill-rule="evenodd" fill="#000000" fill-opacity="1" transform="matrix(1,0,0,1,5.05,13.314)" id="mark10 l" />
  <path d="M 14.323999999999998 -1.7999999999999998 L 14.323999999999998 -7.244 L 13.871999999999998 -7.244 L 13.839999999999998 -7.624 L 14.543999999999999 -8.2 L 15.424 -8.2 L 15.424 -1.7999999999999998 Z M 16.196 -3.2119999999999997 C 16.188000000000002 -3.641333333333333, 16.182666666666666 -4.058, 16.18 -4.462 C 16.177333333333333 -4.866, 16.177999999999997 -5.261333333333333, 16.182 -5.648 C 16.186 -6.034666666666666, 16.190666666666665 -6.416, 16.196 -6.792 C 16.209333333333333 -7.231999999999999, 16.334000000000003 -7.577333333333334, 16.57 -7.828 C 16.805999999999997 -8.078666666666667, 17.142666666666663 -8.224, 17.58 -8.264 L 17.58 -7.3759999999999994 C 17.382666666666665 -7.32, 17.281333333333333 -7.190666666666667, 17.276 -6.9879999999999995 C 17.262666666666668 -6.617333333333333, 17.253333333333334 -6.269333333333333, 17.248 -5.944 C 17.242666666666665 -5.618666666666666, 17.24 -5.302, 17.24 -4.994 C 17.24 -4.686, 17.242666666666665 -4.371333333333333, 17.248 -4.05 C 17.253333333333334 -3.7286666666666664, 17.262666666666668 -3.3853333333333326, 17.276 -3.0199999999999996 C 17.281333333333333 -2.812, 17.382666666666665 -2.6799999999999997, 17.58 -2.6239999999999997 L 17.58 -1.7359999999999998 C 17.142666666666663 -1.7759999999999998, 16.805999999999997 -1.9219999999999997, 16.57 -2.174 C 16.334000000000003 -2.4259999999999997, 16.209333333333333 -2.772, 16.196 -3.2119999999999997 Z M 18.084 -1.7359999999999998 L 18.084 -2.6279999999999997 C 18.268 -2.681333333333333, 18.366666666666667 -2.8053333333333335, 18.38 -3 C 18.398666666666667 -3.4666666666666663, 18.410666666666668 -3.915333333333333, 18.416 -4.346 C 18.421333333333333 -4.776666666666666, 18.421333333333333 -5.207333333333333, 18.416 -5.638 C 18.410666666666668 -6.068666666666666, 18.398666666666667 -6.521333333333333, 18.38 -6.9959999999999996 C 18.374666666666666 -7.190666666666667, 18.276 -7.317333333333334, 18.084 -7.3759999999999994 L 18.084 -8.264 C 18.513333333333335 -8.224, 18.846666666666668 -8.078666666666667, 19.084 -7.828 C 19.321333333333335 -7.577333333333334, 19.445333333333334 -7.231999999999999, 19.456 -6.792 C 19.46666666666667 -6.477333333333332, 19.474666666666668 -6.167333333333333, 19.48 -5.861999999999999 C 19.485333333333333 -5.556666666666667, 19.488 -5.256, 19.488 -4.96 C 19.488 -4.664, 19.485333333333333 -4.370666666666667, 19.48 -4.08 C 19.474666666666668 -3.7893333333333334, 19.46666666666667 -3.5, 19.456 -3.2119999999999997 C 19.439999999999998 -2.761333333333333, 19.311999999999998 -2.4126666666666665, 19.072 -2.166 C 18.832 -1.9193333333333331, 18.502666666666666 -1.7759999999999998, 18.084 -1.7359999999999998 Z M 21.944 -1.7999999999999998 L 21.944 -8.2 L 23.003999999999998 -8.2 L 23.003999999999998 -1.7999999999999998 Z " stroke="none" fill-rule="nonzero" fill="#000000" fill-opacity="1" transform="matrix(1,0,0,1,5.05,13.314)" id="text10 l" />
  <path d="M -5 -13.264 L 30 -13.264 L 30 151.8922499793121 L -5 151.8922499793121 Z " stroke="#FF0000" stroke-opacity="1" stroke-width="0.1" stroke-linecap="butt" stroke-linejoin="miter" fill="none" transform="matrix(1,0,0,1,5.05,13.314)" />
</svg>