<?xml version="1.0" encoding="UTF-8"?>
<svg xmlns:xlink="http://www.w3.org/1999/xlink" viewBox="0 0 35.1 346.66535046143025" version="1.1" style="font-synthesis: none;" width="35.1mm" height="346.6653504614302mm" xmlns="http://www.w3.org/2000/svg">
  <defs />
  <style>	</style>
  <path d="M 0 0 L 35.1 0 L 35.1 346.66535046143025 L 0 346.66535046143025 Z " stroke="none" fill-rule="nonzero" fill="#FFFFFF" fill-opacity="1" transform="matrix(1,0,0,1,0,0)" />
  <path d="M 0 331.85135046143023 L 10 331.85135046143023 L 10 333.35135046143023 L 0 333.35135046143023 Z " stroke="none" fill-rule="evenodd" fill="#000000" fill-opacity="1" transform="matrix(1,0,0,1,5.05,13.314)" id="mark1 l" />
  <path d="M 0 321.45755825951056 L 10 321.45755825951056 L 10 322.95755825951056 L 0 322.95755825951056 Z " stroke="none" fill-rule="evenodd" fill="#000000" fill-opacity="1" transform="matrix(1,0,0,1,5.05,13.314)" id="mark2 l" />
  <path d="M 0 311.06376605759084 L 10 311.06376605759084 L 10 312.56376605759084 L 0 312.56376605759084 Z " stroke="none" fill-rule="evenodd" fill="#000000" fill-opacity="1" transform="matrix(1,0,0,1,5.05,13.314)" id="mark3 l" />
  <path d="M 0 300.6699738556712 L 10 300.6699738556712 L 10 302.1699738556712 L 0 302.1699738556712 Z " stroke="none" fill-rule="evenodd" fill="#000000" fill-opacity="1" transform="matrix(1,0,0,1,5.05,13.314)" id="mark4 l" />
  <path d="M 0 290.27618165375145 L 25 290.27618165375145 L 25 291.77618165375145 L 0 291.77618165375145 Z " stroke="none" fill-rule="evenodd" fill="#000000" fill-opacity="1" transform="matrix(1,0,0,1,5.05,13.314)" id="mark5 l" />
  <path d="M 16.18 287.77818165375146 C 16.174666666666667 287.6048483204181, 16.173333333333332 287.4655149870848, 16.176 287.36018165375145 C 16.178666666666665 287.2548483204181, 16.181333333333335 287.1528483204181, 16.183999999999997 287.05418165375147 L 17.264 287.05418165375147 C 17.256 287.13151498708476, 17.25 287.22751498708476, 17.246 287.3421816537515 C 17.241999999999997 287.4568483204181, 17.240666666666666 287.5675149870848, 17.241999999999997 287.6741816537515 C 17.243333333333332 287.7808483204181, 17.246666666666666 287.86084832041814, 17.252 287.9141816537515 C 17.262666666666668 288.03418165375143, 17.297333333333334 288.13218165375145, 17.355999999999998 288.20818165375147 C 17.414666666666665 288.28418165375143, 17.497333333333334 288.33818165375146, 17.604 288.37018165375144 L 17.604 289.26218165375144 C 17.110666666666663 289.2248483204181, 16.75333333333333 289.0901816537515, 16.532 288.85818165375144 C 16.310666666666666 288.6261816537514, 16.19333333333333 288.26618165375146, 16.18 287.77818165375146 Z M 16.279999999999998 286.44218165375145 L 16.279999999999998 282.7941816537515 L 17.348 282.7941816537515 L 17.348 286.44218165375145 Z M 17.852 286.01818165375147 L 17.852 285.26218165375144 C 17.929333333333332 285.2221816537514, 18.014666666666667 285.19018165375144, 18.107999999999997 285.16618165375144 C 18.20133333333333 285.14218165375144, 18.301333333333332 285.13018165375144, 18.407999999999998 285.13018165375144 C 18.773333333333333 285.13018165375144, 19.047333333333334 285.2455149870848, 19.23 285.47618165375144 C 19.412666666666667 285.7068483204181, 19.514666666666663 286.0208483204181, 19.535999999999998 286.41818165375145 C 19.546666666666667 286.57818165375147, 19.55333333333333 286.7368483204181, 19.555999999999997 286.89418165375145 C 19.558666666666664 287.0515149870848, 19.557333333333332 287.20484832041814, 19.552 287.3541816537515 C 19.546666666666667 287.5035149870848, 19.538666666666668 287.6435149870848, 19.528 287.77418165375144 C 19.482666666666667 288.2728483204181, 19.353333333333335 288.6381816537514, 19.14 288.87018165375144 C 18.926666666666666 289.1021816537515, 18.581333333333333 289.23284832041816, 18.104 289.26218165375144 L 18.104 288.37018165375144 C 18.21333333333333 288.3408483204181, 18.296 288.28818165375145, 18.352 288.21218165375143 C 18.408 288.13618165375146, 18.44 288.03684832041813, 18.448 287.9141816537515 C 18.471999999999998 287.6235149870848, 18.485999999999997 287.36218165375146, 18.49 287.13018165375144 C 18.494 286.89818165375146, 18.485333333333333 286.6768483204181, 18.464 286.46618165375145 C 18.447999999999997 286.3115149870848, 18.396666666666665 286.19618165375147, 18.31 286.12018165375144 C 18.223333333333333 286.0441816537515, 18.090666666666664 286.00618165375147, 17.912 286.00618165375147 C 17.901333333333334 286.00618165375147, 17.890666666666668 286.0075149870848, 17.88 286.01018165375143 C 17.86933333333333 286.01284832041813, 17.86 286.01551498708477, 17.852 286.01818165375147 Z M 17.852 283.72618165375144 L 17.852 282.7941816537515 L 19.439999999999998 282.7941816537515 L 19.439999999999998 283.72618165375144 Z M 21.944 289.19418165375146 L 21.944 282.7941816537515 L 23.003999999999998 282.7941816537515 L 23.003999999999998 289.19418165375146 Z " stroke="none" fill-rule="nonzero" fill="#000000" fill-opacity="1" transform="matrix(1,0,0,1,5.05,13.314)" id="text5 l" />
  <path d="M 0 279.8823894518318 L 10 279.8823894518318 L 10 281.3823894518318 L 0 281.3823894518318 Z " stroke="none" fill-rule="evenodd" fill="#000000" fill-opacity="1" transform="matrix(1,0,0,1,5.05,13.314)" id="mark6 l" />
  <path d="M 0 269.48859724991206 L 10 269.48859724991206 L 10 270.98859724991206 L 0 270.98859724991206 Z " stroke="none" fill-rule="evenodd" fill="#000000" fill-opacity="1" transform="matrix(1,0,0,1,5.05,13.314)" id="mark7 l" />
  <path d="M 0 259.0948050479924 L 10 259.0948050479924 L 10 260.5948050479924 L 0 260.5948050479924 Z " stroke="none" fill-rule="evenodd" fill="#000000" fill-opacity="1" transform="matrix(1,0,0,1,5.05,13.314)" id="mark8 l" />
  <path d="M 0 248.70101284607267 L 10 248.70101284607267 L 10 250.20101284607267 L 0 250.20101284607267 Z " stroke="none" fill-rule="evenodd" fill="#000000" fill-opacity="1" transform="matrix(1,0,0,1,5.05,13.314)" id="mark9 l" />
  <path d="M 0 238.307220644153 L 25 238.307220644153 L 25 239.807220644153 L 0 239.807220644153 Z " stroke="none" fill-rule="evenodd" fill="#000000" fill-opacity="1" transform="matrix(1,0,0,1,5.05,13.314)" id="mark10 l" />
  <path d="M 14.323999999999998 237.25722064415302 L 14.323999999999998 231.81322064415303 L 13.871999999999998 231.81322064415303 L 13.839999999999998 231.433220644153 L 14.543999999999999 230.85722064415302 L 15.424 230.85722064415302 L 15.424 237.25722064415302 Z M 16.196 235.84522064415302 C 16.188000000000002 235.4158873108197, 16.182666666666666 234.999220644153, 16.18 234.59522064415302 C 16.177333333333333 234.19122064415302, 16.177999999999997 233.7958873108197, 16.182 233.409220644153 C 16.186 233.02255397748635, 16.190666666666665 232.641220644153, 16.196 232.26522064415303 C 16.209333333333333 231.82522064415303, 16.334000000000003 231.4798873108197, 16.57 231.22922064415303 C 16.805999999999997 230.97855397748637, 17.142666666666663 230.83322064415302, 17.58 230.79322064415302 L 17.58 231.68122064415303 C 17.382666666666665 231.73722064415304, 17.281333333333333 231.86655397748638, 17.276 232.06922064415303 C 17.262666666666668 232.4398873108197, 17.253333333333334 232.7878873108197, 17.248 233.11322064415302 C 17.242666666666665 233.43855397748638, 17.24 233.75522064415304, 17.24 234.06322064415303 C 17.24 234.37122064415303, 17.242666666666665 234.68588731081968, 17.248 235.00722064415302 C 17.253333333333334 235.32855397748637, 17.262666666666668 235.6718873108197, 17.276 236.03722064415302 C 17.281333333333333 236.24522064415302, 17.382666666666665 236.377220644153, 17.58 236.433220644153 L 17.58 237.32122064415302 C 17.142666666666663 237.28122064415302, 16.805999999999997 237.13522064415304, 16.57 236.88322064415303 C 16.334000000000003 236.63122064415302, 16.209333333333333 236.28522064415301, 16.196 235.84522064415302 Z M 18.084 237.32122064415302 L 18.084 236.42922064415302 C 18.268 236.37588731081968, 18.366666666666667 236.2518873108197, 18.38 236.05722064415303 C 18.398666666666667 235.59055397748637, 18.410666666666668 235.1418873108197, 18.416 234.71122064415303 C 18.421333333333333 234.28055397748636, 18.421333333333333 233.84988731081967, 18.416 233.41922064415303 C 18.410666666666668 232.98855397748633, 18.398666666666667 232.53588731081967, 18.38 232.06122064415302 C 18.374666666666666 231.86655397748635, 18.276 231.73988731081968, 18.084 231.68122064415303 L 18.084 230.79322064415302 C 18.513333333333335 230.83322064415302, 18.846666666666668 230.97855397748637, 19.084 231.22922064415303 C 19.321333333333335 231.4798873108197, 19.445333333333334 231.82522064415303, 19.456 232.26522064415303 C 19.46666666666667 232.5798873108197, 19.474666666666668 232.8898873108197, 19.48 233.195220644153 C 19.485333333333333 233.50055397748633, 19.488 233.80122064415303, 19.488 234.09722064415303 C 19.488 234.39322064415302, 19.485333333333333 234.68655397748637, 19.48 234.97722064415302 C 19.474666666666668 235.26788731081967, 19.46666666666667 235.557220644153, 19.456 235.84522064415302 C 19.439999999999998 236.2958873108197, 19.311999999999998 236.64455397748634, 19.072 236.891220644153 C 18.832 237.13788731081968, 18.502666666666666 237.28122064415302, 18.084 237.32122064415302 Z M 21.944 237.25722064415302 L 21.944 230.85722064415302 L 23.003999999999998 230.85722064415302 L 23.003999999999998 237.25722064415302 Z " stroke="none" fill-rule="nonzero" fill="#000000" fill-opacity="1" transform="matrix(1,0,0,1,5.05,13.314)" id="text10 l" />
  <path d="M 0 227.91342844223328 L 10 227.91342844223328 L 10 229.41342844223328 L 0 229.41342844223328 Z " stroke="none" fill-rule="evenodd" fill="#000000" fill-opacity="1" transform="matrix(1,0,0,1,5.05,13.314)" id="mark11 l" />
  <path d="M 0 217.51963624031362 L 10 217.51963624031362 L 10 219.01963624031362 L 0 219.01963624031362 Z " stroke="none" fill-rule="evenodd" fill="#000000" fill-opacity="1" transform="matrix(1,0,0,1,5.05,13.314)" id="mark12 l" />
  <path d="M 0 207.1258440383939 L 10 207.1258440383939 L 10 208.6258440383939 L 0 208.6258440383939 Z " stroke="none" fill-rule="evenodd" fill="#000000" fill-opacity="1" transform="matrix(1,0,0,1,5.05,13.314)" id="mark13 l" />
  <path d="M 0 196.7320518364742 L 10 196.7320518364742 L 10 198.2320518364742 L 0 198.2320518364742 Z " stroke="none" fill-rule="evenodd" fill="#000000" fill-opacity="1" transform="matrix(1,0,0,1,5.05,13.314)" id="mark14 l" />
  <path d="M 0 186.3382596345545 L 25 186.3382596345545 L 25 187.8382596345545 L 0 187.8382596345545 Z " stroke="none" fill-rule="evenodd" fill="#000000" fill-opacity="1" transform="matrix(1,0,0,1,5.05,13.314)" id="mark15 l" />
  <path d="M 14.331999999999999 185.2562596345545 L 14.331999999999999 179.81225963455452 L 13.879999999999999 179.81225963455452 L 13.847999999999999 179.4322596345545 L 14.552 178.8562596345545 L 15.432 178.8562596345545 L 15.432 185.2562596345545 Z M 16.18 183.8402596345545 C 16.174666666666667 183.6669263012212, 16.173333333333332 183.52759296788784, 16.176 183.4222596345545 C 16.178666666666665 183.31692630122117, 16.181333333333335 183.2149263012212, 16.183999999999997 183.11625963455452 L 17.264 183.11625963455452 C 17.256 183.19359296788784, 17.25 183.28959296788784, 17.246 183.4042596345545 C 17.241999999999997 183.51892630122117, 17.240666666666666 183.62959296788785, 17.241999999999997 183.7362596345545 C 17.243333333333332 183.84292630122115, 17.246666666666666 183.92292630122117, 17.252 183.9762596345545 C 17.262666666666668 184.0962596345545, 17.297333333333334 184.19425963455453, 17.355999999999998 184.27025963455452 C 17.414666666666665 184.3462596345545, 17.497333333333334 184.40025963455452, 17.604 184.4322596345545 L 17.604 185.32425963455452 C 17.110666666666663 185.28692630122117, 16.75333333333333 185.15225963455453, 16.532 184.9202596345545 C 16.310666666666666 184.68825963455453, 16.19333333333333 184.3282596345545, 16.18 183.8402596345545 Z M 16.279999999999998 182.5042596345545 L 16.279999999999998 178.8562596345545 L 17.348 178.8562596345545 L 17.348 182.5042596345545 Z M 17.852 182.08025963455452 L 17.852 181.32425963455452 C 17.929333333333332 181.28425963455453, 18.014666666666667 181.25225963455452, 18.107999999999997 181.22825963455452 C 18.20133333333333 181.20425963455452, 18.301333333333332 181.19225963455452, 18.407999999999998 181.19225963455452 C 18.773333333333333 181.19225963455452, 19.047333333333334 181.30759296788784, 19.23 181.53825963455452 C 19.412666666666667 181.76892630122117, 19.514666666666663 182.08292630122116, 19.535999999999998 182.4802596345545 C 19.546666666666667 182.64025963455452, 19.55333333333333 182.79892630122117, 19.555999999999997 182.9562596345545 C 19.558666666666664 183.11359296788785, 19.557333333333332 183.2669263012212, 19.552 183.4162596345545 C 19.546666666666667 183.56559296788782, 19.538666666666668 183.70559296788784, 19.528 183.83625963455452 C 19.482666666666667 184.33492630122117, 19.353333333333335 184.7002596345545, 19.14 184.9322596345545 C 18.926666666666666 185.1642596345545, 18.581333333333333 185.29492630122118, 18.104 185.32425963455452 L 18.104 184.4322596345545 C 18.21333333333333 184.40292630122116, 18.296 184.3502596345545, 18.352 184.2742596345545 C 18.408 184.19825963455452, 18.44 184.09892630122118, 18.448 183.9762596345545 C 18.471999999999998 183.68559296788783, 18.485999999999997 183.42425963455452, 18.49 183.19225963455452 C 18.494 182.96025963455452, 18.485333333333333 182.73892630122117, 18.464 182.5282596345545 C 18.447999999999997 182.37359296788784, 18.396666666666665 182.25825963455452, 18.31 182.1822596345545 C 18.223333333333333 182.10625963455453, 18.090666666666664 182.06825963455452, 17.912 182.06825963455452 C 17.901333333333334 182.06825963455452, 17.890666666666668 182.06959296788784, 17.88 182.0722596345545 C 17.86933333333333 182.07492630122118, 17.86 182.07759296788782, 17.852 182.08025963455452 Z M 17.852 179.78825963455452 L 17.852 178.8562596345545 L 19.439999999999998 178.8562596345545 L 19.439999999999998 179.78825963455452 Z M 21.944 185.2562596345545 L 21.944 178.8562596345545 L 23.003999999999998 178.8562596345545 L 23.003999999999998 185.2562596345545 Z " stroke="none" fill-rule="nonzero" fill="#000000" fill-opacity="1" transform="matrix(1,0,0,1,5.05,13.314)" id="text15 l" />
  <path d="M 0 175.9444674326348 L 10 175.9444674326348 L 10 177.4444674326348 L 0 177.4444674326348 Z " stroke="none" fill-rule="evenodd" fill="#000000" fill-opacity="1" transform="matrix(1,0,0,1,5.05,13.314)" id="mark16 l" />
  <path d="M 0 165.55067523071511 L 10 165.55067523071511 L 10 167.05067523071511 L 0 167.05067523071511 Z " stroke="none" fill-rule="evenodd" fill="#000000" fill-opacity="1" transform="matrix(1,0,0,1,5.05,13.314)" id="mark17 l" />
  <path d="M 0 155.15688302879542 L 10 155.15688302879542 L 10 156.65688302879542 L 0 156.65688302879542 Z " stroke="none" fill-rule="evenodd" fill="#000000" fill-opacity="1" transform="matrix(1,0,0,1,5.05,13.314)" id="mark18 l" />
  <path d="M 0 144.76309082687573 L 10 144.76309082687573 L 10 146.26309082687573 L 0 146.26309082687573 Z " stroke="none" fill-rule="evenodd" fill="#000000" fill-opacity="1" transform="matrix(1,0,0,1,5.05,13.314)" id="mark19 l" />
  <path d="M 0 134.36929862495603 L 25 134.36929862495603 L 25 135.86929862495603 L 0 135.86929862495603 Z " stroke="none" fill-rule="evenodd" fill="#000000" fill-opacity="1" transform="matrix(1,0,0,1,5.05,13.314)" id="mark20 l" />
  <path d="M 12.319999999999999 133.31929862495605 C 12.317333333333334 133.22063195828937, 12.315333333333331 133.13196529162272, 12.313999999999998 133.05329862495606 C 12.312666666666665 132.9746319582894, 12.311333333333334 132.90063195828938, 12.309999999999999 132.83129862495605 C 12.308666666666667 132.76196529162272, 12.308 132.6899652916227, 12.308 132.61529862495604 C 12.308 132.54063195828937, 12.308 132.4559652916227, 12.308 132.36129862495605 C 12.308 132.2666319582894, 12.309333333333335 132.15529862495606, 12.312 132.02729862495605 C 12.32 131.73396529162272, 12.37 131.47196529162272, 12.462 131.24129862495604 C 12.554 131.01063195828937, 12.687999999999999 130.80463195828938, 12.863999999999999 130.62329862495605 C 13.04 130.44196529162272, 13.257333333333333 130.28063195828938, 13.515999999999998 130.13929862495604 L 14.047999999999998 129.85129862495606 C 14.234666666666666 129.74996529162271, 14.354 129.62796529162273, 14.405999999999999 129.48529862495604 C 14.457999999999998 129.34263195828936, 14.488 129.20863195828937, 14.495999999999999 129.08329862495606 C 14.506666666666664 128.93663195828938, 14.512666666666664 128.77996529162272, 14.514 128.61329862495606 C 14.51533333333333 128.4466319582894, 14.511999999999997 128.28996529162274, 14.504 128.14329862495606 C 14.498666666666665 128.03929862495605, 14.468666666666666 127.95329862495605, 14.413999999999998 127.88529862495605 C 14.359333333333332 127.81729862495605, 14.279999999999998 127.76863195828938, 14.175999999999998 127.73929862495605 L 14.175999999999998 126.85129862495604 C 14.663999999999998 126.88329862495604, 15.014 127.01463195828939, 15.225999999999999 127.24529862495605 C 15.437999999999999 127.47596529162271, 15.554666666666666 127.83663195828939, 15.575999999999999 128.32729862495606 C 15.578666666666663 128.39129862495605, 15.580666666666666 128.4566319582894, 15.581999999999999 128.52329862495606 C 15.583333333333332 128.58996529162272, 15.584 128.65463195828937, 15.584 128.71729862495604 C 15.584 128.77996529162272, 15.583333333333332 128.8419652916227, 15.581999999999999 128.90329862495605 C 15.580666666666666 128.96463195828937, 15.578666666666663 129.02463195828938, 15.575999999999999 129.08329862495606 C 15.565333333333331 129.3686319582894, 15.512 129.61529862495604, 15.415999999999999 129.82329862495604 C 15.32 130.03129862495604, 15.19 130.21129862495604, 15.026 130.36329862495606 C 14.862 130.51529862495605, 14.672 130.65129862495604, 14.456 130.77129862495605 L 13.851999999999999 131.09929862495605 C 13.737333333333332 131.1606319582894, 13.647333333333332 131.2446319582894, 13.581999999999999 131.35129862495606 C 13.516666666666666 131.4579652916227, 13.469999999999999 131.57129862495606, 13.441999999999998 131.69129862495606 C 13.413999999999998 131.81129862495604, 13.399999999999999 131.92329862495603, 13.399999999999999 132.02729862495605 L 13.399999999999999 133.31929862495605 Z M 12.328 129.27929862495606 C 12.322666666666667 129.16196529162272, 12.318666666666665 129.04729862495606, 12.315999999999999 128.93529862495603 C 12.313333333333333 128.82329862495607, 12.311333333333334 128.71729862495607, 12.309999999999999 128.61729862495605 C 12.308666666666667 128.51729862495603, 12.309333333333335 128.4206319582894, 12.312 128.32729862495606 C 12.330666666666666 127.83929862495604, 12.447333333333333 127.4799652916227, 12.661999999999999 127.24929862495605 C 12.876666666666665 127.01863195828938, 13.213333333333331 126.88596529162271, 13.671999999999999 126.85129862495604 L 13.671999999999999 127.74329862495605 C 13.576 127.7726319582894, 13.505333333333333 127.81929862495605, 13.459999999999999 127.88329862495604 C 13.414666666666665 127.94729862495603, 13.390666666666664 128.02463195828938, 13.387999999999998 128.11529862495604 C 13.382666666666665 128.32329862495604, 13.379333333333333 128.5166319582894, 13.378 128.69529862495605 C 13.376666666666667 128.8739652916227, 13.381333333333334 129.0686319582894, 13.392 129.27929862495606 Z M 13.904 133.31929862495605 L 13.904 132.38729862495606 L 15.5 132.38729862495606 L 15.5 133.31929862495605 Z M 16.196 131.90729862495604 C 16.188000000000002 131.4779652916227, 16.182666666666666 131.06129862495604, 16.18 130.65729862495604 C 16.177333333333333 130.25329862495605, 16.177999999999997 129.85796529162272, 16.182 129.47129862495603 C 16.186 129.08463195828938, 16.190666666666665 128.70329862495606, 16.196 128.32729862495606 C 16.209333333333333 127.88729862495605, 16.334000000000003 127.54196529162272, 16.57 127.29129862495604 C 16.805999999999997 127.0406319582894, 17.142666666666663 126.89529862495606, 17.58 126.85529862495605 L 17.58 127.74329862495605 C 17.382666666666665 127.79929862495604, 17.281333333333333 127.92863195828937, 17.276 128.13129862495606 C 17.262666666666668 128.50196529162272, 17.253333333333334 128.8499652916227, 17.248 129.17529862495604 C 17.242666666666665 129.50063195828938, 17.24 129.81729862495604, 17.24 130.12529862495606 C 17.24 130.43329862495605, 17.242666666666665 130.7479652916227, 17.248 131.06929862495605 C 17.253333333333334 131.3906319582894, 17.262666666666668 131.73396529162272, 17.276 132.09929862495605 C 17.281333333333333 132.30729862495605, 17.382666666666665 132.43929862495605, 17.58 132.49529862495604 L 17.58 133.38329862495604 C 17.142666666666663 133.34329862495605, 16.805999999999997 133.19729862495603, 16.57 132.94529862495605 C 16.334000000000003 132.69329862495604, 16.209333333333333 132.34729862495604, 16.196 131.90729862495604 Z M 18.084 133.38329862495604 L 18.084 132.49129862495604 C 18.268 132.43796529162273, 18.366666666666667 132.31396529162274, 18.38 132.11929862495606 C 18.398666666666667 131.6526319582894, 18.410666666666668 131.20396529162272, 18.416 130.77329862495606 C 18.421333333333333 130.3426319582894, 18.421333333333333 129.91196529162272, 18.416 129.48129862495605 C 18.410666666666668 129.0506319582894, 18.398666666666667 128.5979652916227, 18.38 128.12329862495605 C 18.374666666666666 127.92863195828937, 18.276 127.80196529162271, 18.084 127.74329862495605 L 18.084 126.85529862495605 C 18.513333333333335 126.89529862495606, 18.846666666666668 127.0406319582894, 19.084 127.29129862495604 C 19.321333333333335 127.54196529162272, 19.445333333333334 127.88729862495605, 19.456 128.32729862495606 C 19.46666666666667 128.6419652916227, 19.474666666666668 128.9519652916227, 19.48 129.25729862495604 C 19.485333333333333 129.56263195828936, 19.488 129.86329862495603, 19.488 130.15929862495605 C 19.488 130.45529862495604, 19.485333333333333 130.74863195828937, 19.48 131.03929862495605 C 19.474666666666668 131.32996529162273, 19.46666666666667 131.61929862495606, 19.456 131.90729862495604 C 19.439999999999998 132.35796529162272, 19.311999999999998 132.7066319582894, 19.072 132.95329862495603 C 18.832 133.1999652916227, 18.502666666666666 133.34329862495605, 18.084 133.38329862495604 Z M 21.944 133.31929862495605 L 21.944 126.91929862495604 L 23.003999999999998 126.91929862495604 L 23.003999999999998 133.31929862495605 Z " stroke="none" fill-rule="nonzero" fill="#000000" fill-opacity="1" transform="matrix(1,0,0,1,5.05,13.314)" id="text20 l" />
  <path d="M 0 123.97550642303634 L 10 123.97550642303634 L 10 125.47550642303634 L 0 125.47550642303634 Z " stroke="none" fill-rule="evenodd" fill="#000000" fill-opacity="1" transform="matrix(1,0,0,1,5.05,13.314)" id="mark21 l" />
  <path d="M 0 113.58171422111664 L 10 113.58171422111664 L 10 115.08171422111664 L 0 115.08171422111664 Z " stroke="none" fill-rule="evenodd" fill="#000000" fill-opacity="1" transform="matrix(1,0,0,1,5.05,13.314)" id="mark22 l" />
  <path d="M 0 103.18792201919695 L 10 103.18792201919695 L 10 104.68792201919695 L 0 104.68792201919695 Z " stroke="none" fill-rule="evenodd" fill="#000000" fill-opacity="1" transform="matrix(1,0,0,1,5.05,13.314)" id="mark23 l" />
  <path d="M 0 92.79412981727725 L 10 92.79412981727725 L 10 94.29412981727725 L 0 94.29412981727725 Z " stroke="none" fill-rule="evenodd" fill="#000000" fill-opacity="1" transform="matrix(1,0,0,1,5.05,13.314)" id="mark24 l" />
  <path d="M 0 82.40033761535756 L 25 82.40033761535756 L 25 83.90033761535756 L 0 83.90033761535756 Z " stroke="none" fill-rule="evenodd" fill="#000000" fill-opacity="1" transform="matrix(1,0,0,1,5.05,13.314)" id="mark25 l" />
  <path d="M 12.328 81.35033761535756 C 12.325333333333333 81.2516709486909, 12.323333333333332 81.16300428202422, 12.322 81.08433761535755 C 12.320666666666666 81.00567094869089, 12.319333333333333 80.9316709486909, 12.318 80.86233761535756 C 12.316666666666666 80.79300428202423, 12.315999999999999 80.72100428202423, 12.316 80.64633761535757 C 12.315999999999999 80.5716709486909, 12.315999999999999 80.48700428202423, 12.316 80.39233761535756 C 12.315999999999999 80.2976709486909, 12.317333333333334 80.18633761535756, 12.32 80.05833761535756 C 12.328 79.76500428202422, 12.378 79.50300428202422, 12.47 79.27233761535756 C 12.562000000000001 79.04167094869089, 12.696 78.83567094869089, 12.872 78.65433761535756 C 13.048 78.47300428202422, 13.265333333333334 78.31167094869089, 13.524000000000001 78.17033761535755 L 14.056000000000001 77.88233761535756 C 14.242666666666668 77.78100428202423, 14.362000000000002 77.65900428202423, 14.414 77.51633761535756 C 14.466000000000001 77.37367094869089, 14.495999999999999 77.23967094869089, 14.504 77.11433761535756 C 14.514666666666667 76.9676709486909, 14.520666666666667 76.81100428202423, 14.522 76.64433761535756 C 14.523333333333333 76.47767094869089, 14.520000000000001 76.32100428202422, 14.512 76.17433761535756 C 14.506666666666666 76.07033761535756, 14.476666666666667 75.98433761535756, 14.422 75.91633761535756 C 14.367333333333335 75.84833761535756, 14.288 75.7996709486909, 14.184000000000001 75.77033761535756 L 14.184000000000001 74.88233761535756 C 14.672 74.91433761535755, 15.022000000000002 75.0456709486909, 15.234 75.27633761535756 C 15.446000000000002 75.50700428202423, 15.562666666666667 75.86767094869089, 15.584 76.35833761535756 C 15.586666666666668 76.42233761535755, 15.588666666666668 76.48767094869089, 15.59 76.55433761535755 C 15.591333333333335 76.62100428202423, 15.592000000000002 76.6856709486909, 15.592 76.74833761535756 C 15.592000000000002 76.81100428202423, 15.591333333333335 76.87300428202423, 15.59 76.93433761535756 C 15.588666666666668 76.9956709486909, 15.586666666666668 77.05567094869089, 15.584 77.11433761535756 C 15.573333333333332 77.39967094869088, 15.52 77.64633761535755, 15.424 77.85433761535757 C 15.328 78.06233761535756, 15.197999999999999 78.24233761535756, 15.033999999999999 78.39433761535756 C 14.87 78.54633761535756, 14.68 78.68233761535757, 14.464 78.80233761535756 L 13.86 79.13033761535756 C 13.745333333333335 79.1916709486909, 13.655333333333335 79.27567094869089, 13.59 79.38233761535756 C 13.524666666666668 79.48900428202423, 13.478000000000002 79.60233761535756, 13.45 79.72233761535756 C 13.422 79.84233761535756, 13.408 79.95433761535756, 13.408 80.05833761535756 L 13.408 81.35033761535756 Z M 12.336 77.31033761535755 C 12.330666666666666 77.19300428202423, 12.326666666666664 77.07833761535757, 12.324 76.96633761535756 C 12.321333333333332 76.85433761535755, 12.319333333333333 76.74833761535756, 12.318 76.64833761535756 C 12.316666666666666 76.54833761535755, 12.317333333333334 76.45167094869089, 12.32 76.35833761535756 C 12.338666666666668 75.87033761535756, 12.455333333333336 75.51100428202422, 12.67 75.28033761535755 C 12.884666666666668 75.04967094869089, 13.221333333333334 74.91700428202422, 13.68 74.88233761535756 L 13.68 75.77433761535757 C 13.584 75.8036709486909, 13.513333333333332 75.85033761535757, 13.468 75.91433761535757 C 13.422666666666668 75.97833761535756, 13.398666666666667 76.05567094869089, 13.396 76.14633761535757 C 13.390666666666666 76.35433761535757, 13.387333333333332 76.5476709486909, 13.386 76.72633761535756 C 13.384666666666666 76.90500428202424, 13.389333333333333 77.0996709486909, 13.4 77.31033761535755 Z M 13.911999999999999 81.35033761535756 L 13.911999999999999 80.41833761535756 L 15.508 80.41833761535756 L 15.508 81.35033761535756 Z M 16.18 79.93433761535756 C 16.174666666666667 79.76100428202423, 16.173333333333332 79.62167094869089, 16.176 79.51633761535756 C 16.178666666666665 79.41100428202422, 16.181333333333335 79.30900428202422, 16.183999999999997 79.21033761535756 L 17.264 79.21033761535756 C 17.256 79.28767094869089, 17.25 79.38367094869089, 17.246 79.49833761535756 C 17.241999999999997 79.61300428202422, 17.240666666666666 79.7236709486909, 17.241999999999997 79.83033761535756 C 17.243333333333332 79.93700428202423, 17.246666666666666 80.01700428202423, 17.252 80.07033761535756 C 17.262666666666668 80.19033761535756, 17.297333333333334 80.28833761535756, 17.355999999999998 80.36433761535756 C 17.414666666666665 80.44033761535756, 17.497333333333334 80.49433761535757, 17.604 80.52633761535756 L 17.604 81.41833761535756 C 17.110666666666663 81.38100428202424, 16.75333333333333 81.24633761535756, 16.532 81.01433761535756 C 16.310666666666666 80.78233761535756, 16.19333333333333 80.42233761535756, 16.18 79.93433761535756 Z M 16.279999999999998 78.59833761535756 L 16.279999999999998 74.95033761535755 L 17.348 74.95033761535755 L 17.348 78.59833761535756 Z M 17.852 78.17433761535756 L 17.852 77.41833761535756 C 17.929333333333332 77.37833761535755, 18.014666666666667 77.34633761535756, 18.107999999999997 77.32233761535755 C 18.20133333333333 77.29833761535755, 18.301333333333332 77.28633761535755, 18.407999999999998 77.28633761535755 C 18.773333333333333 77.28633761535755, 19.047333333333334 77.40167094869088, 19.23 77.63233761535756 C 19.412666666666667 77.86300428202424, 19.514666666666663 78.17700428202423, 19.535999999999998 78.57433761535756 C 19.546666666666667 78.73433761535756, 19.55333333333333 78.89300428202424, 19.555999999999997 79.05033761535756 C 19.558666666666664 79.20767094869089, 19.557333333333332 79.36100428202423, 19.552 79.51033761535756 C 19.546666666666667 79.65967094869089, 19.538666666666668 79.79967094869089, 19.528 79.93033761535756 C 19.482666666666667 80.42900428202422, 19.353333333333335 80.79433761535756, 19.14 81.02633761535756 C 18.926666666666666 81.25833761535756, 18.581333333333333 81.38900428202422, 18.104 81.41833761535756 L 18.104 80.52633761535756 C 18.21333333333333 80.49700428202424, 18.296 80.44433761535757, 18.352 80.36833761535756 C 18.408 80.29233761535755, 18.44 80.19300428202422, 18.448 80.07033761535756 C 18.471999999999998 79.77967094869089, 18.485999999999997 79.51833761535755, 18.49 79.28633761535755 C 18.494 79.05433761535755, 18.485333333333333 78.83300428202422, 18.464 78.62233761535757 C 18.447999999999997 78.4676709486909, 18.396666666666665 78.35233761535757, 18.31 78.27633761535756 C 18.223333333333333 78.20033761535755, 18.090666666666664 78.16233761535756, 17.912 78.16233761535756 C 17.901333333333334 78.16233761535756, 17.890666666666668 78.16367094869089, 17.88 78.16633761535756 C 17.86933333333333 78.16900428202422, 17.86 78.17167094869089, 17.852 78.17433761535756 Z M 17.852 75.88233761535756 L 17.852 74.95033761535755 L 19.439999999999998 74.95033761535755 L 19.439999999999998 75.88233761535756 Z M 21.944 81.35033761535756 L 21.944 74.95033761535755 L 23.003999999999998 74.95033761535755 L 23.003999999999998 81.35033761535756 Z " stroke="none" fill-rule="nonzero" fill="#000000" fill-opacity="1" transform="matrix(1,0,0,1,5.05,13.314)" id="text25 l" />
  <path d="M 0 72.00654541343783 L 10 72.00654541343783 L 10 73.50654541343783 L 0 73.50654541343783 Z " stroke="none" fill-rule="evenodd" fill="#000000" fill-opacity="1" transform="matrix(1,0,0,1,5.05,13.314)" id="mark26 l" />
  <path d="M 0 61.61275321151817 L 10 61.61275321151817 L 10 63.11275321151817 L 0 63.11275321151817 Z " stroke="none" fill-rule="evenodd" fill="#000000" fill-opacity="1" transform="matrix(1,0,0,1,5.05,13.314)" id="mark27 l" />
  <path d="M 0 51.218961009598445 L 10 51.218961009598445 L 10 52.718961009598445 L 0 52.718961009598445 Z " stroke="none" fill-rule="evenodd" fill="#000000" fill-opacity="1" transform="matrix(1,0,0,1,5.05,13.314)" id="mark28 l" />
  <path d="M 0 40.82516880767878 L 10 40.82516880767878 L 10 42.32516880767878 L 0 42.32516880767878 Z " stroke="none" fill-rule="evenodd" fill="#000000" fill-opacity="1" transform="matrix(1,0,0,1,5.05,13.314)" id="mark29 l" />
  <path d="M 0 30.431376605759056 L 25 30.431376605759056 L 25 31.931376605759056 L 0 31.931376605759056 Z " stroke="none" fill-rule="evenodd" fill="#000000" fill-opacity="1" transform="matrix(1,0,0,1,5.05,13.314)" id="mark30 l" />
  <path d="M 12.223999999999998 27.965376605759054 C 12.221333333333334 27.86404327242572, 12.219333333333333 27.780043272425722, 12.218 27.713376605759056 C 12.216666666666667 27.64670993909239, 12.216666666666667 27.57870993909239, 12.218 27.509376605759055 C 12.219333333333333 27.440043272425726, 12.221333333333334 27.35070993909239, 12.223999999999998 27.241376605759054 L 13.303999999999998 27.241376605759054 L 13.303999999999998 28.105376605759055 C 13.303999999999998 28.342709939092387, 13.417333333333332 28.493376605759053, 13.643999999999998 28.557376605759053 L 13.643999999999998 29.449376605759056 C 13.155999999999999 29.412043272425723, 12.800666666666665 29.27737660575906, 12.578 29.045376605759056 C 12.355333333333334 28.813376605759053, 12.237333333333332 28.453376605759054, 12.223999999999998 27.965376605759054 Z M 12.292 23.913376605759055 L 12.292 22.981376605759053 L 15.536 22.981376605759053 L 15.536 23.913376605759055 Z M 14.143999999999998 28.561376605759055 C 14.367999999999999 28.505376605759054, 14.483999999999998 28.354709939092388, 14.491999999999999 28.109376605759056 C 14.497333333333334 27.906709939092387, 14.500666666666666 27.724043272425725, 14.501999999999999 27.561376605759055 C 14.503333333333332 27.39870993909239, 14.498666666666665 27.241376605759058, 14.488 27.089376605759057 C 14.48 26.932043272425723, 14.431999999999999 26.79870993909239, 14.344 26.689376605759055 C 14.256 26.580043272425726, 14.089333333333332 26.528043272425727, 13.844 26.533376605759056 L 13.096 26.541376605759055 L 13.068 25.649376605759056 L 14.027999999999999 24.265376605759055 L 15.216 24.265376605759055 L 14.248 25.617376605759056 L 14.28 25.617376605759056 C 14.712 25.617376605759056, 15.028666666666666 25.740043272425723, 15.229999999999999 25.985376605759054 C 15.431333333333333 26.23070993909239, 15.544 26.608043272425725, 15.568 27.117376605759056 C 15.57333333333333 27.18937660575906, 15.576666666666664 27.261376605759054, 15.578 27.333376605759057 C 15.57933333333333 27.405376605759052, 15.579999999999998 27.47604327242572, 15.579999999999998 27.545376605759056 C 15.579999999999998 27.614709939092393, 15.57933333333333 27.684043272425725, 15.578 27.753376605759055 C 15.576666666666664 27.82270993909239, 15.57333333333333 27.893376605759055, 15.568 27.965376605759054 C 15.549333333333333 28.461376605759053, 15.428666666666665 28.82604327242572, 15.206 29.059376605759056 C 14.983333333333334 29.29270993909239, 14.630666666666666 29.42270993909239, 14.148 29.449376605759056 Z M 16.196 27.969376605759056 C 16.188000000000002 27.54004327242572, 16.182666666666666 27.123376605759056, 16.18 26.719376605759056 C 16.177333333333333 26.315376605759056, 16.177999999999997 25.920043272425723, 16.182 25.533376605759056 C 16.186 25.14670993909239, 16.190666666666665 24.765376605759055, 16.196 24.389376605759054 C 16.209333333333333 23.949376605759056, 16.334000000000003 23.60404327242572, 16.57 23.353376605759053 C 16.805999999999997 23.10270993909239, 17.142666666666663 22.957376605759055, 17.58 22.917376605759053 L 17.58 23.805376605759054 C 17.382666666666665 23.861376605759055, 17.281333333333333 23.990709939092387, 17.276 24.193376605759056 C 17.262666666666668 24.56404327242572, 17.253333333333334 24.91204327242572, 17.248 25.237376605759053 C 17.242666666666665 25.562709939092386, 17.24 25.879376605759056, 17.24 26.187376605759056 C 17.24 26.495376605759056, 17.242666666666665 26.810043272425723, 17.248 27.131376605759055 C 17.253333333333334 27.452709939092387, 17.262666666666668 27.79604327242572, 17.276 28.161376605759056 C 17.281333333333333 28.36937660575905, 17.382666666666665 28.501376605759052, 17.58 28.557376605759053 L 17.58 29.445376605759055 C 17.142666666666663 29.40537660575906, 16.805999999999997 29.25937660575906, 16.57 29.007376605759056 C 16.334000000000003 28.755376605759054, 16.209333333333333 28.409376605759057, 16.196 27.969376605759056 Z M 18.084 29.445376605759055 L 18.084 28.553376605759055 C 18.268 28.50004327242572, 18.366666666666667 28.37604327242572, 18.38 28.181376605759056 C 18.398666666666667 27.714709939092387, 18.410666666666668 27.26604327242572, 18.416 26.835376605759055 C 18.421333333333333 26.404709939092385, 18.421333333333333 25.974043272425718, 18.416 25.543376605759054 C 18.410666666666668 25.11270993909239, 18.398666666666667 24.660043272425725, 18.38 24.185376605759053 C 18.374666666666666 23.99070993909239, 18.276 23.86404327242572, 18.084 23.805376605759054 L 18.084 22.917376605759053 C 18.513333333333335 22.957376605759055, 18.846666666666668 23.10270993909239, 19.084 23.353376605759053 C 19.321333333333335 23.60404327242572, 19.445333333333334 23.949376605759056, 19.456 24.389376605759054 C 19.46666666666667 24.70404327242572, 19.474666666666668 25.014043272425724, 19.48 25.319376605759054 C 19.485333333333333 25.62470993909239, 19.488 25.925376605759055, 19.488 26.221376605759055 C 19.488 26.517376605759054, 19.485333333333333 26.810709939092387, 19.48 27.101376605759054 C 19.474666666666668 27.39204327242572, 19.46666666666667 27.681376605759056, 19.456 27.969376605759056 C 19.439999999999998 28.420043272425723, 19.311999999999998 28.76870993909239, 19.072 29.015376605759055 C 18.832 29.26204327242572, 18.502666666666666 29.40537660575906, 18.084 29.445376605759055 Z M 21.944 29.381376605759055 L 21.944 22.981376605759053 L 23.003999999999998 22.981376605759053 L 23.003999999999998 29.381376605759055 Z " stroke="none" fill-rule="nonzero" fill="#000000" fill-opacity="1" transform="matrix(1,0,0,1,5.05,13.314)" id="text30 l" />
  <path d="M 0 20.03758440383939 L 10 20.03758440383939 L 10 21.53758440383939 L 0 21.53758440383939 Z " stroke="none" fill-rule="evenodd" fill="#000000" fill-opacity="1" transform="matrix(1,0,0,1,5.05,13.314)" id="mark31 l" />
  <path d="M 0 9.643792201919666 L 10 9.643792201919666 L 10 11.143792201919666 L 0 11.143792201919666 Z " stroke="none" fill-rule="evenodd" fill="#000000" fill-opacity="1" transform="matrix(1,0,0,1,5.05,13.314)" id="mark32 l" />
  <path d="M 0 -0.75 L 10 -0.75 L 10 0.75 L 0 0.75 Z " stroke="none" fill-rule="evenodd" fill="#000000" fill-opacity="1" transform="matrix(1,0,0,1,5.05,13.314)" id="mark33 l" />
  <path d="M -5 -13.264 L 30 -13.264 L 30 331.8553504614302 L -5 331.8553504614302 Z " stroke="#FF0000" stroke-opacity="1" stroke-width="0.1" stroke-linecap="butt" stroke-linejoin="miter" fill="none" transform="matrix(1,0,0,1,5.05,13.314)" />
</svg>