<?xml version="1.0" encoding="UTF-8"?>
<svg xmlns:xlink="http://www.w3.org/1999/xlink" viewBox="0 0 35.1 373.4889348652696" version="1.1" style="font-synthesis: none;" width="35.1mm" height="373.48893486526964mm" xmlns="http://www.w3.org/2000/svg">
  <defs />
  <style>	</style>
  <path d="M 0 0 L 35.1 0 L 35.1 373.4889348652696 L 0 373.4889348652696 Z " stroke="none" fill-rule="nonzero" fill="#FFFFFF" fill-opacity="1" transform="matrix(1,0,0,1,0,0)" />
  <path d="M 0 352.6389348652696 L 10 352.6389348652696 L 10 354.1389348652696 L 0 354.1389348652696 Z " stroke="none" fill-rule="evenodd" fill="#000000" fill-opacity="1" transform="matrix(1,0,0,1,5.05,13.314)" id="mark1 l" />
  <path d="M 0 342.24514266334995 L 10 342.24514266334995 L 10 343.74514266334995 L 0 343.74514266334995 Z " stroke="none" fill-rule="evenodd" fill="#000000" fill-opacity="1" transform="matrix(1,0,0,1,5.05,13.314)" id="mark2 l" />
  <path d="M 0 331.85135046143023 L 10 331.85135046143023 L 10 333.35135046143023 L 0 333.35135046143023 Z " stroke="none" fill-rule="evenodd" fill="#000000" fill-opacity="1" transform="matrix(1,0,0,1,5.05,13.314)" id="mark3 l" />
  <path d="M 0 321.45755825951056 L 10 321.45755825951056 L 10 322.95755825951056 L 0 322.95755825951056 Z " stroke="none" fill-rule="evenodd" fill="#000000" fill-opacity="1" transform="matrix(1,0,0,1,5.05,13.314)" id="mark4 l" />
  <path d="M 0 311.06376605759084 L 25 311.06376605759084 L 25 312.56376605759084 L 0 312.56376605759084 Z " stroke="none" fill-rule="evenodd" fill="#000000" fill-opacity="1" transform="matrix(1,0,0,1,5.05,13.314)" id="mark5 l" />
  <path d="M 16.18 308.56576605759085 C 16.174666666666667 308.3924327242575, 16.173333333333332 308.2530993909242, 16.176 308.14776605759084 C 16.178666666666665 308.0424327242575, 16.181333333333335 307.9404327242575, 16.183999999999997 307.84176605759086 L 17.264 307.84176605759086 C 17.256 307.9190993909242, 17.25 308.0150993909242, 17.246 308.12976605759087 C 17.241999999999997 308.24443272425754, 17.240666666666666 308.3550993909242, 17.241999999999997 308.46176605759086 C 17.243333333333332 308.5684327242575, 17.246666666666666 308.64843272425753, 17.252 308.7017660575909 C 17.262666666666668 308.8217660575908, 17.297333333333334 308.91976605759083, 17.355999999999998 308.99576605759086 C 17.414666666666665 309.0717660575908, 17.497333333333334 309.1257660575908, 17.604 309.15776605759083 L 17.604 310.04976605759083 C 17.110666666666663 310.0124327242575, 16.75333333333333 309.87776605759086, 16.532 309.64576605759083 C 16.310666666666666 309.4137660575908, 16.19333333333333 309.05376605759085, 16.18 308.56576605759085 Z M 16.279999999999998 307.22976605759084 L 16.279999999999998 303.58176605759087 L 17.348 303.58176605759087 L 17.348 307.22976605759084 Z M 17.852 306.80576605759086 L 17.852 306.04976605759083 C 17.929333333333332 306.0097660575908, 18.014666666666667 305.9777660575908, 18.107999999999997 305.9537660575908 C 18.20133333333333 305.9297660575908, 18.301333333333332 305.9177660575908, 18.407999999999998 305.9177660575908 C 18.773333333333333 305.9177660575908, 19.047333333333334 306.0330993909242, 19.23 306.26376605759083 C 19.412666666666667 306.4944327242575, 19.514666666666663 306.8084327242575, 19.535999999999998 307.20576605759084 C 19.546666666666667 307.3657660575908, 19.55333333333333 307.5244327242575, 19.555999999999997 307.68176605759083 C 19.558666666666664 307.83909939092416, 19.557333333333332 307.99243272425747, 19.552 308.14176605759087 C 19.546666666666667 308.29109939092416, 19.538666666666668 308.43109939092415, 19.528 308.56176605759083 C 19.482666666666667 309.06043272425745, 19.353333333333335 309.4257660575908, 19.14 309.65776605759083 C 18.926666666666666 309.88976605759086, 18.581333333333333 310.0204327242575, 18.104 310.04976605759083 L 18.104 309.15776605759083 C 18.21333333333333 309.12843272425755, 18.296 309.07576605759084, 18.352 308.9997660575908 C 18.408 308.92376605759085, 18.44 308.8244327242575, 18.448 308.7017660575909 C 18.471999999999998 308.41109939092416, 18.485999999999997 308.14976605759085, 18.49 307.9177660575908 C 18.494 307.68576605759085, 18.485333333333333 307.4644327242575, 18.464 307.25376605759084 C 18.447999999999997 307.0990993909242, 18.396666666666665 306.98376605759086, 18.31 306.90776605759083 C 18.223333333333333 306.8317660575908, 18.090666666666664 306.79376605759086, 17.912 306.79376605759086 C 17.901333333333334 306.79376605759086, 17.890666666666668 306.7950993909242, 17.88 306.7977660575908 C 17.86933333333333 306.8004327242575, 17.86 306.8030993909242, 17.852 306.80576605759086 Z M 17.852 304.51376605759083 L 17.852 303.58176605759087 L 19.439999999999998 303.58176605759087 L 19.439999999999998 304.51376605759083 Z M 21.944 309.98176605759085 L 21.944 303.58176605759087 L 23.003999999999998 303.58176605759087 L 23.003999999999998 309.98176605759085 Z " stroke="none" fill-rule="nonzero" fill="#000000" fill-opacity="1" transform="matrix(1,0,0,1,5.05,13.314)" id="text5 l" />
  <path d="M 0 300.6699738556712 L 10 300.6699738556712 L 10 302.1699738556712 L 0 302.1699738556712 Z " stroke="none" fill-rule="evenodd" fill="#000000" fill-opacity="1" transform="matrix(1,0,0,1,5.05,13.314)" id="mark6 l" />
  <path d="M 0 290.27618165375145 L 10 290.27618165375145 L 10 291.77618165375145 L 0 291.77618165375145 Z " stroke="none" fill-rule="evenodd" fill="#000000" fill-opacity="1" transform="matrix(1,0,0,1,5.05,13.314)" id="mark7 l" />
  <path d="M 0 279.8823894518318 L 10 279.8823894518318 L 10 281.3823894518318 L 0 281.3823894518318 Z " stroke="none" fill-rule="evenodd" fill="#000000" fill-opacity="1" transform="matrix(1,0,0,1,5.05,13.314)" id="mark8 l" />
  <path d="M 0 269.48859724991206 L 10 269.48859724991206 L 10 270.98859724991206 L 0 270.98859724991206 Z " stroke="none" fill-rule="evenodd" fill="#000000" fill-opacity="1" transform="matrix(1,0,0,1,5.05,13.314)" id="mark9 l" />
  <path d="M 0 259.0948050479924 L 25 259.0948050479924 L 25 260.5948050479924 L 0 260.5948050479924 Z " stroke="none" fill-rule="evenodd" fill="#000000" fill-opacity="1" transform="matrix(1,0,0,1,5.05,13.314)" id="mark10 l" />
  <path d="M 14.323999999999998 258.0448050479924 L 14.323999999999998 252.6008050479924 L 13.871999999999998 252.6008050479924 L 13.839999999999998 252.22080504799237 L 14.543999999999999 251.64480504799238 L 15.424 251.64480504799238 L 15.424 258.0448050479924 Z M 16.196 256.6328050479924 C 16.188000000000002 256.20347171465903, 16.182666666666666 255.78680504799235, 16.18 255.38280504799238 C 16.177333333333333 254.97880504799235, 16.177999999999997 254.58347171465903, 16.182 254.19680504799237 C 16.186 253.81013838132571, 16.190666666666665 253.4288050479924, 16.196 253.0528050479924 C 16.209333333333333 252.6128050479924, 16.334000000000003 252.26747171465905, 16.57 252.0168050479924 C 16.805999999999997 251.76613838132573, 17.142666666666663 251.62080504799238, 17.58 251.58080504799238 L 17.58 252.4688050479924 C 17.382666666666665 252.5248050479924, 17.281333333333333 252.6541383813257, 17.276 252.8568050479924 C 17.262666666666668 253.22747171465903, 17.253333333333334 253.57547171465905, 17.248 253.90080504799238 C 17.242666666666665 254.2261383813257, 17.24 254.54280504799237, 17.24 254.8508050479924 C 17.24 255.1588050479924, 17.242666666666665 255.47347171465907, 17.248 255.79480504799238 C 17.253333333333334 256.11613838132575, 17.262666666666668 256.45947171465906, 17.276 256.82480504799236 C 17.281333333333333 257.0328050479924, 17.382666666666665 257.16480504799233, 17.58 257.22080504799237 L 17.58 258.1088050479924 C 17.142666666666663 258.0688050479924, 16.805999999999997 257.92280504799237, 16.57 257.67080504799236 C 16.334000000000003 257.41880504799235, 16.209333333333333 257.0728050479924, 16.196 256.6328050479924 Z M 18.084 258.1088050479924 L 18.084 257.2168050479924 C 18.268 257.16347171465907, 18.366666666666667 257.03947171465904, 18.38 256.8448050479924 C 18.398666666666667 256.37813838132575, 18.410666666666668 255.9294717146591, 18.416 255.4988050479924 C 18.421333333333333 255.0681383813257, 18.421333333333333 254.63747171465906, 18.416 254.2068050479924 C 18.410666666666668 253.77613838132572, 18.398666666666667 253.32347171465904, 18.38 252.84880504799239 C 18.374666666666666 252.6541383813257, 18.276 252.52747171465904, 18.084 252.4688050479924 L 18.084 251.58080504799238 C 18.513333333333335 251.62080504799238, 18.846666666666668 251.76613838132573, 19.084 252.0168050479924 C 19.321333333333335 252.26747171465905, 19.445333333333334 252.6128050479924, 19.456 253.0528050479924 C 19.46666666666667 253.36747171465905, 19.474666666666668 253.67747171465902, 19.48 253.98280504799237 C 19.485333333333333 254.28813838132572, 19.488 254.58880504799237, 19.488 254.8848050479924 C 19.488 255.18080504799235, 19.485333333333333 255.4741383813257, 19.48 255.76480504799238 C 19.474666666666668 256.05547171465906, 19.46666666666667 256.3448050479924, 19.456 256.6328050479924 C 19.439999999999998 257.0834717146591, 19.311999999999998 257.43213838132573, 19.072 257.6788050479924 C 18.832 257.92547171465907, 18.502666666666666 258.0688050479924, 18.084 258.1088050479924 Z M 21.944 258.0448050479924 L 21.944 251.64480504799238 L 23.003999999999998 251.64480504799238 L 23.003999999999998 258.0448050479924 Z " stroke="none" fill-rule="nonzero" fill="#000000" fill-opacity="1" transform="matrix(1,0,0,1,5.05,13.314)" id="text10 l" />
  <path d="M 0 248.70101284607267 L 10 248.70101284607267 L 10 250.20101284607267 L 0 250.20101284607267 Z " stroke="none" fill-rule="evenodd" fill="#000000" fill-opacity="1" transform="matrix(1,0,0,1,5.05,13.314)" id="mark11 l" />
  <path d="M 0 238.307220644153 L 10 238.307220644153 L 10 239.807220644153 L 0 239.807220644153 Z " stroke="none" fill-rule="evenodd" fill="#000000" fill-opacity="1" transform="matrix(1,0,0,1,5.05,13.314)" id="mark12 l" />
  <path d="M 0 227.91342844223328 L 10 227.91342844223328 L 10 229.41342844223328 L 0 229.41342844223328 Z " stroke="none" fill-rule="evenodd" fill="#000000" fill-opacity="1" transform="matrix(1,0,0,1,5.05,13.314)" id="mark13 l" />
  <path d="M 0 217.5196362403136 L 10 217.5196362403136 L 10 219.0196362403136 L 0 219.0196362403136 Z " stroke="none" fill-rule="evenodd" fill="#000000" fill-opacity="1" transform="matrix(1,0,0,1,5.05,13.314)" id="mark14 l" />
  <path d="M 0 207.1258440383939 L 25 207.1258440383939 L 25 208.6258440383939 L 0 208.6258440383939 Z " stroke="none" fill-rule="evenodd" fill="#000000" fill-opacity="1" transform="matrix(1,0,0,1,5.05,13.314)" id="mark15 l" />
  <path d="M 14.331999999999999 206.0438440383939 L 14.331999999999999 200.5998440383939 L 13.879999999999999 200.5998440383939 L 13.847999999999999 200.2198440383939 L 14.552 199.6438440383939 L 15.432 199.6438440383939 L 15.432 206.0438440383939 Z M 16.18 204.6278440383939 C 16.174666666666667 204.45451070506056, 16.173333333333332 204.31517737172723, 16.176 204.2098440383939 C 16.178666666666665 204.10451070506056, 16.181333333333335 204.00251070506056, 16.183999999999997 203.9038440383939 L 17.264 203.9038440383939 C 17.256 203.98117737172726, 17.25 204.07717737172723, 17.246 204.1918440383939 C 17.241999999999997 204.30651070506056, 17.240666666666666 204.41717737172723, 17.241999999999997 204.5238440383939 C 17.243333333333332 204.63051070506054, 17.246666666666666 204.71051070506059, 17.252 204.7638440383939 C 17.262666666666668 204.88384403839393, 17.297333333333334 204.98184403839392, 17.355999999999998 205.0578440383939 C 17.414666666666665 205.1338440383939, 17.497333333333334 205.1878440383939, 17.604 205.2198440383939 L 17.604 206.1118440383939 C 17.110666666666663 206.07451070506056, 16.75333333333333 205.93984403839391, 16.532 205.7078440383939 C 16.310666666666666 205.47584403839392, 16.19333333333333 205.1158440383939, 16.18 204.6278440383939 Z M 16.279999999999998 203.2918440383939 L 16.279999999999998 199.6438440383939 L 17.348 199.6438440383939 L 17.348 203.2918440383939 Z M 17.852 202.8678440383939 L 17.852 202.1118440383939 C 17.929333333333332 202.07184403839392, 18.014666666666667 202.03984403839394, 18.107999999999997 202.0158440383939 C 18.20133333333333 201.99184403839394, 18.301333333333332 201.97984403839394, 18.407999999999998 201.9798440383939 C 18.773333333333333 201.97984403839394, 19.047333333333334 202.09517737172723, 19.23 202.3258440383939 C 19.412666666666667 202.55651070506053, 19.514666666666663 202.87051070506055, 19.535999999999998 203.2678440383939 C 19.546666666666667 203.4278440383939, 19.55333333333333 203.58651070506056, 19.555999999999997 203.7438440383939 C 19.558666666666664 203.90117737172721, 19.557333333333332 204.05451070506058, 19.552 204.2038440383939 C 19.546666666666667 204.3531773717272, 19.538666666666668 204.49317737172723, 19.528 204.6238440383939 C 19.482666666666667 205.12251070506056, 19.353333333333335 205.4878440383939, 19.14 205.7198440383939 C 18.926666666666666 205.9518440383939, 18.581333333333333 206.08251070506054, 18.104 206.1118440383939 L 18.104 205.2198440383939 C 18.21333333333333 205.19051070506055, 18.296 205.1378440383939, 18.352 205.0618440383939 C 18.408 204.9858440383939, 18.44 204.88651070506057, 18.448 204.7638440383939 C 18.471999999999998 204.47317737172722, 18.485999999999997 204.2118440383939, 18.49 203.9798440383939 C 18.494 203.7478440383939, 18.485333333333333 203.52651070506056, 18.464 203.3158440383939 C 18.447999999999997 203.16117737172723, 18.396666666666665 203.0458440383939, 18.31 202.9698440383939 C 18.223333333333333 202.89384403839392, 18.090666666666664 202.8558440383939, 17.912 202.8558440383939 C 17.901333333333334 202.8558440383939, 17.890666666666668 202.85717737172723, 17.88 202.8598440383939 C 17.86933333333333 202.86251070506057, 17.86 202.8651773717272, 17.852 202.8678440383939 Z M 17.852 200.5758440383939 L 17.852 199.6438440383939 L 19.439999999999998 199.6438440383939 L 19.439999999999998 200.5758440383939 Z M 21.944 206.0438440383939 L 21.944 199.6438440383939 L 23.003999999999998 199.6438440383939 L 23.003999999999998 206.0438440383939 Z " stroke="none" fill-rule="nonzero" fill="#000000" fill-opacity="1" transform="matrix(1,0,0,1,5.05,13.314)" id="text15 l" />
  <path d="M 0 196.7320518364742 L 10 196.7320518364742 L 10 198.2320518364742 L 0 198.2320518364742 Z " stroke="none" fill-rule="evenodd" fill="#000000" fill-opacity="1" transform="matrix(1,0,0,1,5.05,13.314)" id="mark16 l" />
  <path d="M 0 186.3382596345545 L 10 186.3382596345545 L 10 187.8382596345545 L 0 187.8382596345545 Z " stroke="none" fill-rule="evenodd" fill="#000000" fill-opacity="1" transform="matrix(1,0,0,1,5.05,13.314)" id="mark17 l" />
  <path d="M 0 175.9444674326348 L 10 175.9444674326348 L 10 177.4444674326348 L 0 177.4444674326348 Z " stroke="none" fill-rule="evenodd" fill="#000000" fill-opacity="1" transform="matrix(1,0,0,1,5.05,13.314)" id="mark18 l" />
  <path d="M 0 165.55067523071511 L 10 165.55067523071511 L 10 167.05067523071511 L 0 167.05067523071511 Z " stroke="none" fill-rule="evenodd" fill="#000000" fill-opacity="1" transform="matrix(1,0,0,1,5.05,13.314)" id="mark19 l" />
  <path d="M 0 155.15688302879542 L 25 155.15688302879542 L 25 156.65688302879542 L 0 156.65688302879542 Z " stroke="none" fill-rule="evenodd" fill="#000000" fill-opacity="1" transform="matrix(1,0,0,1,5.05,13.314)" id="mark20 l" />
  <path d="M 12.319999999999999 154.10688302879544 C 12.317333333333334 154.0082163621288, 12.315333333333331 153.9195496954621, 12.313999999999998 153.84088302879545 C 12.312666666666665 153.76221636212878, 12.311333333333334 153.6882163621288, 12.309999999999999 153.61888302879544 C 12.308666666666667 153.54954969546208, 12.308 153.47754969546207, 12.308 153.40288302879543 C 12.308 153.32821636212879, 12.308 153.2435496954621, 12.308 153.14888302879544 C 12.308 153.05421636212878, 12.309333333333335 152.94288302879545, 12.312 152.81488302879544 C 12.32 152.5215496954621, 12.37 152.2595496954621, 12.462 152.02888302879543 C 12.554 151.79821636212876, 12.687999999999999 151.59221636212877, 12.863999999999999 151.41088302879544 C 13.04 151.2295496954621, 13.257333333333333 151.0682163621288, 13.515999999999998 150.92688302879543 L 14.047999999999998 150.63888302879545 C 14.234666666666666 150.5375496954621, 14.354 150.4155496954621, 14.405999999999999 150.27288302879543 C 14.457999999999998 150.13021636212878, 14.488 149.99621636212876, 14.495999999999999 149.87088302879545 C 14.506666666666664 149.72421636212877, 14.512666666666664 149.5675496954621, 14.514 149.40088302879545 C 14.51533333333333 149.2342163621288, 14.511999999999997 149.07754969546212, 14.504 148.93088302879545 C 14.498666666666665 148.82688302879544, 14.468666666666666 148.74088302879545, 14.413999999999998 148.67288302879544 C 14.359333333333332 148.60488302879543, 14.279999999999998 148.55621636212877, 14.175999999999998 148.52688302879542 L 14.175999999999998 147.63888302879545 C 14.663999999999998 147.67088302879546, 15.014 147.80221636212877, 15.225999999999999 148.03288302879542 C 15.437999999999999 148.2635496954621, 15.554666666666666 148.62421636212878, 15.575999999999999 149.11488302879545 C 15.578666666666663 149.17888302879544, 15.580666666666666 149.24421636212878, 15.581999999999999 149.31088302879544 C 15.583333333333332 149.3775496954621, 15.584 149.44221636212876, 15.584 149.50488302879543 C 15.584 149.5675496954621, 15.583333333333332 149.6295496954621, 15.581999999999999 149.69088302879544 C 15.580666666666666 149.75221636212876, 15.578666666666663 149.81221636212877, 15.575999999999999 149.87088302879545 C 15.565333333333331 150.1562163621288, 15.512 150.40288302879543, 15.415999999999999 150.61088302879543 C 15.32 150.81888302879543, 15.19 150.99888302879543, 15.026 151.15088302879545 C 14.862 151.30288302879543, 14.672 151.43888302879543, 14.456 151.55888302879544 L 13.851999999999999 151.88688302879544 C 13.737333333333332 151.9482163621288, 13.647333333333332 152.0322163621288, 13.581999999999999 152.13888302879545 C 13.516666666666666 152.2455496954621, 13.469999999999999 152.35888302879545, 13.441999999999998 152.47888302879545 C 13.413999999999998 152.59888302879546, 13.399999999999999 152.71088302879542, 13.399999999999999 152.81488302879544 L 13.399999999999999 154.10688302879544 Z M 12.328 150.06688302879544 C 12.322666666666667 149.9495496954621, 12.318666666666665 149.83488302879542, 12.315999999999999 149.72288302879542 C 12.313333333333333 149.61088302879543, 12.311333333333334 149.50488302879543, 12.309999999999999 149.40488302879544 C 12.308666666666667 149.30488302879544, 12.309333333333335 149.20821636212878, 12.312 149.11488302879545 C 12.330666666666666 148.62688302879545, 12.447333333333333 148.26754969546212, 12.661999999999999 148.03688302879544 C 12.876666666666665 147.80621636212877, 13.213333333333331 147.6735496954621, 13.671999999999999 147.63888302879545 L 13.671999999999999 148.53088302879544 C 13.576 148.56021636212876, 13.505333333333333 148.60688302879544, 13.459999999999999 148.67088302879543 C 13.414666666666665 148.73488302879542, 13.390666666666664 148.81221636212877, 13.387999999999998 148.90288302879543 C 13.382666666666665 149.11088302879546, 13.379333333333333 149.30421636212878, 13.378 149.48288302879544 C 13.376666666666667 149.6615496954621, 13.381333333333334 149.85621636212878, 13.392 150.06688302879544 Z M 13.904 154.10688302879544 L 13.904 153.17488302879545 L 15.5 153.17488302879545 L 15.5 154.10688302879544 Z M 16.196 152.69488302879543 C 16.188000000000002 152.26554969546208, 16.182666666666666 151.84888302879543, 16.18 151.44488302879543 C 16.177333333333333 151.04088302879543, 16.177999999999997 150.64554969546208, 16.182 150.25888302879542 C 16.186 149.87221636212877, 16.190666666666665 149.49088302879545, 16.196 149.11488302879545 C 16.209333333333333 148.67488302879545, 16.334000000000003 148.3295496954621, 16.57 148.07888302879545 C 16.805999999999997 147.82821636212879, 17.142666666666663 147.68288302879543, 17.58 147.64288302879544 L 17.58 148.53088302879544 C 17.382666666666665 148.58688302879546, 17.281333333333333 148.71621636212876, 17.276 148.91888302879545 C 17.262666666666668 149.28954969546209, 17.253333333333334 149.6375496954621, 17.248 149.96288302879543 C 17.242666666666665 150.28821636212876, 17.24 150.60488302879543, 17.24 150.91288302879545 C 17.24 151.22088302879544, 17.242666666666665 151.53554969546212, 17.248 151.85688302879544 C 17.253333333333334 152.17821636212875, 17.262666666666668 152.5215496954621, 17.276 152.88688302879544 C 17.281333333333333 153.09488302879544, 17.382666666666665 153.22688302879544, 17.58 153.28288302879542 L 17.58 154.17088302879543 C 17.142666666666663 154.13088302879544, 16.805999999999997 153.98488302879542, 16.57 153.73288302879544 C 16.334000000000003 153.48088302879543, 16.209333333333333 153.13488302879543, 16.196 152.69488302879543 Z M 18.084 154.17088302879543 L 18.084 153.27888302879543 C 18.268 153.22554969546212, 18.366666666666667 153.10154969546213, 18.38 152.90688302879545 C 18.398666666666667 152.44021636212878, 18.410666666666668 151.9915496954621, 18.416 151.56088302879544 C 18.421333333333333 151.13021636212878, 18.421333333333333 150.6995496954621, 18.416 150.26888302879544 C 18.410666666666668 149.83821636212878, 18.398666666666667 149.3855496954621, 18.38 148.91088302879544 C 18.374666666666666 148.71621636212876, 18.276 148.5895496954621, 18.084 148.53088302879544 L 18.084 147.64288302879544 C 18.513333333333335 147.68288302879543, 18.846666666666668 147.82821636212879, 19.084 148.07888302879545 C 19.321333333333335 148.3295496954621, 19.445333333333334 148.67488302879545, 19.456 149.11488302879545 C 19.46666666666667 149.4295496954621, 19.474666666666668 149.7395496954621, 19.48 150.04488302879543 C 19.485333333333333 150.35021636212875, 19.488 150.65088302879542, 19.488 150.94688302879544 C 19.488 151.24288302879543, 19.485333333333333 151.53621636212876, 19.48 151.82688302879544 C 19.474666666666668 152.11754969546212, 19.46666666666667 152.40688302879545, 19.456 152.69488302879543 C 19.439999999999998 153.1455496954621, 19.311999999999998 153.49421636212878, 19.072 153.74088302879542 C 18.832 153.9875496954621, 18.502666666666666 154.13088302879544, 18.084 154.17088302879543 Z M 21.944 154.10688302879544 L 21.944 147.70688302879543 L 23.003999999999998 147.70688302879543 L 23.003999999999998 154.10688302879544 Z " stroke="none" fill-rule="nonzero" fill="#000000" fill-opacity="1" transform="matrix(1,0,0,1,5.05,13.314)" id="text20 l" />
  <path d="M 0 144.76309082687573 L 10 144.76309082687573 L 10 146.26309082687573 L 0 146.26309082687573 Z " stroke="none" fill-rule="evenodd" fill="#000000" fill-opacity="1" transform="matrix(1,0,0,1,5.05,13.314)" id="mark21 l" />
  <path d="M 0 134.36929862495603 L 10 134.36929862495603 L 10 135.86929862495603 L 0 135.86929862495603 Z " stroke="none" fill-rule="evenodd" fill="#000000" fill-opacity="1" transform="matrix(1,0,0,1,5.05,13.314)" id="mark22 l" />
  <path d="M 0 123.97550642303634 L 10 123.97550642303634 L 10 125.47550642303634 L 0 125.47550642303634 Z " stroke="none" fill-rule="evenodd" fill="#000000" fill-opacity="1" transform="matrix(1,0,0,1,5.05,13.314)" id="mark23 l" />
  <path d="M 0 113.58171422111664 L 10 113.58171422111664 L 10 115.08171422111664 L 0 115.08171422111664 Z " stroke="none" fill-rule="evenodd" fill="#000000" fill-opacity="1" transform="matrix(1,0,0,1,5.05,13.314)" id="mark24 l" />
  <path d="M 0 103.18792201919695 L 25 103.18792201919695 L 25 104.68792201919695 L 0 104.68792201919695 Z " stroke="none" fill-rule="evenodd" fill="#000000" fill-opacity="1" transform="matrix(1,0,0,1,5.05,13.314)" id="mark25 l" />
  <path d="M 12.328 102.13792201919695 C 12.325333333333333 102.03925535253029, 12.323333333333332 101.95058868586361, 12.322 101.87192201919694 C 12.320666666666666 101.79325535253028, 12.319333333333333 101.7192553525303, 12.318 101.64992201919695 C 12.316666666666666 101.58058868586363, 12.315999999999999 101.50858868586363, 12.316 101.43392201919696 C 12.315999999999999 101.35925535253028, 12.315999999999999 101.27458868586362, 12.316 101.17992201919695 C 12.315999999999999 101.08525535253028, 12.317333333333334 100.97392201919695, 12.32 100.84592201919695 C 12.328 100.55258868586361, 12.378 100.29058868586361, 12.47 100.05992201919695 C 12.562000000000001 99.82925535253028, 12.696 99.62325535253026, 12.872 99.44192201919695 C 13.048 99.26058868586361, 13.265333333333334 99.09925535253029, 13.524000000000001 98.95792201919694 L 14.056000000000001 98.66992201919695 C 14.242666666666668 98.5685886858636, 14.362000000000002 98.44658868586362, 14.414 98.30392201919695 C 14.466000000000001 98.16125535253028, 14.495999999999999 98.02725535253029, 14.504 97.90192201919695 C 14.514666666666667 97.75525535253027, 14.520666666666667 97.5985886858636, 14.522 97.43192201919695 C 14.523333333333333 97.26525535253029, 14.520000000000001 97.10858868586362, 14.512 96.96192201919695 C 14.506666666666666 96.85792201919696, 14.476666666666667 96.77192201919695, 14.422 96.70392201919695 C 14.367333333333335 96.63592201919695, 14.288 96.58725535253029, 14.184000000000001 96.55792201919695 L 14.184000000000001 95.66992201919695 C 14.672 95.70192201919694, 15.022000000000002 95.83325535253027, 15.234 96.06392201919695 C 15.446000000000002 96.29458868586362, 15.562666666666667 96.65525535253028, 15.584 97.14592201919695 C 15.586666666666668 97.20992201919694, 15.588666666666668 97.27525535253028, 15.59 97.34192201919694 C 15.591333333333335 97.4085886858636, 15.592000000000002 97.47325535253029, 15.592 97.53592201919695 C 15.592000000000002 97.5985886858636, 15.591333333333335 97.66058868586362, 15.59 97.72192201919695 C 15.588666666666668 97.78325535253029, 15.586666666666668 97.84325535253029, 15.584 97.90192201919695 C 15.573333333333332 98.18725535253029, 15.52 98.43392201919696, 15.424 98.64192201919695 C 15.328 98.84992201919695, 15.197999999999999 99.02992201919695, 15.033999999999999 99.18192201919695 C 14.87 99.33392201919695, 14.68 99.46992201919696, 14.464 99.58992201919695 L 13.86 99.91792201919695 C 13.745333333333335 99.97925535253029, 13.655333333333335 100.06325535253029, 13.59 100.16992201919695 C 13.524666666666668 100.2765886858636, 13.478000000000002 100.38992201919694, 13.45 100.50992201919695 C 13.422 100.62992201919695, 13.408 100.74192201919695, 13.408 100.84592201919695 L 13.408 102.13792201919695 Z M 12.336 98.09792201919694 C 12.330666666666666 97.98058868586362, 12.326666666666664 97.86592201919696, 12.324 97.75392201919695 C 12.321333333333332 97.64192201919694, 12.319333333333333 97.53592201919693, 12.318 97.43592201919695 C 12.316666666666666 97.33592201919694, 12.317333333333334 97.23925535253028, 12.32 97.14592201919695 C 12.338666666666668 96.65792201919695, 12.455333333333336 96.29858868586362, 12.67 96.06792201919694 C 12.884666666666668 95.83725535253028, 13.221333333333334 95.70458868586361, 13.68 95.66992201919695 L 13.68 96.56192201919696 C 13.584 96.59125535253028, 13.513333333333332 96.63792201919696, 13.468 96.70192201919696 C 13.422666666666668 96.76592201919695, 13.398666666666667 96.84325535253029, 13.396 96.93392201919696 C 13.390666666666666 97.14192201919695, 13.387333333333332 97.33525535253028, 13.386 97.51392201919695 C 13.384666666666666 97.69258868586363, 13.389333333333333 97.88725535253029, 13.4 98.09792201919694 Z M 13.911999999999999 102.13792201919695 L 13.911999999999999 101.20592201919695 L 15.508 101.20592201919695 L 15.508 102.13792201919695 Z M 16.18 100.72192201919695 C 16.174666666666667 100.54858868586362, 16.173333333333332 100.4092553525303, 16.176 100.30392201919695 C 16.178666666666665 100.19858868586363, 16.181333333333335 100.09658868586362, 16.183999999999997 99.99792201919695 L 17.264 99.99792201919695 C 17.256 100.07525535253029, 17.25 100.1712553525303, 17.246 100.28592201919695 C 17.241999999999997 100.40058868586362, 17.240666666666666 100.51125535253028, 17.241999999999997 100.61792201919695 C 17.243333333333332 100.72458868586362, 17.246666666666666 100.80458868586362, 17.252 100.85792201919695 C 17.262666666666668 100.97792201919695, 17.297333333333334 101.07592201919695, 17.355999999999998 101.15192201919695 C 17.414666666666665 101.22792201919695, 17.497333333333334 101.28192201919695, 17.604 101.31392201919695 L 17.604 102.20592201919695 C 17.110666666666663 102.16858868586363, 16.75333333333333 102.03392201919695, 16.532 101.80192201919695 C 16.310666666666666 101.56992201919695, 16.19333333333333 101.20992201919695, 16.18 100.72192201919695 Z M 16.279999999999998 99.38592201919695 L 16.279999999999998 95.73792201919694 L 17.348 95.73792201919694 L 17.348 99.38592201919695 Z M 17.852 98.96192201919695 L 17.852 98.20592201919695 C 17.929333333333332 98.16592201919694, 18.014666666666667 98.13392201919694, 18.107999999999997 98.10992201919694 C 18.20133333333333 98.08592201919694, 18.301333333333332 98.07392201919694, 18.407999999999998 98.07392201919694 C 18.773333333333333 98.07392201919694, 19.047333333333334 98.18925535253027, 19.23 98.41992201919695 C 19.412666666666667 98.65058868586362, 19.514666666666663 98.96458868586362, 19.535999999999998 99.36192201919695 C 19.546666666666667 99.52192201919695, 19.55333333333333 99.68058868586363, 19.555999999999997 99.83792201919695 C 19.558666666666664 99.99525535253028, 19.557333333333332 100.14858868586361, 19.552 100.29792201919695 C 19.546666666666667 100.44725535253028, 19.538666666666668 100.58725535253028, 19.528 100.71792201919695 C 19.482666666666667 101.21658868586361, 19.353333333333335 101.58192201919695, 19.14 101.81392201919695 C 18.926666666666666 102.04592201919695, 18.581333333333333 102.1765886858636, 18.104 102.20592201919695 L 18.104 101.31392201919695 C 18.21333333333333 101.28458868586362, 18.296 101.23192201919696, 18.352 101.15592201919695 C 18.408 101.07992201919694, 18.44 100.98058868586361, 18.448 100.85792201919695 C 18.471999999999998 100.56725535253028, 18.485999999999997 100.30592201919694, 18.49 100.07392201919694 C 18.494 99.84192201919694, 18.485333333333333 99.62058868586362, 18.464 99.40992201919696 C 18.447999999999997 99.2552553525303, 18.396666666666665 99.13992201919696, 18.31 99.06392201919695 C 18.223333333333333 98.98792201919694, 18.090666666666664 98.94992201919695, 17.912 98.94992201919695 C 17.901333333333334 98.94992201919695, 17.890666666666668 98.95125535253027, 17.88 98.95392201919695 C 17.86933333333333 98.95658868586361, 17.86 98.95925535253028, 17.852 98.96192201919695 Z M 17.852 96.66992201919695 L 17.852 95.73792201919694 L 19.439999999999998 95.73792201919694 L 19.439999999999998 96.66992201919695 Z M 21.944 102.13792201919695 L 21.944 95.73792201919694 L 23.003999999999998 95.73792201919694 L 23.003999999999998 102.13792201919695 Z " stroke="none" fill-rule="nonzero" fill="#000000" fill-opacity="1" transform="matrix(1,0,0,1,5.05,13.314)" id="text25 l" />
  <path d="M 0 92.79412981727722 L 10 92.79412981727722 L 10 94.29412981727722 L 0 94.29412981727722 Z " stroke="none" fill-rule="evenodd" fill="#000000" fill-opacity="1" transform="matrix(1,0,0,1,5.05,13.314)" id="mark26 l" />
  <path d="M 0 82.40033761535756 L 10 82.40033761535756 L 10 83.90033761535756 L 0 83.90033761535756 Z " stroke="none" fill-rule="evenodd" fill="#000000" fill-opacity="1" transform="matrix(1,0,0,1,5.05,13.314)" id="mark27 l" />
  <path d="M 0 72.00654541343783 L 10 72.00654541343783 L 10 73.50654541343783 L 0 73.50654541343783 Z " stroke="none" fill-rule="evenodd" fill="#000000" fill-opacity="1" transform="matrix(1,0,0,1,5.05,13.314)" id="mark28 l" />
  <path d="M 0 61.61275321151817 L 10 61.61275321151817 L 10 63.11275321151817 L 0 63.11275321151817 Z " stroke="none" fill-rule="evenodd" fill="#000000" fill-opacity="1" transform="matrix(1,0,0,1,5.05,13.314)" id="mark29 l" />
  <path d="M 0 51.218961009598445 L 25 51.218961009598445 L 25 52.718961009598445 L 0 52.718961009598445 Z " stroke="none" fill-rule="evenodd" fill="#000000" fill-opacity="1" transform="matrix(1,0,0,1,5.05,13.314)" id="mark30 l" />
  <path d="M 12.223999999999998 48.75296100959845 C 12.221333333333334 48.651627676265115, 12.219333333333333 48.56762767626512, 12.218 48.50096100959845 C 12.216666666666667 48.43429434293178, 12.216666666666667 48.36629434293178, 12.218 48.29696100959845 C 12.219333333333333 48.227627676265115, 12.221333333333334 48.138294342931786, 12.223999999999998 48.02896100959845 L 13.303999999999998 48.02896100959845 L 13.303999999999998 48.892961009598444 C 13.303999999999998 49.130294342931776, 13.417333333333332 49.28096100959845, 13.643999999999998 49.34496100959845 L 13.643999999999998 50.236961009598446 C 13.155999999999999 50.19962767626511, 12.800666666666665 50.06496100959845, 12.578 49.83296100959845 C 12.355333333333334 49.60096100959845, 12.237333333333332 49.24096100959845, 12.223999999999998 48.75296100959845 Z M 12.292 44.700961009598444 L 12.292 43.76896100959845 L 15.536 43.76896100959845 L 15.536 44.700961009598444 Z M 14.143999999999998 49.34896100959845 C 14.367999999999999 49.29296100959844, 14.483999999999998 49.14229434293178, 14.491999999999999 48.89696100959845 C 14.497333333333334 48.694294342931784, 14.500666666666666 48.511627676265114, 14.501999999999999 48.34896100959845 C 14.503333333333332 48.18629434293178, 14.498666666666665 48.02896100959845, 14.488 47.876961009598446 C 14.48 47.71962767626512, 14.431999999999999 47.58629434293178, 14.344 47.47696100959845 C 14.256 47.367627676265116, 14.089333333333332 47.31562767626511, 13.844 47.32096100959845 L 13.096 47.328961009598444 L 13.068 46.43696100959845 L 14.027999999999999 45.05296100959845 L 15.216 45.05296100959845 L 14.248 46.404961009598445 L 14.28 46.404961009598445 C 14.712 46.404961009598445, 15.028666666666666 46.52762767626511, 15.229999999999999 46.77296100959845 C 15.431333333333333 47.01829434293178, 15.544 47.395627676265114, 15.568 47.904961009598445 C 15.57333333333333 47.97696100959845, 15.576666666666664 48.04896100959845, 15.578 48.120961009598446 C 15.57933333333333 48.19296100959845, 15.579999999999998 48.263627676265116, 15.579999999999998 48.33296100959845 C 15.579999999999998 48.40229434293178, 15.57933333333333 48.471627676265115, 15.578 48.54096100959845 C 15.576666666666664 48.61029434293178, 15.57333333333333 48.68096100959845, 15.568 48.75296100959845 C 15.549333333333333 49.24896100959845, 15.428666666666665 49.61362767626512, 15.206 49.846961009598445 C 14.983333333333334 50.08029434293178, 14.630666666666666 50.210294342931775, 14.148 50.236961009598446 Z M 16.196 48.75696100959845 C 16.188000000000002 48.32762767626511, 16.182666666666666 47.910961009598445, 16.18 47.50696100959845 C 16.177333333333333 47.102961009598445, 16.177999999999997 46.70762767626511, 16.182 46.32096100959845 C 16.186 45.934294342931786, 16.190666666666665 45.55296100959845, 16.196 45.17696100959845 C 16.209333333333333 44.736961009598446, 16.334000000000003 44.39162767626512, 16.57 44.14096100959845 C 16.805999999999997 43.89029434293178, 17.142666666666663 43.74496100959845, 17.58 43.70496100959845 L 17.58 44.59296100959845 C 17.382666666666665 44.64896100959845, 17.281333333333333 44.77829434293179, 17.276 44.980961009598445 C 17.262666666666668 45.35162767626511, 17.253333333333334 45.699627676265116, 17.248 46.02496100959845 C 17.242666666666665 46.35029434293178, 17.24 46.666961009598445, 17.24 46.974961009598445 C 17.24 47.282961009598445, 17.242666666666665 47.59762767626511, 17.248 47.91896100959845 C 17.253333333333334 48.24029434293178, 17.262666666666668 48.58362767626511, 17.276 48.94896100959845 C 17.281333333333333 49.15696100959845, 17.382666666666665 49.288961009598445, 17.58 49.34496100959845 L 17.58 50.23296100959845 C 17.142666666666663 50.19296100959845, 16.805999999999997 50.04696100959845, 16.57 49.794961009598445 C 16.334000000000003 49.54296100959844, 16.209333333333333 49.19696100959844, 16.196 48.75696100959845 Z M 18.084 50.23296100959845 L 18.084 49.340961009598445 C 18.268 49.28762767626511, 18.366666666666667 49.16362767626511, 18.38 48.968961009598445 C 18.398666666666667 48.502294342931776, 18.410666666666668 48.053627676265116, 18.416 47.62296100959845 C 18.421333333333333 47.19229434293178, 18.421333333333333 46.761627676265114, 18.416 46.33096100959845 C 18.410666666666668 45.90029434293178, 18.398666666666667 45.447627676265114, 18.38 44.97296100959845 C 18.374666666666666 44.77829434293178, 18.276 44.651627676265115, 18.084 44.59296100959845 L 18.084 43.70496100959845 C 18.513333333333335 43.74496100959845, 18.846666666666668 43.89029434293178, 19.084 44.14096100959845 C 19.321333333333335 44.39162767626512, 19.445333333333334 44.736961009598446, 19.456 45.17696100959845 C 19.46666666666667 45.49162767626512, 19.474666666666668 45.80162767626512, 19.48 46.10696100959845 C 19.485333333333333 46.41229434293178, 19.488 46.712961009598445, 19.488 47.00896100959845 C 19.488 47.30496100959844, 19.485333333333333 47.59829434293178, 19.48 47.88896100959845 C 19.474666666666668 48.17962767626511, 19.46666666666667 48.468961009598445, 19.456 48.75696100959845 C 19.439999999999998 49.20762767626512, 19.311999999999998 49.55629434293178, 19.072 49.80296100959845 C 18.832 50.04962767626512, 18.502666666666666 50.19296100959845, 18.084 50.23296100959845 Z M 21.944 50.16896100959845 L 21.944 43.76896100959845 L 23.003999999999998 43.76896100959845 L 23.003999999999998 50.16896100959845 Z " stroke="none" fill-rule="nonzero" fill="#000000" fill-opacity="1" transform="matrix(1,0,0,1,5.05,13.314)" id="text30 l" />
  <path d="M 0 40.82516880767878 L 10 40.82516880767878 L 10 42.32516880767878 L 0 42.32516880767878 Z " stroke="none" fill-rule="evenodd" fill="#000000" fill-opacity="1" transform="matrix(1,0,0,1,5.05,13.314)" id="mark31 l" />
  <path d="M 0 30.431376605759056 L 10 30.431376605759056 L 10 31.931376605759056 L 0 31.931376605759056 Z " stroke="none" fill-rule="evenodd" fill="#000000" fill-opacity="1" transform="matrix(1,0,0,1,5.05,13.314)" id="mark32 l" />
  <path d="M 0 20.03758440383939 L 10 20.03758440383939 L 10 21.53758440383939 L 0 21.53758440383939 Z " stroke="none" fill-rule="evenodd" fill="#000000" fill-opacity="1" transform="matrix(1,0,0,1,5.05,13.314)" id="mark33 l" />
  <path d="M 0 9.643792201919666 L 10 9.643792201919666 L 10 11.143792201919666 L 0 11.143792201919666 Z " stroke="none" fill-rule="evenodd" fill="#000000" fill-opacity="1" transform="matrix(1,0,0,1,5.05,13.314)" id="mark34 l" />
  <path d="M 0 -0.75 L 25 -0.75 L 25 0.75 L 0 0.75 Z " stroke="none" fill-rule="evenodd" fill="#000000" fill-opacity="1" transform="matrix(1,0,0,1,5.05,13.314)" id="mark35 l" />
  <path d="M 12.232 -3.2479999999999998 C 12.229333333333333 -3.349333333333333, 12.227333333333334 -3.4333333333333336, 12.226 -3.5 C 12.224666666666668 -3.5666666666666664, 12.224666666666668 -3.6346666666666665, 12.226 -3.7039999999999997 C 12.227333333333334 -3.773333333333333, 12.229333333333333 -3.8626666666666667, 12.232 -3.972 L 13.312 -3.972 L 13.312 -3.1079999999999997 C 13.312 -2.8706666666666663, 13.425333333333333 -2.7199999999999998, 13.652 -2.6559999999999997 L 13.652 -1.7639999999999998 C 13.164 -1.801333333333333, 12.808666666666667 -1.9359999999999997, 12.586 -2.1679999999999997 C 12.363333333333333 -2.4, 12.245333333333335 -2.76, 12.232 -3.2479999999999998 Z M 12.3 -7.3 L 12.3 -8.232 L 15.544 -8.232 L 15.544 -7.3 Z M 14.152000000000001 -2.6519999999999997 C 14.376000000000001 -2.7079999999999997, 14.492 -2.8586666666666662, 14.5 -3.104 C 14.505333333333333 -3.3066666666666666, 14.508666666666667 -3.489333333333333, 14.51 -3.652 C 14.511333333333333 -3.8146666666666667, 14.506666666666668 -3.9719999999999995, 14.496 -4.124 C 14.488 -4.2813333333333325, 14.440000000000001 -4.414666666666666, 14.352 -4.524 C 14.264 -4.633333333333333, 14.097333333333335 -4.685333333333333, 13.852 -4.68 L 13.104 -4.672 L 13.076 -5.564 L 14.036 -6.9479999999999995 L 15.224 -6.9479999999999995 L 14.256 -5.596 L 14.288 -5.596 C 14.719999999999999 -5.596, 15.036666666666665 -5.473333333333333, 15.238 -5.228 C 15.439333333333334 -4.982666666666667, 15.552 -4.605333333333333, 15.576 -4.096 C 15.581333333333333 -4.024, 15.584666666666667 -3.952, 15.586 -3.88 C 15.587333333333333 -3.808, 15.588000000000001 -3.737333333333333, 15.588000000000001 -3.6679999999999997 C 15.588000000000001 -3.5986666666666665, 15.587333333333333 -3.529333333333333, 15.586 -3.46 C 15.584666666666667 -3.3906666666666667, 15.581333333333333 -3.3200000000000003, 15.576 -3.2479999999999998 C 15.557333333333334 -2.752, 15.436666666666667 -2.3873333333333333, 15.214 -2.154 C 14.991333333333333 -1.9206666666666665, 14.638666666666666 -1.7906666666666666, 14.156 -1.7639999999999998 Z M 16.18 -3.2479999999999998 C 16.174666666666667 -3.421333333333333, 16.173333333333332 -3.5606666666666666, 16.176 -3.666 C 16.178666666666665 -3.771333333333333, 16.181333333333335 -3.873333333333333, 16.183999999999997 -3.972 L 17.264 -3.972 C 17.256 -3.8946666666666667, 17.25 -3.7986666666666666, 17.246 -3.6839999999999997 C 17.241999999999997 -3.569333333333333, 17.240666666666666 -3.4586666666666663, 17.241999999999997 -3.352 C 17.243333333333332 -3.2453333333333334, 17.246666666666666 -3.1653333333333338, 17.252 -3.112 C 17.262666666666668 -2.992, 17.297333333333334 -2.8939999999999997, 17.355999999999998 -2.8179999999999996 C 17.414666666666665 -2.7419999999999995, 17.497333333333334 -2.6879999999999997, 17.604 -2.6559999999999997 L 17.604 -1.7639999999999998 C 17.110666666666663 -1.801333333333333, 16.75333333333333 -1.9359999999999997, 16.532 -2.1679999999999997 C 16.310666666666666 -2.4, 16.19333333333333 -2.76, 16.18 -3.2479999999999998 Z M 16.279999999999998 -4.584 L 16.279999999999998 -8.232 L 17.348 -8.232 L 17.348 -4.584 Z M 17.852 -5.008 L 17.852 -5.763999999999999 C 17.929333333333332 -5.804, 18.014666666666667 -5.836, 18.107999999999997 -5.86 C 18.20133333333333 -5.884, 18.301333333333332 -5.896, 18.407999999999998 -5.896 C 18.773333333333333 -5.896, 19.047333333333334 -5.780666666666667, 19.23 -5.55 C 19.412666666666667 -5.319333333333333, 19.514666666666663 -5.005333333333333, 19.535999999999998 -4.608 C 19.546666666666667 -4.448, 19.55333333333333 -4.289333333333333, 19.555999999999997 -4.132 C 19.558666666666664 -3.974666666666667, 19.557333333333332 -3.8213333333333335, 19.552 -3.6719999999999997 C 19.546666666666667 -3.522666666666667, 19.538666666666668 -3.3826666666666663, 19.528 -3.252 C 19.482666666666667 -2.753333333333333, 19.353333333333335 -2.388, 19.14 -2.1559999999999997 C 18.926666666666666 -1.9239999999999997, 18.581333333333333 -1.793333333333333, 18.104 -1.7639999999999998 L 18.104 -2.6559999999999997 C 18.21333333333333 -2.685333333333333, 18.296 -2.738, 18.352 -2.814 C 18.408 -2.89, 18.44 -2.9893333333333336, 18.448 -3.112 C 18.471999999999998 -3.4026666666666667, 18.485999999999997 -3.664, 18.49 -3.896 C 18.494 -4.128, 18.485333333333333 -4.349333333333333, 18.464 -4.5600000000000005 C 18.447999999999997 -4.714666666666667, 18.396666666666665 -4.83, 18.31 -4.906 C 18.223333333333333 -4.981999999999999, 18.090666666666664 -5.02, 17.912 -5.02 C 17.901333333333334 -5.02, 17.890666666666668 -5.018666666666666, 17.88 -5.016 C 17.86933333333333 -5.013333333333334, 17.86 -5.010666666666667, 17.852 -5.008 Z M 17.852 -7.3 L 17.852 -8.232 L 19.439999999999998 -8.232 L 19.439999999999998 -7.3 Z M 21.944 -1.8319999999999999 L 21.944 -8.232 L 23.003999999999998 -8.232 L 23.003999999999998 -1.8319999999999999 Z " stroke="none" fill-rule="nonzero" fill="#000000" fill-opacity="1" transform="matrix(1,0,0,1,5.05,13.314)" id="text35 l" />
  <path d="M -5 -13.264 L 30 -13.264 L 30 360.1249348652696 L -5 360.1249348652696 Z " stroke="#FF0000" stroke-opacity="1" stroke-width="0.1" stroke-linecap="butt" stroke-linejoin="miter" fill="none" transform="matrix(1,0,0,1,5.05,13.314)" />
</svg>