<?xml version="1.0" encoding="UTF-8"?>
<svg xmlns:xlink="http://www.w3.org/1999/xlink" viewBox="0 0 35.1 496.22199795506066" version="1.1" style="font-synthesis: none;" width="35.1mm" height="496.22199795506066mm" xmlns="http://www.w3.org/2000/svg">
  <defs />
  <style>	</style>
  <path d="M 0 0 L 35.1 0 L 35.1 496.22199795506066 L 0 496.22199795506066 Z " stroke="none" fill-rule="nonzero" fill="#FFFFFF" fill-opacity="1" transform="matrix(1,0,0,1,0,0)" />
  <path d="M 0 475.33999795506065 L 10 475.33999795506065 L 10 476.83999795506065 L 0 476.83999795506065 Z " stroke="none" fill-rule="evenodd" fill="#000000" fill-opacity="1" transform="matrix(1,0,0,1,5.05,13.314)" id="mark1 l" />
  <path d="M 0 465.6238755478145 L 10 465.6238755478145 L 10 467.1238755478145 L 0 467.1238755478145 Z " stroke="none" fill-rule="evenodd" fill="#000000" fill-opacity="1" transform="matrix(1,0,0,1,5.05,13.314)" id="mark2 l" />
  <path d="M 0 455.9077531405684 L 10 455.9077531405684 L 10 457.4077531405684 L 0 457.4077531405684 Z " stroke="none" fill-rule="evenodd" fill="#000000" fill-opacity="1" transform="matrix(1,0,0,1,5.05,13.314)" id="mark3 l" />
  <path d="M 0 446.19163073332226 L 10 446.19163073332226 L 10 447.69163073332226 L 0 447.69163073332226 Z " stroke="none" fill-rule="evenodd" fill="#000000" fill-opacity="1" transform="matrix(1,0,0,1,5.05,13.314)" id="mark4 l" />
  <path d="M 0 436.4755083260761 L 25 436.4755083260761 L 25 437.9755083260761 L 0 437.9755083260761 Z " stroke="none" fill-rule="evenodd" fill="#000000" fill-opacity="1" transform="matrix(1,0,0,1,5.05,13.314)" id="mark5 l" />
  <path d="M 16.18 433.97750832607613 C 16.174666666666667 433.8041749927428, 16.173333333333332 433.6648416594095, 16.176 433.5595083260761 C 16.178666666666665 433.45417499274276, 16.181333333333335 433.3521749927428, 16.183999999999997 433.25350832607614 L 17.264 433.25350832607614 C 17.256 433.33084165940943, 17.25 433.42684165940943, 17.246 433.54150832607615 C 17.241999999999997 433.65617499274276, 17.240666666666666 433.76684165940947, 17.241999999999997 433.87350832607615 C 17.243333333333332 433.98017499274283, 17.246666666666666 434.0601749927428, 17.252 434.11350832607616 C 17.262666666666668 434.2335083260761, 17.297333333333334 434.3315083260761, 17.355999999999998 434.40750832607614 C 17.414666666666665 434.48350832607616, 17.497333333333334 434.53750832607614, 17.604 434.5695083260761 L 17.604 435.4615083260761 C 17.110666666666663 435.4241749927428, 16.75333333333333 435.28950832607615, 16.532 435.0575083260761 C 16.310666666666666 434.8255083260761, 16.19333333333333 434.46550832607613, 16.18 433.97750832607613 Z M 16.279999999999998 432.6415083260761 L 16.279999999999998 428.99350832607615 L 17.348 428.99350832607615 L 17.348 432.6415083260761 Z M 17.852 432.21750832607614 L 17.852 431.4615083260761 C 17.929333333333332 431.4215083260761, 18.014666666666667 431.3895083260761, 18.107999999999997 431.3655083260761 C 18.20133333333333 431.3415083260761, 18.301333333333332 431.32950832607605, 18.407999999999998 431.3295083260761 C 18.773333333333333 431.32950832607605, 19.047333333333334 431.44484165940946, 19.23 431.6755083260761 C 19.412666666666667 431.90617499274276, 19.514666666666663 432.2201749927428, 19.535999999999998 432.6175083260761 C 19.546666666666667 432.77750832607614, 19.55333333333333 432.93617499274285, 19.555999999999997 433.0935083260761 C 19.558666666666664 433.2508416594095, 19.557333333333332 433.4041749927428, 19.552 433.55350832607616 C 19.546666666666667 433.7028416594095, 19.538666666666668 433.8428416594095, 19.528 433.9735083260761 C 19.482666666666667 434.4721749927428, 19.353333333333335 434.8375083260761, 19.14 435.0695083260761 C 18.926666666666666 435.30150832607615, 18.581333333333333 435.43217499274283, 18.104 435.4615083260761 L 18.104 434.5695083260761 C 18.21333333333333 434.5401749927428, 18.296 434.48750832607607, 18.352 434.4115083260761 C 18.408 434.33550832607614, 18.44 434.2361749927428, 18.448 434.11350832607616 C 18.471999999999998 433.82284165940945, 18.485999999999997 433.56150832607614, 18.49 433.3295083260761 C 18.494 433.0975083260762, 18.485333333333333 432.8761749927428, 18.464 432.6655083260761 C 18.447999999999997 432.5108416594095, 18.396666666666665 432.39550832607614, 18.31 432.3195083260761 C 18.223333333333333 432.24350832607615, 18.090666666666664 432.20550832607614, 17.912 432.20550832607614 C 17.901333333333334 432.20550832607614, 17.890666666666668 432.2068416594095, 17.88 432.2095083260761 C 17.86933333333333 432.2121749927428, 17.86 432.21484165940944, 17.852 432.21750832607614 Z M 17.852 429.9255083260761 L 17.852 428.99350832607615 L 19.439999999999998 428.99350832607615 L 19.439999999999998 429.9255083260761 Z M 21.944 435.39350832607613 L 21.944 428.99350832607615 L 23.003999999999998 428.99350832607615 L 23.003999999999998 435.39350832607613 Z " stroke="none" fill-rule="nonzero" fill="#000000" fill-opacity="1" transform="matrix(1,0,0,1,5.05,13.314)" id="text5 l" />
  <path d="M 0 426.75938591883 L 10 426.75938591883 L 10 428.25938591883 L 0 428.25938591883 Z " stroke="none" fill-rule="evenodd" fill="#000000" fill-opacity="1" transform="matrix(1,0,0,1,5.05,13.314)" id="mark6 l" />
  <path d="M 0 417.04326351158386 L 10 417.04326351158386 L 10 418.54326351158386 L 0 418.54326351158386 Z " stroke="none" fill-rule="evenodd" fill="#000000" fill-opacity="1" transform="matrix(1,0,0,1,5.05,13.314)" id="mark7 l" />
  <path d="M 0 407.32714110433767 L 10 407.32714110433767 L 10 408.82714110433767 L 0 408.82714110433767 Z " stroke="none" fill-rule="evenodd" fill="#000000" fill-opacity="1" transform="matrix(1,0,0,1,5.05,13.314)" id="mark8 l" />
  <path d="M 0 397.6110186970916 L 10 397.6110186970916 L 10 399.1110186970916 L 0 399.1110186970916 Z " stroke="none" fill-rule="evenodd" fill="#000000" fill-opacity="1" transform="matrix(1,0,0,1,5.05,13.314)" id="mark9 l" />
  <path d="M 0 387.8948962898454 L 25 387.8948962898454 L 25 389.3948962898454 L 0 389.3948962898454 Z " stroke="none" fill-rule="evenodd" fill="#000000" fill-opacity="1" transform="matrix(1,0,0,1,5.05,13.314)" id="mark10 l" />
  <path d="M 14.323999999999998 386.8448962898454 L 14.323999999999998 381.4008962898454 L 13.871999999999998 381.4008962898454 L 13.839999999999998 381.0208962898454 L 14.543999999999999 380.4448962898454 L 15.424 380.4448962898454 L 15.424 386.8448962898454 Z M 16.196 385.4328962898454 C 16.188000000000002 385.0035629565121, 16.182666666666666 384.5868962898454, 16.18 384.1828962898454 C 16.177333333333333 383.7788962898454, 16.177999999999997 383.38356295651204, 16.182 382.9968962898454 C 16.186 382.6102296231787, 16.190666666666665 382.2288962898454, 16.196 381.8528962898454 C 16.209333333333333 381.4128962898454, 16.334000000000003 381.06756295651206, 16.57 380.8168962898454 C 16.805999999999997 380.56622962317874, 17.142666666666663 380.4208962898454, 17.58 380.3808962898454 L 17.58 381.2688962898454 C 17.382666666666665 381.32489628984536, 17.281333333333333 381.4542296231787, 17.276 381.6568962898454 C 17.262666666666668 382.02756295651204, 17.253333333333334 382.37556295651206, 17.248 382.7008962898454 C 17.242666666666665 383.0262296231787, 17.24 383.3428962898454, 17.24 383.6508962898454 C 17.24 383.95889628984537, 17.242666666666665 384.273562956512, 17.248 384.5948962898454 C 17.253333333333334 384.91622962317876, 17.262666666666668 385.2595629565121, 17.276 385.62489628984537 C 17.281333333333333 385.8328962898454, 17.382666666666665 385.96489628984534, 17.58 386.0208962898454 L 17.58 386.9088962898454 C 17.142666666666663 386.86889628984545, 16.805999999999997 386.7228962898454, 16.57 386.47089628984537 C 16.334000000000003 386.21889628984536, 16.209333333333333 385.8728962898454, 16.196 385.4328962898454 Z M 18.084 386.9088962898454 L 18.084 386.0168962898454 C 18.268 385.9635629565121, 18.366666666666667 385.83956295651205, 18.38 385.6448962898454 C 18.398666666666667 385.1782296231787, 18.410666666666668 384.72956295651204, 18.416 384.2988962898454 C 18.421333333333333 383.8682296231787, 18.421333333333333 383.437562956512, 18.416 383.0068962898454 C 18.410666666666668 382.57622962317873, 18.398666666666667 382.12356295651205, 18.38 381.64889628984537 C 18.374666666666666 381.4542296231787, 18.276 381.32756295651205, 18.084 381.2688962898454 L 18.084 380.3808962898454 C 18.513333333333335 380.4208962898454, 18.846666666666668 380.56622962317874, 19.084 380.8168962898454 C 19.321333333333335 381.06756295651206, 19.445333333333334 381.4128962898454, 19.456 381.8528962898454 C 19.46666666666667 382.1675629565121, 19.474666666666668 382.4775629565121, 19.48 382.7828962898454 C 19.485333333333333 383.08822962317873, 19.488 383.38889628984543, 19.488 383.68489628984537 C 19.488 383.98089628984536, 19.485333333333333 384.2742296231787, 19.48 384.5648962898454 C 19.474666666666668 384.8555629565121, 19.46666666666667 385.1448962898454, 19.456 385.4328962898454 C 19.439999999999998 385.8835629565121, 19.311999999999998 386.2322296231788, 19.072 386.4788962898454 C 18.832 386.72556295651214, 18.502666666666666 386.86889628984545, 18.084 386.9088962898454 Z M 21.944 386.8448962898454 L 21.944 380.4448962898454 L 23.003999999999998 380.4448962898454 L 23.003999999999998 386.8448962898454 Z " stroke="none" fill-rule="nonzero" fill="#000000" fill-opacity="1" transform="matrix(1,0,0,1,5.05,13.314)" id="text10 l" />
  <path d="M 0 378.1787738825993 L 10 378.1787738825993 L 10 379.6787738825993 L 0 379.6787738825993 Z " stroke="none" fill-rule="evenodd" fill="#000000" fill-opacity="1" transform="matrix(1,0,0,1,5.05,13.314)" id="mark11 l" />
  <path d="M 0 368.46265147535314 L 10 368.46265147535314 L 10 369.96265147535314 L 0 369.96265147535314 Z " stroke="none" fill-rule="evenodd" fill="#000000" fill-opacity="1" transform="matrix(1,0,0,1,5.05,13.314)" id="mark12 l" />
  <path d="M 0 358.746529068107 L 10 358.746529068107 L 10 360.246529068107 L 0 360.246529068107 Z " stroke="none" fill-rule="evenodd" fill="#000000" fill-opacity="1" transform="matrix(1,0,0,1,5.05,13.314)" id="mark13 l" />
  <path d="M 0 349.0304066608609 L 10 349.0304066608609 L 10 350.5304066608609 L 0 350.5304066608609 Z " stroke="none" fill-rule="evenodd" fill="#000000" fill-opacity="1" transform="matrix(1,0,0,1,5.05,13.314)" id="mark14 l" />
  <path d="M 0 339.31428425361474 L 25 339.31428425361474 L 25 340.81428425361474 L 0 340.81428425361474 Z " stroke="none" fill-rule="evenodd" fill="#000000" fill-opacity="1" transform="matrix(1,0,0,1,5.05,13.314)" id="mark15 l" />
  <path d="M 14.331999999999999 338.23228425361475 L 14.331999999999999 332.78828425361473 L 13.879999999999999 332.78828425361473 L 13.847999999999999 332.40828425361474 L 14.552 331.8322842536148 L 15.432 331.8322842536148 L 15.432 338.23228425361475 Z M 16.18 336.81628425361475 C 16.174666666666667 336.64295092028146, 16.173333333333332 336.5036175869481, 16.176 336.39828425361475 C 16.178666666666665 336.2929509202814, 16.181333333333335 336.1909509202814, 16.183999999999997 336.09228425361476 L 17.264 336.09228425361476 C 17.256 336.1696175869481, 17.25 336.2656175869481, 17.246 336.3802842536148 C 17.241999999999997 336.49495092028144, 17.240666666666666 336.6056175869481, 17.241999999999997 336.71228425361477 C 17.243333333333332 336.8189509202814, 17.246666666666666 336.89895092028144, 17.252 336.9522842536148 C 17.262666666666668 337.0722842536147, 17.297333333333334 337.17028425361474, 17.355999999999998 337.24628425361476 C 17.414666666666665 337.3222842536147, 17.497333333333334 337.37628425361476, 17.604 337.40828425361474 L 17.604 338.30028425361473 C 17.110666666666663 338.2629509202814, 16.75333333333333 338.12828425361477, 16.532 337.89628425361474 C 16.310666666666666 337.6642842536147, 16.19333333333333 337.3042842536147, 16.18 336.81628425361475 Z M 16.279999999999998 335.48028425361474 L 16.279999999999998 331.8322842536148 L 17.348 331.8322842536148 L 17.348 335.48028425361474 Z M 17.852 335.05628425361476 L 17.852 334.30028425361473 C 17.929333333333332 334.2602842536147, 18.014666666666667 334.22828425361473, 18.107999999999997 334.20428425361473 C 18.20133333333333 334.18028425361473, 18.301333333333332 334.16828425361473, 18.407999999999998 334.16828425361473 C 18.773333333333333 334.16828425361473, 19.047333333333334 334.283617586948, 19.23 334.51428425361473 C 19.412666666666667 334.74495092028144, 19.514666666666663 335.0589509202814, 19.535999999999998 335.45628425361474 C 19.546666666666667 335.61628425361477, 19.55333333333333 335.7749509202814, 19.555999999999997 335.93228425361474 C 19.558666666666664 336.08961758694807, 19.557333333333332 336.24295092028143, 19.552 336.3922842536148 C 19.546666666666667 336.5416175869481, 19.538666666666668 336.6816175869481, 19.528 336.81228425361473 C 19.482666666666667 337.3109509202814, 19.353333333333335 337.6762842536147, 19.14 337.90828425361474 C 18.926666666666666 338.14028425361477, 18.581333333333333 338.2709509202814, 18.104 338.30028425361473 L 18.104 337.40828425361474 C 18.21333333333333 337.3789509202814, 18.296 337.32628425361474, 18.352 337.2502842536147 C 18.408 337.17428425361476, 18.44 337.0749509202814, 18.448 336.9522842536148 C 18.471999999999998 336.66161758694807, 18.485999999999997 336.4002842536147, 18.49 336.16828425361473 C 18.494 335.93628425361476, 18.485333333333333 335.7149509202814, 18.464 335.50428425361474 C 18.447999999999997 335.3496175869481, 18.396666666666665 335.23428425361476, 18.31 335.15828425361474 C 18.223333333333333 335.0822842536148, 18.090666666666664 335.04428425361476, 17.912 335.04428425361476 C 17.901333333333334 335.04428425361476, 17.890666666666668 335.0456175869481, 17.88 335.0482842536147 C 17.86933333333333 335.05095092028137, 17.86 335.05361758694806, 17.852 335.05628425361476 Z M 17.852 332.76428425361473 L 17.852 331.8322842536148 L 19.439999999999998 331.8322842536148 L 19.439999999999998 332.76428425361473 Z M 21.944 338.23228425361475 L 21.944 331.8322842536148 L 23.003999999999998 331.8322842536148 L 23.003999999999998 338.23228425361475 Z " stroke="none" fill-rule="nonzero" fill="#000000" fill-opacity="1" transform="matrix(1,0,0,1,5.05,13.314)" id="text15 l" />
  <path d="M 0 329.5981618463686 L 10 329.5981618463686 L 10 331.0981618463686 L 0 331.0981618463686 Z " stroke="none" fill-rule="evenodd" fill="#000000" fill-opacity="1" transform="matrix(1,0,0,1,5.05,13.314)" id="mark16 l" />
  <path d="M 0 319.8820394391225 L 10 319.8820394391225 L 10 321.3820394391225 L 0 321.3820394391225 Z " stroke="none" fill-rule="evenodd" fill="#000000" fill-opacity="1" transform="matrix(1,0,0,1,5.05,13.314)" id="mark17 l" />
  <path d="M 0 310.16591703187635 L 10 310.16591703187635 L 10 311.66591703187635 L 0 311.66591703187635 Z " stroke="none" fill-rule="evenodd" fill="#000000" fill-opacity="1" transform="matrix(1,0,0,1,5.05,13.314)" id="mark18 l" />
  <path d="M 0 300.44979462463016 L 10 300.44979462463016 L 10 301.94979462463016 L 0 301.94979462463016 Z " stroke="none" fill-rule="evenodd" fill="#000000" fill-opacity="1" transform="matrix(1,0,0,1,5.05,13.314)" id="mark19 l" />
  <path d="M 0 290.7336722173841 L 25 290.7336722173841 L 25 292.2336722173841 L 0 292.2336722173841 Z " stroke="none" fill-rule="evenodd" fill="#000000" fill-opacity="1" transform="matrix(1,0,0,1,5.05,13.314)" id="mark20 l" />
  <path d="M 12.319999999999999 289.68367221738407 C 12.317333333333334 289.58500555071737, 12.315333333333331 289.4963388840507, 12.313999999999998 289.41767221738405 C 12.312666666666665 289.3390055507174, 12.311333333333334 289.26500555071743, 12.309999999999999 289.1956722173841 C 12.308666666666667 289.1263388840507, 12.308 289.0543388840507, 12.308 288.97967221738406 C 12.308 288.9050055507174, 12.308 288.8203388840507, 12.308 288.72567221738404 C 12.308 288.63100555071736, 12.309333333333335 288.5196722173841, 12.312 288.3916722173841 C 12.32 288.09833888405075, 12.37 287.83633888405075, 12.462 287.6056722173841 C 12.554 287.37500555071745, 12.687999999999999 287.16900555071743, 12.863999999999999 286.98767221738404 C 13.04 286.8063388840507, 13.257333333333333 286.6450055507174, 13.515999999999998 286.50367221738406 L 14.047999999999998 286.21567221738405 C 14.234666666666666 286.11433888405077, 14.354 285.99233888405075, 14.405999999999999 285.84967221738407 C 14.457999999999998 285.7070055507174, 14.488 285.5730055507174, 14.495999999999999 285.4476722173841 C 14.506666666666664 285.3010055507174, 14.512666666666664 285.14433888405074, 14.514 284.97767221738405 C 14.51533333333333 284.81100555071737, 14.511999999999997 284.65433888405073, 14.504 284.5076722173841 C 14.498666666666665 284.4036722173841, 14.468666666666666 284.3176722173841, 14.413999999999998 284.24967221738405 C 14.359333333333332 284.18167221738406, 14.279999999999998 284.1330055507174, 14.175999999999998 284.1036722173841 L 14.175999999999998 283.21567221738405 C 14.663999999999998 283.2476722173841, 15.014 283.3790055507174, 15.225999999999999 283.60967221738406 C 15.437999999999999 283.8403388840507, 15.554666666666666 284.2010055507174, 15.575999999999999 284.69167221738405 C 15.578666666666663 284.7556722173841, 15.580666666666666 284.8210055507174, 15.581999999999999 284.8876722173841 C 15.583333333333332 284.95433888405074, 15.584 285.0190055507174, 15.584 285.0816722173841 C 15.584 285.14433888405074, 15.583333333333332 285.20633888405075, 15.581999999999999 285.2676722173841 C 15.580666666666666 285.3290055507174, 15.578666666666663 285.3890055507174, 15.575999999999999 285.4476722173841 C 15.565333333333331 285.7330055507174, 15.512 285.97967221738406, 15.415999999999999 286.1876722173841 C 15.32 286.39567221738406, 15.19 286.57567221738407, 15.026 286.72767221738405 C 14.862 286.87967221738404, 14.672 287.01567221738406, 14.456 287.13567221738407 L 13.851999999999999 287.46367221738404 C 13.737333333333332 287.5250055507174, 13.647333333333332 287.60900555071737, 13.581999999999999 287.71567221738405 C 13.516666666666666 287.82233888405074, 13.469999999999999 287.9356722173841, 13.441999999999998 288.0556722173841 C 13.413999999999998 288.1756722173841, 13.399999999999999 288.2876722173841, 13.399999999999999 288.3916722173841 L 13.399999999999999 289.68367221738407 Z M 12.328 285.64367221738405 C 12.322666666666667 285.52633888405074, 12.318666666666665 285.4116722173841, 12.315999999999999 285.29967221738406 C 12.313333333333333 285.18767221738403, 12.311333333333334 285.08167221738404, 12.309999999999999 284.9816722173841 C 12.308666666666667 284.8816722173841, 12.309333333333335 284.7850055507174, 12.312 284.69167221738405 C 12.330666666666666 284.20367221738405, 12.447333333333333 283.8443388840507, 12.661999999999999 283.6136722173841 C 12.876666666666665 283.3830055507174, 13.213333333333331 283.25033888405073, 13.671999999999999 283.21567221738405 L 13.671999999999999 284.10767221738405 C 13.576 284.1370055507174, 13.505333333333333 284.18367221738407, 13.459999999999999 284.2476722173841 C 13.414666666666665 284.3116722173841, 13.390666666666664 284.38900555071746, 13.387999999999998 284.47967221738406 C 13.382666666666665 284.68767221738403, 13.379333333333333 284.8810055507174, 13.378 285.05967221738405 C 13.376666666666667 285.23833888405073, 13.381333333333334 285.4330055507174, 13.392 285.64367221738405 Z M 13.904 289.68367221738407 L 13.904 288.75167221738405 L 15.5 288.75167221738405 L 15.5 289.68367221738407 Z M 16.196 288.2716722173841 C 16.188000000000002 287.8423388840507, 16.182666666666666 287.4256722173841, 16.18 287.0216722173841 C 16.177333333333333 286.6176722173841, 16.177999999999997 286.2223388840507, 16.182 285.83567221738406 C 16.186 285.4490055507174, 16.190666666666665 285.0676722173841, 16.196 284.69167221738405 C 16.209333333333333 284.25167221738405, 16.334000000000003 283.90633888405074, 16.57 283.65567221738405 C 16.805999999999997 283.4050055507174, 17.142666666666663 283.2596722173841, 17.58 283.2196722173841 L 17.58 284.10767221738405 C 17.382666666666665 284.16367221738403, 17.281333333333333 284.2930055507174, 17.276 284.4956722173841 C 17.262666666666668 284.8663388840507, 17.253333333333334 285.21433888405073, 17.248 285.53967221738407 C 17.242666666666665 285.8650055507174, 17.24 286.18167221738406, 17.24 286.48967221738405 C 17.24 286.79767221738405, 17.242666666666665 287.1123388840507, 17.248 287.43367221738407 C 17.253333333333334 287.75500555071744, 17.262666666666668 288.09833888405075, 17.276 288.46367221738404 C 17.281333333333333 288.67167221738407, 17.382666666666665 288.8036722173841, 17.58 288.85967221738406 L 17.58 289.7476722173841 C 17.142666666666663 289.7076722173841, 16.805999999999997 289.56167221738406, 16.57 289.30967221738405 C 16.334000000000003 289.05767221738404, 16.209333333333333 288.71167221738403, 16.196 288.2716722173841 Z M 18.084 289.7476722173841 L 18.084 288.8556722173841 C 18.268 288.80233888405076, 18.366666666666667 288.67833888405073, 18.38 288.4836722173841 C 18.398666666666667 288.01700555071744, 18.410666666666668 287.5683388840508, 18.416 287.1376722173841 C 18.421333333333333 286.7070055507174, 18.421333333333333 286.2763388840507, 18.416 285.84567221738405 C 18.410666666666668 285.4150055507174, 18.398666666666667 284.9623388840507, 18.38 284.48767221738404 C 18.374666666666666 284.2930055507174, 18.276 284.16633888405073, 18.084 284.10767221738405 L 18.084 283.2196722173841 C 18.513333333333335 283.2596722173841, 18.846666666666668 283.4050055507174, 19.084 283.65567221738405 C 19.321333333333335 283.90633888405074, 19.445333333333334 284.25167221738405, 19.456 284.69167221738405 C 19.46666666666667 285.00633888405076, 19.474666666666668 285.31633888405077, 19.48 285.62167221738406 C 19.485333333333333 285.9270055507174, 19.488 286.2276722173841, 19.488 286.52367221738405 C 19.488 286.8196722173841, 19.485333333333333 287.1130055507174, 19.48 287.4036722173841 C 19.474666666666668 287.69433888405075, 19.46666666666667 287.9836722173841, 19.456 288.2716722173841 C 19.439999999999998 288.7223388840507, 19.311999999999998 289.0710055507174, 19.072 289.3176722173841 C 18.832 289.56433888405076, 18.502666666666666 289.7076722173841, 18.084 289.7476722173841 Z M 21.944 289.68367221738407 L 21.944 283.2836722173841 L 23.003999999999998 283.2836722173841 L 23.003999999999998 289.68367221738407 Z " stroke="none" fill-rule="nonzero" fill="#000000" fill-opacity="1" transform="matrix(1,0,0,1,5.05,13.314)" id="text20 l" />
  <path d="M 0 281.0175498101379 L 10 281.0175498101379 L 10 282.5175498101379 L 0 282.5175498101379 Z " stroke="none" fill-rule="evenodd" fill="#000000" fill-opacity="1" transform="matrix(1,0,0,1,5.05,13.314)" id="mark21 l" />
  <path d="M 0 271.3014274028918 L 10 271.3014274028918 L 10 272.8014274028918 L 0 272.8014274028918 Z " stroke="none" fill-rule="evenodd" fill="#000000" fill-opacity="1" transform="matrix(1,0,0,1,5.05,13.314)" id="mark22 l" />
  <path d="M 0 261.58530499564563 L 10 261.58530499564563 L 10 263.08530499564563 L 0 263.08530499564563 Z " stroke="none" fill-rule="evenodd" fill="#000000" fill-opacity="1" transform="matrix(1,0,0,1,5.05,13.314)" id="mark23 l" />
  <path d="M 0 251.86918258839953 L 10 251.86918258839953 L 10 253.36918258839953 L 0 253.36918258839953 Z " stroke="none" fill-rule="evenodd" fill="#000000" fill-opacity="1" transform="matrix(1,0,0,1,5.05,13.314)" id="mark24 l" />
  <path d="M 0 242.1530601811534 L 25 242.1530601811534 L 25 243.6530601811534 L 0 243.6530601811534 Z " stroke="none" fill-rule="evenodd" fill="#000000" fill-opacity="1" transform="matrix(1,0,0,1,5.05,13.314)" id="mark25 l" />
  <path d="M 12.328 241.1030601811534 C 12.325333333333333 241.00439351448674, 12.323333333333332 240.91572684782005, 12.322 240.83706018115342 C 12.320666666666666 240.75839351448673, 12.319333333333333 240.68439351448674, 12.318 240.6150601811534 C 12.316666666666666 240.54572684782008, 12.315999999999999 240.47372684782007, 12.316 240.3990601811534 C 12.315999999999999 240.32439351448673, 12.315999999999999 240.23972684782007, 12.316 240.1450601811534 C 12.315999999999999 240.05039351448676, 12.317333333333334 239.93906018115342, 12.32 239.8110601811534 C 12.328 239.5177268478201, 12.378 239.25572684782009, 12.47 239.0250601811534 C 12.562000000000001 238.79439351448673, 12.696 238.5883935144867, 12.872 238.4070601811534 C 13.048 238.22572684782006, 13.265333333333334 238.06439351448674, 13.524000000000001 237.9230601811534 L 14.056000000000001 237.63506018115342 C 14.242666666666668 237.5337268478201, 14.362000000000002 237.4117268478201, 14.414 237.2690601811534 C 14.466000000000001 237.12639351448672, 14.495999999999999 236.99239351448676, 14.504 236.86706018115342 C 14.514666666666667 236.72039351448677, 14.520666666666667 236.56372684782008, 14.522 236.39706018115342 C 14.523333333333333 236.23039351448676, 14.520000000000001 236.07372684782007, 14.512 235.92706018115342 C 14.506666666666666 235.82306018115344, 14.476666666666667 235.73706018115342, 14.422 235.6690601811534 C 14.367333333333335 235.6010601811534, 14.288 235.55239351448677, 14.184000000000001 235.5230601811534 L 14.184000000000001 234.63506018115342 C 14.672 234.66706018115343, 15.022000000000002 234.79839351448675, 15.234 235.0290601811534 C 15.446000000000002 235.25972684782005, 15.562666666666667 235.62039351448675, 15.584 236.11106018115342 C 15.586666666666668 236.1750601811534, 15.588666666666668 236.24039351448675, 15.59 236.30706018115342 C 15.591333333333335 236.37372684782008, 15.592000000000002 236.43839351448673, 15.592 236.5010601811534 C 15.592000000000002 236.56372684782008, 15.591333333333335 236.6257268478201, 15.59 236.6870601811534 C 15.588666666666668 236.74839351448674, 15.586666666666668 236.80839351448674, 15.584 236.86706018115342 C 15.573333333333332 237.15239351448673, 15.52 237.3990601811534, 15.424 237.6070601811534 C 15.328 237.8150601811534, 15.197999999999999 237.9950601811534, 15.033999999999999 238.14706018115342 C 14.87 238.2990601811534, 14.68 238.4350601811534, 14.464 238.5550601811534 L 13.86 238.8830601811534 C 13.745333333333335 238.94439351448676, 13.655333333333335 239.02839351448677, 13.59 239.13506018115342 C 13.524666666666668 239.24172684782008, 13.478000000000002 239.35506018115342, 13.45 239.47506018115342 C 13.422 239.5950601811534, 13.408 239.7070601811534, 13.408 239.8110601811534 L 13.408 241.1030601811534 Z M 12.336 237.06306018115342 C 12.330666666666666 236.94572684782008, 12.326666666666664 236.83106018115342, 12.324 236.7190601811534 C 12.321333333333332 236.60706018115343, 12.319333333333333 236.50106018115343, 12.318 236.4010601811534 C 12.316666666666666 236.3010601811534, 12.317333333333334 236.20439351448675, 12.32 236.11106018115342 C 12.338666666666668 235.6230601811534, 12.455333333333336 235.26372684782007, 12.67 235.03306018115342 C 12.884666666666668 234.80239351448677, 13.221333333333334 234.66972684782007, 13.68 234.63506018115342 L 13.68 235.52706018115342 C 13.584 235.55639351448673, 13.513333333333332 235.6030601811534, 13.468 235.6670601811534 C 13.422666666666668 235.7310601811534, 13.398666666666667 235.80839351448674, 13.396 235.8990601811534 C 13.390666666666666 236.1070601811534, 13.387333333333332 236.30039351448676, 13.386 236.47906018115341 C 13.384666666666666 236.65772684782007, 13.389333333333333 236.85239351448675, 13.4 237.06306018115342 Z M 13.911999999999999 241.1030601811534 L 13.911999999999999 240.17106018115342 L 15.508 240.17106018115342 L 15.508 241.1030601811534 Z M 16.18 239.6870601811534 C 16.174666666666667 239.51372684782007, 16.173333333333332 239.37439351448674, 16.176 239.2690601811534 C 16.178666666666665 239.16372684782007, 16.181333333333335 239.06172684782007, 16.183999999999997 238.96306018115342 L 17.264 238.96306018115342 C 17.256 239.04039351448677, 17.25 239.13639351448674, 17.246 239.2510601811534 C 17.241999999999997 239.36572684782007, 17.240666666666666 239.47639351448674, 17.241999999999997 239.5830601811534 C 17.243333333333332 239.68972684782005, 17.246666666666666 239.7697268478201, 17.252 239.8230601811534 C 17.262666666666668 239.94306018115344, 17.297333333333334 240.04106018115343, 17.355999999999998 240.11706018115342 C 17.414666666666665 240.1930601811534, 17.497333333333334 240.24706018115342, 17.604 240.2790601811534 L 17.604 241.17106018115342 C 17.110666666666663 241.13372684782007, 16.75333333333333 240.99906018115342, 16.532 240.7670601811534 C 16.310666666666666 240.53506018115343, 16.19333333333333 240.1750601811534, 16.18 239.6870601811534 Z M 16.279999999999998 238.3510601811534 L 16.279999999999998 234.7030601811534 L 17.348 234.7030601811534 L 17.348 238.3510601811534 Z M 17.852 237.92706018115342 L 17.852 237.17106018115342 C 17.929333333333332 237.13106018115343, 18.014666666666667 237.09906018115345, 18.107999999999997 237.07506018115342 C 18.20133333333333 237.05106018115345, 18.301333333333332 237.03906018115345, 18.407999999999998 237.03906018115342 C 18.773333333333333 237.03906018115345, 19.047333333333334 237.15439351448674, 19.23 237.38506018115342 C 19.412666666666667 237.61572684782004, 19.514666666666663 237.92972684782006, 19.535999999999998 238.3270601811534 C 19.546666666666667 238.48706018115342, 19.55333333333333 238.64572684782007, 19.555999999999997 238.8030601811534 C 19.558666666666664 238.96039351448673, 19.557333333333332 239.1137268478201, 19.552 239.2630601811534 C 19.546666666666667 239.41239351448672, 19.538666666666668 239.55239351448674, 19.528 239.68306018115342 C 19.482666666666667 240.18172684782007, 19.353333333333335 240.5470601811534, 19.14 240.7790601811534 C 18.926666666666666 241.0110601811534, 18.581333333333333 241.14172684782005, 18.104 241.17106018115342 L 18.104 240.2790601811534 C 18.21333333333333 240.24972684782006, 18.296 240.1970601811534, 18.352 240.1210601811534 C 18.408 240.04506018115342, 18.44 239.94572684782008, 18.448 239.8230601811534 C 18.471999999999998 239.53239351448673, 18.485999999999997 239.27106018115342, 18.49 239.03906018115342 C 18.494 238.80706018115342, 18.485333333333333 238.58572684782007, 18.464 238.3750601811534 C 18.447999999999997 238.22039351448674, 18.396666666666665 238.10506018115342, 18.31 238.0290601811534 C 18.223333333333333 237.95306018115343, 18.090666666666664 237.91506018115342, 17.912 237.91506018115342 C 17.901333333333334 237.91506018115342, 17.890666666666668 237.91639351448674, 17.88 237.9190601811534 C 17.86933333333333 237.92172684782008, 17.86 237.92439351448672, 17.852 237.92706018115342 Z M 17.852 235.63506018115342 L 17.852 234.7030601811534 L 19.439999999999998 234.7030601811534 L 19.439999999999998 235.63506018115342 Z M 21.944 241.1030601811534 L 21.944 234.7030601811534 L 23.003999999999998 234.7030601811534 L 23.003999999999998 241.1030601811534 Z " stroke="none" fill-rule="nonzero" fill="#000000" fill-opacity="1" transform="matrix(1,0,0,1,5.05,13.314)" id="text25 l" />
  <path d="M 0 232.43693777390726 L 10 232.43693777390726 L 10 233.93693777390726 L 0 233.93693777390726 Z " stroke="none" fill-rule="evenodd" fill="#000000" fill-opacity="1" transform="matrix(1,0,0,1,5.05,13.314)" id="mark26 l" />
  <path d="M 0 222.7208153666611 L 10 222.7208153666611 L 10 224.2208153666611 L 0 224.2208153666611 Z " stroke="none" fill-rule="evenodd" fill="#000000" fill-opacity="1" transform="matrix(1,0,0,1,5.05,13.314)" id="mark27 l" />
  <path d="M 0 213.00469295941497 L 10 213.00469295941497 L 10 214.50469295941497 L 0 214.50469295941497 Z " stroke="none" fill-rule="evenodd" fill="#000000" fill-opacity="1" transform="matrix(1,0,0,1,5.05,13.314)" id="mark28 l" />
  <path d="M 0 203.28857055216884 L 10 203.28857055216884 L 10 204.78857055216884 L 0 204.78857055216884 Z " stroke="none" fill-rule="evenodd" fill="#000000" fill-opacity="1" transform="matrix(1,0,0,1,5.05,13.314)" id="mark29 l" />
  <path d="M 0 193.5724481449227 L 25 193.5724481449227 L 25 195.0724481449227 L 0 195.0724481449227 Z " stroke="none" fill-rule="evenodd" fill="#000000" fill-opacity="1" transform="matrix(1,0,0,1,5.05,13.314)" id="mark30 l" />
  <path d="M 12.223999999999998 191.10644814492272 C 12.221333333333334 191.00511481158938, 12.219333333333333 190.92111481158938, 12.218 190.8544481449227 C 12.216666666666667 190.78778147825605, 12.216666666666667 190.71978147825607, 12.218 190.65044814492273 C 12.219333333333333 190.5811148115894, 12.221333333333334 190.49178147825606, 12.223999999999998 190.38244814492273 L 13.303999999999998 190.38244814492273 L 13.303999999999998 191.2464481449227 C 13.303999999999998 191.48378147825605, 13.417333333333332 191.63444814492271, 13.643999999999998 191.6984481449227 L 13.643999999999998 192.59044814492273 C 13.155999999999999 192.5531148115894, 12.800666666666665 192.4184481449227, 12.578 192.1864481449227 C 12.355333333333334 191.9544481449227, 12.237333333333332 191.59444814492272, 12.223999999999998 191.10644814492272 Z M 12.292 187.05444814492273 L 12.292 186.1224481449227 L 15.536 186.1224481449227 L 15.536 187.05444814492273 Z M 14.143999999999998 191.70244814492273 C 14.367999999999999 191.64644814492272, 14.483999999999998 191.49578147825605, 14.491999999999999 191.25044814492273 C 14.497333333333334 191.04778147825607, 14.500666666666666 190.8651148115894, 14.501999999999999 190.70244814492273 C 14.503333333333332 190.53978147825606, 14.498666666666665 190.3824481449227, 14.488 190.23044814492272 C 14.48 190.0731148115894, 14.431999999999999 189.93978147825607, 14.344 189.8304481449227 C 14.256 189.7211148115894, 14.089333333333332 189.6691148115894, 13.844 189.6744481449227 L 13.096 189.68244814492272 L 13.068 188.79044814492272 L 14.027999999999999 187.4064481449227 L 15.216 187.4064481449227 L 14.248 188.7584481449227 L 14.28 188.7584481449227 C 14.712 188.7584481449227, 15.028666666666666 188.88111481158938, 15.229999999999999 189.12644814492273 C 15.431333333333333 189.37178147825608, 15.544 189.74911481158938, 15.568 190.2584481449227 C 15.57333333333333 190.3304481449227, 15.576666666666664 190.40244814492272, 15.578 190.47444814492272 C 15.57933333333333 190.54644814492272, 15.579999999999998 190.61711481158937, 15.579999999999998 190.6864481449227 C 15.579999999999998 190.75578147825604, 15.57933333333333 190.82511481158937, 15.578 190.8944481449227 C 15.576666666666664 190.96378147825604, 15.57333333333333 191.03444814492272, 15.568 191.10644814492272 C 15.549333333333333 191.60244814492273, 15.428666666666665 191.9671148115894, 15.206 192.20044814492272 C 14.983333333333334 192.43378147825604, 14.630666666666666 192.56378147825603, 14.148 192.59044814492273 Z M 16.196 191.1104481449227 C 16.188000000000002 190.68111481158937, 16.182666666666666 190.2644481449227, 16.18 189.8604481449227 C 16.177333333333333 189.45644814492272, 16.177999999999997 189.0611148115894, 16.182 188.6744481449227 C 16.186 188.28778147825605, 16.190666666666665 187.90644814492273, 16.196 187.53044814492273 C 16.209333333333333 187.09044814492273, 16.334000000000003 186.7451148115894, 16.57 186.49444814492273 C 16.805999999999997 186.24378147825607, 17.142666666666663 186.0984481449227, 17.58 186.05844814492272 L 17.58 186.94644814492273 C 17.382666666666665 187.00244814492274, 17.281333333333333 187.13178147825607, 17.276 187.33444814492273 C 17.262666666666668 187.7051148115894, 17.253333333333334 188.05311481158938, 17.248 188.37844814492271 C 17.242666666666665 188.70378147825605, 17.24 189.0204481449227, 17.24 189.32844814492273 C 17.24 189.63644814492272, 17.242666666666665 189.95111481158938, 17.248 190.27244814492272 C 17.253333333333334 190.59378147825606, 17.262666666666668 190.9371148115894, 17.276 191.30244814492272 C 17.281333333333333 191.51044814492272, 17.382666666666665 191.64244814492272, 17.58 191.6984481449227 L 17.58 192.5864481449227 C 17.142666666666663 192.5464481449227, 16.805999999999997 192.40044814492273, 16.57 192.14844814492272 C 16.334000000000003 191.89644814492272, 16.209333333333333 191.5504481449227, 16.196 191.1104481449227 Z M 18.084 192.5864481449227 L 18.084 191.69444814492272 C 18.268 191.64111481158938, 18.366666666666667 191.5171148115894, 18.38 191.32244814492273 C 18.398666666666667 190.85578147825606, 18.410666666666668 190.4071148115894, 18.416 189.97644814492273 C 18.421333333333333 189.54578147825606, 18.421333333333333 189.11511481158936, 18.416 188.68444814492273 C 18.410666666666668 188.25378147825603, 18.398666666666667 187.80111481158937, 18.38 187.32644814492272 C 18.374666666666666 187.13178147825604, 18.276 187.00511481158938, 18.084 186.94644814492273 L 18.084 186.05844814492272 C 18.513333333333335 186.0984481449227, 18.846666666666668 186.24378147825607, 19.084 186.49444814492273 C 19.321333333333335 186.7451148115894, 19.445333333333334 187.09044814492273, 19.456 187.53044814492273 C 19.46666666666667 187.84511481158938, 19.474666666666668 188.15511481158939, 19.48 188.4604481449227 C 19.485333333333333 188.76578147825603, 19.488 189.06644814492273, 19.488 189.36244814492272 C 19.488 189.65844814492272, 19.485333333333333 189.95178147825604, 19.48 190.24244814492272 C 19.474666666666668 190.5331148115894, 19.46666666666667 190.82244814492273, 19.456 191.1104481449227 C 19.439999999999998 191.5611148115894, 19.311999999999998 191.90978147825604, 19.072 192.1564481449227 C 18.832 192.40311481158938, 18.502666666666666 192.5464481449227, 18.084 192.5864481449227 Z M 21.944 192.52244814492272 L 21.944 186.1224481449227 L 23.003999999999998 186.1224481449227 L 23.003999999999998 192.52244814492272 Z " stroke="none" fill-rule="nonzero" fill="#000000" fill-opacity="1" transform="matrix(1,0,0,1,5.05,13.314)" id="text30 l" />
  <path d="M 0 183.85632573767657 L 10 183.85632573767657 L 10 185.35632573767657 L 0 185.35632573767657 Z " stroke="none" fill-rule="evenodd" fill="#000000" fill-opacity="1" transform="matrix(1,0,0,1,5.05,13.314)" id="mark31 l" />
  <path d="M 0 174.14020333043044 L 10 174.14020333043044 L 10 175.64020333043044 L 0 175.64020333043044 Z " stroke="none" fill-rule="evenodd" fill="#000000" fill-opacity="1" transform="matrix(1,0,0,1,5.05,13.314)" id="mark32 l" />
  <path d="M 0 164.4240809231843 L 10 164.4240809231843 L 10 165.9240809231843 L 0 165.9240809231843 Z " stroke="none" fill-rule="evenodd" fill="#000000" fill-opacity="1" transform="matrix(1,0,0,1,5.05,13.314)" id="mark33 l" />
  <path d="M 0 154.70795851593817 L 10 154.70795851593817 L 10 156.20795851593817 L 0 156.20795851593817 Z " stroke="none" fill-rule="evenodd" fill="#000000" fill-opacity="1" transform="matrix(1,0,0,1,5.05,13.314)" id="mark34 l" />
  <path d="M 0 144.99183610869204 L 25 144.99183610869204 L 25 146.49183610869204 L 0 146.49183610869204 Z " stroke="none" fill-rule="evenodd" fill="#000000" fill-opacity="1" transform="matrix(1,0,0,1,5.05,13.314)" id="mark35 l" />
  <path d="M 12.232 142.49383610869205 C 12.229333333333333 142.3925027753587, 12.227333333333334 142.3085027753587, 12.226 142.24183610869204 C 12.224666666666668 142.17516944202538, 12.224666666666668 142.10716944202537, 12.226 142.03783610869203 C 12.227333333333334 141.9685027753587, 12.229333333333333 141.8791694420254, 12.232 141.76983610869206 L 13.312 141.76983610869206 L 13.312 142.63383610869204 C 13.312 142.87116944202538, 13.425333333333333 143.02183610869204, 13.652 143.08583610869204 L 13.652 143.97783610869206 C 13.164 143.9405027753587, 12.808666666666667 143.80583610869203, 12.586 143.57383610869203 C 12.363333333333333 143.34183610869204, 12.245333333333335 142.98183610869205, 12.232 142.49383610869205 Z M 12.3 138.44183610869206 L 12.3 137.50983610869204 L 15.544 137.50983610869204 L 15.544 138.44183610869206 Z M 14.152000000000001 143.08983610869205 C 14.376000000000001 143.03383610869204, 14.492 142.88316944202538, 14.5 142.63783610869206 C 14.505333333333333 142.4351694420254, 14.508666666666667 142.25250277535872, 14.51 142.08983610869205 C 14.511333333333333 141.9271694420254, 14.506666666666668 141.76983610869206, 14.496 141.61783610869205 C 14.488 141.46050277535872, 14.440000000000001 141.32716944202537, 14.352 141.21783610869204 C 14.264 141.10850277535872, 14.097333333333335 141.05650277535872, 13.852 141.06183610869203 L 13.104 141.06983610869204 L 13.076 140.17783610869205 L 14.036 138.79383610869206 L 15.224 138.79383610869206 L 14.256 140.14583610869204 L 14.288 140.14583610869204 C 14.719999999999999 140.14583610869204, 15.036666666666665 140.2685027753587, 15.238 140.51383610869206 C 15.439333333333334 140.75916944202538, 15.552 141.1365027753587, 15.576 141.64583610869204 C 15.581333333333333 141.71783610869204, 15.584666666666667 141.78983610869204, 15.586 141.86183610869205 C 15.587333333333333 141.93383610869205, 15.588000000000001 142.0045027753587, 15.588000000000001 142.07383610869203 C 15.588000000000001 142.14316944202537, 15.587333333333333 142.2125027753587, 15.586 142.28183610869206 C 15.584666666666667 142.35116944202537, 15.581333333333333 142.42183610869205, 15.576 142.49383610869205 C 15.557333333333334 142.98983610869206, 15.436666666666667 143.35450277535872, 15.214 143.58783610869204 C 14.991333333333333 143.82116944202537, 14.638666666666666 143.9511694420254, 14.156 143.97783610869206 Z M 16.18 142.49383610869205 C 16.174666666666667 142.32050277535873, 16.173333333333332 142.1811694420254, 16.176 142.07583610869204 C 16.178666666666665 141.97050277535874, 16.181333333333335 141.86850277535873, 16.183999999999997 141.76983610869206 L 17.264 141.76983610869206 C 17.256 141.84716944202538, 17.25 141.94316944202538, 17.246 142.05783610869204 C 17.241999999999997 142.1725027753587, 17.240666666666666 142.28316944202538, 17.241999999999997 142.38983610869204 C 17.243333333333332 142.4965027753587, 17.246666666666666 142.5765027753587, 17.252 142.62983610869205 C 17.262666666666668 142.74983610869205, 17.297333333333334 142.84783610869204, 17.355999999999998 142.92383610869206 C 17.414666666666665 142.99983610869202, 17.497333333333334 143.05383610869202, 17.604 143.08583610869204 L 17.604 143.97783610869206 C 17.110666666666663 143.9405027753587, 16.75333333333333 143.80583610869203, 16.532 143.57383610869203 C 16.310666666666666 143.34183610869204, 16.19333333333333 142.98183610869205, 16.18 142.49383610869205 Z M 16.279999999999998 141.15783610869204 L 16.279999999999998 137.50983610869204 L 17.348 137.50983610869204 L 17.348 141.15783610869204 Z M 17.852 140.73383610869206 L 17.852 139.97783610869206 C 17.929333333333332 139.93783610869207, 18.014666666666667 139.90583610869206, 18.107999999999997 139.88183610869206 C 18.20133333333333 139.85783610869206, 18.301333333333332 139.84583610869205, 18.407999999999998 139.84583610869205 C 18.773333333333333 139.84583610869205, 19.047333333333334 139.96116944202538, 19.23 140.19183610869206 C 19.412666666666667 140.4225027753587, 19.514666666666663 140.7365027753587, 19.535999999999998 141.13383610869204 C 19.546666666666667 141.29383610869203, 19.55333333333333 141.4525027753587, 19.555999999999997 141.60983610869204 C 19.558666666666664 141.7671694420254, 19.557333333333332 141.92050277535873, 19.552 142.06983610869204 C 19.546666666666667 142.21916944202536, 19.538666666666668 142.35916944202538, 19.528 142.48983610869206 C 19.482666666666667 142.9885027753587, 19.353333333333335 143.35383610869206, 19.14 143.58583610869204 C 18.926666666666666 143.81783610869206, 18.581333333333333 143.94850277535872, 18.104 143.97783610869206 L 18.104 143.08583610869204 C 18.21333333333333 143.05650277535872, 18.296 143.00383610869204, 18.352 142.92783610869205 C 18.408 142.85183610869205, 18.44 142.75250277535872, 18.448 142.62983610869205 C 18.471999999999998 142.33916944202537, 18.485999999999997 142.07783610869205, 18.49 141.84583610869205 C 18.494 141.61383610869206, 18.485333333333333 141.3925027753587, 18.464 141.18183610869204 C 18.447999999999997 141.02716944202535, 18.396666666666665 140.91183610869203, 18.31 140.83583610869204 C 18.223333333333333 140.75983610869204, 18.090666666666664 140.72183610869206, 17.912 140.72183610869206 C 17.901333333333334 140.72183610869206, 17.890666666666668 140.72316944202538, 17.88 140.72583610869205 C 17.86933333333333 140.72850277535872, 17.86 140.7311694420254, 17.852 140.73383610869206 Z M 17.852 138.44183610869206 L 17.852 137.50983610869204 L 19.439999999999998 137.50983610869204 L 19.439999999999998 138.44183610869206 Z M 21.944 143.90983610869205 L 21.944 137.50983610869204 L 23.003999999999998 137.50983610869204 L 23.003999999999998 143.90983610869205 Z " stroke="none" fill-rule="nonzero" fill="#000000" fill-opacity="1" transform="matrix(1,0,0,1,5.05,13.314)" id="text35 l" />
  <path d="M 0 135.2757137014459 L 10 135.2757137014459 L 10 136.7757137014459 L 0 136.7757137014459 Z " stroke="none" fill-rule="evenodd" fill="#000000" fill-opacity="1" transform="matrix(1,0,0,1,5.05,13.314)" id="mark36 l" />
  <path d="M 0 125.55959129419978 L 10 125.55959129419978 L 10 127.05959129419978 L 0 127.05959129419978 Z " stroke="none" fill-rule="evenodd" fill="#000000" fill-opacity="1" transform="matrix(1,0,0,1,5.05,13.314)" id="mark37 l" />
  <path d="M 0 115.84346888695359 L 10 115.84346888695359 L 10 117.34346888695359 L 0 117.34346888695359 Z " stroke="none" fill-rule="evenodd" fill="#000000" fill-opacity="1" transform="matrix(1,0,0,1,5.05,13.314)" id="mark38 l" />
  <path d="M 0 106.12734647970746 L 10 106.12734647970746 L 10 107.62734647970746 L 0 107.62734647970746 Z " stroke="none" fill-rule="evenodd" fill="#000000" fill-opacity="1" transform="matrix(1,0,0,1,5.05,13.314)" id="mark39 l" />
  <path d="M 0 96.41122407246132 L 25 96.41122407246132 L 25 97.91122407246132 L 0 97.91122407246132 Z " stroke="none" fill-rule="evenodd" fill="#000000" fill-opacity="1" transform="matrix(1,0,0,1,5.05,13.314)" id="mark40 l" />
  <path d="M 11.739999999999998 93.67722407246133 L 11.739999999999998 92.80122407246132 L 12.455999999999998 90.92122407246133 L 13.495999999999999 90.92122407246133 L 12.771999999999998 92.75322407246132 L 13.171999999999997 92.75322407246132 L 13.171999999999997 93.67722407246133 Z M 13.675999999999998 95.36122407246133 L 13.675999999999998 88.96122407246132 L 14.683999999999997 88.96122407246132 L 14.683999999999997 95.36122407246133 Z M 15.187999999999999 93.67722407246133 L 15.187999999999999 92.75322407246132 L 15.655999999999999 92.75322407246132 L 15.655999999999999 93.67722407246133 Z M 16.195999999999998 93.94922407246132 C 16.188 93.51989073912799, 16.182666666666666 93.10322407246133, 16.18 92.69922407246132 C 16.177333333333333 92.29522407246132, 16.177999999999997 91.89989073912798, 16.182 91.51322407246133 C 16.186 91.12655740579467, 16.190666666666665 90.74522407246133, 16.195999999999998 90.36922407246132 C 16.20933333333333 89.92922407246132, 16.333999999999996 89.583890739128, 16.569999999999997 89.33322407246132 C 16.805999999999997 89.08255740579466, 17.142666666666663 88.93722407246133, 17.58 88.89722407246133 L 17.58 89.78522407246133 C 17.382666666666665 89.84122407246133, 17.281333333333333 89.97055740579465, 17.275999999999996 90.17322407246132 C 17.262666666666664 90.54389073912799, 17.25333333333333 90.89189073912799, 17.247999999999998 91.21722407246132 C 17.242666666666665 91.54255740579465, 17.24 91.85922407246132, 17.24 92.16722407246132 C 17.24 92.47522407246133, 17.242666666666665 92.789890739128, 17.247999999999998 93.11122407246133 C 17.25333333333333 93.43255740579465, 17.262666666666664 93.77589073912799, 17.275999999999996 94.14122407246133 C 17.281333333333333 94.34922407246133, 17.382666666666665 94.48122407246133, 17.58 94.53722407246133 L 17.58 95.42522407246132 C 17.142666666666663 95.38522407246133, 16.805999999999997 95.23922407246133, 16.569999999999997 94.98722407246133 C 16.333999999999996 94.73522407246134, 16.20933333333333 94.38922407246133, 16.195999999999998 93.94922407246132 Z M 18.084 95.42522407246132 L 18.084 94.53322407246132 C 18.268 94.479890739128, 18.366666666666667 94.355890739128, 18.38 94.16122407246132 C 18.398666666666664 93.69455740579465, 18.410666666666664 93.24589073912799, 18.415999999999997 92.81522407246132 C 18.42133333333333 92.38455740579465, 18.42133333333333 91.953890739128, 18.415999999999997 91.52322407246133 C 18.410666666666664 91.09255740579466, 18.398666666666664 90.63989073912799, 18.38 90.16522407246133 C 18.374666666666666 89.97055740579466, 18.276 89.843890739128, 18.084 89.78522407246133 L 18.084 88.89722407246133 C 18.513333333333332 88.93722407246133, 18.846666666666664 89.08255740579466, 19.083999999999996 89.33322407246132 C 19.32133333333333 89.583890739128, 19.44533333333333 89.92922407246132, 19.456 90.36922407246132 C 19.466666666666665 90.68389073912799, 19.474666666666664 90.99389073912799, 19.479999999999997 91.29922407246133 C 19.48533333333333 91.60455740579467, 19.488 91.90522407246132, 19.488 92.20122407246133 C 19.488 92.49722407246134, 19.48533333333333 92.79055740579466, 19.479999999999997 93.08122407246132 C 19.474666666666664 93.37189073912799, 19.466666666666665 93.66122407246132, 19.456 93.94922407246132 C 19.439999999999998 94.39989073912798, 19.311999999999998 94.74855740579466, 19.072 94.99522407246133 C 18.831999999999997 95.241890739128, 18.502666666666663 95.38522407246133, 18.084 95.42522407246132 Z M 21.944 95.36122407246133 L 21.944 88.96122407246132 L 23.003999999999998 88.96122407246132 L 23.003999999999998 95.36122407246133 Z " stroke="none" fill-rule="nonzero" fill="#000000" fill-opacity="1" transform="matrix(1,0,0,1,5.05,13.314)" id="text40 l" />
  <path d="M 0 86.69510166521519 L 10 86.69510166521519 L 10 88.19510166521519 L 0 88.19510166521519 Z " stroke="none" fill-rule="evenodd" fill="#000000" fill-opacity="1" transform="matrix(1,0,0,1,5.05,13.314)" id="mark41 l" />
  <path d="M 0 76.97897925796906 L 10 76.97897925796906 L 10 78.47897925796906 L 0 78.47897925796906 Z " stroke="none" fill-rule="evenodd" fill="#000000" fill-opacity="1" transform="matrix(1,0,0,1,5.05,13.314)" id="mark42 l" />
  <path d="M 0 67.26285685072293 L 10 67.26285685072293 L 10 68.76285685072293 L 0 68.76285685072293 Z " stroke="none" fill-rule="evenodd" fill="#000000" fill-opacity="1" transform="matrix(1,0,0,1,5.05,13.314)" id="mark43 l" />
  <path d="M 0 57.546734443476794 L 10 57.546734443476794 L 10 59.046734443476794 L 0 59.046734443476794 Z " stroke="none" fill-rule="evenodd" fill="#000000" fill-opacity="1" transform="matrix(1,0,0,1,5.05,13.314)" id="mark44 l" />
  <path d="M 0 47.83061203623066 L 25 47.83061203623066 L 25 49.33061203623066 L 0 49.33061203623066 Z " stroke="none" fill-rule="evenodd" fill="#000000" fill-opacity="1" transform="matrix(1,0,0,1,5.05,13.314)" id="mark45 l" />
  <path d="M 11.748 45.06461203623066 L 11.748 44.18861203623066 L 12.463999999999999 42.30861203623066 L 13.503999999999998 42.30861203623066 L 12.78 44.140612036230664 L 13.18 44.140612036230664 L 13.18 45.06461203623066 Z M 13.684 46.74861203623066 L 13.684 40.34861203623066 L 14.691999999999998 40.34861203623066 L 14.691999999999998 46.74861203623066 Z M 15.195999999999998 45.06461203623066 L 15.195999999999998 44.140612036230664 L 15.663999999999998 44.140612036230664 L 15.663999999999998 45.06461203623066 Z M 16.18 45.332612036230664 C 16.174666666666667 45.159278702897325, 16.173333333333332 45.01994536956399, 16.176 44.91461203623066 C 16.178666666666665 44.80927870289733, 16.181333333333335 44.70727870289733, 16.183999999999997 44.60861203623066 L 17.264 44.60861203623066 C 17.256 44.685945369563996, 17.25 44.78194536956399, 17.246 44.896612036230664 C 17.241999999999997 45.01127870289733, 17.240666666666666 45.12194536956399, 17.241999999999997 45.22861203623066 C 17.243333333333332 45.33527870289733, 17.246666666666666 45.415278702897325, 17.252 45.46861203623066 C 17.262666666666668 45.58861203623066, 17.297333333333334 45.68661203623066, 17.355999999999998 45.762612036230664 C 17.414666666666665 45.838612036230664, 17.497333333333334 45.89261203623066, 17.604 45.92461203623066 L 17.604 46.81661203623066 C 17.110666666666663 46.77927870289733, 16.75333333333333 46.64461203623066, 16.532 46.41261203623066 C 16.310666666666666 46.18061203623066, 16.19333333333333 45.82061203623066, 16.18 45.332612036230664 Z M 16.279999999999998 43.99661203623066 L 16.279999999999998 40.34861203623066 L 17.348 40.34861203623066 L 17.348 43.99661203623066 Z M 17.852 43.57261203623066 L 17.852 42.81661203623066 C 17.929333333333332 42.77661203623066, 18.014666666666667 42.74461203623066, 18.107999999999997 42.72061203623066 C 18.20133333333333 42.69661203623066, 18.301333333333332 42.68461203623066, 18.407999999999998 42.68461203623066 C 18.773333333333333 42.68461203623066, 19.047333333333334 42.79994536956399, 19.23 43.030612036230664 C 19.412666666666667 43.26127870289733, 19.514666666666663 43.57527870289732, 19.535999999999998 43.97261203623066 C 19.546666666666667 44.132612036230654, 19.55333333333333 44.29127870289733, 19.555999999999997 44.448612036230664 C 19.558666666666664 44.605945369564, 19.557333333333332 44.759278702897326, 19.552 44.90861203623066 C 19.546666666666667 45.057945369563996, 19.538666666666668 45.197945369563996, 19.528 45.32861203623066 C 19.482666666666667 45.82727870289733, 19.353333333333335 46.19261203623066, 19.14 46.42461203623066 C 18.926666666666666 46.65661203623066, 18.581333333333333 46.787278702897325, 18.104 46.81661203623066 L 18.104 45.92461203623066 C 18.21333333333333 45.89527870289733, 18.296 45.84261203623066, 18.352 45.76661203623066 C 18.408 45.69061203623066, 18.44 45.59127870289733, 18.448 45.46861203623066 C 18.471999999999998 45.17794536956399, 18.485999999999997 44.91661203623066, 18.49 44.68461203623066 C 18.494 44.45261203623066, 18.485333333333333 44.23127870289733, 18.464 44.02061203623066 C 18.447999999999997 43.865945369563995, 18.396666666666665 43.75061203623066, 18.31 43.67461203623066 C 18.223333333333333 43.59861203623066, 18.090666666666664 43.56061203623066, 17.912 43.56061203623066 C 17.901333333333334 43.56061203623066, 17.890666666666668 43.56194536956399, 17.88 43.56461203623066 C 17.86933333333333 43.567278702897326, 17.86 43.569945369563996, 17.852 43.57261203623066 Z M 17.852 41.280612036230664 L 17.852 40.34861203623066 L 19.439999999999998 40.34861203623066 L 19.439999999999998 41.280612036230664 Z M 21.944 46.74861203623066 L 21.944 40.34861203623066 L 23.003999999999998 40.34861203623066 L 23.003999999999998 46.74861203623066 Z " stroke="none" fill-rule="nonzero" fill="#000000" fill-opacity="1" transform="matrix(1,0,0,1,5.05,13.314)" id="text45 l" />
  <path d="M 0 38.11448962898453 L 10 38.11448962898453 L 10 39.61448962898453 L 0 39.61448962898453 Z " stroke="none" fill-rule="evenodd" fill="#000000" fill-opacity="1" transform="matrix(1,0,0,1,5.05,13.314)" id="mark46 l" />
  <path d="M 0 28.398367221738397 L 10 28.398367221738397 L 10 29.898367221738397 L 0 29.898367221738397 Z " stroke="none" fill-rule="evenodd" fill="#000000" fill-opacity="1" transform="matrix(1,0,0,1,5.05,13.314)" id="mark47 l" />
  <path d="M 0 18.682244814492265 L 10 18.682244814492265 L 10 20.182244814492265 L 0 20.182244814492265 Z " stroke="none" fill-rule="evenodd" fill="#000000" fill-opacity="1" transform="matrix(1,0,0,1,5.05,13.314)" id="mark48 l" />
  <path d="M 0 8.966122407246132 L 10 8.966122407246132 L 10 10.466122407246132 L 0 10.466122407246132 Z " stroke="none" fill-rule="evenodd" fill="#000000" fill-opacity="1" transform="matrix(1,0,0,1,5.05,13.314)" id="mark49 l" />
  <path d="M 0 -0.75 L 25 -0.75 L 25 0.75 L 0 0.75 Z " stroke="none" fill-rule="evenodd" fill="#000000" fill-opacity="1" transform="matrix(1,0,0,1,5.05,13.314)" id="mark50 l" />
  <path d="M 12.204 -3.2159999999999997 C 12.198666666666668 -3.389333333333333, 12.197333333333333 -3.528666666666667, 12.2 -3.634 C 12.202666666666667 -3.7393333333333336, 12.205333333333336 -3.841333333333333, 12.208 -3.94 L 13.288 -3.94 C 13.280000000000001 -3.8626666666666667, 13.274000000000001 -3.7666666666666666, 13.27 -3.6519999999999997 C 13.265999999999998 -3.5373333333333328, 13.264666666666667 -3.4266666666666667, 13.266 -3.32 C 13.267333333333333 -3.213333333333334, 13.270666666666667 -3.1333333333333337, 13.276 -3.08 C 13.286666666666665 -2.96, 13.321333333333332 -2.862, 13.379999999999999 -2.7859999999999996 C 13.438666666666666 -2.71, 13.521333333333335 -2.6559999999999997, 13.628 -2.6239999999999997 L 13.628 -1.7319999999999998 C 13.134666666666668 -1.7693333333333332, 12.777333333333335 -1.904, 12.556 -2.1359999999999997 C 12.334666666666667 -2.368, 12.217333333333332 -2.7279999999999998, 12.204 -3.2159999999999997 Z M 12.304 -4.552 L 12.304 -8.2 L 13.372 -8.2 L 13.372 -4.552 Z M 13.876 -4.976 L 13.876 -5.731999999999999 C 13.953333333333333 -5.771999999999999, 14.038666666666668 -5.804, 14.132 -5.828 C 14.225333333333333 -5.852, 14.325333333333333 -5.864, 14.432 -5.864 C 14.797333333333334 -5.864, 15.071333333333332 -5.748666666666667, 15.254 -5.518 C 15.436666666666667 -5.287333333333333, 15.538666666666668 -4.973333333333333, 15.56 -4.576 C 15.570666666666668 -4.416, 15.577333333333334 -4.257333333333333, 15.58 -4.1 C 15.582666666666666 -3.9426666666666668, 15.581333333333333 -3.7893333333333334, 15.576 -3.6399999999999997 C 15.570666666666666 -3.490666666666667, 15.562666666666665 -3.3506666666666667, 15.552 -3.2199999999999998 C 15.506666666666668 -2.721333333333333, 15.377333333333333 -2.356, 15.164 -2.1239999999999997 C 14.950666666666667 -1.892, 14.605333333333332 -1.7613333333333332, 14.128 -1.7319999999999998 L 14.128 -2.6239999999999997 C 14.237333333333334 -2.653333333333333, 14.32 -2.7059999999999995, 14.376 -2.782 C 14.432 -2.8579999999999997, 14.464 -2.957333333333333, 14.472 -3.08 C 14.495999999999999 -3.3706666666666667, 14.509999999999998 -3.6319999999999997, 14.514 -3.864 C 14.518 -4.096, 14.509333333333334 -4.317333333333333, 14.488 -4.5280000000000005 C 14.472000000000001 -4.682666666666667, 14.420666666666666 -4.798, 14.334 -4.874 C 14.247333333333334 -4.949999999999999, 14.114666666666666 -4.9879999999999995, 13.936 -4.9879999999999995 C 13.925333333333333 -4.9879999999999995, 13.914666666666665 -4.986666666666666, 13.904 -4.984 C 13.893333333333334 -4.981333333333334, 13.884 -4.978666666666667, 13.876 -4.976 Z M 13.876 -7.268 L 13.876 -8.2 L 15.464 -8.2 L 15.464 -7.268 Z M 16.196 -3.2119999999999997 C 16.188000000000002 -3.641333333333333, 16.182666666666666 -4.058, 16.18 -4.462 C 16.177333333333333 -4.866, 16.177999999999997 -5.261333333333333, 16.182 -5.648 C 16.186 -6.034666666666666, 16.190666666666665 -6.416, 16.196 -6.792 C 16.209333333333333 -7.231999999999999, 16.334000000000003 -7.577333333333334, 16.57 -7.828 C 16.805999999999997 -8.078666666666667, 17.142666666666663 -8.224, 17.58 -8.264 L 17.58 -7.3759999999999994 C 17.382666666666665 -7.32, 17.281333333333333 -7.190666666666667, 17.276 -6.9879999999999995 C 17.262666666666668 -6.617333333333333, 17.253333333333334 -6.269333333333333, 17.248 -5.944 C 17.242666666666665 -5.618666666666666, 17.24 -5.302, 17.24 -4.994 C 17.24 -4.686, 17.242666666666665 -4.371333333333333, 17.248 -4.05 C 17.253333333333334 -3.7286666666666664, 17.262666666666668 -3.3853333333333326, 17.276 -3.0199999999999996 C 17.281333333333333 -2.812, 17.382666666666665 -2.6799999999999997, 17.58 -2.6239999999999997 L 17.58 -1.7359999999999998 C 17.142666666666663 -1.7759999999999998, 16.805999999999997 -1.9219999999999997, 16.57 -2.174 C 16.334000000000003 -2.4259999999999997, 16.209333333333333 -2.772, 16.196 -3.2119999999999997 Z M 18.084 -1.7359999999999998 L 18.084 -2.6279999999999997 C 18.268 -2.681333333333333, 18.366666666666667 -2.8053333333333335, 18.38 -3 C 18.398666666666667 -3.4666666666666663, 18.410666666666668 -3.915333333333333, 18.416 -4.346 C 18.421333333333333 -4.776666666666666, 18.421333333333333 -5.207333333333333, 18.416 -5.638 C 18.410666666666668 -6.068666666666666, 18.398666666666667 -6.521333333333333, 18.38 -6.9959999999999996 C 18.374666666666666 -7.190666666666667, 18.276 -7.317333333333334, 18.084 -7.3759999999999994 L 18.084 -8.264 C 18.513333333333335 -8.224, 18.846666666666668 -8.078666666666667, 19.084 -7.828 C 19.321333333333335 -7.577333333333334, 19.445333333333334 -7.231999999999999, 19.456 -6.792 C 19.46666666666667 -6.477333333333332, 19.474666666666668 -6.167333333333333, 19.48 -5.861999999999999 C 19.485333333333333 -5.556666666666667, 19.488 -5.256, 19.488 -4.96 C 19.488 -4.664, 19.485333333333333 -4.370666666666667, 19.48 -4.08 C 19.474666666666668 -3.7893333333333334, 19.46666666666667 -3.5, 19.456 -3.2119999999999997 C 19.439999999999998 -2.761333333333333, 19.311999999999998 -2.4126666666666665, 19.072 -2.166 C 18.832 -1.9193333333333331, 18.502666666666666 -1.7759999999999998, 18.084 -1.7359999999999998 Z M 21.944 -1.7999999999999998 L 21.944 -8.2 L 23.003999999999998 -8.2 L 23.003999999999998 -1.7999999999999998 Z " stroke="none" fill-rule="nonzero" fill="#000000" fill-opacity="1" transform="matrix(1,0,0,1,5.05,13.314)" id="text50 l" />
  <path d="M -5 -13.264 L 30 -13.264 L 30 482.8579979550606 L -5 482.8579979550606 Z " stroke="#FF0000" stroke-opacity="1" stroke-width="0.1" stroke-linecap="butt" stroke-linejoin="miter" fill="none" transform="matrix(1,0,0,1,5.05,13.314)" />
</svg>