<?xml version="1.0" encoding="UTF-8"?>
<svg xmlns:xlink="http://www.w3.org/1999/xlink" viewBox="0 0 35.1 375.14680689685537" version="1.1" style="font-synthesis: none;" width="35.1mm" height="375.14680689685537mm" xmlns="http://www.w3.org/2000/svg">
  <defs />
  <style>	</style>
  <path d="M 0 0 L 35.1 0 L 35.1 375.14680689685537 L 0 375.14680689685537 Z " stroke="none" fill-rule="nonzero" fill="#FFFFFF" fill-opacity="1" transform="matrix(1,0,0,1,0,0)" />
  <path d="M 0 354.26480689685536 L 10 354.26480689685536 L 10 355.76480689685536 L 0 355.76480689685536 Z " stroke="none" fill-rule="evenodd" fill="#000000" fill-opacity="1" transform="matrix(1,0,0,1,5.05,13.314)" id="mark1 l" />
  <path d="M 0 348.24760677995954 L 10 348.24760677995954 L 10 349.74760677995954 L 0 349.74760677995954 Z " stroke="none" fill-rule="evenodd" fill="#000000" fill-opacity="1" transform="matrix(1,0,0,1,5.05,13.314)" id="mark2 l" />
  <path d="M 0 342.23040666306366 L 10 342.23040666306366 L 10 343.73040666306366 L 0 343.73040666306366 Z " stroke="none" fill-rule="evenodd" fill="#000000" fill-opacity="1" transform="matrix(1,0,0,1,5.05,13.314)" id="mark3 l" />
  <path d="M 0 336.21320654616784 L 10 336.21320654616784 L 10 337.71320654616784 L 0 337.71320654616784 Z " stroke="none" fill-rule="evenodd" fill="#000000" fill-opacity="1" transform="matrix(1,0,0,1,5.05,13.314)" id="mark4 l" />
  <path d="M 0 330.19600642927196 L 25 330.19600642927196 L 25 331.69600642927196 L 0 331.69600642927196 Z " stroke="none" fill-rule="evenodd" fill="#000000" fill-opacity="1" transform="matrix(1,0,0,1,5.05,13.314)" id="mark5 l" />
  <path d="M 16.18 327.69800642927197 C 16.174666666666667 327.5246730959386, 16.173333333333332 327.3853397626053, 16.176 327.28000642927196 C 16.178666666666665 327.1746730959386, 16.181333333333335 327.0726730959386, 16.183999999999997 326.974006429272 L 17.264 326.974006429272 C 17.256 327.0513397626053, 17.25 327.1473397626053, 17.246 327.262006429272 C 17.241999999999997 327.37667309593866, 17.240666666666666 327.4873397626053, 17.241999999999997 327.594006429272 C 17.243333333333332 327.70067309593867, 17.246666666666666 327.78067309593865, 17.252 327.834006429272 C 17.262666666666668 327.95400642927194, 17.297333333333334 328.05200642927196, 17.355999999999998 328.128006429272 C 17.414666666666665 328.204006429272, 17.497333333333334 328.258006429272, 17.604 328.29000642927195 L 17.604 329.18200642927195 C 17.110666666666663 329.14467309593863, 16.75333333333333 329.010006429272, 16.532 328.77800642927195 C 16.310666666666666 328.5460064292719, 16.19333333333333 328.18600642927197, 16.18 327.69800642927197 Z M 16.279999999999998 326.36200642927196 L 16.279999999999998 322.714006429272 L 17.348 322.714006429272 L 17.348 326.36200642927196 Z M 17.852 325.938006429272 L 17.852 325.18200642927195 C 17.929333333333332 325.14200642927193, 18.014666666666667 325.11000642927195, 18.107999999999997 325.08600642927195 C 18.20133333333333 325.06200642927195, 18.301333333333332 325.05000642927195, 18.407999999999998 325.05000642927195 C 18.773333333333333 325.05000642927195, 19.047333333333334 325.1653397626053, 19.23 325.39600642927195 C 19.412666666666667 325.6266730959386, 19.514666666666663 325.9406730959386, 19.535999999999998 326.33800642927196 C 19.546666666666667 326.498006429272, 19.55333333333333 326.65667309593863, 19.555999999999997 326.81400642927196 C 19.558666666666664 326.9713397626053, 19.557333333333332 327.12467309593865, 19.552 327.274006429272 C 19.546666666666667 327.42333976260534, 19.538666666666668 327.5633397626053, 19.528 327.69400642927195 C 19.482666666666667 328.19267309593863, 19.353333333333335 328.5580064292719, 19.14 328.79000642927195 C 18.926666666666666 329.022006429272, 18.581333333333333 329.1526730959386, 18.104 329.18200642927195 L 18.104 328.29000642927195 C 18.21333333333333 328.2606730959386, 18.296 328.20800642927196, 18.352 328.13200642927194 C 18.408 328.056006429272, 18.44 327.95667309593864, 18.448 327.834006429272 C 18.471999999999998 327.5433397626053, 18.485999999999997 327.282006429272, 18.49 327.05000642927195 C 18.494 326.818006429272, 18.485333333333333 326.5966730959386, 18.464 326.38600642927196 C 18.447999999999997 326.23133976260533, 18.396666666666665 326.116006429272, 18.31 326.04000642927195 C 18.223333333333333 325.964006429272, 18.090666666666664 325.926006429272, 17.912 325.926006429272 C 17.901333333333334 325.926006429272, 17.890666666666668 325.9273397626053, 17.88 325.93000642927194 C 17.86933333333333 325.93267309593864, 17.86 325.9353397626053, 17.852 325.938006429272 Z M 17.852 323.64600642927195 L 17.852 322.714006429272 L 19.439999999999998 322.714006429272 L 19.439999999999998 323.64600642927195 Z M 21.944 329.11400642927197 L 21.944 322.714006429272 L 23.003999999999998 322.714006429272 L 23.003999999999998 329.11400642927197 Z " stroke="none" fill-rule="nonzero" fill="#000000" fill-opacity="1" transform="matrix(1,0,0,1,5.05,13.314)" id="text5 l" />
  <path d="M 0 324.17880631237614 L 10 324.17880631237614 L 10 325.67880631237614 L 0 325.67880631237614 Z " stroke="none" fill-rule="evenodd" fill="#000000" fill-opacity="1" transform="matrix(1,0,0,1,5.05,13.314)" id="mark6 l" />
  <path d="M 0 318.16160619548026 L 10 318.16160619548026 L 10 319.66160619548026 L 0 319.66160619548026 Z " stroke="none" fill-rule="evenodd" fill="#000000" fill-opacity="1" transform="matrix(1,0,0,1,5.05,13.314)" id="mark7 l" />
  <path d="M 0 312.1444060785844 L 10 312.1444060785844 L 10 313.6444060785844 L 0 313.6444060785844 Z " stroke="none" fill-rule="evenodd" fill="#000000" fill-opacity="1" transform="matrix(1,0,0,1,5.05,13.314)" id="mark8 l" />
  <path d="M 0 306.12720596168856 L 10 306.12720596168856 L 10 307.62720596168856 L 0 307.62720596168856 Z " stroke="none" fill-rule="evenodd" fill="#000000" fill-opacity="1" transform="matrix(1,0,0,1,5.05,13.314)" id="mark9 l" />
  <path d="M 0 300.1100058447927 L 25 300.1100058447927 L 25 301.6100058447927 L 0 301.6100058447927 Z " stroke="none" fill-rule="evenodd" fill="#000000" fill-opacity="1" transform="matrix(1,0,0,1,5.05,13.314)" id="mark10 l" />
  <path d="M 14.323999999999998 299.06000584479267 L 14.323999999999998 293.61600584479265 L 13.871999999999998 293.61600584479265 L 13.839999999999998 293.23600584479266 L 14.543999999999999 292.6600058447927 L 15.424 292.6600058447927 L 15.424 299.06000584479267 Z M 16.196 297.6480058447927 C 16.188000000000002 297.2186725114594, 16.182666666666666 296.8020058447927, 16.18 296.3980058447927 C 16.177333333333333 295.9940058447927, 16.177999999999997 295.59867251145937, 16.182 295.21200584479266 C 16.186 294.825339178126, 16.190666666666665 294.4440058447927, 16.196 294.06800584479265 C 16.209333333333333 293.62800584479265, 16.334000000000003 293.28267251145934, 16.57 293.03200584479265 C 16.805999999999997 292.781339178126, 17.142666666666663 292.63600584479263, 17.58 292.59600584479267 L 17.58 293.48400584479265 C 17.382666666666665 293.54000584479263, 17.281333333333333 293.669339178126, 17.276 293.8720058447927 C 17.262666666666668 294.2426725114593, 17.253333333333334 294.59067251145933, 17.248 294.91600584479266 C 17.242666666666665 295.241339178126, 17.24 295.55800584479266, 17.24 295.86600584479265 C 17.24 296.17400584479265, 17.242666666666665 296.4886725114593, 17.248 296.81000584479267 C 17.253333333333334 297.13133917812604, 17.262666666666668 297.47467251145935, 17.276 297.84000584479264 C 17.281333333333333 298.04800584479267, 17.382666666666665 298.1800058447926, 17.58 298.23600584479266 L 17.58 299.1240058447927 C 17.142666666666663 299.08400584479267, 16.805999999999997 298.93800584479266, 16.57 298.68600584479265 C 16.334000000000003 298.43400584479264, 16.209333333333333 298.0880058447927, 16.196 297.6480058447927 Z M 18.084 299.1240058447927 L 18.084 298.2320058447927 C 18.268 298.17867251145935, 18.366666666666667 298.05467251145933, 18.38 297.8600058447927 C 18.398666666666667 297.39333917812604, 18.410666666666668 296.9446725114594, 18.416 296.5140058447927 C 18.421333333333333 296.083339178126, 18.421333333333333 295.65267251145934, 18.416 295.22200584479265 C 18.410666666666668 294.791339178126, 18.398666666666667 294.3386725114593, 18.38 293.86400584479264 C 18.374666666666666 293.669339178126, 18.276 293.54267251145933, 18.084 293.48400584479265 L 18.084 292.59600584479267 C 18.513333333333335 292.63600584479263, 18.846666666666668 292.781339178126, 19.084 293.03200584479265 C 19.321333333333335 293.28267251145934, 19.445333333333334 293.62800584479265, 19.456 294.06800584479265 C 19.46666666666667 294.38267251145936, 19.474666666666668 294.69267251145936, 19.48 294.99800584479266 C 19.485333333333333 295.303339178126, 19.488 295.60400584479265, 19.488 295.90000584479264 C 19.488 296.19600584479264, 19.485333333333333 296.489339178126, 19.48 296.7800058447927 C 19.474666666666668 297.07067251145935, 19.46666666666667 297.3600058447927, 19.456 297.6480058447927 C 19.439999999999998 298.09867251145937, 19.311999999999998 298.447339178126, 19.072 298.6940058447927 C 18.832 298.94067251145935, 18.502666666666666 299.08400584479267, 18.084 299.1240058447927 Z M 21.944 299.06000584479267 L 21.944 292.6600058447927 L 23.003999999999998 292.6600058447927 L 23.003999999999998 299.06000584479267 Z " stroke="none" fill-rule="nonzero" fill="#000000" fill-opacity="1" transform="matrix(1,0,0,1,5.05,13.314)" id="text10 l" />
  <path d="M 0 294.09280572789686 L 10 294.09280572789686 L 10 295.59280572789686 L 0 295.59280572789686 Z " stroke="none" fill-rule="evenodd" fill="#000000" fill-opacity="1" transform="matrix(1,0,0,1,5.05,13.314)" id="mark11 l" />
  <path d="M 0 288.075605611001 L 10 288.075605611001 L 10 289.575605611001 L 0 289.575605611001 Z " stroke="none" fill-rule="evenodd" fill="#000000" fill-opacity="1" transform="matrix(1,0,0,1,5.05,13.314)" id="mark12 l" />
  <path d="M 0 282.05840549410516 L 10 282.05840549410516 L 10 283.55840549410516 L 0 283.55840549410516 Z " stroke="none" fill-rule="evenodd" fill="#000000" fill-opacity="1" transform="matrix(1,0,0,1,5.05,13.314)" id="mark13 l" />
  <path d="M 0 276.0412053772093 L 10 276.0412053772093 L 10 277.5412053772093 L 0 277.5412053772093 Z " stroke="none" fill-rule="evenodd" fill="#000000" fill-opacity="1" transform="matrix(1,0,0,1,5.05,13.314)" id="mark14 l" />
  <path d="M 0 270.0240052603134 L 25 270.0240052603134 L 25 271.5240052603134 L 0 271.5240052603134 Z " stroke="none" fill-rule="evenodd" fill="#000000" fill-opacity="1" transform="matrix(1,0,0,1,5.05,13.314)" id="mark15 l" />
  <path d="M 14.331999999999999 268.9420052603134 L 14.331999999999999 263.4980052603134 L 13.879999999999999 263.4980052603134 L 13.847999999999999 263.1180052603134 L 14.552 262.54200526031343 L 15.432 262.54200526031343 L 15.432 268.9420052603134 Z M 16.18 267.5260052603134 C 16.174666666666667 267.35267192698007, 16.173333333333332 267.21333859364677, 16.176 267.1080052603134 C 16.178666666666665 267.00267192698004, 16.181333333333335 266.90067192698007, 16.183999999999997 266.8020052603134 L 17.264 266.8020052603134 C 17.256 266.87933859364676, 17.25 266.97533859364677, 17.246 267.09000526031343 C 17.241999999999997 267.2046719269801, 17.240666666666666 267.31533859364674, 17.241999999999997 267.4220052603134 C 17.243333333333332 267.5286719269801, 17.246666666666666 267.6086719269801, 17.252 267.66200526031344 C 17.262666666666668 267.7820052603134, 17.297333333333334 267.8800052603134, 17.355999999999998 267.9560052603134 C 17.414666666666665 268.03200526031344, 17.497333333333334 268.0860052603134, 17.604 268.1180052603134 L 17.604 269.0100052603134 C 17.110666666666663 268.97267192698007, 16.75333333333333 268.8380052603134, 16.532 268.6060052603134 C 16.310666666666666 268.37400526031337, 16.19333333333333 268.0140052603134, 16.18 267.5260052603134 Z M 16.279999999999998 266.1900052603134 L 16.279999999999998 262.54200526031343 L 17.348 262.54200526031343 L 17.348 266.1900052603134 Z M 17.852 265.7660052603134 L 17.852 265.0100052603134 C 17.929333333333332 264.97000526031337, 18.014666666666667 264.9380052603134, 18.107999999999997 264.9140052603134 C 18.20133333333333 264.8900052603134, 18.301333333333332 264.8780052603134, 18.407999999999998 264.8780052603134 C 18.773333333333333 264.8780052603134, 19.047333333333334 264.99333859364674, 19.23 265.2240052603134 C 19.412666666666667 265.45467192698004, 19.514666666666663 265.76867192698006, 19.535999999999998 266.1660052603134 C 19.546666666666667 266.3260052603134, 19.55333333333333 266.48467192698007, 19.555999999999997 266.6420052603134 C 19.558666666666664 266.7993385936467, 19.557333333333332 266.9526719269801, 19.552 267.10200526031343 C 19.546666666666667 267.2513385936468, 19.538666666666668 267.39133859364676, 19.528 267.5220052603134 C 19.482666666666667 268.02067192698007, 19.353333333333335 268.38600526031337, 19.14 268.6180052603134 C 18.926666666666666 268.8500052603134, 18.581333333333333 268.98067192698005, 18.104 269.0100052603134 L 18.104 268.1180052603134 C 18.21333333333333 268.08867192698006, 18.296 268.0360052603134, 18.352 267.9600052603134 C 18.408 267.8840052603134, 18.44 267.7846719269801, 18.448 267.66200526031344 C 18.471999999999998 267.3713385936467, 18.485999999999997 267.1100052603134, 18.49 266.8780052603134 C 18.494 266.6460052603134, 18.485333333333333 266.42467192698007, 18.464 266.2140052603134 C 18.447999999999997 266.05933859364677, 18.396666666666665 265.9440052603134, 18.31 265.8680052603134 C 18.223333333333333 265.79200526031343, 18.090666666666664 265.7540052603134, 17.912 265.7540052603134 C 17.901333333333334 265.7540052603134, 17.890666666666668 265.75533859364674, 17.88 265.7580052603134 C 17.86933333333333 265.7606719269801, 17.86 265.7633385936467, 17.852 265.7660052603134 Z M 17.852 263.4740052603134 L 17.852 262.54200526031343 L 19.439999999999998 262.54200526031343 L 19.439999999999998 263.4740052603134 Z M 21.944 268.9420052603134 L 21.944 262.54200526031343 L 23.003999999999998 262.54200526031343 L 23.003999999999998 268.9420052603134 Z " stroke="none" fill-rule="nonzero" fill="#000000" fill-opacity="1" transform="matrix(1,0,0,1,5.05,13.314)" id="text15 l" />
  <path d="M 0 264.0068051434176 L 10 264.0068051434176 L 10 265.5068051434176 L 0 265.5068051434176 Z " stroke="none" fill-rule="evenodd" fill="#000000" fill-opacity="1" transform="matrix(1,0,0,1,5.05,13.314)" id="mark16 l" />
  <path d="M 0 257.9896050265217 L 10 257.9896050265217 L 10 259.4896050265217 L 0 259.4896050265217 Z " stroke="none" fill-rule="evenodd" fill="#000000" fill-opacity="1" transform="matrix(1,0,0,1,5.05,13.314)" id="mark17 l" />
  <path d="M 0 251.97240490962588 L 10 251.97240490962588 L 10 253.47240490962588 L 0 253.47240490962588 Z " stroke="none" fill-rule="evenodd" fill="#000000" fill-opacity="1" transform="matrix(1,0,0,1,5.05,13.314)" id="mark18 l" />
  <path d="M 0 245.95520479273 L 10 245.95520479273 L 10 247.45520479273 L 0 247.45520479273 Z " stroke="none" fill-rule="evenodd" fill="#000000" fill-opacity="1" transform="matrix(1,0,0,1,5.05,13.314)" id="mark19 l" />
  <path d="M 0 239.93800467583415 L 25 239.93800467583415 L 25 241.43800467583415 L 0 241.43800467583415 Z " stroke="none" fill-rule="evenodd" fill="#000000" fill-opacity="1" transform="matrix(1,0,0,1,5.05,13.314)" id="mark20 l" />
  <path d="M 12.319999999999999 238.88800467583417 C 12.317333333333334 238.7893380091675, 12.315333333333331 238.7006713425008, 12.313999999999998 238.62200467583418 C 12.312666666666665 238.54333800916748, 12.311333333333334 238.4693380091675, 12.309999999999999 238.40000467583417 C 12.308666666666667 238.33067134250084, 12.308 238.25867134250083, 12.308 238.18400467583416 C 12.308 238.1093380091675, 12.308 238.02467134250082, 12.308 237.93000467583417 C 12.308 237.83533800916751, 12.309333333333335 237.72400467583418, 12.312 237.59600467583417 C 12.32 237.30267134250084, 12.37 237.04067134250084, 12.462 236.81000467583416 C 12.554 236.5793380091675, 12.687999999999999 236.37333800916747, 12.863999999999999 236.19200467583417 C 13.04 236.0106713425008, 13.257333333333333 235.8493380091675, 13.515999999999998 235.70800467583416 L 14.047999999999998 235.42000467583418 C 14.234666666666666 235.31867134250086, 14.354 235.19667134250085, 14.405999999999999 235.05400467583416 C 14.457999999999998 234.91133800916748, 14.488 234.77733800916752, 14.495999999999999 234.65200467583418 C 14.506666666666664 234.50533800916753, 14.512666666666664 234.34867134250084, 14.514 234.18200467583418 C 14.51533333333333 234.01533800916752, 14.511999999999997 233.85867134250083, 14.504 233.71200467583418 C 14.498666666666665 233.6080046758342, 14.468666666666666 233.52200467583418, 14.413999999999998 233.45400467583417 C 14.359333333333332 233.38600467583416, 14.279999999999998 233.33733800916752, 14.175999999999998 233.30800467583416 L 14.175999999999998 232.42000467583418 C 14.663999999999998 232.4520046758342, 15.014 232.5833380091675, 15.225999999999999 232.81400467583416 C 15.437999999999999 233.0446713425008, 15.554666666666666 233.4053380091675, 15.575999999999999 233.89600467583418 C 15.578666666666663 233.96000467583417, 15.580666666666666 234.0253380091675, 15.581999999999999 234.09200467583418 C 15.583333333333332 234.15867134250084, 15.584 234.2233380091675, 15.584 234.28600467583416 C 15.584 234.34867134250084, 15.583333333333332 234.41067134250085, 15.581999999999999 234.47200467583417 C 15.580666666666666 234.5333380091675, 15.578666666666663 234.5933380091675, 15.575999999999999 234.65200467583418 C 15.565333333333331 234.9373380091675, 15.512 235.18400467583416, 15.415999999999999 235.39200467583416 C 15.32 235.60000467583416, 15.19 235.78000467583416, 15.026 235.93200467583418 C 14.862 236.08400467583417, 14.672 236.22000467583416, 14.456 236.34000467583417 L 13.851999999999999 236.66800467583417 C 13.737333333333332 236.72933800916752, 13.647333333333332 236.81333800916752, 13.581999999999999 236.92000467583418 C 13.516666666666666 237.02667134250083, 13.469999999999999 237.14000467583418, 13.441999999999998 237.26000467583418 C 13.413999999999998 237.38000467583416, 13.399999999999999 237.49200467583415, 13.399999999999999 237.59600467583417 L 13.399999999999999 238.88800467583417 Z M 12.328 234.84800467583418 C 12.322666666666667 234.73067134250084, 12.318666666666665 234.61600467583418, 12.315999999999999 234.50400467583415 C 12.313333333333333 234.3920046758342, 12.311333333333334 234.2860046758342, 12.309999999999999 234.18600467583417 C 12.308666666666667 234.08600467583415, 12.309333333333335 233.9893380091675, 12.312 233.89600467583418 C 12.330666666666666 233.40800467583415, 12.447333333333333 233.04867134250082, 12.661999999999999 232.81800467583417 C 12.876666666666665 232.58733800916752, 13.213333333333331 232.45467134250083, 13.671999999999999 232.42000467583418 L 13.671999999999999 233.31200467583417 C 13.576 233.3413380091675, 13.505333333333333 233.38800467583417, 13.459999999999999 233.45200467583416 C 13.414666666666665 233.51600467583415, 13.390666666666664 233.5933380091675, 13.387999999999998 233.68400467583416 C 13.382666666666665 233.89200467583416, 13.379333333333333 234.08533800916751, 13.378 234.26400467583417 C 13.376666666666667 234.44267134250083, 13.381333333333334 234.6373380091675, 13.392 234.84800467583418 Z M 13.904 238.88800467583417 L 13.904 237.95600467583418 L 15.5 237.95600467583418 L 15.5 238.88800467583417 Z M 16.196 237.47600467583416 C 16.188000000000002 237.04667134250082, 16.182666666666666 236.6300046758342, 16.18 236.22600467583416 C 16.177333333333333 235.8220046758342, 16.177999999999997 235.42667134250084, 16.182 235.04000467583415 C 16.186 234.6533380091675, 16.190666666666665 234.27200467583418, 16.196 233.89600467583418 C 16.209333333333333 233.45600467583415, 16.334000000000003 233.11067134250084, 16.57 232.86000467583418 C 16.805999999999997 232.60933800916752, 17.142666666666663 232.4640046758342, 17.58 232.42400467583417 L 17.58 233.31200467583417 C 17.382666666666665 233.3680046758342, 17.281333333333333 233.49733800916752, 17.276 233.70000467583418 C 17.262666666666668 234.07067134250084, 17.253333333333334 234.41867134250083, 17.248 234.74400467583416 C 17.242666666666665 235.0693380091675, 17.24 235.38600467583416, 17.24 235.69400467583418 C 17.24 236.00200467583414, 17.242666666666665 236.31667134250083, 17.248 236.63800467583417 C 17.253333333333334 236.9593380091675, 17.262666666666668 237.30267134250084, 17.276 237.66800467583417 C 17.281333333333333 237.87600467583417, 17.382666666666665 238.00800467583417, 17.58 238.06400467583416 L 17.58 238.95200467583416 C 17.142666666666663 238.91200467583417, 16.805999999999997 238.76600467583415, 16.57 238.51400467583417 C 16.334000000000003 238.26200467583413, 16.209333333333333 237.91600467583413, 16.196 237.47600467583416 Z M 18.084 238.95200467583416 L 18.084 238.06000467583416 C 18.268 238.00667134250085, 18.366666666666667 237.88267134250083, 18.38 237.68800467583418 C 18.398666666666667 237.22133800916748, 18.410666666666668 236.77267134250081, 18.416 236.34200467583418 C 18.421333333333333 235.91133800916748, 18.421333333333333 235.48067134250084, 18.416 235.05000467583417 C 18.410666666666668 234.6193380091675, 18.398666666666667 234.16667134250082, 18.38 233.69200467583417 C 18.374666666666666 233.4973380091675, 18.276 233.37067134250083, 18.084 233.31200467583417 L 18.084 232.42400467583417 C 18.513333333333335 232.4640046758342, 18.846666666666668 232.60933800916752, 19.084 232.86000467583418 C 19.321333333333335 233.11067134250084, 19.445333333333334 233.45600467583415, 19.456 233.89600467583418 C 19.46666666666667 234.2106713425008, 19.474666666666668 234.5206713425008, 19.48 234.82600467583416 C 19.485333333333333 235.1313380091675, 19.488 235.43200467583415, 19.488 235.72800467583417 C 19.488 236.0240046758342, 19.485333333333333 236.31733800916749, 19.48 236.60800467583417 C 19.474666666666668 236.89867134250085, 19.46666666666667 237.18800467583418, 19.456 237.47600467583416 C 19.439999999999998 237.9266713425008, 19.311999999999998 238.2753380091675, 19.072 238.52200467583415 C 18.832 238.76867134250085, 18.502666666666666 238.91200467583417, 18.084 238.95200467583416 Z M 21.944 238.88800467583417 L 21.944 232.48800467583416 L 23.003999999999998 232.48800467583416 L 23.003999999999998 238.88800467583417 Z " stroke="none" fill-rule="nonzero" fill="#000000" fill-opacity="1" transform="matrix(1,0,0,1,5.05,13.314)" id="text20 l" />
  <path d="M 0 233.9208045589383 L 10 233.9208045589383 L 10 235.4208045589383 L 0 235.4208045589383 Z " stroke="none" fill-rule="evenodd" fill="#000000" fill-opacity="1" transform="matrix(1,0,0,1,5.05,13.314)" id="mark21 l" />
  <path d="M 0 227.90360444204245 L 10 227.90360444204245 L 10 229.40360444204245 L 0 229.40360444204245 Z " stroke="none" fill-rule="evenodd" fill="#000000" fill-opacity="1" transform="matrix(1,0,0,1,5.05,13.314)" id="mark22 l" />
  <path d="M 0 221.8864043251466 L 10 221.8864043251466 L 10 223.3864043251466 L 0 223.3864043251466 Z " stroke="none" fill-rule="evenodd" fill="#000000" fill-opacity="1" transform="matrix(1,0,0,1,5.05,13.314)" id="mark23 l" />
  <path d="M 0 215.86920420825075 L 10 215.86920420825075 L 10 217.36920420825075 L 0 217.36920420825075 Z " stroke="none" fill-rule="evenodd" fill="#000000" fill-opacity="1" transform="matrix(1,0,0,1,5.05,13.314)" id="mark24 l" />
  <path d="M 0 209.85200409135487 L 25 209.85200409135487 L 25 211.35200409135487 L 0 211.35200409135487 Z " stroke="none" fill-rule="evenodd" fill="#000000" fill-opacity="1" transform="matrix(1,0,0,1,5.05,13.314)" id="mark25 l" />
  <path d="M 12.328 208.8020040913549 C 12.325333333333333 208.70333742468821, 12.323333333333332 208.61467075802153, 12.322 208.5360040913549 C 12.320666666666666 208.4573374246882, 12.319333333333333 208.38333742468822, 12.318 208.3140040913549 C 12.316666666666666 208.24467075802156, 12.315999999999999 208.17267075802155, 12.316 208.09800409135488 C 12.315999999999999 208.0233374246882, 12.315999999999999 207.93867075802154, 12.316 207.8440040913549 C 12.315999999999999 207.74933742468824, 12.317333333333334 207.6380040913549, 12.32 207.5100040913549 C 12.328 207.21667075802156, 12.378 206.95467075802156, 12.47 206.72400409135489 C 12.562000000000001 206.4933374246882, 12.696 206.2873374246882, 12.872 206.1060040913549 C 13.048 205.92467075802153, 13.265333333333334 205.76333742468822, 13.524000000000001 205.62200409135488 L 14.056000000000001 205.3340040913549 C 14.242666666666668 205.23267075802158, 14.362000000000002 205.11067075802157, 14.414 204.96800409135489 C 14.466000000000001 204.8253374246882, 14.495999999999999 204.69133742468824, 14.504 204.5660040913549 C 14.514666666666667 204.41933742468825, 14.520666666666667 204.26267075802156, 14.522 204.0960040913549 C 14.523333333333333 203.92933742468824, 14.520000000000001 203.77267075802155, 14.512 203.6260040913549 C 14.506666666666666 203.52200409135492, 14.476666666666667 203.4360040913549, 14.422 203.3680040913549 C 14.367333333333335 203.30000409135488, 14.288 203.25133742468824, 14.184000000000001 203.22200409135488 L 14.184000000000001 202.3340040913549 C 14.672 202.3660040913549, 15.022000000000002 202.49733742468823, 15.234 202.72800409135488 C 15.446000000000002 202.95867075802153, 15.562666666666667 203.31933742468823, 15.584 203.8100040913549 C 15.586666666666668 203.8740040913549, 15.588666666666668 203.93933742468823, 15.59 204.0060040913549 C 15.591333333333335 204.07267075802156, 15.592000000000002 204.1373374246882, 15.592 204.20000409135488 C 15.592000000000002 204.26267075802156, 15.591333333333335 204.32467075802157, 15.59 204.3860040913549 C 15.588666666666668 204.44733742468821, 15.586666666666668 204.50733742468822, 15.584 204.5660040913549 C 15.573333333333332 204.8513374246882, 15.52 205.09800409135488, 15.424 205.30600409135488 C 15.328 205.51400409135488, 15.197999999999999 205.69400409135488, 15.033999999999999 205.8460040913549 C 14.87 205.9980040913549, 14.68 206.13400409135488, 14.464 206.2540040913549 L 13.86 206.5820040913549 C 13.745333333333335 206.64333742468824, 13.655333333333335 206.72733742468824, 13.59 206.8340040913549 C 13.524666666666668 206.94067075802155, 13.478000000000002 207.0540040913549, 13.45 207.1740040913549 C 13.422 207.29400409135488, 13.408 207.40600409135487, 13.408 207.5100040913549 L 13.408 208.8020040913549 Z M 12.336 204.7620040913549 C 12.330666666666666 204.64467075802156, 12.326666666666664 204.5300040913549, 12.324 204.41800409135487 C 12.321333333333332 204.3060040913549, 12.319333333333333 204.2000040913549, 12.318 204.1000040913549 C 12.316666666666666 204.00000409135487, 12.317333333333334 203.90333742468823, 12.32 203.8100040913549 C 12.338666666666668 203.32200409135487, 12.455333333333336 202.96267075802155, 12.67 202.7320040913549 C 12.884666666666668 202.50133742468824, 13.221333333333334 202.36867075802155, 13.68 202.3340040913549 L 13.68 203.2260040913549 C 13.584 203.2553374246882, 13.513333333333332 203.3020040913549, 13.468 203.36600409135488 C 13.422666666666668 203.43000409135487, 13.398666666666667 203.50733742468822, 13.396 203.59800409135488 C 13.390666666666666 203.80600409135488, 13.387333333333332 203.99933742468824, 13.386 204.1780040913549 C 13.384666666666666 204.35667075802155, 13.389333333333333 204.55133742468823, 13.4 204.7620040913549 Z M 13.911999999999999 208.8020040913549 L 13.911999999999999 207.8700040913549 L 15.508 207.8700040913549 L 15.508 208.8020040913549 Z M 16.18 207.3860040913549 C 16.174666666666667 207.21267075802155, 16.173333333333332 207.07333742468822, 16.176 206.96800409135489 C 16.178666666666665 206.86267075802155, 16.181333333333335 206.76067075802155, 16.183999999999997 206.6620040913549 L 17.264 206.6620040913549 C 17.256 206.73933742468824, 17.25 206.83533742468822, 17.246 206.95000409135488 C 17.241999999999997 207.06467075802155, 17.240666666666666 207.17533742468822, 17.241999999999997 207.28200409135488 C 17.243333333333332 207.38867075802153, 17.246666666666666 207.46867075802157, 17.252 207.5220040913549 C 17.262666666666668 207.64200409135492, 17.297333333333334 207.7400040913549, 17.355999999999998 207.8160040913549 C 17.414666666666665 207.8920040913549, 17.497333333333334 207.9460040913549, 17.604 207.97800409135488 L 17.604 208.8700040913549 C 17.110666666666663 208.83267075802155, 16.75333333333333 208.6980040913549, 16.532 208.46600409135488 C 16.310666666666666 208.2340040913549, 16.19333333333333 207.8740040913549, 16.18 207.3860040913549 Z M 16.279999999999998 206.05000409135488 L 16.279999999999998 202.40200409135488 L 17.348 202.40200409135488 L 17.348 206.05000409135488 Z M 17.852 205.6260040913549 L 17.852 204.8700040913549 C 17.929333333333332 204.8300040913549, 18.014666666666667 204.79800409135493, 18.107999999999997 204.7740040913549 C 18.20133333333333 204.75000409135492, 18.301333333333332 204.73800409135492, 18.407999999999998 204.7380040913549 C 18.773333333333333 204.73800409135492, 19.047333333333334 204.85333742468822, 19.23 205.0840040913549 C 19.412666666666667 205.31467075802152, 19.514666666666663 205.62867075802154, 19.535999999999998 206.02600409135488 C 19.546666666666667 206.1860040913549, 19.55333333333333 206.34467075802155, 19.555999999999997 206.50200409135488 C 19.558666666666664 206.6593374246882, 19.557333333333332 206.81267075802157, 19.552 206.96200409135488 C 19.546666666666667 207.1113374246882, 19.538666666666668 207.25133742468822, 19.528 207.3820040913549 C 19.482666666666667 207.88067075802155, 19.353333333333335 208.24600409135488, 19.14 208.47800409135488 C 18.926666666666666 208.71000409135488, 18.581333333333333 208.84067075802153, 18.104 208.8700040913549 L 18.104 207.97800409135488 C 18.21333333333333 207.94867075802154, 18.296 207.89600409135488, 18.352 207.8200040913549 C 18.408 207.7440040913549, 18.44 207.64467075802156, 18.448 207.5220040913549 C 18.471999999999998 207.2313374246882, 18.485999999999997 206.9700040913549, 18.49 206.7380040913549 C 18.494 206.5060040913549, 18.485333333333333 206.28467075802155, 18.464 206.07400409135488 C 18.447999999999997 205.91933742468822, 18.396666666666665 205.8040040913549, 18.31 205.72800409135488 C 18.223333333333333 205.6520040913549, 18.090666666666664 205.6140040913549, 17.912 205.6140040913549 C 17.901333333333334 205.6140040913549, 17.890666666666668 205.61533742468822, 17.88 205.6180040913549 C 17.86933333333333 205.62067075802156, 17.86 205.6233374246882, 17.852 205.6260040913549 Z M 17.852 203.3340040913549 L 17.852 202.40200409135488 L 19.439999999999998 202.40200409135488 L 19.439999999999998 203.3340040913549 Z M 21.944 208.8020040913549 L 21.944 202.40200409135488 L 23.003999999999998 202.40200409135488 L 23.003999999999998 208.8020040913549 Z " stroke="none" fill-rule="nonzero" fill="#000000" fill-opacity="1" transform="matrix(1,0,0,1,5.05,13.314)" id="text25 l" />
  <path d="M 0 203.83480397445902 L 10 203.83480397445902 L 10 205.33480397445902 L 0 205.33480397445902 Z " stroke="none" fill-rule="evenodd" fill="#000000" fill-opacity="1" transform="matrix(1,0,0,1,5.05,13.314)" id="mark26 l" />
  <path d="M 0 197.81760385756317 L 10 197.81760385756317 L 10 199.31760385756317 L 0 199.31760385756317 Z " stroke="none" fill-rule="evenodd" fill="#000000" fill-opacity="1" transform="matrix(1,0,0,1,5.05,13.314)" id="mark27 l" />
  <path d="M 0 191.80040374066732 L 10 191.80040374066732 L 10 193.30040374066732 L 0 193.30040374066732 Z " stroke="none" fill-rule="evenodd" fill="#000000" fill-opacity="1" transform="matrix(1,0,0,1,5.05,13.314)" id="mark28 l" />
  <path d="M 0 185.78320362377147 L 10 185.78320362377147 L 10 187.28320362377147 L 0 187.28320362377147 Z " stroke="none" fill-rule="evenodd" fill="#000000" fill-opacity="1" transform="matrix(1,0,0,1,5.05,13.314)" id="mark29 l" />
  <path d="M 0 179.76600350687562 L 25 179.76600350687562 L 25 181.26600350687562 L 0 181.26600350687562 Z " stroke="none" fill-rule="evenodd" fill="#000000" fill-opacity="1" transform="matrix(1,0,0,1,5.05,13.314)" id="mark30 l" />
  <path d="M 12.223999999999998 177.30000350687564 C 12.221333333333334 177.1986701735423, 12.219333333333333 177.1146701735423, 12.218 177.04800350687563 C 12.216666666666667 176.98133684020897, 12.216666666666667 176.91333684020898, 12.218 176.84400350687565 C 12.219333333333333 176.77467017354232, 12.221333333333334 176.68533684020898, 12.223999999999998 176.57600350687565 L 13.303999999999998 176.57600350687565 L 13.303999999999998 177.44000350687563 C 13.303999999999998 177.67733684020897, 13.417333333333332 177.82800350687563, 13.643999999999998 177.89200350687562 L 13.643999999999998 178.78400350687565 C 13.155999999999999 178.74667017354233, 12.800666666666665 178.61200350687562, 12.578 178.38000350687562 C 12.355333333333334 178.14800350687563, 12.237333333333332 177.78800350687564, 12.223999999999998 177.30000350687564 Z M 12.292 173.24800350687565 L 12.292 172.31600350687563 L 15.536 172.31600350687563 L 15.536 173.24800350687565 Z M 14.143999999999998 177.89600350687564 C 14.367999999999999 177.84000350687563, 14.483999999999998 177.68933684020897, 14.491999999999999 177.44400350687565 C 14.497333333333334 177.241336840209, 14.500666666666666 177.0586701735423, 14.501999999999999 176.89600350687564 C 14.503333333333332 176.73333684020898, 14.498666666666665 176.57600350687565, 14.488 176.42400350687564 C 14.48 176.2666701735423, 14.431999999999999 176.13333684020898, 14.344 176.02400350687563 C 14.256 175.9146701735423, 14.089333333333332 175.8626701735423, 13.844 175.86800350687562 L 13.096 175.87600350687563 L 13.068 174.98400350687564 L 14.027999999999999 173.60000350687562 L 15.216 173.60000350687562 L 14.248 174.95200350687563 L 14.28 174.95200350687563 C 14.712 174.95200350687563, 15.028666666666666 175.0746701735423, 15.229999999999999 175.32000350687565 C 15.431333333333333 175.56533684020897, 15.544 175.9426701735423, 15.568 176.45200350687563 C 15.57333333333333 176.52400350687563, 15.576666666666664 176.59600350687563, 15.578 176.66800350687564 C 15.57933333333333 176.74000350687564, 15.579999999999998 176.8106701735423, 15.579999999999998 176.88000350687562 C 15.579999999999998 176.94933684020896, 15.57933333333333 177.01867017354232, 15.578 177.08800350687562 C 15.576666666666664 177.15733684020898, 15.57333333333333 177.22800350687564, 15.568 177.30000350687564 C 15.549333333333333 177.79600350687565, 15.428666666666665 178.16067017354231, 15.206 178.39400350687563 C 14.983333333333334 178.62733684020895, 14.630666666666666 178.75733684020895, 14.148 178.78400350687565 Z M 16.196 177.30400350687563 C 16.188000000000002 176.8746701735423, 16.182666666666666 176.45800350687563, 16.18 176.05400350687563 C 16.177333333333333 175.65000350687563, 16.177999999999997 175.2546701735423, 16.182 174.86800350687562 C 16.186 174.48133684020897, 16.190666666666665 174.10000350687562, 16.196 173.72400350687565 C 16.209333333333333 173.28400350687565, 16.334000000000003 172.9386701735423, 16.57 172.68800350687565 C 16.805999999999997 172.43733684020899, 17.142666666666663 172.29200350687563, 17.58 172.25200350687564 L 17.58 173.14000350687564 C 17.382666666666665 173.19600350687566, 17.281333333333333 173.325336840209, 17.276 173.52800350687565 C 17.262666666666668 173.8986701735423, 17.253333333333334 174.2466701735423, 17.248 174.57200350687563 C 17.242666666666665 174.89733684020896, 17.24 175.21400350687566, 17.24 175.52200350687565 C 17.24 175.83000350687564, 17.242666666666665 176.1446701735423, 17.248 176.46600350687564 C 17.253333333333334 176.78733684020898, 17.262666666666668 177.1306701735423, 17.276 177.49600350687564 C 17.281333333333333 177.70400350687564, 17.382666666666665 177.83600350687564, 17.58 177.89200350687562 L 17.58 178.78000350687563 C 17.142666666666663 178.74000350687564, 16.805999999999997 178.59400350687565, 16.57 178.34200350687564 C 16.334000000000003 178.09000350687563, 16.209333333333333 177.74400350687563, 16.196 177.30400350687563 Z M 18.084 178.78000350687563 L 18.084 177.88800350687563 C 18.268 177.83467017354232, 18.366666666666667 177.71067017354233, 18.38 177.51600350687565 C 18.398666666666667 177.04933684020898, 18.410666666666668 176.6006701735423, 18.416 176.17000350687564 C 18.421333333333333 175.73933684020898, 18.421333333333333 175.3086701735423, 18.416 174.87800350687564 C 18.410666666666668 174.44733684020898, 18.398666666666667 173.9946701735423, 18.38 173.52000350687564 C 18.374666666666666 173.32533684020896, 18.276 173.1986701735423, 18.084 173.14000350687564 L 18.084 172.25200350687564 C 18.513333333333335 172.29200350687563, 18.846666666666668 172.43733684020899, 19.084 172.68800350687565 C 19.321333333333335 172.9386701735423, 19.445333333333334 173.28400350687565, 19.456 173.72400350687565 C 19.46666666666667 174.0386701735423, 19.474666666666668 174.3486701735423, 19.48 174.65400350687563 C 19.485333333333333 174.95933684020895, 19.488 175.26000350687562, 19.488 175.55600350687564 C 19.488 175.85200350687563, 19.485333333333333 176.14533684020898, 19.48 176.43600350687564 C 19.474666666666668 176.7266701735423, 19.46666666666667 177.01600350687562, 19.456 177.30400350687563 C 19.439999999999998 177.7546701735423, 19.311999999999998 178.10333684020898, 19.072 178.35000350687562 C 18.832 178.5966701735423, 18.502666666666666 178.74000350687564, 18.084 178.78000350687563 Z M 21.944 178.71600350687564 L 21.944 172.31600350687563 L 23.003999999999998 172.31600350687563 L 23.003999999999998 178.71600350687564 Z " stroke="none" fill-rule="nonzero" fill="#000000" fill-opacity="1" transform="matrix(1,0,0,1,5.05,13.314)" id="text30 l" />
  <path d="M 0 173.74880338997974 L 10 173.74880338997974 L 10 175.24880338997974 L 0 175.24880338997974 Z " stroke="none" fill-rule="evenodd" fill="#000000" fill-opacity="1" transform="matrix(1,0,0,1,5.05,13.314)" id="mark31 l" />
  <path d="M 0 167.7316032730839 L 10 167.7316032730839 L 10 169.2316032730839 L 0 169.2316032730839 Z " stroke="none" fill-rule="evenodd" fill="#000000" fill-opacity="1" transform="matrix(1,0,0,1,5.05,13.314)" id="mark32 l" />
  <path d="M 0 161.71440315618804 L 10 161.71440315618804 L 10 163.21440315618804 L 0 163.21440315618804 Z " stroke="none" fill-rule="evenodd" fill="#000000" fill-opacity="1" transform="matrix(1,0,0,1,5.05,13.314)" id="mark33 l" />
  <path d="M 0 155.6972030392922 L 10 155.6972030392922 L 10 157.1972030392922 L 0 157.1972030392922 Z " stroke="none" fill-rule="evenodd" fill="#000000" fill-opacity="1" transform="matrix(1,0,0,1,5.05,13.314)" id="mark34 l" />
  <path d="M 0 149.68000292239634 L 25 149.68000292239634 L 25 151.18000292239634 L 0 151.18000292239634 Z " stroke="none" fill-rule="evenodd" fill="#000000" fill-opacity="1" transform="matrix(1,0,0,1,5.05,13.314)" id="mark35 l" />
  <path d="M 12.232 147.18200292239635 C 12.229333333333333 147.080669589063, 12.227333333333334 146.996669589063, 12.226 146.93000292239634 C 12.224666666666668 146.86333625572968, 12.224666666666668 146.79533625572967, 12.226 146.72600292239633 C 12.227333333333334 146.656669589063, 12.229333333333333 146.56733625572969, 12.232 146.45800292239636 L 13.312 146.45800292239636 L 13.312 147.32200292239634 C 13.312 147.55933625572968, 13.425333333333333 147.71000292239634, 13.652 147.77400292239633 L 13.652 148.66600292239636 C 13.164 148.628669589063, 12.808666666666667 148.49400292239633, 12.586 148.26200292239633 C 12.363333333333333 148.03000292239633, 12.245333333333335 147.67000292239635, 12.232 147.18200292239635 Z M 12.3 143.13000292239636 L 12.3 142.19800292239634 L 15.544 142.19800292239634 L 15.544 143.13000292239636 Z M 14.152000000000001 147.77800292239635 C 14.376000000000001 147.72200292239637, 14.492 147.5713362557297, 14.5 147.32600292239636 C 14.505333333333333 147.12333625572967, 14.508666666666667 146.94066958906302, 14.51 146.77800292239635 C 14.511333333333333 146.6153362557297, 14.506666666666668 146.45800292239636, 14.496 146.30600292239635 C 14.488 146.14866958906302, 14.440000000000001 146.0153362557297, 14.352 145.90600292239634 C 14.264 145.79666958906301, 14.097333333333335 145.74466958906302, 13.852 145.75000292239633 L 13.104 145.75800292239634 L 13.076 144.86600292239635 L 14.036 143.48200292239636 L 15.224 143.48200292239636 L 14.256 144.83400292239634 L 14.288 144.83400292239634 C 14.719999999999999 144.83400292239634, 15.036666666666665 144.956669589063, 15.238 145.20200292239636 C 15.439333333333334 145.44733625572968, 15.552 145.82466958906303, 15.576 146.33400292239634 C 15.581333333333333 146.40600292239634, 15.584666666666667 146.47800292239634, 15.586 146.55000292239635 C 15.587333333333333 146.62200292239635, 15.588000000000001 146.692669589063, 15.588000000000001 146.76200292239633 C 15.588000000000001 146.83133625572967, 15.587333333333333 146.90066958906303, 15.586 146.97000292239636 C 15.584666666666667 147.0393362557297, 15.581333333333333 147.11000292239635, 15.576 147.18200292239635 C 15.557333333333334 147.67800292239633, 15.436666666666667 148.042669589063, 15.214 148.27600292239634 C 14.991333333333333 148.5093362557297, 14.638666666666666 148.6393362557297, 14.156 148.66600292239636 Z M 16.18 147.18200292239635 C 16.174666666666667 147.008669589063, 16.173333333333332 146.86933625572968, 16.176 146.76400292239634 C 16.178666666666665 146.658669589063, 16.181333333333335 146.556669589063, 16.183999999999997 146.45800292239636 L 17.264 146.45800292239636 C 17.256 146.5353362557297, 17.25 146.63133625572968, 17.246 146.74600292239634 C 17.241999999999997 146.860669589063, 17.240666666666666 146.97133625572968, 17.241999999999997 147.07800292239634 C 17.243333333333332 147.184669589063, 17.246666666666666 147.264669589063, 17.252 147.31800292239635 C 17.262666666666668 147.43800292239635, 17.297333333333334 147.53600292239636, 17.355999999999998 147.61200292239636 C 17.414666666666665 147.68800292239635, 17.497333333333334 147.74200292239632, 17.604 147.77400292239633 L 17.604 148.66600292239636 C 17.110666666666663 148.628669589063, 16.75333333333333 148.49400292239633, 16.532 148.26200292239633 C 16.310666666666666 148.03000292239633, 16.19333333333333 147.67000292239635, 16.18 147.18200292239635 Z M 16.279999999999998 145.84600292239634 L 16.279999999999998 142.19800292239634 L 17.348 142.19800292239634 L 17.348 145.84600292239634 Z M 17.852 145.42200292239636 L 17.852 144.66600292239636 C 17.929333333333332 144.62600292239637, 18.014666666666667 144.59400292239636, 18.107999999999997 144.57000292239636 C 18.20133333333333 144.54600292239635, 18.301333333333332 144.53400292239635, 18.407999999999998 144.53400292239635 C 18.773333333333333 144.53400292239635, 19.047333333333334 144.64933625572968, 19.23 144.88000292239636 C 19.412666666666667 145.110669589063, 19.514666666666663 145.424669589063, 19.535999999999998 145.82200292239634 C 19.546666666666667 145.98200292239633, 19.55333333333333 146.140669589063, 19.555999999999997 146.29800292239634 C 19.558666666666664 146.45533625572966, 19.557333333333332 146.60866958906303, 19.552 146.75800292239634 C 19.546666666666667 146.90733625572966, 19.538666666666668 147.04733625572968, 19.528 147.17800292239636 C 19.482666666666667 147.676669589063, 19.353333333333335 148.04200292239634, 19.14 148.27400292239633 C 18.926666666666666 148.50600292239633, 18.581333333333333 148.63666958906302, 18.104 148.66600292239636 L 18.104 147.77400292239633 C 18.21333333333333 147.74466958906302, 18.296 147.69200292239634, 18.352 147.61600292239635 C 18.408 147.54000292239635, 18.44 147.44066958906302, 18.448 147.31800292239635 C 18.471999999999998 147.02733625572967, 18.485999999999997 146.76600292239635, 18.49 146.53400292239635 C 18.494 146.30200292239635, 18.485333333333333 146.080669589063, 18.464 145.87000292239634 C 18.447999999999997 145.71533625572968, 18.396666666666665 145.60000292239633, 18.31 145.52400292239633 C 18.223333333333333 145.44800292239634, 18.090666666666664 145.41000292239636, 17.912 145.41000292239636 C 17.901333333333334 145.41000292239636, 17.890666666666668 145.41133625572968, 17.88 145.41400292239635 C 17.86933333333333 145.41666958906302, 17.86 145.4193362557297, 17.852 145.42200292239636 Z M 17.852 143.13000292239636 L 17.852 142.19800292239634 L 19.439999999999998 142.19800292239634 L 19.439999999999998 143.13000292239636 Z M 21.944 148.59800292239635 L 21.944 142.19800292239634 L 23.003999999999998 142.19800292239634 L 23.003999999999998 148.59800292239635 Z " stroke="none" fill-rule="nonzero" fill="#000000" fill-opacity="1" transform="matrix(1,0,0,1,5.05,13.314)" id="text35 l" />
  <path d="M 0 143.6628028055005 L 10 143.6628028055005 L 10 145.1628028055005 L 0 145.1628028055005 Z " stroke="none" fill-rule="evenodd" fill="#000000" fill-opacity="1" transform="matrix(1,0,0,1,5.05,13.314)" id="mark36 l" />
  <path d="M 0 137.64560268860464 L 10 137.64560268860464 L 10 139.14560268860464 L 0 139.14560268860464 Z " stroke="none" fill-rule="evenodd" fill="#000000" fill-opacity="1" transform="matrix(1,0,0,1,5.05,13.314)" id="mark37 l" />
  <path d="M 0 131.62840257170876 L 10 131.62840257170876 L 10 133.12840257170876 L 0 133.12840257170876 Z " stroke="none" fill-rule="evenodd" fill="#000000" fill-opacity="1" transform="matrix(1,0,0,1,5.05,13.314)" id="mark38 l" />
  <path d="M 0 125.61120245481291 L 10 125.61120245481291 L 10 127.11120245481291 L 0 127.11120245481291 Z " stroke="none" fill-rule="evenodd" fill="#000000" fill-opacity="1" transform="matrix(1,0,0,1,5.05,13.314)" id="mark39 l" />
  <path d="M 0 119.59400233791706 L 25 119.59400233791706 L 25 121.09400233791706 L 0 121.09400233791706 Z " stroke="none" fill-rule="evenodd" fill="#000000" fill-opacity="1" transform="matrix(1,0,0,1,5.05,13.314)" id="mark40 l" />
  <path d="M 11.739999999999998 116.86000233791707 L 11.739999999999998 115.98400233791706 L 12.455999999999998 114.10400233791707 L 13.495999999999999 114.10400233791707 L 12.771999999999998 115.93600233791706 L 13.171999999999997 115.93600233791706 L 13.171999999999997 116.86000233791707 Z M 13.675999999999998 118.54400233791706 L 13.675999999999998 112.14400233791706 L 14.683999999999997 112.14400233791706 L 14.683999999999997 118.54400233791706 Z M 15.187999999999999 116.86000233791707 L 15.187999999999999 115.93600233791706 L 15.655999999999999 115.93600233791706 L 15.655999999999999 116.86000233791707 Z M 16.195999999999998 117.13200233791706 C 16.188 116.70266900458373, 16.182666666666666 116.28600233791707, 16.18 115.88200233791706 C 16.177333333333333 115.47800233791706, 16.177999999999997 115.08266900458372, 16.182 114.69600233791707 C 16.186 114.30933567125041, 16.190666666666665 113.92800233791706, 16.195999999999998 113.55200233791706 C 16.20933333333333 113.11200233791706, 16.333999999999996 112.76666900458373, 16.569999999999997 112.51600233791706 C 16.805999999999997 112.2653356712504, 17.142666666666663 112.12000233791707, 17.58 112.08000233791707 L 17.58 112.96800233791707 C 17.382666666666665 113.02400233791707, 17.281333333333333 113.15333567125039, 17.275999999999996 113.35600233791706 C 17.262666666666664 113.72666900458373, 17.25333333333333 114.07466900458373, 17.247999999999998 114.40000233791706 C 17.242666666666665 114.72533567125039, 17.24 115.04200233791707, 17.24 115.35000233791706 C 17.24 115.65800233791705, 17.242666666666665 115.97266900458374, 17.247999999999998 116.29400233791706 C 17.25333333333333 116.61533567125039, 17.262666666666664 116.95866900458373, 17.275999999999996 117.32400233791707 C 17.281333333333333 117.53200233791708, 17.382666666666665 117.66400233791707, 17.58 117.72000233791707 L 17.58 118.60800233791706 C 17.142666666666663 118.56800233791708, 16.805999999999997 118.42200233791706, 16.569999999999997 118.17000233791707 C 16.333999999999996 117.91800233791707, 16.20933333333333 117.57200233791707, 16.195999999999998 117.13200233791706 Z M 18.084 118.60800233791706 L 18.084 117.71600233791706 C 18.268 117.66266900458373, 18.366666666666667 117.53866900458374, 18.38 117.34400233791706 C 18.398666666666664 116.87733567125039, 18.410666666666664 116.42866900458372, 18.415999999999997 115.99800233791706 C 18.42133333333333 115.56733567125039, 18.42133333333333 115.13666900458374, 18.415999999999997 114.70600233791707 C 18.410666666666664 114.2753356712504, 18.398666666666664 113.82266900458373, 18.38 113.34800233791707 C 18.374666666666666 113.1533356712504, 18.276 113.02666900458374, 18.084 112.96800233791707 L 18.084 112.08000233791707 C 18.513333333333332 112.12000233791707, 18.846666666666664 112.2653356712504, 19.083999999999996 112.51600233791706 C 19.32133333333333 112.76666900458373, 19.44533333333333 113.11200233791706, 19.456 113.55200233791706 C 19.466666666666665 113.86666900458374, 19.474666666666664 114.17666900458374, 19.479999999999997 114.48200233791707 C 19.48533333333333 114.78733567125039, 19.488 115.08800233791706, 19.488 115.38400233791707 C 19.488 115.68000233791707, 19.48533333333333 115.9733356712504, 19.479999999999997 116.26400233791706 C 19.474666666666664 116.55466900458373, 19.466666666666665 116.84400233791706, 19.456 117.13200233791706 C 19.439999999999998 117.58266900458372, 19.311999999999998 117.9313356712504, 19.072 118.17800233791706 C 18.831999999999997 118.42466900458373, 18.502666666666663 118.56800233791708, 18.084 118.60800233791706 Z M 21.944 118.54400233791706 L 21.944 112.14400233791706 L 23.003999999999998 112.14400233791706 L 23.003999999999998 118.54400233791706 Z " stroke="none" fill-rule="nonzero" fill="#000000" fill-opacity="1" transform="matrix(1,0,0,1,5.05,13.314)" id="text40 l" />
  <path d="M 0 113.57680222102121 L 10 113.57680222102121 L 10 115.07680222102121 L 0 115.07680222102121 Z " stroke="none" fill-rule="evenodd" fill="#000000" fill-opacity="1" transform="matrix(1,0,0,1,5.05,13.314)" id="mark41 l" />
  <path d="M 0 107.55960210412536 L 10 107.55960210412536 L 10 109.05960210412536 L 0 109.05960210412536 Z " stroke="none" fill-rule="evenodd" fill="#000000" fill-opacity="1" transform="matrix(1,0,0,1,5.05,13.314)" id="mark42 l" />
  <path d="M 0 101.54240198722948 L 10 101.54240198722948 L 10 103.04240198722948 L 0 103.04240198722948 Z " stroke="none" fill-rule="evenodd" fill="#000000" fill-opacity="1" transform="matrix(1,0,0,1,5.05,13.314)" id="mark43 l" />
  <path d="M 0 95.52520187033366 L 10 95.52520187033366 L 10 97.02520187033366 L 0 97.02520187033366 Z " stroke="none" fill-rule="evenodd" fill="#000000" fill-opacity="1" transform="matrix(1,0,0,1,5.05,13.314)" id="mark44 l" />
  <path d="M 0 89.50800175343778 L 25 89.50800175343778 L 25 91.00800175343778 L 0 91.00800175343778 Z " stroke="none" fill-rule="evenodd" fill="#000000" fill-opacity="1" transform="matrix(1,0,0,1,5.05,13.314)" id="mark45 l" />
  <path d="M 11.748 86.74200175343779 L 11.748 85.86600175343779 L 12.463999999999999 83.98600175343779 L 13.503999999999998 83.98600175343779 L 12.78 85.81800175343778 L 13.18 85.81800175343778 L 13.18 86.74200175343779 Z M 13.684 88.42600175343779 L 13.684 82.02600175343778 L 14.691999999999998 82.02600175343778 L 14.691999999999998 88.42600175343779 Z M 15.195999999999998 86.74200175343779 L 15.195999999999998 85.81800175343778 L 15.663999999999998 85.81800175343778 L 15.663999999999998 86.74200175343779 Z M 16.18 87.01000175343779 C 16.174666666666667 86.83666842010444, 16.173333333333332 86.69733508677112, 16.176 86.59200175343778 C 16.178666666666665 86.48666842010445, 16.181333333333335 86.38466842010445, 16.183999999999997 86.28600175343779 L 17.264 86.28600175343779 C 17.256 86.36333508677112, 17.25 86.45933508677112, 17.246 86.57400175343778 C 17.241999999999997 86.68866842010445, 17.240666666666666 86.79933508677112, 17.241999999999997 86.90600175343779 C 17.243333333333332 87.01266842010446, 17.246666666666666 87.09266842010445, 17.252 87.14600175343779 C 17.262666666666668 87.26600175343779, 17.297333333333334 87.36400175343779, 17.355999999999998 87.44000175343778 C 17.414666666666665 87.51600175343779, 17.497333333333334 87.5700017534378, 17.604 87.60200175343779 L 17.604 88.49400175343779 C 17.110666666666663 88.45666842010445, 16.75333333333333 88.32200175343779, 16.532 88.09000175343779 C 16.310666666666666 87.85800175343779, 16.19333333333333 87.49800175343779, 16.18 87.01000175343779 Z M 16.279999999999998 85.67400175343779 L 16.279999999999998 82.02600175343778 L 17.348 82.02600175343778 L 17.348 85.67400175343779 Z M 17.852 85.25000175343779 L 17.852 84.49400175343779 C 17.929333333333332 84.45400175343778, 18.014666666666667 84.42200175343778, 18.107999999999997 84.39800175343778 C 18.20133333333333 84.3740017534378, 18.301333333333332 84.3620017534378, 18.407999999999998 84.3620017534378 C 18.773333333333333 84.3620017534378, 19.047333333333334 84.47733508677112, 19.23 84.70800175343778 C 19.412666666666667 84.93866842010445, 19.514666666666663 85.25266842010446, 19.535999999999998 85.65000175343779 C 19.546666666666667 85.81000175343779, 19.55333333333333 85.96866842010445, 19.555999999999997 86.12600175343779 C 19.558666666666664 86.28333508677113, 19.557333333333332 86.43666842010447, 19.552 86.58600175343778 C 19.546666666666667 86.73533508677113, 19.538666666666668 86.87533508677112, 19.528 87.00600175343779 C 19.482666666666667 87.50466842010445, 19.353333333333335 87.87000175343779, 19.14 88.10200175343779 C 18.926666666666666 88.33400175343779, 18.581333333333333 88.46466842010446, 18.104 88.49400175343779 L 18.104 87.60200175343779 C 18.21333333333333 87.57266842010446, 18.296 87.52000175343778, 18.352 87.44400175343779 C 18.408 87.3680017534378, 18.44 87.26866842010446, 18.448 87.14600175343779 C 18.471999999999998 86.85533508677113, 18.485999999999997 86.5940017534378, 18.49 86.3620017534378 C 18.494 86.13000175343778, 18.485333333333333 85.90866842010445, 18.464 85.6980017534378 C 18.447999999999997 85.54333508677112, 18.396666666666665 85.4280017534378, 18.31 85.35200175343779 C 18.223333333333333 85.27600175343778, 18.090666666666664 85.23800175343779, 17.912 85.23800175343779 C 17.901333333333334 85.23800175343779, 17.890666666666668 85.23933508677112, 17.88 85.24200175343779 C 17.86933333333333 85.24466842010445, 17.86 85.24733508677112, 17.852 85.25000175343779 Z M 17.852 82.95800175343778 L 17.852 82.02600175343778 L 19.439999999999998 82.02600175343778 L 19.439999999999998 82.95800175343778 Z M 21.944 88.42600175343779 L 21.944 82.02600175343778 L 23.003999999999998 82.02600175343778 L 23.003999999999998 88.42600175343779 Z " stroke="none" fill-rule="nonzero" fill="#000000" fill-opacity="1" transform="matrix(1,0,0,1,5.05,13.314)" id="text45 l" />
  <path d="M 0 83.49080163654196 L 10 83.49080163654196 L 10 84.99080163654196 L 0 84.99080163654196 Z " stroke="none" fill-rule="evenodd" fill="#000000" fill-opacity="1" transform="matrix(1,0,0,1,5.05,13.314)" id="mark46 l" />
  <path d="M 0 77.47360151964608 L 10 77.47360151964608 L 10 78.97360151964608 L 0 78.97360151964608 Z " stroke="none" fill-rule="evenodd" fill="#000000" fill-opacity="1" transform="matrix(1,0,0,1,5.05,13.314)" id="mark47 l" />
  <path d="M 0 71.45640140275026 L 10 71.45640140275026 L 10 72.95640140275026 L 0 72.95640140275026 Z " stroke="none" fill-rule="evenodd" fill="#000000" fill-opacity="1" transform="matrix(1,0,0,1,5.05,13.314)" id="mark48 l" />
  <path d="M 0 65.43920128585438 L 10 65.43920128585438 L 10 66.93920128585438 L 0 66.93920128585438 Z " stroke="none" fill-rule="evenodd" fill="#000000" fill-opacity="1" transform="matrix(1,0,0,1,5.05,13.314)" id="mark49 l" />
  <path d="M 0 59.4220011689585 L 25 59.4220011689585 L 25 60.9220011689585 L 0 60.9220011689585 Z " stroke="none" fill-rule="evenodd" fill="#000000" fill-opacity="1" transform="matrix(1,0,0,1,5.05,13.314)" id="mark50 l" />
  <path d="M 12.204 56.95600116895851 C 12.198666666666668 56.78266783562517, 12.197333333333333 56.643334502291836, 12.2 56.5380011689585 C 12.202666666666667 56.43266783562517, 12.205333333333336 56.33066783562518, 12.208 56.232001168958504 L 13.288 56.232001168958504 C 13.280000000000001 56.30933450229183, 13.274000000000001 56.405334502291836, 13.27 56.52000116895851 C 13.265999999999998 56.63466783562517, 13.264666666666667 56.74533450229184, 13.266 56.8520011689585 C 13.267333333333333 56.958667835625164, 13.270666666666667 57.03866783562517, 13.276 57.092001168958504 C 13.286666666666665 57.2120011689585, 13.321333333333332 57.31000116895851, 13.379999999999999 57.38600116895851 C 13.438666666666666 57.46200116895851, 13.521333333333335 57.5160011689585, 13.628 57.54800116895851 L 13.628 58.4400011689585 C 13.134666666666668 58.40266783562517, 12.777333333333335 58.268001168958506, 12.556 58.03600116895851 C 12.334666666666667 57.80400116895851, 12.217333333333332 57.44400116895851, 12.204 56.95600116895851 Z M 12.304 55.6200011689585 L 12.304 51.972001168958506 L 13.372 51.972001168958506 L 13.372 55.6200011689585 Z M 13.876 55.1960011689585 L 13.876 54.4400011689585 C 13.953333333333333 54.400001168958504, 14.038666666666668 54.3680011689585, 14.132 54.344001168958506 C 14.225333333333333 54.3200011689585, 14.325333333333333 54.3080011689585, 14.432 54.308001168958505 C 14.797333333333334 54.3080011689585, 15.071333333333332 54.42333450229184, 15.254 54.6540011689585 C 15.436666666666667 54.884667835625166, 15.538666666666668 55.19866783562517, 15.56 55.59600116895851 C 15.570666666666668 55.756001168958505, 15.577333333333334 55.91466783562517, 15.58 56.07200116895851 C 15.582666666666666 56.229334502291834, 15.581333333333333 56.38266783562517, 15.576 56.5320011689585 C 15.570666666666666 56.68133450229184, 15.562666666666665 56.82133450229184, 15.552 56.9520011689585 C 15.506666666666668 57.450667835625175, 15.377333333333333 57.81600116895851, 15.164 58.04800116895851 C 14.950666666666667 58.280001168958506, 14.605333333333332 58.410667835625176, 14.128 58.4400011689585 L 14.128 57.54800116895851 C 14.237333333333334 57.51866783562517, 14.32 57.466001168958506, 14.376 57.390001168958506 C 14.432 57.314001168958505, 14.464 57.21466783562517, 14.472 57.092001168958504 C 14.495999999999999 56.80133450229184, 14.509999999999998 56.540001168958504, 14.514 56.308001168958505 C 14.518 56.076001168958506, 14.509333333333334 55.85466783562517, 14.488 55.6440011689585 C 14.472000000000001 55.48933450229184, 14.420666666666666 55.37400116895851, 14.334 55.29800116895851 C 14.247333333333334 55.222001168958506, 14.114666666666666 55.1840011689585, 13.936 55.1840011689585 C 13.925333333333333 55.1840011689585, 13.914666666666665 55.18533450229184, 13.904 55.18800116895851 C 13.893333333333334 55.19066783562518, 13.884 55.19333450229183, 13.876 55.1960011689585 Z M 13.876 52.9040011689585 L 13.876 51.972001168958506 L 15.464 51.972001168958506 L 15.464 52.9040011689585 Z M 16.196 56.960001168958506 C 16.188000000000002 56.53066783562517, 16.182666666666666 56.11400116895851, 16.18 55.710001168958506 C 16.177333333333333 55.3060011689585, 16.177999999999997 54.910667835625176, 16.182 54.524001168958506 C 16.186 54.137334502291836, 16.190666666666665 53.756001168958505, 16.196 53.38000116895851 C 16.209333333333333 52.9400011689585, 16.334000000000003 52.594667835625174, 16.57 52.344001168958506 C 16.805999999999997 52.09333450229184, 17.142666666666663 51.94800116895851, 17.58 51.908001168958506 L 17.58 52.796001168958504 C 17.382666666666665 52.85200116895851, 17.281333333333333 52.98133450229184, 17.276 53.1840011689585 C 17.262666666666668 53.554667835625175, 17.253333333333334 53.90266783562518, 17.248 54.22800116895851 C 17.242666666666665 54.55333450229185, 17.24 54.87000116895851, 17.24 55.1780011689585 C 17.24 55.48600116895851, 17.242666666666665 55.80066783562518, 17.248 56.122001168958505 C 17.253333333333334 56.44333450229183, 17.262666666666668 56.78666783562517, 17.276 57.152001168958506 C 17.281333333333333 57.360001168958505, 17.382666666666665 57.4920011689585, 17.58 57.54800116895851 L 17.58 58.436001168958505 C 17.142666666666663 58.396001168958506, 16.805999999999997 58.250001168958505, 16.57 57.9980011689585 C 16.334000000000003 57.7460011689585, 16.209333333333333 57.4000011689585, 16.196 56.960001168958506 Z M 18.084 58.436001168958505 L 18.084 57.5440011689585 C 18.268 57.49066783562517, 18.366666666666667 57.366667835625165, 18.38 57.1720011689585 C 18.398666666666667 56.705334502291834, 18.410666666666668 56.256667835625166, 18.416 55.826001168958506 C 18.421333333333333 55.39533450229183, 18.421333333333333 54.964667835625164, 18.416 54.534001168958504 C 18.410666666666668 54.10333450229183, 18.398666666666667 53.65066783562517, 18.38 53.17600116895851 C 18.374666666666666 52.981334502291844, 18.276 52.85466783562518, 18.084 52.796001168958504 L 18.084 51.908001168958506 C 18.513333333333335 51.94800116895851, 18.846666666666668 52.09333450229184, 19.084 52.344001168958506 C 19.321333333333335 52.594667835625174, 19.445333333333334 52.9400011689585, 19.456 53.38000116895851 C 19.46666666666667 53.694667835625175, 19.474666666666668 54.00466783562517, 19.48 54.31000116895851 C 19.485333333333333 54.615334502291844, 19.488 54.91600116895851, 19.488 55.21200116895851 C 19.488 55.50800116895851, 19.485333333333333 55.80133450229184, 19.48 56.092001168958504 C 19.474666666666668 56.38266783562517, 19.46666666666667 56.6720011689585, 19.456 56.960001168958506 C 19.439999999999998 57.410667835625176, 19.311999999999998 57.759334502291836, 19.072 58.006001168958505 C 18.832 58.252667835625175, 18.502666666666666 58.396001168958506, 18.084 58.436001168958505 Z M 21.944 58.372001168958505 L 21.944 51.972001168958506 L 23.003999999999998 51.972001168958506 L 23.003999999999998 58.372001168958505 Z " stroke="none" fill-rule="nonzero" fill="#000000" fill-opacity="1" transform="matrix(1,0,0,1,5.05,13.314)" id="text50 l" />
  <path d="M 0 53.40480105206268 L 10 53.40480105206268 L 10 54.90480105206268 L 0 54.90480105206268 Z " stroke="none" fill-rule="evenodd" fill="#000000" fill-opacity="1" transform="matrix(1,0,0,1,5.05,13.314)" id="mark51 l" />
  <path d="M 0 47.3876009351668 L 10 47.3876009351668 L 10 48.8876009351668 L 0 48.8876009351668 Z " stroke="none" fill-rule="evenodd" fill="#000000" fill-opacity="1" transform="matrix(1,0,0,1,5.05,13.314)" id="mark52 l" />
  <path d="M 0 41.37040081827098 L 10 41.37040081827098 L 10 42.87040081827098 L 0 42.87040081827098 Z " stroke="none" fill-rule="evenodd" fill="#000000" fill-opacity="1" transform="matrix(1,0,0,1,5.05,13.314)" id="mark53 l" />
  <path d="M 0 35.3532007013751 L 10 35.3532007013751 L 10 36.8532007013751 L 0 36.8532007013751 Z " stroke="none" fill-rule="evenodd" fill="#000000" fill-opacity="1" transform="matrix(1,0,0,1,5.05,13.314)" id="mark54 l" />
  <path d="M 0 29.336000584479223 L 25 29.336000584479223 L 25 30.836000584479223 L 0 30.836000584479223 Z " stroke="none" fill-rule="evenodd" fill="#000000" fill-opacity="1" transform="matrix(1,0,0,1,5.05,13.314)" id="mark55 l" />
  <path d="M 12.212 26.83800058447922 C 12.206666666666667 26.66466725114589, 12.205333333333332 26.525333917812556, 12.207999999999998 26.420000584479222 C 12.210666666666667 26.314667251145888, 12.213333333333335 26.212667251145888, 12.216 26.11400058447922 L 13.296 26.11400058447922 C 13.288 26.191333917812553, 13.282 26.287333917812553, 13.277999999999999 26.40200058447922 C 13.273999999999997 26.51666725114589, 13.272666666666666 26.627333917812557, 13.274 26.734000584479222 C 13.275333333333332 26.840667251145888, 13.278666666666666 26.920667251145886, 13.283999999999999 26.97400058447922 C 13.294666666666664 27.094000584479218, 13.32933333333333 27.192000584479217, 13.387999999999998 27.26800058447922 C 13.446666666666665 27.344000584479218, 13.529333333333334 27.39800058447922, 13.636 27.43000058447922 L 13.636 28.322000584479223 C 13.142666666666667 28.28466725114589, 12.785333333333334 28.150000584479223, 12.563999999999998 27.918000584479223 C 12.342666666666666 27.686000584479224, 12.225333333333332 27.32600058447922, 12.212 26.83800058447922 Z M 12.312 25.502000584479223 L 12.312 21.854000584479223 L 13.379999999999999 21.854000584479223 L 13.379999999999999 25.502000584479223 Z M 13.883999999999999 25.07800058447922 L 13.883999999999999 24.322000584479223 C 13.961333333333332 24.28200058447922, 14.046666666666667 24.250000584479224, 14.139999999999999 24.226000584479223 C 14.233333333333333 24.202000584479222, 14.333333333333332 24.190000584479222, 14.44 24.190000584479222 C 14.805333333333333 24.190000584479222, 15.07933333333333 24.305333917812554, 15.261999999999999 24.536000584479222 C 15.444666666666667 24.76666725114589, 15.546666666666667 25.08066725114589, 15.568 25.478000584479222 C 15.578666666666667 25.638000584479222, 15.585333333333333 25.79666725114589, 15.588 25.95400058447922 C 15.590666666666666 26.11133391781256, 15.589333333333332 26.264667251145887, 15.584 26.414000584479222 C 15.578666666666665 26.563333917812557, 15.570666666666664 26.703333917812557, 15.559999999999999 26.83400058447922 C 15.514666666666667 27.332667251145885, 15.385333333333332 27.698000584479217, 15.171999999999999 27.93000058447922 C 14.958666666666666 28.162000584479223, 14.613333333333332 28.29266725114589, 14.136 28.322000584479223 L 14.136 27.43000058447922 C 14.245333333333333 27.40066725114589, 14.328 27.348000584479223, 14.383999999999999 27.272000584479223 C 14.44 27.196000584479222, 14.472 27.096667251145888, 14.479999999999999 26.97400058447922 C 14.503999999999998 26.683333917812554, 14.517999999999997 26.42200058447922, 14.521999999999998 26.190000584479222 C 14.526 25.958000584479223, 14.517333333333333 25.73666725114589, 14.495999999999999 25.52600058447922 C 14.48 25.371333917812557, 14.428666666666665 25.256000584479224, 14.341999999999999 25.180000584479224 C 14.255333333333333 25.104000584479223, 14.122666666666666 25.066000584479227, 13.943999999999999 25.066000584479223 C 13.933333333333332 25.066000584479227, 13.922666666666665 25.067333917812554, 13.911999999999999 25.07000058447922 C 13.901333333333334 25.072667251145887, 13.892 25.075333917812557, 13.883999999999999 25.07800058447922 Z M 13.883999999999999 22.786000584479222 L 13.883999999999999 21.854000584479223 L 15.472 21.854000584479223 L 15.472 22.786000584479222 Z M 16.18 26.83800058447922 C 16.174666666666667 26.66466725114589, 16.173333333333332 26.525333917812556, 16.176 26.420000584479222 C 16.178666666666665 26.314667251145888, 16.181333333333335 26.212667251145888, 16.183999999999997 26.11400058447922 L 17.264 26.11400058447922 C 17.256 26.191333917812553, 17.25 26.287333917812553, 17.246 26.40200058447922 C 17.241999999999997 26.51666725114589, 17.240666666666666 26.627333917812557, 17.241999999999997 26.734000584479222 C 17.243333333333332 26.840667251145888, 17.246666666666666 26.920667251145886, 17.252 26.97400058447922 C 17.262666666666668 27.094000584479218, 17.297333333333334 27.192000584479217, 17.355999999999998 27.26800058447922 C 17.414666666666665 27.344000584479218, 17.497333333333334 27.39800058447922, 17.604 27.43000058447922 L 17.604 28.322000584479223 C 17.110666666666663 28.28466725114589, 16.75333333333333 28.150000584479223, 16.532 27.918000584479223 C 16.310666666666666 27.686000584479224, 16.19333333333333 27.32600058447922, 16.18 26.83800058447922 Z M 16.279999999999998 25.502000584479223 L 16.279999999999998 21.854000584479223 L 17.348 21.854000584479223 L 17.348 25.502000584479223 Z M 17.852 25.07800058447922 L 17.852 24.322000584479223 C 17.929333333333332 24.28200058447922, 18.014666666666667 24.250000584479224, 18.107999999999997 24.226000584479223 C 18.20133333333333 24.202000584479222, 18.301333333333332 24.190000584479222, 18.407999999999998 24.190000584479222 C 18.773333333333333 24.190000584479222, 19.047333333333334 24.305333917812554, 19.23 24.536000584479222 C 19.412666666666667 24.76666725114589, 19.514666666666663 25.08066725114589, 19.535999999999998 25.478000584479222 C 19.546666666666667 25.638000584479222, 19.55333333333333 25.79666725114589, 19.555999999999997 25.95400058447922 C 19.558666666666664 26.11133391781256, 19.557333333333332 26.264667251145887, 19.552 26.414000584479222 C 19.546666666666667 26.563333917812557, 19.538666666666668 26.703333917812557, 19.528 26.83400058447922 C 19.482666666666667 27.332667251145885, 19.353333333333335 27.698000584479217, 19.14 27.93000058447922 C 18.926666666666666 28.162000584479223, 18.581333333333333 28.29266725114589, 18.104 28.322000584479223 L 18.104 27.43000058447922 C 18.21333333333333 27.40066725114589, 18.296 27.348000584479223, 18.352 27.272000584479223 C 18.408 27.196000584479222, 18.44 27.096667251145888, 18.448 26.97400058447922 C 18.471999999999998 26.683333917812554, 18.485999999999997 26.42200058447922, 18.49 26.190000584479222 C 18.494 25.958000584479223, 18.485333333333333 25.73666725114589, 18.464 25.52600058447922 C 18.447999999999997 25.371333917812557, 18.396666666666665 25.256000584479224, 18.31 25.180000584479224 C 18.223333333333333 25.104000584479223, 18.090666666666664 25.066000584479227, 17.912 25.066000584479223 C 17.901333333333334 25.066000584479227, 17.890666666666668 25.067333917812554, 17.88 25.07000058447922 C 17.86933333333333 25.072667251145887, 17.86 25.075333917812557, 17.852 25.07800058447922 Z M 17.852 22.786000584479222 L 17.852 21.854000584479223 L 19.439999999999998 21.854000584479223 L 19.439999999999998 22.786000584479222 Z M 21.944 28.254000584479222 L 21.944 21.854000584479223 L 23.003999999999998 21.854000584479223 L 23.003999999999998 28.254000584479222 Z " stroke="none" fill-rule="nonzero" fill="#000000" fill-opacity="1" transform="matrix(1,0,0,1,5.05,13.314)" id="text55 l" />
  <path d="M 0 23.3188004675834 L 10 23.3188004675834 L 10 24.8188004675834 L 0 24.8188004675834 Z " stroke="none" fill-rule="evenodd" fill="#000000" fill-opacity="1" transform="matrix(1,0,0,1,5.05,13.314)" id="mark56 l" />
  <path d="M 0 17.301600350687522 L 10 17.301600350687522 L 10 18.801600350687522 L 0 18.801600350687522 Z " stroke="none" fill-rule="evenodd" fill="#000000" fill-opacity="1" transform="matrix(1,0,0,1,5.05,13.314)" id="mark57 l" />
  <path d="M 0 11.2844002337917 L 10 11.2844002337917 L 10 12.7844002337917 L 0 12.7844002337917 Z " stroke="none" fill-rule="evenodd" fill="#000000" fill-opacity="1" transform="matrix(1,0,0,1,5.05,13.314)" id="mark58 l" />
  <path d="M 0 5.267200116895822 L 10 5.267200116895822 L 10 6.767200116895822 L 0 6.767200116895822 Z " stroke="none" fill-rule="evenodd" fill="#000000" fill-opacity="1" transform="matrix(1,0,0,1,5.05,13.314)" id="mark59 l" />
  <path d="M 0 -0.75 L 25 -0.75 L 25 0.75 L 0 0.75 Z " stroke="none" fill-rule="evenodd" fill="#000000" fill-opacity="1" transform="matrix(1,0,0,1,5.05,13.314)" id="mark60 l" />
  <path d="M 12.264 -3.2159999999999997 C 12.261333333333333 -3.4799999999999995, 12.258 -3.7573333333333334, 12.254 -4.048 C 12.25 -4.338666666666667, 12.248 -4.637333333333333, 12.248 -4.944 C 12.248 -5.250666666666667, 12.249333333333333 -5.558666666666666, 12.251999999999999 -5.867999999999999 C 12.254666666666665 -6.1773333333333325, 12.258666666666667 -6.485333333333333, 12.264 -6.792 C 12.271999999999998 -7.256, 12.397333333333332 -7.6080000000000005, 12.639999999999999 -7.848 C 12.882666666666665 -8.088000000000001, 13.215999999999998 -8.226666666666667, 13.639999999999999 -8.264 L 13.639999999999999 -7.372 C 13.543999999999997 -7.347999999999999, 13.470666666666665 -7.303999999999999, 13.419999999999998 -7.239999999999999 C 13.369333333333332 -7.176, 13.343999999999998 -7.090666666666667, 13.344 -6.984 C 13.335999999999999 -6.496, 13.330666666666666 -6.029333333333334, 13.328 -5.584 C 13.325333333333333 -5.1386666666666665, 13.323999999999998 -4.705333333333334, 13.323999999999998 -4.284 C 13.323999999999998 -3.8626666666666667, 13.328 -3.4480000000000004, 13.335999999999999 -3.04 C 13.335999999999999 -2.9306666666666668, 13.363333333333333 -2.841333333333333, 13.418 -2.772 C 13.472666666666665 -2.7026666666666666, 13.549333333333333 -2.653333333333333, 13.648 -2.6239999999999997 L 13.648 -1.7319999999999998 C 13.159999999999998 -1.7639999999999998, 12.809333333333331 -1.896, 12.595999999999998 -2.1279999999999997 C 12.382666666666665 -2.36, 12.271999999999998 -2.7226666666666666, 12.264 -3.2159999999999997 Z M 13.812 -4.896 L 13.812 -5.64 C 13.894666666666666 -5.688, 13.987333333333332 -5.725333333333333, 14.09 -5.752 C 14.192666666666668 -5.778666666666666, 14.301333333333332 -5.792, 14.415999999999999 -5.792 C 14.84 -5.792, 15.134 -5.692666666666666, 15.297999999999998 -5.494 C 15.462 -5.295333333333334, 15.547999999999998 -4.964, 15.556 -4.5 C 15.561333333333334 -4.316000000000001, 15.564666666666666 -4.160666666666667, 15.565999999999999 -4.034 C 15.567333333333332 -3.907333333333333, 15.567333333333332 -3.7826666666666666, 15.565999999999999 -3.6599999999999997 C 15.564666666666666 -3.5373333333333337, 15.559999999999999 -3.389333333333333, 15.552 -3.2159999999999997 C 15.527999999999999 -2.7253333333333334, 15.408 -2.3626666666666667, 15.192 -2.1279999999999997 C 14.975999999999999 -1.893333333333333, 14.628 -1.7613333333333332, 14.148 -1.7319999999999998 L 14.148 -2.6159999999999997 C 14.251999999999999 -2.6453333333333333, 14.331333333333333 -2.6933333333333334, 14.386 -2.76 C 14.440666666666665 -2.826666666666666, 14.469333333333333 -2.913333333333333, 14.472 -3.0199999999999996 C 14.477333333333332 -3.174666666666666, 14.481333333333332 -3.313333333333333, 14.483999999999998 -3.436 C 14.486666666666666 -3.558666666666667, 14.489333333333335 -3.676, 14.491999999999999 -3.788 C 14.494666666666667 -3.9, 14.495333333333333 -4.011333333333333, 14.494 -4.122 C 14.492666666666667 -4.232666666666667, 14.489333333333333 -4.349333333333333, 14.483999999999998 -4.4719999999999995 C 14.481333333333332 -4.621333333333333, 14.429333333333332 -4.732, 14.328 -4.804 C 14.226666666666665 -4.876, 14.094666666666665 -4.912, 13.931999999999999 -4.912 C 13.913333333333334 -4.912, 13.894 -4.911333333333333, 13.873999999999999 -4.91 C 13.854 -4.908666666666667, 13.833333333333332 -4.904, 13.812 -4.896 Z M 14.44 -6.216 C 14.448 -6.309333333333333, 14.452666666666666 -6.391333333333333, 14.453999999999999 -6.462 C 14.455333333333332 -6.532666666666667, 14.454666666666665 -6.6080000000000005, 14.451999999999998 -6.688 C 14.449333333333332 -6.768000000000001, 14.445333333333334 -6.866666666666667, 14.44 -6.984 C 14.434666666666665 -7.082666666666666, 14.407999999999998 -7.165999999999999, 14.36 -7.233999999999999 C 14.311999999999998 -7.302, 14.238666666666665 -7.347999999999999, 14.139999999999999 -7.372 L 14.139999999999999 -8.26 C 14.577333333333332 -8.219999999999999, 14.911333333333332 -8.075333333333333, 15.142 -7.826 C 15.372666666666667 -7.576666666666666, 15.495999999999999 -7.2493333333333325, 15.511999999999999 -6.843999999999999 C 15.514666666666667 -6.777333333333333, 15.516666666666666 -6.7139999999999995, 15.517999999999999 -6.654 C 15.519333333333332 -6.594, 15.519333333333332 -6.53, 15.517999999999999 -6.462 C 15.516666666666666 -6.393999999999999, 15.514666666666667 -6.311999999999999, 15.511999999999999 -6.216 Z M 16.196 -3.2119999999999997 C 16.188000000000002 -3.641333333333333, 16.182666666666666 -4.058, 16.18 -4.462 C 16.177333333333333 -4.866, 16.177999999999997 -5.261333333333333, 16.182 -5.648 C 16.186 -6.034666666666666, 16.190666666666665 -6.416, 16.196 -6.792 C 16.209333333333333 -7.231999999999999, 16.334000000000003 -7.577333333333334, 16.57 -7.828 C 16.805999999999997 -8.078666666666667, 17.142666666666663 -8.224, 17.58 -8.264 L 17.58 -7.3759999999999994 C 17.382666666666665 -7.32, 17.281333333333333 -7.190666666666667, 17.276 -6.9879999999999995 C 17.262666666666668 -6.617333333333333, 17.253333333333334 -6.269333333333333, 17.248 -5.944 C 17.242666666666665 -5.618666666666666, 17.24 -5.302, 17.24 -4.994 C 17.24 -4.686, 17.242666666666665 -4.371333333333333, 17.248 -4.05 C 17.253333333333334 -3.7286666666666664, 17.262666666666668 -3.3853333333333326, 17.276 -3.0199999999999996 C 17.281333333333333 -2.812, 17.382666666666665 -2.6799999999999997, 17.58 -2.6239999999999997 L 17.58 -1.7359999999999998 C 17.142666666666663 -1.7759999999999998, 16.805999999999997 -1.9219999999999997, 16.57 -2.174 C 16.334000000000003 -2.4259999999999997, 16.209333333333333 -2.772, 16.196 -3.2119999999999997 Z M 18.084 -1.7359999999999998 L 18.084 -2.6279999999999997 C 18.268 -2.681333333333333, 18.366666666666667 -2.8053333333333335, 18.38 -3 C 18.398666666666667 -3.4666666666666663, 18.410666666666668 -3.915333333333333, 18.416 -4.346 C 18.421333333333333 -4.776666666666666, 18.421333333333333 -5.207333333333333, 18.416 -5.638 C 18.410666666666668 -6.068666666666666, 18.398666666666667 -6.521333333333333, 18.38 -6.9959999999999996 C 18.374666666666666 -7.190666666666667, 18.276 -7.317333333333334, 18.084 -7.3759999999999994 L 18.084 -8.264 C 18.513333333333335 -8.224, 18.846666666666668 -8.078666666666667, 19.084 -7.828 C 19.321333333333335 -7.577333333333334, 19.445333333333334 -7.231999999999999, 19.456 -6.792 C 19.46666666666667 -6.477333333333332, 19.474666666666668 -6.167333333333333, 19.48 -5.861999999999999 C 19.485333333333333 -5.556666666666667, 19.488 -5.256, 19.488 -4.96 C 19.488 -4.664, 19.485333333333333 -4.370666666666667, 19.48 -4.08 C 19.474666666666668 -3.7893333333333334, 19.46666666666667 -3.5, 19.456 -3.2119999999999997 C 19.439999999999998 -2.761333333333333, 19.311999999999998 -2.4126666666666665, 19.072 -2.166 C 18.832 -1.9193333333333331, 18.502666666666666 -1.7759999999999998, 18.084 -1.7359999999999998 Z M 21.944 -1.7999999999999998 L 21.944 -8.2 L 23.003999999999998 -8.2 L 23.003999999999998 -1.7999999999999998 Z " stroke="none" fill-rule="nonzero" fill="#000000" fill-opacity="1" transform="matrix(1,0,0,1,5.05,13.314)" id="text60 l" />
  <path d="M -5 -13.264 L 30 -13.264 L 30 361.78280689685533 L -5 361.78280689685533 Z " stroke="#FF0000" stroke-opacity="1" stroke-width="0.1" stroke-linecap="butt" stroke-linejoin="miter" fill="none" transform="matrix(1,0,0,1,5.05,13.314)" />
</svg>